<svg xmlns="http://www.w3.org/2000/svg" xmlns:xlink="http://www.w3.org/1999/xlink" viewBox="0 0 1016 64" width="1016" height="64" style="color: #ffffff"><rect x="0" y="0" width="1016" height="64" fill="#354052"></rect>
	<symbol id="amao-wama" xmlns="http://www.w3.org/2000/svg" viewBox="0 0 48 48" fill="currentColor"><path d="M10.146 21.094h2.173l-3.496 -8.976h-2.504l-3.496 8.976h2.126l.638 -1.771h3.92l.639 1.771zm-3.922 -3.52l1.323 -3.684l1.323 3.685h-2.646zm18.095 -5.456h-2.953l-2.362 6.496l-2.386 -6.496h-2.976v8.976h1.984v-6.33l2.315 6.33h2.079l2.315 -6.33v6.33h1.984v-8.976zm8.646 8.976h2.173l-3.496 -8.976h-2.504l-3.496 8.976h2.126l.638 -1.771h3.92l.639 1.771zm-3.922 -3.52l1.323 -3.684l1.323 3.685h-2.646zm11.008 3.639c2.67 0 4.465 -1.843 4.465 -4.607c0 -2.787 -1.772 -4.606 -4.465 -4.606c-2.67 0 -4.464 1.843 -4.464 4.606c0 2.788 1.771 4.607 4.464 4.607zm0 -1.748c-1.44 0 -2.386 -1.134 -2.386 -2.859c0 -1.724 .945 -2.858 2.386 -2.858c1.441 0 2.386 1.134 2.386 2.858c0 1.725 -.945 2.859 -2.386 2.859zm-36.471 7.435l1.653 6.284l1.747 -6.284h1.96l1.749 6.236l1.724 -6.236h2.032l-2.599 8.977h-2.126l-1.771 -6.19l-1.748 6.19h-2.126l-2.575 -8.977h2.079zm16.606 0l3.496 8.977h-2.173l-.638 -1.772h-3.921l-.638 1.772h-2.126l3.496 -8.977h2.504zm-1.276 1.772l-1.322 3.685h2.645l-1.323 -3.685zm16.771 -1.772h-2.953l-2.362 6.496l-2.386 -6.496h-2.976v8.977h1.984v-6.331l2.315 6.33h2.079l2.315 -6.33v6.33h1.984v-8.976zm8.646 8.977h2.173l-3.496 -8.977h-2.504l-3.496 8.977h2.126l.638 -1.772h3.921l.638 1.772zm-3.921 -3.52l1.322 -3.685l1.323 3.685h-2.645z"/></symbol>
	<symbol id="by-nbrb" xmlns="http://www.w3.org/2000/svg" viewBox="0 0 48 48" fill="currentColor"><path d="M8.736 16.098a2.473 2.473 0 0 0 .877 1.052c1.135 .828 2.925 .943 4.585 .151c1.394 -.663 2.35 -1.794 2.666 -2.975c.036 -.123 .072 -.252 .086 -.375v-.007a1.958 1.958 0 0 0 -.28 -1.369c-.324 -.475 -.848 -.756 -1.459 -.835c.374 .201 .668 .49 .848 .857c.172 .353 .223 .756 .165 1.145c-.122 .872 -.726 1.578 -.833 1.693c-.942 1.023 -1.962 1.369 -2.135 1.434c-1.61 .677 -3.356 .31 -4.089 -.937c-.302 -.518 -.388 -1.11 -.294 -1.707a2.95 2.95 0 0 1 .215 -.75c.194 -.496 .618 -1.022 .913 -1.34c.093 -.107 .481 -.46 .604 -.554c.69 -.555 1.3 -.821 1.365 -.85c1.028 -.468 1.502 -.562 1.89 -.655c.604 -.152 1.617 -.224 1.746 -.224a9.1 9.1 0 0 1 1.682 .101c.287 .05 .862 .18 .862 .18c.187 .05 .374 .094 .568 .13c.453 .086 .92 .151 1.408 .18c1.869 .108 3.58 -.288 4.851 -1.001c-.036 .028 -.072 .064 -.108 .093c-1.782 1.11 -3.73 3.645 -5.246 6.952c-.366 .065 -1.272 .26 -2.472 .735c-1.875 .742 -3.442 1.822 -3.787 2.572c.532 -.649 2.005 -1.492 3.845 -2.133c.912 -.317 1.782 -.54 2.537 -.663c1.386 -.208 3.463 -.403 5.892 -.554c.266 -.015 .906 -.05 .942 -.05c0 0 1.847 -.066 3.01 -.346c.022 -.008 .037 -.015 .058 -.015c.424 -.094 .877 -.23 1.344 -.432a9.87 9.87 0 0 0 .877 -.454c.028 -.014 .108 -.065 .115 -.065c.682 -.396 1.372 -.9 2.04 -1.513c1.222 -1.116 2.128 -2.355 2.616 -3.486c.065 -.159 .194 -.461 .194 -.461a4.82 4.82 0 0 0 .094 -.296c.395 -1.246 .36 -2.247 -.201 -2.708c-.403 -.288 -.992 -.317 -1.69 -.101h-.013c-.03 .007 -.058 .021 -.094 .029c-.043 .014 -.086 .028 -.122 .043c-.115 .043 -.23 .086 -.345 .137c-.014 .007 -.022 .014 -.036 .021a4.942 4.942 0 0 0 -.388 .195c-1.236 .655 -2.666 1.858 -3.967 3.443c-.136 .166 -.38 .497 -.38 .497c-1.237 1.787 -2.954 5.043 -2.954 5.043c-.345 .029 -3.716 .209 -4.334 .26c.51 -1.002 .856 -1.665 .856 -1.665a58.08 58.08 0 0 1 2.853 -5.158c-.942 .937 -1.962 2.32 -2.86 3.962c-.216 .39 -.95 1.866 -1.481 2.91l-.481 .044l.898 -1.75a22.314 22.314 0 0 1 1.818 -3.084a20.863 20.863 0 0 1 2.35 -2.845a5.234 5.234 0 0 0 -.496 .245l.007 -.008c-1.214 .656 -2.953 .894 -4.8 .548c-.503 -.094 -1.696 -.476 -1.826 -.512c-1.43 -.396 -3.24 -.367 -5.102 .21a10.396 10.396 0 0 0 -2.975 1.44c-.158 .101 -.316 .21 -.467 .332c-1.387 1.087 -2.185 2.571 -2.228 3.904c.015 .036 -.05 .67 .266 1.34c-.007 0 -.007 0 0 0m21.336 -1.78l.259 -.54c.072 -.158 .251 -.518 .259 -.533c.079 -.165 .265 -.533 .273 -.547c.093 -.173 .18 -.353 .273 -.533c.014 -.03 .028 -.05 .043 -.08c.093 -.18 .194 -.367 .295 -.554c.194 -.36 .402 -.72 .625 -1.074c.618 -1.023 1.847 -2.788 1.854 -2.795c.007 -.007 .014 -.014 .021 -.029c.008 -.007 .295 -.389 .755 -.742c.086 -.05 .266 -.136 .266 -.136c.294 -.123 .582 -.137 .783 0c.23 .158 .316 .482 .266 .871a.543 .543 0 0 1 -.007 .094c-.029 .18 -.072 .374 -.13 .569c0 .007 -.007 .014 -.007 .022c-.05 .194 -.115 .389 -.187 .583c-.373 1.045 -1.006 2.197 -1.868 3.3c-.252 .324 -.517 .633 -.79 .929c-.137 .144 -.28 .288 -.425 .432l-.064 .065c-.137 .137 -.28 .26 -.424 .382c-.015 .014 -.029 .021 -.043 .036c-.137 .115 -.273 .223 -.41 .331a.196 .196 0 0 1 -.043 .036c-.137 .108 -.28 .202 -.417 .295c-.029 .015 -.05 .036 -.079 .05c-.136 .094 -.273 .18 -.402 .253c-.015 .007 -.022 .014 -.036 .022c-.13 .072 -.252 .13 -.374 .187c-.021 .014 -.043 .021 -.072 .036a2.958 2.958 0 0 1 -.438 .166c-.122 .036 -.244 .072 -.352 .093c.057 -.086 .532 -1.059 .596 -1.188m-7.574 23.967c.244 -.281 .481 -.555 .697 -.836c.941 -1.167 2.113 -3.602 2.113 -3.602l4.527 -8.882a21.53 21.53 0 0 1 1.811 -3.083a22.457 22.457 0 0 1 2.343 -2.853c-.633 .266 -1.387 .8 -2.17 1.527c-1.646 1.304 -3.22 3.444 -4.909 6.909l-3.248 6.815l-.467 .886c-.216 .504 -.668 1.224 -1.193 2.024c-.453 .691 -1.567 1.902 -1.804 2.11l-.014 .015a9.89 9.89 0 0 1 -1.437 1.059c-.173 .1 -.353 .202 -.532 .295c-.065 .03 -.496 .252 -.783 .36c-.094 .037 -.647 .281 -1.344 .44c-.108 .022 -.697 .166 -1.351 .209c-.158 .007 -.317 .021 -.467 .014c0 0 -.54 -.014 -.798 -.05c-1.366 -.21 -2.472 -.915 -2.918 -2.024c-.79 -1.96 .77 -4.438 3.478 -5.533a7.255 7.255 0 0 1 1.48 -.418c.008 0 .511 -.093 .69 -.115c2.228 -.238 4.154 .648 4.298 1.988c.144 1.333 -1.552 2.615 -3.78 2.853c-1.876 .202 -3.536 -.396 -4.096 -1.383c.014 .065 .021 .122 .043 .187c.496 1.6 2.738 2.32 5.002 1.614c2.263 -.706 3.693 -2.58 3.198 -4.179c-.166 -.533 -.525 -.958 -1.007 -1.275c-1.48 -1.03 -3.823 -1.21 -6.08 -.295c-3.147 1.268 -4.943 4.164 -4.016 6.47c.496 1.231 1.667 2.038 3.126 2.333c.424 .087 1.516 .26 3.111 -.014a11.22 11.22 0 0 0 1.898 -.505c1.674 -.59 3.09 -1.49 4.11 -2.52c.18 -.203 .489 -.541 .489 -.541m9.622 -15.697a52.996 52.996 0 0 1 1.689 -2.904c-.941 .937 -1.955 2.32 -2.853 3.963c-.215 .389 -.41 .785 -.596 1.167l-5.088 9.977c-.33 .713 -.805 1.534 -1.402 2.37c-1.128 1.592 -2.35 2.774 -3.118 3.105c.819 -.123 2.235 -1.268 3.528 -2.925a13.462 13.462 0 0 0 1.409 -2.204c.028 -.036 6.014 -11.779 6.431 -12.55m3.809 5.814c-2.17 -1.556 -5.52 -.598 -7.488 2.14c2.27 -2.118 5.052 -2.824 6.575 -1.535c.705 .605 1.028 1.55 1.006 2.644c0 .058 -.007 .108 -.014 .159l-.022 .31a6.9 6.9 0 0 1 -.194 1.037a11.245 11.245 0 0 1 -1.056 2.492c-.51 .894 -1.25 1.816 -2.185 2.658c-.158 .145 -.574 .49 -.618 .526c-.122 .094 -.46 .346 -.51 .382c-.122 .087 -.453 .31 -.496 .332l-.488 .295c-.144 .086 -.288 .158 -.431 .23c-.015 .008 -.03 .022 -.05 .03c-1.007 .49 -1.51 .554 -1.539 .568c-.927 .216 -1.717 .152 -2.249 -.245c-.007 -.007 -.208 -.18 -.216 -.201c-.344 -.433 -.388 -.822 -.402 -.908c-.122 -.728 .08 -1.635 .575 -2.55c.481 -.908 1.229 -1.866 2.192 -2.745c.064 -.057 .13 -.122 .194 -.187c.345 -.303 .69 -.576 1.035 -.836c1.516 -1.03 3.032 -1.347 3.614 -.67c.245 .288 .288 .713 .166 1.218c.309 -.476 .41 -.973 .23 -1.398c-.324 -.742 -1.416 -1.008 -2.588 -.699c0 0 -.56 .173 -1.063 .447c-.683 .346 -1.358 .807 -2.005 1.354c-2.71 2.342 -3.751 5.583 -2.328 7.233c.833 .965 2.328 1.167 3.966 .706c1.287 -.317 2.753 -1.045 4.154 -2.14c1.682 -1.318 2.882 -2.874 3.406 -4.235c1.057 -2.45 .647 -5.108 -1.171 -6.412m6.575 -12.001a9.56 9.56 0 0 1 -2.86 .54c-1.969 .072 -5.31 .014 -5.31 .014c-.762 .015 -4.614 -.173 -5.203 -.18c-.855 -.007 -1.76 -.029 -2.702 0c-2.846 .101 -5.383 .382 -7.115 .735c-.402 .08 -1.185 .288 -1.243 .302c-1.38 .39 -2.594 .93 -3.543 1.535c-.539 .331 -.999 .699 -1.358 1.102a4.47 4.47 0 0 0 -.23 .281a4.905 4.905 0 0 0 -.237 .36c-.31 .54 -.431 1.095 -.31 1.636c.245 1.123 1.474 1.887 3.12 2.125l-.324 .626c-.222 .505 -.668 1.225 -1.193 2.025c-.46 .698 -1.566 1.909 -1.803 2.118c-.007 0 -.015 .007 -.015 .014a9.998 9.998 0 0 1 -1.437 1.052c-.18 .108 -.352 .209 -.532 .295c-.064 .029 -.129 .058 -.194 .094c-.905 .44 -1.437 .569 -1.926 .699c-.1 .028 -.208 .05 -.309 .072c-.064 .014 -.136 .021 -.208 .036c-.539 .108 -1.308 .13 -1.308 .13c-1.725 -.015 -3.183 -.764 -3.715 -2.083c-.784 -1.966 .769 -4.444 3.478 -5.532c.1 -.058 .215 -.101 .323 -.137c.69 -.274 1.66 -.382 1.84 -.403c2.228 -.238 4.154 .648 4.297 1.98c.144 1.333 -1.552 2.616 -3.78 2.853c-1.875 .202 -3.535 -.396 -4.096 -1.383c.015 .058 .029 .123 .043 .18c.496 1.6 2.731 2.327 4.995 1.614c2.263 -.706 3.694 -2.58 3.198 -4.178c-.166 -.533 -.525 -.958 -1.006 -1.275c-1.48 -1.03 -3.816 -1.21 -6.08 -.303c-3.148 1.268 -4.944 4.171 -4.017 6.476c.395 .987 1.229 1.7 2.292 2.104c.884 .382 2.163 .389 2.163 .389c.381 0 .77 -.029 1.172 -.08c.819 -.093 1.66 -.295 2.508 -.59c1.674 -.59 3.097 -1.491 4.11 -2.521c.187 -.195 .496 -.526 .496 -.526c.244 -.281 .482 -.562 .697 -.836c.611 -.75 1.308 -2.024 1.732 -2.838c.151 0 .316 -.015 .467 -.03c-.036 .073 -.33 .656 -.453 .887c-.287 .54 -.646 1.11 -1.063 1.693c-1.128 1.592 -2.35 2.78 -3.119 3.105c.82 -.123 2.235 -1.268 3.529 -2.925a14.12 14.12 0 0 0 1.214 -1.83h.007s.158 -.302 .23 -.446c.08 -.152 .173 -.34 .288 -.555c.23 -.036 .46 -.072 .69 -.13a9.493 9.493 0 0 0 2.206 -.785c.079 -.043 .33 -.173 .373 -.195h-.007c1.157 -.691 1.79 -1.757 1.445 -2.55c-.252 -.576 -.963 -.871 -1.833 -.843c.453 .144 .79 .404 .927 .764c.367 .958 -.747 2.27 -2.486 2.94c-.166 .057 -.33 .114 -.489 .165c-.237 .072 -.546 .122 -.575 .13c.762 -1.484 1.948 -3.811 2.975 -5.821c.259 -.022 .518 -.043 .604 -.058c.61 -.057 2.63 -.086 3.09 -.072c.223 .007 .438 .015 .647 .029l-5.304 10.474l-.718 1.384c-.03 .064 -.058 .13 -.08 .187c-.136 .367 -.136 .77 .058 1.095c.13 .23 .338 .396 .568 .49c.108 .065 .273 .1 .474 .1h.029c.489 0 1.193 -.165 1.933 -.49c.769 -.33 1.394 -.756 1.71 -1.13c.007 -.008 .381 -.461 .388 -.461c-.007 .007 -.33 .324 -.517 .504a1.597 1.597 0 0 1 -.467 .302l-.065 .022s-.007 0 -.014 .007a.784 .784 0 0 1 -.848 -.26a.313 .313 0 0 1 -.043 -.05c-.007 -.007 -.007 -.014 -.015 -.014a.616 .616 0 0 1 -.115 -.274a.67 .67 0 0 1 -.021 -.173c0 -.072 .014 -.144 .029 -.208c.043 -.21 .115 -.382 .129 -.418l5.31 -10.907l.036 -.065c.475 .015 .956 .03 1.438 .05c3.823 .18 7.402 .152 9.335 -.064c.086 -.007 .172 -.022 .258 -.029c.662 -.086 1.186 -.194 1.538 -.324c.252 -.072 .496 -.144 .748 -.23c2.637 -.93 4.592 -2.608 5.145 -4.237c-.84 1.095 -2.25 2.104 -3.996 2.724m-26.783 8.046c-1.588 -.151 -2.76 -.785 -2.946 -1.736c-.266 -1.311 1.401 -2.78 3.816 -3.458c.309 -.086 .64 -.173 1.006 -.252c.316 -.065 .575 -.108 .92 -.173l-2.796 5.62zm1.905 -.043a5.684 5.684 0 0 1 -.482 .043c.093 -.187 2.982 -5.864 2.982 -5.864c.022 -.007 .475 -.05 .489 -.057c-1.05 2.067 -2.25 4.423 -2.99 5.878"/></symbol>
	<symbol id="fastforex" xmlns="http://www.w3.org/2000/svg" viewBox="0 0 48 48" fill="currentColor"><path d="M8.303 21c.211 0 .372 .07 .483 .211c.1 .14 .18 .382 .22 .714l.624 4.682h-.422l-.262 -1.909h-2.572l-.935 1.92h-.422l2.281 -4.683c.161 -.322 .312 -.563 .453 -.714a.727 .727 0 0 1 .552 -.221zm-2.16 0l-.06 .342h-1.91c-.442 0 -.794 .1 -1.055 .301c-.261 .201 -.442 .533 -.513 .985l-.2 1.136h2.863l-.05 .341h-2.884l-.422 2.422h-.412l.683 -3.91c.1 -.552 .312 -.964 .623 -1.225c.322 -.261 .774 -.392 1.347 -.392h1.99zm2.11 .402c-.1 0 -.19 .03 -.261 .11c-.08 .08 -.161 .222 -.262 .423l-1.195 2.431h2.381l-.331 -2.431c-.03 -.201 -.06 -.342 -.11 -.422a.254 .254 0 0 0 -.222 -.111zm2.593 5.065a1.866 1.866 0 0 1 -.754 -.704l.312 -.25c.17 .29 .381 .502 .643 .632c.26 .13 .572 .201 .944 .201s.704 -.06 .985 -.17c.281 -.111 .513 -.282 .663 -.493a1.17 1.17 0 0 0 .242 -.734c0 -.21 -.07 -.382 -.222 -.502a1.435 1.435 0 0 0 -.522 -.271a10.95 10.95 0 0 0 -.925 -.212c-.482 -.1 -.834 -.25 -1.055 -.442c-.23 -.19 -.341 -.472 -.341 -.824c0 -.331 .09 -.633 .27 -.884c.182 -.251 .433 -.452 .755 -.593c.321 -.14 .683 -.211 1.085 -.211c.904 0 1.487 .291 1.748 .874l-.311 .231a1.266 1.266 0 0 0 -.563 -.582a2.059 2.059 0 0 0 -.894 -.181c-.312 0 -.603 .05 -.854 .16a1.393 1.393 0 0 0 -.593 .473a1.18 1.18 0 0 0 -.211 .693c0 .272 .11 .483 .321 .623c.211 .14 .543 .251 .985 .342c.402 .07 .734 .16 .975 .251c.251 .1 .442 .231 .573 .392c.13 .16 .2 .382 .2 .653c0 .352 -.1 .653 -.29 .915a1.87 1.87 0 0 1 -.825 .613a3.31 3.31 0 0 1 -1.226 .22c-.442 0 -.814 -.07 -1.115 -.22zm15.033 -5.457c.643 0 1.146 .14 1.498 .412c.351 .271 .522 .663 .522 1.156c0 .16 -.01 .311 -.04 .442l-.302 1.688c-.24 1.337 -1.075 2.01 -2.532 2.01c-.663 0 -1.166 -.13 -1.507 -.402c-.342 -.271 -.513 -.653 -.513 -1.156c0 -.17 .01 -.321 .04 -.452l.302 -1.688c.241 -1.337 1.075 -2.01 2.532 -2.01zm-6.612 -.01l-.06 .342h-1.83l-.914 5.185h-.412l.905 -5.185h-1.83l.071 -.342h4.07zm11.727 0c.533 0 .955 .12 1.256 .362c.312 .24 .463 .583 .463 1.015c.01 .382 -.121 .713 -.362 1.015c-.241 .281 -.573 .472 -.985 .562c.261 .08 .432 .242 .533 .463c.1 .22 .17 .522 .21 .894l.151 1.216h-1.175l-.151 -1.226a2.766 2.766 0 0 0 -.12 -.583a.612 .612 0 0 0 -.242 -.321c-.11 -.07 -.271 -.11 -.482 -.11h-.794l-.392 2.24h-1.115l.974 -5.527h2.231zm-7.667 0l-.151 .864h-1.85c-.26 0 -.481 .06 -.652 .181c-.181 .12 -.292 .342 -.342 .663l-.13 .764h2.35l-.16 .864h-2.351l-.382 2.17h-1.116l.674 -3.788c.09 -.552 .321 -.974 .673 -1.276c.362 -.301 .884 -.442 1.588 -.442h1.849zm2.462 .884c-.372 0 -.663 .1 -.895 .292c-.23 .2 -.381 .482 -.442 .844l-.301 1.688c-.02 .14 -.03 .231 -.03 .292c0 .28 .08 .492 .25 .633c.162 .14 .403 .22 .724 .22c.362 0 .664 -.1 .895 -.29c.23 -.202 .382 -.483 .452 -.845l.301 -1.688c.02 -.14 .03 -.231 .03 -.292c0 -.28 -.08 -.492 -.25 -.633c-.161 -.14 -.413 -.22 -.734 -.22zm5.095 -.01h-1.176l-.261 1.548h1.175a.98 .98 0 0 0 .704 -.261a.916 .916 0 0 0 .271 -.684c0 -.2 -.07 -.351 -.2 -.452a.823 .823 0 0 0 -.513 -.15zm8.41 -.874l.815 1.839l1.457 -1.839h1.236l-2.251 2.834l1.196 2.683h-1.267l-.804 -1.819l-1.447 1.819h-1.236l2.25 -2.814l-1.203 -2.703h1.256zm-1.838 .01l-.151 .864h-1.849c-.281 0 -.502 .06 -.663 .191c-.161 .13 -.282 .352 -.332 .653l-.11 .603h2.351l-.15 .865h-2.352l-.11 .603c-.02 .09 -.02 .18 -.02 .25c0 .202 .06 .352 .18 .453c.12 .1 .302 .15 .553 .15h1.859l-.15 .865h-1.86c-.583 .03 -1.015 -.08 -1.296 -.292c-.282 -.21 -.422 -.532 -.422 -.954c0 -.171 .01 -.322 .04 -.452l.372 -2.08c.09 -.553 .321 -.975 .673 -1.277c.362 -.301 .884 -.442 1.588 -.442h1.849zm9.044 -.01l-1.296 1.648c-.191 .231 -.473 .382 -.724 .382h-2.28l1.306 -1.648c.181 -.231 .463 -.382 .724 -.382h2.27zm-.623 .301h-1.658a.64 .64 0 0 0 -.416 .196l-.067 .076l-.914 1.165h1.658c.16 0 .362 -.11 .482 -.27l.915 -1.167z"/></symbol>
	<symbol id="kr-bok" xmlns="http://www.w3.org/2000/svg" viewBox="0 0 48 48" fill="currentColor"><path d="M22.243 42.707v-4.221h-3.008v-1.594h4.19v-1.123l-1.455 .002c.15 -.355 .332 -.95 .332 -1.747v-1.874h-7.544v1.117h6.2v2.503h-7.262v1.122h4.192v1.594h-3.13v1.117h6.14v3.104h1.345zm3.43 -4.125h9.73v-1.116h-9.73v1.116zm2.49 2.933v-2.213h-1.344v2.74c0 .321 .278 .59 .608 .59h6.949v-1.117h-6.214m2.378 -5.789c-1.07 0 -1.838 -.612 -1.838 -1.455c0 -.844 .769 -1.462 1.838 -1.462c1.065 0 1.837 .618 1.837 1.462c0 .843 -.772 1.455 -1.837 1.455m0 -4.027c-1.761 0 -3.194 1.153 -3.194 2.572c0 1.39 1.463 2.566 3.194 2.566c1.728 0 3.189 -1.176 3.189 -2.566c0 -1.419 -1.431 -2.572 -3.19 -2.572m-25.793 6.32c1.486 0 2.694 -1.17 2.694 -2.61c0 -.62 -.235 -1.153 -.644 -1.548l1.194 .001v-1.122h-2.523v-.988h-1.437v.988h-2.53v1.122h1.197a2.107 2.107 0 0 0 -.642 1.548c0 1.439 1.206 2.61 2.69 2.61zm5.45 1.277s.364 -1.117 .364 -2.378v-1.31h1.393v-1.118h-1.393v-2.47h-1.347v7.275h.983zm-5.45 -2.33c-.776 0 -1.432 -.72 -1.432 -1.568c0 -.854 .656 -1.573 1.432 -1.573c.781 0 1.436 .72 1.436 1.573c0 .849 -.655 1.568 -1.436 1.568zm5.908 5.665v-1.116h-6.024v-2.6h-1.342v3.126c0 .322 .28 .59 .608 .59h6.758zm29.113 -5.02c1.315 0 2.382 -1.086 2.382 -2.422c0 -.54 -.187 -1.009 -.512 -1.365h.906v-1.116h-2.055v-.956h-1.438v.956h-2.051v1.117l.9 -.001a1.984 1.984 0 0 0 -.51 1.365c0 1.336 1.065 2.422 2.38 2.422zm3.395 5.139c1.644 0 3.035 -1.171 3.035 -2.55c0 -1.037 -.733 -1.932 -1.784 -2.335v-2.644h.816v2.685h.913s.358 -.966 .358 -2.379v-3.506h-1.271v2.126h-.817v-2.126h-1.271l-.001 5.618l-.162 .003c-1.585 .08 -2.847 1.197 -2.847 2.558c0 1.379 1.388 2.55 3.031 2.55zm-3.395 -6.213c-.608 0 -1.124 -.623 -1.124 -1.36c0 -.74 .516 -1.363 1.124 -1.363c.61 0 1.126 .623 1.126 1.364c0 .736 -.515 1.359 -1.126 1.359zm3.395 5.15c-.998 0 -1.755 -.646 -1.755 -1.487c0 -.855 .757 -1.505 1.755 -1.505c1.02 0 1.755 .634 1.755 1.505c0 .858 -.734 1.487 -1.755 1.487zm-19.255 -36.437c6.518 .019 11.806 5.172 11.949 11.572l.003 .301l-.004 .131c-.09 6.366 -5.26 11.513 -11.68 11.67l-.303 .004h-.035a12.009 12.009 0 0 1 -10.306 -5.852l-.157 -.27a11.672 11.672 0 0 1 -1.484 -5.336l-.006 -.416c.02 -6.438 5.238 -11.66 11.718 -11.801l.305 -.003zm.438 15.035a5.348 5.348 0 0 0 .622 .54a4.813 4.813 0 0 0 .713 .43a4.13 4.13 0 0 0 1.518 .406l.02 .001l.043 .002l.134 .004h.068c.054 0 .107 -.002 .16 -.005l.038 -.002a3.67 3.67 0 0 0 .26 -.026l.023 -.003a3.556 3.556 0 0 0 1.019 -.305l.019 -.01l.033 -.016l.17 -.09c2.347 -1.33 2.337 -5.976 -.738 -8.987l-.196 -.186c-.79 -.725 -3.654 -2.986 -7.746 -2.207l-.317 .066c-4.21 .95 -7.163 4.528 -7.59 8.468l-.025 .27c.19 -1.783 1.171 -3.243 3.047 -3.796l.23 -.062c.386 -.096 .76 -.15 1.128 -.164l.219 -.003c2.326 .016 4.329 1.697 6.602 5.007l.095 .135l.096 .133c.07 .086 .141 .17 .215 .25l.112 .12z"/></symbol>
	<symbol id="nz-bnz" xmlns="http://www.w3.org/2000/svg" viewBox="0 0 48 48" fill="currentColor"><path d="M19.322 24.844c1.927 0 3.046 1.073 3.143 2.822c.027 .498 -.112 1.055 -.162 1.572l-.478 2.691c-.106 .899 .554 1.084 1.717 .467c.445 -.75 1.323 -1.748 1.848 -2.33c.84 -.932 2.184 -1.929 2.321 -2.355c-.322 -.044 -1.836 -.083 -2.401 -.084c-.565 -.003 -1.23 .036 -1.376 .078c0 0 .234 -1.264 .369 -1.847c.157 -.682 .559 -.962 1.406 -.962c.993 0 2.855 .088 4.346 .088c1.21 0 1.859 -.03 2.774 -.09c.291 1.333 -.666 2.378 -1.49 3.278c-.825 .901 -1.603 1.554 -2.035 1.96c-.913 .86 -1.458 1.539 -1.79 2.052c.73 -.057 1.654 -.006 2.527 .05c.62 .04 1.356 .086 2.114 .014a23.75 23.75 0 0 1 -.31 1.747c-.167 .779 -.558 1.042 -1.295 1.03c-1.87 -.029 -2.377 -.123 -3.814 -.123c-.919 0 -1.761 .118 -2.509 .118c-.654 .006 -.942 -.25 -1.052 -.492c-.437 .341 -1.316 .528 -2.134 .495c-.704 -.028 -1.406 -.26 -1.903 -.776c-.376 -.338 -.758 -1.23 -.605 -2.345c0 0 .552 -3.251 .587 -3.47c.115 -.704 -.358 -.97 -.901 -.97c-.843 0 -1.517 .663 -1.659 .973l-1.153 6.445h-.266l-.13 -.001h-.306l-.499 -.002h-.305l-.131 -.001h-.27c-.999 0 -1.394 -.16 -1.185 -1.284l1.515 -8.59h.263l.129 .001h.3l.164 .001h.328l.156 .001l.272 .001h.259c1.086 .055 1.232 .867 1.232 .867c.574 -.493 1.338 -1.03 2.39 -1.03zm-12.872 -4.414h.886l-.963 5.48c.55 -.624 1.641 -1.042 2.573 -1.006c2.052 .078 3.337 1.216 3.337 3.444c0 4.268 -2.53 6.67 -6.298 6.67c-1.474 0 -3.169 -.32 -4.484 -.822l2.191 -12.36c.172 -1.01 .57 -1.407 1.806 -1.407h.729l.223 .001zm1.108 7.082c-.666 0 -1.495 .592 -1.61 .838l-.688 3.938c.338 .097 .42 .099 .857 .099c1.56 0 2.645 -1.486 2.645 -3.563c0 -.953 -.444 -1.312 -1.204 -1.312zm30.938 -4.453c.241 1.556 .241 1.555 .243 1.556l.02 .071c.047 .11 .156 .183 .284 .183h1.638l-1.453 .942l-.03 .02l-.07 .054a.421 .421 0 0 0 -.137 .355c.002 .003 .243 1.56 .243 1.56l-.147 -.12l-.253 -.21l-.762 -.633c-.112 -.092 -.292 -.09 -.43 -.002l-.608 .393l-.277 .18l-.605 .392l.762 -1.544l.006 -.013c.075 -.15 .048 -.32 -.061 -.41l-1.163 -.965l1.639 .001c.157 0 .32 -.106 .39 -.25l.034 -.068l.28 -.568l.144 -.29l.313 -.634zm-3.224 -6.705l.241 1.556a.302 .302 0 0 0 .304 .256h1.638l-1.486 .963c-.143 .092 -.226 .263 -.203 .408l.243 1.56l-1.163 -.964c-.11 -.092 -.292 -.092 -.429 -.001l-1.489 .965c.644 -1.31 .748 -1.517 .764 -1.551l.032 -.083a.32 .32 0 0 0 -.09 -.334c0 -.003 -1.162 -.965 -1.162 -.965h1.638a.46 .46 0 0 0 .392 -.25l.033 -.068l.737 -1.492zm9.045 0c.243 1.557 .243 1.555 .242 1.558c.024 .15 .151 .254 .304 .254h1.637l-1.486 .963c-.143 .092 -.226 .263 -.204 .408c.002 .003 .243 1.56 .243 1.56l-1.16 -.961l-.063 -.04a.387 .387 0 0 0 -.368 .036l-1.49 .965l.568 -1.15l.066 -.134l.132 -.267l.033 -.083a.32 .32 0 0 0 -.09 -.334l-1.163 -.965h1.637c.157 0 .32 -.105 .391 -.25l.77 -1.56zm-3.952 -3.229l.241 1.553a.303 .303 0 0 0 .305 .258h1.638l-1.486 .963c-.143 .092 -.226 .263 -.204 .408c.002 .003 .243 1.56 .243 1.56l-1.163 -.963c-.111 -.093 -.29 -.091 -.428 -.002l-1.49 .963l.66 -1.337l.042 -.086l.06 -.12l.005 -.013c.075 -.15 .048 -.32 -.06 -.411l-1.162 -.965h1.637c.157 0 .32 -.106 .39 -.251c.002 0 .15 -.298 .316 -.633l.143 -.29l.313 -.634z"/></symbol>

	<use xlink:href="#amao-wama" x="8" y="8" width="48" height="48" />
	<use xlink:href="#by-nbrb" x="64" y="8" width="48" height="48" />
	<use xlink:href="#fastforex" x="120" y="8" width="48" height="48" />
	<use xlink:href="#kr-bok" x="176" y="8" width="48" height="48" />
	<use xlink:href="#nz-bnz" x="232" y="8" width="48" height="48" />

</svg>