<svg xmlns="http://www.w3.org/2000/svg"><defs><symbol id="sources-ar-bcra" viewBox="0 0 48 48"><path d="M21.63 1.552c-.138 .024 -.7 .113 -1.25 .198c-18.021 2.805 -25.243 25.19 -12.293 38.11c12.806 12.777 34.34 6.16 38.066 -11.695c.549 -2.628 .437 -6.775 -.256 -9.542c-2.195 -8.753 -8.961 -15.078 -18.027 -16.846c-1.051 -.205 -5.438 -.363 -6.242 -.225m4.24 .44c15.348 1.27 24.743 17.764 17.984 31.574c-7.577 15.483 -28.891 16.784 -38.4 2.345c-9.981 -15.159 2.218 -35.424 20.418 -33.918m-2.975 .937c-1.584 .7 -1.162 2.752 .567 2.752c.787 0 1.043 -.093 1.157 -.422c.162 -.462 .028 -.512 -.335 -.127c-.726 .77 -1.755 .23 -1.755 -.919c0 -1.09 1.009 -1.61 1.7 -.874c.262 .278 .402 .245 .325 -.077c-.11 -.467 -.968 -.638 -1.66 -.333m2.588 .048c-.03 .049 .017 .117 .105 .15c.138 .054 .15 .173 .09 .831c-.107 1.135 -.138 1.257 -.365 1.448c-.255 .215 -.235 .222 1.044 .38c1.042 .13 1.112 .11 1.22 -.33c.08 -.32 -.05 -.362 -.23 -.074c-.152 .243 -1.024 .287 -1.212 .06c-.466 -.56 .312 -1.253 .846 -.753l.219 .206l.068 -.366c.08 -.422 .024 -.524 -.19 -.347c-.286 .237 -.853 .042 -.853 -.293c0 -.667 .558 -.853 1.058 -.353c.316 .315 .34 .313 .34 -.04c0 -.326 -.09 -.366 -1.052 -.462a12.31 12.31 0 0 1 -.814 -.103c-.12 -.024 -.243 -.004 -.274 .046m3.34 .476c0 .037 .075 .15 .168 .253c.257 .284 -.37 2.175 -.72 2.175c-.314 0 -.127 .18 .296 .287c.588 .148 .614 .143 .417 -.075c-.186 -.205 .072 -1.504 .315 -1.585c.06 -.02 .356 .483 .658 1.117c.676 1.42 .722 1.423 1.166 .08c.277 -.837 .406 -1.096 .595 -1.19l.242 -.12l-.275 -.105c-.505 -.191 -.765 -.231 -.765 -.116c0 .06 .045 .11 .1 .11c.15 0 .12 .467 -.069 1.064c-.226 .717 -.253 .699 -.867 -.59c-.42 -.884 -.594 -1.149 -.818 -1.247c-.319 -.14 -.444 -.156 -.444 -.058m-10.537 .139c-1.593 .512 -1.274 2.787 .392 2.787c1.186 0 1.902 -1.088 1.404 -2.135c-.27 -.57 -1.107 -.874 -1.796 -.652m.939 .45c.45 .378 .668 1.375 .382 1.747c-.535 .696 -1.512 .327 -1.762 -.666c-.27 -1.073 .589 -1.746 1.38 -1.082m-3.88 .6c-1.436 .622 -1.78 2.179 -.614 2.781c.854 .44 2.377 -.16 2.29 -.901c-.044 -.367 -.283 -.445 -.283 -.092c0 .796 -1.152 1.137 -1.74 .515c-1.011 -1.072 -.234 -2.47 1.066 -1.915c.238 .102 .233 -.163 -.008 -.38c-.22 -.199 -.27 -.2 -.712 -.008m17.23 .264c-.19 .273 -.219 .58 -.035 .397c.224 -.224 .879 -.117 .879 .143c0 .47 -.954 1.967 -1.212 1.9c-.395 -.103 -.16 .142 .413 .431c.632 .319 .674 .318 .474 -.004c-.134 -.217 .736 -2.094 .969 -2.089c.225 .005 .542 .362 .574 .646l.033 .3l.18 -.334c.1 -.183 .167 -.348 .149 -.366a22.062 22.062 0 0 0 -.932 -.502c-.494 -.258 -.97 -.531 -1.056 -.607c-.21 -.183 -.254 -.174 -.436 .085m-20.205 1.4c-.381 .266 -.424 .465 -.086 .4c.196 -.037 .313 .052 .65 .497c.598 .792 .62 .785 -1.276 .434c-.813 -.15 -.846 -.148 -1.124 .05c-.364 .259 -.365 .366 0 .313c.392 -.058 1.462 1.343 1.372 1.795c-.07 .351 -.029 .347 .47 -.048l.411 -.324l-.335 -.05c-.32 -.047 -1.242 -1.095 -1.093 -1.243c.027 -.027 .627 .063 1.333 .201c1.581 .309 1.614 .282 .868 -.723c-.763 -1.028 -.822 -1.141 -.702 -1.355c.139 -.248 -.093 -.223 -.488 .053m9.057 .43c-10.82 1.69 -17.4 12.52 -13.906 22.89c1.807 5.366 6.111 9.396 11.915 11.157c8.256 2.504 17.904 -2.47 20.917 -10.783c4.5 -12.425 -5.964 -25.29 -18.927 -23.264m14.542 .073c.084 .333 -1.094 1.82 -1.432 1.808c-.315 -.011 -.273 .098 .17 .449c.462 .365 .595 .386 .542 .083c-.025 -.137 .056 -.342 .206 -.524c.348 -.423 .51 -.236 .479 .555c-.017 .428 .026 .687 .15 .896c.29 .49 .391 .364 .386 -.478l-.005 -.773l.35 -.033c.989 -.093 .954 -.857 -.076 -1.64c-.816 -.622 -.843 -.634 -.77 -.343m-8.992 .412c10.673 2.084 16.747 12.913 12.87 22.951c-1.013 2.626 -1.723 3.317 -2.28 2.221c-.264 -.52 -.678 -.473 -.952 .106c-.223 .47 -.458 .498 -.862 .107l-.343 -.331l-.471 .167c-1.088 .385 -1.62 .328 -1.62 -.174c0 -.596 -.246 -.693 -1.914 -.747c-1.337 -.043 -1.587 -.078 -1.96 -.274c-.437 -.23 -.72 -.287 -.72 -.145c0 .169 .774 .81 1.286 1.066c.296 .147 .75 .466 1.01 .708c.64 .6 .723 .54 .448 -.332c-.123 -.388 .22 -.267 .804 .286c.629 .594 1.088 .704 2.013 .483c.687 -.165 .79 -.107 1.18 .66c.243 .48 .351 .597 .574 .622c.293 .034 .323 -.032 .285 -.63c-.037 -.57 .166 -.685 .715 -.406c.262 .132 .532 .26 .6 .282c.296 .1 -1.1 1.792 -1.577 1.912c-.423 .106 -.969 -.109 -1.394 -.55c-.385 -.397 -.415 -.41 -.93 -.366c-.772 .064 -.974 .301 -.46 .543c.269 .127 .458 .318 .622 .63c.327 .626 .474 .69 1.04 .452c.266 -.112 .221 .177 -.083 .539c-.384 .455 -1.042 .44 -1.646 -.037c-.356 -.281 -.553 -.356 -1.087 -.413c-1.403 -.15 -1.844 -1.211 -.48 -1.154c.644 .027 .785 .005 .837 -.13c.088 -.23 .024 -.265 -.63 -.345c-.696 -.084 -.857 -.183 -1.385 -.847c-.223 -.28 -.747 -.765 -1.165 -1.08c-.864 -.648 -1.309 -1.31 -1.425 -2.12c-.2 -1.405 -1.45 -2.264 -1.45 -.997c0 .241 -.075 .597 -.168 .79c-.206 .434 -.115 .547 .262 .324c.467 -.276 .567 -.218 .912 .528c.337 .732 .903 1.344 1.819 1.97c.768 .524 1.167 1.59 .879 2.349c-.284 .745 -.707 .353 -.707 -.656c0 -.656 -.017 -.706 -.355 -1.043c-.462 -.462 -.753 -.304 -.304 .165c.276 .288 .278 .3 .215 1.223c-.035 .512 -.029 .976 .015 1.031c.19 .24 .453 .369 1.142 .56c.787 .217 1.084 .41 1.084 .7c0 .257 .304 .985 .41 .985c.348 0 -.012 .36 -.659 .658c-2.833 1.307 -6.025 1.758 -9.385 1.325c-1.059 -.137 -1.247 -.234 -.962 -.5c.495 -.46 .54 -.775 .404 -2.787c-.228 -3.376 -.21 -3.426 1.807 -5.188c1.367 -1.193 1.737 -1.589 1.486 -1.589c-.055 0 -.335 .174 -.62 .385c-1.968 1.459 -3.847 2.112 -5.694 1.98c-2.03 -.146 -2.996 -1.142 -2.218 -2.287c.138 -.202 .25 -.503 .25 -.67c0 -.242 -.05 -.312 -.25 -.354l-.505 -.105c-.196 -.04 -.25 -.106 -.225 -.274c.042 -.295 .734 -.354 1.356 -.117c.287 .11 .474 .134 .538 .07c.13 -.13 -.147 -.403 -.496 -.49c-.75 -.186 -1.311 -.724 -1.27 -1.217c.029 -.323 .08 -.45 .172 -.423c.903 .271 1.53 -.516 .973 -1.223c-.287 -.364 -.586 -.371 -.348 -.008c.393 .6 .009 .982 -.662 .658c-.546 -.264 -.605 -.265 -.83 -.015c-.265 .291 -.934 .145 -1.08 -.236c-.05 -.131 .606 -1.855 1.427 -3.75c.28 -.646 .315 -.815 .262 -1.297c-.16 -1.458 .923 -2.33 1.87 -1.505c.174 .152 .547 .393 .83 .535c.334 .169 .638 .43 .874 .751c.326 .443 .668 .723 .655 .535c-.016 -.224 -.906 -1.295 -1.199 -1.442c-.189 -.095 -.553 -.398 -.809 -.673c-.36 -.388 -.532 -.5 -.766 -.5c-.777 0 -1.327 -1.18 -.668 -1.433c.111 -.042 .199 .05 .31 .33c.11 .275 .245 .421 .457 .495c.314 .109 .73 .415 1.368 1.007c.207 .192 .514 .422 .681 .511c.217 .115 .35 .299 .466 .637c.143 .417 .342 .681 1.339 1.77c.088 .096 .22 .174 .295 .174c.16 0 -.102 -.4 -.738 -1.125c-.23 -.263 -.473 -.645 -.54 -.848c-.182 -.555 -.38 -.811 -.795 -1.022a1.773 1.773 0 0 1 -.595 -.547c-.133 -.215 -.415 -.454 -.714 -.606c-.52 -.263 -.684 -.48 -.5 -.665c.082 -.082 .18 -.074 .37 .027c.205 .11 .297 .113 .452 .016a.659 .659 0 0 1 .444 -.06c.188 .048 .248 .024 .248 -.099c0 -.212 -.55 -.544 -1.032 -.623c-.395 -.065 -.416 -.092 -.653 -.84c-.144 -.455 -.142 -.647 .008 -.887c.171 -.273 .043 -.349 -.258 -.152c-.36 .235 -.395 .448 -.16 .98c.258 .58 .17 .777 -.422 .935c-.836 .224 -1.268 .862 -.829 1.226c.19 .158 .195 .4 .008 .4c-.735 0 -.997 -1.097 -.398 -1.661l.358 -.338l-.308 -.351c-.397 -.451 -.389 -.695 .04 -1.299c.193 -.27 .35 -.59 .35 -.71c0 -.293 .148 -.368 .342 -.175c.233 .233 .19 .54 -.144 1.032c-.415 .613 -.358 1.013 .174 1.215c.384 .146 .501 -.032 .24 -.364c-.374 -.475 -.227 -.734 .886 -1.564c.57 -.424 .602 -.609 .187 -1.037c-.269 -.277 -.311 -.374 -.223 -.513c.162 -.257 .436 -.278 .436 -.033c0 .112 .135 .341 .3 .51c.32 .328 .372 .585 .178 .895c-.173 .277 -.03 .358 .279 .157c.542 -.356 .468 .007 -.101 .493c-.582 .496 -.693 .806 -.453 1.255c.173 .322 .296 .217 .296 -.251c0 -.41 .033 -.467 .425 -.737c.947 -.653 .978 -.94 .172 -1.614c-.762 -.638 -.866 -1.162 -.273 -1.387c.345 -.13 .503 .046 .336 .376c-.183 .364 -.123 .467 .5 .866c.408 .26 .558 .422 .604 .65c.075 .372 .212 .448 1.144 .633c1.397 .277 1.587 .292 1.587 .13c0 -.15 -.24 -.223 -1.53 -.472c-.779 -.151 -.728 -.341 .215 -.808c2.181 -1.08 4.258 -1.45 5.81 -1.039c3.013 .801 4.108 1.518 5 3.27c.243 .48 .498 .894 .567 .92c.262 .102 .113 -.5 -.324 -1.308c-.275 -.507 -.45 -.958 -.45 -1.16c0 -.386 -.155 -.478 -1.955 -1.168c-2.396 -.918 -2.476 -.971 -1.79 -1.198c.192 -.063 .35 -.179 .35 -.257c0 -.175 .031 -.175 -1 .016c-2.048 .38 -3.974 .353 -4.195 -.06c-.893 -1.666 2.655 -2.391 6.128 -1.251c2.85 .935 4.252 2.322 5.2 5.144c.812 2.418 .932 3.864 .52 6.259c-.46 2.668 -.247 3.154 1.204 2.761c.8 -.216 1.131 -.064 1.131 .52c0 .475 .332 .935 .675 .935c.529 0 .943 -.738 .604 -1.077c-.192 -.192 -.265 -.142 -.299 .204c-.057 .589 -.515 .461 -.587 -.163c-.087 -.765 -.638 -1.095 -1.462 -.875c-1.061 .284 -1.213 .058 -.93 -1.392c.7 -3.594 .254 -6.741 -1.334 -9.417c-1.42 -2.393 -4.376 -3.783 -8.053 -3.788c-2.835 -.005 -3.98 .8 -3.253 2.285c.318 .65 .298 .705 -.321 .892c-.473 .143 -.981 .352 -1.826 .75l-.457 .216l-.458 -.255c-.64 -.358 -.69 -.439 -.555 -.881c.094 -.306 .085 -.431 -.052 -.717c-.162 -.34 -.468 -.48 -.468 -.215c0 .193 -.93 .765 -1.242 .765c-.656 0 -.932 .693 -.456 1.148c.373 .358 .375 .481 .008 .742l-.29 .207l-.22 -.355c-.495 -.8 -1.648 -1.02 -1.259 -.24c.217 .434 .21 .491 -.122 .895c-.58 .707 -.636 1.002 -.306 1.588l.209 .37l-.259 .38c-.458 .675 -.31 1.334 .43 1.93c.48 .384 .51 .591 .212 1.44c-.14 .397 -.181 .693 -.139 1.001c.05 .357 .002 .57 -.256 1.158c-.175 .396 -.475 1.13 -.669 1.631c-.194 .5 -.46 1.135 -.593 1.41c-.47 .973 -.089 1.52 1.209 1.73c.436 .07 .513 .306 .256 .786c-.144 .267 -.173 .421 -.104 .55c.052 .097 .095 .379 .095 .626c0 .48 .152 .71 .576 .872c.268 .102 .267 .196 -.012 .944c-.528 1.418 .745 2.422 3.405 2.685c1.286 .127 1.38 .23 1.518 1.668c.054 .565 .19 1.47 .302 2.011c.66 3.19 -.326 3.606 -4.045 1.701c-11.654 -5.969 -12.672 -22 -1.859 -29.28c3.565 -2.4 8.416 -3.43 12.45 -2.643m9.843 .282c.49 .586 -.215 1.3 -.826 .836c-.158 -.12 -.159 -.147 -.01 -.37c.191 -.285 .548 -.69 .607 -.69c.023 0 .126 .1 .229 .224m-28.324 2.444c.037 .15 .25 .678 .474 1.172c.224 .494 .408 1.022 .41 1.172c.002 .34 .038 .341 .388 .007c.317 -.304 .358 -.453 .111 -.41c-.486 .085 -.507 -.864 -.024 -1.122c.236 -.126 .792 .102 .792 .325c0 .25 .051 .227 .445 -.196c.412 -.442 .438 -.549 .116 -.468c-.15 .038 -.658 -.09 -1.388 -.348c-1.381 -.488 -1.413 -.49 -1.324 -.132m29.882 .43c-.906 .3 -1.227 .366 -1.373 .288c-.298 -.16 -.241 .12 .09 .435c.331 .318 .418 .334 .418 .079c0 -.403 .61 -.463 .915 -.09c.314 .384 .208 .9 -.198 .96c-.209 .03 -.202 .052 .144 .474c.44 .538 .49 .545 .498 .068c.003 -.24 .188 -.745 .518 -1.413c.692 -1.4 .726 -1.373 -1.012 -.8m-28.809 .156c.091 .056 -.188 .436 -.32 .436c-.074 0 -.3 -.452 -.3 -.601c0 -.085 .38 .016 .62 .165m29.542 .067c0 .29 -.266 .52 -.438 .378c-.3 -.25 -.172 -.452 .314 -.497c.068 -.006 .124 .047 .124 .12m-32.437 1.431c-.134 .054 -1.12 1.498 -1.12 1.641c0 .046 .105 .035 .235 -.024c.31 -.14 1.961 .875 1.961 1.207c0 .518 .953 -.834 1.063 -1.507c.091 -.566 -.652 -1.206 -.913 -.785c-.121 .196 -.35 .101 -.35 -.146c0 -.354 -.455 -.555 -.876 -.386m34.635 .252c0 .367 -1.627 1.342 -1.975 1.183c-.317 -.144 -.276 -.03 .336 .951c.571 .917 .644 .978 .975 .828c.253 -.115 .268 -.349 .016 -.252c-.396 .151 -.999 -.772 -.675 -1.034c.666 -.539 1.648 -1.03 1.83 -.915c.31 .193 .31 .142 -.003 -.406c-.335 -.586 -.504 -.705 -.504 -.355m-34.178 .3c.162 .161 .151 .498 -.023 .734c-.157 .212 -.579 .058 -.802 -.293c-.217 -.342 .526 -.74 .825 -.441m1.023 .48c.424 .228 .438 .882 .022 1.041c-.172 .066 -.926 -.332 -.922 -.487c.005 -.152 .213 -.401 .447 -.535c.247 -.142 .224 -.14 .453 -.018m14.528 2.197c-.6 .224 -1.326 .243 -1.592 .042c-.279 -.21 -.505 -.182 -.964 .12c-.39 .26 -.413 .262 -.687 .1c-.494 -.29 -1.338 -.11 -1.421 .306c-.063 .311 .04 .739 .192 .797c.202 .077 .325 -.156 .258 -.49c-.067 -.336 .186 -.48 .5 -.285c.476 .297 .773 .308 1.222 .046c.41 -.24 .443 -.245 .798 -.097c.506 .212 1.092 .194 1.851 -.055c.975 -.32 1.352 -.24 2.094 .447l.607 .56h2.336l.492 .35c.52 .37 .787 .422 1.2 .234c.409 -.186 .322 -.374 -.143 -.311c-.345 .046 -.474 .001 -.958 -.332c-.59 -.406 -.643 -.415 -1.982 -.337l-.591 .034l-.466 -.506c-.792 -.86 -1.613 -1.047 -2.746 -.623m-17.072 1.15c-.197 .197 -.197 .288 0 .484c.192 .192 .542 .046 .542 -.226c0 -.365 -.294 -.505 -.542 -.258m36.318 -.037a.39 .39 0 0 0 .035 .583c.244 .202 .609 -.196 .45 -.491c-.126 -.237 -.306 -.271 -.485 -.092m-22.767 .437c-.374 .164 -.427 .416 -.1 .482c.42 .085 1.422 .187 1.801 .182c.657 -.007 .858 -.417 .208 -.421c-.118 -.001 -.41 -.09 -.65 -.2c-.506 -.229 -.809 -.24 -1.259 -.043m3.87 -.031a7.936 7.936 0 0 0 -.737 .507c-.89 .679 -1.581 .805 -3.004 .549c-.403 -.073 -.282 .28 .156 .456c.763 .305 1.54 .31 2.41 .016c1.31 -.444 1.513 -.441 2.556 .028c.5 .225 1.102 .438 1.337 .473c.65 .098 1 .363 1.792 1.355c.809 1.013 1.374 1.477 1.798 1.477c.421 0 .355 -.245 -.14 -.518c-.495 -.272 -.583 -.608 -.175 -.662c.426 -.057 .44 -.192 .037 -.397c-.213 -.109 -.589 -.417 -.836 -.684c-.247 -.267 -.562 -.56 -.7 -.648c-.381 -.247 -.204 -.305 .987 -.32c1.277 -.015 1.425 .07 2.078 1.184c.726 1.24 1.223 1.646 2.008 1.646c.266 0 .534 .098 .858 .312c.51 .337 .673 .33 .428 -.02c-.244 -.348 -.675 -.584 -1.19 -.653c-.589 -.079 -.897 -.372 -1.583 -1.503c-.553 -.913 -.922 -1.273 -1.458 -1.42c-.368 -.102 -.515 -.097 -2.683 .1c-1.291 .117 -1.553 .084 -2.665 -.338c-.558 -.211 -.769 -.468 -.385 -.468c.239 0 .341 -.25 .163 -.397c-.219 -.181 -.781 -.222 -1.052 -.075m21.108 1.485c-.053 .119 -.563 .534 -1.133 .923c-1.298 .885 -1.304 .855 .23 1.167c.704 .143 1.331 .311 1.394 .374c.258 .258 .35 .128 .241 -.344c-.088 -.386 -.124 -.434 -.222 -.3c-.138 .19 -.677 .212 -.818 .035c-.34 -.43 -.076 -1.12 .405 -1.057c.276 .037 .296 -.016 .213 -.565c-.074 -.493 -.163 -.56 -.31 -.233m-40.77 .849c-.275 1.37 -.078 2.132 .638 2.472c.814 .386 1.63 -.041 1.892 -.99c.294 -1.068 .292 -1.647 -.005 -1.35c-.213 .213 -2.238 -.287 -2.238 -.554c0 -.359 -.184 -.088 -.286 .422m19.112 -.261a4.172 4.172 0 0 1 -.827 .231c-.428 .047 -.498 .13 -.287 .34c.2 .2 .864 .218 1.822 .05c1.315 -.232 2.134 .165 3.187 1.543c1.489 1.946 2.554 2.552 3.552 2.018c.43 -.23 .225 -.396 -.486 -.396c-.893 0 -1.264 -.241 -2.117 -1.377c-1.274 -1.697 -1.826 -2.132 -2.88 -2.272c-.282 -.037 -.563 -.13 -.626 -.204c-.16 -.193 -.749 -.163 -1.338 .067m-17.642 .838c.46 .085 .853 .155 .874 .155c.099 0 .023 .538 -.112 .8c-.334 .645 -1.372 .69 -1.937 .085c-.377 -.404 -.233 -1.362 .186 -1.24c.085 .025 .53 .115 .99 .2m38.615 .206c0 .156 -.06 .194 -.287 .178c-.386 -.028 -.452 -.117 -.214 -.29c.26 -.19 .501 -.136 .501 .112m-23.185 .1c-.127 .33 .738 1.02 1.812 1.446c1.292 .514 1.79 1.1 .807 .953c-.67 -.1 -.649 .074 .11 .873c1.073 1.127 1.261 1.847 .784 2.987c-.219 .524 -.2 1.292 .04 1.585c.249 .305 .536 .117 .328 -.215c-.18 -.29 -.15 -.685 .118 -1.507c.29 -.887 .454 -.963 .746 -.342c.209 .444 .28 .495 .637 .459c.29 -.03 .198 .253 -.175 .537c-.567 .432 -.466 .716 .128 .355c.585 -.356 .823 -.223 .366 .206c-.365 .342 -.673 .872 -.606 1.044c.122 .32 .696 .486 1.047 .304c.435 -.224 .772 -.057 1.84 .916c1.32 1.202 2.115 1.471 3.502 1.185c.832 -.172 1.17 -.116 2.084 .348c.554 .28 .894 .246 1.097 -.111c.19 -.334 .322 -.324 .848 .064c.443 .327 .729 .296 1.55 -.17c.858 -.485 1.164 -.49 1.371 -.02c.222 .504 .506 .38 .506 -.221c0 -.732 -.877 -.945 -1.897 -.46c-.79 .374 -1.086 .38 -2.517 .058c-1.35 -.304 -1.896 -.312 -2.815 -.038c-1.137 .338 -2.222 .105 -2.924 -.627c-.375 -.391 -.196 -.578 .277 -.29c.942 .574 .885 .026 -.062 -.608c-1.381 -.924 -1.645 -1.133 -1.646 -1.305c-.001 -.216 .16 -.219 .976 -.015c1.267 .318 1.075 -.18 -.22 -.568c-1.64 -.492 -1.668 -.504 -1.636 -.674c.027 -.137 .211 -.173 1.097 -.215c1.741 -.081 1.615 -.396 -.206 -.51c-2.155 -.134 -2.586 -.429 -3.258 -2.225c-.447 -1.194 -.848 -1.75 -1.451 -2.017c-.497 -.219 -.507 -.406 -.025 -.496c.285 -.054 .462 -.02 .761 .143c.402 .22 .565 .21 .565 -.036c0 -.426 -.845 -.644 -2.028 -.522c-.946 .097 -.97 .094 -1.416 -.167c-.395 -.23 -.462 -.244 -.515 -.105m-4.531 1.097c-.174 .21 -.07 1.002 .174 1.332c.107 .145 .226 .431 .264 .635c.101 .537 .761 .737 .761 .23c0 -.393 1.05 -.292 1.206 .116c.108 .285 .505 .276 .961 -.023c.527 -.344 .222 -.596 -1.456 -1.204c-1.19 -.432 -1.452 -.66 -.83 -.719c.411 -.04 .371 -.212 -.087 -.378c-.474 -.171 -.845 -.167 -.993 .011m26.567 1.091c0 .47 .145 .686 .246 .367c.075 -.233 .333 -.308 1.078 -.31c.741 -.001 .736 .014 -.325 .986c-.84 .769 -.899 .85 -.899 1.215c0 .215 .045 .392 .1 .392c.055 0 .1 -.066 .1 -.146c0 -.361 2.2 -.552 2.333 -.203c.115 .299 .264 .14 .264 -.283c0 -.522 -.09 -.64 -.296 -.382c-.19 .24 -1.602 .382 -1.602 .161c0 -.07 .412 -.506 .914 -.97c1.157 -1.065 1.138 -1.12 -.36 -1.027c-.95 .058 -1.138 .045 -1.248 -.087c-.216 -.26 -.305 -.177 -.305 .287m-39.467 .954c-.01 .494 -.02 .976 -.025 1.07c-.008 .176 .504 .496 .615 .385c.033 -.032 -.04 -.166 -.163 -.296c-.175 -.186 -.216 -.332 -.192 -.673l.031 -.436l.525 -.03l.524 -.03v.342c0 .188 -.068 .398 -.15 .466c-.249 .206 -.17 .3 .25 .3c.423 0 .498 -.094 .244 -.304c-.356 -.296 -.142 -.744 .355 -.744h.45l.031 .385c.024 .294 -.023 .444 -.2 .633l-.231 .246l.298 -.033c.262 -.03 .308 -.083 .37 -.433c.164 -.937 .052 -2.034 -.155 -1.497c-.098 .255 -1.998 .213 -2.26 -.05c-.293 -.292 -.299 -.28 -.317 .699m14.631 -.665c.601 .23 .762 .442 .289 .38c-.402 -.052 -1.32 -.414 -1.32 -.52c0 -.153 .413 -.097 1.031 .14m8.357 .131c0 .824 1.231 1.503 2.896 1.597c.716 .04 1.201 .123 1.529 .26c.54 .228 .769 .147 .581 -.203c-.167 -.311 -.82 -.512 -1.881 -.578c-1.368 -.085 -1.823 -.249 -2.363 -.848c-.5 -.556 -.762 -.634 -.762 -.228m-4.478 .41c.019 .042 .164 .337 .324 .656c.405 .812 .432 1.337 .119 2.311c-.44 1.367 -.219 2.345 .532 2.345c.246 0 .267 -.126 .05 -.305c-.47 -.39 -.543 -.965 -.23 -1.844a5.87 5.87 0 0 0 .263 -1.218c.053 -.645 .142 -.764 .32 -.431c.154 .288 .125 .99 -.06 1.477c-.188 .491 -.127 .638 .16 .379c.529 -.478 .63 -1.55 .203 -2.149c-.428 -.6 -1.867 -1.645 -1.68 -1.22m9.37 .015c0 .051 .17 .146 .375 .211c.458 .146 1.168 .805 1.447 1.343c.206 .399 .675 1.774 .676 1.985c0 .06 .07 .242 .153 .402c.1 .192 .118 .325 .054 .39c-.129 .128 -.372 -.073 -.575 -.475c-.218 -.433 -.737 -.955 -.95 -.955c-.22 0 -.236 .23 -.026 .403c.397 .33 -.072 .297 -.623 -.043c-.662 -.408 -1.656 -.671 -1.84 -.488c-.084 .084 .05 .195 .517 .431c.347 .175 .881 .552 1.186 .839c1.386 1.3 2.769 2.025 4.76 2.495c1.084 .257 1.433 -.073 .51 -.481c-1.201 -.53 -1.517 -1.116 -.637 -1.18c.905 -.066 .306 -.986 -.72 -1.108c-.985 -.116 -1.007 -.14 -1.798 -1.886c-.482 -1.063 -.828 -1.53 -1.323 -1.782c-.388 -.198 -1.185 -.265 -1.185 -.1m-14.362 .925c-.142 .142 -.158 .443 -.028 .524c.133 .082 .807 -.339 .807 -.504c0 -.175 -.608 -.191 -.78 -.02m25.913 1.95c-.116 .697 -.099 .751 .174 .572c.354 -.231 2.032 -.02 2.277 .287c.215 .27 .242 .232 .31 -.46c.056 -.566 -.03 -.731 -.212 -.406c-.126 .223 -2.088 .04 -2.272 -.212c-.167 -.228 -.209 -.195 -.277 .22m-36.811 .51c-.059 .11 -.255 .209 -.478 .243c-.208 .032 -.664 .107 -1.014 .167c-.57 .099 -.649 .092 -.77 -.069c-.128 -.167 -.136 -.165 -.14 .042c-.007 .511 .234 1.748 .367 1.88c.163 .164 .63 .196 .63 .045a.1 .1 0 0 0 -.1 -.1c-.583 0 -.698 -1.155 -.126 -1.25a7.02 7.02 0 0 0 .675 -.152c.58 -.172 1.06 -.15 1.209 .053c.132 .181 .139 .179 .138 -.054c-.004 -.794 -.19 -1.18 -.391 -.805m31.853 .194c0 .044 .135 .18 .3 .302c.388 .287 .385 .576 -.008 .794c-.82 .453 -.77 .654 .206 .818c.742 .125 1.037 .337 .983 .706c-.047 .316 .174 .35 .367 .056c.243 -.37 -.003 -.789 -.598 -1.016c-.498 -.19 -.51 -.21 -.298 -.488c.366 -.484 -.031 -1.253 -.648 -1.253c-.167 0 -.304 .036 -.304 .08m4.79 .743c-.005 .028 -.544 2.044 -.606 2.262c-.023 .085 .071 .184 .233 .243c.346 .128 .46 .021 .238 -.223c-.208 -.23 -.124 -.711 .125 -.71c.166 .002 1.925 .47 1.956 .52c.008 .015 .064 .14 .123 .277c.105 .246 .108 .244 .214 -.15c.226 -.843 .24 -.947 .129 -.947c-.061 0 -.111 .04 -.111 .09c0 .245 -1.93 -.083 -2.227 -.38c-.148 -.146 .08 -.614 .332 -.68c.237 -.061 .255 -.184 .039 -.267c-.158 -.06 -.437 -.082 -.445 -.035m-12.38 .315c0 .077 .224 .328 .5 .558c.274 .23 .526 .527 .56 .66c.073 .292 .397 .537 .71 .537c.405 0 .28 -.404 -.298 -.96c-.865 -.834 -1.473 -1.162 -1.473 -.795m-26.167 1.819c0 .035 .052 .237 .115 .45c.115 .382 .284 .523 .284 .235c0 -.283 .746 -.195 .883 .105c.24 .527 -.036 1.035 -.486 .892c-.23 -.073 -.225 .194 .015 .83c.095 .251 .287 .21 .287 -.063c0 -.093 .349 -.469 .774 -.834c1.525 -1.309 1.53 -1.234 -.098 -1.327c-.77 -.044 -1.307 -.122 -1.446 -.21c-.242 -.154 -.328 -.174 -.328 -.078m2.197 .603c0 .036 -.074 .149 -.165 .25c-.174 .191 -.434 .246 -.434 .09a.918 .918 0 0 0 -.06 -.25c-.05 -.125 .011 -.157 .299 -.157c.198 0 .36 .03 .36 .067m35.351 .64c-.235 .461 -.21 .558 .102 .391c.245 -.13 1.619 .428 1.443 .587c-.05 .046 -.564 .23 -1.14 .41c-1.095 .342 -1.345 .482 -1.43 .804c-.056 .219 .05 .246 .314 .081c.27 -.169 1.933 .666 2.015 1.012c.047 .2 .076 .218 .153 .097c.338 -.529 .491 -1.082 .226 -.817c-.184 .183 -.501 .144 -1.117 -.137c-.823 -.376 -.847 -.359 1.362 -.99c.786 -.225 .73 -.339 -.432 -.892c-.722 -.343 -1.03 -.545 -1.096 -.716c-.122 -.32 -.157 -.305 -.4 .17m-15.577 1.612c-.566 .928 .011 2.024 1.199 2.279c.794 .17 .9 .327 .9 1.34c0 1.285 .27 1.733 1.398 2.31c.472 .242 .568 .341 .684 .706c.206 .651 .814 .468 .814 -.247c0 -.451 -.26 -.692 -1.138 -1.051c-1.21 -.496 -1.303 -.7 -1.113 -2.419c.1 -.907 -.026 -1.042 -1.072 -1.145c-.99 -.097 -1.514 -.507 -1.404 -1.1c.19 -1.02 .092 -1.263 -.268 -.673m-17.956 .45c.052 .308 -1.673 1.373 -1.99 1.229c-.3 -.136 -.281 -.047 .117 .583c.269 .425 .47 .54 .387 .22c-.032 -.12 .046 -.259 .223 -.398c.581 -.457 .756 -.202 .401 .587c-.273 .607 -.272 .975 .003 1.203c.112 .093 .14 .075 .14 -.094c0 -.634 .476 -1.383 .777 -1.222c.457 .244 1.121 -.313 .964 -.809c-.2 -.626 -1.101 -1.774 -1.022 -1.3m.679 1.2c0 .469 -.879 .732 -1.095 .328c-.163 -.304 -.13 -.369 .32 -.64l.425 -.256l.175 .206c.096 .114 .175 .277 .175 .362m30.9 .346c-.158 .234 -.31 .447 -.338 .474c-.101 .101 -.5 .692 -.5 .742c0 .028 .124 .03 .275 .002c.39 -.071 1.884 1.006 1.849 1.332c-.04 .377 .117 .246 .754 -.627c.688 -.943 .692 -.952 .436 -1.184c-.261 -.235 -.32 -.206 -.254 .126c.142 .71 -.477 1.171 -1.019 .758l-.346 -.264l.173 -.292c.111 -.189 .255 -.293 .401 -.293c.297 0 .29 -.136 -.018 -.338c-.329 -.215 -.48 -.205 -.406 .029c.039 .121 -.025 .289 -.177 .465l-.238 .277l-.365 -.279c-.44 -.335 -.44 -.328 -.065 -.737c.219 -.24 .353 -.311 .499 -.265c.222 .07 .263 -.047 .08 -.23c-.22 -.219 -.45 -.124 -.74 .304m-29.899 .987c-.005 .384 -1.426 1.623 -1.765 1.538c-.336 -.084 -.312 -.037 .43 .847c.673 .804 .792 .876 1.138 .69c.286 -.152 .242 -.33 -.062 -.253c-.206 .052 -.325 -.004 -.6 -.278c-.428 -.428 -.427 -.469 .025 -.865l.369 -.323l.238 .277c.166 .193 .22 .348 .18 .512c-.033 .13 -.023 .236 .023 .236c.088 0 .688 -.594 .614 -.607c-.331 -.057 -.44 -.103 -.602 -.25c-.267 -.24 -.24 -.381 .13 -.692l.32 -.27l.288 .324c.226 .252 .277 .386 .232 .61c-.067 .334 .034 .366 .285 .089c.219 -.242 .14 -.387 -.69 -1.267c-.515 -.545 -.55 -.565 -.553 -.318m28.027 1.238c-1.455 1.412 -.385 3.355 1.402 2.545c.839 -.38 1.188 -1.114 .735 -1.547c-.162 -.155 -.308 -.368 -.324 -.473c-.025 -.16 -.106 -.114 -.48 .273l-.45 .465l.334 -.07c.645 -.136 .96 .56 .425 .94c-1.102 .785 -2.605 -.812 -1.656 -1.76c.294 -.294 .405 -.343 .699 -.309c.379 .044 .45 -.07 .174 -.279c-.279 -.211 -.469 -.163 -.859 .215m-26.098 .868c.089 .352 -1.228 1.88 -1.548 1.796c-.29 -.076 -.21 .07 .277 .505c.499 .446 .55 .453 .472 .066c-.122 -.606 .273 -.82 .824 -.446c1.22 .826 1.954 -.37 .867 -1.414c-.743 -.713 -.977 -.846 -.892 -.507m.905 .855c.262 .506 -.182 1.045 -.709 .86c-.38 -.133 -.4 -.383 -.064 -.787c.348 -.418 .583 -.44 .773 -.073m22.73 .517c-.41 .225 -1.223 .937 -.983 .863c.372 -.115 1.534 1.472 1.429 1.952l-.068 .306l.469 -.336c.561 -.403 .627 -.49 .367 -.49c-.303 0 -.764 -.592 -.593 -.763c.112 -.111 .22 -.1 .657 .065c.657 .25 .936 .25 1.234 .003l.235 -.197l-.263 -.003c-.733 -.01 -1.304 -.317 -1.238 -.668c.15 -.797 -.465 -1.158 -1.245 -.732m-21.55 .399c.1 .16 .099 .24 -.009 .413c-.884 1.414 -.955 1.813 -.417 2.328c.702 .672 1.433 .452 2.143 -.644c.315 -.487 .514 -.7 .655 -.7c.306 0 .242 -.144 -.148 -.33c-.338 -.16 -.35 -.16 -.35 .03c0 .672 -1.105 1.903 -1.575 1.754c-.73 -.232 -.749 -.747 -.067 -1.851c.526 -.853 .52 -.812 .154 -1.028c-.398 -.235 -.544 -.224 -.386 .028m22.344 .12c.154 .277 -.047 .745 -.367 .852c-.244 .08 -.732 -.824 -.546 -1.01c.253 -.254 .728 -.171 .913 .158m-20.92 .224c-.51 .157 -.465 .314 .08 .272c.457 -.036 .63 -.138 .526 -.308c-.079 -.126 -.081 -.126 -.605 .036m17.269 .992c-.03 .077 -.012 .672 .038 1.322c.076 .972 .067 1.224 -.051 1.416c-.205 .333 -.108 .36 .387 .108c.415 -.21 .424 -.225 .21 -.321c-.505 -.225 -.145 -1.068 .455 -1.068c.248 0 .518 .309 .518 .59c0 .124 .034 .209 .075 .188c.041 -.02 .266 -.118 .5 -.218c.493 -.212 .531 -.312 .15 -.395c-.151 -.032 -.692 -.442 -1.2 -.91c-.998 -.917 -1.003 -.92 -1.082 -.712m-15.721 .26a.1 .1 0 0 0 .1 .1c.277 0 -.382 1.83 -.78 2.165c-.246 .207 -.25 .223 -.065 .283c.108 .035 .415 .15 .683 .254c1.192 .467 2.167 -.063 1.553 -.843l-.207 -.262l.258 -.098c.376 -.143 .527 -.527 .327 -.832c-.218 -.332 -1.87 -1.01 -1.87 -.767m1.104 .501c.372 .2 .428 .473 .155 .746c-.384 .384 -.933 .136 -.734 -.331c.223 -.523 .289 -.57 .579 -.415m15.194 .163c.257 .233 .235 .455 -.042 .416c-.161 -.023 -.234 -.11 -.257 -.307c-.036 -.315 .04 -.343 .299 -.109m-13.46 .385c.292 .22 -.15 2.343 -.488 2.343c-.307 0 -.14 .193 .223 .257c.206 .036 .62 .128 .92 .204c.738 .187 .775 .18 .95 -.156c.18 -.35 .053 -.48 -.2 -.203c-.385 .426 -1.193 .14 -1.1 -.389c.218 -1.251 .385 -1.725 .644 -1.827c.25 -.098 .24 -.107 -.24 -.236c-.708 -.191 -.967 -.189 -.709 .007m8.696 .173c-.026 .069 -.135 .617 -.243 1.218c-.126 .702 -.27 1.192 -.403 1.371c-.232 .315 -.168 .339 .445 .169c.359 -.1 .38 -.122 .218 -.24c-.347 -.254 -.182 -.774 .278 -.882c.463 -.11 .923 .267 .8 .654c-.06 .187 -.034 .196 .37 .129c.648 -.107 .795 -.212 .47 -.335c-.169 -.064 -.525 -.48 -.989 -1.154c-.713 -1.038 -.854 -1.176 -.946 -.93m-6.14 .239c0 .035 .07 .115 .156 .177c.212 .155 .042 1.98 -.21 2.258c-.157 .172 -.145 .185 .22 .247a7.8 7.8 0 0 1 .558 .113c.213 .058 .232 -.151 .027 -.304c-.253 -.19 -.052 -2.03 .247 -2.255l.226 -.17l-.325 -.065c-.415 -.083 -.899 -.084 -.899 -.001m2.765 .08c-1.655 .59 -1.221 2.752 .551 2.748c.788 -.002 .955 -.074 1.084 -.465c.16 -.483 .06 -.513 -.31 -.093c-.592 .674 -1.418 .42 -1.701 -.526c-.342 -1.14 .808 -2.09 1.588 -1.312l.318 .317v-.303c0 -.504 -.683 -.667 -1.53 -.366m-7.323 .162c.317 .25 .342 .613 .064 .891c-.486 .485 -1.018 .04 -.76 -.635c.197 -.515 .312 -.557 .696 -.256m11.09 .508c.177 .252 .127 .383 -.146 .383c-.148 0 -.193 -.07 -.193 -.3c0 -.352 .128 -.383 .34 -.083"/></symbol><symbol id="sources-au-rba" viewBox="0 0 48 48"><path d="M10.064 4.318c9.415 5.41 14.994 15.667 10.687 19.647c-3.244 2.998 -8.62 1.206 -15.176 -5.055c-5.315 -5.078 -5.342 -4.567 -.6 11.48c3.815 12.91 5.485 16.768 5.485 12.67c0 -18.218 22.964 -20.449 27.109 -2.633c1.382 5.943 1.49 5.73 5.698 -11.23c4.213 -16.972 4.244 -17.803 .47 -12.436c-6.503 9.247 -15.225 11.3 -17.703 4.167c-1.464 -4.215 3.096 -11.107 10.043 -15.175l4.06 -2.378l-15.828 .016c-12.145 .014 -15.46 .23 -14.245 .927"/></symbol><symbol id="sources-gb-fairfx" viewBox="0 0 48 48"><path d="M32.507 19.5l-4.95 10.294s-19.426 1.77 -20.676 16.542c-.005 .054 -.01 .11 -.013 .164c-.063 -.682 -.114 -2.24 -.119 -3.933v-.378c.002 -1.774 .057 -3.636 .204 -4.763c2.208 -16.916 25.554 -17.926 25.554 -17.926zm7.993 -18l-4.958 10.294s-26.981 1.77 -28.62 16.542c-.006 .054 -.011 .11 -.018 .164c-.17 -1.44 -.278 -6.78 .113 -9.074c2.806 -16.408 31.673 -17.851 33.403 -17.923l.072 -.003h.009z"/></symbol><symbol id="sources-hk-ma" viewBox="0 0 48 48"><path d="M22.226 1.573a25.866 25.866 0 0 0 -2.289 .302a1.554 1.554 0 0 0 -.206 .043a.83 .83 0 0 1 -.142 .032c-1.783 .237 -4.76 1.38 -7.137 2.741a35.25 35.25 0 0 0 -1.463 .95l-.506 .377c-.207 .153 -.485 .369 -.62 .48l-.41 .338c-.623 .508 -1.68 1.541 -2.347 2.295c-.434 .49 -1.257 1.538 -1.257 1.601c0 .02 -.025 .047 -.056 .059c-.03 .012 -.056 .046 -.056 .075c0 .03 -.027 .063 -.059 .076c-.032 .012 -.048 .04 -.035 .06c.013 .021 .007 .038 -.012 .038c-.043 0 -.314 .395 -.714 1.041a22.754 22.754 0 0 0 -2.815 6.72c-.173 .723 -.351 1.661 -.396 2.081c-.01 .103 -.044 .365 -.074 .581c-.244 1.782 -.14 4.87 .225 6.593c.033 .158 .068 .338 .078 .4c.01 .062 .034 .18 .054 .262c.02 .083 .042 .192 .05 .244c.009 .051 .068 .288 .132 .525c.064 .237 .124 .473 .133 .525c.009 .051 .103 .364 .209 .693c.106 .33 .201 .638 .212 .685c.01 .046 .035 .084 .055 .084c.02 0 .024 .018 .01 .04c-.013 .02 .004 .08 .037 .13c.033 .051 .05 .093 .04 .093c-.012 0 0 .037 .025 .084a.675 .675 0 0 1 .067 .15a1.497 1.497 0 0 0 .11 .337l.286 .666c.118 .278 .238 .548 .266 .6c.028 .051 .092 .19 .142 .306c.302 .704 1.5 2.685 2.085 3.447c.073 .095 .158 .21 .189 .256c.083 .122 .192 .262 .321 .412c.063 .074 .196 .235 .296 .36c.664 .827 2.3 2.492 2.575 2.62c.04 .019 .072 .046 .072 .06c0 .015 .13 .135 .29 .266c.16 .13 .3 .247 .31 .259c.025 .028 .942 .715 1.051 .787c.047 .031 .131 .094 .187 .14c.057 .046 .113 .072 .126 .06c.014 -.014 .024 -.005 .024 .019s.02 .044 .043 .044c.024 0 .062 .024 .085 .053c.046 .06 .648 .434 .697 .434c.018 0 .038 .014 .045 .03c.016 .039 .806 .504 .84 .495c.015 -.003 .038 .012 .052 .034c.04 .066 1.73 .905 2.12 1.053c.062 .024 .164 .066 .226 .094c.168 .076 .687 .28 .901 .354c.934 .324 2.038 .659 2.289 .694c.04 .006 .1 .02 .13 .032c.14 .053 .983 .222 1.914 .383c.177 .03 .906 .122 .976 .123c.03 0 .208 .02 .394 .044c.765 .1 3.657 .085 4.197 -.02a3.96 3.96 0 0 1 .305 -.037c2.612 -.235 6.14 -1.36 8.46 -2.697c.57 -.328 1.21 -.717 1.268 -.771a.312 .312 0 0 1 .093 -.065c.026 -.005 .64 -.422 1.078 -.733a32.036 32.036 0 0 0 1.125 -.885a8.62 8.62 0 0 1 .28 -.247c.911 -.783 2.186 -2.122 2.893 -3.037c.526 -.681 .865 -1.153 .847 -1.176c-.007 -.008 .01 -.029 .038 -.046c.028 -.017 .05 -.044 .05 -.06c0 -.018 .022 -.056 .05 -.087c.106 -.12 .448 -.67 .428 -.69c-.012 -.012 -.004 -.021 .017 -.021s.092 -.1 .158 -.224a1.25 1.25 0 0 1 .156 -.246a.042 .042 0 0 0 .015 -.058c-.012 -.019 -.006 -.035 .012 -.035c.033 0 .109 -.136 .113 -.202c0 -.018 .019 -.044 .04 -.057c.043 -.026 .786 -1.48 .976 -1.908c.32 -.724 .904 -2.308 .956 -2.594a1.16 1.16 0 0 1 .054 -.188c.046 -.114 .26 -.912 .287 -1.068c.01 -.062 .044 -.203 .075 -.314c.074 -.264 .223 -1.058 .3 -1.599c.117 -.82 .16 -1.194 .198 -1.705c.03 -.39 .041 -2.73 .017 -3.094a25.404 25.404 0 0 0 -.158 -1.537a6.088 6.088 0 0 1 -.054 -.337a8.419 8.419 0 0 0 -.138 -.825a16.98 16.98 0 0 1 -.09 -.45a3.387 3.387 0 0 0 -.042 -.206a2.084 2.084 0 0 1 -.031 -.15c-.069 -.463 -.534 -2.012 -.896 -2.981c-.292 -.783 -.333 -.881 -.366 -.881c-.018 0 -.032 -.03 -.032 -.067c0 -.125 -.579 -1.305 -1.154 -2.352c-.362 -.659 -1.516 -2.368 -1.628 -2.412a.053 .053 0 0 1 -.032 -.046c0 -.046 -.383 -.522 -.42 -.522c-.017 0 -.03 -.017 -.03 -.038a.39 .39 0 0 0 -.085 -.138a41.03 41.03 0 0 0 -.7 -.804c-.749 -.777 -1.47 -1.476 -1.898 -1.84a21.53 21.53 0 0 0 -1.215 -.976c-.539 -.4 -.708 -.52 -.792 -.562a.565 .565 0 0 1 -.112 -.068c-.058 -.066 -.3 -.227 -.301 -.2c0 .018 -.013 .013 -.028 -.01c-.071 -.11 -1.144 -.732 -2.131 -1.235c-3.592 -1.832 -7.986 -2.7 -11.928 -2.359m3.208 1.26a20.871 20.871 0 0 1 2.569 .334c1.028 .184 2.302 .544 3.452 .976c.227 .085 .43 .159 .45 .164c.02 .006 .122 .048 .225 .095l.638 .284c.248 .11 .566 .26 .706 .334c.141 .073 .273 .133 .293 .133c.02 0 .082 .032 .138 .07c.055 .039 .338 .202 .626 .364c.29 .16 .555 .317 .591 .348c.036 .03 .066 .04 .067 .02c0 -.018 .013 -.016 .028 .006c.03 .044 .664 .467 .7 .467c.011 0 .053 .03 .092 .066c.039 .036 .203 .157 .366 .27c.367 .254 .928 .683 .945 .722c.007 .016 .027 .03 .044 .03c.017 0 .096 .056 .175 .126l.519 .454a32.011 32.011 0 0 1 1.538 1.492c.326 .358 .72 .814 .858 .995a.871 .871 0 0 0 .11 .123a.61 .61 0 0 1 .095 .118c.035 .052 .208 .287 .386 .521c.178 .234 .43 .586 .561 .782c.131 .196 .248 .365 .259 .375a.82 .82 0 0 1 .076 .12c.031 .055 .199 .342 .373 .637c.514 .87 1.1 2.077 1.452 2.984c.093 .241 .187 .46 .208 .486c.022 .026 .03 .048 .017 .048c-.013 0 .001 .063 .032 .14c.03 .077 .14 .42 .245 .76a279.909 279.909 0 0 0 .222 .72l.045 .15a2.4 2.4 0 0 1 .056 .235c.01 .062 .06 .273 .112 .47c.11 .425 .094 .345 .236 1.18c.13 .774 .216 1.477 .25 2.044c.012 .216 .03 .418 .04 .447c.02 .065 .018 1.95 -.003 2.14c-.008 .072 -.025 .3 -.038 .506c-.066 1.031 -.213 1.966 -.546 3.468c-.209 .946 -.789 2.629 -1.27 3.689a2.075 2.075 0 0 0 -.118 .293c0 .02 -.025 .06 -.056 .091a.212 .212 0 0 0 -.056 .129c0 .04 -.016 .072 -.035 .072c-.019 0 -.064 .08 -.1 .178a1.154 1.154 0 0 1 -.111 .235c-.025 .03 -.092 .149 -.149 .262c-.33 .664 -1.18 2 -1.763 2.775c-.439 .582 -.586 .76 -1.234 1.497c-.868 .984 -2.286 2.25 -3.361 2.998c-.624 .434 -1.64 1.085 -1.839 1.178a2.819 2.819 0 0 0 -.187 .106a26.87 26.87 0 0 1 -1.482 .754c-.083 .033 -.285 .123 -.45 .2a8.357 8.357 0 0 1 -.32 .146a2.37 2.37 0 0 0 -.356 .132a.437 .437 0 0 1 -.112 .048c-.08 .022 -.9 .312 -.995 .352a.702 .702 0 0 1 -.095 .032c-.022 .005 -.233 .069 -.47 .141c-.892 .274 -2.395 .606 -3.093 .683c-.082 .01 -.217 .029 -.3 .044a.895 .895 0 0 1 -.178 .02a2.218 2.218 0 0 0 -.28 .028c-.682 .095 -2.675 .153 -3.317 .096l-.708 -.058a18.58 18.58 0 0 1 -2.372 -.338c-2.413 -.477 -5.093 -1.538 -7.04 -2.787c-.132 -.085 -.249 -.149 -.26 -.142c-.01 .007 -.028 -.004 -.04 -.024a3.29 3.29 0 0 0 -.361 -.265c-.186 -.125 -.43 -.295 -.544 -.378l-.3 -.216a37.508 37.508 0 0 1 -1.036 -.816c-.275 -.253 -.353 -.32 -.353 -.303c0 .022 -1.323 -1.263 -1.441 -1.4a84.15 84.15 0 0 0 -.397 -.45a21.874 21.874 0 0 1 -2.184 -2.966c-.409 -.654 -1.36 -2.52 -1.474 -2.888a2.782 2.782 0 0 0 -.094 -.242c-.381 -.862 -1.04 -3.085 -1.146 -3.862a3.1 3.1 0 0 0 -.054 -.281a3.594 3.594 0 0 1 -.056 -.281c-.09 -.597 -.131 -.916 -.167 -1.275c-.023 -.227 -.05 -.5 -.062 -.606c-.12 -1.14 -.047 -3.34 .152 -4.606c.03 -.186 .064 -.413 .077 -.506c.13 -.912 .585 -2.651 .958 -3.656a7.2 7.2 0 0 0 .196 -.572c.001 -.025 .016 -.046 .033 -.046c.018 0 .032 -.024 .032 -.053c0 -.03 .052 -.168 .115 -.31c.063 -.14 .115 -.26 .114 -.265c-.003 -.024 .137 -.33 .378 -.826c.148 -.304 .27 -.56 .272 -.571c.002 -.01 .078 -.145 .167 -.3l.337 -.581c.095 -.165 .17 -.313 .164 -.328c-.005 -.016 .005 -.028 .021 -.028c.017 0 .07 -.072 .12 -.16c.084 -.153 .724 -1.11 .872 -1.303c.04 -.051 .205 -.27 .368 -.487c.163 -.217 .318 -.418 .344 -.449l.268 -.319a2.29 2.29 0 0 1 .253 -.276a.054 .054 0 0 0 .033 -.046c0 -.045 1.574 -1.624 1.839 -1.845c.113 -.094 .257 -.216 .319 -.27c.938 -.823 3.526 -2.57 3.809 -2.57c.02 0 .036 -.016 .036 -.037c0 -.02 .023 -.037 .05 -.037c.028 0 .292 -.12 .586 -.264c.295 -.146 .698 -.332 .895 -.414c.197 -.082 .38 -.168 .408 -.19c.027 -.023 .05 -.03 .05 -.017c0 .014 .038 .004 .084 -.021a.62 .62 0 0 1 .122 -.054c.02 -.004 .249 -.084 .506 -.178c2.697 -.982 5.796 -1.42 8.63 -1.22m-1.989 1.13c-.01 .011 -.264 .03 -.563 .041a18.8 18.8 0 0 0 -2.344 .266c-1.405 .26 -2.672 .615 -3.752 1.052a.951 .951 0 0 1 -.147 .044a.325 .325 0 0 0 -.113 .045c-.022 .017 -.116 .06 -.21 .096c-.726 .282 -2.134 .988 -2.56 1.285a1.731 1.731 0 0 1 -.192 .124c-.123 0 -2.087 1.386 -2.087 1.473c0 .021 -.01 .029 -.022 .017c-.137 -.137 -2.626 2.404 -3.469 3.54c-.247 .332 -.28 .382 -.27 .413c.005 .017 -.005 .03 -.022 .03c-.04 0 -.381 .5 -.381 .557c0 .024 -.014 .044 -.032 .044c-.017 0 -.055 .046 -.084 .103a.98 .98 0 0 1 -.115 .171a3.792 3.792 0 0 0 -.244 .39c-.1 .175 -.228 .398 -.285 .493c-.188 .318 -.743 1.43 -.714 1.43c.016 0 .011 .013 -.01 .028c-.046 .032 -.103 .153 -.312 .656c-.083 .201 -.144 .365 -.134 .365c.01 0 -.006 .038 -.036 .085a9.06 9.06 0 0 0 -.372 1.003a14.332 14.332 0 0 0 -.301 .975a21.81 21.81 0 0 0 -.337 1.426a1.097 1.097 0 0 1 -.037 .186a11.93 11.93 0 0 0 -.157 .993a2.15 2.15 0 0 1 -.037 .244c-.107 .36 -.184 2.662 -.12 3.58c.018 .248 .03 .49 .029 .536c-.007 .182 .187 1.554 .295 2.09c.062 .309 .12 .607 .13 .662c.142 .842 .903 3.09 1.313 3.874a.582 .582 0 0 1 .059 .145c0 .063 .535 1.111 .567 1.111c.018 0 .033 .032 .033 .07c0 .039 .034 .113 .075 .165a.357 .357 0 0 1 .075 .137c0 .022 .017 .04 .038 .04c.02 0 .037 .025 .037 .054c0 .03 .027 .08 .06 .113c.032 .032 .048 .059 .037 .059c-.069 0 1.168 1.847 1.408 2.103c.053 .057 .128 .152 .165 .21c.059 .09 .312 .396 .506 .613l.32 .357c.144 .162 .372 .402 .506 .534c.731 .717 1.126 1.092 1.294 1.226c.103 .082 .23 .189 .281 .236c.091 .084 .784 .612 1.126 .858c.42 .302 1.294 .874 1.335 .874c.011 0 .094 .05 .184 .113c.09 .061 .172 .112 .18 .112c.01 0 .159 .078 .332 .174c1.165 .645 3.478 1.596 4.169 1.712c.046 .008 .11 .025 .14 .038c.399 .164 2.322 .525 3.34 .627c4.897 .49 9.858 -.87 13.88 -3.805c.197 -.143 .366 -.27 .376 -.281c.01 -.012 .221 -.184 .469 -.382a14.815 14.815 0 0 0 .98 -.857c.04 -.001 1.21 -1.222 1.477 -1.54l.283 -.334c.296 -.345 .774 -.976 .74 -.977c-.015 0 -.01 -.013 .013 -.028c.022 -.015 .123 -.145 .223 -.29l.306 -.44c.068 -.098 .113 -.179 .099 -.179c-.014 0 .01 -.037 .052 -.084c.043 -.046 .111 -.143 .152 -.215c.04 -.073 .141 -.241 .223 -.375c.354 -.58 .776 -1.415 1.154 -2.287c.208 -.478 .507 -1.273 .507 -1.346c0 -.035 .02 -.084 .045 -.11c.025 -.024 .031 -.044 .014 -.044s-.012 -.022 .01 -.05c.04 -.047 .407 -1.263 .438 -1.45c.01 -.052 .032 -.157 .05 -.234c.02 -.078 .027 -.14 .016 -.14c-.01 0 -.002 -.022 .02 -.048c.02 -.026 .074 -.246 .119 -.49c.044 -.243 .087 -.463 .095 -.487c.025 -.072 .163 -1.061 .205 -1.47c.147 -1.419 .125 -3.154 -.059 -4.499c-.087 -.639 -.169 -1.156 -.192 -1.218a1.063 1.063 0 0 1 -.036 -.188a11.95 11.95 0 0 0 -.182 -.787c-.092 -.36 -.177 -.698 -.188 -.75a18.904 18.904 0 0 0 -.266 -.862a.48 .48 0 0 1 -.018 -.065c0 -.005 -.06 -.173 -.134 -.375l-.187 -.51a13.759 13.759 0 0 0 -.315 -.765a.946 .946 0 0 1 -.073 -.197a.038 .038 0 0 0 -.037 -.038c-.02 0 -.038 -.026 -.038 -.059c0 -.052 -.64 -1.364 -.712 -1.46a4.492 4.492 0 0 1 -.151 -.262c-.16 -.29 -.39 -.657 -.465 -.74c-.033 -.036 -.06 -.076 -.06 -.089c0 -.027 -.675 -1.014 -.854 -1.248a23.822 23.822 0 0 0 -.478 -.6c-.092 -.112 -.79 -.908 -.843 -.96c-.021 -.02 -.237 -.244 -.48 -.497c-.244 -.252 -.463 -.459 -.488 -.459c-.025 0 -.046 -.015 -.046 -.033c0 -.073 -1.268 -1.13 -1.876 -1.564c-.7 -.5 -1.674 -1.118 -2.07 -1.315a14.602 14.602 0 0 1 -.393 -.21c-.516 -.284 -2.053 -.973 -2.273 -1.018a1.274 1.274 0 0 1 -.16 -.057c-.222 -.093 -.394 -.148 -.394 -.127c0 .012 -.02 .005 -.047 -.015c-.092 -.073 -1.425 -.463 -2.02 -.592c-1.1 -.237 -2.903 -.487 -3.373 -.467a28.17 28.17 0 0 1 -.844 -.022c-.412 -.014 -.759 -.017 -.769 -.006m2.251 .792c1.753 .166 4.201 .751 5.421 1.296c.042 .019 .27 .114 .507 .212c.237 .097 .47 .201 .516 .231c.046 .03 .084 .042 .084 .027c0 -.016 .021 -.01 .047 .01s.296 .167 .601 .324c.305 .158 .664 .354 .798 .435c.134 .082 .252 .15 .262 .15c.01 0 .141 .078 .29 .175l.535 .343c.414 .266 1.315 .933 1.51 1.12c.027 .025 .128 .11 .226 .188c.097 .078 .253 .211 .346 .296c.093 .085 .228 .206 .3 .268a29.253 29.253 0 0 1 1.526 1.57c.065 .07 .107 .127 .093 .127c-.013 0 -.008 .013 .013 .028c.042 .03 .325 .371 .475 .571c.054 .072 .134 .169 .178 .214c.043 .046 .079 .097 .079 .115c0 .018 .032 .067 .072 .11c.166 .178 .948 1.378 1.24 1.905c.428 .768 .87 1.697 1.153 2.418c.092 .237 .186 .473 .208 .525c.021 .051 .043 .112 .048 .135a16.467 16.467 0 0 0 .263 .783c.005 .021 .07 .255 .145 .52c.13 .46 .346 1.38 .38 1.618c.008 .061 .024 .154 .034 .206l.04 .225c.01 .072 .028 .173 .038 .225c.022 .108 .135 1.04 .136 1.125c0 .03 .017 .241 .037 .468c.072 .83 .032 2.585 -.078 3.43a3.48 3.48 0 0 0 -.031 .3c0 .032 -.037 .277 -.082 .545c-.045 .268 -.088 .53 -.095 .58a2.43 2.43 0 0 1 -.034 .188a4.47 4.47 0 0 0 -.039 .188c-.01 .051 -.086 .372 -.172 .712l-.169 .675c-.007 .03 -.092 .292 -.189 .581s-.18 .542 -.185 .562a.98 .98 0 0 1 -.038 .113l-.196 .487c-.091 .227 -.19 .466 -.22 .53a.657 .657 0 0 0 -.053 .153c0 .018 -.143 .316 -.317 .66c-.175 .345 -.316 .631 -.315 .636c.007 .033 -.721 1.253 -.986 1.653c-.121 .182 -.22 .337 -.22 .343a.588 .588 0 0 1 -.074 .1c-.041 .048 -.18 .23 -.31 .403c-.463 .62 -.499 .667 -.554 .722c-.031 .03 -.116 .13 -.188 .219c-.072 .09 -.169 .204 -.215 .254l-.281 .314a24.197 24.197 0 0 1 -1.605 1.56c-.051 .043 -.136 .115 -.187 .16c-2.6 2.235 -6.182 3.836 -9.736 4.351c-2.059 .298 -4.853 .204 -6.701 -.225c-.173 -.04 -.366 -.082 -.428 -.092c-.554 -.092 -2.366 -.688 -3.151 -1.036a12.898 12.898 0 0 0 -.356 -.149a2.785 2.785 0 0 1 -.263 -.117a6.8 6.8 0 0 0 -.321 -.163a19.338 19.338 0 0 1 -3.014 -1.838l-.45 -.337c-1.44 -1.078 -3.371 -3.21 -4.33 -4.782a11.413 11.413 0 0 0 -.139 -.225c-.409 -.634 -1.03 -1.84 -1.39 -2.703c-.21 -.503 -.687 -1.834 -.73 -2.04a8.133 8.133 0 0 0 -.094 -.338a4.824 4.824 0 0 1 -.096 -.375a2.206 2.206 0 0 0 -.055 -.225a24.682 24.682 0 0 1 -.26 -1.274a24.39 24.39 0 0 1 -.168 -1.144l-.039 -.394c-.056 -.551 -.075 -2.142 -.032 -2.756c.06 -.866 .088 -1.192 .107 -1.246c.009 -.026 .024 -.131 .034 -.235c.042 -.435 .275 -1.645 .418 -2.174c.3 -1.11 .679 -2.214 .996 -2.902c.061 -.132 .147 -.326 .19 -.43c.11 -.267 .422 -.881 .638 -1.257c.1 -.173 .181 -.323 .181 -.332a.67 .67 0 0 1 .078 -.126c.042 -.06 .067 -.109 .055 -.109c-.013 0 -.005 -.02 .016 -.046a7 7 0 0 0 .233 -.347c.328 -.512 .565 -.86 .644 -.947c.041 -.046 .065 -.084 .053 -.084c-.013 0 .01 -.038 .048 -.085c.089 -.104 .604 -.767 .655 -.842c.02 -.03 .094 -.117 .164 -.192c.069 -.076 .24 -.272 .382 -.437c.573 -.671 1.874 -1.875 2.628 -2.43c.163 -.12 .297 -.235 .297 -.254c0 -.02 .02 -.035 .046 -.035s.135 -.067 .243 -.148c.528 -.4 1.534 -1.008 2.407 -1.453c1.528 -.78 3.055 -1.316 4.938 -1.736a24.81 24.81 0 0 1 1.914 -.282a8.39 8.39 0 0 0 .614 -.076c.018 -.017 2.789 .015 3.006 .036m-1.688 4.25a2.408 2.408 0 0 0 -.244 .2c-.147 .136 -.604 .447 -.658 .447a1.01 1.01 0 0 0 -.172 .062c-.08 .035 -.18 .07 -.22 .077a3.34 3.34 0 0 0 -.207 .048c-.302 .08 -.84 .115 -1.643 .107c-2.395 -.023 -2.706 .014 -3.4 .405a42.32 42.32 0 0 1 -.284 .158c-.414 .228 -1.133 1.127 -1.141 1.427l-.004 .134l.213 -.007c.222 -.007 .417 -.08 1.12 -.417c.588 -.284 .84 -.235 1.307 .253c.149 .155 .574 .76 .57 .808c-.002 .01 .042 .108 .097 .216c.214 .42 .162 .728 -.255 1.501c-.088 .164 -.107 1.126 -.032 1.62c.022 .145 .048 .329 .057 .409c.057 .485 .513 1.491 .746 1.644c.023 .015 .028 .027 .01 .028c-.017 0 .033 .089 .111 .197a55.182 55.182 0 0 0 1.09 1.446c.028 .028 .05 .061 .05 .076c0 .014 .038 .068 .084 .12c.887 .984 1.004 1.299 1.004 2.701c0 1.318 .015 1.385 .313 1.384c.393 0 .62 -.46 .646 -1.312c.019 -.625 .05 -.871 .17 -1.312c.065 -.237 .159 -.617 .209 -.844c.276 -1.242 .441 -1.763 .79 -2.493c.218 -.454 .322 -.681 .329 -.713a1.32 1.32 0 0 1 .067 -.136c.704 -1.319 1.228 -3.331 1.228 -4.72v-.705l-.26 -.528c-.653 -1.324 -1.176 -2.14 -1.47 -2.292c-.124 -.065 -.105 -.066 -.221 .01m6.58 4.809c-.257 .103 -.285 .292 -.1 .65c.227 .434 .22 .91 -.022 1.413c-.054 .113 -.11 .214 -.121 .225c-.272 .226 -.28 .746 -.014 .82c.554 .153 .978 -.517 1.02 -1.612c.043 -1.136 -.247 -1.705 -.763 -1.496m-2.214 .232c-.06 .045 -.116 .09 -.127 .097c-.01 .009 -.02 .372 -.02 .809c-.004 1.035 -.095 1.434 -.475 2.077c-.303 .512 -.157 .663 .462 .477c.51 -.152 .768 -.092 .81 .189c.007 .041 .056 .255 .109 .474c.169 .7 -.146 1.842 -.733 2.657a6.18 6.18 0 0 0 -.262 .401c-.307 .525 -.4 .399 -.386 -.528c.02 -1.505 -.062 -1.855 -.547 -2.297l-.252 -.23l-.019 -.726l-.019 -.726l-.163 -.328c-.258 -.518 -.424 -.614 -.672 -.387c-.158 .145 -.176 .344 -.075 .828c.089 .42 .029 .813 -.198 1.3c-.261 .562 -.292 .83 -.116 1.006c.198 .198 .372 .103 .683 -.373c.058 -.09 .059 -.09 .176 -.02c.101 .06 .138 .121 .18 .299c.004 .02 .056 .18 .115 .356c.175 .52 .152 1.08 -.077 1.931c-.005 .02 -.03 .085 -.053 .143a.772 .772 0 0 0 -.043 .125c0 .065 -.418 .83 -.586 1.075a2.334 2.334 0 0 0 -.202 .325c0 .018 -.015 .037 -.033 .044c-.027 .011 -.163 .164 -.382 .43c-.067 .082 -.75 .694 -.881 .791c-.177 .13 -.78 .436 -.974 .495a4.094 4.094 0 0 0 -.206 .068a.214 .214 0 0 1 -.08 .017c-.109 -.02 -.842 .224 -.932 .31c-.25 .24 .055 .657 .446 .607c.549 -.071 1.431 -.357 1.72 -.558c.163 -.113 .197 -.122 .421 -.11c.7 .036 1.139 .017 1.726 -.075c.134 -.02 .312 -.046 .394 -.056c.19 -.022 .506 -.118 .943 -.287c.402 -.155 1.024 -.435 1.14 -.513a.99 .99 0 0 1 .15 -.075c.097 -.04 .401 -.248 .563 -.387c.051 -.045 .188 -.152 .303 -.238c.29 -.217 .939 -.986 .833 -.988c-.017 0 -.01 -.014 .016 -.03c.047 -.03 .376 -.708 .399 -.822c.007 -.036 .033 -.117 .058 -.179c.095 -.232 .26 -.878 .338 -1.33c.116 -.662 .111 -.633 .137 -.881c.013 -.124 .03 -.268 .04 -.32c.009 -.051 .026 -.341 .04 -.644l.022 -.551l-.144 -.19c-.08 -.104 -.174 -.198 -.209 -.21a.147 .147 0 0 1 -.084 -.072c-.034 -.09 -.244 -.177 -.363 -.15c-.18 .039 -.21 .258 -.09 .645c.094 .303 .093 .389 -.005 .734c-.089 .313 -.276 .643 -.548 .967c-.606 .723 -.487 1.21 .191 .78c.257 -.162 .45 -.165 .4 -.005a24.6 24.6 0 0 0 -.1 .403l-.088 .375a3.442 3.442 0 0 1 -.137 .346c-.037 .088 -.058 .16 -.047 .16c.012 0 .004 .021 -.018 .047c-.022 .027 -.09 .145 -.153 .264c-.285 .542 -.813 1.017 -1.695 1.526c-.653 .377 -1.288 .688 -1.648 .806c-.377 .125 -1.2 .074 -1.2 -.074c0 -.136 .222 -.335 .675 -.603c.403 -.24 .406 -.242 .675 -.446c1.723 -1.31 2.6 -2.985 2.384 -4.557c-.054 -.393 -.094 -.568 -.142 -.628c-.02 -.026 -.028 -.047 -.016 -.047c.03 0 -.06 -.21 -.295 -.694l-.2 -.412l-.024 -.938c-.025 -1.026 -.03 -1.071 -.14 -1.325c-.173 -.401 -.453 -.553 -.69 -.374m-15.453 2.357c-1.327 .07 -1.86 .343 -2.625 1.348c-.236 .31 -1.286 1.363 -1.558 1.562c-.216 .158 -.928 .613 -.96 .613c-.056 0 -.7 .466 -.75 .543c-.138 .21 -.267 .987 -.276 1.661c-.01 .784 .201 .868 .842 .332c.144 -.12 .351 -.276 .46 -.346c.196 -.127 .596 -.308 .778 -.353c.02 -.005 .08 -.025 .131 -.045c.127 -.049 .17 -.058 .72 -.143c.998 -.156 1.765 -.082 3.103 .3c1.234 .353 1.778 .435 2.27 .343c.22 -.042 1.141 -.435 1.195 -.51c.015 -.021 .027 -.027 .028 -.013c0 .028 .418 -.152 .45 -.193c.124 -.16 .942 -.238 1.37 -.133c.567 .14 .784 .332 1.053 .928c.137 .305 .338 .533 .606 .686c.64 .368 1.27 .646 1.373 .606c.077 -.03 -.188 -1.143 -.282 -1.182c-.017 -.007 -.03 -.033 -.03 -.058c0 -.04 -.205 -.35 -.264 -.398a.223 .223 0 0 1 -.044 -.075a3.978 3.978 0 0 0 -.263 -.379c-.94 -1.256 -1.283 -1.805 -1.458 -2.333a9.837 9.837 0 0 0 -.146 -.42a2.718 2.718 0 0 1 -.081 -.252c-.027 -.098 -.062 -.178 -.078 -.178c-.017 0 -.03 -.023 -.03 -.05c0 -.535 -1.579 -1.45 -2.851 -1.654c-.072 -.012 -.182 -.03 -.244 -.042a9.572 9.572 0 0 0 -1.182 -.15c-.216 -.01 -.478 -.025 -.581 -.03a9.353 9.353 0 0 0 -.676 .015m21.024 3.071c-.414 .076 -.67 .265 -.942 .696c-.162 .257 -.258 .472 -.685 1.537c-.116 .289 -.227 .55 -.246 .581a6.752 6.752 0 0 0 -.24 .487c-.01 .045 -.441 .7 -.573 .872c-.998 1.303 -3.181 2.315 -4.99 2.315c-.647 0 -.696 .016 -.512 .161c.055 .043 .247 .206 .427 .362c.453 .391 .48 .41 .713 .52c.289 .136 .556 .125 1.238 -.05c.789 -.202 1.289 -.21 2.1 -.034c1.373 .298 1.656 .307 2.327 .073c.73 -.255 1.254 -.35 1.975 -.36c1.27 -.018 3.673 -2.162 3.648 -3.255c-.003 -.143 .033 -.35 .108 -.607l.162 -.566c.145 -.518 .725 -.841 1.122 -.625c.095 .051 .57 .26 .805 .355c.123 .05 .238 .076 .255 .058c.044 -.044 .084 -.807 .047 -.893a.776 .776 0 0 1 -.04 -.116a9.584 9.584 0 0 0 -.113 -.375a1.97 1.97 0 0 1 -.107 -.617c-.004 -.43 .008 -.423 -.782 -.423c-.355 0 -.849 .014 -1.096 .032c-.977 .07 -1.668 .05 -2.645 -.071c-.552 -.069 -1.708 -.103 -1.956 -.057m-8.657 .479c-.188 .092 -.24 .25 -.253 .779c-.016 .637 -.06 .97 -.14 1.068a1.11 1.11 0 0 0 -.098 .16c-.029 .058 -.162 .193 -.297 .3c-.612 .49 -.692 .652 -.384 .785c.635 .275 1.366 -.365 1.66 -1.453c.11 -.405 .123 -1.207 .023 -1.318c-.036 -.04 -.057 -.082 -.046 -.093c.022 -.022 -.266 -.293 -.31 -.292a.795 .795 0 0 0 -.155 .064m-9.014 3.401a9.53 9.53 0 0 1 -.67 .038c-.777 .03 -.834 .042 -1.37 .307c-.654 .324 -.71 .387 -.81 .93l-.082 .447l-.192 .19a15.03 15.03 0 0 1 -.379 .362c-.34 .31 -.994 1.086 -.994 1.178a.341 .341 0 0 1 -.074 .102c-.042 .044 -.15 .225 -.241 .402c-.495 .959 -.558 1.59 -.23 2.31c.107 .232 .21 .53 .228 .654c.056 .382 0 1.168 -.114 1.594c-.353 1.322 -.084 2.042 .806 2.157c.35 .045 1.24 -.082 1.38 -.197c.025 -.021 .046 -.03 .046 -.018s.266 -.07 .59 -.183c.627 -.215 .758 -.233 1.267 -.168c.886 .112 1.795 -.26 2.505 -1.028c.19 -.205 .46 -.49 .599 -.633l.252 -.26l.442 .028c.243 .015 .484 .033 .535 .038c.298 .031 .613 -.334 1.05 -1.217c.349 -.702 .783 -1.182 1.29 -1.424c.624 -.297 1.09 -.358 1.59 -.205c.083 .025 .085 .019 .085 -.272c0 -.33 -.081 -.506 -.342 -.747c-.117 -.108 -.25 -.19 -1.03 -.643c-.598 -.347 -.715 -.548 -.75 -1.286c-.03 -.616 -.078 -.743 -.41 -1.102c-.43 -.464 -1.791 -1.038 -3.058 -1.292c-.354 -.07 -1.857 -.12 -1.919 -.062m7.182 2.795c-.264 .111 -.163 .51 .191 .748c.905 .612 1.295 1.754 1.018 2.984a2.246 2.246 0 0 1 -.117 .313c-.18 .412 -.176 .666 .015 1.036c.11 .213 .117 .236 .152 .469c.028 .186 -.03 .767 -.084 .856c-.184 .297 -.264 1.43 -.13 1.85c.2 .633 1.11 2.187 1.646 2.806c.063 .073 .143 .177 .18 .232c.327 .5 1.659 1.767 1.9 1.808a.59 .59 0 0 1 .125 .054c.16 .087 .734 .135 1.078 .089c.476 -.064 .642 -.18 1.007 -.707a3.29 3.29 0 0 1 .267 -.351c.032 -.026 .057 -.06 .057 -.077c0 -.048 .41 -.443 .694 -.667c.573 -.452 .86 -.791 1.124 -1.323c.627 -1.269 .62 -1.81 -.043 -3.483c-.036 -.091 -.011 -.337 .064 -.637c.148 -.589 -.177 -2.985 -.449 -3.308a4.492 4.492 0 0 1 -.118 -.151c-.083 -.111 -.409 -.35 -.41 -.302c0 .017 -.013 .012 -.028 -.011c-.188 -.282 -1.69 -.22 -2.241 .093a.268 .268 0 0 1 -.075 .027c-.02 .003 -.22 .052 -.442 .108c-.728 .182 -1.302 .089 -1.771 -.289l-.188 -.145c-.083 -.064 -.327 -.28 -.544 -.481c-.706 -.655 -.733 -.679 -1.073 -.923c-.657 -.471 -1.482 -.754 -1.805 -.618"/></symbol><symbol id="sources-ng-ngn" viewBox="0 0 48 48"><path d="M15.146 31.768v13.947h-8.386v-13.947h-5.26v-6.016h5.26v-4.01h-5.26v-6.016h5.26v-13.476h9.438l7.597 13.476h9.556v-13.476h8.386v13.476h4.763v6.016h-4.763v4.01h4.763v6.016h-4.763v13.947h-9l-7.948 -13.947h-9.643zm6.195 -6.016l-2.28 -4.01h-3.915v4.01h6.195zm8.123 0h3.887v-4.01h-6.137l2.25 4.01zm3.887 6.841v-.825h-.468l.468 .825z"/></symbol></defs></svg>