<svg xmlns="http://www.w3.org/2000/svg" width="48" height="48" viewBox="0 0 48 48" fill="currentColor"><path d="M22.226 1.573a25.866 25.866 0 0 0 -2.289 .302a1.554 1.554 0 0 0 -.206 .043a.83 .83 0 0 1 -.142 .032c-1.783 .237 -4.76 1.38 -7.137 2.741a35.25 35.25 0 0 0 -1.463 .95l-.506 .377c-.207 .153 -.485 .369 -.62 .48l-.41 .338c-.623 .508 -1.68 1.541 -2.347 2.295c-.434 .49 -1.257 1.538 -1.257 1.601c0 .02 -.025 .047 -.056 .059c-.03 .012 -.056 .046 -.056 .075c0 .03 -.027 .063 -.059 .076c-.032 .012 -.048 .04 -.035 .06c.013 .021 .007 .038 -.012 .038c-.043 0 -.314 .395 -.714 1.041a22.754 22.754 0 0 0 -2.815 6.72c-.173 .723 -.351 1.661 -.396 2.081c-.01 .103 -.044 .365 -.074 .581c-.244 1.782 -.14 4.87 .225 6.593c.033 .158 .068 .338 .078 .4c.01 .062 .034 .18 .054 .262c.02 .083 .042 .192 .05 .244c.009 .051 .068 .288 .132 .525c.064 .237 .124 .473 .133 .525c.009 .051 .103 .364 .209 .693c.106 .33 .201 .638 .212 .685c.01 .046 .035 .084 .055 .084c.02 0 .024 .018 .01 .04c-.013 .02 .004 .08 .037 .13c.033 .051 .05 .093 .04 .093c-.012 0 0 .037 .025 .084a.675 .675 0 0 1 .067 .15a1.497 1.497 0 0 0 .11 .337l.286 .666c.118 .278 .238 .548 .266 .6c.028 .051 .092 .19 .142 .306c.302 .704 1.5 2.685 2.085 3.447c.073 .095 .158 .21 .189 .256c.083 .122 .192 .262 .321 .412c.063 .074 .196 .235 .296 .36c.664 .827 2.3 2.492 2.575 2.62c.04 .019 .072 .046 .072 .06c0 .015 .13 .135 .29 .266c.16 .13 .3 .247 .31 .259c.025 .028 .942 .715 1.051 .787c.047 .031 .131 .094 .187 .14c.057 .046 .113 .072 .126 .06c.014 -.014 .024 -.005 .024 .019s.02 .044 .043 .044c.024 0 .062 .024 .085 .053c.046 .06 .648 .434 .697 .434c.018 0 .038 .014 .045 .03c.016 .039 .806 .504 .84 .495c.015 -.003 .038 .012 .052 .034c.04 .066 1.73 .905 2.12 1.053c.062 .024 .164 .066 .226 .094c.168 .076 .687 .28 .901 .354c.934 .324 2.038 .659 2.289 .694c.04 .006 .1 .02 .13 .032c.14 .053 .983 .222 1.914 .383c.177 .03 .906 .122 .976 .123c.03 0 .208 .02 .394 .044c.765 .1 3.657 .085 4.197 -.02a3.96 3.96 0 0 1 .305 -.037c2.612 -.235 6.14 -1.36 8.46 -2.697c.57 -.328 1.21 -.717 1.268 -.771a.312 .312 0 0 1 .093 -.065c.026 -.005 .64 -.422 1.078 -.733a32.036 32.036 0 0 0 1.125 -.885a8.62 8.62 0 0 1 .28 -.247c.911 -.783 2.186 -2.122 2.893 -3.037c.526 -.681 .865 -1.153 .847 -1.176c-.007 -.008 .01 -.029 .038 -.046c.028 -.017 .05 -.044 .05 -.06c0 -.018 .022 -.056 .05 -.087c.106 -.12 .448 -.67 .428 -.69c-.012 -.012 -.004 -.021 .017 -.021s.092 -.1 .158 -.224a1.25 1.25 0 0 1 .156 -.246a.042 .042 0 0 0 .015 -.058c-.012 -.019 -.006 -.035 .012 -.035c.033 0 .109 -.136 .113 -.202c0 -.018 .019 -.044 .04 -.057c.043 -.026 .786 -1.48 .976 -1.908c.32 -.724 .904 -2.308 .956 -2.594a1.16 1.16 0 0 1 .054 -.188c.046 -.114 .26 -.912 .287 -1.068c.01 -.062 .044 -.203 .075 -.314c.074 -.264 .223 -1.058 .3 -1.599c.117 -.82 .16 -1.194 .198 -1.705c.03 -.39 .041 -2.73 .017 -3.094a25.404 25.404 0 0 0 -.158 -1.537a6.088 6.088 0 0 1 -.054 -.337a8.419 8.419 0 0 0 -.138 -.825a16.98 16.98 0 0 1 -.09 -.45a3.387 3.387 0 0 0 -.042 -.206a2.084 2.084 0 0 1 -.031 -.15c-.069 -.463 -.534 -2.012 -.896 -2.981c-.292 -.783 -.333 -.881 -.366 -.881c-.018 0 -.032 -.03 -.032 -.067c0 -.125 -.579 -1.305 -1.154 -2.352c-.362 -.659 -1.516 -2.368 -1.628 -2.412a.053 .053 0 0 1 -.032 -.046c0 -.046 -.383 -.522 -.42 -.522c-.017 0 -.03 -.017 -.03 -.038a.39 .39 0 0 0 -.085 -.138a41.03 41.03 0 0 0 -.7 -.804c-.749 -.777 -1.47 -1.476 -1.898 -1.84a21.53 21.53 0 0 0 -1.215 -.976c-.539 -.4 -.708 -.52 -.792 -.562a.565 .565 0 0 1 -.112 -.068c-.058 -.066 -.3 -.227 -.301 -.2c0 .018 -.013 .013 -.028 -.01c-.071 -.11 -1.144 -.732 -2.131 -1.235c-3.592 -1.832 -7.986 -2.7 -11.928 -2.359m3.208 1.26a20.871 20.871 0 0 1 2.569 .334c1.028 .184 2.302 .544 3.452 .976c.227 .085 .43 .159 .45 .164c.02 .006 .122 .048 .225 .095l.638 .284c.248 .11 .566 .26 .706 .334c.141 .073 .273 .133 .293 .133c.02 0 .082 .032 .138 .07c.055 .039 .338 .202 .626 .364c.29 .16 .555 .317 .591 .348c.036 .03 .066 .04 .067 .02c0 -.018 .013 -.016 .028 .006c.03 .044 .664 .467 .7 .467c.011 0 .053 .03 .092 .066c.039 .036 .203 .157 .366 .27c.367 .254 .928 .683 .945 .722c.007 .016 .027 .03 .044 .03c.017 0 .096 .056 .175 .126l.519 .454a32.011 32.011 0 0 1 1.538 1.492c.326 .358 .72 .814 .858 .995a.871 .871 0 0 0 .11 .123a.61 .61 0 0 1 .095 .118c.035 .052 .208 .287 .386 .521c.178 .234 .43 .586 .561 .782c.131 .196 .248 .365 .259 .375a.82 .82 0 0 1 .076 .12c.031 .055 .199 .342 .373 .637c.514 .87 1.1 2.077 1.452 2.984c.093 .241 .187 .46 .208 .486c.022 .026 .03 .048 .017 .048c-.013 0 .001 .063 .032 .14c.03 .077 .14 .42 .245 .76a279.909 279.909 0 0 0 .222 .72l.045 .15a2.4 2.4 0 0 1 .056 .235c.01 .062 .06 .273 .112 .47c.11 .425 .094 .345 .236 1.18c.13 .774 .216 1.477 .25 2.044c.012 .216 .03 .418 .04 .447c.02 .065 .018 1.95 -.003 2.14c-.008 .072 -.025 .3 -.038 .506c-.066 1.031 -.213 1.966 -.546 3.468c-.209 .946 -.789 2.629 -1.27 3.689a2.075 2.075 0 0 0 -.118 .293c0 .02 -.025 .06 -.056 .091a.212 .212 0 0 0 -.056 .129c0 .04 -.016 .072 -.035 .072c-.019 0 -.064 .08 -.1 .178a1.154 1.154 0 0 1 -.111 .235c-.025 .03 -.092 .149 -.149 .262c-.33 .664 -1.18 2 -1.763 2.775c-.439 .582 -.586 .76 -1.234 1.497c-.868 .984 -2.286 2.25 -3.361 2.998c-.624 .434 -1.64 1.085 -1.839 1.178a2.819 2.819 0 0 0 -.187 .106a26.87 26.87 0 0 1 -1.482 .754c-.083 .033 -.285 .123 -.45 .2a8.357 8.357 0 0 1 -.32 .146a2.37 2.37 0 0 0 -.356 .132a.437 .437 0 0 1 -.112 .048c-.08 .022 -.9 .312 -.995 .352a.702 .702 0 0 1 -.095 .032c-.022 .005 -.233 .069 -.47 .141c-.892 .274 -2.395 .606 -3.093 .683c-.082 .01 -.217 .029 -.3 .044a.895 .895 0 0 1 -.178 .02a2.218 2.218 0 0 0 -.28 .028c-.682 .095 -2.675 .153 -3.317 .096l-.708 -.058a18.58 18.58 0 0 1 -2.372 -.338c-2.413 -.477 -5.093 -1.538 -7.04 -2.787c-.132 -.085 -.249 -.149 -.26 -.142c-.01 .007 -.028 -.004 -.04 -.024a3.29 3.29 0 0 0 -.361 -.265c-.186 -.125 -.43 -.295 -.544 -.378l-.3 -.216a37.508 37.508 0 0 1 -1.036 -.816c-.275 -.253 -.353 -.32 -.353 -.303c0 .022 -1.323 -1.263 -1.441 -1.4a84.15 84.15 0 0 0 -.397 -.45a21.874 21.874 0 0 1 -2.184 -2.966c-.409 -.654 -1.36 -2.52 -1.474 -2.888a2.782 2.782 0 0 0 -.094 -.242c-.381 -.862 -1.04 -3.085 -1.146 -3.862a3.1 3.1 0 0 0 -.054 -.281a3.594 3.594 0 0 1 -.056 -.281c-.09 -.597 -.131 -.916 -.167 -1.275c-.023 -.227 -.05 -.5 -.062 -.606c-.12 -1.14 -.047 -3.34 .152 -4.606c.03 -.186 .064 -.413 .077 -.506c.13 -.912 .585 -2.651 .958 -3.656a7.2 7.2 0 0 0 .196 -.572c.001 -.025 .016 -.046 .033 -.046c.018 0 .032 -.024 .032 -.053c0 -.03 .052 -.168 .115 -.31c.063 -.14 .115 -.26 .114 -.265c-.003 -.024 .137 -.33 .378 -.826c.148 -.304 .27 -.56 .272 -.571c.002 -.01 .078 -.145 .167 -.3l.337 -.581c.095 -.165 .17 -.313 .164 -.328c-.005 -.016 .005 -.028 .021 -.028c.017 0 .07 -.072 .12 -.16c.084 -.153 .724 -1.11 .872 -1.303c.04 -.051 .205 -.27 .368 -.487c.163 -.217 .318 -.418 .344 -.449l.268 -.319a2.29 2.29 0 0 1 .253 -.276a.054 .054 0 0 0 .033 -.046c0 -.045 1.574 -1.624 1.839 -1.845c.113 -.094 .257 -.216 .319 -.27c.938 -.823 3.526 -2.57 3.809 -2.57c.02 0 .036 -.016 .036 -.037c0 -.02 .023 -.037 .05 -.037c.028 0 .292 -.12 .586 -.264c.295 -.146 .698 -.332 .895 -.414c.197 -.082 .38 -.168 .408 -.19c.027 -.023 .05 -.03 .05 -.017c0 .014 .038 .004 .084 -.021a.62 .62 0 0 1 .122 -.054c.02 -.004 .249 -.084 .506 -.178c2.697 -.982 5.796 -1.42 8.63 -1.22m-1.989 1.13c-.01 .011 -.264 .03 -.563 .041a18.8 18.8 0 0 0 -2.344 .266c-1.405 .26 -2.672 .615 -3.752 1.052a.951 .951 0 0 1 -.147 .044a.325 .325 0 0 0 -.113 .045c-.022 .017 -.116 .06 -.21 .096c-.726 .282 -2.134 .988 -2.56 1.285a1.731 1.731 0 0 1 -.192 .124c-.123 0 -2.087 1.386 -2.087 1.473c0 .021 -.01 .029 -.022 .017c-.137 -.137 -2.626 2.404 -3.469 3.54c-.247 .332 -.28 .382 -.27 .413c.005 .017 -.005 .03 -.022 .03c-.04 0 -.381 .5 -.381 .557c0 .024 -.014 .044 -.032 .044c-.017 0 -.055 .046 -.084 .103a.98 .98 0 0 1 -.115 .171a3.792 3.792 0 0 0 -.244 .39c-.1 .175 -.228 .398 -.285 .493c-.188 .318 -.743 1.43 -.714 1.43c.016 0 .011 .013 -.01 .028c-.046 .032 -.103 .153 -.312 .656c-.083 .201 -.144 .365 -.134 .365c.01 0 -.006 .038 -.036 .085a9.06 9.06 0 0 0 -.372 1.003a14.332 14.332 0 0 0 -.301 .975a21.81 21.81 0 0 0 -.337 1.426a1.097 1.097 0 0 1 -.037 .186a11.93 11.93 0 0 0 -.157 .993a2.15 2.15 0 0 1 -.037 .244c-.107 .36 -.184 2.662 -.12 3.58c.018 .248 .03 .49 .029 .536c-.007 .182 .187 1.554 .295 2.09c.062 .309 .12 .607 .13 .662c.142 .842 .903 3.09 1.313 3.874a.582 .582 0 0 1 .059 .145c0 .063 .535 1.111 .567 1.111c.018 0 .033 .032 .033 .07c0 .039 .034 .113 .075 .165a.357 .357 0 0 1 .075 .137c0 .022 .017 .04 .038 .04c.02 0 .037 .025 .037 .054c0 .03 .027 .08 .06 .113c.032 .032 .048 .059 .037 .059c-.069 0 1.168 1.847 1.408 2.103c.053 .057 .128 .152 .165 .21c.059 .09 .312 .396 .506 .613l.32 .357c.144 .162 .372 .402 .506 .534c.731 .717 1.126 1.092 1.294 1.226c.103 .082 .23 .189 .281 .236c.091 .084 .784 .612 1.126 .858c.42 .302 1.294 .874 1.335 .874c.011 0 .094 .05 .184 .113c.09 .061 .172 .112 .18 .112c.01 0 .159 .078 .332 .174c1.165 .645 3.478 1.596 4.169 1.712c.046 .008 .11 .025 .14 .038c.399 .164 2.322 .525 3.34 .627c4.897 .49 9.858 -.87 13.88 -3.805c.197 -.143 .366 -.27 .376 -.281c.01 -.012 .221 -.184 .469 -.382a14.815 14.815 0 0 0 .98 -.857c.04 -.001 1.21 -1.222 1.477 -1.54l.283 -.334c.296 -.345 .774 -.976 .74 -.977c-.015 0 -.01 -.013 .013 -.028c.022 -.015 .123 -.145 .223 -.29l.306 -.44c.068 -.098 .113 -.179 .099 -.179c-.014 0 .01 -.037 .052 -.084c.043 -.046 .111 -.143 .152 -.215c.04 -.073 .141 -.241 .223 -.375c.354 -.58 .776 -1.415 1.154 -2.287c.208 -.478 .507 -1.273 .507 -1.346c0 -.035 .02 -.084 .045 -.11c.025 -.024 .031 -.044 .014 -.044s-.012 -.022 .01 -.05c.04 -.047 .407 -1.263 .438 -1.45c.01 -.052 .032 -.157 .05 -.234c.02 -.078 .027 -.14 .016 -.14c-.01 0 -.002 -.022 .02 -.048c.02 -.026 .074 -.246 .119 -.49c.044 -.243 .087 -.463 .095 -.487c.025 -.072 .163 -1.061 .205 -1.47c.147 -1.419 .125 -3.154 -.059 -4.499c-.087 -.639 -.169 -1.156 -.192 -1.218a1.063 1.063 0 0 1 -.036 -.188a11.95 11.95 0 0 0 -.182 -.787c-.092 -.36 -.177 -.698 -.188 -.75a18.904 18.904 0 0 0 -.266 -.862a.48 .48 0 0 1 -.018 -.065c0 -.005 -.06 -.173 -.134 -.375l-.187 -.51a13.759 13.759 0 0 0 -.315 -.765a.946 .946 0 0 1 -.073 -.197a.038 .038 0 0 0 -.037 -.038c-.02 0 -.038 -.026 -.038 -.059c0 -.052 -.64 -1.364 -.712 -1.46a4.492 4.492 0 0 1 -.151 -.262c-.16 -.29 -.39 -.657 -.465 -.74c-.033 -.036 -.06 -.076 -.06 -.089c0 -.027 -.675 -1.014 -.854 -1.248a23.822 23.822 0 0 0 -.478 -.6c-.092 -.112 -.79 -.908 -.843 -.96c-.021 -.02 -.237 -.244 -.48 -.497c-.244 -.252 -.463 -.459 -.488 -.459c-.025 0 -.046 -.015 -.046 -.033c0 -.073 -1.268 -1.13 -1.876 -1.564c-.7 -.5 -1.674 -1.118 -2.07 -1.315a14.602 14.602 0 0 1 -.393 -.21c-.516 -.284 -2.053 -.973 -2.273 -1.018a1.274 1.274 0 0 1 -.16 -.057c-.222 -.093 -.394 -.148 -.394 -.127c0 .012 -.02 .005 -.047 -.015c-.092 -.073 -1.425 -.463 -2.02 -.592c-1.1 -.237 -2.903 -.487 -3.373 -.467a28.17 28.17 0 0 1 -.844 -.022c-.412 -.014 -.759 -.017 -.769 -.006m2.251 .792c1.753 .166 4.201 .751 5.421 1.296c.042 .019 .27 .114 .507 .212c.237 .097 .47 .201 .516 .231c.046 .03 .084 .042 .084 .027c0 -.016 .021 -.01 .047 .01s.296 .167 .601 .324c.305 .158 .664 .354 .798 .435c.134 .082 .252 .15 .262 .15c.01 0 .141 .078 .29 .175l.535 .343c.414 .266 1.315 .933 1.51 1.12c.027 .025 .128 .11 .226 .188c.097 .078 .253 .211 .346 .296c.093 .085 .228 .206 .3 .268a29.253 29.253 0 0 1 1.526 1.57c.065 .07 .107 .127 .093 .127c-.013 0 -.008 .013 .013 .028c.042 .03 .325 .371 .475 .571c.054 .072 .134 .169 .178 .214c.043 .046 .079 .097 .079 .115c0 .018 .032 .067 .072 .11c.166 .178 .948 1.378 1.24 1.905c.428 .768 .87 1.697 1.153 2.418c.092 .237 .186 .473 .208 .525c.021 .051 .043 .112 .048 .135a16.467 16.467 0 0 0 .263 .783c.005 .021 .07 .255 .145 .52c.13 .46 .346 1.38 .38 1.618c.008 .061 .024 .154 .034 .206l.04 .225c.01 .072 .028 .173 .038 .225c.022 .108 .135 1.04 .136 1.125c0 .03 .017 .241 .037 .468c.072 .83 .032 2.585 -.078 3.43a3.48 3.48 0 0 0 -.031 .3c0 .032 -.037 .277 -.082 .545c-.045 .268 -.088 .53 -.095 .58a2.43 2.43 0 0 1 -.034 .188a4.47 4.47 0 0 0 -.039 .188c-.01 .051 -.086 .372 -.172 .712l-.169 .675c-.007 .03 -.092 .292 -.189 .581s-.18 .542 -.185 .562a.98 .98 0 0 1 -.038 .113l-.196 .487c-.091 .227 -.19 .466 -.22 .53a.657 .657 0 0 0 -.053 .153c0 .018 -.143 .316 -.317 .66c-.175 .345 -.316 .631 -.315 .636c.007 .033 -.721 1.253 -.986 1.653c-.121 .182 -.22 .337 -.22 .343a.588 .588 0 0 1 -.074 .1c-.041 .048 -.18 .23 -.31 .403c-.463 .62 -.499 .667 -.554 .722c-.031 .03 -.116 .13 -.188 .219c-.072 .09 -.169 .204 -.215 .254l-.281 .314a24.197 24.197 0 0 1 -1.605 1.56c-.051 .043 -.136 .115 -.187 .16c-2.6 2.235 -6.182 3.836 -9.736 4.351c-2.059 .298 -4.853 .204 -6.701 -.225c-.173 -.04 -.366 -.082 -.428 -.092c-.554 -.092 -2.366 -.688 -3.151 -1.036a12.898 12.898 0 0 0 -.356 -.149a2.785 2.785 0 0 1 -.263 -.117a6.8 6.8 0 0 0 -.321 -.163a19.338 19.338 0 0 1 -3.014 -1.838l-.45 -.337c-1.44 -1.078 -3.371 -3.21 -4.33 -4.782a11.413 11.413 0 0 0 -.139 -.225c-.409 -.634 -1.03 -1.84 -1.39 -2.703c-.21 -.503 -.687 -1.834 -.73 -2.04a8.133 8.133 0 0 0 -.094 -.338a4.824 4.824 0 0 1 -.096 -.375a2.206 2.206 0 0 0 -.055 -.225a24.682 24.682 0 0 1 -.26 -1.274a24.39 24.39 0 0 1 -.168 -1.144l-.039 -.394c-.056 -.551 -.075 -2.142 -.032 -2.756c.06 -.866 .088 -1.192 .107 -1.246c.009 -.026 .024 -.131 .034 -.235c.042 -.435 .275 -1.645 .418 -2.174c.3 -1.11 .679 -2.214 .996 -2.902c.061 -.132 .147 -.326 .19 -.43c.11 -.267 .422 -.881 .638 -1.257c.1 -.173 .181 -.323 .181 -.332a.67 .67 0 0 1 .078 -.126c.042 -.06 .067 -.109 .055 -.109c-.013 0 -.005 -.02 .016 -.046a7 7 0 0 0 .233 -.347c.328 -.512 .565 -.86 .644 -.947c.041 -.046 .065 -.084 .053 -.084c-.013 0 .01 -.038 .048 -.085c.089 -.104 .604 -.767 .655 -.842c.02 -.03 .094 -.117 .164 -.192c.069 -.076 .24 -.272 .382 -.437c.573 -.671 1.874 -1.875 2.628 -2.43c.163 -.12 .297 -.235 .297 -.254c0 -.02 .02 -.035 .046 -.035s.135 -.067 .243 -.148c.528 -.4 1.534 -1.008 2.407 -1.453c1.528 -.78 3.055 -1.316 4.938 -1.736a24.81 24.81 0 0 1 1.914 -.282a8.39 8.39 0 0 0 .614 -.076c.018 -.017 2.789 .015 3.006 .036m-1.688 4.25a2.408 2.408 0 0 0 -.244 .2c-.147 .136 -.604 .447 -.658 .447a1.01 1.01 0 0 0 -.172 .062c-.08 .035 -.18 .07 -.22 .077a3.34 3.34 0 0 0 -.207 .048c-.302 .08 -.84 .115 -1.643 .107c-2.395 -.023 -2.706 .014 -3.4 .405a42.32 42.32 0 0 1 -.284 .158c-.414 .228 -1.133 1.127 -1.141 1.427l-.004 .134l.213 -.007c.222 -.007 .417 -.08 1.12 -.417c.588 -.284 .84 -.235 1.307 .253c.149 .155 .574 .76 .57 .808c-.002 .01 .042 .108 .097 .216c.214 .42 .162 .728 -.255 1.501c-.088 .164 -.107 1.126 -.032 1.62c.022 .145 .048 .329 .057 .409c.057 .485 .513 1.491 .746 1.644c.023 .015 .028 .027 .01 .028c-.017 0 .033 .089 .111 .197a55.182 55.182 0 0 0 1.09 1.446c.028 .028 .05 .061 .05 .076c0 .014 .038 .068 .084 .12c.887 .984 1.004 1.299 1.004 2.701c0 1.318 .015 1.385 .313 1.384c.393 0 .62 -.46 .646 -1.312c.019 -.625 .05 -.871 .17 -1.312c.065 -.237 .159 -.617 .209 -.844c.276 -1.242 .441 -1.763 .79 -2.493c.218 -.454 .322 -.681 .329 -.713a1.32 1.32 0 0 1 .067 -.136c.704 -1.319 1.228 -3.331 1.228 -4.72v-.705l-.26 -.528c-.653 -1.324 -1.176 -2.14 -1.47 -2.292c-.124 -.065 -.105 -.066 -.221 .01m6.58 4.809c-.257 .103 -.285 .292 -.1 .65c.227 .434 .22 .91 -.022 1.413c-.054 .113 -.11 .214 -.121 .225c-.272 .226 -.28 .746 -.014 .82c.554 .153 .978 -.517 1.02 -1.612c.043 -1.136 -.247 -1.705 -.763 -1.496m-2.214 .232c-.06 .045 -.116 .09 -.127 .097c-.01 .009 -.02 .372 -.02 .809c-.004 1.035 -.095 1.434 -.475 2.077c-.303 .512 -.157 .663 .462 .477c.51 -.152 .768 -.092 .81 .189c.007 .041 .056 .255 .109 .474c.169 .7 -.146 1.842 -.733 2.657a6.18 6.18 0 0 0 -.262 .401c-.307 .525 -.4 .399 -.386 -.528c.02 -1.505 -.062 -1.855 -.547 -2.297l-.252 -.23l-.019 -.726l-.019 -.726l-.163 -.328c-.258 -.518 -.424 -.614 -.672 -.387c-.158 .145 -.176 .344 -.075 .828c.089 .42 .029 .813 -.198 1.3c-.261 .562 -.292 .83 -.116 1.006c.198 .198 .372 .103 .683 -.373c.058 -.09 .059 -.09 .176 -.02c.101 .06 .138 .121 .18 .299c.004 .02 .056 .18 .115 .356c.175 .52 .152 1.08 -.077 1.931c-.005 .02 -.03 .085 -.053 .143a.772 .772 0 0 0 -.043 .125c0 .065 -.418 .83 -.586 1.075a2.334 2.334 0 0 0 -.202 .325c0 .018 -.015 .037 -.033 .044c-.027 .011 -.163 .164 -.382 .43c-.067 .082 -.75 .694 -.881 .791c-.177 .13 -.78 .436 -.974 .495a4.094 4.094 0 0 0 -.206 .068a.214 .214 0 0 1 -.08 .017c-.109 -.02 -.842 .224 -.932 .31c-.25 .24 .055 .657 .446 .607c.549 -.071 1.431 -.357 1.72 -.558c.163 -.113 .197 -.122 .421 -.11c.7 .036 1.139 .017 1.726 -.075c.134 -.02 .312 -.046 .394 -.056c.19 -.022 .506 -.118 .943 -.287c.402 -.155 1.024 -.435 1.14 -.513a.99 .99 0 0 1 .15 -.075c.097 -.04 .401 -.248 .563 -.387c.051 -.045 .188 -.152 .303 -.238c.29 -.217 .939 -.986 .833 -.988c-.017 0 -.01 -.014 .016 -.03c.047 -.03 .376 -.708 .399 -.822c.007 -.036 .033 -.117 .058 -.179c.095 -.232 .26 -.878 .338 -1.33c.116 -.662 .111 -.633 .137 -.881c.013 -.124 .03 -.268 .04 -.32c.009 -.051 .026 -.341 .04 -.644l.022 -.551l-.144 -.19c-.08 -.104 -.174 -.198 -.209 -.21a.147 .147 0 0 1 -.084 -.072c-.034 -.09 -.244 -.177 -.363 -.15c-.18 .039 -.21 .258 -.09 .645c.094 .303 .093 .389 -.005 .734c-.089 .313 -.276 .643 -.548 .967c-.606 .723 -.487 1.21 .191 .78c.257 -.162 .45 -.165 .4 -.005a24.6 24.6 0 0 0 -.1 .403l-.088 .375a3.442 3.442 0 0 1 -.137 .346c-.037 .088 -.058 .16 -.047 .16c.012 0 .004 .021 -.018 .047c-.022 .027 -.09 .145 -.153 .264c-.285 .542 -.813 1.017 -1.695 1.526c-.653 .377 -1.288 .688 -1.648 .806c-.377 .125 -1.2 .074 -1.2 -.074c0 -.136 .222 -.335 .675 -.603c.403 -.24 .406 -.242 .675 -.446c1.723 -1.31 2.6 -2.985 2.384 -4.557c-.054 -.393 -.094 -.568 -.142 -.628c-.02 -.026 -.028 -.047 -.016 -.047c.03 0 -.06 -.21 -.295 -.694l-.2 -.412l-.024 -.938c-.025 -1.026 -.03 -1.071 -.14 -1.325c-.173 -.401 -.453 -.553 -.69 -.374m-15.453 2.357c-1.327 .07 -1.86 .343 -2.625 1.348c-.236 .31 -1.286 1.363 -1.558 1.562c-.216 .158 -.928 .613 -.96 .613c-.056 0 -.7 .466 -.75 .543c-.138 .21 -.267 .987 -.276 1.661c-.01 .784 .201 .868 .842 .332c.144 -.12 .351 -.276 .46 -.346c.196 -.127 .596 -.308 .778 -.353c.02 -.005 .08 -.025 .131 -.045c.127 -.049 .17 -.058 .72 -.143c.998 -.156 1.765 -.082 3.103 .3c1.234 .353 1.778 .435 2.27 .343c.22 -.042 1.141 -.435 1.195 -.51c.015 -.021 .027 -.027 .028 -.013c0 .028 .418 -.152 .45 -.193c.124 -.16 .942 -.238 1.37 -.133c.567 .14 .784 .332 1.053 .928c.137 .305 .338 .533 .606 .686c.64 .368 1.27 .646 1.373 .606c.077 -.03 -.188 -1.143 -.282 -1.182c-.017 -.007 -.03 -.033 -.03 -.058c0 -.04 -.205 -.35 -.264 -.398a.223 .223 0 0 1 -.044 -.075a3.978 3.978 0 0 0 -.263 -.379c-.94 -1.256 -1.283 -1.805 -1.458 -2.333a9.837 9.837 0 0 0 -.146 -.42a2.718 2.718 0 0 1 -.081 -.252c-.027 -.098 -.062 -.178 -.078 -.178c-.017 0 -.03 -.023 -.03 -.05c0 -.535 -1.579 -1.45 -2.851 -1.654c-.072 -.012 -.182 -.03 -.244 -.042a9.572 9.572 0 0 0 -1.182 -.15c-.216 -.01 -.478 -.025 -.581 -.03a9.353 9.353 0 0 0 -.676 .015m21.024 3.071c-.414 .076 -.67 .265 -.942 .696c-.162 .257 -.258 .472 -.685 1.537c-.116 .289 -.227 .55 -.246 .581a6.752 6.752 0 0 0 -.24 .487c-.01 .045 -.441 .7 -.573 .872c-.998 1.303 -3.181 2.315 -4.99 2.315c-.647 0 -.696 .016 -.512 .161c.055 .043 .247 .206 .427 .362c.453 .391 .48 .41 .713 .52c.289 .136 .556 .125 1.238 -.05c.789 -.202 1.289 -.21 2.1 -.034c1.373 .298 1.656 .307 2.327 .073c.73 -.255 1.254 -.35 1.975 -.36c1.27 -.018 3.673 -2.162 3.648 -3.255c-.003 -.143 .033 -.35 .108 -.607l.162 -.566c.145 -.518 .725 -.841 1.122 -.625c.095 .051 .57 .26 .805 .355c.123 .05 .238 .076 .255 .058c.044 -.044 .084 -.807 .047 -.893a.776 .776 0 0 1 -.04 -.116a9.584 9.584 0 0 0 -.113 -.375a1.97 1.97 0 0 1 -.107 -.617c-.004 -.43 .008 -.423 -.782 -.423c-.355 0 -.849 .014 -1.096 .032c-.977 .07 -1.668 .05 -2.645 -.071c-.552 -.069 -1.708 -.103 -1.956 -.057m-8.657 .479c-.188 .092 -.24 .25 -.253 .779c-.016 .637 -.06 .97 -.14 1.068a1.11 1.11 0 0 0 -.098 .16c-.029 .058 -.162 .193 -.297 .3c-.612 .49 -.692 .652 -.384 .785c.635 .275 1.366 -.365 1.66 -1.453c.11 -.405 .123 -1.207 .023 -1.318c-.036 -.04 -.057 -.082 -.046 -.093c.022 -.022 -.266 -.293 -.31 -.292a.795 .795 0 0 0 -.155 .064m-9.014 3.401a9.53 9.53 0 0 1 -.67 .038c-.777 .03 -.834 .042 -1.37 .307c-.654 .324 -.71 .387 -.81 .93l-.082 .447l-.192 .19a15.03 15.03 0 0 1 -.379 .362c-.34 .31 -.994 1.086 -.994 1.178a.341 .341 0 0 1 -.074 .102c-.042 .044 -.15 .225 -.241 .402c-.495 .959 -.558 1.59 -.23 2.31c.107 .232 .21 .53 .228 .654c.056 .382 0 1.168 -.114 1.594c-.353 1.322 -.084 2.042 .806 2.157c.35 .045 1.24 -.082 1.38 -.197c.025 -.021 .046 -.03 .046 -.018s.266 -.07 .59 -.183c.627 -.215 .758 -.233 1.267 -.168c.886 .112 1.795 -.26 2.505 -1.028c.19 -.205 .46 -.49 .599 -.633l.252 -.26l.442 .028c.243 .015 .484 .033 .535 .038c.298 .031 .613 -.334 1.05 -1.217c.349 -.702 .783 -1.182 1.29 -1.424c.624 -.297 1.09 -.358 1.59 -.205c.083 .025 .085 .019 .085 -.272c0 -.33 -.081 -.506 -.342 -.747c-.117 -.108 -.25 -.19 -1.03 -.643c-.598 -.347 -.715 -.548 -.75 -1.286c-.03 -.616 -.078 -.743 -.41 -1.102c-.43 -.464 -1.791 -1.038 -3.058 -1.292c-.354 -.07 -1.857 -.12 -1.919 -.062m7.182 2.795c-.264 .111 -.163 .51 .191 .748c.905 .612 1.295 1.754 1.018 2.984a2.246 2.246 0 0 1 -.117 .313c-.18 .412 -.176 .666 .015 1.036c.11 .213 .117 .236 .152 .469c.028 .186 -.03 .767 -.084 .856c-.184 .297 -.264 1.43 -.13 1.85c.2 .633 1.11 2.187 1.646 2.806c.063 .073 .143 .177 .18 .232c.327 .5 1.659 1.767 1.9 1.808a.59 .59 0 0 1 .125 .054c.16 .087 .734 .135 1.078 .089c.476 -.064 .642 -.18 1.007 -.707a3.29 3.29 0 0 1 .267 -.351c.032 -.026 .057 -.06 .057 -.077c0 -.048 .41 -.443 .694 -.667c.573 -.452 .86 -.791 1.124 -1.323c.627 -1.269 .62 -1.81 -.043 -3.483c-.036 -.091 -.011 -.337 .064 -.637c.148 -.589 -.177 -2.985 -.449 -3.308a4.492 4.492 0 0 1 -.118 -.151c-.083 -.111 -.409 -.35 -.41 -.302c0 .017 -.013 .012 -.028 -.011c-.188 -.282 -1.69 -.22 -2.241 .093a.268 .268 0 0 1 -.075 .027c-.02 .003 -.22 .052 -.442 .108c-.728 .182 -1.302 .089 -1.771 -.289l-.188 -.145c-.083 -.064 -.327 -.28 -.544 -.481c-.706 -.655 -.733 -.679 -1.073 -.923c-.657 -.471 -1.482 -.754 -1.805 -.618"/></svg>