<svg xmlns="http://www.w3.org/2000/svg" width="48" height="48" viewBox="0 0 48 48" fill="currentColor"><path d="M30.53 40.229c.433 .09 .806 .544 .883 .969c.065 .362 -.023 .653 -.234 .909c-.191 .23 -.409 .45 -.704 .56c-.069 .026 -.13 .074 -.192 .112c-.034 0 -.05 .025 -.047 .052c.005 .008 .034 .01 .053 -.002c.32 .004 .643 -.04 .96 .019c.336 .06 .67 .14 .903 .414c.295 .348 .398 .764 .306 1.2c-.13 .613 -.582 .96 -1.13 1.18c-.533 .214 -1.094 .348 -1.644 .505c-.475 .136 -.955 .251 -1.43 .391c-.297 .088 -.599 .147 -.898 .214c-.161 .036 -.163 .03 -.18 -.124c-.023 -.2 -.002 -.247 .192 -.303c.126 -.038 .247 -.08 .36 -.142c.08 -.044 .124 -.11 .099 -.208c-.057 -.243 -.099 -.49 -.17 -.728c-.11 -.377 -.194 -.758 -.301 -1.135c-.111 -.387 -.214 -.779 -.325 -1.168c-.106 -.381 -.217 -.762 -.326 -1.143a3.56 3.56 0 0 0 -.042 -.14c-.048 -.143 -.06 -.147 -.18 -.03c-.046 .046 -.094 .048 -.15 .046c-.126 -.006 -.252 -.023 -.376 -.016c-.255 .01 -.366 .155 -.343 .416c.004 .042 -.002 .084 -.006 .124c-.082 .875 -.157 1.75 -.247 2.623c-.027 .276 -.048 .555 -.076 .831c-.02 .216 -.033 .44 -.027 .66c.004 .182 .038 .228 .226 .267c.157 .034 .316 .053 .476 .07c.08 .008 .115 .035 .092 .117c-.002 .006 -.002 .014 -.002 .02c-.028 .29 -.04 .29 -.323 .273c-.433 -.025 -.862 -.088 -1.294 -.122c-.43 -.033 -.86 -.08 -1.291 -.117c-.239 -.02 -.239 -.019 -.243 -.26c-.004 -.207 -.004 -.207 .207 -.188c.126 .01 .25 .023 .375 .03c.163 .006 .222 -.045 .253 -.202c.086 -.437 .128 -.88 .166 -1.325c.014 -.16 .083 -.324 .012 -.49c.111 -.165 .048 -.355 .082 -.533c.033 -.178 .042 -.36 .054 -.54c.006 -.095 .053 -.191 -.008 -.285c-.013 -.017 0 -.055 .006 -.08c.109 -.356 .08 -.724 .082 -1.101c-.103 .19 -.216 .375 -.304 .572c-.272 .602 -.536 1.21 -.802 1.815c-.127 .288 -.253 .58 -.385 .868c-.203 .446 -.408 .89 -.615 1.334a.996 .996 0 0 1 -.084 .144c-.08 .118 -.14 .134 -.287 .105c-.115 -.023 -.14 -.094 -.163 -.2c-.046 -.217 -.088 -.436 -.195 -.633c-.044 -.082 -.01 -.176 -.04 -.264c-.085 -.268 -.131 -.55 -.217 -.818c-.128 -.398 -.185 -.813 -.298 -1.213a22.71 22.71 0 0 1 -.307 -1.237c-.034 -.146 -.099 -.28 -.132 -.425c-.03 -.12 -.02 -.245 -.073 -.36c-.021 -.042 -.024 -.094 -.074 -.142c-.031 .318 -.067 .624 -.094 .931c-.082 .911 -.16 1.82 -.239 2.73c-.012 .153 -.025 .306 .007 .459c.065 .318 .23 .536 .563 .611c.19 .042 .255 .18 .199 .373c-.021 .075 -.076 .07 -.132 .067c-.21 -.015 -.417 -.03 -.626 -.049l-1.25 -.113l-.063 -.004c-.226 -.023 -.3 -.134 -.245 -.362c.017 -.067 .065 -.065 .111 -.073c.103 -.021 .208 -.03 .308 -.053a.517 .517 0 0 0 .368 -.295c.147 -.293 .193 -.6 .224 -.915c.063 -.596 .122 -1.193 .174 -1.79c.04 -.452 .073 -.904 .107 -1.354c.006 -.069 .01 -.14 .01 -.21c-.002 -.19 -.041 -.2 -.221 -.263a1.408 1.408 0 0 0 -.463 -.082c-.065 0 -.084 -.04 -.078 -.096l.003 -.021c.014 -.318 .014 -.322 .334 -.3a37 37 0 0 1 2.019 .206c.171 .02 .278 .081 .324 .268c.178 .722 .373 1.438 .559 2.158l.17 .66l.108 .435c.047 .01 .072 -.013 .09 -.044c.032 -.054 .063 -.109 .088 -.165c.147 -.31 .268 -.63 .41 -.94c.12 -.262 .229 -.534 .371 -.787c.05 -.09 .107 -.18 .11 -.291c0 -.038 .024 -.063 .041 -.093c.149 -.276 .293 -.552 .385 -.854c.017 -.054 .048 -.081 .105 -.08c.09 .003 .182 -.008 .272 .005c.387 .054 .78 .042 1.168 .1c.212 .032 .413 .003 .618 -.054c1.057 -.297 2.112 -.595 3.173 -.877c.453 -.12 .915 -.1 1.37 -.004zm-13.4 -.99c.024 .012 .043 .037 .068 .041c.103 .02 .222 .038 .277 .124c.03 .048 .033 .107 .027 .169l-.01 .093a.782 .782 0 0 0 -.003 .046c-.004 .146 -.014 .293 -.02 .44c-.068 1.484 -.185 2.966 -.233 4.45c-.004 .12 .006 .239 -.006 .356c-.03 .266 .088 .454 .287 .609c.127 .098 .127 .12 .064 .268a.815 .815 0 0 1 -.033 .075c-.071 .136 -.07 .132 -.203 .055a1.66 1.66 0 0 0 -.304 -.14a2.964 2.964 0 0 1 -.515 -.243a3.302 3.302 0 0 0 -.699 -.319c-.239 -.069 -.431 -.24 -.655 -.343l-.092 -.05c-.16 -.08 -.174 -.124 -.07 -.255c.026 -.032 .057 -.061 .078 -.097c.044 -.075 .099 -.088 .174 -.044c.048 .03 .098 .055 .15 .074c.197 .07 .308 .018 .365 -.183c.031 -.106 .048 -.217 .06 -.328c.026 -.216 .04 -.432 .063 -.645c.009 -.082 -.025 -.124 -.094 -.163c-.125 -.076 -.272 -.097 -.404 -.157c-.2 -.092 -.383 -.216 -.576 -.32c-.217 -.12 -.477 -.139 -.67 -.31c-.052 -.047 -.131 -.026 -.188 .033c-.134 .142 -.28 .274 -.393 .433c-.185 .26 -.155 .515 .077 .729c.063 .056 .132 .102 .197 .157c.113 .094 .113 .174 .004 .345c-.046 .074 -.138 .105 -.232 .032c-.195 -.149 -.46 -.143 -.645 -.31a.233 .233 0 0 0 -.094 -.044c-.4 -.12 -.733 -.377 -1.114 -.532c-.094 -.038 -.12 -.092 -.073 -.172c.119 -.217 .065 -.255 .35 -.221c.347 .04 .638 -.093 .906 -.285c.23 -.168 .444 -.358 .66 -.547c.12 -.104 .25 -.205 .368 -.314c.184 -.173 .38 -.332 .569 -.502c.144 -.13 .301 -.257 .446 -.387c.182 -.164 .373 -.32 .553 -.49c.136 -.128 .28 -.256 .433 -.369a.442 .442 0 0 0 .048 -.04c.239 -.234 .509 -.435 .758 -.659c.123 -.11 .199 -.13 .343 -.06zm12.715 4.034a4.68 4.68 0 0 0 -.953 .215c-.152 .048 -.163 .07 -.123 .228c.142 .578 .289 1.154 .437 1.73c.047 .175 .164 .253 .392 .25c.412 -.06 .833 -.206 1.16 -.543a.845 .845 0 0 0 .23 -.77a1.697 1.697 0 0 0 -.35 -.788a.863 .863 0 0 0 -.793 -.322zm3.829 -5.098c.002 .006 .008 .01 .013 .017c.165 .276 .148 .28 -.097 .412c-.13 .071 -.253 .147 -.343 .266c-.046 .06 -.055 .107 -.019 .184c.08 .178 .178 .344 .274 .513c.599 1.062 1.19 2.13 1.83 3.168c.05 .083 .103 .167 .161 .245c.094 .123 .184 .148 .306 .06c.11 -.081 .236 -.117 .362 -.163c.15 -.054 .176 -.042 .243 .094c.008 .019 .012 .04 .02 .059c.068 .15 .068 .15 -.077 .236c-.176 .1 -.351 .201 -.527 .3l-1.583 .896a2.264 2.264 0 0 1 -.377 .171c-.063 .021 -.104 .02 -.136 -.046c-.027 -.056 -.073 -.104 -.094 -.16c-.027 -.072 -.013 -.137 .07 -.168c.183 -.072 .317 -.206 .453 -.344c.055 -.054 .049 -.07 .025 -.13c-.125 -.322 -.31 -.61 -.481 -.91c-.13 -.226 -.247 -.465 -.375 -.695c-.345 -.614 -.697 -1.223 -1.049 -1.834a3.178 3.178 0 0 0 -.326 -.486c-.136 -.157 -.216 -.171 -.4 -.08c-.142 .063 -.276 .137 -.419 .212c-.249 -.345 -.25 -.35 .099 -.548c.732 -.42 1.465 -.836 2.198 -1.252c.035 -.021 .071 -.044 .109 -.061c.058 -.03 .109 -.02 .14 .044zm-4.526 2.58a2.213 2.213 0 0 0 -.83 .177c-.16 .073 -.23 .172 -.21 .325a5.2 5.2 0 0 0 .102 .544c.077 .306 .17 .607 .255 .91c.028 .095 .061 .187 .08 .281c.019 .09 .067 .117 .149 .096c.312 -.081 .615 -.175 .898 -.343c.358 -.213 .496 -.528 .48 -.925a1.67 1.67 0 0 0 -.137 -.538a.802 .802 0 0 0 -.787 -.528zm-16.915 -4.508c.159 .031 .299 .126 .469 .12c.018 0 .037 .014 .058 .022c.484 .212 .898 .511 1.237 .917c.2 .237 .317 .515 .423 .798c.044 .12 .105 .163 .229 .146c.11 -.014 .221 -.006 .334 -.01c.099 -.002 .17 .046 .24 .11c.072 .07 .074 .145 .033 .227a.78 .78 0 0 1 -.086 .12c-.408 .493 -.819 .987 -1.23 1.481a.944 .944 0 0 0 -.045 .063c-.34 -.178 -.356 -.192 -.23 -.53c.108 -.29 .194 -.588 .245 -.89c.064 -.393 .085 -.799 -.168 -1.155a1.72 1.72 0 0 0 -.592 -.55c-.446 -.241 -.863 -.193 -1.284 .033c-.542 .291 -.977 .712 -1.381 1.17c-.291 .331 -.549 .69 -.741 1.085c-.197 .408 -.256 .86 -.099 1.279c.147 .387 .46 .695 .85 .856a1.749 1.749 0 0 0 1.537 -.063c.146 -.075 .297 -.14 .435 -.23c.099 -.065 .184 -.044 .25 .048c.043 .063 .087 .124 .093 .208c.005 .067 -.002 .115 -.067 .159a3.434 3.434 0 0 1 -1.097 .506c-.11 .027 -.234 .01 -.351 .01c-.258 0 -.524 .007 -.756 -.104c-.243 -.115 -.492 -.23 -.7 -.406c-.144 -.122 -.278 -.126 -.43 -.031c-.038 .016 -.078 .029 -.105 .041c.1 .107 .203 .21 .297 .32c.226 .27 .205 .606 -.048 .844a.577 .577 0 0 1 -.521 .151c-.285 -.05 -.52 -.197 -.727 -.39a2.626 2.626 0 0 1 -.477 -.588c.002 -.052 .048 -.05 .075 -.062c.201 -.105 .203 -.105 .337 .07c.107 .141 .233 .26 .388 .346c.13 .071 .146 .067 .261 -.05a.754 .754 0 0 1 .063 -.052c.109 -.095 .124 -.185 .038 -.304c-.09 -.128 -.214 -.224 -.35 -.341c.203 -.086 .388 -.161 .568 -.24c.134 -.062 .146 -.085 .048 -.191a3.61 3.61 0 0 1 -.362 -.47l-.164 -.246c-.098 -.147 -.142 -.337 -.186 -.513a2.779 2.779 0 0 1 -.065 -1.037c.025 -.215 .082 -.427 .161 -.617c.132 -.318 .306 -.624 .532 -.894c.084 -.1 .136 -.226 .24 -.312c.365 -.297 .73 -.584 1.18 -.754c.544 -.205 1.084 -.211 1.64 -.1zm3.801 4.42a22.5 22.5 0 0 0 -1.549 1.36c.478 .255 .926 .48 1.41 .668c.123 -.685 .125 -1.353 .14 -2.029zm22.07 -5.264a2.787 2.787 0 0 1 1.515 .704c.354 .316 .651 .678 .819 1.13c.195 .523 .322 1.057 .213 1.623c-.041 .215 -.02 .249 .185 .362c.24 .134 .487 .247 .768 .278a.432 .432 0 0 0 .343 -.102c.084 -.07 .128 -.178 .061 -.25c-.105 -.108 -.082 -.28 -.207 -.372c-.038 -.027 -.027 -.08 .002 -.113c.06 -.067 .123 -.134 .19 -.193c.044 -.038 .09 -.044 .14 .015c.604 .718 .386 1.719 -.454 2.154c-.502 .262 -.94 .167 -1.354 -.172c-.075 -.058 -.147 -.125 -.239 -.207c-.067 .078 -.12 .142 -.176 .203c-.665 .737 -1.492 1.097 -2.489 1.04a3.19 3.19 0 0 1 -1.116 -.299c-.19 -.086 -.358 -.23 -.53 -.356c-.133 -.098 -.284 -.175 -.38 -.316c-.149 -.217 -.312 -.423 -.446 -.653c-.3 -.51 -.373 -1.065 -.373 -1.645c0 -.407 .149 -.769 .295 -1.125c.1 -.242 .279 -.458 .459 -.661c.301 -.335 .655 -.61 1.06 -.8c.26 -.123 .54 -.226 .837 -.245c.293 -.019 .588 -.037 .877 0zm-.105 4.371a.9 .9 0 0 0 .502 .806c.14 .063 .29 .076 .43 .034c.305 -.09 .533 -.291 .711 -.549c.082 -.119 .065 -.232 -.033 -.34a2.85 2.85 0 0 0 -.465 -.42c-.102 -.073 -.22 -.115 -.339 -.159c-.312 -.115 -.84 .25 -.806 .628zm-2.196 -3.261a1.098 1.098 0 0 0 -.366 .87c.006 .145 -.007 .298 .046 .432c.109 .276 .253 .538 .425 .78a7.342 7.342 0 0 0 1.626 1.644c.053 .038 .103 .09 .174 .088c.027 -.073 -.019 -.117 -.036 -.167a1.153 1.153 0 0 1 .026 -.821c.278 -.664 .969 -.948 1.685 -.733c.048 .017 .105 .013 .172 .021c.012 -.084 -.028 -.128 -.06 -.171c-.596 -.825 -1.23 -1.608 -2.178 -2.067a2.762 2.762 0 0 0 -.551 -.188c-.37 -.092 -.705 .077 -.963 .312zm-28.239 -5.305c1.2 .048 2.092 .613 2.659 1.662c.326 .603 .46 1.254 .329 1.943c-.17 .888 -.641 1.566 -1.395 2.051a2.963 2.963 0 0 1 -1.999 .463a2.927 2.927 0 0 1 -1.26 -.463c-.444 -.282 -.762 -.674 -1.032 -1.117a2.306 2.306 0 0 1 -.314 -.794a2.668 2.668 0 0 1 -.044 -.73c-.021 -.314 .031 -.618 .096 -.917c.031 -.149 .115 -.279 .184 -.413c.153 -.293 .358 -.548 .582 -.785a2.55 2.55 0 0 1 .777 -.548c.448 -.212 .915 -.37 1.417 -.352zm25.756 -20.162c.448 .345 .882 .705 1.298 1.088a15.493 15.493 0 0 1 1.654 1.774c.31 .389 .6 .795 .867 1.22c.36 .574 .684 1.166 .973 1.777a14.828 14.828 0 0 1 1.158 3.526c.199 1.038 .305 2.085 .285 3.14c-.04 2 -.425 3.927 -1.2 5.776c-.142 .341 -.302 .674 -.463 1.007c-.25 .519 -.552 1.01 -.85 1.503c-.17 .283 -.391 .542 -.596 .806a17.153 17.153 0 0 1 -1.81 1.99a15.241 15.241 0 0 1 -2.306 1.789c-.475 .299 -.381 .272 -.714 -.113l-.366 -.419l-.738 -.832c-.246 -.279 -.488 -.56 -.724 -.847c-.18 -.22 -.374 -.43 -.56 -.643c-.032 -.037 -.063 -.075 -.114 -.09c-.075 -.192 -.077 -.195 .122 -.297a10.394 10.394 0 0 0 2.116 -1.45c.346 -.31 .67 -.641 .993 -.976c1.032 -1.08 1.72 -2.358 2.248 -3.735c.13 -.34 .207 -.695 .291 -1.049c.073 -.31 .153 -.618 .203 -.932c.121 -.753 .14 -1.511 .1 -2.273a10.427 10.427 0 0 0 -.734 -3.354a14.497 14.497 0 0 0 -.82 -1.668c-.013 -.023 -.022 -.053 -.076 -.053c-.025 .136 -.055 .277 -.076 .419c-.08 .584 -.33 1.101 -.605 1.612c-.31 .578 -.728 1.072 -1.176 1.543c-1.371 1.438 -2.79 2.83 -4.191 4.24c-.01 .01 -.021 .018 -.03 .028c-.062 .084 -.125 .103 -.196 .007c-.026 -.034 -.059 -.061 -.088 -.09l-1.436 -1.436a642.98 642.98 0 0 1 -1.194 -1.196c-.144 -.144 -.144 -.146 -.002 -.289c.913 -.91 1.83 -1.819 2.74 -2.734c.438 -.44 .86 -.894 1.3 -1.333c.434 -.434 .731 -.947 .943 -1.516a7.074 7.074 0 0 0 .393 -1.79c.032 -.32 .048 -.638 .044 -.96c-.002 -.093 .04 -.158 .09 -.227c.086 -.12 .214 -.199 .29 -.326c.185 -.113 .328 -.281 .472 -.438a3.02 3.02 0 0 1 .314 -.295c.226 -.184 .44 -.387 .628 -.611c.036 -.042 .07 -.088 .113 -.12c.277 -.192 .503 -.433 .723 -.686c.142 -.164 .303 -.308 .458 -.459c.105 -.1 .13 -.102 .25 -.008zm-17.93 .102c.406 .373 .806 .75 1.208 1.129c.43 .408 .858 .818 1.287 1.226c.04 .05 .08 .103 .144 .118c.08 .125 .201 .211 .308 .312a.312 .312 0 0 1 .11 .236c.01 .369 .018 .74 .051 1.108c.107 1.105 .453 2.12 1.125 3.014c.085 .115 .182 .218 .283 .32l.202 .2c.105 .104 .105 .108 0 .213c-.91 .915 -1.823 1.828 -2.734 2.738c-.104 .105 -.109 .103 -.215 0a7.829 7.829 0 0 1 -.79 -.912l-.243 -.32a7.092 7.092 0 0 1 -.998 -1.76a3.998 3.998 0 0 1 -.239 -1.07c-.08 .043 -.104 .112 -.136 .168c-.684 1.181 -1.17 2.437 -1.386 3.787c-.157 .98 -.17 1.968 -.065 2.96c.128 1.198 .44 2.339 .95 3.426a11.129 11.129 0 0 0 3.12 3.952a12.01 12.01 0 0 0 1.807 1.206c.077 .042 .161 .08 .245 .12c-.009 .095 -.113 .129 -.128 .213c-.132 .083 -.224 .209 -.32 .326c-.457 .553 -.96 1.066 -1.418 1.616c-.284 .342 -.58 .675 -.879 1.003c-.027 .032 -.06 .059 -.086 .09c-.069 .082 -.123 .086 -.226 .025a14.74 14.74 0 0 1 -2.31 -1.685c-.359 -.316 -.692 -.668 -1.023 -1.015a15.28 15.28 0 0 1 -1.243 -1.487c-.352 -.475 -.666 -.98 -.948 -1.503c-.206 -.379 -.444 -.743 -.601 -1.14c-.29 -.731 -.603 -1.451 -.8 -2.218c-.211 -.824 -.39 -1.653 -.473 -2.501a15.366 15.366 0 0 1 -.063 -2.464c.067 -1.083 .232 -2.146 .51 -3.193c.212 -.795 .49 -1.568 .84 -2.315c.384 -.823 .804 -1.623 1.33 -2.368c.35 -.496 .718 -.978 1.12 -1.432c.3 -.339 .613 -.664 .938 -.978a14.44 14.44 0 0 1 1.358 -1.161c.197 -.15 .208 -.15 .388 .016zm24.979 17.966a.603 .603 0 0 1 .224 .11c.033 .024 .054 .052 .027 .104c-.025 .046 -.019 .109 -.031 .161c-.092 .385 .014 .658 .345 .871c.075 .048 .157 .092 .237 .136c.544 .306 1.107 .582 1.66 .873c.264 .138 .525 .287 .787 .431c.712 .396 .99 1.269 .82 1.972a4.573 4.573 0 0 1 -.797 1.68a2.048 2.048 0 0 1 -.814 .67c-.229 .1 -.471 .144 -.765 .131c-.108 .025 -.234 -.042 -.366 -.092c-.649 -.247 -1.252 -.592 -1.874 -.894c-.437 -.211 -.862 -.446 -1.308 -.64a2.577 2.577 0 0 0 -.268 -.099c-.136 -.04 -.213 -.004 -.297 .13c-.071 .113 -.128 .232 -.203 .341c-.071 .107 -.138 .115 -.241 .05c-.199 -.127 -.216 -.157 -.126 -.295c.059 -.09 .059 -.194 .116 -.284c.209 -.342 .385 -.702 .571 -1.056c.107 -.2 .174 -.418 .283 -.617c.104 -.193 .24 -.369 .326 -.572c.027 -.065 .061 -.067 .13 -.035c.291 .13 .293 .13 .161 .416c-.033 .074 -.073 .145 -.088 .229c-.037 .232 -.019 .303 .18 .412c.319 .174 .641 .335 .961 .505a42.88 42.88 0 0 0 1.834 .914c.161 .076 .314 .162 .492 .197c.436 .088 .798 -.038 1.09 -.362c.191 -.214 .327 -.459 .4 -.741c.036 -.132 .099 -.256 .097 -.396c-.004 -.326 -.084 -.609 -.337 -.854c-.214 -.21 -.463 -.352 -.708 -.504c-.454 -.283 -.963 -.453 -1.427 -.716a8.423 8.423 0 0 0 -.777 -.392c-.094 -.04 -.19 -.086 -.289 -.107c-.19 -.04 -.356 .032 -.5 .157c-.086 .074 -.14 .174 -.214 .256c-.098 .11 -.12 .113 -.249 .044c-.038 -.02 -.071 -.044 -.107 -.065c-.069 -.038 -.08 -.086 -.044 -.155c.074 -.142 .14 -.289 .214 -.431c.155 -.302 .314 -.603 .437 -.917c.072 -.18 .201 -.325 .283 -.496c.036 -.074 .092 -.084 .155 -.07zm-31.674 3.222a2.428 2.428 0 0 0 -.59 .11c-.756 .238 -1.433 .631 -2.067 1.1a3.268 3.268 0 0 0 -.425 .37c-.21 .219 -.387 .46 -.477 .752c-.21 .677 .27 1.432 .97 1.53c.317 .045 .625 -.018 .924 -.112a6.319 6.319 0 0 0 2.423 -1.434c.177 -.168 .326 -.362 .43 -.586c.09 -.193 .147 -.396 .112 -.61c-.103 -.611 -.536 -1.095 -1.3 -1.12zm-1.286 -8.756c.034 .067 .07 .132 .082 .21c.046 .276 .113 .548 .146 .827c.028 .22 .101 .427 .11 .653c.006 .2 .06 .402 .104 .6c.046 .21 .042 .235 -.153 .342c-.848 .469 -1.698 .934 -2.545 1.4c-.157 .086 -.31 .178 -.467 .268c.127 .122 .29 .115 .43 .134c.403 .059 .794 .164 1.196 .212c.388 .046 .77 .115 1.156 .178l.69 .121c.076 .013 .108 .055 .122 .122c.044 .224 .09 .445 .132 .67c.044 .234 .088 .47 .128 .707c.056 .341 .104 .685 .159 1.026c.015 .096 -.021 .146 -.12 .153l-.041 .002c-.25 .016 -.264 .006 -.293 -.247c-.01 -.097 -.044 -.187 -.053 -.285c-.01 -.126 -.081 -.18 -.228 -.201c-.176 -.025 -.35 .008 -.521 .034c-.329 .05 -.66 .096 -.988 .157c-.553 .1 -1.11 .175 -1.663 .278c-.345 .065 -.69 .128 -1.038 .184a2.13 2.13 0 0 0 -.205 .042c-.262 .063 -.262 .065 -.235 .337c.013 .138 .02 .279 .028 .417c.006 .109 -.067 .142 -.153 .16c-.12 .028 -.22 -.003 -.245 -.091c-.048 -.16 -.115 -.314 -.105 -.49c.004 -.094 .009 -.199 -.077 -.27c.014 .008 .031 .006 .033 -.01c.004 -.028 -.019 -.032 -.04 -.034c.068 -.084 .02 -.147 -.035 -.207c.015 .008 .031 .006 .033 -.01c.005 -.028 -.018 -.032 -.04 -.034c.04 -.032 .034 -.071 .024 -.113c-.12 -.538 -.178 -1.085 -.256 -1.63c-.025 -.173 -.027 -.173 .149 -.213l.059 -.02c.14 -.028 .165 -.011 .198 .131c.028 .11 .049 .22 .074 .329c.05 .234 .127 .297 .353 .266c.4 -.052 .798 -.115 1.198 -.168c.425 -.054 .844 -.148 1.27 -.2c.34 -.042 .677 -.12 1.014 -.176c.236 -.04 .475 -.078 .714 -.113a.315 .315 0 0 0 .155 -.08c-.243 -.006 -.452 -.12 -.685 -.09c-.046 .006 -.075 -.031 -.11 -.044c-.064 -.025 -.133 -.057 -.198 -.002l-.014 -.004c-.048 -.063 -.122 -.063 -.189 -.067c-.358 -.032 -.71 -.113 -1.063 -.172c-.212 -.036 -.427 -.027 -.639 -.08c-.163 -.04 -.335 -.035 -.494 -.106c-.048 -.021 -.106 -.036 -.155 .01c.007 -.002 -.008 -.004 -.008 -.004c-.071 -.063 -.147 -.092 -.237 -.038l-.014 -.004c-.071 -.063 -.147 -.092 -.237 -.038l-.014 -.004c-.193 -.065 -.398 -.077 -.597 -.109c-.218 -.035 -.42 -.125 -.643 -.142c-.058 -.004 -.081 -.046 -.09 -.098c-.006 -.048 -.008 -.097 -.019 -.145c-.027 -.134 .028 -.2 .151 -.268c.64 -.354 1.281 -.707 1.924 -1.057c.724 -.394 1.444 -.791 2.169 -1.183c.117 -.063 .237 -.124 .345 -.202l.072 -.057l-.005 -.003l.01 -.017l-.003 -.001c-.22 .012 -.436 .08 -.654 .092c-.228 .012 -.441 .092 -.67 .11c-.332 .028 -.661 .116 -.992 .177c-.207 .037 -.414 .069 -.62 .106c-.353 .065 -.713 .11 -1.059 .22a.594 .594 0 0 0 -.435 .532c-.01 .096 -.015 .195 -.02 .291c-.003 .084 -.037 .13 -.125 .132c-.048 0 -.098 0 -.146 .006c-.078 .01 -.105 -.031 -.132 -.098c-.092 -.233 -.113 -.475 -.149 -.718c-.04 -.287 -.102 -.57 -.148 -.854c-.028 -.17 -.044 -.344 -.065 -.515c-.005 -.03 0 -.07 .025 -.074c.121 -.023 .247 -.086 .364 -.031c.052 .025 .073 .121 .1 .19c.132 .344 .308 .47 .673 .476c.138 .002 .275 -.012 .412 -.03l.274 -.04c.436 -.06 .873 -.119 1.307 -.196c.65 -.115 1.302 -.224 1.946 -.37c.279 -.064 .296 -.09 .277 -.386c-.006 -.12 -.01 -.237 -.025 -.356c-.013 -.096 .035 -.126 .117 -.13c.056 -.002 .117 .057 .174 -.012c.014 -.017 .044 .004 .058 .035zm23.581 -.062c.251 .198 .48 .42 .706 .646l1.804 1.806c.138 .138 .16 .115 .002 .272l-3.123 3.084a10.95 10.95 0 0 1 -.98 .873c-.636 .494 -1.373 .689 -2.083 .705a3.32 3.32 0 0 1 -1.11 -.171c-.519 -.17 -.94 -.482 -1.35 -.831a11.066 11.066 0 0 1 -.925 -.873c-.572 -.612 -1.168 -1.196 -1.756 -1.792c-.147 -.149 -.312 -.277 -.461 -.421c-.201 -.195 -.36 -.425 -.565 -.614c-.063 -.056 -.071 -.102 -.013 -.175c.071 -.086 .161 -.151 .239 -.229c.743 -.747 1.49 -1.492 2.236 -2.235c.033 -.034 .07 -.067 .102 -.103c.05 -.057 .092 -.046 .14 .004c.17 .176 .354 .335 .526 .505c.682 .678 1.357 1.367 2.035 2.05c.123 .123 .255 .236 .379 .361c.077 .08 .17 .12 .274 .136c.373 .055 .69 -.02 .913 -.358a.922 .922 0 0 1 .19 -.192c.586 -.486 1.114 -1.036 1.637 -1.585c.283 -.297 .595 -.563 .88 -.856c.138 -.142 .146 -.132 .303 -.008zm-6.444 -7.363c.038 .05 .084 .092 .13 .136l2.368 2.368c.056 .052 .121 .094 .19 .148c-.142 .147 -.257 .266 -.374 .383c-.35 .352 -.702 .7 -1.051 1.051c-1.878 1.89 -3.758 3.779 -5.634 5.67c-.251 .253 -.228 .192 .002 .424c.394 .396 .794 .785 1.187 1.181c.107 .109 .197 .237 .31 .337c.593 .52 1.137 1.089 1.702 1.635c.07 .067 .145 .13 .197 .214c.08 .127 .082 .134 -.023 .238l-.031 .028c-.48 .37 -1.003 .661 -1.602 .774c-.687 .13 -1.359 .034 -2.014 -.203a4.445 4.445 0 0 1 -1.41 -.823a44.17 44.17 0 0 1 -.937 -.83c-.106 -.1 -.19 -.22 -.293 -.323c-.123 -.122 -.264 -.226 -.38 -.354a54.59 54.59 0 0 0 -1.118 -1.17l-.754 -.77c-.118 -.12 -.229 -.241 -.367 -.34c-.136 -.096 -.138 -.159 -.029 -.27l.877 -.884c.293 -.294 .587 -.587 .888 -.872c.211 -.201 .425 -.4 .632 -.605c2.393 -2.389 4.784 -4.782 7.176 -7.175c.19 -.19 .19 -.19 .358 .032zm16.26 7.354l1.483 .092c.117 .009 .236 .015 .353 .023c.145 .009 .145 .01 .14 .16a.44 .44 0 0 1 -.004 .062c-.012 .178 -.012 .18 -.177 .228c-.212 .061 -.423 .118 -.63 .201c-.363 .147 -.65 .38 -.83 .729c-.062 .121 -.096 .257 -.13 .391c-.079 .312 -.123 .63 -.081 .953c.031 .243 .128 .341 .373 .375a17.757 17.757 0 0 0 1.542 .125c.151 .007 .172 -.02 .183 -.159a1.068 1.068 0 0 0 -.802 -1.086c-.048 -.01 -.086 -.036 -.132 -.05c-.124 -.036 -.153 -.093 -.134 -.216c.01 -.076 .025 -.151 .035 -.226l.009 .002l-.002 -.009c.328 -.012 .655 .03 .982 .046c.515 .03 1.028 .076 1.542 .116c.279 .02 .279 .023 .275 .303c-.002 .17 -.002 .168 -.17 .176c-.462 .03 -.827 .226 -1.057 .638a1.074 1.074 0 0 0 -.111 .396c-.01 .09 .054 .149 .153 .155c.611 .046 1.222 .092 1.834 .136c.153 .01 .249 -.04 .295 -.17c.073 -.207 .144 -.414 .136 -.642c-.008 -.243 -.002 -.488 -.031 -.73c-.038 -.306 -.193 -.547 -.4 -.765c-.233 -.245 -.52 -.408 -.823 -.55a2.243 2.243 0 0 1 -.186 -.097c-.118 -.073 -.126 -.125 -.09 -.284c.027 -.124 .102 -.128 .2 -.12c.124 .01 .254 .004 .37 .059c.077 .035 .14 -.023 .217 -.006c.404 .085 .818 .094 1.224 .157c.14 .02 .145 .018 .134 .171c-.04 .563 -.081 1.127 -.125 1.69c-.046 .575 -.099 1.151 -.147 1.729c-.048 .563 -.092 1.124 -.138 1.687c-.017 .2 -.017 .197 -.226 .22c-.013 .002 -.023 .015 -.033 .023c0 -.004 -.015 -.008 -.015 -.008c-.178 -.1 -.18 -.1 -.172 -.329a1.251 1.251 0 0 0 -.04 -.402c-.027 -.1 -.081 -.144 -.16 -.159c-.3 -.054 -.602 -.08 -.905 -.092c-.017 0 -.036 .019 -.052 .027c.002 -.023 -.005 -.044 -.032 -.038l-.005 .008l-.007 .026c-.065 -.071 -.155 -.057 -.235 -.063a111.58 111.58 0 0 0 -3.128 -.226c-.249 -.015 -.297 .03 -.345 .283c-.023 .13 -.036 .261 -.052 .393c-.01 .082 -.042 .117 -.138 .105c-.3 -.036 -.302 -.032 -.277 -.346l.352 -4.354c.017 -.21 .03 -.417 .044 -.626c.01 -.136 .01 -.14 .146 -.132zm-36.533 -2.649c.39 -.004 .94 .287 .944 .885c.005 .574 -.408 .934 -.914 .945c-.528 .014 -.911 -.44 -.922 -.882c-.033 -.437 .365 -.942 .892 -.948zm40.212 -.232c.25 .284 .274 .596 .159 .967c-.16 .513 -.748 .66 -1.13 .53a.804 .804 0 0 1 -.288 -.166c-.203 -.184 -.395 -.373 -.314 -.69c.013 -.145 -.035 -.296 .065 -.436a1.25 1.25 0 0 1 .557 -.452c.308 -.124 .71 -.026 .95 .247zm-39.783 -6.934c.116 .052 .245 .063 .358 .132c.358 .222 .518 .546 .538 .954c.013 .245 -.006 .488 -.035 .731c-.006 .044 0 .09 0 .18l.218 -.32c.182 -.266 .393 -.507 .663 -.689c.277 -.186 .582 -.287 .91 -.224c.704 .134 1.146 .605 1.175 1.31a2.81 2.81 0 0 1 -.19 1.112c-.149 .398 -.297 .798 -.444 1.198c-.107 .29 -.234 .58 -.341 .87c-.13 .352 -.283 .694 -.402 1.047c-.048 .14 -.111 .277 -.17 .415c-.025 .056 -.069 .086 -.132 .077c-.092 -.01 -.159 -.081 -.25 -.098c-.043 -.008 -.039 -.073 -.026 -.111c.042 -.124 .06 -.251 .12 -.37c.1 -.204 .062 -.306 -.14 -.403a9.04 9.04 0 0 0 -.84 -.36c-.237 -.083 -.463 -.19 -.698 -.278c-.33 -.121 -.655 -.26 -.981 -.392c-.176 -.07 -.35 -.146 -.528 -.215c-.21 -.084 -.417 -.172 -.632 -.239c-.143 -.044 -.274 -.115 -.417 -.159c-.121 -.038 -.203 -.012 -.278 .073a.964 .964 0 0 0 -.178 .325c-.019 .052 -.036 .107 -.06 .155c-.043 .077 -.087 .14 -.19 .056c-.07 -.056 -.2 -.025 -.242 -.13c-.042 -.104 .06 -.173 .092 -.261c.136 -.392 .306 -.77 .45 -1.158c.17 -.458 .383 -.9 .555 -1.359c.092 -.242 .184 -.49 .293 -.72c.228 -.477 .55 -.902 1.053 -1.128a.892 .892 0 0 1 .75 -.021zm39.263 -.94c.126 .291 .262 .576 .39 .867c.197 .446 .393 .89 .58 1.337c.14 .342 .278 .685 .429 1.02c.207 .46 .387 .934 .605 1.39c.082 .172 .071 .18 -.105 .26c-.523 .234 -1.044 .47 -1.57 .703c-.063 .027 -.13 .1 -.207 .036c-.078 -.065 -.109 -.268 -.052 -.35c.052 -.073 .117 -.138 .18 -.203c.136 -.14 .278 -.274 .395 -.431c.28 -.373 .34 -.787 .264 -1.24c-.04 -.24 -.13 -.458 -.214 -.682a1.459 1.459 0 0 0 -.146 -.276c-.142 -.22 -.272 -.273 -.513 -.18c-.366 .14 -.726 .295 -1.09 .445c-.17 .065 -.33 .134 -.518 .216c.08 .134 .14 .251 .214 .36c.163 .239 .385 .379 .682 .383c.195 .002 .392 .006 .586 .013c.113 .004 .183 .077 .206 .213c.018 .118 -.009 .157 -.13 .21c-.672 .297 -1.342 .594 -2.014 .894c-.057 .025 -.126 .035 -.172 .07c-.071 .057 -.203 .07 -.22 .051c-.073 -.088 -.14 -.19 -.123 -.32c.012 -.084 .069 -.122 .138 -.166c.325 -.215 .521 -.513 .57 -.908c.02 -.172 -.028 -.329 -.078 -.486c-.038 -.117 -.086 -.134 -.21 -.082c-.33 .139 -.66 .283 -.99 .425c-.171 .074 -.343 .149 -.512 .229c-.088 .041 -.174 .09 -.254 .146c-.107 .073 -.146 .17 -.123 .306c.042 .255 .153 .483 .268 .707c.182 .356 .41 .679 .77 .882c.222 .125 .471 .14 .716 .173c.195 .028 .39 .01 .586 0c.241 -.01 .348 .084 .362 .312c.005 .07 -.048 .078 -.09 .095c-.19 .075 -.383 .148 -.573 .221c-.392 .147 -.785 .291 -1.177 .436c-.13 .048 -.15 .044 -.213 -.078c-.1 -.194 -.174 -.401 -.266 -.598c-.122 -.26 -.233 -.526 -.346 -.79a69.548 69.548 0 0 1 -.37 -.891a46.346 46.346 0 0 0 -.595 -1.365l-.093 -.22l-.18 -.442a6.219 6.219 0 0 0 -.196 -.435c-.081 -.161 -.067 -.184 .097 -.256c.025 -.01 .052 -.018 .077 -.027c.16 -.052 .193 -.042 .247 .117c.048 .14 .128 .26 .218 .373c.102 .13 .134 .134 .301 .077c.668 -.23 1.307 -.531 1.954 -.808c.62 -.265 1.23 -.548 1.846 -.824c.07 -.032 .14 -.057 .201 -.11c.048 -.041 .153 -.037 .157 -.106l.004 -.037l.01 -.075a.28 .28 0 0 0 -.035 -.192c-.065 -.1 -.059 -.234 -.126 -.34c-.031 -.051 -.006 -.095 .038 -.126a.455 .455 0 0 1 .088 -.05c.216 -.101 .228 -.093 .322 .127zm-37.531 3.094c-.333 .015 -.614 .15 -.77 .457a8.155 8.155 0 0 0 -.405 .919c-.04 .108 -.006 .131 .071 .167c.241 .115 .484 .224 .733 .322c.329 .128 .658 .264 .988 .39c.205 .077 .245 .06 .365 -.109c.226 -.32 .301 -.689 .328 -.986c.013 -.412 -.113 -.67 -.377 -.87a1.387 1.387 0 0 0 -.933 -.29zm-3.21 -.486a2.29 2.29 0 0 0 -.288 .543c-.13 .345 -.07 .483 .272 .642c.297 .139 .594 .285 .902 .4c.19 .071 .375 .161 .572 .22c.085 .025 .13 .01 .159 -.071c.08 -.23 .165 -.459 .238 -.689c.032 -.113 .042 -.232 .059 -.316a1.029 1.029 0 0 0 -.33 -.733a1.461 1.461 0 0 0 -.577 -.326c-.418 -.132 -.75 -.025 -1.007 .33zm4.129 -7.098l1.197 .422c.505 .178 1.011 .358 1.514 .54c.473 .172 .948 .335 1.421 .505c.243 .086 .488 .17 .729 .264c.123 .048 .251 .067 .38 .084a.52 .52 0 0 0 .44 -.15c.126 -.118 .174 -.112 .298 .005a.27 .27 0 0 1 .027 .032c.146 .159 .165 .11 .002 .288c-.23 .25 -.45 .511 -.697 .744c-.22 .205 -.379 .462 -.613 .653c-.147 .12 -.229 .305 -.38 .431c-.066 .054 -.112 .07 -.177 .015l-.05 -.038c-.216 -.176 -.18 -.132 -.047 -.316c.048 -.067 .103 -.134 .14 -.207c.042 -.082 .04 -.178 -.048 -.222l-.13 -.066l-.259 -.134a3.288 3.288 0 0 0 -.536 -.23a.973 .973 0 0 1 -.067 -.008c-.11 .023 -.224 .055 -.305 .15a7.363 7.363 0 0 1 -.377 .43c-.197 .201 -.352 .442 -.576 .62c-.073 .058 -.121 .15 -.176 .23c-.044 .065 -.033 .13 .01 .193c.097 .142 .183 .29 .29 .427c.249 .318 .523 .345 .839 .094c.033 -.025 .067 -.05 .098 -.078c.078 -.067 .145 -.056 .218 .015c.189 .18 .201 .203 .004 .39c-.217 .207 -.408 .441 -.607 .661c-.213 .232 -.435 .46 -.634 .708c-.122 .15 -.092 .163 -.276 .023c-.034 -.026 -.065 -.053 -.101 -.076c-.07 -.044 -.086 -.075 -.036 -.163c.216 -.381 .155 -.773 0 -1.156c-.121 -.301 -.265 -.594 -.395 -.891l-.254 -.576c-.117 -.274 -.234 -.549 -.385 -.808c-.081 -.14 -.109 -.31 -.182 -.459c-.264 -.546 -.5 -1.105 -.737 -1.664c-.008 -.019 -.014 -.04 -.023 -.059c-.14 -.299 -.136 -.297 .084 -.527c.109 -.115 .203 -.157 .377 -.096zm30.585 -2.477c.111 .05 .162 .12 .22 .178a106.34 106.34 0 0 1 2.355 2.405c.298 .316 .503 .689 .647 1.104c.111 .318 .166 .634 .122 .96a2.847 2.847 0 0 1 -.27 .907a5.62 5.62 0 0 1 -.287 .502c-.107 .166 -.277 .275 -.4 .421c-.224 .266 -.5 .46 -.794 .632a2.64 2.64 0 0 1 -1.318 .363c-.384 .004 -.74 -.101 -1.079 -.245a1.762 1.762 0 0 1 -.443 -.3c-.128 -.113 -.266 -.215 -.38 -.345c-.2 -.233 -.468 -.394 -.675 -.618c-.43 -.467 -.892 -.898 -1.332 -1.352c-.13 -.134 -.287 -.239 -.406 -.385c-.096 -.12 -.1 -.115 -.004 -.222c.213 -.237 .213 -.235 .454 -.01c.071 .066 .142 .133 .218 .196c.138 .117 .161 .124 .301 .002c.214 -.184 .438 -.362 .622 -.576c.234 -.27 .496 -.506 .756 -.747a44.51 44.51 0 0 0 1.388 -1.36c.144 -.15 .263 -.319 .42 -.46c.128 -.114 .114 -.15 .021 -.307c-.077 -.134 -.205 -.222 -.297 -.343c-.069 -.092 -.071 -.155 .006 -.233c.055 -.048 .103 -.108 .155 -.167zm1.143 2.198c-.07 .057 -.14 .115 -.207 .176c-.607 .546 -1.183 1.122 -1.769 1.691c-.333 .325 -.645 .672 -1.003 .972a.613 .613 0 0 0 -.188 .318c-.034 .12 -.027 .24 .09 .335c.109 .086 .199 .195 .301 .289c.281 .268 .597 .454 .997 .44c.036 0 .069 .002 .105 0c.383 -.015 .697 -.2 1.009 -.398c.272 -.176 .481 -.417 .71 -.639c.144 -.14 .295 -.274 .429 -.423c.255 -.284 .477 -.596 .613 -.958c.086 -.23 .13 -.47 .077 -.718c-.1 -.482 -.412 -.813 -.783 -1.1c-.171 -.131 -.205 -.125 -.38 .015zm-31.188 1.94c.32 .658 .58 1.3 .91 1.935c.325 -.431 .731 -.766 1.035 -1.216c-.635 -.25 -1.263 -.507 -1.945 -.718zm9.496 -8.14a.5 .5 0 0 1 .14 .292c.002 .028 -.027 .065 -.05 .086c-.042 .038 -.09 .067 -.136 .096c-.329 .218 -.402 .444 -.27 .823c.125 .356 .293 .695 .448 1.039c.17 .376 .351 .747 .517 1.124c.22 .504 .47 .996 .684 1.505c.082 .195 .187 .387 .279 .58c.071 .15 .067 .153 -.09 .213a.283 .283 0 0 0 -.055 .032c-.205 .159 -.395 .063 -.586 -.036c-.13 -.065 -.257 -.138 -.402 -.165c-.09 -.017 -.144 -.097 -.228 -.132c-.29 -.124 -.571 -.272 -.862 -.394c-.204 -.083 -.392 -.194 -.59 -.282c-.258 -.113 -.505 -.25 -.765 -.356c-.295 -.124 -.57 -.291 -.877 -.392c-.111 -.037 -.212 -.121 -.325 -.171c-.232 -.103 -.46 -.212 -.69 -.314c-.067 -.03 -.134 -.082 -.222 -.032c.08 .256 .205 .49 .312 .733c.11 .255 .232 .507 .347 .76c.216 .477 .433 .955 .685 1.413c.037 .067 .086 .128 .134 .186c.165 .201 .377 .239 .615 .17c.046 -.013 .092 -.03 .136 -.044c.187 -.055 .187 -.055 .268 .123c.096 .206 .092 .222 -.107 .314c-.552 .258 -1.107 .513 -1.662 .769c-.05 .023 -.1 .048 -.153 .067c-.058 .019 -.106 .01 -.138 -.055c-.042 -.086 -.09 -.178 -.134 -.27c.065 -.077 .151 -.113 .226 -.163a.863 .863 0 0 0 .279 -.278a.427 .427 0 0 0 .046 -.358c-.124 -.402 -.314 -.775 -.482 -1.158c-.1 -.23 -.217 -.454 -.312 -.689c-.098 -.24 -.213 -.475 -.326 -.71c-.149 -.31 -.308 -.615 -.452 -.927c-.132 -.283 -.36 -.37 -.65 -.352a2.03 2.03 0 0 0 -.246 .038c-.151 .034 -.306 -.052 -.337 -.199c-.02 -.09 .006 -.155 .102 -.199c.22 -.098 .434 -.211 .653 -.31c.329 -.146 .662 -.282 .988 -.433a.288 .288 0 0 1 .256 -.002c.634 .274 1.254 .578 1.88 .87c.293 .139 .594 .263 .885 .407c.419 .21 .86 .37 1.269 .6c.05 .03 .12 .022 .203 .032c-.075 -.171 -.138 -.35 -.228 -.513c-.05 -.09 -.088 -.178 -.128 -.27a5.238 5.238 0 0 0 -.3 -.592a6.554 6.554 0 0 1 -.43 -.856c-.15 -.352 -.386 -.497 -.75 -.409c-.04 .01 -.08 .023 -.12 .034l-.024 .008l-.048 .02c-.04 .014 -.081 .022 -.122 -.018a.685 .685 0 0 1 -.161 -.286c-.017 -.055 .038 -.063 .073 -.082c.256 -.14 .521 -.266 .785 -.385c.346 -.157 .685 -.327 1.034 -.471c.07 -.03 .155 -.09 .214 -.032zm11.847 -.338c.95 .247 1.666 .812 2.066 1.717c.255 .578 .32 1.183 .186 1.821c-.171 .823 -.584 1.47 -1.264 1.94c-.572 .403 -1.103 .533 -1.834 .512c-.297 .033 -.664 -.086 -1.022 -.197a1.778 1.778 0 0 1 -.533 -.277a3.885 3.885 0 0 1 -.96 -.981a2.458 2.458 0 0 1 -.393 -1.106a4.474 4.474 0 0 1 .027 -1.084c.063 -.48 .287 -.894 .57 -1.275c.448 -.6 1.047 -.98 1.786 -1.101c.454 -.073 .925 -.086 1.37 .031zm4.729 3.921c.532 .071 .848 .452 .833 .96a.911 .911 0 0 1 -.946 .883c-.555 -.032 -.923 -.478 -.884 -.982c-.027 -.528 .572 -.92 .997 -.86zm-9.938 -4.618c.057 0 .103 .008 .107 .067c.027 .364 .109 .724 .124 1.09c.006 .143 .056 .294 .077 .442c.023 .174 .042 .348 .065 .522c.012 .092 .006 .167 -.113 .17c-.006 0 -.01 .008 -.017 .01c-.23 .086 -.28 .06 -.375 -.166c-.19 -.46 -.45 -.87 -.837 -1.195a1.448 1.448 0 0 0 -1.704 -.121c-.3 .18 -.473 .456 -.561 .793c-.09 .348 -.094 .706 -.103 1.06c-.014 .644 .046 1.287 .247 1.898c.149 .452 .406 .848 .846 1.093c.103 .056 .21 .063 .316 .08c.222 .033 .446 .027 .668 0c.396 -.05 .701 -.262 .944 -.566c.272 -.341 .448 -.724 .484 -1.168c.012 -.155 .096 -.203 .243 -.155c.025 .009 .044 .034 .069 .04c.062 .017 .146 -.019 .18 .065c.035 .088 .014 .18 -.015 .266c-.088 .266 -.167 .534 -.276 .791c-.067 .16 -.187 .295 -.293 .435c-.363 .476 -.857 .714 -1.434 .796c-.578 .08 -1.152 .098 -1.721 -.073a1.757 1.757 0 0 1 -.413 -.189c-.563 -.347 -.95 -.84 -1.208 -1.448c-.149 -.352 -.179 -.714 -.197 -1.08l-.012 -.246c-.006 -.132 .04 -.267 -.016 -.398l-.01 -.006l.005 -.003c.002 .003 .002 -.013 .002 -.013c.053 -.036 .05 -.097 .063 -.149c.23 -1.036 .82 -1.775 1.8 -2.198c.522 -.226 1.072 -.235 1.62 -.201c.193 .012 .386 .094 .57 .163c.189 .071 .32 .025 .43 -.14c.104 -.16 .24 -.268 .445 -.266zm4 1.33a1.824 1.824 0 0 0 -.386 .462c-.16 .278 -.296 .57 -.38 .881c-.085 .33 -.207 .651 -.253 .986c-.048 .335 -.094 .677 -.083 1.018c.008 .268 .014 .538 .121 .795c.144 .348 .394 .612 .739 .725c.46 .148 .906 .077 1.267 -.295c.131 -.137 .242 -.287 .335 -.453c.188 -.33 .307 -.688 .416 -1.05a5.626 5.626 0 0 0 .25 -1.709c0 -.125 .01 -.251 -.003 -.377c-.017 -.171 -.02 -.347 -.098 -.506c-.164 -.34 -.398 -.597 -.775 -.704c-.425 -.121 -.808 -.075 -1.15 .226z"/></svg>