---
version: "0.3"
---
<svg>
  <path d="M24 1.5c12.426 0 22.5 10.075 22.5 22.5c0 12.424 -10.074 22.5 -22.5 22.5c-12.424 0 -22.5 -10.076 -22.5 -22.5c0 -12.426 10.075 -22.5 22.5 -22.5zm5.095 9.921h-14.996l9.68 12.828l-9.68 12.836h14.996c3.542 0 6.412 -2.878 6.412 -6.423a6.41 6.41 0 0 0 -6.412 -6.41l.114 .002l.116 -.002a6.414 6.414 0 0 0 6.178 -6.18l.004 -.23c0 -3.543 -2.87 -6.42 -6.412 -6.42zm-14.996 2.525v2.599l5.812 7.704l-5.812 7.72v2.562l7.747 -10.282l-7.747 -10.303zm0 5.167v2.57l1.943 2.566l-1.943 2.566v2.607l3.878 -5.173l-3.878 -5.136z" />
</svg>
