<svg xmlns="http://www.w3.org/2000/svg" width="48" height="48" viewBox="0 0 48 48" fill="currentColor"><path d="M24 14.079l.246 -.037a49.94 49.94 0 0 1 6.873 -.541h.49c.916 .005 1.433 .04 1.433 .04c-2.285 .299 -3.293 .501 -5.067 .93c-.247 .056 -.522 .12 -.818 .193a44.235 44.235 0 0 1 6.594 1.987c10.347 4.062 12.377 9.649 12.377 9.649s.837 1.894 0 3.824c-.682 1.572 -1.973 2.775 -4.457 3.61c-2.484 .821 -6.033 .893 -9.184 .63c0 0 3.648 -.333 5.493 -2.322c1.789 -1.918 1.448 -4.432 1.448 -4.432s-.213 -2.049 -2.072 -4.217c-1.978 -2.321 -5.465 -4.405 -5.642 -4.51l-.036 -.02c-.275 -.156 -2.476 -1.392 -4.627 -2.283a34.27 34.27 0 0 0 -3.05 -1.059c-1.064 .32 -2.136 .681 -3.052 1.059c-2.151 .891 -4.352 2.127 -4.627 2.282l-.036 .02c-.177 .106 -3.664 2.19 -5.642 4.511c-1.86 2.168 -2.072 4.217 -2.072 4.217s-.34 2.514 1.448 4.432c1.845 1.989 5.493 2.322 5.493 2.322c-3.151 .263 -6.7 .191 -9.184 -.63c-2.484 -.835 -3.775 -2.038 -4.457 -3.61c-.837 -1.93 0 -3.824 0 -3.824s2.03 -5.587 12.377 -9.649a44.074 44.074 0 0 1 6.596 -1.986a51.324 51.324 0 0 0 -.82 -.194c-1.774 -.429 -2.782 -.631 -5.067 -.93c0 0 .517 -.035 1.433 -.04h.49c1.614 .01 4.13 .121 7.12 .578zm.21 7.471c3.717 0 6.73 2.507 6.73 5.6c0 3.093 -3.013 5.6 -6.73 5.6c-3.716 0 -6.729 -2.507 -6.729 -5.6c0 -3.093 3.013 -5.6 6.73 -5.6z"/></svg>