<svg xmlns="http://www.w3.org/2000/svg" width="48" height="48" viewBox="0 0 48 48" fill="currentColor"><path d="M1.5 3.113s3.143 .161 4.868 1.48c2.415 1.592 3.916 5.315 3.245 10.356l-2.936 21.932c-.394 2.686 -1.177 7.114 -1.177 7.114h4.216s.203 -2.59 .517 -5.27l.07 -.575l.072 -.573l2.81 -21.39l9.368 22.436c1.183 2.784 1.874 4.127 4.338 6.018l11.044 -28.504l2.811 23.977c.161 1.696 .284 3.88 .284 3.88h5.47s-.356 -2.144 -.645 -4.233l-.067 -.5a81.635 81.635 0 0 1 -.063 -.49l-3.254 -24.424a82.8 82.8 0 0 1 -.062 -.76l-.032 -.411c-.072 -.962 -.137 -1.913 -.137 -1.913h-6.77v.05c0 1.044 -.344 2.04 -.74 3.083l-8.183 21.092l-9.27 -21.937c-2.884 -6.741 -6.944 -9.499 -10.167 -10.277c-1.437 -.501 -5.608 -.161 -5.608 -.161h-.002z"/></svg>