<svg xmlns="http://www.w3.org/2000/svg" width="48" height="48" viewBox="0 0 48 48" fill="currentColor"><path d="M20.646 46.326c-5.149 -.84 -9.286 -3.015 -12.928 -6.794c-5.993 -6.221 -7.812 -15.23 -4.764 -23.603c.5 -1.375 2.03 -4.14 3.02 -5.456c3.374 -4.487 8.217 -7.512 13.907 -8.687c1.86 -.384 6.347 -.38 8.284 .006c8.24 1.643 14.838 7.497 17.32 15.367c.67 2.125 .903 3.553 .995 6.117c.105 2.938 -.187 5.045 -1.077 7.762c-2.53 7.727 -9.04 13.507 -17.056 15.139c-1.743 .354 -5.948 .436 -7.703 .15h.002zm3.236 -1.003c.149 -.243 -.492 -1.404 -1.024 -1.856c-.732 -.623 -1.364 -.865 -2.622 -1.006l-1.067 -.119l.47 -.442c1.041 -.979 2.622 -.934 3.243 .092c.17 .28 .308 .673 .308 .874c.001 .374 .422 1.15 .626 1.15c.233 0 .05 -.928 -.276 -1.388c-.773 -1.095 -.84 -2.621 -.178 -4.03l.487 -1.036l.369 .464c.517 .651 .76 1.662 .684 2.856l-.064 1.022l.42 -.314c.627 -.467 1.867 -.417 2.763 .113c.82 .484 .89 .719 .217 .719c-1.144 0 -2.54 .569 -3.115 1.269c-.28 .342 -.826 1.393 -.826 1.593c0 .27 1.748 .19 3.564 -.162c9.223 -1.795 16.016 -8.93 17.46 -18.34c.247 -1.608 .106 -5.88 -.246 -7.463c-1.352 -6.08 -5.083 -11.239 -10.39 -14.365c-1.555 -.915 -3.424 -1.662 -5.624 -2.248c-1.735 -.463 -2.014 -.491 -4.843 -.502c-3.302 -.013 -4.485 .16 -7.109 1.042c-1.787 .6 -4.408 1.967 -5.848 3.05c-2.585 1.941 -4.925 4.72 -6.357 7.545c-.993 1.962 -1.494 3.365 -1.96 5.49c-.482 2.201 -.524 6.502 -.084 8.591c1.4 6.654 5.506 12.143 11.355 15.178c1.68 .872 4.398 1.796 6.154 2.093c1.484 .251 3.395 .321 3.513 .13zm-3.669 -4.934c-.966 -.083 -1.466 -.206 -1.788 -.44c-.36 -.26 -.56 -.3 -1.023 -.197c-.833 .184 -1.884 -.047 -2.23 -.49c-.358 -.454 -.363 -.518 -.058 -.765c.422 -.343 .266 -.441 -.687 -.432c-1.068 .01 -1.487 -.167 -1.968 -.829l-.343 -.472l.574 -.268c.438 -.205 .572 -.363 .57 -.672c-.003 -.536 -.135 -.698 -.775 -.951c-.633 -.252 -.929 -.655 -1.081 -1.474c-.11 -.587 -.103 -.598 .31 -.496c.506 .124 .513 .082 .1 -.604c-.513 -.854 -.58 -1.83 -.18 -2.642c.188 -.38 .342 -.943 .344 -1.252c.002 -.31 .14 -.737 .309 -.951c.28 -.358 .285 -.426 .059 -.855c-.27 -.51 -.209 -1.861 .087 -1.958c.117 -.038 .118 -.165 .002 -.415c-.24 -.514 .071 -2.892 .421 -3.23c.246 -.237 .291 -.227 .594 .136c.269 .321 .309 .526 .225 1.144c-.13 .964 .088 1.384 .72 1.384c.458 0 .478 .03 .478 .699c0 .58 -.095 .797 -.558 1.278c-.524 .546 -.534 .574 -.16 .482c.38 -.094 .396 -.067 .396 .673c0 .562 -.11 .928 -.405 1.355l-.405 .584l.365 -.05c.475 -.064 .556 .428 .225 1.38c-.21 .605 -.212 .702 -.012 .702c.171 0 .232 .21 .232 .807c0 .728 -.062 .869 -.627 1.422c-.62 .608 -.613 .898 .02 .796c.474 -.077 .941 .87 .92 1.867c-.025 1.232 -.005 1.263 .339 .506c.276 -.61 .34 -.66 .64 -.503c.553 .29 .96 1.11 .96 1.931c.001 .412 .068 .75 .15 .75c.08 0 .262 .043 .402 .096c.184 .069 .255 0 .255 -.248c0 -.285 .221 -.867 .415 -1.089c.027 -.03 .272 .099 .544 .289c.654 .457 .972 1.096 .972 1.953v.7l1.203 .06c.661 .033 1.291 .147 1.4 .254c.225 .22 .237 .22 -1.93 .035zm-1.81 -1.588c-.536 -1.185 -.731 -1.375 -.731 -.71c0 .55 .224 1.036 .696 1.51c.466 .467 .478 .183 .034 -.8zm-1.083 .559c0 -.118 -1.625 -.317 -1.752 -.214c-.035 .028 .11 .11 .321 .184c.49 .17 1.431 .189 1.431 .03zm2.11 -.08c0 -.324 -.746 -1.57 -.94 -1.57c-.101 0 -.144 .09 -.094 .2c.564 1.253 .735 1.559 .872 1.559c.09 0 .162 -.085 .162 -.19zm-2.465 -.51c-.376 -.365 -1.584 -.49 -1.748 -.18c-.094 .178 .917 .493 1.651 .514l.452 .013l-.355 -.346zm-1.05 -1.04c-.003 -.572 -.362 -1.515 -.542 -1.418c-.232 .124 -.21 .9 .038 1.372c.255 .485 .504 .508 .503 .046zm.35 -.299c0 -.358 -.084 -.776 -.19 -.938c-.18 -.277 -.186 -.269 -.129 .16c.21 1.564 .32 1.83 .32 .778zm-1.406 .486c0 -.168 -1.99 -.673 -2.104 -.534c-.04 .048 .179 .218 .485 .38c.592 .31 1.62 .409 1.62 .154zm0 -.682c0 -.228 -.895 -.579 -1.475 -.579c-.871 0 -.841 .198 .07 .459c.984 .281 1.405 .317 1.405 .12zm-.494 -2.608c-.154 -.199 -.204 -.045 -.209 .645c-.003 .498 .061 .957 .143 1.019c.232 .176 .294 -1.37 .066 -1.664zm-.21 .963c-.012 -.393 -.089 -.903 -.172 -1.134c-.142 -.393 -.167 -.375 -.393 .287c-.271 .798 -.124 1.562 .302 1.562c.2 0 .277 -.208 .263 -.715zm-1.623 -1.453c-.703 -.765 -1.034 -.865 -.714 -.216c.17 .346 .988 .976 1.268 .977c.081 0 -.168 -.342 -.554 -.761zm.528 -.507c-.254 -.27 -.54 -.49 -.635 -.49c-.096 .002 .08 .26 .39 .575c.68 .69 .9 .614 .245 -.085zm.655 -.632c.32 -.359 .441 -.647 .441 -1.054v-.561l-.366 .586c-.497 .798 -.805 1.523 -.647 1.523c.072 0 .33 -.222 .572 -.494zm.085 -1.941c-.125 -.138 -.503 .299 -.782 .904c-.476 1.033 -.282 1.123 .294 .137c.309 -.528 .528 -.997 .488 -1.041zm-1.443 1.008a27.605 27.605 0 0 1 -.254 -1.229c-.088 -.473 -.216 -.86 -.285 -.86c-.206 0 -.14 1.095 .108 1.799c.245 .693 .593 .927 .431 .29zm.393 -.552c0 -.422 -.437 -1.536 -.602 -1.536c-.097 0 -.13 .111 -.074 .247c.055 .136 .157 .526 .225 .867c.113 .567 .451 .883 .451 .422zm1.091 -1.231c.201 -.364 .341 -.787 .311 -.94c-.037 -.188 -.216 .008 -.561 .614c-.555 .975 -.607 1.149 -.311 1.052c.108 -.036 .36 -.362 .561 -.726zm-.347 -.33c.262 -.403 .382 -.707 .267 -.676c-.271 .072 -1.011 .96 -1.011 1.213c0 .382 .274 .184 .744 -.538zm-1.143 -1.664c-.06 -.424 -.11 -.51 -.194 -.337c-.159 .328 -.144 1.026 .033 1.567l.15 .459l.046 -.56c.026 -.307 .01 -.815 -.035 -1.129zm.747 .128c.02 -.241 -.049 -.573 -.153 -.738c-.178 -.28 -.191 -.247 -.195 .5c-.003 .574 .04 .782 .154 .738c.086 -.034 .174 -.259 .194 -.5zm1.058 -1.395c-.005 -.337 -.064 -.29 -.392 .318c-.213 .393 -.348 .774 -.302 .848c.137 .216 .701 -.731 .694 -1.166zm-.51 -.039c.132 -.286 .194 -.521 .138 -.521c-.14 0 -.682 .713 -.682 .896c0 .332 .318 .113 .543 -.375zm-.734 -1.038c-.124 -.296 -.29 -.538 -.37 -.538c-.079 0 -.144 .023 -.144 .051c0 .168 .36 1.071 .496 1.242c.268 .34 .28 -.133 .018 -.755zm.541 .112c0 -.448 -.494 -1.147 -.69 -.975c-.11 .098 .472 1.38 .627 1.38c.035 0 .063 -.182 .063 -.405zm1.055 -1.45c0 -.14 -.026 -.254 -.057 -.254c-.077 0 -.652 1.22 -.646 1.373c.008 .236 .703 -.869 .703 -1.12zm-.684 .165c.242 -.352 .384 -.693 .315 -.757c-.152 -.142 -1.036 .863 -1.037 1.179c-.002 .395 .271 .235 .722 -.422zm-1.003 -1.156l-.34 -.67l-.075 .49c-.085 .556 .573 1.643 .69 1.138c.036 -.159 -.088 -.59 -.275 -.958zm.51 -.37c-.243 -.54 -.313 -.31 -.111 .365c.116 .388 .192 .487 .226 .294c.027 -.16 -.024 -.456 -.115 -.658zm-.577 -1.66c-.01 -.128 -.017 .022 -.016 .334c0 .312 .009 .416 .018 .233a5.707 5.707 0 0 0 -.002 -.567zm.352 .02c-.009 -.156 -.016 -.028 -.016 .286c0 .313 .007 .441 .016 .284a6.115 6.115 0 0 0 0 -.57zm13.355 18.855c0 -.19 .63 -.312 1.613 -.315l.906 -.002v-.727c0 -.4 .105 -.934 .233 -1.186c.215 -.422 1.137 -1.234 1.25 -1.101c.189 .225 .406 .813 .406 1.103c0 .25 .069 .32 .249 .25c.137 -.053 .314 -.097 .393 -.097c.08 0 .145 -.234 .146 -.52c.001 -.858 .3 -1.683 .735 -2.03c.484 -.387 .762 -.24 .92 .485c.14 .648 .39 .43 .282 -.247c-.188 -1.178 .408 -2.45 1.052 -2.243c.537 .173 .487 -.223 -.097 -.766c-.51 -.474 -.59 -.651 -.655 -1.445c-.062 -.76 -.032 -.906 .182 -.906c.14 0 .255 -.018 .253 -.04a12.744 12.744 0 0 0 -.229 -.679c-.351 -.99 -.312 -1.358 .144 -1.358h.384l-.382 -.68c-.24 -.425 -.383 -.935 -.385 -1.361c-.001 -.664 .01 -.68 .431 -.579l.433 .104l-.355 -.348c-.658 -.643 -.822 -1.026 -.72 -1.67c.086 -.538 .142 -.6 .476 -.536c.508 .099 .851 -.674 .643 -1.45c-.113 -.424 -.076 -.632 .196 -1.078c.185 -.305 .365 -.554 .399 -.554c.175 0 .542 1.015 .542 1.5c0 .307 .063 .726 .14 .933c.092 .245 .072 .58 -.057 .96c-.156 .464 -.157 .601 -.003 .661c.383 .15 .427 1.164 .08 1.854c-.178 .355 -.265 .645 -.192 .645c.208 0 .662 1.085 .662 1.585c0 .25 .106 .712 .236 1.028c.341 .83 .291 1.602 -.163 2.511l-.398 .798l.398 -.101c.37 -.094 .399 -.06 .399 .454c0 .68 -.492 1.355 -1.207 1.658c-.334 .142 -.525 .333 -.525 .527c0 .168 -.04 .411 -.09 .542c-.062 .165 .08 .293 .473 .425c.65 .217 .646 .209 .296 .81c-.348 .599 -1.034 .876 -2.056 .831c-.89 -.038 -.964 .02 -.574 .459c.234 .261 .228 .32 -.074 .75c-.374 .533 -1.203 .726 -2.17 .504c-.469 -.107 -.657 -.074 -.964 .172c-.21 .167 -.605 .34 -.878 .381c-.961 .15 -2.778 .208 -2.778 .09zm3.926 -1.182c.165 -.234 .297 -.683 .293 -.997l-.009 -.57l-.523 .947c-.288 .521 -.523 1.003 -.523 1.071c0 .244 .467 -.033 .762 -.45zm-.504 -1.161l.094 -.406l-.354 .455c-.25 .32 -.353 .633 -.35 1.055l.006 .6l.255 -.65c.14 -.357 .298 -.831 .35 -1.054zm2.825 1.114c.149 -.124 .102 -.14 -.217 -.08a6.135 6.135 0 0 1 -.933 .08c-.29 .002 -.527 .066 -.527 .144c0 .19 1.423 .067 1.677 -.144zm-.536 -.315c.397 -.112 .665 -.28 .61 -.38c-.15 -.271 -1.642 -.051 -1.942 .286c-.243 .274 -.23 .295 .18 .295c.244 0 .763 -.09 1.152 -.2zm-.045 -1.674c.053 -.392 .157 -.862 .233 -1.045c.129 -.314 .118 -.317 -.188 -.054c-.198 .17 -.36 .618 -.416 1.148c-.11 1.06 .23 1.014 .371 -.05zm.835 .544c.223 -.347 .243 -1.481 .027 -1.481c-.156 0 -.551 1.103 -.551 1.536c0 .32 .304 .287 .524 -.055zm2.13 -.001c.754 -.34 .64 -.588 -.136 -.297c-.303 .114 -.728 .207 -.945 .207c-.218 0 -.443 .083 -.502 .185c-.163 .285 .876 .223 1.582 -.095zm.095 -.7c.641 -.188 .517 -.429 -.223 -.429c-.552 0 -1.472 .403 -1.472 .644c0 .137 .875 .025 1.695 -.215zm-.992 -1.585c-.002 -.81 -.053 -1.08 -.172 -.9c-.295 .45 -.205 2.056 .117 2.056c.032 0 .057 -.52 .055 -1.156zm.582 .538c.198 -.42 .15 -1.027 -.122 -1.552c-.24 -.46 -.255 -.439 -.384 .543c-.074 .562 -.098 1.08 -.053 1.15c.139 .216 .425 .143 .56 -.141zm1.108 -1.411c.496 -.301 .908 -.937 .728 -1.126c-.059 -.063 -.432 .228 -.829 .647c-.746 .788 -.708 .969 .1 .479zm-.152 -1.071c.188 -.229 .272 -.415 .187 -.415c-.203 0 -1.022 .785 -1.022 .98c0 .22 .428 -.07 .835 -.565zm-.92 -1.345c-.278 -.456 -.532 -.828 -.562 -.828c-.03 0 -.056 .174 -.056 .386c0 .385 .887 1.529 1.05 1.353c.042 -.046 -.152 -.456 -.431 -.911zm1.057 .16c-.217 -.516 -1.15 -1.46 -1.313 -1.327c-.135 .11 1.125 1.745 1.345 1.745c.08 0 .065 -.188 -.032 -.418zm.542 -.535c.25 -.613 .343 -2.11 .113 -1.824c-.07 .088 -.195 .535 -.277 .995c-.082 .46 -.192 .967 -.245 1.128c-.18 .547 .167 .294 .409 -.299zm-.54 -.763c.136 -.7 .096 -.972 -.079 -.532c-.156 .395 -.254 1.193 -.146 1.193c.053 0 .153 -.297 .224 -.661zm-.955 -.87c-.388 -.752 -.722 -1.131 -.722 -.82c0 .322 .615 1.536 .814 1.605c.34 .12 .33 .032 -.092 -.785zm.616 -.282c-.12 -.401 -.696 -1 -.963 -1c-.089 0 .085 .336 .387 .746c.582 .79 .758 .868 .576 .254zm.772 -1.097c-.003 -.903 -.248 -1.362 -.262 -.492a18.95 18.95 0 0 1 -.064 1.205c-.05 .525 -.04 .542 .137 .25c.105 -.171 .19 -.605 .189 -.963zm-.703 -.304c0 -.808 -.187 -.882 -.333 -.133c-.075 .386 .084 .886 .283 .886c.027 0 .05 -.339 .05 -.753zm-.704 -.49c0 -.104 -.157 -.462 -.35 -.794c-.258 -.447 -.35 -.526 -.353 -.303c-.003 .293 .484 1.286 .631 1.286c.04 0 .073 -.085 .072 -.19zm.352 -.664c0 -.227 -.493 -.905 -.659 -.905c-.086 0 -.043 .234 .094 .52c.23 .478 .565 .706 .565 .385zm.425 -.779c.293 -.595 .37 -1.18 .155 -1.18c-.069 0 -.228 .316 -.353 .703c-.376 1.164 -.268 1.424 .198 .477zm-.327 -.958c.356 -.65 .346 -.696 -.088 -.397c-.199 .137 -.362 .395 -.362 .573c0 .455 .133 .403 .45 -.176zm-1.018 -.853c-.27 -.424 -.486 -.551 -.486 -.285c0 .08 .144 .356 .321 .613c.39 .568 .542 .265 .165 -.328zm.568 .076c0 -.26 -.697 -1.056 -.703 -.803c-.004 .184 .52 1.006 .642 1.006c.034 0 .061 -.092 .061 -.203zm.887 -.76c.182 -.413 .216 -.66 .104 -.761c-.165 -.15 -.376 .206 -.598 1.011c-.165 .597 .203 .411 .494 -.25zm-.66 -.723c.153 -.267 .166 -.424 .035 -.424c-.209 0 -.613 .636 -.613 .965c0 .24 .281 -.022 .579 -.541zm.089 -1.962c-.084 -.293 -.096 -.293 -.25 0a.747 .747 0 0 0 0 .615c.154 .293 .166 .293 .25 0a1.331 1.331 0 0 0 0 -.615zm.392 .178c-.01 -.128 -.017 .022 -.016 .334c0 .312 .008 .416 .017 .233a5.707 5.707 0 0 0 -.001 -.567zm-18.246 14.69c-.357 -.301 -.462 -.483 -.346 -.599c.116 -.116 .28 -.061 .538 .182c.486 .456 .633 .441 1.284 -.13c.3 -.263 .623 -.478 .718 -.478c.095 0 .418 .215 .718 .478s.686 .478 .859 .478c.173 0 .54 -.215 .815 -.478c.609 -.581 .82 -.593 1.432 -.08c.26 .22 .632 .399 .826 .399c.194 0 .566 -.18 .827 -.399c.618 -.52 .931 -.502 1.545 .084c.411 .393 .563 .452 .813 .318c.169 -.09 .354 -.24 .411 -.332c.273 -.441 .882 -.47 1.622 -.076c.759 .403 1.043 .376 1.475 -.144c.252 -.304 .486 -.321 .486 -.037c0 .36 -.716 .905 -1.188 .905c-.247 0 -.688 -.148 -.98 -.328c-.56 -.345 -.9 -.284 -1.334 .24c-.326 .392 -1.126 .305 -1.63 -.176l-.442 -.424l-.611 .424c-.784 .542 -1.409 .544 -1.973 .004l-.437 -.42l-.68 .5c-.854 .628 -1.255 .627 -1.973 -.002l-.571 -.502l-.432 .41c-.673 .64 -1.167 .691 -1.772 .183zm1.103 -2.037c-.242 -.165 -.44 -.4 -.44 -.523c0 -.293 .188 -.282 .57 .035c.472 .393 1.086 .324 1.508 -.17c.448 -.525 1.005 -.565 1.426 -.101c.338 .371 .866 .716 1.098 .716c.082 0 .42 -.237 .752 -.527c.734 -.642 1.09 -.66 1.772 -.088c.288 .242 .68 .44 .87 .44c.192 0 .562 -.198 .823 -.44c.26 -.242 .636 -.44 .834 -.44c.197 0 .528 .198 .735 .44c.38 .445 1.017 .585 1.198 .264c.127 -.226 .72 -.23 .72 -.005c0 .226 -.858 .708 -1.26 .708c-.172 0 -.528 -.198 -.79 -.44c-.583 -.54 -.782 -.547 -1.265 -.048c-.252 .26 -.579 .392 -.974 .392c-.358 0 -.793 -.155 -1.094 -.392c-.64 -.5 -.868 -.492 -1.33 .048c-.275 .323 -.54 .44 -.997 .44c-.417 0 -.794 -.145 -1.146 -.44c-.288 -.241 -.578 -.439 -.645 -.439c-.067 0 -.335 .198 -.596 .44c-.552 .51 -1.148 .553 -1.77 .13zm-1.114 -1.84c0 -.022 .17 -.538 .376 -1.148c.366 -1.08 .39 -1.11 .952 -1.157c.719 -.062 .813 -.352 .694 -2.145c-.155 -2.335 -1.169 -4.875 -3.09 -7.742l-1.035 -1.544l-.897 -.001l-.896 -.002l.636 -.37c.618 -.358 2.446 -1.378 7.272 -4.055c1.29 -.716 2.344 -1.323 2.344 -1.35c0 -.028 -.393 -.271 -.874 -.541c-.48 -.27 -.874 -.527 -.874 -.57c0 -.043 1.005 -.078 2.235 -.078c1.477 0 2.2 .055 2.134 .162c-.055 .088 -.453 .339 -.884 .557c-.43 .217 -.783 .421 -.783 .454c0 .032 2.304 1.331 5.12 2.887l5.12 2.828l-.821 .048c-.966 .056 -1.146 .228 -2.47 2.37c-1.717 2.777 -2.45 4.813 -2.607 7.243c-.102 1.575 -.026 1.747 .81 1.844c.423 .049 .49 .144 .755 1.083c.16 .566 .291 1.082 .291 1.148c0 .065 -3.039 .119 -6.754 .119c-3.716 0 -6.755 -.018 -6.754 -.04zm12.867 -.883c-.25 -1.277 .217 -1.185 -6.06 -1.185h-5.656l-.196 .658c-.108 .362 -.234 .758 -.28 .878c-.065 .174 1.219 .22 6.11 .22h6.193l-.112 -.57zm-1.76 -1.645c.095 -.061 .14 -.377 .1 -.705l-.074 -.595h-8.7v.621c0 .348 .088 .657 .201 .703c.309 .124 8.276 .102 8.473 -.024zm.052 -2.283c.06 -.348 .08 -.66 .045 -.695c-.035 -.034 -2.026 -.069 -4.424 -.077c-3.86 -.013 -4.36 .014 -4.348 .229l.04 .709l.027 .466h8.551l.109 -.632zm.243 -1.988c.382 -.934 .584 -.896 -4.674 -.896c-2.685 0 -4.924 .045 -4.976 .099c-.108 .113 .194 1.122 .373 1.249c.066 .046 2.136 .07 4.601 .053l4.482 -.03l.194 -.475zm.857 -2.001l.368 -.879c.03 -.069 -2.57 -.125 -5.774 -.125h-5.827l.334 .877l.335 .876l5.124 .002l5.125 .003l.315 -.754zm1.024 -2.1l.4 -.662h-6.856c-3.77 0 -6.856 .033 -6.856 .073c0 .04 .15 .357 .332 .703l.332 .63l6.125 -.04l6.125 -.041l.398 -.663zm1.315 -1.751c.27 -.406 .49 -.802 .49 -.88c0 -.077 -3.717 -.14 -8.261 -.14c-4.544 0 -8.262 .046 -8.262 .103c0 .056 .227 .452 .504 .879l.503 .775h14.536l.49 -.737zm-15.167 -1.934c.048 0 .047 .111 -.004 .247c-.139 .375 .08 .297 .693 -.247l.555 -.492h-.496c-.532 -.001 -1.965 .74 -1.965 1.016c0 .092 .255 .011 .565 -.178c.31 -.19 .604 -.346 .652 -.346zm16.362 .441c0 -.174 -.343 -.292 -.568 -.196c-.104 .044 -.16 .134 -.125 .2c.084 .158 .693 .155 .693 -.004zm-15.1 -.149c.102 -.143 .285 -.261 .407 -.261c.18 0 .188 .049 .038 .261c-.34 .484 .088 .268 .518 -.261l.426 -.524h-.518c-.383 0 -.63 .137 -.944 .524c-.234 .288 -.355 .523 -.268 .523c.087 0 .24 -.118 .342 -.262zm1.49 .001c.396 -.339 .614 -.33 .496 .019c-.066 .194 .045 .153 .365 -.133c.578 -.518 .59 -.678 .047 -.672c-.243 .003 -.667 .232 -.976 .527c-.551 .525 -.494 .742 .069 .26zm1.707 .005c.263 -.346 .544 -.339 .42 .011c-.072 .208 .02 .185 .38 -.096c.704 -.547 .732 -.706 .125 -.706c-.393 0 -.67 .146 -1.005 .528c-.255 .29 -.386 .527 -.291 .527c.094 0 .26 -.119 .371 -.264zm1.733 -.006c.1 -.143 .283 -.261 .404 -.261c.18 0 .187 .049 .038 .261c-.34 .484 .087 .268 .515 -.261l.424 -.524h-.468c-.311 0 -.626 .173 -.948 .519c-.264 .285 -.406 .52 -.315 .523c.092 .003 .25 -.113 .35 -.257zm1.88 -.248c.06 0 .073 .121 .028 .269c-.117 .384 .064 .322 .513 -.176c.49 -.544 .489 -.63 -.009 -.63c-.27 0 -.535 .188 -.816 .58c-.23 .318 -.284 .438 -.122 .268c.162 -.171 .345 -.31 .406 -.31zm1.625 -.017c.072 0 .05 .118 -.05 .263c-.327 .475 .116 .29 .615 -.258l.475 -.52l-.518 -.005c-.397 -.004 -.617 .124 -.944 .549c-.379 .49 -.386 .52 -.068 .262c.198 -.16 .418 -.29 .49 -.29zm1.183 .277c.118 -.146 .29 -.266 .384 -.266c.093 0 .125 .12 .07 .266c-.158 .423 .13 .309 .665 -.266l.495 -.53h-.512c-.482 0 -1.968 1.037 -1.51 1.054c.106 .004 .29 -.112 .408 -.258zm2.097 -.264c.083 0 .057 .12 -.059 .266c-.328 .417 .035 .301 .548 -.175c.582 -.538 .58 -.624 -.01 -.624c-.316 0 -.64 .188 -.97 .562c-.439 .497 -.448 .527 -.078 .266c.23 -.163 .485 -.295 .569 -.295zm1.35 -.054c.269 -.29 .56 -.289 .436 .004c-.079 .185 -.036 .198 .231 .07c.425 -.206 .417 -.401 -.024 -.527c-.254 -.073 -.47 .007 -.783 .288c-.238 .214 -.35 .39 -.25 .39c.101 0 .277 -.101 .39 -.225zm-12.24 -1.533c.171 -.195 .257 -.353 .189 -.352c-.16 .003 -.345 .152 -.571 .459c-.28 .38 .028 .295 .382 -.107zm.935 .135c.244 -.295 .484 -.274 .367 .032c-.068 .178 .015 .146 .286 -.108l.382 -.357l-.395 -.048c-.275 -.033 -.507 .066 -.766 .325c-.205 .205 -.3 .372 -.213 .372c.088 0 .24 -.097 .339 -.216zm1.496 .004c.107 -.115 .298 -.21 .427 -.21c.189 0 .196 .04 .04 .21c-.327 .355 .077 .234 .465 -.14l.365 -.35h-.485c-.446 0 -1.608 .686 -1.18 .697c.096 .002 .262 -.09 .368 -.207zm2.05 -.206c.073 0 .088 .096 .035 .213c-.149 .324 .124 .256 .57 -.142l.4 -.356h-.46c-.504 0 -1.298 .372 -1.298 .608c0 .08 .14 .042 .31 -.088c.171 -.13 .37 -.235 .443 -.235zm1.714 -.004c.166 0 .167 .042 .008 .214c-.311 .334 .028 .25 .56 -.138l.48 -.352l-.572 -.005c-.428 -.004 -.67 .094 -.96 .387c-.282 .284 -.298 .323 -.056 .143c.183 -.137 .426 -.25 .54 -.25zm1.456 .211c.11 -.116 .273 -.21 .36 -.21c.088 0 .118 .094 .067 .21c-.142 .32 .118 .253 .543 -.14l.38 -.352h-.566c-.395 0 -.68 .106 -.946 .352c-.209 .193 -.303 .351 -.21 .351c.094 0 .261 -.095 .372 -.21zm1.84 -.211c.176 0 .177 .042 .008 .21c-.356 .355 .085 .234 .51 -.14l.398 -.35l-.496 .004c-.467 .004 -1.261 .405 -1.261 .636c0 .058 .14 0 .31 -.128c.171 -.128 .41 -.232 .53 -.232zm1.258 .191c.032 -.095 -.016 -.142 -.11 -.11a.396 .396 0 0 0 -.222 .22c-.031 .096 .016 .143 .11 .111a.394 .394 0 0 0 .222 -.22zm-8.16 -1.346l.436 -.532l-.465 .27c-.255 .149 -.503 .388 -.551 .532c-.14 .421 .11 .304 .58 -.27zm1.13 .051c.064 .063 .005 .183 -.13 .268c-.135 .084 -.176 .154 -.09 .156c.197 .003 .932 -.668 .932 -.851c0 -.337 -.818 -.09 -1.266 .381l-.492 .518l.466 -.293c.256 -.16 .517 -.241 .58 -.179zm1.052 .201c.103 -.148 .287 -.27 .41 -.27c.183 0 .19 .05 .039 .27c-.315 .457 .052 .3 .523 -.225l.446 -.495l-.416 -.057c-.294 -.041 -.567 .103 -.938 .495c-.288 .304 -.462 .553 -.387 .553c.075 0 .22 -.122 .323 -.27zm1.926 -.214c.06 0 .063 .132 .008 .294c-.11 .324 .105 .233 .611 -.258c.41 -.397 .367 -.606 -.123 -.606c-.239 0 -.654 .254 -.968 .592c-.496 .536 -.505 .563 -.092 .285c.25 -.169 .505 -.307 .564 -.307zm1.42 .133c.169 -.193 .231 -.352 .137 -.352c-.093 0 -.308 .159 -.478 .352c-.169 .193 -.231 .351 -.137 .351c.093 0 .308 -.158 .478 -.351zm.477 .207c.146 -.237 -.02 -.287 -.207 -.063c-.108 .13 -.118 .207 -.028 .207c.08 0 .185 -.065 .235 -.144zm-2.757 -1.82c0 -.08 -.12 -.145 -.268 -.145c-.148 0 -.268 .036 -.268 .08c0 .043 -.052 .223 -.116 .399c-.102 .283 -.071 .29 .269 .065c.21 -.14 .383 -.32 .383 -.4zm-.813 .382c.09 -.096 .133 -.175 .097 -.175c-.036 0 -.139 .079 -.228 .175c-.09 .097 -.134 .176 -.098 .176c.036 0 .139 -.079 .229 -.176zm.511 -1.913a3.342 3.342 0 0 0 -.808 .009c-.402 .064 -.402 .064 .045 .234c.32 .12 .552 .118 .808 -.01c.35 -.174 .35 -.18 -.045 -.233zm14.407 5.572c-.36 -.144 -.215 -.534 .199 -.534c.333 0 .397 -.076 .397 -.472c0 -.26 -.062 -.511 -.138 -.559c-.075 -.047 -.486 .087 -.913 .297c-.753 .372 -.78 .374 -.92 .075c-.218 -.466 .086 -2.46 .383 -2.512c.13 -.022 .56 .247 .953 .599c1.096 .982 1.27 .802 .481 -.496c-.546 -.898 -.35 -1.294 .265 -.531c.513 .638 1.815 3.275 1.705 3.454c-.185 .304 -.41 .12 -.705 -.578c-.401 -.947 -.63 -.919 -.59 .073c.02 .437 -.037 .862 -.124 .945c-.218 .207 -.752 .336 -.993 .24zm-.05 -1.922c.03 -.03 -.026 -.156 -.125 -.282c-.28 -.356 -.57 -.276 -.57 .157c0 .33 .045 .37 .319 .281c.176 -.057 .345 -.127 .375 -.156zm-29.889 1.243c-.266 -.058 -.29 -.17 -.196 -.895c.179 -1.37 .179 -1.435 .003 -1.497c-.092 -.032 -.387 .375 -.655 .905c-.465 .918 -.897 1.262 -.897 .712c0 -.434 1.167 -2.421 2.093 -3.563c.549 -.678 .963 -.779 .772 -.189c-.077 .239 .134 .47 .977 1.07c1.015 .721 1.345 1.17 .86 1.17c-.118 0 -.669 -.33 -1.224 -.736c-1.021 -.744 -1.214 -.773 -1.509 -.233c-.14 .259 -.007 .393 .983 .993c.63 .381 1.146 .774 1.146 .872c0 .4 -1.86 1.5 -2.353 1.391zm.787 -.88c.363 -.226 .373 -.46 .034 -.752c-.254 -.219 -.294 -.173 -.407 .47c-.098 .558 -.086 .567 .373 .282zm26.417 -1.675c-.066 -.055 -.12 -.54 -.12 -1.076c0 -.846 .041 -.968 .317 -.924c.258 .042 .327 .242 .371 1.076c.042 .792 -.003 1.026 -.197 1.026c-.137 0 -.304 -.046 -.37 -.102zm.918 -1.177c-.51 -.333 -.425 -1.09 .155 -1.392c.378 -.197 .466 -.193 .84 .037c.542 .33 .574 1.027 .064 1.361c-.447 .292 -.604 .291 -1.059 -.006zm1.07 -.406c0 -.156 -.103 -.333 -.23 -.394c-.275 -.133 -.576 .193 -.438 .475c.15 .305 .669 .24 .669 -.081zm-3.461 .275c-.353 -.134 -.229 -.36 .721 -1.312l.925 -.927l-.34 -.326c-.547 -.522 -1.103 -.292 -1.324 .547c-.208 .789 -.504 1.079 -1.03 1.007c-.437 -.059 -.447 -.295 -.022 -.517c.404 -.211 .536 -.406 .539 -.795c0 -.181 .16 -.52 .352 -.754c.288 -.351 .31 -.45 .122 -.563c-.346 -.21 -.34 -.214 -1.122 .946c-.77 1.14 -.783 1.152 -1.085 .968c-.595 -.362 -1.281 -2.49 -.782 -2.425c1.692 .222 2.062 .228 1.996 .032c-.038 -.115 -.449 -.405 -.913 -.645c-.463 -.241 -.843 -.538 -.843 -.661c0 -.36 .24 -.274 1.872 .669c1.896 1.094 3.903 2.81 3.675 3.14c-.133 .192 -.193 .193 -.43 .005c-.247 -.196 -.373 -.119 -1.192 .735c-.504 .524 -1.008 .919 -1.12 .876zm-1.558 -3.384c-.119 -.069 -.404 -.126 -.633 -.128c-.41 -.002 -.411 .007 -.116 .526l.3 .529l.333 -.401c.243 -.294 .274 -.435 .116 -.526zm-21.299 2.953c-.056 -.077 -.065 -.19 -.02 -.25c.097 -.133 1.907 -.448 2.02 -.352c.205 .172 -.138 .434 -.665 .509c-.32 .045 -.73 .116 -.908 .157c-.178 .041 -.37 .013 -.427 -.064zm-.52 -.873c-.324 -.338 -.306 -.92 .04 -1.245c.772 -.73 1.899 .216 1.332 1.118c-.28 .446 -1.002 .513 -1.372 .127zm.817 -.767c.06 -.31 -.372 -.518 -.6 -.29c-.229 .228 -.02 .66 .29 .601a.425 .425 0 0 0 .31 -.31zm2.155 .21c-.83 -.33 -.815 -1.434 .024 -1.64c.257 -.062 .402 -.206 .402 -.398c0 -.186 .179 -.374 .468 -.492c.323 -.133 .428 -.255 .339 -.395c-.154 -.242 -.603 -.042 -1.84 .821c-.828 .579 -1.193 .69 -1.19 .361c.001 -.233 2.092 -1.607 3.415 -2.244c1.008 -.485 2.858 -1.13 4.053 -1.415c2.086 -.496 5.044 -.626 5.776 -.253c.32 .163 .536 .185 .745 .076c.2 -.104 .436 -.094 .74 .03c.246 .102 .59 .194 .766 .207l.675 .049c.433 .032 .486 .49 .056 .49c-.248 0 -.35 .218 -.572 1.201c-.295 1.311 -.382 1.48 -.675 1.303c-.144 -.087 -.154 -.257 -.039 -.651c.259 -.879 .194 -1.617 -.17 -1.938c-.25 -.22 -.39 -.25 -.596 -.124c-.36 .22 -.437 .806 -.12 .924c.283 .106 .331 .457 .083 .607c-.092 .055 -.33 -.005 -.53 -.133c-.235 -.15 -.443 -.183 -.589 -.093c-.359 .222 -.623 .167 -.623 -.129c0 -.15 .161 -.342 .358 -.426a.553 .553 0 0 0 .358 -.54v-.387l-1.776 -.044c-1.922 -.047 -1.99 -.016 -1.83 .85l.064 .344l.564 -.374c.675 -.447 1.247 -.298 1.087 .282c-.05 .185 -.093 .597 -.094 .917c-.001 .402 -.073 .58 -.232 .58c-.161 0 -.244 -.219 -.278 -.735l-.048 -.736l-.537 .511c-.792 .754 -1.043 .625 -1.1 -.57l-.048 -.984l-.49 .096a5.25 5.25 0 0 1 -.782 .095c-.388 0 -.834 .848 -.706 1.344c.054 .21 .31 .498 .571 .641c.464 .256 .569 .642 .206 .76c-.101 .033 -.44 -.16 -.755 -.43c-.493 -.421 -.571 -.582 -.571 -1.17c0 -.492 -.064 -.68 -.231 -.68c-.312 0 -1.04 .331 -1.04 .473c0 .063 .222 .624 .494 1.247c.384 .88 .446 1.15 .278 1.204c-.302 .098 -.317 .08 -.87 -1.101c-.27 -.58 -.53 -1.092 -.575 -1.136c-.11 -.107 -.917 .259 -.917 .417c0 .068 .257 .58 .572 1.139c.524 .93 .615 1.474 .247 1.474c-.08 0 -.232 -.204 -.338 -.453c-.42 -.987 -1.196 -1.128 -1.196 -.217c0 .364 -.067 .425 -.463 .431c-.647 .01 -.72 .373 -.1 .494c.343 .067 .483 .175 .449 .345c-.059 .297 -.394 .365 -.87 .176zm10.722 32.781c.126 -.204 .174 -.626 .106 -.936c-.123 -.559 -.127 -.56 -.395 -.202c-.302 .403 -.384 1.51 -.113 1.51c.096 0 .276 -.167 .402 -.372zm.792 -1.527c.09 -.491 .06 -.607 -.145 -.547c-.34 .101 -.624 .837 -.465 1.207c.18 .416 .472 .1 .61 -.66zm-2.928 -.138c-.122 -.233 -.293 -.423 -.38 -.423c-.277 0 -.173 .611 .153 .896c.399 .349 .523 .091 .227 -.473zm3.298 -.34c.051 -.256 .034 -.435 -.04 -.435c-.155 0 -.282 .38 -.282 .836c0 .436 .207 .178 .322 -.4zm-3.88 -.196c-.036 -.132 -.12 -.239 -.188 -.239c-.177 0 -.153 .961 .026 1.047c.164 .078 .266 -.43 .162 -.808zm1.476 .071l-.38 -.31l.126 .365c.069 .2 .213 .457 .32 .57c.162 .172 .203 .163 .253 -.055c.033 -.143 -.11 -.4 -.319 -.57zm3.365 .136c.27 -.332 .065 -.576 -.31 -.37c-.31 .168 -.373 .627 -.087 .627c.103 0 .282 -.116 .397 -.257zm-5.502 .128c0 -.288 -.228 -.574 -.458 -.574c-.144 0 -.245 .145 -.245 .352c0 .257 .094 .351 .352 .351c.193 0 .351 -.058 .351 -.129zm3.164 -.114c0 -.089 -.079 -.132 -.176 -.095c-.096 .037 -.175 .14 -.175 .23c0 .089 .079 .132 .175 .095c.097 -.037 .176 -.14 .176 -.23zm3.516 .086c0 -.15 -.453 -.546 -.624 -.546c-.044 0 -.08 .158 -.08 .352c0 .25 .102 .351 .352 .351c.194 0 .352 -.07 .352 -.157zm-7.404 -.056c-.069 -.162 -.165 -.178 -.395 -.067c-.41 .197 -.383 .28 .091 .28c.283 0 .37 -.06 .304 -.213zm3.107 -.77c-.2 -.332 -.474 -.505 -.61 -.385c-.113 .1 .427 .665 .636 .665c.079 0 .067 -.126 -.026 -.28zm.674 -.239c-.118 -.09 -.127 -.162 -.03 -.235c.075 -.059 .137 -.25 .137 -.425c0 -.26 -.033 -.285 -.179 -.135c-.104 .107 -.176 .445 -.172 .807c.006 .575 .022 .603 .21 .37c.167 -.207 .173 -.275 .034 -.382zm-.874 -.745c-.258 -.18 -.363 -.188 -.417 -.03c-.04 .115 .081 .317 .27 .449c.258 .18 .363 .188 .417 .03c.04 -.115 -.081 -.317 -.27 -.45zm.278 -.305c0 -.092 -.08 -.273 -.176 -.404c-.142 -.192 -.176 -.184 -.176 .04c0 .153 .036 .335 .079 .404c.11 .181 .273 .157 .273 -.04zm.633 -.364c.08 -.11 .093 -.28 .032 -.439a5.013 5.013 0 0 1 -.17 -.56c-.038 -.166 -.096 -.266 -.129 -.221c-.032 .044 -.01 .255 .05 .47c.067 .241 .066 .491 -.003 .66c-.125 .304 .019 .364 .22 .09zm-.633 -.585c0 -.31 -.06 -.365 -.225 -.209c-.124 .118 -.164 .307 -.089 .422c.209 .32 .314 .25 .314 -.213z"/></svg>