---
version: "0.0.4"
---
<svg>
  <path d="M24.5 2c12.426 0 22.5 10.074 22.5 22.5s-10.074 22.5 -22.5 22.5s-22.5 -10.074 -22.5 -22.5s10.074 -22.5 22.5 -22.5zm0 1.324c-11.695 0 -21.176 9.48 -21.176 21.176c0 11.695 9.48 21.176 21.176 21.176c11.695 0 21.176 -9.48 21.176 -21.176c0 -11.695 -9.48 -21.176 -21.176 -21.176zm2.855 31.672c.018 .018 .055 .03 .061 .049c.08 .51 .14 1.021 .231 1.52c.027 .149 .07 .296 .117 .443l.145 .439c.012 .036 .042 .073 .048 .11c.08 .407 .134 .82 .231 1.227c.073 .31 .201 .615 .292 .919c.049 .158 .073 .322 .11 .486l.11 .018c.242 -.705 .486 -1.41 .747 -2.177c.024 .128 .073 .225 .06 .317c-.072 .699 -.139 1.398 -.236 2.092c-.03 .23 -.116 .474 -.231 .68c-.225 .408 -.134 .785 0 1.192c.133 .414 .2 .846 .31 1.332c.079 -.085 .134 -.115 .158 -.17c.055 -.14 .103 -.286 .128 -.432c.085 -.438 .152 -.875 .243 -1.313c.091 -.432 .213 -.852 .322 -1.277c.067 -.256 .146 -.511 .189 -.773c.097 -.565 .176 -1.137 .273 -1.702c.055 -.31 .128 -.608 .201 -.955c.164 .158 .31 .298 .395 .383c-.048 .474 -.079 .876 -.133 1.271c-.055 .39 -.14 .772 -.213 1.161c-.03 .177 -.08 .353 -.11 .53c-.079 .571 -.134 1.143 -.237 1.708c-.067 .36 -.213 .7 -.292 1.052c-.055 .244 -.06 .499 -.085 .748c-.462 .152 -.93 .304 -1.399 .462c-.048 -.529 -.085 -1.021 -.146 -1.508c-.012 -.11 -.097 -.212 -.176 -.364c-.219 .42 -.45 .784 -.596 1.185c-.049 .134 .122 .347 .189 .53c.036 .085 .073 .176 .115 .28c-.51 .072 -.979 .133 -1.465 .206c.14 -.28 .23 -.566 .395 -.797c.237 -.322 .134 -.626 .055 -.948c-.092 -.371 -.183 -.742 -.298 -1.107c-.11 -.347 -.25 -.687 -.377 -1.028c-.037 .006 -.073 .018 -.11 .024c-.024 .061 -.055 .122 -.073 .183c-.121 .413 -.255 .833 -.365 1.247c-.085 .322 -.164 .65 -.219 .979c-.073 .48 -.127 .96 -.188 1.453h-.754c.049 -.152 .079 -.274 .121 -.395c.019 -.049 .061 -.085 .067 -.134c.073 -.408 .122 -.821 .207 -1.228c.091 -.426 .22 -.846 .329 -1.265c.072 -.292 .14 -.584 .225 -.87c.09 -.316 .2 -.62 .297 -.936a.543 .543 0 0 0 .025 -.262c-.097 -.407 -.207 -.809 -.304 -1.216c-.025 -.097 -.006 -.207 -.006 -.304c.048 0 .079 0 .11 .006c.163 .347 .328 .7 .522 1.107c.274 -.523 .505 -.967 .736 -1.411l.097 .018c0 .067 .012 .14 0 .2c-.115 .426 -.243 .858 -.365 1.284c-.054 .194 -.146 .395 -.127 .59c.012 .176 .146 .34 .219 .51c.109 .262 .212 .53 .316 .797c.146 .371 .286 .748 .468 1.113c.128 -.426 .639 -.669 .48 -1.204l-.13 -.49l-.222 -.988c-.006 -.018 -.012 -.036 -.012 -.06c-.067 -.536 -.128 -1.065 -.201 -1.6c-.067 -.51 -.055 -1.058 -.237 -1.526c-.177 -.444 -.08 -.87 -.128 -1.296c0 -.024 .012 -.06 .03 -.085c.007 -.012 .03 -.018 .061 -.03zm-2.207 .134c.006 .164 .042 .298 .012 .407a3.8 3.8 0 0 1 -.213 .627c-.164 .389 -.334 .778 -.523 1.155c-.128 .25 -.353 .468 -.413 .73c-.08 .334 -.037 .705 -.049 1.058c-.006 .115 .006 .23 -.006 .352c-.006 .067 -.06 .14 -.049 .201c.025 .116 .08 .22 .122 .329c.067 -.098 .152 -.183 .194 -.286c.183 -.45 .347 -.906 .517 -1.356c.092 -.238 .177 -.475 .274 -.712c.055 -.134 .116 -.261 .182 -.395l.791 -1.55l.08 .017c0 .098 .03 .207 -.007 .292c-.17 .426 -.347 .852 -.53 1.277c-.224 .517 -.467 1.022 -.686 1.545c-.152 .365 -.274 .748 -.408 1.119c-.079 .225 -.182 .444 -.237 .675a6.918 6.918 0 0 0 -.17 1.058l-.176 2.682c-.007 .054 -.11 .152 -.165 .152c-.431 .012 -.863 .006 -1.386 .006c.085 -.292 .152 -.535 .225 -.772c.012 -.05 .03 -.098 .042 -.146c.073 -.347 .104 -.706 .213 -1.034c.183 -.547 .456 -1.064 .608 -1.618c.104 -.365 .061 -.778 .067 -1.167c0 -.043 -.115 -.122 -.17 -.116c-.055 0 -.128 .085 -.152 .146c-.182 .468 -.365 .937 -.53 1.41c-.151 .45 -.279 .907 -.425 1.363c-.11 .347 -.243 .693 -.34 1.046a2.508 2.508 0 0 0 -.067 .572c-.012 .352 -.243 .292 -.475 .28c-.249 -.013 -.291 -.159 -.237 -.347c.11 -.39 .231 -.779 .353 -1.168c.073 -.237 .14 -.48 .219 -.717l.535 -1.636c.085 -.274 .134 -.56 .237 -.827c.152 -.383 .329 -.754 .505 -1.131c.304 -.657 .675 -1.29 .566 -2.056c-.037 -.267 -.08 -.529 -.116 -.796c.043 -.006 .091 -.025 .14 -.037c.048 .158 .128 .31 .146 .468c.036 .365 .042 .736 .06 1.107c.031 .006 .067 .018 .098 .024c.438 -.723 .87 -1.447 1.344 -2.231zm-1.837 7.887c-.06 .049 -.17 .097 -.176 .158c-.037 .328 .018 .675 -.2 .98c-.019 .03 .06 .188 .097 .188c.09 0 .255 -.043 .267 -.092c.08 -.304 .116 -.608 .183 -1.021l-.17 -.213zm-10.185 -12.752c.237 .499 .468 .997 .73 1.544c.413 -.443 .547 -1.052 .966 -1.544c.012 .115 .055 .225 .024 .292c-.212 .438 -.474 .851 -.65 1.307c-.091 .231 -.08 .535 -.03 .785c.078 .407 .224 .808 .34 1.21c.14 .48 .286 .96 .426 1.435a.9 .9 0 0 0 .158 .042c.067 -.182 .097 -.395 .213 -.547c.261 -.334 .2 -.711 .152 -1.07c-.061 -.414 -.225 -.803 -.317 -1.21c-.048 -.22 -.036 -.456 -.048 -.687l.127 -.025l.724 1.922c.432 -.663 .851 -1.295 1.271 -1.934l.091 .03c-.012 .092 0 .195 -.042 .28a38.214 38.214 0 0 1 -.888 1.806c-.353 .663 -.177 1.326 -.08 2.001c.068 .468 .062 .949 .092 1.423c.012 .14 .043 .28 .06 .42c.031 .006 .056 .006 .086 .012c.06 -.073 .152 -.14 .176 -.225c.091 -.316 .152 -.639 .25 -.949c.097 -.328 .219 -.65 .322 -.979c.097 -.31 .188 -.626 .316 -.936c.085 .17 .164 .34 -.024 .492a.23 .23 0 0 0 -.061 .128c-.14 .632 -.255 1.27 -.414 1.903c-.145 .572 -.364 1.12 -.486 1.697c-.08 .383 -.049 .784 -.055 1.18c-.006 .462 0 .924 0 1.423c.128 .06 .17 -.05 .225 -.207c.152 -.45 .316 -.894 .48 -1.338c.153 -.414 .293 -.827 .463 -1.235c.207 -.498 .395 -1.015 .675 -1.471c.243 -.401 .164 -.779 .097 -1.174c-.049 -.28 -.134 -.553 -.194 -.827l-.009 -.075l.009 -.156l.079 -.036c.14 .243 .291 .486 .42 .742c.078 .158 .115 .334 .194 .492c.012 .03 .176 .037 .207 0c.261 -.316 .504 -.645 .766 -.955c.14 -.158 .34 -.158 .474 -.012c.304 .335 .59 .693 .87 1.052c.14 .177 .255 .377 .407 .608c.462 -.28 .566 -.851 1.022 -1.18c-.019 .098 -.012 .207 -.055 .286c-.219 .371 -.42 .76 -.687 1.089c-.237 .286 -.134 .468 .055 .693c.206 .25 .158 .535 .097 .876c-.189 -.231 -.347 -.408 -.474 -.596c-.11 -.164 -.183 -.158 -.286 -.006c-.304 .438 -.602 .882 -.912 1.313a7.51 7.51 0 0 1 -.511 .651c-.268 .31 -.22 .669 -.177 1.028c.03 .249 .116 .492 .116 .742c.018 .766 .006 1.532 .006 2.371c-.243 -.097 -.505 -.14 -.663 -.292c-.079 -.079 .037 -.352 .049 -.535c.036 -.51 .073 -1.028 .097 -1.538c.006 -.128 -.03 -.262 -.055 -.39l-.115 -.018c-.353 .712 -.7 1.423 -1.095 2.214l-.286 -.106l-.322 -.12c.2 -.437 .359 -.838 .56 -1.21c.255 -.474 .529 -.942 .827 -1.386c.212 -.316 .358 -.632 .31 -1.028c-.03 -.249 .012 -.51 -.03 -.76c-.05 -.286 -.147 -.565 -.226 -.845c-.042 -.006 -.085 -.018 -.127 -.024c-.134 .249 -.28 .492 -.408 .742c-.176 .34 -.352 .687 -.517 1.033c-.097 .213 -.152 .438 -.237 .657c-.073 .189 -.164 .371 -.237 .56c-.164 .389 -.328 .778 -.48 1.18c-.104 .28 -.177 .57 -.262 .85c-.274 -.133 -.541 -.26 -.84 -.407c0 -.146 -.042 -.346 .007 -.523c.207 -.778 .14 -1.569 .146 -2.353c.012 -1.259 0 -2.512 -.018 -3.77c-.006 -.231 -.11 -.463 -.177 -.694c-.006 -.018 -.164 -.024 -.182 0c-.189 .31 -.365 .633 -.535 .955c-.03 .055 -.025 .146 0 .207c.219 .553 .261 1.143 .359 1.72c.188 1.126 .14 2.245 .158 3.37c.006 .25 0 .498 0 .742c-.505 .11 -.724 -.061 -.724 -.517c.006 -1.229 .006 -2.45 .006 -3.68c0 -.14 -.036 -.28 -.055 -.425l-.103 -.018c-.073 .146 -.17 .28 -.213 .432c-.085 .285 -.14 .583 -.2 .875c-.08 .402 -.14 .809 -.232 1.21c-.103 .469 -.23 .937 -.352 1.43c-.286 -.232 -.523 -.42 -.754 -.609a.644 .644 0 0 1 .06 -.073c.043 -.067 .104 -.127 .122 -.194c.085 -.329 .14 -.67 .231 -.992c.085 -.322 .207 -.644 .304 -.96c.08 -.244 .146 -.493 .22 -.736c.133 -.456 .23 -.93 .425 -1.362c.134 -.292 .188 -.566 .152 -.858c-.043 -.34 -.14 -.675 -.22 -1.01a19.33 19.33 0 0 0 -.315 -1.21c-.049 -.157 -.158 -.297 -.28 -.522c-.122 .304 -.219 .504 -.286 .711c-.085 .268 -.14 .547 -.23 .815c-.098 .292 -.214 .578 -.317 .864c-.018 .048 -.024 .097 -.037 .146c-.067 .334 -.097 .687 -.212 1.009c-.286 .784 -.353 1.6 -.396 2.426c-.024 .408 -.115 .81 -.182 1.217c-.39 .036 -.584 -.14 -.517 -.523c.097 -.572 .225 -1.138 .334 -1.71c.092 -.467 .159 -.948 .262 -1.416c.085 -.371 .213 -.736 .31 -1.107c.085 -.34 .146 -.693 .237 -1.034c.085 -.316 .2 -.626 .298 -.942c.08 -.243 .146 -.487 .231 -.724c.055 -.152 .164 -.292 .195 -.45c.067 -.365 .048 -.717 -.14 -1.076c-.14 -.268 -.17 -.596 -.237 -.906c-.012 -.067 .024 -.14 .042 -.213h.086zm26.568 -6.543c.048 .14 .085 .194 .091 .255c0 .414 .036 .833 -.018 1.247c-.061 .468 -.213 .924 -.316 1.38c-.08 .328 -.134 .657 -.225 .98c-.134 .467 -.286 .936 -.444 1.398c-.08 .23 -.231 .456 -.256 .693c-.036 .347 -.31 .517 -.474 .76l-1.374 2.007c-.055 .085 -.055 .231 -.037 .347c.049 .304 .11 .602 .182 .9c.043 .182 .116 .364 .201 .632l.046 -.073l.064 -.096a.213 .213 0 0 0 .03 -.062l.401 -1.472c.061 -.213 .11 -.432 .189 -.638c.018 -.046 .07 -.081 .119 -.117l.015 -.013l.004 .119c.015 .358 .047 .72 -.15 1.05c-.012 .019 -.012 .037 -.012 .061c-.073 .675 -.14 1.35 -.22 2.025c-.024 .225 -.097 .438 -.133 .663a.66 .66 0 0 0 0 .268c.042 .243 .11 .48 .14 .723c.079 .609 .115 1.229 .213 1.83c.06 .378 .2 .743 .334 1.102c.11 .298 0 .486 -.219 .662c-.14 .116 -.28 .225 -.468 .377c-.012 -.291 -.012 -.565 -.037 -.839a96.027 96.027 0 0 0 -.188 -1.964c-.006 -.043 -.037 -.085 -.055 -.128c-.036 0 -.073 -.006 -.103 -.006c-.025 .183 -.043 .359 -.067 .541c-.024 .207 -.049 .414 -.067 .615c-.018 .17 -.043 .34 -.055 .51c-.018 .469 -.024 .93 -.06 1.4c-.007 .102 -.104 .218 -.19 .291c-.133 .128 -.291 .225 -.461 .347c-.025 -.037 -.073 -.08 -.067 -.116c.049 -.42 .097 -.833 .152 -1.253c.006 -.03 .018 -.06 .018 -.09c.08 -.652 .146 -1.302 .231 -1.947c.061 -.444 .055 -.918 .225 -1.32c.14 -.334 .164 -.644 .122 -.96c-.08 -.59 -.22 -1.168 -.322 -1.752c-.03 -.188 -.013 -.389 -.055 -.571c-.025 -.091 -.14 -.152 -.22 -.231c-.066 .067 -.145 .127 -.188 .213a3.08 3.08 0 0 0 -.206 .456a3.467 3.467 0 0 0 -.146 .553c-.061 .347 -.14 .687 -.152 1.034c-.037 .79 .054 1.593 -.073 2.365c-.146 .9 -.073 1.806 -.189 2.694c-.03 .262 -.067 .475 .006 .736c.098 .335 -.261 .864 -.584 .955c-.06 .018 -.133 -.012 -.164 -.018c.025 -.262 .043 -.5 .073 -.742c.055 -.414 .122 -.827 .164 -1.247c.03 -.274 -.06 -.584 .05 -.809c.175 -.365 .109 -.73 .145 -1.088c.018 -.183 -.006 -.365 .024 -.548c.092 -.614 .22 -1.222 .298 -1.836c.043 -.31 .006 -.632 .006 -.949l-.097 -.018c-.085 .231 -.164 .462 -.255 .687c-.14 .377 -.286 .754 -.426 1.125c-.17 .462 -.334 .937 -.517 1.393c-.37 .93 -.134 1.897 -.14 2.846c-.006 .498 .116 .997 .183 1.496c-.244 .103 -.432 .182 -.651 .28c.055 -.846 .11 -1.612 .158 -2.396c-.644 .778 -.76 1.757 -1.076 2.712l-.438 .213c-.03 -.013 -.055 -.03 -.085 -.043c.048 -.17 .097 -.34 .152 -.505c.012 -.048 .048 -.085 .06 -.134c.134 -.516 .238 -1.04 .402 -1.544c.2 -.608 .486 -1.192 .657 -1.812c.097 -.347 .06 -.742 .036 -1.113a18.609 18.609 0 0 0 -.188 -1.527c-.019 -.133 -.128 -.249 -.2 -.389c-.086 .067 -.11 .073 -.11 .092c-.08 .364 -.159 .73 -.231 1.094c-.092 .456 -.183 .912 -.28 1.368c-.091 .438 -.189 .876 -.286 1.314c-.11 .492 -.243 .979 -.334 1.478a19.95 19.95 0 0 0 -.244 1.593c-.036 .34 -.273 .547 -.608 .468c.091 -.584 .17 -1.174 .28 -1.751c.097 -.505 .231 -.998 .347 -1.502c.03 -.128 .012 -.262 .036 -.39c.06 -.383 .11 -.772 .195 -1.149c.085 -.383 .219 -.748 .322 -1.125c.024 -.091 -.006 -.2 .006 -.298c.073 -.486 .091 -.997 .25 -1.453c.109 -.316 .176 -.62 .127 -.93c-.067 -.426 -.2 -.84 -.292 -1.265c-.036 -.17 -.042 -.353 -.06 -.53l.133 -.03c.14 .408 .28 .821 .426 1.228c.054 .152 .127 .298 .255 .438a5.02 5.02 0 0 1 .724 -1.86a.67 .67 0 0 0 .11 .012c-.007 .11 .005 .23 -.025 .334c-.103 .401 -.225 .797 -.34 1.192c-.037 .128 -.11 .25 -.122 .383a2.789 2.789 0 0 0 0 .596c.018 .189 .085 .365 .121 .547c.086 .408 .165 .815 .262 1.314c.128 -.225 .231 -.371 .292 -.53c.213 -.553 .395 -1.124 .632 -1.665c.195 -.438 .456 -.852 .675 -1.277c.195 -.377 .377 -.76 .548 -1.144c.048 -.115 .03 -.255 .042 -.389c.012 -.14 .03 -.28 .049 -.42h.079c.03 .165 .067 .335 .11 .542c.31 -.213 .084 -.505 .218 -.742c.28 .322 .426 .055 .602 -.134c.256 -.28 .53 -.535 .772 -.82c.104 -.122 .159 -.287 .238 -.433c.036 -.06 .079 -.121 .127 -.176c.17 -.2 .11 -.493 -.146 -.56c-.468 -.133 -.936 -.243 -1.404 -.37c-.608 -.165 -1.217 -.34 -1.825 -.487c-.243 -.06 -.51 -.049 -.76 -.103c-.213 -.043 -.413 -.134 -.614 -.2c-.31 -.098 -.62 -.214 -.936 -.287c-.402 -.09 -.815 -.134 -1.217 -.23c-.255 -.062 -.383 .084 -.535 .212c-.407 .353 -.875 .541 -1.417 .499c-.024 0 -.042 -.03 -.127 -.098c.133 -.03 .219 -.042 .304 -.073c.31 -.11 .638 -.194 .924 -.352c.164 -.092 .274 -.292 .401 -.444l.019 -.012c.073 -.019 .152 -.067 .218 -.055c.195 .036 .384 .115 .584 .146c.408 .073 .864 .042 1.223 .219c.34 .164 .668 .085 .99 .158c.19 .042 .372 .128 .56 .2c.14 .055 .274 .128 .42 .159c.596 .127 1.198 .237 1.794 .365c.23 .048 .462 .109 .687 .194c.401 .158 .797 .335 1.259 .535c.59 -1.915 .967 -3.904 1.429 -5.971zm.742 8.44c.085 .195 .212 .39 .237 .59c.079 .602 .134 1.21 .164 1.818c.024 .48 .03 .961 .006 1.441c-.03 .487 -.103 .973 -.164 1.46a.205 .205 0 0 1 -.049 .103l-1.842 2.007c-.006 .018 -.03 .018 -.104 .037c0 -.195 .006 -.365 0 -.536c-.054 -.96 -.152 -1.921 -.158 -2.888c-.006 -.45 .128 -.906 .225 -1.356c.073 -.34 .17 -.681 .292 -1.004c.183 -.498 .395 -.99 .596 -1.483l.122 .018c0 .103 .024 .219 -.006 .316c-.11 .371 -.232 .742 -.36 1.113c-.437 1.283 -.09 2.603 -.157 3.904c-.006 .073 .085 .158 .133 .231c.067 -.049 .17 -.085 .195 -.152c.28 -.65 .487 -1.32 .626 -2.031c.22 -1.095 .11 -2.183 .134 -3.278c0 -.097 .018 -.188 .025 -.286a.448 .448 0 0 0 .085 -.024zm-20.092 3.552a.296 .296 0 0 0 -.2 .079c-.238 .298 -.481 .602 -.688 .918c-.097 .146 -.195 .346 -.176 .51c.073 .603 .188 1.205 .304 1.8c.03 .165 .14 .31 .237 .518c.51 -.864 .96 -1.636 1.405 -2.396c-.25 -.45 -.487 -.888 -.73 -1.32c-.03 -.049 -.098 -.11 -.152 -.11zm-10.564 -11.226c.122 .261 .073 .492 .006 .717c-.03 .11 -.08 .22 -.11 .329c-.115 .492 -.23 .991 -.328 1.49c-.042 .225 -.091 .468 -.055 .687c.019 .121 .195 .225 .31 .316c.104 .08 .232 .128 .353 .2c.006 0 .043 -.005 .043 -.018c.079 -.425 .146 -.85 .243 -1.27c.08 -.347 .2 -.688 .298 -1.028c.03 -.116 .03 -.237 .06 -.359c.086 -.322 .214 -.632 .518 -.93c0 .182 .018 .292 -.006 .389c-.049 .25 -.128 .498 -.17 .748c-.074 .462 -.043 .96 -.207 1.38c-.108 .278 -.134 .554 -.143 .83l-.007 .412a5.188 5.188 0 0 1 -.008 .205c-.007 .128 .085 .268 .145 .402c.14 .322 .298 .632 .426 .955c.17 .431 .31 .87 .468 1.307c.019 .049 .05 .091 .055 .14c.213 1.301 .256 2.615 .176 3.928c-.03 .462 -.09 .925 -.176 1.375c-.073 .395 -.213 .778 -.316 1.167c-.08 .322 -.14 .645 -.213 .967c-.055 .231 -.11 .456 -.164 .687c-.487 -.146 -.778 -.413 -.724 -.7c.073 -.37 .195 -.735 .298 -1.1c.006 -.03 .025 -.055 .025 -.085c.073 -.51 .158 -1.022 .218 -1.532c.08 -.639 .086 -1.29 .225 -1.916c.189 -.833 .152 -1.672 .092 -2.5c-.037 -.51 -.207 -1.015 -.34 -1.513c-.043 -.146 -.171 -.274 -.268 -.42c-.025 .018 -.073 .03 -.08 .055c-.066 .407 -.145 .815 -.194 1.222c-.03 .261 0 .53 -.018 .79c-.073 .87 -.17 1.734 -.244 2.603c-.054 .681 -.085 1.368 -.14 2.05c-.018 .218 -.09 .431 -.109 .644c-.024 .34 -.024 .687 -.042 1.028c-.007 .067 -.05 .134 -.08 .207c-.048 -.037 -.103 -.073 -.145 -.122c-.122 -.14 -.213 -.322 -.36 -.42c-.194 -.127 -.151 -.28 -.133 -.45c.06 -.504 .116 -1.01 .182 -1.514c.086 -.638 .195 -1.277 .268 -1.921c.049 -.42 .043 -.846 .079 -1.271c.018 -.213 .091 -.426 .134 -.639a2.01 2.01 0 0 0 .036 -.328v-.224l-.01 -.451a2.64 2.64 0 0 1 .059 -.657c.091 -.365 .122 -.718 .158 -1.076c.03 -.28 -.091 -.475 -.237 -.675a1.638 1.638 0 0 0 -.183 -.225c-.06 -.055 -.152 -.134 -.206 -.122c-.061 .018 -.128 .122 -.14 .195c-.024 .158 .006 .322 -.012 .486a143.33 143.33 0 0 1 -.237 2.268c-.05 .438 -.043 .9 -.189 1.308c-.195 .553 -.11 1.113 -.17 1.666c-.073 .657 -.183 1.314 -.256 1.976c-.018 .152 .067 .31 .104 .463c-.03 .03 -.073 .048 -.116 .072a86.678 86.678 0 0 0 -.535 -.65c.043 -.2 .085 -.34 .097 -.487c.019 -.188 0 -.383 .019 -.577c.06 -.803 .121 -1.612 .2 -2.415c.037 -.395 .037 -.82 .189 -1.167c.213 -.48 .11 -.967 .207 -1.441c.079 -.408 .2 -.81 .297 -1.217c.05 -.2 .086 -.4 .14 -.668c-.316 -.517 -1.07 -.821 -1.155 -1.618c.073 .036 .182 .06 .25 .128c.236 .206 .455 .437 .686 .65c.213 .195 .384 .134 .45 -.152l.201 -.87c.073 -.334 .134 -.668 .225 -.997c.06 -.225 .17 -.444 .286 -.717zm12.6 7.577c-.037 .042 -.085 .073 -.097 .121a.564 .564 0 0 0 -.043 .28c.006 .043 .134 .091 .195 .085c.182 -.03 .352 -.09 .535 -.127c.134 -.03 .28 -.025 .413 -.049c.25 -.049 .499 -.116 .748 -.164c.067 -.03 .158 -.018 .268 -.018c-.012 .42 .389 .346 .59 .523c.073 .066 .176 .109 .267 .158c.347 .2 .687 .407 1.04 .596c.2 .11 .401 .206 .614 .291c.116 .05 .25 .061 .377 .092c.31 .085 .62 .182 .937 .261c.383 .091 .578 .395 .833 .65c.395 .396 .845 .743 1.253 1.126c.474 .438 .942 .894 1.404 1.35c.055 .055 .025 .194 .037 .383c-.614 -.596 -1.143 -1.131 -1.697 -1.648c-.723 -.675 -1.404 -1.417 -2.384 -1.74c-.225 -.072 -.468 -.109 -.687 -.2c-.37 -.158 -.723 -.34 -1.082 -.523c-.286 -.146 -.59 -.273 -.851 -.45c-.444 -.304 -.9 -.584 -1.46 -.498c-.426 .06 -.833 .2 -1.253 .304c-.06 .012 -.121 .042 -.176 .03c-.468 -.116 -.79 .176 -1.125 .413l-.438 .31c-.346 -.176 -.68 -.37 -1.034 -.522c-.395 -.17 -.535 -.505 -.675 -.852c.025 -.024 .043 -.048 .067 -.073c.098 .098 .195 .195 .292 .298c.085 .092 .152 .195 .243 .274c.165 .146 .323 .06 .517 .036c.53 -.066 .937 -.358 1.393 -.559c.292 -.128 .632 -.146 .979 -.158zm19.581 -1.928l.03 .183a.69 .69 0 0 1 .006 .09c-.012 .992 -.018 1.983 -.042 2.98c-.018 .627 -.146 1.26 -.073 1.874c.067 .583 -.17 .966 -.499 1.356c-.067 .079 -.133 .164 -.2 .243a.215 .215 0 0 0 -.086 -.018c.013 -.183 .019 -.36 .037 -.542l.164 -1.897c.067 -.7 .128 -1.405 .207 -2.104c.042 -.407 .097 -.815 .17 -1.216c.055 -.322 .146 -.633 .286 -.949zm-10.623 2.603c.055 .194 .152 .395 .158 .59c.019 .644 .013 1.295 -.006 1.94c-.006 .346 -.054 .699 -.09 1.046c-.007 .054 -.043 .14 -.074 .145a.282 .282 0 0 1 -.176 -.06c-.17 -.14 -.231 -.347 -.128 -.517c.243 -.383 .122 -.809 .189 -1.21a5.24 5.24 0 0 0 .097 -.925c.006 -.237 -.06 -.474 -.091 -.711c-.012 -.085 0 -.177 0 -.268c.042 -.012 .079 -.024 .121 -.03zm-24.561 -3.637c.067 .22 .146 .432 .194 .651c.098 .456 .159 .918 .274 1.368c.31 1.168 .152 2.354 .164 3.527c.006 .292 -.03 .578 -.054 .98c-.14 -.134 -.238 -.195 -.298 -.286c-.098 -.159 -.146 -.365 -.268 -.493c-.25 -.268 -.304 -.566 -.286 -.912c.025 -.596 .012 -1.192 .037 -1.794c.036 -.858 .085 -1.709 .127 -2.566c.006 -.158 0 -.317 0 -.475a.33 .33 0 0 0 .11 0zm21.807 3.698c.243 .067 .437 .115 .669 .176c-.086 .08 -.152 .14 -.268 .237l1.088 .535c-.079 .122 -.17 .274 -.291 .469c-.256 -.396 -.639 -.505 -1.034 -.59c-.043 -.012 -.116 -.055 -.116 -.08c.006 -.255 -.219 -.51 -.048 -.747zm-2.621 -2.19c.225 .426 .17 .682 -.146 .779c-.34 .103 -.694 .158 -1.046 .2c-.237 .03 -.493 -.036 -.724 .013c-.237 .048 -.462 .17 -.669 .292c-.219 .121 -.407 .097 -.62 .006c.572 -.11 1.04 -.329 1.204 -.973c.067 .401 .322 .298 .584 .328c.286 .03 .553 .055 .839 .006c.334 -.055 .663 -.085 .578 -.65zm-5.838 -.848l.006 -.015c-.073 .219 -.11 .462 -.219 .663c-.261 .462 -.553 .906 -.876 1.417c0 -.183 -.048 -.34 .006 -.444c.201 -.377 .432 -.73 .651 -1.095c.091 -.152 .164 -.31 .262 -.45c.022 -.036 .08 -.049 .132 -.063l.038 -.013zm-5.6 -4.85c-.013 .05 -.007 .122 -.037 .153c-.487 .468 -.98 .93 -1.49 1.41c.176 .134 .316 .17 .456 0c.134 -.158 .274 -.31 .444 -.504c-.025 .377 -.414 .894 -.864 .99c-.127 .28 .128 .384 .274 .481c.097 .067 .304 .012 .45 -.03c.274 -.073 .56 -.14 .803 -.28c.48 -.274 .997 -.134 1.496 -.194c.111 -.013 .221 -.045 .331 -.084l.329 -.123c.055 -.018 .11 -.036 .167 -.049a7.33 7.33 0 0 1 .82 -.146c.055 -.006 .122 .049 .177 .08c-.037 .048 -.067 .12 -.116 .14c-.152 .054 -.31 .09 -.468 .115c-.322 .048 -.693 -.025 -.936 .437c.261 0 .468 -.024 .669 .007c.51 .066 .912 -.098 1.3 -.444c.25 -.225 .609 -.323 .925 -.463c.085 -.036 .195 -.006 .323 -.006c-.037 .353 -.335 .39 -.53 .505c-.2 .116 -.456 .14 -.675 .237c-.115 .049 -.2 .17 -.297 .256c.09 .09 .17 .213 .28 .273c.461 .237 .936 .462 1.41 .675c.225 .104 .456 .189 .693 .256c.231 .06 .444 -.177 .475 -.511h.243c-.043 .176 -.049 .353 -.128 .492c-.115 .207 -.121 .469 -.401 .596c-.073 .034 -.125 .113 -.173 .203l-.096 .186a.84 .84 0 0 1 -.053 .086c-.037 .048 -.122 .06 -.183 .097l.128 -.42c.042 -.133 .11 -.267 -.098 -.34c-.103 -.037 -.188 -.128 -.285 -.176c-.36 -.195 -.724 -.39 -1.089 -.584c-.426 -.225 -.845 -.45 -1.277 -.663c-.103 -.049 -.23 -.055 -.346 -.067c-.335 -.036 -.675 -.11 -1.01 -.091c-.31 .018 -.614 .134 -.918 .207c-.408 .097 -.67 .535 -1.131 .504c-.17 -.012 -.36 -.03 -.499 -.115c-.243 -.146 -.468 -.335 -.687 -.517c-.213 -.176 -.176 -.578 -.146 -.821c.047 -.383 .27 -.611 .51 -.826l.206 -.185a2.87 2.87 0 0 0 .099 -.096c.237 -.237 .498 -.444 .76 -.657c.03 -.024 .11 .007 .164 .007zm9.387 3.706l.185 .014c.03 .002 .06 .003 .09 .002c.06 0 .134 .067 .189 .122c.018 .018 -.019 .115 -.043 .127a.587 .587 0 0 1 -.25 .03c-.066 -.011 -.121 -.09 -.182 -.096c-.103 -.007 -.267 -.013 -.304 .042c-.194 .322 -.547 .45 -.803 .693c-.109 .098 -.28 .152 -.431 .177c-.183 .036 -.365 .012 -.615 .012c.225 -.517 .56 -.79 1.028 -.894c.177 -.037 .359 -.024 .535 -.043c.055 -.006 .14 0 .17 -.036c.126 -.145 .278 -.158 .431 -.15zm5 -.945c-.012 .14 -.018 .244 -.024 .353l.585 -.078l.574 -.074l-.004 .03c-.005 .044 -.006 .093 -.024 .098c-.383 .09 -.742 .334 -1.162 .23c-.079 -.017 -.152 -.078 -.237 -.133a4.064 4.064 0 0 0 -.292 .14c-.048 .024 -.127 .06 -.134 .103c-.054 .34 -.322 .396 -.59 .462c-.328 .086 -.662 .165 -.985 .268c-.267 .085 -.298 .073 -.285 -.274c.985 -.018 1.702 -.687 2.578 -1.125zm-4.804 .438c-.335 .189 -.614 .353 -.9 .517c.091 -.395 .474 -.602 .9 -.517zm-10.35 -.353c.395 .222 .676 .065 .943 -.14l.24 -.19a2.5 2.5 0 0 1 .082 -.059c-.493 -.09 -.845 .256 -1.265 .39zm16.747 -.212c.03 .067 .012 .152 .012 .23l-.018 .013l-.225 .036l-.221 .035l-.02 -.067c-.018 -.17 .267 -.114 .278 -.266c.067 .006 .176 -.012 .194 .019zm1.277 -.432c.207 .036 .408 .079 .65 .121c.031 -.018 .104 -.06 .183 -.103c.019 .049 .067 .116 .049 .146c-.055 .085 -.128 .152 -.2 .225c-.019 .018 -.061 .024 -.086 .018c-.213 -.097 -.42 -.194 -.632 -.298a1.3 1.3 0 0 1 .036 -.11zm-9.717 .049c-.164 .14 -.268 .23 -.39 .34l-.297 -.34h.687zm7.17 -1.588c.145 .225 .14 .238 -.87 .76c.2 .025 .407 .043 .608 .073c.273 .05 .547 .08 .809 .17c.225 .074 .322 .262 .225 .524c-.067 0 -.159 .03 -.201 -.006c-.347 -.286 -.748 -.146 -1.125 -.158c-.572 -.019 -.572 0 -.766 -.53c-.317 .207 -.627 .402 -.925 .615c-.474 .328 -1.35 .34 -1.733 .048c.043 -.164 .104 -.298 .11 -.444c.012 -.292 .243 -.425 .523 -.364c.249 .054 .517 .012 .778 .006c.049 0 .091 -.037 .14 -.043c.578 -.085 1.168 -.134 1.733 -.255c.25 -.055 .462 -.256 .693 -.396zm-3.37 -.906c.019 .043 .043 .08 .061 .122c-.182 .115 -.359 .231 -.565 .365c.03 .213 -.092 .383 -.335 .456c-.06 .018 -.152 -.043 -.225 -.067a3.08 3.08 0 0 0 .158 -.134c.019 -.018 .03 -.042 .085 -.11c-.146 -.042 -.249 -.072 -.425 -.12c.462 -.19 .851 -.348 1.246 -.512zm-2.39 .292c-.194 .122 -.364 .237 -.54 .347c.005 .03 .011 .055 .011 .085c.14 .006 .28 .006 .414 .024c.049 .006 .091 .055 .134 .085c-.037 .037 -.073 .104 -.11 .104c-.328 .012 -.65 .006 -.967 .006a.67 .67 0 0 1 -.012 -.11c.055 -.048 .11 -.103 .213 -.2c-.115 -.012 -.176 -.03 -.225 -.019c-.176 .043 -.353 .128 -.529 .134c-.566 .018 -1.131 .012 -1.697 .006c-.079 0 -.158 -.042 -.23 -.06c.06 -.043 .12 -.086 .188 -.128c.121 -.085 .237 -.17 .359 -.243c.067 -.043 .158 -.11 .225 -.092c.389 .104 .772 -.024 1.155 -.006h.082l.165 -.011c.136 -.007 .27 .007 .392 .151c.054 .06 .328 .012 .45 -.067c.188 -.115 .334 -.121 .523 -.006zm18.615 -6.257c.146 -.012 .298 .036 .45 .054v.098c-.067 .018 -.14 .042 -.207 .048c-.2 .006 -.407 .006 -.608 0a7.096 7.096 0 0 0 -2.427 .39c-.638 .225 -1.21 .65 -1.812 .973c-.213 .115 -.456 .17 -.663 .291c-.364 .225 -.784 .128 -1.18 .201c-.194 .037 -.382 .158 -.54 .28c-.5 .383 -1.095 .565 -1.655 .827c-.595 .28 -1.277 .401 -1.77 .876c-.346 .334 -.662 .693 -.996 1.033c-.371 .377 -.742 .748 -1.113 1.125c-.037 .037 -.049 .11 -.073 .158l.015 .004l-.01 .003l-.152 .06c-.37 .159 -.736 .336 -1.167 .304c-.14 -.012 -.292 .159 -.438 .146c-.28 -.024 -.547 -.11 -.827 -.212c.183 -.098 .244 -.487 .602 -.146c.165 .158 .274 -.122 .317 -.317c1.417 .055 2.34 -.735 3.083 -1.745c-.061 -.237 -.116 -.438 -.164 -.614c.456 -.219 .845 -.426 1.246 -.596c.225 -.097 .468 -.176 .706 -.219c.456 -.073 .808 -.304 1.119 -.62c.06 -.061 .103 -.225 .066 -.286a.534 .534 0 0 0 -.304 -.237c-.23 -.043 -.474 -.03 -.754 -.043c.104 -.225 .158 -.395 .402 -.213c.06 .049 .176 .037 .261 .037c.833 .006 1.66 .03 2.493 .006a2.206 2.206 0 0 0 1.052 -.316c.292 -.17 .627 -.268 .937 -.414c.413 -.2 .815 -.425 1.222 -.632c.085 -.043 .183 -.098 .274 -.104c.87 -.073 1.745 -.14 2.615 -.2zm-24.173 5.91c-.09 .03 -.146 .074 -.2 .067c-.39 -.042 -.694 .104 -.991 .341c-.238 .182 -.542 .28 -.864 .444c.03 -.59 1.478 -1.156 2.055 -.851zm17.953 -.528c-.044 .06 -.08 .164 -.141 .182l-1.83 .432c-.396 .097 -.785 .219 -1.174 .328l-.03 .006c-.998 .104 -1.983 .286 -2.992 .183c-.055 -.005 -.103 -.06 -.152 -.114l-.04 -.041l.38 -.072c.13 -.024 .258 -.047 .39 -.065c.218 -.03 .443 -.012 .662 -.049c.608 -.097 1.21 -.219 1.818 -.322c.146 -.025 .304 -.006 .45 -.037c.596 -.11 1.192 -.237 1.794 -.34c.19 -.033 .387 -.049 .583 -.065l.282 -.026zm-8.452 -1.461l-.002 -.011c.049 .17 -.03 .267 -.146 .407c-.347 .42 -.638 .888 -.96 1.332c-.08 .11 -.19 .195 -.287 .292l-.079 -.043c.019 -.085 .019 -.182 .067 -.243c.146 -.182 .323 -.346 .475 -.529c.067 -.079 .164 -.182 .164 -.274c.006 -.364 .31 -.516 .505 -.748c.05 -.063 .127 -.103 .201 -.145l.062 -.038zm-7.184 .177c.061 .025 .17 .073 .28 .11c.091 .03 .182 .073 .274 .079c.565 .006 1.13 .012 1.696 0c.104 0 .201 -.11 .31 -.128c.159 -.03 .317 -.03 .475 -.042c.006 .03 .006 .054 .012 .085c-.17 .085 -.335 .207 -.517 .255c-.37 .085 -.754 .11 -1.119 .2c-.274 .074 -.523 .25 -.797 .317c-.273 .067 -.571 .049 -.857 .049a.511 .511 0 0 1 -.024 -.262c.067 -.2 .158 -.389 .267 -.663zm-12.466 -1.83a.251 .251 0 0 0 .043 .067c-.183 .176 -.371 .346 -.554 .523c.414 .578 1.01 .7 1.654 .37c.085 -.042 .201 -.017 .34 -.03c-.188 .231 -.188 .231 -1.288 .396l.018 .298c.584 .17 1.01 -.146 1.417 -.426c.255 -.176 .529 -.225 .809 -.286c.048 -.012 .11 -.012 .146 .012c.389 .213 .456 .189 .784 -.067c.17 -.133 .401 -.2 .675 -.334c-.207 .401 -.122 .565 .225 .517c.213 -.03 .407 -.17 .608 -.262c.152 -.067 .304 -.146 .456 -.206c.335 -.128 .67 -.256 1.004 -.377a.64 .64 0 0 1 .206 -.05c.067 .007 .134 .043 .201 .068c-.049 .048 -.091 .115 -.152 .14c-.353 .133 -.705 .255 -1.058 .395c-.055 .018 -.11 .122 -.104 .176c.007 .061 .08 .146 .134 .158c.657 .146 1.156 .566 1.679 .937c.036 .03 .036 .11 .054 .164c-.067 0 -.146 .024 -.188 0c-.456 -.28 -.906 -.572 -1.368 -.851a.547 .547 0 0 0 -.262 -.055a58.245 58.245 0 0 0 -2.061 -.012c-.268 .006 -.53 .115 -.797 .14c-.182 .018 -.37 -.049 -.56 -.049c-.121 0 -.285 .03 -.352 .11c-.28 .328 -.693 .377 -1.052 .486c-.17 .049 -.438 -.134 -.62 -.268c-.14 -.097 -.225 -.28 -.341 -.425c-.237 -.31 -.499 -.62 -.395 -1.046c.273 -.085 .486 -.146 .7 -.213zm20.751 .392l-.002 -.015c.121 .377 -.28 .45 -.414 .681c-.121 .213 -.328 .383 -.505 .56c-.027 .027 -.082 .023 -.133 .025l-.04 .003l-.008 .002v-.001l.01 -.067c.01 -.122 .029 -.232 .165 -.333c.128 -.098 .177 -.31 .28 -.505c.213 .108 .337 .007 .451 -.126l.097 -.118l.05 -.057l.049 -.049zm-3.371 -.197l-.624 .55l-.619 .541l-.015 -.07c-.017 -.082 -.033 -.173 -.056 -.292c-.583 .511 -1.258 .602 -1.964 .627c-.012 -.025 -.049 -.073 -.079 -.128c-.012 -.024 0 -.055 0 -.103c.231 -.043 .462 -.086 .766 -.14c-.012 -.012 .049 .036 .134 .103c.043 -.134 .085 -.237 .134 -.383c.261 .42 .432 0 .638 -.043c.201 -.036 .377 -.194 .572 -.291c.25 -.122 .499 -.244 .754 -.347a.6 .6 0 0 1 .359 -.024zm3.673 -.754c.03 0 .06 0 .091 .006c0 .103 .036 .23 -.006 .31c-.108 .189 -.072 .47 -.293 .585l-.088 .032l.147 -.462l.149 -.471zm-8.332 .139c.043 .383 -.09 .548 -.45 .548h-.553c0 -.03 -.006 -.067 -.006 -.098l.614 -.127c0 -.025 .007 -.049 .007 -.073c-.153 -.037 -.305 -.073 -.45 -.116l-.007 -.091l.428 -.021l.417 -.022zm7.42 -1.337c.03 .048 .067 .085 .06 .109c-.036 .176 -.559 .626 -.735 .669c-.268 .067 -.554 .122 -.797 .243c-.353 .189 -.675 .432 -1.028 .657c-.097 -.383 0 -.547 .34 -.705c.274 -.128 .524 -.305 .78 -.463c.024 -.012 .048 -.054 .066 -.048c.499 .036 .9 -.207 1.314 -.462zm-4.981 -1.073v-.01c.037 .28 -.2 .42 -.365 .523c-.614 .377 -1.07 .9 -1.52 1.441c-.128 .155 -.223 .383 -.448 .446l-.101 .015l-.008 -.09c-.004 -.214 .125 -.344 .332 -.456c.116 -.06 .176 -.213 .262 -.334c.097 -.14 .158 -.377 .285 -.414c.383 -.11 .548 -.456 .84 -.663a6.22 6.22 0 0 1 .483 -.312l.24 -.146zm.624 1.694l.115 .009l-.042 .064c-.058 .096 -.11 .207 -.192 .236a4.855 4.855 0 0 1 -.575 .162l-.289 .069v-.395c.134 .085 .201 .134 .262 .17c.213 -.186 .44 -.321 .721 -.315zm1.432 -.67l-.658 .337l-.651 .331l-.005 -.095a7.86 7.86 0 0 0 -.012 -.184c.347 -.164 .663 -.322 .991 -.45c.104 -.042 .237 -.006 .335 .06zm-6.83 -.195c.153 .34 .335 .39 .694 .17c.17 -.103 .334 -.194 .565 .013c-.352 .182 -.68 .346 -1.01 .51c.007 -.048 .02 -.14 .007 -.145c-.28 -.098 -.566 -.189 -.845 -.268c-.019 -.006 -.085 .085 -.08 .097c.025 .043 .074 .092 .116 .104c.28 .09 .547 .158 .815 .219c-.06 .048 -.115 .14 -.182 .14a3.044 3.044 0 0 1 -1.545 -.298a.943 .943 0 0 0 -.705 -.013c-.396 .165 -.688 -.09 -1.034 -.146c.243 -.048 .432 -.431 .736 -.11c.042 .05 .176 .02 .267 .013c.11 -.006 .231 -.049 .329 -.024c.662 .158 1.252 -.158 1.873 -.262zm-8.027 -1.04l.087 .017l.021 -.007l-.01 .015l.007 .069c.005 .179 -.207 .202 -.3 .283c-.352 .335 -.74 .615 -1.118 .925c-.116 .097 -.213 .219 -.334 .304c-.073 .055 -.177 .055 -.347 .103c.565 -.523 1.046 -.985 1.55 -1.423c.128 -.111 .242 -.298 .444 -.286zm26.49 .061c.304 .049 .602 .134 .9 .2v.092c-.11 .012 -.213 .03 -.323 .03c-.443 .007 -.893 -.024 -1.331 .03c-.45 .056 -.888 .19 -1.332 .293a.81 .81 0 0 0 -.116 .03c-1.192 .25 -2.396 .25 -3.606 .25c-.413 0 -.833 .103 -1.228 .225c-.164 .036 -.274 .261 -.426 .42c-.067 -.524 .098 -.986 .359 -1.393c.262 .11 .48 .212 .705 .285c.286 .086 .578 .152 .87 .213c.073 .018 .176 .012 .237 -.03c.262 -.158 .505 -.14 .779 -.006c.103 .048 .255 .012 .377 -.006c.085 -.012 .17 -.08 .255 -.085c.705 -.08 1.417 -.122 2.122 -.225c.42 -.061 .827 -.207 1.247 -.292a1.45 1.45 0 0 1 .51 -.03zm-24.635 .56c.025 .152 .043 .298 .061 .431c-.304 .116 -.632 .232 -.979 .36c-.158 -.347 .432 -.828 .918 -.791zm18.037 -8.228c-.012 .085 .006 .2 -.043 .25c-.486 .468 -.979 .93 -1.484 1.38c-.291 .261 -.59 .54 -.93 .711c-.596 .298 -.98 .84 -1.526 1.18c-.25 .158 -.463 .383 -.688 .578c.025 .03 .05 .067 .073 .097c.262 .079 .517 .195 .779 .237c.535 .091 1.07 .146 1.611 .213c.846 .097 1.69 .182 2.579 .28l.004 .014a.29 .29 0 0 1 .008 .065c0 .048 -.012 .097 -.024 .225a45.53 45.53 0 0 0 -.627 -.152a1.599 1.599 0 0 0 -.237 -.037c-.353 -.012 -.711 .006 -1.064 -.03c-.566 -.049 -1.143 -.061 -1.679 -.22a3.832 3.832 0 0 0 -.93 -.139c-.565 -.018 -1.204 .456 -1.423 .991c-.14 .335 -.353 .639 -.547 .949c-.243 .39 -.499 .766 -.754 1.15c-.03 .048 -.128 .054 -.189 .078c-.018 -.389 .28 -.632 .438 -.93a19.41 19.41 0 0 1 .9 -1.533c.25 -.389 .505 -.772 .809 -1.118c.401 -.45 .845 -.87 1.295 -1.278c.408 -.37 .833 -.723 1.271 -1.058c.286 -.219 .626 -.364 .9 -.59l.385 -.341l.746 -.717l.164 -.152c.055 -.042 .122 -.073 .183 -.103zm-14.163 6.939c.499 .225 1.015 .103 1.52 .145c.292 .025 .584 -.006 .882 0c.043 0 .091 .03 .164 .055c-.055 .049 -.079 .085 -.103 .091c-.693 .128 -1.387 .22 -2.092 .22c-.414 0 -.833 .176 -1.301 .28c0 -.22 -.013 -.457 .006 -.694c.006 -.049 .115 -.122 .176 -.128c.25 -.006 .541 -.067 .748 .03zm-3.436 -.986c.018 .037 .043 .08 .06 .116c-.346 .267 -.692 .547 -1.045 .809c-.28 .206 -.56 .407 -.851 .602a.935 .935 0 0 1 -.243 .102l-.106 .035l.097 -.122c.106 -.14 .21 -.283 .343 -.392c.48 -.383 .985 -.736 1.49 -1.089c.067 -.048 .17 -.042 .255 -.06zm20.408 -3.004c-.006 .104 .025 .237 -.024 .31c-.335 .475 -.693 .93 -1.04 1.4c-.018 .03 -.018 .072 -.036 .175c.583 -.054 1.149 .14 1.69 -.14a.306 .306 0 0 1 .146 -.036c.718 0 1.435 0 2.153 .006c.024 0 .048 .025 .121 .073c-.09 .037 -.146 .067 -.2 .073l-2.445 .14c-.407 .022 -.815 .04 -1.222 .055c-.335 .012 -.487 .158 -.65 .42c-.232 .376 -.524 .723 -.791 1.082c-.134 .182 -.256 .37 -.39 .553c-.03 -.018 -.073 -.03 -.115 -.049c.085 -.17 .152 -.346 .25 -.51c.218 -.353 .437 -.706 .674 -1.046c.274 -.402 .566 -.79 .845 -1.186c.244 -.347 .469 -.693 .712 -1.04a.878 .878 0 0 1 .322 -.28zm-9.194 1.648c.11 .48 .042 .548 -.383 .578c-.56 .049 -1.15 .06 -1.679 .225c-.748 .237 -1.544 .426 -2.122 1.04c-.097 .103 -.213 .194 -.353 .322c-.079 -.298 -.243 -.28 -.432 -.207c-.577 .231 -1.137 .159 -1.69 -.188c.103 -.018 .207 -.067 .304 -.06c.316 .023 .602 0 .906 -.14c.274 -.128 .602 -.135 .906 -.201c.2 -.043 .407 .018 .59 -.195c.122 -.134 .383 -.14 .578 -.219c.115 -.049 .219 -.116 .328 -.182c.189 -.116 .365 -.28 .566 -.353c.298 -.103 .614 -.134 .924 -.2c.134 -.031 .261 -.068 .426 -.11c.024 .018 .079 .073 .152 .14c.066 -.092 .121 -.158 .188 -.25c.073 .098 .128 .158 .158 .195c.243 -.073 .438 -.134 .633 -.195zm4.092 -7.936c.14 .28 -.11 .463 -.213 .596a7.144 7.144 0 0 1 -1.088 1.138a52.55 52.55 0 0 1 -2.433 1.873a1.75 1.75 0 0 1 -.353 .19l-.384 .151a2.75 2.75 0 0 0 -.187 .084a9.236 9.236 0 0 0 -.924 .523c-.48 .31 -.955 .627 -1.411 .967c-.225 .17 -.401 .408 -.608 .614c-.195 .195 -.39 .39 -.59 .578c-.037 .036 -.085 .08 -.122 .08c-.517 -.02 -.863 .31 -1.246 .57c-.329 .226 -.7 .39 -1.046 .578c-.383 .213 -.76 .432 -1.15 .639c-.109 .06 -.237 .122 -.358 .122c-.335 .006 -.675 -.019 -1.01 -.03c0 -.02 0 -.05 -.006 -.086c.535 -.103 1.18 .103 1.533 -.541c-.019 -.03 -.073 -.104 -.17 -.243c.212 .012 .364 .024 .547 .03c.042 -.146 .09 -.225 .34 -.17c.207 .048 .487 -.08 .693 -.201c.493 -.286 .81 -.79 1.344 -1.052c-.073 -.103 -.115 -.17 -.194 -.274c.474 -.018 .736 -.273 .924 -.65c.037 -.067 .17 -.092 .262 -.134c.03 .03 .06 .067 .09 .097c-.066 .091 -.12 .195 -.194 .274c-.128 .14 -.267 .267 -.407 .389c-.067 .06 -.164 .097 -.225 .164c-.055 .055 -.08 .14 -.116 .213c.097 .043 .256 .146 .28 .122c.292 -.304 .638 -.542 .851 -.937c.183 -.334 .53 -.578 .809 -.857c.067 -.073 .182 -.116 .219 -.195c.097 -.219 .28 -.188 .462 -.237c.328 -.091 .633 -.268 .937 -.426c.413 -.213 .82 -.438 1.228 -.669c.328 -.188 .663 -.383 .973 -.608c.474 -.34 .936 -.7 1.38 -1.076c.377 -.316 .724 -.669 1.07 -1.016c.177 -.176 .317 -.377 .493 -.59zm-13.621 7.664a52.85 52.85 0 0 0 -.45 .79c-.146 -.316 .121 -.796 .45 -.79z" />
</svg>
