<svg xmlns="http://www.w3.org/2000/svg" width="48" height="48" viewBox="0 0 48 48" fill="currentColor"><path d="M8.143 20.826c-.109 .702 -.377 1.303 -.842 1.813c-.327 .356 -.719 .61 -1.171 .777a3.1 3.1 0 0 1 -.893 .168a4.875 4.875 0 0 1 -1.157 -.072c-.27 -.048 -.513 -.165 -.769 -.245c-.1 -.031 -.182 -.117 -.27 -.182c-.184 -.136 -.392 -.243 -.543 -.42c-.13 -.152 -.243 -.32 -.36 -.483a2.971 2.971 0 0 1 -.434 -.939a5.846 5.846 0 0 1 -.18 -2.06c.025 -.3 .032 -.61 .124 -.892c.107 -.33 .174 -.683 .406 -.964c.076 -.09 .128 -.201 .2 -.296c.6 -.804 1.412 -1.217 2.407 -1.274c.442 -.025 .878 .013 1.31 .12c.852 .212 1.493 .698 1.898 1.48c.147 .282 .245 .584 .291 .902c.015 .097 -.01 .139 -.117 .137c-.44 -.005 -.88 -.005 -1.32 0c-.111 .002 -.162 -.047 -.187 -.15a1.803 1.803 0 0 0 -.09 -.272a1.327 1.327 0 0 0 -.859 -.775a1.88 1.88 0 0 0 -1.28 .015c-.356 .134 -.608 .39 -.796 .71c-.151 .256 -.26 .526 -.315 .824a4.972 4.972 0 0 0 .03 2.028c.085 .366 .255 .687 .517 .962c.543 .565 1.394 .628 2.01 .322c.3 -.149 .523 -.375 .634 -.712c.05 -.153 .15 -.291 .189 -.455c.019 -.073 .078 -.069 .134 -.069c.465 .002 .933 .002 1.433 .002zm-.008 8.335c-.021 .258 -.09 .478 -.17 .692a3.304 3.304 0 0 1 -.762 1.207c-.48 .475 -1.063 .733 -1.725 .821a4.648 4.648 0 0 1 -.98 .01a3.43 3.43 0 0 1 -.862 -.196c-.81 -.277 -1.343 -.853 -1.72 -1.6c-.251 -.498 -.35 -1.036 -.394 -1.583c-.063 -.794 .002 -1.576 .279 -2.33a3.2 3.2 0 0 1 .767 -1.211a2.932 2.932 0 0 1 1.6 -.834c.671 -.111 1.34 -.095 1.989 .113c1.104 .352 1.752 1.119 1.988 2.244c.007 .034 .01 .07 .015 .103c.01 .075 -.012 .123 -.098 .117c-.036 -.002 -.07 0 -.105 0h-1.153c-.2 0 -.2 0 -.27 -.2a.848 .848 0 0 0 -.03 -.077c-.152 -.425 -.412 -.74 -.854 -.898c-.786 -.283 -1.683 -.101 -2.142 .704a2.843 2.843 0 0 0 -.343 1.02c-.09 .614 -.088 1.226 .06 1.83c.107 .437 .323 .81 .673 1.106c.547 .46 1.438 .44 1.894 .159c.34 -.208 .585 -.507 .702 -.897c.009 -.025 .002 -.057 .01 -.082c.053 -.199 .093 -.226 .298 -.228h1.132l.2 .01zm16.57 -8.12c-.004 .148 .017 .284 .048 .422c.189 .836 .974 1.056 1.586 .861a.854 .854 0 0 0 .503 -.419c.067 -.126 .149 -.155 .283 -.153c.419 .009 .836 .002 1.26 .002c0 .277 -.112 .501 -.256 .715c-.449 .66 -1.075 1.01 -1.87 1.085a3.562 3.562 0 0 1 -.896 -.02a2.578 2.578 0 0 1 -.704 -.235c-.476 -.235 -.866 -.566 -1.125 -1.023c-.128 -.226 -.185 -.492 -.233 -.75a4.636 4.636 0 0 1 0 -1.75c.258 -1.27 1.213 -2.12 2.648 -2.078c.43 .012 .84 .102 1.224 .297c.516 .262 .847 .694 1.069 1.216c.18 .419 .22 .86 .239 1.31c.004 .125 0 .25 .004 .376c.002 .086 -.025 .132 -.12 .126c-.048 -.004 -.098 0 -.146 0h-3.267c-.075 0 -.153 -.01 -.247 .019zm.031 -.98h.22c.579 0 1.155 .002 1.733 0c.33 -.002 .31 .055 .237 -.306a1.05 1.05 0 0 0 -.977 -.857c-.521 -.037 -.896 .195 -1.097 .686c-.06 .142 -.101 .289 -.116 .477zm2.994 9.272h-1.697c-.195 0 -.2 .006 -.176 .201c.021 .16 .057 .317 .116 .465c.308 .78 1.242 .839 1.688 .564a1 1 0 0 0 .352 -.373c.046 -.084 .099 -.117 .197 -.115c.398 .006 .797 0 1.195 .002c.146 0 .159 .017 .127 .155a1.468 1.468 0 0 1 -.205 .478c-.367 .572 -.867 .957 -1.542 1.098c-.788 .163 -1.54 .088 -2.238 -.342a2.3 2.3 0 0 1 -.892 -.972c-.176 -.356 -.225 -.738 -.26 -1.119a4.197 4.197 0 0 1 .293 -2.01c.06 -.148 .178 -.278 .277 -.41c.454 -.6 1.08 -.874 1.81 -.932c.45 -.038 .89 .023 1.316 .186c.601 .23 1.001 .666 1.268 1.24c.261 .562 .272 1.161 .274 1.763c0 .134 -.08 .121 -.165 .121h-1.738zm-.73 -.96c.326 0 .655 .003 .982 0c.134 -.002 .145 -.01 .126 -.144c-.04 -.291 -.143 -.553 -.371 -.75a1.093 1.093 0 0 0 -1.716 .383c-.05 .115 -.086 .237 -.113 .359c-.032 .144 -.026 .152 .127 .152c.321 .003 .644 0 .964 0zm-13.055 1.704a.971 .971 0 0 1 -.153 .518c-.385 .685 -.96 1.108 -1.739 1.246c-.475 .084 -.955 .08 -1.41 -.052a2.628 2.628 0 0 1 -1.398 -.956c-.24 -.322 -.322 -.697 -.404 -1.074c-.086 -.397 -.08 -.803 -.05 -1.197a3.22 3.22 0 0 1 .34 -1.242c.37 -.717 .97 -1.105 1.74 -1.258c.403 -.08 .813 -.075 1.207 .015c.954 .22 1.553 .832 1.825 1.766c.13 .449 .13 .91 .132 1.37c0 .093 -.035 .129 -.123 .12c-.048 -.004 -.099 0 -.147 0h-3.287c-.049 0 -.099 .002 -.147 0c-.067 -.004 -.078 .034 -.08 .092a1.227 1.227 0 0 0 1.595 1.237a.902 .902 0 0 0 .555 -.449c.059 -.11 .132 -.138 .25 -.136c.425 .004 .848 0 1.294 0zm-3.683 -1.735c.08 .05 .159 .03 .232 .03h1.633c.452 0 .463 -.013 .312 -.445a1.034 1.034 0 0 0 -.922 -.706c-.516 -.033 -.849 .147 -1.065 .572c-.09 .18 -.121 .371 -.19 .55zm31.572 -2.722c-.035 -.067 -.02 -.13 -.023 -.19c-.002 -.258 0 -.518 0 -.776c0 -.239 0 -.211 .2 -.199c.133 .007 .263 -.002 .395 -.023c.254 -.04 .394 -.174 .52 -.415c.16 -.308 .086 -.547 -.044 -.819c-.076 -.16 -.105 -.34 -.164 -.507c-.146 -.421 -.3 -.842 -.45 -1.264a268.96 268.96 0 0 1 -.488 -1.385c-.153 -.444 -.31 -.886 -.465 -1.328c-.099 -.279 -.179 -.564 -.288 -.83c.03 -.052 .068 -.044 .099 -.044c.455 0 .907 .002 1.362 -.004c.109 -.002 .163 .034 .186 .143c.072 .339 .197 .664 .285 .999c.07 .26 .16 .518 .24 .775c.194 .644 .383 1.289 .575 1.934c.013 .044 .007 .1 .074 .13c.038 -.046 .048 -.107 .065 -.163l1.003 -3.583c.013 -.046 .032 -.092 .04 -.14c.013 -.07 .055 -.089 .118 -.089h1.422c.017 .095 -.027 .162 -.052 .233c-.149 .421 -.302 .84 -.448 1.261c-.174 .501 -.344 1.006 -.518 1.507c-.147 .421 -.302 .84 -.448 1.261c-.139 .396 -.264 .796 -.407 1.19c-.205 .568 -.41 1.136 -.687 1.672c-.16 .306 -.421 .5 -.755 .583c-.36 .092 -.73 .078 -1.1 .067c-.083 .004 -.165 -.013 -.247 .004zm-29.064 -2.937c-.124 .115 -.229 .232 -.344 .343a1.674 1.674 0 0 1 -.874 .46a2.918 2.918 0 0 1 -1.06 -.03c-.492 -.099 -.823 -.403 -1.091 -.8c-.021 -.202 -.135 -.37 -.162 -.575c-.094 -.68 -.05 -1.362 -.058 -2.043c-.009 -.677 -.003 -1.353 -.003 -2.032c0 -.157 .003 -.162 .164 -.162c.383 -.002 .769 -.002 1.152 0c.178 0 .18 .003 .18 .187v3.143c0 .195 .003 .392 .057 .582a.703 .703 0 0 0 .576 .535c.24 .048 .474 .037 .698 -.05c.346 -.137 .532 -.382 .622 -.761c.113 -.48 .065 -.954 .076 -1.43c.012 -.676 .002 -1.353 .004 -2.032c0 -.17 .002 -.171 .174 -.171c.377 -.003 .754 -.003 1.131 0c.17 0 .172 .002 .172 .173v5.114c0 .047 -.002 .098 0 .146c.004 .081 -.035 .109 -.113 .109c-.398 -.002 -.796 -.002 -1.194 0c-.086 0 -.105 -.042 -.103 -.116c-.002 -.2 -.004 -.396 -.004 -.59zm18.14 -4.118c.043 -.054 .093 -.11 .135 -.17c.296 -.402 .7 -.611 1.186 -.664a2.488 2.488 0 0 1 1.017 .082c.548 .17 .97 .484 1.123 1.07c.062 .242 .102 .489 .102 .74v3.56c0 .036 -.002 .07 0 .105c.004 .073 -.035 .097 -.102 .097c-.084 -.003 -.168 0 -.252 0h-.922c-.253 0 -.22 .012 -.22 -.231c0 -1.02 -.004 -2.039 .002 -3.057c0 -.195 -.023 -.388 -.054 -.576c-.048 -.287 -.3 -.522 -.622 -.574a1.39 1.39 0 0 0 -.602 .023c-.383 .109 -.601 .373 -.708 .743a2.43 2.43 0 0 0 -.082 .684c.002 .915 0 1.829 0 2.744c0 .049 -.002 .099 0 .147c.004 .073 -.033 .099 -.1 .097c-.084 -.003 -.168 0 -.252 0c-.314 0 -.628 .002 -.943 0c-.159 0 -.161 -.005 -.161 -.162c-.002 -.593 0 -1.186 0 -1.78v-3.33c0 -.049 .002 -.099 0 -.147c-.004 -.078 .025 -.113 .109 -.113c.398 .002 .796 .002 1.194 0c.082 0 .11 .035 .11 .113c-.003 .161 -.003 .32 0 .482c0 .036 -.018 .082 .041 .117zm-14.494 8.348c.07 -.027 .088 -.07 .109 -.1c.341 -.516 .831 -.759 1.441 -.774a2.5 2.5 0 0 1 1.14 .214c.5 .233 .77 .627 .868 1.152c.033 .179 .05 .359 .05 .541c-.002 1.18 -.002 2.36 -.002 3.541v.042c-.002 .18 -.002 .182 -.185 .182h-1.11c-.195 0 -.195 -.002 -.197 -.192c0 -1.042 0 -2.081 -.002 -3.122c0 -.132 -.004 -.267 -.02 -.399c-.045 -.42 -.282 -.674 -.699 -.74c-.51 -.079 -1.098 .082 -1.29 .841c-.05 .197 -.06 .396 -.06 .595v2.787c0 .247 .02 .23 -.221 .23c-.363 0 -.727 -.002 -1.09 .002c-.107 .003 -.157 -.029 -.147 -.142c.005 -.048 0 -.099 0 -.147v-4.964c0 -.056 .002 -.11 0 -.167c-.004 -.078 .028 -.115 .11 -.113c.397 .002 .796 .002 1.194 0c.081 0 .109 .033 .109 .113l.002 .62zm23.44 -7.076c-.21 0 -.419 -.002 -.628 0c-.082 0 -.13 -.019 -.143 -.11c-.008 -.06 -.048 -.114 -.063 -.173c-.094 -.398 -.385 -.563 -.754 -.605c-.459 -.053 -.828 .136 -1.054 .555c-.143 .264 -.168 .547 -.2 .834c-.043 .406 -.01 .81 .076 1.207c.143 .664 .918 1.014 1.532 .71a.629 .629 0 0 0 .31 -.327c.059 -.138 .134 -.274 .147 -.427c.008 -.092 .038 -.134 .14 -.132c.413 .006 .824 .004 1.236 .002c.095 0 .12 .038 .111 .126c-.014 .125 -.04 .249 -.077 .366c-.337 1.019 -1.09 1.664 -2.248 1.714c-.392 .017 -.784 -.006 -1.155 -.128a1.98 1.98 0 0 1 -.957 -.645a2.86 2.86 0 0 1 -.514 -1.02c-.142 -.503 -.144 -1.014 -.113 -1.532a3.12 3.12 0 0 1 .245 -1.069c.29 -.647 .757 -1.135 1.46 -1.343a3.226 3.226 0 0 1 1.593 -.056c.252 .052 .499 .11 .727 .228c.384 .197 .669 .476 .832 .895c.096 .25 .168 .498 .212 .758c.027 .168 .025 .17 -.153 .172c-.185 .002 -.373 0 -.562 0zm-18.294 9.28v-1.655c0 -.212 0 -.212 -.22 -.212c-.14 0 -.279 -.002 -.42 0c-.091 .002 -.142 -.02 -.14 -.127c.005 -.267 .005 -.53 0 -.797c0 -.083 .036 -.109 .114 -.109c.173 .002 .35 -.004 .523 .002c.111 .005 .145 -.037 .143 -.144c-.004 -.377 -.002 -.754 -.002 -1.132c0 -.048 .004 -.098 0 -.146c-.01 -.105 .042 -.136 .136 -.128c.042 .004 .084 0 .126 0h.984c.185 0 .187 .002 .187 .18c.002 .377 0 .754 0 1.132c0 .042 .002 .083 0 .125c-.004 .08 .031 .111 .111 .111c.216 -.002 .434 .002 .65 -.002c.096 -.002 .138 .025 .136 .128c-.007 .258 -.004 .518 0 .775c.002 .099 -.032 .139 -.132 .137c-.174 -.005 -.35 -.003 -.524 -.003c-.268 .003 -.241 -.018 -.241 .233v2.2c0 .174 -.002 .35 .002 .524c.008 .4 .06 .453 .467 .463c.021 0 .042 -.002 .063 0c.115 .013 .266 -.054 .34 .032c.07 .081 .02 .228 .023 .345c.004 .195 0 .392 .002 .587c0 .071 -.015 .12 -.103 .121c-.467 .01 -.934 .074 -1.398 -.04a1.906 1.906 0 0 1 -.2 -.056c-.386 -.132 -.59 -.406 -.62 -.809a3.941 3.941 0 0 1 -.01 -.272c.003 -.486 .003 -.974 .003 -1.463zm10.438 -2.053c.069 -.1 .142 -.2 .21 -.302c.31 -.473 .75 -.71 1.313 -.725c.036 0 .07 -.004 .105 -.002c.17 .008 .178 .015 .18 .178c.002 .392 .002 .782 0 1.174c0 .136 -.004 .14 -.142 .134a3.342 3.342 0 0 0 -.566 .006c-.373 .044 -.683 .195 -.876 .534c-.073 .13 -.107 .27 -.13 .415a3.907 3.907 0 0 0 -.044 .606c.002 .781 0 1.565 0 2.346v.126c-.004 .151 -.004 .153 -.149 .155c-.153 .002 -.308 0 -.46 0c-.237 0 -.476 -.004 -.713 .002c-.109 .002 -.147 -.035 -.145 -.144c.007 -.279 .002 -.56 .002 -.838v-4.317c0 -.272 -.04 -.251 .262 -.253h.901c.243 0 .22 -.004 .22 .211v.683c.01 .005 .021 .007 .032 .01zm-13.227 -7.864c-.28 -.006 -.53 -.031 -.78 .017c-.559 .107 -.865 .423 -.94 .993c-.028 .208 -.04 .417 -.04 .627c.002 .787 0 1.575 0 2.365c0 .193 .012 .185 -.18 .183h-1.109c-.17 0 -.172 -.003 -.172 -.172v-5.19c0 -.172 .003 -.174 .172 -.174c.356 -.002 .713 -.002 1.067 0c.15 0 .153 .004 .155 .148c.002 .237 0 .472 0 .709c.082 .012 .088 -.05 .113 -.084c.084 -.111 .16 -.229 .247 -.338c.346 -.437 .817 -.58 1.354 -.561c.075 .002 .115 .025 .115 .107c-.002 .446 -.002 .899 -.002 1.37zm2.246 -.467l.344 -.467c.18 -.243 .427 -.39 .71 -.476c.208 -.063 .421 -.084 .64 -.073c.077 .004 .112 .027 .112 .11c-.002 .426 -.002 .853 0 1.279c0 .071 -.029 .098 -.1 .094c-.147 -.006 -.294 -.012 -.44 -.01a1.521 1.521 0 0 0 -.604 .146c-.295 .134 -.463 .36 -.538 .669a3.03 3.03 0 0 0 -.076 .727v2.41c0 .048 -.002 .098 0 .146c.005 .073 -.035 .097 -.102 .097c-.099 -.003 -.195 0 -.294 0h-.88c-.186 0 -.188 -.003 -.188 -.197v-5.09c0 -.287 -.034 -.25 .26 -.251c.32 -.003 .643 -.003 .963 0c.155 0 .158 .004 .16 .165c.002 .237 0 .474 0 .712c.012 0 .023 .005 .033 .009z"/></svg>