<svg xmlns="http://www.w3.org/2000/svg" width="48" height="48" viewBox="0 0 48 48" fill="currentColor"><path d="M16.562 24.039c-.037 -.16 -.071 -.276 -.093 -.395c-.319 -1.785 -.015 -3.416 1.164 -4.826a7.006 7.006 0 0 1 1.865 -1.54c1.003 -.587 2.085 -.934 3.224 -1.114a13.47 13.47 0 0 1 3.115 -.125c.755 .057 1.5 .17 2.201 .478c.274 .12 .546 .27 .787 .448c.666 .487 .994 1.173 1.059 1.995c.084 1.064 -.257 1.983 -.93 2.787c-.523 .625 -1.164 1.106 -1.851 1.525l-.21 .129c.018 .048 .026 .09 .046 .127c.666 1.27 1.328 2.542 2.007 3.805c.196 .364 .42 .715 .66 1.053c.168 .234 .366 .45 .582 .642c.483 .428 1.076 .316 1.462 -.112c.217 -.24 .364 -.524 .487 -.822l.09 -.22c.3 .17 .378 .305 .296 .61c-.056 .218 -.14 .428 -.25 .625a5.288 5.288 0 0 1 -1.216 1.41c-.095 .08 -.199 .143 -.304 .209c-.337 .208 -.684 .215 -1.022 .013a3.576 3.576 0 0 1 -.526 -.38c-.43 -.372 -.779 -.818 -1.113 -1.278c-.737 -1.013 -1.358 -2.1 -1.914 -3.224c-.268 -.541 -.518 -1.092 -.774 -1.64c-.03 -.066 -.063 -.13 -.09 -.19h-1.97l-.099 .806c-.086 .71 -.129 1.426 -.301 2.123c-.018 .07 -.037 .14 -.054 .213a2.547 2.547 0 0 1 -1.126 1.574c-.248 .16 -.506 .305 -.76 .454c-.059 .035 -.12 .068 -.178 .1c.005 .016 .007 .03 .011 .049l2.292 .154c-.054 .066 -.08 .105 -.114 .138c-.326 .322 -.653 .64 -.977 .963a.294 .294 0 0 1 -.25 .09c-.666 -.04 -1.333 -.076 -2 -.108c-.689 -.035 -1.378 -.066 -2.068 -.1c-.048 -.003 -.095 -.018 -.169 -.032c.05 -.06 .082 -.105 .121 -.144c.334 -.331 .673 -.658 1.003 -.996a.338 .338 0 0 1 .325 -.105c.27 .042 .544 .06 .813 .099c.097 .013 .166 -.025 .237 -.08c.313 -.234 .554 -.528 .746 -.868c.287 -.506 .47 -1.052 .56 -1.625c.106 -.655 .182 -1.316 .26 -1.976c.103 -.883 .196 -1.771 .29 -2.655c.093 -.85 .184 -1.7 .274 -2.548l.24 -2.178c.01 -.092 .013 -.186 .02 -.305c-.094 .015 -.16 .024 -.227 .037c-.882 .182 -1.744 .428 -2.553 .843c-.425 .219 -.82 .484 -1.151 .837a2.623 2.623 0 0 0 -.75 1.855c-.003 .639 .11 1.25 .39 1.825c.013 .026 .021 .053 .04 .107c-.528 .478 -1.062 .957 -1.627 1.463zm7.574 -7.048c-.07 .228 -.705 5.928 -.649 6.074c.017 .007 .037 .018 .056 .022a8.018 8.018 0 0 0 2.445 .049c.241 -.035 .457 -.101 .638 -.28c.13 -.126 .274 -.236 .401 -.363c.82 -.816 1.24 -1.794 1.15 -2.971c-.063 -.81 -.412 -1.454 -1.102 -1.878a4.153 4.153 0 0 0 -.761 -.353c-.602 -.214 -1.232 -.267 -1.865 -.298c-.104 -.006 -.212 -.002 -.313 -.002zm-17.038 .498c-.19 .017 -.354 .03 -.514 .05c-.74 .092 -1.453 .278 -2.121 .618c-.33 .167 -.634 .373 -.916 .612c-1.16 .983 -1.397 2.417 -.915 3.71c.059 .156 .132 .308 .207 .483c-.53 .476 -1.06 .952 -1.608 1.44c-.103 -.194 -.12 -.39 -.149 -.58c-.157 -1.044 -.101 -2.068 .276 -3.062c.352 -.92 .932 -1.673 1.669 -2.304c1.063 -.906 2.288 -1.474 3.633 -1.78c1.337 -.301 2.686 -.36 4.049 -.23a6.672 6.672 0 0 1 1.703 .363c.43 .16 .824 .377 1.147 .715c.362 .377 .554 .83 .595 1.35c.093 1.167 -.356 2.108 -1.19 2.878c-.479 .44 -1.022 .778 -1.6 1.063c-.075 .037 -.146 .08 -.25 .136c.115 .053 .192 .09 .27 .123c.67 .296 1.296 .664 1.804 1.208c.69 .737 .973 1.619 .895 2.627c-.073 .95 -.498 1.71 -1.197 2.323c-.709 .62 -1.541 1.009 -2.431 1.278c-.878 .268 -1.78 .393 -2.693 .45c-1.31 .08 -2.613 0 -3.916 -.127c-.664 -.066 -1.328 -.145 -2.02 -.222c.041 -.066 .06 -.11 .09 -.145c.354 -.383 .712 -.765 1.061 -1.15c.078 -.086 .153 -.11 .266 -.084c.355 .083 .715 .155 1.073 .234c.18 .04 .326 .005 .481 -.107c.584 -.423 .938 -.99 1.091 -1.702c.155 -.728 .259 -1.465 .343 -2.206c.099 -.877 .196 -1.756 .29 -2.634c.094 -.857 .184 -1.712 .279 -2.57c.093 -.842 .188 -1.684 .28 -2.524c.007 -.057 .009 -.123 .018 -.234zm.974 6.298c-.015 .05 -.03 .076 -.032 .105c-.063 .566 -.117 1.134 -.186 1.697c-.06 .507 -.132 1.012 -.217 1.516c-.138 .782 -.503 1.425 -1.184 1.85c-.306 .19 -.615 .375 -.923 .564c-.043 .026 -.08 .06 -.118 .094c.398 .09 .782 .143 1.168 .189a20.86 20.86 0 0 0 3.118 .158c.547 -.016 1.086 -.105 1.59 -.34c.643 -.298 1.057 -.794 1.215 -1.498c.157 -.7 .11 -1.384 -.216 -2.026c-.565 -1.12 -1.44 -1.877 -2.613 -2.276a.95 .95 0 0 0 -.295 -.036c-.373 -.004 -.746 0 -1.12 0c-.058 .003 -.116 .003 -.187 .003zm.073 -.838c.102 .015 .173 .03 .242 .035a10.3 10.3 0 0 0 1.893 -.035a.43 .43 0 0 0 .181 -.057c.541 -.325 1.041 -.704 1.442 -1.202c.485 -.603 .727 -1.287 .67 -2.07c-.044 -.634 -.301 -1.158 -.823 -1.517a3.49 3.49 0 0 0 -.746 -.384c-.562 -.215 -1.157 -.28 -1.755 -.307c-.157 -.007 -.314 -.002 -.5 -.002c-.198 1.844 -.399 3.677 -.604 5.539zm34.832 .017c.269 .132 .53 .25 .784 .384c.455 .24 .867 .542 1.234 .912c1.244 1.259 1.246 3.439 0 4.713c-.621 .636 -1.37 1.057 -2.184 1.366c-.86 .325 -1.755 .493 -2.665 .583c-1.322 .13 -2.641 .08 -3.959 -.041c-.815 -.075 -1.628 -.178 -2.44 -.268c-.022 -.002 -.041 -.01 -.08 -.02c.032 -.046 .054 -.09 .084 -.122c.35 -.38 .7 -.755 1.046 -1.136c.088 -.1 .172 -.121 .301 -.09c.35 .085 .701 .15 1.053 .23c.179 .04 .327 .002 .48 -.112c.524 -.39 .906 -.881 1.037 -1.535c.125 -.62 .248 -1.246 .328 -1.875c.158 -1.245 .287 -2.495 .425 -3.743c.108 -.98 .211 -1.96 .319 -2.941l.15 -1.35c.016 -.128 .025 -.26 .038 -.41c-.067 -.003 -.121 -.014 -.175 -.01c-.886 .086 -1.744 .277 -2.54 .7c-.504 .27 -.96 .603 -1.31 1.06c-.796 1.032 -.855 2.16 -.393 3.348c.045 .114 .101 .223 .16 .35l-1.63 1.463c-.042 -.173 -.08 -.316 -.106 -.46c-.237 -1.336 -.104 -2.62 .539 -3.827c.386 -.724 .925 -1.316 1.559 -1.824c1.082 -.87 2.315 -1.4 3.658 -1.676a12.898 12.898 0 0 1 4.054 -.167c.614 .068 1.22 .198 1.787 .465c.11 .053 .22 .11 .326 .17c.881 .534 1.218 1.34 1.13 2.354c-.08 .93 -.52 1.67 -1.186 2.29c-.488 .452 -1.048 .792 -1.637 1.088c-.052 .026 -.103 .05 -.153 .078c-.013 .007 -.017 .025 -.034 .053zm-3.08 .825c-.014 .083 -.034 .15 -.04 .223c-.05 .45 -.093 .902 -.149 1.35a58.913 58.913 0 0 1 -.218 1.628c-.14 .932 -.603 1.643 -1.416 2.11c-.237 .136 -.472 .276 -.707 .417c-.046 .026 -.085 .06 -.156 .114c.071 .017 .104 .026 .136 .03c.492 .064 .983 .132 1.475 .187c.892 .098 1.792 .142 2.688 .116c.557 -.018 1.102 -.105 1.613 -.344c.634 -.296 1.044 -.79 1.205 -1.48c.184 -.788 .087 -1.542 -.317 -2.242c-.567 -.982 -1.373 -1.675 -2.436 -2.05a1.147 1.147 0 0 0 -.422 -.057c-.345 .009 -.688 .002 -1.033 .002c-.071 -.004 -.142 -.004 -.222 -.004h-.001zm.076 -.84c.1 .015 .177 .03 .255 .035c.623 .04 1.248 .042 1.869 -.035a.592 .592 0 0 0 .22 -.073a5.515 5.515 0 0 0 1.117 -.853c.543 -.543 .912 -1.182 .97 -1.971c.067 -.9 -.248 -1.654 -1.063 -2.105a3.728 3.728 0 0 0 -.653 -.277c-.565 -.184 -1.15 -.245 -1.74 -.26c-.119 -.005 -.24 0 -.369 0c-.2 1.855 -.401 3.68 -.606 5.539z"/></svg>