<svg xmlns="http://www.w3.org/2000/svg" width="48" height="48" viewBox="0 0 48 48" fill="currentColor"><path d="M26.3 2.054c.82 .05 1.631 .19 2.438 .347c.26 .05 .513 .132 .777 .155c.027 .04 .044 .11 .11 .038c.346 .094 .694 .186 1.04 .287c1.18 .337 2.322 .77 3.432 1.29a22.383 22.383 0 0 1 5.536 3.61c.377 .336 .75 .682 1.097 1.05c.79 .838 1.523 1.718 2.153 2.683c.317 .486 .61 .984 .882 1.496c.076 .14 .1 .303 .195 .433c-.006 .025 .006 .036 .03 .034c.26 .485 .462 .997 .66 1.51c.221 .578 .412 1.168 .571 1.767c.02 .067 .025 .136 .037 .206c-.027 .062 .02 .083 .063 .106l.065 .396c-.03 .063 .02 .084 .061 .11l.052 .33l.14 .651c.185 .932 .288 1.87 .321 2.82c.04 1.15 .05 2.3 .03 3.45c-.009 .493 -.042 .988 -.065 1.48c-.024 .025 -.024 .052 -.007 .081c-.094 .57 -.18 1.142 -.293 1.71a23.64 23.64 0 0 1 -1.77 5.451c-.008 .02 -.023 .036 -.033 .053c-.025 -.002 -.036 .008 -.03 .033c-.096 .134 -.102 .308 -.192 .446c-.04 .063 -.076 .13 -.113 .195c-.023 -.004 -.034 .006 -.028 .03a19.729 19.729 0 0 1 -2.94 4.38a19.21 19.21 0 0 1 -5.372 4.253c-1.758 .946 -3.613 1.633 -5.542 2.132c-1.032 .267 -2.078 .48 -3.133 .64c-1.01 .15 -2.028 .193 -3.048 .2c-.802 .004 -1.604 .002 -2.406 -.049a20.091 20.091 0 0 1 -3.16 -.475c-.449 -.1 -.893 -.222 -1.337 -.348a17.996 17.996 0 0 1 -2.35 -.854c-1.615 -.71 -3.119 -1.6 -4.465 -2.746c-.189 -.16 -.363 -.337 -.572 -.478c-.105 -.07 -.174 -.196 -.272 -.284c-.176 -.157 -.365 -.304 -.53 -.472c-.258 -.26 -.497 -.54 -.75 -.806a24.956 24.956 0 0 1 -2.92 -3.726c-.318 -.492 -.605 -1.003 -.896 -1.512c-.134 -.235 -.247 -.478 -.367 -.719a24.007 24.007 0 0 1 -1.755 -4.77c-.17 -.662 -.306 -1.33 -.423 -2.003a15.023 15.023 0 0 1 -.159 -1.435c-.075 -.988 -.07 -1.98 -.048 -2.972c.02 -1.05 .2 -2.08 .438 -3.1c.362 -1.543 .9 -3.02 1.591 -4.444a23.29 23.29 0 0 1 3.423 -5.164c.398 -.455 .78 -.926 1.225 -1.337c1.418 -1.31 2.93 -2.494 4.647 -3.397a23.996 23.996 0 0 1 3.416 -1.472a26.278 26.278 0 0 1 4.191 -1.052c.627 -.104 1.257 -.17 1.885 -.25c.03 .018 .057 .02 .082 -.003c.46 -.015 .917 -.038 1.378 -.038c1.003 -.002 2.007 -.008 3.01 .053zm-3.626 1.723c-.848 .08 -1.684 .241 -2.513 .43a40.199 40.199 0 0 0 -4.903 1.464c-1.016 .37 -2.019 .777 -2.955 1.323c-1.349 .788 -2.539 1.764 -3.527 2.98c-.37 .453 -.725 .92 -1.098 1.373c-.262 .318 -.53 .63 -.752 .978c-.4 .624 -.689 1.29 -.785 2.031c-.03 .23 -.03 .461 -.017 .69c.007 .144 -.046 .22 -.17 .272c-.09 .037 -.173 .088 -.26 .134c-.488 .247 -.887 .64 -1.14 1.126a8.891 8.891 0 0 0 -.943 2.933a27.287 27.287 0 0 0 -.24 3.064c-.03 .97 .022 1.94 .104 2.907c.08 .96 .186 1.914 .337 2.865c.22 1.401 .534 2.777 .966 4.128c.041 .132 .096 .262 .106 .404c-.014 .03 .005 .032 .025 .032c.007 .031 .01 .063 .017 .094c-.012 .03 .004 .031 .025 .031c.01 .02 .021 .038 .028 .057c.42 1.223 .91 2.421 1.466 3.588c.058 .123 .136 .243 .15 .385c-.008 .025 .005 .034 .03 .031c.02 .036 .044 .07 .06 .107c.306 .677 .675 1.313 1.171 1.873c-.006 .023 0 .03 .023 .023c.423 .391 .914 .66 1.475 .796a7.7 7.7 0 0 0 1.22 .188c.263 .021 .527 .048 .79 .07c.084 .005 .128 .043 .147 .12c.071 .27 .226 .493 .402 .7c.377 .444 .781 .857 1.35 1.062c.23 .082 .46 .16 .694 .224c.83 .226 1.674 .373 2.522 .497c.65 .092 1.3 .163 1.954 .21a5.758 5.758 0 0 0 2.62 -.422a4.19 4.19 0 0 1 1.274 -.318c.51 -.04 1 .05 1.472 .245a6.06 6.06 0 0 0 2.425 .465c1.215 -.013 2.428 .02 3.643 -.04a14.56 14.56 0 0 0 1.58 -.145a7.346 7.346 0 0 0 1.687 -.47a3.372 3.372 0 0 0 1.652 -1.45c.132 -.224 .235 -.46 .31 -.708c.032 -.105 .076 -.132 .18 -.088c.143 .056 .292 .094 .436 .147c.29 .102 .587 .18 .892 .222c.608 .083 1.163 -.02 1.638 -.449c.298 -.268 .564 -.56 .804 -.88c.932 -1.225 1.69 -2.557 2.346 -3.945c.344 -.725 .633 -1.473 .884 -2.235c.66 -2.004 1.04 -4.063 1.198 -6.164c.067 -.898 .063 -1.799 .08 -2.7a35.12 35.12 0 0 0 -.013 -1.864c-.023 -.703 -.006 -1.41 -.1 -2.11c-.097 -.709 -.357 -1.345 -.868 -1.865c-.2 -.205 -.425 -.38 -.638 -.572a6.707 6.707 0 0 1 -.497 -.48c-.205 -.225 -.272 -.48 -.163 -.772c.046 -.124 .092 -.25 .14 -.37c.172 -.438 .24 -.889 .14 -1.354a3.364 3.364 0 0 0 -.297 -.823c-.756 -1.502 -1.705 -2.859 -2.93 -4.02c-.232 -.22 -.45 -.456 -.7 -.659c-1.24 -1.028 -2.599 -1.876 -4.027 -2.62c-.222 -.115 -.467 -.18 -.674 -.318c-.24 -.16 -.5 -.268 -.757 -.388a35.424 35.424 0 0 0 -2.213 -.94c-.897 -.352 -1.79 -.704 -2.719 -.96c-.792 -.22 -1.548 -.127 -2.245 .332a1.14 1.14 0 0 1 -.28 .138c-.26 .08 -.487 .04 -.694 -.155a1.659 1.659 0 0 0 -1.345 -.455zm3.862 .748c.026 .042 .047 .088 .11 .06l.087 .003c.01 .05 .04 .052 .08 .038c.178 .014 .341 .08 .507 .138c.002 .02 .006 .04 .035 .027l.093 .015c0 .02 .004 .04 .033 .025c.031 .006 .063 .01 .094 .017c0 .02 .004 .04 .032 .025l.094 .016c0 .023 .004 .04 .033 .028l.093 .014c0 .023 .006 .04 .033 .028c.195 .027 .373 .108 .553 .182c0 .023 .004 .04 .034 .027c.138 .025 .27 .07 .4 .12l.387 .156c.404 .153 .802 .32 1.2 .488c.262 .11 .522 .22 .777 .342c.42 .197 .838 .392 1.248 .603c.685 .352 1.358 .731 2.003 1.156c.157 .105 .312 .214 .471 .316c.697 .45 1.35 .964 1.977 1.51c.021 .02 .038 .042 .057 .061c-.007 .023 .002 .034 .025 .025c.136 .1 .247 .218 .362 .34c.214 .226 .442 .444 .666 .66c.224 .216 .423 .456 .622 .697c.562 .676 1.083 1.38 1.55 2.126c.145 .23 .247 .48 .373 .718c-.008 .025 .004 .034 .03 .032c.073 .104 .1 .23 .156 .343c-.019 .033 -.037 .067 .021 .08l.007 .088c-.03 .062 .016 .083 .058 .108c.017 .216 .06 .428 .048 .646c-.033 .582 -.293 1.013 -.852 1.204c-.43 .146 -.873 .24 -1.313 .345c-.264 .063 -.53 .116 -.784 .216a1.21 1.21 0 0 0 -.395 .228c-.063 .01 -.082 .044 -.049 .101c-.06 .15 -.02 .287 .034 .427c.073 .19 .182 .352 .33 .494c.034 .036 .072 .028 .108 .042c.008 .05 .03 .036 .05 .01a.76 .76 0 0 0 .352 .007c.33 -.06 .643 -.178 .957 -.29c.454 -.164 .92 -.288 1.41 -.269c.473 .02 .854 .207 1.107 .61c.21 .328 .333 .693 .396 1.082c.155 .978 .074 1.963 .078 2.943a44.63 44.63 0 0 1 -.13 3.43c-.176 2.4 -.543 4.765 -1.248 7.07l-.042 .117c-.02 .002 -.04 .004 -.025 .033c-.02 .203 -.103 .387 -.164 .578c-.07 .218 -.153 .432 -.228 .647c-.023 0 -.04 .004 -.027 .032c-.007 .04 -.009 .083 -.02 .121c-.18 .484 -.353 .972 -.584 1.437c-.023 -.002 -.037 .006 -.029 .033a6.217 6.217 0 0 1 -1.05 1.797a3.9 3.9 0 0 1 -.39 .398c-.566 .51 -1.23 .66 -1.965 .474c-.252 -.063 -.432 -.25 -.6 -.436c-.355 -.396 -.632 -.848 -.919 -1.294c-.303 -.474 -.582 -.966 -.915 -1.42a2.095 2.095 0 0 0 -.327 -.38c-.123 -.102 -.255 -.13 -.406 -.058c-.26 .128 -.515 .258 -.557 .59c-.06 .04 -.06 .082 0 .122l.037 .17c-.01 .006 -.018 .014 -.029 .02l.032 .015l.014 .095c-.012 .03 .004 .031 .025 .031c.06 .14 .124 .276 .14 .43c-.01 .024 .003 .03 .024 .03c.27 .67 .586 1.322 .775 2.024c.138 .517 .067 1.024 -.17 1.504c-.195 .394 -.515 .65 -.926 .798c-.559 .203 -1.14 .312 -1.72 .417c-.158 .027 -.316 .058 -.473 .085c-.029 -.02 -.056 -.016 -.08 .007l-1.302 .16a.112 .112 0 0 0 -.12 .007h-.144l-.28 .036c-.028 -.019 -.055 -.017 -.08 .004c-.522 .027 -1.045 .021 -1.567 .036a4.323 4.323 0 0 1 -1.753 -.323c-.257 -.103 -.52 -.197 -.78 -.295a2.681 2.681 0 0 0 -.96 -.182c-.39 .002 -.78 -.003 -1.17 .004c-.485 .008 -.954 .117 -1.415 .253c-1.124 .331 -2.276 .386 -3.437 .323l-.312 -.025l-.624 -.067c-.012 -.017 -.03 -.02 -.048 -.01c-.603 -.106 -1.206 -.217 -1.795 -.39a4.61 4.61 0 0 1 -.852 -.342c-.817 -.43 -1.28 -1.476 -.893 -2.419c.12 -.29 .27 -.565 .447 -.825c.222 -.329 .43 -.668 .571 -1.043c.067 -.178 .1 -.36 .11 -.55c.016 -.432 -.317 -.795 -.853 -.75c-.312 .024 -.585 .152 -.84 .334c-.396 .283 -.63 .673 -.794 1.12c-.023 .001 -.04 .007 -.027 .034c-.004 .03 -.008 .061 -.015 .09c-.02 .003 -.04 .007 -.025 .036l-.006 .09c-.06 .017 -.07 .042 -.015 .08c-.096 .276 -.138 .567 -.245 .842c-.023 0 -.04 .006 -.027 .033c-.055 .257 -.18 .494 -.362 .685c-.227 .243 -.5 .308 -.803 .33c-.345 .028 -.66 -.04 -.936 -.276c-.368 -.316 -.66 -.697 -.938 -1.087c-.679 -.95 -1.142 -1.998 -1.506 -3.095a47.414 47.414 0 0 1 -1.033 -3.64a36.49 36.49 0 0 1 -.72 -3.883c-.2 -1.525 -.26 -3.058 -.262 -4.593c-.01 -.656 .006 -1.312 .048 -1.967c.078 -1.022 .29 -2.01 .687 -2.96c.128 -.303 .275 -.592 .47 -.858c.446 -.61 1.05 -.82 1.782 -.71c.438 .067 .846 .228 1.252 .396c0 .023 .007 .04 .036 .027c.115 .025 .232 .044 .348 .075c.165 .042 .333 .04 .498 .021c.145 -.016 .193 -.063 .222 -.207a.494 .494 0 0 0 -.136 -.46a1.832 1.832 0 0 0 -.258 -.214c-.442 -.31 -.9 -.589 -1.41 -.765a2.211 2.211 0 0 1 -.74 -.42c-.166 -.143 -.29 -.34 -.286 -.583c.005 -.143 .011 -.283 .084 -.419c.061 -.115 .115 -.237 .143 -.369c.025 -.123 .13 -.207 .192 -.316c.438 -.766 .972 -1.462 1.548 -2.13c.2 -.232 .413 -.448 .63 -.662a18.4 18.4 0 0 1 3.84 -2.89c.06 -.034 .12 -.073 .19 -.084c.025 .006 .034 -.004 .03 -.03c.19 -.133 .406 -.223 .611 -.332c.465 -.247 .951 -.444 1.435 -.643c1.424 -.582 2.898 -.987 4.406 -1.284c.547 -.107 1.096 -.212 1.655 -.233c.287 -.01 .57 .01 .842 .116c.3 .117 .488 .335 .605 .626c.084 .207 .128 .427 .162 .647c.031 .2 .048 .402 .07 .601c-.033 .063 .015 .086 .057 .111c.02 .247 .107 .474 .218 .691c.065 .128 .157 .208 .31 .206c.16 -.005 .24 -.107 .298 -.229c.232 -.48 .427 -.974 .58 -1.487c.063 -.21 .142 -.412 .257 -.605c.306 -.509 .725 -.777 1.334 -.687zm-4.662 .785a3.26 3.26 0 0 0 -.352 .038c-1.535 .25 -3.055 .557 -4.528 1.08c-.97 .346 -1.91 .755 -2.813 1.243a16.771 16.771 0 0 0 -3.52 2.528c-.147 .138 -.33 .24 -.446 .404c-.176 .251 -.407 .452 -.604 .685c-.345 .413 -.684 .83 -.99 1.27c-.218 .313 -.446 .623 -.624 .967c-.055 .107 -.099 .215 -.08 .34c.017 .104 .06 .173 .174 .204c.228 .061 .454 .134 .68 .203c.357 .11 .692 .258 .985 .495c.115 .092 .193 .22 .304 .312c.146 .121 .266 .264 .391 .404c.25 .28 .32 .612 .28 .974c-.072 .622 -.495 .99 -1.115 .968c-.46 -.017 -.893 -.158 -1.318 -.315c-.268 -.098 -.532 -.209 -.814 -.264c-.298 -.056 -.576 -.04 -.836 .155c-.099 .076 -.16 .168 -.233 .256c-.186 .218 -.345 .46 -.465 .712a3.85 3.85 0 0 0 -.29 .978c-.147 .804 -.24 1.615 -.34 2.426c-.07 .56 -.098 1.124 -.092 1.692c.006 .79 .092 1.573 .176 2.356c.086 .783 .182 1.565 .3 2.344c-.08 .07 -.026 .11 .035 .146c.02 .342 .102 .673 .155 1.01c.06 .385 .16 .762 .205 1.15c-.033 .063 .017 .083 .057 .11c.006 .061 .006 .124 .02 .185c.168 .746 .344 1.49 .554 2.224c.058 .208 .144 .407 .165 .624c-.015 .03 .004 .034 .025 .034c.184 .55 .362 1.106 .584 1.644c.153 .377 .315 .75 .474 1.127c-.006 .027 .008 .035 .033 .035c.032 .107 .076 .208 .136 .3c-.006 .025 .005 .036 .03 .031c.121 .204 .234 .41 .366 .608c.337 .496 .668 1 1.192 1.33c-.002 .023 .006 .035 .031 .027c.233 .056 .37 -.06 .472 -.25c.098 -.186 .125 -.39 .197 -.584c.102 -.278 .144 -.574 .257 -.85c.1 -.239 .193 -.478 .323 -.702c.521 -.904 1.315 -1.34 2.35 -1.32c.578 .01 1 .305 1.246 .832c.19 .402 .167 .81 .02 1.22c-.022 .001 -.04 .006 -.026 .033l-.015 .094c-.027 -.004 -.044 0 -.032 .03c-.002 .085 -.035 .16 -.067 .238c-.194 .478 -.448 .922 -.705 1.368a2.003 2.003 0 0 0 -.266 .714c-.036 .243 .018 .47 .07 .7c-.01 .027 .005 .035 .03 .033c.157 .24 .377 .408 .643 .51c.906 .35 1.864 .547 2.834 .583c.614 .02 1.227 .005 1.843 .007c.272 0 .542 -.025 .813 -.07c.645 -.106 1.275 -.29 1.926 -.37c.83 -.103 1.655 -.11 2.478 .056c.551 .113 1.064 .33 1.567 .572c.11 .052 .22 .078 .341 .078c.56 -.005 1.117 .006 1.676 -.005c.39 -.006 .781 .015 1.168 -.056c.028 .02 .055 .02 .08 -.004c.042 0 .084 .004 .126 0c.85 -.107 1.696 -.243 2.532 -.432c.3 -.067 .597 -.148 .856 -.324c.367 -.25 .535 -.593 .48 -1.04c-.038 -.31 -.165 -.588 -.308 -.86c-.142 -.272 -.306 -.532 -.433 -.81c-.235 -.512 -.405 -1.037 -.363 -1.61c.032 -.44 .21 -.805 .555 -1.084c.264 -.212 .574 -.312 .9 -.358c.267 -.038 .535 -.002 .732 .18c.19 .176 .408 .33 .542 .563c.002 .057 .03 .097 .086 .111c.18 .23 .323 .48 .474 .725c.232 .38 .45 .77 .68 1.15c.145 .24 .293 .475 .5 .67c.085 .08 .166 .19 .27 .222c.21 .065 .435 .107 .657 .025c.513 -.186 .946 -.463 1.191 -.982c.166 -.35 .331 -.7 .5 -1.047c.286 -.59 .543 -1.192 .757 -1.812c.676 -1.95 1.13 -3.952 1.426 -5.99c.153 -1.05 .25 -2.105 .314 -3.163c.067 -1.1 .12 -2.2 .093 -3.305c-.02 -.79 -.02 -1.585 -.233 -2.36c-.084 -.308 -.515 -.725 -.905 -.595c-.144 .048 -.295 .071 -.442 .113c-.366 .11 -.73 .227 -1.1 .335c-.31 .093 -.625 .137 -.95 .118a.981 .981 0 0 1 -.687 -.306c-.274 -.29 -.44 -.64 -.549 -1.022c-.128 -.448 .074 -1.096 .608 -1.357c.404 -.2 .831 -.317 1.265 -.42c.366 -.085 .737 -.152 1.095 -.27a.587 .587 0 0 0 .396 -.596a2.18 2.18 0 0 0 -.103 -.616c-.182 -.555 -.473 -1.054 -.798 -1.533a13.467 13.467 0 0 0 -1.979 -2.29c-.157 -.146 -.29 -.318 -.45 -.462a21.193 21.193 0 0 0 -3.374 -2.47a17.941 17.941 0 0 0 -1.697 -.894c-.207 -.094 -.392 -.232 -.595 -.327a42.88 42.88 0 0 0 -1.63 -.697a26.76 26.76 0 0 0 -1.64 -.618c-.204 -.069 -.41 -.132 -.617 -.193c-.197 -.058 -.394 -.132 -.597 -.178c-.419 -.094 -.496 -.058 -.725 .298c-.025 -.002 -.037 .008 -.029 .033l-.306 .85c-.023 -.004 -.035 .003 -.023 .03a3.83 3.83 0 0 1 -.682 1.397a.886 .886 0 0 1 -.132 .134c-.348 .285 -.715 .291 -1.104 .084c-.348 -.185 -.576 -.495 -.744 -.846c-.037 -.08 -.104 -.16 -.109 -.24c-.01 -.246 -.08 -.483 -.098 -.726a8.843 8.843 0 0 0 -.084 -.664c-.02 -.134 -.07 -.274 -.21 -.316c-.148 -.046 -.288 -.128 -.454 -.122zm1.075 23.527c.567 .132 .974 .494 1.294 .963c.262 .384 .41 .803 .396 1.276c-.008 .335 .002 .67 .004 1.003a.184 .184 0 0 0 -.002 .166c-.025 .82 -.264 1.591 -.576 2.341a4.668 4.668 0 0 1 -.459 .863c-.372 .538 -1.018 .561 -1.47 .245c-.408 -.285 -.643 -.678 -.777 -1.15c-.184 -.636 -.272 -1.294 -.41 -1.94c-.063 -.3 -.003 -.58 .044 -.87c.08 -.518 .157 -1.033 .297 -1.538c.096 -.343 .22 -.678 .465 -.948c.32 -.354 .714 -.524 1.194 -.41zm-.325 .651c-.366 .044 -.7 .35 -.74 .715c-.026 .25 -.077 .494 -.09 .745c-.054 .025 -.054 .053 -.004 .082c-.035 .748 .007 1.49 .093 2.233c.05 .435 .096 .87 .188 1.302c.046 .22 .15 .386 .354 .486c0 .021 .002 .04 .032 .023c.2 .015 .4 .034 .6 -.014a.313 .313 0 0 0 .187 -.118c.17 -.21 .245 -.45 .233 -.718c-.01 -.243 -.028 -.486 -.042 -.729c-.017 -.25 -.01 -.5 .102 -.735c.015 -.03 .007 -.067 .01 -.103l.028 -.037c.03 -.007 .046 -.028 .06 -.053c.202 -.366 .338 -.75 .336 -1.179c-.002 -.354 -.025 -.704 -.124 -1.045a2.174 2.174 0 0 0 -.21 -.528c-.09 -.15 -.19 -.27 -.39 -.304a2.142 2.142 0 0 0 -.623 -.023zm3.01 -6.132c.12 -.019 .224 .075 .343 .05c.01 .048 .044 .048 .082 .042l.042 .004c.014 .04 .048 .042 .084 .036c.107 .004 .21 .036 .301 .092c-.002 .023 .006 .036 .032 .025l.088 .015c0 .025 .01 .04 .037 .035c.05 .044 .113 .038 .172 .05c0 .024 .01 .04 .038 .034c.033 .007 .058 .044 .098 .025c.032 .036 .06 .072 .115 .05l.292 .154c.05 .025 .1 .048 .15 .07c.54 .214 1.001 .545 1.448 .903c1.162 .94 1.954 2.133 2.416 3.548c.193 .591 .338 1.194 .396 1.814c.007 .076 .023 .15 .036 .228c-.019 .028 -.02 .055 .002 .082c-.008 .23 .02 .46 .017 .69c-.004 .864 -.015 1.73 -.118 2.59c-.02 .174 -.05 .346 -.09 .515c-.069 .302 -.22 .42 -.53 .432c-.216 0 -.43 -.035 -.636 -.103c-.262 -.075 -.515 -.172 -.77 -.268c-.698 -.264 -1.3 -.685 -1.867 -1.156c-.16 -.132 -.337 -.245 -.48 -.4c-.764 -.838 -1.453 -1.728 -1.99 -2.73a12.29 12.29 0 0 1 -1.273 -3.675c-.1 -.572 -.15 -1.148 -.058 -1.728c.04 -.257 .117 -.502 .243 -.73c.031 -.06 .058 -.08 .1 -.01c-.008 .026 .008 .036 .031 .04c.143 .46 .214 .935 .327 1.404a18.584 18.584 0 0 0 1.016 2.987c.442 1.026 .96 2.014 1.588 2.94a8.653 8.653 0 0 0 2.24 2.264c.164 .115 .344 .208 .52 .31c.042 .025 .075 .023 .126 .006c-.017 -.098 -.078 -.165 -.13 -.236c-.499 -.683 -1.037 -1.332 -1.552 -2.003c-.76 -.984 -1.485 -1.99 -2.092 -3.078a11.7 11.7 0 0 1 -.725 -1.582c-.286 -.754 -.48 -1.54 -.58 -2.34c-.02 -.152 -.025 -.305 -.02 -.458c.01 -.224 .04 -.243 .225 -.125c.094 .06 .182 .127 .274 .192c1.156 .815 2.086 1.848 2.868 3.018c.406 .61 .724 1.272 1.061 1.92c.18 .347 .357 .694 .528 1.042c.258 .515 .495 1.04 .781 1.543c.06 .101 .11 .206 .208 .302c.07 -.1 .077 -.195 .086 -.289c.054 -.65 -.057 -1.28 -.26 -1.893a13.71 13.71 0 0 0 -.149 -.446a3.74 3.74 0 0 0 -.305 -.68c-.143 -.238 -.23 -.504 -.377 -.74c-.354 -.572 -.765 -1.1 -1.217 -1.596c-.118 -.128 -.264 -.227 -.382 -.356c-.726 -.803 -1.6 -1.444 -2.412 -2.15c-.172 -.152 -.327 -.32 -.484 -.487c-.036 -.036 -.08 -.086 -.046 -.145c.013 -.024 .034 -.034 .058 -.039l.074 -.009zm-3.632 .656c.224 .14 .364 .32 .337 .573c.004 .296 -.077 .547 -.16 .798a38.458 38.458 0 0 1 -1.166 3.046c-.24 .571 -.498 1.135 -.774 1.69c-.426 .854 -.868 1.7 -1.446 2.465c-.72 .953 -1.686 1.497 -2.848 1.711c-.075 .015 -.15 .03 -.226 .036c-.166 .012 -.197 -.02 -.172 -.19c.021 -.14 .08 -.267 .128 -.399c.55 -1.472 1.317 -2.827 2.184 -4.132c.907 -1.364 1.88 -2.683 2.824 -4.023c.362 -.514 .71 -1.035 1.09 -1.534c.095 -.123 .101 -.12 .23 -.04zm-.672 -.895c.13 .025 .153 .084 .067 .182c-.055 .063 -.126 .11 -.185 .168c-.13 .136 -.272 .258 -.39 .408a.769 .769 0 0 1 -.253 .216a.15 .15 0 0 0 -.052 .034c-.2 .247 -.47 .423 -.695 .645c-.036 .033 -.038 .092 -.088 .113c-.027 -.006 -.038 .006 -.036 .033c-.059 .058 -.11 .125 -.187 .164l-.018 -.015c.016 .013 .033 .023 .046 .037a.092 .092 0 0 1 -.052 .049l.012 -.019l-.028 .042a.403 .403 0 0 1 -.039 .05c-.027 -.067 -.02 -.095 .007 -.1c.002 -.014 .011 -.027 .025 -.039l.025 .005c-.007 -.01 -.015 -.017 -.023 -.025c.136 -.253 .333 -.46 .496 -.693c.09 -.126 .201 -.239 .235 -.42c-.155 .03 -.273 .103 -.386 .171c-.982 .567 -1.9 1.21 -2.69 2.04a6.518 6.518 0 0 0 -1.57 2.796a34.1 34.1 0 0 0 -.718 3.225c-.082 .467 -.166 .934 -.25 1.4c-.006 .033 -.01 .07 -.02 .102c-.02 .058 -.055 .08 -.11 .037a1.193 1.193 0 0 1 -.108 -.096c-.375 -.387 -.576 -.844 -.549 -1.39c.025 -.51 .122 -1.01 .207 -1.513c.13 -.77 .281 -1.535 .497 -2.287c.264 -.922 .653 -1.78 1.252 -2.536c.595 -.75 1.334 -1.328 2.174 -1.774c.846 -.45 1.743 -.777 2.677 -.987c.24 -.054 .484 -.07 .727 -.023zm-.37 3.016c-.02 .036 -.04 .076 -.068 .11c-.647 .76 -1.27 1.538 -1.814 2.374c-.92 1.412 -1.682 2.907 -2.427 4.413c-.02 .04 -.063 .08 -.034 .134a.183 .183 0 0 0 .091 -.05l.073 -.073c.69 -.652 1.227 -1.425 1.734 -2.22c.882 -1.385 1.631 -2.84 2.348 -4.315c.054 -.109 .102 -.222 .153 -.335l-.057 -.038zm4.772 -1.162c-.038 .058 -.035 .128 -.038 .197c0 .153 .018 .306 .055 .454c.155 .683 .383 1.34 .668 1.977c.442 .985 1.012 1.894 1.64 2.767c.417 .578 .863 1.131 1.38 1.625c.197 .19 .402 .367 .64 .505c.047 .027 .1 .07 .152 .031c.042 -.03 .03 -.09 .023 -.138c-.034 -.213 -.063 -.427 -.107 -.639c-.266 -1.304 -.846 -2.47 -1.587 -3.566c-.792 -1.167 -1.768 -2.174 -2.75 -3.176c-.02 -.02 -.04 -.04 -.076 -.037zm-7.382 1.583c0 .19 -.124 .344 -.202 .51c-.332 .697 -.668 1.392 -1.007 2.085c-.413 .844 -.825 1.69 -1.253 2.528c-.08 .161 -.167 .32 -.255 .478c-.03 .052 -.042 .121 -.115 .14a.199 .199 0 0 1 0 -.116l.033 -.108a16.81 16.81 0 0 1 .807 -2.218c.136 -.308 .335 -.589 .43 -.915c.476 -.8 .927 -1.62 1.515 -2.35l.024 -.019l.023 -.015zm13.91 -9.196c.591 .037 1.182 .09 1.772 .146l.36 .03c.24 .023 .478 .06 .7 .175c.155 .08 .314 .155 .442 .277c.12 .11 .1 .188 -.056 .234c-.202 .06 -.415 .047 -.62 .08c-.03 -.017 -.057 -.019 -.082 .004c-.698 .02 -1.395 .034 -2.09 .061c-1.31 .05 -2.522 .5 -3.726 .965a19.46 19.46 0 0 0 -1.814 .81a3.779 3.779 0 0 0 -.312 .171c-.14 .088 -.143 .15 .002 .211c.253 .105 .51 .17 .79 .071c.316 -.108 .613 -.253 .91 -.404a11.6 11.6 0 0 1 2.85 -.988c1.09 -.23 2.181 -.384 3.298 -.352c.28 .008 .557 .033 .812 .167c.296 .155 .457 .373 .46 .731a2.73 2.73 0 0 1 -.72 1.887c-.479 .545 -1.082 .911 -1.744 1.194a8.157 8.157 0 0 1 -2.32 .582c-.028 -.018 -.055 -.018 -.082 .005c-.377 -.009 -.752 .041 -1.13 .023c-.73 -.034 -1.463 -.067 -2.18 -.24c-.17 -.04 -.339 -.08 -.494 -.165c-.167 -.09 -.285 -.224 -.312 -.418c-.025 -.183 .027 -.25 .208 -.256c.412 -.015 .823 -.008 1.233 .023c.892 .065 1.785 .105 2.677 .057c1.053 -.059 2.027 -.359 2.884 -.995c.35 -.262 .66 -.57 .942 -.9c.065 -.076 .187 -.175 .13 -.263c-.054 -.088 -.19 -.012 -.283 .02c-.37 .123 -.739 .253 -1.105 .382c-.86 .302 -1.733 .568 -2.616 .798c-.79 .206 -1.59 .36 -2.403 .45c-.492 .053 -.988 .08 -1.483 .05a1.763 1.763 0 0 1 -.74 -.2c-.41 -.218 -.569 -.589 -.453 -1.039c.136 -.536 .473 -.942 .89 -1.275a25.26 25.26 0 0 1 2.796 -1.915c.29 -.174 .607 -.243 .938 -.26c.56 -.03 1.116 .03 1.672 .066zm-9.724 3.4c.073 .032 .14 .05 .216 .051c.004 .023 .008 .04 .038 .027l.092 .015c.002 .021 .004 .04 .033 .025c.03 .002 .06 .004 .09 .01c.013 .055 .046 .04 .08 .022c.017 .008 .031 .018 .048 .027c0 .02 .004 .04 .031 .025c.03 .002 .061 .004 .09 .008c.013 .053 .044 .055 .084 .04c.258 .042 .51 .013 .763 -.048c.335 -.082 .33 -.048 .38 .245c.062 .35 .103 .7 .126 1.053a.386 .386 0 0 1 -.178 .371a6.242 6.242 0 0 1 -.85 .518c-.08 .04 -.16 .073 -.243 .108c-.03 -.014 -.033 .005 -.038 .028c-.347 .11 -.356 .113 -.504 -.214c-.09 -.193 -.243 -.295 -.425 -.37c-.076 -.032 -.155 -.06 -.23 -.095c-.277 -.136 -.357 -.3 -.214 -.612c.096 -.209 .173 -.423 .22 -.649c.022 -.117 .012 -.236 .022 -.354c.021 -.239 .147 -.324 .37 -.23zm.298 .807c-.097 .145 -.155 .308 -.262 .446c-.053 .067 -.04 .14 .037 .2c.145 .112 .29 .226 .421 .351c.105 .1 .19 .08 .29 .004a8.1 8.1 0 0 1 .383 -.278c.268 -.182 .285 -.264 .2 -.582c-.024 -.093 -.058 -.11 -.13 -.118l-.8 -.096c-.056 -.017 -.1 .01 -.14 .073h.001zm-8.479 -5.424c1.041 .127 1.99 .523 2.903 1.011c1.033 .551 1.99 1.21 2.834 2.028c.352 .341 .676 .706 .926 1.13c.07 .122 .13 .248 .18 .378c.184 .49 .037 .932 -.4 1.22c-.31 .202 -.658 .3 -1.016 .367c-.767 .145 -1.54 .143 -2.314 .1a20.143 20.143 0 0 1 -2.099 -.225c-.777 -.124 -1.56 -.229 -2.304 -.5c-.576 -.21 -1.104 -.5 -1.54 -.943c-.393 -.398 -.59 -.889 -.686 -1.429c-.01 -.056 -.02 -.115 .031 -.155c.055 -.044 .11 -.004 .155 .02c.178 .083 .337 .196 .5 .303a14.58 14.58 0 0 0 4.623 2.056c.509 .12 1.027 .2 1.548 .237c.444 .036 .888 .086 1.336 .082h.251c-.127 -.084 -.23 -.103 -.326 -.128l-3.249 -.884a11.258 11.258 0 0 1 -3.918 -1.923c-.262 -.2 -.499 -.427 -.666 -.716a1.61 1.61 0 0 1 -.072 -.128c-.054 -.12 -.04 -.157 .095 -.19c.094 -.023 .19 -.038 .29 -.05c.652 -.088 1.291 -.003 1.928 .15c1.304 .312 2.563 .767 3.803 1.274c.794 .324 1.575 .678 2.344 1.064c.186 .088 .373 .178 .595 .236c.018 -.13 -.046 -.199 -.097 -.27a3.843 3.843 0 0 0 -1.005 -.967c-.756 -.514 -1.583 -.88 -2.436 -1.194c-1.31 -.484 -2.664 -.82 -4.032 -1.098c-.314 -.065 -.626 -.136 -.94 -.205a1.073 1.073 0 0 1 -.14 -.04c-.15 -.054 -.162 -.098 -.04 -.192c.333 -.254 .706 -.432 1.122 -.476c.606 -.063 1.213 -.019 1.816 .057zm19.028 3.133c-.316 .06 -.626 .138 -.934 .226l-4.782 1.368c-.335 .096 -.668 .195 -1 .297c-.15 .046 -.16 .094 -.04 .195c.253 .207 .527 .366 .875 .327c.16 -.02 .32 -.028 .478 -.05c.904 -.124 1.8 -.29 2.7 -.45c1.14 -.208 2.228 -.558 3.243 -1.123c.24 -.132 .476 -.264 .696 -.428a.84 .84 0 0 0 .21 -.203c.03 -.044 .018 -.082 -.03 -.098c-.046 -.017 -.094 -.025 -.14 -.034c-.23 -.044 -.46 -.04 -.692 -.05a2.597 2.597 0 0 0 -.584 .023zm-21.229 -.882c-.025 -.004 -.036 .006 -.03 .032c.237 .255 .522 .452 .813 .64c.962 .614 2.011 1.02 3.104 1.328c1.016 .287 2.061 .41 3.106 .54c.111 .015 .23 .032 .358 -.018c-.096 -.126 -.222 -.172 -.335 -.235c-1.985 -1.072 -4.096 -1.784 -6.312 -2.199l-.279 -.06a1.339 1.339 0 0 0 -.425 -.028zm12.192 -9.224a2 2 0 0 1 .51 .39a7.7 7.7 0 0 0 .474 .467c.195 .178 .354 .396 .492 .622c.145 .235 .32 .45 .444 .697c.26 .501 .511 1.006 .61 1.57c.04 .221 .031 .443 .033 .665l-.002 .857c.01 .56 -.12 1.091 -.3 1.613c-.022 -.007 -.04 -.003 -.024 .027c-.013 .184 -.093 .35 -.15 .52a13.17 13.17 0 0 1 -.749 1.834c-.025 0 -.038 .008 -.03 .033c-.085 .137 -.13 .292 -.202 .43a5.32 5.32 0 0 1 -.914 1.27a.86 .86 0 0 1 -.23 .177c-.09 .042 -.142 .017 -.178 -.078c-.038 -.1 -.03 -.207 -.027 -.31c.02 -.343 .098 -.676 .171 -1.009c.155 -.695 .254 -1.4 .331 -2.105c.118 -1.068 .17 -2.14 .15 -3.215a18.908 18.908 0 0 0 -.152 -2.23c-.058 -.413 -.163 -.815 -.264 -1.22c-.023 -.09 -.077 -.17 -.117 -.255c-.019 -.042 -.04 -.038 -.065 -.006c-.113 .004 -.14 .105 -.186 .176c-.17 .257 -.266 .55 -.375 .835c-.178 .468 -.272 .96 -.335 1.454c-.136 1.068 -.168 2.14 -.157 3.215c.01 .865 .044 1.728 .138 2.59c.056 .52 .077 1.042 .056 1.565c0 .161 -.029 .32 -.083 .472c-.042 .11 -.092 .127 -.193 .067a1.076 1.076 0 0 1 -.165 -.126c-.91 -.844 -1.628 -1.814 -2.028 -3c-.276 -.818 -.3 -1.656 -.205 -2.502c.105 -.92 .33 -1.808 .672 -2.666c.33 -.826 .76 -1.584 1.385 -2.223c.232 -.236 .483 -.458 .798 -.59a.53 .53 0 0 1 .24 -.057c.028 .004 .038 -.01 .044 -.033c.208 -.065 .4 -.023 .583 .08zm-1.494 1.598c-.26 .26 -.49 .55 -.643 .893c-.368 .827 -.527 1.7 -.586 2.595c-.034 .515 -.044 1.03 -.008 1.547c.031 .453 .052 .905 .132 1.353c.136 .767 .395 1.481 .877 2.103c.067 .086 .13 .178 .262 .262c0 -.107 .002 -.18 0 -.256c-.034 -.787 -.082 -1.572 -.122 -2.36a43.011 43.011 0 0 1 -.069 -3.03c.017 -.958 .092 -1.909 .256 -2.85a.687 .687 0 0 0 .008 -.292c-.063 -.02 -.084 .012 -.107 .035zm2.287 .248a.744 .744 0 0 0 .013 .293c.086 .417 .12 .842 .15 1.265c.057 .737 .034 1.476 -.005 2.216c-.032 .62 -.093 1.237 -.189 1.851c-.07 .438 -.12 .878 -.243 1.307c-.052 .186 -.08 .394 -.096 .595c-.013 .134 -.074 .268 -.023 .427c.153 -.077 .226 -.203 .29 -.33c.248 -.47 .451 -.956 .57 -1.475c.14 -.614 .214 -1.234 .258 -1.862c.071 -1.006 .042 -2.007 -.146 -3c-.072 -.374 -.166 -.747 -.375 -1.078c-.049 -.075 -.088 -.157 -.204 -.21v.001z"/></svg>