---
version: "0.0.4"
---
<svg>
  <path d="M18.716 38.255c1.224 0 2.162 .269 2.75 .807c.573 .538 .7 .981 .7 2.548v3.56c0 .103 .077 .197 .175 .207l.875 .079v.838h-3.514l-.223 -.886c-1.304 .807 -2.067 1.092 -2.91 1.092c-1.352 0 -2.306 -.902 -2.306 -2.168c0 -.76 .334 -1.424 .938 -1.852c.493 -.363 1.639 -.696 4.31 -1.265v-.46c0 -1.107 -.589 -1.55 -2.02 -1.55v1.645h-1.891c-.684 0 -.954 -.174 -.954 -.617c0 -1.108 1.813 -1.978 4.07 -1.978zm-9.633 -2.58c2.306 0 3.578 .855 3.578 2.406c0 1.282 -.715 2.041 -2.385 2.548c1.018 .079 1.558 .237 2.083 .633c.604 .443 .891 1.092 .891 1.962c0 1.963 -1.463 3.07 -4.039 3.07h-5.836v-.917l1.002 -.064c.13 -.009 .254 -.17 .254 -.3v-8.12c0 -.13 -.124 -.228 -.254 -.237l-1.002 -.063v-.918h5.708zm21.734 2.58c1.511 0 2.227 .934 2.227 2.896v4.02a.2 .2 0 0 0 .175 .206l.858 .079v.838h-4.5v-.838l.62 -.08a.212 .212 0 0 0 .19 -.205v-3.371c0 -1.425 -.396 -1.82 -1.844 -1.82a5.66 5.66 0 0 0 -.81 .047v5.144c0 .103 .103 .19 .206 .206l.668 .079v.838h-4.532v-.838l.827 -.08a.196 .196 0 0 0 .175 -.205v-5.207h-1.113v-.76l2.846 -.933h.923v1.029c1.685 -.855 2.258 -1.045 3.084 -1.045zm7.702 -3.72v7.597h.446l.954 -1.09l.273 -.312c.5 -.57 .967 -1.105 .986 -1.13a.116 .116 0 0 0 -.083 -.19l-.731 -.063v-.823h3.61v.823l-1.13 .11l-1.527 1.71l2.37 4.21l.938 .079v.838h-3.753v-.712l-1.621 -2.864h-.732v2.453c0 .132 .09 .2 .143 .205c.054 .006 .874 .08 .874 .08v.838h-4.659v-.807l.78 -.11c.127 -.02 .206 -.11 .206 -.206v-8.958h-1.16v-.76l3.084 -.917h.732zm-30.612 6.823h-.51v3.909c.24 .011 .389 .014 .513 .015h.14c1.542 0 2.258 -.632 2.258 -1.978c0 -1.313 -.78 -1.946 -2.401 -1.946zm11.604 .902c-.97 .158 -1.113 .19 -1.48 .332c-.635 .27 -.921 .649 -.921 1.219c0 .664 .46 1.124 1.16 1.124c.35 0 .62 -.064 1.24 -.301v-2.374zm-11.7 -5.555h-.413v3.576c.16 .017 .286 .017 .365 .017c1.352 0 2.004 -.602 2.004 -1.852c0 -1.203 -.604 -1.741 -1.956 -1.741zm23.46 -19.872l.014 .547l.256 10.437c.022 1.294 -.536 2.524 -1.656 3.658c-2.005 2.03 -5.294 3.199 -5.971 3.199c-.604 0 -3.972 -1.168 -5.98 -3.205c-1.118 -1.134 -1.67 -2.361 -1.646 -3.649l.256 -10.44l.013 -.547h14.715zm-.549 .561h-13.615l-.257 10.436c-.078 4.016 6.43 6.282 7.063 6.282c.631 0 7.132 -2.266 7.064 -6.282l-.256 -10.437zm-1.354 1.184l.23 9.351l-.001 -.015c.023 1.325 -1.29 2.479 -2.396 3.212a13.67 13.67 0 0 1 -2.275 1.204c-.545 .21 -.516 -.409 -.428 -.781c.15 -.634 .404 -.913 1.29 -1.426c.795 -.46 .775 -.768 .264 -.968c-.517 -.207 .23 -.792 1.192 -1.51c1.034 -.77 1.289 -1.593 .183 -1.628c-1.153 -.036 -.873 -.32 .289 -1.766c.996 -1.242 1.08 -2.18 -.334 -1.82c-.64 .163 -.69 -.05 -.55 -.92c.118 -.722 -.4 -.95 -.989 -.71c-.375 .152 -.417 -.082 -.904 -.557c-.67 -.653 -1.28 -.622 -1.28 .592c0 1.389 1.314 5.688 -.253 11.692a13.093 13.093 0 0 1 -.35 -.139c-.632 -.27 -.204 -.787 -.062 -1.052c.311 -.582 -.142 -.812 -1.102 -1.429c-.802 -.516 -.784 -.955 -.167 -1.023c.392 -.044 .563 -.314 -1.136 -1.516c-1.934 -1.368 -1.4 -2.074 -.084 -2.006c.711 .037 .048 -.64 -.454 -1.433c-1.167 -1.836 -.557 -2.26 .525 -2.076c1.382 .234 .988 .087 1.267 -1.046c.13 -.531 .566 -.954 1.078 -1.116c.288 -.092 .576 -.144 .49 -.595a3.23 3.23 0 0 0 -.17 -.52h6.127zm6.479 -17.078c1.323 0 2.526 .214 3.7 .644v2.936h-1.6l-.173 -.855l-.067 -.336l-.158 -.782c-.02 -.095 -.113 -.179 -.228 -.203a4.359 4.359 0 0 0 -.924 -.093c-2.174 0 -3.579 1.647 -3.579 4.195c0 2.568 1.405 4.228 3.579 4.228c.355 0 .676 -.022 .927 -.063a.243 .243 0 0 0 .208 -.186l.431 -2.083h1.585v3.03c-1.25 .408 -2.485 .612 -3.798 .612c-1.842 0 -3.378 -.52 -4.443 -1.503a5.376 5.376 0 0 1 -1.768 -4.003c0 -1.91 1.016 -3.656 2.717 -4.668c.954 -.569 2.195 -.869 3.59 -.869zm-21.43 0c1.325 0 2.528 .214 3.703 .644v2.936h-1.601l-.173 -.855l-.067 -.336l-.158 -.782c-.02 -.095 -.113 -.179 -.229 -.203a4.358 4.358 0 0 0 -.923 -.093c-2.174 0 -3.579 1.647 -3.579 4.195c0 2.568 1.405 4.228 3.579 4.228c.355 0 .676 -.022 .927 -.063a.243 .243 0 0 0 .208 -.186l.431 -2.083h1.585v3.03c-1.25 .408 -2.485 .612 -3.799 .612c-1.841 0 -3.378 -.52 -4.442 -1.503a5.375 5.375 0 0 1 -1.767 -4.003c0 -1.91 1.015 -3.656 2.716 -4.668c.953 -.569 2.195 -.869 3.59 -.869zm14.019 .203v2.734h-1.49l-.268 -1.442c-.014 -.078 -.074 -.122 -.165 -.122h-2.915v3.352h1.733c.096 0 .168 -.065 .182 -.167l.17 -1.178h1.263v3.97h-1.264l-.169 -1.178c-.015 -.102 -.086 -.168 -.182 -.168h-1.733v3.65h3.417c.125 0 .16 -.167 .165 -.2l.3 -1.787h1.457v3.157h-9.621v-1.026l1.142 -.065c.092 -.007 .201 -.135 .201 -.237v-8.027c0 -.097 -.104 -.169 -.201 -.174l-1.142 -.067v-1.025h9.12z" />
</svg>
