<svg xmlns="http://www.w3.org/2000/svg" width="48" height="48" viewBox="0 0 48 48" fill="currentColor"><path d="M37.786 2.282c2.1 .819 3.68 2.2 4.844 4.046c1.054 1.67 1.646 3.5 1.972 5.416c.01 .058 -.006 .12 -.02 .31c-.134 -.23 -.223 -.36 -.29 -.5c-1.16 -2.404 -2.976 -4.177 -5.482 -5.287a9.739 9.739 0 0 0 -2.749 -.747c-2.067 -.261 -4.073 .005 -6.045 .634l-.22 .073c.215 .151 .445 .324 .536 .373c3.125 1.687 5.75 3.925 8.042 6.534a33.713 33.713 0 0 1 4.223 5.998c2.349 4.27 3.826 8.772 3.9 13.629c.034 2.234 -.276 4.425 -1.096 6.532c-.802 2.06 -2.025 3.835 -3.875 5.202c-1.81 1.335 -3.866 1.957 -6.135 2.002c-2.053 .04 -4.017 -.38 -5.926 -1.066c-.058 -.02 -.107 -.065 -.273 -.171h.401c.072 0 .137 .003 .202 .008c2.774 .239 5.306 -.385 7.586 -1.911a9.36 9.36 0 0 0 2.07 -1.909c1.284 -1.584 2.057 -3.382 2.482 -5.333c.9 -4.123 .395 -8.153 -.941 -12.105c-2.062 -6.102 -5.612 -11.304 -10.715 -15.527c-.557 -.462 -1.675 -1.137 -2.25 -1.579l.05 -.03c-3.299 1.406 -6.083 3.543 -8.526 6.134c-4.49 4.761 -7.43 10.297 -8.719 16.62c-.14 .692 -.203 1.396 -.319 2.093c0 0 -.093 .49 .19 .688l-1.623 -1.314c.014 -.278 .028 -.422 .027 -.566c-.024 -3.42 .697 -6.707 1.918 -9.905a33.352 33.352 0 0 1 3.328 -6.489c2.691 -4.078 6.027 -7.555 10.374 -10.055c2.002 -1.15 4.133 -1.994 6.442 -2.377c2.256 -.374 4.467 -.258 6.617 .58zm-30.807 13.763c-.14 .227 -.212 .367 -.305 .493c-1.58 2.164 -2.264 4.559 -2.007 7.196c.09 .92 .336 1.805 .705 2.656c.801 1.847 2.045 3.38 3.597 4.703c3.283 2.796 7.173 4.39 11.4 5.262c6.528 1.347 12.976 1.02 19.303 -1.074c.693 -.229 1.358 -.529 2.042 -.781c0 0 .487 -.168 .523 -.503l-.368 2.007c-.257 .128 -.393 .188 -.522 .261c-3.063 1.73 -6.377 2.775 -9.863 3.36a36.562 36.562 0 0 1 -7.498 .484c-5.013 -.197 -9.808 -1.226 -14.232 -3.587c-2.037 -1.086 -3.863 -2.435 -5.362 -4.16c-1.468 -1.687 -2.47 -3.58 -2.793 -5.785c-.316 -2.154 .135 -4.156 1.21 -6.046c.973 -1.71 2.321 -3.117 3.88 -4.347c.047 -.037 .112 -.055 .29 -.139z"/></svg>