<svg xmlns="http://www.w3.org/2000/svg" width="48" height="48" viewBox="0 0 48 48" fill="currentColor"><path d="M35.32 25.072c.392 -.828 .457 -.824 1.458 .089a145.24 145.24 0 0 0 2.859 2.54c.597 .513 1.874 1.642 2.35 2.075c.146 .134 .323 .274 .393 .311c.07 .038 .43 .35 .803 .696a93.64 93.64 0 0 0 1.785 1.59l.17 .148c1.525 1.327 1.522 1.356 1.17 1.787c-.102 .124 -.185 .252 -.185 .285c0 .124 -1.071 1.842 -1.34 2.149a7.78 7.78 0 0 0 -.323 .43c-.767 1.075 -2.478 2.882 -3.683 3.89l-1.109 .929c-.238 .2 -1.463 .994 -1.944 1.26c-.132 .073 -.407 .23 -.61 .35c-.632 .37 -2.007 1.026 -2.587 1.235c-2.363 .85 -3.65 1.183 -5.96 1.545c-1.545 .243 -6.96 .09 -8.361 -.236c-1.093 -.255 -4.953 -1.643 -5.228 -1.88a.542 .542 0 0 0 -.295 -.126c-.082 0 -.172 -.037 -.2 -.081l-.019 -.018c-.08 -.068 -.395 -.254 -.75 -.44a27.675 27.675 0 0 1 -1.63 -.963a45.194 45.194 0 0 0 -1.102 -.69c-.263 -.147 -1.512 -1.153 -1.961 -1.58a27.794 27.794 0 0 0 -.647 -.596c-1.006 -.883 -2.919 -3.178 -3.39 -4.067a6.364 6.364 0 0 0 -.176 -.291l-.175 -.274c-.22 -.356 -.55 -.996 -1.04 -2.013c-.326 -.679 -.711 -1.676 -.711 -1.844c0 -.076 -.085 -.306 -.188 -.51c-.103 -.205 -.25 -.663 -.327 -1.018c-.077 -.356 -.18 -.718 -.229 -.805a.922 .922 0 0 1 -.088 -.375c0 -.12 -.062 -.36 -.138 -.536a2.065 2.065 0 0 1 -.137 -.699c.001 -.209 -.069 -.783 -.155 -1.275c-.27 -1.55 -.117 -1.515 .802 .185c.238 .44 .688 1.235 1 1.769c.313 .533 .568 .994 .568 1.025c0 .03 .062 .133 .138 .228c.075 .096 .528 .745 1.006 1.443c1.235 1.803 2.44 2.95 3.846 3.664c.228 .116 .478 .26 .554 .318c.21 .163 2.561 1.274 2.698 1.275c.066 .001 .289 .094 .494 .207c.35 .192 .56 .269 1.751 .637c.535 .166 1.287 .333 2.587 .577c1.03 .194 3.819 .248 4.636 .09l.954 -.18c.876 -.166 1.147 -.238 1.432 -.387c.153 -.08 .323 -.145 .378 -.145c.13 0 1.459 -.556 1.622 -.678a1.35 1.35 0 0 1 .301 -.155c1.135 -.39 4.175 -3.068 5.368 -4.728c.153 -.212 .469 -.636 .703 -.942c.423 -.553 .784 -1.15 1.517 -2.51a466.116 466.116 0 0 1 .583 -1.08l.137 -.275c.048 -.098 .096 -.199 .136 -.287c.101 -.22 .32 -.689 .489 -1.043zm-15.484 -23.467c.874 -.203 .802 -.013 -.187 .498c-.204 .105 -.711 .437 -1.127 .737c-.415 .3 -.792 .546 -.836 .546c-.045 0 -.181 .103 -.304 .228a3.002 3.002 0 0 1 -.5 .395c-.37 .221 -1.483 1.262 -1.944 1.818c-.203 .244 -.444 .524 -.536 .622c-.514 .546 -1.411 1.866 -1.5 2.206a.729 .729 0 0 1 -.19 .332c-.07 .057 -.129 .23 -.129 .386c0 .155 -.041 .321 -.092 .37c-.088 .085 -.18 .429 -.386 1.457c-.054 .268 -.134 .53 -.177 .582c-.043 .052 -.124 .452 -.18 .888a310.01 310.01 0 0 1 -.183 1.415c-.104 .782 -.104 2.734 0 3.551c.166 1.31 .282 1.948 .371 2.033c.051 .05 .093 .197 .093 .328s.064 .453 .144 .715c.378 1.254 .453 1.483 .62 1.896c.41 1.014 1.349 2.848 1.772 3.463c.168 .244 .386 .59 .486 .77c.099 .179 .293 .459 .43 .621c.44 .521 .93 1.113 1.16 1.403c.706 .89 3.23 3.194 4.443 4.053c.432 .306 .984 .7 1.228 .877c.243 .176 .503 .342 .577 .37c.348 .127 .02 .53 -.766 .939c-.857 .446 -1.002 .511 -1.135 .511a.415 .415 0 0 0 -.233 .075c-.377 .321 -3.036 .602 -4.384 .462c-1.825 -.188 -3.03 -.544 -5.08 -1.499c-1.8 -.838 -4.585 -3.333 -5.17 -4.631a3.962 3.962 0 0 0 -.283 -.488l-.062 -.096a3.284 3.284 0 0 1 -.214 -.393a4.886 4.886 0 0 0 -.234 -.46c-.612 -1.045 -1.144 -2.342 -1.396 -3.402c-.081 -.342 -.18 -.661 -.22 -.71c-.038 -.049 -.1 -.309 -.135 -.577a8.287 8.287 0 0 0 -.188 -.932c-.266 -.966 -.237 -5.144 .046 -6.482c.276 -1.304 .712 -2.726 1.032 -3.365c.145 -.29 .263 -.596 .263 -.683c0 -.087 .042 -.184 .095 -.215c.052 -.031 .212 -.283 .355 -.56c.37 -.718 .8 -1.424 1.119 -1.836c.15 -.195 .39 -.515 .53 -.71c.14 -.195 .312 -.39 .383 -.432c.14 -.085 .986 -.9 1.493 -1.44c.43 -.458 1.898 -1.612 2.307 -1.812a2.11 2.11 0 0 0 .5 -.346c.097 -.103 .243 -.187 .326 -.187c.082 0 .286 -.12 .453 -.266c.167 -.147 .326 -.267 .354 -.267c.027 0 .703 -.31 1.502 -.688c1.694 -.803 1.965 -.916 2.802 -1.173a7.76 7.76 0 0 0 .878 -.32c.14 -.069 .324 -.126 .41 -.127c.086 0 .182 -.04 .213 -.089c.032 -.049 .203 -.089 .381 -.089c.179 0 .415 -.047 .526 -.104a2.49 2.49 0 0 1 .48 -.168zm8.274 -.105c.841 .005 1.732 .034 2.04 .08c3.249 .497 5.686 1.385 7.726 2.815c.299 .21 .81 .543 1.136 .742c.327 .199 .622 .398 .655 .443c.033 .044 .413 .379 .844 .743c1.097 .93 2.39 2.198 2.866 2.814c1.79 2.318 1.81 2.46 .21 1.53c-.695 -.402 -1.975 -1.022 -2.524 -1.22c-.33 -.12 -.64 -.247 -.69 -.284c-.051 -.037 -.362 -.155 -.691 -.262l-.875 -.287c-2.317 -.768 -7.405 -1.103 -9.026 -.595c-.151 .047 -.648 .124 -1.102 .17c-.454 .047 -.951 .122 -1.105 .168l-.781 .225l-.295 .083c-1.339 .38 -5.63 2.587 -5.771 2.97c-.016 .044 -.43 .355 -.921 .693c-.49 .338 -1.12 .824 -1.399 1.08c-1.83 1.686 -2.703 2.526 -3.269 3.142c-1.679 1.832 -1.719 1.847 -1.899 .697a7.312 7.312 0 0 0 -.223 -.98c-.725 -2.11 -.187 -6.26 1.089 -8.394c.203 -.341 .433 -.738 .511 -.882c.078 -.145 .29 -.407 .47 -.583a9.46 9.46 0 0 0 .472 -.49c.356 -.422 2.033 -1.806 2.19 -1.806c.05 0 .21 -.093 .353 -.205c.265 -.208 1.125 -.592 1.327 -.592c.061 0 .468 -.143 .904 -.317l.145 -.058l.832 -.333c.242 -.096 1.331 -.397 2.026 -.56c1.385 -.324 1.87 -.415 2.256 -.42c.228 -.004 .6 -.04 .829 -.08c.168 -.029 .639 -.044 1.196 -.047z"/></svg>