<svg xmlns="http://www.w3.org/2000/svg" width="48" height="48" viewBox="0 0 48 48" fill="currentColor"><path d="M12.301 12.086c-.55 .3 -2.328 1.67 -4.427 3.412c-3.031 2.514 -4.626 3.918 -5.725 5.034c-.459 .465 -.649 .697 -.649 .785c0 .03 .027 .094 .059 .146c.276 .432 2.15 2.163 4.379 4.04c1.915 1.614 6.48 5.44 6.489 5.44c.029 0 2.99 -2.371 4.217 -3.378l1.424 -1.168c.044 -.033 .069 -.019 1.017 .65a489.386 489.386 0 0 1 2.96 2.102c.289 .202 .655 .474 .816 .601c.325 .256 .545 .377 .794 .44c.205 .052 .508 .054 .7 .008c.187 -.044 .486 -.192 .652 -.322c.383 -.3 .919 -.693 1.57 -1.151a418.472 418.472 0 0 1 3.288 -2.326l.053 -.037l1.415 1.124c.776 .617 2.05 1.647 2.83 2.285c.78 .639 1.43 1.162 1.444 1.16c.027 -.002 5.053 -4.197 5.989 -4.999c2.702 -2.317 4.866 -4.31 4.866 -4.481c0 -.293 -1.877 -2.116 -4.67 -4.536c-3.123 -2.707 -5.792 -4.768 -6.168 -4.768c-.35 0 -1.985 1.13 -4.16 2.876a60.624 60.624 0 0 0 -1.79 1.49c-2.038 1.81 -4.376 3.613 -5.306 4.092c-.288 .149 -.345 .161 -.487 .107c-.718 -.274 -3.387 -2.3 -6.138 -4.66c-2.61 -2.24 -4.96 -4.054 -5.247 -4.052c-.021 0 -.11 .04 -.195 .086zm-1.522 24.147c.362 -.008 .475 -.019 .611 -.054c.363 -.097 .645 -.283 1.106 -.733c.441 -.431 .674 -.768 .812 -1.174c.086 -.253 .107 -.599 .05 -.814c-.146 -.563 -.613 -.905 -1.423 -1.04a6.395 6.395 0 0 0 -1.1 -.03c-.598 .067 -1.12 .236 -1.496 .488c-.285 .19 -.643 .623 -.816 .988c-.218 .46 -.291 .981 -.19 1.362c.114 .44 .598 .777 1.32 .926c.345 .07 .645 .094 1.126 .081zm-3.812 -.027c.294 -.096 .453 -.408 1.001 -1.966c.211 -.602 .435 -1.297 .492 -1.536c.038 -.149 .038 -.155 .002 -.182c-.117 -.084 -.78 -.14 -1.111 -.094c-.52 .073 -.752 .253 -1.681 1.306a19.77 19.77 0 0 1 -.52 .573c-.004 -.004 -.069 -.27 -.144 -.592c-.232 -1 -.312 -1.166 -.592 -1.26c-.08 -.025 -.233 -.034 -.779 -.04l-.68 -.008l-.302 .833c-.167 .458 -.485 1.317 -.707 1.909c-.222 .592 -.404 1.08 -.404 1.084c0 .004 .262 .006 .582 .002c.502 -.006 .59 -.012 .663 -.044c.218 -.098 .291 -.236 .515 -.975c.168 -.555 .327 -.84 .471 -.84c.03 0 .063 .021 .084 .053c.071 .11 .096 .251 .113 .68c.01 .237 .033 .503 .05 .595c.12 .609 .488 .535 1.352 -.273c.63 -.588 .95 -.833 .995 -.761c.006 .012 -.036 .165 -.094 .339c-.262 .778 -.281 1.073 -.078 1.182c.103 .057 .62 .067 .772 .015zm6.523 .033c.772 0 .898 -.07 1.095 -.607c.379 -1.03 .481 -1.255 .577 -1.255c.076 0 .151 .232 .27 .824c.12 .599 .18 .752 .331 .84c.138 .08 .291 .094 .967 .094h.632l.055 -.143c.027 -.077 .272 -.728 .542 -1.448c.548 -1.459 .697 -1.894 .676 -1.974c-.042 -.167 -.818 -.222 -1.103 -.077c-.163 .083 -.27 .261 -.427 .711c-.17 .492 -.304 .777 -.425 .907c-.08 .085 -.121 .104 -.172 .077c-.07 -.038 -.104 -.211 -.125 -.649a3.662 3.662 0 0 0 -.05 -.53c-.088 -.322 -.237 -.472 -.54 -.55c-.16 -.04 -.834 -.056 -1.112 -.027c-.329 .033 -.287 -.013 -.454 .486a48.02 48.02 0 0 1 -.38 1.055c-.215 .58 -.813 2.237 -.813 2.258c0 .003 .115 .006 .279 .008h.177zm7.069 -.029c.8 -.023 1.057 -.104 1.398 -.437c.289 -.285 .337 -.448 .163 -.538c-.134 -.067 -.286 -.084 -.965 -.105c-1.07 -.033 -1.37 -.069 -1.473 -.167c-.042 -.04 -.042 -.042 0 -.086c.104 -.117 .364 -.182 .824 -.207c.492 -.03 .798 -.126 1.07 -.342c.136 -.108 .375 -.397 .375 -.454c0 -.08 -.074 -.092 -.628 -.109c-.4 -.01 -.582 -.025 -.724 -.054c-.54 -.115 -.471 -.274 .159 -.36a10.7 10.7 0 0 1 .711 -.042c.71 -.025 1.013 -.077 1.315 -.224c.232 -.113 .406 -.337 .377 -.484c-.01 -.05 -.124 -.081 -.44 -.117c-.445 -.053 -.993 -.072 -2.092 -.075h-1.462l-.02 .046a201.73 201.73 0 0 0 -.962 2.677l-.35 .999l.241 .012c.804 .042 2.114 .08 2.483 .067zm-10.226 -1.118c-.448 -.083 -.67 -.335 -.61 -.692a1.46 1.46 0 0 1 .38 -.702c.308 -.299 .85 -.46 1.298 -.387c.257 .04 .456 .165 .55 .343c.065 .128 .074 .367 .017 .55c-.107 .357 -.452 .692 -.864 .836a1.157 1.157 0 0 1 -.404 .065a2.542 2.542 0 0 1 -.367 -.013zm31.945 -2.704a.388 .388 0 0 0 -.12 .044c-.058 .048 -.07 .017 .43 1.262l.236 .584l-.06 .057c-.032 .031 -.517 .466 -1.078 .969l-1.02 .912l.132 .013c.073 .008 .329 .01 .57 .006c.4 -.008 .454 -.014 .623 -.067c.377 -.115 .57 -.236 .959 -.617c.146 -.14 .255 -.233 .266 -.22c.01 .01 .077 .132 .15 .27c.266 .505 .486 .638 1.055 .638c.312 0 .467 -.033 .547 -.119c.14 -.153 .01 -.563 -.438 -1.383c-.178 -.327 -.205 -.388 -.18 -.41a153.853 153.853 0 0 0 1.624 -1.436l.526 -.472l-.41 -.006a5.456 5.456 0 0 0 -.586 .017c-.394 .052 -.781 .21 -1.01 .408c-.207 .182 -.292 .24 -.357 .24c-.063 0 -.132 -.058 -.297 -.255a.627 .627 0 0 0 -.252 -.192c-.364 -.176 -1.036 -.3 -1.31 -.243zm-18.26 .054c-.129 .04 -.192 .118 -.173 .218c.023 .128 .188 .603 .354 1.022c.297 .743 .295 .812 -.063 1.67c-.22 .53 -.276 .718 -.243 .793c.013 .03 .048 .063 .08 .074c.09 .035 .758 .025 .883 -.01c.222 -.068 .387 -.258 .549 -.635c.224 -.521 .376 -.79 .676 -1.187c.364 -.481 .623 -.751 1.36 -1.423l.574 -.524l-.348 -.019c-.676 -.035 -1.14 .078 -1.61 .394c-.278 .188 -.34 .222 -.418 .222c-.071 0 -.163 -.094 -.26 -.258c-.13 -.224 -.554 -.372 -1.052 -.368c-.12 0 -.252 .015 -.308 .031zm7.97 3.797c.136 0 .768 -.59 1.9 -1.779l.329 -.343l-.25 .615c-.303 .754 -.38 .99 -.384 1.173c-.004 .159 .03 .228 .138 .286c.05 .028 .105 .036 .32 .038h.103c.35 0 .358 0 .454 -.057c.295 -.173 .456 -.535 1.275 -2.859c.171 -.485 .312 -.89 .312 -.896a.431 .431 0 0 0 -.1 -.006h-.157c-.093 0 -.204 .002 -.323 .004c-.657 .01 -.752 .027 -1.053 .184c-.272 .14 -.507 .342 -1.202 1.013c-.59 .574 -.674 .65 -.686 .61a16.19 16.19 0 0 1 -.122 -.683c-.106 -.647 -.138 -.78 -.196 -.896a.427 .427 0 0 0 -.239 -.194c-.096 -.03 -.82 -.044 -1.015 -.02c-.205 .026 -.34 .057 -.456 .108c-.116 .05 -.13 .075 -.291 .479c-.117 .29 -.284 .739 -.453 1.205l-.125 .35c-.125 .35 -.243 .69 -.335 .96l-.081 .246c-.06 .182 -.095 .302 -.095 .326c0 .088 .287 .143 .685 .132c.267 -.006 .297 -.01 .41 -.067c.2 -.096 .28 -.23 .475 -.797c.268 -.773 .484 -1.151 .6 -1.055c.06 .05 .074 .13 .09 .469c.04 .803 .252 1.454 .472 1.454zm8.167 -.054c.12 -.088 .137 -.15 .126 -.51c-.013 -.352 -.04 -.537 -.245 -1.648c-.268 -1.43 -.301 -1.493 -.894 -1.553c-.326 -.034 -.469 -.038 -.613 -.021c-.345 .044 -.638 .29 -1.312 1.118c-.465 .571 -2.037 2.551 -2.029 2.558c.01 .012 1.75 .09 2.012 .09c.3 0 .661 -.032 .843 -.074c.195 -.046 .327 -.117 .545 -.293c.286 -.23 .314 -.23 .433 .017c.071 .149 .172 .237 .36 .312c.107 .042 .157 .048 .419 .048c.268 0 .301 -.004 .355 -.044zm-2.076 -.858c-.28 .002 -.391 -.032 -.448 -.136c-.03 -.053 -.027 -.065 .034 -.189c.098 -.198 .272 -.45 .621 -.896c.172 -.22 .316 -.4 .318 -.4c.005 0 .063 .172 .132 .382c.176 .538 .21 .875 .103 1.013c-.107 .136 -.408 .226 -.76 .226z"/></svg>