<svg xmlns="http://www.w3.org/2000/svg" width="48" height="48" viewBox="0 0 48 48" fill="currentColor"><path d="M6.117 1.56a9.52 9.52 0 0 0 -1.075 .166c-.192 .051 -.64 .152 -.996 .225c-.698 .143 -2.004 .718 -2.331 1.027l-.202 .19v9.29c0 5.11 .025 9.354 .054 9.432c.084 .217 .322 .17 1.036 -.205c1.98 -1.043 5.46 -1.534 7.285 -1.029c.296 .082 .679 .18 .851 .22c1.402 .31 3.362 1.397 4.501 2.492c.798 .768 .736 .9 -.928 1.999c-.794 .523 -1.376 .817 -2.839 1.436c-1.347 .57 -4.093 .759 -5.642 .39c-.881 -.21 -2.836 -.839 -3.154 -1.014c-.441 -.245 -.884 -.32 -1.03 -.174c-.166 .165 -.207 18.6 -.042 18.905c.59 1.095 7.395 1.98 9.263 1.205a3.7 3.7 0 0 1 .686 -.185c1.975 -.316 4.847 -1.92 6.807 -3.802c4.53 -4.35 5.849 -11.189 3.208 -16.637l-.607 -1.252l.318 -.592c.176 -.326 .391 -.713 .48 -.86c1.02 -1.683 1.508 -5.332 1.067 -7.977c-.327 -1.964 -.753 -3.36 -1.44 -4.723c-.29 -.572 -.526 -1.061 -.526 -1.087c0 -.682 -3.276 -4.202 -4.744 -5.098c-.82 -.5 -2.353 -1.275 -2.96 -1.496a50.767 50.767 0 0 1 -.85 -.315c-1.114 -.44 -4.364 -.72 -6.19 -.531m32.57 .09c-4.916 .557 -9.04 3.262 -11.487 7.533c-.601 1.05 -.94 1.77 -1.103 2.345a1.139 1.139 0 0 1 -.137 .315c-.04 .051 -.173 .512 -.294 1.024c-.863 3.644 -.517 6.833 1.12 10.297c.431 .913 .434 .85 -.1 1.906c-.613 1.209 -1.099 2.652 -1.311 3.896c-.414 2.419 -.159 5.512 .625 7.576c.373 .981 .946 2.225 1.204 2.61c.135 .202 .3 .474 .366 .604c.226 .447 1.604 2.08 2.317 2.746c3.215 3.005 7.81 4.448 12.34 3.874c1.855 -.234 4.157 -1.012 4.165 -1.406c.052 -2.73 .035 -18.759 -.02 -18.867c-.112 -.224 -.239 -.199 -1.026 .203c-4.042 2.065 -9.148 1.391 -12.447 -1.642c-.793 -.729 -.72 -.904 .827 -1.976c3.546 -2.456 7.99 -2.803 11.59 -.906c.75 .395 .899 .445 1.02 .345c.217 -.179 .22 -18.818 .003 -19.125c-.663 -.94 -4.812 -1.673 -7.653 -1.351m-29.015 3.968c3.586 .608 6.537 2.814 8.221 6.146c1.408 2.785 1.327 7.103 -.186 9.932c-.383 .716 -.488 .704 -1.502 -.172c-2.03 -1.754 -6.707 -3.254 -9.197 -2.95c-1.277 .156 -1.147 .826 -1.162 -6.004c-.014 -6.886 -.02 -6.768 .359 -6.954c.386 -.19 2.346 -.188 3.467 .002m32.24 .078c1.403 .208 2.243 .431 2.36 .628c.174 .294 .145 10.523 -.031 10.638c-.14 .092 -.188 .087 -1.21 -.135c-3 -.652 -8.235 .242 -10.14 1.73c-.126 .099 -.278 .18 -.337 .18c-.06 0 -.545 .322 -1.08 .717c-1.599 1.182 -1.606 1.18 -2.012 -.805c-.998 -4.866 1.552 -9.827 6.18 -12.021c.32 -.152 .643 -.308 .718 -.346c1.012 -.524 3.907 -.83 5.552 -.586m-24.584 20.14c.454 .314 1.314 2.945 1.49 4.56c.63 5.754 -3.559 11.04 -9.422 11.886c-1.939 .28 -3.351 .07 -3.505 -.52c-.064 -.248 -.018 -12.166 .047 -12.232c.02 -.019 .735 -.046 1.59 -.06c2 -.033 2.965 -.217 5.183 -.985c1.328 -.461 2.176 -.956 3.702 -2.16c.734 -.58 .762 -.596 .915 -.489m12.968 1.814c.107 .056 .292 .197 .41 .313c.826 .808 3.164 2.142 4.622 2.636c1.324 .449 1.555 .508 2.643 .684c1.36 .219 3.174 .238 4.389 .045c1.61 -.256 1.85 -.265 1.956 -.07c.062 .115 .096 1.908 .101 5.255l.008 5.081l-.222 .174a1.977 1.977 0 0 1 -.607 .27c-.212 .054 -.647 .165 -.967 .245c-2.58 .653 -5.991 -.01 -8.5 -1.649c-4.174 -2.729 -6.11 -8.507 -4.273 -12.752c.162 -.373 .166 -.375 .44 -.232"/></svg>