<svg xmlns="http://www.w3.org/2000/svg" width="48" height="48" viewBox="0 0 48 48" fill="currentColor"><path d="M43.177 4.125c.373 0 .735 .054 1.09 .184c.8 .293 1.409 .833 1.817 1.625c.269 .52 .415 1.082 .415 1.685c0 11.002 0 22.005 -.002 33.005c0 .51 -.121 .988 -.316 1.458c-.363 .87 -.97 1.444 -1.774 1.8c-.363 .16 -.746 .227 -1.136 .24c-.042 .003 -.084 0 -.125 0c-12.764 0 -25.527 0 -38.29 .003c-.394 0 -.784 -.052 -1.153 -.185a3.318 3.318 0 0 1 -1.01 -.612c-.483 -.407 -.787 -.951 -1.028 -1.539c-.06 -.15 -.086 -.324 -.125 -.488c-.036 -.15 -.03 -.315 -.036 -.472l-.005 -.17v-33.061c0 -.44 .095 -1.049 .269 -1.411c.48 -.997 1.198 -1.69 2.23 -1.964a3.23 3.23 0 0 1 .83 -.095l9.578 -.002h28.77zm-30.147 3.75h-9.03v32.212l.035 -.001l.001 .048l8.335 -.047l.014 -3.433c1.152 1.441 2.216 2.424 3.194 2.95c1.304 .673 2.74 1.01 4.307 1.01c1.83 0 3.497 -.48 4.998 -1.44a8.218 8.218 0 0 0 1.426 -1.155l.048 -.016l.01 -.044c.816 -.842 1.497 -1.887 2.043 -3.135c.85 -1.94 1.274 -4.185 1.274 -6.734c0 -1.345 -.115 -2.58 -.345 -3.703l.02 -.025c.646 -.765 1.5 -1.148 2.558 -1.148c.897 0 1.647 .405 2.25 1.214c.412 .514 .618 1.301 .618 2.36v13.346h9v-14.714c0 -3.176 -.706 -5.51 -2.118 -7.003c-1.412 -1.493 -3.375 -2.24 -5.89 -2.24c-1.705 0 -3.14 .276 -4.3 .828c-1.163 .551 -2.45 1.592 -3.861 3.121c-.691 -1.309 -1.581 -2.294 -2.67 -2.956c-1.088 -.661 -2.565 -.992 -4.433 -.992c-.473 0 -.927 .022 -1.362 .067a9.485 9.485 0 0 0 -3.079 .683a8.836 8.836 0 0 0 -3.043 2.109v-11.162zm4.065 15.03c1.01 0 1.871 .431 2.582 1.296c.71 .864 1.066 2.219 1.066 4.065c0 2.094 -.363 3.585 -1.088 4.47c-.725 .887 -1.622 1.33 -2.692 1.33c-1.157 0 -2.113 -.45 -2.867 -1.351c-.755 -.9 -1.132 -2.355 -1.132 -4.362c0 -1.83 .385 -3.197 1.154 -4.097c.769 -.901 1.761 -1.352 2.977 -1.352z"/></svg>