<svg xmlns="http://www.w3.org/2000/svg" width="48" height="48" viewBox="0 0 48 48" fill="currentColor"><path d="M12.957 7.203c-1.317 .312 -1.79 1.116 -1.946 3.315c-.152 2.139 -.05 1.923 -1.024 2.157c-4.937 1.187 -7.984 5.047 -8.44 10.687c-.446 5.525 2.293 10.07 6.945 11.528l.542 .17l-.063 .809c-.28 3.584 -.102 4.23 1.272 4.64c2.06 .613 3.142 -.507 3.378 -3.498l.117 -1.47l.477 -.075c4.498 -.7 6.832 -2.143 6.832 -4.227c0 -2.031 -1.293 -2.613 -3.354 -1.509c-6.522 3.493 -11.717 -.813 -9.83 -8.148c1.18 -4.592 5.725 -6.099 10.69 -3.545c1.83 .94 2.886 .666 3.389 -.882c.741 -2.28 -1.16 -3.905 -5.485 -4.691l-.84 -.153l.037 -.298c.124 -.978 .227 -2.82 .173 -3.1c-.25 -1.305 -1.482 -2.038 -2.87 -1.71m14.114 3.26c-.457 .145 -1.094 .79 -1.282 1.3c-.114 .309 -.27 1.859 -.564 5.6l-.405 5.173l-1.576 .047c-2.217 .067 -2.866 .484 -2.866 1.84c0 1.412 .668 1.862 2.767 1.862c1.327 0 1.341 .002 1.342 .213c0 .118 -.154 2.164 -.344 4.548c-.324 4.092 -.335 4.364 -.194 4.846c.648 2.216 4.3 1.873 4.776 -.448c.032 -.157 .187 -2.015 .345 -4.129c.158 -2.114 .313 -4.094 .346 -4.4l.06 -.555l2.306 .043c4.031 .075 3.835 -.094 6.86 5.896c1.11 2.2 2.12 4.131 2.243 4.292c1.014 1.324 3.498 1.037 4.242 -.49c.44 -.904 .349 -1.193 -1.48 -4.691c-2.17 -4.155 -2.488 -4.615 -3.555 -5.159c-.509 -.259 -.52 -.248 .486 -.485c3.958 -.934 5.899 -3.486 5.922 -7.786c.022 -4.278 -2.063 -6.762 -6.292 -7.495c-1.05 -.182 -12.571 -.202 -13.137 -.022m11.915 3.91c1.69 .396 2.548 1.32 2.802 3.017c.283 1.89 -.488 3.698 -1.904 4.464c-1.136 .614 -1.562 .664 -6.067 .706l-4.092 .039l.057 -.506c.031 -.279 .163 -1.937 .293 -3.686a231.6 231.6 0 0 1 .293 -3.678l.055 -.498l3.982 .001c3.176 .001 4.104 .03 4.581 .142"/></svg>