<svg xmlns="http://www.w3.org/2000/svg" width="48" height="48" viewBox="0 0 48 48" fill="currentColor"><path d="M45.848 19.489a3.09 3.09 0 0 1 -.359 4.184c-1.18 1.068 -3.242 1.046 -4.392 -.66c-.008 .1 -.014 .165 -.016 .232c-.002 .136 .002 .274 -.002 .41c-.007 .137 -.044 .18 -.172 .2c-.07 .01 -.138 .008 -.21 .008h-1.759c-.057 0 -.113 -.002 -.168 .002c-.167 .018 -.209 .059 -.209 .23c-.004 .374 -.004 .75 0 1.124c.002 .227 .05 .27 .279 .272c.502 .002 1.005 0 1.508 0c.056 0 .11 -.002 .167 .002c.172 .013 .21 .059 .19 .232c-.02 .192 -.04 .387 -.062 .58c-.021 .17 -.071 .224 -.239 .244c-.102 .012 -.21 .008 -.314 .01h-1.152c-.063 0 -.126 .002 -.188 .011c-.105 .013 -.166 .074 -.166 .186c0 .482 -.002 .967 .002 1.449c.002 .136 .048 .177 .178 .19l.083 .003h1.886l.188 .001c.273 .011 .308 .05 .31 .335v.411c0 .338 -.008 .346 -.345 .346h-3.267c-.308 0 -.36 -.054 -.36 -.38l.004 -1.125v-4.778c0 -.38 .01 -.394 .37 -.394l3.351 .007c.061 0 .124 -.009 .208 -.015c.06 -.201 .117 -.385 .176 -.577h.904c.061 .181 .124 .376 .189 .575h.567c-.008 -.07 -.008 -.126 -.025 -.178l-.735 -2.501c-.056 -.188 -.073 -.2 -.268 -.201a4.87 4.87 0 0 0 -.251 0c-.193 .002 -.21 .015 -.266 .203c-.13 .432 -.258 .867 -.386 1.301c-.085 .29 -.171 .578 -.274 .917a2.778 2.778 0 0 1 -.132 -1.388a2.946 2.946 0 0 1 1.116 -1.96c1.25 -.993 3.044 -.773 4.04 .492zm-1.74 .452c-.397 .1 -.646 .355 -.671 .778a11.93 11.93 0 0 0 -.009 1.337c.021 .395 .252 .646 .623 .748c.286 .077 .58 .084 .869 .015c.362 -.087 .557 -.314 .58 -.692c.015 -.25 .012 -.504 .008 -.757c-.002 -.15 -.025 -.173 -.176 -.177c-.21 -.007 -.419 -.002 -.628 0c-.04 0 -.077 .02 -.113 .028v.359c.121 .01 .228 .021 .35 .032c0 .184 .012 .357 -.007 .526a.361 .361 0 0 1 -.127 .212c-.296 .235 -.752 .043 -.775 -.338a10.78 10.78 0 0 1 -.002 -1.165c.014 -.32 .186 -.474 .5 -.495c.241 -.015 .476 .002 .725 .142c.046 -.099 .09 -.179 .12 -.266c.041 -.127 .026 -.157 -.097 -.218a1.084 1.084 0 0 0 -.197 -.073a2.006 2.006 0 0 0 -.974 .004zm-2.26 .761l.311 1.105h-.662c.097 -.383 .197 -.75 .35 -1.105zm-13.282 6.42c.009 -.104 .021 -.208 .023 -.312c.003 -1.183 0 -2.363 .003 -3.546c0 -.093 .006 -.186 .02 -.279c.017 -.116 .082 -.175 .202 -.173c.278 .005 .559 -.002 .837 .005c.14 .002 .183 .047 .206 .192c.008 .056 .008 .115 .008 .173v6.054c-.013 .255 -.054 .294 -.304 .292c-.203 -.002 -.404 -.015 -.607 -.009c-.214 .007 -.348 -.084 -.459 -.272a853.725 853.725 0 0 0 -2.24 -3.803c-.051 -.085 -.108 -.165 -.18 -.275c-.026 .07 -.05 .104 -.051 .14c-.006 .072 -.004 .145 -.004 .217v3.546c0 .058 .002 .114 -.002 .173c-.011 .199 -.05 .242 -.24 .246c-.265 .005 -.53 .007 -.795 .002c-.168 -.002 -.222 -.056 -.241 -.231c-.006 -.065 -.004 -.13 -.004 -.195v-5.794c0 -.093 .008 -.186 .02 -.28c.018 -.114 .082 -.179 .2 -.176l.858 .004c.107 0 .187 .052 .246 .14c.043 .065 .085 .132 .123 .2c.723 1.25 1.445 2.499 2.17 3.746c.046 .078 .098 .152 .149 .227l.062 -.013zm-16.037 -.984v-2.939c0 -.065 -.002 -.13 .002 -.194c.013 -.132 .055 -.182 .185 -.186c.32 -.007 .643 -.007 .963 .002c.143 .004 .195 .063 .216 .214c.01 .078 .01 .158 .01 .238v1.946c0 .235 .021 .257 .252 .26a244.3 244.3 0 0 0 1.78 0c.216 0 .237 -.027 .237 -.252c.002 -.663 0 -1.325 0 -1.989c0 -.058 -.002 -.114 .002 -.173c.01 -.166 .067 -.233 .23 -.244c.126 -.009 .252 -.004 .377 -.004c.189 0 .377 -.005 .566 .004c.155 .006 .19 .052 .199 .214c.002 .05 0 .102 0 .151v5.923c0 .384 -.002 .384 -.373 .384h-.65c-.316 0 -.351 -.034 -.351 -.356v-2.249c0 -.327 0 -.327 -.308 -.329h-1.739c-.217 0 -.224 .007 -.224 .232v2.27c0 .398 -.033 .43 -.416 .43c-.245 0 -.488 .002 -.733 -.002c-.168 -.002 -.21 -.048 -.225 -.216c-.006 -.072 -.004 -.145 -.004 -.216c.004 -.973 .004 -1.946 .004 -2.92zm22.857 -1.998c-.5 -.32 -1.033 -.355 -1.577 -.327a2.038 2.038 0 0 0 -.394 .059c-.408 .101 -.679 .363 -.777 .787c-.046 .2 -.077 .41 -.08 .618c-.01 .67 -.01 1.34 0 2.011c.005 .22 .036 .448 .093 .66c.092 .35 .335 .553 .68 .624c.243 .05 .484 .054 .727 -.002c.367 -.086 .605 -.35 .63 -.735c.021 -.316 .015 -.634 .01 -.951c-.001 -.152 -.039 -.184 -.194 -.19c-.146 -.007 -.293 0 -.44 -.005c-.199 -.006 -.22 -.026 -.224 -.223a10.716 10.716 0 0 1 0 -.519c.004 -.181 .02 -.198 .195 -.198c.475 -.003 .949 -.003 1.424 0c.105 0 .21 0 .314 .008c.166 .015 .216 .07 .24 .242c.001 .015 .003 .028 .003 .044c-.004 .598 .017 1.197 -.02 1.792c-.068 1.01 -.533 1.537 -1.49 1.715a4.166 4.166 0 0 1 -1.889 -.072c-.89 -.246 -1.414 -.886 -1.443 -1.833c-.03 -.943 -.013 -1.888 .004 -2.83c.004 -.24 .07 -.485 .143 -.716c.165 -.523 .515 -.882 1 -1.099c.415 -.186 .855 -.257 1.306 -.272c.538 -.02 1.076 -.009 1.591 .177c.151 .054 .291 .134 .436 .208c.067 .034 .111 .09 .098 .175c-.046 .305 -.146 .59 -.366 .852zm-13.31 3.996h-2.084c-.023 .069 -.053 .138 -.073 .211c-.088 .303 -.174 .608 -.264 .91c-.063 .213 -.084 .228 -.294 .23c-.23 .002 -.46 .002 -.69 0c-.061 0 -.122 -.01 -.212 -.022c.027 -.138 .037 -.26 .07 -.372c.535 -1.818 1.073 -3.636 1.61 -5.455c.054 -.186 .106 -.374 .165 -.558c.069 -.216 .132 -.263 .35 -.268c.3 -.004 .6 -.002 .9 -.002c.342 .004 .392 .041 .49 .374a2804.643 2804.643 0 0 1 1.738 5.888c.024 .075 .049 .151 .057 .229c.017 .123 -.023 .169 -.146 .184c-.028 .004 -.057 .002 -.084 .004c-.308 0 -.614 .002 -.922 0c-.194 -.002 -.21 -.013 -.266 -.201c-.098 -.33 -.194 -.662 -.293 -.99c-.012 -.05 -.031 -.098 -.052 -.162zm-.283 -.986c-.255 -.885 -.488 -1.745 -.743 -2.597a.347 .347 0 0 1 -.042 .004l-.735 2.593h1.52zm-10.667 -3.114c-.082 -.028 -.14 -.045 -.199 -.07c-.505 -.192 -1.024 -.209 -1.548 -.107c-.573 .112 -.87 .482 -.94 1.133c-.008 .078 -.008 .158 -.008 .238c0 .691 -.002 1.383 0 2.075c.002 .796 .41 1.228 1.185 1.252c.444 .013 .876 -.056 1.292 -.22l.23 -.091c.038 .063 .082 .112 .097 .168c.059 .215 .122 .429 .16 .647c.033 .195 .012 .23 -.168 .288a4.736 4.736 0 0 1 -.687 .181c-.618 .104 -1.238 .123 -1.852 -.02a2.742 2.742 0 0 1 -.61 -.218c-.646 -.324 -1.002 -.875 -1.023 -1.61c-.028 -.958 -.01 -1.916 0 -2.874c.002 -.199 .048 -.4 .098 -.595c.155 -.58 .517 -.977 1.045 -1.217a3.03 3.03 0 0 1 .949 -.246c.565 -.057 1.129 -.074 1.686 .067c.174 .043 .34 .127 .505 .199c.077 .032 .121 .093 .104 .188c-.048 .296 -.136 .57 -.316 .832zm-7.476 1.075c-.52 .356 -1.03 .707 -1.541 1.055c-.122 .084 -.241 .173 -.367 .248c-.163 .102 -.23 .065 -.235 -.127c-.004 -.195 .005 -.39 -.002 -.584a.42 .42 0 0 1 .203 -.396c.346 -.229 .69 -.464 1.031 -.7c.052 -.035 .1 -.074 .168 -.123c-.05 -.041 -.088 -.078 -.132 -.108c-.35 -.238 -.698 -.478 -1.052 -.707c-.159 -.104 -.237 -.23 -.22 -.426c.013 -.15 -.002 -.303 .007 -.454c.006 -.122 .062 -.154 .167 -.106c.057 .026 .109 .064 .161 .099l1.519 1.036l.218 .145c.056 -.035 .11 -.067 .16 -.102c.575 -.396 1.149 -.794 1.725 -1.185c.07 -.047 .171 -.11 .238 -.089c.113 .033 .078 .167 .08 .264c.004 .167 -.006 .331 .002 .498a.407 .407 0 0 1 -.207 .39c-.358 .237 -.714 .479 -1.07 .719c-.057 .039 -.112 .082 -.183 .134c.071 .052 .124 .093 .18 .132c.356 .24 .71 .486 1.07 .717c.156 .1 .225 .223 .21 .41c-.01 .129 .002 .259 -.004 .388c-.002 .07 -.019 .137 -.027 .195c-.134 .05 -.208 -.035 -.285 -.089c-.57 -.389 -1.137 -.782 -1.707 -1.172c-.027 -.015 -.059 -.032 -.107 -.062zm-1.41 3.582h.937c.004 -.093 .01 -.168 .01 -.246c.002 -.33 -.002 -.664 .002 -.995c.002 -.214 .032 -.24 .235 -.222c.096 .008 .195 .021 .291 .036c.157 .024 .195 .054 .203 .219c.013 .272 .008 .547 .01 .821l.011 .377h1.061c.008 -.08 .023 -.163 .025 -.245c.002 -.404 0 -.806 .002 -1.21c0 -.065 .002 -.13 .006 -.195c.009 -.102 .057 -.158 .162 -.158c.14 .002 .278 0 .419 0c.102 0 .155 .056 .163 .156c.004 .05 .004 .101 .004 .151v2.097c0 .05 .002 .102 -.004 .152c-.01 .1 -.07 .155 -.163 .168c-.063 .009 -.126 .007 -.189 .007h-3.581c-.338 0 -.338 0 -.338 -.348v-1.968c0 -.065 0 -.13 .005 -.194c.006 -.076 .048 -.12 .121 -.122c.147 -.002 .293 -.002 .44 -.002c.094 0 .138 .063 .149 .15c.008 .07 .008 .142 .008 .216v1.124c0 .071 .006 .14 .01 .231z"/></svg>