<svg xmlns="http://www.w3.org/2000/svg" width="48" height="48" viewBox="0 0 48 48" fill="currentColor"><path d="M10.5 44.625l10.902 -.187c10.902 -.14 10.949 -.14 13.36 -1.448c3.295 -1.729 5.29 -3.597 6.728 -6.26c.611 -1.147 1.702 -4.475 2.71 -7.975l.24 -.842c1.11 -3.936 2.06 -7.887 2.06 -9.028c0 -2.43 -2.088 -6.587 -3.34 -6.587c-.186 0 -.371 .56 -.371 1.261c0 2.196 -3.712 15.697 -4.871 17.705c-2.042 3.504 -6.403 6.727 -9.975 7.381l-1.623 .28l1.762 -.7c3.851 -1.495 7.655 -5.232 9.047 -8.876c.56 -1.491 1.345 -4.304 2.056 -7.182l.192 -.785c.854 -3.534 1.556 -6.993 1.556 -8.057c0 -2.896 -1.53 -5.559 -3.943 -6.82c-1.531 -.794 -2.877 -1.028 -7.655 -1.121c-4.964 -.14 -5.938 -.327 -6.773 -1.075l-.974 -.934l-.557 2.242c-.647 2.67 -2.544 9.748 -4.468 16.79l-.257 .939c-2.266 8.28 -4.496 16.236 -4.693 16.607c-.278 .561 -.927 .841 -1.994 .841h-1.624l2.505 3.831zm-1.624 -31.486c.719 -.533 2.4 -1.88 4.139 -3.3l.475 -.387l.474 -.389c2.204 -1.808 4.237 -3.513 4.237 -3.586c0 -.09 -1.635 -.18 -3.703 -.186h-4.137l-.51 1.961a71.27 71.27 0 0 1 -.505 1.865l-.234 .835a82.062 82.062 0 0 0 -.421 1.552c-.603 2.102 -.603 2.195 .185 1.635zm-2.04 25.18c.741 -2.383 6.726 -26.161 6.633 -26.255c-.093 -.047 -1.53 1.028 -3.247 2.43c-1.763 1.448 -3.155 2.849 -3.155 3.223c0 .373 -.278 .514 -.696 .373c-.417 -.186 -.696 0 -.696 .42c0 .375 .186 .795 .464 .888c.232 .047 -.696 4.392 -2.087 9.624c-1.392 5.232 -2.552 9.577 -2.552 9.717c0 .514 5.15 .14 5.335 -.42z"/></svg>