<svg xmlns="http://www.w3.org/2000/svg" width="48" height="48" viewBox="0 0 48 48" fill="currentColor"><path d="M6.61 28.13c.103 0 .154.069.263.327.66 1.647.999 2.313 1.28 2.554l.184.16-.287-.04a3 3 0 0 1-.293-.04 142 142 0 0 1-1.068-2.498l-.015-.038c-.146-.365-.142-.42-.075-.425zm-.798-.052c.16 0 .333.023.39.046.075.023.316.528.729 1.498l.625 1.463-.27.04c-.304.046-.36.023-.206-.091.098-.075.098-.11.04-.333a4 4 0 0 0-.19-.523l-.12-.27h-.952l-.184.402c-.207.471-.218.534-.063.69.063.062.115.12.115.125 0 .011-.182.017-.406.018h-.45l.167-.173c.083-.088.298-.463.5-.873l.031-.065.031-.066c.531-1.109.62-1.298.587-1.422l-.007-.022-.005-.013-.024-.046c-.068-.127-.246-.247-.539-.35-.046-.018.046-.03.2-.035m32.411.035c.293-.058.689-.035.844.046.419.218.5.975.149 1.342l-.15.155.196.092c.103.052.333.253.5.448.366.413.682.642.883.642.115 0 .132.018.08.08-.086.104-.304.104-.499 0-.086-.045-.362-.292-.614-.55-.413-.425-.683-.631-.815-.631-.029 0 .241.298.591.66.35.361.683.66.735.66s.092.022.092.057c0 .029-.035.057-.08.057-.23 0-.46-.172-1.04-.774-.344-.362-.665-.66-.7-.66-.057 0-.074.137-.074.487 0 .517.097.832.258.832.046 0 .086.03.086.064 0 .04-.052.051-.126.028a1.5 1.5 0 0 0-.287-.034h-.16v-2.978zm1.274.223c-.04-.091-.034-.097.075-.04.16.086.298.356.298.58 0 .218-.137.493-.281.568-.098.057-.098.04-.023-.241a1.34 1.34 0 0 0-.069-.867m-20.773-.24c.23-.104.682-.098.883 0 .236.12.505.458.58.705.178.626.115 1.435-.144 1.882-.177.31-.505.488-.883.488-.718 0-1.096-.545-1.096-1.578 0-.78.235-1.314.66-1.498m-.643.32c.011 0-.029.15-.092.328-.16.465-.155 1.303.006 1.733l.12.31-.172-.167c-.43-.413-.447-1.595-.029-2.048a1 1 0 0 1 .167-.155m2.163.006c.012-.097.339.374.396.563.115.384.08 1.027-.074 1.354-.07.155-.172.322-.224.367-.12.098-.12.075 0-.2.138-.322.138-1.51 0-1.825a2 2 0 0 1-.098-.259M3.666 28.17c.332.195.447.786.223 1.153l-.114.19.195.172c.24.207.321.562.212.924-.132.436-.493.614-1.062.534l-.264-.04v-1.764c.004-.909.023-1.21.075-1.226.16-.07.58-.035.735.057m.568 1.47c0-.012.051.005.114.04.362.194.38.97.03 1.262-.116.092-.184.028-.093-.08.12-.15.144-.724.04-.976a2 2 0 0 1-.091-.247m-.04-1.338c.275.218.31.712.063.981-.127.144-.218.138-.138 0 .097-.19.069-.706-.057-.912-.132-.212-.08-.235.132-.069m28.32-.115c.246-.126.791-.149 1.193-.051l.253.063v.384c-.006.362-.006.373-.08.207-.173-.385-.557-.574-1.01-.488-.575.103-.873.78-.747 1.676.069.482.178.705.42.849.246.155.636.15.785 0 .172-.172.167-.953-.005-1.17-.11-.138-.11-.15-.012-.15.057 0 .16.017.235.035.115.032.126.054.127.639v.8l-.155.07c-.092.04-.293.086-.46.103a.97.97 0 0 1-.98-.488c-.138-.24-.156-.338-.173-.883-.034-.896.138-1.343.608-1.596m1.67 1.326c.137-.006.137-.006.028.115-.086.097-.115.235-.138.671-.023.47-.046.557-.126.574-.088.016-.102-.036-.103-.58v-.096c0-.55.013-.627.103-.65.052-.017.16-.028.235-.034m-2.264-1.086c.015.01-.006.092-.042.202l-.012.038q-.016.048-.036.1c-.091.235-.12.436-.12.855.006.5.034.688.16 1.004.087.224-.16-.04-.269-.287-.241-.54-.184-1.262.126-1.693.09-.12.169-.212.19-.218zm5.552-.355h-.184l.184.167.189.166v2.433l-.167.138c-.086.08-.149.155-.137.172.017.012.149.006.292-.011l.27-.04V28.14l-.126-.034a1.7 1.7 0 0 0-.321-.035m-10.674.058c.109 0 .155.046.212.212.132.373.81 1.928.97 2.215.08.155.224.345.316.42.091.08.16.154.149.166-.017.011-.132.005-.264-.012l-.241-.029-.62-1.44-.55-1.283-.015-.035-.072-.168c-.011-.023.04-.046.115-.046m-1.073-.063.367.023c.207.011.379.046.39.074.012.029.299.695.643 1.487l.62 1.434-.264.035c-.31.04-.339.028-.213-.092.12-.126.12-.132-.086-.66l-.172-.46h-.975l-.173.374c-.183.413-.206.608-.08.717.15.12.098.144-.316.144-.378 0-.505-.052-.315-.12.046-.018.155-.156.252-.3.084-.137.276-.529.468-.941l.07-.15c.231-.502.444-.992.444-1.055 0-.109-.213-.304-.46-.418zm-23.557.063c0 .029.023.057.057.057.029 0 .092.075.144.172.126.241.126 2.284 0 2.525-.046.086-.115.172-.155.19-.15.051-.006.092.23.057l.24-.034V28.14l-.126-.034c-.2-.052-.39-.04-.39.023m10.547-.058h-.178l.155.144.15.138V29.7c-.001 1.22-.017 1.289-.241 1.373-.15.051-.006.092.23.057l.24-.034v-1.989c-.001-1.093-.027-1.036-.356-1.036m31.649.058c.103 0 .154.074.292.419.551 1.354.918 2.117 1.136 2.341.127.126.219.241.207.247-.011.011-.126.006-.252-.012l-.241-.023-.442-1.038-.138-.32-.034-.08c-.196-.457-.386-.902-.465-1.092-.182-.419-.19-.441-.078-.442zm-.925-.049a5 5 0 0 1 .439.027l.034.003c.065.008.107.016.113.025l.008.014c.05.103.329.731.646 1.472l.631 1.463-.264.035c-.315.04-.361.023-.212-.086.126-.092.098-.299-.12-.787l-.155-.338H43.6l-.143.327c-.218.488-.23.58-.103.752l.114.155h-.484c-.171-.002-.302-.008-.302-.018a2 2 0 0 1 .167-.23c.09-.105.343-.592.589-1.116l.032-.07.033-.07c.4-.86.468-1.017.425-1.125l-.01-.019-.004-.009-.006-.01-.01-.013c-.103-.15-.194-.218-.441-.316-.11-.047-.137-.065-.039-.066zm-2.164-.01h-.019l-.083.001h-.178l.172.178.167.172.017.896c.028 1.147-.012 1.48-.195 1.664-.08.08-.138.15-.127.155.012.011.127.006.264-.012l.241-.023v-1.996c-.001-.971-.022-1.033-.259-1.034m-32.657.001.043.002c.21.012.359.134 1.053.796l.797.767.091.088.478.46q.218.207.366.354l.042.042c.293.295.38.415.367.487-.018.115-.184-.029-1.148-.947-.62-.591-1.142-1.073-1.16-1.073-.016 0-.033.373-.034.835v.904l.379.356h-.573c-.217-.002-.38-.008-.38-.018 0-.011.07-.08.161-.155l.155-.132.017-1.015.023-1.016-.195-.2a2.5 2.5 0 0 0-.43-.345c-.138-.08-.247-.155-.247-.167 0-.011.086-.023.195-.023m3.191.018c.444 0 .457.01.327.086-.241.149-.27.292-.27 1.388v.034c0 .553-.018 1-.034 1-.023 0-.488-.431-1.04-.959l-.03-.03-.062-.059a180 180 0 0 0-1.21-1.15l-.292-.27.183.011c.15.018.362.19 1.188.976.551.534 1.016.964 1.033.964s.034-.344.034-.763v-.04c-.001-.776-.05-.955-.275-1.068a1 1 0 0 1-.155-.092c-.017-.01.21-.027.495-.028zm22.902-.018h-.137l.132.138c.172.19.223.5.223 1.326-.005.987-.057 1.343-.223 1.475-.167.132-.144.149.16.114l.241-.023v-2.96l-.126-.035a1.5 1.5 0 0 0-.27-.035m-13.663.03c0 .01.063.091.149.171l.143.144-.017 1.24c-.014 1.044-.017 1.208-.102 1.301l-.007.008-.004.003-.007.007-.008.007-.027.022c-.172.138-.155.155.155.12l.241-.023V29.45c-.001-1.142-.015-1.316-.092-1.343-.103-.04-.424-.046-.424-.006m-7.202-.03-.167.138c-.166.126-.172.155-.195.683-.023.465-.011.545.063.54.052-.006.385.355.78.832.65.797.684.849.535.849-.132 0-.241-.11-.724-.717-.31-.396-.59-.735-.62-.752-.034-.023-.05.195-.034.608.018.597.029.649.155.752.172.138.155.155-.149.12l-.247-.023V29.19c.002-.795.013-.998.065-1.056a.1.1 0 0 1 .039-.021c.051-.018.189-.03.298-.035zm1.046.017h.15c.279.001.497.007.497.018 0 .006-.11.069-.241.138l-.012.006-.024.012-.023.013-.024.013c-.192.111-.394.278-.962.77l-.23.196.615.751c.585.718.866 1.01 1.027 1.068.138.046.017.08-.2.051l-.017-.002-.023-.003-.014-.003c-.167-.034-.287-.163-.917-.939l-.757-.918.442-.413c.24-.224.442-.447.442-.488s-.04-.12-.092-.178c-.065-.074-.063-.092.217-.093zm8.222-.017-.184.012c-.083.005-.29.016-.502.024l-.064.002-.094.003-.476.023v2.966l.246.023q.423.047.19-.08c-.167-.092-.264-.413-.264-.878v-.436l.448.017.441.017.098.201.103.201v-.516c-.006-.408-.017-.494-.069-.402-.114.212-.23.258-.63.258h-.391v-.602c0-.584.018-.602.387-.603h.038c.413 0 .58.092.66.362.045.16.051.132.057-.207zm13.698 0-.236.012c-.126.006-.459.023-.734.029l-.505.023v2.978l.688.006c.38.005.718.011.752.017.063.006.218-.413.224-.574 0-.04-.086.017-.195.126-.187.187-.2.195-.648.195h-.586l-.034-.246a4 4 0 0 1-.018-.614l.018-.373.298-.018c.453-.028.66.046.775.276l.103.2v-1.032l-.138.172c-.129.162-.154.172-.561.172h-.477v-.46c0-.676 0-.676.55-.648.425.018.477.035.603.184.08.086.155.155.166.144s.006-.144-.011-.299zm-7.823 0h-.326l.149.138c.2.184.224.373.2 1.573-.015.91-.021 1.03-.118 1.143l-.01.011-.015.016a.7.7 0 0 0-.132.167c0 .011.115.017.259.005l.258-.023v-2.036c-.001-.929-.023-.993-.265-.994m12.907.04-.132.024v2.966l.258.023c.144.012.258 0 .258-.023 0-.028-.023-.046-.057-.046-.029 0-.092-.074-.143-.172-.067-.127-.085-.378-.086-1.23V28.41l.143-.143a1 1 0 0 0 .143-.167c0-.034-.195-.023-.384.012m-12.097-.034a1 1 0 0 0-.298.035c-.056.016-.074.359-.075 1.423v1.578h.775c.424 0 .792.006.815.011.017.012.08-.143.137-.344.052-.195.08-.356.052-.356s-.069.052-.086.12c-.075.23-.356.34-.895.34-.402 0-.505-.018-.534-.092-.025-.066-.036-.432-.037-.86v-.217l.001-.089.001-.088c.008-.546.03-1.075.064-1.14a.8.8 0 0 1 .19-.223c.12-.098.114-.104-.11-.098M21.7 17.313c1.94.441 3.724 1.6 4.958 3.225.201.264.545.802.882 1.36l.056.093.05.083.042.07.041.07.042.071c.398.677.735 1.294.735 1.386 0 .02-2.021.036-4.69.04h-7.16l-.144.155c-.206.218-.556.362-.89.362-.36 0-.831-.213-1.01-.454l-.131-.183-.155.487c-.402 1.286-1.297 2.261-2.542 2.76-.373.15-1.32.316-1.785.316-.562 0-1.486-.19-1.997-.407a6 6 0 0 1-.529-.275l-.11-.064c-.345-.204-.668-.418-.64-.442.01-.011.24.046.516.12 1.446.42 2.96.535 3.736.276 1.17-.396 2.065-1.245 2.461-2.352.161-.454.27-1.177.207-1.36-.023-.064-.143-.167-.264-.23-.453-.235-.603-.717-.367-1.176.206-.408.54-.511.906-.287.247.149.437.562.551 1.205.138.711.368.975.918 1.021.264.023.356 0 .569-.126.143-.08.27-.184.287-.235.034-.075.654-.086 5.36-.098l5.325-.017.051-.16c.046-.127.023-.225-.143-.569-.815-1.716-2.45-3.202-4.155-3.764-1.371-.46-3.11-.448-4.246.028-.815.345-1.613 1.01-1.894 1.59-.132.275-.166.419-.166.746l-.006.407 4.7.029 4.7.029.166.206a.95.95 0 0 1 .2.448l.035.235H15.648l-.098-.218c-.072-.156-.096-.367-.097-.866v-.735l.24-.482a4.38 4.38 0 0 1 3.145-2.382c.534-.103 2.307-.063 2.864.064m7.42-.23c.164.113.438.95.65 1.89l.02.09.01.046.018.087q.032.152.062.305l.016.088.046.26.027.172c.132.901.195 2.083.138 2.554-.224 1.767-1.44 3.15-3.14 3.552-.67.166-1.703.132-2.22-.063-.465-.178-.941-.649-1.107-1.108-.144-.384-.155-.55-.052-.7.075-.092.092-.08.206.167.155.31.546.723.89.924.132.074.402.183.603.23.327.085.407.085.93.005 1.026-.167 2.02-.614 2.49-1.136.482-.54.648-1.12.7-2.433.034-.93-.017-1.487-.224-2.319-.184-.757-.321-.975-.62-.975-.183 0-.344-.27-.344-.58 0-.356.195-.878.384-1.027q.267-.209.517-.029M8.945 21.02c.178.178.385.665.425.998.051.373-.092.953-.293 1.217-.361.476-.815.637-1.417.5-.373-.093-1.062-.116-1.32-.053-.12.035-.195.12-.304.356-.207.436-.706.953-1.114 1.16-.505.246-1.027.327-1.64.24-.54-.074-1.005-.23-1.177-.384-.178-.162-.127-.186.133-.073l.169.077c.237.105.367.116.897.116h.117c.602 0 .632-.013.973-.195.695-.378 1.108-1.021 1.142-1.784.03-.591-.04-.718-.407-.718-.373 0-.494-.149-.494-.596 0-.517.259-.861.643-.867.178 0 .241.034.413.247.247.298.482.803.54 1.142l.046.246.596.012c.35.006.735.052.919.103.172.052.419.104.55.12.207.035.247.018.356-.12.138-.172.161-.39.07-.625-.052-.138-.075-.15-.282-.115-.195.029-.247.017-.373-.109-.08-.086-.15-.2-.15-.27 0-.195.15-.488.316-.62.207-.16.505-.166.666-.005m11.523 3.357c.155.195.15.31 0 .505-.097.126-.16.149-.327.138-.373-.035-.528-.442-.264-.7.144-.15.453-.115.591.057m-9.836-7.185c.192.192.48 1.14.683 2.158l.036.185.033.187c.047.263.086.526.115.776.172 1.515.063 2.335-.408 3.07-.16.252-.487.614-.487.54 0-.018.051-.27.114-.558a8.66 8.66 0 0 0-.149-4.177c-.103-.356-.304-.597-.505-.597-.086 0-.19-.063-.264-.16-.109-.133-.12-.202-.097-.511.04-.38.252-.89.424-.987a.4.4 0 0 1 .505.074m19.793-.052c.355-.252.59-.017.86.838.517 1.642.752 3.776.523 4.666-.121.453-.448 1.061-.7 1.302-.196.184-.201.19-.167.052.205-.771.234-1.017.235-2.123v-.115c-.005-1.262-.034-1.498-.287-2.376-.109-.379-.298-.608-.505-.608a.4.4 0 0 1-.246-.12c-.241-.265-.046-1.286.287-1.516M8.02 18.747c.454.236.557.832.138.832-.144 0-.224-.086-.276-.292-.04-.184-.172-.247-.327-.167-.149.086-.137.322.023.425.06.04.266.112.49.18l.056.016.057.016c.51.138.59.236.356.442-.098.08-.241.098-.764.103-.355.006-.728.035-.826.07-.143.045-.19.045-.195-.006-.017-.155.017-.247.126-.339.1-.084.108-.115.062-.353l-.01-.05-.006-.027c-.057-.293-.057-.356.029-.523a.8.8 0 0 1 .281-.298.85.85 0 0 1 .786-.029m5.337.224c0 .15-.04.23-.155.321-.396.31-.866-.246-.522-.614.258-.275.677-.091.677.293m31.47 5.434c.368.287.006.861-.43.683-.298-.126-.344-.58-.069-.74.16-.092.333-.074.5.057m-1.216-6.754c.7.258.688.23.206.58-.23.172-.447.31-.482.315-.034 0-.235-.074-.442-.172a6.7 6.7 0 0 0-2.766-.58c-.344 0-.803.024-1.01.058-1.377.224-2.794.947-3.89 1.991l-.168.164-.048.049-.072.073-.048.05c-.345.362-.646.725-.646.795 0 .02 1.317.036 3.032.04h4.302l.161.184c.207.246.31.505.373.93.029.194.063.407.08.476.035.149.362.361.551.361.207 0 .482-.195.568-.396.092-.23.023-.321-.28-.373a.613.613 0 0 1-.374-1.004c.281-.339.746-.276.987.132.167.275.299.752.299 1.044 0 .201.028.27.178.39.327.282.82.15.958-.252.074-.212-.029-.344-.27-.344-.218 0-.453-.195-.51-.42-.167-.63.533-1.055.992-.596.345.344.517 1.182.367 1.733-.086.304-.522.74-.826.826-.407.115-.866.035-1.125-.2-.097-.087-.12-.092-.206-.012-.39.339-1.01.39-1.446.12l-.27-.172-.195.132a1.32 1.32 0 0 1-.93.19c-.132-.022-1.534-.044-3.167-.051h-3.37l.041.125c.069.241.184.42.39.614.224.218.253.299.12.408-.131.109-.395-.029-.774-.402-.425-.413-.803-1.159-.803-1.595v-.126h4.67c2.222.002 2.565.014 2.77.088l.012.005.013.005.015.006.037.016c.327.15.574.11.77-.126.189-.224.194-.47.005-.654l-.138-.144H36.12c-2.312-.005-2.964-.024-2.964-.074 0-.035.063-.213.138-.39.31-.758 1.48-2.09 2.427-2.767 1.2-.855 2.709-1.417 4.12-1.55 1.085-.097 2.784.127 3.77.5m-1.389 1.756c.367-.092.66.23.505.557-.16.338-.631.298-.763-.058-.069-.206.057-.453.258-.499"/></svg>