<svg xmlns="http://www.w3.org/2000/svg" width="48" height="48" viewBox="0 0 48 48" fill="currentColor"><path d="M27 2.875l-1.552 1.25l.575 1.875l-1.494 -1l-1.552 1l.575 -1.875l-1.552 -1.25h1.954l.575 -1.875l.574 1.875h1.897zm0 41l-1.552 1.25l.575 1.875l-1.494 -1.063l-1.552 1.063l.575 -1.875l-1.552 -1.25h1.954l.575 -1.875l.574 1.875h1.897zm10 -37.887l-1.626 1.205l.602 1.807l-1.386 -1.205l-1.626 1.205l.602 -1.807l-1.566 -1.205h1.807l.783 -1.988l.603 1.988h1.807zm7 6.864l-1.512 1.296l.582 1.852l-1.57 -1.235l-1.57 1.235l.582 -1.852l-1.512 -1.296h1.919l.581 -1.852l.581 1.852h1.919zm3 11.023l-1.552 1.25l.632 1.875l-1.551 -1.25l-1.552 1.25l.575 -1.875l-1.552 -1.25h1.954l.576 -1.875l.574 1.875h1.896zm-3 10.113l-1.512 1.024l.582 1.988l-1.57 -1.205l-1.57 1.205l.582 -1.988l-1.512 -1.024h1.919l.581 -1.988l.581 1.988h1.919zm-7 6.887l-1.626 1.25l.602 1.875l-1.386 -1.25l-1.626 1.25l.602 -1.875l-1.566 -1.25h1.807l.783 -1.875l.603 1.875h1.807zm-21 0l-1.552 1.25l.575 1.875l-1.552 -1.25l-1.494 1.25l.575 -1.875l-1.552 -1.25h1.897l.573 -1.875l.575 1.875h1.955zm9.016 -30.875c3.845 0 7.46 1.537 9.984 4.155l-.975 2.447c-2.123 -2.447 -5.336 -4.155 -9.009 -4.155c-5.336 0 -9.754 3.415 -11.303 8.195h18.59l-.975 2.277h-18.189v2.276h17.041l-.975 2.277h-15.721c1.549 4.723 5.91 8.195 11.303 8.195c3.615 0 6.885 -1.708 9.008 -4.155v3.244c-2.467 2.106 -5.565 3.244 -9.008 3.244c-6.484 0 -12.05 -4.553 -13.77 -10.472h-4.017l.975 -2.276h2.697v-2.276h-3.615l1.148 -2.504h3.04c1.551 -6.09 7.059 -10.472 13.772 -10.472zm-18.426 22l.603 1.988h1.807l-1.386 1.024l.603 1.988l-1.627 -1.205l-1.566 1.205l.602 -1.988l-1.626 -1.024h1.988l.602 -1.988zm-3.209 -10l.595 1.875h2.024l-1.607 1.25l.595 1.875l-1.607 -1.25l-1.548 1.25l.596 -1.875l-1.429 -1.25h1.786l.594 -1.875zm3.21 -11l.602 1.852h1.807l-1.386 1.296l.603 1.852l-1.627 -1.235l-1.566 1.235l.602 -1.852l-1.626 -1.296h1.988l.602 -1.852zm9.409 -5.012l-1.552 1.205l.575 1.807l-1.552 -1.205l-1.494 1.205l.575 -1.807l-1.552 -1.205h1.897l.573 -1.988l.575 1.988h1.955z"/></svg>