<svg xmlns="http://www.w3.org/2000/svg" width="48" height="48" viewBox="0 0 48 48" fill="currentColor"><path d="M11.813 5.115h10.67v2.751h-6.68v2.048H22v2.628h-6.197v2.54h6.873V18H11.813zm19.485 8.218v-2.68h6.153v5.493q-1.767 1.204-3.125 1.639t-3.221.435q-2.294 0-3.74-.782c-1.446-.782-1.71-1.298-2.241-2.33q-.795-1.545-.795-3.55 0-2.11.87-3.67t2.549-2.368q1.309-.624 3.524-.624 2.136 0 3.195.386c1.059.386 1.292.658 1.758 1.2q.698.813 1.05 2.061l-3.84.686q-.239-.73-.805-1.117c-.566-.387-.86-.386-1.446-.386q-1.31 0-2.087.91-.778.909-.778 2.878 0 2.091.786 2.988.787.897 2.193.896.668 0 1.275-.193.606-.194 1.388-.66v-1.212zm-23.97 13.94h3.313q.828 0 1.271.41.443.411.443 1.016 0 .509-.316.871-.21.243-.617.383.617.15.908.51c.291.36.291.544.291.908q0 .446-.207.8c-.207.355-.327.425-.566.563q-.223.13-.672.188l-.309.038q-.345.04-.484.04H7.328zm1.785 2.247h.77q.414 0 .576-.143c.162-.143.162-.232.162-.412q0-.25-.162-.39c-.162-.14-.296-.141-.564-.141h-.782zm0 2.25h.903q.457 0 .644-.163c.187-.163.188-.253.188-.435q0-.254-.186-.408c-.186-.154-.34-.155-.65-.155h-.899zm5.434-4.497h1.77v4.317h2.761V33h-4.531zm9.86 4.782H22.39l-.278.945h-1.808l2.152-5.727h1.93L26.539 33h-1.852zm-.372-1.239-.633-2.058-.629 2.058zm7.738-.156 1.551.469q-.156.652-.492 1.09a2.14 2.14 0 0 1-.834.66q-.498.222-1.268.223-.933 0-1.525-.272-.591-.271-1.021-.955t-.43-1.75q0-1.421.756-2.186.756-.763 2.138-.763 1.083 0 1.702.437.618.438.92 1.344l-1.563.348a1.3 1.3 0 0 0-.172-.383q-.148-.204-.363-.313a.84.84 0 0 0-.48-.109q-.603 0-.922.484-.243.36-.243 1.13 0 .952.29 1.306.288.354.812.353.507 0 .767-.285.261-.285.377-.828m3.418-3.387h1.77v2.165l1.855-2.165h2.352l-2.086 2.16L41.262 33h-2.18l-1.207-2.355-.914.957V33h-1.77zm-32.232 11h2.328l.899 3.485.894-3.485H9.4V44H7.955v-4.367L6.834 44H5.525l-1.117-4.367V44H2.96zm12.094 4.782h-2.016L12.76 44h-1.81l2.153-5.727h1.93L17.185 44h-1.852zm-.371-1.239-.633-2.058-.63 2.058zM18.775 44v-5.727h2.95q.819 0 1.254.141c.435.141.522.268.699.522q.265.38.265.927 0 .477-.203.823-.203.345-.558.56a2.1 2.1 0 0 1-.621.227q.316.105.46.21.099.071.284.301l.128.168q.083.113.12.188l.855 1.66h-2l-.945-1.75q-.18-.34-.32-.441a.74.74 0 0 0-.434-.133h-.156V44zm1.778-3.406h.746q.12 0 .469-.078.175-.036.287-.18c.112-.144.111-.207.111-.332q0-.278-.176-.426c-.176-.148-.337-.148-.66-.148h-.777zm5.43-2.32h1.769v2.163l1.855-2.164h2.352l-2.086 2.16L32.053 44h-2.18l-1.207-2.355-.914.957V44h-1.77zm7.652 0h4.742v1.222h-2.969v.91h2.754v1.168h-2.754v1.13h3.055V44h-4.828zm6.379 0h5.379v1.413h-1.805V44h-1.77v-4.312h-1.804z"/></svg>