<svg xmlns="http://www.w3.org/2000/svg" width="48" height="48" viewBox="0 0 48 48" fill="currentColor"><path d="m9.956 18.224.44.042.555-.572c.307-.317 2.34-2.514 4.645-5.013l2.505-2.718 1.673-1.82c.647-.7 1.186-1.261 1.21-1.261.033 0 1.02 1.02 2.205 2.255l1.399 1.466c2.69 2.817 2.663 2.751 2.93 2.73l.01-.002c.167-.027.523-.327 2.01-1.813l.383-.384c.548-.55 1.225-1.234 2.063-2.085l.583-.592c1.582-1.612 3-3.048 3.883-3.935l.51-.51c.27-.27.424-.42.432-.422.034-.017.141.323.25.746l.026.107c.127.49.224.714.371.839.282.257.58.24.87-.05l.241-.24.017-1.858c.01-.915.018-1.528.019-1.945V.956c-.006-.676-.043-.663-.152-.782-.15-.157-.514-.224-.754-.133l-.027.01-.044.01c-.25.057-1.127.218-2.127.403l-.292.053c-1.1.203-1.886.384-1.963.453-.207.182-.249.49-.116.813l.012.026c.145.325.295.383 1.24.504l.236.035c.3.045.53.086.544.106.024.025-1.825 1.907-4.096 4.187L27.5 10.78l-1.602-1.623c-.347-.353-.78-.795-1.23-1.258l-.42-.434-.299-.308a156 156 0 0 1-.843-.88l-.482-.494c-1.162-1.19-1.395-1.383-1.593-1.388h-.025c-.273.007-.46.162-1.854 1.67l-1.15 1.245-4.89 5.277c-4.426 4.771-4.06 4.369-4.06 4.743 0 .506.34.837.904.895m28.53 3.549c2.497-.647 4.42-2.711 4.943-5.29.097-.493.123-.907.093-1.618l-.002-.057c-.05-1.169-.216-1.79-.788-2.91l-.036-.07c-.29-.554-.503-.831-1.103-1.426l-.117-.116c-.578-.572-.884-.798-1.455-1.1-1.144-.588-1.725-.745-2.944-.779l-.11-.002c-.622-.011-1.083.014-1.404.087l-.028.007c-1.335.306-2.396.92-3.4 1.965-1.284 1.351-1.873 2.819-1.873 4.668 0 1.243.182 1.981.771 3.192l.058.117c.327.65.49.865 1.097 1.47l.072.071c.904.896 1.8 1.426 2.952 1.75.846.24 2.438.265 3.275.041m-1.574-1.46c-1.377 0-2.48-.48-3.533-1.533-1.11-1.111-1.583-2.33-1.5-3.897.132-2.504 1.94-4.502 4.41-4.884.424-.058 1.485.025 1.957.166a5.24 5.24 0 0 1 2.198 1.318c2.048 2.04 2.014 5.415-.083 7.396-1.003.962-2.148 1.435-3.45 1.435m4.394 4.56c.19-.099.332-.505.274-.762a1.1 1.1 0 0 0-.216-.381l-.166-.183h-7.835l-.892-.972-.49-.538c-.258-.284-.48-.532-.583-.654L29.31 19.03l-.192-.217-.791-.885-1.085-1.22-1.725-1.946-1.593-1.802c-2.486-2.807-2.628-2.925-2.881-2.928h-.01c-.223 0-.356.092-.729.473l-.283.306c-.503.546-1.518 1.654-2.553 2.787l-3.403 3.705-.36.39-.396.43-2.283 2.463-2.487 2.696-.141.151c-.383.415-.423.511-.423.803 0 .264.046.396.176.525l.205.196h18.796c9.035-.004 14.062-.03 14.154-.083m-2.073-6.792v-.114c0-.605-.14-.663-1.625-.622l-1.219.025.018-.716c.01-.336.041-.637.057-.668.024-.033.357-.065.744-.067h.091c.413-.003.694-.036.757-.1.132-.132.124-.604-.008-.712-.059-.05-.465-.108-.896-.116l-.78-.025-.024-.788-.003-.116c-.019-.82.022-.988.252-1.21.384-.352 1.116-.098 1.303.45l.007.022c.124.39.281.522.621.522.382 0 .622-.207.622-.522a1.93 1.93 0 0 0-1.094-1.658c-.53-.249-.896-.307-1.401-.224-.448.075-.772.24-1.087.539l-.043.042c-.379.369-.458.636-.5 1.715l-.045 1.27h-.299c-.373 0-.506.115-.506.464 0 .315.117.422.498.464l.29.025v1.41l-.232.024c-.276.033-.417.328-.36.738l.012.08c.07.417.187.441 2.176.442h.906c1.68-.004 1.764-.051 1.768-.574M22.99 14.593h-2.653l.249-.688.168-.449c.09-.241.172-.465.213-.588l.015-.04c.064-.172.146-.308.184-.308.01 0 .053.037.118.101l.038.038.035.036c.155.158.385.408.63.687l.266.305c.307.353.561.654.613.732zm3.392 3.814h-7.463l.415-1.15c.145-.397.282-.756.323-.865l.092-.224 1.882.008.359.004.399.005c.771.012 1.455.033 1.688.058l.555.05.87 1.052zm-1.718 4.062h-1.98c-2.93-.003-5.174-.019-5.174-.041v-.006c.013-.068.191-.576.381-1.098l.174-.474c.137-.368.253-.67.282-.727l.005-.007.025-.03.007-.006.01-.009c.099-.067.345-.085 1.2-.088h.766c.747.003 1.96.017 3.166.035l.67.011.594.011 3.184.05.58.671.083.096c.1.115.21.238.32.36l.364.401.261.288.073.076c.214.225.375.415.375.438 0 .022-2.344.045-5.366.049m-7.9 4.9c-1.368.233-2.513 1.369-2.811 2.795-.133.63-.116 1.965.033 2.545.274 1.037.87 1.766 1.808 2.206 1.368.638 3.076.398 3.955-.556.579-.628.853-1.513.814-2.67l-.027-.72-1.509-.026-1.517-.016v1.41h1.434l-.05.34c-.082.604-.613.986-1.36.986-1.177 0-1.757-.622-1.898-2.023-.058-.639.075-1.476.323-1.949.465-.92 2.048-1.036 2.703-.207.095.119.168.26.174.323v.009c0 .146.457.149 1.072.007l.078-.019c.65-.156.659-.202.335-.842-.597-1.186-2.073-1.841-3.557-1.592m-9.038.158v7.545l.19.042c.1.024 1.187.033 2.422.025l2.321-.025V33.62h-1.315a35 35 0 0 1-1.479-.025l-.48-.016v-1.484l2.611-.05.05-1.443-2.62-.05V29.06l3.15-.083.025-.73.025-.72zm13.573.058c-.041.067.332.722 1.973 3.474l.597 1.004-.033 1.326-.003.195c-.009.676.015 1.214.059 1.348l.016.044c.064.167.104.184.622.17l.981-.032.025-1.55.016-1.551.712-1.166 1.29-2.126c.36-.6.625-1.09.602-1.12-.025-.04-.44-.074-.929-.074h-.887l-.953 1.716-.147.26c-.276.482-.497.843-.525.843-.041 0-.572-.945-1.285-2.321l-.24-.456-.93-.025-.143-.002c-.443-.003-.803.013-.818.043m8.291-.008c-.033.033-.058 1.733-.058 3.772v3.723l.191.042c.1.025.464.041.804.025l.622-.025.05-2.421.928-.05.073-.005c.49-.035 1.058-.106 1.279-.177.904-.266 1.509-.954 1.691-1.907.238-1.248-.23-2.243-1.293-2.754l-.109-.051c-.33-.151-.5-.177-1.666-.197l-.768-.01c-.943-.013-1.705.004-1.744.035m3.425 1.592c.315.166.58.597.58.937 0 .284-.31.735-.603.886l-.019.01c-.137.072-.566.137-.979.155l-.803.035V29.02h.77c.581 0 .838.033 1.054.149m3.25-.879.025.771 1.865.05.017 3.001.025 3.002h1.575l.025-3.002.017-3.001 1.865-.05V27.57l-2.72-.025-2.719-.017zm-21.35 9.22c-.754.278-1.079.864-1.078 1.965v.041c0 1.26.406 1.907 1.318 2.115a1.54 1.54 0 0 0 1.393-.34c.307-.274.506-.672.431-.87-.049-.14-.768-.182-.795-.05v.008c0 .041-.075.157-.167.248-.232.233-.77.224-.986-.008-.473-.506-.39-2.147.116-2.346.423-.163.863-.006.988.346l.007.019c.04.128.12.163.398.165h.025c.456 0 .522-.132.315-.597-.29-.646-1.22-.978-1.965-.696M3.017 39.525l.024 2.056.813.025h.068c.423.006.895-.02 1.068-.066.96-.263 1.27-1.298.56-1.874l-.052-.041c-.161-.13-.17-.169-.06-.208.326-.122.492-.896.283-1.34l-.01-.02c-.05-.116-.265-.29-.472-.398l-.047-.023c-.289-.137-.492-.16-1.255-.16H3zm1.849-1.136c.182.15.149.464-.058.613-.1.075-.349.133-.54.133h-.356v-.937l.415.042.05.006c.208.028.42.09.489.143m.041 1.741c.091.091.166.216.166.282 0 .207-.348.381-.763.381h-.398v-.829h.415c.306 0 .456.042.58.166m1.84-.605.026 2.056 2.446.05v-.838H7.643v-3.316h-.912zm4.384-1.861-.05.134c-.412 1.09-1.206 3.612-1.166 3.708.033.092.15.116.44.1l.078-.005c.287-.02.317-.045.41-.337l.15-.479 1.326.05.092.29c.041.158.116.34.149.39.075.116.771.149.837.041.025-.033-.248-.962-.605-2.056l-.638-1.982-.57-.03c-.334-.016-.385.003-.453.176m.724 1.62.04.13c.081.263.143.49.143.534 0 .062-.131.095-.372.099h-.051c-.299 0-.407-.025-.382-.108l.005-.01c.03-.074.108-.356.186-.653l.014-.05c.079-.283.161-.506.185-.506.025 0 .133.258.232.564m6.003.24.025 2.057h.83l.04-.663c.034-.514.083-.722.216-.896l.183-.224.48.888.49.895.364.025.102.007c.521.035.517-.043.189-.637l-.105-.185c-.512-.905-.833-1.537-.84-1.623 0-.048.221-.402.504-.797l.154-.215c.24-.34.42-.61.42-.638 0-.025-.216-.041-.473-.025l-.473.025-.58.813-.589.812-.083-1.625-.44-.025-.43-.025zm5.124-2.056v4.163l.398-.025.39-.025.041-1.152.042-1.161.414.738.075.13c.578.995.655.952 1.26-.139l.041-.072c.2-.348.375-.624.399-.624s.05.514.05 1.136v1.144h.829l.024-2.056.017-2.048h-.995l-.506 1.003-.082.166c-.233.465-.425.814-.44.813a26 26 0 0 1-.53-.987l-.507-.954-.464-.025zm6.46.009h-.465l-.718 2.1c-.354 1.046-.616 1.922-.592 1.963.024.048.218.08.433.082h.429l.116-.398.116-.39.664-.024.655-.025.124.398.03.099c.085.274.123.3.395.32l.056.004c.199.016.398-.008.448-.058.06-.06-.077-.573-.446-1.698l-.782-2.365zm.173 1.716.04.138c.08.265.155.503.176.567l.004.016c.031.115-.034.132-.387.133h-.471l.207-.705.053-.175c.094-.305.172-.53.18-.53.016 0 .107.25.198.556m2.28-1.617-.001.006c-.024.097-.032 1.006-.024 2.05l.025 1.949h.83l.024-.688.025-.68h.266c.236 0 .285.045.59.6l.421.768.406.025c.224.016.44-.008.473-.042.041-.041-.108-.398-.34-.804l-.423-.73.2-.149c.29-.224.472-.663.472-1.12 0-.453-.159-.749-.538-1.017l-.06-.042c-.236-.164-.387-.184-1.206-.206l-.288-.009c-.628-.015-.822.007-.852.09m1.965.896c.2.24.191.539-.016.746-.12.12-.265.163-.59.166h-.488v-.523c0-.29.025-.555.066-.588.033-.033.24-.05.465-.025.298.025.456.091.563.224m1.949-.937c-.083.074-.066 3.864.016 3.988.04.072.188.098.407.084l.39-.026.04-.622.006-.071c.033-.437.086-.62.235-.824l.208-.266.456.888.464.895.48.025c.291.016.473-.008.473-.058s-.281-.597-.63-1.219l-.08-.149c-.3-.56-.524-1.032-.508-1.078l.007-.013c.046-.079.256-.388.504-.726l.07-.096c.266-.363.472-.684.472-.724 0-.033-.2-.066-.448-.066h-.448l-.613.846-.606.854-.025-.854-.024-.846h-.443c-.199.003-.38.027-.403.058m3.964.038-.003.01c-.023.104-.03 1.006-.023 2.05l.025 1.948h2.488l.024-.398.025-.39h-1.666v-.912h1.326v-.746h-1.326v-.912h1.666l-.025-.357-.024-.348-1.228-.025c-.932-.016-1.227 0-1.259.08m3.224.02a1.1 1.1 0 0 0-.018.374l.007.078c.02.195.046.218.364.237l.61.032v1.64c.001.789.025 1.465.049 1.536.033.1.166.132.456.132h.406l.017-1.641.025-1.634.472-.024.465-.025.033-.373c.016-.208.008-.39-.008-.415-.017-.017-.664-.033-1.435-.033h-.36c-.83.006-1.053.035-1.083.116M17.12 43.786c-.398.117-.812.58-.978 1.07-.2.605-.141 1.808.108 2.297.323.622.928.912 1.691.829.721-.091 1.235-.522 1.26-1.078l.002-.057c.003-.201-.03-.21-.367-.233l-.067-.003c-.28-.01-.33.018-.447.227-.265.472-.862.43-1.21-.075-.174-.257-.19-.365-.166-.97l.003-.07c.018-.479.07-.668.196-.842.352-.474.945-.465 1.184.02l.032.068c.1.204.15.218.475.202l.063-.005c.289-.023.312-.051.335-.268.034-.34-.265-.772-.68-.979-.373-.19-1.044-.257-1.434-.133m17.354.025c-.771.29-1.17 1.028-1.153 2.14.017.978.349 1.575 1.053 1.898a1.9 1.9 0 0 0 1.302.067c.704-.238 1.02-.855.996-1.94l-.01-.332-.787-.017-.262-.002c-.508-.003-.532.019-.575.185-.023.1-.032.257-.02.359l.003.022c.023.162.068.195.356.219l.067.005c.315.025.39.058.39.174 0 .44-.713.738-1.12.473-.323-.216-.48-.606-.489-1.211 0-.406.042-.622.166-.837.332-.564 1.003-.63 1.385-.15l.026.034c.154.2.212.212.48.157.39-.066.447-.224.256-.589-.323-.588-1.351-.92-2.064-.655M8.555 43.77v4.154h2.579l-.025-.398-.025-.39-.846-.025-.854-.025v-.82h1.41v-.738l-.68-.025-.688-.025-.05-.862 1.708-.05v-.746zm3.483.066c0 .042.082.2.182.357l.58.986.398.697-.58.953c-.315.523-.58.987-.58 1.02 0 .04.202.073.456.075H13l.357-.622.105-.178c.152-.255.271-.444.285-.444.016 0 .182.282.373.622l.34.622h.565c.52.004.508.033-.209-1.17l-.539-.92.547-.878.186-.295c.54-.86.518-.895.033-.87l-.55.029-.34.638-.06.116c-.16.302-.3.53-.322.53-.024 0-.207-.298-.414-.662l-.365-.664h-.473c-.265 0-.48.025-.48.058m8.241.05-.001.006c-.016.096-.024.998-.015 2.042l.024 1.948.44.025.431.025v-1.666h1.401l.025.804.025.812.44.025.43.025v-4.154h-.911v1.75l-.68-.025-.689-.025-.024-.854-.025-.846h-.415c-.257 0-.423.042-.456.108m5.48-.025-.009.022c-.058.15-.348.972-.67 1.944l-.12.362c-.393 1.205-.518 1.669-.446 1.7l.002.002c.053.023.233.031.41.02l.104-.008c.253-.022.3-.053.4-.313l.172-.454 1.327-.05.249.796.43.025.07.005c.297.017.356-.003.354-.112v-.017c0-.083-.29-1.012-.639-2.056l-.638-1.907-.473-.025c-.265-.017-.49.016-.522.066m.705 1.716.041.139c.078.264.154.503.175.566l.005.016c.029.108-.027.13-.335.133h-.093c-.34 0-.458-.023-.433-.101l.234-.711.03-.095c.089-.28.17-.502.186-.502.008 0 .1.249.19.555m2.57-1.807v4.154h.83v-1.327c.002-.717.028-1.083.083-1.028l.005.006c.057.068.375.56.73 1.129l.732 1.178h.813V43.82l-.862-.05-.05 2.396-.713-1.169-.705-1.177zm8.79.008v4.146h1.564c1.15-.005 1.17-.052 1.03-.522l-.074-.266-1.608-.05v-.82h1.326v-.747h-1.326v-.903l.812-.025.804-.025.025-.398.025-.39z"/></svg>