<svg xmlns="http://www.w3.org/2000/svg" width="48" height="48" viewBox="0 0 48 48" fill="currentColor"><path d="M21.709 2.625c1.784 .628 2.643 1.751 2.974 3.239c.462 1.652 1.322 2.511 3.14 2.148c.528 -.1 1.057 0 2.081 0c-2.61 1.85 -4.428 3.767 -5.882 6.047c-.231 .396 -.661 .76 -.397 1.256c.265 .462 .793 .198 1.223 .264c2.016 .364 3.999 .43 6.047 .397c2.743 -.033 4.76 2.676 5.387 6.41c.496 2.975 .1 5.916 -.066 8.857c-.066 1.454 .396 1.883 1.85 1.883c2.38 .034 4.792 -.396 7.138 .562c1.025 .397 1.322 .86 1.29 1.85c-.067 2.545 -.133 5.09 0 7.601c.065 1.454 -.331 1.917 -1.884 1.917c-13.252 -.066 -26.536 -.033 -39.788 -.033c-3.13 0 -3.265 0 -3.271 -2.834v-.404c0 -1.785 .132 -3.536 -.034 -5.288c-.165 -1.817 .86 -2.412 2.28 -2.776c1.058 -.297 2.149 -.363 3.24 -.33c.693 .033 .958 -.1 .891 -1.025c-.165 -1.85 .033 -3.734 0 -5.584c0 -.959 .562 -.893 1.19 -.926c2.644 -.099 2.61 -.099 3.04 -2.71c.33 -2.114 .893 -4.097 2.479 -5.683c.859 -.86 1.85 -1.29 3.04 -1.223c.991 .033 1.586 -.264 2.148 -1.124c1.057 -1.553 2.016 -3.205 3.9 -4.329c-2.076 .248 -2.119 -.869 -2.062 -2.126l.013 -.253c.099 -1.85 .033 -3.701 .033 -5.783zm3.04 8.856c-1.377 .441 -2.18 1.41 -2.926 2.408l-.297 .4l-.148 .2c-2.214 2.875 -3.998 6.08 -4.164 9.682c-.297 5.915 -.066 11.864 -.033 17.812c.1 .099 .166 .198 .33 .33c1.323 .298 1.554 -.396 1.554 -1.553a476.46 476.46 0 0 1 -.004 -4.208l.041 -8.404l-.004 -4.208c0 -1.29 .363 -2.479 .826 -3.602c1.025 -2.479 3.272 -3.536 5.85 -2.875c.462 .099 .825 .165 1.156 -.364c-.707 -.545 -1.475 -.547 -2.245 -.512l-.42 .02c-.35 .015 -.697 .019 -1.036 -.037c-.463 -.066 -1.058 .595 -1.29 -.066c-.131 -.33 .265 -.892 .497 -1.288c.76 -1.256 1.553 -2.479 2.313 -3.735zm-2.38 9.286c-.099 -.462 -.165 -1.289 -.892 -1.024c-.595 .198 -.958 .76 -.528 1.586c.528 1.024 .528 2.181 .495 3.338c-.033 2.478 0 4.957 0 7.435c0 2.908 0 5.816 -.033 8.757c0 .562 -.33 1.388 .793 1.421c1.157 .033 .826 -.793 .826 -1.388c.034 -4.957 0 -9.88 .067 -14.837c.033 -1.818 -.298 -3.57 -.727 -5.288zm7.965 -.165c-.199 -.463 -.298 -1.355 -1.157 -.958c-.694 .33 -.562 .958 -.33 1.586c.561 1.553 .627 3.172 .627 4.825c-.033 4.66 0 9.352 0 14.011c0 1.884 .86 2.479 2.71 1.95c1.454 -.397 2.677 -1.256 4.164 -2.148c-.925 -.364 -1.355 .165 -1.884 .363c-2.445 .992 -3.47 .298 -3.47 -2.346c.034 -4.626 .034 -9.22 .067 -13.846c0 -1.19 -.298 -2.346 -.727 -3.437zm-11.93 -3.238c-1.818 -.397 -3.172 .066 -3.932 1.718c-.992 2.016 -1.851 4.065 -1.62 6.378c.132 1.256 -.462 1.652 -1.586 1.685c-2.38 .1 -2.38 .1 -2.38 2.446c0 .396 -.032 .76 0 1.156c.034 .198 .067 .463 .199 .562c.297 .198 .496 -.1 .661 -.297c.628 -.694 .925 -1.62 1.057 -2.479c.166 -1.024 .794 -.66 1.322 -.727c.793 -.1 .727 .463 .727 .958l.1 3.8c.066 2.843 .099 5.718 .165 8.56c.033 .528 0 .991 .76 .991c.694 0 .76 -.463 .76 -.991v-1.157c.132 -5.386 -.1 -10.74 -.1 -16.126c0 -2.016 .265 -4.296 2.942 -4.99c.628 -.166 .76 -.827 .925 -1.487zm19.86 20.785c-.297 -.23 -.792 .397 -.925 .694c-.33 .827 .76 .86 1.058 1.454c0 -.793 .562 -1.619 -.132 -2.148zm-7.336 -21.182c-2.478 -.264 -3.899 .595 -4.791 3.14c-.43 1.156 -.562 2.412 -.826 3.601c-.628 2.908 .264 5.75 .066 8.625c-.033 .595 -.132 1.355 .727 1.388c1.024 .066 .859 -.793 .859 -1.42c.033 -3.107 .1 -6.18 .033 -9.254c-.033 -1.222 .43 -2.247 .958 -3.205c1.025 -1.85 3.9 -1.818 4.99 0c.628 1.024 .992 2.181 .992 3.404v7.27c-.033 2.511 -.033 5.056 .033 7.633c0 .43 -.397 1.256 .561 1.19c.595 -.033 1.091 -.363 1.058 -1.156c-.297 -5.684 .562 -11.401 -.628 -17.052c-.463 -2.148 -2.148 -3.966 -4.032 -4.164zm-19.43 12.59c-.496 .827 -.992 1.62 -1.455 2.446c-.231 .363 -1.024 .496 -.628 1.09c.397 .595 1.124 .298 1.686 .265c.628 -.033 .694 -.562 .694 -1.09v-2.578c-.066 -.033 -.165 -.066 -.298 -.132zm8.757 -6.84a4.153 4.153 0 0 0 -.53 2.082c.034 2.346 0 4.692 .034 7.039c0 .43 -.33 1.19 .396 1.156c.562 -.033 .562 -.727 .53 -1.222c-.1 -2.975 .33 -5.982 -.43 -9.055zm-3.107 -2.71c-1.355 .892 -1.652 2.016 -1.652 3.173c-.033 2.875 .033 5.783 .066 8.69c0 .232 -.033 .463 .033 .662c.066 .165 .231 .396 .397 .43c.198 .065 .396 -.166 .396 -.397c.033 -.463 0 -.893 .033 -1.322c.132 -3.668 -.495 -7.336 .727 -11.236zm13.847 -.529c.727 4.098 1.288 7.998 .76 11.963a1.771 1.771 0 0 1 -.032 .214l-.047 .212c-.06 .28 -.098 .544 .145 .764c.132 .132 .528 .132 .76 .066c.595 -.198 .33 -.727 .33 -1.124c.033 -2.875 .1 -5.75 0 -8.625c-.033 -1.42 -.33 -2.875 -1.916 -3.47zm-6.742 8.097h-.33v5.122h.33v-5.122zm3.867 -4.891v9.88c.694 -3.27 .528 -6.575 0 -9.88zm-2.942 -2.479c.893 -2.015 .794 -2.114 -1.487 -1.982c-.23 0 -.462 -.033 -.66 .033c-.331 .099 -.628 .231 -.43 .66c.925 1.818 1.123 3.834 1.42 5.85c.43 -1.52 .53 -3.073 1.157 -4.56zm-2.775 -15.862v2.644c0 2.71 .594 3.206 3.304 2.61c.397 -.098 .76 -.297 1.157 -.462c-1.884 .397 -2.346 -.628 -2.61 -2.214c-.166 -.925 -.596 -2.016 -1.851 -2.578z"/></svg>