<svg xmlns="http://www.w3.org/2000/svg" width="48" height="48" viewBox="0 0 48 48" fill="currentColor"><path d="M23.87 32.488c8.547 0 15.478 1.375 15.478 3.069c0 1.695 -6.93 3.068 -15.479 3.068c-8.548 0 -15.477 -1.373 -15.477 -3.068c0 -1.694 6.929 -3.069 15.477 -3.069zm.222 1.498h-.446c-7.356 .017 -13.281 .912 -13.281 1.763c0 1.139 6.046 2.37 13.504 2.37c7.458 0 13.504 -1.231 13.504 -2.37c0 -.86 -6.046 -1.764 -13.504 -1.764h.223zm-22.592 -16.79c1.451 1.834 3.445 2.828 5.567 3.473c-.75 1.466 -1.028 3.533 -1.078 4.458c-.049 .903 -.079 2.255 .276 3.318l.27 -.102c-.518 -1.76 -.372 -6 2.724 -6.842c1.242 -.338 3.075 -.065 3.867 1.494c.647 1.274 .57 3.705 -2.584 3.906c.435 -.434 .764 -1.357 .296 -2.205c-.305 -.555 -.905 -.725 -1.742 -.37c-1.438 .611 -2.026 3.167 -1.937 3.882c.18 .039 .34 .162 .41 .344a.56 .56 0 0 1 -.097 .557c.535 .705 1.456 1.403 2.296 1.167c1.338 -.365 1.513 -1.557 .476 -2.27c2.733 .351 2.722 3.434 .409 3.984c-1.858 .444 -3.115 -1.153 -3.715 -2.603l-.268 .114c.585 1.632 1.475 2.608 2.567 3.165a3.103 3.103 0 0 0 -1.112 1.687l-6.625 -17.156zm44.736 0l-6.626 17.158a3.096 3.096 0 0 0 -1.112 -1.687c1.092 -.557 1.983 -1.533 2.567 -3.165a57.41 57.41 0 0 1 -.268 -.114c-.6 1.45 -1.857 3.047 -3.715 2.603c-2.312 -.55 -2.324 -3.633 .41 -3.983c-1.038 .712 -.862 1.904 .476 2.269c.84 .236 1.76 -.462 2.296 -1.167a.559 .559 0 0 1 -.098 -.557a.562 .562 0 0 1 .411 -.344c.088 -.715 -.5 -3.27 -1.939 -3.882c-.837 -.355 -1.435 -.185 -1.74 .37c-.469 .848 -.14 1.771 .296 2.205c-3.155 -.2 -3.231 -2.632 -2.586 -3.906c.792 -1.559 2.625 -1.832 3.869 -1.494c3.094 .843 3.24 5.081 2.723 6.842l.269 .102c.355 -1.063 .326 -2.415 .277 -3.318c-.05 -.925 -.327 -2.992 -1.077 -4.458c2.121 -.645 4.114 -1.64 5.566 -3.472zm-22.367 -7.446c.837 2.683 2.647 4.658 4.752 6.295c-1.48 1.325 -2.69 3.529 -3.148 4.549c-.446 .993 -1.066 2.502 -1.13 3.85h.35c.181 -2.203 2.187 -6.906 6.032 -6.526c1.544 .154 3.486 1.248 3.7 3.34c.174 1.711 -.97 4.41 -4.601 3.283c.677 -.302 1.448 -1.197 1.29 -2.351c-.103 -.755 -.702 -1.204 -1.798 -1.163c-1.883 .069 -3.654 2.69 -3.865 3.532c.186 .12 .312 .327 .312 .563a.675 .675 0 0 1 -.35 .584c.295 1.023 1.027 2.203 2.075 2.299c1.662 .163 2.376 -1.102 1.519 -2.35c2.923 1.568 1.57 5.03 -1.27 4.657c-2.28 -.299 -3 -2.634 -3.044 -4.522c0 0 -.311 .012 -.353 .012c-.051 2.089 .528 3.567 1.513 4.661c-.856 .253 -1.511 .776 -1.984 1.421c-.474 -.645 -1.13 -1.168 -1.985 -1.42c.986 -1.095 1.563 -2.573 1.513 -4.662c-.043 0 -.352 -.012 -.352 -.012c-.046 1.888 -.765 4.223 -3.047 4.522c-2.84 .373 -4.191 -3.089 -1.269 -4.656c-.856 1.247 -.142 2.512 1.52 2.349c1.047 -.096 1.78 -1.276 2.075 -2.3a.672 .672 0 0 1 -.35 -.583a.67 .67 0 0 1 .312 -.563c-.211 -.841 -1.983 -3.463 -3.866 -3.532c-1.095 -.04 -1.694 .408 -1.798 1.163c-.157 1.154 .614 2.05 1.291 2.35c-3.633 1.129 -4.776 -1.57 -4.6 -3.282c.211 -2.092 2.155 -3.186 3.698 -3.34c3.846 -.38 5.852 4.323 6.034 6.526h.348c-.063 -1.348 -.684 -2.857 -1.13 -3.85c-.458 -1.02 -1.668 -3.224 -3.148 -4.55c2.104 -1.636 3.915 -3.61 4.752 -6.294h.002z"/></svg>