<svg xmlns="http://www.w3.org/2000/svg" width="48" height="48" viewBox="0 0 48 48" fill="currentColor"><path d="M8.303 21c.211 0 .372 .07 .483 .211c.1 .14 .18 .382 .22 .714l.624 4.682h-.422l-.262 -1.909h-2.572l-.935 1.92h-.422l2.281 -4.683c.161 -.322 .312 -.563 .453 -.714a.727 .727 0 0 1 .552 -.221zm-2.16 0l-.06 .342h-1.91c-.442 0 -.794 .1 -1.055 .301c-.261 .201 -.442 .533 -.513 .985l-.2 1.136h2.863l-.05 .341h-2.884l-.422 2.422h-.412l.683 -3.91c.1 -.552 .312 -.964 .623 -1.225c.322 -.261 .774 -.392 1.347 -.392h1.99zm2.11 .402c-.1 0 -.19 .03 -.261 .11c-.08 .08 -.161 .222 -.262 .423l-1.195 2.431h2.381l-.331 -2.431c-.03 -.201 -.06 -.342 -.11 -.422a.254 .254 0 0 0 -.222 -.111zm2.593 5.065a1.866 1.866 0 0 1 -.754 -.704l.312 -.25c.17 .29 .381 .502 .643 .632c.26 .13 .572 .201 .944 .201s.704 -.06 .985 -.17c.281 -.111 .513 -.282 .663 -.493a1.17 1.17 0 0 0 .242 -.734c0 -.21 -.07 -.382 -.222 -.502a1.435 1.435 0 0 0 -.522 -.271a10.95 10.95 0 0 0 -.925 -.212c-.482 -.1 -.834 -.25 -1.055 -.442c-.23 -.19 -.341 -.472 -.341 -.824c0 -.331 .09 -.633 .27 -.884c.182 -.251 .433 -.452 .755 -.593c.321 -.14 .683 -.211 1.085 -.211c.904 0 1.487 .291 1.748 .874l-.311 .231a1.266 1.266 0 0 0 -.563 -.582a2.059 2.059 0 0 0 -.894 -.181c-.312 0 -.603 .05 -.854 .16a1.393 1.393 0 0 0 -.593 .473a1.18 1.18 0 0 0 -.211 .693c0 .272 .11 .483 .321 .623c.211 .14 .543 .251 .985 .342c.402 .07 .734 .16 .975 .251c.251 .1 .442 .231 .573 .392c.13 .16 .2 .382 .2 .653c0 .352 -.1 .653 -.29 .915a1.87 1.87 0 0 1 -.825 .613a3.31 3.31 0 0 1 -1.226 .22c-.442 0 -.814 -.07 -1.115 -.22zm15.033 -5.457c.643 0 1.146 .14 1.498 .412c.351 .271 .522 .663 .522 1.156c0 .16 -.01 .311 -.04 .442l-.302 1.688c-.24 1.337 -1.075 2.01 -2.532 2.01c-.663 0 -1.166 -.13 -1.507 -.402c-.342 -.271 -.513 -.653 -.513 -1.156c0 -.17 .01 -.321 .04 -.452l.302 -1.688c.241 -1.337 1.075 -2.01 2.532 -2.01zm-6.612 -.01l-.06 .342h-1.83l-.914 5.185h-.412l.905 -5.185h-1.83l.071 -.342h4.07zm11.727 0c.533 0 .955 .12 1.256 .362c.312 .24 .463 .583 .463 1.015c.01 .382 -.121 .713 -.362 1.015c-.241 .281 -.573 .472 -.985 .562c.261 .08 .432 .242 .533 .463c.1 .22 .17 .522 .21 .894l.151 1.216h-1.175l-.151 -1.226a2.766 2.766 0 0 0 -.12 -.583a.612 .612 0 0 0 -.242 -.321c-.11 -.07 -.271 -.11 -.482 -.11h-.794l-.392 2.24h-1.115l.974 -5.527h2.231zm-7.667 0l-.151 .864h-1.85c-.26 0 -.481 .06 -.652 .181c-.181 .12 -.292 .342 -.342 .663l-.13 .764h2.35l-.16 .864h-2.351l-.382 2.17h-1.116l.674 -3.788c.09 -.552 .321 -.974 .673 -1.276c.362 -.301 .884 -.442 1.588 -.442h1.849zm2.462 .884c-.372 0 -.663 .1 -.895 .292c-.23 .2 -.381 .482 -.442 .844l-.301 1.688c-.02 .14 -.03 .231 -.03 .292c0 .28 .08 .492 .25 .633c.162 .14 .403 .22 .724 .22c.362 0 .664 -.1 .895 -.29c.23 -.202 .382 -.483 .452 -.845l.301 -1.688c.02 -.14 .03 -.231 .03 -.292c0 -.28 -.08 -.492 -.25 -.633c-.161 -.14 -.413 -.22 -.734 -.22zm5.095 -.01h-1.176l-.261 1.548h1.175a.98 .98 0 0 0 .704 -.261a.916 .916 0 0 0 .271 -.684c0 -.2 -.07 -.351 -.2 -.452a.823 .823 0 0 0 -.513 -.15zm8.41 -.874l.815 1.839l1.457 -1.839h1.236l-2.251 2.834l1.196 2.683h-1.267l-.804 -1.819l-1.447 1.819h-1.236l2.25 -2.814l-1.203 -2.703h1.256zm-1.838 .01l-.151 .864h-1.849c-.281 0 -.502 .06 -.663 .191c-.161 .13 -.282 .352 -.332 .653l-.11 .603h2.351l-.15 .865h-2.352l-.11 .603c-.02 .09 -.02 .18 -.02 .25c0 .202 .06 .352 .18 .453c.12 .1 .302 .15 .553 .15h1.859l-.15 .865h-1.86c-.583 .03 -1.015 -.08 -1.296 -.292c-.282 -.21 -.422 -.532 -.422 -.954c0 -.171 .01 -.322 .04 -.452l.372 -2.08c.09 -.553 .321 -.975 .673 -1.277c.362 -.301 .884 -.442 1.588 -.442h1.849zm9.044 -.01l-1.296 1.648c-.191 .231 -.473 .382 -.724 .382h-2.28l1.306 -1.648c.181 -.231 .463 -.382 .724 -.382h2.27zm-.623 .301h-1.658a.64 .64 0 0 0 -.416 .196l-.067 .076l-.914 1.165h1.658c.16 0 .362 -.11 .482 -.27l.915 -1.167z"/></svg>