<svg xmlns="http://www.w3.org/2000/svg" width="48" height="48" viewBox="0 0 48 48" fill="currentColor"><rect rx="8"/><path d="M7.698 14.939c.588 -.085 .924 -.48 .924 -1.091c0 -.442 -.18 -.78 -.508 -.957c-.21 -.114 -.55 -.168 -.838 -.128c-.412 .056 -.71 .283 -.848 .646c-.06 .154 -.083 .535 -.045 .721c.119 .574 .653 .903 1.315 .809zm5.71 11.063v-13.196h-3.102l-.016 .172a2.825 2.825 0 0 1 -.525 1.414c-.59 .782 -1.626 1.221 -3.004 1.275l-.376 .013v2.705l1.54 .004l1.535 .007l.007 3.802l.005 3.804h3.935zm-6.205 -11.818c-.09 -.182 -.07 -.607 .036 -.742a.347 .347 0 0 1 .431 -.067a.39 .39 0 0 1 .105 .132c.038 .067 .049 .111 .051 .247v.094c0 .206 -.006 .26 -.046 .336c-.132 .253 -.454 .253 -.577 0zm-6.453 1.411v2.812h1.61v-1.535c0 -.844 .007 -1.534 .018 -1.534c.009 0 .398 .687 .865 1.53l.853 1.528l.831 .007l.832 .004v-5.624h-1.609v1.504c0 .824 -.009 1.497 -.018 1.49c-.01 -.007 -.38 -.681 -.823 -1.501l-.803 -1.49l-.876 -.003h-.88v2.812zm2.773 12.015c-1.074 .114 -1.96 .717 -2.404 1.635c-.197 .408 -.277 .798 -.277 1.334c0 .57 .089 .967 .315 1.407c.42 .815 1.187 1.353 2.165 1.52a4.139 4.139 0 0 0 1.382 -.035c.988 -.228 1.663 -.8 1.999 -1.694c.058 -.152 .139 -.488 .14 -.578v-.05h-2.056v.057c0 .078 -.085 .298 -.158 .403a.766 .766 0 0 1 -.651 .365c-.481 .025 -.787 -.215 -.926 -.723c-.054 -.197 -.07 -.944 -.025 -1.199c.063 -.352 .184 -.591 .367 -.726c.362 -.262 .942 -.206 1.185 .119a.893 .893 0 0 1 .123 .262l.05 .166h2.032l-.015 -.144a2.285 2.285 0 0 0 -.886 -1.559c-.59 -.437 -1.491 -.652 -2.36 -.56zm13.61 .004a1.55 1.55 0 0 0 -.539 .182c-.186 .103 -.487 .419 -.615 .638a1.83 1.83 0 0 1 -.127 .198c-.01 .006 -.018 -.195 -.018 -.449v-.461h-2.08v5.691h2.169v-1.263c0 -1.344 .011 -1.537 .114 -1.852c.15 -.458 .432 -.729 .859 -.818a2.3 2.3 0 0 1 1.035 .058c.067 .022 .132 .043 .143 .043c.01 0 .018 -.428 .018 -.953v-.95l-.087 -.024c-.235 -.063 -.6 -.08 -.872 -.04zm4.7 -.006a1.784 1.784 0 0 0 -.565 .197c-.248 .145 -.519 .446 -.669 .741c-.027 .052 -.058 .09 -.069 .083c-.013 -.009 -.022 -.2 -.022 -.461v-.446h-2.058v5.691h2.147v-1.105c0 -.605 .011 -1.234 .022 -1.396c.063 -.808 .327 -1.239 .866 -1.411c.235 -.076 1.013 -.056 1.013 .025a.65 .65 0 0 1 -.034 .12c-.143 .41 -.172 1.13 -.064 1.654c.232 1.147 1.064 1.931 2.316 2.184c.224 .045 .316 .052 .8 .052c.484 -.002 .578 -.009 .784 -.054c.972 -.208 1.639 -.69 2.012 -1.45c.063 -.123 .112 -.232 .112 -.24c0 -.008 -.452 -.015 -1.002 -.015h-1.002l-.102 .099c-.331 .316 -.96 .385 -1.39 .152c-.268 -.145 -.527 -.585 -.53 -.896v-.072h4.16l-.01 -.23c-.061 -1.094 -.28 -1.77 -.763 -2.335c-.33 -.388 -.913 -.7 -1.528 -.818c-.718 -.139 -1.445 -.105 -2.008 .092c-.537 .188 -1.085 .596 -1.362 1.017a.503 .503 0 0 1 -.1 .123c-.012 0 -.023 -.28 -.025 -.62l-.007 -.62l-.134 -.03a3.608 3.608 0 0 0 -.787 -.031zm3.981 1.413c.356 .11 .613 .426 .658 .811l.013 .108h-1.044c-.573 0 -1.042 -.007 -1.042 -.013c0 -.007 .015 -.077 .036 -.153c.1 -.394 .375 -.674 .753 -.766a1.37 1.37 0 0 1 .626 .013zm6.669 -1.409c-.568 .076 -1.022 .312 -1.344 .697a.744 .744 0 0 1 -.125 .13c-.01 0 -.018 -.161 -.018 -.359v-.358h-2.08v5.691h2.167l.009 -1.685c.007 -1.822 .002 -1.743 .127 -1.987c.146 -.29 .457 -.45 .806 -.422c.333 .027 .503 .18 .597 .536c.031 .123 .038 .345 .044 1.848l.01 1.71h2.146l-.007 -2.144c-.006 -2.136 -.008 -2.147 -.058 -2.326a1.766 1.766 0 0 0 -1.328 -1.288a3.4 3.4 0 0 0 -.946 -.043zm6.302 5.915c.67 -.09 1.252 -.354 1.68 -.762c.402 -.387 .646 -.853 .76 -1.458l.031 -.157h-2.07l-.014 .1a1.054 1.054 0 0 1 -.282 .512a.717 .717 0 0 1 -.519 .212c-.492 .025 -.805 -.228 -.928 -.752c-.058 -.247 -.058 -1.038 0 -1.282c.107 -.464 .331 -.697 .731 -.766a.83 .83 0 0 1 .316 0c.342 .058 .545 .248 .624 .58l.026 .119h2.047l-.02 -.153a3.057 3.057 0 0 0 -.065 -.315c-.255 -.948 -1 -1.564 -2.123 -1.76a5.672 5.672 0 0 0 -1.062 -.037a3.344 3.344 0 0 0 -1.487 .546a3.01 3.01 0 0 0 -.892 1.042c-.24 .477 -.354 1.134 -.295 1.7c.134 1.327 .986 2.277 2.316 2.586c.258 .059 .933 .083 1.226 .045zm4.526 1.698c.459 -.051 .82 -.186 1.107 -.412c.327 -.255 .575 -.703 .875 -1.568c.067 -.197 .532 -1.504 1.033 -2.902c.5 -1.398 .917 -2.56 .923 -2.583c.007 -.027 -.028 -.035 -.516 -.037h-.259l-.156 -.001h-1.292l-.454 1.618c-.25 .891 -.462 1.628 -.474 1.64c-.007 .01 -.01 .01 -.016 -.003l-.01 -.025c-.037 -.103 -.14 -.474 -.486 -1.718l-.418 -1.5l-1.154 -.008h-.659a8.4 8.4 0 0 0 -.497 .007c0 .025 .97 2.653 1.203 3.26c.29 .76 .532 1.423 .633 1.748c.105 .342 .092 .528 -.054 .665c-.123 .119 -.197 .13 -.747 .123l-.498 -.004v1.725h.85c.47 0 .948 -.011 1.066 -.025zm-36.083 -5.325l.007 2.18l.052 .168c.196 .638 .641 1.062 1.312 1.245c.18 .05 .747 .068 1.004 .034c.526 -.072 .993 -.32 1.293 -.688l.118 -.148l.007 .361l.005 .36h2.08v-5.69h-2.148v1.606c0 1.311 -.007 1.638 -.034 1.761c-.1 .475 -.385 .735 -.816 .742c-.244 .004 -.37 -.04 -.503 -.175c-.123 -.125 -.173 -.242 -.213 -.517c-.013 -.094 -.022 -.811 -.022 -1.788v-1.63h-2.148l.006 2.179z"/></svg>