<svg xmlns="http://www.w3.org/2000/svg" width="48" height="48" viewBox="0 0 48 48" fill="currentColor"><path d="M4.032 12.75v1.808h1.016v1.328h-1.016v1.687c0 .203 .02 .337 .059 .403c.06 .101 .166 .152 .317 .152c.136 0 .327 -.039 .572 -.116l.136 1.257a6.093 6.093 0 0 1 -1.28 .148c-.46 0 -.798 -.058 -1.016 -.175a1.07 1.07 0 0 1 -.483 -.53c-.104 -.237 -.156 -.621 -.156 -1.152v-1.674h-.681v-1.328h.68v-.873l1.852 -.935z"/><path d="M4.032 12.75v1.808h1.016v1.328h-1.016v1.687c0 .203 .02 .337 .059 .403c.06 .101 .166 .152 .317 .152c.136 0 .327 -.039 .572 -.116l.136 1.257a6.093 6.093 0 0 1 -1.28 .148c-.46 0 -.798 -.058 -1.016 -.175a1.07 1.07 0 0 1 -.483 -.53c-.104 -.237 -.156 -.621 -.156 -1.152v-1.674h-.681v-1.328h.68v-.873l1.852 -.935z"/><path d="M5.518 12.75h1.892v2.456c.257 -.261 .513 -.448 .767 -.56c.255 -.112 .555 -.168 .903 -.168c.514 0 .92 .153 1.216 .46c.296 .306 .444 .775 .444 1.41v3.069h-1.9v-2.657c0 -.303 -.058 -.518 -.172 -.644c-.115 -.125 -.276 -.188 -.484 -.188a.694 .694 0 0 0 -.558 .254c-.143 .17 -.214 .475 -.214 .914v2.32h-1.894v-6.666z"/><path d="M5.518 12.75h1.892v2.456c.257 -.261 .513 -.448 .767 -.56c.255 -.112 .555 -.168 .903 -.168c.514 0 .92 .153 1.216 .46c.296 .306 .444 .775 .444 1.41v3.069h-1.9v-2.657c0 -.303 -.058 -.518 -.172 -.644c-.115 -.125 -.276 -.188 -.484 -.188a.694 .694 0 0 0 -.558 .254c-.143 .17 -.214 .475 -.214 .914v2.32h-1.894v-6.666z"/><path d="M17.17 17.618h-3.466c.032 .319 .107 .556 .226 .712a.779 .779 0 0 0 .654 .337c.17 0 .33 -.049 .484 -.146a1.22 1.22 0 0 0 .301 -.327l1.703 .18c-.26 .52 -.575 .894 -.943 1.12c-.368 .226 -.896 .34 -1.584 .34c-.597 0 -1.067 -.097 -1.41 -.291c-.342 -.194 -.626 -.501 -.851 -.922c-.225 -.422 -.338 -.917 -.338 -1.486c0 -.81 .226 -1.466 .678 -1.967c.451 -.5 1.075 -.751 1.87 -.751c.646 0 1.155 .112 1.53 .336c.373 .225 .657 .55 .853 .976c.195 .427 .293 .981 .293 1.664v.225zm-1.758 -.952c-.034 -.384 -.124 -.658 -.27 -.824a.729 .729 0 0 0 -.575 -.25c-.275 0 -.494 .126 -.659 .376c-.104 .157 -.171 .39 -.2 .698h1.704z"/><path d="M17.17 17.618h-3.466c.032 .319 .107 .556 .226 .712a.779 .779 0 0 0 .654 .337c.17 0 .33 -.049 .484 -.146a1.22 1.22 0 0 0 .301 -.327l1.703 .18c-.26 .52 -.575 .894 -.943 1.12c-.368 .226 -.896 .34 -1.584 .34c-.597 0 -1.067 -.097 -1.41 -.291c-.342 -.194 -.626 -.501 -.851 -.922c-.225 -.422 -.338 -.917 -.338 -1.486c0 -.81 .226 -1.466 .678 -1.967c.451 -.5 1.075 -.751 1.87 -.751c.646 0 1.155 .112 1.53 .336c.373 .225 .657 .55 .853 .976c.195 .427 .293 .981 .293 1.664v.225zm-1.758 -.952c-.034 -.384 -.124 -.658 -.27 -.824a.729 .729 0 0 0 -.575 -.25c-.275 0 -.494 .126 -.659 .376c-.104 .157 -.171 .39 -.2 .698h1.704z"/><path d="M5.352 25.188l1.773 .215a2.712 2.712 0 0 1 -.481 1.021a2.25 2.25 0 0 1 -.854 .67c-.347 .16 -.787 .24 -1.322 .24c-.516 0 -.946 -.052 -1.29 -.154a2.213 2.213 0 0 1 -.886 -.498a2.5 2.5 0 0 1 -.581 -.806c-.14 -.31 -.211 -.719 -.211 -1.23c0 -.532 .086 -.976 .257 -1.33c.125 -.26 .296 -.493 .513 -.7c.216 -.206 .44 -.36 .668 -.46c.364 -.16 .83 -.24 1.397 -.24c.794 0 1.4 .152 1.817 .454c.416 .302 .709 .744 .877 1.326l-1.755 .249c-.055 -.221 -.155 -.388 -.3 -.5c-.145 -.112 -.34 -.168 -.584 -.168a.918 .918 0 0 0 -.749 .353c-.19 .236 -.286 .593 -.286 1.07c0 .426 .095 .75 .284 .97a.91 .91 0 0 0 .724 .332a.95 .95 0 0 0 .616 -.2c.166 -.133 .29 -.338 .373 -.614z"/><path d="M5.352 25.188l1.773 .215a2.712 2.712 0 0 1 -.481 1.021a2.25 2.25 0 0 1 -.854 .67c-.347 .16 -.787 .24 -1.322 .24c-.516 0 -.946 -.052 -1.29 -.154a2.213 2.213 0 0 1 -.886 -.498a2.5 2.5 0 0 1 -.581 -.806c-.14 -.31 -.211 -.719 -.211 -1.23c0 -.532 .086 -.976 .257 -1.33c.125 -.26 .296 -.493 .513 -.7c.216 -.206 .44 -.36 .668 -.46c.364 -.16 .83 -.24 1.397 -.24c.794 0 1.4 .152 1.817 .454c.416 .302 .709 .744 .877 1.326l-1.755 .249c-.055 -.221 -.155 -.388 -.3 -.5c-.145 -.112 -.34 -.168 -.584 -.168a.918 .918 0 0 0 -.749 .353c-.19 .236 -.286 .593 -.286 1.07c0 .426 .095 .75 .284 .97a.91 .91 0 0 0 .724 .332a.95 .95 0 0 0 .616 -.2c.166 -.133 .29 -.338 .373 -.614z"/><path d="M13.152 27.214h-1.768v-.858c-.263 .352 -.53 .603 -.797 .753c-.269 .15 -.598 .224 -.989 .224c-.52 0 -.93 -.167 -1.225 -.5c-.296 -.335 -.444 -.85 -.444 -1.545v-3.371h1.901v2.912c0 .333 .057 .57 .172 .709a.59 .59 0 0 0 .484 .21a.673 .673 0 0 0 .555 -.28c.145 -.186 .217 -.52 .217 -1.003v-2.548h1.893v5.297z"/><path d="M13.152 27.214h-1.768v-.858c-.263 .352 -.53 .603 -.797 .753c-.269 .15 -.598 .224 -.989 .224c-.52 0 -.93 -.167 -1.225 -.5c-.296 -.335 -.444 -.85 -.444 -1.545v-3.371h1.901v2.912c0 .333 .057 .57 .172 .709a.59 .59 0 0 0 .484 .21a.673 .673 0 0 0 .555 -.28c.145 -.186 .217 -.52 .217 -1.003v-2.548h1.893v5.297z"/><path d="M14.357 22.036h1.831v.868c.176 -.376 .358 -.634 .546 -.775a1.12 1.12 0 0 1 .694 -.212c.289 0 .604 .093 .947 .279l-.606 1.446c-.23 -.1 -.413 -.15 -.547 -.15a.67 .67 0 0 0 -.596 .33c-.202 .31 -.303 .888 -.303 1.736v1.775h-1.966v-5.297z"/><path d="M14.357 22.036h1.831v.868c.176 -.376 .358 -.634 .546 -.775a1.12 1.12 0 0 1 .694 -.212c.289 0 .604 .093 .947 .279l-.606 1.446c-.23 -.1 -.413 -.15 -.547 -.15a.67 .67 0 0 0 -.596 .33c-.202 .31 -.303 .888 -.303 1.736v1.775h-1.966v-5.297z"/><path d="M18.375 22.036h1.831v.868c.176 -.376 .358 -.634 .546 -.775a1.12 1.12 0 0 1 .694 -.212c.288 0 .604 .093 .947 .279l-.606 1.446c-.23 -.1 -.413 -.15 -.548 -.15a.67 .67 0 0 0 -.596 .33c-.201 .31 -.302 .888 -.302 1.736v1.775h-1.966v-5.297z"/><path d="M18.375 22.036h1.831v.868c.176 -.376 .358 -.634 .546 -.775a1.12 1.12 0 0 1 .694 -.212c.288 0 .604 .093 .947 .279l-.606 1.446c-.23 -.1 -.413 -.15 -.548 -.15a.67 .67 0 0 0 -.596 .33c-.201 .31 -.302 .888 -.302 1.736v1.775h-1.966v-5.297z"/><path d="M28.42 25.118h-3.732c.033 .319 .114 .556 .242 .712a.86 .86 0 0 0 .705 .337c.183 0 .356 -.049 .52 -.146a1.25 1.25 0 0 0 .326 -.327l1.833 .18c-.28 .52 -.618 .894 -1.015 1.12c-.396 .226 -.965 .34 -1.706 .34c-.643 0 -1.149 -.097 -1.518 -.291c-.369 -.194 -.674 -.501 -.917 -.922c-.242 -.422 -.363 -.917 -.363 -1.486c0 -.81 .243 -1.466 .73 -1.967c.485 -.5 1.157 -.751 2.014 -.751c.695 0 1.243 .112 1.646 .336c.402 .225 .709 .55 .92 .976c.21 .427 .315 .981 .315 1.664v.225zm-1.894 -.952c-.036 -.384 -.133 -.658 -.29 -.824a.814 .814 0 0 0 -.62 -.25a.826 .826 0 0 0 -.709 .376c-.112 .157 -.184 .39 -.214 .698h1.833z"/><path d="M28.42 25.118h-3.732c.033 .319 .114 .556 .242 .712a.86 .86 0 0 0 .705 .337c.183 0 .356 -.049 .52 -.146a1.25 1.25 0 0 0 .326 -.327l1.833 .18c-.28 .52 -.618 .894 -1.015 1.12c-.396 .226 -.965 .34 -1.706 .34c-.643 0 -1.149 -.097 -1.518 -.291c-.369 -.194 -.674 -.501 -.917 -.922c-.242 -.422 -.363 -.917 -.363 -1.486c0 -.81 .243 -1.466 .73 -1.967c.485 -.5 1.157 -.751 2.014 -.751c.695 0 1.243 .112 1.646 .336c.402 .225 .709 .55 .92 .976c.21 .427 .315 .981 .315 1.664v.225zm-1.894 -.952c-.036 -.384 -.133 -.658 -.29 -.824a.814 .814 0 0 0 -.62 -.25a.826 .826 0 0 0 -.709 .376c-.112 .157 -.184 .39 -.214 .698h1.833z"/><path d="M28.821 22.036h1.763v.863c.264 -.352 .53 -.604 .8 -.755c.27 -.152 .599 -.227 .986 -.227c.524 0 .934 .167 1.23 .5c.297 .335 .445 .851 .445 1.55v3.366h-1.903v-2.912c0 -.333 -.057 -.568 -.172 -.706c-.114 -.138 -.276 -.207 -.483 -.207a.67 .67 0 0 0 -.559 .28c-.142 .185 -.214 .52 -.214 1.002v2.543h-1.893v-5.297z"/><path d="M28.821 22.036h1.763v.863c.264 -.352 .53 -.604 .8 -.755c.27 -.152 .599 -.227 .986 -.227c.524 0 .934 .167 1.23 .5c.297 .335 .445 .851 .445 1.55v3.366h-1.903v-2.912c0 -.333 -.057 -.568 -.172 -.706c-.114 -.138 -.276 -.207 -.483 -.207a.67 .67 0 0 0 -.559 .28c-.142 .185 -.214 .52 -.214 1.002v2.543h-1.893v-5.297z"/><path d="M39.102 25.188l1.773 .215a2.712 2.712 0 0 1 -.481 1.021a2.25 2.25 0 0 1 -.854 .67c-.347 .16 -.787 .24 -1.322 .24c-.516 0 -.946 -.052 -1.29 -.154a2.213 2.213 0 0 1 -.886 -.498a2.5 2.5 0 0 1 -.581 -.806c-.14 -.31 -.211 -.719 -.211 -1.23c0 -.532 .086 -.976 .257 -1.33c.125 -.26 .296 -.493 .513 -.7c.216 -.206 .44 -.36 .668 -.46c.364 -.16 .83 -.24 1.397 -.24c.794 0 1.4 .152 1.817 .454c.416 .302 .709 .744 .877 1.326l-1.755 .249c-.055 -.221 -.155 -.388 -.3 -.5c-.145 -.112 -.34 -.168 -.584 -.168a.918 .918 0 0 0 -.749 .353c-.19 .236 -.286 .593 -.286 1.07c0 .426 .095 .75 .284 .97a.91 .91 0 0 0 .724 .332a.95 .95 0 0 0 .616 -.2c.166 -.133 .29 -.338 .373 -.614z"/><path d="M39.102 25.188l1.773 .215a2.712 2.712 0 0 1 -.481 1.021a2.25 2.25 0 0 1 -.854 .67c-.347 .16 -.787 .24 -1.322 .24c-.516 0 -.946 -.052 -1.29 -.154a2.213 2.213 0 0 1 -.886 -.498a2.5 2.5 0 0 1 -.581 -.806c-.14 -.31 -.211 -.719 -.211 -1.23c0 -.532 .086 -.976 .257 -1.33c.125 -.26 .296 -.493 .513 -.7c.216 -.206 .44 -.36 .668 -.46c.364 -.16 .83 -.24 1.397 -.24c.794 0 1.4 .152 1.817 .454c.416 .302 .709 .744 .877 1.326l-1.755 .249c-.055 -.221 -.155 -.388 -.3 -.5c-.145 -.112 -.34 -.168 -.584 -.168a.918 .918 0 0 0 -.749 .353c-.19 .236 -.286 .593 -.286 1.07c0 .426 .095 .75 .284 .97a.91 .91 0 0 0 .724 .332a.95 .95 0 0 0 .616 -.2c.166 -.133 .29 -.338 .373 -.614z"/><path d="M40.875 22.333h1.93l.984 3.157l.91 -3.157h1.801l-1.89 5.068c-.215 .578 -.435 .968 -.66 1.17c-.317 .286 -.8 .429 -1.45 .429c-.263 0 -.67 -.036 -1.221 -.107l-.144 -1.268c.264 .083 .557 .125 .88 .125c.216 0 .39 -.05 .523 -.148c.133 -.098 .246 -.274 .34 -.527l-2.003 -4.742z"/><path d="M40.875 22.333h1.93l.984 3.157l.91 -3.157h1.801l-1.89 5.068c-.215 .578 -.435 .968 -.66 1.17c-.317 .286 -.8 .429 -1.45 .429c-.263 0 -.67 -.036 -1.221 -.107l-.144 -1.268c.264 .083 .557 .125 .88 .125c.216 0 .39 -.05 .523 -.148c.133 -.098 .246 -.274 .34 -.527l-2.003 -4.742z"/><path d="M6.139 32.332l1.79 .56c-.12 .52 -.31 .954 -.568 1.303c-.259 .348 -.58 .611 -.963 .789c-.383 .177 -.87 .266 -1.463 .266c-.718 0 -1.305 -.108 -1.76 -.325c-.456 -.216 -.849 -.596 -1.18 -1.141c-.33 -.545 -.495 -1.242 -.495 -2.092c0 -1.133 .29 -2.004 .872 -2.612c.582 -.61 1.405 -.913 2.469 -.913c.832 0 1.486 .174 1.963 .523c.476 .348 .83 .884 1.061 1.606l-1.803 .415a1.627 1.627 0 0 0 -.198 -.457a1.187 1.187 0 0 0 -.42 -.374a1.17 1.17 0 0 0 -.554 -.13c-.463 0 -.817 .193 -1.064 .579c-.186 .286 -.28 .736 -.28 1.349c0 .76 .112 1.28 .334 1.562c.223 .282 .535 .422 .938 .422c.39 0 .686 -.113 .886 -.34c.2 -.228 .345 -.558 .435 -.99z"/><path d="M6.139 32.332l1.79 .56c-.12 .52 -.31 .954 -.568 1.303c-.259 .348 -.58 .611 -.963 .789c-.383 .177 -.87 .266 -1.463 .266c-.718 0 -1.305 -.108 -1.76 -.325c-.456 -.216 -.849 -.596 -1.18 -1.141c-.33 -.545 -.495 -1.242 -.495 -2.092c0 -1.133 .29 -2.004 .872 -2.612c.582 -.61 1.405 -.913 2.469 -.913c.832 0 1.486 .174 1.963 .523c.476 .348 .83 .884 1.061 1.606l-1.803 .415a1.627 1.627 0 0 0 -.198 -.457a1.187 1.187 0 0 0 -.42 -.374a1.17 1.17 0 0 0 -.554 -.13c-.463 0 -.817 .193 -1.064 .579c-.186 .286 -.28 .736 -.28 1.349c0 .76 .112 1.28 .334 1.562c.223 .282 .535 .422 .938 .422c.39 0 .686 -.113 .886 -.34c.2 -.228 .345 -.558 .435 -.99z"/><path d="M8.732 28.167h2.01v6.666h-2.01z"/><path d="M8.732 28.167h2.01v6.666h-2.01z"/><path d="M17.17 35.13h-1.768v-.858c-.263 .353 -.53 .604 -.797 .754c-.269 .15 -.598 .224 -.989 .224c-.52 0 -.93 -.167 -1.225 -.501c-.297 -.334 -.445 -.849 -.445 -1.544v-3.372h1.903v2.913c0 .333 .057 .569 .172 .708a.59 .59 0 0 0 .484 .21a.673 .673 0 0 0 .555 -.28c.145 -.186 .217 -.52 .217 -1.002v-2.549h1.893v5.297z"/><path d="M17.17 35.13h-1.768v-.858c-.263 .353 -.53 .604 -.797 .754c-.269 .15 -.598 .224 -.989 .224c-.52 0 -.93 -.167 -1.225 -.501c-.297 -.334 -.445 -.849 -.445 -1.544v-3.372h1.903v2.913c0 .333 .057 .569 .172 .708a.59 .59 0 0 0 .484 .21a.673 .673 0 0 0 .555 -.28c.145 -.186 .217 -.52 .217 -1.002v-2.549h1.893v5.297z"/><path d="M17.973 28.167h1.978v2.273a1.96 1.96 0 0 1 .666 -.43c.249 -.095 .524 -.143 .826 -.143c.622 0 1.137 .208 1.544 .624c.408 .416 .611 1.013 .611 1.792c0 .519 -.093 .976 -.279 1.371c-.186 .396 -.443 .69 -.772 .886a2.103 2.103 0 0 1 -1.095 .293c-.343 0 -.657 -.068 -.943 -.205c-.215 -.108 -.45 -.31 -.702 -.605v.703h-1.834v-6.56zm1.963 4.17c0 .408 .083 .704 .248 .888a.808 .808 0 0 0 .628 .275c.234 0 .43 -.09 .59 -.27c.158 -.181 .238 -.485 .238 -.911c0 -.376 -.078 -.652 -.234 -.828a.728 .728 0 0 0 -.565 -.264a.845 .845 0 0 0 -.652 .275c-.168 .184 -.253 .462 -.253 .835z"/><path d="M17.973 28.167h1.978v2.273a1.96 1.96 0 0 1 .666 -.43c.249 -.095 .524 -.143 .826 -.143c.622 0 1.137 .208 1.544 .624c.408 .416 .611 1.013 .611 1.792c0 .519 -.093 .976 -.279 1.371c-.186 .396 -.443 .69 -.772 .886a2.103 2.103 0 0 1 -1.095 .293c-.343 0 -.657 -.068 -.943 -.205c-.215 -.108 -.45 -.31 -.702 -.605v.703h-1.834v-6.56zm1.963 4.17c0 .408 .083 .704 .248 .888a.808 .808 0 0 0 .628 .275c.234 0 .43 -.09 .59 -.27c.158 -.181 .238 -.485 .238 -.911c0 -.376 -.078 -.652 -.234 -.828a.728 .728 0 0 0 -.565 -.264a.845 .845 0 0 0 -.652 .275c-.168 .184 -.253 .462 -.253 .835z"/></svg>