<svg xmlns="http://www.w3.org/2000/svg" width="48" height="48" viewBox="0 0 48 48" fill="currentColor"><path d="M11.03 29.956c.184 -.211 .354 -.403 .521 -.598c.398 -.463 .805 -.916 1.186 -1.392c.157 -.199 .32 -.263 .567 -.255c.633 .019 1.268 .006 1.901 .006c.066 0 .132 .007 .196 .009c.009 .074 -.043 .095 -.072 .128c-.674 .7 -1.349 1.399 -2.027 2.094c-.048 .05 -.065 .085 -.027 .138c.413 .6 .77 1.24 1.154 1.858c.341 .55 .677 1.105 1.014 1.657c.03 .052 .076 .098 .083 .162c-.033 .056 -.087 .037 -.13 .037c-.677 .002 -1.352 -.002 -2.028 .006c-.118 .002 -.18 -.054 -.222 -.136c-.078 -.156 -.144 -.319 -.217 -.48c-.21 -.466 -.498 -.89 -.72 -1.351c-.083 -.17 -.12 -.362 -.256 -.518c-.199 .176 -.369 .373 -.549 .561c-.132 .139 -.302 .263 -.382 .428c-.083 .174 -.025 .393 -.027 .592a24.45 24.45 0 0 0 0 .766c.002 .095 -.031 .134 -.13 .134c-.545 -.004 -1.089 -.002 -1.635 0c-.089 0 -.128 -.031 -.12 -.12c.004 -.041 0 -.083 0 -.124v-5.625c.002 -.224 -.031 -.216 .207 -.216h1.531c.14 .005 .145 .005 .145 .154c.002 .614 0 1.226 .002 1.84c.004 .073 -.013 .15 .035 .245zm11.493 -14.401c.335 -.015 .66 .018 .97 .165c.176 .083 .302 .209 .418 .354c.025 .03 .045 .066 .068 .1c.054 .074 .108 .067 .17 .005c.093 -.09 .192 -.178 .29 -.264c.355 -.31 .781 -.387 1.234 -.36c.396 .024 .764 .13 1.035 .44c.238 .271 .32 .608 .36 .958c.012 .102 .01 .207 .01 .31v2.607c0 .193 .017 .18 -.176 .18h-1.344c-.168 0 -.17 -.002 -.17 -.171v-2.214c0 -.143 -.012 -.284 -.052 -.424c-.093 -.333 -.581 -.489 -.885 -.234a.653 .653 0 0 0 -.238 .461c-.035 .331 -.023 .662 -.025 .991c-.004 .482 -.004 .966 0 1.448c0 .102 -.023 .147 -.137 .145c-.47 -.006 -.937 -.002 -1.406 -.002c-.153 0 -.156 -.004 -.156 -.165v-2.255c0 -.104 .003 -.21 -.012 -.31c-.029 -.195 -.122 -.346 -.329 -.4c-.014 -.041 -.023 -.097 -.083 -.04c-.459 -.063 -.711 .26 -.738 .611c-.033 .447 -.01 .896 -.015 1.343c-.004 .358 -.004 .716 .002 1.073c.002 .108 -.03 .145 -.138 .143a84.238 84.238 0 0 0 -1.446 0c-.094 0 -.122 -.035 -.114 -.12c.004 -.033 0 -.068 0 -.103v-3.948c0 -.035 .002 -.068 0 -.103c-.01 -.093 .016 -.135 .124 -.132c.44 .006 .881 .004 1.322 0c.095 0 .136 .024 .132 .126c-.008 .15 -.002 .3 -.002 .484c.35 -.36 .716 -.64 1.206 -.691a.146 .146 0 0 0 .125 -.008zm-14.653 14.15v1.656c0 .461 -.093 .904 -.31 1.307a2.175 2.175 0 0 1 -1.515 1.14c-.51 .112 -1.026 .1 -1.541 .068c-.24 -.014 -.478 -.051 -.718 -.076c-.16 -.017 -.313 -.11 -.466 -.18c-.533 -.244 -.891 -.668 -1.096 -1.196a2.785 2.785 0 0 1 -.182 -1.005l-.002 -3.557c0 -.14 .004 -.145 .153 -.145c.51 -.002 1.02 0 1.53 0c.191 0 .191 .003 .191 .189c0 1.109 .002 2.22 0 3.329c0 .173 .004 .347 .037 .515a.857 .857 0 0 0 .542 .645c.307 .124 .623 .124 .93 0c.345 -.138 .496 -.428 .552 -.774c.018 -.107 .016 -.219 .016 -.329c.002 -1.117 .002 -2.234 .002 -3.349c0 -.246 -.022 -.223 .22 -.223c.502 0 1.007 -.003 1.51 0c.145 0 .149 .004 .149 .148l-.002 1.838zm-5.833 -5.845v-2.73c0 -.048 .004 -.098 0 -.146c-.015 -.114 .043 -.145 .144 -.136c.042 .004 .083 0 .125 0h4.487c.056 0 .11 .002 .165 0c.083 -.004 .108 .037 .108 .114c-.002 .357 -.002 .717 0 1.075c0 .079 -.033 .114 -.112 .108c-.047 -.002 -.097 0 -.145 0h-2.648c-.047 0 -.097 .002 -.144 0c-.067 -.002 -.104 .025 -.104 .095v.766c0 .072 .04 .095 .104 .093c.047 -.002 .097 0 .144 0h2.504c.171 .002 .173 .002 .173 .167c.003 .304 .003 .606 0 .91c0 .166 -.002 .168 -.173 .168c-.793 0 -1.585 0 -2.38 .002c-.115 0 -.258 -.05 -.339 .027c-.085 .077 -.029 .221 -.03 .337c-.007 .193 -.003 .387 -.003 .58c.002 .273 -.029 .248 .24 .248h2.752c.047 0 .097 .004 .144 0c.094 -.008 .118 .04 .118 .124c-.002 .379 -.002 .76 0 1.138c0 .085 -.022 .132 -.115 .126c-.036 -.002 -.069 0 -.104 0h-4.694c-.035 0 -.068 -.002 -.104 0c-.078 .004 -.115 -.027 -.111 -.108c.002 -.047 0 -.097 0 -.144c-.002 -.94 -.002 -1.877 -.002 -2.814zm37.084 -.782c0 -.149 .002 -.298 0 -.447c-.002 -.076 .025 -.114 .108 -.114c.455 .002 .91 .002 1.365 0c.079 0 .116 .03 .112 .108c-.002 .047 0 .097 0 .145c.004 1.35 .01 2.702 .01 4.053c0 .531 -.172 .997 -.563 1.371a1.65 1.65 0 0 1 -.782 .4a4.89 4.89 0 0 1 -1.458 .107c-.37 -.025 -.739 -.062 -1.093 -.192a1.259 1.259 0 0 1 -.715 -.654a1.463 1.463 0 0 1 -.13 -.703c.003 -.104 .043 -.133 .138 -.12c.26 .03 .52 .058 .78 .089c.205 .022 .41 .053 .616 .07c.079 .006 .129 .033 .151 .11c.058 .194 .214 .275 .391 .32c.17 .042 .338 .037 .51 -.01c.206 -.058 .322 -.197 .39 -.39a1.16 1.16 0 0 0 .05 -.365c.002 -.18 .004 -.358 0 -.538c0 -.05 .031 -.124 -.041 -.14c-.06 -.013 -.098 .049 -.12 .096c-.035 .075 -.098 .116 -.158 .16a1.56 1.56 0 0 1 -.842 .306c-.84 .058 -1.526 -.38 -1.814 -1.18a2.984 2.984 0 0 1 -.017 -2.006c.23 -.683 .811 -1.099 1.531 -1.124a2.63 2.63 0 0 1 .495 .019c.354 .054 .652 .211 .894 .478l.153 .168c.012 -.01 .027 -.013 .04 -.017zm-1.576 1.53c-.009 .173 .01 .322 .051 .469c.09 .3 .317 .486 .609 .506c.335 .023 .595 -.134 .724 -.434c.066 -.155 .089 -.319 .089 -.484c0 -.354 -.062 -.685 -.4 -.89c-.3 -.182 -.573 -.172 -.842 .058c-.06 .052 -.132 .097 -.147 .188c-.033 .199 -.103 .396 -.084 .588zm-16.767 -1.54c.135 -.147 .253 -.232 .373 -.317c.546 -.38 1.142 -.43 1.752 -.21c.46 .165 .691 .535 .78 1.013c.079 .424 .06 .848 .062 1.274c.004 .635 .002 1.268 0 1.904c0 .184 -.002 .186 -.178 .188c-.449 .002 -.896 .002 -1.344 0c-.18 0 -.185 -.002 -.185 -.186c-.002 -.718 0 -1.434 -.002 -2.152c0 -.097 0 -.192 -.008 -.29c-.027 -.295 -.16 -.453 -.42 -.502c-.33 -.062 -.577 .037 -.707 .293a1.25 1.25 0 0 0 -.12 .561c-.003 .677 -.003 1.351 -.005 2.028c-.002 .27 .044 .252 -.254 .252h-1.262c-.174 0 -.176 -.002 -.176 -.168v-5.749c0 -.155 .004 -.16 .161 -.16h1.366c.163 0 .165 .005 .165 .177v1.779c.002 .07 .002 .138 .002 .265zm-12.483 -3.078c-.002 -.054 -.008 -.11 -.008 -.163v-5.632c0 -.053 .006 -.11 .008 -.163c.012 -.015 .025 -.027 .035 -.041c.515 -.027 1.03 -.005 1.546 -.013c.124 -.002 .103 .079 .103 .153v2.017c.062 .03 .079 -.022 .103 -.047a1.7 1.7 0 0 1 .942 -.51c.033 -.005 .068 -.012 .085 -.049c.05 .046 .103 .042 .159 .015c.275 -.03 .548 .014 .8 .103c.356 .124 .596 .387 .733 .745c.105 .28 .139 .567 .136 .863c-.004 .866 0 1.735 -.002 2.602c0 .182 -.002 .184 -.175 .184h-1.343c-.176 0 -.178 -.002 -.178 -.182v-2.15c0 -.138 -.006 -.274 -.027 -.411c-.05 -.345 -.511 -.511 -.784 -.391a.679 .679 0 0 0 -.432 .627c-.04 .75 -.01 1.502 -.017 2.25c0 .048 -.002 .098 0 .146c.004 .076 -.02 .118 -.103 .111c-.036 -.002 -.069 0 -.104 0h-1.28c-.054 0 -.11 .013 -.162 -.014c-.012 -.019 -.025 -.033 -.035 -.05zm-6.672 -4.55c-.002 -.455 -.006 -.909 -.01 -1.364c0 -.068 .018 -.105 .093 -.099c.041 .004 .082 0 .124 0h5.27c.252 0 .223 -.017 .223 .22c0 .378 .002 .757 0 1.135c0 .143 -.005 .147 -.151 .147c-.53 .002 -1.062 0 -1.591 0c-.176 0 -.178 .002 -.178 .182v4.113c0 .048 -.004 .097 0 .145c.008 .093 -.019 .134 -.124 .134c-.56 -.004 -1.116 -.002 -1.674 -.004c-.013 0 -.025 -.008 -.04 -.014l-.033 -.046c-.002 -.074 -.008 -.15 -.008 -.225v-4.049c-.004 -.263 .033 -.234 -.225 -.236c-.482 -.002 -.964 0 -1.447 0c-.062 0 -.124 -.004 -.186 -.006l-.043 -.033zm27.685 1.613l-1.288 -.144c.06 -.391 .22 -.706 .531 -.95c.38 -.302 .836 -.352 1.29 -.387c.5 -.04 1.005 -.029 1.505 .037c.333 .044 .64 .16 .908 .362c.096 .07 .174 .16 .228 .265c.166 .325 .267 .664 .263 1.033c-.004 .64 .004 1.282 -.004 1.924c-.004 .295 .058 .57 .19 .833c-.052 .05 -.11 .027 -.161 .03h-1.2c-.207 0 -.315 -.094 -.354 -.3c-.004 -.028 -.002 -.056 -.008 -.083c-.025 -.096 -.062 -.11 -.141 -.046a1.98 1.98 0 0 1 -.652 .373a2.84 2.84 0 0 1 -.84 .153c-.258 .004 -.513 -.002 -.765 -.075c-.484 -.138 -.966 -.6 -.933 -1.235c.014 -.269 .07 -.515 .246 -.737c.1 -.126 .225 -.196 .354 -.27c.287 -.164 .608 -.222 .927 -.286c.496 -.101 .995 -.192 1.475 -.366c.05 -.019 .099 -.04 .147 -.062c.039 -.019 .086 -.056 .033 -.114a.051 .051 0 0 1 -.013 -.037c.021 -.11 -.004 -.21 -.089 -.282a.555 .555 0 0 0 -.316 -.126a1.714 1.714 0 0 0 -.534 .037c-.188 .044 -.348 .133 -.412 .325c-.043 .135 -.12 .168 -.246 .135c-.019 -.004 -.041 -.002 -.062 -.002c-.023 -.019 -.05 -.021 -.079 -.005zm1.736 .956c-.027 -.002 -.058 -.01 -.083 -.002c-.248 .087 -.502 .15 -.755 .215c-.155 .042 -.32 .085 -.453 .199c-.15 .13 -.215 .312 -.153 .494c.056 .162 .221 .274 .404 .292c.202 .02 .395 -.025 .573 -.103c.188 -.083 .355 -.213 .424 -.418a1.46 1.46 0 0 0 .08 -.64c.013 -.035 -.006 -.043 -.037 -.037zm-1.454 8.865c-.056 .048 -.091 .048 -.126 .048c-.435 0 -.87 -.002 -1.304 .002c-.114 .002 -.176 -.048 -.22 -.147c-.049 -.112 -.07 -.234 -.103 -.347c-.057 -.009 -.082 .033 -.111 .06c-.379 .347 -.84 .49 -1.339 .527c-.316 .023 -.635 .01 -.941 -.087c-.42 -.132 -.735 -.389 -.857 -.821c-.15 -.534 -.014 -1.196 .69 -1.475c.322 -.129 .661 -.186 .996 -.259c.44 -.093 .88 -.174 1.3 -.33c.17 -.065 .196 -.144 .134 -.313c-.08 -.215 -.25 -.284 -.45 -.302a1.6 1.6 0 0 0 -.433 .025c-.224 .039 -.4 .148 -.49 .36c-.046 .105 -.104 .132 -.218 .117c-.445 -.053 -.89 -.095 -1.336 -.136c-.093 -.008 -.112 -.044 -.091 -.133c.118 -.519 .428 -.868 .92 -1.057c.259 -.099 .534 -.145 .807 -.161a8.657 8.657 0 0 1 1.465 .02c.292 .032 .575 .096 .832 .243c.302 .171 .484 .438 .583 .765c.077 .253 .097 .51 .093 .772c-.006 .455 -.002 .91 -.002 1.365c.006 .43 -.025 .87 .2 1.264zm-1.858 -2.025c-.408 .14 -.815 .209 -1.194 .372a.628 .628 0 0 0 -.107 .062a.417 .417 0 0 0 -.189 .427c.025 .175 .133 .28 .294 .337c.126 .043 .259 .04 .387 .025c.428 -.048 .76 -.354 .805 -.756c.016 -.142 .004 -.287 .004 -.467zm4.243 -1.643l.28 -.277c.56 -.54 1.224 -.623 1.934 -.403c.416 .128 .664 .449 .782 .866c.058 .2 .089 .404 .089 .613v2.75c0 .167 -.002 .171 -.172 .171c-.455 .002 -.91 .002 -1.365 0c-.158 0 -.16 -.004 -.16 -.161c-.002 -.737 0 -1.475 0 -2.212c0 -.139 -.006 -.275 -.041 -.41a.445 .445 0 0 0 -.374 -.351c-.433 -.085 -.694 .072 -.799 .502a2.274 2.274 0 0 0 -.056 .555v1.88c0 .189 -.002 .19 -.194 .19c-.441 0 -.882 .003 -1.324 0c-.168 0 -.172 -.003 -.172 -.173v-4.074c0 -.148 .004 -.15 .145 -.153c.42 -.002 .84 -.002 1.262 0c.159 0 .161 .005 .165 .16c.002 .161 0 .324 0 .527zm14.499 2.597c.008 .029 0 .053 -.015 .078c-.318 .51 -.734 .886 -1.338 1.03c-.515 .123 -1.033 .129 -1.556 .092a2.822 2.822 0 0 1 -.68 -.139a1.737 1.737 0 0 1 -.733 -.447a2.342 2.342 0 0 1 -.521 -.881a2.688 2.688 0 0 1 -.1 -1.153c.135 -1.146 .987 -1.847 2.063 -1.944a4.345 4.345 0 0 1 1.378 .074c.312 .075 .602 .199 .852 .404c.41 .337 .642 .777 .733 1.297c.045 .258 .053 .52 .055 .782c.002 .107 -.035 .143 -.142 .143c-.352 -.003 -.704 .004 -1.055 .004h-1.925c-.04 0 -.082 -.002 -.124 0c-.122 .006 -.13 .016 -.113 .136c.05 .323 .213 .584 .517 .695a.88 .88 0 0 0 .896 -.155a.985 .985 0 0 0 .13 -.132c.04 -.046 .08 -.066 .143 -.06l1.44 .14c.035 .007 .072 .003 .095 .036zm-3.213 -1.484h1.616c-.009 -.585 -.379 -.908 -.85 -.891c-.425 .016 -.77 .33 -.766 .891zm-29.506 -6.357c-.033 -.547 .087 -1.045 .418 -1.498c.298 -.408 .69 -.65 1.16 -.786a3.46 3.46 0 0 1 1.75 -.033c.325 .074 .642 .2 .894 .405c.333 .269 .592 .614 .697 1.051c.069 .283 .147 .565 .118 .859c-.043 .44 -.14 .864 -.403 1.233a2.112 2.112 0 0 1 -.875 .715c-.524 .234 -1.072 .28 -1.633 .23c-.24 -.023 -.48 -.041 -.707 -.143c-.445 -.198 -.823 -.461 -1.105 -.877c-.15 -.221 -.213 -.47 -.308 -.705c-.05 -.133 -.006 -.3 -.006 -.451zm3.345 -.155a2.189 2.189 0 0 0 -.11 -.567a.759 .759 0 0 0 -.724 -.52a.775 .775 0 0 0 -.74 .536a1.96 1.96 0 0 0 -.027 1.148c.08 .305 .345 .631 .792 .602c.406 -.024 .635 -.273 .718 -.548c.06 -.2 .089 -.41 .091 -.651zm-9.47 9.098c.02 -.095 .071 -.142 .11 -.198l1.343 -1.937c.104 -.15 .106 -.15 -.002 -.3l-1.26 -1.742c-.04 -.053 -.09 -.103 -.105 -.173c.033 -.058 .087 -.034 .13 -.034c.559 -.002 1.117 .003 1.676 -.004c.12 -.002 .186 .038 .242 .141c.165 .302 .34 .6 .51 .898c.032 .054 .053 .114 .104 .153c.062 -.029 .083 -.091 .116 -.14c.207 -.311 .414 -.62 .617 -.932c.047 -.074 .097 -.12 .196 -.12c.55 .007 1.103 .004 1.653 .004c.013 0 .025 .009 .048 .017c.002 .08 -.058 .132 -.1 .19c-.413 .578 -.827 1.153 -1.239 1.732c-.136 .19 -.13 .132 -.006 .314c.445 .64 .892 1.277 1.337 1.916c.043 .06 .097 .116 .117 .195c-.03 .051 -.084 .035 -.128 .035c-.538 .004 -1.076 0 -1.611 .01c-.143 .002 -.224 -.047 -.29 -.174c-.19 -.351 -.395 -.695 -.594 -1.04c-.033 -.06 -.058 -.126 -.116 -.17c-.068 .042 -.099 .114 -.14 .176c-.236 .348 -.474 .693 -.704 1.047c-.07 .107 -.147 .161 -.281 .16c-.51 -.01 -1.02 -.005 -1.53 -.007c-.028 -.004 -.055 -.012 -.092 -.017zm29.582 -10.095c-.233 .023 -.465 .044 -.699 .07c-.093 .011 -.15 -.001 -.184 -.107a.392 .392 0 0 0 -.223 -.232a.92 .92 0 0 0 -.774 -.022c-.126 .051 -.176 .153 -.18 .273c-.002 .114 .05 .196 .17 .25c.217 .097 .448 .101 .674 .135c.43 .06 .863 .113 1.268 .266c.428 .162 .735 .454 .822 .931c.105 .571 -.091 1.025 -.547 1.37c-.283 .215 -.618 .308 -.962 .366a5.22 5.22 0 0 1 -1.297 .035c-.304 -.024 -.618 -.053 -.908 -.188a1.572 1.572 0 0 1 -.77 -.703a3.46 3.46 0 0 1 -.142 -.309c-.03 -.068 -.021 -.117 .072 -.122c.095 -.004 .192 -.022 .288 -.033c.029 .017 .055 .015 .082 -.006c.263 -.025 .524 -.052 .786 -.076c.03 .016 .056 .014 .083 -.007c.083 -.008 .166 -.008 .246 -.025c.087 -.016 .129 .02 .154 .094a.706 .706 0 0 0 .3 .368c.122 .08 .26 .076 .393 .083c.198 .01 .395 -.009 .564 -.135c.1 -.074 .168 -.17 .153 -.298c-.014 -.136 -.107 -.2 -.23 -.254c-.225 -.102 -.467 -.12 -.705 -.164c-.21 -.039 -.426 -.066 -.63 -.126c-.226 -.068 -.462 -.097 -.677 -.209c-.317 -.163 -.565 -.41 -.654 -.74c-.105 -.394 -.083 -.795 .211 -1.134c.238 -.273 .532 -.435 .88 -.515c.527 -.122 1.063 -.11 1.597 -.077c.26 .017 .515 .08 .759 .182c.426 .178 .664 .526 .846 .948c-.226 .093 -.461 .05 -.68 .103c-.032 -.014 -.059 -.012 -.086 .008zm-18.868 7.128c-.231 .033 -.453 .066 -.676 .095c-.252 .033 -.507 .062 -.757 .1c-.091 .012 -.137 -.017 -.176 -.098c-.211 -.43 -.733 -.557 -1.121 -.373a.89 .89 0 0 0 -.518 .667a2.086 2.086 0 0 0 -.016 .8c.072 .42 .356 .695 .767 .751c.418 .058 .753 -.126 .94 -.515c.082 -.172 .08 -.17 .258 -.147c.41 .05 .822 .097 1.231 .147c.16 .019 .178 .044 .128 .193a2.045 2.045 0 0 1 -.73 1.028c-.376 .283 -.81 .397 -1.268 .432a4.608 4.608 0 0 1 -1.237 -.043c-.66 -.126 -1.198 -.457 -1.552 -1.06a1.767 1.767 0 0 1 -.23 -.767a5.33 5.33 0 0 1 .013 -.908c.043 -.482 .281 -.873 .604 -1.192c.308 -.304 .703 -.5 1.146 -.567c.584 -.087 1.167 -.093 1.746 .037a1.875 1.875 0 0 1 1.291 .969c.079 .136 .13 .279 .157 .45z"/></svg>