<svg xmlns="http://www.w3.org/2000/svg" width="48" height="48" viewBox="0 0 48 48" fill="currentColor"><path d="M23.756 47c3.037-.005 5.59-.493 8.404-1.595l.062-.025c.924-.372 2.704-1.277 3.543-1.803 2.351-1.477 4.585-3.529 6.205-5.707 3.093-4.144 4.575-8.881 4.443-14.198-.147-5.778-1.95-10.592-5.524-14.75-1.727-2.011-3.474-3.438-5.926-4.85l-.376-.213.193-.214c.086-.094.207-.225.295-.324l.203-.214h-1.93l-.528-.233c-1.999-.884-4.42-1.51-6.785-1.76l-.08-.007c-.92-.097-2.702-.138-3.595-.082-1.882.11-3.74.44-5.485.973l-.163.05c-.744.23-1.776.62-2.323.877l-.145.069c-.22.1-.309.112-.859.113h-.291c-.442.002-.788.016-.788.03s.09.138.206.289l.177.23c.074.098.124.167.124.177 0 .02-.167.127-.365.244l-.14.08c-2.156 1.252-3.832 2.59-5.304 4.226-1.518 1.686-2.508 3.103-3.463 4.956-1.93 3.742-2.843 8.571-2.452 13 .396 4.518 2.036 8.606 4.88 12.145a22.75 22.75 0 0 0 12.785 7.977c1.666.376 3.215.544 5.002.539M25.44 3.1h-2.255l-2.938-.002h-.39l-3.768-.016.594-.193c1.564-.503 3.62-.92 5.215-1.051l.05-.004c.86-.06 3.382-.015 4.119.075 1.457.183 3.366.6 4.62 1l.533.173-3.907.015c-.555.002-1.195.003-1.873.003m-2.044 43.143-.197-.012-.401-.022-.195-.01-.167-.007c-1.412-.056-3.321-.375-4.83-.817-5.742-1.66-10.55-5.616-13.364-10.989-1.127-2.153-1.94-4.757-2.244-7.185-.503-4.062-.04-7.926 1.396-11.577 1.523-3.88 4.405-7.493 7.813-9.797l.171-.115c.197-.13.432-.28.67-.426l.136-.083c.544-.33 1.064-.623 1.122-.623.03 0 .127.157.213.355l.014.029c.087.18.17.327.19.327.028 0 .18-.048.33-.101l.087-.03c.134-.049.248-.094.248-.103v-.002a14 14 0 0 0-.28-.577l-.279-.558h11.13c4.82.002 8.572.017 8.572.035 0 .008-.037.085-.095.202l-.025.05c-.05.1-.113.223-.18.352l-.304.57.29.1.045.018c.142.053.277.095.31.105.04.01.152-.148.269-.381l.054-.099c.094-.167.173-.292.194-.292.047 0 .661.367 1.27.749l.127.08c.284.18.557.357.761.496 4.906 3.341 8.293 8.846 9.16 14.903.96 6.693-.862 13.066-5.123 17.91l-.058.065c-.633.71-1.685 1.747-2.324 2.281l-.03.025c-3.265 2.732-7.17 4.448-11.298 4.976l-.08.01c-.902.103-2.65.203-3.098.168m.472-38.474.132.32.343-.012c.142-.005.251-.014.251-.019l-.003-.01c-.02-.052-.135-.321-.287-.678l-.818-1.907a23 23 0 0 0-.177-.406 1.4 1.4 0 0 0-.213-.04l-.203-.031-.62 1.549-.62 1.554.61-.03.224-.56.624-.025.62-.025zm2.544.325.015-.254.02-.254-.441-.036-.447-.035.005-.467.003-.16c.007-.283.02-.712.037-1.054l.03-.746h-.563l-.06 1.452-.01.22c-.02.474-.03.88-.032 1.097v.089q.002.076.006.082c.02.015.35.035.736.045zm-6.852.164.24-.032-.06-.57c-.087-.812-.03-.827.523-.106l.175.22c.124.154.223.274.251.298.046.036.188.046.417.03l.34-.03-.239-.259-.092-.1-.04-.043-.066-.074c-.289-.322-.54-.63-.523-.646.01-.01.097-.056.183-.102.492-.248.497-1.213.01-1.558-.193-.137-.68-.168-1.376-.087l-.039.005q-.396.051-.408.11v.002c0 .036.081.66.178 1.391l.054.413c.07.546.123.982.123 1.04v.02c.003.115.037.12.35.078m9.848.125c.38-.086.624-.376.66-.782.025-.31-.051-.548-.208-.66l-.017-.012c-.079-.055-.064-.069.098-.211.213-.188.315-.508.239-.767-.106-.376-.444-.56-1.142-.632l-.044-.005-.05-.006a6 6 0 0 1-.349-.048c-.05-.015-.091-.01-.091.005v.007c-.007.077-.11.687-.216 1.303l-.063.358-.107.587-.026.151c-.052.307-.084.547-.07.56.035.033.337.081.653.116l.066.007.044.004c.278.028.544.043.623.025m-11.471.081.032-.004c.168-.025.227-.055.227-.112V8.34c-.007-.084-.1-.615-.208-1.216l-.046-.247c-.127-.686-.147-.899-.102-.926.036-.02.199-.056.361-.071l.084-.01c.211-.028.212-.045.185-.163l-.03-.153-.02-.1-.006-.031c-.022-.106-.077-.092-1.081.081l-.232.04a9 9 0 0 0-.672.128c-.01.01 0 .121.015.248l.036.234.213-.036a4 4 0 0 1 .36-.04h.148l.218 1.188.036.201c.103.562.194.999.203 1.013.015.01.142.005.279-.016m1.655-1.818c-.005-.005-.03-.218-.06-.467l-.005-.04c-.03-.292-.025-.428.01-.452.03-.02.187-.04.35-.04h.036c.215.001.284.025.38.126.097.091.127.178.127.345 0 .3-.142.427-.533.493l-.138.02a.6.6 0 0 1-.167.015m9.562-.035h-.036c-.246-.004-.266-.056-.203-.386l.021-.11a8 8 0 0 1 .055-.26c.036-.112.381-.031.518.121.153.178.142.31-.035.488-.107.101-.198.147-.32.147M14.88 9.175l-.005-.013a14 14 0 0 1-.229-.74l-.083-.29c-.116-.412-.216-.788-.206-.795.013-.013.42.33.863.72l.167.149.084.074.118.106q.19.17.352.322l.036.032c.112.1.142.11.322.07l.09-.02c.157-.036.284-.082.284-.102v-.003c-.007-.06-.161-.705-.32-1.354l-.148-.602a26 26 0 0 0-.198-.768l-.01-.033c-.048-.14-.077-.14-.375-.064l-.026.006c-.11.026-.193.067-.193.091v.004l.009.038.013.055.033.124c.047.179.12.447.199.739l.07.25c.107.386.184.68.184.69v.001c-.007.033-.187-.11-1.04-.842l-.849-.729-.274.06-.045.012c-.176.043-.225.073-.21.132l.03.108c.074.25.238.79.401 1.325l.35 1.14c.055.176.09.289.093.295.03.05.533-.127.513-.188m8.227-2.158h-.12c-.298-.002-.325-.018-.297-.091l.007-.017c.03-.074.119-.306.211-.542l.066-.172c.14-.363.15-.295.396.335l.043.107c.066.169.115.308.115.33 0 .03-.18.05-.42.05m9.845 2.32c.002-.028-.048-.415-.112-.873l-.054-.423-.12-.922-.034-.264-.086-.742-.236-.07a1.4 1.4 0 0 0-.165-.041c-.016 0-.3.36-.635.797l-.139.185-.168.223-.249.329c-.166.22-.317.416-.414.542l-.087.116c-.303.404-.278.417.07.467l.24.032.173-.254.043-.06c.078-.11.142-.194.155-.194h.004l.02.005.037.009.533.143.574.158.03.335.036.34.29.087c.157.045.289.08.294.076m2.407.986.05-.117.033-.078c.082-.193.296-.69.531-1.232l.378-.892c.092-.22.153-.366.16-.388.02-.07-.025-.116-.192-.188l-.025-.01c-.112-.05-.215-.075-.23-.056l-.007.011-.004.008-.01.021-.02.04c-.068.14-.204.446-.35.794l-.041.097c-.18.412-.33.702-.344.664l-.254-1.094-.061-.272a13 13 0 0 0-.213-.863c-.025-.039-.119-.096-.22-.132l-.067-.023c-.12-.04-.138-.034-.182.07l-.103.25-.246.599c-.387.95-.714 1.771-.726 1.81-.01.04.075.103.205.158l.247.102.066-.137.056-.133.269-.652.34-.83.007-.02c.024-.065.05-.106.064-.097l.002.003c.014.048.126.578.238 1.123l.115.565c.073.36.128.643.128.665 0 .015.091.071.203.127zm-22.992-.158c.027 0 .299-.109.598-.235l.097-.04.217-.093c.267-.115.494-.217.514-.236.036-.035-.045-.35-.116-.426-.02-.02-.21.037-.432.13l-.13.055c-.183.075-.34.136-.378.145-.054.01-.118-.082-.216-.309l-.007-.016c-.08-.188-.13-.348-.113-.365h.001a1 1 0 0 1 .09-.044l.03-.013.072-.03.22-.087.071-.028c.205-.08.382-.161.4-.185.024-.019.004-.117-.04-.22l-.101-.232-.432.178-.065.026c-.213.083-.4.141-.433.136-.086-.02-.335-.599-.279-.655.02-.02.254-.121.513-.223l.047-.02c.233-.1.42-.196.415-.229 0-.03-.04-.142-.086-.244l-.012-.024c-.06-.122-.098-.151-.15-.118l-.015.007c-.079.038-.387.166-.722.298l-.13.053a6 6 0 0 0-.57.252c-.02.02.157.51.402 1.1l.261.633c.15.362.271.662.311.765l.012.028c.063.15.132.266.156.266m19.618-2.23-.047-.012c-.197-.05-.425-.118-.453-.144-.02-.02.096-.22.268-.453l.032-.042c.169-.225.315-.388.33-.373.014.015.055.258.085.538l.01.119c.02.225.03.4.021.409-.01.01-.116-.01-.246-.042m-3.283-.497.066-.41.188.025c.101.015.233.05.294.07.372.136.311.714-.073.761l-.013.001c-.472.045-.53-.007-.462-.447m-17.194 3.144.038-.036c.212-.205.22-.278.095-.538l-.018-.04c-.056-.118-.111-.209-.13-.209s-.052.046-.081.107l-.005.01c-.163.355-.528.604-.904.604-.772 0-1.264-1.04-.807-1.7.183-.265.513-.438.873-.453h.027c.13-.007.237-.021.237-.035v-.004a2 2 0 0 0-.06-.21l-.057-.198-.31.005c-.172 0-.41.041-.538.082-.314.111-.761.573-.878.904-.3.863.218 1.899 1.051 2.112.467.117 1.102-.056 1.467-.401m26.339.97v-.007c-.006-.099-.11-.7-.203-1.17l-.023-.116-.013-.066-.02-.094-.011-.05c-.054-.252-.084-.458-.07-.473.009-.013.3-.123.665-.255l.405-.146c.3-.11.521-.194.53-.198.01-.01-.102-.086-.244-.167l-.26-.153-.72.274c-.391.148-.727.27-.737.27a.4.4 0 0 1 .045-.103l.032-.063a20 20 0 0 1 .192-.363l.28-.528-.229-.127-.223-.126-.153.258-.035.068-.146.271-.253.464-.094.172-.234.44c-.138.256-.264.492-.33.612l-.187.34.203.101.024.013c.103.055.2.094.22.094s.166-.226.322-.502l.018-.031c.167-.295.32-.518.345-.493s.109.374.194.782l.024.113c.062.295.122.547.151.648l.004.013.004.013.01.02c.096.087.517.305.517.265M23.731 35.869l.567-.003c1.32-.01 1.451-.025 1.422-.091l-.004-.007c-.071-.137-.252-.689-.418-1.256l-.032-.112-.032-.112-.033-.116a15 15 0 0 1-.17-.664c-.417-1.787-.655-3.844-.813-6.941l-.03-.534.513-.33c1.04-.67 2.026-1.523 2.655-2.305.935-1.158 1.458-2.265 1.752-3.712l.132-.66.33-.117c.711-.255 1.338-.239 2.217.059l.115.039c.779.263 1.21.35 1.766.35.876 0 1.52-.193 2.418-.724l.1-.059c.686-.406.96-.498 1.509-.528l.05-.001a4 4 0 0 1 .716.037c.34.07.843.304 1.178.543l.035.025c.16.114.203.128.184.061a3 3 0 0 1-.056-.243l-.013-.061c-.08-.35-.135-.427-.332-.528a3.44 3.44 0 0 0-1.927-.36l-.033.004c-.559.071-.9.203-1.524.584-1.38.833-2.371.945-3.798.437l-.108-.04c-.728-.257-1.109-.327-1.633-.302l-.026.002a3.7 3.7 0 0 0-.805.12l-.337.108v-1.701l.192-.056a4.3 4.3 0 0 1 1.33-.142l.06.005c.328.033.73.108 1.496.288l.07.017c.396.096 1.229.106 1.675.025l.04-.008c.417-.082.864-.267 1.581-.655l.07-.038c.856-.464 1.258-.583 2.015-.56l.651.022-.233-.3-.24-.304-.456.035c-.64.046-1.127.193-1.752.528l-.188.101c-1.132.604-1.398.689-2.168.692h-.132c-.506 0-.726-.025-1.157-.13l-.094-.023c-.61-.149-1.377-.242-1.745-.213l-.053.002c-.116.003-.2.001-.2-.012 0-.04 1.495-.689 3.007-1.315l.115-.047.115-.048c.324-.134.647-.265.951-.388l1.326-.53c.378-.152.641-.259.695-.282l.188-.081-.178-.163-.182-.157-.29.127-.825.366c-.772.343-1.308.584-1.8.809l-.194.088-1.57.724-.494.227-.16.073-.377.173c-.332.154-.617.288-.719.338l-.028.014c-.137.07-.263.123-.292.123-.03 0-.05-.196-.05-.514v-.558l.54-.342c.31-.197.895-.582 1.528-1.002l.426-.282.775-.517 1.011-.68.696-.482-.122-.097-.018-.014a.5.5 0 0 0-.145-.082c-.01 0-.06.029-.131.076l-.02.014a7 7 0 0 0-.245.174l-.202.147c-.293.212-.626.451-.968.695l-.266.19-.345.244c-.685.486-1.333.94-1.697 1.186l-.792.528-.03-1.35 1.183-1.123c1.276-1.213 1.744-1.665 1.756-1.69.005-.02-.036-.057-.096-.087l-.03-.014c-.092-.046-.105-.052-1.074.892l-1.054 1.03c-.364.353-.638.61-.65.61-.015 0-.03-.138-.03-.314v-.34l-1.046-.03.883-1.24.186-.263q.228-.324.37-.534l.02-.03c.2-.302.265-.429.238-.451l-.038-.026c-.13-.086-.17-.013-1.324 1.65l-.635.914-.696.005h-.695l.132-.32.5-1.134.155-.349.151-.347c.315-.726.34-.824.272-.863l-.007-.003c-.056-.03-.112-.03-.142 0l-.016.027-.014.026-.02.042c-.104.218-.352.779-.625 1.423l-.635 1.472-.594.016-.17.002-.098.001h-.043c-.253 0-.272-.018-.253-.08l.004-.013c.068-.272.59-3.008.575-3.023a.4.4 0 0 0-.112-.036h-.005c-.087-.01-.116.107-.31 1.102l-.063.324-.115.59c-.056.294-.103.542-.126.67l-.087.473h-1.05l-.001-2.222c-.002-1.03-.013-1.077-.096-1.079h-.01c-.089.002-.096.056-.097 1.293v2.008h-1.04l-.22-1.158-.236-1.275-.058-.324-.014-.073c-.072-.356-.116-.41-.245-.329-.05.036.016.437.513 3.017l.03.142h-1.203l-.624-1.549-.15-.364c-.372-.903-.507-1.185-.566-1.185-.051 0-.102.02-.122.046-.015.03.238.684.564 1.475l.324.786c.182.444.305.75.305.76 0 .015-.304.03-.676.03h-.72l-.879-1.34-.28-.424c-.55-.831-.626-.911-.71-.876-.058.02-.102.062-.097.092v.005c.005.033.324.523.726 1.128l.425.64c.285.43.485.74.485.75 0 .015-.21.025-.466.026h-.5v.33c0 .183-.014.33-.035.33-.02 0-.634-.594-1.366-1.32l-.459-.459c-.845-.843-.884-.858-.998-.806l-.02.01c-.066.033-.117.068-.112.082.003.02.684.678 1.366 1.327l.466.441c.358.338.667.626.814.755l.335.3.005.696v.17c0 .304-.013.53-.026.53-.076 0-2.742-1.863-4.305-3.006l-.111-.08a3 3 0 0 0-.321-.214.6.6 0 0 0-.152.096l-.122.092.73.507c.38.262 1.011.689 1.691 1.142l.33.219.372.247.45.297c.294.193.574.376.824.538l.645.416v.569c0 .278-.01.498-.025.498l-.023-.01-.154-.069c-.29-.131-.908-.415-1.61-.739l-.382-.176-.471-.216-.55-.251c-.61-.278-1.19-.538-1.558-.697l-1.206-.534-.384-.172-.4-.183-.173.142-.02.016a.6.6 0 0 0-.153.152c0 .025.807.35 3.25 1.315l.086.034c.962.388 3.011 1.292 3.011 1.332 0 .015-.224.034-.505.04l-.06.001c-.35.008-.724.056-1.317.177l-.135.028c-.758.154-.916.17-1.39.15h-.02c-.719-.035-1.03-.135-2.095-.674l-.164-.083c-.838-.422-1.191-.53-1.839-.579l-.421-.03-.234.3-.234.294.564-.015.068-.002c.72-.019 1.002.07 2.12.626l.094.047c1.516.753 2.154.819 3.78.44l.052-.012a9 9 0 0 1 1.015-.18c.386-.026.995.035 1.32.142l.163.056v1.676l-.137-.036-.067-.017c-1.013-.25-1.492-.22-2.654.169l-.077.026c-.744.25-1.163.322-1.727.29h-.03a3.7 3.7 0 0 1-1.655-.509l-.536-.313-.2-.118c-.468-.274-.89-.381-1.524-.386-.584 0-.924.07-1.422.3l-.36.162-.092.325-.097.333-.024.083c-.016.071.05.036.248-.111a4 4 0 0 1 .655-.371l.04-.016c.297-.123.441-.147.885-.167l.074-.003c.65-.02.972.087 1.794.557l.07.04c1.069.61 1.567.746 2.566.7l.123-.004c.442-.018.597-.047 1.131-.216l.255-.082c1.173-.374 1.7-.397 2.456-.129l.33.117.132.665c.281 1.38.775 2.476 1.614 3.56l.032.04c.632.814 1.87 1.9 2.825 2.493l.404.25-.025.883-.005.143c-.086 2.292-.342 4.703-.666 6.217l-.02.094c-.152.71-.543 1.914-.792 2.463-.011.025.345.038 1.05.039h.226q.327 0 .735-.004m.177-10.628-.06-1.914-.061-2.006c-.005-.045-.026-.086-.051-.086-.035 0-.063.47-.108 2.051l-.032 1.151a20 20 0 0 1-.033.794c-.035.035-.23-.188-.238-.264v-.01a5 5 0 0 0-.053-.29l-.027-.133a48 48 0 0 0-.133-.633l-.077-.35-.092-.41-.028-.124c-.408-1.785-.552-2.076-.378-.73l.02.138c.034.235.088.581.145.944l.078.487c.07.43.135.821.169 1.005l.03.147-.172-.132a.94.94 0 0 1-.26-.376l-.04-.107a69 69 0 0 1-.92-2.723l-.065-.206-.065-.206-.085-.273a82 82 0 0 1-.5-1.654l-.084-.298c-.13-.447-.24-.793-.261-.814l-.008-.008c-.084-.087-.087.047-.018.53.142.95.742 3.119 1.34 4.88l.06.172c.111.326.188.576.18.58-.01.01-.12-.076-.248-.193l-.012-.01c-.392-.357-.943-1.605-1.678-3.788l-.134-.397c-.351-1.042-.472-1.328-.417-1.01l.004.028c.014.104.05.328.073.53.11.818.592 2.409 1.005 3.338l.04.091c.068.154.111.28.102.289-.025.029-.285-.289-.54-.657l-.033-.048-.043-.064-.021-.032-.074-.113a8 8 0 0 1-1.09-2.62l-.028-.132c-.1-.458-.106-.672-.12-3.406l-.016-3.12h9.76l-.02 3.083-.008 1.158c-.011 1.588-.028 1.94-.087 2.261l-.007.039-.013.06-.013.062a7.6 7.6 0 0 1-1.052 2.54l-.051.078-.034.051-.023.034-.034.05-.022.034c-.281.409-.567.763-.6.743l-.002-.001c-.013-.01.048-.166.132-.354l.026-.057a14.4 14.4 0 0 0 .931-3.007l.026-.149c.134-.797.1-.834-.207.036l-.067.19-.15.436-.066.196c-.71 2.085-1.277 3.313-1.67 3.643l-.219.183.315-.945.058-.175c.427-1.302.799-2.597 1.003-3.5l.022-.102c.172-.8.257-1.51.164-1.435l-.003.003c-.03.025-.224.645-.437 1.37l-.092.32c-.554 1.899-.98 3.224-1.383 4.316l-.053.143c-.089.24-.177.387-.275.465l-.01.007c-.083.064-.156.104-.166.098l-.001-.001c-.01-.005.056-.43.148-.973l.05-.293c.21-1.265.328-2.177.274-2.177-.025 0-.066.086-.091.188l-.024.088c-.075.287-.187.754-.299 1.24l-.064.28c-.074.33-.145.652-.202.92l-.035.164c-.12.563-.175.717-.257.783zm-1.584-4.58.315.315.671-1.47c.2-.433.355-.76.375-.78.023-.023.235.366.502.91l.24.491c.228.463.403.803.416.803.02 0 .177-.142.35-.32l.315-.314-1.422-2.458.37-.782.037-.074c.4-.822.759-1.41 1.043-1.69l.013-.013c.313-.304.436-.178.518.553l.005.046c.055.533.253 1.005.518 1.224.249.209.82.462 1.149.505l.308.038v-.401c0-.224-.026-.62-.05-.884-.062-.563-.245-1-.534-1.259-.142-.132-.178-.203-.178-.355a1.2 1.2 0 0 0-.096-.397c-.16-.35-.404-.453-.702-.306l-.036.018c-.11.055-.152.05-.318-.021-.254-.107-.757-.107-.96 0-.168.089-.379.311-.488.52l-.01.018c-.033.066-.207.52-.395 1.033l-.156.428c-.157.426-.288.772-.317.83l-.007.012c-.052.09-.093.035-.413-.622l-.196-.406c-.212-.442-.374-.796-.374-.818 0-.02.165-.151.367-.29l.081-.056c.177-.124.313-.23.313-.248 0-.029-.378-.2-.759-.355l-.076-.032a6 6 0 0 0-.637-.228l-.069-.015c-.252-.055-.318-.048-.388.036-.03.04-.071.208-.086.37l-.026.295-.34.107-.416.138-.19.064-.15.05-.216.074-.054.019-.695.233.09.361c.138.518.32.853.681 1.244l.325.345.198-.228.048-.056.082-.094.032-.038.083-.094.11-.122c.436-.485.86-.913.9-.901.03.01.132.132.223.269l.015.023c.098.156.317.564.526.97l.028.054c.066.127.13.253.188.369l.083.166c.11.225.186.39.186.414v.002c-.013.051-.286.563-.623 1.165l-.117.21c-.3.541-.53.983-.53 1.02 0 .04.142.213.32.385m14.563 16.706.386.376.538-.58a34 34 0 0 0 1.33-1.548 2.4 2.4 0 0 1 .336.036l.03.005c.925.146 1.77-.276 2.438-1.21l.04-.057c.128-.183.229-.354.229-.383 0-.11-.42-.191-.869-.169l-.07.004c-.328.02-.443.05-.764.209l-.109.054c-.183.09-.32.154-.32.145 0-.004.063-.113.149-.248l.05-.078c.098-.156.302-.513.5-.866l.087-.158.422-.772.396-.03c.67-.056 1.163-.31 1.645-.844.239-.269.71-1.101.71-1.259 0-.091-.44-.137-.76-.076-.382.071-.737.249-1.087.538l-.036.028c-.17.131-.252.177-.228.12.249-.592.578-1.58.766-2.305l.02-.082c.046-.178.087-.218.285-.295a3.18 3.18 0 0 0 1.925-2.51l.012-.09c.025-.207.018-.234-.05-.216l-.036.01a3 3 0 0 1-.252.054c-.384.08-.93.44-1.21.8l-.039.051c-.08.105-.148.18-.157.17s.025-.263.082-.587l.025-.134c.174-.974.221-1.344.28-2.22l.017-.24c.028-.398.047-.548.104-.681l.007-.015.006-.014c.024-.051.055-.102.093-.166a3.2 3.2 0 0 0-.167-3.499l-.147-.198-.178.295c-.543.894-.648 2.123-.251 2.935l.012.025c.056.107.102.355.122.635l.03.457-.152-.29c-.36-.685-.99-1.152-1.787-1.33l-.142-.03v.416c.005 1.186.587 2.134 1.618 2.64l.032.015c.183.087.28.163.28.219l-.001.017c-.007.135-.084.618-.177 1.146l-.03.168-.025.135-.024.132c-.076.412-.153.801-.206 1.027l-.044.182c-.138.557-.197.698-.204.488v-.015c0-.239-.184-.894-.32-1.173a2.7 2.7 0 0 0-.778-.883l-.026-.018c-.139-.092-.203-.112-.217-.069-.099.3-.15.68-.148 1.091v.042c.005.682.155 1.133.645 1.929l.106.172c.188.305.331.557.331.585 0 .157-1.107 2.67-1.178 2.67-.01 0-.015-.233-.02-.522-.005-.64-.163-1.163-.488-1.646l-.07-.1c-.09-.125-.161-.22-.174-.22-.028 0-.137.21-.235.432l-.015.033-.02.048c-.048.111-.09.22-.115.3-.112.345-.143 1-.077 1.396.036.193.158.6.27.904l.045.122c.139.375.147.445.097.567l-.005.012c-.085.207-.427.753-.786 1.261l-.033.047-.033.047-.149.204-.39.523-.036-.366a2.3 2.3 0 0 0-.155-.613l-.008-.016c-.134-.294-.424-.64-.632-.755l-.047-.025c-.1-.051-.111-.03-.194.186-.071.177-.097.365-.097.746l.001.055c.009.49.072.699.358 1.154l.185.289-.127.193-.018.023c-.078.1-.252.307-.43.504l-.03.033-.03.032zm-26.912-.269.223-.223-.259-.264c-.583-.61-1.376-1.615-1.975-2.514l-.34-.518.127-.32c.294-.741.386-1.797.213-2.452a4 4 0 0 0-.11-.33l-.014-.034-.042-.106-.014-.035-.026-.062c-.096-.229-.193-.424-.22-.424-.015 0-.096.099-.182.225l-.016.024c-.36.528-.549 1.244-.508 1.92l.003.043c.011.185.006.31-.013.292a.3.3 0 0 1-.025-.043l-.018-.036a56 56 0 0 1-.704-1.638l-.274-.655.117-.157c.452-.604.61-.955.736-1.625.092-.472.066-1.391-.046-1.747l-.066-.223-.289.264a3 3 0 0 0-.428.488l-.009.015c-.198.304-.416.96-.431 1.28l-.001.026c-.007.13-.026.227-.04.227-.019 0-.128-.403-.233-.826l-.037-.154a17 17 0 0 1-.131-.578l-.007-.032-.024-.136-.004-.037c-.017-.17.003-.227.293-.618l.118-.158c.492-.66.685-.995.843-1.472.121-.37.182-1.036.132-1.392l-.036-.233-.3.157c-.6.321-1.059.948-1.256 1.721l-.03.116c-.045.176-.08.287-.08.265l-.006-.044-.044-.386-.009-.085c-.016-.161-.04-.422-.063-.686l-.02-.238-.015-.19-.05-.722.182-.39c.295-.64.396-1.118.36-1.778-.03-.604-.142-1.056-.395-1.564l-.054-.102c-.057-.108-.101-.186-.109-.182-.005 0-.071.076-.152.173a3.8 3.8 0 0 0-.62 1.152 2.9 2.9 0 0 0-.005 1.843c.076.224.193.488.26.59l.007.012c.095.148.12.294.17.901l.007.092.03.346.015.156c.024.251.05.491.07.645l.008.06c.03.218.047.399.048.45v.013c-.005.01-.077-.09-.148-.218-.33-.558-1.01-1.117-1.487-1.219l-.168-.035v.249c0 .508.249 1.132.635 1.61.254.31.579.563 1.076.832l.34.188.143.635.015.067c.078.349.203.835.28 1.121l.019.07c.075.272.127.49.117.499-.005.01-.106-.107-.223-.26a2.9 2.9 0 0 0-.945-.781c-.238-.117-.827-.25-.873-.198-.014.014.003.17.044.35l.007.03c.208.925 1.015 1.702 2.051 1.991l.061.017c.18.05.32.095.325.1l.01.022c.027.064.109.255.193.475l.037.09c.06.145.142.338.23.537l.062.14.043.098.146.324.277.625q.042.096.043.106c0 .01-.122-.086-.264-.219-.528-.457-1.26-.73-1.798-.66l-.028.003c-.139.016-.246.044-.246.053 0 .015.061.142.132.29.493.975 1.29 1.477 2.61 1.635l.027.003c.18.025.222.056.324.24l.034.061c.41.709 1.156 1.718 1.946 2.64l.142.166c.198.23.347.406.356.419.009.009.098-.062.202-.163zm20.088-1.102c.02-.021.465-1.144.918-2.315l.163-.423.112-.293.034-.09c.584-1.557 2.393-6.88 2.393-7.055v-.03c.004-.132.073-.052 1.27 1.532l.609.805c.725.956.71.88.823.374.106-.472.07-1.325-.077-1.889-.116-.452-.436-1.168-.65-1.477l-.02-.028c-.1-.143-.093-.165.035-.119l.032.012c.098.034.81.257 1.543.485l1.183.365.421.128.27.076-.03-.112c-.143-.482-.595-1.208-1.006-1.625-.52-.515-1.347-.942-2.008-1.027l-.138-.017c-.217-.028-.184-.06.52-.446l.605-.331c1.125-.617 1.662-.96 1.605-1.017-.087-.087-.793-.356-1.128-.427-.431-.091-1.173-.091-1.538.005-.518.132-1.143.503-1.67.985l-.285.26-.142-.295c-.188-.386-.762-.965-1.168-1.168a4 4 0 0 0-.61-.234c-.325-.08-1-.142-1.162-.101l-.06.015c-.178.048-.17.064-.078.193l.023.033c.102.15.315.493.53.847l.22.368c.22.368.397.673.39.682-.013.009-.109-.003-.227-.027l-.042-.009c-.315-.071-1.147-.071-1.452-.005a3.26 3.26 0 0 0-1.524.838l-.025.025c-.08.078-.202.228-.323.39l-.04.053-.046.064c-.17.234-.317.462-.317.509 0 .01.04.014.106.015h.055q.082-.003.188-.011l.116-.01c.284-.024.778-.053 1.264-.078l.325-.016c.411-.02.78-.034.96-.036h.08q.03 0 .034.004c.015.014-.08.101-.211.199l-.012.009a3.5 3.5 0 0 0-1.305 1.884c-.04.151-.077.484-.1.82l-.006.108c-.025.425-.027.824.014.824.054 0 .683-.533 1.322-1.106l.138-.125.12-.108c.224-.204.44-.405.623-.58l.066-.064c.158-.151.291-.26.306-.247.03.03-.816 2.559-1.158 3.457l-.01.027c-1.056 2.742-2.047 4.534-3.265 5.89l-.462.513.355.034c.199.017.607.04 1.038.062l.195.01.417.018c.354.015.658.025.796.026h.024a.2.2 0 0 0 .054-.003m-13.258-1.67.655 1.69.423-.032c.194-.014.563-.037.96-.06l.216-.01.163-.01 1.102-.06-.265-.3c-1.317-1.478-2.29-3.15-3.305-5.676l-.03-.077c-.336-.843-1.22-3.382-1.295-3.722l-.003-.013c-.019-.127.095-.041.916.7l.626.567c.478.431.864.775.936.826l.14.098v-.65c0-1.38-.422-2.274-1.402-2.995l-.024-.018c-.17-.125-.28-.232-.25-.241a.2.2 0 0 1 .044-.003h.03c.193 0 .732.024 1.306.054l.185.01a68 68 0 0 1 1.09.066q.139.01.237.01h.052c.098-.003.153-.013.153-.03 0-.08-.17-.35-.368-.61l-.026-.034a4 4 0 0 0-.287-.333l-.02-.019c-.355-.36-.72-.6-1.157-.757-.391-.142-1.386-.182-1.782-.076-.148.04-.27.051-.27.026 0-.023.227-.409.484-.833l.15-.245c.26-.425.513-.83.568-.895l.014-.017c.049-.059.044-.074-.022-.102-.153-.056-1.061-.026-1.366.05-.711.173-1.468.772-1.782 1.412l-.138.284-.39-.335c-.493-.421-.813-.635-1.224-.807l-.031-.014c-.255-.11-.409-.134-.858-.149l-.063-.002a2.7 2.7 0 0 0-.998.109c-.274.071-.64.193-.813.274l-.31.147.337.213c.15.093.554.325 1.024.59l.334.189.409.228.577.32.184.1c.04.02-.082.072-.33.122a5 5 0 0 0-.925.34c-.868.422-1.447 1.072-1.812 2.047l-.027.072a2 2 0 0 0-.09.288c.01.01.721-.2 1.605-.473l.545-.168c.728-.223 1.274-.383 1.282-.374.01.01-.07.173-.188.366-.482.817-.685 1.574-.655 2.427l.002.037c.03.524.163 1.125.247 1.095l.002-.001c.039-.036.53-.668 1.125-1.46l.155-.206c.625-.828 1.151-1.497 1.176-1.507.03-.01.112.183.183.432l.03.095c.14.433.554 1.66.982 2.913l.222.646c.21.611.414 1.196.578 1.662l.07.193c.144.401.355.97.573 1.542l.11.288c.104.273.207.541.304.786m-5.286 5.935c.029-.01.345-.45.718-.997l.135-.197c.351-.513.641-.929.668-.962l.002-.002c.01-.015.162.087.335.219l.053.041c.202.157.27.183.303.131l.03-.05.013-.02.021-.03.063-.089.04-.054.127-.173-.112-.086a75 75 0 0 0-.787-.565l-.556-.395-.24-.168c-.031-.015-.133.061-.23.173l-.172.208.173.132c.096.071.228.178.3.239l.121.107-.58.84-.416.605c-.139.204-.252.37-.304.449l-.183.279.214.188c.116.106.238.183.264.177m11.658-.528c1.148-.528 1.204-2.148.092-2.701l-.043-.021c-.234-.114-.345-.136-.633-.136h-.04c-.19.009-.414.037-.513.07-.645.234-1.006.747-1.016 1.453-.005.574.29 1.046.818 1.305.38.188.975.203 1.335.03m2.026.087v-1.27h.914v-.508h-.914v-.609h1.067v-.508h-1.61l-.03.645-.004.058a34 34 0 0 0-.032 1.355v.837zm-3.437-.965c-.165-.24-.163-.684 0-.974l.01-.016c.23-.402.789-.55 1.199-.323l.014.008c.3.167.4.329.425.7l.002.041c.025.401-.05.59-.305.787-.457.34-1.025.25-1.345-.223m13.066 2.111-.003-.012a3 3 0 0 1-.054-.357l-.03-.295.56-.372c.248-.163.462-.294.49-.303.03-.01.19.066.357.164l.324.191.228-.167.045-.036c.101-.081.179-.15.179-.162q-.002-.01-.061-.053l-.016-.01a5 5 0 0 0-.289-.186l-.232-.15c-.286-.184-.755-.49-1.232-.804l-.343-.226-.691-.46c-.03-.016-.127.03-.218.101-.092.076-.163.178-.163.234v.005c.006.102.151.855.302 1.61l.112.55c.12.583.222 1.059.236 1.074.06.06.514-.249.499-.336m-19.708 1.28.001-.001c.028-.042.349-.69.667-1.342l.314-.649c.168-.348.299-.622.328-.693l.076-.183-.223-.112-.065-.028a1.2 1.2 0 0 0-.21-.078c-.011 0-.05.051-.1.135l-.02.033-.023.039c-.05.086-.108.194-.166.31l-.042.085-.072.143a9 9 0 0 1-.16.31c-.015.018-.28-.116-.546-.262l-.065-.037-.118-.067c-.2-.115-.363-.218-.363-.238 0-.022.095-.232.219-.482l.074-.15c.245-.487.235-.457-.095-.632l-.183-.096-.259.467-.059.108c-.11.202-.261.489-.42.792l-.13.25-.189.365c-.26.506-.474.93-.466.937.005.005.132.066.274.143l.269.132.33-.66.098-.191c.14-.27.25-.47.258-.47.07 0 1.091.574 1.091.615v.004a5 5 0 0 1-.191.442l-.181.39a5 5 0 0 0-.186.428c0 .046.502.28.533.244m19.346-2.893-.027-.15a15 15 0 0 0-.084-.44c-.016-.06-.01-.111.005-.111.02 0 .238.137.487.304l.044.03c.233.156.413.297.413.316 0 .03-.604.457-.716.508-.02.01-.071-.199-.122-.457m-.975 2.411.285-.142-.706-1.345-.117-.22c-.34-.639-.623-1.132-.655-1.136-.035-.005-.162.04-.28.096-.121.061-.218.132-.218.158 0 .029.196.417.445.883l.033.061.104.195.12.226.166.318c.117.225.22.423.282.55l.063.128c.098.196.18.347.184.355.01.01.142-.045.294-.127m-15.781 1.397c.045-.061.162-.498.137-.518l-.01-.004c-.052-.02-.283-.095-.544-.174l-.034-.01c-.273-.084-.489-.174-.489-.203a2 2 0 0 1 .074-.316l.015-.05c.045-.147.094-.287.114-.31.026-.02.274.031.559.122l.163.05c.208.06.362.1.37.093l.006-.014c.013-.036.048-.131.085-.24l.077-.239-.701-.216c-.37-.116-.383-.146-.293-.459l.043-.15c.055-.184.098-.261.149-.252l.014.002c.05.012.235.066.443.13l.2.061c.221.067.401.117.419.117.015 0 .064-.11.107-.227l.01-.028.017-.047c.032-.094.054-.175.043-.185l-.001-.001c-.03-.014-.39-.126-.775-.243l-.482-.147a13 13 0 0 0-.473-.137c-.01 0-.03.05-.046.112l-.001.008a23 23 0 0 1-.23.772l-.298.968c-.202.659-.347 1.178-.329 1.197.02.016.384.14.766.266l.252.081c.34.11.636.2.643.19m12.968-.27.022-.008.2-.075.267-.098c.842-.31 1.09-.555 1.09-1.057 0-.366-.238-.68-.62-.818l-.038-.013c-.097-.035-.09-.052-.022-.22.091-.224.06-.473-.091-.721l-.015-.023c-.22-.34-.554-.367-1.331-.118l-.11.036c-.264.088-.464.173-.464.19 0 .014.037.13.096.307l.057.172c.185.547.494 1.435.686 1.962l.038.105c.122.33.167.404.235.38m-.081-1.903c-.03 0-.117-.173-.183-.381l-.029-.084c-.092-.273-.086-.306-.017-.348.148-.081.493-.06.584.036.112.132.153.345.087.472-.061.112-.335.305-.442.305m-4.123 2.04.06.849.273-.036a1 1 0 0 0 .215-.045.3.3 0 0 0 .006-.087v-.018c0-.164-.016-.503-.041-.886l-.018-.32c-.02-.385-.031-.666-.023-.67.01-.01.122.148.259.35l.022.034c.14.212.4.586.598.855l.05.07c.299.413.422.516.485.417l.003-.004c.015-.02.076-.508.142-1.092l.012-.108c.058-.527.121-.927.14-.908l.003.006c.017.034.084.197.176.426l.063.159.14.354.344.904.153-.036.035-.007c.25-.055.36-.118.335-.18l-.11-.277-.194-.487-.188-.469-.342-.847a46 46 0 0 0-.266-.647l-.007-.016c-.066-.147-.132-.162-.375-.076l-.071.027a1 1 0 0 0-.09.038l-.002.001c-.01.005-.06.335-.117.741l-.03.207-.043.29-.069.489-.035.248-.61-.938c-.423-.649-.494-.749-.598-.745h-.01l-.02.003-.022.005a2 2 0 0 1-.242.03h-.02c-.057.001-.079.017-.08.194v.098l.017.48.003.072c.018.433.06 1.11.089 1.553m-3.947.758.362-.183.138-.707c.054-.284.09-.503.08-.512a4 4 0 0 0-.497-.097l-.364-.063-.21-.04-.015-.003c-.087-.02-.112.015-.153.228l-.015.076c-.034.174-.02.177.107.204l.22.041c.266.052.23.065.201.253l-.008.045c-.065.347-.176.423-.596.413h-.036c-.532-.01-.855-.338-.897-.895l-.001-.02c-.026-.376.055-.706.228-.94.367-.497 1.062-.532 1.505-.08l.052.056c.131.136.153.132.362.08.127-.03.229-.086.229-.121 0-.097-.28-.457-.467-.605-.35-.264-.874-.38-1.275-.284-1.036.26-1.584 1.452-1.132 2.463.249.558.655.797 1.401.828l.132.003c.33.009.39-.009.649-.14m1.342.197.274-.71h1.214l.152.33.035.077c.11.239.132.252.286.248h.02c.451-.01.471.096-.275-1.62l-.675-1.549-.26-.018c-.168-.01-.19.003-.25.16l-.023.057c-.045.122-.2.55-.368 1.03l-.025.073-.06.17-.287.802c-.1.278-.182.505-.22.605l-.132.345zm7.144-1.797c-.06-.02-.279-.59-.279-.721 0-.173.584-.224.782-.066.163.127.188.437.04.569-.121.111-.461.248-.543.218m-6.25.63H24.3l.195-.593c.097-.294.187-.525.202-.525s.111.214.213.473l.028.067.048.118c.073.181.132.334.147.368l.003.008c.022.067-.016.081-.3.083z"/></svg>