---
version: "0.0.4"
---
<svg>
  <path d="M22.04 1.5c1.994 -.001 3.988 .005 5.981 .015c1.769 .008 3.537 .029 5.303 .045c.984 .01 1.965 .025 2.949 .041c.758 .012 1.514 .027 2.272 .041c.287 .006 .574 .016 .859 .023c.061 .04 .123 .039 .186 .002l1.33 .039c.047 .036 .096 .036 .146 .002l.879 .034a.16 .16 0 0 0 .186 .005l.674 .036c.047 .04 .097 .041 .146 .007l.469 .036c.02 .025 .04 .03 .066 .005c.073 .01 .147 .018 .22 .032c.138 .029 .159 .076 .08 .195c-.067 .105 -.17 .174 -.272 .244a4.51 4.51 0 0 1 -.813 .422c-.383 .16 -.767 .315 -1.15 .475c-.061 .027 -.12 .058 -.182 .088c-.014 -.02 -.03 -.04 -.045 -.063c.028 -.215 .045 -.434 .13 -.637c.054 -.127 -.042 -.095 -.1 -.107c-.02 -.027 -.043 -.027 -.065 -.002c-.266 -.012 -.53 -.027 -.797 -.039c-.047 -.039 -.096 -.037 -.146 -.002c-1.01 -.051 -2.02 -.043 -3.03 -.065a207.264 207.264 0 0 0 -4.096 -.048c-3.25 -.01 -6.5 -.039 -9.75 -.024c-1.481 .006 -2.962 .002 -4.446 .012c-1.584 .01 -3.168 -.004 -4.752 .029c-1.317 .026 -2.635 .014 -3.952 .045c-.881 .02 -1.76 .04 -2.641 .063a9.864 9.864 0 0 0 -.777 .045c-.15 .015 -.31 .002 -.465 .089c.178 .161 .225 .366 .258 .575c.086 .576 .109 1.156 .113 1.736a355.9 355.9 0 0 1 -.023 8.624c-.02 1.256 -.008 2.512 -.035 3.768c-.028 1.365 -.014 2.732 -.04 4.097c-.031 1.618 -.03 3.235 -.044 4.854c-.022 2.41 -.016 4.821 -.02 7.23c-.002 .99 .02 1.98 .078 2.968a5.68 5.68 0 0 0 .56 2.205c.397 .82 .983 1.413 1.829 1.756a12.04 12.04 0 0 0 1.658 .524c1.47 .363 2.964 .625 4.454 .898c1.986 .362 3.971 .731 5.936 1.2c.293 .07 .596 .117 .869 .265c.574 .307 1.045 .733 1.453 1.233l.51 .61c.066 .08 .113 .07 .176 -.005c.207 -.246 .42 -.486 .63 -.73a3.33 3.33 0 0 1 .434 -.432c.256 -.205 .532 -.373 .823 -.529c.535 -.289 1.1 -.502 1.672 -.7c.392 -.138 .783 -.28 1.162 -.45c.04 -.016 .099 -.022 .082 -.09h-.449a.74 .74 0 0 1 -.26 -.045c-.039 -.014 -.08 -.032 -.082 -.082c-.004 -.05 .04 -.065 .078 -.081c.096 -.04 .197 -.058 .297 -.072c.547 -.086 1.103 -.094 1.654 -.109c.635 -.014 1.27 -.008 1.903 -.06c.023 .025 .045 .025 .066 -.001c.115 -.01 .231 -.023 .346 -.031a23.06 23.06 0 0 0 2.357 -.295c.368 -.068 .737 -.144 1.086 -.289c.077 -.033 .194 -.064 .188 -.164c-.006 -.115 -.137 -.082 -.213 -.115c-.018 -.008 -.041 -.006 -.061 -.008a9.541 9.541 0 0 0 -1.451 -.065c-1.166 .036 -2.334 .08 -3.502 .067c-.63 -.006 -1.256 -.02 -1.881 -.078c-.072 -.006 -.154 .009 -.213 -.07c.137 -.081 .289 -.08 .434 -.09c.68 -.045 1.363 -.094 2.043 -.12c.949 -.037 1.898 -.066 2.844 -.082c1.066 -.019 2.13 -.054 3.193 -.103c.51 -.022 1.022 -.061 1.526 -.156c.283 -.053 .566 -.114 .777 -.331c.067 -.07 .188 -.132 .15 -.246c-.038 -.109 -.165 -.107 -.263 -.125c-.506 -.097 -1.02 -.09 -1.53 -.105c-1.064 -.029 -2.13 -.035 -3.195 -.04c-2.164 -.013 -4.328 .011 -6.491 -.093c-.02 -.029 -.043 -.029 -.066 -.002c-.176 -.012 -.354 -.027 -.53 -.037c-.181 -.012 -.363 -.01 -.53 -.109c.73 -.139 1.47 -.141 2.208 -.182c.036 .033 .071 .035 .106 -.002c.811 -.023 1.623 -.055 2.434 -.068c1.822 -.026 3.646 -.002 5.467 -.045a32.66 32.66 0 0 0 2.148 -.096c.262 -.023 .522 -.047 .774 -.143c.2 -.078 .385 -.177 .48 -.377c.102 -.216 .114 -.324 -.191 -.373a7.187 7.187 0 0 0 -.936 -.08a86.015 86.015 0 0 0 -1.781 -.035c-.615 -.008 -1.227 -.037 -1.834 -.144c-.078 -.014 -.174 -.03 -.18 -.102c-.008 -.094 .092 -.11 .172 -.131c.29 -.076 .59 -.1 .89 -.125c.68 -.055 1.364 -.045 2.046 -.043c.478 0 .955 -.01 1.432 -.04c.144 -.007 .285 -.026 .42 -.073c.232 -.082 .314 -.22 .304 -.49c-.01 -.25 -.094 -.36 -.332 -.426c-.226 -.061 -.457 -.067 -.69 -.074c-.478 -.01 -.956 .017 -1.433 -.038c-.117 -.015 -.232 -.027 -.338 -.076c-.131 -.062 -.144 -.16 -.033 -.252a.636 .636 0 0 1 .324 -.12a4.29 4.29 0 0 1 .959 -.03c.231 .023 .46 .041 .692 .062c.02 .026 .043 .028 .066 .002c.164 .006 .328 .022 .492 .002c.196 -.025 .26 -.093 .252 -.295a1.98 1.98 0 0 0 -.051 -.365c-.043 -.195 -.175 -.303 -.371 -.33c-.164 -.02 -.328 -.008 -.492 -.004a9.838 9.838 0 0 1 -.492 .004a.806 .806 0 0 1 -.426 -.13c-.105 -.065 -.17 -.208 -.141 -.296c.038 -.121 .15 -.123 .25 -.144c.014 -.002 .026 -.002 .04 -.002c.246 -.004 .492 -.008 .736 .025c.21 .029 .422 .035 .633 .02c.107 -.008 .201 -.04 .269 -.127c.133 -.168 .11 -.641 -.04 -.795a.397 .397 0 0 0 -.194 -.106c-.1 -.025 -.2 -.043 -.303 -.043c-.109 0 -.22 .002 -.328 -.006c-.26 -.02 -.516 -.06 -.748 -.187c-.06 -.033 -.12 -.078 -.115 -.156c.007 -.08 .076 -.108 .142 -.13a1.28 1.28 0 0 1 .199 -.05c.176 -.033 .352 -.037 .53 -.037c.19 0 .383 .002 .57 -.045a.482 .482 0 0 0 .28 -.156c.228 -.286 .074 -.77 -.276 -.868a1.315 1.315 0 0 0 -.283 -.048c-.184 -.01 -.369 -.018 -.551 -.038a3.05 3.05 0 0 1 -.91 -.232c-.063 -.029 -.14 -.05 -.164 -.137c.103 -.076 .213 -.076 .32 -.08c.381 -.015 .764 -.029 1.145 -.041c.172 -.006 .34 -.029 .504 -.082c.22 -.072 .302 -.197 .306 -.45c.006 -.28 -.078 -.425 -.295 -.507a1.196 1.196 0 0 0 -.34 -.07c-.34 -.024 -.68 -.047 -1.02 -.08a6.368 6.368 0 0 1 -1.128 -.2c-.08 -.023 -.172 -.033 -.231 -.132a.555 .555 0 0 1 .276 -.073c.34 -.023 .68 -.047 1.023 -.043a9.03 9.03 0 0 0 .94 -.045c.17 -.015 .34 -.035 .502 -.093c.217 -.075 .291 -.194 .269 -.422c-.019 -.186 -.099 -.264 -.328 -.297a3.797 3.797 0 0 0 -.551 -.045c-.621 -.002 -1.244 0 -1.865 -.01a5.746 5.746 0 0 1 -1.14 -.115a1.34 1.34 0 0 1 -.176 -.053c-.036 -.015 -.077 -.04 -.071 -.088c.004 -.035 .039 -.054 .071 -.066a1.53 1.53 0 0 1 .318 -.078c.4 -.061 .801 -.084 1.205 -.09c.56 -.008 1.119 -.022 1.678 -.033c.164 -.002 .328 -.024 .488 -.061c.283 -.066 .375 -.187 .373 -.476c-.002 -.28 -.09 -.393 -.37 -.454c-.073 -.017 -.147 -.027 -.22 -.04c-.078 -.012 -.113 .02 -.111 .101c.004 .199 .002 .396 0 .594c-.002 .146 -.004 .15 -.148 .152c-.287 .002 -.573 .002 -.86 0c-.334 -.002 -.283 .033 -.29 -.279c0 -.04 .003 -.082 -.001 -.123c-.002 -.037 .014 -.086 -.035 -.106c-.055 -.02 -.088 .016 -.115 .06c-.098 .155 -.246 .251 -.397 .345c-.404 .255 -.853 .293 -1.306 .234c-1.493 -.19 -1.823 -1.67 -1.292 -2.537c.022 -.037 .071 -.067 .036 -.135a2.673 2.673 0 0 0 -.463 -.014c-.137 .004 -.143 .014 -.15 .158v2.233c0 .158 -.003 .162 -.16 .162a60.24 60.24 0 0 1 -.86 0c-.061 0 -.123 -.004 -.184 -.006c-.055 -.004 -.088 -.033 -.088 -.09l-.002 -.164v-2.09c0 -.207 -.002 -.21 -.215 -.21c-.519 -.001 -1.04 -.004 -1.558 -.001c-.106 0 -.241 -.05 -.315 .022c-.082 .08 -.031 .221 -.033 .334l-.002 2.029c0 .172 -.002 .176 -.168 .176l-1.004 -.008c-.092 0 -.144 -.027 -.135 -.127c.004 -.048 0 -.097 0 -.144v-2.07c0 -.046 -.002 -.096 0 -.143c.002 -.07 -.033 -.096 -.1 -.098c-.13 -.002 -.261 -.008 -.39 -.008c-.156 0 -.158 0 -.16 .16c-.002 .526 0 1.05 0 1.577c0 .24 -.004 .478 .002 .717c.002 .109 -.039 .148 -.143 .146c-.17 -.004 -.342 0 -.513 0c-.17 0 -.342 -.004 -.512 -.006c-.084 0 -.123 -.037 -.119 -.125c.004 -.103 0 -.205 0 -.308c0 -.026 .002 -.055 -.03 -.067c-.03 -.01 -.052 .004 -.072 .024c-.074 .072 -.141 .15 -.22 .216c-.399 .334 -.864 .438 -1.376 .413c-.957 -.047 -1.613 -.663 -1.685 -1.614a1.6 1.6 0 0 1 .132 -.797a1.56 1.56 0 0 1 .852 -.791c.65 -.265 1.313 -.256 1.983 -.103c.132 .031 .26 .068 .404 .105c.05 -.316 -.05 -.574 -.23 -.8a.84 .84 0 0 0 -.452 -.266a1.602 1.602 0 0 0 -1.156 .109c-.172 .088 -.33 .195 -.461 .336c-.074 .078 -.15 .072 -.211 .01c-.186 -.182 -.404 -.324 -.602 -.492c-.109 -.092 -.113 -.094 -.017 -.204a2.52 2.52 0 0 1 1.133 -.742c.506 -.166 1.023 -.164 1.541 -.092c.56 .075 1.05 .295 1.398 .764a.147 .147 0 0 0 .137 .07c.246 -.01 .492 -.023 .738 -.03c.106 -.001 .137 -.052 .133 -.153l-.002 -.39c-.006 -.106 .035 -.145 .141 -.143c.314 .005 .63 0 .943 .002c.139 .003 .139 .007 .143 .156c.002 .13 0 .26 .002 .39c0 .026 0 .055 .033 .065c.03 .008 .051 -.008 .07 -.029l.049 -.065c.256 -.322 .598 -.52 1.002 -.621c.248 -.062 .5 -.064 .754 -.039c.467 .045 .87 .221 1.164 .602c.06 .078 .123 .113 .223 .109c.266 -.01 .533 -.014 .8 -.012c.102 0 .18 -.027 .257 -.095c.3 -.262 .644 -.44 1.031 -.524c.6 -.13 1.192 -.135 1.79 .061c.282 .093 .53 .21 .749 .4a.3 .3 0 0 0 .221 .076c.24 -.006 .477 -.006 .717 -.01c.22 -.005 .22 -.005 .221 -.216c.023 -1.645 .009 -3.29 .04 -4.936c.03 -1.604 .016 -3.209 .038 -4.813c.025 -1.844 .023 -3.686 .058 -5.53a.308 .308 0 0 0 .004 -.269l.039 -1.575c.039 -.048 .037 -.097 .002 -.146c.012 -.279 .022 -.56 .035 -.838a.164 .164 0 0 0 .006 -.186c.012 -.211 .024 -.423 .039 -.634c.026 -.02 .026 -.043 .002 -.065l.037 -.383l.049 -.006c.053 .073 .03 .157 .03 .237c.005 1.183 .009 2.363 .01 3.545c.003 .908 -.001 1.818 .007 2.725c.035 3.258 .018 6.514 .03 9.772c.007 1.721 0 3.443 .013 5.164c.03 4.33 .014 8.659 .027 12.989c0 .155 -.031 .29 -.113 .424c-.318 .524 -.592 1.075 -.932 1.59c-.412 .625 -.978 1.057 -1.662 1.348c-.77 .328 -1.58 .52 -2.396 .695c-1.434 .31 -2.883 .545 -4.325 .82c-1.266 .241 -2.53 .485 -3.783 .794a12.1 12.1 0 0 0 -1.542 .476a5.2 5.2 0 0 0 -.953 .51c-.363 .238 -.58 .584 -.777 .949c-.154 .28 -.276 .577 -.445 .85c-.053 .086 -.106 .174 -.17 .254c-.073 .092 -.129 .086 -.21 -.008a1.679 1.679 0 0 1 -.292 -.508c-.34 -.877 -.993 -1.453 -1.795 -1.885c-.594 -.322 -1.231 -.51 -1.89 -.642c-1.861 -.373 -3.73 -.705 -5.595 -1.055c-.24 -.045 -.48 -.092 -.727 -.11c-.133 -.01 -.273 -.08 -.412 -.097c-.406 -.05 -.795 -.166 -1.197 -.234c-.21 -.034 -.428 -.043 -.63 -.116c-.183 -.066 -.376 -.076 -.562 -.131c-.178 -.052 -.367 -.062 -.55 -.115c-.37 -.109 -.753 -.172 -1.122 -.287c-.574 -.176 -1.016 -.543 -1.408 -.98a7.34 7.34 0 0 1 -.71 -.934a7.218 7.218 0 0 1 -.425 -.783c-.055 -.114 -.12 -.223 -.168 -.344c-.127 -.33 -.14 -.676 -.164 -1.018c-.06 -.824 -.078 -1.65 -.102 -2.475c-.027 -.908 -.023 -1.816 -.046 -2.724c-.038 -1.686 -.02 -3.372 -.034 -5.059a751.546 751.546 0 0 1 -.025 -7.128c0 -1.072 -.004 -2.146 .006 -3.217c.031 -3.156 .017 -6.31 .023 -9.465c.002 -1.215 .002 -2.43 .01 -3.647c.002 -.154 -.051 -.228 -.186 -.29c-.416 -.19 -.84 -.36 -1.236 -.591a3.419 3.419 0 0 1 -.582 -.416a1.203 1.203 0 0 1 -.141 -.148c-.144 -.176 -.123 -.231 .106 -.26c.476 -.057 .953 -.07 1.43 -.094c.041 .028 .076 .028 .111 -.008c1.31 -.052 2.62 -.068 3.93 -.095c1.098 -.022 2.199 -.018 3.297 -.037c2.983 -.045 5.967 -.028 8.95 -.033zm-.586 20.928c.156 -.007 .236 .059 .29 .19c.104 .256 .21 .506 .315 .758l.858 2.06c.023 .053 .025 .137 .103 .133c.063 -.002 .07 -.078 .088 -.127c.283 -.711 .574 -1.42 .84 -2.14c.094 -.256 .207 -.506 .307 -.76c.029 -.07 .064 -.108 .148 -.108c.43 .004 .86 .004 1.29 .006c.013 -.002 .025 .008 .064 .024c-.088 .207 -.172 .4 -.254 .595c-.268 .63 -.553 1.254 -.822 1.885c-.459 1.08 -.94 2.151 -1.41 3.229c-.196 .447 -.384 .895 -.577 1.344c-.029 .068 -.053 .14 -.152 .138c-.434 -.003 -.869 -.003 -1.313 -.003c.08 -.305 .242 -.557 .352 -.831c.1 -.248 .228 -.486 .33 -.734c.07 -.172 .168 -.334 .252 -.502c.029 -.055 .05 -.113 .082 -.164c.072 -.11 .072 -.221 -.004 -.324c-.115 -.153 -.109 -.362 -.25 -.502c-.11 -.395 -.313 -.754 -.473 -1.129c-.092 -.217 -.213 -.428 -.3 -.645c-.245 -.61 -.53 -1.203 -.788 -1.81c-.058 -.137 -.123 -.272 -.18 -.411c-.066 -.158 -.06 -.168 .118 -.168c.363 -.002 .724 .008 1.086 -.004zm-9.302 -2.113a3.6 3.6 0 0 1 1.473 .711c.037 .03 .074 .061 .108 .094c.218 .205 .218 .205 .009 .41l-.599 .59c-.12 .119 -.125 .119 -.248 .008c-.745 -.666 -1.608 -.786 -2.522 -.467c-.904 .316 -1.385 1.008 -1.51 1.943c-.082 .606 .02 1.184 .36 1.704c.453 .691 1.103 1.037 1.92 1.076c.494 .023 .964 -.065 1.396 -.324c.496 -.299 .778 -.735 .903 -1.3c-.1 -.033 -.182 -.02 -.264 -.02h-1.783c-.186 0 -.188 -.001 -.188 -.194a51.942 51.942 0 0 1 0 -.799c.002 -.15 .004 -.154 .145 -.154c1.072 -.002 2.144 0 3.215 -.002c.115 0 .156 .047 .17 .152c.074 .529 .037 1.05 -.104 1.561c-.213 .773 -.668 1.367 -1.328 1.812c-.35 .237 -.74 .407 -1.15 .475c-1.374 .228 -2.63 -.02 -3.643 -1.055c-.618 -.633 -.952 -1.4 -1.018 -2.287c-.072 -.992 .172 -1.885 .803 -2.653c.695 -.847 1.6 -1.3 2.695 -1.363c.39 -.023 .778 -.01 1.16 .082zm4.331 2.117c.088 0 .12 .039 .12 .123c-.005 .184 0 .368 0 .553c-.003 .799 -.025 1.596 .001 2.395c.02 .609 .437 1.057 1.11 .934c.536 -.098 .81 -.467 .941 -.965c.041 -.151 .05 -.309 .05 -.467c-.003 -.764 0 -1.528 0 -2.293c0 -.047 .004 -.096 0 -.143c-.013 -.115 .049 -.137 .147 -.135c.342 .004 .682 .004 1.024 0c.105 -.002 .144 .034 .142 .141l-.003 .501v4.308c.007 .084 -.024 .127 -.114 .125a81.994 81.994 0 0 0 -1.004 0c-.094 0 -.115 -.047 -.11 -.129c.003 -.123 .001 -.246 0 -.369c0 -.039 .008 -.086 -.048 -.098c-.047 -.012 -.07 .018 -.096 .053a1.78 1.78 0 0 1 -.52 .453c-.214 .12 -.435 .209 -.683 .225c-.242 .017 -.485 .02 -.727 -.008c-.328 -.04 -.631 -.162 -.855 -.408c-.282 -.311 -.483 -.661 -.53 -1.102c-.037 -.336 -.035 -.67 -.037 -1.006c-.004 -.811 -.002 -1.625 -.002 -2.436c0 -.047 .002 -.097 0 -.144c-.004 -.078 .03 -.11 .108 -.108c.363 .002 .724 .002 1.086 0zm11.282 2.762c-.252 .002 -.469 .022 -.672 .114a.673 .673 0 0 0 -.397 .658c.01 .287 .182 .519 .457 .617c.157 .057 .32 .061 .483 .053c.607 -.03 1.06 -.459 1.135 -1.061c.015 -.109 -.024 -.158 -.125 -.197a2.671 2.671 0 0 0 -.88 -.184zm9.795 .08c-.31 .102 -.467 .321 -.472 .643c-.002 .166 .005 .168 .168 .166c.26 -.004 .52 -.002 .78 -.002v-.029h.655c.348 0 .362 -.012 .44 -.358a.545 .545 0 0 0 .015 -.08c.02 -.168 .012 -.185 -.142 -.246a2.269 2.269 0 0 0 -.432 -.125c-.338 -.066 -.678 -.08 -1.012 .03zm2.893 -.082c.004 .114 0 .231 0 .346v.123c.012 .406 -.094 .39 .391 .295c.207 -.039 .3 -.174 .31 -.398c.01 -.247 -.05 -.342 -.273 -.413c-.096 -.031 -.199 -.05 -.297 -.072c-.098 -.023 -.135 .018 -.131 .119zm-5.09 -1.61c.029 .245 .072 .46 .08 .677c.006 .158 .01 .16 .16 .162c.246 .002 .492 -.006 .738 -.002a3.19 3.19 0 0 0 .866 -.098c.525 -.137 1.058 -.088 1.582 .035c.08 .018 .156 .05 .24 .047c.08 -.004 .127 -.03 .125 -.123c-.004 -.103 -.006 -.203 -.04 -.303c-.048 -.15 -.157 -.254 -.263 -.357c-.064 -.06 -.17 -.027 -.257 -.027c-.415 -.004 -.833 0 -1.25 -.012a.548 .548 0 0 0 -.403 .158c-.035 .033 -.074 .063 -.103 .1c-.061 .078 -.133 .056 -.2 .02c-.048 -.024 -.082 -.067 -.12 -.11a.409 .409 0 0 0 -.288 -.164c-.277 -.012 -.555 -.004 -.867 -.004zm-5.424 -.013c.078 .235 .113 .46 .117 .694c.002 .154 .008 .156 .164 .158c.115 .002 .232 -.006 .346 -.002c.103 .004 .15 -.026 .144 -.137l-.003 -.213l.001 -.355c.004 -.208 .008 -.168 -.328 -.19c-.144 -.01 -.3 -.05 -.44 .045zm2.547 .17c-.2 .184 -.326 .412 -.414 .682h1.93c.089 0 .121 -.035 .111 -.123a.95 .95 0 0 0 -.266 -.557c-.103 -.11 -.201 -.17 -.349 -.168c-.17 .002 -.34 .01 -.51 -.012c-.196 -.027 -.358 .047 -.502 .178zm7.893 .076c.037 .139 .051 .278 .066 .42c.01 .084 .049 .102 .123 .096l.221 -.039c.053 -.01 .104 -.024 .158 -.039a.28 .28 0 0 0 .123 -.067c.129 -.115 .108 -.265 -.045 -.339a1.418 1.418 0 0 0 -.517 -.16c-.127 -.008 -.16 .009 -.129 .128zm-4.526 -9.024c.37 .38 .59 .846 .674 1.373a2.92 2.92 0 0 1 -.088 1.393c-.287 .885 -.881 1.467 -1.775 1.709c-.879 .238 -1.72 .127 -2.469 -.426c-.575 -.427 -.893 -1.013 -1 -1.72a2.815 2.815 0 0 1 .109 -1.35c.344 -1.002 1.061 -1.57 2.092 -1.76a.552 .552 0 0 1 .082 -.006c.135 -.002 .273 -.002 .41 -.002c.774 -.035 1.43 .238 1.965 .789zm-18.45 -.621c.705 .262 1.082 .789 1.174 1.53c.064 .517 .025 1.037 .033 1.554c.008 .588 .002 1.174 .002 1.762c0 .19 -.002 .192 -.192 .192c-.308 .003 -.615 .003 -.922 0c-.187 0 -.187 -.002 -.189 -.198c0 -.076 .002 -.15 -.004 -.226c-.006 -.071 -.05 -.075 -.096 -.035c-.093 .082 -.172 .175 -.269 .25a1.673 1.673 0 0 1 -.879 .359c-.543 .057 -1.06 -.027 -1.508 -.375a1.532 1.532 0 0 1 -.6 -1.055c-.06 -.486 .028 -.94 .37 -1.316a1.88 1.88 0 0 1 1.095 -.596a3.63 3.63 0 0 1 1.776 .121c.029 .01 .06 .029 .095 .01c.114 -.539 -.222 -.908 -.634 -1.039c-.616 -.198 -1.139 -.012 -1.604 .394c-.137 .119 -.133 .125 -.283 .008c-.194 -.15 -.387 -.301 -.578 -.455c-.104 -.084 -.102 -.09 -.016 -.193c.35 -.413 .789 -.696 1.318 -.799c.64 -.125 1.288 -.125 1.911 .107zm-6.124 -2.09a2.445 2.445 0 0 1 1.536 .516c.32 .248 .535 .566 .627 .955a1.661 1.661 0 0 1 -.334 1.5c-.13 .162 -.303 .272 -.473 .387c-.108 .072 -.106 .113 .01 .166c.24 .105 .461 .24 .642 .43c.287 .306 .436 .666 .459 1.086c.024 .48 -.099 .906 -.402 1.277a2.17 2.17 0 0 1 -1.182 .727c-.226 .058 -.453 .09 -.687 .089l-1.361 -.003h-1.425c-.15 -.006 -.152 -.006 -.158 -.147v-.143a874.258 874.258 0 0 1 0 -3.279v-3.299l.002 -.164c0 -.067 .035 -.098 .102 -.098l.123 -.002c.84 0 1.68 -.002 2.52 .002zm14.46 -.002c.219 0 .219 .002 .219 .23c0 1.132 0 2.268 .002 3.4c0 .079 -.043 .195 .03 .228c.093 .041 .142 -.08 .202 -.14a154.99 154.99 0 0 0 1.532 -1.538a.405 .405 0 0 1 .322 -.135c.404 .008 .805 .002 1.209 .002c.04 0 .082 -.002 .123 .002c.088 .008 .104 .045 .053 .12a.487 .487 0 0 1 -.082 .09c-.574 .528 -1.11 1.091 -1.668 1.634c-.129 .127 -.129 .137 -.024 .295c.346 .525 .694 1.047 1.04 1.57c.257 .387 .51 .774 .765 1.163c.035 .058 .082 .11 .076 .18c-.052 .046 -.109 .03 -.162 .03c-.404 .002 -.805 -.003 -1.21 .004c-.122 .002 -.194 -.035 -.26 -.144c-.374 -.619 -.762 -1.23 -1.143 -1.844c-.141 -.227 -.139 -.227 -.325 -.043c-.125 .125 -.248 .254 -.38 .375a.319 .319 0 0 0 -.104 .252c.004 .404 .002 .805 .002 1.209c0 .165 -.002 .187 -.131 .19h-.064c-.313 .003 -.629 -.002 -.942 .003c-.105 .002 -.152 -.037 -.144 -.144c.004 -.04 0 -.082 0 -.123v-6.736c.004 -.124 .03 -.13 .188 -.13h.876zm-2.846 2.035c.334 .135 .594 .346 .776 .66c.21 .356 .304 .745 .308 1.149c.014 1.039 .008 2.075 .008 3.112c0 .17 -.004 .172 -.17 .174c-.322 .003 -.642 .003 -.963 0c-.174 0 -.177 -.004 -.179 -.188c0 -.943 -.004 -1.883 .002 -2.826a1.192 1.192 0 0 0 -.114 -.487c-.174 -.41 -.713 -.609 -1.117 -.48c-.512 .166 -.76 .543 -.859 1.045a2.59 2.59 0 0 0 -.038 .55c.002 .708 .002 1.42 .002 2.128c0 .047 -.002 .097 0 .144c.002 .076 -.031 .112 -.109 .112h-1.086c-.074 0 -.117 -.028 -.115 -.108v-4.77c.002 -.201 .002 -.203 .203 -.203h.881c.166 .002 .168 .004 .17 .174c.002 .14 0 .275 0 .443c.187 -.115 .256 -.281 .398 -.38c.297 -.204 .614 -.346 .975 -.362c.346 -.017 .693 -.023 1.027 .113zm17.037 -2.033c.156 .029 .16 .043 .162 .207c.002 .301 .002 .6 0 .901c0 .213 -.004 .211 -.2 .156c-.16 -.045 -.31 -.135 -.488 -.117c-.301 .033 -.586 .195 -.65 .445c-.006 .02 -.012 .039 -.016 .06c-.066 .358 -.035 .397 .328 .397h.737c.156 .002 .158 .004 .16 .164c.002 .272 .002 .547 0 .82c-.002 .145 -.006 .151 -.15 .151c-.286 .002 -.573 .002 -.86 0c-.268 0 -.25 -.012 -.25 .26l-.002 .863v2.602c0 .217 -.002 .22 -.209 .22c-.301 0 -.6 .002 -.902 0c-.168 -.003 -.17 -.005 -.172 -.175c-.002 -.676 0 -1.352 0 -2.028v-1.537c0 -.2 -.002 -.203 -.205 -.203c-.198 0 -.395 -.002 -.594 0c-.098 .002 -.133 -.039 -.131 -.133c.004 -.287 .004 -.574 0 -.86c-.002 -.105 .033 -.148 .141 -.146c.211 .006 .425 .004 .636 0c.145 -.002 .15 -.006 .153 -.15a8.41 8.41 0 0 0 .004 -.389c0 -.693 .478 -1.313 1.19 -1.496c.435 -.11 .88 -.096 1.318 -.012zm-24.199 4.9c-.313 .105 -.465 .324 -.481 .656a.634 .634 0 0 0 .465 .664c.369 .104 .738 .082 1.061 -.13c.31 -.202 .492 -.5 .531 -.878c.012 -.113 -.027 -.177 -.137 -.213c-.291 -.099 -.584 -.179 -.916 -.169a1.422 1.422 0 0 0 -.523 .07zm17.369 -1.552c-.36 .24 -.56 .59 -.615 1.016c-.06 .451 .027 .877 .324 1.228c.377 .448 .87 .58 1.436 .442c.338 -.082 .597 -.278 .787 -.573c.172 -.269 .23 -.564 .228 -.914c.01 -.113 -.01 -.26 -.052 -.406c-.264 -.97 -1.348 -1.297 -2.108 -.793zm-23.066 .74c-.14 0 -.146 .008 -.148 .155c-.006 .246 -.002 .492 -.002 .738c0 .26 .002 .518 -.002 .779c-.002 .106 .041 .143 .146 .141c.492 -.004 .983 .002 1.473 -.006a.918 .918 0 0 0 .6 -.23a.904 .904 0 0 0 .24 -.991a.838 .838 0 0 0 -.793 -.578c-.504 -.023 -1.01 -.01 -1.514 -.008zm.008 -2.865c-.15 .002 -.156 .006 -.158 .146c-.002 .465 0 .928 -.002 1.393c0 .102 .031 .147 .14 .147c.444 -.004 .887 .007 1.331 -.006c.361 -.01 .695 -.272 .785 -.59a.838 .838 0 0 0 -.805 -1.088l-.307 -.003l-.308 .001c-.225 -.002 -.45 -.004 -.676 0z" />
</svg>
