---
version: "0.0.4"
---
<svg>
  <path d="M40.125 1.5v34.375h-5.1v-18.125h-2.55v18.125h-3.825v-18.125h-2.55v18.125h-3.825v-18.125h-2.55v18.125h-3.825v-18.125h-2.55v18.125h-5.1v-34.375h31.875zm-3.188 13.125h-25.5v2.5h25.5v-2.5zm-17.03 31.875h-1.287v-3.344h-3.345v3.344h-1.287v-7.5h1.287v3.086h3.345v-3.086h1.288v7.5zm3.038 -7.5l3.095 5.807v-5.807h1.23v7.5h-1.606l-3.096 -5.806v5.806h-1.23v-7.5h1.607zm8.824 0c1.304 0 2.274 .71 2.274 1.866c0 .633 -.297 1.231 -.95 1.576l-.027 .013c.863 .324 1.322 .952 1.322 1.84c0 1.28 -.896 2.205 -2.476 2.205h-3.211v-7.5h3.068zm-.106 4.054h-1.685v2.365h1.786c.843 0 1.336 -.457 1.336 -1.182c0 -.764 -.568 -1.183 -1.437 -1.183zm.053 -2.99h-1.738v1.925h1.675c.636 0 1.102 -.398 1.102 -.994c0 -.549 -.382 -.93 -1.039 -.93z" />
</svg>
