<svg xmlns="http://www.w3.org/2000/svg" width="48" height="48" viewBox="0 0 48 48" fill="currentColor"><path d="M24 1.5c12.408 0 22.5 10.092 22.5 22.5s-10.092 22.5 -22.5 22.5s-22.5 -10.092 -22.5 -22.5s10.092 -22.5 22.5 -22.5zm0 .76c-11.99 0 -21.74 9.75 -21.74 21.74c0 11.99 9.75 21.74 21.74 21.74c11.99 0 21.74 -9.75 21.74 -21.74c0 -11.99 -9.75 -21.74 -21.74 -21.74zm-8.598 35.629a.1 .1 0 0 1 .045 .006l.81 .335l.74 .29c.027 .012 .104 .057 .059 .173c-.007 .026 -.045 .077 -.142 .065a1.693 1.693 0 0 1 -.2 -.065c-.199 -.083 -.257 -.07 -.263 -.064c-.026 .013 -.071 .051 -.116 .167l-.92 2.594l2.124 -2.092c.115 -.116 .218 -.212 .302 -.29c.084 -.083 .142 -.122 .187 -.122l.032 .007c.051 .025 .083 .09 .083 .186c0 .084 -.006 .2 -.019 .354c-.013 .155 -.026 .464 -.032 .914c-.013 .457 -.02 .895 -.02 1.307v.476c.18 -.251 .413 -.605 .696 -1.049c.328 -.521 .54 -.888 .624 -1.1c.032 -.084 .045 -.194 -.135 -.264a1.46 1.46 0 0 1 -.219 -.103c-.026 -.013 -.096 -.058 -.07 -.123c.031 -.07 .044 -.096 .064 -.11c.025 -.025 .064 -.025 .109 -.006l.618 .258l.534 .206c.052 .02 .064 .045 .052 .064c.012 .02 .006 .058 -.013 .11a.116 .116 0 0 1 -.09 .067l-.06 -.004a1.226 1.226 0 0 1 -.224 -.076c-.07 -.026 -.122 -.032 -.154 -.013c-.032 .02 -.09 .07 -.187 .225l-1.267 1.938a2.316 2.316 0 0 0 -.245 .418c0 .007 -.006 .026 0 .123c.007 .09 .027 .116 .027 .116c.006 0 .025 .026 .135 .077c.077 .045 .174 .09 .27 .129c.058 .019 .103 .077 .064 .167c-.032 .077 -.083 .09 -.109 .09c-.013 0 -.026 0 -.045 -.006l-.586 -.258l-.418 -.148c-.026 -.013 -.07 -.038 -.07 -.122c-.007 -.02 -.007 -.07 .006 -.232c.012 -.116 .025 -.437 .045 -.972l.032 -1.274v-.495l-2.13 2.143a.124 .124 0 0 1 -.142 .038l-.508 -.225l-.56 -.206c-.033 -.006 -.11 -.051 -.058 -.174a.112 .112 0 0 1 .103 -.077c.013 0 .032 .007 .051 .013c.258 .11 .367 .129 .412 .129c.064 -.007 .11 -.084 .135 -.148l.985 -2.742a.174 .174 0 0 0 -.007 -.16a.351 .351 0 0 0 -.154 -.117c-.174 -.064 -.225 -.103 -.245 -.122c-.064 -.051 -.064 -.097 -.051 -.129c.032 -.077 .084 -.096 .116 -.096zm16.636 .167l.045 .013c.02 .026 .033 .045 .045 .077c.02 .052 .02 .09 0 .122c-.012 .026 -.051 .058 -.141 .09c-.225 .09 -.296 .149 -.315 .174a.15 .15 0 0 0 -.007 .148l.296 .773l.483 1.19l.29 .683c.045 .122 .102 .186 .167 .193h.026c.058 0 .167 -.02 .405 -.116c.013 0 .032 -.007 .045 -.007c.039 0 .084 .02 .116 .084c.032 .084 -.006 .135 -.052 .154l-.817 .31l-.804 .347c-.02 .006 -.033 .006 -.045 .006c-.033 0 -.078 -.012 -.103 -.083c-.052 -.123 .025 -.161 .051 -.174c.27 -.11 .36 -.18 .393 -.219c.045 -.058 .012 -.167 -.02 -.25l-.27 -.69l-.219 -.534c-.07 .032 -.103 .045 -.116 .058c-.006 .007 -.058 .097 -.296 .624c-.18 .412 -.322 .728 -.418 .953c-.122 .283 -.11 .367 -.103 .393c.02 .045 .039 .045 .051 .045h.013c.033 -.007 .11 -.02 .264 -.084c.02 -.006 .032 -.013 .052 -.013c.032 0 .083 .013 .116 .09c.012 .032 .019 .065 .012 .09a.101 .101 0 0 1 -.064 .071l-.65 .238l-.534 .238c-.02 0 -.032 .007 -.045 .007c-.032 0 -.077 -.013 -.11 -.09c-.012 -.039 -.019 -.071 -.006 -.103a.123 .123 0 0 1 .07 -.071a.706 .706 0 0 0 .29 -.187c.071 -.07 .161 -.231 .27 -.476l.606 -1.345c.013 -.032 .019 -.058 .025 -.07c0 0 -.006 -.007 -.012 -.007l-.03 -.01l-.08 -.035l-1.886 -.818a.939 .939 0 0 0 -.366 -.103a.946 .946 0 0 0 -.31 .078c-.135 .057 -.147 .045 -.173 .038c-.032 -.006 -.065 -.026 -.09 -.084a.104 .104 0 0 1 -.007 -.096a.085 .085 0 0 1 .058 -.058l.863 -.335l.817 -.34c.045 -.02 .084 -.014 .11 .019c.012 .025 .032 .051 .044 .09c.026 .058 -.038 .11 -.057 .122a.95 .95 0 0 1 -.22 .11c-.057 .025 -.07 .044 -.076 .057c-.007 .007 -.007 .013 0 .032l.011 .013c.022 .02 .083 .066 .272 .148c.186 .084 .45 .206 .791 .36c.425 .194 .56 .245 .599 .252a.26 .26 0 0 0 .135 .013c.032 -.007 .064 -.013 .103 -.026l-.174 -.431l-.328 -.76a.15 .15 0 0 0 -.103 -.103h-.013c-.045 0 -.141 .02 -.335 .097c-.083 .032 -.135 .038 -.167 .026c-.02 0 -.058 -.02 -.084 -.084c-.012 -.032 -.019 -.058 -.012 -.084a.093 .093 0 0 1 .057 -.07l.818 -.322l.798 -.335a.199 .199 0 0 1 .051 -.013zm4.847 -3.913c.032 .039 .025 .096 -.032 .16a.723 .723 0 0 1 -.116 .13a.598 .598 0 0 0 -.136 .186c-.025 .058 -.019 .11 .026 .168l1.802 2.027a.306 .306 0 0 0 .097 .077c.006 .007 .032 .013 .129 .013c.038 0 .077 -.006 .122 -.006c.186 -.007 .238 -.04 .244 -.045l.148 -.142c.046 -.045 .11 -.039 .168 .02a.155 .155 0 0 1 .038 .096c0 .02 -.006 .051 -.038 .077l-.4 .341a1.78 1.78 0 0 0 -.167 .167a8.748 8.748 0 0 1 -.132 .139l-.054 .054l-.013 .007c-.032 .006 -.052 .006 -.064 .006l-3.856 -.231l1.191 1.351c.309 .322 .463 .393 .54 .393c.123 0 .277 -.084 .458 -.258c.058 -.051 .128 -.051 .18 .007c.09 .096 .032 .16 .013 .18l-.599 .528l-.508 .508a.083 .083 0 0 1 -.065 .026c-.032 0 -.058 -.02 -.09 -.052c-.083 -.09 -.045 -.154 -.02 -.173c.194 -.18 .245 -.283 .258 -.335c.013 -.07 -.006 -.148 -.064 -.238a6.084 6.084 0 0 0 -.47 -.586c-.257 -.296 -.585 -.67 -.978 -1.113l-.676 -.753a.131 .131 0 0 1 -.038 -.09c0 -.032 .019 -.065 .051 -.097l.02 -.013l4.28 .226l-.825 -.901l-.92 -.96c-.045 -.05 -.096 -.07 -.154 -.057c-.065 .013 -.155 .07 -.258 .167c-.135 .122 -.174 .154 -.2 .16c-.038 .014 -.083 .027 -.134 -.031a.216 .216 0 0 1 -.046 -.084c-.006 -.032 .007 -.064 .033 -.09l.56 -.508l.508 -.49c.052 -.045 .116 -.032 .187 .039zm-25.197 .348l.553 .527l.605 .547c.02 .013 .04 .052 -.006 .116a.385 .385 0 0 1 -.039 .045c-.038 .032 -.09 .039 -.148 0a.767 .767 0 0 1 -.141 -.11a.716 .716 0 0 0 -.168 -.128c-.006 -.006 -.019 -.013 -.045 .013c-.019 .013 -.064 .084 -.18 .399l-.238 .63l.805 .747c.083 .071 .109 .084 .109 .084s.045 -.006 .232 -.09c.148 -.077 .296 -.148 .43 -.225a1.2 1.2 0 0 0 .239 -.155c.052 -.058 .039 -.09 .039 -.103c-.007 -.026 -.033 -.077 -.116 -.154a1.5 1.5 0 0 1 -.213 -.22c-.051 -.076 -.019 -.128 0 -.147c.033 -.032 .065 -.052 .103 -.052c.02 0 .045 .007 .078 .033l.56 .534l.321 .29c.033 .019 .058 .077 -.025 .167c-.058 .051 -.142 .032 -.264 -.071a.188 .188 0 0 0 -.123 -.052a.46 .46 0 0 0 -.205 .065l-3.219 1.55a.121 .121 0 0 1 -.05 .014c-.04 0 -.078 -.02 -.123 -.058a.16 .16 0 0 1 -.039 -.168l1.287 -3.353c.026 -.09 .039 -.16 .02 -.219a.487 .487 0 0 0 -.142 -.193a.32 .32 0 0 1 -.09 -.109c-.032 -.064 -.013 -.103 .006 -.122c.065 -.071 .136 -.078 .187 -.032zm12.312 -24.766c7.884 0 14.275 6.391 14.275 14.275s-6.39 14.275 -14.275 14.275c-7.884 0 -14.274 -6.39 -14.274 -14.275c0 -7.884 6.39 -14.275 14.274 -14.275zm-12.222 27.082l-.547 1.346c.084 -.039 .258 -.116 .586 -.277c.573 -.277 .688 -.348 .708 -.367c-.007 -.006 -.033 -.039 -.11 -.11l-.637 -.592zm12.222 -26.445c-7.53 0 -13.637 6.108 -13.637 13.638s6.107 13.638 13.637 13.638s13.638 -6.108 13.638 -13.638s-6.108 -13.638 -13.638 -13.638zm-6.887 5.117c.284 .006 .522 .257 .612 .502c.09 .257 .07 .502 -.065 .714c.18 .148 .258 .335 .245 .58a.769 .769 0 0 1 -.257 .56a.619 .619 0 0 1 -.329 .135c.013 .148 .013 .386 -.083 .54c-.142 .245 -.329 .354 -.631 .38c0 .244 -.045 .431 -.225 .58c.116 .006 .18 .018 .244 .057c.206 -.206 .522 -.27 .74 -.129a.714 .714 0 0 1 .316 .573a.718 .718 0 0 1 -.097 .425c.174 .096 .251 .315 .251 .508c0 .296 -.07 .509 -.212 .65c-.11 .11 -.258 .168 -.457 .187c.032 .167 .032 .373 0 .476c-.097 .328 -.2 .374 -.476 .457l-.078 .026a.54 .54 0 0 1 -.392 -.02c-.097 .618 -.328 .696 -.612 .728c-.154 .02 -.27 .032 -.366 .25c-.174 .387 -.226 .522 -.239 .632c.052 0 .097 0 .142 .006c.167 -.425 .45 -.515 .804 -.624l.187 -.058v-.032c-.006 -.103 -.026 -.374 .303 -.438c.173 -.032 .321 -.051 .444 -.051c.27 0 .424 .077 .47 .231c.09 .31 -.245 .637 -.605 .747a.376 .376 0 0 1 -.123 .02c-.167 0 -.38 -.091 -.45 -.252c-.065 .026 -.129 .052 -.187 .07c-.296 .11 -.483 .175 -.618 .439c.084 .032 .161 .077 .226 .109a.48 .48 0 0 0 .077 .045a.79 .79 0 0 1 .328 .322a.12 .12 0 0 1 .045 -.013a.433 .433 0 0 1 .283 .064c.071 -.116 .168 -.283 .322 -.34c.367 -.136 .611 -.046 .753 .05c.232 .162 .335 .451 .335 .67v.077c0 .148 0 .277 -.052 .419c.328 .103 .54 .34 .644 .727c.07 .257 -.026 .502 -.142 .714c.168 .174 .251 .534 .251 .682c-.013 .541 -.277 .966 -.708 1.12c-.128 .258 -.09 .386 .123 .92a.72 .72 0 0 1 .399 -.064a.795 .795 0 0 1 .411 .213c.116 -.071 .251 -.045 .36 -.02c.052 .013 .104 .02 .155 .026c.509 .039 .702 .348 .837 .689c.322 -.078 .637 .096 .914 .283c.302 .206 .547 .65 .63 .991l.033 .006c.2 .045 .566 .123 .753 .554c.013 .026 .09 .07 .154 .103c.116 .064 .283 .154 .406 .322c.141 .193 .946 .663 1.493 .952c.064 -.032 .135 -.07 .212 -.11l.193 -.102c.058 -.31 .103 -.425 .322 -.792c.18 -.302 .412 -.54 .657 -.791l.064 -.071a1.93 1.93 0 0 1 1.004 -.567c.122 -.025 .225 -.025 .315 -.025c.174 0 .296 -.007 .54 -.2l.143 -.116l.032 .18c.006 .046 .013 .078 .013 .123c.006 .27 -.039 .508 -.148 .798a6.42 6.42 0 0 1 .444 -.18c.09 -.033 .193 -.071 .25 -.097c-.064 -.373 -.096 -.875 .078 -1.268a.846 .846 0 0 1 .193 -.309a.56 .56 0 0 0 .077 -.09c.077 -.096 .14 -.164 .205 -.23l.194 -.195c.039 -.032 .071 -.07 .103 -.103c.174 -.18 .328 -.334 .554 -.682c.109 -.173 .109 -.225 .115 -.328c.007 -.051 .007 -.11 .02 -.18a.128 .128 0 0 1 .051 -.077c.026 -.02 .058 -.02 .09 -.013c.168 .058 .2 .128 .238 .238c.02 .045 .04 .103 .084 .187c.11 .193 .187 .56 .168 .946c.16 -.09 .315 -.174 .47 -.245c.044 -.36 .038 -.65 -.065 -.985l-.006 -.013c-.052 -.167 -.13 -.411 -.226 -.43c-.025 -.007 -.064 .006 -.103 .012a.258 .258 0 0 1 -.096 .02a.43 .43 0 0 1 -.438 -.412c0 -.161 .097 -.303 .258 -.348c.18 -.058 .38 .013 .489 .16a.4 .4 0 0 1 .064 .348l.07 .155c.091 .187 .233 .495 .278 .798c.032 .257 .019 .412 .006 .547v.032a.585 .585 0 0 1 .09 -.045l-.013 -.006c.303 -.76 .174 -1.088 .135 -1.165c-.16 -.077 -.746 -.464 -.72 -1.899a3.6 3.6 0 0 1 .135 -.978c.058 -.232 .116 -.47 .135 -.888c.039 -.747 -.193 -1.088 -.2 -1.1l-.16 -.232l.276 .064c.026 .006 .129 .006 .213 .006c.186 -.006 .399 -.006 .521 .033c.412 .115 .573 .566 .605 .81c.013 .09 .026 .155 .039 .194c.032 -.058 .064 -.103 .096 -.155c.058 -.779 -.026 -1.274 -.264 -1.538c-.167 -.187 -.405 -.264 -.74 -.245c0 0 -.006 .007 -.006 .013c-.033 .084 -.11 .283 -.335 .29c-.225 0 -.399 -.193 -.405 -.438a.553 .553 0 0 1 .077 -.309a.314 .314 0 0 1 .264 -.16c.012 0 .025 -.007 .045 -.007a.392 .392 0 0 1 .173 .013c.103 .045 .168 .135 .187 .277l.232 -.007c.643 0 1.036 .618 1.049 1.216c.006 .168 .006 .29 .013 .412v.071a1.88 1.88 0 0 1 .135 -.167c.032 -.166 .037 -.194 .038 -.25v-.104c.026 -.63 -.308 -.882 -.733 -1.197c-.277 -.213 -.599 -.444 -.85 -.83c-.283 -.425 -.302 -.863 -.322 -1.281c-.025 -.464 -.045 -.895 -.418 -1.255l-.045 -.045l.013 -.058a.132 .132 0 0 1 .096 -.09c.187 -.052 .818 .103 1.616 .907c.206 .206 .392 .4 .56 .586c-.058 -.084 -.11 -.155 -.148 -.213c-.277 -.38 -.496 -.63 -.695 -.855c-.31 -.355 -.573 -.657 -.914 -1.313a3.205 3.205 0 0 1 -.168 -.445c-.102 -.308 -.205 -.637 -.45 -.85l-.2 -.173l.258 -.02c.096 -.006 .2 -.012 .296 -.012c1.847 0 3.07 1.23 3.121 3.134c.007 .2 .007 .457 0 .734c.206 -.502 .535 -.953 .985 -1.461l.167 -.187l.026 .251c.039 .387 .11 .695 .187 .998c.096 .386 .186 .753 .193 1.261c.02 1.017 -.644 1.905 -.933 2.24l-.18 .204l-.142 .158c-.168 .19 -.169 .229 -.18 .578c-.007 .135 -.013 .315 -.026 .56c.045 .135 .09 .276 .122 .412c.167 -.515 .335 -.766 .727 -1.133c.2 -.187 .342 -.283 .58 -.406a.46 .46 0 0 1 .09 -.36a.379 .379 0 0 1 .296 -.155c.238 0 .483 .149 .483 .387a.53 .53 0 0 1 -.11 .328a.39 .39 0 0 1 -.302 .154h-.02c-.154 0 -.264 -.038 -.354 -.128a2.103 2.103 0 0 0 -.386 .27l-.026 .02c-.399 .321 -.592 .688 -.72 1.151c.173 -.148 .366 -.264 .637 -.38c.309 -.128 .534 -.135 .798 -.135h.193l-.077 .161c-.245 .515 -.258 .94 -.27 1.397c-.014 .335 -.02 .676 -.117 1.088c-.096 .424 -.308 .888 -.547 1.164c-.489 .573 -.669 .663 -1.409 .676h-.013a.664 .664 0 0 1 -.129 -.013a.712 .712 0 0 1 -.373 .136c-.013 0 -.032 .006 -.058 .006c-.02 0 -.038 .006 -.064 .006c-.464 .277 -.676 .811 -.875 1.333l-.04 .109c-.006 .052 -.018 .103 -.025 .148c-.02 .077 -.032 .155 -.045 .225a1.97 1.97 0 0 1 .264 -.064c.013 0 .026 -.006 .039 -.006c0 -.007 .006 -.007 .006 -.013c.116 -.27 .251 -.586 .734 -.792c.16 -.07 .45 -.103 .573 -.116h.025c0 -.006 .007 -.006 .007 -.013a.38 .38 0 0 1 .36 -.231c.219 0 .296 .231 .303 .43a.515 .515 0 0 1 -.09 .323a.367 .367 0 0 1 -.29 .135c-.2 0 -.296 -.174 -.309 -.354h-.103c-.174 0 -.508 .11 -.618 .212c-.18 .174 -.219 .245 -.277 .36c0 .013 -.006 .02 -.012 .033c.16 -.007 .308 .006 .508 .032c.193 .026 .47 .148 .547 .29l.051 .09l-.09 .058c-.405 .25 -.45 .34 -.617 .662a6.54 6.54 0 0 1 -.206 .38c-.116 .213 -.432 .534 -.65 .67a7.164 7.164 0 0 0 -.187 .128c-.212 .155 -.457 .328 -.792 .374c-.276 .032 -.424 .051 -.579 .051c-.154 0 -.302 -.02 -.58 -.051c-.166 -.026 -.578 -.245 -.855 -.515c-.167 .096 -.58 .315 -.991 .412c-.045 .045 -.09 .096 -.135 .148a.357 .357 0 0 1 -.039 .051c.283 -.026 .515 .064 .76 .206c.25 .142 .392 .296 .585 .534l.116 .148l-.187 .026c-.27 .045 -.476 .122 -.618 .238c-.424 .354 -.682 .566 -1.177 .624c.032 .007 .07 .007 .103 .013c.302 .039 .72 .09 .727 .477a.489 .489 0 0 1 -.129 .38c-.16 .16 -.425 .173 -.708 .173h-.328c-.425 0 -.888 -.187 -1.204 -.328l-.07 -.045c-.592 -.232 -1.114 -.528 -1.667 -.843c-.148 -.084 -.303 -.168 -.457 -.258a15.071 15.071 0 0 1 -.837 .277c-.489 .154 -.952 .296 -1.442 .502l-.006 -.013a1.089 1.089 0 0 1 -.438 .097l-.47 .006a2.34 2.34 0 0 1 -.212 .006c-.206 0 -.431 -.012 -.676 -.096c-.057 -.02 -.109 -.032 -.154 -.045a.621 .621 0 0 1 -.38 -.212l-.103 -.116l.142 -.058c.206 -.09 .386 -.213 .56 -.335c.296 -.206 .598 -.425 1.023 -.431h.07l.046 -.007c.096 0 .167 -.006 .283 .007c.013 0 .026 .006 .039 .006h.07c.187 0 .31 -.006 .425 -.013c.123 -.012 .245 -.012 .432 -.019a4.88 4.88 0 0 0 .65 -.058c-.264 -.083 -.412 -.11 -.882 -.154c-.064 0 -.142 -.039 -.238 -.09c-.071 -.033 -.27 -.13 -.316 -.11c-.231 .277 -.643 .509 -1.08 .296a8.95 8.95 0 0 1 -.4 -.212c-.045 .013 -.11 .051 -.167 .084c-.122 .07 -.264 .148 -.393 .154c-.72 .026 -.985 -.438 -1.088 -.695c-.27 .084 -.572 0 -.778 -.116c-.116 -.064 -.322 -.418 -.341 -.63a.757 .757 0 0 1 -.277 -.78c.07 -.276 .277 -.585 .85 -.527c.032 -.032 .064 -.058 .09 -.084a1.402 1.402 0 0 0 -.65 -.148a1.28 1.28 0 0 0 -.721 .2c.103 .16 .077 .405 -.058 .521a.982 .982 0 0 1 -.599 .232c-.128 0 -.238 -.039 -.302 -.116c-.142 -.155 -.039 -.418 .302 -.772a.354 .354 0 0 1 .27 -.123c.11 0 .2 .045 .252 .071c.012 .006 .019 .013 .025 .013c.213 -.187 .515 -.225 .734 -.225c.238 0 .49 .045 .689 .128a.61 .61 0 0 1 0 -.154a1.139 1.139 0 0 1 -.2 -.354a.357 .357 0 0 1 -.051 -.039c-.103 -.07 -.206 -.148 -.541 -.315c-.508 -.251 -.676 -.232 -.76 -.225c-.019 .006 -.032 .006 -.044 .006l-.058 .02c-.296 .109 -.747 .276 -1.352 -.374a.718 .718 0 0 1 -.18 -.334c-.103 .045 -.206 .045 -.348 .025c-.096 -.013 -.418 -.07 -.592 -.334a.634 .634 0 0 1 -.09 -.45c-.347 .012 -.611 -.245 -.746 -.516a.896 .896 0 0 1 -.052 -.65a.771 .771 0 0 1 -.335 -.425a1.237 1.237 0 0 1 .065 -.959c.141 -.27 .437 -.386 .65 -.399a.6 .6 0 0 1 .27 .039c.09 -.225 .245 -.418 .47 -.373c.02 -.039 .039 -.077 .07 -.103c.136 -.129 .258 -.193 .4 -.206a1.43 1.43 0 0 1 .141 -.689c-.006 -.013 -.006 -.02 -.013 -.026l-.006 -.019c-.225 -.45 -.592 -.695 -1.133 -.727c-.025 .238 -.302 .438 -.527 .444h-.033c-.405 0 -.823 -.155 -.836 -.502c-.02 -.322 .437 -.528 .869 -.58c.025 -.006 .045 -.006 .064 -.006c.315 0 .399 .31 .438 .444c.006 .02 .012 .039 .012 .045c.348 .007 .76 .116 1.05 .38a2.588 2.588 0 0 1 -.046 -.431c-.006 -.045 0 -.077 0 -.11a.29 .29 0 0 0 -.032 -.186a1.044 1.044 0 0 1 -.276 -.483l-.084 .007c-.187 0 -.348 -.09 -.515 -.284c-.161 -.193 -.277 -.579 -.155 -.9c-.263 -.026 -.444 -.149 -.547 -.38c-.141 -.316 -.122 -.599 .065 -.901c-.225 -.13 -.335 -.322 -.367 -.65a.935 .935 0 0 1 .257 -.702a.786 .786 0 0 1 -.141 -.38c-.039 -.386 .135 -.708 .463 -.856c.245 -.109 .49 -.115 .689 -.019a.688 .688 0 0 1 .354 .412a.481 .481 0 0 1 .277 .032a.57 .57 0 0 1 .231 .2a.698 .698 0 0 1 .354 -.354c-.154 -.27 -.212 -.419 -.141 -.785a.658 .658 0 0 1 .605 -.535c-.065 -.122 -.065 -.218 -.065 -.399c0 -.167 .007 -.296 .148 -.457c.161 -.18 .29 -.328 .56 -.334h.135c.12 .002 .242 .014 .335 .096c.148 -.186 .386 -.27 .714 -.257zm8.792 20.305a.178 .178 0 0 0 -.02 .084c0 .02 .007 .032 .007 .045l.174 .103c.283 .129 .72 .302 1.1 .302h.322c.219 0 .45 -.006 .554 -.115a.226 .226 0 0 0 .057 -.11c-.199 .077 -.508 .11 -.823 .11a3.3 3.3 0 0 1 -.515 -.033c-.296 -.038 -.689 -.141 -.856 -.386zm.714 -.154h-.083c-.193 0 -.342 .013 -.45 .038c.102 .135 .347 .238 .7 .29c.554 .077 1.114 0 1.281 -.084c-.07 -.09 -.257 -.122 -.489 -.148a7.88 7.88 0 0 1 -.141 -.02l-.058 -.005a4.389 4.389 0 0 0 -.76 -.071zm-2.317 -.74c-.09 .025 -.18 .051 -.27 .083c.097 .058 .193 .11 .29 .161c.45 .258 .881 .502 1.338 .702c.007 -.193 .123 -.296 .277 -.354a6.343 6.343 0 0 1 -1.635 -.592zm-3.462 -.045a.4 .4 0 0 1 -.09 .006c-.354 .006 -.605 .187 -.901 .393l-.065 .041l-.06 .039l.054 -.029l.058 -.032c.238 -.129 .489 -.27 1.068 -.316c.071 .007 .116 0 .18 0h.187c.15 .003 .4 .026 .405 .232c.007 .11 -.045 .258 -.302 .373c-.174 .078 -.373 .11 -.502 .11h-.142c-.2 0 -.43 -.013 -.688 -.026a1.714 1.714 0 0 1 -.477 -.09l-.122 -.039l-.032 .02c.045 .025 .09 .038 .154 .051c.052 .013 .11 .026 .174 .052c.213 .07 .419 .083 .605 .083h.213l.47 -.006c.186 -.006 .36 -.058 .476 -.161c.09 -.064 .206 -.18 .2 -.36c-.007 -.251 -.355 -.316 -.516 -.335c-.096 0 -.25 0 -.347 -.006zm.405 .25h-.315c-.54 .04 -.76 .168 -.998 .297c-.038 .019 -.077 .038 -.122 .064c.084 .02 .155 .026 .257 .032l.125 .007l.004 -.001l-.053 -.007a.817 .817 0 0 1 -.066 -.014l-.08 -.024l-.11 -.032l.103 -.045c.238 -.103 .605 -.193 .818 -.2h.012c.033 0 .097 -.006 .168 -.019c.09 -.012 .186 -.025 .264 -.025c.116 0 .173 .032 .173 .103c.007 .212 -.489 .283 -.617 .29h.083c.148 0 .322 -.04 .444 -.097c.103 -.045 .22 -.123 .22 -.238c0 -.058 -.104 -.09 -.31 -.09zm3.63 -1.158l-.167 .084c-.876 .463 -1.513 .791 -2.581 .81c-.16 0 -.264 .007 -.367 .014a.45 .45 0 0 1 .174 .354c0 .09 -.02 .18 -.052 .257c.322 -.116 .644 -.219 .972 -.322c.168 -.045 .335 -.103 .502 -.154c.129 -.045 .258 -.09 .38 -.129c.399 -.148 .779 -.283 1.249 -.251c.057 -.02 .103 -.032 .148 -.045c.109 -.039 .186 -.058 .257 -.11a.467 .467 0 0 1 -.154 -.07l-.078 -.045l.032 -.084c.052 -.129 .078 -.167 .11 -.2c-.116 .007 -.206 -.025 -.335 -.077a.78 .78 0 0 1 -.09 -.032zm-3.623 1.287c-.071 0 -.168 .013 -.251 .026c-.071 .006 -.135 .02 -.18 .02h-.013c-.161 .006 -.438 .07 -.663 .147c.045 .007 .083 .007 .135 .013c.154 .007 .29 .013 .405 .013c.033 0 .065 -.006 .084 .006c.193 0 .573 -.096 .573 -.205c-.007 -.007 -.013 -.02 -.09 -.02zm6.403 -3.662a.875 .875 0 0 1 -.508 .129c-.084 .006 -.167 .006 -.277 .026a1.678 1.678 0 0 0 -.888 .502l-.064 .07c-.238 .245 -.457 .477 -.625 .753c-.199 .342 -.238 .432 -.29 .708c.007 .007 .02 .007 .027 .013c.18 .071 .231 .09 .47 .007l.315 -.11l-.193 .277s-.078 .11 -.123 .18c-.025 .039 -.045 .052 -.058 .071c-.006 .013 -.012 .02 -.025 .039c.051 .013 .11 .013 .186 .013l.213 -.007l-.123 .174a.913 .913 0 0 1 -.115 .141c.122 .007 .276 .026 .437 .046c.29 .038 .625 .077 .895 .077c.122 0 .212 -.013 .29 -.026c.186 -.039 .328 -.077 .45 -.11c.29 -.07 .502 -.128 1.068 -.128h.039c.026 0 .039 .013 .039 .038c0 .026 -.02 .04 -.039 .04h-.013c-.457 0 -.727 .128 -.991 .244c-.219 .096 -.425 .193 -.714 .218c-.058 .007 -.116 .007 -.174 .007c-.354 0 -.618 -.103 -.85 -.193c-.174 -.07 -.315 -.129 -.47 -.135c-.012 0 -.019 -.013 -.025 -.02a.74 .74 0 0 1 -.277 .136c.18 .109 .348 .18 .63 .263c.355 .103 .51 .142 .876 .232c.11 .02 .367 .045 .483 .045c.598 -.006 .81 -.186 1.287 -.58c.141 -.115 .322 -.199 .547 -.25a1.486 1.486 0 0 0 -.406 -.341c-.315 -.193 -.572 -.258 -1.004 -.077l-.096 -.193c.122 -.065 .225 -.194 .328 -.316c.065 -.077 .129 -.154 .18 -.225c.168 -.155 .457 -.521 .573 -.76c-.032 0 -.064 -.006 -.096 -.006c-.148 -.013 -.354 -.026 -.445 .006c-.154 .052 -.205 .09 -.27 .136c-.077 .051 -.167 .115 -.399 .2l-.277 .199l-.148 -.155c.071 -.09 .136 -.167 .193 -.232a1.31 1.31 0 0 0 .316 -.476c.09 -.244 .135 -.437 .141 -.65zm-18.844 -1.48l.026 .006c.013 .013 .02 .013 .155 .142c.09 .084 .218 .25 .405 .521c.18 .264 .354 .56 .502 .876c.322 .598 .393 1.158 .206 1.66c-.187 .496 -.483 .85 -.882 1.062a2.12 2.12 0 0 1 -1.004 .27a1.9 1.9 0 0 1 -.624 -.11a2.122 2.122 0 0 1 -1.197 -1.029a4.45 4.45 0 0 1 -.348 -.83c-.064 -.238 -.09 -.431 -.077 -.573c.004 -.073 .005 -.121 .006 -.152v-.041c-.012 -.006 -.032 -.02 -.057 -.032c-.084 -.032 -.103 -.058 -.116 -.077c-.02 -.033 -.02 -.078 .032 -.116l.174 -.097l.611 -.354c.032 -.02 .07 -.013 .103 .007c.026 .013 .052 .038 .077 .09c.026 .038 .02 .09 -.244 .373a.946 .946 0 0 0 -.258 .656c-.006 .264 .078 .573 .251 .901c.174 .322 .477 .548 .908 .663c.431 .116 .894 .039 1.396 -.225c.464 -.244 .747 -.586 .856 -.997a1.584 1.584 0 0 0 -.135 -1.165c-.141 -.264 -.264 -.45 -.373 -.554c-.097 -.09 -.2 -.103 -.309 -.045l-.702 .373c-.025 .013 -.045 .033 -.032 .09c.007 .046 .039 .142 .155 .361c.103 .193 .122 .25 .128 .277c.007 .064 -.019 .11 -.07 .135c-.065 .038 -.136 .006 -.18 -.077l-.464 -.889l-.399 -.727c-.02 -.045 -.013 -.07 0 -.09a.14 .14 0 0 1 .064 -.058a.194 .194 0 0 1 .09 -.026l.026 .007c.026 .006 .052 .032 .09 .11c.116 .212 .18 .276 .213 .289c.045 .026 .09 .026 .148 -.007l.637 -.334a.124 .124 0 0 0 .07 -.103c.014 -.09 .026 -.122 .059 -.142a.168 .168 0 0 1 .07 -.02h.013zm9.37 1.635a1.042 1.042 0 0 0 -.09 .019c-.096 .02 -.102 .02 -.328 .232l-.038 .038l-.052 -.006c-.373 -.052 -.585 .064 -.663 .36a.545 .545 0 0 0 .239 .573l.07 .045l-.019 .077c-.013 .078 .154 .419 .232 .47c.18 .103 .463 .18 .682 .065l.116 -.058l.038 .122c.11 .322 .31 .682 .914 .656c.078 -.006 .2 -.07 .296 -.128c.11 -.058 .193 -.11 .277 -.123l.039 -.006l.032 .02s.244 .14 .425 .224c.424 .2 .76 -.167 .823 -.244c.142 -.148 .38 -.032 .573 .064l.093 .043c.03 .014 .055 .025 .068 .028c.612 .058 .715 .09 1.146 .232l.116 .045c.077 -.02 .154 -.045 .225 -.071c-.4 -.206 -1.152 -.624 -1.377 -.792c-.09 -.064 -.148 -.18 -.213 -.315c-.148 -.302 -.315 -.656 -.959 -.618c-.096 .026 -.463 .11 -.611 -.013a1.747 1.747 0 0 1 -.258 -.276c-.135 -.168 -.27 -.329 -.43 -.329c-.04 .007 -.072 0 -.11 0c-.097 -.006 -.2 -.006 -.258 .039l-.083 .07l-.071 -.09c-.238 -.289 -.406 -.463 -.843 -.353zm4.081 1.776a17.39 17.39 0 0 0 1.422 .792a1.13 1.13 0 0 1 .084 -.039a11.09 11.09 0 0 0 -1.506 -.753zm5.24 -.18c.012 .013 0 .038 -.013 .045c-.033 .013 -.766 .444 -1.127 .592a8.633 8.633 0 0 1 -.753 .25h-.013c-.012 0 -.025 -.012 -.032 -.025c-.006 -.02 .007 -.038 .02 -.045c.004 -.004 .203 -.107 .43 -.218l.199 -.095l.188 -.086c.315 -.135 1.055 -.438 1.062 -.444c.02 -.013 .039 0 .039 .026zm-9.7 -3.14c-.051 .038 -.135 .186 -.148 .385a.783 .783 0 0 0 .238 .644l.052 .051l-.033 .071s-.032 .084 .04 .219c.038 -.013 .07 -.026 .115 -.032l.084 -.02c.508 -.128 .759 .071 1.004 .36a.747 .747 0 0 1 .309 -.031h.09c.128 0 .231 .045 .328 .115c.013 0 .032 .007 .058 .007a1.195 1.195 0 0 1 -.251 -.2a11.92 11.92 0 0 0 -.522 -.167c-.019 0 -.032 -.02 -.032 -.039s.02 -.032 .039 -.032l.238 .026a4.084 4.084 0 0 0 -.386 -.27c-.045 -.026 -.103 -.058 -.167 -.103c-.142 -.09 -.541 -.438 -.56 -.45c-.013 -.014 -.02 -.04 -.007 -.052c.013 -.013 .039 -.02 .052 -.007l.057 .039c.123 .082 .413 .275 .528 .335l.123 .07c.038 .026 .09 .052 .122 .078c.006 -.039 -.007 -.058 -.026 -.097a.14 .14 0 0 1 -.02 -.032a2.755 2.755 0 0 0 -.147 -.238c-.013 -.02 -.007 -.039 .006 -.052c.02 -.013 .039 -.006 .052 .007c.006 .006 .141 .167 .186 .225a.519 .519 0 0 1 .116 .283c.039 .032 .148 .129 .225 .193c.02 .02 .046 .032 .065 .052a1.793 1.793 0 0 0 -.084 -.2c-.006 -.02 0 -.032 .013 -.045a.031 .031 0 0 1 .045 0c.064 .052 .212 .187 .258 .27c.025 .039 .083 .194 .103 .239c.096 .058 .199 .122 .263 .154c-.006 -.039 -.006 -.064 .007 -.077a.05 .05 0 0 1 .032 -.013c.032 0 .051 .026 .097 .09a.738 .738 0 0 0 .09 .11c.038 .038 .109 .096 .18 .147c.084 .065 .167 .123 .2 .168c.006 .013 .012 .02 .012 .032c0 .02 -.013 .039 -.038 .039c-.007 0 -.013 -.007 -.02 -.007c0 0 -.405 -.206 -.598 -.309c-.013 -.006 -.09 -.026 -.155 -.045c.052 .058 .097 .11 .142 .168c.077 .096 .148 .18 .225 .244c.032 .02 .206 .026 .431 -.032h.02c.778 -.045 1.017 .405 1.171 .72c.257 .084 1.055 .38 2.002 .973c.045 -.02 .096 -.045 .148 -.071c-.406 -.219 -1.262 -.702 -1.436 -.946a.939 .939 0 0 0 -.334 -.258c-.11 -.051 -.206 -.11 -.251 -.206c-.142 -.328 -.419 -.392 -.599 -.43c-.045 -.014 -.09 -.02 -.116 -.033l-.058 -.02l-.012 -.064c-.058 -.296 -.284 -.727 -.554 -.914c-.257 -.18 -.553 -.34 -.81 -.231l-.11 .045l-.039 -.11c-.148 -.405 -.29 -.618 -.682 -.643c-.07 -.007 -.129 -.02 -.187 -.032c-.148 -.033 -.186 -.033 -.238 .032l-.09 .116l-.084 -.116a.542 .542 0 0 0 -.347 -.213c-.142 -.019 -.283 .026 -.425 .13zm.631 2.16l.02 .001c.006 0 .121 .058 .186 .11a.61 .61 0 0 1 .154 .174a.826 .826 0 0 1 .045 .103c.045 .019 .193 .103 .296 .148c.032 .013 .065 .032 .097 .045c-.045 -.071 -.103 -.135 -.103 -.135c-.007 -.013 -.013 -.033 0 -.046c.013 -.012 .032 -.019 .045 -.012a.574 .574 0 0 1 .27 .212c.013 .02 .02 .032 .039 .052a.979 .979 0 0 0 .167 .115c.097 .033 .251 .084 .341 .103l-.013 -.013a.069 .069 0 0 1 -.006 -.07c.006 -.013 .02 -.02 .039 -.02c.038 0 .096 .039 .218 .129c.045 .032 .09 .064 .123 .084c.116 .07 .231 .154 .309 .225c0 0 .212 .116 .476 .135c.02 0 .038 .02 .02 .032c0 .026 -.02 .039 -.04 .039c-.398 -.007 -.695 -.142 -.907 -.245a1.732 1.732 0 0 0 -.25 -.103c-.014 0 -.117 -.006 -.188 -.006h-.122a.369 .369 0 0 1 -.083 -.006c-.033 -.013 -.033 -.04 -.033 -.046c0 -.038 .02 -.038 .13 -.051a1.419 1.419 0 0 1 -.368 -.135l-.084 .003l-.177 .006l-.292 .01c-.02 .007 -.032 -.006 -.039 -.026c0 -.019 .007 -.038 .026 -.045l.302 -.096a3.59 3.59 0 0 0 -.534 -.206c-.064 -.02 -.129 -.045 -.212 -.071l-.145 -.048l-.312 -.1c-.02 0 -.032 -.02 -.026 -.039c.006 -.019 .02 -.032 .039 -.032c.013 .007 .302 .026 .482 .065c.065 .012 .097 .019 .155 .038c.051 .013 .116 .039 .16 .052c-.006 -.045 -.025 -.065 -.057 -.103a.14 .14 0 0 1 -.026 -.032c-.045 -.058 -.142 -.136 -.142 -.136c-.012 -.006 -.012 -.025 -.006 -.045c.006 -.013 .026 -.019 .045 -.013zm8.54 -.443a.04 .04 0 0 1 -.006 .045c-.708 .625 -1.249 1.333 -1.487 1.764a.035 .035 0 0 1 -.032 .02c-.006 0 -.013 0 -.02 -.007a.035 .035 0 0 1 -.018 -.032c0 -.007 0 -.013 .006 -.02c.032 -.058 .064 -.128 .11 -.218c.212 -.438 .566 -1.165 1.402 -1.564c.013 -.007 .04 0 .046 .012zm5.342 -.701a2.65 2.65 0 0 0 -.341 .084c-.097 .392 -.232 .675 -.483 .888c-.09 .07 -.141 .122 -.18 .16c-.058 .052 -.103 .097 -.193 .162c-.135 .096 -.27 .167 -.367 .218c-.187 .097 -.476 .161 -.94 .2c.264 .032 .554 .064 .792 .064c.116 0 .213 -.013 .283 -.025c.625 -.123 .908 -.31 1.706 -.985c.02 -.013 .038 -.013 .051 0a.04 .04 0 0 1 0 .051c-.675 .779 -1.21 1.01 -1.892 1.146a1.36 1.36 0 0 1 -.167 .013c-.225 0 -.502 -.065 -.773 -.135a4.402 4.402 0 0 0 -.482 -.103c.257 .263 .637 .457 .74 .47c.528 .064 .58 .064 1.1 0c.284 -.04 .49 -.187 .696 -.335c.07 -.052 .135 -.103 .2 -.142c.186 -.116 .475 -.412 .578 -.592c.084 -.148 .148 -.27 .2 -.367c.16 -.309 .225 -.437 .573 -.67a.843 .843 0 0 0 -.303 -.109a2.538 2.538 0 0 0 -.798 .007zm-.174 -1.77c-.058 .026 -.122 .052 -.2 .084c-.83 .34 -2.548 1.055 -3.108 2.62l-.167 -.059c0 .077 -.07 .103 -.406 .232c-.019 .006 -.045 .013 -.07 .026c.115 -.007 .25 0 .38 .006l.122 .008c.038 .002 .07 .002 .083 -.001l.039 -.013c.058 -.161 .373 -1.062 .965 -1.416c.264 -.161 .728 -.328 .747 -.335c.02 -.006 .038 0 .045 .02c.013 .012 0 .038 -.013 .044c-.006 0 -.624 .348 -.94 .657c-.283 .283 -.579 .785 -.695 .991l.026 -.006l-.032 .18c-.032 .2 -.245 .508 -.438 .74c.354 -.142 .657 -.322 .663 -.322l.077 -.051l.02 .019c.038 .006 .077 .006 .122 .013l-.006 -.142c.456 -.02 1.01 -.064 1.28 -.206a3.01 3.01 0 0 0 .335 -.2a1.36 1.36 0 0 0 .167 -.14c.045 -.04 .097 -.091 .187 -.168c.29 -.251 .399 -.624 .508 -1.23c.033 -.205 .116 -.61 .168 -.836c0 -.007 .013 -.026 .019 -.064c.058 -.206 .097 -.354 .122 -.451zm7.1 -.026c.019 -.051 .076 -.064 .166 -.02c.11 .052 .026 .22 -.006 .284a.18 .18 0 0 0 -.013 .129c.007 .032 .039 .083 .122 .174l2.427 2.625c.026 .026 .051 .078 .006 .174a.153 .153 0 0 1 -.141 .084l-3.617 -.251a.388 .388 0 0 0 -.193 .045a.553 .553 0 0 0 -.142 .193a.45 .45 0 0 1 -.077 .116c-.026 .026 -.052 .038 -.077 .038h-.013l-.026 -.006c-.129 -.064 -.103 -.142 -.09 -.174l.347 -.682l.348 -.74c.02 -.039 .058 -.052 .116 -.032c.032 .006 .051 .013 .058 .02c.025 .012 .07 .05 .045 .14a.838 .838 0 0 1 -.065 .168c-.058 .122 -.07 .174 -.077 .2c0 .012 0 .025 .026 .038c.02 .007 .096 .032 .438 .052l.669 .045l.483 -.985c.051 -.097 .051 -.122 .051 -.129c0 0 -.02 -.038 -.154 -.193a5.893 5.893 0 0 0 -.342 -.347c-.135 -.136 -.193 -.174 -.212 -.18c-.045 -.02 -.084 -.026 -.11 -.007c-.025 .013 -.064 .051 -.115 .154a1.563 1.563 0 0 1 -.148 .27c-.045 .052 -.097 .072 -.142 .046a.132 .132 0 0 1 -.077 -.065a.146 .146 0 0 1 .006 -.103l.348 -.688zm-7.931 2.16l.014 .01c.013 .012 .02 .038 .007 .05c-.026 .04 -.67 .882 -1.41 1.018a5.095 5.095 0 0 1 -.754 .057h-.063c-.02 0 -.039 -.012 -.039 -.032c0 -.019 .013 -.032 .033 -.038c.006 0 .708 -.116 1.107 -.296c.456 -.213 1.061 -.753 1.068 -.76l.019 -.008h.018zm.027 -.712c.013 .02 .013 .039 0 .052c-.006 .006 -.862 .869 -1.519 1.248c-.27 .155 -.708 .354 -.714 .354c-.007 0 -.007 .007 -.013 0a.035 .035 0 0 1 -.032 -.019a.034 .034 0 0 1 .013 -.045s.463 -.302 .746 -.502a45.558 45.558 0 0 0 1.467 -1.094a.039 .039 0 0 1 .052 .006zm8.894 .283c-.013 .02 -.038 .052 -.077 .136l-.38 .778l1.448 .13c-.064 -.072 -.186 -.213 -.437 -.477c-.419 -.45 -.528 -.547 -.554 -.567zm-10.066 -2.232l-.01 .057a.928 .928 0 0 1 -.138 .29c-.231 .367 -.399 .534 -.579 .714c-.032 .032 -.07 .065 -.103 .103l-.135 .135c-.084 .09 -.154 .161 -.251 .277c-.032 .039 -.058 .07 -.084 .097c-.051 .058 -.09 .096 -.154 .244c-.11 .258 -.122 .58 -.103 .856c.02 -.058 .032 -.116 .051 -.186c.11 -.445 .27 -1.114 1.255 -1.661a.05 .05 0 0 1 .052 .013a.05 .05 0 0 1 -.013 .051c-.734 .502 -1.036 1.243 -1.216 1.687c-.039 .096 -.071 .18 -.103 .244c0 .065 .013 .116 .019 .168c.341 -.889 1.03 -1.513 1.718 -1.944c.052 -.438 -.045 -.83 -.128 -.978a1.274 1.274 0 0 1 -.058 -.12l-.02 -.047zm-6.963 -17.867c.038 .007 .077 .007 .11 .02a.36 .36 0 0 1 .096 .064a.29 .29 0 0 1 .064 .09c.02 .032 .026 .07 .026 .11v.05c-.007 0 -.007 .007 -.007 .014l.22 .334l.257 -.173c0 -.026 .013 -.052 .019 -.071a.457 .457 0 0 1 .064 -.09a.27 .27 0 0 1 .193 -.077a.3 .3 0 0 1 .11 .019a.36 .36 0 0 1 .096 .064a.29 .29 0 0 1 .065 .09a.215 .215 0 0 1 .025 .11a.3 .3 0 0 1 -.019 .11a.36 .36 0 0 1 -.064 .096a.42 .42 0 0 1 -.097 .064a.212 .212 0 0 1 -.11 .026c-.012 0 -.019 .006 -.025 0c-.006 -.007 -.02 -.007 -.026 -.007h-.013l-.257 .174l.257 .393c.058 0 .103 .006 .148 .025c.052 .02 .09 .052 .13 .084a.412 .412 0 0 1 .083 .122c.02 .052 .032 .097 .032 .148a.377 .377 0 0 1 -.026 .148c-.013 .026 -.025 .052 -.045 .078h1.384c.013 0 .026 .006 .039 .013l2.181 1.396c.013 .013 .026 .026 .033 .045l.173 .592c.02 0 .045 -.006 .065 -.006c.135 0 .244 .11 .244 .25a.26 .26 0 0 1 -.148 .233l.238 .791v-.676a.219 .219 0 0 1 .11 -.412a.22 .22 0 0 1 .225 .22a.224 .224 0 0 1 -.11 .192l.007 1.642c.167 .122 .219 .347 .193 .534c-.026 .154 -.09 .276 -.193 .34v.432h.689v8.328c0 .296 -.058 .599 -.155 .895l-.006 .02c-.522 1.53 -2.272 2.927 -4.35 3.34l-.052 .012c-.264 .058 -.592 .122 -.78 .225l-.057 .033l-.058 -.033c-.187 -.109 -.515 -.173 -.779 -.225l-.051 -.013c-1.693 -.334 -3.173 -1.332 -3.945 -2.516h-.033v-.02c-.354 -.547 -.553 -1.132 -.553 -1.718v-8.322h.689v-.43c-.103 -.065 -.174 -.181 -.194 -.342c-.025 -.186 .033 -.412 .194 -.534v-1.641a.234 .234 0 0 1 -.103 -.193c0 -.123 .096 -.22 .225 -.22s.225 .097 .225 .22a.224 .224 0 0 1 -.11 .193v.681l.239 -.79a.264 .264 0 0 1 -.135 -.173l-.007 -.06a.25 .25 0 0 1 .31 -.244l.173 -.592c.006 -.02 .02 -.032 .032 -.045l2.182 -1.397a.069 .069 0 0 1 .038 -.012h1.294c-.013 -.026 -.026 -.046 -.039 -.071a.409 .409 0 0 1 -.032 -.148v-.052c.007 -.02 .007 -.032 .013 -.051l.02 -.052l-.252 -.392l-.27 .18a.13 .13 0 0 1 -.02 .07a.324 .324 0 0 1 -.063 .09a.27 .27 0 0 1 -.194 .078a.3 .3 0 0 1 -.109 -.02c-.039 -.019 -.07 -.031 -.097 -.064c-.025 -.032 -.051 -.058 -.064 -.096a.212 .212 0 0 1 -.026 -.11c0 -.038 .007 -.07 .02 -.109a.36 .36 0 0 1 .064 -.097c.032 -.025 .058 -.051 .097 -.064a.212 .212 0 0 1 .109 -.026h.064l.27 -.18l-.218 -.335a.444 .444 0 0 1 -.065 -.025c-.032 -.02 -.064 -.039 -.09 -.065a.27 .27 0 0 1 -.077 -.193c0 -.032 .007 -.07 .02 -.11a.36 .36 0 0 1 .064 -.096a.255 .255 0 0 1 .096 -.064a.212 .212 0 0 1 .11 -.026zm.927 18.748h-3.386a6.367 6.367 0 0 0 2.658 1.204l.052 .012c.225 .046 .476 .097 .676 .174v-1.39zm.231 .444v.367l.49 .45l.18 -.038l.051 -.013l.103 -.02l-.824 -.746zm-.006 -.688v.38l1.094 .99a4.32 4.32 0 0 0 .322 -.09l-1.416 -1.28zm0 -.67v.354l1.667 1.513c.09 -.04 .18 -.071 .27 -.11l-1.937 -1.757zm-10.607 -2.999c-.122 .013 -.212 .264 -.238 .36l-.058 .226l-.135 -.187c-.026 -.032 -.103 -.064 -.225 -.058c-.155 .013 -.373 .097 -.476 .29a1.05 1.05 0 0 0 -.052 .778c.039 .116 .129 .27 .303 .348l.103 .045l-.045 .103a.697 .697 0 0 0 .006 .56c.039 .084 .264 .483 .663 .38l.187 -.052l-.058 .187c-.052 .174 -.039 .322 .032 .431c.096 .148 .283 .219 .431 .238c.187 .02 .225 .013 .322 -.084l.18 -.18l.006 .258c0 .006 .007 .231 .149 .386c.508 .54 .83 .425 1.113 .315l.077 -.032l.026 -.006h.058c.11 -.007 .315 -.033 .875 .244c.219 .11 .348 .187 .444 .232c-.006 -.039 0 -.077 0 -.116c0 -.026 0 -.045 .007 -.07c-.142 -.09 -.535 -.323 -.78 -.522l-.025 -.026c-.006 -.006 -.02 -.013 -.032 -.026a1.585 1.585 0 0 0 -.348 -.173a.975 .975 0 0 0 -.238 -.007c-.225 .013 -.482 .02 -.778 -.25a1.592 1.592 0 0 1 -.174 -.194c0 .013 0 .026 -.007 .039c-.006 .006 -.013 .013 -.025 .013c-.007 0 -.013 0 -.02 -.007a.615 .615 0 0 0 -.283 -.07a.493 .493 0 0 0 -.232 .05c-.019 .007 -.032 .007 -.045 -.006a.04 .04 0 0 1 -.006 -.045c0 -.006 .032 -.051 .058 -.083a.278 .278 0 0 1 .167 -.084h.026a1.32 1.32 0 0 1 -.155 -.167c-.051 -.071 -.07 -.116 -.109 -.187l-.006 -.02c-.033 -.05 -.045 -.096 -.058 -.134c-.02 -.045 -.032 -.084 -.058 -.136a2.593 2.593 0 0 0 -.161 -.25s-.045 -.052 -.077 -.078c-.045 -.032 -.065 -.051 -.116 -.064c-.02 -.007 -.032 -.007 -.052 -.007h-.051c-.058 0 -.103 0 -.168 .026a.362 .362 0 0 0 -.09 .065a.055 .055 0 0 1 -.045 0c-.013 -.007 -.019 -.026 -.013 -.04c.04 -.128 .155 -.192 .322 -.192c.045 0 .084 .006 .116 .013c-.026 -.039 -.051 -.078 -.077 -.11c-.077 -.11 -.213 -.276 -.213 -.276s-.051 -.078 -.148 -.103c-.045 -.02 -.077 -.02 -.128 -.026a.843 .843 0 0 0 -.11 -.007c-.019 0 -.038 -.012 -.038 -.032c0 -.013 .006 -.032 .025 -.038c0 0 .09 -.033 .155 -.033c.038 0 .07 .007 .103 .013l.026 .007c.012 0 .025 .006 .045 .006a.653 .653 0 0 1 -.084 -.116l-.013 -.032a1.777 1.777 0 0 1 -.051 -.11a1.711 1.711 0 0 1 -.071 -.424c0 -.02 .013 -.039 .032 -.039c.02 -.006 .032 .007 .039 .026c0 0 .07 .277 .135 .438c.09 .212 .167 .309 .283 .457c.058 .083 .135 .173 .225 .309l.007 .013a1.37 1.37 0 0 1 -.02 -.625a.702 .702 0 0 1 .071 -.174c-.283 -.122 -.347 -.38 -.386 -.527l-.013 -.039a1.52 1.52 0 0 1 -.026 -.592zm10.613 2.356v.328l2.17 1.97c.076 -.033 .154 -.072 .237 -.117l-2.407 -2.181zm.052 -.631l-.058 .077v.245l2.626 2.38c.083 -.044 .16 -.096 .244 -.147l-2.812 -2.555zm-9.635 -3.012c-.212 .116 -.315 .682 -.257 .856l.058 .174l-.18 -.033c-.116 -.019 -.213 -.006 -.361 .142c-.103 .103 -.11 .496 -.064 .689l.013 .045c.038 .167 .09 .366 .392 .418l.31 .051l-.271 .155c-.045 .026 -.084 .09 -.11 .187c-.058 .225 -.013 .54 .103 .72c.148 .239 .348 .264 .554 .284c.032 .006 .07 .006 .103 .012l.154 .02l-.077 .135c-.206 .386 .058 .714 .232 .875c.231 .206 .412 .2 .624 .193c.09 -.006 .187 -.006 .29 .007l.019 .006c.013 .007 .27 .103 .418 .213c.02 .012 .032 .019 .045 .032l.026 .019c.206 .174 .528 .373 .695 .47l.039 -.084c-.264 -.309 -.419 -.495 -.393 -.914l.007 -.103c.045 -.637 .045 -.766 -.194 -.9l-.115 -.065l.09 -.103c.296 -.335 .457 -.843 .116 -1.159a1.125 1.125 0 0 0 -.316 -.173l-.186 -.071l.16 -.122c.071 -.052 .103 -.161 .11 -.239c.026 -.238 -.064 -.572 -.206 -.746c-.122 -.142 -.296 -.193 -.56 -.148l-.116 .02l-.006 -.117a.87 .87 0 0 0 -.09 -.354l-.039 -.045a.523 .523 0 0 0 -.225 -.231c-.026 -.013 -.052 -.026 -.084 -.045c-.193 -.11 -.418 -.232 -.708 -.071zm10.014 2.697a.845 .845 0 0 0 -.225 .147l2.858 2.594c.077 -.045 .148 -.096 .219 -.154l-2.853 -2.587zm-8.07 -2.55c-.077 .033 -.161 .181 -.213 .265c-.051 .096 -.096 .167 -.18 .16a.136 .136 0 0 1 -.103 -.083c-.02 -.039 -.077 -.052 -.148 -.052c.013 .058 .032 .116 .039 .174c.283 -.026 .495 .058 .65 .238c.186 .22 .296 .612 .257 .914a.64 .64 0 0 1 -.083 .258a.87 .87 0 0 1 .244 .154c.36 .335 .348 .888 -.02 1.371c.252 .2 .233 .47 .194 1.036l-.006 .103c-.02 .303 .077 .444 .283 .689c-.22 -.567 -.283 -.753 -.084 -1.127l.02 -.038l.044 -.013c.36 -.11 .592 -.463 .599 -.927c.006 -.167 -.122 -.502 -.219 -.547l-.116 -.051l.065 -.11c.115 -.193 .225 -.418 .167 -.63c-.097 -.354 -.283 -.541 -.605 -.599l-.16 -.026l.083 -.135a.566 .566 0 0 0 .083 -.333v-.175c0 -.155 -.07 -.374 -.238 -.49c-.141 -.102 -.328 -.109 -.553 -.025zm8.347 2.492l2.761 2.503c.077 -.058 .148 -.122 .219 -.174l-1.886 -1.712l.026 .116l-.225 .032c-.052 -.334 -.374 -.669 -.721 -.746a.718 .718 0 0 0 -.174 -.02zm-3.076 .997h-.29v1.345h.29v-1.344zm-1.043 0h-.29v1.345h.29v-1.344zm3.18 0h-.348v1.345h.348v-1.344zm-.58 0h-.29v1.345h.29v-1.344zm-.521 0h-.29v1.345h.29v-1.344zm-.515 0h-.29v1.345h.29v-1.344zm-1.043 0h-.29v1.345h.29v-1.344zm-1.036 0h-.29v1.043c.09 .096 .187 .186 .29 .277v-1.32zm11.36 .328c.019 .193 -.007 .47 -.142 .856c.071 -.032 .142 -.058 .206 -.083c.174 -.078 .315 -.13 .386 -.174l.032 -.02a.884 .884 0 0 1 -.354 -.334a9.165 9.165 0 0 1 -.128 -.245zm-5.908 -1.621a.827 .827 0 0 0 -.13 .225l2.46 2.233c.064 -.058 .122 -.122 .18 -.18l-2.51 -2.278zm-10.826 -1.636c.012 -.007 .032 .006 .038 .026l.27 1.17a.055 .055 0 0 0 .04 -.025c.109 -.141 .475 -.34 .488 -.347c.013 -.007 .032 0 .045 .013c.007 .019 .007 .038 -.013 .051c0 .006 -.263 .193 -.334 .277l-.039 .038c-.07 .084 -.122 .142 -.148 .258c-.006 .038 0 .051 .007 .07c.006 .02 .019 .04 .019 .084c.013 .155 .039 .238 .084 .386l.006 .026c.051 .167 .148 .412 .206 .554a.437 .437 0 0 1 .045 -.13c.045 -.076 .264 -.314 .27 -.327a.034 .034 0 0 1 .052 -.007c.013 .013 .02 .039 .006 .052c-.07 .09 -.244 .354 -.264 .463a.682 .682 0 0 0 .02 .27c.083 .354 .276 .65 .424 .837l.13 .148a.04 .04 0 0 1 0 .052c-.007 .006 -.02 .006 -.027 .006a.049 .049 0 0 1 -.025 -.013s-.052 -.051 -.129 -.148c-.167 -.193 -.463 -.56 -.63 -.856c-.052 -.096 -.084 -.186 -.117 -.27a.802 .802 0 0 0 -.141 -.277c-.11 -.116 -.49 -.244 -.496 -.244c-.02 -.007 -.032 -.026 -.025 -.046c0 -.019 .019 -.025 .038 -.025c.013 .006 .36 .058 .47 .141c.039 .026 .07 .052 .096 .084a3.214 3.214 0 0 1 -.187 -.727l-.205 -.213l-.547 -.347c-.02 -.013 -.02 -.032 -.013 -.052c.006 -.013 .026 -.019 .045 -.013c.02 .007 .463 .2 .573 .284c.032 .019 .051 .013 .064 0l-.129 -1.185c0 -.019 .013 -.032 .033 -.038zm-10.877 -.065a.117 .117 0 0 1 .135 .065c.013 .038 .026 .096 .039 .167c.013 .11 .051 .193 .103 .264c.045 .064 .141 .116 .29 .167l1.621 .625c.103 .038 .174 .064 .225 .07h.013c.052 0 .142 -.012 .264 -.032l.811 -.148c.058 -.006 .103 -.032 .122 -.077c.013 -.026 .026 -.11 -.012 -.36c-.02 -.09 -.013 -.136 .006 -.168c0 -.013 .026 -.045 .097 -.058c.096 -.013 .128 .032 .135 .078l.128 .868l.148 .856a.1 .1 0 0 1 -.012 .078l-.02 .019a.25 .25 0 0 1 -.07 .02c-.059 .012 -.09 0 -.116 -.027c-.026 -.012 -.045 -.064 -.058 -.154c-.033 -.245 -.078 -.322 -.097 -.348a.177 .177 0 0 0 -.141 -.038l-.824 .116c-.142 .025 -.2 .038 -.22 .045c-.025 .013 -.05 .026 -.063 .038l-1.674 1.313c-.064 .052 -.103 .097 -.11 .142a.773 .773 0 0 0 .007 .206l.02 .116c-.007 .045 -.026 .103 -.123 .116h-.025c-.033 0 -.11 -.013 -.13 -.13l-.09 -.688l-.134 -.734a.272 .272 0 0 1 0 -.103c0 -.019 .019 -.064 .109 -.077c.051 -.013 .09 0 .116 .026c.02 .02 .032 .045 .045 .142c.02 .122 .045 .173 .064 .2c.02 .031 .045 .038 .084 .031c.013 -.006 .064 -.019 .29 -.18c.16 -.122 .38 -.283 .65 -.495l.463 -.367l.02 -.02c-.052 -.032 -.181 -.09 -.516 -.212a17.627 17.627 0 0 0 -.836 -.296c-.193 -.064 -.27 -.077 -.303 -.077c-.051 .013 -.077 .025 -.096 .051c-.007 .007 -.026 .052 -.007 .161c.02 .155 .02 .2 .02 .219c-.007 .032 -.026 .084 -.11 .096c-.084 .013 -.135 -.025 -.148 -.103l-.07 -.585l-.13 -.67c-.006 -.077 .033 -.135 .11 -.148zm10.24 3.09c.038 .07 .076 .141 .109 .212c.109 .219 .212 .425 .386 .534l.013 .013l.016 .028l-.044 -.1a.769 .769 0 0 1 -.039 -.423l.028 -.103a.877 .877 0 0 1 -.47 -.161zm12.015 -1.551h-.386l2.497 2.265c.058 -.064 .11 -.135 .167 -.206l-2.284 -2.053zm6.848 -3.244c-.354 .347 -1.564 1.712 -1.525 3.958c0 .02 -.052 .521 .354 1.197c.141 .232 .373 .348 .707 .348c.04 0 .078 -.007 .11 -.007c.006 0 .02 -.006 .026 -.013l.006 .013c.032 0 .058 -.006 .084 -.006c.026 0 .045 -.007 .064 -.007c.328 -.02 .618 -.437 .785 -.824c.187 -.444 .193 -.823 .2 -1.3l.006 -.193a7.477 7.477 0 0 0 -.051 -1.113a4.491 4.491 0 0 0 -.226 -.933a7.646 7.646 0 0 0 -.54 -1.12zm-13.374 4.698h-.29v.4c.09 .128 .187 .257 .29 .385v-.785zm13.278 -3.443c.019 0 .038 .013 .038 .032l.032 .81c.007 .432 -.109 .741 -.225 1.037c-.122 .303 -.231 .592 -.225 1.01a7.6 7.6 0 0 1 -.013 .374c-.013 .29 -.032 .618 .026 .837c.006 .006 .006 .012 .006 .019c0 .026 -.013 .045 -.038 .038c-.02 0 -.033 -.006 -.039 -.025a4.798 4.798 0 0 1 -.039 -.148c-.09 -.316 -.212 -.747 -.193 -1.345c.013 -.412 .168 -.844 .316 -1.262c.16 -.444 .321 -.9 .315 -1.339c0 -.019 .02 -.038 .039 -.038zm2.522 .07a1.46 1.46 0 0 0 -.566 .117c-.412 .173 -.624 .34 -.875 .669c.032 .322 .045 .67 .038 1.062v.193c-.006 .186 -.006 .36 -.02 .528c.284 -.335 .484 -.798 .664 -1.223c.07 -.161 .135 -.31 .2 -.45c.006 -.02 .025 -.026 .044 -.02c.02 .006 .033 .026 .026 .045l-.174 .682a4.358 4.358 0 0 0 -.16 .425c-.097 .29 -.168 .515 -.657 .959a2.428 2.428 0 0 1 -.502 1.049c.598 -.02 .727 -.09 1.152 -.599c.245 -.29 .425 -.746 .502 -1.074c.09 -.387 .103 -.721 .11 -1.043c.012 -.431 .025 -.837 .218 -1.32zm-8.56 1.919h-.392l2.085 1.872c.045 -.07 .09 -.141 .129 -.205l-1.828 -1.66zm13.027 -1.867c.013 0 .026 0 .051 .007c.052 .013 .084 .032 .103 .064c.02 .026 .02 .077 .007 .167c-.026 .193 -.013 .258 0 .284c.02 .045 .058 .064 .122 .077l.817 .148l1.268 .2l.734 .102c.129 .026 .212 .013 .251 -.032c.032 -.032 .07 -.122 .11 -.354c.012 -.07 .064 -.103 .16 -.09c.09 .013 .116 .07 .097 .11l-.142 .778l-.09 .721c-.064 .386 -.18 .695 -.347 .933a.688 .688 0 0 1 -.605 .31c-.058 0 -.116 -.007 -.18 -.014a.779 .779 0 0 1 -.438 -.225a.94 .94 0 0 1 -.232 -.386a3.204 3.204 0 0 1 -.07 -.36c-.014 .032 -.033 .07 -.052 .128a1.205 1.205 0 0 1 -.4 .521c-.192 .161 -.437 .22 -.72 .174a.934 .934 0 0 1 -.65 -.425c-.174 -.238 -.225 -.566 -.16 -.971l.154 -.92l.128 -.863c.007 -.032 .02 -.058 .039 -.07l.026 -.014zm-11.707 2.343a.647 .647 0 0 0 -.187 .096c.007 .033 .007 .065 .007 .097h-.065l.863 .785a3.02 3.02 0 0 0 .135 -.29l-.753 -.688zm2.82 -3.713h-.156c.078 .186 .174 .533 .148 1.055c-.019 .437 -.083 .688 -.141 .927a3.432 3.432 0 0 0 -.129 .933c-.026 1.467 .605 1.699 .605 1.705l.013 .007a1.996 1.996 0 0 1 -.097 -.586c-.212 -.463 -.218 -1.178 -.225 -1.712v-.206c-.006 -.154 .013 -.27 .032 -.392c.013 -.071 .026 -.142 .032 -.226l.052 -.173c.006 -.02 .026 -.033 .045 -.026c.013 0 .026 .02 .026 .038c-.013 .09 -.02 .161 -.033 .232a2.26 2.26 0 0 0 -.032 .38v.026c.013 .418 .02 .791 .148 1.177c.097 -.869 .36 -1.576 .657 -2.117c-.065 -.064 -.103 -.187 -.129 -.386c-.006 -.026 -.07 -.522 -.45 -.63a1.322 1.322 0 0 0 -.262 -.025l-.104 -.001zm-7.17 3.185h-5.052v.251c0 .341 .077 .689 .212 1.03h4.84v-1.28zm17.93 -.29l-.058 .367c-.039 .232 -.007 .419 .096 .554c.103 .141 .264 .232 .49 .264c.102 .019 .263 .006 .47 -.032c.186 -.033 .315 -.239 .373 -.612c.038 -.238 .012 -.283 .006 -.283c0 -.006 -.045 -.045 -.328 -.09l-1.05 -.167zm-1.744 -.257a.218 .218 0 0 0 -.097 .02c-.006 .006 -.045 .05 -.077 .244c-.045 .283 -.013 .528 .09 .714c.103 .187 .283 .296 .54 .335c.27 .045 .496 -.006 .657 -.148c.167 -.148 .27 -.354 .315 -.624l.052 -.322l-1.37 -.212c-.04 0 -.078 -.007 -.11 -.007zm-15.627 -7.292h-.328v8.444a.911 .911 0 0 1 .328 -.225v-8.219zm4.73 -.013h-.321v8.18c.122 .052 .225 .13 .302 .193a2 2 0 0 0 .02 -.276v-8.097zm-3.983 6.893v1.3c.032 .013 .064 .032 .096 .045a.994 .994 0 0 1 .2 -.34v-.31a5.65 5.65 0 0 0 -.135 -.38a3.685 3.685 0 0 0 -.161 -.315zm2.902 .129a4.861 4.861 0 0 0 -.09 .193c-.045 .116 -.148 .431 -.193 .566c-.006 .007 -.006 .007 -.006 .013v.032c.09 .11 .154 .264 .186 .406a.768 .768 0 0 1 .103 -.052v-1.158zm-3.128 -1.899c-.109 .02 -.206 .052 -.296 .097v2.922a.885 .885 0 0 1 .29 -.007v-1.615c-.064 -.103 -.116 -.174 -.116 -.174c-.013 -.02 -.013 -.045 -.006 -.07c.013 -.026 .045 -.11 .096 -.149a.05 .05 0 0 1 .032 -.013v-.99zm3.36 .013v.978c.02 0 .039 0 .064 .007c.013 0 .026 .006 .039 .013c.051 .038 .09 .122 .096 .148c.013 .02 .007 .051 -.006 .07c0 0 -.084 .116 -.187 .277l-.006 1.487a.955 .955 0 0 1 .27 0c.013 0 .02 .006 .026 .006v-2.882a.888 .888 0 0 0 -.296 -.103zm-1.628 .715a.792 .792 0 0 0 -.187 .109a.13 .13 0 0 0 -.039 .09c0 .032 .026 .07 .065 .103a.08 .08 0 0 1 .006 .11c-.032 .032 -.077 .038 -.11 .012c-.044 -.032 -.083 -.051 -.115 -.051c-.013 0 -.045 0 -.084 .045a.165 .165 0 0 0 -.026 .058c-.012 .038 -.025 .083 -.051 .122c.013 .032 .026 .052 .039 .077c.019 .039 .032 .071 .051 .09c.02 .026 .058 .04 .097 .04c.025 0 .083 -.007 .115 -.059a.08 .08 0 0 1 .065 -.032a.07 .07 0 0 1 .064 .039a.324 .324 0 0 1 -.006 .315c-.103 .18 -.335 .225 -.54 .084c-.142 .115 -.342 .096 -.529 -.052c-.025 -.02 -.032 -.058 -.019 -.09a.07 .07 0 0 1 .077 -.045c.071 .006 .13 -.013 .142 -.045c.006 -.013 0 -.052 -.007 -.077a.647 .647 0 0 1 -.012 -.123c-.045 -.019 -.071 -.051 -.097 -.07c-.026 -.033 -.039 -.039 -.051 -.039c-.04 0 -.052 .026 -.078 .09c-.019 .052 -.045 .122 -.122 .122h-.02c-.012 0 -.025 -.006 -.038 -.019c-.064 -.064 -.07 -.148 -.077 -.225c-.013 -.142 -.032 -.18 -.187 -.168a.14 .14 0 0 0 -.02 .033c.085 .122 .361 .534 .497 .856c.051 .122 .154 .43 .2 .579l.005 .02h1.958l.006 -.02c.045 -.148 .148 -.457 .2 -.58a4.06 4.06 0 0 1 .528 -.862a.14 .14 0 0 0 -.02 -.032h-.045c-.122 0 -.128 .045 -.141 .174c-.013 .077 -.02 .167 -.077 .225c-.013 .007 -.026 .02 -.04 .02h-.018c-.078 0 -.103 -.071 -.123 -.123c-.025 -.064 -.045 -.09 -.077 -.09c-.013 0 -.026 .013 -.051 .039a.375 .375 0 0 1 -.097 .07a.712 .712 0 0 1 -.013 .123c-.006 .032 -.013 .064 -.006 .077c.013 .032 .077 .051 .141 .045a.07 .07 0 0 1 .078 .045a.08 .08 0 0 1 -.026 .09c-.18 .148 -.386 .161 -.528 .052c-.206 .141 -.438 .096 -.54 -.084c-.058 -.103 -.065 -.225 -.007 -.315a.07 .07 0 0 1 .064 -.039a.08 .08 0 0 1 .065 .032a.14 .14 0 0 0 .116 .058c.038 0 .077 -.013 .096 -.039c.02 -.019 .032 -.051 .052 -.09l.038 -.077c-.025 -.039 -.038 -.084 -.051 -.122c-.013 -.02 -.02 -.052 -.026 -.058c-.039 -.045 -.07 -.045 -.084 -.045c-.032 0 -.07 .02 -.116 .051a.08 .08 0 0 1 -.109 -.013c-.026 -.032 -.026 -.083 .006 -.109c.04 -.032 .065 -.07 .065 -.103a.13 .13 0 0 0 -.039 -.09a.65 .65 0 0 0 -.186 -.11zm-7.543 .424h-.322v1.345h.322v-1.345zm4.157 -.006h-.29v1.345h.29v-1.344zm-2.6 0h-.29v1.345h.29v-1.344zm2.079 0h-.29v1.345h.29v-1.344zm1.1 0h-.347v1.345h.348v-1.344zm-1.615 0h-.29v1.345h.29v-1.344zm-2.6 0h-.29v1.345h.29v-1.344zm.521 0h-.29v1.345h.29v-1.344zm1.036 0h-.29v1.345h.29v-1.344zm.522 0h-.29v1.345h.29v-1.344zm4.254 -1.146h-.29v1.294c.02 .02 .033 .032 .058 .032c.02 .007 .039 .013 .052 .032c.013 .013 .019 .039 .013 .058c-.007 .052 0 .097 .006 .142a.314 .314 0 0 1 -.006 .154a.193 .193 0 0 1 -.071 .09a.195 .195 0 0 0 .2 -.064c.012 -.013 .032 -.02 .044 -.026v-.315c-.006 -.013 -.012 -.02 -.019 -.032c-.02 -.032 -.02 -.071 .007 -.09c0 -.007 .006 -.007 .006 -.013v-1.262zm1.577 -.006h-.296v1.107l.019 .058a.248 .248 0 0 0 .051 .11c.026 .025 .026 .064 .02 .09a.768 .768 0 0 0 -.052 .102l-.032 .058v.193c.032 -.026 .084 -.026 .11 .007a.18 .18 0 0 0 .18 .07v-.012a.176 .176 0 0 1 -.058 -.078c-.02 -.051 -.013 -.103 -.007 -.154a.507 .507 0 0 0 .007 -.142c-.007 -.019 0 -.038 .013 -.058a.104 .104 0 0 1 .045 -.025v-1.326zm.508 0h-.29v1.203c.007 -.006 .013 -.006 .013 -.006a.217 .217 0 0 1 .18 .11c.014 -.078 .02 -.18 .097 -.252v-1.055zm-2.606 -.007h-.29v1.017c.135 .058 .148 .2 .161 .29a.204 .204 0 0 1 .129 -.097v-1.21zm1.64 -4.408h-.971a.88 .88 0 0 1 .077 .373v1.1h-.708a1.11 1.11 0 0 1 -.425 -.077v.85c.123 -.052 .27 -.077 .425 -.077h.708v1.41h-1.126a1.05 1.05 0 0 1 -.406 -.078v.843a.99 .99 0 0 1 .406 -.077h1.126v1.12a.332 .332 0 0 1 .071 -.013a.274 .274 0 0 1 .077 -.213c.071 -.07 .238 -.141 .27 -.154c.007 -.006 .02 -.006 .026 -.006c.039 0 .232 .09 .296 .16a.265 .265 0 0 1 .071 .123v-1.024h1.114c.154 0 .302 .026 .424 .078v-.843a1.11 1.11 0 0 1 -.424 .077h-1.114v-1.403h.708c.155 0 .303 .025 .425 .077v-.85a1.11 1.11 0 0 1 -.425 .078h-.708v-1.1c0 -.136 .032 -.265 .084 -.374zm-3.243 3.997h-5.051v1.345h5.052v-1.344zm-7.375 -3.83l-.065 .09l-.103 -.077c-.083 -.064 -.09 -.064 -.25 -.064c-.097 0 -.2 .045 -.265 .128a.416 .416 0 0 0 -.077 .341l.026 .13h-.129c-.154 0 -.277 .038 -.347 .121c-.123 .13 -.097 .335 -.097 .335l.02 .187l-.174 -.071c-.097 -.039 -.22 -.02 -.329 .058a.573 .573 0 0 0 -.244 .47v.077c0 .122 0 .167 .064 .264l.084 .122l-.142 .045s-.167 .058 -.34 .206a.762 .762 0 0 0 -.233 .534a.83 .83 0 0 0 .251 .618l.02 .026a.486 .486 0 0 1 .07 .322v.083c.007 .27 .033 .386 .065 .522c.013 .064 .032 .141 .045 .238c.026 -.02 .045 -.039 .07 -.052c.04 -.019 .078 -.038 .117 -.051c0 -.174 .051 -.296 .257 -.773c.148 -.334 .373 -.36 .547 -.38c.206 -.025 .367 -.044 .438 -.694l.019 -.174l.148 .096c.142 .097 .232 .116 .354 .078l.084 -.026c.244 -.07 .264 -.077 .328 -.309c.032 -.103 .02 -.36 -.026 -.483l-.058 -.148h.161c.206 .007 .354 -.038 .444 -.128c.097 -.097 .148 -.258 .148 -.496c.007 -.154 -.07 -.328 -.225 -.348l-.264 -.025l.206 -.168c.09 -.077 .142 -.225 .135 -.38a.513 .513 0 0 0 -.219 -.398c-.148 -.097 -.386 -.026 -.514 .154zm18.187 -.862c-.675 .798 -1.016 1.435 -.984 2.445c.006 .123 0 .18 -.007 .27c-.006 .04 -.006 .09 -.013 .155c-.006 .077 -.032 .258 -.064 .502c-.026 .193 -.058 .418 -.084 .65l-.019 .187a7.364 7.364 0 0 0 -.07 .688h-.014c.065 .116 .123 .232 .174 .348c.007 -.032 .007 -.058 .007 -.084c.013 -.463 .025 -.482 .309 -.798c.064 -.07 .141 -.16 .244 -.277c.213 -.244 .901 -1.126 .882 -2.091c-.013 -.483 -.097 -.837 -.193 -1.217a7.13 7.13 0 0 1 -.168 -.778zm-26.76 1.126c.149 .02 .155 .103 .149 .135l-.103 .76l-.09 .81c0 .026 -.02 .065 -.097 .065h-.058c-.026 0 -.084 -.02 -.09 -.116c-.007 -.045 0 -.103 .006 -.18a.81 .81 0 0 0 .007 -.213c-.007 -.019 -.013 -.025 -.039 -.032c-.051 0 -.154 .013 -.431 .09l-.65 .18l-.135 1.088c-.013 .11 -.007 .135 -.007 .135s.026 .026 .206 .13c.148 .083 .296 .153 .432 .218c.18 .084 .244 .103 .263 .103c.058 .013 .09 -.013 .103 -.026c.02 -.026 .045 -.07 .058 -.187c.026 -.212 .039 -.276 .052 -.302c.032 -.077 .083 -.09 .11 -.09c.05 .006 .083 .02 .102 .038c.02 .02 .039 .046 .032 .097l-.103 .766l-.045 .431c0 .026 -.019 .077 -.11 .077h-.044c-.122 -.013 -.097 -.2 -.09 -.27a.175 .175 0 0 0 -.026 -.129a.51 .51 0 0 0 -.174 -.128l-3.146 -1.693c-.032 -.013 -.07 -.058 -.058 -.167a.143 .143 0 0 1 .11 -.13l3.481 -.92c.09 -.025 .155 -.064 .187 -.109a.58 .58 0 0 0 .07 -.232a.338 .338 0 0 1 .04 -.135c.025 -.051 .064 -.064 .09 -.064zm26.737 -1.043c.02 0 .038 .013 .038 .033c0 .058 0 .148 -.006 .231c-.006 .084 -.006 .168 -.006 .226c.006 .148 .019 .27 .045 .43c.032 .239 .077 .567 .103 1.16a2.474 2.474 0 0 1 -.47 1.595c-.084 .11 -.193 .2 -.29 .29c-.238 .212 -.489 .431 -.515 .92c-.006 .02 -.019 .032 -.038 .032c-.02 0 -.033 -.019 -.033 -.038c.033 -.58 .29 -.869 .535 -1.159c.07 -.077 .128 -.141 .186 -.218c.193 -.251 .47 -.901 .438 -1.654c-.026 -.554 -.045 -.799 -.058 -.979c-.006 -.141 -.02 -.231 -.02 -.392c0 -.058 .014 -.135 .026 -.226a1.53 1.53 0 0 0 .026 -.212c0 -.026 .02 -.039 .039 -.039zm-18.137 1.455c.013 -.013 .039 0 .045 .013c.013 .013 .007 .032 -.006 .045c-.007 .006 -.226 .174 -.348 .302a1.059 1.059 0 0 0 -.25 .367c-.033 .071 -.078 .168 -.155 .296c.058 .013 .141 .026 .225 .065c.11 .051 .18 .11 .212 .225c0 .02 .007 .045 .007 .058v.013c0 .019 -.02 .038 -.039 .038a.05 .05 0 0 1 -.032 -.013s-.058 -.077 -.103 -.115c-.02 -.013 -.032 -.026 -.058 -.039a.406 .406 0 0 0 -.238 -.045h-.013c-.051 .006 -.084 .006 -.129 .032c-.019 .013 -.038 .026 -.051 .039c-.225 .43 -.47 .81 -.566 .959c.019 -.007 .057 -.013 .096 -.026a.47 .47 0 0 1 .2 -.058c.019 0 .038 .013 .038 .032c.007 .013 -.006 .032 -.025 .039c0 0 -.103 .026 -.187 .051c-.2 .103 -.412 .367 -.56 .708l-.039 .103a2.982 2.982 0 0 0 -.058 .155l-.006 .025c0 .013 -.02 .026 -.032 .026c-.026 -.006 -.032 -.026 -.013 -.051c0 -.007 .006 -.02 .006 -.026c.026 -.084 .058 -.174 .097 -.264c.045 -.142 .18 -.508 .116 -.656c-.02 -.052 -.039 -.084 -.045 -.11c-.013 -.026 -.02 -.045 -.026 -.051c-.007 -.007 -.02 -.013 -.032 -.026l-.026 -.02c-.013 -.012 -.02 -.032 -.013 -.044c.007 -.02 .026 -.026 .039 -.026c.006 0 .064 .006 .103 .02a.25 .25 0 0 1 .141 .115c.007 .006 .007 .02 .013 .026a.84 .84 0 0 1 .09 -.213c.045 -.07 .078 -.115 .129 -.173l.013 -.02l.103 -.103c.032 -.032 .064 -.058 .096 -.103a2.32 2.32 0 0 0 .168 -.25s.032 -.065 .038 -.104c.013 -.058 .02 -.083 .007 -.135c-.007 -.026 -.013 -.038 -.026 -.064a.581 .581 0 0 0 -.154 -.155l-.039 -.012c-.013 -.007 -.02 -.02 -.02 -.04c0 -.018 .014 -.031 .033 -.031c.193 -.02 .296 .116 .34 .264c.027 -.033 .052 -.078 .072 -.11c.064 -.122 .167 -.309 .167 -.309s.032 -.07 .02 -.167a.082 .082 0 0 1 -.007 -.039c0 -.032 0 -.051 -.02 -.083c-.025 -.039 -.057 -.174 -.064 -.187c0 -.02 .007 -.039 .02 -.045a.04 .04 0 0 1 .045 .006l.103 .116a.367 .367 0 0 1 .038 .148c0 .026 0 .045 .007 .058c.006 .007 .006 .013 .006 .02l.077 -.097l.026 -.026c.026 -.032 .045 -.058 .084 -.09c.116 -.122 .354 -.232 .36 -.238zm14.16 -1.648c.27 .374 .289 .792 .308 1.197c.02 .393 .039 .798 .283 1.172c.232 .347 .522 .566 .798 .772c.438 .328 .856 .637 .824 1.37v.072l.097 -.084l.096 -.084l.065 .11a.458 .458 0 0 1 .045 .07c-.155 -.843 -.303 -1.312 -.766 -1.962a3.599 3.599 0 0 0 -.212 -.245c-.187 -.2 -.412 -.45 -.58 -.914v-.013c0 -.013 .013 -.026 .026 -.032c.02 0 .039 .006 .045 .026c.142 .399 .373 .528 .573 .637c.122 .07 .244 .135 .322 .25c.527 .773 .566 1.204 .605 1.7c.008 .099 .017 .2 .03 .307l.021 .159l.023 -.193l.022 -.202v-.02a4.56 4.56 0 0 0 .026 -.52c-.026 -1.25 -.515 -1.803 -1.455 -2.755c-.534 -.541 -.959 -.747 -1.197 -.818zm-11.54 3.231h-.322v1.345h.322v-1.343zm2.6 -.006h-.29v1.345h.29v-1.345zm1.557 0h-.29v1.345h.29v-1.345zm-3.636 0h-.29v1.345h.29v-1.345zm2.6 0h-.29v1.345h.29v-1.345zm.515 0h-.29v1.345h.29v-1.345zm-1.558 0h-.29v1.345h.29v-1.345zm-.52 0h-.29v1.345h.29v-1.345zm3.179 0h-.348v1.345h.348v-1.345zm-3.695 0h-.29v1.345h.29v-1.345zm5.812 -.097h-.29v1.094h.29v-1.094zm-.521 0a.834 .834 0 0 0 -.29 .052v1.042h.29v-1.094zm2.323 0v1.094h.29v-1.036a.993 .993 0 0 0 -.29 -.058zm-.232 0h-.29v1.094h.29v-1.094zm-2.613 -3.031h-.29v4.01c.084 .05 .181 .09 .29 .102v-.9l-.013 .006v-1.377l.013 .006v-1.847zm3.656 .006h-.296v4.106a.79 .79 0 0 0 .29 -.103l.006 -4.003zm-15.832 -.798c-.348 .155 -.348 .496 -.335 .637a.66 .66 0 0 0 .154 .354l.078 .097l-.103 .064c-.13 .084 -.27 .348 -.245 .567c.032 .334 .155 .444 .354 .527l.129 .052l-.084 .116c-.206 .283 -.238 .508 -.116 .791c.084 .193 .245 .264 .522 .251l.238 -.013l-.142 .187c-.187 .245 -.096 .63 .052 .798c.141 .167 .263 .225 .418 .206v-.077a.95 .95 0 0 1 .309 -.695c.11 -.09 .219 -.155 .296 -.193c-.045 -.097 -.039 -.18 -.039 -.277v-.077c0 -.258 .129 -.502 .335 -.644a.232 .232 0 0 0 -.064 -.096a1.893 1.893 0 0 1 -.097 -.09l-.064 -.058l.045 -.078a.55 .55 0 0 0 .013 -.534a.311 .311 0 0 0 -.097 -.129a.7 .7 0 0 0 -.16 -.064l-.149 -.039l.084 -.128a.962 .962 0 0 0 .064 -.123a.693 .693 0 0 0 .032 -.218a.957 .957 0 0 1 -.038 -.161c-.007 -.052 -.007 -.116 -.007 -.174v-.02c-.058 -.18 -.141 -.289 -.244 -.334a.297 .297 0 0 0 -.213 0l-.122 .058l-.032 -.129c-.045 -.18 -.135 -.309 -.27 -.373c-.142 -.07 -.322 -.064 -.502 .02zm-6.545 3.501l-1.41 .348c.078 .051 .239 .141 .573 .315c.586 .31 .695 .348 .715 .354c-.007 -.013 .006 -.051 .019 -.154l.103 -.863zm17.64 -1.126h-5.053v1.32h5.052v-1.32zm-10.664 -1.493c.019 -.006 .038 .006 .045 .026l.148 .45a.19 .19 0 0 1 .013 -.064c.032 -.122 .167 -.27 .173 -.277c.013 -.013 .033 -.02 .045 -.006c.02 .006 .02 .025 .013 .045c-.006 0 -.135 .238 -.135 .399c0 .038 .007 .064 .013 .103l.006 .032c.02 .084 .039 .148 .058 .219c.013 .045 .033 .096 .045 .154c.039 .135 .078 .328 .103 .457c.013 -.038 .02 -.077 .033 -.11c.051 -.154 .141 -.392 .141 -.392c.007 -.02 .026 -.026 .045 -.02c.02 .007 .026 .027 .02 .046c0 .006 -.084 .244 -.116 .405a1.58 1.58 0 0 0 -.039 .296c-.013 .38 .277 .953 .277 .96a.034 .034 0 0 1 -.013 .044c-.007 .007 -.013 .007 -.02 .007c-.012 0 -.025 0 -.032 -.013c-.006 -.013 -.218 -.309 -.302 -.515a.77 .77 0 0 0 -.084 -.167c-.09 -.142 -.309 -.316 -.309 -.316c-.013 -.006 -.013 -.032 -.006 -.045c.006 -.013 .026 -.019 .045 -.013c.006 .007 .122 .065 .193 .116c.039 .032 .077 .078 .116 .116c-.032 -.141 -.077 -.36 -.135 -.605a1.18 1.18 0 0 1 -.026 -.154c-.026 -.148 -.045 -.264 -.16 -.367a.365 .365 0 0 0 -.085 -.064a.332 .332 0 0 0 -.244 -.046c-.02 0 -.032 -.006 -.039 -.025c-.006 -.02 0 -.039 .02 -.045c.051 -.02 .083 -.033 .141 -.033h.013c.045 0 .103 .013 .142 .026l-.13 -.579c-.006 -.02 .007 -.039 .027 -.045zm29.522 -.47c.07 -.02 .128 .013 .141 .07l.193 .85l.232 .844c.013 .038 0 .064 -.006 .077c-.013 .026 -.046 .045 -.084 .051c-.09 .02 -.148 -.006 -.167 -.077c-.071 -.283 -.13 -.386 -.161 -.418c-.039 -.045 -.123 -.052 -.251 -.02l-.721 .168l-1.242 .309l-.798 .218c-.065 .013 -.097 .046 -.116 .09c-.007 .026 -.013 .116 .045 .361c.026 .09 .026 .135 .006 .167c0 .02 -.025 .052 -.09 .071c-.02 .007 -.032 .007 -.045 .007c-.051 0 -.084 -.026 -.096 -.071l-.2 -.856l-.219 -.837c-.006 -.026 -.006 -.058 .007 -.077l.019 -.02c.013 -.012 .039 -.019 .07 -.025c.059 -.02 .097 -.013 .123 .013c.026 .019 .045 .064 .07 .154c.059 .238 .104 .31 .13 .335c.032 .032 .083 .038 .141 .026l.811 -.187l1.242 -.309l.715 -.187c.128 -.032 .2 -.077 .193 -.135c.013 -.051 .019 -.167 -.052 -.444c-.006 -.026 -.02 -.116 .11 -.148zm-12.158 -2.13h-.052c.174 .232 .264 .508 .348 .766c.051 .154 .097 .296 .154 .412c.329 .637 .593 .926 .889 1.267c.2 .226 .43 .483 .701 .876c.296 .412 .618 .907 .798 1.345a15.45 15.45 0 0 0 .065 -1.744c-.046 -1.777 -1.185 -2.922 -2.903 -2.922zm-4.576 2.523h-.29v2.02h.29v-1.26a.882 .882 0 0 0 -.052 -.09l-.102 -.123h.154v-.547zm1.57 -.007h-.296v.547h.142l-.097 .123c-.013 .019 -.032 .038 -.045 .064v1.287h.296v-2.02zm.515 0h-.29v2.021a.76 .76 0 0 0 .29 -.058v-1.963zm-2.606 0h-.29v1.97c.07 .025 .167 .051 .29 .051v-2.02zm5.909 -1.92l.018 .002l.22 .103c1.113 .599 1.26 1.217 1.422 1.873c.019 .065 .032 .129 .051 .2c.167 .643 .2 .926 .245 1.287c.012 .103 .025 .212 .045 .341c.006 0 .006 .006 .006 .013c0 .026 -.02 .039 -.039 .039s-.038 -.013 -.038 -.033c-.045 -.296 -.065 -.36 -.122 -.515a8.502 8.502 0 0 1 -.264 -.875l-.039 -.154c-.18 -.715 -.405 -1.61 -1.519 -2.208a.048 .048 0 0 1 -.013 -.051c.007 -.02 .026 -.026 .045 -.02zm-14.509 -1.27c-.412 -.013 -.534 .142 -.598 .283l-.103 .238l-.097 -.238c-.045 -.11 -.11 -.122 -.328 -.116h-.045c-.167 .007 -.238 .078 -.4 .264c-.09 .103 -.096 .168 -.096 .316c0 .218 0 .263 .142 .463l.167 .238l-.283 -.064a.508 .508 0 0 0 -.386 .064a.418 .418 0 0 0 -.187 .283c-.064 .335 -.019 .412 .174 .728l.07 .115l-.121 .058c-.316 .103 -.393 .316 -.393 .509l.039 .29c.051 .128 .167 .302 .321 .495l.033 .039l-.007 .051s-.026 .129 -.032 .212c-.006 .123 .006 .194 .026 .316v.02c.019 .115 .064 .27 .096 .366c.039 -.006 .077 -.006 .116 -.006a.638 .638 0 0 1 .148 -.354c.007 -.013 .02 -.02 .026 -.026c.026 -.528 .244 -.676 .483 -.753c.52 -.18 .54 -.36 .52 -.702l-.006 -.11h.116c.296 -.006 .438 -.076 .56 -.276c.077 -.135 .052 -.425 .039 -.521l-.026 -.142l.142 .013a.37 .37 0 0 0 .296 -.084a.547 .547 0 0 0 .18 -.405c.013 -.206 -.058 -.335 -.238 -.45l-.103 -.065l.077 -.096a.562 .562 0 0 0 .09 -.593c-.058 -.167 -.225 -.354 -.412 -.36zm5.902 3.192h-.29v1.345h.29v-1.345zm.521 0h-.29v1.345h.29v-1.345zm-1.557 0h-.29v1.345h.29v-1.345zm2.137 0h-.348v1.345h.348v-1.345zm-1.616 0h-.29v1.345h.29v-1.345zm-2.079 0h-.29v1.345h.29v-1.345zm-1.042 0h-.322v1.345h.322v-1.345zm.521 0h-.29v1.345h.29v-1.345zm1.036 0h-.29v1.345h.29v-1.345zm.521 0h-.29v1.345h.29v-1.345zm-5.393 -2.24c.02 -.006 .039 0 .045 .02c0 .006 .078 .2 .103 .335c.007 .045 .013 .103 .013 .148l.29 -.47c.006 -.02 .026 -.02 .045 -.013c.02 .006 .026 .026 .02 .045l-.232 .508a.49 .49 0 0 1 .128 -.038c.026 -.007 .052 -.007 .084 -.007c.167 0 .36 .065 .367 .065c.02 .006 .026 .025 .026 .045c0 .02 -.02 .032 -.039 .032c-.006 0 -.18 -.02 -.296 -.007l-.052 .007c-.109 .006 -.186 .013 -.283 .084a.417 .417 0 0 0 -.103 .109c-.013 .013 -.026 .026 -.038 .045a1.808 1.808 0 0 0 -.22 .354a2.85 2.85 0 0 0 -.18 .528a.542 .542 0 0 1 .136 -.071a.867 .867 0 0 1 .212 -.026h.026c.013 0 .032 .013 .032 .032c.006 .02 -.006 .033 -.026 .04c0 0 -.212 .05 -.315 .128a.653 .653 0 0 0 -.167 .206c-.116 .25 -.296 1.004 -.296 1.01a.043 .043 0 0 1 -.039 .026c-.026 -.007 -.039 -.026 -.039 -.039l.29 -1.28c0 -.007 .064 -.27 .058 -.445a2.843 2.843 0 0 0 -.07 -.424c0 -.02 .006 -.039 .025 -.045c.02 -.007 .038 0 .045 .019c.006 .006 .09 .193 .116 .322c.013 .051 .013 .103 .013 .16a2.78 2.78 0 0 1 .173 -.398c.058 -.103 .161 -.251 .187 -.29l-.006 -.296l-.058 -.38c0 -.013 .006 -.032 .025 -.038zm11.212 2.24h-.29v.547h.29v-.547zm-.522 0h-.29v.547h.29v-.547zm-20.15 -4.119c.27 -.206 .572 -.231 .9 -.077c.239 .11 .393 .264 .47 .463c.071 .187 .103 .387 .09 .586c-.012 .148 -.012 .219 -.012 .245a.321 .321 0 0 0 .096 .013c.161 0 .438 -.058 .824 -.168c.656 -.186 .856 -.264 .914 -.296c.07 -.038 .141 -.129 .2 -.257c.025 -.045 .077 -.065 .147 -.032a.14 .14 0 0 1 .071 .064a.13 .13 0 0 1 -.006 .096l-.2 .406l-.154 .354c-.032 .058 -.11 .096 -.251 .135c-.122 .032 -.406 .077 -.837 .148c-.431 .064 -.695 .116 -.791 .155a.572 .572 0 0 0 -.206 .135a1.051 1.051 0 0 0 -.13 .206l.368 .167l.76 .335c.057 .032 .102 .032 .147 .006c.026 -.02 .084 -.084 .193 -.309c.039 -.084 .071 -.122 .103 -.135c.013 -.013 .065 -.02 .116 .006c.11 .052 .077 .13 .07 .142l-.379 .792l-.322 .714c-.019 .032 -.032 .051 -.058 .058l-.012 .006h-.013a1.124 1.124 0 0 1 -.071 -.025c-.02 -.013 -.07 -.039 -.084 -.09c-.013 -.026 0 -.078 .039 -.161c.084 -.18 .09 -.251 .084 -.277c-.007 -.039 -.04 -.077 -.097 -.103l-.747 -.367l-1.165 -.54l-.674 -.305c-.116 -.058 -.2 -.07 -.251 -.039c-.039 .02 -.11 .097 -.206 .31c-.032 .064 -.097 .083 -.18 .044a.174 .174 0 0 1 -.071 -.058a.111 .111 0 0 1 .006 -.077l.354 -.708l.322 -.733c.167 -.355 .386 -.638 .644 -.83zm22.113 3.759h-8.97v.135h8.971v-.135zm-5.657 -1.397h-3.313v.161h.617v.908h-.617v.173h3.314v-1.242zm5.65 0h-3.313v1.242h3.315v-.173h-.618v-.908h.618v-.16zm-3.462 0h-2.033v1.242h2.033v-1.242zm-2.555 .161v1h-1.1v-1h1.1zm4.17 0v1h-1.1v-1h1.1zm-2.638 -.058c.476 0 .824 .367 .824 .612c0 .257 -.31 .418 -.824 .418c-.515 0 -.824 -.154 -.824 -.418c0 -.251 .348 -.618 .824 -.612zm-3.066 -.006c.218 0 .399 .16 .391 .346v.307c0 .187 -.173 .347 -.39 .347h-.211c-.218 0 -.399 -.154 -.399 -.347v-.307c0 -.186 .18 -.346 .399 -.346zm6.494 0c.218 0 .391 .16 .391 .346v.307c0 .187 -.173 .347 -.39 .347h-.211c-.218 0 -.399 -.154 -.399 -.347v-.307c0 -.186 .18 -.346 .399 -.346zm-.944 .234h-.791v.667h.791v-.667zm-4.17 0h-.792v.667h.792v-.667zm1.686 -.08c-.412 0 -.67 .322 -.67 .464c0 .135 .207 .27 .67 .27c.463 0 .67 -.135 .67 -.27c0 -.142 -.252 -.464 -.67 -.464zm-3.066 .006h-.21c-.12 0 -.218 .086 -.218 .193v.307c0 .106 .097 .193 .218 .193h.21c.12 0 .218 -.087 .218 -.193v-.307c0 -.107 -.097 -.193 -.218 -.193zm6.487 0h-.21c-.121 0 -.219 .086 -.219 .193v.307c0 .106 .098 .193 .218 .193h.21c.121 0 .219 -.087 .219 -.193v-.307c0 -.107 -.098 -.193 -.218 -.193zm-7.43 .059h-.47v.605h.47v-.605zm8.495 -.007h-.464v.605h.464v-.605zm11.984 -4.499c.051 0 .077 .026 .083 .045c.02 .033 .026 .09 .013 .187c0 .065 .013 .129 .045 .193l1.39 2.613a.32 .32 0 0 0 .136 .142c.096 .051 .122 .07 .135 .096c.02 .032 .013 .071 -.013 .103c0 0 -.013 .02 -.225 .232a5.424 5.424 0 0 0 -.29 .296a.965 .965 0 0 0 -.122 .148l-.026 .032l-.039 -.013c-.012 0 -.032 -.012 -.051 -.019a.224 .224 0 0 1 -.052 -.058a.144 .144 0 0 1 -.006 -.135c.135 -.219 .206 -.405 .225 -.573a.883 .883 0 0 0 -.11 -.495l-.315 -.593c-.006 -.025 -.025 -.032 -.05 -.032c-.033 0 -.091 .02 -.226 .09l-1.79 .953l-.72 .405c-.058 .033 -.084 .065 -.09 .116c-.007 .026 .013 .116 .128 .335c.045 .077 .058 .129 .045 .16c.007 .014 -.006 .059 -.07 .09a.168 .168 0 0 1 -.071 .02c-.039 0 -.065 -.02 -.084 -.051l-.399 -.779l-.418 -.76c-.013 -.025 -.02 -.05 -.013 -.077l.013 -.019a.344 .344 0 0 1 .064 -.045c.052 -.026 .09 -.032 .122 -.013c.026 .007 .058 .045 .103 .129c.11 .206 .174 .277 .206 .296c.039 .02 .09 .02 .142 -.013l.74 -.373l1.79 -.953c.18 -.096 .199 -.135 .199 -.141c0 -.013 .013 -.052 -.045 -.155l-.283 -.528a.737 .737 0 0 0 -.36 -.321a1.577 1.577 0 0 0 -.432 -.13c-.142 -.012 -.225 -.05 -.258 -.108a.171 .171 0 0 1 -.019 -.078a.26 .26 0 0 1 .02 -.064l.012 -.02h.026c.052 0 .18 -.019 .393 -.044c.257 -.033 .347 -.052 .38 -.058c.05 -.007 .09 -.02 .122 -.026c.019 -.007 .032 -.007 .045 -.007zm-11.984 3.9h-8.972v.136h8.972v-.135zm-21.818 -1.583a.7 .7 0 0 0 -.257 .045c-.206 .071 -.367 .239 -.49 .502c-.09 .194 -.09 .27 -.083 .297c0 .019 .032 .07 .219 .16l1.21 .567l.167 -.36c.122 -.265 .142 -.49 .064 -.676a.871 .871 0 0 0 -.463 -.445a.856 .856 0 0 0 -.367 -.09zm17.338 -.45l.069 .008a.35 .35 0 0 1 .239 .163l.027 .067c.026 .103 0 .238 -.142 .348l.168 .238a.091 .091 0 0 1 .006 .07l-.025 .065c.019 0 .032 -.007 .057 -.007c.078 0 .13 .039 .155 .065a.216 .216 0 0 1 .051 .09v-.013c.042 -.103 .058 -.288 .063 -.404l.002 -.072c0 -.032 .025 -.065 .058 -.071c.032 -.013 .064 0 .083 .032c.026 .039 .238 .38 .251 .567a.279 .279 0 0 1 -.16 .27v.386h.18v-1.094a.555 .555 0 0 0 -.18 -.386c-.2 -.2 -.541 -.322 -.902 -.322zm-.624 1.313a.104 .104 0 0 1 -.026 .045a.248 .248 0 0 1 -.103 .07v.374h.277v-.374c-.077 -.02 -.122 -.058 -.148 -.11zm1.242 0c-.026 .058 -.077 .096 -.148 .116v.373h.277v-.374a.214 .214 0 0 1 -.103 -.071c-.013 -.013 -.02 -.032 -.026 -.045zm3.508 -.122l-.213 .611h.393l-.18 -.611zm-8.257 0l-.18 .611h.392l-.212 -.611zm4.096 -1.19l-.12 .006c-.304 .03 -.575 .144 -.746 .315a.555 .555 0 0 0 -.18 .386h.013v1.088h.18v-.387a.279 .279 0 0 1 -.16 -.27c.006 -.187 .225 -.528 .25 -.566c.02 -.032 .052 -.045 .084 -.032c.039 .006 .058 .038 .058 .07c0 .09 .013 .348 .064 .477l.006 .011l.022 -.046l.03 -.043a.193 .193 0 0 1 .155 -.064c.025 0 .051 .006 .077 .013l-.039 -.045c-.019 -.026 -.025 -.065 -.006 -.09l.148 -.232a.302 .302 0 0 1 -.155 -.309a.332 .332 0 0 1 .255 -.272l.064 -.01zm1.265 -1.211h-.013v2.838l.54 -1.145a.333 .333 0 0 1 -.2 -.303a.33 .33 0 0 1 .33 -.328a.33 .33 0 0 1 .327 .328a.333 .333 0 0 1 -.2 .303l.528 1.247l-.005 -.025v-.054l.006 -.03l.006 -.52s-.013 -.232 .148 -.406a.58 .58 0 0 1 .36 -.174a.255 .255 0 0 1 -.148 -.231c0 -.142 .123 -.258 .27 -.258c.149 0 .271 .116 .271 .258a.255 .255 0 0 1 -.148 .231a.54 .54 0 0 1 .348 .168c.146 .157 .145 .36 .142 .416v.337l.224 -.663a.252 .252 0 0 1 -.122 -.193c-.354 -.593 -1.165 -1.59 -2.664 -1.796zm-2.465 0c-1.5 .206 -2.31 1.203 -2.665 1.796a.27 .27 0 0 1 -.122 .193l.225 .663v-.335s-.02 -.238 .142 -.418a.56 .56 0 0 1 .347 -.168a.255 .255 0 0 1 -.148 -.231c0 -.142 .123 -.258 .27 -.258c.149 0 .27 .116 .27 .258a.255 .255 0 0 1 -.147 .231c.148 .026 .27 .077 .36 .174a.606 .606 0 0 1 .149 .4v.52c.006 .02 .006 .039 .006 .058c0 .02 -.007 .032 -.007 .052l.522 -1.249a.333 .333 0 0 1 -.2 -.302a.33 .33 0 0 1 .328 -.329a.33 .33 0 0 1 .329 .329a.333 .333 0 0 1 -.2 .302l.54 1.146v-2.834zm1.203 1.603l-.013 .019l-.006 .2a.091 .091 0 0 1 -.013 .038l-.142 .219l.097 .116c.026 .032 .026 .077 -.013 .09l-.135 .135l.122 .367h.245l.083 -.283l-.07 -.142a.076 .076 0 0 1 -.007 -.064l.077 -.213l-.148 -.219c-.006 -.006 -.012 -.012 -.012 -.025l-.046 -.22l-.019 -.018zm1.66 -1.97h-.392v.206c1.363 .182 2.184 .99 2.62 1.606l.075 .11l-.166 -.551l-2.136 -1.37zm-2.863 0h-.4l-2.136 1.371l-.16 .551l.076 -.111c.408 -.581 1.156 -1.324 2.37 -1.564l.25 -.04v-.207zm.482 0h-.328v1.873c.026 -.032 .045 -.058 .071 -.084a1.1 1.1 0 0 1 .257 -.186v-1.603zm1.828 0h-.328v1.596c.097 .052 .187 .116 .257 .187a.815 .815 0 0 1 .071 .084v-1.867zm-1.203 0h-.477v1.532a2.01 2.01 0 0 1 .284 -.077a.303 .303 0 0 1 -.122 -.402l-.013 -.019v-.785l.085 -.107h.829l.086 .107v.785l-.085 .106a.3 .3 0 0 1 .005 .05a.286 .286 0 0 1 -.155 .265c.097 .013 .193 .045 .283 .077v-1.532h-.56c-.025 0 -.05 .007 -.077 .007c-.032 0 -.058 0 -.083 -.007zm.43 1.141h-.624a.152 .152 0 0 0 -.006 .043c0 .084 .065 .148 .142 .148c.045 0 .09 -.019 .128 -.058h.11c.07 .078 .167 .078 .225 .02a.126 .126 0 0 0 .032 -.11l-.007 -.043zm.07 -.785h-.657v.556a.265 .265 0 0 1 .092 -.017a.31 .31 0 0 1 .134 .032l.053 .032a.323 .323 0 0 1 .187 -.064c.045 0 .088 .011 .127 .032h.064v-.571zm11.934 -5.081c.02 0 .045 .007 .071 .032l.611 .618l1.345 1.268c.142 .135 .123 .264 .078 .341c-.052 .09 -.097 .193 -.148 .296c-.052 .103 -.097 .206 -.142 .303l-.013 .013c-.038 .038 -.096 .032 -.16 -.033c-.026 -.025 -.046 -.064 -.046 -.309a2.84 2.84 0 0 0 -.025 -.424a.751 .751 0 0 0 -.065 -.27a.57 .57 0 0 0 -.116 -.162l-.617 -.547c-.033 -.025 -.058 -.032 -.097 -.012a1.035 1.035 0 0 0 -.225 .193l-.798 .83l.225 .219c.141 .135 .264 .218 .367 .257c.096 .032 .186 .013 .283 -.058c.122 -.09 .2 -.135 .238 -.154c.058 -.032 .11 -.032 .142 0c.077 .07 .096 .128 .051 .173l-.547 .567l-.412 .463c-.045 .045 -.103 .045 -.16 -.013c-.078 -.077 0 -.206 .07 -.315c.084 -.122 .122 -.225 .11 -.309c-.007 -.058 -.071 -.18 -.303 -.405l-.251 -.245l-.901 .933c-.077 .084 -.097 .129 -.097 .161c0 .02 .02 .071 .097 .148l.94 .908c.064 .058 .193 .07 .38 .045c.212 -.032 .373 -.058 .488 -.078c.052 0 .09 .02 .116 .046c.09 .09 .065 .141 .039 .167l-.013 .013c-.174 .083 -.347 .167 -.521 .244c-.193 .084 -.258 .097 -.29 .097c-.026 0 -.045 -.007 -.058 -.02l-1.634 -1.576l-.631 -.599c-.026 -.026 -.039 -.045 -.039 -.07v-.013l.007 -.013a.168 .168 0 0 1 .045 -.065a.255 .255 0 0 1 .09 -.058c.038 0 .077 .026 .148 .071c.18 .174 .257 .213 .29 .219h.025c.039 0 .07 -.013 .11 -.052l.585 -.585l.888 -.92l.509 -.541c.058 -.064 .129 -.155 .11 -.225c-.014 -.045 -.072 -.142 -.258 -.322a.112 .112 0 0 1 -.032 -.077c0 -.039 .012 -.071 .051 -.11a.112 .112 0 0 1 .09 -.045zm-13.36 2.684a.121 .121 0 0 0 -.052 .013c-.019 .006 -.032 .02 -.045 .032a.074 .074 0 0 0 -.032 .045c-.006 .02 -.006 .032 -.006 .052c0 .019 0 .038 .006 .051c.007 .02 .013 .032 .026 .045c.006 .013 .026 .026 .039 .032c.019 .007 .032 .013 .051 .013l.058 .026l.302 .457l-.012 .07l-.438 .27l-.026 -.006l-.02 -.077l-.006 .077c-.032 .007 -.045 .007 -.064 .013c-.02 .007 -.032 .02 -.045 .033a.115 .115 0 0 0 -.032 .045c-.007 .012 -.007 .032 -.007 .051c0 .02 .007 .032 .013 .052c.007 .019 .02 .032 .032 .045c.013 .012 .026 .025 .046 .032c.019 .006 .032 .013 .051 .013a.12 .12 0 0 0 .051 -.013a.104 .104 0 0 0 .046 -.026a.196 .196 0 0 0 .032 -.045c.006 -.02 .013 -.032 .013 -.051l.006 -.026l.013 -.026l.026 -.013l.366 -.244h.026l.052 .006l.354 .508v.046l-.013 .019c-.013 .013 -.013 .02 -.02 .032c-.006 .013 -.012 .02 -.012 .032l-.007 .032v.033c0 .032 .007 .064 .02 .09a.286 .286 0 0 0 .051 .07c.026 .026 .052 .039 .077 .052c.013 .006 .026 .006 .039 .006h.11c.012 -.006 .019 -.006 .031 -.013a.231 .231 0 0 0 .078 -.051c.025 -.026 .038 -.052 .051 -.077a.227 .227 0 0 0 .02 -.09a.198 .198 0 0 0 -.02 -.084a.231 .231 0 0 0 -.129 -.129a.377 .377 0 0 0 -.083 -.013l-.077 -.006l-.026 -.013l-.013 -.026l-.328 -.495l.006 -.071l.039 -.026l.354 -.231l.025 -.007l.065 .013c.032 0 .045 -.006 .064 -.013c.02 -.006 .032 -.02 .045 -.032c.007 -.013 .02 -.026 .026 -.045c.006 -.013 .006 -.032 .006 -.052c0 -.019 -.006 -.032 -.012 -.051c-.007 -.02 -.02 -.032 -.033 -.045c-.013 -.007 -.025 -.02 -.045 -.026c-.019 -.006 -.032 -.013 -.051 -.013a.12 .12 0 0 0 -.052 .013a.103 .103 0 0 0 -.045 .026a.195 .195 0 0 0 -.032 .045c-.006 .02 -.013 .032 -.013 .051v.02l-.025 .045l-.02 .006l-.36 .238h-.032l-.039 -.006l-.02 -.026l-.289 -.437l-.006 -.04l.012 -.044l.078 -.026h-.078c0 -.02 -.006 -.032 -.012 -.051a.11 .11 0 0 0 -.033 -.045c-.012 -.007 -.025 -.02 -.045 -.026c-.019 -.007 -.032 -.013 -.051 -.013zm-9.364 -4.39c.052 -.038 .11 -.025 .155 .04c.077 .102 .032 .154 .006 .173c-.219 .16 -.283 .257 -.296 .309c-.02 .07 -.006 .148 .039 .244c.051 .11 .186 .322 .405 .631c.219 .316 .509 .721 .856 1.21l.515 .712l.06 .083l.017 .022a.165 .165 0 0 1 .026 .097c0 .032 -.026 .064 -.058 .09l-.02 .013l-4.234 -.67l.72 .985l.818 1.05c.039 .05 .084 .077 .135 .077h.013c.052 0 .135 -.026 .277 -.136c.148 -.115 .193 -.135 .219 -.141c.032 -.007 .083 -.013 .128 .045c.026 .039 .039 .07 .033 .103c-.007 .02 -.013 .051 -.046 .07l-.61 .445l-.56 .437a.096 .096 0 0 1 -.059 .02c-.045 0 -.083 -.026 -.122 -.077c-.032 -.046 -.02 -.097 .045 -.155a1.09 1.09 0 0 1 .129 -.116a.652 .652 0 0 0 .154 -.174c.032 -.051 .032 -.103 -.006 -.167l-1.577 -2.201a.256 .256 0 0 0 -.084 -.084c-.013 -.006 -.058 -.032 -.25 -.038c-.04 -.007 -.072 -.007 -.097 -.007c-.11 0 -.148 .02 -.155 .026l-.16 .122c-.052 .039 -.116 .02 -.162 -.058c-.057 -.077 -.032 -.141 .013 -.173l.432 -.296c.019 -.013 .083 -.065 .186 -.148c.103 -.09 .168 -.142 .193 -.161l.013 -.007h.077l3.804 .63l-1.043 -1.466c-.27 -.36 -.418 -.445 -.495 -.451h-.032c-.11 0 -.258 .07 -.444 .212a.102 .102 0 0 1 -.078 .033c-.025 0 -.064 -.013 -.096 -.058c-.077 -.103 -.013 -.168 .006 -.18l.65 -.464zm17.634 -1.491c.013 0 .026 0 .039 .006c.032 .013 .103 .064 .064 .18c-.013 .039 -.006 .065 .02 .09c.019 .026 .083 .071 .257 .155l2.13 .99c.11 .052 .097 .11 .084 .142c-.013 .033 -.045 .071 -.283 .187c-.161 .077 -.322 .161 -.49 .251l-2.278 1.152c-.19 .093 -.346 .17 -.467 .231l-.154 .078a6.493 6.493 0 0 0 -.1 .052l-.11 .07a.84 .84 0 0 0 .085 .045l.102 .052l.766 .347c.232 .097 .419 .174 .56 .226c.09 .032 .18 .051 .277 .051a.806 .806 0 0 0 .129 -.013a1.52 1.52 0 0 0 .457 -.167c.264 -.135 .283 -.142 .296 -.142c0 -.006 .013 -.006 .026 -.006c.025 0 .057 .013 .09 .026c.032 .019 .058 .038 .064 .064c.006 .013 .006 .039 -.006 .07c-.007 .014 -.007 .027 -.251 .265l-.167 .166a6.933 6.933 0 0 1 -.181 .175c-.07 .064 -.129 .096 -.18 .096c-.013 0 -.032 0 -.045 -.006l-2.17 -1.01l-.65 -.29a.602 .602 0 0 1 -.078 -.039l-.03 -.02c-.02 -.012 -.052 -.044 -.014 -.115c.02 -.032 .04 -.084 .676 -.373c.412 -.193 .798 -.38 1.152 -.56l.387 -.193c.275 -.138 .585 -.292 .933 -.464c.54 -.27 .714 -.373 .766 -.405c-.007 -.007 -.013 -.013 -.026 -.02c-.052 -.025 -.122 -.057 -.213 -.102a21.76 21.76 0 0 0 -.708 -.329a1.936 1.936 0 0 0 -.579 -.173a.728 .728 0 0 0 -.392 .07a1.969 1.969 0 0 0 -.322 .206c-.116 .097 -.193 .13 -.258 .097c-.045 -.026 -.07 -.045 -.083 -.077c-.007 -.02 0 -.045 .006 -.065c.007 -.013 .007 -.013 .348 -.412a8.98 8.98 0 0 0 .392 -.47c.026 -.038 .071 -.09 .13 -.09zm-12.48 -.58c.155 -.051 .271 -.02 .342 .09c.051 .084 .116 .174 .187 .27c.064 .09 .135 .18 .2 .265l.006 .019c.012 .032 0 .064 -.026 .09a.429 .429 0 0 1 -.077 .039l-.026 .006c-.032 0 -.09 -.013 -.27 -.11a2.551 2.551 0 0 0 -.387 -.18a.902 .902 0 0 0 -.264 -.064h-.025a.598 .598 0 0 0 -.187 .032l-.772 .283c-.039 .013 -.058 .039 -.058 .078c0 .038 .006 .122 .064 .29l.354 1.093l.296 -.096a1.09 1.09 0 0 0 .4 -.2c.07 -.07 .096 -.16 .077 -.276a2.331 2.331 0 0 1 -.026 -.277c0 -.09 .038 -.116 .07 -.129c.136 -.045 .174 .013 .18 .039l.245 .746l.22 .58c.006 .025 .019 .096 -.09 .135c-.078 .025 -.155 -.039 -.246 -.213c-.064 -.128 -.135 -.206 -.218 -.238c-.084 -.026 -.258 0 -.502 .077l-.329 .11l.4 1.235c.032 .103 .07 .142 .096 .155a.38 .38 0 0 0 .174 -.02l1.248 -.405c.084 -.026 .155 -.135 .22 -.315c.07 -.2 .121 -.354 .16 -.464a.172 .172 0 0 1 .097 -.083c.09 -.026 .141 -.007 .16 .045v.02c-.006 .192 -.012 .379 -.025 .572c-.013 .27 -.045 .328 -.09 .341l-2.163 .702l-.824 .276c-.019 .007 -.032 .007 -.045 .007c-.013 0 -.025 0 -.038 -.007l-.02 -.013c-.012 -.012 -.019 -.038 -.032 -.07c-.013 -.045 -.02 -.078 -.013 -.103c.02 -.039 .052 -.058 .13 -.084c.237 -.077 .308 -.129 .327 -.154c.032 -.04 .039 -.084 .02 -.142l-.238 -.792l-.4 -1.223l-.238 -.701c-.025 -.084 -.077 -.187 -.148 -.206c-.07 -.02 -.206 .006 -.405 .07c-.013 .007 -.026 .007 -.039 .007c-.038 0 -.09 -.02 -.096 -.116a.128 .128 0 0 1 -.007 -.083c.007 -.032 .032 -.052 .065 -.065l.836 -.25zm4.126 -.67l.65 .065l.444 .013c.032 0 .084 .013 .11 .09c.006 .02 .025 .065 .064 .225c.026 .11 .11 .419 .257 .934c.148 .508 .27 .92 .36 1.222c.065 .206 .117 .36 .155 .47l1.365 -2.696c.032 -.071 .083 -.084 .115 -.084l.567 .058l.598 .02a.1 .1 0 0 1 .09 .05c.02 .026 .02 .059 .02 .097c-.007 .071 -.052 .116 -.116 .116c-.309 -.02 -.425 0 -.45 .013c-.058 .02 -.071 .103 -.078 .174l-.09 2.909c-.006 .064 .013 .116 .052 .148a.38 .38 0 0 0 .18 .058c.186 .013 .244 .032 .27 .045c.077 .025 .09 .07 .09 .103c-.006 .122 -.083 .135 -.116 .135l-.881 -.07l-.792 -.046c-.026 -.006 -.11 -.02 -.103 -.148c.007 -.032 .02 -.084 .116 -.103c.051 -.006 .122 -.006 .212 0a.662 .662 0 0 0 .11 .006c.128 0 .154 -.019 .16 -.025c.02 -.02 .052 -.071 .059 -.193l.077 -2.755l-1.378 2.645c-.077 .148 -.141 .27 -.199 .373c-.064 .13 -.11 .18 -.167 .18c-.065 -.006 -.11 -.05 -.142 -.147c-.026 -.078 -.051 -.193 -.09 -.341c-.039 -.155 -.122 -.45 -.251 -.882c-.129 -.431 -.257 -.85 -.386 -1.249l-.142 -.45c-.09 .296 -.2 .701 -.334 1.21c-.155 .592 -.245 1.004 -.258 1.235c-.006 .09 .013 .194 .206 .206c.116 .007 .193 .013 .238 .026c.026 .007 .11 .026 .103 .09c-.006 .077 -.013 .103 -.026 .122c-.012 .02 -.032 .04 -.083 .04h-.02l-.662 -.059l-.573 -.026c-.052 0 -.078 -.025 -.103 -.025c-.013 -.02 -.026 -.052 -.02 -.11c.007 -.019 .013 -.083 .11 -.096c.026 -.007 .11 -.007 .244 0c.078 .006 .13 -.007 .155 -.032c.02 -.026 .058 -.084 .11 -.27l.61 -2.234c.04 -.103 .059 -.193 .078 -.277c.02 -.083 .026 -.148 .032 -.2c0 -.006 0 -.025 -.038 -.115c-.033 -.084 -.058 -.103 -.058 -.103c-.007 -.007 -.033 -.02 -.155 -.039a1.947 1.947 0 0 0 -.296 -.038a.101 .101 0 0 1 -.09 -.045a.155 .155 0 0 1 -.026 -.097c.013 -.116 .09 -.122 .116 -.122z"/></svg>