<svg xmlns="http://www.w3.org/2000/svg" width="48" height="48" viewBox="0 0 48 48" fill="currentColor"><path d="M24.186 46.345c-2.257 0 -4.512 .002 -6.77 0c-2.326 -.004 -4.652 -.006 -6.979 -.023c-1.006 -.006 -2.01 -.05 -3.016 -.075c-.715 -.017 -1.375 -.241 -2.002 -.558c-1.989 -1.008 -3.278 -2.586 -3.81 -4.757a4.103 4.103 0 0 1 -.103 -.89a269.49 269.49 0 0 1 -.067 -3.812a709.205 709.205 0 0 1 -.035 -5.259c-.013 -3.583 -.025 -7.165 -.024 -10.748c.003 -2.794 .026 -5.587 .045 -8.38c.006 -.95 .023 -1.9 .042 -2.849c.01 -.53 .037 -1.06 .054 -1.59c.013 -.438 .128 -.855 .27 -1.264c.51 -1.465 1.36 -2.684 2.633 -3.588c.302 -.213 .624 -.396 .945 -.578c.444 -.254 .937 -.358 1.438 -.42c1.153 -.142 2.312 -.169 3.47 -.175c3.115 -.015 6.232 -.025 9.347 -.032c1.949 -.004 3.898 .004 5.847 .01c3.702 .011 7.405 .024 11.107 .034c1.083 .004 2.165 .004 3.248 .009c.392 .002 .782 .006 1.174 .016a.79 .79 0 0 1 .262 .057c.306 .12 .612 .241 .91 .375c1.777 .807 3.043 2.113 3.8 3.915c.213 .511 .287 1.05 .308 1.595c.031 .859 .062 1.716 .065 2.575c.014 8.159 .023 16.317 .033 24.475c.002 2.096 0 4.192 .002 6.287c0 .15 -.023 .29 -.08 .428c-.1 .245 -.188 .494 -.287 .742c-.767 1.928 -2.12 3.284 -4.017 4.107c-.166 .071 -.34 .128 -.504 .206c-.245 .117 -.5 .146 -.77 .146c-4.059 .004 -8.118 .015 -12.176 .021c-1.453 .002 -2.907 0 -4.36 0c0 -.008 0 -.004 0 0zm-15.24 -22.58c.058 -.063 .104 -.114 .152 -.164c2.125 -2.19 4.255 -4.378 6.376 -6.57c.763 -.788 1.515 -1.586 2.196 -2.448c.292 -.366 .57 -.746 .761 -1.175c.562 -1.27 .66 -2.576 .226 -3.9c-.66 -2.008 -2.02 -3.355 -3.976 -4.116c-.78 -.304 -1.593 -.459 -2.427 -.52c-.88 -.063 -1.758 -.06 -2.63 .097c-1.084 .192 -1.93 .74 -2.513 1.68c-.07 .113 -.134 .229 -.203 .342a1.308 1.308 0 0 0 -.19 .593c-.041 .633 -.09 1.268 -.11 1.9c-.027 .86 -.038 1.717 -.044 2.576a2389.3 2389.3 0 0 0 -.057 15.022c.004 3.38 .02 6.76 .036 10.14c.004 .762 .033 1.522 .054 2.283c.017 .597 .193 1.144 .562 1.614c.25 .318 .522 .62 .807 .907c.363 .367 .813 .58 1.318 .687c.537 .114 1.082 .139 1.625 .141c1.027 .002 2.054 -.01 3.079 -.034c.431 -.01 .867 -.037 1.276 -.205c.76 -.31 1.488 -.685 2.09 -1.255c1.855 -1.752 2.469 -3.858 1.756 -6.325c-.184 -.635 -.557 -1.167 -.966 -1.677c-.637 -.798 -1.337 -1.54 -2.048 -2.271c-2.184 -2.245 -4.374 -4.48 -6.56 -6.719c-.193 -.199 -.388 -.398 -.59 -.603zm12.744 .09c.149 -.166 .285 -.323 .43 -.474c1.924 -1.995 3.842 -3.998 5.78 -5.981c2.914 -2.984 5.844 -5.95 8.763 -8.925c.925 -.943 1.84 -1.895 2.759 -2.842c.065 -.067 .125 -.143 .203 -.23c-.27 -.18 -.526 -.317 -.826 -.348c-.327 -.034 -.654 -.07 -.98 -.082c-.83 -.032 -1.66 -.059 -2.493 -.074a649.05 649.05 0 0 0 -4.63 -.054c-1.593 -.015 -3.183 -.021 -4.776 -.031c-1.201 -.007 -2.402 -.013 -3.605 -.017c-.061 0 -.122 .008 -.214 .014c.082 .283 .149 .545 .237 .801c.327 .943 .658 1.884 .99 2.825c.21 .603 .332 1.224 .33 1.867c-.004 .811 0 1.62 -.01 2.431a6.762 6.762 0 0 1 -.336 1.953a9.905 9.905 0 0 1 -2.079 3.695c-.312 .35 -.614 .708 -.937 1.046c-1.356 1.42 -2.724 2.84 -4.089 4.258c-.056 .059 -.109 .12 -.167 .187c.06 .067 .104 .121 .153 .17c1.043 1.079 2.091 2.154 3.127 3.241c.886 .93 1.76 1.872 2.63 2.819c.413 .448 .75 .951 1.014 1.507c.527 1.1 .893 2.242 .977 3.464c.078 1.13 .084 2.259 -.025 3.388c-.117 1.212 -.446 2.354 -1.037 3.42c-.116 .208 -.214 .424 -.317 .638c-.036 .073 -.057 .153 -.084 .228c.145 .084 .241 .111 .516 .12c1.3 .033 2.599 .014 3.894 -.09c.317 -.026 .637 -.1 .937 -.206c1.733 -.627 2.936 -1.817 3.626 -3.52a5.627 5.627 0 0 0 .36 -2.979c-.098 -.66 -.32 -1.284 -.578 -1.896a2.292 2.292 0 0 0 -.398 -.637c-.415 -.463 -.818 -.937 -1.247 -1.388c-1.616 -1.69 -3.243 -3.371 -4.863 -5.063c-.924 -.962 -1.838 -1.934 -2.754 -2.904c-.096 -.1 -.18 -.212 -.28 -.331zm13.165 19.053c.081 .007 .134 .015 .188 .013c.977 -.044 1.954 -.08 2.93 -.138c.432 -.026 .864 -.105 1.25 -.321a4.495 4.495 0 0 0 1.899 -2.006a1.35 1.35 0 0 0 .119 -.46c.036 -.466 .059 -.935 .07 -1.403c.018 -.892 .026 -1.787 .035 -2.682c.008 -.79 .012 -1.578 .01 -2.368c-.006 -3.072 -.017 -6.147 -.023 -9.219c-.006 -2.487 -.008 -4.973 -.014 -7.46c-.007 -1.977 -.02 -3.953 -.028 -5.93c0 -.058 -.008 -.116 -.019 -.223c-4.328 4.405 -8.622 8.776 -12.921 13.156c.055 .061 .094 .11 .138 .153c1.21 1.222 2.43 2.431 3.624 3.668c.908 .938 1.782 1.91 2.668 2.869c.243 .264 .432 .563 .598 .882a9.41 9.41 0 0 1 .893 2.649c.234 1.255 .293 2.52 .222 3.795a9.136 9.136 0 0 1 -.828 3.353c-.224 .488 -.472 .966 -.709 1.448c-.035 .067 -.062 .136 -.102 .224z"/></svg>