---
version: "0.0.4"
---
<svg>
  <path d="M21.811 11.654c0 5.603 -4.554 10.155 -10.157 10.155c-5.606 0 -10.154 -4.549 -10.154 -10.155c0 -5.613 4.548 -10.154 10.154 -10.154c5.603 0 10.157 4.538 10.157 10.154m24.689 0c0 -5.613 -4.548 -10.154 -10.152 -10.154c-5.602 0 -10.148 4.54 -10.148 10.154c0 5.603 4.546 10.155 10.148 10.155c5.607 -.002 10.152 -4.55 10.152 -10.155m-24.689 24.696c0 -5.607 -4.554 -10.147 -10.157 -10.147c-5.606 0 -10.154 4.54 -10.154 10.147s4.548 10.155 10.154 10.155c5.603 0 10.157 -4.546 10.157 -10.155m24.689 0c0 -5.607 -4.548 -10.147 -10.152 -10.147c-5.602 0 -10.148 4.54 -10.148 10.147s4.546 10.155 10.148 10.155c5.607 0 10.152 -4.546 10.152 -10.155" />
</svg>
