---
version: "0.0.4"
---
<svg>
  <path d="M23.276 1.854l-.294 .404l.094 .21c.242 .539 .39 1.143 .35 1.428c-.08 .576 -.8 1.242 -1.626 1.506c-.345 .11 -.365 .095 -.5 -.355l-.085 -.283l.271 -.288c.78 -.832 .935 -1.567 .536 -2.555l-.109 -.27l-.262 .334l-.262 .334l.112 .326c.173 .502 .181 .827 .028 1.109c-.107 .198 -.431 .564 -.464 .523a14.697 14.697 0 0 1 -.211 -.569c-.391 -1.09 -.685 -1.734 -.809 -1.775c-.038 -.012 -.468 .66 -.468 .732c0 .021 .15 .34 .334 .707c.323 .644 .522 1.087 .944 2.103c.263 .633 .329 .704 .641 .698c.673 -.014 1.207 -.347 1.793 -1.12c.718 -.947 .866 -1.957 .466 -3.174c-.165 -.502 -.133 -.5 -.479 -.025m2.488 .05c-.173 .17 -.306 .316 -.297 .323l.373 .273c.993 .724 1 .821 .129 1.981c-.426 .567 -.106 .436 .584 -.239c.952 -.932 .958 -1.233 .037 -2.184c-.517 -.534 -.453 -.522 -.826 -.154m5.87 .773c-.02 .007 -.131 .038 -.246 .07c-.223 .06 -.885 .457 -.834 .5c.016 .014 .57 .262 1.23 .553c2.052 .903 1.911 .766 1.597 1.555c-.31 .777 -.878 1.066 -1.767 .898l-.346 -.066l-.398 .395l-.398 .395l.656 -.02c1.626 -.046 2.805 -.815 3.17 -2.066c.191 -.654 .027 -.808 -1.576 -1.482c-.624 -.262 -.974 -.428 -.971 -.46c.002 -.029 .016 -.105 .03 -.171c.028 -.12 -.012 -.147 -.147 -.101m-15.039 .492c-.227 .08 -.461 .164 -.52 .187c-.06 .022 -.112 .037 -.116 .031a12.395 12.395 0 0 1 -.095 -.153c-.083 -.136 -.09 -.14 -.14 -.074c-.18 .236 -.456 1.012 -.415 1.172c.007 .031 .295 -.056 .911 -.278c1.478 -.532 1.416 -.578 2.203 1.636c.229 .645 .429 1.159 .444 1.143c.04 -.041 .335 -.776 .335 -.835c0 -.074 -.766 -2.158 -.86 -2.338c-.323 -.622 -.905 -.786 -1.747 -.491m14.142 1.167c-.205 .15 -.386 .287 -.402 .302c-.046 .046 -1.202 3.405 -1.18 3.428c.012 .011 .185 -.102 .385 -.252l.362 -.273l.575 -1.548c.316 -.851 .608 -1.635 .649 -1.741c.099 -.256 .064 -.249 -.39 .084m-17.74 .248a9.25 9.25 0 0 0 -.094 .844c0 .062 .055 .122 .19 .212c.368 .245 .51 .486 .577 .97c.03 .213 .124 .212 -.894 .01c-.78 -.156 -1.94 -.314 -2.302 -.314h-.16v.286c0 .157 -.01 .32 -.022 .363c-.02 .076 -.006 .08 .441 .103c.255 .013 .553 .034 .663 .046l.2 .022l-.026 .3c-.06 .718 .066 1.175 .511 1.85c.208 .315 .238 .383 .252 .575c.02 .264 -.01 .27 .553 -.124c.298 -.21 .424 -.32 .412 -.36a8.545 8.545 0 0 1 -.079 -.398c-.07 -.387 -.072 -.388 -.307 -.211c-.214 .16 -.2 .166 -.51 -.188c-.378 -.428 -.475 -.673 -.475 -1.203c0 -.203 .004 -.214 .084 -.196l.76 .166c.781 .171 1.396 .333 2.278 .598c.346 .104 .636 .181 .646 .172c.016 -.016 -.09 -.776 -.11 -.798a51.8 51.8 0 0 0 -1.54 -.413c-.01 0 -.018 -.203 -.018 -.452c0 -.799 -.116 -1.182 -.475 -1.574c-.23 -.25 -.518 -.4 -.555 -.286m23.387 .765a3.74 3.74 0 0 0 -.408 .125c-.01 .01 .093 .273 .23 .583c.251 .567 .286 .715 .2 .866a78.102 78.102 0 0 1 -1.111 1.601c-.012 .014 -.206 -.105 -.432 -.266l-.41 -.291l-.284 .153c-.367 .197 -.415 .226 -.415 .251c0 .012 .277 .207 .616 .434l.616 .412l.431 -.193l.432 -.194l.591 -.792c.734 -.982 .8 -1.096 .8 -1.363c0 -.212 -.364 -1.407 -.433 -1.423a3.203 3.203 0 0 0 -.423 .097m3.164 2.087c-.061 .008 -.323 .04 -.58 .07a4.727 4.727 0 0 0 -.483 .073c-.01 .008 .33 .362 .751 .785c.78 .781 .93 .976 .859 1.107c-.021 .038 -.423 .438 -.893 .888l-.854 .817l-.705 -.705l-.706 -.705l-.42 .06c-.23 .034 -.426 .068 -.435 .077c-.01 .009 .185 .219 .432 .467c.247 .247 .74 .746 1.096 1.108l.647 .657l.435 -.04c.52 -.046 .513 -.041 .333 -.222c-.222 -.224 -.215 -.235 .803 -1.222c1.334 -1.295 1.351 -1.379 .473 -2.28a32.94 32.94 0 0 1 -.499 -.519l-.083 -.093l.093 -.135c.148 -.215 .121 -.234 -.264 -.188m-30.806 .662c-.186 .092 -1.232 1.08 -1.416 1.339c-.054 .076 -.066 .067 -.487 -.33c-.493 -.465 -.836 -.673 -.838 -.507c-.004 .32 .134 .773 .25 .82c.182 .075 .44 .253 .807 .559c.449 .373 .387 .395 1.149 -.407c.865 -.91 .908 -.922 1.443 -.407c.641 .618 .713 1.385 .198 2.097l-.128 .177l.25 .492c.137 .27 .26 .492 .272 .492c.105 0 .418 -1.362 .422 -1.842c.013 -1.375 -1.142 -2.867 -1.922 -2.483m12.448 .272v.184h6.151v-.368h-6.151v.184zm-3.987 1.167c-.014 .013 -.026 .104 -.026 .203v.178h14.252v-.406h-7.1c-3.906 0 -7.113 .011 -7.126 .025m-2.35 1.523v.184h18.863v-.368h-18.865v.184zm-10.16 1.225l-.521 1.096c-.208 .436 -.404 .883 -.437 .993c-.36 1.209 .86 2.041 1.767 1.206l.18 -.165l-.014 .206c-.051 .806 .882 1.251 1.58 .755c.36 -.256 1.586 -2.463 1.417 -2.551c-.099 -.052 -.1 -.052 -.15 .068c-.18 .429 -.244 .415 -2.008 -.438c-1.769 -.854 -1.72 -.816 -1.575 -1.216c.042 -.118 .046 -.17 .014 -.208c-.074 -.088 -.106 -.056 -.253 .254m29.21 -.101c-.08 .045 -1.534 .053 -10.379 .054l-10.285 .001v.369h9.254l9.254 .001l-.357 .342c-.403 .387 -.588 .49 -.981 .549c-.194 .029 -2.96 .045 -9.398 .054l-9.123 .012v.405h17.715l-.09 .096a.776 .776 0 0 1 -.587 .236c-.123 0 -.396 .048 -.629 .11c-.314 .083 -.456 .104 -.6 .088a.638 .638 0 0 0 -.334 .037a.64 .64 0 0 1 -.337 .037c-.159 -.019 -.237 -.005 -.432 .076c-.19 .079 -.259 .092 -.337 .063c-.412 -.152 -1.54 -.14 -1.751 .017c-.281 .21 .132 .198 -6.997 .198h-6.558v.369h6.096c3.84 0 6.089 .013 6.075 .035c-.06 .096 -.525 .4 -.807 .528c-.175 .08 -.37 .18 -.431 .223c-.238 .167 -.223 .167 -6.16 .17l-5.636 .002v.405h10.727l-.102 .157c-.056 .086 -.2 .259 -.319 .383c-.149 .156 -.217 .257 -.217 .323v.095h-10.726v.369h10.424l-.037 .094c-.02 .052 -.036 .18 -.036 .286c0 .105 -.029 .286 -.065 .402l-.067 .212h-10.743v.369h10.693l-.024 .304a2.43 2.43 0 0 1 -.085 .48l-.06 .174h-10.788v.406h5.344c5.065 0 5.345 .003 5.344 .064c0 .035 -.027 .156 -.06 .267c-.064 .218 -.081 .32 -.086 .507l-.003 .12h-10.838v.368h10.718l-.03 .134c-.072 .314 -.54 .714 -.835 .714c-.108 0 -.255 .02 -.327 .046c-.101 .035 -1.228 .05 -4.913 .064l-4.782 .019l-.011 .193l-.011 .194l4.437 .001c3.982 .001 4.425 .007 4.332 .057c-.058 .03 -.261 .069 -.452 .085c-.348 .029 -.743 .2 -.794 .345a32.92 32.92 0 0 1 -.095 .258l-.079 .212h-7.349l.011 .193l.011 .194l3.573 .009l3.572 .01v.164c0 .121 .042 .245 .165 .478l.164 .315h-7.305v.369h7.535l.132 .232c.129 .226 .21 .42 .26 .624l.025 .102h-7.689v.405l3.909 .01l3.909 .008l.023 .13c.012 .07 .048 .187 .08 .259c.03 .071 .056 .224 .056 .34v.211h-7.64v.369h7.638l.05 .092c.043 .078 .041 .141 -.013 .418c-.035 .179 -.053 .353 -.04 .386c.022 .057 -.235 .062 -3.562 .062h-3.585v.405h7.559l.247 .249c.136 .137 .328 .348 .427 .47l.18 .22l-3.888 .01l-3.888 .01v.405h8.062l.101 .193c.083 .159 .102 .245 .104 .479l.003 .286h-7.482v.368h7.91l.072 .16c.093 .206 .224 .295 .611 .414c.442 .135 .485 .154 .631 .276l.13 .108h-8.229v.406h9.193l.1 .116c.056 .065 .131 .164 .167 .222c.036 .057 .09 .104 .122 .104c.03 0 .056 .015 .056 .033c0 .018 .076 .134 .17 .257l.168 .226h-8.7v.368h9.061l.077 .083c.042 .046 .124 .155 .182 .242c.169 .256 .287 .29 1.31 .372c.482 .039 .759 .111 .865 .227c.065 .07 .013 .071 -4.91 .071h-4.972v.369h5.246c4.51 0 5.264 .007 5.376 .053c.072 .03 .281 .09 .464 .132c.184 .043 .376 .1 .427 .126c.052 .026 .212 .068 .356 .092c.284 .048 .635 .21 .799 .371a.98 .98 0 0 0 .177 .14c.055 .03 -1.324 .042 -5.243 .043h-5.318l.01 .194l.012 .194l5.447 .009l5.447 .01l.404 .401l.403 .402l.192 -.004a.818 .818 0 0 1 .412 .105c.31 .15 1.547 .15 2.75 -.002c.222 -.028 .674 .09 1.278 .331c.88 .353 1.206 .422 1.631 .348c.124 -.022 .388 -.051 .586 -.065c.306 -.022 .383 -.041 .506 -.125c.14 -.095 .252 -.127 .734 -.21c.171 -.029 .26 -.073 .449 -.222c.362 -.287 .84 -.432 1.27 -.385c.352 .038 1.098 -.515 1.353 -1.002c.121 -.231 .253 -.316 .714 -.46c.82 -.257 1.513 -1.136 1.561 -1.977c.024 -.418 .086 -.504 .656 -.9l.376 -.263l-.024 -.255a5.692 5.692 0 0 0 -.114 -.63c-.145 -.604 -.152 -.695 -.068 -.859c.046 -.088 .08 -.25 .092 -.42c.02 -.331 .151 -.611 .43 -.92c.1 -.112 .206 -.251 .237 -.31a.974 .974 0 0 1 .212 -.232c.227 -.183 .273 -.272 .29 -.554c.028 -.458 .339 -1.035 .899 -1.669c.225 -.254 .285 -.422 .325 -.911c.054 -.654 .054 -.652 .353 -1.244c.424 -.84 .45 -.92 .464 -1.438c.03 -1.14 .014 -1.306 -.148 -1.534a.444 .444 0 0 1 .052 -.56c.193 -.185 .18 -.55 -.035 -.99a1.863 1.863 0 0 1 -.182 -.533a1.958 1.958 0 0 0 -.132 -.455c-.26 -.589 -.347 -1.79 -.186 -2.542c.025 -.117 .047 -.617 .052 -1.18l.009 -.976l-.301 -.287a5.404 5.404 0 0 0 -.659 -.52c-.454 -.293 -.576 -.43 -.675 -.756a1.906 1.906 0 0 0 -.536 -.798l-.12 -.099l-.588 .026c-.635 .028 -.697 .016 -.94 -.184c-.2 -.163 -.98 -.222 -1.406 -.105c-.064 .017 -.127 -.019 -.281 -.161l-.2 -.184l-.318 -.019c-.256 -.016 -.393 -.049 -.694 -.168c-.545 -.215 -.599 -.22 -.884 -.078c-.319 .158 -.63 .14 -1.267 -.071c-.398 -.132 -.483 -.147 -.961 -.168c-.63 -.027 -.72 -.044 -.744 -.135c-.017 -.063 -.057 -.07 -.444 -.07c-.255 0 -.508 -.023 -.631 -.055c-.247 -.065 -.222 -.065 -.338 0m-.881 .49c-.142 .078 -.76 .076 -1.07 -.004c-.201 -.053 -.192 -.054 .488 -.057c.672 -.002 .69 0 .582 .06m-27.617 1.025c.4 .195 .731 .36 .738 .366c.037 .034 -.33 .641 -.493 .815c-.347 .374 -.63 .435 -1.043 .225c-.488 -.249 -.596 -.653 -.336 -1.255c.26 -.6 .222 -.595 1.134 -.15m2.446 1.195c.018 .016 -.036 .168 -.12 .338c-.343 .699 -.82 .886 -1.375 .54c-.374 -.232 -.407 -.588 -.112 -1.205l.175 -.366l.7 .332c.385 .183 .714 .345 .732 .361m24.698 1.401c.277 .123 .284 .129 .295 .24c.007 .06 .036 .182 .065 .273c.105 .328 .04 .825 -.112 .863c-.158 .039 -.195 .154 -.228 .722c-.092 1.575 -.034 1.91 .53 3.08c.144 .299 .407 .526 .717 .62c.224 .069 .317 -.42 .307 -1.606c-.008 -.99 .027 -2.467 .063 -2.594c.015 -.055 -.046 -.164 -.225 -.4c-.34 -.448 -.377 -.611 -.206 -.89c.232 -.376 1.305 -.517 1.872 -.247c.578 .276 .626 .535 .21 1.133l-.101 .146l-.003 1.015c-.002 .558 0 1.114 .003 1.235c.003 .122 .01 .625 .014 1.118l.009 .897l.147 .05c.426 .144 1.018 -.527 1.285 -1.457c.117 -.406 .16 -1.972 .066 -2.413a2.759 2.759 0 0 1 -.055 -.327c0 -.037 -.081 -.156 -.181 -.263c-.256 -.276 -.365 -.647 -.252 -.862c.088 -.167 .226 -.23 .58 -.264c.177 -.017 .403 -.048 .5 -.069c.375 -.078 .847 .085 1.02 .353l.107 .166l-.064 .228c-.07 .25 -.196 .484 -.318 .592c-.097 .087 -.098 .149 -.005 .786c.178 1.23 .041 2.783 -.297 3.382c-.706 1.247 -1.019 1.538 -1.858 1.73a6.342 6.342 0 0 0 -.565 .15l-.151 .055l-.008 .655c-.007 .614 -.002 .666 .077 .82l.084 .164l.238 .011c.78 .036 2.062 -.672 2.72 -1.504c.162 -.203 .811 -1.407 .811 -1.503c0 -.038 .05 -.213 .113 -.388a2.29 2.29 0 0 0 .112 -.395a.36 .36 0 0 1 .04 -.148c.05 -.095 .115 -.524 .11 -.745a2.971 2.971 0 0 1 .054 -.48c.2 -1.049 .028 -2.276 -.371 -2.645c-.241 -.224 -.13 -.618 .273 -.969c.466 -.405 1.853 -.176 2.23 .368c.259 .372 .193 .561 -.339 .979c-.125 .099 -.212 .79 -.25 2.002a6.196 6.196 0 0 1 -.092 .79c-.044 .231 -.08 .536 -.08 .677c0 .298 -.152 1.078 -.279 1.425l-.328 .904c-.28 .771 -.25 .71 -.661 1.325c-.752 1.125 -1.827 1.685 -3.57 1.859c-.803 .08 -.853 .14 -.86 1.03c-.002 .387 -.003 .385 .17 .625c.128 .18 .983 .078 1.665 -.197l.826 -.332c.237 -.096 .465 -.203 .506 -.239c.041 -.035 .248 -.178 .46 -.317c.709 -.467 .932 -.621 1.11 -.766c.221 -.18 .614 -.64 .773 -.905c.066 -.11 .192 -.293 .28 -.405c.228 -.291 .334 -.528 .305 -.68c-.025 -.132 .088 -.403 .265 -.637a.595 .595 0 0 0 .088 -.142c0 -.013 .092 -.184 .205 -.38c.236 -.41 .3 -.633 .247 -.862c-.022 -.099 -.022 -.17 0 -.192c.02 -.019 .036 -.079 .036 -.133c0 -.055 .043 -.19 .095 -.303a1.84 1.84 0 0 0 .164 -1.068c-.065 -.518 .052 -1.174 .26 -1.464c.074 -.103 .231 -.824 .231 -1.063c0 -.16 -.2 -.615 -.336 -.76a.517 .517 0 0 1 -.094 -.222c-.113 -.65 .258 -.97 1.124 -.975c.668 -.003 .929 .093 1.208 .444c.213 .267 .214 .262 -.247 1.07a1.25 1.25 0 0 0 -.154 .48a9.35 9.35 0 0 1 -.075 .473a3.04 3.04 0 0 0 -.037 .498a1.85 1.85 0 0 1 -.037 .424c-.069 .219 -.15 .772 -.176 1.197a2.956 2.956 0 0 1 -.076 .55a6.87 6.87 0 0 0 -.144 .706c-.05 .309 -.125 .65 -.165 .758a6.29 6.29 0 0 0 -.17 .685c-.129 .636 -.37 1.379 -.49 1.507c-.052 .054 -.094 .129 -.094 .166a.753 .753 0 0 1 -.107 .243c-.06 .097 -.203 .346 -.32 .553c-.224 .395 -.86 1.15 -1.207 1.435c-.206 .168 -.588 .515 -.986 .896c-.301 .288 -.616 .49 -1.092 .696c-.705 .307 -.893 .398 -1.054 .51a1.98 1.98 0 0 1 -1.066 .382a15.33 15.33 0 0 0 -.77 .09c-.205 .03 -.43 .054 -.502 .054c-.174 0 -.19 .06 -.181 .664c.01 .616 .16 1.518 .295 1.775c.123 .235 .513 .786 .689 .976c.102 .11 .233 .264 .29 .342c.254 .348 1.299 .937 1.905 1.075c.185 .042 .447 .107 .581 .144c.134 .037 .345 .087 .469 .11c.48 .094 .68 .414 .563 .897c-.103 .425 -.26 .468 -1.356 .372a7.632 7.632 0 0 0 -.895 -.037c-.253 .023 -.757 -.043 -1.19 -.158c-.44 -.116 -1.03 -.169 -1.324 -.119c-.519 .089 -2.025 .15 -2.298 .093c-.328 -.068 -1.01 -.067 -1.72 .003c-.553 .054 -.583 .054 -.957 -.022c-.514 -.103 -1.189 -.128 -1.984 -.075c-.979 .066 -1.423 -.017 -1.391 -.259c.089 -.664 .195 -.743 1.245 -.934c.175 -.032 .437 -.113 .58 -.18c.426 -.2 .668 -.282 .828 -.282c.503 0 1.211 -.324 2.058 -.944c.586 -.428 .778 -.673 .903 -1.146c.031 -.117 .089 -.28 .13 -.36c.149 -.302 .2 -.544 .21 -.995c.006 -.29 .03 -.503 .07 -.617c.109 -.311 -.18 -.58 -.62 -.58a1.23 1.23 0 0 1 -.342 -.038a5.82 5.82 0 0 0 -.62 -.126c-.367 -.06 -.62 -.126 -.806 -.206c-.613 -.265 -1.032 -.483 -1.137 -.592a1.508 1.508 0 0 0 -.373 -.235c-.285 -.13 -.857 -.542 -1.069 -.77c-.504 -.543 -.835 -.857 -1.016 -.965c-.216 -.129 -.306 -.238 -.521 -.625c-.134 -.24 -.418 -.652 -.756 -1.09c-.16 -.209 -.23 -.342 -.277 -.517a25.91 25.91 0 0 0 -.301 -.963a11.8 11.8 0 0 1 -.302 -1.05a3.61 3.61 0 0 0 -.128 -.489a1.861 1.861 0 0 1 -.086 -.43a1.283 1.283 0 0 0 -.08 -.376a.538 .538 0 0 1 -.06 -.196c0 -.046 -.042 -.3 -.093 -.564c-.165 -.853 -.203 -1.098 -.239 -1.529a4.095 4.095 0 0 0 -.131 -.75a2.428 2.428 0 0 1 -.098 -.436c0 -.145 -.051 -.234 -.262 -.455c-.27 -.283 -.298 -.41 -.155 -.694c.273 -.545 .374 -.618 .97 -.69c1.132 -.14 1.921 .415 1.476 1.038c-.348 .487 -.298 1.738 .146 3.664c.085 .365 .172 .746 .194 .847c.023 .102 .097 .294 .166 .429c.068 .134 .211 .524 .318 .866c.207 .665 .36 1.001 .574 1.266c.465 .578 .648 .822 .782 1.05c.083 .142 .196 .328 .25 .414l.243 .39c.106 .17 .192 .26 .319 .33c.095 .053 .393 .254 .661 .447s.58 .397 .69 .452c.113 .056 .243 .137 .29 .18c.048 .043 .211 .114 .363 .158c.152 .043 .317 .11 .367 .147c.477 .361 1.037 .597 1.418 .596c.425 -.001 .43 -.008 .458 -.59c.048 -1.017 -.153 -1.261 -1.085 -1.321c-.612 -.04 -.77 -.11 -1.576 -.7a24.61 24.61 0 0 0 -.737 -.526c-.274 -.174 -.975 -.883 -1.07 -1.082a6.44 6.44 0 0 0 -.299 -.516c-.331 -.521 -.601 -1.007 -.62 -1.116c-.01 -.055 -.034 -.333 -.053 -.617a5.053 5.053 0 0 0 -.192 -1.106c-.218 -.826 -.285 -1.626 -.213 -2.55c.031 -.394 0 -.493 -.173 -.555a1.132 1.132 0 0 1 -.263 -.16l-.144 -.117l.014 -.26c.015 -.288 .101 -.502 .295 -.732l.117 -.138l.419 -.004c.23 -.002 .511 -.023 .624 -.046c.704 -.146 1.337 .864 .855 1.364c-.122 .127 -.145 .211 -.243 .897c-.07 .49 -.07 .55 -.016 .92c.022 .153 .064 .543 .094 .867c.04 .44 .08 .669 .158 .903c.058 .172 .11 .386 .115 .476c.01 .151 .055 .27 .243 .637c.039 .074 .07 .155 .07 .179c0 .024 .076 .166 .169 .317c.093 .15 .169 .287 .169 .306c0 .018 .025 .057 .056 .088a.61 .61 0 0 1 .103 .194c.053 .154 .509 .544 .907 .775c.123 .071 .35 .245 .503 .386c.54 .495 1.242 .748 1.601 .576l.172 -.082l-.026 -.322c-.016 -.2 -.008 -.432 .02 -.612c.083 -.523 -.175 -.801 -.872 -.942c-.242 -.049 -.31 -.079 -.39 -.172a2.231 2.231 0 0 0 -.382 -.293c-.387 -.243 -.485 -.353 -.554 -.613a2.381 2.381 0 0 0 -.165 -.42a1.424 1.424 0 0 1 -.13 -.35a36.24 36.24 0 0 0 -.151 -.773c-.216 -1.062 -.263 -1.769 -.152 -2.285c.092 -.429 .025 -.755 -.206 -.995c-.342 -.355 -.347 -.647 -.02 -1.004c.126 -.137 .22 -.18 .53 -.243c.247 -.05 .79 -.02 .953 .052m-29.872 .246c-.013 .056 -.08 .329 -.15 .606c-.15 .593 -.148 .57 -.056 .593c.056 .014 .084 -.016 .134 -.144c.07 -.18 .17 -.252 .3 -.22c.114 .028 .844 .54 .843 .59c0 .022 -.081 .38 -.18 .795l-.18 .755l-.335 .063c-.715 .133 -.905 .083 -.867 -.231c.02 -.168 -.098 -.308 -.143 -.169c-.14 .429 -.364 1.545 -.318 1.574c.09 .056 .128 .04 .187 -.085c.106 -.227 .241 -.263 2.494 -.667c2.433 -.437 2.288 -.37 1.714 -.782c-3.045 -2.18 -3.27 -2.362 -3.27 -2.644a.135 .135 0 0 0 -.135 -.135c-.008 0 -.025 .046 -.038 .101m2.522 2.377c.177 .125 .308 .231 .29 .237c-.127 .036 -1.713 .31 -1.726 .297c-.008 -.009 .056 -.314 .144 -.679l.16 -.663l.404 .29c.222 .16 .55 .393 .728 .518m-3.626 3.4c0 .73 .002 .755 .075 .755c.056 0 .075 -.025 .075 -.096c0 -.15 .112 -.344 .24 -.412c.125 -.068 3.053 -.122 3.01 -.056c-.01 .016 -.796 .635 -1.745 1.375c-1.327 1.033 -1.727 1.363 -1.728 1.426l-.002 .081l1.903 .011c1.755 .01 1.914 .016 2.041 .078a.48 .48 0 0 1 .256 .408c0 .072 .02 .096 .075 .096c.073 0 .075 -.024 .075 -.737c0 -.712 -.002 -.737 -.075 -.737c-.055 0 -.075 .025 -.075 .093c0 .162 -.1 .341 -.231 .411c-.133 .071 -2.689 .129 -2.644 .06c.01 -.016 .695 -.552 1.52 -1.19l1.502 -1.161l.002 -.58c.001 -.557 -.002 -.58 -.074 -.58c-.06 0 -.075 .024 -.075 .123c0 .12 -.136 .348 -.272 .459c-.105 .085 -3.307 .047 -3.472 -.042c-.135 -.073 -.231 -.25 -.231 -.43c0 -.086 -.017 -.11 -.075 -.11c-.073 0 -.075 .024 -.075 .754m4.272 4.137c-.002 .015 0 .105 .003 .2c.013 .374 .032 .366 -1.887 .788c-1.94 .426 -1.825 .423 -1.96 .054c-.066 -.182 -.147 -.238 -.189 -.132c-.02 .05 .367 1.734 .407 1.773c.075 .074 .134 -.04 .115 -.22c-.038 -.364 .002 -.389 .955 -.596c.872 -.19 .867 -.195 .474 .449c-.698 1.143 -1.093 1.506 -1.207 1.109c-.048 -.167 -.124 -.206 -.227 -.115c-.046 .039 .457 1.898 .507 1.879a.354 .354 0 0 1 .071 -.02c.01 0 .016 -.072 .016 -.159c0 -.26 .877 -1.676 1.652 -2.669l.063 -.082l.821 .512c.908 .565 1.07 .698 1.204 .985c.092 .198 .313 .31 .258 .132c-.01 -.036 -.107 -.409 -.213 -.83c-.171 -.675 -.203 -.764 -.269 -.764c-.068 0 -.072 .016 -.048 .204c.042 .33 -.06 .385 -.403 .215c-.198 -.097 -1.641 -1.055 -1.622 -1.075c.024 -.025 1.418 -.34 1.505 -.34c.125 0 .261 .141 .319 .33c.042 .14 .213 .221 .198 .094c-.045 -.376 -.415 -1.75 -.472 -1.75c-.037 0 -.07 .013 -.07 .028m.58 6.03c-1.812 .433 -2.474 2.41 -1.219 3.635c1.75 1.706 4.664 -.378 3.559 -2.544a2.074 2.074 0 0 0 -2.34 -1.09m1.536 .645c.825 .393 .89 1.37 .14 2.106c-1.319 1.295 -3.174 1.151 -3.17 -.246c.003 -1.106 2.016 -2.342 3.03 -1.86m1.91 2.329c-.031 .03 -.013 .08 .067 .19c.215 .29 .215 .289 -1.102 1.509c-1.551 1.436 -1.466 1.383 -1.8 1.11c-.123 -.1 -.17 -.108 -.2 -.033c-.035 .09 1.189 1.381 1.271 1.34c.089 -.044 .083 -.092 -.028 -.221c-.238 -.278 -.178 -.391 .566 -1.067l.558 -.506l.32 .334c.627 .66 .686 .842 .382 1.182c-.1 .113 .033 .215 .15 .116c.663 -.556 1.043 -.953 .975 -1.02c-.068 -.067 -.074 -.066 -.25 .026c-.207 .108 -.282 .115 -.428 .041c-.12 -.06 -.913 -.862 -.897 -.905c.024 -.062 1.117 -.995 1.165 -.995c.049 0 .758 .753 .976 1.035c.177 .23 .168 .397 -.036 .706c-.065 .099 -.065 .103 .017 .183l.084 .082l.32 -.312c.175 -.172 .314 -.333 .309 -.358c-.015 -.068 -2.288 -2.478 -2.336 -2.478a.145 .145 0 0 0 -.083 .04m3.811 3.483c-.041 .05 -.038 .064 .024 .098c.486 .263 .49 .25 -.62 1.998c-1.012 1.592 -.998 1.578 -1.392 1.38c-.147 -.074 -.259 -.056 -.259 .041c0 .03 1.55 .963 1.635 .985c.137 .036 .12 -.098 -.024 -.192c-.37 -.24 -.367 -.25 .576 -1.735c1.176 -1.852 1.09 -1.76 1.47 -1.589c.224 .1 .407 .051 .27 -.072a65.755 65.755 0 0 0 -1.607 -.96c-.013 -.007 -.046 .014 -.073 .046m7.692 .456v.185h5.814v-.369h-5.813v.184zm10.463 1.401c-.608 .316 -.771 .416 -.781 .48c-.011 .073 0 .08 .094 .058c.509 -.117 .437 -.2 1.332 1.533c.914 1.77 .881 1.668 .593 1.863c-.153 .105 -.171 .14 -.116 .225c.03 .046 2.856 -1.34 3.086 -1.514c.056 -.042 -.104 -1.09 -.177 -1.166c-.081 -.084 -.16 .057 -.182 .331c-.053 .616 -.259 .847 -1.148 1.286c-.38 .187 -.493 .222 -.573 .179c-.08 -.045 -1.551 -2.89 -1.585 -3.066c-.026 -.135 -.019 -.15 .165 -.32c.132 -.12 .186 -.196 .17 -.236c-.035 -.088 -.05 -.082 -.878 .347m-15.718 -.283c-.9 .33 -.953 1.075 -.162 2.241c.534 .787 .593 .987 .4 1.36c-.424 .825 -1.529 .248 -1.663 -.868c-.038 -.321 -.106 -.512 -.161 -.457c-.091 .089 -.391 1.338 -.332 1.38c.056 .041 .078 .037 .143 -.023c.115 -.105 .189 -.088 .384 .09c.89 .814 1.919 .801 2.364 -.03c.253 -.472 .133 -.913 -.5 -1.828c-.555 -.803 -.634 -1.092 -.372 -1.367c.533 -.556 1.378 .063 1.383 1.012c.002 .302 .068 .47 .153 .387c.012 -.012 .468 -1.316 .468 -1.34c0 -.05 -.181 -.035 -.255 .022c-.13 .101 -.139 .098 -.413 -.154c-.434 -.399 -1.03 -.575 -1.437 -.425m12.599 1.237c-1.74 .415 -1.7 .403 -1.665 .511c.02 .061 .05 .069 .204 .054c.378 -.035 .394 -.001 .847 1.812c.446 1.785 .446 1.79 .051 1.95c-.144 .059 -.176 .218 -.037 .187c.104 -.023 3.09 -.752 3.241 -.792l.14 -.036v-.551c0 -.507 -.005 -.552 -.067 -.552c-.083 0 -.157 .07 -.157 .146c0 .223 -.34 .68 -.607 .815c-.307 .155 -1.36 .402 -1.428 .334c-.036 -.035 -.454 -1.627 -.432 -1.646c.04 -.033 1.179 -.275 1.298 -.275c.17 0 .302 .12 .387 .35c.03 .085 .066 .124 .099 .111a.307 .307 0 0 1 .086 -.019c.064 0 -.255 -1.357 -.342 -1.45c-.09 -.097 -.174 .016 -.174 .234c0 .237 -.052 .33 -.241 .426c-.086 .044 -1.106 .311 -1.186 .311c-.05 0 -.407 -1.468 -.365 -1.504c.053 -.046 1.02 -.297 1.278 -.33c.39 -.053 .574 .031 .71 .326c.062 .138 .147 .167 .24 .083c.02 -.018 -.186 -.83 -.22 -.863c-.012 -.013 -.76 .153 -1.66 .368m-9.834 -.204c-.025 .094 -.012 .105 .206 .184c.29 .105 .291 .042 -.041 1.839c-.36 1.944 -.38 1.993 -.791 1.929c-.142 -.023 -.151 -.019 -.14 .058c.011 .077 1.345 .386 1.709 .396c.147 .004 .108 -.132 -.046 -.16c-.387 -.072 -.415 -.21 -.238 -1.155l.12 -.635h.348l.553 1.116l.553 1.115l.493 .086c.271 .048 .512 .094 .536 .103c.143 .053 .07 -.139 -.08 -.21c-.198 -.094 -.184 -.074 -.792 -1.178c-.34 -.616 -.483 -.91 -.452 -.926c.025 -.013 .148 -.032 .273 -.042c.655 -.055 1.025 -.473 .983 -1.11c-.044 -.673 -.457 -.953 -1.8 -1.221c-1.433 -.287 -1.37 -.278 -1.394 -.189m1.824 .576c.962 .353 .871 1.494 -.13 1.64c-.189 .028 -.817 -.043 -.817 -.092c0 -.187 .316 -1.575 .368 -1.615c.08 -.062 .298 -.036 .58 .067m4.179 .063c-.01 .016 -.343 .809 -.74 1.761c-.942 2.263 -.963 2.302 -1.227 2.358c-.198 .04 -.18 .223 .019 .19c.077 -.012 .38 -.023 .675 -.023c.503 0 .534 -.005 .534 -.072c0 -.056 -.035 -.077 -.17 -.096c-.35 -.052 -.368 -.165 -.124 -.795l.152 -.391l.806 -.027c.443 -.015 .82 -.013 .838 .004c.073 .074 .41 .87 .41 .97c0 .125 -.064 .171 -.295 .207c-.117 .019 -.154 .041 -.154 .094c0 .065 .044 .069 .844 .069h.843v-.089c0 -.071 -.03 -.098 -.156 -.138c-.22 -.07 -.199 -.033 -1.188 -2.132c-.89 -1.887 -.975 -2.038 -1.067 -1.89m-.018 2.602a9.17 9.17 0 0 1 -.704 .017c-.007 -.007 .132 -.388 .31 -.846l.325 -.832l.38 .815l.38 .816l-.69 .03z" />
</svg>
