---
version: "0.5"
---
<svg>
  <path d="M22.243 42.707v-4.221h-3.008v-1.594h4.19v-1.123l-1.455 .002c.15 -.355 .332 -.95 .332 -1.747v-1.874h-7.544v1.117h6.2v2.503h-7.262v1.122h4.192v1.594h-3.13v1.117h6.14v3.104h1.345zm3.43 -4.125h9.73v-1.116h-9.73v1.116zm2.49 2.933v-2.213h-1.344v2.74c0 .321 .278 .59 .608 .59h6.949v-1.117h-6.214m2.378 -5.789c-1.07 0 -1.838 -.612 -1.838 -1.455c0 -.844 .769 -1.462 1.838 -1.462c1.065 0 1.837 .618 1.837 1.462c0 .843 -.772 1.455 -1.837 1.455m0 -4.027c-1.761 0 -3.194 1.153 -3.194 2.572c0 1.39 1.463 2.566 3.194 2.566c1.728 0 3.189 -1.176 3.189 -2.566c0 -1.419 -1.431 -2.572 -3.19 -2.572m-25.793 6.32c1.486 0 2.694 -1.17 2.694 -2.61c0 -.62 -.235 -1.153 -.644 -1.548l1.194 .001v-1.122h-2.523v-.988h-1.437v.988h-2.53v1.122h1.197a2.107 2.107 0 0 0 -.642 1.548c0 1.439 1.206 2.61 2.69 2.61zm5.45 1.277s.364 -1.117 .364 -2.378v-1.31h1.393v-1.118h-1.393v-2.47h-1.347v7.275h.983zm-5.45 -2.33c-.776 0 -1.432 -.72 -1.432 -1.568c0 -.854 .656 -1.573 1.432 -1.573c.781 0 1.436 .72 1.436 1.573c0 .849 -.655 1.568 -1.436 1.568zm5.908 5.665v-1.116h-6.024v-2.6h-1.342v3.126c0 .322 .28 .59 .608 .59h6.758zm29.113 -5.02c1.315 0 2.382 -1.086 2.382 -2.422c0 -.54 -.187 -1.009 -.512 -1.365h.906v-1.116h-2.055v-.956h-1.438v.956h-2.051v1.117l.9 -.001a1.984 1.984 0 0 0 -.51 1.365c0 1.336 1.065 2.422 2.38 2.422zm3.395 5.139c1.644 0 3.035 -1.171 3.035 -2.55c0 -1.037 -.733 -1.932 -1.784 -2.335v-2.644h.816v2.685h.913s.358 -.966 .358 -2.379v-3.506h-1.271v2.126h-.817v-2.126h-1.271l-.001 5.618l-.162 .003c-1.585 .08 -2.847 1.197 -2.847 2.558c0 1.379 1.388 2.55 3.031 2.55zm-3.395 -6.213c-.608 0 -1.124 -.623 -1.124 -1.36c0 -.74 .516 -1.363 1.124 -1.363c.61 0 1.126 .623 1.126 1.364c0 .736 -.515 1.359 -1.126 1.359zm3.395 5.15c-.998 0 -1.755 -.646 -1.755 -1.487c0 -.855 .757 -1.505 1.755 -1.505c1.02 0 1.755 .634 1.755 1.505c0 .858 -.734 1.487 -1.755 1.487zm-19.255 -36.437c6.518 .019 11.806 5.172 11.949 11.572l.003 .301l-.004 .131c-.09 6.366 -5.26 11.513 -11.68 11.67l-.303 .004h-.035a12.009 12.009 0 0 1 -10.306 -5.852l-.157 -.27a11.672 11.672 0 0 1 -1.484 -5.336l-.006 -.416c.02 -6.438 5.238 -11.66 11.718 -11.801l.305 -.003zm.438 15.035a5.348 5.348 0 0 0 .622 .54a4.813 4.813 0 0 0 .713 .43a4.13 4.13 0 0 0 1.518 .406l.02 .001l.043 .002l.134 .004h.068c.054 0 .107 -.002 .16 -.005l.038 -.002a3.67 3.67 0 0 0 .26 -.026l.023 -.003a3.556 3.556 0 0 0 1.019 -.305l.019 -.01l.033 -.016l.17 -.09c2.347 -1.33 2.337 -5.976 -.738 -8.987l-.196 -.186c-.79 -.725 -3.654 -2.986 -7.746 -2.207l-.317 .066c-4.21 .95 -7.163 4.528 -7.59 8.468l-.025 .27c.19 -1.783 1.171 -3.243 3.047 -3.796l.23 -.062c.386 -.096 .76 -.15 1.128 -.164l.219 -.003c2.326 .016 4.329 1.697 6.602 5.007l.095 .135l.096 .133c.07 .086 .141 .17 .215 .25l.112 .12z" />
</svg>
