<svg xmlns="http://www.w3.org/2000/svg" width="48" height="48" viewBox="0 0 48 48" fill="currentColor"><path d="M15.941 17.115h5.492l2.118 8.202h.052l2.107 -8.202h5.46a.12 .12 0 0 1 .017 .019c.004 .006 .013 .01 .013 .016c.006 .055 .012 .111 .012 .166c0 4.436 -.002 8.873 -.004 13.309c0 .019 -.013 .037 -.025 .069h-3.386v-10.224c-.014 -.002 -.027 -.007 -.041 -.009c-.021 .055 -.044 .11 -.06 .166a9672.51 9672.51 0 0 0 -2.14 8.334l-.39 1.52c-.018 .073 -.043 .145 -.066 .216h-3.088l-2.61 -10.196c-.012 0 -.023 0 -.035 -.002c-.009 .042 -.02 .084 -.023 .126c-.005 .063 -.003 .126 -.003 .189v9.877h-3.39c-.043 -.155 -.058 -13.277 -.01 -13.577zm18 13.591v-13.586c.072 -.006 .132 -.015 .193 -.015c2.62 0 5.24 -.006 7.86 .002c.732 .002 1.454 .12 2.105 .476c1.13 .614 1.738 1.56 1.761 2.861c.015 .78 -.21 1.472 -.715 2.072c-.318 .377 -.725 .626 -1.173 .82a3.643 3.643 0 0 0 -.212 .09c-.01 .003 -.017 .018 -.044 .054c.077 .025 .145 .05 .214 .071c.377 .107 .74 .252 1.077 .453c.803 .476 1.266 1.184 1.426 2.094a4.017 4.017 0 0 1 -.072 1.786c-.266 .954 -.832 1.679 -1.683 2.18c-.373 .22 -.788 .323 -1.21 .39c-1.029 .163 -2.06 .264 -3.106 .256c-2.054 -.017 -4.109 -.005 -6.163 -.005c-.082 .002 -.163 .002 -.258 .002zm4.247 -5.69c-.052 .224 -.05 2.592 -.002 2.764c.038 .004 .078 .015 .12 .015c.752 0 1.507 .01 2.26 -.009c.282 -.008 .572 -.056 .84 -.14c.591 -.182 .916 -.692 .895 -1.335c-.019 -.575 -.373 -1.009 -.96 -1.174a3.475 3.475 0 0 0 -.952 -.12c-.662 -.004 -1.325 0 -1.987 0c-.07 -.002 -.138 -.002 -.214 -.002zm0 -5.17c-.058 .226 -.05 2.427 .004 2.589c.038 .004 .078 .015 .12 .015c.587 0 1.172 .01 1.759 -.005c.262 -.006 .528 -.04 .786 -.094c.526 -.111 .809 -.461 .89 -.983a1.72 1.72 0 0 0 .013 -.312c-.012 -.562 -.325 -.977 -.872 -1.107a4.214 4.214 0 0 0 -.828 -.097c-.557 -.014 -1.115 -.004 -1.675 -.004c-.067 -.002 -.136 -.002 -.197 -.002zm-36.687 6.372l3.955 -.245c.038 .18 .065 .338 .107 .49c.05 .181 .1 .365 .176 .537c.325 .732 .904 1.134 1.686 1.254c.425 .065 .849 .042 1.264 -.084a1.57 1.57 0 0 0 .6 -.335c.662 -.59 .613 -1.505 -.12 -2.004a2.395 2.395 0 0 0 -.638 -.31a34.15 34.15 0 0 0 -1.693 -.464c-.82 -.205 -1.631 -.442 -2.4 -.798a5.308 5.308 0 0 1 -1.225 -.76c-.861 -.733 -1.264 -1.67 -1.207 -2.796c.065 -1.245 .648 -2.203 1.677 -2.892c.637 -.428 1.35 -.663 2.102 -.788c.956 -.16 1.918 -.174 2.883 -.118c.65 .04 1.287 .153 1.91 .356c1.429 .468 2.305 1.445 2.66 2.897c.05 .204 .081 .411 .12 .617c.007 .033 0 .069 0 .102c-.163 .06 -3.443 .275 -3.913 .256a11.64 11.64 0 0 0 -.048 -.147c-.063 -.192 -.11 -.39 -.19 -.574c-.217 -.493 -.598 -.8 -1.118 -.93c-.467 -.118 -.941 -.137 -1.406 .001c-.41 .122 -.694 .376 -.793 .81a.706 .706 0 0 0 .153 .626a.978 .978 0 0 0 .472 .336c.392 .12 .788 .24 1.186 .333c1.07 .245 2.134 .497 3.163 .882c.606 .229 1.174 .525 1.671 .942c.723 .608 1.128 1.39 1.254 2.32c.26 1.927 -.803 3.922 -2.929 4.73a7.112 7.112 0 0 1 -1.853 .416c-.872 .086 -1.744 .076 -2.616 -.004a8.594 8.594 0 0 1 -1.823 -.36c-.946 -.3 -1.675 -.87 -2.214 -1.698a5.401 5.401 0 0 1 -.847 -2.472c-.01 -.033 -.006 -.069 -.006 -.126z"/></svg>