<svg xmlns="http://www.w3.org/2000/svg" width="48" height="48" viewBox="0 0 48 48" fill="currentColor"><path d="M15.217 36.82c-.014 .026 -.04 .093 -.081 .152c-.116 .17 -.335 .25 -.517 .162c-.547 -.265 -1.112 -.234 -1.684 -.105c-.32 .071 -.636 .161 -.96 .227c-.373 .075 -.754 .126 -1.13 .193c-.819 .145 -1.596 .408 -2.373 .67c-.791 .27 -1.58 .547 -2.408 .71c-.674 .133 -1.352 .186 -2.04 .104a1.316 1.316 0 0 1 -.65 -.248c-.2 -.152 -.38 -.322 -.563 -.536c.192 -.078 .355 -.156 .524 -.213c.514 -.172 1.056 -.245 1.591 -.332c.77 -.126 1.541 -.254 2.282 -.498c.846 -.28 1.584 -.7 2.18 -1.326c.4 -.42 .927 -.666 1.503 -.82c.531 -.14 1.073 -.247 1.604 -.384c.288 -.074 .562 -.183 .849 -.267c.2 -.059 .24 -.198 .237 -.361c-.002 -.158 -.055 -.272 -.237 -.343c-1.188 -.467 -2.388 -.54 -3.613 -.12c-.593 .204 -1.146 .475 -1.695 .757c-.503 .258 -1.006 .513 -1.511 .767c-.593 .3 -1.232 .424 -1.908 .401c-.369 -.012 -.736 -.04 -1.105 -.056c-.36 -.017 -.722 -.036 -1.081 -.04c-.173 -.002 -.296 -.055 -.393 -.179c-.039 -.053 -.078 -.103 -.115 -.158c-.097 -.138 -.214 -.256 -.408 -.302c-.005 -.1 -.019 -.198 -.014 -.295c.01 -.189 .071 -.24 .277 -.266c.523 -.068 1.05 -.129 1.573 -.215a8.92 8.92 0 0 0 1.77 -.46c.46 -.179 .839 -.44 1.139 -.82a9.516 9.516 0 0 1 2.466 -2.217a7.122 7.122 0 0 1 1.047 -.525c.253 -.103 .542 -.139 .846 -.213c-.097 -.04 -.177 -.096 -.265 -.107a.567 .567 0 0 1 -.41 -.246a6.897 6.897 0 0 1 -.395 -.615c-.166 -.3 -.307 -.612 -.468 -.913c-.1 -.187 -.217 -.365 -.332 -.559c-.335 .085 -.672 .181 -1.015 .248a9.365 9.365 0 0 1 -1.158 .173a2.905 2.905 0 0 1 -.822 -.063a5.108 5.108 0 0 0 -1.462 -.101c-.397 .025 -.796 .052 -1.209 .08c.037 -.04 .07 -.086 .111 -.118c.265 -.202 .52 -.42 .805 -.593c.196 -.117 .415 -.203 .618 -.317c.247 -.139 .529 -.185 .817 -.198c.323 -.014 .646 -.02 .966 -.037c.365 -.02 .695 -.13 .962 -.36c.29 -.25 .568 -.513 .847 -.773c.288 -.271 .567 -.55 .86 -.82c.245 -.225 .526 -.405 .84 -.546c.344 -.156 .678 -.33 1.015 -.5c.074 -.038 .147 -.078 .212 -.124c.136 -.097 .164 -.185 .106 -.332c-.028 -.072 -.074 -.14 -.101 -.213c-.07 -.176 -.148 -.353 -.199 -.536c-.092 -.327 -.32 -.533 -.692 -.58c-.784 -.096 -1.57 -.18 -2.366 -.113c-.282 .023 -.563 .065 -.856 .099c-.03 -.3 -.314 -.13 -.466 -.208c-.056 -.105 .023 -.177 .074 -.253a6.1 6.1 0 0 1 .883 -1.021c.648 -.62 1.382 -1.154 2.088 -1.717c.56 -.448 1.114 -.904 1.647 -1.379c.491 -.439 .879 -.95 1.165 -1.525c.244 -.494 .562 -.95 .952 -1.36c.358 -.376 .734 -.736 1.11 -1.095c.207 -.198 .454 -.355 .74 -.454c.145 -.05 .173 -.099 .155 -.242c-.023 -.2 -.104 -.38 -.233 -.542c-.12 -.151 -.18 -.164 -.37 -.082c-.59 .256 -1.185 .5 -1.81 .675c-.212 .058 -.43 .109 -.646 .153c-.145 .03 -.212 -.008 -.263 -.111c-.05 -.1 -.032 -.156 .095 -.246c.235 -.166 .417 -.372 .574 -.597c.074 -.107 .15 -.212 .215 -.324a2.915 2.915 0 0 1 1.116 -1.097c.574 -.323 1.16 -.63 1.746 -.94c.526 -.277 1.064 -.535 1.583 -.819a6.114 6.114 0 0 0 1.305 -.962a.451 .451 0 0 0 .134 -.202l-.242 .038c-.494 .07 -.988 .143 -1.481 .206c-.611 .077 -1.218 .168 -1.723 .576a.838 .838 0 0 1 -.238 -.669c.005 -.054 .08 -.113 .14 -.151c.416 -.267 .82 -.549 1.253 -.788a146.46 146.46 0 0 1 3.317 -1.778c1.636 -.85 3.184 -1.808 4.586 -2.955a.496 .496 0 0 1 .053 -.042a.452 .452 0 0 1 .64 .1c.142 .207 .193 .44 .23 .677c.03 .202 .057 .402 .092 .604c.046 .277 .175 .52 .39 .723c.145 .134 .293 .267 .445 .395c.164 .138 .332 .27 .496 .41c.307 .26 .588 .533 .71 .922c.206 -.006 .328 .103 .425 .248a.405 .405 0 0 0 .344 .179c.152 .004 .306 .002 .461 0a3.65 3.65 0 0 0 .254 -.017c.32 -.027 .57 .071 .789 .298c.699 .728 1.409 1.446 2.126 2.157c.39 .386 .79 .767 1.207 1.128c.613 .528 1.326 .93 2.078 1.276l.245 .113c-.081 .28 .14 .48 .263 .717c-.155 .061 -.293 .04 -.427 .023c-.547 -.063 -1.052 -.25 -1.564 -.422c-.54 -.183 -1.077 -.37 -1.626 -.53c-.245 -.071 -.51 -.09 -.768 -.113a.689 .689 0 0 0 -.455 .128c-.189 .13 -.242 .31 -.129 .5c.065 .11 .155 .21 .254 .296a2.55 2.55 0 0 0 1.026 .545c1.306 .34 2.618 .668 3.926 1c.118 .03 .238 .055 .348 .08c.063 .298 .003 .427 -.265 .57a.902 .902 0 0 1 -.623 .088a84.793 84.793 0 0 1 -1.45 -.332c-.626 -.147 -1.25 -.286 -1.897 -.339a4.41 4.41 0 0 0 -1.37 .112c-.037 .008 -.071 .023 -.108 .035c-.014 .005 -.026 .017 -.058 .038c.044 .086 .085 .183 .139 .271c.283 .463 .648 .868 1.051 1.247c.607 .571 1.27 1.084 2.033 1.473c.816 .414 .94 .414 1.792 .189c.332 -.088 .664 -.17 1.003 -.235c.314 -.061 .554 .037 .757 .281c.47 .561 .966 1.108 1.46 1.652c.59 .65 1.133 1.328 1.504 2.106c.044 .088 .083 .179 .138 .3c-.26 .055 -.505 .066 -.74 .011a4.135 4.135 0 0 1 -.646 -.219c-.203 -.082 -.394 -.189 -.595 -.277a1.975 1.975 0 0 0 -1.029 -.162a.714 .714 0 0 0 -.376 .143c-.184 .147 -.383 .284 -.551 .446c-.305 .292 -.671 .31 -1.064 .229c-.45 -.095 -.837 -.307 -1.213 -.545c-.106 -.067 -.214 -.138 -.332 -.187a.31 .31 0 0 0 -.212 .013c-.086 .042 -.095 .132 -.049 .204c.136 .212 .111 .439 .097 .67c-.02 .332 .049 .656 .194 .963c.05 .107 .12 .212 .196 .307a.595 .595 0 0 0 .584 .22c.332 -.05 .666 -.103 1 -.151c.799 -.116 1.597 -.223 2.409 -.187a3.7 3.7 0 0 1 .729 .092c.21 .053 .431 .13 .602 .25a6.277 6.277 0 0 0 1.592 .793c.452 .155 .908 .302 1.358 .468c.554 .206 1.052 .492 1.442 .917c.074 .078 .138 .164 .228 .269c-.2 0 -.364 -.002 -.528 0c-.445 .006 -.893 .002 -1.336 .027c-.872 .048 -1.732 .04 -2.585 -.168c-.637 -.156 -1.285 -.088 -1.917 .05c-.791 .173 -1.578 .368 -2.37 .54c-1.04 .227 -2.094 .379 -3.162 .45c-.12 .009 -.24 .025 -.362 .072c.04 .014 .079 .035 .12 .044c.911 .223 1.822 .458 2.738 .662c.93 .206 1.875 .305 2.835 .267a2.29 2.29 0 0 1 1.232 .29c.332 .187 .65 .397 .962 .613c.341 .24 .662 .5 .996 .749a6.5 6.5 0 0 0 1.458 .8c.584 .236 1.17 .465 1.74 .723c.355 .162 .687 .368 1.019 .57c.131 .08 .256 .185 .348 .302c.185 .236 .43 .398 .692 .545c.2 .113 .406 .223 .623 .34c-.164 .166 -.364 .22 -.579 .24c-.348 .03 -.69 -.025 -1.024 -.112c-.54 -.138 -1.075 -.287 -1.62 -.411a3.434 3.434 0 0 0 -1.593 .01c-.572 .139 -1.156 .122 -1.74 .027l-.216 -.031l-.21 .855c.064 .034 .138 .088 .219 .112c.415 .124 .828 .256 1.252 .357c.916 .218 1.825 .443 2.692 .794c.598 .242 1.179 .515 1.721 .851c.226 .141 .431 .314 .63 .488a.667 .667 0 0 1 .242 .443a.606 .606 0 0 1 -.042 .286c-.083 .19 -.223 .227 -.42 .13a4.861 4.861 0 0 0 -1.487 -.487a5.098 5.098 0 0 0 -1.786 .071c-.57 .118 -1.132 .257 -1.702 .368c-.791 .154 -1.573 .126 -2.337 -.14a2.286 2.286 0 0 0 -.975 -.101c-.383 .035 -.764 .069 -1.147 .115c-.445 .055 -.888 .04 -1.33 -.025a5.885 5.885 0 0 0 -1.4 -.046c-.372 .033 -.737 -.044 -1.094 -.118a3.874 3.874 0 0 0 -1.124 -.05c-.313 .027 -.627 .04 -.95 .058c-.005 .028 -.014 .055 -.012 .08c.058 .54 -.006 1.076 -.053 1.614c-.09 1.064 -.025 2.115 .43 3.117c.242 .536 .562 1.028 .964 1.475c.281 .313 .588 .61 .89 .908c.293 .29 .667 .416 1.093 .423c.178 .002 .353 0 .53 .002c.296 .004 .56 .09 .78 .269c.185 .149 .374 .292 .55 .45c.648 .586 1.381 1.07 2.161 1.498c.065 .036 .127 .074 .221 .128c-.066 .02 -.103 .036 -.14 .038a16.7 16.7 0 0 1 -2.533 .044a17.072 17.072 0 0 1 -2.611 -.4c-.365 -.081 -.731 -.165 -1.096 -.25c-.044 -.01 -.088 -.014 -.131 -.02c-.019 .197 .147 .504 .535 .998c.237 .303 .493 .588 .904 .797a3.797 3.797 0 0 1 -1.135 -.053a7.413 7.413 0 0 1 -1.412 -.448c-.66 -.269 -1.31 -.554 -1.997 -.76a1.698 1.698 0 0 1 -.773 -.515c-.168 -.19 -.32 -.393 -.48 -.59c-.14 -.175 -.272 -.358 -.422 -.526a1.854 1.854 0 0 0 -.768 -.522c-.17 -.06 -.325 -.157 -.487 -.237c-.15 -.071 -.295 -.156 -.452 -.206a1.051 1.051 0 0 0 -.404 -.042c-.23 .023 -.31 .202 -.163 .366c.087 .094 .226 .151 .341 .225c-.224 .245 -.879 .298 -1.204 .103c-.18 -.108 -.371 -.2 -.565 -.282c-.545 -.23 -1.117 -.231 -1.696 -.143c-.053 .008 -.106 .021 -.159 .025a1.778 1.778 0 0 0 -.945 .351c-.072 .053 -.148 .099 -.222 .152a3.597 3.597 0 0 1 -1.61 .632c-.92 .137 -1.843 .223 -2.773 .26c-.99 .04 -1.981 .078 -2.97 .127c-.384 .019 -.764 .06 -1.142 .092c-.132 -.172 -.132 -.172 -.483 -.262c.314 -.074 .577 -.143 .845 -.196c.745 -.15 1.499 -.235 2.256 -.302c.643 -.057 1.284 -.114 1.926 -.173c.288 -.027 .507 -.155 .634 -.397c.067 -.126 .125 -.256 .192 -.383a.883 .883 0 0 1 .493 -.447a.79 .79 0 0 0 .47 -.437c.072 -.162 .135 -.328 .185 -.496c.079 -.252 .194 -.486 .374 -.692c.25 -.286 .5 -.567 .731 -.866a6.23 6.23 0 0 0 .48 -.714c.14 -.24 .157 -.5 .048 -.753a6.815 6.815 0 0 0 -.369 -.767c-.214 -.363 -.459 -.712 -.685 -1.071c-.226 -.358 -.445 -.717 -.676 -1.093c-.099 .046 -.212 .088 -.313 .147c-.404 .231 -.803 .468 -1.207 .7c-.196 .111 -.39 .227 -.595 .32c-.182 .087 -.376 .136 -.613 .213zm-3.959 -7.034c.026 .034 .033 .053 .044 .057c.53 .158 .999 .427 1.486 .666c.489 .24 1.015 .313 1.561 .278c.32 -.021 .644 -.042 .964 -.08c.243 -.03 .487 -.072 .718 -.139c.242 -.071 .33 -.22 .265 -.441a3.53 3.53 0 0 0 -.244 -.63c-.125 -.242 -.358 -.36 -.656 -.354c-.099 .002 -.2 .004 -.297 .025c-.335 .074 -.671 .15 -1.001 .238c-.695 .185 -1.393 .343 -2.12 .38c-.235 .01 -.47 0 -.72 0zm16.17 -12.462c.076 .233 .065 .426 .023 .622c-.027 .13 -.057 .26 -.067 .393c-.011 .16 .017 .197 .187 .241c.266 .07 .53 .137 .8 .194c.845 .176 1.694 .338 2.49 .67c.083 .034 .175 .049 .265 .063c.127 .02 .233 -.019 .284 -.13c.064 -.14 .136 -.284 .175 -.43c.062 -.234 -.042 -.392 -.293 -.478a1.848 1.848 0 0 0 -.355 -.084c-.367 -.055 -.708 -.155 -1.022 -.353c-.212 -.135 -.46 -.227 -.7 -.315c-.463 -.173 -.952 -.263 -1.443 -.343c-.104 -.02 -.208 -.031 -.344 -.05zm-15.367 5.762c.4 -.182 .782 -.349 1.151 -.531c.2 -.1 .388 -.227 .574 -.345c.093 -.059 .153 -.14 .136 -.25c-.013 -.097 .037 -.158 .118 -.21c.102 -.065 .199 -.133 .293 -.204c.083 -.065 .118 -.145 .055 -.242a63.336 63.336 0 0 1 -.475 -.756c-.653 .02 -1.248 .24 -1.785 .603c-.136 .092 -.235 .241 -.431 .25c-.01 0 -.019 .02 -.047 .055c.178 .273 .153 .588 .136 .903c-.002 .057 -.002 .112 .003 .168a.86 .86 0 0 0 .272 .56zm5.003 8.157c.028 .002 .051 .008 .072 .004c.27 -.063 .288 -.055 .366 .19c.024 .073 .042 .148 .06 .224c.04 .156 .077 .313 .12 .469c.051 .174 .063 .178 .247 .185c.718 .023 1.07 -.345 .898 -.982c-.167 -.611 -.45 -1.187 -.787 -1.738a.786 .786 0 0 0 -.11 -.134c-.222 -.227 -.476 -.2 -.626 .071a.682 .682 0 0 0 -.07 .242c-.013 .124 -.004 .252 -.008 .376c-.01 .216 -.01 .433 -.037 .647c-.021 .15 -.081 .292 -.125 .446zm1.156 -12.457c.374 -.277 .736 -.538 1.086 -.807c.224 -.172 .406 -.382 .535 -.624c.146 -.275 .208 -.559 .063 -.849a.574 .574 0 0 1 -.021 -.487c.025 -.068 .035 -.141 .055 -.223c-.198 -.036 -.348 .025 -.489 .088c-.53 .24 -.876 .63 -1.05 1.14c-.057 .17 -.14 .32 -.255 .464a2.012 2.012 0 0 0 -.152 .21a.487 .487 0 0 0 -.047 .445c.081 .208 .176 .412 .275 .643zm-8.39 8.474c.097 .067 .16 .118 .231 .158c.678 .39 1.421 .504 2.21 .416c.362 -.04 .68 -.162 .953 -.385c.163 -.134 .207 -.258 .129 -.447a1.091 1.091 0 0 0 -.41 -.471a.522 .522 0 0 0 -.432 -.095c-.14 .032 -.29 .042 -.427 .084c-.703 .221 -1.405 .448 -2.108 .673c-.037 .013 -.067 .031 -.146 .067zm6.196 -16.058c.252 .325 .515 .632 .42 1.061c.254 .01 .491 -.038 .731 -.084c.346 -.067 .628 -.214 .812 -.502c.136 -.213 .342 -.364 .595 -.444c.259 -.084 .526 -.147 .794 -.21c.233 -.055 .286 -.116 .26 -.334c-.006 -.048 -.02 -.097 -.027 -.145c-.014 -.08 -.07 -.124 -.152 -.137c-.296 -.048 -.59 -.082 -.89 -.033c-.287 .046 -.538 .164 -.783 .294a4.177 4.177 0 0 1 -1.578 .49c-.062 .006 -.117 .029 -.182 .044zm-1.778 15.764c.244 -.086 .51 -.174 .77 -.275c.203 -.078 .415 -.154 .598 -.263c.154 -.095 .29 -.225 .408 -.36c.13 -.149 .148 -.33 .083 -.516c-.095 -.274 -.286 -.475 -.544 -.627c-.376 -.218 -.65 -.168 -.902 .168c-.109 .145 -.199 .299 -.305 .444c-.143 .197 -.325 .35 -.59 .405c-.028 .007 -.053 .021 -.109 .047c.2 .325 .392 .645 .59 .977zm22.63 2.646c.022 .34 -.103 .595 -.24 .845c-.001 .006 -.006 .012 -.008 .019c-.111 .248 -.088 .36 .133 .54c.342 .277 .725 .494 1.156 .634c.1 .034 .208 .05 .311 .066c.1 .014 .178 -.023 .233 -.103c.116 -.166 .243 -.324 .351 -.492c.164 -.254 .148 -.389 -.067 -.605a2.966 2.966 0 0 0 -1.268 -.774c-.178 -.054 -.37 -.08 -.6 -.13zm-1.757 .782c.11 -.255 .208 -.482 .31 -.704c.098 -.221 .078 -.29 -.14 -.42c-.276 -.169 -.585 -.236 -.913 -.253c-.634 -.033 -1.252 .084 -1.873 .166a.439 .439 0 0 0 -.327 .242c-.106 .183 -.037 .374 .173 .45c.113 .04 .237 .06 .357 .071c.41 .038 .824 .065 1.234 .103c.418 .036 .845 .063 1.18 .345zm-20.218 -9.767c-.02 .137 .002 .286 .159 .387c.083 .053 .17 .074 .24 -.02c.194 -.264 .482 -.358 .807 -.38c.455 -.029 .89 -.104 1.304 -.304c.253 -.122 .364 -.28 .35 -.532c-.014 -.245 -.127 -.35 -.401 -.361a1.431 1.431 0 0 0 -.708 .155a1.782 1.782 0 0 1 -.72 .196a3.77 3.77 0 0 0 -1.027 .216c-.186 .068 -.205 .129 -.09 .28a.418 .418 0 0 1 .086 .363zm9.208 -2.223c.076 .008 .13 .017 .182 .019l.988 .055c.274 .014 .551 .04 .825 .046c.25 .006 .386 -.103 .43 -.324c.046 -.22 -.01 -.429 -.109 -.63c-.06 -.12 -.152 -.19 -.302 -.181c-.344 .019 -.69 .019 -1.031 .057a3.01 3.01 0 0 0 -.683 .166c-.337 .124 -.387 .225 -.344 .55c.007 .076 .026 .152 .044 .242zm4.473 5.832c.228 .313 .429 .603 .646 .88c.092 .118 .207 .228 .33 .32a.753 .753 0 0 0 .304 .134c.26 .053 .526 .085 .807 .127a507.29 507.29 0 0 0 -.226 -1.554c-.595 .024 -1.215 -.073 -1.861 .093zm-4.28 .576c-.006 .229 -.029 .464 -.02 .7c.014 .33 .16 .5 .51 .59c.6 .152 .851 -.033 .957 -.483c.076 -.332 .148 -.666 .222 -1c-.16 -.057 -.206 -.068 -.41 -.032c-.41 .067 -.813 .143 -1.258 .225zm-3.849 -9.714c.088 .34 .108 .679 .328 .992c.249 -.134 .498 -.244 .72 -.39c.634 -.423 .652 -.846 .537 -1.493c-.139 .038 -.277 .076 -.413 .116c-.178 .05 -.353 .117 -.468 .254c-.185 .22 -.425 .376 -.704 .521zm6.371 10.702c.52 .012 .971 -.15 1.465 -.194l-.757 -1.33c-.127 .031 -.249 .076 -.376 .092c-.154 .021 -.24 .101 -.253 .232a1.909 1.909 0 0 0 -.014 .458c.027 .24 .032 .473 -.065 .742zm6.088 -4.597c-.074 -.046 -.13 -.098 -.197 -.12c-.237 -.073 -.475 -.161 -.722 -.201a2.23 2.23 0 0 0 -1.314 .197c-.072 .034 -.18 .068 -.155 .158c.02 .071 .1 .13 .157 .19c.018 .018 .053 .026 .083 .035c.185 .046 .367 .113 .556 .128c.427 .032 .856 .038 1.285 .05c.057 .003 .117 -.008 .198 -.016c-.097 -.168 -.004 -.288 .109 -.42zm-10.012 -3.472c-.212 .034 -.429 .066 -.645 .108c-.12 .023 -.24 .05 -.351 .092a.475 .475 0 0 0 -.311 .338c-.03 .114 -.086 .221 -.13 .333c-.032 .081 -.096 .157 -.048 .258c.143 0 .284 -.015 .417 .002c.273 .034 .531 -.031 .792 -.073c.336 -.055 .47 -.272 .392 -.568c-.044 -.155 -.076 -.313 -.116 -.49zm-.64 6.654c.018 .183 .057 .34 .048 .496c-.01 .143 -.072 .284 -.111 .425c-.023 .086 -.05 .17 -.07 .233c.224 .118 .437 .204 .617 .328c.177 .122 .343 .118 .546 .052l-.157 -1.48c-.14 .005 -.29 .02 -.438 .01c-.15 -.011 -.288 -.095 -.436 -.064zm2.12 -10.464c-.1 0 -.158 -.002 -.215 0c-.222 .004 -.443 .01 -.665 .017c-.145 .006 -.293 .004 -.433 .03c-.229 .04 -.386 .214 -.379 .392c.005 .18 .176 .34 .404 .377c.279 .044 .54 .004 .752 -.179c.157 -.135 .3 -.28 .44 -.429c.042 -.044 .054 -.115 .095 -.208zm-7.68 11.124c.252 .273 .49 .534 .731 .792c.04 .042 .09 .078 .139 .11c.212 .136 .357 .09 .426 -.133c.086 -.277 -.03 -.573 -.297 -.758c-.29 -.202 -.65 -.215 -.999 -.01zm3.635 -.611c.252 .281 .083 .634 .146 .96c.14 -.027 .258 -.053 .378 -.072c.125 -.018 .251 -.029 .413 -.048c-.055 -.223 -.108 -.424 -.152 -.626c-.046 -.206 -.083 -.414 -.132 -.65c-.221 .15 -.427 .286 -.653 .436zm-1.3 1.202l.698 -.066c-.02 -.094 -.043 -.174 -.053 -.256c-.014 -.13 -.009 -.265 -.03 -.395c-.037 -.246 -.293 -.361 -.528 -.242c-.104 .053 -.2 .118 -.316 .185c.26 .234 .168 .526 .228 .774z"/></svg>