---
version: "0.0.4"
---
<svg>
  <path d="M6.447 23.773c.081 .03 .162 .056 .243 .085c.365 .13 .688 .317 .902 .66c.139 .221 .22 .46 .234 .719c.017 .32 .017 .634 -.11 .937c-.282 .672 -.79 1.035 -1.51 1.132c-.563 .077 -1.125 .1 -1.691 .096c-.892 -.004 -1.781 -.002 -2.673 -.002l-.186 -.002c-.102 0 -.154 -.05 -.154 -.152l-.002 -.166v-6.237c0 -.313 0 -.313 .323 -.313c1.236 0 2.474 .002 3.71 -.002c.307 0 .607 .033 .894 .143c.617 .237 .997 .67 1.08 1.342c.058 .479 -.046 .91 -.386 1.258c-.137 .14 -.321 .233 -.485 .345c-.06 .039 -.124 .068 -.189 .103c-.002 .019 0 .035 0 .054zm-2.842 .757v1.43c.076 .013 .143 .032 .209 .032c.296 .002 .595 .012 .89 -.002c.205 -.01 .414 -.038 .607 -.098c.294 -.093 .46 -.369 .448 -.674a.657 .657 0 0 0 -.49 -.642c-.058 -.02 -.12 -.042 -.18 -.044a96.827 96.827 0 0 0 -1.343 -.033c-.04 -.002 -.08 .016 -.141 .03zm.002 -2.642v1.34c.064 .012 .122 .03 .18 .03c.27 .003 .537 .01 .807 -.001c.136 -.004 .275 -.027 .406 -.062c.32 -.085 .49 -.322 .485 -.656c-.004 -.333 -.18 -.555 -.512 -.632a1.225 1.225 0 0 0 -.245 -.037a50.677 50.677 0 0 0 -.972 -.002c-.042 0 -.09 .012 -.15 .02zm3.24 -9.388c.61 .184 1.2 .365 1.806 .547c-.136 .554 -.35 1.041 -.721 1.45c-.427 .468 -.96 .738 -1.584 .823a6.195 6.195 0 0 1 -1.897 -.033c-.927 -.158 -1.578 -.687 -2.032 -1.487c-.253 -.446 -.372 -.931 -.421 -1.44c-.063 -.632 -.038 -1.256 .134 -1.867c.336 -1.195 1.137 -1.895 2.34 -2.144a4.992 4.992 0 0 1 1.975 0c.966 .186 1.618 .763 2.003 1.656c.038 .09 .07 .18 .104 .272c.006 .019 0 .04 0 .087c-.587 .133 -1.176 .263 -1.769 .398c-.03 -.052 -.058 -.091 -.077 -.135c-.199 -.495 -.557 -.78 -1.092 -.823c-.608 -.047 -1.058 .2 -1.344 .738c-.143 .268 -.186 .564 -.21 .86c-.032 .449 -.026 .899 .073 1.34c.031 .135 .073 .268 .125 .394c.157 .374 .45 .583 .835 .676c.233 .056 .469 .044 .7 -.006a1.1 1.1 0 0 0 .704 -.47c.164 -.247 .26 -.519 .348 -.836zm9.549 26.376c-.007 .066 -.017 .13 -.019 .197c-.004 .104 .002 .207 -.002 .311c-.006 .133 -.03 .158 -.162 .16a77.57 77.57 0 0 1 -1.389 0c-.147 -.002 -.162 -.023 -.168 -.172c-.002 -.048 0 -.098 0 -.145v-6.237c0 -.31 0 -.311 .303 -.311h1.327c.249 0 .249 .002 .249 .257v1.843c0 .079 .01 .158 .016 .284c.096 -.07 .156 -.11 .212 -.155c.819 -.68 2.258 -.596 2.942 .427c.22 .327 .342 .696 .388 1.082c.068 .572 .054 1.145 -.119 1.7c-.178 .58 -.483 1.074 -1.05 1.348c-.56 .27 -1.133 .27 -1.705 .029c-.249 -.104 -.436 -.288 -.614 -.485c-.05 -.054 -.102 -.106 -.151 -.16c-.019 .013 -.038 .019 -.058 .027zm1.899 -1.81c-.042 -.222 -.064 -.45 -.129 -.664a.754 .754 0 0 0 -.497 -.514a.84 .84 0 0 0 -1.047 .535c-.162 .45 -.145 .908 .01 1.356c.12 .347 .44 .554 .796 .55c.342 -.004 .635 -.222 .743 -.585c.06 -.218 .082 -.446 .124 -.678zm8.057 -12.994c.05 -.052 .104 -.1 .152 -.154c.39 -.448 .78 -.898 1.165 -1.35c.073 -.085 .147 -.13 .263 -.13c.664 .004 1.327 .002 1.99 .002c.026 0 .053 .006 .109 .014c-.067 .07 -.114 .125 -.166 .177l-1.365 1.329c-.024 .026 -.05 .048 -.074 .073c-.123 .127 -.125 .131 -.038 .282c.224 .39 .452 .776 .678 1.164c.34 .584 .683 1.169 1.023 1.754c.022 .04 .037 .083 .066 .147c-.079 .006 -.139 .017 -.197 .017c-.545 .002 -1.093 -.005 -1.638 .004c-.168 .002 -.261 -.056 -.336 -.208c-.26 -.535 -.533 -1.061 -.804 -1.59c-.034 -.064 -.073 -.127 -.119 -.205c-.062 .047 -.11 .074 -.147 .11c-.17 .163 -.332 .331 -.504 .493a.388 .388 0 0 0 -.126 .313c.006 .29 .004 .58 0 .871c-.002 .195 -.017 .212 -.216 .212c-.483 .002 -.968 .002 -1.451 0c-.203 0 -.22 -.02 -.22 -.233v-6.404c0 -.224 .01 -.23 .236 -.232c.477 -.002 .954 -.002 1.431 0c.214 0 .22 .008 .22 .224c0 1.016 0 2.032 .002 3.048c0 .085 .014 .17 .02 .253c.013 .008 .03 .012 .046 .019zm-11.165 3.307c-.073 .008 -.13 .019 -.19 .019c-.436 .002 -.872 .002 -1.307 0c-.214 0 -.255 -.032 -.326 -.243c-.035 -.104 -.06 -.21 -.097 -.346c-.069 .043 -.123 .07 -.164 .107c-.458 .42 -1.01 .579 -1.615 .596c-.326 .008 -.651 .006 -.964 -.094c-.519 -.166 -.886 -.49 -.987 -1.04c-.112 -.604 .087 -1.205 .732 -1.49c.338 -.149 .696 -.213 1.053 -.294c.498 -.112 .993 -.236 1.489 -.356c.027 -.007 .056 -.013 .078 -.025c.1 -.06 .274 -.033 .282 -.2c.009 -.205 -.039 -.404 -.238 -.516a.693 .693 0 0 0 -.255 -.08a1.768 1.768 0 0 0 -.699 .045a.7 .7 0 0 0 -.464 .382c-.046 .1 -.11 .155 -.224 .139c-.027 -.005 -.056 -.003 -.083 -.005c-.5 -.056 -.997 -.114 -1.505 -.17c0 -.051 -.009 -.093 .002 -.128c.134 -.591 .508 -.97 1.072 -1.157a3.49 3.49 0 0 1 .665 -.145a7.353 7.353 0 0 1 2.266 .07a2 2 0 0 1 .486 .174c.342 .166 .551 .452 .674 .805c.08 .234 .132 .477 .13 .73c-.004 .725 .002 1.451 -.002 2.175c-.002 .321 .031 .632 .162 .93c.014 .03 .016 .063 .029 .117zm-2.057 -2.359c-.473 .152 -.937 .299 -1.4 .45a.447 .447 0 0 0 -.139 .087a.51 .51 0 0 0 -.184 .573c.062 .22 .226 .344 .45 .373c.334 .043 .634 -.035 .923 -.218c.364 -.232 .485 -.883 .35 -1.265zm30.805 14.502c-.072 .008 -.13 .02 -.19 .02c-.442 .003 -.884 .003 -1.328 0c-.188 0 -.221 -.022 -.286 -.205c-.041 -.114 -.068 -.234 -.11 -.373c-.062 .04 -.112 .06 -.149 .094c-.487 .44 -1.072 .6 -1.717 .605c-.36 .002 -.717 -.017 -1.055 -.162c-.877 -.38 -1.062 -1.376 -.593 -2.063c.155 -.226 .38 -.369 .632 -.444c.37 -.11 .745 -.199 1.122 -.284c.485 -.11 .975 -.194 1.441 -.369c.243 -.089 .255 -.116 .203 -.365a.454 .454 0 0 0 -.377 -.387a1.588 1.588 0 0 0 -.896 .06a.623 .623 0 0 0 -.363 .35c-.045 .102 -.11 .15 -.224 .137c-.52 -.06 -1.04 -.116 -1.56 -.174c-.011 -.002 -.022 -.017 -.044 -.033c.085 -.483 .327 -.863 .763 -1.114a2.21 2.21 0 0 1 .802 -.259c.52 -.077 1.04 -.118 1.567 -.058c.295 .033 .593 .042 .884 .1c.632 .124 1.055 .493 1.207 1.132c.045 .193 .076 .394 .078 .59c.01 .712 .004 1.423 .004 2.134c0 .328 .03 .647 .162 .952c.013 .027 .015 .062 .027 .116zm-2.038 -2.333c-.048 .007 -.08 .009 -.112 .017c-.33 .095 -.664 .187 -.991 .292a1.845 1.845 0 0 0 -.413 .185a.494 .494 0 0 0 -.246 .51a.481 .481 0 0 0 .367 .427c.118 .031 .244 .044 .367 .035c.7 -.037 1.22 -.555 1.028 -1.466zm-6.377 -25.533c.129 -.7 .53 -1.12 1.165 -1.306c.27 -.08 .556 -.1 .834 -.143c.49 -.075 .979 -.025 1.468 .008c.42 .027 .836 .095 1.196 .348c.174 .123 .311 .272 .409 .46c.155 .307 .244 .629 .244 .975c-.002 .726 .002 1.45 -.002 2.175c-.002 .328 .031 .647 .164 .952c.01 .025 .013 .052 .023 .103c-.066 .009 -.122 .023 -.18 .025c-.442 .002 -.884 -.004 -1.325 .004c-.158 .003 -.25 -.06 -.293 -.203c-.037 -.116 -.07 -.234 -.114 -.381c-.066 .041 -.12 .066 -.161 .103c-.48 .428 -1.05 .591 -1.678 .596c-.296 .002 -.593 -.007 -.881 -.09c-.794 -.226 -1.209 -.968 -.977 -1.762c.094 -.32 .293 -.56 .587 -.715c.303 -.16 .63 -.24 .962 -.311c.58 -.123 1.167 -.216 1.73 -.411c.012 -.004 .026 -.006 .039 -.012c.108 -.058 .278 -.038 .292 -.218c.017 -.22 -.112 -.452 -.296 -.527c-.233 -.093 -.473 -.08 -.716 -.045c-.166 .022 -.33 .06 -.458 .174a.767 .767 0 0 0 -.189 .242c-.056 .125 -.139 .156 -.263 .141a139.98 139.98 0 0 0 -.925 -.101a31.584 31.584 0 0 0 -.655 -.081zm3.444 1.221c-.452 .141 -.9 .28 -1.343 .423a.617 .617 0 0 0 -.162 .09a.521 .521 0 0 0 -.226 .557c.045 .21 .222 .371 .448 .406c.06 .01 .124 .02 .184 .017c.85 -.037 1.255 -.572 1.15 -1.41c-.003 -.02 -.02 -.035 -.05 -.083zm-20.142 10.376c.097 -.098 .161 -.156 .221 -.22c.293 -.315 .627 -.562 1.06 -.651a2.38 2.38 0 0 1 1.026 -.004c.624 .145 .998 .543 1.122 1.163c.054 .261 .079 .533 .08 .802c.011 .94 .005 1.879 .005 2.818c0 .228 -.008 .239 -.228 .239c-.47 .002 -.94 .002 -1.41 0c-.224 0 -.236 -.013 -.236 -.233c-.002 -.808 0 -1.617 -.002 -2.426c0 -.124 -.013 -.248 -.032 -.369c-.055 -.342 -.236 -.54 -.522 -.589c-.353 -.058 -.666 .086 -.823 .386a1.408 1.408 0 0 0 -.145 .662c0 .746 0 1.492 -.002 2.239c0 .048 .002 .097 0 .145c-.007 .162 -.021 .185 -.177 .187a92.08 92.08 0 0 1 -1.513 0c-.158 -.002 -.179 -.023 -.179 -.185c-.002 -.491 -.002 -.98 -.002 -1.472v-3.108c.005 -.178 .013 -.19 .187 -.193c.255 -.002 .512 0 .767 0c.201 0 .4 -.002 .601 .002c.135 .002 .156 .023 .16 .16c.006 .139 -.002 .276 .004 .414c.002 .059 .019 .123 .038 .233zm.783 -12.192l.303 -.305a1.82 1.82 0 0 1 .946 -.527a2.383 2.383 0 0 1 1.005 -.006c.643 .15 1.012 .566 1.138 1.2c.04 .202 .052 .411 .054 .619c.007 .98 .002 1.961 .002 2.944c0 .035 .003 .068 -.002 .104c-.01 .128 -.03 .157 -.165 .157a92.08 92.08 0 0 1 -1.514 0c-.15 -.002 -.168 -.029 -.168 -.218c-.002 -.76 .002 -1.52 -.002 -2.28c0 -.166 -.01 -.332 -.033 -.496c-.05 -.375 -.245 -.589 -.556 -.624c-.39 -.046 -.713 .14 -.842 .491c-.101 .276 -.114 .568 -.118 .859c-.006 .566 -.002 1.134 -.002 1.7v.29c-.002 .278 -.004 .282 -.274 .282h-1.14c-.083 0 -.166 .002 -.249 -.002c-.158 -.006 -.178 -.025 -.18 -.184c-.004 -.276 -.002 -.554 -.002 -.83v-3.608c0 -.056 -.002 -.11 0 -.165c.006 -.152 .018 -.164 .168 -.168c.103 -.004 .207 0 .31 0h1.017c.211 0 .217 .008 .22 .224c.001 .118 -.003 .234 .001 .352c.002 .058 .017 .116 .025 .174c.021 .006 .04 .013 .058 .017zm4.048 26.474c-.07 .445 .257 .924 .696 1.036c.4 .102 .757 .013 1.045 -.284c.112 -.114 .228 -.137 .372 -.122c.418 .041 .837 .079 1.256 .12c.095 .01 .19 .027 .305 .044c-.025 .056 -.04 .1 -.064 .137c-.44 .68 -1.056 1.072 -1.869 1.154c-.593 .06 -1.184 .077 -1.772 -.039c-1.002 -.195 -1.572 -.842 -1.823 -1.791a2.79 2.79 0 0 1 .062 -1.632c.261 -.776 .796 -1.282 1.572 -1.524c.491 -.156 1 -.201 1.514 -.137c.232 .029 .468 .044 .694 .097c.966 .226 1.543 .844 1.748 1.806c.058 .268 .073 .548 .087 .821c.017 .289 .004 .29 -.276 .29h-1.41c-.628 0 -1.256 0 -1.884 .003c-.085 -.002 -.172 .012 -.253 .02zm1.895 -.888c.068 -.38 -.145 -.827 -.47 -.991c-.449 -.224 -1.09 -.118 -1.336 .467c-.04 .095 -.069 .194 -.091 .294c-.048 .21 -.021 .245 .192 .247c.51 .002 1.02 .002 1.53 0c.059 0 .119 -.01 .175 -.017zm-9.681 -22.617c-.056 .093 -.09 .151 -.127 .207c-.41 .618 -.987 .973 -1.718 1.074a6.134 6.134 0 0 1 -1.775 -.002c-1.2 -.182 -1.78 -1.103 -1.937 -1.88a3.023 3.023 0 0 1 .013 -1.336c.248 -1.016 .916 -1.615 1.922 -1.833a4.25 4.25 0 0 1 2.009 .059c.9 .236 1.437 .833 1.654 1.729c.075 .31 .098 .626 .092 .945c-.005 .208 -.013 .218 -.23 .218c-.739 .002 -1.479 0 -2.217 0h-1.14c-.28 0 -.297 .025 -.233 .303c.12 .514 .533 .835 1.035 .798c.27 -.02 .516 -.108 .699 -.317c.103 -.12 .217 -.141 .367 -.125c.398 .046 .796 .077 1.194 .114c.116 .01 .232 .027 .392 .046zm-2.743 -1.663h.124c.234 0 .469 .004 .703 -.002c.143 -.004 .17 -.04 .145 -.18a1.868 1.868 0 0 0 -.072 -.301c-.166 -.491 -.635 -.738 -1.137 -.597c-.418 .118 -.634 .415 -.71 .827c-.044 .237 -.034 .253 .202 .253c.25 0 .498 -.002 .745 0zm-9.744 23.75v-3.15c0 -.056 0 -.11 .002 -.166c.002 -.075 .037 -.116 .112 -.12c.041 -.002 .083 -.002 .124 -.002h1.574c.265 0 .267 .002 .267 .26v4.6c0 .419 -.027 .373 .384 .373c.898 .002 1.795 0 2.693 0c.048 0 .098 .002 .145 0c.098 -.002 .137 .048 .135 .14c-.002 .188 0 .374 0 .56v.706c-.002 .222 -.006 .226 -.236 .23h-4.992c-.197 -.004 -.207 -.015 -.207 -.218c-.002 -1.072 0 -2.144 0 -3.214zm35.018 -8.587c-.556 -.006 -1.09 -.091 -1.578 -.369c-.794 -.452 -1.221 -1.136 -1.267 -2.053c-.023 -.433 .023 -.856 .201 -1.256a2.376 2.376 0 0 1 1.433 -1.33c.852 -.296 1.717 -.292 2.555 .042c.953 .38 1.437 1.124 1.507 2.14c.02 .303 .01 .608 -.068 .906c-.24 .915 -.826 1.493 -1.717 1.773c-.118 .037 -.24 .066 -.363 .083c-.234 .027 -.469 .043 -.703 .064zm1.022 -2.614c-.006 -.002 -.014 -.002 -.02 -.005c-.013 -.13 -.02 -.26 -.04 -.391a1.633 1.633 0 0 0 -.072 -.28c-.137 -.394 -.477 -.653 -.865 -.662a.948 .948 0 0 0 -.9 .645a2.437 2.437 0 0 0 -.116 .585c-.023 .317 .006 .636 .15 .929c.175 .36 .47 .557 .874 .551a.896 .896 0 0 0 .848 -.647c.073 -.234 .098 -.483 .141 -.725zm7.079 -4.392c-.066 .371 -.13 .72 -.195 1.074c-.162 -.01 -.298 -.023 -.435 -.029c-.083 -.004 -.166 0 -.247 .006a.43 .43 0 0 0 -.413 .371c-.027 .146 -.02 .299 -.029 .467c.1 .01 .172 .023 .245 .025c.172 .004 .346 .004 .518 0c.102 -.002 .156 .035 .154 .143c-.002 .352 -.002 .705 0 1.057c0 .098 -.046 .137 -.141 .137a24.3 24.3 0 0 0 -.54 0c-.225 .002 -.234 .008 -.234 .234v3.088c0 .298 0 .3 -.292 .3c-.45 0 -.898 .003 -1.348 0c-.222 0 -.23 -.01 -.23 -.238v-3.17c-.004 -.193 -.02 -.208 -.218 -.212c-.118 -.002 -.234 -.002 -.352 -.002c-.095 .002 -.141 -.041 -.141 -.137v-1.057c0 -.108 .058 -.145 .158 -.143c.124 .002 .248 .004 .373 -.002c.155 -.006 .17 -.03 .182 -.187c.02 -.261 .038 -.522 .077 -.78c.09 -.603 .508 -.916 1.03 -1.015c.403 -.077 .811 -.063 1.218 -.025l.659 .06c.056 .01 .116 .023 .201 .035zm-19.143 -12.084c.006 .091 .012 .166 .012 .238c.002 .415 0 .83 0 1.245c0 .055 -.002 .11 .002 .165c.013 .179 .034 .202 .21 .204c.228 .004 .456 -.002 .684 .002c.151 .002 .168 .016 .17 .168c.004 .331 .004 .663 0 .995c-.002 .153 -.017 .168 -.166 .17c-.228 .004 -.456 0 -.684 .002c-.178 .002 -.214 .027 -.212 .203c.003 .622 .009 1.242 .025 1.864c.007 .249 .152 .371 .405 .371c.11 0 .22 -.018 .327 -.035c.073 -.01 .145 -.027 .245 -.048c.046 .413 .09 .807 .133 1.21c-.036 .016 -.063 .039 -.094 .045c-.59 .13 -1.186 .164 -1.79 .091c-.613 -.075 -.998 -.481 -1.059 -1.136c-.033 -.363 -.037 -.73 -.043 -1.095c-.006 -.415 0 -.83 -.002 -1.244c-.002 -.205 -.02 -.222 -.226 -.226c-.118 -.002 -.235 -.002 -.353 -.002c-.085 0 -.128 -.042 -.128 -.127v-1.078c0 -.1 .056 -.132 .147 -.13c.104 .002 .207 0 .311 0c.236 -.002 .249 -.013 .25 -.243c.003 -.187 .005 -.373 0 -.56c-.001 -.091 .026 -.157 .113 -.201c.541 -.274 1.082 -.552 1.623 -.827c.019 -.009 .042 -.009 .1 -.021zm15.621 3.37v-3.089c0 -.056 -.002 -.11 0 -.166c.006 -.157 .02 -.176 .185 -.176c.414 -.002 .83 -.002 1.244 -.002l.29 .002c.085 0 .127 .045 .13 .128c.003 .056 .005 .11 .005 .166v6.341c-.004 .216 -.02 .232 -.24 .234c-.463 .002 -.925 .002 -1.388 0c-.207 0 -.222 -.014 -.222 -.228c-.004 -1.07 -.004 -2.14 -.004 -3.212zm-11.907 23.563c.054 -.062 .08 -.085 .098 -.114c.029 -.046 .054 -.097 .08 -.145c.335 -.572 .822 -.755 1.465 -.577c.12 .034 .234 .081 .35 .125c.09 .033 .108 .091 .068 .18c-.153 .347 -.304 .695 -.454 1.045c-.043 .102 -.1 .129 -.21 .096a1.31 1.31 0 0 0 -.424 -.075c-.284 .01 -.49 .164 -.622 .417a1.96 1.96 0 0 0 -.205 .755c-.025 .302 -.04 .605 -.044 .908c-.006 .45 0 .897 -.002 1.347c0 .2 -.013 .21 -.214 .21c-.483 .002 -.966 .002 -1.451 0c-.19 0 -.205 -.015 -.205 -.197a1732.8 1732.8 0 0 1 0 -4.56c0 -.184 .012 -.195 .203 -.195c.442 -.002 .883 -.002 1.327 0c.21 0 .213 .007 .216 .226c0 .125 -.003 .25 .002 .374c0 .043 .01 .089 .022 .18zm.998 -24.317c.043 -.042 .07 -.06 .089 -.085c.037 -.058 .072 -.119 .106 -.179c.313 -.539 .792 -.723 1.414 -.564c.132 .034 .259 .092 .39 .141c.078 .03 .101 .083 .066 .164c-.156 .355 -.311 .707 -.462 1.064c-.046 .108 -.11 .116 -.216 .085c-.13 -.04 -.27 -.079 -.404 -.075c-.285 .006 -.494 .156 -.629 .407a1.9 1.9 0 0 0 -.207 .732a10.11 10.11 0 0 0 -.046 .866c-.006 .469 -.002 .94 -.002 1.41c0 .214 -.01 .226 -.222 .226c-.476 .002 -.953 .002 -1.43 0c-.21 0 -.22 -.012 -.22 -.228v-4.518c0 -.205 .006 -.21 .21 -.211c.441 -.002 .883 -.002 1.326 0c.204 0 .208 .006 .21 .209c.002 .13 -.002 .263 .002 .394c0 .046 .012 .091 .025 .162zm-19.56 26.007v2.196l-.001 .166c-.002 .074 -.042 .114 -.116 .118c-.036 .002 -.069 .004 -.104 .004c-.477 0 -.954 .002 -1.429 0c-.209 0 -.217 -.01 -.217 -.226v-4.495c0 -.027 .002 -.056 0 -.083c-.006 -.106 .045 -.15 .149 -.15c.201 .003 .4 0 .601 0c.311 0 .622 -.002 .933 0c.175 .003 .187 .013 .187 .193c-.002 .757 -.002 1.516 -.002 2.277zm23.848 .02v2.178c0 .056 0 .11 -.002 .166c-.003 .074 -.046 .112 -.119 .116c-.035 .002 -.068 .002 -.103 .002c-.463 0 -.925 .002 -1.39 0c-.217 0 -.234 -.017 -.234 -.239v-4.476c0 -.042 .002 -.083 .004 -.125c.007 -.074 .05 -.112 .123 -.112c.062 -.002 .124 -.002 .186 -.002c.442 0 .884 -.002 1.327 0c.2 0 .208 .009 .208 .214c.002 .759 0 1.52 0 2.279zm-24.796 -3.176c-.242 0 -.483 .002 -.725 0c-.179 -.002 -.195 -.019 -.197 -.184c-.002 -.29 -.004 -.581 0 -.871c.002 -.15 .018 -.168 .168 -.17c.51 -.004 1.022 -.004 1.532 0c.147 0 .164 .02 .166 .172c.004 .296 .004 .593 0 .891c-.002 .135 -.023 .158 -.158 .16c-.261 .004 -.522 0 -.786 .002zm23.862 0c-.235 0 -.469 .002 -.703 0c-.187 -.002 -.208 -.02 -.212 -.197a28.905 28.905 0 0 1 0 -.848c.002 -.155 .025 -.18 .183 -.18c.495 -.004 .99 -.002 1.488 0c.152 0 .172 .02 .175 .163c.004 .297 .004 .593 0 .89c-.003 .15 -.02 .168 -.168 .172c-.253 .002 -.508 0 -.763 0z" />
</svg>
