<svg xmlns="http://www.w3.org/2000/svg" width="48" height="48" viewBox="0 0 48 48" fill="currentColor"><path d="M24 46.125c12.426 0 22.5 -10.074 22.5 -22.5s-10.074 -22.5 -22.5 -22.5s-22.5 10.074 -22.5 22.5s10.074 22.5 22.5 22.5zm0 -1.875c-11.39 0 -20.625 -9.234 -20.625 -20.625c0 -11.39 9.234 -20.625 20.625 -20.625c11.39 0 20.625 9.234 20.625 20.625c0 11.39 -9.234 20.625 -20.625 20.625zm-15.133 -22.303c.001 .001 .29 -.262 .642 -.584c.478 -.44 .706 -.647 .904 -.819l.13 -.111l.137 -.114a18.973 18.973 0 0 1 3.017 -2.07c.105 -.058 .373 -.192 .598 -.3c.224 -.108 .452 -.222 .505 -.253c.28 -.16 .494 -.363 .69 -.65a5.84 5.84 0 0 0 .323 -.557c.157 -.296 .25 -.451 .407 -.681c.291 -.427 .561 -.735 .79 -.899c.932 -.67 3.877 -2.13 5.452 -2.703c.358 -.13 .476 -.164 1.09 -.314c.449 -.11 .599 -.14 .731 -.14c.12 -.001 .153 .009 .182 .052c.032 .047 .027 .182 -.016 .437c-.039 .232 -.032 .346 .022 .398c.026 .026 .03 .027 .083 .024c.066 -.005 .157 -.044 .286 -.126c.245 -.156 .38 -.274 .478 -.416c.193 -.283 .325 -.633 .425 -1.126c.24 -1.179 .695 -2.094 1.15 -2.317a.437 .437 0 0 1 .242 -.05c.362 .024 .848 .461 1.386 1.247c.699 1.02 1.331 2.405 1.66 3.632c.108 .411 .178 .783 .251 1.348c.037 .283 .049 .444 .043 .586c-.008 .191 -.039 .274 -.133 .356c-.14 .123 -.345 .163 -.483 .095c-.062 -.03 -.097 -.034 -.128 -.013c-.026 .017 -.046 .063 -.046 .102c0 .242 .977 1.027 1.747 1.404c.269 .132 .431 .186 .687 .228c.636 .105 1.027 -.055 1.163 -.476c.039 -.123 .047 -.187 .046 -.39c0 -.102 -.005 -.215 -.012 -.248c-.023 -.133 -.023 -.156 .002 -.208c.036 -.077 .085 -.092 .188 -.058c.413 .134 1.5 .986 1.951 1.529c.507 .61 1.156 1.789 1.465 2.662c.103 .295 .13 .417 .141 .63c.011 .238 .03 .27 .106 .194a.824 .824 0 0 0 .147 -.223c.211 -.543 .179 -2.22 -.064 -3.364c-.09 -.42 -.227 -.78 -.5 -1.308a6.406 6.406 0 0 0 -.645 -1.027c-.303 -.393 -.47 -.657 -.483 -.76l-.005 -.039h.036c.02 0 .076 .01 .124 .022c.15 .037 1.024 .325 1.611 .53c.303 .105 .553 .19 .556 .19c.007 -.003 -1.458 -1.353 -1.617 -1.49a14.104 14.104 0 0 0 -1.824 -1.317a10.053 10.053 0 0 0 -.703 -.388a9.212 9.212 0 0 1 -1 -.576a16.285 16.285 0 0 1 -2.112 -1.67a51.455 51.455 0 0 0 -.393 -.358c-1.42 -1.284 -2.512 -2.03 -3.31 -2.265a1.592 1.592 0 0 0 -.487 -.08h-.13a.937 .937 0 0 0 -.086 .005c-.341 .052 -.626 .259 -.823 .599c-.15 .26 -.428 .943 -.665 1.637c-.123 .363 -.262 .673 -.374 .836a.694 .694 0 0 1 -.197 .199c-.06 .03 -.167 .029 -.266 -.004c-.243 -.08 -.564 -.288 -.848 -.548c-.354 -.325 -.69 -.587 -.886 -.693c-.142 -.076 -.283 -.097 -.374 -.055c-.08 .036 -.151 .119 -.212 .244c-.09 .189 -.166 .483 -.275 1.06c-.022 .12 -.053 .262 -.067 .315c-.07 .255 -.176 .456 -.3 .568c-.05 .047 -.074 .059 -.232 .125a70.24 70.24 0 0 0 -2.426 1.098c-2.043 .97 -3.264 1.92 -3.778 2.94l-.134 .267c-.149 .296 -.35 .559 -.661 .867c-.297 .293 -.604 .547 -1.1 .915c-1.026 .757 -1.775 1.476 -2.426 2.325c-.246 .323 -.455 .628 -.684 1.002l-.42 .676c-.15 .243 -.271 .442 -.27 .444zm19.745 -7.088c.046 0 .047 -.003 .044 -.299l-.004 -.273l-.033 -.153c-.125 -.58 -.318 -1.165 -.505 -1.535a7.403 7.403 0 0 0 -.658 -1.059c-.226 -.282 -.414 -.394 -.568 -.339c-.145 .052 -.28 .26 -.453 .698c-.09 .23 -.13 .46 -.11 .634c.037 .33 .205 .607 .625 1.023c.29 .286 .398 .38 .857 .737c.483 .375 .755 .566 .805 .566zm-8.383 5.745c.531 -.094 .888 -.42 1.275 -1.159c.045 -.086 .112 -.22 .149 -.299a11.27 11.27 0 0 1 1.172 -1.912c.166 -.215 .353 -.485 .426 -.61c.207 -.356 .199 -.544 -.026 -.607a1.362 1.362 0 0 0 -.184 -.018a2.457 2.457 0 0 1 -.194 -.017c-.202 -.041 -.073 -.199 .395 -.482c.16 -.097 .489 -.279 .744 -.411c.68 -.352 .99 -.546 1.226 -.764c.295 -.272 .36 -.5 .21 -.742a1.508 1.508 0 0 0 -.262 -.27c-.267 -.208 -.765 -.46 -1.06 -.536a.645 .645 0 0 0 -.313 -.013c-.126 .044 -.166 .154 -.124 .343c.019 .084 .01 .139 -.035 .228c-.068 .133 -.263 .336 -.517 .537c-.12 .096 -.175 .136 -.38 .278c-.168 .118 -.29 .218 -.451 .374a3.035 3.035 0 0 0 -.459 .54a1.216 1.216 0 0 0 -.146 .298c-.1 .272 -.176 .361 -.355 .416c-.162 .05 -.34 .062 -.975 .068c-.555 .007 -.848 .024 -1.11 .067c-.219 .036 -.316 .071 -.353 .128c-.072 .11 -.225 .175 -.418 .175a.532 .532 0 0 1 -.364 -.116c-.057 -.05 -.074 -.089 -.084 -.187c-.018 -.184 -.09 -.287 -.198 -.287c-.223 0 -.26 .492 -.075 1.005c.081 .224 .156 .339 .34 .522c.115 .114 .142 .145 .171 .201c.032 .063 .033 .07 .03 .132c-.006 .08 -.043 .155 -.13 .265c-.227 .286 -.325 .458 -.38 .663a.638 .638 0 0 0 -.02 .19a.54 .54 0 0 0 .057 .281c.052 .108 .183 .263 .252 .297c.07 .034 .164 .01 .272 -.075a6.23 6.23 0 0 0 .436 -.416c.227 -.233 .381 -.364 .582 -.492c.222 -.144 .386 -.21 .553 -.223c.11 -.01 .227 -.038 .365 -.086c.271 -.097 .496 -.21 .966 -.49l.382 -.228c.013 -.007 -.01 .04 -.23 .462c-.23 .447 -.3 .57 -.423 .754c-.17 .25 -.342 .453 -.563 .663c-.376 .354 -.83 .633 -1.36 .835c-.07 .026 -.34 .116 -.6 .2a5.057 5.057 0 0 0 -.46 .162c.026 .015 .836 .234 .952 .258c.197 .041 .398 .077 .564 .097c.215 .029 .576 .029 .73 .001zm-2.161 -5.255c.06 0 .08 -.005 .155 -.036c.047 -.02 .132 -.059 .19 -.086c.14 -.068 .272 -.123 .51 -.213a41.26 41.26 0 0 1 1.64 -.566c1.018 -.295 1.528 -.55 1.658 -.826c.057 -.12 .03 -.254 -.078 -.393c-.123 -.158 -.432 -.285 -.773 -.32a.86 .86 0 0 0 -.228 .001c-.086 .01 -.154 .039 -.187 .075c-.015 .016 -.028 .038 -.028 .048a.13 .13 0 0 1 -.013 .043c-.044 .083 -.618 .456 -1.248 .813c-.408 .23 -.627 .369 -.906 .57c-.334 .242 -.557 .447 -.645 .593c-.09 .148 -.116 .204 -.116 .253v.044h.069zm10.6 15.362l.482 -1.067c.191 -.419 .314 -.844 .37 -1.276c.022 -.18 .022 -.682 0 -.87c-.064 -.527 -.207 -1.04 -.459 -1.648a20.546 20.546 0 0 0 -.313 -.695c-.247 -.534 -.516 -1.19 -.609 -1.487c-.05 -.165 -.06 -.224 -.054 -.319c.015 -.24 .13 -.41 .262 -.39c.07 .01 .12 .06 .175 .176c.046 .094 .096 .155 .223 .275c.37 .35 1.02 .763 1.302 .827a.26 .26 0 0 0 .074 .007c.025 -.01 .025 -.042 0 -.113a3.897 3.897 0 0 0 -.237 -.475c-.135 -.206 -.205 -.432 -.248 -.81c-.036 -.31 -.048 -.667 -.06 -1.709c-.009 -.8 -.015 -1 -.04 -1.377c-.075 -1.083 -.255 -1.708 -.667 -2.308a5.347 5.347 0 0 0 -.626 -.744a46.81 46.81 0 0 0 -1.09 -1.059c0 .005 .1 .299 .22 .652c.229 .668 .254 .746 .306 .95c.154 .6 .17 1.172 .054 1.84c-.127 .724 -.394 1.576 -.972 3.1a36.26 36.26 0 0 0 -.732 2.129a1.19 1.19 0 0 0 -.06 .432c0 .175 .01 .269 .054 .454c.134 .586 .54 1.368 1.298 2.497c.367 .548 .689 1.15 .945 1.766c.111 .269 .137 .352 .26 .814c.062 .233 .117 .431 .122 .441c.007 .016 .009 .015 .02 -.013zm-4.628 -2.301a.219 .219 0 0 0 .034 -.06l.2 -.41c.188 -.385 .217 -.45 .268 -.595c.182 -.525 .28 -1.203 .293 -2.029c.016 -1.077 -.129 -2.06 -.404 -2.737a4.872 4.872 0 0 0 -.106 -.224l-.088 -.177l-.1 -.196l-.245 -.48l.224 -.7c.123 -.385 .246 -.768 .271 -.85c.129 -.408 .317 -.866 .505 -1.228c.346 -.667 .745 -1.155 1.157 -1.42c.117 -.074 .193 -.106 .482 -.206c.142 -.05 .262 -.093 .27 -.097c.01 -.005 -.298 -.142 -.673 -.299a2.884 2.884 0 0 0 -.627 -.182a3.104 3.104 0 0 0 -.488 -.02a2.625 2.625 0 0 0 -.556 .118a.94 .94 0 0 0 -.431 .267c-.383 .384 -.622 1.062 -.702 1.996c-.005 .06 -.014 .355 -.018 .656c-.008 .574 -.016 .742 -.045 .935c-.05 .33 -.147 .474 -.35 .515a1.741 1.741 0 0 1 -.416 -.007a2.368 2.368 0 0 0 -.54 -.014c-.317 .05 -.579 .22 -1.212 .782a7.606 7.606 0 0 1 -.93 .734c-.763 .495 -1.308 .517 -1.764 .076c-.186 -.18 -.327 -.39 -.545 -.808c-.151 -.29 -.271 -.458 -.445 -.627a1.165 1.165 0 0 0 -.51 -.306a1.625 1.625 0 0 0 -.748 -.008a7.44 7.44 0 0 0 -.25 .06l-.225 .058c-.147 .039 -.27 .073 -.275 .078a.02 .02 0 0 0 -.004 .02c.002 .006 .154 .076 .336 .155c.471 .203 .622 .281 .762 .397a.84 .84 0 0 1 .179 .217c.068 .125 .119 .334 .153 .637c.056 .495 .157 .867 .32 1.188c.405 .792 1.146 1.11 2.27 .972a3.951 3.951 0 0 1 1.04 -.004c.59 .075 1.163 .283 1.544 .558c.157 .114 .263 .219 .37 .365c.102 .141 .268 .278 .334 .278c.038 0 .069 -.032 .092 -.097c.026 -.073 .022 -.251 -.01 -.39c-.111 -.498 -.488 -1.176 -.864 -1.559c-.282 -.286 -.42 -.492 -.448 -.674a.272 .272 0 0 1 .126 -.285c.112 -.072 .288 -.109 .523 -.11c.175 0 .24 .013 .377 .077c.127 .06 .21 .119 .34 .245c.201 .195 .356 .415 .531 .76c.37 .73 .638 1.714 .785 2.882l.085 .663l.039 .294c.056 .434 .107 .814 .11 .816zm5 11.817c1.113 -.356 1.928 -.681 2.766 -1.105a16.723 16.723 0 0 0 4.875 -3.709c1.359 -1.5 2.42 -3.22 3.146 -5.098c.1 -.263 .284 -.793 .363 -1.054c.36 -1.187 .582 -2.4 .657 -3.614c.037 -.598 .037 -1.413 0 -2.157c-.104 -2.081 -.456 -4.216 -.913 -5.554c-.168 -.489 -.3 -.76 -.533 -1.1c-.212 -.308 -.234 -.336 -.266 -.336c-.017 0 -.027 .004 -.027 .012c0 .03 .035 .183 .105 .464c.098 .393 .16 .66 .229 .987c.455 2.179 .563 4.372 .319 6.474c-.16 1.376 -.495 2.79 -.924 3.896c-.11 .288 -.161 .403 -.192 .44c-.02 .023 -.023 .024 -.036 .013a.188 .188 0 0 1 -.027 -.064a4.714 4.714 0 0 1 -.068 -.434a13.362 13.362 0 0 0 -.37 -1.645c-.173 -.592 -.352 -1.845 -.405 -2.826c-.023 -.442 -.127 -2.198 -.13 -2.209c-.001 -.006 -.122 .224 -.26 .49l-.12 .233l-.112 .22l-.09 .183a4.18 4.18 0 0 0 -.056 .114c-.29 .638 -.364 1.191 -.444 3.344l-.031 .904c-.08 2.372 -.18 3.567 -.38 4.507c-.182 .866 -.463 1.54 -.965 2.32a22.69 22.69 0 0 1 -.517 .749c-.564 .76 -1.582 1.731 -1.956 1.867c-.145 .053 -.164 -.012 -.072 -.24c.335 -.825 .635 -2.064 .821 -3.392c.083 -.584 .128 -1.098 .15 -1.668c.03 -.84 .065 -1.468 .09 -1.663c.014 -.102 .013 -.101 .048 -.09c.096 .031 .273 .179 .643 .533c.184 .178 .292 .275 .294 .268a.707 .707 0 0 0 .01 -.043l.043 -.241c.056 -.315 .139 -.79 .15 -.873a9.8 9.8 0 0 0 .082 -1.432c0 -.845 -.055 -1.616 -.171 -2.397a8.62 8.62 0 0 0 -.283 -1.322c-.113 -.364 -.244 -.907 -.255 -1.06c-.004 -.061 -.004 -.071 .01 -.071c.007 0 .09 .034 .183 .075l.376 .167c.525 .232 .774 .314 .818 .268c.025 -.028 .034 -.082 .034 -.204c0 -.373 -.164 -1.157 -.401 -1.917c-.161 -.517 -.306 -.844 -.46 -1.043c-.555 -.715 -2.326 -2.083 -2.744 -2.12c-.094 -.008 -.112 .03 -.076 .166c.06 .226 .277 .666 .541 1.093c.29 .47 .622 1.067 .78 1.406c.149 .319 .226 .616 .173 .661c-.038 .033 -.112 .025 -.277 -.029c-.283 -.092 -.82 -.197 -1.595 -.312c-.24 -.036 -.316 -.035 -.366 .005c-.027 .022 -.028 .025 -.024 .077c.007 .11 .09 .248 .587 .985c.133 .195 .276 .414 .32 .484c.566 .913 .858 1.8 .964 2.932c.033 .346 .04 .54 .042 1.013c0 .376 -.005 .537 -.022 .86l-.023 .4a28.21 28.21 0 0 1 -.573 -.31c-.608 -.331 -.865 -.46 -1.084 -.543c-.278 -.105 -.41 -.122 -.425 -.055c-.022 .103 .097 .603 .265 1.115c.203 .612 .32 1.295 .363 2.125c.013 .268 .005 .982 -.014 1.214a6.192 6.192 0 0 1 -.168 1.066c-.02 .081 -.192 .642 -.257 .848l-.025 .075c-.001 0 -.084 -.26 -.184 -.581c-.1 -.32 -.22 -.703 -.265 -.851l-.043 -.135l-.032 -.097a.19 .19 0 0 0 -.014 -.036c-.003 0 -.091 .178 -.198 .394c-.052 .107 -.096 .2 -.136 .28l-.103 .207a3.85 3.85 0 0 1 -.29 .498a3.976 3.976 0 0 1 -1.773 1.472a6.07 6.07 0 0 0 -.382 .207l-.32 .183c-.01 .006 .003 -.026 .043 -.1c.38 -.697 .416 -.772 .491 -1.033a3.42 3.42 0 0 0 .086 -1.362a2.717 2.717 0 0 0 -.264 -.86a1.506 1.506 0 0 0 -.331 -.442c-.477 -.46 -1.277 -.831 -1.994 -.925a2.672 2.672 0 0 0 -.527 -.005c-1.098 .168 -2.184 1.155 -2.963 2.695c-.2 .394 -.343 .739 -.529 1.267c-.147 .42 -.296 .741 -.443 .955a.64 .64 0 0 1 -.203 .2c-.088 .036 -.25 .05 -.439 .036c-.718 -.05 -1.768 -.366 -2.257 -.677a1.22 1.22 0 0 1 -.521 -.745a1.413 1.413 0 0 1 -.046 -.364c-.012 -.252 -.039 -.388 -.091 -.453c-.024 -.03 -.035 -.029 -.086 .005c-.037 .027 -.047 .03 -.106 .03a.233 .233 0 0 1 -.137 -.036a.881 .881 0 0 1 -.287 -.269c-.117 -.185 -.133 -.394 -.032 -.445c.062 -.031 .142 -.015 .417 .085c.049 .017 .135 .04 .194 .05c.095 .019 .132 .02 .38 .02c.235 0 .297 -.003 .428 -.02c1.034 -.135 2.201 -.58 3.043 -1.16c.987 -.68 1.54 -1.314 1.714 -1.962c.05 -.19 .063 -.284 .062 -.49c0 -.203 -.012 -.306 -.058 -.493c-.114 -.464 -.387 -.982 -.757 -1.436c-.123 -.15 -.42 -.44 -.576 -.559c-.641 -.496 -1.413 -.776 -2.327 -.848a9.131 9.131 0 0 0 -.876 -.004c-.337 .022 -.653 .06 -.91 .11a1.76 1.76 0 0 0 -.45 .135c-.197 .09 -.256 .104 -.29 .069c-.022 -.025 -.02 -.124 .005 -.267a.826 .826 0 0 0 -.093 -.595c-.19 -.347 -.587 -.629 -1.005 -.715a1.815 1.815 0 0 0 -.487 0c-.587 .12 -1.155 .602 -1.635 1.385c-.076 .125 -.257 .461 -.38 .703c-.24 .48 -.333 .763 -.273 .836c.062 .076 .229 -.028 .592 -.37c.298 -.282 .505 -.448 .764 -.614c.38 -.244 .747 -.397 1.076 -.446c.114 -.018 .309 -.013 .393 .008c.153 .04 .312 .155 .336 .242c.047 .166 -.174 .384 -1.056 1.038c-.732 .543 -1.211 .874 -1.485 1.026c-.288 .16 -.526 .219 -.76 .189a3.93 3.93 0 0 1 -.514 -.115c-.62 -.2 -1.159 -.721 -1.473 -1.427a6.702 6.702 0 0 1 -.215 -.62c-.126 -.453 -.06 -.69 .453 -1.65c.371 -.695 .619 -1.24 .619 -1.36c0 -.045 -.024 -.081 -.093 -.142c-.223 -.196 -.79 -.466 -1.278 -.608c-.3 -.087 -.492 -.104 -.679 -.057a3.92 3.92 0 0 0 -.748 .284c-.074 .038 -.276 .15 -.448 .248c-.173 .1 -.318 .18 -.32 .18a2.28 2.28 0 0 1 -.05 -.233a4.347 4.347 0 0 0 -.061 -.287c-.02 -.062 -.055 -.108 -.082 -.108c-.086 0 -.295 .322 -.6 .923l-.146 .29v.327l.534 .52c.63 .615 .791 .785 1.085 1.155c.354 .446 .534 .719 .728 1.103c.356 .71 .72 1.233 1.162 1.671c.29 .288 .548 .485 .838 .638c.274 .145 .524 .219 .797 .237c.072 .005 .162 .012 .199 .018c.18 .025 .399 .143 .5 .27c.065 .083 .343 .348 .476 .456c.553 .446 1.234 .881 1.553 .993c.142 .05 .255 .03 .298 -.052a.195 .195 0 0 0 .02 -.073c0 -.156 -.17 -.434 -.455 -.743c-.04 -.044 -.2 -.205 -.356 -.359c-.37 -.364 -.435 -.447 -.436 -.559c-.001 -.082 .034 -.135 .207 -.314c.161 -.166 .256 -.25 .346 -.306a.381 .381 0 0 1 .167 -.065c.07 0 .126 .056 .16 .159c.035 .1 .048 .196 .074 .573c.012 .186 .024 .338 .026 .34c.005 .005 .003 .009 .09 -.31c.044 -.159 .095 -.328 .119 -.385c.258 -.635 .774 -1.152 1.496 -1.503c.381 -.184 .77 -.303 1.17 -.355c.145 -.02 .508 -.022 .63 -.005c.41 .057 .752 .194 1.041 .417c.066 .05 .587 .515 .593 .527a3.2 3.2 0 0 1 -.22 .161c-.305 .217 -.37 .287 -.58 .625c-.22 .354 -.416 .765 -.64 1.34c-.27 .69 -.621 1.374 -.78 1.515c-.096 .087 -.318 .157 -.54 .17c-.16 .01 -.387 -.02 -.589 -.079c-.238 -.07 -.423 -.154 -.76 -.346c-.194 -.111 -.223 -.125 -.223 -.108c0 .057 .13 1.005 .158 1.147c.122 .64 .39 1.577 .563 1.967c.199 .45 .423 .786 .716 1.07c.386 .377 .848 .622 1.527 .812c.34 .094 .671 .157 1.27 .24c.58 .08 1.048 .155 1.609 .255c.164 .03 .319 .055 .346 .058c.07 .005 .109 -.01 .154 -.056c.09 -.096 .144 -.291 .22 -.803c.105 -.705 .22 -1.199 .405 -1.737c.237 -.688 .54 -1.247 .918 -1.69c.085 -.1 .308 -.313 .403 -.388c.314 -.243 .672 -.4 1.058 -.465a1.95 1.95 0 0 1 .495 0c.335 .065 .578 .225 .766 .506c.245 .364 .35 .94 .276 1.5c-.085 .638 -.35 1.219 -.85 1.864c-.157 .203 -.285 .35 -.676 .779l-.326 .36c-.01 .018 1.42 .006 1.6 -.012c.65 -.066 1.23 -.21 1.918 -.477c.384 -.149 .713 -.259 .973 -.326a1.25 1.25 0 0 1 .262 -.045c.009 .003 .023 .02 .033 .038c.022 .044 .022 .24 -.001 .364c-.07 .377 -.232 .891 -.475 1.503c-.38 .96 -.858 1.877 -1.173 2.252l-.132 .157c-.394 .468 -.082 .496 1.148 .103zm-8.937 -22.978c-.18 .015 -.277 -.092 -.203 -.222c.034 -.06 .098 -.105 .194 -.137c.06 -.02 .285 -.02 .377 .001c.09 .02 .154 .05 .154 .071c0 .03 -.086 .091 -.263 .185c-.16 .085 -.186 .096 -.259 .102zm-6.626 5.38c.452 -.393 .88 -.723 1.102 -.85c.33 -.188 .393 -.24 .324 -.267a3.396 3.396 0 0 0 -.43 -.011a1.626 1.626 0 0 0 -.825 .396a4.54 4.54 0 0 0 -.637 .873c-.032 .06 -.074 .133 -.093 .164a.659 .659 0 0 0 -.09 .179c0 .062 .132 -.037 .649 -.484zm-.899 3c.143 -.064 .492 -.368 .908 -.79c.398 -.402 .609 -.599 .842 -.787c.194 -.156 .365 -.27 .505 -.338a.51 .51 0 0 1 .237 -.068c.134 0 .277 -.03 .376 -.075c.184 -.084 .252 -.235 .177 -.392c-.055 -.113 -.121 -.179 -.334 -.331c-.228 -.164 -.332 -.193 -.493 -.138c-.096 .031 -.19 .082 -.423 .223c-.243 .147 -.309 .196 -.441 .324c-.545 .531 -1.265 1.672 -1.402 2.221c-.018 .076 -.023 .157 -.008 .166c.005 .004 .03 -.004 .056 -.016zm-2.308 -.518c-.363 -.087 -1.24 -.64 -1.545 -.974c-.063 -.07 -.1 -.132 -.1 -.17c0 -.027 .008 -.036 .073 -.086c.206 -.161 .848 -.495 1.156 -.601c.115 -.04 .147 -.04 .17 0c.04 .063 .049 .255 .02 .39l-.031 .139c-.072 .33 -.003 .592 .207 .787c.118 .11 .194 .194 .233 .256c.064 .105 .063 .17 -.006 .234c-.047 .044 -.082 .048 -.177 .025zm9.614 5.884c.02 -.093 .1 -.342 .142 -.436c.09 -.205 .219 -.355 .356 -.415a.203 .203 0 0 1 .095 -.018h.059a.796 .796 0 0 0 .145 -.007c.076 -.022 .14 -.1 .168 -.206c.026 -.098 .034 -.183 .042 -.453c.01 -.343 .029 -.44 .097 -.517c.047 -.054 .113 -.074 .23 -.067a.93 .93 0 0 1 .114 .014a.73 .73 0 0 1 .108 .04c.174 .078 .274 .256 .305 .542a.702 .702 0 0 1 -.03 .303c-.094 .294 -.416 .586 -1.072 .97l-.09 .054l-.19 .107a5.577 5.577 0 0 1 -.393 .208c-.09 .03 -.11 .001 -.086 -.119z"/></svg>