<svg xmlns="http://www.w3.org/2000/svg" width="48" height="48" viewBox="0 0 48 48" fill="currentColor"><path d="M21.672 1.595c-.231 .114 -.23 .212 .01 .503c.467 .564 .409 .657 -.463 .733c-.694 .06 -2.03 .403 -2.448 .627c-.12 .065 -.242 .117 -.272 .117c-.418 0 -2.333 1.31 -3.088 2.112a30.85 30.85 0 0 1 -.46 .481a2.99 2.99 0 0 0 -.287 .364c-.09 .132 -.258 .368 -.376 .523a8.42 8.42 0 0 0 -.547 .938l-.333 .654l-.239 -.011a44.745 44.745 0 0 0 -.785 -.024l-.548 -.013l-.334 .187c-.911 .512 -1.175 1.283 -.486 1.423c.664 .135 1.275 .74 1.52 1.505l.11 .346v23.988l-.156 .408c-.253 .668 -.74 1.126 -1.439 1.353c-.37 .12 -.493 .25 -.433 .462c.06 .211 .345 .598 .53 .72c.09 .059 .196 .137 .235 .173c.2 .186 .734 .302 1.156 .249c.163 -.02 .425 -.04 .582 -.043l.285 -.005l.312 .626a8.2 8.2 0 0 0 .477 .85c.09 .125 .251 .347 .356 .496c.226 .32 1.108 1.304 1.293 1.44c.071 .054 .27 .211 .442 .35l.432 .35c.2 .16 1.486 .888 1.715 .97c.118 .042 .45 .164 .738 .27c.63 .23 1.706 .474 2.263 .512c.642 .043 .701 .357 .155 .818c-.099 .084 -.107 .114 -.064 .23c.154 .409 1.428 .219 2.017 -.301c.377 -.334 .406 -.334 .785 0c.572 .504 1.799 .706 1.992 .329l.075 -.146l-.241 -.258c-.445 -.475 -.358 -.61 .45 -.692c.287 -.03 .779 -.118 1.092 -.197c.312 -.079 .597 -.143 .631 -.143c.035 0 .154 -.04 .265 -.09c.111 -.048 .384 -.158 .607 -.244c.64 -.247 1.516 -.734 2.015 -1.12c.672 -.521 .81 -.64 1.216 -1.062c.79 -.815 1.285 -1.502 1.774 -2.46l.27 -.528l.257 .006c.14 .004 .405 .022 .589 .04c.73 .075 1.374 -.222 1.761 -.811c.322 -.489 .28 -.613 -.266 -.793c-.672 -.222 -1.235 -.738 -1.426 -1.306c-.156 -.468 -.18 -.978 -.183 -4.035c-.003 -3.088 0 -3.028 -.202 -4.07c-.13 -.672 -.542 -2.01 -.664 -2.159a3.415 3.415 0 0 1 -.195 -.34c-.249 -.476 -.324 -.61 -.47 -.834c-.078 -.119 -.18 -.28 -.225 -.357a2.33 2.33 0 0 0 -.213 -.288a11.904 11.904 0 0 1 -.322 -.39c-.344 -.435 -.98 -1.001 -1.882 -1.679c-.312 -.234 -.318 -.241 -.285 -.374c.02 -.078 .104 -.175 .206 -.239c.872 -.544 1.979 -1.654 2.59 -2.599c1.228 -1.895 1.575 -3.095 1.68 -5.803c.05 -1.278 .074 -1.557 .152 -1.785c.223 -.643 .877 -1.218 1.542 -1.353c.63 -.13 .376 -.838 -.493 -1.377l-.343 -.214l-.5 -.001a6.542 6.542 0 0 0 -.767 .038c-.309 .047 -.399 -.03 -.636 -.55a5.392 5.392 0 0 0 -.287 -.527a7.396 7.396 0 0 1 -.248 -.42c-.044 -.086 -.098 -.156 -.118 -.156c-.021 0 -.08 -.082 -.13 -.18c-.097 -.188 -.23 -.359 -.553 -.707a71.282 71.282 0 0 1 -.404 -.44a4.24 4.24 0 0 0 -.38 -.371a96.455 96.455 0 0 0 -.331 -.264a9.497 9.497 0 0 1 -.357 -.305a2.565 2.565 0 0 0 -.41 -.29c-.2 -.108 -.394 -.23 -.81 -.502a4.049 4.049 0 0 0 -.547 -.26c-.21 -.083 -.488 -.203 -.62 -.266a3.553 3.553 0 0 0 -.547 -.193a2.926 2.926 0 0 1 -.382 -.117c-.107 -.057 -1.096 -.231 -1.615 -.285c-.68 -.07 -.726 -.22 -.233 -.746c.274 -.292 .273 -.28 .051 -.433c-.44 -.302 -1.33 -.064 -2.124 .568l-.172 .137l-.21 -.137c-.117 -.075 -.314 -.21 -.439 -.301c-.447 -.323 -1.285 -.477 -1.64 -.302m1.416 4.205c.1 .139 .241 .345 .314 .459c.145 .227 .453 .539 .53 .538c.103 -.002 .573 -.532 .708 -.798c.163 -.321 .398 -.467 .696 -.43c.146 .017 .48 .05 .742 .072c.281 .024 .577 .08 .722 .14c.135 .054 .374 .132 .532 .173c1.26 .33 2.736 1.543 3.533 2.905c.066 .112 .169 .28 .229 .375c.14 .22 .317 .692 .39 1.044c.03 .151 .096 .367 .146 .48c.25 .57 .25 4.144 0 4.637c-.05 .1 -.116 .32 -.146 .49c-.05 .281 -.214 .727 -.334 .911c-.026 .04 -.1 .18 -.166 .313a3.892 3.892 0 0 1 -.237 .408c-.065 .093 -.199 .285 -.297 .428c-.787 1.134 -2.54 2.267 -3.841 2.481c-.842 .14 -1.016 .22 -.935 .435c.076 .201 .457 .76 .8 1.17c.096 .116 .195 .246 .218 .288c.11 .197 1.53 1.646 2.006 2.047c.366 .309 1.2 1.072 1.42 1.3c.127 .131 .342 .44 .868 1.243c.123 .188 .26 .504 .376 .871l.267 .842c.27 .849 .274 8.106 .006 8.639c-.05 .1 -.118 .31 -.15 .466c-.075 .367 -.263 .872 -.403 1.086c-.061 .092 -.14 .223 -.176 .29c-.365 .69 -.863 1.276 -1.59 1.871c-.57 .467 -1.41 .942 -1.98 1.12c-.679 .214 -1.562 .368 -2.118 .371c-.216 .001 -.42 -.174 -.66 -.566a3.38 3.38 0 0 0 -.362 -.452l-.234 -.245l-.18 .137c-.1 .075 -.195 .16 -.213 .187c-.057 .091 -.227 .334 -.449 .64l-.218 .3h-.375c-.61 0 -1.542 -.138 -2.094 -.31a9.775 9.775 0 0 0 -.485 -.142c-.12 -.027 -.469 -.22 -.758 -.417a1.98 1.98 0 0 0 -.286 -.154c-.146 -.061 -.501 -.326 -.947 -.706c-.757 -.645 -1.599 -1.912 -1.783 -2.685a3.462 3.462 0 0 0 -.16 -.489c-.086 -.193 -.13 -.433 -.302 -1.642c-.027 -.192 -.04 -2.096 -.03 -4.76l.015 -4.438l.125 -.457c.195 -.709 .617 -1.458 1.023 -1.812c.623 -.544 .958 -.738 1.518 -.878c.395 -.099 .378 -.038 .395 -1.38c.02 -1.605 .016 -1.62 -.509 -1.773c-.637 -.187 -1.601 -.896 -1.859 -1.367c-.692 -1.264 -.685 -1.226 -.707 -4.119c-.011 -1.433 0 -2.52 .03 -2.764c.127 -1.051 .209 -1.517 .3 -1.719c.055 -.12 .13 -.349 .166 -.506c.352 -1.518 2.397 -3.541 4.04 -3.997a8.35 8.35 0 0 0 .59 -.185c.115 -.043 .448 -.1 .739 -.127c.29 -.026 .55 -.056 .576 -.066c.027 -.01 .213 -.02 .416 -.022l.367 -.004l.181 .253zm1.347 3.83a2.401 2.401 0 0 0 -.43 .188c-.207 .13 -.347 .131 -.513 .008c-.414 -.31 -1.608 -.291 -2.07 .031c-.28 .197 -.547 .203 -.935 .023c-.742 -.345 -1.86 -.156 -2.481 .42c-.62 .575 -.753 1.597 -.273 2.11c.367 .39 .89 .119 .89 -.463c0 -.267 .011 -.296 .149 -.394l.148 -.107l.2 .099c.188 .092 .208 .12 .305 .451l.104 .354v11.9l.178 .166c.098 .09 .193 .165 .21 .165c.017 0 .124 .079 .238 .175c.841 .707 1.664 1.358 1.823 1.444c.26 .14 .265 .098 .266 -1.808c0 -1.025 .02 -1.78 .05 -1.888l.048 -.178l.155 .178c.15 .173 .36 .448 .509 .664c.124 .18 .504 .76 .58 .885c.223 .365 1.877 2.137 2.44 2.614c.13 .109 .347 .295 .484 .414c.846 .735 1.095 .916 2.212 1.61c.213 .133 .455 .29 .539 .348c.284 .2 .384 .225 .993 .243c.776 .023 .837 -.058 .567 -.758a18.138 18.138 0 0 1 -.19 -.53c-.2 -.585 -.367 -.918 -.62 -1.233a8.995 8.995 0 0 1 -.265 -.351c-.184 -.258 -.856 -.907 -1.567 -1.512c-.983 -.837 -1.971 -1.92 -2.854 -3.127c-.152 -.208 -.403 -.637 -.438 -.748c-.017 -.052 -.048 -.095 -.071 -.095c-.064 0 -.652 -1.112 -.737 -1.394a.636 .636 0 0 0 -.099 -.192c-.146 -.17 -.4 -.734 -.542 -1.202a7.194 7.194 0 0 0 -.269 -.75a1.402 1.402 0 0 1 -.117 -.312c0 -.037 -.056 -.197 -.123 -.356a3.467 3.467 0 0 1 -.183 -.649l-.16 -.937c-.125 -.722 -.296 -2.3 -.296 -2.722c.003 -1.302 1.638 -1.919 2.601 -.982c.336 .327 .323 .16 .352 4.393l.025 3.814l.117 .095c.095 .078 .16 .09 .357 .065c.5 -.061 1.249 -.235 1.455 -.338a3.57 3.57 0 0 1 .39 -.163a.94 .94 0 0 0 .32 -.206l.143 -.148l.014 -3.467l.014 -3.466l.12 -.216c.274 -.494 .714 -.397 .714 .157c0 .7 .716 .86 1.078 .24c.793 -1.36 -1.4 -3.116 -2.897 -2.32c-.282 .15 -.702 .16 -.857 .018c-.34 -.308 -1.246 -.44 -1.801 -.262m-18.125 2.046c-.662 .122 -.723 .152 -1.223 .602c-.546 .492 -.73 1.337 -.406 1.875c.375 .625 1.082 .402 1.082 -.34c0 -.675 .749 -.519 .898 .186c.038 .176 .054 1.273 .054 3.546c0 3.708 .028 3.44 -.366 3.508c-.523 .088 -.977 .322 -1.164 .599c-.408 .604 -.387 .75 .125 .866c.655 .148 1.255 .834 1.356 1.55c.105 .742 .048 9.965 -.063 10.19c-.25 .508 -.884 .464 -.847 -.058c.053 -.738 -.696 -.966 -1.068 -.326c-.839 1.444 1.302 3.112 3.02 2.354c.433 -.19 .502 -.19 1.033 -.004c1.015 .357 2.189 -.017 2.382 -.76c.092 -.354 .032 -.416 -.436 -.453c-.377 -.03 -.681 -.153 -.811 -.33a3.958 3.958 0 0 0 -.153 -.187c-.228 -.263 -.221 -.029 -.221 -7.462c0 -7.187 0 -7.216 .166 -7.148c.019 .008 .265 .284 .547 .615c.69 .809 1.28 1.423 1.452 1.513c.24 .125 .246 .075 .23 -1.983l-.014 -1.862l-.207 -.312a32.552 32.552 0 0 0 -.306 -.455c-.422 -.605 -.742 -1.114 -.935 -1.487c-.124 -.24 -.25 -.481 -.28 -.534c-.097 -.17 -.304 -.854 -.364 -1.202c-.138 -.804 .168 -1.2 .907 -1.173c.49 .018 .585 -.156 .348 -.633c-.322 -.65 -1.624 -.893 -2.555 -.478c-.253 .113 -.456 .124 -.533 .03c-.156 -.189 -1.15 -.338 -1.648 -.247m34.51 -.019a3.08 3.08 0 0 0 -.595 .14c-.587 .214 -.6 .215 -.834 .108c-1.026 -.47 -2.303 -.185 -2.609 .582c-.162 .408 -.093 .493 .432 .524c.898 .053 1.233 .583 .99 1.564a6.029 6.029 0 0 0 -.125 .684a2.204 2.204 0 0 1 -.101 .48c-.038 .093 -.11 .342 -.161 .553c-.186 .773 -.328 1.254 -.423 1.44a.955 .955 0 0 0 -.1 .265c-.002 .04 -.066 .193 -.143 .338c-.078 .146 -.141 .293 -.141 .327c0 .117 -.99 2.07 -1.137 2.245c-.073 .087 -.19 .264 -.574 .866c-.241 .379 -1.15 1.505 -1.272 1.576c-.305 .178 -.271 .562 .089 1.03c.164 .213 .436 .658 .606 .99c.418 .816 .436 .82 1 .213c.654 -.703 1.11 -1.228 1.25 -1.44a3.07 3.07 0 0 1 .222 -.298c.05 -.055 .243 -.328 .428 -.605c.853 -1.281 .773 -1.823 .758 5.136l-.013 5.8l-.196 .289c-.247 .363 -.513 .51 -.997 .55c-.537 .044 -.612 .322 -.225 .83c.357 .467 1.382 .657 2.116 .392c.533 -.193 .682 -.196 1.089 -.021c1.73 .743 3.776 -.8 3.055 -2.304c-.316 -.662 -1.064 -.515 -1.074 .21c-.01 .66 -.645 .675 -.891 .02l-.114 -.303v-9.566l.113 -.408c.19 -.69 .76 -1.23 1.454 -1.379c.363 -.077 .336 -.457 -.061 -.873c-.328 -.343 -.397 -.376 -1.185 -.583c-.37 -.098 -.35 .126 -.333 -3.589c.016 -3.516 .012 -3.452 .238 -3.816c.244 -.394 .817 -.253 .766 .189c-.09 .764 .792 .968 1.115 .258c.557 -1.23 -.807 -2.592 -2.417 -2.414m-22.625 12.782c-.6 .191 -1.431 1.116 -1.521 1.69c-.051 .326 -.037 .347 .54 .8c.26 .205 .538 .428 .62 .497c.08 .068 .446 .366 .813 .66c.367 .296 .817 .661 1 .813c.182 .152 .428 .35 .547 .441c.119 .091 .42 .348 .668 .571a2926.159 2926.159 0 0 1 1.358 1.218c.13 .117 .302 .277 .38 .356c.08 .078 .219 .208 .31 .289c.092 .08 .31 .307 .484 .504c.175 .197 .39 .438 .48 .535c.169 .184 .495 .647 .874 1.242c.44 .69 .594 1.785 .326 2.314c-.297 .583 -1.458 .86 -2.076 .495a1.427 1.427 0 0 1 -.571 -.634l-.16 -.324l-.024 -1.854l-.023 -1.854l-.12 -.141a6.517 6.517 0 0 0 -.477 -.454l-.985 -.865c-1.235 -1.085 -1.105 -1.349 -1.12 2.283c-.015 3.307 -.01 3.255 -.403 3.474l-.196 .11l-.148 -.126c-.135 -.115 -.148 -.15 -.148 -.414c0 -.896 -1.032 -.797 -1.167 .112c-.14 .944 .567 1.895 1.536 2.065c.467 .082 1.221 .035 1.51 -.095c.323 -.144 .578 -.148 .838 -.011c.673 .354 1.249 .4 1.94 .155c.48 -.17 .45 -.172 1.035 .051c.625 .239 1.39 .152 1.953 -.22c.19 -.126 .523 -.115 .786 .025c.369 .196 1.526 .168 1.96 -.046c1.135 -.56 1.506 -2.005 .665 -2.588c-.32 -.221 -.767 .114 -.767 .573c0 .44 -.245 .604 -.547 .364c-.294 -.233 -.285 -.125 -.3 -3.788l-.015 -3.34l-.105 -.116c-.125 -.136 -.524 -.448 -.862 -.673a6.627 6.627 0 0 1 -.505 -.385a27.314 27.314 0 0 0 -.333 -.28c-.732 -.59 -.731 -.59 -.912 -.492c-.068 .037 -.093 .095 -.087 .205c.004 .084 .006 .63 .003 1.214l-.005 1.062l-.116 .054c-.108 .05 -.15 .019 -.63 -.463c-.284 -.284 -.74 -.71 -1.012 -.947a80.817 80.817 0 0 0 -1.91 -1.608a63.093 63.093 0 0 1 -1.31 -1.072c-.104 -.09 -.34 -.278 -.523 -.42a16.626 16.626 0 0 1 -.596 -.482c-.293 -.253 -.707 -.529 -.783 -.523a1.136 1.136 0 0 0 -.17 .043"/></svg>