<svg xmlns="http://www.w3.org/2000/svg" width="48" height="48" viewBox="0 0 48 48" fill="currentColor"><path d="m33.524 46.553.532.193.195-.244c.113-.132.195-.396.195-.61v-.365l.235.396c.123.223.349.488.513.61l.066.048c.2.142.257.14.639.005l.223-.08c.385-.135.468-.12.998.037l.157.046c.428.125.484.11.632-.036.246-.244.215-1.097-.062-1.717-.297-.66-1.188-1.504-2.018-1.91l-.676-.325.44-.254c1.363-.803 3.156-2.246 4.345-3.505 7.418-7.823 8.104-19.507 1.639-28.102-2.91-3.881-7.295-6.797-11.988-7.986l-.119-.029c-1.978-.476-5.373-.9-5.373-.651 0 .097.44.519.927.92l.09.074.1.08c.217.173.434.332.615.45l.038.022c.348.206 1.232.662 2.021 1.014l.286.131c3.019 1.392 4.098 2.051 5.38 3.303.871.853 1.414 1.656 1.814 2.662.307.823.615 2.265.615 2.966v.386l.799-.06q2.443-.187 4.426 1.655c1.711 1.596 2.961 3.993 3.453 6.635.246 1.31.246 4.145 0 5.486-.42 2.266-.943 3.86-1.967 5.943-1.25 2.56-2.787 4.643-4.754 6.462l-.223.202c-.43.39-.764.68-.781.672-.01-.02.092-.254.225-.529l.039-.077c.24-.487.26-.746.115-1.152l-.02-.046c-.088-.209-.143-.214-.575-.147-.46.081-1.034.081-2.07.03l-.072-.004c-.372-.023-.417.012-.716.472l-.338.488v-.346c0-.549-.195-.731-.677-.64-.543.091-1.229.102-1.762 0-.502-.091-.727.05-1.055.66l-.185.356-.01-.417v-.053c-.011-.506-.182-.636-.74-.555l-.059.009a5.4 5.4 0 0 1-.833.06h-.072c-.278 0-.617-.014-1.062-.04l-.055-.002c-.38-.016-.424.016-.58.317l-.048.096c-.111.219-.134.206-.188.026-.12-.388-.487-.542-1.12-.462l-.038.005a8.7 8.7 0 0 1-2.197.013l-.098-.013c-.643-.09-1.02.055-1.15.434l-.024.073c-.05.149-.08.115-.22-.172l-.03-.059c-.14-.258-.203-.275-.605-.256l-.243.014c-.31.016-.563.024-.78.026h-.11a5.4 5.4 0 0 1-.787-.053l-.106-.016c-.577-.084-.74.058-.74.608l-.01.417-.185-.356-.035-.064c-.31-.555-.536-.684-1.02-.596-.533.102-1.22.091-1.762 0l-.05-.009c-.437-.068-.62.113-.626.63v.385l-.308-.478c-.348-.548-.635-.66-1.28-.477a2.1 2.1 0 0 1-.902.05l-.44-.07c-.68-.106-.708-.084-.825.074l-.006.007c-.174.233-.174.67.02 1.117l.144.356-.287-.203c-.297-.208-1.03-.958-1.718-1.733l-.073-.083-.123-.14c-.285-.327-.554-.65-.77-.93-3.013-3.86-4.795-9.103-4.56-13.35.195-3.515 1.373-6.34 3.535-8.462 1.373-1.352 2.818-1.92 4.519-1.789l.778.061.123-1.077c.133-1.209.533-2.479 1.056-3.373.464-.78 1.964-2.243 3.018-2.946l.045-.03q.12-.08.24-.157l.116-.074c.816-.514 1.62-.91 3.538-1.781l.27-.126.183-.086c.681-.325 1.344-.666 1.596-.824.196-.127.446-.314.694-.515l.061-.05.062-.05.11-.093c.437-.37.815-.734.815-.816 0-.049-.142-.079-.307-.072l-.566.03-.122.007-.235.014C17.561 2.348 12.52 4.543 8.8 8.078 3.35 13.259.952 20.798 2.427 28.052c1.179 5.78 4.498 10.698 9.406 13.919l.902.6-.533.213c-1.127.477-2.141 1.422-2.428 2.275-.171.498-.155 1.25.03 1.461l.01.012c.195.204.206.204.81-.01l.073-.024c.397-.128.487-.119.952.045.613.203.81.148 1.216-.39l.372-.504v.304a.97.97 0 0 0 .194.549l.195.234.553-.183.132-.044c.394-.13.47-.124.74.023.184.092.389.163.47.163.226 0 .646-.366.82-.731l.175-.336v.376c0 .376.204.691.45.691.082 0 .338-.071.584-.163l.066-.022c.355-.12.453-.11.918.043.492.162.543.162.789.01.143-.102.358-.346.46-.559l.054-.099c.144-.264.153-.24.162-.002 0 .152.113.396.246.548l.236.285.635-.193.159-.045c.437-.122.545-.123.949.002l.18.057c.606.188.694.172 1.13-.126l.048-.031c.288-.184.365-.197.423-.08.049.076.209.19.374.262l.026.011c.266.112.41.102.932-.05l.124-.037c.45-.131.555-.125.995.005l.215.064c.23.068.43.12.48.12.215 0 .533-.447.533-.752v-.072c.002-.227.025-.183.297.235.369.579.594.66 1.23.426l.109-.037c.337-.113.426-.112.757.008l.177.066c.329.118.475.13.657.045l.035-.018c.185-.095.221-.196.221-.53v-.438l.236.407c.118.214.33.447.482.537l.02.011c.236.132.307.132.676-.03l.08-.037c.327-.145.387-.133.863.037M23.974 8.24c.677-.122.882-.468.605-1.006l-.02-.034c-.15-.251-.252-.197-.256.144l-.001.06c-.004.158-.037.179-.123.094-.088-.088-.092-.175-.01-.352l.01-.024c.099-.205.093-.326-.008-.56l-.049-.113c-.068-.16-.132-.325-.158-.394l-.006-.02c-.03-.087-.071-.048-.147.122a.7.7 0 0 0 0 .498c.05.142.061.315.03.386-.061.162-.266.07-.246-.102l.005-.04c.03-.327-.044-.334-.271-.031-.287.386-.318.538-.123.731.068.068.172.244.244.4l.012.027c.123.264.164.285.513.214m-.102 3.098c.85 0 1.455-.569 1.455-1.371 0-1.057-1.045-1.727-2.018-1.28-.503.233-.748.558-.82 1.107-.113.833.522 1.544 1.383 1.544m1.537.366c.256-.284.604-1.077.502-1.128-.01-.01-.195.183-.42.427-.821.915-2.144.964-3.065.119l-.07-.066c-.227-.21-.41-.323-.41-.256 0 .305.297.813.645 1.117.871.752 2.04.66 2.818-.213M21.024 22.22v-9.458h-.82c-.55 0-.827.038-.868.116l-.003.006c-.021.048-.032 1.057-.034 2.5v.685l.003 1.518.031 4.572.85.03zm7.48-.01v-9.448H26.76v9.448zm-2.255-7.416v-.701l-2.305-.061.973-.529.295-.158c.404-.22.748-.412.827-.468l.005-.004c.103-.07-.574-.101-2.131-.101l-.225-.002h-.612c-.839.007-1.422.032-1.407.063.03.05.523.305 1.086.589l.098.047c.528.257.937.494.937.532 0 .04-.483.08-1.091.081h-1.163v.712zm-3.33 4.927-.184-.254c-.215-.305-.226-.925-.02-1.33.194-.367.716-.702 1.106-.702.666 0 1.199-.508 1.199-1.148 0-.477-.257-.874-.687-1.046l-.07-.031c-.33-.14-.421-.122-1.016.03-1.052.282-1.695 1.127-1.71 2.254l-.001.043c0 .579.041.741.338 1.209.174.294.492.64.687.751zm1.107.163c1.444-.03 2.54-1.423 2.233-2.815-.133-.589-.543-1.219-.983-1.503l-.101-.066c-.177-.114-.175-.092-.104.066.174.386.174 1.026.01 1.35-.22.409-.51.593-1.157.715l-.042.007c-.686.122-1.116.529-1.116 1.067 0 .782.44 1.199 1.26 1.179m-.144-3.363c-.194 0-.276-.295-.123-.437.11-.108.304-.083.354.037l.005.014c.082.213-.02.386-.236.386m-.194 2.336c0-.243.215-.315.41-.142l.024.025c.098.103.088.148-.045.28-.195.193-.39.112-.39-.163m2.561 2.134v-.813h-4.713v.813zm-3.391.945 1.045.548 1.035-.538c.563-.295 1.055-.559 1.086-.59s-.933-.06-2.131-.06l-.568.001c-.907.006-1.569.024-1.564.048v.002c.02.03.523.294 1.097.589m-15.44 6.98.07-.014c1.124-.212 1.635-.62 3.788-2.986l.137-.15q.148-.163.304-.327l.095-.097.064-.065c.798-.81 1.678-1.543 1.883-1.543.042 0-.264.345-.728.808l-.08.08-.126.123-.131.127c-1.654 1.64-2.604 3.15-2.364 3.751l.007.018c.067.151.31-.049 1.614-1.467l.42-.458c1.742-1.89 2.857-2.982 3.048-2.982.051 0-.246.356-.656.793l-.105.109c-1.677 1.75-2.33 2.71-2.343 3.424v.022c0 .696.323 1.148.376.532l.003-.044c.01-.174.103-.497.219-.73l.016-.032c.21-.409 1.072-1.578 2-2.722l.187-.228.075-.09q.196-.237.388-.464l.182-.213c.896-1.056.845-1.184-.219-.672-.697.346-1.906 1.443-3.678 3.363l-.243.26c-.49.52-.553.552-.32.197l.028-.04c.426-.597 2.169-2.595 2.779-3.16l.057-.055c.185-.18.401-.413.51-.562l.211-.298h-.235c-.133 0-.461.122-.748.265l-.074.038c-.776.405-1.122.701-3 2.603l-.235.236c-1.822 1.822-2.304 2.13-3.484 2.345-.83.142-1.383 0-1.834-.468-.524-.558-.661-1.254-.394-2.05l.015-.043c.358-1.056 1.485-1.849 2.633-1.859h.068c.492.003.569.044.833.336.462.508.37 1.36-.225 2.082-.4.488-.82.701-1.373.701-.584 0-.84-.152-.963-.558l-.092-.326-.01.285c-.02.67.512 1.036 1.444.965.692-.05 1.267-.392 1.733-1.035l.03-.042c.238-.325.313-.555.345-1.022l.01-.152c.03-.485-.004-.583-.253-.868-.369-.447-.82-.62-1.547-.62-1.496 0-2.592.62-3.094 1.727-.85 1.85.789 3.638 2.981 3.252m34.2 1.168h.072c.82 0 1.24-.234 1.567-.864.37-.721.174-1.219-.481-1.219-.359 0-.85.346-.85.59l.003.054c.007.088.016.083.074-.003l.035-.052c.164-.284.492-.416.666-.274.512.417-.256 1.615-1.055 1.615-.758 0-.84-.436-.277-1.564.373-.77.399-1.185.078-1.324l-.016-.007c-.123-.05.02-.142.47-.305.36-.122.739-.315.851-.416.277-.244.226-.691-.082-.732-.146-.02-.228.017-.235.1v.012c0 .248-.402.662-.9.918l-.083.042c-.643.32-.706.279-.347-.22l.077-.105c.446-.621.769-1.271.7-1.438-.031-.081-.175-.142-.329-.142-.357 0-1.291.906-2.448 2.366l-.191.243c-.51.644-.95 1.15-1.008 1.15-.062 0-.02-.122.072-.284l.083-.12c.15-.215.45-.636.76-1.071l.5-.695c.18-.249.335-.46.428-.585l.052-.07c.072-.09.01-.121-.256-.121h-.031c-.283.006-.384.093-.82.711l-.068.094c-.37.498-.503.613-.717.617h-.013c-.164 0-.277-.03-.256-.081l.04-.078c.465-.908.525-1.263.216-1.263-.257 0-.658.388-1.57 1.51l-.246.304c-.835 1.024-.99 1.182-1.078 1.107l-.006-.005c-.082-.082.113-.397 1.035-1.677l.253-.348c.594-.825.568-.844.331-.87a.43.43 0 0 0-.425.153l-.042.052c-.15.18-.161.17-.22-.023-.102-.315-.532-.254-1.28.203l-.065.04c-.684.42-.865.45-.786.174.031-.102 0-.285-.061-.407-.164-.294-.666-.274-1.23.04l-.072.042c-.215.12-.39.202-.41.192-.01-.02.339-.518.78-1.107l.799-1.087.81.203c.983.244 2.5.295 2.98.092.544-.224.677-.732.226-.854-.246-.06-.481.081-.266.163.23.089.206.324-.043.505l-.019.013c-.148.108-.44.159-.838.162h-.043c-.738 0-2.48-.365-2.48-.518 0-.06.195-.193.441-.294l.058-.027c.463-.221.215-.218-.455.008l-.125.042c-.458.152-.573.154-1.123.045l-.086-.018c-1.312-.274-2.439-.152-3.248.356-.632.398-.999.903-1.062 1.467l-.004.037c-.041.406-.01.508.205.71.535.502 1.659.37 2.319-.257l.027-.027c.44-.426.513-.873.205-1.148-.266-.243-.768-.213-1.004.051l-.195.214.277-.183c.39-.244.594-.143.594.315 0 .477-.512 1.005-1.076 1.117-.522.092-.706-.04-.747-.528-.082-1.057 1.209-1.87 2.94-1.87h.256c.962.004 1.02.051.492.668l-.205.237c-.367.423-.965 1.19-1.365 1.745l-.155.215c-.967 1.342-1.615 1.953-2.305 2.157l-.027.008c-.933.274-1.496-.01-1.496-.742 0-.498.307-.762.932-.833l.553-.061-.307-.132c-.697-.285-1.69.315-1.69 1.036 0 .732.635 1.057 1.926.965 1.017-.07 1.767-.483 2.415-1.327l.102-.135c.78-1.015 1.606-1.667 2.093-1.667h.033c.19.004.21.043.156.303l-.004.022c-.072.386-.236.59-.461.59-.297 0-1.179.477-1.476.792a1.3 1.3 0 0 0-.343.685l-.015.113c-.037.298-.004.357.205.441.645.295 1.598-.355 2.223-1.524l.031-.055c.177-.31.373-.554.44-.554.097 0 .066.127-.12.426l-.033.051c-.873 1.368-.41 2.328.624 1.332l.07-.069c.117-.113.125-.098.125.068 0 .112.072.254.154.325l.014.011c.234.172.55-.098 1.605-1.403l.179-.224c.792-.986 1.122-1.33 1.122-1.178 0 .072-.419.68-.9 1.322l-.047.064-.073.096-.123.16q-.186.242-.363.461l-.553.691h.348c.287 0 .386-.061.805-.63l.097-.132c.491-.67.594-.751.891-.762h.328l-.359.519c-.39.558-.44.812-.215.995.27.219.64-.068 1.576-1.213l.187-.229.154-.187c.906-1.09 1.797-2.018 1.946-2.018h.006c.086.014-.181.387-1.738 2.408l-.953 1.25h.39l.034-.002c.339-.013.414-.083.97-.811l.076-.102c.443-.584.602-.711.815-.711.41 0 .38.305-.123 1.036-.504.75-.532 1.145-.132 1.603l.02.023c.276.303.334.333.932.335m-16.101 6.588.025-.025c.267-.254.4-.498.41-.68.03-.61-.041-1.128-.215-1.596l-.195-.498 1.537-.71.605.263c1.69.752 4.446.762 5.922.02.543-.274 1.004-.74 1.106-1.127.082-.335-.225-.925-.615-1.168-.543-.325-1.547-.508-2.889-.508-1.414 0-2.47.213-4.129.853l-.189.073c-.691.265-.806.272-.938.15l-.017-.019c-.085-.096-.07-.146.15-.258l.036-.018.051-.025.19-.086c.799-.345 2.162-.762 3.053-.914l.332-.064c.36-.072.316-.08-.014-.089-.704-.01-2.268.245-3.207.533l-.116.036c-.435.13-.819.212-.868.183-.061-.03-.154-.315-.215-.63-.215-1.016.143-2.184 1.107-3.596l.085-.128c.489-.74.755-1.223.755-1.386 0-.05-.133-.102-.297-.102-.205 0-.451.143-.83.478-.29.257-.843.882-1.25 1.412l-.124.162c-.984 1.275-1.5 1.654-1.67 1.24-.092-.244.083-.457.482-.59.287-.09.359-.162.359-.365 0-.386-.308-.376-.717.03-.41.407-.502 1.006-.175 1.169.476.241 1.122-.262 1.978-1.52l.03-.045c.42-.62 1.271-1.564 1.415-1.564.049 0-.157.346-.455.778l-.037.055c-.85 1.23-1.086 1.808-1.138 2.774-.04.64 0 .934.164 1.412l.042.115c.1.281.162.497.153.515l-.166.08c-.15.07-.383.179-.643.296l-.78.345-1.085-.528c-1.48-.719-2.613-1.006-4.09-.997l-.08.001c-2.47.02-3.986.67-4.293 1.839-.264.954.354 1.879 1.537 2.332l.04.015c.3.115.966.257 1.514.324l.095.011c1.906.224 3.74-.142 6.322-1.28l.198-.084c.661-.276.917-.346 1.01-.272.073.061.134.153.134.193 0 .193-2.746 1.27-3.627 1.413l-.522.091.768.01c.973.01 1.875-.183 2.95-.63l.851-.365.113.274c.06.147.128.541.151.898l.003.037c.03.538 0 .72-.175.995-.389.62-1.106.732-1.803.275l-.034-.021c-.118-.069-.212-.109-.212-.081 0 .03.202.183.457.34l.025.015c.695.44 1.153.418 1.655-.066m-2.321-9.494c.178-.284.45-.559.645-.66l.02-.01c.339-.163.513-.498.4-.793-.071-.183-.286-.203-.245-.03.04.233-.123.67-.277.731-.087.029-.147.003-.153-.068v-.013c0-.224-.329-.295-.503-.112-.128.117-.133.188-.042.337l.03.047c.164.27.128.327-.377.896-.492.529-1.281 1.108-1.537 1.108-.205 0-.154-.417.113-.884.597-1.044 1.675-2 2.155-1.933l.017.002c.164.031.235 0 .215-.07-.113-.326-1.025-.112-1.742.406-.266.193-.727.68-1.035 1.087l-.082.108c-.856 1.124-1.414 1.504-1.493 1.015l-.003-.016c-.028-.175.139-.392.752-.985l.339-.325c.654-.63.838-.867.816-1.038v-.009c-.04-.297-.286-.45-.613-.372l-.023.006c-.369.09-.912.601-1.846 1.704l-.229.271q-.958 1.13-.958.86c0-.03.44-.67.973-1.402l.265-.37c.407-.57.709-1.009.709-1.042 0-.03-.123-.061-.277-.061l-.027.002c-.207.018-.35.145-.692.613l-.224.31c-.335.457-.41.496-.728.497h-.419l.205-.264c.225-.295.44-.935.359-1.077-.11-.18-.369-.066-.765.36l-.163.176-.09.095-.026.026-.03.029c-.151.137-.186.092-.3-.056-.102-.132-.225-.193-.327-.152-.25.099-.324.372-.138.517l.037.028c.13.099.11.141-.084.44-.604.864-1.485 1.585-1.803 1.463-.236-.091-.164-.386.225-1.036.636-1.057 1.558-1.85 2.009-1.738.123.041.184.01.153-.06-.05-.183-.573-.183-1.065-.01-.892.314-1.978 1.625-1.978 2.377 0 .69.677.863 1.435.365.228-.147.61-.551.875-.909l.093-.127.09-.12c.21-.28.412-.53.5-.613l.074-.067c.118-.11.306-.288.458-.44l.059-.054c.163-.149.314-.27.35-.27h.008c.105.017-.151.402-1.073 1.564l-.15.19c-.44.557-.772 1.012-.772 1.04 0 .03.123.05.287.05.217-.01.368-.132.782-.696l.097-.133c.46-.619.555-.695.852-.695l.09.001c.142.003.249.011.249.02 0 .02-.113.254-.257.528l-.046.094c-.241.488-.249.61-.069.797l.037.038c.219.211.426.068 1.33-1.011l.152-.182c.84-1.006 1.598-1.707 1.844-1.707.041 0 .082.091.082.193 0 .122-.317.447-.799.853l-.078.065c-.766.642-1.027 1.043-.931 1.459l.005.02c.131.532.72.49 1.258-.067l.023-.024c.26-.278.433-.342.411-.155l-.001.013c-.041.315.02.488.215.59.522.274 1.68-.478 2.377-1.535m11.374-.405.075-.106c.602-.833 1.032-1.083 1.112-.657.05.22-.616 1.24-1.273 1.96l-.028.031c-.953 1.056-.863.14.114-1.228m-3.188 1.838c-.19 0-.243-.271-.122-.577l.01-.023c.205-.508 1.014-1.127 1.465-1.127h.018c.133.006.104.087-.151.457l-.042.059c-.41.575-1.02 1.21-1.178 1.21m-16.895 4.785c-.38-.67-.236-1.392.369-1.819.83-.589 2.735-.843 4.682-.63.512.061 1.27.204 1.69.315q.227.06.467.139l.073.024.074.024c.682.232 1.333.523 1.333.616 0 .095-1.106.583-2.266 1.043l-.287.112c-.854.332-1.69.63-2.088.725a9 9 0 0 1-1.455.162l-.264.004c-.47.01-.471.028-.211.104l.014.004c.504.15 2.101.034 3.08-.212l.095-.024c.355-.094 1.04-.328 1.734-.586l.104-.04q.25-.093.492-.188l.653-.259c.963-.376 1.162-.418 1.278-.318l.013.011.02.021c.097.109.031.168-.423.381l-.12.056c-2.358 1.094-3.987 1.553-5.636 1.574h-.06c-1.783.02-2.88-.386-3.361-1.239m15.43.213-.085-.01c-.897-.12-1.99-.422-2.18-.61-.05-.05.596-.362 1.327-.668l.108-.045.073-.03.183-.074.073-.029c.315-.125.625-.24.88-.322.584-.183 1.65-.355 2.254-.376l.41-.01-.512-.091c-1.031-.17-2.89.183-4.533.856l-.323.133c-.672.274-.77.28-.909.115l-.014-.017c-.1-.118.052-.208.855-.519l.078-.03c.952-.368 2.208-.735 2.953-.856l.049-.007c.126-.023.486-.034.901-.035h.079l.16.001h.08l.163.003.202.006c.705.024 1.021.08 1.406.248.595.264.85.569.85 1.016 0 .904-2.386 1.615-4.528 1.351m-5.585-1.134-.082-.038c-.188-.09-.13-.123.513-.423l.073-.032c.445-.198.69-.259.778-.191.061.05.123.132.123.172 0 .051-.267.204-.584.356l-.068.03c-.425.186-.564.207-.753.126m.729.769-.02-.028c-.098-.15-.043-.2.47-.45l.26-.125c.382-.18.424-.181.52-.088l.04.04c.154.152.167.21-.16.377l-.068.033-.06.029-.214.1-.148.072c-.461.221-.49.206-.62.04m-9.97 12.415c-.153-.092-.287-.092-.625.02l-.07.022c-.442.13-.544.02-.544-.54 0-.762 1.004-1.697 2.336-2.184l.748-.275-.615-.294c-.933-.447-1.547-1.25-1.547-2.042 0-.508.112-.57.717-.366.246.091.461.091.86-.01l.08-.019c.66-.145.821-.016 1.324.933.277.538.605.975.953 1.29l.523.468-.513-.072a4.6 4.6 0 0 1-1.915-.804l-.095-.072c-.268-.199-.368-.233-.31-.128l.005.009c.113.203.778.813 1.086.995l.03.017c.139.08.088.128-.297.309-.58.277-1.19.788-1.447 1.219l-.08.139c-.123.22-.062.171.37-.22.276-.255.666-.56.86-.681.338-.203 1.435-.57 1.496-.508.02.02-.235.223-.563.457-.564.406-1.179 1.087-1.855 2.022l-.038.053c-.3.41-.54.476-.874.262m12.859-.665-.02-.036c-.43-.793-1.148-1.646-1.61-1.92l-.286-.173.266-.051c.393-.08 1.332.41 1.957 1.016l.154.152c.332.323.386.341.266.122-.256-.508-.86-1.127-1.26-1.32l-.108-.051c-.26-.126-.249-.15-.066-.295.277-.223.748-.863.748-1.016 0-.071-.205.081-.461.346-.543.548-1.168.853-1.732.863h-.41l.318-.335c.368-.385.65-.914.872-1.652l.038-.128c.194-.634.363-.73.908-.526l.026.01c.205.081.451.07.871-.02l.063-.013c.735-.143.888-.01.808.642q-.124.99-.922 1.677l-.45.386.604.284c.85.396 1.567 1.097 1.823 1.768l.024.063c.33.902.196 1.12-.526.902-.273-.077-.463-.08-.685-.01l-.081.027c-.5.165-.716.024-1.13-.712m-1.506.685c-.246-.102-.42-.102-.871-.01l-.062.014c-.28.06-.58.085-.676.057-.266-.091-.43-.488-.43-1.057a4 4 0 0 0-.19-.995l-.015-.04c-.144-.397-.195-.834-.205-1.505v-.099a6 6 0 0 0-.03-.595l-.006-.04c-.017-.127-.04-.2-.066-.2-.06 0-.101.35-.103.859v.137c-.006.552-.054.895-.155 1.108l-.009.02c-.092.182-.205.66-.266 1.056l-.05.354c-.107.744-.149.832-.333.932l-.027.014c-.164.092-.348.081-.748-.01-.42-.102-.615-.102-.912 0l-.054.017c-.488.149-.622.048-.622-.413 0-.854.982-2.185 1.776-2.401l.066-.017c.35-.084.35.035.023.447-.175.213-.349.518-.38.69l-.016.068c-.044.184-.007.156.187-.137l.055-.083c.157-.243.446-.543.65-.692l.132-.094c.156-.111.273-.205.273-.23-.01-.03-.184-.172-.41-.325-.768-.528-1.198-1.94-.748-2.438l.021-.022c.184-.192.324-.197 1.045-.06.4.082.768.072 1.301-.01l.174-.028c.51-.08.602-.058.769.09.287.253.266.975-.041 1.625-.256.538-.45.762-.912.996l-.287.152.512.356c.287.203.605.538.718.751l.022.042c.102.186.183.279.193.212 0-.182-.297-.741-.543-1.005l-.028-.033c-.25-.297-.11-.356.356-.15.778.345 1.434 1.29 1.526 2.194l.005.055c.037.532-.113.64-.61.443m-14.818.01-.029-.01c-.294-.097-.448-.101-.73-.012l-.038.012c-.556.18-.633.035-.34-.612l.012-.028c.28-.616.914-1.35 1.45-1.695l.036-.022c.194-.122.635-.315.973-.437l.615-.223-.553-.315c-1.141-.641-1.814-1.43-1.834-2.123v-.138c0-.2.028-.213.357-.136l.206.05c.328.081.543.081.81-.01.205-.061.45-.092.553-.061.102.03.369.365.584.751.471.783 1.086 1.443 1.65 1.738l.053.028c.412.217.211.228-.576.033-.666-.173-1.107-.417-1.527-.823l-.045-.046c-.26-.255-.286-.177-.048.16l.042.059c.113.162.44.426.717.589l.502.284-.512.224c-.522.239-1.29.898-1.524 1.316l-.013.025c-.102.193-.04.162.267-.122a7 7 0 0 1 .911-.68c.172-.1.4-.21.631-.307l.066-.028.09-.037c.42-.167.814-.283.863-.228.03.02-.195.183-.492.355-.6.338-1.28 1.005-1.836 1.823l-.039.057c-.433.65-.688.768-1.252.588m5.566-.081c-.123-.315.256-1.24.717-1.748.423-.469 1.46-1.105 1.816-1.127h.018c.123 0 .03-.132-.297-.417-.553-.487-.86-1.016-.953-1.666l-.007-.056c-.074-.673.15-.812.909-.584.307.081.491.081.809-.01.606-.177.778-.088.966.52l.018.059c.225.762.563 1.432.912 1.778l.286.274h-.4c-.583-.01-1.208-.325-1.792-.935l-.037-.039c-.252-.261-.434-.387-.406-.302l.002.006c.123.325.666 1.047.84 1.118.113.04.031.132-.297.345-.46.285-.963.843-1.219 1.331l-.009.019c-.06.134.105.018.43-.314.593-.589 1.608-1.137 1.936-1.056l.024.007c.12.04.119.079-.066.218l-.033.025-.12.085c-.5.366-.998.974-1.46 1.794l-.036.065c-.414.74-.629.87-1.182.7l-.027-.009c-.246-.081-.43-.091-.625-.01-.4.152-.646.122-.717-.071m19.897.122-.054-.013c-.298-.068-.515-.066-1.298-.018l-.07.005c-.334.02-.386-.04-.924-.746l-.069-.089c-.634-.81-1.423-1.554-1.868-1.75-.286-.122-.41-.285-.225-.285.051 0 .359.092.697.204.656.226 1.148.52 1.748 1.048l.055.049c.338.294.4.325.287.132-.215-.417-.963-1.067-1.516-1.32l-.533-.245.502-.284c.44-.254.932-.752.932-.955 0-.04-.215.112-.471.345-.458.395-1.032.646-1.769.762l-.475.071.4-.213c.553-.305 1.188-.975 1.588-1.656l.063-.108c.406-.69.54-.796.876-.723l.034.008c.174.04.461.081.625.081.174 0 .461-.03.646-.081l.076-.017c.243-.052.251-.027.251.26 0 .712-.696 1.525-1.895 2.195l-.564.315.43.132c.708.204 1.21.498 1.784 1.037.543.508 1.065 1.361 1.065 1.737 0 .173-.04.183-.328.122m-3.893-.061c-.164-.081-.308-.081-.594.01-.236.071-.451.091-.543.04-.077-.047-.386-.405-.703-.825l-.066-.089c-.543-.731-1.527-1.666-1.885-1.798-.072-.02-.103-.071-.072-.112.082-.091 1.107.224 1.527.478l.044.029c.19.125.506.373.756.596l.254.23c.28.25.28.225.14-.018l-.026-.045c-.246-.437-.871-.965-1.465-1.25l-.095-.045c-.319-.155-.331-.196-.172-.28.3-.178.944-.764 1.078-.98l.008-.015c.072-.122-.04-.081-.348.152a4.6 4.6 0 0 1-1.967.843l-.513.072.523-.468c.348-.315.676-.752.953-1.29l.052-.095c.222-.4.457-.763.552-.82.103-.06.328-.07.533-.04.195.04.543.071.769.06l.197-.009.284-.016.236-.015.078-.007c.197-.016.225.014.229.32v.175c-.01.396-.072.63-.287.945-.348.518-.994.985-1.547 1.138l-.41.111.728.275.108.042c.866.344 1.254.599 1.746 1.126.82.884.748 2.022-.102 1.575m-9.457-1.93c.113-.478.256-.163.246.518l-.004.103c-.013.28-.042.583-.078.71-.113.355-.256-.895-.164-1.331"/></svg>