<svg xmlns="http://www.w3.org/2000/svg" width="48" height="48" viewBox="0 0 48 48" fill="currentColor"><path d="M19.364 17.251c2.865 0 3.877 2.277 2.36 4.391l-.675 .975c4.889 2.278 3.204 8.133 -1.853 8.133h-5.899v-13.499h6.067zm-11.797 0c2.865 0 3.877 2.277 2.36 4.391l-.675 .975c4.888 2.278 3.203 8.133 -1.853 8.133h-5.899v-13.499h6.067zm33.035 -.001c1.01 0 1.18 .325 1.684 1.301l4.214 12.199h-3.876l-.842 -2.928h-5.057l-1.011 2.928h-2.192l4.383 -13.499h2.697zm-13.314 1.79l2.528 8.455l3.202 -10.245h2.19l-4.213 13.499h-3.37l-4.552 -13.499h2.528c.843 0 1.18 .162 1.686 1.79zm-8.935 0h-1.685v9.92h.843c1.685 0 3.034 -.813 3.034 -2.928c0 -1.624 -.843 -2.602 -2.023 -2.764l1.18 -1.79c.168 -.324 .337 -.65 .337 -.975c0 -.813 -.843 -1.464 -1.686 -1.464zm-11.798 0h-1.685v9.92h.842c1.686 0 3.035 -.813 3.035 -2.928c0 -1.624 -.843 -2.602 -2.023 -2.764l1.18 -1.79c.168 -.324 .337 -.65 .337 -.975c0 -.813 -.843 -1.464 -1.686 -1.464zm30.675 6.829h3.877l-1.855 -6.18l-2.022 6.18z"/></svg>