<svg xmlns="http://www.w3.org/2000/svg" width="48" height="48" viewBox="0 0 48 48" fill="currentColor"><path d="M38.07 25.33l.756 2.413c2.866 9.047 -3.781 18.257 -13.174 18.257h-3.065l-18.587 -.241l7.323 -8.124h13.732c.955 0 1.91 -.16 2.826 -.442c4.736 -1.448 8.398 -5.268 9.711 -10.094l.478 -1.77zm-14.09 -13.23c6.22 0 11.264 5.095 11.264 11.38c0 6.285 -5.043 11.38 -11.264 11.38c-6.22 0 -11.264 -5.095 -11.264 -11.38c0 -6.285 5.043 -11.38 11.264 -11.38zm1.473 -11.1l18.547 .282l-7.323 8.083h-13.692c-.955 0 -1.91 .16 -2.826 .442c-4.736 1.448 -8.398 5.268 -9.711 10.094l-.478 1.77l-.756 -2.414c-2.866 -9.047 3.781 -18.257 13.174 -18.257h3.065z"/></svg>