<svg xmlns="http://www.w3.org/2000/svg" width="48" height="48" viewBox="0 0 48 48" fill="currentColor"><path d="M25.224 1.799c.436 .268 .606 .697 .626 1.191c.013 .279 -.002 .56 .007 .838c.012 .37 .054 .74 .17 1.093c.058 .184 .138 .367 .242 .53c.174 .274 .425 .364 .72 .295c.283 -.065 .461 -.274 .503 -.599c.04 -.301 .009 -.599 -.06 -.894a7.495 7.495 0 0 0 -.135 -.484a1.052 1.052 0 0 1 .166 -.99c.205 -.28 .446 -.52 .787 -.63c.304 -.099 .597 -.05 .871 .096a9.8 9.8 0 0 1 .809 .482c.825 .55 1.591 1.179 2.36 1.807c.226 .184 .452 .37 .687 .559c-.07 .218 -.262 .167 -.442 .2c.127 .466 .324 .887 .624 1.285c-.296 .077 -.56 .031 -.821 -.042c-.017 .352 .337 1.074 .79 1.61c-.229 .031 -.438 -.008 -.646 -.027c-.211 -.019 -.423 -.065 -.663 -.105a18.84 18.84 0 0 0 3.513 4.448l-.178 .025c.097 .12 .183 .23 .273 .333a.48 .48 0 0 0 .142 .117c1.436 .74 2.425 1.9 3.135 3.321a7.51 7.51 0 0 1 .741 2.367c.03 .222 .042 .444 .06 .666c.005 .067 .007 .136 .011 .217l.151 -.056c.341 -.128 .676 -.009 .812 .333c.11 .27 .185 .557 .24 .842c.15 .774 .227 1.56 .26 2.347c.045 1.024 .093 2.05 .1 3.074a30.242 30.242 0 0 1 -.156 3.428c-.06 .561 -.134 1.122 -.286 1.669a2.271 2.271 0 0 1 -.36 .75a122.37 122.37 0 0 1 -5.162 6.592c-.22 .261 -.453 .513 -.681 .768c-.036 .04 -.071 .082 -.132 .155c.256 -.04 .47 -.084 .687 -.103c.955 -.085 1.849 .093 2.647 .645c.48 .331 .84 .763 .984 1.336c.157 .62 .033 1.2 -.36 1.7c-.75 .956 -1.508 1.904 -2.279 2.842c-.314 .381 -.751 .576 -1.235 .645c-.536 .076 -1.047 -.019 -1.5 -.326c-1.178 -.802 -2.477 -1.334 -3.844 -1.707a16.038 16.038 0 0 0 -3.252 -.557a29.291 29.291 0 0 0 -3.237 -.036a20.07 20.07 0 0 0 -1.87 .166c-1.795 .262 -3.518 .754 -5.112 1.637c-.28 .155 -.549 .333 -.819 .507a2.171 2.171 0 0 1 -2.492 -.11a1.777 1.777 0 0 1 -.282 -.28c-.62 -.772 -1.236 -1.549 -1.856 -2.324c-.092 -.115 -.186 -.226 -.28 -.337c-.695 -.83 -.685 -1.897 .033 -2.71c.5 -.565 1.148 -.875 1.877 -1.028a4.11 4.11 0 0 1 1.622 -.014c.028 .004 .055 .004 .1 .006c-.022 -.04 -.033 -.071 -.054 -.094c-1.317 -1.456 -2.523 -3.003 -3.725 -4.553c-.662 -.854 -1.296 -1.732 -1.964 -2.582c-.362 -.46 -.553 -.976 -.653 -1.541a19.726 19.726 0 0 1 -.247 -2.245a43.428 43.428 0 0 1 -.038 -3.976c.035 -1.158 .102 -2.314 .287 -3.46c.046 -.289 .115 -.573 .184 -.858c.023 -.1 .065 -.2 .111 -.293a.618 .618 0 0 1 .871 -.275c.084 .044 .161 .103 .268 .17c.004 -.09 .013 -.157 .013 -.224c-.007 -2.09 1.225 -4.634 3.076 -5.977a5.901 5.901 0 0 1 1.73 -.873c.027 -.008 .052 -.019 .106 -.037c-.077 -.024 -.13 -.038 -.205 -.06c1.28 -1.373 2.163 -2.945 2.628 -4.78h-.674c.322 -.375 .574 -.735 .559 -1.229l-.601 -.199c.232 -.373 .475 -.714 .59 -1.135c-.286 -.052 -.596 -.063 -.636 -.46c.08 -.022 .15 -.042 .224 -.06a5.055 5.055 0 0 0 2.069 -1.009a7.88 7.88 0 0 1 2.927 -1.484c.113 -.03 .233 -.048 .35 -.059c.306 -.03 .46 .059 .515 .36c.065 .348 .09 .704 .12 1.058c.027 .333 .03 .668 .05 1.003c.014 .26 .09 .494 .305 .662c.17 .131 .331 .28 .52 .383c.295 .159 .563 .098 .798 -.145c.301 -.324 .379 -.72 .339 -1.145a2.4 2.4 0 0 0 -.26 -.878a.6 .6 0 0 0 -.402 -.337c-.203 -.05 -.406 -.096 -.61 -.144c-.045 -.01 -.09 -.023 -.131 -.034c-.002 -.019 -.006 -.027 -.004 -.031c.316 -.507 .718 -.938 1.27 -1.175c.575 -.245 1.155 -.174 1.684 .153zm-2.946 38.384c-.844 .014 -1.681 .13 -2.517 .261a21.311 21.311 0 0 0 -5.346 1.556a20.63 20.63 0 0 0 -2.063 1.064c-.347 .203 -.714 .314 -1.145 .193c.088 .222 .232 .3 .438 .266c.048 -.009 .096 -.015 .144 -.025c.28 -.055 .52 -.197 .762 -.335c2.92 -1.665 6.08 -2.507 9.415 -2.74c.262 -.018 .528 .007 .79 -.014a22.07 22.07 0 0 1 2.906 -.021c.228 .013 .459 -.01 .685 .006c.542 .042 1.082 .094 1.625 .153c.86 .094 1.708 .25 2.552 .446c1.692 .394 3.313 .982 4.859 1.778c.052 .027 .108 .046 .163 .07a.176 .176 0 0 0 -.088 -.091c-.402 -.207 -.8 -.425 -1.21 -.616c-2.499 -1.158 -5.137 -1.757 -7.876 -1.935c-.25 -.016 -.5 .013 -.748 -.01c-1.118 -.111 -2.232 -.027 -3.346 -.006zm13.844 2.975c.213 .16 .408 .245 .613 .31c.247 .08 .285 .059 .413 -.182c-.16 .004 -.327 .027 -.488 .008c-.165 -.018 -.327 -.08 -.538 -.136zm-2.961 -2.257c.031 .025 .044 .044 .063 .05c.998 .37 1.918 .894 2.816 1.46c.247 .155 .522 .234 .81 .247c.465 .02 .924 -.251 1.085 -.643c.015 -.036 .013 -.08 .02 -.117a.168 .168 0 0 0 -.072 .065c-.224 .362 -.553 .534 -.976 .54a1.68 1.68 0 0 1 -.928 -.279a17.3 17.3 0 0 0 -1.922 -1.055c-.22 -.103 -.448 -.193 -.674 -.285c-.065 -.027 -.138 -.071 -.222 .017zm-18.3 -.285l.144 .189c-.22 .09 -.414 .165 -.605 .249c-.76 .333 -1.484 .735 -2.186 1.177c-.396 .247 -.819 .339 -1.277 .222c-.021 -.007 -.046 0 -.113 0c.155 .115 .29 .159 .433 .184c.398 .065 .762 -.031 1.097 -.24c.888 -.556 1.793 -1.073 2.78 -1.44c.024 -.008 .045 -.027 .066 -.041c-.117 -.19 -.197 -.262 -.339 -.3zm-6.605 -20.03a.43 .43 0 0 0 -.121 .183c-.12 .316 -.19 .643 -.203 .978c-.025 .62 -.053 1.242 -.065 1.861c-.038 1.85 -.046 3.698 .031 5.545c.015 .375 .044 .754 .1 1.125c.108 .691 .388 1.321 .744 1.92c.459 .77 1.024 1.462 1.621 2.13a849.513 849.513 0 0 0 3.903 4.345c.327 .362 .675 .708 1.033 1.039c.192 .178 .423 .318 .649 .452a.88 .88 0 0 0 .689 .088a2.811 2.811 0 0 0 1.015 -.524a.935 .935 0 0 0 .33 -.584c-.085 .065 -.194 .166 -.32 .237c-.259 .148 -.52 .295 -.795 .414a.89 .89 0 0 1 -.808 -.048a3.205 3.205 0 0 1 -.584 -.4c-.34 -.31 -.67 -.632 -.98 -.974c-.595 -.655 -1.169 -1.331 -1.76 -1.99c-.783 -.874 -1.58 -1.733 -2.36 -2.608c-.575 -.647 -1.11 -1.328 -1.539 -2.084c-.393 -.693 -.663 -1.43 -.716 -2.232a29.952 29.952 0 0 1 -.08 -1.985c0 -1.78 .02 -3.558 .04 -5.338c.005 -.347 .04 -.695 .076 -1.043c.017 -.17 .065 -.337 .1 -.506zm31.76 .047c-.016 .006 -.035 .01 -.052 .017l.021 .119c.034 .193 .086 .383 .095 .576c.035 .739 .069 1.478 .077 2.215c.023 1.738 .036 3.474 -.038 5.21c-.016 .39 -.044 .781 -.104 1.167c-.113 .735 -.423 1.396 -.813 2.025a13.117 13.117 0 0 1 -1.365 1.798a1341.72 1341.72 0 0 1 -4.063 4.538c-.28 .31 -.571 .614 -.877 .896a4.557 4.557 0 0 1 -.683 .515a.972 .972 0 0 1 -.96 .06c-.38 -.173 -.771 -.33 -1.031 -.736c-.006 .065 -.015 .09 -.009 .113c.078 .293 .225 .543 .493 .7c.167 .098 .34 .19 .515 .28c.437 .228 .862 .197 1.262 -.088c.22 -.157 .442 -.322 .63 -.515c.447 -.452 .878 -.917 1.305 -1.388c.66 -.731 1.307 -1.47 1.962 -2.205c.679 -.76 1.368 -1.51 2.036 -2.28c.49 -.566 .92 -1.178 1.263 -1.843c.316 -.614 .534 -1.259 .584 -1.95c.037 -.528 .065 -1.06 .075 -1.59c.04 -2.028 .032 -4.06 -.04 -6.089c-.014 -.404 -.033 -.808 -.157 -1.2c-.037 -.115 -.083 -.23 -.125 -.345zm-21.982 15.014c.021 .063 .04 .128 .063 .19c.239 .662 .444 1.337 .58 2.028c.111 .57 .176 1.143 .145 1.725c-.009 .136 -.03 .272 -.046 .417c.626 -.082 1.229 -.174 1.838 -.239c.61 -.065 1.221 -.107 1.83 -.157a7.366 7.366 0 0 1 -2.592 -1.547c-.758 -.691 -1.342 -1.51 -1.818 -2.417zm11.614 1.646c-.82 1.19 -1.954 1.922 -3.365 2.322c1.09 .124 2.13 .239 3.185 .358c-.12 -.902 .002 -1.788 .18 -2.68zm-14.85 -24.666c-1.123 .208 -2.076 .752 -2.912 1.52c-.599 .551 -1.099 1.188 -1.593 1.829c-.237 .305 -.421 .64 -.561 1c-.31 .798 -.423 1.63 -.446 2.48c-.009 .341 .016 .68 .075 1.02c.073 .41 .098 .831 .18 1.241c.197 .991 .561 1.912 1.192 2.716c.789 1.006 1.796 1.724 2.958 2.235c.377 .165 .763 .31 1.175 .364c.124 .017 .247 .03 .373 .044c.031 .15 .059 .287 .09 .421c.412 1.7 .825 3.4 1.242 5.101c.023 .092 .069 .182 .113 .268l.902 1.747c.025 .05 .055 .1 .08 .15c-.063 -.354 -.163 -.695 -.21 -1.045a5.792 5.792 0 0 1 -.048 -1.042c.017 -.354 .082 -.706 .149 -1.054a3.67 3.67 0 0 1 .335 -.984c-.161 .515 -.178 1.047 -.176 1.575c0 .726 .086 1.449 .239 2.159c.234 1.093 .69 2.077 1.478 2.885a7.656 7.656 0 0 0 3.814 2.147c.609 .142 1.229 .205 1.844 .044a21.791 21.791 0 0 0 1.583 -.47c.765 -.261 1.473 -.638 2.078 -1.182c.626 -.564 1.124 -1.217 1.396 -2.027c.093 -.277 .218 -.543 .325 -.817c.048 -.124 .092 -.25 .121 -.377a5.084 5.084 0 0 0 -.152 -2.846c-.176 -.513 -.402 -1.01 -.603 -1.514c-.45 -1.12 -.899 -2.238 -1.347 -3.359c-.012 -.029 -.015 -.063 -.023 -.096c.31 -.002 2.058 .222 2.136 .264h-1.71c.27 .66 .531 1.3 .81 1.977c.058 -.093 .098 -.155 .14 -.218c.37 -.54 .741 -1.083 1.116 -1.621c.036 -.052 .1 -.115 .153 -.117c.199 -.004 .4 .014 .59 .023a.262 .262 0 0 1 -.026 .279l-.064 .085a20.618 20.618 0 0 0 -1.319 1.937c-.08 .132 -.16 .262 -.325 .312l.067 .189c.248 .718 .499 1.436 .738 2.156c.165 .505 .28 1.022 .276 1.56c0 .021 .019 .042 .034 .078c.295 -.524 .611 -1.011 .695 -1.602c.01 -.082 .042 -.161 .06 -.243c.348 -1.436 .696 -2.873 1.041 -4.31c.034 -.14 .06 -.282 .094 -.43c.074 -.011 .137 -.015 .195 -.028c.226 -.042 .459 -.06 .677 -.132c1.899 -.622 3.344 -1.807 4.351 -3.53c.031 -.053 .046 -.116 .063 -.174c.025 -.092 .033 -.19 .065 -.28a8.312 8.312 0 0 0 .504 -2.26c.02 -.218 .076 -.404 .189 -.587a.54 .54 0 0 0 .081 -.251a7.775 7.775 0 0 0 -.17 -1.956c-.135 -.618 -.33 -1.214 -.705 -1.732a15.41 15.41 0 0 0 -1.342 -1.633c-.595 -.62 -1.263 -1.141 -2.05 -1.497c-.949 -.432 -1.95 -.56 -2.982 -.507c-1.129 .059 -2.142 .43 -3.024 1.133a9.68 9.68 0 0 0 -.91 .833a234.95 234.95 0 0 0 -2.442 2.561a18.79 18.79 0 0 0 -.782 .9a1.283 1.283 0 0 0 -.276 .6c-.054 .28 -.077 .559 -.084 .846c-.008 .429 .153 .613 .578 .594c.027 -.002 .057 -.002 .084 -.006c.325 -.044 .651 -.077 .974 -.132c.701 -.12 1.396 -.264 2.083 -.458a.822 .822 0 0 0 .587 -.547c.146 -.408 .268 -.82 .243 -1.265a1.784 1.784 0 0 1 .194 -.89a3.08 3.08 0 0 1 .786 -1.022a5.077 5.077 0 0 1 1.849 -.992c.452 -.134 .913 -.15 1.354 .042c.551 .238 1.085 .515 1.563 .883c.806 .622 1.417 1.389 1.692 2.381c.26 .938 .408 1.895 .358 2.875a3.8 3.8 0 0 1 -.298 1.343c-.08 .184 -.16 .38 -.289 .53a4.26 4.26 0 0 1 -1.478 1.145c-.792 .362 -1.608 .36 -2.435 .147a5.6 5.6 0 0 1 -1.46 -.616c-.063 -.038 -.117 -.103 -.207 -.048c-.197 .12 -.417 .207 -.59 .354c-.443 .372 -.87 .766 -1.29 1.162c-.158 .146 -.288 .322 -.422 .492c-.081 .105 -.136 .222 -.109 .368c.013 .065 -.03 .14 -.054 .235a62.14 62.14 0 0 1 -.513 -.396c.094 -.29 .274 -.496 .47 -.685c.32 -.31 .657 -.603 .985 -.906c.189 -.176 .392 -.344 .553 -.543c.37 -.46 .871 -.586 1.433 -.55c.194 .012 .4 .052 .534 .21c.226 .263 .523 .39 .848 .46c1.15 .243 2.186 -.02 3.107 -.737c.266 -.208 .46 -.484 .62 -.783c.276 -.524 .39 -1.087 .415 -1.672c.033 -.795 -.105 -1.57 -.327 -2.33a3.72 3.72 0 0 0 -.83 -1.485c-.722 -.79 -1.616 -1.267 -2.663 -1.472c-.52 -.103 -1.028 -.086 -1.508 .17c-.802 .427 -1.424 1.045 -1.897 1.815a.835 .835 0 0 0 -.12 .582c.043 .277 .087 .551 .114 .83c.054 .515 -.136 .84 -.61 1.049a3.432 3.432 0 0 1 -.473 .167c-1.055 .293 -2.134 .417 -3.225 .459c-.28 .01 -.559 .019 -.772 -.218c-.164 .186 -.365 .224 -.58 .222a15.129 15.129 0 0 1 -2.64 -.279c-.413 -.077 -.822 -.17 -1.207 -.337c-.488 -.21 -.668 -.48 -.64 -1.009c.014 -.27 .062 -.54 .108 -.808c.04 -.245 .017 -.478 -.128 -.68c-.199 -.277 -.395 -.558 -.624 -.813a4.188 4.188 0 0 0 -1.283 -.993a2.011 2.011 0 0 0 -1.054 -.21c-.785 .057 -1.497 .319 -2.154 .738c-.928 .588 -1.563 1.4 -1.826 2.481c-.05 .203 -.103 .406 -.143 .612c-.149 .78 -.195 1.564 -.017 2.347c.16 .695 .472 1.307 1.06 1.728c.869 .622 1.84 .85 2.896 .649c.352 -.067 .687 -.19 .928 -.486a.472 .472 0 0 1 .174 -.113c.496 -.226 1.312 -.078 1.673 .33c.312 .353 .666 .656 1.011 .972c.268 .245 .526 .5 .785 .752c.32 .308 .41 .683 .323 1.112c-.015 .073 -.017 .149 -.025 .222c.217 .1 .345 .27 .423 .467c.165 .421 .314 .848 .467 1.275c.113 .314 .2 .641 .339 .945c.27 .59 .16 1.126 -.176 1.644a.55 .55 0 0 1 -.31 .236a.88 .88 0 0 0 -.427 .291a3.694 3.694 0 0 0 -.381 .522c-.358 .63 -.49 1.315 -.457 2.033c.042 .93 .471 1.646 1.21 2.192c.375 .277 .788 .476 1.224 .633c.029 .006 .064 .01 .142 .025v-.528c.019 -2.058 .019 -4.115 .12 -6.173c.058 -1.204 .008 -2.414 .01 -3.62a.713 .713 0 0 0 -.153 -.444c-.358 -.474 -.706 -.955 -1.068 -1.424c-.226 -.294 -.473 -.568 -.712 -.85a.941 .941 0 0 0 -.507 -.31a6.665 6.665 0 0 1 -2.023 -.937a178.86 178.86 0 0 0 -2.36 -1.591a337.02 337.02 0 0 0 -2.31 -1.516c-.144 -.094 -.297 -.176 -.452 -.266c.036 -.145 .07 -.276 .107 -.434c.122 .057 .224 .097 .318 .153c.403 .239 .807 .471 1.198 .727c.656 .427 1.3 .869 1.95 1.305c.672 .45 1.35 .892 2.016 1.354a4.698 4.698 0 0 0 1.61 .725c.288 .067 .543 .176 .74 .404c.123 .142 .264 .27 .379 .419c.521 .674 1.034 1.35 1.55 2.029c.13 .172 .188 .369 .19 .586c.01 .614 .031 1.227 .036 1.843c.004 .586 .004 1.173 -.015 1.76c-.021 .64 -.086 1.28 -.098 1.921c-.028 1.542 -.036 3.085 -.053 4.626c-.002 .124 -.012 .247 -.019 .39c.608 .146 1.202 .272 1.826 .075c-.115 .002 -.13 -.065 -.134 -.147c-.012 -.23 -.037 -.458 -.048 -.688c-.044 -.991 -.098 -1.98 -.121 -2.97c-.015 -.655 .012 -1.31 .027 -1.966c.031 -1.284 .067 -2.567 .103 -3.851c.01 -.35 .02 -.697 .033 -1.047c.008 -.274 .09 -.517 .274 -.729c.704 -.817 1.405 -1.629 2.107 -2.446a.816 .816 0 0 1 .413 -.27c.194 -.052 .389 -.113 .586 -.159c.207 -.048 .394 -.132 .565 -.26c.633 -.47 1.265 -.942 1.9 -1.409c.443 -.327 .869 -.687 1.34 -.965c.785 -.465 1.602 -.88 2.406 -1.313c.058 -.032 .123 -.053 .199 -.086l.117 .425c-.691 .373 -1.365 .725 -2.027 1.1c-.352 .198 -.693 .418 -1.02 .655c-.852 .622 -1.694 1.254 -2.536 1.889c-.282 .213 -.588 .37 -.938 .437c-.115 .023 -.228 .065 -.343 .09a.662 .662 0 0 0 -.38 .24a298.24 298.24 0 0 1 -1.995 2.315a.727 .727 0 0 0 -.193 .492c-.008 .488 -.025 .976 -.037 1.466l-.095 3.306c-.014 .537 -.052 1.075 -.035 1.61c.04 1.347 .105 2.692 .161 4.038c.002 .044 .019 .088 .034 .15c.088 -.033 .159 -.058 .228 -.09a3.929 3.929 0 0 0 1.126 -.75c.817 -.782 1.24 -1.726 1.167 -2.868c-.044 -.674 -.285 -1.287 -.612 -1.874a.763 .763 0 0 0 -.513 -.391c-.121 -.03 -.245 -.055 -.366 -.09c-.134 -.038 -.27 -.076 -.398 -.13a.737 .737 0 0 1 -.473 -.614c-.04 -.295 -.002 -.586 .04 -.875c.115 -.781 .322 -1.541 .565 -2.293c.025 -.078 .059 -.153 .088 -.23a.528 .528 0 0 1 -.008 .207c-.118 .624 -.243 1.246 -.348 1.872c-.05 .3 -.113 .611 .088 .89c.01 .015 .015 .04 .015 .06c.004 .244 .142 .42 .301 .579c.22 .22 .48 .379 .764 .502c.367 .157 .64 .404 .798 .783c.329 .78 .398 1.577 .205 2.398a5.433 5.433 0 0 1 -1.188 2.306c-.634 .74 -1.472 1.05 -2.442 1.026c-.536 -.015 -1.049 -.15 -1.56 -.29c-.54 -.148 -1.065 -.339 -1.535 -.653c-1.16 -.777 -1.7 -1.866 -1.6 -3.262c.043 -.584 .262 -1.11 .576 -1.598c.323 -.498 .725 -.92 1.198 -1.275c.097 -.071 .128 -.143 .124 -.262c-.013 -.358 -.1 -.704 -.187 -1.045a22.111 22.111 0 0 0 -.467 -1.541c-.08 -.237 -.194 -.46 -.301 -.69a.414 .414 0 0 0 -.279 -.234c-.119 -.031 -.234 -.077 -.351 -.115c.178 -.343 .159 -.662 -.063 -.944a3.51 3.51 0 0 0 -.362 -.406c-.398 -.371 -.794 -.746 -1.21 -1.096c-.216 -.18 -.478 -.307 -.673 -.431c-.45 .203 -.842 .404 -1.25 .557c-.676 .251 -1.378 .348 -2.098 .214c-.817 -.151 -1.47 -.59 -2.03 -1.177c-.647 -.679 -.944 -1.508 -.959 -2.434c-.012 -.85 .134 -1.683 .36 -2.498c.288 -1.036 .93 -1.828 1.785 -2.462c.45 -.335 .948 -.589 1.46 -.813c.311 -.138 .644 -.184 .983 -.123c.972 .173 1.797 .628 2.492 1.319c.074 .073 .14 .157 .201 .24c.375 .516 .612 1.075 .59 1.728c-.01 .337 .053 .666 .181 .982c.107 .262 .279 .446 .561 .516c.373 .09 .742 .196 1.116 .276c.656 .136 1.311 .266 1.981 .318c.23 .02 .45 .009 .593 -.215c.013 -.021 .046 -.03 .069 -.046c.109 -.08 .149 -.189 .16 -.325c.02 -.297 -.04 -.582 -.093 -.871a1.132 1.132 0 0 0 -.237 -.528c-.199 -.243 -.391 -.492 -.605 -.72a435.59 435.59 0 0 0 -2.81 -2.963c-.55 -.574 -1.17 -1.056 -1.908 -1.372c-1.17 -.502 -2.385 -.536 -3.614 -.308zm5.661 15.714c.01 .025 .02 .054 .017 .082c-.025 .316 .142 .575 .245 .854c.092 .247 .055 .341 -.199 .381c-.272 .042 -.435 .205 -.555 .431c-.138 .258 -.274 .518 -.398 .784c-.157 .341 -.32 .682 -.444 1.036c-.228 .66 -.234 1.332 -.106 2.02c.125 .669 .387 1.266 .777 1.81c.27 .381 .548 .758 .841 1.12c.157 .193 .35 .36 .539 .524c.175 .153 .385 .243 .62 .28c.127 .022 .257 .066 .372 .126c.226 .122 .444 .262 .664 .396c.031 .021 .054 .046 .115 .096c-.086 0 -.126 .005 -.163 0c-.878 -.134 -1.69 -.42 -2.381 -.996a2.936 2.936 0 0 1 -.651 -.733c-.495 -.823 -.903 -1.684 -1.112 -2.628c-.111 -.499 -.088 -1 -.04 -1.5c.105 -1.093 .496 -2.098 .963 -3.078c.138 -.289 .3 -.565 .46 -.844a.914 .914 0 0 1 .208 -.232c.094 -.078 .186 -.042 .228 .07zm7.101 -1.185c.03 .07 .048 .104 .059 .14c.012 .046 .012 .098 .03 .142c.15 .382 .248 .781 .451 1.146c.237 .425 .461 .86 .681 1.296c.367 .725 .662 1.474 .892 2.253c.178 .603 .14 1.198 -.017 1.795a1.098 1.098 0 0 1 -.092 .251c0 -.17 .004 -.34 0 -.509c-.023 -.741 -.257 -1.422 -.592 -2.073c-.147 -.285 -.308 -.565 -.434 -.858c-.253 -.595 -.706 -.974 -1.277 -1.236c-.13 -.056 -.262 -.117 -.419 -.188c.025 -.126 .042 -.229 .07 -.33c.125 -.44 .252 -.883 .382 -1.325c.032 -.106 .063 -.215 .111 -.314c.03 -.063 .09 -.11 .155 -.19zm7.495 .337c.014 .268 .06 .528 .033 .779a19.842 19.842 0 0 1 -.26 1.757c-.202 1.01 -.441 2.012 -.663 3.02c-.013 .052 -.017 .106 -.03 .207c.179 -.103 .275 -.2 .306 -.356c.034 -.164 .076 -.327 .111 -.49c.264 -1.169 .532 -2.337 .672 -3.53c.053 -.436 .03 -.864 -.108 -1.282c-.013 -.036 -.04 -.07 -.061 -.105zm-21.925 -.003c-.029 .09 -.063 .18 -.09 .272c-.132 .475 -.102 .955 -.02 1.432c.135 .783 .282 1.565 .437 2.344c.09 .45 .203 .898 .302 1.346a.466 .466 0 0 0 .31 .356c-.013 -.086 -.02 -.147 -.034 -.205l-.509 -2.328a73.369 73.369 0 0 1 -.24 -1.167c-.13 -.668 -.267 -1.342 -.114 -2.031c-.014 -.007 -.03 -.013 -.042 -.02zm-3.13 -3.91a.365 .365 0 0 1 -.046 .01v.162l.016 .984c.017 .978 .07 1.952 .22 2.92c.205 1.306 .788 2.401 1.799 3.26c.149 .125 .31 .238 .471 .347a.67 .67 0 0 0 .212 .088c.075 .021 .123 -.023 .123 -.098a.38 .38 0 0 0 -.031 -.143c-.208 -.51 -.279 -1.049 -.346 -1.589c-.04 -.325 -.071 -.651 -.107 -.988c-.073 -.032 -.148 -.067 -.224 -.099a3.564 3.564 0 0 1 -.841 -.5a1.707 1.707 0 0 1 -.572 -.857c-.266 -.913 -.4 -1.838 -.32 -2.789c.006 -.067 .006 -.147 -.026 -.201c-.1 -.176 -.217 -.34 -.328 -.507zm28.234 .272a.89 .89 0 0 0 -.273 .675c-.002 1.116 -.037 2.23 -.22 3.336c-.142 .856 -.404 1.664 -.93 2.37a.38 .38 0 0 0 -.041 .07c.008 .007 .019 .014 .027 .022c.027 -.03 .057 -.059 .084 -.09c.341 -.394 .607 -.833 .796 -1.32c.261 -.676 .379 -1.383 .452 -2.097c.096 -.939 .109 -1.879 .125 -2.821c0 -.042 -.012 -.086 -.02 -.145zm-18.584 2.904c-.498 1.032 -.993 2.044 -1.49 3.072l.07 -.252c-.075 -.127 -.136 -.25 -.215 -.364c-.116 -.165 -.23 -.333 -.369 -.48a3.364 3.364 0 0 1 -.499 -.668l-.094 -.188a1.45 1.45 0 0 0 -.376 -.521c-.097 -.084 -.093 -.097 -.095 -.285l.754 -.059c.176 .308 .335 .626 .534 .917c.197 .285 .438 .54 .683 .836c.253 -.586 .498 -1.154 .754 -1.742h-1.738c-.003 -.009 -.003 -.017 -.005 -.023c.687 -.08 1.374 -.162 2.086 -.243zm-8.487 -1.652c-.105 .454 -.128 .86 -.042 1.269c.117 .559 .44 .952 .976 1.162c.046 .019 .1 .02 .182 .04c0 -.298 .006 -.568 -.002 -.838c-.006 -.243 .075 -.404 .335 -.436c.006 0 .01 -.018 .02 -.042a6.18 6.18 0 0 1 -1.47 -1.155zm25.914 .152c-.126 .116 -.22 .208 -.32 .29a.384 .384 0 0 0 -.139 .249c-.06 .404 -.253 .73 -.58 .978c-.04 .03 -.088 .083 -.09 .127c-.008 .22 -.004 .44 -.004 .672c.056 -.01 .092 -.01 .123 -.023c.455 -.17 .783 -.469 .947 -.934c.153 -.43 .144 -.87 .063 -1.359zm.858 -6.198c.027 .031 .05 .046 .057 .067c.207 .865 .274 1.734 .08 2.611a3.72 3.72 0 0 1 -.794 1.598c-.254 .306 -.526 .597 -.81 .875c-.87 .846 -1.927 1.318 -3.117 1.498c-1.082 .165 -2.17 .144 -3.254 .004c-.163 -.021 -.322 -.073 -.484 -.113c0 -.021 -.004 -.042 -.006 -.065c.32 -.122 .47 -.427 .71 -.633c.122 -.104 .24 -.213 .375 -.299c.163 -.105 .283 -.088 .37 .082c.191 .37 .518 .454 .888 .481c.32 .025 .64 .071 .957 .103c.526 .05 1.045 .035 1.556 -.109a3.23 3.23 0 0 0 1.722 -1.166c.613 -.798 1.16 -1.642 1.545 -2.578a4.8 4.8 0 0 0 .193 -.618c.06 -.228 .05 -.456 -.023 -.68c-.078 -.235 -.023 -.472 -.01 -.706c.005 -.111 .028 -.22 .045 -.352zm-27.539 -.417c.03 .187 .06 .375 .086 .562c.02 .131 .04 .261 .046 .393c.007 .132 .023 .275 -.016 .394c-.132 .39 -.072 .773 .012 1.156c.092 .419 .27 .806 .471 1.18c.216 .399 .436 .797 .673 1.182a3.96 3.96 0 0 0 1.02 1.124c.548 .409 1.17 .61 1.848 .647c.499 .028 .989 -.041 1.48 -.098c.175 -.02 .346 -.036 .52 -.06a.74 .74 0 0 0 .568 -.382c.136 -.239 .255 -.27 .47 -.102c.204 .157 .388 .34 .564 .527c.126 .132 .239 .273 .413 .344c.035 .014 .065 .048 .096 .073l.004 .057c-.176 .033 -.35 .081 -.528 .098c-1.086 .105 -2.171 .13 -3.252 -.06c-1.287 -.227 -2.385 -.807 -3.26 -1.78a12.562 12.562 0 0 1 -.988 -1.245a3.291 3.291 0 0 1 -.606 -1.924a7.109 7.109 0 0 1 .296 -1.979c.01 -.038 .031 -.071 .083 -.107zm4.67 -1.484l.21 .16c.957 .782 1.937 1.534 2.977 2.202c.618 .396 1.253 .756 1.944 1.017c.525 .2 .996 .499 1.457 .815a20.928 20.928 0 0 1 2.19 1.749c.11 .096 .224 .186 .346 .286c.048 -.037 .092 -.069 .132 -.104c.515 -.459 1.028 -.922 1.547 -1.378c.206 -.18 .434 -.306 .704 -.39a7.855 7.855 0 0 0 1.857 -.854l4.907 -3.087c.065 -.044 .13 -.081 .226 -.138c.092 .147 .172 .272 .26 .41c-.076 .053 -.13 .095 -.189 .13c-1.681 1.058 -3.363 2.12 -5.049 3.173c-.624 .39 -1.3 .668 -2.002 .892a.887 .887 0 0 0 -.303 .176c-.561 .492 -1.118 .99 -1.675 1.487l-.107 .098c-.201 .17 -.404 .172 -.603 .004c-.038 -.031 -.072 -.067 -.107 -.1c-.842 -.781 -1.717 -1.516 -2.683 -2.138a7.405 7.405 0 0 0 -1.338 -.687c-.64 -.247 -1.225 -.603 -1.8 -.974a34.665 34.665 0 0 1 -3.067 -2.256c-.042 -.034 -.08 -.076 -.138 -.13c.1 -.122 .196 -.235 .303 -.362zm17.776 -3.631c.068 .012 .132 .031 .197 .046v.042l-.211 .01c-.354 .017 -.712 .013 -1.064 .057c-.823 .106 -1.514 .498 -2.115 1.057c-.435 .406 -.806 .871 -1.16 1.347c-.24 .324 -.36 .71 -.402 1.11a7.37 7.37 0 0 0 -.031 .917c.002 .165 -.06 .276 -.2 .33c-.16 .061 -.33 .113 -.5 .134a56.05 56.05 0 0 1 -1.453 .164c-.153 .017 -.312 .056 -.484 -.044a.72 .72 0 0 1 .325 -.29c.213 -.106 .37 -.27 .513 -.451c.414 -.537 .823 -1.075 1.24 -1.609c.515 -.661 1.04 -1.31 1.647 -1.89l.061 -.06c.471 -.462 1.018 -.76 1.682 -.858c.653 -.098 1.302 -.125 1.955 -.012zm-14.94 .159c.232 .065 .433 .188 .626 .329c.391 .284 .743 .615 1.05 .986c.568 .68 1.12 1.374 1.674 2.065c.24 .299 .47 .607 .706 .908c.138 .178 .295 .331 .498 .438c.142 .067 .276 .157 .352 .329c-.233 .044 -.436 -.02 -.639 -.038a32.759 32.759 0 0 1 -1.101 -.12a2.348 2.348 0 0 1 -.467 -.1c-.237 -.086 -.304 -.213 -.31 -.463c-.009 -.347 -.006 -.697 -.044 -1.042a1.87 1.87 0 0 0 -.448 -1.02l-.558 -.679a8.575 8.575 0 0 0 -.29 -.328c-.587 -.627 -1.288 -1.073 -2.14 -1.232c-.342 -.063 -.694 -.067 -1.041 -.088c-.201 -.012 -.402 -.002 -.603 -.002l-.009 -.048c.074 -.017 .145 -.038 .218 -.052a5.63 5.63 0 0 1 2.526 .157zm4.286 2.08c.07 .079 .107 .125 .147 .169c.525 .559 1.049 1.118 1.58 1.67c.133 .139 .22 .283 .227 .476c.002 .05 .025 .103 .037 .155h.038c.009 -.054 .019 -.109 .021 -.163c.008 -.193 .1 -.335 .233 -.471c.502 -.524 .996 -1.054 1.495 -1.581l.163 -.174c-.006 -.015 -.015 -.03 -.02 -.042l-3.921 -.04zm3.461 -2.154c-.131 .201 -.136 .216 -.033 .34c.155 .186 .255 .398 .31 .63c.042 .176 .065 .354 .096 .532c.025 .15 .032 .157 .218 .172c-.054 -.603 -.09 -1.204 -.59 -1.674zm-2.001 .423c-.24 .063 -.287 .111 -.27 .252c.027 .236 .004 .278 -.204 .385c-.054 .027 -.115 .057 -.153 .103c-.08 .104 -.148 .217 -.228 .337c.316 .17 .616 .132 .817 -.094a.345 .345 0 0 0 .1 -.285c-.02 -.166 -.029 -.331 -.044 -.497l-.018 -.2zm3.702 -4.196c-.195 .052 -.264 .178 -.189 .364a.828 .828 0 0 0 .17 .262c.18 .184 .36 .373 .563 .53c.57 .438 1.152 .858 1.73 1.284l.193 .14c-.319 .197 -.641 .28 -.978 .301a.34 .34 0 0 0 -.266 .128a.939 .939 0 0 1 -.71 .35a.309 .309 0 0 0 -.16 .038c-.3 .211 -.638 .26 -.996 .236c-.232 -.014 -.295 .048 -.279 .277c.03 .393 .128 .77 .317 1.118c.037 .069 .092 .13 .146 .207c.1 -.096 .178 -.176 .26 -.251c.61 -.553 1.212 -1.114 1.834 -1.652c.59 -.511 1.292 -.79 2.06 -.907c.093 -.015 .183 -.036 .281 -.055c-.023 -.037 -.031 -.058 -.044 -.073c-.38 -.454 -.764 -.907 -1.143 -1.363a.269 .269 0 0 0 -.213 -.105c-.285 -.01 -.572 -.027 -.857 -.048c-.067 -.004 -.163 -.015 -.19 -.056c-.11 -.17 -.283 -.218 -.455 -.275c-.228 -.075 -.463 -.138 -.477 -.431a1.139 1.139 0 0 0 -.597 -.019zm-4.986 -.484c-.53 .13 -1.05 .285 -1.516 .58c-.239 .151 -.488 .27 -.775 .291a.199 .199 0 0 0 -.113 .044c-.314 .262 -.693 .384 -1.076 .49a10.66 10.66 0 0 1 -2.103 .34c-.142 .01 -.24 .05 -.318 .184c-.239 .41 -.582 .708 -1.024 .89c-.044 .019 -.086 .048 -.128 .071c.08 .013 .147 -.002 .214 -.01a6.756 6.756 0 0 1 1.606 -.003c.79 .101 1.52 .348 2.15 .849c.23 .182 .461 .362 .677 .56c.484 .443 .959 .895 1.434 1.347c.082 .078 .149 .11 .256 .053c.274 -.15 .561 -.281 .827 -.444c.14 -.086 .253 -.216 .366 -.34a.374 .374 0 0 0 .107 -.303l-.314 -.046c-.063 -.224 -.004 -.453 -.073 -.66l-.214 .023a56.249 56.249 0 0 0 -.159 -.6a1.45 1.45 0 0 1 -.027 -.623c.067 -.41 .232 -.79 .412 -1.158c.067 -.138 .195 -.251 .298 -.37c.052 -.061 .113 -.116 .197 -.2c-.472 -.169 -.595 -.546 -.648 -.954c-.029 -.007 -.044 -.015 -.056 -.01zm2.525 4.301c-.146 .021 -.146 .116 -.157 .206c-.031 .26 -.136 .364 -.393 .404l-.247 .033l.056 .44c.142 0 .253 .013 .362 -.002c.182 -.025 .337 -.107 .4 -.293c.09 -.264 .053 -.528 -.02 -.788zm3.196 -1.953c.102 .284 .364 .372 .546 .576c-.228 .046 -.425 .075 -.628 .044a.634 .634 0 0 0 -.226 .012c-.124 .03 -.182 .105 -.174 .199c.01 .117 .094 .193 .222 .197c.076 .002 .15 0 .218 0c.128 -.237 .165 -.254 .423 -.224c.195 .023 .381 .002 .578 -.09c-.302 -.268 -.511 -.624 -.96 -.714zm-4.72 -1.039c-.143 -.006 -.193 .031 -.25 .182c.133 .113 .26 .23 .394 .337c.168 .134 .36 .206 .574 .224c.067 .007 .134 .017 .207 .026c.026 .441 -.046 .858 -.1 1.277c.19 -.015 .251 -.136 .278 -.28c.074 -.384 .1 -.771 .093 -1.173c-.465 -.095 -.465 -.095 -.828 -.417c-.104 -.094 -.222 -.17 -.368 -.176zm3.246 .197c-.113 .065 -.128 .144 -.128 .228c0 .09 .006 .18 .012 .27c.034 .37 .003 .735 -.069 1.098c-.006 .033 -.008 .069 -.01 .102l.046 .004c.264 -.534 .186 -1.105 .149 -1.702zm-1.033 -1.673c-.13 .071 -.083 .165 -.063 .243c.09 .335 .176 .672 .283 1.003c.103 .322 .228 .638 .354 .98c.147 -.092 .111 -.18 .073 -.262c-.251 -.544 -.418 -1.118 -.576 -1.696c-.023 -.084 -.044 -.168 -.07 -.268zm-8.355 -1.458a1.392 1.392 0 0 0 -.243 .32a457.91 457.91 0 0 0 -1.468 2.604a1.27 1.27 0 0 0 -.115 .312c-.027 .113 -.004 .217 .122 .312a1.218 1.218 0 0 1 .152 -.618c.507 -.938 1.01 -1.876 1.512 -2.817c.02 -.035 .025 -.075 .04 -.113zm13.618 -.236c0 .086 -.002 .153 0 .22c.014 .477 .092 .942 .257 1.39c.145 .39 .34 .756 .656 1.03c.448 .388 .913 .752 1.371 1.125l.036 -.042c-.053 -.052 -.1 -.109 -.155 -.157c-.295 -.264 -.584 -.538 -.892 -.79c-.538 -.435 -.85 -1.005 -1.003 -1.666c-.067 -.292 -.092 -.591 -.134 -.886c-.013 -.084 .006 -.182 -.136 -.224zm-1.447 -.055c.05 .103 -.034 .237 .13 .285c.182 .054 .265 .197 .297 .37c.08 .438 .257 .838 .48 1.221c.119 .206 .249 .405 .372 .606c.128 .21 .247 .42 .247 .678l.009 .027l.04 .055c.106 -.04 .131 -.12 .13 -.205a.698 .698 0 0 0 -.032 -.248a5.651 5.651 0 0 0 -.283 -.603c-.33 -.586 -.632 -1.179 -.745 -1.853c-.06 -.33 -.275 -.44 -.645 -.333zm-11.076 1.376a.13 .13 0 0 0 -.08 .048c-.236 .283 -.473 .563 -.707 .848a1.047 1.047 0 0 0 -.14 .205c-.063 .13 -.07 .264 .037 .428c.048 -.425 .055 -.421 .331 -.748c.176 -.205 .333 -.427 .494 -.645c.03 -.04 .044 -.09 .065 -.136zm10.368 -1.254l-.046 .04c.014 .043 .025 .09 .042 .133c.044 .11 .094 .218 .136 .33c.226 .607 .463 1.21 .433 1.878c-.002 .062 .053 .127 .092 .22c.13 -.206 .128 -.394 .105 -.578c-.084 -.673 -.341 -1.29 -.624 -1.898c-.025 -.052 -.09 -.083 -.138 -.125zm-2.28 .697c-.12 .017 -.128 .073 -.112 .153c.03 .128 .06 .257 .078 .387c.042 .293 .12 .589 -.019 .88c-.006 .014 .008 .037 .015 .065c.134 -.053 .17 -.172 .186 -.28a1.378 1.378 0 0 0 -.002 -.395c-.038 -.266 -.094 -.527 -.147 -.81zm-5.464 -.783c-.03 .063 -.067 .12 -.082 .182a4.306 4.306 0 0 0 -.081 .43c-.036 .284 -.074 .569 -.229 .816c-.136 .214 -.119 .431 -.067 .689c.067 -.034 .111 -.05 .151 -.078c.275 -.199 .406 -.485 .486 -.802a.18 .18 0 0 0 -.002 -.081a2.126 2.126 0 0 1 .008 -.83c.03 -.146 -.02 -.23 -.184 -.326zm7.172 .645c-.17 -.002 -.211 .017 -.245 .146c-.077 .306 -.071 .616 -.042 .928c.145 .015 .164 -.054 .157 -.165c-.014 -.304 -.019 -.608 .13 -.91zm-6.76 -1.112c.042 .109 .08 .199 .112 .289c.054 .157 .115 .314 .15 .475c.08 .354 .028 .708 -.033 1.06c-.04 .228 -.002 .282 .228 .326c.01 -.014 .027 -.031 .036 -.048a.347 .347 0 0 0 .023 -.08c.115 -.646 .073 -1.277 -.216 -1.88c-.07 -.146 -.077 -.155 -.3 -.142zm7.407 -3.66c-.343 -.009 -.559 .192 -.55 .513c.006 .257 .018 .515 .046 .772c.041 .406 .01 .806 -.072 1.206c-.119 .572 -.492 .94 -.986 1.2c-.11 .059 -.245 .071 -.392 .11c.147 .091 .287 .072 .413 .022c.526 -.211 .94 -.544 1.11 -1.112c.115 -.383 .15 -.779 .115 -1.179c-.023 -.27 -.04 -.542 -.057 -.814c-.016 -.279 .15 -.465 .428 -.49a4.573 4.573 0 0 1 2.176 .515l.072 .029l.143 .039l-.172 -.125a4.22 4.22 0 0 0 -.804 -.404a4.253 4.253 0 0 0 -1.47 -.283zm.794 3.164c-.153 .069 -.306 .138 -.459 .205c-.058 .027 -.117 .05 -.081 .172c.142 -.057 .272 -.101 .397 -.16c.166 -.077 .312 -.2 .516 -.178c-.122 -.102 -.245 -.096 -.373 -.04zm-4.224 -.495c-.096 .007 -.144 .057 -.15 .14c-.017 .234 .026 .449 .178 .623l.079 .077l-.056 -.133a1.742 1.742 0 0 1 -.055 -.145c-.042 -.139 -.086 -.281 .019 -.428h.412a.52 .52 0 0 0 -.427 -.134zm-4.811 -.356c.126 .564 1.014 .876 1.489 .513c-.042 -.006 -.086 -.016 -.128 -.014c-.138 .008 -.276 .023 -.414 .031c-.369 .021 -.64 -.148 -.853 -.435c-.02 -.028 -.048 -.049 -.094 -.095zm-3.158 -.328c-.06 .188 .034 .366 .245 .416a.65 .65 0 0 0 .19 .012l.193 -.016c.015 0 .026 -.05 .04 -.082c-.142 -.023 -.282 -.018 -.393 -.073c-.105 -.052 -.183 -.167 -.275 -.257zm3.055 .132a15 15 0 0 0 -.755 .146c-.036 .009 -.061 .063 -.09 .094c.006 .01 .01 .023 .016 .034c.31 -.05 .622 -.105 .938 -.157c.028 -.09 -.031 -.13 -.109 -.117zm5.093 -2.934l-.075 .006c.042 .492 .069 .984 .13 1.474c.058 .478 .159 .949 .333 1.4c.035 .093 .088 .181 .131 .271c.028 -.046 .024 -.077 .011 -.106a5.38 5.38 0 0 1 -.348 -1.374c-.05 -.421 -.073 -.846 -.115 -1.27c-.012 -.135 -.044 -.267 -.067 -.401zm-5.325 .53c-.071 .029 -.14 .06 -.205 .102c-.124 .078 -.243 .161 -.365 .245c-.228 .16 -.45 .331 -.684 .482c-.36 .23 -.746 .379 -1.186 .3c-.115 -.022 -.163 .043 -.175 .156c.199 .08 .4 .067 .598 .034c.331 -.055 .62 -.205 .895 -.388c.222 -.146 .433 -.303 .657 -.446c.147 -.094 .3 -.178 .457 -.249c.136 -.065 .28 -.077 .395 .063c.042 -.345 -.15 -.396 -.387 -.3zm2.783 -.681l-.113 .157c.105 .073 .188 .126 .264 .184c.081 .065 .159 .134 .234 .206c.07 .067 .134 .142 .2 .211c.064 .07 .11 .157 .204 .199c-.163 -.398 -.446 -.691 -.789 -.957z"/></svg>