<svg xmlns="http://www.w3.org/2000/svg" width="48" height="48" viewBox="0 0 48 48" fill="currentColor"><path d="M34.092 22.1c0 -1.6 -.572 -3.2 -1.334 -4.6l-7.052 -12.8c-.572 -1 -.953 -2 -1.144 -3.2l-.381 .6c-1.715 3.2 -1.715 7.2 0 10.2l5.718 10.2c1.715 3.2 1.715 7.2 0 10.2l-.381 .8c-.19 -1 -.572 -2.2 -1.144 -3.2l-5.146 -9.4l-3.24 -6c-.572 -1 -.953 -2 -1.144 -3.2l-.38 .6c-1.716 3.2 -1.716 7 0 10.2l5.717 10.4c1.715 3.2 1.715 7.2 0 10.2l-.381 .6c-.19 -1 -.572 -2.2 -1.144 -3.2l-7.052 -12.8c-.953 -1.8 -1.334 -3.6 -1.334 -5.6c-7.624 2 -12.77 6.4 -12.77 11.6c0 7 10.102 12.8 22.49 12.8c12.39 0 22.49 -5.8 22.49 -12.8c.382 -5 -4.955 -9.4 -12.388 -11.6"/></svg>