---
version: "0.4"
---
<svg>
  <path d="M20.21 42.484l.049 .007c.041 .013 .062 .048 .062 .102v1.533h.037s.073 -.11 .33 -.365l.06 -.06c.09 -.09 .216 -.223 .35 -.366l.207 -.218c.273 -.29 .524 -.56 .524 -.56c.037 -.037 .074 -.037 .11 -.037h1.178c.037 0 .037 .037 .074 .037a.11 .11 0 0 1 0 .146l-1.546 1.642v.037l1.582 1.934c.037 .036 .037 .036 .037 .073c0 .073 -.037 .11 -.11 .11h-1.214c-.037 0 -.074 -.037 -.11 -.074l-.957 -1.168h-.037l-.478 .511v.584l-.007 .048c-.014 .041 -.049 .062 -.104 .062h-.956a.28 .28 0 0 1 -.148 -.073v-3.796l.007 -.048c.014 -.04 .049 -.061 .104 -.061h.956zm-2.097 0l.048 .007c.042 .013 .063 .048 .063 .102v3.76l-.007 .047c-.014 .041 -.049 .062 -.104 .062h-.894c-.042 -.002 -.062 -.01 -.062 -.037l-1.657 -1.642a5.385 5.385 0 0 1 -.368 -.438h-.037c-.037 0 -.037 .037 -.037 .037v2.007l-.006 .048c-.014 .04 -.049 .061 -.104 .061h-.957l-.048 -.007c-.041 -.013 -.062 -.047 -.062 -.102v-3.76l.007 -.047c.014 -.041 .048 -.062 .103 -.062h.847c.036 0 .073 0 .11 .037l1.656 1.642c.147 .146 .368 .438 .368 .438h.036c.037 0 .037 -.036 .037 -.036v-2.008l.007 -.048c.014 -.04 .048 -.061 .104 -.061h.956zm-11.258 .036c.662 -.073 1.25 .438 1.324 1.095c0 .256 -.11 .511 -.294 .694c.257 .219 .441 .583 .441 .948a1.373 1.373 0 0 1 -1.434 1.241h-2.282l-.048 -.007c-.041 -.013 -.062 -.047 -.062 -.102v-3.76l.007 -.047c.014 -.041 .048 -.062 .103 -.062h2.245zm4.636 -.036c.073 0 .073 .036 .11 .073l1.766 3.759v.036l-.007 .048c-.014 .041 -.048 .062 -.103 .062h-1.03c-.074 0 -.111 -.037 -.148 -.11c-.037 -.036 -.11 -.219 -.22 -.438h-1.656c-.11 .22 -.22 .402 -.22 .438c-.038 .073 -.075 .11 -.148 .11h-1.03l-.049 -.007c-.041 -.014 -.062 -.048 -.062 -.103v-.036l1.766 -3.76c.037 -.036 .074 -.072 .11 -.072h.92zm-4.71 2.408h-1.104c-.036 0 -.036 .037 -.036 .037v.62c0 .037 .036 .037 .036 .037h1.14c.185 0 .332 -.183 .332 -.365c0 -.183 -.184 -.329 -.368 -.329zm4.262 -1c-.01 -.005 -.03 .015 -.03 .015l-.332 .949c-.037 .073 -.073 .182 -.11 .255h.92c-.037 -.073 -.074 -.182 -.11 -.255l-.332 -.949l-.006 -.015zm-4.335 -.496l-1.03 .037v.51c0 .037 .036 .037 .036 .037h.994c.147 0 .294 -.146 .294 -.292s-.147 -.292 -.294 -.292zm16.592 -21.86v18.649h-18.8v-18.65h18.8zm20.199 0v18.649h-18.799v-18.65h18.8zm-9.382 5a4.558 4.558 0 0 0 -4.231 4.89c.184 2.518 2.391 4.38 4.93 4.197c2.391 -.183 4.268 -2.153 4.268 -4.562c-.147 -2.555 -2.355 -4.598 -4.967 -4.525zm-20.935 .146h-2.097l-.055 .006a.207 .207 0 0 0 -.166 .212v8.248l.006 .055c.02 .088 .092 .164 .215 .164h6.218l.054 -.006a.207 .207 0 0 0 .167 -.213v-1.751l-.007 -.055a.208 .208 0 0 0 -.214 -.164l-3.827 .036l-.027 -.006a.08 .08 0 0 1 -.046 -.067v-6.24l-.006 -.055a.208 .208 0 0 0 -.215 -.164zm21.266 2.08c1.27 0 2.302 .938 2.386 2.173l.006 .162c-.037 1.278 -1.067 2.336 -2.355 2.336c-1.325 0 -2.355 -1.058 -2.355 -2.372c0 -1.24 1.067 -2.263 2.318 -2.3zm-11.147 -27.262v18.649h-18.801v-18.649h18.8zm20.199 0v18.649h-18.8v-18.649h18.8zm-32.046 5.11h-2.355c-.147 0 -.22 .109 -.22 .218c0 .037 0 .073 .036 .11l3.827 8.357c.036 .037 .073 .073 .11 .073h2.134c.037 0 .073 -.036 .11 -.073l3.827 -8.32c.073 -.11 0 -.256 -.11 -.33c-.038 0 -.074 -.036 -.111 -.036h-2.355c-.147 0 -.257 .073 -.331 .22l-.633 1.388l-.17 .372l-.742 1.633c-.221 .511 -.515 1.46 -.515 1.46c0 .037 -.037 .037 -.074 .037l-.01 -.01l-.027 -.027s-.294 -.949 -.515 -1.46c-.147 -.365 -1.545 -3.394 -1.545 -3.394c-.074 -.11 -.184 -.219 -.331 -.219zm26.38 0h-7.138a.208 .208 0 0 0 -.214 .164l-.007 .054v8.285c0 .121 .077 .192 .167 .213l.054 .006h7.175c.11 .036 .22 -.073 .22 -.183v-1.752a.207 .207 0 0 0 -.166 -.213l-.054 -.006h-4.783c-.028 0 -.055 -.02 -.068 -.046l-.006 -.027v-1.058c0 -.027 .02 -.055 .047 -.067l.027 -.006h4.047a.208 .208 0 0 0 .215 -.165l.006 -.054v-1.533a.207 .207 0 0 0 -.166 -.213l-.055 -.006h-4.047c-.028 0 -.055 -.02 -.068 -.046l-.006 -.027v-1.058c0 -.027 .02 -.055 .047 -.067l.027 -.006h4.746a.208 .208 0 0 0 .215 -.165l.006 -.054v-1.752a.207 .207 0 0 0 -.166 -.213l-.055 -.006z" />
</svg>
