<svg xmlns="http://www.w3.org/2000/svg" width="48" height="48" viewBox="0 0 48 48" fill="currentColor"><path d="M21.605 40.09c1.646 .765 2.833 3.138 2.335 4.593c-.192 .574 -3.33 1.99 -4.02 1.8c-.42 -.115 -.842 -.23 -1.225 -.422c-.536 -.268 -1.416 -.497 -1.34 -1.187c.053 -.576 .5 -.596 .96 -.577l.212 .01c.14 .007 .277 .01 .398 -.007c.612 -.115 1.225 -.306 1.837 -.383c.575 -.038 1.187 0 1.8 0c-1.187 -.88 -1.608 -2.029 -1.953 -3.139c-.076 -.268 -.038 -.689 .153 -.88c.23 -.268 .575 .038 .843 .191zm-4.02 -2.757c1.263 1.225 1.302 3.33 .076 4.326c-1.454 1.186 -3.904 1.148 -4.9 -.077c-.574 -.727 -.383 -1.34 .498 -1.416c1.187 -.115 2.488 -.421 3.637 .689c0 -1.11 -.957 -1.723 -.919 -2.718l.007 -.108l.01 -.219c.018 -.403 .068 -.803 .519 -1.013c.536 -.268 .804 .268 1.072 .536zm-3.867 -4.326c1.149 1.608 .92 3.062 -.689 4.173c-1.722 1.186 -2.986 .957 -4.096 -.728a24.846 24.846 0 0 0 -.727 -1.11c1.684 -.574 2.947 .115 4.364 .804c-.23 -1.11 -.651 -2.029 -.077 -3.024c.46 -.843 .69 -.88 1.225 -.115zm20.75 -2.335c-.192 1.148 -.843 1.875 -1.838 2.411c-.268 -.114 -.498 -.268 -.344 -.689c.344 -.957 .574 -2.029 1.53 -2.526c.345 -.192 .728 .153 .652 .804zm-23.43 -3.14c.575 .421 .269 .996 .345 1.455c.306 1.608 -.268 2.986 -1.57 3.714c-1.071 .612 -3.943 -1.494 -4.44 -2.987c-.115 -.306 -.23 -.65 0 -.88c.306 -.345 .689 -.115 1.033 .038c1.072 .421 2.03 1.034 3.025 2.335c0 -1.875 .23 -3.062 1.608 -3.675zm19.372 -13.935c5.091 1.149 4.555 5.551 2.22 8.46c-1.684 2.145 -4.058 3.178 -6.738 3.446c-.995 .115 -1.301 .536 -1.531 1.302c-.268 1.034 -.613 2.029 -.766 3.1c-.191 1.494 -.88 2.183 -2.45 1.647l1.493 -5.857c-1.34 -.306 -2.105 -.23 -2.182 1.416c-.076 1.264 -.689 2.527 -.995 3.79c-.23 .996 -.919 1.264 -1.685 1.072c-1.033 -.268 -.306 -1.148 -.191 -1.57c.46 -1.34 .536 -2.718 .842 -4.02c.115 -.459 .038 -.573 -.344 -.841c-1.072 -.651 -.996 -2.03 .153 -2.182c1.301 -.154 1.301 -1.034 1.531 -1.762a51.948 51.948 0 0 0 1.11 -4.364c.153 -.689 .574 -1.531 -.65 -1.837c-.498 -.115 -.46 -.728 -.422 -1.187c.039 -.536 .421 -.804 .88 -.804c3.255 .038 6.547 -.498 9.725 .191zm7.273 13.553c1.302 1.57 1.11 2.373 -.804 3.713c-.689 -1.57 .345 -2.565 .804 -3.713zm3.063 -3.982c1.187 .919 1.187 2.259 .077 3.714c-.307 -.69 -.651 -1.11 -.651 -1.532c0 -1.416 -.613 -1.378 -1.57 -.765c-.344 .23 -.765 .382 -1.033 .038c-.345 -.383 .153 -.651 .344 -.919c.804 -1.034 1.953 -1.187 2.833 -.536zm-35.871 -1.416c1.646 .306 2.029 1.914 3.177 2.947c.345 -.459 .69 -.842 .958 -1.301c.306 -.536 .612 -1.072 1.301 -.804c.613 .23 .306 .88 .345 1.34c.03 1.102 -.65 1.69 -1.393 2.195l-.28 .186c-.094 .062 -.188 .122 -.28 .184c-.88 .574 -1.493 -.153 -2.22 -.498c-.727 -.383 -.995 -1.11 -1.57 -1.57c-.038 -.88 -.038 -1.799 -.038 -2.68zm21.974 -4.594c-.344 1.76 -.842 3.522 -1.416 5.244c-.383 1.072 .153 1.34 .957 1.264c1.761 -.23 3.445 -.842 4.632 -2.259c.996 -1.225 1.455 -2.68 .842 -4.25c-.574 -1.416 -1.76 -1.569 -3.177 -1.492c-1.149 -.345 -1.608 .268 -1.838 1.493zm-3.904 -.115c-.154 1.646 -.881 3.139 -1.187 4.709a2.262 2.262 0 0 1 -.166 .461l-.072 .164c-.212 .495 -.357 1 .544 1.212c1.072 .268 1.263 -.765 1.455 -1.416c.574 -2.106 1.033 -4.211 1.493 -6.355c-1.302 -.651 -1.953 .038 -2.067 1.225zm20.136 4.862c-.842 -.996 -1.99 -1.57 -1.952 -3.101c-.306 .268 -.46 .306 -.498 .421c-.268 .612 -.23 1.455 -1.225 1.378c-.421 -.038 -.46 -.344 -.46 -.689c.039 -.88 .537 -1.34 1.34 -1.608c2.03 -.65 2.948 .46 2.795 3.599zm-35.909 -5.82c.574 1.034 1.187 2.068 1.34 3.752c.124 -.22 .227 -.418 .317 -.596l.164 -.33c.177 -.354 .313 -.602 .514 -.758c.498 -.383 1.302 -.498 1.723 .038c.383 .421 -.038 .92 -.421 1.302c-.842 .842 -1.838 1.723 -3.063 1.263c-1.225 -.497 -2.258 -3.637 -1.684 -4.709c.306 -.612 .765 -.574 1.11 .039zm35.871 -.267c-1.034 -.038 -1.838 -.46 -2.718 -1.455c-.345 1.072 -.306 2.182 -1.531 2.335c-.536 -2.335 -.192 -3.062 1.416 -3.33c1.685 -.268 2.642 .536 2.833 2.45zm-32.962 -6.318c.23 1.493 .46 2.795 .728 4.173c.498 -.115 .957 -.306 1.455 -.306c.459 0 .957 -.766 1.34 -.115c.382 .612 -.268 1.033 -.651 1.416c-.957 .957 -2.297 1.072 -3.254 .421c-1.149 -.804 -1.149 -2.335 -.92 -3.636c.116 -.651 .46 -1.379 1.302 -1.953zm30.665 .268c.268 .421 .115 .842 -.536 .88c-.766 .077 -1.493 -.038 -2.297 -.382c-.076 .804 -.153 1.455 -.23 2.22c-1.301 -.153 -1.493 -.995 -1.454 -2.029c.038 -1.072 .727 -1.57 1.646 -1.684c1.072 -.153 2.22 -.077 2.871 .995zm-26.109 -4.478c.438 1.283 .03 2.389 -.425 3.503l-.172 .419c-.085 .21 -.169 .42 -.245 .634c2.182 -.804 2.182 -.804 3.598 -.192c-.727 .996 -1.57 2.03 -2.87 1.646c-.766 -.23 -1.838 -.574 -1.991 -1.76c-.23 -1.838 .114 -3.37 2.105 -4.25zm22.166 .498c.268 .191 .574 .383 .498 .727c-.077 .46 -.498 .306 -.766 .345h-2.565c.268 1.033 .574 1.875 .268 2.756c-1.914 -1.072 -2.297 -2.029 -1.417 -3.484c.575 -.957 2.872 -1.148 3.982 -.344zm-16.883 -2.642c.077 1.187 -.727 2.067 -1.263 2.948c.268 .536 .765 .268 1.033 .421c.575 .383 1.838 .038 1.685 1.034c-.115 .765 -1.187 .42 -1.876 .46c-1.531 .076 -2.335 -.843 -2.412 -2.221c-.038 -1.685 1.187 -2.757 2.833 -2.642zm10.643 -.498c.574 .115 1.11 .345 1.876 .575a13.532 13.532 0 0 1 -3.599 1.876c.191 .153 .421 .306 .574 .497c.1 .117 .23 .235 .367 .356l.165 .145c.437 .392 .828 .808 .349 1.26c-.633 .6 -1.352 -.017 -1.932 -.59l-.25 -.252c-.69 -.727 -.69 -1.761 -.268 -2.488c.536 -.92 1.493 -1.532 2.718 -1.379zm-3.867 -1.148c-.919 1.225 -1.608 2.642 -3.292 3.254c.727 .383 1.378 .69 2.029 1.072c.383 .23 .65 .69 .421 1.148c-.23 .383 -.613 .192 -.995 .115c-1.379 -.191 -2.604 -1.148 -2.757 -2.22c-.153 -1.072 .957 -2.144 2.144 -2.756c.421 -.23 1.072 -.039 1.302 -.613h1.148z"/></svg>