<svg xmlns="http://www.w3.org/2000/svg" width="48" height="48" viewBox="0 0 48 48" fill="currentColor"><path d="M23.766 1.5c8.413 0 15.754 4.56 19.657 11.328c2.72 4.082 3.672 9.076 3.056 13.92c-.052 .471 -.117 .984 -.187 1.311c-.04 .187 -.097 .432 -.161 .698a5.688 5.688 0 0 1 -.022 .101c-.674 3.237 -2.363 6.658 -4.981 9.72l.004 -.008c1.892 -2.944 2.167 -6.208 .42 -8.217c-1.436 -1.655 -3.907 -2.071 -6.507 -1.353a54.941 54.941 0 0 1 1.44 7.989c-.724 -2.554 -1.506 -5.06 -2.472 -7.647a12.889 12.889 0 0 0 -3.757 2.296c-.271 .235 -.53 .478 -.775 .727c2.316 1.813 4.53 3.445 6.592 4.963a147.647 147.647 0 0 1 -7.279 -4.21c-1.538 1.82 -2.422 3.88 -2.541 5.746a36.889 36.889 0 0 0 9.668 -1.145c-2.774 1.324 -6.018 2.122 -9.627 2.378c.125 .96 .49 1.834 1.11 2.548c1.748 2.011 5.027 2.191 8.204 .727c-3.778 1.945 -7.759 1.86 -9.82 -.51c-.656 -.757 -1.056 -1.674 -1.215 -2.685a41.851 41.851 0 0 1 -4.964 -.189a51.812 51.812 0 0 1 -1.746 -.196c.279 1.885 1.06 3.565 2.368 4.873a7.93 7.93 0 0 1 -.665 -.562c-1.255 -1.183 -2.078 -2.7 -2.49 -4.42c-4.002 -.59 -7.252 -1.636 -10.135 -3.296c3.762 5.86 10.476 9.76 18.133 9.76c1.966 0 3.869 -.259 5.676 -.74a22.775 22.775 0 0 1 -6.984 1.093c-12.504 0 -22.641 -10.073 -22.641 -22.498c0 -12.429 10.137 -22.502 22.641 -22.502zm-2.368 26.644l-.007 .007c-2.306 3.154 -3.554 6.573 -3.643 9.649c1.685 .414 3.438 .716 5.23 .887c.514 .05 1.021 .088 1.522 .117c.09 -2.125 1.076 -4.498 2.823 -6.613a114.63 114.63 0 0 1 -5.925 -4.047zm20.629 -6.25c-2.363 -2.229 -6.073 -2.54 -9.834 -1.461a69.385 69.385 0 0 1 2.392 6.878c2.97 -.845 5.786 -.396 7.409 1.472c2.059 2.37 1.586 6.326 -.866 9.795l.067 -.094c4.21 -5.94 4.705 -12.936 .832 -16.59zm-26.487 1.653c-2.49 3.94 -3.856 8.155 -4.118 12.049a34.378 34.378 0 0 0 5.357 1.953c-.158 -3.266 .924 -7.001 3.133 -10.512c-1.441 -1.09 -2.9 -2.25 -4.372 -3.49zm-8.9 -8.345l-.162 .274a19.652 19.652 0 0 0 -2.731 10.048c0 1.894 .264 3.73 .759 5.471c1.685 1.64 3.88 3.132 6.422 4.366c-.528 -4.237 .358 -9 2.712 -13.453a125.022 125.022 0 0 1 -3.834 -3.541c-2.376 3.796 -3.497 8.1 -3.334 12.252c-1.051 -4.584 -.5 -9.525 1.636 -13.922a111.17 111.17 0 0 1 -1.467 -1.495zm23.727 5.864l-.114 .045c-2.609 1.076 -5.135 2.785 -7.136 4.948c-.171 .185 -.338 .37 -.5 .558a122.448 122.448 0 0 0 5.511 4.676c.315 -.327 .65 -.645 1.003 -.951c1.342 -1.167 2.8 -2.046 4.254 -2.624a78.786 78.786 0 0 0 -3.018 -6.652zm-4.136 -7.316l-.134 .063c-3.23 1.535 -6.367 4.071 -8.986 7.478a104.627 104.627 0 0 0 4.03 3.974a25.598 25.598 0 0 1 1.785 -2.108c1.863 -1.975 3.932 -3.558 6.05 -4.714c-.13 -.235 -.261 -.472 -.395 -.71a101.796 101.796 0 0 0 -2.35 -3.983zm-3.492 -5.137l-.086 .025c-3.536 .99 -6.936 2.945 -9.78 5.843c-.327 .334 -.642 .676 -.945 1.024a124.156 124.156 0 0 0 3.71 4.22l-.408 -.448l.222 -.318c2.496 -3.535 5.657 -6.221 9.02 -7.914a68.856 68.856 0 0 0 -1.733 -2.432zm6.1 4.144l-.155 .047l.352 .696a101.348 101.348 0 0 1 1.905 4c4.825 -2.011 9.66 -1.785 12.696 1.077l-.056 -.052c-.902 -1.807 -2.15 -3.336 -3.723 -4.419c-3.126 -2.15 -7.055 -2.521 -11.02 -1.349zm-8.412 -7.063l-.25 .054c-4.372 .95 -8.22 3.166 -11.09 6.243c.345 .445 .697 .892 1.055 1.339a22.082 22.082 0 0 1 2.012 -2.363a21.622 21.622 0 0 1 8.274 -5.272zm14.116 3.31c-2.675 -.983 -5.572 -1.32 -8.468 -1.02c.363 .623 .725 1.263 1.09 1.931c2.578 -.868 5.201 -1.156 7.674 -.8z"/></svg>