---
version: "0.0.4"
---
<svg>
  <path d="M21.978 1.562c-.758 .08 -1.898 .237 -2.212 .306c-.815 .177 -1.7 .392 -2.088 .508c-.603 .18 -1.805 .592 -2.045 .7c-.109 .05 -.409 .18 -.666 .29c-.565 .24 -1.555 .74 -2.15 1.084c-.24 .139 -.506 .29 -.591 .334c-3.139 1.629 -7.418 6.554 -8.86 10.197c-.066 .168 -.18 .435 -.252 .592c-.236 .516 -.718 2.014 -.943 2.934c-2.517 10.294 2.2 20.71 11.57 25.553c1.316 .68 2.062 .977 4.062 1.618c.266 .085 1.193 .314 1.542 .381l.623 .119c2.136 .405 5.672 .432 7.775 .06c1.793 -.318 3.685 -.865 4.969 -1.438c.145 -.065 .279 -.118 .297 -.118c.086 0 1.69 -.815 2.274 -1.156c3.982 -2.321 7.115 -5.712 9.089 -9.835c.177 -.37 .321 -.684 .321 -.699c0 -.015 .054 -.146 .12 -.292c.561 -1.247 1.174 -3.369 1.436 -4.97c.204 -1.25 .252 -1.945 .251 -3.664c0 -1.991 -.075 -2.876 -.38 -4.5c-.067 -.353 -.08 -.411 -.308 -1.308c-1.05 -4.141 -3.613 -8.305 -6.82 -11.084a94.64 94.64 0 0 1 -.748 -.653c-1.166 -1.055 -3.864 -2.65 -5.765 -3.407c-2.855 -1.137 -5.469 -1.63 -8.551 -1.614c-.798 .006 -1.676 .033 -1.95 .062m4.27 .56c13.973 1.46 23.025 15.392 18.67 28.734c-1.918 5.877 -6.558 10.99 -12.064 13.296c-.223 .093 -.517 .22 -.655 .281c-3.303 1.482 -8.369 1.951 -12.432 1.153c-8.369 -1.644 -15.11 -8.08 -17.103 -16.328c-.25 -1.032 -.269 -1.13 -.376 -1.87c-.054 -.377 -.113 -.77 -.13 -.873c-.227 -1.389 -.127 -4.407 .216 -6.45c.18 -1.078 .801 -3.273 1.151 -4.072c.048 -.108 .15 -.351 .227 -.54c2.046 -4.995 6.475 -9.47 11.497 -11.616c1.41 -.603 2.766 -1.045 4.05 -1.32c2.216 -.473 4.793 -.62 6.95 -.394m-3.584 .866c-1.19 .087 -2.948 .361 -3.802 .595a42.3 42.3 0 0 1 -.467 .125c-.24 .062 -1.511 .462 -1.652 .52c-2.881 1.189 -4.386 2.075 -6.45 3.8c-1.353 1.13 -4.3 4.615 -4.3 5.085c0 .017 -.093 .179 -.208 .36c-.404 .635 -1.005 1.91 -1.537 3.257c-.118 .298 -.38 1.12 -.499 1.558l-.144 .53c-1.71 6.25 -.046 13.527 4.287 18.743c2.023 2.435 5.178 4.74 8.073 5.9c.325 .13 .648 .26 .716 .29c.215 .09 1.04 .357 1.527 .494l.654 .186c.295 .086 1.456 .32 1.901 .382c3.204 .452 6.136 .268 9.067 -.57l.405 -.114c1.145 -.323 2.534 -.911 3.895 -1.651c.629 -.342 2.347 -1.436 2.537 -1.616c.045 -.042 .361 -.3 .704 -.572c3.16 -2.518 5.772 -6.49 6.888 -10.472c.992 -3.543 1.068 -7.976 .186 -10.97a21.51 21.51 0 0 1 -.13 -.467a29.838 29.838 0 0 0 -.551 -1.713c-.03 -.069 -.161 -.392 -.292 -.717c-.889 -2.218 -2.352 -4.48 -4.091 -6.326c-.64 -.679 -.98 -1.007 -1.813 -1.747c-3.715 -3.304 -9.698 -5.267 -14.904 -4.89m3.415 .56l.947 .13c8.617 1.172 15.892 8.291 17.255 16.885c.229 1.444 .253 1.762 .254 3.428c.001 1.905 -.065 2.569 -.438 4.393c-.393 1.917 -1.406 4.524 -2.303 5.927a3.308 3.308 0 0 0 -.217 .367c0 .042 -.644 1.01 -.98 1.47c-1.204 1.656 -3.114 3.541 -4.666 4.607c-2.302 1.581 -4.338 2.524 -6.88 3.184c-.56 .145 -1.497 .318 -2.742 .504c-.726 .11 -3.768 .109 -4.549 0c-2.816 -.393 -4.67 -.942 -6.886 -2.038c-3.477 -1.72 -6.794 -4.806 -8.564 -7.968a26.242 26.242 0 0 1 -.724 -1.347a17.805 17.805 0 0 1 -.589 -1.31a35.483 35.483 0 0 0 -.191 -.467c-.188 -.442 -.513 -1.482 -.75 -2.4a23.126 23.126 0 0 1 -.366 -1.931l-.13 -.947c-.076 -.536 -.077 -3.568 -.002 -4.065c.032 -.208 .09 -.617 .13 -.909a23.56 23.56 0 0 1 .527 -2.586c1.827 -6.656 7.553 -12.462 13.993 -14.19c.12 -.031 .316 -.086 .436 -.12c.669 -.194 1.94 -.436 3.178 -.606c.566 -.077 3.714 -.086 4.257 -.011m-3.25 .87c-1.146 .29 -1.47 2.103 -.503 2.804c.688 .498 1.861 .273 2.237 -.43c.152 -.283 -.057 -.255 -.35 .047c-.858 .886 -1.925 .349 -1.914 -.964c.012 -1.39 1.333 -1.894 1.892 -.722c.222 .467 .283 .419 .26 -.202c-.02 -.513 -.118 -.705 -.221 -.434c-.033 .086 -.057 .085 -.227 -.003c-.227 -.117 -.882 -.171 -1.174 -.097m2.67 .129c0 .034 .038 .062 .084 .062c.235 0 .296 .208 .23 .786c-.224 1.94 -.196 1.824 -.445 1.874c-.457 .091 -.272 .175 .599 .27c.308 .034 .784 .089 1.057 .122c.593 .073 .578 .084 .624 -.465c.031 -.369 .024 -.418 -.043 -.316c-.403 .604 -1.237 .806 -1.477 .358c-.057 -.107 .013 -1.012 .087 -1.132c.106 -.17 .593 .066 .593 .287c0 .084 .037 .148 .085 .148c.094 0 .162 -.308 .163 -.739l.001 -.271l-.185 .197c-.237 .255 -.58 .257 -.616 .003c-.047 -.323 .118 -.997 .243 -.997c.524 0 .994 .27 .994 .57c0 .063 .043 .115 .094 .115c.071 0 .093 -.079 .093 -.335c0 -.393 .093 -.354 -1.185 -.505c-.932 -.11 -.996 -.112 -.996 -.032m3.63 .706c.231 .188 .222 .276 -.144 1.388c-.334 1.015 -.41 1.147 -.66 1.147c-.279 0 -.122 .139 .34 .3c.499 .176 .613 .151 .365 -.079c-.217 -.201 -.215 -.225 .13 -1.295c.338 -1.046 .36 -1.062 .565 -.387c.082 .272 .173 .55 .201 .62c.029 .068 .155 .46 .28 .872c.364 1.19 .395 1.187 .807 -.094c.49 -1.524 .554 -1.648 .82 -1.581c.36 .09 .118 -.142 -.288 -.277c-.498 -.166 -.646 -.134 -.407 .086c.126 .117 .151 .185 .12 .322c-.068 .293 -.468 1.479 -.514 1.527c-.024 .024 -.206 -.466 -.404 -1.09c-.47 -1.488 -.408 -1.372 -.803 -1.497c-.492 -.155 -.628 -.143 -.408 .038m-11.718 .235c-1.697 .823 -.686 3.425 1.126 2.898c.745 -.216 1.182 -.767 1.182 -1.49c0 -1.244 -1.171 -1.96 -2.308 -1.408m1.05 .09c.636 .328 1.018 1.712 .626 2.263c-.69 .968 -1.982 .202 -2.054 -1.217c-.043 -.86 .715 -1.415 1.429 -1.047m-3.578 1.006c-.023 .023 -.041 .09 -.041 .149c0 .122 -.12 .183 -.364 .185c-1.44 .011 -1.762 2.244 -.429 2.984c.93 .516 2.536 -.548 2.19 -1.45c-.08 -.206 -.213 -.112 -.213 .15c0 .749 -.787 1.305 -1.453 1.026c-.484 -.202 -.969 -.924 -1.025 -1.525c-.08 -.866 1.161 -1.342 1.726 -.662c.104 .125 .19 .126 .19 .003c0 -.13 -.529 -.912 -.58 -.86m18.069 .297c-.272 .356 -.205 .44 .171 .219c.217 -.129 .218 -.129 .456 -.005c.527 .273 .54 .176 -.177 1.32c-.733 1.168 -.702 1.133 -.972 1.086c-.325 -.057 -.238 .06 .298 .4c.617 .392 .802 .425 .485 .088l-.135 -.145l.126 -.233c.245 -.451 1.147 -1.854 1.227 -1.909c.237 -.162 .687 .357 .653 .753c-.01 .125 .01 .237 .046 .25c.093 .03 .381 -.601 .3 -.656a90.148 90.148 0 0 0 -.652 -.41a715 715 0 0 1 -1.067 -.67c-.571 -.36 -.554 -.358 -.76 -.088m-10.32 1.162c-3.982 .302 -7.998 2.327 -10.623 5.355c-1.916 2.21 -3.216 4.832 -3.708 7.478l-.13 .695c-.213 1.117 -.21 3.666 .006 4.893c.201 1.14 .572 2.574 .803 3.106c.03 .069 .132 .321 .228 .561c1.105 2.78 3.293 5.445 5.883 7.168c2.012 1.34 3.778 2.055 6.138 2.489c1.732 .318 4.528 .278 6.045 -.087l.678 -.161c4.857 -1.146 9.228 -5.008 11.003 -9.72c.077 -.206 .164 -.43 .193 -.499c.066 -.156 .332 -1.08 .43 -1.496l.13 -.53c.189 -.74 .31 -2.023 .31 -3.271c0 -2.12 -.285 -3.726 -1.013 -5.703c-.257 -.7 -.564 -1.35 -1.04 -2.212c-1.634 -2.957 -4.712 -5.677 -7.824 -6.915c-.24 -.095 -.492 -.197 -.56 -.226c-.357 -.151 -1.607 -.509 -2.182 -.624c-1.703 -.341 -3.088 -.428 -4.767 -.301m2.43 .371c.866 .061 1.67 .171 2.337 .32c3.781 .84 7.203 3.14 9.448 6.346c.276 .395 .518 .76 .539 .81c.02 .052 .101 .197 .18 .323c1.627 2.613 2.389 6.428 1.956 9.787c-.163 1.26 -.738 3.486 -.958 3.706c-.023 .022 -.041 .081 -.041 .13c0 .164 -.968 2.031 -1.39 2.68l-.415 .64l-.266 -.04c-.146 -.023 -.306 -.073 -.354 -.11c-.075 -.06 -.084 -1.262 -.062 -8.201l.025 -8.132l-.467 -.16a278.9 278.9 0 0 1 -1.129 -.391c-.851 -.298 -.795 -.315 -.816 .252c-.017 .441 -.03 .484 -.154 .502c-.169 .024 -.182 -.057 -.156 -.914c.022 -.71 -.008 -.676 .435 -.498c.308 .123 .328 .045 .316 -1.209c-.014 -1.322 .107 -1.146 -1.145 -1.666a51.587 51.587 0 0 0 -1.122 -.47c-.24 -.097 -.462 -.2 -.495 -.228c-.134 -.117 -.453 -.025 -1.722 .497l-1.335 .549l-.018 .495c-.025 .656 .035 .645 -1.202 .216c-.597 -.206 -1.12 -.363 -1.163 -.346c-.062 .023 -.078 1.948 -.078 9.338c0 5.12 -.017 9.326 -.037 9.346c-.212 .212 -.213 .196 -.213 -9.064c0 -7.749 -.012 -9.032 -.087 -9.015c-.049 .011 -.423 .343 -.832 .737c-.655 .631 -2.126 2.03 -3.306 3.146c-.378 .356 -.41 .373 -.743 .386c-1.272 .048 -1.823 .542 -1.925 1.724l-.039 .447l-.88 .854l-.88 .854l-.437 .004c-1.113 .009 -1.7 .556 -1.812 1.688l-.044 .449l-.657 .63l-1.303 1.254l-.647 .624l.005 2.51c.004 2.067 -.01 2.515 -.08 2.542c-.047 .018 -.39 .038 -.762 .045l-.676 .013l-.348 -.686a20.85 20.85 0 0 1 -.492 -1.028l-.196 -.467c-.494 -1.17 -.874 -2.932 -1 -4.633c-.619 -8.409 5.943 -15.975 14.381 -16.58c1.058 -.076 1.257 -.076 2.262 -.006m-13.634 .514c-.388 .393 -.397 .432 -.088 .382c.235 -.037 .244 -.031 .81 .574c.63 .673 .669 .745 .37 .683c-2.346 -.487 -2.38 -.488 -2.722 -.136c-.27 .277 -.307 .451 -.064 .3c.252 -.158 .224 -.18 1.485 1.17c.354 .38 .439 .581 .324 .766c-.164 .262 .044 .21 .385 -.099c.351 -.317 .476 -.54 .25 -.448c-.287 .119 -.34 .106 -.586 -.132c-.392 -.378 -1.257 -1.334 -1.23 -1.358c.013 -.012 .417 .059 .897 .157c.48 .099 1.04 .21 1.246 .248c1.312 .24 1.318 .325 -.084 -1.185c-.542 -.583 -.699 -.79 -.67 -.881l.076 -.246c.063 -.204 -.055 -.144 -.4 .205m24.852 -.07c0 .041 .047 .125 .103 .188c.146 .16 .094 .243 -.695 1.1c-.812 .88 -.897 .942 -1.115 .8c-.102 -.067 -.17 -.08 -.196 -.037c-.038 .061 .821 .928 .922 .93c.069 .001 .057 -.173 -.016 -.218c-.174 -.107 .428 -1.028 .673 -1.028c.309 0 .373 .408 .199 1.268c-.129 .639 -.126 .665 .088 .904c.277 .309 .321 .286 .324 -.167c.002 -.229 .015 -.655 .03 -.948l.026 -.533l.362 .026c.578 .042 .914 -.392 .732 -.944c-.118 -.36 -1.437 -1.59 -1.437 -1.34m.912 .897c.253 .269 .277 .537 .07 .789c-.321 .388 -.657 .415 -.984 .077l-.202 -.208l.398 -.438c.466 -.512 .448 -.506 .718 -.22m-6.333 3.408v.764l-.172 .076c-.888 .392 -1.988 .81 -2.027 .771c-.027 -.026 -.041 -.382 -.031 -.79l.017 -.74l.997 -.417c1.329 -.554 1.216 -.586 1.216 .336m.975 -.584l1.128 .473l.7 .294v.773c0 .927 .063 .895 -.903 .462a31.623 31.623 0 0 0 -.654 -.28a22.315 22.315 0 0 1 -.608 -.263l-.202 -.095v-.772c0 -.424 .025 -.771 .056 -.771c.03 0 .248 .08 .483 .18m7.282 .2c-.411 .101 -.846 .21 -.966 .242c-.864 .23 -1.016 .25 -1.205 .155c-.37 -.184 -.378 -.112 -.036 .346c.361 .485 .39 .505 .344 .24c-.027 -.15 -.014 -.244 .039 -.284c.123 -.094 .586 -.212 .68 -.174c.072 .03 .605 .758 .665 .909c.027 .068 -.378 .678 -.45 .678c-.032 0 -.11 -.046 -.173 -.103c-.246 -.223 -.174 -.004 .15 .459c.346 .492 .47 .564 .434 .251c-.02 -.178 .19 -.583 1.06 -2.03c.233 -.389 .424 -.73 .424 -.757c0 -.04 -.17 -.139 -.208 -.12l-.758 .188m-31.19 -.044c0 .057 .163 .363 .362 .678c1.035 1.639 1.21 1.959 1.139 2.09c-.216 .404 -.003 .327 .338 -.12c.253 -.334 .339 -.695 .094 -.4c-.117 .141 -.285 .116 -.4 -.06c-.317 -.491 -.319 -.403 .022 -.889c.385 -.548 .366 -.537 .78 -.44c.363 .084 .446 .173 .342 .367c-.049 .09 -.044 .12 .018 .12c.1 0 .732 -.82 .732 -.948c0 -.079 -.174 -.056 -.202 .026c-.03 .09 -.395 .088 -.772 -.007c-.15 -.037 -.392 -.095 -.537 -.128l-.811 -.188c-.865 -.203 -1.106 -.225 -1.106 -.101m31.471 .263c0 .114 -.58 .947 -.643 .922c-.096 -.038 -.552 -.659 -.513 -.698c.112 -.112 1.156 -.315 1.156 -.224m-30.286 .329c.524 .13 .525 .131 .21 .57c-.248 .345 -.34 .335 -.544 -.06a8.508 8.508 0 0 0 -.224 -.395c-.17 -.284 -.144 -.29 .558 -.115m19.1 10.009v8.85l-.187 -.01c-.86 -.047 -1.518 -.095 -1.636 -.12l-.14 -.028v-9.057c0 -4.98 .016 -9.072 .036 -9.092c.02 -.02 .462 .108 .982 .285l.945 .322v8.85zm2.649 .088c0 6.719 -.018 8.976 -.072 8.994c-.04 .013 -.215 .003 -.39 -.022a6.127 6.127 0 0 0 -.645 -.05l-.327 -.004v-8.679l.001 -8.678l.607 -.259c.334 -.142 .657 -.26 .717 -.265c.103 -.006 .109 .46 .109 8.963m.84 -8.845c.035 .024 .288 .136 .562 .248c.697 .284 .654 .21 .654 1.132c0 .927 -.002 .93 -.57 .642c-.468 -.237 -.49 -.21 -.49 .597c0 .766 .085 .946 .478 1.028c.49 .102 .551 .13 .57 .267c.033 .22 -.15 .235 -.547 .045c-.484 -.231 -.5 -.212 -.5 .598c0 .818 .066 .927 .648 1.057c.397 .089 .439 .126 .385 .34c-.042 .168 -.063 .166 -.586 -.071c-.438 -.2 -.447 -.187 -.447 .596c0 .845 .207 1.12 .85 1.124c.138 .001 .21 .11 .21 .318c0 .166 -.151 .15 -.591 -.065c-.462 -.226 -.467 -.219 -.468 .61c-.002 .82 .178 1.07 .766 1.07c.172 0 .292 .109 .292 .264c0 .19 -.184 .2 -.538 .026c-.531 -.26 -.521 -.271 -.521 .554c0 .86 .062 .965 .644 1.086c.39 .081 .444 .128 .39 .346c-.043 .168 -.064 .166 -.587 -.071c-.182 -.083 -.357 -.134 -.389 -.115c-.124 .077 -.07 1.454 .061 1.566c.14 .12 .541 .268 .73 .27c.132 0 .21 .108 .21 .288c0 .165 -.163 .156 -.566 -.03c-.491 -.23 -.491 -.23 -.492 .624c-.001 .784 .052 .884 .528 .994c.42 .096 .495 .14 .519 .297c.032 .214 -.156 .231 -.527 .05c-.53 -.26 -.521 -.27 -.521 .537c0 .941 -.01 .93 .985 1.205c.056 .016 .075 .115 .062 .32l-.019 .296l-.28 -.013a19.342 19.342 0 0 1 -.78 -.062l-.498 -.05l-.016 -9.022l-.016 -9.022l.172 .04c.094 .023 .2 .062 .234 .086m-6.6 17.372c-.014 .014 -.511 -.003 -1.106 -.04c-.595 -.035 -1.41 -.082 -1.813 -.104l-.732 -.041v-.8c0 -.955 -.17 -.834 1.442 -1.023c1.495 -.176 1.622 -.199 1.687 -.302c.079 -.123 .06 -11.931 -.02 -11.98c-.036 -.023 -.174 .039 -.305 .137c-.225 .169 -2.324 1.922 -2.582 2.156c-.207 .188 -.222 .135 -.222 -.783v-.893l.451 -.432a373.5 373.5 0 0 1 2.945 -2.797l.25 -.226l.015 8.551c.009 4.704 .004 8.563 -.01 8.577m16.183 -16.826l.014 .234l-.623 .314a36.7 36.7 0 0 1 -1.081 .521l-.457 .208l-.18 -.132c-.222 -.165 -.333 -.175 -.246 -.023c.13 .227 .936 1.965 .936 2.017c0 .09 .196 .058 .55 -.088c.398 -.164 .42 -.261 .056 -.241c-.348 .019 -.6 -.143 -.778 -.5c-.243 -.49 -.175 -.612 .514 -.924c.172 -.077 .547 -.249 .835 -.381c.597 -.276 .783 -.297 .937 -.107c.22 .273 .176 -.002 -.09 -.559c-.294 -.613 -.409 -.714 -.387 -.339m-34.582 .17c-.251 .13 -.347 .247 -.534 .654c-.566 1.23 -.528 1.124 -.407 1.124c.044 0 .116 -.059 .16 -.13c.098 -.158 .24 -.135 .79 .127l.99 .468l.614 .291l-.034 .213c-.07 .433 .092 .265 .433 -.448c.402 -.843 .456 -1.094 .305 -1.413c-.217 -.456 -.767 -.585 -1.174 -.274c-.244 .185 -.292 .167 -.292 -.111c0 -.356 -.528 -.667 -.85 -.5m22.272 8.439l.016 8.49l-.172 -.02l-.172 -.02l-.015 -8.406c-.017 -9.04 -.03 -8.641 .265 -8.553c.04 .012 .067 2.916 .078 8.509m-21.819 -7.877c.27 .177 .312 .781 .06 .878c-.201 .077 -.987 -.41 -.943 -.586c.106 -.428 .485 -.553 .883 -.292m1.393 .526c.347 .273 .304 .938 -.06 .938c-.174 0 -1.062 -.417 -1.062 -.498c0 -.558 .65 -.813 1.122 -.44m26.36 .328c.326 .114 .627 .23 .67 .257c.115 .072 .115 15.992 0 16.003c-.097 .01 -.032 .015 -.762 -.066c-.342 -.038 -.647 -.094 -.677 -.125c-.04 -.04 -.085 -15.894 -.046 -16.292c.006 -.061 .007 -.06 .815 .223m-1.777 .549c.231 .034 .403 .097 .452 .164c.088 .12 .109 .583 .027 .583c-.198 0 -1.121 -.15 -1.21 -.197c-.08 -.042 -.11 -.135 -.11 -.356c0 -.365 .02 -.387 .27 -.31c.11 .033 .366 .085 .571 .116m-8.972 12.078c-.032 .032 -1.417 .21 -2.26 .292l-.451 .043v-8.98l.54 -.455c.298 -.25 .907 -.76 1.356 -1.133l.814 -.677l.016 5.44c.009 2.991 .002 5.453 -.015 5.47m9.354 -10.786c.12 .158 .105 .265 -.038 .265c-.097 0 -.125 -.042 -.125 -.187c0 -.214 .044 -.235 .163 -.078m-12.534 6.622v6.575l-.93 -.014c-.673 -.01 -.944 -.036 -.98 -.094c-.075 -.117 -.063 -11.27 .012 -11.79c.128 -.886 .613 -1.288 1.524 -1.263l.374 .01v6.576zm12.059 -6c.566 .11 .623 .152 .623 .457c0 .31 -.026 .32 -.602 .242c-.732 -.1 -.77 -.124 -.77 -.484c0 -.335 .04 -.41 .185 -.347c.053 .023 .307 .082 .564 .132m.474 1.31c.109 .143 .11 .327 0 .327c-.133 0 -.24 -.168 -.195 -.309c.05 -.156 .088 -.16 .195 -.018m-.343 .675c.432 .055 .492 .108 .492 .439c0 .318 -.04 .328 -.83 .2c-.514 -.084 -.539 -.107 -.54 -.494c-.001 -.358 .013 -.37 .304 -.27c.131 .045 .39 .101 .574 .125m-14.527 .61v.709l-.545 .464c-.3 .255 -.58 .485 -.623 .51c-.06 .036 -.078 -.107 -.078 -.634v-.68l.475 -.461c.261 -.254 .506 -.495 .545 -.536c.185 -.2 .226 -.086 .226 .628m14.884 .696c.102 .223 .091 .278 -.052 .278c-.1 0 -.125 -.042 -.125 -.218c0 -.257 .076 -.282 .177 -.06m-16.582 4.595l.016 4.598l-.981 -.017l-.982 -.017v-3.989c0 -3.056 .018 -4.05 .08 -4.25c.188 -.621 .748 -.96 1.54 -.933l.311 .01l.016 4.598zm16.122 -3.968c.556 .1 .603 .14 .58 .492c-.019 .285 .016 .277 -.755 .165c-.613 -.09 -.601 -.081 -.601 -.438c0 -.33 .04 -.404 .184 -.346c.053 .022 .32 .079 .592 .127m-14.439 3.514l-.016 3.389l-.156 .041a5.508 5.508 0 0 1 -.607 .086l-.452 .045v-6.049l.234 -.214c.5 -.46 .92 -.78 .966 -.734c.026 .026 .04 1.572 .031 3.435m-13.048 -3.177c-.317 .128 -.431 .594 -.23 .936c.187 .316 .538 .395 .868 .193c.7 -.426 .129 -1.438 -.637 -1.129m36.233 .047c-.673 .417 -.066 1.47 .639 1.105c.195 -.1 .372 -.379 .372 -.585c0 -.487 -.582 -.787 -1.01 -.52m-8.215 1.122c.001 .043 -.054 .078 -.123 .078c-.103 0 -.124 -.041 -.123 -.234l.001 -.233l.122 .155c.067 .086 .122 .191 .123 .234m-19.005 .788v.454l-.265 .244c-.146 .134 -.413 .366 -.593 .515l-.328 .271l.016 2.066l.017 2.066h1.121l.02 .304c.026 .413 .055 .402 -1.141 .424l-1.06 .02l-.016 -2.416l-.016 -2.416l.67 -.64c1.722 -1.645 1.575 -1.561 1.575 -.892m17.942 -.463c.062 .032 .304 .09 .54 .128c.518 .083 .587 .134 .587 .44c0 .31 -.015 .316 -.662 .235c-.668 -.084 -.71 -.112 -.71 -.486s.041 -.426 .245 -.317m.978 1.42c.122 .161 .11 .34 -.022 .316c-.072 -.014 -.116 -.09 -.129 -.223c-.022 -.226 .027 -.256 .15 -.093m-18.95 2.202v1.958l-.343 .042c-.456 .056 -.435 .141 -.436 -1.752v-1.648l.324 -.3c.471 -.436 .454 -.5 .454 1.7m18.61 -1.527c.425 .054 .49 .11 .49 .41c0 .31 -.058 .331 -.693 .246c-.62 -.084 -.677 -.126 -.677 -.502c0 -.367 .013 -.38 .305 -.279c.131 .045 .39 .101 .574 .125m.357 1.307c.1 .22 .091 .277 -.047 .277c-.126 0 -.186 -.14 -.141 -.327c.036 -.153 .104 -.136 .188 .05m-.465 .619c.547 .089 .608 .142 .585 .5c-.018 .278 .03 .266 -.702 .18c-.613 -.07 -.654 -.099 -.654 -.449c0 -.334 .039 -.409 .184 -.35c.053 .02 .317 .074 .587 .119m.536 1.512c.002 .095 -.224 .105 -.281 .012c-.022 -.036 -.022 -.14 .001 -.232l.042 -.166l.118 .154c.065 .085 .12 .19 .12 .232m-14.968 .602c.022 .676 .05 .65 -.657 .613l-.576 -.03v-1.037l.265 -.034c.145 -.019 .335 -.045 .42 -.059a2.06 2.06 0 0 1 .343 -.016l.187 .008l.018 .555zm14.409 -.154c.592 .126 .623 .148 .623 .44c0 .32 -.029 .33 -.668 .243c-.664 -.09 -.703 -.117 -.703 -.49c0 -.326 .04 -.4 .184 -.336c.053 .023 .307 .088 .564 .143m-11.155 1.253c1.651 .069 2.47 .113 2.835 .153c.137 .015 .586 .044 .997 .065c.682 .034 1.505 .097 3.615 .278c.411 .035 1.126 .105 1.589 .156l1.184 .128c1.898 .193 4.3 .523 4.3 .59c0 .087 -.853 1.05 -1.449 1.637a15.405 15.405 0 0 1 -4.72 3.183a40.58 40.58 0 0 0 -.53 .23a40.15 40.15 0 0 1 -1.683 .555c-1.966 .602 -5.294 .654 -7.51 .118c-1.555 -.377 -3.582 -1.185 -4.371 -1.743a.789 .789 0 0 0 -.205 -.117c-.386 0 -2.814 -2.078 -3.867 -3.308c-.44 -.515 -1.364 -1.8 -1.323 -1.84c.178 -.178 7.567 -.234 11.138 -.085m11.677 .147c.123 .26 .125 .314 .014 .406c-.127 .106 -.287 -.078 -.287 -.331c0 -.35 .126 -.385 .273 -.075m-24.17 .271c.122 .29 .077 .34 -.906 1.025c-1.06 .738 -1.039 .729 -1.25 .545c-.43 -.372 .243 .79 .808 1.398c1.128 1.212 3.147 -.178 2.405 -1.656c-.364 -.723 -1.301 -1.887 -1.057 -1.312m.569 .81c.514 .652 .41 1.346 -.274 1.838c-.756 .544 -1.382 .505 -1.762 -.108c-.226 -.367 -.18 -.428 .873 -1.164c1.047 -.73 1.036 -.726 1.163 -.565m27.16 1.053c-.402 .467 -.452 .647 -.12 .43c.209 -.137 .224 -.118 .453 .554c.233 .682 .25 .659 -.377 .555c-.705 -.118 -.821 -.171 -.732 -.338c.156 -.292 -.036 -.187 -.41 .223c-.471 .517 -.55 .732 -.177 .488c.14 -.091 .216 -.095 .636 -.032c.263 .04 .637 .09 .83 .11c.293 .032 .399 .08 .624 .28c.149 .132 .291 .242 .316 .243c.15 .006 .248 .315 .15 .466c-.17 .258 .003 .243 .243 -.022c.599 -.663 .794 -1.038 .376 -.721c-.185 .14 -.247 .118 -.67 -.243c-.505 -.43 -1.078 -1.955 -.799 -2.127c.088 -.054 .078 -.156 -.015 -.156c-.043 0 -.19 .13 -.327 .29m-25.831 .703c0 .07 .028 .129 .062 .129c.268 0 .021 .375 -.772 1.174l-.834 .841l-.196 -.081c-.398 -.165 -.266 .027 .556 .81c.967 .923 .933 .91 1.342 .488c.201 -.208 .266 -.307 .184 -.283l-.381 .113c-.397 .117 -.959 -.207 -1.06 -.611c-.037 -.148 .477 -.805 .719 -.918c.229 -.107 .495 .445 .306 .635c-.218 .217 .056 .115 .315 -.118c.396 -.357 .524 -.65 .193 -.443c-.212 .133 -.559 -.049 -.559 -.292c0 -.104 .622 -.754 .721 -.754c.258 0 .775 .85 .588 .966c-.035 .02 -.063 .108 -.063 .194c0 .195 .077 .151 .318 -.182l.185 -.255l-.64 -.647c-.353 -.355 -.719 -.702 -.813 -.77l-.171 -.125v.129zm23.08 1.968c-.02 .052 -.007 .172 .028 .265c.036 .094 .127 .38 .202 .638l.29 .997c.085 .292 .18 .594 .211 .673c.082 .208 .07 .371 -.04 .539c-.167 .255 -.004 .225 .365 -.068c.374 -.297 .489 -.517 .2 -.386c-.206 .095 -.306 .005 -.41 -.365l-.081 -.29l.338 -.298c.526 -.464 .568 -.477 .915 -.287c.272 .149 .446 .42 .27 .42c-.037 0 -.067 .042 -.067 .093c0 .144 .047 .12 .507 -.252c.463 -.374 .534 -.498 .248 -.435c-.147 .032 -.416 -.082 -1.517 -.65c-1.457 -.75 -1.407 -.73 -1.46 -.594m-20.948 .015l.109 .218c.186 .372 -1.368 2.315 -1.637 2.046c-.09 -.09 -.167 -.085 -.167 .011c0 .083 .036 .114 .697 .59l.83 .602l.418 .303l.135 -.148c.482 -.526 .498 -.684 .048 -.458l-.32 .16l-.28 -.123c-.753 -.333 -.747 -.464 .068 -1.593c.66 -.914 .662 -.916 .888 -.896c.347 .03 .306 -.052 -.207 -.42c-.43 -.308 -.642 -.415 -.582 -.292m22.31 1.069c.07 .06 -.521 .63 -.653 .63c-.042 0 -.357 -.976 -.357 -1.106c0 -.074 .821 .312 1.01 .476m-2.815 .03c-.466 .245 -.565 .38 -.235 .317c.262 -.049 .288 -.017 .846 1.042c.477 .905 .508 1.175 .17 1.471c-.596 .524 -.88 .337 -1.615 -1.06c-.386 -.734 -.416 -.87 -.22 -1.007c.072 -.05 .12 -.124 .107 -.163c-.03 -.093 -1.174 .496 -1.174 .605c0 .095 .01 .096 .208 .021c.19 -.072 .252 -.008 .571 .588c.792 1.48 .831 1.527 1.3 1.527c.374 0 .963 -.293 1.119 -.557c.244 -.413 .172 -.645 -.73 -2.34c-.128 -.243 -.125 -.301 .025 -.437c.302 -.273 .143 -.276 -.372 -.006m-16.267 .9c0 .029 .056 .104 .125 .166c.191 .173 .205 .132 -.596 1.81c-.282 .594 -.286 .598 -.495 .58c-.38 -.033 -.307 .065 .239 .32c.693 .322 .91 .338 .564 .042l-.163 -.14l.234 -.512c.129 -.281 .251 -.511 .272 -.51c.021 0 .206 .069 .412 .153c.606 .25 .98 .174 1.176 -.239c.264 -.556 .064 -.895 -.757 -1.288l-.725 -.347c-.207 -.1 -.286 -.11 -.286 -.035m1.2 .645c.615 .434 -.005 1.352 -.703 1.04c-.291 -.13 -.28 -.089 -.115 -.431c.073 -.151 .185 -.397 .25 -.546c.127 -.299 .218 -.309 .568 -.063m12.12 -.017c-.03 .116 -.081 .13 -.479 .13c-1.097 0 -1.768 .944 -1.448 2.038c.268 .915 1.294 1.36 2.08 .905c.684 -.396 .863 -.54 .833 -.669a18.82 18.82 0 0 0 -.106 -.427c-.074 -.29 -.072 -.306 .074 -.416c.267 -.202 .072 -.211 -.502 -.025c-.507 .166 -.84 .422 -.406 .313c.313 -.078 .586 .492 .383 .8c-.433 .662 -1.391 .397 -1.792 -.494c-.603 -1.342 .432 -2.454 1.44 -1.548c.39 .351 .425 .326 .25 -.177c-.166 -.476 -.277 -.622 -.328 -.43m-10.182 .58c-.07 .078 -.313 .408 -.541 .734c-1.122 1.603 -1.137 1.62 -1.393 1.62c-.297 0 -.127 .118 .323 .224c.38 .09 .752 .077 .493 -.016c-.303 -.11 -.31 -.18 -.065 -.55c.179 -.269 .26 -.343 .34 -.31c.086 .034 .87 .216 .934 .216c.058 0 .2 .465 .2 .652c0 .205 -.014 .22 -.193 .22c-.352 0 -.157 .152 .347 .268c.589 .137 .717 .11 .503 -.103a.834 .834 0 0 1 -.19 -.391a18.772 18.772 0 0 0 -.094 -.521c-.03 -.155 -.116 -.617 -.19 -1.029c-.224 -1.245 -.239 -1.275 -.474 -1.014m6.173 .407a23.09 23.09 0 0 1 -.132 .514c-.05 .188 -.113 .44 -.14 .56c-.244 1.114 -.458 1.724 -.621 1.776c-.07 .022 -.129 .084 -.129 .136c0 .064 .035 .083 .104 .056c.057 -.022 .268 -.057 .468 -.077c.384 -.04 .51 -.183 .192 -.22c-.37 -.042 -.137 -.801 .265 -.869c.735 -.123 .852 -.105 1.038 .165c.207 .298 .226 .505 .052 .56c-.19 .061 -.151 .177 .047 .138a9.6 9.6 0 0 1 .562 -.079c.447 -.05 .543 -.128 .28 -.227c-.114 -.043 -.262 -.197 -.4 -.417a94.622 94.622 0 0 1 -1.117 -1.83c-.235 -.398 -.404 -.466 -.469 -.186m-4.2 -.047c0 .034 .053 .062 .117 .062c.37 0 .275 2.535 -.1 2.656c-.06 .02 -.152 .05 -.204 .065c-.19 .06 .085 .134 .67 .18c.607 .047 .7 .006 .39 -.171c-.204 -.116 -.23 -.276 -.147 -.888c.083 -.609 .497 -.424 .925 .412c.403 .787 .416 .8 .836 .8l.349 -.001l-.198 -.156c-.108 -.086 -.3 -.34 -.426 -.564a4.493 4.493 0 0 0 -.41 -.615l-.181 -.207l.18 -.075c.622 -.257 .66 -1.037 .066 -1.344c-.291 -.15 -1.867 -.28 -1.867 -.154m-1.938 .729c.09 .59 .092 .58 -.086 .58c-.22 0 -.718 -.14 -.718 -.203c0 -.029 .144 -.265 .32 -.526c.363 -.538 .38 -.533 .484 .149m3.587 -.372c.421 .421 .106 1.07 -.52 1.074l-.337 .002l.039 -.595c.021 -.328 .05 -.616 .066 -.64c.067 -.108 .598 .005 .752 .16m3.228 1.152c.047 .121 -.02 .147 -.53 .207c-.197 .023 -.358 .018 -.358 -.012c.001 -.081 .229 -.972 .281 -1.101c.042 -.104 .457 .515 .607 .906" />
</svg>
