<svg xmlns="http://www.w3.org/2000/svg" width="48" height="48" viewBox="0 0 48 48" fill="currentColor"><path d="M34.681 41.326a15 15 0 0 1 3.668 2.063 1.5 1.5 0 0 1 .1 1.925l-.048.091-.007.016-.037.069q-.527.909-1.179 1.734a3 3 0 0 1-.302-.096l-.147-.059c-.076-.028-.817-.35-.89-.379a.46.46 0 0 1-.272-.563q.248-.752.362-1.537l.016-.162c.005-.066.015-.128.015-.2a.2.2 0 0 0-.081-.17l-.12-.06c-.166-.076-.64-.292-1.897-.857a.03.03 0 0 0 .01-.024 1.4 1.4 0 0 0-.09-.404l-.216-.554a.3.3 0 0 1 .172-.388l.554-.217a1.4 1.4 0 0 0 .292-.152l.089-.065zm-21.361-.004.009.011q.173.139.38.217l.555.217a.3.3 0 0 1 .172.388l-.214.55q-.075.196-.09.404-.001.015.01.024l-1.973.891a.2.2 0 0 0-.125.196l.015.2.017.162a9 9 0 0 0 .36 1.537.46.46 0 0 1-.21.533l-.92.397-.031.013a3.4 3.4 0 0 1-.449.154q-.52-.66-.963-1.374l-.23-.388-.08-.148-.072-.105a1.5 1.5 0 0 1 .174-1.82 15 15 0 0 1 3.665-2.06m6.935.508a.26.26 0 0 1 .322.221c.057.454-.153.9-.54 1.145l-.005.007-.087.053-.058.03-.149.05-.017.004h-.012a1.2 1.2 0 0 1-.373.04l-.23-.038a1.2 1.2 0 0 1-.594-.374.26.26 0 0 1 .046-.382zm7.436-.01.055.01 1.69.751a.26.26 0 0 1 .046.383 1.2 1.2 0 0 1-.594.373l-.23.039a1.2 1.2 0 0 1-.373-.04h-.012c-.011-.002-.023-.011-.035-.011l-.065-.023-.022-.007-.073-.028-.121-.068a1.2 1.2 0 0 1-.54-1.152.26.26 0 0 1 .274-.226m-12.632-1.24.793 1.798-1.532.69q.015-.198.086-.384l.217-.554a.36.36 0 0 0-.208-.468l-.554-.217a1.4 1.4 0 0 1-.35-.2l.481-.21.608-.256zm17.085 1.794.797-1.797.668.287c.233.098.538.226.88.377a1.4 1.4 0 0 1-.35.2l-.554.218a.36.36 0 0 0-.207.467l.212.554q.07.186.086.384zM18.13 37.617a.68.68 0 0 1-.255.732l.102.23c.153.348.439.621.794.758l.735.283q.025.012.036.035.016.021.013.045l-.002.01-.286.743a1.43 1.43 0 0 0 0 1.038.69.69 0 0 1 .708.3l-1.245.553a.685.685 0 0 1 .255-.73 1.2 1.2 0 0 0-.374-.452.06.06 0 0 0-.041-.013l-.02.005-2.062.937-.795-1.783.199-.086 1.863-.777a.06.06 0 0 0 .05-.053 1.23 1.23 0 0 0-.104-.692l-.102-.23a.69.69 0 0 1-.714-.3zm11.75 0 1.244.554a.69.69 0 0 1-.714.3l-.102.23a1.23 1.23 0 0 0-.104.692.06.06 0 0 0 .026.043l1.887.787.206.088-.795 1.783-2.069-.939-.021-.006a.06.06 0 0 0-.041.013c-.16.116-.29.272-.374.451a.7.7 0 0 1 .233.307c.052.135.06.284.021.424l-1.245-.553a.69.69 0 0 1 .708-.3 1.43 1.43 0 0 0 0-1.038l-.282-.734-.005-.019a.06.06 0 0 1 .014-.044.07.07 0 0 1 .037-.035l.734-.283c.356-.137.642-.41.795-.76l.102-.228a.67.67 0 0 1-.235-.307.7.7 0 0 1-.02-.425m-14.31 2.741.795 1.786-.399.18-.794-1.793zm16.857 0 .398.173-.795 1.792-.398-.18zm-5.226-1.695a10 10 0 0 0 1.649.42l.383-.107.144.065q-.27.182-.572.306l-.372.151-.037.018a.18.18 0 0 0-.08.095.17.17 0 0 0-.015.123q.063.212.15.417.111.306.159.629l-.145-.064-.179-.355a11 11 0 0 0-1.343-1.118l-.13-.099c-.13-.103-.267-.244-.19-.4.107-.216.42-.108.578-.08m-5.824.08c.11.219-.193.401-.32.5q-.717.504-1.343 1.117l-.18.355-.144.064a3 3 0 0 1 .16-.63q.086-.203.15-.415a.17.17 0 0 0-.014-.124.18.18 0 0 0-.081-.095l-.112-.05-.297-.119a3.2 3.2 0 0 1-.573-.306l.145-.064.383.106a10 10 0 0 0 1.648-.42l.173-.035c.152-.029.328-.037.405.116M47 15.783l-.01.197c-.019.745.115.991-1.612 3.09a93.8 93.8 0 0 1-19.861 17.99 66 66 0 0 0 3.187 1.701l-.12.034a10 10 0 0 1-1.022-.284l-.314-.094-.062-.015-.157-.032c-.2-.035-.516-.054-.668.252-.193.383.185.661.33.766l.136.103q.573.391 1.072.875l.05.099a91 91 0 0 1-3.95-2.402 88 88 0 0 1-3.948 2.402l.05-.1q.498-.484 1.072-.875l.21-.158c.166-.13.422-.383.256-.711-.153-.303-.47-.287-.67-.252l-.156.031a5 5 0 0 0-.376.11 10 10 0 0 1-1.022.284l-.12-.034c1.05-.527 2.1-1.08 3.187-1.702a93.8 93.8 0 0 1-19.86-17.989l-.383-.473c-1.045-1.319-1.195-1.76-1.221-2.223l-.005-.16-.005-.275L1 15.782c-.001-.02.016-.037.031-.02l1.102 1.157C12.753 28.03 18.93 33.026 24 36.156l.522-.327c5.15-3.262 11.519-8.538 22.446-20.068.016-.015.034 0 .032.021M17.52 36.58l.23.038c.23.062.438.192.593.374a.26.26 0 0 1-.045.382l-1.698.756a.26.26 0 0 1-.328-.217 1.18 1.18 0 0 1 .54-1.145q0-.005.018-.017l.11-.062.029-.014.148-.05.018-.005h.012a1.2 1.2 0 0 1 .373-.04m13.338.038h.012l.035.01.017.009.077.025.073.029.116.064a1.2 1.2 0 0 1 .545 1.155.26.26 0 0 1-.329.217l-1.697-.756a.26.26 0 0 1-.046-.382c.156-.182.363-.312.594-.374l.23-.038a1.2 1.2 0 0 1 .373.04M7.803 23.726A93.3 93.3 0 0 0 23.2 36.642l.013-.008A145 145 0 0 1 8.352 24.218zm32.398 0-.272.246-.275.245a145 145 0 0 1-14.862 12.416l.012.008.725-.49a93.3 93.3 0 0 0 14.064-11.797zM22.283 33.47l1.79-.466 1.98.514-2.072 1.083-1.679-.954a2 2 0 0 0-.225-.118zm5.84-2.908 1.6.416q-.5.403-.98.775l-.62-.161-2.023.527-2.023-.526-2.023.526-2.023-.526-.73.189q-.48-.373-.98-.775l1.71-.445 2.023.527 2.023-.527 2.023.527zm4.05-2.434.714.185q-.552.485-1.084.94l-1.652.433-2.024-.527-2.023.527-2.023-.527-2.023.527-2.024-.527-2.023.527-1.865-.485-.655-.565-.334-.292.83-.216 2.023.526 2.023-.526 2.023.526 2.023-.526 2.024.526 2.023-.526 2.023.526zm.004-2.448 2.023.526 1.408-.361q-.396.37-.78.723l-.484.438-.228.21-1.94-.506-2.022.527-2.024-.527-2.023.527-2.023-.527-2.024.527-2.023-.527-2.023.527-2.023-.527-2.024.527-.051-.014q-.724-.675-1.497-1.42l1.548.403 2.024-.526 2.023.526 2.023-.526 2.023.526 2.024-.526 2.023.526 2.023-.526 2.024.526zM12.548 3.102 20.98 18l.042 2.6a7.22 7.22 0 0 0-5.783-.444l-.227.084a4 4 0 0 0-.709.325c1.82.026 3.64.05 5.44.065q.666.434 1.28.94 1.298-.418 2.579-.868l2.023-1.168a.04.04 0 0 1 .058.015l.104.18q.009.016.004.033a.04.04 0 0 1-.02.025l-2.312 1.335a52 52 0 0 1-1.72 3.74l-1.72-.447-2.023.527-2.023-.527-2.024.527-2.001-.483a3.6 3.6 0 0 1-.314-1.562.9.9 0 0 0 .262.29q.108.126.216.247v-.008a5 5 0 0 1-.21-.243 9 9 0 0 1-1.65-3.771l-.05-.294c-1.185-6.376 1.935-14.928 2.31-15.92zM32.545.242c1.33.446 2.159 1.412 2.815 3.279.01.03.075-.082.146-.262C36.15 1.705 37.32.828 38.757.824c.415 0 .99.078 1.2.167.198.081.157.126-.37.38a6.4 6.4 0 0 0-2.224 1.759l-.233.3c-.165.22-.294.405-.294.43 0 .01.133 0 .3-.027.407-.06 1.285-.034 1.672.058a4.08 4.08 0 0 1 2.435 1.622c.197.279.602 1.05.585 1.122-.023.114-.084.128-.265.033l-.14-.08a9.2 9.2 0 0 0-2.877-1.112l-.248-.045c-.4-.066-.897-.129-1.137-.14l-.206-.002.18.102c.425.234.816.56 1.119.931.282.354.592.976.71 1.432.16.612.147 1.557-.03 2.16-.051.176-.146.207-.214.067l-.347-.714c-.524-1.078-1.19-1.965-1.976-2.625l-.215-.173c-.243-.191-.484-.364-.512-.364-.008 0-.025.045-.042.109l-.019.082-.469 2.447-.11.61-.086.517a79 79 0 0 0-.472 3.488l-.03.278c-.245 2.374-.326 3.928-.323 6.019l.007 1.037c.012 1.074.038 1.472.092 1.496l.094.036.525.175c.838.299 1.416.756 1.822 1.442l.1.175c.143.26.163.368.097.467l-.054.085-10.09-.006c-.798-.006-1.038-.016-1.116-.036l-.015-.005-.014-.008c-.091-.09-.047-.257.157-.58.384-.612.792-.987 1.404-1.286.173-.085.412-.182.583-.239l.335-.101.075-.027.002-.033c-.004-.16-.066-.868-.141-1.619l-.124-1.173-.053-.446a38 38 0 0 0-.83-4.417l-.142-.545q-.075-.285-.158-.58l-.192-.671c-.356-1.222-.716-2.325-.773-2.312-.078.014-.663.65-.89.97-.239.33-.603 1.026-.772 1.464l-.045.123c-.156.463-.245.49-.357.113-.321-1.075-.06-2.264.636-2.964l.167-.156c.046-.045.037-.053-.014-.053-.15 0-1.129.269-1.472.405a7.6 7.6 0 0 0-1.025.51l-.382.236c-.288.168-.319.095-.178-.277.46-1.222 1.44-1.994 2.674-2.11l.374-.027c.101-.01.169-.02.169-.029 0-.054-.599-.626-.854-.816a4.3 4.3 0 0 0-.925-.547l-.328-.14c-.165-.075-.222-.116-.222-.153 0-.082.241-.194.568-.262 1.07-.22 2.128.255 2.798 1.262l.163.248.082-.245c.21-.622.636-1.265 1.102-1.656.448-.377 1.346-.744 1.482-.605.038.038.044.057-.007.126l-.071.088a7.4 7.4 0 0 0-.996 1.503l-.104.223c-.135.301-.283.672-.267.685.003.005.04-.009.098-.034l.218-.102c.88-.438 1.893-.44 2.7-.014l.25.145c.06.034.103.055.107.053l.018-.069.05-.217c.248-1.081.786-1.911 1.629-2.503.228-.16.5-.318.743-.433l.175-.077c.105-.04.183-.088.17-.102-.034-.03-.548-.173-.894-.248a9 9 0 0 0-2.398-.16 7 7 0 0 0-.93.132l-.597.14c-.164.034-.207.03-.227 0a.2.2 0 0 1-.03-.068l.017-.028c.04-.055.143-.186.264-.329.616-.73 1.337-1.163 2.282-1.363.422-.092 1.35-.082 1.823.02.36.078.874.252 1.163.398l.163.082-.034-.089-.065-.148a13 13 0 0 0-.53-.988A8.8 8.8 0 0 0 31.714.636L31.5.446c-.221-.19-.31-.288-.31-.343 0-.044.02-.088.045-.095.105-.044.911.102 1.309.235m-14.167 21.31a115 115 0 0 0-5.333.126l-.034.043-.039.054q.066.852.052 1.707.394-.02.78-.092a48 48 0 0 0 4.536-1.024zm-5.723.694a6 6 0 0 0-.407.828l-.086.233v.037q.212.093.441.126h.052zm21.359-15.89a7.4 7.4 0 0 0-1.99 1.259c-.309.265-.826.768-1.04 1.013l-.17.194.092.122c.073.096.086.12.056.157l-.019.02c-.047.05-.078.05-.336-.007-.371-.078-1.35-.109-1.734-.054a8 8 0 0 0-1.197.278l-.34.106.292.109c1.081.408 1.741 1.186 1.931 2.291.041.242.024.347-.06.347-.035 0-.191-.132-.348-.292-.52-.524-1.07-.939-1.645-1.228l-.168-.08c-.314-.147-.635-.27-.635-.236l.031.077.194.42c1.298 2.733 2.308 5.702 2.9 8.514l.132.674c.17.903.36 2.04.38 2.297l.001.035c0 .078.038.105.317.234l.181.092c.094.05.186.101.255.144l.24.158.01.004c.009 0 .02-.083.038-.27l.148-1.921c.236-2.943.497-5.012.91-7.232l.06-.319a51 51 0 0 1 1.328-5.382l.473-1.543.019-.072c0-.038-.041-.028-.306.091M18.66 21.55l-.091.754a70 70 0 0 0 2.44-.73q-1.175-.024-2.349-.024m5.743-2.907a17 17 0 0 1-.788 1.803c-.618.168-1.223.386-1.806.65l.154-.181c.312-.355.322-.277.802-.876.121-.159.281-.352.42-.528l.127-.169q.41-.55.88-1.05c.184-.196.338.113.21.351M12.9 2.458l8.09 14.096-.021.96-8.217-14.77z"/></svg>