<svg xmlns="http://www.w3.org/2000/svg" width="48" height="48" viewBox="0 0 48 48" fill="currentColor"><path d="M43.763 38.85l-2.949 -4.64h-1.651v4.64h-2.98v-11.78h2.98v4.382h1.651l2.71 -4.364l3.141 -.018l-3.524 5.689l3.859 6.091h-3.237zm-11.318 -29.85c.85 0 1.627 .078 2.339 .234l-.443 2.422a10.861 10.861 0 0 0 -1.759 -.15c-.82 0 -1.4 .096 -1.74 .282c-.342 .186 -.515 .45 -.515 .791c0 .18 .03 .33 .102 .444c.071 .12 .197 .222 .37 .312c.174 .09 .425 .173 .748 .251l.958 .228c1.202 .282 2.07 .708 2.608 1.271c.544 .57 .813 1.313 .813 2.242c0 .774 -.191 1.445 -.574 2.009c-.383 .563 -.94 1 -1.663 1.3c-.724 .306 -1.58 .456 -2.578 .456c-1.149 0 -2.232 -.156 -3.249 -.473l1.37 -2.207c.042 .012 .084 .018 .126 .024c.64 .102 1.22 .15 1.759 .15c.682 0 1.166 -.09 1.453 -.27c.282 -.18 .425 -.45 .425 -.797a.853 .853 0 0 0 -.126 -.48c-.083 -.125 -.227 -.24 -.436 -.335a5.467 5.467 0 0 0 -.886 -.276l-.957 -.228c-1.1 -.258 -1.908 -.671 -2.429 -1.235c-.514 -.57 -.777 -1.313 -.777 -2.242c0 -1.193 .424 -2.11 1.274 -2.758c.85 -.641 2.112 -.965 3.787 -.965zm-11.104 .102c1.711 0 2.991 .168 3.847 .797c.855 .636 1.28 1.619 1.28 2.95c0 .815 -.18 1.51 -.544 2.086c-.365 .576 -.892 1.013 -1.574 1.331l3.1 4.616h-3.243l-3.775 -5.737v5.737h-2.925v-11.78h3.834zm22.949 0v2.56h-2.65v4.209l-2.986 4.862v-9.071h-2.997v-2.56h8.633zm-22.413 2.23h-1.445v3.196l1.22 -.036c.7 0 1.215 -.126 1.55 -.384c.335 -.258 .502 -.672 .502 -1.247c0 -.576 -.167 -.99 -.508 -1.253c-.298 -.235 -.738 -.27 -1.319 -.275zm-11.597 .288h-5.17v2.332h4.063v2.506h-4.062v4.424h-2.981v-11.78h8.149v2.518zm1.46 -2.518h2.979l-1.605 2.565h1.605v9.21h-2.98v-11.776zm-1.03 24.568c.36 .456 .545 1.055 .545 1.81c0 .762 -.186 1.404 -.562 1.925c-.377 .516 -1 .912 -1.861 1.187c-.862 .276 -2.004 .408 -3.428 .408c-.49 0 -1.053 -.024 -1.693 -.072a22.042 22.042 0 0 1 -1.711 -.186v-11.342a16.11 16.11 0 0 1 1.92 -.347c.706 -.09 1.37 -.132 2.004 -.132c1.747 0 3.022 .275 3.823 .833c.808 .558 1.209 1.397 1.209 2.512c0 .611 -.156 1.14 -.467 1.589a2.32 2.32 0 0 1 -1.25 .917c.622 .15 1.113 .45 1.471 .9zm-5.809 -4.37v2.386h1.509c.628 0 1.083 -.102 1.352 -.306c.275 -.204 .407 -.521 .407 -.953c0 -.3 -.06 -.54 -.18 -.726c-.12 -.185 -.317 -.323 -.592 -.413c-.275 -.09 -.64 -.138 -1.107 -.138a7.23 7.23 0 0 0 -1.388 .15zm2.717 7.302c.34 -.102 .58 -.252 .717 -.456c.138 -.204 .21 -.461 .21 -.785c0 -.33 -.06 -.594 -.186 -.797c-.125 -.204 -.323 -.348 -.598 -.444c-.275 -.096 -.64 -.144 -1.095 -.144h-1.753v2.716c.371 .042 .808 .066 1.317 .066c.58 0 1.047 -.054 1.388 -.156zm12.467 2.248l-.856 -2.878h-4.193l-.85 2.878h-2.89l3.686 -11.774h4.337l3.685 11.774h-2.919zm-4.32 -5.336h2.747l-1.376 -4.64l-1.37 4.64zm15.699 -6.444h2.805v11.78h-2.979l-4.702 -7.2v7.2h-2.806v-11.78h2.98l4.702 7.2v-7.2z"/></svg>