<svg xmlns="http://www.w3.org/2000/svg" width="48" height="48" viewBox="0 0 48 48" fill="currentColor"><path d="M46.5 1.5v45h-45v-45h45zm-2.382 2.378h-40.246v40.249h40.246v-40.249zm-7.705 14.294l.272 .082c.03 .015 .054 .028 .074 .045l.038 -.037l.076 .007c.075 .007 .144 .035 .205 .055c.14 .05 .147 .042 .17 .012l.058 -.08l.097 .016l.65 .096l.141 .02v.072c.101 .004 .247 .02 .325 .132c.276 .09 .506 .167 .754 .365l.05 .04l.039 -.008l.064 .053c.039 .037 .08 .063 .12 .09c.07 .044 .15 .094 .219 .187l.014 .016c.275 .308 .588 .654 .784 1.014c.09 .141 .13 .288 .168 .433c.044 .172 .085 .319 .202 .436l.036 .04l.009 .048l.099 .538c.145 .788 .296 1.602 .312 2.363c.077 .53 .088 1.128 .103 1.71c.011 .518 .02 1.004 .075 1.446v.016l.033 2.933l.002 .093l-.04 .022c.034 .055 .083 .155 .03 .262c-.075 .553 -.062 1.115 -.044 1.711c.015 .61 .032 1.245 -.05 1.893l-.024 .175l-.173 -.035a.754 .754 0 0 0 -.392 .03l-.208 .061v-.179a.328 .328 0 0 1 -.26 -.037a.06 .06 0 0 1 -.015 -.004a.203 .203 0 0 1 -.1 -.177v-.438l-.137 -.114l.166 -.053l-.177 -.177h.214a.271 .271 0 0 1 .017 -.153a.323 .323 0 0 1 .085 -.1l-.056 -.073l.005 -.019l.004 -.032l.005 -.032c.007 -.073 .02 -.2 .11 -.288l-.004 -.019c-.012 -.04 -.029 -.103 -.048 -.124l-.222 -.268h.133c0 -.073 .026 -.138 .045 -.187c0 -.003 .003 -.01 .005 -.012l-.184 -.201l.151 -.073c0 -.04 0 -.078 .005 -.11c.004 -.058 .01 -.117 0 -.175l-.017 -.12l.024 -.014a.706 .706 0 0 1 -.011 -.117v-.21c-.01 -.047 -.015 -.092 -.02 -.13a.49 .49 0 0 0 -.02 -.113l-.01 -.214l.185 -.002h.014c.007 -.014 .017 -.044 .026 -.064a.714 .714 0 0 1 .061 -.16l-.218 -.12c.002 -.007 .01 -.014 .012 -.021c.025 -.04 .037 -.088 .054 -.15c.007 -.028 .018 -.06 .029 -.092l-.126 -.021l.017 -.154a.363 .363 0 0 1 .11 -.226c-.003 -.007 -.011 -.009 -.019 -.018a.23 .23 0 0 1 -.02 -.197l.015 -.047l-.043 -.179l.134 -.065c.014 -.018 .029 -.032 .043 -.048l-.063 -.214h.082c-.02 -.026 -.048 -.053 -.089 -.097c-.093 -.095 -.256 -.257 -.189 -.48c-.064 -.03 -.076 -.105 -.076 -.105l.07 -.125c-.028 -.082 0 -.149 .026 -.2l-.051 -.109l.1 -.026v-.067c0 -.036 .002 -.108 .007 -.11l.029 -.005a.168 .168 0 0 1 -.093 -.106l-.03 -.098l.035 -.033c-.005 -.015 -.012 -.027 -.012 -.043a.183 .183 0 0 1 .053 -.136a.597 .597 0 0 0 -.03 -.075c-.05 -.134 -.114 -.298 -.067 -.475l.008 -.025l.013 -.022c.036 -.051 .038 -.116 .041 -.215c.002 -.054 .002 -.117 .017 -.182h-.069l.036 -.194a.343 .343 0 0 1 .019 -.052c-.05 -.009 -.103 -.023 -.101 -.032l.04 -.165c.005 -.015 -.005 -.063 -.006 -.091c-.015 -.084 -.034 -.202 .047 -.31l.009 -.007c-.168 -.28 -.1 -.627 -.045 -.894l.014 -.074a.091 .091 0 0 0 -.009 -.023c-.016 -.04 -.045 -.099 -.043 -.165l-.06 -.03l-.083 -.12l.038 -.145l.056 -.055c-.02 -.037 -.03 -.07 -.04 -.095c0 -.006 -.003 -.01 -.004 -.016l-.055 -.083l-.012 -.121c.014 -.101 .012 -.157 .086 -.214l-.036 -.03c-.094 -.074 -.29 -.23 -.143 -.509l.022 -.059c-.006 -.02 -.018 -.043 -.025 -.062a.61 .61 0 0 1 -.083 -.29l-.02 -.013l-.109 -.109l.04 -.121c-.005 -.019 -.01 -.044 -.017 -.06c-.018 -.055 -.06 -.188 -.012 -.3c-.168 -.172 -.228 -.436 -.273 -.653l-.003 -.012h-.122v-.16c0 -.175 -.28 -.571 -.556 -.86c-.125 -.006 -.283 -.054 -.358 -.152l-.034 -.045a.258 .258 0 0 0 -.067 -.045c-.052 -.033 -.111 -.069 -.163 -.115c-.238 .04 -.404 -.141 -.497 -.247c-.017 -.014 -.033 -.034 -.049 -.053l-.08 .12l-.13 -.074c-.368 -.195 -.772 -.144 -1.244 -.083l-.158 .019l-.121 .016l-.005 -.011a.214 .214 0 0 1 -.152 -.02c-.031 -.016 -.05 -.014 -.133 .015a1.173 1.173 0 0 1 -.12 .033c-.046 .076 -.13 .103 -.175 .115c-.004 0 -.009 0 -.016 .002l-.063 .064l-.103 -.045c-.101 -.05 -.151 -.022 -.302 .098a.876 .876 0 0 1 -.342 .19c-.04 .044 -.113 .079 -.23 .067c-.088 .113 -.203 .186 -.307 .253c-.14 .087 -.229 .145 -.254 .246l-.023 .087l-.09 .027c-.184 .051 -.249 .164 -.342 .318a1.34 1.34 0 0 1 -.247 .324a.19 .19 0 0 1 .012 .065c.003 .12 -.088 .197 -.145 .248a.278 .278 0 0 0 -.038 .034l-.002 .044c-.029 .238 -.138 .407 -.234 .559c-.09 .137 -.157 .246 -.157 .381v.012a.215 .215 0 0 1 .065 .187l-.01 .102c-.025 .307 -.053 .622 -.18 .88c.044 .125 .015 .252 -.008 .363a.523 .523 0 0 0 -.02 .241l.012 .04l-.01 .041c-.016 .076 -.02 .154 -.021 .24c-.005 .107 -.01 .227 -.045 .354c.04 .092 .021 .184 -.052 .272l.009 .02v.041c-.007 .16 -.002 .318 0 .467c.008 .33 .01 .647 -.063 .987c.028 .299 .02 .623 .01 .941c-.01 .35 -.022 .715 .018 1.05v.012l.003 .01c.005 .26 .015 .548 .027 .851c.028 .72 .062 1.532 .005 2.217c.05 .154 .034 .309 .018 .442c-.02 .149 -.036 .278 .03 .41l.018 .038l-.002 .047c-.007 .09 -.017 .183 -.026 .284c-.035 .375 -.075 .8 .022 1.124l.006 .033l-.002 .034a.656 .656 0 0 0 -.004 .074c-.01 .13 -.02 .366 -.258 .437l-.092 .028l-.07 -.07c-.318 -.303 -.318 -.704 -.322 -1.057c0 -.186 0 -.365 -.047 -.51l-.044 -.135l.063 -.03a.258 .258 0 0 1 -.019 -.19l-.001 .001l-.004 .02l.027 -.197c-.088 -.197 -.065 -.397 -.046 -.562c.015 -.116 .028 -.222 -.002 -.288l.007 .017c-.083 -.136 -.016 -.263 .022 -.332c.001 -.006 .007 -.014 .011 -.02l-.143 -.103l.113 -.112c-.093 -.177 -.043 -.378 -.005 -.536c.047 -.183 .07 -.297 .01 -.388l-.08 -.113l.082 -.08a.165 .165 0 0 1 .033 -.093a.438 .438 0 0 1 -.063 -.305l.002 -.018l-.073 -.192c-.003 -.007 -.005 -.01 -.007 -.021l.062 -.018a.229 .229 0 0 1 -.086 -.073a.222 .222 0 0 1 -.024 -.162l-.208 -.214l.203 -.07c-.014 -.074 -.03 -.204 .04 -.312c-.042 -.11 -.115 -.319 .036 -.477c-.002 -.021 -.01 -.054 -.015 -.076a.526 .526 0 0 1 -.005 -.34c-.065 -.113 -.038 -.243 -.02 -.307c.005 -.02 .01 -.039 .012 -.055l-.103 -.222l.157 -.043c-.002 -.016 -.007 -.032 -.01 -.051c-.09 -.094 -.082 -.224 -.077 -.295v-.026l-.087 -.101l.09 -.162c.03 -.04 .026 -.087 .01 -.193a.758 .758 0 0 1 -.009 -.26l-.14 -.097l.015 -.063l.074 -.158a.408 .408 0 0 0 .017 -.155a.194 .194 0 0 1 .066 -.164c-.05 -.144 0 -.317 .04 -.455c.043 -.145 .088 -.297 .03 -.392l-.075 -.124l.106 -.083c.003 -.019 -.005 -.06 -.01 -.092c-.01 -.09 -.033 -.235 .048 -.357c-.02 -.22 .004 -.419 .03 -.614c.028 -.205 .054 -.393 .025 -.6l-.016 -.106l.068 -.041a.777 .777 0 0 0 .005 -.07c0 -.047 0 -.132 .032 -.211l-.047 -.034l.104 -.133c.026 -.033 .033 -.067 .043 -.13a.6 .6 0 0 1 .121 -.291a.152 .152 0 0 0 .005 -.018l.01 -.053c.013 -.076 .03 -.196 .11 -.283c.02 -.12 .12 -.183 .159 -.208l-.034 -.071l.054 -.076c.164 -.249 .378 -.477 .586 -.698c.18 -.188 .346 -.368 .475 -.547l.04 -.052c.02 -.026 .041 -.052 .046 -.049l.12 .051a.084 .084 0 0 0 .023 .005v-.171h.211a.45 .45 0 0 1 .107 -.07l-.05 -.046l.219 -.095c.103 -.05 .292 -.127 .349 -.201l.045 -.055l.067 -.005c.04 -.003 .052 -.015 .095 -.045a.59 .59 0 0 1 .28 -.129l.037 -.029c.072 -.062 .209 -.17 .383 -.122c.004 -.005 .004 -.007 .01 -.01l-.047 -.154l.398 -.002h.431a.677 .677 0 0 1 .312 -.069l.02 -.124zm-12.281 -.22l.272 .08a.76 .76 0 0 1 .074 .047l.038 -.037l.077 .007c.075 .007 .143 .033 .208 .054c.136 .052 .14 .043 .164 .013l.061 -.078l.096 .015l.65 .098l.141 .019v.073c.1 .002 .247 .02 .325 .13c.273 .089 .505 .167 .754 .365l.05 .039l.037 -.01l.064 .054c.042 .036 .08 .062 .122 .09c.07 .043 .151 .093 .219 .186l.015 .016c.274 .308 .586 .654 .782 1.014c.091 .141 .131 .289 .17 .433c.044 .17 .085 .317 .202 .437l.036 .037l.01 .05l.098 .534c.146 .79 .296 1.606 .31 2.365c.079 .531 .092 1.132 .103 1.712c.014 .517 .022 1.005 .074 1.447l.003 .016l.033 2.933v.093l-.038 .022c.031 .05 .081 .151 .028 .261c-.075 .553 -.062 1.117 -.044 1.713c.015 .611 .032 1.243 -.052 1.894l-.022 .174l-.173 -.034a.748 .748 0 0 0 -.391 .029l-.213 .063v-.182a.317 .317 0 0 1 -.26 -.04l-.01 -.001a.194 .194 0 0 1 -.102 -.18v-.435l-.136 -.112l.163 -.055l-.174 -.175h.212a.329 .329 0 0 1 .018 -.155a.29 .29 0 0 1 .086 -.097l-.057 -.076c.005 -.01 .01 -.054 .014 -.086c.005 -.067 .019 -.2 .112 -.287c-.003 -.006 -.003 -.013 -.006 -.016c-.012 -.043 -.029 -.106 -.048 -.125l-.22 -.27h.13c0 -.076 .026 -.14 .047 -.188l-.179 -.21l.148 -.076c0 -.036 .003 -.077 .005 -.11a.653 .653 0 0 0 0 -.174l-.016 -.119l.025 -.013c-.01 -.046 -.01 -.09 -.01 -.117v-.213c-.01 -.048 -.015 -.09 -.02 -.13a.589 .589 0 0 0 -.02 -.113l-.008 -.211l.18 -.002h.018c.008 -.013 .015 -.043 .024 -.067c.012 -.04 .029 -.1 .062 -.156l-.219 -.123l.01 -.02c.027 -.042 .04 -.09 .058 -.146a.773 .773 0 0 1 .027 -.096l-.127 -.019l.016 -.154a.343 .343 0 0 1 .115 -.226l-.02 -.018a.22 .22 0 0 1 -.02 -.199l.014 -.046l-.045 -.181l.137 -.064a.294 .294 0 0 1 .04 -.046l-.062 -.216h.08a.613 .613 0 0 0 -.085 -.095c-.097 -.097 -.256 -.26 -.193 -.483c-.061 -.03 -.07 -.106 -.075 -.104l.07 -.125c-.026 -.08 0 -.15 .027 -.199l-.053 -.106l.104 -.032v-.064a.48 .48 0 0 1 .007 -.107l.024 -.007a.183 .183 0 0 1 -.089 -.112l-.032 -.092l.035 -.038c-.003 -.01 -.01 -.022 -.01 -.037a.193 .193 0 0 1 .053 -.142a1.28 1.28 0 0 1 -.028 -.07c-.052 -.137 -.12 -.302 -.069 -.476l.005 -.028l.016 -.023c.034 -.047 .038 -.112 .038 -.21c.003 -.055 .005 -.118 .017 -.185h-.065l.034 -.194c.006 -.018 .014 -.033 .018 -.05c-.046 -.009 -.104 -.024 -.1 -.032l.042 -.169a.477 .477 0 0 0 -.011 -.087c-.013 -.085 -.032 -.202 .045 -.306c.002 -.005 .01 -.01 .015 -.016c-.168 -.278 -.1 -.626 -.045 -.892l.014 -.072l-.009 -.024a.352 .352 0 0 1 -.043 -.164l-.062 -.034l-.083 -.116l.04 -.144l.056 -.056a.501 .501 0 0 1 -.044 -.11l-.058 -.084l-.011 -.125c.017 -.098 .011 -.158 .084 -.213a.326 .326 0 0 1 -.034 -.028c-.092 -.074 -.29 -.23 -.144 -.51l.025 -.058c-.007 -.022 -.018 -.043 -.027 -.063c-.036 -.074 -.088 -.178 -.08 -.288l-.023 -.014l-.11 -.108l.043 -.122c-.004 -.02 -.012 -.043 -.016 -.062c-.02 -.054 -.06 -.186 -.012 -.294c-.168 -.177 -.229 -.445 -.276 -.658l-.124 -.01v-.161c0 -.172 -.279 -.57 -.555 -.86c-.126 -.004 -.284 -.053 -.358 -.152l-.033 -.041a.29 .29 0 0 0 -.068 -.051a.912 .912 0 0 1 -.164 -.113c-.239 .04 -.404 -.14 -.499 -.245c-.014 -.02 -.032 -.039 -.047 -.057l-.08 .117l-.13 -.069c-.367 -.195 -.772 -.144 -1.243 -.082l-.158 .019l-.121 .016l-.006 -.012a.194 .194 0 0 1 -.151 -.022c-.03 -.014 -.05 -.011 -.133 .019a2.04 2.04 0 0 1 -.12 .031c-.046 .079 -.129 .099 -.176 .113l-.015 .002l-.066 .065l-.101 -.044c-.101 -.05 -.154 -.024 -.302 .098c-.09 .07 -.2 .156 -.342 .19c-.041 .047 -.112 .077 -.23 .067a1.109 1.109 0 0 1 -.308 .251c-.14 .09 -.229 .146 -.255 .246l-.023 .09l-.087 .026c-.183 .052 -.249 .162 -.342 .322a1.369 1.369 0 0 1 -.247 .321c.007 .021 .01 .042 .012 .065c0 .122 -.09 .2 -.148 .246c-.012 .012 -.025 .023 -.037 .037v.047c-.03 .231 -.139 .404 -.233 .556c-.09 .137 -.162 .246 -.162 .382v.011a.207 .207 0 0 1 .067 .184l-.01 .106c-.023 .306 -.054 .621 -.179 .88c.046 .126 .016 .25 -.009 .358c-.019 .09 -.038 .173 -.019 .246l.012 .04l-.01 .039a1.5 1.5 0 0 0 -.023 .244a1.517 1.517 0 0 1 -.042 .355c.038 .09 .02 .181 -.055 .267l.012 .022l-.002 .041a9.963 9.963 0 0 0 0 .467c.007 .331 .012 .644 -.063 .987c.029 .3 .019 .622 .011 .938c-.01 .355 -.022 .717 .02 1.055v.016c.004 .266 .018 .554 .028 .855c.031 .717 .061 1.528 .007 2.217c.048 .154 .034 .307 .017 .442c-.02 .149 -.035 .276 .03 .406l.02 .044l-.003 .043a9.719 9.719 0 0 1 -.025 .285c-.036 .375 -.077 .801 .019 1.126l.009 .031l-.002 .034c-.004 .02 -.004 .046 -.007 .076c-.007 .125 -.016 .365 -.256 .432l-.09 .028l-.07 -.063c-.32 -.308 -.32 -.707 -.322 -1.062c0 -.188 -.002 -.363 -.047 -.506l-.045 -.14l.064 -.03a.24 .24 0 0 1 -.02 -.19l-.007 .026l.03 -.199c-.09 -.199 -.065 -.399 -.046 -.564c.015 -.112 .027 -.22 -.002 -.287l.002 .007l-.025 -.058a.312 .312 0 0 1 .03 -.225l.02 -.038c.002 -.006 .008 -.013 .01 -.02l-.143 -.109l.115 -.11c-.094 -.173 -.042 -.378 -.002 -.534c.045 -.181 .068 -.298 .007 -.386l-.08 -.113l.08 -.08a.185 .185 0 0 1 .034 -.093a.449 .449 0 0 1 -.062 -.303l.002 -.021l-.072 -.188l-.008 -.021l.063 -.023a.184 .184 0 0 1 -.087 -.071a.238 .238 0 0 1 -.023 -.162l-.207 -.21l.203 -.071c-.016 -.079 -.031 -.205 .04 -.311c-.043 -.112 -.117 -.321 .034 -.481c-.003 -.02 -.012 -.056 -.016 -.078a.534 .534 0 0 1 -.003 -.337c-.065 -.114 -.038 -.246 -.02 -.31a.254 .254 0 0 0 .01 -.053l-.102 -.222l.158 -.043a.405 .405 0 0 1 -.01 -.05c-.09 -.093 -.082 -.223 -.078 -.294v-.028l-.087 -.103l.087 -.158c.031 -.043 .03 -.089 .012 -.194a.797 .797 0 0 1 -.007 -.26l-.14 -.098l.012 -.061l.076 -.16c.005 -.009 .016 -.043 .016 -.159a.174 .174 0 0 1 .031 -.12a.166 .166 0 0 1 .036 -.039c-.05 -.149 -.002 -.317 .04 -.455c.042 -.144 .087 -.296 .03 -.39l-.075 -.125l.106 -.084a.491 .491 0 0 0 -.01 -.092c-.014 -.092 -.033 -.235 .048 -.357c-.022 -.222 .004 -.42 .03 -.617c.028 -.2 .053 -.392 .026 -.6l-.018 -.103l.069 -.041a.563 .563 0 0 0 .005 -.07c0 -.05 0 -.13 .03 -.21l-.047 -.037l.106 -.132c.025 -.033 .03 -.067 .042 -.13c.015 -.08 .032 -.186 .12 -.288a.33 .33 0 0 0 .015 -.074c.014 -.078 .033 -.195 .113 -.283c.02 -.12 .118 -.185 .158 -.208l-.033 -.076l.052 -.07c.163 -.25 .38 -.478 .587 -.7a5.78 5.78 0 0 0 .475 -.546s.076 -.105 .086 -.104l.12 .051c.006 .003 .013 .003 .023 .005v-.168h.213a.366 .366 0 0 1 .103 -.067l-.048 -.048l.218 -.096c.104 -.046 .291 -.132 .35 -.201l.045 -.055l.068 -.005c.037 -.003 .052 -.014 .095 -.046a.562 .562 0 0 1 .278 -.127l.037 -.03c.075 -.062 .207 -.17 .383 -.121l-.037 -.162l.398 -.005h.432a.613 .613 0 0 1 .312 -.066l.019 -.127zm-12.497 0l.271 .08a.744 .744 0 0 1 .076 .047l.035 -.037l.078 .007c.075 .007 .144 .033 .207 .054c.138 .052 .145 .043 .165 .013l.06 -.078l.097 .015l.654 .098l.139 .019v.073c.1 .002 .247 .02 .324 .13c.274 .089 .507 .167 .754 .365l.052 .039l.037 -.01l.06 .054c.042 .036 .08 .062 .122 .09a.732 .732 0 0 1 .222 .186l.014 .016c.276 .308 .587 .654 .782 1.014c.09 .141 .13 .289 .167 .433c.046 .17 .086 .317 .203 .437l.038 .037l.007 .05l.1 .534c.145 .79 .296 1.606 .309 2.365c.079 .531 .093 1.132 .105 1.712c.012 .517 .02 1.005 .075 1.447v.016l.034 2.933v.093l-.038 .022c.033 .05 .08 .151 .033 .261c-.079 .553 -.064 1.117 -.048 1.713c.017 .611 .034 1.243 -.049 1.894l-.022 .174l-.173 -.034a.757 .757 0 0 0 -.394 .029l-.209 .063v-.182a.325 .325 0 0 1 -.264 -.04a.19 .19 0 0 1 -.11 -.18v-.436l-.137 -.112l.165 -.055l-.177 -.175h.213a.273 .273 0 0 1 .02 -.155a.254 .254 0 0 1 .085 -.097l-.057 -.076c.004 -.01 .007 -.054 .012 -.086c.008 -.067 .021 -.2 .111 -.287a.031 .031 0 0 0 -.004 -.016a.368 .368 0 0 0 -.048 -.125l-.221 -.27h.132c0 -.076 .023 -.14 .045 -.19l-.177 -.208l.148 -.076c-.003 -.036 .003 -.077 .004 -.11a.792 .792 0 0 0 0 -.174l-.019 -.119l.027 -.013c-.01 -.046 -.01 -.09 -.01 -.117v-.213a.67 .67 0 0 1 -.02 -.13a.47 .47 0 0 0 -.02 -.113l-.01 -.211l.184 -.002h.016a.375 .375 0 0 0 .024 -.067c.011 -.04 .031 -.1 .061 -.156l-.219 -.123a.057 .057 0 0 1 .012 -.02c.025 -.042 .038 -.09 .054 -.146a.798 .798 0 0 1 .03 -.096l-.126 -.019l.015 -.154a.356 .356 0 0 1 .115 -.226c-.006 -.007 -.015 -.013 -.02 -.018a.21 .21 0 0 1 -.02 -.199l.015 -.046l-.045 -.181l.134 -.064c.014 -.016 .03 -.035 .043 -.046l-.063 -.216h.081a.958 .958 0 0 0 -.083 -.095c-.098 -.097 -.26 -.26 -.193 -.483c-.062 -.03 -.074 -.106 -.075 -.104l.07 -.125c-.029 -.08 0 -.15 .023 -.199l-.049 -.106l.101 -.032v-.107c.002 -.032 .003 -.064 .006 -.064l.027 -.007a.181 .181 0 0 1 -.09 -.112l-.034 -.092l.038 -.038a.094 .094 0 0 1 -.009 -.037a.195 .195 0 0 1 .05 -.142c-.007 -.022 -.017 -.046 -.026 -.07c-.054 -.137 -.117 -.302 -.07 -.476l.007 -.028l.014 -.023c.035 -.047 .038 -.112 .04 -.21c.003 -.055 .004 -.118 .013 -.185h-.065l.038 -.194c.002 -.018 .01 -.033 .014 -.05c-.045 -.009 -.103 -.024 -.101 -.032l.043 -.169c.005 -.014 -.005 -.06 -.007 -.087c-.014 -.085 -.032 -.202 .043 -.306a.086 .086 0 0 0 .014 -.016c-.165 -.278 -.1 -.626 -.045 -.892l.016 -.072c-.004 -.005 -.007 -.017 -.009 -.024c-.018 -.04 -.047 -.1 -.042 -.164l-.066 -.034l-.08 -.116l.038 -.144l.057 -.056c-.021 -.037 -.03 -.072 -.04 -.094l-.005 -.017l-.053 -.083l-.014 -.125c.015 -.098 .014 -.158 .087 -.213a.106 .106 0 0 1 -.036 -.028c-.094 -.074 -.292 -.23 -.144 -.51l.027 -.058l-.03 -.063a.57 .57 0 0 1 -.08 -.288l-.025 -.014l-.106 -.108l.039 -.122l-.016 -.062c-.019 -.054 -.06 -.186 -.012 -.294c-.168 -.177 -.23 -.445 -.277 -.658l-.121 -.01v-.161c0 -.172 -.278 -.57 -.557 -.86c-.124 -.004 -.282 -.053 -.358 -.152l-.03 -.041l-.071 -.051a.836 .836 0 0 1 -.162 -.113c-.238 .04 -.403 -.14 -.497 -.245c-.015 -.02 -.033 -.039 -.05 -.057l-.078 .117l-.132 -.069c-.367 -.195 -.772 -.144 -1.244 -.082l-.157 .019l-.12 .016l-.005 -.012a.2 .2 0 0 1 -.153 -.022c-.028 -.014 -.05 -.011 -.133 .019a1.21 1.21 0 0 1 -.119 .031c-.049 .079 -.13 .099 -.179 .113l-.011 .002l-.066 .065l-.1 -.044c-.103 -.05 -.152 -.024 -.303 .098c-.09 .07 -.198 .156 -.341 .19c-.042 .047 -.114 .077 -.231 .067a1.109 1.109 0 0 1 -.308 .251c-.14 .09 -.227 .146 -.256 .246l-.022 .09l-.088 .026c-.184 .052 -.25 .162 -.341 .322c-.064 .103 -.132 .219 -.246 .321c.005 .021 .01 .042 .01 .065c.002 .122 -.087 .2 -.147 .246a.235 .235 0 0 0 -.036 .037l-.003 .047c-.028 .231 -.137 .404 -.234 .556c-.087 .137 -.157 .246 -.157 .382v.011a.21 .21 0 0 1 .066 .184l-.01 .106c-.026 .306 -.054 .621 -.181 .88c.044 .126 .015 .25 -.007 .358c-.02 .09 -.04 .173 -.019 .246l.01 .04l-.007 .039c-.019 .073 -.022 .156 -.026 .244a1.387 1.387 0 0 1 -.043 .355c.038 .09 .022 .181 -.052 .267l.01 .022v.041a9.963 9.963 0 0 0 0 .467c.004 .331 .01 .644 -.066 .987c.03 .3 .02 .622 .012 .938c-.012 .355 -.021 .717 .019 1.055l.002 .016c.004 .266 .015 .554 .027 .855c.028 .717 .062 1.528 .004 2.217c.05 .154 .034 .307 .018 .442c-.02 .149 -.036 .276 .03 .406l.019 .044l-.002 .043c-.007 .092 -.017 .185 -.025 .285c-.038 .375 -.077 .801 .02 1.126l.009 .031l-.005 .034c-.002 .02 -.005 .046 -.005 .076c-.008 .125 -.019 .365 -.257 .432l-.092 .028l-.068 -.063c-.32 -.308 -.32 -.707 -.32 -1.062c-.003 -.188 -.005 -.363 -.049 -.506l-.044 -.14l.065 -.03a.237 .237 0 0 1 -.02 -.19l-.008 .026l.028 -.199c-.087 -.199 -.062 -.399 -.044 -.564c.014 -.112 .029 -.22 -.002 -.287l.009 .016c-.085 -.134 -.02 -.264 .019 -.33l.01 -.02l-.143 -.109l.113 -.11c-.092 -.173 -.042 -.378 -.002 -.534c.045 -.181 .068 -.298 .007 -.386l-.08 -.113l.08 -.08a.186 .186 0 0 1 .035 -.093a.444 .444 0 0 1 -.063 -.303l.005 -.021l-.076 -.188c0 -.007 -.005 -.014 -.007 -.021l.063 -.023a.182 .182 0 0 1 -.086 -.071a.23 .23 0 0 1 -.025 -.162l-.207 -.21l.202 -.071c-.014 -.079 -.031 -.205 .04 -.311c-.04 -.112 -.115 -.321 .036 -.481c-.002 -.02 -.013 -.056 -.017 -.078c-.02 -.086 -.051 -.21 -.002 -.337c-.066 -.114 -.035 -.246 -.018 -.31c.002 -.018 .007 -.038 .009 -.053l-.104 -.222l.16 -.043c-.007 -.016 -.009 -.031 -.012 -.05c-.087 -.093 -.082 -.223 -.078 -.294v-.028l-.086 -.103l.088 -.158c.03 -.043 .029 -.089 .01 -.194a.821 .821 0 0 1 -.007 -.26l-.141 -.098l.013 -.061l.078 -.16a.452 .452 0 0 0 .015 -.159a.196 .196 0 0 1 .03 -.12a.196 .196 0 0 1 .038 -.039c-.052 -.149 -.002 -.317 .036 -.455c.045 -.144 .09 -.296 .033 -.39l-.075 -.125l.106 -.084a.41 .41 0 0 0 -.009 -.092c-.013 -.092 -.033 -.235 .05 -.357c-.023 -.222 .002 -.42 .028 -.617c.028 -.2 .055 -.392 .026 -.6l-.017 -.103l.07 -.041c.002 -.021 .002 -.047 .002 -.07c0 -.05 .003 -.13 .034 -.21l-.047 -.037l.103 -.132c.027 -.033 .034 -.067 .043 -.13a.567 .567 0 0 1 .122 -.288a.39 .39 0 0 0 .014 -.074a.507 .507 0 0 1 .113 -.283c.016 -.12 .115 -.185 .155 -.208l-.033 -.076l.052 -.07c.166 -.25 .38 -.478 .588 -.7c.178 -.187 .345 -.367 .474 -.546c0 0 .075 -.105 .087 -.104l.117 .051c.006 .003 .015 .003 .024 .005v-.168h.212a.392 .392 0 0 1 .105 -.067l-.049 -.048l.222 -.096c.099 -.046 .287 -.132 .348 -.201l.043 -.055l.068 -.005c.038 -.003 .052 -.014 .094 -.046a.57 .57 0 0 1 .281 -.127l.038 -.03c.073 -.062 .208 -.17 .381 -.121l.008 -.008l-.044 -.154l.398 -.005h.432a.618 .618 0 0 1 .31 -.066l.021 -.127zm13.44 -4.172h.03l.011 .001l.045 .001l7.444 .154c.93 .014 1.86 .005 2.76 -.007l.072 -.002h.052c1.798 -.018 3.494 -.037 5.273 .132c.278 -.123 .692 -.029 .966 .135l.014 .011a.655 .655 0 0 1 .111 .801l-.018 .027l-.469 .371l.002 .012l-.055 .018l-.002 -.012c-.881 .021 -1.767 -.043 -2.706 -.114c0 0 -.026 0 -.03 -.003c-1.249 -.089 -2.54 -.183 -3.788 -.062h-.017l-1.406 -.15c-2.969 -.229 -5.35 -.305 -7.503 -.248a1.81 1.81 0 0 1 -.315 -.043s-.036 -.005 -.043 -.008c-.23 -.046 -.451 -.09 -.692 -.007l-.048 .01c-.276 -.074 -.578 -.068 -.871 -.063c-.306 .007 -.597 .01 -.85 -.06a2.503 2.503 0 0 0 -.32 .05l-.036 .006c-.235 .049 -.48 .097 -.71 .044c-1.114 .044 -2.223 .037 -3.294 .032h-.129c-1.655 -.012 -3.367 -.02 -5.07 .15h-.014c-.04 .004 -.094 .006 -.167 .007h-.171c-.166 0 -.392 -.003 -.701 0l-2.318 .011l-1.09 .003h-1.102c-.892 -.002 -1.4 -.009 -1.52 -.023c-.262 -.026 -.354 -.2 -.35 -.352c.009 -.276 .302 -.614 .548 -.63c.072 -.005 .65 -.005 1.75 -.01c.786 0 1.775 -.004 2.777 -.009l.752 -.004a209.12 209.12 0 0 0 3.44 -.04c1.39 -.042 2.754 -.078 4.16 -.09a89.763 89.763 0 0 1 5.596 -.039z"/></svg>