<svg xmlns="http://www.w3.org/2000/svg" width="48" height="48" viewBox="0 0 48 48" fill="currentColor"><path d="m24.396.004.58-.002c12.689-.143 22.507 7.945 22.64 19.812.092 7.847-4.563 14.945-9.801 17.679-1.873 1.129-5.01 1.681-6.17 1.681H13.687c-.138-.012-.46-.107-.46-.732 0-.795.295-.912.872-.912s2.78-.448 2.839-1.416l.017-1.421c.004-.785.007-1.847.008-3.084l-.027-19.166c-.013-.24-.121-1.274-1.042-1.474l-.968-.201-.766-.143c-.012 0-.646-.171-.646-.74 0-.567.286-.903 1.1-.903l9.73.002c.232.014 1.103.118 1.103.902 0 .904-.348.904-.982 1.083-.635.178-1.504 0-1.504 1.353l-.003 20.893c-.017.38-.067 3.146 2.203 3.352l1.504.137c2.578.213 6.25.328 8.869-1.213q.32-.172.63-.36l.003-.024c4.382-2.484 8.012-9.626 7.946-15.448-.128-10.644-8.727-16.872-18.97-16.756-12.365.139-20.765 9.724-20.632 21.591-.033 10.85 8.388 19.848 19.216 20.534 4.063.489 9.79-.792 15.515-3.778a29.3 29.3 0 0 0 6.79-4.865 23.84 23.84 0 0 1-20.23 11.613c-14.267.159-24.639-10.307-24.8-23.919A23.794 23.794 0 0 1 24.396.004m1.729 9.8c-.055-.953 1.185-.703 1.185-.703l.4-.005c3.116.016 8.62 1.191 9.09 6.197.493 5.228-3.333 6.514-3.866 6.676l-.587.166c-.398.117-.754.251-.728.439.023.164.451.301.804.387l.466.097s5.105 1.407 5.105 5.71c0 6.813-6.969 7.359-8.418 7.398l-.262.003a6.09 6.09 0 0 0 2.587-5.43 8.53 8.53 0 0 0-1.451-4.77 5.1 5.1 0 0 0-3.553-1.86h-3.138v-2.267c1.27.085 2.547.033 3.807-.153 1.132-.298 2.877-1.562 3.144-4.983a4.96 4.96 0 0 0-3.092-5.285l-.395-.156c-.777-.329-1.051-.634-1.098-1.46"/></svg>