<svg xmlns="http://www.w3.org/2000/svg" width="48" height="48" viewBox="0 0 48 48" fill="currentColor"><path d="M22.933 42.497c-.21 .391 -.479 .656 -.885 .737a2.054 2.054 0 0 1 -1.198 -.138a1.6 1.6 0 0 1 -.848 -.787c-.181 -.365 -.12 -.742 .009 -1.181c-.45 .638 -1.21 .804 -1.878 .496c-.917 -.424 -1.251 -1.193 -.875 -2.07c1.132 -2.657 2.258 -5.265 3.395 -7.918c.103 -.241 .19 -.49 .304 -.73c.101 -.212 .165 -.369 .261 -.498a.914 .914 0 0 1 .267 -.24c-1.758 .192 -2.604 .877 -3.07 1.18c-.123 .082 -.116 .094 -.59 -.053a.838 .838 0 0 0 -.631 .068a4.694 4.694 0 0 0 -.617 .388c-.63 .486 -1.274 .956 -1.87 1.48c-.278 .246 -.677 .663 -.623 1.04c.044 .351 .909 1.162 1.167 1.404c.614 .573 -.314 1.65 -1.55 1.548c.329 -.341 .406 -.631 .364 -.889c-.122 0 -.358 .022 -.58 -.175c-.267 -.237 -.148 -.938 -.395 -1.176c-.435 -.419 -1.859 -.457 -2.71 -.493c-.357 -.015 -.731 -.11 -.704 -.66c-.541 .036 -.654 .434 -.654 .792c-.465 -.26 -.863 -1.506 .854 -1.79c-.29 -.26 -.771 -.355 -1.068 -.023c-.279 -.457 .427 -1.356 1.699 -.85c-.004 -.003 .572 -.747 2.29 1.155c.217 -.16 .432 -.32 .63 -.5c.665 -.598 2.34 -2.218 2.34 -2.218c0 -.91 .139 -2.674 1.357 -3.732c.519 -.451 1.016 -.69 2.114 -.887c0 0 -.531 -.822 -.614 -1.145c-.958 .945 -2.883 1.228 -2.883 -.367c-1.568 1.548 -3.026 .713 -3.026 -.259a6.287 6.287 0 0 1 -.335 1.444c-.197 .522 -.916 2.523 -2.77 2.523c-.042 .696 -.046 2.983 -2.262 3.495c-.095 .022 -.217 .055 -.278 .127c-.895 1.1 -4.615 2.255 -5.07 1.943c.288 -.205 .744 -.475 .816 -1.766c.046 -.852 .14 -5.273 .14 -11.5c0 -2.204 .241 -9.344 7.39 -10.339c1.086 -.15 2.153 -.072 3.077 .605c1.258 .93 1.877 2.491 1.137 4.26c-.025 .065 -.043 .127 -.077 .184c-.251 .421 -.148 .784 .18 1.107c.596 .586 1.291 .982 2.128 1.078c.528 .06 .965 -.17 1.315 -.528c.802 -.816 1.346 -1.775 1.543 -2.901c.373 -2.14 -.205 -3.213 -.238 -3.28c-.582 -1.153 -1.817 -1.998 -3.249 -2.118c-.655 -1.21 -2.537 -.732 -2.537 -.732c-.472 .102 -.638 .234 -.755 .464c0 0 -.826 -1.242 -.048 -1.74c.78 -.5 2.52 -.705 2.52 -.705c0 -.809 1.355 -1.438 3.802 -1.006c2.96 .522 3.596 -.621 3.596 -.621c.124 1.398 -.96 2.12 -1.307 2.315c1.124 1.203 2.693 3.607 3.066 7.018c.375 -3.41 1.944 -5.815 3.067 -7.018c-.348 -.195 -1.43 -.917 -1.307 -2.315c0 0 .636 1.143 3.596 .62c2.448 -.431 3.803 .198 3.803 1.007c0 0 1.74 .204 2.52 .705c.778 .498 -.05 1.74 -.05 1.74c-.116 -.23 -.282 -.361 -.754 -.464c0 0 -1.882 -.478 -2.537 .732c-1.432 .12 -2.666 .965 -3.248 2.118c-.033 .067 -.577 1.13 -.24 3.28c.178 1.128 .742 2.085 1.545 2.9c.35 .36 .786 .588 1.315 .529c.836 -.096 1.532 -.493 2.129 -1.078c.326 -.323 .429 -.686 .179 -1.107c-.035 -.057 -.054 -.12 -.077 -.183c-.741 -1.769 -.12 -3.333 1.137 -4.26c.923 -.677 1.991 -.758 3.075 -.606c7.15 .995 7.39 8.135 7.39 10.34c0 6.226 .096 10.647 .14 11.499c.073 1.29 .529 1.561 .818 1.766c-.456 .313 -4.176 -.843 -5.071 -1.943c-.061 -.072 -.182 -.105 -.277 -.127c-2.216 -.512 -2.22 -2.8 -2.262 -3.495c-1.854 0 -2.574 -2 -2.771 -2.523a6.286 6.286 0 0 1 -.335 -1.444c0 .972 -1.457 1.807 -3.025 .259c0 1.595 -1.926 1.312 -2.883 .367c-.084 .323 -.616 1.145 -.616 1.145c1.1 .196 1.596 .436 2.116 .887c1.217 1.059 1.355 2.822 1.355 3.732c0 0 1.677 1.62 2.343 2.218c.196 .18 .41 .34 .629 .5c1.717 -1.902 2.293 -1.158 2.29 -1.155c1.27 -.506 1.977 .394 1.699 .849c-.297 -.331 -.78 -.236 -1.07 .024c1.718 .284 1.32 1.53 .856 1.79c0 -.358 -.114 -.756 -.654 -.792c.027 .55 -.348 .645 -.706 .66c-.85 .036 -2.274 .074 -2.71 .493c-.246 .238 -.126 .939 -.394 1.176c-.22 .197 -.457 .174 -.58 .175c-.041 .258 .036 .548 .365 .89c-1.237 .102 -2.165 -.976 -1.55 -1.55c.256 -.24 1.122 -1.052 1.166 -1.402c.055 -.378 -.345 -.795 -.623 -1.04c-.597 -.525 -1.239 -.995 -1.87 -1.48a4.694 4.694 0 0 0 -.617 -.39a.838 .838 0 0 0 -.63 -.067c-.474 .147 -.467 .135 -.592 .054c-.465 -.304 -1.31 -.989 -3.07 -1.179c.12 .072 .201 .15 .268 .238c.097 .13 .16 .286 .261 .499c.114 .24 .202 .488 .305 .729c1.137 2.653 2.262 5.261 3.394 7.917c.377 .878 .042 1.648 -.874 2.07c-.67 .309 -1.43 .144 -1.878 -.494c.13 .438 .19 .815 .007 1.18c-.173 .359 -.475 .64 -.846 .787a2.054 2.054 0 0 1 -1.198 .138c-.407 -.081 -.677 -.346 -.886 -.737c-.035 .868 -.611 1.503 -1.567 1.503c-.955 -.001 -1.53 -.635 -1.566 -1.503z"/></svg>