<svg xmlns="http://www.w3.org/2000/svg" width="48" height="48" viewBox="0 0 48 48" fill="currentColor"><path d="M33.707 1.87c.809 .209 1.605 .46 2.379 .773c.416 .169 .808 .37 1.112 .72c.145 .164 .33 .299 .555 .355c.04 .011 .072 .046 .106 .07c0 .023 .002 .045 .035 .028l.091 .008c.02 .065 .048 .068 .087 .013c.121 .044 .212 .15 .345 .17c.028 .05 .073 .078 .13 .086l.23 .256c-.02 .07 .023 .104 .073 .137c.07 .316 .033 .622 -.087 .921c-.028 -.008 -.039 0 -.028 .03c-.143 .328 -.132 .265 -.622 .662c-.03 -.011 -.04 .006 -.043 .032c-.016 .005 -.029 .01 -.044 .013c-.03 -.01 -.039 .007 -.043 .03l-.174 .053c-.028 -.005 -.039 .01 -.039 .037c-.169 .05 -.334 .115 -.507 .158c-.256 .065 -.468 .223 -.694 .358c-.238 .143 -.399 .34 -.535 .572c-.024 0 -.044 .007 -.029 .037c-.028 .347 .018 .687 .107 1.023c.013 .048 .01 .1 .015 .15c-.017 .063 .024 .089 .071 .113c.035 .232 .115 .45 .196 .668c.036 .1 .084 .197 .09 .305c-.015 .028 0 .035 .027 .033c.108 .243 .223 .486 .277 .748c-.015 .032 .005 .035 .028 .032c.2 .512 .369 1.032 .447 1.579c.056 .39 .052 .776 -.052 1.16a6.296 6.296 0 0 1 -.308 .921c-.026 -.002 -.039 .003 -.026 .033c-.063 .295 -.197 .564 -.32 .835c-.027 -.002 -.04 .004 -.029 .032a.98 .98 0 0 1 -.145 .356c-.026 -.002 -.041 .006 -.03 .035l-.15 .287l-.276 .584c-.03 .063 -.073 .122 -.11 .182c-.026 -.006 -.037 .002 -.028 .028a25.47 25.47 0 0 1 -1.24 2.216c-.224 .363 -.454 .72 -.662 1.089c-.102 .182 -.1 .19 .06 .323c.118 .095 .241 .184 .363 .275c.178 .137 .33 .297 .488 .456c.201 .203 .45 .362 .629 .59c.195 .251 .44 .45 .652 .682c.722 .785 1.414 1.59 1.93 2.533c.57 1.04 1.097 2.099 1.429 3.244c.475 1.639 .663 3.308 .557 5.01a14.993 14.993 0 0 1 -.93 4.367c-.018 .048 -.028 .096 -.041 .146c-.05 .017 -.091 .039 -.05 .102l-.028 .047c-.055 .044 -.09 .096 -.059 .17l-.03 .047c-.026 .002 -.044 .009 -.033 .04l-.036 .066a.077 .077 0 0 0 .004 .074c-.063 .007 -.052 .04 -.03 .078a.691 .691 0 0 1 -.035 .05c-.026 -.002 -.044 .004 -.033 .035c-.013 .132 -.098 .236 -.143 .355c-.026 -.002 -.041 .007 -.03 .035c-.05 .1 -.122 .19 -.133 .308a.44 .44 0 0 0 -.13 .26c-.1 .102 -.145 .234 -.197 .362a1.226 1.226 0 0 1 -.16 .297c-.027 -.006 -.037 .005 -.03 .03c-.02 .107 -.088 .19 -.142 .278c-.054 .02 -.084 .056 -.078 .117c-.121 .256 -.301 .477 -.457 .71a8.376 8.376 0 0 1 -.664 .882c-.104 .117 -.2 .26 -.308 .373c-.355 .379 -.661 .808 -1.097 1.11a.718 .718 0 0 0 -.167 .167a.786 .786 0 0 1 -.223 .2c-.028 -.014 -.035 -.003 -.026 .023c-.295 .26 -.607 .497 -.937 .716c-.169 .11 -.353 .208 -.51 .338c-.03 -.009 -.038 .006 -.038 .032c-.137 .013 -.213 .133 -.326 .191c-.188 .096 -.373 .204 -.56 .306c-.162 .089 -.342 .13 -.504 .21c-.03 -.015 -.04 .005 -.044 .028c-.524 .215 -1.058 .408 -1.606 .56c-.568 .158 -1.14 .31 -1.737 .316c-.035 0 -.07 .018 -.102 .029c-.017 -.024 -.039 -.046 -.024 -.08a8.761 8.761 0 0 0 1.743 -.417a12.386 12.386 0 0 0 3.907 -2.21c.274 -.227 .527 -.48 .788 -.726a13.218 13.218 0 0 0 2.038 -2.452c.312 -.484 .603 -.98 .863 -1.494c.635 -1.26 1.125 -2.572 1.396 -3.96c.256 -1.32 .332 -2.649 .26 -3.989c-.143 -2.723 -1.131 -5.139 -2.688 -7.344a15.83 15.83 0 0 0 -3.32 -3.465c-.31 -.236 -.28 -.15 -.093 -.464c.412 -.696 .843 -1.38 1.242 -2.083c.313 -.549 .61 -1.108 .894 -1.67c.349 -.692 .69 -1.388 .969 -2.11c.128 -.33 .223 -.67 .308 -1.014c.063 -.25 .06 -.499 .004 -.75c-.152 -.662 -.377 -1.301 -.616 -1.935c-.123 -.33 -.27 -.652 -.39 -.98c-.117 -.318 -.21 -.65 -.295 -.982c-.05 -.193 -.06 -.386 -.074 -.579a.75 .75 0 0 1 .18 -.518c.133 -.165 .3 -.28 .473 -.397c.362 -.243 .778 -.355 1.175 -.514c.206 -.082 .401 -.186 .59 -.299c.286 -.171 .431 -.444 .477 -.77a2.32 2.32 0 0 0 .002 -.52a.685 .685 0 0 0 -.41 -.585a2.078 2.078 0 0 0 -.498 -.183a1.415 1.415 0 0 1 -.75 -.44c-.163 -.173 -.306 -.377 -.532 -.462c-.295 -.11 -.55 -.299 -.854 -.394c-.5 -.16 -.997 -.34 -1.507 -.475l-.4 -.094a2.072 2.072 0 0 1 -.192 -.058c-.258 -.093 -.522 -.156 -.785 -.223a4.768 4.768 0 0 0 -.871 -.154c-.005 -.017 -.007 -.033 -.011 -.05c.81 -.05 1.587 .147 2.363 .345zm-20.692 -.344c.382 .039 .757 .121 1.132 .193c.525 .1 1.05 .182 1.585 .186c.035 0 .074 -.004 .1 .03c-1.19 .588 -2.316 1.289 -3.432 2.002a3.24 3.24 0 0 0 -.352 .254c-.225 .188 -.312 .423 -.223 .715c.052 .174 .124 .34 .208 .499c.52 .984 .95 2.008 1.336 3.05c.054 .148 .123 .293 .128 .456c-.035 .065 .017 .089 .058 .117c.015 .338 -.09 .646 -.249 .939c-.026 -.006 -.037 .002 -.026 .028c-.05 .091 -.1 .182 -.152 .271c-.058 .1 -.041 .202 -.015 .306l-.065 -.002h-.087c-.058 .015 -.058 .024 -.004 .084c.01 .13 .024 .26 -.009 .388c-.028 .109 -.043 .23 -.171 .28c-.078 .03 -.067 .1 -.059 .165c.011 .078 .022 .156 .026 .236c.003 .046 -.013 .091 -.069 .087c-.12 -.006 -.104 .078 -.1 .145c.009 .13 .03 .258 .044 .386c.008 .096 .013 .191 -.117 .215c-.07 .013 -.057 .078 -.055 .124c.009 .13 .029 .258 .035 .388c.004 .065 .03 .14 -.07 .18c-.056 .021 -.051 .097 -.056 .154c-.03 .338 -.024 .676 .002 1.016c.003 .029 .003 .061 .018 .085c.223 .345 .184 .759 .301 1.13c-.013 .028 .002 .032 .028 .03l.232 .572c-.008 .026 .003 .037 .029 .03c.275 .478 .594 .922 .958 1.336c.271 .308 .564 .597 .86 .876c.584 .547 1.191 1.065 1.9 1.449c.043 .024 .093 .043 .13 .102c-.015 .047 -.063 .08 -.104 .115c-.394 .338 -.754 .713 -1.106 1.092c-.821 .89 -1.602 1.813 -2.246 2.843c-.21 .336 -.408 .68 -.579 1.04c-.104 .22 -.186 .458 -.395 .612c-.04 .03 -.036 .076 -.032 .12c.006 .056 .015 .112 .024 .169c-.18 .036 -.18 .036 -.185 .21c-.002 .08 0 .16 -.015 .238c-.013 .076 -.021 .163 -.119 .187c-.035 -.01 -.065 -.013 -.065 .037c-.02 .058 .022 .11 .022 .167c0 .071 .045 .165 -.096 .162c-.052 -.002 -.054 .057 -.047 .1c.017 .128 .05 .254 -.107 .332c-.054 .028 -.021 .104 -.015 .16c.009 .07 .011 .122 -.074 .174c-.093 .056 -.052 .171 -.023 .266c.028 .098 .03 .19 -.109 .196c-.01 -.026 -.026 -.05 -.058 -.044c-.022 .005 -.029 .024 -.024 .046c.015 .078 .03 .154 .041 .232c.009 .071 .022 .145 -.087 .158c-.076 .01 -.054 .076 -.05 .121c.007 .094 .03 .187 .03 .278c.003 .11 .035 .232 -.088 .312c-.044 .028 -.035 .093 -.033 .141c.002 .13 .005 .258 .009 .388c.004 .146 .004 .286 -.095 .41c-.033 .04 -.037 .089 -.042 .139c-.062 .587 -.036 1.18 -.084 1.767c-.022 .273 -.037 .544 -.057 .817c-.032 .042 -.04 .085 -.008 .133a.185 .185 0 0 0 .07 -.126c.027 -.007 .073 -.05 .075 .015c.004 .115 0 .23 -.006 .347c-.007 .137 -.018 .273 0 .41c.006 .043 0 .102 .023 .126c.172 .158 .113 .357 .113 .548l-.002 .282c0 .05 0 .106 .063 .126c.07 .021 .074 .082 .087 .136c.006 .029 .017 .057 .015 .085c-.044 .494 .167 .926 .338 1.368c.195 .503 .36 1.02 .581 1.516c.4 .9 .896 1.74 1.477 2.534c.54 .735 1.149 1.41 1.819 2.028c.022 .02 .039 .043 .058 .063c-.006 .026 0 .036 .029 .026c.464 .39 .93 .776 1.43 1.123c.595 .41 1.21 .785 1.859 1.101c.705 .347 1.435 .636 2.19 .863c.26 .078 .522 .148 .785 .224c.06 .017 .119 .039 .175 .082c-.377 -.033 -.754 -.056 -1.13 -.1c-1.44 -.169 -2.818 -.566 -4.158 -1.108c-.301 -.121 -.618 -.214 -.893 -.386c-.26 -.16 -.52 -.32 -.79 -.457c-.7 -.358 -1.31 -.846 -1.914 -1.334c-.3 -.24 -.605 -.481 -.872 -.759c-.889 -.928 -1.678 -1.934 -2.316 -3.057a11.38 11.38 0 0 1 -.548 -1.058c-.393 -.898 -.724 -1.82 -.935 -2.782a13.928 13.928 0 0 1 -.258 -1.492c-.008 -.071 -.026 -.14 -.039 -.212a.143 .143 0 0 0 -.008 -.126c-.033 -.525 -.074 -1.047 -.063 -1.572c.004 -.245 .013 -.488 .02 -.733a.24 .24 0 0 0 .006 -.169c.015 -.145 .05 -.29 .037 -.438c.021 -.026 .021 -.054 .006 -.082c.048 -.38 .08 -.763 .15 -1.136c.07 -.38 .156 -.761 .25 -1.139c.097 -.392 .21 -.78 .324 -1.164c.133 -.445 .334 -.867 .52 -1.294a15.571 15.571 0 0 1 2.88 -4.38c.16 -.174 .3 -.369 .477 -.527c.065 -.057 .132 -.11 .198 -.165c.23 -.193 .429 -.418 .61 -.66c.05 -.064 .057 -.118 -.032 -.173c-.618 -.381 -1.157 -.86 -1.702 -1.34a9.328 9.328 0 0 1 -1.361 -1.459a5.352 5.352 0 0 1 -.904 -1.923l-.026 -.14l-.035 -.28a.925 .925 0 0 0 -.078 -.27c.063 -.175 .01 -.355 .015 -.533c.009 -.384 .03 -.765 .078 -1.145c.041 -.332 .126 -.652 .184 -.98c.059 -.33 .185 -.642 .258 -.965c.12 -.524 .339 -1.008 .568 -1.487c.03 -.06 .05 -.122 .033 -.187c-.065 -.255 -.122 -.514 -.215 -.76c-.22 -.59 -.457 -1.172 -.728 -1.737c-.141 -.295 -.271 -.595 -.432 -.88c-.169 -.304 -.282 -.643 -.4 -.974c-.092 -.254 -.04 -.477 .188 -.655c.25 -.197 .505 -.386 .77 -.562a36.312 36.312 0 0 1 2.428 -1.47c.12 -.065 .243 -.126 .362 -.188a.52 .52 0 0 1 .314 -.059zm14.795 21.108c.013 .004 .026 .01 .04 .017c-.003 .024 0 .046 .032 .026l.098 .018c0 .024 .002 .045 .032 .026c.408 .102 .794 .25 1.15 .475c.064 .04 .136 .086 .212 .1c.089 .017 .16 .062 .236 .101c1.839 .998 3.157 2.474 4.029 4.363c.169 .366 .323 .74 .472 1.116c.143 .367 .243 .74 .27 1.134c.084 1.256 .136 2.511 .053 3.767c-.008 .123 -.03 .242 -.065 .362a4.664 4.664 0 0 0 -.164 .687c-.037 .265 -.135 .516 -.22 .77c-.05 .147 -.22 .212 -.234 .358a1.2 1.2 0 0 1 -.117 .412c-.177 .379 -.403 .732 -.63 1.086a9.67 9.67 0 0 1 -3.613 3.322a8.765 8.765 0 0 1 -1.58 .637a7.635 7.635 0 0 1 -.877 .2c-1.19 .21 -2.224 .197 -3.27 .056a9.426 9.426 0 0 1 -1.22 -.267a7.504 7.504 0 0 1 -1.245 -.455c-.097 -.046 -.206 -.052 -.301 -.109c-.594 -.35 -1.184 -.704 -1.722 -1.142a8.019 8.019 0 0 1 -.672 -.594a9.822 9.822 0 0 1 -.852 -.996a11.539 11.539 0 0 1 -1.14 -1.888a9.464 9.464 0 0 1 -.45 -1.086a7.763 7.763 0 0 1 -.32 -1.405c-.132 -.944 -.11 -1.889 -.074 -2.834c.03 -.803 .258 -1.564 .527 -2.314c.098 -.27 .195 -.542 .312 -.806c.564 -1.275 1.397 -2.346 2.446 -3.255a9.01 9.01 0 0 1 1.507 -1.06a10.544 10.544 0 0 1 2.162 -.91c1.74 -.506 3.467 -.435 5.188 .088zm-4.431 -.124c-.19 .037 -.363 .122 -.545 .174c-.611 .169 -1.162 .466 -1.715 .763c-.03 -.01 -.039 .007 -.039 .033c-.082 -.01 -.12 .065 -.178 .097c-.03 -.01 -.039 .007 -.039 .033c-.026 .021 -.076 -.007 -.089 .043c-.028 .002 -.04 .015 -.043 .043c-.091 .011 -.15 .08 -.219 .13c-.026 .003 -.041 .016 -.041 .044c-.028 .02 -.076 -.002 -.089 .045c-.026 0 -.041 .013 -.039 .04a10.21 10.21 0 0 0 -1.334 1.17c-1.099 1.167 -1.851 2.53 -2.359 4.044c-.15 .449 -.225 .909 -.253 1.38c-.046 .74 -.061 1.484 -.044 2.228c.009 .425 .018 .852 .11 1.27c.172 .768 .443 1.503 .784 2.212c.295 .612 .644 1.19 1.051 1.735c.15 .2 .317 .384 .469 .579l.177 .2l.385 .372c.062 .064 .121 .13 .175 .202c.009 .01 .022 .02 .035 .026c.104 .039 .177 .12 .251 .197c-.006 .026 0 .037 .026 .024a.6 .6 0 0 1 .189 .15c-.007 .026 0 .039 .028 .026a.352 .352 0 0 1 .14 .104c-.004 .026 .003 .041 .033 .028c.263 .143 .464 .377 .744 .492c0 .026 .01 .04 .037 .035c.206 .117 .418 .23 .618 .355l.16 .081l.333 .127c.055 .023 .109 .049 .16 .08c.032 .036 .067 .064 .117 .031l.047 .028c.002 .02 .013 .035 .042 .03c.208 .04 .392 .144 .58 .23c.066 .03 .105 .042 .174 .005c.41 -.217 .826 -.419 1.236 -.638a7.103 7.103 0 0 0 2.105 -1.736c.555 -.666 .976 -1.41 1.338 -2.195c.432 -.936 .74 -1.908 .87 -2.935c.1 -.798 .123 -1.598 .15 -2.399a9.8 9.8 0 0 0 -.042 -1.513c.015 -.028 .017 -.054 -.004 -.08c0 -.044 .004 -.087 0 -.13a9.808 9.808 0 0 0 -.44 -2.088c-.52 -1.618 -1.451 -2.97 -2.7 -4.11a7.345 7.345 0 0 0 -1.034 -.773c-.135 -.085 -.304 -.104 -.425 -.2a.67 .67 0 0 0 -.358 -.128a1.586 1.586 0 0 0 -.535 .04zm9.585 -4.88a.32 .32 0 0 1 .05 .162c-.015 .041 -.02 .076 .028 .091a.656 .656 0 0 1 -.297 .538c-.342 .228 -.828 .121 -.971 -.258a.894 .894 0 0 1 .02 -.676a.28 .28 0 0 1 .119 -.122c.334 -.202 .852 -.071 1.051 .265zm-2.396 -9.105c.276 .156 .569 .284 .827 .47c.24 .172 .412 .393 .455 .694c-.02 .033 .002 .035 .026 .035c.269 .826 .438 1.672 .444 2.544c.007 .808 -.004 1.617 -.14 2.417c-.126 .74 -.404 1.416 -.89 1.988c-.672 .794 -1.554 1.108 -2.582 1.063a3.572 3.572 0 0 1 -1.349 -.345c-.787 -.366 -1.355 -.945 -1.493 -1.856a1.88 1.88 0 0 1 .173 -1.136c.17 -.351 .38 -.68 .6 -1.002c.792 -1.147 1.64 -2.255 2.485 -3.363c.369 -.481 .742 -.96 1.113 -1.44c.136 -.175 .14 -.175 .331 -.069zm-12.712 -.282c.197 .221 .382 .453 .568 .683a196.504 196.504 0 0 1 3.768 4.81c.326 .424 .464 .89 .402 1.417c-.052 .428 -.239 .8 -.508 1.132c-.412 .506 -.939 .85 -1.541 1.084a1.665 1.665 0 0 1 -.29 .08c-.237 .048 -.476 .044 -.742 .044a4.61 4.61 0 0 1 -.879 -.076c-.537 -.095 -.98 -.368 -1.39 -.707c-.058 -.047 -.093 -.125 -.143 -.186c-.678 -.824 -1.051 -1.767 -1.092 -2.836c-.042 -1.076 -.052 -2.151 .032 -3.227c.024 -.307 .074 -.613 .17 -.91c.08 -.245 .218 -.453 .36 -.662c.06 -.088 .155 -.143 .246 -.203c.243 -.159 .473 -.332 .714 -.49c.193 -.128 .143 -.157 .325 .047zm-2.47 7.67c.241 .077 .35 .266 .393 .498c.015 .078 .013 .158 .02 .223c-.003 .044 -.005 .072 -.005 .1c-.026 .516 -.382 .796 -.891 .698a.953 .953 0 0 1 -.677 -.488c-.21 -.364 -.121 -.732 .243 -.943c.289 -.165 .599 -.19 .917 -.089zm18.253 -.57c.054 .034 .112 .06 .171 .092c.252 .137 .37 .352 .36 .601c.006 .483 -.338 .785 -.83 .761a.783 .783 0 0 1 -.723 -.971c.094 -.4 .71 -.69 1.022 -.484zm-4.816 -3.555c-.041 .15 -.139 .27 -.223 .393c-.271 .4 -.562 .787 -.852 1.175c-.265 .351 -.532 .703 -.76 1.08c-.147 .243 -.27 .494 -.23 .8c-.049 .38 .163 .596 .482 .748c.321 .154 .64 .147 .963 .006c.26 -.114 .488 -.281 .698 -.468c.577 -.51 .902 -1.143 .88 -1.921c-.017 -.676 -.297 -1.255 -.73 -1.765a.515 .515 0 0 0 -.096 -.087c-.054 -.034 -.108 -.045 -.132 .04zm-9.54 -.201a.558 .558 0 0 0 -.061 .063c-.373 .464 -.614 .984 -.629 1.695c.026 1.002 .495 1.839 1.481 2.364c.273 .145 .568 .203 .88 .138c.66 -.14 .952 -.728 .662 -1.331a4.83 4.83 0 0 0 -.352 -.596a33.119 33.119 0 0 0 -1.543 -2.093a5.029 5.029 0 0 0 -.193 -.234c-.102 -.115 -.13 -.113 -.245 -.006zm-4.374 2.29c.061 .05 .117 .106 .172 .164c.355 .388 .253 .92 -.224 1.154a1.11 1.11 0 0 1 -.782 .063c-.285 -.072 -.402 -.287 -.454 -.551c-.013 -.078 -.008 -.158 -.015 -.239c-.004 -.338 .148 -.576 .456 -.715c.31 -.141 .59 -.085 .847 .123zm19.664 -.779c.11 .028 .224 .065 .325 .115c.302 .147 .45 .395 .454 .696c-.005 .314 -.12 .538 -.35 .696a.978 .978 0 0 1 -.969 .095c-.308 -.125 -.464 -.394 -.449 -.743a1.3 1.3 0 0 1 .057 -.34c.132 -.415 .512 -.63 .932 -.519zm-4.281 -11.598c.015 .026 .037 .048 .028 .082c-.132 .042 -.256 .1 -.368 .178a.913 .913 0 0 0 -.378 .629c-.076 .488 -.076 .978 -.054 1.468a.352 .352 0 0 0 .026 .126c.126 .288 .215 .59 .304 .893c.078 .275 .16 .553 .253 .824a.423 .423 0 0 1 -.075 .436c-.592 .767 -1.21 1.511 -1.826 2.257l-3.66 4.453c-.113 .137 -.17 .146 -.297 .024a2.203 2.203 0 0 1 -.202 -.225c-1.505 -1.85 -3.064 -3.654 -4.633 -5.447c-.202 -.23 -.408 -.46 -.631 -.674a1.636 1.636 0 0 1 -.4 -.583a.665 .665 0 0 1 .09 -.655a3.8 3.8 0 0 1 .396 -.458c.245 -.247 .46 -.516 .588 -.845c.056 -.141 .104 -.287 .089 -.44a.698 .698 0 0 0 -.28 -.517c-.28 -.208 -.596 -.342 -.915 -.472c-.488 -.202 -1.008 -.293 -1.52 -.417l-.25 -.053a1.051 1.051 0 0 1 -.357 -.137c-.017 -.011 -.041 -.02 -.024 -.065c.195 -.03 .388 .028 .581 .065c.369 .069 .735 .151 1.102 .225c.056 .011 .115 .015 .171 .022c.026 .043 .054 .087 .117 .067c.425 .063 .83 .195 1.23 .347l.032 .02l.053 .052c.019 .015 .04 .025 .073 .017c.015 .043 .05 .045 .087 .043c.522 .267 .696 .83 .431 1.4c-.024 0 -.035 .012 -.026 .04c-.084 .256 -.284 .431 -.449 .629a6.948 6.948 0 0 0 -.616 .828c-.058 .095 -.028 .17 .022 .236c.126 .165 .263 .321 .397 .48c.388 .455 .787 .902 1.18 1.355c.448 .516 .897 1.034 1.34 1.557c.234 .277 .47 .552 .7 .834c.154 .187 .314 .373 .496 .536c.046 .041 .078 .048 .126 .013l.097 -.064a.238 .238 0 0 0 .042 -.038c.201 -.232 .407 -.462 .596 -.705c.822 -1.045 1.68 -2.062 2.515 -3.094c.098 -.121 .2 -.24 .306 -.358a.45 .45 0 0 0 .115 -.4c-.048 -.278 -.13 -.547 -.204 -.82c-.217 -.803 -.408 -1.607 -.314 -2.45c.015 -.137 .028 -.284 .078 -.402c.102 -.234 .25 -.453 .529 -.522c.219 -.056 .442 -.046 .665 -.048c.13 0 .26 -.004 .39 -.004c.027 .02 .055 .017 .083 .002c.364 .037 .73 .06 1.086 .16a.371 .371 0 0 0 .395 -.095c.182 -.18 .416 -.271 .67 -.31zm-15.932 9.67c.613 .083 .902 .668 .605 1.215c-.096 .175 -.252 .251 -.436 .288c-.078 .015 -.158 .013 -.236 .02c-.022 -.01 -.044 -.007 -.066 -.01c-.314 -.025 -.578 -.134 -.698 -.454a.858 .858 0 0 1 .241 -.909a.591 .591 0 0 1 .395 -.156c.065 0 .13 -.002 .195 .006zm20.397 -.418c.192 .006 .35 .024 .505 .067c.236 .065 .388 .21 .444 .453c.054 .237 .054 .473 -.02 .705c-.086 .275 -.281 .43 -.56 .477a.908 .908 0 0 1 -.367 -.009c-.824 -.19 -.913 -.86 -.594 -1.43a.468 .468 0 0 1 .366 -.241c.087 -.016 .173 -.018 .226 -.022zm-19.333 -1.72c.124 .05 .189 .157 .22 .278c.056 .221 .051 .445 -.003 .664a.492 .492 0 0 1 -.345 .357a1.008 1.008 0 0 1 -.364 .052c-.579 .005 -.956 -.461 -.82 -1.017a.526 .526 0 0 1 .304 -.338a1.264 1.264 0 0 1 1.008 .005zm18.411 -2.67c.176 .008 .399 .038 .598 .147c.28 .151 .462 .386 .469 .704c.008 .512 -.278 .835 -.785 .957c-.271 .065 -.525 -.02 -.772 -.135c-.213 -.097 -.347 -.26 -.447 -.466c-.026 -.052 -.028 -.098 -.037 -.152c-.125 -.68 .36 -1.064 .974 -1.056zm3.222 -1.766c.165 .206 .2 .445 .104 .692c-.15 .384 -.54 .72 -1.071 .55a1.707 1.707 0 0 1 -.338 -.138c-.278 -.156 -.371 -.317 -.367 -.631c-.015 -.568 .371 -.844 .718 -.87c.38 -.028 .711 .094 .954 .397zm-2.81 -1.14c.42 .065 .694 .433 .653 .876c-.04 .414 -.35 .678 -.783 .668a.776 .776 0 0 1 -.716 -.419c-.158 -.284 -.121 -.566 .044 -.839c.054 -.089 .15 -.106 .225 -.154a.834 .834 0 0 1 .577 -.132zm-18.354 -.206a.65 .65 0 0 1 .483 .479c.104 .384 .078 .746 -.25 1.03c-.127 .113 -.3 .165 -.541 .165c-.453 0 -.783 -.234 -.937 -.666c-.145 -.408 .035 -.82 .438 -.976c.262 -.102 .533 -.108 .807 -.032zm15.485 -1.008c.618 .039 .996 .333 1.009 1.049c.008 .55 -.395 .91 -1.085 .9c-.169 -.007 -.403 -.13 -.598 -.33a.959 .959 0 0 1 -.295 -.698c.009 -.481 .488 -.952 .97 -.921zm-4.366 44.223c.201 -.053 .405 -.05 .609 -.006c-.202 .105 -.404 .069 -.61 .006zm-2.151 -.015c.197 -.028 .394 -.042 .602 -.006c-.151 .1 -.386 .106 -.602 .006z"/></svg>