<svg xmlns="http://www.w3.org/2000/svg" width="48" height="48" viewBox="0 0 48 48" fill="currentColor"><path d="M26.1 6.847c.016 0 .022-.032.006-.07l-.013-.039-.066-.22-.248-.848-.219-.755a32 32 0 0 1-.14-.496l-.006-.026c-.032-.133.026-.192.979-.905l.28-.213c.42-.324.731-.574.731-.596.006-.021-.191-.043-.43-.043l-.157-.004-.387-.012-.777-.026-.878-.032-.437-1.267-.11-.32A25 25 0 0 0 23.881 0c-.011-.016-.075.112-.134.282l-.044.122c-.068.19-.182.517-.299.863l-.065.192-.039.117-.335.985-.985.032-.083.003-.196.007-.43.014c-.287.009-.531.015-.648.018l-.373.01.198.165.03.025.038.029.076.058c.16.122.414.31.686.51l.207.15.078.057c.443.324.79.612.79.657 0 .043-.123.474-.272.958l-.11.355c-.125.4-.211.685-.267.88l-.027.097c-.045.16-.06.235-.053.244.01.005.51-.325 1.117-.735l1.108-.75 1.112.75.176.12.325.217.3.199c.202.133.33.215.338.215m4.253-1.155c.261-.5.357-.9.357-1.49 0-1.417-.985-2.668-2.369-3.024-.378-.096-1.075-.101-1.426-.006l-.043.012c-.12.034-.22.07-.234.084-.01.01.149.08.362.144.814.257 1.477.763 1.842 1.415l.016.028c.266.479.372.878.372 1.405-.005 1.217-.819 2.346-2.008 2.797l-.082.03c-.332.126-.26.172.28.218 1.14.09 2.401-.602 2.933-1.613M20.751 7.24l.02-.01c.078-.041.054-.063-.198-.158l-.094-.034a3.13 3.13 0 0 1-1.932-2.076c-.112-.39-.085-1.209.053-1.603.32-.92 1.107-1.634 2.177-1.97l.362-.116-.176-.07c-.276-.1-1.245-.117-1.612-.026-.826.207-1.65.878-2.023 1.629-.511 1.038-.442 2.166.186 3.103a3.05 3.05 0 0 0 2.57 1.384h.033c.277 0 .564-.027.634-.053m7.234 40.631.229.128-.032-1.677-1.361-.642c-.51-.242-.89-.43-.88-.438.005-.011.543-.112 1.181-.23 3.215-.584 6.362-1.69 9.053-3.195l.082-.046c.77-.43 2.083-1.309 2.83-1.89l.034-.026c.622-.49 1.895-1.619 1.985-1.762.037-.064-.09-.213-.543-.666l-.596-.585.394-.66.394-.655.431-.229c.65-.348 1.04-.627 1.499-1.084l.055-.055c.4-.4 1.16-1.421 1.102-1.475-.026-.026-.326.056-.645.165l-.075.026-.059.021-.039.014a5 5 0 0 0-.48.197l-.137.068a3 3 0 0 1-.273.127c-.011 0 .005-.085.037-.186.04-.14.122-.224.385-.39l.057-.036c.72-.448 1.54-1.468 2.084-2.576l.035-.072a8 8 0 0 0 .244-.536c0-.032-.243.06-.504.18l-.047.023-.033.016-.065.031a4 4 0 0 0-.31.166 8 8 0 0 0-.595.41l-.032.025c-.133.105-.228.152-.208.108l.022-.067c.02-.062.045-.146.063-.226l.006-.02c.05-.155.15-.268.452-.518q.917-.751 1.49-2.23l.021-.054c.174-.463.346-1.07.31-1.107-.048-.048-.724.41-1.049.708l-.114.105a3 3 0 0 1-.27.23c-.01 0-.01-.09 0-.202.017-.138.107-.298.304-.543.485-.59.804-1.266 1.043-2.187l.01-.04c.031-.13.067-.31.102-.5l.015-.084.022-.127.02-.117c.05-.316.084-.588.066-.607-.059-.064-.81.67-1.24 1.214l-.107.128-.021-.224-.002-.027c-.011-.168.02-.252.177-.49.25-.367.506-1.021.64-1.628.049-.23.098-.604.132-.973l.008-.093c.037-.42.054-.816.03-.97l-.027-.184-.23.256a5.4 5.4 0 0 0-.734 1.059l-.186.335-.037-.271c-.027-.219-.01-.325.096-.602.394-.98.505-2.416.282-3.529l-.064-.32-.213.293-.041.057c-.278.388-.386.584-.518.95l-.122.345-.07-.165-.006-.015c-.051-.136-.038-.24.049-.65.133-.59.16-1.714.053-2.331l-.007-.04a8 8 0 0 0-.13-.538l-.019-.068-.02-.075-.033-.109c-.089-.302-.176-.555-.2-.555-.017 0-.097.15-.182.33a4.5 4.5 0 0 0-.351 1.294l-.032.266-.096-.213-.007-.016c-.064-.161-.094-.424-.11-.995l-.004-.107c-.022-.55-.06-.832-.16-1.213-.171-.634-.421-1.235-.704-1.656l-.212-.32-.091.31c-.117.383-.224 1.213-.181 1.405l.032.144-.106-.123a.7.7 0 0 1-.128-.293l-.014-.093c-.23-1.482-.58-2.362-1.258-3.19l-.056-.068c-.177-.211-.225-.24-.264-.172-.07.127-.064 1.176.01 1.485l.013.056c.025.118.04.211.03.22-.01.011-.106-.1-.213-.25-.128-.164-.236-.402-.32-.687l-.01-.031c-.186-.64-.362-1.044-.649-1.507-.256-.41-.948-1.155-1.182-1.283l-.127-.064.026.469c.02.283.071.565.137.747l.103.279q.016.043.016.05c0 .01-.187-.176-.41-.405-.676-.682-1.47-1.15-2.332-1.368-.505-.128-1.33-.203-1.623-.139l-.17.032.34.351c.616.648 1.502 1.139 2.87 1.598l.1.033c.476.16.861.32.974.408l.052.04c.18.146.157.171-.073.088-.202-.075-1.267-.096-1.506-.027l-.15.043.31.24c.49.383.99.66 1.634.904l.065.025c.472.173.711.236 1.281.348.064.01.245.17.4.351l.032.037c.153.175.206.271.152.252l-.003-.001c-.517-.202-1.997-.394-1.997-.261 0 .048.24.284.516.527l.063.054.032.028.032.027c.117.1.236.195.342.274a5.3 5.3 0 0 0 1.831.825l.543.123.213.335.099.161c.064.106.109.183.109.19 0 .015-.127-.047-.29-.132l-.04-.022a4 4 0 0 0-.618-.266 5 5 0 0 0-.476-.096l-.041-.006-.116-.018-.095-.013c-.322-.043-.62-.069-.645-.043-.08.075.724.921 1.256 1.32.383.288 1.166.666 1.677.815l.426.122.232.541c.085.203.144.366.135.375-.01.01-.085-.043-.165-.128-.244-.244-.639-.487-1.063-.652l-.065-.025c-.426-.161-1.07-.317-1.07-.26 0 .046.146.297.316.56l.048.073.023.036c.108.162.219.32.305.428.505.633 1.128 1.128 1.921 1.527l.42.208.155.49.07.237c.03.106.053.19.063.234l.003.011.002.015v.009c-.01.01-.13-.105-.275-.259l-.022-.024a5 5 0 0 0-.527-.479c-.288-.209-.985-.566-1.278-.65l-.224-.063.038.144c.057.246.466 1.019.738 1.408l.012.018A6.8 6.8 0 0 0 43 20.37l.396.287a1 1 0 0 1 .08.062v.001c.037.027.176 1.043.149 1.07-.01.016-.075-.075-.138-.192-.221-.437-1.155-1.316-1.706-1.603l-.227-.116.038.26c.08.613.495 1.598.979 2.327.138.202.468.601.745.889l.495.522-.016.532-.002.09c-.007.254-.026.448-.04.448-.02 0-.056-.079-.087-.175l-.004-.012c-.165-.532-.82-1.41-1.416-1.89l-.11-.087a5 5 0 0 0-.21-.158l-.011-.007-.01-.007-.015-.007c-.04 0-.006.367.057.748l.006.038.024.134.007.037.008.038q.023.12.049.227l.008.035c.23.926.56 1.644 1.145 2.496l.33.48-.096.5-.042.209a7 7 0 0 1-.075.344c-.01.029-.05-.076-.092-.24l-.015-.058c-.149-.601-.564-1.336-1.123-1.975l-.18-.213-.038.368c-.058.532.005 1.522.133 2.033.123.516.42 1.304.644 1.714l.023.044c.074.144.132.278.132.307 0 .058-.082.294-.175.534l-.039.1c-.104.259-.21.495-.228.479-.022-.021-.037-.17-.037-.335 0-.644-.304-1.496-.788-2.23l-.197-.294-.096.448c-.067.312-.099.67-.106 1.28l-.001.16c-.007.921.047 1.24.346 2.174l.165.506-.521 1.011-.032-.559a5.2 5.2 0 0 0-.485-1.916l-.212-.453-.155.48c-.426 1.304-.51 2.693-.234 3.747l.08.298-.24.346-.042.06-.048.068c-.108.153-.218.3-.272.367l-.117.144-.601-.56-.105-.098a15 15 0 0 0-.427-.388l-.032-.028a.3.3 0 0 0-.06-.044c-.015 0-.223.154-.462.335-2.917 2.236-7.133 3.737-11.46 4.083l-.037.003c-.326.022-.903.033-1.563.033h-.466l-.166-.002-.498-.005-.206-.003-.147-.003-.367-.007c-.838-.02-1.576-.05-1.9-.09-3.13-.378-5.883-1.203-8.464-2.54-.756-.393-2.029-1.187-2.603-1.623l-.23-.181-.612.57c-.346.319-.622.542-.649.516l-.004-.005a12 12 0 0 1-.347-.485l-.304-.442.096-.49c.071-.34.099-.666.096-1.185v-.076c-.005-.814-.07-1.224-.325-2.113l-.074-.253c-.137-.46-.165-.443-.374.055l-.047.113a5.2 5.2 0 0 0-.404 1.793l-.038.58-.266-.521-.26-.527.164-.532c.256-.825.33-1.31.336-2.135 0-.158-.008-.347-.02-.541l-.005-.081-.007-.103-.006-.07-.012-.137c-.04-.45-.098-.847-.142-.894-.029-.024-.226.27-.41.596l-.02.034-.028.05-.036.069-.018.034-.052.1c-.245.485-.367.943-.42 1.529l-.038.426-.096-.213-.044-.11-.111-.29-.017-.046-.03-.08-.027-.076-.138-.389.245-.516c.306-.649.48-1.182.583-1.746l.008-.042c.106-.591.154-1.528.1-1.858l-.042-.261-.293.357c-.564.676-.883 1.298-1.038 2.017-.016.08-.042.138-.053.128-.016-.01-.074-.261-.133-.548l-.106-.527.117-.165c.542-.725.895-1.383 1.16-2.165l.016-.05c.202-.601.378-1.48.346-1.725l-.016-.16-.399.352c-.522.453-1.075 1.187-1.262 1.672l-.149.372-.016-.548-.016-.554.31-.346c.53-.588.949-1.17 1.216-1.684l.018-.035c.298-.575.564-1.299.618-1.672l.042-.255-.128.064c-.596.314-1.49 1.123-1.772 1.613l-.024.038c-.075.119-.137.206-.152.196-.02-.02.002-.234.036-.465l.007-.05.007-.043.017-.101c.035-.202.074-.375.098-.395l.037-.029c.063-.05.189-.145.315-.237.433-.314 1.072-.956 1.428-1.427l.02-.026c.287-.389.84-1.411.84-1.56 0-.09-.324.005-.803.245-.502.253-.894.537-1.213.885l-.127.14c-.157.17-.155.151-.119.002l.004-.022c.02-.105.074-.31.124-.478l.096-.33.473-.24.071-.037a9 9 0 0 0 .65-.38l.014-.009c.618-.43 1.352-1.25 1.735-1.937l.176-.309-.208.037c-.718.128-1.596.522-1.974.884-.096.096-.181.16-.197.144-.011-.011.064-.213.16-.448l.18-.43.368-.091c.867-.226 1.938-.92 2.636-1.712l.083-.096c.323-.376.312-.395-.281-.322l-.128.016c-.564.07-1.166.256-1.464.453l-.022.014c-.101.066-.18.102-.18.087 0-.063.307-.571.384-.64l.004-.004c.032-.032.293-.106.57-.17a5.2 5.2 0 0 0 1.727-.742l.045-.03c.108-.071.228-.157.347-.248l.034-.026.067-.053c.342-.27.654-.556.654-.615 0-.071-.405-.064-.855-.01l-.062.008-.124.016-.047.007a5 5 0 0 0-.648.136l-.056.017c-.161.047-.284.07-.284.06 0-.015.09-.132.203-.267l.074-.087c.182-.213.237-.233.628-.317.879-.197 1.98-.697 2.688-1.224l.373-.272-.16-.037c-.298-.064-1.224-.048-1.517.027l-.028.007c-.148.038-.27.062-.275.057-.01-.011.08-.09.197-.187.144-.113.354-.207.667-.295l.03-.008c.921-.257 1.94-.698 2.597-1.133l.033-.022c.175-.117.474-.373.665-.565l.346-.346-.24-.037-.056-.009c-.246-.038-.364-.035-.864.02-1.212.126-2.44.78-3.136 1.666l-.02.027c-.113.143-.224.266-.246.271-.02 0 .024-.141.096-.32l.005-.015c.096-.235.144-.469.165-.804l.027-.469-.122.064c-.226.121-.875.81-1.139 1.207l-.011.018c-.293.441-.564 1.086-.713 1.687-.07.256-.16.463-.272.602l-.019.023c-.088.105-.163.179-.173.174-.01-.011.011-.208.043-.442.059-.42.021-1.225-.059-1.272-.133-.08-.878 1.006-1.123 1.64-.172.449-.355 1.238-.367 1.563v.017c0 .101-.053.293-.117.426l-.117.24-.032-.453c-.037-.468-.128-.926-.24-1.192l-.064-.15-.197.32c-.548.905-.777 1.703-.814 2.858l-.003.088c-.016.493-.046.763-.102.917l-.007.017c-.048.128-.106.23-.122.23-.022 0-.053-.139-.075-.31a5 5 0 0 0-.09-.542c-.07-.277-.352-.905-.41-.905-.027 0-.137.297-.24.627l-.022.075-.017.057-.011.038-.021.075-.02.07q-.034.121-.058.229c-.106.452-.085 2.118.027 2.576l.01.042c.065.27.067.36.017.501l-.009.023c-.08.21-.12.198-.167-.044a2.5 2.5 0 0 0-.165-.463l-.013-.026c-.164-.317-.553-.906-.6-.906-.058 0-.13.514-.16 1.07l-.003.067-.002.045-.004.09-.002.046a9 9 0 0 0-.004.332c.005.868.117 1.533.367 2.146l.017.042c.107.28.12.367.08.57l-.049.25-.175-.346c-.208-.41-.57-.926-.794-1.14l-.165-.154-.037.155c-.058.218.07 1.634.192 2.145.134.56.35 1.094.601 1.5l.045.07c.155.248.178.334.163.517l-.021.229-.118-.16c-.266-.367-.67-.81-.915-.99l-.064-.05a1.2 1.2 0 0 0-.229-.152Q2 22.87 2 22.932v.042c.006.146.04.425.088.718l.006.04.014.082.007.04c.028.156.058.31.09.442.133.559.426 1.33.628 1.656l.01.018c.07.111.244.35.405.546l.034.043c.189.245.277.404.305.56l.039.243-.394-.367-.042-.039c-.343-.31-.764-.607-1.003-.7l-.027-.011c-.067-.024-.064.015-.003.292.277 1.193.99 2.433 1.788 3.12l.075.063c.31.267.356.348.42.644l.038.176-.341-.271a4.4 4.4 0 0 0-.525-.347l-.082-.047-.038-.021-.07-.039-.068-.037c-.326-.174-.619-.302-.633-.255-.058.164.599 1.334 1.134 2.029l.06.078c.388.502.603.702 1.093 1.024l.093.061c.28.186.384.284.41.39l.004.025c.012.075.016.137.006.146-.005.01-.182-.064-.396-.165l-.046-.021a6 6 0 0 0-.453-.186l-.076-.027-.038-.014-.073-.025c-.3-.103-.57-.18-.595-.158-.005.01.133.245.309.522.59.905 1.325 1.565 2.395 2.145l.464.25.48.852c.12.212.21.369.217.388.01.021-.232.295-.544.608l-.595.595.346.352c1.391 1.412 3.445 2.85 5.68 3.98l.069.033c2.555 1.286 5.135 2.123 8.134 2.65l.612.108c.265.048.443.082.447.085.01.01-.23.122-.527.26l-.125.056c-.143.064-.315.143-.487.222l-.226.105-.333.155-.628.299v1.602l1.946-.994 1.778-.913.204-.105.383-.203.431.226c.182.095.54.28.97.5l.753.387.135.07.465.236c.701.358 1.282.664 1.388.721m-2.673-18.03.927-.489.176-.09c.409-.21 1.116-.564 1.881-.942l.415-.204.314-.154.273-.134.193-.094.51-.247c.551-.268 1.042-.51 1.393-.685l.255-.128c.16-.08.262-.133.291-.15l.005-.004a.56.56 0 0 0 .192-.222l.005-.012c.034-.075.049-.784.05-2.438l-.002-.959-.005-1.67-.006-1.574c-.013-3.01-.027-3.398-.1-3.652l-.006-.018c-.343-1.154-1.155-1.99-2.22-2.275l-.032-.009c-.237-.062-.752-.08-3.62-.08H19.08l-.4.123c-1.26.38-2.284 1.312-2.94 2.679l-.02.041c-.417.88-.446.628-.447 5.082v4.798c.003 3.676.038 3.361.362 3.455.123.03 1.707.051 4.57.053zm1.07-11.604H21.38l.032-.441c.08-1.118.718-2.337 1.549-2.95l.308-.228h2.663c1.471.002 1.848.02 1.814.064l-.024.03c-.054.065-.17.212-.285.358-.537.666-.92 1.714-1.016 2.752zm-6.01 0-2.06-.01-2.054-.016.016-.16c.064-.596.532-1.671.953-2.172.454-.543.974-.916 1.576-1.126l.037-.013.143-.046.025-.007.031-.008c.215-.052.476-.06 1.271-.061h1.457l-.32.43c-.59.8-.877 1.55-1.01 2.646zm7.038-.356c0-.384.17-1.102.351-1.485.395-.843 1.135-1.43 1.816-1.453h.02c.102-.006.31.031.458.074.64.192 1.129 1.049 1.134 1.97v.266l-2.12.534-.688.172c-.499.124-.845.208-.875.215l-.01.001c-.076.01-.086-.039-.086-.294m10.433 15.181c.104-.053.407-.42.694-.812l.032-.043.032-.044c.205-.285.392-.571.482-.75a1.2 1.2 0 0 0 .165-.57l.001-.066c.001-.199-.028-.265-.217-.496l-.028-.035c-.31-.372-.387-.683-.348-1.41l.007-.129c.016-.255.04-.478.058-.52.022-.065.112-.086.368-.091.59-.006.974-.256 1.256-.815.344-.672.351-1.56.02-2.892l-.046-.186c-.283-1.136-.347-1.695-.313-2.721l.01-.268c.027-.864-.008-.952-.283-1.087-.245-.112-.415-.101-.543.037l-.013.014c-.164.19-.22.489-.252 1.277l-.001.03a8.5 8.5 0 0 0 .223 2.395l.075.314c.262 1.112.33 1.532.31 1.847l-.001.021c-.043.616-.246.826-.657.666l-.084-.033c-.307-.127-.333-.208-.339-1.783l-.002-.752c-.004-1.072-.018-1.623-.056-2.113l-.004-.053-.004-.042-.008-.085-.004-.042q-.017-.178-.04-.367l-.014-.113c-.197-1.548-.487-2.656-.928-3.56l-.033-.067c-.345-.688-.539-.825-.852-.597l-.02.014c-.093.073-.295.145-.51.188l-.023.004c-.266.048-.548.16-1 .394l-.628.33.031.24.012.079c.107.705.223.923.587 1.111l.014.007c.292.15.372.277.372.618v.026c-.006.269-.102.475-.458.985l-.056.083c-.378.562-.476.815-.705 1.79l-.035.145c-.275 1.113-.373 1.252-.976 1.538l-.038.018c-.354.166-.393.219-.393.45 0 .299.378.549.825.549.179 0 1.444-.333 1.664-.438l.007-.004c.157-.076.184-.142.104-.259l-.021-.029c-.064-.085-.1-.087-.402-.02l-.046.009c-.175.038-.443.11-.642.17l-.052.017c-.44.136-.822.164-.972.064l-.008-.005c-.09-.064-.069-.085.203-.192.383-.16.74-.474.857-.761l.008-.023c.049-.14.156-.522.255-.912l.047-.187c.23-.912.31-1.112.714-1.729l.113-.171c.355-.542.433-.749.433-1.135 0-.445-.206-.792-.581-.996l-.02-.01a.68.68 0 0 1-.357-.6v-.018c0-.138.037-.17.389-.335.502-.236.886-.25 1.258-.038l.02.011c.164.096.33.154.462.154h.208l.16.432c.474 1.314.688 3.074.697 5.749v.407c.004.83.024 1.43.057 1.553l.001.004c.139.495.756.873 1.209.74.323-.1.473-.245.569-.567l.006-.019c.133-.447.074-1.187-.16-2.113l-.024-.095c-.255-1.001-.329-1.512-.342-2.305l-.002-.14c-.012-1.037.078-1.545.235-1.389.04.04.054.261.054.759v.333l-.002.14c-.006 1.063.041 1.452.316 2.528l.062.243c.185.726.214.927.22 1.416v.063c-.005.856-.197 1.349-.629 1.603l-.023.014c-.17.094-.258.108-.605.082l-.093-.005c-.293-.013-.334.004-.397.096-.127.202-.202.82-.175 1.469l.004.088c.034.624.11.846.384 1.147.112.122.186.26.186.34 0 .182-.16.485-.537 1.039l-.065.094c-.396.57-.618.81-.744.81-.155 0-.48-.202-.437-.271.022-.027.16-.106.309-.176.463-.207.676-.543.676-1.059 0-.387-.135-.58-.62-.868l-.045-.026a6 6 0 0 1-.644-.437c-.23-.203-.454-.61-.543-.976l-.006-.024c-.08-.33-.069-.97.016-1.374l.013-.057c.072-.342.043-.425-.233-.763l-.03-.037a4 4 0 0 1-.42-.665L35.526 26c-.178-.364-.317-.449-.45-.284-.058.073-.06.115-.006.267l.005.016c.088.25.37.753.576 1.034l.18.243-.064.484c-.062.444-.048 1.02.027 1.303l.005.018c.026.092.007.12-.106.151l-.011.003c-.218.053-.618.26-.81.415-.203.173-.34.176-.657-.006l-.018-.01c-.298-.17-.719-.521-.719-.59 0-.027.15-.038.335-.017l.036.003c.552.044.716-.128.763-.764a1.8 1.8 0 0 1 .417-1.02l.02-.023c.196-.234.239-.4.106-.447-.156-.063-.333.033-.51.271l-.012.016q-.384.519-.442 1.182l-.037.372h-.218a1.3 1.3 0 0 1-.411-.096l-.02-.01c-.437-.213-.719-.064-.612.32.131.474.967 1.198 1.53 1.331l.019.005c.244.058.516-.038.915-.32.117-.081.293-.163.401-.184l.055-.009c.15-.023.175 0 .327.241.202.314.426.5.931.772l.066.036c.454.25.546.352.546.57 0 .278-.17.512-.473.666-.346.181-.485.362-.485.644 0 .25.08.352.389.48.245.1.532.1.73 0m-26.93-.25c.163-.294 0-.654-.376-.838l-.018-.008c-.303-.144-.447-.304-.495-.56l-.004-.026c-.05-.308.012-.39.468-.639.469-.25.867-.577 1.048-.855l.01-.018c.161-.263.416-.26.826.002l.082.055c.422.272.626.323.924.22.335-.117.788-.426 1.049-.718.611-.69.518-1.199-.166-.935l-.063.025c-.313.12-.53.162-.607.111-.03-.02-.085-.22-.118-.455l-.005-.035c-.063-.49-.218-.857-.484-1.187-.234-.276-.532-.266-.532.022 0 .026.085.138.186.255.25.275.392.611.429 1.022l.013.162c.035.41.063.468.226.553l.008.004c.133.069.256.08.532.058l.368-.032-.107.134c-.223.282-.793.66-.995.66-.048 0-.25-.107-.442-.235a2.4 2.4 0 0 0-.564-.292l-.213-.059.017-.776v-.047q.003-.07.002-.14v-.093a5 5 0 0 0-.035-.642l-.012-.052c-.04-.176-.02-.208.16-.438a6 6 0 0 0 .432-.708l.02-.038c.174-.337.202-.438.156-.51a.23.23 0 0 0-.181-.096c-.09 0-.17.096-.383.48l-.031.054a5 5 0 0 1-.353.557l-.042.047c-.237.261-.257.355-.192.677.032.17.059.565.059.873v.08c.003.42-.018.536-.142.834l-.007.018c-.192.463-.5.782-1.017 1.054l-.043.022c-.636.339-.805.672-.644 1.229.101.346.405.686.655.734.09.022.207.08.255.133l.015.017c.07.08.065.095-.025.164-.15.112-.373.15-.5.08-.073-.037-.306-.321-.542-.637l-.03-.042c-.22-.298-.437-.616-.52-.78l-.018-.037c-.162-.336-.144-.493.071-.734l.024-.026c.274-.306.337-.525.364-1.217v-.03c.027-.67-.04-1.201-.174-1.42l-.013-.023c-.065-.1-.107-.104-.456-.079-.487.042-.758-.07-.984-.424l-.012-.018c-.22-.347-.282-.664-.254-1.413l.007-.153c.026-.577.068-.817.28-1.643l.255-.985.005-1.24.004-.307c.013-.956.052-1.134.183-1.003.069.07.118.572.125 1.116v.074l.001.037v.133l-.001.049a8 8 0 0 1-.062.898l-.007.062-.008.062-.012.083c-.056.396-.148.824-.325 1.567l-.01.04c-.194.793-.217 1.744-.053 2.085l.005.011c.155.31.347.426.682.426.383 0 .73-.202.926-.543l.15-.25.031-2.182.005-.26c.052-2.754.197-3.808.692-5.213l.16-.463h.208c.122 0 .32-.058.479-.138l.042-.022c.395-.2.62-.2 1.084.01l.18.082c.181.084.324.153.348.173l.001.002c.022.016 0 .154-.042.314l-.013.038c-.063.19-.117.27-.238.335-.282.149-.558.43-.628.628-.09.276-.037.846.112 1.133l.014.027c.071.132.214.368.347.565l.028.042c.383.57.484.83.729 1.858l.025.101c.263 1.064.37 1.238.933 1.522l.184.096c.273.144.27.157.2.201l-.011.007c-.147.094-.561.054-1.07-.099l-.027-.008-.148-.045-.043-.012a5 5 0 0 0-.554-.14l-.03-.004c-.166-.02-.207 0-.257.095l-.01.018c-.096.197.025.243 1.378.6.559.143 1.086-.017 1.203-.368.082-.248-.015-.375-.429-.577l-.079-.038c-.495-.242-.635-.445-.786-1.088l-.06-.263c-.305-1.304-.418-1.573-.824-2.149-.314-.436-.447-.745-.447-1.033 0-.323.087-.468.378-.624l.016-.009c.304-.16.442-.362.543-.798.11-.45.096-.623-.036-.669l-.017-.006a5 5 0 0 1-.564-.289l-.055-.03c-.451-.253-.661-.328-1-.37a1 1 0 0 1-.404-.159c-.234-.18-.362-.165-.559.053-.34.394-.788 1.528-1.038 2.651-.287 1.288-.43 3.178-.388 5.063l.006.236c.028 1.156-.001 1.286-.259 1.487l-.008.007c-.21.167-.52.14-.673-.053l-.018-.024c-.083-.114-.1-.202-.094-.572l.004-.21c.008-.393.051-.671.184-1.222l.046-.192c.254-1.07.316-1.468.353-2.244v-.03c.032-.793-.04-1.565-.17-1.83l-.005-.011c-.09-.186-.271-.24-.516-.16l-.064.022c-.314.111-.316.197-.351 1.628l-.032 1.363-.224.878c-.431 1.71-.415 2.79.048 3.503.266.415.628.607 1.14.607h.345l.064.298c.074.367.038 1.293-.054 1.493l-.004.008c-.038.075-.17.25-.288.394-.282.335-.293.59-.053 1.097l.014.028c.243.475 1.065 1.58 1.247 1.659.325.149.91 0 1.054-.26m25.19-13.99c.239 0 .292-.35.074-.505-.138-.096-.208-.1-.293-.016-.154.155-.005.522.218.522m-24.423-.02a.312.312 0 0 0 .197-.432c-.08-.175-.24-.17-.378.006-.197.25-.09.495.18.426m16.805 8.224c-.089-.262-.57-.704-.839-.78l-.013-.003a.7.7 0 0 1-.197-.08c-.037-.026-.042-1.218-.026-3.491l.026-3.45 1.81-.484.574-.155a58 58 0 0 1 1.305-.34c.047-.005.063.716.064 3.403v3.921l-.117.107-.021.018c-.141.115-.443.282-1.672.93l-.1.051c-.434.224-.784.383-.794.353m-12.2 1.804V19.25h10.113v6.91l-.282.132c-.774.38-1.168 1.014-1.248 2.007l-.04.506-4.27.016zm20.749-8.527c.037-.038.064-.139.064-.23 0-.303-.186-.377-.4-.159l-.021.022c-.128.128-.134.183-.058.33.064.117.314.138.415.037m-25.988-.048c.085-.095.09-.12.03-.228l-.014-.022c-.085-.16-.346-.224-.463-.107-.08.08-.08.16 0 .336.075.165.304.18.447.02m10.668 3.652.004-.006c.05-.068.048-.246.001-.836l-.044-.487a8 8 0 0 0-.046-.423c-.015-.107.013-.2.1-.315l.012-.015c.17-.218.292-.506.292-.67 0-.368-.266-.815-.58-.97-.175-.09-.521-.127-.724-.085-.234.054-.362.134-.548.341-.33.378-.346.852-.032 1.315l.176.266-.056.595c-.06.688-.053 1.234.018 1.305.102.102 1.342.086 1.427-.015m12.098-.637.02-.022c.108-.115.085-.207-.104-.417-.218-.245-.34-.548-.383-.931l-.018-.163-.026-.23-.014-.118c-.031-.232.047-.31.1-.117l.006.02c.043.177.554.725.67.725.091 0 .16-.101.16-.24 0-.037-.095-.186-.213-.33a5 5 0 0 1-.35-.548l-.017-.032a2 2 0 0 0-.223-.346c-.144-.144-.4-.133-.48.016-.042.08-.053.325-.031.81l.003.07c.052.911.197 1.381.54 1.75l.022.023c.17.176.23.19.338.08m-19.31-.535c.239-.505.398-2.08.228-2.251-.096-.096-.335-.08-.426.026l-.01.013c-.044.06-.136.204-.216.344l-.019.032c-.09.16-.26.426-.383.585l-.023.031c-.233.32-.236.475-.009.475.155 0 .33-.175.687-.665l.016-.023c.075-.108.077-.082.042.262-.048.538-.207 1.012-.425 1.246q-.29.327-.107.479c.154.128.431-.106.644-.554m22.596-1.07c0-.255-.362-.33-.511-.1l-.015.023c-.065.102-.06.128.015.242.154.23.51.112.51-.165m-26.195.299c.117 0 .165-.038.218-.16.059-.139.053-.176-.027-.266-.138-.155-.388-.139-.463.026-.085.187.064.4.272.4m24.46 1.58c.149-.1.186-.287.074-.399-.09-.09-.34-.08-.442.022-.117.122-.08.298.085.388l.025.014c.107.055.139.05.258-.024m-22.878.016h.015c.202 0 .271-.058.271-.239 0-.229-.426-.33-.537-.128-.043.085-.043.15 0 .24.04.098.092.126.25.127m-2.003.32c.282 0 .426-.367.224-.548-.15-.133-.357-.112-.485.053-.18.223-.037.495.261.495m27.042-.314c0-.293-.325-.426-.533-.218-.127.127-.133.255-.02.415.164.24.553.1.553-.197m-1.427 1.751c.304 0 .458-.185.367-.44l-.005-.012c-.043-.117-.085-.133-.287-.133-.139 0-.262.03-.314.079l-.006.006c-.186.186-.032.5.245.5m-24.178-.282c0-.234-.08-.303-.346-.303-.122 0-.244.026-.282.063-.106.107-.074.346.054.437.255.181.574.07.574-.197m25.148 2.225h.03c.155 0 .192-.027.24-.154l.008-.024c.033-.109.017-.147-.082-.226l-.02-.016a.4.4 0 0 0-.14-.08c-.015.005-.067.014-.117.029l-.01.003c-.075.02-.091.069-.08.245l.003.049c.014.158.03.173.168.174m-26.49 0h.061c.133-.003.139-.028.153-.229l.016-.223h-.192c-.111 0-.202.032-.218.074a.6.6 0 0 0-.012.214l.001.015c.016.13.037.148.19.15m26.627 2.21c.181 0 .266-.091.266-.278 0-.111-.031-.165-.138-.202l-.059-.023c-.106-.04-.12-.032-.203.05l-.025.026c-.192.192-.107.426.16.426m-26.735-.028h.013c.15 0 .192-.026.234-.143.064-.181-.032-.309-.234-.309a.3.3 0 0 0-.207.078l-.006.007c-.05.056-.058.117-.026.21l.005.014c.041.113.083.142.22.143m13.774 6.436.35-.309.443.144c.825.272 1.323.359 2.197.392l.049.002c1.058.036 1.635-.048 2.64-.387l.584-.2c2.403-.823 2.659-.86 4.17-.86h.29c.78.002.994.022 1.587.133l.274.052c.685.127.816.115.84-.058.022-.122-.968-.777-1.83-1.208-1.518-.762-3.099-1.129-4.855-1.134-2.504 0-4.59.73-6.537 2.294l-.089.072c-.263.212-.481.375-.491.37a10 10 0 0 1-.543-.42c-1.555-1.246-2.939-1.864-4.94-2.204-.719-.123-1.911-.17-2.582-.107l-.063.007c-.504.055-1.389.217-1.848.344-1.231.342-2.811 1.121-3.747 1.854l-.032.026c-.118.092-.127.109-.062.177l.025.025c.077.075.13.077.63-.014l.307-.056c1.107-.204 1.623-.249 2.427-.218 1.314.059 2.315.282 3.779.852 1.288.5 2.081.676 3.087.676a8 8 0 0 0 2.401-.383l.5-.17.23.212.173.165c.3.284.292.233.636-.069m-6.968-1.115-.048-.019c-1.418-.546-2.567-.797-3.655-.803h-.101c-.325-.003-.538-.023-.508-.048.218-.203 1.9-.682 2.683-.767l.036-.003c.457-.039 1.843-.027 2.253.02.968.114 2.157.471 3.021.898l.045.022c.138.07.365.198.6.34l.09.052.06.036.135.083c.298.183.56.354.621.41.088.08-.456.248-1.065.357l-.062.011-.04.007-.063.01-.05.008a7 7 0 0 1-.386.049c-1.043.1-2.05-.087-3.566-.663m8.304.418-.032-.01c-.162-.052-.294-.114-.304-.14-.014-.054.412-.35.882-.63l.082-.048.042-.024c.172-.1.345-.194.5-.271a9.3 9.3 0 0 1 2.279-.783l.21-.042c.25-.05.422-.08.59-.1l.032-.004c.295-.03.596-.026 1.303-.013l.146.003c.675.015 1.047.043 1.381.104l.054.01.053.01c.718.144 1.219.293 1.746.511l.452.181-.32.006h-.085c-1.3.017-2.572.301-4.332.958-.41.154-1.022.335-1.358.41-1.054.223-2.337.17-3.321-.128m-15.97 4.125-.202-.138c-.113-.072-.191-.154-.182-.188l.001-.004c.01-.032.197-.324.415-.654l.436-.673c.083-.13.156-.244.208-.328l.033-.05c.165-.255.253-.348.308-.328l.007.003c.055.025.264.158.477.306l.327.219c.061.04.1.066.105.068.01.01-.038.09-.096.176l-.117.165-.272-.187c-.145-.098-.284-.166-.312-.155l-.002.001a1.5 1.5 0 0 0-.176.224l-.026.037-.16.24.296.201c.162.112.17.133.106.23l-.026.04a.4.4 0 0 1-.094.114c-.016 0-.122-.064-.245-.138l-.026-.018c-.145-.092-.196-.101-.231-.05l-.018.025c-.036.055-.12.188-.214.34l-.07.112zm27.569.453-.05-.129-.264-.685-.109-.29-.17-.457a11 11 0 0 1-.232-.659c0-.068.295-.278.408-.292h.007c.035-.006.074.022.092.056l.004.007q.008.02.095.107l.027.027c.154.153.437.417.758.706l.178.16c.41.37.713.662.698.672l-.005.004a3 3 0 0 1-.197.145l-.176.122-.229-.218-.223-.218-.186.095-.033.018c-.175.096-.179.122-.068.346l.02.041c.06.117.107.229.107.255 0 .02-.082.086-.184.146l-.071.042c-.147.083-.163.076-.197-.001m-25.779.576-.042-.023c-.204-.107-.202-.13-.044-.51l.01-.024a.7.7 0 0 0 .054-.168l-.007-.004-.054-.03-.152-.089-.197-.111-.208.244-.208.25-.197-.122-.045-.03c-.145-.093-.138-.103-.056-.215l.02-.024c.086-.103.306-.345.556-.614l.154-.165.137-.146.214-.227c.149-.156.284-.297.383-.397l.054-.054a1 1 0 0 1 .111-.103c.021 0 .139.048.256.112.117.059.207.138.191.17l-.41 1.39c-.162.544-.293.97-.298.98s-.104-.03-.222-.09m24.15.254-.004-.005a26 26 0 0 1-.522-.952l-.217-.408a13 13 0 0 1-.306-.604c-.016-.038.293-.261.362-.261.015 0 .114.164.228.379l.033.063c.125.234.235.432.25.451v.001c.016.027.447-.197.447-.229 0-.016-.111-.229-.245-.479l-.24-.447.203-.106c.112-.059.218-.086.24-.07l.012.02c.05.083.235.411.463.818l.184.33c.286.517.506.93.496.94-.191.13-.327.193-.389.173l-.005-.002c-.037-.011-.17-.208-.293-.426l-.041-.075a2.5 2.5 0 0 0-.204-.33c-.016 0-.122.048-.24.107l-.212.111.245.453.042.077c.113.21.192.379.187.39v.001a1.5 1.5 0 0 1-.197.112l-.048.024c-.135.065-.147.055-.23-.056m1.671-1.863.16-.08.16-.085-.415-.414a5 5 0 0 0-.224-.214c-.01 0 .021.09.07.197l.03.074c.046.107.101.24.14.325zM12.02 40.677l.001-.003.012-.027.226-.496c.16-.354.184-.48.243-1.136l.022-.254c.03-.323.057-.559.065-.559h.003c.018.005.118.04.226.085.118.048.213.112.213.15v.005a7 7 0 0 1-.05.333l-.096.56-.013.091c0 .011.175-.149.388-.362l.394-.388.192.09.024.012c.1.05.173.102.173.121 0 .022-.261.272-.58.554l-.11.098c-.433.389-.5.48-.668.85l-.085.181-.087.18-.027.053-.024.043c-.01.022-.442-.154-.442-.18m-.538-1.41c.015 0 .087-.18.157-.374l.033-.095c.069-.197.126-.383.108-.383l-.001.001a6 6 0 0 0-.286.33l-.272.334.112.09a.5.5 0 0 0 .15.097m22.4 2.232c-.043 0-.139-.393-.266-1.08l-.08-.433c-.075-.403-.136-.72-.144-.775-.027-.112 0-.15.149-.224l.05-.025c.209-.1.235-.079.418.174l.02.028.052.07.046.062c.147.193.381.49.601.76l.314.396c.145.184.248.317.261.34.027.042-.037.106-.181.18l-.028.014c-.158.077-.203.08-.243.024l-.011-.018c-.03-.048-.093-.144-.144-.227l-.043-.067c-.083-.127-.094-.112-.298-.029l-.02.01c-.188.084-.194.14-.086.443l.075.218-.192.08c-.101.042-.218.08-.25.08m-20.633-.314c0-.033.167-.436.363-.892l.082-.19.101-.234c.184-.42.357-.801.412-.9l.004-.009.006-.008.006-.008c.02 0 .104.03.193.065l.036.015c.14.057.184.103.167.164l-.002.007a85 85 0 0 1-.92 2.187c-.017.027-.448-.16-.448-.197m2.23.9a1 1 0 0 1-.18-.053c-.108-.041-.137-.077-.12-.157l.006-.025c.017-.074.008-.076-.051-.026-.133.107-.495.021-.682-.16l-.018-.019c-.132-.139-.147-.19-.141-.48.005-.395.26-1.092.521-1.438.266-.351.623-.426 1.017-.202a.68.68 0 0 1 .32.665l-.007.042c-.038.246-.064.252-.276.182l-.034-.012c-.15-.055-.162-.085-.163-.263v-.013c0-.26-.08-.357-.26-.309-.245.064-.746 1.289-.629 1.55.121.267.407.172.553-.182l.03-.072c.05-.126.042-.14-.066-.187l-.047-.02c-.12-.053-.126-.074-.076-.21l.007-.022c.025-.075.053-.133.062-.133.048 0 .645.235.687.272.025.02-.058.303-.161.597l-.012.034-.039.109c-.102.28-.209.532-.24.532m17.237-.106c-.036 0-.235-.446-.473-1.064l-.459-1.199.192-.09.078-.036c.18-.08.188-.066.23.057l.007.019c.035.104.17.467.318.849l.116.289c.114.29.205.525.225.573l.043.112.303-.112c.265-.096.299-.105.354-.035l.011.014.008.01a.34.34 0 0 1 .074.165c0 .029-.21.136-.441.238l-.037.016-.055.024-.037.015c-.203.085-.396.155-.457.155m1.48-1.608c.074-.032.133-.075.133-.09 0-.017-.112-.187-.245-.378l-.056-.078c-.153-.21-.18-.224-.157-.109l.032.128a7 7 0 0 0 .085.309l.023.08c.054.192.071.19.185.138m-3.372 2.165-.003-.004c-.037-.037-.107-.931-.181-2.283l-.001-.047c-.002-.158.018-.171.203-.225l.079-.025a2 2 0 0 1 .16-.044c.016 0 .294.446.63 1.012l.69 1.17c.017.032-.35.155-.457.155-.032 0-.112-.123-.176-.266l-.013-.032c-.078-.172-.129-.228-.189-.213l-.123.034-.111.03c-.097.02-.136.055-.124.115l.008.04c.013.063.034.175.052.276l.037.223-.223.064c-.123.036-.227.047-.258.02m-13.535.076-.223-.07-.032-.009c-.209-.064-.22-.116-.154-.507l.004-.024c.026-.158.01-.174-.11-.2a1.4 1.4 0 0 1-.23-.063c-.069-.027-.122.032-.223.26l-.139.294-.229-.07c-.127-.037-.223-.09-.218-.117l.001-.003c.019-.053.3-.538.633-1.104l.233-.39c.447-.745.452-.692.8-.557l.138.053-.096 1.08-.013.155a26 26 0 0 1-.11 1.102zm1.805.389-.218-.032-.028-.006a2 2 0 0 1-.222-.053c-.021-.01.02-.24.09-.515l.023-.086c.065-.246.104-.448.094-.458a1.4 1.4 0 0 0-.271-.059l-.245-.037-.123.516-.117.517-.213-.032-.028-.005a2 2 0 0 1-.222-.054c-.013-.008.097-.504.224-1.042l.034-.144.037-.154.079-.321.041-.168c.064-.252.117-.452.144-.529.016-.037.07-.059.117-.043.045.01.12.03.185.049l.033.01c.113.033.138.077.08.337l-.006.029-.058.236-.014.054c-.061.242-.068.34-.028.355l.145.041.116.034.197.048.111-.49.118-.495.207.037.026.005c.107.021.199.05.208.06.027.026-.127.766-.378 1.82zm10.029.026-.037-.537-.003-.048c-.014-.3-.023-.818-.014-1.203l.007-.299c.011-.445.026-.476.123-.505l.09-.025c.246-.068.292-.037.656.682l.205.407c.378.756.538 1.129.495 1.145l-.15.041-.06.017-.056.016-.197.048-.09-.271-.019-.058a4 4 0 0 0-.083-.235c-.01-.01-.117.01-.24.043l-.223.058.038.309.037.303-.24.059zm2.192-1.58.033-.012c.121-.05.107-.082-.144-.532l-.035-.065c-.114-.206-.139-.226-.12-.105l.007.039.018.119.015.104.031.225c.036.256.054.28.195.227m-14.35.042.058-.4.014-.097c.024-.18.038-.32.029-.328-.016-.01-.112.149-.218.351l-.192.367zm3.763 1.794-.25-.032.037-.32.009-.072c.03-.275 0-.286-.296-.306l-.035-.003c-.138-.01-.154.02-.253.286l-.106.303-.218-.027-.028-.003a.6.6 0 0 1-.22-.058l-.002-.003c-.02-.014.12-.368.315-.806l.08-.177.488-1.087.128-.277.229.032.042.007a.7.7 0 0 1 .23.067c.02.02.053.417.081.888l.012.205.006.113.01.179c.016.342.027.67.029.877v.108a.3.3 0 0 1-.011.111c-.016.021-.144.016-.277-.005m7.38.165-.013-.01a1.5 1.5 0 0 0-.303-.216l-.016-.008c-.362-.184-.59-.742-.601-1.473v-.029c-.006-.575.069-.755.356-.9.282-.138.495-.138.719-.005a.8.8 0 0 1 .282.341c.154.357.277 1.017.25 1.405l-.004.057c-.02.243-.045.308-.164.417l-.05.046c-.118.107-.118.134-.059.242l.022.04c.076.14.06.154-.106.186l-.011.003c-.134.025-.193.006-.303-.096m-2.51-.054.001-.009c.005-.068.046-.376.099-.748l.04-.283.072-.493c.064-.424.12-.78.134-.823v-.002c.012-.032.113-.074.224-.085l.148-.015.087-.011c.021-.006.096.165.175.372l.249.712c.347 1 .427 1.258.4 1.284-.015.016-.132.038-.25.038l-.223.005-.093-.327c-.06-.21-.089-.236-.178-.21a1 1 0 0 1-.211.03l-.03.001c-.096.003-.106.043-.121.304l-.016.308-.25.016-.031.002c-.177.008-.225-.005-.225-.066m-3.284.046-.404-.04.037-.352.04-.503.022-.281.015-.196.034-.475c.024-.32.045-.568.054-.598v-.001c.027-.096.873 0 1.033.117.24.176.378.522.378.958 0 .543-.085.894-.277 1.113-.199.23-.464.3-.932.258m2.486.088v-1.07h-.585v1.064h-.48v-.601c0-.157.004-.363.01-.575l.003-.09.005-.16c.006-.156.013-.307.02-.432l.032-.649.437.032.031.974.17.021.068.007c.278.027.289-.01.29-.492v-.537h.479l.02 2.38c.006.074-.047.101-.244.112zm4.7-1.597.14-.032.045-.014a.5.5 0 0 0 .109-.04c.012-.01-.05-.182-.123-.365l-.026-.065a2.4 2.4 0 0 0-.176-.368l-.01-.01q-.04-.038-.011.015c.015.027.037.24.042.469zm-1.32.91.016-.007c.103-.05.118-.1.118-.323 0-.548-.23-1.363-.4-1.421-.031-.011-.106.016-.16.058-.072.052-.097.107-.098.308v.067l.002.06.001.044c.01.471.14 1.015.275 1.164l.007.007c.085.09.123.096.24.043m-7.782-.628.144.032v-.536a4 4 0 0 0-.01-.37c-.011 0-.086.182-.171.4l-.012.032c-.079.209-.131.378-.121.389.01.01.085.031.17.053m2.119.883c.32-.005.444-.202.498-.775l.002-.023c.047-.497-.024-.799-.203-.89l-.01-.004a.7.7 0 0 0-.18-.064c-.027 0-.06.175-.08.383l-.033.416c-.063.82-.059.957.006.957m3.987-.654-.004-.014c-.013-.047-.064-.21-.119-.396l-.03-.092c-.081-.246-.105-.275-.13-.174-.02.071-.035.246-.036.391v.09c0 .198.013.21.142.21h.017c.09 0 .16-.005.16-.015"/></svg>