<svg xmlns="http://www.w3.org/2000/svg" width="48" height="48" viewBox="0 0 48 48" fill="currentColor"><path d="M24.19 1.5c.752 .036 1.508 .044 2.258 .113c.974 .09 1.929 .287 2.884 .505c2.648 .603 5.044 1.77 7.304 3.244c1.23 .802 2.31 1.771 3.351 2.8a21.853 21.853 0 0 1 3.974 5.36a22.203 22.203 0 0 1 2.29 6.834c.175 1.07 .253 2.147 .249 3.232a96.42 96.42 0 0 1 -.038 2.217c-.027 .924 -.184 1.83 -.369 2.733c-.875 4.262 -2.842 7.954 -5.844 11.09c-2.974 3.107 -6.569 5.168 -10.735 6.236c-1.07 .274 -2.153 .477 -3.253 .574a20.69 20.69 0 0 1 -2.009 .06a57.84 57.84 0 0 1 -2.698 -.096c-.942 -.055 -1.866 -.243 -2.781 -.467c-4.185 -1.022 -7.797 -3.066 -10.821 -6.13c-2.996 -3.034 -4.956 -6.643 -5.913 -10.798c-.23 -1 -.411 -2.012 -.478 -3.034a29.647 29.647 0 0 1 -.054 -2.553c.09 -4.586 1.533 -8.726 4.151 -12.477c.928 -1.33 2.042 -2.492 3.215 -3.6c1.38 -1.305 2.96 -2.325 4.615 -3.238c1.91 -1.053 3.95 -1.744 6.083 -2.176a19.59 19.59 0 0 1 2.335 -.356c.576 -.046 1.159 -.042 1.737 -.056c.182 -.004 .362 0 .544 0c.003 -.009 .003 -.013 .003 -.017zm-2.127 .42a21.38 21.38 0 0 0 -3.583 .619c-4.045 1.066 -7.545 3.084 -10.43 6.115c-3.755 3.943 -5.844 8.638 -6.181 14.09c-.107 1.742 .017 3.474 .316 5.191a21.108 21.108 0 0 0 1.982 5.954c2.574 5.076 6.514 8.672 11.803 10.773c2.319 .921 4.73 1.453 7.237 1.501c1.594 .03 3.18 -.017 4.753 -.327c2.197 -.433 4.313 -1.105 6.29 -2.16c5.333 -2.849 8.946 -7.16 10.884 -12.88c.436 -1.284 .731 -2.605 .89 -3.954c.111 -.957 .155 -1.92 .138 -2.924a18.468 18.468 0 0 0 -.335 -3.937c-.312 -1.572 -.75 -3.101 -1.39 -4.573c-1.471 -3.383 -3.59 -6.279 -6.467 -8.601c-3.592 -2.905 -7.702 -4.534 -12.308 -4.907a21.511 21.511 0 0 0 -3.599 .02zm2.47 38.989c.24 .031 .473 .109 .71 .165c.124 .025 .245 .055 .41 .094c-.085 .308 -.194 .58 -.443 .786c-.028 -.032 -.042 -.04 -.044 -.053c-.023 -.242 -.197 -.335 -.4 -.397a1.681 1.681 0 0 0 -.97 -.023a.847 .847 0 0 0 -.459 .278a.413 .413 0 0 0 .017 .57c.132 .146 .306 .215 .488 .27c.341 .1 .683 .199 1.024 .301c.287 .086 .532 .235 .735 .459a.648 .648 0 0 1 .19 .471c-.005 .18 -.01 .363 -.033 .543c-.033 .263 -.178 .462 -.387 .62c-.285 .213 -.614 .295 -.96 .322a2.692 2.692 0 0 1 -1.09 -.138c-.227 -.076 -.472 -.1 -.709 -.147c.03 -.123 .367 -.752 .518 -.94c.037 .073 .075 .136 .102 .203a.69 .69 0 0 0 .465 .419c.35 .105 .702 .102 1.05 -.019a.783 .783 0 0 0 .494 -.477a.372 .372 0 0 0 -.046 -.375a.953 .953 0 0 0 -.459 -.352c-.216 -.078 -.435 -.145 -.655 -.216c-.252 -.084 -.507 -.159 -.752 -.253a1.276 1.276 0 0 1 -.377 -.218a.718 .718 0 0 1 -.22 -.318c-.155 -.574 .004 -1.165 .611 -1.437c.384 -.172 .786 -.19 1.19 -.138zm5.45 -.74c.072 .009 .136 .032 .233 .055c-.099 .258 -.059 .517 -.22 .752c-.071 -.046 -.13 -.088 -.193 -.124c-.077 -.044 -.155 -.109 -.239 -.121c-.42 -.06 -.823 -.002 -1.177 .251a.715 .715 0 0 0 -.31 .48c-.04 .249 .046 .393 .291 .448c.164 .035 .331 .05 .497 .063c.396 .029 .794 .048 1.19 .08c.567 .043 .884 .349 .997 .808c.136 .552 .01 1.03 -.46 1.35c-.454 .312 -.965 .423 -1.507 .415c-.14 -.002 -.279 -.025 -.42 -.02c-.135 .003 -.27 .026 -.41 .043c-.027 -.12 .105 -.725 .241 -1.005c.086 .086 .174 .163 .247 .249a.535 .535 0 0 0 .442 .195c.319 -.002 .633 -.042 .905 -.214a1.24 1.24 0 0 0 .365 -.335c.236 -.345 .083 -.762 -.325 -.85c-.352 -.076 -.718 -.09 -1.079 -.128c-.276 -.03 -.555 -.048 -.831 -.086c-.38 -.052 -.587 -.29 -.673 -.651c-.125 -.534 .027 -.949 .47 -1.263c.247 -.176 .519 -.297 .82 -.352c.38 -.067 .763 -.088 1.146 -.04zm-12.033 -.295c.023 .002 .062 0 .098 .01c.475 .139 .953 .269 1.424 .42c.23 .075 .457 .173 .669 .293c.372 .207 .576 .532 .538 .965c-.038 .444 -.27 .769 -.69 .945l-.228 .1c.38 .293 .522 .786 .386 1.25c-.12 .403 -.478 .675 -.94 .71a3.062 3.062 0 0 1 -.996 -.1c-.425 -.109 -.844 -.239 -1.267 -.36c-.052 -.015 -.1 -.042 -.163 -.067c.063 -.13 .132 -.247 .178 -.375c.098 -.277 .192 -.553 .27 -.836c.226 -.827 .446 -1.654 .662 -2.486c.038 -.144 .038 -.3 .059 -.469zm.062 2.654c-.031 .069 -.065 .14 -.085 .213c-.084 .296 -.166 .59 -.246 .886c-.01 .04 -.008 .082 -.012 .136c.41 .107 .804 .239 1.225 .275c.472 .04 .654 -.294 .712 -.608a.462 .462 0 0 0 -.125 -.425a1.252 1.252 0 0 0 -.26 -.21c-.316 -.186 -.672 -.267 -1.022 -.357c-.088 -.023 -.151 .008 -.187 .09zm.543 -1.9c-.006 0 -.013 .006 -.042 .021a5.03 5.03 0 0 0 -.27 1.202c.105 .042 .19 .09 .283 .111c.264 .063 .527 .13 .796 .166c.314 .042 .559 -.13 .668 -.423c.102 -.281 .046 -.545 -.193 -.683a3.087 3.087 0 0 0 -1.242 -.394zm5.379 -33.39c9.16 -.033 16.818 7.347 16.843 16.77c-.025 9.34 -7.543 16.662 -16.57 16.767c-9.34 .109 -16.965 -7.433 -16.976 -16.735c-.01 -9.254 7.476 -16.766 16.703 -16.802zm-16.263 16.643c-.063 9.137 7.338 16.448 16.313 16.454c9.03 .006 16.357 -7.33 16.343 -16.314c.02 -8.942 -7.197 -16.236 -16.131 -16.337c-9.133 -.102 -16.462 7.25 -16.525 16.197zm29.434 12.15c.149 .331 .214 .694 .356 1.045h1.175c-.276 .281 -.6 .478 -.925 .72l.41 1.15c-.077 -.037 -.126 -.054 -.165 -.081c-.214 -.155 -.432 -.308 -.64 -.471c-.11 -.088 -.213 -.09 -.322 -.01c-.17 .123 -.335 .248 -.505 .37c-.088 .063 -.18 .12 -.27 .18l-.042 -.03l.344 -1.074l-.943 -.626l.015 -.048l1.13 -.05l.334 -1.073c.017 0 .031 0 .048 -.002zm-26.432 -.377c.13 .415 .257 .83 .391 1.261l1.318 -.069c-.107 .149 -.23 .212 -.335 .291c-.117 .088 -.239 .17 -.358 .254c-.113 .08 -.229 .159 -.36 .253c.154 .41 .307 .819 .469 1.244c-.088 .006 -.143 -.048 -.2 -.09a53.22 53.22 0 0 1 -.674 -.499c-.182 -.136 -.193 -.142 -.385 -.014c-.17 .11 -.33 .236 -.493 .354l-.337 .236c-.038 -.096 0 -.167 .017 -.234c.05 -.18 .113 -.358 .165 -.54c.032 -.107 .053 -.216 .084 -.323c.03 -.098 -.01 -.153 -.092 -.205a34.105 34.105 0 0 1 -.735 -.482a4.014 4.014 0 0 1 -.164 -.117c.005 -.01 .007 -.021 .01 -.034l1.283 -.048l.345 -1.238h.05zm10.963 -26.119c.03 .105 .06 .189 .078 .275c.1 .528 .194 1.055 .293 1.583c.019 .096 .038 .193 .063 .285c.044 .159 .077 .182 .236 .163c.25 -.03 .497 -.071 .746 -.094a10.38 10.38 0 0 1 1.923 -.036c.5 .044 1 .09 1.5 .136c.054 .005 .11 .007 .193 .009c.029 -.136 .058 -.27 .085 -.404c.099 -.486 .193 -.972 .298 -1.456c.063 -.293 .086 -.306 .362 -.211c1.136 .387 2.269 .78 3.404 1.17l.019 .007c.224 .085 .24 .11 .136 .337c-.132 .29 -.279 .578 -.421 .865c-.103 .207 -.21 .41 -.31 .615c-.036 .074 -.063 .153 -.1 .25c.136 .09 .257 .18 .389 .255c.92 .526 1.764 1.152 2.543 1.868c.06 .057 .126 .109 .19 .163c.015 .013 .038 .017 .08 .034c.492 -.457 .99 -.92 1.515 -1.405c.867 1.122 1.682 2.24 2.522 3.378c-.084 .052 -.143 .098 -.208 .13c-.471 .243 -.944 .483 -1.416 .726l-.226 .124a14.75 14.75 0 0 1 1.422 4.408l.677 -.069c.327 -.033 .651 -.073 .978 -.103c.224 -.02 .268 .023 .268 .256c0 1.047 -.002 2.094 -.006 3.141c0 .201 -.017 .404 -.03 .605c-.01 .16 -.052 .197 -.213 .172c-.51 -.077 -1.018 -.163 -1.527 -.245c-.18 -.03 -.212 -.019 -.241 .163c-.197 1.247 -.67 2.4 -1.169 3.548c-.025 .057 -.046 .115 -.077 .193c.069 .042 .132 .081 .197 .117c.312 .172 .624 .341 .936 .511c.073 .04 .147 .082 .214 .132c.115 .082 .134 .138 .073 .268c-.057 .12 -.126 .235 -.201 .341c-.438 .622 -.88 1.24 -1.324 1.86c-.207 .289 -.417 .576 -.626 .865c-.04 .054 -.084 .109 -.145 .186c-.488 -.39 -.922 -.816 -1.378 -1.26c-.071 .06 -.138 .115 -.203 .173a14.134 14.134 0 0 1 -2.48 1.848c-.139 .08 -.283 .152 -.42 .236c-.19 .12 -.221 .21 -.136 .421c.072 .174 .162 .34 .243 .509c.097 .201 .202 .4 .287 .605c.097 .228 .078 .275 -.155 .356c-.69 .243 -1.382 .482 -2.075 .719c-.47 .159 -.94 .312 -1.41 .467c-.059 .018 -.12 .031 -.207 .054c-.023 -.077 -.044 -.128 -.055 -.18c-.092 -.465 -.18 -.93 -.27 -1.397c-.042 -.21 -.046 -.22 -.258 -.201c-.85 .075 -1.703 .046 -2.553 .03c-.626 -.013 -1.257 -.028 -1.87 -.18c-.026 -.007 -.055 -.005 -.107 -.01c-.021 .089 -.044 .173 -.061 .258c-.084 .417 -.166 .834 -.252 1.25c-.04 .19 -.085 .229 -.274 .193a4.52 4.52 0 0 1 -.568 -.146c-.984 -.314 -1.967 -.626 -2.947 -.949c-.438 -.144 -.364 -.163 -.211 -.49c.203 -.43 .429 -.846 .647 -1.267c.031 -.06 .06 -.121 .1 -.207c-1.16 -.633 -2.142 -1.473 -3.064 -2.417c-.092 .077 -.174 .14 -.25 .212c-.326 .303 -.653 .609 -.978 .915l-.044 .044c-.157 .142 -.2 .146 -.335 -.025a621.744 621.744 0 0 1 -2.31 -2.951c-.149 -.19 -.136 -.258 .069 -.383c.268 -.162 .547 -.308 .823 -.46c.22 -.12 .444 -.234 .662 -.36c.164 -.096 .17 -.138 .097 -.303c-.478 -1.091 -.796 -2.23 -1.02 -3.399c-.03 -.157 -.04 -.318 -.057 -.477c-.019 -.174 -.025 -.19 -.205 -.183c-.243 .01 -.486 .036 -.73 .061c-.305 .032 -.609 .07 -.915 .099c-.081 .008 -.165 .002 -.247 .002c-.075 -.12 -.073 -.239 -.075 -.356c-.017 -1.039 -.034 -2.08 -.053 -3.119c-.004 -.194 -.019 -.39 -.023 -.584c-.002 -.082 .013 -.163 .021 -.257c.065 .004 .111 .002 .157 .01l1.999 .354c.16 .03 .182 .023 .228 -.128c.075 -.247 .134 -.498 .205 -.745c.241 -.848 .547 -1.672 .953 -2.455c.048 -.092 .09 -.186 .145 -.301c-.07 -.044 -.128 -.088 -.193 -.124c-.39 -.218 -.781 -.431 -1.169 -.653a3.899 3.899 0 0 1 -.4 -.266c-.11 -.084 -.11 -.13 -.037 -.25c.064 -.106 .136 -.21 .207 -.314l1.912 -2.8c.164 -.236 .18 -.242 .39 -.041c.408 .39 .81 .79 1.219 1.179c.316 .301 .327 .305 .658 .008a13.918 13.918 0 0 1 2.14 -1.57c.155 -.095 .317 -.179 .474 -.27c.059 -.034 .117 -.072 .199 -.124l-.983 -2.017c.082 -.042 .145 -.08 .214 -.105c1.196 -.444 2.394 -.888 3.592 -1.33c.07 -.025 .145 -.04 .237 -.065zm17.932 23.955c.174 .32 .218 .689 .363 1.04c.379 .016 .762 .028 1.175 .045c-.044 .046 -.07 .084 -.103 .107c-.205 .144 -.412 .287 -.62 .429c-.161 .113 -.176 .136 -.12 .329c.051 .174 .116 .343 .173 .515c.04 .117 .077 .234 .132 .402c-.384 -.163 -.641 -.434 -.985 -.62l-.955 .727c.023 -.1 .031 -.157 .048 -.212c.082 -.251 .17 -.502 .25 -.754c.06 -.19 .06 -.203 -.101 -.314c-.224 -.155 -.455 -.297 -.683 -.446c-.023 -.014 -.044 -.031 -.105 -.075c.153 -.015 .27 -.03 .39 -.038c.132 -.01 .264 -.015 .398 -.023l.385 -.03c.107 -.378 .208 -.73 .306 -1.082h.052zm-31.597 -.536c.178 .343 .238 .729 .387 1.116c.415 .025 .84 .05 1.265 .078c-.31 .276 -.664 .473 -.961 .76l.398 1.164l-.04 .03c-.06 -.04 -.124 -.078 -.184 -.118c-.218 -.15 -.432 -.31 -.654 -.452c-.203 -.13 -.222 -.124 -.406 .019c-.205 .157 -.407 .318 -.612 .475c-.058 .044 -.12 .086 -.178 .13c-.01 -.008 -.023 -.017 -.033 -.027l.4 -1.213l-1.035 -.693c.153 -.065 .289 -.03 .421 -.036c.132 -.006 .266 -.002 .398 -.002c.136 -.002 .276 -.002 .419 -.002c.123 -.419 .243 -.823 .364 -1.227l.05 -.002zm18.562 -19.874c-.733 .004 -1.466 .004 -2.199 .004h-2.22c-.057 0 -.111 0 -.168 .002c-.075 .002 -.115 .044 -.117 .118a2.517 2.517 0 0 0 -.004 .125c-.013 .587 -.023 1.173 -.036 1.757c-.004 .237 -.023 .256 -.247 .258c-.838 .01 -1.674 .02 -2.512 .027c-.649 .006 -1.298 .006 -1.948 .008c-.276 .003 -.276 .003 -.276 .281c0 1.074 -.002 2.149 .002 3.225a.8 .8 0 0 1 -.13 .452c-.147 .229 -.291 .461 -.42 .7c-.68 1.242 -1.019 2.576 -1.08 3.983a9.37 9.37 0 0 0 .229 2.45a9.012 9.012 0 0 0 1.244 2.932a.945 .945 0 0 1 .155 .549c-.006 1.083 -.004 2.163 -.002 3.246c0 .205 .01 .214 .21 .218c.62 .012 1.241 .027 1.861 .037c1.09 .017 2.177 .038 3.266 .04c1.577 .002 3.155 -.008 4.732 -.02c1.194 -.01 2.386 -.03 3.58 -.047l1.152 -.01c.221 -.002 .246 -.004 .249 -.185v-.286c0 -1.033 .002 -2.065 -.002 -3.1c0 -.132 .027 -.245 .105 -.352c.517 -.73 .863 -1.545 1.126 -2.396c.17 -.546 .298 -1.103 .365 -1.673c.075 -.655 .031 -1.31 -.004 -1.964a5.228 5.228 0 0 0 -.099 -.809a10.286 10.286 0 0 0 -1.311 -3.264a1.129 1.129 0 0 1 -.17 -.53a5.962 5.962 0 0 1 -.008 -.335c0 -.928 0 -1.856 -.002 -2.786c0 -.317 .033 -.354 -.206 -.357h-4.555c-.247 0 -.26 -.015 -.26 -.262v-1.739l-.002 -.167c0 -.086 -.044 -.128 -.13 -.128l-.168 -.002zm4.705 2.655c.036 0 .07 .003 .105 0c.094 -.004 .142 .044 .148 .137c.005 .062 .007 .125 .007 .188v16.73c-.002 .274 -.007 .28 -.283 .28h-3.81c-.082 0 -.164 -.008 -.239 -.012c-.025 -.083 -.04 -3.962 -.045 -8.026v-1.182l-.001 -.393v-2.295c.004 -2.95 .014 -5.312 .033 -5.413c.084 -.004 .158 -.013 .233 -.013h3.852zm-5.002 -2.299c.218 0 .235 .02 .239 .243v19.015c0 .115 -.01 .233 -.017 .34c-.302 .062 -4.11 .027 -4.309 -.04c-.004 -.074 -.012 -.155 -.012 -.239l-.002 -1.403l-.03 -15.558c0 -.56 .005 -1.116 .009 -1.675c.002 -.153 .019 -.306 .02 -.461c.003 -.113 .064 -.165 .166 -.178c.153 -.017 .306 -.036 .459 -.036c1.158 -.006 2.319 -.008 3.477 -.008zm-4.975 2.297c.078 .002 .153 .009 .245 .013c.01 .096 .028 .178 .028 .257c0 1.655 0 3.307 -.003 4.962c-.004 1.656 -.004 3.31 -.01 4.963a3674.1 3674.1 0 0 1 -.027 6.802c-.002 .312 -.004 .314 -.317 .316l-3.747 .019l-.126 -.002c-.109 .004 -.15 -.052 -.148 -.155l-.002 -.126v-16.767c0 -.253 .001 -.278 .202 -.28h3.905zm20.004 14.38c.193 .324 .25 .69 .39 1.05h1.15l.016 .047c-.295 .215 -.588 .43 -.907 .661l.36 1.07l-.039 .03c-.092 -.057 -.184 -.111 -.274 -.172c-.162 -.111 -.315 -.232 -.478 -.34c-.176 -.114 -.205 -.108 -.369 .02c-.192 .15 -.38 .303 -.574 .452c-.041 .031 -.094 .052 -.17 .092c.047 -.404 .237 -.74 .313 -1.114c-.283 -.243 -.63 -.4 -.939 -.7c.107 -.02 .164 -.041 .22 -.04c.21 .005 .417 .02 .627 .026c.104 .004 .207 0 .318 0c.142 -.35 .18 -.735 .356 -1.083zm-35.167 -.792c.197 .333 .253 .72 .406 1.089h1.351c-.06 .06 -.088 .096 -.123 .121c-.237 .174 -.476 .341 -.71 .517c-.233 .174 -.23 .176 -.139 .442c.072 .203 .145 .406 .212 .612c.03 .09 .046 .184 .07 .278a.312 .312 0 0 1 -.043 .027l-.99 -.682c-.346 .261 -.675 .51 -1.004 .762l-.033 -.025c.035 -.117 .073 -.235 .109 -.352c.069 -.22 .132 -.44 .207 -.658c.042 -.117 .013 -.207 -.082 -.276c-.184 -.136 -.37 -.272 -.559 -.402c-.124 -.086 -.253 -.161 -.381 -.243l.01 -.042l1.314 -.05c.113 -.375 .226 -.746 .339 -1.114l.046 -.004zm-.023 -5.938c.36 .147 .612 .417 .651 .807c.055 .546 .059 1.097 .084 1.648c0 .012 -.01 .025 -.027 .06c-1.165 -.037 -2.338 -.01 -3.53 .166c-.01 -.038 -.033 -.094 -.04 -.153a7.298 7.298 0 0 1 -.03 -1.585a.924 .924 0 0 1 .99 -.87c.228 .011 .415 .11 .568 .277c.056 .06 .109 .124 .174 .2l.117 -.191c.228 -.382 .628 -.526 1.043 -.359zm35.362 -.487c1.213 .11 2.407 .04 3.594 .07c.067 .216 .049 .776 -.035 .956c-.139 -.084 -.266 -.023 -.388 .042c-.655 .356 -1.309 .716 -1.962 1.076c-.021 .013 -.038 .033 -.088 .077c.08 .007 .123 .013 .17 .015c.53 .021 1.06 .046 1.59 .059c.215 .008 .437 .031 .661 -.149v.704c-.99 -.118 -1.967 -.12 -2.943 -.145h-.063c-.207 .002 -.42 -.01 -.578 .22c-.084 -.314 -.004 -.582 .038 -.875c.184 .081 .33 0 .473 -.08c.77 -.423 1.54 -.848 2.308 -1.275c.01 -.006 .02 -.02 .028 -.03c-.252 -.131 -2.271 -.163 -2.807 -.037a2.177 2.177 0 0 1 .002 -.628zm-37.813 1.529c-.088 .323 -.035 .66 -.037 1l1.154 .001c-.021 -.31 -.03 -.594 -.065 -.875c-.015 -.12 -.082 -.237 -.139 -.348c-.027 -.052 -.077 -.11 -.13 -.127c-.37 -.116 -.657 -.105 -.783 .35zm2.009 -.546c-.197 .002 -.314 .113 -.408 .38c-.009 .028 -.021 .053 -.026 .08c-.065 .331 -.048 .664 -.037 1.012c.41 -.002 .808 -.002 1.208 -.002c.007 -.036 .013 -.055 .013 -.076c-.015 -.215 -.027 -.431 -.05 -.645a1.808 1.808 0 0 0 -.076 -.366c-.092 -.274 -.287 -.387 -.624 -.383zm1.567 -4.214c.02 .264 -.025 .507 -.145 .775c-.065 -.178 -.19 -.165 -.316 -.142c-.233 .041 -.463 .088 -.702 .132c-.054 .391 -.104 .762 -.159 1.135c-.013 .088 .027 .144 .088 .199c.203 .178 .58 .33 .867 .345c.004 .189 -.052 .364 -.1 .572c-.078 -.036 -.145 -.063 -.21 -.094c-.813 -.403 -1.621 -.807 -2.436 -1.202c-.228 -.114 -.471 -.204 -.743 -.319c.008 -.27 .05 -.553 .13 -.835c.351 .096 .678 .006 1.003 -.049c.817 -.136 1.631 -.293 2.446 -.444c.088 -.016 .174 -.046 .277 -.073zm33.728 -.276c.222 .035 .419 .073 .618 .1c.892 .115 1.782 .229 2.675 .337c.11 .013 .226 -.01 .38 -.018c.125 .255 .135 .56 .175 .844c-.189 .07 -.356 .121 -.51 .194c-.919 .436 -1.817 .913 -2.674 1.466c-.048 .034 -.103 .061 -.178 .105c-.038 -.237 -.124 -.442 -.113 -.645c.23 -.094 .448 -.168 .651 -.266c.306 -.149 .314 -.17 .264 -.5c-.05 -.33 -.115 -.658 -.174 -.987a2.544 2.544 0 0 0 -.819 -.077c-.26 .008 -.303 -.032 -.308 -.294c-.002 -.081 .009 -.163 .013 -.26zm-35.404 1.12c-.507 .052 -1.005 .153 -1.514 .272c.17 .166 1.043 .6 1.365 .687c.116 -.176 .208 -.743 .15 -.959zm36.969 -.427c.075 .341 .098 .664 .192 .976c.526 -.197 1.224 -.587 1.362 -.765c-.245 -.102 -.505 -.096 -.756 -.123c-.258 -.027 -.514 -.092 -.798 -.088zm-37.568 -4.777c.115 .07 .207 .138 .312 .184c.87 .384 1.758 .71 2.669 .974c.136 .04 .285 .044 .427 .067c-.031 .23 -.174 .589 -.308 .752c-.036 -.055 -.056 -.128 -.105 -.153c-.048 -.025 -.121 -.006 -.182 .004l-2.903 .511c.306 .205 2.061 .813 2.74 .961a2.16 2.16 0 0 1 -.229 .616c-.211 -.1 -.4 -.203 -.599 -.28c-.722 -.277 -1.445 -.55 -2.172 -.815c-.195 -.071 -.4 -.113 -.628 -.178a6.69 6.69 0 0 1 .366 -.917c.074 .136 .16 .176 .283 .155c.781 -.143 1.565 -.279 2.346 -.417c.021 -.004 .04 -.013 .076 -.027c-.042 -.028 -.072 -.057 -.107 -.07c-.595 -.217 -1.192 -.435 -1.79 -.647c-.127 -.046 -.259 -.094 -.416 .015c-.006 -.297 .153 -.503 .22 -.735zm38.152 -.308c.023 .038 .063 .086 .082 .14c.165 .467 .347 .928 .486 1.402c.148 .513 .008 .973 -.375 1.338c-.457 .435 -1.016 .653 -1.645 .685c-.393 .02 -.722 -.135 -.99 -.415a2.325 2.325 0 0 1 -.248 -.31c-.316 -.465 -.47 -1.005 -.7 -1.523c.16 -.04 .292 -.056 .414 -.102c.854 -.323 1.707 -.647 2.56 -.98c.14 -.055 .263 -.147 .416 -.235zm-.316 .813c-.053 .019 -.107 .033 -.16 .052l-2.142 .831c-.025 .013 -.046 .03 -.09 .055c.125 .381 .285 .74 .563 1.032a.814 .814 0 0 0 .7 .266a2.507 2.507 0 0 0 1.296 -.534a.725 .725 0 0 0 .291 -.492c.05 -.42 -.1 -.794 -.3 -1.154c-.035 -.063 -.09 -.084 -.158 -.056zm-35.725 -4.161c.185 .645 .359 1.243 .535 1.863l2.576 -.062c-.027 .19 -.224 .498 -.404 .649c-.111 -.036 -.212 -.09 -.312 -.092c-.474 -.013 -.95 -.01 -1.423 -.01a.56 .56 0 0 0 -.144 .02c-.086 .023 -.13 .082 -.11 .172c.047 .205 .097 .417 .292 .536c.26 .16 .53 .306 .798 .452c.065 .036 .147 .038 .25 .063a3.048 3.048 0 0 1 -.411 .624c-.373 -.343 -.792 -.58 -1.198 -.833a56.95 56.95 0 0 0 -1.324 -.8c-.166 -.099 -.335 -.203 -.54 -.195c.012 -.193 .2 -.478 .408 -.626c.369 .345 .794 .576 1.244 .848c-.015 -.094 -.017 -.14 -.03 -.184c-.135 -.476 -.274 -.951 -.414 -1.424c-.033 -.116 -.07 -.24 -.253 -.206c.109 -.295 .276 -.519 .46 -.795zm33.796 -.373c.155 .176 .284 .385 .427 .607c-.427 .124 -.763 .39 -1.119 .616c-.352 .226 -.693 .471 -1.037 .708l-.016 .012c-.426 .323 -.457 .66 -.097 1.06c.065 .073 .139 .136 .21 .205c.136 .136 .295 .155 .46 .07a12.653 12.653 0 0 0 2.175 -1.408c.042 -.032 .073 -.078 .142 -.153c.153 .232 .29 .438 .415 .63c-.153 .061 -.291 .097 -.41 .168c-.365 .22 -.721 .452 -1.081 .678c-.279 .174 -.551 .356 -.838 .516c-.415 .228 -.8 .184 -1.16 -.124c-.342 -.291 -.579 -.647 -.642 -1.097c-.046 -.342 .04 -.64 .333 -.848c.382 -.27 .765 -.539 1.148 -.807c.275 -.192 .553 -.379 .824 -.576c.092 -.067 .167 -.159 .266 -.257zm-2.145 -2.363c.297 .195 .521 .463 .708 .76c.121 .195 .224 .403 .347 .625c-.23 .096 -.456 .159 -.718 .178c.01 -.078 .008 -.128 .025 -.168a.426 .426 0 0 0 -.027 -.383a1.52 1.52 0 0 0 -.662 -.647a.48 .48 0 0 0 -.48 .01c-.107 .063 -.167 .151 -.15 .275c.012 .102 .03 .21 .07 .303c.089 .212 .195 .417 .288 .627c.09 .203 .186 .406 .26 .615c.202 .578 -.286 1.085 -.694 1.17c-.31 .066 -.6 .011 -.859 -.165a2.401 2.401 0 0 1 -.875 -1.042c-.06 -.132 -.137 -.254 -.216 -.4c.237 -.128 .51 -.202 .831 -.243c-.027 .067 -.041 .106 -.06 .146c-.118 .235 -.116 .463 .058 .664c.14 .163 .296 .316 .457 .459c.195 .17 .423 .167 .647 .063c.226 -.105 .31 -.304 .218 -.537c-.09 -.232 -.203 -.458 -.304 -.689c-.11 -.255 -.222 -.51 -.329 -.768a.557 .557 0 0 1 .03 -.465c.26 -.553 .911 -.729 1.435 -.388zm-27.428 -1.023c.966 .097 1.837 1.066 1.841 2.12a1.343 1.343 0 0 1 -.337 .831c-.538 .63 -1.361 .775 -2.074 .346c-.59 -.356 -.967 -.871 -1.082 -1.563c-.143 -.86 .571 -1.84 1.652 -1.734zm-.484 .499c-.316 .13 -.542 .366 -.668 .683a.645 .645 0 0 0 -.042 .364c.16 .68 .564 1.175 1.205 1.455c.335 .147 .655 .076 .936 -.159c.07 -.058 .13 -.125 .195 -.19a.693 .693 0 0 0 .21 -.53c-.011 -.082 -.015 -.166 -.032 -.247c-.14 -.677 -.758 -1.294 -1.44 -1.42a.683 .683 0 0 0 -.364 .044zm3.612 -3.175c.11 .178 .232 .369 .35 .555c-.596 .15 -1.073 .48 -1.567 .82c.167 .338 .345 .64 .563 .945c.373 -.178 .706 -.38 .982 -.672c.143 .076 .323 .348 .375 .564c-.427 .035 -.75 .295 -1.1 .487c.057 .26 .474 .91 .849 1.328c-.176 .17 -.394 .279 -.58 .415c-.13 -.266 -.233 -.517 -.369 -.748a89.948 89.948 0 0 0 -1.108 -1.824c-.109 -.178 -.237 -.343 -.369 -.53c.078 -.063 .155 -.132 .24 -.186c.355 -.233 .718 -.457 1.074 -.691c.218 -.145 .43 -.302 .66 -.463zm18.598 -.283c.216 .055 .408 .174 .59 .323c-.364 .39 -.542 .875 -.835 1.328c.465 .247 .907 .502 1.395 .726c.264 -.454 .528 -.892 .643 -1.422c.212 .124 .44 .206 .61 .369a23.904 23.904 0 0 0 -1.716 3.16c-.232 -.09 -.467 -.199 -.658 -.396c.074 -.054 .147 -.086 .187 -.142c.26 -.354 .488 -.729 .689 -1.154c-.448 -.25 -.888 -.492 -1.355 -.752c-.23 .46 -.52 .871 -.664 1.382c-.254 -.014 -.455 -.165 -.654 -.26c.178 -.274 .358 -.53 .513 -.8c.373 -.653 .736 -1.315 1.098 -1.974c.063 -.113 .1 -.241 .157 -.388zm-3.62 -1.449c.162 .084 .3 .176 .455 .23a77.6 77.6 0 0 0 1.667 .551c.136 .044 .285 .055 .453 .084c-.021 .201 -.11 .383 -.201 .589a3.82 3.82 0 0 0 -.953 -.409c-.021 .038 -.04 .065 -.05 .096c-.269 .807 -.541 1.613 -.803 2.421c-.098 .304 -.088 .32 -.031 .526c-.21 .023 -.664 -.132 -.857 -.302c.203 -.012 .272 -.155 .323 -.307c.224 -.675 .446 -1.35 .666 -2.025l.16 -.537c-.322 -.165 -.64 -.287 -1.023 -.257c.037 -.241 .13 -.453 .194 -.66zm-9.752 .15c.019 -.001 .037 .013 .08 .028c-.047 .228 -.09 .459 -.141 .71c-.054 -.038 -.096 -.059 -.128 -.09c-.172 -.172 -.385 -.216 -.616 -.193a1.122 1.122 0 0 0 -.582 .214a1.04 1.04 0 0 0 -.253 .272c-.139 .237 -.05 .448 .213 .52c.14 .037 .287 .052 .434 .06c.306 .02 .614 .023 .92 .044c.443 .032 .73 .252 .86 .643c.134 .406 .017 .823 -.301 1.102a1.476 1.476 0 0 1 -.89 .377c-.327 .02 -.656 .016 -.983 .023c-.04 0 -.08 -.015 -.117 -.021c-.034 -.166 .037 -.568 .146 -.806c.07 .075 .122 .127 .17 .186a.531 .531 0 0 0 .398 .205c.323 .013 .628 -.05 .882 -.26a.9 .9 0 0 0 .222 -.272c.142 -.274 .004 -.571 -.302 -.624c-.287 -.048 -.582 -.058 -.873 -.086c-.216 -.02 -.43 -.042 -.645 -.067c-.627 -.07 -.817 -.808 -.578 -1.225c.188 -.33 .448 -.582 .835 -.634c.413 -.055 .832 -.072 1.249 -.105zm6.502 -.554c-.185 .664 -.241 1.33 -.317 1.992a7.885 7.885 0 0 0 -.04 .668c-.008 .278 .12 .467 .39 .548c.086 .027 .172 .059 .262 .074a.67 .67 0 0 0 .754 -.396c.044 -.094 .077 -.197 .092 -.3c.086 -.664 .17 -1.327 .245 -1.993c.013 -.12 -.017 -.243 -.03 -.394c.24 -.048 .489 .002 .744 .075c-.171 .304 -.182 .633 -.234 .951c-.09 .542 -.168 1.089 -.25 1.634l-.006 .041c-.115 .507 -.329 .719 -.838 .802a1.82 1.82 0 0 1 -1.141 -.17c-.356 -.18 -.56 -.466 -.53 -.872c.036 -.486 .094 -.972 .147 -1.456c.029 -.285 .07 -.567 .098 -.852c.008 -.143 .031 -.29 -.117 -.43c.293 -.037 .53 .005 .77 .078zm-3.212 -.036c.55 .074 .926 .39 1.138 .903c.134 .318 .18 .653 .186 1.001c-.019 .172 -.025 .348 -.058 .517c-.143 .733 -.715 1.207 -1.462 1.202c-.193 0 -.394 -.016 -.579 -.067c-.513 -.144 -.819 -.51 -.976 -1.005a2.627 2.627 0 0 1 -.04 -1.445c.063 -.253 .176 -.486 .354 -.678c.204 -.222 .44 -.39 .75 -.413c.229 -.017 .463 -.046 .687 -.015zm-.804 .518a1.035 1.035 0 0 0 -.492 .718c-.023 .157 -.036 .316 -.053 .475c.007 0 .01 0 .017 .002c0 .078 -.004 .153 0 .23c.034 .46 .2 .851 .583 1.132a.557 .557 0 0 0 .368 .119c.153 -.008 .306 -.025 .457 -.048a.675 .675 0 0 0 .467 -.32c.136 -.21 .207 -.44 .237 -.685c.056 -.455 0 -.893 -.248 -1.288c-.255 -.41 -.913 -.57 -1.336 -.335z"/></svg>