<svg xmlns="http://www.w3.org/2000/svg" width="48" height="48" viewBox="0 0 48 48" fill="currentColor"><path d="M32.788 44.725c6.716 -2.873 11.69 -8.869 13.207 -15.924c.942 -4.374 .56 -8.988 -1.093 -13.164c-1.505 -3.803 -4.16 -7.235 -7.523 -9.72c-4.265 -3.15 -9.355 -4.671 -14.698 -4.382c-5.63 .304 -11.258 2.943 -15.084 7.074c-2.932 3.165 -4.783 6.758 -5.654 10.982c-.89 4.322 -.431 8.962 1.296 13.07c2.504 5.966 7.444 10.592 13.51 12.642c5.253 1.776 11.016 1.57 16.039 -.578zm-10.932 .946c-3.909 -.44 -7.25 -1.682 -10.336 -3.845c-3.217 -2.256 -5.882 -5.564 -7.47 -9.263c-1.104 -2.572 -1.66 -5.17 -1.724 -8.035c-.075 -3.529 .71 -6.983 2.317 -10.19c2.902 -5.8 8.266 -9.976 14.697 -11.44c1.84 -.417 3.957 -.582 5.924 -.466c2.82 .173 5.32 .8 7.835 1.968a22.102 22.102 0 0 1 8.402 6.86a22.188 22.188 0 0 1 2.763 5.076c.684 1.806 1.085 3.525 1.325 5.658c.083 .743 .094 3.312 .02 4.093c-.44 4.468 -2.107 8.478 -4.926 11.846c-3.86 4.607 -9.22 7.37 -15.122 7.794c-.8 .057 -2.988 .023 -3.705 -.056zm3.903 -.717c3.546 -.257 6.886 -1.386 9.803 -3.31a20.313 20.313 0 0 0 3.359 -2.761c2.227 -2.23 3.785 -4.663 4.834 -7.544c1.648 -4.532 1.637 -9.538 -.03 -14.231a22.43 22.43 0 0 0 -.911 -2.108a20.516 20.516 0 0 0 -6.938 -7.894c-3.187 -2.152 -6.594 -3.314 -10.423 -3.554c-.56 -.033 -1.83 -.04 -2.298 -.01c-2.985 .182 -5.567 .873 -8.22 2.204a20.488 20.488 0 0 0 -7.25 6.034a20.863 20.863 0 0 0 -3.752 8.362a19.126 19.126 0 0 0 -.41 4.124c0 1.02 .026 1.514 .134 2.47c.609 5.43 3.624 10.69 8.047 14.045c3.071 2.331 6.452 3.658 10.495 4.117c.695 .083 2.78 .112 3.56 .056zm-3.249 -39.794c-.194 0 -.24 -.022 -.295 -.13c-.053 -.102 -.161 -.632 -.161 -.79c0 -.164 .071 -.197 .46 -.197l.287 -.004v.5c0 .587 -.015 .621 -.291 .621zm3.351 3.774h-1.035l-.138 -.33a7.896 7.896 0 0 0 -.639 -1.228c-.258 -.4 -.314 -.512 -.314 -.628c0 -.235 .277 -.13 .564 .213c.24 .288 .464 .631 .654 1.001l.142 .28l.026 -.261c.015 -.146 .038 -.497 .053 -.785c.03 -.583 .033 -.571 -.213 -.65c-.381 -.123 -.538 -.706 -.254 -.941c.276 -.236 .754 -.27 1.027 -.079c.082 .056 .187 .16 .239 .232c.086 .13 .086 .134 .064 .84c-.023 .684 -.113 1.962 -.154 2.212l-.022 .124zm-3.321 -.157a12.978 12.978 0 0 1 -.168 -.87a43.504 43.504 0 0 0 -.154 -.909c-.044 -.228 -.22 -.123 -.4 .24c-.123 .246 -.197 .541 -.25 1.023a3.02 3.02 0 0 1 -.063 .422c-.011 .015 -.045 .008 -.075 -.018a.798 .798 0 0 0 -.138 -.086c-.041 -.023 -.24 -.25 -.437 -.512l-.359 -.475l-.019 -.254c-.026 -.347 -.07 -.422 -.25 -.422c-.224 0 -.366 -.067 -.49 -.235c-.317 -.434 .064 -.998 .67 -.998c.481 0 .74 .351 .862 1.177c.027 .164 .053 .314 .064 .333c.011 .015 .067 -.071 .127 -.195c.06 -.123 .18 -.284 .261 -.362l.154 -.138l-.086 -.116c-.18 -.247 -.109 -.662 .142 -.84c.15 -.102 .19 -.113 .444 -.117c.18 -.003 .254 .015 .351 .079c.296 .202 .355 .47 .195 .844l-.086 .198l.078 .097c.041 .053 .109 .206 .15 .344c.108 .374 .235 1.125 .213 1.285c-.026 .187 -.254 .53 -.404 .61c-.142 .07 -.276 .03 -.332 -.105zm-.396 -3.127c-.137 -.146 -.151 -.141 -.298 .033c-.16 .188 -.16 .315 0 .353c.317 .08 .506 -.165 .298 -.386zm3.05 -.006c-.074 -.107 -.222 -.13 -.352 -.051c-.12 .07 -.106 .298 .019 .387c.282 .2 .531 -.052 .333 -.336zm-5.143 .893c.135 -.026 .158 -.052 .158 -.181a.285 .285 0 0 0 -.102 -.227c-.14 -.108 -.237 -.103 -.335 .016c-.107 .129 -.084 .386 .032 .407a.73 .73 0 0 0 .247 -.015zm11.773 4.302c-.21 0 -.213 -.03 -.038 -.396c.071 -.15 .131 -.291 .131 -.314c0 -.082 .127 -.287 .359 -.571c.13 -.165 .246 -.333 .254 -.374a8.21 8.21 0 0 0 .056 -.367l.015 -.107c.045 -.314 .045 -.4 .007 -.426c-.037 -.027 -.011 -.109 .101 -.355c.262 -.568 .71 -1.387 .848 -1.54c.194 -.216 .475 -.302 .699 -.22c.086 .033 .097 .052 .078 .168c-.03 .18 -.631 1.472 -1.42 3.056l-.309 .618c-.335 .665 -.39 .737 -.483 .776a.926 .926 0 0 1 -.298 .052zm-12.947 -1.488c-.157 -.075 -.239 -.239 -.534 -1.016c-.515 -1.375 -.583 -1.659 -.44 -1.932c.085 -.168 .115 -.19 .29 -.194c.087 -.004 .139 .019 .176 .082c.082 .12 .258 .56 .49 1.203c.108 .307 .209 .587 .224 .62c.019 .049 .06 .056 .187 .042c.302 -.034 .426 .048 .317 .216c-.03 .049 -.048 .049 -.153 -.011c-.202 -.112 -.213 -.097 -.202 .262c.012 .302 .019 .328 .09 .34c.045 .007 .153 .09 .247 .186l.164 .176l-.1 .045c-.158 .07 -.602 .06 -.756 -.019zm13.095 -1.535a1.433 1.433 0 0 1 -.28 -.079c-.109 -.056 -.127 -.198 -.056 -.351c.112 -.232 .284 -.153 .295 .13c.004 .176 .056 .217 .15 .128c.09 -.09 .078 -.37 -.02 -.505c-.063 -.086 -.078 -.142 -.063 -.28c.026 -.21 .247 -.676 .3 -.624c.018 .019 .044 .164 .055 .318c.019 .22 .008 .325 -.045 .455c-.056 .154 -.056 .18 -.007 .236c.09 .1 .108 .217 .063 .377c-.052 .202 -.134 .243 -.392 .195zm-1.12 2.641c-.03 .034 -.834 -.37 -.92 -.463c-.19 -.206 -.134 -.456 .333 -1.435l.328 -.687l-.112 -.06c-.29 -.149 -.369 -.665 -.161 -.958c.01 .175 .224 .289 .45 .137c.095 -.069 .066 -.232 -.063 -.337a1.167 1.167 0 0 0 -.059 -.05a.43 .43 0 0 1 .345 .035c.172 .09 .55 .392 .55 .44c0 .023 -.034 .15 -.075 .277c-.041 .13 -.075 .295 -.075 .362c0 .18 -.034 .243 -.13 .243c-.203 0 -.4 .467 -.45 1.046a2.087 2.087 0 0 1 -.074 .411c-.09 .254 -.075 .367 .06 .441c.116 .064 .116 .064 .093 .322a1.24 1.24 0 0 1 -.04 .276zm-13.163 -.366c-.25 0 -.437 -.06 -.534 -.172c-.082 -.09 -.261 -.53 -.572 -1.394c-.313 -.859 -.373 -1.113 -.32 -1.307c.048 -.18 .164 -.33 .272 -.351c.045 -.008 .093 -.02 .105 -.023c.01 0 .048 .019 .082 .041c.086 .067 .28 .508 .549 1.27l.152 .428a.276 .276 0 0 0 -.159 .109a.461 .461 0 0 0 -.09 .251c0 .121 .023 .141 .163 .141c.27 0 .343 -.045 .343 -.221l-.004 -.042h.05c.27 0 .43 .063 .565 .22c.396 .47 .067 1.046 -.602 1.05zm1.883 -2.806c-.205 -.243 -.074 -.344 .19 -.15c.15 .109 .333 .33 .303 .363c-.048 .045 -.407 -.108 -.493 -.213zm.98 1.035c-.262 -.041 -.464 -.153 -.587 -.325c-.064 -.086 -.116 -.187 -.116 -.228c0 -.105 .216 -.086 .414 .037c.195 .127 .445 .393 .445 .479c0 .052 -.026 .056 -.157 .037zm11.465 .927c-.284 -.034 -.766 -.202 -.89 -.307c-.138 -.112 -.134 -.18 .012 -.467l.12 -.232l.026 .266c.015 .145 .044 .302 .067 .347c.063 .116 .104 .097 .13 -.067c.027 -.172 .184 -.377 .288 -.377c.12 0 .195 .164 .168 .37c-.04 .32 .15 .325 .314 0a.62 .62 0 0 1 .094 -.146c.01 0 .018 .108 .018 .243c0 .328 -.07 .403 -.347 .37zm-11.227 -.408a1.21 1.21 0 0 0 -.373 -.187c-.254 -.07 -.389 -.134 -.411 -.198c-.023 -.067 .063 -.056 .448 .068c.486 .16 .814 .388 .706 .497c-.048 .048 -.15 -.004 -.37 -.18zm12.718 3.255c-.322 -.135 -.501 -.68 -.314 -.957c.134 -.202 .299 -.269 .59 -.246c.134 .007 .28 .03 .325 .04c.071 .023 .108 -.01 .273 -.265a2.01 2.01 0 0 0 .209 -.377c.026 -.105 -.078 -.24 -.643 -.83c-.213 -.224 -.388 -.422 -.388 -.437c.004 -.04 .34 -.31 .497 -.4c.168 -.093 .418 -.063 .72 .087c.176 .085 .367 .235 .658 .511c.27 .254 .445 .396 .52 .411c.12 .023 .22 .135 .22 .243c0 .112 -.138 .217 -.28 .217c-.198 0 -.392 -.116 -.736 -.44a6.511 6.511 0 0 0 -.43 -.375c-.12 -.086 -.235 -.108 -.235 -.048c0 .019 .138 .21 .302 .418c.352 .449 .482 .703 .49 .95c0 .149 -.026 .212 -.24 .534c-.377 .564 -.675 .919 -.832 .997c-.161 .075 -.482 .06 -.706 -.033zm-12.968 -2.81l-.164 -.183l-.098 .1c-.052 .06 -.112 .105 -.13 .105c-.034 0 -.176 -.112 -.475 -.38l-.16 -.143h.302c.165 0 .37 .019 .46 .041c.302 .075 .904 .617 .825 .74c-.07 .12 -.31 .004 -.56 -.28zm.766 .142c0 -.172 .056 -.344 .108 -.344a.574 .574 0 0 1 .183 .758c-.082 .158 -.291 -.138 -.291 -.414zm9.949 .374c-.109 -.068 -.142 -.367 -.06 -.505c.03 -.048 .265 .004 .493 .108c.194 .086 .198 .094 .176 .213c-.012 .064 -.053 .142 -.086 .165c-.067 .052 -.452 .063 -.523 .019zm-10.603 .317c-.142 -.067 -.276 -.295 -.28 -.467c0 -.086 .086 -.116 .13 -.045c.015 .023 .116 .094 .228 .157c.187 .105 .206 .123 .195 .228c-.015 .164 -.109 .206 -.273 .127zm1.356 .041c-.157 -.011 -.16 -.015 -.172 -.153c-.015 -.19 .079 -.344 .18 -.288a.54 .54 0 0 1 .142 .139c.16 .235 .115 .32 -.15 .302zm-.837 .254c-.052 -.022 -.074 -.284 -.026 -.332c.038 -.038 .21 -.03 .344 .015c.063 .022 .116 .063 .116 .093c0 .064 -.363 .25 -.434 .224zm-.837 2.272l-.078 -.079c-.138 -.134 -.075 -.231 .422 -.627a12.1 12.1 0 0 1 2.033 -1.32c.35 -.182 .68 -.358 .728 -.391c.112 -.083 .13 -.079 .198 .018a.34 .34 0 0 1 .06 .168c0 .109 -.217 .254 -.467 .314c-.101 .023 -.288 .09 -.415 .15a1.23 1.23 0 0 1 -.295 .108c-.034 0 -.123 .052 -.194 .112c-.068 .064 -.224 .16 -.34 .22c-.314 .161 -.725 .46 -1.069 .781c-.168 .157 -.366 .344 -.444 .415l-.139 .13zm.24 -.96c-.03 -.03 .246 -.546 .392 -.729c.284 -.355 .553 -.493 1.266 -.643c.359 -.078 .53 -.09 .53 -.044c0 .018 -.19 .138 -.418 .269a11.77 11.77 0 0 0 -1.39 .885c-.201 .15 -.373 .27 -.38 .262zm-.09 -1.01c-.116 -.182 -.135 -.29 -.06 -.343c.086 -.063 .303 -.011 .419 .097c.108 .105 .112 .146 .01 .273c-.111 .142 -.272 .135 -.37 -.026zm10.82 .229c-.173 .033 -.307 -.288 -.195 -.46c.082 -.127 .269 -.13 .325 -.003c.056 .12 -.034 .444 -.13 .463zm5.831 1.54c-.314 -.06 -.467 -.147 -.71 -.408c-.504 -.546 -.605 -1.162 -.231 -1.409c.142 -.093 .366 -.164 .448 -.142c.041 .012 .142 .068 .22 .12c.232 .16 .296 .269 .292 .508a.697 .697 0 0 1 -.071 .333c-.064 .104 -.12 .138 -.344 .198c-.075 .022 .011 .115 .187 .205c.194 .097 .422 .09 .661 -.022a1.02 1.02 0 0 1 .28 -.094c.045 0 .184 .09 .307 .202l.224 .202l-.258 .12c-.38 .175 -.72 .235 -1.005 .186zm-.448 -1.379c.2 -.017 .206 -.023 .206 -.248c0 -.226 -.005 -.232 -.212 -.25c-.178 -.017 -.212 0 -.262 .134c-.09 .243 .017 .387 .268 .364zm-5.14 2.921l-.18 -.09c-.236 -.119 -.321 -.257 -.4 -.657c-.09 -.433 -.142 -.534 -.288 -.534c-.179 0 -.332 .097 -.358 .231c-.023 .109 -.026 .112 -.075 .049c-.067 -.093 -.06 -.247 .011 -.351c.038 -.049 .176 -.139 .31 -.198c.24 -.109 .415 -.236 .415 -.3c0 -.048 -.153 -.037 -.37 .03c-.388 .113 -.388 -.033 -.004 -.175c.213 -.078 .374 -.187 .374 -.258c0 -.052 -.12 -.045 -.374 .026c-.179 .049 -.235 .053 -.272 .015c-.034 -.033 -.034 -.052 .01 -.078a4.53 4.53 0 0 1 .516 -.206c.027 -.007 .064 -.06 .09 -.108c.097 -.22 -.18 -.284 -.4 -.093c-.07 .063 -.13 .097 -.13 .074c0 -.097 .272 -.526 .332 -.526c.011 0 .15 .104 .303 .235c.332 .28 .426 .407 .523 .729c.104 .336 .336 1.475 .336 1.647c0 .157 -.108 .344 -.269 .464l-.1 .074zm-10.747 -1.281c-.06 -.049 -.074 -.146 -.026 -.153a.913 .913 0 0 1 .112 -.015c.105 -.012 .116 -.02 .232 -.236c.071 -.134 .116 -.18 .198 -.187c.071 -.007 .13 -.056 .194 -.153a.483 .483 0 0 1 .24 -.202a1.76 1.76 0 0 0 .32 -.19a.866 .866 0 0 1 .31 -.157a.725 .725 0 0 0 .393 -.187a.374 .374 0 0 1 .228 -.09a.437 .437 0 0 0 .265 -.112c.146 -.115 .243 -.13 .27 -.048c.022 .067 -.184 .202 -.998 .646c-.811 .445 -1.26 .733 -1.394 .897c-.13 .164 -.276 .243 -.344 .187zm-9.171 1.248c-.094 -.109 -.113 -.161 -.113 -.322c0 -.123 .03 -.254 .083 -.362l.082 -.168l-.15 -.127a3.28 3.28 0 0 0 -.4 -.277l-.25 -.153l-.46 .374c-.25 .205 -.526 .418 -.616 .478l-.16 .105l-.094 -.09c-.142 -.13 -.284 -.434 -.284 -.613c-.003 -.108 .042 -.243 .142 -.448c.124 -.247 .183 -.318 .348 -.434c.261 -.183 .698 -.616 .75 -.747c.027 -.056 .072 -.112 .105 -.12c.142 -.037 .307 -.022 .359 .034c.034 .03 .06 .094 .06 .138c0 .191 -.366 .606 -.65 .74a.68 .68 0 0 0 -.28 .247c-.165 .25 -.202 .5 -.06 .403c.03 -.022 .19 -.134 .355 -.257c.519 -.378 .915 -.482 1.225 -.326c.194 .098 .968 .77 1.12 .976c.12 .157 .128 .179 .113 .414a.753 .753 0 0 1 -.392 .658c-.318 .187 -.598 .142 -.833 -.123zm22.116 -2.82c-.124 -.11 -.247 -.08 -.342 .08c-.109 .196 -.04 .334 .189 .357c.267 .035 .361 -.236 .153 -.437zm-10.52 3.429a4.858 4.858 0 0 1 -.426 -.486a3.741 3.741 0 0 0 -.344 -.396c-.127 -.079 -.074 .127 .124 .508l.185 .366l-.196 -.224a47.142 47.142 0 0 0 -.49 -.542c-.321 -.351 -.37 -.452 -.269 -.56c.094 -.105 .146 -.094 .295 .056c.146 .146 .18 .157 .243 .078c.03 -.037 .019 -.112 -.052 -.302c-.094 -.243 -.243 -.804 -.243 -.905c0 -.044 1.797 -.975 1.887 -.978c.022 -.004 .1 .097 .179 .22c.082 .123 .217 .392 .31 .598c.202 .47 .277 .575 .504 .717c.101 .06 .183 .116 .183 .127c0 .019 -.287 .165 -.328 .165c-.019 0 -.053 -.045 -.079 -.101l-.048 -.105l-.068 .082a1.2 1.2 0 0 0 -.118 .26l-.027 .088c-.071 .228 -.101 .273 -.228 .355c-.265 .168 -.165 .302 .127 .172c.123 -.053 .19 -.112 .235 -.206c.075 -.16 .168 -.172 .232 -.033c.041 .09 .037 .108 -.034 .16c-.093 .071 -.056 .123 .12 .165c.108 .026 .116 .037 .18 .407c.055 .302 .036 .332 -.281 .49c-.546 .265 -1.162 .197 -1.573 -.176zm.394 -2.016c.338 -.062 .4 -.092 .534 -.254c.192 -.226 .096 -.507 -.223 -.653c-.165 -.073 -.2 -.08 -.292 -.046c-.03 .012 -.192 .1 -.357 .196c-.166 .092 -.358 .185 -.423 .196c-.07 .015 -.123 .05 -.123 .08c0 .047 .054 .058 .25 .055c.2 0 .303 -.027 .5 -.123c.242 -.116 .31 -.139 .414 -.127c.081 .007 .05 .119 -.038 .153c-.134 .05 -.557 .377 -.603 .461c-.062 .112 .03 .127 .36 .062zm12.48 1.168c-.287 0 -.35 -.015 -.553 -.116c-.28 -.139 -.549 -.43 -.72 -.774c-.176 -.358 -.184 -.508 -.027 -.732a.77 .77 0 0 1 .08 -.1c.025 .06 .1 .087 .226 .087c.242 0 .331 -.149 .228 -.34c.042 .013 .123 .046 .198 .084c.098 .049 .217 .13 .266 .183c.213 .232 .097 .673 -.213 .83c-.15 .074 -.153 .082 -.094 .138a.81 .81 0 0 0 .557 .194c.19 .004 .247 -.011 .362 -.1a.474 .474 0 0 1 .202 -.102c.038 0 .168 .09 .288 .198l.22 .198l-.164 .12c-.22 .164 -.47 .232 -.856 .232zm.882 1.74c-.28 -.033 -.583 -.448 -.583 -.806c0 -.061 .003 -.113 .013 -.16c.026 .062 .074 .11 .14 .117c.291 .036 .474 -.341 .222 -.455c-.039 -.017 -.068 -.03 -.092 -.038l.12 -.1c.852 -.702 1.704 -1.285 2.026 -1.386c.052 -.015 .097 -.03 .104 -.03a.713 .713 0 0 1 .131 .045c.164 .071 .28 .284 .224 .411c-.022 .049 -.344 .318 -.71 .598c-.366 .276 -.72 .56 -.788 .631c-.112 .12 -.116 .135 -.078 .25c.063 .176 .022 .587 -.068 .71c-.093 .12 -.456 .24 -.661 .214zm-16.082 -2.103a.95 .95 0 0 1 -.546 -.213c-.07 -.056 -.067 -.056 .075 -.06c.02 0 .056 -.003 .102 -.009l.169 -.024c.129 -.02 .285 -.047 .439 -.075c.743 -.142 .743 -.142 .56 .015c-.228 .194 -.594 .362 -.8 .366zm6.627 12.995c-.011 -.037 .082 -.55 .206 -1.132c.68 -3.157 2.551 -11.403 2.75 -12.09c.067 -.24 .171 -.27 .238 -.068c.05 .153 .027 .299 -.212 1.423c-.175 .819 -.716 3.168 -1.277 5.566l-.14 .6c-.679 2.894 -1.343 5.677 -1.378 5.735c-.037 .063 -.16 .04 -.187 -.034zm-15.662 -12.75c.07 0 .157 -.023 .193 -.056c.101 -.092 .07 -.3 -.051 -.38c-.147 -.097 -.208 -.092 -.31 .01c-.101 .102 -.112 .291 -.025 .37c.035 .033 .122 .056 .193 .056zm9.326 .394l-.123 -.06l.112 -.048a.506 .506 0 0 0 .194 -.202c.049 -.082 .1 -.153 .12 -.153c.018 0 .056 .07 .082 .153c.086 .291 -.112 .452 -.385 .31zm.725 1.24c-.038 -.037 .123 -.526 .201 -.623c.109 -.128 .105 -.284 -.003 -.266a.752 .752 0 0 0 -.206 .105c-.172 .112 -.377 .157 -.377 .086c0 -.094 .299 -.594 .355 -.594c.03 0 .157 .127 .28 .284c.24 .299 .262 .385 .157 .541c-.1 .15 -.392 .486 -.407 .467zm16.868 2.892a.686 .686 0 0 1 -.497 -.186c-.094 -.098 -.101 -.124 -.064 -.202c.06 -.131 .217 -.24 1.159 -.785c.452 -.265 .904 -.55 1 -.639c.176 -.153 .18 -.157 .094 -.187c-.164 -.05 -1.004 .048 -1.401 .157l-.097 .03a2.567 2.567 0 0 1 -.362 .094a2.93 2.93 0 0 0 -.497 .164c-.411 .183 -.475 .176 -.643 -.045c-.21 -.273 -.217 -.358 -.045 -.52c.083 -.074 .5 -.34 .93 -.59l.785 -.455l.019 -.314l.002 -.037c.017 0 .035 0 .052 -.002c.165 -.017 .183 -.039 .2 -.22c.014 -.128 -.02 -.218 -.09 -.258l.017 -.019a.587 .587 0 0 1 .682 -.073c.13 .063 .321 .284 .388 .452c.154 .362 .004 .684 -.467 1.001l-.28 .19l.404 -.014c.672 -.03 1.053 .093 1.162 .374c.16 .396 .108 .672 -.169 .896c-.366 .295 -2.077 1.188 -2.282 1.188zm-31.226 -2.41c-.09 -.19 -.063 -.496 .068 -.78c.227 -.482 .5 -.8 .792 -.916a1.4 1.4 0 0 1 .347 -.037a.944 .944 0 0 1 .49 .104c.31 .139 1.247 .695 1.542 .916c.423 .31 .542 .568 .4 .867c-.067 .142 -.175 .186 -.325 .13a20.232 20.232 0 0 1 -.93 -.556c-.945 -.59 -1.252 -.755 -1.409 -.755c-.082 0 -.149 .045 -.298 .21c-.105 .111 -.21 .268 -.232 .347a1.1 1.1 0 0 0 .045 .627c.026 .068 .037 .131 .026 .146c-.079 .075 -.43 -.134 -.516 -.303zm24.198 -.298l-.048 -.18c-.064 -.25 -.131 -.314 -.37 -.344a.664 .664 0 0 1 -.288 -.093l-.086 -.07h.112c.064 0 .247 .044 .411 .1c.33 .112 .344 .127 .3 .415l-.03 .172zm-8.13 1.445c-.175 -.138 -.208 -.149 -.675 -.231a5.805 5.805 0 0 1 -.475 -.097c-.075 -.019 -.086 -.012 -.086 .07a.2 .2 0 0 0 .082 .154c.071 .052 .075 .06 .015 .06c-.07 0 -.523 -.415 -.59 -.538c-.034 -.064 -.011 -.101 .15 -.254c.216 -.206 .306 -.228 .295 -.079c-.008 .094 .003 .105 .13 .116c.284 .022 .367 -.097 .501 -.732a5.3 5.3 0 0 1 .112 -.46c.03 -.052 .086 -.041 .194 .034c.157 .108 .228 .127 .632 .153c.213 .015 .392 .037 .407 .052c.011 .011 -.015 .071 -.056 .135a1.397 1.397 0 0 0 -.138 .299c-.075 .254 -.273 .53 -.437 .612c-.146 .075 -.176 .127 -.083 .161c.113 .045 .325 -.03 .464 -.157a.722 .722 0 0 1 .168 -.127c.04 0 .022 .284 -.03 .463c-.03 .101 -.097 .247 -.15 .325c-.12 .18 -.235 .191 -.43 .041zm-1.127 -1.752c-.079 -.21 .145 -.355 .302 -.198c.097 .097 .094 .135 -.015 .243c-.108 .108 -.235 .09 -.287 -.045zm-1.099 .703l.112 -.064c.064 -.034 .165 -.116 .228 -.183a.475 .475 0 0 1 .27 -.15c.081 -.01 .171 -.048 .197 -.078c.071 -.086 .086 -.026 .019 .079c-.105 .16 -.448 .362 -.646 .38l-.18 .016zm8.432 2.727c-.015 -.16 .068 -.534 .295 -1.337c.21 -.722 .31 -1.006 .531 -1.484l.153 -.332l.333 .022c.183 .011 .355 .045 .388 .071c.09 .075 .041 .4 -.15 .968c-.223 .669 -.526 1.364 -.758 1.748c-.209 .355 -.358 .464 -.627 .467c-.146 .004 -.153 0 -.165 -.123zm-10.101 -1.826c-.06 -.06 0 -.183 .101 -.21c.097 -.025 .15 -.134 .112 -.246c-.011 -.04 -.063 -.086 -.112 -.097c-.31 -.078 .082 -.725 .44 -.725a.61 .61 0 0 1 .225 .06c.04 .02 .11 .063 .186 .112l.154 .101c.12 .078 .321 .194 .448 .254l.228 .105h-.187a4.244 4.244 0 0 1 -.773 -.094c-.097 -.018 -.1 -.026 -.048 -.104c.074 -.116 .037 -.22 -.071 -.187c-.139 .045 -.24 .13 -.273 .231c-.049 .142 -.019 .228 .086 .255c.097 .026 .112 .097 .056 .25c-.041 .108 -.512 .355 -.572 .295zm5.54 3c-.025 -.026 -.014 -.127 .034 -.317c.101 -.396 .33 -1.63 .385 -2.074l.045 -.374l.448 -.026c.5 -.03 .617 -.052 .617 -.104c0 -.079 -.195 -.109 -.557 -.086l-.374 .022l-.127 -.127a.63 .63 0 0 1 -.171 -.336c-.023 -.116 -.079 -.243 -.116 -.277c-.041 -.037 -.075 -.082 -.075 -.104c0 -.045 .381 -.008 .691 .07c.93 .232 1.14 .4 1.14 .916c0 .385 -.21 1.005 -.393 1.155c-.056 .048 -.074 .04 -.153 -.056c-.127 -.157 -.351 -.594 -.351 -.684a.16 .16 0 0 0 -.052 -.116c-.045 -.037 -.064 -.03 -.094 .022c-.052 .101 .008 .326 .195 .755c.145 .336 .156 .381 .156 .695c0 .538 -.183 .927 -.481 1.028c-.165 .052 -.718 .067 -.766 .018zm-3.156 -2.002c-.34 -.367 -.699 -1.058 -.691 -1.334c0 -.086 .015 -.075 .086 .09c.048 .104 .115 .201 .149 .212c.034 .015 .06 .056 .06 .101c0 .028 .015 .06 .037 .086l.037 .034c.042 .026 .075 .075 .075 .108c0 .075 .064 .127 .194 .16a.235 .235 0 0 1 .122 .083l.028 .041c.034 .067 .09 .109 .172 .127a.511 .511 0 0 1 .187 .082c.164 .146 1.068 .191 1.307 .064a1.27 1.27 0 0 1 .243 -.093c.075 -.015 .12 -.06 .157 -.15c.03 -.067 .086 -.134 .123 -.146c.109 -.033 .135 -.112 .325 -.9c.026 -.101 .038 -.079 .153 .261c.071 .202 .127 .408 .127 .456c0 .19 -.183 .479 -.347 .55a.663 .663 0 0 0 -.228 .201c-.127 .187 -.194 .213 -.366 .142c-.146 -.063 -.18 -.048 -.18 .075c0 .112 -.04 .123 -.4 .097c-.25 -.015 -.313 -.007 -.365 .045c-.168 .168 -.665 -.026 -1.005 -.392zm-.082 5.45c-.098 -.01 -.109 -.022 -.098 -.134c.012 -.086 -.015 -.153 -.082 -.235c-.343 -.407 -1.263 -2.272 -1.319 -2.671c-.022 -.165 .071 -.4 .232 -.576a.564 .564 0 0 0 .112 -.18a.207 .207 0 0 1 .097 -.119c.086 -.048 .09 -.116 .015 -.276c-.07 -.15 -.299 -.284 -.485 -.284c-.184 0 -.157 .056 .115 .243c.273 .186 .296 .269 .101 .373a.496 .496 0 0 0 -.198 .195c-.03 .067 -.074 .123 -.097 .123c-.019 0 -.127 -.075 -.235 -.168c-.109 -.094 -.24 -.18 -.288 -.19c-.13 -.034 -.112 -.143 .071 -.37c.086 -.113 .187 -.244 .224 -.296c.034 -.052 .183 -.164 .325 -.25c.374 -.22 .56 -.467 .351 -.46c-.037 0 -.242 .116 -.455 .25c-.296 .195 -.4 .28 -.441 .382a.386 .386 0 0 1 -.124 .168a.517 .517 0 0 0 -.156 .187c-.116 .205 -.191 .183 -.236 -.068c-.018 -.104 -.052 -.194 -.07 -.194c-.02 0 -.128 .052 -.236 .116c-.18 .1 -.206 .108 -.228 .052c-.03 -.082 .075 -.418 .22 -.71c.288 -.571 .748 -1.083 1.177 -1.319c.243 -.13 .318 -.145 .381 -.067c.026 .03 .086 .243 .135 .478c.097 .464 .16 .665 .202 .665c.014 0 .078 .09 .134 .195c.146 .276 .643 .758 .897 .874c.127 .06 .414 .13 .754 .187c.303 .048 .744 .134 .983 .19c.235 .056 .497 .101 .579 .105c.138 0 .157 -.011 .28 -.198c.123 -.187 .13 -.194 .142 -.105c.015 .124 -.086 .486 -.19 .67c-.098 .171 -.467 .429 -.987 .687l-.358 .179l-.378 -.004c-.668 -.003 -1.064 -.22 -1.558 -.848c-.257 -.321 -.37 -.4 -.37 -.25c0 .261 .595 .911 1.028 1.124c.254 .124 .269 .127 .803 .139c.318 .007 .61 -.004 .695 -.026c.082 -.023 .291 -.128 .467 -.232c.426 -.262 .419 -.258 .385 -.086c-.041 .232 -.105 .355 -.292 .575c-.209 .243 -.403 .632 -.511 1.028c-.086 .317 -.079 .396 .037 .366c.116 -.03 .097 .045 -.071 .351c-.228 .411 -.295 .437 -.89 .325c-.31 -.056 -.313 -.056 -.399 .023a.237 .237 0 0 1 -.19 .067zm-13.1 -2.943c-.19 0 -1.177 -.183 -1.636 -.303c-.486 -.127 -.673 -.224 -.874 -.448c-.22 -.24 -.333 -.52 -.33 -.815c.005 -.605 .374 -1.435 .767 -1.715c.239 -.168 .347 -.194 .717 -.18c.269 .012 .43 .046 .822 .173c.575 .19 1.024 .373 1.222 .504c.325 .213 .448 .84 .168 .84c-.045 0 -.351 -.093 -.68 -.208c-1.323 -.46 -1.6 -.546 -1.816 -.55c-.261 -.007 -.355 .064 -.527 .4c-.145 .288 -.179 .59 -.086 .785c.116 .239 .572 .508 1.028 .601l.13 .026l-.168 -.108c-.216 -.142 -.47 -.43 -.526 -.598a.73 .73 0 0 1 .029 -.507c.185 .107 .417 -.068 .394 -.285l-.009 -.04a.606 .606 0 0 1 .225 -.076c.1 0 .373 .25 .437 .4c.074 .183 .063 .486 -.027 .628l-.074 .123l.12 .075c.067 .037 .347 .187 .62 .329c.552 .287 .56 .299 .414 .586c-.15 .292 -.217 .363 -.34 .363zm14.01 -3.176a.74 .74 0 0 1 -.224 -.112l-.086 -.071l.277 -.004c.209 0 .32 .019 .44 .078c.09 .042 .161 .094 .161 .113c0 .044 -.396 .04 -.568 -.004zm5.9 1.606c-.232 -.003 -.924 -.198 -.924 -.261c0 -.015 .042 -.12 .094 -.235l.014 -.037c.09 .047 .185 .051 .245 -.023c.039 -.051 .036 -.068 -.012 -.142c-.033 -.046 -.085 -.086 -.115 -.086l-.026 -.006c.06 -.215 .1 -.455 .1 -.655c0 -.4 .007 -.404 .485 -.236c.176 .06 .362 .112 .418 .112c.213 0 .213 .183 .004 .99c-.12 .467 -.175 .58 -.284 .58zm-1.693 -.66c.048 -.12 .127 -.363 .168 -.535c.082 -.321 .138 -.486 .168 -.486c.011 0 .045 .026 .075 .06c.172 .168 -.038 .915 -.318 1.15c-.172 .146 -.205 .075 -.093 -.19zm.355 .399c-.019 0 .007 -.082 .056 -.18c.104 -.209 .194 -.508 .228 -.773c.037 -.291 .09 -.437 .16 -.422c.053 .011 .064 .063 .064 .31c-.003 .193 -.012 .287 -.06 .41l.018 .019c-.136 -.131 -.142 -.131 -.166 -.057c-.028 .084 -.003 .178 .048 .258l.044 -.088c-.112 .243 -.325 .523 -.392 .523zm-4.603 .523c-.157 0 -.486 -.105 -.52 -.164c-.018 -.034 -.07 -.06 -.119 -.06c-.19 0 -.777 -.546 -.923 -.856a1.894 1.894 0 0 0 -.127 -.23l-.04 -.061c-.102 -.135 -.161 -.348 -.098 -.348c.023 0 .086 .079 .142 .176c.445 .792 .945 1.23 1.49 1.304c.214 .026 .281 .067 .281 .168c0 .049 -.026 .071 -.086 .071zm16.82 2.444c-.225 -.098 -.408 -.337 -.408 -.52c0 -.082 .09 -.116 1.188 -.448c1.226 -.367 1.295 -.382 1.297 -.519v-.045c0 -.139 .007 -.146 .127 -.157l.127 -.011l-.026 -.176c-.03 -.224 -.206 -.594 -.355 -.74a.491 .491 0 0 0 -.262 -.142c-.194 -.03 -.594 .026 -.919 .135l-.261 .082l.41 .026c.553 .03 .684 .097 .841 .426a.69 .69 0 0 1 .023 .557c-.079 .19 -.187 .246 -.482 .246c-.449 0 -.624 -.153 -.624 -.542c0 -.112 -.019 -.175 -.053 -.19c-.03 -.011 -.302 .015 -.609 .056c-.657 .093 -.773 .097 -.829 .026c-.093 -.108 -.261 -.56 -.232 -.616c.02 -.03 .206 -.116 .423 -.19a5.33 5.33 0 0 0 .724 -.326c.867 -.49 1.286 -.568 1.756 -.329c.587 .292 .87 .766 .95 1.577c.014 .19 .04 .362 .055 .385c.009 .014 .05 .028 .101 .034l.052 .003c.183 0 .288 .12 .37 .422c.09 .337 .056 .381 -.269 .352a1.148 1.148 0 0 1 -.314 -.068c-.104 -.052 -.186 -.037 -.762 .172c-.265 .094 -.803 .265 -1.195 .378c-.703 .205 -.71 .205 -.845 .142zm-17.063 -2.911c-.254 -.06 -.616 -.284 -.74 -.463c-.085 -.12 -.003 -.094 .169 .048c.171 .146 .455 .262 .728 .303c.24 .033 .37 .082 .34 .13c-.034 .053 -.21 .045 -.497 -.018zm3.394 .69c.233 -.062 .282 -.172 .155 -.344c-.134 -.173 -.226 -.178 -.318 -.02c-.197 .35 -.155 .446 .163 .364zm-2.086 -.287c.1 -.123 .44 -.209 .497 -.127c.01 .02 -.019 .083 -.068 .135c-.149 .18 -.579 .168 -.43 -.008zm16.88 .737c.13 -.141 .125 -.174 -.032 -.311c-.153 -.142 -.195 -.146 -.316 -.024c-.121 .123 -.068 .316 .11 .387c.121 .052 .153 .042 .237 -.052zm-18.12 -.262c-.033 -.187 -.146 -.212 -.212 -.051c-.043 .11 -.047 .11 -.076 0c-.042 -.136 -.156 -.148 -.193 -.02a.804 .804 0 0 0 -.01 .245c.01 .123 .047 .149 .208 .168c.227 .026 .326 -.097 .283 -.342zm-2.922 1.016a3.294 3.294 0 0 0 -1.218 -.568c-.19 -.048 -.228 -.115 -.135 -.254l.068 -.1l.022 .111c.019 .113 .023 .113 .31 .131c.228 .015 .303 .034 .329 .082c.022 .038 .1 .079 .187 .09c.329 .052 .77 .452 .642 .58c-.037 .037 -.082 .022 -.205 -.072zm.422 -.306c-.056 0 -.44 -.329 -.527 -.448l-.078 -.113h.078c.045 0 .157 .053 .247 .116c.217 .15 .403 .445 .28 .445zm3.68 3.927c-.049 -.094 -.049 -.116 -.004 -.176c.086 -.116 .068 -.261 -.06 -.403c-.112 -.131 -.112 -.131 -.048 -.254c.034 -.068 .108 -.191 .164 -.273c.142 -.21 .307 -.538 .337 -.673a.226 .226 0 0 1 .108 -.153c.112 -.056 .153 -.12 .153 -.239c0 -.052 .049 -.187 .108 -.299c.06 -.112 .12 -.247 .135 -.299a.704 .704 0 0 1 .134 -.213c.101 -.12 .113 -.164 .165 -.657c.015 -.116 .048 -.236 .078 -.266c.068 -.067 .348 -.127 .8 -.168c.194 -.015 .366 -.033 .385 -.037c.015 0 .026 .146 .026 .329c0 .754 -.153 1.68 -.344 2.092l-.116 .247l-.033 -.15c-.28 -1.177 -.34 -1.364 -.441 -1.364c-.06 0 -.045 .116 .07 .647c.18 .8 .247 1.745 .15 2.088c-.045 .165 -.093 .183 -.43 .168c-.197 -.007 -.239 .004 -.347 .094c-.067 .06 -.146 .104 -.176 .104c-.026 0 -.082 .064 -.123 .146c-.04 .079 -.1 .153 -.134 .168c-.127 .049 -.422 -.198 -.557 -.46zm-4.364 .967c-.074 0 -1.102 -.538 -1.367 -.713c-.347 -.236 -.923 -.8 -.949 -.93c-.078 -.441 .65 -2.567 1.091 -3.169c.112 -.157 .127 -.164 .254 -.138c.075 .015 .15 .037 .168 .052c.015 .015 .004 .09 -.03 .16c-.082 .203 -.243 1.04 -.243 1.279c0 .418 .124 .168 .262 -.53c.082 -.4 .202 -.774 .265 -.815c.045 -.027 .445 .231 .647 .414c.127 .116 .142 .146 .123 .258c-.023 .146 -.445 .998 -.665 1.349c-.086 .134 -.198 .269 -.254 .295c-.053 .026 -.22 .06 -.374 .075c-.444 .037 -.452 .112 -.011 .168c.329 .041 .374 .07 .904 .628c.407 .426 .673 .766 .673 .859c0 .022 -.049 .078 -.109 .12c-.067 .048 -.153 .183 -.231 .358c-.068 .153 -.135 .28 -.154 .28zm20.197 -1.48c-.108 -.22 -.1 -.683 .019 -.926a.464 .464 0 0 1 .28 -.269c.366 -.168 1.92 -.403 3.019 -.463c.366 -.019 .683 -.045 .706 -.056c.093 -.06 -.254 -.318 -.426 -.318c-.123 0 -.202 -.1 -.232 -.306l-.026 -.176l.142 -.06c.082 -.033 .213 -.123 .295 -.201c.378 -.355 .478 -.396 .654 -.28c.157 .104 .187 .16 .146 .272c-.056 .142 -.254 .34 -.422 .415l-.146 .067l.108 .056a.833 .833 0 0 1 .348 .374c.063 .164 .048 .512 -.026 .658c-.116 .231 -.202 .265 -.759 .306c-.276 .019 -.695 .06 -.93 .093c-.512 .068 -1.767 .273 -1.786 .296a1.321 1.321 0 0 0 -.041 .231c-.03 .254 -.075 .344 -.232 .475c-.216 .187 -.549 .093 -.69 -.187zm-17.61 -1.987c-.115 -.144 -.145 -.226 -.166 -.452c-.034 -.304 -.085 -.39 -.179 -.288c-.038 .043 -.06 .156 -.06 .323c.005 .328 .124 .561 .328 .624c.209 .066 .234 -.004 .077 -.207zm-16.653 1.468c-.224 -.157 -.287 -.837 -.127 -1.364c.142 -.475 .337 -.706 .654 -.789c.165 -.044 .874 -.007 1.573 .075c.699 .086 .837 .123 .99 .254c.22 .183 .385 .654 .25 .706c-.02 .008 -.23 -.011 -.52 -.046l-.264 -.032a19.605 19.605 0 0 0 -1.543 -.157c-.497 -.022 -.53 -.019 -.602 .052c-.09 .09 -.16 .381 -.16 .662c0 .179 .018 .224 .168 .43c.093 .126 .168 .235 .168 .246c0 .048 -.512 .015 -.587 -.037zm34.84 .208c.167 -.106 .151 -.28 -.024 -.38c-.145 -.082 -.152 -.082 -.274 .067c-.22 .274 -.008 .505 .297 .313zm-17.886 1.137c-.06 -.034 -.052 -.74 .004 -.796a.204 .204 0 0 1 .13 -.045a.178 .178 0 0 0 .132 -.071c.037 -.06 .056 -.067 .097 -.03c.037 .03 .048 .097 .033 .235c-.033 .34 -.28 .781 -.396 .707zm-.373 .272c-.142 -.026 -.329 -.923 -.232 -1.106c.067 -.127 .213 -.108 .288 .038c.138 .265 .093 1.095 -.056 1.068zm.923 -.627c-.023 0 .067 -.337 .097 -.363c.03 -.03 .343 -.078 .414 -.063a.908 .908 0 0 0 .124 .015c.026 0 .044 .048 .044 .108c0 .146 -.048 .172 -.302 .172c-.15 0 -.236 .019 -.284 .063a.315 .315 0 0 1 -.093 .068zm-17.802 2.547a1.132 1.132 0 0 1 .006 -.262l.029 .013c.224 .061 .313 .005 .328 -.197c.016 -.16 -.017 -.24 -.132 -.27a.558 .558 0 0 1 .16 -.102c.09 -.038 .42 -.068 1.07 -.094c.515 -.022 .94 -.045 .948 -.048a4.841 4.841 0 0 0 -.19 -.453l-.198 -.444l-.818 -.019c-.662 -.018 -.845 -.033 -.934 -.082c-.105 -.056 -.333 -.325 -.423 -.5c-.082 -.158 .008 -.173 .975 -.206c.497 -.019 .95 -.041 1.002 -.052a.216 .216 0 0 1 .136 .018a.421 .421 0 0 0 -.037 .055c-.101 .172 .012 .395 .19 .395c.22 0 .297 -.08 .273 -.292a.347 .347 0 0 0 -.036 -.148c.243 -.234 .382 -.275 .62 -.178a.73 .73 0 0 1 .456 .688c0 .302 -.209 .496 -.594 .549c-.291 .037 -.291 .082 .015 .392c.127 .13 .232 .198 .344 .228c.116 .026 .18 .067 .217 .138c.07 .142 .123 .464 .09 .557c-.06 .16 -.15 .176 -1.215 .187l-1.016 .015l-.015 .183c-.022 .217 -.15 .377 -.385 .486c-.433 .201 -.822 -.045 -.866 -.557zm35.974 .362h-.326c-.683 -.004 -.84 -.045 -.96 -.175a.717 .717 0 0 1 -.216 -.523v-.18l1.42 .015l.664 .006l.349 -.001c.289 -.003 .406 -.012 .406 -.031c0 -.064 -.389 -.299 -.725 -.44a5.59 5.59 0 0 0 -1.337 -.39c-.262 -.044 -.527 -.112 -.59 -.149c-.1 -.063 -.111 -.07 -.113 -.307v-.436h.927c1.132 0 1.3 -.02 1.33 -.127c.033 -.142 .239 -.393 .385 -.471c.179 -.094 .34 -.075 .564 .063a.659 .659 0 0 1 .321 .59c0 .255 -.067 .434 -.217 .587c-.153 .157 -.246 .18 -.766 .18h-.396l.367 .198c.672 .362 .892 .594 .915 .975c.019 .317 -.03 .418 -.243 .52c-.168 .074 -.247 .081 -1.36 .092l-.399 .004zm1.8 -2.91c-.037 -.106 -.154 -.206 -.247 -.206a.313 .313 0 0 0 -.149 .06a.278 .278 0 0 0 -.079 .326c.084 .25 .554 .07 .475 -.18zm-21.388 1.931c-.113 -.082 -.292 -.358 -.318 -.497c-.026 -.134 .127 -.474 .235 -.53c.038 -.019 .198 -.045 .359 -.056c.362 -.03 .426 -.06 .994 -.434c.287 -.186 .504 -.302 .564 -.302c.056 0 .168 .048 .247 .104c.078 .06 .168 .135 .198 .172c.048 .056 .044 .06 -.049 .023a.822 .822 0 0 0 -.213 -.038c-.13 0 -.37 .094 -.37 .146c0 .019 .12 .172 .262 .336c.28 .325 .35 .49 .15 .333c-.24 -.18 -.348 -.254 -.378 -.254c-.082 0 -.019 .164 .13 .347c.09 .109 .184 .236 .206 .28c.037 .071 .034 .083 -.022 .083a.671 .671 0 0 1 -.217 -.094c-.157 -.097 -.262 -.116 -.299 -.056c-.011 .023 .071 .138 .19 .262c.24 .25 .214 .276 -.119 .13c-.265 -.115 -.351 -.115 -.77 .004c-.384 .112 -.657 .127 -.78 .041zm4.113 0a.631 .631 0 0 1 -.295 -.46a3.468 3.468 0 0 0 -.172 -.496c-.075 -.172 -.127 -.318 -.12 -.329c.012 -.007 .053 0 .094 .022c.134 .071 .291 .471 .362 .908c.011 .079 .041 .15 .064 .165c.22 .134 .044 -.938 -.198 -1.188c-.109 -.116 -.131 -.195 -.086 -.307c.037 -.097 .108 -.07 .31 .112c.276 .25 .306 .322 .336 .89c.019 .302 .049 .519 .078 .571c.116 .183 -.149 .266 -.373 .112zm-9.03 3.498c-.198 -.008 -.273 -.06 -.273 -.195c0 -.15 -.045 -.187 -.243 -.224a.466 .466 0 0 1 -.287 -.15c-.109 -.123 -.116 -.149 -.105 -.62c.004 -.25 -.004 -.272 -.13 -.44c-.143 -.184 -.243 -.393 -.243 -.494a1.5 1.5 0 0 1 .1 -.31c.071 -.18 .101 -.321 .101 -.493c.004 -.232 .008 -.243 .116 -.295c.146 -.067 .153 -.086 .183 -.325c.045 -.4 .262 -.718 .61 -.904c.122 -.064 .253 -.154 .294 -.198c.127 -.139 .643 -.367 .84 -.37c.053 0 .188 .03 .3 .07c.276 .094 .631 .277 .777 .397c.097 .082 .116 .127 .116 .257c0 .124 -.023 .18 -.097 .25c-.146 .135 -.314 .45 -.314 .587c0 .172 .06 .142 .235 -.108c.075 -.112 .19 -.258 .258 -.325a.498 .498 0 0 0 .138 -.262c.019 -.12 .037 -.138 .13 -.149c.31 -.037 1.088 .553 1.33 1.009c.117 .213 .128 .269 .143 .628c.03 .68 -.086 1.445 -.28 1.856a1.839 1.839 0 0 1 -.602 .68c-.284 .18 -.377 .146 -.38 -.142c0 -.171 -.158 -.414 -.49 -.77c-.183 -.193 -.333 -.384 -.333 -.421c0 -.112 .258 -.415 .355 -.419c.022 0 .202 .108 .407 .243c.393 .258 .598 .336 .774 .299c.16 -.037 .12 -.094 -.157 -.206a3.76 3.76 0 0 1 -.55 -.31c-.168 -.116 -.332 -.213 -.362 -.213c-.082 0 -.1 -.06 -.153 -.46l-.011 -.08c.022 -.006 .039 -.018 .045 -.034c.03 -.077 .234 -.165 .48 -.202c.287 -.042 .333 -.067 .333 -.18c0 -.103 -.03 -.11 -.185 -.027a.492 .492 0 0 1 -.203 .058a.895 .895 0 0 0 -.512 .188c-.055 -.205 -.153 -.286 -.403 -.41c-.16 -.078 -.269 -.1 -.568 -.116l-.37 -.018l-.115 -.344c-.131 -.389 -.27 -.628 -.4 -.687c-.176 -.079 -.224 .074 -.071 .216c.16 .15 .403 .837 .366 1.031a.601 .601 0 0 1 -.127 .22c-.127 .158 -.176 .162 -.74 .09c-.355 -.04 -.56 -.026 -.56 .045c0 .068 .18 .109 .695 .165c.276 .03 .512 .06 .515 .063c.008 .008 .023 .187 .034 .4c.022 .43 .022 .426 -.262 .475a.683 .683 0 0 0 -.254 .1c-.183 .146 -.377 .531 -.317 .632c.045 .067 .146 -.026 .302 -.273c.131 -.202 .27 -.291 .453 -.291a.62 .62 0 0 0 .231 -.056a.5 .5 0 0 1 .157 -.056c.09 0 .06 .269 -.056 .527c-.056 .13 -.16 .4 -.224 .597c-.142 .43 -.21 .505 -.441 .494zm3.65 -4.103c-.1 0 -.082 -.198 .041 -.47c.116 -.247 .12 -.27 .06 -.315c-.034 -.026 -.064 -.063 -.064 -.09c0 -.067 .172 -.044 .243 .034c.064 .071 .06 .083 -.067 .381a4.013 4.013 0 0 0 -.146 .385c-.007 .041 -.037 .075 -.067 .075zm4.042 .093c-.317 0 -.38 -.03 -.38 -.186c0 -.109 .033 -.169 .111 -.198a1.22 1.22 0 0 1 .438 -.004c.052 .015 .097 .07 .123 .15c.07 .212 .04 .238 -.292 .238zm-2.686 3.998h-.205c-.116 0 -.28 -.026 -.37 -.06a.673 .673 0 0 0 -.318 -.033c-.235 .034 -.257 -.023 -.164 -.381c.041 -.16 .093 -.52 .112 -.804c.064 -.934 .247 -1.363 .676 -1.58c.101 -.052 .243 -.146 .318 -.213l.138 -.12l-.086 .165c-.048 .093 -.13 .235 -.187 .317a1.667 1.667 0 0 0 -.25 .77c-.037 .411 .082 .37 .198 -.067c.06 -.235 .25 -.61 .355 -.706c.063 -.056 .067 -.056 .093 .037c.012 .056 .041 .094 .068 .086c.022 -.007 .115 -.157 .209 -.336c.317 -.602 .388 -.617 .878 -.165c.833 .763 .956 .92 1.008 1.286c.042 .306 .169 .306 .169 .003c0 -.209 .063 -.201 .112 .012c.06 .239 .026 .519 -.094 .84c-.097 .262 -.093 .314 .023 .314c.045 0 .07 .026 .07 .071c0 .108 -.078 .138 -.138 .056c-.056 -.07 -.056 -.07 -.097 0c-.09 .15 -.373 .434 -.437 .434c-.033 0 -.127 -.056 -.209 -.127l-.146 -.124l.075 -.332c.082 -.378 .093 -.617 .034 -.64c-.053 -.018 -.142 .191 -.24 .561c-.127 .493 -.272 .699 -.481 .699a.272 .272 0 0 1 -.157 -.06c-.064 -.056 -.075 -.056 -.168 .019c-.15 .116 -.33 .104 -.453 -.034c-.052 -.063 -.123 -.112 -.156 -.112c-.101 0 -.28 -.13 -.613 -.445c-.18 -.168 -.34 -.302 -.363 -.302c-.22 0 .213 .583 .65 .874l.146 .097zm-4.027 -1.756c-.082 0 -.321 -.228 -.377 -.362c-.109 -.254 -.023 -.56 .212 -.781c.277 -.258 .471 -.295 .774 -.142c.355 .176 .497 .437 .44 .814c-.033 .206 -.153 .404 -.238 .389c-.053 -.011 -.064 -.067 -.075 -.385c-.004 -.202 -.03 -.392 -.049 -.418a.764 .764 0 0 0 -.239 -.109c-.187 -.06 -.205 -.06 -.295 0c-.224 .146 -.31 .445 -.176 .62c.094 .128 .109 .374 .023 .374zm.198 -.485c-.09 -.109 -.086 -.172 .015 -.24c.112 -.078 .202 -.074 .291 .015c.09 .09 .094 .127 .015 .202c-.104 .108 -.243 .12 -.321 .023zm24.37 3.4c-.066 0 -.594 -.123 -1.155 -.262l-.374 -.093c-.43 -.11 -.823 -.215 -.974 -.266c-.527 -.175 -.673 -.38 -.598 -.852c.045 -.291 .31 -1.304 .385 -1.487c.09 -.205 .209 -.257 .564 -.242c.243 .01 .351 .033 .545 .127c.295 .138 .497 .31 .598 .504l.075 .15l.108 -.172c.153 -.24 .351 -.333 .658 -.314c.186 .01 .272 .037 .396 .123c.336 .232 .504 .833 .328 1.18c-.179 .352 -.295 .442 -.571 .445c-.217 0 -.415 -.078 -.475 -.19c-.026 -.049 -.04 -.176 -.03 -.318l.006 -.059h.028c.081 0 .163 -.022 .194 -.052c.064 -.061 .064 -.092 -.006 -.208a.508 .508 0 0 0 -.068 -.094a.689 .689 0 0 1 .13 -.106c.161 -.105 .15 -.142 -.04 -.123a.502 .502 0 0 0 -.27 .096l.038 .019c-.114 -.061 -.14 -.05 -.189 .055a.469 .469 0 0 0 -.053 .211a1.22 1.22 0 0 0 -.039 .074c-.16 .344 -.254 .445 -.38 .426c-.08 -.01 -.087 -.026 -.075 -.224c.022 -.362 -.127 -.512 -.647 -.646c-.314 -.082 -.414 -.075 -.49 .037c-.074 .112 -.145 .568 -.111 .706c.033 .131 .082 .146 .938 .325c1.33 .273 1.427 .314 1.595 .632c.194 .373 .18 .598 -.041 .598zm-35.466 -.083c-.673 -.044 -.953 -.418 -1.057 -1.4a2.698 2.698 0 0 0 -.131 -.658c-.075 -.18 -.079 -.213 -.034 -.307a.585 .585 0 0 1 .153 -.18c.098 -.07 .105 -.07 .198 -.01c.15 .097 .206 .28 .247 .784c.041 .505 .108 .792 .217 .923c.104 .127 .112 .086 .123 -.713c.011 -.658 .015 -.7 .105 -.86a.96 .96 0 0 1 .242 -.265c.37 -.254 1.54 -.493 1.786 -.366c.198 .1 .329 .273 .415 .556c.116 .36 .247 .994 .273 1.316l.022 .25l-.127 .075c-.28 .172 -1.502 .553 -1.633 .512c-.052 -.02 -.519 -.733 -.478 -.733c.011 0 1.069 -.243 1.547 -.355c.097 -.022 .097 -.033 0 -.549c-.037 -.202 -.049 -.217 -.16 -.239c-.266 -.049 -1.249 .183 -1.428 .34l-.104 .086l.003 .5c.004 .408 .023 .561 .097 .841c.127 .452 .112 .479 -.276 .452zm23.22 -2.346c-.14 0 -.162 -.011 -.184 -.093c-.034 -.135 .015 -.419 .086 -.49a.157 .157 0 0 1 .138 -.037c.045 .007 .22 .03 .396 .045c.176 .01 .34 .04 .366 .06c.068 .06 .053 .246 -.026 .324a.448 .448 0 0 1 -.216 .098a4.95 4.95 0 0 0 -.273 .06a1.38 1.38 0 0 1 -.288 .033zm-3.09 1.905c-.075 -.003 -.075 -.007 .018 -.085c.056 -.045 .24 -.184 .407 -.307c.505 -.366 .98 -.971 1.121 -1.427c.127 -.419 .142 -.426 .419 -.288c.37 .187 .257 .628 -.3 1.218c-.223 .236 -.328 .292 -.179 .094c.232 -.307 .423 -.811 .352 -.938c-.053 -.094 -.101 -.038 -.243 .269c-.15 .332 -.348 .594 -.64 .844c-.294 .254 -.858 .62 -.956 .62zm4.606 -.302c.13 -.721 .105 -.89 -.206 -1.304a3.058 3.058 0 0 1 -.201 -.284c0 -.045 .228 .146 .35 .291c.21 .24 .296 .512 .296 .908c-.004 .355 -.108 .789 -.217 .878c-.097 .082 -.104 -.04 -.022 -.49zm-4.143 .512c0 -.012 .138 -.09 .31 -.176a3.73 3.73 0 0 0 1.038 -.74c.262 -.261 .52 -.654 .52 -.796c0 -.085 .078 -.328 .104 -.328c.015 0 .146 .026 .288 .06c.146 .033 .299 .074 .347 .093l.086 .033l-.082 .157c-.228 .453 -.691 .95 -1.214 1.3c-.456 .31 -.646 .382 -1.05 .404c-.19 .011 -.347 .008 -.347 -.007zm3.878 2.525c-.094 -.104 -.109 -.19 -.146 -.773c-.064 -.986 -.269 -2.167 -.43 -2.44a4.375 4.375 0 0 0 -.317 -.426c-.236 -.28 -.258 -.34 -.153 -.4c.074 -.044 .175 -.018 .317 .079c.146 .105 .385 .415 .512 .665c.123 .247 .21 .55 .262 .938c.074 .545 .224 2.305 .201 2.365c-.03 .078 -.175 .075 -.246 -.008zm-.98 -.19c-.078 -.153 -.126 -.512 -.167 -1.256c-.03 -.605 -.038 -.65 -.165 -.956a3.035 3.035 0 0 1 -.157 -.46c-.026 -.138 -.03 -.138 -.171 -.115c-.165 .03 -.187 -.015 -.083 -.169c.135 -.198 .247 -.198 .426 -.01c.075 .078 .168 .194 .213 .257c.131 .19 .266 .65 .325 1.121c.068 .557 .139 1.778 .101 1.816c-.045 .045 -.261 -.109 -.321 -.228zm-9.87 6.871c-.17 -.088 -.216 -.11 -.62 -.132l-.26 -.014l-.162 -.007c-2.186 -.097 -2.122 -.086 -2.462 -.407c-.329 -.31 -.325 -.296 -.362 -1.622c-.018 -.637 -.027 -1.735 -.03 -2.861v-.92c.002 -1.21 .012 -2.314 .03 -2.75c.03 -.673 .04 -.751 .127 -.942l.097 -.209h7.603l.396 .389v4.294c-.003 1.885 -.02 3.474 -.038 3.657c-.04 .407 -.116 .597 -.37 .915c-.1 .13 -.22 .224 -.366 .295l-.216 .108l-1.29 .023c-1.348 .022 -1.393 .03 -1.62 .202c-.158 .12 -.191 .115 -.457 -.019zm.364 -.505l1.49 -.022l1.487 -.019l.281 -.303l.282 -.304l-.025 -2.571c-.018 -2.06 -.031 -2.672 -.067 -2.813l.092 -.077l-.004 -1.062l-.001 -.352a28.564 28.564 0 0 0 -.024 -1.043c-.037 -.47 -.026 -.466 -.8 -.493c-.933 -.038 -4.855 -.057 -5.794 -.03c-.731 .019 -.837 .03 -.896 .091c-.052 .052 -.063 .141 -.065 .977v1.946l.049 .041c-.016 .133 -.033 1.255 -.041 2.608a.334 .334 0 0 0 -.001 .144l-.007 2.644l.235 .171c.164 .12 .286 .179 .403 .193c.09 .011 .73 .033 1.42 .051c1.234 .03 1.257 .033 1.497 .128c.133 .051 .27 .095 .301 .095c.141 0 .157 -.128 .173 -1.73l.014 -1.434l.001 3.164zm8.367 -8.283c-.127 .015 -.534 -.112 -.657 -.202c-.064 -.048 -.067 -.06 -.015 -.112c.045 -.045 .28 -.15 .362 -.164c.004 0 .064 .022 .131 .052c.157 .067 .336 .258 .318 .348c-.008 .045 -.053 .07 -.139 .078zm-2.51 1.129c-.015 0 -.056 -.12 -.09 -.262c-.112 -.463 -.026 -1.308 .135 -1.308c.022 0 .104 .034 .179 .079l.138 .078l-.168 .706c-.093 .389 -.18 .707 -.194 .707zm-6.012 1.708c-.066 0 -.11 -.167 -.143 -.542l-.037 -.455c0 -.038 -.029 -.08 -.062 -.091c-.102 -.038 -.113 -.08 -.095 -.31c.015 -.22 -.022 -.338 -.095 -.293c-.022 .015 -.04 .084 -.04 .148a.416 .416 0 0 1 -.033 .174c-.047 .076 -.124 -.064 -.223 -.394a2.095 2.095 0 0 1 -.098 -.686c.023 .026 .064 .045 .121 .058a.33 .33 0 0 1 .187 .14c.092 .13 .135 .145 .164 .058c.033 -.096 -.17 -.34 -.354 -.425c-.049 -.023 -.072 -.032 -.09 -.022a.435 .435 0 0 1 .147 -.249c.142 -.113 .713 -.17 1.067 -.11a.512 .512 0 0 1 .23 .088c.03 .026 .07 .159 .092 .291c.084 .49 -.12 1.547 -.238 1.232a.502 .502 0 0 1 -.022 -.132c0 -.038 -.047 -.106 -.11 -.156c-.15 -.113 -.138 -.2 .04 -.314c.122 -.08 .147 -.118 .136 -.201c-.014 -.125 -.11 -.152 -.194 -.057c-.128 .148 -.354 .538 -.329 .576c.011 .023 .055 .042 .092 .042c.04 0 .095 .038 .124 .083c.091 .156 .099 .28 .022 .455a2.425 2.425 0 0 0 -.11 .451c-.054 .398 -.113 .64 -.15 .64zm-1.258 -1.979a.936 .936 0 0 0 -.139 -.242c-.058 -.073 -.062 -.103 -.025 -.243c.073 -.28 .34 -.463 .38 -.258c.01 .05 .025 .243 .04 .432c.011 .19 .037 .402 .055 .47c.018 .072 .022 .144 .004 .163c-.048 .05 -.242 -.144 -.315 -.322zm2.138 .387c-.018 0 -.014 -.065 0 -.144c.015 -.076 .04 -.319 .055 -.535c.022 -.383 .059 -.534 .128 -.534c.018 0 .084 .11 .146 .242c.11 .232 .114 .243 .059 .38c-.066 .159 -.347 .59 -.388 .59zm1.63 .599c-.014 .011 -.102 -.072 -.2 -.182l-.176 -.205l-.095 .065c-.132 .09 -.153 .083 -.245 -.073c-.091 -.151 -.208 -.163 -.274 -.03c-.08 .17 -.132 .205 -.314 .205c-.103 0 -.18 -.02 -.18 -.038c0 -.064 .107 -.265 .242 -.463c.274 -.401 .332 -.636 .197 -.815c-.077 -.106 -.098 -.238 -.033 -.238c.022 0 .073 .019 .117 .041c.194 .103 .263 .323 .15 .455c-.044 .053 -.051 .091 -.025 .175c.05 .151 .15 .159 .197 .011c.022 -.064 .058 -.11 .084 -.102c.084 .03 .603 1.14 .556 1.194zm6.285 -.461c-.097 -.19 -.116 -.759 -.034 -1.058c.068 -.246 .142 -.314 .184 -.16c.01 .042 .02 .262 .021 .516l.001 .111c0 .721 -.037 .848 -.172 .59zm-9.323 3.12l-.112 -.082l-.045 -.03c-.03 -.084 -.043 -.219 -.043 -.42c0 -.406 -.058 -.812 -.186 -1.308a6.183 6.183 0 0 1 -.135 -.702l-.026 -.28l-.263 .011l-.267 .008l-.073 -.152c-.04 -.083 -.088 -.152 -.102 -.152a.732 .732 0 0 0 -.172 .152c-.077 .083 -.157 .152 -.176 .152a.361 .361 0 0 1 -.124 -.076c-.11 -.091 -.135 -.076 -.234 .121c-.12 .247 -.12 .14 .004 -.242c.086 -.268 .216 -.562 .348 -.807a.156 .156 0 0 0 .125 -.034c.139 -.107 .174 -.22 .114 -.336a.244 .244 0 0 1 .027 -.036c.204 -.232 .281 -.243 .248 -.03c-.01 .083 -.033 .22 -.044 .302c-.025 .163 -.05 .122 .41 .683c.113 .132 .226 .292 .256 .349c.036 .072 .091 .11 .179 .128a.33 .33 0 0 1 .164 .072c.022 .027 .062 .209 .095 .402c.033 .235 .095 .451 .18 .637c.164 .356 .164 .466 .003 .633c-.07 .072 -.157 .13 -.201 .13c-.153 0 -.058 .2 .135 .283c.165 .076 .19 .11 .19 .311c0 .125 -.018 .175 -.095 .235a.382 .382 0 0 1 -.18 .079zm8.98 -3.935c-.045 0 -.199 -.108 -.333 -.235c-.194 -.183 -.15 -.266 .09 -.172c.16 .06 .272 .183 .272 .302c0 .057 -.01 .105 -.03 .105zm-8.16 3.861h-.223l.026 -.239c.08 -.784 .15 -1.073 .329 -1.391c.032 -.057 .054 -.2 .054 -.36c.004 -.349 .052 -.591 .128 -.648c.08 -.061 .205 -.015 .26 .094c.033 .065 .01 .228 -.103 .793c-.09 .458 -.15 .864 -.164 1.145c-.03 .602 -.03 .606 -.307 .606zm9.46 -1.85a2.665 2.665 0 0 1 -.785 -.45c-.112 -.096 -.153 -.253 -.064 -.253c.023 0 .247 .1 .494 .224l.448 .228l.467 .022c.5 .023 .635 .053 .635 .139c0 .149 -.807 .209 -1.195 .09zm-2.47 1.8c-.21 -.07 -.385 -.146 -.396 -.172c-.019 -.056 .22 -1.005 .389 -1.528c.171 -.534 .272 -.773 .325 -.755c.022 .008 .127 .18 .235 .385c.157 .3 .247 .419 .463 .624l.273 .25l-.064 .124c-.033 .063 -.194 .347 -.354 .624c-.217 .37 -.322 .512 -.393 .538c-.078 .03 -.183 .007 -.478 -.09zm-9.052 -1.106l-.084 -.133a1.18 1.18 0 0 1 -.117 -.273a.588 .588 0 0 0 -.2 -.28c-.092 -.076 -.165 -.163 -.165 -.19c0 -.102 .106 -.05 .267 .137c.2 .23 .329 .489 .31 .633l-.01 .106zm11.891 2.608c-.052 -.06 -.668 -1.808 -.65 -1.842c.038 -.056 1.439 -.045 1.439 .011c0 .026 .04 .393 .09 .815c.048 .422 .085 .77 .078 .777c-.034 .037 -.938 .262 -.957 .24zm-5.577 .041c.186 -.934 .246 -1.106 .455 -1.311l.176 -.176l.011 .101c.008 .056 -.082 .523 -.198 1.042c-.288 1.3 -.49 2.078 -.56 2.186c-.213 .329 -.165 -.452 .116 -1.842zm-8.014 -.004c-.051 -.047 .04 -.554 .133 -.776c.141 -.339 .412 -.685 .533 -.685c.028 0 .137 .073 .247 .164c.13 .11 .235 .164 .306 .164c.168 0 .22 .048 .188 .186c-.027 .138 -.2 .397 -.259 .397c-.023 0 -.039 -.047 -.039 -.11c0 -.13 -.078 -.298 -.133 -.28c-.059 .018 -.094 .157 -.098 .39c-.004 .208 -.082 .364 -.176 .364c-.032 0 -.063 -.025 -.079 -.054c-.033 -.081 -.165 -.072 -.241 .004l-.033 .043c-.063 .113 -.298 .24 -.35 .193zm10.393 -1.244c-.32 -.164 -.355 -.239 -.09 -.209c.105 .011 .266 .056 .36 .097c.19 .086 .209 .135 .074 .198c-.082 .038 -.127 .026 -.344 -.086zm-7.68 2.596a1.919 1.919 0 0 0 -.173 -.517c-.141 -.288 -.145 -.314 -.122 -.572c.028 -.288 .016 -.347 -.074 -.317c-.075 .025 -.137 .24 -.137 .455c0 .091 -.02 .182 -.047 .208c-.055 .05 -.263 .058 -.4 .007c-.09 -.03 -.098 -.055 -.11 -.299c-.016 -.313 -.074 -.35 -.204 -.12c-.074 .131 -.082 .208 -.082 .78c0 .48 -.012 .637 -.051 .652c-.086 .025 -.165 -.233 -.286 -.947l-.118 -.696l.259 -.234c.27 -.247 .49 -.59 .49 -.768c0 -.055 .02 -.12 .043 -.142c.07 -.066 .412 .04 .608 .193c.262 .197 .666 .652 .78 .874c.121 .233 .121 .35 .015 .703c-.059 .19 -.086 .394 -.09 .642c-.004 .353 -.008 .364 -.098 .375c-.133 .018 -.172 -.037 -.204 -.277zm8.237 -1.92c-.045 0 -.037 -.018 .022 -.085c.045 -.049 .083 -.116 .083 -.154c0 -.056 -.023 -.063 -.112 -.052c-.142 .023 -.142 -.004 .01 -.146c.274 -.257 .34 -.224 .229 .113c-.068 .216 -.146 .325 -.232 .325zm.112 1.562c-.063 .012 -.19 -.09 -.553 -.448c-.418 -.411 -.482 -.49 -.616 -.773a2.487 2.487 0 0 1 -.146 -.363c0 -.127 .325 -.1 .747 .064c.303 .115 .31 .12 .393 .314c.13 .29 .287 .896 .272 1.057c-.007 .112 -.026 .142 -.097 .15zm-12.91 1.679c-.423 -.022 -.628 -.1 -.729 -.273c-.112 -.19 -.254 -.15 -.202 .06c.06 .232 -.47 .18 -.773 -.075l-.13 -.108l.212 -.004c.135 0 .348 -.04 .553 -.108l.34 -.109l.064 .09c.164 .236 .175 .272 .347 .276h.164c.284 0 .408 -.037 .34 -.104a1.154 1.154 0 0 0 -.25 -.049c-.123 -.015 -.254 -.052 -.291 -.086c-.09 -.082 -.168 -.362 -.135 -.474c.015 -.049 .157 -.22 .314 -.377a2.85 2.85 0 0 0 .377 -.464c.053 -.097 .112 -.172 .131 -.175c.12 0 .172 .49 .09 .867c-.045 .205 -.176 .377 -.295 .377c-.101 0 -.101 -.135 0 -.16c.108 -.027 .108 -.251 0 -.251c-.109 0 -.337 .217 -.337 .317c0 .146 .165 .243 .408 .243a.81 .81 0 0 0 .254 -.03c.164 -.104 .261 -.945 .16 -1.39c-.045 -.201 -.04 -.212 .109 -.586c.086 -.206 .153 -.43 .153 -.493c0 -.142 .048 -.15 .104 -.023c.064 .142 .056 .632 -.018 .942c-.056 .243 -.056 .276 -.004 .336c.146 .168 .105 .83 -.067 1.028c-.109 .134 -.101 .179 .033 .246c.124 .06 .101 .116 -.134 .333c-.224 .205 -.378 .25 -.788 .224zm11.932 -1.278c0 .03 -.515 -.329 -.848 -.586c-.228 -.18 -.231 -.184 -.19 -.303c.048 -.142 .243 -.437 .287 -.437c.019 0 .053 .026 .079 .056c.04 .048 .03 .078 -.075 .187c-.127 .13 -.123 .205 .015 .205c.176 0 .22 -.075 .213 -.388a1.46 1.46 0 0 1 .019 -.33c.037 -.06 .153 .11 .205 .296a.567 .567 0 0 1 -.116 .55c-.063 .07 -.112 .149 -.112 .182c0 .03 .12 .165 .262 .3c.145 .134 .261 .253 .261 .268zm3.535 -1.057c.138 -.198 .743 -.389 .743 -.232c0 .03 -.056 .064 -.138 .082a1.851 1.851 0 0 0 -.37 .142c-.254 .131 -.325 .135 -.235 .008zm.12 .47c-.038 -.06 .167 -.254 .391 -.362c.19 -.09 .183 -.09 .27 -.026c.082 .06 .052 .172 -.053 .172c-.041 0 -.187 .06 -.325 .134c-.194 .105 -.258 .124 -.284 .083zm1.493 .942c-.567 0 -.717 -.041 -1.042 -.284a5.286 5.286 0 0 0 -.14 -.102l-.109 -.072a.195 .195 0 0 0 -.053 -.028c-.015 0 -.03 -.033 -.03 -.074c0 -.131 .508 -.441 .732 -.445c.041 -.004 .183 .082 .317 .187c.135 .104 .393 .28 .576 .385c.527 .299 .448 .433 -.25 .433zm-4.505 .142c-.123 -.015 -.157 -.105 -.037 -.105c.115 -.003 .4 -.134 .508 -.235a.582 .582 0 0 0 .198 -.407l.003 -.124l.049 .113c.03 .06 .052 .168 .056 .239c0 .097 -.03 .153 -.13 .25c-.146 .135 -.505 .288 -.647 .27zm3.34 .759c-.123 -.023 -.24 -.064 -.254 -.09c-.045 -.06 -.015 -.43 .037 -.482c.064 -.064 .15 .026 .194 .198c.049 .172 .135 .19 .169 .034c.037 -.169 -.038 -.34 -.225 -.524a.898 .898 0 0 1 -.168 -.194c0 -.075 .127 -.015 .288 .127c.198 .183 .306 .396 .31 .598c0 .183 .067 .217 .456 .217c.321 0 .456 .037 .362 .097c-.082 .048 -.93 .063 -1.17 .019zm-2.245 .003l-.176 -.12c-.194 -.13 -.404 -.37 -.404 -.463c0 -.07 .15 -.082 .266 -.018c.04 .018 .09 .078 .108 .13c.049 .124 .142 .154 .687 .22c.255 .03 .501 .072 .55 .087c.082 .03 .078 .033 -.045 .078c-.071 .026 -.321 .056 -.557 .068l-.43 .018zm5.682 -.231c-.43 0 -.568 -.041 -.377 -.112a.95 .95 0 0 1 .284 -.038c.112 0 .269 -.037 .4 -.09c.216 -.09 .324 -.12 .489 -.13c.09 -.004 .09 0 -.038 .13c-.205 .217 -.28 .24 -.758 .24zm-10.132 .209c-.041 -.101 .22 -.482 .318 -.463c.04 .007 .063 .06 .07 .164c.012 .134 -.003 .168 -.104 .254c-.13 .108 -.254 .127 -.284 .045zm-12.008 .725v-.33c0 -.193 .02 -.347 .042 -.369c.033 -.034 .104 -.019 .291 .052c.228 .086 .318 .097 1.106 .124c.474 .018 1.774 .033 2.895 .037c1.121 0 2.298 .019 2.615 .034c.512 .026 .602 .04 .77 .127c.198 .1 .303 .198 .262 .242a.08 .08 0 0 1 -.035 .016l-.045 .01c-.23 .036 -.999 .05 -3.097 .052h-1.112l-3.692 .005zm23.474 .007l-7.394 -.022c-4.065 -.011 -7.476 -.034 -7.573 -.049l-.179 -.03l.146 -.142a.872 .872 0 0 1 .291 -.183c.097 -.026 2.395 -.048 6.751 -.067c6.844 -.03 7.689 -.045 7.763 -.135c.056 -.067 .094 -.067 .124 .008c.015 .037 .033 .19 .048 .344l.023 .276zm-14.065 .803h-2.721c-3.205 -.003 -5.666 -.018 -5.858 -.048c-.12 -.019 -.157 -.037 -.15 -.082c.015 -.086 .184 -.165 .273 -.131c.041 .015 1.024 .034 2.186 .041l.513 .002h.476a35.488 35.488 0 0 0 1.757 -.032c.545 -.033 .66 -.033 .822 .015c.231 .075 .35 .075 .444 .004c.112 -.086 .475 -.071 .673 .026l.164 .078l.19 -.078c.221 -.097 .587 -.112 .7 -.026c.093 .07 .227 .07 .425 0c.206 -.071 .377 -.071 .62 .007c.187 .056 .213 .056 .426 0c.277 -.078 .43 -.078 .635 -.007c.198 .07 .333 .07 .426 0c.109 -.082 .441 -.071 .661 .022l.184 .079l.183 -.079c.231 -.097 .564 -.104 .717 -.015c.105 .06 .123 .06 .362 0c.31 -.078 .366 -.078 .662 0c.213 .056 .254 .056 .418 .004c.138 -.041 .258 -.049 .512 -.026c.183 .015 1.629 .037 3.213 .048c3.358 .027 4.453 .053 4.319 .105c-.109 .041 -4.64 .073 -9.546 .087l-.82 .002c-.96 .002 -1.925 .004 -2.866 .004zm11.954 .878c-.13 -.12 -.135 -.242 -.008 -.34c.086 -.067 .154 -.078 .467 -.078c.202 0 .411 .019 .471 .041c.097 .037 .16 .094 .16 .153c0 .06 -.246 .303 -.377 .37c-.246 .124 -.478 .075 -.713 -.146zm-19.614 .18c-.254 0 -.385 -.045 -.523 -.18c-.164 -.153 -.12 -.28 .138 -.377c.116 -.041 .736 -.033 .852 .015c.093 .037 .123 .202 .06 .314c-.079 .142 -.28 .228 -.527 .228zm7.18 .624a.496 .496 0 0 0 -.28 -.422c-.164 -.068 -.437 -.068 -.661 .003c-.205 .06 -.265 .049 -.669 -.145a1.88 1.88 0 0 0 -.485 -.161c-.236 -.026 -.333 -.067 -.333 -.146c0 -.074 .142 -.123 .299 -.1c.071 .01 .284 .074 .467 .145c.482 .176 .493 .176 .837 .09c.482 -.127 .796 -.038 .945 .261c.079 .157 .09 .482 .019 .58c-.071 .093 -.138 .04 -.138 -.105zm4.383 .486c-.008 -.012 .015 -.038 .056 -.06c.198 -.105 .18 -.53 -.037 -.83c-.124 -.172 -.423 -.332 -.62 -.332c-.352 0 -.785 .392 -.882 .796c-.019 .082 -.045 .104 -.109 .093c-.063 -.007 -.093 -.049 -.123 -.183c-.06 -.235 -.097 -.295 -.288 -.47c-.355 -.326 -.851 -.292 -1.177 .078c-.175 .198 -.216 .4 -.145 .676c.03 .123 .052 .228 .048 .232a1.918 1.918 0 0 1 -.228 -.195l-.224 -.205l.124 -.105a.696 .696 0 0 0 .12 -.127c0 -.007 -.064 -.086 -.143 -.168c-.198 -.21 -.287 -.516 -.175 -.61c.048 -.04 .067 -.036 .112 .023c.067 .094 .373 .094 .687 -.003c.232 -.068 .232 -.068 .426 .01l.19 .083l.09 -.093c.079 -.086 .094 -.09 .206 -.041c.067 .026 .201 .1 .302 .168c.195 .12 .396 .153 .396 .067c0 -.157 .422 -.284 .542 -.164c.052 .056 .075 .056 .25 -.015l.195 -.075l.302 .075c.374 .097 .452 .097 .635 .003a2.55 2.55 0 0 1 .157 -.074c.008 0 .011 .056 .011 .12c0 .115 -.108 .369 -.254 .597c-.052 .086 -.056 .116 -.015 .18a.365 .365 0 0 1 .045 .145c0 .105 -.414 .46 -.474 .404zm1.068 -.36c-.13 -.13 -.142 -.283 -.037 -.507c.086 -.19 .265 -.344 .437 -.378c.123 -.022 .224 -.018 .803 .045c.172 .019 .27 .004 .505 -.075c.53 -.171 .874 -.22 .874 -.12c0 .087 -.094 .135 -.34 .176a2.355 2.355 0 0 0 -.516 .169c-.41 .194 -.467 .205 -.668 .145c-.247 -.078 -.523 -.07 -.665 .015a.529 .529 0 0 0 -.228 .493c.022 .176 -.015 .184 -.165 .038zm-8.533 .37c-.201 0 -.254 -.014 -.336 -.089c-.07 -.067 -.16 -.097 -.329 -.116a1.808 1.808 0 0 1 -.418 -.108c-.213 -.097 -.673 -.426 -.639 -.46c.011 -.01 .045 -.003 .071 .019c.142 .12 1.341 .213 1.382 .108c.03 -.082 -.022 -.13 -.153 -.145l-.12 -.012l.3 -.272c.168 -.146 .328 -.27 .366 -.266c.033 0 .149 .034 .25 .071l.187 .068l-.105 .04a.671 .671 0 0 1 -.138 .042c-.071 0 -.277 .213 -.34 .355a.892 .892 0 0 0 -.071 .306c0 .176 .052 .228 .31 .31c.254 .079 .153 .15 -.217 .15zm11.776 0c-.127 0 -.254 -.014 -.284 -.033c-.067 -.041 -.018 -.116 .075 -.116c.041 0 .116 -.04 .164 -.093c.079 -.075 .094 -.127 .094 -.299c0 -.288 -.075 -.415 -.31 -.527a1.307 1.307 0 0 0 -.24 -.09c-.108 0 -.037 -.067 .131 -.123c.22 -.075 .195 -.07 .314 -.011c.13 .067 .628 .474 .628 .512c0 .015 -.071 .026 -.157 .022c-.138 -.007 -.16 .004 -.16 .068c0 .067 .03 .074 .26 .085c.333 .015 .823 -.044 1.024 -.127c.12 -.048 .161 -.086 .18 -.168c.018 -.1 .086 -.153 .086 -.07c0 .272 -.617 .68 -1.136 .754c-.198 .03 -.288 .06 -.351 .127c-.071 .075 -.12 .09 -.318 .09zm-5.555 -.22c-.053 -.104 0 -.306 .134 -.478c.094 -.123 .4 -.347 .475 -.347c.018 0 .116 .044 .216 .1c.303 .165 .505 .557 .355 .68c-.056 .049 -.078 .027 -.213 -.239c-.048 -.1 -.074 -.112 -.257 -.123c-.258 -.011 -.408 .071 -.557 .314c-.105 .16 -.112 .164 -.153 .093zm-6.04 -.175c-.302 -.18 .333 -.688 .781 -.632c.079 .011 .224 .06 .318 .109c.28 .145 .493 .313 .493 .396c0 .112 -.12 .093 -.247 -.041a.8 .8 0 0 0 -.844 -.213c-.134 .04 -.284 .175 -.389 .35c-.037 .057 -.06 .064 -.112 .03zm11.246 -.034c-.034 -.138 -.295 -.347 -.523 -.418c-.195 -.06 -.198 -.06 -.404 .04c-.16 .08 -.228 .139 -.284 .251c-.086 .164 -.187 .194 -.187 .056c0 -.116 .206 -.299 .501 -.44c.277 -.132 .452 -.124 .792 .044c.27 .13 .366 .277 .306 .452c-.048 .138 -.168 .146 -.201 .015zm-6.023 .16c-.153 -.246 -.287 -.34 -.512 -.358c-.25 -.022 -.328 .034 -.388 .277c-.049 .186 -.086 .205 -.146 .07c-.108 -.239 .026 -.496 .348 -.665c.164 -.09 .321 -.074 .493 .034c.194 .127 .347 .362 .347 .538c0 .213 -.052 .25 -.142 .105zm-3.269 .453c-.209 -.3 -.228 -.363 -.16 -.527c.164 -.392 .467 -.538 .736 -.355c.19 .127 .257 .389 .078 .291a.628 .628 0 0 0 -.232 -.04c-.123 0 -.179 .022 -.265 .108c-.231 .231 -.075 .669 .284 .803c.023 .008 .026 .022 .015 .037c-.063 .068 -.295 -.093 -.456 -.317zm7.136 .224c.18 -.116 .269 -.247 .299 -.418c.045 -.296 -.15 -.475 -.47 -.419c-.165 .026 -.214 -.03 -.154 -.187c.064 -.168 .265 -.205 .508 -.097c.284 .13 .419 .475 .284 .736c-.086 .168 -.366 .441 -.49 .482c-.134 .041 -.126 0 .023 -.097zm-8.047 -.247c-.034 -.082 .074 -.239 .22 -.317c.187 -.105 .25 -.075 .325 .142c.034 .104 .116 .261 .183 .355c.075 .1 .105 .168 .079 .18c-.153 .048 -.751 -.214 -.807 -.36zm8.652 .079a.714 .714 0 0 0 .116 -.277c0 -.179 .049 -.186 .329 -.056c.231 .109 .269 .18 .16 .295a1.465 1.465 0 0 1 -.556 .303c-.172 .034 -.187 -.045 -.049 -.265zm-3.702 1.031c-.064 0 -.026 -.06 .078 -.12c.195 -.108 .228 -.47 .064 -.72c-.067 -.101 -.277 -.27 -.359 -.285a.658 .658 0 0 0 -.194 .015c-.108 .023 -.157 .064 -.247 .206c-.228 .37 -.235 .46 -.044 .699c.123 .153 .138 .205 .067 .205c-.067 0 -.523 -.486 -.61 -.654l-.074 -.134l.094 -.071c.085 -.068 .183 -.105 .455 -.165c.056 -.01 .109 -.052 .124 -.093c.026 -.09 .276 -.265 .373 -.265c.045 0 .153 .074 .243 .168c.116 .116 .22 .183 .351 .224c.105 .03 .254 .097 .333 .15l.138 .097l-.213 .242c-.213 .236 -.516 .501 -.58 .501zm-.534 -.613c.06 -.168 .157 -.284 .243 -.284c.037 0 .115 .053 .179 .116c.258 .262 .209 .471 -.109 .508c-.295 .034 -.4 -.082 -.313 -.34zm1.363 .512c-.104 -.026 -.13 -.052 -.13 -.127c0 -.09 .003 -.09 .433 -.108c.303 -.011 .456 -.034 .504 -.075c.038 -.03 .127 -.1 .195 -.157c.13 -.112 .156 -.123 .156 -.07c0 .059 -.343 .414 -.455 .474c-.139 .07 -.535 .108 -.703 .063zm-4.651 -.34c-.303 -.12 -.262 -.157 .176 -.153c.213 0 .452 .015 .534 .03l.15 .026l-.165 .086c-.206 .108 -.445 .112 -.695 .011zm6.721 .03c-.205 0 -.418 -.06 -.374 -.1c.068 -.072 .957 -.117 .957 -.05c0 .057 -.366 .15 -.583 .15zm-4.797 .299c-.258 -.034 -.291 -.049 -.418 -.183c-.079 -.082 -.142 -.176 -.142 -.21c0 -.048 .033 -.04 .186 .038c.157 .079 .236 .093 .52 .093c.385 0 .534 .049 .519 .165c-.015 .104 -.284 .142 -.665 .097z"/></svg>