<svg xmlns="http://www.w3.org/2000/svg" width="48" height="48" viewBox="0 0 48 48" fill="currentColor"><path d="M24.86 1.631c.515 .021 1.03 .059 1.545 .095c.9 .06 1.784 .238 2.66 .444c3.261 .766 6.228 2.165 8.836 4.269c3.96 3.193 6.624 7.238 7.874 12.188c.229 .907 .425 1.822 .517 2.751c.07 .687 .08 1.378 .111 2.07c.01 .23 .003 .46 .003 .69c.006 .006 .012 .006 .02 .006l-.041 1.41c-.009 .234 -.019 .469 -.032 .703c-.04 .725 -.18 1.439 -.322 2.15a22.928 22.928 0 0 1 -1.744 5.313c-1.074 2.274 -2.52 4.284 -4.267 6.09a22.154 22.154 0 0 1 -12.183 6.45a22.26 22.26 0 0 1 -4.731 .322c-3.164 -.123 -6.185 -.837 -9.022 -2.257c-1.576 -.79 -3.075 -1.713 -4.428 -2.846c-3.347 -2.803 -5.749 -6.262 -7.114 -10.423a22.439 22.439 0 0 1 -.994 -4.675a21.895 21.895 0 0 1 -.065 -3.868c.289 -3.877 1.507 -7.441 3.607 -10.712c1.034 -1.61 2.295 -3.02 3.687 -4.32c2.136 -1.99 4.593 -3.46 7.321 -4.487c1.573 -.59 3.197 -.973 4.858 -1.229c1.298 -.199 2.6 -.184 3.904 -.134zm-2.919 2.069c-1.121 .11 -2.227 .308 -3.314 .603a20.622 20.622 0 0 0 -14.184 13.39a18.844 18.844 0 0 0 -.914 4.27c-.064 .7 -.071 1.407 -.103 2.025c.028 .737 .03 1.39 .082 2.04c.066 .843 .213 1.677 .404 2.503c1.094 4.712 3.5 8.613 7.29 11.627c3.404 2.707 7.305 4.165 11.65 4.411a19.835 19.835 0 0 0 4.426 -.252a20.647 20.647 0 0 0 5.752 -1.858a20.56 20.56 0 0 0 10.702 -13.024c.283 -1.05 .499 -2.112 .596 -3.196c.044 -.494 .066 -.992 .083 -1.489c.047 -1.34 -.008 -2.672 -.235 -3.996a20.418 20.418 0 0 0 -1.857 -5.728c-2.088 -4.167 -5.232 -7.285 -9.415 -9.348c-2.442 -1.204 -5.032 -1.867 -7.747 -2.04a20.01 20.01 0 0 0 -3.216 .062zm2.487 3.059l18.554 14.431l-.01 .045c-.048 .007 -.097 .02 -.143 .02c-.825 .009 -1.65 .013 -2.476 .022c-1.455 .016 -2.91 .036 -4.365 .054a.659 .659 0 0 0 -.286 .058c1.843 1.301 3.685 2.604 5.567 3.937c-.086 .011 -.129 .022 -.169 .022c-.739 -.004 -1.475 -.013 -2.214 -.015l-7.528 -.018c-.759 -.003 -1.516 -.011 -2.275 -.007c-.146 0 -.225 -.053 -.301 -.192c-.73 -1.334 -1.466 -2.664 -2.2 -3.992c-.115 -.21 -.238 -.415 -.363 -.618c-.046 -.075 -.11 -.14 -.203 -.254c-.02 .139 -.04 .221 -.04 .303l-.006 1.07c-.002 .127 -.023 .252 -.02 .376c.004 .232 -.115 .353 -.292 .426c-.063 .027 -.125 .047 -.22 .08c.055 .07 .097 .13 .145 .183c.52 .59 1.039 1.183 1.56 1.77c.457 .512 .92 1.017 1.375 1.532c.088 .1 .177 .136 .3 .136c1.503 -.004 3.005 -.009 4.509 0c1.08 .004 2.16 .027 3.238 .042c.181 .003 .362 .011 .542 .038a1 1 0 0 1 .324 .105c.402 .216 .71 .546 .94 .974c.155 .29 .231 .583 .23 .924v6.907c-.003 .39 -.061 .783 -.11 1.172c-.03 .241 -.144 .446 -.293 .624c-.113 .136 -.23 .27 -.345 .406c-.177 .212 -.414 .274 -.656 .294c-.581 .049 -1.163 .096 -1.747 .111c-.946 .025 -1.892 .032 -2.838 .032c-5.328 .002 -10.654 .004 -15.982 -.003a188.054 188.054 0 0 1 -4.044 -.058c-.394 -.008 -.787 -.073 -1.18 -.12a.768 .768 0 0 1 -.519 -.31c-.048 -.062 -.1 -.12 -.157 -.173c-.34 -.31 -.485 -.72 -.503 -1.192c-.024 -.602 -.06 -1.201 -.064 -1.803c-.01 -1.731 -.008 -3.46 -.006 -5.192c0 -.296 .012 -.594 .036 -.889c.075 -.889 .7 -1.557 1.278 -1.762c.187 -.067 .397 -.08 .596 -.087c.656 -.024 1.314 -.036 1.97 -.051c.059 -.002 .117 -.007 .218 -.014c-.075 -.098 -.125 -.169 -.181 -.238a6.288 6.288 0 0 1 -.916 -1.537a2.189 2.189 0 0 1 -.193 -.9c.004 -.261 0 -.52 .002 -.78c.002 -.317 .068 -.618 .199 -.9c.064 -.139 .123 -.277 .201 -.455c-.232 -.005 -.45 -.004 -.665 -.003h-7.076c-.008 -.015 -.016 -.033 -.026 -.05c3.971 -4.392 7.944 -8.782 11.924 -13.182c.084 .069 .15 .12 .211 .174c.84 .753 1.675 1.51 2.514 2.263c.187 .168 .383 .328 .582 .477c.193 .145 .213 .134 .362 -.062c.759 -1.003 1.514 -2.008 2.275 -3.006c.247 -.323 .509 -.633 .767 -.945c.052 -.064 .116 -.12 .193 -.2zm4.131 20.449c-4.04 0 -8.08 .002 -12.12 .01c-1.265 .001 -2.53 .02 -3.796 .034a3.246 3.246 0 0 0 -.304 .023c-.498 .055 -1.206 .82 -1.12 1.372l.003 .057l-.007 .115l.013 5.802c0 .262 .002 .521 .01 .783c.002 .067 .008 .15 .048 .196c.185 .218 .374 .432 .578 .632a.471 .471 0 0 0 .271 .117c.328 .03 .659 .055 .989 .059c1.737 .017 3.472 .032 5.21 .038c1.998 .006 3.996 0 5.993 0v.012h1.718c3.36 -.006 6.717 -.016 10.077 -.016c.284 0 .527 -.078 .731 -.267a4.8 4.8 0 0 0 .414 -.445a.63 .63 0 0 0 .14 -.406c.002 -.166 .023 -.33 .023 -.497c.002 -1.584 .003 -3.169 .002 -4.752c0 -.572 -.008 -1.145 -.016 -1.718a.438 .438 0 0 0 -.046 -.217a2.691 2.691 0 0 0 -.318 -.426c-.29 -.298 -.64 -.47 -1.07 -.466c-.457 .004 -.916 -.02 -1.374 -.023c-2.015 -.007 -4.033 -.017 -6.049 -.017zm-5.104 -4.519c-.361 .096 -.7 .094 -1.044 0c-.067 .159 -.056 .313 -.046 .462c.019 .298 -.122 .502 -.384 .592c-.19 .069 -.214 .187 -.216 .347c0 .052 -.005 .102 -.005 .153c-.006 .422 -.119 .516 -.55 .567c-.24 .029 -.481 .054 -.72 .08c-.267 .03 -.504 .126 -.696 .321a37.28 37.28 0 0 1 -.533 .52c-.32 .305 -.483 .679 -.504 1.141c.065 .004 .12 .008 .178 .008c.42 0 .84 -.004 1.26 .002a.374 .374 0 0 0 .3 -.125c.58 -.588 1.167 -1.172 1.751 -1.756l1.148 -1.147c.059 -.06 .108 -.117 .105 -.212c-.008 -.235 0 -.472 -.006 -.707c-.002 -.078 -.023 -.156 -.038 -.246zm.916 -11.95c-.092 .1 -.17 .184 -.242 .27c-2.906 3.479 -5.813 6.953 -8.714 10.434c-.436 .523 -.846 1.067 -1.262 1.605c-.185 .24 -.308 .516 -.334 .821a3.15 3.15 0 0 0 .046 .949c.078 .374 .251 .704 .465 1.015c.092 .134 .187 .266 .308 .436c.017 -.16 .03 -.273 .044 -.386c.06 -.525 .198 -1.021 .503 -1.462c.245 -.353 .53 -.67 .848 -.953c1.361 -1.205 2.945 -2.006 4.656 -2.583c.057 -.019 .12 -.029 .212 -.05c.07 .85 -.002 1.669 -.071 2.486c-.094 .015 -.162 .03 -.23 .038a2 2 0 0 0 -.921 .342a6.111 6.111 0 0 0 -.557 .431a39.037 39.037 0 0 0 -2.425 2.38c-.099 .102 -.181 .22 -.278 .34c.083 .017 .368 .025 .699 .028h.34c.46 -.001 .909 -.014 .982 -.035c-.038 -.37 .092 -.695 .288 -1.002a3.66 3.66 0 0 1 1.058 -1.06c.14 -.093 .307 -.152 .47 -.2c.156 -.046 .324 -.057 .488 -.076c.206 -.025 .414 -.042 .64 -.065v-.245c.002 -.248 0 -.496 .011 -.744c.008 -.18 .094 -.231 .265 -.178c.04 .014 .079 .04 .113 .065c.12 .092 .233 .057 .27 -.088c.013 -.055 .013 -.114 .013 -.17c-.004 -.234 -.012 -.471 -.016 -.706c-.002 -.101 -.005 -.204 -.002 -.305c.004 -.067 .002 -.145 .096 -.165a.205 .205 0 0 1 .229 .098c.02 .038 .03 .084 .05 .122c.175 .372 .597 .441 .874 .141c.051 -.055 .084 -.126 .133 -.185c.048 -.057 .098 -.122 .159 -.158c.1 -.058 .175 -.018 .193 .097c.019 .118 .026 .24 .028 .36c.004 .44 -.002 .879 .008 1.318a.436 .436 0 0 1 -.147 .348c-.89 .883 -1.775 1.771 -2.661 2.657c-.046 .046 -.088 .095 -.147 .16h.977c0 -.087 -.002 -.162 0 -.238c.004 -.147 .01 -.292 .02 -.437c.005 -.09 .053 -.14 .148 -.136c.098 .004 .132 .065 .134 .15c.004 .11 .008 .217 .01 .325c.001 .113 .003 .224 .003 .338h1.28c0 -.141 -.003 -.275 0 -.406c.001 -.096 .001 -.191 .009 -.287c.007 -.082 .06 -.122 .143 -.12c.074 0 .124 .036 .132 .11c.011 .094 .017 .19 .019 .285c.004 .138 0 .275 0 .418h1.189c.013 -.194 .023 -.378 .042 -.561c.023 -.21 .088 -.254 .324 -.218c.056 .252 0 .522 .04 .79h1.194v-.25c.001 -.139 -.002 -.28 .005 -.42c.008 -.122 .048 -.152 .17 -.156c.141 -.004 .187 .029 .199 .17c.01 .115 .005 .23 .005 .344v.294c.296 .038 .764 .028 .917 -.03c-.063 -.049 -.119 -.083 -.163 -.129c-.586 -.584 -1.174 -1.166 -1.754 -1.754c-.3 -.304 -.588 -.617 -.878 -.93c-.155 -.166 -.189 -.37 -.16 -.586c.017 -.145 .076 -.193 .215 -.168a.42 .42 0 0 1 .168 .076c.126 .09 .214 .069 .249 -.08a1.76 1.76 0 0 0 .036 -.34c.004 -.54 .004 -1.082 .006 -1.622v-.203c.164 -.057 .28 -.017 .368 .103c.116 .159 .239 .315 .342 .483c.43 .691 .855 1.386 1.28 2.08c.405 .662 .808 1.324 1.21 1.989c.043 .068 .071 .147 .18 .145c.248 -.004 .497 .002 .745 0c.067 0 .131 -.02 .229 -.035c-.052 -.093 -.084 -.16 -.122 -.223c-.447 -.733 -.898 -1.464 -1.344 -2.2a10.31 10.31 0 0 1 -.306 -.55a.417 .417 0 0 1 -.059 -.177c0 -.047 .035 -.107 .073 -.14c.053 -.047 .11 -.014 .147 .035c.08 .107 .162 .214 .23 .327c.402 .649 .799 1.302 1.196 1.953l.544 .897c.036 .061 .07 .118 .158 .116c.267 -.007 .535 -.01 .802 -.017c.04 -.002 .078 -.026 .132 -.047c-.065 -.113 -.119 -.214 -.176 -.312c-.454 -.752 -.909 -1.502 -1.361 -2.254a4.572 4.572 0 0 1 -.231 -.44c-.07 -.156 -.05 -.19 .137 -.291c.067 .09 .145 .179 .208 .28c.365 .59 .724 1.184 1.087 1.774c.227 .368 .456 .735 .685 1.101c.055 .09 .12 .168 .233 .178c.292 .034 .588 .011 .912 -.002c-.044 -.08 -.07 -.136 -.101 -.187c-.374 -.613 -.752 -1.226 -1.122 -1.842a29.442 29.442 0 0 1 -.499 -.858a.902 .902 0 0 1 -.103 -.265c-.007 -.04 .035 -.107 .075 -.134c.026 -.019 .103 -.002 .13 .025c.074 .078 .139 .166 .196 .258c.296 .475 .588 .953 .878 1.43c.302 .494 .603 .989 .9 1.485c.05 .088 .11 .126 .213 .122c.147 -.007 .292 -.002 .44 -.002h.509c-.052 -.09 -.084 -.149 -.119 -.206c-.524 -.865 -1.051 -1.728 -1.574 -2.592a2.086 2.086 0 0 1 -.159 -.304c-.05 -.124 -.025 -.16 .136 -.229c.063 .08 .135 .158 .193 .248c.316 .485 .633 .968 .94 1.459c.304 .485 .598 .977 .894 1.466c.044 .072 .084 .135 .187 .134c.254 -.002 .51 .007 .764 .01c.051 0 .105 -.016 .183 -.03l-.168 -.288c-.481 -.81 -.964 -1.617 -1.443 -2.428c-.08 -.136 -.14 -.287 -.214 -.426a.634 .634 0 0 0 -.14 -.195a6.386 6.386 0 0 0 -.507 -.37c-1.098 -.716 -2.2 -1.424 -3.297 -2.142c-.84 -.55 -1.676 -1.11 -2.512 -1.667a1.164 1.164 0 0 1 -.195 -.152c-.02 -.023 -.024 -.088 -.007 -.115c.019 -.029 .076 -.051 .109 -.044c.059 .015 .116 .05 .17 .082c.55 .332 1.105 .655 1.649 .999c1.555 .981 3.104 1.97 4.657 2.953c.166 .105 .338 .204 .512 .298c.063 .034 .137 .046 .206 .067l.029 -.038c-.05 -.07 -.092 -.146 -.15 -.207a189.42 189.42 0 0 0 -1.22 -1.313c-.3 -.32 -.604 -.638 -.902 -.96a1.896 1.896 0 0 1 -.206 -.273c-.023 -.037 -.01 -.094 -.013 -.14l.095 -.001a.12 .12 0 0 1 .042 .009a.704 .704 0 0 1 .17 .12c.13 .113 .258 .227 .382 .348c.382 .374 .761 .75 1.141 1.126c.415 .412 .827 .829 1.243 1.24c.042 .043 .101 .098 .153 .098c.257 -.004 .513 -.025 .798 -.04c-.046 -.057 -.07 -.091 -.1 -.122l-.864 -.89c-.441 -.458 -.884 -.914 -1.321 -1.376a3.288 3.288 0 0 1 -.296 -.372c-.023 -.033 -.008 -.092 -.012 -.138c.046 .002 .103 -.013 .138 .008c.091 .057 .18 .122 .257 .195c.27 .252 .539 .505 .8 .765c.625 .619 1.245 1.24 1.861 1.863c.084 .084 .163 .124 .285 .111c.17 -.02 .343 -.02 .513 -.03c.048 -.004 .094 -.012 .163 -.021c-.05 -.058 -.08 -.096 -.115 -.132c-.456 -.47 -.916 -.938 -1.37 -1.411a59.5 59.5 0 0 1 -.938 -1.004c-.068 -.075 -.12 -.164 -.172 -.25c-.013 -.021 -.005 -.075 .01 -.086c.025 -.02 .076 -.03 .101 -.017c.078 .042 .155 .09 .22 .149c.248 .227 .496 .456 .737 .693c.664 .658 1.326 1.319 1.985 1.983a.384 .384 0 0 0 .319 .128c.171 -.01 .343 -.002 .515 -.004c.04 0 .078 -.011 .141 -.02c-.051 -.058 -.086 -.094 -.12 -.13c-.46 -.476 -.922 -.95 -1.38 -1.427a64.476 64.476 0 0 1 -.928 -.987a1.272 1.272 0 0 1 -.174 -.25c-.015 -.028 -.003 -.093 .021 -.116a.137 .137 0 0 1 .119 -.021c.068 .03 .133 .076 .189 .126c.187 .172 .376 .343 .555 .525a383.73 383.73 0 0 1 2.146 2.172a.393 .393 0 0 0 .317 .132c.261 -.01 .52 0 .782 -.004c.105 -.002 .208 -.015 .313 -.025l.016 -.04c-.048 -.046 -.094 -.095 -.147 -.133a35.24 35.24 0 0 0 -.542 -.39c-4.355 -3.068 -8.701 -6.132 -13.051 -9.192c-.86 -.603 -1.722 -1.199 -2.585 -1.798c-.061 -.042 -.124 -.079 -.191 -.12zm-3.862 10.557c-.11 .038 -.194 .06 -.273 .097c-.446 .198 -.895 .397 -1.338 .603a10.395 10.395 0 0 0 -2.756 1.856a4.515 4.515 0 0 0 -.73 .853c-.15 .239 -.286 .489 -.301 .775c-.021 .437 -.013 .877 -.02 1.316c0 .011 .012 .02 .033 .055c.237 .008 .491 .017 .743 .021c.105 .002 .172 -.063 .235 -.141c.143 -.178 .282 -.361 .443 -.523a103.89 103.89 0 0 1 1.83 -1.839c.332 -.322 .69 -.622 1.046 -.916a1.85 1.85 0 0 1 .918 -.393c.07 -.012 .136 -.03 .214 -.046c.004 -.57 .02 -1.127 -.044 -1.718zm13.947 1.56l-.035 .036c.03 .06 .06 .124 .094 .183l1.634 2.713c.044 .072 .093 .107 .183 .107c.897 -.006 1.792 -.008 2.69 -.014c.034 0 .066 -.01 .147 -.023c-1.592 -1.025 -3.142 -2.031 -4.713 -3.003zm-16.516 -10.93c-.17 .154 -.33 .29 -.481 .437c-1.02 .994 -2.046 1.985 -3.056 2.99c-2.304 2.292 -4.6 4.595 -6.9 6.893c-.052 .052 -.1 .105 -.174 .185h.21c.305 -.01 .61 -.028 .916 -.026c.147 0 .244 -.05 .34 -.163c.855 -1.025 1.716 -2.046 2.577 -3.07c.032 -.038 .066 -.076 .1 -.112c.054 -.055 .111 -.048 .172 -.008c.062 .04 .088 .098 .058 .164a.962 .962 0 0 1 -.115 .197c-.196 .25 -.393 .5 -.595 .745l-1.68 2.027c-.052 .061 -.094 .128 -.155 .212c.088 .017 .143 .038 .199 .036c.336 -.015 .672 -.034 1.008 -.051c.11 -.006 .185 -.065 .252 -.15c.185 -.226 .376 -.448 .563 -.673c.572 -.682 1.143 -1.365 1.72 -2.045c.114 -.135 .24 -.263 .372 -.383c.135 -.125 .168 -.113 .265 .072c-.04 .057 -.082 .12 -.128 .18c-.156 .2 -.315 .4 -.475 .597c-.603 .739 -1.21 1.476 -1.813 2.215c-.046 .057 -.086 .118 -.136 .185c.042 .015 .057 .025 .074 .025c.382 .01 .764 .017 1.144 .03c.082 .002 .126 -.046 .172 -.1l.475 -.572c.647 -.777 1.294 -1.556 1.943 -2.33a3.51 3.51 0 0 1 .31 -.312c.051 -.048 .116 -.088 .185 -.025c.06 .056 .03 .117 .002 .174c-.018 .034 -.035 .069 -.058 .1c-.107 .142 -.21 .287 -.322 .425c-.644 .788 -1.29 1.575 -1.936 2.361l-.174 .22c.094 .017 .151 .036 .21 .038c.306 .01 .611 .006 .915 .023c.145 .008 .233 -.048 .32 -.155c1.707 -2.054 3.415 -4.1 5.116 -6.153c.426 -.513 .834 -1.044 1.247 -1.569c.068 -.088 .12 -.19 .187 -.301l-2.854 -2.333z"/></svg>