<svg xmlns="http://www.w3.org/2000/svg" width="48" height="48" viewBox="0 0 48 48" fill="currentColor"><path d="M6.835 27.641c-.214 .236 -.398 .45 -.592 .656c-.787 .84 -1.707 1.588 -2.156 2.705c-.317 .789 -.633 1.588 -.889 2.398c-.204 .676 .368 1.035 .725 1.465c.164 .195 .399 .328 .562 .523c.164 .184 .154 .43 -.132 .46c-.685 .062 -1.39 .154 -2.064 .073c-.634 -.082 -.777 -.462 -.623 -1.087c.03 -.133 0 -.287 0 -.43c-.746 -.051 -.777 -.174 -.521 -.86c.654 -1.753 1.47 -3.454 1.573 -5.37c.04 -.728 .317 -1.322 .838 -1.804c.5 -.46 .715 -1.014 .633 -1.7c-.184 -1.456 -.378 -2.91 -.531 -4.366c-.133 -1.26 .153 -2.387 1.124 -3.289c.306 -.287 .562 -.635 .817 -.973c.409 -.564 .889 -1.025 1.563 -1.26c.225 -.083 .44 -.257 .613 -.441c.695 -.738 1.512 -.943 2.503 -.8a8.67 8.67 0 0 0 2.186 .02c2.687 -.317 5.364 -.696 8.04 -1.055c1.175 -.163 2.35 -.46 3.525 -.502c2.953 -.082 5.486 .994 7.632 3.013c.45 .42 .47 .42 .817 -.092c.204 -.297 .429 -.574 .674 -.84c.072 -.083 .235 -.072 .348 -.113c.01 .123 .06 .266 .02 .369c-.163 .4 -.347 .778 -.531 1.158c-.164 .348 -.133 .625 .143 .922c.878 .973 1.675 2.029 2.605 2.95c.613 .616 1.4 1.056 2.115 1.569a.404 .404 0 0 0 .194 .071c1.032 .154 2.063 .359 3.106 .43c1.174 .083 2.043 -.553 2.727 -1.444c.97 -1.281 1.328 -2.787 1.584 -4.335c.03 -.194 .082 -.379 .143 -.676c.122 .154 .225 .226 .235 .297c.388 2.593 .153 5.052 -1.686 7.112c-.347 .389 -.817 .655 -1.195 1.024c-.184 .185 -.317 .451 -.399 .697c-.153 .44 -.184 .953 -.398 1.353c-.347 .656 -.307 1.27 -.072 1.926c.103 .287 .154 .594 .225 .892c.174 .717 .296 1.465 .542 2.162c.398 1.147 -.092 2.05 -1.298 2.162c-.398 .04 -.817 .01 -1.205 -.092c-.705 -.175 -.991 -.605 -.9 -1.322c.052 -.4 -.132 -.636 -.388 -.882c-.878 -.82 -1.747 -1.66 -2.625 -2.49c-.113 -.102 -.215 -.235 -.337 -.307c-1.277 -.707 -2.442 -1.68 -3.974 -1.834c-.859 -.082 -1.523 .123 -1.993 .973c-.367 .666 -.97 1.21 -1.47 1.794c-.45 .522 -.89 .983 -.685 1.803c.225 .902 0 1.742 -.715 2.429c-.542 .512 -.317 1.639 .337 2.162c.46 .368 .878 .799 1.267 1.25c.316 .369 .214 .522 -.246 .584c-.582 .082 -1.144 .225 -1.726 .266c-.664 .062 -1.206 -.174 -1.43 -.881c-.02 -.062 -.051 -.143 -.103 -.174c-.47 -.267 -.684 -.646 -.561 -1.2c.01 -.03 -.266 -.194 -.399 -.173c-.552 .082 -1.093 .215 -1.645 .307a9.24 9.24 0 0 1 -1.062 .072c-.348 .01 -.5 -.174 -.409 -.523c.276 -1.065 1.032 -1.69 1.972 -2.141c.112 -.052 .265 0 .398 .01c.225 .01 .46 .102 .654 .03c.358 -.122 .858 -.266 .96 -.532c.133 -.328 .01 -.84 -.173 -1.189c-.337 -.666 -.787 -1.27 -1.206 -1.896c-.306 -.46 -.725 -.696 -1.297 -.635c-1.808 .195 -3.617 .38 -5.435 .554c-.42 .04 -.848 .01 -1.267 .01c-.153 0 -.347 -.072 -.45 0c-.5 .328 -.786 .04 -1.134 -.287c-.306 -.287 -.704 -.472 -1.062 -.687c-.644 -.39 -1.287 -.758 -1.92 -1.158c-.307 -.194 -.45 -.153 -.532 .205c-.245 1.066 -.572 2.111 -.746 3.177c-.092 .584 -.071 1.28 .174 1.803c.45 .964 1.052 1.865 1.686 2.726c.235 .328 .745 .45 1.072 .738c.409 .348 .767 .748 1.114 1.158c.04 .05 -.123 .4 -.204 .41c-.848 .04 -1.686 .05 -2.534 .05c-.092 0 -.184 -.132 -.266 -.214c-.061 -.052 -.133 -.185 -.163 -.175c-.715 .226 -.572 -.4 -.746 -.727a187.55 187.55 0 0 0 -2.033 -3.71a4.928 4.928 0 0 0 -.746 -1.034c-.572 -.605 -.654 -1.271 -.419 -2.04c.103 -.379 .164 -.768 -.153 -1.178z"/></svg>