<svg xmlns="http://www.w3.org/2000/svg" width="48" height="48" viewBox="0 0 48 48" fill="currentColor"><path d="M15.801 1.5h16.555v4.38h-5.554v13.36h-5.446v-13.36h-5.556z"/><path d="M14.25 15.13h7.166l2.765 10.794l2.753 -10.794h7.142v17.74h-4.449v-13.53l-3.45 13.529h-4.028l-3.439 -13.529v13.53h-4.46z"/><path d="M16.366 28.76h10.195c1.7 0 3.004 .424 3.914 1.271c.91 .847 1.364 1.896 1.364 3.146c0 1.049 -.324 1.948 -.973 2.699c-.433 .5 -1.066 .895 -1.9 1.185c1.266 .307 2.198 .833 2.795 1.58c.597 .746 .896 1.684 .896 2.813c0 .92 -.212 1.747 -.637 2.48a4.708 4.708 0 0 1 -1.743 1.743c-.457 .266 -1.147 .46 -2.068 .581c-1.227 .161 -2.04 .242 -2.441 .242h-9.402v-17.74zm5.494 6.958h2.369c.85 0 1.44 -.147 1.773 -.441c.333 -.295 .5 -.72 .5 -1.277c0 -.516 -.167 -.92 -.5 -1.21c-.332 -.29 -.911 -.436 -1.737 -.436h-2.405v3.364zm0 6.97h2.778c.938 0 1.599 -.167 1.984 -.502c.384 -.335 .577 -.784 .577 -1.35c0 -.523 -.19 -.945 -.571 -1.264c-.381 -.318 -1.048 -.478 -2.002 -.478h-2.766v3.594z"/></svg>