<svg xmlns="http://www.w3.org/2000/svg" width="48" height="48" viewBox="0 0 48 48" fill="currentColor"><path d="M7.942 18.908v-5.76c.05 -.008 .096 -.023 .142 -.023c1.111 0 2.22 0 3.33 .004c.274 0 .54 .055 .792 .17c.662 .304 .974 1.054 .725 1.739a1.205 1.205 0 0 1 -.593 .675l-.233 .115l.229 .084c.597 .214 .918 .635 .947 1.27c.02 .475 -.126 .892 -.472 1.232c-.238 .234 -.532 .36 -.857 .398a11.99 11.99 0 0 1 -1.167 .092c-.865 .015 -1.73 .004 -2.596 .004h-.247zm1.802 -1.25c.409 0 .798 .003 1.186 -.005a.665 .665 0 0 0 .258 -.075a.54 .54 0 0 0 .308 -.547a.505 .505 0 0 0 -.357 -.47a.682 .682 0 0 0 -.203 -.046c-.375 -.012 -.752 -.017 -1.127 -.023c-.019 0 -.038 .015 -.067 .025c.002 .371 .002 .744 .002 1.14zm-.002 -2.268c.34 0 .654 .004 .966 -.002a.846 .846 0 0 0 .245 -.055a.444 .444 0 0 0 .29 -.31c.106 -.356 -.072 -.65 -.437 -.714a1.39 1.39 0 0 0 -.21 -.017c-.23 -.002 -.46 -.002 -.69 0c-.053 0 -.108 .013 -.164 .019v1.08zm-.252 9.268a815.3 815.3 0 0 1 1.522 .46c-.072 .824 -.771 1.641 -1.601 1.874a3.806 3.806 0 0 1 -1.35 .111a5.02 5.02 0 0 1 -.64 -.088c-.981 -.207 -1.568 -.853 -1.855 -1.77c-.239 -.763 -.224 -1.547 .004 -2.314c.247 -.836 .8 -1.397 1.639 -1.649a3.91 3.91 0 0 1 2.21 -.015c.83 .233 1.28 .84 1.561 1.65c-.528 .119 -1.035 .232 -1.552 .35c-.023 -.049 -.049 -.089 -.065 -.133c-.189 -.45 -.524 -.676 -1.006 -.672c-.48 .004 -.847 .251 -1.02 .693c-.139 .352 -.162 .723 -.14 1.092c.014 .27 .05 .543 .114 .805c.105 .412 .388 .655 .813 .71c.692 .088 1.014 -.203 1.203 -.643c.059 -.14 .103 -.287 .163 -.461zm18.35 -9.36v-.534c.16 -.049 1.162 -.061 1.485 -.023v5.753h-1.599l-.004 -.955v-.985c-.052 .027 -.09 .038 -.12 .06c-1.043 .816 -2.451 .349 -2.78 -.932c-.182 -.708 -.145 -1.412 .163 -2.087c.422 -.92 1.358 -1.112 2.069 -.87c.194 .068 .362 .177 .509 .321c.081 .074 .165 .147 .276 .252zm-1.53 1.527c.023 .164 .031 .331 .075 .49c.065 .235 .208 .41 .455 .476c.352 .097 .716 -.113 .827 -.49a1.728 1.728 0 0 0 -.008 -1.01a.66 .66 0 0 0 -.673 -.49c-.284 .01 -.521 .207 -.6 .521c-.04 .164 -.051 .332 -.076 .503zm-21.691 17.698c-.115 .11 -.195 .178 -.264 .253c-.526 .585 -1.84 .637 -2.41 -.228c-.38 -.577 -.49 -1.21 -.43 -1.88c.022 -.24 .066 -.488 .15 -.714c.483 -1.333 1.998 -1.362 2.684 -.76c.035 .028 .075 .054 .132 .091c.041 -.232 .014 -.446 .02 -.66c.005 -.21 .003 -.419 .003 -.628v-.68c.536 -.001 1.054 0 1.569 0c.046 .175 .059 5.446 .02 5.75c-.15 .05 -1.233 .061 -1.47 .007c-.004 -.164 -.004 -.336 -.004 -.551zm-.092 -1.5c-.015 -.223 -.042 -.437 -.147 -.634a.677 .677 0 0 0 -.696 -.366c-.28 .038 -.448 .22 -.521 .48a1.886 1.886 0 0 0 -.007 1.012c.084 .312 .325 .51 .608 .521c.3 .01 .57 -.186 .666 -.505c.053 -.163 .067 -.337 .097 -.509zm12.211 -2.283h-1.82v-1.406h5.41v1.404h-1.809c-.017 .503 -.006 .981 -.008 1.459c-.002 .482 0 .964 0 1.445v1.455h-1.773v-4.357zm13.148 -6.73c.09 -.572 .394 -.934 .904 -1.108c.247 -.084 .515 -.132 .777 -.155a6.618 6.618 0 0 1 1.523 .04c.767 .113 1.247 .515 1.278 1.512c.017 .543 .002 1.088 .005 1.633c0 .182 -.009 .364 .018 .542c.026 .17 .093 .334 .145 .514h-1.486c-.052 -.139 -.11 -.29 -.174 -.455c-.031 .021 -.062 .034 -.085 .055c-.484 .44 -1.073 .536 -1.696 .507a1.783 1.783 0 0 1 -.65 -.143a1.167 1.167 0 0 1 -.588 -1.58c.099 -.21 .247 -.381 .461 -.465c.251 -.1 .511 -.182 .773 -.25c.465 -.119 .937 -.22 1.404 -.332c.1 -.026 .195 -.07 .287 -.103c.05 -.346 -.088 -.52 -.417 -.543a2.622 2.622 0 0 0 -.314 .002c-.277 .02 -.5 .122 -.61 .398c-.01 .026 -.03 .046 -.056 .084c-.49 -.048 -.981 -.098 -1.499 -.153zm2.888 1.02l-1.092 .34c-.027 .009 -.05 .023 -.075 .036c-.2 .109 -.287 .28 -.243 .482c.04 .182 .192 .303 .41 .324c.694 .07 1.157 -.467 1 -1.181zm-18.712 -9.12c.093 -.553 .382 -.918 .88 -1.1c.202 -.074 .417 -.118 .631 -.143a6.182 6.182 0 0 1 1.834 .048c.7 .134 1.051 .562 1.131 1.312c.019 .18 .008 .363 .008 .545v1.464c0 .254 .032 .501 .139 .734c.017 .035 .023 .077 .04 .136h-.619c-.245 0 -.488 -.004 -.733 .002c-.1 .002 -.16 -.036 -.19 -.124c-.04 -.11 -.076 -.222 -.122 -.354c-.046 .032 -.09 .057 -.13 .09a1.88 1.88 0 0 1 -1.207 .466c-.277 .01 -.561 .004 -.832 -.049c-.463 -.09 -.806 -.362 -.926 -.833c-.128 -.501 -.004 -1.107 .648 -1.354c.316 -.12 .657 -.18 .986 -.264c.386 -.099 .772 -.19 1.155 -.293c.086 -.023 .218 -.023 .222 -.151c.004 -.14 -.03 -.281 -.15 -.375c-.263 -.202 -.967 -.086 -1.147 .188c-.038 .059 -.067 .122 -.115 .208c-.486 -.046 -.987 -.099 -1.503 -.153zm2.907 1.016c-.382 .117 -.74 .226 -1.096 .341a.591 .591 0 0 0 -.212 .128a.406 .406 0 0 0 .115 .675c.413 .184 1.038 -.1 1.163 -.536c.055 -.187 .067 -.382 .03 -.608zm10.74 18.169h-1.563c-.048 -.15 -.067 -3.768 -.02 -4.164c.48 -.03 .961 -.006 1.47 -.015v.669c.086 -.086 .134 -.13 .178 -.18c.465 -.514 1.048 -.665 1.712 -.543c.463 .084 .78 .356 .939 .803c.084 .232 .109 .475 .109 .72c.002 .851 .002 1.704 0 2.555c0 .048 -.01 .096 -.017 .155h-1.586v-.241c0 -.665 0 -1.327 -.002 -1.991c0 -.105 -.006 -.21 -.025 -.312c-.053 -.3 -.2 -.444 -.474 -.476c-.258 -.03 -.52 .1 -.612 .346a1.64 1.64 0 0 0 -.107 .528c-.014 .557 -.006 1.117 -.008 1.676c.006 .153 .006 .304 .006 .47zm-7.019 -4.176c.553 0 1.073 -.003 1.613 .002v2.288c0 .096 0 .197 .02 .291c.081 .421 .536 .595 .89 .348c.174 -.122 .247 -.3 .276 -.497a3.36 3.36 0 0 0 .036 -.438c.004 -.58 .002 -1.158 .002 -1.739v-.24h1.588v4.135c-.15 .05 -1.207 .061 -1.485 .013v-.63c-.11 .108 -.174 .175 -.241 .242c-.497 .501 -1.1 .612 -1.758 .445c-.543 -.139 -.811 -.537 -.9 -1.07a3.317 3.317 0 0 1 -.039 -.5c-.004 -.796 -.002 -1.592 -.002 -2.389v-.261zm-1.16 -12.029v-4.163c.487 -.013 .97 -.004 1.48 -.006v.607c.015 .007 .03 .01 .047 .017c.054 -.059 .11 -.115 .165 -.174c.49 -.522 1.096 -.637 1.767 -.488c.427 .094 .716 .369 .85 .788c.055 .172 .099 .354 .1 .532c.013 .928 .01 1.856 .011 2.787c0 .033 -.008 .067 -.014 .109h-1.574c-.004 -.08 -.01 -.153 -.01 -.227c0 -.664 0 -1.326 -.002 -1.99c0 -.105 -.009 -.21 -.024 -.312c-.044 -.294 -.19 -.45 -.44 -.482c-.293 -.036 -.553 .086 -.651 .343a1.56 1.56 0 0 0 -.1 .51c-.013 .572 -.007 1.144 -.01 1.718v.41c-.16 .046 -1.246 .061 -1.596 .021zm10.8 -4.157h1.585v.235c0 .643 -.002 1.284 .002 1.928c0 .117 .008 .236 .023 .354c.042 .308 .19 .47 .446 .498c.306 .036 .558 -.094 .656 -.368c.054 -.155 .086 -.325 .09 -.49c.013 -.453 .006 -.908 .006 -1.363v-.798c.535 -.015 1.054 -.002 1.57 -.008c.046 .171 .052 3.972 .006 4.178h-1.454v-.593c-.113 0 -.145 .08 -.193 .13c-.255 .27 -.55 .473 -.926 .532a2.084 2.084 0 0 1 -.872 -.021c-.398 -.107 -.687 -.346 -.819 -.738a2.12 2.12 0 0 1 -.124 -.632c-.012 -.914 -.006 -1.83 -.006 -2.743c0 -.027 .006 -.055 .01 -.1zm-13.1 8.099h1.474v.65c.086 -.087 .134 -.133 .18 -.181c.473 -.52 1.064 -.662 1.735 -.532c.473 .092 .786 .381 .926 .84c.05 .166 .088 .342 .09 .513c.01 .929 .008 1.857 .008 2.787c0 .021 -.006 .04 -.016 .09c-.516 .009 -1.033 .002 -1.572 .004c-.004 -.094 -.012 -.167 -.012 -.24c0 -.644 0 -1.285 -.003 -1.928c0 -.12 -.008 -.237 -.02 -.354c-.034 -.281 -.17 -.442 -.411 -.49c-.268 -.057 -.543 .052 -.658 .293c-.067 .14 -.113 .304 -.12 .46c-.018 .504 -.012 1.006 -.016 1.51c-.002 .209 0 .418 -.002 .628c0 .033 -.01 .067 -.02 .113h-1.546c-.044 -.15 -.062 -3.776 -.016 -4.163zm-.768 2.483h-3.183a.761 .761 0 0 0 .687 .848c.287 .025 .54 -.054 .736 -.274a.25 .25 0 0 1 .234 -.095c.45 .047 .903 .086 1.354 .13c.012 .002 .023 .013 .05 .026c-.023 .046 -.042 .096 -.069 .14c-.367 .582 -.899 .903 -1.58 .976a5.45 5.45 0 0 1 -1.418 -.02c-1.002 -.156 -1.536 -.992 -1.637 -1.73c-.04 -.293 -.04 -.586 .015 -.875c.17 -.88 .8 -1.5 1.697 -1.66a3.79 3.79 0 0 1 1.58 .044c.813 .202 1.293 .732 1.467 1.545c.062 .301 .069 .607 .067 .945zm-1.647 -.788c-.007 -.545 -.308 -.857 -.786 -.857c-.434 0 -.786 .385 -.765 .857h1.55zm27.855 .783h-3.158a.759 .759 0 0 0 .688 .853c.287 .025 .54 -.054 .735 -.276a.25 .25 0 0 1 .237 -.093c.45 .047 .903 .086 1.356 .13c.012 .002 .023 .013 .048 .028c-.023 .046 -.042 .096 -.071 .14c-.373 .589 -.914 .907 -1.603 .979a5.493 5.493 0 0 1 -1.4 -.026c-1.006 -.157 -1.536 -1 -1.634 -1.732a2.55 2.55 0 0 1 .058 -1.06c.241 -.826 .809 -1.302 1.639 -1.467a3.614 3.614 0 0 1 1.62 .048c.804 .207 1.278 .74 1.437 1.546c.05 .252 .048 .513 .065 .771c.006 .044 -.009 .092 -.017 .16zm-3.166 -.781h1.534c.03 -.505 -.29 -.853 -.763 -.86c-.511 -.008 -.817 .472 -.771 .86zm.771 -6.699c-.038 .071 -.059 .122 -.088 .168c-.354 .549 -.849 .873 -1.5 .955a5.51 5.51 0 0 1 -1.44 0c-1.075 -.144 -1.571 -1.008 -1.682 -1.684a2.52 2.52 0 0 1 .019 -.979c.197 -.874 .752 -1.402 1.613 -1.592a3.526 3.526 0 0 1 1.722 .048c.803 .22 1.251 .773 1.406 1.578c.055 .28 .067 .565 .046 .882c-.532 .019 -1.058 .006 -1.586 .008c-.53 .002 -1.058 0 -1.586 0c-.067 .463 .348 .918 .878 .85a.848 .848 0 0 0 .55 -.276c.045 -.052 .09 -.1 .173 -.094c.482 .048 .968 .09 1.475 .136zm-3.095 -1.397h1.549c.027 -.495 -.279 -.85 -.738 -.868c-.45 -.019 -.792 .337 -.81 .868zm6.135 16.97c-.037 .415 .235 .785 .612 .846c.306 .05 .589 -.01 .803 -.251c.086 -.097 .172 -.111 .293 -.099c.375 .044 .75 .07 1.125 .105c.076 .006 .15 .019 .241 .03c-.031 .062 -.046 .106 -.071 .144c-.333 .52 -.79 .855 -1.41 .955a4.925 4.925 0 0 1 -1.645 -.002c-.951 -.165 -1.483 -.985 -1.584 -1.71a2.584 2.584 0 0 1 .02 -.915c.187 -.855 .718 -1.387 1.56 -1.597a3.473 3.473 0 0 1 1.823 .046c.77 .224 1.207 .77 1.36 1.547c.056 .289 .065 .58 .054 .899c-1.069 .002 -2.125 .002 -3.18 .002zm.002 -.765h1.532c.034 -.518 -.291 -.863 -.775 -.872c-.432 -.006 -.817 .421 -.757 .872zm-31.578 .769h-3.181c-.017 .352 .149 .658 .438 .781c.327 .14 .656 .116 .918 -.132a.496 .496 0 0 1 .459 -.146c.366 .048 .735 .069 1.104 .102c.046 .005 .092 .02 .16 .034c-.032 .06 -.051 .109 -.08 .153c-.334 .511 -.786 .838 -1.398 .936a4.925 4.925 0 0 1 -1.645 -.002c-.928 -.161 -1.446 -.932 -1.571 -1.621a2.503 2.503 0 0 1 .054 -1.201c.26 -.83 .85 -1.287 1.687 -1.437a3.702 3.702 0 0 1 1.517 .048c.827 .195 1.362 .786 1.498 1.636c.048 .273 .071 .55 .04 .849zm-1.635 -.77c.015 -.525 -.289 -.856 -.758 -.869c-.486 -.014 -.826 .438 -.788 .87h1.546zm23.818 1.319c.54 -.05 1.054 -.099 1.572 -.149c.027 .048 .052 .088 .073 .13c.216 .4 .809 .536 1.182 .27c.102 -.073 .167 -.165 .157 -.3a.276 .276 0 0 0 -.214 -.257c-.228 -.063 -.46 -.111 -.691 -.164c-.367 -.083 -.74 -.146 -1.098 -.26a1.103 1.103 0 0 1 -.767 -.819c-.126 -.482 .052 -.943 .459 -1.234c.19 -.136 .402 -.224 .63 -.27a4.858 4.858 0 0 1 1.875 -.003c.538 .102 .888 .442 1.093 .94c.01 .026 .01 .053 .017 .095l-1.318 .13c-.054 .004 -.109 0 -.16 0c-.217 -.352 -.492 -.47 -.89 -.382a.499 .499 0 0 0 -.155 .061c-.102 .063 -.159 .153 -.148 .279a.24 .24 0 0 0 .19 .224c.183 .048 .367 .086 .551 .117c.323 .059 .648 .105 .968 .166c.122 .023 .241 .069 .357 .117c.995 .426 .963 1.584 .255 2.13a1.766 1.766 0 0 1 -.716 .33a4.72 4.72 0 0 1 -2.138 -.033c-.57 -.139 -.92 -.516 -1.083 -1.117zm-11.558 -9.964v-1.167h.576v-.777c.528 -.27 1.042 -.534 1.584 -.81c.04 .196 .017 .366 .021 .536c.005 .167 0 .335 0 .502v.539h.885c.01 .394 .01 .767 -.002 1.16h-.862c-.008 .08 -.018 .139 -.02 .2c-.003 .44 -.005 .88 0 1.32c.004 .425 .144 .538 .559 .452c.082 -.016 .161 -.04 .266 -.065c.04 .365 .08 .715 .12 1.09c-.166 .031 -.321 .067 -.476 .086c-.417 .052 -.834 .077 -1.251 -.015c-.394 -.086 -.648 -.329 -.734 -.718a3.872 3.872 0 0 1 -.081 -.746c-.013 -.447 -.004 -.895 -.004 -1.341v-.248c-.197 .002 -.378 .002 -.58 .002zm13.062 -2.757h1.57v5.733c-.153 .042 -1.26 .056 -1.561 .019c-.044 -.147 -.055 -5.505 -.009 -5.752zm-6.397 2.84c-.104 -.032 -.176 -.06 -.249 -.078c-.352 -.093 -.622 .033 -.769 .366a2.295 2.295 0 0 0 -.168 .878c-.01 .51 -.006 1.019 -.01 1.53c0 .069 -.006 .136 -.01 .218h-1.589v-4.155h1.475v.58c.118 -.035 .132 -.128 .172 -.19c.164 -.254 .371 -.438 .677 -.487c.3 -.048 .662 .034 .955 .222l-.484 1.115zm10.196 6.857h1.55l.016 .013c.004 .004 .012 .01 .012 .017c.006 .041 .013 .081 .013 .123c0 1.312 -.002 2.621 -.005 3.933c0 .019 -.01 .04 -.02 .073h-1.566v-4.159zm-7.64 -.002h1.568v4.17c-.52 .015 -1.04 .006 -1.567 .006v-4.176zm7.647 -1.6h1.567v1.06h-1.55c-.045 -.145 -.055 -.753 -.017 -1.06zm-7.646 1.047v-1.046h1.56c.045 .168 .015 .342 .022 .514c.006 .174 .002 .348 .002 .515c-.162 .053 -1.318 .065 -1.584 .017z"/></svg>