---
version: "0.0.4"
---
<svg>
  <rect rx="8" />
  <path d="M29.92 8.173h.016c.079 .01 .236 .069 .647 .458c.41 .39 1.074 1.107 1.814 1.967c.74 .86 1.556 1.86 2.293 2.86c.738 1.003 1.396 2.003 1.744 2.509c.348 .506 .386 .517 .392 .444v-.036c-.002 -.093 -.03 -.312 -.071 -1.07c-.05 -.872 -.12 -2.461 -.103 -3.58c.016 -1.117 .12 -1.764 .182 -2.074c.063 -.31 .084 -.283 .26 .196c.177 .478 .51 1.41 .85 2.497c.34 1.088 .687 2.333 .965 3.23c.278 .899 .484 1.449 .655 1.973c.17 .525 .303 1.026 .37 1.28c.069 .257 .07 .268 .095 .24c.023 -.026 .067 -.092 .118 -.296c.052 -.204 .112 -.546 .22 -.92c.106 -.374 .262 -.78 .462 -1.256l.076 -.181l.159 -.366c.13 -.3 .255 -.578 .332 -.75c.122 -.272 .122 -.272 .13 -.25c.008 .024 .024 .07 .1 .275c.077 .204 .213 .565 .28 1.19c.067 .626 .063 1.515 .04 2.47c-.025 .958 -.07 1.98 -.091 2.492c-.022 .512 -.016 .512 .032 .483c.048 -.03 .138 -.086 .302 -.32c.165 -.234 .404 -.645 .693 -1.073c.288 -.43 .625 -.874 .81 -1.1c.187 -.223 .223 -.226 .187 .043c-.035 .27 -.14 .81 -.356 1.747c-.143 .623 -.335 1.422 -.532 2.218l-.196 .788l-.097 .38a73.87 73.87 0 0 1 -.718 2.642c-.181 .605 -.294 .9 -.12 .872c.175 -.027 .635 -.376 1.15 -.812c.516 -.436 1.087 -.958 1.457 -1.255c.37 -.297 .539 -.367 .612 -.354c.074 .014 .052 .112 -.193 .547c-.245 .435 -.712 1.208 -1.137 1.986c-.425 .778 -.805 1.56 -1.31 2.533c-.502 .97 -1.127 2.13 -1.41 2.709c-.283 .58 -.223 .58 -.074 .519c.15 -.06 .39 -.18 1.132 -.5a153.2 153.2 0 0 1 2.86 -1.194c.87 -.351 1.364 -.53 1.612 -.62c.247 -.09 .247 -.09 .13 .027c-.117 .117 -.35 .35 -.726 .702c-.375 .35 -.892 .818 -1.657 1.5c-.764 .683 -1.776 1.582 -2.325 2.093c-.55 .51 -.636 .636 -.593 .693c.043 .057 .218 .046 .604 .005c.386 -.04 .985 -.11 1.38 -.168c.394 -.057 .584 -.1 1.152 -.163a43.587 43.587 0 0 1 2.01 -.168c.496 -.025 .539 .007 .392 .116c-.147 .109 -.484 .294 -1.36 .75c-.876 .458 -2.29 1.187 -3.63 1.834c-1.337 .648 -2.6 1.214 -3.258 1.534c-.658 .322 -.712 .397 -.597 .436c.114 .038 .397 .038 1.26 .152a76.98 76.98 0 0 1 3.456 .555c1.143 .212 1.98 .408 2.356 .523c.375 .113 .288 .146 -.147 .227l-.1 .019l-.23 .04c-.463 .084 -1.16 .205 -2.146 .394c-1.257 .238 -2.986 .587 -4.396 .853c-1.408 .267 -2.496 .452 -3.878 .507c-1.382 .054 -3.057 -.023 -4.167 -.11c-1.11 -.087 -1.653 -.185 -1.953 -.212c-.3 -.027 -.353 .016 -.411 .21c-.057 .192 -.116 .536 -.23 .87a4.025 4.025 0 0 1 -.38 .824c-.106 .164 -.154 .164 -.27 .039c-.113 -.125 -.292 -.376 -.474 -.594c-.183 -.217 -.367 -.402 -.51 -.454c-.14 -.052 -.238 .03 -.282 .215c-.044 .185 -.033 .473 -.033 .629c0 .154 -.01 .176 -.106 .163a.943 .943 0 0 1 -.462 -.221c-.187 -.158 -.384 -.424 -.511 -.527c-.128 -.104 -.188 -.044 -.324 .089s-.348 .34 -.585 .492c-.236 .153 -.498 .25 -.73 .226a.61 .61 0 0 1 -.516 -.405c-.084 -.234 -.05 -.554 -.118 -.827c-.066 -.272 -.232 -.495 -.401 -.602c-.17 -.108 -.34 -.1 -1.236 -.014c-.897 .086 -2.518 .25 -4.9 .173c-2.384 -.077 -5.528 -.392 -7.72 -.691c-2.192 -.3 -3.433 -.582 -4.048 -.73c-.615 -.146 -.604 -.157 -.49 -.173c.115 -.016 .333 -.038 .806 -.142c.33 -.072 .788 -.184 1.368 -.33l.527 -.131l.286 -.072l.682 -.17l.71 -.176c.592 -.145 1.165 -.284 1.6 -.386c.784 -.182 1.12 -.242 1.325 -.315c.204 -.073 .275 -.16 -.038 -.334c-.313 -.174 -1.01 -.436 -1.915 -.854c-.906 -.42 -2.021 -.996 -3.19 -1.598l-3.006 -1.54c-.612 -.312 -.612 -.312 -.49 -.32c.122 -.008 .367 -.024 .906 .014c.538 .039 1.37 .13 2.15 .22c.78 .09 1.51 .177 1.968 .232c.457 .054 .642 .075 .617 -.025c-.024 -.1 -.258 -.324 -.682 -.7c-.424 -.374 -1.04 -.902 -1.836 -1.64a127.717 127.717 0 0 1 -2.258 -2.153c-.417 -.408 -.46 -.458 -.293 -.415l.092 .026c.264 .076 .775 .223 1.529 .546c.753 .324 1.748 .825 2.47 1.135c.72 .31 1.166 .43 1.398 .495c.23 .065 .247 .076 -.23 -.81a714.752 714.752 0 0 0 -2.2 -4.054c-.755 -1.382 -1.3 -2.36 -1.566 -2.85c-.266 -.49 -.255 -.49 .01 -.317c.268 .175 .79 .523 1.35 .953c.56 .43 1.16 .94 1.485 1.202c.326 .26 .38 .272 .364 .076c-.016 -.196 -.103 -.6 -.347 -1.56a250.16 250.16 0 0 0 -1.018 -3.841c-.37 -1.355 -.707 -2.542 -.838 -3.123c-.13 -.582 -.054 -.561 .077 -.408c.13 .152 .315 .435 .64 .93l.236 .355l.252 .377c.21 .314 .412 .61 .542 .786c.234 .315 .234 .239 .217 -.365c-.016 -.604 -.05 -1.735 -.033 -2.793s.082 -2.043 .153 -2.614c.07 -.572 .146 -.73 .228 -.735c.082 -.005 .17 .142 .378 .582c.21 .44 .542 1.175 .773 1.787c.23 .612 .362 1.102 .427 1.282c.065 .18 .065 .048 .142 -.185c.075 -.234 .228 -.572 .375 -1.06c.147 -.486 .289 -1.121 .559 -2.04c.27 -.917 .67 -2.118 1.006 -3.107c.336 -.99 .608 -1.772 .77 -2.235c.083 -.232 .137 -.385 .176 -.487l.04 -.1a.544 .544 0 0 1 .044 -.085c.04 -.061 .068 -.037 .128 .133s.152 .486 .15 1.596c-.003 1.11 -.102 3.014 -.131 4.023c-.03 1.009 .008 1.124 .158 .965c.15 -.158 .41 -.587 1.017 -1.425a85.632 85.632 0 0 1 2.402 -3.13c.843 -1.048 1.577 -1.896 2.113 -2.44s.873 -.784 1.05 -.89c.177 -.106 .193 -.08 .084 .136c-.108 .215 -.342 .618 -.568 1.153c-.226 .536 -.443 1.206 -.857 2.255a56.87 56.87 0 0 1 -1.714 3.9c-.69 1.42 -1.463 2.83 -2.257 4.034c-.794 1.205 -1.61 2.206 -2.148 3.06c-.54 .854 -.8 1.56 -.838 2.73c-.038 1.17 .147 2.802 .39 4.08c.246 1.28 .55 2.204 .973 3.14c.422 .936 .96 1.883 1.567 2.693a11.11 11.11 0 0 0 1.97 2.035c.687 .549 1.389 .974 2.232 1.433c.843 .46 1.828 .955 2.693 1.31c.864 .358 1.61 .575 2.013 .684c.402 .109 .462 .109 .562 .057c.102 -.052 .243 -.155 .417 -.185s.38 .013 .57 .103c.19 .09 .366 .226 .52 .288c.155 .063 .29 .052 .427 -.016c.136 -.068 .272 -.193 .428 -.277a.741 .741 0 0 1 .505 -.092c.177 .034 .357 .15 .477 .198c.12 .049 .179 .033 .283 -.028c.102 -.06 .25 -.162 .91 -.41c.66 -.248 1.837 -.64 2.957 -1.188a12.616 12.616 0 0 0 3.183 -2.204a17.264 17.264 0 0 0 2.54 -3.114c.62 -.982 .936 -1.76 1.208 -2.693c.272 -.933 .5 -2.021 .637 -2.927c.136 -.906 .18 -1.63 .206 -2.33c.028 -.697 .039 -1.372 -.12 -1.966c-.157 -.592 -.483 -1.104 -.8 -1.528c-.315 -.424 -.62 -.761 -1.392 -1.98c-.772 -1.218 -2.013 -3.32 -2.872 -5.038c-.86 -1.718 -1.338 -3.057 -1.833 -4.22c-.495 -1.165 -1.007 -2.156 -1.263 -2.672c-.256 -.517 -.256 -.56 -.178 -.552h-.017v-.001zm-7.69 35.052c-.096 -.022 -.155 .027 -.202 .082c-.046 .054 -.08 .114 -.022 .24c.058 .129 .205 .325 .35 .596c.146 .27 .29 .616 .442 .837c.152 .222 .313 .32 .453 .336c.14 .017 .26 -.048 .31 -.193c.053 -.143 .037 -.367 .034 -.538c-.003 -.172 .008 -.291 .1 -.332c.09 -.041 .262 -.003 .433 .122c.17 .125 .343 .338 .54 .49c.198 .152 .42 .245 .517 .228c.096 -.018 .066 -.147 .107 -.3a.997 .997 0 0 1 .25 -.418c.096 -.09 .178 -.092 .358 .004c.18 .097 .462 .293 .646 .406c.185 .113 .275 .143 .287 .02c.012 -.12 -.052 -.392 -.076 -.548c-.023 -.156 -.004 -.197 -.091 -.322s-.28 -.335 -.456 -.406c-.175 -.07 -.333 -.002 -.44 .08c-.105 .08 -.16 .176 -.226 .273a.78 .78 0 0 1 -.301 .275c-.155 .08 -.386 .143 -.568 .082c-.183 -.06 -.315 -.242 -.462 -.395c-.147 -.154 -.308 -.28 -.467 -.267c-.16 .012 -.317 .162 -.405 .247c-.09 .084 -.107 .102 -.222 .027c-.114 -.077 -.324 -.248 -.493 -.38c-.17 -.132 -.301 -.225 -.396 -.246zm3.465 -.738c-.136 -.005 -.231 .09 -.303 .198c-.073 .107 -.122 .227 -.033 .32c.089 .092 .314 .157 .504 .166c.188 .007 .34 -.041 .388 -.13c.048 -.085 -.01 -.21 -.127 -.326c-.116 -.115 -.293 -.222 -.43 -.228zm-2.927 -.195c-.055 .019 -.114 .065 -.067 .21c.048 .146 .203 .39 .368 .516c.165 .126 .339 .13 .39 .092c.054 -.038 -.014 -.12 -.04 -.238c-.026 -.12 -.01 -.278 -.021 -.372c-.012 -.094 -.053 -.124 -.137 -.15c-.085 -.022 -.213 -.042 -.301 -.056c-.09 -.013 -.138 -.02 -.192 -.002zm1.515 -.583a1.231 1.231 0 0 0 -.297 .274a.895 .895 0 0 0 -.19 .424c-.013 .132 .033 .236 .105 .256c.072 .02 .17 -.042 .26 -.114c.09 -.072 .172 -.153 .23 -.176c.06 -.024 .099 .01 .097 .068c0 .057 -.042 .136 -.021 .23c.02 .094 .102 .203 .175 .206c.074 .002 .139 -.1 .207 -.205c.068 -.106 .139 -.212 .194 -.333c.056 -.12 .097 -.256 .07 -.33c-.027 -.071 -.123 -.08 -.202 -.04c-.08 .04 -.14 .127 -.225 .19c-.085 .067 -.19 .11 -.237 .08c-.046 -.031 -.032 -.138 -.025 -.21a.36 .36 0 0 0 -.007 -.15c-.014 -.047 -.041 -.104 -.055 -.145c-.013 -.04 -.013 -.065 -.08 -.025zm9.672 -.924c-1.63 -.055 -3.082 .043 -4.196 .222c-1.114 .178 -1.89 .436 -2.286 .606c-.395 .169 -.412 .249 -.426 .318c-.014 .068 -.026 .125 .16 .196c.186 .07 .572 .153 1.24 .257c.669 .103 1.62 .23 2.874 .29c1.254 .064 2.81 .064 4.233 .037a67.704 67.704 0 0 0 3.848 -.17c1.138 -.086 2.122 -.206 2.615 -.265c.492 -.06 .492 -.06 .432 -.1c-.06 -.036 -.18 -.113 -.731 -.274c-.553 -.16 -1.537 -.405 -2.933 -.63a40.434 40.434 0 0 0 -4.83 -.487zm-18.73 0c-1.63 .054 -3.434 .26 -4.83 .487c-1.395 .225 -2.38 .47 -2.932 .63c-.551 .16 -.671 .238 -.732 .275c-.06 .038 -.06 .038 .433 .099c.492 .06 1.477 .179 2.614 .266c1.137 .087 2.427 .142 3.849 .169c1.423 .027 2.978 .027 4.233 -.036a27.058 27.058 0 0 0 2.874 -.291c.669 -.104 1.053 -.187 1.24 -.257c.186 -.07 .174 -.128 .16 -.196c-.014 -.07 -.031 -.15 -.427 -.318c-.395 -.17 -1.171 -.428 -2.285 -.606c-1.113 -.18 -2.566 -.277 -4.196 -.222zm10.73 .545c-.132 .007 -.135 .108 -.1 .193c.036 .086 .11 .157 .244 .232c.134 .074 .33 .153 .435 .16c.105 .01 .118 -.053 .118 -.135c0 -.082 -.013 -.182 -.154 -.275c-.14 -.095 -.406 -.181 -.541 -.175h-.001zm16.21 -3.97h-.19c-.381 .004 -.954 .032 -1.86 .162c-1.15 .166 -2.835 .498 -4.181 .76c-1.347 .26 -2.353 .45 -3.123 .644c-.77 .193 -1.303 .39 -1.67 .549c-.368 .16 -.57 .285 -.762 .384c-.193 .098 -.38 .168 -.506 .234c-.128 .065 -.2 .125 -.025 .177c.175 .05 .594 .095 1.622 -.006c1.028 -.1 2.665 -.345 4.357 -.724a55.179 55.179 0 0 0 4.62 -1.27c1.18 -.38 1.794 -.631 2.042 -.761c.247 -.131 .127 -.142 -.24 -.147l-.082 -.001l-.001 -.001zm-34.96 0h-.19l-.083 .002c-.367 .005 -.487 .016 -.24 .147c.248 .13 .863 .38 2.043 .76c1.18 .382 2.927 .893 4.619 1.27a38.79 38.79 0 0 0 4.357 .725c1.028 .1 1.448 .057 1.622 .006c.173 -.052 .103 -.112 -.025 -.177c-.128 -.066 -.313 -.136 -.506 -.234c-.193 -.1 -.394 -.223 -.761 -.384c-.367 -.16 -.901 -.356 -1.67 -.55c-.77 -.192 -1.777 -.383 -3.123 -.644c-1.347 -.261 -3.033 -.593 -4.183 -.76a13.696 13.696 0 0 0 -1.86 -.16v-.001zm18.793 -1.33l.012 .538l-.053 .002a.85 .85 0 0 0 -.11 -.266a.405 .405 0 0 0 -.16 -.126a.522 .522 0 0 0 -.195 -.022l-.148 .003l.034 1.533c.002 .1 .01 .164 .02 .19c.015 .028 .039 .05 .068 .065a.26 .26 0 0 0 .135 .025l.066 -.002v.056l-1.04 .022v-.055h.066a.282 .282 0 0 0 .139 -.035a.14 .14 0 0 0 .057 -.072a.606 .606 0 0 0 .013 -.184l-.034 -1.533l-.144 .004c-.133 .002 -.23 .033 -.29 .09a.572 .572 0 0 0 -.153 .343h-.056l-.011 -.536l1.784 -.04zm.835 -.2l1.022 1.458c.097 .138 .172 .222 .223 .252a.226 .226 0 0 0 .148 .025l.01 .053l-.943 .188l-.01 -.053l.038 -.008c.076 -.014 .128 -.036 .154 -.064c.018 -.018 .024 -.043 .018 -.072a.177 .177 0 0 0 -.02 -.05a1.174 1.174 0 0 0 -.064 -.1l-.152 -.223l-.688 .137l-.044 .206a.44 .44 0 0 0 -.01 .165c.01 .055 .04 .09 .09 .107a.53 .53 0 0 0 .199 -.003l.01 .053l-.648 .13l-.011 -.054a.294 .294 0 0 0 .156 -.12c.035 -.058 .07 -.166 .108 -.328l.388 -1.695l.026 -.005zm-4.874 -.127l1.632 .386l-.131 .554l-.06 -.013a.542 .542 0 0 0 -.032 -.314a.465 .465 0 0 0 -.207 -.188a1.62 1.62 0 0 0 -.312 -.097l-.18 -.042l-.187 .794l.056 .013a.5 .5 0 0 0 .218 .012a.335 .335 0 0 0 .169 -.097a.626 .626 0 0 0 .132 -.23l.05 .01l-.23 .974l-.05 -.013c.025 -.187 .004 -.32 -.062 -.397a.459 .459 0 0 0 -.252 -.153l-.056 -.014l-.14 .593a.62 .62 0 0 0 -.028 .188c.007 .031 .024 .06 .049 .08c.035 .03 .077 .05 .123 .059l.064 .015l-.012 .053l-1.012 -.24l.013 -.052l.064 .016a.28 .28 0 0 0 .142 0a.132 .132 0 0 0 .074 -.054a.574 .574 0 0 0 .057 -.176l.302 -1.271a.668 .668 0 0 0 .029 -.19a.153 .153 0 0 0 -.048 -.08a.27 .27 0 0 0 -.123 -.058l-.064 -.015l.012 -.053zm-15.734 -2.103c-.623 -.187 -.743 -.166 -.727 -.093c.017 .074 .17 .199 .762 .59c.593 .393 1.627 1.05 2.873 1.712c1.245 .66 2.704 1.324 3.658 1.64c.955 .316 1.406 .282 1.624 .248c.217 -.036 .2 -.074 .038 -.21c-.163 -.136 -.474 -.37 -.838 -.634a10.222 10.222 0 0 0 -1.545 -.941c-.761 -.384 -1.865 -.857 -2.98 -1.292c-1.116 -.436 -2.242 -.833 -2.865 -1.02zm36.73 0c-.622 .187 -1.748 .584 -2.863 1.02c-1.115 .435 -2.22 .908 -2.981 1.292c-.762 .384 -1.18 .677 -1.545 .94c-.364 .265 -.675 .499 -.838 .635c-.163 .136 -.18 .174 .038 .21c.218 .034 .67 .068 1.624 -.25c.955 -.314 2.413 -.978 3.658 -1.64a35.283 35.283 0 0 0 2.873 -1.71c.593 -.391 .745 -.516 .76 -.59c.018 -.073 -.102 -.094 -.725 .093zm-13.25 1.3l.018 .05a.53 .53 0 0 0 -.142 .099a.177 .177 0 0 0 -.034 .103a.61 .61 0 0 0 .05 .194l.593 1.544l-.046 .018l-1.85 -1.062l.455 1.18c.04 .105 .093 .168 .157 .187a.283 .283 0 0 0 .188 -.01l.045 -.015l.02 .05l-.66 .254l-.02 -.051c.103 -.04 .166 -.09 .19 -.145c.025 -.057 .018 -.134 -.02 -.233l-.503 -1.31l-.06 -.033a.384 .384 0 0 0 -.14 -.057a.323 .323 0 0 0 -.14 .024l-.02 -.05l.658 -.253l1.358 .798l-.306 -.797c-.043 -.112 -.088 -.18 -.136 -.208c-.063 -.035 -.147 -.033 -.25 .008l-.02 -.05l.615 -.236zm-8.746 .468c.292 .123 .487 .316 .584 .577a.994 .994 0 0 1 -.042 .794c-.106 .228 -.266 .4 -.48 .51c-.285 .148 -.59 .148 -.913 -.002c-.325 -.151 -.524 -.378 -.6 -.68c-.06 -.24 -.032 -.495 .077 -.717a.994 .994 0 0 1 .585 -.542a.956 .956 0 0 1 .789 .06zm5.805 1.158l-.166 .73l.59 -.116l-.424 -.614zm-6.322 -.988c-.134 .107 -.262 .289 -.382 .548c-.143 .308 -.194 .56 -.154 .757a.408 .408 0 0 0 .245 .302c.08 .04 .17 .054 .259 .04a.603 .603 0 0 0 .308 -.188a1.66 1.66 0 0 0 .293 -.457c.11 -.24 .17 -.428 .182 -.566a.583 .583 0 0 0 -.054 -.33a.441 .441 0 0 0 -.203 -.184c-.165 -.075 -.33 -.05 -.494 .078zm10.712 -1.63l.007 2.21l.32 -.2c.11 -.062 .21 -.14 .3 -.23c.08 -.09 .13 -.198 .152 -.322a.79 .79 0 0 0 -.054 -.413l.048 -.03l.313 .65l-1.543 .967l-.006 -2.214l-.25 .158a1.64 1.64 0 0 0 -.186 .128a.555 .555 0 0 0 -.123 .166a.49 .49 0 0 0 -.047 .207c0 .074 .016 .157 .048 .25l-.046 .029l-.263 -.522l1.33 -.833zm-13.507 -.676l.743 .653l-.036 .04a.324 .324 0 0 0 -.135 -.08a.135 .135 0 0 0 -.09 .014a.57 .57 0 0 0 -.138 .129l-.408 .464l.947 .04c.132 .004 .215 -.012 .248 -.05c.024 -.027 .028 -.063 .01 -.107a.528 .528 0 0 0 -.106 -.12l.035 -.042l.584 .512l-.037 .04a.427 .427 0 0 0 -.147 -.078a2.424 2.424 0 0 0 -.34 -.03l-.744 -.033l-.053 1.119c-.01 .12 -.002 .24 .026 .357c.019 .057 .05 .105 .093 .143l-.037 .04l-.776 -.682l.035 -.041c.033 .029 .072 .05 .115 .06a.068 .068 0 0 0 .058 -.021c.027 -.032 .044 -.12 .052 -.264l.036 -.73l-.096 -.002l-.358 .407a.61 .61 0 0 0 -.114 .156a.145 .145 0 0 0 .007 .094a.36 .36 0 0 0 .103 .126l-.037 .04l-.753 -.661l.037 -.042l.049 .045a.28 .28 0 0 0 .125 .068c.03 .006 .062 .001 .09 -.014a.567 .567 0 0 0 .134 -.128l.864 -.981a.633 .633 0 0 0 .113 -.155a.142 .142 0 0 0 -.005 -.093a.251 .251 0 0 0 -.081 -.108l-.05 -.044l.037 -.041zm24.428 -4.678c-.4 .348 -1.14 .984 -1.972 1.816a41.508 41.508 0 0 0 -2.4 2.636c-.641 .775 -1 1.298 -1.248 1.7c-.247 .403 -.383 .686 -.42 .866c-.033 .179 .03 .255 .385 .057c.353 -.198 .996 -.672 1.733 -1.377a22.49 22.49 0 0 0 3.862 -4.98c.34 -.6 .46 -.892 .49 -1.01c.03 -.116 -.03 -.056 -.43 .29v.002zm-34.97 0c-.4 -.348 -.46 -.408 -.43 -.29c.03 .116 .15 .41 .49 1.008c.34 .599 .9 1.5 1.597 2.42c.697 .92 1.53 1.856 2.266 2.56c.737 .705 1.379 1.179 1.733 1.377c.353 .198 .419 .122 .384 -.057c-.036 -.18 -.172 -.463 -.42 -.866c-.247 -.402 -.606 -.925 -1.248 -1.7a41.508 41.508 0 0 0 -2.4 -2.636c-.832 -.832 -1.571 -1.468 -1.971 -1.816zm24.799 4.529l1.638 .697c.156 .066 .264 .098 .323 .098a.231 .231 0 0 0 .139 -.058l.037 .039l-.7 .659l-.038 -.04l.029 -.028c.057 -.052 .089 -.097 .097 -.135a.076 .076 0 0 0 -.023 -.07a.197 .197 0 0 0 -.044 -.034a1.198 1.198 0 0 0 -.107 -.05l-.246 -.108l-.512 .48l.07 .199a.42 .42 0 0 0 .08 .144c.039 .04 .083 .056 .134 .044a.567 .567 0 0 0 .166 -.108l.038 .04l-.482 .453l-.038 -.04a.291 .291 0 0 0 .068 -.186c0 -.067 -.027 -.178 -.081 -.334l-.568 -1.644l.02 -.018zm.309 .629l.247 .707l.438 -.411l-.685 -.296zm-15.817 -2.025l.428 .56l-.383 1.527l.678 -.52c.095 -.071 .148 -.134 .16 -.187c.017 -.072 -.01 -.15 -.077 -.237l.043 -.033l.399 .522l-.043 .032a.54 .54 0 0 0 -.136 -.108a.166 .166 0 0 0 -.108 -.003a.557 .557 0 0 0 -.171 .1l-1.314 1.007l-.032 -.04l.498 -2.073l-1.003 .768c-.09 .07 -.136 .137 -.137 .203a.29 .29 0 0 0 .062 .179l.028 .037l-.042 .033l-.43 -.56l.045 -.033c.066 .087 .13 .133 .192 .14c.06 .008 .133 -.02 .218 -.085l1.112 -.852l.017 -.064c.015 -.05 .02 -.1 .015 -.152a.344 .344 0 0 0 -.062 -.128l.043 -.032v-.001zm17.288 -.968l.044 .03a.524 .524 0 0 0 -.062 .164a.164 .164 0 0 0 .03 .103c.022 .034 .072 .08 .148 .133l1.358 .948l-.03 .04l-2.126 .155l1.036 .724c.095 .065 .173 .088 .236 .068a.288 .288 0 0 0 .152 -.113l.026 -.04l.044 .034l-.403 .577l-.044 -.03c.06 -.09 .086 -.167 .076 -.227c-.012 -.06 -.061 -.12 -.148 -.181l-1.15 -.803l-.068 .004a.365 .365 0 0 0 -.15 .032a.326 .326 0 0 0 -.102 .098l-.044 -.031l.404 -.578l1.572 -.1l-.7 -.488c-.1 -.068 -.174 -.1 -.23 -.096c-.072 .006 -.14 .055 -.201 .146l-.044 -.031l.376 -.538zm-19.956 .022c.04 .06 .092 .1 .156 .12c.063 .02 .178 .029 .344 .024l1.738 -.046l.012 .025l-1.16 1.352c-.11 .128 -.172 .22 -.19 .279a.229 .229 0 0 0 .014 .15l-.05 .022l-.415 -.867l.048 -.023l.018 .035c.033 .07 .066 .114 .1 .133c.022 .013 .05 .013 .073 0a.157 .157 0 0 0 .045 -.031a.956 .956 0 0 0 .08 -.088l.179 -.202l-.305 -.632l-.21 .007a.442 .442 0 0 0 -.162 .033a.132 .132 0 0 0 -.081 .114a.56 .56 0 0 0 .052 .19l-.05 .025l-.285 -.596l.049 -.024zm1.556 .228l-.75 .02l.262 .543l.488 -.563zm18.632 -1.185l.05 .02l-.026 .06a.27 .27 0 0 0 -.024 .14c.002 .03 .017 .058 .04 .085a.6 .6 0 0 0 .165 .085l1.208 .502a.59 .59 0 0 0 .183 .058a.158 .158 0 0 0 .087 -.035a.27 .27 0 0 0 .077 -.112l.025 -.061l.05 .02l-.4 .96l-.05 -.02l.026 -.061a.26 .26 0 0 0 .025 -.14a.132 .132 0 0 0 -.042 -.082a.6 .6 0 0 0 -.164 -.085l-1.207 -.502a.665 .665 0 0 0 -.183 -.06a.144 .144 0 0 0 -.086 .036a.262 .262 0 0 0 -.078 .112l-.026 .06l-.05 -.02l.4 -.96zm-27.412 -8.145c-.163 -.173 -.163 -.037 -.06 .338c.105 .375 .31 .99 .63 1.838c.318 .85 .747 1.93 1.277 2.984c.53 1.053 1.162 2.075 1.616 2.818c.454 .743 .732 1.206 .89 1.39c.158 .185 .196 .093 .133 -.21c-.062 -.3 -.225 -.813 -.576 -1.732c-.351 -.92 -.89 -2.247 -1.437 -3.362a27.687 27.687 0 0 0 -1.542 -2.712c-.441 -.693 -.767 -1.178 -.93 -1.352h-.001zm36.172 0c-.163 .174 -.49 .659 -.93 1.352a28.12 28.12 0 0 0 -1.543 2.712c-.546 1.115 -1.084 2.443 -1.436 3.362c-.35 .92 -.514 1.43 -.577 1.733c-.062 .302 -.023 .394 .134 .209c.158 -.184 .435 -.647 .89 -1.39c.454 -.743 1.085 -1.765 1.615 -2.818c.53 -1.053 .96 -2.135 1.278 -2.984c.319 -.848 .525 -1.463 .63 -1.838c.102 -.375 .102 -.511 -.061 -.338zm-15.798 -12.032a.54 .54 0 0 1 -.355 .507v4.35c0 .5 -.335 .927 -.79 1.06l-.817 15.088h-.418l-.817 -15.087a1.109 1.109 0 0 1 -.79 -1.06v-4.351a.541 .541 0 0 1 -.355 -.507h4.342zm-11.924 18.575l.24 .922c.057 .22 .078 .382 .063 .484a.498 .498 0 0 1 -.12 .262a.444 .444 0 0 1 -.228 .145a.366 .366 0 0 1 -.273 -.036c-.09 -.048 -.18 -.152 -.266 -.31c.006 .194 -.012 .335 -.053 .425a.428 .428 0 0 1 -.294 .246a.462 .462 0 0 1 -.405 -.08c-.151 -.114 -.262 -.307 -.333 -.58l-.256 -.977l.053 -.013a.47 .47 0 0 0 .072 .175c.02 .025 .05 .042 .082 .049a.62 .62 0 0 0 .2 -.032l1.249 -.325a.596 .596 0 0 0 .192 -.071a.142 .142 0 0 0 .047 -.085a.47 .47 0 0 0 -.023 -.186l.053 -.013zm21.437 .017l.052 .017l-.274 .92l-.052 -.014l.01 -.038c.023 -.074 .028 -.13 .017 -.165a.079 .079 0 0 0 -.056 -.05a.162 .162 0 0 0 -.054 -.007c-.01 -.001 -.05 .003 -.118 .01l-.268 .03l-.2 .674l.162 .136a.43 .43 0 0 0 .142 .085c.047 .016 .1 .005 .137 -.03a.576 .576 0 0 0 .089 -.178l.052 .016l-.188 .634l-.052 -.016a.295 .295 0 0 0 -.035 -.193a1.184 1.184 0 0 0 -.24 -.25l-1.317 -1.132l.008 -.026l1.767 -.224c.167 -.022 .277 -.047 .328 -.08a.23 .23 0 0 0 .09 -.12zm-22.227 .952l-.618 .16l-.07 .019c-.052 .013 -.087 .036 -.106 .069c-.02 .032 -.022 .075 -.01 .126c.02 .075 .056 .14 .106 .196a.35 .35 0 0 0 .184 .108a.448 .448 0 0 0 .227 -.004a.483 .483 0 0 0 .226 -.126a.34 .34 0 0 0 .104 -.21a.95 .95 0 0 0 -.043 -.338zm.869 -.226l-.76 .198a.73 .73 0 0 0 .125 .285a.35 .35 0 0 0 .165 .113a.4 .4 0 0 0 .224 -.003a.409 .409 0 0 0 .196 -.105a.337 .337 0 0 0 .086 -.177a.78 .78 0 0 0 -.036 -.31v-.001zm20.498 -.006l-.742 .09l.57 .488l.172 -.578zm5.225 -10.317a16.499 16.499 0 0 0 -.882 2.213c-.3 .977 -.51 2.108 -.628 2.963a12.8 12.8 0 0 0 -.136 1.85c.003 .418 .03 .68 .068 .769c.038 .09 .087 .008 .277 -.416c.19 -.425 .523 -1.192 .773 -2.008c.25 -.816 .419 -1.681 .557 -2.505c.14 -.824 .249 -1.607 .272 -2.151c.025 -.544 -.034 -.85 -.068 -.996c-.032 -.147 -.037 -.136 -.233 .28zm-32.33 0c-.197 -.417 -.202 -.428 -.234 -.28c-.033 .146 -.093 .45 -.068 .995c.023 .544 .132 1.327 .272 2.15c.138 .825 .307 1.69 .557 2.506c.25 .816 .582 1.583 .772 2.008c.19 .424 .24 .506 .278 .416c.038 -.09 .066 -.351 .068 -.77a12.8 12.8 0 0 0 -.136 -1.85c-.117 -.854 -.33 -1.985 -.628 -2.962c-.3 -.975 -.686 -1.797 -.882 -2.213zm3.386 -5.337c-.068 -.357 -.117 -.243 -.185 -.052a17.67 17.67 0 0 0 -.737 3.092c-.136 .945 -.228 2.12 -.255 3.14c-.028 1.02 .01 1.885 .08 2.339c.07 .453 .175 .498 .273 .283c.098 -.215 .19 -.69 .31 -1.206c.12 -.517 .267 -1.077 .375 -1.707c.11 -.632 .18 -1.333 .237 -1.992c.057 -.658 .1 -1.272 .079 -1.993c-.022 -.721 -.11 -1.548 -.177 -1.904zm25.557 0c-.068 .356 -.155 1.183 -.177 1.904c-.022 .72 .022 1.335 .08 1.993c.056 .659 .127 1.36 .236 1.992c.109 .63 .256 1.19 .375 1.707c.12 .517 .212 .99 .31 1.206c.098 .215 .2 .17 .272 -.283c.07 -.454 .11 -1.32 .082 -2.34a28.87 28.87 0 0 0 -.256 -3.14a17.494 17.494 0 0 0 -.448 -2.145c-.134 -.49 -.22 -.756 -.29 -.946c-.067 -.19 -.116 -.305 -.184 .052zm-4.514 -.45c-.36 -.478 -.401 -.535 -.358 -.27c.044 .265 .174 .852 .419 1.522s.604 1.42 1.03 2.238c.429 .819 .923 1.706 1.44 2.54c.429 .693 .881 1.37 1.358 2.03c.3 .41 .367 .449 .358 .343c-.007 -.106 -.09 -.357 -.288 -.874c-.2 -.516 -.514 -1.3 -.91 -2.22c-.393 -.92 -.866 -1.973 -1.44 -2.952c-.575 -.977 -1.25 -1.878 -1.61 -2.356v-.001zm-16.53 0c-.36 .48 -1.033 1.38 -1.608 2.357c-.574 .979 -1.047 2.033 -1.441 2.953c-.395 .92 -.71 1.703 -.91 2.22c-.198 .516 -.28 .767 -.287 .873c-.01 .106 .057 .067 .359 -.343c.3 -.41 .84 -1.194 1.357 -2.03c.51 -.83 .99 -1.676 1.439 -2.54c.427 -.818 .786 -1.57 1.03 -2.238a9.25 9.25 0 0 0 .42 -1.522c.044 -.265 0 -.208 -.358 .27zm18.135 -10.775c.19 -.07 .2 -.054 .158 .096c-.043 .15 -.141 .432 -.373 .697c-.23 .263 -.596 .508 -1.02 .646c-.424 .139 -.91 .172 -1.673 .232c-.764 .06 -1.81 .147 -2.548 .26c-.74 .115 -1.176 .256 -1.488 .5c-.313 .246 -.504 .595 -.531 .804c-.027 .21 .109 .28 .215 .267c.106 -.014 .183 -.112 .356 -.256c.175 -.145 .446 -.335 .779 -.465c.33 -.131 .723 -.202 1.14 -.265c.415 -.062 .855 -.116 1.196 -.136c.34 -.018 .58 -.002 .715 .025c.136 .027 .17 .065 -.025 .104c-.192 .038 -.61 .075 -.927 .152c-.315 .076 -.527 .19 -.846 .313c-.318 .122 -.743 .253 -.998 .394c-.255 .14 -.343 .294 -.348 .383c-.005 .09 .07 .118 .18 .107c.108 -.011 .25 -.06 .595 -.161c.345 -.1 .895 -.252 1.256 -.337c.363 -.085 .537 -.1 .59 -.085c.056 .017 -.01 .066 -.273 .234c-.265 .17 -.727 .457 -1.217 .836c-.48 .37 -.931 .776 -1.351 1.213c-.345 .367 -.52 .634 -.62 .857c-.101 .222 -.128 .402 -.2 .47c-.07 .068 -.184 .024 -.255 -.092c-.071 -.118 -.098 -.308 -.108 -.544a5.23 5.23 0 0 1 .013 -.705c.019 -.185 .05 -.272 -.04 -.283c-.093 -.011 -.31 .054 -.45 .16c-.138 .107 -.198 .254 -.266 .387s-.145 .253 -.196 .278c-.052 .024 -.08 -.047 -.074 -.156c.006 -.11 .044 -.255 .03 -.391c-.014 -.136 -.078 -.262 -.18 -.253c-.1 .008 -.236 .15 -.41 .347c-.174 .2 -.386 .455 -.547 .63c-.16 .174 -.27 .265 -.304 .236c-.036 -.03 .003 -.182 .05 -.43c.048 -.248 .105 -.59 .094 -.746c-.011 -.155 -.09 -.124 -.206 -.077a.993 .993 0 0 0 -.444 .317c-.176 .21 -.38 .568 -.482 .765c-.103 .195 -.108 .228 -.108 .143c0 -.084 .005 -.285 -.046 -.402c-.052 -.117 -.16 -.15 -.272 -.027c-.112 .123 -.226 .4 -.308 .598c-.082 .199 -.13 .319 -.185 .273c-.055 -.047 -.114 -.26 -.237 -.517c-.122 -.26 -.307 -.564 -.39 -.922c-.08 -.36 -.06 -.773 .099 -1.19c.16 -.4 .394 -.766 .688 -1.08c.237 -.244 .417 -.314 .506 -.348c.09 -.032 .09 -.027 0 .09c-.09 .118 -.27 .346 -.364 .583c-.096 .236 -.106 .48 -.06 .625c.046 .144 .15 .188 .23 .112c.083 -.077 .142 -.272 .255 -.522c.11 -.251 .274 -.555 .42 -.781c.147 -.226 .278 -.373 .376 -.443c.098 -.072 .163 -.066 .15 .007c-.014 .074 -.107 .215 -.182 .433c-.077 .218 -.136 .512 -.1 .642c.034 .13 .165 .098 .3 -.066c.137 -.163 .278 -.456 .409 -.696c.13 -.24 .25 -.424 .354 -.551c.103 -.13 .19 -.2 .233 -.213c.044 -.014 .044 .03 -.027 .196c-.07 .166 -.212 .454 -.305 .713c-.092 .258 -.136 .487 -.132 .614c.002 .128 .05 .155 .143 .06c.093 -.095 .229 -.313 .47 -.65c.243 -.337 .59 -.794 .996 -1.183c.406 -.39 .868 -.71 1.845 -.903c.977 -.193 2.467 -.26 3.443 -.327c.977 -.068 1.44 -.138 1.855 -.252c.417 -.115 .786 -.272 .977 -.344z" />
</svg>
