<svg xmlns="http://www.w3.org/2000/svg" width="48" height="48" viewBox="0 0 48 48" fill="currentColor"><path d="M19.206 11.115h3.972v7.682q0 1.142-.356 2.158a4.66 4.66 0 0 1-1.116 1.775q-.76.76-1.595 1.068-1.16.43-2.786.43-.94 0-2.053-.131-1.11-.133-1.858-.523c-.748-.39-.954-.632-1.367-1.112q-.62-.72-.848-1.485-.37-1.23-.37-2.18v-7.682h3.973v7.866q0 1.056.585 1.648.585.594 1.621.594 1.029 0 1.613-.585t.585-1.657zm14.537 10.758h-4.535L28.583 24h-4.069l4.843-12.885h4.342L38.542 24h-4.167zm-.835-2.786-1.424-4.632-1.415 4.632zm-30.2 13.618h3.557v.917H4.04v.683h2.065v.876H4.039v.846h2.29V37H2.71zm4.79 0H8.96l.762 1.321.738-1.32h1.448l-1.336 2.08L12.034 37h-1.492l-.846-1.38-.85 1.38H7.364l1.482-2.238zm8.368 2.54 1.163.352a2.15 2.15 0 0 1-.37.817 1.6 1.6 0 0 1-.625.495q-.374.168-.95.167-.7 0-1.145-.203-.442-.204-.766-.717-.322-.513-.322-1.312 0-1.067.567-1.64.567-.572 1.604-.572.811 0 1.276.328t.69 1.008l-1.172.26a1 1 0 0 0-.129-.287.76.76 0 0 0-.633-.316.78.78 0 0 0-.691.363q-.182.27-.182.847 0 .715.217.98t.61.265q.38 0 .575-.214t.283-.62m2.563-2.54h1.327v1.503h1.45v-1.503h1.334V37h-1.333v-1.737h-1.45V37h-1.328zm8.385 3.586h-1.512l-.208.709h-1.356l1.614-4.295H26.8L28.414 37h-1.39zm-.278-.929-.475-1.544-.472 1.544zm3.061-2.657h1.24l1.617 2.376v-2.376h1.25V37h-1.25l-1.609-2.358V37h-1.248zm7.899 2.74v-.894h2.05v1.83q-.589.402-1.041.547-.453.145-1.074.145-.765 0-1.246-.26c-.481-.26-.57-.433-.748-.777s-.265-.738-.265-1.183q0-.704.29-1.224t.85-.79q.437-.207 1.175-.207.712 0 1.065.129c.353.129.43.219.586.4q.233.27.35.687l-1.28.228a.7.7 0 0 0-.269-.372.84.84 0 0 0-.481-.129q-.436 0-.696.303-.26.304-.26.96 0 .698.263.996.262.3.73.299.223 0 .425-.065.203-.064.463-.22v-.404zm3.586-2.74h3.556v.917h-2.226v.683h2.065v.876h-2.065v.846h2.29V37h-3.62z"/></svg>