<svg xmlns="http://www.w3.org/2000/svg" width="48" height="48" viewBox="0 0 48 48" fill="currentColor"><path d="M14.665 28.287v-6.195c0 -1.758 -.96 -2.592 -2.571 -2.592c-1.34 0 -2.5 .781 -3.006 1.562c-.326 -.976 -1.141 -1.562 -2.427 -1.562c-1.34 0 -2.499 .817 -2.861 1.331v-1.118h-2.3v8.574h2.3v-5.77c.344 -.479 1.014 -1.011 1.81 -1.011c.942 0 1.304 .568 1.304 1.367v5.414h2.318v-5.787c.326 -.462 .996 -.994 1.811 -.994c.942 0 1.304 .568 1.304 1.367v5.414h2.318zm6.32 .213c-2.88 0 -4.618 -2.06 -4.618 -4.509c0 -2.432 1.739 -4.491 4.618 -4.491c2.897 0 4.636 2.06 4.636 4.491c0 2.45 -1.739 4.509 -4.636 4.509zm0 -2.006c1.43 0 2.245 -1.154 2.245 -2.503c0 -1.331 -.815 -2.485 -2.245 -2.485c-1.43 0 -2.227 1.154 -2.227 2.485c0 1.35 .796 2.503 2.227 2.503zm14.541 1.793v-6.053c0 -1.669 -.923 -2.734 -2.843 -2.734c-1.43 0 -2.499 .675 -3.06 1.331v-1.118h-2.3v8.574h2.3v-5.77a2.505 2.505 0 0 1 1.992 -1.011c.978 0 1.611 .408 1.611 1.598v5.183h2.3zm6.338 .213c-2.88 0 -4.618 -2.06 -4.618 -4.509c0 -2.432 1.739 -4.491 4.618 -4.491c2.898 0 4.636 2.06 4.636 4.491c0 2.45 -1.738 4.509 -4.636 4.509zm0 -2.006c1.43 0 2.246 -1.154 2.246 -2.503c0 -1.331 -.815 -2.485 -2.246 -2.485c-1.43 0 -2.227 1.154 -2.227 2.485c0 1.35 .797 2.503 2.227 2.503z"/></svg>