<svg xmlns="http://www.w3.org/2000/svg" width="48" height="48" viewBox="0 0 48 48" fill="currentColor"><path d="M24.968 0v14.757l.286.05.043.009c.135.024.254.03.272.012l.002-.004c.04-.094.543-1.812 1.19-4.045l1.022-3.526c.453-1.557.769-2.62.783-2.626.07-.072 1.702.52 1.702.621l-.002.012c-.031.162-.502 1.862-1.116 4.036l-.769 2.713c-.514 1.824-.886 3.167-.895 3.254v.003c-.01.072.122.194.305.275l.316.133 1.203-1.947.995-1.612 1.067-1.722 1.5-2.415c.484-.775.826-1.32.87-1.384.03-.05.402.124.819.39l.802.517-1.05 1.732-1.358 2.222c-2.686 4.4-3.153 5.225-3.065 5.34.082.102 1.325-1.08 5.34-5.096l5.229-5.228.682.693.693.683-6.381 6.383c-3.572 3.58-4.044 4.107-3.942 4.246l.011.013c.126.133.4 0 2.465-1.225l2.16-1.28c4.21-2.488 4.908-2.868 4.992-2.8l.002.003c.041.041.265.398.5.795l.418.734-2.202 1.294-1.718 1.009c-2.936 1.726-5.38 3.183-5.456 3.251-.102.102.132.622.275.622l.014-.001q.043-.005.151-.029l.042-.009c.165-.037.406-.097.66-.165l.505-.14c.848-.23 2.118-.57 3.443-.92l2.65-.696c1.697-.443 3.027-.784 3.032-.771.05.06.469 1.59.469 1.691 0 .051-.357.184-.785.306l-.674.178-4.554 1.218-3.974 1.083c-.327.09-.518.144-.53.15-.041.03-.052.112-.01.194.038.126.933.15 6.432.153H48v1.936h-8.35c-4.044.005-6.237.036-6.274.102-.03.049.034.134.155.186l.029.012c.217.08 2.562.671 5.299 1.33l1.061.262c1.17.29 2.055.515 2.69.688l.268.073c.724.201 1.046.315 1.046.364 0 .367-.347 1.671-.449 1.671-.132 0-9.202-2.222-10.436-2.558-.07-.02-.193.102-.275.285l-.132.326.672.398.74.426 3.497 2.038.319.186.856.496a216 216 0 0 1 3.18 1.875l.02.013.015.012c.146.115.114.195-.3.916l-.47.795-.521-.31c-.438-.258-1.473-.859-2.576-1.494l-.876-.5-1.054-.604-1.157-.666-1.346-.778-.366-.213-.32-.185-.267-.151c-.829-.468-1.062-.55-1.116-.45-.07.109 1.022 1.273 4.566 4.877l3.62 3.67c.567.574 1.038 1.05 1.373 1.385l.387.387.145.141.243.22-.642.643-.095.095c-.31.31-.593.547-.64.547-.05 0-2.404-2.334-5.227-5.198l-.732-.736-1.275-1.28-1.187-1.186c-1.216-1.212-2.015-1.995-2.044-1.995-.31 0-.062.518 1.31 2.736l.84 1.352c1.801 2.912 3.261 5.325 3.261 5.38 0 .09-1.355.876-1.498.876-.071 0-.877-1.193-1.794-2.65l-2.863-4.555-1.203-1.906-.346.173c-.225.102-.337.214-.296.306l.048.158c.169.564.743 2.52 1.325 4.517l1.09 3.75.117.405c.202.71.344 1.29.314 1.32-.019.02-.365.135-.783.267l-.266.082c-.575.175-.67.179-.71.053l-.993-3.346-.201-.675-1.28-4.349-.148-.512-.347-1.242h-.663v14.777h-1.936V33.447l-.255-.061c-.287-.07-.449-.014-.458.157v.016q0 .019-.036.16l-.068.262c-.145.556-.43 1.599-.753 2.758l-.23.811-.226.804-.566 2.027-.364 1.32-.53 1.896-.478-.142-.08-.026c-.25-.078-.583-.173-.766-.219-.225-.061-.388-.173-.388-.255 0-.06.622-2.405 1.27-4.815l.695-2.567c.372-1.37.668-2.439.736-2.646.04-.122-.05-.224-.296-.336l-.346-.173-.387.632-.181.296c-1.041 1.696-5.08 8.186-5.119 8.223-.02.02-.365-.169-.722-.38l-.177-.107c-.31-.189-.588-.371-.62-.42-.034-.06 1.587-2.813 3.33-5.661l.287-.467.125-.203.125-.202.29-.47.438-.705c.702-1.138.91-1.557.838-1.647-.061-.071-.123-.112-.143-.102l-.01.01-.089.092-2.13 2.113-5.755 5.694-.917.902L7.47 41.59l-.526-.526a13 13 0 0 1-.564-.595l-.204-.224 6.376-6.377c3.532-3.539 4.078-4.132 3.958-4.253l-.006-.005c-.099-.072-.454.077-1.92.897l-.623.35c-.626.355-1.404.8-2.374 1.357l-4.759 2.731-.245-.377-.112-.183c-.382-.629-.599-1.038-.562-1.088l.002-.003c.03-.03 1.996-1.162 4.411-2.541l1.493-.852c1.395-.8 2.545-1.472 3.102-1.805l.204-.124q.137-.084.155-.1c.174-.162.01-.723-.203-.703l-.008.002-.08.018c-.422.097-2.269.553-4.521 1.117l-.882.22c-2.776.694-5.037 1.231-5.057 1.201-.026-.025-.137-.413-.243-.812l-.035-.136c-.092-.354-.17-.684-.17-.743 0-.041 2.405-.663 5.35-1.386l1.187-.296c2.727-.684 4.163-1.08 4.163-1.151 0-.1-1.457-.131-6.874-.133H0v-1.936l9.887-.001c4.537-.005 4.889-.03 4.87-.168v-.004q-.005-.025-.005-.044l-.001-.01-.001-.009c-.027-.128-.314-.212-4.705-1.366L8.56 21.14c-2.299-.608-4.187-1.12-4.427-1.198l-.014-.004-.012-.005c-.02-.02.082-.438.224-.917l.085-.273c.174-.547.216-.593.41-.553l.045.01c.27.066 2.195.57 4.198 1.097l2.266.598c.604.16 1.15.306 1.58.422l.613.165c1.046.278 1.7.406 1.759.348a.63.63 0 0 0 .12-.313l.002-.024c.026-.208-.28-.43-4.74-3.015L6.954 15.33a70 70 0 0 1-1.013-.595c-.02-.021.18-.396.399-.77l.09-.155c.17-.283.33-.535.388-.593.06-.06 1 .428 2.678 1.397l3.032 1.753 1.434.824.885.518c.568.333 1.03.606 1.173.695l.073.045c.263.16.323.159.427.037.11-.13-.603-.886-4.852-5.137L6.166 7.847l.662-.662.662-.653 3.314 3.26 1.499 1.48 1.359 1.347.993.986.805.794c1.996 1.962 2.617 2.516 2.68 2.416.061-.102.04-.234-.071-.407l-.026-.04c-.51-.785-5.325-8.666-5.365-8.776-.051-.122 1.477-1.12 1.57-1.029l1.202 1.944 2.452 3.986c1.003 1.626 1.765 2.851 1.879 3.014l.01.014c.112.153.173.163.469.051l.041-.017c.155-.067.263-.153.247-.21l-.004-.01-.315-1.09c-.234-.814-.575-2.009-.949-3.324l-1.446-5.112-.034-.114a4 4 0 0 1-.14-.548c.028-.018.372-.128.75-.242l.323-.098c.367-.109.687-.2.691-.19l1.113 3.805 1.414 4.871.164.567c.067.232.14.446.205.613l.019.046.028.067c.064.148.117.236.145.232.061-.01.204-.02.316-.02l.017-.003c.163-.024.184-.229.186-4.975V0z"/></svg>