<svg xmlns="http://www.w3.org/2000/svg" width="48" height="48" viewBox="0 0 48 48" fill="currentColor"><path d="M28.08 7.635c1.806 0 3.004-.347 3.361-.98a.84.84 0 0 0-.15-1.027l-.132-.12.096-.127c.201-.251.086-.669-.287-1.026-.332-.322-1.026-.609-1.806-.745-.357-.064-1.277-.05-1.496.022l-.009.003c-.052.02-.01-.038.093-.13l.018-.016c.523-.453.558-.911.105-1.316l-.014-.012c-.399-.354-1.21-.626-2.312-.78l-.078-.01c-.473-.065-2.05-.09-2.549-.042l-.017.002c-.87.09-1.974.404-2.506.712l-.02.012c-.433.257-.554.423-.539.735l.015.237-.296.065c-1.193.267-2.119.79-2.385 1.338-.126.257-.141.68-.03.886a.5.5 0 0 0 .214.201l.043.019c.066.03.12.058.12.067s-.046.09-.1.18c-.268.444.06 1.073.683 1.32l.033.012c.37.139 1.111.267 1.898.327l.037.002c1.585.116 3.396-.14 4-.568.211-.151.357-.473.362-.79v-.047c.002-.196-.02-.247-.15-.362l-.01-.009c-.091-.08-.207-.146-.263-.146h-.016c-.074-.002-.067-.021.042-.181.17-.252.166-.569-.005-.916-.244-.486-.752-.821-1.582-1.038l-.217-.055c-.362-.094-.385-.117-.385-.205 0-.12.251-.181.654-.156.548.035.991.211 1.545.619l.019.013c.09.061.122.05.343-.073.211-.111.292-.131.488-.101l.033.004c.164.019.22.006.328-.082l.021-.018c.215-.18.377-.162.679.08l.03.026c.194.158.299.151.522-.044l.012-.011c.106-.096.237-.176.287-.176.14 0 .518.2.579.307.075.14.025.18-.252.206a.77.77 0 0 0-.446.187l-.067.055c-.38.302-.462.303-.795.1l-.247-.156-.186.13-.028.02c-.188.121-.244.127-.453.044l-.032-.013a.64.64 0 0 0-.317-.05l-.136.03.12.231c.124.247.16.726.072.91l-.006.011c-.035.066-.025.106.03.156.101.08.252.378.292.574.015.08.01.267-.01.412-.053.306.01.476.267.712l.03.028c.372.342 1.399.528 2.858.533m7.532-1.846-.003-.013a5 5 0 0 0-.228-.536c-.544-1.122-1.927-2.073-3.286-2.264l-.241-.03.08.191c.579 1.394 2.003 2.511 3.517 2.763l.061.009c.13.019.127.004.1-.12m-23.108.113.038-.007c1.248-.217 2.42-.956 3.11-1.958.06-.086.126-.19.19-.299l.02-.036c.158-.271.298-.555.298-.62 0-.041-.201-.02-.553.05-.86.17-1.696.654-2.365 1.368-.398.428-.745 1.006-.835 1.384l-.007.032c-.02.094-.007.105.104.086M10.54 8.36h.05l.111-.002c.516-.006.751-.032 1.057-.115a6 6 0 0 0 1.474-.664l.02-.014c.104-.075.276-.224.451-.384l.065-.06.047-.044.062-.058.172-.167.05-.05c.118-.12.2-.212.2-.234 0-.038-.332-.048-.713-.038l-.083.003-.043.002-.044.001-.088.005-.044.002c-.24.013-.471.033-.626.06a8 8 0 0 0-.89.226l-.078.028a8 8 0 0 1-.38.123c-.01 0 .045-.166.12-.367.242-.614.715-2.657.64-2.732-.01-.015-.14.066-.28.177l-.012.009c-.89.7-1.56 1.66-1.817 2.606a5 5 0 0 0-.103.832l-.003.044c-.007.128-.01.253-.011.364v.034c0 .199.013.347.042.377.021.017.275.034.596.036zm26.991.02.075-.002c.262-.011.499-.035.537-.06.06-.036.065-.41.034-.817l-.005-.064a5 5 0 0 0-.124-.809c-.126-.448-.458-1.092-.77-1.494l-.023-.03c-.388-.489-1.32-1.341-1.32-1.203 0 .17.118.76.261 1.364l.038.159c.128.526.267 1.035.354 1.254l.025.067c.042.116.07.207.066.215-.01.005-.201-.05-.428-.13a6 6 0 0 0-.792-.217l-.056-.01c-.477-.086-1.632-.104-1.632-.025 0 .06.273.338.574.603l.046.04.032.029.047.04c.158.134.313.256.433.334a4.7 4.7 0 0 0 2.628.756M21.771 5.8a.9.9 0 0 0-.353-.12.9.9 0 0 0-.352.12c-.252.156-.448.156-.704 0-.257-.161-.438-.156-.755 0l-.032.016c-.258.126-.373.113-.65-.066l-.042-.026c-.157-.101-.22-.109-.479-.08l-.045.004c-.475.038-.505-.095-.09-.417.256-.192.445-.206.718-.044l.016.01c.247.15.387.155.706.012l.039-.018c.24-.108.303-.12.47-.074l.038.01a.6.6 0 0 1 .204.086l.002.003c.015.025.09.07.171.096l.016.006c.11.037.183.02.41-.093l.017-.009c.161-.08.337-.146.388-.146s.236.07.407.156l.312.161.307-.11c.372-.126.543-.131.815-.026.206.086.262.212.141.307-.035.03-.221.066-.418.086-.221.02-.442.08-.588.156-.302.156-.418.156-.67 0m6.546.181-.338.156-.251-.156c-.302-.186-.342-.186-.68-.05l-.261.11-.327-.16-.038-.018c-.24-.112-.345-.135-.632-.138h-.141c-.269-.003-.343-.02-.367-.081-.049-.133.047-.237.301-.326l.016-.006c.32-.113.51-.111.813.001l.08.03c.281.104.337.097.592-.021.292-.13.488-.126.7.015l.043.03c.225.147.287.148.52.029l.074-.04a1.7 1.7 0 0 1 .328-.135c.05 0 .217.06.373.136l.281.141.247-.14c.306-.169.534-.177.785-.016l.072.048c.173.115.164.13.059.244-.053.058-.144.088-.284.09h-.018c-.16 0-.274.038-.464.164l-.052.034c-.281.187-.388.189-.69.038l-.044-.023a1.1 1.1 0 0 0-.295-.112c-.035 0-.221.07-.402.156m11.965 5.001c.16-.166.281-1.262.221-2.037-.085-1.107-.553-2.068-1.424-2.919l-.337-.327.035.403c.034.402.086.881.145 1.356l.022.178.012.088.013.102.021.158.035.253c.1.7.202 1.28.265 1.437l.005.015c.019.058.006.069-.045.046-1.087-.473-1.932-.64-3.215-.64h-.674l.221.232c.79.81 2.053 1.44 3.316 1.65l.069.012c.602.094 1.213.09 1.315-.007m-30.653-.095c1.072-.272 1.912-.72 2.602-1.379l.432-.417-1.072.027c-1.05.029-1.637.138-2.405.45l-.432.172.03-.156c.077-.373.16-.87.234-1.382l.03-.208c.16-1.131.277-2.27.214-2.27-.02 0-.19.165-.38.37l-.013.013c-.694.74-1.086 1.48-1.273 2.385-.12.568-.105 1.555.036 2.148l.022.097c.06.263.08.274.24.3.311.061 1.222-.02 1.735-.15m15.664 1.046c1.122-.266 1.79-.89 1.429-1.348l-.017-.02c-.079-.103-.075-.12-.009-.191.262-.257-.12-.66-.83-.88l-.051-.017c-.462-.14-.859-.183-1.792-.185h-.761c-.572-.001-.672-.019-.697-.076-.05-.125.136-.261.488-.352.463-.12 2.024-.076 2.627.07l.02.006c.549.135.92.307 1.172.533l.212.191.89-.03c1.41-.045 2.31-.221 3.05-.589.81-.397 1.202-.89 1.207-1.51v-.027c-.005-.45-.248-.908-.344-.64l-.003.009c-.05.166-.564.598-.9.76q-1.078.512-2.95.518c-1.593.005-2.738-.271-3.293-.785l-.062-.058c-.163-.151-.202-.164-.262-.108-.259.223-1.112.526-1.88.664l-.027.005c-.745.136-2.903.12-3.658-.02-1.172-.222-1.706-.574-1.892-1.248-.03-.096-.07-.176-.095-.176-.03 0-.141.085-.257.186-.11.1-.247.272-.302.372-.13.262-.126.7.01.987.161.327.684.78 1.218 1.041.466.228 1.263.475 1.57.483h.015c.085 0 .16.02.16.05 0 .026-.02.05-.044.05s-.096.076-.151.172c-.111.17-.136.407-.06.523.024.04.004.141-.051.252-.116.216-.12.322-.025.503.16.307.639.629 1.237.83 1.148.388 3.573.413 5.108.055m16.619 2.194.201-.468c.866-1.972.72-3.688-.438-5.062l-.145-.176-.03.202c-.048.314-.092.646-.131.979l-.011.095c-.097.838-.16 1.668-.16 2.201l-.006.86-.15-.09c-.51-.316-1.3-.618-2.047-.786l-.042-.009a16 16 0 0 0-.458-.095l-.055-.01-.089-.017-.088-.017c-.67-.12-1.272-.19-1.272-.138 0 .076.599.73.89.981 1.062.901 2.612 1.55 3.704 1.55zm-35.483 0c1.49 0 3.59-1.104 4.52-2.376l.144-.2-.322.035c-.966.1-2.002.322-2.671.559l-.04.014c-.4.153-.972.428-1.106.534l-.015.012c-.068.05-.078-.057-.102-.902l-.004-.087a32 32 0 0 0-.075-1.129l-.008-.088a31 31 0 0 0-.084-.87l-.141-1.203-.156.177c-1.081 1.23-1.3 2.939-.61 4.667l.037.092c.093.227.209.479.266.574l.022.04c.082.143.114.151.345.151m15.938-3.286-.018-.01a1.1 1.1 0 0 0-.377-.125 1.1 1.1 0 0 0-.363.118l-.015.008c-.307.155-.377.155-.629 0l-.072-.044c-.286-.17-.373-.192-.541-.144l-.02.006a.5.5 0 0 1-.343 0c-.221-.08-.201-.211.06-.367.277-.168.596-.176.922-.015l.069.035c.245.12.283.118.545-.008l.034-.017c.317-.156.494-.156.79 0l.028.014a1 1 0 0 0 .29.112c.045 0 .19-.056.326-.126.297-.15.504-.156.8-.025.262.12.433.126.675.025.256-.106.609-.09.991.04l.03.01c.346.123.4.25.151.373l-.017.007c-.112.048-.203.05-.471-.002l-.078-.013c-.26-.042-.303-.031-.556.088-.345.158-.53.17-.794.039l-.016-.009c-.261-.133-.378-.13-.67.011l-.056.027c-.283.135-.394.132-.675-.008M4.94 17.346c.578 0 1.504-.271 2.28-.664a6.1 6.1 0 0 0 2.45-2.219l.034-.057c.084-.14.093-.174.04-.161l-.06.016c-.092.024-.272.069-.452.117-1.475.367-3.256 1.061-3.8 1.474l-.226.176-.06-.513-.006-.05c-.05-.37-.188-1.103-.34-1.844l-.046-.22-.036-.175-.05-.23c-.153-.716-.3-1.341-.367-1.526l-.007-.016c-.036-.088-.056-.062-.195.177a4.5 4.5 0 0 0-.603 2.047c-.06 1.127.241 2.214.91 3.24l.282.428zm38.114 0h.05c.2-.002.221-.025.413-.291 1.127-1.52 1.338-3.563.538-5.163l-.107-.213c-.206-.404-.207-.313-.39.445a53 53 0 0 0-.2.875l-.051.235-.032.148-.06.281c-.163.785-.3 1.513-.342 1.852l-.065.508-.227-.16-.036-.026c-.578-.397-1.833-.915-3.095-1.275l-.417-.117-.485-.138-.108-.032-.01-.003c-.08-.025-.161-.035-.171-.02-.015.015.1.216.262.453.54.793 1.339 1.483 2.276 1.956l.043.021c.77.383 1.71.664 2.214.664M25.251 32.82l.127-.016.103-.012.041-.006.29-.038.149-.021c.292-.043.515-.082.538-.102l.007-.008.043-.051c.143-.173.573-.707 1.063-1.311l1.062-1.303.03-.705.035-.704.217-.197.067-.063c.127-.12.318-.296.46-.435l.323-.302.075-1.509.076-1.504 1.293-1.797.413-.572c.506-.701.899-1.25.96-1.341l.006-.009c.041-.062.193-.55.341-1.064l.033-.113.057-.202.04-.145c.122-.44.214-.81.198-.826-.015-.01-.539.151-1.173.363l-.257.085c-.513.17-.918.297-.94.297-.028 0-.622-1.035-1.363-2.364l-1.706-3.065-2.748-.03-.754.775-2.486-1.44-2.038-.135-.365-.024a92 92 0 0 1-1.885-.136l-.24-.026-2.555 3.389c-.255.34-.438.585-.503.675l-.02.028-.021.032c-.087.13-.09.207-.061.771l.03.644h1.208l.513.554.991-.035.19-.006c.679-.022.808-.04.831-.105l.006-.022c.029-.113.097-.454.166-.82l.017-.088.047-.25c.062-.337.115-.643.127-.752l.003-.028c.015-.144.043-.259.062-.259.014 0 .07.042.125.1l.127.132-.197 1.152-.19 1.157-.323.03-.019.002c-.195.02-.732.034-1.219.038l-.91.005-.473-.553h-1.097v.458c0 .245.024.49.058.559l.002.004.036.059.014.02.028.04c.17.248.581.796 1.03 1.379l.144.186.117.15.046.06.29.37.089.112c.44.551.633.759.7.75l.015-.003c.12-.02.948-.14 1.909-.275l1.837-.261.664.347.669.347v1.706l.453.744.453.75v3.658l1.635 3.175q.005.005.042.005h.014c.128 0 .453-.033.808-.075m-.658-.332v-.002a100 100 0 0 1-.718-1.384l-.72-1.412v-3.734l-.454-.74-.453-.734V22.63l.634-.745a19 19 0 0 0 1.247-1.656l.174-.261c.52-.785.544-.874.743-1.726l.086-.387-.312-.353-.317-.357h-1.4l-.9.634-.895.634-.036.257c-.015.146-.03.377-.03.518v.257l-.447.207a3 3 0 0 1-.406.16h-.002c-.025 0-.05.02-.05.045 0 .045.447.609.487.609.016 0 .167-.08.343-.176l.317-.181 1.031.105c.545.054 1.026.097 1.104.1l.008.001c.045 0 .08.03.08.07v.01c-.004.162-.136.17-1.137.086l-1.006-.085-.302.186-.307.186-.201.563-.029.083c-.121.341-.199.486-.255.5l-.003.001c-.172.035-.176-.065-.012-.595l.188-.607-.362-.433-.367-.428-.217.03c-.12.015-.593.222-1.107.478l-.895.448-.299.981c-.176.571-.212.637-.308.64h-.007c-.07 0-.116-.03-.116-.076 0-.038.082-.362.185-.73l.038-.138c.099-.358.163-.653.145-.672l-.076-.068c-.346-.314-.449-.367-.734-.4l-.103-.011a4 4 0 0 1-.44-.07l-.024-.004c-.102-.022-.154-.005-.264.089l-.025.021q-.255.226-.337.096c-.04-.064.05-.185.223-.294l.144-.088-.19-.207-.033-.035c-.142-.154-.207-.178-.45-.206l-.041-.005c-.342-.041-.534-.114-.534-.201 0-.083.226-.09.66-.023l.098.016c.251.041.315.082.55.308l.277.272.562.045c.328.028.359.05.63.282l.308.252 1.136-.556c.671-.326.87-.405 1.104-.43l.025-.003.034-.002c.181-.016.498-.091.71-.161l.382-.136.035-.378.017-.2c.04-.474.006-.465-.625-1.002l-.123-.102-.326-.274-1.197-1.013-.996-.85-.604-.101-.224-.033c-.226-.033-.392-.055-.4-.047a12 12 0 0 0-.13.74l-.111.719-.66-.036c-.357-.02-.659-.045-.669-.05-.009-.009.162-.245.395-.55l.219-.284c.166-.217.389-.511.62-.817l.563-.744.815-1.092.197.021c.1.01.51.04 1.03.076l2.582.175.422.035 1.339.765 1.343.77.393-.423.397-.422 1.208.01 1.212.015 1.495 2.692 1.56 2.807 1.143-.38c.387-.13.715-.235.864-.278l.04-.012q.045-.011.046-.01c.005.006-.09.348-.217.76l-.226.755-1.675 2.328c-.522.728-.937 1.312-.997 1.4l-.022.035c-.109.173-.111.26-.149 1.621l-.045 1.454-.564.534-.568.533.005.67v.674l-1.53 1.871-.488.594c-.06.074-.184.105-.732.16l-.324.032c-.375.035-.661.053-.67.045m19.02-11.588c.146-.04.875-.73 1.147-1.082.64-.843.996-1.72 1.131-2.8l.006-.048c.06-.458.012-1.144-.113-1.772l-.068-.341-.287.533c-.198.371-.417.812-.63 1.266l-.041.088-.103.221-.04.089c-.35.767-.664 1.527-.826 2.02l-.166.487-.363-.337c-.447-.417-.966-.73-1.902-1.147l-.083-.037a27 27 0 0 0-2.01-.768l-.115-.035.08.196c.443 1.061 1.71 2.324 3.005 2.989l.04.02c.467.236 1.212.488 1.338.458m-39.257.02c.156 0 1.137-.372 1.53-.579.925-.493 1.746-1.177 2.33-1.952q.085-.113.168-.24l.021-.032.02-.032.021-.032.02-.032c.232-.37.413-.745.353-.764-.03-.01-.468.142-.98.333l-.2.075-.166.064-.197.076c-.313.122-.609.242-.817.332-.894.393-1.616.874-1.91 1.268l-.153.207-.105-.353c-.232-.754-1.49-3.542-1.902-4.211l-.1-.166-.061.267-.005.022c-.03.15-.08.483-.109.766l-.002.022c-.126 1.222.201 2.465.951 3.597l.018.027c.308.453 1.147 1.337 1.275 1.337m8.232-3.155c0-.413-.488-.73-.886-.569-.146.06-.357.323-.397.499-.05.236.12.573.352.679.448.211.93-.106.93-.609m-7.285 6.45.085-.05c1.529-.901 2.516-2.104 2.887-3.524l.04-.155c.049-.2.08-.353.071-.361-.005-.01-.397.216-.86.503l-.09.055c-1.446.887-2.326 1.63-2.77 2.338l-.194.314-.11-.267c-.29-.712-1.018-1.848-2.136-3.336l-.355-.47a51 51 0 0 0-.516-.674l-.124-.149-.03.317c-.05.483-.04.8.04 1.288.31 1.814 1.437 3.444 2.958 4.297l.046.026c.391.212.435.216 1.058-.152m37.746.157.398.19.306-.16c1.002-.524 2.023-1.61 2.516-2.682.403-.87.549-1.51.549-2.385v-.299c-.003-.654-.052-.62-.693.235l-.213.285c-1.238 1.657-1.949 2.758-2.223 3.436l-.027.07c-.062.152-.12.273-.135.273-.02 0-.065-.07-.1-.161-.187-.453-.987-1.253-1.882-1.877l-.047-.032a25 25 0 0 0-.633-.414l-.101-.064-.084-.053-.156-.097-.199-.124a9 9 0 0 0-.642-.378c-.106-.04-.005.418.17.902l.013.035.02.053.015.04.015.04q.075.191.16.364c.538 1.112 1.69 2.194 2.973 2.803M5.503 28.265l.337-.221c.775-.519 1.545-1.424 1.998-2.37.325-.676.467-1.182.506-1.846l.032-.57-.12.106-.252.218c-.552.479-.866.76-1.141 1.028l-.053.05-.038.039-.064.063-.064.065-.04.04-.069.07-.035.037c-.705.73-1.092 1.304-1.329 1.953l-.003.007c-.03.07-.074.023-.263-.259l-.033-.048c-.505-.75-1.123-1.423-2.664-2.91L1 22.554l.035.418c.106 1.328.745 2.646 1.771 3.663.64.634 1.691 1.298 2.45 1.55zm37.008.005.322-.12c1.474-.56 2.822-1.722 3.502-3.03.246-.482.477-1.123.553-1.556l.017-.102c.065-.4.113-.832.089-.832h-.002c-.036.02-.585.53-1.251 1.152l-.13.122c-1.366 1.29-2.185 2.205-2.585 2.89l-.025.044c-.056.095-.109.17-.123.17s-.064-.107-.111-.24l-.01-.028c-.282-.81-1.112-1.786-2.556-3.014l-.609-.513.036.478c.074.97.362 1.838.87 2.627l.025.04c.362.559 1.278 1.494 1.706 1.746zm-10.536 2.294.165-.293c1.024-1.816 1.56-2.874 1.827-3.601l.026-.073c.189-.535.226-.801.115-.888a.48.48 0 0 0-.406-.065l-.012.005a1 1 0 0 0-.136.101l-.047.04c-.168.142-.431.377-.712.634l-.18.164-.156.144-.158.147c-.256.239-.49.461-.642.613l-.035.035a2 2 0 0 0-.143.154c-.05.081-.18.634-.302 1.23l-.024.12-.026.126-.028.145c-.11.572-.196 1.098-.183 1.202.075.543.765.584 1.057.06m-24.308.928.02-.022c.654-.71 1.162-1.71 1.414-2.813.106-.478.116-1.856.01-2.224l-.076-.241-.176.216c-.156.193-.402.536-.644.893l-.064.094-.063.094c-.194.29-.374.574-.492.776l-.043.076c-.476.83-.695 1.458-.716 2.065l-.001.058c-.007.177-.025.317-.04.317a1 1 0 0 1-.176-.156l-.025-.027c-.266-.274-.81-.73-1.42-1.198l-.119-.09-.205-.154-.118-.088-.062-.045q-.271-.199-.536-.384l-.111-.076a33 33 0 0 0-.8-.527l-.147-.093-.087-.055-.176-.112c-.476-.3-.917-.57-1.043-.634l-.01-.005q-.024-.011-.026-.01c-.01.006.04.217.11.464.267.93.84 1.846 1.62 2.591.85.81 1.876 1.33 3.016 1.522l.222.037c.61.096.672.068.964-.25m33.802.22c1.233-.187 2.345-.765 3.25-1.696a6.1 6.1 0 0 0 1.183-1.67c.042-.092.09-.21.136-.334l.024-.065.013-.036.02-.053.012-.036.025-.071.012-.036c.098-.294.171-.56.145-.582-.01-.01-.52.303-1.085.66l-.266.17c-.38.244-.752.487-.987.649l-.151.105c-.835.582-1.755 1.3-2.19 1.712l-.443.412v-.322c0-.901-.518-1.986-1.836-3.848l-.075-.105c-.22-.307-.304-.391-.323-.329-.07.242-.13.795-.13 1.253 0 1.415.542 2.854 1.49 3.972l.046.053c.276.318.321.32 1.13.197M10.61 34.373c.07-.095.337-.94.428-1.353.04-.186.065-.634.06-1.157v-.151c-.003-.627-.028-.79-.135-1.193a6 6 0 0 0-.16-.487l-.03-.076-.028-.075-.043-.107c-.129-.323-.26-.603-.293-.603-.01 0-.126.246-.257.548-.3.71-.509 1.385-.584 1.923l-.004.034c-.065.477-.036 1.384.051 1.63l.004.01c.03.081.045.157.035.167s-.226-.06-.478-.156l-.074-.028c-.984-.371-2.633-.878-3.907-1.203l-.33-.082c-.628-.156-1.11-.266-1.123-.257-.023.027.166.303.4.597l.024.03.048.06.025.03.112.133c.347.408 1.157.997 1.761 1.293.941.458 1.907.665 3.08.67h.112c.745-.002 1.215-.072 1.306-.197m32.816-1.524c.09-.089.193-.2.295-.317l.039-.045.025-.03c.276-.322.528-.662.497-.69-.014-.014-.435.077-.94.199l-.212.051-.075.019-.133.032c-.239.06-.478.122-.686.178l-.088.024c-.345.095-.754.214-1.167.34l-.121.037-.193.06-.227.071c-.557.176-1.077.35-1.413.477l-.26.099a9 9 0 0 1-.397.144c-.01 0 .007-.064.037-.146l.008-.02c.04-.1.06-.473.06-1.017l-.002-.218c-.005-.387-.017-.596-.054-.794l-.005-.027a3 3 0 0 0-.045-.19l-.01-.034a9 9 0 0 0-.24-.728l-.02-.049-.036-.098-.039-.098c-.179-.456-.363-.858-.41-.858-.014 0-.105.166-.195.367-.628 1.355-.684 2.917-.162 4.408l.016.045c.068.196.165.378.217.41l.004.003c.05.03.378.075.725.106 1.987.176 3.96-.473 5.207-1.711m-32.48 3.74h.055l.104-.001.137-.001c.621-.006.82-.026 1.172-.116l.14-.037c.596-.16 1.167-.387 1.463-.576l.246-.151-.035-.584c-.09-1.53-.515-2.595-1.426-3.583l-.355-.382-.035.141a5 5 0 0 0-.02.585v.06c.001.206.004.443.01.688l.003.133c.038 1.388.14 1.893.45 2.31l.135.179-.16-.02-.036-.004a20 20 0 0 0-.813-.037l-.137-.004h-.046c-1.243-.04-2.873.055-3.885.23l-.322.051.423.247c.493.292 1.243.588 1.882.76l.057.014c.31.077.493.097.993.097m27.688-.283.048-.016c.488-.16 1.242-.513 1.55-.72l.14-.1-.14-.03-.055-.01c-.895-.174-2.893-.288-4.144-.238l-.16.006c-.249.01-.467.014-.612.014h-.06a.4.4 0 0 1-.122-.008c0-.02.03-.06.07-.091s.116-.171.177-.307l.012-.03c.2-.479.25-.867.28-2.159l.007-.376c.009-.527.01-.944.002-.997l-.002-.013c-.021-.084-.065-.055-.337.226l-.013.013c-.946.976-1.424 2.174-1.464 3.663l-.015.549.241.16c.574.378 1.706.71 2.577.76.66.035 1.29-.056 2.02-.296m-2.856 1.414.222-.076-.725-.362c-1.112-.549-2.244-.946-3.29-1.153l-.458-.09.271-.352c.338-.443.705-1.193.936-1.912q.052-.162.105-.347l.025-.086.028-.1.026-.094c.035-.126.068-.25.096-.361l.012-.052.02-.08c.046-.194.072-.328.06-.34-.01-.01-.119.071-.254.177l-.012.01c-1.006.8-1.972 2.017-2.49 3.144l-.167.368h-.256c-1.143.005-3.07.573-4.141 1.217l-.267.161.317.327.413-.226c.93-.502 2.35-.867 3.627-.934l.087-.004c.254-.011.296.01.688.269.886.583 1.54.865 2.4 1.031.813.159 2.027.098 2.727-.135m-18.33-.94.094-.063c.24-.161.292-.17.555-.16 1.304.06 2.768.438 3.734.971l.367.196.146-.16.146-.167-.232-.146c-.925-.578-2.722-1.132-3.974-1.217l-.458-.035-.297-.61a8.8 8.8 0 0 0-1.538-2.132l-.034-.034c-.085-.085-.18-.175-.276-.264l-.074-.068c-.286-.261-.575-.502-.69-.57-.032-.02-.004.166.072.462l.042.16c.379 1.427.728 2.209 1.29 2.88l.068.084c.108.137.109.155.034.157h-.021c-.126 0-.602.112-1.095.25l-.073.02-.05.014c-.254.072-.506.15-.71.22l-.106.036c-1.15.408-2.405 1.002-2.263 1.08.09.051.47.131.858.187l.046.006q.175.025.338.04l.046.004c1.405.124 2.74-.254 4.056-1.14m6.109 9.392.437-.206.222.11.027.015c.239.12.723.315 1.2.49l.064.024.086.031c.227.082.447.158.63.216 1.731.533 3.291.775 5.384.82 2.758.06 5.057-.277 7.598-1.102l.107-.035c1.676-.552 2.79-1.108 3.707-1.842l.412-.332v-1.736l.418-.06c.77-.121 1.791-.523 2.531-.996l.287-.187-.044-3.846c-.012-.937-.026-1.596-.037-1.603-.009-.009-.894.106-2.043.266l-3.562.499-.67.085v1.173l-.311.181c-.896.513-2.486 1.213-3.517 1.54-2.38.76-4.906.96-7.316.583-1.727-.268-3.582-.956-4.99-1.852l-.047-.03c-.095-.06-.14-.045-.478.167-1.308.815-3.044 1.413-4.926 1.705-.986.151-3.456.166-4.402.025a18.8 18.8 0 0 1-6.114-2.052l-.427-.237-.019-.734c-.01-.374-.031-.48-.08-.484h-.007a224 224 0 0 1-2.955-.397l-1.89-.263c-.615-.086-1.08-.153-1.218-.175l-.186-.03-.04 2.794c-.01.72-.016 1.385-.016 1.834v.239c.001.152.003.259.005.31l.015.333.438.261c.75.453 1.781.825 2.536.91l.272.036v1.741l.317.262c1.323 1.107 4.13 2.204 6.928 2.712 4.04.73 8.564.282 11.674-1.163"/></svg>