<svg xmlns="http://www.w3.org/2000/svg" width="48" height="48" viewBox="0 0 48 48" fill="currentColor"><path d="m24.857 24.45 1.1-3.736.21-.71.233-.788.585-1.995c.257-.883.445-1.53.455-1.573q.005-.024-.07-.103l-.014-.014c-.183-.18-.675-.564-1.606-1.26l-.907-.668a24 24 0 0 0-.837-.603h-.002c-.046.023-.797.575-1.689 1.241l-.6.454a32 32 0 0 0-1.101.857l-.004.005-.003.003c-.03.047.112.626.396 1.584l.184.614 1.2 4.058.313 1.056.84 2.814c.267.89.441 1.464.454 1.484.024.04.408-1.183.863-2.72m-.077 3.364c.012.006 1.017-.763 2.24-1.714l2.744-2.12.567-.434 1.921-1.484.834-.644-.473-.526-.228-.267c-.22-.26-.534-.632-.865-1.03l-.257-.309-.197-.238-.102-.125-.89-1.07a15 15 0 0 0-.305-.36 5 5 0 0 0-.186.356l-.065.13c-.3.608-2.955 6.094-4.241 8.759l-.25.527c-.126.269-.217.467-.24.529l-.004.008-.002.007zm-1.56 0c.006-.012-.1-.266-.249-.574l-.034-.074c-.638-1.364-4.625-9.585-4.665-9.626-.022-.028-.129.065-.25.21l-.104.125c-.279.335-.675.803-1.075 1.272l-.358.417-.7.81-.15.17-.127.144-.243.27c-.16.183-.29.335-.343.404l-.008.01a.1.1 0 0 0-.017.028c0 .018 1.158.922 2.583 2.01l2.055 1.578 2.095 1.614.495.385c.626.485 1.085.832 1.095.827m12.171 1.365v-.002a86 86 0 0 0-.52-2.35l-.485-2.138c-.046-.2-.075-.328-.083-.357-.017-.089-.047-.16-.07-.16l-.079.038c-.336.161-1.707.83-3.326 1.624l-.615.303-3.677 1.81-.16.08-.146.071-.14.07-.233.115c-.332.167-.553.287-.545.3.012.011 1.38.098 3.047.197l5.59.33c.75.043 1.328.07 1.427.07zm-20.283-.132 6.83-.363c.415-.024.77-.056.809-.072.041-.024-.828-.479-2.04-1.07l-3.325-1.612a389 389 0 0 0-3.349-1.61l-.301-.136-.603 2.72c-.276 1.253-.484 2.247-.473 2.258.009.008 1.016-.04 2.452-.115m8.726.57-3.665.207-.686.039c-4.24.239-10.557.566-14.528.753l-3.314.157c-.56.027-.961.048-1.091.056l-.55.035v1.289h48v-1.3h-.297a74 74 0 0 1-1.555-.072l-3.646-.19-3.605-.182c-2.944-.148-5.906-.307-8.808-.473l-.865-.05c-2.602-.146-5.193-.274-5.39-.27"/></svg>