<svg xmlns="http://www.w3.org/2000/svg" width="48" height="48" viewBox="0 0 48 48" fill="currentColor"><path d="M23.94 11.015c.144 .01 .287 .033 .43 .056c.38 .06 .754 .155 1.066 .381c.241 .176 .39 .437 .454 .74c.056 .273 .13 .54 .19 .81c.079 .356 .158 .714 .231 1.071c.1 .485 .2 .972 .335 1.45c.1 .352 .224 .7 .433 1.009c.044 .066 .056 .058 .09 -.004c.288 -.508 .576 -1.01 .866 -1.514c.329 -.57 .654 -1.142 .988 -1.706c.157 -.265 .387 -.472 .625 -.667c.208 -.17 .436 -.313 .686 -.42c.205 -.087 .408 -.164 .638 -.172c.23 -.007 .458 -.048 .688 -.071c.095 -.01 .191 -.012 .286 -.016c.153 -.004 .305 -.025 .46 -.025c.313 -.002 .624 -.04 .937 -.042c.215 -.002 .433 -.022 .648 -.035c.236 -.016 .472 -.021 .706 -.04c.16 -.014 .318 -.003 .479 -.016c.394 -.031 .789 -.047 1.185 -.062c.156 -.006 .313 -.006 .47 -.014c.284 -.013 .568 -.017 .85 -.042c.116 -.01 .23 -.006 .344 -.016c.26 -.025 .52 -.005 .78 -.02c.314 -.022 .631 -.026 .946 -.04c.315 -.015 .632 -.019 .947 -.04c.29 -.02 .58 -.023 .87 -.037c.29 -.013 .58 -.02 .87 -.037c.412 -.025 .826 -.025 1.237 -.04l1.054 -.04c.152 -.007 .307 0 .46 -.016c.286 -.03 .576 -.002 .86 -.04c.116 -.016 .23 -.016 .344 -.016c.2 .004 .394 -.043 .607 -.014c-.08 .251 -.141 .507 -.346 .7c-.201 .19 -.39 .387 -.651 .499c-.223 .094 -.45 .166 -.692 .185c-.047 .004 -.056 .03 -.07 .06c-.16 .352 -.445 .576 -.77 .762c-.1 .058 -.21 .062 -.322 .065c-.087 .004 -.176 .01 -.261 -.001c-.12 -.018 -.184 .044 -.232 .137c-.184 .35 -.468 .574 -.845 .684c-.093 .027 -.19 .02 -.282 .027c-.159 .012 -.319 .027 -.477 .025c-.229 -.004 -.455 .033 -.683 .023c-.058 -.001 -.118 .024 -.18 .018c-.036 -.002 -.042 .03 -.056 .056a1.352 1.352 0 0 1 -.835 .698c-.127 .036 -.183 .133 -.251 .22c-.21 .265 -.487 .416 -.81 .493c-.093 .023 -.187 .039 -.28 .056c-.13 -.133 -.263 -.26 -.396 -.42c.41 -.003 .806 .032 1.078 -.34c-.02 -.003 -.03 -.01 -.042 -.01a5.927 5.927 0 0 0 -.764 .022c-.133 .014 -.269 .025 -.402 .039c-.046 .005 -.102 .011 -.04 .077c.023 .023 .019 .046 .017 .077c-.018 .201 -.103 .397 -.064 .605c-.025 .141 -.073 .263 -.083 .4c-.008 .136 -.039 .27 -.068 .404c-.058 .263 -.1 .528 -.203 .78l-.38 .937c-.337 .566 -.76 1.069 -1.185 1.568c-.153 .177 -.321 .344 -.482 .514c-.025 .025 -.048 .044 -.021 .089c.201 .344 .375 .701 .564 1.051c.321 .594 .648 1.183 .923 1.8c.048 .11 .086 .224 .133 .332c.126 .286 .238 .578 .3 .886c.07 .344 .12 .692 .199 1.032c.06 .26 .085 .524 .112 .787c.021 .2 .007 .4 -.018 .603c-.021 .172 -.034 .346 -.073 .514c-.07 .315 -.18 .613 -.31 .91c-.096 .223 -.214 .431 -.322 .644c-.12 .232 -.296 .433 -.478 .622c-.309 .325 -.628 .636 -1.018 .87l-.374 .232a2.474 2.474 0 0 1 -.392 .197c-.626 .238 -1.254 .466 -1.915 .592l-.459 .091c-.23 .044 -.46 .079 -.695 .08c-.016 0 -.033 -.001 -.041 .018c-.226 -.052 -.458 -.035 -.688 -.038c-.01 0 -.021 .011 -.031 .017c-.106 -.05 -.188 .023 -.273 .06c-.641 .272 -1.285 .533 -1.952 .74a18.38 18.38 0 0 1 -1.291 .342c-.284 .066 -.57 .118 -.86 .155c-.265 .035 -.53 .08 -.797 .104c-.168 .016 -.338 .018 -.516 .07l.346 .448l.673 .884l.839 1.092c.079 .102 .131 .207 .108 .352c-.033 .195 -.201 .296 -.367 .32c-.054 .008 -.11 0 -.165 .003c-.027 0 -.038 -.008 -.058 -.031c-.27 -.33 -.537 -.667 -.794 -1.01c-.286 -.378 -.584 -.75 -.872 -1.126c-.216 -.284 -.429 -.572 -.644 -.859c-.003 -.005 -.003 -.013 -.007 -.017c-.04 -.039 -.333 -.002 -.37 .045c-.241 .29 -.47 .591 -.697 .89c-.155 .206 -.308 .412 -.464 .617c-.164 .215 -.342 .42 -.503 .638c-.19 .255 -.386 .505 -.58 .756c-.056 .073 -.23 .106 -.355 .071a.375 .375 0 0 1 -.213 -.578c.209 -.29 .425 -.574 .642 -.86c.243 -.322 .485 -.65 .736 -.966c.153 -.192 .294 -.393 .447 -.584c.013 -.017 .035 -.03 .027 -.058c-.012 -.037 -.043 -.015 -.066 -.02c-.38 -.051 -.761 -.094 -1.142 -.15a14.14 14.14 0 0 1 -1.53 -.298a15.135 15.135 0 0 1 -1.63 -.527a29.4 29.4 0 0 1 -1.197 -.497a1.366 1.366 0 0 0 -.509 .035c-.025 -.024 -.056 -.014 -.083 -.012c-.23 .002 -.46 0 -.688 -.039c-.218 -.038 -.439 -.07 -.653 -.118c-.673 -.148 -1.336 -.322 -1.964 -.614a5.49 5.49 0 0 1 -1.548 -1.032c-.103 -.101 -.196 -.211 -.296 -.314a3.068 3.068 0 0 1 -.53 -.73c-.228 -.435 -.425 -.886 -.52 -1.375a4.964 4.964 0 0 1 -.096 -1.196c.013 -.296 .056 -.586 .106 -.874c.068 -.38 .155 -.758 .265 -1.129c.123 -.41 .263 -.81 .466 -1.189c.127 -.235 .253 -.473 .367 -.717c.31 -.657 .68 -1.277 1.073 -1.886c.077 -.12 .075 -.118 -.018 -.211a19.124 19.124 0 0 1 -.984 -1.036a6.28 6.28 0 0 1 -.732 -1.013c-.014 -.037 -.023 -.073 -.039 -.108c-.15 -.371 -.301 -.744 -.417 -1.13a8.462 8.462 0 0 1 -.217 -.975c-.052 -.292 -.1 -.586 -.08 -.884v-.01c-.034 -.181 0 -.171 -.183 -.181a13.831 13.831 0 0 1 -.489 -.03c-.218 -.018 -.437 .009 -.653 -.026a.045 .045 0 0 0 -.05 .021c-.016 .023 .007 .033 .017 .049c.04 .058 .098 .1 .156 .139c.124 .085 .244 .172 .414 .154c.14 -.015 .282 .004 .423 .01c.02 0 .043 -.006 .05 .016c.005 .011 -.009 .04 -.015 .04c-.07 .004 -.077 .072 -.116 .108c-.102 .085 -.162 .211 -.272 .29c-.313 -.038 -.594 -.147 -.814 -.384c-.099 -.107 -.213 -.203 -.29 -.329a.062 .062 0 0 0 -.039 -.023c-.38 -.072 -.638 -.321 -.873 -.601a.096 .096 0 0 1 -.016 -.035c-.029 -.099 -.093 -.12 -.195 -.124c-.277 -.01 -.555 -.02 -.831 -.038l-.379 -.02a2.265 2.265 0 0 1 -.375 -.05c-.182 -.043 -.311 -.168 -.456 -.267c-.174 -.118 -.275 -.3 -.377 -.475c-.022 -.039 -.043 -.053 -.087 -.058c-.116 -.016 -.234 -.008 -.348 -.008c-.147 -.002 -.257 -.07 -.373 -.137a3.289 3.289 0 0 1 -.445 -.296a.942 .942 0 0 1 -.265 -.375c-.017 -.04 -.038 -.07 -.096 -.072a1.843 1.843 0 0 1 -1.036 -.39a2.213 2.213 0 0 1 -.58 -.682c-.05 -.09 -.08 -.188 -.124 -.298c.095 0 .188 -.01 .276 .002c.198 .027 .397 .002 .594 .015c.209 .014 .417 .006 .626 .024c.358 .03 .72 .01 1.077 .036c.363 .027 .729 .027 1.092 .045c.166 .007 .332 .004 .499 .015c.342 .023 .684 .027 1.024 .043c.163 .007 .327 .004 .49 .015c.337 .023 .676 .03 1.014 .04c.319 .012 .638 .026 .957 .04l.957 .038l.937 .039c.306 .011 .613 .027 .918 .038c.294 .012 .586 .027 .88 .04l.88 .038c.274 .011 .546 .027 .82 .038c.268 .012 .536 .027 .803 .039l.735 .039c.216 .01 .43 .029 .647 .038c.267 .012 .534 .03 .798 .058c.246 .03 .48 .112 .704 .215a3.5 3.5 0 0 1 .883 .584c.287 .253 .505 .55 .687 .881c.276 .51 .56 1.015 .852 1.516c.203 .348 .394 .7 .592 1.051c.054 .099 .112 .195 .166 .294c.029 .052 .046 .046 .08 0c.123 -.182 .202 -.383 .276 -.59c.104 -.301 .249 -.59 .347 -.893c.093 -.288 .165 -.583 .159 -.883c-.008 -.439 -.143 -.845 -.437 -1.173c-.17 -.192 -.41 -.263 -.67 -.246c-.144 .01 -.287 .023 -.43 .039a.532 .532 0 0 0 -.415 .354c-.058 -.062 -.066 -.082 -.05 -.232c.03 -.314 .152 -.59 .336 -.841c.127 -.176 .28 -.325 .477 -.416c.228 -.104 .466 -.131 .713 -.077c.068 .015 .138 .02 .205 .029c.062 .01 .095 -.01 .116 -.078c.068 -.222 .24 -.353 .428 -.47c.28 -.171 .59 -.146 .896 -.125zm-.306 22.489l-.504 .653c-.244 .311 -.49 .62 -.733 .932c-.207 .264 -.41 .531 -.613 .798c-.037 .046 -.07 .1 -.04 .158c.029 .058 .092 .045 .145 .053c.044 .003 .073 -.008 .102 -.049c.46 -.609 .922 -1.214 1.386 -1.819l.547 -.719c.015 -.02 .054 -.038 .008 -.067c-.072 -.043 -.248 -.006 -.298 .06zm1.336 -.076c.013 .02 .027 .04 .04 .062c.294 .4 .586 .804 .886 1.202c.348 .462 .682 .934 1.078 1.36c.068 .073 .126 .048 .184 .007c.073 -.05 .01 -.095 -.02 -.135c-.585 -.772 -1.175 -1.539 -1.753 -2.316c-.11 -.149 -.214 -.25 -.415 -.18zm-8.167 -5.953c-.039 .058 -.085 .11 -.13 .164c-.212 .257 -.427 .512 -.636 .773l-.94 1.187c-.152 .191 -.154 .19 .03 .356a.77 .77 0 0 0 .042 .038c.358 .267 .718 .528 1.1 .758c.33 .2 .658 .408 1 .588c.174 .09 .355 .168 .531 .255c.313 .154 .632 .295 .953 .425a15.327 15.327 0 0 0 2.753 .814c.203 .037 .408 .062 .613 .081c.21 .02 .42 .05 .634 .073c.148 .016 .297 .024 .446 .043c.26 .035 .518 .056 .78 .071c.198 .012 .4 0 .598 -.013c.238 -.017 .474 -.006 .708 -.006v-.02c.09 0 .18 .009 .27 -.001c.252 -.023 .501 -.047 .75 -.08c.364 -.048 .725 -.102 1.087 -.164c.647 -.112 1.276 -.3 1.898 -.5a14.852 14.852 0 0 0 3.14 -1.433c.479 -.29 .933 -.618 1.385 -.945c.155 -.112 .15 -.158 .021 -.305c-.177 -.203 -.348 -.414 -.522 -.62l-.562 -.675c-.132 -.157 -.261 -.314 -.394 -.468c-.105 -.12 -.201 -.248 -.315 -.36c-.037 -.035 -.062 -.044 -.105 -.007c-.058 .05 -.122 .09 -.185 .131c-.271 .178 -.544 .354 -.82 .526c-.21 .131 -.412 .282 -.634 .392c-.367 .186 -.744 .352 -1.12 .524c-.075 .035 -.1 .083 -.104 .162a.446 .446 0 0 1 -.127 .31c-.018 .017 -.03 .036 -.06 .011c-.081 -.067 -.164 -.135 -.23 -.216c-.037 -.047 -.066 -.04 -.108 -.027c-.406 .125 -.816 .24 -1.23 .346c-.205 .052 -.41 .102 -.616 .147c-.238 .052 -.482 .077 -.721 .12c-.178 .03 -.362 .028 -.544 .038c-.336 .017 -.672 .035 -1.007 .039c-.292 .004 -.583 .021 -.873 -.014c-.186 -.023 -.373 -.038 -.559 -.064c-.21 -.027 -.42 -.06 -.63 -.09c-.141 -.022 -.284 -.035 -.422 -.068c-.166 -.039 -.326 -.099 -.49 -.143c-.36 -.097 -.723 -.174 -1.071 -.306c-.047 -.017 -.11 -.015 -.134 .024c-.046 .075 -.123 .11 -.18 .17c-.056 .058 -.116 .046 -.156 -.023a.752 .752 0 0 1 -.08 -.28c-.005 -.043 -.003 -.092 -.052 -.113c-.154 -.07 -.309 -.137 -.463 -.209c-.142 -.063 -.283 -.133 -.426 -.195c-.118 -.052 -.207 -.145 -.326 -.195c-.267 -.112 -.505 -.276 -.752 -.421c-.06 -.035 -.103 -.1 -.163 -.13c-.096 -.042 -.178 -.106 -.263 -.162c-.158 -.107 -.307 -.225 -.46 -.337c-.05 -.036 -.09 -.03 -.13 .024zm9.95 4.975c-.036 .1 -.065 .21 -.171 .267a2.686 2.686 0 0 1 -.51 .199c-.06 .017 -.074 -.006 -.058 -.056c.036 -.122 .079 -.228 .24 -.25c.154 -.019 .299 -.094 .434 -.177c.048 -.03 .066 -.024 .066 .017zm1.047 -2.49c.04 0 .067 .039 .08 .074a1.2 1.2 0 0 1 .097 .355c.049 .45 -.112 .837 -.386 1.182c-.269 .34 -.638 .527 -1.04 .664a3.705 3.705 0 0 1 -.804 .173a1.96 1.96 0 0 1 -.586 -.026a.7 .7 0 0 1 -.524 -.402l-.038 -.102l-.056 -.215c-.016 -.052 -.028 -.112 -.095 -.118c-.068 -.005 -.095 .053 -.116 .099c-.058 .13 -.08 .27 -.081 .41c-.004 .154 -.01 .307 -.04 .458l-.003 .02c-.023 .12 -.097 .21 -.166 .21c-.083 -.002 -.193 -.108 -.217 -.213c-.054 -.241 -.027 -.487 -.013 -.728a.613 .613 0 0 1 .145 -.38c-.03 .128 -.058 .254 -.085 .382c-.033 .15 -.027 .303 -.006 .456a.194 .194 0 0 0 .064 .116c.079 .073 .147 .063 .181 -.037a2.18 2.18 0 0 0 .086 -.416c.023 -.19 .03 -.384 .131 -.556c.013 -.025 .027 -.053 .044 -.074c.095 -.114 .16 -.106 .223 .027c.038 .085 .054 .176 .071 .267c.052 .282 .24 .418 .5 .474c.125 .027 .252 .044 .378 .058c.116 .013 .228 -.024 .34 -.04a3.44 3.44 0 0 0 .858 -.227c.456 -.193 .853 -.458 1.075 -.928c.08 -.168 .054 -.323 -.002 -.483c-.006 -.02 -.015 -.047 -.046 -.037c-.03 .008 -.035 .037 -.039 .06l-.07 .336c-.054 -.065 -.01 -.116 -.005 -.162c.017 -.2 .038 -.398 .094 -.59c.01 -.03 -.002 -.087 .05 -.087zm-4.63 .124c.162 .464 .226 .926 .089 1.39c-.1 .336 -.238 .665 -.466 .937c-.168 .201 -.384 .335 -.665 .321a.452 .452 0 0 1 -.199 -.048c-.207 -.12 -.43 -.205 -.628 -.34c-.016 -.012 -.03 -.025 -.058 -.05c.098 .007 .16 .061 .232 .086c.415 .147 .821 .159 1.204 -.088c.195 -.126 .325 -.312 .41 -.526c.083 -.209 .116 -.43 .112 -.652c-.002 -.154 -.033 -.307 -.054 -.46c-.004 -.021 -.014 -.056 -.04 -.058c-.034 -.004 -.034 .03 -.043 .054c-.074 .22 -.112 .45 -.17 .675c-.031 .12 -.105 .215 -.163 .338a.192 .192 0 0 1 .02 -.162c.12 -.213 .131 -.452 .183 -.682l.063 -.335a.97 .97 0 0 1 .051 -.162c.035 -.083 .082 -.16 .122 -.238zm8.05 -1.512c-.018 .134 .076 .211 .119 .312a.965 .965 0 0 1 .073 .43c-.003 .082 .026 .09 .087 .055a.897 .897 0 0 1 .14 -.062c.087 -.03 .112 .015 .123 .083a.246 .246 0 0 1 0 .106c-.067 .23 -.133 .457 -.346 .611c-.16 .116 -.344 .201 -.48 .35c-.018 .021 -.063 .037 -.046 .074c.008 .017 .023 .02 .04 .02l.05 -.001c.063 .008 .117 -.027 .173 -.045c.043 -.013 .056 -.005 .05 .033c-.019 .12 -.025 .234 -.17 .3c-.164 .073 -.237 .251 -.346 .387c-.088 .112 -.168 .23 -.342 .216c-.143 -.012 -.272 -.147 -.28 -.311a2.991 2.991 0 0 1 0 -.232c.002 -.05 -.013 -.058 -.062 -.047a.63 .63 0 0 0 -.253 .142c-.01 .007 -.015 .025 -.025 .029c-.164 .05 -.198 .172 -.217 .3l-.017 .129c-.05 .301 -.296 .603 -.607 .653a.332 .332 0 0 1 -.346 -.205c-.008 -.017 -.008 -.04 -.021 -.052c-.022 -.023 .002 -.073 -.045 -.073c-.035 0 -.035 .04 -.048 .063a.915 .915 0 0 1 -.535 .42a1.7 1.7 0 0 1 -.853 .033c-.012 -.002 -.023 -.008 -.033 -.012v-.025c.112 0 .224 .006 .335 -.002c.212 -.016 .406 -.089 .593 -.191c.373 -.203 .499 -.551 .57 -.936c.031 -.168 .064 -.336 .116 -.5a.342 .342 0 0 1 .085 -.148c.064 -.06 .091 -.048 .132 .033c.038 .078 -.014 .143 -.006 .215c0 .006 -.01 .017 -.017 .017c-.138 .025 -.169 .141 -.186 .248c-.025 .156 -.05 .31 -.08 .467c-.05 .26 .204 .45 .45 .345a.788 .788 0 0 0 .444 -.493c.03 -.093 -.01 -.132 -.105 -.109c-.125 .031 -.228 -.05 -.232 -.177a.8 .8 0 0 1 .037 -.244c.021 -.07 .066 -.083 .126 -.068c.066 .018 .125 .05 .166 .105c.046 .06 .097 .048 .153 .025c.056 -.021 .06 -.066 .06 -.118a1.12 1.12 0 0 1 .092 -.481c.028 -.06 .07 -.124 .118 -.124c.064 0 .126 .048 .16 .118c.041 .087 .04 .176 .034 .267c-.002 .015 .002 .029 .004 .046c.17 -.095 .338 -.332 .262 -.603a1.918 1.918 0 0 0 -.131 -.365a.585 .585 0 0 0 -.296 -.271c-.062 -.029 -.079 .015 -.098 .044c-.093 .126 -.091 .273 -.09 .42c.003 .07 0 .137 -.001 .207c0 .025 -.012 .056 -.035 .062c-.033 .005 -.033 -.028 -.043 -.05c-.044 -.105 -.003 -.21 .006 -.312c.012 -.12 .04 -.238 .052 -.356a.562 .562 0 0 1 .09 -.237c.048 -.083 .121 -.091 .231 -.045c.21 .09 .32 .253 .38 .468c.12 .431 .065 .833 -.179 1.206c-.06 .093 -.079 .226 -.025 .321c.087 .15 .292 .186 .426 .072c.07 -.058 .117 -.134 .168 -.207a.06 .06 0 0 0 .007 -.054c-.056 -.194 .016 -.352 .126 -.507c.143 -.203 .363 -.311 .549 -.464c.06 -.048 .12 -.094 .178 -.143c.027 -.023 .035 -.054 .015 -.087c-.019 -.035 -.048 -.017 -.075 -.01c-.149 .047 -.251 .163 -.379 .24c-.062 .039 -.116 .087 -.182 .122c-.07 .037 -.073 -.012 -.065 -.048c.027 -.13 .058 -.261 .195 -.327c.066 -.03 .106 -.09 .155 -.14a.122 .122 0 0 0 .025 -.134c-.037 -.087 -.056 -.182 -.138 -.254c-.054 .112 -.003 .25 -.092 .356c-.05 -.07 .003 -.13 .002 -.19c-.006 -.18 -.037 -.36 .019 -.539c.017 -.058 .037 -.114 .11 -.15zm-8.947 3.15c-.08 .206 -.247 .287 -.448 .312c-.095 .012 -.192 .002 -.288 .004c-.049 0 -.064 -.023 -.049 -.065c.026 -.08 .155 -.178 .242 -.18c.176 -.004 .352 .011 .514 -.077c.006 -.004 .018 .001 .03 .005zm-3.203 -.016c.203 .042 .404 .098 .617 .095c-.126 .106 -.238 .22 -.435 .168a2.104 2.104 0 0 0 -.336 -.049c-.095 -.007 -.116 -.04 -.056 -.114c.05 -.061 .1 -.123 .21 -.1zm-3.375 -9.682c-.01 .01 -.02 .017 -.027 .027a5.873 5.873 0 0 0 -.54 .657c-.27 .383 -.548 .76 -.757 1.18c-.124 .252 -.224 .511 -.334 .768a6.49 6.49 0 0 0 -.373 1.073a5.807 5.807 0 0 0 -.143 .924c-.018 .251 -.049 .505 -.035 .76c.008 .13 -.02 .263 -.004 .392c.023 .213 .033 .427 .071 .64c.062 .34 .16 .663 .29 .982c.16 .39 .418 .71 .71 1.001c.147 .147 .305 .286 .466 .422c.249 .206 .516 .388 .8 .539c.435 .232 .91 .352 1.388 .456a.62 .62 0 0 0 .263 .012l-.153 -.09a24.081 24.081 0 0 1 -1.363 -.838c-.3 -.197 -.599 -.398 -.893 -.605c-.162 -.114 -.328 -.224 -.468 -.368c-.02 -.023 -.046 -.036 -.013 -.077c.145 -.17 .282 -.348 .425 -.52c.145 -.174 .143 -.17 -.017 -.323a.497 .497 0 0 0 -.493 -.127c-.207 .052 -.383 -.012 -.538 -.149c-.164 -.145 -.235 -.336 -.266 -.545c-.014 -.097 -.002 -.191 .087 -.257a.185 .185 0 0 0 .044 -.05c.13 -.203 .253 -.41 .387 -.611c.346 -.528 .701 -1.05 1.044 -1.581c.145 -.225 .284 -.445 .554 -.538a.307 .307 0 0 1 .15 -.021c.077 .011 .152 .03 .227 .048a4.93 4.93 0 0 1 2.627 1.604c.031 .035 .064 .078 .033 .128c-.085 .14 -.135 .294 -.209 .439c-.092 .184 -.178 .371 -.27 .555c-.037 .073 .01 .108 .054 .14c.029 .022 .083 .055 .106 .003c.033 -.074 .095 -.137 .091 -.224a.554 .554 0 0 1 .118 -.354c.114 -.166 .257 -.275 .475 -.273c.23 .002 .455 .03 .694 .002c-.011 -.021 -.017 -.033 -.025 -.042c-.326 -.433 -.655 -.864 -.982 -1.297l-.833 -1.102c-.334 -.44 -.673 -.88 -1.007 -1.318c-.361 -.474 -.719 -.952 -1.08 -1.425c-.11 -.143 -.145 -.143 -.28 -.017zm17.48 -.08c-.044 .07 -.102 .132 -.152 .2c-.513 .682 -1.033 1.356 -1.557 2.029c-.291 .377 -.577 .756 -.865 1.135c-.35 .46 -.7 .918 -1.048 1.378c-.103 .135 -.207 .27 -.308 .408c-.02 .029 -.052 .067 -.032 .102c.015 .03 .06 .012 .09 .012c.194 0 .387 -.01 .58 -.004a.559 .559 0 0 1 .497 .3c.08 .14 .106 .297 .15 .448c.036 .12 .08 .141 .171 .054c.058 -.054 0 -.106 -.02 -.153c-.123 -.288 -.27 -.566 -.392 -.856c-.025 -.058 -.019 -.095 .02 -.143c.237 -.286 .489 -.557 .767 -.806c.201 -.18 .42 -.336 .66 -.458a4.46 4.46 0 0 1 .908 -.35c.18 -.046 .353 -.126 .545 -.102c.174 .02 .336 .083 .437 .232c.247 .369 .483 .746 .726 1.117c.317 .481 .633 .964 .961 1.438a.454 .454 0 0 1 .07 .352c-.076 .439 -.526 .732 -.951 .595c-.04 -.013 -.093 -.021 -.122 0c-.122 .087 -.26 .155 -.356 .273c-.017 .02 -.02 .034 0 .056c.062 .071 .122 .147 .182 .22c.122 .149 .253 .29 .358 .452c.01 .016 .04 .027 .015 .055c-.039 .038 -.072 .085 -.114 .115c-.128 .087 -.242 .192 -.367 .283c-.313 .228 -.627 .456 -.951 .669a13.97 13.97 0 0 1 -1.108 .663c-.124 .063 -.238 .127 -.363 .197c.06 .025 .1 -.002 .143 -.01c.228 -.046 .462 -.075 .684 -.153a5.76 5.76 0 0 0 1.079 -.487a4.82 4.82 0 0 0 .736 -.52c.244 -.216 .481 -.442 .663 -.719c.215 -.327 .412 -.66 .508 -1.046c.087 -.344 .134 -.695 .178 -1.047a4.057 4.057 0 0 0 -.036 -1.237a18.37 18.37 0 0 0 -.143 -.723c-.068 -.308 -.115 -.62 -.219 -.918a7.27 7.27 0 0 0 -.383 -.882c-.12 -.242 -.203 -.503 -.353 -.729a12.79 12.79 0 0 0 -.671 -.908a5.536 5.536 0 0 0 -.481 -.541c-.053 -.049 -.09 -.06 -.136 .01zm-16.368 7.214l-.201 .176c-.147 .128 -.284 .263 -.348 .456a.28 .28 0 0 0 -.01 .132c.014 .102 .095 .137 .186 .089c.027 -.014 .046 -.035 .065 -.055c.207 -.2 .4 -.417 .63 -.591a.38 .38 0 0 1 .244 -.093c.077 .002 .085 .045 .075 .103c-.017 .106 -.096 .181 -.13 .28c-.067 .201 -.094 .404 .032 .586c.095 .135 .216 .249 .346 .353c.43 .348 .928 .522 1.465 .617c.398 .07 .783 .017 1.168 -.072a.956 .956 0 0 1 .257 -.03c.098 .005 .127 .054 .079 .137c-.023 .038 -.058 .077 -.016 .12c.045 .046 .095 .034 .151 .01c.083 -.037 .147 -.107 .242 -.136c.006 .046 -.02 .07 -.043 .093c-.025 .025 -.048 .052 -.075 .075c-.043 .039 -.037 .056 .02 .074c.113 .036 .231 -.014 .262 -.126c.016 -.06 .06 -.102 .097 -.14c.12 -.119 .212 -.276 .39 -.326a.648 .648 0 0 1 .273 -.01c.048 .008 .073 .043 .081 .093c.01 .074 .017 .15 .12 .153c.095 .004 .247 -.07 .267 -.14a1.18 1.18 0 0 0 .032 -.434l-.156 .178l-.021 -.018c.067 -.18 .137 -.357 .25 -.514c.01 -.013 .024 -.023 .034 -.035c.029 -.03 .064 -.07 .104 -.054c.045 .016 .016 .068 .016 .103c-.002 .187 .033 .379 -.031 .564c-.105 .304 -.3 .514 -.615 .6c-.124 .032 -.178 -.01 -.191 -.14c-.008 -.077 -.049 -.112 -.126 -.11c-.093 .002 -.186 -.012 -.27 .046c-.026 .018 -.05 .037 -.047 .066c.004 .031 .023 .056 .062 .064c.064 .013 .124 .03 .19 .01c.015 -.006 .034 -.01 .044 .003c.011 .018 .002 .035 -.012 .053c-.075 .096 -.15 .183 -.294 .187c-.112 .004 -.206 .089 -.32 .116a1.34 1.34 0 0 1 -.39 .05c-.07 -.004 -.142 -.046 -.208 -.08c-.087 -.047 -.064 -.125 -.044 -.202c.025 -.098 -.023 -.141 -.136 -.12c-.168 .033 -.334 .066 -.502 .097c-.192 .035 -.383 .02 -.576 .021c-.389 .008 -.74 -.131 -1.09 -.274a3.047 3.047 0 0 1 -.58 -.313a1.362 1.362 0 0 1 -.422 -.445a.599 .599 0 0 1 -.025 -.547c.04 -.093 .076 -.188 .112 -.282c.012 -.033 .022 -.078 -.004 -.1c-.027 -.024 -.071 -.018 -.108 .001a1.133 1.133 0 0 0 -.355 .284a5.596 5.596 0 0 1 -.44 .47c-.086 .085 -.19 .046 -.225 -.07c-.06 -.199 .036 -.351 .143 -.5a2.06 2.06 0 0 1 .483 -.485a.217 .217 0 0 1 .04 -.024c.014 .002 .028 -.015 .05 .006zm14.693 -1.142c.302 .238 .576 .475 .746 .815c.201 .4 .321 .816 .288 1.265c-.017 .247 -.065 .485 -.268 .66a.738 .738 0 0 1 -.265 .144c-.224 .071 -.454 .131 -.682 .193c-.027 .008 -.06 .031 -.093 -.013c.238 -.074 .456 -.18 .655 -.323c.207 -.15 .392 -.321 .481 -.569c.056 -.156 .078 -.318 .066 -.49c-.025 -.33 -.17 -.602 -.348 -.863c-.058 -.085 -.14 -.148 -.212 -.222c-.016 -.015 -.035 -.023 -.05 -.013c-.024 .013 -.005 .032 .001 .05c.058 .205 .157 .398 .19 .61c.02 .15 .054 .294 .034 .443c-.052 -.116 -.04 -.243 -.073 -.361c-.06 -.222 -.157 -.431 -.25 -.642c-.067 -.153 -.137 -.305 -.204 -.458c-.031 -.07 -.022 -.141 -.016 -.226zm-4.72 2.424c.05 -.004 .048 .058 .048 .087c-.006 .098 -.002 .197 -.116 .26c-.075 .041 -.147 .088 -.226 .119c-.102 .038 -.155 .005 -.153 -.099c.006 -.08 -.032 -.17 .066 -.24c.012 .031 .023 .054 .027 .078c.006 .033 -.002 .08 .049 .075c.05 -.006 .1 -.025 .108 -.089v-.095c.002 -.017 .008 -.031 .029 -.034c.052 -.006 .013 .05 .03 .071c.014 .018 .01 .06 .045 .05c.025 -.007 .058 -.015 .066 -.048c.004 -.015 0 -.033 .002 -.048c.008 -.031 -.023 -.083 .025 -.087zm.14 -.518c-.142 .131 -.312 .21 -.47 .309l-.237 .134l-.485 .248a3.73 3.73 0 0 0 -.465 .281c-.014 .01 -.041 .035 -.057 .006c-.011 -.023 .006 -.047 .024 -.066c.098 -.1 .212 -.182 .326 -.263c.246 -.174 .526 -.284 .787 -.43c.184 -.105 .373 -.179 .576 -.22zm-2.46 .31c.024 .02 .008 .038 .004 .059a.493 .493 0 0 1 -.303 .377c-.08 .037 -.138 .108 -.238 .127c-.015 -.156 .039 -.27 .178 -.336c.114 -.052 .209 -.131 .303 -.21c.016 -.014 .03 -.037 .056 -.016zm-5.15 -.384c.007 .01 0 .031 -.005 .045c-.012 .021 -.04 .038 -.012 .065c.03 .027 .066 .043 .107 .03a.166 .166 0 0 0 .093 -.062c.01 -.014 .029 -.014 .044 -.006c.017 .01 .014 .029 .004 .042c-.058 .072 .017 .052 .04 .068a.267 .267 0 0 0 .132 -.06c.012 -.01 .023 -.025 .04 -.01c.014 .014 .006 .03 -.001 .045c-.068 .127 -.244 .191 -.389 .143a.502 .502 0 0 0 -.122 -.021c-.046 -.002 -.093 .002 -.11 -.055a.166 .166 0 0 1 .033 -.17a.194 .194 0 0 1 .095 -.061c.015 -.006 .042 -.012 .052 .007zm5.204 -2.772c-.038 .083 -.073 .04 -.114 .002c-.036 -.035 -.063 -.056 -.079 .023c-.013 .07 -.011 .14 -.021 .21c-.025 .19 -.054 .382 -.072 .575c-.013 .153 -.036 .304 -.044 .456c-.012 .215 -.048 .43 -.072 .642c-.023 .195 -.019 .395 -.056 .588c-.011 .066 .002 .11 .09 .108c.158 -.002 .32 .008 .479 -.017h.185c.049 0 .066 -.018 .058 -.072c-.013 -.089 -.015 -.178 -.023 -.269c-.021 -.243 -.04 -.485 -.064 -.728a147.524 147.524 0 0 0 -.152 -1.493c-.004 -.027 -.002 -.071 -.037 -.08c-.043 -.012 -.064 .024 -.078 .055zm-.58 -.38l-.012 .013l-.001 .037l-.097 .56c-.029 .169 -.054 .337 -.075 .505c-.03 .234 -.077 .466 -.112 .7c-.023 .152 -.031 .309 -.054 .402c-.033 .249 -.056 .435 -.085 .618c-.016 .093 .002 .124 .09 .126h.098a.149 .149 0 0 1 .046 .01c.085 .034 .096 -.012 .104 -.078c.05 -.439 .102 -.877 .155 -1.316l.154 -1.336c.004 -.04 0 -.073 -.035 -.102c-.04 -.035 -.079 -.076 -.117 -.114c-.016 -.016 -.033 -.037 -.058 -.025zm1.048 -.018c-.07 .021 -.18 .172 -.172 .246l.023 .235c.014 .142 .026 .285 .043 .426c.027 .222 .048 .446 .073 .67l.047 .414c.021 .197 .042 .396 .066 .594c.013 .112 .036 .22 .052 .332c.007 .066 .048 .077 .1 .068c.056 -.008 .112 -.024 .168 -.031c.045 -.01 .072 -.027 .064 -.078a14.615 14.615 0 0 1 -.038 -.264c-.055 -.38 -.109 -.76 -.165 -1.139a166.697 166.697 0 0 0 -.22 -1.43c-.004 -.02 .006 -.056 -.04 -.043zm-1.54 -.468a.037 .037 0 0 0 -.024 .039c.006 .073 -.029 .141 -.042 .213c-.072 .351 -.16 .7 -.234 1.051c-.023 .112 -.089 .21 -.108 .321c-.023 .137 -.064 .269 -.091 .404c-.025 .128 -.06 .251 -.083 .377c-.052 .276 -.108 .55 -.172 .825c-.016 .068 -.01 .11 .075 .132c.118 .029 .238 .029 .354 .054c.058 .012 .108 -.004 .122 -.085c.056 -.338 .118 -.673 .174 -1.011a103.185 103.185 0 0 0 .309 -1.966c.01 -.1 -.021 -.164 -.083 -.197c-.066 -.035 -.112 -.083 -.16 -.133c-.012 -.012 -.018 -.031 -.037 -.024zm2.01 .016a6.53 6.53 0 0 1 -.205 .203a.087 .087 0 0 0 -.027 .077c.014 .106 .02 .215 .04 .317c.057 .278 .082 .56 .132 .841c.027 .145 .039 .296 .066 .44c.027 .144 .04 .287 .067 .43c.035 .176 .058 .354 .09 .53c.02 .133 .046 .262 .067 .373c-.004 .146 .014 .162 .14 .146c.115 -.013 .231 -.036 .349 -.038c.095 -.002 .089 -.039 .077 -.11c-.042 -.263 -.13 -.513 -.183 -.772c-.167 -.806 -.371 -1.602 -.528 -2.41c-.01 -.054 -.037 -.075 -.085 -.027zm-4.293 2.097c-.076 .02 -.052 .048 -.03 .081l.175 .236c.149 .201 .309 .396 .44 .609a.407 .407 0 0 0 .252 .193c.056 .016 .118 -.004 .176 .027c.004 -.04 -.018 -.061 -.033 -.085l-.708 -.956c-.07 -.093 -.148 -.138 -.272 -.105zm6.396 .027c-.089 .081 -.145 .186 -.216 .28c-.2 .263 -.397 .53 -.613 .818c.176 -.013 .313 -.039 .413 -.184c.18 -.259 .377 -.508 .569 -.761c.035 -.047 .09 -.08 .098 -.145c.004 -.025 .014 -.04 -.019 -.048c-.083 -.024 -.158 -.027 -.232 .04zm-8.803 .891c.147 .008 .292 .023 .439 .033c.108 .008 .217 .01 .325 .023c.079 .01 .156 .03 .218 .122a5.907 5.907 0 0 1 -.86 -.043l-.566 -.067a.995 .995 0 0 1 .444 -.068zm7.665 -3.958c-.05 .063 -.095 .135 -.151 .193c-.163 .17 -.298 .363 -.47 .524c-.023 .02 -.027 .04 -.02 .073c.074 .338 .144 .677 .217 1.015c.091 .414 .188 .827 .279 1.243c.054 .247 .12 .493 .164 .744c.02 .108 .056 .215 .087 .333c.195 -.261 .406 -.493 .56 -.766c-.127 .075 -.197 .201 -.293 .31a.893 .893 0 0 1 -.18 -.358c-.033 -.147 -.093 -.288 -.047 -.449c.043 -.14 .205 -.236 .16 -.41c-.001 -.005 .012 -.013 .02 -.02a.936 .936 0 0 1 .352 -.24c.16 -.062 .327 -.086 .499 -.076c.03 .002 .067 .014 .075 -.044a1.99 1.99 0 0 0 -.004 -.416c-.007 -.098 -.058 -.124 -.143 -.073c-.098 .058 -.205 .09 -.311 .123c-.133 .043 -.288 -.033 -.354 -.158a.717 .717 0 0 1 -.08 -.394c.001 -.026 .018 -.068 -.016 -.076c-.07 -.011 -.068 -.064 -.082 -.112c-.042 -.155 .03 -.332 -.09 -.475c-.016 -.018 -.02 -.058 -.03 -.09c-.048 -.123 -.108 -.243 -.09 -.382c.002 -.016 .006 -.033 -.014 -.04c-.02 -.008 -.029 .009 -.038 .02zm-3.824 .027a1.58 1.58 0 0 1 -.216 .595c-.004 .008 -.008 .021 -.004 .027c.056 .106 -.018 .21 -.006 .317c.002 .029 .04 .168 -.099 .131c-.013 -.003 -.017 .03 -.011 .041c.048 .108 -.01 .21 -.025 .311a.33 .33 0 0 1 -.416 .265a6.302 6.302 0 0 1 -.32 -.112c-.047 -.017 -.113 -.035 -.119 .05c-.01 .136 -.011 .273 .002 .408c.008 .072 .035 .099 .108 .095a1.3 1.3 0 0 1 .279 .006c.19 .027 .35 .123 .5 .237c.049 .037 .07 .072 .066 .132c-.002 .06 -.006 .112 .06 .164a.37 .37 0 0 1 .12 .207c.046 .209 -.06 .38 -.13 .56c-.023 .059 -.04 .126 -.09 .173c-.022 .019 -.035 .05 -.064 .003c-.062 -.102 -.159 -.18 -.236 -.272c-.02 .035 0 .058 .02 .085c.148 .197 .293 .398 .444 .595c.017 .022 .02 .07 .062 .062c.044 -.008 .034 -.056 .042 -.085a170.151 170.151 0 0 0 .696 -3.143c.014 -.064 .008 -.118 -.044 -.174c-.136 -.143 -.26 -.3 -.395 -.445c-.071 -.077 -.125 -.175 -.224 -.233zm-1.685 3.348c-.066 .14 -.13 .282 -.198 .42c-.017 .036 -.015 .05 .027 .065c.228 .085 .466 .139 .698 .208c.02 .006 .049 .01 .047 -.036c-.004 -.006 -.01 -.022 -.02 -.033a9.524 9.524 0 0 0 -.473 -.636c-.031 -.037 -.06 -.033 -.081 .012zm7.123 .036l-.267 .34c-.074 .095 -.143 .194 -.23 .308c.292 -.037 .541 -.137 .796 -.219c.027 -.007 .037 -.013 .021 -.044c-.063 -.124 -.117 -.251 -.183 -.375c-.047 -.089 -.076 -.087 -.137 -.01zm-12.337 -3.24c-.042 .059 -.048 .192 -.004 .254c.068 .093 .138 .185 .228 .259c.055 .044 .115 .096 .186 .08c.174 -.042 .34 -.098 .41 -.29c.006 -.02 .02 -.036 .042 -.03c.024 .006 .014 .025 .016 .04a.6 .6 0 0 1 -.095 .39c-.147 .25 -.319 .488 -.48 .73c-.144 .218 -.295 .431 -.419 .663c-.077 .145 -.19 .269 -.282 .406c-.112 .166 -.22 .334 -.329 .502c-.032 .053 -.067 .11 -.002 .16c.086 .065 .18 .115 .267 .179c.076 .056 .13 .013 .165 -.04c.127 -.204 .303 -.366 .446 -.556c.168 -.222 .356 -.43 .536 -.645c.117 -.141 .231 -.29 .34 -.44c.054 -.073 .1 -.163 .214 -.177c.34 -.042 .683 -.09 1.023 -.14c.13 -.022 .257 -.047 .4 -.07a7.339 7.339 0 0 0 -.657 -.515c-.19 -.135 -.352 -.307 -.578 -.392c-.176 -.068 -.344 -.155 -.52 -.224c-.078 -.031 -.141 -.095 -.222 -.107c-.153 -.019 -.298 -.07 -.447 -.102c-.099 -.021 -.174 -.02 -.238 .066zm17.34 -.077a5.208 5.208 0 0 0 -1.537 .603c-.337 .194 -.623 .45 -.901 .746c.092 .02 .168 .045 .245 .053c.383 .033 .764 .083 1.14 .152c.08 .014 .15 .039 .2 .103c.065 .085 .13 .172 .197 .255c.286 .352 .572 .704 .86 1.053c.11 .136 .228 .267 .333 .408c.042 .056 .075 .072 .133 .037c.089 -.056 .182 -.106 .267 -.168c.05 -.037 .075 -.083 .027 -.155c-.275 -.411 -.545 -.825 -.818 -1.239c-.158 -.241 -.313 -.483 -.47 -.725c-.11 -.168 -.224 -.332 -.31 -.514a.354 .354 0 0 1 -.038 -.166c.002 -.027 .008 -.054 .037 -.06c.025 -.006 .035 .02 .045 .04a.42 .42 0 0 0 .378 .242c.229 .004 .464 -.236 .455 -.47c-.004 -.131 -.116 -.224 -.244 -.195zm-13.858 2.803c-.099 -.023 -.084 .09 -.134 .13c-.03 .02 -.037 .05 -.029 .083c.002 .006 .014 .01 .021 .015c.254 .145 .513 .277 .795 .367c.039 -.16 .08 -.317 .087 -.477c.004 -.1 -.018 -.118 -.118 -.104a1.727 1.727 0 0 1 -.622 -.014zm10.683 -.004a1.801 1.801 0 0 1 -.564 .018c-.16 -.002 -.174 .007 -.159 .094c.025 .141 .054 .283 .076 .424c.005 .04 .013 .05 .052 .034c.241 -.096 .481 -.197 .713 -.315c.07 -.034 .074 -.067 .033 -.12c-.04 -.054 -.04 -.152 -.15 -.135zm-12.415 .306c.152 .011 .303 .032 .458 .029c-.107 .114 -.21 .222 -.383 .181c-.081 -.019 -.164 -.015 -.247 -.015c-.026 0 -.06 .008 -.068 -.021c-.004 -.02 .013 -.05 .029 -.066c.058 -.056 .116 -.114 .21 -.108zm2.802 -.443c-.067 .112 -.123 .23 -.164 .354c-.01 .03 -.021 .062 .002 .092c.068 .087 .166 .12 .26 .153c.055 -.013 .113 .01 .144 -.062c.07 -.168 .116 -.344 .2 -.504c.026 -.054 .015 -.116 -.05 -.147c-.086 -.043 -.34 .029 -.392 .114zm8.082 -.149c-.096 .031 -.123 .099 -.073 .215c.052 .121 .104 .241 .133 .375c.016 .052 .035 .135 .108 .154a.568 .568 0 0 0 .23 -.067c.172 -.107 .163 -.1 .091 -.269c-.011 -.029 -.029 -.058 -.038 -.087c-.053 -.158 -.145 -.273 -.325 -.29c-.045 -.004 -.075 -.048 -.126 -.03zm5.148 -1.906a3.926 3.926 0 0 0 -.153 .095c-.133 .087 -.259 .195 -.431 .201c-.046 .001 -.037 .028 -.026 .047l.009 .013c.052 .081 .108 .158 .16 .238c.416 .626 .831 1.25 1.243 1.878c.035 .057 .083 .07 .128 .084c.185 -.03 .348 -.08 .471 -.22c.1 -.115 .126 -.188 .043 -.306c-.085 -.12 -.15 -.251 -.224 -.377c-.138 -.228 -.283 -.452 -.42 -.68c-.077 -.126 -.174 -.242 -.253 -.37c-.118 -.19 -.261 -.363 -.364 -.562c-.054 -.105 -.079 -.1 -.183 -.04zm-18.108 -.06c-.04 .07 -.08 .14 -.126 .205c-.219 .325 -.443 .646 -.657 .972c-.211 .32 -.435 .629 -.627 .957c-.013 .023 -.044 .043 -.019 .083c.093 .153 .201 .29 .375 .35c.203 .07 .282 .085 .423 -.131c.323 -.5 .658 -.994 .986 -1.49c.126 -.19 .27 -.368 .364 -.58c-.252 -.06 -.497 -.13 -.642 -.373c-.023 -.041 -.052 -.04 -.077 .007zm11.67 1.85c-.032 .025 -.05 .062 -.028 .116c.04 .105 .106 .15 .251 .147c.049 .016 .105 -.01 .159 -.021c.125 -.031 .259 -.006 .384 -.07c.074 -.037 .084 -.081 .072 -.145c-.025 -.131 -.137 -.16 -.24 -.183c-.224 -.053 -.42 .027 -.597 .156zm-5.595 -.174a.441 .441 0 0 0 -.329 .13c-.112 .118 -.048 .236 .085 .263l.148 .02l.303 .026c.07 .008 .13 -.027 .191 -.05c.105 -.04 .12 -.16 .027 -.226c-.127 -.09 -.26 -.167 -.425 -.163zm-1.927 -.18a.956 .956 0 0 0 -.466 .114c-.08 .04 -.06 .107 -.056 .167c.004 .052 .017 .09 .085 .108c.356 .083 .692 .035 1.015 -.133c.027 -.014 .071 -.026 .062 -.06a.123 .123 0 0 0 -.07 -.074a1.414 1.414 0 0 0 -.57 -.122zm9.908 -.002c-.205 .014 -.408 .022 -.59 .136c-.026 .017 -.063 .033 -.057 .066c.004 .029 .036 .054 .067 .065c.22 .076 .441 .16 .694 .157c.109 .008 .226 -.008 .342 -.039c.099 -.027 .143 -.168 .066 -.236a.531 .531 0 0 0 -.216 -.123a1.006 1.006 0 0 0 -.306 -.026zm1.085 -.427c.114 .255 .237 .491 .365 .725c.033 .062 .06 .06 .11 .03c.263 -.17 .512 -.36 .777 -.546c-.413 -.13 -.835 -.112 -1.252 -.209zm-12.167 .012c-.218 .03 -.438 .056 -.657 .089c-.164 .027 -.328 .046 -.493 .096a.323 .323 0 0 0 .103 .097c.131 .085 .259 .172 .39 .257c.103 .068 .2 .145 .308 .203c.034 .018 .058 .033 .077 -.006c.112 -.226 .222 -.452 .33 -.68c.03 -.062 -.011 -.062 -.058 -.056zm2.46 -.503c-.086 .016 -.128 .09 -.144 .172a.726 .726 0 0 1 -.116 .252c-.071 .106 -.137 .216 -.137 .35c0 .056 .006 .104 .048 .148c.151 .151 .41 .138 .541 -.034a.121 .121 0 0 0 .024 -.062c.017 -.107 .04 -.213 .052 -.321c.011 -.12 .058 -.242 -.014 -.364c-.044 -.075 -.158 -.158 -.255 -.14zm7.066 .136c-.04 .07 -.02 .143 -.025 .214c-.023 .11 .016 .217 .027 .323c.027 .27 .186 .346 .38 .344c.185 -.002 .306 -.157 .283 -.259a.884 .884 0 0 0 -.07 -.216c-.061 -.128 -.133 -.252 -.18 -.387c-.026 -.08 -.077 -.145 -.165 -.157c-.118 -.015 -.192 .035 -.25 .138zm-16.9 -11.968a.278 .278 0 0 0 -.122 .091c-.015 .02 .004 .027 .014 .039c.067 .093 .131 .186 .2 .276l1.532 2.028l1.681 2.239l1.13 1.5c.295 .392 .59 .784 .887 1.175c.23 .305 .458 .613 .692 .914c.324 .42 .63 .853 .956 1.27c.364 .466 .712 .94 1.067 1.41l.781 1.03c.1 .133 .205 .26 .306 .39c.048 -.045 .066 -.1 .096 -.147c.027 -.04 .012 -.071 -.011 -.1c-.215 -.287 -.427 -.577 -.646 -.859c-.323 -.415 -.638 -.837 -.957 -1.256c-.243 -.321 -.485 -.642 -.726 -.967c-.387 -.52 -.783 -1.03 -1.174 -1.548c-.493 -.651 -.984 -1.305 -1.477 -1.956c-.608 -.804 -1.22 -1.608 -1.83 -2.413c-.447 -.59 -.895 -1.175 -1.342 -1.764c-.324 -.43 -.645 -.862 -.968 -1.292c-.021 -.029 -.046 -.077 -.089 -.06zm26.927 .058c-.066 .118 -.151 .219 -.232 .325c-.304 .406 -.613 .808 -.92 1.212c-.273 .36 -.546 .72 -.82 1.077c-.261 .342 -.526 .682 -.787 1.024c-.247 .325 -.487 .656 -.734 .98c-.3 .393 -.603 .783 -.901 1.176c-.286 .379 -.57 .76 -.862 1.134c-.313 .404 -.62 .814 -.928 1.222c-.236 .313 -.468 .628 -.704 .94c-.35 .461 -.703 .921 -1.053 1.385l-1.032 1.377c-.06 .08 -.12 .162 -.174 .249c-.047 .077 .002 .131 .06 .174c.065 .048 .065 -.027 .089 -.054c.131 -.15 .24 -.321 .361 -.478c.302 -.384 .584 -.782 .883 -1.17c.408 -.527 .808 -1.058 1.214 -1.588c1.191 -1.558 2.372 -3.122 3.555 -4.684c.694 -.918 1.382 -1.838 2.076 -2.756c.348 -.46 .702 -.916 1.048 -1.378c.027 -.03 .07 -.056 .075 -.107c-.01 -.048 -.064 -.048 -.089 -.08c-.05 -.063 -.1 -.022 -.125 .02zm-10.987 2.498c-.17 .133 -.35 .251 -.55 .342c-.162 .073 -.32 .153 -.483 .224c-.104 .045 -.207 .097 -.319 .12c-.292 .06 -.587 .097 -.881 .14a2.265 2.265 0 0 1 -.775 -.016c-.524 -.106 -1.046 -.232 -1.494 -.553c-.126 -.09 -.261 -.172 -.385 -.265c-.077 -.058 -.124 -.035 -.174 .01c-.162 .145 -.34 .27 -.518 .398c-.373 .27 -.725 .568 -1.094 .84a.157 .157 0 0 0 -.066 .173c.03 .127 .035 .257 .054 .385c.049 .332 .107 .663 .184 .987c.137 .578 .301 1.15 .516 1.705c.114 .296 .228 .594 .365 .878a12.317 12.317 0 0 0 2.038 3.013c.178 .194 .365 .377 .556 .557c.174 .164 .348 .33 .528 .49c.045 .04 .075 .024 .106 -.003c.107 -.09 .217 -.18 .317 -.278c.488 -.482 .979 -.96 1.398 -1.506c.147 -.191 .292 -.385 .43 -.582c.102 -.145 .2 -.296 .291 -.45c.149 -.253 .302 -.507 .44 -.766c.16 -.295 .296 -.6 .409 -.918l.213 -.575a5.79 5.79 0 0 0 .098 -.29c.07 -.227 .162 -.445 .222 -.675c.046 -.176 .116 -.348 .157 -.524c.065 -.29 .15 -.574 .191 -.87l.089 -.61c.015 -.086 -.039 -.129 -.099 -.173c-.205 -.155 -.406 -.315 -.612 -.468a30.236 30.236 0 0 1 -.97 -.752c-.078 -.062 -.12 -.036 -.182 .012zm-14.452 -1.056c-.003 .008 .008 .022 .016 .031c.145 .19 .29 .38 .433 .57l.71 .94c.185 .246 .37 .491 .558 .735c.307 .398 .615 .794 .922 1.194c.24 .313 .477 .63 .715 .945c.217 .283 .433 .563 .646 .847c.251 .336 .499 .677 .754 1.011c.276 .362 .564 .717 .842 1.079c.298 .388 .586 .783 .886 1.17c.3 .386 .593 .778 .893 1.165c.2 .259 .398 .524 .603 .786c.064 -.079 .044 -.166 .04 -.247c-.001 -.056 -.07 -.056 -.106 -.081c-.166 -.11 -.212 -.236 -.153 -.425c.02 -.06 .037 -.124 .07 -.176a.643 .643 0 0 0 .097 -.42a.577 .577 0 0 1 .046 -.268c.045 -.101 .106 -.194 .162 -.29a.146 .146 0 0 0 .018 -.11a.653 .653 0 0 1 .083 -.484a.472 .472 0 0 0 .058 -.255c0 -.031 -.008 -.05 -.043 -.044c-.18 .03 -.361 .025 -.54 0c-.378 -.05 -.737 -.169 -1.091 -.298c-.064 -.023 -.095 -.064 -.064 -.135c.066 -.151 .13 -.302 .197 -.46a1.95 1.95 0 0 1 -.545 -.059a2.618 2.618 0 0 1 -.757 -.309c-.05 -.029 -.062 -.06 -.03 -.114c.055 -.083 .097 -.174 .15 -.259c.113 -.18 .115 -.176 -.088 -.228c-.425 -.106 -.81 -.282 -1.107 -.619c-.045 -.05 -.043 -.079 -.004 -.125c.085 -.1 .166 -.205 .251 -.307c.035 -.043 .06 -.078 -.021 -.1c-.064 -.015 -.122 -.045 -.184 -.063c-.446 -.124 -.77 -.412 -1.042 -.771c-.027 -.037 -.032 -.05 .008 -.08c.137 -.098 .238 -.247 .4 -.353c-.09 -.037 -.16 -.062 -.228 -.095a2.723 2.723 0 0 1 -.584 -.373c-.154 -.133 -.276 -.298 -.4 -.458c-.04 -.054 -.019 -.09 .03 -.128c.146 -.112 .29 -.23 .44 -.338c.06 -.042 .031 -.052 -.008 -.073c-.085 -.053 -.176 -.097 -.253 -.159a2.86 2.86 0 0 1 -.715 -.85c-.035 -.062 -.02 -.091 .039 -.122c.189 -.095 .363 -.217 .543 -.329c.2 -.127 .404 -.251 .59 -.398c-.016 -.023 -.034 -.025 -.055 -.025c-.17 -.004 -.338 -.002 -.508 -.016c-.234 -.019 -.47 -.01 -.704 -.013l-1.022 -.02c-.296 -.003 -.592 -.007 -.89 -.009c-.019 0 -.046 -.014 -.058 .013zm23.407 -.06c-.454 .028 -.91 .031 -1.367 .04c-.373 .007 -.746 .026 -1.132 .048c.03 .029 .05 .054 .075 .07c.348 .22 .696 .44 1.046 .656c.06 .037 .073 .074 .044 .132a2.328 2.328 0 0 1 -.97 1.02c-.056 .031 -.031 .049 -.002 .072c.157 .122 .315 .242 .474 .361c.036 .027 .044 .05 .013 .093c-.124 .17 -.245 .338 -.414 .476c-.23 .187 -.475 .344 -.755 .438c-.047 .016 -.053 .028 -.016 .06c.126 .114 .226 .254 .37 .348c.02 .016 .063 .031 .015 .091a2.996 2.996 0 0 1 -.462 .464c-.23 .186 -.491 .31 -.78 .37c-.082 .017 -.05 .05 -.024 .082l.166 .222c.029 .036 .058 .072 .089 .105c.068 .074 .05 .118 -.018 .164c-.057 .04 -.104 .095 -.158 .134c-.244 .174 -.5 .325 -.794 .398c-.115 .029 -.225 .068 -.331 .099l.263 .45c.015 .025 .02 .03 -.016 .052c-.386 .234 -.802 .377 -1.256 .38c-.068 0 -.077 .018 -.054 .076c.05 .128 .09 .261 .15 .383c.04 .077 .026 .103 -.044 .149a2 2 0 0 1 -1.218 .342c-.127 -.006 -.253 -.002 -.377 -.039c-.042 -.013 -.077 -.005 -.075 .06a.484 .484 0 0 0 .043 .201c.085 .17 .15 .344 .094 .542c-.01 .03 .006 .058 .025 .087c.126 .175 .232 .36 .207 .59a.657 .657 0 0 0 .006 .161c.016 .116 .095 .2 .135 .304c.097 .242 .066 .375 -.137 .514c-.15 .103 -.16 .163 -.052 .33c2.664 -3.508 5.331 -7.003 7.95 -10.532c-.245 0 -.48 -.006 -.713 .008zm-8.739 1.377l1.345 1.053c.047 .031 .083 .066 .062 .138a8.17 8.17 0 0 1 -.28 1.54c-.178 .628 -.379 1.25 -.605 1.864c-.089 .243 -.23 .463 -.348 .694c-.17 .328 -.336 .66 -.541 .972c-.265 .398 -.54 .79 -.849 1.158c-.199 .235 -.396 .473 -.607 .701c-.247 .269 -.54 .49 -.792 .752c-.05 .052 -.08 .006 -.11 -.025c-.234 -.238 -.472 -.473 -.702 -.717c-.509 -.541 -1.007 -1.09 -1.405 -1.72a11.023 11.023 0 0 1 -.778 -1.404c-.266 -.599 -.521 -1.202 -.701 -1.834a17.8 17.8 0 0 1 -.294 -1.18c-.054 -.258 -.07 -.525 -.108 -.786c-.01 -.066 .038 -.087 .07 -.112c.38 -.302 .763 -.601 1.148 -.9c.06 -.047 .127 -.086 .18 -.142c.07 -.08 .13 -.046 .202 .006c.443 .33 .936 .553 1.471 .686c.408 .102 .824 .135 1.241 .104a4.327 4.327 0 0 0 1.726 -.498a3.27 3.27 0 0 0 .55 -.352c.05 -.043 .084 -.031 .125 .002zm1.264 8.086c-.112 .042 -.228 .032 -.342 .034c-.075 .002 -.135 .018 -.172 .103c-.06 .137 -.18 .17 -.319 .14c-.029 -.005 -.054 -.024 -.085 .012a.278 .278 0 0 1 -.203 .093a.437 .437 0 0 0 -.273 .116c-.034 .03 -.079 .062 -.054 .12c.02 .046 .039 .099 .109 .093c.034 -.008 .07 -.014 .102 -.023c.174 -.058 .342 -.13 .499 -.23c.2 -.128 .42 -.213 .651 -.269a.242 .242 0 0 0 .143 -.09c.021 -.028 .016 -.053 .002 -.082c-.013 -.027 -.037 -.025 -.058 -.017zm-7.904 .117c.008 .033 .04 .049 .07 .06c.098 .043 .203 .064 .303 .1c.184 .07 .362 .146 .53 .246c.145 .087 .29 .167 .429 .184c.122 .004 .14 -.01 .168 -.073c.033 -.07 -.035 -.078 -.06 -.11c-.071 -.1 -.17 -.128 -.286 -.124c-.025 .002 -.04 -.018 -.06 -.024c-.08 -.027 -.137 -.108 -.24 -.085c-.17 .041 -.235 -.002 -.28 -.17c-.011 -.046 -.03 -.065 -.077 -.067c-.147 -.006 -.296 .005 -.443 -.022c-.077 -.013 -.063 .043 -.054 .085zm1.444 -3.025c.054 .093 .103 .176 .149 .261c.182 .33 .358 .663 .58 .973c.301 .423 .603 .846 .962 1.221l.264 .267l.54 .522c.026 .025 .041 .03 .07 .002c.178 -.174 .377 -.327 .55 -.509a12.6 12.6 0 0 0 .848 -.968a9.98 9.98 0 0 0 .547 -.789c.139 -.22 .265 -.446 .394 -.67c.056 -.099 .105 -.201 .16 -.308c-1.693 -.002 -3.374 -.002 -5.064 -.002zm2.467 2.542c.135 .004 .24 .049 .328 .124c.025 .021 .095 .035 .05 .097c-.054 .077 -.123 .094 -.18 .056c-.092 -.068 -.189 -.045 -.28 .005c-.102 .056 -.104 -.058 -.156 -.087c-.048 -.027 -.016 -.063 .011 -.094c.068 -.072 .159 -.083 .227 -.1zm-3.683 -.243c-.029 .067 -.065 .133 -.06 .199c-.002 .158 .035 .19 .174 .15a1.4 1.4 0 0 0 .128 -.04a.212 .212 0 0 0 .133 -.141c.01 -.033 .025 -.076 -.007 -.099c-.028 -.02 -.064 -.01 -.099 .01c-.112 .064 -.114 .062 -.172 -.048c-.006 -.012 -.004 -.027 -.012 -.037c-.03 -.039 -.06 -.05 -.085 .006zm7.498 -.068c-.025 .027 -.052 .048 -.067 .075c-.049 .093 -.11 .124 -.207 .06c-.021 -.013 -.064 -.034 -.087 0c-.02 .03 -.012 .068 -.002 .103c.042 .14 .158 .16 .28 .178c.118 .017 .18 -.043 .165 -.163a.669 .669 0 0 0 -.082 -.253zm-4.42 -.137a.382 .382 0 0 1 .164 .139c.042 .071 .104 .064 .162 .015c.027 -.02 .05 -.048 .076 -.073c.181 -.18 .373 -.18 .55 .004c.117 .12 .23 .114 .333 -.016c.099 -.123 .191 -.143 .402 -.075c-.064 .087 -.1 .193 -.23 .209c-.044 .004 -.07 .044 -.099 .073c-.158 .155 -.313 .164 -.473 .018c-.17 -.155 -.278 -.128 -.408 .015a.34 .34 0 0 1 -.303 .108c-.066 -.006 -.107 -.056 -.15 -.094a2.923 2.923 0 0 1 -.293 -.34c.098 -.072 .185 -.028 .269 .017zm-2.722 -.559c-.12 -.004 -.205 .087 -.201 .234c-.006 .06 .01 .13 .037 .2c.017 .042 .01 .107 .065 .117c.062 .012 .093 -.048 .128 -.089a.172 .172 0 0 0 .039 -.085c.027 -.118 -.012 -.228 -.033 -.338c-.004 -.018 -.008 -.039 -.035 -.039zm6.78 -.006c-.024 .006 -.02 .024 -.026 .04c-.025 .078 -.008 .16 -.025 .235a.253 .253 0 0 0 .127 .267c.043 .023 .062 .019 .08 -.024a.942 .942 0 0 0 .085 -.309c0 -.12 -.143 -.232 -.24 -.209zm-2.268 .134c.13 .1 .13 .1 .027 .234c-.012 .015 -.012 .038 -.047 .046c-.056 -.06 -.106 -.133 -.191 -.166c-.09 -.033 -.166 -.008 -.222 .071c-.033 .047 -.06 .097 -.114 .126a.329 .329 0 0 1 -.422 -.099c-.1 -.133 -.238 -.133 -.323 .006c-.127 .203 -.406 .18 -.533 .03c-.097 -.115 -.224 -.13 -.342 -.045c-.025 .017 -.05 .071 -.082 .02c-.03 -.051 -.112 -.094 -.061 -.173c.102 -.157 .477 -.218 .597 -.023c.095 .15 .149 .149 .274 .02c.163 -.17 .358 -.188 .55 -.06c.02 .015 .038 .03 .053 .051c.076 .107 .196 .112 .279 .012c.17 -.201 .344 -.218 .557 -.05zm.622 -.634c.044 .004 .05 .03 .027 .058c-.052 .062 -.06 .168 -.17 .178c-.025 .001 -.04 .028 -.054 .052c-.06 .11 -.16 .15 -.315 .154c-.04 .002 -.1 -.019 -.155 -.075c-.17 -.176 -.301 -.168 -.462 .015c-.112 .13 -.305 .147 -.406 .018c-.158 -.205 -.325 -.155 -.489 .02c-.104 .11 -.253 .13 -.365 .038a.824 .824 0 0 1 -.081 -.083c-.107 -.124 -.273 -.122 -.372 .005a.374 .374 0 0 1 -.197 .13c-.067 .021 -.139 .014 -.187 -.056c-.072 -.104 -.147 -.207 -.219 -.313c-.007 -.012 -.038 -.021 -.013 -.043a.056 .056 0 0 1 .052 -.011c.072 .017 .11 .075 .157 .121c.121 .118 .228 .113 .326 -.025a.306 .306 0 0 1 .346 -.114a.534 .534 0 0 1 .244 .145c.073 .08 .145 .08 .224 .008l.054 -.054c.182 -.182 .398 -.176 .574 .015c.091 .099 .182 .087 .27 -.02c.144 -.177 .422 -.2 .577 -.036c.102 .109 .195 .107 .296 -.006a.375 .375 0 0 1 .338 -.121zm-5.119 -.244a.667 .667 0 0 0 -.145 .394c.002 .058 -.013 .132 .04 .159c.044 .021 .082 -.048 .12 -.077c.185 -.143 .185 -.273 .088 -.453c-.021 -.04 -.058 -.08 -.103 -.023zm6.667 .023c-.073 .112 -.065 .32 .066 .414c.05 .035 .08 .13 .143 .102c.048 -.02 .006 -.11 .017 -.168c.01 -.135 -.007 -.259 -.106 -.363c-.052 -.054 -.085 -.039 -.12 .015zm-1.345 -.178c.044 .037 .075 .07 .023 .122c-.006 .006 -.01 .018 -.013 .025c-.033 .072 -.041 .15 -.15 .039c-.115 -.118 -.24 -.068 -.312 .043c-.124 .187 -.373 .19 -.517 .019a.225 .225 0 0 0 -.357 -.002c-.166 .195 -.336 .228 -.518 .021c-.12 -.135 -.26 -.118 -.371 .027c-.072 .091 -.151 .141 -.267 .138a.206 .206 0 0 1 -.153 -.066a.797 .797 0 0 0 -.118 -.114c-.096 -.076 -.237 -.033 -.33 .093c-.118 .16 -.29 .177 -.424 .038a.368 .368 0 0 0 -.228 -.127c-.077 -.01 -.094 -.09 -.145 -.132c-.027 -.023 -.042 -.056 -.061 -.085c.154 -.083 .348 -.06 .498 .112c.09 .103 .153 .095 .242 -.007c.025 -.03 .054 -.057 .081 -.084c.137 -.133 .36 -.102 .48 .006c.023 .021 .044 .047 .07 .068c.082 .077 .152 .077 .231 -.006c.093 -.097 .184 -.187 .334 -.174a.4 .4 0 0 1 .271 .122c.126 .135 .184 .12 .273 .008c.089 -.113 .189 -.174 .34 -.17c.11 .003 .18 .063 .25 .125c.138 .122 .165 .124 .299 -.011c.164 -.169 .386 -.178 .572 -.028zm-6.329 -1.782c-.075 .186 -.152 .37 -.226 .555c-.149 .38 -.303 .758 -.458 1.137c-.023 .054 -.033 .089 .037 .121c.257 .113 .524 .165 .815 .159c.147 .012 .306 -.014 .466 -.027c.039 -.004 .047 -.03 .058 -.054c.085 -.172 .167 -.346 .254 -.518c.017 -.035 .023 -.064 .005 -.099a12.672 12.672 0 0 1 -.512 -1.23c-.008 -.02 -.015 -.046 -.042 -.046c-.087 0 -.157 -.052 -.238 -.071c-.074 -.018 -.126 -.01 -.159 .073zm8.554 -.083c-.08 .04 -.182 .037 -.213 .122a4.292 4.292 0 0 1 -.11 .272l-.215 .513c-.065 .16 -.131 .32 -.199 .48c-.01 .022 .004 .038 .012 .05c.106 .156 .191 .322 .26 .498c.018 .04 .045 .048 .084 .048h.346c.302 -.005 .6 -.034 .891 -.11c.077 -.02 .104 -.044 .068 -.131c-.219 -.522 -.43 -1.046 -.642 -1.57c-.08 -.195 -.08 -.197 -.282 -.172zm-3.238 1.322a.226 .226 0 0 1 .128 .093c.075 .114 .176 .13 .27 .03a.416 .416 0 0 1 .424 -.13c.092 .02 .145 .088 .214 .133c.093 .06 .145 .06 .226 -.017c.033 -.033 .068 -.064 .1 -.097a.074 .074 0 0 0 .022 .015c-.071 .13 -.143 .26 -.215 .387c-.019 .035 -.044 .01 -.065 0a.739 .739 0 0 1 -.228 -.157c-.109 -.112 -.219 -.102 -.313 .018c-.124 .156 -.352 .191 -.497 .042c-.126 -.13 -.269 -.139 -.404 .006c-.172 .186 -.296 .18 -.478 -.002c-.12 -.118 -.247 -.118 -.367 -.002a.97 .97 0 0 1 -.12 .097c-.15 .097 -.297 .064 -.398 -.085c-.089 -.13 -.276 -.135 -.36 -.002c-.106 .172 -.37 .174 -.496 .03c-.13 -.146 -.27 -.14 -.397 .012c-.071 .087 -.071 .087 -.139 -.007c-.093 -.134 -.093 -.134 .047 -.236c.241 -.178 .408 -.164 .616 .044c.09 .09 .132 .091 .22 -.011a.39 .39 0 0 1 .343 -.151a.394 .394 0 0 1 .276 .137c.108 .118 .186 .093 .286 -.023c.099 -.114 .265 -.168 .402 -.11c.07 .029 .136 .06 .186 .127c.07 .097 .158 .099 .24 .006c.131 -.152 .284 -.21 .477 -.147zm4.266 -1.99c-.062 .084 -.12 .173 -.21 .235a5.19 5.19 0 0 1 -.343 .207c-.029 .015 -.046 .021 -.027 .07c.045 .117 .099 .232 .145 .348c.047 .114 .09 .231 .141 .342c.078 .158 .132 .328 .213 .487c.033 .065 .052 .112 .102 .1c.3 -.023 .559 -.085 .818 -.15c.153 -.04 .166 -.066 .09 -.205c-.268 -.49 -.564 -.961 -.852 -1.439c-.032 -.054 -.046 -.038 -.077 .004zm-10.41 -.072a.454 .454 0 0 1 -.024 .025l-.882 1.498c-.054 .093 -.032 .133 .074 .178c.263 .108 .537 .153 .821 .156c.074 .002 .105 -.027 .128 -.085l.126 -.29l.38 -.89c.014 -.032 .024 -.057 -.023 -.074a1.082 1.082 0 0 1 -.6 -.518zm4.002 1.268c-.038 .12 -.112 .174 -.23 .197c-.265 .054 -.361 .002 -.43 -.255a.158 .158 0 0 0 -.132 -.124c-.21 -.042 -.31 .014 -.368 .217a.233 .233 0 0 1 -.172 .172c-.036 .011 -.075 .017 -.092 .07c-.037 .115 .067 .245 .212 .247c.891 .013 1.784 .002 2.676 .021c.37 .013 .742 .008 1.111 .008c.373 .002 .748 -.002 1.121 .004c.1 .001 .157 -.045 .195 -.122c.04 -.08 .062 -.16 .033 -.253c-.017 -.06 -.029 -.122 -.044 -.184c-.03 -.132 -.064 -.176 -.157 -.18c-.108 -.004 -.143 .03 -.178 .17c-.038 .159 -.083 .194 -.25 .2h-.117c-.184 .005 -.222 -.06 -.247 -.196c-.022 -.12 -.072 -.149 -.188 -.178c-.064 -.015 -.118 .01 -.176 .004c-.114 -.01 -.168 .037 -.197 .15l-.021 .094c-.01 .058 -.04 .09 -.097 .104a1.56 1.56 0 0 1 -.36 .035c-.185 .002 -.214 -.035 -.256 -.222c-.024 -.103 -.09 -.157 -.196 -.159a1.444 1.444 0 0 0 -.208 .014c-.085 .011 -.114 .06 -.138 .125c-.007 .025 -.015 .05 -.017 .076c-.012 .094 -.068 .139 -.159 .147c-.029 .001 -.058 .005 -.087 .007c-.216 .025 -.286 -.021 -.342 -.228a.182 .182 0 0 0 -.131 -.139c-.176 -.052 -.3 .006 -.358 .178zm.71 -.416a.412 .412 0 0 0 -.08 .166v.064c-.011 .072 .018 .136 .047 .197c.027 .058 .07 .095 .137 .097c.074 .002 .126 -.033 .162 -.095a.404 .404 0 0 0 .031 -.326a.205 .205 0 0 0 -.162 -.155a.134 .134 0 0 0 -.135 .052zm1.187 -.023a.38 .38 0 0 0 .003 .449c.076 .087 .186 .085 .256 -.008a.279 .279 0 0 0 .058 -.209c0 -.04 .005 -.073 -.002 -.104c-.02 -.09 -.062 -.165 -.155 -.192c-.068 -.02 -.118 .016 -.16 .064zm1.855 -3.65a6.036 6.036 0 0 1 -1.173 .557a3.584 3.584 0 0 1 -1.287 .2c-.335 -.012 -.67 .015 -1 -.068a5.165 5.165 0 0 1 -1.498 -.61c-.143 -.088 -.145 -.09 -.29 .018c-.317 .238 -.632 .478 -.947 .72c-.033 .024 -.085 .05 -.075 .102c.054 .27 .079 .547 .139 .815c.1 .455 .2 .909 .361 1.348c.116 .319 .228 .64 .368 .949c.02 .046 .046 .089 .096 .093c.14 .011 .222 -.058 .251 -.201c.033 -.159 .064 -.184 .23 -.207c.155 -.021 .306 .004 .459 .02c.094 .009 .13 .044 .143 .127c.005 .036 .017 .071 .023 .11c.006 .04 .027 .083 .081 .095c.054 .013 .089 -.018 .112 -.055a.658 .658 0 0 0 .095 -.212c.027 -.143 .023 -.153 -.108 -.217c-.143 -.07 -.285 -.14 -.424 -.212c-.114 -.058 -.197 -.157 -.3 -.232a1.434 1.434 0 0 1 -.488 -.696c.065 .017 .121 .025 .172 .046c.164 .07 .334 .052 .504 .03c.114 -.016 .145 -.15 .05 -.266a2.002 2.002 0 0 1 -.284 -.52a.882 .882 0 0 1 -.065 -.47c.268 .115 .521 .24 .802 .302c.174 .039 .26 -.01 .232 -.154c-.025 -.128 -.002 -.255 -.033 -.381c-.014 -.052 -.002 -.11 -.002 -.195a.88 .88 0 0 0 .499 .326c.22 .058 .438 .126 .634 .246c.228 .14 .448 .296 .587 .535c.052 .09 .14 .108 .236 .095c.083 -.012 .093 -.085 .118 -.147c.257 -.66 .72 -1.088 1.407 -1.272c.074 -.02 .078 .008 .08 .066c.001 .048 -.041 .077 -.043 .126c-.01 .297 -.08 .583 -.166 .865c-.027 .087 .015 .147 .104 .151a.318 .318 0 0 0 .095 -.011c.319 -.074 .634 -.159 .943 -.34c-.048 .189 -.127 .33 -.205 .475c-.172 .327 -.36 .642 -.632 .893a.356 .356 0 0 0 -.122 .302c.012 .237 -.075 .427 -.282 .552c-.046 .03 -.07 .066 -.068 .118c0 .045 .006 .091 .002 .136c-.003 .067 .035 .098 .093 .114c.122 .03 .195 -.03 .197 -.157c.002 -.124 .049 -.168 .176 -.17c.049 0 .097 .004 .145 -.004c.182 -.035 .348 -.037 .437 .17c.004 .012 .017 .02 .03 .033l.045 -.099c.306 -.75 .526 -1.523 .673 -2.317c.031 -.164 .056 -.333 .074 -.5c.015 -.148 .023 -.169 -.093 -.252c-.338 -.246 -.669 -.5 -.992 -.77c-.048 -.04 -.073 -.025 -.116 0zm-8.617 1.881a6.96 6.96 0 0 0 -.244 .285c-.166 .206 -.33 .415 -.496 .624c-.126 .158 -.254 .317 -.38 .477c-.028 .037 -.046 .078 .01 .112c.267 .165 .544 .31 .855 .366c.071 .013 .166 .077 .236 -.04c.197 -.337 .402 -.67 .605 -1.004c.011 -.017 .025 -.031 .033 -.043c-.002 -.025 -.018 -.032 -.031 -.04a1.046 1.046 0 0 1 -.364 -.389c-.062 -.104 -.125 -.208 -.164 -.324c-.01 -.03 -.027 -.06 -.06 -.024zm12.13 .014c-.084 .141 -.146 .296 -.252 .423c-.071 .087 -.13 .197 -.22 .257c-.095 .062 -.074 .103 -.03 .172c.194 .306 .385 .613 .571 .922c.037 .062 .068 .105 .147 .087c.15 -.036 .307 -.05 .454 -.12c.17 -.08 .34 -.164 .491 -.28c.045 -.035 .05 -.052 .014 -.094a2.232 2.232 0 0 1 -.178 -.227a4.784 4.784 0 0 0 -.38 -.48c-.105 -.117 -.196 -.246 -.293 -.366c-.077 -.097 -.178 -.182 -.234 -.298c-.023 -.046 -.052 -.062 -.09 .004zm-19.502 -4.164c.08 1.56 .545 2.958 1.585 4.11c.81 .899 1.78 1.589 2.984 1.888c-.081 -.174 -4.423 -5.88 -4.57 -5.998zm27.017 -.027a281.482 281.482 0 0 0 -4.545 6.016l.068 -.018a5.121 5.121 0 0 0 1.18 -.514c.318 -.184 .65 -.352 .939 -.586c.218 -.177 .396 -.394 .591 -.595a6.58 6.58 0 0 0 .876 -1.125c.241 -.396 .402 -.831 .543 -1.272c.118 -.373 .184 -.76 .269 -1.14a2.68 2.68 0 0 0 .079 -.766zm-13.342 5.29a.293 .293 0 0 0 -.288 .298a.28 .28 0 0 0 .294 .288a.29 .29 0 0 0 .294 -.291a.29 .29 0 0 0 -.068 -.18a.491 .491 0 0 1 -.177 -.107a.177 .177 0 0 0 -.055 -.007zm1.506 -.03a.29 .29 0 0 0 -.294 .292c.002 .158 .14 .294 .298 .294a.29 .29 0 0 0 .288 -.298a.278 .278 0 0 0 -.292 -.288zm-2.213 -.02a.288 .288 0 0 0 -.292 .296c0 .163 .133 .292 .298 .292a.3 .3 0 0 0 .294 -.298a.298 .298 0 0 0 -.3 -.29zm-21.279 -9.121c.096 .164 .257 .278 .427 .379c.131 .079 .267 .16 .423 .172c.192 .013 .385 .01 .576 .02c.273 .018 .547 .042 .82 .057c.27 .015 .541 .027 .814 .039l.813 .038c.26 .012 .516 .027 .776 .039s.521 .027 .784 .039c.26 .011 .516 .029 .775 .038c.256 .01 .51 .031 .766 .039c.19 .004 .377 .017 .564 .027l.601 .03c.217 .013 .435 .036 .652 .026c.035 -.002 .06 .027 .1 .012c.078 -.027 .16 -.018 .24 -.01c.344 .033 .69 .01 1.032 .05c.141 .016 .298 -.021 .4 .122c.026 .037 .05 .072 .078 .108c.096 .13 .149 .282 .22 .424c.118 .233 .265 .446 .447 .637c.112 .116 .218 .242 .36 .321c.328 .186 .662 .36 .995 .538c.357 .197 .703 .417 .978 .73c.075 .087 .15 .16 .268 .182c.026 .004 .064 .014 .06 .062c-.019 .276 .099 .514 .217 .752c.097 .193 .234 .327 .46 .348c.08 .008 .07 .07 .042 .114c-.054 .085 -.034 .164 -.01 .251c.045 .153 .115 .292 .192 .431c.099 .182 .222 .315 .435 .34c.077 .01 .085 .045 .058 .103c-.033 .07 -.023 .139 -.015 .214c.023 .188 .1 .354 .193 .51c.097 .167 .203 .335 .427 .354c.02 .002 .025 .014 .02 .033c-.049 .207 .023 .389 .123 .56c.126 .215 .286 .4 .559 .405c.112 .002 .123 .052 .116 .133c-.008 .083 .023 .143 .071 .209c.05 .07 .11 .124 .178 .172c.147 .104 .31 .174 .495 .164c.03 -.002 .056 -.002 .042 -.05a12.197 12.197 0 0 1 -.398 -1.92c-.015 -.13 -.023 -.266 -.048 -.396c-.017 -.08 0 -.13 .066 -.18c.282 -.216 .562 -.434 .84 -.655c.049 -.038 .078 -.09 .033 -.162a7.218 7.218 0 0 1 -.25 -.425c-.272 -.495 -.57 -.973 -.857 -1.458c-.18 -.305 -.371 -.605 -.543 -.914a5.77 5.77 0 0 0 -.855 -1.156a4.792 4.792 0 0 0 -1.529 -1.077c-.402 -.178 -.817 -.305 -1.266 -.313c-.46 -.008 -.918 -.037 -1.376 -.056l-1.405 -.058l-1.377 -.058c-.487 -.021 -.976 -.04 -1.463 -.062l-1.386 -.058l-1.396 -.058c-.452 -.019 -.904 -.036 -1.357 -.056l-1.385 -.058c-.325 -.013 -.648 -.03 -.973 -.04c-.222 -.006 -.44 -.002 -.647 -.002zm43.542 -.004l-.558 .017c-.18 .006 -.36 .012 -.54 .02c-.276 .011 -.55 .03 -.827 .036c-.311 .008 -.622 .027 -.934 .039c-.481 .017 -.962 .037 -1.444 .058c-.297 .014 -.597 .027 -.895 .039a129 129 0 0 0 -1.395 .058c-.45 .02 -.9 .036 -1.35 .056c-.465 .021 -.931 .038 -1.395 .058c-.302 .013 -.603 .027 -.905 .038c-.462 .018 -.924 .037 -1.386 .058c-.417 .02 -.835 .031 -1.252 .047c-.103 .004 -.209 -.002 -.308 .02a3.808 3.808 0 0 0 -.806 .266a5.92 5.92 0 0 0 -1.04 .626a4.04 4.04 0 0 0 -.68 .636c-.11 .14 -.232 .27 -.33 .418c-.225 .34 -.422 .695 -.64 1.04c-.484 .765 -.922 1.558 -1.402 2.325c-.015 .025 -.027 .042 0 .064c.263 .208 .526 .42 .79 .626c.097 .077 .206 .137 .173 .296c-.04 .191 -.076 .386 -.093 .58c-.02 .224 -.071 .442 -.11 .665c-.06 .348 -.141 .694 -.251 1.03c-.018 .05 .002 .07 .05 .077c.06 .008 .114 -.013 .17 -.021c.251 -.039 .607 -.294 .582 -.6c-.004 -.04 .013 -.055 .054 -.055c.05 0 .1 .005 .15 -.014a.887 .887 0 0 0 .53 -.54c.024 -.057 .068 -.113 .068 -.171c0 -.076 .03 -.155 -.008 -.23c-.013 -.025 .018 -.033 .043 -.037a.478 .478 0 0 0 .299 -.189l.11 -.14a.794 .794 0 0 0 .14 -.322c.04 -.174 .096 -.35 -.01 -.522c-.002 -.002 .002 -.006 .006 -.018c.191 .04 .317 -.079 .446 -.193c.151 -.133 .22 -.317 .273 -.5c.039 -.142 .064 -.3 -.035 -.443c.025 -.024 .052 -.016 .076 -.012c.2 .027 .317 -.097 .423 -.236c.09 -.12 .135 -.265 .205 -.396c.067 -.126 .071 -.265 .07 -.404c0 -.044 .005 -.058 .052 -.043c.067 .024 .112 .004 .146 -.065c.03 -.06 .08 -.11 .124 -.16c.311 -.352 .708 -.58 1.121 -.79c.35 -.175 .721 -.312 1.019 -.585a6.01 6.01 0 0 0 .406 -.408a.99 .99 0 0 0 .137 -.213l.108 -.231c.091 -.184 .172 -.374 .31 -.532c.058 -.068 .12 -.106 .212 -.103c.095 .004 .19 -.001 .286 -.011c.254 -.023 .51 -.03 .764 -.043c.385 -.019 .77 -.04 1.154 -.058c.259 -.011 .516 -.02 .775 -.038c.263 -.018 .524 -.027 .787 -.04l.804 -.04l.785 -.038c.293 -.014 .587 -.025 .88 -.043c.202 -.011 .405 -.007 .606 -.021c.27 -.017 .541 -.035 .814 -.048c.263 -.014 .528 -.02 .79 -.03c.296 -.01 .594 -.028 .89 -.053c.067 -.006 .125 .027 .197 .011c.325 -.075 .562 -.284 .798 -.497c.018 -.015 .031 -.034 .021 -.06c-.01 -.023 -.032 -.013 -.05 -.011zm-15.09 6.908c-.005 .112 -.059 .207 -.088 .308c-.052 .181 -.2 .301 -.319 .439c-.036 .042 -.044 .061 -.007 .108c.274 .338 .543 .68 .815 1.02c.02 .026 .049 .035 .078 .027l.176 -.04a.482 .482 0 0 0 .16 -.064c.14 -.097 .304 -.137 .445 -.23c.089 -.058 .164 -.135 .26 -.184c.032 -.015 .059 -.05 .012 -.071c-.095 -.047 -.108 -.184 -.228 -.201c-.013 -.002 -.027 -.018 -.037 -.03c-.108 -.136 -.286 -.204 -.37 -.366c-.01 -.018 -.032 -.02 -.05 -.027c-.125 -.047 -.163 -.194 -.287 -.246c-.017 -.008 -.02 -.062 -.052 -.073c-.116 -.04 -.176 -.147 -.269 -.21c-.08 -.05 -.112 -.171 -.24 -.16zm-13.373 .016a.626 .626 0 0 0 -.15 .108c-.177 .16 -.347 .33 -.534 .476c-.267 .205 -.515 .433 -.766 .655c-.104 .093 -.102 .095 .008 .176c.044 .033 .089 .062 .133 .093c.238 .166 .482 .322 .777 .373c.07 .011 .122 .015 .174 -.053c.254 -.33 .513 -.655 .77 -.982c.025 -.032 .03 -.05 .002 -.088c-.176 -.23 -.344 -.464 -.414 -.758zm-.81 -1.222c-.11 .087 -.22 .176 -.334 .26c-.375 .278 -.745 .56 -1.116 .842c-.064 .048 -.058 .093 .008 .143c.21 .157 .42 .315 .651 .439c.109 .058 .219 .108 .329 .16c.046 -.002 .07 -.025 .097 -.05l.377 -.329c.199 -.175 .398 -.353 .597 -.531c.023 -.02 .056 -.04 .01 -.076c-.283 -.204 -.428 -.492 -.509 -.821c-.021 -.085 -.042 -.09 -.11 -.037zm14.952 -.056c-.066 .188 -.126 .367 -.23 .53a1.328 1.328 0 0 1 -.3 .355c-.058 .045 -.058 .072 .002 .122c.126 .105 .25 .215 .361 .333c.064 .067 .145 .116 .21 .185c.038 .043 .082 .103 .127 .124c.106 .048 .174 .14 .257 .21c.044 .04 .068 .049 .12 .035a1.23 1.23 0 0 0 .382 -.156c.045 -.03 .116 -.002 .14 -.046c.038 -.07 .108 -.087 .16 -.13c.06 -.048 .12 -.093 .176 -.143c.046 -.04 .081 -.093 .131 -.126c.07 -.044 .06 -.077 .004 -.121l-1.138 -.876c-.128 -.097 -.263 -.193 -.402 -.296zm-15.733 -1.036a4.508 4.508 0 0 0 -.59 .344c-.12 .086 -.243 .171 -.372 .25l-.196 .112c-.098 .054 -.102 .07 -.038 .158c.148 .21 .342 .371 .564 .5c.095 .057 .19 .109 .302 .153c.02 -.013 .048 -.029 .073 -.046c.27 -.193 .526 -.408 .806 -.59c.145 -.094 .141 -.098 .023 -.208l-.021 -.022c-.174 -.166 -.255 -.392 -.375 -.591c-.068 -.114 -.062 -.12 -.176 -.06zm16.504 -.085c-.043 .002 -.05 .025 -.06 .056c-.03 .089 -.06 .18 -.1 .263a1.328 1.328 0 0 1 -.381 .483c-.023 .018 -.056 .04 -.012 .076c.128 .1 .244 .216 .38 .301c.186 .116 .357 .25 .529 .383c.044 .035 .073 .039 .118 .017c.133 -.065 .268 -.127 .388 -.218c.166 -.128 .317 -.273 .443 -.44c.027 -.038 .036 -.057 -.014 -.088c-.425 -.263 -.856 -.522 -1.264 -.814c-.012 -.01 -.021 -.015 -.027 -.019zm-10.139 -.09c-.092 .204 -.187 .409 -.282 .614c-.033 .071 -.104 .145 -.098 .212c.007 .082 .12 .1 .187 .144c.012 .007 .016 .023 .033 .03c.307 .147 .61 .298 .918 .443c.255 .118 .526 .184 .79 .191h.124c.02 0 .049 -.001 .031 -.029c-.034 -.058 -.032 -.133 -.067 -.183c-.087 -.128 -.134 -.273 -.197 -.41c-.107 -.228 -.198 -.464 -.316 -.688a.117 .117 0 0 0 -.077 -.064a22.824 22.824 0 0 1 -.512 -.176c-.14 -.05 -.276 -.108 -.423 -.139c-.064 -.013 -.087 .004 -.11 .054zm3.706 -.057l-.074 .018l-.14 .052c-.211 .073 -.422 .147 -.633 .216a.151 .151 0 0 0 -.096 .085c-.058 .126 -.118 .25 -.178 .373c-.141 .288 -.282 .576 -.425 .864c-.027 .053 -.026 .085 .061 .083c.06 -.042 .147 -.013 .229 -.027c.204 -.032 .396 -.104 .591 -.168c.42 -.135 .822 -.303 1.16 -.597c.021 -.02 .054 -.031 .035 -.068c-.043 -.077 -.087 -.152 -.128 -.232c-.075 -.15 -.149 -.303 -.222 -.456c-.004 -.006 .006 -.017 .004 -.027c-.024 -.106 -.078 -.131 -.184 -.116zm-9.2 -3.77l.034 .02a4.826 4.826 0 0 1 1.678 1.336c.197 .241 .344 .516 .504 .785c.447 .746 .897 1.492 1.345 2.238c.134 .222 .265 .448 .41 .663c.037 .056 .068 .066 .13 .023c.152 -.11 .295 -.23 .439 -.352c.04 -.034 .036 -.071 .027 -.12c-.016 -.077 -.062 -.13 -.099 -.195c-.14 -.245 -.278 -.489 -.414 -.736c-.137 -.25 -.303 -.481 -.433 -.733c-.282 -.541 -.552 -1.09 -.92 -1.585a3.39 3.39 0 0 0 -.827 -.8a3.365 3.365 0 0 0 -1.214 -.503c-.213 -.048 -.427 -.087 -.66 -.04zm14.13 .045c-.397 .093 -.776 .23 -1.12 .454c-.253 .167 -.497 .348 -.667 .6c-.234 .346 -.45 .701 -.665 1.057c-.276 .456 -.547 .918 -.816 1.378c-.2 .344 -.406 .686 -.58 1.044c-.019 .04 -.052 .081 .002 .12c.153 .108 .298 .224 .441 .346c.025 .021 .052 .042 .08 -.012c.096 -.191 .235 -.355 .343 -.543c.167 -.29 .348 -.57 .526 -.852c.257 -.412 .512 -.826 .771 -1.235c.271 -.428 .503 -.878 .863 -1.25c.135 -.138 .27 -.276 .411 -.409a4.35 4.35 0 0 1 .574 -.435c.174 -.118 .364 -.21 .567 -.328a2.437 2.437 0 0 0 -.73 .065zm-6.156 -.41l-.077 .04c-.137 .073 -.278 .14 -.412 .221c-.199 .122 -.367 .286 -.562 .414c-.072 .046 -.126 .045 -.176 -.015a.647 .647 0 0 0 -.251 -.174c-.132 -.05 -.267 -.091 -.397 -.143c-.373 -.155 -.765 -.223 -1.165 -.258c-.311 -.027 -.553 .113 -.764 .321c-.037 .039 -.081 .072 -.115 .113l-.041 .07c.09 .018 .152 -.055 .23 -.074a2.39 2.39 0 0 1 .734 -.058c.124 .005 .246 .04 .375 .11c-.3 .013 -.58 -.018 -.856 .025c.323 .073 .648 .137 .959 .245c.238 .084 .779 .445 .808 .536c-.246 -.081 -.437 -.286 -.714 -.313c.002 .013 .002 .023 .004 .03c.004 .012 .008 .026 .016 .035a1.9 1.9 0 0 1 .313 .689c.087 .344 .102 .69 .064 1.038a3.699 3.699 0 0 1 -.201 .885c-.047 .122 -.037 .133 .083 .174c.313 .104 .624 .209 .937 .311c.035 .012 .05 .035 .066 .064c.145 .294 .29 .59 .439 .881c.033 .066 .048 .184 .112 .182c.087 0 .11 -.116 .15 -.19c.155 -.287 .275 -.595 .441 -.877c.02 -.035 .037 -.066 .076 -.08c.2 -.07 .402 -.144 .605 -.214c.149 -.052 .3 -.102 .448 -.156c.05 -.018 .09 -.039 .058 -.112c-.038 -.093 -.056 -.194 -.08 -.292c-.098 -.354 -.138 -.721 -.22 -1.077c-.096 -.425 -.142 -.854 -.208 -1.284a3.254 3.254 0 0 0 -.307 -.953c-.107 -.214 -.159 -.224 -.372 -.114zm12.065 3.411c-.24 .006 -.468 .008 -.696 .018c-.618 .025 -1.237 .04 -1.855 .058c-.33 .01 -.663 .017 -.994 .027c-.021 0 -.042 -.004 -.066 .007a1.316 1.316 0 0 0 -.326 .227c-.023 .02 -.062 .038 -.049 .092c.182 -.025 .362 .002 .546 -.015c.237 -.025 .479 -.004 .719 -.023c.197 -.016 .396 -.008 .595 -.016c.568 -.023 1.137 -.052 1.707 -.044c.075 .002 .168 .011 .226 -.049c.071 -.08 .143 -.164 .193 -.282zm-25.225 -.021c.07 .108 .123 .201 .185 .288c.016 .023 .039 .048 .08 .044c.204 -.02 .41 .012 .612 .02c.29 .011 .582 .02 .872 .03c.246 .01 .491 .02 .738 .022c.176 0 .352 .01 .528 .02c.172 .009 .348 .005 .52 .003c.15 0 .304 .047 .487 0c-.125 -.116 -.237 -.224 -.386 -.269c-.201 -.058 -.414 -.038 -.62 -.052c-.503 -.033 -1.008 -.023 -1.51 -.056c-.267 -.017 -.534 -.02 -.8 -.023c-.23 -.004 -.459 0 -.706 -.027zm-.551 -.686c.116 .18 .21 .4 .502 .334c.01 -.002 .02 0 .03 .002c.272 .03 .548 .027 .823 .037c.27 .008 .543 .037 .816 .023c.156 -.008 .31 .025 .467 .02a2.23 2.23 0 0 1 .431 .019c.12 .017 .248 .002 .372 .002a4.884 4.884 0 0 0 -.472 -.315a.105 .105 0 0 0 -.054 -.012c-.458 -.04 -.916 -.048 -1.375 -.075a26.894 26.894 0 0 0 -.788 -.035c-.25 -.004 -.499 0 -.752 0zm26.188 -.012c-.53 .016 -1.06 .037 -1.589 .06c-.325 .016 -.648 .033 -.972 .045c-.197 .005 -.387 .036 -.541 .174c-.066 .06 -.157 .086 -.225 .17c.045 0 .078 .002 .109 0c.363 -.022 .726 -.016 1.09 -.033a72.75 72.75 0 0 1 1.867 -.064c.102 -.002 .184 -.02 .232 -.116c.042 -.081 .14 -.128 .149 -.236c-.043 0 -.081 -.002 -.12 0zm3.033 -.127c-.238 .005 -.476 .01 -.713 .02c-.23 .01 -.462 .022 -.692 .041c-.078 .006 -.165 .004 -.227 .066a.778 .778 0 0 1 -.351 .203c-.055 .016 -.134 .016 -.151 .099h.326c.482 0 .963 -.023 1.442 -.047a.253 .253 0 0 0 .118 -.034a.997 .997 0 0 0 .286 -.27c.014 -.018 .041 -.04 .031 -.065c-.011 -.029 -.046 -.013 -.07 -.013zm-32.192 -.018a.885 .885 0 0 0 .247 .273c.05 .04 .105 .098 .176 .102c.114 .006 .23 .023 .344 .021c.25 -.003 .499 .03 .748 .024c.224 -.004 .453 .017 .688 -.02c-.058 -.03 -.116 -.065 -.175 -.094c-.11 -.055 -.223 -.099 -.29 -.211c-.018 -.03 -.045 -.043 -.082 -.043c-.118 -.003 -.237 -.011 -.355 -.017c-.228 -.012 -.455 -.027 -.683 -.033c-.205 -.006 -.408 -.002 -.618 -.002zm2.236 -.564c-.174 0 -.272 .098 -.272 .27c0 .153 .121 .285 .26 .28c.157 -.001 .294 -.137 .293 -.285a.272 .272 0 0 0 -.28 -.265zm27.831 -.02c-.18 -.005 -.317 .12 -.315 .292a.264 .264 0 0 0 .277 .267c.156 .002 .267 -.112 .265 -.274c0 -.13 -.12 -.28 -.227 -.285zm-.55 -.058h-.062l-.729 .042c-.121 .006 -.242 .01 -.363 .013c-.35 .005 -.7 .019 -1.05 .023c-.128 .002 -.215 .044 -.278 .156c-.04 .07 -.099 .126 -.147 .192c-.02 .027 -.076 .034 -.064 .073c.013 .04 .064 .008 .095 .023a.087 .087 0 0 0 .038 .002c.196 -.05 .395 -.004 .592 -.035c.106 -.015 .22 .014 .326 -.007c.232 -.047 .466 -.033 .698 -.052c.255 -.022 .513 -.004 .768 -.024c.044 -.004 .077 -.011 .079 -.06a.811 .811 0 0 1 .097 -.346zm-26.714 -.019c-.05 .004 -.08 .01 -.045 .072c.049 .085 .068 .181 .09 .278c.013 .06 .044 .083 .1 .077c.199 -.023 .396 .014 .593 .02c.236 .007 .472 .023 .708 .03c.222 .01 .446 .03 .67 .026c.168 -.006 .337 .025 .524 .01c-.07 -.082 -.137 -.148 -.19 -.225c-.096 -.145 -.218 -.224 -.401 -.193c-.037 .006 -.076 -.012 -.114 -.012c-.459 -.021 -.919 -.046 -1.377 -.06c-.185 -.006 -.37 -.034 -.558 -.023zm32.097 -.238l-4.396 .198l.045 .05c.083 .096 .16 .193 .164 .33c.002 .03 .025 .072 .072 .06c.199 -.04 .4 -.013 .6 -.033c.271 -.025 .544 -.029 .816 -.042c.285 -.014 .57 -.035 .855 -.039c.166 -.002 .33 -.021 .497 -.025c.222 -.004 .442 -.048 .665 -.054c.313 -.006 .506 -.186 .682 -.445zm-37.512 .008c.114 .209 .271 .356 .513 .38c.34 .036 .68 .08 1.022 .096c.28 .013 .56 .029 .841 .044c.242 .014 .485 .017 .727 .033c.334 .023 .672 .013 1.009 .021c.071 .002 .12 -.01 .135 -.093a.88 .88 0 0 1 .074 -.206c.04 -.087 .005 -.101 -.074 -.103c-.375 -.015 -.75 -.035 -1.125 -.052l-1.453 -.065c-.229 -.01 -.457 -.021 -.683 -.029c-.327 -.011 -.653 -.04 -.986 -.027zm38.678 -.899c-.424 .025 -.847 .047 -1.27 .066c-.432 .02 -.86 .035 -1.292 .052c-.481 .021 -.962 .045 -1.444 .064c-.651 .027 -1.302 .052 -1.956 .08l-1.792 .075c-.205 .007 -.411 .017 -.616 .025c-.04 .002 -.074 .006 -.093 .05c-.054 .131 -.14 .244 -.21 .365c-.016 .027 -.045 .058 -.03 .087c.018 .031 .058 .016 .09 .014c.504 -.025 1.01 -.025 1.517 -.056c.278 -.018 .556 -.027 .835 -.039l.918 -.039c.28 -.01 .56 -.02 .84 -.038c.302 -.02 .602 -.027 .903 -.04c.265 -.012 .532 -.026 .797 -.04l1.239 -.057c.4 -.02 .8 -.047 1.2 -.058a.581 .581 0 0 0 .4 -.157c.085 -.081 .19 -.149 .244 -.261c.01 -.021 .052 -.037 .04 -.066c-.013 -.038 -.054 -.023 -.085 -.025c-.075 -.002 -.156 -.002 -.235 -.002zm-39.816 -.02c-.1 0 -.2 .003 -.3 0c-.058 -.001 -.071 .024 -.042 .069c.089 .14 .199 .262 .344 .35a.802 .802 0 0 0 .413 .108c.25 .005 .497 .02 .747 .033c.197 .01 .396 .013 .593 .023l.717 .035c.197 .01 .396 .017 .594 .025c.231 .01 .465 .02 .697 .033c.197 .01 .397 .017 .594 .025c.23 .01 .46 .02 .688 .033c.2 .01 .402 .015 .603 .025c.23 .011 .46 .02 .688 .032c.201 .01 .402 .016 .603 .026c.232 .011 .466 .023 .698 .032c.226 .01 .454 .033 .68 .024c.09 -.004 .176 .033 .267 .017c.052 -.008 .072 -.012 .039 -.066c-.074 -.121 -.141 -.247 -.21 -.375c-.022 -.038 -.043 -.054 -.09 -.056c-.305 -.013 -.609 -.034 -.912 -.05c-.568 -.029 -1.135 -.054 -1.703 -.081l-1.135 -.054l-1.79 -.081l-1.144 -.055c-.547 -.023 -1.094 -.044 -1.64 -.065v-.006zm19.05 -1.366c-.139 0 -.272 .043 -.408 .06c-.249 .031 -.355 .2 -.429 .404c-.042 .12 -.013 .226 .09 .311c.042 .035 .098 .049 .137 .084c.125 .116 .25 .087 .378 .01a.537 .537 0 0 1 .275 -.076c.172 0 .34 .015 .51 .054c.122 .027 .234 -.03 .342 -.085c.159 -.083 .339 -.126 .462 -.27c.043 -.051 .045 -.084 -.015 -.119a1.94 1.94 0 0 0 -.495 -.214a3.986 3.986 0 0 0 -.847 -.159z"/></svg>