<?xml version="1.0" encoding="UTF-8"?>
<svg width="48px" height="48px" viewBox="0 0 48 48" version="1.1" xmlns="http://www.w3.org/2000/svg" xmlns:xlink="http://www.w3.org/1999/xlink">
    <title>amao-wama</title>
    <g id="Page-1" stroke="none" stroke-width="1" fill="none" fill-rule="evenodd">
        <g id="amao-wama">
            <rect id="Rectangle" x="0" y="0" width="48" height="48"></rect>
            <path d="M10.1456566,21.094471 L12.3188808,21.094471 L8.82282445,12.11811 L6.31889218,12.11811 L2.8228358,21.094471 L4.94881603,21.094471 L5.5866101,19.3228208 L9.50786252,19.3228208 L10.1456566,21.094471 Z M6.22440417,17.5747926 L7.54723631,13.8897602 L8.87006845,17.5747926 L6.22440417,17.5747926 Z M24.3188813,12.11811 L21.366131,12.11811 L19.0039307,18.6141607 L16.6181085,12.11811 L13.6417362,12.11811 L13.6417362,21.094471 L15.6259844,21.094471 L15.6259844,14.7637743 L17.9409406,21.094471 L20.0196769,21.094471 L22.3346331,14.7637743 L22.3346331,21.094471 L24.3188813,21.094471 L24.3188813,12.11811 Z M32.9645655,21.094471 L35.1377897,21.094471 L31.6417333,12.11811 L29.137801,12.11811 L25.6417447,21.094471 L27.7677249,21.094471 L28.405519,19.3228208 L32.3267714,19.3228208 L32.9645655,21.094471 Z M29.043313,17.5747926 L30.3661452,13.8897602 L31.6889773,17.5747926 L29.043313,17.5747926 Z M40.0511889,21.212581 C42.7204751,21.212581 44.5157473,19.3700648 44.5157473,16.6062905 C44.5157473,13.8188942 42.7440971,12 40.0511889,12 C37.3819026,12 35.5866304,13.8425162 35.5866304,16.6062905 C35.5866304,19.3936868 37.3582806,21.212581 40.0511889,21.212581 Z M40.0511889,19.4645528 C38.6102467,19.4645528 37.6653666,18.3306967 37.6653666,16.6062905 C37.6653666,14.8818843 38.6102467,13.7480282 40.0511889,13.7480282 C41.492131,13.7480282 42.4370111,14.8818843 42.4370111,16.6062905 C42.4370111,18.3306967 41.492131,19.4645528 40.0511889,19.4645528 Z M3.57873622,26.9002695 L5.2322764,33.1837222 L6.98030459,26.9002695 L8.9409308,26.9002695 L10.688959,33.1364782 L12.4133652,26.9002695 L14.4448574,26.9002695 L11.8464371,35.8766305 L9.72045689,35.8766305 L7.94880669,29.6876658 L6.20077851,35.8766305 L4.07479828,35.8766305 L1.5,26.9002695 L3.57873622,26.9002695 Z M20.1850348,26.9002695 L23.6810911,35.8766305 L21.5078669,35.8766305 L20.8700728,34.1049803 L16.9488204,34.1049803 L16.3110263,35.8766305 L14.1850461,35.8766305 L17.6811025,26.9002695 L20.1850348,26.9002695 Z M18.9094466,28.6719197 L17.5866145,32.3569521 L20.2322788,32.3569521 L18.9094466,28.6719197 Z M35.6810916,26.9002695 L32.7283413,26.9002695 L30.3661411,33.3963202 L27.9803188,26.9002695 L25.0039465,26.9002695 L25.0039465,35.8766305 L26.9881947,35.8766305 L26.9881947,29.5459338 L29.3031509,35.8766305 L31.3818872,35.8766305 L33.6968434,29.5459338 L33.6968434,35.8766305 L35.6810916,35.8766305 L35.6810916,26.9002695 Z M44.3267758,35.8766305 L46.5,35.8766305 L43.0039436,26.9002695 L40.5000114,26.9002695 L37.003955,35.8766305 L39.1299352,35.8766305 L39.7677293,34.1049803 L43.6889817,34.1049803 L44.3267758,35.8766305 Z M40.4055233,32.3569521 L41.7283555,28.6719197 L43.0511876,32.3569521 L40.4055233,32.3569521 Z" id="Combined-Shape" fill="#000000" fill-rule="nonzero"></path>
        </g>
    </g>
</svg>