<?xml version="1.0" encoding="UTF-8"?>
<svg width="48px" height="48px" viewBox="0 0 48 48" version="1.1" xmlns="http://www.w3.org/2000/svg" xmlns:xlink="http://www.w3.org/1999/xlink">
    <title>amcb</title>
    <g id="Page-1" stroke="none" stroke-width="1" fill="none" fill-rule="evenodd">
        <g id="amcb" fill-rule="nonzero">
            <rect id="Rectangle" x="0" y="0" width="48" height="48"></rect>
            <path d="M23.9999997,33.6428566 C29.3256025,33.6428566 33.6428565,29.3256026 33.6428565,23.9999998 C33.6428565,18.674397 29.3256025,14.3571429 23.9999997,14.3571429 C18.6743969,14.3571429 14.3571428,18.674397 14.3571428,23.9999998 C14.3571428,29.3256026 18.6743969,33.6428566 23.9999997,33.6428566 Z M1.50000013,1.5 L33.6428565,1.5 L33.6428565,13.3124997 L1.50000013,13.3124997 L1.50000013,1.5 Z M13.3124998,14.3571423 L13.3124998,46.4999989 L1.49999945,46.4999989 L1.49999945,14.3571423 L13.3124998,14.3571423 Z M14.3571428,34.6874994 L46.4999995,34.6874994 L46.4999995,46.4999991 L14.3571428,46.4999991 L14.3571428,34.6874994 Z M46.500001,1.5000011 L46.500001,33.6428571 L34.6875003,33.6428571 L34.6875003,1.5000011 L46.500001,1.5000011 Z" id="Combined-Shape" fill="#CBA954"></path>
        </g>
    </g>
</svg>