<?xml version="1.0" encoding="UTF-8"?>
<svg width="48px" height="48px" viewBox="0 0 48 48" version="1.1" xmlns="http://www.w3.org/2000/svg" xmlns:xlink="http://www.w3.org/1999/xlink">
    <title>anz</title>
    <g id="Page-1" stroke="none" stroke-width="1" fill="none" fill-rule="evenodd">
        <g id="anz">
            <rect id="Rectangle" x="0" y="0" width="48" height="48"></rect>
            <path d="M45.2342325,39.352 L39.8742325,39.352 L42.0742325,36.526 L36.1192325,36.526 L33.9972325,39.248 C33.2042325,40.329 33.1272325,41.421 33.1272325,42.178 L33.1272325,42.607 C33.1272325,43.102 33.4412325,43.371 33.9072325,43.371 L45.2352325,43.371 C45.6922325,43.371 46.0002325,43.125 46.0002325,42.621 L46.0002325,40.104 C46.0002325,39.598 45.6922325,39.352 45.2352325,39.352 M14.7252325,29.367 C14.6392325,28.893 14.3102325,28.6599809 13.8832325,28.6599809 L12.3682325,28.6599809 C10.8508267,28.6555505 9.43681797,29.4284061 8.62123251,30.708 C8.62123251,30.708 7.17623251,32.964 5.55623251,35.503 L15.8392325,35.503 L14.7232325,29.367 L14.7252325,29.367 Z M31.6632325,29.409 C31.6632325,28.906 31.3562325,28.66 30.8952325,28.66 L27.8122325,28.66 C27.3552325,28.66 27.0472325,28.906 27.0472325,29.41 L27.0472325,35.113 L24.1252325,29.985 C23.5402325,29.04 22.5572325,28.681 21.4092325,28.66 L19.1302325,28.66 C18.6782325,28.66 18.3692325,28.906 18.3692325,29.41 L18.3692325,35.507 L22.1992325,35.507 L22.7892325,36.526 L18.3692325,36.526 L18.3692325,42.622 C18.3692325,43.125 18.6782325,43.375 19.1302325,43.375 L22.2212325,43.375 C22.6812325,43.375 22.9852325,43.125 22.9852325,42.622 L22.9832325,36.882 L25.9332325,42.052 C26.5112325,42.992 27.4982325,43.351 28.6382325,43.375 L30.8952325,43.375 C31.3552325,43.375 31.6632325,43.125 31.6632325,42.622 L31.6632325,36.526 L27.8602325,36.526 L27.2732325,35.506 L31.6632325,35.506 L31.6632325,29.41 L31.6632325,29.409 Z M16.0232325,36.526 L10.9432325,36.526 C11.0732325,37.219 12.0102325,42.374 12.0662325,42.674 C12.1522325,43.138 12.4482325,43.375 12.8832325,43.375 L16.3772325,43.375 C16.6972325,43.375 16.8582325,43.277 17.0092325,43.098 C17.1112325,42.974 17.1542325,42.786 17.1062325,42.51 L16.0222325,36.526 L16.0232325,36.526 Z M1.11223251,42.453 C0.97323251,42.683 0.97323251,42.926 1.05823251,43.083 C1.15523251,43.267 1.37223251,43.375 1.60623251,43.375 L5.23523251,43.375 C5.67867626,43.3748481 6.09145512,43.148668 6.33023251,42.775 L10.3342325,36.525 L4.90223251,36.525 C3.03723251,39.443 1.15923251,42.385 1.11223251,42.453 M34.0102325,32.673 L39.1152325,32.673 L36.9132325,35.503 L42.8662325,35.503 L45.0372325,32.716 C45.7072325,31.854 45.8632325,31.083 45.8632325,30.4 L45.8632325,29.43 C45.8632325,28.932 45.5552325,28.66 45.0852325,28.66 L34.0092325,28.66 C33.5522325,28.66 33.2472325,28.906 33.2472325,29.41 L33.2472325,31.927 C33.2472325,32.428 33.5522325,32.673 34.0092325,32.673 M23.4492325,10.33 C24.4912325,10.33 25.6782325,11.213 25.6782325,12.433 C25.6782325,13.121 25.4532325,13.652 25.1232325,14.137 C24.9281372,14.4187873 24.7795777,14.7300868 24.6832325,15.059 C24.6112325,15.349 24.4542325,16.054 25.3362325,16.066 C25.9102325,16.08 27.3222325,15.592 28.4632325,14.25 C29.3709486,13.1385564 29.8656584,11.7470085 29.8632414,10.312 C29.8622325,6.827 26.9932325,4 23.4472325,4 C19.9012325,4 17.0272325,6.827 17.0272325,10.312 C17.0272325,11.804 17.5482325,13.172 18.4272325,14.25 C19.5692325,15.592 20.9812325,16.08 21.5542325,16.066 C22.4362325,16.054 22.2762325,15.35 22.2082325,15.059 C22.1133059,14.7295464 21.9646403,14.4180244 21.7682325,14.137 C21.4382325,13.652 21.2122325,13.121 21.2122325,12.433 C21.2152325,11.213 22.4002325,10.33 23.4472325,10.33 M34.7932325,16.71 C34.5302325,16.497 34.0692325,16.187 33.1232325,16.045 C31.8082325,15.853 30.6362325,16.154 29.9302325,16.427 C29.0022325,16.786 27.8582325,17.601 27.0692325,18.662 C26.2352325,19.784 25.8042325,21.477 26.2172325,23.242 C26.3040189,23.6365367 26.4496475,24.0157779 26.6492325,24.367 C26.8962325,24.841 27.5472325,25.501 28.1162325,25.621 C28.5662325,25.711 28.9182325,25.459 29.0912325,25.268 C30.2382325,23.971 34.5872325,18.946 35.0582325,18.305 C35.5212325,17.667 35.2182325,17.055 34.7932325,16.71 M16.9632325,16.427 C16.2562325,16.154 15.0852325,15.853 13.7712325,16.045 C12.8242325,16.187 12.3592325,16.497 12.0992325,16.71 C11.6742325,17.055 11.3692325,17.667 11.8342325,18.305 C12.3042325,18.946 16.6512325,23.971 17.7982325,25.268 C17.9712325,25.458 18.3232325,25.711 18.7742325,25.621 C19.3462325,25.501 19.9942325,24.841 20.2402325,24.367 C20.4408947,24.01586 20.5878569,23.6366573 20.6762325,23.242 C21.0882325,21.477 20.6502325,19.784 19.8252325,18.662 C19.0342325,17.601 17.8892325,16.786 16.9622325,16.427" id="Shape" fill="#007DBA" fill-rule="nonzero"></path>
        </g>
    </g>
</svg>