<?xml version="1.0" encoding="UTF-8"?>
<svg width="48px" height="48px" viewBox="0 0 48 48" version="1.1" xmlns="http://www.w3.org/2000/svg" xmlns:xlink="http://www.w3.org/1999/xlink">
    <title>Group</title>
    <g id="Page-1" stroke="none" stroke-width="1" fill="none" fill-rule="evenodd">
        <g id="Group">
            <rect id="Rectangle" x="0" y="0" width="48" height="48"></rect>
            <path d="M24,1.5 C36.4264069,1.5 46.5,11.5735931 46.5,24 C46.5,36.4264069 36.4264069,46.5 24,46.5 C11.5735931,46.5 1.5,36.4264069 1.5,24 C1.5,11.5735931 11.5735931,1.5 24,1.5 Z M24.0052957,4.63636364 C13.3081299,4.63636364 4.63636364,13.3081299 4.63636364,24.0052957 C4.63636364,34.7024615 13.3081299,43.3742277 24.0052957,43.3742277 C34.7024615,43.3742277 43.3742277,34.7024615 43.3742277,24.0052957 C43.3742277,13.3081299 34.7024615,4.63636364 24.0052957,4.63636364 Z M12.2121069,24.2671799 L12.2121069,27.526388 C12.7592732,26.8840623 13.5205481,26.5272147 14.424562,26.5272147 C16.2801695,26.5272147 17.4696615,27.9783949 17.4696615,30.2146399 C17.4696615,32.427095 16.2325898,33.902065 14.424562,33.902065 C13.4491785,33.902065 12.640324,33.4976378 12.1169475,32.8077324 L12.0217881,33.7831158 L10.3089197,33.7831158 L10.3089197,24.2671799 L12.2121069,24.2671799 Z M24.5590634,26.6461639 L24.5590634,30.7380164 C24.5590634,31.7609795 25.0348602,32.3319356 25.8437148,32.3319356 C26.7477287,32.3319356 27.4852137,31.6658201 27.4852137,30.7142265 L27.4852137,26.6461639 L29.3884009,26.6461639 L29.3884009,33.7831158 L27.6755325,33.7831158 L27.6041629,32.7839426 C27.0569966,33.4738479 26.2005624,33.902065 25.225179,33.902065 C23.7026292,33.902065 22.6558763,32.8077324 22.6558763,31.1662335 L22.6558763,26.6461639 L24.5590634,26.6461639 Z M34.4556572,26.5272147 C36.6205327,26.5272147 38.0003434,27.9783949 38.0003434,30.2146399 C38.0003434,30.3573789 38.0003434,30.500118 37.9289738,30.8331757 L32.7189989,30.8331757 C32.9093176,31.7847693 33.5754332,32.3319356 34.5983963,32.3319356 C35.4548305,32.3319356 36.0971562,32.0226677 36.5491631,31.5230811 L37.7148653,32.6649934 C37.0011701,33.4262683 35.9544171,33.902065 34.5746064,33.902065 C32.1004631,33.902065 30.8396016,32.3319356 30.8396016,30.2146399 C30.8396016,28.0259746 32.266992,26.5272147 34.4556572,26.5272147 Z M20.8240494,24.2671799 L20.8240494,33.7831158 L18.9208622,33.7831158 L18.9208622,24.2671799 L20.8240494,24.2671799 Z M13.829816,28.0973441 C12.7592732,28.0973441 12.1407373,28.9061987 12.1407373,30.2146399 C12.1407373,31.5230811 12.7592732,32.3319356 13.829816,32.3319356 C14.9003588,32.3319356 15.5426844,31.5230811 15.5426844,30.2146399 C15.5426844,28.9061987 14.9003588,28.0973441 13.829816,28.0973441 Z M34.4556572,28.0497645 C33.5754332,28.0497645 32.9568973,28.5731409 32.7427888,29.453365 L36.0971562,29.453365 C35.9068375,28.5493511 35.3358813,28.0497645 34.4556572,28.0497645 Z M14.1152872,14.1168241 L14.1152872,23.63276 L12.4024188,23.63276 L12.3072594,22.6335867 C11.7600931,23.3472819 10.9750284,23.7517092 9.99964495,23.7517092 C8.14403745,23.7517092 6.95454545,22.300529 6.95454545,20.064284 C6.95454545,17.8518289 8.19161713,16.3768588 9.99964495,16.3768588 C10.9274487,16.3768588 11.6649337,16.7337064 12.2121001,17.3284524 L12.2121001,14.1168241 L14.1152872,14.1168241 Z M19.3014929,16.3768588 C21.5615276,16.3768588 23.0364977,17.8280391 23.0364977,20.064284 C23.0364977,22.2767391 21.5377378,23.7517092 19.3014929,23.7517092 C17.0414581,23.7517092 15.566488,22.300529 15.566488,20.064284 C15.566488,17.8518289 17.0652479,16.3768588 19.3014929,16.3768588 Z M31.1726522,16.3768588 C33.0282597,16.3768588 34.1225923,17.2808728 34.1225923,18.7796327 L34.1225923,21.5868338 C34.1225923,21.848522 34.2653314,21.991261 34.5270196,21.991261 L34.8124977,21.991261 L34.8124977,23.63276 C34.6697586,23.6565498 34.4794399,23.6803397 34.1225923,23.6803397 C33.2423683,23.6803397 32.7665715,23.3472819 32.6238324,22.6097969 C32.1242458,23.3234921 31.196442,23.7517092 30.1496891,23.7517092 C28.7460885,23.7517092 27.8182848,22.9190648 27.8182848,21.6819931 C27.8182848,19.8263856 29.5549431,19.4933279 30.8871741,19.326799 C31.6960287,19.2316396 32.3383543,19.1126904 32.3383543,18.6844733 C32.3383543,18.2324664 31.8625575,17.9231984 31.053703,17.9231984 C30.316218,17.9231984 29.6501024,18.2086765 29.1029361,18.7558428 L27.9610238,17.5901407 C28.817458,16.7812861 29.8880008,16.3768588 31.1726522,16.3768588 Z M26.3908852,14.1168241 L26.3908852,23.63276 L24.487698,23.63276 L24.487698,14.1168241 L26.3908852,14.1168241 Z M40.4031289,16.4006487 C40.6172374,16.4006487 40.831346,16.4244385 41.0454545,16.4720182 L41.0216647,18.2324664 C40.6172374,18.1848867 40.2128102,18.1610968 39.8797524,18.1610968 C38.8329994,18.1610968 38.1430941,18.6606835 38.1430941,19.7550161 L38.1430941,23.63276 L36.2399069,23.63276 L36.2399069,16.495808 L37.9527754,16.495808 L38.0479347,17.5663508 C38.5237315,16.8526556 39.3801658,16.4006487 40.4031289,16.4006487 Z M32.2907747,20.2308129 C32.0052966,20.3973418 31.6008693,20.4687113 31.0774928,20.5638707 C30.3400078,20.6828199 29.6501024,20.8017691 29.6501024,21.4916744 C29.6501024,21.9674712 29.9831602,22.2529493 30.5779062,22.2529493 C31.5294998,22.2529493 32.2907747,21.6344134 32.2907747,20.8493487 Z M10.5943909,17.9469883 C9.52384815,17.9469883 8.88152248,18.7558428 8.88152248,20.064284 C8.88152248,21.3727252 9.52384815,22.1815798 10.5943909,22.1815798 C11.6649337,22.1815798 12.2834696,21.3727252 12.2834696,20.064284 C12.2834696,18.7558428 11.6649337,17.9469883 10.5943909,17.9469883 Z M19.3014929,17.9469883 C18.2071602,17.9469883 17.5172549,18.732053 17.5172549,20.064284 C17.5172549,21.396515 18.2071602,22.1815798 19.3014929,22.1815798 C20.3958255,22.1815798 21.0857308,21.396515 21.0857308,20.064284 C21.0857308,18.732053 20.3958255,17.9469883 19.3014929,17.9469883 Z M21.4425784,14.0454545 L19.9913982,15.9248519 L18.682957,15.9248519 L19.3966522,14.0454545 L21.4425784,14.0454545 Z" id="Combined-Shape" fill="#737373"></path>
        </g>
    </g>
</svg>