<?xml version="1.0" encoding="UTF-8"?>
<svg width="48px" height="48px" viewBox="0 0 48 48" version="1.1" xmlns="http://www.w3.org/2000/svg" xmlns:xlink="http://www.w3.org/1999/xlink">
    <title>arcb</title>
    <g id="Page-1" stroke="none" stroke-width="1" fill="none" fill-rule="evenodd">
        <g id="arcb">
            <rect id="Rectangle" x="0" y="0" width="48" height="48"></rect>
            <path d="M21.6292143,1.55211366 C21.4919851,1.57565819 20.9300847,1.66504763 20.3807686,1.75044648 C2.3576075,4.5552399 -4.86360206,26.9391157 8.08607554,39.8598814 C20.8915327,52.6365863 42.4267215,46.02057 46.1522831,28.1652277 C46.7008001,25.5368188 46.5893389,21.3899865 45.8958026,18.6233032 C43.7019337,9.86932286 36.935358,3.54521896 27.8714427,1.7771835 C26.8195523,1.57206663 22.4330136,1.41383933 21.6292143,1.55211366 M25.8693353,1.99287543 C41.2174268,3.26288399 50.6115311,19.7560351 43.8527456,33.5663057 C36.2755795,49.0488371 14.9617153,50.3501719 5.45315351,35.9107834 C-4.52921835,20.752089 7.66919452,0.486822893 25.8693353,1.99287543 M22.8938398,2.93026746 C21.309812,3.62981972 21.7322859,5.6819859 23.4605343,5.6819859 C24.2477542,5.6819859 24.5038354,5.58860591 24.6184926,5.26017949 C24.7796919,4.79826746 24.6464578,4.74758685 24.2829104,5.13267979 C23.5566146,5.90206755 22.5280952,5.36373555 22.5280952,4.2142431 C22.5280952,3.12401114 23.537039,2.60483402 24.2279788,3.33970307 C24.4902523,3.61844648 24.6300782,3.58532452 24.5533737,3.2626845 C24.4427115,2.79638282 23.5853789,2.62478703 22.8938398,2.93026746 M25.4812185,2.9775561 C25.4506566,3.02683998 25.4979976,3.09487975 25.5864874,3.12879985 C25.7241161,3.1816753 25.7369002,3.30139332 25.675177,3.95924374 C25.5687096,5.0935719 25.5379479,5.21628289 25.3114299,5.40683404 C25.055948,5.62152832 25.0763226,5.62891095 26.3545313,5.78733776 C27.3974328,5.91663322 27.4667465,5.89787738 27.575611,5.45751465 C27.6547125,5.13726896 27.5250739,5.09516813 27.3452977,5.3826909 C27.1930872,5.6261175 26.320973,5.67001414 26.1328073,5.44374709 C25.6667875,4.88286821 26.4452183,4.18950143 26.9789538,4.69032176 L27.1978812,4.89563813 L27.2663959,4.53049819 C27.3456972,4.1082927 27.2895671,4.00553471 27.0760329,4.18251784 C26.7897893,4.41975904 26.2234944,4.22541682 26.2234944,3.88980731 C26.2234944,3.22337708 26.7810003,3.03741508 27.2811775,3.53703826 C27.5969844,3.85229565 27.6217535,3.84950224 27.6217535,3.49793037 C27.6217535,3.17129973 27.5308667,3.13139375 26.5688644,3.03522026 C26.2416717,3.00249732 25.8755276,2.95600686 25.7552773,2.93186373 C25.635027,2.90752107 25.5115807,2.92827217 25.4812185,2.9775561 M28.8202614,3.45443283 C28.8202614,3.49114636 28.8959671,3.60487846 28.9886517,3.70723736 C29.2461312,3.99136811 28.6199108,5.88151594 28.2683485,5.88151594 C27.9553382,5.88151594 28.1423055,6.0626892 28.5647794,6.16903871 C29.1528473,6.31689041 29.1794142,6.3121017 28.9822597,6.0944145 C28.7962912,5.8892976 29.0541702,4.58975861 29.296868,4.50894896 C29.3571929,4.48899592 29.6534241,4.99161206 29.955448,5.625918 C30.6308073,7.04557406 30.6773493,7.04876651 31.1213965,5.70572996 C31.398052,4.86870157 31.5272911,4.61031022 31.7164556,4.51613201 L31.9579549,4.39581544 L31.6830972,4.29146126 C31.1779261,4.09971292 30.9176501,4.06000642 30.9176501,4.17473621 C30.9176501,4.23559286 30.9625942,4.28527579 31.0175258,4.28527579 C31.1677388,4.28527579 31.1379758,4.75157749 30.9494106,5.34897034 C30.7230924,6.06608119 30.6959262,6.04772445 30.0824899,4.75915957 C29.6614141,3.87464302 29.48803,3.61046531 29.2641088,3.512097 C28.9453057,3.37202694 28.8202614,3.35586498 28.8202614,3.45443283 M18.2833798,3.59290666 C16.6899637,4.10529971 17.009366,6.38034097 18.6746927,6.38034097 C19.8610157,6.38034097 20.5765249,5.29230379 20.0789443,4.24497075 C19.8080815,3.67471395 18.9723221,3.37122881 18.2833798,3.59290666 M19.2216117,4.04224826 C19.6720509,4.42075673 19.8897799,5.41800772 19.6035362,5.79033075 C19.0686023,6.48629145 18.0924176,6.11716088 17.8421292,5.12409998 C17.571666,4.05142661 18.4309961,3.37761375 19.2216117,4.04224826 M15.3414426,4.64223503 C13.9056302,5.26436963 13.5626572,6.82090328 14.7284058,7.42308487 C15.5817434,7.86384664 17.1048471,7.26385991 17.017356,6.52160824 C16.9742098,6.15507161 16.7353072,6.07705538 16.7353072,6.4296249 C16.7353072,7.22574968 15.5833414,7.56694598 14.9958728,6.94481138 C13.9835332,5.87253709 14.761165,4.47482932 16.0611465,5.03012138 C16.2990503,5.13168214 16.293657,4.86710535 16.0533563,4.64981715 C15.83343,4.45108526 15.7834922,4.45068619 15.3414426,4.64223503 M32.5711914,4.9060137 C32.3802292,5.17857169 32.3524638,5.48584792 32.5356357,5.3028789 C32.7595569,5.07920576 33.4145415,5.18595431 33.4145415,5.44614142 C33.4145415,5.91683276 32.4605292,7.41290884 32.2032495,7.34566717 C31.8079417,7.24251019 32.0428492,7.48833116 32.6155362,7.77705109 C33.2475494,8.09570051 33.2900964,8.09530147 33.0899456,7.77266145 C32.9557127,7.55617136 33.8260292,5.67939203 34.0585397,5.68418074 C34.2840589,5.68896945 34.6010643,6.04572915 34.632625,6.33045851 L34.6657837,6.62975351 L34.8465586,6.29633888 C34.945835,6.11277124 35.0125519,5.94795945 34.9945743,5.93000171 C34.976397,5.91204405 34.5575185,5.68597654 34.0633338,5.42778469 C33.569149,5.16959284 33.0939407,4.89663578 33.0072486,4.82141299 C32.7965109,4.63824439 32.7531649,4.6466247 32.5711914,4.9060137 M12.3661468,6.30551723 C11.9846218,6.57188978 11.9420748,6.7706217 12.2802538,6.70597395 C12.4764096,6.66866186 12.5934638,6.75825083 12.9294455,7.20280373 C13.5284997,7.99533694 13.5504723,7.98795431 11.6536339,7.63718059 C10.8414451,7.48713397 10.8082864,7.4885307 10.5300328,7.68646448 C10.1658861,7.94565398 10.1654867,8.05320068 10.5294336,7.99992611 C10.9215454,7.94246149 11.9922124,9.3433617 11.9017251,9.79549673 C11.8314126,10.14647 11.8731606,10.1420804 12.3729384,9.74740999 L12.7834274,9.4231737 L12.4482446,9.37329124 C12.127444,9.32560358 11.206191,8.27847004 11.3546062,8.13021923 C11.3821719,8.1028836 11.9822249,8.19327071 12.6883457,8.33114595 C14.2691776,8.63981888 14.301737,8.61268283 13.5556659,7.60765013 C12.7926159,6.57987098 12.7340887,6.46653795 12.85354,6.25304081 C12.992567,6.005025 12.7606557,6.02996625 12.3661468,6.30551723 M21.4232707,6.73610299 C10.602143,8.42672081 4.02313391,19.2556139 7.51658456,29.6255879 C9.3243339,34.9923467 13.6283754,39.0222544 19.4319499,40.7825081 C27.6890697,43.2868095 37.3374574,38.3133244 40.3495073,29.9997067 C44.8511029,17.574773 34.3857323,4.71107284 21.4232707,6.73610299 M35.9651659,6.8085324 C36.0488617,7.1417475 34.8707285,8.6292438 34.5329491,8.61707246 C34.2183408,8.60569924 34.259889,8.71544074 34.7023381,9.06561592 C35.1645627,9.43135447 35.2983961,9.45190609 35.244663,9.14881995 C35.2204931,9.01194236 35.3009929,8.80742411 35.4508063,8.62505362 C35.7987731,8.20165095 35.9607714,8.38940869 35.9296102,9.1795476 C35.9126313,9.60753949 35.9561772,9.86712802 36.080023,10.076435 C36.3696624,10.5662812 36.471136,10.4403777 36.4657427,9.59776253 L36.4607489,8.82458366 L36.8103137,8.79186075 C37.799682,8.69927884 37.7645258,7.9352784 36.7348077,7.1515245 C35.9186239,6.53018805 35.8922567,6.51841575 35.9651659,6.8085324 M26.9725618,7.22096096 C37.6464727,9.30465289 43.7197114,20.133945 39.8439367,30.1721006 C38.8299994,32.7981151 38.1204825,33.4888881 37.5633761,32.3932687 C37.2989054,31.8734931 36.8850207,31.9195845 36.6105624,32.4990196 C36.388439,32.9683143 36.1529322,32.9974456 35.7486355,32.6059677 L35.4062618,32.2745484 L34.934649,32.441555 C33.8472028,32.8268475 33.3146658,32.7699814 33.3146658,32.2681634 C33.3146658,31.6715687 33.0685722,31.5753952 31.4012481,31.521123 C30.0641128,31.4776255 29.8144236,31.4427077 29.4414879,31.2467692 C29.0040326,31.0171102 28.7203857,30.9600446 28.7203857,31.1019105 C28.7203857,31.2707129 29.4946218,31.9120023 30.0069839,32.1676003 C30.3028156,32.3150529 30.7568503,32.6341014 31.0161275,32.8763309 C31.6579285,33.4759186 31.7400263,33.4150619 31.4645692,32.5437144 C31.3421217,32.1556285 31.6842956,32.2773418 32.2693672,32.8300399 C32.8979846,33.4238412 33.3572129,33.5339818 34.2816619,33.3125035 C34.9688064,33.1478913 35.0722776,33.2059545 35.4619924,33.9735465 C35.7052895,34.4530171 35.813355,34.5699417 36.0362774,34.5954815 C36.3293125,34.6292021 36.3590755,34.5631577 36.3207233,33.9653657 C36.2841688,33.3947098 36.4867166,33.2795811 37.0364322,33.558524 C37.2981064,33.691411 37.5677707,33.8187112 37.6356862,33.8414576 C37.9319175,33.9408236 36.5356557,35.6332371 36.0588493,35.7527556 C35.6359758,35.8589056 35.090455,35.6440118 34.6647849,35.2038486 C34.2800639,34.8055866 34.250301,34.7938143 33.7359413,34.8365138 C32.962704,34.9005629 32.7607554,35.1382032 33.2743161,35.379834 C33.5435808,35.5065355 33.7327453,35.6980844 33.8965414,36.0103488 C34.2243333,36.6356759 34.3713502,36.6995255 34.9376452,36.4616858 C35.202915,36.350348 35.1579709,36.639467 34.8539494,37.0006163 C34.4702272,37.4559438 33.8116471,37.4413781 33.2077989,36.9641023 C32.8522416,36.6829646 32.6546875,36.6079413 32.120952,36.5506761 C30.717699,36.4006296 30.2768479,35.339529 31.6415489,35.3969936 C32.2845483,35.4241297 32.4257725,35.4019818 32.4779076,35.2669 C32.5661977,35.0366424 32.5020775,35.0015251 31.8480917,34.9223117 C31.1523579,34.8379105 30.9905593,34.7389436 30.4628164,34.0753068 C30.2400937,33.7953661 29.716146,33.3097101 29.298466,32.9958493 C28.4343418,32.3469778 27.989296,31.6843386 27.8734402,30.8750448 C27.6724904,29.4699545 26.4232456,28.6105787 26.4232456,29.8775943 C26.4232456,30.1192251 26.3477397,30.4751866 26.2554546,30.6685313 C26.048712,31.1017109 26.1395988,31.214645 26.5167293,30.992169 C26.9839476,30.7162189 27.0844225,30.7744817 27.428594,31.5203249 C27.7661737,32.251802 28.3318694,32.8643591 29.2477292,33.4896861 C30.0163722,34.0144501 30.4154753,35.080938 30.1270344,35.838753 C29.8433876,36.5841972 29.4195153,36.1915221 29.4195153,35.1832969 C29.4195153,34.5268432 29.4027362,34.4773597 29.0649567,34.1399545 C28.602932,33.6784416 28.3116945,33.8364693 28.7609353,34.3047663 C29.0371913,34.5928876 29.0393886,34.605059 28.9758676,35.5276858 C28.9405117,36.0400788 28.9473032,36.5043852 28.990849,36.559256 C29.1810122,36.799091 29.4444842,36.9279874 30.133027,37.1185386 C30.9196476,37.3362258 31.2172771,37.5287722 31.2172771,37.8196871 C31.2172771,38.0764822 31.5206994,38.8039687 31.6275663,38.8039687 C31.9749338,38.8039687 31.6147822,39.1633222 30.9681872,39.4616197 C28.1351144,40.7691398 24.9426889,41.2198781 21.5834712,40.7866984 C20.5239903,40.6502198 20.336224,40.5528491 20.6212692,40.2874744 C21.1156537,39.8275575 21.1613967,39.5121008 21.0251663,37.5000401 C20.7968506,34.1243912 20.8144287,34.073511 22.8321166,32.31206 C24.1988151,31.1188705 24.569154,30.723003 24.3184662,30.723003 C24.2629353,30.723003 23.9832834,30.8965941 23.6974393,31.1084949 C21.7302884,32.5668598 19.8508284,33.2201211 18.0039277,33.0874337 C15.9734557,32.9417768 15.0076581,31.946122 15.7864885,30.8014182 C15.9239174,30.5994939 16.0361776,30.298004 16.0361776,30.131596 C16.0361776,29.8889675 15.9866393,29.8185334 15.7864885,29.7772307 C15.6492593,29.7486979 15.4215428,29.7014092 15.2807182,29.6718789 C15.0849619,29.6311747 15.031828,29.5663275 15.055998,29.397525 C15.097746,29.1032183 15.790084,29.0439579 16.4123094,29.2811991 C16.699352,29.390741 16.8861194,29.4150837 16.9500399,29.3512341 C17.080078,29.2213401 16.8032226,28.9477844 16.4536579,28.8609888 C15.7031922,28.6748273 15.14269,28.1368944 15.1848376,27.6436562 C15.212603,27.3210162 15.2641388,27.193317 15.3556249,27.2206526 C16.2594996,27.4920134 16.8855202,26.7048675 16.3286135,25.9975336 C16.0417707,25.6335908 15.742743,25.6270063 15.9808465,25.990151 C16.3741568,26.5895392 15.9896356,26.9722377 15.3194699,26.648201 C14.7725508,26.3838237 14.7144232,26.3828261 14.488105,26.6326376 C14.223834,26.9243505 13.5550666,26.778095 13.4084491,26.3965936 C13.3583116,26.2659015 14.0150939,24.5417626 14.8364713,22.6474246 C15.1165226,22.0013464 15.1506801,21.832145 15.0979457,21.3504795 C14.9377452,19.8917156 16.0207968,19.0195699 16.9674182,19.8450255 C17.1418011,19.9970674 17.5153361,20.2379001 17.7973849,20.3799655 C18.1323678,20.5487679 18.4357901,20.8093541 18.6722956,21.1309965 C18.9976905,21.5739531 19.3402641,21.8538937 19.3270804,21.666136 C19.3111003,21.4420638 18.4212082,20.3713857 18.1281731,20.2241326 C17.9390086,20.1289568 17.5748619,19.8258707 17.31938,19.5507188 C16.9592284,19.1630319 16.786843,19.050497 16.5529342,19.050497 C15.7761014,19.050497 15.2261861,17.870676 15.8853654,17.618071 C15.9962274,17.5755711 16.0837185,17.6685521 16.1957789,17.9484927 C16.3058419,18.2234451 16.4404743,18.369102 16.6524104,18.4429281 C16.9656205,18.5518715 17.3811032,18.857751 18.0201076,19.449557 C18.2274495,19.6417044 18.533868,19.8717626 18.7010598,19.9609525 C18.9175902,20.0762808 19.0518231,20.2598484 19.1672794,20.5982513 C19.3095023,21.0152691 19.5092536,21.2792473 20.5056132,22.3676835 C20.5935037,22.4636574 20.7263383,22.5422723 20.8006458,22.5422723 C20.9604469,22.5422723 20.6985729,22.1428132 20.0627645,21.4165239 C19.8330505,21.1539424 19.5901529,20.7722415 19.5232362,20.5685214 C19.3412628,20.0136284 19.1421107,19.7578309 18.7276267,19.5467281 C18.5218829,19.4417754 18.2544159,19.1959544 18.1333666,19.0002154 C17.9999328,18.784723 17.7184831,18.5456861 17.4194554,18.3944423 C16.8989035,18.1308631 16.7353072,17.9131759 16.9198774,17.7288102 C17.001376,17.6474019 17.0994538,17.654585 17.2888181,17.7557467 C17.4943621,17.8656877 17.586048,17.8690798 17.7414546,17.7721082 C17.8485213,17.7052656 18.0480728,17.6785286 18.1847027,17.7128478 C18.3730682,17.7601364 18.4331933,17.7359933 18.4331933,17.6132823 C18.4331933,17.4007828 17.8836775,17.069164 17.4008786,16.9899505 C17.0055707,16.9253028 16.9845969,16.8979666 16.7480913,16.1503282 C16.6042704,15.6953998 16.6060681,15.5032524 16.7564808,15.2626192 C16.9270684,14.9896621 16.7986284,14.9140402 16.4982024,15.1107769 C16.1380508,15.3464218 16.1032941,15.5593203 16.3384014,16.0900701 C16.5960805,16.6717002 16.507391,16.8682372 15.9163268,17.0260654 C15.0803676,17.2495391 14.6483055,17.8884342 15.0873589,18.2523769 C15.2771227,18.4098061 15.2817169,18.6514369 15.0949495,18.6514369 C14.3604639,18.6514369 14.0975912,17.5550195 14.6966454,16.9905491 L15.0551989,16.6527448 L14.7465832,16.3017715 C14.3502766,15.8508336 14.3580669,15.6066089 14.787732,15.0030306 C14.9800925,14.732867 15.1372967,14.4134194 15.1372967,14.2929033 C15.1372967,14.0003923 15.2851127,13.9249699 15.4788715,14.1183145 C15.7119812,14.3511661 15.6694342,14.6572451 15.3352503,15.1496852 C14.9195678,15.7626414 14.9768964,16.1630981 15.5092336,16.3654216 C15.8927562,16.5110785 16.0104097,16.3326986 15.7493347,16.0012793 C15.3750008,15.5257993 15.5216182,15.2668093 16.635032,14.4371635 C17.2041235,14.0131622 17.237482,13.8283974 16.8219993,13.400206 C16.553134,13.1232584 16.5109865,13.0260873 16.5986773,12.8870148 C16.7606756,12.6300201 17.0349342,12.6094686 17.0349342,12.8542919 C17.0349342,12.9662282 17.1697663,13.1954882 17.3345611,13.3638916 C17.6555615,13.6919189 17.7068976,13.948714 17.5131388,14.2585842 C17.3397547,14.5359309 17.4837754,14.6171396 17.7915921,14.4156142 C18.3343164,14.0604508 18.2602087,14.4229969 17.6907177,14.909052 C17.1092417,15.4050836 16.9975807,15.7149537 17.238281,16.1638963 C17.4108661,16.4861372 17.5343124,16.381384 17.5343124,15.912688 C17.5343124,15.5024543 17.5668719,15.4461868 17.958784,15.1760232 C18.9062044,14.5233605 18.9369661,14.2352391 18.1313691,13.5616258 C17.3687186,12.9239279 17.2652475,12.3997625 17.85751,12.1754908 C18.2028801,12.0447986 18.3612829,12.2209836 18.1944905,12.5508067 C18.0109191,12.9145499 18.0708445,13.0183056 18.6946678,13.4169665 C19.1021604,13.6773532 19.2523735,13.839172 19.2979167,14.0662372 C19.3726237,14.4389593 19.5104521,14.5153792 20.442292,14.6999446 C21.8385537,14.9766927 22.0287169,14.992256 22.0287169,14.82924 C22.0287169,14.6807896 21.7890153,14.6069635 20.4998203,14.357551 C19.7203907,14.2067063 19.7705283,14.0169533 20.7135543,13.550053 C22.8950383,12.4703961 24.9718527,12.0990708 26.5231213,12.5112998 C29.5369691,13.3122133 30.6322055,14.028526 31.5232961,15.7817963 C31.7669927,16.2610674 32.0224746,16.6750922 32.091189,16.7014301 C32.3532628,16.8025918 32.2040485,16.2014079 31.7665932,15.3933114 C31.4919351,14.885707 31.3171527,14.4345696 31.3171527,14.2326453 C31.3171527,13.8473528 31.1621457,13.7547708 29.3619869,13.0651951 C26.96597,12.147357 26.88567,12.0936835 27.5718157,11.8674164 C27.7641762,11.8039659 27.9213805,11.6882385 27.9213805,11.6102222 C27.9213805,11.4354339 27.9533407,11.4348354 26.9226239,11.6259851 C24.873575,12.0060898 22.9477726,11.9785546 22.7268477,11.5661261 C21.8339594,9.89965144 25.3815426,9.17495839 28.8546186,10.3146738 C31.7054693,11.2500706 33.1071242,12.6368042 34.0547444,15.4589567 C34.8667335,17.87746 34.9869838,19.3226559 34.5748968,21.7178143 C34.1158683,24.3861292 34.3276047,24.8717853 35.778798,24.4793097 C36.5786022,24.2630191 36.9101894,24.4152606 36.9101894,24.9982873 C36.9101894,25.4735678 37.2421761,25.9342826 37.5847496,25.9342826 C38.1136909,25.9342826 38.5277756,25.1956225 38.1885979,24.8568205 C37.9966369,24.6650722 37.9237275,24.7151542 37.890369,25.0613388 C37.8334399,25.6499523 37.3754102,25.5224526 37.3034997,24.8979237 C37.2156091,24.1325265 36.6648948,23.8031025 35.8409206,24.0231841 C34.779642,24.3067163 34.6284302,24.0806487 34.9106788,22.6314622 C35.6102079,19.0367294 35.1645627,15.8899415 33.5767395,13.214244 C32.1569072,10.8214801 29.2013869,9.4309554 25.5243648,9.42556807 C22.6892945,9.42137794 21.5435209,10.2264816 22.2708154,11.7111844 C22.5888196,12.3602556 22.5688444,12.4157249 21.9496153,12.602884 C21.4766043,12.7459471 20.9686367,12.9546555 20.1236887,13.3533165 L19.6666577,13.5690084 L19.2094269,13.31361 C18.5694237,12.9562517 18.5180876,12.875043 18.6539185,12.4328845 C18.7478016,12.1272045 18.7388128,12.0018996 18.6019832,11.7155741 C18.4403844,11.3767721 18.1335664,11.236702 18.1335664,11.5014784 C18.1335664,11.6938253 17.203724,12.2664765 16.8915127,12.2664765 C16.2355294,12.2664765 15.9604719,12.9590451 16.4356802,13.413774 C16.809415,13.7715313 16.8108132,13.89524 16.4442696,14.1558262 L16.1532319,14.3629383 L15.9335054,14.0079744 C15.4391209,13.2086572 14.2859567,12.987977 14.6750722,13.7671417 C14.8920021,14.2017181 14.8842118,14.2593823 14.5534237,14.6630315 C13.9737454,15.3703654 13.917016,15.6646722 14.2472049,16.2512904 L14.4555455,16.6216181 L14.1972671,17.0019223 C13.7390376,17.6763338 13.8860545,18.3353814 14.6275314,18.9305795 C15.1067348,19.3150738 15.137097,19.5221859 14.8388683,20.3701886 C14.6988426,20.7678518 14.6578936,21.0639544 14.7002409,21.3720288 C14.74918,21.7285889 14.7016391,21.9424851 14.4435604,22.5299014 C14.2693773,22.926168 13.9685518,23.660239 13.7749928,24.1610593 C13.5814338,24.6616801 13.3143663,25.2963851 13.1815317,25.571537 C12.7115168,26.5444453 13.0934413,27.090559 14.3906263,27.3008637 C14.827083,27.3714973 14.9037874,27.6073418 14.6467075,28.0866129 C14.5030863,28.3541826 14.4739227,28.5082198 14.5426371,28.636318 C14.5949719,28.7342873 14.6379184,29.0160237 14.6379184,29.2626428 C14.6379184,29.7431111 14.790129,29.9735682 15.2140012,30.1345889 C15.4822672,30.2365488 15.4810687,30.3305274 15.2020162,31.0793635 C14.673674,32.4972238 15.9468888,33.5008599 18.606977,33.7638404 C19.8927762,33.890941 19.986859,33.9942976 20.1246874,35.4315123 C20.17882,35.9969804 20.3148506,36.902248 20.4267114,37.4431739 C21.0874887,40.6338585 20.1005175,41.0488807 16.3819471,39.1443668 C4.72825605,33.1754264 3.71032338,17.1431896 14.5230615,9.86353646 C18.0876236,7.46358945 22.9393831,6.43381504 26.9725618,7.22096096 M36.8159068,7.50269734 C37.305697,8.08911604 36.6011741,8.80303444 35.9901349,8.33932669 C35.8317321,8.21920961 35.8311328,8.19187403 35.9807465,7.96840035 C36.1711095,7.68426964 36.5278654,7.27822605 36.5869918,7.27822605 C36.6097634,7.27822605 36.7128351,7.37918827 36.8159068,7.50269734 M8.49177045,9.94694003 C8.52912394,10.0977847 8.74265812,10.6253421 8.96637956,11.1191789 C9.18990127,11.6130156 9.37387219,12.140573 9.37527049,12.2914177 C9.37846654,12.6316164 9.41402224,12.632215 9.763587,12.2976032 C10.0813914,11.9935194 10.1219409,11.8450691 9.87544777,11.887968 C9.38865379,11.9727683 9.36847894,11.0242026 9.85147759,10.7658112 C10.0873839,10.6399077 10.6428923,10.8681701 10.6428923,11.0912447 C10.6428923,11.3408567 10.6940286,11.3183098 11.0883377,10.8947076 C11.4998254,10.4525491 11.5261926,10.3460001 11.2043932,10.4266102 C11.0537808,10.4645209 10.5458131,10.3374203 9.81592189,10.079428 C8.43484132,9.59117798 8.40308085,9.58818506 8.49177045,9.94694003 M38.3743665,10.3775258 C37.4680948,10.6762222 37.1470945,10.7434639 37.0010763,10.6654476 C36.7026478,10.5058236 36.7597767,10.784168 37.0903651,11.100423 C37.4223517,11.4180748 37.5094433,11.4344363 37.5094433,11.1788383 C37.5094433,10.7763863 38.1196834,10.7161283 38.4241046,11.0886508 C38.7383134,11.4733447 38.631846,11.9897283 38.2257514,12.0489887 C38.0172113,12.0795168 38.023803,12.1014652 38.3695725,12.5228725 C38.810823,13.0608054 38.860761,13.0675894 38.8677521,12.5907127 C38.8713476,12.3500795 39.0561176,11.8464658 39.3861067,11.1784393 C40.078245,9.7779381 40.1122027,9.80487469 38.3743665,10.3775258 M9.56523397,10.5335583 C9.65612085,10.5896262 9.377268,10.9695314 9.24523238,10.9695314 C9.1705254,10.9695314 8.94500617,10.5179949 8.94500617,10.3687465 C8.94500617,10.2841458 9.32453366,10.3849084 9.56523397,10.5335583 M39.1074536,10.6011989 C39.1074536,10.8915151 38.8407859,11.1209747 38.6688,10.9785102 C38.3689732,10.7298958 38.4970136,10.5273729 38.9826094,10.482279 C39.0513236,10.4758941 39.1074536,10.5293682 39.1074536,10.6011989 M6.67043801,12.034024 C6.53580566,12.0880966 5.54923391,13.5318958 5.54923391,13.6749588 C5.54923391,13.7210503 5.65530184,13.7104752 5.78494046,13.6514143 C6.09515426,13.5101471 7.74649834,14.5259544 7.74649834,14.8581718 C7.74649834,15.3759522 8.69931202,14.0235378 8.80857604,13.3507226 C8.90046165,12.7848555 8.15658772,12.1449627 7.89631177,12.5657715 C7.77466324,12.7623085 7.54674701,12.6671327 7.54674701,12.4197155 C7.54674701,12.0659488 7.090515,11.8652216 6.67043801,12.034024 M41.3047181,12.2856313 C41.3047181,12.6533652 39.6783431,13.6280693 39.3295774,13.4692434 C39.013371,13.3253822 39.0537206,13.439713 39.665559,14.420403 C40.2374471,15.3366448 40.3101562,15.3984991 40.6411444,15.247854 C40.8940294,15.1327252 40.9086112,14.899275 40.6569247,14.995648 C40.2614171,15.1472908 39.6581681,14.2238659 39.9817654,13.9622821 C40.6483354,13.423152 41.6297134,12.9327072 41.8128855,13.0470379 C42.1223006,13.2399834 42.121701,13.1887042 41.8088902,12.6413934 C41.4735079,12.0551742 41.3047181,11.9358552 41.3047181,12.2856313 M7.12726927,12.5857245 C7.28906779,12.7473438 7.27848101,13.083951 7.10389834,13.3197954 C6.94709359,13.5316963 6.52521881,13.3776591 6.30249611,13.0272844 C6.08476717,12.6846914 6.82804181,12.2868285 7.12726927,12.5857245 M8.1501957,13.0667914 C8.57446751,13.293657 8.5884501,13.9479159 8.1723681,14.1073404 C7.99998274,14.1733848 7.24572176,13.7745243 7.25031604,13.6198886 C7.25491031,13.4684453 7.46305121,13.2190327 7.69656049,13.0853476 C7.94405239,12.9434818 7.9212807,12.9444795 8.1501957,13.0667914 M22.6779086,15.2640159 C22.0782552,15.4880881 21.3521592,15.5074425 21.0856909,15.3061167 C20.8070379,15.0956126 20.5805199,15.1239458 20.1222904,15.4266328 C19.7313771,15.6852238 19.7092047,15.6884162 19.4349462,15.5263979 C18.9409612,15.235084 18.0968121,15.4164568 18.0135158,15.8316788 C17.9511934,16.1431451 18.0544648,16.5705385 18.2060761,16.6288012 C18.4082244,16.7062189 18.5312712,16.4727687 18.4643545,16.1385559 C18.3970383,15.8025474 18.6499235,15.6586863 18.9639325,15.8544252 C19.43994,16.1513259 19.7371699,16.1624995 20.1856115,15.899918 C20.5965,15.6592848 20.629459,15.6552943 20.9840176,15.8033455 C21.4899876,16.0146478 22.0758582,15.9970891 22.8353127,15.7480757 C23.8104985,15.4282291 24.18683,15.5084402 24.9289061,16.1948234 L25.5357506,16.7559018 L26.7038962,16.7559018 L27.8720419,16.7559018 L28.3638297,17.1050794 C28.8841818,17.4748085 29.1512493,17.5266863 29.5645348,17.3385295 C29.9726267,17.152767 29.8859346,16.9654083 29.4207138,17.0278613 C29.0761428,17.0739527 28.9469037,17.0292579 28.4633058,16.6964419 C27.8726412,16.2901988 27.8201066,16.2812199 26.4809738,16.3586376 L25.8895102,16.3929567 L25.4240896,15.8873477 C24.6320757,15.0269742 23.8106983,14.8404137 22.6779086,15.2640159 M5.60636276,16.4139074 C5.40920824,16.610644 5.40920824,16.7016297 5.60616304,16.8981667 C5.79832384,17.0901146 6.14848785,16.9444577 6.14848785,16.6724983 C6.14848785,16.3073584 5.85365494,16.1666897 5.60636276,16.4139074 M41.9239474,16.3767948 C41.7581539,16.5424047 41.7741337,16.8063829 41.9593031,16.960021 C42.2029999,17.1619454 42.5679454,16.763883 42.4099421,16.4687781 C42.2829004,16.2317365 42.1033241,16.1976168 41.9239474,16.3767948 M19.1572918,16.8141646 C18.7825584,16.9779787 18.7302235,17.2301847 19.0574162,17.2964286 C19.4764944,17.3814284 20.4788465,17.4825902 20.8581742,17.4782005 C21.514557,17.4706184 21.7163058,17.0613823 21.0659156,17.0567931 C20.948262,17.0557955 20.6560259,16.966406 20.4167238,16.8578617 C19.909755,16.6282026 19.6071318,16.6176275 19.1572918,16.8141646 M23.0274735,16.7828383 C22.8902443,16.8572631 22.5582576,17.0855254 22.2899916,17.2902432 C21.4008985,17.9686453 20.7085605,18.0951473 19.2859317,17.8387512 C18.8834328,17.7661223 19.004482,18.1196895 19.4419374,18.2946773 C20.2045879,18.5995592 20.9824195,18.604747 21.851138,18.3106397 C23.1611071,17.8674836 23.3650531,17.8696784 24.407755,18.3387735 C24.9077325,18.5636437 25.5095832,18.7765423 25.7452897,18.8120586 C26.394082,18.9096288 26.745045,19.1750037 27.537059,20.1668674 C28.345852,21.1800809 28.9107487,21.6443872 29.334621,21.6443872 C29.7560962,21.6443872 29.6897788,21.3989653 29.1947951,21.1262077 C28.7004106,20.8536498 28.6119208,20.5182398 29.0200127,20.4637681 C29.4464817,20.4067025 29.4590661,20.2718202 29.0567669,20.0665039 C28.8444313,19.9581591 28.4682996,19.6504838 28.2210074,19.3829141 C27.9737153,19.1155438 27.6593068,18.8238309 27.5218779,18.7350401 C27.1395538,18.4876229 27.316933,18.4301582 28.5078504,18.4155925 C29.7848604,18.3998297 29.9332756,18.4842308 30.5862627,19.5992046 C31.3115597,20.8380864 31.808541,21.2453272 32.5943626,21.2453272 C32.8600318,21.2453272 33.1280981,21.3426978 33.4516952,21.5569931 C33.9612608,21.8939993 34.1248571,21.8864172 33.8797623,21.536641 C33.6360657,21.1892592 33.2052021,20.9528162 32.689644,20.8839783 C32.1011766,20.805164 31.7925609,20.5120544 31.1074138,19.3813178 C30.5537032,18.4676699 30.1845628,18.1079172 29.6490295,17.960265 C29.2814872,17.8589037 29.1344702,17.8642911 26.9655705,18.0608281 C25.6745778,18.1777527 25.4131033,18.1446307 24.300888,17.7228243 C23.7433821,17.511522 23.5320453,17.2547268 23.9157675,17.2547268 C24.1546701,17.2547268 24.2573422,17.0057134 24.0791641,16.8580612 C23.8602366,16.6766884 23.297737,16.6363834 23.0274735,16.7828383 M44.135394,18.2683393 C44.0824601,18.3868602 43.5722951,18.8020821 43.0016055,19.1911656 C41.7042206,20.0756822 41.698428,20.0461518 43.2329175,20.3580172 C43.936242,20.5008807 44.5632611,20.669284 44.6261827,20.732136 C44.8842615,20.9899288 44.9755481,20.8596357 44.867283,20.3875477 C44.778993,20.0018561 44.743437,19.9541685 44.6453591,20.0882526 C44.5069316,20.2774071 43.9676029,20.300353 43.8271777,20.1229709 C43.4868011,19.6927841 43.7510722,19.0034079 44.2324732,19.0664594 C44.5081298,19.1025744 44.5279054,19.0500979 44.445408,18.5009913 C44.3713001,18.0075536 44.2818116,17.9405115 44.135394,18.2683393 M3.36575235,19.1169405 C3.09029529,20.4873127 3.28685061,21.2491183 4.00335851,21.5889179 C4.8173451,21.9746094 5.63312944,21.5480142 5.89460392,20.5996481 C6.18923711,19.5313644 6.1872396,18.9519292 5.89020941,19.2486303 C5.67667522,19.4619279 3.65159649,18.9615066 3.65159649,18.6953336 C3.65159649,18.3361795 3.46842453,18.6065427 3.36575235,19.1169405 M22.4781573,18.8557557 C22.2034993,18.9631029 21.8311629,19.067058 21.6509872,19.0872105 C21.2227204,19.1344992 21.1534066,19.2167055 21.3639445,19.4270102 C21.5640954,19.6267397 22.2276692,19.6448969 23.186076,19.476294 C24.5012386,19.2452383 25.3196197,19.6415049 26.3733078,21.0198583 C27.8616549,22.9664731 28.9267288,23.5716477 29.9254854,23.0375058 C30.3545512,22.8082458 30.1504053,22.6420373 29.4394904,22.6420373 C28.5458031,22.6420373 28.1746651,22.4008055 27.3221265,21.2654797 C26.0475135,19.5680779 25.4960001,19.1331024 24.4411134,18.9932319 C24.1598636,18.9559198 23.8786137,18.8637369 23.8160916,18.7885141 C23.6562906,18.5961672 23.0670242,18.6258972 22.4781573,18.8557557 M4.83612176,19.6939813 C5.29534999,19.7789811 5.68866034,19.8486171 5.71003372,19.8486171 C5.80891061,19.8486171 5.73340462,20.3873481 5.59817299,20.6487324 C5.26438856,21.2936134 4.22568173,21.3391063 3.66118455,20.7337322 C3.28425384,20.329684 3.42767528,19.3715408 3.84655376,19.4940522 C3.93164783,19.5189935 4.3768935,19.6089815 4.83612176,19.6939813 M43.4520446,19.8998963 C43.4520446,20.0563278 43.3917199,20.09364 43.1652019,20.0776775 C42.7792826,20.0501424 42.7133644,19.961152 42.9508687,19.7877604 C43.2107453,19.5978078 43.4520446,19.6518805 43.4520446,19.8998963 M20.2667106,19.9992622 C20.1398685,20.3292849 21.0045919,21.0198583 22.0786547,21.4464535 C23.370846,21.9596446 23.8682267,22.5462629 22.886449,22.3992093 C22.2150849,22.2986461 22.2370575,22.4730354 22.996512,23.2715545 C24.0685772,24.3988991 24.2573422,25.1186038 23.7803361,26.2591174 C23.5612089,26.7828837 23.5801853,27.5512738 23.8194874,27.8437848 C24.068777,28.1486667 24.3562191,27.961308 24.1484778,27.6290905 C23.9675031,27.3393729 23.9982648,26.9439045 24.2661313,26.1218408 C24.5553712,25.2349299 24.720166,25.159308 25.0122024,25.7798463 C25.2209426,26.2236011 25.2924536,26.2750798 25.6492093,26.2387654 C25.938649,26.2094345 25.8465636,26.491969 25.4744269,26.7755011 C24.9067337,27.2080822 25.0084071,27.4924125 25.6016686,27.1310636 C26.1873394,26.7745035 26.424644,26.9079891 25.967613,27.336779 C25.6026673,27.6793721 25.2954498,28.2087252 25.3617672,28.3811191 C25.4844145,28.7003672 26.0577008,28.8665757 26.4092631,28.6850034 C26.8437222,28.4605321 27.1805029,28.6283369 28.2481736,29.6008462 C29.56833,30.803214 30.36354,31.0721805 31.7506131,30.7856554 C32.5833763,30.6136605 32.9207563,30.669928 33.835018,31.1336358 C34.3887286,31.414574 34.7287053,31.3800553 34.9324517,31.022697 C35.1226149,30.6888834 35.2540513,30.6988599 35.7799965,31.0869457 C36.2228451,31.4137759 36.508889,31.3826492 37.3304661,30.9175447 C38.1875989,30.4322877 38.4940174,30.4278981 38.70096,30.8975918 C38.922684,31.4008064 39.2073296,31.2762997 39.2073296,30.6759139 C39.2073296,29.9440378 38.3296222,29.7309397 37.309692,30.2151991 C36.5204746,30.5897169 36.2242434,30.5967005 34.7934248,30.2740604 C33.4433056,29.9695776 32.8969858,29.962195 31.9777303,30.2355511 C30.8411454,30.5737545 29.756296,30.3411025 29.0539704,29.6088274 C28.6790372,29.217948 28.8580144,29.0309884 29.3312253,29.3193093 C30.2726532,29.8925591 30.2161235,29.3446496 29.2685033,28.7107428 C27.888022,27.7871183 27.6239508,27.5778113 27.6227523,27.4058165 C27.6215538,27.1897254 27.7833524,27.1873311 28.5985374,27.3914503 C29.866359,27.709102 29.674398,27.2116737 28.3790107,26.8227897 C26.738653,26.3305492 26.7110873,26.3189765 26.743447,26.1489769 C26.7696144,26.0118997 26.9539849,25.9757848 27.8396822,25.9342826 C29.5813139,25.8526748 29.4546715,25.538016 27.6343378,25.4244834 C25.4794207,25.2900001 25.0477582,24.9952943 24.3757948,23.1993246 C23.9289511,22.0051375 23.5284497,21.4482492 22.925001,21.1822757 C22.4276202,20.9631917 22.4180322,20.7762321 22.8998324,20.685845 C23.1850772,20.632371 23.3620569,20.665892 23.6610846,20.8293071 C24.0625847,21.0491892 24.2259813,21.0386141 24.2259813,20.7927931 C24.2259813,20.366597 23.3808335,20.1489098 22.1983057,20.2706231 C21.2516843,20.3681932 21.2277142,20.3652003 20.7818692,20.104215 C20.3869609,19.8731593 20.3204437,19.8595913 20.2667106,19.9992622 M15.7359514,21.0964778 C15.5623675,21.3051862 15.6658387,22.098318 15.9095353,22.4279416 C16.0168017,22.5731994 16.1360533,22.8591259 16.1744055,23.0632452 C16.2750802,23.60038 16.9350585,23.7995109 16.9350585,23.2929042 C16.9350585,22.8996306 17.9853509,23.0009918 18.1407574,23.4092302 C18.2492224,23.6941591 18.6463279,23.6847811 19.1021604,23.3864838 C19.6287049,23.0418955 19.3242839,22.789889 17.6463729,22.181522 C16.4566541,21.7501381 16.1939811,21.5226739 16.8162065,21.4630144 C17.2270949,21.423707 17.1871447,21.250515 16.7293147,21.0851046 C16.2547055,20.9139078 15.8841669,20.918098 15.7359514,21.0964778 M42.3034744,22.1871089 C42.3034744,22.6570021 42.4480946,22.873093 42.5493686,22.5544436 C42.623676,22.3205944 42.882354,22.2461698 43.6268272,22.244374 C44.3683039,22.2425782 44.3633104,22.2577425 43.302231,23.2296532 C42.4626765,23.9986419 42.4033504,24.0790525 42.4033504,24.4449905 C42.4033504,24.6604829 42.4482945,24.8368675 42.503226,24.8368675 C42.5581575,24.8368675 42.6031016,24.7710226 42.6031016,24.6908115 C42.6031016,24.3298617 44.8021639,24.1385124 44.9363966,24.4876899 C45.0512539,24.7865859 45.199869,24.6271614 45.199869,24.2049559 C45.199869,23.6825863 45.1093815,23.5658613 44.9040371,23.8234545 C44.7132746,24.062691 43.302231,24.2045569 43.302231,23.9842757 C43.302231,23.9142407 43.7135194,23.4778686 44.2160932,23.0147594 C45.3726536,21.94887 45.3536771,21.8947974 43.855143,21.9869802 C42.9069236,22.045243 42.7179589,22.0320741 42.608295,21.8999852 C42.3917651,21.639399 42.3034744,21.722603 42.3034744,22.1871089 M2.8360119,23.1408623 C2.82682335,23.6346992 2.81563725,24.1167637 2.81104298,24.2119395 C2.8026534,24.3869273 3.31541504,24.7069734 3.42647674,24.5960348 C3.45923598,24.5635113 3.38552774,24.4300258 3.26288042,24.2995332 C3.08809803,24.1137707 3.04654976,23.9679142 3.07091942,23.6265184 L3.10228037,23.1907449 L3.62662757,23.1606158 L4.15097475,23.1304868 L4.15097475,23.4726808 C4.15097475,23.6608376 4.08345885,23.8707431 4.00116128,23.9389824 C3.75247087,24.1450969 3.83017417,24.2382774 4.25085041,24.2382774 C4.67412345,24.2382774 4.74922991,24.1450969 4.49534599,23.9347923 C4.13878995,23.6390888 4.35252382,23.1907449 4.85010435,23.1907449 L5.29954478,23.1907449 L5.33130521,23.5762368 C5.35547512,23.8701445 5.30793435,24.0203907 5.13155392,24.2085474 L4.90004216,24.4551666 L5.19847061,24.4216455 C5.45994506,24.3921151 5.50568816,24.338641 5.56721153,23.9888649 C5.73240589,23.0520715 5.61954637,21.9554545 5.4132033,22.4923898 C5.31532515,22.7469901 3.41509094,22.7050888 3.15221822,22.4425073 C2.85958254,22.1501958 2.85398949,22.1623671 2.8360119,23.1408623 M17.4673958,22.4762279 C18.0682477,22.7060865 18.2290475,22.9181869 17.7558366,22.8563325 C17.3535375,22.8036566 16.4356802,22.4415097 16.4356802,22.3355592 C16.4356802,22.1831183 16.8489657,22.2393858 17.4673958,22.4762279 M25.8239918,22.6073191 C25.8239918,23.430979 27.0552588,24.1097801 28.7203857,24.2039583 C29.4360946,24.2444628 29.9214903,24.3274673 30.2488827,24.4649435 C30.7882113,24.6916096 31.0175258,24.6109995 30.8299593,24.2610239 C30.663167,23.9497571 30.0105795,23.7492294 28.9487015,23.6829854 C27.5808045,23.5977861 27.1255713,23.434371 26.5856435,22.8345838 C26.085666,22.2788927 25.8239918,22.2008764 25.8239918,22.6073191 M21.3461667,23.0173533 C21.3645438,23.0592546 21.5099628,23.3543595 21.669564,23.673408 C22.0754587,24.484697 22.1024251,25.0102591 21.7888155,25.984165 C21.3487634,27.3511452 21.5704874,28.3286428 22.3207533,28.3286428 C22.5672464,28.3286428 22.5882203,28.2033379 22.3716899,28.0239604 C21.9002768,27.6330812 21.8281666,27.0586342 22.1401781,26.1803031 C22.2566331,25.8528743 22.3750857,25.3045659 22.4036501,24.9615738 C22.4573832,24.3170918 22.545873,24.1981719 22.7242509,24.530988 C22.878459,24.8185107 22.849495,25.5216545 22.6635265,26.0079091 C22.4757603,26.4991521 22.5374835,26.6456071 22.8235273,26.3870162 C23.3528683,25.9085432 23.4545417,24.8372666 23.0272737,24.2380779 C22.5990069,23.6370935 21.1601982,22.5925538 21.3461667,23.0173533 M30.7178988,23.0333157 C30.7178988,23.0839963 30.8864889,23.1789726 31.0924325,23.2444184 C31.5504622,23.3900754 32.2601787,24.0489235 32.5390315,24.5874549 C32.7451749,24.9855174 33.2141909,26.3614763 33.2153894,26.571781 C33.2157889,26.6326376 33.2845034,26.8136114 33.3681992,26.973834 C33.4682746,27.1655823 33.486452,27.2990679 33.4217325,27.3637156 C33.2930927,27.492213 33.0499954,27.2914857 32.8474475,26.8892332 C32.6291194,26.4558541 32.1099657,25.9342826 31.896831,25.9342826 C31.6763056,25.9342826 31.6613242,26.1633431 31.8706636,26.3369341 C32.267969,26.6661587 31.7989529,26.6340343 31.247839,26.2942347 C30.5860629,25.8861959 29.591701,25.6226167 29.40773,25.8063838 C29.3240341,25.8899869 29.4572683,26.0007261 29.9254854,26.2369696 C30.2722536,26.4117579 30.8059891,26.7892687 31.1114089,27.0757938 C32.4972835,28.3757318 33.879962,29.1006244 35.8704838,29.5713157 C36.9549337,29.8277118 37.3042987,29.4978887 36.3804489,29.0898498 C35.1799435,28.559499 34.8643365,27.9740779 35.7444407,27.9100288 C36.6485152,27.8441839 36.0504598,26.9237519 35.0247368,26.8022381 C34.0389641,26.6857126 34.0167917,26.6623676 33.2259762,24.9164799 C32.7441761,23.8525859 32.3980071,23.3862843 31.9034228,23.1342778 C31.515306,22.9363441 30.7178988,22.8685039 30.7178988,23.0333157 M16.3557797,23.9589354 C16.2137565,24.1008013 16.1977764,24.4024906 16.328214,24.4829012 C16.4614482,24.5653071 17.1348098,24.1444983 17.1348098,23.979088 C17.1348098,23.8035015 16.5269666,23.7879382 16.3557797,23.9589354 M42.2677193,25.9093413 C42.1524626,26.6057011 42.1690421,26.6599733 42.4417028,26.4813939 C42.7956619,26.2497395 44.4741724,26.4608422 44.7186679,26.767919 C44.934399,27.0388808 44.9609662,26.9995733 45.0290812,26.3084013 C45.0848119,25.7417361 44.998719,25.5769243 44.8165459,25.9019587 C44.6913019,26.1254323 42.7293446,25.9424633 42.5445746,25.6900578 C42.3777821,25.4621946 42.336234,25.495117 42.2677193,25.9093413 M5.45674909,26.4195396 C5.39802217,26.5290815 5.20186639,26.6290461 4.97874416,26.6631657 C4.7706033,26.6950905 4.31457109,26.7703133 3.96520605,26.8303719 C3.39491604,26.9287402 3.3160143,26.9215571 3.19436576,26.7613345 C3.06692441,26.5937293 3.05853483,26.5963232 3.0555386,26.8032358 C3.0481478,27.3142322 3.28924763,28.5509192 3.42208223,28.6836067 C3.58527905,28.8468222 4.05109912,28.8793456 4.05109912,28.7277028 C4.05109912,28.672832 4.00615504,28.6279378 3.95122346,28.6279378 C3.3693479,28.6279378 3.25409138,27.4728585 3.82637888,27.3770841 C4.0323225,27.3423659 4.33574471,27.2743262 4.50053955,27.2256408 C5.08041757,27.054045 5.5608195,27.0753947 5.70983396,27.2791149 C5.84246884,27.4602882 5.8488609,27.4576942 5.84766236,27.2254413 C5.84426662,26.4313119 5.65709959,26.0456203 5.45674909,26.4195396 M37.309692,26.6138818 C37.309692,26.658377 37.4445241,26.7944565 37.6093189,26.9161698 C37.9976355,27.2028944 37.9948391,27.492213 37.601928,27.7097007 C36.7823485,28.1632324 36.8328856,28.36376 37.8080715,28.5279733 C38.5499479,28.6530786 38.8445812,28.8645804 38.7906484,29.2337109 C38.7443059,29.5503651 38.9646315,29.5844847 39.1575915,29.290178 C39.4008885,28.9190521 39.1551945,28.5012362 38.560335,28.2741711 C38.0621554,28.0842185 38.0503699,28.0648641 38.2617067,27.7857216 C38.6282505,27.3016618 38.2307452,26.5328726 37.6139134,26.5328726 C37.4465217,26.5328726 37.309692,26.5693866 37.309692,26.6138818 M42.0995287,27.355934 C42.0949342,27.3842672 41.5558054,29.3999194 41.494482,29.6184048 C41.4707119,29.703205 41.564994,29.8015733 41.7271924,29.8614324 C42.0727616,29.988932 42.1864204,29.8821835 41.9650961,29.6379588 C41.756955,29.4081001 41.84145,28.9266342 42.089541,28.92843 C42.2561336,28.9298267 44.0151435,29.397126 44.0455061,29.4482057 C44.0544949,29.4633699 44.1100256,29.5882758 44.1689524,29.7253529 C44.2742212,29.9709744 44.277417,29.96858 44.3826859,29.5757053 C44.6090044,28.7316934 44.622987,28.6279378 44.5115254,28.6279378 C44.4506014,28.6279378 44.4008632,28.6680433 44.4008632,28.7171277 C44.4008632,28.9633477 42.4706666,28.6353204 42.1736366,28.3386193 C42.0264199,28.1915656 42.2545357,27.7240668 42.505623,27.658621 C42.7433269,27.5965671 42.7613044,27.4744548 42.5449744,27.3914503 C42.3873701,27.3311922 42.1075189,27.3086453 42.0995287,27.355934 M29.7191422,27.6707923 C29.7191422,27.7480104 29.9440623,27.9994182 30.2191198,28.2292768 C30.4939776,28.4593349 30.7462635,28.7562356 30.7798217,28.8895216 C30.8529307,29.1806359 31.1773269,29.4260579 31.4891386,29.4260579 C31.8954328,29.4260579 31.7705882,29.0222091 31.1923081,28.4651213 C30.327385,27.6320835 29.7191422,27.3040561 29.7191422,27.6707923 M3.55172083,29.4893089 C3.55172083,29.5240271 3.6038559,29.726151 3.66737682,29.9382514 C3.78223384,30.32095 3.95122346,30.4616186 3.95122346,30.1742954 C3.95122346,29.8907633 4.69729462,29.9789555 4.83412421,30.2788491 C5.07442507,30.805808 4.79756974,31.3136118 4.34772979,31.1709478 C4.11821554,31.0983189 4.1232093,31.3650906 4.3633104,32.0009927 C4.4581923,32.2524005 4.65035302,32.2104992 4.65035302,31.9381407 C4.65035302,31.8447607 4.99871932,31.4694448 5.42438936,31.1039058 C6.94869157,29.7953879 6.95428462,29.8704112 5.32551248,29.7770311 C4.5564699,29.7327355 4.0187394,29.6545197 3.87991222,29.5663275 C3.63761391,29.4126893 3.55172083,29.3925368 3.55172083,29.4893089 M5.74898524,30.09169 C5.74898524,30.1284035 5.67467771,30.2407389 5.58379091,30.3411025 C5.40980749,30.5330504 5.1497313,30.5875221 5.1497313,30.4318887 C5.1497313,30.3814076 5.12236537,30.2692717 5.08920667,30.1824762 C5.04066709,30.0565727 5.10119175,30.0246479 5.38883363,30.0246479 C5.58678716,30.0246479 5.74898524,30.0547769 5.74898524,30.09169 M41.099973,30.7325804 C40.8648656,31.1930956 40.8902344,31.2902668 41.2022456,31.1234597 C41.4465416,30.9929671 42.8206309,31.5510525 42.645249,31.7096789 C42.5945126,31.7555708 42.0811515,31.9403356 41.5044694,32.1203116 C40.4098324,32.4617075 40.1597438,32.6023762 40.0756485,32.9242181 C40.0185195,33.1425039 40.1245875,33.1698396 40.3888586,33.0050278 C40.6595213,32.8362253 42.3220515,33.6712585 42.4037497,34.0172436 C42.4508914,34.2167736 42.4796554,34.2349308 42.556959,34.1140156 C42.8949382,33.5854606 43.0481475,33.0319643 42.7828781,33.2969402 C42.5993063,33.4803083 42.2819014,33.4413999 41.6662684,33.1598631 C40.8430927,32.7835494 40.8189229,32.8011081 43.0275731,32.1699946 C43.8135945,31.9453238 43.7582633,31.8309931 42.5963104,31.278295 C41.8740094,30.9349038 41.5651939,30.7329794 41.5000751,30.5619822 C41.3784263,30.2421356 41.3428706,30.2572999 41.099973,30.7325804 M25.523366,32.3441843 C24.9572708,33.2715999 25.5341526,34.3684164 26.7218739,34.6230167 C27.5162848,34.7932158 27.6217535,34.9502459 27.6217535,35.9638584 C27.6217535,37.247834 27.892816,37.6955794 29.0200127,38.2730194 C29.4922248,38.5150493 29.5881054,38.6140159 29.7035617,38.9785575 C29.9101045,39.6304219 30.5181475,39.4466546 30.5181475,38.7323374 C30.5181475,38.280801 30.2580713,38.0403671 29.380364,37.6806146 C28.1706701,37.1847825 28.0765873,36.9802643 28.26715,35.2623108 C28.3676249,34.3550479 28.2407828,34.2195669 27.1946853,34.1172081 C26.2057165,34.020436 25.6811696,33.6096037 25.7910328,33.0175981 C25.9801972,31.9978002 25.8833179,31.7541741 25.523366,32.3441843 M7.56732139,32.7931269 C7.61925675,33.1016003 5.89360515,34.1674896 5.57620035,34.0228303 C5.27777186,33.88715 5.29554975,33.9755418 5.69425335,34.6062561 C5.96271911,35.030856 6.16466771,35.1461844 6.08117164,34.8269364 C6.04941116,34.7056221 6.12651521,34.5671483 6.30369461,34.4278763 C6.88517066,33.9709526 7.05955357,34.2257524 6.70499497,35.0148936 C6.43193494,35.6224625 6.43273395,35.9903959 6.70759174,36.2182592 C6.82025149,36.3114397 6.84761745,36.2930829 6.84761745,36.12448 C6.84761745,35.4901741 7.32402427,34.7407394 7.62504952,34.9015606 C8.08228027,35.1459849 8.74605386,34.5890966 8.58864983,34.093464 C8.38969755,33.4671393 7.48762061,32.3186445 7.56732139,32.7931269 M8.24587661,33.9934995 C8.24587661,34.4617964 7.36697081,34.7245774 7.1508399,34.3211278 C6.98784285,34.017044 7.02040234,33.9519972 7.47184024,33.6804369 L7.89631178,33.4250384 L8.07109417,33.6313525 C8.16717458,33.7448851 8.24587661,33.9079011 8.24587661,33.9934995 M39.1462054,34.3394845 C38.9880026,34.5727351 38.835792,34.7860327 38.8080266,34.8133683 C38.7065527,34.9141309 38.3084486,35.5053384 38.3084486,35.5550213 C38.3084486,35.5833546 38.4320947,35.5841528 38.5831065,35.5566176 C38.9724217,35.485984 40.4673607,36.563446 40.4320046,36.8892786 C40.3910557,37.2661908 40.549059,37.1347005 41.1862657,36.2617567 C41.8742092,35.3193764 41.8778047,35.3099985 41.6215237,35.0781447 C41.361048,34.8428987 41.301522,34.8722296 41.3678396,35.2038486 C41.5102624,35.9145745 40.8914329,36.3754888 40.3493077,35.9624617 L40.0027391,35.6982839 L40.1759235,35.4055734 C40.2869854,35.2174165 40.4308061,35.1126633 40.5772237,35.1126633 C40.874454,35.1126633 40.8670631,34.9765838 40.5592462,34.7750585 C40.2302557,34.5595661 40.0788442,34.5703407 40.1529521,34.8035913 C40.1917039,34.9251051 40.1277836,35.0927103 39.975573,35.2694939 L39.7378687,35.5456434 L39.3727234,35.2672991 C38.932272,34.9318891 38.9328712,34.9394713 39.3076046,34.5296366 C39.5267317,34.290001 39.6613642,34.2185693 39.8069827,34.2648603 C40.029306,34.3352944 40.0698555,34.2183698 39.8864839,34.0352012 C39.6673567,33.8163168 39.4372432,33.910894 39.1462054,34.3394845 M9.24822866,35.3257614 C9.2430351,35.7104553 7.82180456,36.9489381 7.48302634,36.8639382 C7.14744416,36.7799361 7.17121455,36.8268257 7.91229191,37.7109431 C8.5858533,38.5148498 8.70470535,38.5868801 9.05147362,38.401317 C9.33711799,38.2486766 9.29297295,38.071893 8.98855196,38.1481136 C8.78320762,38.1995921 8.66415585,38.1443224 8.38929802,37.8697691 C7.96143071,37.4423758 7.96242949,37.4014722 8.41426691,37.0052055 L8.78260834,36.6823659 L9.02091165,36.9591141 C9.18730451,37.1522592 9.24143711,37.3068949 9.2000886,37.4711081 C9.16752911,37.6006031 9.17831569,37.7065534 9.22405875,37.7065534 C9.31194934,37.7065534 9.91220197,37.1133508 9.83769476,37.1003813 C9.50690659,37.0425176 9.39824186,36.9974239 9.23584406,36.8505698 C8.96937585,36.609737 8.995743,36.4686693 9.36528292,36.1582006 L9.68548429,35.8888351 L9.97432466,36.2118742 C10.2000436,36.4638806 10.2507804,36.5975657 10.2058364,36.8214384 C10.1389197,37.1560502 10.2399939,37.1877755 10.4906818,36.9110274 C10.709809,36.669197 10.6307074,36.5241387 9.80014151,35.6438122 C9.28618136,35.0990953 9.25162444,35.0791423 9.24822866,35.3257614 M37.275135,36.5638451 C35.819747,37.9759189 36.8898147,39.9191419 38.6767901,39.108651 C39.5155459,38.7283466 39.8645111,37.9946749 39.4122742,37.5618941 C39.2502761,37.4068594 39.1042579,37.1939609 39.0876784,37.0886091 C39.0625099,36.9293841 38.9822096,36.975276 38.6080755,37.3621647 L38.158635,37.8268702 L38.4916204,37.7570348 C39.1372166,37.6213541 39.4520246,38.3171153 38.9172904,38.6974196 C37.8148631,39.4815727 36.3119342,37.8851329 37.2605532,36.9375648 C37.555386,36.6430585 37.6664479,36.5939741 37.9596829,36.6280938 C38.338611,36.6723894 38.4097226,36.5582583 38.133666,36.3489513 C37.8554126,36.1380481 37.6650495,36.1857357 37.275135,36.5638451 M11.1770273,37.4321998 C11.2655171,37.7843704 9.94935574,39.3115729 9.62935417,39.22797 C9.33951502,39.1523479 9.41921576,39.297606 9.90600971,39.7329803 C10.4049885,40.1791294 10.4551261,40.186113 10.3776225,39.7988254 C10.2563735,39.1932518 10.6510821,38.979555 11.2017964,39.3526763 C12.4212782,40.1793289 13.1559635,38.9821489 12.0691166,37.9390061 C11.3262415,37.2260853 11.0917335,37.0927992 11.1770273,37.4321998 M12.081701,38.2871858 C12.3437747,38.7929944 11.8995278,39.3321248 11.3731831,39.1471601 C10.9932561,39.0136748 10.9728814,38.7642623 11.3092627,38.359815 C11.6572294,37.9416 11.8915377,37.9194521 12.081701,38.2871858 M34.8128007,38.8041683 C34.4011132,39.028839 33.5891241,39.7411613 33.8292252,39.666936 C34.2013619,39.5518073 35.3629158,41.1392678 35.2576468,41.6187386 L35.1901309,41.9250173 L35.6589472,41.5886096 C36.2204481,41.1859579 36.2857668,41.0985638 36.0260901,41.0985638 C35.7226679,41.0985638 35.2624408,40.5069574 35.4332282,40.336359 C35.5448892,40.224822 35.6531544,40.2355965 36.0898108,40.4012063 C36.7473921,40.6508186 37.0258454,40.6514171 37.3236746,40.4036006 L37.5593813,40.2072634 L37.2961089,40.2040706 C36.5630216,40.1946926 35.9919326,39.8866185 36.0576508,39.5358446 C36.2074643,38.7387221 35.5934288,38.3779721 34.8128007,38.8041683 M13.2628305,39.2030288 C13.3633054,39.3638497 13.3617073,39.4438612 13.2540414,39.6160556 C12.3701418,41.0299256 12.2988307,41.4285863 12.8373601,41.9439724 C13.5390865,42.6155906 14.2697768,42.3957086 14.979693,41.2996901 C15.294501,40.813236 15.4944521,40.5997388 15.6346775,40.5997388 C15.941096,40.5997388 15.8765763,40.4562765 15.4868615,40.2707137 C15.1492818,40.1098924 15.1372967,40.1108902 15.1372967,40.3008428 C15.1372967,40.972461 14.0322725,42.2025634 13.5624574,42.0537139 C12.8323664,41.8222594 12.81339,41.3066734 13.4947417,40.2028736 C14.0208867,39.3502819 14.0148941,39.3907864 13.64875,39.1746952 C13.2512449,38.940048 13.1052267,38.9508229 13.2628305,39.2030288 M35.6066124,39.3231458 C35.7614196,39.5998939 35.5596708,40.0683904 35.2396692,40.1749395 C34.9963721,40.2559485 34.5075806,39.3512794 34.6937489,39.1645193 C34.946634,38.9111164 35.4224416,38.9939213 35.6066124,39.3231458 M14.6878563,39.546819 C14.176493,39.7044476 14.2220362,39.8612782 14.7669578,39.8185789 C15.2235893,39.7828627 15.3975727,39.6809029 15.2925035,39.5111029 C15.2144008,39.3848006 15.2120037,39.3850001 14.6878563,39.546819 M31.9565567,40.5392813 C31.9271932,40.615701 31.9445716,41.2106996 31.9953084,41.8611675 C32.0708145,42.8332781 32.0618256,43.0854836 31.9439724,43.2770325 C31.7388277,43.6104473 31.8361066,43.637583 32.3312901,43.3853771 C32.7455743,43.1740751 32.7551624,43.1595094 32.5406295,43.0637351 C32.0362575,42.8388649 32.39561,41.9964488 32.9960625,41.9964488 C33.2437541,41.9964488 33.5144171,42.3045233 33.5144171,42.5862596 C33.5144171,42.709968 33.5481751,42.7947683 33.5893239,42.7744166 C33.6304726,42.7542638 33.8551929,42.6558956 34.0887021,42.5557316 C34.5824874,42.3442298 34.6204401,42.2442653 34.2385156,42.1614604 C34.0875037,42.128538 33.5473761,41.7189026 33.03821,41.2510046 C32.0408517,40.334364 32.0364572,40.3315703 31.9565567,40.5392813 M16.2359289,40.7992688 C16.2359289,40.8541395 16.280873,40.8990337 16.3358046,40.8990337 C16.6130594,40.8990337 15.9542796,42.7281255 15.5561752,43.0641338 C15.3104811,43.2714458 15.3068856,43.287408 15.4912561,43.347267 C15.5987223,43.3821848 15.9061395,43.4965155 16.1744055,43.6014683 C17.3659221,44.0675704 18.3409082,43.5380175 17.7270724,42.758454 L17.5201301,42.4956731 L17.7782088,42.397704 C18.1537413,42.2550398 18.3047532,41.8705455 18.1046024,41.5656637 C17.8870732,41.2336455 16.2359289,40.5566404 16.2359289,40.7992688 M17.3387559,41.3002886 C17.7106929,41.4992201 17.7674222,41.7725764 17.4937629,42.0459326 C17.1096411,42.4296285 16.5611241,42.1818124 16.7604759,41.7145129 C16.9831986,41.192343 17.048717,41.1452539 17.3387559,41.3002886 M32.5328392,41.4631054 C32.7899191,41.6957569 32.767547,41.9180336 32.4906917,41.8787261 C32.3296921,41.8557803 32.2569826,41.7689846 32.2344108,41.5724475 C32.198056,41.2573898 32.2741612,41.2294556 32.5328392,41.4631054 M19.0733963,41.8477991 C19.3654327,42.0684791 18.923383,44.1912791 18.5854038,44.1912791 C18.2779866,44.1912791 18.4445791,44.3838255 18.807727,44.4480742 C19.0136706,44.4843885 19.4277551,44.5761724 19.7275818,44.6519936 C20.4660624,44.8387537 20.5034159,44.8325685 20.6773993,44.4961609 C20.8587735,44.1457864 20.7305331,44.015094 20.478447,44.2934385 C20.0927272,44.7192356 19.2853324,44.4339079 19.3776175,43.9041555 C19.5961455,42.6525037 19.7629378,42.1790186 20.0218155,42.0772586 C20.2715046,41.97909 20.2627156,41.9703105 19.7815146,41.840616 C19.0737958,41.6496656 18.8149181,41.652459 19.0733963,41.8477991 M27.7687705,42.0213904 C27.7430026,42.0900285 27.6339384,42.6377385 27.5260727,43.2385234 C27.4000296,43.9408687 27.2562086,44.4307147 27.123374,44.6102921 C26.8906638,44.9245522 26.9547839,44.9488943 27.5682202,44.7786956 C27.9267738,44.6793296 27.9473482,44.6565832 27.7859491,44.5386607 C27.4393806,44.285457 27.6035762,43.764684 28.0642027,43.6565385 C28.527426,43.5477949 28.986854,43.9239086 28.8638071,44.3111966 C28.8046808,44.4975577 28.8304487,44.5065364 29.2347453,44.4398932 C29.8823391,44.3331446 30.029356,44.2283918 29.7045604,44.1048825 C29.5351713,44.0406341 29.1794142,43.625412 28.7153919,42.9506014 C28.0018803,41.9128459 27.8608558,41.7745717 27.7687705,42.0213904 M21.6292143,42.2598289 C21.6292143,42.2949461 21.699327,42.3747577 21.7848205,42.4374101 C21.9969564,42.5922454 21.8273676,44.4163489 21.5748819,44.6950924 C21.4184766,44.8674862 21.4298625,44.8802565 21.7942089,44.941911 C22.0055457,44.9776271 22.2572324,45.0283072 22.3533127,45.0546454 C22.5664474,45.1131075 22.5846248,44.9040004 22.3798797,44.750961 C22.1265951,44.5616066 22.3281441,42.7211419 22.626972,42.4960717 L22.8528908,42.3256736 L22.5282949,42.260826 C22.1128122,42.1778216 21.6292143,42.1772227 21.6292143,42.2598289 M24.3941719,42.3404389 C22.7392323,42.9300499 23.1728924,45.0923569 24.945086,45.0877891 C25.7331049,45.0857722 25.900097,45.0141409 26.0293361,44.623062 C26.1889374,44.1399997 26.0890617,44.1098707 25.7199213,44.5298816 C25.1272592,45.2042929 24.3014873,44.9490941 24.0180402,44.0039205 C23.6760659,42.8634067 24.8264337,41.9132452 25.6064626,42.6924097 L25.9238674,43.0094629 L25.9238674,42.7059776 C25.9238674,42.2019649 25.2411174,42.0387491 24.3941719,42.3404389 M17.0714887,42.5024569 C17.387695,42.7510714 17.4134629,43.1148146 17.1348098,43.3931591 C16.6494141,43.8780169 16.1170769,43.4332643 16.3751556,42.758454 C16.5723101,42.2428684 16.6871672,42.2007679 17.0714887,42.5024569 M28.1612818,43.0102612 C28.3376622,43.2620678 28.2877244,43.3931591 28.0152636,43.3931591 C27.8666487,43.3931591 27.8215048,43.3235231 27.8215048,43.0938638 C27.8215048,42.7412944 27.9503444,42.7095694 28.1612818,43.0102612" id="Shape" fill="#000000" fill-rule="nonzero"></path>
        </g>
    </g>
</svg>