<?xml version="1.0" encoding="UTF-8"?>
<svg width="48px" height="48px" viewBox="0 0 48 48" version="1.1" xmlns="http://www.w3.org/2000/svg" xmlns:xlink="http://www.w3.org/1999/xlink">
    <title>aubendigobank</title>
    <g id="Page-1" stroke="none" stroke-width="1" fill="none" fill-rule="evenodd">
        <g id="aubendigobank">
            <rect id="Rectangle" x="0" y="0" width="48" height="48"></rect>
            <path d="M24.0005987,1.5 C36.4261595,1.5 46.5,11.5750379 46.5,23.9994013 C46.5,36.4237647 36.4261595,46.5 24.0005987,46.5 C11.5750379,46.5 1.5,36.4237647 1.5,23.9994013 C1.5,11.5750379 11.5750379,1.5 24.0005987,1.5 Z M29.0946356,11.4211655 L14.0994252,11.4211655 L23.7793167,24.2490572 L14.0994252,37.0853309 L29.0946356,37.0853309 C32.636585,37.0853309 35.5067853,34.2067486 35.5067853,30.6624044 C35.5067853,27.1228498 32.636585,24.2526495 29.0946356,24.2526495 L29.209,24.254 L29.3246573,24.2521917 C32.6836785,24.1337224 35.3843668,21.4308408 35.5027386,18.0717222 L35.5067853,17.8416971 C35.5067853,14.2985503 32.636585,11.4211655 29.0946356,11.4211655 Z M14.0987068,13.9461563 L14.0987068,16.5445438 L19.9109523,24.2487028 L14.0987068,31.9696256 L14.0987068,34.5308933 L21.8459727,24.2487028 L14.0987068,13.9461563 Z M14.0987068,19.1134749 L14.0987068,21.6831245 L16.042109,24.2491818 L14.0987068,26.8152391 L14.0987068,29.4220085 L17.9771294,24.2491818 L14.0987068,19.1134749 Z" id="Combined-Shape" fill="#990033" fill-rule="nonzero"></path>
        </g>
    </g>
</svg>