<?xml version="1.0" encoding="UTF-8"?>
<svg width="48px" height="48px" viewBox="0 0 48 48" version="1.1" xmlns="http://www.w3.org/2000/svg" xmlns:xlink="http://www.w3.org/1999/xlink">
    <title>bankwest</title>
    <g id="Page-1" stroke="none" stroke-width="1" fill="none" fill-rule="evenodd">
        <g id="bankwest">
            <rect id="Rectangle" x="0" y="0" width="48" height="48"></rect>
            <path d="M40.1612872,8.41772752 C43.2382454,11.6993218 45.0945922,15.616884 45.7303274,20.0686592 C46.6966448,26.708164 45.0691628,32.6862621 40.7970223,37.8757601 C37.5674876,41.7933223 33.4479237,44.41351 28.4891892,45.4310586 C20.4534965,47.1100138 13.4095507,45.0749166 7.53535766,39.3003282 C4.02609946,35.8915403 1.99174688,31.6687135 1.25429407,26.8353576 C1.15257644,26.1485122 1.12714704,25.4616669 1.05085881,24.7493829 C1.02542941,24.6221893 1.02542941,24.4949957 1,24.3423634 L1,22.6379695 C1.02542941,22.2563888 1.07628822,21.874808 1.10171763,21.4932273 C1.43229992,17.6519813 2.67834088,14.1159998 4.8652699,10.9361604 C8.3490987,5.87385597 13.0789684,2.59226167 19.1311674,1.44751947 C27.3448659,-0.0788034599 34.4142411,2.3124358 40.1612872,8.41772752 Z M23.5050254,3.38075515 C12.3923744,3.35542313 3.36493487,12.4116059 3.33950547,23.5283245 C3.33950547,34.6704819 12.3415156,43.7012259 23.479596,43.7012259 C34.6431058,43.7012259 43.6452226,34.7213594 43.6452226,23.5537633 C43.6705454,12.4370446 34.6176764,3.38075515 23.5050254,3.38075515 Z M17.8088382,16.6344326 C18.6225792,18.3133879 18.2411381,20.2212915 16.8170913,21.4169111 C16.486509,21.6458596 16.1813561,21.874808 15.8507738,22.1546339 C16.8425207,23.0195502 17.8088382,23.8844666 18.7751557,24.7493829 C19.7414731,23.8844666 20.7077906,23.0449889 21.6741081,22.2055113 C21.3689552,21.9511242 21.0892317,21.696737 20.8095082,21.4423499 C19.5888967,20.3230464 19.105738,18.923917 19.5634673,17.321278 C20.0211966,15.7186389 21.1146611,14.7519677 22.7421432,14.4212644 C24.4459135,14.0651224 26.2514014,14.9300387 27.0905718,16.5072391 C27.9297423,18.0844394 27.6500188,19.9669044 26.4039778,21.2134014 C26.0479661,21.5441047 25.6919544,21.874808 25.3105133,22.2055113 C26.2768308,23.0704277 27.2177189,23.9099053 28.1840363,24.7493829 C29.1757832,23.8844666 30.1421007,23.0195502 31.1338476,22.1546339 C30.8541241,21.9256855 30.59983,21.7221757 30.345536,21.518666 C29.0232068,20.3993625 28.5146186,19.0002332 28.972348,17.3467167 C29.4300773,15.6932002 30.5744006,14.7010903 32.2781709,14.3958257 C34.0073706,14.0905611 35.7874291,15.0317936 36.5757407,16.6089939 C37.3894818,18.2370717 37.0588995,20.0940979 35.7111409,21.340595 C34.1345176,22.7906018 32.5070356,24.1897311 30.9049829,25.6142992 C30.6252594,25.8686864 30.345536,26.0976348 30.0403831,26.3774607 C30.345536,26.6572865 30.6252594,26.9116737 30.9304123,27.1660609 C31.6170063,27.77659 32.0493063,28.5143128 32.2527415,29.4046678 C32.8121885,32.0757329 30.3963948,34.6450432 27.7008776,34.2125851 C25.4376604,33.856443 23.9627547,31.9994168 24.1916194,29.7099324 C24.293337,28.7178225 24.7510664,27.8783449 25.4885192,27.2169383 C25.7936721,26.9371124 26.098825,26.6827253 26.4294072,26.3774607 C25.4630898,25.5125443 24.4967723,24.6730667 23.5304548,23.8081504 C22.5641373,24.647628 21.6232493,25.4871056 20.6315024,26.352022 C20.9366553,26.6318478 21.2418082,26.886235 21.5215317,27.1406221 C22.2081256,27.7511513 22.6404256,28.5143128 22.8438608,29.4046678 C23.2761608,31.5923974 21.6741081,33.856443 19.4871791,34.1617076 C17.045956,34.4924109 14.9607446,32.8643331 14.7573093,30.3967777 C14.6555917,29.1502807 15.1387504,28.0818546 16.0542091,27.2169383 C16.359362,26.9371124 16.6899443,26.6572865 17.0205266,26.352022 C16.9188089,26.2757058 16.8425207,26.1739509 16.7662325,26.1230735 C15.0116034,24.5713119 13.2315449,23.0195502 11.5023452,21.4423499 C10.2817336,20.3484851 9.7731455,18.9747945 10.2054454,17.3721554 C10.6377453,15.7440776 11.7312099,14.7774064 13.3586919,14.4212644 C15.1387504,14.0396836 16.9696678,14.9554774 17.8088382,16.6344326 Z M18.8005851,27.9292223 C18.3428557,28.3616805 17.859697,28.7432612 17.4528265,29.2011581 C16.9950972,29.6844937 16.9950972,30.371339 17.3256795,30.9818682 C17.8088382,31.8467845 18.9277321,32.1011717 19.7414731,31.5415199 C20.5297848,31.0073069 20.73322,29.8880034 20.1229143,29.1757194 C19.7160437,28.7432612 19.2583144,28.3616805 18.8005851,27.9292223 Z M28.2094658,27.954661 C27.7771658,28.3616805 27.3194365,28.7178225 26.9379954,29.1248419 C26.5565543,29.5064227 26.4548367,29.9897583 26.5565543,30.4985326 C26.6837013,31.1599392 27.3194365,31.7450296 28.0060305,31.8213458 C28.7434833,31.8976619 29.4300773,31.5160812 29.7606596,30.8546746 C30.0658125,30.193268 29.9386655,29.5064227 29.3792185,28.9976484 C28.972348,28.6415064 28.5909069,28.3108031 28.2094658,27.954661 Z M22.0046904,17.6265425 C21.6741081,18.2370717 21.7249669,18.923917 22.2081256,19.4326913 C22.6149962,19.8397108 23.0472961,20.1958528 23.5050254,20.6028723 C23.9118959,20.2212915 24.3187664,19.9160269 24.6747781,19.5598849 C25.1325075,19.1274268 25.2850839,18.5932137 25.1325075,17.9826846 C24.9545016,17.321278 24.3950547,16.8379424 23.6576019,16.7361875 C23.0218667,16.6598713 22.3352727,17.0160134 22.0046904,17.6265425 Z M12.6975273,17.4739102 C12.239798,18.1607556 12.3415156,18.9493557 12.926392,19.5344462 C13.2824037,19.8651495 13.6638448,20.1958528 14.0452859,20.5519948 C14.5030152,20.1704141 14.9607446,19.8142721 15.3676151,19.4072526 C15.5456209,19.2291816 15.672768,18.9493557 15.7490562,18.6949686 C15.9270621,17.9318071 15.4693327,17.1432069 14.7573093,16.8379424 C14.0198565,16.5326778 13.1552567,16.7870649 12.6975273,17.4739102 Z M32.9647649,16.7361875 C32.2781709,16.7107488 31.6170063,17.1432069 31.3627123,17.8046135 C31.1084182,18.4660201 31.2609946,19.1274268 31.845871,19.6107623 C32.2018827,19.9414656 32.5833238,20.2212915 32.9647649,20.5519948 C33.3716354,20.1958528 33.7530765,19.8651495 34.1345176,19.5090075 C34.592247,19.0765493 34.719394,18.5168976 34.5413882,17.9318071 C34.3379529,17.2449618 33.7022177,16.7616262 32.9647649,16.7361875 Z" id="Combined-Shape" fill="#DB7000" fill-rule="nonzero"></path>
        </g>
    </g>
</svg>