<?xml version="1.0" encoding="UTF-8"?>
<svg width="48px" height="48px" viewBox="0 0 48 48" version="1.1" xmlns="http://www.w3.org/2000/svg" xmlns:xlink="http://www.w3.org/1999/xlink">
    <title>beac</title>
    <g id="Page-1" stroke="none" stroke-width="1" fill="none" fill-rule="evenodd">
        <g id="beac">
            <rect id="Rectangle" x="0" y="0" width="48" height="48"></rect>
            <path d="M24.5,2 C36.9264069,2 47,12.0735931 47,24.5 C47,36.9264069 36.9264069,47 24.5,47 C12.0735931,47 2,36.9264069 2,24.5 C2,12.0735931 12.0735931,2 24.5,2 Z M24.5,3.32352941 C12.8045582,3.32352941 3.32352941,12.8045582 3.32352941,24.5 C3.32352941,36.1954418 12.8045582,45.6764706 24.5,45.6764706 C36.1954418,45.6764706 45.6764706,36.1954418 45.6764706,24.5 C45.6764706,12.8045582 36.1954418,3.32352941 24.5,3.32352941 Z M27.355241,34.9959459 C27.3734842,35.0141892 27.4099707,35.0263514 27.4160518,35.0445946 C27.4951058,35.5554054 27.5559166,36.0662162 27.6471329,36.5648649 C27.6744977,36.7138514 27.7170653,36.8613176 27.7641937,37.0080236 L27.9086193,37.4466216 C27.9207815,37.4831081 27.9511869,37.5195946 27.957268,37.5560811 C28.036322,37.9635135 28.0910518,38.377027 28.1883491,38.7844595 C28.261322,39.0945946 28.3890247,39.3986486 28.480241,39.7027027 C28.5288896,39.8608108 28.5532139,40.025 28.5897004,40.1891892 L28.6991599,40.2074324 C28.9424031,39.502027 29.1856464,38.7966216 29.4471329,38.0304054 C29.4714572,38.1581081 29.5201058,38.2554054 29.5079437,38.3466216 C29.4349707,39.0459459 29.3680788,39.7452703 29.2707815,40.4385135 C29.2403761,40.6695946 29.155241,40.9128378 29.0397004,41.1195946 C28.8147004,41.527027 28.9059166,41.9040541 29.0397004,42.3114865 C29.1734842,42.725 29.2403761,43.1567568 29.3498356,43.6432432 C29.4288896,43.5581081 29.4836193,43.5277027 29.5079437,43.472973 C29.5626734,43.3331081 29.611322,43.1871622 29.6356464,43.0412162 C29.7207815,42.6033784 29.7876734,42.1655405 29.8788896,41.7277027 C29.9701058,41.2959459 30.0917274,40.8763514 30.2011869,40.4506757 C30.2680788,40.1952703 30.3471329,39.9398649 30.3897004,39.6783784 C30.4869977,39.1128378 30.5660518,38.5412162 30.6633491,37.9756757 C30.7180788,37.6655405 30.7910518,37.3675676 30.8640247,37.0209459 C31.0282139,37.1790541 31.1741599,37.3189189 31.259295,37.4040541 C31.2106464,37.8783784 31.180241,38.2797297 31.1255112,38.675 C31.0707815,39.0641892 30.9856464,39.4472973 30.9126734,39.8364865 C30.882268,40.0128378 30.8336193,40.1891892 30.8032139,40.3655405 C30.7241599,40.9371622 30.6694302,41.5087838 30.5660518,42.0743243 C30.4991599,42.4331081 30.3532139,42.7736486 30.2741599,43.1263514 C30.2194302,43.3695946 30.2133491,43.625 30.1890247,43.8743243 C29.7268626,44.0263514 29.2586193,44.1783784 28.7903761,44.3364865 C28.7417274,43.8074324 28.705241,43.3148649 28.6444302,42.8283784 C28.632268,42.7189189 28.5471329,42.6155405 28.4680788,42.4635135 C28.2491599,42.8831081 28.0180788,43.247973 27.8721329,43.6493243 C27.8234842,43.7831081 27.9937545,43.9959459 28.0606464,44.1783784 C28.0971329,44.2635135 28.1336193,44.3547297 28.1761869,44.4581081 C27.6653761,44.5310811 27.1971329,44.5918919 26.7106464,44.6648649 C26.8505112,44.3851351 26.9417274,44.0993243 27.1059166,43.8682432 C27.3430788,43.5459459 27.2397004,43.2418919 27.1606464,42.9195946 C27.0694302,42.5486486 26.9782139,42.1777027 26.8626734,41.8128378 C26.7532139,41.4662162 26.6133491,41.1256757 26.4856464,40.7851351 C26.4491599,40.7912162 26.4126734,40.8033784 26.3761869,40.8094595 C26.3518626,40.8702703 26.3214572,40.9310811 26.3032139,40.9918919 C26.1815923,41.4054054 26.0478085,41.825 25.9383491,42.2385135 C25.8532139,42.5608108 25.7741599,42.8891892 25.7194302,43.2175676 C25.6464572,43.697973 25.5917274,44.1783784 25.5309166,44.6709459 L24.7768626,44.6709459 C24.8255112,44.5189189 24.8559166,44.3972973 24.8984842,44.2756757 C24.9167274,44.227027 24.959295,44.1905405 24.9653761,44.1418919 C25.0383491,43.7344595 25.0869977,43.3209459 25.1721329,42.9135135 C25.2633491,42.4878378 25.3910518,42.0682432 25.5005112,41.6486486 C25.5734842,41.3567568 25.6403761,41.0648649 25.7255112,40.7790541 C25.8167274,40.4628378 25.9261869,40.1587838 26.0234842,39.8425676 C26.0478085,39.7635135 26.0660518,39.6662162 26.0478085,39.5810811 C25.9505112,39.1736486 25.8410518,38.7722973 25.7437545,38.3648649 C25.7194302,38.2675676 25.7376734,38.1581081 25.7376734,38.0608108 C25.786322,38.0608108 25.8167274,38.0608108 25.8471329,38.0668919 C26.011322,38.4135135 26.1755112,38.7662162 26.3701058,39.1736486 C26.6437545,38.6506757 26.8748356,38.2067568 27.1059166,37.7628378 C27.136322,37.7689189 27.1667274,37.775 27.2032139,37.7810811 C27.2032139,37.847973 27.2153761,37.9209459 27.2032139,37.9817568 C27.0876734,38.4074324 26.9599707,38.8391892 26.8383491,39.2648649 C26.7836193,39.4594595 26.6924031,39.6601351 26.7106464,39.8547297 C26.7228085,40.0310811 26.8565923,40.1952703 26.9295653,40.3655405 C27.0390247,40.627027 27.1424031,40.8945946 27.2457815,41.1621622 C27.3917274,41.5331081 27.5315923,41.9101351 27.7140247,42.275 C27.8417274,41.8493243 28.3525383,41.6060811 28.1944302,41.0709459 L28.0637995,40.5810811 L27.8417274,39.5932432 C27.8356464,39.575 27.8295653,39.5567568 27.8295653,39.5324324 C27.7626734,38.9972973 27.7018626,38.4682432 27.6288896,37.9331081 C27.5619977,37.4222973 27.5741599,36.875 27.3917274,36.4067568 C27.2153761,35.9628378 27.3126734,35.5371622 27.2640247,35.1114865 C27.2640247,35.0871622 27.2761869,35.0506757 27.2944302,35.0263514 C27.3005112,35.0141892 27.3248356,35.0081081 27.355241,34.9959459 Z M25.1478085,35.1297297 C25.1538896,35.2939189 25.1903761,35.4277027 25.1599707,35.5371622 C25.111322,35.75 25.032268,35.9628378 24.9471329,36.1635135 C24.7829437,36.5527027 24.6126734,36.9418919 24.4241599,37.3189189 C24.2964572,37.5682432 24.0714572,37.7871622 24.0106464,38.0486486 C23.9315923,38.3831081 23.9741599,38.7540541 23.9619977,39.1067568 C23.9559166,39.2222973 23.9680788,39.3378378 23.9559166,39.4594595 C23.9498356,39.5263514 23.8951058,39.5993243 23.907268,39.6601351 C23.9315923,39.7756757 23.986322,39.8790541 24.0288896,39.9885135 C24.0957815,39.8912162 24.1809166,39.8060811 24.2234842,39.7027027 C24.4059166,39.2527027 24.5701058,38.7966216 24.7403761,38.3466216 C24.8315923,38.1094595 24.9167274,37.8722973 25.0140247,37.6351351 C25.0687545,37.5013514 25.1295653,37.3736486 25.1964572,37.2398649 L25.9869977,35.6891892 L26.0660518,35.7074324 C26.0660518,35.8047297 26.0964572,35.9141892 26.0599707,35.9993243 C25.8897004,36.425 25.7133491,36.8506757 25.5309166,37.2763514 C25.3059166,37.7932432 25.0626734,38.297973 24.8437545,38.8209459 C24.6917274,39.1858108 24.5701058,39.5689189 24.436322,39.9398649 C24.357268,40.1648649 24.2538896,40.3837838 24.1991599,40.6148649 C24.1201058,40.9614865 24.0532139,41.3202703 24.0288896,41.672973 L23.8525383,44.3547297 C23.8464572,44.4094595 23.7430788,44.5067568 23.6883491,44.5067568 C23.2565923,44.5189189 22.8248356,44.5128378 22.3018626,44.5128378 C22.3869977,44.2209459 22.4538896,43.9777027 22.5268626,43.7405405 C22.5390247,43.6918919 22.557268,43.6432432 22.5694302,43.5945946 C22.6424031,43.247973 22.6728085,42.8891892 22.782268,42.5608108 C22.9647004,42.0135135 23.2383491,41.4966216 23.3903761,40.9432432 C23.4937545,40.5783784 23.4511869,40.1648649 23.457268,39.7756757 C23.457268,39.7331081 23.3417274,39.6540541 23.2869977,39.6601351 C23.232268,39.6601351 23.159295,39.7452703 23.1349707,39.8060811 C22.9525383,40.2743243 22.7701058,40.7425676 22.6059166,41.2168919 C22.4538896,41.6668919 22.3261869,42.122973 22.180241,42.5790541 C22.0707815,42.9256757 21.9369977,43.2722973 21.8397004,43.625 C21.7910518,43.8074324 21.7788896,44.002027 21.7728085,44.1966216 C21.7606464,44.5493243 21.5295653,44.4885135 21.2984842,44.4763514 C21.0491599,44.4641892 21.0065923,44.3182432 21.061322,44.1297297 C21.1707815,43.7405405 21.2924031,43.3513514 21.4140247,42.9621622 C21.4869977,42.725 21.5538896,42.4817568 21.6329437,42.2445946 L22.1680788,40.6087838 C22.2532139,40.3351351 22.3018626,40.0493243 22.405241,39.7817568 C22.557268,39.3986486 22.7336193,39.0277027 22.9099707,38.6506757 C23.2140247,37.9939189 23.5849707,37.3614865 23.4755112,36.5952703 C23.4390247,36.3277027 23.3964572,36.0662162 23.3599707,35.7986486 C23.4025383,35.7925676 23.4511869,35.7743243 23.4998356,35.7621622 C23.5484842,35.9202703 23.6275383,36.0722973 23.6457815,36.2304054 C23.682268,36.5952703 23.6883491,36.9662162 23.7065923,37.3371622 C23.7369977,37.3432432 23.7734842,37.3554054 23.8038896,37.3614865 C24.2417274,36.6378378 24.6734842,35.9141892 25.1478085,35.1297297 Z M23.311322,43.0168919 C23.2505112,43.0655405 23.1410518,43.1141892 23.1349707,43.175 C23.0984842,43.5033784 23.1532139,43.85 22.934295,44.1540541 C22.9160518,44.1844595 22.9951058,44.3425676 23.0315923,44.3425676 C23.1228085,44.3425676 23.2869977,44.3 23.2991599,44.2513514 C23.3782139,43.9472973 23.4147004,43.6432432 23.4815923,43.2297297 C23.4633491,43.2054054 23.384295,43.1081081 23.311322,43.0168919 Z M13.1255112,30.2648649 C13.3626734,30.7635135 13.5937545,31.2621622 13.855241,31.8094595 C14.2687545,31.3655405 14.4025383,30.7574324 14.8221329,30.2648649 C14.834295,30.3804054 14.8768626,30.4898649 14.8464572,30.5567568 C14.6336193,30.9945946 14.3721329,31.4081081 14.1957815,31.8641892 C14.1045653,32.0952703 14.1167274,32.3993243 14.1653761,32.6486486 C14.2444302,33.0560811 14.3903761,33.4574324 14.5059166,33.8587838 C14.6457815,34.3391892 14.7917274,34.8195946 14.9315923,35.2939189 C15.0045653,35.3182432 15.0471329,35.3304054 15.0897004,35.3364865 C15.1565923,35.1540541 15.1869977,34.9412162 15.3025383,34.7891892 C15.5640247,34.4547297 15.5032139,34.0777027 15.4545653,33.7189189 C15.3937545,33.3054054 15.2295653,32.9162162 15.1383491,32.5087838 C15.0897004,32.2898649 15.1018626,32.0527027 15.0897004,31.8216216 L15.2174031,31.7972973 C15.4484842,32.4114865 15.6795653,33.0256757 15.9410518,33.7189189 C16.3728085,33.0560811 16.7924031,32.4236486 17.2119977,31.7851351 L17.3032139,31.8155405 C17.2910518,31.9067568 17.3032139,32.0101351 17.2606464,32.0952703 C16.9748356,32.7033784 16.6890247,33.3114865 16.3728085,33.9013514 C16.0201058,34.5641892 16.1964572,35.227027 16.2937545,35.902027 C16.3606464,36.3702703 16.3545653,36.8506757 16.3849707,37.325 C16.3971329,37.4648649 16.4275383,37.6047297 16.4457815,37.7445946 C16.4761869,37.7506757 16.5005112,37.7506757 16.5309166,37.7567568 C16.5917274,37.6837838 16.6829437,37.6168919 16.707268,37.5317568 C16.7984842,37.2155405 16.859295,36.8932432 16.9565923,36.5831081 C17.0538896,36.2547297 17.1755112,35.9324324 17.2788896,35.6040541 C17.3761869,35.2939189 17.4674031,34.9777027 17.5951058,34.6675676 C17.680241,34.8378378 17.759295,35.0081081 17.5707815,35.1601351 C17.5403761,35.1905405 17.5160518,35.2391892 17.5099707,35.2878378 C17.3701058,35.9202703 17.2545653,36.5587838 17.0964572,37.1912162 C16.9505112,37.7628378 16.7315923,38.3101351 16.6099707,38.8878378 C16.5309166,39.2709459 16.561322,39.6722973 16.555241,40.0675676 C16.5491599,40.5297297 16.555241,40.9918919 16.555241,41.4905405 C16.6829437,41.5513514 16.7255112,41.4418919 16.780241,41.2837838 C16.932268,40.8337838 17.0964572,40.3898649 17.2606464,39.9459459 C17.4126734,39.5324324 17.5525383,39.1189189 17.7228085,38.7114865 C17.9295653,38.2128378 18.1180788,37.6959459 18.3978085,37.2398649 C18.6410518,36.8385135 18.5619977,36.4614865 18.4951058,36.0662162 C18.4464572,35.7864865 18.361322,35.5128378 18.3005112,35.2391892 L18.2924031,35.1644144 L18.3005112,35.0081081 C18.3248356,34.9959459 18.355241,34.9837838 18.3795653,34.9716216 C18.5194302,35.2148649 18.6714572,35.4581081 18.7991599,35.7135135 C18.8782139,35.8716216 18.9147004,36.047973 18.9937545,36.2060811 C19.0059166,36.2364865 19.1701058,36.2425676 19.2005112,36.2060811 C19.4619977,35.8898649 19.705241,35.5614865 19.9667274,35.2513514 C20.1065923,35.0932432 20.307268,35.0932432 20.4410518,35.2391892 C20.7451058,35.5736486 21.0309166,35.9324324 21.3106464,36.2912162 C21.4505112,36.4675676 21.5660518,36.6682432 21.7180788,36.8993243 C22.180241,36.6195946 22.2836193,36.047973 22.7397004,35.7195946 C22.7214572,35.8168919 22.7275383,35.9263514 22.6849707,36.0054054 C22.4660518,36.3763514 22.2653761,36.7655405 21.9978085,37.0939189 C21.7606464,37.3797297 21.8640247,37.5621622 22.0525383,37.7871622 C22.259295,38.0364865 22.2106464,38.3222973 22.1498356,38.6628378 C21.961322,38.4317568 21.8032139,38.2554054 21.6755112,38.0668919 C21.5660518,37.9027027 21.4930788,37.9087838 21.3897004,38.0608108 C21.0856464,38.4986486 20.7876734,38.9425676 20.4775383,39.3743243 C20.3194302,39.5993243 20.1491599,39.8182432 19.9667274,40.025 C19.6991599,40.3351351 19.7478085,40.6939189 19.7903761,41.0527027 C19.8207815,41.302027 19.9059166,41.5452703 19.9059166,41.7945946 C19.9241599,42.5608108 19.9119977,43.327027 19.9119977,44.1662162 C19.6687545,44.0689189 19.407268,44.0263514 19.2491599,43.8743243 C19.1701058,43.7952703 19.2856464,43.5216216 19.2978085,43.3391892 C19.334295,42.8283784 19.3707815,42.3114865 19.3951058,41.8006757 C19.4011869,41.672973 19.3647004,41.5391892 19.3403761,41.4114865 L19.2248356,41.3932432 C18.8721329,42.1047297 18.5255112,42.8162162 18.130241,43.6067568 C18.0481464,43.5763514 17.9493288,43.5398649 17.8444302,43.501098 L17.5221329,43.3817568 C17.7228085,42.9439189 17.8809166,42.5425676 18.0815923,42.1716216 C18.3369977,41.6972973 18.6106464,41.2290541 18.9086193,40.7851351 C19.1214572,40.4689189 19.2674031,40.1527027 19.2187545,39.7574324 C19.1883491,39.5081081 19.2309166,39.2466216 19.1883491,38.9972973 C19.1397004,38.7114865 19.0424031,38.4317568 18.9633491,38.152027 C18.9207815,38.1459459 18.8782139,38.1337838 18.8356464,38.1277027 C18.7018626,38.377027 18.5559166,38.6202703 18.4282139,38.8695946 C18.2518626,39.2101351 18.0755112,39.5567568 17.911322,39.9033784 C17.8140247,40.1162162 17.759295,40.3412162 17.6741599,40.5601351 C17.6011869,40.7486486 17.5099707,40.9310811 17.4369977,41.1195946 C17.2728085,41.5087838 17.1086193,41.897973 16.9565923,42.2993243 C16.8532139,42.5790541 16.780241,42.8709459 16.6951058,43.1506757 C16.4214572,43.0168919 16.1538896,42.8891892 15.8559166,42.7432432 C15.8559166,42.5972973 15.8133491,42.3966216 15.8619977,42.2202703 C16.0687545,41.4418919 16.0018626,40.6513514 16.0079437,39.8668919 C16.0201058,38.6081081 16.0079437,37.3554054 15.9897004,36.0966216 C15.9836193,35.8655405 15.880241,35.6344595 15.8133491,35.4033784 C15.807268,35.3851351 15.6491599,35.3790541 15.6309166,35.4033784 C15.4424031,35.7135135 15.2660518,36.0358108 15.0957815,36.3581081 C15.0653761,36.4128378 15.0714572,36.5040541 15.0957815,36.5648649 C15.3147004,37.1182432 15.357268,37.7081081 15.4545653,38.2858108 C15.6430788,39.4108108 15.5944302,40.5297297 15.6126734,41.6547297 C15.6187545,41.9040541 15.6126734,42.1533784 15.6126734,42.3966216 C15.1079437,42.5060811 14.8890247,42.3358108 14.8890247,41.8797297 C14.8951058,40.6513514 14.8951058,39.4290541 14.8951058,38.2006757 C14.8951058,38.0608108 14.8586193,37.9209459 14.8403761,37.775 L14.7369977,37.7567568 C14.6640247,37.9027027 14.5667274,38.0364865 14.5241599,38.1885135 C14.4390247,38.4743243 14.384295,38.7722973 14.3234842,39.0641892 C14.2444302,39.4655405 14.1836193,39.872973 14.0924031,40.2743243 C13.9890247,40.7425676 13.861322,41.2108108 13.7397004,41.7033784 C13.4538896,41.4722973 13.2167274,41.2837838 12.9856464,41.0952703 C13.0038896,41.0709459 13.0221329,41.0466216 13.0464572,41.0222973 C13.0890247,40.9554054 13.1498356,40.8945946 13.1680788,40.8277027 C13.2532139,40.4993243 13.3079437,40.1587838 13.3991599,39.8364865 C13.484295,39.5141892 13.6059166,39.1918919 13.7032139,38.8756757 C13.782268,38.6324324 13.8491599,38.3831081 13.9221329,38.1398649 C14.0559166,37.6837838 14.1532139,37.2094595 14.3478085,36.7777027 C14.4815923,36.4858108 14.536322,36.2121622 14.4998356,35.9202703 C14.457268,35.5797297 14.3599707,35.2452703 14.2809166,34.9108108 C14.1836193,34.5033784 14.086322,34.0959459 13.9647004,33.7006757 C13.9160518,33.5425676 13.8065923,33.4027027 13.6849707,33.1777027 C13.5633491,33.4817568 13.4660518,33.6824324 13.3991599,33.8891892 C13.3140247,34.1567568 13.259295,34.4364865 13.1680788,34.7040541 C13.0707815,34.9959459 12.955241,35.2817568 12.8518626,35.5675676 C12.8336193,35.6162162 12.8275383,35.6648649 12.8153761,35.7135135 C12.7484842,36.047973 12.7180788,36.4006757 12.6025383,36.722973 C12.3167274,37.5074324 12.2498356,38.3222973 12.207268,39.1493243 C12.1829437,39.5567568 12.0917274,39.9581081 12.0248356,40.3655405 C11.6356464,40.402027 11.4410518,40.2256757 11.5079437,39.8425676 C11.605241,39.2709459 11.7329437,38.7054054 11.8424031,38.1337838 C11.9336193,37.6655405 12.0005112,37.1851351 12.1038896,36.7168919 C12.1890247,36.3459459 12.3167274,35.9810811 12.4140247,35.6101351 C12.4991599,35.2695946 12.5599707,34.9168919 12.6511869,34.5763514 C12.736322,34.2601351 12.8518626,33.95 12.9491599,33.6337838 C13.0282139,33.3905405 13.0951058,33.1472973 13.180241,32.9101351 C13.2349707,32.7581081 13.3444302,32.6182432 13.3748356,32.4601351 C13.4417274,32.0952703 13.4234842,31.7425676 13.2349707,31.3837838 C13.0951058,31.1162162 13.0647004,30.7878378 12.9978085,30.4777027 C12.9856464,30.4108108 13.0221329,30.3378378 13.0403761,30.2648649 L13.1255112,30.2648649 Z M39.6937545,23.7216216 C39.7424031,23.8614865 39.7788896,23.9162162 39.7849707,23.977027 C39.7849707,24.3905405 39.8214572,24.8101351 39.7667274,25.2236486 C39.7059166,25.6918919 39.5538896,26.147973 39.4505112,26.6040541 C39.3714572,26.9324324 39.3167274,27.2608108 39.2255112,27.5831081 C39.0917274,28.0513514 38.9397004,28.5195946 38.7815923,28.9817568 C38.7025383,29.2128378 38.5505112,29.4378378 38.5261869,29.675 C38.4897004,30.0216216 38.2160518,30.1918919 38.0518626,30.4351351 L36.6775383,32.4418919 C36.6228085,32.527027 36.6228085,32.672973 36.6410518,32.7885135 C36.6897004,33.0925676 36.7505112,33.3905405 36.8234842,33.6885135 C36.8660518,33.8709459 36.9390247,34.0533784 37.0241599,34.3209459 L37.0702302,34.2478757 L37.1340572,34.1519405 C37.1494302,34.1278108 37.1591599,34.1093243 37.1640247,34.0898649 C37.2978085,33.5972973 37.4315923,33.1108108 37.5653761,32.6182432 C37.6261869,32.4054054 37.6748356,32.1864865 37.7538896,31.9797297 C37.7721329,31.9341216 37.8245822,31.8987753 37.8727557,31.8634291 L37.888,31.85 L37.8923767,31.9687909 C37.9073419,32.3272065 37.9386024,32.6896959 37.7417274,33.0195946 C37.7295653,33.0378378 37.7295653,33.0560811 37.7295653,33.0804054 C37.6565923,33.7554054 37.5897004,34.4304054 37.5106464,35.1054054 C37.486322,35.3304054 37.4133491,35.5432432 37.3768626,35.7682432 C37.3586193,35.8533784 37.3586193,35.9506757 37.3768626,36.0358108 C37.4194302,36.2790541 37.486322,36.5162162 37.5167274,36.7594595 C37.5957815,37.3675676 37.632268,37.9878378 37.7295653,38.5898649 C37.7903761,38.9668919 37.930241,39.3317568 38.0640247,39.6905405 C38.1734842,39.9885135 38.0640247,40.177027 37.8451058,40.3533784 C37.705241,40.4689189 37.5653761,40.5783784 37.3768626,40.7304054 C37.3647004,40.4385135 37.3647004,40.1648649 37.3403761,39.8912162 C37.2856464,39.2344595 37.2187545,38.5777027 37.1518626,37.927027 C37.1457815,37.8844595 37.1153761,37.8418919 37.0971329,37.7993243 C37.0606464,37.7993243 37.0241599,37.7932432 36.9937545,37.7932432 C36.9694302,37.9756757 36.9511869,38.152027 36.9268626,38.3344595 C36.9025383,38.5412162 36.8782139,38.747973 36.8599707,38.9486486 C36.8417274,39.1189189 36.8174031,39.2891892 36.805241,39.4594595 C36.7869977,39.9277027 36.7809166,40.3898649 36.7444302,40.8581081 C36.7383491,40.9614865 36.6410518,41.077027 36.5559166,41.15 C36.4221329,41.2777027 36.2640247,41.375 36.0937545,41.4966216 C36.0694302,41.4601351 36.0207815,41.4175676 36.0268626,41.3810811 C36.0755112,40.9614865 36.1241599,40.547973 36.1788896,40.1283784 C36.1849707,40.097973 36.1971329,40.0675676 36.1971329,40.0371622 C36.2761869,39.3864865 36.3430788,38.7358108 36.4282139,38.0912162 C36.4890247,37.6472973 36.4829437,37.172973 36.6532139,36.7716216 C36.7930788,36.4371622 36.8174031,36.127027 36.7748356,35.8108108 C36.6957815,35.2209459 36.5559166,34.6432432 36.4525383,34.0594595 C36.4221329,33.8709459 36.4403761,33.6702703 36.3978085,33.4878378 C36.3734842,33.3966216 36.2579437,33.3358108 36.1788896,33.2567568 C36.1119977,33.3236486 36.0329437,33.3844595 35.9903761,33.4695946 C35.911322,33.6155405 35.8383491,33.7675676 35.7836193,33.9256757 C35.7228085,34.1081081 35.6680788,34.2905405 35.6376734,34.4790541 C35.5768626,34.8256757 35.4978085,35.1662162 35.4856464,35.5128378 C35.4491599,36.3033784 35.5403761,37.1060811 35.4126734,37.8783784 C35.2667274,38.7783784 35.3397004,39.6844595 35.2241599,40.5722973 C35.1937545,40.8337838 35.157268,41.0466216 35.230241,41.3081081 C35.3275383,41.6425676 34.9687545,42.1716216 34.6464572,42.2628378 C34.5856464,42.2810811 34.5126734,42.2506757 34.482268,42.2445946 C34.5065923,41.9831081 34.5248356,41.7459459 34.555241,41.5027027 C34.6099707,41.0891892 34.6768626,40.6756757 34.7194302,40.2560811 C34.7498356,39.9824324 34.6586193,39.6722973 34.7680788,39.4472973 C34.9444302,39.0824324 34.8775383,38.7175676 34.9140247,38.3587838 C34.932268,38.1763514 34.9079437,37.9939189 34.9383491,37.8114865 C35.0295653,37.1972973 35.157268,36.5891892 35.236322,35.975 C35.2788896,35.6648649 35.2424031,35.3425676 35.2424031,35.0263514 C35.2119977,35.0202703 35.1755112,35.0141892 35.1451058,35.0081081 C35.0599707,35.2391892 34.9809166,35.4702703 34.8897004,35.6952703 C34.7498356,36.0722973 34.6038896,36.4493243 34.4640247,36.8202703 C34.2937545,37.2824324 34.1295653,37.7567568 33.9471329,38.2128378 C33.5761869,39.1432432 33.8133491,40.1101351 33.807268,41.0587838 C33.8011869,41.5574324 33.9228085,42.0560811 33.9897004,42.5547297 C33.7464572,42.6581081 33.5579437,42.7371622 33.3390247,42.8344595 C33.3937545,41.9891892 33.4484842,41.222973 33.4971329,40.4385135 C32.8525383,41.2168919 32.7369977,42.1959459 32.4207815,43.1506757 C32.311322,43.2054054 32.1471329,43.2844595 31.9829437,43.3635135 C31.9525383,43.3513514 31.9282139,43.3331081 31.8978085,43.3209459 C31.9464572,43.1506757 31.9951058,42.9804054 32.0498356,42.8162162 C32.0619977,42.7675676 32.0984842,42.7310811 32.1106464,42.6824324 C32.2444302,42.1655405 32.3478085,41.6425676 32.5119977,41.1378378 C32.7126734,40.5297297 32.9984842,39.9459459 33.1687545,39.3256757 C33.2660518,38.9790541 33.2295653,38.5837838 33.205241,38.2128378 C33.1687545,37.702027 33.0957815,37.1912162 33.0167274,36.6864865 C32.9984842,36.5527027 32.8890247,36.4371622 32.8160518,36.2972973 C32.7309166,36.3641892 32.7065923,36.3702703 32.7065923,36.3885135 C32.6275383,36.7533784 32.5484842,37.1182432 32.4755112,37.4831081 C32.384295,37.9391892 32.2930788,38.3952703 32.1957815,38.8513514 C32.1045653,39.2891892 32.007268,39.727027 31.9099707,40.1648649 C31.8005112,40.6574324 31.6667274,41.1439189 31.5755112,41.6425676 C31.4782139,42.1716216 31.3869977,42.7006757 31.332268,43.2358108 C31.2957815,43.5763514 31.0586193,43.7831081 30.7241599,43.7040541 C30.8153761,43.1202703 30.8944302,42.5304054 31.0038896,41.9527027 C31.1011869,41.447973 31.2349707,40.9554054 31.3505112,40.4506757 C31.3809166,40.322973 31.3626734,40.1891892 31.3869977,40.0614865 C31.4478085,39.6783784 31.4964572,39.2891892 31.5815923,38.9121622 C31.6667274,38.5290541 31.8005112,38.1641892 31.9038896,37.7871622 C31.9282139,37.6959459 31.8978085,37.5864865 31.9099707,37.4891892 C31.9829437,37.0027027 32.0011869,36.4918919 32.159295,36.0358108 C32.2687545,35.7195946 32.3356464,35.4155405 32.2869977,35.1054054 C32.2201058,34.6797297 32.086322,34.2662162 31.9951058,33.8405405 C31.9586193,33.6702703 31.9525383,33.4878378 31.934295,33.3114865 L32.0680788,33.2810811 C32.2079437,33.6885135 32.3478085,34.102027 32.4937545,34.5094595 C32.5484842,34.6614865 32.6214572,34.8074324 32.7491599,34.9472973 C32.8647004,34.2540541 33.1201058,33.652027 33.4728085,33.0864865 C33.509295,33.0925676 33.5457815,33.0986486 33.582268,33.0986486 C33.5761869,33.2081081 33.5883491,33.3297297 33.5579437,33.4331081 C33.4545653,33.8344595 33.3329437,34.2297297 33.2174031,34.625 C33.1809166,34.7527027 33.1079437,34.8743243 33.0957815,35.0081081 C33.0775383,35.2027027 33.0714572,35.4033784 33.0957815,35.6040541 C33.1140247,35.7925676 33.1809166,35.9689189 33.2174031,36.1513514 C33.3025383,36.5587838 33.3815923,36.9662162 33.4788896,37.4648649 C33.6065923,37.2398649 33.7099707,37.0939189 33.7707815,36.9358108 C33.9836193,36.3824324 34.1660518,35.8108108 34.4032139,35.2695946 C34.5978085,34.8317568 34.859295,34.4182432 35.0782139,33.9925676 C35.2728085,33.6155405 35.455241,33.2324324 35.6255112,32.8493243 C35.6741599,32.7337838 35.6559166,32.5939189 35.6680788,32.4601351 C35.680241,32.3202703 35.6984842,32.1804054 35.7167274,32.0405405 L35.7957815,32.0405405 C35.8261869,32.2047297 35.8626734,32.375 35.905241,32.5817568 C36.2153761,32.3689189 35.9903761,32.077027 36.1241599,31.8398649 C36.4038896,32.1621622 36.5498356,31.8945946 36.7261869,31.7060811 C36.9815923,31.4263514 37.255241,31.1709459 37.4984842,30.8851351 C37.6018626,30.7635135 37.6565923,30.5993243 37.7356464,30.4533784 C37.7721329,30.3925676 37.8147004,30.3317568 37.8633491,30.277027 C38.0336193,30.0763514 37.9728085,29.7844595 37.7174031,29.7175676 C37.2491599,29.5837838 36.7809166,29.4743243 36.3126734,29.3466216 C35.7045653,29.1824324 35.0964572,29.0060811 34.4883491,28.8601351 C34.2451058,28.7993243 33.9775383,28.8114865 33.7282139,28.7567568 C33.5153761,28.7141892 33.3147004,28.622973 33.1140247,28.5560811 C32.8038896,28.4587838 32.4937545,28.3432432 32.1775383,28.2702703 C31.7761869,28.1790541 31.3626734,28.1364865 30.961322,28.0391892 C30.7059166,27.9783784 30.5782139,28.1243243 30.4261869,28.252027 C30.0187545,28.6047297 29.5505112,28.7932432 29.009295,28.7506757 C28.9849707,28.7506757 28.9667274,28.7202703 28.8815923,28.6533784 C29.0153761,28.622973 29.1005112,28.6108108 29.1856464,28.5804054 C29.4957815,28.4709459 29.8241599,28.3858108 30.1099707,28.2277027 C30.2741599,28.1364865 30.3836193,27.9358108 30.511322,27.7837838 L30.5295653,27.7716216 C30.6025383,27.7533784 30.6815923,27.7047297 30.7484842,27.7168919 C30.9430788,27.7533784 31.1315923,27.8324324 31.332268,27.8628378 C31.7397004,27.9358108 32.1957815,27.9054054 32.5545653,28.0817568 C32.8951058,28.2459459 33.2234842,28.1668919 33.5457815,28.2398649 C33.734295,28.2824324 33.9167274,28.3675676 34.105241,28.4405405 C34.2451058,28.4952703 34.3788896,28.5682432 34.5248356,28.5986486 C35.1207815,28.7263514 35.7228085,28.8358108 36.3187545,28.9635135 C36.5498356,29.0121622 36.7809166,29.072973 37.0059166,29.1581081 C37.407268,29.3162162 37.8025383,29.4925676 38.2647004,29.6932432 C38.8545653,27.7777027 39.2315923,25.7891892 39.6937545,23.7216216 Z M40.4356464,32.1621622 C40.5207815,32.3567568 40.6484842,32.5513514 40.6728085,32.752027 C40.7518626,33.3540541 40.8065923,33.9621622 40.8369977,34.5702703 C40.861322,35.0506757 40.8674031,35.5310811 40.8430788,36.0114865 C40.8126734,36.497973 40.7397004,36.9844595 40.6788896,37.4709459 C40.6728085,37.5074324 40.6545653,37.55 40.630241,37.5743243 C40.0160518,38.2432432 39.4018626,38.9121622 38.7876734,39.5810811 C38.7815923,39.5993243 38.757268,39.5993243 38.684295,39.6175676 C38.684295,39.422973 38.6903761,39.2527027 38.684295,39.0824324 C38.6295653,38.1216216 38.532268,37.1608108 38.5261869,36.1939189 C38.5201058,35.7439189 38.6538896,35.2878378 38.7511869,34.8378378 C38.8241599,34.4972973 38.9214572,34.1567568 39.0430788,33.8344595 C39.2255112,33.3358108 39.4383491,32.8432432 39.6390247,32.3506757 C39.6815923,32.3567568 39.7180788,32.3628378 39.7606464,32.3689189 C39.7606464,32.4722973 39.7849707,32.5878378 39.7545653,32.6851351 C39.6451058,33.0560811 39.5234842,33.427027 39.3957815,33.797973 C38.9579437,35.0810811 39.3045653,36.4006757 39.2376734,37.702027 C39.2315923,37.775 39.3228085,37.8601351 39.3714572,37.9331081 C39.4383491,37.8844595 39.5417274,37.847973 39.5660518,37.7810811 C39.8457815,37.1304054 40.0525383,36.4614865 40.1924031,35.75 C40.411322,34.6554054 40.3018626,33.5668919 40.3261869,32.4722973 C40.3261869,32.375 40.3444302,32.2837838 40.3505112,32.1864865 C40.3809166,32.1804054 40.405241,32.1743243 40.4356464,32.1621622 Z M20.3437545,35.7135135 C20.2768626,35.7135135 20.1856464,35.7439189 20.1430788,35.7925676 C19.9059166,36.0905405 19.6626734,36.3945946 19.4559166,36.7108108 C19.3586193,36.8567568 19.261322,37.0574324 19.2795653,37.2216216 C19.3525383,37.8236486 19.4680788,38.4256757 19.5836193,39.0216216 C19.6140247,39.1858108 19.7234842,39.3317568 19.8207815,39.5385135 C20.3315923,38.675 20.7815923,37.9027027 21.2255112,37.1425676 C20.9761869,36.6925676 20.7390247,36.2547297 20.4957815,35.822973 C20.4653761,35.7743243 20.3984842,35.7135135 20.3437545,35.7135135 Z M9.78091664,24.4878378 C9.90253826,24.7493243 9.85388961,24.9804054 9.78699772,25.2054054 C9.75659231,25.3148649 9.70794367,25.4243243 9.67753826,25.5337838 C9.56199772,26.0263514 9.44645718,26.525 9.34915988,27.0236486 C9.30659231,27.2486486 9.25794367,27.4918919 9.29443015,27.7108108 C9.3126734,27.8324324 9.48902475,27.9358108 9.60456529,28.027027 C9.70794367,28.1060811 9.83564637,28.1547297 9.95726799,28.2277027 C9.96334907,28.2277027 9.99983556,28.2216216 9.99983556,28.2094595 C10.0788896,27.7837838 10.1457815,27.3581081 10.2430788,26.9385135 C10.3221329,26.5918919 10.4437545,26.2513514 10.5410518,25.9108108 C10.5714572,25.7952703 10.5714572,25.6736486 10.6018626,25.552027 C10.6869977,25.2297297 10.8147004,24.9195946 11.1187545,24.6216216 C11.1187545,24.8040541 11.1369977,24.9135135 11.1126734,25.0108108 C11.0640247,25.2601351 10.9849707,25.5094595 10.9424031,25.7587838 C10.8694302,26.2209459 10.8998356,26.7195946 10.7356464,27.1391892 C10.6279244,27.4171815 10.6016144,27.6931881 10.5931753,27.9683437 L10.5859773,28.3805807 C10.584364,28.4492278 10.5818819,28.5178571 10.5775383,28.5864865 C10.5714572,28.7141892 10.6626734,28.8540541 10.7234842,28.9878378 C10.8633491,29.3101351 11.0214572,29.6202703 11.1491599,29.9425676 C11.3194302,30.3743243 11.459295,30.8121622 11.6174031,31.25 C11.6356464,31.2986486 11.6660518,31.3412162 11.6721329,31.3898649 C11.8849707,32.6912162 11.9275383,34.0047297 11.8484842,35.3182432 C11.8180788,35.7804054 11.757268,36.2425676 11.6721329,36.6925676 C11.5991599,37.0878378 11.459295,37.4709459 11.3559166,37.8601351 C11.2768626,38.1824324 11.2160518,38.5047297 11.1430788,38.827027 C11.0883491,39.0581081 11.0336193,39.2831081 10.9788896,39.5141892 C10.4924031,39.3682432 10.2005112,39.1006757 10.255241,38.8148649 C10.3282139,38.4439189 10.4498356,38.0790541 10.5532139,37.7141892 C10.559295,37.6837838 10.5775383,37.6594595 10.5775383,37.6290541 C10.6505112,37.1182432 10.7356464,36.6074324 10.7964572,36.0966216 C10.8755112,35.4581081 10.8815923,34.8074324 11.0214572,34.1810811 C11.2099707,33.347973 11.1734842,32.5087838 11.1126734,31.6817568 C11.0761869,31.1709459 10.9059166,30.6662162 10.7721329,30.1675676 C10.7295653,30.0216216 10.6018626,29.8939189 10.5045653,29.747973 C10.480241,29.7662162 10.4315923,29.7783784 10.4255112,29.8027027 C10.3586193,30.2101351 10.2795653,30.6175676 10.2309166,31.025 C10.2005112,31.2864865 10.2309166,31.5540541 10.2126734,31.8155405 C10.1397004,32.6851351 10.0424031,33.5486486 9.96943015,34.4182432 C9.91470042,35.0993243 9.88429502,35.7864865 9.82956529,36.4675676 C9.81132204,36.6864865 9.73834907,36.8993243 9.72010583,37.1121622 C9.6957815,37.4527027 9.6957815,37.7993243 9.67753826,38.1398649 C9.67145718,38.2067568 9.62888961,38.2736486 9.59848421,38.3466216 C9.54983556,38.3101351 9.49510583,38.2736486 9.45253826,38.225 C9.33091664,38.0851351 9.23970042,37.9027027 9.09375448,37.8054054 C8.89915988,37.6777027 8.94172745,37.5256757 8.95997069,37.3554054 C9.0207815,36.8506757 9.07551123,36.3459459 9.14240313,35.8412162 C9.22753826,35.2027027 9.33699772,34.5641892 9.40997069,33.9195946 C9.45861934,33.5 9.45253826,33.0743243 9.48902475,32.6486486 C9.50726799,32.4358108 9.58024096,32.222973 9.62280853,32.0101351 C9.64105177,31.9006757 9.65929502,31.7912162 9.65929502,31.6817568 L9.65994254,31.4581081 L9.64941326,31.0067568 C9.64713286,30.7817568 9.65625448,30.5597973 9.70794367,30.35 C9.79915988,29.9851351 9.82956529,29.6324324 9.86605177,29.2736486 C9.89645718,28.9939189 9.77483556,28.7993243 9.62888961,28.5986486 C9.57415988,28.5195946 9.51334907,28.4405405 9.44645718,28.3736486 C9.38564637,28.3189189 9.29443015,28.2398649 9.23970042,28.252027 C9.17888961,28.2702703 9.11199772,28.3736486 9.09983556,28.4466216 C9.07551123,28.6047297 9.10591664,28.7689189 9.0876734,28.9331081 C9.01470042,29.6871622 8.93564637,30.4472973 8.85051123,31.2013514 C8.80186259,31.6391892 8.80794367,32.1013514 8.66199772,32.5087838 C8.46740313,33.0621622 8.55253826,33.6216216 8.49172745,34.175 C8.41875448,34.8317568 8.30929502,35.4885135 8.23632204,36.1513514 C8.2180788,36.3033784 8.30321394,36.4614865 8.33970042,36.6135135 C8.30929502,36.6439189 8.26672745,36.6621622 8.22415988,36.6864865 C8.03564637,36.4554054 7.84105177,36.2182432 7.68902475,36.0358108 C7.73159231,35.8351351 7.77415988,35.6952703 7.78632204,35.5493243 C7.80456529,35.3608108 7.78632204,35.1662162 7.80456529,34.9716216 C7.8653761,34.1689189 7.92618691,33.3601351 8.00524096,32.5574324 C8.04172745,32.1621622 8.04172745,31.7364865 8.19375448,31.3898649 C8.40659231,30.9094595 8.30321394,30.422973 8.40051123,29.9486486 C8.47956529,29.5412162 8.60118691,29.1398649 8.69848421,28.7324324 C8.74713286,28.5317568 8.78361934,28.3310811 8.83834907,28.0635135 C8.52213286,27.5466216 7.7680788,27.2425676 7.68294367,26.4459459 C7.75591664,26.4824324 7.8653761,26.5067568 7.93226799,26.5736486 C8.16943015,26.7804054 8.38834907,27.0114865 8.61943015,27.2243243 C8.83226799,27.4189189 9.00253826,27.3581081 9.06943015,27.0722973 C9.13632204,26.7804054 9.20321394,26.4885135 9.27010583,26.2027027 C9.3430788,25.8682432 9.40388961,25.5337838 9.49510583,25.2054054 C9.55591664,24.9804054 9.6653761,24.7614865 9.78091664,24.4878378 Z M22.3809166,32.0648649 C22.3444302,32.1074324 22.2957815,32.1378378 22.2836193,32.1864865 C22.2532139,32.2777027 22.2228085,32.375 22.2410518,32.4662162 C22.2471329,32.5087838 22.3748356,32.5574324 22.4356464,32.5513514 C22.6180788,32.5209459 22.7883491,32.4601351 22.9707815,32.4236486 C23.1045653,32.3932432 23.2505112,32.3993243 23.384295,32.375 C23.6336193,32.3263514 23.8829437,32.2594595 24.132268,32.2108108 C24.1991599,32.1804054 24.2903761,32.1925676 24.3998356,32.1925676 C24.3876734,32.6121622 24.7890247,32.5391892 24.9897004,32.7155405 C25.0626734,32.7824324 25.1660518,32.825 25.257268,32.8736486 C25.6038896,33.0743243 25.9444302,33.2810811 26.2971329,33.4695946 C26.4978085,33.5790541 26.6984842,33.6763514 26.911322,33.7614865 C27.0268626,33.8101351 27.1606464,33.8222973 27.2883491,33.8527027 C27.5984842,33.9378378 27.9086193,34.0351351 28.2248356,34.1141892 C28.6079437,34.2054054 28.8025383,34.5094595 29.0579437,34.7648649 C29.4532139,35.1601351 29.9032139,35.5067568 30.3106464,35.8898649 C30.7849707,36.3277027 31.2532139,36.7837838 31.7153761,37.2398649 C31.7701058,37.2945946 31.7397004,37.4344595 31.7518626,37.622973 C31.1376734,37.027027 30.6086193,36.4918919 30.055241,35.975 C29.3315923,35.3 28.6505112,34.5581081 27.6714572,34.2358108 C27.4464572,34.1628378 27.2032139,34.1263514 26.984295,34.0351351 C26.6133491,33.877027 26.2606464,33.6945946 25.9018626,33.5121622 C25.6160518,33.3662162 25.3119977,33.2385135 25.0505112,33.0621622 C24.6065923,32.7581081 24.1505112,32.4783784 23.5910518,32.5635135 C23.1653761,32.6243243 22.7579437,32.7641892 22.3383491,32.8675676 C22.2775383,32.8797297 22.2167274,32.9101351 22.1619977,32.897973 C21.6937545,32.7824324 21.3714572,33.0743243 21.0369977,33.3114865 C20.8971329,33.4087838 20.7633491,33.5060811 20.5991599,33.6216216 C20.2525383,33.4452703 19.9180788,33.2506757 19.5653761,33.0986486 C19.1701058,32.9283784 19.030241,32.5939189 18.8903761,32.2472973 C18.9147004,32.222973 18.9329437,32.1986486 18.957268,32.1743243 C19.0545653,32.2716216 19.1518626,32.3689189 19.2491599,32.4722973 C19.334295,32.5635135 19.4011869,32.6668919 19.4924031,32.7459459 C19.6565923,32.8918919 19.8147004,32.8067568 20.009295,32.7824324 C20.5383491,32.7155405 20.9457815,32.4236486 21.4018626,32.222973 C21.6937545,32.0952703 22.034295,32.077027 22.3809166,32.0648649 Z M41.9619977,30.1371622 L41.9917274,30.3195946 C41.9957815,30.35 41.9984842,30.3804054 41.9984842,30.4108108 C41.986322,31.402027 41.980241,32.3932432 41.9559166,33.3905405 C41.9376734,34.0168919 41.8099707,34.6493243 41.8829437,35.2635135 C41.9498356,35.8472973 41.7126734,36.2304054 41.384295,36.6195946 C41.3174031,36.6986486 41.2505112,36.7837838 41.1836193,36.8628378 C41.1532139,36.8506757 41.1288896,36.8445946 41.0984842,36.8445946 C41.1106464,36.6621622 41.1167274,36.4858108 41.1349707,36.3033784 C41.1897004,35.6709459 41.2444302,35.0385135 41.2991599,34.4060811 C41.3660518,33.7067568 41.4268626,33.0013514 41.5059166,32.302027 C41.5484842,31.8945946 41.6032139,31.4871622 41.6761869,31.0858108 C41.7309166,30.7635135 41.8221329,30.4533784 41.9619977,30.1371622 Z M31.3383491,32.7398649 C31.3930788,32.9344595 31.4903761,33.1351351 31.4964572,33.3297297 C31.5147004,33.9743243 31.5086193,34.625 31.4903761,35.2695946 C31.484295,35.6162162 31.4356464,35.9689189 31.3991599,36.3155405 C31.3930788,36.3702703 31.3565923,36.4554054 31.3261869,36.4614865 C31.2714572,36.4675676 31.1984842,36.4371622 31.1498356,36.4006757 C30.9795653,36.2608108 30.9187545,36.0540541 31.0221329,35.8837838 C31.2653761,35.5006757 31.1437545,35.075 31.2106464,34.6736486 C31.2653761,34.3695946 31.3079437,34.0594595 31.3079437,33.7493243 C31.3140247,33.5121622 31.2471329,33.275 31.2167274,33.0378378 C31.2045653,32.9527027 31.2167274,32.8614865 31.2167274,32.7702703 C31.259295,32.7581081 31.2957815,32.7459459 31.3383491,32.7398649 Z M6.77686259,29.1033784 C6.84375448,29.3222973 6.92280853,29.5351351 6.97145718,29.7540541 C7.06875448,30.2101351 7.12956529,30.6722973 7.24510583,31.1222973 C7.55524096,32.2898649 7.39713286,33.4756757 7.40929502,34.6493243 C7.4153761,34.9412162 7.37888961,35.227027 7.35456529,35.6283784 C7.21470042,35.4945946 7.11740313,35.4337838 7.05659231,35.3425676 C6.95929502,35.1844595 6.91064637,34.9777027 6.78902475,34.85 C6.53970042,34.5824324 6.48497069,34.2844595 6.50321394,33.9378378 C6.52753826,33.3418919 6.5153761,32.7459459 6.53970042,32.1439189 C6.57618691,31.2864865 6.62483556,30.4351351 6.66740313,29.5777027 C6.67348421,29.4195946 6.66740313,29.2614865 6.66740313,29.1033784 C6.70388961,29.1094595 6.7403761,29.1094595 6.77686259,29.1033784 Z M28.5836193,32.8006757 C28.8268626,32.8675676 29.0214572,32.9162162 29.2525383,32.977027 C29.1674031,33.0560811 29.1005112,33.1168919 28.9849707,33.2141892 C29.3437545,33.3905405 29.6782139,33.5547297 30.0734842,33.7493243 C29.9944302,33.8709459 29.9032139,34.022973 29.7815923,34.2175676 C29.5261869,33.8222973 29.1430788,33.7128378 28.7478085,33.6277027 C28.705241,33.6155405 28.632268,33.572973 28.632268,33.5486486 C28.6383491,33.2932432 28.4133491,33.0378378 28.5836193,32.8006757 Z M25.9626734,30.6114865 C26.1876734,31.0371622 26.1329437,31.2925676 25.8167274,31.3898649 C25.4761869,31.4932432 25.1234842,31.547973 24.7707815,31.5905405 C24.5336193,31.6209459 24.2782139,31.5540541 24.0471329,31.6027027 C23.8099707,31.6513514 23.5849707,31.772973 23.3782139,31.8945946 C23.159295,32.0162162 22.9707815,31.9918919 22.7579437,31.9006757 C23.3295653,31.7912162 23.7978085,31.5722973 23.9619977,30.9277027 C24.0288896,31.3290541 24.284295,31.2256757 24.5457815,31.2560811 C24.8315923,31.2864865 25.0991599,31.3108108 25.3849707,31.2621622 C25.7194302,31.2074324 26.0478085,31.177027 25.9626734,30.6114865 Z M20.125,29.763 L20.1309166,29.747973 C20.0579437,29.9668919 20.0214572,30.2101351 19.9119977,30.4108108 C19.6505112,30.872973 19.3586193,31.3168919 19.036322,31.8277027 C19.036322,31.6452703 18.9876734,31.4871622 19.0424031,31.3837838 C19.2430788,31.0067568 19.4741599,30.6540541 19.6930788,30.2891892 C19.784295,30.1371622 19.857268,29.9790541 19.9545653,29.8391892 C19.9773693,29.8027027 20.0343795,29.7901605 20.0871139,29.7759079 L20.125,29.763 Z M14.5241599,24.9135135 C14.5119977,24.9621622 14.5180788,25.0351351 14.4876734,25.0655405 C14.0011869,25.5337838 13.5086193,25.9959459 12.9978085,26.4763514 C13.1741599,26.6101351 13.3140247,26.6466216 13.4538896,26.4763514 C13.5876734,26.3182432 13.7275383,26.1662162 13.8978085,25.9716216 C13.8734842,26.3486486 13.484295,26.8655405 13.034295,26.9628378 C12.9065923,27.2425676 13.1619977,27.3459459 13.3079437,27.4432432 C13.405241,27.5101351 13.6119977,27.4554054 13.7579437,27.4128378 C14.0315923,27.3398649 14.3174031,27.272973 14.5606464,27.1331081 C15.0410518,26.8594595 15.5579437,26.9993243 16.0565923,26.9385135 C16.1684842,26.9263514 16.2784302,26.8937568 16.3879869,26.8547405 L16.7170464,26.7324378 C16.7722139,26.7135135 16.8276734,26.6964865 16.8836193,26.6831081 C17.1511869,26.6162162 17.4309166,26.5736486 17.7045653,26.5371622 C17.759295,26.5310811 17.8261869,26.5858108 17.8809166,26.6162162 C17.8444302,26.6648649 17.8140247,26.7378378 17.7653761,26.7560811 C17.6133491,26.8108108 17.455241,26.8472973 17.2971329,26.8716216 C16.9748356,26.9202703 16.6038896,26.8472973 16.3606464,27.3094595 C16.6221329,27.3094595 16.8288896,27.2851351 17.0295653,27.3155405 C17.5403761,27.3824324 17.9417274,27.2182432 18.3309166,26.8716216 C18.580241,26.6466216 18.9390247,26.5493243 19.255241,26.4094595 C19.3403761,26.372973 19.4498356,26.4033784 19.5775383,26.4033784 C19.5410518,26.7560811 19.2430788,26.7925676 19.0484842,26.9081081 C18.8478085,27.0236486 18.5924031,27.047973 18.3734842,27.1452703 C18.2579437,27.1939189 18.1728085,27.3155405 18.0755112,27.4006757 C18.1667274,27.4918919 18.2457815,27.6135135 18.355241,27.6743243 C18.8174031,27.9114865 19.2917274,28.1364865 19.7660518,28.3493243 C19.9910518,28.4527027 20.2221329,28.5378378 20.459295,28.6047297 C20.6903761,28.6655405 20.9032139,28.4283784 20.9336193,28.0939189 L21.1768626,28.0939189 C21.134295,28.2702703 21.1282139,28.4466216 21.0491599,28.5864865 C20.9336193,28.7932432 20.9275383,29.0547297 20.6478085,29.1824324 C20.5748356,29.2158784 20.5231464,29.2949324 20.4752579,29.3853885 L20.3793682,29.5713682 C20.3625045,29.6015203 20.344768,29.6304054 20.3255112,29.6567568 C20.2890247,29.7054054 20.2038896,29.7175676 20.1430788,29.7540541 L20.2707815,29.3344595 C20.3133491,29.2006757 20.380241,29.0668919 20.1734842,28.9939189 C20.0701058,28.9574324 19.9849707,28.8662162 19.8876734,28.8175676 C19.5288896,28.622973 19.1640247,28.4283784 18.7991599,28.2337838 C18.3734842,28.0087838 17.9538896,27.7837838 17.5221329,27.5709459 C17.4187545,27.5222973 17.2910518,27.5162162 17.1755112,27.5040541 C16.8410518,27.4675676 16.5005112,27.3945946 16.1660518,27.4128378 C15.8559166,27.4310811 15.5518626,27.5466216 15.2478085,27.6195946 C14.8403761,27.7168919 14.5788896,28.1547297 14.1167274,28.1243243 C13.9464572,28.1121622 13.7579437,28.0939189 13.6180788,28.0087838 C13.3748356,27.8628378 13.1498356,27.6743243 12.9309166,27.4918919 C12.7180788,27.3155405 12.7545653,26.9141892 12.7849707,26.6709459 C12.831795,26.2878378 13.0544234,26.0596757 13.2943342,25.8446243 L13.5005072,25.6601973 C13.5343423,25.6288919 13.5676058,25.597027 13.5998356,25.5641892 C13.8369977,25.327027 14.0984842,25.1202703 14.3599707,24.9074324 C14.3903761,24.8831081 14.4694302,24.9135135 14.5241599,24.9135135 Z M23.9124939,28.6192079 L24.0968267,28.6331517 C24.1272321,28.6349451 24.1573524,28.6358953 24.1869977,28.6351351 C24.2478085,28.6351351 24.3207815,28.702027 24.3755112,28.7567568 C24.3937545,28.775 24.357268,28.8722973 24.3329437,28.8844595 C24.2538896,28.9087838 24.1626734,28.927027 24.0836193,28.9148649 C24.0167274,28.9027027 23.9619977,28.8236486 23.9011869,28.8175676 C23.7978085,28.8114865 23.6336193,28.8054054 23.5971329,28.8601351 C23.4025383,29.1824324 23.0498356,29.3101351 22.7944302,29.5533784 C22.6849707,29.6506757 22.5147004,29.7054054 22.3626734,29.7297297 C22.180241,29.7662162 21.9978085,29.7418919 21.7484842,29.7418919 C21.9734842,29.225 22.3079437,28.9513514 22.7761869,28.847973 C22.9525383,28.8114865 23.1349707,28.8236486 23.311322,28.8054054 C23.3660518,28.7993243 23.4511869,28.8054054 23.4815923,28.7689189 C23.6070146,28.6244932 23.7585666,28.6107158 23.9124939,28.6192079 Z M28.9119977,27.6743243 C28.8998356,27.8141892 28.8937545,27.9175676 28.8876734,28.027027 L29.4729774,27.9487331 L30.047,27.875 L30.0426987,27.9043602 C30.0381379,27.9491132 30.0369977,27.9981419 30.0187545,28.0027027 C29.6356464,28.0939189 29.2768626,28.3371622 28.857268,28.2337838 C28.7782139,28.2155405 28.705241,28.1547297 28.6201058,28.1 C28.5349707,28.1364865 28.4315923,28.1851351 28.3282139,28.2398649 C28.2795653,28.2641892 28.2005112,28.3006757 28.1944302,28.3432432 C28.1397004,28.6837838 27.8721329,28.7385135 27.6045653,28.8054054 C27.2761869,28.8905405 26.9417274,28.9695946 26.6194302,29.072973 C26.3518626,29.1581081 26.3214572,29.1459459 26.3336193,28.7993243 C27.3187545,28.7810811 28.036322,28.1121622 28.9119977,27.6743243 Z M24.1079437,28.1121622 C23.7734842,28.3006757 23.4937545,28.4648649 23.2079437,28.6290541 C23.2991599,28.2337838 23.682268,28.027027 24.1079437,28.1121622 Z M13.7579437,27.7594595 C14.1532139,27.9809846 14.4336883,27.8239934 14.701309,27.6186904 L14.9414497,27.4297891 C14.968358,27.4093319 14.9954437,27.3893822 15.0228085,27.3702703 C14.530241,27.2790541 14.1775383,27.6256757 13.7579437,27.7594595 Z M30.505241,27.5466216 C30.5356464,27.6135135 30.5174031,27.6986486 30.5174031,27.7777027 L30.4991599,27.7898649 L30.2741599,27.8263514 L30.053,27.861 L30.0331689,27.7939773 C30.0151509,27.6244745 30.2998356,27.6797297 30.3106464,27.5283784 C30.3775383,27.5344595 30.4869977,27.5162162 30.505241,27.5466216 Z M31.782268,27.1148649 C31.9890247,27.1513514 32.1897004,27.1939189 32.4329437,27.2364865 C32.4633491,27.2182432 32.536322,27.1756757 32.6153761,27.1331081 C32.6336193,27.1817568 32.682268,27.2486486 32.6640247,27.2790541 C32.609295,27.3641892 32.536322,27.4310811 32.4633491,27.5040541 C32.4451058,27.5222973 32.4025383,27.5283784 32.3782139,27.5222973 C32.1653761,27.425 31.9586193,27.3277027 31.7457815,27.2243243 C31.7579437,27.1817568 31.7701058,27.1452703 31.782268,27.1148649 Z M22.0647004,27.1635135 C21.9005112,27.3033784 21.7971329,27.3945946 21.6755112,27.5040541 C21.5903761,27.4067568 21.511322,27.3155405 21.3775383,27.1635135 L22.0647004,27.1635135 Z M29.234295,25.5763514 C29.380241,25.8013514 29.3741599,25.8135135 28.3647004,26.3364865 C28.5653761,26.3608108 28.7721329,26.3790541 28.9728085,26.4094595 C29.2464572,26.4581081 29.5201058,26.4885135 29.7815923,26.5797297 C30.0065923,26.6527027 30.1038896,26.8412162 30.0065923,27.1027027 C29.9397004,27.1027027 29.8484842,27.1331081 29.8059166,27.0966216 C29.459295,26.8108108 29.0579437,26.9506757 28.6809166,26.9385135 C28.109295,26.9202703 28.109295,26.9385135 27.9147004,26.4094595 C27.5984842,26.6162162 27.2883491,26.8108108 26.9903761,27.0236486 C26.5160518,27.352027 25.6403761,27.3641892 25.257268,27.0722973 C25.2998356,26.9081081 25.3606464,26.7743243 25.3667274,26.6283784 C25.3788896,26.3364865 25.6099707,26.2027027 25.8897004,26.2635135 C26.1390247,26.3182432 26.4065923,26.2756757 26.6680788,26.2695946 C26.7167274,26.2695946 26.759295,26.2331081 26.8079437,26.227027 C27.3856464,26.1418919 27.9755112,26.0932432 28.5410518,25.9716216 C28.7903761,25.9168919 29.0032139,25.7162162 29.234295,25.5763514 Z M25.8653761,24.6702703 C25.8836193,24.7128378 25.9079437,24.7493243 25.9261869,24.7918919 C25.7437545,24.9074324 25.5674031,25.022973 25.3606464,25.1567568 C25.3910518,25.3695946 25.2694302,25.5398649 25.0261869,25.6128378 C24.9653761,25.6310811 24.8741599,25.5702703 24.8011869,25.5459459 C24.8559166,25.5033784 24.9045653,25.4608108 24.959295,25.4121622 C24.9775383,25.3939189 24.9897004,25.3695946 25.0444302,25.3027027 C24.8984842,25.2601351 24.7951058,25.2297297 24.6187545,25.1810811 C25.0809166,24.9925676 25.4701058,24.8344595 25.8653761,24.6702703 Z M23.4755112,24.9621622 C23.2809166,25.0837838 23.1106464,25.1993243 22.934295,25.3087838 C22.9403761,25.3391892 22.9464572,25.3635135 22.9464572,25.3939189 C23.086322,25.4 23.2261869,25.4 23.3599707,25.4182432 C23.4086193,25.4243243 23.4511869,25.472973 23.4937545,25.5033784 C23.457268,25.5398649 23.4207815,25.6067568 23.384295,25.6067568 C23.0559166,25.6189189 22.7336193,25.6128378 22.4174031,25.6128378 C22.411322,25.5763514 22.405241,25.5398649 22.405241,25.5033784 C22.4599707,25.4547297 22.5147004,25.4 22.6180788,25.3027027 C22.5025383,25.2905405 22.4417274,25.2722973 22.3930788,25.2844595 C22.2167274,25.327027 22.0403761,25.4121622 21.8640247,25.4182432 C21.2984842,25.4364865 20.7329437,25.4304054 20.1674031,25.4243243 C20.0883491,25.4243243 20.009295,25.3817568 19.936322,25.3635135 C19.9971329,25.3209459 20.0579437,25.2783784 20.1248356,25.2358108 C20.2464572,25.1506757 20.3619977,25.0655405 20.4836193,24.9925676 C20.5505112,24.95 20.6417274,24.8831081 20.7086193,24.9013514 C21.0978085,25.0047297 21.4809166,24.877027 21.8640247,24.8952703 L21.9463331,24.895294 L22.1109499,24.8839395 C22.2474179,24.876932 22.3809166,24.8907095 22.5025383,25.0351351 C22.557268,25.0959459 22.8309166,25.0472973 22.9525383,24.9682432 C23.1410518,24.8527027 23.2869977,24.8466216 23.4755112,24.9621622 Z M42.0897004,18.7047297 C42.2356464,18.6925676 42.3876734,18.7412162 42.5397004,18.7594595 L42.5397004,18.8567568 C42.4728085,18.875 42.3998356,18.8993243 42.3329437,18.9054054 C42.132268,18.9114865 41.9255112,18.9114865 41.7248356,18.9054054 C40.8917274,18.8932432 40.0707815,19.027027 39.2984842,19.2945946 C38.6599707,19.5195946 38.0883491,19.9452703 37.486322,20.2675676 C37.2734842,20.3831081 37.030241,20.4378378 36.8234842,20.5594595 C36.4586193,20.7844595 36.0390247,20.6871622 35.6437545,20.7601351 C35.4491599,20.7966216 35.2606464,20.9182432 35.1025383,21.0398649 C34.6038896,21.422973 34.0079437,21.6054054 33.4484842,21.8668919 C32.8525383,22.1466216 32.1714572,22.2682432 31.6788896,22.7425676 C31.332268,23.077027 31.0160518,23.4358108 30.6815923,23.7763514 C30.3106464,24.1533784 29.9397004,24.5243243 29.5687545,24.9013514 C29.532268,24.9378378 29.5201058,25.0108108 29.4957815,25.0594595 L29.511,25.063 L29.5018626,25.0655405 L29.3489685,25.1257812 C28.9790796,25.2847445 28.6132646,25.4623311 28.182268,25.4304054 C28.0424031,25.4182432 27.8903761,25.5885135 27.7444302,25.5763514 C27.4647004,25.552027 27.1971329,25.4668919 26.9174031,25.3635135 C27.0998356,25.2662162 27.1606464,24.877027 27.5194302,25.2175676 C27.6836193,25.3756757 27.7930788,25.0959459 27.8356464,24.9013514 C29.2525383,24.9560811 30.1768626,24.1655405 30.9187545,23.1560811 C30.8579437,22.9189189 30.8032139,22.7182432 30.7545653,22.5418919 C31.2106464,22.322973 31.5998356,22.1162162 32.0011869,21.9459459 C32.2261869,21.8486486 32.4694302,21.7695946 32.7065923,21.727027 C33.1626734,21.6540541 33.5153761,21.422973 33.8255112,21.1067568 C33.886322,21.0459459 33.9288896,20.8817568 33.8924031,20.8209459 C33.8315923,20.7175676 33.7038896,20.6081081 33.5883491,20.5837838 C33.357268,20.5412162 33.1140247,20.5533784 32.834295,20.5412162 C32.9376734,20.3162162 32.9924031,20.1459459 33.2356464,20.3283784 C33.2964572,20.377027 33.4119977,20.3648649 33.4971329,20.3648649 C34.330241,20.3709459 35.157268,20.3952703 35.9903761,20.3709459 C36.355241,20.3587838 36.7140247,20.2493243 37.0424031,20.0547297 C37.334295,19.8844595 37.6687545,19.7871622 37.9788896,19.6412162 C38.3924031,19.4405405 38.7937545,19.2155405 39.2011869,19.0087838 C39.286322,18.9662162 39.3836193,18.9114865 39.4748356,18.9054054 C40.3444302,18.8324324 41.2201058,18.7655405 42.0897004,18.7047297 Z M17.9174031,24.6155405 C17.8261869,24.6459459 17.7714572,24.6885135 17.7167274,24.6824324 C17.3275383,24.6398649 17.0234842,24.7858108 16.7255112,25.022973 C16.4883491,25.2054054 16.184295,25.3027027 15.8619977,25.4668919 C15.8924031,24.877027 17.3397004,24.3114865 17.9174031,24.6155405 Z M35.87,24.087 C35.8261869,24.1472973 35.7897004,24.2506757 35.7288896,24.2689189 L33.8984842,24.7006757 C33.5032139,24.797973 33.1140247,24.9195946 32.7248356,25.0290541 L32.6944302,25.0351351 C31.6971329,25.1385135 30.7119977,25.3209459 29.7025383,25.2175676 C29.6478085,25.2130068 29.59992,25.1571368 29.5511764,25.1038323 L29.511,25.063 L29.8910518,24.9910473 C30.0202747,24.966723 30.1494977,24.9439189 30.280241,24.9256757 C30.4991599,24.8952703 30.7241599,24.9135135 30.9430788,24.877027 C31.5511869,24.7797297 32.1532139,24.6581081 32.761322,24.5547297 C32.907268,24.5304054 33.0653761,24.5486486 33.211322,24.5182432 C33.807268,24.4087838 34.4032139,24.2810811 35.005241,24.1777027 C35.1957815,24.1452703 35.3917274,24.1290541 35.5876734,24.1128378 L35.87,24.087 Z M27.418,22.626 L27.4160518,22.6148649 C27.4647004,22.7851351 27.3856464,22.8824324 27.2701058,23.0222973 C26.9234842,23.4418919 26.6315923,23.9101351 26.309295,24.3540541 C26.230241,24.4635135 26.1207815,24.5486486 26.0234842,24.6459459 C25.9991599,24.6337838 25.9687545,24.6155405 25.9444302,24.6033784 C25.9626734,24.5182432 25.9626734,24.4209459 26.011322,24.3601351 C26.157268,24.1777027 26.3336193,24.0135135 26.4856464,23.8310811 C26.5525383,23.752027 26.6498356,23.6486486 26.6498356,23.5574324 C26.6559166,23.1925676 26.9599707,23.0405405 27.1545653,22.8094595 C27.2047342,22.7456081 27.282268,22.705701 27.3563812,22.6640836 L27.418,22.626 Z M20.234295,22.8033784 C20.2951058,22.8277027 20.4045653,22.8763514 20.5140247,22.9128378 C20.605241,22.9432432 20.6964572,22.9858108 20.7876734,22.9918919 C21.3532139,22.997973 21.9187545,23.0040541 22.484295,22.9918919 C22.5876734,22.9918919 22.6849707,22.8824324 22.7944302,22.8641892 C22.9525383,22.8337838 23.1106464,22.8337838 23.2687545,22.8216216 C23.2748356,22.852027 23.2748356,22.8763514 23.2809166,22.9067568 C23.1106464,22.9918919 22.9464572,23.1135135 22.7640247,23.1621622 C22.3930788,23.2472973 22.0099707,23.2716216 21.6451058,23.3628378 C21.3714572,23.4358108 21.1221329,23.6121622 20.8484842,23.6790541 C20.5748356,23.7459459 20.2768626,23.7277027 19.9910518,23.7277027 C19.9788896,23.7277027 19.9424031,23.5452703 19.9667274,23.4662162 C20.0336193,23.2655405 20.1248356,23.077027 20.234295,22.8033784 Z M7.7680788,20.972973 C7.78024096,20.9972973 7.79240313,21.0216216 7.81064637,21.0398649 C7.62821394,21.2162162 7.43970042,21.3864865 7.25726799,21.5628378 C7.6707815,22.1405405 8.26672745,22.2621622 8.91132204,21.9337838 C8.99645718,21.8912162 9.11199772,21.9155405 9.25186259,21.9033784 C9.06334907,22.1344595 9.06334907,22.1344595 7.9626734,22.2986486 L7.98091664,22.5966216 C8.56470042,22.7668919 8.9903761,22.4506757 9.39780853,22.1709459 C9.65321394,21.9945946 9.92686259,21.9459459 10.2065923,21.8851351 C10.255241,21.872973 10.3160518,21.872973 10.3525383,21.8972973 C10.7417274,22.1101351 10.8086193,22.0858108 11.1369977,21.8304054 C11.307268,21.6966216 11.5383491,21.6297297 11.8119977,21.4959459 C11.605241,21.8972973 11.6903761,22.0614865 12.0369977,22.0128378 C12.2498356,21.9824324 12.4444302,21.8425676 12.6451058,21.7513514 C12.7971329,21.6844595 12.9491599,21.6054054 13.1011869,21.5445946 C13.4356464,21.4168919 13.7701058,21.2891892 14.1045653,21.1675676 C14.1714572,21.1432432 14.2444302,21.1189189 14.311322,21.1189189 C14.3782139,21.125 14.4451058,21.1614865 14.5119977,21.1858108 C14.4633491,21.2344595 14.4207815,21.3013514 14.3599707,21.3256757 C14.007268,21.4594595 13.6545653,21.5810811 13.3018626,21.7209459 C13.2471329,21.7391892 13.1924031,21.8425676 13.1984842,21.8972973 C13.2045653,21.9581081 13.2775383,22.0432432 13.332268,22.0554054 C13.9890247,22.2013514 14.4876734,22.6209459 15.0106464,22.9918919 C15.0471329,23.0222973 15.0471329,23.1013514 15.0653761,23.1560811 C14.9984842,23.1560811 14.9194302,23.1804054 14.8768626,23.1560811 C14.4207815,22.8763514 13.9707815,22.5844595 13.5086193,22.3047297 C13.4356464,22.2621622 13.332268,22.25 13.2471329,22.25 C12.5599707,22.2378378 11.8728085,22.2256757 11.1856464,22.2378378 C10.9180788,22.2439189 10.6565923,22.3533784 10.3890248,22.3777027 C10.2065923,22.3959459 10.0180788,22.3290541 9.82956529,22.3290541 C9.70794367,22.3290541 9.54375448,22.3594595 9.47686259,22.4385135 C9.19713286,22.7668919 8.78361934,22.8155405 8.42483556,22.925 C8.25456529,22.9736486 7.98699772,22.7912162 7.80456529,22.6574324 C7.66470042,22.5601351 7.57956529,22.3777027 7.46402475,22.2317568 C7.22686259,21.9216216 6.9653761,21.6114865 7.06875448,21.1858108 C7.34240313,21.1006757 7.55524096,21.0398649 7.7680788,20.972973 Z M28.519,21.365 L28.5167274,21.35 C28.6383491,21.727027 28.2369977,21.8 28.1032139,22.0310811 C27.9815923,22.2439189 27.7748356,22.4141892 27.5984842,22.5905405 C27.5711193,22.6179054 27.5163896,22.6144848 27.4650805,22.6161951 L27.425,22.619 L27.417,22.621 L27.417,22.62 L27.4275664,22.5525056 C27.4369977,22.4307432 27.4555788,22.3209459 27.5924031,22.2195946 C27.7201058,22.1222973 27.7687545,21.9094595 27.8721329,21.7148649 C28.0849707,21.8232187 28.2091554,21.7222526 28.323042,21.5890491 L28.4199647,21.4711099 L28.4699611,21.4139633 L28.519,21.365 Z M25.1478085,21.1675676 L24.5244977,21.7171453 L23.905,22.259 L23.8898799,22.1889041 C23.8730619,22.1070946 23.8570991,22.0158784 23.834295,21.8972973 C23.2505112,22.4081081 22.5755112,22.4993243 21.8701058,22.5236486 C21.8579437,22.4993243 21.8214572,22.4506757 21.7910518,22.3959459 C21.7788896,22.3716216 21.7910518,22.3412162 21.7910518,22.2925676 C22.0221329,22.25 22.2532139,22.2074324 22.557268,22.1527027 C22.5451058,22.1405405 22.6059166,22.1891892 22.6910518,22.2560811 C22.7336193,22.1222973 22.7761869,22.0189189 22.8248356,21.872973 C23.086322,22.2925676 23.2565923,21.872973 23.4633491,21.8304054 C23.6640247,21.7939189 23.8403761,21.6358108 24.0349707,21.5385135 C24.284295,21.4168919 24.5336193,21.2952703 24.7890247,21.1918919 C24.8984842,21.1493243 25.0261869,21.1371622 25.1478085,21.1675676 Z M28.8207815,20.4135135 C28.8511869,20.4135135 28.8815923,20.4135135 28.9119977,20.4195946 C28.9119977,20.522973 28.9484842,20.6506757 28.9059166,20.7297297 C28.7978085,20.9189189 28.8338446,21.1993994 28.6125566,21.3149149 L28.525,21.347 L28.671795,20.8847973 C28.7219639,20.7282095 28.7721329,20.5716216 28.8207815,20.4135135 Z M20.489,20.553 C20.532268,20.9364865 20.3984842,21.1006757 20.0397004,21.1006757 L19.486322,21.1006757 C19.486322,21.0702703 19.480241,21.0337838 19.480241,21.0033784 L20.0944302,20.8756757 C20.0944302,20.8513514 20.1005112,20.827027 20.1005112,20.8027027 C19.9484842,20.7662162 19.7964572,20.7297297 19.6505112,20.6871622 L19.6444302,20.5959459 L20.0723862,20.5746622 L20.489,20.553 Z M27.9086193,19.2155405 C27.9390247,19.2641892 27.9755112,19.3006757 27.9694302,19.325 C27.9329437,19.5013514 27.4099707,19.9513514 27.2336193,19.9939189 C26.9660518,20.0608108 26.680241,20.1155405 26.4369977,20.2371622 C26.084295,20.4256757 25.7619977,20.6689189 25.409295,20.8939189 C25.3119977,20.5108108 25.409295,20.3466216 25.7498356,20.1885135 C26.0234842,20.0608108 26.2728085,19.8844595 26.5282139,19.7263514 C26.5525383,19.7141892 26.5768626,19.6716216 26.5951058,19.6777027 C27.0937545,19.7141892 27.4951058,19.4709459 27.9086193,19.2155405 Z M22.928,18.143 L22.9282139,18.1331081 C22.9647004,18.4128378 22.7275383,18.5527027 22.5633491,18.6560811 C21.9491599,19.0331081 21.4930788,19.5560811 21.0430788,20.0972973 C20.9153761,20.2516047 20.8202642,20.4804054 20.5947891,20.5433422 L20.494,20.558 L20.4859354,20.4684333 C20.4821941,20.2542652 20.6105619,20.123902 20.8180788,20.0121622 C20.9336193,19.9513514 20.9944302,19.7993243 21.0795653,19.6777027 C21.1768626,19.5378378 21.2376734,19.3006757 21.3653761,19.2641892 C21.7484842,19.1547297 21.9126734,18.8081081 22.2045653,18.6013514 C22.3586193,18.4878378 22.5234842,18.3878378 22.6883491,18.2887387 L22.928,18.143 Z M23.5520711,19.8365947 L23.667,19.846 L23.6250085,19.9097081 C23.5672139,20.0058378 23.5156464,20.1167568 23.4329437,20.1459459 C23.2464572,20.2148649 23.0518626,20.2621622 22.8581689,20.3076577 L22.569,20.377 L22.5694302,19.9817568 C22.7032139,20.0668919 22.7701058,20.1155405 22.8309166,20.152027 C23.0437545,19.9657939 23.2705598,19.8307749 23.5520711,19.8365947 Z M24.9836193,19.1668919 L24.3261024,19.5043919 L23.675,19.835 L23.6701058,19.7398649 C23.6660518,19.6695946 23.6619977,19.6047297 23.6579437,19.5560811 C24.0045653,19.3918919 24.3207815,19.2337838 24.6491599,19.1060811 C24.7525383,19.0635135 24.886322,19.1 24.9836193,19.1668919 Z M18.1545653,18.9722973 C18.3065923,19.3128378 18.4890247,19.3614865 18.8478085,19.1425676 C19.0180788,19.0391892 19.182268,18.947973 19.4133491,19.1547297 C19.0606464,19.3371622 18.732268,19.5013514 18.4038896,19.6655405 C18.4099707,19.6168919 18.4221329,19.5256757 18.4099707,19.5195946 C18.130241,19.4222973 17.8444302,19.3310811 17.5647004,19.252027 C17.5464572,19.2459459 17.4795653,19.3371622 17.4856464,19.3493243 C17.5099707,19.3918919 17.5586193,19.4405405 17.6011869,19.4527027 C17.8809166,19.5439189 18.1484842,19.6108108 18.4160518,19.6716216 C18.355241,19.7202703 18.3005112,19.8114865 18.2336193,19.8114865 C17.6984842,19.8418919 17.1876734,19.7567568 16.6890247,19.5135135 C16.4944302,19.4162162 16.184295,19.4162162 15.9836193,19.5013514 C15.5883491,19.6655405 15.2964572,19.4101351 14.9498356,19.3554054 C15.1930788,19.3067568 15.3815923,18.9236486 15.6856464,19.2459459 C15.7282139,19.2945946 15.8619977,19.2641892 15.9532139,19.2581081 C16.0626734,19.252027 16.184295,19.2094595 16.2815923,19.2337838 C16.9444302,19.3918919 17.534295,19.0756757 18.1545653,18.9722973 Z M10.1266712,17.9324918 L10.214,17.949 L10.235,17.942 L10.2248356,17.9567568 L10.2315756,18.0256423 C10.2368476,18.204955 10.0248356,18.2283784 9.93294367,18.3094595 C9.58024096,18.6439189 9.19105177,18.9236486 8.81402475,19.2337838 C8.69848421,19.3310811 8.60118691,19.4527027 8.47956529,19.5378378 C8.40659231,19.5925676 8.30321394,19.5925676 8.13294367,19.6412162 C8.69848421,19.1182432 9.17888961,18.6560811 9.68361934,18.2182432 C9.81132204,18.1065034 9.92505726,17.9202703 10.1266712,17.9324918 Z M36.6167274,17.9932432 C36.9207815,18.0418919 37.2187545,18.127027 37.5167274,18.1939189 L37.5167274,18.2851351 C37.407268,18.2972973 37.3038896,18.3155405 37.1944302,18.3155405 C36.7505112,18.3216216 36.3005112,18.2912162 35.8626734,18.3459459 C35.4126734,18.4006757 34.9748356,18.5344595 34.5309166,18.6378378 C34.4944302,18.6439189 34.4518626,18.6560811 34.4153761,18.6682432 C33.2234842,18.9175676 32.0194302,18.9175676 30.809295,18.9175676 C30.3957815,18.9175676 29.9761869,19.0209459 29.5809166,19.1425676 C29.4167274,19.1790541 29.307268,19.4040541 29.155241,19.5621622 C29.0883491,19.0391892 29.2525383,18.577027 29.5140247,18.1695946 C29.7755112,18.2790541 29.9944302,18.3824324 30.2194302,18.4554054 C30.505241,18.5405405 30.7971329,18.6074324 31.0890247,18.6682432 C31.1619977,18.6864865 31.2653761,18.6804054 31.3261869,18.6378378 C31.5876734,18.4797297 31.8309166,18.497973 32.1045653,18.6317568 C32.2079437,18.6804054 32.3599707,18.6439189 32.4815923,18.6256757 C32.5667274,18.6135135 32.6518626,18.5466216 32.7369977,18.5405405 C33.4424031,18.4614865 34.1538896,18.4189189 34.859295,18.3155405 C35.2788896,18.2547297 35.686322,18.1087838 36.1059166,18.0236486 C36.2701058,17.9871622 36.4525383,17.9689189 36.6167274,17.9932432 Z M11.982268,18.5527027 C12.0065923,18.7047297 12.0248356,18.8506757 12.0430788,18.9844595 C11.7390247,19.1 11.4106464,19.2155405 11.0640247,19.3432432 C10.9059166,18.9966216 11.4957815,18.5162162 11.982268,18.5527027 Z M30.0187545,10.325 C30.0065923,10.4101351 30.0248356,10.5256757 29.9761869,10.5743243 C29.4897004,11.0425676 28.9971329,11.5047297 28.4924031,11.9547297 C28.2005112,12.2162162 27.9025383,12.4959459 27.5619977,12.6662162 C26.9660518,12.9641892 26.5829437,13.5054054 26.0356464,13.8459459 C25.786322,14.0040541 25.5734842,14.2290541 25.3484842,14.4236486 C25.3728085,14.4540541 25.3971329,14.4905405 25.4214572,14.5209459 C25.6829437,14.6 25.9383491,14.7155405 26.1998356,14.7581081 C26.7349707,14.8493243 27.2701058,14.9040541 27.811322,14.9709459 C28.6565923,15.0682432 29.5018626,15.1533784 30.3897004,15.2506757 L30.3935011,15.2651182 C30.3973018,15.2810811 30.4018626,15.3054054 30.4018626,15.3297297 C30.4018626,15.3783784 30.3897004,15.427027 30.3775383,15.5547297 C30.1586193,15.5 29.9579437,15.4513514 29.7511869,15.4027027 C29.6721329,15.3844595 29.5930788,15.3722973 29.5140247,15.3662162 C29.161322,15.3540541 28.8025383,15.3722973 28.4498356,15.3358108 C27.884295,15.2871622 27.3065923,15.275 26.7714572,15.1168919 C26.455241,15.0256757 26.1511869,14.9891892 25.8410518,14.977027 C25.2755112,14.9587838 24.6369977,15.4331081 24.4180788,15.9682432 C24.2782139,16.3027027 24.0653761,16.6067568 23.8707815,16.9168919 C23.6275383,17.3060811 23.3721329,17.6831081 23.1167274,18.0662162 C23.086322,18.1148649 22.9890247,18.1209459 22.9282139,18.1452703 C22.9099707,17.7560811 23.2079437,17.5128378 23.3660518,17.2148649 C23.6397004,16.6918919 23.9437545,16.1810811 24.2660518,15.6824324 C24.5153761,15.2932432 24.7707815,14.9101351 25.0748356,14.5635135 C25.4761869,14.1135135 25.9201058,13.6939189 26.3701058,13.2864865 C26.7775383,12.9155405 27.2032139,12.5628378 27.6410518,12.2283784 C27.9268626,12.0094595 28.2674031,11.8635135 28.5410518,11.6385135 L28.9261869,11.2966216 L29.6721329,10.5804054 L29.836322,10.4283784 C29.8910518,10.3858108 29.9579437,10.3554054 30.0187545,10.325 Z M15.8559166,17.2635135 C16.3545653,17.4885135 16.8714572,17.3668919 17.3761869,17.4094595 C17.6680788,17.4337838 17.9599707,17.4033784 18.2579437,17.4094595 C18.3005112,17.4094595 18.3491599,17.4398649 18.4221329,17.4641892 C18.3674031,17.5128378 18.3430788,17.5493243 18.3187545,17.5554054 C17.6255112,17.6831081 16.932268,17.7743243 16.2268626,17.7743243 C15.8133491,17.7743243 15.3937545,17.9506757 14.9255112,18.0540541 C14.9255112,17.8351351 14.9133491,17.597973 14.9315923,17.3608108 C14.9376734,17.3121622 15.0471329,17.2391892 15.1079437,17.2331081 C15.357268,17.227027 15.6491599,17.1662162 15.8559166,17.2635135 Z M12.4201058,16.2783784 C12.4383491,16.3148649 12.4626734,16.3574324 12.4809166,16.3939189 C12.134295,16.6614865 11.7876734,16.9412162 11.4349707,17.2027027 C11.155241,17.4094595 10.8755112,17.6101351 10.5836193,17.8047297 C10.5106464,17.8533784 10.4268626,17.8804054 10.341277,17.9074324 L10.235,17.942 L10.3319196,17.8202175 C10.4376734,17.6808277 10.542572,17.5371622 10.6748356,17.4277027 C11.155241,17.0445946 11.6599707,16.6918919 12.1647004,16.3391892 C12.2315923,16.2905405 12.3349707,16.2966216 12.4201058,16.2783784 Z M32.8282139,13.2743243 C32.8221329,13.3777027 32.8525383,13.5114865 32.8038896,13.5844595 C32.4694302,14.0587838 32.1106464,14.5148649 31.7640247,14.9831081 C31.7457815,15.0135135 31.7457815,15.0560811 31.7275383,15.1594595 C32.311322,15.1047297 32.8768626,15.2993243 33.4180788,15.0195946 C33.4606464,14.9952703 33.5153761,14.9831081 33.5640247,14.9831081 C34.2815923,14.9831081 34.9991599,14.9831081 35.7167274,14.9891892 C35.7410518,14.9891892 35.7653761,15.0135135 35.8383491,15.0621622 C35.7471329,15.0986486 35.6924031,15.1290541 35.6376734,15.1351351 L33.1930788,15.2752252 C32.7856464,15.2966216 32.3782139,15.3155405 31.9707815,15.3297297 C31.636322,15.3418919 31.484295,15.4878378 31.3201058,15.7493243 C31.0890247,16.1263514 30.7971329,16.472973 30.5295653,16.8317568 C30.3957815,17.0141892 30.2741599,17.2027027 30.1403761,17.3851351 C30.1099707,17.3668919 30.0674031,17.3547297 30.0248356,17.3364865 C30.1099707,17.1662162 30.1768626,16.9898649 30.2741599,16.8256757 C30.4930788,16.472973 30.7119977,16.1202703 30.9491599,15.7797297 C31.2228085,15.3783784 31.5147004,14.9891892 31.7944302,14.5939189 C32.0376734,14.2472973 32.2626734,13.9006757 32.5059166,13.5540541 C32.5788896,13.4506757 32.6701058,13.3594595 32.8282139,13.2743243 Z M23.6336193,14.9222973 C23.7430788,15.4027027 23.6761869,15.4695946 23.2505112,15.5 C22.6910518,15.5486486 22.1011869,15.5608108 21.5721329,15.725 C20.8241599,15.9621622 20.0275383,16.1506757 19.4498356,16.7648649 C19.3525383,16.8682432 19.2369977,16.9594595 19.0971329,17.0871622 C19.0180788,16.7891892 18.8538896,16.8074324 18.6653761,16.8804054 C18.0876734,17.1114865 17.5282139,17.0385135 16.9748356,16.6918919 C17.0782139,16.6736486 17.1815923,16.625 17.2788896,16.6310811 C17.5951058,16.6554054 17.8809166,16.6310811 18.1849707,16.4912162 C18.4586193,16.3635135 18.7869977,16.3574324 19.0910518,16.2905405 C19.2917274,16.247973 19.4984842,16.3087838 19.6809166,16.0959459 C19.8025383,15.9621622 20.0640247,15.9560811 20.2586193,15.877027 C20.3741599,15.8283784 20.4775383,15.7614865 20.5869977,15.6945946 C20.7755112,15.5790541 20.9518626,15.4148649 21.1525383,15.3418919 C21.4505112,15.2385135 21.7667274,15.2081081 22.0768626,15.1412162 C22.2106464,15.1108108 22.3383491,15.0743243 22.5025383,15.0317568 C22.5268626,15.05 22.5815923,15.1047297 22.6545653,15.1716216 C22.7214572,15.0804054 22.7761869,15.0135135 22.8430788,14.9222973 C22.9160518,15.0195946 22.9707815,15.0804054 23.0011869,15.1168919 C23.2444302,15.0439189 23.4390247,14.9831081 23.6336193,14.9222973 Z M27.7261869,6.98648649 C27.8660518,7.26621622 27.6167274,7.44864865 27.5133491,7.58243243 C27.1910518,7.99594595 26.8261869,8.39121622 26.4248356,8.71959459 C25.634295,9.37027027 24.8194302,9.99054054 23.9924031,10.5925676 C23.8853761,10.6704054 23.7647274,10.7297568 23.6390193,10.7826865 L23.2552788,10.9342757 C23.1916464,10.9603514 23.1288896,10.9878378 23.0680788,11.0182432 C22.7518626,11.1763514 22.4417274,11.3466216 22.1437545,11.5412162 C21.6633491,11.8513514 21.1890247,12.1675676 20.7329437,12.5081081 C20.5079437,12.6783784 20.3315923,12.9155405 20.1248356,13.1222973 C19.930241,13.3168919 19.7356464,13.5114865 19.5349707,13.7 C19.4984842,13.7364865 19.4498356,13.7790541 19.4133491,13.7790541 C18.8964572,13.7608108 18.5498356,14.0891892 18.1667274,14.3506757 C17.8383491,14.5756757 17.4674031,14.7398649 17.1207815,14.9283784 C16.7376734,15.1412162 16.3606464,15.3601351 15.9714572,15.5668919 C15.8619977,15.6277027 15.734295,15.6885135 15.6126734,15.6885135 C15.2782139,15.6945946 14.9376734,15.6702703 14.6032139,15.6581081 C14.6032139,15.6398649 14.6032139,15.6094595 14.5971329,15.572973 C15.132268,15.4695946 15.7768626,15.6763514 16.1295653,15.0317568 C16.111322,15.0013514 16.0565923,14.9283784 15.959295,14.7885135 C16.1721329,14.8006757 16.3241599,14.8128378 16.5065923,14.8189189 C16.5491599,14.672973 16.5978085,14.5939189 16.8471329,14.6486486 C17.0538896,14.6972973 17.3336193,14.5695946 17.5403761,14.447973 C18.0329437,14.1621622 18.3491599,13.6574324 18.884295,13.3959459 C18.811322,13.2925676 18.7687545,13.2256757 18.6897004,13.1222973 C19.1640247,13.1040541 19.4255112,12.8486486 19.6140247,12.4716216 C19.6505112,12.4047297 19.784295,12.3804054 19.8755112,12.3378378 C19.9059166,12.3682432 19.936322,12.4047297 19.9667274,12.4351351 C19.8998356,12.5263514 19.8451058,12.6297297 19.7721329,12.7087838 C19.6444302,12.8486486 19.5045653,12.9763514 19.3647004,13.097973 C19.2978085,13.1587838 19.2005112,13.1952703 19.1397004,13.2621622 C19.0849707,13.3168919 19.0606464,13.402027 19.0241599,13.475 C19.1214572,13.5175676 19.2795653,13.6209459 19.3038896,13.5966216 C19.5957815,13.2925676 19.9424031,13.0554054 20.155241,12.6601351 C20.3376734,12.3256757 20.684295,12.0824324 20.9640247,11.8027027 C21.0309166,11.7297297 21.1464572,11.6871622 21.1829437,11.6081081 C21.280241,11.3891892 21.4626734,11.4195946 21.6451058,11.3709459 C21.9734842,11.2797297 22.2775383,11.1033784 22.5815923,10.9452703 C22.9951058,10.7324324 23.4025383,10.5074324 23.8099707,10.2763513 C24.1383491,10.0878378 24.4728085,9.89324324 24.7829437,9.66824324 C25.257268,9.3277027 25.7194302,8.96891892 26.1633491,8.59189189 C26.5403761,8.27567568 26.8869977,7.92297297 27.2336193,7.57635135 C27.4099707,7.4 27.5498356,7.19932432 27.7261869,6.98648649 Z M14.1045653,14.6486486 C13.9525383,14.9101351 13.8005112,15.1777027 13.6545653,15.4391892 C13.5086193,15.122973 13.7761869,14.6425676 14.1045653,14.6486486 Z" id="Combined-Shape" fill="#000000" fill-rule="nonzero"></path>
        </g>
    </g>
</svg>