<?xml version="1.0" encoding="UTF-8"?>
<svg width="48px" height="48px" viewBox="0 0 48 48" version="1.1" xmlns="http://www.w3.org/2000/svg" xmlns:xlink="http://www.w3.org/1999/xlink">
    <title>bg-bulbank</title>
    <g id="Page-1" stroke="none" stroke-width="1" fill="none" fill-rule="evenodd">
        <g id="bg-bulbank" fill-rule="nonzero">
            <rect id="Rectangle" x="0" y="0" width="48" height="48"></rect>
            <path d="M46.5866263,24.74823 L46.5567526,24.75 C46.5567526,36.9700801 36.7511855,46.875 24.62075,46.875 C18.8235757,46.875 13.5437358,44.6128005 9.61078405,40.9168166 C10.5010103,40.2471189 11.5214268,39.4787629 12.5430336,38.7074993 L13.0833557,38.2993865 C15.0597549,36.8058338 16.9550162,35.3649697 17.8272671,34.6769232 C19.4529966,33.3957332 26.1869948,27.7061554 30.8488293,23.7101225 L31.4710156,23.1762791 C32.687003,22.131879 33.724586,21.2340752 34.438106,20.6066484 C35.0342912,20.0817818 35.6686169,19.5156843 36.3100215,18.938351 L36.7383324,18.5521267 L37.3802577,17.9708684 C40.0811423,15.5196153 42.6005909,13.1651272 42.6005909,13.1651272 C42.7599787,13.0204225 42.9171385,12.8783307 43.0718175,12.7387989 C45.2953097,16.1975303 46.5866263,20.3210151 46.5866263,24.74823 Z M46.4491368,4.50956063 C47.8548296,5.49101975 47.6671376,7.17237184 47.5353538,7.70131394 C47.2358455,8.86579109 45.6983694,10.2555211 42.8869847,12.8117394 C42.8869847,12.8117394 40.4046454,15.1316254 37.7441115,17.5463145 L37.3228823,17.9280446 C36.4788059,18.691783 35.6290529,19.4532968 34.8461842,20.142515 C33.5009099,21.3268613 30.9825648,23.4894173 28.3014532,25.771838 L27.5990048,26.3694068 L26.8931577,26.9690274 L26.1878976,27.5673136 C22.7869805,30.4503497 19.5463004,33.1679658 18.4910327,33.9995915 C17.6319984,34.6772124 15.7651234,36.0965778 13.8182786,37.5677592 L13.2860353,37.9697568 C10.6218765,39.9809849 7.96586623,41.9719356 7.67079506,42.193166 C7.13767026,42.5954037 5.68006302,43.7719478 4.84742986,42.9574173 C4.37420673,42.5008776 3.91895407,42.0926068 3.66337361,41.7245597 C4.4540756,41.7466827 6.25711577,41.4832173 6.66045362,41.1775169 C6.93688872,40.9689494 9.2683536,39.2209219 11.7436125,37.3541139 L12.8076693,36.550923 C14.7541493,35.0802609 16.6208435,33.6615632 17.4806913,32.9839422 C18.6076688,32.094963 22.2318894,29.0508866 25.8805293,25.9533781 L26.5863585,25.3537575 C29.5230505,22.8572613 32.3718668,20.4141986 33.8358428,19.1268657 C34.4233399,18.609952 35.0483398,18.0524323 35.6802619,17.483847 L36.1022333,17.1034749 L36.5242421,16.7217692 C39.2630586,14.2405619 41.8766431,11.7981013 41.8766431,11.7981013 C44.6880279,9.23987181 46.4691042,7.47807224 46.7666158,6.31560629 C46.8484816,5.99582761 46.6607896,5.02241326 46.4491368,4.50956063 Z M24.62075,2.625 C27.6300164,2.625 30.4980452,3.23456421 33.1097168,4.33779299 C28.2692832,4.58343262 23.6097089,5.01773607 22.7357062,5.19265214 C21.182685,5.50509803 21.0894226,7.00402137 21.6165578,7.41244733 C22.1436929,7.81883117 24.7955881,9.38514478 25.5903457,9.88342447 C26.3830758,10.3817042 26.2735939,10.7594982 25.9917793,11.2271459 C25.8711465,11.4317418 25.2425362,12.2769841 24.5735187,13.1631464 L24.2856862,13.543687 C23.518806,14.5558176 22.7863922,15.5094922 22.7863922,15.5094922 C22.2098612,16.2078594 18.2882933,21.7202866 14.212578,27.4803015 L13.6803511,28.2326365 C11.1796435,31.7682856 8.67315459,35.3223318 6.89393566,37.8457073 C4.2115553,34.1788032 2.625,29.6505655 2.625,24.75 C2.625,12.53169 12.4903144,2.625 24.62075,2.625 Z" id="Combined-Shape" fill="#E51E26"></path>
        </g>
    </g>
</svg>