<?xml version="1.0" encoding="UTF-8"?>
<svg width="48px" height="48px" viewBox="0 0 48 48" version="1.1" xmlns="http://www.w3.org/2000/svg" xmlns:xlink="http://www.w3.org/1999/xlink">
    <title>bgnb</title>
    <g id="Page-1" stroke="none" stroke-width="1" fill="none" fill-rule="evenodd">
        <g id="bgnb" fill-rule="nonzero">
            <rect id="Rectangle" x="0" y="0" width="48" height="48"></rect>
            <path d="M19.3180333,6.65132039 C19.8004088,7.60412521 20.9259518,7.85303782 21.7485535,7.18893082 L22.2675483,6.76999594 L24.045247,6.76999594 L25.8232785,6.76999594 L26.3066528,7.17804942 C27.0939669,7.84249648 28.4398912,7.55787915 28.7162001,6.66866269 C28.8310515,6.2993743 29.3886629,6.3544615 29.7302208,6.76897583 C29.8683753,6.93695783 30.1370275,7.14982572 30.3264489,7.24163774 C30.5162033,7.33344975 30.711284,7.48510965 30.7602207,7.57828183 C30.8088245,7.67145406 31.0138923,7.9292078 31.2156311,8.15159693 C31.9520112,8.96328329 31.9743156,10.2075063 31.2645678,10.9018772 C30.9899233,11.1705124 30.8564295,11.5656442 31.0401916,11.5656442 C31.0818044,11.5656442 31.2306118,11.6741184 31.3704308,11.8067358 C31.8411547,12.2525342 32.0778483,12.3341449 32.256284,12.1124359 C32.491313,11.8193174 33.0822148,11.4775727 33.5099943,11.3867808 C33.978055,11.2874878 34.2257344,10.8515506 33.8139342,10.8515506 C33.681439,10.8515506 33.5456149,10.8974567 33.5116588,10.953564 C33.2057215,11.4592102 32.1171308,10.8882755 31.9516783,10.1350768 C31.7622568,9.27408401 32.0808444,9.09658073 32.8621663,9.62705025 C33.4970111,10.0582267 33.5615942,10.0340836 33.5615942,9.36521592 C33.5615942,8.49504193 33.9327803,8.09650974 34.7430647,8.09650974 C34.902192,8.09650974 35.1978093,7.98157467 35.4002139,7.84147632 C35.7111448,7.6258881 35.8832553,7.5864429 36.5114421,7.5864429 C36.9202462,7.5864429 37.4465648,7.53407604 37.6809281,7.47048772 C38.2964646,7.30352584 38.8540761,7.57998205 39.0338434,8.14139563 C39.1047516,8.36174449 39.3660799,8.76401717 39.614758,9.03571279 C40.4589984,9.95791359 40.6038109,11.2446421 40.0934716,13.2964709 C39.9303494,13.9520769 39.9120398,14.4621436 40.0548549,14.3716918 C40.1097838,14.3370073 40.1547256,14.2026897 40.1547256,14.0727926 C40.1547256,13.7990568 40.9516939,12.9941713 41.2230093,12.9941713 C41.3185524,12.9941713 41.5918651,12.9183414 41.8302233,12.8251692 C42.234034,12.6677286 42.2879642,12.6677286 42.6112123,12.8251692 C42.802298,12.9183414 43.0303364,12.9941713 43.1178898,12.9941713 C43.3922012,12.9941713 44.3356465,14.0863945 44.4098839,14.4903674 C44.5014319,14.9895527 44.381254,16.0433508 44.2001551,16.3255878 C44.1179284,16.4537846 44.0506822,16.6360484 44.0506822,16.7309209 C44.0506822,16.8257933 43.938161,17.0539632 43.8006725,17.2379273 C43.6635166,17.4218914 43.5509954,17.6415602 43.5509954,17.7262313 C43.5509954,17.8109024 43.5073855,17.907815 43.4541212,17.9414795 C43.400524,17.9751439 43.2683617,18.2073943 43.1598352,18.4576671 C43.0516421,18.7079399 42.9154852,18.9126467 42.8575598,18.9126467 C42.6664741,18.9126467 42.7463707,19.1982841 43.1634973,20.0045297 C44.030708,21.6819695 43.6601875,23.0513289 42.2666581,23.3172437 C41.1680805,23.5267112 41.4513805,25.1368221 42.5872435,25.1368221 C42.863552,25.1368221 43.8615935,25.6329471 44.1032809,25.8903608 C44.4015611,26.2086425 44.8496477,26.8441858 44.8496477,26.9492595 C44.8496477,26.9995861 45.1023205,27.265841 45.410921,27.5409371 C46.3443794,28.372686 46.867036,30.2164076 46.1982352,30.3184209 C45.534095,30.4197542 45.5334295,30.4204343 45.6010082,30.8815347 C45.6522754,31.2287202 45.6239785,31.3664382 45.4568615,31.5830466 C45.3426763,31.731306 45.2484647,31.937373 45.2477992,32.0407465 C45.2458016,32.2876189 45.148594,32.4266971 44.8746155,32.5742764 C44.5716742,32.7371578 44.5916483,32.9578467 44.9248837,33.1339898 C45.5271043,33.4519314 45.7368326,33.9694792 45.963872,35.6979257 C46.0154717,36.0906771 46.1536262,36.95201 46.271141,37.6116964 L46.4845315,38.8113735 L46.2664804,39.3483039 C46.1466355,39.6438026 46.0467647,39.9304601 46.0447672,39.9855473 C46.039108,40.1392475 45.4355558,40.791793 45.0993244,41.0077213 C44.1289142,41.631703 44.1944959,41.6153809 42.64883,41.6116404 C41.4450553,41.60858 41.1557631,41.578316 40.9533584,41.4334571 C40.8191988,41.3375645 40.5735168,41.257654 40.4070657,41.2556137 C40.2409473,41.2535735 39.925023,41.1634617 39.7049745,41.0549874 C39.485259,40.9465132 39.2239306,40.8564014 39.1243928,40.8543612 C39.0245221,40.8526609 38.7322338,40.7659496 38.4749003,40.662236 C37.8869947,40.425565 37.4312513,40.2569029 36.8579934,40.0640976 C36.6109799,39.9807867 36.2737498,39.8512297 36.1089631,39.7760799 C35.6512224,39.5679727 34.2367202,39.1078924 33.1118431,38.8018523 C32.7273408,38.6971186 32.3405083,38.5682417 32.252622,38.5151947 C32.1644029,38.4621478 31.8724475,38.3880181 31.6031295,38.3499331 C31.3341444,38.3118481 30.8218076,38.1975931 30.4646034,38.0955798 C30.1077321,37.9935664 29.504513,37.8786313 29.1243384,37.8398663 C28.7444968,37.8014412 28.3400205,37.7283317 28.225502,37.677665 C26.7061356,37.0050569 21.0667694,37.2077234 17.5782855,38.0602151 C17.2210812,38.1476066 16.6368376,38.280224 16.2796333,38.3553738 C15.3212074,38.5563401 13.5571577,39.0902101 12.9179852,39.372447 C12.7452089,39.4489571 12.441269,39.5424693 12.2428591,39.5805543 C12.0444493,39.6186393 11.7155418,39.7362947 11.5124713,39.8420486 C11.309068,39.9481425 11.0733731,40.036214 10.9888159,40.0382543 C10.9042587,40.0399545 10.6555807,40.1304063 10.4355322,40.2388805 C10.2158166,40.3470147 9.95581986,40.4374666 9.85761366,40.4391668 C9.75974037,40.441207 9.57631114,40.5115963 9.45047404,40.5959273 C9.32430408,40.6802584 8.95711276,40.799274 8.63386453,40.8601419 C8.31094925,40.92135 7.95607534,41.035945 7.84521883,41.1151753 C7.73469523,41.1944057 7.53961447,41.2590142 7.41144704,41.2590142 C7.28361253,41.2590142 7.03526733,41.3372245 6.8594949,41.4324369 C6.47366103,41.6415643 3.54079115,41.7024323 3.41462114,41.5038462 C3.37533866,41.4422982 3.23352224,41.3328039 3.09969553,41.2607144 C2.82804718,41.1141552 2.79775304,41.0917123 2.26910411,40.6397931 C2.06303754,40.46365 1.89458891,40.2579231 1.89458891,40.1820931 C1.89458891,40.1066032 1.81602395,39.9994892 1.71981516,39.9440619 C1.51274991,39.8250463 1.48511901,36.5680996 1.68918816,36.3171468 C1.74844479,36.2440372 1.84132452,35.799599 1.89525473,35.3289773 C2.04173175,34.0551704 2.16290825,33.7521908 2.72751065,33.2475647 L3.2232023,32.8048266 L2.95854493,32.4834846 C2.81273368,32.3066614 2.69388751,32.0829121 2.69388751,31.9859994 C2.69388751,31.8894267 2.63795993,31.7534089 2.56971496,31.6836998 C2.50146994,31.6139906 2.42290498,31.2946888 2.39494121,30.9743668 L2.34400711,30.3918705 L1.97049068,30.4143135 C1.51707765,30.4415171 1.43451786,30.2378303 1.54237823,29.3567749 C1.60662837,28.8331064 2.09599487,27.7901897 2.27775955,27.7898497 C2.40326374,27.7898497 3.06474074,27.1264227 3.19324108,26.8717294 C3.62534836,26.0154972 4.33343169,25.433681 5.23593004,25.1936095 C6.50428808,24.8562853 6.97534493,23.6736104 5.95400045,23.3913735 C5.16369024,23.1730648 4.96627911,23.0591499 4.67998308,22.655517 C4.19294691,21.9686271 4.27484088,21.1202159 4.95729076,19.7797603 C5.27088478,19.1639396 5.29285635,19.0309822 5.11242327,18.8493984 C4.93065855,18.6661144 4.81614016,18.4563069 4.06744272,16.9325673 C3.08038715,14.9246043 3.48885836,13.5300816 5.24858031,12.8982788 L5.8344885,12.6877912 L6.43670888,12.8992989 C7.08919754,13.1281489 7.73303072,13.6739204 7.83356725,14.082994 C7.86818908,14.2241125 7.94009602,14.2999424 8.00201584,14.2611773 C8.13051617,14.1799067 8.04828929,13.5549048 7.82124985,12.892158 C7.33754269,11.4796129 7.68609149,9.53217781 8.54231639,8.86501042 C8.7939906,8.66914473 8.88720324,8.51748488 8.88720324,8.30427694 C8.88720324,7.74218333 9.70381275,7.26170036 10.2990422,7.47354815 C10.4728173,7.53543625 10.9725037,7.5864429 11.4092716,7.5864429 C12.0554351,7.5864429 12.2578398,7.62622811 12.4978624,7.80067096 C12.6599858,7.91866645 12.9815695,8.03768202 13.2126038,8.06522566 C14.1959974,8.182541 14.3850859,8.3739861 14.3997336,9.26626299 C14.4060588,9.63317105 14.4510006,9.93309032 14.5002702,9.93309032 C14.640422,9.93309032 15.360157,9.53931877 15.4297336,9.4243837 C15.7020477,8.97450475 16.0875487,9.37609737 16.0116469,10.0306831 C15.9067827,10.9345215 15.0751925,11.3769195 14.3954059,10.8906558 C14.1350763,10.7043114 13.9133633,10.8280876 14.0162301,11.1021635 C14.0828106,11.2786466 14.1177653,11.2956488 14.7785765,11.4687315 C15.0588803,11.5421811 15.3455092,11.7156039 15.5462494,11.9328923 C15.9467309,12.3671292 15.9467309,12.3671292 16.5662623,11.8631832 C17.1728104,11.3697785 17.1771381,11.3446153 16.7400373,10.8501905 C16.0509294,10.0711484 16.0629139,8.90343546 16.7673353,8.16995934 C17.6358776,7.26544085 17.7314206,7.17838947 17.8545945,7.17838947 C17.9245039,7.17804942 18.1269086,7.02502936 18.3050113,6.83766484 C18.8309971,6.28441232 19.1066403,6.23374572 19.3180333,6.65132039 M23.1560647,7.46130654 C22.8914074,7.51605368 22.8770925,7.67995518 22.9756316,9.54577958 C23.0268986,10.5166068 23.0924804,11.8594427 23.1217758,12.5300106 C23.1833627,13.9469762 23.1663847,13.9238532 24.1214816,13.8878084 L24.8205766,13.861625 L24.8894874,12.9941713 C24.9667207,12.0260645 25.1717886,7.55175839 25.1404957,7.52523491 C25.0955539,7.48714992 23.3098656,7.42968236 23.1560647,7.46130654 M18.4741258,7.64119009 C18.2527457,7.91356576 18.7111522,8.81060329 19.0720184,8.81060329 C19.2341419,8.81060329 19.19952,8.67220516 18.8849273,8.06114512 C18.643906,7.59324381 18.572332,7.52013421 18.4741258,7.64119009 M29.2661548,7.81869332 C29.2661548,7.89962394 29.1559642,8.13187435 29.0211387,8.33454091 C28.709875,8.80312232 28.8756604,8.93777997 29.2784722,8.54332826 C29.4788795,8.34712257 29.5651012,8.17301977 29.545127,8.00435767 C29.5135013,7.73742269 29.2661548,7.57250108 29.2661548,7.81869332 M9.71146954,8.16417859 C9.49941073,8.25157006 9.57331504,8.38724782 9.8512885,8.42125228 C10.2154837,8.46579812 10.3959168,8.77693889 10.1608877,8.95546227 C10.064679,9.02857183 9.87259429,9.06631676 9.73410688,9.03945327 C9.09793045,8.91499697 8.3076202,10.0786294 8.3645465,11.0555774 C8.4014987,11.68568 8.61389042,13.3297953 8.7666926,14.1676651 C8.98873849,15.3874049 8.98074883,16.6652923 8.74638554,17.3685044 C8.55396797,17.9459 8.60456912,18.090759 9.00005716,18.0948396 C9.32630149,18.0979 9.43715796,17.7918599 9.42184446,16.9322273 C9.40386772,15.9396372 9.51106231,15.8165411 9.95315662,16.3232075 C10.5230855,16.9767731 10.4951217,17.9476003 9.88990521,18.5147946 C9.68683474,18.7048795 9.57264922,18.9503917 9.4860946,19.3819082 C9.34560982,20.0810398 8.94812437,20.6393929 8.11486976,21.3072404 C7.81692211,21.5462917 7.48734877,21.8856562 7.38248455,22.0617992 C7.00930098,22.6888414 5.98196426,22.3923226 5.74427196,21.5891373 C5.665707,21.3225424 5.83182527,20.7601087 6.45368693,19.1904631 C6.90876446,18.0411125 7.02161834,17.449095 6.73965005,17.6881463 C6.65709026,17.7578554 6.58984397,17.8602088 6.58984397,17.9152961 C6.58984397,17.9703832 6.29156345,18.639931 5.92736828,19.4029909 C4.94996688,21.4500591 4.98325711,22.6881613 6.0155874,22.6881613 C7.84555174,22.6881613 7.6171807,25.4000166 5.7529274,25.8067098 C5.5811498,25.8441148 5.39605606,25.9107635 5.34112717,25.9549693 C5.28619828,25.9991751 5.05716147,26.0855464 4.83245235,26.1470945 C4.10572647,26.3453404 3.82941751,26.9737428 4.46892295,26.9737428 C5.01954349,26.9737428 5.16701925,27.4470848 4.74157003,27.8500376 C4.58444011,27.998637 4.49189325,28.1975631 4.49189325,28.3862878 C4.49189325,28.5512094 4.4030083,28.8861533 4.29414921,29.1309854 C4.18562307,29.3754774 4.09573939,29.7376248 4.0944078,29.9355308 C4.09340911,30.1334367 4.03248798,30.3860898 3.95924944,30.4969443 C3.09104005,31.8112165 3.42494113,32.0737309 5.17301149,31.4500892 C6.08982462,31.1233064 6.10846713,31.120926 6.42905213,31.2974092 C6.88080065,31.5456417 7.28960477,31.4371675 7.28727445,31.0695793 C7.28494412,30.6370426 7.15477933,30.5122463 6.77593638,30.5795751 C6.59117561,30.6125594 6.13842836,30.6941702 5.76990545,30.761499 C4.89736831,30.9202998 4.79150536,30.8403893 4.79150536,30.0208819 C4.79150536,28.4937419 6.3115376,27.1257427 8.35688975,26.8122216 C8.59491496,26.7758368 8.81163442,26.7098682 8.83826659,26.6660024 C8.86489881,26.6221367 9.1069188,26.5320249 9.37590391,26.4660563 C10.2883893,26.242647 10.5899989,25.479927 10.2580952,24.2360441 C9.75607845,22.3545776 9.87525748,21.1195358 10.5833409,20.8672228 C10.8097144,20.7866322 10.8852833,20.6965204 10.8852833,20.5067756 C10.8852833,20.3585161 10.988483,20.1708115 11.1349601,20.0531561 C11.2724488,19.9429817 11.3846368,19.754597 11.3846368,19.6352414 C11.3846368,19.4750804 11.4638676,19.4016308 11.684249,19.3564048 C11.9289322,19.3064183 11.984194,19.2441901 11.984194,19.0187406 C11.984194,18.5137744 12.5517926,18.5736223 12.7462075,19.0989911 C12.8976781,19.5094249 13.7305999,19.709031 14.5512042,19.5318678 C15.4154188,19.3451834 15.9077814,19.4118321 15.9796883,19.7253532 C16.021634,19.9093173 16.1264982,19.9956886 16.3671866,20.0460152 C16.5865693,20.0919212 16.8984989,20.3234915 17.2996462,20.7383459 C17.6728297,21.1242964 17.985758,21.3616475 18.1212493,21.3616475 C18.4315143,21.3616475 18.9135569,20.8236971 18.8336603,20.5666234 C18.7670799,20.3527353 18.9508419,19.831107 19.0926584,19.831107 C19.1389318,19.831107 19.1765497,19.762078 19.1765497,19.6777469 C19.1765497,19.5668924 19.0650275,19.5247269 18.7724063,19.5247269 C18.343628,19.5247269 17.8778976,19.181962 17.8778976,18.8660606 C17.8778976,18.6429914 17.5097076,18.6684947 17.2057677,18.9126467 C16.8462332,19.2016846 16.69676,19.1727808 16.0199695,18.6831166 C15.6903961,18.4444054 15.332859,18.1917523 15.2256644,18.121023 C15.1184698,18.0506338 14.8285119,17.8561283 14.5814983,17.6895065 C14.050852,17.3314396 13.6090905,17.3018557 13.0328365,17.5861329 C12.7395495,17.7309919 12.413971,17.7840388 11.8060913,17.7867592 C10.8836188,17.7904997 10.770099,17.7078689 10.9821579,17.1852204 C11.1193137,16.8465361 11.06039,16.6901156 10.5197565,15.9644605 C10.1648826,15.487718 10.0773292,15.0351187 10.3399892,15.0351187 C10.7291521,15.0351187 11.9169477,16.1334626 12.0228107,16.5911626 C12.1270091,17.0413815 13.1287124,16.9482094 13.3820511,16.464666 C13.6160814,16.0178475 13.0434894,15.5278433 12.018483,15.2979732 C11.5996918,15.2041208 10.985154,14.5937409 10.985154,14.2717187 C10.985154,13.9248733 11.2401572,13.8364617 11.5144688,14.0884347 C11.7561559,14.3098037 12.4882082,14.6267252 12.7601894,14.6274053 C13.1873032,14.6287655 13.7172838,14.8732575 14.1004544,15.2456063 C14.5884893,15.7196284 14.8265145,15.7036463 15.0399049,15.1816779 C15.3764692,14.3591102 14.9047465,13.5960502 14.1573807,13.7538309 C12.4715631,14.1095175 11.7841197,13.9894817 11.7841197,13.3399967 C11.7841197,12.999612 12.0241423,12.9316031 12.3370705,13.1828961 C12.598066,13.3927035 12.6956064,13.3862427 13.1826426,13.1281489 C13.3201312,13.0550393 13.5135475,12.9951915 13.6124195,12.9948514 C13.7112915,12.9945114 13.9233504,12.9251423 14.0834764,12.8404712 C14.2436024,12.7558001 14.5205772,12.6983326 14.6990129,12.7129545 C15.1301214,12.7479791 15.1833858,12.488185 14.7935571,12.2528742 C14.442678,12.0410265 13.7755417,12.0230041 13.402691,12.2147893 C12.6250311,12.6150217 11.459207,12.4688025 11.2235121,11.9413934 C11.1439484,11.76287 10.9934766,11.4789329 10.8892781,11.3106108 C10.6176298,10.8712733 10.6319446,10.6475239 10.9312238,10.6475239 C11.1615923,10.6475239 11.5843783,10.9909689 11.5843783,11.1783334 C11.5843783,11.4020828 12.4768895,11.7054025 12.8550666,11.61019 C13.4259942,11.4660112 13.3996949,11.098423 12.8214435,11.1409286 C12.3420641,11.1762932 11.9332599,10.8794343 11.827397,10.4186739 C11.6792554,9.77496961 12.7814952,9.15812883 13.3267893,9.57944402 C13.8021739,9.94669214 13.9543103,9.54543957 13.5331887,9.03435258 C13.1673291,8.59025443 12.7422127,8.55624997 12.1869316,8.92723857 C11.6859135,9.2618424 11.4492199,9.26864331 11.4042781,8.95002153 C11.3743169,8.73545342 11.5650699,8.46307775 11.8074228,8.37466616 C12.1393265,8.25361033 11.7308553,8.1876417 11.2155225,8.27911366 C10.7631081,8.35936417 10.5613693,8.350523 10.2987093,8.23932846 C9.94117218,8.08766856 9.90721612,8.08324802 9.71146954,8.16417859 M37.7571628,8.24306894 C37.57906,8.3450823 37.3067459,8.37092568 36.8080581,8.33250064 C36.1382585,8.28115393 36.1182844,8.28591457 36.3336722,8.44845582 C36.5956664,8.64636178 36.644603,9.19145317 36.4089082,9.2839453 C36.3223535,9.31794975 36.1102947,9.20913548 35.9058927,9.02551145 C35.3878966,8.56101057 34.8153045,8.57461239 34.4354629,9.06053601 C34.0060188,9.610048 34.1238663,9.86474136 34.67715,9.58284446 C35.1482069,9.34277302 35.4964227,9.38323828 35.8486335,9.71886227 C36.4418655,10.2850364 36.0490407,11.1575908 35.2008054,11.1575908 C34.7217589,11.1575908 34.6608378,11.2381813 34.9428061,11.4989955 C35.3359638,11.8621631 36.0570303,11.6197113 36.665243,10.9198996 C37.0204498,10.5111661 37.3576799,10.4462175 37.3576799,10.7862621 C37.3576799,11.1409286 36.6975345,12.1307983 36.3416619,12.3089816 C35.9624861,12.4994065 34.7483911,12.4086146 34.5153595,12.1722837 C34.3662192,12.0209638 33.582567,12.0597289 33.2506633,12.2348519 C32.8601689,12.4412589 32.8931262,12.7530798 33.3005987,12.7081939 C33.5462807,12.6813304 34.3642218,12.9404443 34.8838824,13.2104397 C35.1169141,13.3314955 35.533042,13.3246946 35.6092767,13.1985381 C35.7074829,13.0363369 36.1588985,13.0802026 36.2258118,13.2583859 C36.4408668,13.8300008 35.3526089,14.1244794 34.1441733,13.8218398 C33.3765004,13.6293745 32.9297455,13.8582245 32.880143,14.4692846 C32.8089019,15.3506801 33.2966039,15.922635 33.6997486,15.4302505 C33.9940344,15.0708234 34.5369981,14.7586625 35.0100524,14.6773919 C35.6056147,14.5750385 36.2804078,14.3125241 36.5284201,14.0867345 C36.7900814,13.8483632 37.0577349,13.9207927 37.0577349,14.2302333 C37.0577349,14.5695978 36.3769495,15.1184296 35.5077414,15.4792169 C34.3282683,15.9692211 34.1924442,16.5177129 35.1765036,16.8162721 C35.7544221,16.991735 35.9022308,16.9315472 35.9897841,16.4857487 C36.0467104,16.1950107 37.2391667,15.1218301 37.5314549,15.098027 C38.0081711,15.0596019 37.8949843,15.4809171 37.1829062,16.3949569 C36.9219107,16.7295607 36.8992733,16.991735 37.1036754,17.3100167 C37.1922274,17.4480749 37.2161964,17.5915736 37.1649295,17.6762447 C37.0440859,17.8758509 35.3189858,17.7799583 34.9101817,17.5511083 C34.2370531,17.174339 33.9261223,17.2848535 32.29024,18.4835105 C31.3757572,19.1537383 31.1433913,19.2095056 30.7565588,18.853479 C30.5092123,18.6263292 30.2835045,18.6817565 30.1167204,19.0115997 C29.927299,19.3856487 29.684946,19.5247269 29.2225446,19.5247269 L28.8660062,19.5247269 L29.0634173,19.9008162 C29.1845938,20.1317064 29.2375253,20.3704177 29.200906,20.5196972 C29.1359901,20.7842519 29.5764199,21.3616475 29.8437405,21.3616475 C30.0411516,21.3616475 30.5388406,20.9831779 30.9439828,20.525138 C31.1330714,20.3112499 31.4270242,20.0997422 31.5971373,20.0545163 C31.809529,19.9984089 31.9247132,19.8943553 31.9639957,19.7233129 C32.0349039,19.4145524 32.7090312,19.3329418 33.5366265,19.5328879 C34.3129548,19.7202525 35.0619852,19.5220065 35.3030065,19.0653267 C35.638905,18.4277432 36.1375927,18.4063204 36.0733426,19.0320023 C36.0510381,19.2496308 36.0919851,19.311519 36.276413,19.3383825 C36.4438629,19.3625256 36.5210963,19.4553578 36.5587142,19.6770668 C36.5920045,19.8746327 36.7018623,20.0269727 36.8713095,20.1099436 C37.0324343,20.1888339 37.1546095,20.3506951 37.19023,20.5322789 C37.2295125,20.7329052 37.3250555,20.84648 37.4895092,20.8886456 C37.9599003,21.0093614 38.3537238,22.5293605 38.0601039,23.0897539 C37.9549067,23.2910603 37.6749359,24.4587733 37.5913774,25.0460302 C37.4981647,25.700956 37.8473793,26.2212242 38.5121854,26.41845 C38.816791,26.5089018 39.1873114,26.64764 39.3354529,26.7265304 C39.4839274,26.8057607 39.6986494,26.8707093 39.812502,26.8710493 C40.1257631,26.8720694 41.4177574,27.3559528 41.834551,27.6283285 C43.539344,28.7426545 43.8046672,31.0603981 42.1927541,30.7563983 C40.8634748,30.5057855 40.8814515,30.5057855 40.7572789,30.7427965 C40.49129,31.250483 40.9939725,31.6058296 41.5572434,31.3079506 C41.8751653,31.1403086 42.9587621,31.3565769 43.6708403,31.7299458 C44.4092179,32.1172566 44.6492407,31.7656505 44.2361087,30.9022774 C44.074651,30.5652933 43.8995443,30.0307432 43.84628,29.7138217 C43.7933488,29.3969002 43.6828252,29.0068691 43.601264,28.8467081 C43.5193699,28.6862071 43.4521237,28.4471558 43.4517907,28.3148784 C43.4514577,28.1826011 43.3369394,27.9360688 43.1974534,27.7663866 C42.8908504,27.3943779 43.01702,27.0862975 43.5380125,26.9336175 C44.0283775,26.7901187 43.7720426,26.1572958 43.2237527,26.1572958 C43.0985812,26.1572958 42.9051649,26.0923473 42.7939757,26.0127769 C42.6827861,25.9332064 42.4254527,25.8362938 42.2220496,25.7971886 C41.4760153,25.6543699 41.0236008,25.1623255 40.8211962,24.2748092 C40.5761801,23.1978881 40.7659344,22.8867473 41.7653072,22.7265863 C42.3718555,22.6293336 42.8519006,22.1155263 42.8519006,21.563294 C42.8519006,21.1225962 42.8066261,20.9920191 42.1994119,19.6777469 C41.9660473,19.1727808 41.6564482,18.495412 41.5113029,18.1727097 C41.3664903,17.8500075 41.2040339,17.5861329 41.1507695,17.5861329 C40.9913093,17.5861329 41.0402459,17.975824 41.2536364,18.4022398 C41.3634942,18.6222486 41.4547096,18.86164 41.4563741,18.9340695 C41.4580382,19.006499 41.5702264,19.2951968 41.7053848,19.5757336 C41.8402102,19.8566104 41.9513998,20.1385073 41.9517328,20.2024357 C41.9523983,20.2663641 42.0416162,20.5190172 42.1504753,20.7635092 C42.4301134,21.3936117 42.404147,21.6353834 42.0126538,22.0349357 C41.5013156,22.5572441 40.5542085,22.464072 40.5542085,21.8914369 C40.5542085,21.8271685 40.4307017,21.6965914 40.279564,21.6010389 C39.3777315,21.0324844 38.4562577,19.7766999 38.4562577,19.1159933 C38.4562577,18.884763 38.3513935,18.6973985 38.0567749,18.4022398 C37.548433,17.8931932 37.4978318,17.2372472 37.9112966,16.5166928 C38.3723663,15.7128275 38.7358957,15.9046126 38.5587917,16.8580976 C38.4376152,17.5120032 38.5764355,17.9700432 38.9233198,18.0587948 C39.3198065,18.1604681 39.4096902,17.9768441 39.2648776,17.3589832 C39.041833,16.4075385 38.9642667,15.5353242 39.0767878,15.2500269 C39.1347128,15.1038077 39.1916391,14.8923 39.2032907,14.7800853 C39.362418,13.274368 39.4795996,12.3780106 39.5501749,12.1270577 C39.9609765,10.6696268 39.3144801,9.17411092 38.2065809,9.01939064 C37.6393153,8.94050029 37.5700716,8.54978912 38.1050457,8.44709566 C38.305453,8.40867061 38.448601,8.32705994 38.4279611,8.26279152 C38.3723663,8.09038893 38.0397969,8.08052764 37.7571628,8.24306894 M20.5750726,9.10576196 C20.5750726,9.15574851 20.6779395,9.22307731 20.8034437,9.25538154 C21.2145781,9.36079538 21.5195166,9.89840581 21.3327584,10.1891439 C21.2368825,10.3391035 21.2145781,10.4567589 21.2754992,10.495184 C21.4209775,10.586996 21.395677,11.1144051 21.2395458,11.2470225 C21.1366789,11.3340739 21.0494585,11.3126511 20.8743519,11.1572507 C20.6100274,10.9233001 20.515816,10.9056177 20.4152795,11.0722396 C20.3736667,11.1405885 20.4562265,11.2902081 20.6090287,11.4245257 C20.7551728,11.5530626 20.8746848,11.7241049 20.8746848,11.8050356 C20.8746848,12.2977601 21.4862264,11.8631832 21.8074772,11.1422887 C22.0731333,10.5461907 21.8194617,9.61514869 21.3407481,9.42948434 C21.2172413,9.38153807 21.0564495,9.26864331 20.9832109,9.17853146 C20.8407287,9.0030685 20.5750726,8.95580233 20.5750726,9.10576196 M16.8788576,9.56244177 C16.8788576,10.0660478 17.508376,10.7495373 17.9727748,10.7495373 C18.22112,10.7495373 18.0543359,10.3476047 17.723098,10.1476584 C17.5180301,10.0242223 17.3069701,9.78347074 17.2224129,9.5763836 C17.0373191,9.12378432 16.8788576,9.11732347 16.8788576,9.56244177 M30.8644191,9.46110852 C30.8644191,9.53795856 30.6586855,9.79469219 30.4073442,10.0313632 C30.1350301,10.2877568 29.9725737,10.5193271 30.0048652,10.6053584 C30.0910869,10.8352285 30.2395614,10.7774209 30.7166105,10.3282221 C31.1816751,9.89058474 31.3501237,9.32101013 31.0142252,9.32101013 C30.9316654,9.32101013 30.8644191,9.38391839 30.8644191,9.46110852 M26.5087245,9.50123378 C25.9334692,9.89364517 26.084274,11.5251789 26.7284401,11.877125 C26.9498202,11.9985209 26.9944291,11.9781183 27.3136825,11.6084898 C27.7977225,11.0484364 27.6718854,10.7267543 27.1146068,11.0997832 C26.7780425,11.3248926 26.6601951,11.2252596 26.6608609,10.7151928 C26.6608609,10.4815822 26.6555345,10.1755421 26.6485435,10.0351037 C26.6415526,9.89500533 26.6705151,9.69981979 26.7131265,9.60154692 C26.7926902,9.41656268 26.6998105,9.37065667 26.5087245,9.50123378 M28.7831135,10.2534123 C28.8014232,10.3860297 28.8613456,10.4829424 28.9162744,10.4690005 C29.0637502,10.4312556 29.0377839,10.1105936 28.8829842,10.0578867 C28.791769,10.0266026 28.7601433,10.0881506 28.7831135,10.2534123 M12.9079981,10.2047859 C12.6566568,10.3084995 12.7781662,10.5455106 13.0827719,10.5455106 C13.40602,10.5455106 13.5028946,10.3081595 13.2245882,10.1993452 C13.1377007,10.1650007 13.0591358,10.1408576 13.0498145,10.1452782 C13.0404932,10.1496987 12.9769089,10.1765622 12.9079981,10.2047859 M34.7114389,10.2768754 C34.5310059,10.411533 34.5323375,10.4207142 34.748724,10.5390497 C35.0107182,10.6822085 35.2840311,10.5247678 35.1931487,10.2829962 C35.1242379,10.0993721 34.9517945,10.0973318 34.7114389,10.2768754 M18.4415013,11.4666913 C18.2847043,11.5146375 18.0822997,11.6197113 17.9920831,11.6996218 C17.9018666,11.7798723 17.7756966,11.8628431 17.7114464,11.884266 C17.5796171,11.9281317 16.3718473,12.9968917 15.9563851,13.4372494 C15.6730852,13.7375088 15.6777458,13.8092581 16.0096495,14.2632176 C16.147804,14.4519423 16.164782,14.4427611 16.4028072,14.0574907 C16.7916372,13.4287483 16.9051569,13.3648199 17.2051019,13.6059115 C17.5906029,13.9156921 18.0959487,13.8163991 17.7270929,13.5035581 C17.6325486,13.4236476 17.5782855,13.1964978 17.5782855,12.8833168 C17.5782855,12.2467534 17.7364141,12.1556215 18.7790643,12.1920063 C19.6635859,12.2229503 19.7271703,12.1954067 19.6352892,11.8220378 C19.5364172,11.4201051 19.0583694,11.2779665 18.4415013,11.4666913 M28.6915654,11.472132 C28.4075996,11.5591834 28.3669855,11.6152907 28.3669855,11.9209908 L28.3669855,12.2702165 L29.1972441,12.2103687 C30.2981522,12.1307983 30.4646034,12.22023 30.4646034,12.8897777 C30.4646034,13.1652138 30.4196616,13.418887 30.3647327,13.4535715 C30.3098038,13.4882561 30.264862,13.5827885 30.264862,13.663719 C30.264862,13.8585646 30.6546906,13.8534639 30.7282621,13.6575982 C30.8697456,13.2808289 31.3381392,13.5270212 31.7256376,14.182287 C31.8348296,14.3665911 31.8438179,14.3665911 32.0505503,14.1775264 C32.3914423,13.8657055 32.3135432,13.7082649 31.3607766,12.7819836 C30.1413552,11.5965883 29.4282783,11.2466824 28.6915654,11.472132 M19.4561878,13.0744219 L18.487109,13.1036657 L18.4857773,13.6868421 C18.4744587,18.8099533 18.4681335,18.7552061 19.076679,18.838517 C19.3050501,18.8698011 19.5703733,18.968074 19.6665821,19.0571656 C19.9448884,19.3142393 19.9768471,19.2588121 19.9575387,18.5501592 C19.9352343,17.7190904 20.2658063,17.2766924 20.9356059,17.2416678 C21.4346265,17.2154844 21.5741126,17.1226522 21.5741126,16.815932 C21.5741126,16.6380887 21.6863007,16.4959501 21.9715981,16.311986 C22.2675483,16.120881 22.452642,15.8794494 22.694995,15.3666621 C22.8737635,14.9878525 23.0338895,14.6495082 23.0502018,14.6151637 C23.0668469,14.5804792 22.943673,14.5240318 22.776556,14.4900273 C22.4849336,14.4305195 22.4729491,14.4073965 22.4716174,13.8898487 C22.4689542,12.9958716 22.4296718,12.9849902 19.4561878,13.0744219 M25.6917821,13.2165605 C25.6248687,13.2852495 25.5699398,13.4899563 25.5699398,13.6712001 C25.5699398,14.1455622 25.4171376,14.4886671 25.1774479,14.5525955 C24.9510743,14.6131234 24.9770407,14.8365327 25.2473574,15.1585549 C25.3275869,15.2544474 25.4237957,15.4839775 25.4607478,15.6686217 C25.5120148,15.9253554 25.627199,16.060353 25.9484498,16.2415968 C26.179817,16.3721739 26.3689055,16.5381156 26.3689055,16.6105451 C26.3689055,16.9114845 26.779707,17.2800928 27.1152727,17.2800928 C27.6642286,17.2800928 28.0880134,17.8585086 28.0557218,18.5654612 C28.0267593,19.2030448 28.0936727,19.3179798 28.3540024,19.0775683 C28.4572021,18.9820158 28.7162001,18.8759219 28.9289248,18.8415774 C29.4339377,18.7599667 29.4619015,18.7024992 29.4665621,17.739153 C29.4688924,17.2902942 29.5121697,16.3738741 29.5631038,15.7026262 C29.6266881,14.8603358 29.6226933,14.442081 29.5494548,14.3519692 C29.4911969,14.2802198 29.4675608,14.0717725 29.4965233,13.8884885 C29.5254858,13.7055446 29.5644354,13.4637729 29.5824121,13.3515582 C29.6233591,13.1002652 25.9311389,12.9724085 25.6917821,13.2165605 M5.94734238,13.6970434 C5.91704829,13.74703 6.03822474,13.8106183 6.21599463,13.8381619 C6.57985689,13.8946093 6.63878061,13.8725064 6.54390347,13.7154059 C6.46433978,13.5838086 6.02390993,13.5702068 5.94734238,13.6970434 M41.4989855,13.7154059 C41.4630319,13.7752537 41.4510475,13.8422424 41.4726862,13.8643453 C41.5412639,13.9343945 41.9527313,13.7908957 41.9527313,13.6967034 C41.9527313,13.5691867 41.5782161,13.5844887 41.4989855,13.7154059 M6.99631776,14.3975352 C7.02361575,14.6964343 7.17541925,14.8633962 7.18207732,14.6015619 C7.18573924,14.4471817 7.14412643,14.3206851 7.08919754,14.3206851 C7.03426865,14.3206851 6.99232293,14.3553697 6.99631776,14.3975352 M16.4960198,15.205141 C16.266983,15.6356374 16.0798919,16.0375701 16.0798919,16.0987781 C16.0798919,16.1599861 15.9677038,16.4252209 15.8308809,16.6877352 C15.5279397,17.2692114 15.5598984,17.3698646 16.1744362,17.7765579 C17.0726068,18.3712958 17.6814852,17.9965667 17.6738285,16.854017 C17.6625098,15.1966399 17.4564432,14.4230386 17.0263333,14.4230386 C16.9634148,14.4230386 16.7250567,14.7749846 16.4960198,15.205141 M30.5864457,14.5505552 C30.4333106,14.7413202 30.3231199,17.2705716 30.4529518,17.6119763 C30.7106183,18.289005 31.4253597,18.3199491 32.1547487,17.686106 C32.5489051,17.3436812 32.5232717,17.0951086 31.9906279,16.098438 C31.8381586,15.8134807 31.6294288,15.4231095 31.5268949,15.2309844 C31.1500494,14.525392 30.8064941,14.2768194 30.5864457,14.5505552 M40.7539499,14.6838527 C40.7539499,14.8321121 40.7972272,14.9178034 40.8538206,14.8820987 C40.9087495,14.8474141 40.9536913,14.7297587 40.9536913,14.6209445 C40.9536913,14.5121302 40.9087495,14.4230386 40.8538206,14.4230386 C40.7988917,14.4230386 40.7539499,14.5403539 40.7539499,14.6838527 M43.5000617,14.6522286 C43.4438009,14.7831457 43.293662,14.8967206 43.1515129,14.9161031 C42.4590758,15.0109756 42.171781,15.7655344 42.5522884,16.4901693 C42.6621464,16.6996368 42.7520299,16.9896948 42.7520299,17.1348938 C42.7520299,17.6895065 43.0423208,17.2994754 43.6485361,15.9307961 C43.7936813,15.6029931 43.8522722,15.2955929 43.8312995,14.9694901 C43.7976764,14.4383405 43.6518652,14.2989223 43.5000617,14.6522286 M4.15965667,14.5920407 C3.94327012,14.8130696 4.10539356,15.3993064 4.81147951,16.9482094 C5.06515113,17.5052023 5.09877427,17.4956811 5.35477617,16.7938291 C5.7792267,15.6301967 5.59479879,14.9331053 4.86241357,14.9331053 C4.74822805,14.9331053 4.55847372,14.8409533 4.44095919,14.7280585 C4.32344461,14.6151637 4.19694174,14.5539557 4.15965667,14.5920407 M41.6138368,14.7882464 C41.5269494,15.0201568 41.5389338,15.1582148 41.6411347,15.0936064 C41.759648,15.0187966 41.8545251,14.6270653 41.7543214,14.6270653 C41.7103784,14.6270653 41.6471269,14.6994948 41.6138368,14.7882464 M23.6717305,15.2700895 C23.4426937,15.3894451 23.4220537,15.4567739 23.4220537,16.0882367 C23.4220537,16.884961 23.2975482,17.0451221 22.85845,16.8132117 C22.4972509,16.6224467 22.4453182,16.6285675 22.292516,16.8781602 C22.1180751,17.1634576 22.2276,17.4545357 22.5791449,17.6402 C22.9373479,17.8296048 23.1980104,18.2155554 23.1154507,18.4352241 C23.0308934,18.6603336 22.7222929,18.7426244 22.4729491,18.6066066 C22.0514946,18.3760564 21.532167,18.8878235 21.9050176,19.1663199 C22.1946427,19.3825883 22.8727648,20.2854065 22.8727648,20.4544087 C22.8727648,20.6285115 22.507238,20.8196165 22.0734662,20.8719834 C21.494549,20.9423726 21.8644035,21.7547391 22.9752987,22.8520628 C23.6490931,23.51787 23.7965689,23.8477132 23.5149335,24.0582008 C23.3431559,24.1867376 23.3474836,24.2102007 23.6028197,24.5199813 C23.9460421,24.9365359 23.9813297,25.65539 23.6717305,25.9260655 C23.2822347,26.2664501 23.4104021,26.4633359 24.0216109,26.4633359 C24.655457,26.4633359 24.6990672,26.3742442 24.321223,25.8512557 C23.9946458,25.3989965 24.0059645,25.0640526 24.3648332,24.5658873 C24.5722314,24.2775295 24.6311551,24.1149882 24.5659063,24.0099145 C24.3448591,23.6528677 24.4706962,23.3764115 25.1611357,22.7004029 C26.2297523,21.6540859 26.524038,20.7672497 25.7823315,20.8277776 C25.030638,20.8893257 24.989691,20.4710708 25.6688118,19.6607447 C26.3652436,18.8296758 26.3109805,18.3852376 25.5429747,18.6259891 C25.1338377,18.7541859 24.8705119,18.6253091 24.8705119,18.296826 C24.8705119,18.1261237 25.3948332,17.5861329 25.5606185,17.5861329 C25.6022313,17.5861329 25.695444,17.4728981 25.7676838,17.3344999 C25.9804085,16.9288268 25.7633561,16.7499634 25.1581396,16.8319141 C24.5755604,16.9111445 24.4330782,16.7023571 24.6028584,16.0192076 C24.7589897,15.3904653 24.2413264,14.9739107 23.6717305,15.2700895 M41.5532483,16.4007376 C41.5532483,16.5969433 41.5981903,16.7860081 41.6531191,16.8206926 C41.712376,16.8580976 41.7529898,16.7387419 41.7529898,16.5265541 C41.7529898,16.3303484 41.7080483,16.1412836 41.6531191,16.1065991 C41.5938626,16.0691942 41.5532483,16.1885499 41.5532483,16.4007376 M32.962037,16.5146526 C32.962037,16.7186793 33.0119724,16.769686 33.2120467,16.769686 C33.5023375,16.769686 33.5376252,16.5959232 33.2869497,16.4017577 C33.0319465,16.2041919 32.962037,16.2283351 32.962037,16.5146526 M40.7010184,16.3667332 C40.6154625,16.5081917 40.7319783,17.151896 40.8578154,17.2314665 C40.9137431,17.2668311 40.9536913,17.1005493 40.9536913,16.8329342 C40.9536913,16.3793148 40.8308504,16.1521651 40.7010184,16.3667332 M6.156738,16.5833416 C6.09481814,16.8247732 6.14808252,16.9737127 6.29589119,16.9737127 C6.34749107,16.9737127 6.38976965,16.8359947 6.38976965,16.6676726 C6.38976965,16.3130062 6.2396307,16.258599 6.156738,16.5833416 M7.05191247,16.5925227 C6.96236175,16.9332474 6.97700943,17.3821062 7.07754596,17.3821062 C7.25698036,17.3821062 7.36650523,16.5248539 7.20038692,16.4197801 C7.15178318,16.3891761 7.0848698,16.4667063 7.05191247,16.5925227 M14.6876942,16.457525 C14.5681822,16.5347152 14.5661848,16.5772208 14.6760426,16.7122185 C14.7762462,16.8359947 14.8401635,16.8468761 14.9443619,16.7584645 C15.2489676,16.5003707 15.025923,16.2388764 14.6876942,16.457525 M41.9527313,17.4269921 C41.9527313,17.56403 41.9976733,17.7044684 42.0526021,17.739153 C42.11086,17.7758778 42.1524728,17.6721642 42.1524728,17.4899003 C42.1524728,17.3185179 42.1075309,17.1780795 42.0526021,17.1780795 C41.9976733,17.1780795 41.9527313,17.2899541 41.9527313,17.4269921 M5.79054537,17.6432604 C5.79054537,17.7911798 5.83382268,17.876871 5.89041608,17.8411663 C5.94534497,17.8064818 5.99028683,17.6888264 5.99028683,17.5800121 C5.99028683,17.4711979 5.94534497,17.3821062 5.89041608,17.3821062 C5.83548719,17.3821062 5.79054537,17.4994216 5.79054537,17.6432604 M20.6949175,18.014589 C20.5138186,18.1995733 20.5491062,18.3923786 20.8247494,18.7269824 C21.1623124,19.1370761 21.140008,19.2870358 20.7088994,19.4985434 C20.0953603,19.7994829 20.1166661,20.5452006 20.7388606,20.5452006 C21.1083822,20.5452006 21.0734275,20.9372719 20.6752762,21.2592941 C20.2005575,21.6432044 20.3160746,21.975768 20.9995232,22.1930565 C21.4106576,22.3236336 21.5118599,22.6483761 21.2189058,22.8966086 C20.7142258,23.3247247 20.8880009,23.8300309 21.5954184,23.9929123 C21.8311133,24.0473194 22.1020958,24.1251896 22.1983046,24.1659949 C22.633408,24.3509791 22.4113621,23.3998745 21.8773867,22.7901747 C21.184284,21.998551 20.9775516,21.0879117 21.3743712,20.5730842 C21.6290415,20.2422209 21.6267112,19.9892278 21.3657158,19.6148387 C21.201262,19.3785077 21.1716337,19.2319485 21.2245651,18.9126467 C21.3550629,18.1220431 21.0674352,17.6340792 20.6949175,18.014589 M26.8592707,18.0570946 C26.7647264,18.1737299 26.7264427,18.4382846 26.7427549,18.8650405 C26.7620632,19.3710268 26.7261098,19.5522705 26.5659837,19.7603778 L26.3652436,20.0211919 L26.5806314,20.4435272 C26.7640606,20.8032944 26.7876967,20.9729766 26.7374284,21.5826765 L26.6788376,22.2994904 L26.9365041,22.2331817 C27.6485822,22.0509178 27.9102435,21.4677414 27.3666139,21.2742561 C26.8835726,21.1021935 26.8825739,20.8811646 27.3636178,20.4581492 C27.8962616,19.9895678 27.8979261,19.6607447 27.3692771,19.4866419 C26.9448266,19.3465435 26.8849042,19.1149732 27.1678712,18.70896 C27.5247425,18.197193 27.2374478,17.5905535 26.8592707,18.0570946 M40.2912156,18.32743 C40.2436106,18.4121011 40.0288885,18.5668214 39.8141665,18.6715551 C38.987237,19.0738278 39.1370431,19.632861 40.3801005,20.7869722 C41.2922531,21.6333431 41.3065679,21.6415042 41.4450553,21.3769495 C41.5532483,21.1708826 41.4344024,20.7376658 41.1005013,20.121165 C41.0199389,19.9722255 40.9536913,19.7879214 40.9536913,19.7117514 C40.9536913,19.6352414 40.8638077,19.4016308 40.7539499,19.1921633 C40.6440921,18.9826959 40.5535427,18.7307229 40.552544,18.63245 C40.5502137,18.32709 40.3940824,18.1451662 40.2912156,18.32743 M7.43541602,18.6831166 C7.4041232,18.8374969 7.31623694,19.1013714 7.24033522,19.2696935 C6.29089767,21.372869 6.26326677,22.1641526 7.17209024,21.2082874 C7.37349616,20.9964397 7.68209666,20.7111423 7.85786914,20.5741044 C8.71808882,19.9038765 8.99739393,18.9864364 8.41281737,18.7518056 C8.20675081,18.6691748 7.96007012,18.5566201 7.86486007,18.5018729 C7.58921689,18.3437522 7.49667002,18.3828573 7.43541602,18.6831166 M12.2481856,20.6951602 C11.9788676,20.9036075 12.0760751,21.0790705 12.3756872,20.9246903 C12.6476684,20.784932 12.7701765,20.5435003 12.5667731,20.548601 C12.4935347,20.5503012 12.3503866,20.6162699 12.2481856,20.6951602 M13.7821998,20.9481534 C13.5348532,21.1188557 13.2448953,21.3276431 13.1373678,21.4119741 C13.0301732,21.4966452 12.9056678,21.5656743 12.860726,21.5656743 C12.7392166,21.5656743 11.9522354,22.1032847 11.8154125,22.2797678 C11.5334442,22.6432755 11.8949762,22.723526 12.7961429,22.4980764 C15.4370574,21.8377099 16.7267212,22.1655129 16.9118149,23.5440534 C16.9474355,23.8099683 17.1315305,24.3485988 17.3206191,24.7406702 C17.5097076,25.1327415 17.6941355,25.5914617 17.7304219,25.7597837 C17.8679105,26.4004276 18.0280366,26.0012153 18.0050663,25.075274 C17.9441452,22.647696 17.8742357,22.0692802 17.6295524,21.9744078 C17.5040482,21.9254414 17.1208776,21.6299427 16.7779882,21.3174418 C16.21272,20.8022742 16.1115176,20.7492273 15.6927265,20.7485472 C15.438389,20.7478671 15.0059488,20.7227038 14.7313044,20.6927799 C14.2918733,20.6444936 14.1773548,20.6750976 13.7821998,20.9481534 M32.4726705,20.7230439 C31.8554695,20.7584085 31.8125251,20.7794913 31.2239537,21.326963 C30.888721,21.6387838 30.5165361,21.9410835 30.3963584,21.9982109 C30.1230456,22.128788 30.0904211,22.3477767 30.0058639,24.6012519 C29.9319596,26.5660293 30.0551335,26.9961857 30.3137986,25.6798733 C30.3490863,25.5013499 30.4422989,25.3003835 30.5211968,25.2333947 C30.6000947,25.166746 30.6646777,25.0232472 30.6646777,24.9151131 C30.6646777,24.8069789 30.7532298,24.548545 30.861423,24.3407778 C30.9696163,24.1333507 31.0838018,23.7531808 31.1147617,23.4961071 C31.1597036,23.1244385 31.253582,22.9462551 31.5721696,22.6286535 L31.973317,22.2287611 L33.1421372,22.2325016 C34.0266588,22.235562 34.5369981,22.2943897 35.2417524,22.4752934 C36.6469334,22.8360807 36.6249618,22.2086985 35.2097938,21.5643141 C34.9900782,21.464341 34.5856018,21.2171286 34.3109574,21.0148021 C33.9371081,20.7397061 33.7240505,20.6523146 33.4620563,20.6669365 C33.2693059,20.6778179 32.8242154,20.7029812 32.4726705,20.7230439 M28.3669855,21.5697548 C28.3669855,21.9740678 28.3047328,22.1651728 28.062047,22.5072576 C27.8047134,22.8704252 27.7674284,22.9965817 27.8210257,23.3220043 C27.901588,23.8089481 27.6102984,24.3281961 27.0563489,24.685583 C26.6102597,24.9732607 26.5979423,25.0174665 26.868592,25.3687325 C27.2783948,25.9009022 27.0363748,26.1861996 26.1648364,26.1981011 C25.5576224,26.2066022 25.4251273,26.3157566 25.7197459,26.5653492 C25.8239443,26.6537608 25.869552,26.8883916 25.869552,27.33453 L25.869552,27.9765341 L25.3815171,28.342422 C23.8558255,29.486672 21.1473318,27.9945565 22.3291352,26.6609018 C22.5974545,26.3582621 22.4599658,26.2314255 21.832112,26.2032018 C21.0254895,26.166477 20.8770151,26.0039357 21.1286893,25.433341 L21.317112,25.006585 L20.9748884,24.7144868 C20.7864657,24.5539857 20.6047009,24.4227285 20.5710778,24.4227285 C20.4129492,24.4227285 20.0420959,23.395794 20.1576131,23.2777985 C20.3397106,23.0917942 20.3004282,22.9282327 19.9851696,22.5616647 C19.796414,22.3416559 19.670244,22.0556784 19.6243034,21.7418173 C19.5364172,21.144019 19.4731658,21.1419788 19.0383953,21.723795 C18.7640837,22.090703 18.7008323,22.2566448 18.7371186,22.5147386 C18.7624192,22.6942821 18.8200113,23.6674896 18.8646202,24.677762 C18.9954509,27.6286685 19.1675614,27.8425565 22.2732076,28.9130168 C24.0236083,29.5159158 24.9570666,29.4706899 26.2723638,28.7195314 C26.3565881,28.6715852 26.5763037,28.5984756 26.7607316,28.5569901 C27.9318822,28.2944758 28.849694,27.4385837 29.0071568,26.4633359 C29.0387825,26.2671302 29.1100237,25.4176989 29.1652855,24.5757486 C29.2205472,23.7337983 29.2921212,22.884367 29.3240799,22.6881613 C29.3726836,22.3902823 29.3197521,22.2338618 29.0054923,21.7475981 C28.4974833,20.9620952 28.3669855,20.9257104 28.3669855,21.5697548 M36.0590278,21.1569407 C36.0590278,21.3014597 36.4362062,21.4810032 36.5041182,21.3687885 C36.5643736,21.2688154 36.5210963,21.2297102 36.2338015,21.1253166 C36.1375927,21.090292 36.0590278,21.1045739 36.0590278,21.1569407 M11.5304481,21.2664351 C11.4941617,21.3262829 11.4851733,21.395992 11.5101411,21.4218354 C11.5800505,21.4929047 11.8843233,21.3521263 11.8843233,21.2484127 C11.8843233,21.120896 11.6100118,21.1344978 11.5304481,21.2664351 M10.8113789,21.693191 C10.6376039,21.9183005 10.5823421,22.3596783 10.6908683,22.6521166 C10.8207002,23.0006622 10.9811592,22.8177183 10.9834895,22.3178528 C10.9844882,22.1423898 11.0524003,21.9414235 11.1349601,21.8717143 C11.2175199,21.8020052 11.2847661,21.7044125 11.2847661,21.655106 C11.2847661,21.5190882 10.9232341,21.548332 10.8113789,21.693191 M36.7581227,21.7061127 C36.7581227,21.7836428 36.8257019,21.9040186 36.9079288,21.9737277 C36.9904886,22.0437769 37.0577349,22.1906761 37.0577349,22.3008506 C37.0577349,22.5660853 37.2984233,22.4803941 37.3387045,22.2005374 C37.3560154,22.0815219 37.3207277,21.8900768 37.2604724,21.7748017 C37.1376315,21.5405109 36.7581227,21.4884841 36.7581227,21.7061127 M26.3689055,22.4582912 C26.3689055,22.5004567 26.1891382,22.7415483 25.9697556,22.9942014 C25.7001046,23.303982 25.5769308,23.5372526 25.5899139,23.7113554 C25.6002339,23.8531539 25.5749334,24.0255565 25.5336535,24.0939055 C25.4837181,24.1761962 25.5259967,24.2187018 25.6578261,24.2187018 C25.7680167,24.2187018 25.8818694,24.1789166 25.9111648,24.1302902 C25.9404602,24.0816638 26.1471926,24.0170554 26.37057,23.9864514 C27.0666689,23.8912389 27.2700722,23.4944069 26.88557,22.9822999 C26.7850335,22.8486623 26.6738441,22.6585774 26.6388893,22.5606446 C26.5763037,22.3855217 26.3692384,22.3073114 26.3689055,22.4582912 M32.6880584,22.9955616 C32.0538793,23.1414407 31.6374185,23.8738967 31.8488115,24.471695 C31.9157248,24.6600796 32.0155955,25.3486699 32.0711903,26.0015554 C32.1267849,26.654781 32.2136725,27.3008656 32.2646065,27.4375635 C32.8165586,28.9204978 32.286911,29.7971326 31.0877967,29.3856787 C30.6307217,29.2285781 30.6087501,29.2302784 30.4396357,29.4363454 C30.073776,29.8824838 30.3870371,30.5666534 30.8234721,30.2745552 C31.1563745,30.051826 32.3438373,30.1415977 32.7389924,30.4194142 C33.739364,31.1229663 34.2756697,30.8118256 33.8155987,29.7950924 C33.3292283,28.7198715 33.1371436,26.9111746 33.4540667,26.3909064 C33.8964939,25.6649113 34.8332812,25.4853678 35.3968849,26.0188977 C35.7500943,26.3538416 35.6785204,26.4300115 34.960117,26.4830585 C34.2390505,26.5364455 34.1578223,26.6051344 34.131523,27.1838903 L34.1108831,27.6296887 L34.5922599,27.7024582 C34.9175055,27.7514246 35.1498714,27.8592187 35.3093316,28.0350218 C36.2667588,29.09018 37.4628771,26.2113629 36.6352817,24.8437037 C36.4718267,24.5737083 36.4119043,24.3169747 36.4119043,23.8874984 C36.4119043,23.3005816 36.4115714,23.3002415 36.1066328,23.3002415 C35.8562902,23.3002415 34.6728223,23.1574228 33.261982,22.9564564 C33.1244933,22.9370739 32.8661611,22.9547562 32.6880584,22.9955616 M13.6676813,23.0931544 C13.5225359,23.1380403 12.9942198,23.2080894 12.4938676,23.2485547 L11.5843783,23.3220043 L11.5840454,23.8976998 C11.5837125,24.3305765 11.5224584,24.5750685 11.3373647,24.8817887 C10.5184249,26.2399266 11.7787933,29.0279518 12.7721739,28.0557645 C12.9546044,27.8772411 13.2126038,27.7527848 13.4739322,27.7170801 C13.9726199,27.6487312 14.0168959,27.5878632 13.9336703,27.0852774 C13.8557712,26.6149957 13.5987705,26.4633359 12.8783698,26.4633359 C12.1003769,26.4633359 12.3770188,25.868938 13.2315792,25.7050365 C14.4080562,25.479587 15.1141421,26.929537 14.5814983,28.4777598 C14.4713077,28.7970616 14.381424,29.1649898 14.381424,29.2955669 C14.381424,29.426144 14.2875455,29.7213027 14.1723613,29.9515129 C13.7269379,30.8434497 14.1167666,31.0379552 15.2413108,30.4853828 C16.0662429,30.0800497 16.6677975,30.0144211 17.1764723,30.273535 C17.6778233,30.5289085 17.982429,29.9073071 17.5952635,29.4186631 C17.4134988,29.189473 17.4101698,29.189133 16.9504316,29.3686765 C15.7799469,29.8253563 15.3308616,29.2071553 15.7300115,27.6878363 C15.8112397,27.3794159 15.8788189,26.8513267 15.8801505,26.5143426 C15.8811492,26.1776984 15.9487284,25.6496093 16.0299566,25.3411889 C16.5326391,23.4280982 15.5652249,22.5075976 13.6676813,23.0931544 M22.9932755,25.0545313 C22.9167079,25.1327415 22.9133789,25.227614 22.9822897,25.3595513 C23.1001371,25.5846608 23.2722477,25.5132514 23.2722477,25.2388354 C23.2722477,24.9960437 23.1377551,24.906952 22.9932755,25.0545313 M24.7706412,25.182048 C24.7706412,25.2629786 24.8105895,25.3541106 24.8591933,25.3850546 C24.9693839,25.4544237 25.1930943,25.1942896 25.1028778,25.1021376 C24.9840316,24.9807416 24.7706412,25.0320884 24.7706412,25.182048 M21.8737248,25.4942089 C21.8737248,25.5877212 21.9219956,25.647569 21.9812522,25.6275064 C22.040176,25.6074438 22.0884468,25.5472559 22.0884468,25.4942089 C22.0884468,25.4408219 22.040176,25.380634 21.9812522,25.3605714 C21.9219956,25.3405088 21.8737248,25.4006967 21.8737248,25.4942089 M25.8888603,25.4506832 C25.9085015,25.5112112 25.9670923,25.5605176 26.019358,25.5605176 C26.0716237,25.5605176 26.1305474,25.5112112 26.1501887,25.4506832 C26.1698299,25.3904953 26.1109062,25.3411889 26.019358,25.3411889 C25.9278099,25.3411889 25.8688861,25.3904953 25.8888603,25.4506832 M16.8409067,25.6275064 C16.7257225,25.8175913 16.4973515,27.1743691 16.5472868,27.3698946 C16.6105383,27.617107 17.099239,27.4341631 17.2174193,27.1192818 C17.3552409,26.7527138 17.0033631,25.3588712 16.8409067,25.6275064 M30.9922536,25.7672647 C30.7635497,26.0515419 30.7302595,27.0101275 30.939988,27.2743421 C31.2838761,27.708239 31.5012614,27.4936708 31.4383428,26.7822977 C31.3740927,26.0610632 31.1557087,25.563918 30.9922536,25.7672647 M18.050674,27.2855636 C17.9810973,28.0680061 17.8472706,28.1982432 17.1132209,28.1982432 C16.7030851,28.1982432 16.5642649,28.2400686 16.4876973,28.3866278 C16.3608615,28.6287395 16.5412946,28.838207 16.7693327,28.7137507 C17.1867923,28.4855808 17.8572577,28.4770797 18.0423514,28.6977686 C18.1412234,28.8157641 18.2710553,28.9123367 18.3309777,28.9123367 C18.7094877,28.9123367 19.0011102,29.5057144 18.9584987,30.189544 L18.9162201,30.868273 L19.2211587,30.8057047 C19.5710391,30.7336153 22.1064235,30.5642731 23.0725062,30.548291 L23.7216659,30.5377497 L23.4220537,30.2867968 C23.257267,30.1487387 22.9649788,30.0055799 22.7728941,29.9688551 C22.5804765,29.9321303 22.2282658,29.8171953 21.9902406,29.7131416 C21.7522154,29.609428 21.4825645,29.5230567 21.3910164,29.5210165 C21.2994682,29.5193162 21.044465,29.4288644 20.8247494,29.3203902 C20.6050338,29.212256 20.3616822,29.1218042 20.2841159,29.1201039 C19.6569279,29.1044619 18.3772511,27.7827087 18.3772511,27.1502259 C18.3772511,26.5748705 18.1036054,26.6881053 18.050674,27.2855636 M29.6623087,27.204633 C29.2991122,28.1543774 28.3420179,29.1143232 27.7554439,29.1170435 C27.6795421,29.1173836 27.485793,29.1881129 27.3246682,29.2738041 C27.1632106,29.3598353 26.8712552,29.4706899 26.6751757,29.5206764 C26.0822766,29.6713162 24.8698461,30.1256156 24.6594518,30.2762554 C24.3471894,30.4996647 24.61451,30.5540718 26.5187116,30.6523447 C27.4528357,30.700631 28.3896229,30.7914229 28.600683,30.8539911 C29.0790637,30.9961297 29.310098,30.9247204 29.1845938,30.6741075 C28.6090056,29.5244169 29.8460708,28.1519971 31.0098975,28.6488022 C31.4939375,28.8555493 31.7802336,28.7028692 31.5005956,28.387648 C31.3767559,28.2475496 31.1919951,28.1982432 30.7938438,28.1982432 C30.2132621,28.1982432 29.9652498,27.9109055 29.9652498,27.2379574 C29.9652498,26.8530269 29.8037922,26.8350046 29.6623087,27.204633 M9.88624329,27.2223153 C9.74875461,27.3015457 9.23209012,27.4906105 8.7373972,27.6422703 C8.24303714,27.7939302 7.72603979,27.9751739 7.58855111,28.0448831 C7.45139534,28.1145922 7.17774958,28.2013036 6.98100426,28.2373483 C6.50262357,28.3250798 5.94867402,28.8511287 5.69600109,29.4574281 C5.45031918,30.0467253 5.50191902,30.188864 5.88675416,29.9858574 C7.0559073,29.3679964 8.58759112,30.1014725 8.58759112,31.2790468 C8.58759112,32.2570149 7.22069398,32.9262226 6.44569727,32.3274041 C6.17870957,32.120997 5.49792419,32.1407196 5.16602052,32.3641289 L4.89071029,32.5494532 L5.57948529,32.6582674 C6.54423633,32.8109474 7.11549685,33.2944908 7.32156341,34.1337207 C7.41477605,34.5121903 7.58755238,34.5390538 8.12752003,34.2595372 C8.38784971,34.1245395 8.64584902,34.0143651 8.700445,34.0143651 C8.78866417,34.0143651 9.34394532,33.7746337 10.2357908,33.3509382 C10.4005774,33.2727279 10.6928657,33.1628936 10.8852833,33.1067862 C11.077368,33.0510189 11.5494235,32.8847371 11.9342587,32.7378379 C12.6909457,32.4488 13.6393846,32.1430999 14.4313594,31.9326124 C14.9533503,31.7938742 14.916731,31.7319861 14.2455999,31.6177311 C13.40602,31.4745724 13.099084,30.4921837 13.5884505,29.5128554 C13.9952572,28.6977686 13.6160814,28.3060373 13.0411591,28.9473613 C12.4033181,29.6583944 10.8330176,28.6991288 10.4897953,27.3885971 C10.4082342,27.0767762 10.2258037,27.0264496 9.88624329,27.2223153 M37.4166037,27.6269683 C36.9645222,28.8358267 35.3819043,29.7369447 34.9804241,29.01401 C34.7949975,28.6800863 34.5799425,28.5658313 34.3249393,28.6658044 C34.1198714,28.7460549 34.1158766,28.9514419 34.3132877,29.2591821 C35.0503336,30.4085327 34.5283426,31.7255252 33.3671792,31.6459548 C32.7563033,31.6044694 32.7270079,31.8275386 33.3312257,31.9200308 C33.5938857,31.960496 33.9214617,32.051628 34.0596161,32.1226973 C34.1977706,32.1941066 34.4883944,32.2852386 34.7051138,32.3253638 C34.9221662,32.3658291 35.1908184,32.4637619 35.3020077,32.5433324 C35.4128643,32.6229028 35.5959606,32.6878513 35.7081487,32.6878513 C35.8203367,32.6878513 36.0796677,32.7796634 36.2847356,32.891878 C36.4898034,33.0040927 36.726497,33.0959048 36.8107213,33.0959048 C36.9655209,33.0959048 37.8640244,33.456012 38.6127218,33.8181594 C38.8360994,33.9259535 39.052153,34.0143651 39.0927671,34.0143651 C39.1333812,34.0143651 39.3644154,34.1061771 39.6061026,34.2187319 C40.3208439,34.5512955 40.4852977,34.5336131 40.5562059,34.1163785 C40.706012,33.2377034 41.3088981,32.7439587 42.3638657,32.6354845 L43.0722818,32.563055 L42.7873175,32.3709298 C42.4454269,32.1407196 41.7686363,32.1179367 41.497321,32.3274041 C41.1148161,32.6229028 40.1177735,32.532451 39.7628996,32.1699635 C38.5498033,30.9308412 40.4593313,29.1537684 42.0892213,30.0048998 C42.5020202,30.2204881 42.5659373,30.059647 42.3162607,29.4305646 C42.0872237,28.853849 41.3585006,28.1982432 40.9463675,28.1982432 C40.8441665,28.1982432 40.6131322,28.1332946 40.4326991,28.0544043 C40.2522661,27.9751739 39.699981,27.7830488 39.205621,27.6273084 C38.7112609,27.4715679 38.2638402,27.3066464 38.2115745,27.2610804 C37.9326023,27.0162483 37.5850522,27.1764093 37.4166037,27.6269683 M23.24728,27.4919706 C22.7925353,27.7626461 23.219982,28.0962298 24.0216109,28.0962298 C24.6814234,28.0962298 25.0153245,27.9262075 24.9094615,27.6439705 C24.8112553,27.3828164 23.6148042,27.273322 23.24728,27.4919706 M44.8862669,28.5719521 C44.9674951,29.1751911 45.2458016,29.6682557 45.5291014,29.7104213 C45.9059471,29.7661886 45.7085357,28.9072361 45.21118,28.3257598 C44.9082386,27.9717735 44.8153586,28.0421627 44.8862669,28.5719521 M2.65427212,28.4277732 C2.46718102,28.7259923 2.26810538,29.5009538 2.34567166,29.6291506 C2.57337688,30.0052399 3.09237164,29.3129092 3.09303828,28.6318 C3.09337037,28.1366951 2.89462765,28.044203 2.65427212,28.4277732 M16.2047303,31.1341878 C15.8611751,31.2127381 15.5802054,31.3246127 15.5802054,31.3831004 C15.5802054,31.548022 16.5695913,31.4150646 16.7556837,31.2249797 C16.9880496,30.9876286 16.904824,30.9736867 16.2047303,31.1341878 M31.0212161,31.0437359 C30.9283364,31.197096 31.209306,31.3558968 31.7619239,31.4630108 C32.4363842,31.593588 32.4626834,31.5925678 32.4626834,31.4290064 C32.4626834,31.2157985 31.1324056,30.8601119 31.0212161,31.0437359 M22.2056285,31.3756194 C22.1054248,31.4160847 21.7988217,31.4521294 21.5241773,31.4555299 C20.6865949,31.4667514 18.9561684,31.6711181 18.4271865,31.8214178 C18.1525421,31.8996281 17.6804865,31.9958607 17.3785441,32.0349658 C17.0762687,32.074411 16.5859035,32.1913863 16.2889546,32.2950999 C15.9920057,32.3988135 15.6404608,32.4838246 15.5082985,32.4838246 C15.3758034,32.4838246 15.1707355,32.5365315 15.0525552,32.60114 C14.9343748,32.6657484 14.5438804,32.7980258 14.1850116,32.8949384 C13.8261428,32.9921912 13.3750601,33.1271889 13.1826426,33.1955378 C12.9905579,33.2635468 12.6982696,33.3659002 12.5334829,33.4226876 C11.7298566,33.6994838 11.4129335,33.8253003 11.1695819,33.9647186 C11.0237707,34.0480295 10.848664,34.1163785 10.7807519,34.1163785 C10.6632374,34.1163785 10.3742781,34.2418549 9.22709656,34.7910268 C8.94679278,34.9250044 8.64584902,35.0348388 8.55862862,35.0348388 C8.47107527,35.0348388 8.37253616,35.0793846 8.33957884,35.1341318 C8.30662151,35.1885389 8.09023496,35.2817112 7.85920073,35.3408789 C7.62783359,35.4003867 7.31490535,35.5190622 7.16310185,35.6050935 C6.88579421,35.7628742 6.28856735,35.8958316 5.31016726,36.0185877 C4.70661525,36.0940776 3.81943044,35.9315363 3.28678663,35.6479391 C2.82172202,35.4007267 2.7321713,35.4745164 2.60799871,36.2086725 C2.1139716,39.1310154 2.27143439,39.8886347 3.49252033,40.4629699 C4.25220354,40.8203567 6.60016395,40.8115156 7.26763321,40.448688 C7.45871918,40.3453145 8.19742955,40.0885809 8.90018646,39.8821738 C9.15485676,39.8077041 9.50074233,39.6733865 9.66952383,39.5842948 C9.83830533,39.4952031 10.0477009,39.4224336 10.1349213,39.4224336 C10.2224746,39.4224336 10.470154,39.3306216 10.6855419,39.2184069 C10.9009297,39.1061922 11.1582632,39.0143801 11.2574681,39.0143801 C11.3563401,39.0143801 11.6053511,38.9225681 11.810419,38.8100133 C12.0154868,38.6977986 12.2761494,38.6059866 12.3896691,38.6059866 C12.5035217,38.6059866 12.8067958,38.5213155 13.0644622,38.4176019 C13.5405126,38.2258168 14.7273096,37.845307 15.1807226,37.7392131 C15.3182113,37.7069088 15.6551085,37.6154369 15.9300858,37.5358664 C16.6844426,37.3168778 17.7627134,37.0621844 18.3772511,36.9571106 C18.6795265,36.9054238 19.2414657,36.7969496 19.625968,36.715339 C22.8917402,36.0247085 27.8995906,36.3773346 32.1131359,37.5946941 C33.1977319,37.9082152 34.1814584,38.2060943 34.5103659,38.3206892 C34.6754855,38.3781568 35.0183749,38.4845907 35.2727123,38.5577003 C35.5270498,38.6304698 35.8732683,38.7630872 36.0420498,38.8521789 C36.2108313,38.9412705 36.4295481,39.0157403 36.5284201,39.0177806 C36.6272921,39.0194808 36.8879547,39.1099326 37.1076702,39.2184069 C37.3277187,39.3268811 37.5664097,39.4169929 37.6386495,39.4190331 C37.7108893,39.4207334 37.9805402,39.5077848 38.2382067,39.6125185 C41.7866129,41.0539673 44.0902975,41.119936 45.135944,39.8104244 C45.5740433,39.2622726 45.6116615,38.6039463 45.3013964,36.9224261 C45.2288236,36.5296746 45.1406047,36.03593 45.104984,35.8254423 C45.0364058,35.4187491 44.8669588,35.3378185 44.6169491,35.5931919 C44.092295,36.1291021 42.1564675,36.1569858 40.8038853,35.6482792 C40.5292408,35.5449056 40.136416,35.4071876 39.9313482,35.342239 C39.7259474,35.2772906 39.5321982,35.181398 39.5009054,35.1293712 C39.4692796,35.0773443 39.3674115,35.0341587 39.2745318,35.0338186 C39.181652,35.0331385 38.8810412,34.9199037 38.6063967,34.7818457 C38.3314194,34.6437876 38.039464,34.5291926 37.9569042,34.5271523 C37.8746773,34.524772 37.6722726,34.4319398 37.507486,34.3204052 C37.3426993,34.2088706 37.1176573,34.1170585 37.0077995,34.1163785 C36.8979417,34.1156984 36.6732326,34.0238864 36.508446,33.9123517 C36.3436593,33.8008171 36.1279386,33.7093451 36.0290665,33.7090051 C35.9301946,33.7086651 35.7111448,33.6352154 35.5423633,33.5461238 C35.3739147,33.4570321 35.0276962,33.3244147 34.7733588,33.2516452 C34.5190214,33.1785356 34.175799,33.0697213 34.0110124,33.0091934 C33.8462257,32.9490056 33.3968075,32.8099273 33.0119724,32.700773 C32.6274701,32.5912787 31.9949556,32.4059544 31.6064585,32.288639 C31.2179615,32.1716637 30.7925122,32.0757711 30.6606829,32.0757711 C30.5288535,32.0757711 30.060127,31.9853193 29.6190314,31.8748048 C28.1582557,31.509597 22.7738928,31.1471095 22.2056285,31.3756194 M22.3364591,32.5205494 C22.5621669,32.7187954 22.6127681,32.8500526 22.6217564,33.2649069 C22.6284145,33.5570052 22.7043162,33.8725665 22.8028553,34.0164054 C23.049203,34.3754924 23.0115851,34.7413803 22.6919988,35.0991072 C21.8863751,35.9998852 20.3157417,35.2793308 20.6732788,34.1731659 C20.754507,33.921533 20.7568373,33.762052 20.6812685,33.6178732 C20.1998916,32.6990728 21.5334986,31.814957 22.3364591,32.5205494 M26.5423476,32.4964062 C27.601643,32.7514397 27.6702209,32.8731756 27.1325836,33.5447636 C26.9481557,33.7749738 26.766058,34.0636716 26.7281072,34.1864277 C26.6099268,34.5689778 25.7254052,35.4581943 25.5366496,35.3844046 C25.3279198,35.3024538 25.3215946,34.9889328 25.5243322,34.753962 C26.650208,33.4498912 26.7224478,33.1560927 25.947784,33.0295961 C25.5439734,32.9636274 25.4038215,32.8068669 25.5060226,32.5348313 C25.5746004,32.3522274 25.8951854,32.3403258 26.5423476,32.4964062 M21.4442807,32.9564865 C21.2638476,33.1407907 21.3743712,33.5182401 21.5990803,33.4855958 C21.7632012,33.4617927 21.8237894,33.3849426 21.8237894,33.1992783 C21.8237894,32.953086 21.5924223,32.8051667 21.4442807,32.9564865 M17.1485085,33.2788487 C17.3142939,33.3866429 17.6731627,34.2190719 17.6758259,34.502329 C17.6771575,34.6305258 17.7903443,34.9620693 17.927833,35.2388655 C18.2314399,35.8506057 18.2390967,36.0141671 17.9711103,36.1607263 C17.5796171,36.3746143 17.3402603,36.0791156 17.1857936,35.1915993 C17.0902506,34.6424274 16.993376,34.3697116 16.8642099,34.2874209 C16.6588091,34.1565037 16.618195,33.7093451 16.7826488,33.395484 C16.8948369,33.181256 16.9640806,33.1591531 17.1485085,33.2788487 M31.1640313,33.2931306 C31.1640313,33.3454975 31.2545807,33.4175869 31.3654372,33.4536316 C31.4762937,33.4896764 31.6603887,33.7059447 31.7745742,33.9344546 L31.9819724,34.3499891 L31.7729097,35.0266777 C31.4400073,36.1042789 30.7512323,36.5303547 29.7764942,36.2620596 C29.0887179,36.0729948 28.8030877,35.3269371 29.391659,35.257568 C29.712244,35.219823 29.702257,35.2524673 29.5271503,34.8175503 C29.1852596,33.9664188 29.7062518,33.2094797 30.6397101,33.2023387 C30.9280035,33.1999584 31.1640313,33.2407638 31.1640313,33.2931306 M43.5509954,33.4046652 C43.5509954,33.4621328 43.6541953,33.5491841 43.7800324,33.5981506 C43.9444862,33.6620789 44.0476861,33.8331214 44.1475568,34.2078505 C44.3303203,34.8937203 44.9308759,34.8923601 44.8323367,34.2064903 C44.7757433,33.8116985 43.5509954,33.0452382 43.5509954,33.4046652 M3.48586226,33.6828217 C2.86932707,34.0017835 2.77278538,34.227233 3.10069421,34.5832596 C3.34571035,34.8498546 3.59272394,34.7689239 3.59272394,34.4217385 C3.59272394,34.173846 3.83141493,33.7263474 4.05579114,33.5525846 C4.36272709,33.3152335 4.06477948,33.3832424 3.48586226,33.6828217 M5.35111425,33.4876361 C5.25357387,33.6484772 5.59979231,34.0143651 5.84913618,34.0143651 C6.16872249,34.0143651 6.2839067,33.7243071 6.03755897,33.540343 C5.83115949,33.3866429 5.4310108,33.3556988 5.35111425,33.4876361 M41.7390079,33.6042714 C41.4753493,33.8297209 41.5975247,34.0096045 42.0163159,34.0126749 C42.2300389,34.0143651 42.5955658,33.5825085 42.4803815,33.4648531 C42.3542114,33.3359762 41.9670463,33.4087457 41.7390079,33.6042714 M30.3284463,34.0218461 C30.0068626,34.2799399 29.9952111,34.4628839 30.2871664,34.6716712 C30.8337921,35.0627225 31.3657701,34.6278055 31.0132265,34.0779534 C30.8058283,33.7549111 30.673999,33.7440297 30.3284463,34.0218461 M21.5311682,34.2768795 C21.303463,34.50947 21.3384177,34.715537 21.6183887,34.7872864 C22.0321863,34.8933803 22.2485729,34.540074 21.9536213,34.2387945 C21.7958256,34.0776134 21.719591,34.0844143 21.5311682,34.2768795 M6.09015753,34.7794653 C5.99860935,34.8923601 5.75559063,34.9328254 5.17068117,34.9328254 C4.57911364,34.9328254 4.3860303,34.9654697 4.4166573,35.0603421 C4.53417183,35.4245298 6.48964035,35.1113488 6.48964035,34.7281186 C6.48964035,34.5733984 6.2303094,34.6070628 6.09015753,34.7794653 M41.2536364,34.7260784 C41.2536364,35.1099886 43.30831,35.42623 43.4264903,35.0603421 C43.4571173,34.9658097 43.2756854,34.9328254 42.7293926,34.9328254 C42.2346995,34.9328254 41.926765,34.8831789 41.7969332,34.7828658 C41.575553,34.6118234 41.2536364,34.5781589 41.2536364,34.7260784 M29.8870178,35.4605745 C29.9109868,35.5350443 30.0557993,35.6108742 30.2086015,35.6292366 C30.4043481,35.6526998 30.4735917,35.6227758 30.4429647,35.5272233 C30.4189958,35.4527535 30.2741832,35.3769236 30.1213811,35.3585612 C29.9256344,35.3350981 29.8563908,35.365022 29.8870178,35.4605745" id="Shape" fill="#D75103"></path>
        </g>
    </g>
</svg>