<?xml version="1.0" encoding="UTF-8"?>
<svg width="48px" height="48px" viewBox="0 0 48 48" version="1.1" xmlns="http://www.w3.org/2000/svg" xmlns:xlink="http://www.w3.org/1999/xlink">
    <title>bhcb</title>
    <g id="Page-1" stroke="none" stroke-width="1" fill="none" fill-rule="evenodd">
        <g id="bhcb">
            <rect id="Rectangle" x="0" y="0" width="48" height="48"></rect>
            <path d="M33.1823719,2.02687209 C33.6123253,2.02687209 34.1282694,2.2418488 34.4292368,2.52131852 C38.4922967,6.54138302 42.5123612,10.5829452 46.5324257,14.646005 C46.7903977,14.9039771 46.9838767,15.3769258 46.9838767,15.7638839 C47.0053744,21.5467574 47.0053744,27.3081333 46.9838767,33.0910068 C46.9838767,33.4994626 46.7474024,34.0369043 46.446435,34.3378717 C42.4478681,38.3794339 38.4278037,42.3994984 34.4292368,46.4410606 C34.0422788,46.8280186 33.633823,47 33.0963812,47 C27.356503,46.9785023 21.6381225,47 15.8982444,46.9570047 C15.4682909,46.9570047 14.9523468,46.7420279 14.6513794,46.4410606 C10.5883196,42.4209961 6.56825511,38.3794339 2.54819061,34.2948764 C2.24722322,33.993909 2.05374418,33.4564672 2.03224651,33.0480115 C1.98925116,27.329631 1.98925116,21.6112504 2.03224651,15.8928699 C2.03224651,15.4629165 2.26872089,14.9469724 2.54819061,14.646005 C6.56825511,10.5829452 10.5883196,6.54138302 14.6513794,2.52131852 C14.9093515,2.26334647 15.3178072,2.02687209 15.66177,2.02687209 C18.6069509,1.98387675 21.5521319,2.00537442 24.4973128,2.00537442 C27.3994984,2.00537442 30.2801863,1.98387675 33.1823719,2.02687209 Z M24.8412755,5.46649946 C24.5618058,5.55249015 24.2823361,5.59548549 24.0458617,5.68147617 C20.1117879,7.20781082 16.1992118,8.73414547 12.2866356,10.2389824 C11.6632032,10.4754568 11.2547474,10.8409172 10.9967753,11.442852 C9.27696166,15.3984235 7.49265496,19.3324973 5.77284128,23.3095665 C5.60085991,23.6750269 5.57936224,24.2339663 5.72984593,24.5994267 C7.27767825,28.7269796 8.86850591,32.8115371 10.4808312,36.9175923 C10.6313149,37.3045503 10.9967753,37.7130061 11.3622358,37.8634898 C15.3608026,39.6692942 19.3808671,41.4536009 23.4009316,43.1949122 C23.7878896,43.3668936 24.3683268,43.3668936 24.7552848,43.2164099 C28.8183447,41.6900752 32.8599068,40.1207453 36.8799713,38.5084199 C37.3099248,38.3364386 37.7613759,37.8849875 37.9548549,37.455034 C39.7176639,33.5639556 41.4159799,29.6513794 43.1357936,25.760301 C43.372268,25.2228592 43.4152633,24.7714081 43.2002866,24.2339663 C41.609459,20.1279111 40.040129,16.021856 38.4278037,11.9372985 C38.2988176,11.5933357 37.9333572,11.2063776 37.5893945,11.0558939 C33.6123253,9.25008957 29.6352562,7.48728054 25.6366894,5.70297384 C25.400215,5.59548549 25.1207453,5.55249015 24.8412755,5.46649946 Z M14.7803655,31.2844858 C14.8663561,31.3274812 14.9523468,31.3919742 15.0598352,31.4564672 C14.8448585,31.9509137 14.6298818,32.4453601 14.4149051,32.9613042 C14.3074167,32.9183088 14.1999283,32.8753135 14.09244,32.8108205 L14.7803655,31.2844858 Z M25.335722,18.7513436 C25.6796847,19.0308133 25.9376568,19.24579 26.1311358,19.3962737 C26.0881405,19.7402365 26.0666428,19.9982085 26.0451451,20.2776783 C25.9161591,20.2131852 25.7656754,20.1486922 25.593694,20.0627015 C25.5506987,20.1056969 25.5077033,20.1271946 25.4432103,20.1701899 C25.8301684,20.621641 26.1956288,21.0515944 26.4965962,21.4170548 C26.2171265,21.9974919 25.271229,21.4170548 25.529201,22.4059477 C26.3461125,21.9759943 27.0555357,22.2124686 27.7864565,22.6424221 C28.2379076,22.9218918 28.8183447,23.0078825 29.3127911,23.1583662 C28.7538517,24.082766 27.356503,24.6202078 26.3676102,24.2547474 C26.2386241,24.2117521 25.8946614,24.4267288 25.8301684,24.5987101 C25.72268,24.8996775 25.6796847,25.2651379 25.7011824,25.587603 C25.7871731,26.6839842 25.8946614,27.7588678 26.0236474,28.855249 C26.0451451,29.1132211 26.1956288,29.3496954 26.3031172,29.6506628 C28.3668936,29.4571838 29.5492655,27.4364027 29.1623074,24.4482264 C30.495163,25.8025797 29.9147259,28.8122537 28.2379076,30.553565 C27.8939448,30.7685417 27.5499821,30.9620208 27.227517,31.1769975 C26.969545,31.2199928 26.7115729,31.2844858 26.4536009,31.2629882 C25.593694,31.2414905 24.7337872,31.2199928 23.8738803,31.1554998 C23.7448943,31.1554998 23.6374059,30.9190254 23.4869223,30.7685417 C23.2289502,30.7685417 22.9279828,30.7040487 22.6485131,30.6610534 L22.624,30.639 L22.6055177,30.6395557 C23.5514153,31.80043 25.6151917,32.058402 27.227517,31.2199928 C27.5714798,31.0050161 27.9154425,30.7900394 28.2379076,30.5965604 C28.3883913,30.489072 28.538875,30.360086 28.6893587,30.2740953 C29.3342888,29.9301326 29.5277678,30.0591186 29.6137585,30.9190254 C30.6241491,30.6610534 30.301684,31.7359369 30.6241491,31.9079183 C30.0437119,32.122895 29.4202795,32.3593694 28.7753493,32.5958438 C28.6248656,32.6388391 28.3883913,32.7463275 28.3238982,32.6818345 C27.7649588,32.1013973 27.2705124,32.6173415 26.7545683,32.7463275 C25.4217126,33.0902902 24.1103547,33.0472949 22.8634898,32.3593694 C22.8419921,32.4453601 22.8419921,32.5098531 22.8204944,32.5958438 C22.4335364,32.5743461 22.0465783,32.6173415 21.6811179,32.5098531 C21.0791831,32.3378717 20.498746,32.0798997 19.8538158,31.8434253 C20.0902902,31.5639556 20.4127553,31.1554998 20.756718,30.7255464 C20.7997134,30.7685417 20.8427087,30.7900394 20.8642064,30.8330348 C20.9931924,30.5750627 21.0361877,30.1881046 21.2511645,30.0591186 C21.4016482,29.9731279 21.7456109,30.1881046 22.0035829,30.295593 C22.2158298,30.3804917 22.4071215,30.5073008 22.6188361,30.634642 L22.6485131,30.6610534 C20.7137227,28.9412397 20.1762809,26.4260122 21.4661412,24.4697241 C21.1866714,25.781082 21.2726621,26.8989609 21.8960946,27.9093515 C22.4980294,28.919742 23.3579362,29.5861698 24.6692942,29.8226442 C24.4973128,29.5431745 24.3683268,29.3926908 24.3683268,29.3926908 C24.5618058,28.726263 24.8197779,28.1888212 24.8627732,27.6298818 C24.9487639,26.6839842 24.9272662,25.716589 24.8842709,24.7706915 C24.8842709,24.5987101 24.4543174,24.2762451 24.4113221,24.2977427 C23.7494201,24.7243018 23.2284142,24.4866364 22.7243583,24.1907057 L22.3765812,23.9839689 C22.2605426,23.9169183 22.1438835,23.8542118 22.0250806,23.8032963 C21.7456109,23.695808 21.5306342,23.4163382 21.2941598,23.1153708 C22.7130061,23.3948406 23.6374059,21.4170548 25.1637406,22.448943 C25.2282336,21.9759943 25.2282336,21.9759943 24.2178431,21.5460408 C24.3468291,21.2880688 24.4328198,20.879613 24.6048011,20.8366177 C25.4862057,20.6001433 25.3787173,19.9552132 25.335722,19.3102831 L25.335722,18.7513436 Z M35.6761018,31.3274812 C36.0200645,31.4564672 36.4500179,31.4994626 36.70799,31.7144393 C36.8584737,31.8434253 36.6649946,32.2948764 36.6219993,32.7248298 C36.0845575,32.4883554 35.6975994,32.2948764 35.3106413,32.122895 C35.332139,32.058402 35.3536367,32.0154067 35.3536367,31.9509137 L36.0415622,31.9509137 C35.8695808,31.7574346 35.7620924,31.6284486 35.6331064,31.4779649 C35.6546041,31.4349695 35.6546041,31.3919742 35.6761018,31.3274812 Z M32.8384092,24.147259 C32.9673952,24.3622358 33.2683626,24.5987101 33.2253673,24.7706915 C33.0533859,25.394124 32.7739162,25.9960588 32.5159441,26.5979936 L32.4459983,26.746597 L32.293697,27.0486925 C32.1956727,27.2512595 32.1167016,27.4548293 32.128986,27.6513794 C32.1719814,28.5327839 32.3439627,29.4356861 32.4944464,30.489072 L30.9036188,30.489072 C30.9466141,29.2422071 30.9251164,28.0813329 31.0326048,26.9419563 C31.0756001,26.5335005 31.3980652,26.1250448 31.6345396,25.7380867 C31.8280186,25.394124 32.0429953,25.0501612 32.2579721,24.7491938 C32.4299534,24.5342171 32.6449301,24.3407381 32.8384092,24.147259 Z M17.7900394,24.1687567 C18.0050161,24.3407381 18.4134719,24.5342171 18.4134719,24.7061985 C18.4134719,25.2651379 18.6499463,25.5446077 19.1013973,25.7595844 C19.6388391,26.0390541 19.7033321,26.5335005 19.7033321,27.1354353 C19.6818345,28.2318166 19.7463275,29.3281978 19.7893228,30.489072 L18.1554998,30.489072 C18.2844858,29.6936582 18.3919742,29.0272304 18.5209602,28.3608026 C18.6499463,27.5868864 18.6499463,26.9419563 17.9835185,26.3185238 C17.6395557,25.9960588 17.5750627,25.3081333 17.4675743,24.7706915 C17.424579,24.5987101 17.6825511,24.3622358 17.7900394,24.1687567 Z M14.09244,28.790756 C14.7158724,30.2096023 13.3830168,29.6076675 12.9960588,29.9516302 C13.1465425,29.7581512 13.2970262,29.5646722 13.4905052,29.3067001 L12.8885704,29.3067001 C12.8670727,29.2207094 12.8455751,29.1347187 12.8455751,29.0487281 C13.2540308,28.9627374 13.6624866,28.8767467 14.09244,28.790756 Z M37.6108922,29.0487281 C37.6323898,29.1132211 37.6538875,29.1777141 37.6968828,29.2422071 L36.2565389,29.9301326 C36.2135435,29.8441419 36.1920459,29.7581512 36.1490505,29.6936582 C36.6219993,29.4571838 36.9874597,28.9412397 37.6108922,29.0487281 Z M14.0064493,27.5008957 C14.027947,27.8233608 14.0494446,28.0813329 14.0709423,28.4467933 C13.6194912,28.5112863 13.2110355,28.5542816 12.8240774,28.597277 C12.8025797,28.5327839 12.8025797,28.4682909 12.781082,28.3823003 C12.9745611,28.2963096 13.1465425,28.2103189 13.5335005,28.0383375 C13.1250448,27.9738445 12.8885704,27.9308492 12.6735937,27.8878538 L12.6735937,27.6728771 C13.0820494,27.6298818 13.4905052,27.5653887 14.0064493,27.5008957 Z M37.8258689,27.4793981 C37.7398782,27.8663561 37.6753852,28.1673235 37.5893945,28.5757793 C37.3099248,28.5327839 36.901469,28.4897886 36.2350412,28.4037979 C36.901469,28.0383375 37.3314224,27.7803655 37.8258689,27.4793981 Z M14.5008957,20.0197062 C14.7803655,20.1916876 15.0813329,20.3421713 15.2748119,20.4496596 C14.6513794,22.319957 14.0709423,24.1042637 13.4905052,25.8885704 C13.4045145,25.9100681 13.3615192,25.9100681 13.2970262,25.9315657 C13.3400215,25.5446077 13.3400215,25.1576496 13.4260122,24.7706915 C13.5120029,24.3407381 13.6624866,23.9322823 13.7699749,23.5023289 C13.6839842,23.4808312 13.6194912,23.4593336 13.5335005,23.4163382 C13.2970262,24.1257614 13.0605518,24.8351845 12.781082,25.6305984 C12.1361519,25.4156216 11.4697241,25.2006449 10.824794,24.9856682 C10.8462917,24.8781799 10.889287,24.7921892 10.9107847,24.6847008 C11.4267288,24.8351845 11.9641705,24.9856682 12.5446077,25.1361519 C12.6950914,24.6847008 12.8240774,24.2977427 12.9530634,23.889287 C13.1035471,23.4378359 13.2110355,23.0293802 13.8344679,23.0078825 C14.027947,23.0078825 14.1999283,22.5779291 14.5008957,22.1694733 C14.027947,22.255464 13.7914726,22.2984593 13.3185238,22.38445 C13.4260122,21.8900036 13.4260122,21.4600502 13.6409889,21.1805804 C13.7269796,21.0515944 14.2429237,21.2450735 14.6513794,21.3095665 C14.6943748,21.2020781 14.8018631,20.9656037 14.9093515,20.750627 C14.7158724,20.5356503 14.5438911,20.3636689 14.3719097,20.1916876 C14.4149051,20.1271946 14.4579004,20.0627015 14.5008957,20.0197062 Z M36.3210319,24.4052311 C36.6005016,24.4482264 36.8584737,24.4912218 37.1379434,24.4912218 C37.4174131,24.5127195 37.7183805,24.4697241 38.1053386,24.4267288 C37.8258689,24.7491938 37.6538875,24.9641705 37.4819061,25.1576496 C37.6968828,25.329631 37.9118595,25.5016123 38.2128269,25.716589 C37.9333572,25.781082 37.6538875,25.8240774 37.5463991,25.8670727 C37.0734504,25.3081333 36.70799,24.8566822 36.3210319,24.4052311 Z M38.1053386,23.4163382 C37.2454317,23.5453243 36.6649946,24.1687567 36.0845575,23.3733429 C36.2350412,23.4163382 36.4070226,23.4593336 36.4500179,23.4808312 C36.7509853,23.1583662 36.9444643,22.7714081 37.2239341,22.6854174 C37.3959154,22.6424221 37.6968828,23.0723755 38.1053386,23.4163382 Z M37.3314224,19.7617341 C37.3529201,19.8477248 37.3744178,19.9337155 37.3959154,19.9982085 C37.1809387,20.2991759 36.9444643,20.5786456 36.7939807,20.9226084 C36.6649946,21.2020781 36.5360086,21.5460408 36.6005016,21.8470082 C36.6219993,21.9974919 37.0734504,22.0404873 37.4389108,22.190971 C37.1379434,22.3414547 36.8584737,22.4919384 36.6219993,22.5994267 C35.5686134,21.6320315 36.3855249,20.9011107 36.901469,20.1486922 C36.836976,20.1056969 36.7509853,20.0412039 36.6864923,19.9982085 C36.2565389,20.5141526 35.8265855,21.0515944 35.3106413,21.6750269 C35.074167,21.1805804 34.8591903,20.7721247 34.6442135,20.3636689 C34.7087066,20.3206736 34.7731996,20.2776783 34.8376926,20.2131852 C35.009674,20.4281619 35.1816553,20.6431387 35.4181297,20.9441061 C35.6975994,20.5786456 35.8910785,20.1486922 36.2350412,19.9337155 C36.5145109,19.7402365 36.965962,19.8262272 37.3314224,19.7617341 Z M15.1673235,16.3436044 L15.4448198,16.6151385 L16.0088818,17.1511527 C16.4776738,17.598531 16.9328198,18.0553565 17.295593,18.5793622 C17.6395557,19.052311 17.2525976,19.5252598 16.5431745,19.6327481 C16.7581512,19.3747761 17.1021139,19.1383017 17.0806163,18.9663203 C17.0376209,18.6868506 16.7796489,18.4288785 16.5646722,18.2139018 C16.0272304,17.6764601 15.4682909,17.1605159 14.9093515,16.6230742 C14.9953422,16.5155858 15.0813329,16.4295951 15.1673235,16.3436044 Z M33.504837,16.9240416 C34.2142601,17.1390183 34.7731996,17.611967 35.13866,18.2139018 C35.267646,18.4073809 34.9236833,18.8803296 34.7517019,19.3747761 C33.9347904,18.6008599 33.2683626,17.9774274 32.6019348,17.3324973 C32.6449301,17.2465066 32.7094231,17.1820136 32.7954138,17.0960229 C33.3973486,17.611967 33.9992834,18.1494088 34.6012182,18.6653529 C34.6657112,18.6008599 34.7517019,18.5363669 34.8161949,18.4933716 C34.6227159,18.2353995 34.4507345,17.9774274 34.2357578,17.7624507 C33.9777857,17.5044787 33.698316,17.2680043 33.504837,16.9240416 Z M22.326048,14.1938373 C22.4335364,14.5378001 22.5410247,14.8602651 22.6270154,15.2042279 C22.1683984,15.4526454 21.6625986,15.6236831 21.161622,15.7933927 L20.7876064,15.9216142 C19.7350626,16.2909366 18.7630081,16.740117 18.3704765,17.9989251 C18.1554998,17.4614833 17.9620208,16.9455392 17.7470441,16.4295951 C17.7900394,16.3865998 17.8330348,16.3651021 17.8760301,16.3221068 C18.0480115,16.4725905 18.2199928,16.6230742 18.5424579,16.9025439 C18.6714439,16.5585812 18.80043,16.2576138 18.929416,15.9351487 C19.058402,15.978144 19.3593694,16.1716231 19.5098531,16.0856324 C19.6204126,16.0242105 19.6888541,15.8925921 19.7472676,15.7469344 L19.831378,15.524938 C19.84548,15.4885236 19.859958,15.4529866 19.8753135,15.4192046 C20.498746,15.849158 20.6707273,15.784665 20.7782157,14.9247582 C20.9501971,15.0322465 21.1221784,15.1397349 21.3371551,15.2902186 C21.3586528,15.0537442 21.3801505,14.8602651 21.4016482,14.5378001 C21.6166249,14.7527768 21.7886062,14.9032605 22.0465783,15.1397349 C22.068076,14.7527768 22.0895736,14.4733071 22.1110713,14.215335 C22.1755643,14.215335 22.261555,14.1938373 22.326048,14.1938373 Z M15.9412397,15.7416697 C16.5216768,16.4080975 17.1236116,17.0960229 17.7470441,17.7839484 C17.2525976,17.8699391 16.2207094,16.7950555 15.9412397,15.7416697 Z M33.3543533,14.6022931 C33.440344,14.6452884 33.5263346,14.7097814 33.5908277,14.7527768 L32.064493,16.9885346 C32.0214977,16.9455392 31.935507,16.9240416 31.871014,16.8810462 C32.2149767,16.0211394 32.8384092,15.3547116 33.3543533,14.6022931 Z M31.6775349,13.6993909 L31.935507,13.7853816 C31.5915442,14.6237908 31.2475815,15.4621999 30.8821211,16.3006091 C30.7101397,15.2687209 31.3765675,14.5592977 31.6775349,13.6993909 Z M26.3246148,12.1730563 C26.4106055,12.1730563 26.4965962,12.1945539 26.5825869,12.1945539 C26.4965962,12.9899678 26.4106055,13.7853816 26.3031172,14.5592977 L26.5610892,14.6237908 C26.7545683,13.8498746 26.9480473,13.0544608 27.1415263,12.2805446 C27.227517,12.2805446 27.3135077,12.3020423 27.3994984,12.3235399 C27.2490147,13.0974561 27.1200287,13.8713723 26.9265496,14.9032605 C27.3780007,14.7097814 27.7004658,14.5592977 28.0229308,14.408814 C28.0444285,14.5163024 28.0659262,14.7312791 28.1304192,15.1182372 C28.3668936,14.7527768 28.5173773,14.5163024 28.7538517,14.150842 L28.7538517,15.1397349 C28.8398424,15.1827302 28.8828377,15.2042279 28.9473307,15.2042279 C29.0978144,14.9032605 29.2697958,14.6022931 29.4202795,14.3013257 C29.4847725,14.3228234 29.5277678,14.3228234 29.5922608,14.344321 C29.5492655,14.6452884 29.4847725,14.9677535 29.4202795,15.2902186 C29.7857399,15.5696883 30.0437119,15.6126836 30.237191,15.0752418 C30.4521677,14.4518094 30.6886421,13.8498746 30.9251164,13.2264421 L31.1830885,13.3124328 C30.8821211,14.1723397 30.6026514,15.0537442 30.2801863,15.978144 C29.3557865,15.720172 28.4958796,15.4621999 27.6359728,15.2257255 C27.2490147,15.1182372 26.8620566,14.9892512 26.6255822,15.5266929 C26.5825869,15.6341813 26.2816195,15.720172 26.1526335,15.6771766 C26.0236474,15.6341813 25.8086707,15.4192046 25.8301684,15.2902186 C25.9806521,14.2583303 26.1526335,13.2264421 26.3246148,12.1730563 Z M25.3142243,13.7423862 C25.4217126,14.086349 25.6151917,14.408814 25.5506987,14.6237908 C25.4862057,14.8172698 25.1207453,14.9462558 24.8627732,15.0107488 C24.5188105,15.0967395 24.1533501,15.0752418 23.6589036,15.0967395 C24.2608384,14.6022931 24.7337872,14.2368327 25.3142243,13.7423862 Z" id="Combined-Shape" fill="#FFFFFF" fill-rule="nonzero"></path>
        </g>
    </g>
</svg>