<?xml version="1.0" encoding="UTF-8"?>
<svg width="48px" height="48px" viewBox="0 0 48 48" version="1.1" xmlns="http://www.w3.org/2000/svg" xmlns:xlink="http://www.w3.org/1999/xlink">
    <title>br-bcb</title>
    <g id="Page-1" stroke="none" stroke-width="1" fill="none" fill-rule="evenodd">
        <g id="br-bcb">
            <rect id="Rectangle" x="0" y="0" width="48" height="48"></rect>
            <path d="M5.96144053,15.257912 L5.96144053,27.8379411 L13.0822117,27.8379411 C13.0822117,27.1667879 13.0576573,26.5120043 13.0985813,25.8654056 C13.1149509,25.6362314 13.2131684,25.3579483 13.3686795,25.1942524 C14.4572572,24.0647508 15.578574,22.9679884 16.6835213,21.8630411 C16.7653692,21.7811932 16.8554019,21.70753 17.0190978,21.5602037 L17.0190978,30.9890869 L26.4725355,30.9890869 C25.9568934,31.5210986 25.5149145,31.9794471 25.0647508,32.4296108 C24.3117497,33.1989814 23.5587486,33.9683521 22.7811932,34.7213532 C22.6502364,34.8441251 22.4374318,34.9341579 22.2573663,34.9423427 C21.5780284,34.966897 20.8986904,34.9505275 20.1784285,34.9505275 L20.1784285,42.0221897 L32.7257184,42.0221897 C32.6193161,42.1613312 32.5702073,42.2513642 32.4965442,42.3168426 C31.3670426,43.4627136 30.2375409,44.608585 29.0998545,45.7462712 C28.960713,45.877228 28.7315387,45.9918152 28.5432885,45.9918152 C24.5736632,46.0081847 20.6040378,46 16.6344125,46 C16.5116406,46 16.3970535,45.9836305 16.216988,45.9754457 L16.2167822,39.3101087 C16.2143124,38.9048181 16.1822056,38.8736421 15.7648169,38.871244 L9.11258641,38.8710441 L9.11258641,38.3472171 C9.11258641,36.3173881 9.10440159,34.2793743 9.1207712,32.2495453 C9.1207712,31.8484904 8.99799927,31.7502728 8.61331392,31.7584576 C6.5834849,31.7748272 4.54547109,31.7666424 2.51564205,31.7666424 C2.37650055,31.7748272 2.21280466,31.7748272 2.0081848,31.7748272 L2.0081848,31.2837395 C2.0081848,27.3714078 2.0081848,23.459076 2,19.5385595 C2,19.2602765 2.06547836,19.0556566 2.27009822,18.8592215 C3.41596945,17.7460895 4.54547109,16.6247726 5.68315753,15.5034558 C5.74863586,15.4379774 5.82229903,15.3806839 5.96144053,15.257912 Z M34.3872317,21.5356493 L34.3872317,30.9563477 C34.6082212,30.9645326 34.7801018,30.9809021 34.9437977,30.9809021 L43.4068752,30.9809021 C43.5869409,30.9890869 43.7670061,30.9972717 43.938887,30.9972717 C43.8324845,31.0791197 43.7260824,31.144598 43.6360494,31.2346308 C41.2133502,33.6655147 38.7824664,36.1045835 36.3761368,38.5436522 C36.1305929,38.7891963 35.8932339,38.8874136 35.5576573,38.8792289 C34.6736995,38.8546742 33.7897417,38.8710441 32.8403055,38.8710441 L32.8403055,34.9505275 L30.5240087,34.9505275 C30.5158239,34.770462 30.4994543,34.6395053 30.4994543,34.5003638 C30.4994543,31.5947617 30.4994543,28.6891597 30.5076391,25.7917424 C30.5076391,25.6280465 30.5321935,25.4152419 30.6385958,25.3088396 C31.8499454,24.0729356 33.0858494,22.8452164 34.3872317,21.5356493 Z M34.3954165,4.15933067 L34.3954165,4.6749727 C34.3954165,7.48235721 34.4036013,10.2897417 34.3872317,13.105311 C34.3872317,13.4899964 34.4772645,13.6127683 34.8783194,13.6127683 C37.6857039,13.5963987 40.4930885,13.6045835 43.3086579,13.6045835 L43.848854,13.6045835 C43.3332121,14.1365951 42.8994181,14.5867588 42.4492543,15.0451073 C41.6962531,15.814478 40.943252,16.5838487 40.1656966,17.3368498 C40.0347399,17.4596217 39.8137505,17.566024 39.6418696,17.566024 C36.7117133,17.5823936 33.7815569,17.5742088 30.8432157,17.5742088 C30.7449982,17.566024 30.6385958,17.5496544 30.4912695,17.5332848 L30.4912695,17.0749363 C30.4912695,14.1938887 30.4912695,11.3210258 30.4830848,8.43997818 C30.4830848,8.16169517 30.5567479,7.9570753 30.7613678,7.76064025 C31.8581302,6.68024736 32.9467079,5.5834849 34.0352856,4.49490722 C34.1253183,4.40487449 34.2317206,4.31484175 34.3954165,4.15933067 Z M17.0109131,4.06929794 C17.0190979,7.05674793 17.0190979,10.0441979 17.0272826,13.0316479 L17.0272826,13.6045835 C19.3845035,13.5984449 21.7141006,13.5969102 24.0851332,13.5965266 L26.4725355,13.5963987 C25.9159694,14.1693343 25.4330666,14.660422 24.9501637,15.1515096 C24.2380866,15.8799564 23.5260095,16.608403 22.789378,17.3204802 C22.6502365,17.4514369 22.4128774,17.5578392 22.2246271,17.5578392 C19.3190251,17.5742088 16.4134231,17.566024 13.507821,17.5742088 C13.1558749,17.5742088 13.0658421,17.4596217 13.0740269,17.1240451 C13.0985813,16.5020007 13.0822117,15.8717716 13.0822117,15.2006184 L9.12895599,15.2006184 C9.12895599,14.3330302 9.16169518,13.5227355 9.1207712,12.7124409 C9.08803201,12.1722445 9.27628228,11.8121135 9.65278284,11.4356129 C12.034558,9.09476174 14.3999636,6.72935612 16.7653692,4.37213534 C16.8328938,4.30461077 16.8912104,4.22787831 16.9506781,4.14884391 L17.0109131,4.06929794 Z M20.0474718,1 L20.1293198,1.05729356 L20.1293198,4.06111315 C19.4363405,4.06656966 18.7433612,4.06838849 18.0528071,4.06899479 L17.0190979,4.06929794 C17.8048381,3.29992724 18.5905784,2.52237177 19.3681338,1.7448163 C19.6054929,1.50745726 19.8264824,1.25372863 20.0474718,1 Z M43.9470717,31.0054565 C43.9470717,29.9741724 43.9470717,28.9428883 43.9470717,27.878865 C44.9456165,27.878865 45.9359769,27.878865 47,27.878865 C46.8935975,28.0016369 46.8117496,28.0998545 46.7299017,28.1817024 C45.886868,29.0165515 45.0356495,29.8432157 44.2008001,30.6780648 C44.094398,30.7762823 44.0207349,30.8908694 43.9470717,31.0054565 C43.938887,30.9972717 43.9470717,31.0054565 43.9470717,31.0054565 Z" id="Combined-Shape" fill="#000000" fill-rule="nonzero"></path>
        </g>
    </g>
</svg>