<?xml version="1.0" encoding="UTF-8"?>
<svg width="48px" height="48px" viewBox="0 0 48 48" version="1.1" xmlns="http://www.w3.org/2000/svg" xmlns:xlink="http://www.w3.org/1999/xlink">
    <title>canbc</title>
    <g id="Page-1" stroke="none" stroke-width="1" fill="none" fill-rule="evenodd">
        <g id="canbc" fill-rule="nonzero">
            <rect id="Rectangle" x="0" y="0" width="48" height="48"></rect>
            <path d="M20.125,3.11483206 C20.562,3.29483206 20.932,3.77483206 21.24,4.20683206 L26.568,11.4208321 C26.88,11.8608321 27.225,12.3388321 27.667,12.5068321 C28.242,12.7198321 28.807,12.5968321 29.592,12.4208321 L46.833,7.85083206 L46.833,39.5008321 L29.618,44.0478321 C28.832,44.2268321 28.262,44.3478321 27.693,44.1428321 C27.256,43.9568321 26.902,43.4928321 26.594,43.0648321 L21.284,35.8548321 C20.976,35.4208321 20.624,34.9448321 20.19,34.7718321 C19.622,34.5538321 19.05,34.6898321 18.257,34.8588321 L1,39.4168321 L1,7.76283206 L18.197,3.20283206 C18.983,3.03083206 19.558,2.89283206 20.125,3.11583206 L20.125,3.11483206 Z" id="a" fill="#000000"></path>
        </g>
    </g>
</svg>