<?xml version="1.0" encoding="UTF-8"?>
<svg width="48px" height="48px" viewBox="0 0 48 48" version="1.1" xmlns="http://www.w3.org/2000/svg" xmlns:xlink="http://www.w3.org/1999/xlink">
    <title>cascotiabank</title>
    <g id="Page-1" stroke="none" stroke-width="1" fill="none" fill-rule="evenodd">
        <g id="cascotiabank" fill-rule="nonzero">
            <rect id="Rectangle" x="0" y="0" width="48" height="48" rx="8"></rect>
            <path d="M38.2455224,25.8297588 L39.0111941,28.2426274 C41.9126865,37.2908848 35.1828358,46.5 25.6723881,46.5 L22.569403,46.5 L3.75,46.2587133 L11.1649254,38.1353888 L25.0679104,38.1353888 C26.0350746,38.1353888 27.0022388,37.9745309 27.9291045,37.6930296 C32.7246269,36.2453084 36.4320896,32.424933 37.7619403,27.5991958 L38.2455224,25.8297588 Z M23.9798508,12.5991958 C30.27837,12.5991958 35.3843286,17.6945075 35.3843286,23.979893 C35.3843286,30.2652786 30.27837,35.3605903 23.9798508,35.3605903 C17.6813316,35.3605903 12.575373,30.2652786 12.575373,23.979893 C12.575373,17.6945075 17.6813316,12.5991958 23.9798508,12.5991958 Z M25.4708955,1.5 L44.25,1.78150135 L36.8350746,9.86461129 L22.9723881,9.86461129 C22.0052239,9.86461129 21.0380597,10.0254692 20.111194,10.3069705 C15.3156716,11.7546917 11.608209,15.5750671 10.2783582,20.4008043 L9.79477611,22.1702413 L9.02910448,19.7573727 C6.12761194,10.7091153 12.8574627,1.5 22.3679104,1.5 L25.4708955,1.5 Z" id="Combined-Shape" fill="#EC121F"></path>
        </g>
    </g>
</svg>