<?xml version="1.0" encoding="UTF-8"?>
<svg width="48px" height="48px" viewBox="0 0 48 48" version="1.1" xmlns="http://www.w3.org/2000/svg" xmlns:xlink="http://www.w3.org/1999/xlink">
    <title>chcb</title>
    <g id="Page-1" stroke="none" stroke-width="1" fill="none" fill-rule="evenodd">
        <g id="chcb" fill-rule="nonzero">
            <rect id="Rectangle" x="0" y="0" width="48" height="48"></rect>
            <path d="M3.58584472,13.3526141 C4.08984796,13.3526141 4.53160983,13.1724196 4.91113034,12.8120307 C5.29065085,12.4516417 5.4804111,12.0261405 5.4804111,11.5355271 C5.4804111,11.1599957 5.35896454,10.8026353 5.11607141,10.4634457 C4.87317829,10.1242562 4.48910353,9.762353 3.96384715,9.37773626 C3.43859076,8.99311951 3.10309463,8.71601374 2.95735876,8.54641896 C2.81162288,8.37682417 2.73875494,8.17845884 2.73875494,7.95132297 C2.73875494,7.72418709 2.81617713,7.53793568 2.9710215,7.39256871 C3.12586586,7.24720176 3.3171442,7.17451828 3.54485651,7.17451828 C3.77256881,7.17451828 3.97143756,7.23054513 4.14146275,7.34259883 C4.31148793,7.45465252 4.51794709,7.6742172 4.76084022,8.00129286 L5.38932618,7.51067937 C5.12214374,7.13514806 4.84888898,6.85198534 4.56956188,6.6611912 C4.29023479,6.47039707 3.96232907,6.375 3.58584472,6.375 C3.10005847,6.375 2.70383906,6.52793816 2.39718648,6.83381447 C2.09053391,7.13969078 1.93720763,7.51370785 1.93720763,7.95586568 C1.93720763,8.16180221 1.97667776,8.36773873 2.05561803,8.57367526 C2.13455829,8.77961179 2.2605591,8.9734344 2.43362046,9.1551431 C2.6066818,9.3368518 2.92396095,9.60184365 3.38545789,9.95011866 C3.84695483,10.2983937 4.17182439,10.5921561 4.36006656,10.8314059 C4.54830873,11.0706556 4.64242982,11.3235336 4.64242982,11.5900397 C4.64242982,11.8565458 4.53009175,12.0897386 4.30541561,12.2896182 C4.08073946,12.4894977 3.81052086,12.5894375 3.4947598,12.5894375 C3.00290122,12.5894375 2.55962126,12.2229916 2.16491993,11.4900999 L1.5,11.8716882 C2.00400324,12.8589721 2.69928481,13.3526141 3.58584472,13.3526141 L3.58584472,13.3526141 Z M8.44067108,13.3526141 L10.3716714,8.38288113 L12.2662378,13.3526141 L12.4939501,13.3526141 L14.4067335,6.53853783 L13.5960777,6.53853783 L12.2844548,11.2538786 L10.4809733,6.53853783 L10.2623695,6.53853783 L8.44067108,11.2447931 L7.15637367,6.53853783 L6.34571787,6.53853783 L8.22206726,13.3526141 L8.44067108,13.3526141 Z M16.1646725,13.1890762 L16.1646725,6.53853783 L15.3813422,6.53853783 L15.3813422,13.1890762 L16.1646725,13.1890762 Z M18.9245457,13.3526141 C19.4285489,13.3526141 19.8703107,13.1724196 20.2498313,12.8120307 C20.6293518,12.4516417 20.819112,12.0261405 20.819112,11.5355271 C20.819112,11.1599957 20.6976654,10.8026353 20.4547723,10.4634457 C20.2118792,10.1242562 19.8278044,9.762353 19.3025481,9.37773626 C18.7772917,8.99311951 18.4417955,8.71601374 18.2960597,8.54641896 C18.1503238,8.37682417 18.0774559,8.17845884 18.0774559,7.95132297 C18.0774559,7.72418709 18.1548781,7.53793568 18.3097224,7.39256871 C18.4645668,7.24720176 18.6558451,7.17451828 18.8835574,7.17451828 C19.1112697,7.17451828 19.3101385,7.23054513 19.4801637,7.34259883 C19.6501889,7.45465252 19.856648,7.6742172 20.0995411,8.00129286 L20.7280271,7.51067937 C20.4608447,7.13514806 20.1875899,6.85198534 19.9082628,6.6611912 C19.6289357,6.47039707 19.30103,6.375 18.9245457,6.375 C18.4387594,6.375 18.04254,6.52793816 17.7358874,6.83381447 C17.4292348,7.13969078 17.2759086,7.51370785 17.2759086,7.95586568 C17.2759086,8.16180221 17.3153787,8.36773873 17.3943189,8.57367526 C17.4732592,8.77961179 17.59926,8.9734344 17.7723214,9.1551431 C17.9453827,9.3368518 18.2626619,9.60184365 18.7241588,9.95011866 C19.1856557,10.2983937 19.5105253,10.5921561 19.6987675,10.8314059 C19.8870096,11.0706556 19.9811307,11.3235336 19.9811307,11.5900397 C19.9811307,11.8565458 19.8687927,12.0897386 19.6441165,12.2896182 C19.4194404,12.4894977 19.1492218,12.5894375 18.8334607,12.5894375 C18.3416021,12.5894375 17.8983222,12.2229916 17.5036208,11.4900999 L16.8387009,11.8716882 C17.3427041,12.8589721 18.0379857,13.3526141 18.9245457,13.3526141 L18.9245457,13.3526141 Z M23.4605748,13.3526141 C23.964578,13.3526141 24.4063399,13.1724196 24.7858604,12.8120307 C25.1653809,12.4516417 25.3551412,12.0261405 25.3551412,11.5355271 C25.3551412,11.1599957 25.2336946,10.8026353 24.9908015,10.4634457 C24.7479083,10.1242562 24.3638336,9.762353 23.8385772,9.37773626 C23.3133208,8.99311951 22.9778247,8.71601374 22.8320888,8.54641896 C22.6863529,8.37682417 22.613485,8.17845884 22.613485,7.95132297 C22.613485,7.72418709 22.6909072,7.53793568 22.8457516,7.39256871 C23.0005959,7.24720176 23.1918742,7.17451828 23.4195866,7.17451828 C23.6472989,7.17451828 23.8461676,7.23054513 24.0161928,7.34259883 C24.186218,7.45465252 24.3926771,7.6742172 24.6355702,8.00129286 L25.2640562,7.51067937 C24.9968738,7.13514806 24.723619,6.85198534 24.4442919,6.6611912 C24.1649648,6.47039707 23.8370591,6.375 23.4605748,6.375 C22.9747885,6.375 22.5785691,6.52793816 22.2719165,6.83381447 C21.965264,7.13969078 21.8119377,7.51370785 21.8119377,7.95586568 C21.8119377,8.16180221 21.8514078,8.36773873 21.9303481,8.57367526 C22.0092883,8.77961179 22.1352892,8.9734344 22.3083505,9.1551431 C22.4814118,9.3368518 22.798691,9.60184365 23.2601879,9.95011866 C23.7216849,10.2983937 24.0465544,10.5921561 24.2347966,10.8314059 C24.4230388,11.0706556 24.5171599,11.3235336 24.5171599,11.5900397 C24.5171599,11.8565458 24.4048218,12.0897386 24.1801457,12.2896182 C23.9554695,12.4894977 23.6852509,12.5894375 23.3694898,12.5894375 C22.8776313,12.5894375 22.4343513,12.2229916 22.03965,11.4900999 L21.3747301,11.8716882 C21.8787333,12.8589721 22.5740149,13.3526141 23.4605748,13.3526141 L23.4605748,13.3526141 Z M3.00290122,22.2745112 L3.00290122,17.4501452 L7.2292416,22.2745112 L7.46606242,22.2745112 L7.46606242,15.6239728 L6.69184059,15.6239728 L6.69184059,20.5119368 L2.4381747,15.6239728 L2.2013539,15.6239728 L2.2013539,22.2745112 L3.00290122,22.2745112 Z M9.18756745,22.2745112 L10.2077186,20.0485796 L12.9584832,20.0485796 L13.9877429,22.2745112 L14.8166157,22.2745112 L11.7106198,15.3604952 L11.473799,15.3604952 L8.32226069,22.2745112 L9.18756745,22.2745112 Z M12.603252,19.2581468 L10.5720583,19.2581468 L11.5922094,17.0140443 L12.603252,19.2581468 Z M17.285017,22.2745112 L17.285017,16.3871493 L18.7423758,16.3871493 L18.7423758,15.6239728 L15.026111,15.6239728 L15.026111,16.3871493 L16.4925782,16.3871493 L16.4925782,22.2745112 L17.285017,22.2745112 Z M20.245277,22.2745112 L20.245277,15.6239728 L19.4619467,15.6239728 L19.4619467,22.2745112 L20.245277,22.2745112 Z M24.8496198,22.438049 C25.4841781,22.438049 26.0716759,22.2835966 26.6121131,21.9746918 C27.1525503,21.6657871 27.5776133,21.2418001 27.887302,20.7027309 C28.1969907,20.1636618 28.3518351,19.5776512 28.3518351,18.9446993 C28.3518351,18.3117473 28.1954726,17.7257368 27.8827478,17.1866676 C27.5700228,16.6475985 27.1404056,16.2251257 26.5938961,15.9192494 C26.0473866,15.6133731 25.4492623,15.460435 24.7995231,15.460435 C24.1801457,15.460435 23.6017564,15.6148873 23.0643553,15.9237922 C22.5269543,16.2326969 22.1034094,16.6581981 21.7937207,17.2002958 C21.4840319,17.7423934 21.3291876,18.3299182 21.3291876,18.9628701 C21.3291876,19.5958221 21.4840319,20.1803184 21.7937207,20.7163591 C22.1034094,21.2523998 22.5315086,21.6733582 23.0780181,21.9792345 C23.6245276,22.2851109 24.2150615,22.438049 24.8496198,22.438049 L24.8496198,22.438049 Z M24.8268486,21.6748725 C24.0920969,21.6748725 23.4605748,21.4113949 22.9322822,20.8844397 C22.4039897,20.3574844 22.1398434,19.7139328 22.1398434,18.9537847 C22.1398434,18.1936367 22.3963992,17.5485708 22.909511,17.0185871 C23.4226227,16.4886034 24.0617352,16.2236115 24.8268486,16.2236115 C25.573745,16.2236115 26.2128575,16.4870891 26.7441862,17.0140443 C27.2755149,17.5409996 27.5411793,18.1921224 27.5411793,18.9674128 C27.5411793,19.7427033 27.2785511,20.3877692 26.7532947,20.9026105 C26.2280383,21.4174518 25.5858896,21.6748725 24.8268486,21.6748725 L24.8268486,21.6748725 Z M30.3374864,22.2745112 L30.3374864,17.4501452 L34.5638268,22.2745112 L34.8006476,22.2745112 L34.8006476,15.6239728 L34.0264258,15.6239728 L34.0264258,20.5119368 L29.7727599,15.6239728 L29.5359391,15.6239728 L29.5359391,22.2745112 L30.3374864,22.2745112 Z M36.5221526,22.2745112 L37.5423038,20.0485796 L40.2930684,20.0485796 L41.3223279,22.2745112 L42.1512008,22.2745112 L39.045205,15.3604952 L38.8083842,15.3604952 L35.6568459,22.2745112 L36.5221526,22.2745112 Z M39.9378372,19.2581468 L37.9066434,19.2581468 L38.9267946,17.0140443 L39.9378372,19.2581468 Z M46.3137818,22.2745112 L46.3137818,21.5204201 L43.799838,21.5204201 L43.799838,15.6239728 L43.0073992,15.6239728 L43.0073992,22.2745112 L46.3137818,22.2745112 Z M4.0777033,31.3599462 C4.72744241,31.3599462 5.25421688,31.1767232 5.65802669,30.8102774 C6.06183651,30.4438315 6.26374144,29.9819885 6.26374144,29.4247485 C6.26374144,29.0249894 6.15595761,28.6797428 5.94038995,28.3890089 C5.72482233,28.098275 5.404507,27.8741676 4.97944403,27.7166867 C5.47737494,27.401725 5.72634039,26.9535102 5.72634039,26.3720424 C5.72634039,25.8390302 5.54265247,25.4286714 5.17527662,25.1409659 C4.80790076,24.8532605 4.2720178,24.7094078 3.56762773,24.7094078 L2.21046239,24.7094078 L2.21046239,31.3599462 L4.0777033,31.3599462 Z M3.29437297,27.4350383 L2.98468423,27.4350383 L2.98468423,25.4725843 L3.67692964,25.4725843 C4.5088386,25.4725843 4.92479308,25.7724036 4.92479308,26.3720424 C4.92479308,26.7415167 4.78968378,27.0110513 4.51946517,27.1806461 C4.24924657,27.3502409 3.8408825,27.4350383 3.29437297,27.4350383 L3.29437297,27.4350383 Z M3.73158059,30.5967696 L2.98468423,30.5967696 L2.98468423,28.2163857 L3.28526448,28.2163857 C3.849991,28.2163857 4.24013808,28.2451562 4.45570573,28.3026973 C4.67127338,28.3602384 4.85344322,28.44655 5.00221526,28.5616322 C5.1509873,28.6767144 5.26332537,28.8084532 5.33922948,28.9568486 C5.41513358,29.105244 5.45308563,29.2763531 5.45308563,29.4701757 C5.45308563,29.6639983 5.38932618,29.8547924 5.26180729,30.0425581 C5.1342884,30.2303237 4.96426321,30.3696337 4.75173173,30.4604881 C4.53920024,30.5513425 4.19914987,30.5967696 3.73158059,30.5967696 L3.73158059,30.5967696 Z M7.67555775,31.3599462 L8.69570887,29.1340146 L11.4464735,29.1340146 L12.4757332,31.3599462 L13.3046059,31.3599462 L10.1986101,24.4459302 L9.96178929,24.4459302 L6.81025098,31.3599462 L7.67555775,31.3599462 Z M11.0912423,28.3435818 L9.06004856,28.3435818 L10.0801997,26.0994793 L11.0912423,28.3435818 Z M14.97146,31.3599462 L14.97146,26.5355802 L19.1978004,31.3599462 L19.4346212,31.3599462 L19.4346212,24.7094078 L18.6603994,24.7094078 L18.6603994,29.5973718 L14.4067335,24.7094078 L14.1699127,24.7094078 L14.1699127,31.3599462 L14.97146,31.3599462 Z M21.7026358,31.3599462 L21.7026358,28.4162652 L24.4807259,31.3599462 L25.519094,31.3599462 L22.076084,27.6985159 L25.2913817,24.7094078 L24.2165796,24.7094078 L21.7026358,27.0716209 L21.7026358,24.7094078 L20.9010884,24.7094078 L20.9010884,31.3599462 L21.7026358,31.3599462 Z M43.0581944,31.4003259 L39.315231,31.4003259 L39.315231,34.8473744 L35.8734256,34.8473744 L35.8734256,38.5529515 L39.315231,38.5529515 L39.315231,42 L43.0581944,42 L43.0581944,38.5529515 L46.5,38.5529515 L46.5,34.8473744 L43.0581944,34.8473744 L43.0581944,31.4003259 Z M45.4879451,35.7327324 L45.4879451,37.6675935 L42.1565986,37.6675935 L42.1565986,40.9905072 L40.2168269,40.9905072 L40.2168269,37.6675935 L36.8854803,37.6675935 L36.8854803,35.7327324 L40.2168269,35.7327324 L40.2168269,32.4098186 L42.1565986,32.4098186 L42.1565986,35.7327324 L45.4879451,35.7327324 Z" id="Combined-Shape" fill="#4A6379"></path>
        </g>
    </g>
</svg>