<?xml version="1.0" encoding="UTF-8"?>
<svg width="48px" height="48px" viewBox="0 0 48 48" version="1.1" xmlns="http://www.w3.org/2000/svg" xmlns:xlink="http://www.w3.org/1999/xlink">
    <title>citi</title>
    <g id="Page-1" stroke="none" stroke-width="1" fill="none" fill-rule="evenodd">
        <g id="citi" transform="translate(-0.000000, 0.000000)">
            <rect id="Rectangle" x="0" y="0" width="48" height="48"></rect>
            <path d="M21.6875824,30.180551 L21.7341197,30.2309664 C24.6103839,33.2015979 28.3669789,34.7709394 32.2295754,34.7709394 C36.092172,34.7709394 39.8461816,33.2015979 42.7289093,30.2309664 L42.7754466,30.180551 L47,30.180551 L46.8319486,30.4248719 C43.4747989,35.1794335 37.9006635,38.0156239 32.2295754,38.0156239 C26.5597801,38.0156239 20.984352,35.1794335 17.6336658,30.4248719 L17.4604436,30.180551 L21.6875824,30.180551 Z M37.2643951,9.89184356 L37.3031762,9.91640496 L38.1860924,13.3756782 L37.9689183,13.2425298 C36.9877567,12.645301 36.0764011,12.3441012 35.2568274,12.3441012 C34.0688333,12.3441012 33.5310688,12.9723549 33.5310688,14.3684741 L33.5310688,23.8866464 L37.2760294,23.8866464 L37.2760294,27.2631866 L33.5310688,27.2631866 L33.5310688,32.8450782 L29.930891,30.9163653 L29.930891,27.2631866 L26.8232329,27.2631866 L26.8232329,23.8866464 L29.930891,23.8866464 L29.930891,13.7621964 C29.930891,11.0048609 31.5648676,9.11751446 34.0054908,9.06839174 C35.6614434,9.03607417 36.6594101,9.52988676 37.2643951,9.89184356 Z M11.3876093,9 C13.939405,9 16.015486,9.99538136 17.7451226,12.0404375 L17.8007089,12.1024873 L15.7207497,14.61938 L15.6380167,14.5392324 C14.3388502,13.2155045 12.8354366,12.5161522 11.2867784,12.5161522 C8.05243548,12.5161522 5.70617952,14.9425558 5.70617952,18.2893639 C5.70617952,21.6310011 8.05243548,24.0612828 11.2867784,24.0612828 C12.8354366,24.0612828 14.3388502,23.3580523 15.6380167,22.0291537 L15.7207497,21.9502988 L17.8007089,24.4658988 L17.7451226,24.5331194 C16.015486,26.5768828 13.939405,27.5709714 11.3876093,27.5709714 C8.82934999,27.5709714 6.48697214,26.7087385 4.80128742,25.1562022 C2.96564915,23.4731029 2,21.0997002 2,18.2893639 C2,15.4790275 2.96564915,13.100454 4.80128742,11.4173547 C6.48697214,9.85576936 8.82934999,9 11.3876093,9 Z M23.5753296,9.34309113 L23.5753296,27.2806381 L19.9014676,27.2806381 L19.9014676,9.34309113 L23.5753296,9.34309113 Z M44.6890478,9.34309113 L44.6890478,27.2806381 L41.010015,27.2806381 L41.010015,9.34309113 L44.6890478,9.34309113 Z" id="Combined-Shape" fill="#004685" fill-rule="nonzero" transform="translate(24.500000, 23.507812) scale(-1, 1) rotate(-180.000000) translate(-24.500000, -23.507812) "></path>
        </g>
    </g>
</svg>