<?xml version="1.0" encoding="UTF-8"?>
<svg width="48px" height="48px" viewBox="0 0 48 48" version="1.1" xmlns="http://www.w3.org/2000/svg" xmlns:xlink="http://www.w3.org/1999/xlink">
    <title>clcb</title>
    <g id="Page-1" stroke="none" stroke-width="1" fill="none" fill-rule="evenodd">
        <g id="clcb">
            <rect id="Rectangle" x="0" y="0" width="48" height="48"></rect>
            <path d="M6.23093268,34.3574204 C6.39605201,34.4265551 6.42531367,34.5752995 6.4629358,34.7219489 C6.45875556,34.7470888 6.47338639,34.7575637 6.49428757,34.7596587 C6.49846781,34.7889886 6.50264804,34.8183185 6.50682828,34.8476483 C6.50055793,34.8727882 6.51518875,34.8811682 6.53608994,34.8811682 C6.54027017,34.9125931 6.54654053,34.9440179 6.55072076,34.9733478 C6.54236029,34.9984877 6.55699112,35.0047727 6.5778923,35.0047727 C6.58416265,35.0361975 6.58834289,35.0676224 6.59461325,35.0990473 C6.58416265,35.1241872 6.6008836,35.1304721 6.61969466,35.1304721 C6.6238749,35.161897 6.63014526,35.1933219 6.63432549,35.2247467 C6.62596502,35.2498866 6.64059585,35.2561716 6.66149703,35.2561716 C6.71165987,35.396536 6.78690412,35.5306154 6.79944483,35.6835498 C6.79317448,35.7086897 6.80571519,35.7170696 6.82870649,35.7191646 C6.91858157,35.8301991 6.89350015,35.9852285 6.96665429,36.102548 C6.96247405,36.1276879 6.97710488,36.1360678 6.99800606,36.1381628 C7.03562819,36.2198675 7.08370091,36.3015721 7.08997126,36.3937517 C7.08579103,36.4188916 7.10042186,36.4293666 7.12341316,36.4314616 C7.22791907,36.5864909 7.23836966,36.7834201 7.34078545,36.9384494 C7.33660521,36.9635893 7.35123604,36.9719693 7.37422734,36.9740643 C7.38885817,36.9950142 7.403489,37.0096791 7.4264803,37.0138691 C7.59577987,37.4517222 7.84032371,37.8476756 8.08277742,38.2457239 C8.67428088,39.2198947 9.36611001,40.1186459 10.1394538,40.9545473 C11.5126614,42.437801 13.0907007,43.6466109 14.9049233,44.5411721 C15.623924,44.8973205 16.3742764,45.1738594 17.1434399,45.3959284 C17.6032659,45.5279129 18.0610018,45.6787522 18.5354586,45.7541719 L20.0591548,45.9867159 C20.3120591,46.0265207 20.5649634,46.0768005 20.8157776,46.1291753 C20.8680306,46.1396502 20.9579057,46.1396502 20.9495452,46.2276399 C20.9432748,46.3009646 20.8763911,46.3072495 20.8074172,46.3177245 C20.50435,46.3617193 20.2075532,46.435044 19.902396,46.4643739 C19.5366253,46.4978937 19.1708546,46.5628384 18.8029938,46.5670284 C18.3076358,46.5733134 17.8143679,46.5775034 17.3190098,46.5733134 C16.5644772,46.5670284 15.8245753,46.4580889 15.0972142,46.2527798 C14.6290277,46.1187003 14.1524807,46.0097608 13.7031053,45.8191166 C12.4135024,45.270229 11.2116844,44.5767869 10.1687154,43.6277559 C10.0412182,43.5104364 9.89700004,43.4119719 9.77159294,43.2925574 C9.58557242,43.1165781 9.41209261,42.9280289 9.24697327,42.7290048 C8.96480731,42.3875212 8.65337969,42.0669876 8.40047539,41.7003642 C8.13503038,41.3148858 7.89257666,40.9168375 7.67102413,40.5041242 C7.57696881,40.32605 7.45365183,40.1626407 7.37213722,39.9824715 C7.09833174,39.3749241 6.83497684,38.7610917 6.65731679,38.1137394 C6.45457532,37.3742076 6.30199669,36.6242008 6.21421173,35.861624 C6.16613901,35.4531008 6.14523783,35.0424825 6.16195877,34.6297693 C6.16613901,34.5375896 6.18076984,34.451695 6.23093268,34.3574204 Z M8.08486754,8.67073479 C8.13294026,8.69377969 8.13085014,8.74196448 8.11830943,8.78176931 C8.06814659,8.9493686 8.01380352,9.11277791 7.95946044,9.28037719 C7.93855926,9.28456717 7.92183832,9.29294714 7.93019879,9.31808703 C7.90929761,9.40398167 7.86331501,9.48149634 7.87585572,9.57367594 C7.85495453,9.57786592 7.83823359,9.5841509 7.84868418,9.61138578 L7.84450394,9.70356539 C7.79643122,9.71194535 7.79225099,9.74337022 7.80688181,9.78317505 C7.80688181,9.92144446 7.73790791,10.0471439 7.74417827,10.1854133 C7.7023759,10.2063632 7.6563933,10.2231232 7.68356484,10.2859729 C7.5184455,11.1030194 7.34914592,11.915876 7.24254989,12.7433974 L7.16119011,13.4772651 L7.02726772,14.9473281 C6.93112228,15.9152139 6.94784323,16.8830998 6.96456417,17.8530807 C6.96665429,17.9850651 6.98964559,18.1170496 7.0021863,18.249034 C6.97501476,18.2762689 6.97501476,18.3035038 7.00636654,18.3286437 C6.99591594,18.4616756 7.0021863,18.5941838 7.01394321,18.7261682 L7.05443925,19.1205503 C7.0941515,19.5437385 7.1401341,19.9648317 7.19656729,20.3859249 C7.26763131,20.9180526 7.37004711,21.4438954 7.46410243,21.9718332 C7.59159964,22.6841301 7.75253874,23.3922371 7.93437903,24.0919641 C8.10785884,24.7518863 8.34613232,25.3950486 8.57186508,26.0382108 C8.906284,26.9935268 9.30340646,27.9216078 9.73815105,28.8350239 C10.1561747,29.7170152 10.6264513,30.5696765 11.1385303,31.399293 C11.7676558,32.4216487 12.4657553,33.3979145 13.2265584,34.3239006 C13.9685503,35.2289367 14.7502545,36.102548 15.6113833,36.8986446 C16.9030763,38.0927895 18.2741939,39.1863749 19.7519075,40.1416908 C21.3153159,41.1577615 22.9665093,42.0020429 24.7033975,42.682915 C26.1455791,43.2485626 27.6316532,43.6570858 29.1386284,44.0006644 C29.592184,44.1054139 30.0582804,44.1452187 30.5160163,44.2206384 C30.9277696,44.2897731 31.3395229,44.3547178 31.7512762,44.4091876 C31.9979101,44.4427075 32.2466342,44.4804173 32.4974484,44.4699424 C32.5225298,44.5013672 32.5497013,44.4992722 32.5768729,44.4741323 L32.9334993,44.5089616 C33.0523748,44.5191746 33.1715115,44.5244121 33.2916933,44.5139372 C33.3314055,44.551647 33.3711178,44.549552 33.4129202,44.5181272 C34.2364267,44.5788819 35.0578432,44.5788819 35.8813498,44.5181272 C35.9127015,44.5411721 35.9398731,44.5411721 35.9649545,44.5118422 C36.2722019,44.5327921 36.575269,44.4783223 36.8804263,44.4615624 C37.2336563,44.4427075 37.5847961,44.3924277 37.9380261,44.3526229 C38.324698,44.3065331 38.7113698,44.2562533 39.0959516,44.2059735 C39.1586551,44.1975935 39.2171785,44.1808336 39.2924227,44.2059735 C39.2568907,44.3065331 39.1670156,44.3337679 39.0917714,44.3714778 C38.6486663,44.5935468 38.201381,44.8051409 37.7394649,44.9790252 C36.6567836,45.3875485 35.5448407,45.6955121 34.4057263,45.9008213 C33.7347984,46.0223307 33.0596902,46.1061304 32.3804018,46.1626952 C31.1096099,46.2674447 29.8367279,46.2925846 28.5617558,46.2632547 C28.3945463,46.2590647 28.229427,46.2213549 28.0622175,46.2423048 C28.0225053,46.204595 27.982793,46.20669 27.9409906,46.2381148 C27.3578477,46.19412 26.7767948,46.1564102 26.1936518,46.1019404 C25.3617848,46.0244257 24.5424584,45.8693964 23.7314925,45.6724672 C23.4555969,45.6054275 23.1713409,45.5593377 22.9017156,45.4692531 C22.6383607,45.3812635 22.3687355,45.3205087 22.1032905,45.249279 C21.8357553,45.1780493 21.5661301,45.0984397 21.3236764,44.9580753 C21.2881443,44.9371254 21.246342,44.9203654 21.2066297,44.9161755 C20.7760654,44.8721806 20.3956639,44.6752515 20.0048118,44.5139372 C19.6703928,44.3756678 19.3443344,44.2164484 19.0161858,44.0677041 C18.6253337,43.8896298 18.2470223,43.6906057 17.8624406,43.4999615 C16.5707475,42.8547042 15.3626592,42.0753676 14.2193645,41.1954713 C13.7051954,40.801613 13.2098374,40.3826148 12.7228399,39.9552366 C12.566081,39.8190622 12.4218628,39.6682228 12.2609237,39.5383334 C11.9620368,39.2974094 11.6986819,39.0208706 11.4269666,38.7506167 C11.2806583,38.6039673 11.1448006,38.444748 11.0068528,38.2876237 C10.6118205,37.8392956 10.214698,37.3930625 9.84474708,36.9216895 C8.93345554,35.7547795 8.09322801,34.5417796 7.39930876,33.2303152 C7.25091037,32.9495864 7.11505268,32.6625726 6.96874441,32.3797488 C6.63014526,31.7177317 6.33334847,31.0368596 6.05536274,30.3476075 C5.98847896,30.1800082 5.91950506,30.0103139 5.90696435,29.8259547 C5.90487423,29.7924349 5.89442364,29.754725 5.87561258,29.7274901 C5.67914146,29.4383814 5.59971697,29.1052778 5.51611224,28.7742692 C5.36562373,28.1792917 5.17542297,27.5968842 5.052106,26.9956218 C4.85563488,26.0403058 4.65707365,25.0849899 4.53793692,24.117104 C4.4104397,23.0842734 4.38535828,22.0451578 4.40834959,21.0039473 C4.42298041,20.3272652 4.46478278,19.652678 4.52121597,18.9780909 C4.6048207,17.9913501 4.72604756,17.0087993 4.95387044,16.0451034 C5.37607432,14.255981 5.95712719,12.5213284 6.76809306,10.8662854 C7.05861949,10.273403 7.37004711,9.69099544 7.7023759,9.12115787 C7.7818004,8.98288846 7.87794583,8.85299901 7.9657308,8.72101457 C7.99499245,8.67701976 8.02634423,8.64140491 8.08486754,8.67073479 Z M14.0145329,1.575 C14.0396144,1.72583936 14.0312539,1.84734884 14.0103527,1.96676333 C13.9539195,2.28310698 13.9037567,2.60154563 13.7929804,2.90322434 C13.6675733,3.24051791 13.6236808,3.59247641 13.5651575,3.94233992 C13.4836429,4.42209288 13.4042184,4.90394083 13.3352445,5.38578877 C13.2620904,5.88858663 13.1826659,6.39138449 13.1513141,6.89837233 C13.1199623,6.92351223 13.1199623,6.94865212 13.1450438,6.97798199 C13.1387734,7.09111151 13.0907007,7.20005105 13.1095117,7.31737055 C13.07816,7.34251044 13.0760699,7.36765034 13.1032414,7.39698021 C13.061439,7.77407861 13.0154564,8.151177 13.0217268,8.53246538 C12.9924651,8.55760527 12.9924651,8.58484015 13.0196367,8.61207504 C12.9318517,10.0534289 12.9527529,11.4926878 13.061439,12.9298517 C13.0342675,12.9570865 13.0342675,12.9843214 13.0656193,13.0094613 C13.0635291,13.317425 13.0844303,13.6232937 13.1429536,13.9228774 C13.2181979,14.3125458 13.2516398,14.7084991 13.2997125,15.1023574 C13.3665963,15.6491501 13.4773726,16.1875628 13.573518,16.7280705 C13.5985994,16.8726249 13.6195006,17.0171792 13.6424919,17.1617336 C13.6508524,17.2099184 13.6529425,17.2601982 13.6717535,17.304193 C13.8452334,17.6875764 13.8619543,18.1107646 13.9769108,18.5109079 C14.4952601,20.3167902 15.0930339,22.0891527 15.9311713,23.7756205 C16.3345642,24.586382 16.7421372,25.3950486 17.1936028,26.1806702 C17.8979726,27.40624 18.7110286,28.5501051 19.5805178,29.6604504 C20.485539,30.8147905 21.4616242,31.9041859 22.5275845,32.9097816 C23.3030183,33.6409335 24.1139842,34.3301855 24.9521216,34.9922027 C25.7254653,35.6018451 26.5385213,36.1507328 27.3682983,36.6744806 C28.9484276,37.6737913 30.6058914,38.5306426 32.3511401,39.2052298 C32.6353962,39.3162643 32.932193,39.397969 33.1997281,39.5529983 C33.216449,39.5634733 33.2394403,39.5718532 33.2582514,39.5739482 C33.5320569,39.5844232 33.7556995,39.7394525 34.0044236,39.8253471 C34.0086038,39.8442021 34.0148742,39.860962 34.0420457,39.852582 C34.2991303,39.8840069 34.541584,39.9782815 34.7861278,40.0537012 C35.8040154,40.3700448 36.8323536,40.6382037 37.8815929,40.8204679 C38.6821082,40.9608323 39.4868037,41.0823418 40.2956795,41.1724264 C41.0982849,41.262511 41.9008903,41.3232658 42.709766,41.3463107 C42.9877517,41.3546906 43.2636473,41.3924005 43.5395429,41.4259203 C43.6231477,41.4363953 43.7213832,41.4384903 43.7757263,41.5201949 C43.7631856,41.5830447 43.7151129,41.5851396 43.6774907,41.5956146 C43.1131588,41.744359 42.5634577,41.9496681 41.9907653,42.0711776 C41.1756192,42.2450618 40.358383,42.4126611 39.526516,42.4964608 C38.8827595,42.5614055 38.2390031,42.6095903 37.5910665,42.6431101 C36.5961702,42.6954849 35.5991838,42.6912949 34.6042875,42.666155 C33.6031209,42.6431101 32.6082246,42.5509305 31.6216888,42.3540014 C30.8044526,42.1905921 29.9767658,42.0690826 29.1741604,41.8344436 C28.5868372,41.6647493 27.9807029,41.5558098 27.4247314,41.2855559 C27.380839,41.264606 27.3327662,41.2520361 27.2846935,41.2478461 C27.1383853,41.2331811 27.0004374,41.1870913 26.8645798,41.1326216 C25.790259,40.7052434 24.7305691,40.2443454 23.7022309,39.7164076 C22.502503,39.1004802 21.369659,38.3798033 20.2848876,37.5816117 C19.655762,37.1186187 19.037087,36.6451507 18.4643946,36.1130229 C17.9815773,35.6646949 17.4966699,35.2142718 17.0493846,34.7282338 C16.8947158,34.5606346 16.7191459,34.4077002 16.5644772,34.2421959 C16.3909974,34.0557417 16.2237879,33.8567175 16.0544883,33.6639784 C15.4817959,33.0082462 14.9195541,32.342039 14.3970246,31.644407 C13.9434689,31.0410495 13.556797,30.3957923 13.1743054,29.7463451 C11.9662171,27.6974438 11.0486552,25.529128 10.4153494,23.2372078 C10.1749858,22.3635965 9.97642453,21.4795102 9.81339531,20.589139 C9.72143011,20.0821512 9.67335739,19.5688784 9.62319455,19.0556056 C9.52286887,18.0688648 9.4685258,17.082124 9.4685258,16.0911932 C9.4685258,15.3516613 9.52286887,14.6142245 9.57930207,13.8767876 C9.67126727,12.6721677 9.86564826,11.4843078 10.143634,10.3090178 C10.3296545,9.52130117 10.5700181,8.75034445 10.8208323,7.97938773 C10.9295184,7.64209417 11.0695564,7.31318057 11.1824227,6.98007699 C11.3559026,6.46889916 11.5837254,5.98495622 11.8031879,5.4968233 C12.3403482,4.29429842 12.954843,3.13157837 13.6696634,2.02542308 C13.7658089,1.87667872 13.8556839,1.71955438 14.0145329,1.575 Z M34.9582547,25.6883473 C37.3477394,25.6883473 39.2847994,27.6299234 39.2847994,30.0249789 C39.2847994,32.4200343 37.3477394,34.3616104 34.9582547,34.3616104 C32.56877,34.3616104 30.63171,32.4200343 30.63171,30.0249789 C30.63171,27.6299234 32.56877,25.6883473 34.9582547,25.6883473 Z" id="Combined-Shape" fill="#C4A880" fill-rule="nonzero"></path>
        </g>
    </g>
</svg>