<?xml version="1.0" encoding="UTF-8"?>
<svg width="48px" height="48px" viewBox="0 0 48 48" version="1.1" xmlns="http://www.w3.org/2000/svg" xmlns:xlink="http://www.w3.org/1999/xlink">
    <title>cuinter</title>
    <g id="Page-1" stroke="none" stroke-width="1" fill="none" fill-rule="evenodd">
        <g id="cuinter">
            <rect id="Rectangle" x="0" y="0" width="48" height="48"></rect>
            <path d="M6.99837209,43.7928025 C6.61953488,43.0539653 6.2972093,42.310942 6.00418605,41.5239653 C8.14953488,40.4021048 10.2781395,39.2865234 12.4381395,38.1562908 C12.3586047,38.1018722 12.3083721,38.0621048 12.2518605,38.0286164 C11.8144186,37.7669885 11.3748837,37.5116397 10.9395349,37.2458257 C10.7197674,37.1118722 10.5062791,36.9674536 10.2906977,36.823035 C10.1337209,36.7183839 9.99139535,36.6953606 9.80930233,36.7916397 C8.38604651,37.5304769 6.95651163,38.258849 5.53116279,38.9893141 C5.28209302,39.1169885 5.03511628,39.2425699 4.78604651,39.3681513 C4.73790698,39.3932676 4.6855814,39.4100118 4.63953488,39.430942 C4.38418605,39.1379187 3.62023256,37.5032676 3.59511628,37.185128 C3.67046512,37.1411746 3.75209302,37.090942 3.83790698,37.0469885 C5.11046512,36.3793141 6.38302326,35.7137327 7.65348837,35.0460583 C7.7372093,35.0021048 7.81674419,34.9476862 7.91511628,34.8869885 C7.45046512,34.3407094 6.93976744,33.8655932 6.51697674,33.2858257 C6.62581395,33.218849 6.70534884,33.1665234 6.78906977,33.1204769 C8.53046512,32.1932676 10.2676744,31.2555932 12.0153488,30.340942 C20.3937209,25.9497792 28.7762791,21.5628025 37.1567442,17.1758257 C37.2362791,17.1339653 37.315814,17.0900118 37.3890698,17.0481513 C37.4246512,16.6714071 36.867907,15.1393141 36.5727907,14.7897792 C36.1332558,14.9279187 5.46,31.0086164 5.17116279,31.2555932 C5.21093023,31.3225699 5.25069767,31.3958257 5.29465116,31.4648955 C5.62953488,31.963035 5.96860465,32.4569885 6.30139535,32.955128 C6.37046512,33.0555932 6.46255814,33.1518722 6.44162791,33.2858257 C5.15860465,33.9618722 3.88395349,34.6358257 2.58837209,35.3181513 C2.22418605,34.568849 1.8244186,33.8446629 1.5,33.0597792 C1.59209302,33.0053606 1.66534884,32.9572211 1.74488372,32.9153606 C2.69511628,32.415128 3.64534884,31.9169885 4.5955814,31.416756 C4.72325581,31.3497792 4.84883721,31.2744304 4.98906977,31.1928025 C4.95139535,31.1090815 4.92418605,31.0400118 4.89069767,30.973035 C4.5055814,30.1693141 4.09325581,29.3760583 3.77302326,28.543035 C3.23302326,27.1448955 2.86883721,25.7048955 2.68255814,24.216756 C2.54860465,23.140942 2.50674419,22.058849 2.58,20.980942 C2.88348837,16.5228025 4.55790698,12.6653606 7.67651163,9.45047688 C10.0876744,6.97024432 12.9948837,5.37117456 16.3416279,4.55280246 C17.0867442,4.37070944 17.8381395,4.20954665 18.604186,4.15931409 C19.1525581,4.1237327 19.7051163,4.11954665 20.2555814,4.13001177 C21.0153488,4.14466293 21.7751163,4.17605828 22.5327907,4.22210479 C23.3009302,4.27024432 24.0481395,4.4481513 24.7911628,4.64070944 C27.8030233,5.42559316 30.4423256,6.88024432 32.6839535,9.04443037 C34.1972093,10.5074536 35.4383721,12.1714071 36.3572093,14.0676862 C36.4388372,14.2372211 36.5309302,14.4004769 36.6209302,14.5679187 C36.6272093,14.5783839 36.6418605,14.5846629 36.6753488,14.6055932 C39.5762791,13.1321048 42.454186,11.5853606 45.3927907,10.1035001 C45.8113953,10.8255932 46.1651163,11.5560583 46.5,12.3241978 C46.4204651,12.3702443 46.3513953,12.4141978 46.2802326,12.4497792 C44.4886047,13.3874536 42.6948837,14.318849 40.9074419,15.2648955 C39.8776744,15.8090815 38.8604651,16.3762908 37.8390698,16.935128 C37.7490698,16.9853606 37.6632558,17.0439653 37.5648837,17.1046629 C37.7155814,17.7765234 37.864186,18.4421048 38.0127907,19.0972211 C38.1509302,19.1390815 38.2451163,19.0846629 38.3372093,19.0407094 C38.8018605,18.818849 39.2686047,18.5969885 39.7290698,18.3625699 C41.0267442,17.7011746 42.3223256,17.0314071 43.617907,16.3658257 C43.71,16.3176862 43.8062791,16.2758257 43.9234884,16.2214071 C44.34,16.9372211 44.7,17.6697792 45.0139535,18.4441978 C44.8925581,18.5111746 44.7962791,18.5655932 44.697907,18.6158257 C42.6467442,19.6874536 40.5955814,20.7590815 38.5444186,21.8328025 C38.494186,21.8579187 38.4460465,21.8872211 38.395814,21.9102443 C38.2911628,21.9562908 38.2388372,22.0295466 38.2346512,22.150942 C38.222093,22.506756 38.2011628,22.8604769 38.1739535,23.2162908 C38.1404651,23.6474536 38.0965116,24.0765234 38.0588372,24.5076862 C38.0525581,24.5746629 38.0588372,24.6437327 38.0588372,24.7483839 C38.1593023,24.7107094 38.2430233,24.6876862 38.3183721,24.6500118 C39.0006977,24.310942 39.6767442,23.9635001 40.3527907,23.6202443 C41.1230233,23.228849 41.8953488,22.8374536 42.6676744,22.4502443 C42.8811628,22.3435001 42.9,22.3497792 43.0297674,22.5590815 C43.1072093,22.6825699 43.1804651,22.8102443 43.2432558,22.9421048 C43.4713953,23.4193141 43.6953488,23.9007094 43.9193023,24.3800118 C43.9444186,24.4365234 43.9632558,24.495128 43.9925581,24.5725699 C43.9130233,24.6144304 43.8418605,24.6541978 43.7706977,24.6918722 C41.6860465,25.7781513 39.6034884,26.8644304 37.5188372,27.9507094 C37.4686047,27.9758257 37.4204651,28.003035 37.3702326,28.0281513 C37.225814,28.0972211 37.135814,28.2039653 37.0793023,28.360942 C36.4744186,30.0018722 35.6413953,31.5255932 34.5676744,32.9007094 C31.8153488,36.4295466 28.2613953,38.6941978 23.8597674,39.5962908 C22.3402326,39.9081513 20.8060465,40.0023373 19.2613953,39.9144304 C18.2086047,39.8537327 17.1683721,39.6800118 16.1427907,39.4372211 C15.8037209,39.3576862 15.5274419,39.3911746 15.2155814,39.5544304 C12.6265116,40.9065234 10.0290698,42.2439653 7.43372093,43.5835001 C7.29767442,43.6525699 7.15953488,43.7153606 6.99837209,43.7928025 Z M37.947907,19.5011746 C27.9704651,24.6583839 18.0432558,29.7925699 8.10976744,34.928849 C8.13906977,34.9769885 8.15162791,35.0021048 8.16837209,35.020942 C8.71046512,35.5860583 9.30697674,36.0883839 9.95162791,36.5341978 C10.0562791,36.6074536 10.142093,36.5739653 10.2404651,36.5237327 C10.7783721,36.2453606 11.3183721,35.9690815 11.8583721,35.6907094 C19.3890698,31.8039653 26.9218605,27.915128 34.4525581,24.0262908 C35.6413953,23.413035 36.8302326,22.7976862 38.0190698,22.1844304 C38.1969767,22.0923373 38.1948837,22.0902443 38.1760465,21.8976862 C38.1676744,21.8076862 38.1613953,21.7176862 38.1551163,21.6255932 C38.1132558,21.0562908 38.0713953,20.4848955 38.0253488,19.9155932 C38.0148837,19.7921048 37.9813953,19.6728025 37.947907,19.5011746 Z M37.9018605,25.1439653 C37.8872093,25.1335001 37.8704651,25.123035 37.855814,25.1125699 C37.677907,25.2025699 37.497907,25.2904769 37.32,25.3804769 C29.7872093,29.2776862 22.2523256,33.1728025 14.7195349,37.0721048 C14.1565116,37.363035 13.5955814,37.6602443 13.0367442,37.9595466 C12.93,38.0160583 12.8316279,38.0935001 12.6955814,38.1855932 C12.7960465,38.2379187 12.8546512,38.2714071 12.9153488,38.2965234 C13.737907,38.6418722 14.5667442,38.9704769 15.4227907,39.2258257 C15.6027907,39.2802443 15.7451163,39.2676862 15.9146512,39.1797792 C21.754186,36.1490815 27.595814,33.1246629 33.4374419,30.0960583 C34.5948837,29.4953606 35.7460465,28.8862908 36.9034884,28.2876862 C37.045814,28.2144304 37.135814,28.1181513 37.1839535,27.9716397 C37.2006977,27.9193141 37.2216279,27.8669885 37.2404651,27.8146629 C37.502093,27.0486164 37.6967442,26.2658257 37.857907,25.4725699 C37.8767442,25.3616397 37.8872093,25.2528025 37.9018605,25.1439653 Z" id="Shape" fill="#000000" fill-rule="nonzero"></path>
        </g>
    </g>
</svg>