<?xml version="1.0" encoding="UTF-8"?>
<svg width="48px" height="48px" viewBox="0 0 48 48" version="1.1" xmlns="http://www.w3.org/2000/svg" xmlns:xlink="http://www.w3.org/1999/xlink">
    <title>fastforex</title>
    <g id="Page-1" stroke="none" stroke-width="1" fill="none" fill-rule="evenodd">
        <g id="fastforex">
            <rect id="Rectangle" x="0" y="0" width="48" height="48"></rect>
            <path d="M8.30326038,21 C8.51429209,21 8.67507816,21.0703439 8.78561858,21.2110317 C8.88610987,21.3517195 8.9665029,21.5928986 9.00669942,21.9245199 L9.62974542,26.607414 L9.207682,26.607414 L8.94640464,24.6980795 L6.3738276,24.6980795 L5.4392586,26.6174632 L5.01719518,26.6174632 L7.29834748,21.934569 C7.45913354,21.6129969 7.60987048,21.3718178 7.75055828,21.2210808 C7.89124609,21.0703439 8.08217954,21 8.30326038,21 Z M6.14269763,21 L6.08240286,21.3416704 L4.17306833,21.3416704 C3.73090665,21.3416704 3.37918714,21.4421617 3.11790978,21.6431443 C2.85663243,21.8441268 2.6757481,22.1757481 2.6054042,22.6279589 L2.40442162,23.7635105 L5.2684234,23.7635105 L5.21817776,24.1051809 L2.33407771,24.1051809 L1.91201429,26.527021 L1.5,26.527021 L2.18334078,22.6179098 C2.28383207,22.0652077 2.49486378,21.6531934 2.80638678,21.391916 C3.12795891,21.1306387 3.58016972,21 4.15297008,21 L6.14269763,21 Z M8.25301474,21.4019652 C8.15252345,21.4019652 8.06208129,21.4321126 7.99173738,21.5125056 C7.91134435,21.5928986 7.83095132,21.7335864 7.73046003,21.934569 L6.53461367,24.3664582 L8.91625726,24.3664582 L8.584636,21.934569 C8.55448861,21.7335864 8.52434122,21.5928986 8.47409558,21.5125056 C8.42384993,21.4421617 8.35350603,21.4019652 8.25301474,21.4019652 Z M10.84569,26.4667262 C10.5442162,26.3159893 10.2929879,26.0848593 10.0920054,25.7632872 L10.4035284,25.512059 C10.5743636,25.8034837 10.7853953,26.0145154 11.0466726,26.1451541 C11.30795,26.2757928 11.619473,26.3461367 11.9912908,26.3461367 C12.3631085,26.3461367 12.6947298,26.2858419 12.9761054,26.1753015 C13.257481,26.0647611 13.488611,25.8939259 13.6393479,25.6828941 C13.800134,25.4718624 13.880527,25.2306833 13.880527,24.9493077 C13.880527,24.738276 13.8101831,24.5674408 13.6594462,24.4468513 C13.5187584,24.3262617 13.3378741,24.2358196 13.1368915,24.1755248 C12.9359089,24.11523 12.6243859,24.0448861 12.2123716,23.9644931 C11.7300134,23.8640018 11.3782939,23.7132649 11.157213,23.5223314 C10.9260831,23.3313979 10.8155427,23.0500223 10.8155427,22.6983028 C10.8155427,22.3666816 10.9059848,22.0652077 11.0868691,21.8139795 C11.2677535,21.5627512 11.5189817,21.3617686 11.8405538,21.2210808 C12.1621259,21.080393 12.5238946,21.0100491 12.9258598,21.0100491 C13.8302814,21.0100491 14.4131309,21.3014739 14.6744082,21.8843234 L14.3628852,22.1154533 C14.2322465,21.854176 14.0513622,21.6632425 13.800134,21.5326038 C13.5489058,21.4120143 13.2474319,21.3517195 12.9057615,21.3517195 C12.5942385,21.3517195 12.3028138,21.4019652 12.0515855,21.5125056 C11.8003573,21.623046 11.5993747,21.7838321 11.4586869,21.9848146 C11.3179991,22.1857972 11.2476552,22.4169272 11.2476552,22.6782046 C11.2476552,22.949531 11.3581956,23.1605628 11.5692273,23.3012506 C11.780259,23.4419384 12.1118803,23.5524788 12.554042,23.6429209 C12.9560071,23.7132649 13.2876284,23.803707 13.5288075,23.8941492 C13.7800357,23.9946405 13.9709692,24.1252791 14.1016079,24.2860652 C14.2322465,24.4468513 14.3025904,24.6679321 14.3025904,24.9392586 C14.3025904,25.2909781 14.2020992,25.592452 14.0111657,25.8537293 C13.8202322,26.1150067 13.5388566,26.3260384 13.1871371,26.4667262 C12.8354176,26.607414 12.4234033,26.6878071 11.9611434,26.6878071 C11.5189817,26.6878071 11.1471639,26.6174632 10.84569,26.4667262 Z M25.8791871,21.0100491 C26.5223314,21.0100491 27.0247879,21.1507369 27.3765074,21.4220634 C27.7282269,21.6933899 27.8990621,22.0853059 27.8990621,22.5777133 C27.8990621,22.7384993 27.889013,22.8892363 27.8588656,23.0198749 L27.5573917,24.7081286 C27.3162126,26.0446628 26.4821349,26.7179544 25.0250112,26.7179544 C24.3617686,26.7179544 23.8593122,26.5873158 23.5176418,26.3159893 C23.1759714,26.0446628 23.0051362,25.6627959 23.0051362,25.1603394 C23.0051362,24.9895042 23.0151854,24.8387673 23.0453327,24.7081286 L23.3468066,23.0198749 C23.5879857,21.6833408 24.4220634,21.0100491 25.8791871,21.0100491 Z M19.2668602,21 L19.2065654,21.3416704 L17.3776239,21.3416704 L16.4631532,26.527021 L16.0511389,26.527021 L16.9555605,21.3416704 L15.126619,21.3416704 L15.1969629,21 L19.2668602,21 Z M30.9941938,21 C31.5267977,21 31.9488611,21.1205895 32.250335,21.3617686 C32.561858,21.6029477 32.7125949,21.9446181 32.7125949,22.3767307 C32.722644,22.7585976 32.5920054,23.0902188 32.3508263,23.3916927 C32.1096472,23.6730683 31.7780259,23.8640018 31.3660116,23.9544439 C31.627289,24.034837 31.7981242,24.195623 31.8986155,24.4167039 C31.9991067,24.6377847 32.0694506,24.9392586 32.1096472,25.3110764 L32.2603841,26.527021 L31.084636,26.527021 L30.9338991,25.3010272 C30.9037517,25.049799 30.8635552,24.8588656 30.8133095,24.7181778 C30.7630639,24.57749 30.6826708,24.4669495 30.5721304,24.3966056 C30.46159,24.3262617 30.3008039,24.2860652 30.0897722,24.2860652 L29.295891,24.2860652 L28.903975,26.527021 L27.7885217,26.527021 L28.7632872,21 L30.9941938,21 Z M23.3267084,21 L23.1759714,21.8642251 L21.3269317,21.8642251 C21.0656543,21.8642251 20.8445735,21.9245199 20.6737383,22.0451094 C20.492854,22.165699 20.3823135,22.3867798 20.3320679,22.7083519 L20.2014292,23.4720858 L22.5529254,23.4720858 L22.3921393,24.3363109 L20.0406431,24.3363109 L19.6587762,26.5069227 L18.5433229,26.5069227 L19.2166146,22.7184011 C19.3070567,22.165699 19.5381867,21.7436356 19.8899062,21.4421617 C20.2516749,21.1406878 20.7742296,21 21.4776686,21 L23.3267084,21 Z M25.788745,21.8843234 C25.4169272,21.8843234 25.1255025,21.9848146 24.8943725,22.1757481 C24.6632425,22.3767307 24.5125056,22.6581063 24.4522108,23.0198749 L24.1507369,24.7081286 C24.1306387,24.8488164 24.1205895,24.9392586 24.1205895,24.9995534 C24.1205895,25.280929 24.2009826,25.4919607 24.3718178,25.6326485 C24.5326038,25.7733363 24.7737829,25.8537293 25.0953551,25.8537293 C25.4571237,25.8537293 25.7585976,25.7532381 25.9897276,25.5623046 C26.2208575,25.361322 26.3715945,25.0799464 26.4419384,24.7181778 L26.7434122,23.0299241 C26.7635105,22.8892363 26.7735596,22.7987941 26.7735596,22.7384993 C26.7735596,22.4571237 26.6931666,22.246092 26.5223314,22.1054042 C26.3615453,21.9647164 26.1103171,21.8843234 25.788745,21.8843234 Z M30.8836534,21.8742742 L29.7079053,21.8742742 L29.446628,23.4218401 L30.6223761,23.4218401 C30.9138008,23.4218401 31.1449308,23.3313979 31.3258151,23.1605628 C31.5066994,22.9796784 31.5971416,22.7585976 31.5971416,22.477222 C31.5971416,22.2762394 31.5267977,22.1255025 31.396159,22.0250112 C31.2655203,21.9245199 31.0946851,21.8742742 30.8836534,21.8742742 Z M39.2947745,21 L40.1087539,22.8389906 L41.5658776,21 L42.8019205,21 L40.5509156,23.8338544 L41.7467619,26.5169719 L40.4805717,26.5169719 L39.6766414,24.6980795 L38.2295668,26.5169719 L36.9935239,26.5169719 L39.2445288,23.7032157 L38.0386333,21 L39.2947745,21 Z M37.4557838,21.0100491 L37.3050469,21.8742742 L35.4560071,21.8742742 C35.1746315,21.8742742 34.9535507,21.934569 34.7927646,22.0652077 C34.6319786,22.1958464 34.511389,22.4169272 34.4611434,22.7184011 L34.3506029,23.3213488 L36.7020992,23.3213488 L36.5513622,24.1855739 L34.199866,24.1855739 L34.0893256,24.7885217 C34.0692273,24.8789638 34.0692273,24.969406 34.0692273,25.0397499 C34.0692273,25.2407325 34.1295221,25.3914694 34.2501117,25.4919607 C34.3707012,25.592452 34.5515855,25.6426976 34.8028138,25.6426976 L36.6619026,25.6426976 L36.5111657,26.5069227 L34.6520768,26.5069227 C34.0692273,26.5370701 33.6371148,26.4265297 33.3557392,26.215498 C33.0743636,26.0044663 32.9336757,25.6828941 32.9336757,25.2608307 C32.9336757,25.0899955 32.9437249,24.9392586 32.9738723,24.8086199 L33.34569,22.7284502 C33.4361322,22.1757481 33.6672622,21.7536847 34.0189817,21.4522108 C34.3807503,21.1507369 34.903305,21.0100491 35.6067441,21.0100491 L37.4557838,21.0100491 Z M46.5,21 L45.2036623,22.6480572 C45.0127289,22.8791871 44.7313533,23.0299241 44.4801251,23.0299241 L42.1989728,23.0299241 L43.5053595,21.3818669 C43.6862439,21.1507369 43.9676195,21 44.2288968,21 L46.5,21 Z M45.876954,21.3014739 L44.2188477,21.3014739 C44.0848593,21.3014739 43.9229567,21.3782381 43.8029254,21.4968736 L43.7364895,21.5728004 L42.8220188,22.7384993 L44.4801251,22.7384993 C44.6409111,22.7384993 44.8418937,22.6279589 44.9624833,22.4671728 L45.876954,21.3014739 Z" id="Combined-Shape" fill="#000000" fill-rule="nonzero"></path>
        </g>
    </g>
</svg>