<?xml version="1.0" encoding="UTF-8"?>
<svg width="48px" height="48px" viewBox="0 0 48 48" version="1.1" xmlns="http://www.w3.org/2000/svg" xmlns:xlink="http://www.w3.org/1999/xlink">
    <title>gb-no1currency</title>
    <g id="Page-1" stroke="none" stroke-width="1" fill="none" fill-rule="evenodd">
        <g id="gb-no1currency" fill-rule="nonzero">
            <rect id="Rectangle" x="0" y="0" width="48" height="48" rx="8"></rect>
            <path d="M7.69819555,33.0611631 C8.28634337,33.146302 8.62178897,33.5406295 8.62178897,34.1522852 C8.62178897,34.5936632 8.44288466,34.9319783 8.11414799,35.1089775 C7.90393544,35.2232429 7.56401729,35.2770148 7.27553412,35.2366859 C6.86405424,35.1806734 6.56662586,34.9543832 6.42797505,34.5914227 C6.36759485,34.4368284 6.34523183,34.0559438 6.38324894,33.8699826 C6.50177306,33.2964153 7.03624962,32.9670622 7.69819555,33.0611631 Z M13.4074788,21.9975878 L13.4074788,35.1941164 L10.3057256,35.1941164 L10.2900715,35.0215981 C10.2431091,34.5018028 10.0530233,33.9932099 9.76454015,33.6078444 C9.17415595,32.8259109 8.13874735,32.3867734 6.76118427,32.3330015 L6.38548527,32.3195585 L6.38548527,29.6152784 L7.92406219,29.6107974 L9.46040284,29.6040759 L9.46711172,25.8019521 L9.47158432,21.9975878 L13.4074788,21.9975878 Z M7.20397244,33.8162107 C7.11452029,33.9976909 7.13464698,34.4233854 7.23975328,34.5578152 C7.33591432,34.6765616 7.54165427,34.710169 7.67135987,34.6250302 C7.70043183,34.6048657 7.74963054,34.5466127 7.77646617,34.4928408 C7.81373788,34.4256259 7.82460881,34.3817495 7.82719713,34.2458156 L7.82790116,34.1522852 C7.82790116,33.9461595 7.82119222,33.8923876 7.78093877,33.8162107 C7.64899684,33.5630344 7.32696911,33.5630344 7.20397244,33.8162107 Z M0.75,32.4046974 L0.75,29.5928734 L1.55506932,29.5928734 L2.36013865,29.5928734 L2.36013865,31.127614 C2.36013865,31.9722814 2.36684756,32.6623546 2.37802908,32.6623546 C2.38697429,32.6623546 2.77609113,31.9745219 3.2434786,31.132095 L4.0955103,29.6040759 L4.92741527,29.5973544 L5.75932024,29.5928734 L5.75932024,32.4046974 L5.75932024,35.2165214 L4.95425092,35.2165214 L4.14918159,35.2165214 L4.14918159,33.7131477 C4.14918159,32.8886448 4.14023638,32.2164956 4.13129116,32.2232171 C4.12010964,32.2299386 3.75111954,32.9043283 3.30833141,33.7243503 L2.50549839,35.2142809 L1.62886735,35.2165214 L0.75,35.2165214 L0.75,32.4046974 Z M3.52286212,20.3900955 C2.44943635,20.2758302 1.5638601,19.6731364 1.1188357,18.7545325 C0.922040966,18.346762 0.84153402,17.9569155 0.84153402,17.4214367 C0.84153402,16.8501099 0.930986177,16.4535419 1.15685282,16.0144044 C1.57727792,15.1988635 2.3443301,14.6611441 3.32159478,14.4931068 C3.71518425,14.4258919 4.32793147,14.4415754 4.70363047,14.5289548 C5.69207669,14.7574855 6.36744039,15.3288123 6.70288599,16.2227707 C6.76102985,16.3751245 6.84153402,16.7111991 6.84377308,16.800819 L6.84377308,16.8501099 L5.81507341,16.8501099 L4.78637369,16.8501099 L4.78637369,16.7940975 C4.78637369,16.7156801 4.70139419,16.4961113 4.62759613,16.390808 C4.46434596,16.1510748 4.26531495,16.0390499 3.97683178,16.0256069 C3.49602649,16.0009615 3.1896529,16.2406947 3.05100203,16.7492875 C2.99733077,16.9464513 2.98167663,17.6925369 3.02640273,17.9479535 C3.08901921,18.2997116 3.2097796,18.5394448 3.39315652,18.6738746 C3.75543769,18.9360128 4.33464036,18.8800004 4.57839747,18.5551283 C4.62088725,18.5013564 4.67455851,18.387091 4.70139419,18.2929901 L4.75059285,18.1271933 L5.7658747,18.1271933 L6.78339288,18.1271933 L6.76773879,18.2705851 C6.70735859,18.8732789 6.36967672,19.4647701 5.88216254,19.8299712 C5.29177834,20.2668681 4.39054795,20.4819559 3.52286212,20.3900955 L3.52286212,20.3900955 Z M17.1330063,20.3856145 C16.9496294,20.360969 16.7505984,20.2937541 16.5940571,20.2041342 C16.4084439,20.1010714 16.1065429,19.7851613 15.9790736,19.5655925 C15.9186934,19.4647701 15.8627858,19.3751503 15.8516043,19.3684288 C15.8426591,19.3617073 15.8337139,19.563352 15.8337139,19.8165282 L15.8337139,20.2780706 L14.7938327,20.2780706 L13.7539515,20.2780706 L13.7539515,17.4326392 L13.7539515,14.5872077 L14.8385588,14.5872077 L15.923166,14.5872077 L15.923166,15.8486077 C15.923166,17.192906 15.9343476,17.3855887 16.0372175,17.7014988 C16.1870499,18.1585603 16.4688241,18.4296604 16.8959582,18.5192803 C17.1911502,18.5820143 17.6585377,18.5551283 17.9313668,18.4610274 C17.9984558,18.4386225 18.0633086,18.418458 18.0744902,18.418458 C18.0834354,18.418458 18.0923806,18.8463929 18.0923806,19.3706693 L18.0923806,20.3206401 L18.0051648,20.3452856 C17.7703529,20.4080195 17.4058354,20.4259435 17.1330063,20.3856145 L17.1330063,20.3856145 Z M21.8337166,20.392336 C21.6413945,20.360969 21.4222368,20.2847921 21.2679318,20.1951722 C21.0197021,20.04954 20.7491094,19.7493133 20.599277,19.4535677 C20.5724414,19.4020362 20.5411331,19.3639478 20.5299516,19.3706693 C20.5165338,19.3796313 20.5075886,19.5700735 20.5075886,19.8322117 L20.5075886,20.2780706 L19.4788889,20.2780706 L18.4501892,20.2780706 L18.4501892,17.4326392 L18.4501892,14.5872077 L19.5236149,14.5872077 L20.5970407,14.5872077 L20.5970407,15.6917728 C20.5970407,16.2967071 20.6082222,16.9262868 20.6194037,17.0876026 C20.6820203,17.8964221 20.9459041,18.3265976 21.4848533,18.4991158 C21.7196652,18.5752928 22.4978989,18.5551283 22.4978989,18.4744704 C22.4978989,18.4587869 22.4822447,18.405015 22.4643543,18.3534835 C22.3212309,17.9434725 22.2921589,17.2242729 22.3995015,16.6999966 C22.6320771,15.552862 23.4639821,14.768688 24.7163121,14.5155118 C24.9399424,14.4707019 25.0316309,14.4639804 25.5169088,14.4639804 C25.9999504,14.4662209 26.0938752,14.4729424 26.2996151,14.5177523 C27.2724072,14.7261185 27.9388257,15.2078254 28.3122884,15.967354 C28.3749049,16.0905813 28.4241036,16.2003657 28.4241036,16.2070872 C28.4241036,16.2160492 27.9723702,16.2227707 27.4222395,16.2227707 L26.4203755,16.2227707 L26.3175055,16.1241888 C25.9865326,15.8082787 25.3581313,15.7388233 24.928761,15.971835 C24.6604045,16.1174673 24.4009933,16.5566048 24.398757,16.8680339 L24.398757,16.9397298 L26.4785194,16.9397298 L28.5582818,16.9397298 L28.5471003,17.170501 C28.4867201,18.2638637 28.2675623,18.9404938 27.7845207,19.5050991 C27.4557841,19.8927051 26.8721088,20.2041342 26.2571253,20.3228806 C25.5392719,20.4617914 24.8124732,20.4281839 24.2489246,20.2310202 C23.7122117,20.0428185 23.1643173,19.635048 22.8870157,19.2138345 C22.8422896,19.1466196 22.7953272,19.0906071 22.786382,19.0906071 C22.7752005,19.0906071 22.764019,19.3706693 22.7617827,19.7112249 L22.7550738,20.3318426 L22.6208955,20.360969 C22.4509365,20.396817 21.9857853,20.414741 21.8337166,20.392336 L21.8337166,20.392336 Z M25.8143372,18.9785823 C26.1699095,18.8687979 26.4270844,18.5528878 26.4718105,18.1675223 L26.4852283,18.0599784 L25.4408745,18.0599784 C24.8683808,18.0599784 24.398757,18.0666999 24.398757,18.0734214 C24.398757,18.0801429 24.4144111,18.1495983 24.4345379,18.2257752 C24.5351715,18.6201027 24.8102368,18.9001648 25.1881722,18.9920252 C25.3715491,19.0368352 25.6466144,19.0301137 25.8143372,18.9785823 L25.8143372,18.9785823 Z M32.4829948,20.387855 C31.9149736,20.3116781 31.461004,20.0764259 31.1389762,19.6910604 C31.078596,19.6193645 31.0226885,19.5611116 31.0137432,19.5611116 C31.004798,19.5611116 30.9958528,19.7224273 30.9958528,19.9195911 L30.9958528,20.2780706 L29.9559716,20.2780706 L28.9160904,20.2780706 L28.9160904,17.4326392 L28.9160904,14.5872077 L30.0006977,14.5872077 L31.0830686,14.5872077 L31.0920139,16.2720616 C31.0987228,18.0935859 31.0942502,18.0151685 31.2194832,18.2593826 C31.3648429,18.5484068 31.6756891,18.7097226 32.0245525,18.6805961 C32.3577618,18.6537102 32.5277209,18.5013564 32.6216456,18.1451173 C32.6529539,18.0218899 32.6596627,17.8000807 32.6663717,16.2967071 L32.6753169,14.5872077 L33.7487427,14.5872077 L34.8221684,14.5872077 L34.8154595,16.7313635 C34.8087506,18.8665574 34.8065143,18.8777599 34.7573156,19.0569996 C34.576175,19.7179464 34.097606,20.1839697 33.4289512,20.3452856 C33.2120298,20.3990575 32.7222793,20.4214625 32.4829948,20.387855 L32.4829948,20.387855 Z M38.7848985,14.4729424 C39.4557897,14.5625622 40.0372286,14.8269409 40.4643626,15.2347114 C40.8668973,15.6223174 41.1106545,16.0883408 41.2247057,16.6932751 L41.2560141,16.8501099 L39.1851969,16.8501099 L39.171779,16.7492875 C39.1471797,16.5924527 39.0152378,16.350479 38.8900048,16.2384542 C38.722282,16.0883408 38.6015217,16.0368094 38.3711824,16.0256069 C37.8791955,16.0009615 37.566113,16.2541376 37.4431163,16.778414 C37.3849724,17.0248687 37.3849724,17.8157642 37.4431163,18.0599784 C37.5504589,18.5237613 37.7740893,18.756773 38.1743876,18.8262285 C38.2973843,18.8463929 38.3667097,18.8463929 38.4897065,18.8262285 C38.8318609,18.7679755 39.0353646,18.5775333 39.1136352,18.2459397 L39.1404708,18.1271933 L41.1866884,18.1271933 L41.166562,18.2795471 C41.1553806,18.3624455 41.1263085,18.5035968 41.1017089,18.5954573 C40.8467708,19.5431876 40.1020814,20.1593243 38.979457,20.3542475 C38.7334635,20.396817 38.1453157,20.4169815 37.9172127,20.392336 C37.3737909,20.3273616 36.8594411,20.1391598 36.4300708,19.8456547 C36.0901526,19.6104025 35.732344,19.19367 35.5377856,18.8038235 C35.2985011,18.3265976 35.1844496,17.6701319 35.2425935,17.1032861 C35.3767717,15.7769117 36.2288034,14.8269409 37.5594041,14.5177523 C37.816579,14.4594994 38.4919427,14.4348539 38.7848985,14.4729424 Z M43.3111772,12.7746455 C43.7696197,12.8261769 44.1319006,12.9606067 44.4181477,13.186897 C44.7446477,13.4423136 44.9928775,13.8904131 45.2925422,14.755245 C45.3596316,14.9524088 45.8247823,16.2586186 46.3257145,17.6566889 C46.8266467,19.0547592 47.2425988,20.2175772 47.2493082,20.2399822 C47.2561485,20.2673954 47.2211413,20.2751557 46.7332735,20.2772899 L46.4744513,20.2779265 C46.4254561,20.2779831 46.3734071,20.2780191 46.3181172,20.278041 L45.0264222,20.2780706 L44.5724523,18.6604316 C44.3219862,17.7687138 44.1095373,17.0315902 44.0983559,17.0203877 C44.0913747,17.0108194 44.0884388,17.009227 44.0818446,17.0231693 L44.0719345,17.0481865 C44.035491,17.1505855 43.932124,17.5215122 43.5862424,18.765735 L43.168054,20.2668681 L42.0141212,20.2735896 L41.8697671,20.2740271 L41.3550732,20.2741862 C41.0552762,20.2734438 40.8579522,20.2710045 40.8579522,20.2668681 C40.8579522,20.2422227 41.8285076,17.6141195 42.0610835,17.0069447 C42.3518031,16.2474162 42.5933236,15.584229 42.6939576,15.2593569 C42.7990636,14.9165608 42.785646,14.7305995 42.6402859,14.5939292 C42.5172891,14.4751829 42.4434915,14.4639804 41.8933607,14.4707019 L41.3946648,14.4751829 L41.3946648,12.75 L42.2444603,12.75 C42.7140841,12.75 43.192653,12.7612025 43.3111772,12.7746455 Z M7.22841733,18.1003074 L7.23512621,15.9203036 L7.2865612,15.7522663 C7.48335593,15.1137246 7.92838039,14.6902706 8.59927148,14.5065498 C8.77817579,14.4572589 9.34619691,14.4393349 9.60337184,14.4729424 C10.1289032,14.5446383 10.5962907,14.7933335 10.8959554,15.160775 L11.0144794,15.3086478 L11.0211884,14.9479278 L11.025661,14.5872077 L12.0655422,14.5872077 L13.1054234,14.5872077 L13.1054234,17.4326392 L13.1054234,20.2780706 L12.0319976,20.2780706 L10.9585718,20.2780706 L10.9585718,18.6716342 C10.9585718,17.3609433 10.951863,17.0338307 10.9250273,16.9106033 C10.8243936,16.4356179 10.5403831,16.1757202 10.1087764,16.1689988 C9.86501938,16.1645178 9.73978638,16.2093277 9.60560812,16.3437575 C9.48261145,16.4692254 9.43341274,16.5857312 9.3931593,16.8613124 C9.37974148,16.9554133 9.37079627,17.6723724 9.37079627,18.6492291 L9.37079627,20.2780706 L8.2973705,20.2780706 L7.2217084,20.2780706 L7.22841733,18.1003074 Z" id="Combined-Shape" fill="#D8262E" transform="translate(24.000000, 24.000000) scale(1, -1) translate(-24.000000, -24.000000) "></path>
        </g>
    </g>
</svg>