<?xml version="1.0" encoding="UTF-8"?>
<svg width="48px" height="48px" viewBox="0 0 48 48" version="1.1" xmlns="http://www.w3.org/2000/svg" xmlns:xlink="http://www.w3.org/1999/xlink">
    <title>gb-postoffice</title>
    <g id="Page-1" stroke="none" stroke-width="1" fill="none" fill-rule="evenodd">
        <g id="gb-postoffice" fill-rule="nonzero">
            <rect id="Rectangle" x="0" y="0" width="48" height="48"></rect>
            <path d="M24.0012,7.125 C36.4269,7.125 46.5,14.6789538 46.5,23.9996247 C46.5,33.3205959 36.4269,40.875 24.0012,40.875 C11.57595,40.875 1.5,33.3205959 1.5,23.9997748 C1.5,14.6791039 11.57595,7.125 24.0012,7.125 Z M32.23245,24.0715243 C30.12075,24.0743762 28.47015,25.7047994 28.4654852,27.870041 C28.4616,29.9798945 29.9931,31.6666064 32.2326,31.6666064 C33.07335,31.6666064 33.8349,31.5002919 34.4481,31.0471297 L34.4481,30.0148686 C33.7461,30.4953496 33.1896,30.67022 32.2326,30.67022 C30.69435,30.67022 29.59425,29.4941599 29.5821,27.870041 C29.57115,26.206445 30.6192,25.0769169 32.2326,25.068361 C33.2901,25.0650587 33.97035,25.3712697 34.4481,25.7246131 L34.4481,24.6947536 C33.8283,24.2373885 33.07335,24.0715243 32.23245,24.0715243 Z M10.0644,24.0715243 C7.91760001,24.0715243 6.2997,25.7046493 6.2997,27.870041 C6.2997,30.0333313 7.91760001,31.6666064 10.0644,31.6666064 C12.21015,31.6666064 13.8294,30.0333313 13.8294,27.870041 C13.8294,25.7047994 12.21015,24.0715243 10.0644,24.0715243 Z M40.3641,24.2558513 L35.66805,24.2558513 L35.66805,31.4870827 L40.54305,31.4870827 L40.54305,30.4891953 L36.7218,30.4891953 L36.7218,28.2871784 L40.04685,28.2871784 L40.04685,27.2898914 L36.7218,27.2898914 L36.7218,25.251337 L40.3641,25.251337 L40.3641,24.2558513 Z M19.3845,24.2558513 L14.87145,24.2558513 L14.87145,31.4870827 L15.92805,31.4870827 L15.92805,28.3996058 L19.01475,28.3996058 L19.01475,27.4018685 L15.92805,27.4018685 L15.92805,25.251337 L19.3845,25.251337 L19.3845,24.2558513 Z M25.02135,24.2558513 L20.50695,24.2558513 L20.50695,31.4870827 L21.564,31.4870827 L21.564,28.3996058 L24.6489,28.3996058 L24.6489,27.4018685 L21.564,27.4018685 L21.564,25.251337 L25.02135,25.251337 L25.02135,24.2558513 Z M27.25155,24.255551 L26.19585,24.255551 L26.196,31.4867826 L27.25155,31.4867826 L27.25155,24.255551 Z M10.06425,25.068361 C11.5992,25.068361 12.7092,26.2462224 12.7092,27.870041 C12.7092,29.4941599 11.5992,30.67022 10.0644,30.67022 C8.53050001,30.67022 7.41675001,29.49431 7.41675001,27.870041 C7.41675001,26.2462224 8.53050001,25.068361 10.06425,25.068361 Z M28.9146,14.6229635 C27.1191,14.6238659 26.4516,15.8754281 26.4516,16.6634709 C26.45145,18.1371111 27.4028125,18.5414334 28.3330525,18.8431186 L28.5855,18.9235779 C29.32575,19.1598406 30.0312,19.4060103 30.0312,20.0895812 C30.0312,20.8081261 29.25315,21.1715265 28.5855,21.1814333 C27.89475,21.1904395 27.1275,20.858711 26.5752,20.4655902 L26.57715,21.523519 C27.1101,21.9661739 27.858,22.2249522 28.5642,22.2184977 C30.0486,22.2042379 31.13115,21.2791506 31.13115,19.9624436 C31.13115,18.5315078 30.0117,18.2272482 29.06475,17.9375487 C28.26075,17.6909287 27.53595,17.4552664 27.53595,16.6634709 C27.53595,16.276054 27.8532,15.6187512 28.91445,15.6187512 C29.46135,15.6187512 29.8635,15.699657 30.56505,16.1399103 L30.6369,16.1894444 L30.63975,15.1289639 C30.21,14.7981359 29.58915,14.6225149 28.9146,14.6229635 Z M21.94575,14.6235657 C19.80135,14.6235657 18.18105,16.2559402 18.18105,18.4201311 C18.18105,20.5862733 19.80135,22.2186479 21.94575,22.2186479 C24.09105,22.2186479 25.7094,20.5862733 25.7094,18.4201311 C25.7094,16.2559402 24.0909,14.6235657 21.94575,14.6235657 Z M37.17675,14.8048906 L31.52595,14.8048906 L31.52595,15.8021776 L33.82365,15.8021776 L33.82365,22.0352215 L34.8789,22.0352215 L34.8789,15.8021776 L37.17675,15.8021776 L37.17675,14.8048906 Z M15.30135,14.8048906 L12.7473,14.8048906 L12.74715,22.0352215 L13.80465,22.0352215 L13.80465,19.103702 L15.30135,19.103702 C17.46735,19.103702 17.63505,17.4570677 17.63505,16.9530204 C17.63505,16.4503241 17.4675,14.8048906 15.30135,14.8048906 Z M21.94575,15.6190514 C23.47965,15.6190514 24.59325,16.7963125 24.59325,18.4201311 C24.59325,20.0439497 23.47965,21.2218111 21.94575,21.2218111 C20.41275,21.2218111 19.2972,20.0439497 19.2972,18.4201311 C19.2972,16.7963125 20.41275,15.6190514 21.94575,15.6190514 Z M15.13515,15.7394344 C15.6909,15.7394344 16.6209,15.8976434 16.6209,16.9530204 C16.6209,18.0080972 15.6909,18.1654056 15.13515,18.1654056 L13.80465,18.1654056 L13.80465,15.7394344 L15.13515,15.7394344 Z M44.4982499,7.46933721 C44.9628,7.46933721 45.35475,7.63294992 45.6757501,7.96122607 C45.9967499,8.28815128 46.1568001,8.68877727 46.1568001,9.15785041 C46.1568001,9.62512231 45.9967499,10.023947 45.6738,10.3546249 C45.3527999,10.682901 44.9599499,10.8474143 44.4982499,10.8474143 C44.0341501,10.8474143 43.6422001,10.682901 43.31985,10.3522232 C42.9969001,10.0219957 42.8353501,9.62422169 42.8353501,9.15785041 C42.8353501,8.68877727 42.9969001,8.28995252 43.31985,7.96212669 C43.6423499,7.63279982 44.0341501,7.46933721 44.4982499,7.46933721 Z M44.4981001,7.75423347 C44.1170999,7.75423347 43.7938501,7.89262881 43.5270001,8.16251473 C43.2627,8.4342019 43.1286,8.76758155 43.1234999,9.15785041 C43.1286,9.54721864 43.2627,9.87684571 43.5270001,10.1500339 C43.7938501,10.424573 44.11725,10.5614673 44.4982499,10.5614673 C44.8807499,10.5614673 45.2055001,10.424573 45.4746001,10.1500339 C45.7404,9.87684571 45.8720999,9.54721864 45.8683501,9.15785041 C45.8720999,8.76863228 45.7404,8.43690376 45.4746001,8.16386566 C45.2055001,7.89262881 44.8806001,7.75423347 44.4981001,7.75423347 Z M44.3848499,8.34759223 C44.8117501,8.34759223 45.0246001,8.50640163 45.0246001,8.8267223 C45.0246001,9.02846127 44.9377501,9.16925826 44.7691499,9.25091452 L45.20265,9.97846572 L44.8689001,9.97846572 L44.484,9.3204124 C44.4563017,9.32401197 44.4283763,9.32556724 44.4004501,9.3250656 C44.3589,9.3250656 44.3211,9.32326436 44.2876499,9.3204124 L44.2876499,9.97846572 L43.9972501,9.97846572 L43.9972501,8.34759223 L44.3848499,8.34759223 Z M44.3928001,8.60892226 L44.2876499,8.60892226 L44.2876499,9.06013309 C44.3258999,9.06298505 44.367,9.06298505 44.4121501,9.06298505 C44.6262,9.06298505 44.7333,8.98688263 44.7333,8.83332685 C44.7333,8.68397396 44.6200501,8.60892226 44.3928001,8.60892226 Z" id="Combined-Shape" fill="#E51636"></path>
        </g>
    </g>
</svg>