<?xml version="1.0" encoding="UTF-8"?>
<svg width="48px" height="48px" viewBox="0 0 48 48" version="1.1" xmlns="http://www.w3.org/2000/svg" xmlns:xlink="http://www.w3.org/1999/xlink">
    <title>gb-sainsbury</title>
    <g id="Page-1" stroke="none" stroke-width="1" fill="none" fill-rule="evenodd">
        <g id="gb-sainsbury" fill-rule="nonzero">
            <rect id="Rectangle" x="0" y="0" width="48" height="48"></rect>
            <path d="M8.96404973,21.8392857 C8.39339614,21.8392857 7.73753898,21.9503069 7.31467676,22.1503946 C7.19896818,22.2105207 7.15636639,22.3010841 7.15636639,22.3911485 L7.15636639,22.8419696 C7.15636639,22.9836776 7.27286386,23.0430552 7.3365036,23.0430552 C7.4629941,23.0430552 7.5581907,22.932533 7.62156743,22.8926152 C8.01260978,22.6428798 8.40365213,22.4709841 8.92197391,22.4709841 C9.56599726,22.4709841 9.66145683,22.8721574 9.66145683,23.3641436 L9.659616,23.3826056 C9.659616,23.6123821 9.57704219,23.6550442 8.65768503,23.7655664 C8.09728743,23.8356719 6.81818182,24.0764258 6.81818182,25.1691741 C6.81818182,26.0715647 7.57896565,26.5535714 8.46729183,26.5535714 C8.95353078,26.5535714 9.35482912,26.3517373 9.69353966,26.0715647 L9.71457757,26.3322774 C9.71457757,26.402383 9.76769831,26.4525296 9.82029312,26.4525296 L10.7819891,26.4525296 C10.8160236,26.453803 10.8490756,26.4415516 10.8731853,26.4187259 C10.897295,26.3959002 10.9102772,26.3645688 10.9090055,26.3322774 L10.9090055,23.2137036 C10.9087426,22.4008785 10.4537975,21.8392857 8.96404973,21.8392857 L8.96404973,21.8392857 Z M9.68181818,25.6356243 C9.68181818,25.7781912 9.31791676,26.1607143 8.82626558,26.1607143 C8.2593427,26.1607143 8.04545455,25.7454576 8.04545455,25.330742 C8.04545455,24.7415375 8.4941691,24.1964286 9.68181818,24.1964286 L9.68181818,25.6356243 Z M12.3505324,20.2678571 C11.9290064,20.2678571 11.7272727,20.5320284 11.7272727,20.8369963 C11.7272727,21.2024039 11.9762915,21.4464286 12.3505324,21.4464286 C12.7245358,21.4464286 12.9545455,21.202152 12.9545455,20.8369963 C12.9545455,20.5320284 12.753287,20.2678571 12.3505324,20.2678571 Z M12.1363636,21.9660544 L12.1363636,26.4278289 C12.1363636,26.5000496 12.1886781,26.553498 12.2404772,26.553498 L13.238834,26.553498 C13.2721651,26.5546673 13.304487,26.5418208 13.3281186,26.5180113 C13.3517503,26.4942017 13.3645819,26.4615549 13.3635642,26.4278289 L13.3635642,21.9660544 C13.3647196,21.9321947 13.3519674,21.8993619 13.3283368,21.8753559 C13.3047062,21.8513498 13.2723063,21.838313 13.238834,21.8393424 L12.2404772,21.8393424 C12.1886781,21.8396031 12.1363636,21.8930516 12.1363636,21.9660544 L12.1363636,21.9660544 Z M1.68042081,26.164841 C3.46306253,27.0049983 6,26.5160932 6,24.3771992 C6,22.4089209 2.63591467,22.5360257 2.63591467,21.3224651 C2.63591467,20.8332962 3.10274692,20.5039314 3.69687316,20.5039314 C4.22761544,20.5039314 4.63106371,20.6848316 5.05555231,20.994155 C5.17258913,21.0782762 5.2470193,21.1318079 5.34196377,21.1318079 C5.45900059,21.1318079 5.4905611,21.05718 5.4905611,20.9609284 L5.4905611,20.3449185 C5.4905611,20.2481396 5.46952073,20.1946079 5.37378724,20.1524154 C5.01294566,20.0147625 4.37621276,19.875 3.67556984,19.875 C2.26455289,19.875 1.5,20.7483839 1.5,21.7380608 C1.5,23.8872392 4.8112215,23.441054 4.8112215,24.8988035 C4.8112215,25.7822081 3.5377557,26.3990091 2.06282875,25.3658213 C1.92475161,25.2706245 1.86084161,25.2176202 1.76563413,25.2176202 C1.58521333,25.2176202 1.55286382,25.3138718 1.55286382,25.4093323 L1.55286382,25.951769 C1.55260082,26.0474932 1.57443016,26.1015523 1.68042081,26.164841 L1.68042081,26.164841 Z M14.1818182,22.0657761 L14.1818182,26.4305623 C14.1818182,26.501213 14.2379974,26.5534997 14.2944562,26.5534997 L15.3772345,26.5534997 C15.4133841,26.5546435 15.4484391,26.5420762 15.4740691,26.5187842 C15.499699,26.4954923 15.5136156,26.4635552 15.5125119,26.4305623 L15.5125119,22.910014 C15.7271669,22.7965137 16.1779985,22.591193 16.5611913,22.591193 C17.3060555,22.591193 17.3510548,23.0025996 17.3510548,23.3522824 L17.3510548,26.4305623 C17.3510548,26.501213 17.407234,26.5534997 17.4639723,26.5534997 L18.5470301,26.5534997 C18.5831081,26.5545753 18.6180633,26.5419687 18.6435879,26.5186762 C18.6691125,26.4953837 18.6829272,26.4634853 18.6817485,26.4305623 L18.6817485,23.2497496 C18.6817485,22.415969 18.1970976,21.8392857 17.1137603,21.8392857 C16.4935526,21.8392857 15.8392459,22.1172976 15.5010524,22.3029789 L15.4786925,22.3029789 L15.4786925,22.0657761 C15.4800294,22.0326309 15.4662258,22.000467 15.4405782,21.9769656 C15.4149307,21.9534643 15.3797418,21.9407353 15.3434151,21.9418185 L14.2944562,21.9418185 C14.2379974,21.9420736 14.1818182,21.9943602 14.1818182,22.0657761 L14.1818182,22.0657761 Z M22.7733498,22.0964112 C21.3737253,21.5504556 19.5,21.8438161 19.5,23.266602 C19.5,24.8714564 22.2130731,24.538331 22.2130731,25.4064079 C22.2130731,26.1034204 20.9319071,26.1736969 20.0061166,25.5069458 C19.9412846,25.457177 19.8767194,25.4274158 19.8012154,25.4274158 C19.6939624,25.4274158 19.6291304,25.4674309 19.6291304,25.6082339 L19.6291304,26.001382 C19.6291304,26.1131741 19.6611462,26.2037082 19.7908103,26.2637308 C20.9855336,26.7689211 23.1818182,26.779425 23.1818182,24.9219755 C23.1818182,23.3273749 20.4364624,23.6907617 20.4364624,22.8937115 C20.4364624,22.2379646 21.7821937,22.2984874 22.5577767,22.7921733 C22.6220751,22.8326886 22.7079842,22.8732038 22.7621443,22.8732038 C22.8693972,22.8732038 22.9344961,22.8326886 22.9344961,22.6916354 L22.9344961,22.3582599 C22.9350296,22.247218 22.9022134,22.14618 22.7733498,22.0964112 L22.7733498,22.0964112 Z M46.0907905,22.0964112 C44.6919025,21.5504556 42.8181818,21.8438161 42.8181818,23.266602 C42.8181818,24.8714564 45.5311287,24.538331 45.5311287,25.4064079 C45.5311287,26.1034204 44.2498814,26.1736969 43.3242252,25.5069458 C43.259669,25.457177 43.1951133,25.4274158 43.1193537,25.4274158 C43.0115828,25.4274158 42.9472934,25.4674309 42.9472934,25.6082339 L42.9472934,26.001382 C42.9472934,26.1131741 42.9795715,26.2037082 43.108683,26.2637308 C44.3029666,26.7689211 46.5,26.779425 46.5,24.9219755 C46.5,23.3273749 43.7547754,23.6907617 43.7547754,22.8937115 C43.7547754,22.2379646 45.1000447,22.2984874 45.8752486,22.7921733 C45.9398044,22.8326886 46.0257012,22.8732038 46.0795867,22.8732038 C46.1873576,22.8732038 46.2519134,22.8326886 46.2519134,22.6916354 L46.2519134,22.3582599 C46.2521801,22.247218 46.2199024,22.14618 46.0907905,22.0964112 L46.0907905,22.0964112 Z M35.5870779,23.3185018 C35.5870779,22.8240136 35.7829675,22.5151181 36.9814351,22.7931241 C37.1307795,22.8240136 37.2235843,22.8549032 37.3500845,22.8549032 C37.430325,22.8549032 37.5,22.7831679 37.5,22.7111774 L37.5,22.1030871 C37.5,22.000207 37.4191884,21.9182604 37.2689873,21.8868602 C36.4397403,21.711479 35.9325975,22.0512642 35.5059807,22.412238 L35.4831365,22.4017713 L35.4831365,22.0617309 C35.4844168,22.0285774 35.4702866,21.9964296 35.4441026,21.9729244 C35.4179187,21.9494191 35.3820178,21.9366542 35.3449286,21.9376621 L34.3420652,21.9376621 C34.284669,21.9376621 34.2272727,21.9899956 34.2272727,22.0617309 L34.2272727,26.4304331 C34.2272727,26.5011472 34.284669,26.5534807 34.3420652,26.5534807 L35.4480134,26.5534807 C35.4850434,26.5547705 35.5210099,26.5422561 35.547322,26.5189267 C35.5736341,26.4955972 35.587929,26.4635475 35.5867924,26.4304331 L35.5867924,23.3185018 L35.5870779,23.3185018 Z M42.5406971,21.8392857 C43.082536,21.8392857 43.6931753,19.875 42.6905733,19.875 L42.1493055,19.875 C42.0228383,19.875 42,19.9637579 42,20.0306718 C42,20.1650529 42.3445732,20.4998995 42.3445732,20.9572374 C42.3445732,21.4253589 42.16101,21.593197 42.16101,21.7383617 C42.16101,21.7950451 42.2183915,21.8392857 42.298611,21.8392857 L42.5406971,21.8392857 Z M39.7374768,25.0128358 L39.6696377,24.8180243 L38.5948637,21.9519111 C38.5609442,21.870486 38.5160919,21.8392857 38.4140528,21.8392857 L37.2599463,21.8392857 C37.1921072,21.8392857 37.1587482,21.870486 37.1587482,21.9318719 C37.1587482,21.9625649 37.1691204,21.9937651 37.215094,22.0957368 L39.0924443,26.2205148 C39.4094942,26.9170673 38.4818919,27.4185547 37.587929,27.1935576 C37.4522507,27.1628647 37.361705,27.1321717 37.2375202,27.1321717 C37.1587482,27.1321717 37.0909091,27.2034504 37.0909091,27.274729 L37.0909091,27.8589098 C37.0909091,27.982189 37.1811744,28.125 37.6790352,28.125 C38.8779941,28.125 39.522466,27.5725268 40.0996594,26.272008 L41.955144,22.0650438 C41.9775704,22.0036579 42.0000034,21.9732186 42.0000034,21.9321256 C42.0002205,21.9076843 41.9896664,21.8841709 41.9706719,21.8667927 C41.9516774,21.8494146 41.9258097,21.8396061 41.8987983,21.8395394 L41.0951007,21.8395394 C41.016329,21.8395394 40.9594225,21.8811397 40.9369965,21.9521648 L39.8288633,24.818278 L39.7374768,25.0128358 Z M33.4090909,26.3286002 L33.4090909,21.9633415 C33.4090909,21.891667 33.3523531,21.8393777 33.2961742,21.8393777 L32.2136829,21.8393777 C32.1773325,21.8382176 32.1420941,21.8509225 32.1164278,21.8744424 C32.0907615,21.8979623 32.0769853,21.9301731 32.0784064,21.9633415 L32.0784064,25.4835551 C31.8643118,25.5965508 31.4129245,25.8023919 31.0297343,25.8023919 C30.2857137,25.8023919 30.2398762,25.3919851 30.2398762,25.0412646 L30.2398762,21.9633415 C30.2398762,21.891667 30.1836973,21.8393777 30.1269595,21.8393777 L29.0450272,21.8393777 C29.0085815,21.8380719 28.9731936,21.8507125 28.9474028,21.8742492 C28.921612,21.897786 28.9077608,21.9300811 28.9091917,21.9633415 L28.9091917,25.1438026 C28.9091917,25.9773695 29.3943983,26.5535714 30.4774485,26.5535714 C31.097093,26.5535714 31.7516746,26.2755457 32.0901453,26.0913856 L32.112505,26.0913856 L32.112505,26.3286002 C32.112505,26.3992544 32.1681249,26.4515436 32.2477815,26.4515436 L33.2964537,26.4515436 C33.3523531,26.4515436 33.4090909,26.3992544 33.4090909,26.3286002 L33.4090909,26.3286002 Z M23.5914439,20.0040086 C23.5914439,19.9286654 23.6451968,19.875 23.6992172,19.875 L24.7352307,19.875 C24.8103778,19.875 24.8641307,19.9286654 24.8641307,20.0040086 L24.8641307,22.1371437 L24.8641307,22.1268336 C25.0695149,21.9560559 25.5441984,21.581984 26.2780191,21.581984 C27.389982,21.581984 28.0909091,22.5421459 28.0909091,23.82245 C28.0909091,25.465194 26.9361578,26.5535714 25.5115723,26.5535714 C24.7349633,26.5535714 24.1629362,26.286566 23.7847939,25.9984117 C23.6232678,25.8812994 23.5909091,25.6798558 23.5909091,25.508285 L23.5909091,20.0040086 L23.5914439,20.0040086 Z M24.9802854,26.0464165 C25.0954173,26.1086194 25.2689743,26.1607143 25.6040595,26.1607143 C26.344111,26.1607143 26.8636364,25.4707809 26.8636364,24.299812 C26.8636364,23.859986 26.7602468,22.625 25.7080219,22.625 C25.2924589,22.625 24.991455,22.835453 24.8181793,22.9494916 L24.8181793,25.7740198 C24.817898,25.8693976 24.8413826,25.9624427 24.9802854,26.0464165 L24.9802854,26.0464165 Z" id="Shape" fill="#D9782D"></path>
        </g>
    </g>
</svg>