<?xml version="1.0" encoding="UTF-8"?>
<svg width="48px" height="48px" viewBox="0 0 48 48" version="1.1" xmlns="http://www.w3.org/2000/svg" xmlns:xlink="http://www.w3.org/1999/xlink">
    <title>gb-thecurrencyclub</title>
    <g id="Page-1" stroke="none" stroke-width="1" fill="none" fill-rule="evenodd">
        <g id="gb-thecurrencyclub" fill-rule="nonzero">
            <rect id="Rectangle" x="0" y="0" width="48" height="48"></rect>
            <g id="Group" transform="translate(1.500000, 12.750000)" fill="#7FB826">
                <g transform="translate(0.000000, 0.000000)" id="b">
                    <path d="M2.53170371,0 L2.53170371,1.80760626 L3.54801488,1.80760626 L3.54801488,3.13646533 L2.53170371,3.13646533 L2.53170371,4.82326621 C2.53170371,5.02609991 2.55136449,5.16032813 2.59068605,5.2259508 C2.65118077,5.32736765 2.75704651,5.37807607 2.90828329,5.37807607 C3.0443964,5.37807607 3.23495474,5.33929904 3.47995833,5.26174498 L3.61607143,6.51901566 C3.15933635,6.61744966 2.73284863,6.66666666 2.33660826,6.66666666 C1.87684845,6.66666666 1.53807806,6.60850111 1.3202971,6.49217002 C1.10251613,6.37583893 0.94144896,6.19910514 0.83709558,5.96196868 C0.732742204,5.72483223 0.680565514,5.34079047 0.680565514,4.80984339 L0.680565514,3.13646533 L-1.81672859e-16,3.13646533 L-1.81672859e-16,1.80760626 L0.680565514,1.80760626 L0.680565514,0.935123042 L2.53170371,0 Z"></path>
                    <path d="M2.53170371,0 L2.53170371,1.80760626 L3.54801488,1.80760626 L3.54801488,3.13646533 L2.53170371,3.13646533 L2.53170371,4.82326621 C2.53170371,5.02609991 2.55136449,5.16032813 2.59068605,5.2259508 C2.65118077,5.32736765 2.75704651,5.37807607 2.90828329,5.37807607 C3.0443964,5.37807607 3.23495474,5.33929904 3.47995833,5.26174498 L3.61607143,6.51901566 C3.15933635,6.61744966 2.73284863,6.66666666 2.33660826,6.66666666 C1.87684845,6.66666666 1.53807806,6.60850111 1.3202971,6.49217002 C1.10251613,6.37583893 0.94144896,6.19910514 0.83709558,5.96196868 C0.732742204,5.72483223 0.680565514,5.34079047 0.680565514,4.80984339 L0.680565514,3.13646533 L-1.81672859e-16,3.13646533 L-1.81672859e-16,1.80760626 L0.680565514,1.80760626 L0.680565514,0.935123042 L2.53170371,0 Z"></path>
                </g>
                <g transform="translate(4.017857, 0.000000)" id="c">
                    <path d="M-7.26691434e-16,0 L1.89300822,0 L1.89300822,2.45566166 C2.1503705,2.19493709 2.40618241,2.00848871 2.66044395,1.89631651 C2.91470553,1.78414431 3.21547833,1.72805821 3.56276239,1.72805821 C4.07748695,1.72805821 4.48291008,1.8811581 4.77903176,2.18735789 C5.07515344,2.49355768 5.22321428,2.96346824 5.22321428,3.59708958 L5.22321428,6.66666666 L3.32090384,6.66666666 L3.32090384,4.01091405 C3.32090384,3.70774594 3.26353996,3.49325451 3.14881218,3.36743974 C3.03408439,3.24162498 2.87284538,3.1787176 2.66509511,3.1787176 C2.43563954,3.1787176 2.24959452,3.26360467 2.10695999,3.43337881 C1.96432545,3.60315295 1.89300822,3.9078369 1.89300822,4.34743065 L1.89300822,6.66666666 L-7.26691434e-16,6.66666666 L-7.26691434e-16,0 Z"></path>
                    <path d="M-7.26691434e-16,0 L1.89300822,0 L1.89300822,2.45566166 C2.1503705,2.19493709 2.40618241,2.00848871 2.66044395,1.89631651 C2.91470553,1.78414431 3.21547833,1.72805821 3.56276239,1.72805821 C4.07748695,1.72805821 4.48291008,1.8811581 4.77903176,2.18735789 C5.07515344,2.49355768 5.22321428,2.96346824 5.22321428,3.59708958 L5.22321428,6.66666666 L3.32090384,6.66666666 L3.32090384,4.01091405 C3.32090384,3.70774594 3.26353996,3.49325451 3.14881218,3.36743974 C3.03408439,3.24162498 2.87284538,3.1787176 2.66509511,3.1787176 C2.43563954,3.1787176 2.24959452,3.26360467 2.10695999,3.43337881 C1.96432545,3.60315295 1.89300822,3.9078369 1.89300822,4.34743065 L1.89300822,6.66666666 L-7.26691434e-16,6.66666666 L-7.26691434e-16,0 Z"></path>
                </g>
                <g transform="translate(10.446429, 1.666667)" id="d">
                    <path d="M5.22321427,3.20120121 L1.7580575,3.20120121 C1.78919861,3.52002003 1.86422036,3.7575075 1.98312284,3.91366367 C2.15015245,4.13813814 2.36814022,4.25037538 2.63708624,4.25037538 C2.80694688,4.25037538 2.96831446,4.20157656 3.12118904,4.10397899 C3.21461235,4.04216717 3.31511322,3.93318319 3.42269161,3.77702702 L5.12554443,3.95758256 C4.86509146,4.47810311 4.5508493,4.85141392 4.18281795,5.07751502 C3.8147866,5.30361613 3.28680315,5.41666668 2.59886757,5.41666668 C2.0015244,5.41666668 1.53157664,5.31988239 1.1890244,5.1263138 C0.846472132,4.93274522 0.562663309,4.62531282 0.337597977,4.2040165 C0.112532645,3.78272023 0,3.2874124 0,2.71809307 C0,1.90803303 0.225773059,1.2525025 0.677319259,0.751501499 C1.12886542,0.250500498 1.75239548,1.88401483e-16 2.54790941,1.88401483e-16 C3.1933798,1.88401483e-16 3.70296168,0.112237236 4.07665505,0.336711709 C4.45034843,0.561186186 4.73486498,0.886511512 4.9302047,1.31268769 C5.12554443,1.73886386 5.22321427,2.29354354 5.22321427,2.97672674 L5.22321427,3.20120121 Z M3.4651568,2.24962462 C3.43118467,1.86574074 3.34130007,1.59084084 3.19550306,1.42492493 C3.049706,1.25900901 2.85790504,1.17605105 2.62010017,1.17605105 C2.34549217,1.17605105 2.12608886,1.3013013 1.96189024,1.5518018 C1.85714284,1.70795796 1.7906141,1.94056556 1.76230399,2.24962462 L3.4651568,2.24962462 Z"></path>
                    <path d="M5.22321427,3.20120121 L1.7580575,3.20120121 C1.78919861,3.52002003 1.86422036,3.7575075 1.98312284,3.91366367 C2.15015245,4.13813814 2.36814022,4.25037538 2.63708624,4.25037538 C2.80694688,4.25037538 2.96831446,4.20157656 3.12118904,4.10397899 C3.21461235,4.04216717 3.31511322,3.93318319 3.42269161,3.77702702 L5.12554443,3.95758256 C4.86509146,4.47810311 4.5508493,4.85141392 4.18281795,5.07751502 C3.8147866,5.30361613 3.28680315,5.41666668 2.59886757,5.41666668 C2.0015244,5.41666668 1.53157664,5.31988239 1.1890244,5.1263138 C0.846472132,4.93274522 0.562663309,4.62531282 0.337597977,4.2040165 C0.112532645,3.78272023 0,3.2874124 0,2.71809307 C0,1.90803303 0.225773059,1.2525025 0.677319259,0.751501499 C1.12886542,0.250500498 1.75239548,1.88401483e-16 2.54790941,1.88401483e-16 C3.1933798,1.88401483e-16 3.70296168,0.112237236 4.07665505,0.336711709 C4.45034843,0.561186186 4.73486498,0.886511512 4.9302047,1.31268769 C5.12554443,1.73886386 5.22321427,2.29354354 5.22321427,2.97672674 L5.22321427,3.20120121 Z M3.4651568,2.24962462 C3.43118467,1.86574074 3.34130007,1.59084084 3.19550306,1.42492493 C3.049706,1.25900901 2.85790504,1.17605105 2.62010017,1.17605105 C2.34549217,1.17605105 2.12608886,1.3013013 1.96189024,1.5518018 C1.85714284,1.70795796 1.7906141,1.94056556 1.76230399,2.24962462 L3.4651568,2.24962462 Z"></path>
                </g>
                <g transform="translate(0.000000, 9.166667)" id="e">
                    <path d="M3.85230049,3.27145212 L5.625,3.48597357 C5.52728013,3.87926293 5.36695846,4.21973444 5.14403501,4.5073882 C4.92111155,4.795042 4.63634975,5.01850181 4.28974961,5.17776776 C3.94314943,5.33703367 3.50264658,5.41666665 2.96824104,5.41666665 C2.45215798,5.41666665 2.02234324,5.36547403 1.67879682,5.26308877 C1.33525041,5.16070354 1.03980049,4.99493697 0.792447067,4.76578904 C0.545093648,4.53664116 0.351180781,4.26767676 0.21070847,3.95889586 C0.0702361555,3.650115 4.54182146e-17,3.24057402 4.54182146e-17,2.730273 C4.54182146e-17,2.19721969 0.0855048845,1.75355036 0.256514658,1.39926491 C0.38171824,1.13923888 0.552728013,0.906028072 0.769543973,0.699632436 C0.986359934,0.4932368 1.20928339,0.339658964 1.43831433,0.238898885 C1.8017101,0.0796329333 2.26740635,-1.50721186e-15 2.83540309,-1.50721186e-15 C3.62937703,-1.50721186e-15 4.23478215,0.151140097 4.6516185,0.453420333 C5.06845481,0.755700569 5.36085098,1.19774476 5.52880702,1.77955294 L3.77442997,2.02820278 C3.71946254,1.80718071 3.61945236,1.64060154 3.47439943,1.52846531 C3.3293465,1.41632913 3.13467019,1.360261 2.89037052,1.360261 C2.58194218,1.360261 2.33229845,1.4780853 2.14143933,1.71373385 C1.95058021,1.9493824 1.85515065,2.30610558 1.85515065,2.78390335 C1.85515065,3.20969596 1.94981677,3.5331033 2.13914902,3.75412541 C2.32848127,3.97514748 2.5697272,4.08565856 2.86288681,4.08565856 C3.10718648,4.08565856 3.31255089,4.01902688 3.47898005,3.88576355 C3.6454092,3.75250022 3.76984935,3.54772977 3.85230049,3.27145212 L3.85230049,3.27145212 Z"></path>
                    <path d="M3.85230049,3.27145212 L5.625,3.48597357 C5.52728013,3.87926293 5.36695846,4.21973444 5.14403501,4.5073882 C4.92111155,4.795042 4.63634975,5.01850181 4.28974961,5.17776776 C3.94314943,5.33703367 3.50264658,5.41666665 2.96824104,5.41666665 C2.45215798,5.41666665 2.02234324,5.36547403 1.67879682,5.26308877 C1.33525041,5.16070354 1.03980049,4.99493697 0.792447067,4.76578904 C0.545093648,4.53664116 0.351180781,4.26767676 0.21070847,3.95889586 C0.0702361555,3.650115 4.54182146e-17,3.24057402 4.54182146e-17,2.730273 C4.54182146e-17,2.19721969 0.0855048845,1.75355036 0.256514658,1.39926491 C0.38171824,1.13923888 0.552728013,0.906028072 0.769543973,0.699632436 C0.986359934,0.4932368 1.20928339,0.339658964 1.43831433,0.238898885 C1.8017101,0.0796329333 2.26740635,-1.50721186e-15 2.83540309,-1.50721186e-15 C3.62937703,-1.50721186e-15 4.23478215,0.151140097 4.6516185,0.453420333 C5.06845481,0.755700569 5.36085098,1.19774476 5.52880702,1.77955294 L3.77442997,2.02820278 C3.71946254,1.80718071 3.61945236,1.64060154 3.47439943,1.52846531 C3.3293465,1.41632913 3.13467019,1.360261 2.89037052,1.360261 C2.58194218,1.360261 2.33229845,1.4780853 2.14143933,1.71373385 C1.95058021,1.9493824 1.85515065,2.30610558 1.85515065,2.78390335 C1.85515065,3.20969596 1.94981677,3.5331033 2.13914902,3.75412541 C2.32848127,3.97514748 2.5697272,4.08565856 2.86288681,4.08565856 C3.10718648,4.08565856 3.31255089,4.01902688 3.47898005,3.88576355 C3.6454092,3.75250022 3.76984935,3.54772977 3.85230049,3.27145212 L3.85230049,3.27145212 Z"></path>
                </g>
                <g transform="translate(6.428571, 9.166667)" id="f">
                    <path d="M5.22321431,5.2969613 L3.4557865,5.2969613 L3.4557865,4.43907304 C3.19222268,4.79153877 2.92633331,5.04258745 2.65811842,5.19221911 C2.38990349,5.34185082 2.06044875,5.41666665 1.66975417,5.41666665 C1.14882807,5.41666665 0.740304205,5.24957796 0.444182523,4.91540055 C0.148060841,4.58122314 0,4.0666564 0,3.37170039 L0,0 L1.90231045,0 L1.90231045,2.91282994 C1.90231045,3.24534479 1.95967436,3.48143031 2.0744021,3.62108655 C2.18912989,3.76074279 2.3503689,3.83057088 2.55811921,3.83057088 C2.784474,3.83057088 2.96974383,3.73746673 3.11392874,3.55125841 C3.25811365,3.3650501 3.3302061,3.03087268 3.3302061,2.54872618 L3.3302061,0 L5.22321431,0 L5.22321431,5.2969613 Z"></path>
                    <path d="M5.22321431,5.2969613 L3.4557865,5.2969613 L3.4557865,4.43907304 C3.19222268,4.79153877 2.92633331,5.04258745 2.65811842,5.19221911 C2.38990349,5.34185082 2.06044875,5.41666665 1.66975417,5.41666665 C1.14882807,5.41666665 0.740304205,5.24957796 0.444182523,4.91540055 C0.148060841,4.58122314 0,4.0666564 0,3.37170039 L0,0 L1.90231045,0 L1.90231045,2.91282994 C1.90231045,3.24534479 1.95967436,3.48143031 2.0744021,3.62108655 C2.18912989,3.76074279 2.3503689,3.83057088 2.55811921,3.83057088 C2.784474,3.83057088 2.96974383,3.73746673 3.11392874,3.55125841 C3.25811365,3.3650501 3.3302061,3.03087268 3.3302061,2.54872618 L3.3302061,0 L5.22321431,0 L5.22321431,5.2969613 Z"></path>
                </g>
                <g transform="translate(12.857143, 9.166667)" id="g">
                    <path d="M1.45338287e-15,0.119705303 L1.83110478,0.119705303 L1.83110478,0.987569036 C2.00732658,0.611827279 2.18915542,0.353297 2.37659134,0.2119782 C2.56402726,0.0706594 2.79551864,-1.50721186e-15 3.07106546,-1.50721186e-15 C3.3594284,-1.50721186e-15 3.67502564,0.0931041151 4.01785715,0.27931243 L3.41229494,1.72575196 C3.1816046,1.62599755 2.99897472,1.5761203 2.86440533,1.5761203 C2.60808271,1.5761203 2.40943267,1.68585018 2.26845524,1.90530998 C2.06660119,2.21454876 1.96567413,2.7931246 1.96567413,3.64103744 L1.96567413,5.41666665 L1.45338287e-15,5.41666665 L1.45338287e-15,0.119705303 Z"></path>
                    <path d="M1.45338287e-15,0.119705303 L1.83110478,0.119705303 L1.83110478,0.987569036 C2.00732658,0.611827279 2.18915542,0.353297 2.37659134,0.2119782 C2.56402726,0.0706594 2.79551864,-1.50721186e-15 3.07106546,-1.50721186e-15 C3.3594284,-1.50721186e-15 3.67502564,0.0931041151 4.01785715,0.27931243 L3.41229494,1.72575196 C3.1816046,1.62599755 2.99897472,1.5761203 2.86440533,1.5761203 C2.60808271,1.5761203 2.40943267,1.68585018 2.26845524,1.90530998 C2.06660119,2.21454876 1.96567413,2.7931246 1.96567413,3.64103744 L1.96567413,5.41666665 L1.45338287e-15,5.41666665 L1.45338287e-15,0.119705303 Z"></path>
                </g>
                <g transform="translate(16.875000, 9.166667)" id="h">
                    <path d="M-2.90676574e-15,0.119705303 L1.83110474,0.119705303 L1.83110474,0.987569036 C2.00732654,0.611827279 2.18915542,0.353297 2.37659134,0.2119782 C2.56402726,0.0706594 2.79551864,-1.50721186e-15 3.07106546,-1.50721186e-15 C3.3594284,-1.50721186e-15 3.67502564,0.0931041151 4.01785715,0.27931243 L3.41229494,1.72575196 C3.18160456,1.62599755 2.99897472,1.5761203 2.86440533,1.5761203 C2.60808271,1.5761203 2.40943267,1.68585018 2.26845524,1.90530998 C2.06660115,2.21454876 1.96567413,2.7931246 1.96567413,3.64103744 L1.96567413,5.41666665 L-2.90676574e-15,5.41666665 L-2.90676574e-15,0.119705303 Z"></path>
                    <path d="M-2.90676574e-15,0.119705303 L1.83110474,0.119705303 L1.83110474,0.987569036 C2.00732654,0.611827279 2.18915542,0.353297 2.37659134,0.2119782 C2.56402726,0.0706594 2.79551864,-1.50721186e-15 3.07106546,-1.50721186e-15 C3.3594284,-1.50721186e-15 3.67502564,0.0931041151 4.01785715,0.27931243 L3.41229494,1.72575196 C3.18160456,1.62599755 2.99897472,1.5761203 2.86440533,1.5761203 C2.60808271,1.5761203 2.40943267,1.68585018 2.26845524,1.90530998 C2.06660115,2.21454876 1.96567413,2.7931246 1.96567413,3.64103744 L1.96567413,5.41666665 L-2.90676574e-15,5.41666665 L-2.90676574e-15,0.119705303 Z"></path>
                </g>
                <g transform="translate(21.294643, 9.166667)" id="i">
                    <path d="M5.625,3.20120118 L1.89329269,3.20120118 C1.92682927,3.52002 2.00762198,3.75750747 2.13567075,3.91366364 C2.3155488,4.13813811 2.55030488,4.25037535 2.83993904,4.25037535 C3.02286588,4.25037535 3.19664635,4.20157657 3.36128048,4.10397896 C3.46189025,4.04216714 3.57012196,3.93318316 3.68597561,3.77702699 L5.51981708,3.95758257 C5.2393293,4.47810308 4.90091465,4.85141389 4.50457319,5.07751499 C4.10823172,5.3036161 3.53963418,5.41666665 2.79878048,5.41666665 C2.15548781,5.41666665 1.64939024,5.31988236 1.2804878,5.12631377 C0.911585373,4.93274524 0.605945127,4.62531279 0.363567068,4.20401651 C0.12118905,3.7827202 0,3.28741237 0,2.71809308 C0,1.90803302 0.243140236,1.25250249 0.72942075,0.751501503 C1.21570122,0.250500473 1.88719515,1.50721186e-15 2.74390245,1.50721186e-15 C3.4390244,1.50721186e-15 3.98780489,0.112237236 4.3902439,0.336711709 C4.79268295,0.561186182 5.09908537,0.886511479 5.30945125,1.31268768 C5.51981708,1.73886385 5.625,2.29354351 5.625,2.97672671 L5.625,3.20120118 Z M3.73170731,2.24962462 C3.69512198,1.86574071 3.59832318,1.59084083 3.44131098,1.42492492 C3.28429878,1.25900897 3.07774391,1.17605104 2.82164637,1.17605104 C2.52591464,1.17605104 2.28963416,1.30130127 2.1128049,1.55180179 C2,1.70795796 1.92835366,1.94056554 1.89786588,2.24962462 L3.73170731,2.24962462 Z"></path>
                    <path d="M5.625,3.20120118 L1.89329269,3.20120118 C1.92682927,3.52002 2.00762198,3.75750747 2.13567075,3.91366364 C2.3155488,4.13813811 2.55030488,4.25037535 2.83993904,4.25037535 C3.02286588,4.25037535 3.19664635,4.20157657 3.36128048,4.10397896 C3.46189025,4.04216714 3.57012196,3.93318316 3.68597561,3.77702699 L5.51981708,3.95758257 C5.2393293,4.47810308 4.90091465,4.85141389 4.50457319,5.07751499 C4.10823172,5.3036161 3.53963418,5.41666665 2.79878048,5.41666665 C2.15548781,5.41666665 1.64939024,5.31988236 1.2804878,5.12631377 C0.911585373,4.93274524 0.605945127,4.62531279 0.363567068,4.20401651 C0.12118905,3.7827202 0,3.28741237 0,2.71809308 C0,1.90803302 0.243140236,1.25250249 0.72942075,0.751501503 C1.21570122,0.250500473 1.88719515,1.50721186e-15 2.74390245,1.50721186e-15 C3.4390244,1.50721186e-15 3.98780489,0.112237236 4.3902439,0.336711709 C4.79268295,0.561186182 5.09908537,0.886511479 5.30945125,1.31268768 C5.51981708,1.73886385 5.625,2.29354351 5.625,2.97672671 L5.625,3.20120118 Z M3.73170731,2.24962462 C3.69512198,1.86574071 3.59832318,1.59084083 3.44131098,1.42492492 C3.28429878,1.25900897 3.07774391,1.17605104 2.82164637,1.17605104 C2.52591464,1.17605104 2.28963416,1.30130127 2.1128049,1.55180179 C2,1.70795796 1.92835366,1.94056554 1.89786588,2.24962462 L3.73170731,2.24962462 Z"></path>
                </g>
                <g transform="translate(27.321429, 9.166667)" id="j">
                    <path d="M0,0.119705303 L1.7627767,0.119705303 L1.7627767,0.982581303 C2.02634047,0.630115606 2.29300503,0.378235624 2.56277033,0.226941358 C2.8325356,0.0756470909 3.16121519,0 3.54880898,0 C4.07283582,0 4.4829101,0.167088685 4.77903175,0.501266097 C5.07515343,0.835443509 5.22321427,1.35167281 5.22321427,2.04995394 L5.22321427,5.41666665 L3.32090382,5.41666665 L3.32090382,2.5038367 C3.32090382,2.17132185 3.26353995,1.93606759 3.14881216,1.79807396 C3.03408442,1.66008029 2.87284537,1.59108345 2.6650951,1.59108345 C2.43563956,1.59108345 2.24959451,1.68418761 2.10695997,1.87039593 C1.96432548,2.05660424 1.89300821,2.39078165 1.89300821,2.87292816 L1.89300821,5.41666665 L0,5.41666665 L0,0.119705303 Z"></path>
                    <path d="M0,0.119705303 L1.7627767,0.119705303 L1.7627767,0.982581303 C2.02634047,0.630115606 2.29300503,0.378235624 2.56277033,0.226941358 C2.8325356,0.0756470909 3.16121519,0 3.54880898,0 C4.07283582,0 4.4829101,0.167088685 4.77903175,0.501266097 C5.07515343,0.835443509 5.22321427,1.35167281 5.22321427,2.04995394 L5.22321427,5.41666665 L3.32090382,5.41666665 L3.32090382,2.5038367 C3.32090382,2.17132185 3.26353995,1.93606759 3.14881216,1.79807396 C3.03408442,1.66008029 2.87284537,1.59108345 2.6650951,1.59108345 C2.43563956,1.59108345 2.24959451,1.68418761 2.10695997,1.87039593 C1.96432548,2.05660424 1.89300821,2.39078165 1.89300821,2.87292816 L1.89300821,5.41666665 L0,5.41666665 L0,0.119705303 Z"></path>
                </g>
                <g transform="translate(33.750000, 9.166667)" id="k">
                    <path d="M3.85230048,3.27145212 L5.625,3.48597357 C5.52728013,3.87926293 5.36695846,4.21973444 5.14403501,4.5073882 C4.92111155,4.795042 4.63634975,5.01850181 4.28974961,5.17776776 C3.94314942,5.33703367 3.50264659,5.41666665 2.96824103,5.41666665 C2.452158,5.41666665 2.02234324,5.36547403 1.67879684,5.26308877 C1.33525039,5.16070354 1.03980048,4.99493697 0.792447055,4.76578904 C0.545093632,4.53664116 0.351180777,4.26767676 0.21070845,3.95889586 C0.0702361636,3.650115 0,3.24057402 0,2.730273 C0,2.19721969 0.0855048682,1.75355036 0.256514645,1.39926491 C0.381718227,1.13923888 0.552728005,0.906028072 0.769543977,0.699632436 C0.98635995,0.4932368 1.2092834,0.339658964 1.43831434,0.238898885 C1.80171008,0.0796329333 2.26740637,-1.50721186e-15 2.83540308,-1.50721186e-15 C3.62937702,-1.50721186e-15 4.23478215,0.151140097 4.6516185,0.453420333 C5.06845481,0.755700569 5.36085098,1.19774476 5.52880702,1.77955294 L3.77442998,2.02820278 C3.71946252,1.80718071 3.61945235,1.64060154 3.47439944,1.52846531 C3.32934652,1.41632913 3.13467018,1.360261 2.89037054,1.360261 C2.58194217,1.360261 2.33229845,1.4780853 2.14143934,1.71373385 C1.95058023,1.9493824 1.85515065,2.30610558 1.85515065,2.78390335 C1.85515065,3.20969596 1.94981678,3.5331033 2.139149,3.75412541 C2.32848127,3.97514748 2.56972721,4.08565856 2.86288683,4.08565856 C3.10718647,4.08565856 3.31255088,4.01902688 3.47898007,3.88576355 C3.64540921,3.75250022 3.76984935,3.54772977 3.85230048,3.27145212 L3.85230048,3.27145212 Z"></path>
                    <path d="M3.85230048,3.27145212 L5.625,3.48597357 C5.52728013,3.87926293 5.36695846,4.21973444 5.14403501,4.5073882 C4.92111155,4.795042 4.63634975,5.01850181 4.28974961,5.17776776 C3.94314942,5.33703367 3.50264659,5.41666665 2.96824103,5.41666665 C2.452158,5.41666665 2.02234324,5.36547403 1.67879684,5.26308877 C1.33525039,5.16070354 1.03980048,4.99493697 0.792447055,4.76578904 C0.545093632,4.53664116 0.351180777,4.26767676 0.21070845,3.95889586 C0.0702361636,3.650115 0,3.24057402 0,2.730273 C0,2.19721969 0.0855048682,1.75355036 0.256514645,1.39926491 C0.381718227,1.13923888 0.552728005,0.906028072 0.769543977,0.699632436 C0.98635995,0.4932368 1.2092834,0.339658964 1.43831434,0.238898885 C1.80171008,0.0796329333 2.26740637,-1.50721186e-15 2.83540308,-1.50721186e-15 C3.62937702,-1.50721186e-15 4.23478215,0.151140097 4.6516185,0.453420333 C5.06845481,0.755700569 5.36085098,1.19774476 5.52880702,1.77955294 L3.77442998,2.02820278 C3.71946252,1.80718071 3.61945235,1.64060154 3.47439944,1.52846531 C3.32934652,1.41632913 3.13467018,1.360261 2.89037054,1.360261 C2.58194217,1.360261 2.33229845,1.4780853 2.14143934,1.71373385 C1.95058023,1.9493824 1.85515065,2.30610558 1.85515065,2.78390335 C1.85515065,3.20969596 1.94981678,3.5331033 2.139149,3.75412541 C2.32848127,3.97514748 2.56972721,4.08565856 2.86288683,4.08565856 C3.10718647,4.08565856 3.31255088,4.01902688 3.47898007,3.88576355 C3.64540921,3.75250022 3.76984935,3.54772977 3.85230048,3.27145212 L3.85230048,3.27145212 Z"></path>
                </g>
                <g transform="translate(39.375000, 9.583333)" id="l">
                    <path d="M0,1.50721186e-15 L1.93036705,1.50721186e-15 L2.91350741,3.15695469 L3.82482041,1.50721186e-15 L5.625,1.50721186e-15 L3.735036,5.06809558 C3.51955309,5.64560542 3.29958082,6.03557343 3.07511959,6.23799956 C2.75788105,6.52377765 2.27454095,6.66666666 1.62509973,6.66666666 C1.36173183,6.66666666 0.954708709,6.63094443 0.404030332,6.55949988 L0.260375114,5.29135969 C0.523743014,5.37471162 0.817039105,5.41638758 1.14026339,5.41638758 C1.35574621,5.41638758 1.53007781,5.36726947 1.66325809,5.26903325 C1.79643845,5.17079708 1.9094175,4.99516262 2.00219482,4.74212993 L0,1.50721186e-15 Z"></path>
                    <path d="M0,1.50721186e-15 L1.93036705,1.50721186e-15 L2.91350741,3.15695469 L3.82482041,1.50721186e-15 L5.625,1.50721186e-15 L3.735036,5.06809558 C3.51955309,5.64560542 3.29958082,6.03557343 3.07511959,6.23799956 C2.75788105,6.52377765 2.27454095,6.66666666 1.62509973,6.66666666 C1.36173183,6.66666666 0.954708709,6.63094443 0.404030332,6.55949988 L0.260375114,5.29135969 C0.523743014,5.37471162 0.817039105,5.41638758 1.14026339,5.41638758 C1.35574621,5.41638758 1.53007781,5.36726947 1.66325809,5.26903325 C1.79643845,5.17079708 1.9094175,4.99516262 2.00219482,4.74212993 L0,1.50721186e-15 Z"></path>
                </g>
                <g transform="translate(0.000000, 15.416667)" id="m">
                    <path d="M4.63884991,4.16501867 L6.42857142,4.72533511 C6.30835503,5.24518421 6.11901421,5.67942942 5.86054898,6.02807074 C5.60208375,6.37671206 5.28125625,6.6397495 4.89806652,6.81718303 C4.5148768,6.99461657 4.02724905,7.08333334 3.43518333,7.08333334 C2.7168904,7.08333334 2.13008415,6.97516116 1.67476457,6.75881674 C1.219445,6.54247236 0.826487677,6.16192411 0.495892608,5.61717206 C0.165297535,5.07241997 -9.08364293e-17,4.37513733 -9.08364293e-17,3.52532409 C-9.08364293e-17,2.39223982 0.290773391,1.5214147 0.872320177,0.91284883 C1.45386696,0.304282957 2.27659788,0 3.34051292,0 C4.17301143,0 4.82743939,0.174320661 5.30379683,0.522961982 C5.78015427,0.871603303 6.13404127,1.4070168 6.36545782,2.12920239 L4.56221197,2.54477037 C4.49909836,2.33620817 4.43297937,2.18367758 4.36385495,2.08717863 C4.24964937,1.92530944 4.10989782,1.80079471 3.94460028,1.71363436 C3.77930275,1.62647405 3.59447004,1.58289388 3.39010218,1.58289388 C2.92726908,1.58289388 2.57263074,1.77589177 2.32618714,2.16188751 C2.13985173,2.44827147 2.04668403,2.89808103 2.04668403,3.5113162 C2.04668403,4.27085625 2.15788419,4.79148358 2.38028451,5.0731982 C2.60268483,5.35491286 2.91524744,5.49577017 3.31797235,5.49577017 C3.70867562,5.49577017 4.00395712,5.38215045 4.20381687,5.15491102 C4.4036766,4.92767159 4.54868763,4.59770746 4.63884991,4.16501867 Z"></path>
                    <path d="M4.63884991,4.16501867 L6.42857142,4.72533511 C6.30835503,5.24518421 6.11901421,5.67942942 5.86054898,6.02807074 C5.60208375,6.37671206 5.28125625,6.6397495 4.89806652,6.81718303 C4.5148768,6.99461657 4.02724905,7.08333334 3.43518333,7.08333334 C2.7168904,7.08333334 2.13008415,6.97516116 1.67476457,6.75881674 C1.219445,6.54247236 0.826487677,6.16192411 0.495892608,5.61717206 C0.165297535,5.07241997 -9.08364293e-17,4.37513733 -9.08364293e-17,3.52532409 C-9.08364293e-17,2.39223982 0.290773391,1.5214147 0.872320177,0.91284883 C1.45386696,0.304282957 2.27659788,0 3.34051292,0 C4.17301143,0 4.82743939,0.174320661 5.30379683,0.522961982 C5.78015427,0.871603303 6.13404127,1.4070168 6.36545782,2.12920239 L4.56221197,2.54477037 C4.49909836,2.33620817 4.43297937,2.18367758 4.36385495,2.08717863 C4.24964937,1.92530944 4.10989782,1.80079471 3.94460028,1.71363436 C3.77930275,1.62647405 3.59447004,1.58289388 3.39010218,1.58289388 C2.92726908,1.58289388 2.57263074,1.77589177 2.32618714,2.16188751 C2.13985173,2.44827147 2.04668403,2.89808103 2.04668403,3.5113162 C2.04668403,4.27085625 2.15788419,4.79148358 2.38028451,5.0731982 C2.60268483,5.35491286 2.91524744,5.49577017 3.31797235,5.49577017 C3.70867562,5.49577017 4.00395712,5.38215045 4.20381687,5.15491102 C4.4036766,4.92767159 4.54868763,4.59770746 4.63884991,4.16501867 Z"></path>
                </g>
                <g transform="translate(7.232143, 15.416667)" id="n">
                    <polygon points="1.45338287e-15 3.01442373e-15 2.00892858 3.01442373e-15 2.00892858 6.66666666 0 6.66666666"></polygon>
                    <polygon points="1.45338287e-15 3.01442373e-15 2.00892858 3.01442373e-15 2.00892858 6.66666666 0 6.66666666"></polygon>
                </g>
                <g transform="translate(10.446429, 17.083333)" id="o">
                    <path d="M5.22321427,5.29696134 L3.45578645,5.29696134 L3.45578645,4.43907308 C3.19222268,4.79153877 2.92633331,5.0425875 2.65811838,5.19221916 C2.38990349,5.34185086 2.06044871,5.41666669 1.66975417,5.41666669 C1.14882807,5.41666669 0.740304205,5.24957796 0.444182523,4.91540055 C0.148060841,4.58122318 0,4.06665645 0,3.37170044 L0,0 L1.90231045,0 L1.90231045,2.91282999 C1.90231045,3.24534479 1.95967432,3.48143036 2.0744021,3.62108659 C2.18912989,3.76074279 2.3503689,3.83057093 2.55811917,3.83057093 C2.784474,3.83057093 2.96974383,3.73746677 3.11392874,3.55125845 C3.2581136,3.36505014 3.33020606,3.03087273 3.33020606,2.54872622 L3.33020606,0 L5.22321427,0 L5.22321427,5.29696134 Z"></path>
                    <path d="M5.22321427,5.29696134 L3.45578645,5.29696134 L3.45578645,4.43907308 C3.19222268,4.79153877 2.92633331,5.0425875 2.65811838,5.19221916 C2.38990349,5.34185086 2.06044871,5.41666669 1.66975417,5.41666669 C1.14882807,5.41666669 0.740304205,5.24957796 0.444182523,4.91540055 C0.148060841,4.58122318 0,4.06665645 0,3.37170044 L0,0 L1.90231045,0 L1.90231045,2.91282999 C1.90231045,3.24534479 1.95967432,3.48143036 2.0744021,3.62108659 C2.18912989,3.76074279 2.3503689,3.83057093 2.55811917,3.83057093 C2.784474,3.83057093 2.96974383,3.73746677 3.11392874,3.55125845 C3.2581136,3.36505014 3.33020606,3.03087273 3.33020606,2.54872622 L3.33020606,0 L5.22321427,0 L5.22321427,5.29696134 Z"></path>
                </g>
                <g transform="translate(16.473214, 15.416667)" id="p">
                    <path d="M0,0 L1.97765186,0 L1.97765186,2.27293067 C2.17333195,2.08202833 2.39547694,1.9388516 2.64408685,1.84340045 C2.89269675,1.7479493 3.1677716,1.70022372 3.46931141,1.70022372 C4.09163817,1.70022372 4.6065013,1.90827742 5.01390078,2.32438479 C5.42130026,2.74049219 5.625,3.33780762 5.625,4.11633112 C5.625,4.63534676 5.53197179,5.09246831 5.34591532,5.48769577 C5.15985889,5.8829232 4.90242731,6.1782252 4.57362061,6.37360177 C4.24481396,6.56897839 3.87991874,6.66666666 3.47893499,6.66666666 C3.1356929,6.66666666 2.82132168,6.59806114 2.53582122,6.46085011 C2.32089394,6.35346757 2.08671942,6.1521253 1.83329771,5.85682325 L1.83329771,6.55928411 L0,6.55928411 L0,0 Z M1.96321643,4.17002239 C1.96321643,4.57867264 2.04581909,4.87472037 2.2110244,5.05816555 C2.3762297,5.24161073 2.58554324,5.33333334 2.83896495,5.33333334 C3.07313947,5.33333334 3.2696215,5.24310216 3.42841107,5.06263982 C3.58720061,4.88217749 3.66659542,4.57867264 3.66659542,4.1521253 C3.66659542,3.77628635 3.58880453,3.50037287 3.43322284,3.32438481 C3.27764115,3.14839674 3.08917882,3.06040267 2.86783576,3.06040267 C2.60158259,3.06040267 2.38424936,3.15212528 2.2158362,3.33557047 C2.04742301,3.51901565 1.96321643,3.79716629 1.96321643,4.17002239 L1.96321643,4.17002239 Z"></path>
                    <path d="M0,0 L1.97765186,0 L1.97765186,2.27293067 C2.17333195,2.08202833 2.39547694,1.9388516 2.64408685,1.84340045 C2.89269675,1.7479493 3.1677716,1.70022372 3.46931141,1.70022372 C4.09163817,1.70022372 4.6065013,1.90827742 5.01390078,2.32438479 C5.42130026,2.74049219 5.625,3.33780762 5.625,4.11633112 C5.625,4.63534676 5.53197179,5.09246831 5.34591532,5.48769577 C5.15985889,5.8829232 4.90242731,6.1782252 4.57362061,6.37360177 C4.24481396,6.56897839 3.87991874,6.66666666 3.47893499,6.66666666 C3.1356929,6.66666666 2.82132168,6.59806114 2.53582122,6.46085011 C2.32089394,6.35346757 2.08671942,6.1521253 1.83329771,5.85682325 L1.83329771,6.55928411 L0,6.55928411 L0,0 Z M1.96321643,4.17002239 C1.96321643,4.57867264 2.04581909,4.87472037 2.2110244,5.05816555 C2.3762297,5.24161073 2.58554324,5.33333334 2.83896495,5.33333334 C3.07313947,5.33333334 3.2696215,5.24310216 3.42841107,5.06263982 C3.58720061,4.88217749 3.66659542,4.57867264 3.66659542,4.1521253 C3.66659542,3.77628635 3.58880453,3.50037287 3.43322284,3.32438481 C3.27764115,3.14839674 3.08917882,3.06040267 2.86783576,3.06040267 C2.60158259,3.06040267 2.38424936,3.15212528 2.2158362,3.33557047 C2.04742301,3.51901565 1.96321643,3.79716629 1.96321643,4.17002239 L1.96321643,4.17002239 Z"></path>
                </g>
            </g>
        </g>
    </g>
</svg>