<?xml version="1.0" encoding="UTF-8"?>
<svg width="48px" height="48px" viewBox="0 0 48 48" version="1.1" xmlns="http://www.w3.org/2000/svg" xmlns:xlink="http://www.w3.org/1999/xlink">
    <title>gbbestforeignexchange</title>
    <g id="Page-1" stroke="none" stroke-width="1" fill="none" fill-rule="evenodd">
        <g id="gbbestforeignexchange" fill-rule="nonzero">
            <rect id="Rectangle" x="0" y="0" width="48" height="48"></rect>
            <path d="M17.2570092,27.9741992 L17.2576401,30.5197165 L17.8306451,30.5197165 C18.3367997,30.5197165 18.4036503,30.5388419 18.4036503,30.7109704 C18.4036503,30.883099 18.3367997,30.9022244 17.8306451,30.9022244 L17.2576401,30.9022244 L17.2576401,31.5237996 C17.2576401,32.0688733 17.2862903,32.1836257 17.5059423,32.394005 C17.696944,32.5948216 17.8210951,32.6330724 18.1266978,32.6043843 C18.4227504,32.5756962 18.4991511,32.6043843 18.4991511,32.7286994 C18.4991511,33.025143 17.9929966,33.0920818 17.477292,32.8625771 C17.0570883,32.6808859 16.8756367,32.2792526 16.8756367,31.5237996 L16.8756367,30.9022244 L16.5413837,30.9022244 C16.2739813,30.9022244 16.2071307,30.8639736 16.2071307,30.7109704 C16.2071307,30.5579673 16.2739813,30.5197165 16.5413837,30.5197165 L16.8756367,30.5197165 L16.8758801,28.1540438 C16.8780296,26.7184642 16.8974254,26.6062657 17.0464553,26.5994082 L17.0666384,26.599011 C17.2271533,26.599011 17.2531476,26.6513937 17.2570092,27.9741992 Z M15.4908744,26.599011 C15.8442275,26.599011 15.9206282,26.6276991 15.9206282,26.7711396 C15.9206282,26.9241427 15.8442275,26.9528308 15.4813243,26.9432681 C14.8283815,26.924851 14.7776311,27.0128436 14.7747674,28.710117 L14.774618,30.5197165 L15.2998727,30.5197165 C15.7582768,30.5197165 15.8251273,30.5388419 15.8251273,30.7109704 C15.8251273,30.883099 15.7582768,30.9022244 15.2998727,30.9022244 L14.774618,30.9022244 L14.774618,31.3803592 C14.774618,31.8298059 14.7555178,31.858494 14.5358659,31.858494 C14.3162139,31.858494 14.2971137,31.8298059 14.2971137,31.3803592 C14.2971137,30.9117871 14.2875637,30.9022244 14.0106112,30.9022244 C13.7909593,30.9022244 13.7241087,30.8639736 13.7241087,30.7109704 C13.7241087,30.56753 13.7909593,30.5197165 14.0010611,30.5197165 L14.2780136,30.5197165 L14.3162139,28.8749328 C14.3448642,27.1153966 14.4021647,26.9050173 14.8414686,26.7042007 C14.9656197,26.6468245 15.2616723,26.599011 15.4908744,26.599011 Z M21.3928268,26.6850753 C21.7748302,26.8380784 22.3382852,27.3831521 22.5197368,27.794348 C22.7202886,28.2342321 22.7584889,29.0853121 22.5961375,29.5730096 C22.4337861,30.0607071 22.0613328,30.5005911 21.641129,30.7109704 C21.2877759,30.8926617 20.5619694,31.0361021 20.3614177,30.9596006 C20.3327674,30.9423877 20.2594227,30.9217323 20.1743888,30.9017654 L19.9985144,30.8639736 C19.8457131,30.8257228 19.5401103,30.6249062 19.3013582,30.4049642 C18.594652,29.7451381 18.4036503,28.5880519 18.8620543,27.6987211 C19.0148557,27.3927148 19.053056,27.3640267 19.158107,27.4979045 C19.2536078,27.6126568 19.2631579,27.7178465 19.1772071,27.9473512 C19.0053056,28.4446114 19.0435059,29.3339422 19.2631579,29.7547008 C19.5592105,30.3284626 19.9603141,30.56753 20.6670204,30.56753 C21.1158744,30.56753 21.3164261,30.5197165 21.526528,30.3667134 C22.7393888,29.4678199 22.4624363,27.354464 21.0872241,26.9815189 C20.8580221,26.9241427 20.5715195,26.8954546 20.4569185,26.9241427 C20.2659168,26.9719562 20.1226655,26.8476411 20.1226655,26.6372618 C20.1226655,26.5607602 21.1636248,26.599011 21.3928268,26.6850753 Z M12.7308998,26.7520142 C13.1224533,26.9337054 13.3421053,27.3162132 13.3421053,27.7847853 C13.3421053,28.521113 13.0556027,28.7601804 11.8236418,29.0374986 C11.0405348,29.2191898 10.7635823,29.4295691 10.7635823,29.8407651 C10.7635823,30.6822824 12.3106961,30.9117871 12.75,30.1372087 C12.8837012,29.8981412 13.2466044,29.7260127 13.2466044,29.907704 C13.2466044,30.1180833 12.8837012,30.6440316 12.6640492,30.7683466 C12.3202462,30.9404751 11.6517402,31.0169767 11.3270374,30.9117871 C10.7158319,30.7109704 10.3815789,30.3284626 10.3815789,29.812077 C10.3815789,29.180939 10.7349321,28.8940581 11.7949915,28.6549907 C12.7117997,28.4446114 12.979202,28.2246694 12.9410017,27.7178465 C12.9028013,27.2397117 12.5876486,26.9815189 11.9955433,26.91458 C11.4607385,26.8667665 10.954584,27.1153966 10.7635823,27.5265926 C10.6871817,27.6987211 10.5439304,27.8421615 10.4579796,27.8421615 C10.047326,27.8421615 10.4484296,27.010207 10.9832343,26.7615769 C11.4129881,26.5511975 12.3106961,26.5511975 12.7308998,26.7520142 Z M13.1893039,15.0472738 C13.2466044,15.1333381 14.889219,18.0882113 16.8278863,21.6072835 C19.2249575,25.9583104 20.399618,27.985602 20.4664686,27.9282258 C20.5237691,27.8804123 20.6001698,27.8708496 20.6288201,27.9091004 C20.7243209,27.9951647 20.7147708,28.8940581 20.6288201,28.8846457 C20.5810696,28.8846457 20.3423175,28.741055 20.0844652,28.5593638 C19.6451613,28.2533575 19.6356112,28.2342321 19.8743633,28.205544 C20.0151014,28.1879285 19.9938055,28.0621477 19.0874819,26.7013215 L18.9233075,26.4557283 C18.3462616,25.5953547 17.4667367,24.3106745 16.1498302,22.3914246 C14.1401826,19.4652395 12.4531033,16.9912463 12.1705035,16.5573545 L12.1354325,16.502286 C12.1320907,16.4967453 12.1300188,16.4930501 12.1292445,16.491241 C12.1101443,16.4338648 12.3106961,16.0513569 12.5876486,15.640161 C12.9983022,15.0185857 13.1033531,14.9229588 13.1893039,15.0472738 Z M14.5358659,21.2534637 C14.7555178,21.6742224 14.7173175,21.7220359 14.1920628,21.7220359 C13.7718591,21.7220359 13.6668082,21.6837851 13.4376061,21.435155 C12.9601019,20.9283321 12.1005942,21.0717725 11.7663412,21.7220359 C11.5031833,22.2320463 11.4739436,22.2887142 12.6578921,22.2950106 L14.6982173,22.2957976 L14.660017,22.9078102 C14.6122665,23.6632632 14.2875637,24.2083369 13.7145586,24.5047805 C13.2752547,24.7247225 12.5016978,24.8107868 12.0241936,24.6960344 C11.0882852,24.456967 10.4770798,23.5867616 10.4770798,22.5157397 C10.4770798,21.5499073 10.8113328,20.9378948 11.5562394,20.5553869 C12.6067487,20.0198759 14.0774618,20.364133 14.5358659,21.2534637 Z M21.9849321,20.4980107 C22.3573854,20.6988274 22.7584889,21.1291487 22.8826401,21.4638431 C23.0609083,21.9190274 23.0395161,21.9993541 22.5855263,22.0080412 L22.4815365,22.0089167 C22.0135823,22.0089167 21.975382,21.9897914 21.8703311,21.7315986 C21.6602292,21.1578368 20.8007216,20.995271 20.3327674,21.435155 C19.8457131,21.8941644 19.836163,23.0703761 20.3136672,23.5580736 C20.6765705,23.921456 21.2686757,23.9310187 21.6029287,23.5867616 C21.7366299,23.4624466 21.8416808,23.3094435 21.8416808,23.2520673 C21.8416808,23.1946911 22.080433,23.1564403 22.424236,23.1564403 C23.0640917,23.1564403 23.0640917,23.1564403 22.7298387,23.9023307 C22.4146859,24.5717194 21.1636248,24.9446645 20.2181664,24.6386582 C19.3682088,24.3709028 18.7952037,23.5293855 18.7856536,22.5826785 C18.7856536,21.55947 19.1103565,20.9570201 19.8743633,20.5458242 C20.3709678,20.2876314 21.5360781,20.2589433 21.9849321,20.4980107 Z M16.235781,23.2425046 C16.3790322,23.4528839 16.4936333,23.6632632 16.4936333,23.701514 C16.4936333,23.7397648 16.350382,23.9788322 16.1880306,24.2274623 L15.8728778,24.6864717 L14.660017,24.6864717 L15.2043718,23.9023307 C15.9970289,22.7643698 15.9397284,22.7930579 16.235781,23.2425046 Z M13.533107,22.9651864 L11.62309,22.9651864 L11.7281409,23.2329419 C11.9095925,23.7110767 12.186545,23.921456 12.6449491,23.921456 C12.9601019,23.921456 13.1224533,23.8640799 13.2943549,23.6823886 C13.428056,23.5580736 13.533107,23.3381316 13.533107,23.2042538 L13.533107,22.9651864 Z M18.1935484,20.3832584 C18.6519525,20.3832584 18.7761036,20.4119465 18.7283531,20.5075734 C18.5564516,20.7944543 17.6205433,22.1045437 17.582343,22.1045437 C17.5632428,22.1045437 17.4390917,21.8941644 17.3149406,21.6455343 L17.0857385,21.1865249 L17.3340407,20.7848916 L17.591893,20.3832584 L18.1935484,20.3832584 Z M1.5,29.7547008 C1.5,26.6659499 1.5,26.599011 1.6910017,26.599011 C1.85335314,26.599011 1.8820034,26.6659499 1.8820034,27.0962712 L1.8820034,27.6030941 L2.16850594,27.258837 C2.53140917,26.8093903 2.98981324,26.599011 3.60101868,26.599011 C4.54647708,26.599011 5.23408319,27.2205863 5.42508489,28.2629202 C5.59698642,29.2287525 5.30093379,30.127646 4.65152801,30.6057808 C3.88752122,31.1604172 2.96116299,31.0647902 2.29265705,30.3667134 L1.8820034,29.9459547 L1.8820034,31.4281727 C1.8820034,32.8434518 1.87245331,32.9103906 1.6910017,32.9103906 C1.5,32.9103906 1.5,32.8434518 1.5,29.7547008 L1.5,29.7547008 Z M4.3459253,30.3571507 C5.01443124,29.8694532 5.24363328,28.5880519 4.82342954,27.7465346 C4.53692699,27.1823355 3.89707131,26.8380784 3.32406621,26.9337054 C2.41680815,27.0867085 1.92975382,27.7465346 1.93930391,28.7984312 C1.94885399,29.6495111 2.28310696,30.2423983 2.93251273,30.5101538 C3.27631579,30.663157 4.04987267,30.5770927 4.3459253,30.3571507 L4.3459253,30.3571507 Z M30.2171053,32.298378 C30.1216044,32.0497479 30.2553056,31.8489313 30.4749575,31.8776194 C30.6182088,31.8967448 30.6755093,31.9732464 30.6755093,32.1453749 C30.6755093,32.4226931 30.3126061,32.5374455 30.2171053,32.298378 Z M7.28735145,30.8639736 C6.4851443,30.56753 5.99809,29.8025143 5.98853989,28.8462446 C5.98853989,27.7847853 6.30369269,27.1632101 7.04859933,26.7902649 C7.52610357,26.5416348 8.38561122,26.5416348 8.91086587,26.7807022 C9.2737691,26.9432681 9.71307301,27.4692164 9.71307301,27.7369719 C9.71307301,27.9473512 9.37882005,27.8325988 9.2164686,27.5648433 C8.96816637,27.1249593 8.60526318,26.9337054 8.00360782,26.9337054 C7.10589983,26.9337054 6.58064515,27.4022775 6.41829374,28.3489845 L6.35144313,28.7028042 L8.03225805,28.7028042 C9.35016978,28.7028042 9.73217318,28.7314923 9.77037352,28.8271193 C9.84677419,29.0470613 9.61757217,29.8790159 9.37882005,30.2423983 C8.98726654,30.8448482 8.01315788,31.1317291 7.28735145,30.8639736 Z M8.63391341,30.4240895 C9.01591681,30.1945848 9.22601866,29.8790159 9.30241934,29.4295691 L9.35971988,29.0853121 L7.86990664,29.0853121 L6.38964346,29.0853121 L6.46604414,29.4104437 C6.68569609,30.4145268 7.80305603,30.9309125 8.63391341,30.4240895 Z M28.6317912,26.7902649 C28.9946944,26.9815189 29.3862479,27.4596537 29.3862479,27.7274092 C29.3862479,27.9473512 29.0519949,27.8421615 28.8896435,27.5648433 C28.6413412,27.1249593 28.278438,26.9337054 27.6767827,26.9432681 C26.7599745,26.9432681 26.2729202,27.3831521 26.1010187,28.3489845 L26.0341681,28.7028042 L29.510399,28.7028042 L29.4435484,29.1905017 C29.3575976,29.8598905 29.0710951,30.3762761 28.6413412,30.6535943 C28.1924873,30.9596006 27.4571307,31.0456648 26.9605263,30.8639736 C26.1583192,30.56753 25.6712649,29.8025143 25.6617148,28.8462446 C25.6617148,27.7847853 25.9768676,27.1632101 26.7217742,26.7902649 C27.2183786,26.5320722 28.1160866,26.5320722 28.6317912,26.7902649 Z M33.4927844,25.1167931 C34.3809423,25.1263558 34.8870968,25.3749859 35.2213497,25.967873 C35.4410017,26.3408182 35.4505518,26.4460079 35.479202,28.6358654 L35.5174024,30.9022244 L35.2691002,30.9022244 C35.0398982,30.9022244 35.020798,30.8735363 35.020798,30.4527777 C35.0112479,29.9937682 35.0112479,29.9937682 34.8775467,30.251961 C34.571944,30.8065974 33.6551358,31.103041 32.8815789,30.883099 C32.3945246,30.7492212 31.7546689,30.1085206 31.6018676,29.6016977 C31.1434635,28.0621036 32.1080221,26.694638 33.5500849,26.8093903 C34.1039898,26.8572038 34.6101443,27.1440847 34.8679966,27.5457179 C35.0112479,27.7847853 35.0112479,27.7752227 35.020798,27.1249593 C35.020798,25.967873 34.5528438,25.4514874 33.5118845,25.4514874 C32.8338285,25.4514874 32.3945246,25.6523041 32.1462224,26.0730627 C31.9456706,26.4077571 31.5827674,26.5416348 31.5827674,26.2738793 C31.5827674,26.0252492 32.0125212,25.5184263 32.3945246,25.3176097 C32.6810272,25.1646065 32.9484296,25.1167931 33.4927844,25.1167931 Z M37.0263158,26.599011 L37.0263158,28.1386051 C37.0263158,29.907704 37.0931664,30.1085206 37.7425722,30.4240895 C38.2200764,30.6535943 38.6498302,30.663157 39.0413837,30.4623403 C39.4981269,30.2336671 39.5966246,29.8912539 39.6043262,28.3471524 L39.6048387,28.1290424 C39.6048387,26.7324541 39.6135403,26.607981 39.7721473,26.5995507 L39.7958404,26.599011 C39.9615136,26.599011 39.9838814,26.6548145 39.9865187,27.8727862 L39.9868421,28.2533575 C39.9868421,30.0415817 39.9104414,30.3667134 39.413837,30.7300958 C39.0891341,30.9691633 38.401528,31.0265394 37.943124,30.8639736 C37.7425722,30.787472 37.4560696,30.6057808 37.3032683,30.4623403 L37.0263158,30.1945848 L37.0263158,30.5484046 C37.0263158,30.8639736 36.9976655,30.9022244 36.7875637,30.9022244 L36.5488116,30.9022244 L36.5488116,26.599011 L37.0263158,26.599011 Z M24.7067063,20.3832584 L24.7067063,23.2711927 L24.9836588,23.5485109 C25.346562,23.9023307 25.7667657,23.921456 26.0914686,23.5867616 C26.3097562,23.3681857 26.3288131,23.3230828 26.3301331,22.0636691 L26.3302207,20.3832584 L27.4762309,20.3832584 L27.4762309,22.0662929 C27.4762309,23.7780156 27.4475807,23.9597068 27.0655773,24.3709028 C26.6071732,24.8872884 25.6139644,24.8872884 25.0409593,24.3804655 L24.7067063,24.0935846 L24.7067063,26.599011 L23.9426995,26.599011 L23.9426995,28.0334155 C23.9426995,29.0757494 23.9808998,29.5634469 24.0764007,29.8025143 C24.229202,30.1658968 24.7258064,30.5197165 25.0696095,30.5197165 C25.1842105,30.5197165 25.3083616,30.5866554 25.3370119,30.663157 C25.4038625,30.8352855 25.3561121,30.978726 25.231961,30.9404751 C25.1842105,30.9309125 25.012309,30.8926617 24.8595077,30.8544109 C24.6971562,30.8257228 24.4297538,30.6440316 24.2578523,30.4623403 L23.9426995,30.127646 L23.9426995,30.5101538 C23.9426995,30.8352855 23.9140492,30.9022244 23.7516978,30.9022244 C23.5950764,30.9022244 23.5668845,30.8572147 23.56181,27.9780085 L23.5610261,27.2993725 L23.5609503,27.1769545 L23.5606961,20.3832584 L24.7067063,20.3832584 Z M30.2457555,26.5894483 L30.4654075,26.6181364 C30.4804148,26.6201856 30.4943501,26.6220883 30.5073005,26.6246323 L30.5432838,26.6349757 C30.676094,26.6903445 30.6796022,26.9514647 30.7041596,28.7793058 L30.7232598,30.9022244 L30.2457555,30.9022244 L30.2457555,26.5894483 Z M29.0328947,29.0853121 L26.1105688,29.0853121 L26.1678693,29.4200064 C26.3206706,30.3858388 27.485781,30.9309125 28.3070883,30.4240895 C28.6890917,30.1945848 28.8991936,29.8790159 28.9755942,29.4295691 L29.0328947,29.0853121 Z M33.4354839,27.1536474 C32.6141766,27.1536474 32.0602716,27.6987211 31.983871,28.5498011 C31.9265705,29.2670033 32.0220713,29.6973246 32.318124,30.0511444 C32.8051783,30.6249062 33.5118845,30.7587839 34.2185908,30.4145268 C34.7533956,30.1658968 35.020798,29.6303858 35.020798,28.8462446 C35.020798,27.8134735 34.4000425,27.1536474 33.4354839,27.1536474 Z M40.6839983,19.0827317 C40.8941002,19.1879213 41.1710526,19.4365514 41.3047538,19.6469308 L41.5626061,20.0294386 L41.5912564,22.3627365 L41.6199066,24.6864717 L40.4643464,24.6864717 L40.4643464,24.0744592 L40.196944,24.332652 C39.7767402,24.7342852 39.1368845,24.868163 38.5352292,24.6864717 C37.2650679,24.3039639 36.7684635,22.3053603 37.6661715,21.2343384 C38.3442275,20.4310718 39.5475382,20.3736957 40.2351443,21.119586 L40.4834465,21.3873415 L40.4452462,20.7944543 C40.3974958,20.1059402 40.2255942,19.8573101 39.7003396,19.7138696 C39.2514856,19.5895546 38.7548812,19.732995 38.4970289,20.048564 C38.3251273,20.268506 38.2391766,20.2971941 37.7807725,20.268506 L37.2555178,20.2398179 L37.3319185,19.9338117 C37.4369694,19.513053 37.9144737,19.073169 38.3919779,18.9392912 C38.964983,18.7862881 40.2446944,18.8723524 40.6839983,19.0827317 Z M33.8747878,20.3832584 L33.8747878,23.3285689 L34.1708404,23.577199 C34.5432937,23.8927679 34.9539474,23.9023307 35.2595501,23.5867616 C35.4778377,23.3681857 35.4968946,23.3230828 35.4982146,22.0636691 L35.4983022,20.3832584 L36.6443124,20.3832584 L36.6443124,22.0376049 C36.6443124,23.8353918 36.5679117,24.1509608 36.0617572,24.5239059 C35.7657046,24.7342852 35.0971987,24.8203495 34.6960951,24.6864717 C34.5432937,24.6386582 34.2949915,24.4856551 34.1517402,24.3422147 L33.8747878,24.0744592 L33.8747878,24.6864717 L32.6332768,24.6864717 L32.6332768,20.3832584 L33.8747878,20.3832584 Z M30.5131579,20.6701393 L30.7232598,20.8709559 L30.7232598,20.6223258 C30.7232598,20.4104753 30.7395345,20.386031 31.1776995,20.3835239 L31.8692699,20.3832584 L31.8692699,22.0376049 C31.8692699,23.9118934 31.7928693,24.1987742 31.1721137,24.5239059 C30.7805603,24.7247225 29.8828523,24.8107868 29.4339983,24.6960344 C28.8132428,24.5334686 28.3739389,24.1413981 28.278438,23.6537005 L28.2211375,23.3476942 L28.6986418,23.3476942 C29.1092954,23.3476942 29.2238964,23.3955077 29.4626485,23.6345751 C29.9688031,24.1413981 30.7232598,23.9118934 30.7232598,23.26163 C30.7232598,22.9938745 30.7232598,22.9938745 29.9497029,22.9364983 C28.5553905,22.8217459 27.9632852,22.3436111 28.0778863,21.3777788 C28.1160866,21.023959 28.1924873,20.8518305 28.4121392,20.6605766 C28.9373939,20.1824418 29.9974533,20.1920044 30.5131579,20.6701393 Z M39.070034,21.5307819 C38.3728778,21.7602867 38.172326,22.8982475 38.7071307,23.5389482 C38.964983,23.8353918 39.299236,23.921456 39.74809,23.8067037 C39.9008913,23.7588902 40.0441426,23.7302021 40.0632428,23.7302021 C40.0687,23.7302021 40.1022227,23.6833644 40.1495555,23.6128848 L40.2291303,23.4923335 C40.243525,23.4702529 40.2583374,23.4474195 40.2733446,23.4241958 C40.5216469,23.0129999 40.5216469,22.3436111 40.2828947,21.9515406 C40.0345925,21.5499073 39.5379881,21.3777788 39.070034,21.5307819 Z M29.8351018,21.1482741 C29.6154499,21.1482741 29.3766978,21.1960876 29.3098472,21.2630264 C29.1474958,21.4255923 29.1665959,21.8654763 29.3480475,22.0089167 C29.5008489,22.1427945 30.0070034,22.2671096 30.4654075,22.286235 C30.7041596,22.2957976 30.7232598,22.2671096 30.7232598,21.9611033 C30.7232598,21.4638431 30.3794567,21.1482741 29.8351018,21.1482741 Z M43.6063241,24.6386582 C43.0715195,24.4665297 42.5271648,23.9405814 42.3170628,23.3859451 C42.0687606,22.7356817 42.1738116,21.7315986 42.5367146,21.215213 C42.9760185,20.584075 43.5108235,20.3354449 44.4276318,20.3354449 C45.0579374,20.3354449 45.2584889,20.3832584 45.6022921,20.5745123 C46.0129458,20.804017 46.3853989,21.2725892 46.3853989,21.5690327 C46.3853989,21.6933478 46.2898983,21.7220359 45.8983447,21.7220359 C45.4781408,21.7220359 45.37309,21.6837851 45.1438878,21.435155 C44.9242358,21.2056503 44.8000849,21.1482741 44.4562816,21.1482741 C44.2270799,21.1482741 43.9405771,21.215213 43.8164262,21.3012772 C43.6158743,21.4447177 43.329372,21.970666 43.329372,22.2001707 C43.329372,22.2575469 43.8928268,22.2957976 44.914686,22.2957976 L46.5,22.2957976 L46.4331492,22.8026206 C46.2994481,23.8353918 45.8314939,24.4474043 45.0006368,24.6769091 C44.5040324,24.8107868 44.1506793,24.8012241 43.6063241,24.6386582 Z M44.9433363,23.7588902 C45.0579374,23.6632632 45.1820883,23.4433212 45.2298386,23.2807554 L45.3253396,22.9651864 L44.3703312,22.9651864 C43.472623,22.9651864 43.4248726,22.9747491 43.4248726,23.166003 C43.4248726,23.2711927 43.549024,23.4911347 43.7018251,23.6441378 C44.0360782,23.9692695 44.6090832,24.0266457 44.9433363,23.7588902 L44.9433363,23.7588902 Z" id="Combined-Shape" fill="#062F6E" transform="translate(24.000000, 24.000000) scale(-1, 1) rotate(180.000000) translate(-24.000000, -24.000000) "></path>
        </g>
    </g>
</svg>