<?xml version="1.0" encoding="UTF-8"?>
<svg width="48px" height="48px" viewBox="0 0 48 48" version="1.1" xmlns="http://www.w3.org/2000/svg" xmlns:xlink="http://www.w3.org/1999/xlink">
    <title>genb</title>
    <g id="Page-1" stroke="none" stroke-width="1" fill="none" fill-rule="evenodd">
        <g id="genb" fill-rule="nonzero">
            <rect id="Rectangle" x="0" y="0" width="48" height="48"></rect>
            <path d="M35.2465197,4.51930014 C40.4271804,7.50900419 44.1790579,12.3983609 45.7295521,18.1766915 C47.2800459,23.9497307 46.4704023,30.0720096 43.4805421,35.2471079 C40.48539,40.4274978 35.6010695,44.1791796 29.8224369,45.7295924 C24.0438043,47.2800052 17.9264971,46.4704038 12.7511284,43.4806999 C7.56517601,40.490996 3.81858998,35.6016392 2.26809607,29.8233085 C0.722893937,24.0449778 1.52724573,17.9279905 4.51710604,12.7528921 C7.50696634,7.57250229 12.3912868,3.82082059 18.1752112,2.27040771 C23.9485521,0.719994814 30.0711509,1.52959608 35.2465197,4.51930014 Z M44.3960213,18.5365143 C41.379702,7.27617764 29.7959779,0.587707022 18.529761,3.60386864 C7.26354408,6.62003024 0.574723869,18.2031491 3.5963349,29.4687772 C6.61265413,40.7344055 18.1963783,47.422876 29.4625953,44.401423 C40.7288122,41.3852613 47.4123406,29.8021425 44.3960213,18.5365143 Z M25.5149214,40.3534165 L25.5149214,41.6710029 C25.5149214,42.094324 25.1656633,42.4594382 24.7423203,42.4753126 L23.4087897,42.4858956 C22.9854466,42.4700212 22.8796109,42.210737 23.1812428,41.9091211 L24.9645754,40.1258814 C25.2662073,39.8242654 25.5149214,39.9248041 25.5149214,40.3534165 Z M21.2338648,40.1893797 L20.8898985,41.4646339 C20.778771,41.8773719 20.3501361,42.1366558 19.9373766,42.0414088 L18.6514721,41.702752 C18.2440045,41.5757556 18.2122537,41.300597 18.5826789,41.0889367 L20.7628956,39.8295569 C21.1333208,39.6178964 21.3449923,39.7819333 21.2338648,40.1893797 Z M29.6954339,39.4115275 L30.0341084,40.6761986 C30.1452359,41.0889367 29.9018137,41.5334238 29.4996378,41.6710029 C29.4996378,41.6710029 29.2773827,41.7450842 28.7852464,41.8773719 C28.3407362,41.9990767 28.2190251,42.0202428 28.2190251,42.0202428 C27.8009738,42.1101984 27.6369284,41.8773719 27.8485999,41.5122578 L29.1080455,39.3321548 C29.319717,38.961749 29.5843064,38.9987896 29.6954339,39.4115275 Z M17.1380207,38.9194169 L16.4765472,40.0570919 C16.2648757,40.4274978 15.783323,40.5650769 15.407606,40.3692909 L14.2539962,39.7078521 C13.8941546,39.4856086 13.9364889,39.2104501 14.3439566,39.0993283 L16.7781791,38.4484724 C17.1909386,38.3373506 17.3496923,38.5490111 17.1380207,38.9194169 Z M33.4896461,37.4060446 L34.1458278,38.5490111 C34.3574993,38.9194169 34.24108,39.406236 33.8812384,39.633771 L32.7276286,40.3057931 C32.3519116,40.5068704 32.1349483,40.3322505 32.2460758,39.9248041 L32.9022576,37.4854173 C33.0133851,37.0726794 33.2779745,37.0409303 33.4896461,37.4060446 Z M13.2803072,36.0937497 C13.708942,36.0937497 13.809486,36.3424508 13.5078541,36.6387754 L12.5764993,37.5700815 C12.2748674,37.8716976 11.7721475,37.8822807 11.4599321,37.596539 L10.512702,36.6599415 C10.2216536,36.3477423 10.3327812,36.0937497 10.7561242,36.0937497 L13.2803072,36.0937497 Z M36.6276764,34.4904217 L37.5643229,35.4217278 C37.8659548,35.7233439 37.8765384,36.2260375 37.5907819,36.5382367 L36.6488436,37.4854173 C36.3419199,37.7764504 36.0826223,37.6653287 36.0826223,37.2420077 L36.0826223,34.7179567 C36.0826223,34.2946358 36.3260445,34.1888055 36.6276764,34.4904217 Z M28.7429121,11.6840068 C29.6266407,12.0226636 30.7326244,12.689394 31.2088854,13.16563 C31.6639792,13.6312831 31.4946419,15.4727291 31.3517636,15.8484264 C31.2088854,16.2241237 31.3888062,16.3987436 31.7592314,16.2347067 C32.1296565,16.0706699 32.9763426,15.9383821 33.6483997,15.9436736 C34.315165,15.9436736 35.6751545,17.7692451 36.0614551,18.637053 C36.4477556,19.5048609 36.7599711,20.7589492 36.7546793,21.4256796 C36.7546793,22.0977016 35.3364801,23.2724172 34.9660549,23.436454 C34.6009216,23.6004909 34.6062133,23.8544834 34.9819303,23.9973543 C35.3576473,24.1402251 36.0508715,24.6482102 36.5218407,25.1244462 C36.9928098,25.5953908 36.6647189,27.8495747 36.3260445,28.7332571 C35.9873701,29.6169396 35.3206047,30.728157 34.8443438,31.1991015 C34.3680829,31.6700461 32.5318324,31.5007177 32.1561154,31.3578469 C31.7803985,31.214976 31.6057695,31.3948874 31.7698149,31.7652932 C31.9338604,32.1356991 32.066155,32.9823409 32.066155,33.6543629 C32.066155,34.3263849 30.2351963,35.6810118 29.3726349,36.0672922 C28.5047816,36.4535725 27.2506278,36.7657717 26.5838626,36.7657717 C25.9118054,36.7604802 24.7370285,35.3423551 24.5729831,34.9719493 C24.4089376,34.6015434 24.1549318,34.6121265 24.0120535,34.9878238 C23.8691752,35.3635211 23.3611636,36.0567091 22.8849027,36.5329452 C22.4086417,37.0038897 20.1596318,36.675816 19.2759031,36.3318677 C18.3921745,35.993211 17.280899,35.3264805 16.8099299,34.8502445 C16.3389607,34.3793 16.5082979,32.5378539 16.6511762,32.1621566 C16.7940545,31.7864593 16.6141337,31.6118394 16.2437085,31.7758763 C15.8785752,31.9399131 15.0265972,32.0722009 14.359832,32.0669094 C13.6877749,32.0669094 12.3277853,30.2360464 11.9467766,29.37353 C11.5604761,28.5057221 11.2482605,27.2516339 11.2482605,26.5849034 C11.2482605,25.9128814 12.6717515,24.7381659 13.0368849,24.574129 C13.4020183,24.4100922 13.3967265,24.1560996 13.0210096,24.0132288 C12.6452926,23.870358 11.9520683,23.3623728 11.4810992,22.8861368 C11.0101301,22.4151923 11.3435127,20.1610084 11.6821871,19.2773259 C12.0208616,18.3936435 12.6876269,17.2824261 13.1638878,16.8114815 C13.6401488,16.340537 15.4763992,16.5098654 15.8521162,16.6580277 C16.2278332,16.80619 16.4024622,16.6209871 16.2384167,16.2505813 C16.0743713,15.8801755 15.9420766,15.0335336 15.9473684,14.3615117 C15.9473684,13.6894897 17.7730353,12.3295712 18.6408885,11.9485824 C19.5087418,11.562302 20.7628956,11.2501029 21.4296609,11.2501029 C22.0964262,11.2501029 23.2764949,12.6735195 23.4405404,13.0386338 C23.6045858,13.4090396 23.8585917,13.4037481 24.0014699,13.0227592 C24.1443482,12.6470619 24.6523599,11.9538739 25.1286208,11.4829294 C25.6048818,11.0119848 27.8591835,11.3400586 28.7429121,11.6840068 Z M8.08377123,32.2521123 L10.5232856,32.9029682 C10.936045,33.01409 10.9677958,33.2786656 10.5973706,33.490326 L9.44905257,34.151765 C9.08391917,34.3634255 8.59178289,34.2470122 8.36423602,33.8871894 L7.69747069,32.7336399 C7.49638275,32.3579425 7.67101175,32.1409906 8.08377123,32.2521123 Z M25.8430122,15.0970318 L25.4302527,16.1659171 C25.0862865,17.0654741 24.5835666,17.9015329 24.3189772,18.0179462 C24.0543878,18.1343594 23.6151694,18.1449424 23.3452882,18.0444037 C23.075407,17.9385735 22.5303528,17.1342637 22.1387605,16.2558728 L21.6730832,15.2081535 C21.2814908,14.3297626 20.3607197,13.8746926 19.6304529,14.1974748 C18.8948944,14.5255485 18.6197214,15.5097697 19.0113137,16.3881606 L19.4769911,17.4358799 C19.8685834,18.3142708 20.1067139,19.2561599 20.0008781,19.526027 C19.8950424,19.7958941 19.5934104,20.1133847 19.328821,20.2350895 C19.0642316,20.3515028 18.1117097,20.1662999 17.2121058,19.8223516 L16.1378728,19.4096137 C15.2382688,19.0656655 14.2645798,19.3937392 13.9788232,20.1451338 C13.6930667,20.891237 14.1904948,21.7907939 15.0953905,22.1347422 L16.1643317,22.5474801 C17.0639357,22.8914283 17.8947464,23.3941219 18.0164575,23.6586975 C18.1328769,23.9232731 18.1434605,24.3624686 18.0429165,24.6323357 C17.9423725,24.9022027 17.1327289,25.4472284 16.2542921,25.8388003 L15.206518,26.3044533 C14.3280812,26.6960252 13.8729874,27.6167482 14.2010783,28.3469768 C14.5238774,29.0772054 15.5134418,29.3576555 16.3971704,28.9660836 L17.4449445,28.5004306 C18.3286731,28.1088588 19.2706113,27.8760322 19.5404925,27.9765709 C19.8103737,28.0824012 20.127881,28.3840174 20.2495922,28.6485929 C20.3660115,28.9131685 20.1807989,29.8656406 19.8368327,30.7651976 L19.4240732,31.8499575 C19.080107,32.7495144 19.4081978,33.717861 20.15434,34.0088942 C20.9004821,34.2946358 21.7947943,33.7919422 22.1440523,32.8923852 L22.5568118,31.8182084 C22.900778,30.9186514 23.3982061,30.0878841 23.6680873,29.9661793 C23.9326767,29.8497661 24.3718951,29.8338915 24.6417763,29.9397218 C24.9116575,30.045552 25.4567117,30.8498617 25.848304,31.7282527 L26.3139814,32.775972 C26.7055737,33.6543629 27.6263448,34.1094329 28.3566116,33.7866507 C29.0868783,33.458577 29.3673431,32.4743558 28.9757508,31.5959649 L28.5100734,30.5482456 C28.1184811,29.6698547 27.8803506,28.7226741 27.9861864,28.452807 C28.0920222,28.1829399 28.3936541,27.8654492 28.6582435,27.7437444 C28.9228329,27.6273312 29.8753547,27.8125341 30.7749587,28.1564823 L31.8439,28.5692202 C32.7435039,28.9131685 33.7171929,28.5850948 34.0029495,27.8337001 C34.2887061,27.087597 33.7859862,26.1933316 32.891674,25.8440918 L31.817441,25.4313539 C30.917837,25.0874056 30.0870263,24.584712 29.9653151,24.3201365 C29.8488958,24.0555609 29.8330205,23.6163654 29.9388562,23.3464983 C30.044692,23.0766312 30.8490438,22.5316056 31.7274806,22.1400337 L32.7752546,21.6743807 C33.6536915,21.2828088 34.1087853,20.3620858 33.7859862,19.6318572 C33.4578953,18.9016286 32.4736228,18.6211785 31.5898941,19.0127504 L30.5421201,19.4784034 C29.6636833,19.8699752 28.7164532,20.1080933 28.446572,20.002263 C28.1766908,19.8964328 27.8591835,19.5948166 27.7374724,19.330241 C27.621053,19.0656655 27.8062656,18.1131934 28.1502318,17.2136364 L28.5629913,16.1394596 C28.9122493,15.2399026 28.5788667,14.2662645 27.8327245,13.9805228 C27.0865824,13.6947812 26.1922702,14.1921833 25.8430122,15.0970318 Z M38.9190207,30.8657363 L40.0567552,31.5218837 C40.4218884,31.7335442 40.5647667,32.2203632 40.3689705,32.5960606 L39.7074971,33.7496101 C39.4799502,34.1094329 39.210069,34.0671008 39.0989415,33.6596544 L38.4480516,31.2255591 C38.336924,30.8181127 38.5485955,30.6540758 38.9190207,30.8657363 Z M6.48565121,27.8548662 L8.66586791,29.114246 C9.0362931,29.3259064 8.99925057,29.590482 8.59178289,29.7016037 L7.32175374,30.0402605 C6.90899427,30.1513822 6.46448407,29.9079727 6.32689759,29.5058178 C6.32689759,29.5058178 6.25281253,29.2835743 6.12051785,28.7914637 C6.02738235,28.4358742 5.99182153,28.2868652 5.98132262,28.2414852 L5.97763954,28.225272 C5.89297093,27.8125341 6.12051785,27.6432057 6.48565121,27.8548662 Z M40.1837579,26.7648148 L41.4590791,27.1087631 C41.8718384,27.2198848 42.1311361,27.6484973 42.0358838,28.0612352 L41.6972093,29.3470725 C41.5702066,29.7545188 41.2950337,29.7809764 41.0833619,29.4158621 L39.8239165,27.2357594 C39.6122449,26.8653535 39.7762904,26.6589846 40.1837579,26.7648148 Z M26.54682,23.3200408 C26.9278288,24.7275828 26.0864344,26.177457 24.6788188,26.5531544 C23.2712032,26.9288517 21.826545,26.0927928 21.4455363,24.6852508 C21.0698193,23.2777087 21.9059218,21.833126 23.3135375,21.4521372 C24.7211531,21.0764399 26.1711031,21.9124987 26.54682,23.3200408 Z M6.08876712,23.187753 L7.87739149,24.9762839 C8.17902342,25.2779001 8.07847943,25.5213096 7.64984461,25.5213096 L6.32689759,25.5213096 C5.89826273,25.5213096 5.53842113,25.1720698 5.52254579,24.7487489 L5.51725399,23.415288 C5.53312934,22.9919671 5.78713519,22.8861368 6.08876712,23.187753 Z M41.6654585,22.4839819 C42.0940938,22.4839819 42.453935,22.8332217 42.4698106,23.2565426 L42.4803942,24.5900036 C42.4645186,25.0133245 42.2052213,25.1138632 41.9035891,24.8175385 L40.1149647,23.0290076 C39.8133329,22.7273915 39.9138769,22.4839819 40.3425117,22.4839819 L41.6654585,22.4839819 Z M6.90899427,18.5894294 L8.16843983,20.7748237 C8.38011136,21.1452295 8.22135774,21.3515984 7.80859823,21.2457682 L6.53327733,20.8965285 C6.12580961,20.7854067 5.866512,20.3567943 5.9564724,19.9440564 L6.29514686,18.6582191 C6.41685799,18.2507727 6.69732274,18.2190236 6.90899427,18.5894294 Z M41.6654585,18.4941822 L41.6742217,18.5212747 C41.697421,18.594086 41.7660026,18.8159061 41.8718384,19.2138278 C41.9882578,19.6583148 42.0147166,19.7800195 42.0147166,19.7800195 C42.0993853,20.1980489 41.8718384,20.3620858 41.5014135,20.1504253 L39.3211966,18.8910456 C38.9560632,18.6793851 38.9878139,18.4148095 39.4005734,18.3036878 L40.6706026,17.9650311 C41.0833619,17.8539093 41.5278723,18.0920273 41.6654585,18.4941822 Z M8.89341482,14.3509286 L9.54430477,16.785024 C9.65543231,17.1977619 9.44376077,17.3565072 9.07333562,17.1448468 L7.93560116,16.4834078 C7.56517601,16.2717473 7.42758949,15.7902198 7.62338568,15.4145225 L8.28485917,14.2609729 C8.51240608,13.9011501 8.78228728,13.9381907 8.89341482,14.3509286 Z M39.6281203,14.1181021 L40.3001774,15.2716517 C40.5012652,15.647349 40.3266365,15.864301 39.9138769,15.7531792 L37.4796543,15.1023233 C37.0668948,14.9912016 37.0351441,14.7266259 37.4002775,14.5149655 L38.5433037,13.8535266 C38.9137289,13.6418661 39.4005734,13.7582793 39.6281203,14.1181021 Z M11.9097341,10.7685753 L11.9097341,13.2926263 C11.9097341,13.7159473 11.6663118,13.8217775 11.3593881,13.5201613 L10.4333252,12.5835638 C10.1316932,12.2819476 10.1211097,11.779254 10.4068662,11.4670548 L11.3435127,10.5198743 C11.6557282,10.2288411 11.9097341,10.3399629 11.9097341,10.7685753 Z M36.5324242,10.4087525 L37.4796543,11.3506416 C37.7707026,11.6628408 37.6595751,11.9168333 37.2362321,11.9168333 L34.7120491,11.9168333 C34.2887061,11.9168333 34.1828703,11.6734238 34.4845022,11.3718076 L35.4158569,10.4352101 C35.7174889,10.1335939 36.2202087,10.1230109 36.5324242,10.4087525 Z M15.7409886,8.08577893 L15.0900987,10.5251658 C14.9789712,10.9379037 14.7143818,10.9696528 14.5027102,10.5992469 L13.8465285,9.45628044 C13.634857,9.08587461 13.7512763,8.59905557 14.1111179,8.37152054 L15.259436,7.69949858 C15.6351529,7.49842115 15.8521162,7.67304103 15.7409886,8.08577893 Z M32.5900421,7.63070892 L33.7436519,8.29214788 C34.1034935,8.51968287 34.0611592,8.79484148 33.6536915,8.9006717 L31.219469,9.55152762 C30.8120013,9.6626494 30.6479558,9.45098893 30.8596274,9.08058309 L31.5158091,7.94290813 C31.7274806,7.57250229 32.2143251,7.43492301 32.5900421,7.63070892 Z M20.1437564,6.49832547 L18.8843108,8.67842823 C18.6726393,9.04883402 18.4080499,9.01179347 18.2969223,8.59905557 L17.9582479,7.32909279 C17.8471203,6.91635489 18.0905426,6.47186792 18.4927185,6.33428859 C18.4927185,6.33958011 18.7149736,6.26020745 19.2071099,6.12791964 C19.6463283,6.01150639 19.7733312,5.98504883 19.7733312,5.98504883 C20.1913825,5.90038465 20.3554279,6.12791964 20.1437564,6.49832547 Z M28.0602714,5.9638828 L29.3461759,6.30253952 C29.7536436,6.42424429 29.7801026,6.70469442 29.4149692,6.91635489 L27.2347525,8.17573463 C26.8643273,8.3873951 26.6579476,8.22864974 26.7637834,7.81591184 L27.1024578,6.54065754 C27.2135853,6.13321116 27.6422202,5.86863558 28.0602714,5.9638828 Z M24.5835666,5.52468734 C25.0069097,5.54056186 25.1074537,5.79984592 24.8058217,6.09617057 L23.0171973,7.8847015 C22.7155654,8.18631767 22.4721432,8.08577893 22.4721432,7.65716651 L22.4721432,6.33428859 C22.477435,5.91096769 22.826693,5.54585338 23.250036,5.52997882 L24.5835666,5.52468734 Z" id="Combined-Shape" fill="#000000"></path>
        </g>
    </g>
</svg>