<?xml version="1.0" encoding="UTF-8"?>
<svg width="48px" height="48px" viewBox="0 0 48 48" version="1.1" xmlns="http://www.w3.org/2000/svg" xmlns:xlink="http://www.w3.org/1999/xlink">
    <title>gncb</title>
    <g id="Page-1" stroke="none" stroke-width="1" fill="none" fill-rule="evenodd">
        <g id="gncb" transform="translate(0.000000, -0.000000)">
            <rect id="Rectangle" x="0" y="0" width="48" height="48"></rect>
            <path d="M2.24174046,39.7539982 C2.23545453,39.4522733 2.22916859,39.1735968 2.22497797,38.8949203 C2.20402485,37.1076191 2.18726235,35.3203179 2.16002329,33.5330167 C2.14954673,32.7870857 2.11811705,32.0390593 2.08459206,31.2931282 C2.0741155,31.050072 2.03849519,30.8070158 2.00077958,30.5660549 C1.96725458,30.3502378 1.88763273,30.1511831 1.761914,29.968891 C1.6571484,29.8159332 1.54400155,29.6629754 1.5,29.4492536 C1.59847967,29.4408723 1.68648277,29.4262052 1.77448588,29.4262052 C2.80118878,29.4241098 3.82789168,29.4136333 4.85249926,29.4283005 C5.65500377,29.4408723 6.45750828,29.478588 7.25791748,29.5204942 C7.59945335,29.539352 7.94517983,29.5644957 8.27414382,29.6462129 C9.40980295,29.92908 10.1976403,30.6100565 10.5119371,31.7603828 C10.685848,32.393167 10.5412714,32.9924262 10.1976403,33.5434933 C10.0656356,33.7572151 9.92105908,33.9625557 9.78067318,34.1720869 C9.74295756,34.2286603 9.70733726,34.2873291 9.6633357,34.360665 C9.83096067,34.5073368 9.99439501,34.6498181 10.155734,34.7922993 C10.5999402,35.1883133 10.9226182,35.6639491 11.042051,36.2527318 C11.2243432,37.153716 10.981287,37.9415533 10.356884,38.6057672 C9.82467473,39.1735968 9.14998425,39.4732264 8.39357661,39.5989451 C7.57221429,39.7351404 6.7382801,39.7477123 5.90853653,39.7581888 C4.75611491,39.7707607 3.60369329,39.7644748 2.45127167,39.7644748 C2.39469824,39.7665701 2.33393419,39.7602841 2.24174046,39.7539982 Z M4.39781655,37.7571658 C4.45229466,37.7634518 4.48581966,37.7739283 4.51934465,37.771833 C5.33651634,37.7676424 6.15368804,37.7739283 6.97085973,37.7550705 C7.35430184,37.7466893 7.73774394,37.7068783 8.10442355,37.5790643 C8.46900784,37.4533456 8.69111092,37.2123847 8.74349372,36.824752 C8.82102026,36.2317787 8.7057781,35.8546225 8.0101345,35.7058553 C7.63716896,35.6262335 7.25163155,35.5885179 6.86818944,35.5780413 C6.10759117,35.5570882 5.3469929,35.5675647 4.58429932,35.5654694 C4.52563058,35.5654694 4.46486654,35.575946 4.39991186,35.5822319 C4.39781655,36.3155911 4.39781655,37.0259019 4.39781655,37.7571658 Z M4.48372434,33.4932058 C4.58429932,33.4932058 4.65973055,33.4932058 4.73516179,33.4932058 C5.20870231,33.4932058 5.68433814,33.4973964 6.15787866,33.4911105 C6.48474734,33.4869199 6.81371133,33.4806339 7.1384847,33.4450136 C7.37106433,33.4177746 7.60364397,33.3570105 7.82574705,33.279484 C8.03527825,33.2061481 8.16099697,33.0343325 8.20918915,32.81642 C8.26157195,32.588031 8.25738133,32.359642 8.20709384,32.131253 C8.16728291,31.9510562 8.06251731,31.8127656 7.89070172,31.7394296 C7.78803143,31.6954281 7.68117051,31.6556172 7.57221429,31.6430453 C7.26839404,31.607425 6.96247849,31.5697094 6.65656293,31.5655187 C5.96510995,31.5529469 5.27575229,31.5592328 4.58429932,31.5592328 C4.52353527,31.5592328 4.46277122,31.5676141 4.37686343,31.5739 C4.41038842,32.2087795 4.44600873,32.8331825 4.48372434,33.4932058 Z M32.1020323,35.8546225 C32.3576604,36.2820661 32.6049072,36.6948426 32.852154,37.1076191 C33.1014962,37.5266815 33.3550289,37.9457439 33.6001804,38.3689969 C33.8411413,38.7817734 34.0841975,39.1945499 34.2937287,39.6429467 C34.1533428,39.7099966 34.0297194,39.7267591 33.906096,39.7267591 C33.5079867,39.7267591 33.1098774,39.7225685 32.7117681,39.7162826 C32.495951,39.712092 32.2801339,39.6869482 32.0643167,39.6890435 C31.9155496,39.6911388 31.8254511,39.638756 31.7500199,39.5088467 C31.1738091,38.5282406 30.589217,37.5518252 30.0067203,36.5733145 C29.9815765,36.5314083 29.9501469,36.4915973 29.9333844,36.4475958 C29.8621438,36.2590177 29.7343297,36.200349 29.5289891,36.2066349 C28.984208,36.2233974 28.4394269,36.2129208 27.8946458,36.2129208 C27.8192145,36.2129208 27.7437833,36.2129208 27.641113,36.2129208 C27.5803489,37.3988675 27.5761583,38.5680516 27.5174896,39.7351404 C27.3666271,39.7791419 25.6463759,39.7917138 25.3614135,39.7477123 C25.3614135,39.6701857 25.3614135,39.5905639 25.3614135,39.5088467 C25.3614135,37.6796393 25.3656041,35.8504319 25.3593182,34.0212245 C25.3551276,33.1349075 25.3320791,32.2485905 25.311126,31.3622735 C25.3069354,31.1527423 25.283887,30.9453064 25.2587432,30.7357752 C25.2294088,30.4843377 25.1644542,30.2433768 24.9905433,30.0443222 C24.9318745,29.9772722 24.887873,29.8934597 24.8564433,29.8096473 C24.8082511,29.6818332 24.8459667,29.5833536 24.9779714,29.5435426 C25.1372151,29.4953504 25.3027448,29.4555395 25.4682744,29.445063 C26.6688882,29.3696317 27.869502,29.378013 29.0701158,29.4241098 C29.6547079,29.4471583 30.2392999,29.4995411 30.8217967,29.5665911 C31.3602919,29.6294504 31.8652621,29.8180285 32.3367073,30.0904191 C33.2272149,30.6037705 33.704946,31.412561 33.8851429,32.393167 C34.0841975,33.4785386 33.7007554,34.3837134 32.9212993,35.1338351 C32.7159588,35.3328898 32.4938557,35.5130866 32.2780385,35.70376 C32.2256557,35.7414756 32.1732729,35.7896678 32.1020323,35.8546225 Z M27.5447286,34.1176088 C27.6243505,34.1217994 27.6788286,34.1280854 27.7333067,34.1280854 C28.3199941,34.1280854 28.9045862,34.1364666 29.4912735,34.1217994 C29.8956688,34.1113229 30.2979687,34.0694166 30.7002686,34.0358916 C31.0711388,34.004462 31.2995278,33.7886448 31.408484,33.447109 C31.4545809,33.3025324 31.4839153,33.1474793 31.4902012,32.9966169 C31.5048684,32.6110795 31.4210559,32.2485905 31.186381,31.9321984 C31.0585669,31.7603828 30.8993232,31.6535218 30.6793155,31.64095 C30.5116905,31.6304734 30.3461608,31.5990437 30.1806312,31.5969484 C29.3571736,31.5801859 28.5358112,31.5718047 27.7123536,31.5592328 C27.6599708,31.5592328 27.607588,31.5718047 27.5447286,31.5801859 C27.5447286,32.426692 27.5447286,33.2606262 27.5447286,34.1176088 Z M43.7582532,34.9117321 C44.6948577,34.8342055 45.58327,34.8551586 46.4863495,34.8593493 C46.4905401,34.9536383 46.496826,35.0227836 46.496826,35.0898336 C46.496826,35.7184272 46.5052073,36.3470208 46.4947307,36.9756144 C46.4884448,37.275244 46.4591104,37.5748737 46.4172042,37.8703127 C46.3732026,38.1783235 46.2118636,38.429761 45.9688074,38.6267203 C45.9143293,38.6707219 45.8598512,38.7168187 45.8011824,38.752439 C44.9777248,39.2448374 44.1354094,39.705806 43.1778518,39.8713357 C41.0636819,40.2380153 39.2239979,39.6974248 37.7090873,38.1489892 C37.0658265,37.4910612 36.7242907,36.6822707 36.5943813,35.7833819 C36.4812345,34.9997352 36.4623767,34.2139932 36.5734282,33.4261558 C36.8227704,31.6702843 37.7593748,30.4214784 39.3727651,29.7111676 C41.0008226,28.9945709 42.6582144,28.9379974 44.3135109,29.633641 C45.0091545,29.9269847 45.6230809,30.3502378 46.1175746,30.9306392 C46.140623,30.9557829 46.1594808,30.983022 46.1951011,31.0291189 C45.7404184,31.4963734 45.2899263,31.9594374 44.8289577,32.4308826 C44.7472405,32.3764045 44.6718093,32.3282123 44.5984733,32.2779248 C44.3805609,32.1270624 44.1647437,31.969914 43.944736,31.8253374 C42.62888,30.9578783 41.0050132,31.050072 39.8484009,32.0579171 C39.1967589,32.6257466 38.8405558,33.3444387 38.7441715,34.199326 C38.6729309,34.8383961 38.7399809,35.4586085 39.0291339,36.0348193 C39.5361994,37.046855 40.7640523,38.1091782 42.4738269,37.8682174 C42.8132675,37.8200252 43.1485174,37.7529752 43.4691001,37.6314471 C44.1752203,37.3632472 44.4329437,36.9085644 44.2737,36.1689193 C44.2213172,35.9258631 44.1186469,35.6932835 44.0243578,35.4607038 C43.9531172,35.2888882 43.8630188,35.1233586 43.7582532,34.9117321 Z M22.6731282,30.9914032 C22.6605563,31.0333095 22.6605563,31.050072 22.652175,31.0584532 C22.2750189,31.4418953 21.8978627,31.8253374 21.5207065,32.2045889 C21.476705,32.2485905 21.4201316,32.2800201 21.3677488,32.3135451 C21.2881269,32.3617373 21.2064097,32.3575467 21.1309785,32.3051639 C21.0744051,32.265353 21.019927,32.2213514 20.9675442,32.1731592 C20.3054255,31.5718047 19.5175882,31.2658891 18.6375572,31.2009344 C18.1870651,31.1695048 17.7449542,31.2742704 17.3426543,31.4817063 C16.064514,32.1438249 15.3709657,33.1956715 15.3793469,34.6414368 C15.3856329,35.5193726 15.7292641,36.3030193 16.3075702,36.9651379 C16.682631,37.3946768 17.1855059,37.6188752 17.7302871,37.7613564 C18.6291759,37.9960314 19.4882539,37.8577408 20.3200927,37.4826799 C20.4877177,37.4072487 20.6281036,37.2710534 20.7768708,37.1579066 C20.8481114,37.1034285 20.9109707,37.0342832 20.9843067,36.9819004 C21.1582175,36.858277 21.3488909,36.8436098 21.5395643,36.9358035 C21.6506159,36.9902816 21.7637627,37.0573316 21.8517658,37.1432394 C22.0990127,37.3883909 22.3441642,37.637733 22.5704579,37.9017423 C22.7653219,38.128036 22.7506547,38.2432782 22.5495047,38.4674766 C22.4992173,38.52405 22.4426438,38.5806234 22.3818798,38.624625 C21.6673784,39.1337858 20.919352,39.577992 20.0560834,39.7833326 C18.6417478,40.1206778 17.2693184,39.9865778 15.9513671,39.3726514 C14.7926596,38.8320609 14.0132035,37.9289814 13.5417583,36.757702 C13.0032631,35.4208929 12.9068787,34.0484635 13.3992771,32.6865107 C14.063491,30.855208 15.3877282,29.7090723 17.2756043,29.2690567 C19.0335711,28.8646615 20.6322942,29.2983911 22.0571064,30.392144 C22.2854954,30.5702455 22.4761688,30.7965392 22.6731282,30.9914032 Z M7.65812208,24.0517298 C7.68955176,24.0978266 7.72517207,24.1439235 7.73983925,24.1963063 C7.79431736,24.3827891 7.93051265,24.4666016 8.10861417,24.48965 C8.46062659,24.5315562 8.81473433,24.590225 9.16884206,24.6027968 C10.8157573,24.657275 12.4605773,24.7075624 14.1074925,24.7452781 C15.4128719,24.7746124 16.7182513,24.785089 18.0236307,24.7976609 C18.5956509,24.8018515 19.1676711,24.7913749 19.7396913,24.7767077 L19.9681579,24.7616525 L20.4269536,24.7096578 C20.5107661,24.7012765 20.5924833,24.6887046 20.6762958,24.684514 C20.913066,24.6677515 20.9738301,24.7243249 20.9780207,24.9673811 C20.980116,25.0784327 20.9822113,25.1915795 20.9738301,25.3026311 C20.9591629,25.470256 20.9004942,25.5226388 20.7349645,25.5268294 C20.6867723,25.5289248 20.6364849,25.5289248 20.5882927,25.5205435 C19.9387459,25.3969201 19.280818,25.403206 18.6270806,25.409492 C16.4353842,25.4325404 14.2436878,25.4639701 12.0519914,25.5016857 C11.2494869,25.5142576 10.4469824,25.5414966 9.6444779,25.5792122 C9.16465144,25.6001654 8.68482498,25.6546435 8.20499852,25.6944544 C8.15680635,25.698645 8.11070948,25.7154075 8.06251731,25.7237888 C7.90746422,25.7552185 7.80479393,25.8369356 7.73983925,25.9877981 C7.70212364,26.0799918 7.62878771,26.1658996 7.55126117,26.2308543 C7.44230494,26.3209527 7.35220652,26.2916183 7.31449091,26.1554231 C7.2788706,26.0213231 7.25791748,25.8809372 7.25372686,25.7426466 C7.24744092,25.4870185 7.25372686,25.2355811 7.25372686,25.0155733 C7.26839404,24.7075624 7.2788706,24.4267906 7.29982372,24.1502094 C7.30610966,24.066397 7.29144248,23.9532501 7.41297057,23.9281064 C7.5219268,23.9050579 7.60154866,23.965822 7.65812208,24.0517298 Z M40.923296,24.0412532 C40.9672976,24.1711626 40.9987272,24.3115485 41.0050132,24.4498391 L41.0116871,24.672563 L41.0092038,25.1203389 C41.0196804,25.1182436 41.0301569,25.1182436 41.0406335,25.1203389 C41.0196804,25.4115873 41.0050132,25.704931 40.9777741,25.9961793 C40.9672976,26.1135168 40.9463444,26.2413309 40.7975773,26.2706652 C40.694907,26.2916183 40.560807,26.1910434 40.4916617,26.0527528 C40.4790899,26.027609 40.4707086,26.00037 40.4623274,25.9731309 C40.4288024,25.8432216 40.3366086,25.7698856 40.2150805,25.7426466 C40.0390743,25.704931 39.8588775,25.66512 39.6786807,25.6525482 C39.2114261,25.6169279 38.7441715,25.5854982 38.2769169,25.5729263 C36.860486,25.5331154 35.4419597,25.4974951 34.0255288,25.470256 C32.7683416,25.4451123 31.5111543,25.4283498 30.2560624,25.4199685 C29.5646094,25.4157779 28.8731565,25.4283498 28.1817035,25.4451123 C27.9658864,25.4493029 27.7521645,25.4974951 27.5384427,25.5205435 C27.2262412,25.5519732 27.15081,25.5289248 27.245099,25.1559592 C27.2618615,25.0910045 27.3477693,25.0176686 27.4169146,24.9946202 C27.5614911,24.9485233 27.7144489,24.9149983 27.8674067,24.9087124 C28.66153,24.8730921 29.4577485,24.8332812 30.2539671,24.818614 C32.2927057,24.7808984 34.3314443,24.7557546 36.370183,24.7201343 C37.2208796,24.7054671 38.0736716,24.6824187 38.9243683,24.6467984 C39.2931432,24.6321312 39.6598229,24.5818437 40.0285978,24.5420328 C40.2402243,24.516889 40.4036586,24.4100281 40.5189008,24.2235454 C40.5733789,24.1355423 40.6467148,24.0580157 40.7263367,23.9909657 C40.8122445,23.9197251 40.8876757,23.9364876 40.923296,24.0412532 Z M38.9264636,20.2424525 C39.0102761,20.3430275 39.089898,20.4519837 39.1443761,20.5714165 C39.2973339,20.9129523 39.351812,21.2775366 39.3769557,21.7259334 C39.3539073,21.8097459 39.3245729,21.9668943 39.2679995,22.1135661 C39.2260933,22.2246177 39.1695198,22.2329989 39.0710402,22.1701396 C39.0018949,22.126138 38.9348449,22.0716599 38.8740808,22.0129912 C38.7295043,21.8726053 38.5555934,21.8076506 38.3586341,21.8327943 C38.0610998,21.8705099 37.7614701,21.9019396 37.4702218,21.9689896 C35.2890019,22.4739598 33.1161634,23.0082644 30.9768498,23.6766689 C30.7777951,23.7395283 30.5787405,23.8065783 30.3859718,23.8882954 C30.2874921,23.9302017 30.1932031,23.9972517 30.1135812,24.0726829 C29.9417656,24.2340219 29.7510922,24.3073578 29.5206079,24.227736 C29.2754564,24.1418282 29.1287845,23.9679173 29.0826877,23.7122892 C29.0680205,23.6305721 29.0659252,23.5425689 29.0826877,23.4629471 C29.1623095,23.0899815 29.3152673,23.0040738 29.6107063,23.0501706 C29.9564328,23.1025534 30.2916827,23.0166456 30.6269327,22.951691 C31.8422136,22.7149207 33.0323509,22.3817661 34.2182975,22.0381349 C35.377005,21.7007897 36.531522,21.3550632 37.6881342,21.0051461 C37.874617,20.9485726 38.0506232,20.8626648 38.23082,20.7851383 C38.3963497,20.7118024 38.4948294,20.5902743 38.49902,20.3975056 C38.5011153,20.2885493 38.49902,20.1607353 38.6352153,20.1188291 C38.7588387,20.0832088 38.855223,20.1565447 38.9264636,20.2424525 Z M9.47475762,20.0413025 C9.5753326,20.1795931 9.66962164,20.2717869 9.7157185,20.3807431 C9.81419817,20.6091321 9.98391845,20.7537086 10.2039262,20.8417117 C10.5349855,20.9737164 10.8639495,21.1099117 11.2033901,21.2146773 C13.2148896,21.8411756 15.2326751,22.4362442 17.2860809,22.91188 C17.5710433,22.97893 17.8601964,23.0250269 18.1493495,23.0669331 C18.2771635,23.0857909 18.4133588,23.079505 18.5432681,23.0648378 C18.9937602,23.012455 19.1949102,23.2094143 19.1194789,23.6578111 C19.1006211,23.7730533 19.0733821,23.8924861 19.0230946,23.9972517 C18.9204243,24.2193547 18.7192743,24.3052625 18.4845994,24.2319266 C18.3798338,24.1984016 18.2834494,24.1376376 18.1849698,24.0873501 C18.0236307,24.0056329 17.8727683,23.8966767 17.703048,23.8442939 C16.7957779,23.5656174 15.8926984,23.2785596 14.9749517,23.0396941 C13.5585208,22.6688238 12.1337086,22.3293833 10.713087,21.9815615 C10.4700308,21.9228927 10.2206887,21.8872724 9.97134657,21.8495568 C9.70524194,21.8076506 9.45799512,21.8432709 9.25474986,22.0465162 C9.17722331,22.1240427 9.07664833,22.2036646 8.95721555,22.1554724 C8.82521089,22.1009943 8.82311558,21.964799 8.82521089,21.8495568 C8.83568745,21.2880132 8.9844546,20.7620899 9.26103579,20.2738822 C9.30503735,20.2005462 9.37837327,20.1439728 9.47475762,20.0413025 Z M38.0275748,15.6893394 C38.1155779,15.7689613 38.1951997,15.8171535 38.2433919,15.8862988 C38.599595,16.4080315 38.8971293,16.9590985 39.0857074,17.5625484 C39.117137,17.6652187 39.1611386,17.7741749 39.0961839,17.8894171 C38.989323,17.9229421 38.9201777,17.8537968 38.861509,17.7909374 C38.6205481,17.5206421 38.331395,17.4954984 38.0233842,17.6358843 C37.679753,17.7909374 37.3403124,17.9522764 37.0113484,18.1366639 C35.4231019,19.0271715 33.8369507,19.9239651 32.2549901,20.8249492 C30.9621826,21.5604038 29.675661,22.3021442 28.3870441,23.0438847 C28.1879894,23.1591268 27.9889348,23.2764643 27.802452,23.4126596 C27.641113,23.5299971 27.4902505,23.6682877 27.345674,23.8065783 C27.2262412,23.9197251 27.1654772,23.9385829 27.0439491,23.8275314 C26.9370882,23.7290517 26.8260366,23.6242861 26.754796,23.5006627 C26.5850757,23.2031284 26.7359382,22.8930222 27.0753787,22.8427347 C27.3079584,22.8092097 27.5195849,22.7212066 27.7228302,22.6143457 L28.8707993,22.0088005 C29.2529318,21.8055553 29.6327071,21.5981194 30.004625,21.3781116 C32.0936511,20.1418775 34.1722006,18.8846903 36.2528455,17.6295984 C36.6111438,17.4137812 36.9589656,17.1791063 37.3088827,16.948622 C37.4304108,16.8690001 37.5435577,16.7747111 37.6608952,16.6846126 C37.807567,16.5714658 37.8850936,16.4268893 37.8829982,16.2341206 C37.8809029,16.123069 37.9039514,16.0120175 37.9269998,15.9030613 C37.941667,15.8402019 37.9814779,15.7836285 38.0275748,15.6893394 Z M10.3485027,15.8506785 C10.3862184,15.9533487 10.4155527,16.0685909 10.4092668,16.1754518 C10.3966949,16.4541283 10.5203183,16.6636595 10.7298495,16.8229032 C10.9393807,16.9842423 11.1531026,17.143486 11.3793963,17.2796813 C12.8042085,18.1345686 14.2290206,18.9852653 15.6601188,19.8275807 C17.0074044,20.6237993 18.3588807,21.407446 19.7145476,22.1848067 C20.1503725,22.4362442 20.590388,22.6772051 21.0660238,22.8490207 C21.3509863,22.951691 21.4913722,23.1528409 21.4935099,23.408469 C21.4955628,23.6075236 21.4201316,23.7625767 21.2336488,23.8463892 C21.0618332,23.9239157 20.9235426,23.8757236 20.7475364,23.7101939 C20.6260083,23.5970471 20.4940036,23.4880908 20.3536177,23.402183 C19.4631101,22.8553066 18.5746978,22.3000489 17.6716183,21.7720303 C15.4359204,20.4666509 13.1834599,19.1927012 10.8849026,17.9983733 C10.6313699,17.8663686 10.3673605,17.7553171 10.1159231,17.6191218 C9.83934191,17.4703547 9.60676228,17.5457859 9.3846592,17.7259827 C9.33018109,17.7699843 9.27779829,17.8202718 9.21703424,17.8475108 C9.08712489,17.9061796 8.9844546,17.8391296 8.99702648,17.6987437 C9.00540772,17.6065499 9.04521865,17.5101656 9.08922021,17.4263531 C9.28617954,17.0575782 9.4894248,16.6929939 9.69476538,16.3263143 C9.77019662,16.1922143 9.84562785,16.0602097 9.93153564,15.9323956 C9.97344189,15.8716316 10.0342059,15.8171535 10.0970653,15.7752472 C10.2102121,15.699816 10.3024059,15.7249597 10.3485027,15.8506785 Z M31.7227808,10.0361875 C31.7751637,10.05295 31.8254511,10.0822844 31.8673574,10.1179047 C32.1900354,10.3798187 32.5588104,10.5621109 32.9359665,10.7318311 C33.0637806,10.7884046 33.187404,10.8554546 33.3089321,10.9204092 C33.3571242,10.9476483 33.409507,10.979078 33.4409367,11.0209842 C33.4807477,11.073367 33.5331305,11.1487982 33.5184633,11.1969904 C33.5037961,11.2451826 33.4220789,11.2912795 33.3613149,11.308042 C33.2754071,11.3310904 33.181118,11.3331857 33.0910196,11.3331857 C32.8353915,11.3331857 32.6258603,11.42957 32.4729026,11.63072 C32.3094682,11.8465371 32.1439386,12.0644496 32.0035527,12.2970292 C31.3225763,13.4347837 30.6457905,14.5746334 29.9731953,15.7186738 C28.9464924,17.4640687 27.9239801,19.2094636 26.9014678,20.9569539 C26.7506054,21.2167726 26.6144101,21.4828772 26.4782148,21.7510772 C26.3734492,21.9564177 26.2791602,22.1638536 26.2623977,22.4027192 C26.2498258,22.5305332 26.1681086,22.589202 26.0319134,22.5934848 C25.767904,22.5996785 25.4179869,22.2832864 25.3907479,22.0192771 C25.3802713,21.9207974 25.4263682,21.8474615 25.4871322,21.7762209 C25.6170416,21.6211678 25.7574275,21.4724007 25.8600978,21.3026804 C26.6793648,19.930251 27.5112037,18.5641075 28.3032316,17.177011 C29.3718407,15.303802 30.4069249,13.4117352 31.4566762,11.5280497 C31.5321075,11.3939497 31.5886809,11.2493732 31.6662074,11.1173686 C31.7919261,10.9036467 31.7353527,10.717164 31.5949668,10.5390624 C31.5467746,10.4782984 31.4922965,10.4238203 31.4545809,10.3588656 C31.4021981,10.2708625 31.3833403,10.1702875 31.4524856,10.0843797 C31.5237262,9.9942813 31.6263965,10.0047579 31.7227808,10.0361875 Z M16.7329185,9.93561257 C16.8188263,9.98380474 16.7957779,10.0843797 16.7685388,10.1640016 C16.7266326,10.2813391 16.6805357,10.4007718 16.6197717,10.5097281 C16.5506264,10.6333515 16.5275779,10.7569749 16.5736748,10.8910749 C16.6365342,11.0691764 16.6847263,11.2535638 16.7685388,11.4211888 C17.1016934,12.0812121 17.4306574,12.745426 17.7931464,13.3886868 C19.1027164,15.7144832 20.4206677,18.0318983 21.7365237,20.3514087 C21.8978627,20.6363711 22.0738689,20.9150476 22.2561611,21.1874382 C22.356736,21.3362054 22.4782641,21.4724007 22.5997922,21.6065006 C22.7171297,21.73641 22.7883703,21.8788912 22.7946563,22.0569927 C22.8030375,22.3712895 22.5997922,22.5640582 22.2666376,22.5745348 C22.0843455,22.5808207 21.933483,22.4613879 21.9230064,22.2749052 C21.9041486,21.9480365 21.7637627,21.6672647 21.6087096,21.3948741 C21.1728847,20.6237993 20.7328692,19.8527244 20.2802818,19.0900309 C19.0440477,16.9989094 17.803623,14.9098833 16.5611029,12.8208572 C16.4081452,12.5631339 16.2468061,12.3096011 16.0833718,12.0581637 C15.9953687,11.9240637 15.896889,11.798345 15.7984094,11.6684356 C15.6224031,11.435856 15.3898235,11.3206138 15.0943845,11.3227091 C14.9686658,11.3268998 14.8324705,11.3457576 14.681608,11.2619451 C14.7339908,11.201181 14.7696111,11.140417 14.8198986,11.1047967 C15.3604891,10.7318311 15.9010796,10.3630562 16.4437655,9.9942813 C16.4730998,9.97542349 16.5045295,9.95656569 16.5380545,9.95027975 C16.6030092,9.93980319 16.6847263,9.91046882 16.7329185,9.93561257 Z M25.0680698,8.31803167 C25.1372151,8.32641292 25.2042651,8.34736604 25.2692198,8.3746051 C25.3530323,8.4102254 25.3760807,8.47518007 25.3132213,8.53803944 C25.2461713,8.60508942 25.1644542,8.67842534 25.0764511,8.70147377 C24.8396808,8.76433314 24.7286293,8.93405341 24.6825324,9.14567993 C24.6217683,9.42435643 24.5630996,9.70722355 24.5505277,9.99218599 C24.5086215,10.9266952 24.4667153,11.8612043 24.4625246,12.7957135 C24.4520481,14.8847396 24.4667153,16.9716704 24.4625246,19.0606965 C24.4604293,19.8212948 24.4373809,20.581893 24.4185231,21.3424913 C24.4143325,21.4891631 24.3954746,21.635835 24.3682356,21.7783162 C24.3116622,22.0632786 24.0162232,22.1554724 23.7983107,21.9606084 C23.6684014,21.8453662 23.6076373,21.6903131 23.6537342,21.5247835 C23.7480232,21.1832476 23.7480232,20.8333305 23.7501185,20.4855087 C23.7605951,18.5242966 23.7626904,16.5609892 23.7626904,14.5997772 C23.7626904,13.726032 23.7480232,12.8543822 23.739642,11.9806371 C23.7312607,11.0230795 23.7207842,10.0676172 23.7186889,9.11005962 C23.7186889,8.9843409 23.6767826,8.91938623 23.5636358,8.87538467 C23.4337264,8.82509718 23.3080077,8.76433314 23.1843843,8.69728315 C23.0733328,8.64070973 22.9643765,8.57575505 22.9036125,8.39765353 C23.0083781,8.36412854 23.0963812,8.3222223 23.1885749,8.30965042 C23.8150732,8.22374263 24.4415715,8.23421919 25.0680698,8.31803167 Z M14.0132035,13.8035586 C13.9377723,14.1262366 14.0823488,14.3671975 14.2709269,14.5830147 C14.715133,15.0942708 15.1635298,15.599241 15.6307844,16.0916393 C16.8041591,17.3257781 17.9859151,18.5515357 19.1697664,19.7772932 C19.3625351,19.9784432 19.576257,20.15864 19.7878835,20.3388368 C19.93246,20.4603649 20.0896084,20.5630352 20.2907584,20.5777024 C20.4060005,20.5860837 20.4751458,20.6698961 20.5212427,20.7683758 C20.617627,20.9758117 20.6260083,21.1853429 20.5359099,21.3969694 C20.4877177,21.5122116 20.4060005,21.5960241 20.2823771,21.6274537 C20.1901834,21.6484069 20.093799,21.663074 19.9806522,21.6840272 C19.8779819,21.6588834 19.7564538,21.6463116 19.6495929,21.60231 C19.4987304,21.5415459 19.3981554,21.4388757 19.4149179,21.2502976 C19.4212039,21.1769617 19.3834883,21.0847679 19.3373914,21.0219086 C19.1991008,20.8291399 19.0629055,20.6321805 18.8994712,20.4624602 C18.2017323,19.729101 17.5165652,18.9831699 16.7894919,18.2812404 C15.9471765,17.466164 15.0692408,16.686708 14.197591,15.9051566 C13.9231051,15.6579097 13.6171895,15.4483785 13.3217505,15.2241802 C13.1918412,15.1257005 13.0451693,15.0733177 12.8775444,15.0565552 C12.4899116,15.0146489 12.4060992,14.847024 12.5946772,14.5075834 C12.78116,14.1744288 13.0221209,13.8852758 13.3531802,13.6841258 C13.4705177,13.6128852 13.6046176,13.5605024 13.7387176,13.537454 C13.9252004,13.503929 14.0551097,13.6191711 14.0132035,13.8035586 Z M34.5849771,13.564693 C34.6960286,13.6003133 34.8049849,13.6589821 34.8992739,13.726032 C35.1905223,13.9355632 35.4335785,14.1953819 35.6221566,14.5033928 C35.6682534,14.5809194 35.7080643,14.6647318 35.7311128,14.7506396 C35.7855909,14.9706474 35.6871112,15.0879849 35.4608175,15.0796036 C35.4126254,15.0775083 35.3644332,15.0670317 35.316241,15.0565552 C35.1297582,15.0104583 34.9516567,15.0397927 34.7966036,15.1487489 C34.6038349,15.2849442 34.4047803,15.4190442 34.2308694,15.5803832 C33.738471,16.0350659 33.2439774,16.4876533 32.7725322,16.9632891 C31.7604965,17.9858014 30.7589373,19.0166949 29.7615688,20.0517791 C29.4849876,20.3388368 29.2356455,20.648943 28.984208,20.9569539 C28.9087768,21.0512429 28.856394,21.1706757 28.8186784,21.2859179 C28.7390565,21.508021 28.5085722,21.6588834 28.2173238,21.6588834 C27.7731177,21.6588834 27.4776787,21.2544882 27.6222552,20.8396164 C27.674638,20.6866586 27.7731177,20.5651305 27.9302661,20.521129 C28.0853192,20.4792227 28.2089426,20.3912196 28.3220894,20.2885493 C28.7516284,19.8988213 29.1874533,19.5153792 29.6023251,19.1130793 C30.8532264,17.895703 32.0622214,16.6364205 33.2251196,15.3331364 C33.4849383,15.041888 33.7238038,14.7317818 33.9626694,14.4216756 C34.0904835,14.256146 34.1763912,14.0738538 34.1722006,13.8454648 C34.16801,13.5877414 34.335635,13.4829758 34.5849771,13.564693 Z M20.8376348,9.72817667 C20.986402,9.73027199 21.1121207,9.86856258 21.0911676,10.0236157 C21.0765004,10.12 21.0576426,10.2226703 21.0073551,10.3022922 C20.8083004,10.6082077 20.8145864,10.9434577 20.8837317,11.274517 C21.0597379,12.1147371 21.2378394,12.9528619 21.4473706,13.7847008 C21.765858,15.0502693 22.1052986,16.3095518 22.4510251,17.566739 C22.5641719,17.9753249 22.7234156,18.3734341 22.8658969,18.7736387 C22.9371375,18.9726934 23.048189,19.1466043 23.1885749,19.3079433 C23.3666764,19.506998 23.3645811,19.5824292 23.1843843,19.7710073 C23.0649515,19.896726 22.9371375,20.0203494 22.7925609,20.1146385 C22.5327422,20.2843587 22.3106392,20.2152134 22.1702533,19.9386322 C22.0529158,19.7102432 22.0110095,19.4609011 22.0047236,19.2094636 C21.9837705,18.4572466 21.8350033,17.728078 21.6275674,17.0072907 C21.1665988,15.4274254 20.7056301,13.8454648 20.2383756,12.2676949 C20.1419912,11.9408262 20.026749,11.6181481 19.9115069,11.2954701 C19.8696006,11.1781326 19.804646,11.0691764 19.7417866,10.9602202 C19.6831179,10.8596452 19.5888288,10.7946905 19.469396,10.7863093 C19.341582,10.777928 19.2305305,10.7402124 19.1970055,10.6040171 C19.1613852,10.4615359 19.1865289,10.3232453 19.2954851,10.2163844 C19.3394867,10.1723828 19.3918695,10.1325719 19.4484429,10.1095235 C19.8821725,9.93142194 20.3368552,9.82246572 20.7957286,9.73027199 C20.8103958,9.73027199 20.8229676,9.73027199 20.8376348,9.72817667 Z M27.4818693,9.73655792 C27.9281707,9.82246572 28.3702816,9.93142194 28.7642003,10.1660969 C28.8689659,10.2289563 28.9695408,10.3127687 29.0491627,10.4070578 C29.1434517,10.516014 29.1224986,10.5872546 29.0030658,10.6647812 C28.950683,10.6983061 28.8941096,10.7276405 28.8354409,10.7485936 C28.6531487,10.8135483 28.5232394,10.939267 28.4457128,11.1089873 C28.3367566,11.3499482 28.2215144,11.5909091 28.1439879,11.8423465 C27.802452,12.9633385 27.4588209,14.0843304 27.144524,15.2116083 C26.8407038,16.2990752 26.5704085,17.3970187 26.2875414,18.4907716 C26.2435399,18.6583966 26.2079196,18.8323075 26.1953477,19.0041231 C26.1806805,19.1822246 26.1848711,19.3666121 26.2058243,19.5447136 C26.2540164,19.9470135 25.9753399,20.2173087 25.5835166,20.1188291 C25.4577979,20.0873994 25.3320791,20.0287307 25.2273135,19.9532994 C25.0617839,19.8380573 24.915112,19.6976714 24.7370105,19.5468089 C24.8124417,19.4776636 24.8648245,19.4210902 24.9255886,19.3770886 C25.2377901,19.1507949 25.4368447,18.8406887 25.5562775,18.4844857 C25.6673291,18.1555217 25.7448556,17.8139858 25.8307634,17.4766406 C26.2246821,15.928205 26.620696,14.3818647 27.0062334,12.8313338 C27.1487147,12.2572183 27.2618615,11.6747216 27.3833896,11.0943201 C27.4022474,11.006317 27.4001521,10.9141233 27.4043427,10.8240249 C27.412724,10.6626858 27.3603412,10.5264906 27.2597662,10.3986765 C27.1885256,10.3064828 27.1235709,10.2017172 27.0879506,10.0906657 C27.0292819,9.90837351 27.1633819,9.73865323 27.3561506,9.73027199 C27.3980568,9.72817667 27.439963,9.72817667 27.4818693,9.73655792 Z" id="Combined-Shape" fill="#000000" fill-rule="nonzero"></path>
        </g>
    </g>
</svg>