<?xml version="1.0" encoding="UTF-8"?>
<svg width="48px" height="48px" viewBox="0 0 48 48" version="1.1" xmlns="http://www.w3.org/2000/svg" xmlns:xlink="http://www.w3.org/1999/xlink">
    <title>gtbg</title>
    <g id="Page-1" stroke="none" stroke-width="1" fill="none" fill-rule="evenodd">
        <g id="gtbg">
            <rect id="Rectangle" x="0" y="0" width="48" height="48"></rect>
            <path d="M24.615657,1.50930132 C28.3191755,1.61789312 31.7901767,2.55971816 35.0139974,4.39533725 C36.6939872,5.35178042 38.2650499,6.45649317 39.6685326,7.78674273 C41.4783968,9.5012402 42.9237745,11.4872172 44.0591292,13.6966427 C44.731544,15.0039209 45.3390216,16.3404353 45.7663507,17.7500404 C46.082658,18.7921041 46.2795645,19.857139 46.3801125,20.9409687 C46.4701868,21.8619108 46.5037028,22.7849411 46.4995133,23.712148 C46.5057975,24.8398321 46.451334,25.9654278 46.3298385,27.0889353 C45.8857515,31.2091588 44.3586785,34.8741321 41.6564506,38.0358242 C40.3032419,39.6187585 38.818064,41.0680414 37.1611165,42.3377301 C35.596338,43.5343282 33.8576953,44.4051509 32.014315,45.0901146 C30.4495365,45.6706631 28.8428631,46.0590876 27.1901051,46.2720946 C25.8997389,46.4391589 24.6051832,46.5206027 23.306438,46.4955431 C21.7186173,46.4642185 20.1412703,46.3201256 18.6037236,45.8982882 C16.6702691,45.367859 14.8331731,44.5972749 13.0966251,43.5969773 C9.07889403,41.2831367 5.9954216,38.0775902 3.8922923,33.9490135 C2.86586466,31.931712 2.17669181,29.801642 1.79963676,27.5692452 C1.53569822,26.0051056 1.44771871,24.4284362 1.52941397,22.8475902 C1.68442549,19.7986665 2.43225134,16.8959242 3.78964954,14.1623344 C6.28240239,9.14831684 10.1095112,5.50840321 15.2437441,3.24259352 C16.8860284,2.51795208 18.6058184,2.05226032 20.3800719,1.78286912 C21.7856493,1.56777383 23.197511,1.46753524 24.615657,1.50930132 Z M22.8812037,2.97737893 C21.3729835,3.07970582 19.8878056,3.33030229 18.4361436,3.74378645 C14.0434522,4.99468046 10.3587865,7.31687436 7.52249456,10.9171102 C4.5919389,14.6342911 3.05648693,18.8568415 2.95384417,23.588938 C2.92242291,24.983925 3.04810793,26.3684705 3.30366747,27.7404861 C3.77708103,30.2840402 4.67363416,32.6688832 6.0247481,34.8783087 C8.43999519,38.825203 11.8104484,41.6694729 16.0732653,43.4716791 C17.9019823,44.2443515 19.8040155,44.7518094 21.7814598,44.9648164 C22.7806557,45.0734082 23.7840411,45.1109976 24.791616,45.0692316 C25.9248759,45.0232889 27.0455673,44.893814 28.155785,44.6682772 C30.6904328,44.1545545 33.0512164,43.2001996 35.2632727,41.8678617 C37.7644046,40.3601064 39.8403021,38.4138072 41.4595441,35.9851098 C42.6242252,34.2371994 43.5228731,32.3598143 44.279078,30.4051618 C44.7043123,29.3025374 44.9284506,28.1623235 44.9577771,26.9845201 C44.9808193,26.0030173 44.9829141,25.0215145 44.9933878,24.0608947 C44.9703456,23.052244 44.9577771,22.0644762 44.9179768,21.0767085 C44.8802713,20.0722343 44.731544,19.08029 44.379626,18.1322001 C44.0444659,17.2321411 43.6988322,16.3362587 43.3154928,15.4570828 C42.5886145,13.7822631 41.6627349,12.2223001 40.4833904,10.8189599 C39.0338232,9.09610925 37.349644,7.63011994 35.4832215,6.37504932 C33.9142535,5.32045587 32.2426428,4.45798637 30.4411575,3.86699638 C27.9819207,3.06299939 25.4577466,2.80404971 22.8812037,2.97737893 Z M24.5884252,10.0776121 C25.0618388,10.269736 25.4598413,10.5704518 25.8159489,10.9317283 C26.0358977,11.1551769 26.1364457,11.4224797 26.0736032,11.7315487 C26.0065712,12.0573241 25.9185916,12.3789229 25.8368964,12.70261 C25.7866224,12.9051755 25.7237799,13.1035644 25.6776954,13.3061298 C25.5897159,13.6841128 25.6190424,14.0579192 25.7887171,14.406666 C25.9311602,14.7011168 26.0903612,14.9872144 26.2621307,15.2649589 C26.494648,15.6450302 26.7523023,16.0104833 26.989009,16.386378 C27.6090551,17.3741458 28.105511,18.4245626 28.549598,19.5000391 C29.6200154,22.0937125 30.4097363,24.770918 30.9103816,27.5316557 C31.1093829,28.6217504 31.2266889,29.7201982 31.2602049,30.8290875 C31.2769629,31.3428103 31.2895314,31.8586213 31.3020999,32.3723441 C31.3041947,32.4976423 31.3020999,32.6208522 31.2664892,32.7524154 C31.2497311,32.7127376 31.2329731,32.6730598 31.2162151,32.6333821 C31.1512779,32.4788476 31.0968144,32.3222248 31.0193086,32.1739552 C30.9438976,32.0319506 30.8475391,31.9087406 30.6652958,31.8795044 C30.5438003,31.8607096 30.4809578,31.7500295 30.4432523,31.6477026 C30.361557,31.4200775 30.269388,31.1903641 30.227493,30.9522975 C30.1143765,30.2882168 30.0138285,29.6199596 29.9279437,28.9517024 C29.8022587,27.9785528 29.7687427,26.9949616 29.5864994,26.0301653 C29.5278464,25.7169197 29.4503406,25.4057624 29.3749296,25.0946051 C29.3518874,25.0006315 29.3141819,24.9087461 29.2743816,24.8210373 C29.2429604,24.7542116 29.2115391,24.6560613 29.1214648,24.6769444 C29.0565276,24.6915625 28.9894956,24.7562999 28.9538848,24.8168607 C28.8198208,25.0465741 28.8051576,25.3034355 28.7863048,25.5623852 C28.7632625,25.9090436 28.7485993,26.2577904 28.692041,26.5981839 C28.658525,26.8070143 28.574735,27.0137564 28.4762818,27.203792 C28.3045122,27.533744 28.0133419,27.6903668 27.6425711,27.7112499 C27.5106019,27.7175148 27.3786326,27.7300446 27.2508528,27.7634575 C27.1670628,27.7843405 27.0832728,27.8344598 27.0141461,27.890844 C26.871703,28.0098773 26.8507555,28.1748533 26.972251,28.3147697 C27.0476621,28.4024784 27.1523996,28.4651276 27.2487581,28.529865 C27.2990321,28.5653661 27.3660641,28.5799843 27.4163381,28.6133971 C27.5231704,28.6823112 27.5315494,28.7783731 27.4268119,28.8472872 C27.3241691,28.9141129 27.2047683,28.9600556 27.0895571,29.0080866 C26.9177875,29.0811772 26.7355443,29.1375614 26.570059,29.2252702 C26.4485635,29.2900076 26.335447,29.3777164 26.2411832,29.4800432 C26.0505609,29.6867853 26.1050244,29.8851742 26.3710577,29.9791479 C26.4485635,30.0062958 26.5344482,30.014649 26.6161435,30.0271789 C26.6915545,30.0397087 26.7669655,30.0480619 26.8486608,30.0585034 C26.829808,30.158742 26.7523023,30.158742 26.6936493,30.1900666 C26.6014802,30.2380975 26.5009322,30.275687 26.419237,30.3383361 C26.2642254,30.4573694 26.2286147,30.6223455 26.3040257,30.8061162 C26.3668682,30.9585624 26.4757952,31.0755074 26.6056697,31.1715694 C26.930356,31.4138126 27.3032216,31.505698 27.7033189,31.5244927 C27.9463099,31.5370225 28.189301,31.5704354 28.4281025,31.6142898 C28.5265558,31.6330845 28.625009,31.6894687 28.7067043,31.7500295 C28.8177261,31.8314734 28.8177261,31.9421535 28.708799,32.0319506 C28.6354828,32.0925114 28.5475033,32.1509839 28.4553343,32.1718669 C28.2605225,32.2178096 28.0594265,32.2386926 27.8604252,32.2679289 C27.6614239,32.2971651 27.4582331,32.309695 27.2634213,32.3598143 C27.0916518,32.4036686 26.930356,32.495554 26.8989348,32.6939429 C26.8675135,32.8944201 27.0015776,33.0197183 27.1503048,33.1178686 C27.2655161,33.1951358 27.3953906,33.2494317 27.5189809,33.3141691 C27.5922971,33.3538469 27.6718976,33.3851715 27.7368349,33.4352908 C27.8394777,33.5167346 27.8562357,33.6107083 27.7661614,33.7067703 C27.6446659,33.8362451 27.6383816,33.9845147 27.6677081,34.1348725 C27.7473087,34.529562 27.8185302,34.928428 27.9253624,35.3147642 C28.239575,36.4695963 28.658525,37.5910154 29.0753803,38.7145229 C29.4335826,39.6793193 29.7896902,40.646204 30.1478925,41.6110004 C30.1709347,41.6757378 30.1918823,41.7404752 30.2253983,41.8428021 C30.0724815,41.8240074 29.9447017,41.8114775 29.8190167,41.7905945 C28.8617158,41.6381483 27.9044149,41.4898787 26.9492088,41.3249027 C26.603575,41.2643419 26.6140487,41.3374326 26.56168,40.9323016 C26.4757952,40.2556912 26.3941,39.5790807 26.318689,38.9024703 C26.2223304,38.0253826 26.1448247,37.1441184 26.0379924,36.2670308 C25.9039284,35.168583 25.7552011,34.0743117 25.6022844,32.9779522 C25.4807888,32.1029529 25.3404406,31.2321302 25.210566,30.3571309 C25.0199438,29.0686474 24.8712165,27.7780756 24.8146582,26.4770623 C24.8041845,26.2285541 24.7706685,25.9779577 24.7203945,25.7336261 C24.6533625,25.4015858 24.4438874,25.1927554 24.1003484,25.1405478 C23.9222946,25.1133999 23.7400513,25.0883402 23.5599028,25.0862519 C23.3022485,25.0841636 23.1681845,25.1906671 23.1158158,25.4412636 C23.0424995,25.7920986 23.03831,26.1471103 23.1451423,26.4937687 C23.2247428,26.7506301 23.37347,26.9385774 23.6709246,26.9573722 C23.8280309,26.9678137 23.9097261,27.0784938 23.9432421,27.2100569 C24.0039899,27.443947 24.0710219,27.6841019 24.0856851,27.9221686 C24.1338644,28.6718696 24.1778542,29.423659 24.1862332,30.1733601 C24.2050859,31.766736 24.2197492,33.3601118 24.2008964,34.9534877 C24.1883279,36.1438209 24.1296749,37.3320658 24.0794009,38.5203107 C24.0647376,38.8669691 24.0081794,39.2115392 23.9600001,39.5561094 C23.9453369,39.6605246 23.9013471,39.7628515 23.8657364,39.8860614 C23.7463356,39.8129707 23.7358618,39.7189971 23.7253881,39.6354649 C23.6918721,39.3598088 23.6562613,39.0820644 23.6415981,38.8064083 C23.5829451,37.7079605 23.5976083,36.6074243 23.6311243,35.5089765 C23.6772088,33.9657199 23.7295776,32.4203751 23.7651883,30.8771185 C23.7819463,30.1462122 23.7714726,29.4153058 23.7589041,28.6843995 C23.7547146,28.4212732 23.7128196,28.1581469 23.6751141,27.8971089 C23.6604508,27.7968703 23.6248401,27.6924551 23.5766608,27.6026581 C23.4865866,27.4272405 23.314817,27.3812979 23.155616,27.5024195 C23.0529732,27.581775 22.95452,27.6841019 22.8979617,27.7968703 C22.7764662,28.0370253 22.6528759,28.2855334 22.5816544,28.5444831 C22.4119797,29.1459146 22.2695366,29.7556993 22.1208094,30.3633958 C21.8233548,31.6038483 21.5070475,32.8380358 21.0378235,34.0241924 C20.949844,34.2434643 20.8451064,34.4564713 20.7424637,34.6694783 C20.7068529,34.7446573 20.6607684,34.8156596 20.6146839,34.8845736 C20.4910936,35.0746093 20.3507454,35.237497 20.0700488,35.1163754 C20.4031141,35.5235946 20.4366301,35.9704916 20.3675034,36.4382717 C20.3570296,36.5050974 20.3402716,36.5781881 20.3025661,36.6345723 C20.2732396,36.6784266 20.2020181,36.7306342 20.1580283,36.722281 C20.0344381,36.6993097 19.9883536,36.7724003 19.9590271,36.8601091 C19.9213216,36.9728775 19.8878056,37.0877342 19.875237,37.2046792 C19.8144893,37.766433 19.7809733,38.3281867 19.8626685,38.8899404 C19.8794265,39.0110621 19.9213216,39.1321837 19.9715956,39.2470404 C20.0197748,39.3577205 20.1140386,39.4099281 20.2439131,39.39531 C20.3256084,39.3869568 20.4114931,39.3932217 20.4910936,39.4120164 C20.5958312,39.4349877 20.6565789,39.5080784 20.6649579,39.6187585 C20.6733369,39.7294386 20.6063049,39.7837345 20.5183254,39.821324 C20.2439131,39.938269 19.9527428,39.9779468 19.6594778,39.9863 C19.255191,39.9967415 18.8509042,39.9842117 18.4445226,39.9842117 C18.2999848,39.9842117 18.1554471,39.9737701 17.979488,40.0259777 C18.0339515,40.0781853 18.0590885,40.1157748 18.096794,40.1345695 C18.1826788,40.1805122 18.2748478,40.2160134 18.3628273,40.2577795 C18.4508068,40.2995455 18.5429759,40.337135 18.6267659,40.385166 C18.9619259,40.5814666 19.0876109,40.8487695 19.0184842,41.2288408 C18.9891577,41.3854636 18.9430732,41.539998 18.8865149,41.6882676 C18.8027249,41.9096278 18.6749451,41.9785419 18.4445226,41.9305109 C18.3083638,41.9012746 18.1722051,41.8657734 18.0423305,41.8156541 C17.1771987,41.4794372 16.3288248,41.1056308 15.5307249,40.6274093 C15.2625969,40.4666099 15.0028479,40.2870157 14.7514778,40.1011567 C14.6236981,40.007183 14.514771,39.8860614 14.4079388,39.7670281 C14.313675,39.6626129 14.2906328,39.5352263 14.3115803,39.39531 C14.3513805,39.134272 14.4875393,39.0068855 14.7514778,39.0277685 C14.9232474,39.0402983 15.0971116,39.0799761 15.2605021,39.134272 C15.4720719,39.2052743 15.6710732,39.3096895 15.8763587,39.3932217 C16.1989503,39.5206082 16.5236366,39.6479947 16.8525124,39.7649398 C16.9614394,39.8046175 17.0808402,39.8255006 17.1981462,39.7628515 C17.2149042,39.6584363 17.1373984,39.6208468 17.0745559,39.5874339 C16.8860284,39.4830187 16.6954061,39.3786035 16.4984996,39.2929831 C16.217803,39.1718615 15.9266327,39.0695346 15.6438415,38.9505013 C15.4972089,38.8878521 15.3526712,38.8126732 15.2165124,38.7312293 C15.0531219,38.6330791 15.0405534,38.5975779 15.1159644,38.4284253 C15.2521231,38.1235329 15.3903767,37.8186406 15.5432934,37.5221014 C15.865885,36.8976986 16.1905713,36.2732957 16.5320156,35.6593344 C16.7163536,35.3252057 16.9488709,35.0161368 17.1311142,34.6820082 C17.535401,33.9427486 17.9271193,33.1972241 18.3125533,32.447523 C19.1169374,30.8792068 19.9590271,29.333862 20.8492959,27.8135768 C21.2891935,27.0617874 21.527995,26.2369073 21.5468478,25.3556431 C21.553132,25.0215145 21.5740795,24.6873859 21.6683433,24.3636988 C21.7521333,24.0713362 21.8987658,23.8353579 22.2045994,23.7142363 C22.4036007,23.6348807 22.5502332,23.4803462 22.6403074,23.2819574 C22.7031499,23.1378644 22.7199079,22.9916831 22.6277389,22.8225305 C22.3344739,22.9749767 22.2695366,23.3049287 22.0223561,23.4907878 C21.9951243,23.4406685 21.9616083,23.4093439 21.9595136,23.3759311 C21.9532293,23.1754539 21.9427556,22.9749767 21.9532293,22.7744995 C21.9657978,22.5844639 22.0893881,22.4779604 22.2758209,22.4445475 C22.3512319,22.4320177 22.4287377,22.4173996 22.5041487,22.4236645 C22.8309297,22.4529007 23.155616,22.4863136 23.4823971,22.5218148 C23.5997031,22.5343446 23.7170091,22.5594042 23.8343151,22.5677575 C23.8992524,22.5719341 23.9662844,22.5573159 24.0752114,22.5447861 C24.0018951,22.4529007 23.9641896,22.3881633 23.9097261,22.3401323 C23.7819463,22.2315405 23.6499771,22.131302 23.5159131,22.0289751 C23.3776595,21.9245599 23.2289323,21.8305862 23.1283843,21.6676985 C23.247785,21.5779014 23.2456903,21.4484266 23.2247428,21.327305 C23.1681845,21.0140594 23.1011525,20.7008138 23.0320257,20.3896565 C22.9838465,20.166208 22.9230987,19.9448478 22.8770142,19.719311 C22.862351,19.650397 22.879109,19.575218 22.8832985,19.4478315 C23.0006045,19.5376286 23.0781102,19.5898362 23.147237,19.6524853 C23.406986,19.8884636 23.7065353,20.0409098 24.0542639,20.0952057 C24.0877799,20.1014706 24.1233906,20.1056472 24.1590014,20.1056472 C24.3223919,20.1035589 24.3810449,20.0262917 24.3119182,19.8801104 C24.2595494,19.767342 24.1946122,19.6566619 24.1108221,19.5647765 C23.8762101,19.3079151 23.6290296,19.0614953 23.3839438,18.8129871 L22.8633596,18.2904471 C22.7771645,18.2027383 22.6919779,18.1141014 22.6088862,18.0236083 C22.4496852,17.850279 22.3072421,17.6581551 22.1752729,17.4618545 C21.7018593,16.7685376 21.595027,16.0167482 21.8191653,15.210663 C21.9469451,14.7533244 22.1396621,14.3210455 22.3533266,13.8992081 C22.4832012,13.6444351 22.6088862,13.389662 22.7303817,13.1307123 C22.7827505,13.0179439 22.8267402,12.8989106 22.8644457,12.7798773 C22.9859412,12.3872761 22.9314777,12.2181235 22.6151704,11.9570855 C22.0851986,11.52063 22.0055981,11.0904394 22.3114316,10.482743 C22.5292857,10.0504641 22.8916775,9.8833998 23.3441435,9.85207525 C23.7777568,9.82283899 24.1904227,9.91472436 24.5884252,10.0776121 Z M24.0856851,40.4561683 C24.2658337,40.8257981 24.2658337,41.2121343 24.0898746,41.5838524 C23.9662844,41.8448904 23.7484303,41.8469787 23.5997031,41.6005589 C23.4928708,41.4251413 23.4572601,41.2267525 23.4635443,41.0283636 C23.4593548,40.8153566 23.4949656,40.619056 23.6038926,40.4415502 C23.7484303,40.2097485 23.9662844,40.2118368 24.0856851,40.4561683 Z M20.1685021,40.7213829 C20.3151346,40.7798554 20.3256084,40.9176835 20.3465559,41.0408934 C20.3800719,41.2539004 20.3025661,41.4961437 20.1580283,41.6423249 C20.0113958,41.4063466 20.0176801,40.9197718 20.1685021,40.7213829 Z M11.6994266,36.1542624 C11.7580797,36.1960285 11.8209222,36.2336179 11.8774804,36.2816489 C12.493337,36.7995483 12.9374241,37.4406576 13.2139311,38.1903586 C13.3040054,38.4367785 13.3438056,38.6999048 13.4003639,38.9567662 C13.4129324,39.0089738 13.4087429,39.0674463 13.4045534,39.1238305 C13.3940796,39.2971597 13.3207634,39.4078398 13.1552781,39.4412527 C12.392789,39.5936988 11.4187301,39.5080784 10.907611,38.6539621 C10.8259158,38.516134 10.7358415,38.3824826 10.6667148,38.2404779 C10.5871142,38.0755019 10.6436725,37.9961464 10.8259158,38.0232943 C11.0458646,38.0546189 11.2616238,38.1110031 11.4815726,38.1527692 C11.6784791,38.1903586 11.8774804,38.2383896 12.0764817,38.2530078 C12.2817672,38.2676259 12.342515,38.1820054 12.2880515,37.9815283 C12.2482512,37.835347 12.1895982,37.6933423 12.1393242,37.5492494 C11.9947864,37.1503833 11.8502487,36.7536056 11.7078056,36.3547396 C11.6868581,36.2983553 11.6784791,36.2398828 11.6659106,36.1814103 C11.6763844,36.1730571 11.6868581,36.1626156 11.6994266,36.1542624 Z M37.4062023,35.0265783 C37.4020128,35.1101104 37.408297,35.1832011 37.3894443,35.2521151 C37.282612,35.6614227 37.1694955,36.0707302 37.0605685,36.4800378 C36.9914417,36.7410758 36.9244097,37.0042021 36.8573777,37.2673283 C36.8406197,37.3320658 36.8301459,37.3988915 36.8133879,37.4866002 C36.8804199,37.4824236 36.9285992,37.4886885 36.9704942,37.4761587 C37.282612,37.3800967 37.5968245,37.2861231 37.9068476,37.1837962 C38.1770704,37.0939991 38.4451984,36.9916722 38.7154212,36.9039635 C38.7908322,36.8789038 38.8746222,36.8851687 38.9982125,36.8726389 C38.9646965,36.9707892 38.9584122,37.0397032 38.9228015,37.0919108 C38.4033034,37.8416119 37.7476466,38.4158955 36.8217669,38.5934013 C36.5871549,38.639344 36.3357849,38.6247258 36.0927938,38.6059311 C35.8183815,38.5871364 35.7241178,38.4701914 35.7345915,38.1945353 C35.7513495,37.7267552 35.8456133,37.2715049 36.0110986,36.8329611 C36.2499001,36.1960285 36.6143867,35.6447162 37.1192215,35.1873777 C37.1925377,35.1184637 37.257475,35.0265783 37.4062023,35.0265783 Z M21.0545815,37.6327815 C21.1991192,37.6849891 21.4064995,37.9877932 21.4044048,38.1673873 C21.3897415,38.3156569 21.3122358,38.4513966 21.1697927,38.543282 C21.0462025,38.6205492 20.9100437,38.5934013 20.8513907,38.4618381 C20.7382742,38.2070651 20.7696954,37.9460271 20.8786224,37.6954306 C20.9100437,37.62234 20.9791705,37.6056336 21.0545815,37.6327815 Z M21.7144278,34.2392877 C21.7961231,34.2914953 21.7961231,34.3792041 21.7898388,34.4564713 C21.7626071,34.7738935 21.7500386,35.0954923 21.6913856,35.4087379 C21.6159745,35.8180455 21.5070475,36.2210881 21.4085943,36.6262191 C21.385552,36.7201927 21.3457518,36.8058132 21.3122358,36.8956103 C21.0860027,36.2837372 21.259867,34.481531 21.7144278,34.2392877 Z M9.55440235,36.0978782 C9.71779287,36.1542624 9.9482154,36.4528898 9.9524049,36.6241307 C9.9565944,36.7536056 9.88327814,36.8287845 9.74921412,36.8308728 C9.52298109,36.8371377 9.32188506,36.6303957 9.34702207,36.4445366 C9.35959057,36.3505629 9.37425382,36.254501 9.40358033,36.1626156 C9.42452783,36.0978782 9.47899134,36.0707302 9.55440235,36.0978782 Z M39.8109756,35.4317092 C39.8361126,35.5027116 39.8444916,35.5799788 39.8528706,35.6071268 C39.8570601,35.8827829 39.6978591,36.0602887 39.4779103,36.0707302 C39.3082355,36.0790834 39.2076875,35.9725799 39.253772,35.8117805 C39.3082355,35.6196566 39.4234468,35.4630338 39.5994058,35.3607069 C39.7083328,35.2980578 39.7648911,35.3168525 39.8109756,35.4317092 Z M8.82752399,33.9928679 C9.1941053,34.1808152 9.5523076,34.3833807 9.81624613,34.7112444 C9.99639466,34.9367812 10.1472167,35.1769362 10.1388377,35.4818285 C10.1388377,35.5152414 10.1514062,35.5486543 10.1618799,35.5820671 C10.1681642,35.5904203 10.1828274,35.5987736 10.2268172,35.6384513 C10.2833754,35.540301 10.3252705,35.4567689 10.3755445,35.3795016 C10.446766,35.2709098 10.5096085,35.1476999 10.605967,35.0620795 C10.8322,34.859514 11.1045176,34.9367812 11.1945918,35.2270555 C11.2281078,35.3356473 11.2343921,35.4609455 11.2239183,35.5758022 C11.2092551,35.7407782 11.0898543,35.8431051 10.932748,35.8577232 C10.7274625,35.876518 10.5158927,35.8827829 10.3106072,35.8577232 C10.0215317,35.8222221 9.73455087,35.7553963 9.44757008,35.6990121 C9.20876855,35.6509811 9.04537802,35.5110648 8.97415651,35.2792631 C8.8652295,34.928428 8.76468149,34.5734164 8.66203872,34.220493 C8.65156497,34.1870801 8.64737547,34.151579 8.64528072,34.1181661 C8.63690172,33.959455 8.68508097,33.9176889 8.82752399,33.9928679 Z M40.4331164,33.0907206 C40.4980537,33.2703147 40.3891267,33.7568895 40.2194519,34.0576053 C39.9974084,34.4522947 39.4904788,34.9827239 38.9458437,35.1038455 C38.859959,35.0620795 38.885096,34.9848122 38.9039487,34.9242514 C38.9500332,34.7718052 38.9898335,34.6151824 39.0589602,34.4731778 C39.3270883,33.9239539 39.7229961,33.48541 40.2424942,33.1596346 C40.2843892,33.134575 40.3283789,33.113692 40.3723687,33.0948972 C40.3912214,33.0844557 40.4142637,33.0907206 40.4331164,33.0907206 Z M22.1103356,32.4621412 C22.2485891,32.564468 22.2318311,32.7210908 22.2402101,32.8568306 C22.2548734,33.107427 22.2716314,33.3642884 22.1124304,33.6232381 C21.9678926,33.326699 21.9741768,32.6772365 22.1103356,32.4621412 Z M22.4580642,30.8332641 C22.5816544,30.8750302 22.6130757,30.983622 22.6235494,31.0922138 C22.6507812,31.3261039 22.6424022,31.5579056 22.4517799,31.7688243 C22.2988631,31.5015214 22.3072421,31.0337413 22.4580642,30.8332641 Z M41.166279,25.8902489 C41.2605428,25.9132202 41.3548066,25.9508097 41.4344071,26.0030173 C41.7297669,26.1993179 42.0188424,26.40606 42.3100127,26.6107137 C42.4692137,26.7234821 42.6242252,26.8446038 42.7876158,26.9469307 C42.8735005,27.0012266 42.9761433,27.038816 43.0745966,27.065964 C43.2233238,27.1056417 43.3092086,27.0638757 43.3888091,26.9302242 C43.4223251,26.87384 43.4558411,26.8174558 43.4893571,26.7589833 C43.5061151,26.7610716 43.5207784,26.7631599 43.5375364,26.7631599 C43.5626734,26.8362506 43.6045684,26.9093412 43.6108526,26.9845201 C43.6569371,27.4669183 43.6192316,27.9430516 43.4830729,28.4108317 C43.4160409,28.6384568 43.2777873,28.790903 43.0494596,28.8451989 C42.7457208,28.9182895 42.4398872,28.997645 42.1298642,29.0352345 C41.6794929,29.0916187 41.2249321,29.1187667 40.772466,29.0519409 C40.6488757,29.0331462 40.5231907,29.0101749 40.4079794,28.9663205 C40.2278309,28.8994948 40.1943149,28.7386954 40.3388527,28.6092205 C40.4121689,28.5444831 40.5169065,28.5006287 40.6153597,28.4797457 C40.8290242,28.433803 40.898151,28.3795071 40.9442355,28.1665001 C41.007078,27.8741376 40.956804,27.5838633 40.9211933,27.2956774 C40.8855825,26.9991383 40.8415927,26.7025991 40.8101715,26.40606 C40.7996977,26.309998 40.805982,26.2097594 40.82274,26.1157857 C40.8541613,25.9153085 40.9672778,25.8401296 41.166279,25.8902489 Z M41.9057259,26.9281359 C41.8680204,27.0116681 41.8282201,27.0701406 41.8156516,27.1327897 C41.7926094,27.2539113 41.7737566,27.3792096 41.7716619,27.5024195 C41.7653776,27.7509276 41.8931574,27.9242569 42.1089167,28.0307604 C42.29116,28.1205574 42.4859717,28.1163808 42.6786888,28.0662615 C42.7959948,28.034937 42.8253213,27.9743762 42.7792368,27.8636961 C42.7561945,27.8073118 42.7226785,27.7509276 42.6807835,27.704985 C42.492256,27.491978 42.3016337,27.2810593 42.1068219,27.0743172 C42.0586427,27.0221096 41.9895159,26.9866084 41.9057259,26.9281359 Z M26.7104073,19.8654923 C26.3082152,19.9385829 25.9500129,20.1056472 25.6944534,20.4335109 C25.6085686,20.544191 25.5561998,20.6903723 25.5122101,20.826112 C25.4305148,21.08715 25.4975468,21.348188 25.5268733,21.6113143 C25.5457261,21.7804669 25.5373471,21.9579727 25.5122101,22.1271253 C25.4912626,22.2753949 25.3990936,22.3756335 25.2294188,22.386075 C25.1728605,22.3902516 25.1204918,22.4236645 25.0618388,22.4445475 C25.0857189,22.5485451 25.1390094,22.6172085 25.1999918,22.6757979 L25.3257773,22.7870294 C25.4263253,22.8789147 25.5813369,22.9165042 25.6441794,23.0960983 C25.4535571,23.0564206 25.2922613,23.0188311 25.1288708,22.9875065 C24.7434367,22.9102393 24.3642869,22.9311223 23.9977056,23.0689504 C23.8489784,23.121158 23.7065353,23.1921603 23.6206506,23.3613129 C23.7149143,23.4824345 23.8385046,23.4907878 23.9537159,23.4970527 C24.2323177,23.5158474 24.5109195,23.5325538 24.7895212,23.5262889 C25.1540078,23.5179357 25.5122101,23.4657281 25.8536544,23.3320767 C26.0317082,23.2610743 26.1971934,23.1733656 26.2705097,22.9791533 C26.2872677,22.9352989 26.3165942,22.8977095 26.3501102,22.839237 C26.4590372,22.9791533 26.4569425,23.0898334 26.4653215,23.1984252 C26.47789,23.3884609 26.519785,23.5743199 26.637091,23.7267661 C26.6915545,23.7998567 26.7753445,23.8833889 26.8591345,23.9000953 C27.0476621,23.9355965 27.1314521,24.0588064 27.1859156,24.2154292 C27.2843688,24.4973502 27.2969373,24.7876245 27.2278106,25.079987 C27.1838208,25.2679344 27.0686096,25.3702612 26.8737978,25.3786145 C26.7145968,25.3848794 26.553301,25.3723495 26.3941,25.3556431 C26.2348989,25.3368484 26.0798874,25.2950823 25.9206864,25.2741993 C25.6776954,25.2428747 25.5771474,25.3472899 25.6232319,25.5895331 C25.6944534,25.952898 25.7950014,26.309998 25.9772447,26.6315968 C26.0756979,26.804926 26.2034777,26.9657254 26.3417312,27.1098184 C26.5051217,27.278971 26.7145968,27.3771213 26.9533983,27.395916 C27.2948426,27.4230639 27.5629706,27.278971 27.7808247,27.0304628 C28.0217209,26.7548067 28.139027,26.4227664 28.206059,26.0677547 C28.3799232,25.1468127 28.4301973,24.2196058 28.3359335,23.286134 C28.239575,22.3213376 27.9819207,21.4024839 27.5671601,20.5274846 C27.4917491,20.3666852 27.3828221,20.2163273 27.2697056,20.076411 C27.1293573,19.9009934 26.9324508,19.8237262 26.7104073,19.8654923 Z M7.23132427,24.1506918 C7.29626153,24.3323742 7.35910404,24.5224099 7.37167254,24.7124455 C7.40309379,25.1844022 7.40937804,25.6563589 7.4156623,26.1283155 C7.41775705,26.3287927 7.39471479,26.5313582 7.38005154,26.7318354 C7.37795679,26.7736014 7.37167254,26.8153675 7.36329354,26.8550453 C7.30254578,27.1411429 7.17476601,27.2017037 6.94643823,27.0137564 C6.59033068,26.7172172 6.20070712,26.7005108 5.78385182,26.8132792 C5.54923978,26.8780166 5.320912,26.9657254 5.08839472,27.038816 C4.98994145,27.0701406 4.88939344,27.1035534 4.78675068,27.1202599 C4.5919389,27.1515844 4.48929613,27.0931119 4.44740113,26.900988 C4.40550612,26.7046874 4.39084287,26.5021219 4.38036912,26.3016448 C4.36989537,26.1011676 4.37827437,25.8986021 4.37827437,25.6960366 C4.37199012,25.7002132 4.36780062,25.7002132 4.36361112,25.6981249 C4.37827437,25.4349987 4.38874812,25.1697841 4.40969562,24.9066578 C4.41807462,24.8043309 4.43902213,24.6999157 4.47044338,24.6017654 C4.52490689,24.4430543 4.6254549,24.3824935 4.79512968,24.4054649 C4.89148819,24.4179947 4.98575195,24.4472309 5.08001572,24.4722906 C5.2832065,24.5286748 5.48849202,24.5537344 5.7000618,24.50988 C5.86345233,24.4764672 5.9996111,24.4075532 6.10434861,24.2739017 C6.28868664,24.0421 6.54424617,23.9439497 6.83332171,23.9147134 C7.02603874,23.8938304 7.16848176,23.9752743 7.23132427,24.1506918 Z M6.34315014,24.7667414 C6.26773913,24.8356555 6.19442287,24.9170993 6.14624362,25.0068964 C5.9996111,25.2783759 5.66445105,25.3827911 5.36909126,25.2950823 C5.28949075,25.272111 5.20779549,25.2470513 5.12610022,25.2407864 C4.93966745,25.2282566 4.82236143,25.3180536 4.77418217,25.4955595 C4.71762392,25.7023016 4.80141393,25.8965138 5.00879421,26.0239003 C5.22455349,26.1617284 5.47173402,26.1951413 5.72938831,26.2055828 C5.90115783,26.1805231 6.07502211,26.165905 6.24260213,26.1262272 C6.4122769,26.0844612 6.54634092,25.980046 6.60499393,25.8088051 C6.7160157,25.4809413 6.69297344,25.1509893 6.59661493,24.8273022 C6.55471992,24.6832093 6.45626666,24.6644145 6.34315014,24.7667414 Z M43.7826222,21.9558844 C43.8475594,22.0456815 43.8999282,22.1480084 43.9334442,22.2524236 C44.0737925,22.6847025 44.069603,23.1274229 44.0214237,23.5743199 C44.0172342,23.6077328 44.0046657,23.6411456 43.9920972,23.6745585 C43.9439179,23.7894152 43.8894544,23.8102983 43.7805274,23.7518257 C43.7449167,23.7309427 43.7093059,23.7058831 43.6799794,23.6787351 C43.2233238,23.2422796 42.6640255,23.1274229 42.0565479,23.1608358 C42.0146529,23.1629241 41.9727579,23.1671007 41.9308629,23.1733656 C41.6501664,23.2255732 41.4469756,23.3801077 41.4134596,23.6703819 C41.3841331,23.9105368 41.4008911,24.1548684 41.4092701,24.3971116 C41.4155543,24.4472309 41.4574493,24.4994385 41.4993443,24.5955005 C41.5852291,24.5057034 41.6480716,24.4451426 41.7004404,24.3783169 C41.7653776,24.2968731 41.8156516,24.2028994 41.8847784,24.1277204 C41.9853264,24.0170403 42.0837797,24.0191286 42.1948014,24.1131023 C42.4901612,24.3636988 42.5236772,24.7771829 42.2618334,25.0611923 C41.9958002,25.3472899 41.6648296,25.4308221 41.2877746,25.3284952 C41.1348578,25.2867291 41.0447835,25.1718724 40.9714673,25.0403092 C40.8269295,24.7813596 40.7536132,24.4973502 40.7033392,24.2112526 C40.613265,23.6954415 40.5671805,23.1754539 40.6488757,22.6554662 C40.6740127,22.4988434 40.722192,22.3443089 40.7766555,22.1960394 C40.8164557,22.0874476 40.898151,22.0060037 41.0280255,22.0101803 C41.1704685,22.0164452 41.2835851,22.0770061 41.3443328,22.2127458 C41.3673751,22.2628651 41.3820383,22.3192493 41.3841331,22.3735452 C41.3904173,22.5635808 41.4993443,22.674261 41.6669244,22.716027 C41.8135569,22.7515282 41.9685684,22.764058 42.1193904,22.764058 C42.3602867,22.764058 42.5865197,22.6909674 42.7959948,22.5719341 C42.9572905,22.4800487 43.0808808,22.3526622 43.1541971,22.1793329 C43.1898078,22.0958008 43.2317028,22.0143569 43.2861663,21.9454429 C43.4432726,21.7428774 43.6318001,21.7449657 43.7826222,21.9558844 Z M6.30753939,20.2706232 C6.66155219,20.3061244 7.00090174,20.3332723 7.33815653,20.3750384 C7.44708355,20.3875682 7.55601057,20.4293343 7.65446383,20.4773653 C7.8157596,20.5588091 7.83880186,20.6778425 7.71940109,20.8156705 C7.64817958,20.8992027 7.56229482,20.9764699 7.46803105,21.0307658 C7.29835628,21.1310044 7.21247152,21.2771857 7.16429226,21.4588681 C7.06374425,21.8368511 7.08888125,22.2148341 7.13915526,22.5969937 C7.16429226,22.7953826 7.18105026,22.9979481 7.17476601,23.1984252 C7.16848176,23.4490217 7.05117574,23.5137591 6.81446896,23.4218737 C6.7118262,23.382196 6.61127818,23.3299884 6.51701442,23.2715159 C6.3452449,23.1650124 6.17975962,23.0501556 6.0121796,22.9373872 C5.74195681,22.7557048 5.45288127,22.6220534 5.13447922,22.5552276 C4.99622571,22.5259914 4.86216169,22.5218148 4.72600292,22.5844639 C4.53328589,22.6721727 4.41597987,22.6178768 4.41179037,22.4090464 C4.40550612,22.1396552 4.43064313,21.870264 4.46834863,21.6029611 C4.49767514,21.3983073 4.56680189,21.1999184 4.61917065,20.997353 C4.70715016,20.6506945 4.9291937,20.4355992 5.27692224,20.379215 C5.62255604,20.3249191 5.97028459,20.3061244 6.30753939,20.2706232 Z M24.1652857,20.4857185 C23.8343151,20.4878068 23.6248401,20.7488448 23.7086301,21.0641787 C23.8217466,21.4860161 24.0333164,21.8577341 24.3223919,22.1876862 C24.3538132,22.2231873 24.3894239,22.2586885 24.4292242,22.2879247 C24.5947095,22.4215762 24.699447,22.4173996 24.8481742,22.2670417 C25.034607,22.0770061 25.1330603,21.8410277 25.1896185,21.5862546 C25.1959028,21.5591067 25.193808,21.5298704 25.1917133,21.5027225 C25.1875238,21.4233669 25.143534,21.3899541 25.0660283,21.4024839 C25.0325123,21.4087488 24.9989963,21.4233669 24.967575,21.4317202 C24.7581,21.492281 24.649173,21.4254552 24.6114675,21.2103599 C24.6009937,21.1497991 24.6135622,21.0829734 24.598899,21.0245009 C24.5695725,20.9033793 24.5444355,20.7801694 24.4899719,20.6694892 C24.4292242,20.5483676 24.3098234,20.4836302 24.1652857,20.4857185 Z M5.80689407,21.2249781 C5.62884029,21.2479494 5.46754452,21.2563026 5.312533,21.2918038 C5.15123723,21.327305 5.11772122,21.4233669 5.22036399,21.5507535 C5.41936526,21.7971733 5.6623563,21.9955622 5.93257909,22.1563616 C6.07711686,22.2419821 6.19861237,22.2106575 6.29497089,22.0665645 C6.3703819,21.9517078 6.43112966,21.822233 6.46883516,21.6927581 C6.52748817,21.4943693 6.44369816,21.348188 6.24260213,21.2918038 C6.09806436,21.2500377 5.94305284,21.2437728 5.80689407,21.2249781 Z M22.6361179,20.5984869 C22.6654444,20.6715776 22.6738234,20.757198 22.6822024,20.7947875 C22.6780129,21.0495606 22.5167172,21.2228898 22.3093369,21.2375079 C22.1501359,21.2479494 22.0495879,21.1539757 22.0789144,20.9994413 C22.1229041,20.7864343 22.2506839,20.6235466 22.4413062,20.5191314 C22.5355699,20.4669238 22.5963177,20.4919834 22.6361179,20.5984869 Z M41.7528091,18.0841691 C42.0418847,18.1238468 42.333055,18.1509948 42.617941,18.207379 C42.752005,18.2324386 42.8818795,18.2971761 42.9991856,18.3681784 C43.2547451,18.5248012 43.3469141,18.7691327 43.2463661,19.0510538 C43.1919026,19.2055882 43.1143968,19.362211 43.0096593,19.485421 C42.8337003,19.6900747 42.6472675,19.8968168 42.4315082,20.0534396 C42.0251267,20.3458021 41.5957029,20.6047518 41.1725633,20.874143 C41.0971523,20.922174 41.0091728,20.9555869 40.923288,20.9806465 C40.7661817,21.0245009 40.697055,20.9743816 40.6928655,20.8114939 C40.6907707,20.7216968 40.7033392,20.6318998 40.7096235,20.5421027 C40.7431395,20.1119121 40.764087,19.6817215 40.6907707,19.2536192 C40.6677285,19.1262327 40.630023,18.9946696 40.5734647,18.8777245 C40.5088267,18.7452664 40.4349547,18.7125354 40.3109552,18.7453395 L40.2445889,18.7670444 C40.1796517,18.7921041 40.1126196,18.8129871 40.0455876,18.8213403 C39.9680819,18.8317818 39.9136184,18.7921041 39.8842919,18.7169251 C39.8549654,18.6438345 39.8570601,18.5707439 39.9199026,18.5268895 C40.0099769,18.4642404 40.1063354,18.4036796 40.2089782,18.3640018 C40.663539,18.1927609 41.1390473,18.1238468 41.6229346,18.111317 C41.6648296,18.1092287 41.7067246,18.111317 41.7486196,18.111317 C41.7486196,18.1029638 41.7507144,18.0925223 41.7528091,18.0841691 Z M41.3359538,18.9904929 C41.1599948,19.0447888 41.1055313,19.1951467 41.2060793,19.3517695 C41.3254801,19.5397169 41.4951548,19.6691917 41.7192931,19.7109578 C41.9497157,19.7548122 42.1529064,19.5835712 42.1550012,19.3079151 C42.1550012,19.2410894 42.1047272,19.1512923 42.0125582,19.0907315 C41.8030831,18.9549918 41.5747554,18.915314 41.3359538,18.9904929 Z M6.29078139,16.1775476 C6.44998241,16.1942541 6.61127818,16.2130488 6.7621002,16.2569032 C6.99461749,16.3258172 7.22713477,16.4051728 7.45127305,16.5012347 C7.93725512,16.7121534 8.41695294,16.9376902 8.89665075,17.1569622 C8.92807201,17.169492 8.94901951,17.1841101 9.00557777,17.217523 C8.57405921,17.4263534 8.1697724,17.6101241 7.7738646,17.8168662 C7.51621031,17.9505176 7.26693502,18.1071404 7.02394399,18.2679398 C6.92758548,18.3305889 6.84589022,18.4245626 6.77466871,18.5185363 C6.62594143,18.7169251 6.68878394,18.8714596 6.93805923,18.8902544 C7.107734,18.9048725 7.28369303,18.8756362 7.45546255,18.8484883 C7.65446383,18.8171637 7.85137036,18.7670444 8.04827688,18.7273667 C8.09645614,18.7190134 8.1446354,18.7127485 8.19281466,18.7169251 C8.33735243,18.729455 8.40857394,18.8004573 8.36877368,18.936197 C8.32268917,19.101173 8.25565716,19.2640607 8.17186715,19.4123303 C8.09645614,19.5459818 7.95401312,19.6148958 7.7990016,19.6086309 C7.63351633,19.6002777 7.46384155,19.5814829 7.30673528,19.5334519 C6.82494271,19.3851824 6.33686589,19.2849438 5.83622057,19.2264713 C5.72519881,19.2139415 5.61417704,19.197235 5.50734478,19.1679988 C5.14076348,19.059407 5.05697346,18.8067222 5.295775,18.5060064 C5.38584926,18.393238 5.49477628,18.2867345 5.61417704,18.207379 C5.81108357,18.0779042 6.0205586,17.9672241 6.23212838,17.8628089 C6.46883516,17.7437755 6.71811045,17.6498019 6.95272248,17.5307685 C7.31092478,17.3490861 7.31511428,17.2321411 6.97785948,17.025399 C6.85217447,16.9502201 6.7160157,16.8917476 6.59661493,16.8082154 C6.44369816,16.7017119 6.29706564,16.5847669 6.15881212,16.4594687 C6.11691711,16.4197909 6.09178011,16.3299938 6.10225386,16.2736096 C6.11901186,16.1879892 6.21537038,16.1691944 6.29078139,16.1775476 Z M40.5106222,13.6172871 C40.8604455,13.6548766 40.9966043,13.8929432 40.8520665,14.2103654 C40.7871292,14.3544584 40.6865812,14.4818449 40.5944122,14.6113197 C40.5106222,14.7303531 40.4079794,14.8368566 40.3283789,14.9579782 C40.2257362,15.114601 40.2424942,15.204398 40.3975057,15.3129898 C40.5169065,15.396522 40.646781,15.465436 40.780845,15.5259968 C41.3401433,15.7765933 41.9036311,16.0230132 42.4629295,16.269433 C42.5299615,16.296581 42.592804,16.3258172 42.7059205,16.3759365 C42.1005377,16.5868552 41.5433341,16.7852441 40.981941,16.9731914 C40.5986017,17.1005779 40.2110729,17.217523 39.8235441,17.3323797 C39.7271856,17.3616159 39.6224481,17.3678808 39.4779103,17.3908522 C39.5198053,17.3156732 39.5323738,17.2697306 39.5617003,17.2425826 C39.6915748,17.1277259 39.8277336,17.0191341 39.9638924,16.908454 C40.0979564,16.7977739 40.2383047,16.6933587 40.3702739,16.5805903 C40.4310217,16.5283827 40.4750114,16.4594687 40.5567067,16.3634067 C40.4498744,16.3362587 40.3828424,16.3111991 40.3137157,16.3028459 C40.1901254,16.2882277 40.0581561,16.3007576 39.9387554,16.2715213 C39.7858386,16.2318435 39.6266376,16.1838126 39.4967631,16.1002804 C39.2663405,15.9478342 39.1888348,15.7139442 39.2412035,15.4424647 C39.2768143,15.2607822 39.371078,15.1062478 39.4841946,14.9621548 C39.5575108,14.8702694 39.6308271,14.7762958 39.6894801,14.6739689 C39.7711753,14.5298759 39.7334698,14.4526087 39.5784583,14.4129309 C39.1218028,14.289721 38.7405582,14.5549355 38.7091369,15.018539 C38.7007579,15.1521904 38.6944737,15.2941951 38.5520307,15.3589325 C38.3970192,15.4299349 38.2859974,15.3213431 38.1791651,15.2336343 C37.9298898,15.0268922 37.9068476,14.7888256 38.1205121,14.5465823 C38.2126811,14.4442554 38.3195134,14.3502818 38.4347247,14.2751028 C38.9165172,13.9597689 39.4402048,13.7300555 40.0099769,13.6298169 C40.1733674,13.6005807 40.3451369,13.5984924 40.5106222,13.6172871 Z M8.89246125,12.6357843 C8.95111426,12.8383498 8.96996701,13.0450918 8.93016676,13.2539222 C8.8903665,13.4627526 8.81705024,13.4982538 8.60966996,13.4460462 C8.53425895,13.4272515 8.44837419,13.4439579 8.37086843,13.4627526 C8.31849967,13.4752824 8.27032042,13.5128719 8.22842541,13.5483731 C7.84718086,13.8720602 7.57276857,14.2688379 7.44708355,14.7554127 C7.37586204,15.0227156 7.47222055,15.1730735 7.74663284,15.1772501 C8.25775191,15.1856033 8.70812323,15.0164507 9.05166228,14.6259379 C9.13545229,14.5298759 9.16896829,14.3920478 9.22552655,14.2730145 C9.26742156,14.1853058 9.29255856,14.0788023 9.41824358,14.0161531 C9.46851758,14.0662724 9.53345484,14.1101268 9.57116035,14.1706876 C9.71569812,14.4150192 9.86652014,14.6593507 9.98801566,14.9183004 C10.1157954,15.1876916 10.0529529,15.3464027 9.76178263,15.4299349 C9.34073782,15.5510565 8.91131401,15.6450302 8.4818902,15.7306506 C8.1613934,15.795388 7.8325176,15.8329775 7.50364181,15.774505 C7.4491783,15.7640635 7.39262004,15.7557103 7.34025129,15.7390038 C7.02813349,15.6450302 6.87521672,15.4382881 6.90663797,15.114601 C6.92339598,14.9370951 6.95900673,14.7554127 7.02184924,14.5862601 C7.26274552,13.9430625 7.59371607,13.3478959 8.02313988,12.8112018 C8.12997215,12.6775504 8.26194141,12.5543404 8.40228968,12.4541019 C8.63271222,12.2912142 8.81286074,12.3622165 8.89246125,12.6357843 Z M10.480282,10.179939 C10.5598825,10.2237933 10.6436725,10.2634711 10.7127993,10.3198553 C11.3454138,10.8440196 11.9738389,11.3702722 12.6085483,11.898613 C12.577127,11.9570855 12.560369,11.994675 12.535232,12.0259996 C12.241967,12.4227773 11.9549862,12.8258199 11.6533421,13.2163328 C11.4836674,13.4356047 11.2909503,13.6381701 11.1024228,13.8428239 C11.0353908,13.911738 10.9516008,13.9618572 10.8510528,14.0391245 C10.74841,13.9284444 10.6604305,13.8490888 10.589209,13.7572035 C10.0780899,13.1098293 9.67170836,12.399806 9.32397981,11.6521932 C9.29255856,11.5832791 9.26951631,11.5101885 9.2443793,11.4370979 C9.14802079,11.1614418 9.1982948,10.9129336 9.39729607,10.7020149 C9.55021285,10.5412155 9.70731912,10.3825044 9.87699389,10.2384115 C10.0571424,10.0817887 10.2666174,10.0629939 10.480282,10.179939 Z M37.7539308,9.92516588 C37.8419103,9.98155008 37.9319846,10.0379343 38.0094904,10.10476 C38.6148732,10.626836 39.1427503,11.2157377 39.5847426,11.8798183 C39.6748168,12.0072048 39.7753648,12.138768 39.7544173,12.3308919 C39.6077848,12.3789229 39.5072368,12.3079206 39.4087835,12.2494481 C39.0673392,12.0406177 38.776169,11.7712265 38.5059462,11.478864 C38.3174186,11.2742102 38.1309859,11.0674681 37.9382688,10.8669909 C37.8691421,10.7959886 37.7832573,10.7396044 37.7057516,10.674867 L37.6617618,10.7020149 C37.6701408,10.7813705 37.6722356,10.860726 37.6910883,10.9379933 C37.7413623,11.1405587 37.8021101,11.3410359 37.8502893,11.5436014 C37.8733316,11.637575 37.8859001,11.7357253 37.8879948,11.8317873 C37.8921843,12.0364411 37.8209628,12.0928253 37.6156773,12.0552358 C37.5486453,12.042706 37.4816133,12.0176463 37.4145813,11.9967633 C37.3224123,11.9675271 37.2302432,11.9320259 37.1359795,11.9090545 C37.0417157,11.8860832 36.9244097,11.8422288 36.8657567,11.9362025 C36.8259564,11.9988516 36.8427144,12.1074434 36.8615672,12.1909756 C36.8846094,12.2912142 36.9285992,12.3872761 36.972589,12.4812498 C37.0521895,12.6504024 37.1422637,12.8153784 37.2218642,12.9866193 C37.2805172,13.1119176 37.3391703,13.2393041 37.38316,13.3708673 C37.4062023,13.437693 37.399918,13.5149602 37.4062023,13.5796976 C37.2805172,13.6298169 37.2030115,13.5692561 37.1359795,13.5128719 C36.997726,13.3980152 36.8531882,13.2831585 36.7358822,13.1474187 C36.5180281,12.894734 36.3127426,12.6316077 36.1116466,12.3643048 C35.9168348,12.1074434 35.9126453,11.8359639 36.0927938,11.5707493 C36.4572804,11.0340552 36.8406197,10.5140676 37.3203175,10.0713472 C37.3705915,10.0233162 37.4271498,9.98363839 37.4816133,9.93978401 C37.567498,9.87086998 37.6617618,9.86460507 37.7539308,9.92516588 Z M9.93774165,11.2324441 C9.94612065,11.2742102 9.95449965,11.3431242 9.97544716,11.4078616 C10.0969427,11.8025511 10.2645227,12.1742691 10.5012295,12.5125744 C10.564072,12.6023714 10.6457673,12.6838153 10.731652,12.750641 C10.882474,12.867586 11.0500541,12.8696743 11.1924971,12.7464644 C11.5967839,12.393541 11.6156366,12.1826224 11.3663614,11.7941978 C11.3286558,11.7357253 11.2846661,11.6814294 11.2364868,11.6313101 C10.9725483,11.3660955 10.6583358,11.1760599 10.3168915,11.0277903 C10.2729017,11.0089956 10.2247224,10.9985541 10.1765432,10.9922892 C10.0152474,10.9755827 9.9398364,11.0444967 9.93774165,11.2324441 Z M23.7819463,11.9048779 C23.7337671,11.9027896 23.6834931,11.9090545 23.6374086,11.9215844 C23.4572601,11.9675271 23.398607,12.1178849 23.5033446,12.2724194 C23.5850398,12.3956293 23.7128196,12.4666317 23.8531679,12.4749849 C24.0375059,12.4854264 24.2260334,12.4666317 24.4103714,12.4499252 C24.4732139,12.4436603 24.531867,12.399806 24.6135622,12.3643048 C24.4355084,12.1408563 24.0081794,11.9111429 23.7819463,11.9048779 Z M34.3709091,7.09969076 C35.1103559,7.54867609 35.8330448,8.02063276 36.4551856,8.63041749 C36.5305966,8.70350812 36.5976287,8.78286367 36.6646607,8.86430752 C36.7002714,8.9060736 36.7316927,8.95410458 36.7568297,9.00213557 C36.8175774,9.11490398 36.8175774,9.24855543 36.7568297,9.29449811 C36.6646607,9.36341214 36.5829654,9.30285133 36.5054596,9.25899695 C36.4153854,9.20678935 36.3336901,9.14205193 36.2457106,9.08357942 C36.1640153,9.02928352 36.0865096,8.97081102 36.0006248,8.92486833 C35.8623713,8.84968939 35.7262125,8.87266073 35.6172855,8.98125253 C35.5397798,9.05851978 35.4601792,9.14414024 35.4099052,9.24020221 C35.2339462,9.57850744 35.0642714,9.92098927 34.9050704,10.2676477 C34.8380384,10.4117407 34.8066171,10.5683635 34.8254699,10.7333395 C34.8422279,10.9004038 34.7479641,10.9839359 34.5803841,10.9505231 C34.2221818,10.8795207 33.9414853,10.6790436 33.7403892,10.3762395 C33.641936,10.2258816 33.6649782,10.0588173 33.7739053,9.92725418 C33.9142535,9.75601327 34.0755493,9.60147878 34.2305608,9.44276769 C34.3562458,9.31329285 34.4965941,9.19634783 34.6139001,9.06060808 C34.7626274,8.88727886 34.8422279,8.68053678 34.8275647,8.44455844 C34.8066171,8.12295965 34.6683636,7.84312693 34.5028784,7.57582404 C34.4924046,7.56120591 34.4693624,7.554941 34.4169936,7.52779305 C34.3667196,7.62803163 34.3185403,7.70947548 34.2808348,7.79718425 C34.2200871,7.9371006 34.1698131,8.08328187 34.1069706,8.22110993 C34.069265,8.30255378 34.0210858,8.38190933 33.9645275,8.45082335 C33.8472215,8.58865141 33.7403892,8.5823865 33.6524097,8.4236754 C33.600041,8.32761343 33.5602407,8.21902163 33.5434827,8.11251813 C33.5036825,7.86192167 33.533009,7.61341351 33.6188937,7.37325856 C33.7278207,7.0683662 34.0210858,6.88668376 34.3709091,7.09969076 Z M14.1733267,7.56329421 C14.4854445,7.59253047 14.7954676,7.64891467 15.0992064,7.71574039 C15.5391039,7.81180237 15.9454855,7.9893082 16.3120668,8.2586994 C16.5382998,8.42576371 16.7750066,8.5844748 17.0536084,8.77868706 C16.3895726,9.16711158 15.7716212,9.53047645 15.1515751,9.88966471 C15.0803536,9.93143079 15.0007531,9.96066705 14.9232474,9.9919916 C14.6802563,10.0901419 14.4686865,10.0441992 14.3032013,9.84163373 C14.1586635,9.6641279 14.0162205,9.48244546 13.8905355,9.29240981 C13.7732294,9.11281568 13.6265969,8.92904494 13.5867967,8.72647946 C13.5218594,8.40279237 13.3102896,8.34223155 13.0505406,8.30881869 C12.9876981,8.30046548 12.9248556,8.30255378 12.8620131,8.29837717 C12.694433,8.28375905 12.5729375,8.20858011 12.5540848,8.09372339 C12.5289478,7.94754212 12.619022,7.85148015 12.7300438,7.78883103 C12.8431603,7.72409361 12.9667506,7.66979771 13.0924356,7.63429654 C13.4464484,7.53614626 13.8109349,7.52779305 14.1733267,7.56329421 Z M31.3733214,5.69217395 C31.9828938,5.86759148 32.5400973,6.1495125 33.0470269,6.5295838 C33.1140589,6.57552649 33.1601434,6.65279373 33.2208912,6.71961945 C33.1810909,6.75094401 33.1664277,6.77182705 33.1475749,6.77391535 C32.9066786,6.79062178 32.7830884,6.95350949 32.7286249,7.15398666 C32.6678771,7.37952347 32.6364558,7.61550181 32.6071293,7.84939184 C32.5673291,8.14593099 32.5505711,8.44455844 32.5065813,8.73900929 C32.4877286,8.86013091 32.4332651,8.97916423 32.3767068,9.08775603 C32.3390013,9.15667006 32.274064,9.22140748 32.207032,9.26317356 C32.081347,9.3383525 31.9577567,9.29449811 31.897009,9.16084667 C31.871872,9.10446246 31.8572087,9.03972504 31.8572087,8.97916423 C31.8509245,8.61997597 31.6603022,8.37773272 31.3565634,8.21693332 C30.9711294,8.01436785 30.5689373,8.00392633 30.160461,8.14384269 C30.0620077,8.17725555 29.9635545,8.21693332 29.8609117,8.23363975 C29.6577209,8.26914092 29.5466992,8.15637251 29.5990679,7.95589534 C29.6304892,7.83686202 29.6807632,7.71365209 29.7561742,7.61967842 C29.9300385,7.40249482 30.1143765,7.19575273 30.311283,6.99736387 C30.4935263,6.81359313 30.6715801,6.62773408 30.7930756,6.39802066 C30.8684866,6.25392769 30.9229501,6.11192303 30.8475391,5.94277042 C30.7909808,5.81538388 30.8580128,5.70470378 31.0025506,5.68173243 C31.1240461,5.6629377 31.2581102,5.65876109 31.3733214,5.69217395 Z M14.1858952,7.95380703 C14.02041,7.95380703 13.9764202,8.00392633 14.0225047,8.12504795 C14.1523792,8.46544148 14.3094855,8.79121688 14.5838978,9.03972504 C14.6655931,9.11281568 14.7640463,9.17546479 14.8666891,9.21096596 C14.9609529,9.24437882 15.0782589,9.26317356 15.1704279,9.23811391 C15.4469349,9.16711158 15.65641,8.99795897 15.7779055,8.73692098 C15.8868325,8.50511925 15.790474,8.32552512 15.5328197,8.30673039 C15.1578594,8.27958244 14.8101308,8.16263742 14.464497,8.03316258 C14.363949,7.99766142 14.255022,7.97469007 14.1858952,7.95380703 Z M19.3264125,4.95291439 C19.3913497,4.95291439 19.4667607,4.97588573 19.523319,5.01138689 C19.6469093,5.08656583 19.6678568,5.25363014 19.5589298,5.35178042 C19.4772345,5.42487106 19.380876,5.49169678 19.2782332,5.52719795 C19.0415264,5.6107301 18.8006301,5.68382074 18.5576391,5.74229325 C18.2497108,5.81747218 17.954351,5.91353416 17.6820335,6.07642186 C17.5877697,6.13280607 17.4956007,6.2017201 17.4222845,6.28316395 C17.2714624,6.45022825 17.3447787,6.64861712 17.568917,6.67576507 C17.6820335,6.6903832 17.803529,6.66532355 17.9187403,6.64652882 C18.0004355,6.63191069 18.0779413,6.59223292 18.1575418,6.57343818 C18.2329528,6.55464345 18.3062691,6.55046684 18.3942486,6.53584871 C18.3691116,6.68829489 18.2748478,6.76765044 18.2078158,6.86162412 C18.1282153,6.97648083 18.0360463,7.08298432 17.9752985,7.20619425 C17.8349503,7.49646849 17.9606353,7.73453513 18.2769426,7.79927255 C18.5890604,7.86400997 18.8844202,7.78883103 19.1776852,7.68650414 C19.2991807,7.64264976 19.4164867,7.57164743 19.581972,7.60297199 L19.5282843,7.70847 C19.519595,7.72362954 19.5100522,7.73731953 19.498182,7.74915326 C19.3871602,7.85356845 19.2782332,7.96424855 19.1525482,8.04986901 C18.8529989,8.2586994 18.5178389,8.39652745 18.1617313,8.48423622 C17.8412345,8.56359176 17.560538,8.49467774 17.3594419,8.22319823 C17.2232832,8.03942749 17.0913139,7.84730354 16.9949554,7.64056146 C16.7414906,7.10595567 16.5047838,6.56508497 16.268077,6.02421427 C16.1800975,5.82164879 16.1863818,5.79867745 16.3895726,5.70470378 C16.6095213,5.60237689 16.8336596,5.49587339 17.0661769,5.43113597 C17.6422332,5.26824827 18.2224791,5.122067 18.8069144,4.98423894 C18.9744944,4.94456117 19.1525482,4.95500269 19.3264125,4.95291439 Z M31.72105,6.79271009 C31.4717747,6.798975 31.2371626,6.84909429 31.0381614,7.00989369 C30.8265916,7.18113461 30.8328758,7.40458312 31.0528246,7.56538252 C31.2329731,7.69694566 31.4403534,7.75541817 31.6603022,7.74706495 C31.8509245,7.74080004 32.014315,7.6635328 32.1169578,7.49855679 C32.215411,7.341934 32.282443,7.16442818 32.1944635,6.98692235 C32.1106735,6.81776973 31.9284302,6.80732821 31.7587555,6.79271009 C31.7503765,6.79062178 31.7357132,6.79271009 31.72105,6.79271009 Z M28.1767325,4.83805767 C28.1913957,4.90279509 28.164164,4.99676877 28.1201742,5.04897636 C27.9923944,5.20351085 27.8499514,5.34760382 27.7033189,5.48543187 C27.5755391,5.60446519 27.4268119,5.69843886 27.3032216,5.81956049 C27.1251678,5.99080141 26.9869143,6.18919027 26.9261665,6.43352182 C26.8423765,6.76347383 26.9931986,7.03704164 27.3220743,7.12683871 C27.7598772,7.24587203 28.247954,7.18113461 28.4930398,6.60058613 C28.583114,6.38340253 28.6312933,6.1495125 28.7067043,5.92606399 C28.7863048,5.69008565 28.8680001,5.45201901 28.9706428,5.22648219 C29.0167273,5.1241553 29.1109911,5.03644654 29.1968759,4.9591793 C29.2932344,4.87355884 29.4126351,4.86729393 29.5299412,4.92576644 C29.6388682,4.98215064 29.6556262,5.09074244 29.6493419,5.19515763 C29.6430577,5.30583774 29.6242049,5.41651784 29.5969732,5.52510964 C29.4733829,6.02630257 29.2995186,6.51078907 29.0858541,6.98065744 C29.0523381,7.05583637 29.0104431,7.12892701 28.9685481,7.20201764 C28.7946838,7.51735153 28.5223663,7.66770941 28.1578797,7.64891467 C27.6593291,7.6092369 27.1586838,7.55911761 26.6727018,7.41920125 C26.553301,7.38578838 26.4339002,7.3377574 26.3249732,7.27719658 C26.0987402,7.14981005 26.0191397,6.963951 26.0882664,6.71335454 C26.1196877,6.59432122 26.1657722,6.4731996 26.2265199,6.3646078 C26.5344482,5.80911897 26.9031243,5.29330792 27.3220743,4.81508633 C27.3995801,4.72737757 27.4938439,4.65011033 27.5943919,4.59163782 C27.7850142,4.48095771 28.1264585,4.62505068 28.1767325,4.83805767 Z M25.6211371,4.25333259 C25.7363484,4.27421563 25.8536544,4.30554019 25.9646762,4.34521796 C26.0212344,4.3640127 26.0694137,4.41413199 26.1259719,4.45380976 C26.0338029,4.60416764 25.8997389,4.60207934 25.7803381,4.61669746 C25.3823356,4.66472845 24.9864278,4.6334039 24.59052,4.59581443 C24.1024431,4.54987174 23.6164611,4.51437058 23.1283843,4.57910799 C23.0320257,4.59163782 22.9356672,4.61043255 22.8434982,4.64175711 C22.6968657,4.6897881 22.6654444,4.75034891 22.7115289,4.89444188 C22.7408555,4.98632725 22.7827505,5.07821262 22.837214,5.15756816 C23.1451423,5.6107301 23.5473343,5.95947685 24.0291269,6.21424992 C24.0835904,6.24348617 24.1443381,6.26854582 24.2029912,6.28316395 C24.3119182,6.3124002 24.4271294,6.33537154 24.5088247,6.22469144 C24.5926147,6.10983473 24.5611935,5.99288971 24.4815929,5.89682773 C24.3978029,5.79658915 24.2951602,5.71305699 24.1925174,5.62952484 C24.1129169,5.56478742 24.0165584,5.51675643 23.9725686,5.38101668 C24.0521691,5.35178042 24.1254854,5.30374943 24.2008964,5.30166113 C24.5779515,5.29121961 24.9529118,5.2828664 25.3299668,5.29539622 C25.5394418,5.30166113 25.5980949,5.40398802 25.5017363,5.58775876 C25.2231346,6.11192303 24.9110168,6.61520426 24.4794982,7.03077673 C24.3056339,7.19992934 24.2281282,7.20410595 24.0186531,7.0683662 C23.8971576,6.98901065 23.7798516,6.89921358 23.6688298,6.80315161 C23.1241948,6.32075342 22.6403074,5.78197102 22.2255469,5.18471611 C22.1229041,5.03644654 22.0370194,4.87564714 21.9637031,4.71067114 C21.8945763,4.55613665 21.9322818,4.46007467 22.0810091,4.38071913 C22.1899361,4.32433492 22.3114316,4.28048054 22.4329272,4.25333259 C22.8560667,4.15727061 23.28968,4.13847588 23.7232933,4.13221097 C24.3600974,4.11968115 24.992712,4.13847588 25.6211371,4.25333259 Z" id="Combined-Shape" fill="#000000" fill-rule="nonzero"></path>
        </g>
    </g>
</svg>