<?xml version="1.0" encoding="UTF-8"?>
<svg width="48px" height="48px" viewBox="0 0 48 48" version="1.1" xmlns="http://www.w3.org/2000/svg" xmlns:xlink="http://www.w3.org/1999/xlink">
    <title>id-gmc</title>
    <g id="Page-1" stroke="none" stroke-width="1" fill="none" fill-rule="evenodd">
        <g id="id-gmc">
            <rect id="Rectangle" x="0" y="0" width="48" height="48"></rect>
            <path d="M10.2387094,16.5135368 C11.4357491,16.6183564 12.5845719,16.8929838 13.580358,17.6099498 C14.4126256,18.2095179 15.0268685,18.9998576 15.4901711,19.9096917 C15.666268,20.2555964 15.6494968,20.3059098 15.3035922,20.4694284 C14.4650354,20.8677428 13.6201895,21.2513825 12.7753436,21.639215 C12.6621384,21.6916248 12.5405477,21.7251671 12.3896074,21.7775769 C12.24286,21.5700341 12.1044981,21.3687805 11.9598471,21.173816 C11.8277744,20.9935263 11.6998945,20.8069474 11.5468579,20.6455253 C10.7670001,19.825836 9.81943098,19.5889438 8.73349998,19.8614747 C8.2114984,19.9935474 7.73981022,20.2304397 7.32053184,20.5658624 C6.76498799,21.0102975 6.2953962,21.532299 5.90966009,22.1318671 C5.5972977,22.6161337 5.41281521,23.1465208 5.33734511,23.714643 C5.2367183,24.4588621 5.23881469,25.2051776 5.37717655,25.945204 C5.48828532,26.5447721 5.78387658,27.041617 6.22621527,27.4525098 C6.83207253,28.0164392 7.54274938,28.3644402 8.37292057,28.4441031 C8.78590978,28.4839346 9.18212784,28.3937897 9.55947839,28.2386567 C10.5070475,27.8508242 11.108712,27.1464365 11.4063996,26.1737107 C11.418978,26.1338793 11.4273636,26.0919514 11.42946,26.0500236 C11.4420383,25.9158545 11.4168816,25.8676375 11.2890017,25.8340952 C11.1967605,25.8089385 11.0961336,25.7942638 10.9996996,25.7942638 C10.2932156,25.790071 9.58882787,25.7879746 8.8823438,25.7858782 C8.80058452,25.7858782 8.71882524,25.779589 8.62868038,25.7753962 C8.70624688,24.897008 8.78171699,24.0395838 8.85928349,23.1737739 C8.9212768,23.1549064 10.4064207,23.1433548 12.0999875,23.1406045 L12.6705629,23.1400157 C12.8622169,23.1399294 13.0547778,23.1399539 13.2465792,23.1400911 L13.8180388,23.1408428 C15.5155845,23.1441249 17.0166438,23.1567033 17.1064892,23.1800631 C17.110682,23.2555332 17.1232603,23.3372925 17.1190676,23.4169554 C17.1043928,23.666426 17.0981036,23.9200894 17.0603686,24.1653673 C17.0226335,24.4148379 16.8528258,24.5531998 16.6012588,24.5825493 C16.4838608,24.597224 16.3643665,24.6035132 16.2469685,24.6139951 C16.1421489,24.6223807 16.0373293,24.6244771 15.9346061,24.6391518 C15.7543164,24.6643085 15.6474005,24.752357 15.5866051,24.9431287 C15.4880747,25.2554911 15.3497128,25.5552751 15.2155437,25.8529627 C14.8675427,26.624435 14.4880957,27.3770397 13.9954436,28.0709454 C12.7942111,29.7585408 11.1820857,30.8046404 9.13810361,31.1463523 C7.34359215,31.4461363 5.64551471,31.1337739 4.08370275,30.1903976 C2.76087946,29.3916723 1.9768289,28.1988253 1.65608094,26.6978087 C1.37516442,25.3770818 1.49046598,24.0710296 1.86572012,22.7859414 C2.36675779,21.0669 3.25772434,19.5931365 4.63715021,18.4338318 C5.79855132,17.4590096 7.13814575,16.8720199 8.63496956,16.6330312 C9.1674531,16.5470791 9.69993664,16.4674162 10.2387094,16.5135368 Z M32.8839346,17.1340688 L33.1250197,17.1340688 C33.1506177,17.2215288 33.1675334,20.7119388 33.1721776,24.1583846 L33.1729622,24.8696844 C33.1730634,24.987753 33.1731497,25.1054866 33.173221,25.2227439 L33.1731442,26.9282174 C33.1714894,29.107445 33.1635271,30.8135041 33.14808,30.9157492 C33.0778965,30.9378069 32.3354329,30.9536309 31.5401185,30.9590932 L31.1047923,30.9610202 C30.3829232,30.9624365 29.710453,30.9546691 29.5527679,30.9346167 C29.5485751,30.8738213 29.5380932,30.8067368 29.5380932,30.7396523 C29.5297076,29.6704924 29.5255148,28.6013325 29.5171292,27.5321727 C29.5066473,26.4064102 29.4898761,25.2827441 29.4752014,24.1569817 C29.4710086,23.880258 29.4584303,23.6014378 29.4500447,23.3100394 C29.3858951,23.3276491 29.3541977,23.3641263 29.3318585,23.4036223 L29.2928153,23.4819435 C28.8378983,24.2995364 28.387174,25.1192256 27.9301606,25.9368184 C27.2194837,27.2114247 26.5067105,28.486031 25.7897445,29.7564445 C25.642997,30.0184934 25.4752857,30.2679641 25.3075743,30.5174347 C25.2342006,30.6264471 25.1419594,30.7249775 25.0497181,30.8193151 C24.9574769,30.9115564 24.8421753,30.957677 24.7080062,30.9534842 C24.5968975,30.9513878 24.4836923,30.9513878 24.3725835,30.9513878 C24.1755227,30.9492914 24.0392572,30.8528574 23.9763655,30.6662785 C23.9092809,30.4608321 23.8484856,30.2532893 23.7939794,30.0436501 C23.3600262,28.3895969 22.9302659,26.7355437 22.4942164,25.0835869 C22.347469,24.5238503 22.1860468,23.9683064 22.0288174,23.4106662 C22.0057571,23.3268105 21.9659256,23.2471476 21.9135158,23.1129785 C21.8506241,23.2387621 21.7982143,23.3121358 21.7730576,23.3938951 C21.6116354,23.8991255 21.4523096,24.4043559 21.3013694,24.9137792 C20.7332472,26.8340742 20.1693178,28.7564655 19.6053884,30.6767605 C19.5487858,30.8675322 19.5466894,30.8717249 19.3726889,30.8780141 C18.3328785,30.90946 17.2909717,30.9388095 16.2511613,30.968159 C16.2029443,30.9702554 16.1568237,30.9597734 16.0771608,30.9534842 C16.0981247,30.8633394 16.1107031,30.7857729 16.1337634,30.7103028 C16.4691861,29.6746852 16.8046088,28.6390676 17.1442243,27.6055464 C18.2511192,24.2093915 19.3663997,20.815333 20.4795838,17.4191781 C20.5068369,17.3332261 20.5403791,17.2493704 20.5781142,17.1466472 L23.8065577,17.1466472 C23.8631603,17.3520936 23.9281484,17.5554436 23.9784619,17.7629864 C24.2887279,19.0669422 24.5906083,20.3708979 24.9050671,21.6727573 C25.0602001,22.3163496 25.2300078,22.9578455 25.3956228,23.5993415 C25.4165867,23.676908 25.4480326,23.7523781 25.4899604,23.8718724 C25.5759125,23.7712456 25.6409006,23.7104502 25.6870212,23.6370765 C26.0958177,23.0039662 26.515096,22.3750486 26.9029285,21.7293599 C27.7561601,20.3038134 28.5926204,18.8656886 29.4374664,17.4359493 C29.6492019,17.0774663 29.5380932,17.1382616 29.948986,17.1361652 C30.928001,17.1319725 31.9049196,17.1340688 32.8839346,17.1340688 Z M46.5,17.5973715 C46.2903608,18.9222911 46.082818,20.2220541 45.8731788,21.5511666 C45.7767448,21.4903712 45.713853,21.4484434 45.6509613,21.4086119 C45.2882855,21.1717196 44.9339953,20.922249 44.5608375,20.7042242 C44.0451251,20.4023438 43.4916776,20.1968974 42.8900132,20.1319093 C42.2820595,20.0648247 41.6992626,20.1654515 41.1625862,20.446368 C39.8712088,21.1193098 38.9865314,22.1381563 38.6385304,23.569992 C38.3764814,24.6496338 38.5903134,25.6370344 39.315665,26.4923623 C39.7936423,27.0562917 40.4120779,27.3623649 41.1416223,27.4608953 C41.952926,27.5699077 42.7243982,27.3980036 43.4853885,27.1401474 C43.9151488,26.9954963 44.3407163,26.8403633 44.7704767,26.6936159 C44.8459468,26.6684592 44.9277061,26.6600736 45.0409112,26.6370133 C45.0178509,26.8256886 45.0094654,26.9850144 44.9801159,27.1401474 C44.7872478,28.2114036 44.5859942,29.2805635 44.3994153,30.3539161 C44.3553911,30.6033868 44.2170292,30.7480378 43.9948117,30.8402791 C43.6090756,30.9996049 43.2044719,31.0708822 42.7956755,31.1211956 C42.1856255,31.1945693 41.5713827,31.230208 40.9550434,31.2050513 C40.3198367,31.1798946 39.6846299,31.1379667 39.0640979,30.9849301 C38.0725046,30.7417486 37.2465262,30.2113615 36.5379457,29.4881063 C35.6972926,28.630682 35.213026,27.5950644 35.0369291,26.4168922 C34.9698446,25.9619751 34.9258203,25.5007689 34.9090492,25.0416591 C34.8503502,23.3142322 35.3367131,21.7314563 36.2192941,20.2618856 C36.8922359,19.1424123 37.7664314,18.2137107 38.8817118,17.5239977 C39.7999315,16.9537791 40.7999104,16.6477059 41.8795523,16.5491755 C43.2443034,16.4254884 44.5335844,16.6665735 45.7641664,17.257756 C45.9989623,17.3667683 46.2400474,17.4757807 46.5,17.5973715 Z" id="Combined-Shape" fill="#000000" fill-rule="nonzero"></path>
        </g>
    </g>
</svg>