<?xml version="1.0" encoding="UTF-8"?>
<svg width="48px" height="48px" viewBox="0 0 48 48" version="1.1" xmlns="http://www.w3.org/2000/svg" xmlns:xlink="http://www.w3.org/1999/xlink">
    <title>id-vip</title>
    <g id="Page-1" stroke="none" stroke-width="1" fill="none" fill-rule="evenodd">
        <g id="id-vip" transform="translate(0.000000, -0.000000)">
            <rect id="Rectangle" x="0" y="0" width="48" height="48"></rect>
            <path d="M15.037841,16.0564955 C16.314424,15.9873211 17.536506,15.6791803 18.7879347,15.729489 C18.8424358,15.9139542 18.844532,31.985485 18.7900309,32.1678541 C18.4525434,32.1678541 18.1087674,32.2013932 17.7712799,32.1615655 C15.4382143,31.8974448 13.1365916,31.4572438 10.8643157,30.8682129 C9.41165226,30.4908977 7.98204694,30.033927 6.62371226,29.3778179 C5.53369061,28.8516728 4.47930428,28.2626419 3.5402087,27.4891457 C2.92602342,26.9839626 2.38520498,26.4137974 1.99112023,25.7157643 C1.67040232,25.1455992 1.48803331,24.5377025 1.50061049,23.8774009 C1.51318766,23.2108107 1.72280721,22.602914 2.06448707,22.0369413 C2.41874411,21.4500065 2.87990712,20.9574006 3.39557121,20.5130071 C4.0495842,19.9491305 4.77067545,19.4858713 5.52949822,19.0771132 C5.89842862,18.8779747 6.27364762,18.6914133 6.64048183,18.4901785 C6.76834975,18.4189078 6.87944811,18.421004 7.01570082,18.4629279 C8.25874474,18.8570127 9.50388487,19.2469051 10.749025,19.6367974 C11.0194342,19.7206452 11.296132,19.7940121 11.6126575,19.8841485 C11.4701162,19.9575153 11.3653065,20.0120164 11.2625929,20.0644213 C10.6148685,20.3914278 9.96085548,20.7079533 9.36343977,21.1250962 C8.8393909,21.4898342 8.34468876,21.883919 7.92125727,22.3639478 C7.31755297,23.0494037 7.20226222,23.8375732 7.43284372,24.6949171 C7.51249915,24.9904807 7.6739062,25.2441204 7.86885238,25.4747019 C8.30905344,25.9987507 8.84987187,26.4075089 9.41374846,26.784824 C10.201918,27.3130653 11.0655505,27.6861881 11.950145,28.017387 C12.7550841,28.3171429 13.5621193,28.6064179 14.3943089,28.8202299 C14.4823492,28.843288 14.5703894,28.86425 14.6605258,28.8789233 C14.8219328,28.9040777 14.8659529,28.8810195 14.8952997,28.7217087 C14.9267426,28.5435321 14.9498007,28.361163 14.9560893,28.1808902 C14.9791475,27.4052979 15.0043018,26.6318018 15.0084942,25.8562094 C15.0231676,22.699339 15.02736,19.5403724 15.037841,16.383502 C15.037841,16.2912694 15.037841,16.1927482 15.037841,16.0564955 Z M32.419494,31.9267916 C31.2351435,32.0546595 30.0738512,32.178335 28.8957893,32.306203 C28.8957893,26.7596697 28.8957893,21.2110402 28.8957893,15.6477374 C28.9901181,15.6477374 29.0718698,15.6393526 29.1536214,15.6498336 C30.0633702,15.7462586 30.9731191,15.8301064 31.8807717,15.9495896 C33.4948422,16.1634015 35.0879508,16.479927 36.6621936,16.8991661 C38.3978435,17.3624253 40.0957618,17.9346867 41.7203133,18.7060866 C42.6237736,19.1358067 43.4936947,19.6242202 44.2944414,20.2300207 C45.0343984,20.7897049 45.6569685,21.4479103 46.0741114,22.2884847 C46.3172701,22.7768983 46.4765809,23.2862738 46.4975429,23.8312846 C46.5164086,24.3113134 46.4262722,24.778765 46.2397108,25.2210622 C45.9106081,26.0050393 45.4578299,26.69888 44.7807588,27.2334099 C43.6760637,28.1075234 42.52106,28.8977891 41.2402846,29.4931086 C41.1249938,29.5476097 41.0222802,29.5580907 40.9007009,29.5140706 C39.4710956,29.015176 38.0393941,28.5204739 36.6097887,28.0236756 C36.5783458,28.0131946 36.5489991,27.9943288 36.4861132,27.9649821 C36.6391355,27.8874229 36.7690996,27.824537 36.8948713,27.7574587 C37.4461707,27.4556066 38.0058549,27.170524 38.5445772,26.8477099 C39.0602413,26.537473 39.5255967,26.1538692 39.946932,25.7220529 C40.2676499,25.3929502 40.5422515,25.0345008 40.6407727,24.5712416 C40.8147569,23.7600139 40.686889,23.0179607 40.1230124,22.3786211 C39.754082,21.9614782 39.3264581,21.6177022 38.8652951,21.3074652 C37.6515979,20.4920452 36.3247062,19.9072066 34.9433133,19.4418512 C34.2222221,19.1986926 33.4843613,19.010035 32.7402119,18.8570127 C32.6731336,18.8444355 32.6060554,18.8381469 32.5117266,18.8255698 C32.4781874,23.1940412 32.4488407,27.5436468 32.419494,31.9267916 Z M26.2105629,32.4214937 C24.6363201,32.4214937 23.0620773,32.4214937 21.4689687,32.4214937 C21.4647763,32.3355497 21.4584877,32.2600867 21.4584877,32.1846236 C21.4521992,31.2266623 21.4480068,30.2707971 21.4417182,29.3128358 C21.4312372,27.4618952 21.4207562,25.6109546 21.4123714,23.7579178 C21.4081791,22.8838042 21.4039867,22.0117869 21.3997943,21.1376734 C21.3914095,19.2993099 21.3851209,17.4630427 21.3767361,15.6246793 C21.3767361,15.5555048 21.3767361,15.4863304 21.3767361,15.3940977 C21.4626801,15.385713 21.536047,15.3731358 21.6094138,15.375232 C23.0893278,15.4045787 24.571338,15.4360217 26.0512521,15.4653684 C26.1057531,15.4674646 26.1602542,15.4758494 26.2126591,15.4800418 C26.265064,15.6666032 26.265064,32.2433171 26.2105629,32.4214937 Z" id="Combined-Shape" fill="#000000" fill-rule="nonzero"></path>
        </g>
    </g>
</svg>