<?xml version="1.0" encoding="UTF-8"?>
<svg width="48px" height="48px" viewBox="0 0 48 48" version="1.1" xmlns="http://www.w3.org/2000/svg" xmlns:xlink="http://www.w3.org/1999/xlink">
    <title>idmmc</title>
    <g id="Page-1" stroke="none" stroke-width="1" fill="none" fill-rule="evenodd">
        <g id="idmmc">
            <rect id="Rectangle" x="0" y="0" width="48" height="48"></rect>
            <path d="M44.0826138,24.6470747 C43.9920451,25.367633 43.9042209,26.0770198 43.6846604,26.7584779 C43.286707,27.9817512 42.5868579,28.9983528 41.6400032,29.8417969 C41.3929976,30.062433 41.124036,30.2579333 40.8111623,30.3752334 C40.2238379,30.5958695 39.8807746,30.4087478 39.7902059,29.7831468 C39.7435493,29.4647606 39.7517828,29.135203 39.7682499,28.8112311 C39.812162,27.8672439 39.9685988,26.9428068 40.3720413,26.0853984 C40.5394561,25.7279121 40.7425496,25.3788044 40.9785772,25.0632111 C41.5082669,24.35941 42.213605,24.0801239 43.0836135,24.2644527 C43.4239323,24.3370671 43.747784,24.4515744 44.0826138,24.6470747 Z M2.23438124,31.4700351 C2.23987025,31.492378 2.24535926,31.5175137 2.25084827,31.5398566 C2.44021921,31.5538209 2.62959015,31.573371 2.81896108,31.5817496 C3.76856028,31.6320211 4.71815947,31.6767068 5.66775866,31.7297712 C5.79675046,31.7381498 5.89555269,31.7102212 5.9888659,31.6208496 C6.25508302,31.3666992 6.52953365,31.1181346 6.79575076,30.8639842 C6.83966286,30.8220913 6.87259694,30.7718198 6.94669861,30.6824482 C6.25508302,30.626591 5.61012403,30.5735266 4.96790954,30.5204622 C5.00907714,30.4422621 5.05298924,30.4087478 5.09690134,30.3808192 C5.61835755,30.0428829 5.98337689,29.5792679 6.15079177,28.9704242 C6.25233851,28.6045593 6.36211876,28.2359016 6.42798691,27.8616582 C6.69420403,26.3032415 6.94669861,24.7448249 7.20468221,23.1864082 C7.22938276,23.030008 7.25957233,22.8736078 7.2870174,22.7200004 C7.53676747,23.5383088 7.82768514,24.32031 8.13506985,25.0967254 C8.40128697,25.769805 8.66475958,26.4428846 8.91450965,27.1243428 C9.30697406,28.1968016 9.65827087,29.2832246 9.8448973,30.4171264 C9.87508687,30.5986623 9.89978743,30.7801983 9.929977,30.9924558 C10.0013342,30.9393914 10.0479908,30.9114628 10.0836694,30.8751556 C10.2702958,30.6824482 10.4431997,30.4785693 10.6380596,30.2942405 C11.014057,29.9395471 11.2610626,29.517825 11.464156,29.0374528 C12.4027772,26.8031637 13.6378051,24.7392392 15.0018247,22.7507219 C15.0155472,22.7311718 15.0429923,22.7227932 15.0951379,22.6892789 C15.0869044,22.8261291 15.0814154,22.9350507 15.0731819,23.0411794 C15.0018247,23.9879595 14.9249785,24.9319466 14.8591104,25.8787266 C14.8261763,26.3898202 14.8014757,26.9009139 14.7959867,27.4120075 C14.7795197,28.7972668 14.7740307,30.1853189 14.7685417,31.5705781 C14.7685417,31.6655354 14.7932422,31.7632855 14.8097093,31.875 C15.0292698,31.8303142 15.2186407,31.7967999 15.4052671,31.754907 C16.1737289,31.5901281 16.9421907,31.4281422 17.7106525,31.2521919 C17.8670893,31.2158847 18.0235262,31.1432703 18.1552625,31.0511059 C18.3226774,30.9338057 18.3144438,30.8192984 18.1964301,30.6601053 C17.8204327,30.7019982 17.4581579,30.7690269 17.095883,30.7801983 C16.6320615,30.7941626 16.3878004,30.5930766 16.3136987,30.1322545 C16.2505751,29.738461 16.206663,29.336289 16.212152,28.9397027 C16.2313635,27.7387723 16.2944872,26.5406348 16.3109542,25.3397044 C16.3383993,23.4656944 16.5250257,21.6084416 16.8433885,19.7623602 C16.857111,19.6869529 16.846133,19.6087528 16.846133,19.5026241 C16.7336082,19.5696527 16.6540175,19.6115457 16.5799158,19.6590243 C16.2313635,19.8796604 15.8883002,20.1142607 15.5315144,20.3209325 C15.3009759,20.4549898 15.144539,20.6365258 15.0182917,20.873919 C13.7201402,23.3456013 12.3698431,25.7837693 10.9317218,28.1716658 C10.8878097,28.2470731 10.8384086,28.3168946 10.780774,28.4062662 C10.7505844,28.3532018 10.7341174,28.3308589 10.7258838,28.308516 C10.352631,27.2304715 9.98212262,26.1496342 9.60886976,25.0715897 C9.279529,24.1248097 8.92823218,23.1864082 8.61810297,22.2340425 C8.38207542,21.5078985 8.22289406,20.7622046 8.24759461,19.988582 C8.25033912,19.9438962 8.23112758,19.8992104 8.22563856,19.8601103 C7.55049001,19.7344316 6.60637983,19.7428102 5.78577243,19.8964175 C4.56995613,20.1254322 3.52429921,20.6840044 2.68448027,21.6140273 C1.69096898,22.7172075 1.36162822,24.0298524 1.55099916,25.4905189 C1.57844422,25.7027763 1.58942225,25.931791 1.7403701,26.1496342 C2.21242518,25.6916049 2.67075774,25.2447471 3.1290903,24.7950964 C2.90678529,24.3482386 2.75583744,23.9097593 2.73113688,23.4377658 C2.68996929,22.5691859 2.97539795,21.8653848 3.74934873,21.4269056 C3.95518671,21.3096054 4.18023623,21.2202338 4.40528575,21.1504123 C4.89655238,20.9940121 5.40703056,20.9409477 5.92025324,20.9241905 C6.14530276,20.9186048 6.37035228,20.9241905 6.61461335,20.9241905 C6.59265729,21.0805908 6.58167927,21.2006838 6.56246772,21.317984 C6.22214894,23.3428085 5.88731917,25.3704258 5.53327785,27.3924575 C5.41800858,28.0515728 5.25882722,28.7023095 5.09415684,29.3502533 C4.9926101,29.7552182 4.74286003,30.081983 4.44370883,30.3668549 C4.32569506,30.4785693 4.20219228,30.5176694 4.04575542,30.4981193 C3.84540645,30.4729836 3.64505749,30.4534336 3.44470853,30.445055 C3.37060686,30.4422621 3.27180463,30.4618121 3.21965901,30.5092908 C2.89031825,30.8248841 2.563722,31.148856 2.23438124,31.4700351 Z M26.9102377,23.1445153 C26.4244601,23.312087 26.0018061,23.4517301 25.5818966,23.6109232 C25.5270065,23.6332661 25.4803499,23.7366019 25.4666274,23.8064235 C25.4199707,24.0633667 25.3925257,24.3231028 25.3513581,24.5772532 C25.2525559,25.1833041 25.1949212,25.7977336 25.0412289,26.3870274 C24.7146326,27.6410221 24.017528,28.6827594 23.1475195,29.6099894 C22.9471705,29.8222469 22.711143,30.0065757 22.47786,30.1853189 C22.2555549,30.3556834 21.9975713,30.4534336 21.7203762,30.4925336 C21.410247,30.5344265 21.2291096,30.383612 21.2016645,30.0680187 C21.1961755,29.9954043 21.193431,29.919997 21.19892,29.8445898 C21.2373431,29.2692603 21.2620437,28.6939309 21.3196783,28.1213943 C21.4129915,27.1774072 21.5282608,26.2362129 21.627063,25.2922257 C21.6682306,24.8872608 21.7121427,24.4767102 21.7066537,24.0689524 C21.6929311,23.2897441 21.1851975,22.9741508 20.5018154,23.3372228 C19.7580542,23.7310162 19.1652408,24.3091385 18.7069083,25.0213182 C18.6190841,25.1553755 18.580661,25.3285329 18.5477269,25.487726 C18.5202818,25.6217834 18.5641939,25.7418764 18.7233753,25.8228694 C18.7700319,25.7446693 18.813944,25.6636763 18.8633451,25.5910619 C19.0664386,25.2950186 19.2558095,24.985011 19.4863481,24.7113106 C19.6043618,24.5716675 19.7854992,24.4627459 19.9584031,24.3957172 C20.1889417,24.3063457 20.326167,24.4152672 20.3618456,24.6638319 C20.3728236,24.7364463 20.3728236,24.8118536 20.3700791,24.8872608 C20.3536121,25.1469969 20.3398895,25.406733 20.315189,25.6664691 C20.2163867,26.6551421 20.1120955,27.6466079 20.0132933,28.6352808 C19.9501696,29.255296 19.8788125,29.8753112 19.8431339,30.4953265 C19.8294113,30.7494769 19.8733234,31.0175916 19.9474251,31.2633634 C20.0434828,31.5873353 20.2904884,31.7716641 20.6308072,31.7632855 C20.8366452,31.7576998 21.0616947,31.7409427 21.2428321,31.6571568 C21.5831509,31.5007566 21.9179807,31.3220134 22.2171319,31.1013774 C23.166731,30.4031621 23.9434263,29.5262036 24.6213194,28.5570807 C24.6707205,28.4844663 24.7283552,28.4146447 24.8106903,28.3057232 C24.8106903,28.4118519 24.8161794,28.4649163 24.8106903,28.5151878 C24.7695227,28.8363668 24.7146326,29.1575459 24.6816985,29.4815178 C24.6268084,29.9981972 24.5527067,30.5148765 24.5417287,31.0343487 C24.5307507,31.6096782 24.8710695,31.8638286 25.4227153,31.7465284 C25.5626851,31.7158069 25.7081439,31.6683283 25.8316467,31.592921 C26.0429737,31.4644494 26.2515562,31.3275992 26.4354381,31.1628203 C26.8965152,30.746684 27.2725125,30.2523475 27.6073423,29.7272896 C27.6622324,29.6435038 27.708889,29.5485465 27.7418231,29.4535892 C27.8269028,29.2189888 27.7775017,29.1212387 27.5140291,29.0123171 C27.459139,29.115653 27.4097378,29.2245745 27.3466142,29.3251176 C27.1572433,29.6211609 26.9815949,29.9283756 26.7647789,30.1992832 C26.6440206,30.3500977 26.4628832,30.4729836 26.2844902,30.5567694 C26.0127841,30.6852411 25.8837923,30.5930766 25.8783033,30.2914476 C25.8755588,30.1238759 25.8865368,29.9563042 25.9084929,29.7915254 C26.0429737,28.7497881 26.1774545,27.7080508 26.3256578,26.6691064 C26.4436716,25.831248 26.5754079,24.9961824 26.7098887,24.1611169 C26.7510563,23.8427307 26.830647,23.5271373 26.9102377,23.1445153 Z M45.5893478,23.5438945 C45.4466335,23.4992087 45.3368532,23.4517301 45.2243285,23.4293872 C43.7560176,23.1333439 42.3700419,23.3372228 41.145992,24.2365241 C39.156225,25.6943978 38.2230928,27.7024651 38.3191505,30.1964903 C38.332873,30.5204622 38.3877632,30.8444341 38.5304775,31.1432703 C38.7225929,31.5510281 39.0327222,31.7660784 39.4855657,31.7688713 C39.7956949,31.7716641 40.0811236,31.6850854 40.3555742,31.5538209 C40.7809727,31.3499421 41.1542256,31.0650702 41.5055224,30.7522697 C42.2355611,30.1043259 42.8393525,29.3502533 43.3717867,28.5319449 C43.4239323,28.4509519 43.4815669,28.369959 43.5611576,28.2526588 C43.5611576,28.3336518 43.5639021,28.3615804 43.5611576,28.3867161 C43.4788224,28.9843885 43.3855092,29.5820608 43.3114075,30.182526 C43.275729,30.4757764 43.2427949,30.7774055 43.2620064,31.0706559 C43.3004295,31.6376068 43.6133032,31.8582428 44.15946,31.7465284 C44.2143501,31.7353569 44.2664957,31.7185998 44.3186414,31.7018426 C44.609559,31.6040924 44.8620536,31.4365208 45.0898476,31.2326419 C45.5893478,30.7885769 45.9982792,30.263519 46.3468315,29.6909824 C46.3907436,29.6211609 46.4264222,29.5429607 46.4566118,29.4647606 C46.5471805,29.2301603 46.5060129,29.1435816 46.2370513,29.0011456 C46.1903947,29.0877243 46.1492271,29.1798888 46.0970815,29.2636746 C45.888499,29.5904394 45.6854055,29.9227899 45.4576115,30.2355904 C45.3258752,30.4171264 45.1365043,30.5400123 44.9141992,30.5930766 C44.7303173,30.6349695 44.6342596,30.5763195 44.6013255,30.3864049 C44.5848585,30.2970333 44.587603,30.1992832 44.5958365,30.1071187 C44.615048,29.8836898 44.6397486,29.6630538 44.6699382,29.4424177 C44.7879519,28.5850093 44.9032212,27.7303937 45.0294685,26.8729853 C45.1529713,26.0267483 45.2792186,25.1805113 45.4136994,24.3370671 C45.4576115,24.0829167 45.5262242,23.8315592 45.5893478,23.5438945 Z M31.9546403,28.9704242 C31.9162172,29.05421 31.8777942,29.135203 31.8421156,29.2189888 C31.6774452,29.6295394 31.4414176,29.9926114 31.1285439,30.2998262 C31.0379752,30.3891977 30.9364285,30.4729836 30.8239037,30.5344265 C30.5796427,30.6712767 30.4396728,30.6098338 30.3902717,30.3333405 C30.3545931,30.1350474 30.3463596,29.9255828 30.3573376,29.7217039 C30.3847827,29.2580889 30.4286948,28.7944739 30.4753514,28.3336518 C30.5686646,27.4175932 30.6702114,26.5043276 30.7690136,25.588269 C30.8897719,24.4711245 31.0050411,23.3511871 31.1395219,22.2340425 C31.2328352,21.4604199 31.3371264,20.6867973 31.4716072,19.9187604 C31.5621759,19.3964953 31.7323353,18.8937803 32.0040414,18.4329582 C32.3745498,17.8045644 32.9234511,17.469421 33.6342782,17.3940137 C34.0185091,17.3521208 34.3999955,17.368878 34.7759928,17.4638353 C34.8802841,17.488971 34.9626193,17.4973496 35.047699,17.407978 C35.3989958,17.0309417 35.7585261,16.6594912 36.1125674,16.2852478 C36.1208009,16.2740763 36.1180564,16.2517334 36.1208009,16.2182191 C36.0549328,16.1986691 35.9863201,16.1707404 35.9177075,16.1623619 C35.3770397,16.098126 34.841861,16.1120904 34.3121713,16.240562 C33.3653166,16.4751623 32.5968548,17.0085989 31.9381733,17.7179856 C30.8733048,18.8686445 30.2420684,20.2427323 29.9676177,21.7871847 C29.8523485,22.4351285 29.7947138,23.0942438 29.7178677,23.7505662 C29.6108319,24.6833819 29.5147742,25.6161976 29.410483,26.5490133 C29.3089362,27.462279 29.193667,28.3755447 29.1058428,29.2916032 C29.0564416,29.8082826 29.0399746,30.3305477 29.0235076,30.8500199 C29.0180186,30.9952487 29.0509526,31.1460632 29.0948647,31.2884991 C29.1964115,31.6152639 29.415972,31.7660784 29.7535462,31.7660784 C30.0307414,31.7660784 30.2722579,31.6571568 30.494563,31.5091352 C31.0763983,31.1237203 31.5704094,30.6405553 31.9464068,30.0484687 C32.0671651,29.8585541 32.1467558,29.6323323 32.2071349,29.4116963 C32.2730031,29.2022317 32.1989014,29.1016886 31.9546403,28.9704242 Z M33.4229512,25.8284551 C33.4750968,25.7418764 33.524498,25.6552977 33.5821326,25.5743047 C33.7715035,25.3006043 33.9444074,25.0157324 34.1557344,24.7615821 C34.2764927,24.6163533 34.4439076,24.4990531 34.614067,24.4180601 C34.8967511,24.2840028 35.0614215,24.3929244 35.064166,24.7113106 C35.0669105,24.9598752 35.0367209,25.2112327 35.0037869,25.4597974 C34.7787373,27.1075856 34.5454543,28.7553738 34.3258938,30.4059549 C34.2929597,30.6628982 34.2874707,30.92822 34.3121713,31.1851632 C34.3505944,31.5873353 34.5866219,31.7912142 34.9763418,31.7604927 C35.1794353,31.7437355 35.3935068,31.6878783 35.5773887,31.5957139 C35.7969492,31.4867923 36.0027872,31.3359778 36.1839246,31.1711989 C36.6532352,30.7494769 37.0347216,30.2495547 37.3722958,29.7161182 C37.4216969,29.637918 37.465609,29.5541322 37.4957986,29.4675535 C37.5863673,29.2301603 37.5479442,29.1435816 37.2789826,28.9955599 C37.2240925,29.0988958 37.1692024,29.2050245 37.1143122,29.3083604 C36.9249413,29.6714324 36.7300814,30.0317115 36.4199521,30.3054119 C36.2799823,30.4282978 36.1043339,30.5232551 35.9286855,30.5902838 C35.7695041,30.6517267 35.6569794,30.5679409 35.6460013,30.3919906 C35.6322788,30.1881117 35.6350233,29.98144 35.6597239,29.780354 C35.7502926,29.0877243 35.8545838,28.4006804 35.947897,27.7080508 C36.1015894,26.5936991 36.2552818,25.4793474 36.3925071,24.3622029 C36.4199521,24.1359811 36.3979961,23.895795 36.348595,23.6723661 C36.2690043,23.312087 35.9808311,23.1333439 35.6240453,23.2031654 C35.4648639,23.2338869 35.3029381,23.2897441 35.1629682,23.3707371 C34.4795862,23.7673234 33.9032398,24.2951742 33.4503963,24.9514966 C33.3488495,25.0995183 33.2967039,25.28664 33.2500473,25.4625903 C33.2116242,25.6078191 33.2637699,25.7418764 33.4229512,25.8284551 Z M37.893752,19.1982022 C37.8333729,19.2261308 37.8059278,19.2317165 37.7867163,19.2484737 C37.3887629,19.6701958 36.9276858,19.9941677 36.4007406,20.2231823 C36.2882158,20.2734538 36.2388147,20.3600325 36.1976471,20.4661612 C36.0110207,20.9381548 35.8189052,21.4101484 35.6322788,21.8849348 C35.6103228,21.9379992 35.6075783,21.9994421 35.5911112,22.0748494 C35.6432568,22.0580922 35.6707019,22.0552994 35.692658,22.0413351 C36.2443037,21.6950203 36.782227,21.3207768 37.232326,20.8431975 C37.443653,20.6169758 37.6220459,20.3544468 37.7922053,20.0947107 C37.9129636,19.907589 37.9705982,19.6869529 37.9541312,19.4579383 C37.9513867,19.3769453 37.9184526,19.2931595 37.893752,19.1982022 Z" id="Shape" fill="#000000" fill-rule="nonzero"></path>
        </g>
    </g>
</svg>