<?xml version="1.0" encoding="UTF-8"?>
<svg width="48px" height="48px" viewBox="0 0 48 48" version="1.1" xmlns="http://www.w3.org/2000/svg" xmlns:xlink="http://www.w3.org/1999/xlink">
    <title>infbil</title>
    <g id="Page-1" stroke="none" stroke-width="1" fill="none" fill-rule="evenodd">
        <g id="infbil" fill-rule="nonzero">
            <rect id="Rectangle" x="0" y="0" width="48" height="48"></rect>
            <path d="M5.51361921,1.77204274 C5.82064578,1.95346753 8.33733329,4.3613002 11.1061548,7.12174817 C13.8740459,9.88312659 16.2065174,12.1411674 16.2893215,12.1411674 C16.8447605,12.1411674 16.9610585,11.3987214 16.8670898,8.44940549 C16.7321841,4.20685651 16.9712927,3.43091662 18.0719365,4.54365537 C18.3677984,4.8413781 18.7334392,5.20422769 18.8841613,5.34843711 C19.0358138,5.49264658 19.9438682,6.39977055 20.9021632,7.36364792 L22.6447717,9.1174209 L22.6468502,15.6580173 C22.6484931,21.3994142 22.6187209,22.228386 22.4047327,22.4423741 C22.1916749,22.655432 21.3747981,22.6861346 15.7757498,22.685262 C8.98860177,22.6842739 8.52434037,22.6405459 7.88423652,21.9492709 C7.66652675,21.7148142 6.74823821,20.8011776 5.84297501,19.9182436 C4.67627401,18.7813149 4.19619611,18.2072682 4.19619611,17.9504823 C4.19619611,17.7504499 4.1171135,17.5383225 4.02128399,17.4787779 C3.53004149,17.1754729 4.63626752,17.034985 7.76235627,17.0033519 C11.1294144,16.9698581 11.9490822,16.8526298 11.9490822,16.4004634 C11.9490822,16.2655577 9.60637649,13.830744 6.74265591,10.9884223 C2.32891633,6.60724607 1.51576107,5.73175513 1.40411505,5.23679109 L1.2720006,4.65251021 L2.91226679,3.04759859 C4.70604629,1.29289521 4.70325517,1.29382558 5.51361921,1.77204274 M43.479781,1.97486634 C46.6170341,4.25430605 46.9249911,5.265633 45.0046795,6.97660832 C44.3506199,7.55995884 42.7940881,9.09602205 41.5464439,10.3920464 C40.2987996,11.6871403 38.5022289,13.4902236 37.5541681,14.3992083 C34.9918918,16.8544906 35.1165632,17.0052127 39.6754426,16.9735797 C43.3886033,16.9475289 43.6323639,17.0098646 43.3253373,17.9011721 C42.9997028,18.8436506 39.2707258,22.4591211 38.490134,22.5884444 C36.787532,22.8703506 25.4433654,22.6889258 25.1298261,22.3753866 C24.8302426,22.075803 24.8200084,21.8590237 24.8200084,15.7175619 L24.8200084,9.36955487 L25.40615,8.70060908 C26.3849135,7.58507919 29.9417698,4.07846355 30.0934224,4.07846355 C30.5279115,4.07846355 30.6358359,4.85626424 30.6730513,8.25960728 C30.7288743,13.3925333 30.1622707,13.4958059 36.4460812,7.20362193 C39.2697953,4.37618629 41.8385844,1.93020793 42.1549149,1.76739082 C42.7568731,1.45850349 42.7736199,1.46129461 43.479781,1.97486634 M22.3730996,25.3256328 C22.6419805,25.6577798 22.6559363,26.0671485 22.6149994,32.363054 L22.5712713,39.0478598 L20.0350458,41.5626866 C16.6940384,44.8757825 16.7182284,44.8888077 16.8549948,39.8200782 C16.9303558,37.0466048 16.8791847,36.4288302 16.5368036,35.9775941 C16.2586189,35.611023 16.4884236,35.4054082 10.4790762,41.4017303 C7.43020934,44.4431539 5.3182387,46.434175 5.0735478,46.4955802 C4.62417256,46.6090868 2.36054936,44.5101419 1.53622955,43.2169086 L1.125,42.5702919 L2.19680188,41.427781 C2.78666506,40.7997721 3.32070517,40.2313078 3.38397127,40.1652505 C3.44723738,40.0991933 5.32847292,38.2328439 7.5641846,36.018531 C13.2562712,30.381337 13.221847,30.6539395 8.22289617,30.708832 C3.68448518,30.7590727 3.26302141,30.5032173 5.10052891,28.8108496 C5.56385993,28.3847339 6.02067825,27.9474537 6.1155774,27.8385988 C6.71660519,27.1594188 8.28709259,25.7015077 8.66948022,25.4689119 C8.91975344,25.316329 9.15979235,25.1339738 9.2044508,25.0632646 C9.24817883,24.9925555 12.1649312,24.9432452 15.6855026,24.9534794 L22.0874719,24.9739478 L22.3730996,25.3256328 Z M28.5815491,24.9758086 L25.4433654,25.0176759 L25.1698326,25.4344877 C24.8907175,25.8606034 24.6506785,37.4959801 24.9009517,38.4933513 C24.9921293,38.858992 26.5514522,40.5643851 28.1507815,42.0492772 C28.5759668,42.44376 29.1704819,43.0280406 29.4719261,43.3480929 C30.4897658,44.4254768 30.6181587,44.0235511 30.6274626,39.7372741 C30.6339752,36.826104 30.6693298,36.3441652 30.9056472,35.982246 C31.2359333,35.4770478 30.9298372,35.2453822 34.3806298,38.6143011 C35.7594582,39.9605661 36.9801214,41.1514571 37.0945586,41.2621727 C37.2089958,41.371958 38.3998867,42.5712223 39.7414998,43.9249305 C42.5354415,46.7458535 42.6089421,46.7905119 43.3123121,46.0722559 C43.5904965,45.7894191 44.2529295,45.1511758 44.7851092,44.6552818 C45.3182186,44.1584569 45.7536383,43.6932647 45.7536383,43.620695 C45.7536383,43.5481253 45.922968,43.2857568 46.1313743,43.0392051 L46.5091097,42.5898303 L45.7824804,41.8706436 C39.2381623,35.3905221 36.3009415,32.4002694 35.8878511,31.7955201 L35.3845136,31.0586563 L35.7231732,30.8651365 C35.9585603,30.7311613 36.9140642,30.669756 38.8529835,30.6660344 C42.5614925,30.657661 42.8210695,30.6362621 43.2695144,30.2920202 L43.6537625,29.9961583 L42.058155,28.4340442 C41.1817336,27.5753002 40.4095152,26.8728607 40.343458,26.8728607 C40.2774007,26.8728607 40.1248179,26.686784 40.0029376,26.45884 C39.8819877,26.2318264 39.4307517,25.8187361 38.9990538,25.5424122 L38.2147404,25.040005 L34.9677018,24.9869732 C33.1813654,24.9581313 30.3074106,24.9534794 28.5815491,24.9758086" id="Combined-Shape" fill="#444492"></path>
        </g>
    </g>
</svg>