<?xml version="1.0" encoding="UTF-8"?>
<svg width="48px" height="48px" viewBox="0 0 48 48" version="1.1" xmlns="http://www.w3.org/2000/svg" xmlns:xlink="http://www.w3.org/1999/xlink">
    <title>ircb</title>
    <g id="Page-1" stroke="none" stroke-width="1" fill="none" fill-rule="evenodd">
        <g id="ircb" fill-rule="nonzero">
            <rect id="Rectangle" x="0" y="0" width="48" height="48"></rect>
            <path d="M23.5250017,1.55650119 C22.8848304,1.74069394 22.8157113,1.79883559 20.6968903,3.93635517 C19.6702858,4.97209051 18.0921996,6.56017153 17.1900321,7.46555327 C16.2878645,8.37093505 14.9431541,9.72656575 14.2016233,10.4778721 L12.8536322,11.8440846 L12.8536322,14.4612728 C12.8536322,15.90086 12.8635872,17.0785773 12.8756915,17.0785773 C12.8879089,17.0785773 15.385697,14.531973 18.4262562,11.419418 L23.9546484,5.76037498 L25.8609086,5.75502595 C26.9093461,5.75200258 28.0428532,5.73897888 28.3797378,5.72595513 L28.9923067,5.70223334 L27.0923815,3.80728074 C26.0474509,2.76503353 25.1210747,1.86302397 25.0338557,1.80267294 C24.640522,1.53126772 23.9848526,1.42428709 23.5250017,1.55650119 M7.48519797,7.90184822 C7.47309366,8.2269763 7.4538625,11.7983852 7.44221069,15.8381833 L7.4210564,23.1834504 L9.21204282,25.0229359 C10.1970175,26.0346006 11.0125317,26.852421 11.0242966,26.8405895 C11.0360616,26.8282341 11.0617408,23.2455457 11.0811982,18.878759 L11.1167193,10.9390517 L11.2026939,10.8540486 C12.2264703,9.84122105 14.6857959,7.37008469 14.6950099,7.3449675 C14.702199,7.32543192 13.168797,7.3107802 11.10733,7.3107802 L7.50703098,7.3107802 L7.48519797,7.90184822 Z M23.0984094,9.21980312 L21.26749,11.0512651 L29.1364273,11.0610329 L37.0053646,11.0708006 L37.9670356,12.0494409 C38.4960056,12.5877163 39.306316,13.4116997 39.7677505,13.8804377 L40.6067948,14.7329106 L40.6067948,11.0605677 L40.6067948,7.38834118 L32.7680618,7.38834118 L24.9292156,7.38834118 L23.0984094,9.21980312 Z M31.2940501,12.7730719 L31.0501538,12.7955145 L36.64857,18.3760663 L42.2470996,23.9566181 L42.2699506,26.3220529 C42.2825072,27.6230305 42.2951772,28.7747003 42.2982319,28.8812157 L42.3036617,29.0748274 L44.228135,27.0981277 C46.5333852,24.7303671 46.594246,24.640015 46.4571392,23.7866119 C46.3303268,22.9975134 46.2392615,22.879137 44.1056213,20.7292914 C43.1179314,19.7340227 40.9394937,17.5287099 39.2647994,15.8285318 L36.2198283,12.7373729 L33.878944,12.7440011 C32.5913614,12.7477221 31.4282157,12.7607458 31.2940501,12.7730719 M22.8085845,14.4210387 C16.1841294,15.2885122 12.3727402,22.2360904 15.2501739,28.1988654 C18.1265895,34.1596635 26.0943975,35.5225037 30.7974337,30.8581481 C35.811449,25.8856417 33.9801903,17.4318459 27.3523415,14.9541977 C26.0406634,14.463831 24.1634761,14.2435905 22.8085845,14.4210387 M3.72494102,20.982789 C2.03531411,22.7257594 1.76641727,23.0191421 1.67908519,23.2138004 C1.41245084,23.808822 1.44254195,24.3752379 1.77614597,25.0399133 C1.97400065,25.4342299 0.988460377,24.4193093 11.0468084,34.5878186 L11.7475013,35.2963328 L14.3399745,35.2963328 C15.9716817,35.2963328 16.9276965,35.2826113 16.9198748,35.2592384 C16.9128772,35.2388888 14.3916724,32.7176343 11.3169496,29.6564765 L5.72679142,24.0906927 L5.72136144,23.5402076 C5.71830708,23.2374059 5.70563713,22.0865501 5.69308033,20.982789 L5.67022916,18.9759718 L3.72494102,20.982789 Z M36.6478913,21.1161659 C36.6481176,21.2086112 36.6903129,24.4325656 36.7416714,28.2804962 C36.7930299,32.1285431 36.8353385,35.6423918 36.8355648,36.0891523 L36.8360173,36.9013911 L35.075122,38.7140152 C34.1066635,39.7110282 33.3219191,40.5331509 33.3311953,40.5409422 C33.3583452,40.5639662 40.5013626,40.4565202 40.5244403,40.4327986 C40.5863194,40.3691916 40.3390292,24.5783849 40.2751141,24.5172199 C40.2398189,24.4833814 39.4238524,23.6723054 38.4620682,22.7148287 C36.4991326,20.7609205 36.6473257,20.8915066 36.6478913,21.1161659 M29.6148306,36.5582391 L24.1095158,42.2325152 L21.6112752,42.2584462 C20.2373787,42.2727492 19.1131479,42.2965873 19.1131479,42.3113553 C19.1131479,42.4014749 22.9772531,46.1575418 23.1761259,46.2606851 C23.8178809,46.593604 24.4022819,46.5797662 25.0898523,46.2154508 C25.423117,46.0388163 25.1506002,46.309175 32.2921472,39.0690281 L35.1957126,36.1254327 L35.2083826,35.8755398 C35.2290844,35.4691297 35.1699202,30.8772185 35.1440148,30.8807031 C35.1310054,30.8824513 32.642833,33.4373117 29.6148306,36.5582391 M7.25974093,33.5988291 C7.24616598,33.9209339 7.23507978,35.5569236 7.23507978,37.2341939 L7.23507978,40.2837234 L9.56035304,40.3095383 C10.839225,40.3236086 14.3730068,40.3352369 17.4132266,40.3352369 L22.9409401,40.3352369 L24.7645064,38.5231943 L26.5879595,36.7110354 L26.1971145,36.6867322 C25.9821781,36.6733596 22.6910482,36.6603358 18.8835052,36.6576613 C15.0758491,36.6551031 11.7024778,36.6414979 11.3870868,36.6274277 L10.8135458,36.6018454 L9.04891737,34.8074778 L7.28440207,33.0132265 L7.25974093,33.5988291 Z" id="Shape" fill="#104E7E"></path>
        </g>
    </g>
</svg>