<?xml version="1.0" encoding="UTF-8"?>
<svg width="48px" height="48px" viewBox="0 0 48 48" version="1.1" xmlns="http://www.w3.org/2000/svg" xmlns:xlink="http://www.w3.org/1999/xlink">
    <title>krsmbs</title>
    <g id="Page-1" stroke="none" stroke-width="1" fill="none" fill-rule="evenodd">
        <g id="krsmbs">
            <rect id="Rectangle" x="0" y="0" width="48" height="48"></rect>
            <path d="M15.941444,17.1147482 C17.7735094,17.1147482 19.5929976,17.1147482 21.4334477,17.1147482 C22.1398619,19.8523653 22.8462762,22.5857901 23.5505942,25.3171186 C23.5673637,25.3171186 23.5862293,25.3171186 23.6029988,25.3171186 C24.3052207,22.5857901 25.0074425,19.8523653 25.7096644,17.1147482 C27.5417297,17.1147482 29.3570256,17.1147482 31.1702253,17.1147482 C31.1786101,17.1231329 31.1828024,17.1273253 31.1869948,17.1336139 C31.1911872,17.1399024 31.1995719,17.1440948 31.1995719,17.1503833 C31.2058605,17.2048841 31.212149,17.2614811 31.212149,17.3159819 C31.212149,21.7515086 31.2100528,26.1891314 31.2079566,30.6246581 C31.2079566,30.6435238 31.1953795,30.6623894 31.1828024,30.6938322 C30.0634398,30.6938322 28.9419811,30.6938322 27.7974643,30.6938322 C27.7974643,27.2812436 27.7974643,23.8770398 27.7974643,20.4707398 C27.782791,20.4686436 27.7702139,20.4644512 27.7555406,20.4623551 C27.7345787,20.5168559 27.7115207,20.5713567 27.6968474,20.6279536 C26.9820484,23.4053983 26.2693457,26.1828429 25.5566429,28.9623837 C25.4266794,29.4696604 25.296716,29.9769371 25.1667525,30.4821176 C25.1478869,30.555484 25.1227327,30.6267543 25.0996746,30.6980246 C24.0662556,30.6980246 23.0475099,30.6980246 22.0119947,30.6980246 C21.1420781,27.2959169 20.2721614,23.9000978 19.4022448,20.5021826 C19.3896677,20.5021826 19.3791868,20.5021826 19.3666097,20.5000864 C19.358225,20.5420101 19.347744,20.5839338 19.3435517,20.6258575 C19.3393593,20.688743 19.3414555,20.7516285 19.3414555,20.8145141 C19.3414555,24.0132918 19.3414555,27.2141657 19.3414555,30.4129435 C19.3414555,30.5009832 19.3414555,30.5911192 19.3414555,30.691736 C18.1906501,30.691736 17.0712875,30.691736 15.9519249,30.691736 C15.9079051,30.5366184 15.8932318,17.4145026 15.941444,17.1147482 Z M33.9413814,30.7064093 C33.9413814,26.1639772 33.9413814,21.6487955 33.9413814,17.1189406 C34.0126517,17.112652 34.073441,17.1042673 34.1342304,17.1042673 C36.7544612,17.1042673 39.3746919,17.0979787 41.9949227,17.1063635 C42.7264912,17.1084596 43.4475787,17.225846 44.0994921,17.5821974 C45.2293356,18.1963795 45.8372291,19.1417587 45.8602872,20.4434894 C45.8749605,21.2232701 45.6506687,21.915011 45.1454882,22.5145198 C44.8268682,22.891833 44.4202083,23.141279 43.9716248,23.334128 C43.9003546,23.3634746 43.8290843,23.3928212 43.7599102,23.4242639 C43.7494293,23.4284563 43.7431407,23.4431296 43.7158903,23.4787647 C43.7934491,23.5039189 43.860527,23.5290732 43.9297011,23.550035 C44.3070144,23.6569404 44.6696543,23.8015772 45.00714,24.0028109 C45.8099787,24.4786448 46.2732355,25.1871552 46.4325456,26.0968993 C46.5373548,26.6943119 46.5247777,27.2938207 46.3612753,27.8828486 C46.0950599,28.8366126 45.52909,29.5618925 44.678039,30.0628806 C44.3049182,30.28298 43.8898736,30.3856931 43.4685405,30.452771 C42.4393139,30.6162734 41.407991,30.7168902 40.3619949,30.7085055 C38.307734,30.691736 36.253473,30.7043131 34.1992121,30.7043131 C34.1174609,30.7064093 34.0357097,30.7064093 33.9413814,30.7064093 Z M38.1882514,25.0152681 C38.1358468,25.2395598 38.137943,27.6082484 38.1861553,27.7801356 C38.2238866,27.7843279 38.2637141,27.7948089 38.3056378,27.7948089 C39.0581681,27.7948089 39.8127945,27.8052898 40.5653248,27.7864241 C40.8483097,27.7780394 41.1375832,27.7298271 41.4058948,27.6459798 C41.9970189,27.4636117 42.3219275,26.9542388 42.3009657,26.3107102 C42.2821,25.7363556 41.9278448,25.3024454 41.3409131,25.1368468 C41.0306778,25.048807 40.7099615,25.0173642 40.3892453,25.0173642 C39.726851,25.0131719 39.0644566,25.0173642 38.4020623,25.0173642 C38.3328882,25.0152681 38.2637141,25.0152681 38.1882514,25.0152681 Z M38.1882514,19.8460768 C38.1295583,20.0724647 38.137943,22.2734586 38.1924438,22.4348648 C38.2301751,22.4390572 38.2700026,22.4495381 38.3119263,22.4495381 C38.898858,22.4495381 39.4836935,22.460019 40.0706252,22.4453457 C40.3326483,22.4390572 40.5988638,22.4055182 40.8566945,22.3510174 C41.3828368,22.2399196 41.6658217,21.8898568 41.7475729,21.3679068 C41.7643424,21.2651938 41.7622462,21.1582883 41.76015,21.0555753 C41.7475729,20.4937978 41.4352414,20.0787533 40.8881372,19.9487898 C40.6198256,19.8859043 40.3368407,19.8607501 40.0601443,19.8523653 C39.5025592,19.837692 38.9449741,19.848173 38.3852928,19.848173 C38.3182149,19.8460768 38.2490408,19.8460768 38.1882514,19.8460768 Z M1.50082812,26.218478 C2.82142444,26.1367268 4.13363601,26.0549756 5.45632851,25.9732244 C5.49405983,26.1534963 5.52131023,26.3107102 5.56323393,26.4637316 C5.61354236,26.6440035 5.66385079,26.8284678 5.73931344,27.0003549 C6.06422205,27.7319233 6.64276901,28.1343908 7.42464588,28.2538733 C7.85017135,28.318855 8.27360065,28.295797 8.6886452,28.1700259 C8.91293696,28.102948 9.1120745,27.9918502 9.28815401,27.8346364 C9.95054835,27.2456085 9.9023361,26.3295758 9.16867148,25.8306839 C8.9758225,25.6986242 8.75572311,25.5896226 8.53143136,25.5204486 C7.97175006,25.3485614 7.40578021,25.1997323 6.83771418,25.0571918 C6.01810599,24.8517657 5.20688254,24.6148968 4.43758278,24.2585454 C3.9994802,24.0552155 3.58233946,23.8141543 3.21341096,23.4997266 C2.35187908,22.766062 1.94941163,21.8290674 2.00600862,20.7034163 C2.07099034,19.4582826 2.65372967,18.5003262 3.68295632,17.8106815 C4.32019644,17.3830598 5.03289922,17.1482872 5.7854295,17.0225161 C6.74128969,16.863206 7.70343843,16.8485328 8.66768336,16.9051297 C9.31750059,16.9449572 9.95474072,17.0581512 10.5773076,17.2614811 C12.0069055,17.7289303 12.8831106,18.7057523 13.2373658,20.1584083 C13.2876743,20.3617382 13.319117,20.5692605 13.3589446,20.7746866 C13.3652331,20.8082255 13.3589446,20.8438607 13.3589446,20.8773996 C13.1954422,20.9360928 9.91491321,21.1519998 9.44536785,21.1331341 C9.43069456,21.0870181 9.41392509,21.0367096 9.39715561,20.9864012 C9.33427007,20.7935522 9.28605782,20.5965109 9.20640281,20.4120466 C8.99049579,19.9194432 8.60899019,19.6113041 8.0891364,19.4813406 C7.62168723,19.3639543 7.1479495,19.3450886 6.68259652,19.4834368 C6.27384052,19.6050155 5.98875941,19.8586539 5.89023873,20.2925641 C5.83783411,20.529433 5.8944311,20.7348591 6.04326021,20.9193233 C6.16903128,21.0765371 6.32624513,21.1960197 6.51490175,21.2547128 C6.90688827,21.3741954 7.30306717,21.4957741 7.70134225,21.5880062 C8.7703964,21.8332598 9.83525819,22.084802 10.8644848,22.4704999 C11.4702822,22.698984 12.0383482,22.9945461 12.535144,23.4116868 C13.2583277,24.0195804 13.6628913,24.8014572 13.7886624,25.7321632 C14.0485893,27.6585569 12.9858237,29.6541246 10.8602925,30.4611557 C10.2628799,30.6875437 9.64240921,30.8175071 9.00726527,30.8782965 C8.13525246,30.96424 7.26323966,30.9537591 6.39122685,30.8741041 C5.77075621,30.8175071 5.16286266,30.7022169 4.56754623,30.5135603 C3.62216696,30.2138059 2.89269471,29.6436437 2.35397527,28.8156508 C1.86346806,28.0631205 1.59306025,27.2351276 1.50711668,26.3442491 C1.49663575,26.3107102 1.50082812,26.275075 1.50082812,26.218478 Z" id="Combined-Shape" fill="#000000" fill-rule="nonzero"></path>
        </g>
    </g>
</svg>