<?xml version="1.0" encoding="UTF-8"?>
<svg width="48px" height="48px" viewBox="0 0 48 48" version="1.1" xmlns="http://www.w3.org/2000/svg" xmlns:xlink="http://www.w3.org/1999/xlink">
    <title>kz-nbkz</title>
    <g id="Page-1" stroke="none" stroke-width="1" fill="none" fill-rule="evenodd">
        <g id="kz-nbkz" fill-rule="nonzero">
            <rect id="Rectangle" x="0" y="0" width="48" height="48"></rect>
            <path d="M9.49145884,7.79869148 L9.49145884,19.0852678 L3.60856668,24.7659839 L3.44895657,24.9215175 L9.54774236,30.7527767 L9.54774236,38.8238848 L18.0129579,38.8238848 L23.8437667,44.4646782 L24.0033768,44.6193792 L29.9862353,38.8238848 L38.4531309,38.8238848 L38.4531309,30.7527767 L44.5577969,24.9231809 L44.3990274,24.7676473 L38.4531309,19.0869313 L38.453,7.799 L38.8804992,8.1578603 C40.9973699,9.97906395 42.7496407,12.1781118 44.0459132,14.6403013 L44.2990607,15.1362137 C45.71035,17.997365 46.5000066,21.201189 46.5000066,24.578013 C46.5000066,30.6147095 43.9739599,36.0949786 39.8971822,40.0673212 C35.8220845,44.0380005 30.1962486,46.500026 24.0000066,46.500026 C18.0527718,46.5089685 12.341349,44.1979092 8.10285095,40.0673212 C4.02691313,36.0949786 1.50000659,30.6147095 1.50000659,24.578013 C1.49742958,21.305814 2.25024549,18.0763126 3.70097253,15.1362137 C5.0979809,12.3016778 7.0469042,9.8006656 9.49145884,7.79869148 Z M26.3656062,28.7142064 C26.520176,28.7191967 26.7352296,28.7108794 26.9586838,28.7682688 C27.2064994,28.8414611 27.2493422,28.8389659 27.435834,28.9487542 C27.6315663,29.0427397 27.7903363,29.1525281 28.0087501,29.4469605 C28.1389584,29.6465757 28.2380847,29.8229025 28.3145295,30.1040272 C28.4186961,30.3685174 28.4153359,30.5814402 28.4136558,30.8908438 L28.432137,31.903891 C28.5371436,31.9155353 28.6043479,31.8905833 28.7404365,31.9404871 L28.8958463,32.1018427 L29.0151339,32.3014579 L29.3007519,32.5634529 C29.5443673,32.8321017 29.9442326,32.8562219 30.1945685,33.2413129 C30.2340509,33.361082 30.21977,33.4450867 30.1760873,33.6022837 L29.8299854,33.9108556 C29.7140581,33.955769 29.6896965,33.9857113 29.4973243,33.9108556 C29.3864374,33.8268508 29.412479,33.675476 29.2999118,33.5914712 C29.0411755,33.5066348 28.6824728,33.6255722 28.3153696,33.5848174 L28.4690993,33.8368316 C28.5993075,33.9224998 28.7295158,34.0065045 28.859724,34.0905093 L29.2486686,34.3799513 L29.7232986,34.7958163 C30.0257178,35.0237103 30.4600253,35.2649121 30.5532711,35.4520513 L30.6103948,35.5684935 C30.7616043,35.7373347 30.4608653,36.3336851 30.456665,36.4950407 C29.4116389,36.3303582 28.1414786,36.586531 27.0225278,36.7112905 C27.072931,36.5582522 27.120814,36.3528149 27.1880182,36.1839737 C27.3694697,36.0841661 27.9752531,35.9983939 28.436206,35.9849043 L28.469,35.984 L28.4384525,35.9631011 C28.1886391,35.826205 27.4623796,35.6409372 27.262783,35.4994599 C27.0216877,35.4212772 26.7755522,35.3439264 26.5697391,35.2649121 C26.551258,34.9763017 26.6344232,34.7409221 26.5184959,34.5695857 C26.3479652,34.3109177 26.1547529,34.122115 26.0657073,34.0023458 C25.8834158,33.8226921 25.3961849,33.4791877 25.1223276,33.1506543 C24.8652713,32.911116 24.7485039,32.581751 24.6947405,32.2814965 C24.7065013,32.0835446 24.7031411,31.8989006 24.7535442,31.7308911 C25.0114406,31.296728 25.0853652,31.3915453 25.2584162,31.2401705 C25.4264268,31.1744638 25.6305597,31.1378677 25.7977303,31.072161 C25.8103311,31.0979446 25.4533086,31.6227662 25.3995451,31.6768287 C25.3541822,32.0369678 25.4373475,32.0020351 25.4835505,32.1093283 C25.5331136,32.1151504 25.5977977,32.1883426 25.7548876,32.0985159 C25.9480999,31.6893047 26.2404383,31.3474636 26.3362044,30.8733775 C26.3362044,30.788541 26.3513254,30.7635891 26.2900015,30.6795844 C26.4202097,30.6080556 26.1337516,30.7511132 25.9707813,30.5623104 C25.8321725,30.5872623 25.6263595,30.6928921 25.5541149,30.6388296 C25.2953786,30.2845126 25.3399013,30.3643587 25.3961849,30.1339696 C25.5045517,29.9792677 25.7053245,29.9983975 26.093429,29.926037 C26.282441,29.5018546 26.7209487,29.5043499 27.0107671,29.6881622 C27.2090196,29.7571958 27.294705,30.0965416 27.3165464,30.3119597 L27.3484684,30.529873 L27.3375477,31.746694 C27.0771313,31.9463092 26.8561973,32.0694053 26.5588185,32.4095829 C26.5336169,32.5426596 26.4932943,32.7123325 26.4991747,32.9560295 L26.5772996,33.2321639 L26.851997,33.151486 C26.8494769,32.9527025 26.8183949,32.8878276 26.9528034,32.5110539 C27.1124135,32.3405493 27.0594901,32.3912848 27.2182602,32.2199484 C27.2493422,32.1617273 27.5517613,32.0203332 27.6189656,31.9845688 L27.8390595,31.9213573 L27.8020971,30.7103584 C27.7584144,30.3651905 27.7281725,29.9967341 27.4299536,29.7097872 C27.2955451,29.5251431 27.0838517,29.4087009 26.8368761,29.318874 C26.6403036,29.2539991 26.5764596,29.2539991 26.3983683,29.217403 C26.2370781,29.2539991 26.060667,29.2373645 25.808651,29.3471529 C25.5305934,29.4552778 25.4575087,29.6074844 25.2777374,29.7522054 C25.1618101,29.9268688 25.1214875,30.0865609 25.065204,30.2612242 C25.0030401,30.4733153 25.1013263,30.6978825 25.1072066,30.9099736 L25.1147671,30.9315986 C24.9257551,30.7319834 24.8518305,30.5681326 24.7787459,30.3302578 C24.7233023,30.1364647 24.7207822,30.1697339 24.7577445,29.7987823 C24.9181947,29.4469605 24.9795186,29.3779269 25.1853316,29.1458742 C25.3592226,28.9961628 25.3491419,28.9579032 25.6910436,28.8306485 C25.903577,28.7316727 26.061507,28.7225236 26.3656062,28.7142064 Z M21.9847292,28.7133746 C22.2879883,28.7216919 22.4467583,28.730841 22.6584517,28.8298169 C22.9995133,28.9570715 22.9902727,28.9953311 23.1633237,29.1450425 C23.3708168,29.3770952 23.4321407,29.4461288 23.5917508,29.7979506 C23.6278731,30.1689022 23.627033,30.135633 23.5724296,30.3294261 C23.4985049,30.5673009 23.4237402,30.7311517 23.2355682,30.9307668 L23.2422887,30.9091419 C23.2490091,30.6970508 23.3464553,30.4724836 23.2842913,30.2603925 C23.2288478,30.0857292 23.1876852,29.926037 23.0717579,29.7513737 C22.8919865,29.6066527 22.8197419,29.4544461 22.5408443,29.3463212 C22.2871482,29.2365328 22.1132573,29.2531674 21.951127,29.2165713 C21.7730357,29.2531674 21.7100318,29.2531674 21.5126193,29.3180424 C21.2664837,29.4078692 21.0547903,29.5243114 20.9203817,29.7089555 C20.6213229,29.9959023 20.5902409,30.3643587 20.5482383,30.7095267 L20.5112759,31.9205256 L20.7305298,31.9837371 C20.7985741,32.0195015 21.1001532,32.1608956 21.1320752,32.2191167 C21.2891651,32.390453 21.2379219,32.3397175 21.3958519,32.5102222 C21.5319404,32.8869959 21.5000185,32.9518708 21.4983384,33.1506543 L21.7730357,33.2313321 L21.8494806,32.9551978 C21.856201,32.7115008 21.8158784,32.5418279 21.7906769,32.4087511 C21.493298,32.0685735 21.272364,31.9454775 21.0119476,31.7458623 L21.0010269,30.5290413 L21.0329489,30.311128 C21.0556304,30.0957099 21.1404757,29.7563641 21.3387283,29.6873305 C21.6285466,29.5035182 22.0662143,29.501023 22.2569063,29.9252053 C22.6433308,29.9975658 22.8449436,29.978436 22.9541505,30.1331378 C23.0095939,30.363527 23.0541167,30.2836809 22.7953804,30.6379979 C22.7592581,30.6650291 22.6899537,30.6521373 22.6122488,30.6293687 L22.452981,30.579565 L22.3787141,30.5614787 C22.2165838,30.7502815 21.9292856,30.6072239 22.0594939,30.6787526 C21.99901,30.7627574 22.014131,30.7877093 22.014131,30.8725457 C22.1082169,31.3466319 22.4022355,31.6884729 22.5954478,32.0976841 C22.7516976,32.1875109 22.8163817,32.1143187 22.8659449,32.1084965 C22.9113077,32.0012034 22.9953131,32.036136 22.9499502,31.675997 C22.9380028,31.6639831 22.9110796,31.6287219 22.8765648,31.5808557 L22.7576299,31.4100852 C22.6518454,31.2540018 22.5447645,31.0856535 22.551765,31.0713292 C22.7189356,31.1370359 22.9239085,31.173632 23.090239,31.2393387 C23.26413,31.3907136 23.3380548,31.2958963 23.595111,31.7300594 C23.6455142,31.8980689 23.6421539,32.082713 23.6547547,32.2806647 C23.6018314,32.5809193 23.484224,32.9102844 23.2271677,33.1498226 C22.9533104,33.4783559 22.4660795,33.8218604 22.2829479,34.0015141 C22.1947424,34.1212833 22.0006901,34.3100859 21.8309994,34.568754 C21.7159121,34.7400904 21.7973973,34.97547 21.7805962,35.2640803 C21.5747832,35.3430946 21.3278076,35.4204455 21.0875523,35.4986282 C20.8649383,35.6558251 19.9921231,35.8670845 19.8467938,36.0059834 L19.878,35.984 L19.9137618,35.9840726 C20.3233578,35.9960634 20.8477609,36.0651663 21.0862349,36.1504725 L21.161477,36.183142 C21.2295213,36.3519832 21.2765643,36.5574205 21.3269675,36.7104588 C20.2080167,36.5848676 18.9386965,36.358637 17.8936703,36.5224879 C17.8877899,36.3611321 17.587891,35.7365029 17.7407807,35.5676617 L17.7970642,35.4512195 C17.88863,35.2640803 18.3237775,35.0228786 18.6261967,34.7949845 L19.1008267,34.3791195 L19.4906114,34.0896775 C19.6206265,34.005671 19.7502758,33.921111 19.8795559,33.8359999 L20.0332857,33.5839857 C19.6670225,33.6247404 19.3091599,33.505803 19.0487434,33.5906395 C19.0208116,33.6116407 19.0015429,33.6368525 18.9866057,33.6641696 L18.9143086,33.8364937 L18.852171,33.9100238 C18.6597988,33.9848795 18.6345972,33.9549372 18.5186698,33.9100238 L18.1725679,33.601452 C18.1288852,33.444255 18.1154444,33.3602502 18.1540868,33.2404812 C18.4061027,32.8553901 18.805128,32.83127 19.0487434,32.5626211 L19.3343615,32.3006262 L19.453649,32.101011 L19.6090588,31.9396554 C19.7443074,31.8897516 19.8123517,31.9147035 19.9173583,31.9030593 L19.9358395,30.8900121 C19.9333194,30.5806085 19.9307992,30.3676856 20.0358058,30.1031955 C20.0990258,29.8686164 20.2021475,29.6464154 20.3407451,29.4461288 C20.5608391,29.1516963 20.717929,29.041908 20.9145014,28.9479225 C21.1009932,28.8381341 21.1429959,28.8406293 21.3908115,28.767437 C21.6142657,28.7100477 21.8293192,28.718365 21.9847292,28.7133746 Z M24.1982747,1.5 L26.2765606,10.9925347 C26.4059289,11.1630394 26.4445712,11.1414144 26.6209824,11.179674 C26.8091543,9.5070649 26.9586838,7.8502587 27.0846917,6.17265927 L26.7133882,4.38277625 L27.8390595,2.02066302 L28.448938,4.51917998 L27.5290798,6.29908223 L27.1577763,11.0707174 L27.2182602,12.2434567 C27.230861,13.1708357 27.4257533,13.7430659 27.6046846,14.4783152 C27.7886562,15.1137591 27.7122114,15.8057564 27.6508875,16.4029386 C27.5702425,16.7331354 27.5349602,16.9760005 27.4551552,17.3070291 L27.3333474,18.3782974 C27.3367076,19.5726617 27.4912775,20.0991468 27.6021644,20.9067567 C27.4291135,21.5031071 27.3308273,22.4412985 27.1577763,23.0384807 L27.157,23.037 L26.6915469,19.5136089 C26.7016275,18.9593439 26.7014931,18.2528392 26.7074877,17.6376784 L26.7133882,17.1972407 L26.7167484,15.9854101 C26.551258,15.7051171 26.4008885,15.4980163 26.235398,15.2177233 C26.1043497,14.5881037 26.0951091,14.2246376 26.1765943,13.7289265 L25.3424215,10.1042471 C25.2248141,10.0135885 25.0618438,9.56778123 24.9442363,9.47629095 L24.9173546,10.2572854 C25.1273679,11.3668132 25.428107,12.4929757 25.649881,13.6099891 L25.5818367,17.4517501 L25.5994778,19.2416331 L26.2866412,25.0263154 L26.4966545,26.0410261 C26.5772996,26.1175452 26.6428238,26.105901 26.7234689,26.0343722 L28.5321033,19.4404166 L28.9395291,17.2355003 C29.0050532,16.0186793 28.7832792,13.5442825 29.2125463,12.4721825 C29.2320775,12.4046044 29.254444,12.3453436 29.278228,12.2902415 L29.4266024,11.9762634 L29.492284,11.7943224 L29.8862689,5.95474604 L29.5107652,4.49838672 L30.6095547,2.05060526 L31.1051861,4.71713171 L30.4054218,5.97304406 L30.0719207,10.782107 L30.2382512,10.7272129 L31.6663415,9.6243389 L30.8447696,11.4017459 L30.4869069,12.8240043 C30.4633855,13.1475473 30.3777,13.4261768 30.3541786,13.7497198 C30.3499782,14.2312915 30.3457781,14.728666 30.4482666,15.2102377 L29.9131506,15.7608429 C29.8543469,15.9205351 29.7493403,16.081059 29.7375796,16.2407512 L29.554448,18.6777202 L29.0688973,20.5066945 L27.9096239,25.243397 L27.8886226,26.0243915 C27.9499464,25.9520309 28.1498791,25.4039209 28.211203,25.3323921 L29.9223912,18.3558406 L30.030758,16.2914867 L30.4608653,15.8257179 L30.3684595,18.4107348 L28.8840855,24.8998925 L28.8840855,25.4055843 C29.2117063,25.1361038 29.3864374,25.0895269 29.8669477,24.9531232 L30.4197027,25.0895269 L29.6418135,25.7657235 L28.7353961,25.8929781 L29.6989371,32.0943572 L29.207506,31.8265401 C29.0100935,31.6934633 28.937849,31.5379298 28.8017603,31.3757424 C28.7463168,31.0688341 28.7085144,30.6280171 28.6387901,30.2287867 C28.606028,29.2598212 27.8886226,28.6193891 26.9914458,28.3698701 C25.7574077,28.2251491 24.8803923,28.8348072 24.5040485,29.8104265 C24.4561655,30.0541234 24.4511251,30.2720367 24.4343241,30.5090798 L24.2167503,30.4924452 L24.1478659,30.4941086 L23.9311322,30.5074163 C23.9134912,30.2712049 23.9328123,30.0782436 23.8840893,29.8328832 L23.674076,29.3504798 C22.9852324,28.5911104 22.4106361,28.2476058 21.3731705,28.3690384 C20.749851,28.54287 20.2365785,28.8406293 19.9719618,29.4660903 C19.7342268,29.8836188 19.7023047,30.4941086 19.5998182,30.9648678 C19.5544553,31.3657617 19.3410819,31.6776604 19.120988,31.8855929 L18.6648391,32.0935254 L19.6300602,25.8921464 L18.7228028,25.7648917 L17.9457536,25.0886952 L18.4976686,24.9522915 C18.9781789,25.0886952 19.15291,25.1352721 19.4805307,25.4047526 L19.4805307,24.8990607 L17.9969968,18.4099031 L17.9029109,15.8248862 L18.3338581,16.290655 L18.441385,18.3550089 L20.1534133,25.3315604 C20.2147371,25.4030892 20.4146698,25.9511992 20.4759937,26.0235597 L20.4549923,25.2425652 L19.294879,20.5066945 L18.8101683,18.6768884 L18.6270368,16.2399194 C18.6144359,16.0802273 18.5102694,15.9197034 18.4523057,15.7600112 L17.9155117,15.2094059 C18.0188382,14.7278343 18.014638,14.2304597 18.0104377,13.748888 C17.9860762,13.4253451 17.9012308,13.1475473 17.8768693,12.8231725 L17.5190066,11.4000825 L16.6982747,9.62350714 L18.1263651,10.7263811 L18.2935357,10.7804436 L17.9591945,5.97304406 L17.2585901,4.71713171 L17.755,2.05 L18.853011,4.49755499 L18.4791873,5.95474604 L18.8714922,11.7934908 C18.9504572,12.063803 19.073945,12.2002067 19.1520699,12.4713508 C19.5813371,13.5434508 19.358723,16.0178476 19.4242471,17.2346685 L19.833353,19.4395849 L21.6411474,26.0335405 C21.7217925,26.1050693 21.7873167,26.1167135 21.8679618,26.0401944 L22.077975,25.0254837 L22.7642984,19.2408014 L22.7827796,17.4509184 L22.7138953,13.6091574 C22.9365093,12.492144 23.2372483,11.3659816 23.4481017,10.2564537 L23.42122,9.47545923 C23.3027725,9.56611778 23.1398022,10.0119251 23.0221947,10.1034154 L22.1871819,13.7280948 C22.2695071,14.2238059 22.2602666,14.5872719 22.1283782,15.2168915 C21.9628878,15.4971845 21.8133583,15.7042854 21.6478678,15.9845783 L21.6520681,17.196409 C21.6638288,17.8892401 21.6604686,18.819946 21.6730695,19.5127771 L21.2059998,23.037649 C21.0329489,22.4404668 20.9363428,21.5022753 20.7624518,20.9059249 C20.8716587,20.098315 21.0270686,19.5718299 21.0304288,18.3774656 L20.9094611,17.3061974 C20.8890898,17.2236482 20.8717112,17.1465572 20.8558552,17.0721823 L20.7672296,16.6365897 L20.7145688,16.4021069 C20.6524048,15.8049246 20.57596,15.1137591 20.7590916,14.4774836 C20.939703,13.7422342 21.1337553,13.170004 21.145516,12.242625 L21.2059998,11.0698856 L20.8346964,6.29825051 L19.9156782,4.51834825 L20.526,2.02 L21.6520681,4.38194452 L21.2807646,6.17099583 C21.4059325,7.84942698 21.5554619,9.50623317 21.7436339,11.1780106 C21.920045,11.1414144 21.9578474,11.1630394 22.0880557,10.991703 L24.1671872,1.5 L24.1982747,1.5 Z M26.0211845,16.0885446 L26.8889593,23.3495477 L26.6495442,25.3897815 L26.0514264,20.5216656 L26.0211845,16.0885446 Z M22.3400716,15.9138813 L22.3106697,20.3461706 L21.7117118,25.2159499 L21.4722967,23.1740527 L22.3400716,15.9138813 Z" id="Combined-Shape" fill="#00471C"></path>
        </g>
    </g>
</svg>