<?xml version="1.0" encoding="UTF-8"?>
<svg width="48px" height="48px" viewBox="0 0 48 48" version="1.1" xmlns="http://www.w3.org/2000/svg" xmlns:xlink="http://www.w3.org/1999/xlink">
    <title>lb-bdl</title>
    <g id="Page-1" stroke="none" stroke-width="1" fill="none" fill-rule="evenodd">
        <g id="lb-bdl">
            <rect id="Rectangle" x="0" y="0" width="48" height="48"></rect>
            <path d="M15.2165569,36.8204714 C15.2027167,36.8456909 15.1773431,36.9129428 15.1358225,36.9717883 C15.0204876,37.1420197 14.8013512,37.2218813 14.6191221,37.1336132 C14.0724345,36.8688088 13.5072934,36.9003331 12.9352323,37.0285321 C12.6146012,37.0999872 12.2985835,37.190357 11.9756457,37.2555073 C11.6019606,37.3311657 11.2213554,37.3816046 10.8453635,37.4488565 C10.0264856,37.5938685 9.24912829,37.8565713 8.47177094,38.1192741 C7.68057341,38.3882817 6.89168257,38.6656959 6.06357786,38.8296224 C5.39002194,38.9620247 4.71185263,39.0145652 4.02445652,38.9326019 C3.78225319,38.9031792 3.56311685,38.8275208 3.37396758,38.6846105 C3.17328482,38.5332937 2.99336235,38.3630623 2.81113318,38.1486968 C3.00258915,38.0709368 3.16636473,37.9931767 3.33475371,37.9364329 C3.84914744,37.7640999 4.39122155,37.6905431 4.92637557,37.6043766 C5.69681282,37.4782793 6.46725007,37.3500803 7.20770024,37.1062921 C8.05425854,36.8267763 8.79240201,36.4064518 9.38753019,35.7801684 C9.7888957,35.3598439 10.3148229,35.1139541 10.8914975,34.9605356 C11.4220381,34.8197269 11.9641122,34.7125442 12.4946529,34.5759387 C12.7829902,34.5023819 13.0574873,34.3930976 13.3435179,34.3090327 C13.5442006,34.2501873 13.5834145,34.1114802 13.5811078,33.9475536 C13.5788011,33.789932 13.525747,33.6764443 13.3435179,33.6049892 C12.1555682,33.138429 10.9560851,33.0648722 9.73122824,33.4851967 C9.13840677,33.6890541 8.58479916,33.9601634 8.03580495,34.2417808 C7.53294471,34.5002803 7.03008447,34.7545766 6.52491753,35.0088729 C5.93209605,35.3094049 5.29314061,35.4334007 4.61727799,35.4102828 C4.24820626,35.3976731 3.88144122,35.370352 3.51236948,35.353539 C3.15252454,35.336726 2.7903729,35.3178114 2.43052795,35.3136082 C2.25752558,35.3115066 2.13527056,35.258966 2.03838923,35.1349703 C1.99917536,35.0824297 1.95996149,35.0319908 1.92305432,34.9773486 C1.82617298,34.8386415 1.70853137,34.7209507 1.51476871,34.674715 C1.51015531,34.5759387 1.49631512,34.4771625 1.50092852,34.3804878 C1.51015531,34.1913418 1.57243617,34.1409029 1.77773232,34.1135818 C2.30135285,34.0463299 2.82728007,33.9853828 3.3509006,33.8992163 C3.95756226,33.8004401 4.55038374,33.6575297 5.12013823,33.438961 C5.5814779,33.2603231 5.95977643,32.9997219 6.25964722,32.6193283 C6.94012323,31.7534599 7.75900115,31.0031807 8.72550776,30.4021167 C9.05305893,30.1982593 9.41059717,30.0259263 9.77274881,29.8767111 C10.0264856,29.7737316 10.3148229,29.738004 10.6193071,29.6644472 C10.5224258,29.6245164 10.4416913,29.5677726 10.3540368,29.5572645 C10.1695009,29.5341466 10.0357124,29.4437768 9.94344449,29.3113746 C9.80273589,29.1117205 9.66664069,28.9078631 9.54899907,28.6955993 C9.38291679,28.3950673 9.24220819,28.0840272 9.08073931,27.7834952 C8.98155128,27.5964508 8.86390966,27.4178129 8.74857474,27.2244636 C8.41410348,27.3085285 8.07732552,27.4052031 7.73362747,27.472455 C7.35071554,27.5481135 6.96549692,27.617467 6.5756649,27.6447881 C6.30347449,27.6637027 6.01744389,27.6405848 5.75448028,27.5817394 C5.27007363,27.472455 4.78336027,27.4493372 4.29203352,27.4808615 C3.89528141,27.506081 3.49622259,27.5334021 3.08332359,27.5607232 C3.12023076,27.5207924 3.15252454,27.4745567 3.19404511,27.4430323 C3.45931542,27.2412766 3.71305224,27.0227079 3.99908283,26.8503748 C4.19515219,26.732684 4.41428854,26.6465174 4.61727799,26.5330298 C4.86409472,26.3943228 5.14551192,26.3480871 5.43384921,26.3354773 C5.75678698,26.320766 6.07972475,26.3144611 6.40035582,26.2976481 C6.76481416,26.2787335 7.09467202,26.1673475 7.36224903,25.9382707 C7.65289303,25.6881776 7.92969683,25.4254748 8.20880733,25.1648737 C8.49714462,24.8937644 8.77625512,24.6142486 9.06920582,24.3452409 C9.31371584,24.1203673 9.59513304,23.9396278 9.90884402,23.7988191 C10.2525421,23.643299 10.5870133,23.4688644 10.9237913,23.298633 C10.9976056,23.2608038 11.07142,23.2208729 11.1360075,23.1746373 C11.2721027,23.0779626 11.2997831,22.9896945 11.2421157,22.8425809 C11.2144353,22.7711258 11.1683013,22.7038738 11.1406209,22.6303171 C11.07142,22.4537808 10.9929922,22.2772445 10.9422449,22.0944033 C10.8499769,21.7665503 10.6216138,21.5605913 10.2502354,21.5143556 C9.46595793,21.4176809 8.67937379,21.333616 7.88356286,21.400868 C7.60214566,21.4239858 7.32072846,21.4660183 7.02777777,21.4996442 C6.99779069,21.1991122 6.7140668,21.3693436 6.5618247,21.2915836 C6.50646394,21.1865025 6.58489169,21.1150473 6.63563905,21.0393889 C6.88476247,20.6653001 7.18924666,20.3332438 7.51910452,20.0180004 C8.16728676,19.3980218 8.90081684,18.8642097 9.60666653,18.3009749 C10.1671942,17.8533294 10.7208018,17.3972773 11.2536492,16.9223106 C11.7449759,16.4830716 12.1325012,15.9723773 12.4185318,15.3965328 C12.6630419,14.9026515 12.9813662,14.4465995 13.3711982,14.0367831 C13.7287365,13.6605927 14.1047283,13.3012153 14.4807202,12.9418378 C14.688323,12.7442853 14.9351397,12.5866636 15.2211703,12.4878874 C15.3664923,12.4374485 15.3941727,12.3891111 15.3757191,12.2462008 C15.3526521,12.0465467 15.2719177,11.8658072 15.1427426,11.7039822 C15.0227943,11.5526654 14.9628201,11.5400557 14.7736708,11.622019 C14.1831561,11.8784169 13.5880279,12.1222051 12.9629126,12.2966398 C12.7506964,12.3554852 12.5338667,12.4059241 12.3170371,12.4500582 C12.1717151,12.4794809 12.1048208,12.4416517 12.0540735,12.3386722 C12.0033261,12.239896 12.0217797,12.1831521 12.1486481,12.0927824 C12.3839313,11.9267542 12.5661605,11.7207952 12.723016,11.4959216 C12.7968304,11.3887389 12.8729514,11.2836578 12.937539,11.1722718 C13.2005026,10.7141181 13.5741877,10.3463342 14.053981,10.0752249 C14.6283488,9.75157504 15.2142502,9.44473817 15.8001516,9.13579968 C16.3260788,8.85838552 16.8635396,8.59988597 17.3825467,8.31616695 C17.8646466,8.05136253 18.3006126,7.72771268 18.688138,7.35362389 C18.7434987,7.30108333 18.7942461,7.2422379 18.8219265,7.15186814 C18.741192,7.16447788 18.6604576,7.17708761 18.5797231,7.18969734 C18.0860897,7.25905088 17.5924562,7.33260767 17.0988228,7.39565634 C16.4875477,7.47341637 15.8808861,7.56378613 15.3757191,7.97150087 C15.1888765,7.76554188 15.1150622,7.54487153 15.1381292,7.30318495 C15.1427426,7.24854277 15.2188636,7.18969734 15.2788378,7.15186814 C15.6940435,6.8849621 16.0977157,6.6033447 16.531375,6.36375974 C17.6293634,5.7584925 18.7342719,5.16373336 19.8484072,4.5857872 C21.4838564,3.73673176 23.0316509,2.77839194 24.4341235,1.63090612 C24.4502704,1.61619476 24.468724,1.60148341 24.4871776,1.58887367 C24.7017006,1.43965848 24.9808111,1.48169093 25.1261331,1.68975155 C25.2691484,1.89571054 25.3198957,2.12899063 25.3568029,2.36647396 C25.38679,2.56822971 25.4144703,2.76788383 25.4490708,2.96963958 C25.4952048,3.24705374 25.6243799,3.49084194 25.8389028,3.69259768 C25.9842248,3.82710152 26.1318535,3.95950373 26.2840956,4.08770269 C26.4478712,4.22640977 26.6162602,4.35881198 26.7800358,4.49751906 C27.0868267,4.75812024 27.3682439,5.03133115 27.4904989,5.42013129 C27.695795,5.41382642 27.81805,5.52311079 27.9149314,5.66812273 C27.9933591,5.78581359 28.1133074,5.84255739 28.2586294,5.84676064 C28.4108715,5.85096388 28.5654203,5.84886226 28.7199691,5.84676064 C28.8053169,5.84465901 28.8883581,5.83835415 28.9737059,5.82994766 C29.294337,5.80262657 29.5434604,5.90140282 29.7625967,6.12837804 C30.4615263,6.85553938 31.1719894,7.57429424 31.8893726,8.28464261 C32.2792046,8.67134113 32.6782635,9.05173478 33.0957759,9.41321383 C33.7093576,9.94072106 34.4221274,10.3421309 35.1741111,10.6888986 C35.2502321,10.7246262 35.3240465,10.7582522 35.4186211,10.8023862 C35.3378867,11.081902 35.5593297,11.2815561 35.6815847,11.5190395 C35.5270359,11.5799865 35.388634,11.5589703 35.2548455,11.5421573 C34.708158,11.4791086 34.2029911,11.2920643 33.690904,11.1197312 C33.1511366,10.9368901 32.6136759,10.7498457 32.0646817,10.5901224 C31.8201717,10.5186672 31.5549014,10.4997526 31.2965512,10.4766348 C31.1327756,10.4619234 30.9759201,10.5123623 30.8421316,10.6048337 C30.6529823,10.7351343 30.5999282,10.9158738 30.7129565,11.1050199 C30.777544,11.2143042 30.8675053,11.3151821 30.9666933,11.4013486 C31.2619507,11.6556449 31.6056487,11.8447909 31.9931741,11.9456688 C33.2987653,12.2861316 34.6112767,12.6139847 35.9191747,12.9460411 C36.0368163,12.9754638 36.1567646,13.0006833 36.2674861,13.0259027 C36.329767,13.3243331 36.2697928,13.4525321 36.0022158,13.5954424 C35.8084531,13.6984219 35.5962369,13.7299462 35.3794072,13.6837105 C34.8950006,13.5786294 34.4105939,13.4651418 33.928494,13.3516542 C33.3033787,13.2045406 32.6782635,13.0658336 32.0323879,13.013293 C31.5664349,12.9775654 31.1120153,13.0174962 30.6622091,13.124679 C30.6253019,13.1330855 30.5907015,13.1477968 30.5537943,13.1604066 C30.5399541,13.1646098 30.5284206,13.1772195 30.4961268,13.1982358 C30.5399541,13.2844023 30.5814747,13.3810769 30.6345287,13.4693451 C30.9182526,13.931702 31.282711,14.3373151 31.6863832,14.7156071 C32.2930448,15.2872484 32.9550673,15.8000443 33.7185844,16.1888444 C34.5351556,16.602864 34.6597174,16.602864 35.510889,16.3779904 C35.8430536,16.2897223 36.1752182,16.207759 36.5143028,16.1426087 C36.8280138,16.0816617 37.0679104,16.1804379 37.2708999,16.4242261 C37.7414664,16.9853593 38.2374065,17.5317811 38.7310399,18.0761013 C39.3215547,18.7255027 39.8636288,19.4043267 40.2350073,20.181927 C40.2788345,20.2701951 40.3180484,20.3605649 40.3734092,20.482459 C40.1127523,20.5371012 39.8682422,20.5476093 39.632959,20.4929671 C39.411516,20.4425281 39.196993,20.3605649 38.9870835,20.2743984 C38.784094,20.1924351 38.592638,20.0852523 38.3919553,19.9969842 C38.0667108,19.8540739 37.7253195,19.7952284 37.3631678,19.8351593 C37.2201525,19.8519723 37.0955908,19.8919031 36.987176,19.9780696 C36.8026401,20.1251832 36.6042641,20.2617886 36.4358751,20.4236135 C36.1313909,20.7157391 35.7646259,20.7346537 35.3724871,20.6526904 C34.922681,20.5581174 34.5351556,20.3458535 34.1591638,20.1083702 C34.0530557,20.0411183 33.9446409,19.9696631 33.8269992,19.9213258 C33.7693318,19.8982079 33.6747572,19.9066144 33.614783,19.9339355 C33.5294352,19.975968 33.5202084,20.0663377 33.5663423,20.1377929 C33.7024375,20.3500568 33.6770639,20.577032 33.6632237,20.8082104 C33.6424634,21.1402668 33.7116643,21.4639166 33.8569863,21.7707535 C33.9077337,21.8779362 33.9769346,21.9830174 34.0530557,22.0775904 C34.196071,22.252025 34.3898336,22.3360899 34.6366504,22.2982607 C34.9688149,22.2478218 35.3032862,22.1952812 35.6377575,22.1469439 C36.4358751,22.0313547 37.2339927,21.9241719 38.0459505,21.9598995 C38.2904606,21.9704076 38.539584,21.9935255 38.7748672,22.0523709 C38.9847768,22.1049115 39.2062198,22.1826715 39.3769155,22.302464 C39.8636288,22.64713 40.3987829,22.8972231 40.9685373,23.0947756 C41.4206502,23.2502957 41.8773765,23.3974092 42.3271827,23.5634374 C42.8807903,23.7693964 43.3790371,24.055217 43.7688691,24.4797448 C43.8426835,24.5575048 43.9072711,24.6436713 43.9972323,24.7487524 C43.7965495,24.7487524 43.6327739,24.7466508 43.4689984,24.7487524 C43.0238056,24.7550573 42.5763061,24.750854 42.13342,24.7760735 C41.261488,24.8244108 40.4010896,24.8160043 39.5476112,24.6079437 C38.9109624,24.4524237 38.2627802,24.5196756 37.6307448,24.6583827 C36.8395473,24.8307157 36.0529632,25.0261666 35.2617656,25.1984996 C34.2214447,25.4254748 33.1672835,25.5767916 32.0992822,25.6482468 C31.9793339,25.6566533 31.8593855,25.6734663 31.7371305,25.719702 C31.7763444,25.7344133 31.8155583,25.7554296 31.8570789,25.763836 C32.7682247,25.986608 33.6793706,26.2219897 34.5951298,26.4258471 C35.5247292,26.6318061 36.4704756,26.7305823 37.4300621,26.6927531 C37.8729482,26.6738385 38.2881539,26.7747164 38.661839,26.982777 C38.9940036,27.1698214 39.3123279,27.3799837 39.6237322,27.5964508 C39.9651236,27.8360357 40.2857546,28.0966369 40.6202259,28.3446283 C41.063112,28.6745831 41.5544387,28.9330826 42.0780593,29.1453465 C42.6616539,29.3807282 43.2475553,29.609805 43.8173098,29.8683046 C44.1725414,30.0301295 44.5047059,30.2360885 44.8368705,30.4378442 C44.9683523,30.5177059 45.092914,30.622787 45.1851819,30.7404779 C45.3697178,30.9758596 45.6142278,31.1376845 45.8771914,31.2847981 C46.0778742,31.3982857 46.2831704,31.50757 46.5,31.6252609 C46.3362244,31.7912891 46.1355417,31.8459312 45.9210187,31.8648458 C45.5727073,31.8942686 45.2313159,31.8396264 44.8968446,31.7534599 C44.3570772,31.6147528 43.8219232,31.4655376 43.2775424,31.3415419 C42.7493085,31.2217494 42.2187679,31.2217494 41.6836138,31.35205 C41.1115526,31.4907571 40.527958,31.4739441 39.9443633,31.3793711 C39.877469,31.368863 39.8128815,31.3604565 39.7275336,31.3478467 C39.6583327,31.6336674 39.5914384,31.9047767 39.5176241,32.203207 C39.5822116,32.236833 39.656026,32.2914752 39.7367604,32.314593 C40.1519661,32.4385888 40.5648651,32.570991 40.9892976,32.6718688 C41.9050569,32.8904376 42.813896,33.1153112 43.6812146,33.4662821 C44.2786495,33.7079687 44.8599375,33.9811796 45.4020116,34.3174392 C45.628068,34.4582479 45.8333642,34.6305809 46.0317402,34.8050156 C46.1655287,34.9227064 46.2601034,35.0740232 46.2739436,35.2484579 C46.2808637,35.3430309 46.2716369,35.4460104 46.232423,35.5342785 C46.1493819,35.7234246 46.0086733,35.7612538 45.8126039,35.6645791 C45.3443441,35.431299 44.8553241,35.2526611 44.3247835,35.1770027 C43.7250419,35.0887346 43.1299137,35.1265638 42.5393989,35.2484579 C41.9696444,35.3661487 41.40681,35.5048558 40.8370555,35.6162418 C40.045858,35.7696602 39.2638873,35.7423392 38.5003701,35.4754331 C38.1866591,35.3661487 37.8568013,35.3430309 37.5246367,35.3745552 C37.1417248,35.4102828 36.7611196,35.4439088 36.3782076,35.4901445 C35.9330148,35.5447867 35.4901288,35.5300753 35.0472427,35.464925 C34.5835963,35.3976731 34.1176432,35.3745552 33.6470768,35.4186893 C33.2756983,35.4523153 32.91124,35.3745552 32.5537018,35.3009985 C32.1800166,35.2232384 31.8086382,35.2190352 31.4303397,35.2505595 C31.1166287,35.2778806 30.8029177,35.2904903 30.4799799,35.3094049 C30.4753665,35.336726 30.4661397,35.3640471 30.4684464,35.3892666 C30.5261139,35.9293835 30.4615263,36.4652973 30.4153924,37.0033126 C30.3254311,38.0667335 30.3900187,39.1175447 30.8444383,40.1200186 C31.0866416,40.6559323 31.4072727,41.1477119 31.8086382,41.5953575 C32.0900554,41.9084993 32.3968463,42.204828 32.6990238,42.5032584 C32.9919744,42.7932823 33.3656596,42.9193796 33.7923988,42.9256845 C33.9700145,42.9277861 34.1453236,42.9256845 34.3229394,42.9277861 C34.6181968,42.9319894 34.8811604,43.0181559 35.1026034,43.1967938 C35.2871393,43.346009 35.4762886,43.4889193 35.6515976,43.646541 C36.2997799,44.2328936 37.03331,44.7162668 37.812974,45.1449977 C37.8775616,45.1807253 37.9398424,45.2185545 38.034417,45.2731967 C37.9675228,45.2921113 37.9306156,45.3089243 37.8937084,45.3110259 C37.0517635,45.3824811 36.2075119,45.4119038 35.3609537,45.35516 C34.4774882,45.2963145 33.6101696,45.149201 32.7497711,44.9558517 C32.3853128,44.8738884 32.0185477,44.7898236 31.6540894,44.7057587 C31.6102621,44.6952505 31.5664349,44.6910473 31.5226076,44.6847424 C31.504154,44.8822949 31.6702363,45.1891318 32.0577616,45.6830131 C32.2953515,45.9856467 32.5513951,46.2714673 32.9619874,46.479528 C32.5467817,46.5215604 32.1869367,46.4963409 31.8270918,46.4269874 C31.335765,46.3324144 30.8721187,46.1663862 30.4153924,45.9793418 C29.7556767,45.7103342 29.1051877,45.4245135 28.4177916,45.2185545 C28.1040806,45.1239815 27.8526505,44.9348355 27.6450477,44.703657 C27.4766587,44.514511 27.3244166,44.3106536 27.1652544,44.1131011 C27.0245458,43.9386665 26.893064,43.7558253 26.7431286,43.5876955 C26.5378324,43.3544155 26.2840956,43.1799808 25.974998,43.0664932 C25.8043024,43.0055461 25.6497536,42.9088715 25.4882847,42.8290099 C25.3383493,42.7575547 25.1930273,42.6734898 25.0361718,42.6230509 C24.9093034,42.58312 24.7639814,42.5684087 24.6324996,42.5810184 C24.4018298,42.6041363 24.3210953,42.7827742 24.468724,42.9467007 C24.5563786,43.0412737 24.6947805,43.0980175 24.8101154,43.1715743 C24.5863656,43.4174641 23.9312633,43.4700047 23.6060188,43.2745538 C23.4260964,43.1673711 23.2346404,43.0748997 23.0408777,42.9929364 C22.4964969,42.7638596 21.9244357,42.7617579 21.3454545,42.8500261 C21.2924004,42.8584326 21.2393463,42.8710423 21.1862923,42.8752456 C20.8310607,42.9025666 20.5173497,43.0202575 20.2405459,43.2262165 C20.1690383,43.2787571 20.0929172,43.3249927 20.0191029,43.3775333 C19.543923,43.7200978 19.0064623,43.9218535 18.4090274,44.0101216 C17.4886548,44.1467271 16.5659755,44.2328936 15.636376,44.2707228 C14.6468024,44.3106536 13.6549221,44.3484828 12.6653485,44.3968202 C12.2824366,44.4157348 11.9018314,44.4577672 11.5235329,44.4892915 C11.3920511,44.3169585 11.3920511,44.3169585 11.0414329,44.2265888 C11.3551439,44.153032 11.6181075,44.0836784 11.8856845,44.0311379 C12.6307481,43.8819227 13.3850384,43.7957562 14.1416355,43.7285042 C14.7852043,43.6717604 15.4264665,43.6150166 16.0677286,43.5561712 C16.3560659,43.5288501 16.5752023,43.4006512 16.7020707,43.1589646 C16.7689649,43.0328672 16.8266324,42.9025666 16.8935266,42.7764693 C16.9996348,42.5747136 17.1518768,42.4128886 17.3871601,42.3288237 C17.6155232,42.2468605 17.7677653,42.093442 17.8577265,41.8916863 C17.9292342,41.7298613 17.991515,41.5638332 18.0422624,41.3957034 C18.1206902,41.1435087 18.2360251,40.9102286 18.4159475,40.7042696 C18.665071,40.418449 18.9165011,40.1368316 19.1471709,39.8384012 C19.3247867,39.611426 19.4839489,39.3697394 19.6269642,39.1238496 C19.7676728,38.8842646 19.7838197,38.6236635 19.6754048,38.3714688 C19.5646833,38.1108676 19.4493484,37.8502664 19.3063331,37.6043766 C19.0918102,37.2407959 18.8473001,36.8919266 18.6212437,36.5325492 C18.3951873,36.1752734 18.1760509,35.8158959 17.9453811,35.4397055 C17.8461931,35.4859412 17.7331648,35.5279737 17.6316701,35.5868191 C17.2279979,35.8179976 16.8289391,36.0554809 16.4252669,36.2866594 C16.2291975,36.3980453 16.0354348,36.5136346 15.8301387,36.606106 C15.6479095,36.6943741 15.4541469,36.7427114 15.2165569,36.8204714 Z M11.2582626,29.7863413 C11.2836362,29.8199673 11.2905563,29.8388819 11.3020898,29.8430851 C11.8326304,30.0007068 12.3008902,30.2697144 12.7876036,30.5092994 C13.2766236,30.7488844 13.8025508,30.8224411 14.3492383,30.7867136 C14.6698694,30.7656973 14.9928072,30.7446811 15.3134383,30.7068519 C15.5556416,30.6774292 15.8001516,30.6353967 16.0308214,30.5681448 C16.2730248,30.4966897 16.3606793,30.3474745 16.2960918,30.1268041 C16.2338109,29.9124386 16.1553832,29.6980732 16.0515817,29.4963174 C15.92702,29.2546308 15.6940435,29.13694 15.3964794,29.1432448 C15.2972914,29.1453465 15.1957966,29.1474481 15.0989153,29.1684643 C14.7644441,29.2420211 14.4276661,29.3176795 14.0978082,29.4059476 C13.403492,29.5908904 12.7045624,29.7485121 11.9779524,29.7863413 C11.7426692,29.7968494 11.507386,29.7863413 11.2582626,29.7863413 Z M27.428218,17.3237205 C27.5043391,17.5570006 27.4928056,17.7503499 27.451285,17.9458007 C27.4236046,18.0761013 27.3936175,18.2064019 27.3843907,18.3388041 C27.3728573,18.4985274 27.4005376,18.5363566 27.5712333,18.5804907 C27.8365036,18.6498442 28.1017739,18.7170962 28.3716576,18.77384 C29.2159092,18.9503762 30.0647742,19.1122012 30.8605852,19.4442575 C30.9436263,19.4778835 31.0358942,19.4925948 31.1258555,19.5073062 C31.2527239,19.5262208 31.358832,19.4883916 31.4095794,19.3770056 C31.4741669,19.2361969 31.5456746,19.0932866 31.5848884,18.946173 C31.6471693,18.7128929 31.5433679,18.5552712 31.2919378,18.4691047 C31.1789095,18.4291739 31.0566545,18.4018528 30.9367062,18.3850398 C30.5699412,18.3303976 30.2285498,18.2295198 29.9148388,18.0319673 C29.7026226,17.8974634 29.4558059,17.804992 29.2159092,17.7167239 C28.7522629,17.5443909 28.2632428,17.4540211 27.7719161,17.3741595 C27.6681146,17.3531432 27.5643132,17.3426351 27.428218,17.3237205 Z M12.0609936,23.0863691 C12.4600524,22.903528 12.8429643,22.7374998 13.2120361,22.5546586 C13.4127188,22.4558824 13.5995614,22.3276834 13.7864039,22.2099926 C13.8786719,22.1511471 13.938646,22.0691839 13.9224992,21.9598995 C13.908659,21.8632249 13.9594063,21.8022778 14.0401408,21.7497373 C14.1416355,21.684587 14.2385168,21.6173351 14.3330915,21.5458799 C14.4161326,21.4807296 14.4507331,21.400868 14.3884522,21.3041933 C14.2315967,21.0583035 14.0770479,20.8124137 13.9132724,20.5476093 C13.2604767,20.5686255 12.6653485,20.7871942 12.1278878,21.1507749 C11.9917926,21.2432463 11.8926046,21.3924615 11.6965352,21.400868 C11.6873084,21.400868 11.6780817,21.4218842 11.6504013,21.4555101 C11.828017,21.728721 11.8026434,22.0439644 11.7864965,22.3592078 C11.7841898,22.4159516 11.7841898,22.4705938 11.7888032,22.5273376 C11.8095635,22.741703 11.897218,22.9308491 12.0609936,23.0863691 Z M17.0642223,31.2427656 C17.0919027,31.2448672 17.1149697,31.2511721 17.13573,31.2469689 C17.4056137,31.1839202 17.4240673,31.1923267 17.502495,31.4361149 C17.525562,31.5096717 17.5440156,31.5853301 17.5624692,31.6609885 C17.601683,31.8165085 17.6385902,31.9741302 17.6824175,32.1296503 C17.7331648,32.3040849 17.7446983,32.3082882 17.9292342,32.314593 C18.6466174,32.3377109 18.9995422,31.969927 18.8265399,31.3331354 C18.6604576,30.7215633 18.3767337,30.1457187 18.0399557,29.5950937 C18.0099686,29.5467563 17.9707548,29.5026223 17.9292342,29.4605898 C17.7077911,29.2336146 17.4540543,29.2609357 17.3041189,29.532045 C17.2649051,29.6056018 17.2441448,29.6917683 17.234918,29.7737316 C17.2210778,29.8977273 17.2303046,30.0259263 17.2256912,30.149922 C17.2164644,30.3663891 17.2164644,30.5828562 17.188784,30.7972217 C17.1680237,30.9464369 17.1080496,31.0893472 17.0642223,31.2427656 Z M18.2198782,18.7864497 C18.5935633,18.5090355 18.955715,18.2484344 19.3063331,17.9794267 C19.5300828,17.8070937 19.712312,17.5969314 19.8414871,17.3552449 C19.9868091,17.0799323 20.04909,16.7962133 19.903768,16.5061894 C19.8207268,16.3422629 19.8207268,16.1846412 19.8830077,16.018613 C19.9083814,15.9513611 19.9176082,15.8778043 19.9383685,15.795841 C19.7399924,15.7601135 19.590057,15.8210605 19.4493484,15.8841092 C18.9188078,16.1236941 18.572803,16.5145959 18.3998007,17.0231885 C18.3421332,17.1934199 18.2590921,17.3447367 18.1437571,17.4876471 C18.0883964,17.554899 18.037649,17.6242525 17.991515,17.6978093 C17.9038605,17.838618 17.8877136,17.9920364 17.9453811,18.1433532 C18.0261155,18.3514139 18.1206902,18.5552712 18.2198782,18.7864497 Z M9.83041627,27.2601912 C9.9272976,27.3274431 9.98957846,27.377882 10.0610861,27.4178129 C10.7392554,27.8087146 11.4820123,27.9222022 12.2709031,27.8339341 C12.6330548,27.7940033 12.9513791,27.6721092 13.2235696,27.4493372 C13.3873451,27.3148334 13.4311724,27.1908376 13.3527447,27.0016916 C13.2720102,26.8062407 13.1220748,26.6549239 12.9421524,26.5309282 C12.8129772,26.4426601 12.6745753,26.398526 12.5107998,26.4363552 C12.3700912,26.4678795 12.2201558,26.4783877 12.0840606,26.5204201 C11.3805176,26.7410905 10.6792813,26.9680657 9.97573827,27.1929393 C9.93883109,27.205549 9.90884402,27.2244636 9.83041627,27.2601912 Z M16.026208,11.2016945 C16.2776382,11.527446 16.5406018,11.8342828 16.4460272,12.2630138 C16.699764,12.2735219 16.9373539,12.2251846 17.1772505,12.1789489 C17.5232553,12.111697 17.8046725,11.9645834 17.9892083,11.6766612 C18.1253036,11.4643973 18.3305997,11.3130805 18.5843365,11.2332188 C18.8426867,11.1491539 19.1102637,11.0861053 19.3778408,11.0230566 C19.6108173,10.9684144 19.6638714,10.9074674 19.6384977,10.6888986 C19.6315776,10.6405613 19.6177374,10.592224 19.6108173,10.5438867 C19.5969771,10.464025 19.5416163,10.419891 19.4585752,10.4072812 C19.1633178,10.3589439 18.8680604,10.325318 18.5681896,10.3736553 C18.282159,10.419891 18.0307289,10.5375818 17.7862189,10.6678824 C17.2971988,10.9305852 16.775885,11.1008166 16.2084372,11.1575604 C16.1461564,11.1638653 16.0907956,11.1869831 16.026208,11.2016945 Z M14.2477436,26.965964 C14.4922536,26.8797975 14.757524,26.7915294 15.0181809,26.6906515 C15.2211703,26.6128915 15.4333866,26.5372331 15.6156157,26.4279487 C15.7701645,26.3333757 15.9062597,26.2030751 16.0239014,26.0685713 C16.1530765,25.9193561 16.17153,25.7386166 16.1069425,25.5515722 C16.0123679,25.2783613 15.8209119,25.0766055 15.5625617,24.9252887 C15.1865698,24.70672 14.9120727,24.7571589 14.6606426,25.0934185 C14.5522278,25.2384304 14.4622666,25.3918489 14.3561584,25.5368608 C14.2131431,25.7344133 14.030914,25.8878318 13.7656437,25.9424739 C13.7379633,25.9487788 13.7125896,25.9634902 13.6572288,25.9887096 C13.8579116,26.3144611 14.0493676,26.6339077 14.2477436,26.965964 Z M36.8787612,29.6119066 C36.8995215,29.9523695 36.7749597,30.2066658 36.6388645,30.4567588 C36.6365578,30.4630637 36.6319444,30.4693686 36.6296377,30.4756734 C36.5189162,30.7236649 36.5419832,30.8350509 36.7634262,31.0157904 C37.1048176,31.2932046 37.4877295,31.5096717 37.9190821,31.6504804 C38.0182702,31.6841063 38.126685,31.7009193 38.2304864,31.7156307 C38.3296744,31.730342 38.4081022,31.6925128 38.4634629,31.6126512 C38.5787979,31.446623 38.7056663,31.2890013 38.8140811,31.1208715 C38.9778567,30.8665752 38.9617098,30.7320714 38.7471868,30.5156043 C38.3988754,30.1583285 37.9767496,29.8956257 37.4785027,29.7422072 C37.300887,29.687565 37.109431,29.6623456 36.8787612,29.6119066 Z M35.121057,30.3937102 C35.2317785,30.1394139 35.3286599,29.9124386 35.4301546,29.6896667 C35.5293426,29.4689963 35.5085823,29.3996428 35.2917527,29.2693422 C35.0149489,29.1012124 34.7058513,29.0339605 34.3783002,29.0171475 C33.7439581,28.9835215 33.1257629,29.1012124 32.5052611,29.1831757 C32.3507123,29.2041919 32.2469109,29.3008665 32.1777099,29.4248622 C32.0716018,29.6077034 32.1408027,29.798951 32.3507123,29.8746094 C32.4637405,29.9145403 32.5883022,29.9355565 32.7082505,29.9460646 C33.1188429,29.9838938 33.5317419,30.0112149 33.9423342,30.0490441 C34.3598466,30.0847717 34.7865858,30.1120928 35.121057,30.3937102 Z M14.902846,20.6274709 C14.8820857,20.7640764 14.9051527,20.9132916 15.0620081,21.0141694 C15.1450493,21.06671 15.2327038,21.0877262 15.3019048,20.9931532 C15.4956674,20.7304504 15.7840047,20.6358774 16.1092492,20.6148612 C16.5636688,20.5854385 16.9996348,20.5097801 17.4125338,20.3101259 C17.6662706,20.1882318 17.7769921,20.0306102 17.7631519,19.7784155 C17.7493117,19.5325257 17.6362835,19.4274445 17.3617864,19.4169364 C17.1103563,19.4085299 16.8704596,19.4610705 16.65363,19.5724565 C16.4275736,19.6880457 16.1899836,19.753196 15.9339401,19.7679074 C15.5787086,19.7910252 15.2373172,19.8666836 14.9074593,19.9843745 C14.7206168,20.0516264 14.7021632,20.1125734 14.8174981,20.2638902 C14.8959259,20.371073 14.9351397,20.4782557 14.902846,20.6274709 Z M24.1111858,18.4039544 C24.1873068,18.4123609 24.2403609,18.4207674 24.2934149,18.422869 C24.6232728,18.4417836 24.950824,18.4585966 25.2806818,18.4775112 C25.5551789,18.4922226 25.8319828,18.517442 26.1064799,18.5237469 C26.3556033,18.5300518 26.4916985,18.4207674 26.5355257,18.2000971 C26.5816597,17.9794267 26.526299,17.7713661 26.4271109,17.5696103 C26.3671368,17.4498179 26.2748688,17.3804643 26.1249334,17.3888708 C25.7812354,17.4077854 25.4352306,17.4077854 25.0938393,17.4456146 C24.8608627,17.4729357 24.6278862,17.5317811 24.4110566,17.6116428 C24.0742786,17.7356385 24.0235312,17.8365164 24.0673585,18.1622679 C24.0742786,18.2379263 24.0927322,18.3135847 24.1111858,18.4039544 Z M28.5838739,24.2359566 C28.812237,24.5490983 29.0129198,24.8391222 29.2297494,25.1165363 C29.3220174,25.2342272 29.4373523,25.3435116 29.5596073,25.4359829 C29.6449551,25.5011332 29.7556767,25.5494706 29.8640915,25.5704868 C30.1247484,25.6230273 30.3900187,25.6545517 30.6714359,25.6965841 C30.5976215,25.1879915 30.5238072,24.6815005 30.4453795,24.1434852 C29.8502513,24.166603 29.2297494,24.0699284 28.5838739,24.2359566 Z M24.3049484,24.8118011 C24.2980283,25.0408779 24.2749614,25.2762596 24.2841882,25.5116414 C24.2980283,25.8415961 24.4433503,26.0118275 24.7939685,26.1021972 C25.3937101,26.2535141 25.6451402,26.0685713 25.7512483,25.6188241 C25.8273694,25.2867678 25.898877,24.9526098 25.9726914,24.6184518 C25.8135292,24.561708 25.7673952,24.5511999 25.562099,24.5869275 C25.1538134,24.6541794 24.7501412,24.7298378 24.3049484,24.8118011 Z M20.4550689,15.0981024 C20.5427234,15.4385652 20.5634837,15.7769264 20.7826201,16.0900682 C21.0317435,15.9555643 21.2808669,15.84628 21.5023099,15.6991664 C22.136652,15.2767403 22.1551056,14.8543142 22.0397707,14.2070145 C21.9013688,14.2448437 21.7629669,14.2826729 21.6268717,14.3226037 C21.4492559,14.3730427 21.2739468,14.4402946 21.1586119,14.5769001 C20.974076,14.7975704 20.7341794,14.9530905 20.4550689,15.0981024 Z M26.8261697,25.7995636 C27.3451769,25.8121734 27.7972897,25.6503484 28.2909232,25.6062144 C28.0256529,25.1417558 27.7788362,24.7046184 27.5343261,24.2758874 C27.4074577,24.3074117 27.2852027,24.3515458 27.1583343,24.3683588 C27.0037855,24.389375 26.9184377,24.4692366 26.9045975,24.5995372 C26.8861439,24.750854 26.8723037,24.9084757 26.8907573,25.0576909 C26.9184377,25.2972759 26.9230511,25.530556 26.8261697,25.7995636 Z M32.9135467,21.2033155 C32.8397323,21.1570798 32.7843716,21.1045392 32.7174773,21.083523 C32.4798874,21.0099662 32.2422975,20.9216981 31.9954808,20.8817672 C31.5387545,20.8103121 31.0935617,20.8838688 30.6806627,21.0793197 C30.609155,21.1129457 30.5007402,21.1465716 30.5261139,21.2369414 C30.5468742,21.3083966 30.6253019,21.367242 30.6829694,21.4260874 C30.701423,21.445002 30.7360235,21.4534085 30.7660105,21.461815 C30.9505464,21.5080507 31.1327756,21.5753026 31.3219248,21.590014 C31.748664,21.6215383 32.1777099,21.6278432 32.6067558,21.6404529 C32.6644233,21.6425545 32.7243974,21.6320464 32.8051319,21.6236399 C32.7082505,21.4555101 32.8005185,21.3357177 32.9135467,21.2033155 Z M22.9024758,17.7314353 C22.6902596,17.7650612 22.4734299,17.7965856 22.2566003,17.838618 C22.136652,17.8617358 22.0167037,17.8890569 21.9059822,17.9310894 C21.7398999,17.9920364 21.6384051,18.1076257 21.5945779,18.2694506 C21.5645908,18.3829382 21.50923,18.4901209 21.4654028,18.6015069 C21.433109,18.6834702 21.3685214,18.7591286 21.4169621,18.8600065 C21.5599774,18.8600065 21.700686,18.8452951 21.8344745,18.8621081 C22.1066649,18.8957341 22.3650151,18.8305838 22.625672,18.7885513 C22.96245,18.7339091 23.0962385,18.517442 23.0178108,18.2211133 C22.9739835,18.0655932 22.9416897,17.9079715 22.9024758,17.7314353 Z M22.2612137,24.3851718 C22.2796673,24.5680129 22.3188812,24.7256346 22.3096544,24.8811546 C22.3004276,25.024065 22.2381467,25.1648737 22.1989328,25.3056824 C22.1758659,25.3918489 22.1481855,25.4759138 22.1297319,25.5389624 C22.3534816,25.6566533 22.5656979,25.7428198 22.7456204,25.8668155 C22.9232361,25.9887096 23.0893184,25.9845064 23.2923079,25.9193561 C23.2392538,25.4149667 23.1861997,24.9168822 23.1354524,24.4398139 C22.9947438,24.4440172 22.8448084,24.4587285 22.6971797,24.4482204 C22.5472443,24.4377123 22.4088424,24.3536474 22.2612137,24.3851718 Z M24.3810695,13.9211939 C24.2818815,13.9211939 24.224214,13.9190922 24.1665465,13.9211939 C23.9451035,13.9253971 23.7236605,13.931702 23.5022174,13.9380068 C23.3568954,13.9443117 23.2092667,13.9422101 23.0685581,13.9674296 C22.840195,14.0073604 22.6833395,14.181795 22.6902596,14.3604329 C22.694873,14.5390708 22.8655687,14.7008958 23.0939318,14.7366234 C23.3730423,14.7807574 23.6336992,14.7408266 23.8459155,14.5579854 C24.002771,14.4234816 24.1457863,14.2784697 24.2864949,14.1292545 C24.3280154,14.0851204 24.3395489,14.0136652 24.3810695,13.9211939 Z M16.7020707,25.0450812 C16.9535008,25.3182921 17.1910907,25.5788933 17.433294,25.8373928 C17.4725079,25.8794253 17.5232553,25.9151529 17.5716959,25.9466772 C17.7839122,26.0832826 17.9292342,26.037047 17.9984351,25.814275 C18.083783,25.5368608 17.9684481,25.2405321 17.7008711,25.0555893 C17.4102271,24.8538335 17.0503821,24.8412238 16.7020707,25.0450812 Z M20.3374273,24.4335091 C20.5888574,24.7151265 20.4204684,25.068199 20.4827493,25.3939505 C20.6234579,25.3666294 20.7410995,25.3414099 20.8610478,25.3224953 C20.9856095,25.3035807 21.1124779,25.2930726 21.2739468,25.274158 C21.218586,25.0513861 21.165532,24.8496303 21.1217047,24.6478746 C21.0755707,24.4419156 21.0386636,24.2338549 20.9902229,23.9984732 C20.7687799,24.1476884 20.5634837,24.2842939 20.3374273,24.4335091 Z M19.0364494,25.6356371 C19.2878795,25.6125192 19.5093226,25.591503 19.735379,25.5704868 C19.7146187,25.4759138 19.6915517,25.3960521 19.6823249,25.3140888 C19.6684848,25.1837883 19.6730981,25.0492844 19.6523379,24.9189838 C19.6154307,24.673094 19.3593872,24.5575048 19.1241039,24.6772973 C19.0203025,24.7298378 18.9234212,24.7949881 18.8080863,24.86224 C19.0687432,25.0955201 18.9764752,25.3876456 19.0364494,25.6356371 Z" id="Shape" fill="#000000" fill-rule="nonzero"></path>
        </g>
    </g>
</svg>