<?xml version="1.0" encoding="UTF-8"?>
<svg width="48px" height="48px" viewBox="0 0 48 48" version="1.1" xmlns="http://www.w3.org/2000/svg" xmlns:xlink="http://www.w3.org/1999/xlink">
    <title>mabam</title>
    <g id="Page-1" stroke="none" stroke-width="1" fill="none" fill-rule="evenodd">
        <g id="mabam">
            <rect id="Rectangle" x="0" y="0" width="48" height="48"></rect>
            <path d="M23.1066998,1.5 C31.3418114,7.52977667 40.6098015,15.9602978 46.5,23.8045906 C39.8281638,29.9739454 35.557072,36.8691067 24.1674938,46.1370968 C17.2165012,38.7673697 7.44602978,31.6488834 1.5,24.3349876 C4.98945409,18.4447891 19.6451613,2.97952854 23.1066998,1.5 Z M33.9379653,16.6023573 L33.882134,16.6023573 C33.882134,16.9094293 33.7704715,17.2444169 33.7704715,17.5514888 C33.6867246,17.5235732 33.6867246,17.5514888 33.6308933,17.4956576 C33.4075682,17.7748139 33.3796526,18.0818859 33.1842432,18.3889578 C32.8771712,18.8635236 32.514268,19.3380893 32.1792804,19.7847395 C31.7047146,20.3988834 31.1743176,20.8455335 30.616005,21.4596774 C28.4385856,23.8883375 26.8473945,25.0049628 23.5533499,26.2890819 C22.0179901,26.9032258 20.6222084,27.4894541 18.6960298,27.7406948 C17.7468983,27.8523573 16.7698511,27.880273 15.8207196,27.9640199 C15.6253102,27.9640199 15.5973945,27.9361042 15.485732,27.880273 C15.485732,27.6290323 15.5136476,27.2940447 15.4299007,27.0986352 L15.4009512,27.0696857 C15.3926799,27.0614144 15.3833747,27.0521092 15.3740695,27.042804 C15.3182382,27.1544665 15.3461538,27.4336228 15.2903226,27.5452854 C15.1507444,27.9361042 14.7599256,27.8523573 14.4528536,28.0477667 C14.2853598,28.1594293 14.0062035,28.3827543 13.9503722,28.6060794 C13.9224566,28.7177419 13.9503722,28.7735732 13.8945409,28.8294045 C13.9503722,29.2760546 14.4807692,29.5831266 14.6761787,30.0297767 C14.7878412,30.2810174 14.7599256,30.5601737 14.8715881,30.8114144 C14.9274194,30.9230769 15.0669975,31.0347395 15.0949132,31.1743176 C15.1228288,31.3138958 15.0669975,31.4813896 15.0390819,31.5372208 C15.0111663,31.7605459 15.1507444,31.8722084 15.2344913,31.983871 C15.5136476,32.0397022 15.7090571,32.1513648 15.8486352,31.9001241 C16.016129,31.9280397 16.2394541,32.0676179 16.3511166,32.1792804 C16.7977667,32.1513648 17.1327543,31.7884615 17.6631514,31.9001241 C18.2772953,32.0397022 18.9193548,32.0955335 19.5614144,31.9559553 L20.119727,31.9559553 C20.5663772,31.8442928 21.2084367,31.8442928 21.7109181,31.8163772 C21.9063275,31.8163772 22.101737,31.676799 22.2133995,31.7326303 C22.325062,31.7605459 22.4088089,31.9559553 22.5483871,32.0117866 C23.0787841,32.1792804 24.4745658,31.9001241 25.0328784,31.8163772 C25.1445409,31.7884615 25.367866,31.9001241 25.4516129,31.9001241 C26.0099256,32.0397022 26.5124069,31.8722084 26.9032258,31.7605459 C27.1544665,31.676799 27.2940447,31.8722084 27.4057072,31.9001241 C27.5452854,31.9280397 28.41067,32.0117866 28.4665012,31.983871 C28.5502481,31.983871 28.7456576,31.9001241 28.8852357,31.9280397 C29.2202233,32.0117866 29.7506203,32.2351117 30.2810174,32.1234491 C31.6209677,31.8163772 32.514268,31.4255583 33.9937965,31.4534739 C34.0775434,31.369727 34.2450372,31.4255583 34.3008685,31.2859801 C34.3566998,31.1743176 34.4683623,29.3039702 34.4404467,29.2760546 C34.4962779,29.0527295 34.6079404,29.1085608 34.6637717,28.9131514 C34.8033499,28.8294045 34.412531,28.1315136 34.3008685,27.9919355 C34.2729529,27.9640199 34.2171216,27.9640199 34.1612903,27.9361042 C34.1333747,28.0198511 34.1054591,28.103598 34.1054591,28.2710918 C33.9379653,28.1873449 33.9100496,28.0198511 33.8263027,27.8523573 C33.6867246,27.7127792 33.3238213,27.4057072 33.1004963,27.1823821 C32.9888337,27.042804 33.044665,27.2382134 32.8771712,27.1265509 C32.5980149,27.4894541 32.2351117,27.9081886 31.7326303,28.1873449 C31.2580645,28.4385856 30.7834988,28.8573201 30.3368486,29.1923077 C29.7506203,29.5831266 29.1643921,30.0576923 28.5781638,30.5043424 C28.3827543,30.6439206 28.3269231,30.7834988 28.1594293,30.9509926 C28.1873449,31.2022333 28.1594293,31.3138958 28.1873449,31.5651365 C27.4894541,31.5930521 26.735732,31.5930521 26.0657568,31.6209677 C25.7586849,31.6209677 25.2003722,31.5372208 25.0049628,31.676799 C24.8653846,31.676799 24.7537221,31.5930521 24.6699752,31.5372208 L24.6141439,31.5372208 C24.7258065,31.3418114 25.1445409,31.3138958 25.3120347,31.1743176 C26.0657568,30.5601737 27.1544665,30.308933 28.0198511,29.8064516 C29.248139,29.0527295 30.2810174,28.1873449 31.2859801,27.2382134 C31.676799,26.8753102 32.1792804,26.5961538 32.4863524,26.1774194 C33.1284119,25.3399504 33.6588089,24.530397 33.9379653,23.3300248 C33.9379653,22.4367246 34.0217122,21.4875931 33.9937965,20.5663772 C34.1612903,20.119727 34.0775434,19.2822581 33.9937965,18.751861 C33.9658809,18.5006203 34.0496278,18.3331266 34.0775434,18.1935484 C34.1054591,18.0260546 34.0496278,17.7189826 34.0217122,17.5794045 C33.9379653,17.2723325 34.1054591,16.9094293 33.9379653,16.6581886 L33.9379653,16.6023573 Z M22.6879653,11.075062 C22.2692308,11.1867246 21.6550868,11.1588089 21.2921836,11.2704715 C19.0310174,11.8846154 17.0210918,13.2524814 16.1277916,15.1507444 C15.9882134,15.4578164 16.016129,15.9044665 15.9044665,16.2115385 C15.5694789,16.9931762 15.0390819,17.7189826 14.7040943,18.5564516 C14.5645161,18.8914392 14.5924318,19.366005 14.424938,19.7009926 L14.3656172,19.7847395 L14.2051024,19.9522333 C14.1806762,19.9801489 14.1597395,20.0080645 14.1457816,20.0359801 C13.810794,20.5384615 13.6153846,21.0688586 13.2524814,21.5434243 C12.8058313,22.1575682 12.219603,22.7437965 11.8566998,23.4137717 C11.7729529,23.5533499 11.8287841,23.6370968 11.7729529,23.7766749 C11.6612903,23.9720844 11.3542184,24 11.2704715,24.2233251 C11.1588089,24.4187345 11.4100496,24.6420596 11.4937965,24.7816377 C11.7729529,24.8653846 12.3870968,25.060794 12.6941687,25.0328784 C12.8855902,25.0268965 13.0898301,25.0298875 13.2972746,25.035259 L13.7135878,25.0472228 C14.3359213,25.0640699 14.9294133,25.062788 15.2344913,24.8653846 C15.4299007,24.7258065 15.5415633,24.4466501 15.7369727,24.307072 C16.0998759,24.0558313 16.5744417,23.7766749 16.853598,23.4416873 C17.2723325,22.9112903 17.691067,22.4367246 18.0260546,21.8784119 C18.221464,21.57134 18.1656328,21.0688586 18.6122829,20.9851117 C18.6122829,20.9013648 18.6401985,20.8455335 18.6401985,20.7617866 L18.7797767,20.7617866 C18.9193548,21.7667494 19.5334988,22.6879653 19.9522333,23.4416873 C20.1476427,23.7766749 20.1755583,24.1674938 20.5105459,24.3349876 C20.6780397,24.4187345 21.4596774,24.6978908 21.6271712,24.6978908 C21.6830025,24.6978908 21.7388337,24.6141439 21.8504963,24.6420596 C22.101737,24.6978908 22.4925558,24.8933002 22.7717122,24.9491315 C22.9950372,25.0049628 23.2183623,24.8933002 23.3858561,24.8653846 C23.5812655,24.837469 23.8325062,24.9770471 24.0837469,24.9212159 C24.307072,24.8653846 24.5583127,24.7816377 24.7816377,24.6978908 C25.4236973,24.4187345 25.7586849,23.9720844 26.2611663,23.6091811 C26.6519851,23.3579404 26.9590571,23.1904467 27.3219603,22.9112903 C27.6848635,22.6600496 27.6848635,22.2692308 27.9361042,21.9063275 C28.1315136,21.7109181 28.3269231,21.5155087 28.5502481,21.3200993 C28.8014888,20.957196 28.9689826,20.426799 29.1643921,20.0359801 C29.3039702,19.7289082 29.2202233,19.4218362 29.3039702,19.058933 C29.3598015,18.8076923 29.5272953,18.4727047 29.5831266,18.221464 L29.5831266,17.5235732 C29.9181141,16.0719603 28.4385856,14.424938 27.8523573,13.6433002 C27.6569479,13.3920596 26.6799007,12.3033499 26.4007444,12.2754342 C26.3169975,12.2475186 26.2611663,12.2475186 26.1774194,12.3312655 C25.7586849,12.2475186 25.7866005,11.7450372 25.4795285,11.5496278 C25.1445409,11.3263027 24.7816377,11.2425558 24.307072,11.1308933 C24.0279156,11.075062 23.4975186,11.1029777 23.3300248,11.1308933 C23.1904467,11.1308933 22.8833747,11.0471464 22.6879653,11.075062 Z M23.6091811,14.3970223 C24,14.4528536 24.2791563,14.7040943 24.5862283,14.8436725 C24.7258065,14.8995037 24.9212159,14.8715881 25.0328784,14.9274194 C25.2282878,15.0111663 25.4795285,16.3511166 25.367866,16.5744417 C24.8933002,17.6352357 23.9162531,18.8356079 22.7158809,19.1426799 C22.4088089,19.2264268 22.101737,19.0031017 21.9342432,18.8914392 C21.3200993,18.528536 21.0409429,18.2493797 20.7897022,17.5235732 C20.6501241,17.0210918 20.9013648,16.4627792 20.6501241,16.0719603 C20.6501241,15.3461538 22.1296526,14.7878412 22.7158809,14.5924318 C22.9950372,14.5086849 23.3579404,14.5366005 23.6091811,14.3970223 Z" id="Combined-Shape" fill="#401A64" fill-rule="nonzero"></path>
        </g>
    </g>
</svg>