<?xml version="1.0" encoding="UTF-8"?>
<svg width="48px" height="48px" viewBox="0 0 48 48" version="1.1" xmlns="http://www.w3.org/2000/svg" xmlns:xlink="http://www.w3.org/1999/xlink">
    <title>mdnb</title>
    <g id="Page-1" stroke="none" stroke-width="1" fill="none" fill-rule="evenodd">
        <g id="mdnb">
            <rect id="Rectangle" x="0" y="0" width="48" height="48"></rect>
            <path d="M21.6724913,1.59505503 C21.440639,1.70946499 21.4425443,1.80692978 21.6827323,2.09752146 C22.1494138,2.66236054 22.0908256,2.7553787 21.219385,2.83121135 C20.5253763,2.89154101 19.188326,3.23392961 18.7708252,3.45830292 C18.6509099,3.52271862 18.528732,3.57547699 18.4994378,3.57547699 C18.0807463,3.57547699 16.1660301,4.88482207 15.4110516,5.68749443 C15.2261175,5.88410651 15.0186771,6.10042785 14.950086,6.16820856 C14.8816139,6.23598924 14.7526484,6.39967241 14.6635752,6.53186878 C14.574502,6.66406516 14.4055249,6.89961508 14.2879912,7.05536646 C14.1705766,7.2111178 13.9244345,7.63294445 13.7410486,7.99275897 L13.4076195,8.64701086 L13.1694559,8.63559391 C13.038466,8.62934464 12.6847931,8.61852856 12.3835161,8.61155822 L11.8357399,8.59893944 L11.5023109,8.78617761 C10.5906207,9.29789777 10.3267354,10.0692036 11.0155045,10.2089712 C11.6795046,10.3436913 12.2912277,10.9496315 12.5351073,11.7139669 L12.6454961,12.0600811 L12.6454961,24.0538982 L12.6454961,36.0477152 L12.4902134,36.4563222 C12.2365692,37.1239139 11.7496438,37.5815538 11.0513481,37.808571 C10.6800511,37.9292303 10.557635,38.0596239 10.6175332,38.2705373 C10.6777885,38.482412 10.9629894,38.8691465 11.1486379,38.9907672 C11.2384256,39.0495345 11.3439321,39.1276505 11.3832291,39.164305 C11.5823338,39.3504615 12.1172493,39.4655926 12.5386797,39.4128342 C12.702179,39.3924038 12.964278,39.3732954 13.1208706,39.3701708 L13.4058333,39.3646426 L13.7177085,39.9905323 C13.8891863,40.3347238 14.1038907,40.7177327 14.1948692,40.8416366 C14.2858477,40.9655408 14.4460127,41.188472 14.5508047,41.3370125 C14.7771792,41.6578891 15.6594562,42.6408294 15.844033,42.7777129 C15.915363,42.8305912 16.1144677,42.9881456 16.2864218,43.1279131 C16.4583759,43.2675604 16.6525983,43.4248742 16.7180933,43.4773921 C16.917079,43.6368692 18.204115,44.3645499 18.4328711,44.4468725 C18.5507621,44.4894155 18.8830003,44.6105555 19.1711782,44.7163125 C19.8006446,44.9471756 20.8765486,45.1907773 21.4337322,45.2286338 C22.0757022,45.2721382 22.1352431,45.585564 21.5892531,46.0470496 C21.4902961,46.1306936 21.4817222,46.1613394 21.5249489,46.2762301 C21.6792789,46.6856781 22.9529777,46.4959164 23.5417181,45.9756632 C23.9193265,45.642048 23.9476679,45.642048 24.3271816,45.9762642 C24.8987742,46.4798121 26.1259121,46.6821931 26.3191818,46.3048325 L26.3939652,46.1589356 L26.1525864,45.9012729 C25.7075777,45.4264476 25.7951029,45.2914869 26.6021202,45.209285 C26.890179,45.1798411 27.3817486,45.0912697 27.6945765,45.0123122 C28.0072853,44.9333552 28.2915335,44.8688191 28.3261863,44.8688191 C28.3608391,44.8688191 28.48004,44.8287998 28.5910242,44.7798872 C28.7021276,44.7309743 28.9751821,44.6206507 29.197865,44.534843 C29.8376915,44.2881166 30.7143716,43.8006725 31.2130862,43.414539 C31.8849456,42.8940457 32.0221279,42.7743477 32.4293876,42.3533625 C33.2180663,41.537951 33.7138038,40.8506501 34.2034681,39.8934281 L34.4739029,39.3646426 L34.7295715,39.3714928 C34.8702071,39.3752183 35.1352832,39.3934854 35.3186691,39.4118728 C36.0495931,39.4856624 36.6926348,39.1891819 37.080246,38.5999466 C37.4015287,38.1114209 37.3599691,37.9872765 36.8143364,37.8070087 C36.1424769,37.585039 35.5787437,37.0685116 35.388451,36.5005479 C35.2317394,36.0331736 35.2086375,35.5225351 35.2051842,32.4663951 C35.2017308,29.3780473 35.2047078,29.4378962 35.002626,28.3955878 C34.8724696,27.7237899 34.4609229,26.385602 34.3391023,26.2374218 C34.3121898,26.2046131 34.2240693,26.0513854 34.14357,25.896956 C33.8952844,25.4212894 33.8197866,25.2875307 33.6734351,25.0633978 C33.5956746,24.944421 33.4946933,24.7837424 33.4488468,24.7062272 C33.4031194,24.6288322 33.3071395,24.4990394 33.2356904,24.4177987 C33.1641222,24.3366782 33.0191997,24.1610974 32.9136933,24.0276992 C32.569785,23.5931337 31.9348409,23.0269726 31.0317246,22.3492859 C30.7197303,22.1152983 30.7141335,22.1078472 30.7472382,21.9745693 C30.7664104,21.8974146 30.8506012,21.80007 30.9533688,21.7360149 C31.8250475,21.1924474 32.9316746,20.082118 33.5435168,19.1372744 C34.7705356,17.2424195 35.1180163,16.0417159 35.2231655,13.3339735 C35.2727035,12.0558748 35.2965199,11.7774212 35.3754711,11.5486012 C35.5975587,10.9056461 36.2516749,10.3314331 36.9172231,10.1955112 C37.5470467,10.0669202 37.2932834,9.35822739 36.4239863,8.81850561 L36.0807925,8.6054291 L35.5806491,8.60374659 C35.3055701,8.60278519 34.960352,8.62021107 34.8135241,8.64244409 C34.5053405,8.68931372 34.4153146,8.61131784 34.1781037,8.0916659 C34.1123705,7.947692 33.9832859,7.71082014 33.8914738,7.56540411 C33.7995427,7.41998809 33.6879631,7.23070692 33.6434265,7.14477925 C33.5988899,7.05885163 33.5454221,6.98854719 33.5245828,6.98854719 C33.5037435,6.98854719 33.4450362,6.90742667 33.3940692,6.8082794 C33.2976129,6.6206807 33.1643604,6.45014739 32.8417679,6.10162963 C32.7369759,5.9884215 32.5553761,5.79012691 32.4383187,5.66105517 C32.3211423,5.53186324 32.1496645,5.36541597 32.057257,5.29102549 C31.9647305,5.21663497 31.8161164,5.09765824 31.726805,5.02663273 C31.6374937,4.95560719 31.4767333,4.81860371 31.3695596,4.7222205 C31.2623861,4.62583733 31.0781665,4.49484274 30.9602755,4.4311481 C30.7609326,4.32358833 30.5657576,4.20292909 30.1505193,3.93048436 C30.0588264,3.87039508 29.8123271,3.75310087 29.6027431,3.66981716 C29.3931592,3.5866536 29.1145078,3.46695577 28.9835178,3.40398223 C28.8525278,3.3410087 28.6060285,3.25411959 28.4357416,3.21085533 C28.2654546,3.16759106 28.0935005,3.1147125 28.0536081,3.09356111 C27.9472681,3.036957 26.9578175,2.86257795 26.438859,2.80885818 C25.7591401,2.73843354 25.7125792,2.58953235 26.205935,2.06339076 C26.4799422,1.77111658 26.4786323,1.78205282 26.2573784,1.63026734 C25.8165376,1.32801835 24.9272348,1.56573147 24.1327211,2.19823107 L23.9606479,2.33523459 L23.7502303,2.19823107 C23.6344828,2.12287913 23.4372834,1.98731775 23.3121284,1.89694349 C22.8648572,1.57426415 22.0271168,1.41995492 21.6724913,1.59505503 M23.0884928,5.79877976 C23.1881643,5.93758598 23.329038,6.1439325 23.4015588,6.25750121 C23.5470768,6.48487896 23.8546651,6.79662207 23.9324255,6.79554047 C24.0348358,6.79397816 24.5048516,6.2642312 24.6398904,5.99815594 C24.8030324,5.6765582 25.0379808,5.53114217 25.3358044,5.56755626 C25.4819177,5.58546286 25.8159422,5.61815143 26.0779221,5.64026427 C26.3594315,5.66405962 26.6546352,5.72090407 26.7997959,5.77919064 C26.9348347,5.83351137 27.1744272,5.9116274 27.3320915,5.95284863 C28.5917387,6.28237815 30.0676384,7.49606112 30.8650101,8.85816456 C30.9305051,8.97005076 31.0335108,9.13878141 31.0940044,9.23300139 C31.23464,9.45244737 31.4110001,9.92522968 31.4832828,10.2769922 C31.5143631,10.4281768 31.5803344,10.6442578 31.6298725,10.7572256 C31.8792297,11.326271 31.8799442,14.9009813 31.630706,15.3939536 C31.5805726,15.4932211 31.5144822,15.713989 31.4838782,15.8844022 C31.4333875,16.1654997 31.2701264,16.6112419 31.1500919,16.7951151 C31.1242512,16.834774 31.0493487,16.9753829 30.9838538,17.1075792 C30.9182397,17.2397756 30.8117806,17.4236488 30.7471191,17.5161862 C30.6824577,17.6087237 30.5484907,17.8012497 30.4495337,17.9439016 C29.6627603,19.0782667 27.9102336,20.2105888 26.6086696,20.4253479 C25.7666423,20.5643944 25.5931401,20.6450342 25.6741157,20.8600336 C25.7499709,21.0612124 26.1312707,21.6195619 26.4733927,22.0299716 C26.5702062,22.1463044 26.6688059,22.2760972 26.6922651,22.3184 C26.8012249,22.5146516 28.2212753,23.9640046 28.6977215,24.3651605 C29.0641362,24.673779 29.8984232,25.4370328 30.1176528,25.6642904 C30.2447131,25.7960061 30.4598938,26.104264 30.9859972,26.9083785 C31.1086514,27.095857 31.2451192,27.4119266 31.3619384,27.7794325 C31.4629198,28.0967038 31.5831924,28.4752662 31.629277,28.6206822 C31.8981637,29.4695031 31.9025698,36.7270844 31.6346357,37.2595955 C31.5841451,37.3598244 31.5167447,37.5695359 31.4848308,37.7256479 C31.4098093,38.092673 31.2220173,38.5982641 31.0816199,38.8118214 C31.0207691,38.9043588 30.9418178,39.0352333 30.9060933,39.1026534 C30.5413458,39.7918774 30.0433458,40.3775074 29.3156369,40.972992 C28.745116,41.4397651 27.9052322,41.9154319 27.3366166,42.093897 C26.657255,42.3069736 25.7743826,42.4612827 25.2182707,42.4642871 C25.0022563,42.4652484 24.7973165,42.289908 24.5572476,41.8981261 C24.4875848,41.7845576 24.3251572,41.5812152 24.1963107,41.4462549 L23.9620769,41.2010908 L23.7815488,41.337854 C23.6822346,41.4130854 23.5867311,41.497451 23.5693451,41.5253322 C23.5123049,41.6163075 23.3420179,41.8587077 23.1200495,42.1648022 L22.9022489,42.4652484 L22.5271412,42.4652484 C21.9168471,42.4652484 20.9845557,42.3269233 20.4334452,42.154467 C20.2369602,42.0930559 20.0185642,42.0296014 19.9480678,42.0134975 C19.8287479,41.9862169 19.4792428,41.7936909 19.1895168,41.5956369 C19.1210448,41.5488872 18.9924364,41.4799047 18.9037205,41.4424091 C18.7576072,41.3806376 18.4026243,41.1158842 17.956544,40.7358796 C17.1996601,40.0912419 16.3584663,38.8244401 16.1738895,38.0509711 C16.1380459,37.9009883 16.0658824,37.6809414 16.0133673,37.5619647 C15.928462,37.3691983 15.8844017,37.129322 15.7120903,35.9199655 C15.6847015,35.7279202 15.6725552,33.8239317 15.6817245,31.1608958 L15.696967,26.7218615 L15.8221219,26.2651831 C16.0165825,25.5560096 16.4392038,24.807057 16.8446773,24.4531312 C17.4680704,23.9088427 17.8031666,23.7151149 18.362851,23.5751069 C18.7579644,23.4763201 18.7405785,23.5367699 18.7576072,22.1955775 C18.777851,20.5899924 18.7736832,20.5754508 18.2490088,20.4215021 C17.6120403,20.2346245 16.6478351,19.5258116 16.3901421,19.0548319 C15.6983959,17.7910345 15.7049454,17.8288907 15.6826772,14.9364339 C15.6716025,13.5034252 15.6836298,12.4152086 15.713043,12.1723278 C15.8404605,11.121006 15.9219125,10.6548335 16.0131291,10.4530538 C16.0677877,10.3322744 16.1424519,10.1042957 16.17901,9.9465013 C16.5307776,8.42864648 18.5757693,6.40580149 20.2186217,5.95032486 C20.4284438,5.89215848 20.6942343,5.80899492 20.8092674,5.76549031 C20.9243003,5.72198566 21.2565386,5.66490087 21.5475744,5.63846161 C21.8386103,5.61202231 22.0982087,5.58221803 22.1244066,5.57224325 C22.1506046,5.56214824 22.337444,5.55229361 22.5396449,5.55025057 L22.9073694,5.54640487 L23.0884928,5.79877976 Z M24.4345934,9.62922999 C24.2905044,9.6754987 24.0975919,9.7599842 24.0058989,9.81694884 C23.7981012,9.94614077 23.6575847,9.94818381 23.4919419,9.82464028 C23.0775373,9.51578143 21.8839805,9.53404857 21.4228958,9.85636741 C21.1418628,10.0528593 20.8748814,10.0593489 20.4872702,9.87908116 C19.7450334,9.53380823 18.627808,9.72284905 18.0059629,10.2989849 C17.3851895,10.8742795 17.2531278,11.8963979 17.7333847,12.4085988 C18.1000375,12.7995396 18.623402,12.5276957 18.623402,11.9463922 C18.623402,11.6786344 18.6340003,11.6503925 18.7715397,11.5516057 L18.9196775,11.4451275 L19.1204494,11.5435538 C19.3084795,11.6358508 19.3278898,11.6645735 19.4249415,11.9953048 L19.5287808,12.3485095 L19.5285427,18.2997502 L19.5284236,24.2511111 L19.7070463,24.4165969 C19.8052887,24.5076923 19.8997206,24.5823231 19.9168684,24.5824433 C19.9340162,24.5825635 20.0411898,24.6609199 20.155032,24.756582 C20.9964639,25.4637124 21.8186046,26.1152003 21.9780551,26.2012481 C22.2372962,26.3411359 22.2434884,26.2990734 22.2437266,24.3932823 C22.2439647,23.3676788 22.2636132,22.6124769 22.2931455,22.5053978 L22.3422072,22.3269327 L22.4968945,22.5053978 C22.6462231,22.6777338 22.857236,22.9528225 23.0056119,23.1686631 C23.1298142,23.3492914 23.5096851,23.9287923 23.5860165,24.0538982 C23.8089377,24.4194812 25.4627456,26.1906724 26.0265979,26.6676609 C26.1555634,26.776783 26.3731259,26.9634203 26.510189,27.0823971 C27.3559079,27.8170484 27.6045507,27.9980373 28.7222523,28.6927893 C28.9349324,28.8249857 29.1771448,28.9812178 29.260502,29.0401053 C29.5454648,29.2409236 29.6450172,29.2653198 30.2540014,29.2833466 C31.0304147,29.3063007 31.0909082,29.2253004 30.821188,28.5245394 C30.7753415,28.4055627 30.6899599,28.1676092 30.6312526,27.9957539 C30.4314333,27.4100037 30.2640043,27.0773496 30.0105983,26.7624818 C29.9434361,26.6791981 29.8243543,26.5208028 29.7459985,26.4107192 C29.5622553,26.152696 28.8895623,25.5037319 28.1788821,24.898633 C27.1962192,24.0621905 26.2076022,22.9789012 25.325087,21.7717079 C25.1731387,21.5637991 24.9215188,21.1348819 24.886866,21.0244378 C24.8703137,20.97204 24.8385188,20.9292564 24.8160124,20.9292564 C24.7518273,20.9292564 24.1635632,19.8171243 24.0785388,19.5351855 C24.0585331,19.4690873 24.0143538,19.3825588 23.9802963,19.3428998 C23.8344212,19.1729674 23.5799434,18.6092099 23.4379979,18.1411146 C23.353807,17.8635022 23.23282,17.5260409 23.1691112,17.3912006 C23.1054024,17.2563602 23.0527683,17.1157514 23.0521729,17.0787364 C23.0514584,17.0417214 22.9959663,16.8816436 22.9286851,16.7230079 C22.8612848,16.5643723 22.7791183,16.2723385 22.7460136,16.0740439 C22.7127898,15.8757493 22.6407453,15.4539227 22.5857295,15.1366514 C22.4608127,14.4148591 22.2895731,12.8373958 22.2904066,12.4152086 C22.2931455,11.1133146 23.9275431,10.4959575 24.8912721,11.4327492 C25.2273209,11.7595146 25.2139837,11.5927068 25.2425633,15.8259954 L25.2681659,19.639861 L25.3846279,19.7349222 C25.4800124,19.8129181 25.5443166,19.8246956 25.7418733,19.8004195 C26.2417787,19.7388881 26.9908031,19.5649898 27.1972909,19.4624775 C27.3151819,19.4039506 27.4907085,19.3301609 27.5872838,19.2986742 C27.6838592,19.2670672 27.8274718,19.1746499 27.906423,19.0930487 L28.0500357,18.9448686 L28.0643255,15.4784391 L28.0784962,12.0120096 L28.1985306,11.7956883 C28.4722997,11.3018747 28.9120687,11.3988588 28.9120687,11.9531222 C28.9120687,12.6536428 29.6278694,12.8127592 29.9896398,12.1925178 C30.7828437,10.8324574 28.5897143,9.07652894 27.0929753,9.87331257 C26.8113469,10.0231752 26.3906309,10.0321886 26.2360627,9.89145951 C25.8966796,9.58284109 24.990229,9.45076486 24.4345934,9.62922999 M6.31034478,11.674308 C5.64777369,11.7958085 5.58716106,11.8256128 5.08713663,12.2755611 C4.54067029,12.767572 4.35740338,13.6132684 4.68071048,14.1511874 C5.05605628,14.7755149 5.76256853,14.5528241 5.76256853,13.810241 C5.76256853,13.1364 6.51159298,13.2923917 6.66115972,13.9973589 C6.6985514,14.1733003 6.71522287,15.2695688 6.71522287,17.5426255 C6.71522287,21.2513349 6.74320709,20.9839377 6.34868909,21.0507569 C5.82639638,21.1392083 5.37209936,21.3730757 5.18514094,21.6497267 C4.77692854,22.253744 4.79800604,22.3997609 5.30993863,22.515613 C5.96512665,22.6637931 6.56494165,23.3497722 6.66628024,24.0668774 C6.77107223,24.8082588 6.7137939,34.0313599 6.60292872,34.2563341 C6.35297607,34.763848 5.71862736,34.720103 5.75601905,34.1978072 C5.80877228,33.459911 5.05986688,33.2315718 4.68785539,33.8721233 C3.84940046,35.315828 5.98965751,36.9836656 7.70860316,36.2261804 C8.14146547,36.0353368 8.21029475,36.0350965 8.74116138,36.2218539 C9.75633365,36.5792649 10.9300038,36.2049087 11.1230353,35.4623256 C11.2152047,35.107799 11.1553065,35.0455465 10.6869579,35.0087719 C10.310064,34.9792079 10.0060482,34.8557846 9.87577267,34.6794827 C9.84576409,34.6388623 9.77705387,34.5547374 9.72310981,34.4924849 C9.49483001,34.2292939 9.50173678,34.4630412 9.50173678,27.0297588 C9.50173678,19.8434434 9.50245126,19.81424 9.66845128,19.8821409 C9.6867899,19.889592 9.9325747,20.1661228 10.2147986,20.4966137 C10.905592,21.3057757 11.495166,21.9201284 11.6668819,22.0097815 C11.9070699,22.1351278 11.9129049,22.0850133 11.8974242,20.0270762 L11.8833726,18.1651503 L11.6761703,17.8526861 C11.5620899,17.6808308 11.4243123,17.4764071 11.3698919,17.3984113 C10.947747,16.7931922 10.6278933,16.284116 10.435338,15.9113222 C10.3108975,15.6703642 10.1844327,15.429887 10.1541859,15.3770084 C10.0577297,15.2079173 9.85052732,14.5227794 9.79086736,14.1752231 C9.65297067,13.371349 9.95924901,12.9753607 10.6979134,13.0024009 C11.1872204,13.0203075 11.2829622,12.8461688 11.0464658,12.3690601 C10.7242304,11.7193749 9.4218329,11.4760134 8.49108964,11.8914706 C8.23827897,12.0043182 8.03548266,12.0153747 7.95760318,11.9205538 C7.80243963,11.7319937 6.80727309,11.5832127 6.31034478,11.674308 M40.8202478,11.65544 C40.6499607,11.674308 40.3820267,11.7366806 40.2248387,11.794126 C39.6381229,12.0085245 39.624905,12.010207 39.3912662,11.9031279 C38.3652576,11.4327492 37.0882245,11.7175723 36.7821843,12.4850323 C36.6195186,12.8931586 36.6890624,12.9776441 37.2137367,13.0088906 C38.1123279,13.06237 38.4471859,13.5916362 38.2035446,14.5731342 C38.1528157,14.7773176 38.0968473,15.0849746 38.0792232,15.2568299 C38.06148,15.4286852 38.0159907,15.6450065 37.9780037,15.737544 C37.9398975,15.8300815 37.8672576,16.078851 37.8165287,16.2903653 C37.6309993,17.0625123 37.489411,17.5444282 37.3935502,17.7307049 C37.3396062,17.8353804 37.2945933,17.9543571 37.2935215,17.9950977 C37.2924498,18.035718 37.2281456,18.1879842 37.1506234,18.3334002 C37.0731011,18.4788163 37.0096305,18.6257946 37.0096305,18.6600455 C37.0096305,18.7769792 36.0208944,20.7298803 35.8728758,20.9052207 C35.7998786,20.9917492 35.6827021,21.1686521 35.2994969,21.7705061 C35.0579991,22.1500299 34.1492859,23.2759825 34.027108,23.3472484 C33.7224968,23.5247521 33.7557206,23.9094435 34.115943,24.3770582 C34.2796805,24.589654 34.5524969,25.0347953 34.7221884,25.3663678 C35.1402846,26.1834617 35.1577896,26.1871872 35.7221182,25.5802856 C36.3758773,24.8773614 36.8320796,24.3515804 36.972477,24.1391047 C37.043807,24.0311844 37.1432403,23.8976661 37.193731,23.8421436 C37.2441026,23.7867413 37.4366579,23.5142965 37.6217109,23.2366842 C38.4752892,21.9555811 38.3953853,21.4140566 38.3800238,28.3726337 L38.367163,34.1729302 L38.170678,34.4618394 C37.9238214,34.8248987 37.6579118,34.9715165 37.1736062,35.011536 C36.6366664,35.0558818 36.5616448,35.3342153 36.9493751,35.8424503 C37.3057869,36.3094641 38.3310812,36.4991058 39.0652204,36.2337516 C39.5981113,36.0411054 39.7470826,36.0382211 40.1535088,36.2127204 C41.8832912,36.955664 43.9300689,35.4123313 43.2093857,33.9085374 C42.8925092,33.2473152 42.1447947,33.3940532 42.1345537,34.1194507 C42.1252653,34.7797116 41.4898446,34.7937725 41.2437026,34.13916 L41.1298603,33.8364303 L41.1298603,29.0533249 L41.1298603,24.2702195 L41.2426308,23.8616125 C41.4326856,23.1722685 42.0033253,22.6315852 42.697096,22.483285 C43.0600572,22.4056496 43.0332639,22.025525 42.6355307,21.6095871 C42.3081749,21.2673186 42.2394647,21.2335484 41.4511431,21.026601 C41.0803224,20.9291362 41.1010427,21.1529086 41.1180713,17.4380702 C41.1342666,13.9218868 41.1302179,13.985942 41.3556396,13.621801 C41.599519,13.2276155 42.1734932,13.3694261 42.1216929,13.810962 C42.0320242,14.5749369 42.9144204,14.7788799 43.2365366,14.0686248 C43.7943155,12.8391985 42.4303529,11.4769749 40.8202478,11.65544 M18.1947075,24.4366668 C17.5952498,24.6283515 16.7637016,25.5527647 16.6736758,26.127819 C16.6227088,26.4527817 16.6371177,26.4740533 17.2138308,26.9276071 C17.4734291,27.1316703 17.7520805,27.3549619 17.8330561,27.4237041 C17.9140318,27.4924462 18.2804464,27.7900082 18.6472183,28.0848061 C19.0139902,28.3796041 19.463524,28.7451871 19.6461955,28.8970928 C19.8287479,29.0491187 20.0752472,29.2476536 20.1939717,29.3383884 C20.3125772,29.429003 20.6132587,29.6860649 20.8621396,29.9094767 C21.1110206,30.1328886 21.4646935,30.4505205 21.6480795,30.6152852 C21.8314654,30.7799298 22.0886821,31.0104322 22.2196721,31.1274861 C22.350662,31.2444198 22.5221398,31.4042573 22.6007338,31.4826137 C22.6793278,31.5609701 22.8186535,31.6911234 22.9103465,31.771643 C23.0020395,31.8521626 23.2197209,32.0793001 23.3941758,32.2763929 C23.5686306,32.4734856 23.7844068,32.7142032 23.8737181,32.8114276 C24.0428143,32.995421 24.368503,33.4578679 24.7481358,34.0527517 C25.1881429,34.7424562 25.3423539,35.8383642 25.0738244,36.366669 C24.7774299,36.9495349 23.6163824,37.2265464 22.9975143,36.8620449 C22.7488716,36.7156675 22.5684626,36.5149693 22.4269935,36.2278628 L22.2673048,35.903501 L22.2434884,34.0498674 L22.2196721,32.1961136 L22.0995185,32.0549038 C22.0334281,31.9771483 21.8192,31.772965 21.6233105,31.6011097 C21.4274209,31.4292544 20.9839603,31.039876 20.6377895,30.7358243 C19.4031495,29.6514534 19.5328296,29.3870607 19.5171108,33.0192163 C19.502821,36.3260487 19.5087751,36.2738912 19.1149716,36.493217 L18.9187248,36.6024593 L18.7710634,36.4769929 C18.6361437,36.3624628 18.623402,36.3267698 18.623402,36.0626174 C18.623402,35.1671672 17.5914392,35.2663144 17.4564004,36.1747439 C17.3161221,37.1191068 18.0231107,38.0701997 18.9919601,38.2404926 C19.4585226,38.3224544 20.2133821,38.2749839 20.5022745,38.1454314 C20.8249862,38.0007365 21.0799403,37.9971311 21.3395386,38.1337741 C22.012827,38.4879402 22.5889447,38.5340888 23.2800954,38.2890448 C23.7601141,38.118872 23.7304627,38.1174298 24.3152734,38.340361 C24.9402147,38.578675 25.7043625,38.4922667 26.2678575,38.119593 C26.4570785,37.9944872 26.7905075,38.0054234 27.0543928,38.1453113 C27.4228319,38.3407216 28.5795924,38.3132007 29.0138837,38.098682 C30.1487331,37.5381693 30.5199111,36.0937436 29.6788364,35.5106374 C29.3599354,35.2895089 28.9120687,35.6245666 28.9120687,36.0843697 C28.9120687,36.5247038 28.6667602,36.6877861 28.3648879,36.4482702 C28.0713513,36.2151239 28.0798061,36.3225635 28.0644445,32.659522 L28.0503929,29.31928 L27.9453628,29.2043893 C27.8202078,29.067506 27.4212838,28.7556427 27.0834487,28.5305483 C26.9496008,28.4413758 26.7223928,28.2683187 26.5784229,28.145977 C26.4345721,28.0237554 26.284529,27.897568 26.2449938,27.8658409 C25.5131172,27.2764854 25.5137126,27.2767257 25.3331846,27.3743107 C25.2649507,27.4112055 25.2399435,27.4694921 25.2457785,27.5786142 C25.2503036,27.662619 25.2518517,28.2091909 25.2492319,28.7932586 L25.2443496,29.855156 L25.1282448,29.9085153 C25.0197613,29.9583894 24.9780827,29.9278641 24.4971113,29.4455876 C24.2138158,29.1616058 23.7586851,28.7354527 23.4855115,28.4985808 C22.8523536,27.9492448 21.8521857,27.1075144 21.5757968,26.8913132 C21.3077437,26.6816016 20.5194223,26.0360026 20.2667307,25.8193207 C20.1619387,25.7294272 19.9261568,25.5405065 19.7427708,25.3995371 C19.5593849,25.2585677 19.2914508,25.0415253 19.1473618,24.9172607 C18.8541825,24.6642849 18.4404924,24.3882348 18.3640418,24.3942791 C18.3364148,24.3967675 18.2602025,24.4157557 18.1947075,24.4366668" id="Shape" fill="#42423C" fill-rule="nonzero"></path>
        </g>
    </g>
</svg>