<?xml version="1.0" encoding="UTF-8"?>
<svg width="48px" height="48px" viewBox="0 0 48 48" version="1.1" xmlns="http://www.w3.org/2000/svg" xmlns:xlink="http://www.w3.org/1999/xlink">
    <title>mw-rbm</title>
    <g id="Page-1" stroke="none" stroke-width="1" fill="none" fill-rule="evenodd">
        <g id="mw-rbm">
            <rect id="Rectangle" x="0" y="0" width="48" height="48"></rect>
            <path d="M4.38373506,37.8343022 C4.38373506,37.7378654 4.38373506,37.6623931 4.38373506,37.5869209 C4.38373506,35.3164635 4.38373506,33.0460061 4.38373506,30.7755487 C4.38373506,30.4904313 4.38373506,30.4883348 4.67723832,30.4883348 C5.47389003,30.4883348 6.27054174,30.4883348 7.06719345,30.4883348 C7.08815797,30.4883348 7.10912249,30.4883348 7.13008701,30.4883348 C7.3439251,30.4925277 7.348118,30.4925277 7.40262575,30.6958836 C7.51164125,31.1067881 7.61646384,31.5197891 7.72338289,31.9306937 C7.9623784,32.8636148 8.20347037,33.7944394 8.44246588,34.7273605 C8.45923749,34.7923505 8.48439492,34.8531476 8.51164879,34.9328128 C8.60808558,34.8762086 8.60808558,34.7923505 8.62485719,34.7252641 C8.80934496,34.0166633 8.98963982,33.3059661 9.17203113,32.5973654 C9.33345792,31.9684298 9.49278827,31.3415907 9.65631151,30.7126552 C9.71291571,30.4925277 9.71710862,30.4904313 9.93723606,30.4883348 C10.7695275,30.4862384 11.5997224,30.4883348 12.4320138,30.4883348 C12.5011967,30.4883348 12.5682832,30.4967206 12.6290803,30.50301 C12.6793951,30.674919 12.6877809,37.6099818 12.6437554,37.8175306 C12.4739428,37.8678454 11.0483556,37.8678454 10.855482,37.8091448 C10.855482,35.9831352 10.855482,34.1487398 10.855482,32.2975728 C10.7548523,32.3332125 10.7548523,32.3982025 10.7401771,32.4548067 C10.4760242,33.4820681 10.2118713,34.5072331 9.94771832,35.5344945 C9.76532701,36.2430952 9.58503215,36.9537924 9.40054438,37.6623931 C9.35232599,37.8468809 9.34813309,37.8510738 9.16154887,37.8510738 C8.7422585,37.8531702 8.32296812,37.8531702 7.90367775,37.8510738 C7.70661127,37.8510738 7.70451482,37.8489773 7.65210352,37.6519109 C7.23700605,36.0313536 6.82190858,34.4086998 6.40681111,32.7881425 C6.37117143,32.6455838 6.33133885,32.5051215 6.29150626,32.3646593 C6.28521691,32.3415983 6.26634884,32.3227302 6.21393754,32.3080551 C6.21184109,32.3877202 6.20555173,32.4673854 6.20555173,32.5470506 C6.20555173,34.1948617 6.20555173,35.8447694 6.20555173,37.4925805 C6.20555173,37.5407989 6.20555173,37.5911138 6.20555173,37.6393322 C6.20135883,37.842688 6.19506948,37.8510738 5.99171364,37.8510738 C5.52420488,37.8531702 5.05459966,37.8510738 4.58709089,37.8510738 C4.53258314,37.8531702 4.47807539,37.842688 4.38373506,37.8343022 Z M2.95814779,20.1108981 C3.06716329,20.1108981 3.1363462,20.1108981 3.20343266,20.1108981 C4.56612637,20.1108981 5.92882009,20.1088016 7.2915138,20.1129945 C7.65629643,20.115091 8.0189826,20.1633094 8.35231845,20.3205433 C9.01899014,20.6308181 9.39215858,21.1465453 9.40473729,21.8949786 C9.417316,22.6266403 9.09655886,23.1528497 8.42359781,23.4547388 C8.37957232,23.4736069 8.33554683,23.4966678 8.2936178,23.5218253 C8.28313554,23.5281146 8.27894263,23.5427898 8.25797811,23.5742366 C8.31877522,23.5972975 8.37328297,23.6161656 8.42779072,23.6392266 C8.59969977,23.7126024 8.78209108,23.7733995 8.94351788,23.8656434 C9.43618407,24.1465679 9.68985474,24.5847264 9.73807313,25.144479 C9.77161636,25.538612 9.74436249,25.9264556 9.56197118,26.2891417 C9.27685372,26.8551837 8.83450238,27.2199664 8.20347037,27.3310783 C7.70032192,27.4191293 7.19507702,27.4778299 6.68354276,27.4778299 C5.53678359,27.473637 4.39212087,27.4778299 3.2453617,27.4757335 C2.95814779,27.4757335 2.95605134,27.4757335 2.95605134,27.1864231 C2.95605134,24.9222551 2.95605134,22.6601836 2.95605134,20.3960155 C2.95814779,20.3121575 2.95814779,20.2282994 2.95814779,20.1108981 Z M6.00848526,25.9369378 C6.18878012,25.9369378 6.37117143,25.9495165 6.55146629,25.9327449 C6.71708599,25.9180698 6.88480214,25.8950088 7.04203603,25.8425975 C7.34602155,25.7419678 7.52421996,25.4547539 7.51583415,25.1277074 C7.50744835,24.7985645 7.31457477,24.5448938 6.99381764,24.4505534 C6.93302053,24.4337818 6.87222343,24.4107209 6.81142632,24.4086244 C6.33133885,24.3960457 5.85125137,24.3855634 5.37116389,24.3813705 C5.23908742,24.3813705 5.21602645,24.4128173 5.21393,24.5490867 C5.2097371,24.9537019 5.2097371,25.3583171 5.21393,25.7608359 C5.21602645,25.9117804 5.23699097,25.9306485 5.3837426,25.9348414 C5.59129134,25.9390343 5.79884007,25.9369378 6.00848526,25.9369378 Z M5.89318041,21.5448712 C5.89318041,21.5490641 5.89318041,21.5553534 5.89318041,21.5595463 C5.72546426,21.5595463 5.55774811,21.5553534 5.39003196,21.5616428 C5.24118387,21.5679321 5.21393,21.5909931 5.21183355,21.7314554 C5.20764064,22.1088167 5.20764064,22.4840816 5.21183355,22.8614429 C5.21393,22.9956158 5.23908742,23.0270626 5.37326034,23.0249662 C5.78416491,23.0207733 6.19716593,23.0228697 6.60597404,22.9914229 C6.87851278,22.9704584 7.09864023,22.8278997 7.18040185,22.5448712 C7.2915138,22.1696138 7.20346282,21.6706583 6.59968469,21.5909931 C6.36697853,21.5595463 6.12798302,21.5595463 5.89318041,21.5448712 Z M6.42567918,13.8907254 C6.49486209,13.9200757 6.56194855,13.9536189 6.63113146,13.9808728 C6.85964472,14.0647309 7.04832539,14.2030967 7.20346282,14.3896809 C7.41101156,14.6349658 7.59969223,14.8928294 7.74644386,15.1821397 C8.03156131,15.7502782 8.32506457,16.3121273 8.61647138,16.8781693 C8.64791816,16.9389664 8.67517204,17.00186 8.71500462,17.0836216 C8.65001461,17.0920074 8.60598913,17.1045861 8.56196364,17.1045861 C7.83449484,17.1066825 7.10912249,17.1003932 6.38165369,17.1088332 C6.23909496,17.1108755 6.16991205,17.0521748 6.1070185,16.9347735 C5.75271813,16.2681018 5.39422486,15.605623 5.03153869,14.9452407 C4.93719835,14.7733316 4.83866512,14.6056155 4.72336026,14.4462851 C4.52419734,14.1737464 4.23488698,14.0898883 3.91203339,14.0982741 C3.78414983,14.1003706 3.7589924,14.1297209 3.74851014,14.2659903 C3.74431724,14.3288838 3.74641369,14.3917774 3.74641369,14.4546709 C3.74641369,15.2450333 3.74641369,16.0332992 3.74641369,16.8236615 C3.74641369,16.9054232 3.74641369,16.9871848 3.74641369,17.0605606 C3.56192593,17.1171648 1.73172345,17.1234542 1.53465697,17.0773322 C1.48643858,16.9012303 1.48853503,9.94939587 1.54094633,9.7607152 C1.60174343,9.75861875 1.67092634,9.75023294 1.7380128,9.75023294 C3.06506683,9.75023294 4.39212087,9.74813649 5.7191749,9.75652229 C6.10911495,9.75861875 6.499055,9.80054778 6.87641633,9.91585264 C7.59549932,10.1359801 8.09864777,10.7774944 8.13009455,11.5280241 C8.14057681,11.7565374 8.14267326,11.99134 8.10284068,12.2156603 C7.9665713,12.970383 7.50535189,13.4567598 6.79465471,13.7167199 C6.6730605,13.7628418 6.54727339,13.7984815 6.42148628,13.8404105 C6.42777563,13.8550857 6.42777563,13.8739538 6.42567918,13.8907254 Z M3.79043918,11.207267 C3.77786047,11.2408102 3.7589924,11.2659676 3.7589924,11.2932215 C3.7547995,11.7334764 3.7547995,12.1716348 3.75270305,12.6118897 C3.75270305,12.7209052 3.81978951,12.7565449 3.91622629,12.7565449 C4.11958212,12.7565449 4.32293796,12.7733165 4.52419734,12.7544485 C4.81560415,12.729291 5.10701096,12.6978443 5.39212841,12.6370472 C5.69821038,12.5720572 5.89318041,12.2953255 5.90156621,11.9766648 C5.90995202,11.6223645 5.74852523,11.3686938 5.42986454,11.2701605 C5.29149872,11.2282315 5.14265064,11.1988812 5.00009191,11.1946883 C4.64369509,11.184206 4.28729827,11.1883989 3.93299791,11.1904954 C3.88477952,11.1904954 3.83865757,11.2009776 3.79043918,11.207267 Z M30.7508102,32.5323754 C30.8304754,32.5281825 30.8849831,32.5218931 30.9394909,32.5218931 C31.4489287,32.5218931 31.9583665,32.5218931 32.4699008,32.5218931 C32.6711601,32.5218931 32.6732566,32.5218931 32.7235714,32.7168632 C32.9709527,33.6833275 33.2183341,34.6497918 33.4657154,35.6141597 C33.4845835,35.6917284 33.5097409,35.7672006 33.5600557,35.8447694 C33.7047109,35.5827129 33.7738938,35.3017883 33.8661377,35.031346 C33.960478,34.7546144 34.0464326,34.4736898 34.13658,34.1948617 C34.224631,33.922323 34.3147784,33.6518807 34.4028294,33.379342 C34.4929768,33.1005139 34.5831242,32.8237822 34.679561,32.5218931 C34.7550333,32.5218931 34.8221198,32.5218931 34.8892062,32.5218931 C35.3504256,32.5218931 35.811645,32.5218931 36.2728644,32.5218931 C36.4929919,32.5218931 36.4950883,32.5218931 36.5663677,32.7336348 C36.8871248,33.6980026 37.2099784,34.664467 37.5349285,35.6288348 C37.5600859,35.7043071 37.5957256,35.7755864 37.6523298,35.8489623 C37.9814727,34.7504215 38.2372398,33.6372055 38.5391289,32.5323754 C39.1743538,32.5323754 39.7928071,32.5323754 40.428032,32.5323754 C40.4175498,32.5847867 40.4112604,32.6309086 40.3965853,32.6749341 C39.7823249,34.3458063 39.1701609,36.014582 38.5538041,37.6833576 C38.493007,37.8510738 38.4888141,37.8531702 38.3127121,37.8531702 C37.8368175,37.8552667 37.3630194,37.8552667 36.8871248,37.8531702 C36.7026371,37.8531702 36.7005406,37.8510738 36.6376471,37.6686825 C36.3273722,36.7504366 36.0191938,35.8300942 35.7110153,34.9118483 C35.6837615,34.8279902 35.6460253,34.748325 35.6145786,34.6665634 C35.5999034,34.6665634 35.5852282,34.6665634 35.5705531,34.6665634 C35.5432992,34.7336499 35.509756,34.8007363 35.486695,34.8699192 C35.1910953,35.7776829 34.8954956,36.687543 34.5998959,37.5953067 C34.5873171,37.6351393 34.5684491,37.6728754 34.5621597,37.7148044 C34.5390987,37.8259164 34.4678194,37.8552667 34.3629968,37.8531702 C34.1323871,37.8489773 33.9017774,37.8510738 33.6711677,37.8510738 C33.4195934,37.8510738 33.1680192,37.8510738 32.916445,37.8510738 C32.7172821,37.8510738 32.7172821,37.8489773 32.6460027,37.6623931 C32.285413,36.6938324 31.9269197,35.7273681 31.5684264,34.7588073 C31.3210451,34.0921356 31.0736638,33.4254639 30.8262825,32.7566958 C30.8011251,32.6896093 30.7801605,32.6183299 30.7508102,32.5323754 Z M30.8996583,27.4568654 C30.8074144,27.4631548 30.7466173,27.4715406 30.6858202,27.4715406 C30.0841385,27.4715406 29.4845533,27.4673477 28.8828716,27.475796 C28.7214448,27.4778299 28.6312974,27.4275151 28.5579216,27.278667 C28.2790935,26.7021428 27.9855902,26.1319078 27.6962798,25.55748 C27.6627366,25.4903936 27.6250005,25.4254036 27.580975,25.3436419 C27.5285637,25.3750887 27.4824418,25.3918603 27.450995,25.4233071 C27.2497356,25.6161807 27.0526691,25.8153436 26.8514097,26.0082172 C26.7801304,26.0774001 26.7570694,26.1549688 26.7570694,26.2514056 C26.7591659,26.5658734 26.7570694,26.8803412 26.7570694,27.1948089 C26.7570694,27.2702812 26.7570694,27.3457535 26.7570694,27.4463832 C26.6753078,27.4568654 26.6103178,27.4715406 26.5453278,27.4715406 C26.0149254,27.473637 25.4845231,27.473637 24.9520243,27.4715406 C24.7256075,27.4715406 24.7172217,27.4610583 24.7172217,27.2325451 C24.7151253,26.276563 24.7172217,25.3184845 24.7172217,24.3625025 C24.7172217,23.0417378 24.7172217,21.7230696 24.7172217,20.4023049 C24.7172217,20.3142539 24.727704,20.2262029 24.7339934,20.1234768 C25.4069544,20.1234768 26.0589509,20.1234768 26.7402978,20.1234768 C26.7465871,20.203142 26.7570694,20.2828071 26.7570694,20.3624723 C26.7591659,21.4526273 26.7570694,22.5427822 26.7591659,23.6308408 C26.7591659,23.7105059 26.7654552,23.7922676 26.7675517,23.882415 C26.8912423,23.8656434 26.9289785,23.7838818 26.9813898,23.7251811 C27.3797156,23.2660581 27.7801379,22.8090316 28.170078,22.3436193 C28.2832864,22.2073499 28.4027841,22.1549386 28.5809825,22.1570351 C29.2308826,22.1675174 29.8807827,22.161228 30.5306828,22.161228 C30.5977692,22.161228 30.6648557,22.161228 30.7738712,22.161228 C30.7046883,22.2367003 30.6669521,22.2828222 30.6250231,22.3247513 C30.1155853,22.8237068 29.6061475,23.3226623 29.0946132,23.817425 C28.8807752,24.0249737 28.8975468,24.0040092 29.0317197,24.2346189 C29.6145333,25.2367229 30.2015398,26.2367304 30.7843535,27.236738 C30.8220896,27.301728 30.8535364,27.3688144 30.8996583,27.4568654 Z M19.9247328,37.8343022 C19.8303924,37.842688 19.7842705,37.8510738 19.7381486,37.8510738 C19.2350001,37.8510738 18.7318517,37.8468809 18.2287032,37.8552667 C18.0882409,37.8573632 18.00019,37.8112412 17.9582609,37.6791647 C17.9226212,37.5659563 17.889078,37.4527479 17.8534383,37.341636 C17.8408596,37.3038999 17.8282809,37.2682602 17.8073164,37.2032702 C17.7381335,37.2577779 17.6815293,37.295514 17.6333109,37.3395395 C17.1972489,37.7273831 16.6815217,37.9097744 16.1070939,37.9475106 C15.7506971,37.9705716 15.3943003,37.9810538 15.0441928,37.8971957 C14.4676686,37.7609264 14.0316066,37.4506515 13.8638904,36.8615485 C13.7569714,36.4904765 13.7800323,36.1152116 13.9519414,35.7588148 C14.0588604,35.5386874 14.2181908,35.3688748 14.427836,35.2430877 C14.7129534,35.0732751 15.0274212,34.9789347 15.3481783,34.9097518 C15.8660019,34.7965434 16.385922,34.6917208 16.9016492,34.5701266 C17.1259695,34.5177153 17.3419041,34.4380502 17.5599351,34.3604814 C17.7213619,34.3038772 17.736037,34.2640446 17.7087831,34.0921356 C17.6542754,33.7587997 17.4844628,33.597373 17.146934,33.5847942 C16.9540605,33.5785049 16.756994,33.59318 16.5641204,33.616241 C16.2622314,33.6518807 16.0504897,33.8175004 15.9330884,34.1005214 C15.9205097,34.1319682 15.8995452,34.1613185 15.8722913,34.2074404 C15.2559345,34.140354 14.6353847,34.075364 13.9959669,34.0061811 C14.0064491,33.9244194 14.0064491,33.8699117 14.0190279,33.8195969 C14.1720688,33.20324 14.5682982,32.8070106 15.1574012,32.6120406 C15.4131683,32.5281825 15.6857071,32.4736748 15.9540529,32.4464209 C16.7066791,32.3709486 17.4593054,32.3814309 18.2077387,32.5156038 C19.0064868,32.6581625 19.4739956,33.1172855 19.6249401,33.9097443 C19.6584834,34.0795569 19.6710621,34.2556588 19.6710621,34.4296643 C19.6773514,35.0648893 19.675255,35.7001142 19.6731585,36.3353391 C19.6731585,36.8363911 19.6459047,37.341636 19.9247328,37.8343022 Z M17.6731435,35.2996919 C17.1762844,35.4569258 16.692004,35.6099667 16.2098201,35.7651042 C16.1574088,35.7818758 16.1091904,35.8133226 16.0651649,35.8468658 C15.8806771,35.9810387 15.7842403,36.1592371 15.81988,36.3877504 C15.8576161,36.622553 16.0001749,36.7734975 16.2307846,36.840584 C16.4467191,36.9034775 16.6584608,36.8867059 16.8702024,36.8280053 C17.5305847,36.6435175 17.889078,35.9852316 17.6731435,35.2996919 Z M26.2392458,34.2074404 C25.6061173,34.1298717 24.9813747,34.0921356 24.3461498,33.9936024 C24.4279114,33.5806013 24.5788559,33.2388797 24.880745,32.9747267 C25.1553802,32.7336348 25.4803302,32.5910761 25.8346306,32.5239896 C26.383901,32.419167 26.9394607,32.3688522 27.5013098,32.4149741 C27.8618995,32.4443244 28.2266822,32.4548067 28.583079,32.5177002 C29.4698781,32.6749341 29.9206153,33.2053365 30.0254379,34.1424504 C30.0505953,34.3709637 30.0380166,34.6036698 30.0380166,34.8342796 C30.040113,35.4149967 30.0422095,35.9936174 30.0380166,36.5743346 C30.0359201,36.9831427 30.063174,37.383565 30.2434689,37.7588299 C30.2518547,37.7756015 30.2497582,37.7986625 30.2539511,37.8343022 C30.1973469,37.8405915 30.1449356,37.8510738 30.0925243,37.8510738 C29.5956652,37.8531702 29.1009026,37.8468809 28.6040435,37.8552667 C28.453099,37.8573632 28.365048,37.8070483 28.3210225,37.6686825 C28.2749006,37.5240273 28.2287786,37.3793721 28.1763673,37.2095595 C28.1155702,37.2514886 28.0631589,37.2829353 28.0191334,37.3227679 C27.5642034,37.7336725 27.0191259,37.9202567 26.4153478,37.949607 C26.0233113,37.9684751 25.6312748,37.9747645 25.2539134,37.8552667 C24.7256075,37.6875505 24.337764,37.3605041 24.2161697,36.8049443 C24.0610323,36.0963436 24.2853527,35.4401541 25.010725,35.1277828 C25.3650254,34.9747418 25.7423867,34.9034625 26.1176516,34.8237973 C26.6899829,34.7042995 27.2686037,34.6036698 27.822067,34.4024105 C28.1071844,34.2996843 28.1302454,34.247273 28.0421944,33.9537698 C27.9730115,33.7210636 27.8011024,33.6141446 27.5788785,33.5889871 C27.3294008,33.5617333 27.0778265,33.5617333 26.8304452,33.6309162 C26.6124142,33.6917133 26.4384087,33.811211 26.337779,34.0208562 C26.3105252,34.0774604 26.2790784,34.1319682 26.2392458,34.2074404 Z M28.0505802,35.3290422 C28.0107476,35.3332351 27.9688186,35.3311386 27.9310825,35.3416209 C27.5558176,35.4506364 27.1826491,35.5575554 26.8094807,35.6770532 C26.6774042,35.7189822 26.5474242,35.7755864 26.4321194,35.8510587 C26.2015097,35.9999068 26.1176516,36.2640597 26.2161848,36.5093446 C26.3210074,36.7693046 26.5390384,36.863645 26.7989984,36.8783201 C27.6669295,36.9307314 28.2623219,36.1969733 28.0505802,35.3290422 Z M12.6710093,23.8341966 C12.0714241,23.771303 11.4487779,23.706313 10.8198423,23.6392266 C10.8198423,23.5826224 10.8135529,23.5469827 10.8198423,23.5155359 C10.9603046,22.9138542 11.3146049,22.4840816 11.8974186,22.2765329 C12.1636679,22.1800961 12.4487854,22.119299 12.72971,22.0857557 C13.4613717,21.9956083 14.1930334,22.0186693 14.9225986,22.1255883 C15.1280509,22.1549386 15.3314067,22.2178322 15.5221838,22.2974974 C15.9163168,22.4631171 16.1867591,22.7524274 16.3356072,23.1549462 C16.4383333,23.4337743 16.497034,23.7167953 16.497034,24.0144915 C16.4949375,24.7755035 16.497034,25.5365155 16.497034,26.299624 C16.497034,26.6581173 16.5284807,27.0103212 16.6815217,27.3415606 C16.6961969,27.3709109 16.6982933,27.4065506 16.7108721,27.4589619 C16.6374962,27.4652512 16.5766991,27.473637 16.5179985,27.473637 C16.0358145,27.4757335 15.5536306,27.4673477 15.0714467,27.4778299 C14.8995376,27.4820228 14.8093902,27.4107435 14.7611718,27.2618954 C14.7192428,27.1319154 14.6815066,26.9977425 14.6353847,26.8363157 C14.5641053,26.888727 14.5075011,26.9243667 14.4592827,26.9704886 C14.0001598,27.3813932 13.4529858,27.5553987 12.8492077,27.5868454 C12.4781357,27.6057135 12.1070637,27.60781 11.7485705,27.4987945 C11.203493,27.3331748 10.7967813,27.0061283 10.6751871,26.4337969 C10.5158568,25.6895565 10.7716239,25.0438493 11.5137679,24.7419603 C11.9058044,24.5826299 12.3188054,24.5218328 12.725517,24.425396 C13.2349549,24.3058983 13.7401998,24.1738218 14.2475411,24.0459382 C14.3146276,24.0291666 14.3775211,23.9956234 14.4425111,23.9725624 C14.5200798,23.9453085 14.5473337,23.8866079 14.5410444,23.8090392 C14.5179834,23.4505459 14.3607495,23.2765404 14.0525711,23.2262256 C13.815672,23.1884894 13.5808694,23.2073575 13.3460668,23.2534794 C13.0798174,23.3058907 12.8869438,23.4484495 12.7737354,23.6958308 C12.7569638,23.7335669 12.7339029,23.7692066 12.7129383,23.8048463 C12.706649,23.8090392 12.7003596,23.8111356 12.6710093,23.8341966 Z M14.5242728,24.9578948 C14.4739579,24.9578948 14.4508969,24.9537019 14.4320289,24.9578948 C14.0441853,25.0711032 13.6563417,25.1822151 13.2705945,25.3038094 C13.1385181,25.3457384 13.0085381,25.404439 12.8932332,25.4778149 C12.7045525,25.5994091 12.6039228,25.7838968 12.6395625,26.0124101 C12.6772987,26.2555985 12.8261467,26.4086395 13.0651423,26.4778224 C13.2601123,26.5323302 13.4550823,26.5239443 13.643763,26.471533 C13.9854846,26.3771927 14.2768914,26.2073801 14.4320289,25.8698514 C14.5662018,25.5847339 14.5557195,25.2786519 14.5242728,24.9578948 Z M21.4236959,27.4421903 C21.4195029,27.3541393 21.4132136,27.2723777 21.4132136,27.190616 C21.4132136,26.3394566 21.41531,25.4862007 21.4111171,24.6350412 C21.4111171,24.4966754 21.3985384,24.3562131 21.3754775,24.2178473 C21.2811371,23.6455159 20.6647803,23.4002311 20.1930786,23.7440492 C20.0337483,23.859354 19.9247328,24.0144915 19.8849002,24.2031721 C19.8429711,24.406528 19.8031386,24.6161731 19.8010421,24.8237219 C19.7905598,25.6119878 19.7968492,26.4023501 19.7947528,27.190616 C19.7947528,27.2723777 19.7947528,27.3541393 19.7947528,27.454769 C19.6878337,27.4631548 19.6060721,27.473637 19.5243105,27.473637 C19.0421265,27.4757335 18.5599426,27.4757335 18.0777587,27.473637 C17.7968341,27.473637 17.7968341,27.4715406 17.7968341,27.1969054 C17.7968341,25.7377749 17.7968341,24.2786444 17.7968341,22.8174174 C17.7968341,22.6769552 17.7947377,22.5385893 17.7968341,22.3981271 C17.7968341,22.3310406 17.8052199,22.2618577 17.8115093,22.1821925 C17.8785957,22.1738067 17.9331035,22.161228 17.9855148,22.161228 C18.4676987,22.1591316 18.9498826,22.1591316 19.4320666,22.161228 C19.633326,22.161228 19.6417118,22.1717103 19.6438082,22.3771625 C19.6459047,22.509239 19.6417118,22.6434119 19.6459047,22.7754884 C19.6480011,22.8425749 19.6605798,22.9075649 19.6731585,23.0249662 C19.7654024,22.9327223 19.8241031,22.8761181 19.8786108,22.815321 C20.1909822,22.4756958 20.5452825,22.2010606 21.0106948,22.1004309 C21.3901526,22.0186693 21.7738033,22.0018977 22.1532611,22.0920451 C22.8388009,22.2576648 23.2266445,22.7104984 23.354528,23.3918453 C23.3943606,23.6098762 23.4111322,23.836293 23.4111322,24.0585169 C23.4174216,25.1046464 23.4153251,26.1528724 23.4153251,27.2010983 C23.4153251,27.236738 23.4174216,27.2702812 23.4132287,27.3059209 C23.4027464,27.4463832 23.3880713,27.4715406 23.2538983,27.4715406 C22.6752776,27.473637 22.0945605,27.4715406 21.5159397,27.4694441 C21.4970717,27.4673477 21.4761072,27.4568654 21.4236959,27.4421903 Z M46.482585,14.9263726 C46.1219953,14.9263726 45.7802737,14.9263726 45.438552,14.9263726 C45.1031197,14.9263726 44.7676874,14.9263726 44.4322551,14.9263726 C44.0905335,14.9263726 43.7467154,14.9263726 43.4049937,14.9263726 C43.0716579,14.9263726 42.738322,14.9284691 42.4112755,14.9305655 C42.3316103,15.4022672 42.6628497,15.9054156 43.1219727,16.0312027 C43.5559382,16.1507005 43.9416854,16.0542637 44.2540567,15.7293137 C44.3567829,15.6223946 44.4532196,15.5909478 44.5999713,15.6077195 C45.1198913,15.6643237 45.6419078,15.7020598 46.1639244,15.7502782 C46.2163357,15.7544711 46.2645541,15.7733392 46.333737,15.7901108 C46.3001937,15.8530043 46.2834221,15.8991263 46.2561682,15.9368624 C45.8557459,16.5574122 45.3169578,16.9829919 44.5769103,17.1213577 C43.8200912,17.2639164 43.0611756,17.284881 42.3085494,17.1255506 C41.2875773,16.9075196 40.692185,16.2324621 40.4196462,15.257612 C40.2687017,14.7167274 40.2749911,14.1611677 40.428032,13.6202831 C40.7110531,12.6139862 41.3903035,11.9997258 42.3966004,11.7691161 C43.1429372,11.597207 43.8997563,11.6181716 44.6377074,11.8215274 C45.6502937,12.098259 46.2247215,12.7942811 46.4113057,13.8131567 C46.4679099,14.1213351 46.4721028,14.4378993 46.4972602,14.7502706 C46.505646,14.798489 46.4930673,14.844611 46.482585,14.9263726 Z M44.4280622,13.972487 C44.4616054,13.2974295 44.0171576,12.8110527 43.3966079,12.8278243 C42.8096014,12.8445959 42.3504784,13.3687089 42.4028897,13.9661976 C42.5685094,14.0228018 44.2079348,14.0290912 44.4280622,13.972487 Z M28.2874793,14.9263726 C27.8178741,14.9263726 27.3713298,14.9263726 26.9247856,14.9263726 C26.4698555,14.9263726 26.0170219,14.9263726 25.5620918,14.9263726 C25.117644,14.9284691 24.6710998,14.9200832 24.1993981,14.9305655 C24.1993981,15.2471297 24.2790633,15.5070898 24.467744,15.7230243 C24.9121918,16.2345586 25.6438535,16.1444111 26.0065396,15.7880143 C26.1532913,15.6433591 26.2874642,15.5846585 26.4971094,15.6098159 C26.9960649,15.670613 27.4971169,15.7020598 27.9981689,15.7481817 C28.0421944,15.7523746 28.0841234,15.7775321 28.1428241,15.7964001 C28.1092809,15.8592937 28.0883163,15.9096085 28.058966,15.9557305 C27.6606402,16.5574122 27.1344307,16.9746061 26.4111549,17.1150684 C25.6543357,17.26182 24.8954201,17.2869774 24.1427939,17.1276471 C23.0798928,16.9054232 22.4719218,16.2010153 22.2182511,15.1737539 C22.0966569,14.6789913 22.1029463,14.1737464 22.2329263,13.6789837 C22.5012721,12.6496259 23.1763296,12.014401 24.2014946,11.7754054 C24.9541208,11.5993035 25.7172293,11.620268 26.4614697,11.8257203 C27.4363198,12.0940661 28.0149405,12.7565449 28.2161999,13.7376844 C28.2832864,14.0626344 28.2832864,14.4022596 28.3084438,14.7355955 C28.3105402,14.7880068 28.2979615,14.8425145 28.2874793,14.9263726 Z M26.2769819,13.9599083 C26.2434387,13.800578 26.2203777,13.6496334 26.1763522,13.5049782 C26.0568545,13.123424 25.7927015,12.9032966 25.3964721,12.8383065 C24.7486685,12.7334839 24.1239259,13.3330692 24.2224591,13.9682941 C24.4069469,14.0248983 26.0442758,14.0269948 26.2769819,13.9599083 Z M10.9749797,14.9452407 C10.897411,15.410653 11.245422,15.9200908 11.7129308,16.0374921 C12.1385105,16.1444111 12.5200648,16.0500708 12.8240503,15.7293137 C12.9288729,15.6202982 13.0253097,15.5930443 13.1699648,15.6098159 C13.6961743,15.6643237 14.2265766,15.7041562 14.7548825,15.7523746 C14.794715,15.7565675 14.8324512,15.7712427 14.8890554,15.7859179 C14.8680909,15.8404256 14.8576086,15.8865476 14.8345476,15.9242837 C14.4068714,16.5951483 13.8198649,17.0249209 13.0211168,17.1486116 C12.3397699,17.2534342 11.6605195,17.26182 10.9791726,17.150708 C9.77580927,16.9536416 9.14058435,15.9955631 8.9686753,15.1800433 C8.84498464,14.5972297 8.85337045,14.0102231 9.05253337,13.4441811 C9.36909761,12.5510926 10.0106119,11.9976293 10.9225684,11.7816948 C11.6940627,11.5993035 12.4781357,11.6181716 13.2433407,11.8341061 C14.2077085,12.1087413 14.7653647,12.7775094 14.970817,13.7460702 C15.0504822,14.1213351 15.0819289,14.5028893 15.0462893,14.909601 C14.9519489,14.9158903 14.863898,14.9263726 14.7779434,14.9263726 C13.6039304,14.9284691 12.4320138,14.9263726 11.2580007,14.9284691 C11.161564,14.9284691 11.0651272,14.9389513 10.9749797,14.9452407 Z M13.031599,13.9578118 C12.9938629,13.7921921 12.9687055,13.6349583 12.9204871,13.4861102 C12.7988929,13.1129417 12.5347399,12.9012001 12.1468963,12.8383065 C11.4969963,12.7334839 10.87435,13.3330692 10.9728833,13.9682941 C11.1594675,14.0248983 12.7967964,14.0269948 13.031599,13.9578118 Z M37.8955182,27.6203887 C37.3630194,27.6015206 36.8430994,27.5365306 36.3651083,27.2996315 C35.3902582,26.8195441 34.8724346,26.0333746 34.832602,24.9411232 C34.8200233,24.6182696 34.8451807,24.2975125 34.9416175,23.989334 C35.2309279,23.0543165 35.857767,22.4505384 36.7885916,22.1821925 C37.5915327,21.9515828 38.404956,21.9725473 39.1995113,22.2408932 C40.2183869,22.5868077 40.8787692,23.4798962 40.9332769,24.555376 C40.9584344,25.0270777 40.9269876,25.49249 40.7383069,25.9306485 C40.3714278,26.7818079 39.7215278,27.2975351 38.8242464,27.4946016 C38.5223573,27.5637845 38.2057931,27.5805561 37.8955182,27.6203887 Z M38.9668051,24.8488793 C38.9374548,24.5763406 38.9122973,24.3121876 38.8158606,24.0627099 C38.6963628,23.752435 38.4846212,23.5302111 38.1596711,23.4358707 C37.6900659,23.3016978 37.2141713,23.5281146 36.9940439,23.9830447 C36.8934142,24.1947863 36.8556781,24.4212031 36.8410029,24.6518128 C36.8179419,24.9956309 36.8430994,25.3373526 36.9856581,25.6560133 C37.16176,26.0501462 37.5286391,26.2828524 37.9290614,26.2639843 C38.3378695,26.2451162 38.687977,25.9914456 38.8158606,25.580541 C38.8892364,25.3457384 38.9164903,25.0941642 38.9668051,24.8488793 Z M21.132289,13.0039262 C21.0044055,13.0835914 19.8618392,13.2177643 19.2874114,13.2240537 C19.2727362,13.2051856 19.2517717,13.1863176 19.2412895,13.1611601 C19.0735733,12.687362 18.32514,12.6076968 17.9666467,12.7879917 C17.8115093,12.8655604 17.7108796,12.9892511 17.7192654,13.1695459 C17.7276512,13.3435514 17.8387632,13.4567598 17.995997,13.4986889 C18.237089,13.5615824 18.4844703,13.6077044 18.7318517,13.6517299 C19.1427562,13.7251057 19.5578537,13.7859028 19.9666618,13.865568 C20.1217992,13.8970147 20.2748402,13.9557154 20.4215919,14.0207054 C21.6375339,14.5720722 21.591412,15.9955631 20.7234809,16.6811028 C20.3440231,16.978799 19.9016718,17.1255506 19.4320666,17.1821548 C18.7507197,17.2660129 18.0672764,17.2576271 17.388026,17.1444187 C16.9079385,17.0647535 16.473973,16.8949409 16.1406371,16.519676 C15.9330884,16.2848734 15.7926261,16.018624 15.7150574,15.6852882 C15.8869665,15.6643237 16.0483933,15.6391662 16.2098201,15.6244911 C16.6333033,15.582562 17.0567866,15.5427295 17.4802699,15.5028969 C17.5934783,15.4924146 17.6962044,15.4777394 17.7570015,15.6202982 C17.9750325,16.1255431 18.4614094,16.2114976 18.8953749,16.148604 C19.0295478,16.1276395 19.1658172,16.0752282 19.2853149,16.0102382 C19.4425488,15.9263801 19.5389856,15.7880143 19.522214,15.5993337 C19.5054424,15.410653 19.3838482,15.2890588 19.2119391,15.2408404 C18.9435933,15.1653681 18.6710545,15.1108604 18.3985158,15.0500633 C17.9498751,14.9494336 17.4970415,14.8613826 17.0504973,14.7523671 C16.6773288,14.6601232 16.385922,14.4378993 16.167891,14.1192386 C15.7989155,13.5804505 15.8492303,12.8383065 16.2852923,12.3540262 C16.5829885,12.0248832 16.9708321,11.8571671 17.3943154,11.7649232 C17.8764993,11.6601006 18.3649726,11.6642935 18.8534459,11.6810651 C19.1448527,11.6915474 19.4404524,11.7125119 19.7255698,11.7691161 C20.3964344,11.8969997 20.8429787,12.3079042 21.1071316,12.928454 C21.1239032,12.9515149 21.1259997,12.9808653 21.132289,13.0039262 Z M44.2540567,22.161228 C44.5769103,22.161228 44.8746065,22.161228 45.1639168,22.161228 C45.220521,22.3415229 45.2268104,23.3666878 45.1743991,23.6014904 C44.8787994,23.6056833 44.5769103,23.6098762 44.2456709,23.6140692 C44.2330922,23.9578873 44.241478,24.2765479 44.2393815,24.5952086 C44.2372851,24.9096764 44.2393815,25.2241442 44.2393815,25.538612 C44.2393815,25.8593691 44.2393815,26.1801262 44.2393815,26.5029798 C44.2393815,26.8153512 44.2393815,27.1277225 44.2393815,27.4296116 C44.046508,27.4862158 42.455301,27.4904087 42.2288842,27.4379974 C42.2100161,27.1277225 42.2225948,26.8090618 42.2204984,26.4904011 C42.2184019,26.1759333 42.2204984,25.8614656 42.2204984,25.5469978 C42.2204984,25.2262406 42.2204984,24.9054835 42.2204984,24.5826299 C42.2204984,24.2702586 42.2204984,23.9578873 42.2204984,23.6182621 C41.9584419,23.6119727 41.7257358,23.6035869 41.499319,23.599394 C41.4490041,23.4190991 41.4448112,22.3855484 41.4951261,22.1633245 C41.6586493,22.1633245 41.8305583,22.1654209 42.0045639,22.1633245 C42.2121126,22.161228 42.2100161,22.1528422 42.2225948,21.9515828 C42.2393665,21.6937192 42.2582345,21.4358557 42.2980671,21.182185 C42.4007933,20.5218026 42.8515304,20.1108981 43.5182021,20.0249436 C44.0423151,19.9578571 44.5622351,19.9997861 45.0842517,20.0521974 C45.2561607,20.068969 45.4280698,20.0899336 45.6251362,20.1129945 C45.6041717,20.5197062 45.4972527,20.8928746 45.4343591,21.289104 C45.3358259,21.2786218 45.2561607,21.2660431 45.1764955,21.2618502 C45.0444191,21.2555608 44.9102461,21.2513679 44.7781697,21.2534643 C44.4720877,21.2597537 44.306468,21.3939266 44.2582496,21.6916228 C44.2351886,21.8299886 44.2540567,21.9767402 44.2540567,22.161228 Z M33.9374171,11.8173345 C34.0296609,11.8068522 34.090458,11.79637 34.1491587,11.79637 C34.7005255,11.7942735 35.2539888,11.7942735 35.8053557,11.79637 C36.0045186,11.79637 36.0066151,11.7984664 36.0653157,11.99134 C36.358819,12.9515149 36.6523222,13.9116899 36.9479219,14.8739613 C36.9730794,14.9599158 37.0066226,15.0416775 37.0401658,15.1381142 C37.1470849,15.0940888 37.1470849,14.9997484 37.1701458,14.9284691 C37.3986591,14.2177719 37.6229794,13.5049782 37.8472998,12.7942811 C37.9353508,12.515453 38.0254982,12.2366249 38.1093563,11.9557003 C38.1408031,11.8487813 38.1953108,11.7942735 38.316905,11.79637 C38.8892364,11.8026593 39.4615677,11.7984664 40.0359955,11.8005629 C40.0695388,11.8005629 40.103082,11.8110451 40.1596862,11.8194309 C40.1324323,11.8949032 40.1135643,11.9577968 40.0884068,12.0206903 C39.3986742,13.6454405 38.7068451,15.2701907 38.0213053,16.8991338 C37.9542188,17.0584642 37.8682643,17.1171648 37.6942588,17.1108755 C37.2540039,17.0982967 36.813749,17.1066825 36.3734941,17.1066825 C36.1303057,17.1066825 36.1303057,17.1066825 36.0380618,16.8844587 C35.5810353,15.7901108 35.1261053,14.6936664 34.6690788,13.5993186 C34.4552407,13.0835914 34.2414026,12.5678643 34.0275645,12.0521371 C34.0024071,11.9871471 33.9772496,11.9221571 33.9374171,11.8173345 Z M21.0400452,34.182283 C21.0400452,33.0439097 21.0400452,31.9055363 21.0400452,30.7671629 C21.0400452,30.7105587 21.0421416,30.656051 21.0421416,30.5994468 C21.0442381,30.5323603 21.0840707,30.4988171 21.1469642,30.4925277 C21.1888932,30.4883348 21.2308223,30.4883348 21.2727513,30.4883348 C21.7758998,30.4883348 22.2790482,30.4862384 22.7821967,30.4883348 C23.0316744,30.4883348 23.0421567,30.4988171 23.0421567,30.7482949 C23.0421567,32.6749341 23.0421567,34.6036698 23.0421567,36.5303091 C23.0421567,36.8929953 23.0442531,37.2556815 23.0421567,37.6204641 C23.0400602,37.8447844 23.0316744,37.8510738 22.8010647,37.8531702 C22.2832411,37.8531702 21.767514,37.8552667 21.2496903,37.8531702 C21.0442381,37.8531702 21.0400452,37.8468809 21.0400452,37.6414286 C21.0400452,36.4883801 21.0400452,35.3353316 21.0400452,34.182283 Z M31.3294309,17.0920074 C30.6585663,17.0920074 30.0191485,17.0920074 29.3818271,17.0920074 C29.3294159,16.9431593 29.3105478,12.1674419 29.3566697,11.8424919 C29.4992285,11.7879842 30.889176,11.7712125 31.1805829,11.8236238 C31.2350906,12.0689087 31.1701006,12.3288687 31.2225119,12.6056004 C31.2644409,12.5699607 31.2979842,12.5510926 31.3189487,12.5238388 C31.413289,12.3854729 31.4929542,12.2366249 31.5935839,12.1045484 C31.8095184,11.8194309 32.1030217,11.685258 32.4615149,11.6747758 C32.828394,11.6642935 33.1617299,11.7565374 33.482487,11.9347358 C33.4678118,11.9871471 33.459426,12.0290761 33.4447509,12.0668123 C33.2833241,12.4378842 33.1239937,12.8089562 32.9604705,13.1800282 C32.8870947,13.3456479 32.8849982,13.3435514 32.7088963,13.2932366 C32.6292311,13.2701756 32.5474695,13.2471147 32.4657078,13.230343 C32.1470472,13.1716424 31.8891836,13.2722721 31.6942136,13.5301357 C31.5600406,13.7062376 31.4992435,13.9137864 31.4510251,14.125528 C31.3608777,14.5217574 31.3503955,14.9284691 31.3441061,15.3330843 C31.3357203,15.8278469 31.3420096,16.324706 31.3420096,16.8194686 C31.3441061,16.9033267 31.3357203,16.9850883 31.3294309,17.0920074 Z M43.1827698,37.8175306 C42.979414,37.8699419 41.3923999,37.865749 41.2037192,37.8112412 C41.2037192,36.0628004 41.2037192,34.3080701 41.2037192,32.5365683 C41.8745838,32.5365683 42.5140017,32.5365683 43.1492266,32.5365683 C43.1576124,32.5449541 43.1639017,32.549147 43.1680946,32.5554364 C43.1722875,32.5596293 43.1785769,32.5659186 43.1785769,32.572208 C43.1848663,32.5994619 43.1932521,32.6267157 43.1932521,32.6539696 C43.1932521,34.3374205 43.1953485,36.0208713 43.1932521,37.7064186 C43.1953485,37.7378654 43.1869627,37.7714086 43.1827698,37.8175306 Z M43.1785769,31.8090995 C42.5160981,31.8090995 41.8766803,31.8090995 41.2058157,31.8090995 C41.1974299,31.375134 41.2016228,30.9537471 41.2037192,30.5176852 C41.2854809,30.5072029 41.346278,30.4904313 41.4049786,30.4904313 C41.9290916,30.4883348 42.4532046,30.4883348 42.9773175,30.4904313 C43.1806734,30.4904313 43.1911556,30.50301 43.1932521,30.7042694 C43.1953485,31.0124478 43.1953485,31.3185298 43.1932521,31.6267082 C43.1953485,31.6791195 43.1869627,31.7336272 43.1785769,31.8090995 Z" id="Combined-Shape" fill="#000000" fill-rule="nonzero"></path>
        </g>
    </g>
</svg>