<?xml version="1.0" encoding="UTF-8"?>
<svg width="48px" height="48px" viewBox="0 0 48 48" version="1.1" xmlns="http://www.w3.org/2000/svg" xmlns:xlink="http://www.w3.org/1999/xlink">
    <title>my-bankislam</title>
    <g id="Page-1" stroke="none" stroke-width="1" fill="none" fill-rule="evenodd">
        <g id="my-bankislam">
            <rect id="Rectangle" x="0" y="0" width="48" height="48"></rect>
            <path d="M16.485845,21.3735398 C17.0226331,21.4007986 17.5573244,21.4490256 18.0920156,21.5077368 C17.9305598,21.5077368 17.769104,21.5161241 17.6097451,21.50564 C16.4837482,21.4343478 15.361945,21.4678971 14.2401418,21.59161 C12.6989729,21.7635499 11.1976438,22.0969456 9.74663854,22.6505083 C8.41305568,23.1600376 7.17173326,23.8352164 6.07718883,24.7620145 C5.10845411,25.5818744 4.32214346,26.5422218 3.82309829,27.7185426 C3.5505106,28.3601721 3.40163578,29.0269635 3.3659897,29.7273042 C3.2695356,31.5725132 3.948908,33.1283599 5.09796997,34.5122666 C6.19880488,35.8416558 7.57851797,36.8187779 9.10920271,37.5925075 C10.608435,38.3515594 12.1936373,38.8547982 13.8375508,39.1840003 C15.5108198,39.5194928 17.2029604,39.6243343 18.9034882,39.5488484 C21.3358091,39.4398134 23.6758697,38.9281872 25.8754426,37.8525143 C27.0454729,37.2800801 28.1064681,36.5524806 29.0143948,35.6110047 C29.354081,35.2587375 29.6581211,34.8750179 29.928612,34.4661364 C29.9516771,34.4304903 29.9747422,34.396941 29.9999041,34.3633918 C30.0124851,34.3571013 30.0271629,34.3550045 30.0607121,34.3403267 C30.0187756,34.4241998 29.9873232,34.4912983 29.9516771,34.5563 C29.4987621,35.3551916 28.8990692,36.034564 28.2155032,36.6405474 C27.0140205,37.7057363 25.6364042,38.4752723 24.1434624,39.0498033 C22.7952017,39.5677199 21.398714,39.9032124 19.9707739,40.104508 C18.6602561,40.2911257 17.341351,40.3540305 16.0203491,40.299513 C13.1351132,40.1820906 10.3589124,39.590785 7.74207059,38.3347848 C6.38542261,37.684768 5.13990653,36.8649081 4.05165259,35.8185907 C3.15001638,34.9505037 2.43080423,33.9545102 1.95272736,32.7928673 C1.67384918,32.1134949 1.48932828,31.4173479 1.50190925,30.6771674 C1.50819973,30.2578018 1.47884414,29.8342424 1.53755533,29.4211672 C1.67804283,28.4230769 2.06805292,27.5151502 2.63419659,26.6827093 C3.38486116,25.5797776 4.3619832,24.7095938 5.47120542,23.986188 C6.81736926,23.1076169 8.28514914,22.5037303 9.82841485,22.0780742 C10.97538,21.7614531 12.1412166,21.5454797 13.3259246,21.4427351 C13.8752937,21.3945081 14.4267595,21.3504747 14.9782254,21.3378937 C15.4814642,21.3253128 15.9847031,21.3483779 16.485845,21.3735398 Z M17.2365096,25.7894604 C17.4608703,25.8418811 17.4755481,25.8586558 17.4713544,26.0851132 C17.4629671,26.5673838 17.4482893,27.0496543 17.4336115,27.529828 C17.4315147,27.5990233 17.4210305,27.6703155 17.3979654,27.7353172 C17.3832876,27.7730601 17.3371574,27.8128998 17.2994145,27.8212872 C17.2302191,27.835965 17.2050572,27.7793506 17.194573,27.7185426 C17.1798952,27.6367663 17.1694111,27.5528931 17.1526365,27.4711168 C17.0079553,26.7770666 16.4103592,26.2444722 15.703728,26.1836642 C15.387107,26.1564054 15.0767764,26.1815673 14.7769299,26.3010866 C14.0157812,26.6051267 13.7180315,27.4522454 14.1394941,28.1546829 C14.2527228,28.3433974 14.4015976,28.519531 14.5630534,28.6705027 C14.8335443,28.9221221 15.1208098,29.1569669 15.4122689,29.3855211 C15.9406697,29.8006932 16.4690704,30.2116715 16.9198885,30.7128135 C17.4461925,31.2978287 17.7250706,31.9834915 17.7334579,32.7698022 C17.7439421,33.8790244 17.2260255,34.6758192 16.2510003,35.1811549 C15.8106663,35.4097092 15.3388799,35.5250347 14.8398347,35.5250347 C14.372242,35.5250347 13.9004556,35.546003 13.4412502,35.4516457 C13.1896308,35.399225 12.9463987,35.3069646 12.7010698,35.2314787 C12.5312267,35.179058 12.4578377,35.0532483 12.4557408,34.8834052 C12.4473535,34.5898493 12.4494504,34.2962933 12.4494504,34.0362866 C12.4641282,33.7238591 12.4746123,33.4428841 12.4934838,33.1640059 C12.4997742,33.0738423 12.514452,32.9836787 12.5438076,32.8977087 C12.5563886,32.8620626 12.6109061,32.8159324 12.6465522,32.8159324 C12.6801015,32.8159324 12.7283285,32.8641595 12.7451032,32.9019024 C12.7681683,32.9585168 12.7765556,33.0235184 12.7786524,33.0864233 C12.7870397,33.3632046 12.8562351,33.6253082 12.967367,33.8769276 C13.2735039,34.5730746 13.8375508,34.8875989 14.5714407,34.9337291 C14.9174174,34.9546974 15.2550068,34.898083 15.569531,34.7450146 C16.1964827,34.4388776 16.5047165,33.8140227 16.37681,33.1304567 C16.303421,32.7404466 16.1398684,32.3944699 15.8546997,32.123979 C15.5171103,31.8010675 15.1585527,31.4991242 14.8104791,31.1866968 C14.4204691,30.8386232 14.0220717,30.4968402 13.6425457,30.1361857 C13.4664121,29.9684394 13.3175373,29.7692407 13.1791466,29.570042 C12.7472,28.947284 12.6109061,28.2532338 12.7513937,27.5130534 C12.881397,26.833681 13.2797944,26.3367326 13.883681,26.0096274 C14.3575642,25.7517175 14.8712872,25.623811 15.4080752,25.598649 C16.0266396,25.5713903 16.6347199,25.6510698 17.2365096,25.7894604 Z M29.3435968,25.6049395 C29.4169858,25.7055873 29.4715034,25.8209129 29.5176336,25.9383352 C29.9663549,27.0370733 30.4108825,28.1379082 30.8596038,29.2387432 C31.4718777,30.7463628 32.0862484,32.2539824 32.7027159,33.7595052 C32.7802986,33.9461229 32.872559,34.128547 32.9627227,34.3088742 C33.0738546,34.5311381 33.2227294,34.7240463 33.4114439,34.8834052 C33.4911234,34.9505037 33.5791902,35.0113118 33.6735475,35.0553452 C33.9566193,35.1811549 34.1872705,35.105669 34.3235643,34.8309845 C34.3906628,34.6967875 34.4409867,34.5458159 34.4640518,34.3948442 C34.7785761,32.3797921 35.0868098,30.36474 35.4013341,28.3496879 C35.5334343,27.5088597 35.6739218,26.6680315 35.8102156,25.8272033 C35.818603,25.7789763 35.8269903,25.7307492 35.8395712,25.6825222 C35.8584427,25.6049395 35.8898951,25.5357442 35.9821556,25.5210664 C36.0765128,25.5063886 36.1457082,25.550422 36.1918384,25.6280046 C36.2421623,25.7118778 36.2861957,25.7978477 36.3302291,25.8859145 L38.4564131,30.2578018 C38.8694883,31.1049204 39.2825635,31.9520391 39.6956387,32.8012546 C39.7249943,32.8620626 39.7606404,32.9228707 39.8130611,33.0235184 C40.4379159,31.7570341 41.0187374,30.5094212 41.6142367,29.2680988 C42.2118328,28.0204859 42.8094289,26.7749698 43.4028313,25.5336474 C43.6523539,25.5168727 43.6984841,25.5483252 43.7341302,25.7810731 C43.8641336,26.6030299 43.9920401,27.4228898 44.115753,28.2448465 C44.2939834,29.4316514 44.4680201,30.6205531 44.6462505,31.8094548 C44.7594793,32.5685067 44.8748048,33.3275586 44.9943241,34.0866104 C45.0152923,34.2229043 45.0509384,34.361295 45.092875,34.4933951 C45.1935228,34.8142099 45.4115929,35.0155054 45.7428918,35.0763134 C45.9274127,35.1098627 46.1161273,35.1287342 46.302745,35.1517993 C46.3446816,35.1580898 46.3908118,35.1538961 46.4264579,35.1706707 C46.4579103,35.1853485 46.49775,35.2230914 46.4999263,35.2545439 C46.5019437,35.2818026 46.4621039,35.3279329 46.4327483,35.338417 C46.3740372,35.3572885 46.3090355,35.3656758 46.2482274,35.3635789 C45.3465912,35.3363202 44.4470518,35.3090614 43.5454156,35.277609 C43.4049281,35.2734153 43.4028313,35.265028 43.2770216,35.1685739 L43.3152305,35.0968158 C43.3222199,35.0856327 43.3301413,35.0756145 43.3399264,35.0679261 C43.4929949,34.9567942 43.5013822,34.8016289 43.4783171,34.6359795 C43.4175091,34.1641931 43.3587979,33.6945035 43.2979899,33.2227171 C43.1805675,32.3294682 43.0610483,31.4362193 42.9394322,30.5429704 C42.8702369,30.0313443 42.7968479,29.5197182 42.7255557,29.008092 C42.7150716,28.972446 42.698297,28.9430904 42.673135,28.8697014 C42.6207143,28.9682523 42.5850682,29.0311571 42.5536158,29.0982557 C41.6477859,30.9728203 40.7419561,32.845288 39.8361262,34.7198526 C39.7543499,34.8896957 39.6725736,35.0595388 39.5761195,35.2209946 C39.471278,35.3971282 39.3769208,35.3971282 39.263692,35.2230914 C39.1525601,35.0532483 39.0540092,34.8750179 38.9596519,34.6967875 C38.1083396,33.0990043 37.3283194,31.4676718 36.5650739,29.8279519 C36.4707166,29.6245596 36.3742625,29.4232641 36.2757115,29.2240654 C36.2463559,29.1653542 36.208613,29.1087398 36.1373209,29.0584159 C36.0974811,29.3331004 36.0555446,29.607785 36.0198985,29.8824695 C35.8836046,30.9287869 35.745214,31.9730074 35.6131138,33.0193248 C35.5523057,33.4974017 35.4935946,33.9754785 35.4432707,34.4556522 C35.4013341,34.8624369 35.5019819,35.0008276 35.9003793,35.0909912 C36.0555446,35.1266373 36.2190972,35.1329278 36.3784561,35.1538961 C36.4602324,35.1643802 36.5336214,35.1853485 36.5042658,35.2964804 C36.0828033,35.4034187 31.4047792,35.3740631 31.1300946,35.2503502 C31.1720312,35.2084136 31.1971931,35.1559929 31.2391297,35.1413151 C31.4467157,35.0595388 31.4320379,34.9693752 31.3691331,34.7932416 C31.1657407,34.2354853 30.9644452,33.6777289 30.758956,33.1199725 C30.6499209,32.8243197 30.5241112,32.5370542 30.4192698,32.2414014 C30.3710428,32.1072044 30.2892664,32.0568805 30.1550694,32.0568805 L29.0437504,32.0505901 C28.5405116,32.0505901 28.0372727,32.0547837 27.5340339,32.0568805 C27.4312893,32.0568805 27.349513,32.0652679 27.3054796,32.1868839 C27.0580539,32.87045 26.800144,33.5477255 26.5548151,34.2312916 C26.5023943,34.3738759 26.4688451,34.5269444 26.4520705,34.677916 C26.420618,34.9421164 26.5380404,35.0867976 26.8043376,35.1287342 C26.9280505,35.1476056 27.055957,35.1455088 27.1796699,35.1517993 C27.276124,35.1559929 27.3432225,35.1895422 27.3243511,35.3027709 C27.1236274,35.3499496 25.559948,35.372915 23.7618091,35.3753998 L22.9099053,35.3750866 L22.1719281,35.3725155 C20.046372,35.3620727 18.0430642,35.3257217 17.903301,35.2692217 C17.9074947,35.1748644 17.9850774,35.1685739 18.050079,35.1580898 C18.1675014,35.1392183 18.2849238,35.1287342 18.404443,35.11825 C18.6309005,35.0972817 18.783969,34.9819562 18.8468738,34.763886 C18.8825199,34.6380763 18.9160692,34.5059761 18.918166,34.3759728 C18.9370375,33.6295018 18.9517152,32.8809341 18.9559089,32.1323664 C18.9642962,30.7757184 18.9684899,29.4211672 18.9705867,28.0645193 C18.9705867,27.6304758 18.9642962,27.1985291 18.9517152,26.7644856 C18.9370375,26.2654405 18.7734848,26.1039847 18.257665,26.0159179 L17.903301,25.9739813 C17.8592676,25.9676908 17.8194279,25.9383352 17.781685,25.9215606 C17.8005565,25.7957509 17.8865264,25.8062351 17.9599154,25.8041382 C18.2534714,25.7978477 18.5470274,25.7915573 18.8405833,25.7915573 C19.7275418,25.7936541 20.616597,25.7999446 21.5035554,25.8041382 C21.5601698,25.8041382 21.6167842,25.7978477 21.6713017,25.8125255 C21.7111414,25.8230097 21.7446907,25.8586558 21.7824336,25.8838177 C21.7488843,25.9131733 21.7216256,25.9614004 21.6838827,25.9697877 C21.5685571,25.990756 21.4490379,25.9970464 21.3295187,26.0096274 C21.2456455,26.0180147 21.1638692,26.026402 21.0799961,26.038983 C20.8178925,26.0809196 20.677405,26.246569 20.6270811,26.4960916 C20.6061129,26.5988362 20.5935319,26.7036776 20.5935319,26.808519 C20.5851446,28.3538816 20.5767573,29.8971473 20.5725636,31.4425098 C20.5704668,32.0568805 20.5746604,32.6733481 20.5914351,33.2877188 C20.5977255,33.5519192 20.6333716,33.8161196 20.6753082,34.0782231 C20.7151479,34.3277457 20.8682164,34.4975888 21.1093517,34.5667841 C21.2750011,34.6150112 21.4490379,34.6569478 21.6209778,34.6611414 C22.1305071,34.6737224 22.6400364,34.677916 23.1495657,34.6611414 C23.5919965,34.6464636 23.8855525,34.3906506 24.0637829,33.9964468 C24.1099131,33.8957991 24.1392687,33.786764 24.172818,33.6798257 C24.1874958,33.6336955 24.1937863,33.5833716 24.2105609,33.5393382 C24.2357228,33.4764334 24.2504006,33.3820761 24.3405643,33.4135285 C24.3762103,33.4261095 24.4097596,33.5162731 24.4076628,33.566597 C24.3762103,33.9775754 24.3363706,34.3864569 24.294434,34.7974353 C24.2839499,34.9001799 24.2608848,35.0029245 24.2420133,35.1098627 C24.3279833,35.1811549 24.4181469,35.1350246 24.5041169,35.1287342 C24.8647714,35.0993786 25.1352622,34.9169545 25.3260736,34.617108 C25.4078499,34.4892015 25.4770453,34.348714 25.5357564,34.2082265 C26.2633559,32.4154382 26.9867617,30.6226499 27.7122643,28.8298616 C28.1148554,27.8338681 28.5195433,26.8357778 28.926328,25.8397843 C28.9556836,25.7684921 28.9829423,25.6951032 29.0206853,25.6301015 C29.1024616,25.4917108 29.2492396,25.4749362 29.3435968,25.6049395 Z M12.0133101,25.8062351 C12.051053,25.8963987 12.0342783,25.953013 11.9441147,25.9697877 C11.8476606,25.9865623 11.7512065,25.9970464 11.6526556,26.0075306 C11.2123216,26.0557576 11.0340912,26.2214071 11.0152197,26.6596442 C10.987961,27.3369198 10.9732832,28.0141954 10.9732832,28.6914709 C10.9711863,30.3269971 10.9774768,31.9604264 10.9858641,33.5959526 C10.987961,33.8748308 11.0089292,34.1537089 11.0257039,34.4325871 C11.0298975,34.5017825 11.0424785,34.5709778 11.0550595,34.6401731 C11.0990929,34.8687274 11.2311931,35.0238927 11.4597474,35.0679261 C11.6778175,35.1077659 11.9021781,35.1224437 12.124442,35.1476056 C12.172669,35.1538961 12.2271865,35.1455088 12.2691231,35.1643802 L12.3039149,35.1887656 L12.3655772,35.2566407 C12.332028,35.2859963 12.3026724,35.3321265 12.2649295,35.338417 C12.1831532,35.3530948 12.0971832,35.3530948 12.0154069,35.3530948 C10.841183,35.3489011 9.66905589,35.3426107 8.49483198,35.3363202 C8.44660493,35.3363202 8.39837788,35.325836 8.35015082,35.3216424 C8.30821426,35.2126073 8.3627318,35.1727676 8.45079859,35.1601866 C8.56193049,35.1455088 8.6730624,35.1329278 8.78419431,35.1224437 C9.10500905,35.0888944 9.23710924,34.984053 9.29582044,34.6674319 C9.34195066,34.4074252 9.37549992,34.141128 9.37549992,33.8769276 C9.3817904,31.5725132 9.37969357,29.2660019 9.37759674,26.9615875 C9.37759674,26.8357778 9.36920943,26.7099681 9.3524348,26.5862552 C9.31259506,26.2633437 9.16372025,26.099791 8.8429055,26.0347894 C8.70661165,26.0075306 8.56612415,25.9991433 8.42773348,25.9802718 C8.34176351,25.965594 8.27676183,25.9383352 8.32079523,25.8062351 L12.0133101,25.8062351 Z M28.8927787,28.1316178 C28.6956769,28.4335611 27.6577468,31.1971809 27.6535531,31.4194447 C28.4524448,31.415251 29.2534332,31.4383162 30.0837773,31.3963796 C29.7063481,30.2808669 29.3247254,29.2072907 28.8927787,28.1316178 Z M17.2595747,7.58898986 C17.3266732,7.68544397 17.3790939,7.79447904 17.4231273,7.90351412 C17.8320089,8.9057981 18.2387936,9.90808208 18.6476751,10.9103661 C19.2893046,12.4892778 19.9309341,14.0681896 20.5788541,15.6429078 C20.6920828,15.9196891 20.8325703,16.1880832 20.9730578,16.4522835 C21.0862866,16.6640632 21.2456455,16.8422936 21.4553284,16.9660065 C21.6733985,17.093913 21.9040496,17.1484306 22.1577659,17.0897194 C22.3464804,17.045686 22.4806775,16.9408446 22.5268077,16.7584205 C22.5750347,16.5697059 22.6127776,16.3747009 22.6190681,16.1817927 C22.6463269,15.2382199 22.6610047,14.2946471 22.6798762,13.3531712 L22.7910081,7.86157755 C22.8014922,7.74205833 22.7910081,7.61834546 22.9189146,7.52608501 C23.1076292,7.58269938 23.2166642,7.72528371 23.3361834,7.84899658 C23.7618396,8.29352421 24.1770116,8.74643914 24.6047646,9.18886994 C26.3367449,10.9753677 28.070822,12.7576719 29.8069959,14.539976 C29.9139342,14.6490111 30.0271629,14.7517557 30.1445853,14.8628876 C30.2158775,14.785305 30.1907155,14.7056255 30.1907155,14.6343333 C30.1760377,13.6697922 30.1655536,12.7052512 30.1424885,11.7428069 C30.1215202,10.8285897 30.0942614,9.91227574 30.0586153,8.99805855 C30.0523248,8.81144082 30.0166788,8.62272627 29.9747422,8.44030219 C29.9202246,8.20755424 29.7587689,8.06706674 29.5260209,8.02513017 C29.354081,7.99367774 29.1779474,7.99158092 29.0060075,7.96432215 C28.9284248,7.95174118 28.7900341,7.98529043 28.8047119,7.84689976 C28.8172929,7.73367102 28.938909,7.77141393 29.0143948,7.77141393 C29.9307088,7.7693171 30.844926,7.7693171 31.76124,7.77560759 C31.8912433,7.77560759 32.0212467,7.80076953 32.1449596,7.81125367 C32.1701215,7.92448241 32.1051198,7.94754752 32.0443118,7.95803166 C31.9625355,7.97270946 31.8786624,7.97270946 31.7947892,7.97690312 C31.406876,8.00416189 31.1783217,8.19497327 31.1363851,8.57869287 C31.0944486,8.96031564 31.0839644,9.34613207 31.0755771,9.72985166 C31.0378342,11.6232877 31.0063818,13.5167238 30.9686388,15.4101598 L30.9120245,17.2742403 C30.9078308,17.5237629 30.771537,17.5237629 30.6142748,17.4377929 C30.5366922,17.3937595 30.4674969,17.3329515 30.4024952,17.2700466 C30.0166788,16.8968112 29.6266687,16.5256725 29.2471427,16.1419529 C27.8422677,14.7203033 26.4373927,13.2986536 25.0409049,11.8707135 C24.6068615,11.4261858 24.1916894,10.9606899 23.7681301,10.5056782 C23.7136126,10.446967 23.6528045,10.3924494 23.5689314,10.3085763 C23.5626409,10.3966431 23.5563504,10.4406765 23.5563504,10.4868067 C23.5940933,12.0174915 23.6339331,13.5460794 23.6758697,15.0746673 C23.6863538,15.4374186 23.7010316,15.8001699 23.7303872,16.1629212 C23.745065,16.3411516 23.7974857,16.519382 23.8457128,16.6934188 C23.9065208,16.9093921 24.0616861,17.0352018 24.2776594,17.0729447 C24.441212,17.1023003 24.6089583,17.1106877 24.7767046,17.1232686 C24.9318699,17.1358496 24.9989684,17.1693989 24.9821937,17.2427878 C24.954935,17.3602102 24.8521904,17.326661 24.7746077,17.3287578 C23.438928,17.3329515 22.1053452,17.3371451 20.7696655,17.3329515 C20.274814,17.3308546 19.7778656,17.31408 19.2830141,17.301499 C19.2159156,17.2994022 19.1488171,17.2826276 19.0901059,17.2742403 C19.0586535,17.1714957 19.1110742,17.1463337 19.1718822,17.119075 C19.3375317,17.0414923 19.3480158,17.020524 19.3039824,16.8485841 C19.2704332,16.7206776 19.2326903,16.592771 19.18656,16.4690582 C18.9097787,15.7309746 18.62461,14.9949878 18.3520223,14.2548074 C18.2996016,14.1101262 18.222019,14.0451245 18.0647568,14.0451245 C17.5195814,14.0472214 16.9744061,14.0367372 16.4292307,14.0367372 C16.1147064,14.0367372 15.8001822,14.0451245 15.4856579,14.051415 L15.2717814,14.051415 C15.0956478,14.5169109 14.9195142,14.9635354 14.7559616,15.4164503 C14.6301519,15.7645238 14.5148263,16.116791 14.4036944,16.4690582 C14.372242,16.5676091 14.3659515,16.6745473 14.3659515,16.7793888 C14.3680484,16.947135 14.4561151,17.0540733 14.6217646,17.0918162 C14.7224124,17.1148813 14.8293506,17.1169781 14.9320952,17.1295591 C15.032743,17.1421401 15.1354875,17.1589147 15.288556,17.179883 C15.2193607,17.2448847 15.1941987,17.2889181 15.1585527,17.2973054 C15.0788732,17.3161768 14.9929032,17.326661 14.9090301,17.3287578 C13.9801351,17.3329515 13.0491433,17.3329515 12.1202483,17.3329515 C12.0804086,17.3329515 12.038472,17.3245642 12.0007291,17.3182737 C11.952502,17.1861735 12.0216974,17.1463337 12.1286356,17.1337528 C12.2607358,17.119075 12.392836,17.1085908 12.5228394,17.0897194 C12.8163953,17.045686 13.0470465,16.8947143 13.2064054,16.6493854 C13.3007627,16.5047042 13.3846358,16.3474421 13.4496375,16.1880832 C14.1499782,14.466587 14.8440284,12.7450909 15.5422723,11.0235948 C15.9742189,9.95630913 16.4082624,8.88902347 16.840209,7.81964099 C16.8695646,7.74834882 16.8968234,7.67495983 16.9345663,7.60995815 C17.0142458,7.4736643 17.1673143,7.46108333 17.2595747,7.58898986 Z M5.7794392,7.77770442 C7.09205378,7.7839949 8.40676519,7.79028539 9.71937977,7.80706002 C10.0947121,7.81125367 10.4490761,7.92238558 10.7824718,8.09222868 C11.5268459,8.46965779 11.8833067,9.17838579 11.757497,10.0024394 C11.6757207,10.5413243 11.4303918,10.9921424 11.048769,11.375862 C10.8915069,11.5373178 10.7195669,11.6903862 10.5266587,11.8707135 C10.6189192,11.9105532 10.6881145,11.9441025 10.7573098,11.9734581 C11.329744,12.2103997 11.8245955,12.5647637 12.2167024,13.0386469 C12.7891366,13.7285034 12.942205,14.5190077 12.6842951,15.3787074 C12.466225,16.1063068 11.9923418,16.6263203 11.3213567,16.972297 C10.8139242,17.2344005 10.2750393,17.3623071 9.7067988,17.3644039 C9.19097902,17.3644039 8.6730624,17.3371451 8.15724261,17.3329515 C7.45899875,17.3287578 6.76075489,17.3329515 6.0604142,17.3350483 C5.98283155,17.3350483 5.9052489,17.339242 5.82976308,17.326661 C5.79621383,17.3203705 5.74379312,17.2763371 5.74588994,17.2553688 C5.75218043,17.2155291 5.78363285,17.1693989 5.81927894,17.1505274 C5.85911868,17.1274623 5.91363622,17.1295591 5.96186327,17.1253655 C6.05831738,17.1127845 6.15686831,17.1023003 6.25332242,17.093913 C6.47768306,17.0771384 6.62446105,16.9513287 6.66639761,16.739549 C6.71881832,16.4816391 6.76285172,16.2174388 6.77333586,15.9532384 C6.79640098,15.3745137 6.80059463,14.7936923 6.80269146,14.2128708 C6.81107877,12.8646101 6.81736926,11.5142526 6.81527243,10.165992 C6.81527243,9.71098021 6.79430415,9.25806527 6.77962635,8.80515034 C6.77752952,8.71498672 6.76285172,8.62482309 6.74817392,8.53465947 C6.69994687,8.23690984 6.56574985,8.09013185 6.26800022,8.02932383 C6.1044476,7.99577457 5.9346045,7.99577457 5.76895506,7.96641897 C5.68927558,7.953838 5.5508849,7.98109677 5.56765953,7.84689976 C5.5802405,7.73367102 5.70395338,7.77770442 5.7794392,7.77770442 Z M8.54096221,12.3466935 C8.48015419,12.3466935 8.41934616,12.3634681 8.33547303,12.3739523 L8.33547303,12.6570241 C8.3333762,13.3825267 8.33127937,14.1080294 8.3333762,14.8356288 C8.3333762,15.2130579 8.33547303,15.5904871 8.35224765,15.9658193 C8.37321594,16.4208311 8.52209075,16.605352 8.95823106,16.7269681 C9.33356335,16.8318095 9.71728295,16.8527778 10.0989057,16.7730983 C10.6734367,16.6535791 11.0990929,16.2006641 11.1997406,15.6177458 C11.256355,15.2843501 11.2395804,14.9509544 11.1892565,14.6175587 C11.0739309,13.843829 10.7132764,13.2105868 10.0926152,12.7304131 C9.86825459,12.5584732 9.62082884,12.4284698 9.33356335,12.4012111 C9.06936297,12.3760491 8.80516259,12.3613713 8.54096221,12.3466935 Z M16.8360154,10.1030871 C16.6724628,10.2792207 15.6030803,13.0659057 15.5800152,13.3720426 C16.3726163,13.4076887 17.1673143,13.4097855 18.014433,13.3825267 C17.6139387,12.2691109 17.2281223,11.1892442 16.8360154,10.1030871 Z M8.66048143,8.27255592 C8.40676519,8.26416861 8.35853814,8.31449249 8.33966668,8.57240238 C8.33547303,8.62062944 8.3333762,8.67095332 8.3333762,8.71918037 C8.33547303,9.16370799 8.33547303,9.61033245 8.33547303,10.0569569 C8.33756985,10.5601957 8.3333762,11.0613377 8.33966668,11.5645765 C8.34176351,11.765872 8.37321594,11.7952276 8.57451146,11.8015181 C8.83242136,11.8099054 9.09033125,11.803615 9.34824115,11.8057118 C9.56002082,11.8057118 9.74244489,11.7260323 9.9059975,11.5981258 C10.1240677,11.4303795 10.2603615,11.2060189 10.3442346,10.948109 C10.4469792,10.6377784 10.4574634,10.3169636 10.4323014,9.99614887 C10.3861712,9.42790837 10.1555201,8.9498315 9.7214766,8.57449921 C9.57469861,8.44868951 9.411146,8.35642906 9.22243144,8.32707346 C9.03791054,8.29771786 8.84919599,8.27674958 8.66048143,8.27255592 Z M35.3027832,12.5668605 C35.2964927,12.8100926 35.2818149,13.0512279 35.2818149,13.29446 C35.2860085,14.2086771 35.292299,15.1249912 35.30488,16.0392083 C35.3069768,16.2195356 35.3258483,16.4019597 35.3593975,16.5801901 C35.4181087,16.9051985 35.5585962,17.033105 35.8877983,17.0813321 C36.0387699,17.1023003 36.1939352,17.1085908 36.3470037,17.1253655 C36.4266832,17.1337528 36.5189436,17.1274623 36.5503961,17.2427878 C36.5084595,17.3308546 36.4245864,17.3161768 36.3511974,17.3161768 C36.0094143,17.3203705 35.6655345,17.3245642 35.3237515,17.3245642 C34.5269567,17.3245642 33.7301619,17.3224673 32.9333671,17.3203705 C32.8453003,17.3203705 32.7572335,17.3119832 32.6691667,17.3056927 C32.6398111,17.2029481 32.6733603,17.1505274 32.7530398,17.1316559 C32.79917,17.1211718 32.8494939,17.1211718 32.8998178,17.119075 C32.9774005,17.1148813 33.0528863,17.1127845 33.1304689,17.1043972 C33.398863,17.0750416 33.5708029,16.9324572 33.6127395,16.6619664 C33.6504824,16.4145406 33.6987094,16.165018 33.7049999,15.9154955 C33.7259682,15.2382199 33.7343555,14.5609443 33.7385492,13.8836687 C33.7427428,12.7513814 33.7427428,11.6190941 33.7385492,10.4889035 C33.7364523,9.93743768 33.7238714,9.38597181 33.7112904,8.83450593 C33.7070967,8.70240575 33.6819348,8.57030556 33.6588697,8.44030219 C33.6274173,8.25787812 33.5162854,8.13206842 33.3443454,8.07964771 C33.1849865,8.03142065 33.019337,8.00835554 32.8536876,7.97899994 C32.7656208,7.96432215 32.6733603,7.96222532 32.5831967,7.94964435 C32.5265824,7.94125703 32.4615807,7.92028875 32.482549,7.84899658 C32.4909363,7.81754416 32.5517443,7.78609173 32.591584,7.7839949 C32.7593303,7.77351076 32.9270766,7.77351076 33.0948229,7.77351076 C34.0866227,7.77351076 35.0784225,7.77351076 36.0723192,7.77351076 C36.1394177,7.77351076 36.2065162,7.77351076 36.2715179,7.77351076 C36.3176481,7.92028875 36.2379686,7.94964435 36.1519987,7.96432215 C36.0345763,7.98529043 35.9171539,7.99577457 35.7997315,8.01674286 C35.5418216,8.06287308 35.3845595,8.22432887 35.3510102,8.47804511 C35.3153641,8.74643914 35.3006863,9.02112366 35.2985895,9.29161453 C35.292299,10.1219586 35.2964927,10.9543995 35.2985895,11.7847435 C35.2985895,11.8329706 35.30488,11.8811976 35.3090737,11.9420056 C35.4076246,11.9315215 35.451658,11.8560357 35.5061755,11.8015181 C36.2232908,11.057144 36.942503,10.3148668 37.6554246,9.56420222 C37.9091409,9.29580818 38.1502761,9.01273635 38.3872178,8.72966451 C38.4752845,8.62482309 38.5486735,8.49901339 38.5989974,8.37110686 C38.6765801,8.16981133 38.6262562,8.07126039 38.4270575,7.97690312 C38.347378,7.94125703 38.2949573,7.89722364 38.3327002,7.80286636 C38.6933547,7.72738054 41.2976156,7.76092979 41.5052016,7.84480293 C41.5093953,7.96222532 41.4234253,7.97270946 41.3374553,7.97270946 C40.8971214,7.97690312 40.5029176,8.13206842 40.1338758,8.35433223 C39.9388708,8.47385145 39.7438657,8.60595164 39.5803131,8.76321377 C38.6052879,9.70468972 37.63865,10.654553 36.6699153,11.6023194 C36.6049136,11.6652243 36.5503961,11.7365164 36.4832976,11.8099054 C36.5357183,11.8791008 36.5797517,11.9420056 36.6300755,11.99862 C37.7644597,13.3091378 38.9302963,14.5902999 40.1716187,15.8001699 C40.4463032,16.0664671 40.7440529,16.3138929 41.0501898,16.544544 C41.4800397,16.8716492 41.9665038,17.0750416 42.5116792,17.1232686 C42.5682936,17.1274623 42.6207143,17.1589147 42.7171684,17.1903671 C42.6458762,17.2448847 42.6165206,17.2847244 42.5766809,17.2952086 C42.5032919,17.31408 42.4257093,17.3224673 42.3481266,17.3224673 C41.7819829,17.326661 41.2158393,17.3224673 40.6496956,17.3287578 C40.0479059,17.3350483 39.5236987,17.1442369 39.0917521,16.7227744 C38.7562596,16.3956692 38.4144765,16.0748544 38.0978554,15.7309746 C37.1941224,14.747562 36.3092608,13.7494717 35.4852072,12.6989607 C35.4432707,12.64654 35.3950436,12.5962161 35.3510102,12.5458922 C35.3342356,12.5542795 35.3195578,12.56057 35.3027832,12.5668605 Z" id="Combined-Shape" fill="#000000" fill-rule="nonzero"></path>
        </g>
    </g>
</svg>