<?xml version="1.0" encoding="UTF-8"?>
<svg width="48px" height="48px" viewBox="0 0 48 48" version="1.1" xmlns="http://www.w3.org/2000/svg" xmlns:xlink="http://www.w3.org/1999/xlink">
    <title>my-cimb</title>
    <g id="Page-1" stroke="none" stroke-width="1" fill="none" fill-rule="evenodd">
        <g id="my-cimb">
            <rect id="Rectangle" x="0" y="0" width="48" height="48"></rect>
            <path d="M23.6855966,46.4420146 C23.3101551,46.4420146 22.6882582,46.4397197 22.0663613,46.4420146 C18.9039003,46.4511945 15.7414393,46.4626694 12.5789783,46.4741443 C10.9436198,46.4787342 9.30826125,46.4810292 7.6729027,46.4879141 C6.98881609,46.4902091 6.30703281,46.5200437 5.62524953,46.4764392 C5.15767518,46.4466046 4.70392077,46.3502157 4.27089625,46.155143 C3.32883759,45.7374578 2.61711112,45.1155201 2.08734709,44.2204805 C1.8892614,43.8854144 1.75797205,43.5273986 1.64971592,43.1556129 C1.52763986,42.7310428 1.50690997,42.2972929 1.50690997,41.8635429 C1.50460664,29.9686963 1.50460664,18.0738498 1.5,6.17670819 C1.5,5.85541193 1.55758305,5.54100059 1.54145979,5.21970433 C1.53454983,5.08430091 1.61055945,4.95807738 1.6474126,4.83414882 C1.69808568,4.66661577 1.72342222,4.4830179 1.82246507,4.32695972 C1.88235144,4.23286581 1.87083483,4.11123223 1.93532784,4.01025341 C2.15875006,3.65912249 2.37526232,3.30110666 2.65857092,2.99128526 C3.54534985,2.02280653 4.65324768,1.50643754 5.96383785,1.50184759 C8.44221221,1.4926677 10.9228899,1.52020738 13.4012643,1.52938727 C14.5460153,1.53397722 15.6884629,1.53627219 16.8332139,1.53856717 C18.3464964,1.54086214 19.8574756,1.54315711 21.370758,1.55004203 C24.1946307,1.5615169 27.0208067,1.57528674 29.8446793,1.58905658 C32.7468649,1.60282642 35.6490505,1.61889123 38.5489328,1.63495605 C39.7305369,1.64184097 40.9121411,1.65790578 42.0960485,1.66249573 C42.4208169,1.66249573 42.7386753,1.70380524 43.0473205,1.78412931 C44.1367917,2.06641102 45.2354763,2.669989 45.9794493,4.04926795 C46.1844449,4.42793854 46.3111276,4.83644379 46.4078671,5.25871888 C46.49309,5.62132466 46.5,5.98622541 46.5,6.35571611 C46.5,18.053195 46.5,29.7483789 46.5,41.4458578 C46.5,41.8474781 46.4976967,42.2468035 46.4170804,42.6507188 C46.228208,43.5962478 45.8642832,44.3168694 45.2585095,44.947987 C44.6481292,45.5836946 43.9156728,46.0082647 43.0496238,46.2125173 C42.6972155,46.2951363 42.3471106,46.3387408 41.9877924,46.3387408 C40.7278753,46.3456258 39.4702616,46.3525107 38.2103445,46.3593956 C36.0613451,46.3708705 33.9123458,46.3777554 31.7610431,46.3892303 C29.1536828,46.4052951 26.5417157,46.4236549 23.6855966,46.4420146 Z M41.9555459,23.9420965 C41.8933562,23.8480026 41.8357731,23.7493187 41.7666735,23.6575198 C40.2188412,21.5920438 38.6848288,19.5196829 37.1162666,17.4679768 C35.2851257,15.0697297 33.4240416,12.6944324 31.581384,10.3053652 C31.4915545,10.1906165 31.3971183,10.1722567 31.2681323,10.1722567 C23.3907714,10.1745517 15.5134105,10.1745517 7.63604955,10.1745517 C7.57155653,10.1745517 7.5047602,10.1745517 7.40111071,10.1745517 C7.48863695,10.2847104 7.54852331,10.3581495 7.60610636,10.4338837 C9.60078313,13.0340884 11.5954599,15.6365881 13.59244,18.2344979 C15.0757793,20.1622754 16.5637252,22.0854631 18.0724011,23.9948809 C18.0263346,24.0568451 17.9825715,24.1188094 17.9365051,24.1784787 C17.148769,25.183677 16.3587296,26.1842854 15.5732968,27.1940736 C14.536802,28.5274531 13.5049138,29.8654225 12.4753289,31.2056869 C11.7014127,32.2108852 10.9344065,33.2206735 10.1627937,34.2304617 C9.28062139,35.3848333 8.39614577,36.5369099 7.51397349,37.6912815 C7.4840303,37.730296 7.42644725,37.7624256 7.47251369,37.8404547 C7.54852331,37.8404547 7.6314429,37.8404547 7.71666581,37.8404547 C15.538747,37.8404547 23.3585249,37.8404547 31.180606,37.8404547 C31.2335824,37.8404547 31.2888622,37.8358648 31.3418386,37.8404547 C31.4362748,37.8473397 31.5007678,37.8037352 31.5537442,37.730296 C31.659697,37.5903026 31.7679531,37.4526042 31.8762092,37.3126109 C32.4958028,36.5162551 33.1153964,35.7198994 33.7326867,34.9212487 C34.7945181,33.5488547 35.8632595,32.1810506 36.9112709,30.7994767 C37.9178226,29.4706871 38.8990377,28.1235378 39.9009828,26.7924533 C40.5988893,25.8652841 41.2576394,24.9082802 41.9970057,24.0109457 C42.0315555,23.9719311 42.0085223,23.9420965 41.9555459,23.9420965 Z" id="Shape" fill="#780109" fill-rule="nonzero"></path>
        </g>
    </g>
</svg>