<?xml version="1.0" encoding="UTF-8"?>
<svg width="48px" height="48px" viewBox="0 0 48 48" version="1.1" xmlns="http://www.w3.org/2000/svg" xmlns:xlink="http://www.w3.org/1999/xlink">
    <title>mybn</title>
    <g id="Page-1" stroke="none" stroke-width="1" fill="none" fill-rule="evenodd">
        <g id="mybn">
            <rect id="Rectangle" x="0" y="0" width="48" height="48"></rect>
            <path d="M24,46.5 C36.4264069,46.5 46.5,36.4264069 46.5,24 C46.5,11.5735931 36.4264069,1.5 24,1.5 C11.5735931,1.5 1.5,11.5735931 1.5,24 C1.5,36.4264069 11.5735931,46.5 24,46.5 Z M18.4674868,28.929375 C18.5912368,29.292 21.3092368,37.2765 21.5537368,37.684125 C21.5537368,37.684125 22.0536118,37.933875 21.6362368,38.268375 C21.6362368,38.268375 21.4693618,38.350875 21.0523618,38.350875 L20.9604868,38.350875 L20.8682368,38.350125 C20.4242368,38.34375 20.0173618,38.290125 20.3841118,37.849875 C20.3841118,37.849875 17.3777368,29.415 17.1276118,29.415 C16.7938618,29.415 16.7094868,29.499375 16.6266118,29.916375 C16.5163618,30.391125 15.9272368,31.713375 15.2916118,33.106125 L15.1551118,33.40575 C14.3788618,35.1045 13.5801118,36.8265 13.5358618,37.181625 C13.5358618,37.7655 13.6202368,38.184 13.0359868,38.266875 C12.4517368,38.266875 11.7834868,38.35125 11.7834868,38.184 C11.6994868,37.767 12.3677368,37.265625 12.3677368,37.265625 L12.4502368,37.183125 C12.7802368,36.523125 13.5381118,34.231875 14.2311118,32.011875 L14.3297368,31.695375 C14.9987368,29.53875 15.5833618,27.52725 15.6238618,27.245625 C15.6238618,26.9955 15.7896118,26.326125 15.7067368,25.324875 C15.7067368,24.23925 15.4581118,22.651125 14.7898618,20.731875 C14.7898618,20.731875 13.8703618,17.224125 12.9519868,16.974375 C12.9519868,16.974375 11.1981118,17.058375 11.1152368,16.72425 C11.0308618,16.641375 11.1977368,16.390125 11.1977368,16.390125 C11.2821118,16.30725 11.1152368,16.30725 11.1152368,16.30725 C10.6138618,16.30725 10.5298618,16.057125 10.5298618,16.057125 C10.4469868,15.973125 10.5298618,15.805875 10.8636118,15.556125 C11.7823618,14.720625 12.5346118,14.386125 12.6174868,14.386125 C12.6174868,14.386125 12.6092368,14.367375 12.5968618,14.33175 L12.5829868,14.29125 C12.4798618,13.97175 12.2473618,12.91725 13.3689868,12.215625 C13.3689868,12.215625 13.0359868,13.88625 14.0372368,14.136375 C14.0372368,14.136375 15.7082368,14.553375 15.1251118,12.049875 C15.1251118,12.049875 16.7121118,12.802125 15.4596118,14.72175 L17.9646118,21.40275 C17.9646118,21.40275 18.4656118,23.40525 20.3867368,23.322375 C21.1682368,23.254125 22.9044868,23.116875 24.7164868,22.9725 L25.0277368,22.94775 L25.3393618,22.922625 C27.7806118,22.727625 30.1787368,22.53225 30.4067368,22.486875 C30.8237368,22.486875 33.8301118,22.15275 34.2467368,22.98825 L34.2572368,22.983375 C34.4447368,22.896 37.1473618,21.60375 36.5019868,20.233125 C35.9181118,19.064625 33.9129868,19.566 33.4959868,19.816125 C33.2848618,19.9005 31.4687368,20.562375 29.4774868,21.184875 L29.1849868,21.275625 C27.3268618,21.847875 25.3779868,22.35975 24.4768618,22.321125 C22.5576118,22.321125 21.5563618,22.069875 21.8061118,21.5685 C21.9718618,20.901375 22.6404868,21.318375 22.8073618,21.40275 C22.9746118,21.5685 24.8113618,21.736875 26.5648618,21.1515 C26.5648618,21.1515 28.4709868,20.5545 30.4281118,19.938375 L30.7014868,19.852125 C32.3863618,19.321875 34.0453618,18.79725 34.4972368,18.6465 C35.5824868,18.39525 37.1691118,18.813375 37.4192368,20.14875 C37.4192368,20.14875 38.1718618,22.15275 34.8313618,23.6565 C34.8313618,23.6565 35.4996118,24.32475 35.4996118,25.326 C35.4996118,25.827375 35.3312368,26.4945 34.7469868,27.24675 C33.0774868,29.4165 33.4119868,29.000625 33.4944868,29.917875 C33.4944868,29.917875 33.9883618,31.759125 34.5219868,33.682875 L34.5988618,33.9585 C35.0713618,35.65725 35.5584868,37.35525 35.7497368,37.851 C35.7497368,37.851 36.5008618,38.268375 35.4152368,38.43525 C34.1627368,38.685375 34.8313618,37.933875 34.8313618,37.933875 C34.5606118,37.359 34.0431118,35.961375 33.4959868,34.497 L33.3928618,34.222125 L33.3411118,34.084125 L33.1862368,33.67125 C32.4801118,31.79625 31.7908618,30.0435 31.5737368,30.00075 C31.1762368,29.956875 30.1723618,32.13075 29.2524868,34.263 L29.1328618,34.5405 C28.7961118,35.326125 28.4747368,36.09225 28.2039868,36.72525 L28.1106118,36.943125 C27.8068618,37.64925 27.5781118,38.152875 27.4821118,38.268375 C27.3238618,38.4195 27.1164868,38.508375 26.8978618,38.518125 C26.5637368,38.518125 26.3136118,38.435625 26.3124868,38.435625 C25.9783618,38.268375 26.2281118,37.933875 26.2281118,37.933875 C26.2281118,37.849875 26.4793618,37.767 26.6451118,37.767 C26.9796118,37.59975 29.5686118,29.5005 29.5686118,29.5005 C29.5686118,29.5005 29.5738618,29.4855 29.5821118,29.457375 L29.5933618,29.417625 C29.6961118,29.04225 30.0216118,27.5265 28.4833618,27.747 C26.6451118,27.99675 22.9719868,29.25075 21.3021118,29.33325 C19.7158618,29.4165 18.4633618,28.9995 18.4633618,28.916625 L18.4674868,28.929375 Z M28.7346118,10.46175 C28.6517368,10.795875 28.5673618,11.13 28.5673618,11.547 C28.5673618,12.96675 29.7358618,14.052 31.1567368,14.052 C31.6566118,14.052 32.0751118,13.9695 32.4932368,13.635 C32.1594868,14.3865 31.2407368,14.970375 30.4052368,14.970375 C28.9784406,14.9629928 27.823619,13.8081712 27.8162368,12.381375 C27.8162368,11.629875 28.1499868,10.87875 28.7346118,10.461375 L28.7346118,10.46175 Z M22.3873618,9.375 C23.8071118,9.375 24.8923618,10.544625 24.8923618,11.964375 C24.8923618,13.384125 23.8071118,14.469375 22.3873618,14.469375 C20.9676118,14.469375 19.7983618,13.38525 19.7983618,11.964375 C19.7987368,10.543125 20.9679868,9.375 22.3873618,9.375 Z" id="Shape" fill="#000000"></path>
        </g>
    </g>
</svg>