<?xml version="1.0" encoding="UTF-8"?>
<svg width="48px" height="48px" viewBox="0 0 48 48" version="1.1" xmlns="http://www.w3.org/2000/svg" xmlns:xlink="http://www.w3.org/1999/xlink">
    <title>ng-cbn</title>
    <g id="Page-1" stroke="none" stroke-width="1" fill="none" fill-rule="evenodd">
        <g id="ng-cbn">
            <rect id="Rectangle" x="0" y="0" width="48" height="48"></rect>
            <path d="M25.2243809,1.79898664 C25.6599413,2.06702378 25.8295585,2.49630202 25.8504989,2.99049551 C25.8630632,3.26900286 25.8484049,3.54960425 25.856781,3.82811159 C25.8693453,4.19875671 25.9112261,4.56730778 26.0263983,4.92120058 C26.0850314,5.10547612 26.164605,5.28765761 26.269307,5.45099275 C26.4431123,5.72531202 26.6943971,5.81535574 26.9896568,5.74625242 C27.2723522,5.68133717 27.4503456,5.47193315 27.4922264,5.14735692 C27.5320132,4.84581513 27.5006026,4.54846142 27.4314993,4.25320175 C27.3917125,4.08986662 27.3477377,3.92862552 27.2974807,3.76947847 C27.1844025,3.40930355 27.2409416,3.08053924 27.4629099,2.77899745 C27.6681258,2.49839606 27.9089404,2.25967548 28.250269,2.14869135 C28.5539048,2.05027146 28.8470705,2.09843438 29.1213897,2.2450172 C29.397803,2.39369405 29.6700283,2.55284111 29.9296892,2.72664645 C30.7547411,3.27737902 31.5211598,3.90559108 32.2896725,4.53380314 C32.5158289,4.71807868 32.7419852,4.90444826 32.9765177,5.09291187 C32.9074144,5.31069206 32.7147627,5.26043509 32.5346753,5.29393973 C32.6624117,5.75881666 32.8592515,6.17971874 33.1586992,6.57758638 C32.8634396,6.65506587 32.5995905,6.60899698 32.3378355,6.53570557 C32.3210831,6.88750433 32.6749759,7.6099482 33.1272886,8.14602249 C32.8990382,8.17743309 32.6896342,8.13764633 32.4823242,8.11879997 C32.2708262,8.09995361 32.0593281,8.05388472 31.8185135,8.01409796 C32.7671137,9.67885992 33.9314001,11.1467821 35.332313,12.4618393 C35.2569275,12.4723096 35.2108586,12.4785917 35.1543195,12.4869678 C35.2506454,12.6063281 35.336501,12.7173123 35.4265448,12.8199202 C35.4663315,12.8659891 35.5144945,12.909964 35.5689395,12.9371865 C37.0054511,13.6763827 37.9938381,14.8364809 38.7037177,16.2583342 C39.0764568,17.0059066 39.3340238,17.7932657 39.4450079,18.6245997 C39.4743245,18.8465679 39.4868887,19.0685362 39.5057351,19.2905045 C39.5099232,19.3575137 39.5120172,19.4266171 39.5162053,19.5082846 C39.5769325,19.4852502 39.6230013,19.4684979 39.6669762,19.4517455 C40.0083047,19.3240091 40.3433512,19.4433694 40.4794638,19.7846979 C40.5883539,20.0548291 40.6637393,20.3417126 40.7181844,20.6265021 C40.8689553,21.401297 40.9464347,22.1865621 40.9799394,22.9739212 C41.0239142,23.9979068 41.0720772,25.0239865 41.0783593,26.0479722 C41.0867354,27.1913181 41.0448546,28.3367581 40.9234003,29.475916 C40.8626731,30.0371188 40.7893817,30.5983215 40.6365168,31.144866 C40.5611313,31.4170913 40.4459591,31.6662821 40.2763419,31.8945324 C38.6241442,34.1456257 36.9175014,36.352744 35.1145328,38.486571 C34.8946586,38.748326 34.6622201,38.9996108 34.4339697,39.2550837 C34.398371,39.2948705 34.3627723,39.3367513 34.3020452,39.4100427 C34.5575181,39.370256 34.7711102,39.3262811 34.9888904,39.3074348 C35.9437727,39.2215791 36.8379279,39.3995725 37.6357572,39.9523991 C38.1152924,40.2832575 38.4754673,40.7146298 38.6199561,41.2883968 C38.7770091,41.9082327 38.6534607,42.4882818 38.2597812,42.9887574 C37.5101148,43.9436398 36.7520722,44.89224 35.9814654,45.83037 C35.6673594,46.2114853 35.229705,46.406231 34.7459817,46.4753344 C34.2099074,46.5507198 33.6989616,46.456488 33.2466489,46.1486641 C32.0677043,45.3466467 30.7693994,44.8147605 29.4019911,44.4420213 C28.3361246,44.1509497 27.2514118,43.9520159 26.1499467,43.8850066 C25.071516,43.8179974 23.9930853,43.7970569 22.9125605,43.849408 C22.2843485,43.8808186 21.6624185,43.9247934 21.0425826,44.0148371 C19.2479902,44.2765922 17.5245951,44.7686916 15.9310305,45.6523766 C15.6504291,45.8073355 15.3823919,45.985329 15.1122608,46.1591343 C14.3395599,46.6491397 13.3407027,46.6072589 12.6203529,46.0481502 C12.5177449,45.9685766 12.4214191,45.8722508 12.3376575,45.7696428 C11.7178216,44.996942 11.1021738,44.2200531 10.4823379,43.4452582 C10.3902001,43.330086 10.2959683,43.2191019 10.2017365,43.1081177 C9.50651514,42.2788778 9.51698534,41.2109173 10.2352411,40.3984297 C10.7357167,39.8330388 11.3827752,39.5231209 12.1115011,39.370256 C12.6496695,39.2571778 13.1920259,39.2529897 13.7343823,39.3555977 C13.7616048,39.3597858 13.7888274,39.3597858 13.8348962,39.3618798 C13.8118618,39.322093 13.8013916,39.2906824 13.7804512,39.267648 C12.4632999,37.81229 11.2571327,36.2647943 10.0551537,34.7152046 C9.39343697,33.8608362 8.75894278,32.9834333 8.09094396,32.133253 C7.728675,31.6725642 7.53811735,31.1574303 7.43760342,30.5920394 C7.30567888,29.8486552 7.23657556,29.0989888 7.19050667,28.3472283 C7.11093314,27.0217009 7.11093314,25.6961734 7.15281395,24.370646 C7.18841263,23.2126418 7.25542192,22.0567316 7.43969746,20.9112916 C7.48576634,20.622314 7.55486967,20.3375246 7.62397299,20.0527351 C7.64700744,19.9522212 7.68888824,19.8538013 7.73495712,19.7595695 C7.90666842,19.422429 8.27312546,19.3093508 8.60607785,19.4852502 C8.68983946,19.529225 8.76731894,19.5878582 8.874115,19.6548674 C8.87830308,19.5648237 8.88667924,19.4978144 8.88667924,19.4308051 C8.88039712,17.340953 10.1116928,14.7966942 11.9628243,13.4544144 C12.4926165,13.069111 13.0663835,12.7759454 13.6925015,12.5811996 C13.719724,12.5728235 13.7448525,12.5623533 13.7992976,12.5435069 C13.7218181,12.5204725 13.6694671,12.5058142 13.5940816,12.4848738 C14.8735402,11.1111834 15.7572251,9.53855923 16.2221021,7.70418001 L15.5478211,7.70418001 C15.8703033,7.32934681 16.1215881,6.9691719 16.1069299,6.47497841 C15.907996,6.41006316 15.7132503,6.34514792 15.5059403,6.27604459 C15.7383788,5.90330543 15.9812874,5.56197688 16.0964597,5.1410748 C15.8095761,5.08872379 15.4996582,5.07825359 15.4598714,4.68038595 C15.539445,4.65944555 15.6106423,4.63850515 15.6839337,4.62175283 C16.4524465,4.44794749 17.1351036,4.10661894 17.7528455,3.61242545 C18.6239662,2.91511006 19.5997889,2.41463445 20.6803137,2.12775095 C20.7933918,2.09843438 20.9127521,2.07958802 21.0300184,2.06911782 C21.3357482,2.03980126 21.4907072,2.12775095 21.5451523,2.42929274 C21.6100675,2.77690341 21.635196,3.13289024 21.6645126,3.48678304 C21.6917351,3.81973543 21.6959232,4.15478186 21.7147695,4.4898283 C21.7294278,4.74948928 21.8048132,4.98402178 22.0204994,5.151545 C22.1901166,5.28346953 22.3513577,5.43214639 22.5398214,5.53475436 C22.835081,5.69390141 23.1031182,5.63317425 23.3376507,5.39026558 C23.6391925,5.06568935 23.716672,4.66991575 23.6768852,4.24482559 C23.6496627,3.93700168 23.5575249,3.64383605 23.4172242,3.36742275 C23.3292745,3.19571145 23.2036321,3.07635116 23.0151685,3.03028227 C22.8120466,2.98002531 22.6089247,2.93395643 22.4058028,2.8857935 C22.3597339,2.8753233 22.3157591,2.86275906 22.2738783,2.85228886 C22.2717842,2.8334425 22.2675961,2.82506633 22.2696902,2.82087825 C22.5858902,2.31412053 22.987946,1.88274824 23.5407726,1.6461217 C24.1145396,1.401119 24.6945887,1.47231636 25.2243809,1.79898664 Z M22.2780663,40.1827436 C21.4341681,40.1974018 20.5965521,40.3125741 19.76103,40.4444986 C17.9119925,40.7355702 16.1257762,41.2423279 14.4149454,42.0003705 C13.7071598,42.3144765 13.0203146,42.6725574 12.3523158,43.0641429 C12.0047051,43.2672648 11.6382481,43.3782489 11.2068758,43.2567946 C11.2948255,43.4787628 11.4393142,43.5562423 11.6445302,43.5227377 C11.6926931,43.5143615 11.740856,43.5080794 11.789019,43.4976092 C12.0696203,43.4431642 12.3083409,43.3007694 12.5512496,43.1625628 C15.4703416,41.4978008 18.6302483,40.6559966 21.9660543,40.4235582 C22.2278094,40.4047118 22.4937525,40.4298403 22.7555075,40.4088999 C23.7250481,40.3335145 24.6924947,40.3356085 25.6620353,40.3879595 C25.8902857,40.4005237 26.1206301,40.3774893 26.3467864,40.3942416 C26.8891429,40.4361224 27.4294052,40.4884734 27.9717616,40.5471066 C28.8324122,40.6413384 29.6804985,40.7962973 30.5243967,40.9931371 C32.2163811,41.3868167 33.8371683,41.975242 35.3825699,42.7709772 C35.4349209,42.7981998 35.49146,42.8170461 35.5459051,42.8400806 C35.5249647,42.7940117 35.4935541,42.7667892 35.4579554,42.7500368 C35.0558997,42.5427269 34.658032,42.3249467 34.2476001,42.134389 C31.7494102,40.9763848 29.1109195,40.3774893 26.3719149,40.1994959 C26.1227241,40.1827436 25.8714393,40.2120601 25.6243426,40.1890257 C24.5061251,40.0780415 23.3920957,40.1618032 22.2780663,40.1827436 Z M36.1217661,43.1583747 C36.3353582,43.3175217 36.530104,43.4033774 36.7353199,43.4682926 C36.9824166,43.5478662 37.0201094,43.5269258 37.1478458,43.2861111 C36.9886988,43.2902992 36.8211755,43.3133337 36.6599345,43.2944873 C36.4945053,43.2756409 36.3332642,43.2149138 36.1217661,43.1583747 Z M33.1607933,40.9009993 C33.1922039,40.9261278 33.2047681,40.9449742 33.2236145,40.9512563 C34.2224717,41.3219014 35.1417553,41.8454115 36.0400986,42.4108023 C36.2871953,42.5657613 36.5615146,42.6453348 36.8504921,42.6578991 C37.315369,42.6788395 37.7739638,42.4066143 37.9352049,42.0150287 C37.9498632,41.9794301 37.9477692,41.9354552 37.9540513,41.8977625 C37.9142645,41.9187029 37.8975122,41.9396433 37.8828539,41.9626777 C37.6587916,42.3249467 37.3300273,42.496658 36.9070312,42.5029401 C36.5677967,42.5071282 36.2641609,42.4024262 35.9793714,42.2244328 C35.3595355,41.8349413 34.7208532,41.4768604 34.0570425,41.1690365 C33.8371683,41.0664285 33.6089179,40.9763848 33.3827615,40.884247 C33.3178463,40.8570245 33.2445549,40.8130497 33.1607933,40.9009993 Z M14.8609759,40.6162099 C14.9070448,40.676937 14.9489256,40.7313821 15.0054647,40.8046735 C14.7855905,40.8947172 14.5908447,40.9701027 14.4002871,41.0538643 C13.6401505,41.3868167 12.9156126,41.7888724 12.2141091,42.2307149 C11.8183355,42.4778116 11.3953394,42.5699494 10.9367446,42.4526831 C10.9158042,42.446401 10.8906757,42.4526831 10.8236664,42.4526831 C10.9786254,42.5678553 11.114738,42.6118302 11.2571327,42.6369587 C11.6550004,42.7018739 12.0193634,42.6055481 12.3544098,42.3961441 C13.2422829,41.8412234 14.1469082,41.3239955 15.1332012,40.9575384 C15.1583296,40.9491623 15.17927,40.9303159 15.2002104,40.9156576 C15.0829442,40.7251 15.0033707,40.6539026 14.8609759,40.6162099 Z M8.25637314,20.5867153 C8.19564597,20.6390663 8.16004729,20.7018875 8.1349188,20.7688968 C8.01555851,21.0850969 7.94436114,21.4117672 7.9317969,21.7468136 C7.90666842,22.3666495 7.8794459,22.9885795 7.86688166,23.6084154 C7.82918893,25.4574529 7.82081277,27.3064903 7.89829226,29.1534338 C7.91295054,29.528267 7.9422671,29.9072883 7.99880619,30.2779334 C8.10560224,30.9689667 8.38620363,31.5992728 8.74219046,32.1981683 C9.20078527,32.9687751 9.76617612,33.6598083 10.3629776,34.3278072 C11.6591885,35.778977 12.9595874,37.2301469 14.2662685,38.6729406 C14.5929388,39.0352095 14.9405495,39.3807262 15.2986303,39.7115845 C15.491282,39.8895779 15.7216265,40.0298786 15.9477828,40.1638972 C16.1571868,40.2874456 16.3959074,40.3167621 16.636722,40.2518469 C17.0115552,40.1492389 17.3507897,39.9691515 17.6523315,39.7283368 C17.8512653,39.5650017 17.9538733,39.3388454 17.9810958,39.1440996 C17.8973342,39.2090149 17.7884441,39.3095288 17.6628017,39.3807262 C17.4031407,39.529403 17.1413857,39.6759858 16.8670665,39.7953461 C16.5990293,39.9105183 16.3142398,39.891672 16.0587669,39.7471832 C15.853551,39.632011 15.6483351,39.5042745 15.4745297,39.3472215 C15.1352952,39.0373036 14.8044369,38.7148214 14.4945189,38.3734928 C13.8998115,37.7180582 13.3260445,37.0416833 12.7355251,36.3820606 C11.9523541,35.5088458 11.1545248,34.6502893 10.3755418,33.7749805 C9.79968076,33.1279221 9.26570051,32.447359 8.83642227,31.6914105 C8.44274271,30.9982832 8.17261153,30.2611811 8.12026052,29.4591637 C8.07628568,28.797447 8.04068699,28.1357303 8.04068699,27.4740136 C8.04068699,25.6940794 8.05953336,23.9162393 8.08047376,22.1363051 C8.08466184,21.7886944 8.12026052,21.4410837 8.15585921,21.0934731 C8.17261153,20.9238558 8.22077445,20.7563326 8.25637314,20.5867153 Z M40.0166809,20.6327842 C39.9999286,20.6390663 39.9810822,20.6432544 39.9643299,20.6495365 C39.970612,20.6893233 39.9789882,20.7291101 39.9852703,20.7688968 C40.0187749,20.9615485 40.0711259,21.1521062 40.0795021,21.3447579 C40.1151008,22.0839541 40.1486054,22.8231503 40.1569816,23.5602524 C40.180016,25.2983058 40.1925803,27.0342651 40.1192889,28.7702245 C40.1025365,29.1597159 40.075314,29.5513014 40.0145869,29.9366048 C39.9015087,30.671613 39.5915907,31.3333297 39.2020993,31.9615417 C38.8042316,32.6044121 38.3372607,33.1970254 37.836785,33.7603223 C36.4861291,35.2764074 35.1312851,36.7883044 33.7743471,38.2981074 C33.4937457,38.6080253 33.2026741,38.9116612 32.8969442,39.1943566 C32.6896342,39.3870083 32.4551017,39.5587196 32.2142871,39.7094905 C31.9127453,39.9000481 31.5797929,39.9168005 31.2531226,39.7681236 C30.8741014,39.5964123 30.4825159,39.4393593 30.2228549,39.0331155 C30.2165727,39.0980307 30.2081966,39.1231592 30.2144787,39.1461937 C30.2919582,39.4393593 30.438541,39.6885501 30.7065782,39.8456031 C30.8741014,39.944023 31.0479067,40.0361607 31.221712,40.1262045 C31.6593664,40.3544549 32.0844566,40.3230443 32.4844183,40.0382548 C32.7042925,39.8812018 32.9262608,39.7157726 33.1147244,39.5231209 C33.5607549,39.0708082 33.9921272,38.6059313 34.4193114,38.1347722 C35.0789341,37.4039522 35.7259925,36.664756 36.3814271,35.9297479 C37.0598961,35.1696113 37.7488354,34.4199449 38.4168342,33.6493381 C38.9068396,33.0839473 39.3361178,32.4724875 39.6795404,31.8065827 C39.9957405,31.193029 40.2135207,30.5480646 40.2637776,29.8570313 C40.3014704,29.3293332 40.3286929,28.797447 40.3391631,28.2676548 C40.3789499,26.2385298 40.3705737,24.2073108 40.2993763,22.1781859 C40.284718,21.7740361 40.2658717,21.3698864 40.1423233,20.9783009 C40.1046306,20.8631286 40.0585617,20.7479564 40.0166809,20.6327842 Z M18.0334468,35.6470525 C18.0543872,35.7098737 18.0732336,35.7747889 18.096268,35.8376101 C18.3349886,36.4993268 18.5402046,37.1736078 18.6763172,37.8646411 C18.7873013,38.43422 18.8522166,39.007987 18.820806,39.5901302 C18.8124298,39.7262428 18.7914894,39.8623554 18.7747371,40.0068442 C19.4008551,39.9251766 20.0039387,39.8330388 20.6133044,39.7681236 C21.2226701,39.7032084 21.8341298,39.6613275 22.4434955,39.6110706 C21.4655787,39.269742 20.6049282,38.7567022 19.8510737,38.0635749 C19.0930312,37.3725416 18.508794,36.5537719 18.0334468,35.6470525 Z M29.6469938,37.2929681 C28.8261301,38.4823829 27.6932543,39.215297 26.2818712,39.6152587 C27.3728661,39.738807 28.4115101,39.8539792 29.4669064,39.9733395 C29.3475461,39.0708082 29.4690004,38.1850292 29.6469938,37.2929681 Z M14.7960607,12.6272685 C13.6736551,12.8345785 12.7208668,13.379029 11.8853448,14.1475417 C11.2864493,14.6982743 10.7859737,15.3348625 10.2917802,15.9756388 C10.0551537,16.2813687 9.87087813,16.6164151 9.73057744,16.97659 C9.42065949,17.7744193 9.30758132,18.6057533 9.28454687,19.4559336 C9.27617071,19.7972622 9.3012992,20.1364967 9.35993232,20.4757312 C9.43322373,20.8861631 9.45835221,21.3070652 9.54001978,21.717497 C9.73685956,22.7079781 10.1012226,23.6293558 10.7315287,24.4334672 C11.5209818,25.4386065 12.5282151,26.1568623 13.6904075,26.6678081 C14.0673347,26.8332373 14.4526381,26.977726 14.865164,27.0321711 C14.9887124,27.0489234 15.1122608,27.0614876 15.2379032,27.0761459 C15.2693138,27.2269168 15.2965363,27.3630294 15.3279469,27.497048 C15.7404728,29.1974087 16.1529987,30.8977693 16.5697127,32.5981299 C16.5927472,32.6902677 16.6388161,32.7803114 16.6827909,32.8661671 C16.9822387,33.4483103 17.2837805,34.0304534 17.5853222,34.6125966 C17.6104507,34.6628536 17.6397673,34.7131105 17.6648958,34.7633675 C17.6020746,34.4094747 17.5015606,34.0681462 17.4554917,33.7184415 C17.4094229,33.3750189 17.3905765,33.0211261 17.4073288,32.6756094 C17.4240811,32.3217166 17.4889964,31.9699179 17.5560057,31.6223072 C17.623015,31.2809787 17.729811,30.9501203 17.8910521,30.6381083 C17.729811,31.1532422 17.7130587,31.6851284 17.7151527,32.2128265 C17.7151527,32.9394585 17.8010084,33.6619024 17.9538733,34.371782 C18.1884058,35.464871 18.6449066,36.4490699 19.4322657,37.2573694 C20.49185,38.3441763 21.7671205,39.058244 23.2455129,39.4037606 C23.8548786,39.5461553 24.4747145,39.6089765 25.0903623,39.4477354 C25.6222485,39.3095288 26.1541348,39.1566639 26.6734567,38.9786704 C27.4377814,38.7169154 28.145567,38.3399882 28.7507446,37.7955377 C29.3768626,37.2322409 29.8752442,36.5789004 30.1474694,35.7685068 C30.2396072,35.4920935 30.3652496,35.2261504 30.4720457,34.9518311 C30.5202086,34.8282828 30.5641834,34.7026403 30.5935,34.5749039 C30.8175623,33.6116454 30.7589292,32.6588571 30.440635,31.7291033 C30.2647357,31.2160634 30.0385793,30.7197759 29.8375515,30.2151122 C29.3873328,29.0948007 28.9392082,27.9765832 28.4910836,26.8562717 C28.4785194,26.8269551 28.4764253,26.7934505 28.4680492,26.7599459 C28.7779671,26.7578518 30.5264907,26.9819141 30.6039702,27.0237949 L28.8931393,27.0237949 C29.1632705,27.6834176 29.4250255,28.3241939 29.7035329,29.0005689 C29.762166,28.9084311 29.8019528,28.8456099 29.8438336,28.7827887 C30.2144787,28.2425263 30.5851238,27.7001699 30.959957,27.1620016 C30.9955557,27.1096506 31.0604709,27.0468294 31.112822,27.0447353 C31.3117558,27.0405472 31.5127836,27.0593936 31.7033413,27.0677698 C31.757188,27.1889249 31.7266321,27.2726866 31.6773032,27.3465274 L31.6132976,27.4321328 C31.1379504,28.0540627 30.696108,28.696933 30.2940522,29.3691199 C30.2144787,29.5010445 30.1349052,29.630875 29.969476,29.6811319 C29.9946045,29.7523293 30.0155449,29.8109624 30.0364853,29.8695956 C30.283582,30.5878513 30.5348669,31.3061071 30.7735874,32.026457 C30.9390166,32.5311207 31.0541888,33.0483486 31.0500007,33.5865169 C31.0500007,33.6074573 31.0688471,33.6283977 31.0835054,33.6639964 C31.3787651,33.1404864 31.6949651,32.652575 31.7787267,32.0620557 C31.7891969,31.9803881 31.8206075,31.9008146 31.8394539,31.819147 C32.1870646,30.3826354 32.5346753,28.9461238 32.8801919,27.5096122 C32.9136965,27.3693116 32.940919,27.2269168 32.9744237,27.07824 C33.0477151,27.0677698 33.1105363,27.0635817 33.1691694,27.0510174 C33.3953258,27.0091366 33.6277642,26.9902903 33.8455444,26.9190929 C35.7448389,26.297163 37.1897266,25.1119362 38.19696,23.3885411 C38.2283706,23.3361901 38.2430288,23.2733689 38.2597812,23.2147358 C38.2849096,23.122598 38.2932858,23.0241781 38.3246964,22.9341344 C38.5990157,22.2033144 38.7665389,21.4494599 38.8293601,20.674665 C38.8482065,20.4568848 38.9047455,20.2705153 39.0178237,20.0883338 C39.0638926,20.0150424 39.0953032,19.9229046 39.0994913,19.8370489 C39.1246198,19.1795203 39.0701747,18.5261798 38.929874,17.8812154 C38.7937614,17.2634735 38.5990157,16.6666721 38.2241825,16.1494441 C37.8095625,15.5777712 37.3719081,15.0270386 36.8819027,14.5160928 C36.2871953,13.8962569 35.6191965,13.3748409 34.8318374,13.018854 C33.8832371,12.5874818 32.8822859,12.4597453 31.8499241,12.5120963 C30.7212364,12.5707294 29.707721,12.9413746 28.8261301,13.6449721 C28.5057419,13.900445 28.2021061,14.1831404 27.9152226,14.4784001 C27.0943588,15.3243923 26.2818712,16.1808548 25.4735717,17.0394112 C25.2013465,17.3283888 24.9458736,17.6341187 24.6924947,17.9398485 C24.5480059,18.1136539 24.4579622,18.3104936 24.4160814,18.538744 C24.3616363,18.8193454 24.3386019,19.0978528 24.3323198,19.3847363 C24.3239436,19.8140145 24.4851847,19.99829 24.9102749,19.9794437 C24.9374974,19.9773496 24.966814,19.9773496 24.9940365,19.9731616 C25.3186127,19.9291867 25.645283,19.8956821 25.9677652,19.841237 C26.6692686,19.7218767 27.36449,19.577388 28.0513352,19.3826422 C28.3486889,19.2988806 28.5371525,19.1166991 28.6376664,18.8360977 C28.7842492,18.4277599 28.9057036,18.015234 28.8805751,17.5712974 C28.8638228,17.2592855 28.9371142,16.9640258 29.0753208,16.6813304 C29.2679725,16.2876508 29.5255395,15.9400401 29.8605859,15.6594387 C30.4071304,15.2008439 31.0248723,14.8678915 31.7096234,14.6668637 C32.1619361,14.5328451 32.6226249,14.5160928 33.0644674,14.7087445 C33.6152,14.9474651 34.1491802,15.2238784 34.6266214,15.5924295 C35.4328269,16.2143594 36.0442866,16.9807781 36.3186059,17.9733532 C36.5782669,18.9114832 36.7269437,19.8684595 36.6766868,20.8484704 C36.6536523,21.3112532 36.5657026,21.7635659 36.3793331,22.1907501 C36.2997595,22.3750257 36.218092,22.5718655 36.0903555,22.7205423 C35.6799236,23.2042656 35.1941063,23.6000392 34.6119631,23.8659823 C33.8204159,24.2282513 33.0037403,24.2261572 32.1765944,24.0125651 C31.6593664,23.8785465 31.1756432,23.6691425 30.7170484,23.3969173 C30.6542271,23.3592246 30.5997821,23.2943093 30.5097384,23.3487544 C30.3128986,23.4681147 30.0930244,23.5560643 29.919219,23.7026472 C29.4773766,24.0753863 29.0501924,24.4690659 28.6292903,24.8648395 C28.4722373,25.0114223 28.3424068,25.1873217 28.2083882,25.3569389 C28.1267206,25.4616409 28.0722756,25.5789072 28.0994981,25.72549 C28.1120623,25.7904052 28.0680875,25.8657907 28.0450531,25.9600225 C27.8565894,25.8155337 27.6932543,25.6898913 27.5320132,25.5642489 C27.626245,25.2731773 27.8063325,25.0679614 28.0010782,24.8794978 C28.3214664,24.5695798 28.6586068,24.2764142 28.9873711,23.9727783 C29.1758348,23.796879 29.3789567,23.6293558 29.5401978,23.4304219 C29.9108429,22.9697331 30.4113185,22.8440907 30.9725213,22.8796894 C31.167267,22.8922536 31.3724829,22.9320404 31.5065015,23.0890934 C31.7326579,23.3529424 32.0300116,23.4806789 32.3545878,23.5497822 C33.5042159,23.7926909 34.5407658,23.5309359 35.4621435,22.8126801 C35.7280866,22.6053701 35.9228323,22.3289568 36.0819794,22.029509 C36.3583927,21.505999 36.4714708,20.9427022 36.4965993,20.358465 C36.530104,19.5627297 36.3918973,18.7879348 36.169929,18.0277982 C36.0065939,17.4686895 35.7322746,16.9724019 35.3406891,16.5431237 C34.6182453,15.7536705 33.7240901,15.2762294 32.67707,15.0710134 C32.157748,14.9684055 31.6488962,14.9851578 31.169361,15.2406307 C30.3673436,15.6678149 29.7454137,16.2855568 29.2721606,17.0561636 C29.1611765,17.234157 29.1213897,17.4289027 29.1528003,17.6383067 C29.1946811,17.91472 29.238656,18.1890393 29.2658785,18.4675467 C29.3203235,18.9826805 29.1297659,19.3072568 28.6565128,19.5166608 C28.5036479,19.5836701 28.3445008,19.6402092 28.1832597,19.684184 C27.1278634,19.9773496 26.0494327,20.100898 24.9584378,20.1427788 C24.6778364,20.153249 24.3993291,20.1616252 24.185737,19.9249986 C24.0224018,20.1113682 23.821374,20.1490609 23.6056878,20.1469669 C22.7178148,20.1364967 21.8383179,20.0338887 20.9651031,19.8684595 C20.5525772,19.7909801 20.1442394,19.6988423 19.758936,19.5313191 C19.2710246,19.3219151 19.0909371,19.0517839 19.1181597,18.5219917 C19.132818,18.2518605 19.1809809,17.9817293 19.2270498,17.7136922 C19.2668365,17.4686895 19.2438021,17.236251 19.0993133,17.0331291 C18.9003795,16.7567158 18.7035397,16.4761144 18.4752893,16.2206415 C18.1109263,15.8123037 17.6879302,15.4709751 17.1916427,15.2280665 C16.8586903,15.0647313 16.5110796,14.9914399 16.1383405,15.0186624 C15.3530754,15.0752015 14.6411017,15.3369565 13.9835731,15.7557646 C13.0559133,16.3441899 12.4214191,17.1566775 12.15757,18.2372022 C12.1073131,18.4403241 12.0549621,18.643446 12.0151753,18.848662 C11.8664984,19.629739 11.8204296,20.41291 11.998423,21.196081 C12.15757,21.8913024 12.469582,22.5027621 13.0580073,22.9236642 C13.927034,23.5455941 14.8986687,23.7738445 15.9540649,23.5728167 C16.3058637,23.5058074 16.6409101,23.382259 16.8817247,23.0869993 C16.9236055,23.0367424 16.9927089,23.0011437 17.0555301,22.9739212 C17.5518176,22.7477648 18.3684933,22.8964417 18.7286682,23.3047795 C19.0406802,23.6565783 19.394573,23.9602141 19.7400896,24.2764142 C20.0081268,24.5214169 20.2656937,24.7768898 20.5253547,25.0281746 C20.8457428,25.3359985 20.9357866,25.7108317 20.8478369,26.14011 C20.8331786,26.2134014 20.8310846,26.2887868 20.8227084,26.3620782 C21.0404886,26.4625921 21.168225,26.6322094 21.2457045,26.8290492 C21.4111337,27.2499513 21.5598105,27.6771355 21.7126755,28.1043197 C21.8257537,28.4184257 21.9137033,28.745096 22.05191,29.0487318 C22.3220412,29.6392511 22.211057,30.1753254 21.8760106,30.6925534 C21.8027192,30.8056315 21.7001112,30.8893931 21.5660927,30.9291799 C21.3922873,30.9794369 21.2519866,31.0862329 21.1389085,31.2202515 C21.0007018,31.3856807 20.8645892,31.5552979 20.7577931,31.7416675 C20.3997123,32.3719736 20.2677877,33.0567247 20.3012924,33.7749805 C20.3431732,34.7047344 20.7724514,35.4208961 21.5116476,35.9674406 C21.8864808,36.2438539 22.2990067,36.4427878 22.7345671,36.5998408 C22.7638837,36.6061229 22.7994823,36.610311 22.8769618,36.6249693 L22.8769618,36.0972711 C22.8958082,34.0388296 22.8958082,31.9824821 22.9963221,29.9240406 C23.0549553,28.7199675 23.0046983,27.5096122 23.0067923,26.3034451 C23.0067923,26.1359219 22.9544413,25.9935271 22.8539274,25.8595086 C22.4958465,25.3862555 22.1482358,24.9046262 21.7859669,24.4355612 C21.5598105,24.1423956 21.3127138,23.8680763 21.0739932,23.5853809 C20.9399746,23.4241398 20.7724514,23.329908 20.5672355,23.275463 C19.8406035,23.0786232 19.1684166,22.7645171 18.5443927,22.339427 C17.7633157,21.8012587 16.9738625,21.2735605 16.1844093,20.7479564 C15.4179906,20.2391047 14.6452898,19.734441 13.874683,19.2318713 C13.7301942,19.1376395 13.5773293,19.0559719 13.4223703,18.9659282 C13.457969,18.8214394 13.4914736,18.6895149 13.5291664,18.5324619 C13.6506207,18.589001 13.7532287,18.6287877 13.8474605,18.6853268 C14.2495162,18.9240474 14.653666,19.1564859 15.0452515,19.4119588 C15.7006861,19.839143 16.3456504,20.2809855 16.9948029,20.7165458 C17.6669898,21.1667645 18.3454588,21.608607 19.0113636,22.0713898 C19.5055571,22.4148124 20.0395374,22.6577211 20.6216805,22.7959278 C20.908564,22.862937 21.1640369,22.9718271 21.3608767,23.2000775 C21.4844251,23.3424722 21.6247258,23.4702087 21.739898,23.6188856 C22.261314,24.2931665 22.7743539,24.9695415 23.2894878,25.6480105 C23.4193182,25.8197218 23.4779514,26.0165616 23.4800454,26.2343418 C23.4905156,26.8478955 23.511456,27.4614493 23.5156441,28.0770971 C23.5198322,28.6634284 23.5198322,29.2497597 23.5009858,29.8360909 C23.4800454,30.4768672 23.4151302,31.1176435 23.4025659,31.7584198 C23.3753434,33.2996334 23.3669672,34.842941 23.3502149,36.3841546 C23.3481209,36.507703 23.3376507,36.6312514 23.3313686,36.7736461 C23.9386402,36.9202289 24.5333476,37.0458713 25.1573716,36.8490316 C25.0421994,36.8511256 25.0275411,36.7841163 25.023353,36.7024487 C25.0107888,36.4721043 24.9856603,36.2438539 24.9751901,36.0135095 C24.9312153,35.0230285 24.8767702,34.0346415 24.8537358,33.0441605 C24.8390775,32.3887259 24.8663,31.7332913 24.8809583,31.0778568 C24.9123689,29.7942101 24.9479676,28.5105635 24.9835663,27.2269168 C24.9940365,26.8772121 25.0045067,26.5296014 25.0170709,26.1798967 C25.0254471,25.9055775 25.1071146,25.6626688 25.2913902,25.4511707 C25.9949877,24.6344951 26.6964912,23.8220075 27.3979946,23.0053318 C27.5110728,22.8734072 27.6429973,22.7812695 27.8105206,22.7352006 C28.0052663,22.6828496 28.200012,22.6221224 28.3968518,22.5760535 C28.6041618,22.5278906 28.7905314,22.444129 28.9622427,22.3163925 C29.5946428,21.8452335 30.2270429,21.3740745 30.8615371,20.9071035 C31.3054737,20.5804332 31.7305638,20.2202583 32.2017229,19.941751 C32.9869879,19.476874 33.8036636,19.0622541 34.6077751,18.6287877 C34.6664082,18.5973771 34.7313234,18.5764367 34.8067089,18.5429321 C34.8506837,18.7020792 34.8883764,18.8381918 34.9239751,18.9680223 C34.2329419,19.3407614 33.5586609,19.6925602 32.8969442,20.0673934 C32.5451455,20.2663272 32.2038169,20.4862014 31.8771466,20.722828 C31.0248723,21.3447579 30.1830681,21.977158 29.3412639,22.6116522 C29.0585685,22.8252443 28.7528386,22.9822973 28.4031339,23.0493066 C28.2879617,23.0723411 28.1748835,23.1142219 28.0597113,23.1393503 C27.9026583,23.172855 27.7853921,23.2545226 27.6806901,23.3780709 C27.0189734,24.1528658 26.3551626,24.9255666 25.6850697,25.6940794 C25.5573333,25.8385682 25.4966061,25.9935271 25.492418,26.1861788 C25.4840419,26.6740902 25.4672896,27.1620016 25.4547253,27.652007 L25.3604935,30.9584965 C25.3458352,31.4945708 25.3081425,32.0327391 25.3248948,32.5688134 C25.3646816,33.9152812 25.4295968,35.259655 25.4861359,36.6061229 C25.48823,36.6500977 25.5049823,36.6940726 25.5196406,36.7568938 C25.6075903,36.7233891 25.6787876,36.6982607 25.747891,36.6668501 C26.166699,36.4804805 26.5436262,36.2312897 26.8744846,35.9150896 C27.6911603,35.1340126 28.1141564,34.1896005 28.040865,33.0483486 C27.9968901,32.3740676 27.7560755,31.7605139 27.4294052,31.1741826 C27.3100449,30.9605905 27.1446158,30.8391362 26.9163654,30.7825971 C26.7949111,30.7532805 26.6713627,30.728152 26.5499083,30.6925534 C26.4158898,30.6548606 26.2797772,30.6171679 26.1520407,30.5627229 C25.8819095,30.4475507 25.7185744,30.2465228 25.6787876,29.9491691 C25.6390009,29.6539094 25.6766936,29.3628378 25.7185744,29.0738603 C25.8337466,28.2927833 26.0410566,27.5326467 26.2839652,26.7808863 C26.3090937,26.7034068 26.3425984,26.6280213 26.3719149,26.5505418 C26.3865732,26.6238332 26.376103,26.6908425 26.3635388,26.7578518 C26.2462725,27.3818758 26.1206301,28.0038057 26.0159281,28.6299238 C25.9656711,28.9293715 25.9028499,29.2413835 26.1038778,29.5198908 C26.114348,29.5345491 26.1185361,29.5596776 26.1185361,29.580618 C26.1227241,29.8235267 26.2609308,29.9994261 26.4200779,30.1585731 C26.6399521,30.3784473 26.8996131,30.5375944 27.1844025,30.6611428 C27.5508596,30.8181958 27.8230848,31.0652925 27.9822318,31.4443138 C28.3109962,32.2232967 28.3800995,33.0211261 28.1874478,33.8419898 C27.9843259,34.7089225 27.573894,35.4753412 27.000127,36.1475281 C26.3656328,36.8888183 25.5280167,37.1987363 24.5584761,37.1736078 C24.0224018,37.1589495 23.509362,37.0249309 22.9984162,36.8846302 C22.4581538,36.7359534 21.9325497,36.5453957 21.4634847,36.2312897 C20.3033864,35.4544008 19.7631241,34.3654999 19.863638,32.9687751 C19.9055188,32.3845378 20.125393,31.8589338 20.439499,31.3710224 C20.7619812,30.8726408 21.1640369,30.4517387 21.63729,30.0957519 C21.7336159,30.0245545 21.7650265,29.9533572 21.7608384,29.8339969 C21.7482742,29.475916 21.6603245,29.1303994 21.5744688,28.7890708 C21.4425443,28.2697488 21.2771151,27.756709 21.1074979,27.2478572 C21.0279243,27.0112307 20.9127521,26.7871684 20.8059561,26.558918 C20.751511,26.4416517 20.6593733,26.3599842 20.5274487,26.3243855 C20.4080884,26.2929749 20.2929162,26.246906 20.17565,26.2092133 C20.3536434,25.8657907 20.334797,25.5474966 20.1128288,25.2648012 C19.9997506,25.1224064 19.8845784,24.9821057 19.7505598,24.8585574 C19.3526922,24.4879122 18.9569186,24.113079 18.5402046,23.7633743 C18.3245184,23.5832869 18.0627634,23.4555504 17.8680177,23.332002 C17.417799,23.5351239 17.0262135,23.7361518 16.6178757,23.8890167 C15.9415007,24.1403016 15.2399972,24.2366274 14.5196474,24.1026088 C13.7029717,23.9518379 13.0496312,23.5120895 12.4905224,22.9257582 C11.843464,22.2472892 11.5461103,21.4180493 11.531452,20.4924835 C11.5188878,19.6423032 11.6654706,18.8088752 11.8916269,17.9942936 C12.1785104,16.9577437 12.8213808,16.1661965 13.6757492,15.5317023 C14.1259678,15.1966559 14.6243494,14.943277 15.1352952,14.7192147 C15.4473072,14.581008 15.7802596,14.5349392 16.1194941,14.5956663 C17.0911288,14.7694717 17.9161806,15.2238784 18.6114019,15.9149116 C18.6846933,15.9882031 18.7517026,16.0719647 18.8124298,16.1557263 C19.187263,16.6708602 19.4238895,17.2299689 19.4029491,17.8833094 C19.3924789,18.2204499 19.4553001,18.5492142 19.5830366,18.8654143 C19.6898326,19.1271693 19.8615439,19.3114449 20.1442394,19.3805482 C20.5169785,19.4705919 20.8855296,19.577388 21.2603628,19.6569615 C21.9157974,19.7930741 22.571232,19.9229046 23.2413248,19.9752556 C23.4716693,19.994102 23.6915435,19.9836318 23.8339382,19.7595695 C23.8465024,19.7386291 23.8800071,19.7302529 23.9030415,19.7135006 C24.0119316,19.633927 24.0517184,19.525037 24.0621886,19.3889243 C24.083129,19.0915706 24.0224018,18.8067812 23.9700508,18.5178036 C23.9344521,18.3209638 23.8590667,18.1429704 23.7334243,17.9901055 C23.5344905,17.7471968 23.3418388,17.498006 23.1282467,17.2697557 C22.1963988,16.2792746 21.2603628,15.2887936 20.3180447,14.3066888 C19.7673121,13.7329218 19.1474762,13.2512925 18.4103741,12.9350924 C17.2398056,12.4325228 16.0252623,12.3990181 14.7960607,12.6272685 Z M20.4583454,28.3409462 C20.4688156,28.3660747 20.4771918,28.3953913 20.4750977,28.4226138 C20.4499692,28.7388138 20.6174925,28.9984748 20.7201004,29.2769822 C20.8122382,29.5240789 20.7745455,29.6183107 20.5211666,29.6580975 C20.2489414,29.6999783 20.0856062,29.8633134 19.966246,30.0894698 C19.8280393,30.3470367 19.6919267,30.6066977 19.5683783,30.8726408 C19.4113253,31.2139694 19.2479902,31.5552979 19.1244418,31.9091907 C18.8961914,32.5688134 18.8899093,33.2410003 19.0176457,33.9299395 C19.1432882,34.5979383 19.4050432,35.1947398 19.7945347,35.7391902 C20.0646658,36.1203056 20.3431732,36.4972328 20.6363388,36.8595018 C20.7933918,37.0521535 20.9860435,37.2196767 21.1745071,37.3830118 C21.3504065,37.5358767 21.5598105,37.6259205 21.794343,37.6636132 C21.9220795,37.6845536 22.05191,37.7285284 22.1670822,37.7892556 C22.3932385,37.9107099 22.6110187,38.0510106 22.8308929,38.1850292 C22.8623036,38.2059696 22.885338,38.2310981 22.9460652,38.2813551 C22.8602095,38.2813551 22.8204227,38.2855431 22.78273,38.2813551 C21.9053272,38.1473365 21.0928396,37.860453 20.4018063,37.2845919 C20.1484274,37.0730939 19.9201771,36.8343733 19.7505598,36.5516778 C19.2563663,35.72872 18.8480285,34.8680695 18.6386245,33.9236574 C18.5276403,33.4252758 18.5506748,32.9248002 18.5988377,32.4243246 C18.7035397,31.3312356 19.0951252,30.3260963 19.5620962,29.3460855 C19.7003028,29.057108 19.8615439,28.7806947 20.022785,28.5021873 C20.075136,28.4142376 20.1505215,28.3346641 20.230095,28.2697488 C20.3243268,28.1922694 20.4164646,28.227868 20.4583454,28.3409462 Z M27.5592357,27.1557195 C27.5885523,27.2269168 27.6073987,27.2604215 27.6178689,27.2960201 C27.6304331,27.342089 27.6304331,27.39444 27.6471854,27.4384149 C27.7979563,27.8195302 27.8963762,28.2194919 28.0994981,28.5838549 C28.3361246,29.008945 28.5601869,29.4445054 28.7800612,29.8800658 C29.1465182,30.6046037 29.4417779,31.3542701 29.6721223,32.133253 C29.8501157,32.7363366 29.812423,33.331044 29.65537,33.9278455 C29.6323355,34.0137011 29.607207,34.0995568 29.5632322,34.1791303 C29.5632322,34.009513 29.5674203,33.8398958 29.5632322,33.6702785 C29.5401978,32.9289883 29.3056653,32.2484252 28.9706188,31.5971787 C28.824036,31.3123893 28.6627949,31.0317879 28.5371525,30.7386222 C28.2837736,30.1439148 27.831461,29.7648935 27.259788,29.5031385 C27.1299575,29.4465994 26.998033,29.3858723 26.8409799,29.3146749 C26.8661084,29.1890325 26.8828607,29.0864245 26.9100833,28.9859106 C27.0357257,28.5440681 27.1634621,28.1022256 27.2932926,27.6603831 C27.3247032,27.5535871 27.3561138,27.444697 27.4042768,27.3462771 C27.4335933,27.2834559 27.4943205,27.235293 27.5592357,27.1557195 Z M35.0538056,27.4928599 C35.0684639,27.7608971 35.1145328,28.0205581 35.0873103,28.2718429 C35.022395,28.8602682 34.9449155,29.4486935 34.8276493,30.0287426 C34.6245274,31.03807 34.3858068,32.0411152 34.1638385,33.0483486 C34.1512743,33.1006996 34.1470862,33.1551446 34.134522,33.2556586 C34.3125154,33.1530506 34.4088412,33.0567247 34.4402518,32.8996717 C34.4737565,32.7363366 34.5156373,32.5730015 34.551236,32.4096663 C34.815085,31.2411919 35.0831222,30.0727175 35.2234229,28.8791145 C35.2757739,28.4435542 35.2527394,28.01637 35.1145328,27.5975619 C35.1019685,27.5619633 35.074746,27.5284586 35.0538056,27.4928599 Z M13.1312987,27.4907659 C13.1019822,27.5808096 13.0684775,27.6708533 13.041255,27.7629911 C12.9093305,28.2383382 12.938647,28.7178734 13.0203146,29.1953146 C13.1564272,29.9784856 13.30301,30.7595626 13.457969,31.5385456 C13.5480127,31.9887642 13.6610909,32.4368888 13.7595108,32.8850135 C13.7972035,33.0504426 13.8851532,33.1677089 14.0694287,33.2410003 C14.0568645,33.1551446 14.0505824,33.0944175 14.0359241,33.0357843 L13.5271499,30.7075219 C13.4440087,30.3191162 13.3630392,29.9303227 13.2862577,29.5408312 C13.1564272,28.8728324 13.0203146,28.1985515 13.1731795,27.5096122 C13.1585213,27.5033301 13.143863,27.497048 13.1312987,27.4907659 Z M9.99861458,23.5811928 C9.9839563,23.5853809 9.96720398,23.589569 9.9525457,23.591663 L9.9525457,23.7529041 C9.95882782,24.0816684 9.9630159,24.4083387 9.96929802,24.737103 C9.98605034,25.7150198 10.0384013,26.6887485 10.1891722,27.6561951 C10.3943882,28.9628762 10.9765314,30.0580592 11.9879528,30.9166157 C12.1366296,31.0422581 12.2978707,31.1553362 12.4591118,31.2642263 C12.521933,31.3061071 12.5973185,31.3333297 12.6706099,31.352176 C12.7459953,31.3731164 12.7941583,31.3291416 12.7941583,31.2537561 C12.7941583,31.2055932 12.781594,31.1574303 12.7627477,31.1113614 C12.5554377,30.6004156 12.4842403,30.0622473 12.417231,29.5219849 C12.3774443,29.1974087 12.3460337,28.8707384 12.310435,28.5335979 C12.2371436,28.5021873 12.1617581,28.4665886 12.0863727,28.435178 C11.7848309,28.3032535 11.5000414,28.1441064 11.2445685,27.9347024 C10.9681552,27.706452 10.7755035,27.4279447 10.6728955,27.07824 C10.4069524,26.1652384 10.2729339,25.2396727 10.3525074,24.2889784 C10.3587895,24.2219691 10.3587895,24.1423956 10.3273789,24.0879506 C10.226865,23.9120512 10.1095987,23.748716 9.99861458,23.5811928 Z M38.2325586,23.8534181 C38.0315308,24.0523519 37.9624275,24.268038 37.9603334,24.527699 C37.9582394,25.6438224 37.9226407,26.7578518 37.7404592,27.863505 C37.5980645,28.7199675 37.3363094,29.528267 36.8107053,30.2339586 C36.793953,30.254899 36.7813888,30.2779334 36.7688245,30.3030619 C36.7772007,30.311438 36.7876709,30.3177202 36.7960471,30.3260963 C36.8232696,30.2967798 36.8525861,30.2674632 36.8798087,30.2360526 C37.2211372,29.842373 37.4870803,29.4026246 37.6755439,28.9168073 C37.937299,28.2404323 38.0545652,27.5326467 38.1278566,26.818579 C38.2241825,25.880449 38.2367467,24.9402249 38.253499,23.9979068 C38.253499,23.956026 38.2409348,23.9120512 38.2325586,23.8534181 Z M19.6500459,26.7557578 C19.1516643,27.7881196 18.6574708,28.799541 18.1590893,29.8277148 C18.1863118,29.7313889 18.2114403,29.6476273 18.2302866,29.5764299 C18.1549012,29.4486935 18.094174,29.3251451 18.0146005,29.2120669 C17.8994283,29.0466378 17.7842561,28.8791145 17.6460494,28.7325317 C17.4533977,28.5264782 17.282189,28.3083629 17.1474333,28.0642481 L17.053436,27.8760693 C16.9654863,27.6771355 16.844032,27.499142 16.6765088,27.3546533 C16.5801829,27.2708917 16.584371,27.2583274 16.582277,27.0698638 C16.8251856,27.0510174 17.0722824,27.0321711 17.3361315,27.0112307 C17.5120308,27.3190546 17.6711779,27.6373487 17.8701117,27.9284203 C18.0669515,28.2132098 18.3077661,28.4686827 18.5527688,28.7639423 C18.8061477,28.1776111 19.0511504,27.6101262 19.3066233,27.0217009 L17.5685699,27.0217009 C17.5664759,27.0133247 17.5664759,27.0049486 17.5643818,26.9986664 C18.251227,26.9190929 18.9380722,26.8374253 19.6500459,26.7557578 Z M11.1629009,25.1035601 C11.0581989,25.5579668 11.0351645,25.9642106 11.1210201,26.3725484 C11.2382864,26.9316572 11.5607686,27.3253367 12.0968429,27.5347407 C12.1429118,27.5535871 12.1973568,27.5556811 12.2790244,27.5745275 C12.2790244,27.2771738 12.2853065,27.0070426 12.2769303,26.7369114 C12.2706482,26.4940028 12.3523158,26.3327617 12.6119768,26.3013511 C12.6182589,26.3013511 12.622447,26.2825047 12.6329172,26.2594702 C12.0926548,25.9600225 11.6173077,25.5768131 11.1629009,25.1035601 Z M37.0766485,25.256425 C36.951006,25.3715972 36.8567742,25.463735 36.7562603,25.5454025 C36.6745927,25.6124118 36.634806,25.6940794 36.6180536,25.7945933 C36.5573265,26.1987431 36.3646748,26.5254134 36.0380045,26.7725101 C35.9982177,26.8039207 35.9500548,26.8562717 35.9479608,26.9002466 C35.9395846,27.1201208 35.9437727,27.339995 35.9437727,27.5724335 C36.0003118,27.5619633 36.0359105,27.5619633 36.0673211,27.549399 C36.5217278,27.3797818 36.8504921,27.080334 37.0138272,26.6154571 C37.1666922,26.1840848 37.158316,25.7443364 37.0766485,25.256425 Z M37.9352049,19.058066 C37.9624275,19.0894766 37.9854619,19.1041349 37.991744,19.1250753 C38.199054,19.9899139 38.2660633,20.8589406 38.0713175,21.7363434 C37.939393,22.3352389 37.6671678,22.8671251 37.2776763,23.3340961 C37.0242974,23.639826 36.7520722,23.9308975 36.4672828,24.2094049 C35.5982561,25.0553971 34.5407658,25.5265562 33.3513509,25.7066436 C32.2687321,25.8720728 31.1819253,25.8511324 30.0972125,25.7108317 C29.9338773,25.6898913 29.7747303,25.6375403 29.6134892,25.5977535 C29.6134892,25.5768131 29.6093011,25.5558727 29.607207,25.5328383 C29.9275952,25.411384 30.0762721,25.1056541 30.3170867,24.9004382 C30.438541,24.7957361 30.5579013,24.6868461 30.6919199,24.6009904 C30.855255,24.4962884 30.9746153,24.5130407 31.062565,24.682658 C31.2531226,25.0533031 31.5797929,25.1370647 31.950438,25.1642872 C32.2708262,25.1894157 32.5891203,25.2354846 32.9074144,25.2668952 C33.4330185,25.3171522 33.9523405,25.3024939 34.4632863,25.1580051 C35.1668838,24.9590713 35.7448389,24.5653917 36.1845873,23.9916247 C36.7981411,23.1937954 37.3446856,22.3498972 37.729989,21.4138612 C37.8116566,21.2149274 37.8681956,21.0055234 37.9226407,20.7961194 C37.9833679,20.567869 37.9728977,20.3396186 37.8996063,20.1155563 C37.8221268,19.8810238 37.8765718,19.6443972 37.889136,19.4098647 C37.8954182,19.2988806 37.9184526,19.1899905 37.9352049,19.058066 Z M10.3964822,18.641352 C10.4257988,18.8277216 10.4551153,19.0161852 10.4823379,19.2025548 C10.5011842,19.3344793 10.5221246,19.4643098 10.5284068,19.5962343 C10.5346889,19.7281589 10.5514412,19.8705536 10.5116544,19.9899139 C10.3797299,20.3794054 10.4404571,20.7626147 10.5242187,21.1458241 C10.6163564,21.5646321 10.7943499,21.9520296 10.9953777,22.3268627 C11.2110639,22.7247304 11.4309381,23.122598 11.6675646,23.5079014 C11.9356018,23.9455558 12.2727422,24.3245771 12.6873622,24.632401 C13.2360007,25.0407388 13.8579307,25.2417667 14.5363997,25.2794594 C15.0347813,25.306682 15.5247867,25.2375786 16.0168861,25.1810395 C16.1906915,25.1600991 16.3624028,25.1454409 16.5362081,25.1203124 C16.7853989,25.0847137 16.9738625,24.9632594 17.103693,24.7391971 C17.2398056,24.5004765 17.3591659,24.4690659 17.574852,24.6365891 C17.7779739,24.7936421 17.9622495,24.9779176 18.1381489,25.1642872 C18.2637913,25.2962118 18.3768694,25.4365124 18.5506748,25.5077098 C18.5862735,25.5223681 18.61559,25.5558727 18.6470006,25.5810012 C18.6490947,25.6019416 18.6490947,25.620788 18.6511887,25.6375403 C18.4752893,25.671045 18.301484,25.7192079 18.1234906,25.7359602 C17.0366837,25.8406622 15.9519709,25.8657907 14.8714461,25.675233 C13.5836114,25.4490767 12.4863343,24.8690276 11.6110255,23.8952989 C11.2571327,23.5016193 10.9241804,23.0869993 10.6226386,22.651439 C10.2247709,22.079766 10.0153669,21.4348016 10.0174454,20.727016 C10.019555,20.050641 10.124257,19.3952065 10.3127206,18.748148 C10.3231908,18.7104553 10.3441312,18.6769507 10.3964822,18.641352 Z M15.0661919,17.1566775 C15.1457654,17.2174047 15.2106806,17.2676616 15.2755959,17.3179186 C16.2325723,18.0989956 17.2125831,18.850756 18.2533211,19.5187548 C18.8710629,19.9145284 19.5055571,20.2747033 20.1965904,20.5364584 C20.7221945,20.7353922 21.1933535,21.0348399 21.6540424,21.35104 C22.4288372,21.8787381 23.147093,22.4734456 23.8444084,23.0995636 C23.9532985,23.1958894 24.0684707,23.2859332 24.189925,23.3864471 C24.238088,23.3487544 24.2820628,23.3173438 24.3218496,23.2817451 C24.8369835,22.8231503 25.3500233,22.3603674 25.8693453,21.9038666 C26.0745612,21.7237792 26.3028116,21.5981368 26.5729428,21.5143751 C27.2262833,21.3112532 27.8482133,21.0264638 28.4303565,20.6600067 C30.0658019,19.629739 31.7012472,18.6015652 33.3366926,17.5733915 C33.4016079,17.5294166 33.4665231,17.4917239 33.562849,17.4351848 C33.6549868,17.5817676 33.7345603,17.7074101 33.82251,17.8456167 C33.7471245,17.8979677 33.6926795,17.9398485 33.6340464,17.9754472 C31.9525321,19.0329375 30.2710178,20.0946159 28.5853154,21.1479181 C27.9612914,21.5374096 27.2849165,21.8159169 26.583413,22.0399792 C26.4745229,22.0755779 26.3677269,22.1383991 26.2797772,22.2158786 C25.7185744,22.7079781 25.1615597,23.2063596 24.604545,23.7026472 C24.5689463,23.7361518 24.5333476,23.7696564 24.497749,23.801067 C24.2967211,23.9706843 24.0935992,23.9727783 23.8946654,23.8052551 C23.8569726,23.7738445 23.823468,23.7382458 23.7878693,23.7047412 C22.9460652,22.9236642 22.0707564,22.1886561 21.1054038,21.5667262 C20.6824077,21.2945009 20.2384712,21.0620625 19.7673121,20.879881 C19.1265358,20.6327842 18.5422986,20.2767974 17.9664376,19.9061523 C16.8984771,19.217213 15.8870556,18.4507943 14.9007627,17.6487769 C14.8588819,17.6152723 14.8211892,17.5733915 14.762556,17.5189464 C14.86307,17.3974921 14.9593958,17.2844139 15.0661919,17.1566775 Z M32.8424992,13.5256118 C32.9095084,13.538176 32.9744237,13.5570224 33.0393389,13.5716807 L33.0393389,13.6135615 C32.9681416,13.6177495 32.8990382,13.6198436 32.8278409,13.6240317 C32.4739481,13.640784 32.1158672,13.6365959 31.7640685,13.6805707 C30.9411107,13.7873668 30.2500774,14.1789523 29.6490879,14.7380611 C29.2135275,15.1443048 28.8428824,15.6091818 28.4889896,16.0845289 C28.248175,16.4091051 28.1288147,16.7944085 28.0869339,17.1943702 C28.0555233,17.498006 28.0492411,17.8058299 28.0555233,18.1115598 C28.0576173,18.276989 27.9968901,18.3879731 27.8565894,18.4424182 C27.6953483,18.5031453 27.5257311,18.5554963 27.3561138,18.5764367 C26.8723905,18.6392579 26.3886673,18.6895149 25.9028499,18.7397719 C25.749985,18.7565242 25.5908379,18.796311 25.4191266,18.695797 C25.5049823,18.5492142 25.6201545,18.4675467 25.7437029,18.4068195 C25.957295,18.3000234 26.114348,18.1366883 26.2567427,17.9545068 C26.6713627,17.4184325 27.0797005,16.8802642 27.4964145,16.3462839 C28.0115484,15.6845672 28.5371525,15.0354148 29.1444242,14.4553656 C29.1653646,14.4365193 29.1842109,14.4176729 29.2051513,14.3967325 C29.6763104,13.9339496 30.2228549,13.6365959 30.8866656,13.538176 C31.5400062,13.4397561 32.1891586,13.4125336 32.8424992,13.5256118 Z M17.9015223,13.6847588 C18.1339608,13.7496741 18.3349886,13.8732224 18.5276403,14.0135231 C18.9192258,14.2983126 19.2710246,14.629171 19.5788485,14.9998161 C20.1463334,15.6803791 20.697066,16.3735064 21.2519866,17.0645397 C21.4928013,17.3639875 21.7210516,17.6718114 21.9576782,17.9733532 C22.0958848,18.1513466 22.2529379,18.3042115 22.4560598,18.4110076 C22.5984545,18.4780169 22.7324731,18.5680606 22.8078585,18.7397719 C22.57542,18.7837467 22.3722981,18.7209255 22.1691762,18.7020792 C21.8027192,18.6685745 21.4341681,18.6287877 21.0677111,18.5827189 C20.9106581,18.5617785 20.749417,18.5345559 20.6007401,18.4822049 C20.3641136,18.3963493 20.2971043,18.2686128 20.2908222,18.019422 C20.282446,17.6718114 20.2845401,17.3221067 20.2468473,16.97659 C20.2070606,16.5954747 20.0479135,16.2520521 19.7987227,15.9567924 L19.2407774,15.2781683 C19.1465455,15.1664086 19.0504524,15.0563552 18.9506365,14.9495591 C18.3643052,14.3234411 17.6628017,13.8774105 16.8105274,13.7182635 C16.4691988,13.6554423 16.1174001,13.6512542 15.7697894,13.6303138 C15.5687615,13.6177495 15.3677337,13.6282197 15.1667058,13.6282197 L15.1583296,13.5800568 C15.2316211,13.5633045 15.3028184,13.5423641 15.3761098,13.5277058 C16.2304782,13.381123 17.0722824,13.4481323 17.9015223,13.6847588 Z M22.1880226,15.7641407 C22.2571259,15.8437143 22.2948187,15.8897832 22.3346054,15.933758 C22.8602095,16.4928667 23.3837196,17.0519755 23.9156058,17.6048021 C24.0475303,17.7430087 24.13548,17.8874975 24.1417621,18.0801492 C24.1438562,18.1304062 24.1668906,18.1827572 24.1794548,18.2351082 L24.2171476,18.2351082 C24.2255237,18.1806631 24.2359939,18.1262181 24.238088,18.0717731 C24.2464641,17.8791214 24.3386019,17.7367266 24.4705264,17.600614 C24.9730961,17.077104 25.4672896,16.5473118 25.9656711,16.0196137 L26.1290063,15.8458083 C26.1227241,15.83115 26.114348,15.8164918 26.1080659,15.8039275 C24.8160431,15.7913633 23.5261143,15.776705 22.1880226,15.7641407 Z M25.6494711,13.6114674 C25.5175465,13.8124953 25.5133584,13.8271536 25.6159664,13.9507019 C25.7709254,14.1370715 25.8714393,14.3485696 25.9258844,14.581008 C25.9677652,14.7569074 25.9907996,14.9349008 26.0222102,15.1128942 C26.0473387,15.2636651 26.0536208,15.2699473 26.2399904,15.2846055 C26.1855454,14.681522 26.1499467,14.0805324 25.6494711,13.6114674 Z M23.6475686,14.0344635 C23.408848,14.0972847 23.3606851,14.1454477 23.3774374,14.2857484 C23.40466,14.5223749 23.3816255,14.5642557 23.1743155,14.6710518 C23.1198705,14.6982743 23.0591433,14.7275908 23.0214506,14.7736597 C22.9418771,14.8783617 22.8727738,14.9914399 22.7932002,15.1108002 C23.1094003,15.2804175 23.408848,15.2427247 23.6098759,15.0165684 C23.6810733,14.9369949 23.7250481,14.8469511 23.7103898,14.7317789 C23.6894494,14.5663498 23.6810733,14.4009206 23.666415,14.2354914 C23.6601329,14.1705762 23.6538507,14.1056609 23.6475686,14.0344635 Z M27.3498317,9.83800698 C27.155086,9.89035798 27.0859826,10.0160004 27.1613681,10.20237 C27.1990608,10.2966018 27.259788,10.3908336 27.3309853,10.464125 C27.5110728,10.6484005 27.6911603,10.8368642 27.8942822,10.9939172 C28.4638611,11.4315716 29.0460043,11.8524737 29.6239594,12.2775638 C29.6825925,12.3215387 29.7412256,12.3634195 29.8166111,12.4178645 C29.498317,12.6147043 29.1758348,12.6984659 28.8386943,12.7194063 C28.7256161,12.7256884 28.6481366,12.7591931 28.5727512,12.8471427 C28.3884756,13.0628289 28.1539431,13.1884713 27.8628716,13.1968475 C27.8084265,13.1989415 27.7456053,13.2052236 27.7037245,13.2345402 C27.4021827,13.4460382 27.0650422,13.4942012 26.7069614,13.4711667 C26.4745229,13.4565084 26.4117017,13.5193297 26.428454,13.74758 C26.4577706,14.1412596 26.5561905,14.5181868 26.7446541,14.8657975 C26.7823468,14.9349008 26.8367919,14.995628 26.8912369,15.0731075 C26.9917508,14.9767816 27.0692303,14.8972081 27.1508979,14.8218227 C27.7602636,14.268996 28.3633472,13.7077933 28.9852771,13.1696249 C29.5757964,12.6586791 30.2772999,12.3801718 31.0458127,12.2629055 C31.1379504,12.2482472 31.2279942,12.2273068 31.3264141,12.2084605 C31.3033796,12.1707678 31.2950034,12.1498274 31.2824392,12.1351691 C30.9013239,11.6807624 30.5181145,11.2284497 30.1390933,10.7719489 C30.0804601,10.7007515 30.0155449,10.671435 29.9255012,10.6672469 C29.6407117,10.6567767 29.3538282,10.6400244 29.0690387,10.619084 C29.0020294,10.6148959 28.9057036,10.6044257 28.8784811,10.5625449 C28.769591,10.3929276 28.5957856,10.3447647 28.4240743,10.2882256 C28.1958239,10.2128402 27.9612914,10.150019 27.9466332,9.85685334 C27.7351351,9.80031425 27.5424834,9.78775001 27.3498317,9.83800698 Z M22.363922,9.35428369 C21.8341298,9.48411418 21.3148078,9.63907316 20.8478369,9.93433282 C20.6091163,10.0851037 20.3599255,10.204464 20.073042,10.2254044 C20.0332552,10.2274985 19.9892804,10.2442508 19.9599638,10.2693793 C19.6458578,10.5311343 19.2668365,10.6525886 18.8836272,10.7593847 C18.196782,10.9499423 17.4910904,11.0483622 16.7812108,11.0986192 C16.6388161,11.1090894 16.5403962,11.1488761 16.4629167,11.2828947 C16.2241961,11.6933266 15.8807735,11.9906803 15.438931,12.1728618 C15.3949562,12.1917082 15.3530754,12.2210247 15.3111946,12.2440592 C15.3907681,12.2566234 15.4577774,12.2419651 15.5247867,12.233589 C16.060861,12.1749558 16.5969353,12.1623916 17.1309155,12.2314949 C17.9203687,12.3320089 18.6511887,12.5791056 19.2814948,13.0795812 C19.5118392,13.2617627 19.7421836,13.4418502 19.9578698,13.640784 C20.4415931,14.0826265 20.9169402,14.5349392 21.3922873,14.9872518 C21.4739549,15.0647313 21.5409642,15.0961419 21.6477602,15.0396028 C21.9220795,14.890926 22.208963,14.7590015 22.4749061,14.5956663 C22.6152068,14.5098107 22.728285,14.3799802 22.8413631,14.2564318 C22.9146546,14.1768583 22.9628175,14.0742503 22.9481592,13.952796 C22.8392691,13.9381377 22.7387552,13.9234794 22.6340532,13.9067271 C22.571232,13.6826648 22.6298651,13.4544144 22.5607618,13.2471044 C22.46653,13.2575746 22.3932385,13.2659508 22.3471697,13.2701389 C22.2906306,13.0544527 22.2403736,12.861801 22.1880226,12.6691493 C22.1314835,12.4639334 22.1272954,12.2566234 22.1608001,12.0472194 C22.2278094,11.6367875 22.3932385,11.2577662 22.573326,10.8892152 C22.6403353,10.7510085 22.7680717,10.6379303 22.8706797,10.51857 C22.9230307,10.4578429 22.9837579,10.4033978 23.0675195,10.3196362 C22.5963604,10.150019 22.4728121,9.77309173 22.4204611,9.36475389 C22.3911445,9.35847177 22.3764862,9.35009561 22.363922,9.35428369 Z M24.8893345,13.6554423 C24.7427517,13.6763827 24.7427517,13.7706145 24.7322815,13.8606582 C24.7008709,14.1203192 24.5961688,14.2250212 24.3386019,14.264808 C24.2653105,14.2752782 24.189925,14.2857484 24.0915052,14.2983126 C24.1124456,14.4532716 24.1291979,14.5872902 24.1480442,14.7380611 C24.290439,14.7380611 24.4014231,14.7506253 24.5103132,14.735967 C24.6924947,14.7108385 24.8474537,14.629171 24.9102749,14.4428014 C25.0003186,14.1789523 24.9626259,13.9151033 24.8893345,13.6554423 Z M28.0848398,11.7017028 C28.1874478,11.9864922 28.4492028,12.0744419 28.6313843,12.2775638 C28.4031339,12.3236327 28.2062942,12.3529493 28.0031723,12.3215387 C27.9298808,12.3110685 27.8503073,12.3173506 27.7770159,12.3341029 C27.6534675,12.3634195 27.5948344,12.4388049 27.6032106,12.5330367 C27.6136808,12.650303 27.6974424,12.7256884 27.8251788,12.7298765 C27.9005643,12.7319705 27.9759497,12.7298765 28.042959,12.7298765 C28.1706955,12.49325 28.2083882,12.4764976 28.4659551,12.5058142 C28.6607009,12.5288486 28.8470705,12.5079082 29.0439102,12.4157705 C28.7423684,12.1477333 28.5329644,11.7917465 28.0848398,11.7017028 Z M23.3648732,10.6630588 C23.2224785,10.6567767 23.1722215,10.6944694 23.1156824,10.8452403 C23.2476069,10.9583185 23.3753434,11.0755847 23.509362,11.1823808 C23.6768852,11.3163994 23.8695369,11.3875967 24.083129,11.4064431 C24.1501383,11.4127252 24.2171476,11.4231954 24.290439,11.4315716 C24.3155675,11.8734141 24.2443701,12.2901281 24.189925,12.7089361 C24.3804827,12.6942778 24.4412099,12.5728235 24.4684324,12.4283347 C24.5417238,12.0451253 24.5689463,11.6577279 24.5605702,11.2556722 C24.0956932,11.1614404 24.0956932,11.1614404 23.7334243,10.8389582 C23.6287223,10.7447264 23.511456,10.6693409 23.3648732,10.6630588 Z M26.6106355,10.8598986 C26.4975573,10.9248138 26.4828991,11.0043874 26.4828991,11.088149 C26.4828991,11.1781927 26.4891812,11.2682364 26.4954633,11.3582802 C26.5289679,11.7289253 26.4975573,12.0932883 26.42636,12.4555572 C26.4200779,12.4890619 26.4179838,12.5246606 26.4158898,12.5581652 L26.4619587,12.5623533 C26.7258077,12.028373 26.6483282,11.4567001 26.6106355,10.8598986 Z M25.5782737,9.18676047 C25.4484432,9.25795784 25.4945121,9.35218965 25.5154525,9.42966914 C25.6054962,9.76471557 25.6913519,10.101856 25.7981479,10.4327144 C25.9007559,10.7551966 26.0263983,11.0713967 26.1520407,11.4127252 C26.2986235,11.3205874 26.2630248,11.2326378 26.2253321,11.1509702 C25.9740473,10.6065197 25.8065241,10.0327527 25.6494711,9.45479762 C25.6264366,9.37103601 25.6054962,9.2872744 25.5782737,9.18676047 Z M17.2230533,7.72930849 C17.1204453,7.82772838 17.0450599,7.93661847 16.9801446,8.04969664 C16.4880452,8.91662929 15.9980398,9.78356193 15.5122224,10.6525886 C15.4577774,10.7489145 15.4242728,10.8578046 15.3970502,10.9646006 C15.3698277,11.0776788 15.3928621,11.1823808 15.5185046,11.2766126 C15.5143165,11.037892 15.5729496,10.8431463 15.6713695,10.6588707 C16.1781272,9.72074072 16.6806969,8.78261071 17.1832665,7.84238666 C17.2021129,7.80678798 17.208395,7.76700121 17.2230533,7.72930849 Z M30.8405967,7.49268195 C30.8405967,7.5785376 30.8385027,7.64554688 30.8405967,7.71255617 C30.855255,8.18999734 30.9327345,8.65487426 31.0981637,9.10299886 C31.2426524,9.49249034 31.4373982,9.85894738 31.7535983,10.1332666 C32.2017229,10.5206641 32.6665998,10.8850271 33.1251946,11.2577662 C33.1377588,11.243108 33.1503231,11.2284497 33.1607933,11.2158854 C33.1084423,11.1635344 33.0602793,11.1069953 33.0058343,11.0588324 C32.7105746,10.7949833 32.4215971,10.5206641 32.1137732,10.2693793 C31.5756048,9.83381889 31.2635928,9.26423996 31.1107279,8.60252326 C31.0437186,8.31145167 31.0185901,8.01200392 30.9767093,7.71674425 C30.9641451,7.63298264 30.9829915,7.53456275 30.8405967,7.49268195 Z M29.3936149,7.4382369 C29.4438719,7.54084487 29.3601103,7.67486345 29.5234454,7.72302637 C29.7056269,7.77747142 29.7893885,7.91986615 29.8207991,8.09367149 C29.9003727,8.53132589 30.0783661,8.93128757 30.3003344,9.31449692 C30.4196946,9.51971286 30.5495251,9.71864668 30.6730735,9.91967454 C30.80081,10.1290786 30.9201703,10.3405766 30.9201703,10.5981436 L30.9289342,10.6253661 L30.9683332,10.6798111 C31.0751292,10.6400244 31.1002577,10.5604508 31.0981637,10.4745952 C31.0981637,10.3929276 31.0960696,10.3028839 31.0667531,10.2274985 C30.9808974,10.0222825 30.8929477,9.81706657 30.7840576,9.62441487 C30.4531993,9.03808362 30.1516575,8.44547024 30.0385793,7.77118929 C29.9799462,7.44033094 29.7642601,7.33144085 29.3936149,7.4382369 Z M18.3182363,8.81402132 C18.2763555,8.82239748 18.2575091,8.84124384 18.2386628,8.86218424 C18.0020362,9.14487967 17.7654097,9.42548106 17.5308772,9.71027052 C17.4785262,9.77309173 17.4261752,9.84219506 17.3905765,9.91548646 C17.3277553,10.045317 17.3214732,10.1793355 17.4282692,10.3426707 C17.4764321,9.9175805 17.4827143,9.92176858 17.7591276,9.59509831 C17.935027,9.38988237 18.09208,9.16791411 18.2533211,8.95013393 C18.2826376,8.91034717 18.2972959,8.8600902 18.3182363,8.81402132 Z M28.6858294,7.55969123 L28.6397605,7.599478 C28.6544188,7.64345284 28.664889,7.68952173 28.6816413,7.73349657 C28.7256161,7.84238666 28.7758731,7.95127675 28.8177539,8.06226088 C29.0439102,8.66953254 29.2805368,9.27261612 29.2512202,9.94061494 C29.2491262,10.0034362 29.3035712,10.0683514 29.343358,10.1604892 C29.4731885,9.95527323 29.4710944,9.76680961 29.44806,9.58253407 C29.3642984,8.91034717 29.1067314,8.29260531 28.824036,7.68533365 C28.7989075,7.63298264 28.7339923,7.60157204 28.6858294,7.55969123 Z M26.4054196,8.25700662 C26.2860593,8.27375894 26.2776831,8.33029803 26.2944354,8.40987156 C26.323752,8.53760801 26.3530686,8.6674385 26.3719149,8.79726899 C26.4137957,9.09043462 26.4912752,9.38569429 26.3530686,9.67676588 C26.3467864,9.69142416 26.3614447,9.7144586 26.3677269,9.74168113 C26.5017454,9.68933012 26.5373441,9.56996983 26.5540964,9.46107974 C26.5729428,9.33334329 26.5708488,9.19723067 26.5520024,9.06740018 C26.5143097,8.80145707 26.4577706,8.53970205 26.4054196,8.25700662 Z M20.9420687,7.47383559 C20.9127521,7.53665679 20.8750594,7.59319588 20.8604011,7.65601708 C20.8268965,7.79841182 20.7975799,7.94080655 20.7787335,8.08529533 C20.7431349,8.37008479 20.7054421,8.65487426 20.5504832,8.901971 C20.4143706,9.1155631 20.4311229,9.33334329 20.4834739,9.59091023 C20.5504832,9.55740559 20.594458,9.54065327 20.6342448,9.51343074 C20.908564,9.31449692 21.0404886,9.02761342 21.1200621,8.71141335 C21.1263442,8.68628486 21.1242502,8.65487426 21.1179681,8.62974578 C21.063523,8.35333247 21.0718992,8.07691916 21.1263442,7.80050586 C21.1556608,7.65392304 21.1054038,7.57016144 20.9420687,7.47383559 Z M28.1141564,8.11879997 C27.9445391,8.11670593 27.9026583,8.13555229 27.8691537,8.26538278 C27.7916742,8.57111265 27.7979563,8.8810306 27.8272729,9.19304259 C27.9717616,9.20770087 27.990608,9.13859755 27.9843259,9.02761342 C27.9696676,8.72397759 27.9654795,8.42034176 28.1141564,8.11879997 Z M21.3545946,7.00686462 C21.3964754,7.11575471 21.4341681,7.20579844 21.4655787,7.29584217 C21.5200238,7.45289518 21.5807509,7.6099482 21.6163496,7.77118929 C21.6959232,8.12508209 21.6435722,8.47897488 21.582845,8.83077364 C21.5430582,9.05902402 21.5807509,9.11346906 21.8110954,9.15744391 C21.8215656,9.14278563 21.8383179,9.12603331 21.8466941,9.10928098 C21.8571643,9.0841525 21.8655404,9.05692998 21.8697285,9.02970746 C21.9849007,8.38264903 21.9430199,7.75234293 21.6540424,7.14925935 C21.584939,7.00267654 21.5765629,6.99430038 21.3545946,7.00686462 Z M28.7612148,3.34648235 C28.4177922,3.33810618 28.2021061,3.53913404 28.2104822,3.8595222 C28.2167644,4.11708914 28.2293286,4.37465609 28.2565511,4.63222303 C28.2984319,5.03846683 28.2670213,5.43842851 28.1853537,5.83839019 C28.0659935,6.41006316 27.6932543,6.77861424 27.1990608,7.03827522 C27.0880767,7.09690835 26.9540581,7.10947259 26.8074753,7.14716531 C26.9540581,7.23930308 27.0943588,7.22045672 27.2200012,7.17019976 C27.7456053,6.9587017 28.1602253,6.6257493 28.3298425,6.05826441 C28.4450147,5.67505505 28.4806134,5.27928145 28.4450147,4.87931977 C28.4219803,4.60918859 28.405228,4.33696336 28.3884756,4.06473814 C28.3717233,3.78623079 28.5371525,3.59986121 28.8156598,3.57473273 C28.8701049,3.57054465 28.926644,3.57263869 28.9831831,3.57473273 C29.6909687,3.59357909 30.3610615,3.76319635 30.9913676,4.08986662 L31.0640386,4.11902807 L31.207,4.158 L31.0345384,4.0327077 C30.7847277,3.86639065 30.51267,3.7397431 30.231231,3.62917777 C29.760072,3.44280819 29.2658785,3.35904659 28.7612148,3.34648235 Z M29.554856,6.51057709 C29.4019911,6.57968042 29.2491262,6.64878375 29.0962612,6.71579303 C29.0376281,6.74301555 28.978995,6.76605 29.0145937,6.88750433 C29.1569884,6.83096524 29.2868189,6.7869904 29.4124613,6.72835727 C29.5778905,6.65087779 29.7244733,6.52732941 29.9275952,6.55036386 C29.8061409,6.44775589 29.6825925,6.45403801 29.554856,6.51057709 Z M25.331177,6.0163836 C25.2348511,6.02266572 25.1866882,6.07292269 25.1804061,6.1566843 C25.164252,6.39002021 25.2065602,6.60489437 25.3587597,6.77888897 L25.438,6.856 L25.3822192,6.72286042 C25.362064,6.67495925 25.3426942,6.62679632 25.3269889,6.57758638 C25.2851081,6.43937973 25.2411332,6.29698499 25.3458352,6.15040218 L25.7583612,6.15040218 C25.6285307,6.03522997 25.5049823,6.00381936 25.331177,6.0163836 Z M20.5190726,5.66039677 C20.644715,6.22369358 21.532588,6.53570557 22.0079351,6.17343662 C21.9660543,6.1671545 21.9220795,6.1566843 21.8801987,6.15877834 C21.741992,6.1671545 21.6037854,6.18181278 21.4655787,6.19018894 C21.0970277,6.21112934 20.8268965,6.04151209 20.6133044,5.75462858 C20.592364,5.72740606 20.5651414,5.70646565 20.5190726,5.66039677 Z M17.3612599,5.33163246 C17.3005328,5.52009608 17.3947646,5.69808949 17.6062626,5.74834646 C17.6669898,5.76300474 17.730858,5.76405176 17.7955115,5.76038719 L17.989472,5.74415838 C18.0041303,5.74415838 18.0146005,5.69390141 18.0292588,5.66249081 C17.886864,5.63945637 17.7465633,5.64364445 17.6355792,5.5891994 C17.5308772,5.5368484 17.4533977,5.42167619 17.3612599,5.33163246 Z M20.4164646,5.46355699 C20.1630857,5.50543779 19.9118009,5.55569476 19.6605161,5.6101398 C19.6249174,5.61851597 19.5997889,5.67296101 19.5704724,5.70437161 C19.5767545,5.71484182 19.5809426,5.72740606 19.5872247,5.73787626 C19.8971426,5.68761929 20.2091546,5.63317425 20.5253547,5.58082324 C20.5525772,5.49077951 20.4939441,5.45099275 20.4164646,5.46355699 Z M25.5091704,2.52980667 C25.4840419,2.53190071 25.4589134,2.53399475 25.4337849,2.53608879 C25.4756657,3.02818823 25.5028882,3.52028768 25.5636154,4.01029309 C25.6222485,4.48773426 25.7227625,4.9588933 25.8965678,5.40911195 C25.9321665,5.50334375 25.9845175,5.59129344 26.0284923,5.68133717 C26.0557149,5.63526829 26.0515268,5.60385768 26.0389625,5.57454112 C25.8609691,5.13269864 25.747891,4.67200979 25.6913519,4.20085075 C25.6410949,3.77994867 25.6180605,3.35485851 25.5761797,2.93186239 C25.5636154,2.79574977 25.5322048,2.66382524 25.5091704,2.52980667 Z M20.1840261,3.05959884 C20.1128288,3.0889154 20.0437254,3.120326 19.9788102,3.16220681 C19.8552618,3.23968629 19.7359015,3.3234479 19.6144472,3.40720951 C19.3861968,3.56635657 19.1642286,3.73806786 18.9296961,3.88883876 C18.5695211,4.11918318 18.1842177,4.26786003 17.7444693,4.18828651 C17.6292971,4.1673461 17.5811342,4.23226135 17.5685699,4.34533952 C17.7675037,4.42491305 17.9685316,4.41234881 18.1674654,4.37884417 C18.4983238,4.32439912 18.7873013,4.17362823 19.0616206,3.99144673 C19.2835888,3.84486391 19.4950869,3.6878109 19.7191492,3.54541616 C19.865732,3.45118436 20.018597,3.36742275 20.17565,3.29622538 C20.3117626,3.23131013 20.4562514,3.21874589 20.5714236,3.35904659 C20.6133044,3.01352995 20.4206527,2.96327299 20.1840261,3.05959884 Z M22.9670056,2.37903577 C22.9230307,2.43976294 22.8916201,2.48373778 22.8539274,2.53608879 C22.9586294,2.60938019 23.042391,2.6617312 23.1177765,2.72036432 C23.199444,2.78527957 23.2769235,2.8543829 23.352309,2.92558026 C23.4214123,2.99258955 23.4863275,3.067975 23.5512428,3.13707833 C23.616158,3.20618165 23.6622269,3.29413134 23.7564587,3.33601214 C23.5931236,2.93814451 23.3104282,2.64497888 22.9670056,2.37903577 Z" id="Combined-Shape" fill="#000000" fill-rule="nonzero"></path>
        </g>
    </g>
</svg>