<?xml version="1.0" encoding="UTF-8"?>
<svg width="48px" height="48px" viewBox="0 0 48 48" version="1.1" xmlns="http://www.w3.org/2000/svg" xmlns:xlink="http://www.w3.org/1999/xlink">
    <title>ph-bsp</title>
    <g id="Page-1" stroke="none" stroke-width="1" fill="none" fill-rule="evenodd">
        <g id="ph-bsp" fill-rule="nonzero">
            <rect id="Rectangle" x="0" y="0" width="48" height="48"></rect>
            <path d="M27.4253359,1.76231526 C49.1336899,4.83505402 53.6462219,33.6974535 34.0151793,43.9179786 C21.4829662,50.4423233 6.30330519,44.0833996 2.40767179,30.677187 C0.655895746,24.6473264 1.50480569,17.2007152 4.39325777,13.2697441 C4.56951449,13.0296169 4.91663234,12.4835499 5.16393133,12.0575464 C6.41211672,9.907074 9.6117159,6.68136533 11.6899266,5.47895063 C12.1404604,5.2192575 12.8589763,4.77724558 13.2870284,4.49887593 C15.4479718,3.09101906 17.9227602,2.32883755 22.7752158,1.57554966 C23.7302395,1.42702655 25.5809351,1.50173277 27.4253359,1.76231526 M14.9812512,5.40869118 C14.4785598,5.67727788 14.1674128,5.7484267 13.7582454,5.68706087 C13.2069934,5.60523973 12.2834442,5.93430294 12.2834442,6.21356196 C12.2834442,6.5621911 11.2555797,7.40619371 10.8302254,7.40619371 C10.3284333,7.40619371 9.93005715,7.78417169 9.54696855,8.62283816 C9.37790598,8.99281194 9.09643476,9.27384966 8.68636807,9.48107057 C8.31317142,9.66961487 7.98493827,9.97911215 7.84015594,10.2797158 C7.70976192,10.5500812 7.40850681,10.88537 7.17020053,11.0241101 C6.85995271,11.2055395 6.68999086,11.4652327 6.56769027,11.9463764 C6.43279993,12.4755456 6.27542787,12.6916601 5.81769992,12.9771446 C5.27633998,13.3151015 5.23946995,13.3844715 5.23946995,14.0550489 C5.23946995,14.5833288 5.16033425,14.8421325 4.93911407,15.0395704 C4.73677855,15.2209999 4.63965748,15.4958121 4.63965748,15.8871305 C4.63965748,16.2064107 4.56321962,16.6084015 4.47059491,16.780048 C3.78715048,18.0429391 4.18732517,21.8120467 5.15403938,23.2190142 C5.36536757,23.5276221 5.5389265,23.9047108 5.5389265,24.0576807 C5.5389265,24.2097613 5.70798911,24.5334883 5.91392171,24.7753942 C6.11985432,25.0181895 6.33118251,25.3943888 6.3842394,25.6122819 C6.52992096,26.2134893 8.24122992,28.3879744 8.83654599,28.7268206 C9.12431208,28.8913522 9.55775977,29.229309 9.79786461,29.4774404 C10.0379694,29.7264612 10.4597266,30.0030522 10.7358022,30.0928775 C11.0109785,30.1827029 11.7249981,30.5233278 12.3221127,30.8497229 C14.5109335,32.0459121 16.2824935,32.7476171 17.1242093,32.7511745 C18.7671738,32.7574 18.9910918,33.8957808 17.678159,35.568667 C14.2186711,39.976335 13.9003298,41.5958595 16.4101897,42.0174162 C17.4155724,42.1855052 17.4938089,42.2326413 17.7267195,42.8080572 C17.9659251,43.3994817 18.4614223,43.718762 19.1475646,43.7249873 C19.3705833,43.7267661 19.8525915,43.862838 20.2194932,44.0273698 C20.8058166,44.2906203 20.9703829,44.3057397 21.5746916,44.1518804 C22.1556195,44.005136 22.3354732,44.0149189 22.7356479,44.2203607 C23.3165758,44.5174072 24.2455207,44.5298581 25.3138523,44.2559351 C26.0206777,44.0745059 26.1969344,44.0780631 26.7499849,44.2808374 C27.3479988,44.4996197 27.4064513,44.4960625 27.8893587,44.2007949 C28.1699307,44.0291486 28.7481606,43.8432722 29.1753134,43.7872428 C29.945987,43.6858557 30.5682811,43.3007626 30.5682811,42.9236741 C30.5682811,42.6506407 31.0179156,42.2966752 31.5107151,42.1810583 C32.4279694,41.964944 32.088945,40.3214067 30.765221,38.5684782 C30.5637848,38.3016702 30.2607311,37.7680542 30.0916685,37.382072 C29.9217067,36.9960897 29.6321421,36.480261 29.4486912,36.235687 C28.542228,35.0306042 28.2742458,33.4208626 28.9576903,33.2830118 C29.1429397,33.2456587 29.4972517,33.1736205 29.7445507,33.1220376 C29.9918497,33.0704548 30.6150431,32.9752933 31.129425,32.91037 C31.9639466,32.8036468 33.5844294,32.1722012 34.7651696,31.4927301 C34.9711022,31.3744453 35.7453729,30.9742333 36.4854713,30.6033702 C37.2255697,30.2325071 38.0349118,29.7380229 38.2840093,29.5050106 C38.5331068,29.2711089 38.9530654,28.972284 39.2174505,28.8406587 C39.4818356,28.7090334 39.9206789,28.3025959 40.1913589,27.9379583 C41.451235,26.2446169 41.628391,25.9671366 41.7237131,25.5393544 C41.7794681,25.2876655 41.9898971,24.9283641 42.1922324,24.7415985 C42.3936686,24.5539435 42.5591341,24.2319953 42.5591341,24.0265531 C42.5591341,23.821111 42.7281968,23.411116 42.9350285,23.1158485 C43.809118,21.8680764 44.2083935,17.8001439 43.5474308,16.8680946 C43.4161375,16.6822184 43.3082252,16.2659979 43.3082252,15.9422709 C43.3082252,15.5402801 43.2039103,15.2450126 42.9772943,15.0066641 C42.7758581,14.7941071 42.6148891,14.3894483 42.5654291,13.9714491 C42.497984,13.4022587 42.4071578,13.2421739 42.0357598,13.0385105 C41.7084257,12.8597491 41.534867,12.6080603 41.3900845,12.098457 C41.2659853,11.6644493 41.0501608,11.3113734 40.8181494,11.1610716 C40.6122168,11.0276676 40.3298463,10.7030512 40.1904596,10.4389113 C40.0501736,10.1747713 39.6329128,9.73098071 39.2615147,9.45350039 C38.8901166,9.17602006 38.4710573,8.70732737 38.3289728,8.41117048 C38.0277176,7.78328237 37.8937266,7.68100596 37.0915786,7.47378505 C36.6581309,7.3617257 36.3865517,7.16250908 36.1032819,6.74895667 C35.6257701,6.05347717 35.1788334,5.80979254 34.3874766,5.81334998 C34.0556464,5.81512872 33.5016967,5.67372044 33.1563773,5.49940589 C32.2229361,5.02804513 31.6177281,5.14010448 31.6177281,5.78489046 C31.6177281,6.11395367 32.7687924,8.55168939 33.1878518,9.11020742 C33.7795708,9.89906975 34.0160785,10.4887154 34.0160785,11.1797481 C34.0160785,11.5515006 34.1482711,12.4461967 34.3110388,13.1674677 C35.0448423,16.4234146 32.7984683,21.1672608 29.6528252,23.0064572 C28.4900704,23.6868176 28.2490663,23.6966006 27.8695748,23.0811634 C27.4685008,22.4310413 27.4927811,22.2095907 28.020652,21.7097703 C28.5925871,21.1681501 28.602479,20.6247512 28.0584213,19.7594039 C27.8318055,19.3992131 27.5107664,18.8904992 27.3462002,18.6290273 C26.8758825,17.8819649 25.9163625,17.4959827 24.2644053,17.3901489 C21.4514918,17.2087195 20.5306403,18.1318751 19.4802941,22.1891353 C19.1349748,23.5205073 18.3184385,23.3070609 16.5028144,21.4109454 C14.1719091,18.9749884 13.0622111,15.6185438 13.7105841,12.9646936 C13.8292876,12.4755456 13.9282072,11.7880704 13.9300057,11.4376625 C13.9318043,10.7786468 14.1809018,10.1747713 14.7645274,9.40725368 C15.3211749,8.67442105 16.4803327,6.14774932 16.4803327,5.6639375 C16.4803327,4.93910912 16.0082164,4.85906672 14.9812512,5.40869118 M23.280605,6.57908893 C22.9406813,6.76496516 22.5189241,6.95439884 22.344466,6.99975622 C21.9263058,7.10736876 21.9415934,7.46222341 22.4011199,8.3578089 C22.6061532,8.75891026 22.7752158,9.17424137 22.7752158,9.28096458 C22.7752158,9.5442151 23.3012882,9.65627449 24.2751965,9.60113417 L25.0854379,9.55488742 L25.3678084,8.81405058 C25.8704998,7.49690842 25.8749961,7.5200318 24.9838205,6.84056075 C24.04948,6.12729406 24.096242,6.13440893 23.280605,6.57908893 M16.554972,11.7854023 C15.5999483,12.7450217 15.5999483,12.7450217 16.1431068,13.3062078 C16.3697226,13.5409989 16.6943587,13.9234237 16.8652198,14.156436 L17.1763669,14.5806607 L18.0144856,14.3814441 C19.1862332,14.1039637 19.2284988,14.0603851 19.3346125,13.0109403 C19.449719,11.8734489 19.4047555,11.7275939 18.8993664,11.6084196 C18.6817432,11.5568368 18.2500941,11.3887477 17.9407456,11.2357778 L17.3787024,10.9574081 L16.554972,11.7854023 Z M29.54851,11.4252115 L28.602479,11.8609979 L28.705895,12.9317873 C28.7625489,13.5205436 28.8290948,14.0248107 28.8524758,14.0523809 C29.026934,14.2524869 31.0179156,14.5931117 31.0179156,14.423244 C31.0179156,14.3512058 31.2876963,13.9705598 31.6177281,13.5756839 C31.9477598,13.1808081 32.2175405,12.8019407 32.2175405,12.7325706 C32.2175405,12.587605 30.691481,10.9574081 30.5727774,10.9760847 C30.5296125,10.9831995 30.0682875,11.1850843 29.54851,11.4252115" id="Shape" fill="#C1AD37"></path>
        </g>
    </g>
</svg>