<?xml version="1.0" encoding="UTF-8"?>
<svg width="48px" height="48px" viewBox="0 0 48 48" version="1.1" xmlns="http://www.w3.org/2000/svg" xmlns:xlink="http://www.w3.org/1999/xlink">
    <title>pl-bankmillennium</title>
    <g id="Page-1" stroke="none" stroke-width="1" fill="none" fill-rule="evenodd">
        <g id="pl-bankmillennium">
            <rect id="Rectangle" x="0" y="0" width="48" height="48"></rect>
            <path d="M1.5,3.11280636 C1.5,3.11280636 4.64264487,3.27399826 6.36799512,4.59338374 C8.78348546,6.18500441 10.2843611,9.90794009 9.6133252,14.9490672 L6.67724475,36.8807166 C6.28322012,39.5672481 5.49994693,43.994652 5.49994693,43.994652 L9.7160104,43.994652 C9.7160104,43.994652 9.91899278,41.4048357 10.2330185,38.7242742 L10.3022713,38.1499535 L10.3751061,37.5768267 L13.1858151,16.1872598 L22.552855,38.622783 C23.7361229,41.4072237 24.427457,42.7504894 26.8907079,44.6406136 L37.9353375,16.1371112 L40.7460465,40.1141065 C40.9072384,41.8096064 41.0302218,43.994652 41.0302218,43.994652 L46.5,43.994652 C46.5,43.994652 46.1441838,41.8502029 45.8552324,39.7606784 L45.7883677,39.2615805 C45.7667777,39.0980649 45.7456834,38.9344842 45.7250849,38.7708408 L42.4713967,14.3472842 C42.4510985,14.1180335 42.4296062,13.8577384 42.409308,13.5866973 L42.3770696,13.1759564 C42.3054288,12.2135811 42.239758,11.263146 42.239758,11.263146 L35.4696986,11.263146 L35.4696986,11.3121006 C35.4696986,12.3568628 35.1258225,13.3526705 34.7294099,14.3962388 L26.5468319,35.4884962 L17.2777011,13.5508768 C14.3917693,6.81066775 10.3321216,4.05249539 7.10947782,3.27399826 C5.67188495,2.77251237 1.50119401,3.11280636 1.50119401,3.11280636 L1.5,3.11280636 Z" id="Path" fill="#000000" fill-rule="nonzero"></path>
        </g>
    </g>
</svg>