<?xml version="1.0" encoding="UTF-8"?>
<svg width="48px" height="48px" viewBox="0 0 48 48" version="1.1" xmlns="http://www.w3.org/2000/svg" xmlns:xlink="http://www.w3.org/1999/xlink">
    <title>plnb</title>
    <g id="Page-1" stroke="none" stroke-width="1" fill="none" fill-rule="evenodd">
        <g id="plnb" fill-rule="nonzero">
            <rect id="Rectangle" x="0" y="0" width="48" height="48"></rect>
            <path d="M35.4299564,31.875 L35.4299564,18.324734 L33.3553954,16.3316571 L33.3553954,16.1855387 L40.3388471,16.1855387 C43.7818767,16.1855387 44.7336628,17.0832812 45.4458418,17.8841649 C46.2039504,18.7381826 46.5,19.8213404 46.5,21.2083581 C46.5,22.9302304 46.1032381,23.9702169 45.0784084,24.9138981 C43.9561864,25.9500103 42.1616277,26.1691879 40.8523687,26.1691879 C40.0660387,26.1691879 39.0627901,26.0662408 38.8790733,26.0402273 L38.6925896,26.0142138 L38.6925896,31.8744465 L35.4299564,31.8744465 L35.4299564,31.875 Z M38.6132373,23.8568314 L38.7339413,23.8951154 C39.1503411,24.0233087 39.7238293,24.0302694 40.2337892,24.0302694 C42.2430196,24.0302694 43.2138489,23.0064635 43.2138489,21.3788154 C43.2138489,19.1264426 41.3761454,18.8004489 40.2805692,18.8004489 L38.6132373,18.8004489 L38.6132373,23.8568314 Z M21.0106491,31.875 L21.0106491,18.324734 L18.8963303,16.3316571 L18.8963303,16.1855387 L26.3682042,16.1855387 C28.3695183,16.1855387 29.8284097,16.5995408 30.5957119,17.2388087 C31.5438217,18.0269624 31.8579749,18.7520196 31.8579749,20.0665315 C31.8579749,21.5731006 31.3206373,22.5461162 30.266303,23.1920258 C30.1764642,23.2479272 29.9854862,23.3143446 29.9854862,23.3143446 C29.9854862,23.3143446 30.1612086,23.3674785 30.290034,23.4172917 C31.8314187,23.9702169 32.6981652,25.3245794 32.6981652,27.1654496 C32.6981652,28.70246 32.1958591,29.9571962 31.121749,30.7093738 C30.0380334,31.4637653 28.5932677,31.8738931 26.3427782,31.8738931 L21.0106491,31.8738931 L21.0106491,31.875 Z M24.1541722,29.2600898 L26.0643326,29.2600898 C27.8410867,29.2600898 28.7547837,28.5549916 28.7547837,27.0343242 C28.7547837,25.5035115 27.9728595,24.6839969 26.1705131,24.6839969 L24.1541722,24.6839969 L24.1541722,29.2600898 Z M24.1541722,22.7228142 L25.8210129,22.7228142 C27.3540038,22.7228142 28.0975535,21.9951482 28.0975535,20.7367994 C28.0975535,19.8021058 27.6872627,18.9271209 25.9286391,18.8004489 L24.1541722,18.8004489 L24.1541722,22.7228142 Z M13.7924103,31.8139077 L6.35664558,21.6382015 L6.35664558,31.8139077 L3.29898432,31.8139077 L3.29898432,18.24427 L1.5,16.2047009 L1.5,16.125 L6.03557722,16.125 L13.5959855,26.3311476 L13.5959855,16.125 L16.655316,16.125 L16.655316,31.8139077 L13.7924103,31.8139077 Z" id="Combined-Shape" fill="#00675D"></path>
        </g>
    </g>
</svg>