<?xml version="1.0" encoding="UTF-8"?>
<svg width="48px" height="48px" viewBox="0 0 48 48" version="1.1" xmlns="http://www.w3.org/2000/svg" xmlns:xlink="http://www.w3.org/1999/xlink">
    <title>rbinternational</title>
    <g id="Page-1" stroke="none" stroke-width="1" fill="none" fill-rule="evenodd">
        <g id="rbinternational">
            <rect id="Rectangle" x="0" y="0" width="48" height="48"></rect>
            <path d="M33.5579679,4.89224447 L26.4369039,12.015416 L28.2082132,13.7846179 L24.2841466,17.6970936 L20.3642948,13.7846179 L22.1345504,12.015416 L15.0145401,4.89224447 C13.6594516,3.53926337 9.72906256,1.29904702 5.79972728,5.130386 C2.29398888,8.54866534 2,12.9205645 2,14.188194 L3.91250832,12.2156234 L11.2854123,19.5990647 L13.3401733,17.5548409 L13.3422808,12.70139 L15.4434056,14.8025149 L15.4391907,20.6675404 L18.3906705,23.6053218 L3.4246343,38.5608207 L9.32970131,44.4574579 L24.2841466,29.5546452 L39.3850594,44.625 L45.2985562,38.7136106 L30.1786763,23.6063755 L33.1259412,20.6822925 L33.1259412,14.8035686 L35.2270661,12.7024437 L35.2323347,17.581184 L37.2849882,19.6011721 L44.6589459,12.2177309 L46.652591,14.188194 C46.652591,12.9184571 46.2774654,8.55077278 42.7706733,5.130386 C38.8423917,1.29904702 34.910949,3.5403171 33.5569142,4.89329819 L33.5579679,4.89224447 Z" id="Path" fill="#000000" fill-rule="nonzero"></path>
        </g>
    </g>
</svg>