<?xml version="1.0" encoding="UTF-8"?>
<svg width="48px" height="48px" viewBox="0 0 48 48" version="1.1" xmlns="http://www.w3.org/2000/svg" xmlns:xlink="http://www.w3.org/1999/xlink">
    <title>ro-bancatransilvania</title>
    <g id="Page-1" stroke="none" stroke-width="1" fill="none" fill-rule="evenodd">
        <g id="ro-bancatransilvania">
            <rect id="Rectangle" x="0" y="0" width="48" height="48"></rect>
            <path d="M23.9954,2.00055455 C30.7786667,1.96936879 37.5016667,3.25380037 43.7806001,5.78050427 C43.4121333,6.9487243 43.1069333,8.13537809 42.8662667,9.3354586 L42.869,9.322 L42.8846,9.37148622 C41.8416956,14.4696322 42.1486272,19.4163739 43.8220158,25.2197929 L44,25.8232438 C41.2733333,32.9948391 36.4504001,39.2110792 30.1394,43.6880188 L30.1211333,43.7059999 C28.2167333,45.0354122 26.1608667,46.1409154 23.9954667,47 C15.2822667,43.5620206 7.63886,35.3541557 4,25.8232438 C6.20342667,18.4163862 6.29486,12.4134244 4.17371667,5.81654501 C4.79543333,5.57354563 5.38972,5.33954989 6.00228667,5.12355482 L5.98,5.131 C11.5119861,3.12684158 17.3434125,2.072493 23.2276164,2.00390669 L23.9954,2.00055455 Z M23.7736889,4.00049293 L23.0912146,4.00347261 C17.8608111,4.06443822 12.677321,5.00163696 7.76,6.78311111 L7.23921811,6.97352612 C6.88042765,7.10804218 6.52283951,7.24848482 6.15441482,7.39248445 C8.03987556,13.2563772 7.95860148,18.5923433 6,25.1762167 C9.23454222,33.6481384 16.0286815,40.9440183 23.7737482,44 C25.6985482,43.2363692 27.5259852,42.2536997 29.2187852,41.0719999 L29.2350222,41.0560167 C34.8448001,37.0765148 39.1318518,31.5509681 41.5555556,25.1762167 L41.3973474,24.6398159 C39.9098908,19.4812212 39.6370628,15.0841175 40.5640889,10.5524322 L40.5502222,10.5084444 L40.5477926,10.5204076 C40.7617185,9.45366941 41.0330074,8.39886604 41.3605334,7.36044824 C35.7792593,5.11448922 29.8032593,3.97277226 23.7736889,4.00049293 Z M19.1772,13.2233567 L12.7772,13.2233567 L12.7772,14.5373474 C13.6274667,14.5373474 13.9383333,14.7623723 13.9383333,15.7883391 L13.9383333,25.0132459 C13.9383333,25.2041463 14.0154,25.3873031 14.1525334,25.5223575 C14.2897333,25.6573462 14.4757333,25.7332076 14.6697333,25.7332076 L19.5428667,25.7332076 C22.6972,25.7332076 23.8217333,24.5542055 23.8217333,22.5562807 C23.8217333,20.7562781 22.8068667,19.7032742 20.5212,19.4873054 L20.5394667,19.4873054 L20.5394667,19.4153158 C22.1668667,19.1992814 23.4012001,18.5152817 23.4012001,16.616318 C23.4012001,14.26737 21.5086,13.2233567 19.1772,13.2233567 Z M34.4823333,13.223355 L25.3394667,13.223355 C25.1538,13.2251285 24.9755334,13.2954775 24.8400667,13.4204914 C24.7046001,13.5455052 24.6218,13.7160622 24.6080667,13.8983658 L24.4343333,16.7603628 L26.0160667,16.7603628 C26.4183334,15.2123566 26.528,14.6633456 27.7348667,14.6633456 L28.2652001,14.6633456 L28.2652001,25.7332076 L31.6023333,25.7332076 L31.6023333,14.6633456 L32.1234667,14.6633456 C33.3303333,14.6633456 33.4400667,15.2123566 33.8423333,16.7603628 L35.4332,16.7603628 L35.2503333,13.8983658 L35.2046001,13.8983658 C35.1952,13.7161278 35.115,13.5443896 34.9805333,13.4187195 C34.8461333,13.293115 34.6677333,13.2231598 34.4823333,13.223355 Z M18.5097333,20.1532585 C19.7714667,20.1532585 20.3383334,20.7652686 20.3383334,22.2862377 C20.3383334,24.0142507 19.7074667,24.4102264 18.3726,24.4102264 L17.2937333,24.4102264 L17.2937333,20.1532585 L18.5097333,20.1532585 Z M18.0068667,14.6633456 C19.3052,14.6633456 19.8354667,15.176329 19.8354667,16.7063542 C19.8354667,18.4253111 19.3600666,18.7672782 18.0800666,18.7672782 L17.2754667,18.7672782 L17.2754667,14.6633456 L18.0068667,14.6633456 Z" id="Combined-Shape" fill="#000000" fill-rule="nonzero"></path>
        </g>
    </g>
</svg>