<?xml version="1.0" encoding="UTF-8"?>
<svg width="48px" height="48px" viewBox="0 0 48 48" version="1.1" xmlns="http://www.w3.org/2000/svg" xmlns:xlink="http://www.w3.org/1999/xlink">
    <title>ro-brci</title>
    <g id="Page-1" stroke="none" stroke-width="1" fill="none" fill-rule="evenodd">
        <g id="ro-brci">
            <rect id="Rectangle" x="0" y="0" width="48" height="48"></rect>
            <path d="M38.7253521,30.6857143 C38.7042254,30.6571428 38.5492958,30.6071428 38.3732394,30.5857143 C37.6690141,30.4857143 36.7676057,29.8928571 36.3661972,29.2642857 C35.8661972,28.4714286 35.8661972,28.4714286 35.8661972,23.9214286 C35.8661972,20 35.8732394,19.8285714 36.0140845,19.3857143 C36.4507042,18 37.6408451,17.25 39.3943662,17.25 C40.0985916,17.25 40.584507,17.3571429 41.1267606,17.6214286 C41.6690141,17.8928571 42.2183098,18.4571429 42.4647886,19.0142857 C42.6338029,19.3928571 42.6549296,19.5214286 42.6830988,20.5571429 L42.7112675,21.6785714 L41.7183099,21.6785714 L40.7253521,21.6785714 L40.7253521,20.9428571 C40.7253521,20.3214286 40.7042254,20.1571429 40.5704225,19.8928571 C40.4788732,19.7214286 40.3239437,19.5214286 40.2253521,19.4428571 C39.8309859,19.15 39.0140845,19.1571429 38.6197183,19.4428571 C38.5211267,19.5214286 38.3661972,19.7214286 38.2816901,19.8928571 L38.1197183,20.2071429 L38.1197183,24 C38.1197183,27.5214286 38.1338028,27.8071428 38.2535211,28.0714286 C38.4295775,28.4571429 38.5985915,28.6 39.0422535,28.7142857 C39.7042253,28.8928571 40.3169014,28.6357143 40.584507,28.0714286 C40.6971831,27.8357143 40.7253521,27.6285714 40.7253521,27.0142857 L40.7253521,26.25 L41.7183099,26.25 L42.7112675,26.25 L42.6830988,27.4142857 C42.6619717,28.5 42.6478875,28.6 42.4647886,28.9714286 C42.3591549,29.1928571 42.1478873,29.5214286 41.9929577,29.6928571 C41.6760563,30.0571428 40.9014085,30.5071429 40.4577465,30.5785714 C40.2887324,30.6071428 40.1408451,30.6571428 40.1197183,30.6857143 C40.0704225,30.7714286 38.7746479,30.7714286 38.7253521,30.6857143 L38.7253521,30.6857143 Z M1.58450704,30.4785714 C1.51408451,30.4285714 1.5,29.7357143 1.51408451,27.2428571 L1.53521127,24.0714286 L3.11267606,24.0714286 L4.6971831,24.0714286 L4.69014085,24.75 C4.68309859,25.1214285 4.67605634,25.45 4.67605634,25.4857143 C4.66901408,25.5142857 4.34507042,25.5357143 3.94366197,25.5357143 C3.47183099,25.5357143 3.19014085,25.5642857 3.13380282,25.6214286 C3,25.7571428 3.01408451,28.7785714 3.14788732,28.8857143 C3.21126761,28.9428571 3.71830986,28.9642857 4.81690141,28.95 L6.39436621,28.9285714 L6.41549298,27.3071429 L6.42957745,25.6785714 L7.20422536,25.6785714 L7.97887324,25.6785714 L7.97887324,28.0642857 C7.97887324,30.1714286 7.96478873,30.4571429 7.86619717,30.4928571 C7.6971831,30.5571428 1.69014084,30.5428571 1.58450704,30.4785714 L1.58450704,30.4785714 Z M9.7605634,30.4857143 C9.6971831,30.4642857 9.66901409,30.2357143 9.66901409,29.7071428 L9.66901409,28.9642857 L10.443662,28.9642857 L11.2253521,28.9642857 L11.2042253,29.7357143 L11.1830986,30.5 L10.5140845,30.5071429 C10.1478873,30.5142857 9.80281688,30.5071429 9.7605634,30.4857143 Z M12.9577465,30.4928571 C12.9295775,30.4642857 12.9084507,30.1071428 12.9084507,29.7 L12.9084507,28.9642857 L13.6830986,28.9642857 L14.4647887,28.9642857 L14.443662,29.7357143 L14.4225352,30.5 L13.7112676,30.5214285 C13.3239437,30.5285714 12.9859155,30.5214285 12.9577465,30.4928571 L12.9577465,30.4928571 Z M19.1478873,30.4714286 C19.1267605,30.4357143 19.112676,27.4857143 19.1267605,23.9214286 L19.1408451,17.4285714 L21.2746479,17.4071429 C23.2394366,17.3928571 23.4507042,17.4 23.8873239,17.5357143 C25.084507,17.8928571 25.7042254,18.7714286 25.8732394,20.3571429 C25.9859155,21.4214286 25.8309859,22.45 25.4788732,23.0357143 C25.2676056,23.3785714 24.8380282,23.7571428 24.4788732,23.9214286 C24.3098592,23.9928571 24.1760563,24.0785714 24.1760563,24.1 C24.1760563,24.1214286 24.3521127,24.2357143 24.5704225,24.35 C25.4577465,24.8214285 25.9507042,26.05 25.8380281,27.5285714 C25.7112676,29.2714286 25.0774648,30.1357143 23.7042253,30.4285714 C23.1619718,30.55 19.2112676,30.5857143 19.1478873,30.4714286 L19.1478873,30.4714286 Z M23.0492958,28.5142857 C23.5,28.2071429 23.5774648,27.9785714 23.5774648,26.8928571 C23.5774648,25.9928571 23.5633803,25.9071429 23.4014084,25.6142857 C23.1056338,25.0928572 22.9366197,25.0071429 22.1197183,24.9785714 C21.5845071,24.9571429 21.3943662,24.9714286 21.3521127,25.05 C21.2816902,25.1571428 21.2676056,28.5571428 21.3380281,28.6285714 C21.3591549,28.6571428 21.7042253,28.6785714 22.0985916,28.6785714 C22.7253521,28.6785714 22.8450704,28.6571428 23.0492958,28.5142857 L23.0492958,28.5142857 Z M23.0070423,22.9428571 C23.1760563,22.85 23.3450704,22.6642857 23.443662,22.4857143 C23.7464789,21.8928571 23.7323944,20.4571429 23.415493,19.8357143 C23.3450704,19.6928571 23.1760563,19.5 23.0492958,19.4142857 C22.8450704,19.2714286 22.7253521,19.25 22.0985916,19.25 C21.5,19.25 21.3661972,19.2714286 21.3309859,19.3642857 C21.2746479,19.5142857 21.2746479,23 21.3380281,23.0571429 C21.3591549,23.0857143 21.6830986,23.1071428 22.056338,23.1071428 C22.6267606,23.1071428 22.7746479,23.0785714 23.0070423,22.9428571 Z M27.556338,23.9714285 L27.556338,17.3928571 L28.6478873,17.3928571 L29.7394366,17.3928571 L29.7535211,20.0571429 L29.7746479,22.7142857 L30.2816902,22.7357143 C30.7887324,22.7571429 30.7887324,22.7571429 30.8380282,22.5571428 C30.8591549,22.45 30.9225352,22.2142857 30.971831,22.0357143 C31.0845071,21.6428572 31.2746479,20.95 31.3591549,20.6071429 C31.3943662,20.4714286 31.5070422,20.05 31.6056338,19.6785714 C31.7042254,19.3071429 31.8309859,18.8071429 31.8943662,18.5714286 C31.9577465,18.3357143 32.056338,17.9714286 32.1126761,17.7714286 L32.2183099,17.3928571 L33.3239437,17.3928571 C33.9366197,17.3928571 34.4507042,17.4071429 34.471831,17.4285714 C34.4859155,17.45 34.3028169,18.15 34.0492958,18.9785714 C33.8028169,19.8142857 33.556338,20.6642857 33.5,20.8571429 C33.3661972,21.3285714 33.2957747,21.5642857 33.1619718,22 C32.7957747,23.2357143 32.7957747,23.2571429 32.943662,23.3357143 C33.0211268,23.3785714 33.2605634,23.5928571 33.4788732,23.8142857 C33.7746479,24.1214286 33.915493,24.3357143 34.056338,24.7142857 C34.4788732,25.8857143 34.5,27.3928571 34.0985915,28.5357143 C33.8521127,29.2142857 33.4929577,29.6785714 32.9295775,30.0285714 C32.2464789,30.45 32.0211267,30.4857143 29.6901409,30.5214285 L27.556338,30.55 L27.556338,23.9714285 Z M31.0352113,28.6071428 C31.7746479,28.4357143 32.1338028,27.7571428 32.1338028,26.5357143 C32.1338028,25.5857143 31.9014085,24.9214286 31.4647887,24.6214286 C31.2605634,24.4714286 31.1690141,24.4642857 30.5070423,24.4785714 L29.7746479,24.5 L29.7535211,26.5 C29.7394366,28.3142857 29.7464789,28.5071429 29.8591549,28.5928571 C30,28.6928571 30.6338028,28.7071429 31.0352113,28.6071428 Z M44.2816902,30.45 C44.2605635,30.4 44.253521,27.45 44.2605635,23.8928571 L44.2816902,17.4285714 L45.3943664,17.4071429 L46.5,17.3857143 L46.5,23.9642857 L46.5,30.5357143 L45.4084505,30.5357143 C44.5985917,30.5357143 44.3028169,30.5142857 44.2816902,30.45 L44.2816902,30.45 Z M11.2887324,28.1071428 L11.2887324,27.3214286 L12.0633803,27.3214286 L12.8450704,27.3214286 L12.8239437,28.0928571 L12.8028169,28.8571428 L12.0492958,28.8785714 L11.2887324,28.9 L11.2887324,28.1071428 Z M9.66901409,26.4285714 L9.66901409,25.6785714 L10.443662,25.6785714 L11.2183098,25.6785714 L11.2183098,26.4285714 L11.2183098,27.1785714 L10.443662,27.1785714 L9.66901409,27.1785714 L9.66901409,26.4285714 Z M12.9084507,26.4285714 L12.9084507,25.6785714 L13.6830986,25.6785714 L14.4577465,25.6785714 L14.4577465,26.4285714 L14.4577465,27.1785714 L13.6830986,27.1785714 L12.9084507,27.1785714 L12.9084507,26.4285714 Z M8.04929579,24.7857143 L8.04929579,24.0357143 L8.82394366,24.0357143 L9.59859154,24.0357143 L9.59859154,24.7857143 L9.59859154,25.5357143 L8.82394366,25.5357143 L8.04929579,25.5357143 L8.04929579,24.7857143 Z M6.42957745,23.1428571 L6.42957745,22.3857143 L7.19014085,22.4071429 L7.94366197,22.4285714 L7.96478873,23.1642857 L7.9859155,23.8928571 L7.20422536,23.8928571 L6.42957745,23.8928571 L6.42957745,23.1428571 Z M9.66901409,23.1428571 L9.66901409,22.3928571 L11.2746479,22.3785714 L12.8732395,22.3571428 L12.8732395,20.6785714 L12.8732395,19 L11.2535211,19 L9.63380281,19 L9.61267605,19.8071429 L9.59154929,20.6071429 L8.81690141,20.6071429 L8.04929579,20.6071429 L8.0633803,19.0214286 L8.08450706,17.4285714 L11.2535211,17.4285714 L14.4225352,17.4285714 L14.443662,20.6642857 L14.4577465,23.8928571 L12.0633803,23.8928571 L9.66901409,23.8928571 L9.66901409,23.1428571 Z M1.52816901,22.1571429 C1.50704225,22.1 1.5,21.7714286 1.51408451,21.4214286 L1.53521127,20.7857143 L2.29577465,20.7642857 L3.04929578,20.7428571 L3.04929578,21.5 L3.04929578,22.25 L2.30985915,22.25 C1.75352113,22.25 1.55633803,22.2285714 1.52816901,22.1571429 L1.52816901,22.1571429 Z M4.80985915,21.5 L4.80985915,20.7428571 L5.57042253,20.7642857 L6.32394367,20.7857143 L6.34507043,21.3571429 C6.3802817,22.2857143 6.41549298,22.25 5.54929577,22.25 L4.80985915,22.25 L4.80985915,21.5 Z M3.20422535,19.8428571 L3.22535211,19.0714286 L3.95070423,19.05 L4.66901408,19.0285714 L4.66901408,19.8214286 L4.66901408,20.6071429 L3.92957747,20.6071429 L3.18309859,20.6071429 L3.20422535,19.8428571 Z M1.54929577,18.9142857 C1.52112676,18.8928571 1.5,18.5571429 1.5,18.1714286 C1.5,17.6071429 1.52112676,17.4714286 1.61267606,17.4357143 C1.67605634,17.4142857 2.02112676,17.3928571 2.38732394,17.3928571 L3.04929578,17.3928571 L3.04929578,18.1785714 L3.04929578,18.9642857 L2.32394366,18.9642857 C1.92253521,18.9642857 1.57042254,18.9428571 1.54929577,18.9142857 Z M4.82394366,18.2 L4.84507042,17.4285714 L5.58450704,17.4285714 L6.32394367,17.4285714 L6.32394367,18.1785714 L6.32394367,18.9285714 L5.56338028,18.95 L4.8028169,18.9714286 L4.82394366,18.2 Z" id="Combined-Shape" fill="#006DAE" fill-rule="nonzero" transform="translate(24.000000, 24.000000) scale(1, -1) translate(-24.000000, -24.000000) "></path>
        </g>
    </g>
</svg>