<?xml version="1.0" encoding="UTF-8"?>
<svg width="48px" height="48px" viewBox="0 0 48 48" version="1.1" xmlns="http://www.w3.org/2000/svg" xmlns:xlink="http://www.w3.org/1999/xlink">
    <title>ro-cec</title>
    <g id="Page-1" stroke="none" stroke-width="1" fill="none" fill-rule="evenodd">
        <g id="ro-cec" fill-rule="nonzero">
            <rect id="Rectangle" x="0" y="0" width="48" height="48"></rect>
            <path d="M18.7156722,38.2549119 C19.9400224,38.2549119 20.8781057,38.5239783 21.4666881,39.0621109 C22.0392221,39.6001071 22.1662384,40.0433635 22.1662384,41.6099821 L22.1662384,45.1707768 C22.1662384,45.2726152 22.2430518,45.3672184 22.3414003,45.3765013 C22.4394746,45.3859207 23.2158383,45.4555421 23.2158383,45.4555421 L23.2158383,46.294412 L19.7017638,46.294412 L19.4791422,45.4077627 C18.1750981,46.2149617 17.4116281,46.5 16.5690128,46.5 C15.2172347,46.5 14.2631029,45.5980612 14.2631029,44.3320434 C14.2631029,43.5720777 14.5969667,42.9075344 15.2013234,42.4802499 C15.6943006,42.1165804 16.8395056,41.7840357 19.5106905,41.2145051 L19.5106905,40.7554132 C19.5106905,39.6476135 18.9223824,39.2044936 17.4911848,39.2044936 L17.4911848,40.8502895 L15.5991069,40.8502895 C14.9151936,40.8502895 14.6447008,40.6760994 14.6447008,40.233116 C14.6447008,39.1251797 16.4579078,38.2549119 18.7156722,38.2549119 Z M9.08333068,35.6752878 C11.3893777,35.6752878 12.6611877,36.5298567 12.6611877,38.0809129 C12.6611877,39.3626297 11.9455888,40.1223223 10.2759954,40.6286475 C11.2936354,40.7079614 11.8343466,40.8661795 12.3590094,41.261793 C12.9632288,41.7047764 13.2500445,42.3536208 13.2500445,43.2242981 C13.2500445,45.1866668 11.7868869,46.29433 9.21103289,46.29433 L3.375,46.29433 L3.375,45.3765558 C3.375,45.3765558 4.24573441,45.3222238 4.37659147,45.313214 C4.5075857,45.3042041 4.63076142,45.1428462 4.63076142,45.0126132 L4.63076142,36.8936628 C4.63076142,36.7635663 4.50717419,36.6647312 4.37659147,36.6564039 C4.24600874,36.6480766 3.375,36.5931985 3.375,36.5931985 L3.375,35.6752878 L9.08333068,35.6752878 Z M30.8173993,38.254912 C32.3281536,38.254912 33.0436153,39.1885217 33.0436153,41.1507538 L33.0436153,45.1707769 C33.0427923,45.2760281 33.1168623,45.3669455 33.2187772,45.3765014 C33.3204178,45.3859208 34.0771666,45.4555422 34.0771666,45.4555422 L34.0771666,46.2944121 L29.5772748,46.2944121 L29.5772748,45.4555422 C29.5772748,45.4555422 30.0725839,45.3927464 30.1971313,45.3765014 C30.3215415,45.3598469 30.3879302,45.2599196 30.3879302,45.1707769 L30.3879302,41.7998713 C30.3879302,40.3754988 29.9905582,39.9797487 28.543312,39.9797487 C28.1778998,39.9797487 27.9710524,39.9958572 27.7327938,40.0272551 L27.7327938,45.1707769 C27.7327938,45.27439 27.8355317,45.3603929 27.9392298,45.3765014 C28.0174148,45.3859208 28.6068202,45.4555422 28.6068202,45.4555422 L28.6068202,46.2944121 L24.075243,46.2944121 L24.075243,45.4555422 C24.075243,45.4555422 24.8358325,45.3822349 24.902084,45.3765014 C24.9702559,45.3706314 25.0765601,45.3131596 25.0765601,45.1707769 L25.0765601,39.9640498 L23.9640007,39.9640498 L23.9640007,39.2044937 L26.8100732,38.270884 L27.7327938,38.270884 L27.7327938,39.2995064 C29.4182986,38.444801 29.9905582,38.254912 30.8173993,38.254912 Z M38.5187486,34.5358307 L38.5187486,42.1324839 L38.9645405,42.1324839 C38.9645405,42.1324839 39.4205018,41.6119941 39.9186331,41.0428595 L40.1920362,40.7304342 C40.691823,40.1592087 41.1585452,39.6251285 41.1784116,39.6000387 C41.2358844,39.5275505 41.1969291,39.419569 41.0947399,39.4098766 C41.0187495,39.403324 40.363504,39.3469443 40.363504,39.3469443 L40.363504,38.5240463 L43.9731837,38.5240463 L43.9731837,39.3469443 L42.8443015,39.457656 L41.3172243,41.1669303 L43.6871911,45.3764328 L44.625,45.4556102 L44.625,46.2943436 L40.8723926,46.2943436 L40.8723926,45.5821573 L39.2505332,42.7175769 L38.5187486,42.7175769 L38.5187486,45.1708449 C38.5187486,45.3028526 38.6085928,45.3713819 38.662225,45.3764328 C38.7158572,45.3816203 39.5363886,45.4556102 39.5363886,45.4556102 L39.5363886,46.2943436 L34.8773834,46.2943436 L34.8773834,45.4871446 C34.8773834,45.4871446 35.5289254,45.3958176 35.6566276,45.3764328 C35.7840555,45.3569115 35.8632007,45.2673593 35.8632007,45.1708449 L35.8632007,36.213161 L34.7029074,36.213161 L34.7029074,35.4536049 L37.7873756,34.5358307 L38.5187486,34.5358307 Z M7.9068516,41.3568057 L7.39782588,41.3568057 L7.39782588,45.2657076 C7.63649598,45.2770186 7.78586775,45.2802503 7.90962573,45.2811737 L8.0499165,45.281543 C9.59235638,45.281543 10.3079552,44.6486706 10.3079552,43.3032024 C10.3079552,41.9895417 9.52884821,41.3568057 7.9068516,41.3568057 Z M19.5106905,42.258963 C18.5407846,42.4169081 18.3978569,42.448579 18.0317588,42.5910982 C17.3957167,42.8601645 17.1095869,43.2399426 17.1095869,43.8096097 C17.1095869,44.474426 17.57033,44.9335179 18.2707033,44.9335179 C18.6203413,44.9335179 18.8905597,44.8701761 19.5106905,44.6325076 L19.5106905,42.258963 Z M7.81138359,36.7040468 L7.39782588,36.7040468 L7.39782588,40.2804039 C7.55721363,40.2965124 7.6838185,40.2965124 7.76337523,40.2965124 C9.11529052,40.2965124 9.7668325,39.6950379 9.7668325,38.4448555 C9.7668325,37.2419064 9.16288737,36.7040468 7.81138359,36.7040468 Z M31.2719287,16.8317163 L31.2846852,17.3787223 L31.5407755,27.8162028 C31.5628593,29.1096597 31.0051394,30.3395017 29.8847615,31.4740579 C27.8795211,33.5031812 24.5910859,34.6726847 23.9137566,34.6726847 C23.3098115,34.6726847 19.9416824,33.5052289 17.93315,31.4675053 C16.8162013,30.3343142 16.263145,29.1069294 16.2876979,27.8193426 L16.5439253,17.3787223 L16.5572305,16.8317163 L31.2719287,16.8317163 Z M30.7221093,17.3931109 L17.1066653,17.3931109 L16.8508494,27.8304549 C16.7728015,31.845973 23.2819115,34.1116727 23.9137015,34.1116727 C24.54508,34.1116727 31.0455485,31.845973 30.9777881,27.8304549 L30.7221093,17.3931109 Z M29.367725,18.5765386 L29.5974793,27.9281979 L29.5966563,27.913318 C29.6195632,29.2378998 28.3067404,30.3917043 27.2011765,31.125323 C26.399437,31.6578586 25.5779454,32.0577041 24.9257176,32.3289546 C24.3808914,32.5397301 24.4095592,31.9199628 24.4978946,31.547693 C24.6486408,30.9142745 24.9019878,30.6352428 25.7875362,30.1222284 C26.5828289,29.6616349 26.5628025,29.3536624 26.0515822,29.154081 C25.5351494,28.9472644 26.2820223,28.3618984 27.2441097,27.6443882 C28.2780725,26.873365 28.5325168,26.0506036 27.4265415,26.0162024 C26.2737923,25.9797535 26.5538867,25.6964899 27.7155518,24.2495928 C28.7119309,23.0076012 28.7965628,22.0693501 27.3819623,22.4298798 C26.7427653,22.5926029 26.6924251,22.3803258 26.8328839,21.5091023 C26.9502986,20.7877698 26.4322199,20.5606128 25.8433631,20.7995099 C25.4684864,20.9517214 25.4261019,20.7184214 24.9392971,20.243494 C24.2696492,19.5895987 23.6584342,19.6211331 23.6584342,20.8352761 C23.6584342,22.2240188 24.9727658,26.5226641 23.4064589,32.5274439 C23.3044069,32.4903125 23.063405,32.3913409 23.0554493,32.3882011 C22.4239336,32.1179061 22.852031,31.6014789 22.9941357,31.3360985 C23.3049555,30.7537357 22.8516195,30.5241215 21.8924125,29.9070846 C21.0903987,29.3914765 21.1076817,28.9519059 21.7250692,28.8839226 C22.1172288,28.8403751 22.2875899,28.5698071 20.5885056,27.3679502 C18.6554149,25.9998209 19.1881705,25.2944603 20.5052454,25.3618975 C21.2161806,25.3987559 20.5532538,24.7211073 20.0506749,23.9291978 C18.8836603,22.0931032 19.4935036,21.6693682 20.5758863,21.8527046 C21.9581154,22.0873697 21.5641725,21.9397996 21.842621,20.8071546 C21.9733409,20.275984 22.4088453,19.8532045 22.9210259,19.6910275 C23.2088017,19.5992911 23.4972633,19.5465972 23.4101624,19.0958326 C23.3831406,18.9541325 23.3126369,18.7571448 23.2406244,18.5765386 L29.367725,18.5765386 Z M35.8465487,1.5 C37.1699333,1.5 38.3731599,1.71418824 39.5478558,2.14420297 L39.5478558,5.07895086 L37.9468457,5.07895086 C37.9468457,5.07895086 37.8643748,4.66995343 37.7743796,4.22375211 L37.7066434,3.88793467 C37.6287043,3.50156428 37.5593497,3.15787326 37.5487878,3.10593424 C37.5293102,3.01064842 37.4356253,2.92710273 37.3206795,2.90266695 C37.0312578,2.84055374 36.7290794,2.81024792 36.3965873,2.81024792 C34.2229061,2.81024792 32.8181816,4.45699943 32.8181816,7.00528016 C32.8181816,9.5732187 34.2229061,11.2326659 36.3965873,11.2326659 C36.7521235,11.2326659 37.0728193,11.2108239 37.3238344,11.1704161 C37.4323333,11.152806 37.51189,11.0811369 37.532465,10.9836669 L37.9633057,8.90103065 L39.5478558,8.90103065 L39.5478558,11.9312009 C38.298404,12.3385545 37.0626689,12.5426408 35.7495718,12.5426408 C33.907697,12.5426408 32.3715667,12.0229373 31.3067414,11.0397736 C30.1840317,10.0325836 29.5393481,8.57353692 29.5393481,7.03695109 C29.5393481,5.12618422 30.5547934,3.38100713 32.255798,2.3691757 C33.2096555,1.80032772 34.4510144,1.5 35.8465487,1.5 Z M14.4178134,1.5 C15.7416095,1.5 16.9449732,1.71418824 18.1196691,2.14420297 L18.1196691,5.07895086 L16.5185218,5.07895086 C16.5185218,5.07895086 16.4361421,4.66995343 16.3462147,4.22375211 L16.2785233,3.88793467 C16.2006273,3.50156428 16.1312759,3.15787326 16.1206012,3.10593424 C16.1011235,3.01064842 16.0075758,2.92710273 15.8923557,2.90266695 C15.6029339,2.84055374 15.3007556,2.81024792 14.9685378,2.81024792 C12.7945823,2.81024792 11.3899949,4.45699943 11.3899949,7.00528016 C11.3899949,9.5732187 12.7945823,11.2326659 14.9685378,11.2326659 C15.3242111,11.2326659 15.6446326,11.2108239 15.8955105,11.1704161 C16.0038723,11.152806 16.0838405,11.0811369 16.1042783,10.9836669 L16.5349819,8.90103065 L18.1196691,8.90103065 L18.1196691,11.9312009 C16.8700802,12.3385545 15.6346194,12.5426408 14.3213851,12.5426408 C12.4797846,12.5426408 10.9433801,12.0229373 9.87855474,11.0397736 C8.75584505,10.0325836 8.11157292,8.57353692 8.11157292,7.03695109 C8.11157292,5.12618422 9.12701822,3.38100713 10.8278857,2.3691757 C11.7813316,1.80032772 13.0229649,1.5 14.4178134,1.5 Z M28.4355674,1.70326725 L28.4355674,4.4372051 L26.9466225,4.4372051 C26.9466225,4.4372051 26.6962933,3.09446716 26.6781873,2.99481298 C26.6641962,2.91727379 26.6038429,2.87263417 26.5127642,2.87263417 L23.5976968,2.87263417 L23.5976968,6.22524715 L25.33121,6.22524715 C25.4273638,6.22524715 25.4986905,6.1595846 25.5133674,6.05815573 C25.5318849,5.93092597 25.6827683,4.87977896 25.6827683,4.87977896 L26.946211,4.87977896 L26.946211,8.84997494 L25.6822196,8.84997494 C25.6822196,8.84997494 25.5324336,7.79882791 25.5133674,7.67159816 C25.4978675,7.56989628 25.4265409,7.50409719 25.33121,7.50409719 L23.5976968,7.50409719 L23.5976968,11.1538981 L27.0146572,11.1538981 C27.1398905,11.1538981 27.1745936,10.9874892 27.1800803,10.9543167 L27.4797896,9.16682068 L28.9369118,9.16682068 L28.9369118,12.3235381 L19.3156258,12.3235381 L19.3156258,11.2981919 C19.3156258,11.2981919 20.3268189,11.2411297 20.4575388,11.2326659 C20.549852,11.2261133 20.6593111,11.0977914 20.6593111,10.9958165 L20.6593111,2.96873905 C20.6593111,2.87154207 20.5552015,2.80014598 20.4578132,2.79454898 L19.3156258,2.72847688 L19.3156258,1.70326725 L28.4355674,1.70326725 Z" id="Combined-Shape" fill="#E8F176"></path>
        </g>
    </g>
</svg>