<?xml version="1.0" encoding="UTF-8"?>
<svg width="48px" height="48px" viewBox="0 0 48 48" version="1.1" xmlns="http://www.w3.org/2000/svg" xmlns:xlink="http://www.w3.org/1999/xlink">
    <title>ro-eximbank</title>
    <g id="Page-1" stroke="none" stroke-width="1" fill="none" fill-rule="evenodd">
        <g id="ro-eximbank" fill-rule="nonzero">
            <rect id="Rectangle" x="0" y="0" width="48" height="48"></rect>
            <path d="M28.913663,1.5 C32.1862269,1.5 35.3366504,3.34789663 36.8195932,6.4887899 L45.668128,25.2133459 C47.7166335,29.5476724 45.8500109,34.7701044 41.5153572,36.8171279 L22.7814226,45.66765 C21.5905546,46.2331701 20.3279955,46.5 19.0840229,46.5 C15.8141142,46.5 12.6650183,44.6547584 11.1794203,41.5138651 L2.33088552,22.7813441 C0.283707627,18.4496726 2.15165788,13.2285681 6.48232859,11.1802171 L25.2175909,2.33234999 C26.4111142,1.76815741 27.6723457,1.5 28.913663,1.5 Z M28.913663,4.81214231 C28.1210786,4.81214231 27.3510635,4.98737388 26.6314978,5.32721695 L7.90420119,14.1737566 C5.2091486,15.4468405 4.05147082,18.6753496 5.32465085,21.3688713 L9.227,29.631 L12.0582995,23.77804 L7.89623554,15.9656322 L12.7499855,15.9656322 L17.0899495,23.77804 L12.0582995,34.1751136 L11.374,34.175 L14.171858,40.0974099 C15.0600306,41.9771668 16.9877233,43.1878577 19.0840229,43.1878577 C19.8766073,43.1878577 20.6492776,43.0139536 21.3661881,42.6741106 L40.0974675,33.8235884 C41.3932169,33.2116054 42.3783052,32.1217181 42.8655388,30.7570358 C43.3567553,29.3936811 43.289047,27.9281078 42.6756903,26.6324562 L33.8284831,7.90126262 C32.938983,6.02548823 31.0112902,4.81214231 28.913663,4.81214231 Z M28.2193219,15.9656322 L32.5553031,23.77804 L27.5289636,34.1751136 L22.4999689,34.1751136 L27.5289636,23.77804 L23.3642444,15.9656322 L28.2193219,15.9656322 Z M20.8656783,15.9656322 L25.2029871,23.77804 L20.17532,34.1751136 L15.1423425,34.1751136 L20.17532,23.77804 L16.0106008,15.9656322 L20.8656783,15.9656322 Z" id="Combined-Shape" fill="#00BAB2"></path>
        </g>
    </g>
</svg>