<?xml version="1.0" encoding="UTF-8"?>
<svg width="48px" height="48px" viewBox="0 0 48 48" version="1.1" xmlns="http://www.w3.org/2000/svg" xmlns:xlink="http://www.w3.org/1999/xlink">
    <title>ro-firstbank</title>
    <g id="Page-1" stroke="none" stroke-width="1" fill="none" fill-rule="evenodd">
        <g id="ro-firstbank" fill-rule="nonzero">
            <rect id="Rectangle" x="0" y="0" width="48" height="48"></rect>
            <path d="M43.7634936,38.8501199 L40.8141452,34.2098321 L39.1629885,34.2098321 L39.1629885,38.8501199 L36.1837277,38.8501199 L36.1837277,27.0695444 L39.1629885,27.0695444 L39.1629885,31.4520384 L40.8141452,31.4520384 L43.5241955,27.08753 L46.6649828,27.0695444 L43.1413187,32.7589928 L47,38.8501199 L43.7634936,38.8501199 Z M32.4446956,9 C33.2942037,9 34.0719223,9.07793765 34.7838341,9.23381295 L34.3411327,11.6558753 C34.2454135,11.6378897 34.1437118,11.6199041 34.0420101,11.6079137 C33.5574315,11.5419664 33.0668705,11.5059952 32.5822919,11.5059952 C31.7626961,11.5059952 31.1823983,11.6019185 30.8413986,11.7877698 C30.5003988,11.9736211 30.3269077,12.2374101 30.3269077,12.5791367 C30.3269077,12.7589928 30.35682,12.9088729 30.4286094,13.0227818 C30.5003988,13.1426859 30.6260303,13.2446043 30.7995214,13.3345324 C30.9730125,13.4244604 31.2242755,13.5083933 31.5473278,13.5863309 L32.5045201,13.8141487 C33.7069928,14.0959232 34.5744483,14.5215827 35.1128689,15.0851319 C35.657272,15.6546763 35.9264823,16.3980815 35.9264823,17.3273381 C35.9264823,18.1007194 35.7350439,18.7721822 35.352167,19.3357314 C34.9692901,19.8992806 34.4129221,20.3369305 33.6890455,20.6366906 C32.9651688,20.942446 32.1096783,21.0923261 31.1106089,21.0923261 C29.9619782,21.0923261 28.8791545,20.9364508 27.8621377,20.618705 L29.2321191,18.41247 C29.2739963,18.4244604 29.3158735,18.4304556 29.3577506,18.4364508 C29.9978729,18.5383693 30.5781707,18.5863309 31.1165913,18.5863309 C31.7985908,18.5863309 32.2831694,18.4964029 32.570327,18.3165468 C32.8515023,18.1366906 32.9950811,17.8669065 32.9950811,17.5191847 C32.9950811,17.3273381 32.9532039,17.1654676 32.8694496,17.0395683 C32.7856953,16.9136691 32.6421164,16.7997602 32.4327307,16.7038369 C32.2233448,16.6139088 31.9302047,16.5179856 31.5473278,16.4280576 L30.5901356,16.2002398 C29.4893645,15.942446 28.6817336,15.528777 28.1612603,14.9652278 C27.6467695,14.3956834 27.3835416,13.6522782 27.3835416,12.7230216 C27.3835416,11.529976 27.8082957,10.6127098 28.6578038,9.96522782 C29.5073119,9.32374101 30.7696091,9 32.4446956,9 Z M21.3412656,9.10191847 C23.0522467,9.10191847 24.3324913,9.26978417 25.1879819,9.89928057 C26.0434725,10.5347722 26.4682265,11.5179856 26.4682265,12.8489209 C26.4682265,13.6642686 26.288753,14.3597122 25.9238234,14.9352518 C25.5588939,15.5107914 25.0324382,15.9484412 24.3504387,16.2661871 L27.4493486,20.882494 L24.2068599,20.882494 L20.431933,15.1450839 L20.431933,20.882494 L17.5065142,20.882494 L17.5065142,9.10191847 L21.3412656,9.10191847 Z M44.2899495,9.10191847 L44.2899495,11.6618705 L41.6397235,11.6618705 L41.6397235,15.8705036 L38.6544802,20.7326139 L38.6544802,11.6618705 L35.657272,11.6618705 L35.657272,9.10191847 L44.2899495,9.10191847 Z M21.8770274,11.3329073 L20.431933,11.3321343 L20.431933,14.5275779 L21.6523531,14.4916067 C22.3522999,14.4916067 22.8667907,14.3657074 23.2018081,14.1079137 C23.5368253,13.8501199 23.704334,13.4364508 23.704334,12.8609113 C23.704334,12.2853717 23.5368253,11.8717026 23.1958256,11.6079137 C22.8980324,11.3734346 22.458433,11.3379075 21.8770274,11.3329073 Z M10.2797129,11.6199041 L5.11087477,11.6199041 L5.11087477,13.9520383 L9.17295934,13.9520383 L9.17295934,16.4580336 L5.11087477,16.4580336 L5.11087477,20.882494 L2.13161393,20.882494 L2.13161393,9.10191847 L10.2797129,9.10191847 L10.2797129,11.6199041 Z M11.739431,9.10191847 L14.7186918,9.10191847 L13.114,11.667 L14.7186918,11.6678657 L14.7186918,20.8764988 L11.739431,20.8764988 L11.739431,9.10191847 Z M10.7104493,33.6702638 C11.0693964,34.1258993 11.2548524,34.7254196 11.2548524,35.4808153 C11.2548524,36.2422062 11.0693964,36.883693 10.692502,37.4052758 C10.3156076,37.9208633 9.69343261,38.3165467 8.8319596,38.5923261 C7.97048656,38.8681055 6.82783834,39 5.40401489,39 C4.91345387,39 4.35110343,38.9760192 3.71098112,38.9280575 C3.07085881,38.8800959 2.50252592,38.8201438 2,38.7422062 L2,27.3992806 C2.56833289,27.2553957 3.2084552,27.1414868 3.92036692,27.0515587 C4.6262962,26.9616307 5.29034831,26.9196642 5.92448817,26.9196642 C7.67136399,26.9196642 8.94562617,27.1954436 9.74727466,27.7529976 C10.5549056,28.3105516 10.9557299,29.1498801 10.9557299,30.264988 C10.9557299,30.8764988 10.8001861,31.4040767 10.4890986,31.853717 C10.1780112,32.3033573 9.75923955,32.6091127 9.23876627,32.7709832 C9.86094122,32.9208633 10.3515023,33.2206235 10.7104493,33.6702638 L10.7104493,33.6702638 Z M4.90148896,29.2997602 L4.90148896,31.6858513 L6.40906674,31.6858513 C7.03722415,31.6858513 7.49189045,31.5839328 7.76110078,31.3800959 C8.03629354,31.176259 8.16790749,30.8585132 8.16790749,30.4268585 C8.16790749,30.1270983 8.10808294,29.8872901 7.98843391,29.7014389 C7.86878488,29.5155875 7.67136399,29.3776978 7.39617124,29.2877698 C7.12097848,29.1978417 6.75604894,29.1498801 6.28941771,29.1498801 C5.82278649,29.1558753 5.36213773,29.2038369 4.90148896,29.2997602 L4.90148896,29.2997602 Z M7.61752194,36.6019184 C7.95852167,36.5 8.19781973,36.3501199 8.3354161,36.146283 C8.47301248,35.942446 8.54480192,35.6846523 8.54480192,35.3609113 C8.54480192,35.031175 8.48497741,34.7673861 8.35934592,34.5635491 C8.23371443,34.3597122 8.03629354,34.2158273 7.76110078,34.119904 C7.48590799,34.0239808 7.12097848,33.9760192 6.66631215,33.9760192 L4.91345387,33.9760192 L4.91345387,36.6918465 C5.28436586,36.7338129 5.72108482,36.7577938 6.2295932,36.7577938 C6.80989099,36.7577938 7.27652221,36.7038369 7.61752194,36.6019184 Z M20.0849508,38.8501199 L19.2294603,35.9724221 L15.0357618,35.9724221 L14.1862536,38.8501199 L11.2967296,38.8501199 L14.9819197,27.0755396 L19.319197,27.0755396 L23.0043871,38.8501199 L20.0849508,38.8501199 Z M15.7656208,33.5143885 L18.5115661,33.5143885 L17.1356022,28.8741007 L15.7656208,33.5143885 Z M31.4635735,27.0695444 L34.2693433,27.0695444 L34.2693433,38.8501199 L31.2900824,38.8501199 L26.5878756,31.6498801 L26.5878756,38.8501199 L23.7821058,38.8501199 L23.7821058,27.0695444 L26.7613667,27.0695444 L31.4635735,34.2697842 L31.4635735,27.0695444 Z" id="Combined-Shape" fill="#2B50A2"></path>
        </g>
    </g>
</svg>