<?xml version="1.0" encoding="UTF-8"?>
<svg width="48px" height="48px" viewBox="0 0 48 48" version="1.1" xmlns="http://www.w3.org/2000/svg" xmlns:xlink="http://www.w3.org/1999/xlink">
    <title>ro-ideabank</title>
    <g id="Page-1" stroke="none" stroke-width="1" fill="none" fill-rule="evenodd">
        <g id="ro-ideabank" fill-rule="nonzero">
            <rect id="Rectangle" x="0" y="0" width="48" height="48"></rect>
            <path d="M21.8112394,11.6544707 C21.8112394,17.2567788 17.2567788,21.8089414 11.6544707,21.8089414 C6.04756676,21.8089414 1.5,17.2613747 1.5,11.6544707 C1.5,6.04067305 6.04756676,1.5 11.6544707,1.5 C17.2567788,1.5 21.8112394,6.03837514 21.8112394,11.6544707 M46.5,11.6544707 C46.5,6.04067305 41.9524332,1.5 36.3478272,1.5 C30.7455191,1.5 26.2002502,6.04067305 26.2002502,11.6544707 C26.2002502,17.2567788 30.7455191,21.8089414 36.3478272,21.8089414 C41.9547311,21.8066435 46.5,17.2590767 46.5,11.6544707 M21.8112394,36.3501251 C21.8112394,30.7432212 17.2567788,26.2025481 11.6544707,26.2025481 C6.04756676,26.2025481 1.5,30.7432212 1.5,36.3501251 C1.5,41.957029 6.04756676,46.5045957 11.6544707,46.5045957 C17.2567788,46.5045957 21.8112394,41.959327 21.8112394,36.3501251 M46.5,36.3501251 C46.5,30.7432212 41.9524332,26.2025481 36.3478272,26.2025481 C30.7455191,26.2025481 26.2002502,30.7432212 26.2002502,36.3501251 C26.2002502,41.957029 30.7455191,46.5045957 36.3478272,46.5045957 C41.9547311,46.5045957 46.5,41.959327 46.5,36.3501251" id="Shape" fill="#009DE0"></path>
        </g>
    </g>
</svg>