<?xml version="1.0" encoding="UTF-8"?>
<svg width="48px" height="48px" viewBox="0 0 48 48" version="1.1" xmlns="http://www.w3.org/2000/svg" xmlns:xlink="http://www.w3.org/1999/xlink">
    <title>rovipexchange</title>
    <g id="Page-1" stroke="none" stroke-width="1" fill="none" fill-rule="evenodd">
        <g id="rovipexchange" fill-rule="nonzero">
            <rect id="Rectangle" x="0" y="0" width="48" height="48"></rect>
            <path d="M34.2205286,30.4729361 C34.5339963,30.7051461 34.6052389,31.1623237 34.3772624,31.481644 C32.0263546,34.7834321 28.2363451,36.75 24.239757,36.75 C20.2432187,36.75 16.4532093,34.7834321 14.1023015,31.481644 C13.874325,31.1550813 13.9455676,30.7051461 14.2590353,30.4729361 C14.5796023,30.2407261 15.0213068,30.3133012 15.2492333,30.6325711 C17.3366182,33.5570493 20.6920225,35.3058921 24.239757,35.3058921 C27.7875414,35.3058921 31.1429457,33.5570493 33.2302806,30.6325711 C33.4582571,30.3133012 33.9071108,30.2407261 34.2205286,30.4729361 Z M24.2400069,13.9930255 C29.6613483,13.9930255 34.0711439,18.484924 34.0711439,24.0072675 C34.0711439,29.5295609 29.6613483,34.0214694 24.2400069,34.0214694 C18.8186155,34.014227 14.4088199,29.5223185 14.4088199,23.9999748 C14.4088199,18.4776313 18.8186155,13.9930255 24.2400069,13.9930255 Z M24.2400069,15.4371033 C19.6022348,15.4371033 15.8336231,19.283149 15.8336231,23.9999748 C15.8336231,28.716851 19.6093841,32.5628766 24.2400069,32.5628766 C28.8705798,32.5628766 32.6463408,28.716851 32.6463408,23.9999748 C32.6463408,19.283149 28.8705798,15.4371033 24.2400069,15.4371033 Z M24.2399069,16.2208335 C24.6317166,16.2208335 24.9523335,16.547376 24.9523335,16.9465137 L24.9528579,17.6216437 C25.932541,17.8260212 26.7955012,18.4491852 27.3032913,19.3484817 C27.4956215,19.6967716 27.3816332,20.1394141 27.0396685,20.3353617 C26.6977537,20.5385518 26.2631485,20.4151792 26.0708183,20.0668893 C25.8162744,19.6167665 25.4160044,19.285423 24.9529801,19.1172906 L24.9523335,20.7417418 C24.9523335,21.1408795 24.6317166,21.4673918 24.2399069,21.4673918 C23.8480973,21.4601494 23.5275303,21.1335868 23.5275303,20.7344994 L23.5274402,19.1223553 C22.7209627,19.423122 22.1454727,20.2139508 22.1454727,21.1335868 C22.1454727,22.3091721 23.0929751,23.2743248 24.2470562,23.2743248 C26.1919058,23.2743248 27.7734429,24.8853102 27.7734429,26.8663629 C27.7734429,28.6014793 26.5602706,30.0526842 24.9523758,30.3863154 L24.9523335,31.0534863 C24.9523335,31.452624 24.6317166,31.7791363 24.2399069,31.7791363 C23.8480973,31.7791363 23.5275303,31.452624 23.5275303,31.0534863 L23.5269446,30.3835781 C22.5411946,30.1745915 21.6710353,29.5399754 21.1694733,28.6297408 C20.9771431,28.2814509 21.0982307,27.8387581 21.4401954,27.6428608 C21.7821602,27.4469131 22.2167154,27.5702857 22.4090956,27.9185755 C22.6583298,28.3726887 23.05917,28.7117896 23.5269689,28.8850582 L23.5275303,26.880898 C23.5275303,26.4817603 23.8480973,26.1551977 24.2399069,26.1551977 C24.6317166,26.1551977 24.9523335,26.4817603 24.9523335,26.880898 L24.9527969,28.8900123 C25.7665623,28.593185 26.3486397,27.7985646 26.3486397,26.8736556 C26.3486397,25.6980704 25.4011873,24.7329176 24.2470562,24.7329176 C22.3022066,24.7329176 20.7206696,23.1219323 20.7206696,21.1408795 C20.7206696,19.4107614 21.9268624,17.9629214 23.527851,17.623838 L23.5275303,16.9465137 C23.5275303,16.547376 23.8480973,16.2208335 24.2399069,16.2208335 Z M24.239757,11.25 C28.2363451,11.25 32.0263546,13.2165629 34.3772624,16.518356 C34.6052389,16.837626 34.5339963,17.2948036 34.2205286,17.5270136 C33.9071108,17.7592236 33.4582571,17.6866988 33.2302806,17.3673786 C31.1429457,14.4429406 27.7875414,12.6940778 24.239757,12.6940778 C20.6920225,12.6940778 17.3366182,14.4429406 15.2492333,17.3673786 C15.1138973,17.5633263 14.89307,17.6649213 14.6721928,17.6649213 C14.5297075,17.6649213 14.3801228,17.6213662 14.2590353,17.5270136 C13.9455676,17.2948036 13.874325,16.837626 14.1023015,16.518356 C16.4532093,13.2165629 20.2432187,11.25 24.239757,11.25 Z M44.4009795,21.772177 L46.2603378,23.4557373 C46.4811651,23.651685 46.5595571,23.9709549 46.4526682,24.2539624 C46.4270308,24.3207335 46.3922664,24.3828533 46.3502051,24.4384678 C46.2847807,24.5238492 46.206691,24.5914422 46.1173717,24.640198 L44.3724827,26.2205303 C44.2370965,26.3439029 44.0661141,26.4019429 43.9022809,26.4019429 L43.8951816,26.4091853 C43.7028017,26.4091853 43.503322,26.3293678 43.3679861,26.1697328 C43.1044134,25.8721902 43.1329102,25.4150628 43.4249803,25.1465401 L43.887,24.725 L37.0488871,24.7256752 C36.6570775,24.7256752 36.3365106,24.3991126 36.3365106,23.9999748 C36.3365106,23.6008874 36.6570775,23.2743248 37.0488871,23.2743248 L43.917,23.274 L43.4534771,22.8534096 C43.1614075,22.5849372 43.1329102,22.135002 43.396483,21.8302169 C43.6600558,21.5327245 44.1017602,21.5037045 44.4009795,21.772177 Z M42.997524,16.4022259 L44.8569326,18.0857863 L44.8672577,18.0950569 C44.8794331,18.1067415 44.8912078,18.118855 44.9025579,18.1313731 L44.8569326,18.0857863 C45.0777599,18.2817339 45.1561016,18.6010038 45.0492626,18.8840114 C44.9851695,19.050939 44.864032,19.1887964 44.7144475,19.2686139 L42.9690272,20.8505793 C42.8336909,20.9739519 42.6627085,21.0319918 42.4988758,21.0319918 L42.4917265,21.0392845 C42.2993961,21.0392845 42.0999167,20.959467 41.9645806,20.7997818 C41.7009578,20.5022894 41.7294548,20.0451118 42.0215748,19.7765891 L42.491,19.348 L35.6454818,19.3484817 C35.2536721,19.3484817 34.9330551,19.0219191 34.9330551,18.6227814 C34.9330551,18.223694 35.2536721,17.8971313 35.6454818,17.8971313 L42.506,17.897 L42.0500718,17.4835088 C41.7579519,17.2149861 41.7294548,16.7651012 41.9930777,16.4603161 C42.2566505,16.155521 42.698355,16.1337485 42.997524,16.4022259 Z M42.9690272,27.142128 L44.7198601,28.7330176 C44.941088,28.8565249 45.0919582,29.0961617 45.0919582,29.3699259 C45.0919582,29.5802558 45.0029269,29.7704186 44.8613625,29.9032628 L42.997524,31.5904814 C42.8621882,31.713854 42.6912058,31.7718939 42.5273726,31.7718939 L42.5202234,31.7791866 C42.3278932,31.7791866 42.1284138,31.6993188 41.9930777,31.5396839 C41.7294548,31.2421915 41.7579519,30.7850139 42.0500718,30.5164912 L42.513,30.095 L35.6454818,30.095576 C35.2536721,30.095576 34.9330551,29.7690636 34.9330551,29.3699259 C34.9330551,28.9708385 35.2536721,28.6442759 35.6454818,28.6442759 L42.483,28.644 L42.0215748,28.2234109 C41.7294548,27.9548882 41.7009578,27.5050033 41.9645806,27.2002182 C42.2281535,26.9026756 42.6698578,26.8736556 42.9690272,27.142128 Z M4.5988407,21.8375096 C4.86242855,22.135002 4.83393648,22.5921796 4.54185158,22.8607023 L4.085,23.274 L10.9464767,23.2743248 C11.3382863,23.2743248 11.6588533,23.6008874 11.6588533,23.9999748 C11.6588533,24.3991126 11.3382863,24.7256752 10.9464767,24.7256752 L4.1,24.725 L4.57034364,25.1537826 C4.86242855,25.4223053 4.89092561,25.8721902 4.62733777,26.1769753 C4.48485745,26.3366605 4.29250727,26.416478 4.10016209,26.416478 C3.9291847,26.4091853 3.76533158,26.3511453 3.62997553,26.2277728 L1.87207442,24.6369319 C1.65085363,24.5134212 1.5,24.2737736 1.5,23.9999748 C1.5,23.7945622 1.58492913,23.608363 1.72078776,23.476017 C1.72562736,23.4717021 1.73026913,23.4673161 1.73498229,23.4629797 L3.5943542,21.7794697 C3.88643911,21.510947 4.33525286,21.5399669 4.5988407,21.8375096 Z M6.00958533,16.4675585 C6.2731732,16.7651012 6.24467613,17.2222788 5.95259124,17.4907512 L5.504,17.897 L12.3498821,17.8971313 C12.7416917,17.8971313 13.0623086,18.223694 13.0623086,18.6227814 C13.0623086,19.0219191 12.7416917,19.3484817 12.3498821,19.3484817 L5.503,19.348 L5.98108826,19.7838818 C6.2731732,20.0523542 6.30167027,20.5022894 6.0380824,20.8070745 C5.89560209,20.9667094 5.70325192,21.0465269 5.51090173,21.0465269 C5.33280008,21.0392845 5.16894696,20.9811943 5.03359091,20.857872 L3.27526999,19.2596127 C3.05417196,19.1360652 2.90342039,18.8964872 2.90342039,18.6227814 C2.90342039,18.363818 3.03840361,18.1353917 3.24024442,18.0069104 L5.00509884,16.4095186 C5.29718375,16.141011 5.7459975,16.170036 6.00958533,16.4675585 Z M6.03080316,27.2074607 C6.29439598,27.504953 6.26589895,27.9621307 5.97381401,28.2306534 L5.518,28.644 L12.3498821,28.6442759 C12.7416917,28.6442759 13.0623086,28.9708385 13.0623086,29.3699259 C13.0623086,29.7690636 12.7416917,30.095576 12.3498821,30.095576 L5.474,30.095 L5.94531699,30.5237336 C6.23740188,30.7922563 6.26589895,31.2421412 6.00231108,31.5469263 C5.85982578,31.7065613 5.6674806,31.786429 5.47513041,31.786429 C5.29702876,31.7791363 5.13317565,31.7210964 4.99781959,31.5977238 L3.13845118,29.9141634 C2.91760393,29.7109734 2.83924201,29.3989459 2.946101,29.1159383 C2.9781577,29.0324997 3.02446417,28.9563034 3.08145705,28.8909896 C3.11351063,28.8542687 3.1492118,28.8205231 3.18796633,28.7907034 C3.19535097,28.7855014 3.20227541,28.7804301 3.20928374,28.7754934 C3.22433466,28.7641713 3.24044847,28.7536165 3.25698322,28.7437213 L3.2809315,28.7313358 L5.02631666,27.1493704 C5.31840156,26.880898 5.76721533,26.909918 6.03080316,27.2074607 Z" id="Combined-Shape" fill="#3AAF98"></path>
        </g>
    </g>
</svg>