<?xml version="1.0" encoding="UTF-8"?>
<svg width="48px" height="48px" viewBox="0 0 48 48" version="1.1" xmlns="http://www.w3.org/2000/svg" xmlns:xlink="http://www.w3.org/1999/xlink">
    <title>rucb</title>
    <g id="Page-1" stroke="none" stroke-width="1" fill="none" fill-rule="evenodd">
        <g id="rucb">
            <rect id="Rectangle" x="0" y="0" width="48" height="48"></rect>
            <path d="M22.9330736,42.4971724 C22.7238275,42.88822 22.4541056,43.1529295 22.0477087,43.2335458 C21.6437826,43.3085924 21.2264969,43.2607913 20.850289,43.0963786 C20.4788381,42.9485505 20.1764002,42.6678571 20.0024191,42.3094695 C19.8209918,41.9436887 19.8814676,41.5670797 20.0108857,41.1279025 C19.5609461,41.7656116 18.8013709,41.9316563 18.1325091,41.6236312 C17.2156969,41.200096 16.8818708,40.4312356 17.2580299,39.5540848 C18.3901358,36.8973648 19.5161941,34.2887738 20.653138,31.6356634 C20.7559469,31.3950185 20.8430319,31.145951 20.9567262,30.9065094 C21.0583255,30.6935385 21.1224298,30.5371193 21.2179815,30.4083744 C21.2902913,30.3117634 21.3811452,30.2303793 21.4852844,30.1689327 C19.7266497,30.3602454 18.8811988,31.0448802 18.4155356,31.3480928 C18.2921651,31.429912 18.2994221,31.4419442 17.8240829,31.2951508 C17.6132959,31.2343061 17.3868995,31.2585138 17.1939256,31.3625315 C16.9784692,31.4759369 16.7722269,31.6058776 16.577073,31.7511729 C15.9469157,32.2372757 15.3034539,32.7065334 14.707163,33.2311393 C14.4289746,33.4765971 14.0298347,33.8941161 14.0842629,34.2719285 C14.1278055,34.6220669 14.9926086,35.4330404 15.2514447,35.6748885 C15.8646688,36.2476235 14.9369709,37.3257127 13.7008467,37.2234385 C14.0298347,36.8817229 14.1072437,36.5917457 14.0649106,36.3342556 C13.9427496,36.3330524 13.7068942,36.3559137 13.4843435,36.1585848 C13.2182503,35.9215497 13.3367826,35.2212728 13.0900416,34.9830345 C12.6546163,34.5643122 11.2310174,34.5258091 10.3807284,34.4897123 C10.022712,34.4752736 9.64897186,34.3802189 9.67558123,33.8303452 C9.13492813,33.8664419 9.02244316,34.263506 9.02244316,34.6220669 C8.55677997,34.3621705 8.15884959,33.1156297 9.87636076,32.832872 C9.58607716,32.5717722 9.10469019,32.4767175 8.80835911,32.8088076 C8.5289612,32.3515823 9.2353178,31.4527733 10.506518,31.9593308 C10.5028894,31.9557213 11.0786185,31.2121284 12.7973391,33.1144266 C13.0138423,32.9531945 13.2291359,32.7943688 13.4262868,32.6138851 C14.09152,32.0158825 15.7679076,30.3963421 15.7679076,30.3963421 C15.7679076,29.485501 15.9057923,27.7215737 17.1237737,26.6639393 C17.6426556,26.2127301 18.1397662,25.9732883 19.2380056,25.7771627 C19.2380056,25.7771627 18.7070286,24.9553603 18.6235721,24.6316928 C17.6656364,25.5774275 15.7412982,25.8601852 15.7412982,24.2647092 C14.1725575,25.8132594 12.7150921,24.9782215 12.7150921,24.0060161 C12.6607651,24.4987187 12.5483124,24.9833448 12.3800564,25.4498857 C12.1829056,25.972085 11.4644537,27.9730477 9.61026748,27.9730477 C9.56793436,28.6685115 9.56430594,30.9558416 7.34847463,31.4684152 C7.25292301,31.4900733 7.13076196,31.5225603 7.07028624,31.5947538 C6.17524524,32.6945011 2.45477761,33.8495968 2,33.5379616 C2.28786451,33.3334134 2.74385167,33.0626879 2.81642254,31.7716279 C2.8623841,30.9197448 2.95672619,26.4990975 2.95672619,20.27241 C2.95672619,18.0681025 3.19741972,10.9281676 10.346862,9.93310073 C11.4317968,9.78269764 12.4985889,9.8609072 13.4226583,10.5383227 C14.6805537,11.467212 15.2998253,13.0289977 14.5596022,14.7989411 C14.535412,14.862712 14.5172692,14.9252797 14.4834027,14.9818313 C14.2318237,15.4029599 14.3346325,15.7663337 14.662411,16.088798 C15.2587019,16.6747684 15.9541729,17.0706293 16.7911572,17.1668872 C17.3185056,17.2270484 17.75635,16.9972326 18.1058998,16.6386716 C18.9078082,15.8228853 19.4520899,14.8639153 19.6492408,13.7376971 C20.0217713,11.5983636 19.4436232,10.5250872 19.4109663,10.4577067 C18.8291897,9.30501742 17.594275,8.46035381 16.1622094,8.34003131 C15.5066523,7.12958735 13.6246472,7.60847073 13.6246472,7.60847073 C13.1529365,7.70954163 12.9872329,7.84189629 12.8699099,8.07171225 C12.8699099,8.07171225 12.0438113,6.8299844 12.8215294,6.33184942 C13.6016664,5.83251117 15.3421583,5.62675975 15.3421583,5.62675975 C15.3421583,4.8181928 16.696815,4.18890628 19.1436635,4.62086392 C22.1033464,5.14306349 22.7395512,4 22.7395512,4 C22.8641312,5.39814712 21.7804058,6.12008185 21.4332752,6.31500426 C22.5569145,7.51822887 24.1256552,9.92227167 24.4993953,13.3334135 C24.8743449,9.92227167 26.4430857,7.51822887 27.5655154,6.31500426 C27.2183847,6.12008185 26.1358689,5.39814712 26.2592395,4 C26.2592395,4 26.8954442,5.14306349 29.855127,4.62086392 C32.3031851,4.18890628 33.6578417,4.8181928 33.6578417,5.62675975 C33.6578417,5.62675975 35.3983336,5.83130793 36.1772612,6.33184942 C36.9561888,6.8299844 36.1288806,8.07171225 36.1288806,8.07171225 C36.0115577,7.84189629 35.8458542,7.71074477 35.3741433,7.60847073 C35.3741433,7.60847073 33.4921382,7.12958735 32.8365812,8.34003131 C31.4045156,8.46035381 30.1708104,9.30501742 29.5890338,10.4577067 C29.5563769,10.5250872 29.0120952,11.5887378 29.3495499,13.7376971 C29.5273486,14.8663216 30.0909825,15.8228853 30.8941004,16.6386716 C31.2436502,16.9972326 31.680285,17.2258452 32.208843,17.1668872 C33.0446177,17.0706293 33.7412983,16.6735651 34.3375892,16.088798 C34.6641581,15.7663337 34.7669669,15.4029599 34.5165973,14.9818313 C34.4815214,14.9252797 34.4633787,14.862712 34.4403979,14.7989411 C33.6989653,13.0302008 34.3194464,11.4660089 35.5773419,10.5395259 C36.5002017,9.8621104 37.5682033,9.78149436 38.6519285,9.93310073 C45.8025807,10.9281676 46.042064,18.0681025 46.042064,20.27241 C46.042064,26.4990975 46.1376163,30.9197448 46.1823684,31.7716279 C46.2549391,33.0626879 46.710926,33.3334134 47,33.5379616 C46.5440135,33.8508 42.8235451,32.6945011 41.9285041,31.5947538 C41.8680286,31.5225603 41.7470773,31.4900733 41.6515254,31.4684152 C39.4356942,30.9558416 39.4320657,28.6685115 39.3897328,27.9730477 C37.5355464,27.9730477 36.815885,25.972085 36.6187341,25.4498857 C36.4504675,24.9833479 36.3380145,24.4987206 36.2836985,24.0060161 C36.2836985,24.9782215 34.8274426,25.8132594 33.2587019,24.2647092 C33.2587019,25.8601852 31.3331542,25.5774275 30.376428,24.6316928 C30.2917619,24.9553603 29.7595755,25.7771627 29.7595755,25.7771627 C30.860234,25.9732883 31.356135,26.2127301 31.8762264,26.6639393 C33.0929984,27.7227769 33.230883,29.485501 33.230883,30.3963421 C33.230883,30.3963421 34.9084801,32.0158825 35.5737133,32.6138851 C35.7696547,32.7943688 35.9849484,32.9531945 36.202661,33.1144266 C37.9201721,31.2121284 38.4959011,31.9557213 38.4922726,31.9593308 C39.7634728,31.4527733 40.4698295,32.3527854 40.191641,32.8076043 C39.89531,32.4767175 39.4127135,32.5717722 39.1224298,32.8316688 C40.839941,33.1156297 40.4420105,34.3621705 39.9775569,34.6220669 C39.9775569,34.263506 39.8638625,33.8664419 39.324419,33.8303452 C39.3510283,34.3802189 38.9760785,34.4752736 38.6180623,34.4897123 C37.7677732,34.5258091 36.3441743,34.5643122 35.9087489,34.9830345 C35.6620079,35.2212728 35.7817498,35.9215497 35.5144471,36.1585848 C35.2931058,36.3559137 35.0572505,36.3330524 34.9338799,36.3342556 C34.8927565,36.5917457 34.9701654,36.8817229 35.2991535,37.2246418 C34.0618197,37.3257127 33.1341218,36.2476235 33.7485554,35.6748885 C34.0049725,35.4342437 34.8709853,34.6220669 34.9145277,34.2719285 C34.9701654,33.8941161 34.569816,33.4765971 34.2916275,33.2311393 C33.6953368,32.7065334 33.0530844,32.2372757 32.4217176,31.7511729 C32.2265636,31.6058776 32.0203214,31.4759369 31.8048651,31.3625315 C31.6122268,31.2588372 31.3863319,31.2346365 31.1759173,31.2951508 C30.700578,31.4419442 30.7078351,31.429912 30.5832551,31.349296 C30.1175918,31.0448802 29.2733504,30.3602454 27.5135064,30.1701358 C27.6332483,30.2423293 27.7142858,30.3193357 27.7808091,30.4083744 C27.8775704,30.5371193 27.9416746,30.6935385 28.0420643,30.9065094 C28.1557587,31.1471543 28.2440533,31.3950185 28.3468621,31.6356634 C29.483806,34.2887738 30.6086548,36.8973648 31.7407608,39.5528815 C32.1181294,40.4312356 31.7830937,41.2012997 30.867491,41.6224276 C30.1974198,41.9316563 29.4378444,41.7668145 28.9891145,41.1291062 C29.1185325,41.5670797 29.1790083,41.9436887 28.9963715,42.3094695 C28.8229709,42.6678477 28.5209004,42.9485997 28.1497111,43.0963786 C27.7735032,43.2607913 27.3562176,43.3085924 26.9522914,43.2335462 C26.5446849,43.1529295 26.2749631,42.88822 26.065717,42.4971724 C26.0306411,43.3646975 25.454912,44 24.4993953,44 C23.5438786,43.9987964 22.9681495,43.3646975 22.9330736,42.4971724 Z" id="Path" fill="#666666" fill-rule="nonzero"></path>
        </g>
    </g>
</svg>