<?xml version="1.0" encoding="UTF-8"?>
<svg width="48px" height="48px" viewBox="0 0 48 48" version="1.1" xmlns="http://www.w3.org/2000/svg" xmlns:xlink="http://www.w3.org/1999/xlink">
    <title>rwbn</title>
    <g id="Page-1" stroke="none" stroke-width="1" fill="none" fill-rule="evenodd">
        <g id="rwbn">
            <rect id="Rectangle" x="0" y="0" width="48" height="48"></rect>
            <path d="M1.60913086,18.4321289 L9.64958599,18.4321289 C10.9896618,18.4321289 12.0184229,18.7639873 12.7358692,19.4277041 C13.4533154,20.0914209 13.8120386,20.9131656 13.8120386,21.892938 C13.8120386,22.7146826 13.5560335,23.4194867 13.0440234,24.0073502 C12.7026833,24.3992591 12.2033154,24.7089936 11.5459197,24.9365537 C12.5446555,25.176756 13.2794849,25.5892086 13.7504077,26.1739114 C14.2213306,26.7586144 14.4567921,27.4934437 14.4567921,28.3783995 C14.4567921,29.0990063 14.2892826,29.7469203 13.9542636,30.3221415 C13.6192446,30.8973628 13.160964,31.3524829 12.5794216,31.6875018 C12.2191182,31.8960985 11.6755025,32.0478052 10.9485746,32.1426219 C9.98144438,32.2690442 9.33985148,32.3322553 9.02379585,32.3322553 L1.60913086,32.3322553 L1.60913086,18.4321289 Z M5.94225349,23.8840884 L7.81014225,23.8840884 C8.48018018,23.8840884 8.94636221,23.7687282 9.2086884,23.5380075 C9.47101455,23.3072869 9.60217763,22.9738482 9.60217763,22.5376915 C9.60217763,22.1331403 9.47101455,21.8170847 9.2086884,21.5895246 C8.94636221,21.3619646 8.48966183,21.2481845 7.83858724,21.2481845 L5.94225349,21.2481845 L5.94225349,23.8840884 Z M5.94225349,29.3455297 L8.13251899,29.3455297 C8.87208915,29.3455297 9.39358091,29.2143666 9.69699431,28.9520404 C10.0004077,28.6897142 10.1521144,28.3373122 10.1521144,27.8948343 C10.1521144,27.483962 10.001988,27.1536839 9.70173518,26.904 C9.40148231,26.654316 8.87524969,26.529474 8.1230373,26.529474 L5.94225349,26.529474 L5.94225349,29.3455297 Z M16.7323926,18.4321289 L20.7431385,18.4321289 L25.9770196,26.1217623 L25.9770196,18.4321289 L30.0256922,18.4321289 L30.0256922,32.3322553 L25.9770196,32.3322553 L20.7715835,24.699512 L20.7715835,32.3322553 L16.7323926,32.3322553 L16.7323926,18.4321289 Z M32.9365645,32.3322553 L32.9365645,18.4321289 L40.0952243,18.4321289 C41.4226579,18.4321289 42.4371968,18.545909 43.1388401,18.773469 C43.8404835,19.0010291 44.4062231,19.4229633 44.8360586,20.0392718 C45.2658945,20.6555802 45.4808123,21.4062123 45.4808123,22.2911681 C45.4808123,23.0623438 45.3164633,23.7276409 44.9877656,24.2870594 C44.6590676,24.8464778 44.2071083,25.3000176 43.6318868,25.6476788 C43.2652624,25.8689178 42.7627339,26.0522301 42.1243016,26.1976156 C42.6363116,26.3682857 43.0092574,26.5389557 43.2431385,26.7096258 C43.4011661,26.8234058 43.6303065,27.0667686 43.9305593,27.4397142 C44.2308124,27.8126599 44.4315075,28.1002705 44.5326454,28.3025461 L46.609131,32.3322553 L41.7545164,32.3322553 L39.4599525,28.0844677 C39.1691813,27.5345309 38.9100158,27.1773881 38.6824556,27.0130392 C38.3727214,26.7981213 38.0218995,26.6906624 37.6299904,26.6906624 L37.2507238,26.6906624 L37.2507238,32.3322553 L32.9365645,32.3322553 Z M37.2507238,24.0642402 L39.0617224,24.0642402 C39.2576771,24.0642402 39.6369439,24.001029 40.1995226,23.8746068 C40.4839729,23.8177168 40.7162737,23.6723312 40.8964253,23.43845 C41.0765771,23.2045689 41.1666529,22.9359216 41.1666529,22.6325082 C41.1666529,22.1837092 41.0244281,21.8392086 40.7399779,21.5990063 C40.455528,21.358804 39.9213938,21.2387029 39.1375759,21.2387029 L37.2507238,21.2387029 L37.2507238,24.0642402 Z" id="Combined-Shape" fill="#74ACDF" fill-rule="nonzero"></path>
        </g>
    </g>
</svg>