<?xml version="1.0" encoding="UTF-8"?>
<svg width="48px" height="48px" viewBox="0 0 48 48" version="1.1" xmlns="http://www.w3.org/2000/svg" xmlns:xlink="http://www.w3.org/1999/xlink">
    <title>sc-cbs</title>
    <g id="Page-1" stroke="none" stroke-width="1" fill="none" fill-rule="evenodd">
        <g id="sc-cbs">
            <rect id="Rectangle" x="0" y="0" width="48" height="48"></rect>
            <path d="M1.7529339,28.0319278 C1.65993556,27.1965706 1.57856202,26.4772351 1.50881326,25.8043084 C1.93893058,25.6186735 2.29929914,25.3634254 2.67129249,25.3286189 C3.20603294,25.270608 3.83377172,25.212597 4.29876342,25.4214363 C5.46124265,25.9435346 6.51909875,25.8623194 7.63507881,25.3402211 C8.11169529,25.1081774 8.03032175,24.7601118 7.9489482,24.4236485 C7.92569861,24.3540354 7.50720609,24.2728201 7.33283421,24.3540354 C6.24010373,24.8181228 5.2287468,24.6672944 4.13601632,24.2264114 C3.64777505,24.0291742 2.97353709,24.2264114 2.39229748,24.2960245 C2.11330246,24.330831 1.85755703,24.4816594 1.57856202,24.5860791 C1.0089472,19.4811179 3.48502796,11.0347277 10.704024,5.79054037 C18.7483802,-0.0569605622 29.6640602,0.18668531 37.3480479,5.82534692 C44.6484175,11.1739539 46.9966255,19.6319463 46.4153859,24.5744769 C46.1131413,24.4816594 45.8341463,24.3656376 45.5435265,24.3192288 C45.0901596,24.2496157 44.5786687,24.075583 44.1950506,24.2148092 C42.8465747,24.7137031 41.5329732,25.0153599 40.2193716,24.1916048 C39.8357535,24.8645315 39.9287518,25.0965752 40.5099914,25.3750276 C41.5445979,25.8623194 42.5675797,25.9203303 43.6254358,25.4214363 C44.5205448,25.0037577 45.404029,25.2241992 46.2526388,25.6418779 C46.3688868,25.6998888 46.4735099,25.9203303 46.4618851,26.0479543 C46.4153859,26.6744723 46.3223876,27.3009902 46.241014,27.9739169 C46.0782669,27.9623147 45.962019,27.9739169 45.8573959,27.9391104 C45.1599084,27.730271 44.4856704,27.7418732 43.8230572,28.04353 C42.8930739,28.4612087 41.9630905,28.4612087 41.0214823,28.04353 C40.254246,27.7070667 39.4986345,27.7650776 38.7081486,28.0319278 C38.1617834,28.2175628 37.5572942,28.2871759 36.9644298,28.2987781 C36.6040612,28.3103803 36.4878133,28.3915956 36.4296893,28.7164567 C36.3715654,29.0413179 36.3831902,29.3545769 36.7784331,29.366179 C37.289924,29.3777812 37.8595388,29.4009856 38.3129057,29.2153506 C39.3823866,28.7628655 40.3937435,28.7396611 41.4515996,29.2269528 C42.1142128,29.5286096 42.8000755,29.4822009 43.4859383,29.2037485 C44.2764241,28.8788873 45.1017844,28.6468436 46.020143,29.0761244 C45.8341463,29.7258468 45.6481496,30.3871713 45.4389034,31.0484958 C45.404029,31.1413133 45.2180323,31.2689373 45.1482836,31.2457329 C44.4624208,31.0368936 43.8463068,31.315346 43.2418176,31.5473897 C42.4629565,31.8374443 41.6840955,31.9070574 40.928484,31.5473897 C39.9636262,31.0949045 39.0336428,31.1181089 38.0804098,31.5589919 C37.4410463,31.8490465 36.7668083,31.8838531 36.1041952,31.6170028 C35.778701,31.4893788 35.6508283,31.6402072 35.5578299,31.9302618 C35.4648316,32.2087142 35.3950828,32.4291557 35.7438266,32.5915863 C36.5343125,32.951254 37.3131736,32.9860606 38.0920346,32.6147907 C39.022018,32.1739077 39.9636262,32.1507033 40.8936096,32.6031885 C41.7538442,33.0324693 42.5675797,32.8584365 43.4161895,32.5335754 C43.8695564,32.3595426 44.3694225,32.3131339 44.846039,32.2087142 C44.9041629,32.2783273 44.9622869,32.3479404 45.0204108,32.4059513 C44.5437944,33.3341261 44.1369266,34.331914 43.5324374,35.1672712 C43.3115664,35.468928 42.4978309,35.6429608 42.1142128,35.4805302 C40.6029898,34.8656144 39.1731403,34.8308079 37.6967917,35.5153368 C37.4526711,35.6197564 37.0923025,35.5153368 36.8016827,35.4341215 C36.336691,35.3064974 35.8949489,35.1092603 35.4299572,34.9700341 C35.1858366,34.900421 34.8487176,34.7379904 34.7905936,35.1672712 C34.7440945,35.5153368 34.6045969,35.9794241 35.2439605,36.0142307 C35.4880812,36.0258329 35.7322018,36.1302525 35.9530729,36.2462744 C36.8598067,36.6987596 37.7665405,36.6987596 38.684899,36.2694787 C39.4870097,35.8982088 40.2774956,35.9214132 41.1028558,36.2578766 C41.5794723,36.4551137 42.0909632,36.5479312 42.6722028,36.7219639 C42.2188359,37.3020732 41.7887186,37.8937846 41.3121021,38.4390872 C41.2307286,38.5319047 40.9982327,38.5203025 40.8354856,38.5435069 C40.3472443,38.6015178 39.8125039,38.5667113 39.3707618,38.740744 C38.4175288,39.1120139 37.510795,39.2164336 36.5691868,38.7639484 C36.4878133,38.7291418 36.3831902,38.7291418 36.3018166,38.7175397 C36.0460712,39.4252729 36.1274447,39.6457144 36.7319339,39.9241668 C37.4410463,40.249028 38.1385338,40.2722324 38.8708957,39.9705756 C39.2661387,39.808145 39.696256,39.7037253 40.1147485,39.5644991 C40.1496229,39.62251 40.196122,39.6921231 40.2309964,39.7501341 C39.4405105,40.4462651 38.6267751,41.1075896 37.8711636,41.8269251 C37.1504265,42.4998518 36.4180645,42.7434976 35.4880812,42.2330015 C34.8022184,41.8617316 34.0698565,41.9197425 33.3607442,42.2562059 C32.4075112,42.7086911 31.4775278,42.7202933 30.5242948,42.2330015 C29.7803081,41.8617316 28.9898223,41.8617316 28.2342108,42.2330015 C27.3507265,42.6622823 26.4672423,42.7550998 25.5605085,42.3026146 C24.6886491,41.8733338 23.8051649,41.884936 22.9333055,42.3142168 C22.0498213,42.7434976 21.1779618,42.6738845 20.3177272,42.2446037 C19.5388661,41.8617316 18.7483802,41.8617316 17.9695192,42.2330015 C17.0976597,42.6506802 16.2374251,42.7550998 15.3539409,42.3142168 C14.4355823,41.8501294 13.5055989,41.9429469 12.6221147,42.3606256 C11.7967545,42.7550998 11.1341413,42.6042714 10.4715281,41.9893557 C9.62291829,41.2120093 8.71618449,40.4926739 7.84432507,39.7501341 C7.87919945,39.680521 7.91407382,39.6109079 7.96057299,39.5412947 C8.36744072,39.6689188 8.78593324,39.7733384 9.16955139,39.935769 C9.86703893,40.2374258 10.5529017,40.2374258 11.2503892,39.9241668 C11.9130024,39.62251 11.9711263,39.5180904 11.7735049,38.7523462 C11.2387644,38.8451637 10.6923992,38.9959921 10.1576587,39.0191964 C9.78566538,39.0424008 9.40204724,38.8799702 9.03005388,38.8219593 C8.41393989,38.7175397 7.78620111,38.6363244 7.17008711,38.5319047 C7.00734002,38.5087003 6.80971855,38.4738938 6.71672022,38.3694741 C6.26335332,37.8241715 5.833236,37.2556644 5.40311869,36.7103618 C6.08898143,36.4899203 6.69347063,36.2114678 7.33283421,36.1302525 C7.93732341,36.0490372 8.63481094,36.0026285 9.19280098,36.2114678 C10.2622819,36.6291465 11.2503892,36.6871574 12.2733709,36.1650591 C12.4593676,36.0722416 12.6802387,35.9910263 12.8778601,35.9910263 C13.4126006,35.9794241 13.4009758,35.6313586 13.3661014,35.2716909 C13.3079774,34.7960013 12.9476089,34.8308079 12.6686139,34.9700341 C11.3085132,35.6661652 9.98328685,35.5733477 8.61156136,34.9700341 C8.29769197,34.8308079 7.82107548,34.9700341 7.43745734,35.0512494 C6.65859625,35.21368 5.93785913,35.782187 5.08924929,35.4341215 C4.79862949,35.3180996 4.46151051,35.0976581 4.31038821,34.8308079 C3.85702131,34.0302572 3.48502796,33.1948999 3.07816022,32.3711448 C3.12465939,32.3131339 3.15953377,32.255123 3.20603294,32.197112 C3.64777505,32.2783273 4.12439153,32.2783273 4.51963447,32.4523601 C5.49611702,32.8932431 6.4377252,32.9280496 7.42583255,32.4755645 C8.18144405,32.1274989 8.97192992,32.1507033 9.72754142,32.4871666 C10.5529017,32.8468344 11.3782619,32.9860606 12.2501214,32.5799841 C12.5872403,32.4175535 12.6569891,32.255123 12.5291164,31.9070574 C12.4012437,31.5589919 12.2384966,31.44297 11.8897528,31.5937984 C11.2155148,31.8722509 10.5529017,31.7678312 9.9135381,31.4893788 C9.0068043,31.0949045 8.13494488,31.0368936 7.22821108,31.4777766 C6.32147728,31.9186596 5.43799306,31.7214225 4.53125926,31.4081635 C4.05464278,31.2457329 3.51990233,31.2805395 3.02003626,31.1761198 C2.85728917,31.1413133 2.64804291,31.002087 2.58991895,30.8628608 C2.43879665,30.4915909 2.3574231,30.0855145 2.24117518,29.7026424 C2.02030413,28.925296 2.0551785,28.8208764 2.88053876,28.797672 C3.36878003,28.7860698 3.89189569,28.8788873 4.34526259,29.0645222 C5.20549722,29.42419 6.01923268,29.4705987 6.86784252,29.0761244 C7.76295152,28.6584458 8.64643574,28.7396611 9.56479433,29.0877266 C10.0646604,29.2733616 10.6575248,29.2965659 11.20389,29.3197703 C11.599133,29.3313725 11.7037561,29.0413179 11.6340074,28.670048 C11.5642586,28.3219824 11.4363859,28.2407672 11.0527677,28.2523693 C10.5064025,28.2639715 9.93678768,28.1827562 9.42529682,27.9971213 C8.57668698,27.6838623 7.77457631,27.6490558 6.94921606,28.0087235 C6.19360456,28.3335846 5.41474348,28.4496065 4.63588239,28.1131431 C3.68264942,27.7766798 2.78754042,27.6258514 1.7529339,28.0319278 Z M18.5507588,17.033057 C18.4926348,16.7894112 18.48101,16.5573675 18.3763869,16.3949369 C17.9695192,15.8032255 17.5742762,15.2115141 17.0976597,14.6778136 C16.9232879,14.4805765 16.5629193,14.3297481 16.2955491,14.3413503 C15.3888153,14.3645546 14.4820815,14.4457699 13.5869725,14.5501896 C13.1801047,14.5965983 12.7848618,14.7590289 12.215247,14.9098573 C12.1803726,14.8634486 12.0873743,14.6778136 11.936252,14.5269852 C11.7618801,14.3645546 11.541009,14.2253284 11.3317628,14.0977044 C11.1690157,14.0048869 10.9713942,13.9700804 10.8202719,13.8656607 C10.2157827,13.4479821 9.62291829,13.0187012 9.01842909,12.6010226 C8.69293491,12.3805811 8.33256634,12.1949461 7.99544737,11.997709 C7.96057299,12.0441178 7.93732341,12.1021287 7.90244903,12.1485374 C9.19280098,13.3667668 10.4134042,14.6546092 11.9246272,15.6756015 C11.7967545,15.838032 11.6805065,16.0352692 11.5293842,16.1976998 C10.5064025,17.3115095 9.80891497,18.5993519 9.27417452,20.0032162 C8.59993657,21.8015548 8.51856302,23.6579043 8.61156136,25.5374582 C8.62318615,25.6766844 8.72780928,25.8043084 8.79755804,25.9435346 C8.94868034,25.8739215 9.14630181,25.839115 9.22767535,25.7230931 C9.59966871,25.2358014 10.0065364,24.7485097 10.2855315,24.203207 C11.0992669,22.6021055 12.1338734,21.1750369 13.3428518,19.86399 C13.668346,19.5043223 13.9589658,19.109848 14.3077096,18.7849869 C14.7029525,18.413717 15.2841921,18.4833301 15.4934384,18.8662022 C15.6445607,19.1214502 15.8654318,19.3418917 16.0281788,19.5391289 C15.6329359,20.2932709 15.1679442,21.0938216 14.7727013,21.9291788 C14.3890831,22.7645361 14.563455,22.9733754 15.4701888,22.8689558 C15.5631872,22.8573536 15.6561855,22.8341492 15.7608086,22.8109449 C17.0744102,22.5905034 18.3880117,22.381664 19.7016132,22.1496204 C20.271228,22.0452007 20.8524677,21.9523832 21.2012114,21.3954784 C21.4918312,20.931391 21.7940758,20.490508 22.0846956,20.0264206 C22.2939419,19.7015594 22.2706923,19.3999027 22.0498213,19.0634393 C21.6197039,18.413717 21.0733387,18.1584689 20.2828528,18.2976951 C19.2714959,18.4717279 18.2368894,18.5529432 17.2139077,18.668965 C17.1906581,18.6109541 17.1674085,18.5529432 17.1441589,18.4833301 C17.3185308,18.3441039 17.4929027,18.0888558 17.6788994,18.0772536 C18.6088827,17.9960383 19.5504909,18.0076405 20.4804743,17.9264252 C20.7478445,17.9032209 21.0617139,17.6943815 21.2360858,17.4855422 C21.5848296,17.0794658 21.8870742,16.6153784 22.1428196,16.151291 C22.2474427,15.9656561 22.2823171,15.6175905 22.177694,15.4783643 C21.8057006,14.956266 20.7943437,14.9098573 20.3061024,15.3623425 C19.7248628,15.9192473 19.155248,16.46455 18.5507588,17.033057 Z M39.1963899,26.094363 C39.2777634,25.7695019 39.3475122,25.5954691 39.3475122,25.4098342 C39.359137,24.6208856 39.4056362,23.8319371 39.3475122,23.0545907 C39.2080147,21.2330478 38.6500247,19.5159245 37.7084165,17.9844362 C37.0458033,16.905433 36.1855687,15.9424517 35.3718332,14.9678682 C35.1974614,14.7590289 34.8487176,14.6314049 34.5580978,14.5849961 C33.872235,14.4689743 33.1747475,14.4341677 32.4888847,14.3297481 C31.6286501,14.202124 30.9311626,14.3993612 30.4777957,15.2115141 C30.3034238,15.5247731 30.0709279,15.8264299 29.8384321,16.1048823 C29.5245627,16.4993566 29.338566,16.8938308 29.7919329,17.346316 C29.1293198,16.7894112 28.4667066,16.2673129 27.9319662,15.6407949 C27.3507265,14.9678682 26.7927365,14.9330617 26.0487498,15.3159337 C25.6535069,15.5247731 25.5721333,15.7220102 25.8046292,16.0816779 C26.1301234,16.5573675 26.4439927,17.0446592 26.7927365,17.5087466 C26.9089844,17.6711772 27.1066059,17.8452099 27.2809778,17.8684143 C28.2109612,18.0076405 29.1641941,18.1700711 30.0941775,18.1584689 C30.5475444,18.1584689 30.7335411,18.2976951 30.9892865,18.7153738 C29.7221842,18.5761476 28.5364554,18.4949323 27.3623513,18.2976951 C26.595115,18.1700711 26.2928704,18.6457607 25.9208771,19.1214502 C25.5953829,19.5391289 25.7930044,19.8755922 26.0255002,20.2236577 C26.2347465,20.5485189 26.4672423,20.8617779 26.653239,21.1982412 C26.9438588,21.7203395 27.3739761,21.9755876 27.943591,22.0684051 C28.9898223,22.2424378 30.0360536,22.4512771 31.0822849,22.6253099 C31.6518997,22.7181274 32.2215145,22.8341492 32.8027541,22.8689558 C33.3607442,22.9037623 33.4769921,22.7181274 33.2909954,22.2192335 C33.1514979,21.8363614 32.9887508,21.4650915 32.7911293,21.1054238 C32.47726,20.5485189 32.1168914,20.0032162 31.8378964,19.5391289 C32.0471426,19.3534939 32.2912633,19.2374721 32.3842616,19.0518371 C32.7097558,18.4021148 33.3258698,18.2744908 33.8141111,18.8662022 C35.0347143,20.3280774 36.4413141,21.6507264 37.2782992,23.4142584 C37.6037934,24.0871851 38.0571603,24.7021009 38.4756528,25.3286189 C38.6616495,25.5838669 38.9057701,25.7811041 39.1963899,26.094363 Z M21.0268395,13.2275406 C21.0268395,13.4943908 20.9687156,13.7844454 21.0384643,14.0280913 C21.1198379,14.2949415 21.2477106,14.6314049 21.4685816,14.7474267 C23.1541765,15.6872036 24.863021,15.6756015 26.5369911,14.7358245 C26.7346126,14.6314049 26.9089844,14.3413503 26.932234,14.1093066 C26.9787332,13.5524017 26.9671084,12.9954969 26.932234,12.438592 C26.7578621,10.0833486 26.1766225,7.83252482 24.8397714,5.84855129 C24.1539087,4.82755906 23.8167897,4.82755906 23.1309269,5.87175566 C21.6662031,8.09937506 21.1082131,10.5938447 21.0268395,13.2275406 Z M34.0233573,25.9087281 C33.9652334,25.4446407 33.8838598,24.7253053 33.7676119,24.0059699 C33.7094879,23.6347 33.5118665,23.4374628 33.0817492,23.3562475 C31.5821509,23.0777951 30.0941775,22.7529339 28.6178289,22.4048684 C27.7575943,22.1960291 26.9787332,22.2076313 26.5486159,22.9849776 C26.432368,23.2054191 26.2463713,23.3910541 26.0836242,23.576689 C25.7465052,23.9479589 25.75813,24.3076266 25.9906258,24.7369075 C26.7462373,26.1175674 27.6413464,27.3009902 29.3850652,27.4518186 C29.5129379,27.4634208 29.6408106,27.5330339 29.7686833,27.5678405 C30.8614138,27.8927016 31.9425195,28.229165 33.0468748,28.5192196 C33.6164896,28.670048 33.872235,28.4612087 33.9187342,27.9275082 C33.9419838,27.3357968 33.9768582,26.7672897 34.0233573,25.9087281 Z M13.9008419,26.0363521 C13.947341,26.0363521 14.005465,26.0479543 14.0519642,26.0479543 C14.0519642,26.6860744 14.0403394,27.3241946 14.0519642,27.9507125 C14.0635889,28.4031977 14.342584,28.6004349 14.7843261,28.5656283 C14.958698,28.5540261 15.121445,28.5076174 15.2958169,28.4496065 C16.7372912,28.0203257 18.1903902,27.6142492 19.6086149,27.1385596 C20.0619818,26.9877312 20.5502231,26.7440854 20.8640924,26.3960198 C21.3290841,25.8739215 21.7010775,25.2358014 22.0265717,24.6092834 C22.1428196,24.3772398 22.0730708,24.0059699 21.9916973,23.7275174 C21.9219485,23.5070759 21.6662031,23.3446453 21.5499552,23.1242038 C21.1314627,22.3352553 20.4804743,22.2308356 19.6899884,22.4048684 C18.0625175,22.7529339 16.4350466,23.0545907 14.8192004,23.4142584 C14.6099542,23.4606672 14.3193344,23.7043131 14.2728352,23.9015502 C14.0984633,24.5860791 14.0170898,25.3170167 13.9008419,26.0363521 Z M27.4669745,27.289388 C27.3158522,27.3241946 27.0833563,27.3125924 27.0019828,27.4170121 C26.6183646,27.8694973 26.2696209,28.3451868 25.9441267,28.8440807 C25.8627531,28.9717048 25.9208771,29.238555 26.0022506,29.3893834 C26.5486159,30.43358 27.1066059,31.4661744 28.3039595,31.941864 C29.1409446,32.2783273 29.9663048,32.6728016 30.7800403,33.0672759 C31.2217824,33.2877174 31.4891526,33.1484911 31.7797724,32.8120278 C32.5702583,31.8606487 33.0817492,30.7700434 33.3839938,29.5750184 C33.4886169,29.1457375 33.372369,28.925296 32.9422516,28.8092742 C31.7913972,28.4960152 30.6405428,28.1595519 29.4896883,27.8230885 C28.8387,27.6606579 28.164462,27.4866252 27.4669745,27.289388 Z M20.7013454,27.3009902 C20.4572247,27.3357968 20.329352,27.3357968 20.2247289,27.3590011 C18.4461356,27.8694973 16.6675424,28.3915956 14.8889492,28.9020917 C14.5285806,29.0065113 14.4937063,29.2037485 14.5750798,29.5054053 C14.900574,30.7120324 15.3771905,31.8374443 16.1909259,32.8004256 C16.5047953,33.1716955 16.8186647,33.3225239 17.2836564,33.0556737 C17.7951473,32.7772212 18.3182629,32.5335754 18.8646282,32.3363382 C20.1549801,31.8722509 21.1314627,31.0717001 21.782451,29.8418686 C22.1428196,29.1689419 22.1544444,28.8092742 21.6778279,28.2059606 C21.5267056,28.0087235 21.3872081,27.788282 21.2128362,27.6258514 C21.0384643,27.4634208 20.8059685,27.3706033 20.7013454,27.3009902 Z M27.0949811,37.2092557 C27.0136076,37.0468251 26.9787332,36.9308033 26.9089844,36.849588 C26.0719994,35.9910263 25.2350144,35.1440669 24.3980293,34.2971074 C24.1190343,34.018655 23.8284145,34.0998703 23.5842938,34.3435161 C22.7821832,35.1208625 21.9916973,35.909811 21.2012114,36.7103618 C20.8640924,37.0584273 20.8989668,37.3832885 21.3290841,37.6501387 C22.11957,38.1374304 22.8984311,38.6479265 23.7005418,39.1004117 C23.8632889,39.1932292 24.1655335,39.181627 24.3282806,39.0888096 C25.1536408,38.6247222 25.9441267,38.1142261 26.7462373,37.60373 C26.8741101,37.5109125 26.9787332,37.3368797 27.0949811,37.2092557 Z M12.3896189,40.9335569 C13.2963527,40.7711263 14.0519642,40.5854913 14.8192004,40.5274804 C15.7724334,40.4462651 16.353673,40.063393 16.469921,39.0656052 C16.5047953,38.7639484 16.690792,38.485496 16.7256664,38.1838392 C16.7605408,37.9633977 16.7372912,37.6733431 16.6094185,37.4993103 C16.2606747,37.0120185 15.8654318,36.5595334 15.4353144,36.1418547 C15.3074417,36.0142307 14.9703227,35.967822 14.8075757,36.0490372 C14.2495856,36.3158875 13.72647,36.6523508 13.2033543,36.977212 C13.052232,37.0700295 12.9011097,37.2440622 12.8662353,37.418095 C12.6221147,38.4506894 12.4012437,39.4832838 12.215247,40.5274804 C12.1919974,40.6435023 12.3314949,40.8059328 12.3896189,40.9335569 Z M22.8519319,33.9142353 C22.7589336,33.7169982 22.6891848,33.5081589 22.5613121,33.3457283 C22.2009436,32.9164475 21.8057006,32.510371 21.4453321,32.0926924 C21.1430875,31.7330247 20.7943437,31.6866159 20.4223503,31.9186596 C19.4574926,32.5219732 18.4926348,33.136889 17.5394018,33.7518047 C17.248782,33.9374397 17.2022829,34.1230746 17.4929027,34.3899249 C18.2136398,35.028045 18.9111273,35.7009717 19.6318645,36.350694 C20.1433553,36.8147814 20.387476,36.8263836 20.8524677,36.3390919 C21.4337073,35.7241761 22.0033221,35.0860559 22.5613121,34.4479358 C22.67756,34.2971074 22.7473088,34.1114725 22.8519319,33.9142353 Z M35.8600745,40.9567612 C35.5927043,39.6573166 35.3602084,38.5087003 35.1160878,37.3600841 C35.0928382,37.2324601 34.9649655,37.0816317 34.8370928,37.0120185 C34.3139771,36.6755552 33.7792367,36.3738984 33.256121,36.0490372 C32.9655012,35.8634023 32.7213806,35.8866067 32.5005095,36.1650591 C32.1168914,36.6291465 31.7100237,37.0700295 31.3496551,37.545719 C31.245032,37.6849452 31.1985328,37.9401933 31.245032,38.1142261 C31.3961543,38.6711309 31.6170253,39.2048314 31.7681476,39.7617362 C31.8727708,40.1678127 32.1285162,40.3186411 32.5005095,40.3882542 C33.2212467,40.5158782 33.9419838,40.6435023 34.6627209,40.7711263 C35.0114647,40.817535 35.3602084,40.875546 35.8600745,40.9567612 Z M25.1536408,33.8678266 C25.2233896,34.0418593 25.2466391,34.2274943 25.3512623,34.3435161 C25.9906258,35.0628516 26.653239,35.7705848 27.3158522,36.4667159 C27.5948472,36.7567705 27.885467,36.7451683 28.1877116,36.4783181 C28.9549479,35.782187 29.733809,35.0744538 30.5010453,34.3783227 C30.7335411,34.1694834 30.7800403,33.9606441 30.4894205,33.7634069 C29.4780635,33.1252868 28.4783314,32.4639623 27.4437249,31.8606487 C27.2577282,31.756229 26.8392357,31.8142399 26.6764886,31.9650683 C26.1998721,32.4059513 25.7813796,32.9164475 25.3512623,33.4153414 C25.2466391,33.5545676 25.2233896,33.7169982 25.1536408,33.8678266 Z M24.0492855,24.4932616 C22.5496873,24.5744769 22.8170576,24.4932616 22.0730708,25.6650822 C21.9219485,25.8971259 21.7243271,26.1059652 21.6545783,26.3496111 C21.5848296,26.5816548 21.5499552,26.9065159 21.6662031,27.0921509 C22.5845617,28.6584458 22.8635567,28.7860698 24.6770243,28.7048545 C24.7002739,28.7048545 24.7118987,28.7048545 24.7351483,28.7048545 C25.2582639,28.670048 26.5137415,27.161764 26.4556175,26.6396657 C26.4556175,26.6164613 26.4556175,26.593257 26.4439927,26.5816548 C26.0719994,25.9783412 25.7697548,25.3054145 25.2931383,24.7949184 C25.0373929,24.5280682 24.4794029,24.5744769 24.0492855,24.4932616 Z M23.9911616,24.1567983 C24.4212789,24.0407764 24.9327698,24.0407764 25.2582639,23.7855284 C25.6535069,23.4838716 25.9208771,22.9849776 26.1882473,22.5440946 C26.2928704,22.3700619 26.3277448,22.0916094 26.2812457,21.8827701 C25.9906258,20.7109495 24.863021,19.8871944 23.6656674,19.9220009 C22.9914294,19.9452053 21.5964544,21.5231024 21.6545783,22.1844269 C21.6545783,22.2424378 21.6778279,22.3004487 21.7010775,22.3468575 C22.0381965,23.4142584 22.8984311,24.0523786 23.9911616,24.1567983 Z M24.1655335,29.2849637 C23.7819153,29.2849637 23.5494195,29.2849637 23.3169236,29.2849637 C22.7008096,29.2849637 21.5150808,30.7004302 21.6197039,31.315346 C21.6429535,31.44297 21.7127023,31.5705941 21.7940758,31.6634115 C22.177694,32.1042946 22.5496873,32.5451776 22.9565551,32.951254 C23.5959186,33.6125785 24.4561533,33.577772 25.0838921,32.8932431 C25.3512623,32.6147907 25.5953829,32.3247361 25.8511283,32.0346814 C26.5137415,31.2805395 26.4788671,31.2921416 25.9906258,30.4103756 C25.5605085,29.6214271 25.0722673,28.9717048 24.1655335,29.2849637 Z M24.0376607,19.3650961 C24.9327698,19.608742 25.5023846,19.167859 25.9325019,18.3905126 C26.3277448,17.6711772 25.5023846,15.7684189 24.6886491,15.6059884 C23.4447963,15.3623425 22.9565551,15.582784 22.3055667,16.6617871 C22.2358179,16.777809 22.1660692,16.8938308 22.0846956,17.0098527 C21.7475767,17.5435532 21.8173254,18.0192427 22.1311948,18.5645454 C22.5961865,19.3534939 23.2239253,19.5043223 24.0376607,19.3650961 Z M24.0027864,40.6551044 C24.1655335,40.9799656 24.3166558,41.2236115 24.4096541,41.4904617 C24.5607764,41.9197425 24.7932722,41.9777535 25.142016,41.7341076 C25.2582639,41.6528923 25.3745119,41.5948814 25.4907598,41.5252683 C26.4904919,40.8871481 26.4904919,40.8871481 25.8627531,39.9125646 C25.4675102,39.2860467 25.4093862,39.239638 24.8513962,39.6921231 C24.246907,40.1794149 23.7237914,40.249028 23.1541765,39.680521 C23.1309269,39.6573166 23.0844278,39.6341122 23.0611782,39.6109079 C22.7240592,39.3324554 22.4915634,39.3440576 22.2358179,39.7501341 C21.4104577,41.0611809 21.3639585,40.8059328 22.6310609,41.6064836 C23.3052988,42.0241622 23.3052988,42.01256 23.6656674,41.2816224 C23.7586657,41.0959875 23.8632889,40.9219547 24.0027864,40.6551044 Z M31.8495212,33.5545676 C31.6867741,33.6821916 31.5821509,33.7518047 31.4891526,33.8446222 C31.2334072,34.1346768 30.966037,34.4131292 30.7451659,34.7263882 C30.5824188,34.9584319 30.3150486,35.341304 30.3964221,35.468928 C30.6754171,35.9214132 31.0706601,36.2926831 31.4426534,36.6755552 C31.465903,36.6987596 31.6635245,36.6291465 31.7332732,36.5479312 C32.2215145,35.9794241 32.698131,35.3993149 33.1747475,34.8192057 C33.2328715,34.7495926 33.256121,34.5407533 33.2096219,34.5175489 C32.7678798,34.1810856 32.3028881,33.8794288 31.8495212,33.5545676 Z M16.1676764,33.577772 C15.8073078,33.7982135 15.458564,34.0418593 15.0865707,34.2390965 C14.6448286,34.4711402 14.6797029,34.7263882 14.958698,35.0512494 C15.3655657,35.5153368 15.7491838,36.0026285 16.1444268,36.4667159 C16.2141755,36.5479312 16.353673,36.6987596 16.3885474,36.6871574 C16.5745441,36.5943399 16.7954151,36.4899203 16.9116631,36.3274897 C17.1790333,35.9562198 17.6672746,35.4341215 17.5626514,35.1904756 C17.3301556,34.6335708 16.7954151,34.2042899 16.3769226,33.7169982 C16.3420482,33.6589873 16.2606747,33.6357829 16.1676764,33.577772 Z M19.9573586,37.5225147 C19.8876099,37.3716863 19.8643603,37.290471 19.8178611,37.2440622 C19.3877438,36.8379858 19.0041257,36.3158875 18.4926348,36.0606394 C17.9462696,35.782187 17.7602729,36.5131246 17.3999043,36.7799749 C17.2371572,36.9075989 17.1906581,37.1976535 17.0976597,37.418095 C17.0860349,37.4412994 17.1674085,37.5109125 17.2022829,37.545719 C17.6324002,37.9285911 18.0625175,38.3114632 18.5042596,38.6827331 C18.5972579,38.7523462 18.818129,38.8335615 18.8530034,38.7871528 C19.2366215,38.3810763 19.5969901,37.9401933 19.9573586,37.5225147 Z M31.0009113,37.1628469 C30.570794,36.7683727 30.1523015,36.3855006 29.733809,36.0026285 C29.1874437,36.5015224 28.6410785,37.0004164 28.0947133,37.4993103 C28.4202074,37.9285911 28.7340768,38.3578719 29.0828206,38.7755506 C29.1293198,38.8219593 29.3501908,38.7871528 29.4315644,38.7175397 C29.8965561,38.3230654 30.3615478,37.8937846 30.8149147,37.4761059 C30.8730386,37.418095 30.907913,37.3252775 31.0009113,37.1628469 Z M11.2271396,8.25020346 C11.1922653,8.27340783 11.1573909,8.2966122 11.1341413,8.31981656 C11.20389,8.45904278 11.2736388,8.60987117 11.3550123,8.7374952 C12.1919974,9.96732675 13.0406072,11.1855561 13.8775923,12.4153877 C14.2379608,12.9258838 14.6099542,13.4363799 14.9703227,13.946876 C15.2609426,14.3645546 15.5864367,14.0861022 15.9003061,14.0164891 C15.853807,13.8076498 15.8654318,13.5407995 15.7491838,13.4015733 C14.342584,11.7540631 12.9243593,10.1181551 11.5061346,8.49384933 C11.4247611,8.40103185 11.320138,8.33141875 11.2271396,8.25020346 Z M16.3187987,7.78611608 C16.2606747,7.82092264 16.1909259,7.844127 16.132802,7.87893356 C17.2255325,10.4546185 18.3066381,13.0419056 19.4109934,15.6291927 C20.2363537,15.1186966 20.2944776,14.6198027 19.6899884,14.0628978 C19.5737405,13.9584782 19.492367,13.8308541 19.4226182,13.6916279 C18.6786315,12.2761614 17.9578944,10.8490928 17.2139077,9.43362627 C16.9232879,8.8883236 16.6210433,8.34302093 16.3187987,7.78611608 Z M31.8495212,7.90213793 C31.7797724,7.87893356 31.7100237,7.844127 31.6518997,7.82092264 C31.3496551,8.37782749 31.0590353,8.93473234 30.7567907,9.49163719 C29.8965561,11.0927386 29.0479462,12.6938401 28.1877116,14.2833393 C27.8040934,15.0026748 27.8505926,15.2463206 28.5829545,15.6291927 C29.675685,13.0535078 30.7567907,10.4778229 31.8495212,7.90213793 Z M14.4588319,34.0998703 C14.8889492,33.7750091 15.3423161,33.4733523 15.7026847,33.0904802 C15.795683,32.9976628 15.6096863,32.5683819 15.4701888,32.3479404 C14.7378269,31.1297111 14.5402054,31.0833023 13.5055989,31.8490465 C13.389351,31.9302618 13.2847279,32.197112 13.3428518,32.3015317 C13.5869725,32.8468344 13.8892171,33.3573305 14.1798369,33.8794288 C14.2147112,33.9606441 14.3193344,34.0070528 14.4588319,34.0998703 Z M33.5351161,34.1114725 C33.6629888,34.018655 33.7676119,33.9722462 33.8024863,33.9026331 C34.0931061,33.3805348 34.3953507,32.8700387 34.6394713,32.3247361 C34.6859705,32.2087142 34.5929722,31.941864 34.4767242,31.8606487 C33.5002417,31.1065067 33.2444962,31.1645176 32.6167575,32.1855098 C32.5818831,32.2319186 32.5353839,32.2783273 32.5237591,32.3247361 C32.4423856,32.5799841 32.2098897,32.9628562 32.3028881,33.0672759 C32.6516318,33.4733523 33.1166235,33.7750091 33.5351161,34.1114725 Z M31.8843955,13.7960476 C32.5005095,14.260135 32.8143789,14.2253284 33.1631227,13.7032301 C34.2791028,12.0557199 35.441582,10.4314141 36.5691868,8.80710831 C36.6505604,8.69108646 36.7086844,8.54025807 36.7784331,8.41263404 C36.7319339,8.38942967 36.6854348,8.35462312 36.6389356,8.33141875 C35.0695886,10.1413595 33.4886169,11.9513003 31.8843955,13.7960476 Z M34.7557192,28.6004349 C34.0466069,28.3799934 34.0233573,29.0181135 33.8606102,29.4938031 C33.4188681,30.7352368 33.4304929,30.7236346 34.6278465,31.1645176 C34.9300911,31.2805395 35.104463,31.2341307 35.1858366,30.9092696 C35.3020845,30.4103756 35.4532068,29.9114817 35.5462051,29.4009856 C35.662453,28.6584458 35.5927043,28.6120371 34.7557192,28.6004349 Z M13.1801047,28.6004349 C12.8778601,28.6584458 12.3431197,28.4380043 12.4244932,29.0645222 C12.5058668,29.7142446 12.6686139,30.3407625 12.8429858,30.9788827 C12.8662353,31.0833023 13.1568551,31.2109264 13.2731031,31.1761198 C14.4704567,30.874463 14.563455,30.6772259 14.1333377,29.5170074 C14.0984633,29.42419 14.0519642,29.3429747 14.0403394,29.238555 C13.9822154,28.7396611 13.7380948,28.4728108 13.1801047,28.6004349 Z M21.00359,40.5390826 C21.1547123,40.3534477 21.3058346,40.2026193 21.4220825,40.0401887 C22.11957,38.9843899 22.11957,38.9843899 21.1314627,38.2418501 C20.5269735,37.7893649 20.5269735,37.7893649 20.0619818,38.4042807 C20.0038578,38.485496 19.9457339,38.5551091 19.8992347,38.6363244 C19.3877438,39.3788642 19.3877438,39.3788642 20.1201057,39.9125646 C20.3758512,40.121404 20.666471,40.3186411 21.00359,40.5390826 Z M26.990358,40.504276 C27.1647299,40.3998564 27.3158522,40.3186411 27.4553497,40.2258236 C28.8619495,39.2048314 28.6875777,39.5528969 27.7924687,38.2302479 C27.5367232,37.858978 27.3391018,37.858978 27.0136076,38.1258283 C25.6767565,39.1700248 25.8046292,38.7871528 26.6997382,40.2374258 C26.7578621,40.3418455 26.8857349,40.4114586 26.990358,40.504276 Z M5.15899805,15.710408 C5.13574846,15.7684189 5.11249888,15.8264299 5.08924929,15.896043 C6.56559792,16.6617871 8.04194654,17.4391335 9.52991995,18.1700711 C9.62291829,18.2164798 9.93678768,17.9380274 10.0762852,17.7523925 C10.1227844,17.6827794 9.98328685,17.346316 9.86703893,17.2999073 C8.82080762,16.9170352 7.76295152,16.5573675 6.71672022,16.2093019 C6.19360456,16.0352692 5.67048891,15.8728386 5.15899805,15.710408 Z M37.8595388,17.4043269 C38.1036594,18.2512864 38.2082826,18.3092973 38.8476461,17.972834 C39.8241287,17.4623379 40.812236,16.9750461 41.7887186,16.4761522 C42.1607119,16.2905172 42.5210805,16.0816779 42.8814491,15.896043 C42.8581995,15.838032 42.8233251,15.7684189 42.8000755,15.710408 C41.149355,16.2673129 39.4986345,16.8358199 37.8595388,17.4043269 Z M35.662453,27.4634208 C35.6043291,26.9529247 35.5927043,26.5468482 35.4880812,26.1871805 C35.441582,26.0363521 35.1858366,25.8623194 34.9998399,25.8507172 C34.8138432,25.8275128 34.4999738,25.9203303 34.4302251,26.0479543 C34.267478,26.3612133 34.15123,26.7324832 34.1279805,27.0805487 C34.1163557,27.3590011 34.1861044,27.788282 34.3721011,27.9043038 C34.6510961,28.0783366 35.0812134,28.0899388 35.4183324,28.0319278 C35.5462051,28.0087235 35.6159539,27.5910448 35.662453,27.4634208 Z M13.6567212,27.9275082 C13.6567212,27.4286142 13.6567212,26.9645269 13.6567212,26.5120417 C13.6567212,26.152374 13.668346,25.8275128 13.1336056,25.8159106 C12.6337395,25.8043084 12.4128684,25.966739 12.4244932,26.4656329 C12.436118,26.6164613 12.4128684,26.7788919 12.4012437,26.9297203 C12.2733709,28.1595519 12.3896189,28.2639715 13.6567212,27.9275082 Z M40.1031237,12.1485374 C40.0798741,12.1021287 40.0449997,12.0673221 40.0217502,12.0209134 C39.917127,12.0557199 39.8125039,12.0789243 39.7195056,12.1369352 C38.5686511,12.9142816 37.4177967,13.6916279 36.278567,14.4805765 C36.0344464,14.6546092 35.7670762,14.8750507 36.0809456,15.2347185 C36.394815,15.6059884 36.6505604,15.3391381 36.8714314,15.1535032 C37.2085504,14.8750507 37.4991702,14.5269852 37.8246644,14.2253284 C38.5686511,13.5407995 39.3358874,12.8446685 40.1031237,12.1485374 Z M33.4304929,21.2910587 C33.372369,21.3258653 33.3258698,21.3606718 33.2677458,21.3954784 C33.372369,21.6739308 33.5002417,21.9523832 33.5816152,22.2424378 C33.8257359,23.1474082 34.0349821,24.0639808 34.3023523,24.9689512 C34.3488515,25.1429839 34.546473,25.3402211 34.7208449,25.398232 C34.8370928,25.4446407 35.1858366,25.2822101 35.1742118,25.212597 C35.1509622,24.7601118 35.1393374,24.2844223 34.9765903,23.8667436 C34.7905936,23.3910541 34.4650994,22.9733754 34.1977292,22.5324924 C33.9536086,22.1148138 33.6862384,21.6971352 33.4304929,21.2910587 Z M20.5850974,10.6170491 C20.6432214,10.6286513 20.7013454,10.6402534 20.7594693,10.6518556 C21.00359,10.2457792 21.2593354,9.81649835 21.1314627,9.30600224 C20.8175933,8.05296632 20.4920991,6.81153259 20.1549801,5.57009886 C20.1433553,5.51208794 20.0619818,5.47728139 19.8759851,5.30324862 C20.1317305,7.18280249 20.3526016,8.89992578 20.5850974,10.6170491 Z M14.7378269,21.3374674 C14.6913277,21.3142631 14.6448286,21.3026609 14.5983294,21.2794565 C13.7729691,22.381664 13.1568551,23.5998934 12.8081114,24.9457468 C12.773237,25.0617686 13.0289824,25.3750276 13.1568551,25.3750276 C13.331227,25.3750276 13.6334716,25.212597 13.6799708,25.0501664 C13.947341,24.1335939 14.1449625,23.1938169 14.3890831,22.2656422 C14.4704567,21.9523832 14.621579,21.6507264 14.7378269,21.3374674 Z M28.0830885,5.47728139 C28.0017149,5.46567921 27.9203414,5.45407702 27.8389678,5.44247484 C27.5018488,6.77672604 27.1298555,8.09937506 26.8624853,9.44522845 C26.7927365,9.81649835 27.0601067,10.2573814 27.1763547,10.67506 C27.2577282,10.6634578 27.327477,10.6402534 27.4088505,10.6286513 C27.6297216,8.91152797 27.8622174,7.19440468 28.0830885,5.47728139 Z M3.88027089,20.5137124 C4.05464278,20.6645408 4.10114195,20.7341539 4.15926591,20.745756 C5.35661952,21.0822194 6.56559792,21.4302849 7.77457631,21.7203395 C8.43718948,21.8827701 8.47206385,21.8015548 8.41393989,21.0474128 C8.03032175,20.9545954 7.63507881,20.8153691 7.22821108,20.7573582 C6.92596648,20.7109495 6.62372188,20.7805626 6.32147728,20.7573582 C5.55424099,20.6993473 4.79862949,20.618132 3.88027089,20.5137124 Z M44.1369266,20.5137124 C43.276692,20.5949276 42.602454,20.6529386 41.9165913,20.7341539 C41.2307286,20.8153691 40.5448658,20.9429932 39.8590031,21.0242085 C39.5451337,21.059015 39.4405105,21.24465 39.5451337,21.4882958 C39.6032576,21.6159199 39.8590031,21.7667483 39.9868758,21.7435439 C41.2191038,21.4418871 42.439707,21.1170259 43.6719349,20.7921648 C43.7881829,20.7689604 43.8811812,20.6761429 44.1369266,20.5137124 Z M36.7784331,24.5628747 C36.5808116,24.6904987 36.278567,24.771714 36.2204431,24.9457468 C36.1274447,25.1893927 36.8133075,25.8739215 37.0806777,25.8159106 C37.4410463,25.7230931 37.8827884,25.6070713 38.0804098,25.3402211 C38.2431569,25.1197796 37.4875454,24.6904987 36.7784331,24.5628747 Z M9.84378934,25.4446407 C11.041143,26.0711587 11.4015115,25.9203303 11.878128,24.5976813 C11.1457661,24.7833162 10.2506571,24.4236485 9.84378934,25.4446407 Z M35.5462051,43.3004025 C28.6062041,47.6860282 18.876253,47.4075758 12.6918635,43.4164243 C13.3544766,43.0219501 14.0403394,42.9639391 14.7494517,43.1611763 C14.958698,43.2191872 15.1563194,43.2888003 15.3423161,43.3816178 C16.2141755,43.7876942 17.0627854,43.7412855 17.9113952,43.3236069 C18.6670067,42.952337 19.434243,42.9407348 20.2014793,43.3236069 C21.0849635,43.7644899 21.9800725,43.7992964 22.8868063,43.3700156 C23.7586657,42.952337 24.6421499,42.9407348 25.5140094,43.3700156 C26.4672423,43.834103 27.3856009,43.7296833 28.3039595,43.3004025 C29.0130718,42.9639391 29.733809,42.952337 30.4312965,43.3004025 C31.4077791,43.7876942 32.361012,43.7412855 33.3258698,43.2888003 C34.0349821,42.9639391 34.7440945,42.9639391 35.5462051,43.3004025 Z" id="Combined-Shape" fill="#000000" fill-rule="nonzero"></path>
        </g>
    </g>
</svg>