<?xml version="1.0" encoding="UTF-8"?>
<svg width="48px" height="48px" viewBox="0 0 48 48" version="1.1" xmlns="http://www.w3.org/2000/svg" xmlns:xlink="http://www.w3.org/1999/xlink">
    <title>sgmas</title>
    <g id="Page-1" stroke="none" stroke-width="1" fill="none" fill-rule="evenodd">
        <g id="sgmas" fill-rule="nonzero">
            <rect id="Rectangle" x="0" y="0" width="48" height="48"></rect>
            <path d="M42.4711221,12.895535 C43.2824446,13.0481714 44.6269555,13.4931156 45.1477306,13.7809051 L45.535645,13.9954211 L45.535645,18.788049 L44.8478731,18.788049 L44.7495364,18.1981297 C44.6139604,17.3848543 44.2339984,16.2435186 43.8939915,15.6274723 C41.9088403,12.032363 37.441231,13.2430432 37.4301754,17.3789611 C37.4247446,19.3762004 38.1631395,20.2470337 41.1910047,21.814455 C45.3341233,23.9592232 46.5,25.5981499 46.5,29.2781228 C46.5,32.4023575 45.3127884,34.3178764 42.9699799,34.9736043 C41.3397699,35.4299421 38.0679066,35.0345017 36.2177493,34.1575787 L35.7285893,33.9257755 L35.6826214,34.896402 L28.8553295,34.896402 L28.8322486,34.4052937 L28.8091677,33.9141854 L29.9331494,33.9141854 C30.5514848,33.9141854 31.075751,33.8839331 31.0982501,33.8471982 C31.1072497,33.8324257 31.0961398,33.7344554 31.0700596,33.5810096 L31.0477727,33.4559568 C31.0062174,33.231643 30.9432783,32.9314776 30.8689927,32.6096052 C30.7206155,31.965664 30.4723503,30.8909225 30.3173785,30.2210508 C30.1626007,29.5511791 29.9604974,28.6495042 29.8685617,28.2173289 L29.7011767,27.4315555 L27.1341537,27.410929 L24.5671307,27.390106 L24.4076979,28.000259 C24.260709,28.5631828 24.0201291,29.5011099 23.7748713,30.4635736 L23.7047472,30.7389281 C23.3075263,32.2996227 22.9202405,33.8371417 22.9202405,33.8640923 C22.9202405,33.8915944 23.4456704,33.9141854 24.0876686,33.9141854 L25.2550968,33.9141854 L25.2320158,34.4052937 L25.2089349,34.896402 L14.153377,34.9366729 L14.153377,33.9183107 L15.2977242,33.8967019 L16.4420714,33.8748967 L16.4618551,24.5277302 C16.4631246,23.925236 16.4639596,23.3363483 16.464386,22.7661834 L16.46433,20.9419954 C16.4614343,17.5764328 16.4427717,15.2245314 16.4153054,15.2556051 C16.3790354,15.2968582 16.1488082,16.0732022 15.9036464,16.9807704 C15.8668721,17.1169056 15.8288759,17.257284 15.7904439,17.3990282 L15.713232,17.683485 C15.5199143,18.3949168 15.3288059,19.0925362 15.2381794,19.4166677 C14.7088703,21.3078276 14.126417,23.4129143 13.2596224,26.5672049 C12.3505452,29.8760963 12.007629,31.1201719 11.7116504,32.1854841 C11.5735528,32.6824857 11.3258696,33.5753207 11.1611999,34.1695617 L10.8619241,35.25 L10.1417611,35.25 L9.98097063,34.6803144 C9.92423818,34.4788898 9.82325971,34.1183461 9.71848531,33.7429865 L9.64851724,33.4921354 C9.61369593,33.3671959 9.5794516,33.2441733 9.54728245,33.1284121 C8.77688461,30.3587576 8.05710961,27.7743491 7.75279081,26.6850709 C7.62258655,26.2190731 7.38040483,25.3499989 7.13581125,24.4713356 L7.04418958,24.1421558 C6.96810066,23.8687457 6.89311369,23.5992024 6.82257232,23.3455343 C5.9078449,20.0561841 5.7268239,19.4062057 5.54686858,18.7699482 L5.52646149,18.6978366 L5.50582723,18.6249957 C5.49194289,18.5760038 5.47774966,18.5259615 5.46293265,18.4737397 C5.34015775,18.0415644 5.06124735,17.0338101 4.84304554,16.2342858 C4.62484374,15.4347614 4.41575794,14.7098855 4.3783242,14.6234505 C4.34762322,14.5521342 4.32702605,17.0441494 4.323637,20.8388759 L4.32336646,21.2041767 C4.32333015,21.2657032 4.3232982,21.3275478 4.32327066,21.3897055 L4.32325882,22.5412698 C4.32328533,22.6070032 4.32331647,22.6730193 4.32335224,22.7393134 L4.32362247,23.1403709 C4.32389423,23.4772963 4.32428289,23.8209149 4.32479202,24.1705962 L4.33914486,33.8748967 L5.48717726,33.8967019 L6.6352097,33.9185071 L6.61212879,34.4074546 L6.58904788,34.896402 L1.54616181,34.896402 L1.5,33.9194893 L2.37649241,33.8970948 L3.25298476,33.8748967 L3.27276843,23.9937973 L3.2923581,14.1126978 L1.5,14.1126978 L1.52308091,13.6215895 L1.54616181,13.1304812 L4.04820915,13.1096582 C4.39224063,13.1068098 4.72063434,13.1051031 5.01970717,13.1044524 L5.54276778,13.1044487 C6.15332521,13.1059582 6.55025644,13.1131205 6.55025644,13.1247843 C6.55025644,13.1446251 6.72869706,13.8080142 6.94670487,14.5992879 C7.16490667,15.3905617 7.42306366,16.3384007 7.52043016,16.7057498 C7.61799061,17.0730988 7.82552476,17.8333345 7.98185422,18.3951624 C8.13818368,18.9569903 8.40021981,19.9117049 8.56430758,20.5167503 C8.72839531,21.1217958 9.28873756,23.1726641 9.80951253,25.0742356 L9.85290355,25.2327097 L9.9394876,25.549141 C10.4144002,27.2855054 10.8615523,28.9325135 10.9684065,29.3401989 C11.1652731,30.0917911 11.360394,30.522002 11.360394,30.204746 C11.360394,30.135205 11.4977156,29.5888962 11.6656825,28.9907262 C12.0762898,27.5280092 12.9630619,24.2988737 13.1942589,23.4241116 C13.2970562,23.0351538 13.4659928,22.4163573 13.5697599,22.0490083 C13.673527,21.6816593 13.9186888,20.7976643 14.1145856,20.084575 C14.3104823,19.3714857 14.5548683,18.4874907 14.6572777,18.1201417 C14.7822037,17.6729653 15.0437413,16.7247366 15.3002661,15.7912669 L15.3769315,15.5121846 C15.656448,14.494289 15.9127624,13.556665 15.9573725,13.3858575 L16.0341796,13.0911925 L20.9030861,13.0911925 L20.9030861,14.1126978 L18.9629326,14.1126978 L18.9825223,23.9937973 L19.0023059,33.8748967 L20.3685401,33.896309 C21.8761691,33.9198823 21.8340804,33.9328475 21.9692686,33.4034327 C22.0132968,33.2305626 22.3354597,31.9929696 22.6851644,30.6532261 C23.0348692,29.3134826 23.5771734,27.2272545 23.8904142,26.0171635 C23.9136172,25.9275272 23.9369895,25.8372549 23.9604221,25.7467658 L24.0659098,25.3395164 C24.3229706,24.3473575 24.5675976,23.4050493 24.6549933,23.0705136 C25.5245032,19.7404063 25.7551183,18.8507145 25.9172665,18.198719 C26.0085303,17.8321418 26.3009566,16.6935096 26.5983694,15.5462643 L26.6697438,15.2711509 C26.681622,15.2254015 26.6934831,15.1797359 26.7053144,15.1342031 L27.3077453,12.8161719 L28.1724063,12.7939738 C28.9455196,12.7741329 29.0417223,12.7867054 29.0799319,12.9118397 C29.1035947,12.9888455 29.2261756,13.5115812 29.3526357,14.0734091 C29.3870514,14.2261949 29.4194463,14.3697224 29.4524865,14.5156104 L29.4774292,14.6256507 C29.6450765,15.3646233 29.8455196,16.2352287 30.4120297,18.6898274 C30.5640921,19.3488948 30.8416447,20.5599679 31.0288134,21.381101 C31.2159821,22.2022341 31.5123486,23.4928668 31.687298,24.2491736 C31.8622473,25.0054804 32.1066333,26.0662744 32.2301841,26.6064935 C32.3537347,27.1467127 32.5985087,28.2075067 32.7740399,28.9638135 C33.2983061,31.223894 33.6282272,32.662252 33.7616698,33.2680833 C33.910047,33.941491 33.8902633,33.930883 34.9455842,33.8978806 L35.6826214,33.8748967 L35.7029869,31.1050458 L35.7233524,28.3351948 L36.3981294,28.3351948 L36.5306021,29.2097605 C36.9906685,32.2438278 38.2793199,33.9959058 40.3323564,34.378381 C42.8805654,34.8531845 44.6719537,33.1515924 44.6680747,30.2603395 C44.6647776,27.9817933 43.7975947,26.9194278 40.5627774,25.2313902 C37.0987026,23.4239152 35.9260377,22.0285782 35.6420844,19.3773791 C35.1564157,14.8395381 38.0760527,12.0683121 42.4711221,12.895535 L42.4711221,12.895535 Z M27.2445153,17.2261281 C27.2216284,17.2640417 26.98791,18.1437149 26.725292,19.1809357 C26.462868,20.2181565 26.1998621,21.2259107 26.1410931,21.4203897 C26.0823241,21.6148685 25.8711047,22.410464 25.6717167,23.1883796 C25.6248019,23.3714186 25.5743006,23.5671822 25.5228935,23.76546 L25.4454385,24.0634861 C25.3034209,24.6086445 25.1646899,25.1342086 25.0849963,25.4278336 C24.9616396,25.8816177 24.8605879,26.2794154 24.8603936,26.3118286 C24.8600185,26.3431961 25.8269061,26.3690445 27.0333021,26.3707616 L29.4496143,26.3707616 L29.3984096,26.1153852 C29.3702858,25.9749282 29.2608939,25.5064109 29.1553812,25.0742356 C29.0496746,24.6420603 28.8617301,23.8287849 28.7375975,23.266957 C28.613271,22.705129 28.3345545,21.4852159 28.1180984,20.556039 C27.9014482,19.6268621 27.6516314,18.5307083 27.562605,18.1201417 C27.3921167,17.3337791 27.3133701,17.1123875 27.2445153,17.2261281 L27.2445153,17.2261281 Z" id="Shape" fill="#8C744C"></path>
        </g>
    </g>
</svg>