<svg height="48" viewBox="0 0 48 48" width="48" xmlns="http://www.w3.org/2000/svg"><path d="m4.37402344 15.9599609c.35481771 0 .64290364-.0390625.86425781-.1171875.41992187-.1497395.62988281-.4280599.62988281-.8349609 0-.2376302-.10416666-.4215495-.3125-.5517578-.20833333-.1269531-.53548177-.2392578-.98144531-.3369141l-.76171875-.1708984c-.74869792-.1692708-1.26627604-.3531901-1.55273438-.5517578-.48502604-.3320313-.72753906-.851237-.72753906-1.5576172 0-.6445313.234375-1.180013.703125-1.6064453.46875-.42643232 1.15722656-.63964846 2.06542969-.63964846.75846354 0 1.4054362.20100911 1.94091797.60302736.53548177.4020182.81624349.9855143.84228516 1.7504883h-1.4453125c-.02604167-.4329427-.21484376-.7405599-.56640626-.9228516-.234375-.1204427-.52571614-.1806641-.87402343-.1806641-.38736979 0-.69661459.078125-.92773438.234375s-.34667968.374349-.34667968.6542969c0 .2571615.11393229.4492188.34179687.5761719.14648438.0846354.45898438.1839193.9375.2978516l1.24023438.2978515c.54361979.1302084.95377604.304362 1.23046874.522461.4296875.3385416.64453126.8284505.64453126 1.4697265 0 .6575521-.25146485 1.2036133-.75439454 1.6381836-.50292968.4345703-1.2133789.6518555-2.13134765.6518555-.9375 0-1.67480469-.21403-2.21191407-.6420899-.53710937-.4280599-.80566406-1.0164388-.80566406-1.7651367h1.43554688c.04557291.3287761.13509114.5745443.26855468.7373047.24414063.296224.6624349.4443359 1.25488282.4443359zm7.24121096 1.2402344c-1.0286459 0-1.81477867-.2799479-2.35839846-.8398437-.72916667-.686849-1.09375-1.6764323-1.09375-2.96875 0-1.3183594.36458333-2.3079427 1.09375-2.96875.54361979-.55989587 1.32975256-.83984379 2.35839846-.83984379 1.0286458 0 1.8147786.27994792 2.3583984.83984379.7259115.6608073 1.0888672 1.6503906 1.0888672 2.96875 0 1.2923177-.3629557 2.281901-1.0888672 2.96875-.5436198.5598958-1.3297526.8398437-2.3583984.8398437zm1.4208984-1.9335937c.3483073-.4394532.522461-1.0644532.522461-1.875 0-.8072917-.1749675-1.4314779-.5249024-1.8725586-.3499349-.4410808-.8227539-.6616211-1.418457-.6616211-.5957032 0-1.0709636.2197265-1.4257813.6591797-.35481768.4394531-.53222654 1.0644531-.53222654 1.875 0 .8105468.17740886 1.4355468.53222654 1.875.3548177.4394531.8300781.6591797 1.4257813.6591797.5957031 0 1.0693359-.2197266 1.4208984-.6591797zm4.5507813 1.7333984h-1.4013672v-7.19726562h2.1875l1.3085937 5.65917972 1.2988282-5.65917972h2.1630859v7.19726562h-1.4013672v-4.8681641c0-.1399739.0016276-.3361002.0048828-.5883789.0032552-.2522786.0048828-.4467773.0048828-.5834961l-1.3623047 6.0400391h-1.4599609l-1.3525391-6.0400391c0 .1367188.0016276.3312175.0048828.5834961.0032553.2522787.0048829.448405.0048829.5883789zm11.1669921-1.4794922h-2.6513671l-.4980469 1.4794922h-1.5722656l2.5683593-7.19726562h1.6992188l2.5488281 7.19726562h-1.6308594zm-.4199218-1.2402344-.8984375-2.8320312-.9277344 2.8320312zm3.4277344-4.47753902h1.5039062v5.90332032h3.5644531v1.2939453h-5.0683593zm5.9912109 0h1.4941406v7.19726562h-1.4941406zm7.109375 5.71777342h-2.6513672l-.4980469 1.4794922h-1.5722656l2.5683594-7.19726562h1.6992187l2.5488281 7.19726562h-1.6308593zm-.4199219-1.2402344-.8984375-2.8320312-.9277344 2.8320312zm-38.7705078 13.2900391c-.4296875.3932292-.97916667.5898438-1.6484375.5898438-.828125 0-1.47916667-.265625-1.953125-.796875-.47395833-.5338542-.7109375-1.2656251-.7109375-2.1953125 0-1.0052084.26953125-1.779948.80859375-2.3242188.46875-.4739583 1.06510417-.7109375 1.7890625-.7109375.96875 0 1.67708333.3177083 2.125.953125.24739583.3567708.38020833.7148437.3984375 1.0742187h-1.203125c-.078125-.2760416-.17838542-.484375-.30078125-.625-.21875-.25-.54296875-.375-.97265625-.375-.4375 0-.78255208.1764323-1.03515625.5292969s-.37890625.8522136-.37890625 1.4980469.13346354 1.1295573.40039062 1.4511719c.26692709.3216146.6061198.4824219 1.01757813.4824219.421875 0 .74348958-.1380209.96484375-.4140625.12239583-.1484375.22395833-.3710938.3046875-.6679688h1.19140625c-.10416667.6276042-.36979167 1.1380208-.796875 1.53125zm5.7226562-2.0859375h-2.79687495v1.4804688h3.18749995v1.0351562h-4.3632812v-5.7578125h4.2226562v1.0195313h-3.04687495v1.2226562h2.79687495zm5.984375 2.515625h-1.203125l-2.3515624-4.0898438v4.0898438h-1.1210938v-5.7578125h1.2617188l2.2929687 4.0195313v-4.0195313h1.1210937zm5.3046876-5.7578125v1.0195313h-1.7226563v4.7382812h-1.2109375v-4.7382812h-1.7304688v-1.0195313zm3.1484374 3.5h-1.2421874v2.2578125h-1.1757813v-5.7578125h2.8242187c.4036459.0078125.7141928.0572917.9316407.1484375s.4016927.2252604.5527343.4023438c.125.1458333.2239584.3072916.296875.484375.0729167.1770833.109375.3789062.109375.6054687 0 .2734375-.0690104.5423177-.2070312.8066406s-.3658854.4511719-.6835938.5605469c.265625.1067708.4537761.2584635.5644532.4550781s.1660156.4967448.1660156.9003907v.3867187c0 .2630208.0104167.4414063.03125.5351563.03125.1484375.1041667.2578125.21875.328125v.1445312h-1.3242188c-.0364583-.1276042-.0625-.2304687-.078125-.3085937-.03125-.1614584-.048177-.326823-.0507812-.4960938l-.0078125-.5351562c-.0052083-.3671875-.0722656-.6119792-.2011719-.734375-.1289062-.1223959-.3704427-.1835938-.7246094-.1835938zm.7304688-1.046875c.2395833-.109375.359375-.3255208.359375-.6484375 0-.3489583-.1158854-.5833333-.3476562-.703125-.1302084-.0677083-.3255209-.1015625-.5859376-.1015625h-1.3984374v1.546875h1.3632812c.2708333 0 .4739583-.03125.609375-.09375zm5.9726562 2.1210938h-2.1210937l-.3984375 1.1835937h-1.2578125l2.0546875-5.7578125h1.359375l2.0390625 5.7578125h-1.3046875zm-.3359374-.9921875-.71875-2.265625-.7421876 2.265625zm2.7421874-3.5820313h1.203125v4.7226563h2.8515626v1.0351562h-4.0546876zm-30.70312495 15.7578125h-2.609375v-5.7578125h2.796875c.70572917.0104167 1.20572917.2148437 1.5.6132813.17708333.2447916.265625.5377604.265625.8789062 0 .3515625-.08854167.6341146-.265625.8476562-.09895833.1197917-.24479167.2291667-.4375.328125.29427083.1067709.51627604.2760417.66601563.5078126.14973958.2317708.22460937.5130208.22460937.84375 0 .3411458-.0859375.6471354-.2578125.9179687-.109375.1796875-.24609375.3307292-.41015625.453125-.18489583.140625-.40299479.2369792-.65429688.2890625-.25130208.0520833-.52408854.078125-.81835937.078125zm-.02734375-2.5351562h-1.43359375v1.5351562h1.4140625c.25260417 0 .44921875-.0338542.58984375-.1015625.25520833-.125.3828125-.3645833.3828125-.71875 0-.2994792-.12369792-.5052083-.37109375-.6171875-.13802083-.0625-.33203125-.0950521-.58203125-.0976562zm.59765625-1.0976563c.15625-.09375.234375-.2617187.234375-.5039063 0-.2682291-.10416667-.4453124-.3125-.53125-.1796875-.0598958-.40885417-.0898437-.6875-.0898437h-1.265625v1.2695313h1.4140625c.25260417 0 .45833333-.0481771.6171875-.1445313zm5.94921875 2.4492187h-2.12109375l-.3984375 1.1835938h-1.2578125l2.0546875-5.7578125h1.35937495l2.0390626 5.7578125h-1.3046876zm-.3359375-.9921874-.71875-2.265625-.7421875 2.265625zm7.3984375 2.1757812h-1.203125l-2.3515625-4.0898438v4.0898438h-1.1210938v-5.7578125h1.2617188l2.2929688 4.0195313v-4.0195313h1.1210937zm6.2226563 0h-1.546875l-1.7773438-2.515625-.5742188.5898438v1.9257812h-1.1835937v-5.7578125h1.1835937v2.3710937l2.2226563-2.3710937h1.5546875l-2.359375 2.3710937z"/></svg>