<?xml version="1.0" encoding="UTF-8"?>
<svg width="48px" height="48px" viewBox="0 0 48 48" version="1.1" xmlns="http://www.w3.org/2000/svg" xmlns:xlink="http://www.w3.org/1999/xlink">
    <title>srcb</title>
    <g id="Page-1" stroke="none" stroke-width="1" fill="none" fill-rule="evenodd">
        <g id="srcb">
            <rect id="Rectangle" x="0" y="0" width="48" height="48"></rect>
            <path d="M24.5509995,1.00026856 C30.9828054,1.02903144 36.4625349,3.46916835 40.9055587,8.14492201 C44.4952399,11.9109137 47.0623203,17.4611673 46.9988485,23.5474047 C46.9283244,29.7253236 44.7702842,35.071057 40.4118894,39.4294519 C35.8489744,43.9923668 30.2634587,46.2420884 23.8104955,46.0516731 C17.9005686,45.8753626 12.7946174,43.6538507 8.612533,39.4435567 C3.99319869,34.7960127 1.77168677,29.1470252 2.01852142,22.6164854 C2.24419883,16.5584577 4.6349688,11.3890347 9.02157329,7.20695031 C13.3517584,3.08128531 18.5776008,0.972612087 24.5509995,1.00026856 Z M9.27546037,7.538414 C4.79717443,11.8121798 2.46987623,17.1297036 2.41345688,23.3217273 C2.35703753,29.5066986 4.57854945,34.8524321 8.97925878,39.2178793 C13.2671294,43.4775403 18.4718145,45.5509514 24.4804753,45.6355804 C30.503241,45.6849473 36.060547,43.2236532 40.101583,39.1473551 C44.227248,34.986428 46.4276026,29.9298437 46.568651,24.0692837 C46.7096994,18.0817801 44.69976,12.8277281 40.6093571,8.44817602 C36.4625349,4.0122046 31.3001643,1.63553946 25.2350841,1.43101931 C19.0924273,1.22649917 13.7255366,3.29285788 9.27546037,7.538414 Z M24.3817414,2.79918856 C30.1788297,2.87676517 35.0943656,4.86554727 39.1001395,8.88542599 C43.3033811,13.1027725 45.3697398,18.2721955 45.1722721,24.2385418 C44.9889092,29.8804768 42.7815021,34.6902264 38.6910992,38.5690568 C34.7205874,42.3350484 29.9390475,44.2603587 24.4804753,44.2464069 C18.6692822,44.2321491 13.6620649,42.0882137 9.62808131,37.899077 C5.67167436,33.7945692 3.70404952,28.8155616 3.81688822,23.1031023 C3.92972692,17.5951632 5.96787595,12.8347806 9.86081113,8.9277405 C13.8736374,4.89375695 18.7962258,2.89087001 24.3817414,2.79918856 Z M24.7132051,2.98255145 C19.0571652,3.04602322 14.3320447,4.90080936 10.4038474,8.63153891 C6.34870657,12.489212 4.16245674,17.270752 3.99319869,22.8774249 C3.82394064,28.773247 5.85503725,33.8721458 10.0371216,38.0612826 C13.9300568,41.9612702 18.6692822,43.9712096 24.1490116,44.0699434 C29.8967329,44.1686773 34.882793,42.1305283 38.9590911,38.068335 C42.7321352,34.3093958 44.784389,29.7041663 44.9818568,24.3725377 C45.2004817,18.4414535 43.2046472,13.3002402 39.0155105,9.06878888 C35.0308938,5.04185774 30.15062,3.06718048 24.7132051,2.98255145 Z M20.8625845,38.505585 C21.074157,38.5196898 21.2786772,38.5267423 21.4761449,38.5690568 C21.5325642,38.5831616 21.6101409,38.7101051 21.6101409,38.7735769 C21.5819312,39.1755648 21.5325642,39.5705002 21.4902497,39.9654357 C21.4408828,40.4308953 21.377411,40.9034074 21.3562538,41.368867 C21.3421489,41.7849597 21.6524554,42.0811613 22.117915,42.0811613 C22.555165,42.0882137 22.8513666,41.9260081 22.9077859,41.4323388 C22.9994674,40.6636251 23.0840964,39.8949115 23.1757778,39.1261979 C23.1969351,38.9992543 23.2321972,38.8793632 23.2604069,38.7594721 C23.5001891,38.7876817 23.7399713,38.8229438 24.0079632,38.8582059 C23.9656487,39.2954559 23.9303866,39.7044962 23.8810197,40.1205889 C23.8387052,40.5155244 23.7822858,40.9104598 23.7329189,41.3124477 C23.6553423,41.940113 23.4437697,42.5254637 22.7385279,42.6524073 C22.0756005,42.7722984 21.4056207,42.7511411 20.8837417,42.2222097 C20.5875401,41.9189557 20.5029111,41.5381251 20.5663829,41.11498 C20.6228022,40.7835163 20.6510119,40.4450002 20.6933264,40.1064841 C20.7497458,39.5775527 20.8061651,39.0486212 20.8625845,38.505585 Z M26.7231445,38.5408471 C27.1674469,38.5408471 27.5764872,38.6818955 27.7951121,39.1050406 C27.9855275,39.4788188 27.9925799,39.8808067 27.7457452,40.2475324 C27.6681686,40.3603711 27.5553299,40.4450002 27.4989106,40.5084719 C27.6470114,40.7341493 27.8233218,40.9386695 27.9220557,41.1713993 C27.9996323,41.3547622 27.978475,41.5804396 28.0137371,41.7849597 C28.0489992,41.975375 28.0913137,42.1657904 28.1406807,42.3844153 C27.9220557,42.3985202 27.6611162,42.4196774 27.3508098,42.4478871 C27.3014428,42.1446331 27.2379711,41.8202218 27.1956565,41.502863 C27.1462896,41.0726654 26.984084,40.9175122 26.5538864,40.9316171 C26.3916808,40.9386695 26.2224228,40.9668792 26.0602171,40.980984 C25.9050639,40.9950888 25.7569631,41.0162461 25.5665478,41.0374033 C25.6018099,41.4111815 25.637072,41.7567501 25.6582292,42.1023186 C25.6652817,42.2645242 25.6934913,42.5395686 25.6300196,42.5677782 C25.4466567,42.6453548 25.2209793,42.63125 25.0164591,42.6241976 C24.981197,42.6241976 24.9318301,42.4831492 24.9247777,42.4055726 C24.8683583,41.672121 24.8189914,40.9457219 24.7625721,40.2122703 C24.72731,39.7397583 24.6708906,39.2531414 24.6215237,38.7383148 C24.9318301,38.7030527 25.2280317,38.6677906 25.5312857,38.639581 C25.9262212,38.6043189 26.328209,38.5408471 26.7231445,38.5408471 Z M29.4171685,38.2305407 C29.6851604,39.5140809 29.9531523,40.7905687 30.2281966,42.0811613 C29.9884144,42.1375807 29.7486322,42.1869476 29.4806402,42.2504194 C29.2055959,40.9739316 28.937604,39.6974438 28.6625597,38.3856939 C28.9305516,38.3292745 29.1632814,38.28696 29.4171685,38.2305407 Z M19.9034555,37.9272867 C20.2560764,38.2375931 20.3477579,38.6184237 20.298391,39.1050406 C20.079766,39.0415688 19.8752458,38.9922019 19.6777781,38.9287301 C19.642516,38.9146253 19.6072539,38.8582059 19.6072539,38.8158914 C19.5719918,38.28696 19.0994798,38.1035971 18.6833871,38.0894923 C18.4788669,38.0824399 18.2602419,38.0401254 18.1332984,38.28696 C17.9781452,38.5831616 18.0275121,38.7735769 18.3166613,38.942835 C18.7398064,39.1826172 19.1558991,39.4365043 19.5790442,39.6762865 C20.2842861,40.0853268 20.0374515,41.0585606 19.5437821,41.4252864 C19.2123185,41.672121 18.8314878,41.6791735 18.4647621,41.6298065 C17.9217258,41.5663348 17.4139517,41.3900243 17.0613307,40.9245646 C16.8144961,40.6142582 16.7439719,40.2827945 16.8709154,39.9019639 C17.1036452,39.9654357 17.3222702,40.021855 17.5408952,40.0782744 C17.5973146,40.7270969 18.3025564,41.1784517 18.902012,40.980984 C19.1276894,40.9034074 19.254633,40.7412018 19.254633,40.5507864 C19.254633,40.4167905 19.1347419,40.2334276 19.0148507,40.155851 C18.6763346,39.9301736 18.3237137,39.7256534 17.9569879,39.5422906 C17.167117,39.1403027 17.1459598,38.420956 17.5973146,37.8426576 C17.7595202,37.6310851 18.0839315,37.4688794 18.3519234,37.4406698 C18.9161169,37.3842504 19.4521007,37.5252988 19.9034555,37.9272867 Z M33.0209545,36.6507989 C33.5780956,37.84971 34.1211318,39.027464 34.6782729,40.2334276 C34.4667003,40.3321615 34.2621802,40.4379477 34.0435552,40.5155244 C33.9800834,40.5366816 33.8672447,40.4802623 33.7967205,40.4308953 C32.97864,39.8596494 32.1676118,39.2742986 31.3495312,38.7030527 C31.328374,38.6889479 31.2931119,38.6889479 31.2084828,38.6607382 C31.6245756,39.5634478 32.019511,40.4097381 32.4144465,41.2771856 C32.2028739,41.3759194 31.9983538,41.4676009 31.7726763,41.5663348 C31.2225877,40.3885808 30.6795514,39.196722 30.1153579,37.9907584 C30.3480878,37.8849721 30.5596603,37.7721334 30.7853377,37.6945568 C30.8558619,37.6733996 30.9687006,37.7227665 31.0392248,37.7721334 C31.8290957,38.3222221 32.6119142,38.8864156 33.4017851,39.4435567 C33.4299948,39.464714 33.4582044,39.4717664 33.5357811,39.4576615 C33.1549504,38.6325285 32.7741198,37.8003431 32.3791844,36.9470004 C32.5907569,36.8482666 32.7952771,36.7565851 33.0209545,36.6507989 Z M26.7301969,39.2037745 C26.2999994,39.2037745 25.8698018,39.2531414 25.4113946,39.2813511 C25.4607615,39.6974438 25.4960236,40.0500647 25.5312857,40.4308953 C25.9332736,40.3956332 26.2999994,40.3674236 26.6596727,40.3321615 C26.9558743,40.3039518 27.1956565,40.0500647 27.1886041,39.7891252 C27.1886041,39.5211333 26.9699791,39.2037745 26.7301969,39.2037745 Z M34.6500632,35.3461014 C35.8701317,35.8397707 37.0831477,36.3263876 38.3243734,36.8200569 C38.1339581,37.0386819 37.9505952,37.243202 37.7742848,37.4406698 C37.5909219,37.3630931 37.407559,37.3137262 37.2594582,37.2149924 C37.054938,37.0809964 36.9279945,37.1444682 36.7939985,37.3066738 C36.5471639,37.595823 36.2932768,37.8708673 36.060547,38.1600165 C36.0252849,38.202331 36.0252849,38.3081173 36.0534946,38.3645366 C36.1592808,38.5831616 36.2862244,38.7876817 36.4131679,39.0063067 C36.2439099,39.2037745 36.0746518,39.3941898 35.8912889,39.6128147 C35.4681438,38.8652584 35.0591035,38.1388592 34.6571156,37.4124601 C34.4173334,36.989315 34.1846036,36.5591174 33.9377689,36.1359723 C33.8531399,35.9878715 33.8672447,35.8891376 33.9871359,35.7762989 C34.107027,35.6634602 34.2128133,35.5365167 34.3115471,35.4025207 C34.410281,35.2685248 34.5160673,35.289682 34.6500632,35.3461014 Z M12.9356657,33.6041539 C13.1119762,33.8016217 13.2812343,33.9779321 13.429335,34.1683474 C13.4645971,34.2106619 13.4504923,34.3093958 13.429335,34.3728676 C13.1401859,35.3178917 12.8439843,36.2558634 12.5477827,37.2008875 C12.5407303,37.2220448 12.5407303,37.2502544 12.5900972,37.3207786 C13.260077,36.7001658 13.9300568,36.0795529 14.5929841,35.4659925 L15.0937059,35.9667142 C14.1486818,36.855319 13.1895528,37.7439238 12.216319,38.6466334 C12.1528472,38.5690568 12.1175851,38.4985326 12.0611658,38.4632705 C11.6803352,38.2093834 11.7226497,37.9061294 11.8566457,37.5182464 C12.1528472,36.6931134 12.3855771,35.8538755 12.6394641,35.0146377 C12.6465166,34.986428 12.6465166,34.9511659 12.653569,34.8383272 C11.913065,35.5224118 11.2289804,36.164182 10.5801578,36.7636376 C10.3897425,36.6225892 10.2134321,36.4815408 10.0089119,36.3263876 C11.0103554,35.3954683 11.9624319,34.5068635 12.9356657,33.6041539 Z M34.8263737,36.164182 C34.8052164,36.1853392 34.7840592,36.2064965 34.7699543,36.2276537 C35.0520511,36.7001658 35.3341478,37.1726778 35.6374019,37.680452 C35.8912889,37.3983552 36.1169663,37.1444682 36.3849582,36.8482666 C35.8348696,36.6084843 35.3341478,36.3828069 34.8263737,36.164182 Z M24.9318301,9.76697836 C32.0829828,9.97149846 38.2891113,15.8250061 38.2397444,23.7166628 C38.2185871,27.3980254 36.8433655,30.6068759 34.2480753,33.2092185 C31.5893135,35.89619 28.3169911,37.2714117 24.2477455,37.3066738 C20.7285885,37.243202 17.470371,35.9314521 14.7833995,33.251533 C12.0964279,30.5716138 10.7494159,27.2992915 10.7280014,23.5332999 C10.7141538,20.134034 11.8495932,17.0873891 14.1063673,14.5203087 C16.9696493,11.2620912 20.6086974,9.64003476 24.9318301,9.76697836 Z M14.9244478,13.9138006 C12.2797908,16.5373004 10.9398312,19.7532034 10.9116215,23.4557233 C10.8834119,27.1159286 12.1740045,30.3177268 14.7199277,32.948279 C17.3786896,35.6987223 20.6510119,37.0809964 24.2689027,37.1233109 C28.0560516,37.1021537 31.1661683,35.8820852 33.7614585,33.4419483 C36.5048494,30.8748679 37.9788049,27.6660173 38.0634339,23.9211829 C38.2397444,15.9307924 31.9489868,10.1760187 25.030564,9.94328876 C21.1094191,9.80929286 17.7172057,11.1351476 14.9244478,13.9138006 Z M37.5627122,30.9383396 C38.6699419,31.6365291 39.7701193,32.3276661 40.9055587,33.0399604 C40.7856676,33.2303757 40.6657765,33.420791 40.5247281,33.639416 C39.5938088,33.0540653 38.6699419,32.4757669 37.7813372,31.9186258 L40.136845,34.2741337 C40.1086354,34.3023434 40.0874781,34.3235006 40.0592684,34.3517103 L40.0592684,34.37992 C39.748962,35.0005329 39.748962,35.0075853 39.0930871,34.7748554 C38.3102686,34.4998111 37.5274501,34.2177144 36.7446316,33.94267 C36.6529502,33.9074079 36.5542163,33.8933031 36.4413776,33.9215128 C37.3722969,34.5068635 38.3032162,35.0922143 39.227083,35.6775651 C39.2129782,35.726932 39.2129782,35.7551417 39.1988733,35.7762989 C38.8674097,36.2981779 38.8674097,36.2981779 38.3314258,35.9596618 C37.4569259,35.4025207 36.582426,34.8594845 35.707926,34.3023434 C35.6515067,34.2670813 35.6021398,34.2177144 35.5457204,34.1753999 C35.7502406,33.8509886 35.9406559,33.5477346 36.145176,33.2162709 C37.1677767,33.5688918 38.1903775,33.9215128 39.2129782,34.2811861 C39.2411879,34.2177144 39.2693975,34.1753999 39.2976072,34.1401378 C39.2129782,34.0907708 39.1071919,34.0625612 39.0437201,33.9990894 C38.3948976,33.3573193 37.7460751,32.7014443 37.0972525,32.0596742 C36.9914663,31.9538879 36.9420993,31.8833637 37.0619905,31.7352629 C37.2453533,31.4954807 37.3864017,31.2204364 37.5627122,30.9383396 Z M11.7720166,31.7987347 C11.8495932,31.9962024 11.9624319,32.1866177 12.0682182,32.3981903 C11.5886537,32.898912 11.1020368,33.3925814 10.6295248,33.8933031 C10.1499603,34.3940248 9.67744824,34.901799 9.18377893,35.423678 C9.06388781,35.1838957 8.94399669,34.9511659 8.78884347,34.6479119 C8.94399669,34.513916 9.11325474,34.3658152 9.28251279,34.2177144 C9.38829907,34.1260329 9.42356117,34.0343515 9.34598456,33.9003555 C9.16262167,33.5688918 8.99336362,33.2374282 8.83115799,32.898912 C8.7606338,32.7578637 8.66895235,32.7084967 8.52085156,32.729654 C8.30222658,32.7719685 8.09065401,32.8001782 7.85087177,32.8283879 C7.73803307,32.6027105 7.62519437,32.3770331 7.49119841,32.1160936 C7.85792419,32.0667266 8.19644029,32.0173597 8.54200882,31.9750452 C9.19788376,31.8904162 9.84670629,31.7987347 10.5025812,31.7141057 C10.8128877,31.6717912 11.1231941,31.6435815 11.4335005,31.601267 C11.6027586,31.5801097 11.7085449,31.6365291 11.7720166,31.7987347 Z M25.9473784,28.2372632 L25.9473784,32.0667266 L27.5200678,32.0667266 C26.4974671,33.0963798 25.4819188,34.1119281 24.4593181,35.1345288 C23.464927,34.1401378 22.4564311,33.1245894 21.4126731,32.0878839 L23.0135722,32.0878839 L23.0135722,28.2372632 L25.9473784,28.2372632 Z M25.6511768,28.469993 L23.3097738,28.469993 L23.3097738,32.3770331 L22.0544432,32.3770331 C22.9218908,33.2233233 23.7258665,34.0061418 24.4804753,34.7466458 C25.2562414,33.9638273 26.0602171,33.1598515 26.8641929,32.3558758 L25.6511768,32.3558758 L25.6511768,28.469993 Z M11.0667747,32.341771 C10.5166861,32.4264 9.97364983,32.511029 9.36714182,32.6027105 C9.54345229,32.9553314 9.6986055,33.2656378 9.84670629,33.5688918 C10.2698514,33.1457467 10.650682,32.7578637 11.0667747,32.341771 Z M20.7003788,27.390973 L20.7003788,31.2063315 C20.3618627,30.8396058 20.0515563,30.5010897 19.7341975,30.1625736 C18.7962258,31.1146501 17.8864637,32.0314645 16.9837541,32.9341741 L15.1712825,31.1217025 C15.6861091,30.5927711 16.2079881,30.0567873 16.729867,29.5278559 C17.0613307,29.1963922 17.385742,28.8649285 17.7242581,28.5475696 C17.8582541,28.4206261 17.8582541,28.3289447 17.7242581,28.2020011 C17.4562662,27.948114 17.1953267,27.6871746 16.8920727,27.390973 L20.7003788,27.390973 Z M32.0759304,27.2781343 C31.7515191,27.5954931 31.4271078,27.912852 31.0956441,28.2372632 C32.0477207,29.1893398 32.9574827,30.0920494 33.8460875,30.9806541 C33.2184222,31.6083194 32.6189666,32.207775 31.9913013,32.8283879 C31.1238538,31.9538879 30.2211442,31.0441259 29.2902249,30.1061542 C28.9587612,30.4658276 28.6414024,30.8043437 28.3240436,31.1358073 C28.3028863,31.1217025 28.2887815,31.1075977 28.2676242,31.0934928 L28.2676242,27.2781343 L32.0759304,27.2781343 Z M38.9449863,27.2992915 C39.5232846,27.475602 39.5162322,27.475602 39.2905548,28.0397955 C39.1212967,28.4629406 38.9661435,28.9001906 38.7827806,29.3233357 C38.7122565,29.4925938 38.7757282,29.5419607 38.9097242,29.5913276 C39.0225629,29.6336421 39.1495064,29.6547994 39.2482403,29.7182712 C39.4880225,29.866372 39.5867564,29.7958478 39.6784378,29.5419607 C39.8547483,29.0482914 40.0804257,28.5616745 40.2919983,28.0468479 C40.4542039,28.1103197 40.6164095,28.1596866 40.7645103,28.2372632 C40.8068248,28.2584205 40.8209297,28.385364 40.7997724,28.4488358 C40.6093571,28.9354527 40.4189418,29.4150172 40.2144217,29.8945816 C40.1509499,30.0426824 40.1721071,30.120259 40.3131555,30.1766784 C40.5881999,30.2824647 40.8632442,30.388251 41.1735506,30.5010897 C41.4556474,29.817005 41.7377441,29.1329204 42.0198409,28.4417834 C42.2102562,28.5264124 42.4006715,28.6110414 42.5981392,28.6956704 C42.2455183,29.5701704 41.8999497,30.4305655 41.5402764,31.2839081 C41.5191191,31.3403275 41.3851232,31.3967468 41.3357562,31.382642 C40.186212,30.9242348 39.0366677,30.4587751 37.8871235,29.9862631 C37.8871235,29.9792107 37.8730186,29.9580534 37.8448089,29.9298437 C38.2044823,29.0482914 38.5500508,28.1878963 38.9026718,27.3204488 C38.9167766,27.3133964 38.9379339,27.2992915 38.9449863,27.2992915 Z M9.47998052,27.2922391 C9.5857668,27.5179165 9.68450066,27.7224366 9.77618211,27.9340092 C9.79028694,27.9692713 9.76207727,28.0539003 9.71976276,28.08211 C9.20493618,28.5264124 8.68305719,28.9636624 8.1611782,29.4009123 L7.39951697,30.0426824 C7.41362181,30.0638397 7.42067423,30.0849969 7.43477906,30.1061542 C8.46443221,29.9651058 9.50113777,29.8240575 10.5448958,29.6830091 C10.650682,29.9227913 10.7494159,30.1484687 10.8622546,30.4023558 C10.4108998,30.4446703 9.98775467,30.4799324 9.56460954,30.5151945 C8.8734725,30.5786663 8.18233546,30.6562429 7.49119841,30.7197146 C7.27257343,30.7408719 7.06100087,30.7690816 6.84237588,30.7690816 C6.78595653,30.7690816 6.70132751,30.7056098 6.67311783,30.6562429 C6.59554123,30.5151945 6.52501704,30.3600413 6.47565011,30.2048881 C6.45449285,30.1484687 6.48270253,30.0497349 6.52501704,30.0074203 C6.8494283,29.6900615 7.18089199,29.3727026 7.51940809,29.0694486 C7.80855726,28.8014567 8.11181127,28.5475696 8.40096044,28.2795777 C8.7253717,27.9833761 9.04273055,27.6801221 9.3600894,27.3768681 C9.38124665,27.3486585 9.42356117,27.3275012 9.47998052,27.2922391 Z M24.4734229,19.9224615 C26.4551526,19.9083566 28.1477331,21.5868323 28.0701565,23.5897192 C28.1406807,25.4797675 26.4692574,27.1794004 24.3676366,27.1300335 C22.5904271,27.087719 20.7920603,25.5785013 20.9119514,23.3710942 C21.0106853,21.4951508 22.4987456,19.9365663 24.4734229,19.9224615 Z M24.4945801,20.1128768 C22.6186367,20.0846671 21.2011006,21.6432516 21.0882619,23.3569894 C20.9542659,25.4021909 22.6962134,27.0101423 24.4593181,26.9466706 C26.4904147,26.9396182 27.9291081,25.4233481 27.9221071,23.5615096 C27.9079508,21.6079895 26.4410477,20.1410864 24.4945801,20.1128768 Z M16.0246252,20.4937074 L16.0246252,22.1298685 L19.861141,22.1298685 L19.861141,25.0143078 L16.0316776,25.0143078 L16.0316776,26.6152069 C15.0090769,25.5926062 13.9864761,24.562953 12.9709278,23.5474047 L14.4713299,22.0470026 C14.9808672,21.5374654 15.49922,21.0191126 16.0246252,20.4937074 Z M33.0068496,20.5078122 L34.5530925,22.0549366 C35.0591035,22.5618292 35.556299,23.0607878 36.0464421,23.5544571 L34.0252712,25.5756281 C33.6870163,25.913883 33.3477165,26.2531827 33.0068496,26.5940496 C33.0068496,26.1709045 32.9997972,25.740707 33.0139021,25.3175618 C33.0209545,25.0918844 32.9504303,25.0072554 32.7177005,25.0143078 C31.6175231,25.0213602 30.5173458,25.0213602 29.4171685,25.0213602 L29.1139145,25.0213602 L29.1139145,22.136921 L29.3889588,22.136921 C30.4961885,22.136921 31.6034183,22.1298685 32.7177005,22.1439734 C32.9504303,22.1439734 33.0280069,22.0805016 33.0209545,21.8477718 C32.9997972,21.4105218 33.0068496,20.9803243 33.0068496,20.5078122 Z M33.2466319,21.1989493 L33.2466319,22.3837556 L29.4101161,22.3837556 L29.4101161,24.7886304 L33.2677891,24.7886304 L33.2677891,25.9875416 C34.0717649,25.169461 34.8616358,24.3725377 35.6374019,23.5826668 C34.8686882,22.8139532 34.0647125,22.0099774 33.2466319,21.1989493 Z M15.7284236,21.1848444 C14.910343,21.9958726 14.1063673,22.7927959 13.3588109,23.5403523 C14.1416293,24.3302232 14.9385527,25.1271465 15.7425284,25.9311223 L15.7425284,24.7745256 L19.642516,24.7745256 C19.642516,24.0481265 19.6354636,23.3569894 19.6495684,22.6587999 C19.6566208,22.4190177 19.5649394,22.3625984 19.3463144,22.3625984 C18.2461371,22.3696508 17.1459598,22.3696508 16.0457824,22.3696508 L15.7284236,22.3696508 L15.7284236,21.1848444 Z M24.4945801,21.4104402 C25.6723341,21.4175742 26.6455679,22.4331225 26.5891485,23.5615096 C26.6455679,24.7110538 25.5877051,25.6490255 24.4945801,25.6490255 C23.3591407,25.6490255 22.3647497,24.7110538 22.3929593,23.5121426 C22.4141166,22.306179 23.380298,21.4034694 24.4945801,21.4104402 Z M43.0565464,18.8998607 C43.1129658,19.1537478 43.1693851,19.39353 43.2187521,19.6474171 C42.6827682,19.7532034 42.1679417,19.8519373 41.6249054,19.9577235 C41.6813248,20.0141429 41.702482,20.0564574 41.7377441,20.0776147 C42.2525707,20.4020259 42.7603448,20.740542 43.2892763,21.043796 C43.5290585,21.177792 43.5643206,21.3752597 43.5995827,21.6009371 C43.6277924,21.7701952 43.656002,21.9394532 43.6912641,22.1510258 C43.3104335,21.8971387 42.9507602,21.6573565 42.5910868,21.4246267 C42.3795142,21.2835783 42.1749941,21.1354775 41.9563691,21.0155864 C41.8928973,20.9803243 41.7447965,20.9873767 41.6954296,21.0367436 C41.1664982,21.5938847 40.6446192,22.1651306 40.1227402,22.7363766 C40.0381112,22.828058 39.9605346,22.9197394 39.8547483,23.0396306 C39.7842241,22.7222717 39.7136999,22.4472274 39.6713854,22.1580782 C39.6572806,22.087554 39.7348572,21.9817677 39.7983289,21.918296 C40.2355789,21.4528363 40.6869337,20.9873767 41.1241837,20.5289695 C40.8914539,20.2116106 40.6305144,20.134034 40.2285265,20.2257155 C39.9816918,20.2821348 39.7348572,20.3103445 39.4950749,20.3738163 C39.3469741,20.4090783 39.311712,20.352659 39.2905548,20.2257155 C39.2623451,20.0423526 39.2341354,19.8660421 39.1988733,19.6544695 C40.4753612,19.4076349 41.751849,19.1537478 43.0565464,18.8998607 Z M7.05394845,18.7447075 C7.1103678,18.7447075 7.17383957,18.7517599 7.23731134,18.7517599 C7.2232065,18.8293365 7.21615408,18.8928083 7.20204924,18.9633325 C7.16678715,19.2665865 7.09626296,19.4852115 6.72953718,19.612155 C6.14418642,19.8237276 5.98198079,20.7687517 6.61669848,21.2271589 C7.14562989,21.6079895 7.75213791,21.6926186 8.3868556,21.5445178 C8.75358138,21.4598888 8.97220636,21.1989493 9.02157329,20.8322235 C9.07799265,20.4302356 9.00746846,20.0635098 8.59842817,19.8448848 C8.54200882,19.8166752 8.49264188,19.7108889 8.4996943,19.6474171 C8.52085156,19.4499494 8.57021849,19.2524817 8.60548059,19.0479615 C9.28956521,19.2665865 9.78323453,19.9506711 9.69155308,20.7334896 C9.62808131,21.2835783 9.44471842,21.7560903 8.99336362,22.0734492 C8.59842817,22.3555459 8.15412578,22.440175 7.66045647,22.3837556 C7.24436376,22.3343887 6.86353314,22.2286024 6.48975494,22.0522919 C5.63641227,21.6503041 5.34021068,20.6488606 5.69988404,19.7814131 C5.92556144,19.2383768 6.29933964,18.8716511 6.89879524,18.7729172 C6.94816217,18.7658648 6.9975291,18.7447075 7.05394845,18.7447075 Z M31.9771965,14.1747401 C32.6189666,14.8235627 33.2184222,15.4371231 33.8390351,16.0647884 C32.97864,16.9251835 32.0829828,17.8208406 31.0956441,18.8152317 C31.4482651,19.1255381 31.7938336,19.4287921 32.1817166,19.7673082 L28.3240436,19.7673082 L28.3240436,15.9378448 C28.6414024,16.2904658 28.937604,16.6219295 29.2197007,16.9392883 C30.1929345,15.9660545 31.0885917,15.0633449 31.9771965,14.1747401 Z M17.0683831,14.2029498 C17.9287782,15.0703973 18.8385403,15.9801593 19.7483023,16.9040262 C20.079766,16.5725625 20.3971248,16.2481513 20.7567982,15.8814255 L20.7567982,19.7179413 L16.9767017,19.7179413 C17.3081654,19.4005825 17.6255242,19.0973285 17.9358307,18.8011269 L15.2065446,16.0718408 C15.8483147,15.4230183 16.4477703,14.8165102 17.0683831,14.2029498 Z M24.4945801,12.0449097 L27.5200678,15.0703973 L25.9685357,15.0703973 L25.9685357,18.9633325 L23.0347295,18.9633325 L23.0347295,15.0845022 L21.4620401,15.0845022 C22.4846408,14.0619014 23.5001891,13.0463531 24.4945801,12.0449097 Z M41.2370224,14.2523167 C41.3498611,14.492099 41.4556474,14.6966191 41.533224,14.9152441 C41.5543812,14.9928207 41.5050143,15.1127118 41.4485949,15.1902884 C40.9337684,15.92374 40.4189418,16.6501391 39.8970628,17.3835907 C39.8406435,17.4611673 39.7912765,17.5528487 39.7771717,17.6797923 C40.6023047,17.2989617 41.4203853,16.9110786 42.2807804,16.5161432 C42.3795142,16.7206633 42.4782481,16.9322359 42.5840344,17.1579133 C41.3780708,17.7221068 40.2003168,18.2721955 39.008458,18.8293365 C38.9097242,18.6248164 38.7968855,18.4273487 38.7263613,18.2157761 C38.6981516,18.1381995 38.754571,18.0183084 38.8039379,17.9407318 C39.3469741,17.1649657 39.8900104,16.3891996 40.4330466,15.6134336 C40.4753612,15.5499618 40.5106232,15.48649 40.5106232,15.3807037 C39.664333,15.7756392 38.8180427,16.1635222 37.9505952,16.5725625 C37.8518614,16.36099 37.7531275,16.1494174 37.6543936,15.9307924 C38.8533048,15.3665989 40.0381112,14.8165102 41.2370224,14.2523167 Z M7.82971452,14.4991514 C7.97781531,14.5414659 8.11181127,14.6260949 8.24580723,14.6966191 C7.94960564,15.3383892 7.65340405,15.9660545 7.35015004,16.6289819 C7.62519437,16.7559254 7.88613387,16.8758165 8.17528304,17.0098125 C8.45032737,16.4244617 8.7253717,15.8461634 9.00746846,15.2467078 C9.19083135,15.3313368 9.37419423,15.4230183 9.57871438,15.5146997 C9.30367005,16.1071029 9.03567813,16.6783488 8.7606338,17.2848568 C9.10620232,17.4470625 9.437666,17.5951632 9.76912969,17.7503165 C10.0794361,17.0803367 10.3826901,16.4244617 10.700049,15.7474295 C10.8904643,15.8250061 11.0808796,15.9096352 11.2853997,15.9942642 C10.8622546,16.9040262 10.4532143,17.7855786 10.0230168,18.702393 C8.83821041,18.1452519 7.66045647,17.6022157 6.45449285,17.0380222 C6.60259365,16.7065585 6.75069444,16.3891996 6.89879524,16.0647884 C7.13152506,15.5570142 7.35720246,15.0492401 7.60403712,14.5555707 C7.62519437,14.5062038 7.76624275,14.4779941 7.82971452,14.4991514 Z M24.5227898,12.4610024 C23.7540762,13.2367684 22.9571528,14.0336918 22.1531771,14.8306151 L23.3238786,14.8306151 L23.3238786,18.6812357 L25.6723341,18.6812357 L25.6723341,14.8165102 L26.8712453,14.8165102 C26.0672695,14.0125345 25.2632938,13.2015063 24.5227898,12.4610024 Z M39.1918209,11.3326154 C39.2200306,11.3396678 39.2411879,11.3819823 39.2623451,11.410192 C39.6431757,11.8968089 39.6431757,11.8968089 39.3187645,12.4257403 C38.6981516,13.4342362 38.0845912,14.4356796 37.4569259,15.4582804 C37.3017727,15.2749175 37.1466195,15.1056594 37.0126235,14.9222965 C36.9773614,14.8729296 36.9773614,14.7459861 37.0126235,14.7036715 C37.4005066,14.2805264 37.4357686,13.8996958 36.9420993,13.5259176 C36.8433655,13.448341 36.7798937,13.3213975 36.7023171,13.2226636 C36.6247405,13.1168773 36.5401115,13.0181434 36.4413776,12.8982523 C36.1733857,12.9969862 35.9124462,13.0957201 35.6303494,13.2015063 C35.4751962,13.011091 35.3059382,12.8065709 35.1155229,12.5808935 C36.1028615,12.235325 37.054938,11.8897564 38.014067,11.5512403 C38.2961637,11.4525065 38.5782605,11.3326154 38.8744621,11.2550387 C38.9661435,11.2268291 39.0860346,11.2973533 39.1918209,11.3326154 Z M10.5519482,10.4651678 C11.5816013,11.2973533 12.5900972,12.1154338 13.6056455,12.9405668 C13.4857544,13.0886676 13.394073,13.2156112 13.2882867,13.3355023 C13.175448,13.4694982 13.0696617,13.5541273 12.8439843,13.5118128 C11.8495932,13.3284499 10.8552022,13.1803491 9.79733936,13.011091 C9.86081113,13.0886676 9.88902081,13.1239297 9.9242829,13.1521394 C10.5801578,13.6881232 11.2360328,14.2170546 11.8989602,14.7530385 C12.0047464,14.8376675 12.0400085,14.9152441 11.9271698,15.0351352 C11.8072787,15.1550263 11.7014924,15.2960747 11.5886537,15.4300707 C10.5590006,14.5908328 9.5505047,13.7727523 8.52790398,12.9405668 C8.71126687,12.7148894 8.88052492,12.5103693 9.04978297,12.3058491 C10.1005934,12.4751072 11.1584562,12.6514177 12.2092666,12.8206757 C12.2233714,12.8065709 12.2304238,12.7854136 12.2445287,12.7713088 C11.9765368,12.5456314 11.7085449,12.3129016 11.4335005,12.0872242 C11.0315127,11.7628129 10.6295248,11.4454541 10.2275369,11.1280952 C10.1288031,11.0505186 10.093541,10.972942 10.1993272,10.8671557 C10.3192184,10.7472646 10.4250046,10.6062162 10.5519482,10.4651678 Z M38.6699419,12.0449097 C38.1410105,12.2494298 37.6191315,12.4539499 37.0619905,12.6725749 C37.3158775,12.9899338 37.5274501,13.2508733 37.7601799,13.5400224 C38.0916436,13.0393007 38.40195,12.5667886 38.7122565,12.0942766 C38.6981516,12.0801717 38.6840468,12.0590145 38.6699419,12.0449097 Z M34.7770068,7.38326078 C35.2777285,7.74293414 35.7996075,8.08145024 36.2932768,8.44817602 C37.0196759,8.99121227 36.8997848,9.80929286 36.3073816,10.1760187 C36.1663333,10.2606477 35.9829704,10.281805 35.7784502,10.3382243 C35.8066599,10.4158009 35.8630793,10.5074824 35.8842365,10.6062162 C36.0041276,11.1704097 35.5739301,11.7769177 35.0026842,11.8968089 C34.6430108,11.9743855 34.3327044,11.8685992 34.0506076,11.6781839 C33.4934665,11.3044057 32.9433779,10.9235751 32.3721319,10.535692 C32.8869585,9.80224046 33.3806278,9.08994613 33.8742972,8.37765183 C34.0929221,8.06029299 34.3185995,7.75703898 34.5301721,7.43262771 C34.6077487,7.31273659 34.6571156,7.30568418 34.7770068,7.38326078 Z M13.9653189,7.51725674 C14.0993148,7.68651479 14.2262584,7.84872042 14.3602543,8.01092606 C14.0428955,8.26481313 13.7325891,8.51164779 13.4081778,8.76553487 C14.0922624,9.64708726 14.7622422,10.5004299 15.432222,11.360825 C15.2418067,11.5089258 15.0584438,11.7698653 14.8821333,11.7628129 C14.7851626,11.7628129 14.685437,11.649864 14.5898436,11.520386 L14.4775559,11.3632493 C14.4593188,11.3377945 14.4413571,11.3132212 14.4237261,11.2903008 C13.8877423,10.6132686 13.3517584,9.93623636 12.8087222,9.24509935 L11.8425408,9.97855086 C11.7085449,9.80224046 11.5957062,9.64708726 11.4617102,9.47782917 C12.2938956,8.82195422 13.126081,8.17313169 13.9653189,7.51725674 Z M33.9871359,9.491934 C33.7685109,9.81634526 33.5569383,10.1195993 33.3312609,10.4369582 C33.6415673,10.6485307 33.9095592,10.8601033 34.1987084,11.0293613 C34.360914,11.1210428 34.5654342,11.1986194 34.7487971,11.191567 C35.0097366,11.1774621 35.186047,10.9376799 35.2001519,10.7120025 C35.2142567,10.535692 35.0873132,10.3029622 34.9462648,10.1830711 C34.6571156,9.92918396 34.3185995,9.72466386 33.9871359,9.491934 Z M18.3660282,6.09972056 C18.7257016,6.49465601 18.7891733,7.12937371 18.4647621,7.48904706 C18.4577097,7.49609948 18.4647621,7.52430916 18.4577097,7.56662367 C18.9090645,7.56662367 19.0994798,7.88398252 19.2616854,8.2507083 C19.3815765,8.51870021 19.5508346,8.77258729 19.7059878,9.04763162 C19.5226249,9.13226065 19.2828427,9.24509935 18.9936935,9.3790953 L18.7413736,8.93087491 C18.7014099,8.85564911 18.6645806,8.77963971 18.6340201,8.7020631 C18.3942379,8.11671234 18.2038226,8.02503089 17.6184718,8.26481313 C17.3645847,8.37059942 17.1106977,8.48343812 16.8427057,8.60332924 C17.0542783,9.08994613 17.2587985,9.55540576 17.4633186,10.013813 C17.4421613,10.0349703 17.4351089,10.0561275 17.4210041,10.06318 C16.7933388,10.366434 16.7933388,10.366434 16.4900848,9.68234936 C16.0669397,8.70911552 15.6437945,7.73588172 15.1994922,6.73443825 C15.869472,6.44528908 16.5323993,6.16319233 17.1882743,5.87404316 C17.7031008,5.64836576 18.1685605,5.88109558 18.3660282,6.09972056 Z M34.8757406,8.22249862 C34.6923777,8.48343812 34.5231197,8.73027277 34.325652,9.01942194 C34.7064826,9.25920418 35.0520511,9.491934 35.4187769,9.69645416 C35.6444543,9.82339766 35.841922,9.73876866 35.9688655,9.52014366 C36.1028615,9.29446628 36.0817042,9.08994613 35.8701317,8.9277405 C35.5527728,8.68090584 35.2213091,8.46228086 34.8757406,8.22249862 Z M28.7683459,4.92196662 C29.6005314,5.14764402 30.4397692,5.36626901 31.279007,5.58489399 C31.3213215,5.59899883 31.3495312,5.63426092 31.3918457,5.6624706 C31.3354264,5.8528859 31.279007,6.04330121 31.2225877,6.23371652 C30.58787,6.07151089 29.9602047,5.91635767 29.3466443,5.7400472 C29.1844386,5.69068027 29.156229,5.7400472 29.1209669,5.88109558 C28.937604,6.59338988 28.9305516,6.59338988 29.6498983,6.77675277 C30.0377813,6.87548663 30.4186119,6.97422049 30.7994426,7.06590194 C30.806495,7.08705919 30.806495,7.10116403 30.806495,7.10821645 C30.672499,7.68651479 30.672499,7.69356721 30.0942007,7.55251883 C29.6569507,7.44673255 29.2267532,7.31978901 28.7683459,7.19989789 C28.6696121,7.55251883 28.5779306,7.88398252 28.4791968,8.25776071 C28.8600274,8.37059942 29.2267532,8.4763857 29.6005314,8.58217198 C29.8755757,8.65974859 30.15062,8.74437761 30.4327168,8.79374454 C30.6019748,8.82900664 30.6301845,8.89247841 30.5808176,9.04763162 C30.5385031,9.17457516 30.5102934,9.31562353 30.4679789,9.46372433 C29.5159023,9.20983725 28.5779306,8.95595018 27.5976444,8.69501068 C27.6893259,8.34944216 27.7669025,8.01797847 27.8585839,7.68651479 C28.0913137,6.80496244 28.3381484,5.93046251 28.5638258,5.04891016 C28.5990879,4.9149142 28.6272976,4.88670453 28.7683459,4.92196662 Z M21.730032,4.59755536 C22.4141166,5.81057139 23.0840964,7.00243017 23.7752334,8.23660346 C23.4790318,8.28597039 23.2180923,8.33533732 22.9501004,8.38470425 C22.8302093,8.15197443 22.7385279,7.94040187 22.6186367,7.73588172 C22.5904271,7.68651479 22.4846408,7.63714786 22.421169,7.64420028 C22.0473908,7.69356721 21.6665602,7.7640914 21.292782,7.82756317 C21.1376288,7.85577284 21.0106853,7.90513977 21.0106853,8.09555508 C21.0106853,8.15902685 20.989528,8.2154462 20.9824756,8.27891797 C20.9542659,8.75143003 20.9472135,8.76553487 20.4958587,8.83605906 C20.38302,8.84311147 20.2701813,8.85721631 20.1220805,8.87837357 C20.3548103,7.48199465 20.5875401,6.12793024 20.82027,4.74565615 C21.1164715,4.69628922 21.4197255,4.64692229 21.730032,4.59755536 Z M25.1927696,4.41419247 C25.2421365,4.42124489 25.3267656,4.52703117 25.3197131,4.59050294 C25.3056083,4.95722871 25.2632938,5.31690207 25.2350841,5.68362785 C25.2139269,5.94456735 25.1927696,6.20550684 25.1786648,6.46644634 C25.1504551,6.88253905 25.1292978,7.29157934 25.1081406,7.72177689 C25.7781204,7.77114382 26.4128381,7.81345833 27.0546082,7.86282526 L27.0546082,8.51164779 C26.1448461,8.44817602 25.2350841,8.39175667 24.29006,8.3282849 C24.3817414,7.03769226 24.4734229,5.7400472 24.5651043,4.40714005 C24.7766769,4.40714005 24.981197,4.39303521 25.1927696,4.41419247 Z M17.3152178,6.49465601 C17.0260686,6.61454713 16.6311332,6.78380518 16.2432501,6.96011565 C16.2150405,6.97422049 16.2079881,7.10116403 16.2291453,7.1646358 C16.3208268,7.41147046 16.4125082,7.6512527 16.5323993,7.88398252 C16.560609,7.94745429 16.7157622,8.00387364 16.7721816,7.97566396 C17.1036452,7.841668 17.4210041,7.68651479 17.7383629,7.52430916 C17.9428831,7.41852288 18.0416169,7.22810757 17.99225,7.00243017 C17.9146734,6.6780189 17.7101533,6.50170843 17.3152178,6.49465601 Z M21.4408828,5.48616013 C21.4197255,5.50026496 21.3985683,5.50731738 21.377411,5.52142222 C21.2998344,6.0785633 21.2222578,6.62865197 21.1376288,7.22810757 C21.5255118,7.15758338 21.8710804,7.09411161 22.2378061,7.02358742 C21.9627618,6.48760359 21.7018223,5.98688186 21.4408828,5.48616013 Z" id="Combined-Shape" fill="#000000" fill-rule="nonzero"></path>
        </g>
    </g>
</svg>