<?xml version="1.0" encoding="UTF-8"?>
<svg width="48px" height="48px" viewBox="0 0 48 48" version="1.1" xmlns="http://www.w3.org/2000/svg" xmlns:xlink="http://www.w3.org/1999/xlink">
    <title>sy-cb</title>
    <g id="Page-1" stroke="none" stroke-width="1" fill="none" fill-rule="evenodd">
        <g id="sy-cb">
            <rect id="Rectangle" x="0" y="0" width="48" height="48"></rect>
            <path d="M21.9639033,28.9347054 C21.992921,28.9443893 22.02497,28.94332 22.0583063,28.9347054 L23.9944654,28.9347054 L23.9944654,30.3140943 L22.7878807,30.2384463 C22.1242591,30.1968356 21.5814557,30.210652 21.5816624,30.2691667 C21.5818691,30.3276852 22.2186772,31.0874349 22.9968024,31.9574976 C23.0233317,31.9871613 23.0493584,32.0162763 23.0748893,32.0448551 L23.2221805,32.2099977 C24.3537951,33.4813135 24.3747722,33.5764679 24.0430237,33.909916 C23.6934051,34.2613501 23.5587012,34.1514826 21.4219981,31.771516 C20.1831632,30.3916366 19.169596,29.1888499 19.169596,29.0986639 C19.169596,29.0084798 20.2551899,28.9347054 21.5820307,28.9347054 L21.9639033,28.9347054 Z M35.9512589,20.8962546 L32.8376231,24.3725301 C31.1251267,26.2844804 28.6610367,28.9585428 27.3618379,30.3148656 L24.9996511,32.7808875 L25.0018536,30.8019695 C25.0051216,27.8775908 25.1484514,27.1483753 25.7199757,27.1483753 C26.150322,27.1483753 26.1913482,27.2538228 26.2465385,28.5023641 L26.3063669,29.8563528 L29.9250536,25.9460114 L33.5437066,22.0356701 L32.2872048,22.0242178 C31.0837434,22.0132185 31.0307387,21.989162 31.0307387,21.4544922 L31.0307387,20.8962546 L35.9512589,20.8962546 Z M22.8236826,22.3363752 C22.9720976,22.3229835 22.9478457,23.1184468 23.121317,24.8405087 L23.3700604,27.3098588 L22.0486244,27.4290945 L21.9303903,26.1187517 L21.8121563,24.8084108 L21.3302297,25.3136684 C21.3007791,25.344545 21.2706911,25.3761467 21.2404707,25.4079313 L21.1499183,25.5032913 C20.9550512,25.7087427 20.7759439,25.8990053 20.7513514,25.9251375 L20.7484822,25.9281866 C20.7484822,25.9281866 20.3942266,26.3192335 20.0075068,26.7378232 L19.89641,26.8578557 C19.7664151,26.9980354 19.6362182,27.1374287 19.5177377,27.2625727 L18.5945162,28.237722 L17.7426937,27.5467572 L20.0948171,24.9781612 C21.3884814,23.5654341 22.7066363,22.3469367 22.8236826,22.3363752 Z M21.3373052,20.9950847 L18.8718075,23.6916024 C17.5157836,25.1746854 16.3602058,26.3930569 16.3038542,26.3991924 C16.2559632,26.4042872 15.7219486,26.0123118 15.5628218,25.8946034 L15.5236276,25.8655407 C15.520157,25.8629594 15.5183341,25.8616004 15.5183341,25.8616004 L17.3947212,23.7470727 L18.6569454,22.2360017 L15.5864556,22.5130582 L15.5396957,21.9948468 L15.4929377,21.4766372 L18.4151196,21.2358619 L21.3373052,20.9950847 Z M17.7623484,13.88817 L21.531781,18.0089016 C21.897638,18.4088543 22.2749981,18.820767 22.653421,19.2333106 L22.9057458,19.5083089 C22.947788,19.5541161 22.9898147,19.5999 23.0318115,19.6456451 L23.2833198,19.9195251 C24.8306661,21.6040454 26.2979462,23.1928556 26.9597407,23.8987858 C27.871944,24.8718229 28.618304,25.7498198 28.618304,25.8499189 C28.618304,25.9500162 27.5327102,26.0319371 26.2058693,26.0319371 L23.7934347,26.0319371 L23.7936049,25.2642703 C23.7966107,24.7086233 23.8526639,24.692661 24.8976195,24.692203 L26.1858288,24.6921895 L22.6628287,20.8404639 C21.1594713,19.1968332 19.81776,17.7648843 19.2440146,17.1864295 L19.1396847,17.0823087 C19.0355391,16.9796858 18.9713139,16.9213237 18.9536627,16.9142656 C18.8512822,16.8733277 18.7674988,17.4510972 18.7674988,18.1981863 L18.7672699,18.3885555 C18.764175,19.471246 18.723774,19.5525363 18.3041443,19.5563815 L17.7623484,19.5565434 L17.7623484,13.88817 Z M23.7934347,12.6345673 L23.7934347,13.1928048 C23.7934347,13.7855481 23.5078275,13.8785989 22.0343382,13.7660177 C21.6749868,13.7385597 21.381,13.8003753 21.381,13.9034024 C21.381,14.0050798 22.7205747,15.5521607 24.2354544,17.249406 L24.4144141,17.4496966 C24.5940422,17.6505238 24.7754647,17.8527263 24.9567858,18.0541951 L25.1749397,18.2962891 C26.3632653,19.6133802 27.5143959,20.8623091 28.0912497,21.4455776 L28.1734035,21.5280007 C28.3417807,21.6954435 28.4466633,21.7894204 28.4696146,21.7894204 C28.5513909,21.7894204 28.618304,21.1865633 28.618304,20.4497086 C28.618304,19.1695149 28.6406429,19.1099606 29.1208968,19.1099606 L29.6234916,19.1099606 L29.6233242,22.1291021 C29.6212182,23.5583129 29.5995019,24.6886378 29.5732419,24.6847582 C29.5721921,24.6845918 29.5676598,24.6805991 29.5597489,24.6728838 L29.5394534,24.652523 C29.2343441,24.3410184 26.915796,21.8104759 24.1452465,18.7640216 C21.1874976,15.5117235 18.7674989,12.8021086 18.7674989,12.7426618 C18.7674989,12.6848662 19.8363896,12.6372783 21.1658902,12.6345673 L23.7934347,12.6345673 Z M10.9883644,18.6807026 C11.2133835,18.6903904 11.5794416,19.0456845 12.4500445,20.02012 C13.2097473,20.8704297 13.9016255,21.5661469 13.9875192,21.5661469 C14.073411,21.5661469 14.1436597,21.0135034 14.1436597,20.3380538 C14.1436597,19.1769491 14.1710752,19.1099606 14.6462533,19.1099606 L15.1488469,19.1099606 L15.1486496,22.0197484 C15.1462984,23.3867161 15.1232283,24.4689158 15.0953319,24.4689158 C15.0665401,24.4689158 14.0712426,23.3866908 12.8658935,22.0452673 L12.7009299,21.861443 C11.4966177,20.5165367 10.5250079,19.3547472 10.5250079,19.2579897 C10.5250079,19.1590313 10.647381,18.942185 10.7969142,18.7760973 C10.854036,18.7126533 10.9133582,18.6774733 10.9883644,18.6807026 Z M32.6423184,14.1975515 C32.6994068,14.1975515 33.7829954,15.3525451 35.0503124,16.7641446 L37.3545427,19.3306643 L36.9453625,19.7851385 L36.5361805,20.2396125 L35.1718408,18.6699847 C34.4214573,17.8066875 33.7707745,17.1003572 33.7258695,17.1003572 C33.6809625,17.1003572 33.6442022,17.7099216 33.6442022,18.4549336 L33.644064,18.6396383 C33.6419036,19.7818982 33.608031,19.8045294 33.1271841,19.7388174 L32.6101661,19.6681615 L32.5743435,16.9328381 C32.5546431,15.4284041 32.5852245,14.1975515 32.6423184,14.1975515 Z M22.3960969,6.19499749 C22.5108352,6.18254873 22.5833305,7.13264171 22.5870665,8.69224125 L22.5872182,11.5181287 L22.0846236,11.5181287 C21.6296461,11.5181287 21.5856507,11.4646766 21.5822799,10.3705417 L21.5820307,10.1783807 C21.5820307,9.44152418 21.513197,8.83863285 21.4290829,8.83863285 C21.4085621,8.83863285 21.3154463,8.92168777 21.165082,9.07074202 L21.0681165,9.167958 C20.5501674,9.69227318 19.5446067,10.7798817 18.4657933,11.9702811 L18.2491767,12.2095951 C18.1767274,12.2897323 18.1040754,12.37019 18.0313433,12.4508315 L17.7039232,12.8144998 C17.6675753,12.854943 17.6312533,12.8953811 17.5949728,12.9357969 L17.377909,13.1778885 C17.3191549,13.2434952 17.2605923,13.3089523 17.2022875,13.3741859 L17.0282129,13.5691426 C15.5851442,15.1869654 14.3447265,16.6190004 14.3447265,16.7119138 C14.3447265,16.8027406 14.8723825,16.877047 15.5173227,16.877047 C16.609135,16.877047 16.6876717,16.9116772 16.6569213,17.3794572 C16.6248573,17.8671887 16.5524803,17.8836945 14.1775746,17.9445583 C13.6169566,17.9589261 13.0988068,17.966529 12.6850646,17.9676177 L12.4498437,17.9674913 C12.0064418,17.9656829 11.7312252,17.9545664 11.7312252,17.9345747 C11.7312252,17.7940432 22.1960847,6.2699355 22.3904817,6.19639193 C22.3923741,6.1956759 22.3942176,6.19520048 22.3960969,6.19499749 Z M31.3285216,12.6345673 C31.4693782,12.6345673 31.6864692,12.7708812 31.8109649,12.9374932 C31.9895647,13.1765133 31.7190613,13.5774121 30.5288412,14.8376442 C29.6991846,15.7161091 29.0203636,16.4646805 29.0203636,16.5011252 C29.0203636,16.5178131 29.1343889,16.5268446 29.3217915,16.5282124 L29.431044,16.5281983 C29.6437856,16.526779 29.9225142,16.5176944 30.2265819,16.5009372 L31.4327983,16.4345023 L31.4327983,17.770176 L26.3063668,17.7502087 L28.6894004,15.192388 C30.0000589,13.785575 31.1876668,12.6345673 31.3285216,12.6345673 Z M29.4480808,10.6324881 C29.517469,10.6283401 29.6946105,10.7860549 29.8417363,10.9829419 C30.0744985,11.2944509 29.9407117,11.5178598 28.8109288,12.7041221 C28.0968584,13.4538911 26.9924287,14.6143428 26.3566504,15.2829012 L25.2006818,16.498478 L25.2006818,15.3817094 C25.2006818,14.7674995 25.2591777,13.4962047 25.3306894,12.5566071 C25.4519416,10.9633971 25.4919399,10.8482367 25.9241993,10.8482367 C26.3495016,10.8482367 26.3926477,10.9576722 26.4475674,12.1760925 L26.5074333,13.5039481 L27.9146804,12.0719986 C28.6886713,11.2844301 29.3786927,10.6366377 29.4480808,10.6324881 Z M23.8860768,4.50000001 C24.1757,4.49708355 24.6993274,5.02809176 26.316607,6.8395638 C27.5723458,8.24608425 28.6039164,9.47224624 28.6090525,9.56435284 C28.6141151,9.6564594 27.5327102,9.73179844 26.2058693,9.73179844 L23.7934347,9.73179844 L23.7934347,8.3920506 L25.0499008,8.38940779 L26.3063668,8.38672834 L24.84887,6.79750058 C24.0472371,5.92342943 23.3913375,5.13308693 23.3913375,5.04119404 C23.3913375,4.94930111 23.5358174,4.7409321 23.7123913,4.57816785 C23.7648698,4.52979281 23.8192407,4.50070275 23.8860768,4.50000001 Z M17.1351433,34.5673274 C17.3067815,34.5666181 17.3602514,35.2644949 17.3602514,37.3851265 C17.3602514,40.5065632 17.503067,40.9885027 18.4300748,40.9957399 C18.7865528,40.9985306 18.8119116,41.0394236 18.5664681,41.215599 C18.0905703,41.5571951 17.5953126,41.4766687 17.1534219,40.9858661 C16.7785817,40.5695336 16.7500957,40.2952924 16.8016102,37.5990019 C16.8417851,35.4961746 16.9288585,34.6388815 17.108973,34.5724307 C17.1179935,34.569095 17.126702,34.5673274 17.1351433,34.5673274 Z M24.4540775,36.9303215 C24.5471313,36.9353937 24.6827373,37.1139258 24.9243338,37.5088196 C25.4731811,38.4059288 25.5450179,39.5902706 25.1075999,40.5297776 C24.7805455,41.2322381 24.4229174,41.4474368 23.6262101,41.4212546 L23.0898111,41.4036367 L23.6929014,41.1688372 C25.0464918,40.6418704 25.3674234,39.5847664 24.5951691,38.1969169 C24.3691272,37.7907004 24.2472304,37.3064811 24.3188211,37.0992713 C24.3577163,36.9866939 24.3982464,36.927279 24.4540775,36.9303215 Z M21.0675816,40.3224345 C21.2399629,40.3224345 21.381,40.422936 21.381,40.545744 C21.381,40.6685542 21.2958692,40.769016 21.1918256,40.769016 C21.08778,40.769016 20.9467429,40.6685542 20.8784072,40.545744 C20.8100714,40.422936 20.8951984,40.3224345 21.0675816,40.3224345 Z M21.7830596,40.3224345 C21.89363,40.3224345 21.9840903,40.422936 21.9840903,40.545744 C21.9840903,40.6685542 21.89363,40.769016 21.7830596,40.769016 C21.6724892,40.769016 21.5820307,40.6685542 21.5820307,40.545744 C21.5820307,40.422936 21.6724892,40.3224345 21.7830596,40.3224345 Z M19.9656419,36.414882 L19.9737528,38.7594131 L21.8819835,38.7592627 C22.8316007,38.7563689 23.5924039,38.7120619 23.5924039,38.6582917 C23.5924039,38.6026654 23.4900516,38.3076112 23.364947,38.0026421 C23.2398423,37.697673 23.2017458,37.2658965 23.2803067,37.0431508 C23.4016847,36.6989952 23.4799129,36.7555893 23.8009216,37.4197012 C24.4489922,38.7604447 24.2686616,40.1919664 23.4918707,39.8732449 C23.2707299,39.7825121 22.3815025,39.7469734 21.5158148,39.7942931 C20.6501252,39.8416282 19.839625,39.8101766 19.7146923,39.7244089 C19.5897587,39.6386486 19.0993698,39.5949934 18.6249396,39.6273994 C17.431347,39.7089217 17.4864245,39.2600891 18.8639954,37.679166 L19.9656419,36.414882 Z M19.5061745,37.6429751 C19.470164,37.6429751 19.2282536,37.8941914 18.9685653,38.2012129 L18.4963997,38.7594131 L19.0340089,38.7594131 C19.4734602,38.7594131 19.5716557,38.6574949 19.5716557,38.2012129 C19.5716557,37.8941914 19.542185,37.6429751 19.5061745,37.6429751 Z M19.1814505,35.410061 C19.285496,35.410061 19.3706249,35.5105623 19.3706249,35.6333704 C19.3706249,35.7561805 19.2295879,35.8566441 19.0572066,35.8566441 C18.8848252,35.8566441 18.7996945,35.7561805 18.8680321,35.6333704 C18.9363678,35.5105623 19.0774068,35.410061 19.1814505,35.410061 Z M19.7726864,35.410061 C19.8832568,35.410061 19.9737153,35.5105623 19.9737153,35.6333704 C19.9737153,35.7561805 19.8832568,35.8566441 19.7726864,35.8566441 C19.662116,35.8566441 19.5716557,35.7561805 19.5716557,35.6333704 C19.5716557,35.5105623 19.662116,35.410061 19.7726864,35.410061 Z M16.2663863,34.5886168 C16.3862093,34.5996124 16.4318572,35.4924705 16.3931633,37.0842635 C16.3325175,39.579102 16.2737658,39.7911004 15.6765463,39.6697222 C15.5797791,39.650052 15.3412736,39.7941146 15.1465346,39.989859 C14.8191288,40.3189541 14.7600534,40.2999772 14.3620511,39.737994 L13.9316183,39.1302413 L13.585312,39.6347434 C12.4462851,41.2940771 12.2916299,41.4388448 11.6631018,41.4339941 L11.0276015,41.4290764 L11.8515056,41.0135085 C13.0450914,40.4114441 13.2599228,39.5032755 12.5223521,38.1777615 C12.238613,37.6678432 12.1639539,37.3192357 12.2864163,37.0761883 C12.4305635,36.7901001 12.560714,36.9198371 12.9524545,37.7400259 C13.2202481,38.3006805 13.5104293,38.7594169 13.5972777,38.7594169 C13.6841242,38.7594169 13.9493203,38.393973 14.1866039,37.947294 L14.617991,37.1351352 L14.9839339,37.6370685 C15.1852033,37.9131383 15.349877,38.2786219 15.349877,38.449227 C15.349877,38.6198363 15.4822108,38.7594169 15.643916,38.7594169 C15.8763268,38.7594169 15.9500374,38.3304499 15.995728,36.7120448 C16.0275196,35.5859941 16.143997,34.6312141 16.2545674,34.5903081 C16.2585868,34.5888235 16.2625211,34.5882597 16.2663863,34.5886168 Z M8.7532857,35.6333704 C9.11979146,35.6333704 8.86998476,36.1128257 8.06232499,36.9594652 L7.20791962,37.8550897 L9.36907575,37.860669 C11.2901631,37.8656265 11.5769318,37.9181692 11.9508645,38.3334945 C12.229445,38.64291 12.3322033,38.9634112 12.255144,39.2824507 C12.1911455,39.5474179 12.1375472,39.8455012 12.1360381,39.9448564 C12.134422,40.0442111 12.0414592,40.062468 11.9292087,39.9854145 C11.8169601,39.9083629 10.5428966,39.8155909 9.0979401,39.7792459 C6.82658194,39.7221124 6.45533854,39.7619677 6.35703773,40.0736141 C6.11769795,40.8323921 5.42828895,41.4388879 4.81068071,41.4340491 L4.19235799,41.4290722 L5.01626209,41.0135047 C6.20643409,40.4131616 6.46214602,39.3278782 5.67525311,38.216775 C5.35365109,37.7626672 5.29389926,37.5004553 5.43304069,37.1541083 C5.60072722,36.7367101 5.66323856,36.7895156 6.11093464,37.7268446 L6.6041319,38.7594131 L8.92642042,38.7594131 C10.4464461,38.7594131 11.3309203,38.8507061 11.4866269,39.0236475 C11.7718412,39.3404317 11.971243,39.1907122 11.7628644,38.8162309 C11.6646445,38.6397135 10.8280014,38.5382085 9.26083436,38.5126864 C7.6536765,38.4865099 6.90635606,38.3936329 6.90635606,38.2200056 C6.90635606,37.7240351 8.39914361,35.6333704 8.7532857,35.6333704 Z M3.28227202,40.2146325 C3.51945891,40.212783 3.78481729,40.3041476 3.83746305,40.4795655 C3.87602711,40.6080641 3.67763824,40.7131886 3.3966062,40.7131886 C3.11557397,40.7131886 2.88564406,40.5918236 2.88564406,40.4434856 C2.88564406,40.2904627 3.07298942,40.2162675 3.28227202,40.2146325 Z M3.91957084,35.6333704 C4.14335254,35.6333704 4.89598174,36.7753347 4.89598174,37.1148711 C4.89598174,37.5484177 4.71244639,37.4931298 4.3074264,36.9375887 C4.09927718,36.6520793 3.85643033,36.5237686 3.71193391,36.6229582 C3.54288434,36.7390029 3.74900638,37.1241848 4.38300071,37.8770018 C5.3302422,39.0017726 5.36094806,39.0755903 5.1331656,39.6805845 C5.03845343,39.9321469 4.87313963,39.9944745 4.59445496,39.8836691 C4.37331476,39.7957421 3.6976015,39.7017788 3.09287713,39.6748939 C2.48815295,39.6480109 1.87750157,39.5192231 1.73587819,39.3886744 C1.43923809,39.1152334 1.41789699,37.9623562 1.69737522,37.3080465 C1.85150737,36.9471955 1.87020682,36.9945192 1.79467855,37.5545914 C1.66409473,38.5229209 1.97817141,38.7604714 3.37818056,38.7523283 L4.59445496,38.7452813 L4.03849305,38.2846054 C3.16024732,37.5569273 3.01034709,37.0738542 3.42244611,36.2990065 C3.6171535,35.9329123 3.84086528,35.6333704 3.91957084,35.6333704 Z M14.4503251,38.0758301 L14.4386163,38.0758301 C14.3813869,38.0794065 14.3447265,38.1380186 14.3447265,38.2631685 C14.3447265,38.5252717 14.9759728,39.4724182 15.0763557,39.3609251 C15.1245006,39.3074505 15.0555362,38.9995365 14.923078,38.6766446 C14.7751475,38.3160341 14.5723068,38.0833924 14.4503251,38.0758301 Z M5.49562174,35.404519 C5.63016555,35.399819 5.7332976,35.6345431 5.65737806,35.8875148 C5.58928305,36.1144005 5.54193476,36.1142577 5.41527578,35.8866316 C5.32867526,35.7310002 5.31210521,35.5433724 5.37846135,35.4696694 C5.41781917,35.4259558 5.45794961,35.4058345 5.49562174,35.404519 Z M35.7551105,35.410061 C35.5892559,35.410061 35.4535466,35.5105623 35.4535466,35.6333704 C35.4535466,35.7561805 35.5892559,35.8566441 35.7551105,35.8566441 C35.9209652,35.8566441 36.0566369,35.7561805 36.0566369,35.6333704 C36.0566369,35.5105623 35.9209652,35.410061 35.7551105,35.410061 Z M37.3117086,36.9360848 C37.4071227,36.9358654 37.5491689,37.1140912 37.790664,37.5088196 C38.0532353,37.9379992 38.2680427,38.3949615 38.2680427,38.5242851 C38.2680427,38.6536106 38.3690606,38.7594131 38.4925267,38.7594131 C38.6159962,38.7594131 38.672316,38.5695904 38.6176879,38.3375685 C38.5630575,38.1055451 38.5915451,37.7842226 38.6809665,37.6235209 C38.7999652,37.4096659 38.9087314,37.4902696 39.0867712,37.9242769 C39.3112534,38.471502 39.3623149,38.4921683 39.7484422,38.191779 C40.0454621,37.96071 40.7350721,37.8662468 42.1254188,37.8662468 C43.8782273,37.8662468 44.1065524,37.9131664 44.2991284,38.3128301 C44.6086774,38.9552498 44.8579545,38.8683281 45.3472234,37.9472903 L45.7786466,37.1351315 L46.1445904,37.6370648 C46.5738244,38.22582 46.6233615,39.3958586 46.2434719,39.9728985 C45.9913909,40.3558009 45.9516668,40.3436854 45.5362511,39.7571119 L45.096129,39.135633 L44.6473789,39.5871716 C44.3074631,39.9291889 44.0669977,39.9972784 43.6559194,39.8679604 C43.3574415,39.7740649 42.0701006,39.697248 40.7951408,39.697248 L38.4770378,39.697248 L38.066901,40.4342715 C37.614669,41.2469921 37.2953233,41.447337 36.4925383,41.4219143 C35.9801639,41.4056813 35.9864069,41.3927614 36.6319799,41.1332704 C37.8833081,40.6302998 38.2033226,39.4882924 37.4681801,38.1491291 C37.2502096,37.7520664 37.1261836,37.2699801 37.192565,37.0778364 C37.2245482,36.9852713 37.2617295,36.9362732 37.3117086,36.9360848 Z M36.1075105,36.0860838 L36.6933849,37.462058 C37.1077838,38.4352961 37.2429293,39.0218602 37.1550905,39.4660474 C37.0018195,40.2411281 36.8364159,40.3670786 36.5010552,39.9640886 C36.3151149,39.7406494 35.7140655,39.6525776 34.3749511,39.6525776 C32.6834594,39.6525776 32.4670299,39.6040211 32.0709783,39.1357796 C31.524747,38.4899827 31.5096302,37.5576712 32.0359262,36.9731199 C32.468522,36.4926405 33.5330267,36.3693888 33.7580237,36.7737411 C33.8502224,36.9394322 33.7572382,36.9721803 33.4759496,36.8730265 C32.8908645,36.6667714 32.2369551,37.1126216 32.2369551,37.717815 C32.2369551,38.6111355 32.5949609,38.7596254 34.739867,38.7559987 C36.1186057,38.7536775 36.6645156,38.6838461 36.4587341,38.5361396 C36.2928795,38.4170917 35.9083966,38.3181259 35.6043295,38.3162445 C34.9140055,38.3119807 34.9085293,38.0076919 35.57948,36.9323399 L36.1075105,36.0860838 Z M35.7542667,37.2864538 C35.7104422,37.2867807 35.6657946,37.3003265 35.6232687,37.329519 C35.4153523,37.4722437 35.5946024,37.8662467 35.8674624,37.8662467 C35.9715062,37.8662467 36.0566369,37.7825347 36.0566369,37.6801939 C36.0566369,37.4530526 35.9107833,37.2853375 35.7542667,37.2864538 Z M29.577831,36.5422098 C29.5476819,36.5457391 29.494012,36.6388493 29.3971715,36.8238423 C29.1901478,37.2193132 29.2164087,37.5450803 29.5216729,38.3686575 C29.61978,38.6333482 29.5739917,38.7594131 29.3797733,38.7594131 C29.20596,38.7594131 28.9844978,38.3166488 28.8173878,37.6350465 C28.6043373,36.7660586 28.5004308,36.5926964 28.3598316,36.8717411 C28.1828536,37.2229891 28.2186517,37.5651225 28.5164854,38.3686575 C28.6274617,38.6680695 28.5623132,38.7594131 28.2377526,38.7594131 C28.0047819,38.7594131 27.8141472,38.6727473 27.8141472,38.566824 C27.8141472,38.4609011 27.5510199,38.0064664 27.2294079,37.556976 L26.6446705,36.7397151 L26.3049348,37.7277263 C25.785329,39.2388986 26.066035,39.7660046 27.3618379,39.7125525 C27.5000504,39.706851 27.6131165,39.826173 27.6131165,39.9777056 C27.6131165,40.3558519 27.0304782,40.8869306 26.3063669,41.1688372 L25.7032765,41.4036368 L26.3657912,41.4212546 C26.9936408,41.4379613 27.3450016,41.166648 28.134393,40.055703 C28.2872243,39.840615 28.7462933,39.7596431 29.6421734,39.7897057 C30.4362328,39.8163484 30.9868465,39.7341098 31.0779026,39.5752796 C31.3278056,39.1393631 31.2325042,38.2378418 30.8528323,37.4464226 C30.568349,36.8534182 30.4636325,36.7700916 30.3642964,37.0576117 C30.2947579,37.2588887 30.3257959,37.6804324 30.4332636,37.9943828 C30.6707164,38.688063 30.6736706,38.7594131 30.4648672,38.7594131 C30.2552219,38.7594131 29.6254028,37.3018637 29.6173614,36.7980757 C29.6145951,36.6247435 29.6079782,36.5386806 29.577831,36.5422098 L29.577831,36.5422098 Z M26.6529299,37.9867493 C26.6573461,37.9865614 26.6617793,37.986738 26.666252,37.9869371 C26.7775722,37.9918193 26.9051462,38.0953294 27.0069798,38.3066696 C27.1929577,38.6926391 27.1647762,38.7594923 26.8160426,38.7594923 C26.5910118,38.7594923 26.4069001,38.6147078 26.4069001,38.4377411 C26.4069001,38.1468045 26.5159896,37.9905998 26.6529299,37.986828 L26.6529299,37.9867493 Z M16.6587933,43.4485132 C16.590091,43.4485132 16.5291218,43.4600059 16.4748307,43.4860132 L16.669254,43.4860132 C16.6656282,43.4618288 16.6621186,43.4485132 16.6587933,43.4485132 Z" id="path" fill="#656565" fill-rule="nonzero"></path>
        </g>
    </g>
</svg>