<?xml version="1.0" encoding="UTF-8"?>
<svg width="48px" height="48px" viewBox="0 0 48 48" version="1.1" xmlns="http://www.w3.org/2000/svg" xmlns:xlink="http://www.w3.org/1999/xlink">
    <title>th-bangkokbank</title>
    <g id="Page-1" stroke="none" stroke-width="1" fill="none" fill-rule="evenodd">
        <g id="th-bangkokbank">
            <rect id="Rectangle" x="0" y="0" width="48" height="48"></rect>
            <path d="M24.001808,1.5 C24.0456644,1.5 24.0968301,1.53767442 24.0968301,1.53767442 C24.5452174,1.95350958 27.6978119,6.02504844 31.0313627,10.5323784 L31.2697472,10.8550283 C31.4686006,11.1244483 31.6678823,11.3951408 31.8670602,11.6664266 L32.1059897,11.9922109 C32.2651974,12.2095323 32.4242023,12.4270597 32.5827321,12.6444452 L32.8201365,12.9703738 C32.8596331,13.024663 32.8990915,13.0789325 32.9385075,13.1331768 L33.2658994,13.5845141 C34.679547,15.5367758 36.0223937,17.4365511 37.0939713,19.0280232 C37.4521314,19.6130232 37.8510153,20.1655813 38.1621865,20.6574418 C39.1113632,22.3977906 39.6971585,23.5374417 40.1043961,25.0758139 C40.6087441,27.2996511 40.6306722,30.0624417 40.1712248,32.333372 C39.7577221,34.3311627 37.865634,36.3655812 35.963104,37.8872091 L33.0508339,40.2031394 C33.0508339,40.2031394 32.9172563,40.2996349 32.6827385,40.4686809 L32.576146,40.5455013 C31.8068345,41.0998393 30.211795,42.2470717 28.6107833,43.3857748 L28.332658,43.5834561 L28.0553684,43.7802648 C26.2116818,45.0878523 24.4874512,46.2904698 24.1573936,46.452907 C24.1573936,46.452907 24.0842997,46.5 24.0007638,46.5 C23.9161838,46.5 23.8420457,46.452907 23.8420457,46.452907 C23.512442,46.2904698 21.7882706,45.0878523 19.944506,43.7802648 L19.6672037,43.5834561 L19.3890638,43.3857748 C17.7879633,42.2470717 16.1927517,41.0998393 15.4233506,40.5455013 L15.3167456,40.4686809 C15.0822002,40.2996349 14.9486054,40.2031394 14.9486054,40.2031394 L12.0373794,37.8872091 C10.1348494,36.3655812 8.24276136,34.3311627 7.82717028,32.333372 C7.36876705,30.0624417 7.39173943,27.2996511 7.89817579,25.0779069 C8.30541328,23.5384883 8.89016455,22.3988371 9.83934116,20.6584883 C10.1515566,20.1655813 10.5504405,19.6151162 10.9086006,19.0290697 C12.2271312,17.0703348 13.956792,14.6444773 15.72377,12.2285003 L16.0554244,11.7757368 C18.1575161,8.91044334 20.2792848,6.10112333 21.7947579,4.14654719 L22.0289134,3.8451495 C23.0209629,2.57088237 23.7137554,1.71643954 23.9067859,1.53767442 C23.9067859,1.53767442 23.9569075,1.5 24.001808,1.5 L24.001808,1.5 Z M12.1449319,24.3777907 C11.8682192,24.4353488 11.7690204,24.7566278 11.735606,24.9722093 C10.8198437,28.2624417 10.5191145,31.5443022 13.5003018,34.8303486 C15.4425113,36.3729068 17.4880966,37.7637207 19.5148863,39.2665115 C19.5148863,39.2665115 19.5266544,39.275072 19.5483153,39.2908157 L19.6042716,39.3314728 C19.7630207,39.4467829 20.109984,39.6985332 20.4545671,39.9467586 L20.6015441,40.0525171 C20.8201241,40.2096069 21.0264682,40.3569766 21.1699411,40.4574417 C21.263919,40.4658138 21.3965323,40.4940697 21.4518749,40.4072092 C21.4458945,40.1258402 21.4549255,39.8357835 21.468835,39.5418597 L21.4817158,39.2890904 C21.5610658,37.81039 21.6899996,36.2694449 20.6018971,35.2688371 C18.6106102,32.9236045 16.5034172,30.672558 14.7700474,28.1734883 C14.7700474,28.1734883 14.1202696,27.2418701 13.419879,26.2306557 L13.2881089,26.0403282 L13.0901496,25.7540693 C12.7393601,25.2464258 12.3993223,24.7521654 12.1449319,24.3777907 L12.1449319,24.3777907 Z M35.8378002,24.3777907 C35.5830945,24.7521654 35.2429318,25.2464258 34.8921216,25.7540693 L34.694161,26.0403282 C33.9457932,27.1217787 33.2126847,28.1734883 33.2126847,28.1734883 C32.0202751,29.8915987 30.6526562,31.4924794 29.2669304,33.0873317 L28.5102284,33.9573217 C28.1319239,34.3926861 27.7543971,34.829106 27.380835,35.2688371 C26.4178228,36.1550897 26.4080081,37.4652314 26.4731265,38.7805679 L26.4864299,39.0351016 L26.5001895,39.2890904 C26.5204638,39.6693276 26.5375021,40.0454491 26.529813,40.4072092 C26.5872439,40.4940697 26.718813,40.4658138 26.8138352,40.4574417 C27.2910339,40.1215115 28.4678459,39.267558 28.4678459,39.267558 C30.4946355,37.7637207 32.5423091,36.3729068 34.4824303,34.8303486 C37.4646618,31.5453487 37.1649767,28.2624417 36.2460819,24.9711627 C36.2137118,24.7566278 36.1145128,24.4353488 35.8378002,24.3777907 L35.8378002,24.3777907 Z M24.001808,7.41697671 C23.9569075,7.41697671 23.9203605,7.46616277 23.9203605,7.46616277 C23.1449804,8.44925577 22.1743517,9.73780798 21.1786036,11.0836877 L20.9649065,11.3728775 L20.7727783,11.6334549 L20.4845746,12.0252939 L20.1971641,12.4171239 C20.1334504,12.5040983 20.0698627,12.5909739 20.0064458,12.6776854 L19.8167521,12.9372626 C18.083412,15.3110097 16.5131142,17.5112588 16.03783,18.1787378 L15.9903694,18.2454079 C15.9258289,18.3360963 15.8915168,18.3844185 15.8915168,18.3844185 C15.8453522,18.4526621 15.758085,18.5801394 15.6662674,18.7139415 L15.5873047,18.828944 C15.4566847,19.0190829 15.3380915,19.191279 15.3380915,19.191279 C14.6927767,20.1697673 14.741854,20.8918604 14.7763126,21.6767441 C14.8211582,22.5728334 15.2053944,23.2661779 15.6171285,23.9591695 L15.7630804,24.2040697 C18.3328533,27.2776743 21.2576539,30.7343022 23.8368247,33.7974417 C23.8984323,33.8612789 23.9621285,33.8905813 24.0038964,33.8916278 C24.038355,33.8895348 24.0989185,33.8612789 24.1605262,33.7963952 C26.739697,30.7343022 29.6644976,27.2766279 32.2342705,24.2040697 C32.6968505,23.4265116 33.1688284,22.6782557 33.2210383,21.6767441 C33.2544526,20.8918604 33.3045742,20.1708139 32.6592594,19.1902325 C32.6592594,19.1902325 32.5406662,19.0183262 32.4100462,18.828462 L32.3310836,18.7136201 C32.2392659,18.5799974 32.1519987,18.4526621 32.1058341,18.3844185 C32.1058341,18.3844185 32.0946571,18.3686809 32.0730625,18.3383127 L32.0421971,18.2949189 C31.9885441,18.2195068 31.9021223,18.0981259 31.7873602,17.9372323 L31.7067023,17.824187 C31.056881,16.9137136 29.6924269,15.008506 28.2046671,12.9705451 L27.9934053,12.6814015 L27.7808701,12.3910287 C27.5323142,12.0517544 27.2819183,11.7110784 27.0323421,11.3728775 L26.8186824,11.0836877 C26.7475707,10.9875534 26.676588,10.8917117 26.6057964,10.7962528 L26.3940562,10.5111154 C25.5498836,9.37588405 24.742145,8.30881391 24.0780346,7.46616277 C24.0780346,7.46616277 24.0414876,7.41697671 24.001808,7.41697671 Z" id="th" fill="#000000" fill-rule="nonzero"></path>
        </g>
    </g>
</svg>