<?xml version="1.0" encoding="UTF-8"?>
<svg width="48px" height="48px" viewBox="0 0 48 48" version="1.1" xmlns="http://www.w3.org/2000/svg" xmlns:xlink="http://www.w3.org/1999/xlink">
    <title>th-scb</title>
    <g id="Page-1" stroke="none" stroke-width="1" fill="none" fill-rule="evenodd">
        <g id="th-scb">
            <rect id="Rectangle" x="0" y="0" width="48" height="48"></rect>
            <path d="M22.2181707,1.5 L22.3087726,5.57410514 C22.3421861,6.79418592 22.3571155,7.91115107 22.3586735,8.67608731 L22.3586866,8.92643019 C22.3576761,9.39746583 22.3505395,9.68601192 22.3389733,9.70947501 C22.3087726,9.77073978 21.3121514,9.43378369 20.073925,8.97429815 C17.0538605,7.84090047 13.27878,7.74900338 11.6177445,8.79050393 C9.17149233,10.3527548 8.35607491,14.6106541 9.5036994,20.2163778 C10.6815246,26.0671604 14.3660032,31.8873106 20.3155301,37.3398723 C21.432954,38.3813729 22.7617823,39.4228734 23.2449926,39.6679324 C24.0906107,40.1274179 24.1812126,40.0967856 25.7214455,39.0246526 C27.8958919,37.5236665 32.3051859,32.8062816 34.2078265,29.9881037 C37.1976903,25.54641 38.3755155,22.6669673 38.9191271,18.164009 C39.5533406,13.1403004 38.5567193,9.89326924 35.9594639,8.54544497 C34.509833,7.77963575 30.6743512,7.99406234 28.1072964,8.97429815 C26.9294713,9.40315133 25.8724487,9.77073978 25.7516461,9.77073978 C25.6635609,9.77073978 25.6236473,8.79353529 25.6201969,7.40916224 L25.6201059,7.04456523 C25.6208815,6.63028372 25.6245517,6.18675253 25.6308435,5.72726698 L25.7214455,1.65316185 L30.2515421,1.59189711 L34.7816388,1.5 L40.6707644,4.34881037 C43.9022336,5.94169357 46.5296894,7.35078257 46.5002492,7.50394443 C46.5002492,7.65710625 45.1404597,13.1403004 43.4794246,19.6956275 L40.5197612,31.6422516 L34.4796323,37.1560781 L34.1572931,37.4532957 C33.9418975,37.6519007 33.7256219,37.8513119 33.5092206,38.0508464 L33.1846187,38.3501554 L32.6985996,38.7983459 C29.950502,41.3327427 27.3352315,43.7484604 26.4160603,44.6303762 C25.2986364,45.6718767 24.2114133,46.529583 24,46.4989507 C23.7886042,46.4989507 22.3993746,45.3349207 20.8893424,43.9564639 C19.9301923,43.0431656 18.070253,41.3191495 16.0907255,39.4850358 L15.7503522,39.1696685 L15.2373124,38.694289 C15.0660764,38.5356086 14.8947818,38.3768546 14.7239204,38.2184683 L14.3829211,37.9023167 C13.872726,37.4292167 13.3693819,36.9620731 12.8861716,36.5127984 C9.23189361,33.1432377 7.54065753,31.3665603 7.35945366,30.7539129 C6.57423692,27.7213083 1.44012736,7.16698834 1.50052865,7.13635598 C1.53072929,7.10572361 4.21858664,5.84979648 7.48025626,4.28754562 L13.3995825,1.5 L22.2181707,1.5 Z" id="path-1" fill="#000000" fill-rule="nonzero"></path>
        </g>
    </g>
</svg>