<?xml version="1.0" encoding="UTF-8"?>
<svg width="48px" height="48px" viewBox="0 0 48 48" version="1.1" xmlns="http://www.w3.org/2000/svg" xmlns:xlink="http://www.w3.org/1999/xlink">
    <title>ua-creditagricole</title>
    <g id="Page-1" stroke="none" stroke-width="1" fill="none" fill-rule="evenodd">
        <g id="ua-creditagricole">
            <rect id="Rectangle" x="0" y="0" width="48" height="48"></rect>
            <path d="M21.2910804,14.7265455 L21.2707456,14.7250157 C21.2777571,14.7679838 21.2845366,14.8115472 21.2910804,14.855714 C21.0310317,14.7738716 20.6844178,14.7453532 20.3084584,14.7503393 C18.9416149,14.825027 17.660134,15.0798563 16.1678086,15.6251088 C14.9977976,16.0575424 12.7706473,17.0487701 10.2269057,18.8767849 C6.90132142,21.2664018 5.0045271,23.6560187 4.80631347,25.9220832 C4.63287654,27.9129626 6.44708185,29.0923269 9.45607488,29.3478559 C16.5744057,29.9678733 24.8002062,26.5067097 31.1187909,22.9410915 L31.1026551,22.9006639 L28.3166524,15.5857967 L24.6827358,23.6616347 C23.4549125,26.2028842 19.4383335,26.9413909 16.6275541,27.3485525 L17.1368531,26.2674684 L25.2691178,10.3572812 L31.609201,10.3572812 L36.1515967,20.0056051 L36.168,20.044 L36.1818794,20.0364933 L46.5,14.319384 L46.4669644,19.6798759 L38.1750275,24.6135503 L38.159,24.622 L42.2439129,33.7648563 L39.4166157,33.7592403 L37.211489,33.7452003 C36.2837391,33.7592403 35.378013,33.6890401 34.9925976,32.6753483 L34.2107549,30.715357 L32.916,27.438 L32.28486,27.7704171 C28.1732847,29.9236384 23.9716444,32.0070418 19.1960724,33.127438 C14.5132754,34.22537 9.35972103,34.3685786 5.76434602,32.2401067 C2.52685672,30.3306596 1.46971736,26.5875816 1.53028264,23.8385394 C1.57157714,22.0386047 2.43050288,19.5198193 4.1180717,17.4222355 C7.25920715,13.513485 13.1835923,10.1298324 17.9021779,9.97539182 C19.5842408,9.91923161 20.652392,10.4892577 21.2910804,14.7265455 Z M46.4504466,7.875 L46.4504466,12.0224314 L38.4530772,16.475936 C37.6657286,16.8859055 36.6553897,16.5798324 36.380093,15.664421 L35.455096,13.4769808 C36.7655084,13.1905638 38.8137159,12.0448955 38.8137159,12.0448955 L44.7683837,8.80164345 L46.4504466,7.875 Z M1.5,36.3959621 L43.3643705,36.3959621 L43.3643705,40.125 L1.5,40.125 L1.5,36.3959621 Z" id="Combined-Shape" fill="#006F4E" fill-rule="nonzero"></path>
        </g>
    </g>
</svg>