<?xml version="1.0" encoding="UTF-8"?>
<svg width="48px" height="48px" viewBox="0 0 48 48" version="1.1" xmlns="http://www.w3.org/2000/svg" xmlns:xlink="http://www.w3.org/1999/xlink">
    <title>uanb</title>
    <g id="Page-1" stroke="none" stroke-width="1" fill="none" fill-rule="evenodd">
        <g id="uanb" fill-rule="nonzero">
            <rect id="Rectangle" x="0" y="0" width="48" height="48"></rect>
            <path d="M30.3725011,1.5 C30.8119334,1.5 31.1759702,1.83752929 31.2148418,2.27746213 C31.6377769,7.30757547 33.1775449,13.1710374 35.5514082,18.7854185 C36.2064273,20.3251669 36.9521601,21.8730972 37.7697586,23.3779413 C37.9168928,23.6467836 37.9086441,23.9692361 37.7519557,24.2275544 C36.9367151,25.5834119 36.1921611,26.9823556 35.5418506,28.3929448 C33.1833055,33.4905574 31.7660598,39.1584826 31.2147115,45.722571 C31.1758333,46.1636589 30.8118032,46.5 30.3723709,46.5 L17.0528346,46.5 C16.6134057,46.5 16.244737,46.154355 16.2116761,45.7097704 C15.9006569,41.1998569 15.4730097,35.0244996 12.4559089,28.3847961 C11.8138469,26.9742068 11.0740049,25.5776055 10.2481613,24.2333608 C10.0904376,23.9714795 10.083358,23.6431217 10.2317979,23.3709473 C11.0599958,21.8800582 11.8033743,20.3379674 12.4442574,18.7912249 C14.5671855,13.6633266 15.8006494,8.26543148 16.2118063,2.29026257 C16.2447904,1.84333567 16.6135358,1.5 17.0529648,1.5 Z M29.6055626,3.20038088 L17.8352182,3.20038088 C17.3580899,9.04870001 16.1022413,14.3721018 14.0005223,19.4453013 C13.3973386,20.9024406 12.7069744,22.352586 11.943569,23.7666724 C12.6975504,25.0375785 13.3843781,26.350383 13.9899194,27.6771756 C16.949294,34.1923714 17.531272,40.4387252 17.841109,44.7996194 L29.6020295,44.7996194 C30.2181737,38.3635684 31.6636947,32.7538389 34.0116369,27.6736785 C34.6242447,26.3527254 35.3098969,25.0410755 36.0615206,23.7666724 C35.3040061,22.3479343 34.6136418,20.901286 33.9998553,19.45345 C31.6790096,13.961267 30.1309932,8.22703013 29.6055626,3.20038088 Z M28.0516329,6.4009901 C28.5822341,10.6669515 29.7716322,15.3895764 31.473825,19.9375975 C31.86792,20.98735 32.3913981,21.9642199 32.8946941,22.9052712 C33.068018,23.2301627 33.2365607,23.5517114 33.3991812,23.8636912 C32.7973606,25.0174588 32.2477651,26.2070778 31.7587123,27.4024646 C29.1448819,33.7759599 28.233251,39.5841561 27.9174986,42.9356436 L18.6290278,42.9356436 Z" id="Shape" fill="#00854A"></path>
        </g>
    </g>
</svg>