<?xml version="1.0" encoding="UTF-8"?>
<svg width="48px" height="48px" viewBox="0 0 48 48" version="1.1" xmlns="http://www.w3.org/2000/svg" xmlns:xlink="http://www.w3.org/1999/xlink">
    <title>Group</title>
    <g id="Page-1" stroke="none" stroke-width="1" fill="none" fill-rule="evenodd">
        <g id="Group">
            <rect id="Rectangle" x="0" y="0" width="48" height="48"></rect>
            <g id="A&amp;S" transform="translate(1.500000, 16.125000)" fill="#74ACDF" fill-rule="nonzero">
                <path d="M11.2339515,13.3630528 L5.71326676,13.3630528 L4.95363766,15.9522111 L0,15.9522111 L5.89514979,0.267475036 L11.1804565,0.267475036 L17.0756063,15.9522111 L12.0042796,15.9522111 L11.2339515,13.3630528 Z M10.2175464,9.97146933 L8.48430813,4.33309558 L6.7617689,9.97146933 L10.2175464,9.97146933 Z" id="Shape"></path>
                <path d="M26.3445078,10.8666191 L28.6126961,11.3730385 C28.4938184,11.7914883 28.3796957,12.1267237 28.2703281,12.3787447 C28.1609605,12.6307656 28.0064194,12.9279601 27.8067047,13.2703281 L28.8980029,14.0192582 C29.031146,14.1048502 29.20233,14.2070851 29.4115549,14.3259629 L27.8495007,16.1233951 C27.564194,15.9712316 27.2681883,15.7952924 26.9614836,15.5955777 C26.6547789,15.3958631 26.3801712,15.224679 26.1376605,15.0820257 C25.6336186,15.4148835 25.1295768,15.6573942 24.625535,15.8095578 C23.9265335,16.0187827 23.1324299,16.1233951 22.243224,16.1233951 C20.8499762,16.1233951 19.8133619,15.8333333 19.1333809,15.2532097 C18.4533999,14.6730861 18.1134094,13.9693295 18.1134094,13.1419401 C18.1134094,12.5475511 18.3131241,11.9852592 18.7125535,11.4550642 C19.1119829,10.9248692 19.7658107,10.4767 20.6740371,10.1105563 C20.2936282,9.64931051 20.032097,9.24869234 19.8894437,8.90870185 C19.7467903,8.56871136 19.6754636,8.22277699 19.6754636,7.87089872 C19.6754636,7.12910128 19.9583928,6.51806942 20.5242511,6.03780314 C21.0901094,5.55753685 21.948407,5.31740371 23.0991441,5.31740371 C24.2736567,5.31740371 25.1367095,5.54564907 25.6883024,6.0021398 C26.2398954,6.45863053 26.5156919,7.00546838 26.5156919,7.64265335 C26.5156919,7.99928673 26.4312886,8.34165478 26.2624822,8.66975749 C26.0936757,8.9978602 25.8903947,9.26414646 25.6526391,9.46861626 C25.4148835,9.67308607 24.989301,9.97741322 24.3758916,10.3815977 C24.8846885,10.8903947 25.4148835,11.3635283 25.9664765,11.8009986 C26.1138849,11.5061816 26.2398954,11.1947218 26.3445078,10.8666191 Z M23.0064194,9.03352354 C23.3820732,8.82905373 23.672135,8.60675226 23.8766049,8.36661912 C24.0810747,8.12648597 24.1833096,7.89942939 24.1833096,7.68544936 C24.1833096,7.46195911 24.0977175,7.27294341 23.9265335,7.11840228 C23.7553495,6.96386115 23.5199715,6.88659058 23.2203994,6.88659058 C22.9255825,6.88659058 22.6854494,6.9721826 22.5,7.14336662 C22.3145506,7.31455064 22.221826,7.51664289 22.221826,7.74964337 C22.221826,8.04446029 22.4833571,8.47242035 23.0064194,9.03352354 Z M21.9721826,11.5727532 C21.5727532,11.8533048 21.3076557,12.0934379 21.1768902,12.2931526 C21.0461246,12.4928673 20.9807418,12.7044698 20.9807418,12.9279601 C20.9807418,13.2750832 21.1305278,13.5841655 21.4300999,13.8552068 C21.7296719,14.1262482 22.1195911,14.2617689 22.5998573,14.2617689 C23.1181645,14.2617689 23.7006657,14.0596767 24.3473609,13.6554922 C23.7291964,13.179981 22.9374703,12.4857347 21.9721826,11.5727532 Z" id="Shape"></path>
                <path d="M30.7703281,10.7631954 L35.3815977,10.4743224 C35.4814551,11.2232525 35.6847361,11.7938659 35.9914408,12.1861626 C36.4907275,12.82097 37.2039943,13.1383738 38.1312411,13.1383738 C38.8231098,13.1383738 39.3562767,12.9761056 39.7307418,12.6515692 C40.1052068,12.3270328 40.2924394,11.9507846 40.2924394,11.5228245 C40.2924394,11.1162625 40.1141227,10.7524964 39.7574893,10.4315264 C39.4008559,10.1105563 38.5734665,9.80741797 37.275321,9.52211127 C35.149786,9.04422254 33.6340942,8.40941512 32.7282454,7.61768902 C31.8152639,6.82596291 31.3587732,5.81669044 31.3587732,4.58987161 C31.3587732,3.78388017 31.592368,3.0224679 32.0595578,2.30563481 C32.5267475,1.58880171 33.2293153,1.02532097 34.1672611,0.615192582 C35.1052068,0.205064194 36.3908702,0 38.0242511,0 C40.0285307,0 41.5567047,0.372681883 42.6087732,1.11804565 C43.6608417,1.86340942 44.2867332,3.04921541 44.4864479,4.67546362 L39.9179743,4.94293866 C39.796719,4.23680456 39.5417261,3.7232525 39.1529957,3.40228245 C38.7642653,3.08131241 38.2275321,2.92082739 37.542796,2.92082739 C36.9793153,2.92082739 36.5549215,3.04029957 36.2696148,3.27924394 C35.9843081,3.5181883 35.8416548,3.80884451 35.8416548,4.15121255 C35.8416548,4.40085592 35.9593438,4.62553495 36.1947218,4.82524964 C36.4229672,5.032097 36.9650499,5.22467903 37.82097,5.40299572 C39.9393723,5.85948645 41.4568474,6.32132668 42.3733951,6.78851641 C43.2899429,7.25570613 43.9568474,7.83523538 44.3741084,8.52710414 C44.7913695,9.2189729 45,9.99286733 45,10.8487874 C45,11.8544936 44.721826,12.7817404 44.1654779,13.6305278 C43.6091298,14.4793153 42.831669,15.1230385 41.8330956,15.5616976 C40.8345221,16.0003566 39.5756063,16.2196862 38.0563481,16.2196862 C35.3887304,16.2196862 33.5413695,15.7061341 32.5142653,14.67903 C31.4871612,13.6519258 30.9058488,12.3466476 30.7703281,10.7631954 Z" id="Path"></path>
            </g>
        </g>
    </g>
</svg>