<?xml version="1.0" encoding="UTF-8"?>
<svg width="48px" height="48px" viewBox="0 0 48 48" version="1.1" xmlns="http://www.w3.org/2000/svg" xmlns:xlink="http://www.w3.org/1999/xlink">
    <title>vn-sbv</title>
    <g id="Page-1" stroke="none" stroke-width="1" fill="none" fill-rule="evenodd">
        <g id="vn-sbv">
            <rect id="Rectangle" x="0" y="0" width="48" height="48"></rect>
            <path d="M24.5134331,7.125 C24.8716161,7.125 25.2425912,7.13765467 25.6007742,7.15030934 C25.9461649,7.162964 26.2787633,7.18827334 26.624154,7.21358268 C27.0207137,7.25154668 27.4300656,7.28951069 27.8266253,7.34012936 C28.1336392,7.3654387 28.4534454,7.4034027 28.7604594,7.4413667 C29.0802656,7.47933071 29.361695,7.51729471 29.6559167,7.58056805 C30.0396842,7.64384139 30.4106593,7.7197694 30.7944268,7.79569741 C31.4596237,7.94755343 32.150405,8.08675478 32.8156019,8.26392013 C33.5575523,8.46639483 34.2867104,8.69417885 35.0158685,8.93461755 C35.5787274,9.12443757 36.1415863,9.33956693 36.691653,9.58000562 C37.3184731,9.84575366 37.932501,10.136811 38.5337367,10.4405231 C39.0965956,10.7315804 39.63387,11.0479471 40.1711444,11.3896232 C40.7467955,11.7566085 41.3096544,12.1489033 41.8597211,12.5538526 C42.166735,12.7816367 42.4609567,13.0220754 42.7423862,13.2878234 C43.1133614,13.6168448 43.4971288,13.9458661 43.8425195,14.3128515 C44.2262869,14.7051462 44.5716776,15.1227503 44.9298605,15.5403543 C45.4031737,16.0971597 45.8253179,16.7045838 46.1835008,17.3373172 C46.554476,17.957396 46.8614899,18.602784 47.1301272,19.2734814 C47.3731799,19.9062148 47.5778558,20.5642576 47.7313628,21.2223003 C47.8081163,21.5513217 47.8592853,21.8929978 47.897662,22.2346738 C47.9360388,22.5763498 47.9616233,22.9180259 48,23.2597019 C47.9744155,23.5127953 47.9872078,23.7658886 48,23.9683633 C47.9872078,24.3480034 47.9872078,24.6896794 47.948831,25.0187008 C47.9104543,25.6134702 47.8081163,26.2082396 47.6674016,26.7903543 C47.5394791,27.2332677 47.4499333,27.6888358 47.2964264,28.1190945 C47.0405814,28.8910292 46.707983,29.625 46.3114233,30.3336614 C45.9404481,31.0043588 45.5310962,31.6370922 45.057783,32.2445163 C44.7251846,32.6621204 44.3670016,33.0417604 44.0216109,33.4340551 C43.868104,33.5985658 43.714597,33.7757312 43.5482978,33.9275872 C43.1389459,34.2945726 42.7295939,34.6615579 42.3074497,35.0285433 C41.6294606,35.5980034 40.9003025,36.1294994 40.1327676,36.5977222 C39.7490002,36.8381609 39.3652328,37.0532902 38.9686731,37.2810742 C38.5721134,37.5088583 38.1755537,37.711333 37.7662018,37.901153 C37.0498359,38.2554837 36.3206778,38.5591957 35.5787274,38.8249438 C35.143791,38.9767998 34.7344391,39.1539651 34.2867104,39.2805118 C33.4296298,39.5336052 32.5725492,39.7740439 31.7026764,40.0018279 C31.2549477,40.1157199 30.7944268,40.2043026 30.3339059,40.2802306 C29.9757229,40.3435039 29.61754,40.3941226 29.2721493,40.4447413 C29.0035121,40.4827053 28.7476671,40.533324 28.4918222,40.571288 L27.813833,40.647216 L26.9695447,40.7357987 C26.82883,40.7484533 26.6881152,40.761108 26.5346083,40.7737627 C26.2531788,40.7864173 25.9589571,40.799072 25.6647354,40.8117267 C25.2170068,40.8243813 24.7564858,40.837036 24.2959649,40.8496907 C24.1680424,40.8496907 24.0529122,40.875 23.9249897,40.875 C23.4644688,40.875 22.9911556,40.8623453 22.5306347,40.837036 C22.1596595,40.8243813 21.7886844,40.799072 21.4177092,40.7737627 C21.046734,40.7484533 20.7013433,40.723144 20.3559526,40.6725253 C19.9593929,40.6219066 19.5628332,40.571288 19.1790658,40.5206693 C18.7825061,40.4700506 18.4115309,40.4194319 18.0277635,40.3561586 C17.5800348,40.2802306 17.1323062,40.1916479 16.6845775,40.0904106 C16.1345108,39.9638639 15.5844442,39.8246625 15.0343775,39.6854612 C14.6889869,39.5968785 14.3435962,39.4956412 13.9982055,39.3817492 C13.2562551,39.1286558 12.5143047,38.8629078 11.7723544,38.5971597 C11.4013792,38.470613 11.0559885,38.2934477 10.6978056,38.128937 C10.3396226,37.9644263 9.98143968,37.787261 9.62325674,37.6100956 C8.7022149,37.1418729 7.81954981,36.6230315 6.9880537,36.0282621 C6.47636379,35.6612767 5.96467388,35.268982 5.47856847,34.8640326 C4.99246305,34.4590832 4.53194214,34.0288245 4.08421346,33.5732565 C3.70044603,33.1683071 3.34226309,32.7380484 2.99687241,32.3077897 C2.26771428,31.4093082 1.66647864,30.4348988 1.19316547,29.3845613 C0.796605792,28.5493532 0.502384093,27.6635264 0.310500377,26.765045 C0.233746891,26.3854049 0.144201156,26.0057649 0.0930321653,25.6261249 C0.054655422,25.3350675 0.0418631743,25.0440101 0.0290709265,24.7402981 C0.0162786788,24.4239314 -0.00930581675,24.1075647 0.003486431,23.791198 C0.0162786788,23.3482846 0.0418631743,22.9180259 0.0930321653,22.4877672 C0.144201156,22.0954724 0.208162395,21.7031777 0.284915882,21.310883 C0.34887712,20.969207 0.451215102,20.6275309 0.540760837,20.2858549 C0.771021296,19.6404668 1.014074,19.0077334 1.32108795,18.3876547 C1.5769329,17.8308493 1.8711546,17.2993532 2.21654529,16.7931665 C2.56193598,16.2996344 2.93291117,15.8061024 3.3166786,15.3125703 C3.49577007,15.0847863 3.68765378,14.8696569 3.905122,14.6671822 C4.1737592,14.3887795 4.42960415,14.1103768 4.7110336,13.8446288 C5.04363205,13.5282621 5.40181498,13.2372047 5.74720567,12.9461474 C6.36123356,12.4146513 7.02643045,11.9337739 7.71721183,11.5035152 C8.22890174,11.1871485 8.75338389,10.8834364 9.27786605,10.5923791 C9.64884124,10.3899044 10.0198164,10.2000844 10.3907916,10.022919 C11.0687807,9.69389764 11.7723544,9.3901856 12.4887202,9.13709224 C12.9748257,8.95992688 13.4609311,8.78276153 13.9598287,8.63090551 C14.7401558,8.37781215 15.5332752,8.16268279 16.3263946,7.98551744 C16.9532147,7.85897075 17.5800348,7.7197694 18.206855,7.60587739 C18.6289992,7.52994938 19.0639356,7.47933071 19.498872,7.41605737 C19.8186782,7.37809336 20.1512766,7.35278403 20.4838751,7.31482002 C20.7780968,7.28951069 21.0723185,7.25154668 21.3665402,7.22623735 C21.5328394,7.21358268 21.6991386,7.20092801 21.8654378,7.18827334 L23.0039479,7.15030934 C23.5028456,7.13765467 24.0145355,7.125 24.5134331,7.125 Z M24.6797323,7.9981721 C24.0145355,7.9981721 23.3365463,8.01082677 22.6713494,8.02348144 C22.3771278,8.03613611 22.0829061,8.04879078 21.7886844,8.06144544 L21.7503076,8.06144544 C21.4305014,8.08675478 21.1106952,8.12471879 20.7780968,8.15002812 C20.5222518,8.17533746 20.2536146,8.18799213 19.9977697,8.21330146 C19.6267945,8.26392013 19.2558193,8.31453881 18.8848441,8.36515748 C18.5394534,8.41577615 18.1940627,8.46639483 17.848672,8.52966817 C17.4137356,8.61825084 16.9915914,8.70683352 16.5694473,8.80807087 C15.8147047,8.99789089 15.0727543,9.17505624 14.3308039,9.40284027 C13.6400225,9.6306243 12.9492412,9.88371766 12.2584598,10.1494657 C11.7851466,10.326631 11.3118334,10.5417604 10.8513125,10.7568898 C10.4547528,10.9467098 10.0454009,11.1491845 9.66163348,11.3643138 C9.22669706,11.5920979 8.80455289,11.8325366 8.38240871,12.0982846 C7.79396531,12.46527 7.21831416,12.8575647 6.68103976,13.2878234 C6.28448008,13.6168448 5.87512815,13.9205568 5.50415296,14.2748875 C4.96687856,14.7557649 4.48077314,15.2746063 4.03304447,15.818757 C3.76440727,16.1604331 3.48297782,16.5147638 3.22713286,16.8690945 C2.77940419,17.4891732 2.39563676,18.1598706 2.07583057,18.8558774 C1.92232359,19.2102081 1.75602437,19.5645388 1.6281019,19.9315242 C1.34667245,20.6908043 1.14199648,21.4753937 1.0396585,22.2726378 C0.988489508,22.6775872 0.924528269,23.0572272 0.911736021,23.4242126 C0.873359278,24.1075647 0.898943774,24.7909168 1.00128176,25.4616142 C1.06524299,25.8159449 1.09082749,26.1702756 1.16758098,26.5119516 C1.35946469,27.3598144 1.6281019,28.1823678 1.99907708,28.9796119 C2.30609103,29.6503093 2.66427396,30.2830427 3.07362589,30.8904668 C3.35505534,31.2827615 3.63648479,31.6624016 3.94349874,32.0420416 C4.21213594,32.371063 4.49356539,32.7000844 4.78778709,33.0037964 C5.14597003,33.3707818 5.52973746,33.7124578 5.90071265,34.0541339 C6.16934985,34.3072272 6.4507793,34.5350112 6.745001,34.7501406 C7.26948315,35.1297807 7.79396531,35.5094207 8.33123972,35.8510967 C8.86851412,36.1927728 9.46974977,36.5344488 10.0454009,36.8381609 C10.5570908,37.1039089 11.081573,37.3443476 11.6188474,37.5721316 C12.220083,37.825225 12.8213187,38.0656637 13.4353466,38.280793 C14.3435962,38.6098144 15.2774302,38.8755624 16.2240566,39.0906918 C16.6462008,39.1919291 17.0811372,39.2805118 17.5160736,39.3690945 C17.8870488,39.4450225 18.258024,39.5082958 18.6289992,39.5589145 C18.8720519,39.5968785 19.1023123,39.6474972 19.345365,39.6854612 C19.652379,39.7234252 19.9721852,39.7487345 20.2791991,39.7866985 C20.6757588,39.8246625 21.0595262,39.8752812 21.4432937,39.9132452 C21.8014766,39.9385546 22.1596595,39.9638639 22.5178425,39.9765186 C22.9655711,39.9891732 23.4005076,40.0018279 23.8482362,40.0018279 C24.2447959,40.0018279 24.6285634,39.9891732 25.0123308,39.9765186 C25.3705137,39.9638639 25.7286967,39.9512092 26.0868796,39.9512092 L26.1380486,39.9512092 L27.1998052,39.8626265 C27.4428579,39.8373172 27.6987028,39.8246625 27.9417555,39.7993532 C28.2999385,39.7487345 28.6581214,39.6981159 29.0163043,39.6474972 C29.3744873,39.5968785 29.7582547,39.5462598 30.1164376,39.4829865 C30.7816345,39.3437852 31.4468314,39.2045838 32.1120283,39.0400731 C32.7004717,38.8882171 33.3017073,38.7363611 33.8773585,38.5465411 C34.5297631,38.3314117 35.1821678,38.090973 35.8345724,37.8378796 C36.33347,37.6480596 36.8195755,37.4329303 37.3056809,37.2051462 C37.7278251,37.0026715 38.1499692,36.7875422 38.5593212,36.5597582 C40.0176374,35.7625141 41.3736157,34.7881046 42.5888792,33.6744938 C43.0749846,33.2315804 43.5227133,32.7633577 43.9320652,32.2445163 C44.2646637,31.8269123 44.5844698,31.4093082 44.904276,30.9790495 C45.3520047,30.3336614 45.7357721,29.6376547 46.0555783,28.9163386 C46.298631,28.3721879 46.503307,27.8027278 46.6696062,27.2332677 C46.8614899,26.5246063 46.9894124,25.8159449 47.0661659,25.0819741 C47.1045427,24.6896794 47.1045427,24.3480034 47.1173349,23.9557087 C47.1045427,23.7405793 47.0917504,23.4874859 47.0661659,23.2343926 C47.0277892,22.8420979 46.9894124,22.4624578 46.9382434,22.0701631 C46.8486977,21.500703 46.7207752,20.9438976 46.5416838,20.3997469 C46.3625923,19.8176322 46.1451241,19.2608268 45.8764869,18.716676 C45.6206419,18.223144 45.3520047,17.7422666 45.057783,17.2740439 C44.5844698,16.5147638 44.0344032,15.818757 43.4075831,15.173369 C42.9342699,14.6798369 42.4353722,14.2116142 41.9236823,13.7687008 C41.4887459,13.4017154 41.028225,13.072694 40.5677041,12.731018 C39.8001692,12.1742126 39.0070498,11.6806805 38.1627615,11.2504218 C37.6382793,10.9720191 37.0882127,10.7189258 36.538146,10.4784871 C35.9369104,10.2253937 35.3356747,9.97230034 34.7216468,9.75717098 C34.005281,9.50407762 33.2889151,9.28894826 32.559757,9.08647357 C31.9968981,8.93461755 31.4340392,8.80807087 30.858388,8.69417885 L30.4547215,8.61262655 L29.6303322,8.46639483 C29.3233183,8.41577615 29.0035121,8.35250281 28.6964981,8.31453881 C28.3894842,8.2765748 28.0952625,8.25126547 27.7882486,8.22595613 C27.3916889,8.18799213 27.0079214,8.13737345 26.624154,8.09940945 C26.2915556,8.07410011 25.9589571,8.04879078 25.6391509,8.03613611 C25.3193447,8.02348144 24.9995385,7.9981721 24.6797323,7.9981721 Z M25.127461,8.5170135 C25.5240207,8.5170135 25.9333726,8.5549775 26.3299323,8.58028684 C26.7009075,8.60559618 27.0718827,8.63090551 27.4428579,8.68152418 C27.916171,8.73214286 28.3766919,8.7954162 28.8372129,8.87134421 C29.5279942,8.98523622 30.2315679,9.09912823 30.9223492,9.22567492 C31.4596237,9.33956693 31.9968981,9.46611361 32.5213802,9.61796963 C33.0458624,9.76982565 33.6087213,9.93433633 34.1459957,10.1241564 C34.7984003,10.3519404 35.4635972,10.6050337 36.1032096,10.8707818 C36.6788607,11.1112205 37.2417196,11.3769685 37.7917863,11.6553712 C38.3034762,11.9211192 38.8023739,12.2121766 39.2884793,12.5158886 C39.7617924,12.806946 40.2095211,13.1233127 40.6572498,13.4396794 C40.977056,13.6674634 41.2840699,13.9205568 41.5910839,14.1863048 C41.8597211,14.4140889 42.1027738,14.6545276 42.3586187,14.8823116 C42.7551784,15.249297 43.1261536,15.628937 43.4715443,16.0465411 C43.868104,16.5021091 44.2262869,16.9703318 44.5460931,17.4638639 C44.9298605,18.0459786 45.262459,18.640748 45.5438884,19.2734814 C45.8636946,19.9694882 46.1067473,20.6908043 46.2730466,21.424775 C46.3498,21.7664511 46.4137613,22.1207818 46.4649303,22.4751125 C46.5160993,22.8294432 46.5416838,23.1837739 46.5800605,23.5381046 L46.5672683,23.5381046 L46.5672683,24.398622 C46.554476,24.9048088 46.503307,25.4236502 46.4137613,25.9171822 C46.298631,26.5878796 46.1323318,27.2332677 45.9020714,27.8786558 C45.6718109,28.5113892 45.3903815,29.1188133 45.057783,29.7135827 C44.6996001,30.3463161 44.3030404,30.9537402 43.8553117,31.5232002 C43.663428,31.7762936 43.458752,32.0167323 43.2284916,32.2445163 C42.9086854,32.5861924 42.576087,32.9405231 42.2306963,33.2568898 C41.8853056,33.5859111 41.5143304,33.8896232 41.130563,34.1806805 C40.6956265,34.5223566 40.2606901,34.851378 39.8001692,35.15509 C39.2884793,35.496766 38.7512049,35.8004781 38.2267227,36.1041901 C37.9708778,36.2560461 37.7022406,36.3952475 37.4208111,36.5217942 C36.6148995,36.9140889 35.7961956,37.2810742 34.939115,37.5847863 C34.0820344,37.901153 33.1993693,38.1795557 32.303912,38.394685 C31.5235849,38.5845051 30.7432578,38.7616704 29.9501384,38.9261811 C29.5919555,39.0021091 29.2337725,39.0400731 28.8627974,39.0906918 C28.5813679,39.1286558 28.2871462,39.1792745 27.9929245,39.2172385 C27.7498718,39.2425478 27.4940269,39.2678571 27.2509741,39.2805118 C26.931168,39.3058211 26.6113618,39.3437852 26.2787633,39.3690945 L26.2531788,39.3690945 C25.9845416,39.3817492 25.7031122,39.3944038 25.434475,39.3944038 C24.6669401,39.4070585 23.8994052,39.4323678 23.1446626,39.4197132 C22.6713494,39.4197132 22.1980363,39.3817492 21.7247231,39.3564398 C21.4560859,39.3437852 21.1874487,39.3184758 20.9316038,39.2931665 C20.4199138,39.2298931 19.9210162,39.1792745 19.4221185,39.1033465 C18.6417914,38.9894544 17.8614643,38.8629078 17.0939294,38.7110517 C16.556655,38.6098144 16.0193806,38.470613 15.4948985,38.318757 C14.8552861,38.1415917 14.2156737,37.939117 13.5888535,37.7239876 C12.9620334,37.5088583 12.37359,37.2684196 11.7723544,37.0153262 C11.3502102,36.8381609 10.9408583,36.6483408 10.5315063,36.4458661 C9.80234821,36.0915354 9.08598234,35.6865861 8.4079932,35.2436727 L7.56370485,34.6671822 C7.42299013,34.5701631 7.2822754,34.4717379 7.14156068,34.3705006 C6.86013123,34.1680259 6.60428627,33.9275872 6.33564907,33.7124578 C5.84954365,33.3075084 5.38902273,32.8645951 4.95408631,32.3963723 C4.57031888,31.9787683 4.19934369,31.5358549 3.853953,31.0802868 C3.36784759,30.4348988 2.94570341,29.738892 2.58752048,29.0049213 C2.26771428,28.3721879 2.02466158,27.7014904 1.84557011,27.0181384 C1.73043988,26.5499156 1.6281019,26.0816929 1.53855616,25.6134702 C1.50017942,25.3856862 1.47459492,25.1452475 1.47459492,24.9048088 C1.44901043,24.6010967 1.42342593,24.28473 1.42342593,23.981018 C1.42342593,23.677306 1.44901043,23.3609393 1.47459492,23.0572272 C1.48738717,22.8420979 1.50017942,22.6269685 1.53855616,22.4118391 C1.6281019,21.9436164 1.71764763,21.4753937 1.81998561,21.007171 C1.94790809,20.4883296 2.11420731,19.9821429 2.34446777,19.4886108 C2.54914373,19.0583521 2.7538197,18.6280934 2.98408016,18.1978346 C3.16317163,17.8688133 3.36784759,17.5397919 3.5853158,17.2360799 C3.8795375,16.8184758 4.19934369,16.4135264 4.51914989,16.0212317 C4.7366181,15.7681384 4.96687856,15.5276997 5.19713902,15.287261 C5.42739948,15.0468223 5.68324443,14.7684196 5.95188164,14.5406355 C6.34844132,14.1989595 6.75779324,13.8572835 7.17993742,13.5409168 C7.6020816,13.2245501 8.04981027,12.9081834 8.51033119,12.6044713 C8.98364435,12.3007593 9.48254202,12.0223566 9.98143968,11.7566085 C10.3012459,11.5794432 10.6210521,11.4149325 10.9408583,11.2630765 C11.6444319,10.9214004 12.3607978,10.6176884 13.1027481,10.3645951 C13.6016458,10.1874297 14.0877512,10.0102643 14.5866489,9.85840832 C15.3285992,9.64327897 16.0833419,9.46611361 16.8380845,9.27629359 C17.2218519,9.18771091 17.6056193,9.09912823 18.002179,9.02320022 C18.360362,8.95992688 18.7313371,8.90930821 19.1023123,8.85868954 C19.3709495,8.82072553 19.6395867,8.77010686 19.9210162,8.73214286 C20.1640689,8.70683352 20.4199138,8.68152418 20.6629666,8.66886952 L21.5968006,8.58028684 C21.7758921,8.56763217 21.9421913,8.5549775 22.1212828,8.54232283 C23.1190781,8.52966817 24.1296657,8.5170135 25.127461,8.5170135 Z M25.0507075,36.3193195 C24.3471339,36.3193195 23.8994052,36.7622328 23.886613,37.4329303 C23.8738207,37.7239876 23.988951,38.015045 24.2064192,38.2175197 C24.4110951,38.4199944 24.7053168,38.5338864 24.9995385,38.5338864 C25.3065525,38.5465411 25.6135664,38.4453037 25.8310346,38.2301744 C26.0485029,38.015045 26.1508408,37.7239876 26.1508408,37.4076209 C26.1636331,37.1165636 26.0485029,36.8255062 25.8438269,36.6230315 C25.6391509,36.4205568 25.3449292,36.3066648 25.0507075,36.3193195 Z M20.9316038,36.2180821 L20.9316038,36.3193195 L21.1746565,36.4205568 L21.1746565,36.5977222 C21.149072,36.9140889 21.1362797,37.2304556 21.1106952,37.5468223 L21.0907962,37.8505343 C21.0865321,37.901153 21.0808466,37.9517717 21.0723185,38.0023903 C21.0595262,38.0656637 21.0211495,38.128937 20.9827727,38.1922103 L20.8036813,38.204865 L20.73972,38.318757 L21.7375154,38.4073397 L21.7119309,38.2934477 L21.4688782,38.1922103 C21.4816704,37.9138076 21.5072549,37.6354049 21.5200472,37.3696569 L21.5712161,37.3570022 C21.8398533,37.6986783 22.0445293,38.090973 22.3259588,38.4579584 L22.9144022,38.5085771 C22.9527789,38.4199944 22.9016099,38.3820304 22.8504409,38.3440664 C22.7608952,38.2934477 22.6841417,38.2175197 22.6073882,38.1415917 C22.3771278,37.825225 22.1596595,37.4962036 21.9421913,37.1671822 C22.0701138,37.0532902 22.185244,36.9393982 22.3131665,36.8508155 C22.5050502,36.6989595 22.6713494,36.5217942 22.9527789,36.5344488 C23.0167401,36.5344488 23.0807014,36.4964848 23.0423246,36.3952475 L22.2236208,36.3193195 C22.1724518,36.4964848 22.3515433,36.4458661 22.4027122,36.5344488 C22.1724518,36.8128515 21.8910223,37.0532902 21.5840084,37.2431102 L21.5456316,37.2178009 C21.5712161,36.9647075 21.5968006,36.7116142 21.6223851,36.4711755 L21.8782301,36.3952475 L21.8654378,36.2940101 L20.9316038,36.2180821 Z M27.8266253,36.1421541 L26.2787633,36.3193195 L26.2531788,36.4205568 C26.3043478,36.4205568 26.3427246,36.4205568 26.3811013,36.4332115 C26.470647,36.4458661 26.5474005,36.5217942 26.5601928,36.6103768 L26.624154,37.2684196 C26.6369463,37.3949663 26.6625307,37.5341676 26.675323,37.6607143 C26.6881152,37.8378796 26.7009075,38.0023903 26.726492,38.1922103 L26.470647,38.3314117 L26.4834393,38.432649 L27.4812346,38.318757 L27.4812346,38.204865 L27.2509741,38.1922103 L27.1486362,38.1036277 C27.1230517,37.8378796 27.0974672,37.6100956 27.0718827,37.3823116 L27.4428579,37.3316929 C27.5579881,37.3063836 27.6731183,37.3696569 27.7114951,37.4835489 C27.7242873,37.5215129 27.7754563,37.5341676 27.813833,37.5721316 L27.865002,37.5468223 C27.8394175,37.3316929 27.813833,37.1165636 27.7882486,36.9014342 L27.7114951,36.9140889 C27.6475338,37.0026715 27.6219493,37.1165636 27.5579881,37.1418729 C27.3916889,37.1798369 27.2253896,37.2178009 27.0590904,37.2304556 C27.0207137,36.9520529 26.9951292,36.6989595 26.9695447,36.4458661 C26.9951292,36.4332115 27.0207137,36.4079021 27.0590904,36.3952475 C27.1358439,36.3825928 27.2125974,36.3825928 27.3021431,36.3699381 C27.5707803,36.3319741 27.6347416,36.3572835 27.7498718,36.5850675 C27.7882486,36.6483408 27.8266253,36.6736502 27.916171,36.6230315 L27.8266253,36.1421541 Z M25.5368129,36.8128515 C25.6391509,37.0153262 25.6903199,37.2557649 25.6647354,37.4835489 C25.6775277,37.6860236 25.6391509,37.901153 25.5496052,38.0783183 C25.4728517,38.2301744 25.3193447,38.3440664 25.1530455,38.3693757 C24.973954,38.394685 24.8076548,38.3314117 24.6797323,38.204865 C24.5134331,38.0403543 24.4110951,37.8378796 24.3855106,37.6100956 C24.3343417,37.3696569 24.3599262,37.1165636 24.4494719,36.8887795 C24.5134331,36.6609955 24.7053168,36.4964848 24.9483695,36.4711755 C25.1914223,36.4458661 25.434475,36.5850675 25.5368129,36.8128515 Z M18.3859465,35.8637514 L18.360362,36.0029528 C18.3987387,36.0156074 18.4243232,36.0409168 18.4626999,36.0535714 C18.6162069,36.1041901 18.7057526,36.2560461 18.6801682,36.4079021 C18.6289992,36.7495782 18.5778302,37.1039089 18.5138689,37.4455849 C18.4882844,37.5974409 18.5010767,37.7746063 18.3347775,37.8758436 L18.1428937,37.8884983 C18.1173092,38.0023903 18.1940627,38.0276997 18.258024,38.0276997 C18.4882844,38.053009 18.7057526,38.090973 18.9488054,38.1162823 C18.9743898,38.0276997 18.9488054,38.0023903 18.8592596,37.9644263 C18.6801682,37.901153 18.6417914,37.825225 18.6673759,37.6480596 C18.6929604,37.4708943 18.7057526,37.3190382 18.7313371,37.1671822 C18.7569216,36.9520529 18.7952984,36.7369235 18.8336751,36.4838301 C18.8848441,36.5724128 18.9232209,36.6356862 18.9615976,36.6863048 L19.9210162,38.1922103 C19.9593929,38.2681384 20.0489387,38.318757 20.1384844,38.2934477 C20.1512766,38.1542463 20.1640689,38.0403543 20.1896534,37.9138076 C20.2408224,37.5594769 20.2919914,37.2051462 20.3431604,36.8508155 C20.3559526,36.6736502 20.3943293,36.5091395 20.4838751,36.3572835 L20.7141355,36.2940101 L20.7013433,36.2054274 L19.9082239,36.0915354 C19.8996958,36.1084083 19.896853,36.1252812 19.8959055,36.1384046 L19.8954317,36.1548088 C19.8954317,36.1674634 19.8954317,36.1801181 19.9082239,36.2054274 L19.9849774,36.2307368 C20.1768611,36.3066648 20.1896534,36.3066648 20.1768611,36.5091395 C20.1768611,36.6483408 20.1640689,36.7875422 20.1384844,36.9140889 C20.1128999,37.1292182 20.0745232,37.3443476 20.0361464,37.5847863 L18.9360131,35.9396794 L18.3859465,35.8637514 Z M30.909557,35.648622 C30.6920888,35.6865861 30.4874128,35.7245501 30.2827369,35.7625141 C30.2059834,35.7751687 30.1292299,35.8004781 30.1803989,35.9017154 L30.3850748,35.9017154 C30.3978671,35.9396794 30.4362438,35.9776434 30.4234516,36.0156074 C30.3594903,36.4585208 30.2827369,36.9014342 30.2187756,37.3443476 L30.1803989,37.3443476 C29.9373462,36.9267435 29.6431245,36.5471035 29.412864,36.1168448 C29.5024097,36.0662261 29.566371,36.0156074 29.6303322,35.9776434 C29.4896175,35.9017154 28.8883819,35.9902981 28.6709136,36.1168448 L28.6837059,36.1927728 C28.8244206,36.1674634 28.9651353,36.2307368 29.0546811,36.3446288 L29.9245539,37.6986783 C29.9885152,37.7999156 30.0652687,37.901153 30.1676066,38.0276997 C30.2187756,37.977081 30.2571524,37.9138076 30.2827369,37.8505343 C30.3083214,37.7746063 30.3211136,37.711333 30.3339059,37.6354049 C30.4362438,37.1292182 30.5257896,36.6230315 30.6281276,36.1294994 C30.6409198,35.9523341 30.75605,35.8131327 30.9223492,35.7498594 C30.9351415,35.7498594 30.9351415,35.7372047 30.9479337,35.7245501 L30.909557,35.648622 Z M17.2730209,35.6233127 C17.2346442,35.6359674 17.1962674,35.6612767 17.1706829,35.7118954 C16.8892535,36.1041901 16.6206163,36.4964848 16.3391868,36.8761249 C16.2240566,37.0406355 16.0961341,37.1924916 15.9810039,37.3443476 L15.9554194,37.3316929 L15.7507434,37.3443476 C15.7123667,37.4455849 15.7635357,37.4835489 15.8274969,37.4835489 C16.0321729,37.5341676 16.2240566,37.5721316 16.4415248,37.6227503 L16.505486,37.5215129 L16.3136023,37.4202756 C16.3263946,37.2178009 16.454317,37.0785996 16.5694473,36.9267435 L17.1834752,37.0659449 C17.2346442,37.2431102 17.2602286,37.4329303 17.2346442,37.6227503 L17.0171759,37.6480596 L17.0555527,37.7746063 C17.3497744,37.8125703 17.6184116,37.9264623 17.9254255,37.9264623 C17.9126333,37.8758436 17.899841,37.8378796 17.8742565,37.825225 C17.7207496,37.749297 17.6951651,37.6227503 17.6695806,37.4708943 C17.6567883,37.3696569 17.6439961,37.2684196 17.6312038,37.1545276 C17.5928271,36.8634702 17.5544503,36.5597582 17.5032814,36.2687008 C17.4521124,36.0535714 17.4265279,35.8510967 17.4009434,35.648622 C17.3625666,35.6233127 17.3113976,35.610658 17.2730209,35.6233127 Z M31.9201446,35.3322553 L30.9735182,35.5980034 L31.0246872,35.6992407 L31.3061167,35.6992407 C31.4724159,36.2560461 31.6387151,36.8128515 31.7666376,37.3823116 L31.4852082,37.5468223 C31.5619616,37.5721316 31.6131306,37.6100956 31.6387151,37.6100956 C31.9201446,37.5341676 32.1887818,37.4582396 32.4702112,37.3696569 L32.457419,37.2810742 L32.2271585,37.2684196 C32.0864438,37.1292182 31.7154686,35.8131327 31.7410531,35.5600394 L31.9201446,35.458802 L31.9201446,35.3322553 Z M33.6726825,34.7881046 L32.201574,35.2563273 L32.252743,35.3575647 L32.4957957,35.34491 C32.5213802,35.382874 32.5469647,35.4334927 32.559757,35.4841114 C32.7004717,35.8890607 32.8411864,36.2940101 32.9563166,36.7116142 C33.0074856,36.8255062 33.0202779,36.9393982 32.9819011,37.0659449 C32.7900174,37.1798369 32.7900174,37.1798369 32.8028097,37.2937289 L34.4146329,36.7875422 C34.4018406,36.5977222 34.3762561,36.4205568 34.3634639,36.2433915 L34.2483337,36.2560461 C34.1971647,36.4205568 34.1587879,36.5597582 34.1204112,36.6863048 C33.9285275,36.8128515 33.698267,36.8761249 33.4552143,36.8761249 C33.3272918,36.6483408 33.2377461,36.3952475 33.1865771,36.1294994 C33.54476,35.9902981 33.54476,35.9902981 33.7110593,36.0156074 L33.8645662,36.1927728 L33.9413197,36.1168448 L33.749436,35.496766 L33.6343058,35.5600394 L33.6343058,35.7372047 C33.5063833,35.8764061 33.3017073,35.8637514 33.1354081,35.9523341 C33.0458624,35.6992407 32.9691089,35.4461474 32.9179399,35.193054 L33.4552143,35.0285433 L33.7622283,35.2942913 L33.851774,35.231018 L33.6726825,34.7881046 Z M14.4587264,34.8260686 L14.4203496,34.927306 L14.6250256,35.0538526 C14.4971031,35.6233127 14.3308039,36.1801181 14.126128,36.7242688 L13.8319063,36.7369235 L13.7935295,36.8381609 C14.1133357,36.9393982 14.4331419,37.0406355 14.7401558,37.1292182 C14.9448318,37.1924916 15.1623,37.1924916 15.366976,37.1418729 C15.5332752,37.1039089 15.6739899,36.9647075 15.7123667,36.8001969 C15.7635357,36.6356862 15.7123667,36.4585208 15.5844442,36.3319741 C15.5076907,36.2560461 15.4309372,36.1927728 15.3413915,36.1294994 L15.4565217,36.1294994 C15.7507434,36.0788808 15.9554194,35.9143701 15.9170426,35.610658 C15.8914581,35.4081834 15.7507434,35.2436727 15.5460675,35.193054 C15.1878845,35.0665073 14.8297016,34.9526153 14.4587264,34.8260686 Z M14.7785326,36.0409168 C14.9064551,36.0915354 15.008793,36.1294994 15.111131,36.1927728 C15.2774302,36.2940101 15.3541837,36.5091395 15.2902225,36.6863048 C15.2518458,36.8634702 15.0855465,36.9900169 14.8936628,36.9900169 C14.7529481,37.0026715 14.6122334,36.9267435 14.5354799,36.8128515 C14.6122334,36.5724128 14.6889869,36.3193195 14.7785326,36.0409168 Z M17.0555527,36.1168448 C17.0939294,36.3825928 17.1195139,36.6103768 17.1450984,36.8761249 L16.6334085,36.7495782 L17.0555527,36.1168448 Z M35.5787274,33.9022778 C35.5531429,33.9149325 35.5147662,33.9149325 35.5147662,33.9275872 C35.4763894,34.0667885 35.348467,34.0794432 35.246129,34.1300619 C35.1309988,34.1933352 35.0158685,34.2439539 34.9007383,34.2819179 C34.5681399,34.4084646 34.2611259,34.6362486 33.8773585,34.6615579 C33.954112,34.8640326 34.0308655,35.0538526 34.1076189,35.2563273 L34.2227492,35.1803993 C34.1459957,34.8260686 34.2227492,34.7374859 34.6576856,34.5982846 L35.3868437,36.1927728 L35.143791,36.4079021 L35.19496,36.4964848 L36.1543786,36.0662261 L36.0776251,35.9649888 L35.8089879,36.0409168 C35.5019739,35.5220754 35.297298,34.96527 35.0286608,34.4211192 C35.3868437,34.2059899 35.4252205,34.2059899 35.7322344,34.4464286 L35.7450267,34.4590832 L35.8857414,34.4590832 L35.5787274,33.9022778 Z M12.0537838,33.8769685 L12.2328753,34.0920979 C12.2328753,34.2692632 11.6700164,35.572694 11.5293017,35.6992407 L11.2094955,35.6612767 C11.2478722,35.7245501 11.2734567,35.7625141 11.2990412,35.7751687 C11.7851466,35.9902981 12.2840443,36.1927728 12.7829419,36.4079021 C12.8724877,36.2687008 12.9492412,36.1674634 13.0387869,36.0535714 C13.0899559,35.9902981 13.0899559,35.9396794 13.0004101,35.8890607 C12.8596954,36.0282621 12.6933962,36.1674634 12.4887202,36.1041901 C12.3096288,36.0535714 12.1049528,36.0282621 12.0026148,35.8131327 L12.2968365,35.1044713 C12.475928,35.2057087 12.680604,35.2183633 12.7957342,35.3955287 L12.7701497,35.5853487 L12.9108644,35.5853487 L13.1539171,35.0285433 C13.0132024,34.9526153 12.9620334,35.0918166 12.8469032,35.1424353 L12.3863823,34.96527 L12.680604,34.2692632 L12.7573574,34.2692632 L12.9876179,34.3578459 C13.2562551,34.4590832 13.3202163,34.5603206 13.2690474,34.851378 L13.3713853,34.9146513 L13.5248923,34.4590832 C13.3585931,34.3198819 12.1944985,33.8643138 12.0537838,33.8769685 Z M15.4821062,35.382874 L15.520483,35.5600394 C15.4565217,35.9396794 15.315807,36.0662261 14.8424938,35.9017154 C14.8680783,35.6739314 14.9832085,35.458802 15.0471698,35.231018 C15.2006768,35.1677447 15.315807,35.2183633 15.4821062,35.382874 Z M37.8557475,32.826631 L37.1393817,33.2062711 L37.2033429,33.3075084 C37.2161351,33.3075084 37.2417196,33.2948538 37.2545119,33.2948538 C37.4336034,33.2315804 37.4975646,33.1936164 37.6382793,33.4340551 L38.0092545,34.0920979 L38.137177,34.3325366 L38.086008,34.3325366 C37.5231491,34.1174072 36.9730824,33.9022778 36.4102235,33.6998031 C36.3462623,33.6744938 36.2823011,33.6618391 36.2183398,33.6871485 C36.0648328,33.7504218 35.9369104,33.8390045 35.7834034,33.9275872 L35.8473646,34.0161699 C36.1160018,33.9528965 36.2055476,33.9908605 36.33347,34.2186445 C36.435808,34.4084646 36.538146,34.5982846 36.6276917,34.7881046 C36.7172375,34.9779246 36.8067832,35.1803993 36.896329,35.382874 C36.9347057,35.4714567 36.9091212,35.572694 36.8195755,35.6233127 C36.793991,35.6359674 36.7684065,35.6612767 36.742822,35.6865861 L36.8067832,35.7751687 L37.5103568,35.4081834 L37.4591879,35.3196007 C37.4336034,35.3196007 37.4080189,35.3322553 37.3824344,35.34491 C37.2033429,35.4081834 37.1393817,35.382874 37.0498359,35.2183633 C36.8579522,34.8640326 36.6660685,34.5097019 36.486977,34.1680259 L36.5125615,34.1427165 L38.4697754,34.9399606 L38.5849057,34.8640326 C38.5593212,34.8134139 38.5465289,34.7501406 38.5209444,34.6995219 C38.3034762,34.2692632 38.0732157,33.8390045 37.8557475,33.4087458 C37.8173708,33.3075084 37.778994,33.1936164 37.7534095,33.0797244 L37.932501,32.9152137 L37.8557475,32.826631 Z M10.4547528,32.8645951 L10.4163761,32.8645951 L10.1221544,33.2695444 C10.1093622,33.2948538 10.0965699,33.3201631 10.0965699,33.3454724 C10.0965699,33.3707818 10.1221544,33.3960911 10.1477389,33.4087458 L10.5187141,33.1809618 L10.9536505,33.4087458 L10.0326087,34.9146513 L9.71280248,34.8260686 L9.67442573,34.9146513 L10.5698831,35.4461474 L10.6210521,35.34491 L10.4163761,35.1677447 C10.4419606,35.0918166 10.4675451,35.0158886 10.4931296,34.9399606 C10.7617668,34.4970472 11.030404,34.0541339 11.2862489,33.6238751 C11.6444319,33.7251125 11.6956009,33.8263498 11.6700164,34.2819179 L11.7595621,34.3325366 L12.0281993,33.8136952 C12.0026148,33.7567492 11.9642381,33.7440945 11.9226633,33.7425127 L11.8380923,33.7442702 C11.824234,33.743743 11.8107311,33.7419854 11.7979389,33.7377672 C11.5420939,33.5859111 11.2990412,33.4467098 11.0431962,33.2948538 C10.8385203,33.1556524 10.5954676,33.0797244 10.4547528,32.8645951 Z M24.3983029,12.806946 C23.8610285,12.806946 23.3237541,12.8196007 22.7864797,12.8322553 C22.5178425,12.8322553 22.2619975,12.8575647 22.0061526,12.8575647 L21.9805681,12.8575647 L21.0595262,12.9461474 C20.7269278,12.9841114 20.4071216,13.0094207 20.0745232,13.0473847 C19.754717,13.0853487 19.447703,13.148622 19.1406891,13.1992407 C18.6673759,13.2878234 18.1940627,13.3637514 17.7207496,13.4649888 C16.761331,13.6801181 15.8019124,13.9585208 14.8680783,14.2875422 C14.2284659,14.5153262 13.5888535,14.7684196 12.9748257,15.0594769 C12.6678117,15.211333 12.3607978,15.363189 12.0537838,15.515045 C11.6700164,15.7175197 11.2862489,15.932649 10.928066,16.1604331 C10.5059218,16.4388358 10.0837777,16.7298931 9.68721798,17.0336052 C9.32903504,17.3120079 8.98364435,17.6030652 8.63825366,17.9067773 C8.24169398,18.2864173 7.8707188,18.7040214 7.52532811,19.1342801 C7.19272967,19.5645388 6.88571572,20.0074522 6.62987077,20.4883296 C6.34844132,21.0198256 6.11818086,21.576631 5.96467388,22.1460911 C5.72162118,23.0319179 5.65765994,23.9557087 5.78558242,24.8668448 C5.84954365,25.2971035 5.93908939,25.7273622 6.07980411,26.1576209 C6.23331109,26.6638076 6.43798705,27.144685 6.70662425,27.6002531 C6.91130022,27.9419291 7.12876843,28.2582958 7.34623664,28.5873172 C7.5764971,28.9289933 7.8451343,29.24536 8.139356,29.5364173 C8.4335777,29.8274747 8.7277994,30.1438414 9.03481334,30.4222441 C9.40578853,30.7386108 9.78955596,31.0170135 10.1733234,31.3080709 C10.7617668,31.7383296 11.3757947,32.1179696 12.0281993,32.4596457 C12.424759,32.674775 12.8213187,32.8519404 13.2306706,33.0417604 C13.767945,33.2821991 14.3180117,33.5099831 14.8808706,33.6998031 C15.7251589,34.0035152 16.5822395,34.2439539 17.4521124,34.4464286 C18.0917248,34.5982846 18.7441294,34.7374859 19.396534,34.8260686 L20.2408224,34.9582396 C20.3815371,34.9793307 20.5222518,34.9990157 20.6629666,35.0158886 C20.9827727,35.0538526 21.3025789,35.0918166 21.6351774,35.117126 C21.9805681,35.1424353 22.3259588,35.1677447 22.6713494,35.1803993 C23.1830394,35.193054 23.6947293,35.2057087 24.1936269,35.2057087 C24.4494719,35.231018 24.6797323,35.193054 24.9099928,35.1803993 L24.9099928,35.2057087 L25.7286967,35.1677447 L26.368309,35.1297807 C26.4962315,35.117126 26.624154,35.117126 26.7520765,35.0918166 C27.0846749,35.0538526 27.4172734,35.0158886 27.7498718,34.96527 C28.0824702,34.927306 28.4150687,34.889342 28.7604594,34.8387233 C29.2337725,34.7501406 29.6942935,34.6489033 30.1548144,34.5603206 C30.8455958,34.4211192 31.5363771,34.2439539 32.2143663,34.0288245 C33.0970314,33.7630765 33.9669042,33.4340551 34.8111926,33.0544151 C35.4763894,32.7633577 36.1160018,32.4216817 36.742822,32.0546963 C37.3056809,31.7256749 37.8557475,31.3586895 38.3546452,30.9410855 C38.7384126,30.6120641 39.1349723,30.2830427 39.5187397,29.9540214 C39.6594545,29.8274747 39.7745847,29.6882733 39.9025072,29.549072 C40.1071831,29.321288 40.3118591,29.0935039 40.5037428,28.8530652 C40.8619258,28.4101519 41.1689397,27.9419291 41.4247847,27.4357424 C41.7573831,26.8283183 41.9876436,26.1829303 42.1283583,25.4995782 C42.2051118,25.1325928 42.2562808,24.7656074 42.2818653,24.398622 C42.3074497,23.829162 42.269073,23.2470472 42.166735,22.6775872 C42.0388125,22.0448538 41.8341366,21.424775 41.5527071,20.8426603 C41.3224467,20.3617829 41.0538095,19.9188695 40.7467955,19.4886108 C40.4397816,19.0583521 40.0943909,18.6534027 39.7234157,18.2737627 C39.4419863,17.9827053 39.1349723,17.7169573 38.8279584,17.4512092 C38.4569832,17.1348425 38.0732157,16.8311305 37.6766561,16.5653825 C37.2161351,16.2490157 36.7300297,15.970613 36.2439243,15.6795557 C35.6043119,15.2999156 34.9263228,14.9835489 34.2355414,14.7051462 C33.4296298,14.3634702 32.5981337,14.0724128 31.7410531,13.8446288 C31.1526097,13.6801181 30.5513741,13.5156074 29.9501384,13.4017154 C29.2209803,13.2625141 28.4918222,13.148622 27.7626641,13.0473847 C27.3149354,12.9841114 26.8544145,12.9334927 26.4066858,12.8955287 C26.0996718,12.8702193 25.7798657,12.84491 25.4728517,12.8322553 C25.1146688,12.8196007 24.7564858,12.7942913 24.3983029,12.806946 Z M23.9761587,13.3131327 L24.0145355,13.3257874 L24.5773944,13.3257874 C24.9483695,13.3384421 25.3193447,13.3384421 25.6775277,13.3637514 C26.0740874,13.3890607 26.4834393,13.4143701 26.879999,13.4649888 C27.4172734,13.5282621 27.9417555,13.6041901 28.4662377,13.6801181 C29.2721493,13.7940101 30.0652687,13.9585208 30.858388,14.1609955 C31.6131306,14.3508155 32.355081,14.5785996 33.0842391,14.8443476 C33.5575523,15.0215129 34.0180732,15.211333 34.4785941,15.4138076 C34.9007383,15.6036277 35.3228825,15.8061024 35.7322344,16.0212317 C36.435808,16.4008718 37.1010049,16.8184758 37.7406173,17.2866985 C38.3930219,17.7675759 38.9942576,18.299072 39.531532,18.8811867 C39.8001692,19.1595894 40.0432219,19.4633015 40.2606901,19.7796682 C40.5165351,20.1466535 40.7595878,20.5389483 40.977056,20.931243 C41.2840699,21.538667 41.5015381,22.1840551 41.6294606,22.8420979 C41.7317986,23.3989033 41.7573831,23.981018 41.7062141,24.5504781 C41.6550451,25.2591395 41.4887459,25.9678009 41.1945242,26.613189 C40.9003025,27.3091957 40.5165351,27.9545838 40.0432219,28.5493532 C39.6722467,29.0302306 39.2501025,29.473144 38.7895816,29.890748 C38.1115925,30.4981721 37.3696421,31.0423228 36.5765228,31.5232002 C36.0392484,31.8522216 35.4891817,32.1559336 34.9135305,32.4216817 C34.3506716,32.674775 33.7750205,32.9152137 33.1865771,33.1429978 C32.2655353,33.4973285 31.3317012,33.7757312 30.3722826,33.9782058 C29.8478004,34.0920979 29.3233183,34.1933352 28.7988361,34.2945726 C28.4150687,34.3705006 28.0313013,34.4337739 27.6347416,34.4843926 C27.4044811,34.5223566 27.1742207,34.5350112 26.9439602,34.5476659 C26.6497385,34.5729753 26.3555168,34.6109393 26.0612951,34.6362486 L26.0357106,34.6362486 C25.7414889,34.6489033 25.4600595,34.6615579 25.1658378,34.6615579 C24.5262254,34.6742126 23.8738207,34.6995219 23.2342084,34.6868673 C22.7864797,34.6868673 22.3259588,34.6489033 21.8782301,34.6235939 C21.5328394,34.5982846 21.1874487,34.5729753 20.842058,34.5223566 C20.4710828,34.4717379 20.1001077,34.4211192 19.7291325,34.3705006 C19.2430271,34.2945726 18.7441294,34.2186445 18.258024,34.1174072 C17.7335418,34.0161699 17.2090597,33.8896232 16.6973697,33.7504218 C15.7379512,33.4973285 14.8041171,33.1809618 13.8958675,32.8013217 C13.3969698,32.5861924 12.8980722,32.3584083 12.424759,32.105315 C11.6700164,31.7256749 10.9664428,31.2954162 10.3012459,30.7892295 C9.95585518,30.5234814 9.61046449,30.2577334 9.2906583,29.9793307 C8.9964366,29.7262373 8.71500715,29.4604893 8.4591622,29.1820866 C7.90909554,28.5999719 7.43578238,27.9419291 7.06480719,27.2332677 C6.73220875,26.613189 6.48915604,25.9551462 6.34844132,25.2591395 C6.27168783,24.8035714 6.23331109,24.3480034 6.24610333,23.8924353 C6.24610333,23.2597019 6.34844132,22.6269685 6.55311728,22.0195444 C6.68103976,21.6272497 6.83454673,21.2476097 7.0136382,20.8806243 C7.26948315,20.3744376 7.58928935,19.8809055 7.94747229,19.4379921 C8.33123972,18.9444601 8.76617614,18.488892 9.23948931,18.071288 C9.63604899,17.7169573 10.0581932,17.4132452 10.4803373,17.0842238 C11.3630024,16.4514904 12.3096288,15.9073397 13.3074241,15.4644263 C13.819114,15.2239876 14.3563884,15.0215129 14.8808706,14.8316929 C15.7507434,14.5026715 16.6334085,14.2495782 17.5416581,14.0471035 C18.053348,13.9332115 18.5778302,13.8319741 19.0895201,13.7433915 C19.396534,13.6801181 19.6907557,13.6294994 19.9977697,13.5915354 C20.3047836,13.5535714 20.6245898,13.5156074 20.9316038,13.4902981 C21.3281634,13.4523341 21.7375154,13.4270247 22.134075,13.3890607 C22.338751,13.3764061 22.5562192,13.3637514 22.7608952,13.3637514 L23.9761587,13.3131327 Z M9.57208775,32.3457537 C9.53371101,32.3457537 9.48254202,32.3584083 9.44416527,32.3837177 L8.74059165,32.8139764 L7.8707188,33.3454724 C7.76838082,33.4214004 7.62766609,33.4214004 7.51253586,33.3581271 L7.46136687,33.3581271 L7.42299013,33.4467098 C7.6020816,33.5859111 7.76838082,33.6998031 7.94747229,33.8263498 C8.01143352,33.8643138 8.04981027,33.8516592 8.08818701,33.7883858 L7.93468004,33.5859111 L8.36961646,33.2442351 L8.91968311,33.6365298 C8.83013738,33.8136952 8.86851412,34.0288245 8.71500715,34.1680259 L8.53591568,34.1047525 L8.49753894,34.1933352 C8.7022149,34.3451912 8.89409862,34.4970472 9.11156683,34.6362486 C9.16273582,34.6615579 9.22669706,34.7248313 9.30345055,34.6235939 C9.17552807,34.5097019 9.13715133,34.3325366 9.20111257,34.1806805 C9.30345055,33.8136952 9.40578853,33.4340551 9.50812651,33.0670697 C9.57208775,32.8392857 9.63604899,32.6241564 9.68721798,32.409027 C9.66163348,32.371063 9.62325674,32.3457537 9.57208775,32.3457537 Z M38.6232824,32.1559336 L38.5209444,32.3077897 C38.6616591,32.8772497 38.8023739,33.4340551 38.9302963,34.0035152 C38.9942576,34.2819179 38.9942576,34.3198819 38.8279584,34.5729753 L38.8919196,34.6235939 L39.5187397,34.1806805 C39.4164018,34.0414792 39.2884793,34.2059899 39.1733491,34.1047525 L39.0326343,33.6491845 L39.5699087,33.2695444 C39.7234157,33.3834364 39.9025072,33.4593645 40.0304296,33.5985658 C39.9920529,33.6618391 39.9536762,33.7124578 39.8897149,33.7883858 L39.9664684,33.8643138 L40.721211,33.3328178 L40.6316653,33.2442351 C40.5165351,33.3328178 40.3502358,33.3328178 40.2478979,33.2315804 C40.2223134,33.2189258 40.1967289,33.2062711 40.1711444,33.1809618 L39.1733491,32.5102643 C38.9942576,32.3963723 38.8151661,32.2824803 38.6232824,32.1559336 Z M23.8226517,13.8193195 C23.5668068,13.8193195 23.3237541,13.8319741 23.0679091,13.8446288 L22.134075,13.8825928 L22.0956983,13.8825928 L21.1746565,13.9711755 C20.842058,14.0091395 20.5222518,14.0217942 20.1896534,14.0724128 C19.8186782,14.1230315 19.4604953,14.1863048 19.0895201,14.2622328 C18.5010767,14.3761249 17.899841,14.4773622 17.3241899,14.6292182 C16.607824,14.8063836 15.8914581,15.0215129 15.2006768,15.287261 C14.5866489,15.5276997 13.972621,15.7681384 13.3713853,16.0338864 C12.7317729,16.3122891 12.1177451,16.6413105 11.5420939,17.0082958 C11.132742,17.2740439 10.72339,17.5524466 10.3396226,17.8561586 C10.0326087,18.0839426 9.73838697,18.337036 9.44416527,18.602784 C9.07319009,18.9444601 8.7277994,19.3114454 8.42078545,19.7163948 C8.07539476,20.1339989 7.78117306,20.5895669 7.52532811,21.0704443 C7.24389866,21.6145951 7.0392227,22.1840551 6.91130022,22.7788245 C6.64266301,24.1581834 6.84733898,25.5881609 7.49974361,26.840973 C7.67883508,27.182649 7.88351105,27.5116704 8.10097926,27.8153825 C8.49753894,28.4101519 8.98364435,28.9416479 9.52091876,29.4098706 C9.86630945,29.700928 10.1989079,29.9919854 10.5570908,30.2703881 C11.1071575,30.6879921 11.6956009,31.0676322 12.2968365,31.3839989 C12.7061884,31.6117829 13.1283326,31.8142576 13.563269,32.0040776 C14.0493745,32.219207 14.5482721,32.4216817 15.0343775,32.6115017 C15.7763279,32.9025591 16.5438628,33.1303431 17.3113976,33.3075084 C18.0277635,33.4720191 18.7569216,33.6112205 19.4860798,33.7377672 C20.0105619,33.8263498 20.5350441,33.8896232 21.0595262,33.9655512 C21.4305014,34.0161699 21.8142688,34.0414792 22.185244,34.0667885 L23.0295324,34.1047525 C23.3877153,34.1427165 23.6947293,34.1427165 24.0017432,34.1427165 C24.5773944,34.1427165 25.1530455,34.1300619 25.7414889,34.1047525 C25.9205804,34.1047525 26.0868796,34.0920979 26.2659711,34.0667885 C26.5346083,34.0414792 26.8160377,34.0035152 27.0846749,33.9782058 C27.3021431,33.9528965 27.5324036,33.9402418 27.7498718,33.9149325 C28.120847,33.8643138 28.5046144,33.8010405 28.8755896,33.7251125 C29.3872795,33.6238751 29.8989694,33.5352925 30.3978671,33.4214004 C31.2549477,33.2315804 32.1120283,32.9784871 32.9307321,32.6621204 C33.5191755,32.4343363 34.0820344,32.1938976 34.6576856,31.9408043 C34.9519073,31.8016029 35.246129,31.6497469 35.5403507,31.4978909 C35.8985336,31.2954162 36.2567166,31.0929415 36.589315,30.8778121 C36.9219134,30.6626828 37.2928886,30.3969348 37.6382793,30.1311867 C37.9964623,29.852784 38.3546452,29.549072 38.7000359,29.24536 C39.1093878,28.8657199 39.480363,28.4481159 39.8001692,27.9925478 C40.0560141,27.6255624 40.2990669,27.2332677 40.5165351,26.840973 C40.721211,26.461333 40.8875102,26.0437289 40.9898482,25.6261249 C41.1177707,25.1452475 41.1945242,24.6517154 41.2201087,24.1455287 C41.2329009,23.9557087 41.1945242,23.753234 41.1945242,23.5634139 C41.1817319,23.2217379 41.130563,22.8927165 41.0410172,22.5636952 C40.9003025,21.9815804 40.670042,21.4121204 40.3758203,20.8806243 C40.0048452,20.2352362 39.5699087,19.6278121 39.0454266,19.0963161 C38.7384126,18.792604 38.4313987,18.5015467 38.0988002,18.223144 C37.7917863,17.957396 37.4719801,17.7043026 37.1393817,17.4638639 C36.2439243,16.8437852 35.2845057,16.3122891 34.2739182,15.8693757 C33.5063833,15.515045 32.7004717,15.2239876 31.8945601,14.9835489 C31.2933244,14.8063836 30.6920888,14.6418729 30.0652687,14.5026715 C29.6431245,14.4014342 29.2081881,14.3255062 28.7732516,14.2495782 C28.5174067,14.1989595 28.2487695,14.1609955 27.9929245,14.1103768 C27.6987028,14.0724128 27.3916889,14.0471035 27.0974672,14.0091395 C26.6881152,13.9711755 26.2787633,13.9205568 25.8566191,13.8825928 C25.4984362,13.8572835 25.1530455,13.8572835 24.7948626,13.8446288 L24.4110951,13.8446288 C24.2192114,13.8319741 24.0145355,13.8193195 23.8226517,13.8193195 Z M38.8151661,32.750703 L39.4036095,33.1683071 L38.9814653,33.4720191 L38.7895816,32.7633577 L38.8151661,32.750703 Z M9.16273582,32.7253937 L9.18832032,32.7380484 L8.98364435,33.4214004 L8.56150018,33.1176884 L9.16273582,32.7253937 Z M41.4247847,29.776856 L40.9642637,30.1944601 C41.1433552,30.7006468 41.3096544,31.1941789 41.4759536,31.6877109 L41.4503692,31.7130202 L39.9920529,31.1309055 L39.5187397,31.5991282 C39.5699087,31.6877109 39.6210777,31.6244376 39.685039,31.6117829 C39.736208,31.5864736 39.8257537,31.5611642 39.8641304,31.5485096 L39.9408839,31.6244376 C40.1327676,31.8395669 40.3118591,32.0546963 40.5037428,32.2698256 C40.6316653,32.4343363 40.7467955,32.598847 40.874718,32.7633577 C40.9386792,32.826631 40.9386792,32.9405231 40.874718,33.0037964 C40.8491335,33.0291057 40.8363413,33.0544151 40.8363413,33.0923791 C40.8363413,33.1303431 40.8619258,33.1556524 40.8875102,33.1683071 L41.4759536,32.636811 L41.4119924,32.5482283 L41.1817319,32.674775 C40.9898482,32.5861924 40.5165351,32.0926603 40.1711444,31.6117829 C40.1967289,31.6117829 40.2095211,31.6117829 40.2351056,31.6244376 C40.6444575,31.8142576 41.0666017,31.9914229 41.4759536,32.181243 C41.5654994,32.2318616 41.6806296,32.3077897 41.8469288,32.2698256 C41.6422529,31.6877109 41.4375769,31.1182508 41.2329009,30.5487908 C41.5910839,30.9031215 41.9876436,31.2321429 42.269073,31.6370922 L42.1539428,31.8522216 L42.217904,31.9154949 C42.4481645,31.7003656 42.6656327,31.4978909 42.9086854,31.2827615 L42.8447242,31.2068335 L42.576087,31.2954162 L41.3608234,30.0932227 C41.3992002,30.0172947 41.4375769,29.928712 41.5015381,29.8274747 L41.4247847,29.776856 Z M7.64045834,30.5614454 L7.12876843,31.0170135 C7.33344439,31.1055962 7.44857462,30.9284308 7.64045834,30.9537402 L7.96026453,31.2447975 C7.92188779,31.2954162 7.88351105,31.3586895 7.83234206,31.4093082 C7.52532811,31.7256749 7.20552192,32.029387 6.89850797,32.333099 C6.70662425,32.522919 6.69383201,32.522919 6.46357155,32.371063 C6.4507793,32.3584083 6.43798705,32.3584083 6.41240256,32.3584083 L6.38681806,32.4216817 L7.11597618,33.1303431 L7.17993742,33.0797244 L7.02643045,32.8139764 C7.09039169,32.7253937 7.14156068,32.6494657 7.20552192,32.5861924 C7.42299013,32.3584083 7.65325059,32.143279 7.8707188,31.9281496 C7.99864128,31.7889483 8.11377151,31.6624016 8.26727848,31.5232002 C8.38240871,31.6370922 8.47195444,31.7509843 8.56150018,31.8901856 C8.63825366,32.029387 8.48474669,32.143279 8.4591622,32.2698256 L8.54870793,32.3457537 L8.94526761,31.8775309 C8.84292963,31.8269123 8.74059165,31.7762936 8.65104591,31.7130202 L8.3355038,31.4064961 L7.73000407,30.8018841 L7.64045834,30.5614454 Z M6.4507793,29.7895107 C6.27168783,29.81482 6.11818086,29.928712 6.02863512,30.0679134 C5.95188164,30.2324241 5.93908939,30.4222441 5.97746613,30.5994094 C5.99025838,30.7765748 6.04142737,30.9410855 6.05421962,31.1055962 C6.05421962,31.2574522 5.95188164,31.3966535 5.79837466,31.4346175 C5.63207544,31.4852362 5.45298397,31.3966535 5.40181498,31.2321429 C5.299477,31.0043588 5.37623049,30.7765748 5.49136072,30.5741001 C5.50415296,30.5614454 5.50415296,30.5487908 5.50415296,30.5234814 L5.37623049,30.4728628 L5.0308398,30.8778121 C5.10759328,31.1562148 5.27389251,31.3966535 5.50415296,31.5611642 C5.70882893,31.7003656 5.99025838,31.7256749 6.20772659,31.6117829 C6.43798705,31.4725816 6.55311728,31.2194882 6.48915604,30.9663948 C6.46357155,30.7892295 6.41240256,30.6120641 6.37402581,30.4348988 C6.34844132,30.2956974 6.41240256,30.1564961 6.52753278,30.0679134 C6.61707852,29.9793307 6.77058549,29.9793307 6.87292347,30.0552587 C7.00084595,30.1564961 7.10318393,30.2703881 7.05201494,30.4475534 C7.02643045,30.5487908 6.9880537,30.6373735 6.94967696,30.7259561 L6.94967696,30.7639201 L7.00084595,30.7892295 L7.33344439,30.4855174 C7.25669091,30.2577334 7.11597618,30.0679134 6.93688471,29.9160574 C6.79616999,29.8021654 6.61707852,29.7515467 6.4507793,29.7895107 Z M12.5526815,29.3465973 C12.7061884,29.662964 13.1411249,29.8780934 13.6528148,29.7262373 C13.7039838,29.9919854 13.6911915,30.2577334 13.6400225,30.5108268 C13.3330086,30.7006468 12.9236567,30.6500281 12.6678117,30.3969348 C12.6064089,30.3361924 12.5613802,30.251153 12.5523745,30.1612542 L12.5526815,29.3465973 Z M35.4635972,29.359252 L35.4635972,30.0172947 C35.4635972,30.3463161 35.3356747,30.5108268 35.0158685,30.5994094 C34.7984003,30.6500281 34.5681399,30.6120641 34.3634639,30.5108268 C34.3122949,30.2577334 34.3122949,29.9793307 34.3634639,29.7262373 C34.8495693,29.8780934 35.297298,29.6882733 35.4635972,29.359252 Z M26.4578548,23.829162 L26.9439602,23.9936727 L26.9439602,26.9801744 L26.9567524,26.9801744 C27.1230517,26.992829 27.2765586,27.0181384 27.4300656,27.030793 L27.9929245,27.0504781 C28.0867343,27.0546963 28.1805441,27.0603206 28.274354,27.068757 C28.6581214,27.0940664 29.0290966,27.144685 29.412864,27.1953037 C29.719878,27.2332677 30.0140997,27.2459224 30.3211136,27.2965411 C30.6920888,27.3471597 31.063064,27.4104331 31.4340392,27.4863611 C31.9968981,27.6002531 32.5469647,27.7394544 33.0842391,27.9292745 C33.5319678,28.0684758 33.9413197,28.2709505 34.3122949,28.5366985 C34.5169709,28.7012092 34.6704778,28.8783746 34.6576856,29.1694319 C34.6448933,29.321288 34.6448933,29.3339426 34.5041786,29.4604893 L34.1204112,29.2580146 C33.4807988,28.9669573 32.8156019,28.7391732 32.1248205,28.5999719 C31.8561833,28.5493532 31.6003384,28.4860799 31.3317012,28.4354612 C31.0246872,28.3848425 30.7176733,28.3342238 30.4106593,28.2836052 C30.1420221,28.2456412 29.8733849,28.1950225 29.5919555,28.1570585 C29.4768253,28.1444038 29.3489028,28.1317492 29.2209803,28.1190945 C28.9267586,28.0937852 28.6325369,28.0684758 28.325523,28.0558211 C27.9801323,28.0305118 27.6475338,28.0178571 27.3021431,27.9925478 L26.4578548,27.9419291 L26.4578548,23.829162 Z M21.5328394,23.829162 L21.5456316,27.9672385 L21.3665402,27.9672385 C21.0083572,27.9798931 20.6501743,27.9798931 20.2919914,28.0052025 C19.8954317,28.0305118 19.4860798,28.0558211 19.0895201,28.1064398 C18.6034147,28.1570585 18.1173092,28.2456412 17.6439961,28.2962598 C17.0043837,28.3721879 16.3519791,28.4987345 15.7251589,28.6505906 C15.059962,28.7897919 14.4075574,29.0175759 13.7935295,29.3086333 C13.7039838,29.359252 13.614438,29.4098706 13.5248923,29.4604893 C13.3330086,29.283324 13.3074241,29.0049213 13.4609311,28.8024466 C13.614438,28.5873172 13.8319063,28.4228065 14.0621667,28.2962598 C14.5226876,28.0431665 15.0215853,27.8660011 15.5332752,27.7394544 C15.9810039,27.6255624 16.4287325,27.5243251 16.8764612,27.4230877 C17.1834752,27.3598144 17.4776969,27.3345051 17.7847108,27.2838864 C18.0917248,27.2332677 18.3859465,27.1953037 18.6801682,27.1573397 C18.9488054,27.1320304 19.2302348,27.106721 19.5116643,27.0940664 C19.8826394,27.068757 20.2536146,27.0561024 20.6245898,27.030793 C20.7653045,27.0181384 20.893227,27.0054837 21.0339417,26.9801744 L21.0339417,23.9936727 L21.5328394,23.829162 Z M14.4715186,27.5875984 C13.9086597,27.7647638 13.3713853,27.9798931 12.9108644,28.3721879 C12.7957342,28.4987345 12.680604,28.6252812 12.578266,28.7771372 C12.1305373,28.8657199 11.6572241,28.9669573 11.1967032,29.0555399 C10.8385203,29.1188133 10.4675451,29.1567773 10.0965699,29.207396 C10.0709854,29.207396 10.0326087,29.207396 10.0070242,29.2200506 C9.94306294,29.2580146 9.82793271,29.2327053 9.76397147,29.1694319 C9.66163348,28.8530652 9.67442573,28.5113892 9.80234821,28.1950225 C10.1349467,28.2203318 10.4803373,28.2076772 10.8001435,28.1444038 C11.3502102,28.0684758 11.9130691,27.9925478 12.4631357,27.9166198 C13.0515791,27.8280371 13.6400225,27.7267998 14.2284659,27.6255624 C14.3052194,27.6129078 14.3947652,27.6002531 14.4715186,27.5875984 Z M33.5191755,27.6002531 C33.7622283,27.6382171 34.005281,27.6761811 34.2611259,27.7141451 L35.1693755,27.8660011 C35.4635972,27.9166198 35.7578189,27.9672385 36.0648328,28.0178571 C36.3206778,28.0558211 36.5765228,28.0937852 36.8323677,28.1190945 C37.0882127,28.1570585 37.3696421,28.1950225 37.6382793,28.2076772 C37.8429553,28.2203318 38.0092545,28.2076772 38.2139305,28.2076772 C38.3674374,28.5240439 38.3290607,28.8404106 38.2523072,29.1694319 C38.1755537,29.2327053 38.0732157,29.24536 37.98367,29.2200506 C37.830163,29.1947413 37.6766561,29.1947413 37.5231491,29.1694319 C37.1777584,29.1188133 36.8195755,29.0555399 36.4741848,28.9922666 C36.1287941,28.9289933 35.7450267,28.8404106 35.3740515,28.7771372 C35.1054143,28.3089145 34.6576856,28.0558211 34.1715802,27.8533465 C33.954112,27.7647638 33.7238515,27.6761811 33.5191755,27.6002531 Z M43.2412838,27.9672385 C42.9470621,27.9672385 42.7168017,28.2076772 42.7295939,28.4860799 C42.7423862,28.7771372 42.9854389,29.0049213 43.2668683,29.0049213 C43.4075831,29.0175759 43.56109,28.9669573 43.663428,28.8657199 C43.765766,28.7644826 43.8297272,28.6252812 43.816935,28.4734252 C43.816935,28.3342238 43.7529737,28.1950225 43.6378435,28.1064398 C43.5355055,28.0052025 43.3947908,27.9672385 43.2412838,27.9672385 Z M4.74941035,27.9672385 C4.60869562,27.9545838 4.4679809,28.0178571 4.36564291,28.1064398 C4.26330493,28.2076772 4.19934369,28.3342238 4.19934369,28.4734252 C4.19934369,28.6126265 4.26330493,28.7518279 4.36564291,28.8530652 C4.4679809,28.9669573 4.60869562,29.0175759 4.74941035,29.0049213 C5.04363205,29.0049213 5.27389251,28.7771372 5.27389251,28.4860799 C5.27389251,28.1950225 5.04363205,27.9672385 4.74941035,27.9672385 Z M24.973954,27.3724691 C25.0123308,27.6382171 25.0507075,27.9039651 25.0890843,28.1570585 L25.5879819,28.7518279 L22.4282967,28.7518279 C22.5690115,28.5746625 22.6969339,28.4101519 22.8248564,28.2582958 C22.9016099,28.1697132 22.9399867,28.0684758 22.9399867,27.9545838 C22.9655711,27.7647638 22.9911556,27.5749438 23.0167401,27.3724691 L24.973954,27.3724691 Z M24.1936269,16.8311305 C24.8460316,16.8690945 25.485644,17.0082958 26.0357106,17.4005906 C26.1508408,17.4891732 26.2659711,17.5904106 26.368309,17.6916479 L26.368309,17.99536 C26.5474005,18.1219066 26.726492,18.261108 26.6113618,18.526856 L26.8927912,18.7419854 L26.8927912,19.0456974 C26.8672067,19.0456974 26.8416222,19.0330427 26.8160377,19.0203881 C26.4962315,18.7799494 26.1380486,18.602784 25.7414889,18.5015467 C25.383306,18.3876547 25.0123308,18.3243813 24.6285634,18.3117267 C24.2703804,18.2864173 23.9121975,18.2737627 23.5540145,18.2864173 C22.8504409,18.337036 22.1724518,18.4635827 21.5456316,18.8052587 C21.4188774,18.8679542 21.2418845,18.9182251 21.1764375,19.0791827 L21.1618642,19.0836614 C21.3281634,19.0456974 21.4944627,18.9950787 21.6607619,18.9444601 C22.0573216,18.8432227 22.4666735,18.7672947 22.8760254,18.716676 C23.4388843,18.6534027 24.0017432,18.640748 24.5518099,18.6660574 C24.9611618,18.6913667 25.3705137,18.7419854 25.7798657,18.8179134 C26.2787633,18.8938414 26.7520765,19.0330427 27.1998052,19.2481721 C27.4812346,19.3620641 27.7370796,19.5518841 27.9289633,19.8049775 L38.8407506,19.8049775 L38.8407506,20.4124016 L37.8685398,20.4124016 L37.8685398,27.8027278 L37.4719801,27.8027278 C37.4591879,27.4610517 37.4719801,27.106721 37.4719801,26.765045 L37.4719801,20.4377109 L27.9417555,20.4377109 C27.5451958,19.8555962 26.931168,19.6657762 26.3043478,19.5139201 C25.8949959,19.4000281 25.485644,19.3241001 25.0634998,19.2861361 C24.4750564,19.2355174 23.886613,19.2228628 23.2981696,19.2608268 C22.5690115,19.2861361 21.8526456,19.4253375 21.1746565,19.6657762 C20.8292658,19.8049775 20.4966673,19.9315242 20.2408224,20.2099269 C20.1768611,20.2732002 20.1256921,20.3491282 20.0617309,20.4377109 L10.5442986,20.4377109 L10.5442986,27.8153825 L10.1477389,27.8153825 L10.1477389,20.4377109 L9.16273582,20.4377109 L9.16273582,19.8302868 L20.0233542,19.8302868 C20.1896534,19.6784308 20.3687449,19.5392295 20.5478363,19.4126828 C20.73972,19.2987908 20.944396,19.2102081 21.149072,19.1216254 L21.1618642,19.0836614 L21.172,19.08 L21.1324932,19.0263611 C21.0989264,18.9449663 21.1439551,18.8457537 21.1234875,18.75464 L21.4049169,18.526856 C21.2897867,18.2737627 21.4560859,18.1219066 21.6479696,17.99536 L21.6479696,17.6916479 C21.8910223,17.4132452 22.2108285,17.1981159 22.5690115,17.0842238 C22.8888177,16.9576772 23.2342084,16.8817492 23.5923913,16.8564398 C23.7970673,16.8311305 24.0017432,16.8311305 24.1936269,16.8311305 Z M4.7366181,24.6137514 C4.67265686,24.6264061 4.60869562,24.6264061 4.55752663,24.6390607 C4.04583672,24.7276434 3.53414681,24.8288808 3.00966465,24.9174634 C2.77940419,24.9554274 2.76661195,24.9427728 2.66427396,24.7276434 L2.54914373,24.7402981 L2.70265071,25.5248875 L2.81778094,25.5122328 L2.83057318,25.2591395 C3.21434062,25.0566648 3.64927704,25.0566648 4.07142122,24.9680821 L2.88174218,26.4739876 L2.99687241,27.030793 L3.13758713,26.992829 C3.11200263,26.9042463 3.12479488,26.803009 3.18875612,26.727081 C3.23992511,26.651153 3.32947085,26.6005343 3.43180883,26.5878796 C3.63648479,26.5499156 3.82836851,26.499297 4.03304447,26.4739876 C4.30168168,26.423369 4.57031888,26.3854049 4.85174833,26.3347863 L4.99246305,26.575225 L5.10759328,26.5246063 L4.94129406,25.7400169 L4.82616383,25.8032902 L4.82616383,26.0437289 C4.40401966,26.2588583 3.91791424,26.2588583 3.47018557,26.3854049 L3.45739332,26.3600956 L4.77499484,24.7529528 L4.7366181,24.6137514 Z M24.9867463,23.5634139 L24.9867463,26.992829 L23.0679091,26.992829 L23.0679091,23.5634139 L24.9867463,23.5634139 Z M43.4331676,23.8924353 L43.3052451,23.90509 C43.2796606,24.170838 43.2412838,24.4239314 43.2156993,24.6770247 L43.3308296,24.6770247 L43.458752,24.4365861 C43.970442,24.4239314 44.4181706,24.5884421 44.8786915,24.6390607 L44.8786915,24.6643701 L43.1645303,25.1199381 C43.2156993,25.1832115 43.2412838,25.2338301 43.2796606,25.2591395 C43.5738823,25.4363048 43.8808962,25.6134702 44.1751179,25.7906355 L44.7507691,26.1196569 C44.5077164,26.1070022 44.2774559,26.0816929 44.0471954,26.0563836 C43.8425195,26.0310742 43.6378435,26.0184196 43.4331676,25.9804556 C43.3692063,25.9551462 43.3052451,25.9298369 43.2540761,25.8918729 L43.2412838,25.7147075 L43.1005691,25.6640889 C43.0621924,25.9931102 43.0238156,26.2968223 42.9854389,26.613189 L43.1005691,26.5878796 L43.2029071,26.3727503 C43.458752,26.3854049 43.7018048,26.3980596 43.9448575,26.423369 C44.2262869,26.4486783 44.5077164,26.4866423 44.7763536,26.5119516 C44.9298605,26.5246063 44.9682373,26.5625703 44.9810295,26.7144263 C44.9810295,26.7523903 44.9938218,26.7903543 44.9938218,26.840973 L45.1217443,26.7903543 C45.1473288,26.5878796 45.1729132,26.3854049 45.1984977,26.1955849 L43.816935,25.3477222 L45.3520047,24.8794994 C45.4031737,24.6770247 45.4287582,24.4618954 45.415966,24.2594207 C45.3008357,24.2214567 45.2880435,24.3100394 45.262459,24.360658 C45.2240822,24.4745501 45.160121,24.5125141 45.057783,24.4998594 C44.5972621,24.4112767 44.1495334,24.3100394 43.6890125,24.208802 C43.612259,24.1834927 43.5355055,24.1455287 43.458752,24.09491 L43.4331676,23.8924353 Z M12.7701497,24.2973847 L12.7701497,26.423369 L11.6956009,26.423369 L11.6956009,24.2973847 L12.7701497,24.2973847 Z M36.3206778,24.3100394 L36.3206778,26.423369 L35.246129,26.423369 L35.246129,24.3100394 L36.3206778,24.3100394 Z M14.6122334,24.2973847 L14.6122334,26.423369 L13.5376846,26.423369 L13.5376846,24.2973847 L14.6122334,24.2973847 Z M32.6748872,24.2973847 L32.6748872,26.423369 L31.6003384,26.423369 L31.6003384,24.2973847 L32.6748872,24.2973847 Z M34.5169709,24.2973847 L34.5169709,26.423369 L33.4424221,26.423369 L33.4424221,24.2973847 L34.5169709,24.2973847 Z M30.8839725,24.2973847 L30.8839725,26.423369 L29.771047,26.423369 L29.771047,24.2973847 L30.8839725,24.2973847 Z M20.0873154,24.2973847 L20.0873154,26.423369 L19.0127666,26.423369 L19.0127666,24.2973847 L20.0873154,24.2973847 Z M29.0418888,24.2973847 L29.0418888,26.423369 L27.96734,26.423369 L27.96734,24.2973847 L29.0418888,24.2973847 Z M18.258024,24.3100394 L18.258024,26.423369 L17.1706829,26.423369 L17.1706829,24.3100394 L18.258024,24.3100394 Z M16.454317,24.2973847 L16.454317,26.4107143 L15.3413915,26.4107143 L15.3413915,24.2973847 L16.454317,24.2973847 Z M16.454317,22.3991845 L16.454317,23.943054 L15.3413915,23.943054 L15.3413915,22.3991845 L16.454317,22.3991845 Z M30.8839725,22.3865298 L30.8839725,23.943054 L29.771047,23.943054 L29.771047,22.3865298 L30.8839725,22.3865298 Z M18.2452317,22.3865298 L18.2452317,23.943054 L17.1706829,23.943054 L17.1706829,22.3865298 L18.2452317,22.3865298 Z M36.3206778,22.3991845 L36.3206778,23.943054 L35.246129,23.943054 L35.246129,22.3991845 L36.3206778,22.3991845 Z M32.6748872,22.3865298 L32.6748872,23.943054 L31.6003384,23.943054 L31.6003384,22.3865298 L32.6748872,22.3865298 Z M14.6122334,22.3991845 L14.6122334,23.943054 L13.5248923,23.943054 L13.5248923,22.3991845 L14.6122334,22.3991845 Z M34.5169709,22.3865298 L34.5169709,23.943054 L33.4424221,23.943054 L33.4424221,22.3865298 L34.5169709,22.3865298 Z M12.7829419,22.3991845 L12.7829419,23.943054 L11.6956009,23.943054 L11.6956009,22.3991845 L12.7829419,22.3991845 Z M4.04583672,21.8044151 C3.91791424,21.8297244 3.93070649,21.9183071 3.91791424,21.9942351 C3.89232975,22.1587458 3.86674525,22.3106018 3.853953,22.4751125 C3.84116076,22.5636952 3.853953,22.6522778 3.853953,22.7408605 L3.95629099,22.7408605 L4.07142122,22.4371485 C4.30168168,22.4371485 4.53194214,22.4244938 4.72382585,22.5636952 C4.80057934,22.9180259 4.60869562,23.2723566 4.26330493,23.3989033 C3.98187548,23.5127953 3.66206929,23.5127953 3.36784759,23.3989033 C2.92011892,23.2217379 2.77940419,22.9939539 2.83057318,22.5257312 C2.84336543,22.4244938 2.89453442,22.3359111 2.97128791,22.2599831 C3.11200263,22.1587458 3.25271736,22.0701631 3.40622433,22.0068898 L3.39343209,21.9183071 L2.83057318,21.9183071 C2.7282352,22.2599831 2.62589722,22.5763498 2.67706621,22.9433352 C2.76661195,23.5760686 3.20154837,23.9303993 3.77719952,23.943054 C4.35285067,23.9683633 4.7622026,23.5381046 4.86454058,23.0319179 C4.89012507,22.8927165 4.90291732,22.7535152 4.92850182,22.6143138 L4.87733282,22.1081271 L4.13538246,22.0068898 L4.04583672,21.8044151 Z M20.0873154,22.3865298 L20.0873154,23.943054 L19.0127666,23.943054 L19.0127666,22.3865298 L20.0873154,22.3865298 Z M29.0418888,22.3991845 L29.0418888,23.943054 L27.96734,23.943054 L27.96734,22.3991845 L29.0418888,22.3991845 Z M43.0110234,21.538667 L42.8958931,21.6019404 L43.0494001,22.2852925 C43.2540761,22.2599831 43.1261536,22.0828178 43.2924528,22.0195444 L43.7529737,22.0575084 C43.7913505,22.2599831 43.8425195,22.4624578 43.8808962,22.6649325 C43.7273893,22.7661699 43.5866745,22.8927165 43.3819986,22.9306805 L43.2412838,22.7408605 C43.2156993,22.8041339 43.1645303,22.8547525 43.1773226,22.8927165 C43.2284916,23.1584646 43.2924528,23.4242126 43.3436218,23.6899606 L43.3819986,23.7026153 C43.4075831,23.6646513 43.4459598,23.639342 43.4459598,23.601378 C43.458752,23.4621766 43.5482978,23.3356299 43.6762203,23.2723566 C43.9960265,23.0698819 44.3286249,22.8674072 44.6484311,22.6775872 L45.3008357,22.2726378 L45.2240822,22.1460911 C44.5205086,21.9942351 43.8041427,21.9183071 43.1261536,21.7537964 L43.0110234,21.538667 Z M21.5328394,21.8676884 L21.5328394,23.2723566 L21.0723185,23.4368673 L21.0723185,22.0321991 L21.5328394,21.8676884 Z M26.4834393,21.8803431 L26.9567524,22.0321991 L26.9567524,23.4368673 L26.4834393,23.2850112 L26.4834393,21.8803431 Z M24.8588238,19.9441789 L24.8588238,22.9812992 L24.5134331,22.9812992 L24.5134331,19.9062148 C24.6285634,19.8682508 24.7564858,19.8809055 24.8588238,19.9441789 Z M23.5028456,19.9062148 L23.5028456,22.9812992 L23.1958316,22.9812992 L23.1958316,19.9568335 C23.2981696,19.8809055 23.2981696,19.8809055 23.5028456,19.9062148 Z M24.1808347,19.9062148 L24.1808347,22.9812992 L23.8482362,22.9812992 L23.8482362,19.9062148 L24.1808347,19.9062148 Z M43.970442,22.0828178 L44.7123923,22.1967098 L44.0727799,22.5636952 C44.0344032,22.3991845 44.0088187,22.2473285 43.970442,22.0828178 Z M32.5341725,21.3615017 C32.5981337,21.5513217 32.508588,21.7537964 32.3167043,21.8550337 C32.1120283,21.9436164 31.9201446,21.8676884 31.7538454,21.6272497 C31.7538454,21.2855737 31.8561833,21.1084083 32.0864438,21.0704443 C32.2911198,21.045135 32.4830035,21.1716817 32.5341725,21.3615017 Z M28.7604594,21.1716817 C28.8883819,21.2855737 28.9395508,21.462739 28.8883819,21.6145951 C28.8372129,21.7917604 28.6709136,21.9056524 28.4918222,21.8803431 C28.2615617,21.8676884 28.172016,21.7791057 28.069678,21.462739 L28.172016,21.2096457 C28.4150687,21.045135 28.5685757,21.0324803 28.7604594,21.1716817 Z M19.5244565,21.0704443 C19.6395867,21.0704443 19.7419247,21.1084083 19.8186782,21.1843363 C19.9082239,21.2602643 19.9466007,21.3615017 19.9338084,21.4753937 C19.9466007,21.5892857 19.8954317,21.6905231 19.8186782,21.7664511 C19.7419247,21.8423791 19.6395867,21.8803431 19.5244565,21.8803431 C19.294196,21.8803431 19.1151046,21.7031777 19.1151046,21.4753937 C19.1151046,21.2476097 19.294196,21.0704443 19.5244565,21.0704443 Z M30.3339059,21.0577897 C30.4490361,21.0577897 30.5513741,21.1084083 30.6281276,21.1843363 C30.704881,21.2602643 30.7432578,21.3741564 30.7432578,21.4753937 C30.75605,21.5892857 30.704881,21.6905231 30.6281276,21.7664511 C30.5385818,21.8550337 30.4234516,21.8929978 30.3211136,21.8676884 C30.2187756,21.8676884 30.1164376,21.8297244 30.0396842,21.7537964 C29.9629307,21.6778684 29.9245539,21.576631 29.9245539,21.4753937 C29.9245539,21.2476097 30.1164376,21.0704443 30.3339059,21.0577897 Z M14.074959,21.0704443 C14.3052194,21.083099 14.4715186,21.272919 14.4715186,21.4880484 C14.4715186,21.5892857 14.4203496,21.7031777 14.3435962,21.7664511 C14.2540504,21.8423791 14.1517124,21.8803431 14.0493745,21.8676884 C13.8446985,21.9056524 13.6528148,21.6905231 13.6528148,21.4753937 C13.6528148,21.3615017 13.7039838,21.2602643 13.7807373,21.1843363 C13.8574907,21.1084083 13.972621,21.0704443 14.074959,21.0704443 Z M35.7961956,21.0577897 C36.0264561,21.0577897 36.2055476,21.2476097 36.2055476,21.4753937 C36.1927553,21.6905231 36.0008716,21.8676884 35.7834034,21.8676884 C35.6810654,21.8676884 35.5787274,21.8170697 35.5019739,21.7411417 C35.4252205,21.6652137 35.3868437,21.5639764 35.3868437,21.462739 C35.3868437,21.3615017 35.4252205,21.2476097 35.5019739,21.1716817 C35.5787274,21.0957537 35.6810654,21.0577897 35.7961956,21.0577897 Z M15.8914581,21.083099 C16.1217186,21.083099 16.3008101,21.2602643 16.3008101,21.4880484 C16.3008101,21.5892857 16.2624333,21.6905231 16.1856798,21.7664511 C16.1281147,21.8233971 16.0561583,21.8589883 15.9752074,21.8678861 L15.8914581,21.8676884 C15.7891202,21.8803431 15.6739899,21.8423791 15.5972364,21.7664511 C15.520483,21.6905231 15.469314,21.5892857 15.4821062,21.4880484 C15.4821062,21.2602643 15.6611977,21.083099 15.8914581,21.083099 Z M33.9669042,21.0577897 C34.0692422,21.0577897 34.1715802,21.1084083 34.2483337,21.1843363 C34.3250872,21.2602643 34.3634639,21.3615017 34.3634639,21.4753937 C34.3762561,21.5892857 34.3378794,21.6905231 34.2611259,21.7664511 C34.1843724,21.8423791 34.0820344,21.8803431 33.9669042,21.8676884 C33.7366438,21.8676884 33.5575523,21.6905231 33.5575523,21.462739 C33.5575523,21.234955 33.749436,21.0577897 33.9669042,21.0577897 Z M12.2584598,21.0704443 C12.475928,21.0704443 12.6550195,21.2476097 12.6550195,21.462739 C12.6422272,21.6905231 12.4631357,21.8676884 12.2328753,21.8676884 C12.1305373,21.8676884 12.0281993,21.8297244 11.9514458,21.7537964 C11.8874846,21.6778684 11.8363156,21.5639764 11.8491079,21.462739 C11.8491079,21.3615017 11.8874846,21.2476097 11.9642381,21.1843363 C12.0409916,21.1084083 12.1433295,21.0704443 12.2584598,21.0704443 Z M17.7591263,21.0704443 C17.9638023,21.0957537 18.1173092,21.2602643 18.1173092,21.462739 C18.1173092,21.6525591 17.9893868,21.8170697 17.7975031,21.8550337 C17.5160736,21.9056524 17.3881511,21.8170697 17.2858131,21.462739 C17.3881511,21.159027 17.5416581,21.0324803 17.7591263,21.0704443 Z M5.87512815,19.6910855 C5.82395916,19.7163948 5.77279017,19.7417042 5.73441342,19.7670135 C5.65765994,19.8429415 5.55532196,19.8809055 5.44019173,19.8682508 C5.299477,19.8555962 5.15876228,19.8429415 5.0052553,19.8302868 C4.82616383,19.8176322 4.64707237,19.8176322 4.45518865,19.7923228 C4.30168168,19.7796682 4.13538246,19.7417042 3.98187548,19.7290495 C3.82836851,19.7290495 3.67486154,19.7290495 3.50856232,19.7163948 C3.43180883,19.8935602 3.57252355,19.9821429 3.63648479,20.0580709 C3.96908323,20.4124016 4.31447392,20.7667323 4.65986461,21.1084083 C4.74941035,21.196991 4.81337159,21.2855737 4.90291732,21.386811 L4.90291732,21.7031777 C4.96687856,21.6525591 5.01804755,21.6272497 5.04363205,21.6019404 C5.13317778,21.4121204 5.22272351,21.2223003 5.31226925,21.0324803 L5.22272351,20.9818616 L5.01804755,21.159027 L4.62148787,20.8046963 L4.89012507,20.2478909 L5.17155452,20.2478909 C5.26110026,20.2478909 5.35064599,20.2732002 5.40181498,20.2858549 C5.51694521,20.3491282 5.35064599,20.4883296 5.52973746,20.5262936 C5.5936987,20.3997469 5.67045219,20.2605456 5.72162118,20.1339989 C5.77279017,19.9947975 5.8879204,19.8809055 5.87512815,19.6910855 Z M21.3025789,20.6275309 C21.4560859,20.779387 21.3921247,20.969207 21.3665402,21.1337177 C21.3537479,21.2982283 21.3409557,21.4753937 21.1234875,21.538667 C20.9827727,21.2223003 21.0595262,20.8679696 21.3025789,20.6275309 Z M26.6881152,20.6401856 C26.9439602,20.7540776 27.0590904,21.2855737 26.879999,21.538667 C26.8416222,21.5133577 26.777661,21.4880484 26.7392842,21.4500844 C26.6113618,21.2223003 26.572985,20.969207 26.6113618,20.7161136 C26.6113618,20.7034589 26.624154,20.6908043 26.6369463,20.6781496 C26.6497385,20.6654949 26.6625307,20.6528403 26.6881152,20.6401856 Z M43.868104,18.488892 L43.7913505,18.56482 C43.8553117,18.8305681 43.8297272,18.9064961 43.5994668,19.0203881 C43.3180373,19.1595894 43.0494001,19.2861361 42.7679707,19.4000281 C42.5888792,19.4759561 42.42258,19.5771935 42.217904,19.5392295 L42.0771893,19.3873735 L41.9876436,19.4633015 C42.0899815,19.6784308 42.1795273,19.8809055 42.269073,20.0833802 C42.2946575,20.1086895 42.3330342,20.1339989 42.371411,20.1593082 L42.4097877,20.1213442 C42.3969955,20.0707255 42.3969955,20.0327615 42.3842032,19.9821429 C42.3842032,19.9441789 42.371411,19.8809055 42.371411,19.8176322 C42.7551784,19.5518841 43.1901148,19.4253375 43.612259,19.2355174 L42.7040094,21.0957537 L42.7679707,21.2476097 C43.2284916,21.045135 43.6762203,20.8426603 44.1239489,20.6401856 C44.2774559,20.5516029 44.4565474,20.5009843 44.6356388,20.5009843 L44.7891458,20.6781496 L44.8658993,20.6022216 L44.5333009,19.8809055 L44.4181706,19.9315242 C44.4437551,20.0327615 44.4565474,20.1086895 44.4693396,20.1846175 C44.3158326,20.3491282 43.7401815,20.6528403 43.3180373,20.7667323 C43.5994668,20.1846175 43.868104,19.6025028 44.1367412,19.0456974 C44.0599877,18.8558774 43.970442,18.6660574 43.868104,18.488892 Z M4.00745998,20.1466535 L4.68544911,20.2225816 L4.49356539,20.6148763 L4.00745998,20.1466535 Z M3.49577007,19.2608268 L2.92011892,19.5265748 L3.09921039,20.1466535 L3.21434062,20.0833802 L3.21434062,19.6404668 L3.54693906,19.3747188 L3.49577007,19.2608268 Z M5.65765994,16.4514904 L5.18434677,17.0842238 L5.26110026,17.1348425 L5.51694521,16.9703318 C5.87512815,17.1854612 6.23331109,17.4258999 6.56590953,17.6789933 L4.60869562,17.8308493 L4.27609718,18.299072 L4.35285067,18.3623453 L4.54473438,18.223144 L4.7622026,18.223144 C5.0308398,18.412964 5.31226925,18.6154387 5.58090645,18.8179134 C5.69603668,18.8938414 5.79837466,18.9824241 5.90071265,19.0710067 C6.04142737,19.1848988 6.00305063,19.3114454 5.93908939,19.4379921 L5.97746613,19.4759561 L6.04142737,19.5012655 L6.51474054,18.8685321 L6.39961031,18.8052587 L6.22051884,18.9697694 C5.77279017,18.8052587 5.44019173,18.450928 5.0308398,18.1978346 C5.41460723,18.1725253 5.77279017,18.1345613 6.1309731,18.1219066 L7.02643045,18.0839426 C7.10318393,18.109252 7.19272967,18.0459786 7.20552192,17.9447413 C6.70662425,17.5397919 6.1565576,17.2234252 5.69603668,16.7805118 C5.63207544,16.6792745 5.79837466,16.5527278 5.65765994,16.4514904 Z M22.5178425,17.8941226 C22.185244,17.9827053 21.8782301,18.1345613 21.5968006,18.3243813 C21.5456316,18.3623453 21.5072549,18.412964 21.4688782,18.450928 C23.0807014,17.7549213 24.9355773,17.7549213 26.5601928,18.450928 C26.5346083,18.412964 26.4962315,18.375 26.470647,18.3496907 C26.4450625,18.3243813 26.4066858,18.299072 26.368309,18.2737627 C25.7926579,17.8941226 25.1402533,17.7549213 24.4622641,17.7043026 C23.8098595,17.6536839 23.1446626,17.7169573 22.5178425,17.8941226 Z M41.8085521,15.8314117 L41.3096544,16.2237064 L41.3864079,16.2869798 L41.7701753,16.1983971 L42.115566,16.4894544 C42.1027738,16.5147638 42.0771893,16.5400731 42.064397,16.5527278 C41.8469288,16.7552025 41.6166684,16.9450225 41.3992002,17.1474972 C41.2329009,17.2993532 41.079394,17.4385546 40.9130947,17.5904106 C40.874718,17.6283746 40.823549,17.6410292 40.7851723,17.6410292 C40.7340033,17.6410292 40.6828343,17.6157199 40.6444575,17.5904106 C40.618873,17.5651012 40.5932886,17.5397919 40.5421196,17.5018279 L40.4525738,17.6030652 L41.1561475,18.3496907 L41.2201087,18.2737627 C41.1817319,18.1598706 41.1433552,18.071288 41.1049785,17.9700506 L42.3969955,16.7805118 L42.6912172,17.1601519 C42.6272559,17.2993532 42.576087,17.4132452 42.4993335,17.5524466 C42.5632947,17.5397919 42.6144637,17.5524466 42.6272559,17.5397919 C42.7679707,17.4005906 42.8958931,17.2866985 43.0494001,17.1348425 L42.8703087,17.0715692 L42.8447242,17.0715692 C42.7551784,16.9703318 42.6656327,16.8564398 42.5632947,16.7425478 C42.2946575,16.4641451 41.9876436,16.2110517 41.8085521,15.8314117 Z M24.2320037,17.1348425 C23.988951,17.1348425 23.7458983,17.1474972 23.4900533,17.1601519 C23.0039479,17.1981159 22.543427,17.3373172 22.1212828,17.5777559 C21.9677758,17.6410292 21.8526456,17.7549213 21.7630999,17.8814679 C23.2725851,17.2360799 24.7436936,17.2234252 26.2275943,17.8814679 L26.2403866,17.8561586 L26.0868796,17.7043026 C25.5368129,17.3373172 24.8972006,17.1348425 24.2320037,17.1348425 Z M39.0710111,16.6413105 L38.8535429,16.8058211 C38.8407506,16.9829865 38.8791274,17.0715692 38.9942576,17.1095332 C39.0965956,17.1474972 39.1861413,17.1221879 39.2884793,16.9703318 L39.2884793,16.7931665 L39.0710111,16.6413105 Z M40.1199754,14.4520529 C40.0048452,14.6039089 40.2351056,14.6924916 40.1583521,14.8190382 L39.0582188,16.0591957 L38.7512049,15.9579584 L38.7000359,16.0465411 L39.9152994,17.1095332 L40.3630281,16.7678571 L40.2606901,16.6792745 C40.2095211,16.7045838 40.1711444,16.7172385 40.1327676,16.7298931 C39.9536762,16.8184758 39.7490002,16.7805118 39.6082855,16.6539651 C39.5443242,16.6033465 39.480363,16.5400731 39.429194,16.4767998 C39.3908173,16.4514904 39.378025,16.4135264 39.378025,16.3629078 C39.378025,16.3249438 39.3908173,16.2743251 39.4164018,16.2490157 C39.5571165,16.0845051 39.7106235,15.9199944 39.8641304,15.742829 L40.2095211,16.0465411 C40.1967289,16.1351237 40.1711444,16.2237064 40.1583521,16.3122891 L40.2478979,16.3882171 L40.670042,15.9199944 L40.5804963,15.818757 L40.4014048,15.9199944 C40.2351056,15.8440664 40.0943909,15.7301744 40.0048452,15.590973 L40.5293273,15.0341676 L40.9386792,15.4264623 L40.8619258,15.8061024 L40.9386792,15.8693757 C41.0538095,15.742829 41.1561475,15.6036277 41.2329009,15.4517717 L40.1199754,14.4520529 Z M8.52312343,13.9964848 L7.90909554,14.4647075 C7.85792655,14.5026715 7.79396531,14.5406355 7.83234206,14.6418729 L8.12656375,14.5659449 L8.56150018,15.1100956 C8.31844747,15.2999156 8.07539476,15.4897357 7.81954981,15.6795557 L7.38461338,15.1100956 L7.52532811,14.9076209 L7.46136687,14.8316929 L6.7194165,15.4138076 C6.86013123,15.5783183 6.96246921,15.325225 7.07759944,15.439117 C7.11597618,15.4644263 7.15435292,15.5023903 7.17993742,15.5403543 L8.02422577,16.6033465 C8.07539476,16.6666198 8.139356,16.7425478 8.10097926,16.8311305 L7.97305678,16.9829865 L8.07539476,17.0589145 L8.80455289,16.5021091 L8.75338389,16.4135264 L8.47195444,16.4894544 L7.94747229,15.8440664 L8.7022149,15.2619516 C8.85572188,15.5276997 9.09877458,15.6922103 9.20111257,15.970613 L9.0220211,16.1604331 L9.12435908,16.2490157 C9.2650738,16.1477784 9.38020403,16.0465411 9.49533426,15.9579584 L9.86630945,15.6795557 L9.81514046,15.5783183 L9.53371101,15.6795557 L8.44636995,14.3128515 L8.61266917,14.0724128 L8.52312343,13.9964848 Z M24.5773944,15.249297 C24.6797323,15.3125703 24.8076548,15.3378796 24.9227851,15.325225 C25.0507075,15.325225 25.17863,15.3505343 25.280968,15.439117 L25.280968,16.2616704 C25.1018765,16.1857424 24.9099928,16.1477784 24.7181091,16.1604331 C24.6285634,16.1477784 24.5390176,16.1224691 24.4622641,16.0845051 L24.3269733,16.0320641 C24.2591232,16.0080709 24.18851,15.9959224 24.1040812,16.0338864 L24.1040812,16.6033465 L23.937782,16.6160011 L23.937782,15.1860236 C24.1680424,15.173369 24.3727184,15.1354049 24.5773944,15.249297 Z M38.7895816,13.6041901 C38.7767894,13.6294994 38.7639971,13.6421541 38.7512049,13.6674634 C38.7512049,13.6801181 38.7384126,13.6927728 38.7384126,13.7054274 L38.9175041,13.9079021 L37.9580855,15.363189 L37.7022406,15.287261 L37.6254871,15.363189 L38.4186064,15.8693757 L38.4825677,15.780793 L38.3290607,15.6162823 C38.3418529,15.5403543 38.3674374,15.477081 38.4058142,15.4138076 C38.6488669,15.0468223 38.8791274,14.6798369 39.1221801,14.3255062 C39.1605568,14.2622328 39.2117258,14.2116142 39.2501025,14.1483408 L39.531532,14.2116142 L39.5571165,14.0977222 L38.7895816,13.6041901 Z M9.93027069,13.1359674 C9.90468619,13.1359674 9.8791017,13.148622 9.86630945,13.1612767 C9.84072495,13.1865861 9.81514046,13.2118954 9.80234821,13.2245501 C9.89189394,13.9332115 10.0454009,14.6165636 10.0965699,15.325225 C10.0581932,15.401153 9.94306294,15.4264623 9.99423193,15.5656637 C10.2372846,15.5023903 10.4291683,15.3378796 10.6338443,15.211333 L10.5826753,15.1227503 L10.3268304,15.1480596 L10.1989079,14.6418729 L10.7489745,14.3128515 C10.876897,14.4520529 11.0687807,14.5279809 11.1455342,14.6798369 L11.0431962,14.8823116 L11.081573,14.9202756 C11.3630024,14.8316929 11.5804706,14.6292182 11.8619001,14.5026715 L11.8107311,14.3761249 L11.5932629,14.4520529 C11.0048195,14.0597582 10.4931296,13.5662261 9.93027069,13.1359674 Z M40.5677041,14.4773622 C40.5165351,14.5785996 40.5804963,14.6039089 40.6316653,14.6165636 C40.7084188,14.6418729 40.7851723,14.6671822 40.874718,14.6798369 C40.9514715,14.6798369 41.0154327,14.7431102 41.028225,14.8190382 C41.0666017,14.9329303 41.1177707,15.0341676 41.1689397,15.1480596 C41.2968622,15.1227503 41.2712777,15.0341676 41.2712777,14.9582396 C41.2584854,14.8190382 41.2456932,14.6924916 41.2201087,14.5279809 C41.028225,14.4140889 40.7851723,14.5026715 40.5677041,14.4773622 Z M36.5125615,12.2754499 L36.435808,12.3766873 C36.4997693,12.4399606 36.5509383,12.5158886 36.589315,12.6044713 C36.6021073,12.7057087 36.6021073,12.806946 36.589315,12.9081834 C36.5637305,13.1233127 36.538146,13.3384421 36.4997693,13.5535714 C36.4741848,13.7687008 36.435808,13.9964848 36.4102235,14.2116142 C36.3974313,14.3634702 36.384639,14.5153262 36.3590545,14.6671822 L36.486977,14.7304556 C36.538146,14.6924916 36.6021073,14.6418729 36.6532762,14.5912542 C36.7556142,14.5026715 36.8579522,14.4014342 36.9602902,14.3255062 C37.2673041,14.0724128 37.5743181,13.8319741 37.881332,13.5662261 C38.034839,13.4270247 38.188346,13.3510967 38.3930219,13.4396794 L38.4569832,13.3257874 L37.778994,12.958802 L37.7278251,13.072694 L37.8173708,13.1612767 L37.9069165,13.2625141 C37.5615258,13.6168448 37.2033429,13.9458661 36.8195755,14.2495782 C36.8835367,13.7433915 36.9474979,13.2751687 37.0114592,12.7942913 L37.2545119,12.806946 L37.3056809,12.7057087 L36.5125615,12.2754499 Z M10.0198164,13.6927728 L10.5954676,14.1863048 L10.1605311,14.4267435 L10.0198164,13.6927728 Z M13.2946318,11.5414792 C13.0771636,11.6300619 12.8596954,11.7186445 12.6550195,11.8198819 C12.629435,11.8325366 12.6038505,11.8831552 12.5910582,11.9211192 L12.6166427,11.9590832 L12.8724877,11.9211192 C13.0643714,12.0223566 13.1155404,12.2501406 13.2050861,12.4399606 C13.2946318,12.6297807 13.3841776,12.8322553 13.4865156,13.0600394 C13.2562551,12.958802 13.0515791,12.8702193 12.8596954,12.768982 C12.5143047,12.6044713 12.168914,12.4399606 11.8235234,12.2754499 C11.7723544,12.2501406 11.7083931,12.2374859 11.6572241,12.2501406 C11.5293017,12.3007593 11.3885869,12.3640326 11.2734567,12.427306 C11.2478722,12.4399606 11.23508,12.4905793 11.1967032,12.5538526 L11.3885869,12.5538526 C11.5165094,12.5285433 11.6444319,12.617126 11.6828086,12.7436727 C11.8363156,13.0980034 11.9898226,13.4523341 12.1433295,13.8193195 C12.1817063,13.9205568 12.2072908,14.0344488 12.220083,14.1356862 L12.0281993,14.3001969 L12.1049528,14.3887795 C12.3096288,14.3001969 12.5143047,14.2116142 12.7189807,14.1230315 C12.7701497,14.0977222 12.8341109,14.0724128 12.7701497,13.9838301 L12.475928,14.0217942 C12.220083,13.6294994 12.0793683,13.1992407 11.8746923,12.768982 L12.2328753,12.9334927 L13.665607,13.6421541 C13.7423605,13.6801181 13.8319063,13.7307368 13.9086597,13.6168448 C13.870283,13.5282621 13.8319063,13.4270247 13.7935295,13.3384421 C13.6272303,12.9714567 13.4609311,12.617126 13.3074241,12.2374859 C13.2562551,12.0982846 13.2050861,11.9464286 13.1667094,11.7945726 L13.3458008,11.6427165 L13.2946318,11.5414792 Z M33.9669042,11.4528965 C33.6215135,11.5288245 33.3400841,11.7692632 33.1865771,12.0856299 C33.0458624,12.4019966 33.0714469,12.7816367 33.2505383,13.072694 C33.5703445,13.5409168 34.0436577,13.6674634 34.5681399,13.7054274 L34.8879461,13.3131327 L34.7856081,13.1992407 C34.7472313,13.2372047 34.7216468,13.2625141 34.6832701,13.2878234 C34.5041786,13.4143701 34.3250872,13.5282621 34.0820344,13.4649888 C33.7110593,13.3637514 33.4680066,12.996766 33.5319678,12.617126 C33.5575523,12.4146513 33.6343058,12.2248313 33.7238515,12.0350112 C33.8645662,11.7312992 34.2099569,11.5541339 34.5425554,11.6300619 C34.7856081,11.6553712 34.9774918,11.8198819 35.0158685,12.0476659 C35.0286608,12.1362486 35.041453,12.2248313 35.0670375,12.3134139 L35.19496,12.3134139 C35.2205445,12.1489033 35.246129,11.9843926 35.2845057,11.8072272 C35.143791,11.7312992 35.0158685,11.6427165 34.8751538,11.5794432 C34.5937244,11.4402418 34.2739182,11.4022778 33.9669042,11.4528965 Z M15.5972364,10.8328178 C15.5076907,10.8454724 15.4309372,10.8581271 15.3541837,10.8707818 C15.059962,10.8960911 14.7785326,10.9973285 14.5226876,11.1618391 C14.126128,11.4149325 13.9342442,11.8958099 14.0493745,12.3387233 C14.1517124,12.7942913 14.5482721,13.1359674 15.0215853,13.1612767 C15.4948985,13.1992407 15.8786659,12.9714567 16.2624333,12.7436727 C16.1856798,12.4779246 16.0577574,12.2501406 16.0449651,12.0097019 C16.0961341,11.9464286 16.2112643,11.9211192 16.1473031,11.7945726 L15.2390535,12.0729753 L15.3030147,12.1742126 L15.6484054,12.1742126 L15.7281793,12.3942632 C15.8356697,12.6912964 15.8232328,12.6719629 15.8019124,12.8196007 C15.5588597,13.0220754 15.1239233,12.9841114 14.9064551,12.806946 C14.7657403,12.693054 14.6506101,12.541198 14.5738566,12.3640326 C14.4459341,12.0223566 14.3947652,11.6806805 14.6122334,11.3643138 C14.8169093,11.0732565 15.2262613,10.9973285 15.5332752,11.1998031 C15.6100287,11.2630765 15.6739899,11.3390045 15.7251589,11.4149325 L15.8274969,11.3516592 L15.5972364,10.8328178 Z M9.27786605,12.7816367 L9.22669706,12.9841114 L9.27786605,13.1233127 L9.94306294,12.9714567 L9.94306294,12.8322553 L9.27786605,12.7816367 Z M30.8967648,10.9340551 C30.6665043,11.1744938 30.5513741,11.5035152 30.5897508,11.8325366 C30.6025431,12.1109393 30.7304655,12.3766873 30.960726,12.5538526 C31.2165709,12.7563273 31.5491694,12.8575647 31.8817678,12.7942913 C32.3934577,12.7057087 32.7772252,12.2881046 32.8028097,11.7819179 C32.8028097,11.6047525 32.7900174,11.4149325 32.7644329,11.2377672 C32.9819011,11.2124578 33.1098236,11.1238751 33.1354081,10.9467098 C33.1482004,10.8075084 33.0842391,10.7315804 32.8923554,10.6683071 L32.7260562,10.8201631 L32.9307321,10.9973285 L32.8156019,11.1491845 C32.7388484,11.1112205 32.6620949,11.0732565 32.5853415,11.0099831 C32.3934577,10.7948538 32.1376128,10.6556524 31.8561833,10.6176884 C31.4980004,10.5544151 31.1398175,10.6809618 30.8967648,10.9340551 Z M31.9073523,10.7948538 C32.099236,10.8454724 32.252743,10.9846738 32.303912,11.1744938 C32.457419,11.6300619 32.3422888,12.1362486 32.0096903,12.4905793 C31.8689756,12.65509 31.6515074,12.7183633 31.4468314,12.6424353 C31.2549477,12.579162 31.1014407,12.4146513 31.063064,12.2121766 C31.0502717,12.1235939 31.0374795,12.0350112 31.0374795,11.9464286 C31.0374795,11.5414792 31.1398175,11.2124578 31.3828702,10.9593645 C31.5107926,10.8075084 31.7154686,10.7442351 31.9073523,10.7948538 Z M19.2046503,10.022919 C19.0639356,10.0482283 18.9360131,10.060883 18.8080906,10.0861924 C18.6673759,10.1115017 18.5394534,10.136811 18.4115309,10.1621204 L18.4626999,10.250703 C18.7569216,10.2760124 18.7697139,10.2760124 18.8336751,10.5670697 C18.9104286,10.9214004 18.9615976,11.2377672 19.0255588,11.5541339 L18.9743898,11.5794432 C18.9360131,11.5288245 18.9104286,11.4908605 18.8592596,11.4402418 C18.4371154,11.0859111 18.0149713,10.7442351 17.5800348,10.4025591 C17.5288659,10.3772497 17.4776969,10.3519404 17.4265279,10.3645951 C17.2730209,10.3772497 17.1195139,10.4152137 16.9532147,10.4405231 C16.9404225,10.4405231 16.9404225,10.4531777 16.9276302,10.4658324 L16.966007,10.5544151 C17.0555527,10.5291057 17.1450984,10.5544151 17.2218519,10.6050337 C17.2986054,10.6556524 17.3369821,10.7442351 17.3369821,10.8328178 C17.3881511,11.1112205 17.4521124,11.4022778 17.4904891,11.6806805 C17.5160736,11.8831552 17.5288659,12.0856299 17.5416581,12.2881046 L17.2858131,12.427306 L17.3625666,12.5158886 L18.1301015,12.3766873 L18.1173092,12.2754499 L18.002179,12.2627953 C17.8614643,12.2501406 17.7975031,12.2248313 17.7719186,12.0856299 C17.6823728,11.6933352 17.6056193,11.3010405 17.5288659,10.8960911 L17.5672426,10.8834364 L19.1406891,12.2121766 L19.294196,12.1995219 C19.1918581,11.5541339 19.0767278,10.9214004 18.9743898,10.288667 L19.0127666,10.288667 C19.0127666,10.1621204 19.2686115,10.212739 19.2046503,10.022919 Z M30.5513741,9.909027 L30.3850748,9.909027 L30.3083214,10.0861924 L30.5002051,10.250703 C30.3594903,10.3645951 30.2315679,10.3013217 30.1036454,10.288667 L29.6815012,10.2253937 C29.6431245,10.4152137 29.8861772,10.3392857 29.9373462,10.4784871 C29.9117617,10.7062711 29.8989694,10.9340551 29.8478004,11.1618391 C29.7966314,11.3896232 29.7326702,11.6047525 29.6559167,11.8198819 C29.6047477,11.9337739 29.5024097,12.0223566 29.3872795,12.0603206 C29.2337725,12.1109393 29.0546811,12.0856299 28.9267586,11.9970472 C28.7860439,11.9084646 28.7092904,11.7439539 28.7092904,11.5794432 C28.7092904,11.3769685 28.7348749,11.1744938 28.7732516,10.9720191 C28.8116284,10.7442351 28.8627974,10.5164511 28.9011741,10.2760124 L29.1826036,10.212739 L29.1826036,10.1241564 L28.274354,9.95964567 L28.2359772,10.0861924 L28.4662377,10.1874297 C28.4534454,10.3139764 28.4534454,10.4152137 28.4278609,10.5291057 C28.3766919,10.8960911 28.274354,11.2630765 28.2999385,11.6427165 C28.2999385,11.8451912 28.4150687,12.0350112 28.5813679,12.1489033 C28.7092904,12.2248313 28.8500051,12.2754499 28.9907198,12.3007593 C29.1953958,12.351378 29.412864,12.3134139 29.5791632,12.1995219 C29.7838392,12.0729753 29.9245539,11.8578459 29.9629307,11.6300619 C30.0268919,11.4022778 30.0524764,11.1491845 30.1036454,10.9214004 C30.1292299,10.7821991 30.1803989,10.6556524 30.2059834,10.5291057 C30.3083214,10.5037964 30.4234516,10.4784871 30.5257896,10.4405231 C30.6281276,10.3899044 30.6920888,10.3013217 30.704881,10.1874297 C30.7304655,10.0482283 30.6409198,9.98495501 30.5513741,9.909027 Z M21.9166068,9.71920697 L20.9699805,9.82044432 L21.0083572,9.95964567 L21.200241,9.98495501 C21.2258255,10.0102643 21.2386177,10.0482283 21.2514099,10.0735377 C21.2897867,10.288667 21.3153712,10.4911417 21.3409557,10.7062711 L20.4071216,10.8075084 C20.3815371,10.5544151 20.3559526,10.326631 20.3303681,10.0861924 L20.5606286,9.99760967 L20.5478363,9.87106299 L19.6140022,9.98495501 L19.652379,10.1241564 L19.8698472,10.136811 C19.9849774,10.3139764 20.1384844,11.7439539 20.0617309,11.9084646 L19.8442627,11.9717379 L19.9082239,12.0856299 L20.8036813,11.9970472 L20.8036813,11.8578459 L20.5734208,11.8451912 C20.5094596,11.5667885 20.4710828,11.2757312 20.4582906,10.9973285 L21.3665402,10.8960911 C21.3793324,10.9593645 21.3921247,11.0226378 21.4049169,11.0732565 C21.4177092,11.2251125 21.4305014,11.3769685 21.4560859,11.5288245 C21.4816704,11.6806805 21.4688782,11.7439539 21.3025789,11.7945726 C21.2258255,11.8198819 21.200241,11.8578459 21.2258255,11.9464286 L22.1596595,11.8325366 L22.1468673,11.6933352 L21.9293991,11.6806805 C21.8270611,11.5288245 21.6735541,10.2000844 21.7247231,9.92168166 L21.9293991,9.83309899 L21.9166068,9.71920697 Z M25.5240207,9.73186164 C25.485644,9.87106299 25.5751897,9.87106299 25.6263587,9.89637233 C25.6903199,9.93433633 25.7414889,9.98495501 25.7926579,10.0355737 L25.7926579,10.212739 C25.7670734,10.5164511 25.7542812,10.8075084 25.7286967,11.1112205 C25.7159044,11.2504218 25.6903199,11.3896232 25.6647354,11.5288245 C25.6391509,11.5920979 25.6135664,11.6553712 25.5751897,11.7186445 L25.383306,11.7439539 L25.383306,11.8831552 L26.1636331,11.9464286 L26.2020098,11.8451912 L25.9333726,11.7439539 L25.8949959,11.5288245 C25.9205804,11.1365298 25.9461649,10.7568898 25.9845416,10.3392857 L27.1870129,12.0476659 L27.3661044,12.0729753 L27.3661044,11.8072272 C27.3916889,11.4655512 27.4300656,11.1112205 27.4556501,10.7695444 C27.4684424,10.6303431 27.4684424,10.4911417 27.4940269,10.3645951 C27.5196113,10.2760124 27.5579881,10.1874297 27.5963648,10.098847 L27.8010408,10.0735377 L27.7882486,9.946991 C27.6219493,9.93433633 27.4684424,9.909027 27.3277276,9.89637233 C27.2509741,9.88371766 27.1614284,9.88371766 27.0846749,9.89637233 C27.0590904,9.85840832 27.0207137,9.89637233 26.9567524,9.93433633 C27.0079214,9.95964567 27.0335059,9.95964567 27.0462982,9.97230034 C27.2765586,10.0355737 27.3149354,10.0735377 27.3021431,10.3013217 C27.2893509,10.6303431 27.2509741,10.9593645 27.2381819,11.3010405 C27.2381819,11.3010405 27.2253896,11.3136952 27.2125974,11.3136952 L26.0740874,9.76982565 L25.5240207,9.73186164 Z M23.4260921,9.6685883 C23.3365463,9.68124297 23.2597928,9.75717098 23.2342084,9.84575366 C23.0295324,10.3899044 22.8376487,10.9214004 22.6201805,11.4655512 C22.5818037,11.6047525 22.5050502,11.7186445 22.3003743,11.7059899 L22.3003743,11.8451912 L23.0423246,11.8451912 L23.0423246,11.7186445 L22.8120642,11.6427165 C22.8632332,11.4528965 22.9144022,11.2883858 22.9655711,11.1238751 L23.6051835,11.1238751 C23.6563525,11.3010405 23.7586905,11.4528965 23.7714828,11.6174072 C23.7075215,11.6933352 23.5540145,11.6553712 23.5923913,11.8072272 L24.5006409,11.8072272 L24.4878486,11.6680259 C24.2831727,11.6933352 24.2064192,11.5667885 24.1424579,11.4149325 L23.4900533,9.74451631 C23.4772611,9.71920697 23.4516766,9.69389764 23.4260921,9.6685883 Z M23.2725851,10.2380484 C23.3621308,10.4784871 23.4388843,10.6936164 23.52843,10.9214004 L23.0295324,10.9214004 C23.1062859,10.7062711 23.1830394,10.4911417 23.2725851,10.2380484 Z M32.4318345,10.098847 L31.7922221,10.3139764 L31.8050143,10.4531777 L32.5469647,10.4025591 L32.4318345,10.098847 Z M23.0423246,9.04850956 C22.9399867,9.13709224 22.8504409,9.20036558 22.8888177,9.3522216 L23.52843,9.54204162 L23.6179758,9.44080427 L23.0423246,9.04850956 Z" id="Combined-Shape" fill="#000000" fill-rule="nonzero"></path>
        </g>
    </g>
</svg>