<?xml version="1.0" encoding="UTF-8"?>
<svg width="48px" height="48px" viewBox="0 0 48 48" version="1.1" xmlns="http://www.w3.org/2000/svg" xmlns:xlink="http://www.w3.org/1999/xlink">
    <title>vn-vietcombank</title>
    <g id="Page-1" stroke="none" stroke-width="1" fill="none" fill-rule="evenodd">
        <g id="vn-vietcombank" transform="translate(0.000000, -0.000000)">
            <rect id="Rectangle" x="0" y="0" width="48" height="48"></rect>
            <path d="M46.5197926,23.4426094 C45.9602339,23.4426094 45.4237282,23.4426094 44.8662652,23.4426094 C44.8620738,23.3545889 44.8557866,23.2728556 44.8557866,23.1932181 C44.8557866,22.4115125 44.8578823,21.6298068 44.8536909,20.8460055 C44.8515952,20.3011169 44.8411165,19.7562283 44.8285422,19.2134353 C44.8264464,19.1023619 44.8117764,18.9912884 44.7887234,18.8823107 C44.7363302,18.6266322 44.6189696,18.5281331 44.3570039,18.5092716 C44.2396433,18.5008887 44.120187,18.5029844 44.0007306,18.5029844 C43.7429564,18.5029844 43.4830864,18.5008887 43.2253122,18.5071759 C43.1142387,18.5092716 43.005261,18.5302288 42.8879004,18.5448989 C42.8879004,20.1816605 42.8879004,21.8058478 42.8879004,23.4405137 C42.3346288,23.4405137 41.7939317,23.4405137 41.22599,23.4405137 C41.22599,23.3483018 41.22599,23.2686642 41.22599,23.1869309 C41.2217986,21.8603367 41.2197029,20.5337424 41.2134157,19.2071482 C41.2134157,19.0835004 41.1945542,18.9556611 41.1694055,18.834109 C41.1316824,18.6413023 41.0080346,18.5281331 40.8110364,18.5050801 C40.3080623,18.4463998 39.8092796,18.4799314 39.287444,18.5532818 C39.2811568,18.6538766 39.2706782,18.75028 39.2706782,18.8445877 C39.264391,20.2906383 39.2581038,21.7345931 39.2518166,23.1806437 C39.2518166,23.262377 39.2518166,23.3441103 39.2518166,23.4405137 C38.7006408,23.4405137 38.172518,23.4405137 37.6464909,23.4405137 C37.6045764,23.2938129 37.5878106,17.3398568 37.6318208,16.9710091 C38.0698274,16.9689133 38.5141212,16.9689133 38.9772766,16.9710091 C39.0066167,17.1512415 39.0359569,17.3251867 39.0673928,17.5242806 C39.1512218,17.4760789 39.2057107,17.4467388 39.2560081,17.4132071 C39.34822,17.3482397 39.4362405,17.2811764 39.5242609,17.2141132 C39.9098744,16.9186159 39.9098744,16.910233 40.393987,16.9039459 C40.6936758,16.8997544 40.9954602,16.910233 41.2930533,16.9311903 C41.638848,16.956339 41.9301538,17.1219013 42.1984067,17.3314739 C42.2906186,17.4048242 42.3849262,17.4760789 42.493904,17.5599079 C42.6657535,17.4278772 42.8376029,17.3105166 42.9905909,17.170103 C43.1854934,16.9898706 43.4034488,16.9228074 43.669606,16.9081373 C44.1243784,16.8829886 44.5770551,16.8787971 45.0255404,16.9626262 C45.7946716,17.1072312 46.2871671,17.4635046 46.4401551,18.4904101 C46.4925482,18.8403962 46.486261,19.200861 46.4904525,19.5550386 C46.5051226,20.7831337 46.5114097,22.0133246 46.5218884,23.2414198 C46.5302713,23.3001001 46.5239841,23.3629718 46.5197926,23.4426094 Z M1.52875768,14.4896701 C2.20567702,14.581882 2.85954337,14.6719982 3.52807981,14.7621144 C3.55741996,14.9402511 3.58885585,15.1016219 3.61190883,15.2671842 C3.92836338,17.467696 4.63462287,19.5361771 5.7055386,21.4810103 C5.73278303,21.529212 5.76212319,21.5774137 5.79146334,21.6235197 C5.79775052,21.6339983 5.8124206,21.6423812 5.82709068,21.6549556 C5.92349405,21.6402855 5.9444513,21.5480736 5.98217436,21.4789146 C6.37407503,20.7768466 6.70310393,20.0454384 6.9797397,19.2909772 C7.46594801,17.964383 7.81174272,16.6000657 8.03388962,15.2043125 C8.0569426,15.0618031 8.08837849,14.9192938 8.11771864,14.7663058 C8.76948927,14.6699025 9.40868555,14.5734991 10.0730305,14.475 C10.0730305,14.5923606 10.0793177,14.688764 10.0730305,14.7830716 C10.0206374,15.4788525 9.91585112,16.1704419 9.77543751,16.8536484 C9.305995,19.1191277 8.44465182,21.2253318 7.21446095,23.1848352 C7.13063194,23.3168659 7.03213284,23.3776419 6.88543205,23.4027906 C6.16240676,23.5243427 5.43938146,23.5159598 4.71635616,23.4027906 C4.56127248,23.3797376 4.45439048,23.3126744 4.36637,23.1743565 C3.02091424,21.0304294 2.14070953,18.7104612 1.71318153,16.2165479 C1.62935251,15.7282438 1.58953372,15.2336526 1.53294913,14.7411571 C1.52037478,14.6699025 1.52875768,14.5944564 1.52875768,14.4896701 Z M11.0559258,33.0787552 C11.0559258,30.1992284 11.0559258,27.3385631 11.0559258,24.4569405 C11.5924315,24.4024517 12.1205543,24.4401747 12.6717301,24.4255047 C12.6801131,24.5198123 12.6926874,24.5994499 12.6926874,24.6790874 C12.6989746,25.5383349 12.7010703,26.3954866 12.7073575,27.2547341 C12.7073575,27.3427545 12.7178361,27.4286793 12.726219,27.5586143 C12.8163352,27.5041254 12.8771112,27.476881 12.9274087,27.4370622 C13.0762052,27.3217973 13.2166188,27.193958 13.3737982,27.0891718 C13.4681058,27.0242043 13.581275,26.9676197 13.6923485,26.9508539 C14.1659824,26.8795992 14.6396164,26.9068436 15.1027717,27.0388744 C15.6392775,27.1918623 16.016508,27.5313698 16.2344635,28.0448226 C16.3643985,28.3487028 16.4503232,28.6672531 16.4775677,28.9941862 C16.5425351,29.759126 16.5697796,30.5282573 16.4817591,31.2931971 C16.4503232,31.5677372 16.3895472,31.8443729 16.3057182,32.1084343 C16.1066242,32.7413434 15.6770005,33.1583928 15.0357085,33.3302423 C14.7276369,33.4119756 14.4069909,33.4727516 14.0905363,33.4937089 C13.0992581,33.5565806 12.1268415,33.4350286 11.1795736,33.1290526 C11.1397548,33.1164783 11.1020318,33.0976168 11.0559258,33.0787552 Z M12.749272,28.6022856 C12.7387934,28.7343163 12.726219,28.8328154 12.7241233,28.9292188 C12.7220276,29.7947534 12.7220276,30.660288 12.7241233,31.5258226 C12.7241233,31.5886944 12.7346019,31.6515662 12.7346019,31.7144379 C12.7346019,31.8255114 12.7911865,31.8779045 12.9001642,31.8841917 C13.2333846,31.9009575 13.5687007,31.9240105 13.901921,31.9344891 C14.0255688,31.9386806 14.1513123,31.9177233 14.2749602,31.8967661 C14.5138729,31.859043 14.6626694,31.7165337 14.7297326,31.4880996 C14.7485941,31.4210364 14.7695514,31.3539732 14.78003,31.2848142 C14.8722419,30.7022025 14.8722419,30.1153994 14.8303274,29.530692 C14.8177531,29.3441724 14.7842214,29.1576528 14.7464984,28.973229 C14.6878181,28.6840189 14.4971071,28.5163608 14.2099927,28.4974993 C13.9123996,28.4786378 13.6106152,28.4828292 13.3109264,28.499595 C13.130694,28.5100737 12.9483659,28.5645625 12.749272,28.6022856 Z M21.3082149,29.1723229 C21.3710867,28.8370068 21.1761842,28.5477967 20.8324852,28.5100737 C20.2603522,28.4492976 19.6882191,28.4597762 19.1202775,28.5436053 C18.7619084,28.5959984 18.4077308,28.6819231 18.0535532,28.7510821 C17.9948729,28.7636564 17.9320011,28.7678479 17.8523636,28.7804222 C17.7706303,28.2837353 17.6930884,27.8059099 17.6113551,27.30084 C17.8481721,27.240064 18.0682233,27.1813837 18.2903702,27.1310863 C19.2858398,26.9026522 20.2938838,26.8607377 21.3061192,26.980194 C21.5387447,27.0074385 21.773466,27.0765974 21.9893257,27.1667136 C22.5761288,27.4140092 22.9072535,27.8708774 22.949168,28.5037865 C22.9826996,29.0046649 22.9764124,29.507639 22.9785081,30.0106131 C22.9847953,31.0584759 22.9847953,32.1042429 22.986891,33.1521056 C22.986891,33.2338389 22.986891,33.3155722 22.986891,33.4056884 C22.5069699,33.4056884 22.0563889,33.4056884 21.5911379,33.4056884 C21.559702,33.2380304 21.5303618,33.0766595 21.4968302,32.8943314 C21.429767,32.9257673 21.383661,32.9383416 21.3480337,32.9655861 C21.2327688,33.0452236 21.1133124,33.1206697 21.0127176,33.2149774 C20.8136237,33.3994012 20.5893811,33.4874217 20.3169368,33.4916132 C19.765761,33.4999961 19.2145851,33.5377191 18.6696965,33.4203585 C18.3427633,33.3491038 18.0451703,33.225456 17.8083533,32.9781604 C17.5526748,32.714099 17.4436971,32.3871658 17.3892082,32.0371797 C17.3137621,31.5363013 17.3137621,31.0375186 17.4101655,30.5366402 C17.5401005,29.8576251 17.8670337,29.3609382 18.8394503,29.247769 C19.3235629,29.1911844 19.8139626,29.2058545 20.3022667,29.1911844 C20.6333913,29.1828015 20.9687074,29.1786101 21.3082149,29.1723229 Z M21.3145021,30.6519051 C21.2809705,30.6435222 21.2558218,30.6330436 21.2285774,30.6330436 C20.6082426,30.6519051 19.9900036,30.6665752 19.3696688,30.6917239 C19.1349476,30.7001068 19.0615972,30.7734572 19.0427357,31.0102742 C19.0280656,31.1905066 19.0280656,31.3728347 19.0343528,31.5530671 C19.0427357,31.8317986 19.1181818,31.9219148 19.3948175,31.9302977 C19.7846225,31.9407763 20.1744274,31.9386806 20.5642324,31.9177233 C20.811528,31.9030532 21.0546321,31.8443729 21.3145021,31.8045541 C21.3145021,31.4042706 21.3145021,31.0312314 21.3145021,30.6519051 Z M30.4581524,24.438079 C30.9988496,24.438079 31.5248767,24.438079 32.0760525,24.438079 C32.080244,24.5260995 32.0886269,24.6057371 32.0886269,24.6874703 C32.0886269,25.8547894 32.0886269,27.0200128 32.0907226,28.1873319 C32.0907226,28.5163608 32.1012012,28.843294 32.1095841,29.1723229 C32.1116799,29.2330989 32.1221585,29.293875 32.1347328,29.3944698 C32.2143704,29.3441724 32.2772422,29.316928 32.3212524,29.2729177 C32.4260387,29.1702272 32.5245378,29.0612495 32.6209412,28.9522717 C33.2140315,28.2921182 33.8071218,27.6340604 34.3960206,26.9697154 C34.492424,26.8607377 34.5909231,26.8146317 34.7376239,26.8188232 C35.2343108,26.8272061 35.7289021,26.8230146 36.225589,26.8230146 C36.286365,26.8230146 36.3471411,26.8230146 36.439353,26.8230146 C36.3073223,27.049353 36.1375685,27.2023409 35.9950592,27.3762862 C35.8525499,27.5481356 35.7037534,27.7157937 35.5570526,27.8834517 C35.4061603,28.0573969 35.2552681,28.2313422 35.1043759,28.4052874 C34.9576751,28.5729454 34.8109743,28.7426992 34.6642735,28.9103572 C34.5133813,29.0843024 34.3603933,29.2582477 34.2095011,29.4300971 C34.0628003,29.5977552 33.9160995,29.7654132 33.7589201,29.9456456 C33.8238876,30.0839635 33.8825679,30.2159942 33.9496311,30.3459292 C34.3750634,31.1485921 34.9471965,31.8422772 35.584297,32.4856649 C35.8336883,32.7392477 36.0998455,32.9760647 36.3597154,33.2212646 C36.4079171,33.2673705 36.4561188,33.3134765 36.5357564,33.3889226 C36.3639069,33.3973055 36.2339719,33.4077841 36.1061327,33.4098799 C35.6031585,33.4140713 35.1001844,33.4140713 34.5972103,33.4224542 C34.4882326,33.4245499 34.4044035,33.3910183 34.3352446,33.3197637 C34.0711832,33.0515108 33.7966432,32.7916408 33.5472518,32.5087179 C33.0924794,31.9931694 32.7362061,31.408462 32.3883156,30.8174674 C32.3568797,30.7629786 32.3296353,30.7042982 32.2877208,30.6581923 C32.2499977,30.6183735 32.1955089,30.5974162 32.1116799,30.5471188 C32.080244,31.0584759 32.0991055,31.5237269 32.0970098,31.988978 C32.0928183,32.4563248 32.0970098,32.9236715 32.0970098,33.4056884 C31.5437382,33.4056884 31.011424,33.4056884 30.4791097,33.4056884 C30.4288123,33.2464133 30.4141422,24.7440549 30.4581524,24.438079 Z M19.2439253,20.88792 C18.7702913,20.9172602 18.3259975,20.9549832 17.879608,20.9696533 C17.4122612,20.9843234 16.9449144,20.9780362 16.4754719,20.9780362 C16.3706857,20.9780362 16.2658994,20.9696533 16.1611131,20.9675576 C15.9012431,20.9591747 15.6665219,20.8942072 15.4925767,20.6804432 C15.4422793,20.6175714 15.3668331,20.5777526 15.2704298,20.5002108 C15.2264195,20.9403132 15.2327067,21.3301181 15.4925767,21.6675299 C15.6036501,21.812135 15.7713082,21.872911 15.9452534,21.9085383 C16.4230788,22.0070374 16.9050957,21.9944631 17.3829211,21.9273999 C17.7978747,21.8687196 18.2086369,21.789082 18.6214948,21.7220188 C18.6676008,21.7136359 18.7158025,21.7136359 18.7912486,21.7073487 C18.8666947,22.1746955 18.9379494,22.6336594 19.0133955,23.1072933 C18.9190879,23.1513036 18.841546,23.1974095 18.757717,23.2225582 C17.665844,23.5536829 16.5551095,23.6584691 15.4276092,23.4488966 C14.6249463,23.3001001 14.0863449,22.8327533 13.8034219,22.0678135 C13.6588169,21.6780085 13.5707964,21.2756292 13.5666049,20.8606756 C13.5624135,20.330457 13.558222,19.7981428 13.6001365,19.2700199 C13.627381,18.926321 13.7133057,18.5805262 13.818092,18.2494016 C14.0171859,17.6143968 14.4656712,17.2183047 15.1048675,17.0464552 C15.5302997,16.9311903 15.9662106,16.8704142 16.4105044,16.8934672 C16.764682,16.9123288 17.1230511,16.9123288 17.475133,16.9626262 C18.4852727,17.1072312 19.0385442,17.6374498 19.1978193,18.6475895 C19.269074,19.1065533 19.2648826,19.5801873 19.2774569,20.0454384 C19.2879355,20.3178827 19.2585954,20.5882313 19.2439253,20.88792 Z M17.605068,19.460731 C17.5652492,19.2281054 17.5442919,19.0352987 17.5002817,18.8466834 C17.4374099,18.582622 17.299092,18.4694528 17.0266477,18.4610699 C16.6640872,18.4505913 16.3015267,18.4463998 15.9410619,18.4568784 C15.8132227,18.4610699 15.6790962,18.5029844 15.5617356,18.5553775 C15.4862895,18.5889092 15.4129391,18.666451 15.3794075,18.7418971 C15.2850998,18.9535654 15.2788127,19.1840952 15.2725255,19.437678 C16.0479439,19.5068369 16.8024051,19.4795925 17.605068,19.460731 Z M36.5378521,20.2047135 C36.5189906,20.6930175 36.5168948,21.1834173 36.4728846,21.6696256 C36.4498316,21.9232084 36.3722898,22.1767912 36.2821736,22.4157039 C36.0893668,22.9270609 35.7079448,23.2518984 35.1861092,23.3965034 C34.9597708,23.4593752 34.7229538,23.5033854 34.4861368,23.5201512 C33.8930465,23.5662572 33.2999562,23.5746401 32.7089616,23.4929068 C32.5643566,23.4719496 32.4197515,23.4447051 32.2793379,23.4069821 C31.6673861,23.2498027 31.2733897,22.8641892 31.0784872,22.2627159 C30.9443608,21.8456666 30.8856804,21.4160428 30.881489,20.9843234 C30.8752018,20.3136912 30.8940633,19.6451548 30.9171163,18.9745226 C30.9296907,18.6392066 31.0198069,18.3143691 31.1455504,18.0000103 C31.3173999,17.574578 31.6128972,17.2686021 32.0446166,17.1198056 C32.3065823,17.0296894 32.5811224,16.9605304 32.8577581,16.9311903 C33.5053373,16.8620313 34.1550122,16.8808929 34.8025914,16.9626262 C35.2322151,17.017115 35.6283072,17.1638158 35.9384746,17.4886533 C36.1669087,17.727566 36.3031308,18.0146804 36.3869599,18.3290392 C36.4791718,18.6685467 36.523182,19.0122457 36.5189906,19.3643276 C36.5168948,19.6430591 36.5189906,19.9238863 36.5189906,20.2026178 C36.5252778,20.2026178 36.5315649,20.2026178 36.5378521,20.2047135 Z M34.8654632,20.2193836 C34.859176,20.2193836 34.8528888,20.2193836 34.8486974,20.2193836 C34.8486974,20.0160982 34.8570803,19.8149086 34.8466016,19.6116232 C34.8340273,19.3748062 34.8235486,19.1358935 34.7816341,18.903268 C34.729241,18.6077707 34.5573915,18.4652613 34.2597985,18.4568784 C33.9181952,18.4463998 33.5744963,18.4422084 33.232893,18.4568784 C32.8242265,18.4736442 32.6502813,18.6182493 32.6209412,19.0227243 C32.5811224,19.5780916 32.5727395,20.1376503 32.568548,20.6951133 C32.5664523,20.9591747 32.591601,21.2253318 32.6293241,21.4872975 C32.6733343,21.8079435 32.8242265,21.9609315 33.1322982,21.979793 C33.5011459,22.0007503 33.8720893,22.0049417 34.240937,21.9839845 C34.6076889,21.9630272 34.7439111,21.8142307 34.8046871,21.4537659 C34.8109743,21.4118514 34.8151657,21.3699369 34.8172615,21.3280224 C34.8319316,20.9591747 34.8486974,20.5882313 34.8654632,20.2193836 Z M24.0515196,26.9969598 C24.5167707,26.9969598 24.9673516,26.9969598 25.4263155,26.9969598 C25.4766129,27.1688093 25.4409856,27.3532332 25.5457719,27.5292741 C25.6568453,27.453828 25.774206,27.3993391 25.8601307,27.3155101 C26.1682023,27.0116299 26.53705,26.9047479 26.9603866,26.9089394 C27.3669573,26.9131308 27.7693366,26.9278009 28.1654287,27.0304915 C28.7333704,27.1771922 29.1106009,27.5355613 29.2593975,28.1035029 C29.3327478,28.3843301 29.3893324,28.6798274 29.3935239,28.9690375 C29.4165769,30.385748 29.4186726,31.8045541 29.4270555,33.2212646 C29.4270555,33.2757534 29.4207683,33.3302423 29.4165769,33.3826354 C29.2573017,33.4266457 28.1486629,33.43922 27.781911,33.401497 C27.7777195,33.3386252 27.7714324,33.2736577 27.7714324,33.2065945 C27.7672409,32.2153163 27.7630495,31.2240382 27.7567623,30.23276 C27.7546665,29.8492422 27.7420922,29.4657245 27.7316136,29.080111 C27.7295178,29.0172392 27.7274221,28.9543675 27.7148478,28.8935914 C27.6645504,28.6442001 27.568147,28.5331266 27.3124685,28.5142651 C26.9939182,28.4912121 26.6711765,28.4912121 26.3505305,28.5016907 C26.1430536,28.5079779 25.9376725,28.545701 25.7113342,28.5708497 C25.681994,28.8160496 25.7008556,29.0444837 25.6966641,29.270822 C25.6945684,29.5013518 25.6966641,29.7318816 25.6966641,29.9624114 C25.6966641,30.1929412 25.6966641,30.423471 25.6966641,30.6540008 C25.6966641,30.8782435 25.6966641,31.1003904 25.6966641,31.324633 C25.6966641,31.5551628 25.6966641,31.7856926 25.6966641,32.0162224 C25.6966641,32.2467522 25.6966641,32.477282 25.6966641,32.7078118 C25.6966641,32.9362459 25.6966641,33.16468 25.6966641,33.4056884 C25.1371054,33.4056884 24.6026954,33.4056884 24.0536153,33.4056884 C24.0515196,31.2722399 24.0515196,29.1450785 24.0515196,26.9969598 Z M30.0054757,23.1911223 C29.6932126,23.3357274 29.3935239,23.3944077 29.0896437,23.4426094 C28.4525431,23.5452999 27.8112511,23.5725444 27.1678634,23.5264384 C26.8996105,23.5054812 26.6271662,23.453088 26.3672963,23.3797376 C25.8035461,23.2183668 25.4116454,22.8495191 25.1727327,22.3151091 C24.9925003,21.9127298 24.9212457,21.4872975 24.8856183,21.0555781 C24.826938,20.3220741 24.8332252,19.5906659 24.9610645,18.8634492 C24.9862132,18.7188441 25.017649,18.5763348 25.0574678,18.4359212 C25.300572,17.5871524 25.881088,17.1198056 26.7340482,16.9668176 C27.3460001,16.8557442 27.9579519,16.8704142 28.5699038,16.9500518 C28.9492301,16.9982535 29.3285564,17.0695082 29.705787,17.1344757 C29.7938075,17.1491457 29.8797322,17.1763902 29.9845185,17.2036346 C29.9530826,17.7149916 29.8671578,18.2053914 29.7959032,18.7083655 C29.5255546,18.6601638 29.2824504,18.6077707 29.0330591,18.5742391 C28.4504474,18.4966972 27.8636443,18.47574 27.2789369,18.5448989 C26.8618875,18.5951963 26.6942294,18.7544715 26.6187833,19.1757123 C26.53705,19.6388676 26.53705,20.1062144 26.5621987,20.5756569 C26.5747731,20.8061867 26.5810603,21.0367165 26.6208791,21.2630549 C26.6984209,21.719923 26.8744618,21.8833896 27.3397129,21.9399742 C27.7840067,21.9944631 28.232492,21.9923674 28.6767858,21.933687 C29.041442,21.8833896 29.4060982,21.8247093 29.7979989,21.7639333 C29.8671578,22.2291843 29.9342211,22.7028183 30.0054757,23.1911223 Z M22.6243305,15.376162 C22.6243305,15.9168591 22.6243305,16.4261204 22.6243305,16.9626262 C23.1419747,16.9626262 23.6386617,16.9626262 24.147923,16.9626262 C24.147923,17.4844618 24.147923,17.9769573 24.147923,18.4904101 C23.6449488,18.4904101 23.1503576,18.4904101 22.6473835,18.4904101 C22.6390006,18.5637604 22.6264263,18.6182493 22.6264263,18.6706424 C22.6306177,19.6409633 22.6327134,20.61338 22.6431921,21.5837009 C22.6473835,22.002846 22.666245,22.0217075 23.0895816,21.9965588 C23.3955575,21.9776973 23.6994377,21.9315913 24.0305623,21.8938683 C24.1206785,22.3276834 24.1416358,22.7782644 24.1919332,23.2246539 C24.0368495,23.3357274 23.8629043,23.3650676 23.6952463,23.4027906 C23.2635268,23.499194 22.8234245,23.522247 22.3833221,23.4929068 C21.6016165,23.4405137 21.109121,22.9962199 21.0231963,22.2145143 C20.9728988,21.7639333 20.979186,21.3091608 20.9708031,20.8543884 C20.9582288,20.1271717 20.9540373,19.4020506 20.9456544,18.6748339 C20.9456544,18.6266322 20.9393672,18.5784305 20.9330801,18.5008887 C20.6019554,18.4966972 20.2708308,18.4904101 19.9313233,18.4862186 C19.9313233,17.9748616 19.9313233,17.4844618 19.9313233,16.9689133 C20.2708308,16.9689133 20.5956683,16.9689133 20.9435587,16.9689133 C20.9435587,16.4324076 20.9435587,15.9189549 20.9435587,15.376162 C21.5073088,15.3740662 22.048006,15.3740662 22.6243305,15.376162 Z M12.3657542,23.4426094 C11.8124827,23.4426094 11.275977,23.4426094 10.7268969,23.4426094 C10.7268969,21.2882036 10.7268969,19.1421807 10.7268969,16.9814877 C11.2717855,16.9814877 11.8124827,16.9814877 12.3657542,16.9814877 C12.3657542,19.1337978 12.3657542,21.277725 12.3657542,23.4426094 Z" id="Combined-Shape" fill="#000000" fill-rule="nonzero"></path>
        </g>
    </g>
</svg>