<?xml version="1.0" encoding="UTF-8"?>
<svg width="48px" height="48px" viewBox="0 0 48 48" version="1.1" xmlns="http://www.w3.org/2000/svg" xmlns:xlink="http://www.w3.org/1999/xlink">
    <title>xx-cbsomaliland</title>
    <g id="Page-1" stroke="none" stroke-width="1" fill="none" fill-rule="evenodd">
        <g id="xx-cbsomaliland">
            <rect id="Rectangle" x="0" y="0" width="48" height="48"></rect>
            <path d="M10.9811018,8.03246836 C11.0465962,9.52150607 10.2325945,10.4893806 9.05369547,11.2432059 C9.06305182,11.2618189 9.07240816,11.2804319 9.09112084,11.3083513 C9.21275328,11.4665616 9.55893791,11.4107227 9.55893791,11.5968524 C9.54958157,11.9970313 9.29696035,12.3320647 9.0817645,12.6577917 C8.47360231,13.5512144 7.64088793,14.11891 6.54619598,14.2771202 C6.11580428,14.3422656 5.52635477,15.1612364 5.59184916,15.5521088 C5.61991819,15.747545 5.76026331,15.6637866 5.8725394,15.6079477 C6.29357477,15.384592 6.72396647,15.2170753 7.20113988,15.1426234 C7.62217524,15.077478 7.81865841,15.2356883 7.69702597,15.6358671 C7.36955402,16.6968065 6.87366793,17.664681 5.97545916,18.3626674 C5.68541258,18.5953296 5.31115892,18.7163139 4.98368697,18.9024436 C4.77784746,19.0141214 4.628146,19.7121079 4.75913478,19.8889311 C4.86205453,20.0285284 4.96497429,19.926157 5.06789404,19.8517051 C5.52635477,19.5538976 5.97545916,19.2188641 6.57426501,19.3212355 L6.57426501,19.3398484 L6.58362135,19.3305419 C6.78946086,20.2798035 6.51812696,21.1639196 6.21872403,22.0573422 C6.01288452,22.6901833 5.51699843,23.0624427 5.06789404,23.4812345 C4.70299673,23.8255745 4.82462917,24.179221 4.8994799,24.6538517 C5.25502087,24.0861561 5.57313648,23.6301383 6.07837891,23.3137178 C6.39649452,23.1089751 6.58362135,23.3230243 6.57426501,23.5184605 C6.56490867,24.0768496 6.80817354,24.5887063 6.7988172,25.1470955 C6.77074818,26.1521959 6.45263257,27.0363121 5.78833233,27.7808309 C5.49828575,28.1158644 5.33922794,28.4508979 5.47957306,28.8883027 C5.50764209,28.9813676 5.50764209,29.1023519 5.6012055,29.1116584 C5.66669989,29.1209649 5.78833233,29.0279 5.80704501,28.9627546 C5.8725394,28.6928665 6.10644794,28.5067368 6.1438733,28.2182357 C6.19065501,27.8738958 6.47134525,27.6691531 6.65847208,27.417878 C6.85495525,27.1666029 7.06079476,27.3620391 7.16371451,27.5388623 C7.64088793,28.3485265 8.06192329,29.1768038 8.02449792,30.1725977 C8.00578524,30.7030674 7.87479646,31.2149241 7.67831329,31.6616354 C7.30405964,32.5085256 7.55668085,33.1506731 8.16484304,33.7369817 C8.16484304,33.8207401 8.17419938,33.9044985 8.24905012,33.9324179 C8.37068255,33.9696439 8.36132621,33.8672725 8.36132621,33.7928207 C8.34261353,33.569465 8.41746426,33.3368029 8.3145445,33.1134472 C8.30518816,32.9924629 8.32390085,32.8714786 8.34261353,32.7504943 C8.37068255,32.3689283 8.3145445,31.8756846 8.6981545,31.7267808 C9.03498279,31.59649 9.3530984,31.9501365 9.65250132,32.1641857 C10.7659059,32.9831564 11.1682286,34.0534023 10.8968947,35.4028427 C10.8407567,35.7099567 10.8407567,36.0449902 10.8033313,36.3614107 C10.7191242,37.0687036 11.0091708,37.4502695 11.8793106,37.8132225 C11.972874,37.3944306 11.7670345,37.0035582 11.8044598,36.6033793 C11.8418852,36.2776523 11.8138162,35.8960864 12.0851501,35.7192632 C12.3471276,35.54244 12.6371742,35.8402475 12.8804391,35.9798448 C14.0967635,36.6871377 14.8733398,37.6922381 14.8172018,39.1719694 C14.7984891,39.6186807 15.0511103,39.9164882 15.3692259,40.1770698 C15.4627893,40.2608282 15.5844218,40.2608282 15.6779852,40.2142958 C15.7996176,40.1491504 15.7434796,40.0374725 15.6966979,39.9351012 C15.4908583,39.4976964 15.5002147,39.0230656 15.3879386,38.5670478 C15.3411569,38.3902246 15.3785823,38.2692403 15.6124908,38.2785467 C17.1375744,38.3157727 18.5410256,39.0602915 19.0836934,40.6330876 C19.1491878,40.8192173 19.1304751,41.0332665 19.1211188,41.2287027 C19.1024061,41.6381881 19.3550273,41.8057048 19.6918556,41.7963983 C20.0193276,41.7963983 20.3561559,41.675414 20.4310066,41.2938481 C20.8146166,39.3580991 22.4894017,37.9714327 24.2671066,38.0086587 C25.6705578,38.0365781 27.074009,38.9858397 27.5792514,40.3166671 C27.7195965,40.698233 27.9535051,41.042573 27.9254361,41.4892843 C27.9160797,41.6847205 28.1312756,41.9359956 28.3464714,41.8801567 C28.5803799,41.8243178 28.9546336,41.8057048 28.9265646,41.4148324 C28.8984956,40.9588146 29.0014153,40.5400228 29.1791858,40.1305374 C29.6470029,39.069598 30.5452116,38.5949673 31.6305472,38.3716116 C31.6866853,38.3623051 31.7521797,38.3716116 31.8176741,38.3623051 C32.5942504,38.2227078 32.7626645,38.4088375 32.556825,39.1719694 C32.4819743,39.4511639 32.3977672,39.721052 32.3135602,39.9909401 C32.2854911,40.0746985 32.2761348,40.1584568 32.3416292,40.2049893 C32.3977672,40.2329087 32.500687,40.2329087 32.556825,40.1956828 C32.940435,39.9630206 33.2117689,39.6559066 33.2304816,39.1719694 C33.2491943,38.7904035 33.2772633,38.4088375 33.3521141,38.0365781 C33.5205282,37.2176074 34.1099777,36.7057507 34.7368526,36.2404264 C34.9988301,36.0449902 35.3169457,35.9146994 35.6069923,35.7471826 C35.9157516,35.5610529 36.037384,35.7006502 36.1309474,35.9891513 C36.3180743,36.6033793 36.1496601,37.2176074 36.0748094,37.8969808 C36.5613392,37.6457057 36.9262365,37.3385917 37.2537084,36.9942517 C37.3753409,36.8732674 37.3379155,36.7429766 37.3004901,36.6126858 C37.104007,36.0077642 37.0665816,35.3842297 37.0572252,34.7606952 C37.0478689,33.7555947 37.4595479,32.9552369 38.1799862,32.2944765 C38.4326074,32.0618143 38.7787921,31.9501365 39.0594823,31.7174744 C39.2746782,31.5406511 39.517943,31.7081679 39.5927938,32.0152819 C39.6863572,32.3782348 39.7050699,32.7411878 39.6957135,33.1134472 L39.6957135,33.9696439 C40.3319447,33.5415455 40.6874857,32.4340737 40.4255081,31.8198457 C39.7799206,30.3028885 39.9202657,28.8789962 40.9213942,27.5388623 C41.1459464,27.2317483 41.3424296,27.2596677 41.5389128,27.5295558 C41.8102467,27.9204282 42.0722242,28.3113006 42.231282,28.7673184 C42.2687074,28.8883027 42.3342018,29.0185935 42.4651906,28.9999805 C42.5213286,28.9906741 42.558754,28.8231573 42.5774667,28.720786 C42.7084554,28.1717033 42.2967764,27.8366698 42.0347989,27.4551039 C41.1740155,26.2452608 41.0617394,24.9609658 41.5482691,23.5836059 C41.6605452,23.2671854 41.8289594,23.2392659 42.0909369,23.4067827 C42.4651906,23.6394448 42.7178118,23.9930913 42.970433,24.3374312 C43.026571,24.4118831 43.0546401,24.504948 43.2136979,24.486335 C43.2604796,24.0675431 43.2885486,23.6859772 42.8768696,23.3602502 C41.8850974,22.5785054 41.464062,21.5175661 41.464062,20.270497 C41.464062,20.2053516 41.4547057,20.1495127 41.464062,20.0843673 C41.5014874,19.8330922 41.3237169,19.4794457 41.5763381,19.3491549 C41.8663847,19.1909447 42.1938567,19.4049938 42.4839032,19.5352846 C42.5400413,19.5632041 42.5774667,19.6283495 42.6336047,19.6469625 C42.8581569,19.6934949 43.0639964,20.0750608 43.3072613,19.7214143 C43.4850318,19.4608327 43.3072613,18.9582825 42.998502,18.8372982 C41.5950508,18.2789091 40.8652562,17.1714373 40.4067955,15.8033839 C40.3413011,15.5986412 40.2758067,15.3752855 40.3974391,15.2356883 C40.5377842,15.077478 40.7810491,15.096091 41.0056013,15.1612364 C41.3985676,15.2729142 41.8102467,15.3194466 42.147075,15.5893347 C42.2219257,15.6544801 42.3154891,15.7382385 42.4277652,15.6172542 C42.5213286,15.5148828 42.4184089,15.4404309 42.3903398,15.3752855 C42.3154891,15.1891558 42.2499947,15.0123326 42.1845003,14.8168964 C42.1096496,14.5749278 41.9973735,14.407411 41.6605452,14.3608786 C40.1635306,14.1282165 39.1436894,13.2441003 38.5261708,11.8853534 C38.4326074,11.6899172 38.4606765,11.5875459 38.666516,11.4851745 C38.9097808,11.3734967 38.9378499,11.2432059 38.6758723,11.0570762 C38.0677101,10.6289779 37.5250423,10.1357341 37.2724211,9.40052175 C37.0665816,8.77698722 37.1507887,8.15345268 37.188214,7.52061165 C37.1975704,7.27864302 37.3940535,7.18557817 37.6841001,7.27864302 C39.0220569,7.70674136 40.0886799,8.42334076 40.5752096,9.81000712 C40.6032786,9.88445901 40.612635,9.95891089 40.6219913,10.0333628 C40.6313477,10.1357341 40.6781294,10.228799 40.7716928,10.228799 C40.8371872,10.228799 40.8746125,10.1357341 40.9026816,10.0612822 C41.0149577,9.77278118 41.0710957,9.39121527 41.4453494,9.35398933 C41.8102467,9.31676338 42.0067298,9.62387741 42.175144,9.90307198 C42.6429611,10.6848168 42.7739498,11.5224005 42.6336047,12.4158231 C42.5213286,13.0951966 42.3529145,13.77457 43.1014218,14.2678138 C43.1669162,13.8304089 43.4943881,13.5605208 43.8031474,13.2813263 C44.1306193,12.9835187 44.4206659,13.0300512 44.532942,13.43023 C44.9633337,14.8820418 45.2159549,16.3431601 44.4955166,17.7949718 C44.2990335,18.1951507 44.3551715,18.6325555 44.3832405,19.0699603 C44.6171491,19.0885733 44.7762069,18.9396695 44.8978393,18.8000723 C45.1598169,18.4929582 45.5247142,18.4371193 45.8615425,18.316135 C46.0299566,18.2509896 46.095451,18.3440545 46.12352,18.4743453 C46.3948539,19.6841884 46.5913371,20.8847251 46.067382,22.1038747 C45.8521861,22.6157314 45.4872888,22.9321519 45.0662535,23.1741205 C44.5703674,23.4626216 44.4955166,23.3788632 44.5703674,24.2257534 C44.9539774,24.0675431 45.3188747,23.9093329 45.6931283,23.7604291 C46.1703018,23.5649929 46.3106469,23.6208318 46.422923,24.0954626 C46.6287625,24.9609658 46.4042103,25.7427106 45.9644622,26.4779229 C45.4779325,27.2968937 44.7762069,27.8925087 43.9622052,28.3857525 C43.765722,28.5067368 43.3633993,28.6370276 43.5318135,28.9441416 C43.6721586,29.2047232 43.9247798,28.8603833 44.149332,28.8510768 C44.2054701,28.8510768 44.2709645,28.8138508 44.3177462,28.7766249 C44.5984364,28.5718822 45.0101154,28.4695109 45.2159549,28.6556406 C45.4779325,28.8976092 45.5527832,29.3443205 45.4592198,29.7258864 C45.1878859,30.7682128 44.5797237,31.5778771 43.6347332,32.1269597 C43.1669162,32.4061543 42.6616737,32.592284 42.1564313,32.7970267 C41.5576255,33.0389953 41.2395098,33.5973845 40.9213942,34.1092412 C40.7623364,34.3605163 41.024314,34.3698228 41.1927281,34.3512098 C41.7073269,34.2953709 42.2125693,34.0999347 42.7458808,34.1650801 C42.8488006,34.1743866 42.9610767,34.1650801 43.0733528,34.1650801 C43.0078584,35.4493751 41.2395098,37.2455268 39.8547713,37.5247214 C39.2372528,37.6457057 38.6290906,37.785303 38.0022157,37.803916 C37.7028128,37.8132225 37.5531113,38.092417 37.3285591,38.2320143 C37.1414323,38.3529986 36.9917309,38.5391283 36.8139604,38.6973386 C37.3192028,38.8090164 37.7870199,39.0323721 38.2361243,39.2743407 C38.6290906,39.4883899 38.694585,39.6745196 38.3858257,39.9816336 C37.4876169,40.8750562 36.4022813,41.2845416 35.1204626,41.1077184 C34.4842314,41.0146535 33.8480001,40.9029757 33.1182055,41.005347 C33.5673099,41.2566221 34.035127,41.2007832 34.418737,41.4055259 C34.6339328,41.5172037 34.8678414,41.5916556 35.0736809,41.7312529 C35.242095,41.8429307 35.5414979,41.9173826 35.5227853,42.1128188 C35.5134289,42.2338031 35.185957,42.3361745 34.9988301,42.4106264 C33.7170114,42.8852571 32.4071236,42.8666442 31.1065921,42.5316107 C30.3206594,42.326868 30.0493255,42.3175615 29.4785887,42.652595 C30.0493255,42.7828858 30.5732807,42.9504025 31.1065921,43.0155479 C31.4247077,43.0527739 31.6305472,43.2389036 31.8738121,43.3785009 C32.0422263,43.4715657 32.0141572,43.5274046 31.9018811,43.648389 C31.2562936,44.3556819 30.4048665,44.6814089 29.4879451,44.7930867 C28.7768631,44.8768451 28.0657812,44.7558608 27.4014809,44.5045856 C27.1769287,44.4208273 27.0833653,44.4766662 26.9149512,44.5976505 C26.2974326,45.0257488 25.7641212,45.5562185 24.9501195,45.6772028 C23.649588,45.872639 22.498758,45.7144288 21.5818366,44.7093283 C21.2824337,44.3836013 21.0672378,44.3091494 20.5994207,44.4952792 C19.1117625,45.1095072 17.6895986,44.8861516 16.3984235,43.918277 C16.2393657,43.8065992 16.0054571,43.6763084 16.0428825,43.4715657 C16.0709515,43.322662 16.3235727,43.2761295 16.4919869,43.2109841 C17.1095054,42.9690155 17.7363803,42.7363534 18.5036003,42.671208 C17.9301902,42.3129083 17.4203173,42.396999 16.9240596,42.5036607 L16.6544237,42.5615549 L16.5200559,42.5874496 C15.2288808,42.8294182 13.9657747,42.8666442 12.7307376,42.3175615 C12.6278179,42.2710291 12.4687601,42.2431096 12.4687601,42.0942059 C12.4687601,41.9546086 12.5997489,41.8894632 12.7026686,41.8243178 C13.3201871,41.4520583 13.975131,41.1821703 14.714282,41.1542508 C14.7891327,41.1542508 14.8733398,41.1542508 14.9014088,41.0146535 C14.2932467,40.9308952 13.6850845,41.005347 13.0862786,41.0984119 C11.7483218,41.3031546 10.6068481,40.9495081 9.65250132,40.0002466 C9.28760401,39.6279872 9.32502937,39.4511639 9.79284644,39.2371148 C10.1203184,39.088211 10.466503,38.9579202 10.8126877,38.8462424 C10.9436764,38.8090164 11.0653089,38.743871 11.0933779,38.6414997 C11.1308033,38.4925959 10.9530328,38.4274505 10.8688257,38.3436921 C10.3074452,37.7387706 9.5121562,37.7294641 8.79171792,37.6643187 C8.02449792,37.5991733 7.36955402,37.3292852 6.7988172,36.9197998 C5.95674648,36.3241848 5.2830899,35.54244 4.94626161,34.5187265 C4.84334185,34.1929995 4.93690526,34.1743866 5.18952648,34.1836931 C5.62927453,34.202306 6.07837891,34.1464671 6.50877062,34.3325968 C6.71461013,34.4256617 6.957875,34.3884357 7.29470329,34.3046774 C6.70525379,33.8207401 6.55555232,33.0762213 5.74155062,32.8063332 C4.66557136,32.4433802 3.68315552,31.8477652 3.00949894,30.8705842 C2.57910724,30.2563561 2.56039455,29.5490632 2.66331431,28.8510768 C2.71945236,28.4695109 3.08434967,28.5439627 3.28083284,28.6649471 C3.58023576,28.8417703 3.91706405,28.8696897 4.21646698,29.0185935 C4.31003039,29.0651259 4.41295015,29.1023519 4.4690882,29.0185935 C4.50651356,28.9534481 4.5158699,28.8231573 4.47844454,28.7580119 C4.38488112,28.5904952 4.26324868,28.4322849 4.07612186,28.3485265 C2.36391138,27.5667818 1.33471383,25.789243 1.52184066,24.0954626 C1.55926602,23.7325097 1.70896749,23.6301383 2.06450846,23.7045902 C2.44811846,23.7883486 2.7755904,23.9837848 3.12177504,24.1326885 C3.25276381,24.1885275 3.39310894,24.467722 3.52409772,24.2071404 C3.62701747,24.0023977 3.67379918,23.7232032 3.45860333,23.5184605 C3.37439625,23.4347021 3.26212016,23.3695567 3.14984406,23.3137178 C2.16742821,22.8577 1.82124358,22.0387293 1.6902548,21.0150159 C1.59669139,20.251884 1.73703651,19.5352846 1.8025309,18.7907658 C1.85866895,18.2044572 1.93351968,18.1765377 2.49490016,18.4185064 C2.86915382,18.5860231 3.18726943,18.8093788 3.48667235,19.1444122 C3.69251186,18.7256204 3.78607527,18.334748 3.59894845,17.971795 C2.89722284,16.6409676 2.93464821,15.2822207 3.34632723,13.8955543 C3.35568357,13.8490219 3.38375259,13.811796 3.39310894,13.7652635 C3.4305343,13.4767625 3.56152308,13.141729 3.80478796,13.104503 C4.11354722,13.0579706 4.39423746,13.2999392 4.59072063,13.5698273 C4.60943332,13.5977468 4.60943332,13.6349727 4.628146,13.6535857 C4.67407713,13.6992721 4.71235307,13.7684939 4.74714938,13.84275 L4.8133397,13.9924928 C4.87736491,14.1379844 4.93860642,14.254277 5.03046868,14.1933619 C5.29244624,14.0165386 5.58249282,13.6908116 5.54506745,13.2813263 C5.48892941,12.6391788 5.33922794,12.0156442 5.35794063,11.3734967 C5.37665331,10.6103649 5.72283794,9.99613684 6.21872403,9.45636067 C6.39649452,9.26092447 6.62104671,9.23300501 6.83624257,9.5028931 C7.00465671,9.70763578 7.07950744,9.95891089 7.29470329,10.1636536 C7.4537611,9.89376549 7.56603719,9.60526444 7.67831329,9.34468284 C8.10870499,8.27443699 9.02562645,7.79980622 9.97997327,7.38101437 C10.8314003,7.00875494 10.9436764,7.11112628 10.9811018,8.03246836 Z M14.0780508,10.4893806 C14.4803735,10.5917519 14.658144,10.9547049 14.9669032,11.1222216 C15.3972949,11.3455773 15.2756625,11.7085302 15.2943752,12.0435637 C15.3505132,13.4209236 15.2195244,14.7889769 15.1727427,16.1663368 C15.1353174,17.4692448 15.125961,18.7814593 15.0043286,20.0843673 C14.8733398,21.3872753 14.8639835,22.6901833 14.8078454,24.0023977 C14.742351,25.444903 14.6675003,26.8967148 14.6394313,28.3392201 C14.6394313,28.4788173 14.5177988,28.7300925 14.7891327,28.7300925 C15.0136849,28.7300925 15.1914554,28.5439627 15.2008118,28.3019941 C15.2195244,27.9483477 15.2663062,27.5947012 15.2756625,27.2503612 C15.3130879,25.8171624 15.4908583,24.3932701 15.4908583,22.9600714 C15.4908583,21.3128234 15.6218471,19.6655754 15.6873415,18.0183275 C15.7341232,16.7898714 15.8183303,15.5614153 15.8744683,14.3329592 C15.9025374,13.6908116 15.9118937,13.0393576 15.9867444,12.3972101 C16.0054571,12.2855323 16.0148135,12.0807896 16.276791,12.2483064 C16.9223786,12.6670982 17.1375744,13.104503 16.9504476,13.8769414 C16.9130222,14.0444581 16.8849532,14.2026684 16.8849532,14.3701851 C16.8475278,15.8406098 16.8662405,17.3110346 16.7633208,18.7721528 C16.660401,20.2798035 16.604263,21.7874542 16.5855503,23.3044113 C16.5761939,23.9558653 16.4452052,24.6166258 16.4264925,25.2680798 C16.41264,25.7434455 16.4346788,26.2188112 16.4546526,26.6941768 L16.472,27.169 L16.4781652,27.1600771 C16.4964052,27.1389571 16.5172052,27.1421571 16.5252052,27.1901571 L16.4728919,27.1815328 C16.4730206,27.1858627 16.473148,27.1901925 16.4732742,27.1945223 C16.4919869,27.1945223 16.5106996,27.1945223 16.5294122,27.2038288 C16.9410913,26.9618602 17.1188617,26.6082137 17.0907927,26.1242765 C17.044011,25.0726436 17.0346547,24.0210107 17.1656435,22.9786843 C17.2685632,22.1317941 17.2217815,21.2849039 17.2498505,20.4380137 C17.2592069,20.251884 17.2872759,20.0750608 17.45569,19.9540765 C17.6802422,20.3635619 17.6802422,20.8661121 17.9796452,21.247678 C17.9956846,21.3327659 18.0300548,21.4110163 18.0705353,21.4869876 L18.1980871,21.7126224 C18.2588078,21.8265794 18.3057805,21.9456644 18.2977608,22.0852617 C18.2509791,22.8204741 18.3538988,23.5556864 18.22291,24.2908988 C18.194841,24.4211896 18.2696917,24.5514804 18.4287495,24.6352388 C18.60652,24.0210107 18.7842905,23.4253956 18.9527047,22.8297806 L19.0649808,23.0252168 C18.9246356,23.3509438 19.1772569,23.6115253 19.2333949,23.9000264 C19.2801766,24.1513015 19.4673034,24.179221 19.6637866,24.0396237 C19.7667064,23.9651718 19.8415571,23.8721069 19.9257642,23.7790421 C20.0193276,23.7883486 20.084822,23.8255745 20.084822,23.9279459 C19.9351205,24.0675431 19.7760627,24.1885275 19.6450739,24.3374312 C19.4392344,24.5700934 19.2708203,24.5142545 19.1491878,24.2722858 C19.1024061,24.1699145 19.0649808,24.0489302 18.9527047,24.0582367 C18.8123595,24.0675431 18.7842905,24.2350599 18.7562215,24.3374312 C18.6158764,24.8027555 18.5036003,25.2680798 18.3819678,25.7334041 C18.2977608,26.0312116 18.0825649,26.2917932 18.138703,26.6826656 C18.5410256,26.5151489 18.7094398,26.1428894 18.99013,25.9009208 C19.3830964,25.5658873 19.4579471,25.5751938 19.5889359,26.077744 C19.6637866,26.3476321 19.6544303,26.7757305 19.9164078,26.8222629 C20.2251671,26.8687953 20.3561559,26.4779229 20.5152137,26.2173413 C20.6087771,26.0684376 20.7116968,25.8357754 20.8988237,25.8543884 C21.1046632,25.8730014 21.0672378,26.1428894 21.1233759,26.3104062 C21.1608012,26.422084 21.1608012,26.5523748 21.1795139,26.6733591 C21.3105027,27.5481688 21.3385717,27.6226207 21.6099056,27.8273634 C21.6660437,27.7529115 21.7315381,27.6877661 21.7783198,27.6133142 L22.0061065,27.2803665 C22.3280048,26.7997965 22.5788717,26.3092429 22.2367805,25.6589522 C22.1338607,25.463516 22.0215846,25.2215474 22.05901,24.9702723 C22.1619298,24.7003842 22.2274241,24.9423528 22.3022749,24.9888852 C22.3116312,25.3983706 22.4613327,25.7613235 22.6765285,26.1801154 C22.8449427,25.7334041 22.9291498,25.3797576 22.9572188,25.0074982 C23.7337951,25.1284825 24.5197278,25.0726436 25.3056605,25.0819501 C25.2214534,25.3518382 25.4460056,25.5751938 25.4085802,25.8357754 C25.3992239,25.8730014 25.4927873,25.9660662 25.5582817,25.9846792 C25.6705578,26.0125986 25.6518451,25.9009208 25.6705578,25.8357754 C25.7547648,25.5472744 25.8389719,25.2680798 25.923179,24.9795787 C26.0354551,24.9330463 26.0541678,24.7469166 26.2319383,24.812062 C26.1477312,25.0354177 26.0167424,25.2587733 25.979317,25.4914355 C25.923179,25.8636949 25.6144197,26.2452608 25.7921902,26.5896008 C26.0260987,27.054925 26.3909961,27.4457974 26.7091117,27.8925087 C26.8120314,27.743605 26.8681695,27.6412336 26.8962385,27.5016364 C26.9710892,27.0270056 27.074009,26.5523748 27.1675724,26.077744 C27.2237104,25.789243 27.3359865,25.7799365 27.5044007,26.0125986 C27.5605387,26.0870505 27.6353895,26.1428894 27.6915275,26.2173413 C27.8880107,26.45931 28.0377121,26.9618602 28.280977,26.9060213 C28.5990926,26.8315694 28.5429546,26.3290192 28.6458743,26.0125986 C28.7955758,25.5845003 28.8704265,25.5379679 29.2166112,25.8543884 C29.4879451,26.096357 29.6750719,26.422084 30.0867509,26.6175202 C29.9838312,25.6868716 29.6657155,24.8865139 29.4224507,24.0675431 C29.3569563,23.853494 29.1791858,24.0023977 29.1417604,24.1326885 C28.9546336,24.7003842 28.7113687,24.486335 28.4587475,24.1885275 C28.3745404,24.0954626 28.2903334,24.0117042 28.19677,23.9279459 C28.1874136,23.8255745 28.2341953,23.7604291 28.3464714,23.7697356 C28.3838968,23.816268 28.4119658,23.8721069 28.4587475,23.9186394 C28.7955758,24.2722858 28.8142885,24.2536729 29.0388407,23.834881 C29.1791858,23.5742994 29.1136914,23.3044113 29.1604731,23.0345232 C29.2166112,22.9414584 29.2446802,22.8111676 29.3943816,22.8297806 C29.4224507,23.6301383 29.7405663,24.3467377 29.9931875,25.2215474 C30.0773946,24.5421739 29.9651185,22.6250379 29.8528424,22.2900044 C29.8809114,21.9363579 30.0048829,21.6152842 30.1463976,21.300027 L30.362032,20.8281591 C30.431766,20.6700942 30.4960908,20.510139 30.5452116,20.3449489 C30.5919933,20.1774321 30.6200624,19.9819959 30.8071892,19.8796246 C30.994316,20.0099154 31.0130287,20.2053516 31.0036724,20.4100943 C30.938178,21.536179 31.0317414,22.6622638 31.1253048,23.7883486 C31.1907992,24.6259323 31.1720865,25.4542095 31.1814429,26.2824867 C31.1814429,26.6640526 31.4340641,26.8501824 31.6773289,27.0083926 C31.9112375,27.1572964 31.8550994,26.8967148 31.8644558,26.7943434 C31.8878466,26.4453502 31.8667949,26.0986836 31.8340477,25.7531804 L31.7626622,25.0633802 C31.7514,24.9485571 31.7412639,24.8337771 31.733467,24.7189971 C31.6492599,23.527767 31.7147543,22.3365368 31.6399036,21.1546131 C31.5556965,19.6655754 31.5089148,18.1672312 31.4340641,16.6688871 C31.377926,15.4869634 31.4621331,14.2957332 31.2843626,13.1138095 C31.2469372,12.8625344 31.8644558,12.164548 32.117077,12.1366285 C32.3416292,12.1087091 32.3042038,12.2762258 32.3135602,12.4065166 L32.3790546,14.1561359 C32.4258363,14.9658002 32.556825,15.7847709 32.4913306,16.6037417 C32.4539053,17.0783724 32.500687,17.5530032 32.6597448,18.009021 C32.7439519,18.2416831 32.5661814,18.4464258 32.5755377,18.679088 C32.6503885,20.2611905 32.6784575,21.8525996 32.7907336,23.4347021 C32.8281589,23.9372523 32.8468716,24.4491091 32.856228,24.9516593 C32.884297,26.0684376 32.912366,27.1852158 33.1088492,28.2926876 C33.1462745,28.5067368 33.0339984,28.4788173 32.912366,28.4695109 C32.7533082,28.4602044 32.6784575,28.3299136 32.5848941,28.2275422 C32.0141572,27.5947012 31.2656499,27.1479899 30.7697638,26.4500035 C30.7042694,26.3569386 30.5919933,26.2824867 30.4890736,26.3476321 C30.3955102,26.4127775 30.3861538,26.5244554 30.4048665,26.6640526 C30.4984299,27.3527326 30.7229821,28.0041866 30.938178,28.6463341 C31.1533738,29.3070946 31.3311443,29.9771615 31.5276275,30.6472285 C31.6305472,30.9915685 31.761536,31.1311658 32.1545024,31.0101814 C32.4913306,30.8985036 32.8749406,30.9264231 33.2117689,31.0101814 C33.7731494,31.1590852 34.1006214,31.615103 34.0725523,32.2107181 C34.0538397,32.610897 34.091265,32.8900915 34.5403694,33.0855277 C34.9052667,33.243738 35.0736809,33.7183688 35.4947162,33.8579661 C35.6069923,33.895192 35.5882796,33.9975633 35.5321416,34.0347893 C35.1766006,34.2581449 35.242095,34.7048562 35.0081865,34.9747443 C34.6807145,35.3563102 34.4842314,35.7564891 34.4374497,36.2590394 C34.4280933,36.3986366 34.2971045,36.4265561 34.1754721,36.4730885 C33.1182055,36.9011869 31.9954446,37.0221712 30.8913963,37.2176074 C29.5815085,37.459576 28.252908,37.4316565 26.9430202,37.5619473 C26.2132256,37.6363992 25.4740746,37.5526409 24.74428,37.5898668 C23.0601385,37.6643187 21.3759971,37.5154149 19.6918556,37.459576 C17.9796452,37.4037371 16.2861474,37.0966231 14.6207186,36.7150572 C14.1341888,36.6033793 13.7225098,36.2869588 13.6944408,35.7006502 C13.6850845,35.5517464 13.6383028,35.4028427 13.535383,35.3376973 C13.0675659,35.0305832 13.1424167,34.3884357 12.6933123,34.0627087 C12.5810362,33.9789504 12.7026686,33.8114336 12.8243011,33.7742077 C13.3576125,33.6066909 13.563452,33.0296888 14.0593381,32.7970267 C14.2651776,32.7039618 14.1622579,32.4619932 14.1716142,32.28517 C14.1903269,31.2335371 15.1166047,30.6100026 16.0896642,31.000875 C16.4264925,31.1404722 16.604263,31.1032463 16.7165391,30.6937609 C17.0627237,29.37224 17.45569,28.050719 17.8486564,26.7385045 C17.8860817,26.6268267 17.9328635,26.5337618 17.811231,26.4686164 C17.6989549,26.4127775 17.5960352,26.5058424 17.5398971,26.5709878 C16.8755969,27.3248131 16.0428825,27.8925087 15.3505132,28.6091081 C14.7049257,29.2698686 13.9657747,29.8282578 13.2640491,30.4331793 L13.2067134,30.4796373 C13.176848,30.500186 13.1442879,30.5113538 13.1049913,30.4890182 C13.0207842,30.4424858 13.0488532,30.3587274 13.0675659,30.2842756 C13.2453364,29.4932243 13.2827618,28.6742535 13.3014745,27.8738958 C13.3295435,26.440697 13.4043942,25.0074982 13.4511759,23.5649929 C13.4886013,22.3272303 13.5821647,21.0801613 13.6383028,19.8330922 C13.6663718,19.1723317 13.6663718,18.5115712 13.7037971,17.8508107 C13.7880042,16.4362249 13.8534986,15.0216391 13.9096367,13.5977468 C13.9377057,12.9649058 13.975131,12.3413712 13.9657747,11.7085302 C13.9564184,11.2990448 14.0967635,10.9267854 14.0780508,10.4893806 Z M32.2012841,31.1870047 C31.2282246,31.3824409 30.2925904,31.7360873 29.2353238,31.8198457 C29.459876,32.0245884 29.759279,32.0897338 29.8341297,32.3596219 C29.8996241,32.610897 30.0586819,32.6574294 30.2832341,32.6388164 C30.4422919,32.6202035 30.6013497,32.6388164 30.7791202,32.6388164 C30.7136258,32.8156397 30.6013497,32.8156397 30.4890736,32.8249461 C29.9464058,32.8435591 29.6657155,33.1972056 29.4505197,33.6346104 C29.4130943,33.6997558 29.431807,33.8486596 29.2914619,33.8207401 C29.1978985,33.8021271 29.1511168,33.7183688 29.1230477,33.6253039 C29.0107717,33.2902704 28.7675068,33.1599796 28.4119658,33.1785926 C27.897367,33.1972056 27.3827683,33.2158185 26.8681695,33.1785926 C26.0073861,33.1041407 25.1933844,33.1227537 24.716211,34.0347893 C24.5010151,33.8300466 24.4823024,33.6346104 24.4074517,33.4764001 C24.3419573,33.3368029 24.3793827,33.0948342 24.1454741,33.0948342 C23.9115656,33.0948342 23.9209219,33.2995769 23.8741402,33.4577872 C23.8367149,33.569465 23.7712205,33.6811428 23.7150824,33.7928207 C23.621519,33.9789504 23.5466683,33.9696439 23.4156795,33.8114336 C23.0320695,33.3461093 22.5642524,33.0762213 21.9280212,33.1692861 C21.6379746,33.2065121 21.3385717,33.1506731 21.0391688,33.1692861 C20.2813051,33.1972056 19.4298781,32.9738499 18.9527047,33.8486596 C18.9433483,33.8672725 18.905923,33.8672725 18.8965666,33.8672725 C18.6626581,33.4670937 18.5878073,32.918011 18.0170705,32.8342526 C17.2592069,32.7225748 16.5200559,32.5364451 15.7715486,32.3596219 C15.125961,32.2107181 14.686213,32.3503154 14.5645806,32.7877202 C14.4897298,33.0576083 14.3400284,33.1599796 14.1248325,33.2995769 C13.3295435,33.8114336 13.0675659,34.239532 13.8815676,35.0678092 C14.0312691,35.216713 14.0780508,35.3656167 14.0686945,35.5610529 C14.0499818,35.9426188 14.2932467,36.156668 14.6300749,36.2497329 C16.5294122,36.7615896 18.4755313,37.0500906 20.4497193,37.0780101 L21.2431534,37.0952664 L22.827894,37.1439423 C23.8838785,37.1748735 24.9394265,37.1923469 25.9980297,37.133849 C27.5418261,37.0500906 29.076266,37.0128647 30.610706,36.8360415 C31.2656499,36.7615896 31.9018811,36.5661534 32.556825,36.519621 C33.0620675,36.482395 33.6982987,36.4079431 33.9696326,35.9891513 C34.2503228,35.5517464 34.418737,35.0398897 34.7087836,34.5745654 C35.0643245,34.0161763 34.830416,33.6718363 34.0444833,33.2902704 C33.8667128,33.2065121 33.7263677,33.1599796 33.6982987,32.9273175 C33.6421606,32.5457516 33.4082521,32.3410089 33.0059294,32.3410089 C32.4445489,32.3410089 31.9205938,32.4899127 31.377926,32.592284 C31.2469372,32.6202035 31.1720865,32.610897 31.1159485,32.4619932 L31.9996029,32.265523 C32.1461856,32.2313992 32.2917287,32.1952073 32.4351926,32.1548792 C32.8468716,32.0432014 32.9965731,31.7640068 32.8655843,31.3545214 C32.7439519,30.982262 32.4539053,31.1404722 32.2012841,31.1870047 Z M22.3677693,36.0586683 C22.6016778,36.1003523 22.3397002,36.2983516 22.4332637,36.3817197 C22.44262,36.6318241 22.0777227,36.9027704 21.8625268,36.7985603 C21.7408944,36.7360342 21.6660437,36.7881393 21.5724802,36.8819284 C21.3759971,37.0695067 21.1701576,37.0695067 21.0110998,36.8402443 C20.880111,36.6526661 20.7771912,36.4234038 20.9923871,36.1941415 C21.2075829,35.9753002 21.4508478,35.9753002 21.6566873,36.1524574 C21.7970324,36.2670886 21.8531705,36.5171929 21.9467339,36.1107734 C21.9841593,35.9544581 22.2274241,36.0378263 22.3677693,36.0586683 Z M24.5290841,36.1845875 C24.6881419,36.3986366 24.716211,36.5940728 24.5477968,36.808122 C24.3793827,37.0221712 24.2016122,37.0407841 23.9957727,36.8732674 C23.7992895,36.7057507 23.6308754,36.808122 23.4437485,36.8825739 C23.237909,36.9663323 23.0040005,37.0873166 23.1349893,36.6406053 C23.1262567,36.6108245 23.1150291,36.5788929 23.1034577,36.54609 L23.0698636,36.4463465 C23.0142717,36.2633824 23.0133568,36.0927635 23.4250358,36.1473615 C23.4718176,36.156668 23.5279556,36.138055 23.5560246,36.1659745 C23.649588,36.2497329 23.4437485,36.5103145 23.7057261,36.4917015 C23.8647839,36.482395 23.7712205,36.193894 23.948991,36.156668 C24.1454741,36.1194421 24.3419573,35.9240059 24.5290841,36.1845875 Z M26.8494568,36.0636032 C26.9617329,36.0636032 26.9710892,36.156668 26.9523765,36.2311199 C26.9149512,36.5289274 27.0646526,36.6964442 27.3546992,36.808122 C27.1488597,36.9011869 26.9055948,36.9756387 26.8120314,36.7988155 C26.7091117,36.6033793 26.746537,36.3334912 26.7278244,36.1008291 C26.7278244,36.0915226 26.8026751,36.0636032 26.8494568,36.0636032 Z M27.7008839,35.9612318 C27.7757346,35.9612318 27.8786543,35.9333124 27.8318726,36.1008291 C27.7850909,36.2404264 27.81316,36.4079431 27.8225163,36.5568469 C27.8318726,36.6592182 28.0470685,36.7336701 27.869298,36.8546544 C27.81316,36.8918804 27.7195965,36.8918804 27.6447458,36.8825739 C27.4669753,36.8360415 27.5511824,36.6871377 27.5324697,36.5754599 C27.5418261,36.5103145 27.5418261,36.4451691 27.5418261,36.3614107 C27.5698951,36.2497329 27.457619,36.1473615 27.4669753,36.0356837 C27.4763317,35.9333124 27.6166768,35.9612318 27.7008839,35.9612318 Z M26.2038692,36.0729096 C26.4097087,36.2032004 26.5032722,36.5103145 26.6342609,36.7429766 C26.6436173,36.7522831 26.5406975,36.8639609 26.5126285,36.8546544 C26.3783287,36.8120212 26.2353021,36.8179969 26.0904783,36.8336129 L25.8727607,36.8593957 C25.6192054,36.886545 25.3707563,36.8835461 25.1645508,36.6415504 L25.1375928,36.6612863 C25.1320484,36.6654226 25.12789,36.6685247 25.12789,36.6685247 L25.0811083,36.6592182 C25.0623956,36.7429766 25.0811083,36.8546544 24.9501195,36.8732674 C24.8471997,36.8825739 24.8284871,36.7988155 24.8191307,36.7243636 C24.8191307,36.5568469 24.8191307,36.3893302 24.8284871,36.2125069 C24.8284871,36.175281 24.8471997,36.1194421 24.8752688,36.0915226 C25.0623956,35.8774734 25.099821,36.5382339 25.3898675,36.156668 C25.6331324,35.849554 25.6799141,36.3148783 25.8576846,36.4358626 C25.9699607,36.3055718 25.9886734,35.9426188 26.2038692,36.0729096 Z M28.1406319,35.8402475 C28.3745404,36.1845875 28.252908,36.6312988 28.7487941,36.6033793 C28.5710236,36.8825739 28.2435517,36.8546544 28.1687009,36.7522831 C28.0096431,36.5289274 28.0844939,36.2311199 28.1406319,35.8402475 Z M20.2438798,35.9612318 C20.3187305,35.9891513 20.3655122,36.0636032 20.3093742,36.0822161 C19.9164078,36.2683458 20.5152137,36.6312988 20.1877417,36.7708961 C19.9444768,36.8825739 19.6731429,36.6033793 19.6731429,36.3148783 C19.6731429,35.9798448 19.9164078,35.830941 20.2438798,35.9612318 Z M29.3569563,36.0077642 C29.4411634,36.2125069 29.5066577,36.4265561 29.6189338,36.7429766 C29.4692324,36.6778312 29.403738,36.6312988 29.3569563,36.6406053 C28.8785354,36.7615896 28.8850224,36.5051028 28.9257107,36.2285775 L28.9452773,36.1008291 C28.9546336,36.0170707 28.8984956,35.9053929 29.0388407,35.8774734 C29.1698295,35.849554 29.3008182,35.868167 29.3569563,36.0077642 Z M19.0836934,35.8588605 C19.2053259,35.9240059 19.4111654,35.7844086 19.4766598,35.9798448 C19.5515105,36.2032004 19.4485908,36.4265561 19.3830964,36.6406053 C19.3550273,36.7150572 19.2521076,36.6964442 19.2333949,36.6592182 C19.1211188,36.4544756 19.0088427,36.3893302 18.8217159,36.5847664 C18.7936469,36.6219923 18.7000834,36.6033793 18.6720144,36.5289274 C18.60652,36.3241848 18.7468652,36.1473615 18.7655778,35.9519253 C18.7749342,35.7937151 18.962061,35.8867799 19.0836934,35.8588605 Z M21.3479281,36.2566676 C21.2169393,36.2670886 21.1701576,36.3608777 21.1701576,36.4963509 C21.1701576,36.6630871 21.2730773,36.6839291 21.3853534,36.6735081 C21.5256985,36.6526661 21.5444112,36.5380349 21.5350549,36.4129828 C21.5256985,36.2775096 21.4508478,36.2462465 21.3479281,36.2566676 Z M30.3955102,35.6820372 C30.4142229,35.849554 30.4142229,36.0170707 30.4516482,36.1659745 C30.4797172,36.2776523 30.5919933,36.3986366 30.4610046,36.4917015 C30.398629,36.5413361 30.332095,36.5165188 30.2669471,36.4751566 L30.170958,36.4079431 C29.8996241,36.193894 30.0212565,36.5754599 29.8621987,36.5940728 C29.5721521,36.0729096 29.5721521,36.0729096 30.3955102,35.6820372 Z M17.6521732,35.7378762 C17.7925183,35.8867799 17.45569,36.1473615 17.7363803,36.1845875 C17.9328635,36.2125069 17.8954381,35.8960864 18.0451395,35.8030216 C18.138703,35.7471826 18.3258298,35.6913437 18.3445425,35.868167 C18.3726115,36.1101356 18.550382,36.3334912 18.4193932,36.5754599 C18.2696917,36.482395 17.6708859,36.4451691 17.3621266,36.501008 C17.1843561,36.5289274 16.987873,36.5382339 16.9691603,36.3055718 C16.9504476,36.0542967 16.8849532,35.7564891 17.1562871,35.6075854 C17.3059886,35.523827 17.5024717,35.5796659 17.6521732,35.7378762 Z M31.4434204,36.1194421 C31.4527768,36.3986366 31.2188682,36.5103145 30.966247,36.501008 C30.5077863,36.501008 30.7416948,36.0822161 30.6387751,35.8774734 C30.5601818,35.727639 30.6649728,35.6963692 30.7830592,35.6879003 L30.883565,35.6839916 C30.8995363,35.6835263 30.9147871,35.6829679 30.9288216,35.6820372 C31.2843626,35.6261983 31.4340641,35.830941 31.4434204,36.1194421 Z M22.6297468,34.2581449 C22.8636554,34.6955498 22.8355863,35.160874 22.5268271,35.2818584 C22.3209876,35.3656167 22.3209876,35.8030216 21.9935156,35.5889724 C21.7315381,35.4121492 21.6941127,35.0212768 21.8718832,34.5931784 C22.0777227,34.6583238 21.9560902,34.8630665 22.030941,34.9840508 L22.021,34.993 L22.0487555,34.9939529 C22.087079,35.0022915 22.087079,35.0380284 22.087079,35.0678092 C22.7139539,35.1329546 22.5361834,34.6117914 22.6297468,34.2581449 Z M26.6155483,34.546646 C26.5874792,34.7234692 26.6249046,34.9189054 26.6436173,35.1143416 L26.5590637,35.0909031 C26.5500539,35.0874562 26.5438163,35.08332 26.5406975,35.0771157 C26.4471341,34.9282119 26.6155483,34.6117914 26.3816397,34.6117914 C26.1570875,34.6117914 26.27872,34.9095989 26.2225819,35.0771157 C26.1570875,35.2818584 25.979317,35.3097778 25.7828339,35.3190843 L25.6609191,35.3190205 L25.4165504,35.3111566 C25.1725925,35.3056416 24.9314068,35.3221865 24.7068546,35.4959075 C24.6413602,35.54244 24.5010151,35.486601 24.3980953,35.4772946 C24.4230456,35.390434 24.4001745,35.3118459 24.3651749,35.2353259 L24.2895798,35.0832051 C24.2425029,34.9811784 24.2161665,34.8754752 24.2951756,34.7513887 C24.3700263,34.6397108 24.4448771,34.528033 24.5852222,34.5838719 C25.0156139,34.7700016 25.4553619,34.4256617 25.8857536,34.6397108 C26.0635241,34.7234692 26.0354551,34.5559525 26.0448114,34.4535811 C26.0635241,34.2953709 26.1103058,34.2767579 26.2974326,34.2581449 C26.5968356,34.2302255 26.6342609,34.2953709 26.6155483,34.546646 Z M23.0882076,34.2953709 C23.1537019,34.3046774 23.20984,34.3232903 23.20984,34.3977422 C23.2285527,34.5001136 23.237909,34.6117914 23.2472654,34.7700016 C23.5279556,34.6676303 23.7337951,34.3884357 23.9864163,34.6769368 C24.1267614,34.835147 24.1174051,35.0398897 24.033198,35.1981 C23.8647839,35.4959075 23.2285527,35.4493751 23.0320695,35.1422611 C22.882368,34.9002924 22.9759315,34.6397108 22.9572188,34.3791293 C22.9572188,34.3046774 23.0227132,34.2860644 23.0882076,34.2953709 Z M20.9268927,34.2116125 C20.9643181,34.2116125 21.0391688,34.239532 21.0391688,34.2581449 C21.0859505,34.5001136 21.1327322,34.7420822 21.0204561,34.9654378 C20.90818,35.179487 20.7116968,35.2539389 20.4777883,35.2074065 C20.3187305,35.179487 20.14096,35.1143416 20.3374432,34.9189054 C20.496501,34.7606952 20.3093742,34.5187265 20.5713517,34.3419033 C20.6087771,34.5373395 20.6274898,34.6769368 20.6649151,34.8630665 C20.8894673,34.7141627 20.7584785,34.5094201 20.8052603,34.3605163 C20.8239729,34.2860644 20.8146166,34.202306 20.9268927,34.2116125 Z M20.0006149,34.239532 C20.0380403,34.5838719 20.1596727,34.8816795 19.9351205,35.0585027 C19.785419,35.1763849 19.6107673,35.141227 19.4388879,35.0853881 L19.2689593,35.0275577 C19.2411341,35.0184044 19.2136426,35.0099022 19.1866132,35.0026638 C19.1024061,34.9840508 18.9527047,34.8165341 19.0836934,34.7886146 C19.4696425,34.7246325 19.4133583,34.6170263 19.3054497,34.5066935 L19.2376345,34.4404939 C19.1924609,34.3965789 19.1515269,34.3535364 19.1398315,34.3139839 C19.289533,34.2581449 19.4485908,34.2488385 19.5234415,34.3884357 C19.7386373,34.7979211 19.8602698,34.6676303 20.0006149,34.239532 Z M28.1219192,34.1185477 C28.309046,34.1092412 28.280977,34.2674514 28.2903334,34.3884357 C28.309046,34.528033 28.252908,34.6955498 28.4026095,34.8072276 C28.5335982,34.7513887 28.5990926,34.6397108 28.5242419,34.5094201 C28.4587475,34.3977422 28.4400348,34.2767579 28.5710236,34.2488385 C28.7300814,34.2116125 28.7300814,34.3698228 28.7487941,34.4908071 C28.7581504,34.546646 28.7768631,34.6024849 28.7955758,34.6583238 C28.8517138,34.6490173 28.8891392,34.6583238 28.8984956,34.6397108 C29.0107717,34.528033 28.8236448,34.2581449 29.076266,34.2302255 C29.1831957,34.2169305 29.2041997,34.2938515 29.207473,34.3761989 L29.2072548,34.4721941 C29.2166112,34.7048562 29.2353238,34.9840508 28.9452773,35.0305832 C28.5429546,35.0864222 28.1219192,35.0212768 27.7102402,35.1236481 C27.513757,35.1701805 27.3827683,34.9840508 27.3453429,34.7886146 C27.3266302,34.6769368 27.3640556,34.565259 27.4669753,34.5094201 C27.5792514,34.4535811 27.6447458,34.546646 27.6821712,34.6210979 C27.7289529,34.7420822 27.8038036,34.8072276 27.9254361,34.7513887 C28.0283558,34.7048562 27.9909304,34.5931784 28.0002868,34.5094201 C28.0002868,34.4628876 27.9909304,34.4163552 28.0002868,34.3698228 C28.0189995,34.2767579 27.9535051,34.1278541 28.1219192,34.1185477 Z M24.4448771,32.9087045 C24.4729461,33.1599796 24.5197278,33.4019483 24.7349236,33.5043196 C24.8939814,33.5787715 25.3243731,33.1599796 25.2869478,32.9738499 C25.2401661,32.7132683 25.0717519,32.4712997 24.800418,32.4433802 C24.5010151,32.4061543 24.5103714,32.7225748 24.4448771,32.9087045 Z M23.4718176,32.4247673 C23.3314724,32.4154608 22.82623,32.8900915 22.882368,33.0110759 C22.9946441,33.2530445 23.2472654,33.4670937 23.4718176,33.4857066 C23.7431515,33.5229326 23.6870134,33.1972056 23.7057261,33.0203823 C23.7150824,32.5550581 23.6683007,32.4340737 23.4718176,32.4247673 Z M29.2540365,32.1548792 C28.9452773,32.1455727 28.8236448,32.3410089 28.8330012,32.6388164 C28.8423575,32.9645434 29.0294843,33.2902704 29.2821056,33.3181899 C29.5253704,33.3368029 29.6563592,32.9831564 29.6844282,32.6946553 C29.6470029,32.4340737 29.5815085,32.1641857 29.2540365,32.1548792 Z M19.0088427,32.1548792 C18.7094398,32.1548792 18.5690947,32.3689283 18.5410256,32.6760424 C18.522313,32.9645434 18.6907271,33.2902704 18.8778539,33.2995769 C19.1491878,33.3088834 19.4298781,33.0948342 19.3924527,32.7132683 C19.3643837,32.4619932 19.3643837,32.1548792 19.0088427,32.1548792 Z M28.608449,31.8756846 C28.147315,32.0219294 27.6670865,32.0447208 27.1848121,32.0458061 L26.6061919,32.0432014 C26.3535707,32.0432014 26.1103058,32.0245884 25.8576846,32.0525078 C25.6237761,32.0804273 25.2495224,31.8942976 25.2027407,32.2758635 C25.155959,32.6481229 25.5115,32.7970267 25.7828339,32.9645434 C25.8202592,32.9831564 25.8763973,32.9738499 25.923179,32.9831564 C26.6342609,33.1878991 27.3546992,33.0203823 28.0657812,32.9738499 C28.4493912,32.9459305 28.8891392,32.3782348 28.8517138,32.0152819 C28.8330012,31.8570716 28.7207251,31.8477652 28.608449,31.8756846 Z M19.3924527,32.0804273 C19.4673034,32.7132683 19.7667064,32.9924629 20.4122939,33.0017694 C20.5994207,32.9831564 20.7865476,32.9831564 21.0204561,32.9831564 C21.4976295,33.1041407 22.002872,32.899398 22.5268271,32.8714786 C22.798161,32.8528656 23.0227132,32.610897 23.0414258,32.3130894 C23.0507822,32.1083468 22.8917244,32.0432014 22.6952412,32.0525078 C21.6660437,32.0525078 20.6368461,32.1455727 19.6170049,31.8849911 C19.4860161,31.8477652 19.37374,31.8942976 19.3924527,32.0804273 Z M15.3130879,31.4289733 C15.2663062,31.7267808 15.3411569,32.0618143 15.7621922,32.1455727 C16.5106996,32.2944765 17.2404942,32.4806062 17.9890015,32.6388164 C18.1012776,32.6667359 18.3071171,32.6481229 18.3351861,32.5178321 C18.4100369,32.1827986 18.6813708,32.0338949 19.0275554,31.8198457 C17.9141508,31.6988614 16.9691603,31.4103603 16.0148135,31.1590852 C15.7060542,31.0753268 15.3785823,31.0381009 15.3130879,31.4289733 Z M23.6589444,26.8408759 C23.621519,26.9060213 23.5466683,26.9618602 23.5466683,27.0270056 C23.5185993,27.9483477 23.2191963,28.8324638 23.2285527,29.7538059 C23.2285527,30.1539848 23.0882076,30.5355507 23.0133568,30.9171166 C22.9356272,31.2607407 22.4911733,31.3744009 21.9596377,31.2507776 L21.833,31.216 L21.8037512,31.3191651 C21.65277,31.8447381 21.7133757,31.8926553 22.3209876,31.8663781 C22.9759315,31.8384587 23.5092429,32.0432014 23.9396346,32.5271386 C24.0706234,32.6760424 24.2203249,32.6574294 24.388739,32.4806062 C24.772349,32.0804273 25.2308097,31.7826198 25.8296156,31.7919262 C26.1758002,31.8012327 26.6155483,31.94083 26.5874792,31.270763 C26.718468,31.5592641 26.7558934,31.8105392 27.130147,31.8012327 C27.5231134,31.7919262 27.7944473,31.7360873 27.841229,31.289376 C27.8599417,31.1590852 27.9441487,31.0474074 28.0002868,30.9171166 C28.1125629,30.6472285 28.2341953,30.5355507 28.4213221,30.8612777 C28.5242419,31.0474074 28.636518,31.2335371 28.7487941,31.4103603 C28.8049321,31.5127317 28.8423575,31.6802484 28.9827026,31.6616354 C29.1136914,31.6430225 29.1230477,31.4848122 29.1604731,31.3638279 C29.2633929,31.0287944 29.375669,30.7030674 29.4785887,30.3680339 C29.5160141,30.2470496 29.5160141,30.1167588 29.4505197,30.0143875 C29.2353238,29.6328216 29.020128,29.2326427 28.7768631,28.8696897 C28.636518,28.6556406 28.5055292,28.6742535 28.4213221,28.9534481 C28.3277587,29.2698686 28.19677,29.5862891 28.0938502,29.9027097 C28.0657812,29.9957745 28.0189995,30.0795329 27.9254361,30.0981458 C27.81316,30.1167588 27.7757346,30.0143875 27.7289529,29.9399356 C27.5324697,29.6328216 27.3266302,29.3257075 27.130147,29.0185935 C27.074009,28.9348351 27.0085146,28.8789962 26.8962385,28.9069157 C26.7933187,28.9255287 26.7933187,28.9999805 26.7839624,29.0837389 C26.7278244,29.679354 26.3442144,30.2377431 26.5874792,30.8705842 C26.6249046,30.963649 26.5781229,31.0753268 26.4845595,31.1125528 C26.2319383,31.2149241 26.0260987,31.5313446 25.7547648,31.4103603 C25.4740746,31.289376 25.2214534,31.1032463 25.1746717,30.7123739 C25.0249702,29.4932243 24.8378434,28.2740747 24.6600729,27.0176991 C24.5010151,27.1666029 24.5571532,27.3341196 24.5571532,27.4737169 C24.5665095,28.5067368 24.7629927,29.5211437 24.74428,30.5541636 C24.7349236,30.9171166 24.6320039,31.2056176 24.4261644,31.4848122 C24.2483939,31.7267808 24.0706234,31.8198457 23.8367149,31.5220382 C23.6308754,31.2614566 23.4998866,31.000875 23.4905302,30.6472285 C23.4437485,29.37224 23.7337951,28.1158644 23.6589444,26.8408759 Z M14.9201215,31.307989 C14.686213,31.289376 14.3493847,31.6895549 14.3493847,31.9873624 C14.3493847,32.1083468 14.3213157,32.2386376 14.5177988,32.2386376 C14.8078454,32.247944 15.0885357,31.9966689 15.097892,31.6802484 C15.041754,31.5685706 15.2195244,31.326602 14.9201215,31.307989 Z M33.1556309,31.3172955 C32.9685041,31.3545214 33.0807802,31.5220382 33.0527111,31.615103 C33.0620675,32.0059754 33.3427577,32.266557 33.6982987,32.2293311 C33.7918621,32.2200246 33.9134945,32.2293311 33.8854255,32.0990403 C33.8199311,31.8384587 33.8199311,31.5499576 33.5579536,31.3731344 C33.4269648,31.289376 33.2866197,31.289376 33.1556309,31.3172955 Z M31.0130287,31.9129106 C30.7604075,32.1455727 30.4703609,32.1455727 30.1335326,32.1176532 C30.4235792,31.9501365 30.6762004,31.8105392 31.0130287,31.9129106 Z M24.6600729,6.57135011 C24.7670025,6.57135011 24.7880066,6.65206963 24.7912799,6.73550241 L24.7910617,6.83193171 C24.800418,7.50199868 24.8378434,8.16275916 24.8097744,8.83282613 C24.800418,9.27023095 24.9033378,9.68902281 24.9033378,10.1264276 C24.9033378,10.3032509 24.9875449,10.4242352 25.1185336,10.5173 C25.4460056,10.7313492 25.7734775,10.9640113 26.1945129,11.0198503 C26.2412946,10.8151076 26.2412946,10.6382843 26.1103058,10.4428481 C25.8576846,10.0426693 25.7547648,9.58665147 25.6518451,9.12132718 C25.6237761,9.00964936 25.6237761,8.92589099 25.7360522,8.9165845 C25.8389719,8.89797153 25.8202592,9.01895584 25.8389719,9.08410124 C25.9325353,9.39121527 26.0167424,9.70763578 26.1196622,10.0054433 C26.27872,10.4614611 26.6436173,10.6568973 27.0927217,10.7220427 C27.1862851,10.7406557 27.2424231,10.7034297 27.2892048,10.6382843 C27.3546992,10.5452195 27.2517795,10.5079935 27.2237104,10.4521546 C27.0272273,10.0519757 26.8026751,9.66110335 26.8868822,9.1771661 C26.9430202,9.3074569 26.9991583,9.4377477 27.04594,9.5680385 C27.3640556,10.3218638 27.3640556,10.3404768 28.2061263,10.2753314 C29.2166112,10.2008795 30.1522453,9.81931361 30.9756033,9.27953744 C32.1264333,8.5257121 33.3614704,8.24651753 34.7087836,8.3302759 C35.2608077,8.36750185 35.9063953,8.95381044 36.0186714,9.46566715 C36.4490631,11.3734967 36.2900053,13.3278587 36.4116377,15.2543012 C36.5239138,17.1342113 36.4958448,19.0141214 36.6361899,20.8847251 C36.7578223,22.6157314 36.8139604,24.3467377 36.8981674,26.077744 C36.9636618,27.417878 36.9075238,28.7580119 37.0759379,30.0888394 C37.1414323,30.6472285 37.1414323,31.1963112 37.160145,31.7453938 L37.1603632,31.8670022 C37.1570899,31.9677998 37.1360858,32.0618143 37.0291562,32.1083468 C36.8794548,32.1734922 36.7671787,32.0525078 36.6642589,31.959443 C36.1309474,31.4661992 35.6350614,30.945036 35.0736809,30.4704053 C34.5403694,30.023694 34.0444833,29.5304502 33.5392409,29.046513 C33.3334014,28.8510768 33.3427577,28.8510768 33.5485972,28.6463341 C33.5953789,28.5904952 33.5953789,28.4788173 33.5953789,28.395059 C33.5953789,26.8967148 33.5205282,25.4076771 33.4176084,23.9093329 C33.3708267,23.2764919 33.3146887,22.6529573 33.3334014,22.0201163 C33.3521141,20.7079018 33.2585506,19.3956873 33.2024126,18.0834729 C33.1462745,16.7619519 33.1182055,15.4404309 33.0246421,14.1282165 C32.9685041,13.2906328 32.9778604,12.4623555 32.9497914,11.6340783 C32.940435,11.4014162 33.8199311,10.4428481 34.0164143,10.4893806 C34.2128975,10.535913 34.2596792,10.7406557 34.2596792,10.9267854 C34.2690355,11.4479486 34.3251736,11.9691118 34.3345299,12.490275 C34.3438862,13.8024895 34.446806,15.1147039 34.4561623,16.4362249 C34.474875,17.7856653 34.5310131,19.1444122 34.6526455,20.4938527 C34.7087836,21.0615483 34.6994272,21.6292439 34.7274962,22.1969395 C34.7929906,23.6394448 34.8117033,25.0912566 34.9333357,26.5337618 C34.9801175,27.1200704 34.9801175,27.6970726 35.0081865,28.2833811 C35.0362555,28.8510768 35.0736809,29.4187724 35.1017499,29.986468 C35.1111062,30.2005172 35.1953133,30.330808 35.4292218,30.330808 C35.4666472,30.3401145 35.5134289,30.5355507 35.5321416,30.3773404 C35.5789233,30.1260653 35.6069923,29.8468707 35.4947162,29.5769827 C35.5789233,28.6649471 35.4385782,27.7529115 35.4479345,26.8408759 C35.4479345,26.3941646 35.4198655,25.9474532 35.4011528,25.4914355 C35.3730838,24.467722 35.2982331,23.4533151 35.2795204,22.4296017 C35.242095,21.0057094 35.0923936,19.5818171 35.0175428,18.1579248 C34.9426921,16.706113 34.9146231,15.2543012 34.858485,13.811796 C34.8210597,12.6484852 34.7649216,11.494481 34.7181399,10.3311703 C34.7087836,10.0147498 34.7649216,9.87515252 35.1017499,10.1078147 C35.3356584,10.2753314 35.6069923,10.3870092 35.8596135,10.5266065 C36.1870855,9.58665147 35.4292218,8.56293805 34.4000243,8.48848616 C33.0620675,8.3954213 31.9580192,8.9817299 30.8446146,9.58665147 C30.0025438,10.0519757 29.1136914,10.4056222 28.1312756,10.4614611 C27.9909304,10.4707676 27.5511824,10.3404768 27.7570219,10.8337205 C27.8038036,10.9360919 27.5231134,11.0384632 27.3546992,11.0012373 C27.1956414,10.9640113 27.0365836,10.880253 26.8775258,10.843027 C26.7558934,10.8151076 26.5406975,10.7499622 26.5126285,10.9267854 C26.4564905,11.4014162 26.1383748,11.1966735 25.9325353,11.1501411 C25.7173395,11.1036086 25.4834309,11.0198503 25.3150168,10.880253 C25.0904646,10.7034297 24.8659124,10.6382843 24.6413602,10.6475908 C24.6413602,9.94029792 24.74428,9.21439204 24.6132912,8.54432507 C24.4916588,7.95801648 24.6226475,7.39032085 24.5477968,6.82262523 C24.5384405,6.73886686 24.4823024,6.57135011 24.6600729,6.57135011 Z M26.0167424,3.04419205 C26.4284214,3.32338662 26.4658468,3.93761467 26.5032722,4.4401649 C26.5687665,5.42665238 26.5781229,6.42244634 26.6155483,7.40893382 C26.6342609,7.90217756 26.8401004,8.38611482 26.7839624,9.00034287 C26.4845595,8.45126022 26.3816397,7.93009702 26.3816397,7.44615977 L26.388657,6.29215555 L26.3812687,5.15199937 C26.3746287,5.16011463 26.3662287,5.16793208 26.3562287,5.17537727 C26.3171111,5.13897248 26.3258119,5.09366727 26.3636257,5.04816572 C26.1383748,4.67282704 26.2600073,4.23542222 26.1383748,3.83524333 C26.0354551,3.48159688 25.8483283,3.29546716 25.4647183,3.29546716 C25.0062575,3.30477365 24.5384405,3.27685419 24.1922558,3.66772659 C24.0986924,3.77940442 23.9677036,3.7887109 23.8554275,3.7235655 C23.4437485,3.50020985 22.9665751,3.38853202 22.6110341,3.07211151 C22.3022749,2.79291694 21.9560902,2.70915857 21.5444112,2.73707803 C20.9830307,2.77430397 20.8894673,2.85806234 20.9175364,3.48159688 C21.2824337,3.23032176 21.6379746,3.03488557 22.087079,3.23962825 C22.5268271,3.43506445 23.0227132,3.90038873 23.3221161,4.47739084 C22.7794483,4.44947139 22.7420229,4.75658541 22.7607356,5.18468375 C22.82623,6.88777063 22.2274241,8.3954213 21.3666407,9.82862009 C21.1982266,10.1078147 21.0298124,10.3963157 20.852042,10.6941233 C21.5069859,10.7127362 22.1993551,10.2660249 22.44262,9.72624875 C22.9010807,8.69322884 23.0882076,7.59506354 23.2846907,6.45967229 C23.4531049,6.81331874 23.4531049,6.85985117 23.2846907,7.61367651 C23.0601385,8.58155102 22.854299,9.54011904 22.3116312,10.3963157 C22.2554932,10.4800741 22.2929185,10.6010584 22.2180678,10.6941233 C22.1712861,10.7592687 22.1899988,10.8709465 22.2742059,10.9453984 C22.386482,11.0384632 22.4332637,10.9081724 22.498758,10.880253 C23.0694949,10.5917519 23.4531049,10.2194925 23.5466683,9.51219958 C23.6589444,8.60947047 23.9022093,7.71604785 23.8928529,6.79470577 C23.8928529,6.62718903 23.9396346,6.49689823 24.1174051,6.33868797 C24.2296812,6.78539929 24.0799797,7.17627168 24.0519107,7.55783759 C24.0238417,7.94870999 23.97706,8.34888887 23.9209219,8.73976127 C23.8554275,9.16785961 23.7618641,9.5680385 23.6308754,9.96821738 C23.4531049,10.5079935 23.8647839,10.9453984 24.388739,10.8244141 C24.1267614,11.2711254 24.0986924,11.2804319 23.7712205,10.9081724 C23.5185993,10.6196714 23.2753344,10.4986871 22.9572188,10.8337205 C22.854299,10.9453984 22.7045976,11.0012373 22.5736088,11.0943021 C22.3022749,11.2804319 22.0402973,11.4851745 21.9841593,10.9174789 C21.9654466,10.7034297 21.7876761,10.6662038 21.6005493,10.7313492 C21.3666407,10.8151076 21.1420885,10.8988659 20.9175364,10.9919308 C20.7304095,11.0756892 20.52457,11.187367 20.3655122,11.0105438 C20.2158107,10.843027 20.552639,10.7685751 20.5058573,10.5638325 C19.9164078,10.4428481 19.2988893,10.3497833 18.7000834,10.2008795 C17.8767254,10.0054433 17.2498505,9.42844121 16.4919869,9.09340773 C15.6218471,8.71184182 14.7329947,8.3954213 13.7412225,8.47917967 C12.9365771,8.54432507 12.1880698,9.38190878 12.2816333,10.1729601 C12.3097023,10.4335417 12.4406911,10.4149287 12.6278179,10.3311703 C13.4358655,9.98429222 13.5093244,9.95275784 13.5160025,10.6700774 L13.5166703,10.9081724 C13.5166703,11.6899172 13.4605323,12.4623555 13.3763252,13.2441003 C13.2827618,14.0909905 13.3950379,14.9658002 13.3295435,15.8219969 C13.2546928,16.9108557 13.2921181,18.0183275 13.2172674,19.1071863 C13.123704,20.4007878 13.1049913,21.6943893 13.0394969,22.9786843 C12.9272208,25.119176 12.8617264,27.2596677 12.7775193,29.4001594 C12.768163,29.6328216 12.6371742,29.8468707 12.6839559,30.0795329 C12.7026686,30.1725977 12.6558869,30.312195 12.7026686,30.349421 C13.1985547,30.7402934 12.7026686,30.8426647 12.5061854,31.0381009 C12.1974262,31.3452149 11.8980233,31.652329 11.5705513,31.9501365 C11.4676316,32.0432014 11.3179301,32.1734922 11.1588723,32.0897338 C11.0185272,32.0152819 11.0840216,31.8384587 11.0933779,31.7081679 C11.2430794,29.2140297 11.4021372,26.7198916 11.3834245,24.2164469 C11.3834245,23.834881 11.645402,23.4998475 11.561195,23.0996686 C11.3927808,22.2620849 11.5144133,21.4151947 11.561195,20.577611 C11.6641147,18.7163139 11.6828274,16.8457103 11.7763908,14.9844131 C11.8512415,13.3743911 11.9541613,11.7643691 12.0570811,10.1636536 C12.1412881,8.68392236 13.1704857,7.99524242 14.6768566,8.2651305 C15.6873415,8.45126022 16.5949066,8.87005207 17.4744027,9.39121527 C18.1854847,9.81000712 18.962061,10.0519757 19.75735,10.2381055 C20.4216503,10.3870092 20.8426856,10.2008795 21.2262956,9.6331839 C22.1899988,8.19067862 22.6297468,6.60857606 22.5268271,4.86826324 C22.4800454,4.06790547 21.8625268,3.58396822 21.0859505,3.79801739 C20.7584785,3.88177576 20.6368461,3.83524333 20.6462025,3.47229039 C20.6555588,2.76499748 21.0391688,2.34620563 21.7408944,2.34620563 C22.030941,2.34620563 22.3209876,2.29036671 22.6110341,2.42065751 C22.7139539,2.46718994 22.8636554,2.45788346 22.9759315,2.41135103 C24.1174051,2.00186566 25.1185336,2.429964 26.0167424,3.04419205 Z M19.4392344,28.8789962 C18.9527047,29.5769827 18.5036003,30.2656626 19.0088427,31.1590852 C19.1024061,31.326602 19.0556244,31.615103 19.2708203,31.6616354 C19.5327978,31.7174744 19.4860161,31.3731344 19.6170049,31.2428436 C19.785419,31.0753268 19.8228444,30.7030674 20.0567529,30.7030674 C20.3467995,30.7030674 20.3000178,31.0846333 20.4029376,31.289376 L20.4775638,31.4399177 C20.5754685,31.6370663 20.6817565,31.8068166 20.9736744,31.7919262 L21.1093988,31.791833 C21.3589453,31.794955 21.5976704,31.7919262 21.5818366,31.3824409 C21.5818366,31.3377697 21.6896216,31.2930986 21.7758497,31.2484275 L21.831,31.216 C21.647331,30.9264231 21.9093085,30.619309 21.7502507,30.3028885 C21.619262,30.0330005 21.5350549,29.7072735 21.5163422,29.3815465 C21.5069859,29.1861103 21.4602042,28.9348351 21.235652,28.7766249 C20.9175364,29.2512557 20.6181334,29.7072735 20.3000178,30.1632912 C20.1503164,30.0516134 20.0941783,29.9213226 20.0473966,29.7724189 C19.9631895,29.4839178 19.8696261,29.1954167 19.7667064,28.9162222 C19.6918556,28.7300925 19.6263612,28.6091081 19.4392344,28.8789962 Z M28.224839,31.0753268 C28.0470685,31.0846333 28.0657812,31.3731344 28.0096431,31.5313446 C27.9535051,31.7174744 28.0751375,31.7640068 28.2435517,31.7640068 C28.4119658,31.7640068 28.5429546,31.7174744 28.5616673,31.5127317 C28.5055292,31.3172955 28.4213221,31.0660204 28.224839,31.0753268 Z M20.0473966,31.1404722 C19.8415571,31.1404722 19.7386373,31.3917474 19.701212,31.5778771 C19.6731429,31.7081679 19.8322008,31.7640068 19.9631895,31.7640068 C20.1222473,31.7733133 20.2345234,31.7081679 20.2625925,31.615103 C20.2438798,31.3731344 20.2064544,31.1404722 20.0473966,31.1404722 Z M29.843486,30.4890182 C29.4505197,30.619309 29.5534395,31.0381009 29.4224507,31.3172955 C29.3569563,31.4568928 29.5160141,31.6430225 29.6376465,31.5592641 C29.8809114,31.4010538 30.2925904,31.6802484 30.4235792,31.307989 C30.4329355,31.1218593 29.9464058,30.4517923 29.843486,30.4890182 Z M18.4474622,30.4797118 C18.4006805,30.4610988 17.8205874,31.2056176 17.8486564,31.2521501 C17.9796452,31.4755057 18.2041974,31.5034252 18.4848876,31.4848122 C18.60652,31.4568928 18.9152793,31.5685706 18.8310722,31.2335371 C18.7562215,30.963649 18.7749342,30.6286155 18.4474622,30.4797118 Z M17.8486564,27.7901374 L17.755093,27.7901374 C17.45569,28.7952379 17.1562871,29.8003383 16.8662405,30.8054388 C16.8288152,30.9264231 16.7820335,31.1032463 16.9598039,31.1776982 C17.1188617,31.2428436 17.2498505,31.3731344 17.4744027,31.2428436 C17.9235071,30.9915685 18.4848876,30.0330005 18.3632552,29.5490632 C18.2135537,28.9627546 18.0264269,28.376446 17.8486564,27.7901374 Z M30.4235792,27.8832023 C30.3113031,27.8738958 30.2645214,27.9576541 30.2364524,28.050719 C30.0961073,28.6091081 29.9370494,29.1768038 29.7686353,29.8003383 C29.7686353,29.8096448 29.759279,29.8747902 29.7779916,29.9306291 C30.0493255,30.4145664 30.4329355,30.8240517 30.7978329,31.2335371 C30.8820399,31.326602 31.0972358,31.2056176 31.2469372,31.1404722 C31.3872824,31.0753268 31.377926,30.982262 31.3405007,30.8798906 C31.0317414,29.9492421 30.8726836,28.9720611 30.5171426,28.0600255 C30.4890736,27.9948801 30.5358553,27.8925087 30.4235792,27.8832023 Z M25.7360522,27.2038288 C25.9138227,28.0786385 26.0541678,28.9069157 26.3255017,29.7910318 C26.8401004,28.6556406 26.6061919,27.6133142 25.7360522,27.2038288 Z M19.0369117,26.1242765 C18.7281525,26.4313905 18.4287495,26.7385045 18.1106339,27.0456186 C17.9796452,27.1666029 17.9609325,27.3155066 17.9983578,27.4644104 C18.1574156,28.0972514 18.3258298,28.7300925 18.5129566,29.353627 C18.5410256,29.4373854 18.4942439,29.5955956 18.6439454,29.6142086 C18.8030032,29.6328216 18.8497849,29.4839178 18.905923,29.3908529 C19.0743371,29.0651259 19.2333949,28.7487054 19.4579471,28.4508979 C19.701212,28.1344774 19.7760627,28.2740747 19.8602698,28.5253498 C19.9631895,28.8324638 20.0473966,29.1395778 20.1503164,29.4373854 C20.1970981,29.5676762 20.2813051,29.7351929 20.4310066,29.5490632 C20.7865476,29.1023519 21.235652,28.6649471 21.1701576,28.0414125 C21.1046632,27.4644104 20.9736744,26.8967148 20.8707546,26.3104062 C20.7584785,26.3662451 20.6649151,26.3569386 20.6087771,26.4500035 C20.4497193,26.7105851 20.2906615,26.9711667 20.1035347,27.2038288 C19.8883388,27.4737169 19.7105683,27.380652 19.6263612,27.092151 C19.5421542,26.8036499 19.4766598,26.5058424 19.3924527,26.2080348 C19.3269583,25.9753727 19.2146822,25.9474532 19.0369117,26.1242765 Z M28.7394378,26.3848581 C28.692656,26.6547462 28.5990926,26.9153278 28.5055292,27.1759094 C28.4306785,27.380652 28.3277587,27.4551039 28.1687009,27.2224418 C28.0002868,26.9804732 27.81316,26.766424 27.6353895,26.5337618 C27.5698951,26.440697 27.5231134,26.3290192 27.3921246,26.3755516 C27.3079175,26.403471 27.2517795,26.4872294 27.2424231,26.5896008 C27.2143541,26.8594888 27.2424231,27.1759094 27.1207907,27.399265 C26.6342609,28.2740747 27.3546992,28.7766249 27.7008839,29.3908529 C27.7383092,29.4653048 27.81316,29.5583697 27.9254361,29.5304502 C28.0564248,29.5025308 28.0751375,29.353627 28.0751375,29.2791751 C28.0751375,28.9813676 28.2622643,28.7580119 28.3371151,28.4881238 C28.3651841,28.3857525 28.4026095,28.2647682 28.5242419,28.2554617 C28.6552307,28.2461552 28.6832997,28.376446 28.7394378,28.4602044 C29.0014153,28.8231573 29.2540365,29.1768038 29.5347268,29.5676762 C29.9089804,28.8510768 29.9183368,28.0786385 30.2364524,27.399265 C30.2738777,27.3155066 30.2364524,27.2131353 30.1616016,27.1479899 C29.8528424,26.8222629 29.5627958,26.4872294 29.2446802,26.1801154 C28.9733463,25.9288403 28.8049321,26.0219051 28.7394378,26.3848581 Z M27.4482626,24.2443664 C27.3734119,24.6166258 27.5418261,25.0354177 27.2517795,25.3797576 C26.9991583,25.1843214 26.8588131,24.9144333 26.66233,24.6910777 C26.7091117,24.6538517 26.746537,24.6166258 26.7933187,24.5793999 C26.9055948,24.7003842 27.0178709,24.8213685 27.130147,24.9516593 C27.2611358,24.7376101 27.3172739,24.5421739 27.1675724,24.3188183 C27.2517795,24.2257534 27.3453429,24.2350599 27.4482626,24.2443664 Z M20.8239729,24.3188183 C20.9736744,24.7096907 21.4227788,24.5235609 21.647331,24.7655296 C21.4695605,24.8865139 21.3292154,25.0354177 21.2262956,25.2215474 C21.1795139,25.3053057 21.0953068,25.3518382 20.9923871,25.3332252 C20.8613983,25.3146122 20.8988237,25.2029344 20.8894673,25.119176 C20.8426856,24.8585944 20.7678349,24.5980128 20.8239729,24.3188183 Z M24.002001,12.0218099 C27.5416458,12.0218099 30.4110949,14.875969 30.4110949,18.3967526 C30.4110949,21.9175362 27.5416458,24.7716953 24.002001,24.7716953 C20.4623562,24.7716953 17.5929072,21.9175362 17.5929072,18.3967526 C17.5929072,14.875969 20.4623562,12.0218099 24.002001,12.0218099 Z M30.6481314,13.4953754 C30.7697638,13.8304089 30.7042694,14.1561359 30.7323385,14.4911694 C30.7697638,15.0495585 30.6481314,15.6265607 30.8165455,16.1849498 C30.8539709,16.3152406 30.7791202,16.4176119 30.7042694,16.5199833 C30.3674412,15.7847709 30.0306129,15.058865 29.6844282,14.3236527 C29.6937846,13.6442792 29.6937846,13.6442792 29.0107717,13.6349727 C28.9452773,13.6256662 28.9078519,13.6163598 28.8610702,13.6163598 L28.7675068,13.4581495 C29.2727492,13.4116171 29.7686353,13.3836976 30.2645214,13.2627133 C30.4422919,13.2161809 30.5639243,13.2720198 30.6481314,13.4953754 Z M17.8393,13.1882614 C18.3445425,13.5884403 18.9246356,13.2720198 19.4485908,13.3836976 C19.4766598,13.3930041 19.5140851,13.3836976 19.5421542,13.3836976 C19.4111654,13.4116171 19.3269583,13.4953754 19.289533,13.6163598 C18.6345891,13.6442792 18.6345891,13.6442792 18.6626581,14.2026684 L17.6241042,15.9802071 C17.4182647,15.2449947 17.5305408,14.5004759 17.5679661,13.755957 C17.5773225,13.6349727 17.5866788,13.486069 17.6241042,13.3557782 C17.6521732,13.2441003 17.755093,13.1138095 17.8393,13.1882614 Z M25.3805112,6.69233443 C25.5729845,7.20286164 25.6004807,7.74073853 25.6103008,8.28252251 L25.614,8.551 L25.5730086,8.37009836 C25.5577952,8.30913157 25.5414028,8.2483416 25.524524,8.18762609 L25.4229516,7.82340747 C25.3266187,7.45844433 25.2626213,7.08879072 25.3805112,6.69233443 Z" id="Combined-Shape" fill="#208A4E" fill-rule="nonzero"></path>
        </g>
    </g>
</svg>