<svg>
  <path d="M24 1.5c12.426 0 22.5 10.074 22.5 22.5S36.426 46.5 24 46.5 1.5 36.426 1.5 24 11.574 1.5 24 1.5Zm.005 3.136c-10.697 0-19.369 8.672-19.369 19.37 0 10.696 8.672 19.368 19.37 19.368 10.696 0 19.368-8.672 19.368-19.369S34.702 4.636 24.005 4.636ZM12.212 24.267v3.26c.547-.643 1.309-1 2.213-1 1.855 0 3.045 1.451 3.045 3.688 0 2.212-1.237 3.687-3.045 3.687-.976 0-1.785-.404-2.308-1.094l-.095.975h-1.713v-9.516h1.903Zm12.347 2.38v4.091c0 1.023.476 1.594 1.285 1.594.904 0 1.641-.666 1.641-1.618v-4.068h1.903v7.137h-1.712l-.072-1c-.547.69-1.403 1.12-2.379 1.12-1.522 0-2.57-1.095-2.57-2.737v-4.52h1.904Zm9.897-.12c2.165 0 3.544 1.451 3.544 3.688 0 .142 0 .285-.071.618h-5.21c.19.952.856 1.499 1.88 1.499.856 0 1.498-.31 1.95-.809l1.166 1.142c-.714.761-1.76 1.237-3.14 1.237-2.475 0-3.735-1.57-3.735-3.687 0-2.189 1.427-3.688 3.616-3.688Zm-13.632-2.26v9.516h-1.903v-9.516h1.903Zm-6.994 3.83c-1.07 0-1.69.81-1.69 2.118 0 1.308.62 2.117 1.69 2.117 1.07 0 1.713-.809 1.713-2.117 0-1.309-.643-2.118-1.713-2.118Zm20.626-.047c-.88 0-1.5.523-1.713 1.403h3.354c-.19-.904-.761-1.403-1.641-1.403Zm-20.34-13.933v9.516h-1.714l-.095-1c-.547.714-1.332 1.119-2.307 1.119-1.856 0-3.045-1.451-3.045-3.688 0-2.212 1.237-3.687 3.045-3.687.927 0 1.665.357 2.212.951v-3.211h1.903Zm5.185 2.26c2.26 0 3.735 1.451 3.735 3.687 0 2.213-1.498 3.688-3.735 3.688-2.26 0-3.735-1.451-3.735-3.688 0-2.212 1.5-3.687 3.735-3.687Zm11.872 0c1.855 0 2.95.904 2.95 2.403v2.807c0 .262.142.404.404.404h.285v1.642a3.933 3.933 0 0 1-.69.047c-.88 0-1.355-.333-1.498-1.07-.5.713-1.428 1.142-2.474 1.142-1.404 0-2.332-.833-2.332-2.07 0-1.856 1.737-2.189 3.07-2.355.808-.095 1.45-.214 1.45-.643 0-.452-.475-.76-1.284-.76-.738 0-1.404.285-1.951.832L27.96 17.59c.856-.809 1.927-1.213 3.212-1.213Zm-4.782-2.26v9.516h-1.903v-9.516h1.903ZM40.403 16.4c.214 0 .428.023.642.071l-.023 1.76a10.124 10.124 0 0 0-1.142-.07c-1.047 0-1.737.499-1.737 1.593v3.878H36.24v-7.137h1.713l.095 1.07c.476-.713 1.332-1.165 2.355-1.165Zm-8.112 3.83c-.286.166-.69.238-1.214.333-.737.119-1.427.238-1.427.928 0 .475.333.76.928.76.951 0 1.713-.618 1.713-1.403Zm-21.697-2.284c-1.07 0-1.712.809-1.712 2.117 0 1.309.642 2.118 1.712 2.118 1.07 0 1.69-.81 1.69-2.118 0-1.308-.62-2.117-1.69-2.117Zm8.707 0c-1.094 0-1.784.785-1.784 2.117 0 1.333.69 2.118 1.784 2.118 1.095 0 1.785-.785 1.785-2.118 0-1.332-.69-2.117-1.785-2.117Zm2.142-3.902-1.452 1.88h-1.308l.714-1.88h2.046Z"/>
</svg>
