<svg>
  <path d="M9.721 12.772h.445c.05.184.056 1.73.008 1.948H9.132v-.946c-.319-.002-.61-.004-.9-.004H5.577c-.05-.158-.07-4.013-.025-4.36.147-.04 1.021-.05 1.319-.01.004.354.002.715.002 1.076v2.193c.165.057 1.264.065 1.512.013V9.394H9.72v3.378Zm7.76 8.944v.858h-2.323v.816c.07.006.143.014.216.016.3.007.602.002.902.015.28.01.555.07.813.18.56.24.784.703.753 1.344-.027.52-.317.856-.801 1.015-.21.07-.436.12-.654.124-.824.015-1.648.008-2.474.008-.028 0-.055-.008-.095-.012v-4.364h3.663Zm-2.33 3.439c.351.013.682.04 1.014-.03.02-.004.04-.014.058-.022.191-.078.281-.216.273-.424-.006-.182-.097-.296-.298-.354a.983.983 0 0 0-.245-.04c-.262-.004-.524-.002-.797-.002-.004.3-.004.568-.004.872ZM2.998 32.246H1.5l1.505-2.279c-.452-.694-.901-1.38-1.367-2.093.097-.004.158-.01.216-.01.35 0 .699.006 1.049-.004.15-.004.24.04.314.176.174.325.367.644.552.962.033.059.071.118.121.197.042-.056.076-.096.103-.14.195-.346.394-.692.58-1.042.062-.113.135-.155.263-.153.369.008.74.002 1.111.002.046 0 .092.006.176.01l-1.356 2.116L6.25 32.24c-.098.004-.16.01-.218.01-.363 0-.725-.006-1.09.005-.14.004-.229-.036-.302-.164-.197-.346-.413-.681-.62-1.019-.04-.065-.085-.128-.143-.22-.321.463-.579.937-.88 1.394ZM17.381 15.45c.027.485-.252.805-.738.866-.187.023-.378.023-.564.046a3.304 3.304 0 0 0-.514.095c-.164.046-.285.155-.354.362.408-.176.794-.146 1.178-.067.832.174 1.308.914 1.235 1.74a1.664 1.664 0 0 1-.229.732c-.211.35-.51.59-.905.699a2.57 2.57 0 0 1-1.305.018c-.557-.136-.926-.482-1.073-1.033a3.806 3.806 0 0 1 .071-2.248 2.13 2.13 0 0 1 .222-.449c.252-.402.627-.604 1.1-.627.14-.006.28.005.418-.012.164-.021.325-.063.489-.099.02-.004.04-.02.059-.02.302-.003.608-.003.91-.003Zm-.94 2.898c-.029-.153-.042-.3-.088-.438a.55.55 0 0 0-.53-.4c-.252-.005-.447.125-.545.38a1.284 1.284 0 0 0-.007.923.53.53 0 0 0 .527.374c.26.002.46-.124.547-.374.05-.15.065-.312.096-.465Zm7.152-4.86v1.482h-1.212v-4.338c.153-.048.879-.057 1.116-.01l.025.415c.075-.076.126-.122.17-.172.41-.468 1.436-.504 1.864.186.147.235.247.485.285.76.052.362.048.723-.055 1.08-.31 1.066-1.465 1.154-2.033.708-.036-.03-.076-.053-.16-.111Zm-.023-1.269c.036.139.057.308.126.455.099.21.291.294.522.266.212-.025.338-.163.394-.356a1.369 1.369 0 0 0-.002-.805.499.499 0 0 0-.954-.021c-.044.138-.054.285-.086.461ZM11.98 31.974v1.484h-1.22v-4.34c.147-.048.879-.055 1.107-.01l.03.412c.073-.073.12-.12.165-.163a1.214 1.214 0 0 1 1.885.201c.294.46.342.967.281 1.493-.017.145-.052.29-.102.426-.342.941-1.41 1.044-1.986.61-.04-.03-.084-.059-.162-.113Zm1.083-1.334c-.029-.13-.048-.298-.106-.45a.437.437 0 0 0-.42-.294c-.21-.007-.375.08-.463.264a1.128 1.128 0 0 0-.004.992.5.5 0 0 0 .522.274c.218-.031.348-.172.404-.375.034-.12.042-.247.067-.41Zm5.59 2.518h-.809v-.9H14.86v-3.167h1.187c.01.75-.002 1.5.006 2.247.164.053.711.059.942.009v-2.259h1.195c.004.072.013.145.013.219 0 .608 0 1.216.002 1.824 0 .075.006.149.01.239.153.008.29.014.44.023-.002.593-.002 1.174-.002 1.765Zm15.663-4.07h1.107l.006.495v1.013c.101.002.124-.075.164-.126.308-.398.618-.792.912-1.201a.416.416 0 0 1 .4-.193c.286.015.57.004.868.004v3.162h-1.115v-1.48l-.042-.017c-.04.042-.082.082-.117.126-.315.409-.634.817-.942 1.233a.337.337 0 0 1-.314.155c-.306-.01-.613-.004-.912-.004-.05-.166-.065-2.888-.015-3.167Zm-3.44-18.476h3.356v3.145c-.39.019-.776.013-1.187.002v-2.277a9.789 9.789 0 0 0-.96.006v.24c0 .383.008.769-.004 1.153-.006.178-.04.36-.092.532a.604.604 0 0 1-.485.42c-.396.073-.79.025-1.193-.055v-.868c.103.013.191.03.28.034.154.006.236-.055.267-.206.017-.073.017-.153.017-.228.002-.552 0-1.105 0-1.657v-.24Zm6.497 1.061v-1.03c.16-.056.879-.07 1.176-.029.046.151.059 2.885.01 3.139h-1.178v-1.172H36.26v1.172c-.416.023-.808.01-1.214.01V10.6c.394-.01.782-.006 1.195-.002.031.185.012.365.017.543.004.172 0 .346 0 .53.377.003.73.003 1.115.003ZM26.776 22.928h1.183c.04.353-.01.707.029 1.068h1.118v-1.064h1.197v3.146H29.11v-1.179h-1.135v1.179h-1.199v-3.15Zm-4.361-6.16h1.182v1.038c.17.05.837.063 1.13.02.005-.345.011-.695.015-1.056h1.166c.046.157.057 2.892.013 3.15h-1.183v-1.17h-1.124v1.176c-.409.014-.797.006-1.18.004-.046-.155-.061-2.81-.02-3.162ZM38.642 32.24v-3.145h1.199l.01 1.067h1.12v-1.07h1.201v3.152h-1.188c-.017-.384.002-.774-.01-1.189-.37-.014-.728-.006-1.116-.004-.03.4.002.79-.02 1.191-.4-.002-.788-.002-1.196-.002ZM14.915 10.612h1.182v1.07c.384.012.743.006 1.129.004V10.64c.171-.052.94-.06 1.184-.023.042.156.061 2.657.023 3.11-.14.05-.771.065-1.189.025v-1.17h-1.13v1.14c-.165.053-.832.068-1.182.032-.046-.143-.061-2.843-.017-3.143Zm15.553 18.48c.068-.004.122-.012.175-.012h1.76c.225 0 .447.021.657.111.3.128.449.357.445.67-.005.272-.151.456-.378.586-.065.038-.136.067-.233.113.099.032.168.05.235.074.334.117.506.358.51.713.004.402-.155.673-.495.788a1.98 1.98 0 0 1-.573.111c-.67.015-1.341.009-2.01.009-.028 0-.053-.009-.09-.015-.003-1.046-.003-2.084-.003-3.147Zm1.204 2.416c.185 0 .352.015.516-.004.149-.017.235-.136.23-.277-.004-.145-.09-.254-.24-.268-.164-.015-.328-.004-.506-.004v.553Zm0-1.22c.143 0 .273.012.4-.004.139-.017.22-.128.22-.262 0-.135-.081-.225-.236-.237-.128-.01-.26-.034-.384.025v.478Zm-1.692-16.52c-.373 0-.7-.002-1.03.002-.083 0-.13-.038-.157-.111-.03-.078-.054-.156-.086-.246-.038.023-.067.04-.092.061-.478.398-1.03.445-1.604.313-.495-.114-.76-.554-.665-1.053.049-.256.187-.46.43-.558a5.08 5.08 0 0 1 .658-.201c.298-.076.6-.136.898-.21.1-.025.197-.067.291-.098.046-.264-.05-.4-.3-.424-.054-.004-.11-.004-.167-.004-.267 0-.48.088-.579.373l-1.126-.12c.03-.417.296-.74.728-.857a2.94 2.94 0 0 1 .66-.098c.334-.009.671 0 1.002.033.659.07.975.453.998 1.172.01.342 0 .686.003 1.028.002.329-.034.66.138.998Zm-1.321-1.51-.872.275a.401.401 0 0 0-.11.06c-.102.078-.152.18-.13.31.022.129.1.208.223.252.352.124.805-.132.87-.5.019-.114.01-.233.019-.397Zm-10.456 5.395c.058-.409.272-.673.629-.818a1.71 1.71 0 0 1 .444-.113 5.123 5.123 0 0 1 1.399.019c.56.084.887.425.92 1.065.015.285.004.572.004.86 0 .21-.012.419.004.629.017.205.061.408.097.624h-1.092l-.135-.333c-.044.027-.09.052-.132.082-.499.373-1.057.423-1.631.254-.499-.147-.732-.644-.57-1.137.067-.201.19-.365.388-.442a5.81 5.81 0 0 1 .656-.206c.344-.09.692-.163 1.036-.253.08-.021.19-.024.197-.15a.318.318 0 0 0-.208-.308c-.331-.12-.683.01-.874.344-.365-.037-.742-.075-1.132-.117Zm2.189.786a67.03 67.03 0 0 0-.678.191c-.073.02-.144.05-.211.086-.147.078-.212.2-.193.338.019.142.11.24.274.274a.633.633 0 0 0 .227.006c.457-.067.681-.408.58-.895Zm12.47-.623c0-.301-.09-.4-.362-.413-.042-.002-.084 0-.126 0-.268-.002-.476.095-.578.372l-1.137-.122c.061-.409.273-.673.63-.816a1.71 1.71 0 0 1 .444-.113 5.21 5.21 0 0 1 1.4.019c.564.084.892.438.917 1.07.012.314 0 .628.004.943.004.388-.044.784.14 1.168h-1.13l-.136-.336c-.044.027-.088.05-.13.082-.497.373-1.055.423-1.631.254-.493-.145-.728-.627-.579-1.118.063-.212.19-.382.396-.463a5.95 5.95 0 0 1 .657-.206c.337-.088.677-.163 1.016-.247.074-.015.143-.05.206-.074Zm-.012.615c-.279.086-.562.163-.834.262-.201.073-.277.214-.243.386.031.161.17.262.375.268a.635.635 0 0 0 .126-.008c.453-.076.677-.418.576-.908Zm8.696-6.775c.018-.279-.076-.394-.328-.413a1.417 1.417 0 0 0-.188 0c-.288.015-.38.074-.554.37l-1.13-.12c.046-.277.151-.497.365-.665.222-.176.486-.243.759-.273.46-.05.92-.046 1.377.03.516.086.818.4.885.918a2.2 2.2 0 0 1 .017.292c.002.285-.002.572.002.857.004.367-.038.74.139 1.114-.37 0-.71.004-1.05-.005-.043 0-.1-.05-.12-.09-.04-.071-.06-.155-.093-.254-.046.03-.09.055-.132.086-.503.384-1.067.43-1.648.254-.455-.136-.702-.555-.564-1.105a.666.666 0 0 1 .409-.476c.214-.084.436-.142.658-.201.338-.088.678-.164 1.015-.247.061-.015.124-.049.18-.072Zm-.003.612c-.287.089-.56.17-.83.258a.448.448 0 0 0-.172.114.306.306 0 0 0 .086.492.572.572 0 0 0 .222.049c.493.012.776-.346.694-.913ZM22.652 30.965h-2.426a.58.58 0 0 0 .654.66.697.697 0 0 0 .409-.192c.04-.04.105-.086.155-.084.36.025.72.06 1.12.096-.204.34-.434.606-.782.728a3.495 3.495 0 0 1-.673.142 2.875 2.875 0 0 1-.919-.035c-.817-.145-1.182-.841-1.222-1.384a2.307 2.307 0 0 1 .017-.564c.12-.694.614-1.172 1.31-1.29.378-.063.75-.052 1.124.03.642.14 1.059.568 1.17 1.214.036.21.04.427.063.68Zm-1.273-.59c.017-.404-.23-.672-.591-.662-.348.01-.6.3-.566.663h1.157Zm-11.196.588H7.729c.005.273.097.47.32.59.244.131.502.11.702-.074.138-.128.27-.14.434-.122.283.034.568.059.874.088-.021.053-.03.099-.053.134-.236.359-.555.602-.987.686-.43.084-.862.096-1.292.017a1.487 1.487 0 0 1-1.216-1.254c-.054-.35-.046-.7.09-1.032.22-.534.636-.836 1.193-.947a2.78 2.78 0 0 1 1.124.016c.692.147 1.114.596 1.212 1.296.032.187.036.376.053.602Zm-2.447-.58c.396.01.792.022 1.189-.007-.042-.445-.25-.667-.6-.66-.34.006-.566.253-.59.666Zm36.336.584c.019.29.12.493.359.602.245.111.488.08.683-.1a.43.43 0 0 1 .375-.118c.271.031.541.052.814.08.034.004.065.01.099.016-.105.321-.462.646-.841.764a3.128 3.128 0 0 1-1.183.106 3.391 3.391 0 0 1-.352-.05c-.726-.134-1.092-.774-1.168-1.25a1.925 1.925 0 0 1 .027-.811c.174-.656.615-1.027 1.267-1.162.352-.07.71-.058 1.063.005.757.138 1.212.645 1.279 1.42.012.15.002.303.002.483-.801.02-1.6 0-2.424.015Zm.01-.602c.246.042 1.038.034 1.185-.01-.027-.413-.237-.642-.587-.642-.337.002-.57.25-.597.652ZM32.206 24.8c.014.289.11.494.348.606.243.115.492.09.683-.093.132-.126.256-.136.415-.117.235.03.472.046.709.069.059.006.12.017.203.027-.228.394-.517.673-.941.782a3.156 3.156 0 0 1-1.474.03c-.646-.14-.998-.577-1.147-1.198-.067-.283-.06-.57.013-.85.174-.665.62-1.04 1.28-1.173a2.793 2.793 0 0 1 1.043.006c.763.139 1.214.636 1.287 1.414.015.15.002.306.002.488-.26.002-.522.004-.784.004h-.818c-.262.005-.526.005-.82.005Zm1.188-.588c.013-.404-.24-.658-.582-.654-.349.004-.583.256-.596.654h1.178ZM14.25 12.481h-2.42c.012.287.11.49.348.601.243.113.49.09.683-.09.13-.122.252-.14.413-.115.22.033.445.041.667.06.073.007.147.02.245.034-.228.396-.52.673-.941.782a3.213 3.213 0 0 1-1.474.031c-.6-.123-1.044-.608-1.151-1.216a1.98 1.98 0 0 1 .019-.83c.155-.642.654-1.086 1.34-1.183a3.08 3.08 0 0 1 1 .021c.752.145 1.2.638 1.27 1.403.015.155.002.315.002.501Zm-2.413-.569c.405 0 .795.017 1.187-.01-.036-.458-.231-.667-.594-.663-.348.002-.572.243-.593.673Zm16.216 20.424c-.369-.012-.686-.052-.977-.203-.514-.268-.816-.686-.868-1.27-.09-.984.495-1.705 1.478-1.835.302-.04.598-.023.893.037.87.18 1.376.931 1.252 1.843-.105.774-.65 1.294-1.428 1.393-.13.016-.262.027-.35.035Zm-.663-1.65c.032.15.047.31.099.46.088.245.3.377.551.37a.551.551 0 0 0 .523-.383c.098-.292.106-.591.008-.885-.086-.258-.302-.417-.545-.415a.582.582 0 0 0-.552.41c-.044.135-.056.284-.084.443Zm-7.28-4.496c-.19-.038-.44-.063-.678-.14-.64-.208-1.031-.762-1.07-1.43-.058-1.037.682-1.678 1.508-1.756a2.614 2.614 0 0 1 1.036.086 1.527 1.527 0 0 1 1.099 1.363 1.77 1.77 0 0 1-.134.902c-.241.522-.663.813-1.22.916-.158.027-.32.034-.541.059Zm.708-1.69c-.033-.151-.05-.306-.1-.449a.548.548 0 0 0-.527-.377c-.253.008-.444.13-.536.367-.124.316-.126.643.002.96a.536.536 0 0 0 .54.354.54.54 0 0 0 .523-.381c.05-.151.067-.313.098-.474ZM29 18.343c.25.019.41.176.536.38.227.368.453.737.678 1.106.012.023.019.05.033.09h-1.34c-.138-.257-.278-.522-.421-.784-.044-.08-.086-.161-.14-.232-.09-.12-.21-.179-.388-.143v1.155h-1.193v-3.149h1.184v1.111c.139.027.212-.031.269-.113.05-.075.092-.155.136-.235.048-.092.096-.186.14-.28.158-.332.428-.483.785-.502.174-.008.348-.02.522-.027.081-.004.163 0 .26 0v.851l-.294.013a.526.526 0 0 0-.472.293c-.081.157-.188.302-.295.466Zm-2.934 5.588-1.094.146c-.019-.027-.04-.048-.05-.071-.107-.256-.32-.344-.575-.338-.256.007-.463.122-.57.361a1.208 1.208 0 0 0-.03.94.58.58 0 0 0 .545.391c.267.017.48-.073.621-.308.032-.054.059-.109.099-.182l1.109.121c-.01.063-.009.112-.025.154-.202.545-.594.87-1.158.979a3.096 3.096 0 0 1-1.31-.034c-.682-.16-1.12-.69-1.15-1.392a2.724 2.724 0 0 1 .026-.585c.115-.654.61-1.12 1.29-1.23a3.23 3.23 0 0 1 1.228.033c.5.11.91.474 1.044 1.015Zm-5.03-10.174h-1.212c-.004-.755 0-1.497-.004-2.273h-.876v-.853c.153-.042 2.709-.052 2.97-.008.01.268.01.543-.001.845h-.86c-.034.272-.015.522-.017.769-.004.252 0 .503 0 .753v.767Zm2.258 15.33h2.517v.861h-1.332c-.008.403-.002.776-.004 1.151v1.14h-1.178c-.047-.173-.05-2.937-.003-3.153Z"/>
</svg>
