<svg>
  <path d="M20.646 46.326c-5.149-.84-9.286-3.015-12.928-6.794-5.993-6.221-7.812-15.23-4.764-23.603.5-1.375 2.03-4.14 3.02-5.456 3.374-4.487 8.217-7.512 13.907-8.687 1.86-.384 6.347-.38 8.284.006 8.24 1.643 14.838 7.497 17.32 15.367.67 2.125.903 3.553.995 6.117.105 2.938-.187 5.045-1.077 7.762-2.53 7.727-9.04 13.507-17.056 15.139-1.743.354-5.948.436-7.703.15h.002Zm3.236-1.003c.149-.243-.492-1.404-1.024-1.856-.732-.623-1.364-.865-2.622-1.006l-1.067-.119.47-.442c1.041-.979 2.622-.934 3.243.092.17.28.308.673.308.874.001.374.422 1.15.626 1.15.233 0 .05-.928-.276-1.388-.773-1.095-.84-2.621-.178-4.03l.487-1.036.369.464c.517.651.76 1.662.684 2.856l-.064 1.022.42-.314c.627-.467 1.867-.417 2.763.113.82.484.89.719.217.719-1.144 0-2.54.569-3.115 1.269-.28.342-.826 1.393-.826 1.593 0 .27 1.748.19 3.564-.162 9.223-1.795 16.016-8.93 17.46-18.34.247-1.608.106-5.88-.246-7.463-1.352-6.08-5.083-11.239-10.39-14.365-1.555-.915-3.424-1.662-5.624-2.248-1.735-.463-2.014-.491-4.843-.502-3.302-.013-4.485.16-7.109 1.042-1.787.6-4.408 1.967-5.848 3.05-2.585 1.941-4.925 4.72-6.357 7.545-.993 1.962-1.494 3.365-1.96 5.49-.482 2.201-.524 6.502-.084 8.591 1.4 6.654 5.506 12.143 11.355 15.178 1.68.872 4.398 1.796 6.154 2.093 1.484.251 3.395.321 3.513.13Zm-3.669-4.934c-.966-.083-1.466-.206-1.788-.44-.36-.26-.56-.3-1.023-.197-.833.184-1.884-.047-2.23-.49-.358-.454-.363-.518-.058-.765.422-.343.266-.441-.687-.432-1.068.01-1.487-.167-1.968-.829l-.343-.472.574-.268c.438-.205.572-.363.57-.672-.003-.536-.135-.698-.775-.951-.633-.252-.929-.655-1.081-1.474-.11-.587-.103-.598.31-.496.506.124.513.082.1-.604-.513-.854-.58-1.83-.18-2.642.188-.38.342-.943.344-1.252.002-.31.14-.737.309-.951.28-.358.285-.426.059-.855-.27-.51-.209-1.861.087-1.958.117-.038.118-.165.002-.415-.24-.514.071-2.892.421-3.23.246-.237.291-.227.594.136.269.321.309.526.225 1.144-.13.964.088 1.384.72 1.384.458 0 .478.03.478.699 0 .58-.095.797-.558 1.278-.524.546-.534.574-.16.482.38-.094.396-.067.396.673 0 .562-.11.928-.405 1.355l-.405.584.365-.05c.475-.064.556.428.225 1.38-.21.605-.212.702-.012.702.171 0 .232.21.232.807 0 .728-.062.869-.627 1.422-.62.608-.613.898.02.796.474-.077.941.87.92 1.867-.025 1.232-.005 1.263.339.506.276-.61.34-.66.64-.503.553.29.96 1.11.96 1.931.001.412.068.75.15.75.08 0 .262.043.402.096.184.069.255 0 .255-.248 0-.285.221-.867.415-1.089.027-.03.272.099.544.289.654.457.972 1.096.972 1.953v.7l1.203.06c.661.033 1.291.147 1.4.254.225.22.237.22-1.93.035Zm-1.81-1.588c-.536-1.185-.731-1.375-.731-.71 0 .55.224 1.036.696 1.51.466.467.478.183.034-.8Zm-1.083.559c0-.118-1.625-.317-1.752-.214-.035.028.11.11.321.184.49.17 1.431.189 1.431.03Zm2.11-.08c0-.324-.746-1.57-.94-1.57-.101 0-.144.09-.094.2.564 1.253.735 1.559.872 1.559.09 0 .162-.085.162-.19Zm-2.465-.51c-.376-.365-1.584-.49-1.748-.18-.094.178.917.493 1.651.514l.452.013-.355-.346Zm-1.05-1.04c-.003-.572-.362-1.515-.542-1.418-.232.124-.21.9.038 1.372.255.485.504.508.503.046Zm.35-.299c0-.358-.084-.776-.19-.938-.18-.277-.186-.269-.129.16.21 1.564.32 1.83.32.778Zm-1.406.486c0-.168-1.99-.673-2.104-.534-.04.048.179.218.485.38.592.31 1.62.409 1.62.154Zm0-.682c0-.228-.895-.579-1.475-.579-.871 0-.841.198.07.459.984.281 1.405.317 1.405.12Zm-.494-2.608c-.154-.199-.204-.045-.209.645-.003.498.061.957.143 1.019.232.176.294-1.37.066-1.664Zm-.21.963c-.012-.393-.089-.903-.172-1.134-.142-.393-.167-.375-.393.287-.271.798-.124 1.562.302 1.562.2 0 .277-.208.263-.715Zm-1.623-1.453c-.703-.765-1.034-.865-.714-.216.17.346.988.976 1.268.977.081 0-.168-.342-.554-.761Zm.528-.507c-.254-.27-.54-.49-.635-.49-.096.002.08.26.39.575.68.69.9.614.245-.085Zm.655-.632c.32-.359.441-.647.441-1.054v-.561l-.366.586c-.497.798-.805 1.523-.647 1.523.072 0 .33-.222.572-.494Zm.085-1.941c-.125-.138-.503.299-.782.904-.476 1.033-.282 1.123.294.137.309-.528.528-.997.488-1.041Zm-1.443 1.008a27.605 27.605 0 0 1-.254-1.229c-.088-.473-.216-.86-.285-.86-.206 0-.14 1.095.108 1.799.245.693.593.927.431.29Zm.393-.552c0-.422-.437-1.536-.602-1.536-.097 0-.13.111-.074.247.055.136.157.526.225.867.113.567.451.883.451.422Zm1.091-1.231c.201-.364.341-.787.311-.94-.037-.188-.216.008-.561.614-.555.975-.607 1.149-.311 1.052.108-.036.36-.362.561-.726Zm-.347-.33c.262-.403.382-.707.267-.676-.271.072-1.011.96-1.011 1.213 0 .382.274.184.744-.538Zm-1.143-1.664c-.06-.424-.11-.51-.194-.337-.159.328-.144 1.026.033 1.567l.15.459.046-.56c.026-.307.01-.815-.035-1.129Zm.747.128c.02-.241-.049-.573-.153-.738-.178-.28-.191-.247-.195.5-.003.574.04.782.154.738.086-.034.174-.259.194-.5Zm1.058-1.395c-.005-.337-.064-.29-.392.318-.213.393-.348.774-.302.848.137.216.701-.731.694-1.166Zm-.51-.039c.132-.286.194-.521.138-.521-.14 0-.682.713-.682.896 0 .332.318.113.543-.375Zm-.734-1.038c-.124-.296-.29-.538-.37-.538-.079 0-.144.023-.144.051 0 .168.36 1.071.496 1.242.268.34.28-.133.018-.755Zm.541.112c0-.448-.494-1.147-.69-.975-.11.098.472 1.38.627 1.38.035 0 .063-.182.063-.405Zm1.055-1.45c0-.14-.026-.254-.057-.254-.077 0-.652 1.22-.646 1.373.008.236.703-.869.703-1.12Zm-.684.165c.242-.352.384-.693.315-.757-.152-.142-1.036.863-1.037 1.179-.002.395.271.235.722-.422Zm-1.003-1.156-.34-.67-.075.49c-.085.556.573 1.643.69 1.138.036-.159-.088-.59-.275-.958Zm.51-.37c-.243-.54-.313-.31-.111.365.116.388.192.487.226.294.027-.16-.024-.456-.115-.658Zm-.577-1.66c-.01-.128-.017.022-.016.334 0 .312.009.416.018.233a5.707 5.707 0 0 0-.002-.567Zm.352.02c-.009-.156-.016-.028-.016.286 0 .313.007.441.016.284a6.115 6.115 0 0 0 0-.57ZM26.461 40.46c0-.19.63-.312 1.613-.315l.906-.002v-.727c0-.4.105-.934.233-1.186.215-.422 1.137-1.234 1.25-1.101.189.225.406.813.406 1.103 0 .25.069.32.249.25.137-.053.314-.097.393-.097.08 0 .145-.234.146-.52.001-.858.3-1.683.735-2.03.484-.387.762-.24.92.485.14.648.39.43.282-.247-.188-1.178.408-2.45 1.052-2.243.537.173.487-.223-.097-.766-.51-.474-.59-.651-.655-1.445-.062-.76-.032-.906.182-.906.14 0 .255-.018.253-.04a12.744 12.744 0 0 0-.229-.679c-.351-.99-.312-1.358.144-1.358h.384l-.382-.68c-.24-.425-.383-.935-.385-1.361-.001-.664.01-.68.431-.579l.433.104-.355-.348c-.658-.643-.822-1.026-.72-1.67.086-.538.142-.6.476-.536.508.099.851-.674.643-1.45-.113-.424-.076-.632.196-1.078.185-.305.365-.554.399-.554.175 0 .542 1.015.542 1.5 0 .307.063.726.14.933.092.245.072.58-.057.96-.156.464-.157.601-.003.661.383.15.427 1.164.08 1.854-.178.355-.265.645-.192.645.208 0 .662 1.085.662 1.585 0 .25.106.712.236 1.028.341.83.291 1.602-.163 2.511l-.398.798.398-.101c.37-.094.399-.06.399.454 0 .68-.492 1.355-1.207 1.658-.334.142-.525.333-.525.527 0 .168-.04.411-.09.542-.062.165.08.293.473.425.65.217.646.209.296.81-.348.599-1.034.876-2.056.831-.89-.038-.964.02-.574.459.234.261.228.32-.074.75-.374.533-1.203.726-2.17.504-.469-.107-.657-.074-.964.172-.21.167-.605.34-.878.381-.961.15-2.778.208-2.778.09Zm3.926-1.182c.165-.234.297-.683.293-.997l-.009-.57-.523.947c-.288.521-.523 1.003-.523 1.071 0 .244.467-.033.762-.45Zm-.504-1.161.094-.406-.354.455c-.25.32-.353.633-.35 1.055l.006.6.255-.65c.14-.357.298-.831.35-1.054Zm2.825 1.114c.149-.124.102-.14-.217-.08a6.135 6.135 0 0 1-.933.08c-.29.002-.527.066-.527.144 0 .19 1.423.067 1.677-.144Zm-.536-.315c.397-.112.665-.28.61-.38-.15-.271-1.642-.051-1.942.286-.243.274-.23.295.18.295.244 0 .763-.09 1.152-.2Zm-.045-1.674c.053-.392.157-.862.233-1.045.129-.314.118-.317-.188-.054-.198.17-.36.618-.416 1.148-.11 1.06.23 1.014.371-.05Zm.835.544c.223-.347.243-1.481.027-1.481-.156 0-.551 1.103-.551 1.536 0 .32.304.287.524-.055Zm2.13-.001c.754-.34.64-.588-.136-.297-.303.114-.728.207-.945.207-.218 0-.443.083-.502.185-.163.285.876.223 1.582-.095Zm.095-.7c.641-.188.517-.429-.223-.429-.552 0-1.472.403-1.472.644 0 .137.875.025 1.695-.215Zm-.992-1.585c-.002-.81-.053-1.08-.172-.9-.295.45-.205 2.056.117 2.056.032 0 .057-.52.055-1.156Zm.582.538c.198-.42.15-1.027-.122-1.552-.24-.46-.255-.439-.384.543-.074.562-.098 1.08-.053 1.15.139.216.425.143.56-.141Zm1.108-1.411c.496-.301.908-.937.728-1.126-.059-.063-.432.228-.829.647-.746.788-.708.969.1.479Zm-.152-1.071c.188-.229.272-.415.187-.415-.203 0-1.022.785-1.022.98 0 .22.428-.07.835-.565Zm-.92-1.345c-.278-.456-.532-.828-.562-.828-.03 0-.056.174-.056.386 0 .385.887 1.529 1.05 1.353.042-.046-.152-.456-.431-.911Zm1.057.16c-.217-.516-1.15-1.46-1.313-1.327-.135.11 1.125 1.745 1.345 1.745.08 0 .065-.188-.032-.418Zm.542-.535c.25-.613.343-2.11.113-1.824-.07.088-.195.535-.277.995-.082.46-.192.967-.245 1.128-.18.547.167.294.409-.299Zm-.54-.763c.136-.7.096-.972-.079-.532-.156.395-.254 1.193-.146 1.193.053 0 .153-.297.224-.661Zm-.955-.87c-.388-.752-.722-1.131-.722-.82 0 .322.615 1.536.814 1.605.34.12.33.032-.092-.785Zm.616-.282c-.12-.401-.696-1-.963-1-.089 0 .085.336.387.746.582.79.758.868.576.254Zm.772-1.097c-.003-.903-.248-1.362-.262-.492a18.95 18.95 0 0 1-.064 1.205c-.05.525-.04.542.137.25.105-.171.19-.605.189-.963Zm-.703-.304c0-.808-.187-.882-.333-.133-.075.386.084.886.283.886.027 0 .05-.339.05-.753Zm-.704-.49c0-.104-.157-.462-.35-.794-.258-.447-.35-.526-.353-.303-.003.293.484 1.286.631 1.286.04 0 .073-.085.072-.19Zm.352-.664c0-.227-.493-.905-.659-.905-.086 0-.043.234.094.52.23.478.565.706.565.385Zm.425-.779c.293-.595.37-1.18.155-1.18-.069 0-.228.316-.353.703-.376 1.164-.268 1.424.198.477Zm-.327-.958c.356-.65.346-.696-.088-.397-.199.137-.362.395-.362.573 0 .455.133.403.45-.176Zm-1.018-.853c-.27-.424-.486-.551-.486-.285 0 .08.144.356.321.613.39.568.542.265.165-.328Zm.568.076c0-.26-.697-1.056-.703-.803-.004.184.52 1.006.642 1.006.034 0 .061-.092.061-.203Zm.887-.76c.182-.413.216-.66.104-.761-.165-.15-.376.206-.598 1.011-.165.597.203.411.494-.25Zm-.66-.723c.153-.267.166-.424.035-.424-.209 0-.613.636-.613.965 0 .24.281-.022.579-.541Zm.089-1.962c-.084-.293-.096-.293-.25 0a.747.747 0 0 0 0 .615c.154.293.166.293.25 0a1.331 1.331 0 0 0 0-.615Zm.392.178c-.01-.128-.017.022-.016.334 0 .312.008.416.017.233a5.707 5.707 0 0 0-.001-.567ZM17.36 36.275c-.357-.301-.462-.483-.346-.599.116-.116.28-.061.538.182.486.456.633.441 1.284-.13.3-.263.623-.478.718-.478.095 0 .418.215.718.478s.686.478.859.478c.173 0 .54-.215.815-.478.609-.581.82-.593 1.432-.08.26.22.632.399.826.399.194 0 .566-.18.827-.399.618-.52.931-.502 1.545.084.411.393.563.452.813.318.169-.09.354-.24.411-.332.273-.441.882-.47 1.622-.076.759.403 1.043.376 1.475-.144.252-.304.486-.321.486-.037 0 .36-.716.905-1.188.905-.247 0-.688-.148-.98-.328-.56-.345-.9-.284-1.334.24-.326.392-1.126.305-1.63-.176l-.442-.424-.611.424c-.784.542-1.409.544-1.973.004l-.437-.42-.68.5c-.854.628-1.255.627-1.973-.002l-.571-.502-.432.41c-.673.64-1.167.691-1.772.183Zm1.103-2.037c-.242-.165-.44-.4-.44-.523 0-.293.188-.282.57.035.472.393 1.086.324 1.508-.17.448-.525 1.005-.565 1.426-.101.338.371.866.716 1.098.716.082 0 .42-.237.752-.527.734-.642 1.09-.66 1.772-.088.288.242.68.44.87.44.192 0 .562-.198.823-.44.26-.242.636-.44.834-.44.197 0 .528.198.735.44.38.445 1.017.585 1.198.264.127-.226.72-.23.72-.005 0 .226-.858.708-1.26.708-.172 0-.528-.198-.79-.44-.583-.54-.782-.547-1.265-.048-.252.26-.579.392-.974.392-.358 0-.793-.155-1.094-.392-.64-.5-.868-.492-1.33.048-.275.323-.54.44-.997.44-.417 0-.794-.145-1.146-.44-.288-.241-.578-.439-.645-.439-.067 0-.335.198-.596.44-.552.51-1.148.553-1.77.13Zm-1.114-1.84c0-.022.17-.538.376-1.148.366-1.08.39-1.11.952-1.157.719-.062.813-.352.694-2.145-.155-2.335-1.169-4.875-3.09-7.742l-1.035-1.544-.897-.001-.896-.002.636-.37c.618-.358 2.446-1.378 7.272-4.055 1.29-.716 2.344-1.323 2.344-1.35 0-.028-.393-.271-.874-.541-.48-.27-.874-.527-.874-.57 0-.043 1.005-.078 2.235-.078 1.477 0 2.2.055 2.134.162-.055.088-.453.339-.884.557-.43.217-.783.421-.783.454 0 .032 2.304 1.331 5.12 2.887l5.12 2.828-.821.048c-.966.056-1.146.228-2.47 2.37-1.717 2.777-2.45 4.813-2.607 7.243-.102 1.575-.026 1.747.81 1.844.423.049.49.144.755 1.083.16.566.291 1.082.291 1.148 0 .065-3.039.119-6.754.119-3.716 0-6.755-.018-6.754-.04Zm12.867-.883c-.25-1.277.217-1.185-6.06-1.185H18.5l-.196.658c-.108.362-.234.758-.28.878-.065.174 1.219.22 6.11.22h6.193l-.112-.57Zm-1.76-1.645c.095-.061.14-.377.1-.705l-.074-.595h-8.7v.621c0 .348.088.657.201.703.309.124 8.276.102 8.473-.024Zm.052-2.283c.06-.348.08-.66.045-.695-.035-.034-2.026-.069-4.424-.077-3.86-.013-4.36.014-4.348.229l.04.709.027.466h8.551l.109-.632Zm.243-1.988c.382-.934.584-.896-4.674-.896-2.685 0-4.924.045-4.976.099-.108.113.194 1.122.373 1.249.066.046 2.136.07 4.601.053l4.482-.03.194-.475Zm.857-2.001.368-.879c.03-.069-2.57-.125-5.774-.125h-5.827l.334.877.335.876 5.124.002 5.125.003.315-.754Zm1.024-2.1.4-.662h-6.856c-3.77 0-6.856.033-6.856.073 0 .04.15.357.332.703l.332.63 6.125-.04 6.125-.041.398-.663Zm1.315-1.751c.27-.406.49-.802.49-.88 0-.077-3.717-.14-8.261-.14-4.544 0-8.262.046-8.262.103 0 .056.227.452.504.879l.503.775h14.536l.49-.737ZM16.78 17.813c.048 0 .047.111-.004.247-.139.375.08.297.693-.247l.555-.492h-.496c-.532-.001-1.965.74-1.965 1.016 0 .092.255.011.565-.178.31-.19.604-.346.652-.346Zm16.362.441c0-.174-.343-.292-.568-.196-.104.044-.16.134-.125.2.084.158.693.155.693-.004Zm-15.1-.149c.102-.143.285-.261.407-.261.18 0 .188.049.038.261-.34.484.088.268.518-.261l.426-.524h-.518c-.383 0-.63.137-.944.524-.234.288-.355.523-.268.523.087 0 .24-.118.342-.262Zm1.49.001c.396-.339.614-.33.496.019-.066.194.045.153.365-.133.578-.518.59-.678.047-.672-.243.003-.667.232-.976.527-.551.525-.494.742.069.26Zm1.707.005c.263-.346.544-.339.42.011-.072.208.02.185.38-.096.704-.547.732-.706.125-.706-.393 0-.67.146-1.005.528-.255.29-.386.527-.291.527.094 0 .26-.119.371-.264Zm1.733-.006c.1-.143.283-.261.404-.261.18 0 .187.049.038.261-.34.484.087.268.515-.261l.424-.524h-.468c-.311 0-.626.173-.948.519-.264.285-.406.52-.315.523.092.003.25-.113.35-.257Zm1.88-.248c.06 0 .073.121.028.269-.117.384.064.322.513-.176.49-.544.489-.63-.009-.63-.27 0-.535.188-.816.58-.23.318-.284.438-.122.268.162-.171.345-.31.406-.31Zm1.625-.017c.072 0 .05.118-.05.263-.327.475.116.29.615-.258l.475-.52-.518-.005c-.397-.004-.617.124-.944.549-.379.49-.386.52-.068.262.198-.16.418-.29.49-.29Zm1.183.277c.118-.146.29-.266.384-.266.093 0 .125.12.07.266-.158.423.13.309.665-.266l.495-.53h-.512c-.482 0-1.968 1.037-1.51 1.054.106.004.29-.112.408-.258Zm2.097-.264c.083 0 .057.12-.059.266-.328.417.035.301.548-.175.582-.538.58-.624-.01-.624-.316 0-.64.188-.97.562-.439.497-.448.527-.078.266.23-.163.485-.295.569-.295Zm1.35-.054c.269-.29.56-.289.436.004-.079.185-.036.198.231.07.425-.206.417-.401-.024-.527-.254-.073-.47.007-.783.288-.238.214-.35.39-.25.39.101 0 .277-.101.39-.225Zm-12.24-1.533c.171-.195.257-.353.189-.352-.16.003-.345.152-.571.459-.28.38.028.295.382-.107Zm.935.135c.244-.295.484-.274.367.032-.068.178.015.146.286-.108l.382-.357-.395-.048c-.275-.033-.507.066-.766.325-.205.205-.3.372-.213.372.088 0 .24-.097.339-.216Zm1.496.004c.107-.115.298-.21.427-.21.189 0 .196.04.04.21-.327.355.077.234.465-.14l.365-.35h-.485c-.446 0-1.608.686-1.18.697.096.002.262-.09.368-.207Zm2.05-.206c.073 0 .088.096.035.213-.149.324.124.256.57-.142l.4-.356h-.46c-.504 0-1.298.372-1.298.608 0 .08.14.042.31-.088.171-.13.37-.235.443-.235Zm1.714-.004c.166 0 .167.042.008.214-.311.334.028.25.56-.138l.48-.352-.572-.005c-.428-.004-.67.094-.96.387-.282.284-.298.323-.056.143.183-.137.426-.25.54-.25Zm1.456.211c.11-.116.273-.21.36-.21.088 0 .118.094.067.21-.142.32.118.253.543-.14l.38-.352h-.566c-.395 0-.68.106-.946.352-.209.193-.303.351-.21.351.094 0 .261-.095.372-.21Zm1.84-.211c.176 0 .177.042.008.21-.356.355.085.234.51-.14l.398-.35-.496.004c-.467.004-1.261.405-1.261.636 0 .058.14 0 .31-.128.171-.128.41-.232.53-.232Zm1.258.191c.032-.095-.016-.142-.11-.11a.396.396 0 0 0-.222.22c-.031.096.016.143.11.111a.394.394 0 0 0 .222-.22Zm-8.16-1.346.436-.532-.465.27c-.255.149-.503.388-.551.532-.14.421.11.304.58-.27Zm1.13.051c.064.063.005.183-.13.268-.135.084-.176.154-.09.156.197.003.932-.668.932-.851 0-.337-.818-.09-1.266.381l-.492.518.466-.293c.256-.16.517-.241.58-.179Zm1.052.201c.103-.148.287-.27.41-.27.183 0 .19.05.039.27-.315.457.052.3.523-.225l.446-.495-.416-.057c-.294-.041-.567.103-.938.495-.288.304-.462.553-.387.553.075 0 .22-.122.323-.27Zm1.926-.214c.06 0 .063.132.008.294-.11.324.105.233.611-.258.41-.397.367-.606-.123-.606-.239 0-.654.254-.968.592-.496.536-.505.563-.092.285.25-.169.505-.307.564-.307Zm1.42.133c.169-.193.231-.352.137-.352-.093 0-.308.159-.478.352-.169.193-.231.351-.137.351.093 0 .308-.158.478-.351Zm.477.207c.146-.237-.02-.287-.207-.063-.108.13-.118.207-.028.207.08 0 .185-.065.235-.144Zm-2.757-1.82c0-.08-.12-.145-.268-.145-.148 0-.268.036-.268.08 0 .043-.052.223-.116.399-.102.283-.071.29.269.065.21-.14.383-.32.383-.4Zm-.813.382c.09-.096.133-.175.097-.175-.036 0-.139.079-.228.175-.09.097-.134.176-.098.176.036 0 .139-.079.229-.176Zm.511-1.913a3.342 3.342 0 0 0-.808.009c-.402.064-.402.064.045.234.32.12.552.118.808-.01.35-.174.35-.18-.045-.233Zm14.407 5.572c-.36-.144-.215-.534.199-.534.333 0 .397-.076.397-.472 0-.26-.062-.511-.138-.559-.075-.047-.486.087-.913.297-.753.372-.78.374-.92.075-.218-.466.086-2.46.383-2.512.13-.022.56.247.953.599 1.096.982 1.27.802.481-.496-.546-.898-.35-1.294.265-.531.513.638 1.815 3.275 1.705 3.454-.185.304-.41.12-.705-.578-.401-.947-.63-.919-.59.073.02.437-.037.862-.124.945-.218.207-.752.336-.993.24Zm-.05-1.922c.03-.03-.026-.156-.125-.282-.28-.356-.57-.276-.57.157 0 .33.045.37.319.281.176-.057.345-.127.375-.156ZM8.87 16.96c-.266-.058-.29-.17-.196-.895.179-1.37.179-1.435.003-1.497-.092-.032-.387.375-.655.905-.465.918-.897 1.262-.897.712 0-.434 1.167-2.421 2.093-3.563.549-.678.963-.779.772-.189-.077.239.134.47.977 1.07 1.015.721 1.345 1.17.86 1.17-.118 0-.669-.33-1.224-.736-1.021-.744-1.214-.773-1.509-.233-.14.259-.007.393.983.993.63.381 1.146.774 1.146.872 0 .4-1.86 1.5-2.353 1.391Zm.787-.88c.363-.226.373-.46.034-.752-.254-.219-.294-.173-.407.47-.098.558-.086.567.373.282Zm26.417-1.675c-.066-.055-.12-.54-.12-1.076 0-.846.041-.968.317-.924.258.042.327.242.371 1.076.042.792-.003 1.026-.197 1.026-.137 0-.304-.046-.37-.102Zm.918-1.177c-.51-.333-.425-1.09.155-1.392.378-.197.466-.193.84.037.542.33.574 1.027.064 1.361-.447.292-.604.291-1.059-.006Zm1.07-.406c0-.156-.103-.333-.23-.394-.275-.133-.576.193-.438.475.15.305.669.24.669-.081Zm-3.461.275c-.353-.134-.229-.36.721-1.312l.925-.927-.34-.326c-.547-.522-1.103-.292-1.324.547-.208.789-.504 1.079-1.03 1.007-.437-.059-.447-.295-.022-.517.404-.211.536-.406.539-.795 0-.181.16-.52.352-.754.288-.351.31-.45.122-.563-.346-.21-.34-.214-1.122.946-.77 1.14-.783 1.152-1.085.968-.595-.362-1.281-2.49-.782-2.425 1.692.222 2.062.228 1.996.032-.038-.115-.449-.405-.913-.645-.463-.241-.843-.538-.843-.661 0-.36.24-.274 1.872.669 1.896 1.094 3.903 2.81 3.675 3.14-.133.192-.193.193-.43.005-.247-.196-.373-.119-1.192.735-.504.524-1.008.919-1.12.876Zm-1.558-3.384c-.119-.069-.404-.126-.633-.128-.41-.002-.411.007-.116.526l.3.529.333-.401c.243-.294.274-.435.116-.526Zm-21.299 2.953c-.056-.077-.065-.19-.02-.25.097-.133 1.907-.448 2.02-.352.205.172-.138.434-.665.509-.32.045-.73.116-.908.157-.178.041-.37.013-.427-.064Zm-.52-.873c-.324-.338-.306-.92.04-1.245.772-.73 1.899.216 1.332 1.118-.28.446-1.002.513-1.372.127Zm.817-.767c.06-.31-.372-.518-.6-.29-.229.228-.02.66.29.601a.425.425 0 0 0 .31-.31Zm2.155.21c-.83-.33-.815-1.434.024-1.64.257-.062.402-.206.402-.398 0-.186.179-.374.468-.492.323-.133.428-.255.339-.395-.154-.242-.603-.042-1.84.821-.828.579-1.193.69-1.19.361.001-.233 2.092-1.607 3.415-2.244 1.008-.485 2.858-1.13 4.053-1.415 2.086-.496 5.044-.626 5.776-.253.32.163.536.185.745.076.2-.104.436-.094.74.03.246.102.59.194.766.207l.675.049c.433.032.486.49.056.49-.248 0-.35.218-.572 1.201-.295 1.311-.382 1.48-.675 1.303-.144-.087-.154-.257-.039-.651.259-.879.194-1.617-.17-1.938-.25-.22-.39-.25-.596-.124-.36.22-.437.806-.12.924.283.106.331.457.083.607-.092.055-.33-.005-.53-.133-.235-.15-.443-.183-.589-.093-.359.222-.623.167-.623-.129 0-.15.161-.342.358-.426a.553.553 0 0 0 .358-.54v-.387l-1.776-.044c-1.922-.047-1.99-.016-1.83.85l.064.344.564-.374c.675-.447 1.247-.298 1.087.282-.05.185-.093.597-.094.917-.001.402-.073.58-.232.58-.161 0-.244-.219-.278-.735l-.048-.736-.537.511c-.792.754-1.043.625-1.1-.57l-.048-.984-.49.096a5.25 5.25 0 0 1-.782.095c-.388 0-.834.848-.706 1.344.054.21.31.498.571.641.464.256.569.642.206.76-.101.033-.44-.16-.755-.43-.493-.421-.571-.582-.571-1.17 0-.492-.064-.68-.231-.68-.312 0-1.04.331-1.04.473 0 .063.222.624.494 1.247.384.88.446 1.15.278 1.204-.302.098-.317.08-.87-1.101-.27-.58-.53-1.092-.575-1.136-.11-.107-.917.259-.917.417 0 .068.257.58.572 1.139.524.93.615 1.474.247 1.474-.08 0-.232-.204-.338-.453-.42-.987-1.196-1.128-1.196-.217 0 .364-.067.425-.463.431-.647.01-.72.373-.1.494.343.067.483.175.449.345-.059.297-.394.365-.87.176Zm10.722 32.781c.126-.204.174-.626.106-.936-.123-.559-.127-.56-.395-.202-.302.403-.384 1.51-.113 1.51.096 0 .276-.167.402-.372Zm.792-1.527c.09-.491.06-.607-.145-.547-.34.101-.624.837-.465 1.207.18.416.472.1.61-.66Zm-2.928-.138c-.122-.233-.293-.423-.38-.423-.277 0-.173.611.153.896.399.349.523.091.227-.473Zm3.298-.34c.051-.256.034-.435-.04-.435-.155 0-.282.38-.282.836 0 .436.207.178.322-.4Zm-3.88-.196c-.036-.132-.12-.239-.188-.239-.177 0-.153.961.026 1.047.164.078.266-.43.162-.808Zm1.476.071-.38-.31.126.365c.069.2.213.457.32.57.162.172.203.163.253-.055.033-.143-.11-.4-.319-.57Zm3.365.136c.27-.332.065-.576-.31-.37-.31.168-.373.627-.087.627.103 0 .282-.116.397-.257Zm-5.502.128c0-.288-.228-.574-.458-.574-.144 0-.245.145-.245.352 0 .257.094.351.352.351.193 0 .351-.058.351-.129Zm3.164-.114c0-.089-.079-.132-.176-.095-.096.037-.175.14-.175.23 0 .089.079.132.175.095.097-.037.176-.14.176-.23Zm3.516.086c0-.15-.453-.546-.624-.546-.044 0-.08.158-.08.352 0 .25.102.351.352.351.194 0 .352-.07.352-.157Zm-7.404-.056c-.069-.162-.165-.178-.395-.067-.41.197-.383.28.091.28.283 0 .37-.06.304-.213Zm3.107-.77c-.2-.332-.474-.505-.61-.385-.113.1.427.665.636.665.079 0 .067-.126-.026-.28Zm.674-.239c-.118-.09-.127-.162-.03-.235.075-.059.137-.25.137-.425 0-.26-.033-.285-.179-.135-.104.107-.176.445-.172.807.006.575.022.603.21.37.167-.207.173-.275.034-.382Zm-.874-.745c-.258-.18-.363-.188-.417-.03-.04.115.081.317.27.449.258.18.363.188.417.03.04-.115-.081-.317-.27-.45Zm.278-.305c0-.092-.08-.273-.176-.404-.142-.192-.176-.184-.176.04 0 .153.036.335.079.404.11.181.273.157.273-.04Zm.633-.364c.08-.11.093-.28.032-.439a5.013 5.013 0 0 1-.17-.56c-.038-.166-.096-.266-.129-.221-.032.044-.01.255.05.47.067.241.066.491-.003.66-.125.304.019.364.22.09ZM24 39.059c0-.31-.06-.365-.225-.209-.124.118-.164.307-.089.422.209.32.314.25.314-.213Z"/>
</svg>
