<svg>
  <path d="M40.953 20.736c.002-.052.012-.087.006-.118-.063-.296-.124-.594-.197-.888-.046-.18-.113-.239-.3-.303-.012.069-.029.135-.033.2-.046.72-.033 1.434.237 2.122.058.147.125.292.186.439.027.068.048.138.084.236-.404.107-.775.107-1.146-.031-.36-.135-.626-.402-.931-.686 0 .118-.007.19.002.261.052.466-.021.913-.252 1.321-.268.48-.307.98-.194 1.504.027.128.041.259.073.385.03.122.082.162.197.116.125-.05.268-.11.352-.207.138-.162.25-.348.343-.539.16-.325.222-.68.289-1.033.01-.06.023-.12.042-.207.046.046.082.073.107.106.272.337.49.704.611 1.122.218.746.027 1.383-.557 1.89-.57.496-1.233.647-1.97.448a1.695 1.695 0 0 1-.98-.7 2.464 2.464 0 0 1-.43-1.218c-.023-.302-.008-.604-.012-.909v-.292c-.034.075-.057.11-.067.15-.176.617-.35 1.234-.53 1.85-.03.1.012.158.06.224.308.427.618.854.924 1.282a13.059 13.059 0 0 1 1.39 2.475c.235.549.344 1.12.313 1.717a2.03 2.03 0 0 1-.155.683c-.155.365-.417.628-.79.752-.333.112-.68.078-1-.058-.217-.091-.411-.232-.614-.354-.053-.031-.101-.07-.185-.13.023.088.03.14.048.186.151.347.315.693.455 1.045.146.365.3.73.402 1.108.266.967-.218 1.717-1.026 2.18-.358.206-.765.183-1.133.013-.532-.246-.848-.679-.968-1.25-.012-.058-.008-.12-.01-.191.423-.104.856-.155 1.219-.433-.032-.079-.05-.145-.084-.203-.14-.246-.28-.493-.43-.733a1.14 1.14 0 0 0-.435-.408c-.075-.041-.163-.062-.274-.105-.02.118-.04.203-.044.287-.015.406-.021.814-.038 1.222-.025.648-.038 1.297-.086 1.945a9.118 9.118 0 0 1-.624 2.692c-.084.211-.149.43-.197.652-.088.41.35.903.727.95.216.028.402-.024.538-.2.059-.077.111-.16.174-.232.057-.066.12-.124.199-.207.054.074.1.118.121.172.157.42.235.853.124 1.298-.113.458-.4.772-.842.932a2.31 2.31 0 0 1-1.755-.044c-.081-.035-.163-.074-.247-.113-.03.022-.054.037-.069.058-.348.457-.71.905-1.037 1.377-.38.548-.613 1.16-.638 1.834-.002.054-.021.106-.038.197-.098-.068-.18-.114-.247-.176a2.94 2.94 0 0 1-.612-.81c-.069-.134-.136-.27-.217-.43-.08.041-.155.07-.22.114-.241.163-.478.337-.719.5-.588.396-1.212.709-1.92.835a5.57 5.57 0 0 1-1.734.044 66.742 66.742 0 0 0 1.826-1.626c-.245-.04-.442.002-.634.05-.275.068-.52.199-.754.35a.815.815 0 0 0-.381.636c-.006.074-.021.147-.036.256-.071-.076-.12-.124-.163-.176-.312-.362-.626-.724-.932-1.091-.078-.093-.161-.139-.285-.133-.2.01-.404.003-.607.009-.073.002-.145.016-.218.027l-.017.047c.07.06.134.127.21.178.326.226.657.444.932.736.104.111.207.223.305.34.044.049.076.109.122.175-.155.095-.312.093-.46.106-.77.068-1.509-.052-2.183-.43-.48-.27-.94-.57-1.407-.856l-.34-.207c-.037.095-.07.167-.098.242a2.31 2.31 0 0 1-.708 1.009c-.109.09-.238.159-.387.256l-.036-.323c-.019-.172-.029-.344-.054-.513a1.934 1.934 0 0 0-.396-.924 8.203 8.203 0 0 1-.741-1.102.678.678 0 0 0-.67-.376c-.312.018-.622.068-.934.105-.229.027-.457.062-.685.079-.557.037-.984-.27-1.137-.806-.088-.31-.076-.627-.074-.946a1.17 1.17 0 0 1 .162-.592c.033-.056.077-.106.134-.185.069.077.12.129.167.185.155.182.337.329.57.406.444.142.802-.098.798-.558a2.384 2.384 0 0 0-.103-.63c-.107-.384-.23-.765-.36-1.144-.293-.858-.454-1.736-.417-2.643.002-.068 0-.134 0-.244-.06.058-.096.085-.123.118a3.184 3.184 0 0 1-.654.609c-.261.188-.544.29-.875.288-.314-.002-.607-.038-.884-.201-.756-.452-.986-1.005-.777-1.796.08-.296.214-.584.35-.861.188-.383.408-.754.607-1.133.072-.136.122-.286.183-.43-.013-.009-.026-.02-.038-.027-.04.03-.084.058-.122.09-.098.09-.186.187-.29.268-.9.708-1.959.188-2.264-.634-.143-.385-.158-.783-.114-1.184.078-.698.279-1.365.551-2.011a17.478 17.478 0 0 1 1.86-3.326c.104-.147.22-.286.33-.427l.049-.068.195.133c-.007-.085-.003-.137-.015-.185-.107-.408-.22-.811-.325-1.22a38.79 38.79 0 0 1-.739-3.692c-.023-.155-.054-.31-.084-.464-.027.002-.048-.002-.052.005-.218.306-.406.627-.505.99-.098.358-.027.712.061 1.062.034.132.078.265.124.395.102.294.173.595.199.907.012.158.054.313.094.466.287 1.137.023 2.135-.79 2.978-.354.369-.795.58-1.327.551a1.417 1.417 0 0 1-.35-.056 2.735 2.735 0 0 1-1.206-.756c-.1-.11-.18-.248-.235-.387a2.03 2.03 0 0 1-.107-1.22c.099-.424.34-.735.81-.853.045.08.085.157.126.232.132.242.252.495.405.723.098.145.245.26.38.377a.62.62 0 0 0 .225.105c.195.058.249.015.264-.184.02-.302.042-.605.069-.907a.303.303 0 0 0-.076-.247 3.714 3.714 0 0 1-.245-.308c-.305-.423-.435-.89-.343-1.408.012-.075.019-.15.033-.272-.102.069-.173.114-.245.164-.324.22-.66.412-1.05.495a1.19 1.19 0 0 1-.792-.11c-.126-.06-.139-.095-.095-.232.042-.13.092-.259.153-.426-.09.025-.144.041-.199.054-.23.053-.456.14-.689.157-.735.052-1.28-.276-1.641-.897-.27-.462-.317-.967-.218-1.485a5.78 5.78 0 0 1 .406-1.28 3.64 3.64 0 0 1 .287-.503c.054-.082.075-.157.031-.248-.014-.031-.025-.064-.037-.097-.176-.441-.065-.812.282-1.12.335-.299.735-.47 1.158-.601.092-.03.189-.052.283-.075.201-.047.373-.143.538-.263.658-.478 1.326-.942 1.985-1.418.507-.367 1.01-.74 1.51-1.114.139-.104.283-.21.394-.34.098-.116.212-.145.348-.145.53-.004 1.061-.015 1.591-.015l10.45-.006h.264c.033-.273.016-.32-.212-.397-.528-.178-1.06-.342-1.591-.51-.459-.143-.922-.277-1.378-.426a.341.341 0 0 0-.312.037 9.52 9.52 0 0 1-1.76.814c-.69.23-1.405.28-2.13.209l-.592-.064c.099-.19.178-.346.273-.532-.392.035-.746.126-1.123.084.165-.702.565-1.223 1.164-1.61-.194-.073-.257-.044-.41.121-.314.342-.624.69-.96 1.009-.372.354-.828.58-1.333.704-.499.122-1.003.124-1.554.11.182-.298.421-.514.572-.797-.03.02-.065.035-.09.06-.704.683-1.527 1.2-2.373 1.687-.318.185-.628.386-.938.584-.3.19-.622.323-.978.332-.431.01-.865-.002-1.296-.009-.055 0-.107-.018-.208-.037.09-.074.149-.126.21-.176.182-.149.377-.288.542-.451.335-.332.538-.736.62-1.197.03-.17.006-.21-.16-.203-.303.012-.594.064-.822.296-.205.207-.423.402-.63.605-.817.801-1.793 1.275-2.943 1.391-.019.002-.04 0-.077 0 .014-.03.02-.058.038-.074.374-.388.519-.872.6-1.384.03-.184.074-.364.112-.546.08-.381.276-.69.575-.936.193-.16.384-.32.574-.48-.01-.028-.01-.055-.025-.065-.34-.242-.672-.493-1.022-.717-.243-.155-.304-.132-.521.048-.042.035-.082.077-.126.11-.442.344-.496.803-.398 1.309.023.113.05.225.082.366-.078-.008-.134-.002-.178-.02-.827-.36-1.09-.955-.989-1.699a.79.79 0 0 1 .227-.457c.28-.278.56-.557.862-.812.279-.236.622-.34.987-.352.255-.008.513.006.785.01 0-.004.015-.03.008-.052-.232-.691.059-1.236.499-1.74.048-.055.094-.115.148-.183-.06-.081-.11-.156-.17-.222-.131-.151-.271-.296-.401-.45-.367-.434-.409-.923-.212-1.436.063-.166.16-.324.26-.473.16-.234.329-.464.502-.687.453-.578.928-1.143 1.194-1.866.055.06.1.101.134.151.059.085.122.17.164.265.303.702.531 1.423.55 2.195.002.114.01.228.038.348.595-.727 1.2-1.433 1.855-2.15.145.347.254.665.287 1 .034.336.04.674.057 1.007.232.023.312-.014.362-.213.07-.26.24-.39.494-.443.164-.035.329-.07.486-.124.145-.05.297-.1.415-.189.31-.234.661-.32 1.038-.327.237-.004.476.01.71.041.33.046.629.168.886.39.72.621 1.445 1.238 2.168 1.857.088.077.173.158.282.257-.081.04-.127.064-.176.083-.356.137-.728.184-1.107.195-.252.006-.503.01-.754.008-.09 0-.164.025-.22.093-.013.017-.03.029-.044.044-.413.478-.953.728-1.562.857-.474.1-.951.145-1.433.17-.195.01-.387.022-.632.039.073.048.105.077.142.091.386.158.79.222 1.202.25.187.013.373.03.582.046-.132.365-.34.634-.666.812a1.703 1.703 0 0 1-.806.188c-.373.005-.735-.076-1.093-.165a44.84 44.84 0 0 1-1.154-.296c-.159-.044-.276-.004-.354.134-.092.162-.188.323-.26.495-.119.288-.066.572.084.835.252.437.637.685 1.135.764.158.025.317.035.505.056-.077-.147-.21-.184-.304-.265-.1-.085-.209-.162-.31-.247-.102-.083-.2-.172-.301-.256-.1-.085-.201-.166-.327-.27.078-.054.134-.1.197-.134.31-.17.647-.261.993-.305.373-.047.747-.085 1.124-.107.438-.027.857.085 1.28.182.481.112.967.203 1.453.3.04.008.082.002.153.002-.036-.05-.054-.09-.086-.116-.251-.209-.498-.422-.758-.619-.107-.08-.243-.13-.368-.182-.088-.037-.185-.056-.308-.091.067-.085.115-.158.176-.22.703-.723 1.543-.95 2.52-.69.55.148 1.063.382 1.567.634.306.154.616.298.907.474.33.2.689.28 1.066.33 1.08.143 2.146.354 3.168.741.398.151.79.323 1.133.574.229.167.442.358.639.56.201.208.322.467.387.749.013.051.034.103.061.184.055-.075.096-.127.134-.182a6.283 6.283 0 0 1 1.504-1.601c.527-.398 1.074-.768 1.614-1.147.691-.48 1.387-.955 1.977-1.56.015-.014.034-.023.057-.04.1.06.144.164.188.262.153.331.224.681.235 1.044.01.378.019.76-.076 1.132-.006.025.002.052.009.127.09-.094.17-.15.217-.226.158-.259.315-.522.453-.791.138-.271.249-.555.383-.829.094-.192.195-.383.316-.559.291-.422.693-.64 1.219-.64.528-.002 1.018.135 1.556.352-.07.04-.103.058-.138.08-.404.235-.716.57-.993.937-.276.365-.54.737-.81 1.106-.02.027-.032.058-.063.118.161.042.306.09.452.112.388.062.762.029 1.116-.164.436-.234.876-.457 1.318-.68.186-.094.377-.181.57-.264a2.18 2.18 0 0 1 .877-.164c.314 0 .605.07.835.276.344.308.744.38 1.185.352.327-.02.656-.025.985-.035.075-.002.15 0 .236 0 .046.252.002.464-.157.648-.224.26-.504.453-.793.636-.116.072-.229.149-.344.223l.006.05c.063.012.126.031.191.037.471.046.917-.018 1.307-.312.435-.33.563-.762.412-1.268-.06-.2-.174-.391-.285-.571-.096-.158-.136-.154-.312-.104-.307.09-.613.195-.927.25-.517.094-1.018.042-1.447-.297-.063-.05-.124-.106-.208-.179.421-.314.859-.565 1.259-.892-.065-.004-.13-.01-.195-.013-.347-.012-.697-.018-1.045-.037a1.44 1.44 0 0 1-.347-.07 4.862 4.862 0 0 1-1.131-.535c-.329-.209-.337-.403-.006-.608.24-.147.51-.25.768-.371.078-.037.16-.066.23-.135-.178-.043-.356-.09-.536-.126a.39.39 0 0 0-.18.027c-.239.077-.477.155-.712.24-.636.228-1.298.321-1.968.367-.404.027-.809.035-1.213.052-.06.002-.123 0-.19 0 .004-.036 0-.058.01-.075.603-.93 1.355-1.704 2.387-2.164 1.058-.47 2.128-.429 3.194-.01.239.095.465.22.7.327.098.045.2.083.318.13.077-.207.069-.402.09-.59.02-.184.027-.37.044-.603L40.2 4.58c.015-.008.03-.016.044-.027-.021-.074-.04-.149-.06-.225-.076-.265-.168-.526-.223-.798-.117-.575-.023-1.139.147-1.691.027-.092.06-.183.098-.297.046.044.078.073.107.104.26.27.52.54.781.808.373.38.756.755 1.123 1.145.194.207.37.43.536.66.456.634.41 1.454-.195 2.032-.094.091-.184.186-.266.267.117.224.247.422.325.64.077.215.1.451.15.7.099-.025.187-.042.268-.07.294-.098.589-.1.886-.023.333.087.65.21.945.385.299.176.544.41.728.7.291.455.511.948.719 1.447.01.023.01.052.025.112-.076-.045-.126-.074-.174-.106a3.576 3.576 0 0 0-2.507-.486 1.08 1.08 0 0 0-.328.126c-.178.098-.262.259-.214.454.046.184.109.372.203.538.228.41.555.741.94 1.015.58.412 1.223.687 1.912.863.099.025.197.058.329.096-.201.269-.41.488-.683.631a2.409 2.409 0 0 1-1.118.298c-.549.007-1.085-.033-1.608-.207a4.557 4.557 0 0 1-1.219-.63c-.517-.37-1.07-.672-1.638-.956-.085-.043-.173-.08-.272-.126.04.176.314.55.737.942.29.265.612.493.936.75-.052.02-.085.041-.123.047-.664.122-1.33.166-1.996.015-.781-.176-1.445-.551-1.937-1.183-.211-.271-.379-.577-.56-.872-.123-.2-.24-.403-.353-.61-.285-.52-.748-.74-1.321-.77-.118-.007-.237 0-.396 0 .067.047.098.076.136.097.19.099.385.192.574.296a1.3 1.3 0 0 1 .486.476c.173.286.301.59.391.911.055.19.019.23-.186.238-.419.021-.825-.039-1.2-.223a15.08 15.08 0 0 1-1.079-.593c-.343-.209-.672-.447-1.007-.67a.412.412 0 0 0-.21-.085l.183.149c.167.136.34.267.498.412.132.122.12.242-.027.341a.798.798 0 0 1-.228.098c-.327.097-.662.095-.997.062-.25-.025-.498-.066-.748-.097-.081-.01-.163-.013-.276-.02.054.297.084.575.034.87-.583.015-1.136-.072-1.682-.339v.46c.08.004.155.01.228.01l3.058.01c1.151.005 2.303.007 3.455.01.048 0 .098.005.146.003.3-.013.583.019.773.29.637.482 1.273.967 1.91 1.447.054.042.12.073.184.096.453.157.796.451 1.058.84.063.091.121.135.234.13.273-.005.545.003.817-.003.201-.004.385.041.563.134.428.222.78.528.953.978.168.43.168.867-.17 1.24-.077.087-.087.168-.024.261.035.052.07.104.113.15.377.42.542.927.592 1.474.036.387.01.774-.125 1.143a2.32 2.32 0 0 1-.204.43c-.299.48-.745.67-1.302.599a2.531 2.531 0 0 1-1.1-.433.419.419 0 0 1-.203-.404c.013-.174.088-.259.262-.298.038-.014.071-.02.124-.03Zm-30.08-7.964c-.013.072-.023.113-.025.153-.017.855-.034 1.71-.044 2.566 0 .076.031.163.075.227.76 1.175 1.525 2.345 2.289 3.517.038.058.08.11.14.192.907-1.34 1.757-2.69 2.658-4.03.062.09.109.15.15.212.208.31.417.62.622.932.578.88 1.152 1.76 1.73 2.642.044.066.092.126.157.213.1-.132.187-.232.258-.34.368-.552.735-1.107 1.103-1.66.384-.578.763-1.156 1.148-1.731.054-.081.128-.152.205-.239.063.092.107.152.147.216l1.545 2.363c.258.393.522.784.785 1.174.049.07.116.126.187.2.059-.08.1-.134.138-.192.207-.31.415-.623.618-.936.58-.886 1.16-1.773 1.742-2.659.042-.064.071-.147.172-.186.873 1.335 1.74 2.667 2.63 4.027.088-.128.155-.223.218-.318l2.278-3.473c.05-.077.105-.151.178-.255l2.651 4.028c.078-.108.137-.182.189-.261.743-1.127 1.485-2.255 2.23-3.382a.457.457 0 0 0 .078-.292c-.036-.627-.065-1.255-.105-1.88-.015-.253-.048-.505-.075-.78-.202-.011-.388-.028-.574-.03-2.352-.01-4.704-.023-7.057-.023-6.065-.004-12.132-.002-18.196-.002-.076.007-.151.007-.245.007Zm23.343 28.057-.218.284c-.255.323-.599.392-.965.197-.342-.182-.668-.667-.513-1.183a6.23 6.23 0 0 1 .167-.468 9.626 9.626 0 0 0 .66-3.187c.025-.648.042-1.296.058-1.944.007-.234-.002-.468-.01-.702-.002-.056-.034-.11-.054-.17-.06.017-.093.023-.124.037a2.45 2.45 0 0 0-1.034.847 3.355 3.355 0 0 0-.44.889c-.134.435-.247.876-.381 1.31-.12.39-.237.78-.386 1.158a1.136 1.136 0 0 1-.932.744c-.351.055-.703.103-1.053.157-.56.089-1.083.271-1.527.63a6.618 6.618 0 0 0-1.669 1.998c-.033.062-.056.132-.1.238.155-.025.262-.043.368-.062.103-.019.206-.037.308-.058-1.656.847-2.452 2.151-2.276 4.05.073-.078.12-.126.161-.176.18-.21.358-.422.538-.633 1.048-1.232 2.381-2.046 3.896-2.593.046-.017.096-.019.163-.029-.187.578-.21 1.143-.17 1.709.046.666.256 1.283.647 1.832.111.156.25.29.381.44.03-.032.042-.042.047-.053.01-.033.02-.066.025-.099a4.23 4.23 0 0 1 .758-1.884c.26-.367.546-.715.823-1.071.07-.091.146-.182.224-.278.09.04.167.069.24.106.411.207.847.263 1.303.215.633-.066 1.106-.44 1.246-1 .1-.395.032-.78-.092-1.16-.008-.024-.031-.04-.07-.09ZM3.11 14.15c.065-.007.113-.002.157-.015.28-.078.57-.143.842-.242.768-.282 1.392-.775 1.945-1.363.128-.136.262-.269.409-.385.33-.26.716-.248 1.122-.213-.013.105-.019.188-.034.269-.117.605-.397 1.114-.89 1.503-.085.067-.16.145-.28.253.126.02.205.048.283.044.34-.01.682-.027 1.024-.046.326-.017.611-.143.85-.358.178-.162.352-.336.498-.528.189-.247.35-.516.524-.775.194-.294.387-.59.586-.882.406-.596.984-.944 1.673-1.13a4.768 4.768 0 0 1 1.221-.168c.976-.007 1.954.004 2.93.008.033 0 .067.014.142.029-.739.346-1.263.834-1.516 1.626.111 0 .184.006.258 0a4.626 4.626 0 0 0 1.434-.355c.654-.287 1.25-.668 1.826-1.087.027-.018.046-.047.074-.076-.03-.054-.055-.104-.08-.15-.115-.205-.24-.403-.344-.615-.054-.113-.125-.145-.242-.142-.488.004-.978.004-1.466.002a2.24 2.24 0 0 0-.756.13 1.567 1.567 0 0 1-1.181-.037 2.458 2.458 0 0 0-.62-.172 16.64 16.64 0 0 1-1.684-.323 4.783 4.783 0 0 0-.756-.15 5.601 5.601 0 0 0-2.31.266c-.073.025-.14.072-.23.12.163.232.369.377.565.526.2.15.407.294.629.404.215.105.454.165.682.244-.481.035-.953-.012-1.424-.079-.406-.055-.722-.26-.999-.555a1.114 1.114 0 0 1-.282-1.072c.044-.19.148-.369.228-.551.027-.06.065-.114.105-.186-.072-.021-.118-.046-.164-.046-.243.006-.492-.006-.728.035-.547.098-.8.414-.813.965-.008.33.059.644.16.955.024.074.041.153.075.277-.105-.06-.166-.087-.222-.126-.241-.166-.478-.335-.719-.501-.251-.174-.498-.356-.76-.514a2.03 2.03 0 0 0-1.219-.296c-.584.046-1.036.34-1.411.764-.023.027-.031.067-.052.118 1.101.05 1.928.613 2.745 1.313-.071.05-.124.083-.17.122-.203.168-.408.336-.607.508a1.384 1.384 0 0 0-.46.77c-.045.203-.089.404-.124.609-.073.402-.155.8-.394 1.147-.023.033-.03.075-.05.13Zm35.17 3.518-.06.019c-.023-.038-.048-.075-.067-.114-.176-.346-.348-.692-.526-1.036a1.24 1.24 0 0 0-.148-.225c-.032-.038-.097-.079-.134-.07-.034.008-.072.078-.076.126-.019.15-.03.302-.033.453-.013.468-.017.938-.036 1.406-.042 1.034-.126 2.065-.113 3.102.004.433-.004.868-.103 1.297-.031.138-.035.29-.023.43.053.615.29 1.16.656 1.655.138.184.3.346.502.462.07.04.147.064.26.114-.03-.197-.046-.352-.077-.506-.114-.544-.078-1.066.209-1.561.255-.445.295-.928.21-1.425-.022-.124-.03-.25-.049-.42.092.079.151.126.205.178l.472.439c.356.331.785.429 1.258.379.053-.006.103-.025.166-.041-.023-.069-.038-.119-.057-.17-.098-.265-.214-.526-.291-.798-.138-.49-.107-.998-.103-1.5.002-.125.007-.25.023-.372.028-.198.17-.256.319-.12a.661.661 0 0 1 .167.257c.067.195.115.398.166.596.042.166.073.334.106.493.281.025.622-.02.903-.118.49-.167.704-.44.72-.95.01-.352.005-.704-.008-1.056-.006-.176-.044-.35-.073-.562-.863.545-1.648.435-2.434-.163.235-.054.43-.095.624-.143.229-.056.43-.162.593-.333a.685.685 0 0 0 .16-.765 1.195 1.195 0 0 0-.137-.254c-.184-.267-.435-.464-.708-.636-.019-.012-.048-.008-.098-.017.025.108.046.193.067.278.084.325.096.654.031.984a.97.97 0 0 1-.829.77 1.618 1.618 0 0 1-1.181-.319.699.699 0 0 1-.17-.18c-.088-.137-.05-.255.1-.315.09-.035.19-.045.284-.072.173-.05.353-.087.515-.162.385-.176.557-.501.485-.913-.069-.404-.224-.768-.565-1.03-.071-.053-.138-.117-.21-.171-.646-.491-1.296-.982-1.945-1.47-.035-.027-.077-.046-.144-.085l.019.273c.041.743.088 1.487.121 2.23.008.199.017.385.199.514.027.018.044.054.065.08.3.419.536.872.737 1.342.034.065.04.133.057.195Zm-.188-11.166c.004.015.01.03.015.044-.076.058-.149.122-.228.176-.359.24-.719.476-1.077.716-.077.052-.15.114-.218.164.009.03.009.039.013.043.015.015.03.03.046.042.41.306.873.401 1.365.287.421-.097.836-.221 1.244-.358a3.59 3.59 0 0 1 1.273-.194.906.906 0 0 1 .606.24 2 2 0 0 1 .477.673c.034.072.071.143.113.226l.524-.193a1.19 1.19 0 0 0-.212-.822c-.1-.147-.228-.278-.339-.419-.042-.053-.124-.095-.082-.205.055.038.103.065.14.102.31.292.528.64.62 1.058.015.068.05.13.078.203.134-.1.136-.1.147-.21.054-.5-.042-.964-.371-1.36-.168-.2-.358-.385-.542-.573-.097-.098-.202-.187-.306-.286.067-.08.125-.147.182-.217a.657.657 0 0 0 .16-.375c.014-.201.012-.404-.078-.588-.105-.218-.21-.437-.348-.636a6.294 6.294 0 0 0-1.177-1.257c-.023-.019-.052-.03-.082-.044-.102.81.275 1.504.482 2.237-.84-.72-1.667-1.448-2.534-2.175-.02.087-.037.14-.044.191-.019.172-.042.344-.048.516-.006.225-.096.368-.333.426-.542.13-1.08.274-1.619.41-.17.044-.339.077-.504.129-.065.02-.118.074-.212.134.12.052.19.1.268.116.218.048.438.085.656.127.069.012.138.026.21.041l.005.056-.356.145c-.29.116-.584.223-.87.35a1.09 1.09 0 0 0-.286.205c-.073.066-.069.147.01.213.066.052.13.106.2.15.796.507 1.658.7 2.597.552.146-.025.29-.04.435-.06ZM18.79 38.063c.092-.162.02-.313.018-.46a.823.823 0 0 0-.236-.596c-.176-.176-.323-.38-.482-.574a31.941 31.941 0 0 1-4.113-6.44 31.574 31.574 0 0 1-1.533-3.8 6.402 6.402 0 0 0-.1-.265l-.078.124c-.36.694-.7 1.396-.982 2.125-.22.567-.423 1.139-.546 1.735-.013.066-.055.137.012.21.019-.03.036-.053.046-.075.132-.336.358-.605.624-.845.145-.13.28-.27.421-.404.25-.242.425-.526.484-.874.013-.068.019-.15.124-.203-.009.095-.007.172-.024.242-.08.336-.22.64-.473.885-.199.192-.398.387-.599.577a1.638 1.638 0 0 0-.414.615 7.98 7.98 0 0 0-.258.764c-.048.185-.017.377.092.58.1-.111.185-.203.264-.296.402-.47.823-.92 1.3-1.317a.365.365 0 0 0 .14-.265c.01-.095.01-.193.018-.29.01-.112.027-.223.04-.342.04.015.054.017.064.025a.65.65 0 0 1 .059.058c.258.325.459.68.53 1.09.1.592.075 1.182-.063 1.766-.153.638-.314 1.271-.46 1.911-.08.35-.145.704-.105 1.067.01.097.04.192.06.29a.39.39 0 0 1 .048.008c.042-.052.09-.1.124-.153a3.45 3.45 0 0 1 1.41-1.29c.13-.065.225-.075.345-.007.484.282.91.626 1.141 1.146.24.542.459 1.095.679 1.646.163.412.326.822.584 1.187a3.14 3.14 0 0 0 1.051.96c.067.038.136.1.235.052.02-.128-.044-.23-.092-.333-.162-.358-.325-.717-.484-1.077-.025-.056-.074-.116-.015-.217l.195.223c.184.216.362.437.555.644a.542.542 0 0 0 .394.193Zm4.602-25.815c.023-.056.053-.106.059-.158.071-.466.01-.907-.264-1.304a2.706 2.706 0 0 0-.66-.657 5.42 5.42 0 0 0-1.256-.648c-1.07-.404-2.19-.59-3.317-.741-.065-.009-.132-.002-.214-.002 0 .072-.006.12 0 .165.072.489.254.928.608 1.29.27.278.582.491.927.665.467.238.962.404 1.46.563.848.27 1.698.537 2.548.804.032.008.065.012.11.023ZM34.88 28.95c-.187.147-.335.425-.377.69a3.51 3.51 0 0 0 .067 1.478c.178.653.364 1.303.544 1.953.092.333.168.669.164 1.019-.007.654-.3 1.062-.926 1.273-.157.054-.322.083-.484.127-.146.04-.174.076-.13.223.128.433.359.8.773 1.011.369.186.767.238 1.146.033.44-.24.77-.592.94-1.068.084-.236.109-.48.073-.733a3.943 3.943 0 0 0-.28-.951c-.168-.402-.352-.797-.522-1.197-.153-.362-.266-.741-.532-1.07.16-.05.136-.152.111-.266-.163-.741-.32-1.482-.481-2.224-.023-.1-.057-.194-.086-.298ZM24.074 43.903a4.352 4.352 0 0 1 1.602-2.07c-.11-.134-.071-.26-.012-.378.077-.155.152-.31.247-.456.379-.584.84-1.1 1.365-1.56.43-.374.93-.604 1.489-.71.15-.028.301-.051.452-.082.046-.01.107-.025.126-.058.107-.178.193-.367.247-.57a3.825 3.825 0 0 1-.85.44c0-.272.117-.502.077-.794-.85.76-1.604 1.553-2.41 2.295a40.16 40.16 0 0 1-2.517 2.116c-.044-.033-.08-.056-.111-.083-.758-.652-1.527-1.292-2.272-1.957-.84-.75-1.613-1.565-2.386-2.381-.052-.056-.094-.133-.194-.155 0 .178.01.343-.002.507-.015.188-.099.242-.262.153-.174-.095-.331-.226-.492-.344-.05-.037-.094-.08-.14-.122l-.036.031.102.22c.114.236.254.462.269.733.002.037.043.08.08.103.051.034.114.05.17.073.619.24 1.232.484 1.808.812.63.358 1.233.758 1.77 1.246.106.098.2.214.276.334.092.145.038.265-.124.325-.048.018-.1.027-.192.05.414.34.819.633 1.139 1.014.327.377.574.802.781 1.268Zm-1.231.691c-.05-.062-.067-.093-.092-.116-.331-.306-.65-.627-1-.91a5.557 5.557 0 0 0-2.133-1.103c-.272-.07-.312-.035-.323.247-.023.592-.046 1.184-.077 1.777-.009.145.023.25.153.331.483.3.953.627 1.45.903.688.383 1.43.584 2.229.505.094-.01.189-.03.287-.05-.017-.165-.128-.244-.22-.333-.412-.396-.88-.72-1.359-1.031-.063-.04-.121-.083-.182-.125l.008-.033c.404-.02.808-.041 1.259-.062ZM11.212 3.362c.457.06.909.051 1.321.281.446.249.976.677 1.033.889-.113-.087-.203-.162-.298-.23-.266-.189-.527-.383-.802-.56-.182-.115-.393-.163-.611-.198-.616-.1-1.185.116-1.77.234-.012.002-.025.01-.037.016a.426.426 0 0 0-.281.359c-.033.22.006.271.203.298.526.07 1.047.155 1.57.236.51.077.99.222 1.404.547.287.225.626.364.986.435.605.122 1.208.074 1.803-.077.055-.015.105-.046.182-.08-.104-.106-.182-.195-.27-.272-.67-.572-1.346-1.141-2.016-1.713a1.683 1.683 0 0 0-.786-.366c-.496-.1-.984-.108-1.455.107-.063.027-.12.063-.176.094Zm24.313 28.49c.215.203.39.38.576.54.337.293.72.44 1.185.425.408-.012.69-.184.9-.505.078-.12.136-.257.18-.393.114-.348.111-.707.067-1.065-.075-.609-.284-1.178-.563-1.723-.553-1.08-1.26-2.064-1.985-3.036-.015-.02-.04-.03-.075-.058-.03.077-.053.141-.08.201a.425.425 0 0 0 .03.431c.068.112.119.234.175.352.325.702.66 1.4.97 2.106.23.526.303 1.085.278 1.659-.016.39-.19.673-.559.822a3.251 3.251 0 0 1-.498.15c-.18.04-.365.06-.601.094ZM7.683 24.201a.47.47 0 0 0-.324.15 1.37 1.37 0 0 0-.23.318c-.285.588-.14 1.402.318 1.87.197.2.423.36.674.484.72.356 1.437.247 1.983-.342a3.012 3.012 0 0 0 .819-2.456c-.006-.064-.03-.128-.044-.19l-.046-.01c-.031.062-.067.124-.094.188-.206.48-.503.893-.93 1.203-.467.338-1.016.3-1.43-.095a1.926 1.926 0 0 1-.312-.387c-.11-.176-.193-.367-.287-.551l-.097-.182ZM6.27 1.72c-.025.026-.044.039-.05.057-.208.497-.539.918-.865 1.338-.216.28-.438.555-.641.845-.128.18-.245.37-.335.572-.21.466-.174.917.165 1.319.17.2.363.383.547.57.038.037.086.061.14.099.042-.052.08-.091.11-.137.428-.712.824-1.44 1.103-2.226.155-.44.255-.889.226-1.359-.027-.4-.17-.75-.4-1.078Zm26.849 5.108c-.472-.155-.9-.29-1.362-.267-.456.023-.81.23-1.06.607-.068.103-.14.207-.194.319a19.73 19.73 0 0 0-.387.824c-.189.433-.4.849-.717 1.207-.025.03-.041.067-.058.093.012.02.017.03.02.03.67.066 1.287-.054 1.758-.564.264-.283.498-.592.73-.903.365-.482.719-.967 1.27-1.346Zm-1.914 5.61c.016-.32-.005-.61-.137-.886a2.38 2.38 0 0 0-.938-1.002 3.662 3.662 0 0 0-1.593-.524c-.367-.033-.74-.048-1.104.033-.075.016-.165.023-.203.145.077.012.142.027.207.035.138.014.279.02.417.04.348.045.639.184.819.505.067.12.138.24.222.35.205.269.406.542.634.793.113.124.268.227.425.29.39.153.805.209 1.25.221Zm-16.07-2.118a.502.502 0 0 1-.03-.058c-.62-.027-1.24-.052-1.858-.083-.1-.004-.15.054-.203.118l-1.382 1.688c-.027.035-.046.076-.08.134.757-.006 1.47-.07 2.116-.455.58-.344 1.026-.825 1.436-1.344Zm8.742 2.255c.105.089.214.066.312.066 1.715.008 3.43.017 5.146.02.043 0 .087-.014.136-.022-.013-.027-.017-.043-.026-.052a1.14 1.14 0 0 0-.098-.076c-.953-.696-2.02-.895-3.17-.696-.746.128-1.45.391-2.147.673-.05.023-.094.054-.153.087Zm-16.705 8.75c-.088-.017-.155-.034-.222-.044-.282-.044-.565-.079-.846-.13-.385-.071-.758-.18-1.089-.405a2.59 2.59 0 0 1-.848-.952c-.044-.083-.098-.16-.16-.261-.034.068-.062.103-.066.14-.027.191-.065.382-.071.574-.017.483.096.932.404 1.317.308.383.712.59 1.208.605.681.02 1.2-.302 1.655-.76.012-.014.017-.037.035-.085Zm-.774-5.26c-.078 0-.12-.009-.155.001-.442.11-.865.265-1.238.533a2.07 2.07 0 0 0-.295.26.708.708 0 0 0-.174.653c.09.45.348.756.781.92.387.146.79.16 1.194.115.146-.016.29-.052.435-.079l.004-.051c-.06-.023-.123-.044-.182-.07-.26-.115-.534-.208-.775-.353-.5-.298-.573-.67-.242-1.143.121-.174.274-.33.41-.495.071-.089.142-.178.237-.292Zm.544-.32c-.04 0-.056-.006-.065 0-.243.212-.458.443-.586.742-.176.41-.076.814.278 1.091.319.25.687.36 1.093.313a1.27 1.27 0 0 0 .696-.307c.171-.149.161-.232-.042-.329-.151-.073-.31-.124-.457-.203-.2-.108-.406-.213-.588-.35-.214-.16-.34-.379-.318-.66.01-.098-.005-.197-.01-.297Zm7.246 19.961c.031-.615.063-1.2.09-1.785.002-.043-.023-.087-.038-.137-.042.009-.071.01-.094.021-.639.302-1.056.82-1.39 1.415a.17.17 0 0 0 .02.21c.055.06.115.127.187.162.385.2.79.185 1.225.114Zm-1.76-5.831c-.272.114-1.319 1.217-1.572 1.65.147.22.293.315.542.33.174.01.35.01.524-.003.232-.014.287-.066.318-.3.07-.505.132-1.013.195-1.518.008-.05-.002-.101-.006-.16Zm24.267 1.592c-.192-.669-1.141-1.91-1.572-2.04.146.762.307 1.504.502 2.256.377-.01.731-.042 1.07-.216ZM12.83 8.325l-.015.05c.02.027.038.056.063.079.406.358.844.673 1.338.907.444.211.869.118 1.282-.085.167-.083.175-.174.023-.271a2.784 2.784 0 0 0-.537-.27c-.59-.217-1.21-.304-1.832-.378l-.322-.032Zm.47-2.735-.108-.077c-.17-.107-.335-.221-.509-.323a6.007 6.007 0 0 0-.46-.236c-.112-.052-.212-.02-.273.079-.146.24-.379.33-.636.387-.082.019-.162.052-.279.091.383.13 1.901.182 2.266.079ZM6.968 19.964c-.073.051-.138.078-.174.126-.22.3-.423.609-.546.994l.611.062c.145-.354.195-.834.11-1.182Zm34.055-8.766a.787.787 0 0 0-.023.064c.075.046.146.097.224.132.272.125.546.243.819.365.693.309 1.283.743 1.736 1.352.052.073.117.137.182.199.025.023.067.029.1.041l.034-.03c-.036-.063-.065-.129-.107-.185-.463-.61-1.018-1.114-1.723-1.437-.354-.162-.714-.309-1.073-.462-.054-.016-.113-.025-.17-.04ZM16.935 41.676l-.048.04c.038.052.07.11.113.153.092.093.193.18.287.271.193.189.394.371.576.57.304.325.469.71.48 1.16.004.178.018.358.035.536.004.047.03.095.044.143h.05c.02-.069.05-.137.053-.207.033-.649-.095-1.255-.564-1.74-.289-.298-.605-.57-.91-.851-.032-.029-.076-.05-.116-.075Zm-7.18-18.039c.146-.058.154-.056.182-.19.073-.369.083-.74-.032-1.104-.081-.263-.17-.526-.243-.791a1.617 1.617 0 0 1 .007-.92c.031-.105.058-.213.077-.32.006-.032-.02-.069-.033-.104-.12.041-.14.137-.157.222-.103.47-.137.942.012 1.41.07.217.143.433.21.65.085.275.098.555.029.837-.023.097-.034.196-.053.31ZM34.081 9.394c.017.019.031.037.048.054.136-.087.276-.172.41-.265.421-.294.888-.354 1.378-.24.243.056.476.153.712.236.185.064.365.136.55.2.037.013.083.003.125.003a.276.276 0 0 0-.138-.135c-.37-.147-.731-.313-1.108-.43-.693-.216-1.307-.038-1.843.428-.052.043-.09.1-.134.15Zm2.953 21.326a1.2 1.2 0 0 0-.193-.926c-.134-.193-.291-.369-.444-.547-.111-.132-.235-.254-.348-.385a1.51 1.51 0 0 1-.362-.777.937.937 0 0 0-.048-.2c-.01-.027-.055-.044-.113-.087 0 .114-.01.194.002.27.044.301.163.57.356.804.149.183.308.357.467.528.31.332.526.709.626 1.15.013.06.038.114.057.17Zm1.011-19.493c-.036.213.293.822.626 1.19.239.266 1.11.74 1.38.725-.075-.06-.12-.11-.174-.14a9.665 9.665 0 0 0-.458-.243 2.279 2.279 0 0 1-1.045-1.031 7.323 7.323 0 0 0-.214-.377c-.03-.043-.071-.077-.115-.124Zm-3.11 23.015c.017-.012.034-.027.05-.04-.048-.078-.09-.16-.144-.233-.157-.21-.327-.412-.482-.626-.165-.232-.303-.482-.362-.762-.044-.215-.056-.435-.082-.654-.008-.077.007-.162-.092-.244-.019.074-.037.124-.042.173-.025.413.021.81.222 1.183.224.418.518.785.834 1.133.027.03.065.047.098.07Zm-9.048 11.466.027.052c.04-.004.084.004.117-.012.39-.197.79-.375 1.162-.599.377-.228.538-.617.654-1.02.012-.042-.009-.094-.015-.142l-.054-.008c-.028.058-.063.114-.082.174a1.77 1.77 0 0 1-1.07 1.162c-.193.079-.377.176-.564.27-.062.032-.117.082-.175.123Zm14.56-35.455.025.063c.055-.02.113-.027.163-.056.264-.152.455-.367.537-.66.121-.44.004-.846-.187-1.241-.019-.04-.071-.062-.107-.094l-.044.03c.02.062.03.128.059.186.13.26.153.538.163.824a.784.784 0 0 1-.261.627c-.061.056-.126.108-.187.166-.056.052-.109.106-.161.155ZM7.96 7.305c.071-.013.14-.027.211-.038.145-.022.287-.05.432-.068a.521.521 0 0 1 .467.174c.104.11.222.215.352.292.121.072.265.11.404.151.033.01.08-.023.17-.052-.11-.051-.168-.089-.233-.105a1.183 1.183 0 0 1-.499-.29 8.302 8.302 0 0 0-.205-.176c-.195-.166-.425-.203-.668-.156-.167.031-.333.085-.431.268Zm25.096-2.643c.01.013.023.025.033.037.092-.068.189-.132.277-.207.308-.258.647-.453 1.047-.534.123-.025.247-.04.37-.062.049-.01.095-.035.162-.062-.52-.21-1.73.337-1.89.828ZM9.778 14.356c-.042.083-.072.147-.105.209-.176.333-.348.67-.534 1a.837.837 0 0 1-.212.218c-.102.082-.117.116-.063.283.122.023.172-.074.222-.149a7.49 7.49 0 0 0 .731-1.338c.028-.06.061-.126-.04-.223Zm2.02 20.851-.065-.004c-.012.048-.041.097-.035.14.04.264.144.5.33.697.296.312.7.449.951.294-.09-.03-.157-.058-.228-.073-.507-.093-.773-.42-.902-.888-.013-.054-.034-.11-.05-.166Zm-.513-29.043c-.058-.158-.157-.158-.243-.16a41.17 41.17 0 0 0-1.315-.002c-.1.002-.2.048-.3.083-.029.01-.045.054-.09.11.078.004.126.018.168.01.511-.112 1.024-.085 1.537-.04.072.005.145-.001.243-.001Zm-3.74 14.823a.555.555 0 0 0 .329-.218c.124-.153.184-.335.228-.526.053-.226.084-.464.304-.613.02-.014.01-.07.015-.105-.032-.002-.078-.021-.095-.007-.075.069-.17.133-.21.22a2.72 2.72 0 0 0-.173.526c-.044.195-.115.364-.272.497-.059.052-.12.11-.126.226Zm2.423-2.365-.1-.083c-.245-.189-.292-.369-.164-.65a.922.922 0 0 1 .329-.392c.065-.043.149-.078.132-.203-.052.013-.103.01-.136.033a1.419 1.419 0 0 0-.453.479.775.775 0 0 0-.069.542c.042.21.214.317.461.274ZM15.71 41.86c-.015-.006-.03-.015-.044-.021-.038.035-.084.064-.11.106-.062.099-.114.205-.17.308a.496.496 0 0 1-.434.278 2.94 2.94 0 0 0-.33.037c-.04.006-.076.035-.124.06.178.126.573.106.779-.04.19-.136.3-.339.395-.546.028-.054.028-.12.038-.182Zm4.894-.193c-.038-.02-.069-.052-.105-.058a1.717 1.717 0 0 0-.289-.033.553.553 0 0 1-.542-.346 2.117 2.117 0 0 0-.15-.269c-.022-.033-.068-.052-.114-.083-.012.24.233.659.427.754.262.13.633.151.773.035Zm-9.35-9.11c-.13-.132-.258-.124-.369-.118-.295.013-.488-.124-.617-.37-.044-.085-.088-.172-.14-.253-.022-.03-.066-.047-.139-.097.03.209.121.337.186.478.105.226.287.35.53.385.124.019.25.025.373.027.048 0 .096-.027.176-.052Zm20.526-21.46.06-.029c.005-.267-.154-.451-.35-.608-.241-.193-.64-.305-.84-.228.056.035.096.068.144.087.109.043.22.083.333.12.25.083.44.228.538.478.027.064.078.12.115.18ZM8.592 5.518c.182-.158.325-.324.505-.427.176-.102.392-.137.61-.207-.382-.199-1.123.221-1.115.633Zm-.218-.77c-.198-.113-.492-.063-.76.109-.226.145-.36.33-.345.501.17-.143.316-.304.496-.406.178-.095.39-.132.61-.205Zm1.527 11.217c-.216.122-.555.723-.549.977.099-.016.126-.101.168-.167.132-.21.201-.454.402-.622.059-.045.073-.134-.02-.188ZM36.68 22.7c.27-.61.385-1.118.263-1.576L36.68 22.7Z"/>
</svg>
