<svg>
  <path d="M18.846 1.799v.3l-.594.025-.594.025-.025.57-.026.572-.546-.009-.546-.008-.026.537-.026.537-.545.026-.546.026-.026.536-.026.538-.545.025-.546.026.008.537.009.537-.58.026-.58.025-.026.53-.026.532-.521.037c-.637.045-.601.01-.67.66l-.057.535h-.506c-.582 0-.612.035-.612.736v.462l-.55-.015-.55-.015-.025.563-.025.564-.546-.001h-.546v2.79c0 2.244.023 2.799.117 2.835.064.024.826.044 1.693.044h1.575l.001.8c0 .44.026.947.055 1.126l.055.324L18 19.133c6.335-.025 6.357-.026 6.434-.397.158-.754.15-.744.588-.794.51-.058.53-.078.64-.629l.09-.448.428-.06c.235-.033.472-.104.526-.156.144-.143.172-3.045.029-3.135-.059-.036-2.135-.067-4.614-.068l-4.507-.001V6.607h1.62c.89 0 1.682-.024 1.759-.053.122-.046.139-.353.139-2.553V1.5h-2.286v.299Zm13.2 2.644c-.344.08-.447.206-.449.546-.002.41-.147.58-.494.58-.503 0-.622.111-.69.646l-.06.478h-.374c-.516 0-.663.134-.726.661L29.2 7.8l-.434.04c-.69.066-.641-.347-.668 5.692-.023 5.314-.02 5.447.147 5.535.115.06 2.193.083 6.311.069l6.14-.021.027-.541.026-.541h1.135v-1.125h1.143v-1.212h.562c.678 0 .67.015.668-1.11-.002-1.221.54-1.093-4.744-1.121l-4.576-.024-.012-3.481c-.006-1.915-.001-3.925.01-4.466.017-.754-.006-1.002-.098-1.06-.148-.092-2.385-.084-2.791.01M5.058 14.76c-.058.057-.106.287-.106.51 0 .467-.061.512-.7.512-.475 0-.527.074-.53.757v.368h-.519c-.595 0-.625.034-.625.722v.448l-.539-.001H1.5l.009 7.356.008 7.358 3.485.022 3.484.023-.027 3.396-.026 3.397 3.447.022 3.448.023.017 2.877c.009 1.582.019 3.11.022 3.396l.005.52 7.32.022c8.346.025 7.673.087 7.673-.715v-.39h.379c.55 0 .695-.141.744-.722l.041-.49H32c.648 0 .661-.038.632-1.83l-.024-1.487-5.738.021-5.737.02v-4.681l1.12-.025 1.122-.024.026-.537.026-.536.546-.026.545-.026.026-.537.027-.537.545-.025.545-.026.026-.54.027-.542h1.122l-.003-1.125-.003-1.126h-9.216v-9.084l-.233-.058c-.331-.082-2.724.031-2.927.138-.12.063-.185.224-.227.555l-.06.466-.436.041c-.54.052-.593.103-.658.646l-.053.437-.444.052c-.244.028-.482.09-.528.135-.117.115-.255 1.713-.22 2.558l.027.696-2.305-.025-2.306-.024-.024-6.146c-.022-5.35-.042-6.157-.157-6.228-.197-.123-1.877-.106-2.005.02m26.648 6.736c-.172.068-.198.142-.198.552v.473l-.418.054-.55.072c-.097.012-.138.155-.157.552l-.027.537-.545.025-.545.026v1.125l-.465-.03c-.783-.05-.723-.52-.723 5.617 0 6.394-.153 5.709 1.282 5.709h1.005v1.641c0 1.535.01 1.648.17 1.731.108.057 1.31.09 3.297.09 3.587 0 3.48.023 3.48-.736v-.39h.395c.548 0 .747-.207.747-.778v-.433h.481c.563 0 .663-.11.663-.73v-.395h.48c.564 0 .663-.11.663-.73v-.396h.373c.72-.003.77-.043.77-.616v-.509h.401c.631 0 .742-.097.742-.652v-.473h.44c.58 0 .791-.196.791-.736v-.39h.396c.532 0 .747-.21.747-.735v-.39h.379c.71 0 .72-.025.72-1.832v-1.586l-2.222-.023-2.222-.024-.086.224c-.047.123-.086.903-.086 1.733v1.508h-6.947l-.01-4.046c-.007-2.225-.003-4.256.008-4.512.013-.314-.019-.49-.099-.54-.158-.098-2.878-.087-3.13.013"/>
</svg>
