<svg>
  <path d="M46.5 43.446h-4.008v-.235l-.114-.118-.115-.117h-.114v-.118h-.115l-.115-.352.23-.235v-.117h.114v-.235l.115-.118v-.352h.114v-1.527h-.114v-.118h-.115v-.117h-.114l-.115-.118h-.115v-.235h-.114V39.1h-.23v-.117h-.228v-.235h-.115v-.118l-.114-.117-.114-.118h-.23l-.114-.234v.117h-.115v.117h-.229l-.114.118h-.115v.235h-.114v.235h-.23v.117h-.229v.118l-.114.117v.235h-.23v.118h-.228v.117l-.114.118v1.527h.114v.352l.115.118v.235h.114v.235h.229v.47h-.23v.117h-.113v.117h-.115v.118l-.114.117v.118H27.033v-7.282h-6.068v7.282H8.943v-.118l-.115-.117v-.118h-.114v-.117h-.115v-.118H8.37v-.352l.23-.235v-.235h.114v-.352h.114v-.588h.115v-.94l-.115-.117v-.235h-.114v-.117h-.23v-.118H8.37v-.117h-.115v-.235h-.114V39.1h-.114v-.117h-.344v-.353H7.57v-.117h-.115v-.118h-.343v-.234h-.115v.234h-.343v.118h-.115v.117h-.114v.235l-.115.118h-.23v.117h-.115v.118h-.114v.235h-.114v.117h-.115l-.114.118h-.115v.117h-.115v.118l-.114.117v.587l.114.235v.705l.115.118v.352h.115v.235h.114v.118h.115v.47h-.115v.117h-.114l-.115.117-.115.118v.235H1.5V46.5h45v-3.054Zm0-41.946v31.697h-3.222V16.192h-1.842v-5.553h-8.402V8.325l-7.366-2.66V4.623h-3.222v1.042l-7.48 2.66v2.314H6.794v5.553H5.183v17.005H1.5V1.5h45ZM17.127 17.11v16.087h-2.593V17.11h2.593Zm4.17 0v16.087h-2.48V17.11h2.48Zm-8.453 0v16.087h-2.48V17.11h2.48Zm12.736 0v16.087h-2.479V17.11h2.48Zm8.568 0v16.087h-2.593V17.11h2.593Zm-4.284 0v16.087h-2.48V17.11h2.48Zm8.454 0v16.087h-2.48V17.11h2.48ZM23.901 7.012l6.538 2.232H17.364L23.9 7.012Z"/>
</svg>
