<svg>
  <path d="M46.5 1.737c-.023.24-.056.482-.115.718a4.491 4.491 0 0 0-.138.892c-.013.35-.103.689-.16 1.031-.081.508-.163 1.012-.24 1.52-.156 1.018-.294 2.043-.473 3.055-.103.575-.21 1.154-.284 1.73-.108.85-.259 1.687-.384 2.527-.085.58-.21 1.155-.282 1.733-.102.84-.266 1.665-.379 2.506-.095.708-.228 1.406-.343 2.108-.11.682-.218 1.367-.322 2.05-.09.581-.157 1.17-.27 1.742-.094.485-.145.976-.23 1.464-.179 1.041-.358 2.079-.52 3.123-.084.543-.155 1.093-.248 1.636-.123.724-.266 1.445-.363 2.176-.133.976-.312 1.942-.469 2.912-.112.689-.181 1.387-.353 2.06.039.562-.266.691-.61.801-.457.146-.926.198-1.394.246a29.348 29.348 0 0 1-5.112.061c-.45-.032-.901-.074-1.35-.168-.033-.006-.068-.019-.102-.013-.25.049-.463-.155-.724-.168a4.762 4.762 0 0 0-.187.973c-.028.388-.102.773-.166 1.155a81.993 81.993 0 0 0-.349 2.237c-.064.475-.181.94-.235 1.412-.074.673-.213 1.326-.325 1.989-.051.294-.115.582-.19.87-.05.196-.128.297-.304.297-.443.003-.886.026-1.331.035-2.51.065-5.015.052-7.524.052-1.869 0-3.737-.007-5.606-.02-2.03-.016-4.06-.041-6.09-.064-2.004-.023-4.009-.042-6.013-.065-.53-.006-1.057-.016-1.587-.026-.044 0-.085-.003-.128-.006-.095-.007-.113-.087-.092-.181.125-.56.204-1.132.279-1.7.09-.709.235-1.404.332-2.108.116-.834.274-1.659.392-2.493.087-.614.19-1.225.277-1.84.066-.468.15-.934.22-1.4.092-.6.19-1.199.286-1.797.098-.61.203-1.222.295-1.833.087-.582.171-1.164.269-1.745.117-.715.225-1.43.335-2.147.128-.821.25-1.646.384-2.467.128-.805.274-1.61.397-2.418.117-.785.268-1.561.366-2.353.061-.498.107-1.006.215-1.49.112-.499.181-1.006.26-1.51.07-.434.162-.86.2-1.306a5.63 5.63 0 0 1 .162-.919c.1-.394.174-.801.212-1.212.082-.847.282-1.658.412-2.49.098-.626.208-1.25.315-1.874.046-.269.054-.272.266-.298.469-.058.937-.038 1.406-.025 1.551.051 3.105.038 4.656-.004.93-.026 1.859-.064 2.788.007.113.01.151-.04.166-.172.062-.552.187-1.096.246-1.645.054-.492.146-.97.21-1.458.061-.479.161-.944.233-1.42a82.247 82.247 0 0 1 .632-3.623c.034-.175.082-.346.11-.524.029-.197.118-.255.267-.268.588-.055 1.177-.042 1.763-.055 2.491-.052 4.982-.052 7.473-.049 1.466 0 2.933.003 4.403.013 2.08.016 4.162.042 6.243.065l6.039.064c.768.01 1.536.023 2.304.036.059.016.12.003.179.058ZM23.983 36.933v.023h5.555c.571 0 1.145-.004 1.715.003.136 0 .187-.049.213-.23.13-.973.271-1.943.417-2.916.161-1.076.328-2.15.494-3.223.23-1.484.463-2.97.696-4.455.246-1.558.494-3.116.738-4.674.187-1.213.368-2.425.55-3.637.11-.728.218-1.455.315-2.186.138-1.015.271-2.03.394-3.048.039-.307.077-.614.077-.928 0-.175-.044-.259-.182-.275-.202-.029-.402-.08-.607-.1a38.461 38.461 0 0 0-1.63-.123c-.571-.026-1.142-.052-1.713-.058-4.718-.058-9.435-.026-14.153-.032-.034 0-.07.003-.103 0-.123-.01-.181.051-.204.213-.187 1.322-.372 2.641-.569 3.96-.19 1.277-.394 2.55-.591 3.825a2951.69 2951.69 0 0 1-.735 4.674c-.217 1.39-.432 2.78-.647 4.17a271.055 271.055 0 0 0-.916 6.401 70.148 70.148 0 0 0-.221 1.944c-.03.3.03.394.271.417.146.013.287.055.43.067.535.046 1.07.097 1.605.123.612.03 1.227.055 1.838.062 2.322.016 4.642.003 6.963.003Z"/>
</svg>
