<svg>
  <path d="M13.256 1.988c0 .293.02.488.048.488.03 0 .048.294.048.784 0 .51-.017.773-.048.753-.03-.019-.048.122-.048.388 0 .246-.02.418-.048.418-.027 0-.048.11-.048.244s-.022.244-.049.244c-.026 0-.048.066-.048.146 0 .08-.022.147-.048.147-.027 0-.048.066-.048.146 0 .08-.022.147-.048.147-.027 0-.049.044-.049.097 0 .054-.021.098-.048.098-.026 0-.048.036-.048.08 0 .043-.047.12-.104.17-.057.051-.087.108-.066.128.021.02.048.01.06-.024.012-.034.063-.061.114-.061.05 0 .092-.022.092-.05 0-.026.065-.048.145-.048.08 0 .145-.022.145-.049 0-.027.065-.048.144-.048.08 0 .145-.022.145-.05 0-.026.086-.048.192-.048.106 0 .193-.022.193-.049 0-.027.109-.049.24-.049.133 0 .242-.022.242-.048 0-.027.108-.05.24-.05.133 0 .242-.021.242-.048 0-.029.16-.049.385-.049s.386-.02.386-.049.185-.049.46-.049c.295 0 .45-.017.43-.048-.018-.032.225-.05.697-.05.451 0 .725-.018.725-.048 0-.032.835-.049 2.41-.049 1.573 0 2.408.017 2.408.049 0 .03.241.049.627.049.385 0 .626.019.626.049 0 .026-.065.048-.145.048-.08 0-.144.022-.144.05 0 .026-.065.048-.145.048-.08 0-.144.022-.144.049 0 .027-.065.049-.145.049-.08 0-.144.022-.144.049 0 .026-.066.048-.145.048-.08 0-.144.022-.144.05 0 .026-.066.048-.145.048-.08 0-.145.022-.145.049 0 .027-.043.049-.096.049-.053 0-.096.021-.096.048s-.065.05-.145.05c-.08 0-.144.021-.144.048s-.044.049-.097.049c-.053 0-.096.022-.096.049 0 .026-.043.048-.096.048-.053 0-.097.022-.097.05 0 .026-.043.048-.096.048-.053 0-.097.022-.097.049 0 .027-.043.049-.096.049-.053 0-.096.022-.096.048 0 .027-.039.05-.086.05-.047 0-.117.043-.155.097-.038.053-.108.097-.155.097-.048 0-.086.022-.086.05 0 .026-.043.048-.096.048-.053 0-.097.022-.097.049 0 .027-.038.049-.085.049-.048 0-.117.044-.156.097-.038.054-.103.098-.144.098-.041 0-.107.044-.145.097-.038.054-.103.098-.144.098-.042 0-.107.044-.145.098-.038.053-.103.097-.144.097-.042 0-.107.044-.145.098-.038.054-.1.097-.136.097-.036 0-.127.066-.201.147-.074.08-.16.146-.192.146-.031 0-.14.088-.242.196-.102.107-.21.195-.24.195s-.16.11-.29.244c-.129.134-.258.244-.286.244-.068 0-2.315 2.278-2.315 2.346 0 .03-.087.138-.193.24-.106.104-.193.223-.193.265 0 .043-.022.077-.048.077-.027 0-.048.04-.048.087 0 .048-.044.119-.097.157-.053.039-.096.11-.096.158 0 .047-.022.086-.048.086-.027 0-.048.044-.048.098 0 .054-.022.098-.048.098-.027 0-.049.044-.049.097 0 .054-.021.098-.048.098-.026 0-.048.044-.048.097 0 .054-.022.098-.048.098-.027 0-.048.044-.048.098 0 .053-.022.097-.049.097-.026 0-.048.044-.048.098 0 .054-.022.097-.048.097-.026 0-.048.044-.048.098 0 .054-.022.098-.048.098-.027 0-.049.044-.049.097 0 .054-.021.098-.048.098-.026 0-.048.044-.048.098 0 .053-.022.097-.048.097-.027 0-.048.044-.048.098 0 .053-.022.097-.048.097-.027 0-.049.044-.049.098 0 .054-.021.098-.048.098-.026 0-.048.066-.048.146 0 .08-.022.147-.048.147-.027 0-.048.043-.048.097 0 .054-.022.098-.049.098-.026 0-.048.066-.048.146 0 .08-.021.147-.048.147-.026 0-.048.043-.048.097 0 .054-.022.098-.048.098-.027 0-.048.066-.048.146 0 .08-.022.147-.049.147-.026 0-.048.065-.048.146 0 .08-.021.146-.048.146-.026 0-.048.066-.048.147 0 .08-.022.146-.048.146-.027 0-.048.066-.048.147 0 .08-.022.146-.049.146-.026 0-.048.088-.048.195 0 .108-.022.196-.048.196-.027 0-.048.088-.048.195 0 .107-.022.195-.048.195-.027 0-.049.088-.049.195 0 .108-.021.196-.048.196-.026 0-.048.078-.048.174 0 .301-.04.314-.984.314-.532 0-.847.018-.847.048 0 .027.039.05.086.05.047 0 .117.043.155.097.038.054.1.097.136.097.036 0 .127.066.201.147.075.08.16.146.19.146.08 0 .774.72.774.805 0 .04.022.074.048.074.03 0 .048.276.048.732 0 .455.019.732.049.732.026 0 .048.13.048.293 0 .162.021.293.048.293.026 0 .048.087.048.195 0 .107.022.195.048.195.027 0 .048.088.048.195 0 .108.022.196.049.196.026 0 .048.066.048.146 0 .08.021.147.048.147.026 0 .048.043.048.097 0 .054.022.098.048.098.027 0 .049.044.049.097 0 .054.021.098.048.098.026 0 .048.044.048.098 0 .053.022.097.048.097.027 0 .048.044.048.098 0 .053.022.097.048.097.027 0 .049.04.049.087 0 .048.043.119.096.157.053.04.096.105.096.147 0 .042.044.108.097.146.053.039.096.099.096.133 0 .091 1.189 1.283 1.28 1.283.04 0 .061.022.045.049-.016.026 0 .048.035.048s.095.044.134.098c.038.054.103.098.144.098.042 0 .107.043.145.097.038.054.108.098.155.098s.086.022.086.049c0 .026.043.048.096.048.053 0 .096.022.096.05 0 .026.039.048.086.048.047 0 .117.044.155.098.038.053.108.097.155.097.048 0 .086.022.086.049 0 .027.066.049.147.049.086 0 .135.02.118.049-.017.027.024.048.094.048.067 0 .123.022.123.05 0 .026.043.048.096.048.053 0 .097.022.097.049 0 .027.065.049.144.049.08 0 .145.022.145.048 0 .027.043.05.096.05.053 0 .096.021.096.048s.065.049.145.049c.08 0 .145.022.145.049 0 .026.065.048.144.048.08 0 .145.022.145.05 0 .026.086.048.192.048.106 0 .193.022.193.049 0 .027.087.049.193.049.106 0 .192.022.192.048 0 .027.087.05.193.05.106 0 .193.021.193.048s.108.049.24.049c.133 0 .242.022.242.049 0 .027.118.048.262.048.144 0 .275.022.292.05.016.026.158.048.316.048.159 0 .286.022.286.049 0 .029.177.049.434.049s.433.02.433.048c0 .03.266.05.702.05.455 0 .69-.018.671-.05-.019-.03.128-.048.407-.048.259 0 .437-.02.437-.05 0-.026.128-.048.289-.048.16 0 .289-.022.289-.049 0-.027.108-.049.24-.049.133 0 .241-.021.241-.048s.087-.05.193-.05c.106 0 .193-.021.193-.048s.077-.049.171-.049c.102 0 .16-.02.142-.049-.018-.029.048-.048.166-.048.107 0 .195-.022.195-.05 0-.026.066-.048.145-.048.08 0 .145-.022.145-.049 0-.027.043-.049.096-.049.053 0 .096-.022.096-.048 0-.027.065-.05.145-.05.08 0 .144-.021.144-.048s.044-.049.097-.049c.053 0 .096-.022.096-.049 0-.026.043-.048.096-.048.053 0 .097-.022.097-.05 0-.026.043-.048.096-.048.053 0 .096-.022.096-.049 0-.027.044-.049.097-.049.053 0 .096-.022.096-.048 0-.027.043-.05.097-.05.053 0 .096-.021.096-.048s.043-.049.096-.049c.053 0 .097-.022.097-.049 0-.026.038-.048.085-.048.048 0 .117-.044.156-.098.038-.054.103-.098.144-.098.041 0 .107-.044.145-.097.038-.054.099-.098.136-.098.036 0 .127-.066.2-.146.075-.08.16-.147.19-.147.069 0 .87-.811.87-.881 0-.03.087-.138.194-.241.106-.104.192-.223.192-.265 0-.042.022-.077.048-.077.027 0 .049-.039.049-.087 0-.048.043-.118.096-.157.053-.039.096-.105.096-.146 0-.042.044-.108.097-.147.053-.038.096-.11.096-.157 0-.048.022-.087.048-.087a.049.049 0 0 0 .049-.049c0-.026-.044-.048-.097-.048-.053 0-.096.022-.096.048 0 .027-.044.05-.097.05-.053 0-.096.021-.096.048s-.043.049-.096.049c-.053 0-.097.022-.097.049 0 .026-.043.048-.096.048-.053 0-.096.022-.096.05 0 .026-.065.048-.145.048-.08 0-.145.022-.145.049 0 .027-.043.049-.096.049-.053 0-.096.022-.096.048 0 .027-.065.05-.145.05-.08 0-.144.021-.144.048s-.065.049-.145.049c-.08 0-.144.022-.144.049 0 .026-.065.048-.145.048-.08 0-.144.022-.144.05 0 .026-.065.048-.145.048-.08 0-.144.022-.144.049 0 .027-.066.049-.145.049-.08 0-.145.022-.145.048 0 .027-.086.05-.192.05-.106 0-.193.021-.193.048s-.087.049-.193.049c-.106 0-.193.022-.193.049 0 .026-.108.048-.24.048-.133 0-.241.022-.241.05 0 .026-.129.048-.29.048-.16 0-.288.022-.288.049 0 .028-.161.049-.386.049s-.385.02-.385.048c0 .03-.257.05-.675.05-.417 0-.674.018-.674.048 0 .03-.225.049-.579.049-.353 0-.578-.019-.578-.049 0-.03-.225-.049-.578-.049s-.578-.019-.578-.049c0-.027-.128-.048-.29-.048-.16 0-.288-.022-.288-.05 0-.026-.109-.048-.241-.048-.133 0-.241-.022-.241-.049 0-.027-.087-.049-.193-.049-.106 0-.192-.022-.192-.048 0-.027-.087-.05-.193-.05-.106 0-.193-.021-.193-.048s-.065-.049-.144-.049c-.08 0-.145-.022-.145-.049 0-.026-.065-.048-.145-.048-.079 0-.144-.022-.144-.05 0-.026-.043-.048-.096-.048-.053 0-.097-.022-.097-.049 0-.027-.065-.049-.144-.049-.08 0-.145-.022-.145-.048 0-.027-.043-.05-.096-.05-.053 0-.097-.021-.097-.048s-.043-.049-.096-.049c-.053 0-.096-.022-.096-.049 0-.026-.044-.048-.097-.048-.053 0-.096-.022-.096-.05 0-.026-.043-.048-.096-.048-.053 0-.097-.022-.097-.049 0-.027-.038-.049-.085-.049-.048 0-.117-.044-.156-.097-.038-.054-.103-.098-.144-.098-.041 0-.106-.044-.145-.097-.038-.054-.098-.098-.133-.098-.036 0-.192-.132-.348-.293-.157-.161-.318-.293-.36-.293a.076.076 0 0 1-.074-.076c0-.042-.109-.183-.241-.314s-.24-.267-.24-.304c0-.036-.044-.097-.097-.136-.053-.038-.097-.1-.097-.135 0-.036-.021-.052-.048-.035-.026.016-.048-.015-.048-.07 0-.056-.022-.101-.048-.101-.027 0-.048-.044-.048-.098 0-.053-.022-.097-.049-.097-.026 0-.048-.044-.048-.098 0-.054-.021-.098-.048-.098-.026 0-.048-.044-.048-.097 0-.054-.022-.098-.048-.098-.027 0-.048-.044-.048-.097 0-.054-.022-.098-.049-.098-.026 0-.048-.066-.048-.146 0-.081-.021-.147-.048-.147-.026 0-.048-.066-.048-.146 0-.08-.022-.147-.048-.147a.049.049 0 0 1-.048-.048c0-.033 3.565-.05 10.6-.05h10.599v-3.172c0-1.745-.012-3.172-.026-3.172-.015 0-.22.197-.456.439-.237.242-.454.44-.483.44-.03 0-.159.11-.288.243-.13.135-.26.244-.289.244-.03 0-.04.022-.024.05.016.026-.006.048-.05.048-.044 0-.141.066-.215.146-.074.08-.161.147-.193.147s-.118.066-.193.146c-.074.08-.164.147-.2.147-.037 0-.099.044-.137.097-.038.054-.099.098-.134.098-.105 0-.203.129-.203.265 0 .125.001.125.413.125.572 0 .55-.037.55.977 0 .66-.014.85-.068.906-.118.119-19.336.103-19.426-.016-.076-.101-.092-.793-.018-.793.028 0 .048-.179.048-.44 0-.26.02-.439.048-.439.027 0 .048-.13.048-.292 0-.163.022-.293.048-.293.027 0 .049-.088.049-.195 0-.108.021-.196.048-.196.026 0 .048-.065.048-.146 0-.08.022-.146.048-.146.027 0 .048-.066.048-.147 0-.08.022-.146.048-.146.027 0 .049-.066.049-.147 0-.08.021-.146.048-.146.026 0 .048-.044.048-.098 0-.053.022-.097.048-.097.027 0 .048-.044.048-.098 0-.054.022-.098.048-.098.027 0 .049-.044.049-.097 0-.054.021-.098.048-.098.026 0 .048-.044.048-.097 0-.054.022-.098.048-.098.027 0 .048-.044.048-.098 0-.053.022-.097.049-.097.026 0 .048-.044.048-.098 0-.054.021-.098.048-.098.026 0 .048-.039.048-.086 0-.048.043-.119.096-.158.053-.038.097-.104.097-.146 0-.042.043-.108.096-.146.053-.04.096-.105.096-.147 0-.042.044-.108.097-.146.053-.039.096-.105.096-.147 0-.041.044-.107.097-.146.053-.039.096-.1.096-.136 0-.036.108-.173.24-.303.133-.131.242-.262.242-.29 0-.07 1.284-1.37 1.352-1.37.029 0 .136-.088.238-.195.102-.107.21-.195.242-.195.03 0 .117-.066.191-.147.075-.08.165-.146.202-.146.036 0 .097-.044.136-.098.038-.053.103-.097.144-.097.041 0 .107-.044.145-.098.038-.054.103-.097.144-.097.041 0 .107-.044.145-.098.038-.054.103-.098.144-.098.042 0 .107-.044.145-.097.038-.054.108-.098.155-.098s.086-.022.086-.049c0-.027.043-.048.096-.048.053 0 .096-.023.096-.05 0-.026.044-.048.097-.048.053 0 .096-.022.096-.049 0-.027.044-.049.097-.049.053 0 .096-.022.096-.049 0-.026.043-.048.096-.048.053 0 .097-.022.097-.05 0-.026.043-.048.096-.048.053 0 .096-.022.096-.049 0-.027.044-.049.097-.049.053 0 .096-.022.096-.049 0-.026.044-.048.096-.048.053 0 .097-.022.097-.05 0-.026.043-.048.096-.048.053 0 .097-.022.097-.049 0-.027.043-.049.096-.049.053 0 .096-.021.096-.048s.065-.05.145-.05c.08 0 .144-.021.144-.048s.044-.049.097-.049c.053 0 .096-.022.096-.049 0-.026.065-.048.145-.048.08 0 .144-.022.144-.05 0-.026.043-.048.096-.048.053 0 .097-.022.097-.049 0-.027.065-.049.144-.049.08 0 .145-.022.145-.048 0-.027.065-.05.144-.05.08 0 .145-.021.145-.048s.065-.049.144-.049c.08 0 .145-.022.145-.049 0-.026.065-.048.145-.048.08 0 .144-.022.144-.05 0-.026.087-.048.193-.048.106 0 .193-.022.193-.049 0-.027.065-.049.144-.049.08 0 .145-.022.145-.048 0-.027.086-.05.192-.05.106 0 .193-.021.193-.048s.087-.049.193-.049c.106 0 .193-.022.193-.049 0-.026.086-.048.192-.048.106 0 .193-.022.193-.05 0-.026.108-.048.24-.048.133 0 .242-.022.242-.049 0-.027.108-.049.24-.049.133 0 .242-.022.242-.048 0-.027.108-.05.24-.05.133 0 .241-.021.241-.048 0-.028.145-.049.338-.049.192 0 .337-.02.337-.049 0-.028.144-.048.337-.048.193 0 .337-.021.337-.05 0-.028.186-.048.461-.048.295 0 .45-.018.43-.049-.019-.032.209-.049.648-.049.42 0 .678-.018.678-.048 0-.031.337-.05.915-.05.504 0 .916-.011.916-.026 0-.049-.236-.266-.29-.266-.073 0-.289-.227-.289-.304 0-.036-.043-.097-.096-.136-.053-.038-.096-.104-.096-.146 0-.042-.044-.108-.097-.146-.053-.039-.096-.11-.096-.158 0-.047-.022-.086-.048-.086-.027 0-.048-.066-.048-.147 0-.08-.022-.146-.049-.146-.026 0-.048-.066-.048-.147 0-.08-.021-.146-.048-.146-.026 0-.048-.066-.048-.146 0-.081-.022-.147-.048-.147-.027 0-.049-.088-.049-.195 0-.107-.021-.195-.048-.195s-.048-.13-.048-.293c0-.163-.021-.293-.048-.293s-.046-.016-.043-.037c.056-.356-.017-1.232-.102-1.232-.053 0-.096.022-.096.049 0 .027-.065.049-.144.049-.08 0-.145.022-.145.048 0 .027-.087.05-.193.05-.106 0-.192.021-.192.048s-.087.049-.193.049c-.106 0-.193.022-.193.049 0 .026-.108.048-.24.048-.133 0-.242.022-.242.05 0 .026-.086.048-.192.048-.107 0-.193.022-.193.049 0 .027-.109.049-.241.049-.133 0-.241.022-.241.048 0 .028-.128.05-.289.05-.16 0-.29.021-.29.048s-.128.049-.288.049c-.16 0-.29.022-.29.049 0 .028-.144.048-.337.048-.192 0-.337.021-.337.05 0 .028-.16.048-.385.048s-.386.02-.386.049c0 .03-.191.049-.479.049-.267 0-.492.021-.508.048-.018.03-.33.05-.771.05-.442 0-.753.02-.771.048-.019.031-.603.049-1.593.049-1.01 0-1.563-.017-1.563-.049 0-.03-.289-.049-.77-.049-.483 0-.772-.018-.772-.049 0-.03-.208-.048-.53-.048-.32 0-.53-.02-.53-.05 0-.028-.176-.048-.433-.048s-.434-.02-.434-.049c0-.028-.144-.049-.337-.049-.193 0-.337-.02-.337-.048s-.145-.05-.338-.05c-.192 0-.337-.02-.337-.048 0-.027-.108-.049-.24-.049-.133 0-.242-.022-.242-.049 0-.027-.128-.048-.289-.048-.16 0-.289-.022-.289-.05 0-.026-.108-.048-.24-.048-.133 0-.242-.022-.242-.049 0-.027-.108-.049-.24-.049-.133 0-.241-.022-.241-.048 0-.027-.087-.05-.193-.05-.106 0-.193-.021-.193-.048s-.087-.049-.193-.049c-.106 0-.192-.022-.192-.049 0-.026-.087-.048-.193-.048-.106 0-.193-.022-.193-.05a.049.049 0 0 0-.048-.048c-.029 0-.048.195-.048.488M33.01 7.601c-.12.131-.246.24-.282.241-.036.002-.126.069-.2.15-.074.08-.17.146-.212.146-.043 0-.077.022-.077.048 0 .027-.039.05-.086.05-.047 0-.117.043-.155.097-.038.054-.108.098-.155.098s-.086.022-.086.048c0 .027-.065.05-.145.05-.079 0-.144.021-.144.048s-.087.049-.193.049c-.106 0-.192.022-.192.049 0 .026-.066.049-.145.049-.08 0-.145.021-.145.048s-.065.05-.144.05c-.08 0-.145.021-.145.048s-.043.049-.096.049c-.053 0-.096.022-.096.049 0 .026-.039.048-.086.048-.047 0-.117.044-.155.098-.039.054-.108.098-.156.098-.047 0-.085.021-.085.048s-.033.05-.073.05c-.095 0-.89.805-.89.901 0 .041-.022.074-.049.074-.026 0-.048.044-.048.098 0 .054-.022.097-.048.097-.027 0-.048.044-.048.098 0 .054-.022.098-.049.098-.026 0-.048.044-.048.097 0 .054-.022.098-.048.098-.027 0-.048.066-.048.146 0 .08-.022.147-.048.147-.027 0-.049.11-.049.244s-.021.244-.048.244c-.026 0-.048.11-.048.244v.244h2.891v1.17H24c-4.754 0-7.179.017-7.179.05 0 .026.044.048.096.048.053 0 .097.022.097.049 0 .027.043.048.096.048.053 0 .097.022.097.05 0 .026.043.048.096.048.053 0 .096.022.096.049 0 .027.044.049.097.049.053 0 .096.022.096.048 0 .027.043.05.096.05.053 0 .097.021.097.048s.038.049.086.049c.047 0 .117.044.155.098.038.053.103.097.144.097.042 0 .107.044.145.098.038.053.1.097.136.097.036 0 .127.066.201.147.074.08.17.146.212.146.042 0 .077.022.077.05 0 .031 2.441.048 7.227.048h7.227v-3.66c0-4.146.03-3.875-.385-3.417m-8.432 1.903c-.038.054-.099.098-.134.098-.089 0-.203.122-.203.216 0 .042-.022.077-.048.077-.027 0-.048.044-.048.097 0 .054-.022.098-.049.098-.026 0-.048.13-.048.293 0 .163.022.293.048.293.027 0 .049.055.049.123 0 .168.386.56.552.56.067 0 .122.022.122.049 0 .027.129.049.29.049.16 0 .288-.022.288-.05 0-.026.055-.048.122-.048.136 0 .553-.385.553-.511 0-.041.021-.075.048-.075s.048-.146.048-.341c0-.196-.02-.342-.048-.342-.027 0-.048-.044-.048-.098 0-.053-.022-.097-.048-.097-.027 0-.049-.034-.049-.076 0-.097-.214-.315-.31-.315-.041 0-.075-.022-.075-.048 0-.105-.935-.06-1.012.048m6.6 1.025v.537h-.577c-.546 0-.579-.005-.579-.098 0-.053.022-.097.049-.097.026 0 .048-.066.048-.147 0-.08.021-.146.048-.146.026 0 .048-.034.048-.075 0-.097.312-.413.408-.413.04 0 .074-.022.074-.049 0-.027.108-.049.24-.049h.242v.537Zm2.699 10.055c0 .026-.044.048-.096.048-.053 0-.097.022-.097.05 0 .026-.034.048-.076.048a.244.244 0 0 0-.213.216c0 .042-.022.077-.048.077-.027 0-.048.045-.048.1 0 .055-.022.087-.049.07-.03-.019-.048.122-.048.388 0 .246.02.418.048.418.027 0 .049.034.049.075 0 .04.075.15.167.244.092.093.2.169.24.169.041 0 .075.022.075.049 0 .029.176.049.433.049s.434-.02.434-.05c0-.026.033-.048.073-.048.107 0 .505-.42.505-.533 0-.053.022-.11.048-.126.027-.017.048-.139.048-.271 0-.133-.021-.241-.048-.241-.026 0-.048-.056-.048-.124 0-.137-.38-.56-.505-.56-.04 0-.073-.022-.073-.048 0-.029-.16-.05-.386-.05-.225 0-.385.021-.385.05M1.5 38.398V46.5h3.613c2.377 0 3.614-.017 3.614-.049 0-.027.128-.049.29-.049.16 0 .288-.021.288-.048s.087-.05.193-.05c.106 0 .193-.021.193-.048s.065-.049.144-.049c.08 0 .145-.022.145-.049 0-.026.065-.048.144-.048.08 0 .145-.022.145-.05 0-.026.043-.048.096-.048.053 0 .096-.022.096-.049 0-.027.044-.049.097-.049.053 0 .096-.022.096-.048 0-.027.043-.05.096-.05.053 0 .097-.021.097-.048s.043-.049.096-.049c.053 0 .097-.022.097-.049 0-.027.034-.048.076-.048.041 0 .16-.088.26-.196.103-.107.211-.195.242-.195.071 0 .193-.123.193-.196 0-.03.086-.14.192-.243.106-.103.193-.218.193-.254 0-.037.043-.098.096-.137.053-.038.097-.11.097-.157 0-.048.021-.087.048-.087.026 0 .048-.066.048-.146 0-.08.022-.147.048-.147.027 0 .048-.043.048-.097 0-.054.022-.098.049-.098.026 0 .048-.088.048-.195 0-.107.021-.195.048-.195.026 0 .048-.11.048-.244 0-.135.022-.244.048-.244.03 0 .048-.31.048-.83s-.018-.83-.048-.83c-.027 0-.048-.13-.048-.293 0-.162-.021-.292-.048-.292s-.048-.088-.048-.196c0-.107-.022-.195-.048-.195-.027 0-.049-.044-.049-.097 0-.054-.021-.098-.048-.098-.026 0-.048-.066-.048-.146 0-.081-.022-.147-.048-.147-.027 0-.048-.04-.048-.087 0-.048-.044-.118-.097-.157-.053-.039-.096-.1-.096-.138 0-.037-.065-.128-.145-.204-.08-.075-.144-.162-.144-.194 0-.073-.121-.196-.194-.196-.031 0-.117-.066-.192-.147-.074-.08-.17-.146-.212-.146-.042 0-.077-.022-.077-.049 0-.027-.043-.049-.096-.049-.053 0-.096-.022-.096-.048 0-.027-.044-.05-.097-.05-.053 0-.096-.021-.096-.048s-.044-.049-.097-.049c-.053 0-.096-.022-.096-.049 0-.026-.087-.048-.193-.048-.106 0-.192-.022-.192-.05 0-.026-.087-.048-.193-.048-.106 0-.193-.012-.193-.027 0-.048.236-.266.288-.266.074 0 .676-.62.676-.696 0-.035.043-.095.096-.134.053-.038.097-.11.097-.157 0-.048.021-.087.048-.087.026 0 .048-.044.048-.097 0-.054.022-.098.048-.098.027 0 .048-.066.048-.146 0-.08.022-.147.048-.147.027 0 .049-.11.049-.244s.021-.244.048-.244c.03 0 .048-.39.048-1.073 0-.684-.018-1.074-.048-1.074-.027 0-.048-.11-.048-.244 0-.135-.022-.244-.049-.244-.026 0-.048-.066-.048-.147 0-.08-.021-.146-.048-.146-.026 0-.048-.066-.048-.147 0-.08-.022-.146-.048-.146-.027 0-.048-.039-.048-.087 0-.048-.044-.118-.097-.157-.053-.039-.096-.105-.096-.146 0-.042-.044-.108-.097-.147-.053-.039-.096-.099-.096-.134 0-.083-.412-.5-.494-.5-.034 0-.094-.044-.132-.098-.038-.054-.103-.098-.145-.098-.041 0-.106-.044-.144-.097-.038-.054-.108-.098-.155-.098-.048 0-.086-.022-.086-.049 0-.027-.065-.049-.145-.049-.08 0-.144-.021-.144-.048s-.065-.05-.145-.05c-.08 0-.144-.021-.144-.048s-.065-.049-.145-.049c-.08 0-.144-.022-.144-.049 0-.027-.146-.048-.34-.048-.215 0-.33-.018-.31-.05.019-.031-1.068-.048-3.226-.048H1.5v8.102Zm12.816 0V46.5h3.951v-4.93c0-2.71.011-4.93.025-4.93.05 0 .36.34.36.395 0 .03.065.116.145.192.08.075.144.163.144.195s.065.12.145.195c.08.075.144.167.144.204 0 .037.043.1.096.138.054.038.097.1.097.135 0 .036.022.052.048.036.027-.017.048.006.048.05 0 .045.065.143.145.218.08.075.144.167.144.204 0 .037.044.099.097.138.053.038.096.1.096.137 0 .037.065.13.145.204.079.076.144.163.144.195 0 .033.065.12.145.196.08.075.144.163.144.195s.065.12.145.195c.08.075.144.163.144.196 0 .032.065.12.145.195.08.075.144.163.144.195s.065.12.145.195c.08.075.144.163.144.195s.065.12.145.196c.08.075.145.167.145.204 0 .037.043.099.096.137.053.039.096.1.096.138 0 .037.065.129.145.204.08.075.144.163.144.195s.065.12.145.195c.08.076.144.163.144.196 0 .032.066.12.145.195.08.075.145.163.145.195s.065.12.144.195c.08.075.145.163.145.196 0 .032.065.12.144.195.08.075.145.163.145.195s.065.12.144.195c.08.075.145.167.145.204 0 .037.043.1.096.138.053.038.096.1.096.137 0 .037.065.13.145.204.08.076.145.164.145.196s.065.12.144.195c.08.075.145.163.145.195s.065.12.144.195c.08.076.145.163.145.196 0 .032.065.12.144.195.08.075.145.163.145.195s.06.117.132.188a.616.616 0 0 1 .146.193c.007.035.087.139.179.232l.166.168h4.002V30.296H25.59v4.93c0 2.71-.012 4.93-.028 4.93-.049 0-.165-.139-.165-.197 0-.032-.065-.12-.144-.194-.08-.076-.145-.163-.145-.196 0-.032-.065-.12-.144-.195-.08-.075-.145-.163-.145-.195s-.065-.12-.145-.195c-.079-.075-.144-.167-.144-.204 0-.037-.043-.1-.096-.138-.053-.039-.097-.1-.097-.138 0-.037-.065-.128-.144-.204-.08-.075-.145-.163-.145-.195s-.065-.12-.144-.195c-.08-.075-.145-.163-.145-.195s-.065-.12-.144-.195c-.08-.076-.145-.164-.145-.196s-.065-.12-.144-.195c-.08-.075-.145-.163-.145-.195s-.065-.12-.145-.195c-.08-.076-.144-.163-.144-.196 0-.032-.065-.12-.145-.195-.08-.075-.144-.167-.144-.204 0-.037-.044-.099-.097-.138-.052-.038-.096-.1-.096-.137 0-.037-.065-.129-.145-.204-.08-.075-.144-.163-.144-.195s-.065-.12-.145-.196c-.08-.075-.144-.163-.144-.195s-.065-.12-.145-.195c-.08-.075-.144-.163-.144-.195 0-.033-.065-.12-.145-.195-.08-.076-.144-.164-.144-.196s-.065-.12-.145-.195c-.08-.075-.144-.163-.144-.195s-.065-.12-.145-.195c-.08-.076-.144-.168-.144-.204 0-.037-.044-.1-.097-.138-.053-.039-.096-.1-.096-.138 0-.037-.065-.128-.145-.204-.08-.075-.144-.163-.144-.195s-.065-.12-.145-.195c-.08-.075-.144-.163-.144-.195s-.065-.12-.145-.196c-.08-.075-.144-.163-.144-.195s-.065-.12-.145-.195c-.08-.075-.145-.163-.145-.195 0-.033-.065-.12-.144-.195-.08-.076-.145-.164-.145-.196s-.065-.12-.144-.195c-.08-.075-.145-.167-.145-.204 0-.037-.043-.099-.096-.138-.053-.038-.096-.1-.096-.135s-.054-.118-.119-.184l-.118-.12h-4.003v8.102Zm22.355-7.956c0 .081-.021.147-.048.147-.026 0-.048.066-.048.146 0 .08-.022.147-.048.147-.027 0-.048.066-.048.146 0 .08-.022.147-.049.147-.026 0-.048.066-.048.146 0 .08-.022.147-.048.147-.027 0-.048.065-.048.146 0 .08-.022.146-.048.146-.027 0-.049.044-.049.098 0 .054-.021.098-.048.098-.026 0-.048.065-.048.146 0 .08-.022.146-.048.146-.027 0-.048.066-.048.147 0 .08-.022.146-.048.146-.027 0-.049.066-.049.147 0 .08-.021.146-.048.146-.026 0-.048.066-.048.146 0 .081-.022.147-.048.147-.027 0-.048.067-.048.15 0 .086-.02.136-.048.118-.028-.017-.049.024-.049.095 0 .069-.021.125-.048.125-.026 0-.048.066-.048.146 0 .08-.022.147-.048.147-.027 0-.048.066-.048.146 0 .08-.022.147-.049.147-.026 0-.048.066-.048.146 0 .08-.021.147-.048.147-.026 0-.048.065-.048.146 0 .08-.022.146-.048.146-.027 0-.048.044-.048.098 0 .054-.022.098-.049.098-.026 0-.048.065-.048.146 0 .08-.021.146-.048.146-.026 0-.048.066-.048.147 0 .08-.022.146-.048.146-.027 0-.049.066-.049.147 0 .08-.021.146-.048.146-.026 0-.048.066-.048.146 0 .081-.022.147-.048.147-.027 0-.048.066-.048.146 0 .08-.022.147-.048.147-.027 0-.049.044-.049.097 0 .054-.021.098-.048.098-.026 0-.048.066-.048.146 0 .08-.022.147-.048.147-.027 0-.048.066-.048.146 0 .08-.022.147-.048.147-.027 0-.049.066-.049.146 0 .08-.021.147-.048.147-.026 0-.048.065-.048.146 0 .08-.022.146-.048.146-.027 0-.048.066-.048.147 0 .08-.022.146-.049.146-.026 0-.048.044-.048.098 0 .054-.021.097-.048.097-.026 0-.048.066-.048.147 0 .08-.022.146-.048.146-.027 0-.048.066-.048.147 0 .08-.022.146-.049.146-.026 0-.048.066-.048.146 0 .081-.022.147-.048.147-.027 0-.048.066-.048.146 0 .08-.022.147-.048.147-.027 0-.049.044-.049.097 0 .054-.021.098-.048.098-.026 0-.048.066-.048.147 0 .08-.022.146-.048.146-.027 0-.048.066-.048.146 0 .08-.022.147-.049.147-.026 0-.048.066-.048.146 0 .08-.021.147-.048.147-.026 0-.048.065-.048.146 0 .08-.022.146-.048.146-.027 0-.048.066-.048.147 0 .08-.022.146-.049.146-.026 0-.048.044-.048.098 0 .054-.021.097-.048.097-.026 0-.048.066-.048.147 0 .08-.022.146-.048.146-.027 0-.048.066-.048.147 0 .08-.022.146-.049.146-.026 0-.048.066-.048.146 0 .081-.021.147-.048.147-.026 0-.048.066-.048.146 0 .08-.022.147-.048.147-.027 0-.049.066-.049.146 0 .08-.021.147-.048.147-.026 0-.048.044-.048.097 0 .054-.022.098-.048.098-.027 0-.048.066-.048.146 0 .08-.022.147-.048.147-.027 0-.049.066-.049.146 0 .08-.021.147-.048.147-.026 0-.048.065-.048.146 0 .08-.022.146-.048.146-.027 0-.048.066-.048.147 0 .08-.022.146-.048.146-.027 0-.049.044-.049.098 0 .054-.021.097-.048.097-.026 0-.048.066-.048.147 0 .08-.022.146-.048.146-.027 0-.048.066-.048.147 0 .08-.022.146-.049.146-.026 0-.048.066-.048.147 0 .08-.021.146-.048.146-.026 0-.048.066-.048.147 0 .08-.022.146-.048.146-.027 0-.048.066-.048.146 0 .08-.022.147-.049.147-.026 0-.048.044-.048.097 0 .054-.021.098-.048.098-.026 0-.048.066-.048.146 0 .08-.022.147-.048.147-.027 0-.048.044-.048.097 0 .096.032.098 2.071.098h2.072v-.146c0-.081.022-.147.048-.147.027 0 .048-.066.048-.146 0-.08.022-.147.048-.147.027 0 .049-.044.049-.097 0-.054.021-.098.048-.098.026 0 .048-.066.048-.146 0-.08.022-.147.048-.147.027 0 .048-.066.048-.146 0-.08.022-.147.049-.147.026 0 .048-.066.048-.146 0-.08.021-.147.048-.147.026 0 .048-.043.048-.097 0-.054.022-.098.048-.098.027 0 .048-.066.048-.146 0-.08.022-.147.049-.147.026 0 .048-.065.048-.146 0-.08.021-.146.048-.146.026 0 .048-.044.048-.098 0-.054.022-.098.048-.098.027 0 .048-.043.048-.097 0-.097.032-.098 2.566-.096 2.689.001 2.734.005 2.734.211 0 .044.022.08.048.08.027 0 .049.066.049.146 0 .081.021.147.048.147.026 0 .048.066.048.146 0 .08.022.147.048.147.027 0 .048.066.048.146 0 .08.022.146.048.146.027 0 .049.067.049.147 0 .08.021.146.048.146.026 0 .048.066.048.147 0 .08.022.146.048.146.027 0 .048.066.048.147 0 .08.022.146.049.146.026 0 .048.044.048.098 0 .053.022.097.048.097.026 0 .048.066.048.147 0 .08.022.146.048.146.027 0 .049.066.049.147v.146h2.071c2.04 0 2.072-.002 2.072-.098 0-.053-.022-.097-.048-.097-.027 0-.048-.066-.048-.147 0-.08-.022-.146-.049-.146-.026 0-.048-.066-.048-.146 0-.081-.021-.147-.048-.147-.026 0-.048-.066-.048-.146 0-.08-.022-.147-.048-.147-.027 0-.048-.066-.048-.146 0-.08-.022-.147-.049-.147-.026 0-.048-.044-.048-.097 0-.054-.021-.098-.048-.098-.026 0-.048-.066-.048-.146 0-.08-.022-.147-.048-.147-.027 0-.048-.066-.048-.146 0-.08-.022-.147-.049-.147-.026 0-.048-.065-.048-.146 0-.08-.022-.146-.048-.146-.027 0-.048-.066-.048-.147 0-.08-.022-.146-.048-.146-.027 0-.049-.066-.049-.147 0-.08-.021-.146-.048-.146-.026 0-.048-.066-.048-.146 0-.081-.022-.147-.048-.147-.027 0-.048-.066-.048-.146 0-.08-.022-.147-.048-.147-.027 0-.049-.044-.049-.097 0-.054-.021-.098-.048-.098-.026 0-.048-.066-.048-.146 0-.08-.022-.147-.048-.147-.027 0-.048-.066-.048-.146 0-.08-.022-.147-.048-.147-.027 0-.049-.066-.049-.146 0-.08-.022-.147-.048-.147-.026 0-.048-.065-.048-.146 0-.08-.022-.146-.048-.146-.027 0-.049-.066-.049-.147 0-.08-.021-.146-.048-.146-.026 0-.048-.066-.048-.147 0-.08-.022-.146-.048-.146-.027 0-.048-.066-.048-.146 0-.081-.022-.147-.048-.147-.027 0-.049-.066-.049-.146 0-.08-.021-.147-.048-.147-.026 0-.048-.044-.048-.097 0-.054-.022-.098-.048-.098-.027 0-.048-.066-.048-.146 0-.08-.022-.147-.048-.147-.027 0-.049-.066-.049-.146 0-.08-.021-.147-.048-.147-.026 0-.048-.066-.048-.146 0-.08-.022-.147-.048-.147-.027 0-.048-.065-.048-.146 0-.08-.022-.146-.049-.146-.026 0-.048-.066-.048-.147 0-.08-.021-.146-.048-.146-.026 0-.048-.066-.048-.147 0-.08-.022-.146-.048-.146-.027 0-.048-.066-.048-.146 0-.08-.022-.147-.049-.147-.026 0-.048-.044-.048-.097 0-.054-.021-.098-.048-.098-.026 0-.048-.066-.048-.146 0-.081-.022-.147-.048-.147-.027 0-.048-.066-.048-.146 0-.08-.022-.147-.049-.147-.026 0-.048-.066-.048-.146 0-.08-.022-.146-.048-.146-.027 0-.048-.067-.048-.147 0-.08-.022-.146-.048-.146-.027 0-.049-.066-.049-.147 0-.08-.021-.146-.048-.146-.026 0-.048-.066-.048-.147 0-.08-.022-.146-.048-.146-.027 0-.048-.066-.048-.147 0-.08-.022-.146-.048-.146-.027 0-.049-.044-.049-.098 0-.053-.021-.097-.048-.097-.026 0-.048-.066-.048-.147 0-.08-.022-.146-.048-.146-.027 0-.048-.066-.048-.146 0-.081-.022-.147-.049-.147-.026 0-.048-.066-.048-.146 0-.08-.021-.147-.048-.147-.026 0-.048-.065-.048-.146 0-.08-.022-.146-.048-.146-.027 0-.048-.066-.048-.147 0-.08-.022-.146-.049-.146-.026 0-.048-.066-.048-.147 0-.08-.022-.146-.048-.146-.026 0-.048-.066-.048-.147 0-.08-.022-.146-.048-.146-.027 0-.049-.044-.049-.098 0-.053-.021-.097-.048-.097-.026 0-.048-.066-.048-.147 0-.08-.022-.146-.048-.146-.027 0-.048-.066-.048-.147 0-.08-.022-.146-.049-.146-.026 0-.048-.066-.048-.146 0-.08-.021-.147-.048-.147-.026 0-.048-.066-.048-.146 0-.08-.022-.147-.048-.147-.027 0-.048-.065-.048-.146 0-.08-.022-.146-.049-.146-.026 0-.048-.066-.048-.147 0-.08-.021-.146-.048-.146-.026 0-.048-.066-.048-.147 0-.08-.022-.146-.048-.146-.027 0-.048-.044-.048-.098 0-.053-.022-.097-.049-.097-.026 0-.048-.066-.048-.147 0-.08-.021-.146-.048-.146-.026 0-.048-.066-.048-.147 0-.08-.022-.146-.048-.146-.027 0-.049-.066-.049-.147v-.146h-4.336v.146ZM6.318 33.468c0 .028.128.05.29.05.16 0 .288.021.288.048s.067.049.148.049c.086 0 .135.02.117.049-.016.027.004.049.045.049.042 0 .076.021.076.048s.033.05.074.05c.096 0 .311.217.311.314 0 .042.022.076.048.076.027 0 .048.044.048.097 0 .054.022.098.049.098.026 0 .048.088.048.195 0 .108.021.195.048.195.026 0 .048.088.048.196 0 .107-.022.195-.048.195-.027 0-.048.11-.048.244s-.022.244-.048.244c-.027 0-.049.033-.049.074 0 .097-.505.61-.6.61-.041 0-.074.021-.074.048s-.087.049-.193.049c-.106 0-.193.022-.193.049 0 .03-.24.048-.626.048h-.626V33.42h.433c.257 0 .434.02.434.048m32.57 2.05c0 .081.021.147.048.147.026 0 .048.066.048.146 0 .08.022.147.048.147.027 0 .048.066.048.146 0 .08.022.146.048.146.027 0 .049.088.049.196 0 .107.021.195.048.195.026 0 .048.066.048.146 0 .08.022.147.048.147.027 0 .048.066.048.146 0 .08.022.147.049.147.026 0 .048.066.048.146 0 .08.021.147.048.147s.048.087.048.195c0 .107.022.195.048.195.027 0 .049.066.049.146 0 .081.021.147.048.147.026 0 .048.066.048.146 0 .08.022.147.048.147.027 0 .048.065.048.146 0 .08.022.146.048.146.027 0 .049.088.049.196 0 .107.021.195.048.195.026 0 .048.066.048.146 0 .08.022.147.048.147.027 0 .048.066.048.146 0 .08.022.147.048.147.027 0 .049.066.049.146 0 .08.021.147.048.147.026 0 .048.087.048.195v.195h-1.542c-.996 0-1.541-.017-1.541-.049 0-.027.021-.049.048-.049.026 0 .048-.087.048-.195 0-.107.022-.195.048-.195.027 0 .048-.066.048-.146 0-.081.022-.147.048-.147.027 0 .049-.066.049-.146 0-.08.021-.147.048-.147.026 0 .048-.066.048-.146 0-.08.022-.147.048-.147.027 0 .048-.088.048-.195 0-.107.022-.195.048-.195.027 0 .049-.066.049-.147 0-.08.021-.146.048-.146.026 0 .048-.066.048-.146 0-.08.022-.147.048-.147.027 0 .048-.066.048-.146 0-.08.022-.147.049-.147.026 0 .048-.065.048-.146 0-.08.021-.146.048-.146.026 0 .048-.088.048-.196 0-.107.022-.195.048-.195.027 0 .048-.066.048-.146 0-.08.022-.147.049-.147.026 0 .048-.066.048-.146 0-.08.021-.147.048-.147.026 0 .048-.066.048-.146 0-.08.022-.147.048-.147.027 0 .048-.087.048-.195 0-.107.022-.195.049-.195.026 0 .048-.066.048-.146 0-.08.021-.147.048-.147s.048-.044.048-.097c0-.054.022-.098.048-.098.027 0 .049.066.049.146m-31.414 3.32c0 .026.087.048.193.048.106 0 .193.022.193.049 0 .027.06.049.134.049.078 0 .162.04.203.097.038.054.098.098.133.098.087 0 .397.322.397.413 0 .041.022.075.048.075.027 0 .048.066.048.147 0 .08.022.146.049.146.029 0 .048.228.048.586 0 .357-.02.585-.048.585-.027 0-.049.044-.049.098 0 .054-.021.097-.048.097-.026 0-.048.034-.048.075 0 .098-.312.413-.408.413-.04 0-.074.022-.074.05 0 .026-.043.048-.096.048-.053 0-.097.022-.097.049 0 .027-.043.049-.096.049-.053 0-.096.022-.096.048 0 .027-.087.05-.193.05-.106 0-.193.021-.193.048 0 .03-.233.049-.602.049-.37 0-.602.019-.602.049 0 .028-.169.049-.41.049h-.41v-3.515h1.013c.642 0 1.011.018 1.011.05"/>
</svg>
