<svg>
  <path d="M4.344 15.874h3.309c.652 0 1.179.089 1.58.267.402.178.734.434.996.767s.452.72.57 1.162c.118.442.177.91.177 1.406 0 .775-.087 1.376-.263 1.803a2.986 2.986 0 0 1-.73 1.074 2.38 2.38 0 0 1-1.003.576c-.488.132-.93.198-1.327.198H4.344v-7.253Zm2.227 1.642v3.963h.546c.465 0 .796-.051.993-.155.197-.104.35-.286.462-.545.112-.259.167-.678.167-1.259 0-.768-.124-1.294-.373-1.578-.25-.284-.662-.426-1.24-.426h-.555Zm8.162 1.43h1.49v1.183h-1.318c-.017.28-.068.532-.153.757-.069.171-.183.35-.344.534.184-.043.34-.064.472-.064.167 0 .385.033.654.099.367.085.66.128.88.128.18 0 .337-.015.47-.047a3 3 0 0 0 .523-.195l.669 1.474c-.325.165-.61.28-.856.342s-.51.094-.791.094a4.05 4.05 0 0 1-1.057-.164 16.416 16.416 0 0 0-.969-.252A2.213 2.213 0 0 0 14 22.8c-.423 0-.89.15-1.401.45l-.634-1.404c.688-.498 1.032-.997 1.032-1.495 0-.026-.003-.1-.01-.222h-1.022v-1.183h.732a31.363 31.363 0 0 1-.211-.757 2.181 2.181 0 0 1-.03-.39c0-.413.11-.783.327-1.111.218-.329.505-.567.86-.715.356-.149.836-.223 1.439-.223.563 0 1.01.063 1.34.19.329.127.607.339.835.634.228.295.384.652.47 1.071l-1.878.297c-.095-.353-.204-.587-.327-.703a.597.597 0 0 0-.42-.173.606.606 0 0 0-.463.188c-.118.125-.177.304-.177.534 0 .123.012.24.035.354.023.114.101.382.236.804Zm3.416-3.072h2.33l1.623 5.22 1.598-5.22h2.262l-2.675 7.253h-2.414l-2.724-7.253Zm8.634 0h2.232v7.253h-2.232v-7.253Zm3.441 4.853 2.12-.133c.045.346.138.61.28.791.229.294.557.44.983.44.318 0 .563-.074.735-.224.172-.15.258-.324.258-.522 0-.188-.082-.357-.246-.505-.164-.148-.544-.289-1.14-.42-.977-.222-1.674-.515-2.09-.881a1.776 1.776 0 0 1-.63-1.4c0-.373.108-.725.323-1.057.214-.331.537-.592.968-.782.431-.19 1.022-.284 1.773-.284.92 0 1.623.172 2.106.517.484.345.771.893.863 1.645l-2.1.124c-.055-.327-.172-.564-.35-.713-.18-.148-.426-.222-.74-.222-.26 0-.455.055-.586.165a.51.51 0 0 0-.196.404c0 .115.054.22.162.311.105.096.354.185.747.268.974.21 1.67.424 2.092.64.421.216.728.484.92.804.191.32.287.678.287 1.074 0 .465-.128.894-.383 1.286-.256.393-.613.69-1.072.893-.46.203-1.038.305-1.736.305-1.226 0-2.074-.238-2.546-.713s-.74-1.078-.802-1.81Zm7.655-4.853h5.969v1.548H40.11v1.153h3.466v1.48H40.11v1.43h3.845v1.642h-6.077v-7.253ZM7.38 26.024l-1.829.293c-.092-.235-.174-.397-.248-.488a1.223 1.223 0 0 0-.366-.274v1.43c.996.267 1.661.549 1.996.846.442.399.663.905.663 1.519 0 .36-.08.689-.238.99a2.45 2.45 0 0 1-1.399 1.19c-.278.09-.62.143-1.022.16v.935h-.718v-.935c-.482-.043-.873-.121-1.173-.235a2.371 2.371 0 0 1-.777-.473 2.314 2.314 0 0 1-.504-.65 3.053 3.053 0 0 1-.265-.844l1.986-.232c.06.326.139.562.239.707.1.145.264.274.494.386v-1.746c-.662-.185-1.132-.345-1.409-.48a1.87 1.87 0 0 1-.72-.651c-.203-.299-.305-.662-.305-1.091 0-.587.204-1.078.612-1.472.408-.394 1.015-.613 1.822-.656v-.49h.718v.49c.734.047 1.295.221 1.683.525.389.303.642.719.76 1.247Zm-3.161-.494c-.21.07-.356.155-.438.257a.56.56 0 0 0-.123.361c0 .146.042.272.126.379.083.107.228.197.435.27V25.53Zm.718 4.869c.278-.063.482-.166.612-.31a.702.702 0 0 0 .194-.482.65.65 0 0 0-.165-.428c-.11-.13-.323-.252-.641-.364V30.4Zm10.152.113c.279.195.46.317.546.366.128.073.3.157.516.253l-.62 1.257a7.212 7.212 0 0 1-.924-.542 7.921 7.921 0 0 1-.639-.473c-.492.215-1.108.322-1.849.322-1.094 0-1.958-.287-2.59-.861-.748-.68-1.121-1.634-1.121-2.865 0-1.194.327-2.122.98-2.783.654-.661 1.568-.992 2.741-.992 1.197 0 2.12.323 2.77.97.651.646.977 1.572.977 2.776 0 1.072-.263 1.93-.787 2.572Zm-1.706-1.148c.177-.32.265-.798.265-1.434 0-.733-.135-1.255-.405-1.569-.27-.313-.643-.47-1.119-.47-.442 0-.801.16-1.076.48-.276.32-.413.82-.413 1.5 0 .79.134 1.347.403 1.667.269.32.637.48 1.106.48.15 0 .293-.015.428-.045-.187-.181-.482-.353-.885-.515l.349-.806c.197.036.35.08.46.134.11.052.323.19.641.415.076.053.157.107.246.163Zm8.382-5.046h2.223v4.324c0 .429-.067.834-.2 1.215-.132.38-.34.714-.624 1a2.49 2.49 0 0 1-.892.6c-.433.162-.952.243-1.559.243-.35 0-.733-.025-1.148-.074-.414-.05-.76-.148-1.04-.295a2.607 2.607 0 0 1-.764-.626 2.28 2.28 0 0 1-.474-.836c-.138-.462-.207-.87-.207-1.227v-4.324h2.222v4.428c0 .396.11.705.327.928.218.222.52.334.907.334.384 0 .685-.11.903-.33.218-.219.326-.53.326-.932v-4.428Zm7.788 6.056h-2.537l-.349 1.197h-2.276l2.709-7.253h2.429l2.708 7.253h-2.33l-.354-1.197Zm-.467-1.569-.796-2.607-.792 2.607h1.588Zm3.894 2.766v-7.253h3.712c.688 0 1.214.06 1.578.178.364.119.657.339.88.66.223.322.334.714.334 1.176 0 .402-.085.75-.255 1.041a2 2 0 0 1-.703.71c-.19.115-.451.211-.782.287.265.089.459.178.58.267.082.06.2.187.356.381.156.195.26.345.313.45l1.076 2.103h-2.517l-1.19-2.216c-.15-.287-.285-.474-.403-.56a.93.93 0 0 0-.546-.168h-.196v2.944H32.98Zm2.237-4.314h.939c.101 0 .298-.033.59-.1a.588.588 0 0 0 .361-.227.673.673 0 0 0 .14-.42c0-.235-.073-.414-.22-.54-.148-.125-.425-.188-.832-.188h-.978v1.475Zm9.74.93-.212.9h-1.49c.194.617.613.926 1.259.926.708 0 1.37-.231 1.986-.693v1.845c-.511.353-1.13.53-1.853.53-1.17 0-2.036-.269-2.596-.807-.56-.537-.903-1.138-1.028-1.8h-.89l.236-.901h.541a2.332 2.332 0 0 1-.01-.262c0-.132.003-.228.01-.287h-.654l.231-.9h.536c.426-1.696 1.596-2.544 3.51-2.544.626 0 1.26.168 1.903.505l-.442 1.796c-.446-.413-.912-.619-1.397-.619-.636 0-1.065.287-1.288.861h1.77l-.211.9h-1.73c-.007.067-.01.162-.01.288v.262h1.828Z"/>
</svg>
