<svg>
  <path d="M45.334 1.5c.097.55.053 1.107.08 1.686h1.084c0 .017 0 .034.002.051-.14.028-.28.036-.423.038h-.432a3.183 3.183 0 0 0-.22.01v.403l1.067.021.002.04c-.347.062-.703.005-1.048.038-.046.157-.063 3.422-.017 3.767.347.004.699.01 1.052.017v.055c-.343.034-.69.002-1.018.02-.021.018-.027.02-.032.026a.032.032 0 0 0-.008.02c-.004.042-.013.082-.013.124l.002 34.129.004.02.02.07h1.062c0 .02 0 .039.002.058-.35.065-.707.004-1.056.04-.022.084-.035.879-.036 1.71v.452c.002.746.013 1.42.034 1.513h1.045l.002.051c-.342.07-.694.013-1.068.047-.009.412-.02.823-.028 1.235-.101-.402-.044-.812-.078-1.212a7.176 7.176 0 0 0-.377-.006h-.676c-1.252.003-3.188.018-3.306.03-.04.38.013.772-.055 1.159a1.93 1.93 0 0 1-.036-.394v-.802c-.07-.008-.123-.019-.175-.02-.07-.005-.142 0-.212 0h-21.52c-2.765 0-5.528-.003-8.294-.01-1.566-.004-3.132-.016-4.697-.027-.077 0-.155 0-.231-.04.383-.01.768-.032 1.151-.034 1.665-.006 3.328-.01 4.994-.01 9.555-.003 19.113-.005 28.669-.005h.3v-3.593c-.084-.004-.158-.01-.235-.01H17.53c-1.601 0-3.201-.002-4.803-.004-.867-.003-1.735-.003-2.603-.007-1.276-.006-2.551-.015-3.83-.025-.209-.002-.416-.023-.626-.038 0-.017 0-.034.002-.051h.758c.024-.08.04-7.307.045-15.116v-1.533l.001-.513v-7.93l-.001-.458v-.895c-.005-4.549-.015-7.872-.03-7.96h-.788c.127-.106.273-.066.411-.075.14-.006.28-.002.43-.002V3.787H5.74l-.002-.055c.078-.004.154-.012.233-.012 1.079-.007 2.158-.013 3.237-.015 1.623-.004 3.244-.004 4.867-.004l26.469-.007h.304v-.419c-11.63-.017-23.246.028-34.862-.04v-.042h34.873V1.532l.061-.002c.021.175.015.353.017.529.004.184 0 .366 0 .55v.56h3.85l.027-.892.036-.003.03.879c.14.012.27.025.43.04.01-.574.018-1.134.024-1.693Zm-.465 40.931v.805l-.062.006v1.424l.064-.001.002.68v.434c.16.01.296.02.442.031-.002-1.24-.002-2.448-.002-3.677l-.123-.013c-.307-.008-.321.007-.321.311Zm-8.157.235c-.1.368-.047.74-.064 1.109-.017.366-.04.73-.07 1.096-.02.288-.2.455-.457.55-.336.125-.677.106-1.02.032-.211-.047-.423-.089-.662-.14.049-.2.13-.404.243-.62.229.322.555.343.891.34a.526.526 0 0 0 .343-.14.253.253 0 0 0 .093-.202c.006-.535.021-1.07.021-1.606.002-.131-.042-.26-.074-.419h.756Zm-26.35.163c.535.313.738.806.677 1.399-.062.603-.407 1.015-.982 1.204-.195.063-.417.05-.627.072 0-.007 0-.015-.002-.022-.078 0-.154-.002-.233 0-.51.013-.865-.253-1.153-.636-.222-.295-.247-.642-.207-.99a1.363 1.363 0 0 1 1.151-1.209c.474-.082.944-.072 1.375.182Zm19.447-.241c.049.16.032.353.007.56a19.964 19.964 0 0 0-1.95-.018v.647c.07.006.13.02.191.02.254 0 .508.003.762-.007.127-.005.254-.038.4-.062v.565c-.125-.023-.23-.057-.337-.059-.33-.008-.66-.002-1.015-.002 0 .406-.072.798.089 1.176-.134.07-.52.08-.74.022.044-.908.046-1.814-.005-2.745l.16-.023a.917.917 0 0 1 .087-.006c.606-.007 1.213-.005 1.818-.013.171-.002.345-.034.533-.055Zm-14.084-.049c.032.22.036.425-.002.624-.656-.065-1.293-.05-1.944-.036v.644c.053.008.105.023.158.023.27.002.536.006.804-.006.123-.007.244-.05.383-.079.045.189.039.392 0 .601-.448-.148-.888-.055-1.36-.084.019.425-.05.812.078 1.214a2.79 2.79 0 0 1-.751.002c.021-.14.057-.26.057-.383.006-.668.004-1.34 0-2.008 0-.116-.027-.233-.044-.372.078-.009.167-.023.256-.026.605-.006 1.212-.006 1.817-.01.18-.002.362-.002.548-.104Zm23.818.127a19.238 19.238 0 0 0 0 2.772c-.242.047-.483.025-.739.013.102-.47.074-.931.072-1.393-.002-.459.076-.926-.089-1.392h.756Zm-6.994-.013a21.18 21.18 0 0 0-.006 2.791h-.71c.02-.2.054-.387.056-.573.009-.55.009-1.1 0-1.648-.002-.178-.04-.356-.065-.557.23-.032.486-.017.725-.013Zm-23.138.41c-.55-.016-.977.433-.977 1-.002.596.387.967 1.011.965.646.038 1.001-.51.988-.974-.014-.56-.402-.969-1.022-.99Zm34.353-.018h-1.887v1.921h1.9c.053-.241.04-1.769-.013-1.921Zm-22.37.408c.284 0 .567.29.565.578-.004.292-.298.584-.59.586a.57.57 0 0 1-.563-.57.595.595 0 0 1 .588-.594ZM45.281 7.636c-.125.009-.254.015-.404.024V20.9h-.042v-3.444h-.03v14.822h.032v-3.462h.034V42.02h.425c.014-.074.022-2.982.026-7.079v-.863l.001-.444v-.909l.001-.464.001-2.899v-5.077l-.001-.512v-1.021l-.001-.509v-1.01c-.007-7.202-.02-13.523-.042-13.598Zm-13.306-.005h-8.349l-.51.001h-1.018l-.508.001h-1.009c-7.369.007-13.942.02-14.011.04V42.02h34.274c.006-.047.015-.074.015-.102V7.767c0-.027-.007-.055-.01-.082 0-.006-.007-.01-.011-.017l-.015-.015-.06-.002a669.52 669.52 0 0 0-5.807-.018h-.81l-.418-.001-1.304-.001h-.45Zm12.263 30.683c-.468.108-.927.07-1.382.072-.461.002-.924.023-1.396-.051-.013.245-.024.472.002.681.305-.004.584-.013.863-.013.038 0 .09.015.112.04.104.123.225.233.28.415-.316.256-.629.519-.95.77-.085.068-.189.11-.299.172-.038.205-.034.732.007.859l1.618-1.394c.144.173.269.325.392.476.12.148.237.298.36.442.124.144.22.315.397.461v-1.062c-.15.093-.23.006-.31-.089-.257-.31-.513-.62-.767-.93-.03-.037-.048-.081-.09-.151.408-.002.786-.06 1.163.06v-.758ZM20.144 13.646c.071.07.135.13.211.203-.087.11-.16.211-.241.307-.635.763-1.08 1.631-1.41 2.56-.15.421-.21.861-.245 1.305-.082 1.094-.025 2.186.06 3.276.105 1.354.478 2.645.992 3.895.112.273.23.544.355.84-.067.045-.13.096-.203.134-.569.294-1.136.597-1.714.874-.2.097-.254.216-.268.433-.022.335.093.561.33.79.677.647 1.335 1.318 1.993 1.987.116.118.216.141.372.093.739-.23.527-.074.927-.696.252-.392.485-.796.726-1.194.036-.06.074-.118.12-.19.077.031.149.057.214.09 1.096.561 2.268.89 3.477 1.088.897.148 1.798.267 2.7.375.776.093 1.546 0 2.308-.174 1.069-.245 2.093-.617 3.1-1.047.05-.021.102-.06.155-.064.055-.006.127.003.167.034.02.015-.007.098-.017.148-.004.02-.023.036-.036.053-.696.874-1.483 1.642-2.465 2.195a7.996 7.996 0 0 1-1.71.706c-.197-.22-.408-.436-.595-.673-.118-.15-.239-.19-.416-.124-.178.065-.364.108-.548.158-.079.021-.144.057-.168.144a4.093 4.093 0 0 0-.13 1.048c.137-.022.251-.04.365-.06a.557.557 0 0 1 .007.028l-.682.199c-.031-.079-.059-.14-.082-.203-.085-.231-.161-.466-.252-.694-.061-.155-.08-.157-.24-.132-.118.02-.234.045-.355.06-.09.01-.137.053-.163.137-.116.377-.237.751-.368 1.16-.165.03-.364.063-.586.101l-.292-1.147c-.159-.067-.302-.01-.442.02-.047.008-.085.088-.114.141-.157.284-.324.563-.462.857-.086.184-.2.24-.395.218-.483-.053-.972-.076-1.452-.144-.963-.137-1.921-.29-2.882-.45-.472-.079-.941-.18-1.41-.28-.12-.025-.196.002-.276.091-.589.648-1.177 1.295-1.771 1.936-.093.102-.117.193-.072.322.106.307.199.616.307.923.035.099.02.171-.047.25-.466.547-.929 1.097-1.39 1.65a.995.995 0 0 1-.622.362c-.375.063-.743.167-1.115.24a.882.882 0 0 0-.445.225c-.755.69-1.517 1.373-2.266 2.067-.148.136-.294.197-.49.178-.568-.055-1.137-.104-1.706-.154l-.252-.024c-.201-.014-.205-.019-.214-.228a13.839 13.839 0 0 1-.015-.593c-.002-.747.002-1.496-.004-2.243-.002-.148.053-.234.163-.336.4-.366.783-.751 1.172-1.132.15-.148.292-.307.447-.45a.65.65 0 0 0 .186-.324c.127-.477.26-.953.383-1.429a.584.584 0 0 1 .212-.326 127.01 127.01 0 0 0 1.804-1.47.353.353 0 0 1 .347-.076c.3.08.6.156.898.24.118.035.207.024.304-.063.618-.546 1.245-1.083 1.862-1.629.369-.326.362-.332.252-.808a27.305 27.305 0 0 1-.508-2.743c-.105-.842-.12-1.686-.105-2.534 0-.022.006-.043.012-.083.066-.032.14-.068.216-.102.252-.107.504-.22.76-.321.103-.043.16-.098.167-.214.008-.125.034-.25.053-.383-.066-.025-.114-.05-.167-.063-.267-.07-.534-.134-.798-.206-.146-.04-.155-.059-.148-.207 0-.021.004-.042.006-.063.009-.16.068-.267.237-.326.24-.085.464-.206.698-.305.13-.053.216-.119.21-.275-.004-.083.025-.167.03-.252.01-.192-.03-.25-.22-.3-.136-.038-.276-.064-.411-.098-.095-.023-.188-.055-.307-.089.021-.146.042-.281.068-.444.19-.01.37-.017.55-.027.224-.015.449-.034.675-.045.1-.004.15-.049.173-.146.072-.288.15-.573.225-.859.023-.087.023-.165-.06-.228-.285-.218-.567-.438-.89-.686l-.09.126-.009.012.172-.365c.4-.808.893-1.56 1.433-2.283a9.707 9.707 0 0 1 1.869-1.891c.082-.064.173-.119.27-.184ZM13.05 36.612c-.25.055-1.509 1.232-1.59 1.477.162-.038.244-.167.354-.256.114-.093.22-.197.33-.296.104-.095.208-.19.31-.288.107-.101.22-.197.32-.304.096-.102.233-.172.276-.333Zm2.029-1.944c-.25.186-2.222 2.554-2.315 2.778.053 0 .102.009.146-.002.491-.093.98-.186 1.469-.288a.4.4 0 0 0 .199-.108c.36-.376.71-.76 1.066-1.14.085-.09.095-.176.03-.284-.168-.277-.326-.558-.491-.836-.028-.044-.07-.08-.104-.12Zm-4.408 1.42c-.573.478-1.053.994-1.127 1.231.29-.18 1.263-1.147 1.345-1.335-.101-.02-.156.053-.218.104Zm4.37-1.204c.046.055.082.086.106.127.118.207.232.416.351.624.049.084.049.152-.02.228-.312.354-.621.71-.934 1.06a.275.275 0 0 1-.144.079c-.426.089-.853.171-1.28.256a.465.465 0 0 0-.03-.038 79.187 79.187 0 0 1 1.95-2.336ZM12.3 32.169c-.038.017-.06.021-.074.034-.47.391-.942.783-1.408 1.18a.364.364 0 0 0-.101.178c-.14.552-.275 1.105-.409 1.66-.01.048-.002.1-.002.183.077-.053.123-.08.163-.114.146-.12.292-.243.436-.366l2.294-1.932c.061-.05.114-.112.199-.195-.39-.226-.75-.43-1.098-.628Zm.53 2.04c-.048.01-.088.006-.11.025-.372.332-.742.667-1.11 1.003-.021.019-.023.057-.038.095.177-.04.453-.266 1.108-.895.062-.06.146-.106.15-.228Zm-.365-1.79c.169.101.334.209.499.317.047.032.085.072.144.123-.84.742-1.687 1.45-2.577 2.169 0-.077-.007-.11 0-.138.105-.408.216-.817.32-1.225a.495.495 0 0 1 .164-.263c.387-.317.768-.64 1.156-.96.137-.114.141-.114.294-.023Zm1.813.175a3.73 3.73 0 0 0-.72.711 3.34 3.34 0 0 0-.23.353c-.02.034-.01.085-.015.14.045-.015.072-.015.08-.027.293-.455.69-.815 1.078-1.183.01-.013.008-.04.014-.064-.095-.042-.148.026-.207.07Zm3.155-.637c-.176.053-.764.608-1.138 1.06-.053.06-.13.112-.102.229.04-.02.078-.023.1-.045.374-.38.746-.763 1.119-1.146.017-.02.012-.058.021-.098Zm8.013-.038c.085.284.15.571.23.88-.374.079-.706.05-1.08.022.194-.341.361-.65.548-.946.088-.142.253-.115.302.044Zm-3.01-.032c.111.273.238.49.357.71.015.025.057.056.082.054.15-.02.337-.006.445-.09.2-.157.323-.392.486-.657-.476-.034-.899-.017-1.37-.017Zm-1.298-.266c.057.288.127.522.237.74.095.189.334.218.453.06.133-.18.224-.383.305-.61-.324-.118-.644-.125-.995-.19Zm6.36.15c.07.205.132.413.208.654-.366.055-.696.101-1.062.089.027-.117.046-.212.072-.303.048-.167.108-.334.152-.503.03-.113.093-.165.203-.178.368-.043.303-.112.428.241Zm-4.839.245c.3.017.565-.02.86.062-.079.112-.13.197-.189.273-.146.186-.383.175-.508-.023-.055-.087-.095-.182-.163-.312Zm-1.347-.222c.213.036.395.066.575.098a.609.609 0 0 1-.14.374c-.084.123-.222.11-.281-.025-.057-.134-.095-.275-.154-.447Zm-4.342-2.272c-.07.074-.121.12-.165.173a.98.98 0 0 0-.206.815c.03.163-.027.258-.148.358-.425.349-.84.708-1.257 1.066-.08.08-.16.167-.243.25.015.014.027.031.042.046.068-.046.142-.087.203-.14.49-.404.974-.812 1.463-1.214a.27.27 0 0 0 .105-.212v-.065a4.974 4.974 0 0 1 .026-.588c.006-.07.023-.155.133-.182.047.116.093.224.133.336.072.19.14.383.208.576.031.09.08.165.173.198.43.157.86.314 1.289.468.025.009.06-.004.089-.006l.014-.045c-.07-.036-.137-.08-.209-.11a65.342 65.342 0 0 0-1.003-.391.395.395 0 0 1-.252-.263 36.041 36.041 0 0 0-.292-.837c-.025-.07-.059-.136-.103-.233Zm2.73 1.906c.052.174.111.35.202.504.087.146.267.167.409.065.148-.105.279-.23.419-.347l-.009-.063c-.3-.093-.6-.19-.903-.28-.085-.025-.146.034-.119.121Zm9.682-.28c.129.15.256.3.38.452.026.027.037.07.066.129-.493.112-.967.226-1.455.29-.07-.163-.007-.307.014-.447.066-.448-.002-.357.413-.493.053-.017.108-.027.163-.044.165-.051.307-.017.419.114Zm-9.537.316.567.19c-.012.05-.01.066-.019.075-.197.245-.347.23-.474-.053-.025-.055-.04-.114-.074-.212Zm21.613-2.863c-.013.225-.024.438.004.652a11 11 0 0 1 1.86-.036c-.043.061-.062.097-.09.127-.492.482-.985.967-1.484 1.445-.07.066-.174.095-.292.161-.011.199-.024.44.01.67.176-.01.33-.025.483-.025.423-.004.846-.008 1.267-.004.34.004.683-.036 1.024.076v-.715c-.611.133-1.214.047-1.845.078.036-.059.044-.086.064-.103.495-.47.99-.944 1.491-1.407.068-.064.18-.079.296-.13v-.782c-.213.02-.42.05-.628.059-.275.01-.55.015-.825.004-.44-.015-.885.047-1.335-.07ZM20.436 13.98c.05.03.08.038.097.055.497.552.944 1.138 1.22 1.84.073.18.047.293-.09.426a6.16 6.16 0 0 0-1.274 1.701c-.4.809-.59 1.661-.523 2.559.038.497.132.992.218 1.483l.086.45.19.896c.01.059.035.114.065.203l.804-.637c.303.307.605.607.916.922-.042.064-.078.121-.116.176-.186.273-.379.544-.559.821-.101.157-.097.18.032.311.52.538 1.043 1.07 1.568 1.604.123.125.131.125.292.036.353-.193.702-.39 1.079-.6.29.27.584.547.89.835l-.34.645c.08.049.14.095.208.123.643.264 1.305.444 2.003.476.75.034 1.496.015 2.228-.159a4.848 4.848 0 0 0 2.216-1.176c.277-.256.159-.222.527-.102.774.252 1.341.785 1.858 1.384.017.021.027.047.05.091-.072.038-.135.076-.203.106-1.189.527-2.414.944-3.698 1.168a5.7 5.7 0 0 1-1.748.042 93.16 93.16 0 0 1-2.76-.406 11.02 11.02 0 0 1-3.076-.96c-.146-.073-.296-.132-.444-.195-.017-.009-.04-.005-.074-.007a7.382 7.382 0 0 0-.134.208c-.32.524-.639 1.047-.952 1.574-.07.116-.152.195-.288.222a2.19 2.19 0 0 0-.326.091c-.108.038-.18.01-.262-.068-.482-.476-.97-.945-1.456-1.417-.243-.235-.482-.474-.73-.707-.089-.082-.137-.17-.127-.294.01-.133.002-.267.002-.408l2.248-1.135c-.05-.129-.087-.24-.13-.349-.213-.544-.446-1.081-.64-1.631-.318-.9-.5-1.833-.6-2.783a20.569 20.569 0 0 1-.105-2.725c.015-.563.038-1.128.186-1.678.159-.59.45-1.124.73-1.659.233-.446.54-.842.855-1.231.032-.039.057-.08.087-.121Zm.02 13.252c-.414.007-.829.02-1.244.024-.118.002-.18.048-.205.162-.034.15-.076.299-.116.45-.021.08-.013.147.05.21l1.209 1.209c.036.036.097.074.144.07.192-.017.385-.049.599-.079l.234-2.046c-.251 0-.46-.002-.67 0Zm.492.235c-.03.29-.055.567-.085.847-.025.23-.057.46-.076.691-.01.11-.051.161-.165.174-.29.03-.276.079-.402-.045l-.127-.129c-.32-.317-.635-.639-.957-.952-.082-.082-.125-.156-.078-.277.04-.104.057-.216.083-.32.192-.063 1.59-.059 1.807.011Zm-4.294.313c-.163.068-.304.12-.44.189a.202.202 0 0 0-.093.129c-.032.171-.049.342-.074.53.292.092.554.217.878.257a4.51 4.51 0 0 0-.27-1.105Zm-.074.24.159.636c-.214.007-.37-.078-.538-.144.062-.465.075-.482.38-.493Zm16.088-1.896c.152.055.305.11.45.18.591.274 1.418.981 1.774 1.517-.136.203-.28.416-.442.662-.077-.085-.132-.153-.193-.214-.296-.3-.584-.611-.897-.895a3.191 3.191 0 0 0-1.153-.65c-.051-.016-.1-.044-.197-.086.144-.176.26-.326.385-.468.074-.085.176-.082.273-.046Zm.571-.773c.385.078.775.153 1.151.26.434.123.804.37 1.128.686.055.053.104.112.174.188-.223.39-.436.76-.656 1.147-.066-.048-.112-.078-.15-.116-.178-.172-.352-.347-.527-.519-.464-.457-.993-.81-1.621-1-.053-.017-.102-.043-.176-.075.097-.158.184-.308.277-.454.098-.153.254-.146.4-.117Zm-16.737.914c-.116.079-.188.136-.267.178-.222.12-.277.32-.277.55 0 .1.036.161.131.186.182.051.366.102.55.146.043.011.091-.008.166-.017-.102-.344-.197-.672-.303-1.043Zm-.119.263c.108.211.178.402.225.645-.157-.042-.286-.068-.404-.114-.115-.045-.138-.25-.043-.362.055-.064.138-.106.222-.17Zm17.002-2.159c.368.015.724.049 1.062.176.565.212 1.067.537 1.562.876.078.053.127.116.085.212l-.32.717c-.743-.806-1.69-1.067-2.736-1.17.076-.303.218-.55.347-.81Zm-17.038.36c-.052.015-.088.02-.116.036-.2.127-.406.25-.599.39-.22.158-.213.34.01.482.208.131.424.247.638.37.027.015.061.02.122.038.022-.448.036-.876-.055-1.316Zm-.124.233c.046.281.038.544.033.838a2.101 2.101 0 0 1-.658-.409c.185-.186.39-.3.625-.43Zm17.899-1.953c.647.042 1.297.09 1.885.402.235.125.442.296.662.446.066.047.083.104.053.184-.163.421-.322.843-.482 1.264-.005.019-.024.031-.047.061-.819-.571-1.65-1.117-2.708-1.136.012-.062.017-.104.031-.142.134-.311.271-.62.407-.929.038-.089.084-.159.199-.15ZM28.199 15.1c3.096.017 5.095 2.531 5.095 5.121 0 2.577-2.111 5.06-5.108 5.049-2.956-.01-5.065-2.459-5.07-5.062-.004-2.829 2.332-5.141 5.083-5.108Zm6.481 6.693c.286-.004.56.051.828.146.48.172.873.47 1.256.8.231.199.316.383.17.662-.057.108-.083.233-.127.366-.051-.031-.083-.046-.106-.067-.417-.4-.931-.601-1.488-.705-.304-.057-.613-.085-.92-.125a4.01 4.01 0 0 0-.233-.031c.146-.341.275-.644.406-.946.043-.098.127-.1.214-.1Zm-19.156.923c.333.048.633.137.927.226.023.252.002.307-.197.398-.254.116-.512.222-.8.347a3.448 3.448 0 0 1 .07-.971Zm21.84-1.344c.073.08.103.146.071.26-.101.345-.188.694-.283 1.04-.013.046-.032.088-.06.167-.361-.341-.713-.65-1.136-.868-.419-.216-.874-.292-1.38-.353.142-.362.27-.68.396-1.005.91-.075 1.74.057 2.391.76Zm4.1-2.478v.732c.195-.052.317-.014.656.206v1.312c-.218.076-.387.277-.66.165-.002.298-.002.577-.002.89.108-.07.188-.129.273-.17.698-.354 1.396-.703 2.097-1.053.13-.065.268-.13.431.007.007-.334.009-.63-.027-.976-.146.144-.26.09-.375.034l-2.243-1.085c-.04-.02-.084-.034-.15-.062Zm-25.616 1.962c.193.04.383.085.574.129.019.004.04.015.055.027.076.064.07.445-.017.487a6.67 6.67 0 0 1-.885.39c.045-.345.08-.629.114-.913.013-.093.064-.14.16-.12Zm21.318-1.16c.163.134.31.286.466.43a.247.247 0 0 1 .08.247l-.186.902c-.2-.155-.36-.3-.542-.409a3.147 3.147 0 0 0-.611-.279 3.6 3.6 0 0 0-.639-.129c-.214-.03-.432-.036-.69-.057.142-.34.269-.645.398-.948.049-.114.131-.165.26-.176.542-.044 1.037.072 1.464.42Zm5.407.339c.317.123.618.273.958.442-.347.163-.656.307-.984.464-.057-.299-.044-.718.026-.906ZM16.56 18.45c.083.061.148.11.21.159.15.118.296.237.446.353.074.057.106.114.076.216-.07.228-.127.461-.186.692-.017.065-.038.125-.114.131-.311.03-.624.06-.976.091.187-.56.36-1.085.544-1.642Zm19.569-.39c.72-.016 1.32.246 1.809.767.038.04.072.114.061.163-.057.32-.125.634-.192.952-.005.023-.017.04-.045.097a2.616 2.616 0 0 0-.99-.747c-.379-.159-.779-.163-1.194-.17.009-.06.007-.1.02-.139.088-.245.184-.486.266-.734.045-.135.123-.184.265-.188Zm2.046-.552a.205.205 0 0 1 .048.15c-.05.333-.11.665-.17 1.037-.318-.232-.574-.505-.932-.605-.351-.095-.709-.163-1.107-.254l.337-.99c.74-.106 1.324.167 1.824.662Zm.186-1.544c.089.055.13.122.112.226l-.17 1.145a.373.373 0 0 0-.048.03c-.5-.472-1.085-.728-1.784-.724.007-.066.005-.114.02-.157.076-.24.156-.48.232-.721.036-.117.11-.165.233-.172.51-.03.973.106 1.405.373Zm-17.078-2.986c.036.04.08.083.116.133.282.396.582.781.838 1.194.195.315.343.662.498.999.072.154.06.169-.072.262-.218.154-.44.298-.707.421-.37-.94-.971-1.708-1.638-2.42.123-.147.675-.479.965-.589Zm17.218 2.112c.108.07.158.159.137.283-.027.165-.061.328-.101.544-.536-.402-1.11-.5-1.727-.463.025-.224.085-.41.18-.58a.27.27 0 0 1 .186-.11c.478-.05.92.06 1.325.326Zm-15.883-2.53c.275.355.56.704.842 1.057.22.277.404.576.515.914.078.241.059.311-.161.43-.254.135-.514.26-.773.39-.03.016-.065.02-.103.029-.021-.036-.045-.064-.055-.095-.263-.73-.692-1.365-1.151-1.983a5.623 5.623 0 0 1-.206-.294c-.019-.028-.027-.062-.044-.102.044-.03.082-.063.125-.082.258-.11.52-.214.778-.324.098-.042.163-.032.233.06Zm14.768 1.317c.478-.012.92.1 1.303.4.034.028.076.079.072.117-.015.194-.045.389-.076.643-.51-.38-1.05-.45-1.621-.43.03-.253.108-.455.186-.656.015-.038.089-.071.136-.074Zm-13.312-1.834c.614.681.954 1.464.893 2.425-.254.101-.487.23-.758.288-.025-.051-.048-.087-.059-.125-.095-.407-.305-.756-.558-1.077-.227-.288-.46-.57-.686-.857-.068-.087-.125-.184-.197-.292.076-.038.13-.072.186-.091.297-.11.595-.214.893-.324.108-.04.197-.044.286.053Zm1.016-.345c.154.269.315.533.448.81.19.394.335.804.428 1.232.02.095.027.192.044.315-.264.104-.525.203-.808.313-.03-.13-.06-.243-.079-.357-.065-.41-.158-.815-.342-1.192a3.198 3.198 0 0 0-.498-.755c-.05-.05-.093-.112-.162-.199.287-.097.545-.186.804-.27.086-.028.13.044.165.103Zm13.698 2.41c-.47-.214-.918-.419-1.424-.396-.02-.285.036-.376.284-.448.061-.017.123-.032.184-.045.578-.116.986.244.956.889Zm-12.505-2.941c.463.745.724 1.549.925 2.37-.216.173-.806.395-1.046.387-.167-.842-.51-1.625-.99-2.395l1.111-.362Zm1.52-.176c.279.41.418.874.507 1.354.04.214.068.432.106.646.017.09-.01.154-.095.186-.303.12-.612.235-.95.364-.227-.842-.51-1.634-.908-2.393.07-.03.118-.055.171-.07.263-.078.527-.159.79-.233.226-.063.245-.053.378.146Zm1.241-.36c.282.458.46.95.544 1.48.023.152.038.306.051.46.006.075-.013.143-.091.174a6.585 6.585 0 0 1-.963.322c-.027-.167-.055-.309-.076-.45-.072-.447-.163-.89-.353-1.302-.087-.19-.203-.366-.318-.57.131-.033.258-.07.385-.1.178-.045.356-.088.534-.13.188-.044.188-.044.287.117Zm.872-.325c.127 0 .222.057.28.16.114.21.243.417.317.642.114.347.195.704.28 1.06.037.156.029.169-.115.22-.233.082-.468.154-.703.226-.05.015-.108.009-.188.013-.006-.785-.3-1.475-.652-2.182.282-.076.525-.137.781-.14Zm14.327-.646c-.926.083-1.838.055-2.765.021-.009.09-.023.187-.026.284-.004.438-.006.874-.004 1.312 0 .203.002.41.026.611.04.358.243.595.562.654.311.057.606.032.815-.332.015-.023.034-.044.057-.074.028.03.051.053.072.08.188.26.449.305.734.227a.637.637 0 0 0 .498-.565 2.77 2.77 0 0 0 .027-.315l.015-1.714c0-.07-.006-.138-.01-.189Zm-13.021.534c.031.063.07.122.095.188.167.41.334.82.497 1.231.032.079.045.163.072.244.034.1.002.165-.095.199a4.516 4.516 0 0 1-.791.213c-.1-.353-.178-.702-.297-1.037-.118-.334-.279-.653-.433-1.009l.78-.123c.08-.012.136.022.172.094Zm10.664.137c.254.002.51.002.813.002l-.049 1.236a.417.417 0 0 1-.023.101c-.051.149-.136.265-.303.286-.182.023-.305-.082-.415-.207-.019-.024-.023-.066-.023-.1-.006-.414-.013-.83-.017-1.242 0-.02.009-.04.017-.076Zm-9.621-.305c.1.316.2.63.302.946l.252.804c-.224.062-.425.119-.628.17-.078.019-.14-.015-.159-.098-.137-.597-.402-1.14-.669-1.684-.014-.03-.014-.066-.03-.123.267-.05.52-.1.773-.146.102-.019.133.05.159.131Zm11.51.303c.01.042.022.076.022.11-.004.38-.006.762-.021 1.14-.009.197-.123.29-.318.288-.175-.002-.292-.084-.304-.258-.028-.419-.038-.84-.055-1.28h.677Zm-10.46-.603c.19.584.393 1.155.465 1.784l-.808.207a28.033 28.033 0 0 1-.584-1.839c.309-.11.603-.137.926-.152Zm.808-.114c.129-.009.207.074.25.19.086.246.173.491.253.739.064.192.117.387.176.592-.26.15-.525.235-.819.307-.171-.58-.336-1.15-.516-1.76.254-.028.455-.056.656-.068Zm.347-.017c.101.019.148.031.197.038.162.02.319.053.427.197.148.198.288.402.298.66.01.294-.116.482-.427.61-.163-.492-.322-.978-.495-1.505Zm10.328-5.76H40.99v3.711h3.809v-3.71Zm.489-.044h-.38c-.032.147-.05 1.04-.052 1.917v.435c.002.71.015 1.323.04 1.4h.406c.015-.116.023-.65.025-1.281V5.83l-.002-.44c-.005-.798-.018-1.528-.037-1.6Zm-20.38.336c-.122.017-.217.04-.312.042-.62.01-1.24.015-1.86.024-.15.002-.303.012-.451.019.017.163.042.302.044.44.007.626.01 1.255.007 1.88 0 .157.01.32-.108.483.922.08 1.824-.006 2.715.07.059-.25.052-.43-.015-.586-.248.085-1.718.119-1.962.044v-.708h1.331c.053-.26.045-.436-.027-.597-.189.11-.955.154-1.308.072v-.65c.652.004 1.295-.036 1.949.036.023-.199.042-.395-.002-.569Zm-6.4.04c-.25.021-.487.083-.692.233-.315.233-.4.787-.176 1.107.108.154.27.23.443.266.268.055.541.09.812.136.131.02.265.042.394.074.1.023.182.074.192.194.01.125-.044.244-.158.297a.682.682 0 0 1-.223.061c-.19.013-.378.01-.569.015a1.003 1.003 0 0 1-.592-.195c-.09-.06-.157-.148-.254-.241l-.273.616c.514.169.986.378 1.52.334.225-.019.448-.05.655-.146.358-.163.533-.46.506-.844-.024-.324-.241-.576-.605-.68-.155-.044-.318-.063-.477-.088-.243-.04-.486-.074-.73-.119-.088-.017-.186-.04-.192-.16-.006-.12.019-.233.129-.293a.607.607 0 0 1 .258-.082c.203-.004.409 0 .61.023.251.03.474.13.639.337.014.019.044.023.084.042.095-.201.189-.396.282-.584l-.45-.136a51.455 51.455 0 0 1-.215-.065 2.457 2.457 0 0 0-.918-.102Zm-3.22-.042c-.13.017-.244.044-.36.046-.699.013-1.395.022-2.093.032-.072.002-.144.009-.193.013.024.163.062.298.062.434.006.64.006 1.282 0 1.923-.002.142-.038.284-.062.449.07.006.165.019.263.02.808.011 1.61.018 2.433.026.02-.178.028-.37-.004-.548-.68.112-1.331.036-1.991.064V5.83h1.307v-.54c-.387.065-1.106.076-1.311.017v-.635c.082-.004.15-.013.218-.013.344-.002.69-.006 1.034.002.229.007.457.034.696.051v-.586Zm24.591.008c-.135.015-.252.038-.368.04-.67.013-1.34.02-2.01.03-.095.002-.19.013-.267.02.023.158.06.291.06.427.006.634.006 1.27 0 1.904-.003.15-.039.298-.064.47.057.004.137.019.22.019l2.47.025v-.554c-.67.125-1.33.038-1.994.07v-.77c.45 0 .882-.022 1.32.033a.882.882 0 0 0-.006-.611c-.2.112-1.035.154-1.316.068v-.65c.658.023 1.301-.049 1.955.061v-.582ZM7.69 4.201c-.06 0-.116.013-.154.017.023.15.059.277.06.408.012.578.02 1.156.014 1.733-.002.22.023.449-.104.652.245.072.643.053.787-.021-.114-.375-.05-.75-.055-1.117.233 0 .436-.007.64.004.052.002.122.04.151.085.182.258.356.524.534.787.055.082.086.167-.002.279.349.03.658.05.992-.013-.377-.338-.616-.742-.901-1.132.129-.057.239-.103.347-.154.156-.076.285-.186.334-.362.053-.193.074-.385.025-.584-.074-.305-.387-.567-.702-.571a214.74 214.74 0 0 0-1.966-.01Zm19.657.002c-.059 0-.118.013-.156.017.05.938.059 1.856-.01 2.793.24.064.499.043.782.017-.2-.385-.114-.762-.104-1.153.237-.006.455-.02.671-.015.045 0 .102.045.131.087.182.258.36.523.538.785.055.082.104.167.023.262.24.08.75.079.923-.002a7.589 7.589 0 0 1-.836-1.115c.127-.061.228-.106.33-.157.307-.156.421-.416.398-.75-.024-.327-.172-.566-.483-.68a1.236 1.236 0 0 0-.391-.076c-.605-.01-1.21-.01-1.816-.013Zm6.951.017c.127.131.093.246.043.358-.212.47-.421.94-.633 1.407-.021.049-.057.09-.097.154-.045-.074-.08-.122-.106-.18-.203-.442-.402-.884-.61-1.324-.065-.138-.103-.271.005-.428-.307-.002-.589-.002-.889-.002.013.045.017.064.025.083.366.77.735 1.538 1.099 2.31.06.13.137.267-.013.436.34.022.641.049.954-.04-.152-.084-.12-.19-.068-.298l.026-.057 1.079-2.273c.021-.042.04-.085.07-.144a3.985 3.985 0 0 0-.885-.002Zm9.584.432c.025.07.04.455.044.867v.352c-.003.346-.015.651-.038.736h-1.904V4.67c.165-.051 1.656-.062 1.898-.017ZM8.39 4.655c.31.008.618.019.927.03.049.002.1.004.146.01.233.036.305.104.316.294.012.225-.072.34-.299.387-.144.03-.292.043-.44.047-.258.006-.516.002-.802.002v-.757c.057-.005.106-.015.152-.013Zm19.774.004c.31.006.62.013.93.028.213.01.327.13.333.33.007.192-.112.355-.309.364-.412.017-.827.006-1.267.006-.006-.197-.013-.391-.015-.588 0-.074.042-.117.119-.123.07-.006.14-.019.21-.017ZM44.8 3.29h-3.851v.394h3.85V3.29Zm.505-.004h-.435v.391h.435v-.391ZM1.561 24.259c1.323.984 2.622 1.95 3.919 2.912-.14.205-3.697 3.119-3.955 3.248-.049-.286-.021-5.81.036-6.16Zm-.008-12.556c1.343.997 2.65 1.964 3.956 2.93-.095.136-3.652 3.027-3.96 3.221-.013-.154-.034-.298-.034-.44a478.008 478.008 0 0 1-.009-3.593c0-.626.017-1.252.025-1.88.003-.062.011-.124.022-.238Zm-.009 25.134c.05.02.078.027.1.042.607.46 1.21.925 1.824 1.375.672.495 1.366.963 2.037 1.511a215.221 215.221 0 0 1-3.944 3.208c-.013-.085-.025-.135-.027-.186-.011-.65-.026-1.297-.028-1.947-.002-1.2.004-2.397.009-3.597 0-.13.019-.258.03-.406Zm.028-.189c-.07-.417-.08-5.685-.015-6.039.087-.012.137.053.195.098.804.594 1.608 1.191 2.412 1.786l1.12.831.179.14c-.11.16-3.568 2.985-3.891 3.184Zm.03-18.624c1.284.962 2.568 1.923 3.85 2.886-.122.182-3.519 2.964-3.889 3.189-.012-.083-.03-.155-.032-.227-.008-.36-.016-.72-.016-1.079 0-1.34.002-2.681.008-4.02 0-.24.021-.479.032-.718a.443.443 0 0 1 .046-.031ZM5.46 8.4a284.883 284.883 0 0 1-3.875 3.147c-.09-.358-.101-5.667-.016-6.05.203.078 3.6 2.609 3.89 2.903Z"/>
</svg>
