<svg>
  <path d="M11.03 29.956c.184-.211.354-.403.521-.598.398-.463.805-.916 1.186-1.392.157-.199.32-.263.567-.255.633.019 1.268.006 1.901.006.066 0 .132.007.196.009.009.074-.043.095-.072.128-.674.7-1.349 1.399-2.027 2.094-.048.05-.065.085-.027.138.413.6.77 1.24 1.154 1.858.341.55.677 1.105 1.014 1.657.03.052.076.098.083.162-.033.056-.087.037-.13.037-.677.002-1.352-.002-2.028.006-.118.002-.18-.054-.222-.136-.078-.156-.144-.319-.217-.48-.21-.466-.498-.89-.72-1.351-.083-.17-.12-.362-.256-.518-.199.176-.369.373-.549.561-.132.139-.302.263-.382.428-.083.174-.025.393-.027.592a24.45 24.45 0 0 0 0 .766c.002.095-.031.134-.13.134-.545-.004-1.089-.002-1.635 0-.089 0-.128-.031-.12-.12.004-.041 0-.083 0-.124v-5.625c.002-.224-.031-.216.207-.216h1.531c.14.005.145.005.145.154.002.614 0 1.226.002 1.84.004.073-.013.15.035.245Zm11.493-14.401c.335-.015.66.018.97.165.176.083.302.209.418.354.025.03.045.066.068.1.054.074.108.067.17.005.093-.09.192-.178.29-.264.355-.31.781-.387 1.234-.36.396.024.764.13 1.035.44.238.271.32.608.36.958.012.102.01.207.01.31v2.607c0 .193.017.18-.176.18h-1.344c-.168 0-.17-.002-.17-.171v-2.214c0-.143-.012-.284-.052-.424-.093-.333-.581-.489-.885-.234a.653.653 0 0 0-.238.461c-.035.331-.023.662-.025.991-.004.482-.004.966 0 1.448 0 .102-.023.147-.137.145-.47-.006-.937-.002-1.406-.002-.153 0-.156-.004-.156-.165V17.63c0-.104.003-.21-.012-.31-.029-.195-.122-.346-.329-.4-.014-.041-.023-.097-.083-.04-.459-.063-.711.26-.738.611-.033.447-.01.896-.015 1.343-.004.358-.004.716.002 1.073.002.108-.03.145-.138.143a84.238 84.238 0 0 0-1.446 0c-.094 0-.122-.035-.114-.12.004-.033 0-.068 0-.103v-3.948c0-.035.002-.068 0-.103-.01-.093.016-.135.124-.132.44.006.881.004 1.322 0 .095 0 .136.024.132.126-.008.15-.002.3-.002.484.35-.36.716-.64 1.206-.691a.146.146 0 0 0 .125-.008ZM7.87 29.705v1.656c0 .461-.093.904-.31 1.307a2.175 2.175 0 0 1-1.515 1.14c-.51.112-1.026.1-1.541.068-.24-.014-.478-.051-.718-.076-.16-.017-.313-.11-.466-.18-.533-.244-.891-.668-1.096-1.196a2.785 2.785 0 0 1-.182-1.005l-.002-3.557c0-.14.004-.145.153-.145.51-.002 1.02 0 1.53 0 .191 0 .191.003.191.189 0 1.109.002 2.22 0 3.329 0 .173.004.347.037.515a.857.857 0 0 0 .542.645c.307.124.623.124.93 0 .345-.138.496-.428.552-.774.018-.107.016-.219.016-.329.002-1.117.002-2.234.002-3.349 0-.246-.022-.223.22-.223.502 0 1.007-.003 1.51 0 .145 0 .149.004.149.148l-.002 1.838ZM2.037 23.86v-2.73c0-.048.004-.098 0-.146-.015-.114.043-.145.144-.136.042.004.083 0 .125 0h4.487c.056 0 .11.002.165 0 .083-.004.108.037.108.114-.002.357-.002.717 0 1.075 0 .079-.033.114-.112.108-.047-.002-.097 0-.145 0H4.161c-.047 0-.097.002-.144 0-.067-.002-.104.025-.104.095v.766c0 .072.04.095.104.093.047-.002.097 0 .144 0h2.504c.171.002.173.002.173.167.003.304.003.606 0 .91 0 .166-.002.168-.173.168-.793 0-1.585 0-2.38.002-.115 0-.258-.05-.339.027-.085.077-.029.221-.03.337-.007.193-.003.387-.003.58.002.273-.029.248.24.248h2.752c.047 0 .097.004.144 0 .094-.008.118.04.118.124-.002.379-.002.76 0 1.138 0 .085-.022.132-.115.126-.036-.002-.069 0-.104 0H2.254c-.035 0-.068-.002-.104 0-.078.004-.115-.027-.111-.108.002-.047 0-.097 0-.144-.002-.94-.002-1.877-.002-2.814Zm37.084-.782c0-.149.002-.298 0-.447-.002-.076.025-.114.108-.114.455.002.91.002 1.365 0 .079 0 .116.03.112.108-.002.047 0 .097 0 .145.004 1.35.01 2.702.01 4.053 0 .531-.172.997-.563 1.371a1.65 1.65 0 0 1-.782.4 4.89 4.89 0 0 1-1.458.107c-.37-.025-.739-.062-1.093-.192a1.259 1.259 0 0 1-.715-.654 1.463 1.463 0 0 1-.13-.703c.003-.104.043-.133.138-.12.26.03.52.058.78.089.205.022.41.053.616.07.079.006.129.033.151.11.058.194.214.275.391.32.17.042.338.037.51-.01.206-.058.322-.197.39-.39a1.16 1.16 0 0 0 .05-.365c.002-.18.004-.358 0-.538 0-.05.031-.124-.041-.14-.06-.013-.098.049-.12.096-.035.075-.098.116-.158.16a1.56 1.56 0 0 1-.842.306c-.84.058-1.526-.38-1.814-1.18a2.984 2.984 0 0 1-.017-2.006c.23-.683.811-1.099 1.531-1.124a2.63 2.63 0 0 1 .495.019c.354.054.652.211.894.478l.153.168c.012-.01.027-.013.04-.017Zm-1.576 1.53c-.009.173.01.322.051.469.09.3.317.486.609.506.335.023.595-.134.724-.434.066-.155.089-.319.089-.484 0-.354-.062-.685-.4-.89-.3-.182-.573-.172-.842.058-.06.052-.132.097-.147.188-.033.199-.103.396-.084.588Zm-16.767-1.54c.135-.147.253-.232.373-.317.546-.38 1.142-.43 1.752-.21.46.165.691.535.78 1.013.079.424.06.848.062 1.274.004.635.002 1.268 0 1.904 0 .184-.002.186-.178.188-.449.002-.896.002-1.344 0-.18 0-.185-.002-.185-.186-.002-.718 0-1.434-.002-2.152 0-.097 0-.192-.008-.29-.027-.295-.16-.453-.42-.502-.33-.062-.577.037-.707.293a1.25 1.25 0 0 0-.12.561c-.003.677-.003 1.351-.005 2.028-.002.27.044.252-.254.252H19.26c-.174 0-.176-.002-.176-.168v-5.749c0-.155.004-.16.161-.16h1.366c.163 0 .165.005.165.177v1.779c.002.07.002.138.002.265ZM8.295 19.99c-.002-.054-.008-.11-.008-.163v-5.632c0-.053.006-.11.008-.163.012-.015.025-.027.035-.041.515-.027 1.03-.005 1.546-.013.124-.002.103.079.103.153v2.017c.062.03.079-.022.103-.047a1.7 1.7 0 0 1 .942-.51c.033-.005.068-.012.085-.049.05.046.103.042.159.015.275-.03.548.014.8.103.356.124.596.387.733.745.105.28.139.567.136.863-.004.866 0 1.735-.002 2.602 0 .182-.002.184-.175.184h-1.343c-.176 0-.178-.002-.178-.182v-2.15c0-.138-.006-.274-.027-.411-.05-.345-.511-.511-.784-.391a.679.679 0 0 0-.432.627c-.04.75-.01 1.502-.017 2.25 0 .048-.002.098 0 .146.004.076-.02.118-.103.111-.036-.002-.069 0-.104 0h-1.28c-.054 0-.11.013-.162-.014-.012-.019-.025-.033-.035-.05Zm-6.672-4.55c-.002-.455-.006-.909-.01-1.364 0-.068.018-.105.093-.099.041.004.082 0 .124 0H7.1c.252 0 .223-.017.223.22 0 .378.002.757 0 1.135 0 .143-.005.147-.151.147-.53.002-1.062 0-1.591 0-.176 0-.178.002-.178.182v4.113c0 .048-.004.097 0 .145.008.093-.019.134-.124.134-.56-.004-1.116-.002-1.674-.004-.013 0-.025-.008-.04-.014l-.033-.046c-.002-.074-.008-.15-.008-.225v-4.049c-.004-.263.033-.234-.225-.236-.482-.002-.964 0-1.447 0-.062 0-.124-.004-.186-.006l-.043-.033Zm27.685 1.613-1.288-.144c.06-.391.22-.706.531-.95.38-.302.836-.352 1.29-.387.5-.04 1.005-.029 1.505.037.333.044.64.16.908.362.096.07.174.16.228.265.166.325.267.664.263 1.033-.004.64.004 1.282-.004 1.924-.004.295.058.57.19.833-.052.05-.11.027-.161.03h-1.2c-.207 0-.315-.094-.354-.3-.004-.028-.002-.056-.008-.083-.025-.096-.062-.11-.141-.046a1.98 1.98 0 0 1-.652.373 2.84 2.84 0 0 1-.84.153c-.258.004-.513-.002-.765-.075-.484-.138-.966-.6-.933-1.235.014-.269.07-.515.246-.737.1-.126.225-.196.354-.27.287-.164.608-.222.927-.286.496-.101.995-.192 1.475-.366.05-.019.099-.04.147-.062.039-.019.086-.056.033-.114a.051.051 0 0 1-.013-.037c.021-.11-.004-.21-.089-.282a.555.555 0 0 0-.316-.126 1.714 1.714 0 0 0-.534.037c-.188.044-.348.133-.412.325-.043.135-.12.168-.246.135-.019-.004-.041-.002-.062-.002-.023-.019-.05-.021-.079-.005Zm1.736.956c-.027-.002-.058-.01-.083-.002-.248.087-.502.15-.755.215-.155.042-.32.085-.453.199-.15.13-.215.312-.153.494.056.162.221.274.404.292.202.02.395-.025.573-.103.188-.083.355-.213.424-.418a1.46 1.46 0 0 0 .08-.64c.013-.035-.006-.043-.037-.037Zm-1.454 8.865c-.056.048-.091.048-.126.048-.435 0-.87-.002-1.304.002-.114.002-.176-.048-.22-.147-.049-.112-.07-.234-.103-.347-.057-.009-.082.033-.111.06-.379.347-.84.49-1.339.527-.316.023-.635.01-.941-.087-.42-.132-.735-.389-.857-.821-.15-.534-.014-1.196.69-1.475.322-.129.661-.186.996-.259.44-.093.88-.174 1.3-.33.17-.065.196-.144.134-.313-.08-.215-.25-.284-.45-.302a1.6 1.6 0 0 0-.433.025c-.224.039-.4.148-.49.36-.046.105-.104.132-.218.117-.445-.053-.89-.095-1.336-.136-.093-.008-.112-.044-.091-.133.118-.519.428-.868.92-1.057.259-.099.534-.145.807-.161a8.657 8.657 0 0 1 1.465.02c.292.032.575.096.832.243.302.171.484.438.583.765.077.253.097.51.093.772-.006.455-.002.91-.002 1.365.006.43-.025.87.2 1.264Zm-1.858-2.025c-.408.14-.815.209-1.194.372a.628.628 0 0 0-.107.062.417.417 0 0 0-.189.427c.025.175.133.28.294.337.126.043.259.04.387.025.428-.048.76-.354.805-.756.016-.142.004-.287.004-.467Zm4.243-1.643.28-.277c.56-.54 1.224-.623 1.934-.403.416.128.664.449.782.866.058.2.089.404.089.613v2.75c0 .167-.002.171-.172.171-.455.002-.91.002-1.365 0-.158 0-.16-.004-.16-.161-.002-.737 0-1.475 0-2.212 0-.139-.006-.275-.041-.41a.445.445 0 0 0-.374-.351c-.433-.085-.694.072-.799.502a2.274 2.274 0 0 0-.056.555v1.88c0 .189-.002.19-.194.19-.441 0-.882.003-1.324 0-.168 0-.172-.003-.172-.173v-4.074c0-.148.004-.15.145-.153.42-.002.84-.002 1.262 0 .159 0 .161.005.165.16.002.161 0 .324 0 .527Zm14.499 2.597c.008.029 0 .053-.015.078-.318.51-.734.886-1.338 1.03-.515.123-1.033.129-1.556.092a2.822 2.822 0 0 1-.68-.139 1.737 1.737 0 0 1-.733-.447 2.342 2.342 0 0 1-.521-.881 2.688 2.688 0 0 1-.1-1.153c.135-1.146.987-1.847 2.063-1.944a4.345 4.345 0 0 1 1.378.074c.312.075.602.199.852.404.41.337.642.777.733 1.297.045.258.053.52.055.782.002.107-.035.143-.142.143-.352-.003-.704.004-1.055.004H43.49c-.04 0-.082-.002-.124 0-.122.006-.13.016-.113.136.05.323.213.584.517.695a.88.88 0 0 0 .896-.155.985.985 0 0 0 .13-.132c.04-.046.08-.066.143-.06l1.44.14c.035.007.072.003.095.036Zm-3.213-1.484h1.616c-.009-.585-.379-.908-.85-.891-.425.016-.77.33-.766.891Zm-29.506-6.357c-.033-.547.087-1.045.418-1.498.298-.408.69-.65 1.16-.786a3.46 3.46 0 0 1 1.75-.033c.325.074.642.2.894.405.333.269.592.614.697 1.051.069.283.147.565.118.859-.043.44-.14.864-.403 1.233a2.112 2.112 0 0 1-.875.715c-.524.234-1.072.28-1.633.23-.24-.023-.48-.041-.707-.143-.445-.198-.823-.461-1.105-.877-.15-.221-.213-.47-.308-.705-.05-.133-.006-.3-.006-.451Zm3.345-.155a2.189 2.189 0 0 0-.11-.567.759.759 0 0 0-.724-.52.775.775 0 0 0-.74.536 1.96 1.96 0 0 0-.027 1.148c.08.305.345.631.792.602.406-.024.635-.273.718-.548.06-.2.089-.41.091-.651Zm-9.47 9.098c.02-.095.071-.142.11-.198l1.343-1.937c.104-.15.106-.15-.002-.3l-1.26-1.742c-.04-.053-.09-.103-.105-.173.033-.058.087-.034.13-.034.559-.002 1.117.003 1.676-.004.12-.002.186.038.242.141.165.302.34.6.51.898.032.054.053.114.104.153.062-.029.083-.091.116-.14.207-.311.414-.62.617-.932.047-.074.097-.12.196-.12.55.007 1.103.004 1.653.004.013 0 .025.009.048.017.002.08-.058.132-.1.19-.413.578-.827 1.153-1.239 1.732-.136.19-.13.132-.006.314.445.64.892 1.277 1.337 1.916.043.06.097.116.117.195-.03.051-.084.035-.128.035-.538.004-1.076 0-1.611.01-.143.002-.224-.047-.29-.174-.19-.351-.395-.695-.594-1.04-.033-.06-.058-.126-.116-.17-.068.042-.099.114-.14.176-.236.348-.474.693-.704 1.047-.07.107-.147.161-.281.16-.51-.01-1.02-.005-1.53-.007-.028-.004-.055-.012-.092-.017ZM37.212 16.81c-.233.023-.465.044-.699.07-.093.011-.15-.001-.184-.107a.392.392 0 0 0-.223-.232.92.92 0 0 0-.774-.022c-.126.051-.176.153-.18.273-.002.114.05.196.17.25.217.097.448.101.674.135.43.06.863.113 1.268.266.428.162.735.454.822.931.105.571-.091 1.025-.547 1.37-.283.215-.618.308-.962.366a5.22 5.22 0 0 1-1.297.035c-.304-.024-.618-.053-.908-.188a1.572 1.572 0 0 1-.77-.703 3.46 3.46 0 0 1-.142-.309c-.03-.068-.021-.117.072-.122.095-.004.192-.022.288-.033.029.017.055.015.082-.006.263-.025.524-.052.786-.076.03.016.056.014.083-.007.083-.008.166-.008.246-.025.087-.016.129.02.154.094a.706.706 0 0 0 .3.368c.122.08.26.076.393.083.198.01.395-.009.564-.135.1-.074.168-.17.153-.298-.014-.136-.107-.2-.23-.254-.225-.102-.467-.12-.705-.164-.21-.039-.426-.066-.63-.126-.226-.068-.462-.097-.677-.209-.317-.163-.565-.41-.654-.74-.105-.394-.083-.795.211-1.134.238-.273.532-.435.88-.515.527-.122 1.063-.11 1.597-.077.26.017.515.08.759.182.426.178.664.526.846.948-.226.093-.461.05-.68.103-.032-.014-.059-.012-.086.008Zm-18.868 7.128c-.231.033-.453.066-.676.095-.252.033-.507.062-.757.1-.091.012-.137-.017-.176-.098-.211-.43-.733-.557-1.121-.373a.89.89 0 0 0-.518.667 2.086 2.086 0 0 0-.016.8c.072.42.356.695.767.751.418.058.753-.126.94-.515.082-.172.08-.17.258-.147.41.05.822.097 1.231.147.16.019.178.044.128.193a2.045 2.045 0 0 1-.73 1.028c-.376.283-.81.397-1.268.432a4.608 4.608 0 0 1-1.237-.043c-.66-.126-1.198-.457-1.552-1.06a1.767 1.767 0 0 1-.23-.767 5.33 5.33 0 0 1 .013-.908c.043-.482.281-.873.604-1.192.308-.304.703-.5 1.146-.567.584-.087 1.167-.093 1.746.037a1.875 1.875 0 0 1 1.291.969c.079.136.13.279.157.45Z"/>
</svg>
