<svg>
  <path d="M44.083 24.647c-.091.72-.179 1.43-.398 2.111-.398 1.224-1.098 2.24-2.045 3.084-.247.22-.516.416-.829.533-.587.22-.93.034-1.02-.592a4.994 4.994 0 0 1-.023-.972c.044-.944.2-1.868.604-2.726.167-.357.37-.706.607-1.022.53-.704 1.235-.983 2.105-.799.34.073.664.188.999.383ZM2.234 31.47l.017.07c.19.014.379.033.568.042.95.05 1.9.095 2.849.148a.388.388 0 0 0 .32-.11c.267-.253.542-.502.808-.756.044-.042.077-.092.15-.182-.69-.055-1.336-.108-1.978-.162a.334.334 0 0 1 .129-.14c.521-.337.886-.8 1.054-1.41.101-.365.211-.734.277-1.108.266-1.559.519-3.117.777-4.676.024-.156.055-.312.082-.466.25.818.54 1.6.848 2.377.266.673.53 1.346.78 2.027.392 1.073.743 2.16.93 3.293.03.182.055.363.085.575.071-.053.118-.08.154-.117.186-.193.36-.396.554-.58.376-.355.623-.777.826-1.258.939-2.234 2.174-4.298 3.538-6.286.014-.02.041-.028.093-.062-.008.137-.014.246-.022.352-.071.947-.148 1.89-.214 2.838a28.631 28.631 0 0 0-.063 1.533 523.886 523.886 0 0 0-.027 4.159c0 .095.024.192.04.304.22-.045.41-.078.596-.12.769-.165 1.537-.327 2.306-.503a1.32 1.32 0 0 0 .444-.2c.168-.118.16-.233.041-.392-.376.042-.738.109-1.1.12-.464.014-.708-.187-.782-.648a6.973 6.973 0 0 1-.102-1.192c.02-1.201.082-2.4.099-3.6.027-1.874.214-3.732.532-5.578.014-.075.003-.153.003-.26-.112.068-.192.11-.266.157-.349.22-.692.455-1.048.662a1.32 1.32 0 0 0-.514.553 143.037 143.037 0 0 1-4.086 7.298c-.044.075-.094.145-.151.234-.03-.053-.047-.075-.055-.097-.373-1.079-.744-2.16-1.117-3.237-.33-.947-.68-1.886-.99-2.838-.237-.726-.396-1.472-.371-2.245.002-.045-.017-.09-.022-.129-.676-.126-1.62-.117-2.44.036-1.216.23-2.262.788-3.102 1.718-.993 1.103-1.322 2.416-1.133 3.877.027.212.038.44.19.659.471-.458.93-.905 1.388-1.355-.222-.447-.373-.885-.398-1.357-.041-.869.244-1.573 1.018-2.011.206-.117.431-.207.656-.277.492-.156 1.002-.21 1.515-.226.225-.005.45 0 .695 0-.022.157-.033.277-.053.394-.34 2.025-.675 4.052-1.029 6.074-.115.66-.274 1.31-.439 1.958-.101.405-.351.732-.65 1.017a.454.454 0 0 1-.398.131c-.2-.025-.4-.045-.601-.053-.074-.003-.173.017-.225.064-.33.316-.656.64-.986.961Zm24.676-8.325c-.486.167-.908.307-1.328.466-.055.022-.102.126-.115.195-.047.257-.074.517-.116.771-.098.606-.156 1.22-.31 1.81-.326 1.254-1.023 2.296-1.893 3.223a5.55 5.55 0 0 1-.67.575c-.222.17-.48.268-.758.308-.31.041-.49-.11-.518-.425a1.513 1.513 0 0 1-.003-.223c.038-.576.063-1.151.12-1.724.094-.944.21-1.885.308-2.829.041-.405.085-.815.08-1.223-.014-.78-.522-1.095-1.205-.732-.744.394-1.337.972-1.795 1.684-.088.134-.126.308-.16.467-.027.134.017.254.176.335.047-.078.09-.16.14-.232.203-.296.393-.606.623-.88a1.2 1.2 0 0 1 .472-.315c.23-.09.368.02.404.268.01.072.01.148.008.223-.016.26-.03.52-.055.78-.099.988-.203 1.98-.302 2.968-.063.62-.134 1.24-.17 1.86-.014.254.03.523.104.768.096.324.343.509.684.5.206-.005.43-.022.612-.106.34-.156.675-.335.974-.556.95-.698 1.726-1.575 2.404-2.544.05-.073.107-.142.19-.251 0 .106.005.159 0 .21-.041.32-.096.642-.13.966-.054.516-.128 1.033-.14 1.552-.01.576.33.83.882.713.14-.031.285-.079.409-.154a4.02 4.02 0 0 0 .603-.43c.462-.416.838-.91 1.172-1.436a1.24 1.24 0 0 0 .135-.273c.085-.235.036-.333-.228-.442-.055.104-.104.213-.167.313-.19.296-.365.603-.582.874a1.378 1.378 0 0 1-.48.358c-.272.128-.401.036-.407-.266a3.373 3.373 0 0 1 .03-.5c.135-1.041.27-2.083.418-3.122.118-.838.25-1.673.384-2.508.041-.318.12-.634.2-1.016Zm18.68.399c-.143-.045-.253-.092-.366-.115-1.468-.296-2.854-.092-4.078.808-1.99 1.457-2.923 3.465-2.827 5.96.014.323.069.647.211.946.193.408.503.623.956.626.31.003.595-.084.87-.215.425-.204.798-.489 1.15-.802.73-.648 1.333-1.402 1.866-2.22.052-.081.11-.162.19-.28 0 .082.002.11 0 .135-.083.597-.176 1.195-.25 1.796a4.823 4.823 0 0 0-.05.888c.038.567.351.787.897.676a1.49 1.49 0 0 0 .16-.045c.29-.098.543-.265.77-.47.5-.443.91-.968 1.258-1.541.044-.07.08-.148.11-.226.09-.235.049-.321-.22-.464-.047.087-.088.179-.14.263-.209.326-.412.659-.64.972a.927.927 0 0 1-.543.357c-.184.042-.28-.017-.313-.207a1.055 1.055 0 0 1-.005-.279c.019-.223.044-.444.074-.665.118-.857.233-1.712.36-2.569.123-.846.25-1.692.384-2.536.044-.254.112-.505.175-.793ZM31.954 28.97c-.039.084-.077.165-.113.249-.165.41-.4.774-.713 1.08-.091.09-.193.174-.305.235-.244.137-.384.076-.434-.2a2.676 2.676 0 0 1-.033-.612c.028-.464.072-.928.118-1.388.094-.916.195-1.83.294-2.746.12-1.117.236-2.237.37-3.354.094-.774.198-1.547.333-2.315.09-.523.26-1.025.532-1.486.37-.628.92-.964 1.63-1.039a3.207 3.207 0 0 1 1.142.07c.104.025.187.033.272-.056.351-.377.71-.749 1.065-1.123.008-.01.005-.033.008-.067-.066-.02-.135-.047-.203-.056a4.499 4.499 0 0 0-1.606.079c-.947.234-1.715.768-2.374 1.477-1.065 1.15-1.696 2.525-1.97 4.07-.116.647-.173 1.306-.25 1.963-.107.932-.203 1.865-.308 2.798-.101.913-.216 1.827-.304 2.743-.05.516-.066 1.039-.082 1.558-.006.145.027.296.07.438.102.327.322.478.66.478.277 0 .518-.109.74-.257a4.902 4.902 0 0 0 1.452-1.46c.121-.19.2-.417.261-.637.066-.21-.008-.31-.252-.442Zm1.468-3.142c.052-.086.101-.173.16-.254.189-.273.361-.558.573-.812a1.35 1.35 0 0 1 .458-.344c.283-.134.447-.025.45.293.003.249-.027.5-.06.749-.225 1.648-.459 3.295-.678 4.946a3.524 3.524 0 0 0-.014.78c.039.401.275.605.664.574a1.66 1.66 0 0 0 .601-.164c.22-.11.426-.26.607-.425.47-.422.85-.921 1.188-1.455a1.23 1.23 0 0 0 .124-.248c.09-.238.052-.324-.217-.472l-.165.312c-.19.363-.384.724-.694.997a1.64 1.64 0 0 1-.491.285c-.16.062-.272-.022-.283-.198a3.25 3.25 0 0 1 .014-.612c.09-.692.195-1.38.288-2.072.154-1.114.307-2.229.445-3.346a2.086 2.086 0 0 0-.044-.69c-.08-.36-.368-.539-.725-.469-.16.03-.321.087-.461.168a5.28 5.28 0 0 0-1.713 1.58c-.101.149-.153.336-.2.512-.038.145.014.279.173.365Zm4.47-6.63c-.06.028-.087.034-.106.05a4.171 4.171 0 0 1-1.386.975c-.113.05-.162.137-.203.243-.187.472-.38.944-.566 1.419-.022.053-.024.114-.04.19.051-.017.079-.02.1-.034.552-.346 1.09-.72 1.54-1.198a5.5 5.5 0 0 0 .56-.748 1.03 1.03 0 0 0 .162-.637c-.003-.081-.036-.165-.06-.26Z"/>
</svg>
