<svg>
  <path d="M5.514 1.772c.307.181 2.823 2.59 5.592 5.35 2.768 2.761 5.1 5.02 5.183 5.02.556 0 .672-.743.578-3.693-.135-4.242.104-5.018 1.205-3.905.296.297.661.66.812.804.152.145 1.06 1.052 2.018 2.016l1.743 1.753.002 6.541c.001 5.741-.028 6.57-.242 6.784-.213.213-1.03.244-6.63.243-6.786 0-7.25-.044-7.89-.736a102.813 102.813 0 0 0-2.042-2.03c-1.167-1.138-1.647-1.712-1.647-1.969 0-.2-.079-.412-.175-.471-.491-.304.615-.444 3.741-.476 3.367-.033 4.187-.15 4.187-.603 0-.134-2.343-2.57-5.206-5.412-4.414-4.38-5.227-5.256-5.339-5.751l-.132-.584 1.64-1.605c1.794-1.755 1.791-1.754 2.602-1.276m37.966.203c3.137 2.28 3.445 3.29 1.525 5.002-.654.583-2.21 2.119-3.459 3.415a176.206 176.206 0 0 1-3.992 4.007c-2.562 2.455-2.437 2.606 2.121 2.575 3.714-.026 3.957.036 3.65.927-.325.943-4.054 4.558-4.835 4.687-1.702.282-13.047.1-13.36-.213-.3-.3-.31-.516-.31-6.657V9.37l.586-.67c.979-1.115 4.536-4.622 4.687-4.622.435 0 .543.778.58 4.182.056 5.133-.51 5.236 5.773-1.056 2.824-2.828 5.393-5.274 5.709-5.437.602-.308.619-.306 1.325.208m-21.107 23.35c.269.333.283.742.242 7.038l-.044 6.685-2.536 2.515c-3.341 3.313-3.317 3.326-3.18-1.743.075-2.773.024-3.391-.318-3.842-.278-.367-.049-.573-6.058 5.424-3.049 3.041-5.16 5.032-5.405 5.094-.45.113-2.713-1.986-3.538-3.28l-.411-.646 1.072-1.142a674.39 674.39 0 0 1 1.187-1.263c.063-.066 1.944-1.932 4.18-4.146 5.692-5.638 5.658-5.365.659-5.31-4.539.05-4.96-.206-3.122-1.898.463-.426.92-.864 1.015-.972.6-.68 2.171-2.137 2.553-2.37.25-.153.49-.335.535-.406.044-.07 2.96-.12 6.482-.11l6.401.02.286.353Zm6.209-.35-3.139.043-.273.416c-.28.427-.52 12.062-.269 13.06.091.365 1.65 2.07 3.25 3.555.425.395 1.02.979 1.32 1.3 1.019 1.076 1.147.675 1.156-3.612.007-2.91.042-3.393.279-3.755.33-.505.024-.737 3.475 2.632 1.378 1.347 2.6 2.537 2.714 2.648.114.11 1.305 1.31 2.646 2.663 2.794 2.82 2.868 2.866 3.571 2.147.278-.283.94-.92 1.473-1.417.533-.497.969-.962.969-1.034 0-.073.169-.335.377-.582l.378-.45-.727-.718c-6.544-6.48-9.481-9.47-9.894-10.075l-.503-.737.338-.194c.236-.134 1.191-.195 3.13-.199 3.708-.008 3.968-.03 4.417-.374l.384-.296-1.596-1.562c-.876-.859-1.648-1.561-1.715-1.561-.066 0-.218-.186-.34-.414-.121-.227-.572-.64-1.004-.917l-.784-.502-3.247-.053c-1.787-.029-4.66-.034-6.386-.011"/>
</svg>
