<svg>
  <rect rx="8"/>
  <path d="M24 1.5c12.426 0 22.5 10.074 22.5 22.5S36.426 46.5 24 46.5 1.5 36.426 1.5 24 11.574 1.5 24 1.5Zm.113 1.05c-11.91 0-21.563 9.654-21.563 21.563 0 11.908 9.654 21.562 21.563 21.562 11.908 0 21.562-9.654 21.562-21.562 0-11.91-9.654-21.563-21.562-21.563ZM22.35 40.574l.074.005c.296.042.536.424 1.072 1.67l.268.638v-1.105c.014-.991.042-1.09.296-1.09.24 0 .282.099.282.665A18.8 18.8 0 0 1 24.244 43c-.07.864-.113.963-.381.92-.212-.028-.41-.34-.79-1.232l-.494-1.175-.042 1.147c-.043 1.034-.07 1.147-.31 1.147-.254 0-.283-.099-.283-1.19 0-.65.043-1.387.085-1.628.07-.354.155-.439.395-.41Zm3.996.005c.14-.17.677-.241.677-.1 0 .043-.127.326-.282.638-.367.722-.367.764.211 1.557.565.765.607.992.226.992-.17 0-.466-.255-.734-.638-.522-.722-.733-.637-.592.241.07.467.042.538-.212.538-.31 0-.352-.113-.592-1.742-.17-1.19-.127-1.515.197-1.515.212 0 .297.213.41.991.042.326.07.312.296-.212.14-.311.324-.651.395-.75Zm-7.082 1.104c.663-1.331.748-1.43 1.1-1.388.339.043.395.128.48.68.042.354.099 1.105.099 1.671.014.92-.014 1.034-.226.991-.155-.028-.282-.212-.324-.467-.057-.297-.184-.453-.48-.566-.296-.1-.423-.1-.466.014-.127.396-.437.665-.663.58-.197-.085-.14-.283.48-1.515Zm10.594-2.124c1.355 0 2.06 2.28.931 2.988-.606.368-.987.34-1.495-.1-.79-.665-.931-2.194-.254-2.676.17-.113.536-.212.818-.212Zm-12.809-.24c.099-.142.24-.128.635.042 1.044.439 1.284.963.677 1.515-.254.24-.31.382-.211.566.098.17.084.369-.043.638-.155.311-.296.396-.776.424-.338.029-.776-.056-1.015-.184l-.438-.212.268-.68c.156-.368.381-.949.522-1.303.127-.354.297-.708.381-.807Zm13.275 1.075c-.55-.608-1.298-.127-1.115.723.198.906.931 1.402 1.34.92.24-.283.1-1.289-.225-1.643Zm-9.931 1.147c0-.693-.141-.708-.438-.07l-.05.106c-.196.433-.133.53.234.53.197 0 .254-.112.254-.566Zm-3.048-.34c-.366-.141-.45-.099-.536.284-.127.467.071.68.466.552.353-.113.409-.708.07-.835Zm14.375-2.69c.678-.41.748-.425.89-.198.056.085-.086.311-.354.524l-.094.08c-.318.27-.326.338-.145.571.197.27.211.27.634.028.395-.226.424-.24.55 0 .113.199.057.298-.267.496l-.41.255.297.58c.24.482.254.61.098.709-.098.07-.211.127-.253.127-.113 0-1.552-2.492-1.552-2.676 0-.071.268-.298.606-.496Zm-17.111-.935c.056 0 .169.085.254.185.127.141-.014.439-.536 1.246l-.706 1.048.452.368c.38.325.423.41.268.595-.155.198-.254.17-.875-.284l-.705-.495.24-.383c.14-.198.536-.793.874-1.33.353-.525.677-.95.734-.95Zm3.16 2.351c-.297-.113-.268-.127-.452.255-.127.297-.113.368.113.439a.612.612 0 0 0 .423 0c.226-.142.17-.595-.084-.694Zm16.66-3.483c.028 0 .395.439.832.977.96 1.175 1.1 1.657.593 2.124-.184.184-.41.283-.494.226-.198-.113-.198-.495-.014-.495.31 0 .113-.652-.395-1.26-.96-1.176-.931-1.12-.734-1.36.1-.113.198-.212.212-.212Zm-22.783.594c1.242-.807 1.355-.85 1.58-.637.339.312.325.496-.155 1.36l-.101.186c-.21.393-.461.882-.618 1.173-.282.566-.325.595-.536.396-.184-.198-.198-.297-.043-.608.141-.34.127-.425-.113-.666-.268-.269-.296-.269-.663-.042-.338.226-.395.24-.592.028-.029-.029-.056-.053-.079-.075l-.04-.041c-.134-.15.028-.224 1.36-1.074Zm.903.425c.268-.538.17-.566-.38-.113-.353.283-.368.34-.17.51.254.212.24.212.55-.397Zm24.095-2.719c.493 0 .663.1 1.185.623.493.496.62.708.62 1.105 0 1.473-1.749 1.798-2.736.51-.48-.638-.48-1.232 0-1.799.296-.354.465-.439.93-.439ZM23.826 12.69c6.908 0 12.507 5.6 12.507 12.507s-5.6 12.507-12.507 12.507-12.506-5.6-12.506-12.507 5.6-12.507 12.506-12.507ZM10.9 33.909c.225-.014.888.963.888 1.303 0 .467-.282.793-.747.878-.339.07-.55.254-.86.722-.325.51-.438.595-.593.467-.268-.212-.254-.368.084-.793.297-.396.381-.892.127-.892-.084 0-.352.17-.62.368-.466.354-.48.354-.621.071-.141-.24-.014-.382 1.016-1.204l.135-.107c.582-.46 1.099-.813 1.19-.813Zm26.21 1.685c-.55-.34-.818-.354-1.058-.07-.395.48.41 1.628 1.143 1.628.874 0 .818-.992-.085-1.558ZM23.898 14.472c-5.884 0-10.654 4.77-10.654 10.654s4.77 10.654 10.654 10.654 10.654-4.77 10.654-10.654-4.77-10.654-10.654-10.654Zm-12.83 20.343c-.17-.17-.254-.156-.55.07-.325.256-.339.284-.113.51.254.27.635.185.776-.17.042-.112-.014-.31-.113-.41ZM38.11 32.48c.395 0 .536.085.733.424.127.227.325.425.438.425.155 0 1.044.255 1.255.368.014.015 0 .128-.056.255-.099.27-.466.298-.974.057-.296-.127-.409-.127-.592.057-.198.212-.17.269.38.609.537.34.58.396.382.594-.24.241-.31.213-1.806-.764-.536-.34-.973-.694-.973-.793 0-.1.155-.411.352-.708.31-.44.438-.524.86-.524Zm-28.482-.85c.014 0 .268.425.55.935.423.75.48.963.325 1.062-.297.184-.381.155-.48-.156L10 33.395c-.046-.12-.112-.208-.16-.208-.056 0-.578.283-1.184.623-.776.439-1.115.58-1.228.467-.268-.269-.183-.354.974-1.02 1.072-.637 1.114-.665.959-1.005-.141-.283-.127-.382.042-.496.113-.07.212-.127.226-.127Zm28.806 1.614c-.211-.255-.465-.255-.691.014-.183.227-.099.425.282.638.353.198.677-.326.41-.652Zm.522-3.158c.48-.368.903-.382 1.623 0 .832.425 1.058 1.034.761 2.054-.113.425-.282.764-.352.764s-.734-.269-1.467-.58c-1.468-.637-1.552-.75-1.143-1.544.113-.212.38-.538.578-.694ZM8.05 29.363c.451-.198.62-.155.776.142.141.255.042.41-.663 1.161-.452.482-.72.836-.607.793.113-.042.55-.184.96-.34.648-.226.761-.226.874-.056.17.283.141.297-1.467.906-1.1.41-1.425.481-1.51.34-.211-.326-.14-.44.748-1.346.48-.495.819-.892.734-.892-.085 0-.55.156-1.03.354-.48.199-.931.326-1.002.284-.338-.213-.056-.482.89-.836.55-.212 1.142-.439 1.297-.51Zm32.53 1.544c-.606-.61-1.34-.567-1.692.113-.141.283-.113.34.296.51 1.284.538 1.538.595 1.665.382.225-.354.155-.566-.268-1.005Zm1.087-3.498c.917-.028 1.03 0 .987.213-.028.141-.24.311-.465.396-.72.24-.889.835-.282 1.062.352.142.507.708.197.708-.099 0-.79-.326-1.538-.736-1.297-.68-1.368-.75-1.283-1.09.084-.312.211-.383.733-.454a16.283 16.283 0 0 1 1.65-.099ZM6.61 27.282c.79-.156 1.481-.255 1.524-.227.197.1.451 1.473.296 1.629-.212.212-.41.028-.522-.454-.113-.495-.24-.608-.564-.481-.198.085-.226.212-.155.637.07.482.056.552-.184.552-.211 0-.31-.127-.38-.495-.085-.453-.128-.482-.466-.41-.198.056-.381.098-.395.112-.014.015.028.255.084.539.127.552.085.68-.211.68-.198 0-.48-.836-.48-1.431 0-.354.057-.382 1.453-.651Zm33.927.807-.606.014.493.269c.635.34.706.34.706 0 0-.24-.1-.283-.593-.283ZM5.905 24.506c1.27-.255 2.215.397 2.215 1.487 0 .439-.057.538-.283.538-.225 0-.282-.099-.282-.453 0-.609-.352-.963-.973-.963-.776 0-1.143.326-1.143 1.005 0 .454-.042.553-.282.553-.24 0-.282-.1-.282-.694 0-.552.07-.75.367-1.048.197-.198.494-.397.663-.425Zm34.459-.53c.22.003.513.016.907.035.86.042 1.594.113 1.636.155.042.043.042.199 0 .354-.07.184-.48.453-1.213.765l-1.114.467 1.086.071c.888.057 1.086.113 1.128.312.043.226-.098.255-1.34.255l-.196-.001c-1.388-.012-1.728-.163-1.539-.65.07-.185.423-.412.973-.624.48-.17.903-.382.946-.439.042-.07-.381-.127-.917-.127-.931 0-1.002-.029-1.002-.298 0-.194.018-.267.45-.275Zm.864-5.177c1.044-.368 1.002-.24-.282.92-1.015.921-1.424 1.148-2.031 1.148h-.367l.325-.354c.592-.623 1.805-1.515 2.355-1.714ZM6.511 15.613c.141-.226 1.326-.028 1.792.312.212.156.451.24.522.198.07-.042.353.014.635.127.606.255 1.044 1.105 1.157 2.266.14 1.374-.466 2.35-1.44 2.35-.366 0-.592-.14-1.114-.679-.903-.934-.874-1.09.085-.425.197.142.508.255.663.255.451 0 .86-.779.86-1.657 0-.793-.14-1.02-.423-.68-.409.496-.945.156-1.086-.693-.07-.482-.17-.567-.564-.524-.212.028-.974-.354-1.1-.552a.32.32 0 0 1 .013-.298Zm29.554 2.974c.17-.326.31-.34.55-.043.156.17.142.255-.042.44-.31.325-.733 0-.508-.397Zm-3.752-6.854c.578-.255.62-.156.141.354-.38.397-.38.425-.155.765.268.41.79.722 1.495.864.268.042.607.127.748.17.197.042.564-.241 1.354-1.077.945-.99 1.566-1.416 1.566-1.047 0 .07-.381.623-.847 1.246-.45.623-.973 1.373-1.128 1.67l-.31.539.578.24c.353.156.578.34.607.524.028.156.268.411.564.567.282.156.55.382.578.524.07.226.875.821 1.129.821.07 0 .48-.354.93-.779.58-.552.932-.779 1.2-.779h.38l-.281.411c-.17.227-.621.68-1.016 1.02-.564.467-.846.609-1.383.665-.761.071-1.622-.255-1.848-.694-.084-.141-.423-.453-.761-.694-.353-.226-.663-.552-.72-.693-.042-.156-.296-.354-.564-.44-.564-.183-.663-.382-.395-.807.226-.34.183-.396-.592-.538-.31-.056-.903-.255-1.312-.453-1.453-.68-1.425-1.7.042-2.379ZM5.326 16.93c.226-.226.325-.212.522.028.127.156.141.284.014.496-.126.255-.183.27-.423.113-.324-.198-.352-.396-.113-.637Zm4.698-3.427c.07-.113.296-.141.62-.099.636.113 1.228.779 1.355 1.53.113.693-.042 1.685-.268 1.685-.353 0-.508-.369-.508-1.204 0-.878-.155-1.204-.564-1.204-.31 0-.762-.51-.635-.708Zm3.132-.609c.07-1.147.113-1.345.268-1.217.38.311.649 1.586.48 2.294-.34 1.529-1.13 2.35-.932.977.041-.268.09-.828.135-1.408l.033-.434Zm24.786 1.247c.126-.34.719-.227.719.141 0 .312-.437.467-.663.24-.085-.084-.113-.254-.056-.381ZM15.596 7.938c0-.269.014-.269.395-.028.212.141.564.41.776.623.381.354.41.425.353 1.36-.057 1.217-.72 2.704-1.44 3.256-.79.61-.86.397-.225-.779.226-.424.41-.878.423-1.005 0-.142-.324-.439-.705-.694-.72-.467-.987-.793-.987-1.204 0-.184.07-.184.55.057.296.156.747.453.987.666.367.297.48.34.65.198.366-.312.253-.977-.283-1.6-.268-.312-.494-.694-.494-.85Zm19.214 2.393c.338-.24 1.396-.325 1.17-.099-.084.071-.296.156-.493.184-.41.057-.423.312 0 .368.38.057.367.51-.028.765-.508.326-1.03.41-1.51.24-.635-.226-.536-.424.184-.325.338.057.72.028.86-.042.212-.128.198-.156-.127-.241-.465-.113-.494-.552-.056-.85Zm-4.317-3.313c.296-.723.48-.411.48.821 0 .765.056 1.133.183 1.175.254.085-.028.793-.465 1.105-.198.156-.89.382-1.552.524-.734.17-1.41.425-1.764.651-.465.326-.677.383-1.156.326-1.242-.128-1.284-.807-.057-.807.875 0 1.538-.213 1.975-.623.226-.199.607-.368.974-.411.324-.042.69-.142.79-.227.112-.099.24-.594.296-1.118.056-.524.183-1.161.296-1.416Zm-8.196-.878c.282 0 .367.594.141.85-.31.34-.254.566.127.566.494 0 .691.34.607 1.02-.156 1.118-1.637 2.662-2.582 2.662-.748 0-1.044-.397-1.044-1.402 0-.468.07-.892.141-.935.085-.057.141.113.141.41 0 .369.085.567.339.723.296.198.395.198.818.028.254-.113.677-.425.931-.694l.466-.495-.353-.156a.916.916 0 0 1-.451-.524c-.1-.382.155-1.586.395-1.87.084-.098.225-.183.324-.183Zm5.784-2.11c.691-.368.776-.368.776-.029 0 .17-.268.44-.706.723-1.156.736-1.27.977-1.185 2.237.1 1.388-.084 1.7-1.424 2.436-.678.368-1.115.722-1.383 1.118-.437.638-.832.808-1.594.666-.663-.128-.55-.368.31-.68.494-.184.917-.495 1.467-1.09.48-.538 1.03-.949 1.44-1.133l.677-.283-.085-1.034c-.07-.807-.042-1.147.127-1.459.282-.552.874-1.104 1.58-1.472Zm5.149 3.384c.127 0-.226 2.025-.437 2.577a2.045 2.045 0 0 1-.438.638c-.282.255-.282.24-.183-.453.155-1.176.465-2.21.72-2.493.126-.141.281-.269.338-.269Zm-20.765.368c.056-.056.14.1.183.369.056.368.099.41.183.212.254-.566.79-.085.79.708 0 .396-.211.75-.451.75-.057 0-.042-.17.028-.368.24-.609.183-.793-.155-.594-.24.155-.31.141-.494-.085-.211-.298-.268-.822-.084-.992Zm4.683-1.217c.014-.354.014-.354.437.141C18.7 7.995 19.11 8.774 18.87 9.198c-.226.397-1.721-1.925-1.721-2.633Zm6.926-.17c.156-.298.424-.326.663-.085.184.184-.028.68-.296.68-.324 0-.522-.312-.367-.595Z"/>
</svg>
