<svg>
  <path d="M9.137 23.692v2.27h3.368c-.509 1.846-1.919 2.769-3.642 2.769-2.428 0-3.917-1.77-3.917-4.731 0-2.923 1.528-4.73 4.034-4.73 1.606 0 2.781.845 3.369 2.23l3.094-1.154c-1.058-2.461-3.33-3.846-6.345-3.846-4.622 0-7.598 3-7.598 7.577 0 4.461 2.742 7.423 6.893 7.423 2.076 0 3.642-.77 4.66-2.23l.196 2.038h2.468v-7.616h-6.58Zm16.253-7c3.564 0 5.68 1.77 5.68 4.693 0 2.961-2.116 4.692-5.68 4.692h-3.015v5.23h-3.33V16.693h6.345Zm15.314 0L46.5 31.308h-3.603l-1.058-2.885h-6.5l-1.058 2.885h-3.525l5.796-14.616h4.152Zm-2.115 2.885-2.193 6h4.386l-2.193-6Zm-13.59-.115h-2.624v4h2.624c1.723 0 2.663-.693 2.663-2 0-1.347-.94-2-2.663-2Z"/>
</svg>
