<svg>
  <path d="M15.217 36.82c-.014.026-.04.093-.081.152-.116.17-.335.25-.517.162-.547-.265-1.112-.234-1.684-.105-.32.071-.636.161-.96.227-.373.075-.754.126-1.13.193-.819.145-1.596.408-2.373.67-.791.27-1.58.547-2.408.71-.674.133-1.352.186-2.04.104a1.316 1.316 0 0 1-.65-.248c-.2-.152-.38-.322-.563-.536.192-.078.355-.156.524-.213.514-.172 1.056-.245 1.591-.332.77-.126 1.541-.254 2.282-.498.846-.28 1.584-.7 2.18-1.326.4-.42.927-.666 1.503-.82.531-.14 1.073-.247 1.604-.384.288-.074.562-.183.849-.267.2-.059.24-.198.237-.361-.002-.158-.055-.272-.237-.343-1.188-.467-2.388-.54-3.613-.12-.593.204-1.146.475-1.695.757-.503.258-1.006.513-1.511.767-.593.3-1.232.424-1.908.401-.369-.012-.736-.04-1.105-.056-.36-.017-.722-.036-1.081-.04-.173-.002-.296-.055-.393-.179-.039-.053-.078-.103-.115-.158-.097-.138-.214-.256-.408-.302-.005-.1-.019-.198-.014-.295.01-.189.071-.24.277-.266.523-.068 1.05-.129 1.573-.215a8.92 8.92 0 0 0 1.77-.46c.46-.179.839-.44 1.139-.82a9.516 9.516 0 0 1 2.466-2.217 7.122 7.122 0 0 1 1.047-.525c.253-.103.542-.139.846-.213-.097-.04-.177-.096-.265-.107a.567.567 0 0 1-.41-.246 6.897 6.897 0 0 1-.395-.615c-.166-.3-.307-.612-.468-.913-.1-.187-.217-.365-.332-.559-.335.085-.672.181-1.015.248a9.365 9.365 0 0 1-1.158.173 2.905 2.905 0 0 1-.822-.063 5.108 5.108 0 0 0-1.462-.101c-.397.025-.796.052-1.209.08.037-.04.07-.086.111-.118.265-.202.52-.42.805-.593.196-.117.415-.203.618-.317.247-.139.529-.185.817-.198.323-.014.646-.02.966-.037.365-.02.695-.13.962-.36.29-.25.568-.513.847-.773.288-.271.567-.55.86-.82.245-.225.526-.405.84-.546.344-.156.678-.33 1.015-.5.074-.038.147-.078.212-.124.136-.097.164-.185.106-.332-.028-.072-.074-.14-.101-.213-.07-.176-.148-.353-.199-.536-.092-.327-.32-.533-.692-.58-.784-.096-1.57-.18-2.366-.113-.282.023-.563.065-.856.099-.03-.3-.314-.13-.466-.208-.056-.105.023-.177.074-.253a6.1 6.1 0 0 1 .883-1.021c.648-.62 1.382-1.154 2.088-1.717.56-.448 1.114-.904 1.647-1.379.491-.439.879-.95 1.165-1.525.244-.494.562-.95.952-1.36.358-.376.734-.736 1.11-1.095.207-.198.454-.355.74-.454.145-.05.173-.099.155-.242-.023-.2-.104-.38-.233-.542-.12-.151-.18-.164-.37-.082-.59.256-1.185.5-1.81.675-.212.058-.43.109-.646.153-.145.03-.212-.008-.263-.111-.05-.1-.032-.156.095-.246.235-.166.417-.372.574-.597.074-.107.15-.212.215-.324a2.915 2.915 0 0 1 1.116-1.097c.574-.323 1.16-.63 1.746-.94.526-.277 1.064-.535 1.583-.819a6.114 6.114 0 0 0 1.305-.962.451.451 0 0 0 .134-.202l-.242.038c-.494.07-.988.143-1.481.206-.611.077-1.218.168-1.723.576a.838.838 0 0 1-.238-.669c.005-.054.08-.113.14-.151.416-.267.82-.549 1.253-.788a146.46 146.46 0 0 1 3.317-1.778c1.636-.85 3.184-1.808 4.586-2.955a.496.496 0 0 1 .053-.042.452.452 0 0 1 .64.1c.142.207.193.44.23.677.03.202.057.402.092.604.046.277.175.52.39.723.145.134.293.267.445.395.164.138.332.27.496.41.307.26.588.533.71.922.206-.006.328.103.425.248a.405.405 0 0 0 .344.179c.152.004.306.002.461 0a3.65 3.65 0 0 0 .254-.017c.32-.027.57.071.789.298.699.728 1.409 1.446 2.126 2.157.39.386.79.767 1.207 1.128.613.528 1.326.93 2.078 1.276l.245.113c-.081.28.14.48.263.717-.155.061-.293.04-.427.023-.547-.063-1.052-.25-1.564-.422-.54-.183-1.077-.37-1.626-.53-.245-.071-.51-.09-.768-.113a.689.689 0 0 0-.455.128c-.189.13-.242.31-.129.5.065.11.155.21.254.296a2.55 2.55 0 0 0 1.026.545c1.306.34 2.618.668 3.926 1 .118.03.238.055.348.08.063.298.003.427-.265.57a.902.902 0 0 1-.623.088 84.793 84.793 0 0 1-1.45-.332c-.626-.147-1.25-.286-1.897-.339a4.41 4.41 0 0 0-1.37.112c-.037.008-.071.023-.108.035-.014.005-.026.017-.058.038.044.086.085.183.139.271.283.463.648.868 1.051 1.247.607.571 1.27 1.084 2.033 1.473.816.414.94.414 1.792.189.332-.088.664-.17 1.003-.235.314-.061.554.037.757.281.47.561.966 1.108 1.46 1.652.59.65 1.133 1.328 1.504 2.106.044.088.083.179.138.3-.26.055-.505.066-.74.011a4.135 4.135 0 0 1-.646-.219c-.203-.082-.394-.189-.595-.277a1.975 1.975 0 0 0-1.029-.162.714.714 0 0 0-.376.143c-.184.147-.383.284-.551.446-.305.292-.671.31-1.064.229-.45-.095-.837-.307-1.213-.545-.106-.067-.214-.138-.332-.187a.31.31 0 0 0-.212.013c-.086.042-.095.132-.049.204.136.212.111.439.097.67-.02.332.049.656.194.963.05.107.12.212.196.307a.595.595 0 0 0 .584.22c.332-.05.666-.103 1-.151.799-.116 1.597-.223 2.409-.187a3.7 3.7 0 0 1 .729.092c.21.053.431.13.602.25a6.277 6.277 0 0 0 1.592.793c.452.155.908.302 1.358.468.554.206 1.052.492 1.442.917.074.078.138.164.228.269-.2 0-.364-.002-.528 0-.445.006-.893.002-1.336.027-.872.048-1.732.04-2.585-.168-.637-.156-1.285-.088-1.917.05-.791.173-1.578.368-2.37.54-1.04.227-2.094.379-3.162.45-.12.009-.24.025-.362.072.04.014.079.035.12.044.911.223 1.822.458 2.738.662.93.206 1.875.305 2.835.267a2.29 2.29 0 0 1 1.232.29c.332.187.65.397.962.613.341.24.662.5.996.749a6.5 6.5 0 0 0 1.458.8c.584.236 1.17.465 1.74.723.355.162.687.368 1.019.57.131.08.256.185.348.302.185.236.43.398.692.545.2.113.406.223.623.34-.164.166-.364.22-.579.24-.348.03-.69-.025-1.024-.112-.54-.138-1.075-.287-1.62-.411a3.434 3.434 0 0 0-1.593.01c-.572.139-1.156.122-1.74.027l-.216-.031-.21.855c.064.034.138.088.219.112.415.124.828.256 1.252.357.916.218 1.825.443 2.692.794.598.242 1.179.515 1.721.851.226.141.431.314.63.488a.667.667 0 0 1 .242.443.606.606 0 0 1-.042.286c-.083.19-.223.227-.42.13a4.861 4.861 0 0 0-1.487-.487 5.098 5.098 0 0 0-1.786.071c-.57.118-1.132.257-1.702.368-.791.154-1.573.126-2.337-.14a2.286 2.286 0 0 0-.975-.101c-.383.035-.764.069-1.147.115-.445.055-.888.04-1.33-.025a5.885 5.885 0 0 0-1.4-.046c-.372.033-.737-.044-1.094-.118a3.874 3.874 0 0 0-1.124-.05c-.313.027-.627.04-.95.058-.005.028-.014.055-.012.08.058.54-.006 1.076-.053 1.614-.09 1.064-.025 2.115.43 3.117.242.536.562 1.028.964 1.475.281.313.588.61.89.908.293.29.667.416 1.093.423.178.002.353 0 .53.002.296.004.56.09.78.269.185.149.374.292.55.45.648.586 1.381 1.07 2.161 1.498.065.036.127.074.221.128-.066.02-.103.036-.14.038a16.7 16.7 0 0 1-2.533.044 17.072 17.072 0 0 1-2.611-.4c-.365-.081-.731-.165-1.096-.25-.044-.01-.088-.014-.131-.02-.019.197.147.504.535.998.237.303.493.588.904.797a3.797 3.797 0 0 1-1.135-.053 7.413 7.413 0 0 1-1.412-.448c-.66-.269-1.31-.554-1.997-.76a1.698 1.698 0 0 1-.773-.515c-.168-.19-.32-.393-.48-.59-.14-.175-.272-.358-.422-.526a1.854 1.854 0 0 0-.768-.522c-.17-.06-.325-.157-.487-.237-.15-.071-.295-.156-.452-.206a1.051 1.051 0 0 0-.404-.042c-.23.023-.31.202-.163.366.087.094.226.151.341.225-.224.245-.879.298-1.204.103-.18-.108-.371-.2-.565-.282-.545-.23-1.117-.231-1.696-.143-.053.008-.106.021-.159.025a1.778 1.778 0 0 0-.945.351c-.072.053-.148.099-.222.152a3.597 3.597 0 0 1-1.61.632c-.92.137-1.843.223-2.773.26-.99.04-1.981.078-2.97.127-.384.019-.764.06-1.142.092-.132-.172-.132-.172-.483-.262.314-.074.577-.143.845-.196.745-.15 1.499-.235 2.256-.302.643-.057 1.284-.114 1.926-.173.288-.027.507-.155.634-.397.067-.126.125-.256.192-.383a.883.883 0 0 1 .493-.447.79.79 0 0 0 .47-.437c.072-.162.135-.328.185-.496.079-.252.194-.486.374-.692.25-.286.5-.567.731-.866a6.23 6.23 0 0 0 .48-.714c.14-.24.157-.5.048-.753a6.815 6.815 0 0 0-.369-.767c-.214-.363-.459-.712-.685-1.071-.226-.358-.445-.717-.676-1.093-.099.046-.212.088-.313.147-.404.231-.803.468-1.207.7-.196.111-.39.227-.595.32-.182.087-.376.136-.613.213Zm-3.959-7.034c.026.034.033.053.044.057.53.158.999.427 1.486.666.489.24 1.015.313 1.561.278.32-.021.644-.042.964-.08.243-.03.487-.072.718-.139.242-.071.33-.22.265-.441a3.53 3.53 0 0 0-.244-.63c-.125-.242-.358-.36-.656-.354-.099.002-.2.004-.297.025-.335.074-.671.15-1.001.238-.695.185-1.393.343-2.12.38-.235.01-.47 0-.72 0Zm16.17-12.462c.076.233.065.426.023.622-.027.13-.057.26-.067.393-.011.16.017.197.187.241.266.07.53.137.8.194.845.176 1.694.338 2.49.67.083.034.175.049.265.063.127.02.233-.019.284-.13.064-.14.136-.284.175-.43.062-.234-.042-.392-.293-.478a1.848 1.848 0 0 0-.355-.084c-.367-.055-.708-.155-1.022-.353-.212-.135-.46-.227-.7-.315-.463-.173-.952-.263-1.443-.343-.104-.02-.208-.031-.344-.05Zm-15.367 5.762c.4-.182.782-.349 1.151-.531.2-.1.388-.227.574-.345.093-.059.153-.14.136-.25-.013-.097.037-.158.118-.21.102-.065.199-.133.293-.204.083-.065.118-.145.055-.242a63.336 63.336 0 0 1-.475-.756c-.653.02-1.248.24-1.785.603-.136.092-.235.241-.431.25-.01 0-.019.02-.047.055.178.273.153.588.136.903-.002.057-.002.112.003.168a.86.86 0 0 0 .272.56Zm5.003 8.157c.028.002.051.008.072.004.27-.063.288-.055.366.19.024.073.042.148.06.224.04.156.077.313.12.469.051.174.063.178.247.185.718.023 1.07-.345.898-.982-.167-.611-.45-1.187-.787-1.738a.786.786 0 0 0-.11-.134c-.222-.227-.476-.2-.626.071a.682.682 0 0 0-.07.242c-.013.124-.004.252-.008.376-.01.216-.01.433-.037.647-.021.15-.081.292-.125.446Zm1.156-12.457c.374-.277.736-.538 1.086-.807.224-.172.406-.382.535-.624.146-.275.208-.559.063-.849a.574.574 0 0 1-.021-.487c.025-.068.035-.141.055-.223-.198-.036-.348.025-.489.088-.53.24-.876.63-1.05 1.14-.057.17-.14.32-.255.464a2.012 2.012 0 0 0-.152.21.487.487 0 0 0-.047.445c.081.208.176.412.275.643ZM9.83 27.26c.097.067.16.118.231.158.678.39 1.421.504 2.21.416.362-.04.68-.162.953-.385.163-.134.207-.258.129-.447a1.091 1.091 0 0 0-.41-.471.522.522 0 0 0-.432-.095c-.14.032-.29.042-.427.084-.703.221-1.405.448-2.108.673-.037.013-.067.031-.146.067Zm6.196-16.058c.252.325.515.632.42 1.061.254.01.491-.038.731-.084.346-.067.628-.214.812-.502.136-.213.342-.364.595-.444.259-.084.526-.147.794-.21.233-.055.286-.116.26-.334-.006-.048-.02-.097-.027-.145-.014-.08-.07-.124-.152-.137-.296-.048-.59-.082-.89-.033-.287.046-.538.164-.783.294a4.177 4.177 0 0 1-1.578.49c-.062.006-.117.029-.182.044Zm-1.778 15.764c.244-.086.51-.174.77-.275.203-.078.415-.154.598-.263.154-.095.29-.225.408-.36.13-.149.148-.33.083-.516-.095-.274-.286-.475-.544-.627-.376-.218-.65-.168-.902.168-.109.145-.199.299-.305.444-.143.197-.325.35-.59.405-.028.007-.053.021-.109.047.2.325.392.645.59.977Zm22.63 2.646c.022.34-.103.595-.24.845-.001.006-.006.012-.008.019-.111.248-.088.36.133.54.342.277.725.494 1.156.634.1.034.208.05.311.066.1.014.178-.023.233-.103.116-.166.243-.324.351-.492.164-.254.148-.389-.067-.605a2.966 2.966 0 0 0-1.268-.774c-.178-.054-.37-.08-.6-.13Zm-1.757.782c.11-.255.208-.482.31-.704.098-.221.078-.29-.14-.42-.276-.169-.585-.236-.913-.253-.634-.033-1.252.084-1.873.166a.439.439 0 0 0-.327.242c-.106.183-.037.374.173.45.113.04.237.06.357.071.41.038.824.065 1.234.103.418.036.845.063 1.18.345Zm-20.218-9.767c-.02.137.002.286.159.387.083.053.17.074.24-.02.194-.264.482-.358.807-.38.455-.029.89-.104 1.304-.304.253-.122.364-.28.35-.532-.014-.245-.127-.35-.401-.361a1.431 1.431 0 0 0-.708.155 1.782 1.782 0 0 1-.72.196 3.77 3.77 0 0 0-1.027.216c-.186.068-.205.129-.09.28a.418.418 0 0 1 .086.363Zm9.208-2.223c.076.008.13.017.182.019l.988.055c.274.014.551.04.825.046.25.006.386-.103.43-.324.046-.22-.01-.429-.109-.63-.06-.12-.152-.19-.302-.181-.344.019-.69.019-1.031.057a3.01 3.01 0 0 0-.683.166c-.337.124-.387.225-.344.55.007.076.026.152.044.242Zm4.473 5.832c.228.313.429.603.646.88.092.118.207.228.33.32a.753.753 0 0 0 .304.134c.26.053.526.085.807.127a507.29 507.29 0 0 0-.226-1.554c-.595.024-1.215-.073-1.861.093Zm-4.28.576c-.006.229-.029.464-.02.7.014.33.16.5.51.59.6.152.851-.033.957-.483.076-.332.148-.666.222-1-.16-.057-.206-.068-.41-.032-.41.067-.813.143-1.258.225Zm-3.849-9.714c.088.34.108.679.328.992.249-.134.498-.244.72-.39.634-.423.652-.846.537-1.493-.139.038-.277.076-.413.116-.178.05-.353.117-.468.254-.185.22-.425.376-.704.521ZM26.826 25.8c.52.012.971-.15 1.465-.194l-.757-1.33c-.127.031-.249.076-.376.092-.154.021-.24.101-.253.232a1.909 1.909 0 0 0-.014.458c.027.24.032.473-.065.742Zm6.088-4.597c-.074-.046-.13-.098-.197-.12-.237-.073-.475-.161-.722-.201a2.23 2.23 0 0 0-1.314.197c-.072.034-.18.068-.155.158.02.071.1.13.157.19.018.018.053.026.083.035.185.046.367.113.556.128.427.032.856.038 1.285.05.057.003.117-.008.198-.016-.097-.168-.004-.288.109-.42Zm-10.012-3.472c-.212.034-.429.066-.645.108-.12.023-.24.05-.351.092a.475.475 0 0 0-.311.338c-.03.114-.086.221-.13.333-.032.081-.096.157-.048.258.143 0 .284-.015.417.002.273.034.531-.031.792-.073.336-.055.47-.272.392-.568-.044-.155-.076-.313-.116-.49Zm-.64 6.654c.018.183.057.34.048.496-.01.143-.072.284-.111.425-.023.086-.05.17-.07.233.224.118.437.204.617.328.177.122.343.118.546.052l-.157-1.48c-.14.005-.29.02-.438.01-.15-.011-.288-.095-.436-.064Zm2.12-10.464c-.1 0-.158-.002-.215 0-.222.004-.443.01-.665.017-.145.006-.293.004-.433.03-.229.04-.386.214-.379.392.005.18.176.34.404.377.279.044.54.004.752-.179.157-.135.3-.28.44-.429.042-.044.054-.115.095-.208Zm-7.68 11.124c.252.273.49.534.731.792.04.042.09.078.139.11.212.136.357.09.426-.133.086-.277-.03-.573-.297-.758-.29-.202-.65-.215-.999-.01Zm3.635-.611c.252.281.083.634.146.96.14-.027.258-.053.378-.072.125-.018.251-.029.413-.048-.055-.223-.108-.424-.152-.626-.046-.206-.083-.414-.132-.65-.221.15-.427.286-.653.436Zm-1.3 1.202.698-.066c-.02-.094-.043-.174-.053-.256-.014-.13-.009-.265-.03-.395-.037-.246-.293-.361-.528-.242-.104.053-.2.118-.316.185.26.234.168.526.228.774Z"/>
</svg>
