<svg>
  <path d="M23.107 1.5C31.342 7.53 40.61 15.96 46.5 23.805c-6.672 6.169-10.943 13.064-22.333 22.332C17.217 38.767 7.446 31.65 1.5 24.335 4.99 18.445 19.645 2.98 23.107 1.5Zm10.831 15.102h-.056c0 .307-.112.642-.112.95-.083-.028-.083 0-.14-.056-.222.279-.25.586-.446.893-.307.475-.67.95-1.005 1.396-.474.614-1.005 1.06-1.563 1.675-2.177 2.428-3.769 3.545-7.063 4.83-1.535.613-2.93 1.2-4.857 1.45-.95.112-1.926.14-2.875.224-.196 0-.224-.028-.335-.084 0-.251.028-.586-.056-.781l-.029-.03-.027-.026c-.056.111-.028.39-.084.502-.14.391-.53.307-.837.503-.168.111-.447.335-.503.558-.028.112 0 .168-.055.223.055.447.586.754.781 1.2.112.252.084.531.196.782.055.112.195.224.223.363a.66.66 0 0 1-.056.363c-.028.224.112.335.195.447.28.056.475.167.615-.084.167.028.39.168.502.28.447-.029.782-.392 1.312-.28.614.14 1.256.196 1.898.056h.559c.446-.112 1.088-.112 1.59-.14.196 0 .392-.14.503-.083.112.028.196.223.335.279.53.167 1.927-.112 2.485-.196.112-.028.335.084.419.084.558.14 1.06-.028 1.451-.14.251-.083.391.112.503.14.14.028 1.005.112 1.06.084.084 0 .28-.084.42-.056.334.084.865.307 1.395.195 1.34-.307 2.233-.697 3.713-.67.084-.083.251-.027.307-.167.056-.112.167-1.982.14-2.01.055-.223.167-.167.223-.363.14-.084-.251-.781-.363-.921-.028-.028-.084-.028-.14-.056a.912.912 0 0 0-.056.335c-.167-.084-.195-.251-.279-.419-.14-.14-.502-.446-.726-.67-.111-.14-.055.056-.223-.055-.279.362-.642.781-1.144 1.06-.475.252-.95.67-1.396 1.005-.586.391-1.173.866-1.759 1.312-.195.14-.251.28-.419.447.028.251 0 .363.028.614-.698.028-1.451.028-2.121.056-.307 0-.866-.084-1.061.056-.14 0-.251-.084-.335-.14h-.056c.112-.195.53-.223.698-.363.754-.614 1.842-.865 2.708-1.368 1.228-.753 2.261-1.619 3.266-2.568.39-.363.893-.642 1.2-1.06.642-.838 1.173-1.648 1.452-2.848 0-.893.084-1.842.056-2.764.167-.446.084-1.284 0-1.814-.028-.251.056-.419.084-.558.027-.168-.028-.475-.056-.615-.084-.307.083-.67-.084-.92v-.057Zm-11.25-5.527c-.419.112-1.033.084-1.396.195-2.261.615-4.27 1.982-5.164 3.88-.14.308-.112.754-.224 1.062-.335.781-.865 1.507-1.2 2.344-.14.335-.112.81-.28 1.145l-.058.084-.16.167a.412.412 0 0 0-.06.084c-.335.502-.53 1.033-.894 1.507-.446.615-1.032 1.2-1.395 1.87-.084.14-.028.224-.084.364-.112.195-.419.223-.503.446-.111.196.14.42.224.559.279.083.893.279 1.2.25.192-.005.396-.002.603.003l.417.012c.622.017 1.215.016 1.52-.182.196-.14.308-.418.503-.558.363-.251.837-.53 1.117-.865.418-.53.837-1.005 1.172-1.564.195-.307.14-.81.586-.893 0-.084.028-.14.028-.223h.14c.14 1.005.753 1.926 1.172 2.68.196.335.224.725.559.893.167.084.949.363 1.116.363.056 0 .112-.084.223-.056.252.056.643.251.922.307.223.056.446-.056.614-.084.195-.028.447.112.698.056.223-.056.474-.14.698-.223.642-.28.977-.726 1.48-1.089.39-.251.697-.419 1.06-.698.363-.251.363-.642.614-1.005.196-.195.39-.39.614-.586.251-.363.419-.893.614-1.284.14-.307.056-.614.14-.977.056-.251.223-.586.28-.838v-.697c.334-1.452-1.145-3.1-1.732-3.88-.195-.252-1.172-1.34-1.451-1.369-.084-.027-.14-.027-.224.056-.418-.083-.39-.586-.697-.781-.335-.224-.698-.307-1.173-.42-.28-.055-.81-.027-.977 0-.14 0-.447-.083-.642-.055Zm.921 3.322c.391.056.67.307.977.447.14.056.335.028.447.083.195.084.447 1.424.335 1.647-.475 1.061-1.452 2.262-2.652 2.569-.307.083-.614-.14-.782-.252-.614-.362-.893-.642-1.144-1.367-.14-.503.111-1.061-.14-1.452 0-.726 1.48-1.284 2.066-1.48.279-.083.642-.055.893-.195Z"/>
</svg>
