<svg>
  <path d="M25.414 42.336c.226.052.415.168.562.344.157.186.31.377.444.582.278.425.543.863.817 1.29.15.235.306.468.467.694a.72.72 0 0 0 .317.262c.178.075.218.247.09.392a.6.6 0 0 1-.275.172c-.18.05-.368.08-.555.094-.327.027-.654.042-.983.054a.711.711 0 0 1-.247-.04c-.178-.064-.218-.215-.099-.36.044-.054.097-.1.14-.155.097-.117.085-.172-.06-.232-.056-.023-.12-.032-.18-.044-.027-.007-.057-.005-.084-.005h-.189a.03.03 0 0 0 0-.018c-.24.035-.481.07-.722.11-.093.015-.18.053-.195.162-.015.107.056.168.138.214.067.037.14.063.205.102.099.063.111.12.036.206a.74.74 0 0 1-.195.155c-.381.205-.792.213-1.203.15-.253-.04-.316-.215-.136-.404.344-.356.499-.802.658-1.249.22-.611.402-1.234.484-1.881.006-.042.017-.082.025-.124.076-.379.36-.557.74-.471Zm-7.106-.608c.216.005.432.013.645.04.36.046.71.147 1.046.291.078.034.153.07.222.116.201.127.218.232.074.427-.15.2-.143.415.014.587.11.121.25.128.367.014a.553.553 0 0 0 .157-.398c.004-.125.002-.249.002-.4.447-.004.853-.019 1.243.117a.94.94 0 0 1 .333.204c.147.142.07.39-.142.408-.31.027-.57.174-.826.335-.111.072-.216.153-.327.229-.595.398-.788.987-.773 1.665.002.105.063.208.1.31.009.026.034.045.049.068.136.215.075.375-.177.431a1.045 1.045 0 0 1-.29.02 3.574 3.574 0 0 1-1.371-.345 1.225 1.225 0 0 1-.277-.184c-.172-.155-.15-.306.048-.417a.349.349 0 0 1 .057-.027c.233-.07.352-.243.41-.463.06-.222.124-.444.158-.67a.936.936 0 0 0-.025-.411c-.176-.566-.436-1.088-.876-1.5-.076-.07-.176-.139-.122-.262a.29.29 0 0 1 .281-.185Zm13.858-.68a.619.619 0 0 1-.061.238c-.099.191-.073.371-.008.566.176.522.34 1.048.507 1.571.023.074.031.151.05.225.094.406-.013.756-.293 1.06a2.77 2.77 0 0 1-1.272.773c-.317.094-.637.138-.97.094a1.142 1.142 0 0 1-.845-.52 5.153 5.153 0 0 1-.392-.735c-.115-.26-.201-.534-.298-.804-.098-.275-.22-.528-.492-.68a.405.405 0 0 1-.107-.1c-.092-.107-.098-.174-.004-.276a1.25 1.25 0 0 1 .258-.212c.36-.218.746-.38 1.159-.465.113-.023.236-.03.352-.015.159.021.226.136.182.29-.023.079-.06.156-.1.228a.455.455 0 0 0-.055.36 6.59 6.59 0 0 0 .633 1.565.483.483 0 0 0 .306.237c.295.082.582.06.846-.105a.57.57 0 0 0 .292-.543 1.877 1.877 0 0 0-.072-.431c-.115-.365-.245-.725-.373-1.087a.858.858 0 0 0-.534-.552c-.1-.025-.182-.09-.312-.167.083-.1.132-.176.199-.233.335-.283.733-.425 1.156-.507.16-.031.256.061.248.224Zm-17.492-1.12c.076.015.147.045.218.074l2.016.867c.296.128.495.354.656.625.21.348.1.687-.092.909a1.308 1.308 0 0 1-.537.354c-.077.032-.15.065-.264.111.074.128.122.229.185.317a.746.746 0 0 1 .115.674c-.034.113-.048.233-.075.348a.372.372 0 0 0 .083.352.806.806 0 0 1 .04.048c.115.166.08.308-.117.346a1.402 1.402 0 0 1-.537.008 2.249 2.249 0 0 1-.578-.228.67.67 0 0 1-.36-.6c-.009-.242.01-.488.016-.73.005-.133.02-.267.013-.397a.593.593 0 0 0-.07-.26c-.104-.19-.236-.19-.334 0-.088.172-.158.357-.229.54a.474.474 0 0 0 .017.385.546.546 0 0 1 .033.098c.055.195-.014.3-.215.306a.96.96 0 0 1-.29-.036 3.976 3.976 0 0 1-1.127-.492 1.13 1.13 0 0 1-.264-.235c-.124-.155-.084-.303.094-.394a.335.335 0 0 1 .139-.044c.182 0 .287-.11.354-.253.27-.574.536-1.148.798-1.726a.6.6 0 0 0 .004-.51.601.601 0 0 1-.035-.119c-.04-.224.117-.381.343-.337Zm10.428 4.076a2.36 2.36 0 0 0-.11.358c-.079.329-.06.35.271.356.096-.012.195-.012.29-.038.119-.031.167-.119.106-.222a3.576 3.576 0 0 0-.344-.494c-.077-.092-.165-.071-.213.04Zm10.098-5.27c.136.047.266.118.398.178l.09.048.086.043.007.004-.008-.004.036.063c.024.045.048.089.076.13.082.123.15.25.145.406-.004.203-.113.34-.317.34-.136 0-.272-.04-.406-.074-.088-.021-.168-.07-.256-.09-.134-.034-.203.02-.199.159a.565.565 0 0 0 .048.201c.055.12.116.239.185.352.211.352.427.704.645 1.052.055.088.12.172.187.251.08.097.182.15.31.15l.084.001c.25-.004.352.078.224.377-.06.14-.17.277-.291.373-.39.308-.824.547-1.283.74a.726.726 0 0 1-.12.04c-.236.06-.383-.093-.316-.33a.448.448 0 0 1 .049-.115c.115-.19.108-.375.01-.576a12.935 12.935 0 0 0-.918-1.594c-.046-.067-.105-.126-.176-.21-.042.061-.086.1-.098.147-.036.128-.055.26-.09.386-.038.132-.072.272-.139.39-.13.23-.34.234-.505.024a.465.465 0 0 1-.025-.033c-.176-.306-.264-.629-.197-.983a.56.56 0 0 1 .312-.419c.606-.306 1.165-.687 1.719-1.077.102-.07.2-.15.29-.239.129-.123.278-.167.443-.11Zm-22.774-.538a.84.84 0 0 1 .383.478c.105.287.076.578.017.867-.12.587-.254 1.171-.375 1.758-.09.444-.184.888-.15 1.347.016.22-.1.262-.29.237a.519.519 0 0 1-.157-.055 4.957 4.957 0 0 1-1.323-.942.655.655 0 0 1-.132-.187c-.092-.201.007-.367.227-.383.069-.005.14.004.21-.005.13-.016.171-.092.108-.205a.658.658 0 0 0-.165-.211 21.697 21.697 0 0 0-.759-.556c-.075-.052-.163-.09-.251-.019-.09.076-.074.172-.042.27.006.02.014.04.025.057.124.183-.042.333-.23.302a1.217 1.217 0 0 1-.242-.07 1.854 1.854 0 0 1-.708-.506.78.78 0 0 1-.128-.19c-.109-.227-.02-.361.235-.336.149-.036.302-.057.442-.109.872-.329 1.7-.738 2.441-1.312.116-.09.244-.163.367-.238.166-.101.333-.084.497.008Zm3.32 2.996c-.112.21-.22.421-.296.643-.07.206.019.304.245.34.084-.04.18-.067.25-.126a.798.798 0 0 0 .261-.488.423.423 0 0 0-.211-.423c-.107-.061-.193-.053-.25.054Zm22.882-5.464c.11.017.195.067.2.178.016.404.263.68.517.953.29.312.587.618.884.922.189.193.4.344.694.337.132-.004.18.057.166.185a.927.927 0 0 1-.09.318 2.451 2.451 0 0 1-.937.991.788.788 0 0 1-.113.053c-.275.104-.415.014-.43-.277-.017-.333-.168-.601-.394-.83-.13-.132-.203-.136-.344-.014-.192.17-.373.354-.572.544.168.204.315.388.47.564.029.034.086.046.132.059.094.023.19.037.287.058.264.06.362.248.258.503a.519.519 0 0 1-.095.162c-.253.276-.511.553-.77.823-.116.12-.263.149-.426.121-.111-.018-.178-.07-.187-.188-.002-.048-.01-.096-.012-.147a.937.937 0 0 0-.227-.574 9.794 9.794 0 0 0-1.175-1.22.722.722 0 0 0-.493-.198c-.048 0-.098-.02-.149-.036L35.777 39l-.021-.053a.608.608 0 0 1 .125-.659c.222-.25.455-.49.69-.729a.699.699 0 0 1 .224-.149c.19-.081.325.007.364.21.032.163.063.329.128.48.084.194.256.322.428.465.218-.174.425-.346.584-.57.08-.113.078-.19-.014-.304a1.01 1.01 0 0 0-.539-.341 1.563 1.563 0 0 0-.142-.032c-.258-.044-.352-.197-.269-.446a.585.585 0 0 1 .11-.201c.255-.277.515-.55.781-.815a.442.442 0 0 1 .402-.128ZM24.391 6.637c.572.031 1.144.06 1.714.098.65.044 1.283.2 1.914.348 5.32 1.263 10.781 5.542 12.619 12.466.178.668.34 1.341.394 2.03.025.303.037.605.045.907l.016.604c.006.251.002.503.002.754h.01c-.012.587-.027 1.173-.04 1.758-.016.844-.192 1.661-.408 2.472-.8 3.028-2.288 5.672-4.49 7.899-2.306 2.33-5.062 3.874-8.249 4.645a17 17 0 0 1-5.03.448 17.148 17.148 0 0 1-7.83-2.397c-1.427-.844-2.69-1.898-3.84-3.09-1.129-1.171-1.998-2.527-2.744-3.964a16.908 16.908 0 0 1-1.61-4.783 16.671 16.671 0 0 1-.23-4.109 16.868 16.868 0 0 1 2.707-8.175c2.13-3.287 5.057-5.586 8.722-6.948 1.077-.4 2.194-.639 3.323-.833 1-.172 2-.187 3.005-.13Zm-13.116 32.81c-.18.081-.352.188-.524.291-.052.031-.069.096-.023.145.164.171.346.312.596.393.085-.251.134-.473.11-.704-.012-.121-.062-.17-.159-.125Zm19.713-2.845c-.149.008-.262-.003-.362.025-.156.04-.306.098-.451.165l-1.781.834c-.614.285-1.234.557-1.89.731-.832.222-1.685.235-2.538.222a99.712 99.712 0 0 1-2.094-.054c-.683-.025-1.366-.057-2.049-.092-.45-.023-.884-.12-1.285-.342-.72-.398-1.443-.794-2.164-1.19a4.158 4.158 0 0 1-.176-.092c-.007.008-.013.019-.021.027.025.038.042.084.073.115.2.195.39.403.608.575a20.82 20.82 0 0 0 2.592 1.73c.17.096.344.193.526.256.277.096.557.176.845.236.278.06.555-.004.823-.094a6.39 6.39 0 0 1 1.28-.302c.17-.02.334-.035.443.145.029.05.096.08.148.113.28.178.587.258.914.264.56.009 1.096-.123 1.614-.316a17.555 17.555 0 0 0 4.49-2.483c.128-.096.246-.21.363-.318.031-.03.046-.076.092-.155Zm-21.7-1.58c.474.614.954 1.221 1.434 1.829.073.092.16.176.241.262a.36.36 0 0 1 .113.304c-.042.301-.136.586-.358.808-.17.17-.371.245-.61.153-.132-.05-.205-.138-.193-.285.015-.167.032-.333.04-.5.01-.13.055-.273-.063-.424-.077.046-.148.076-.207.122-.457.354-.914.712-1.369 1.07a.72.72 0 0 0-.29.637c.012.285-.108.36-.38.252a1.087 1.087 0 0 1-.34-.201 4.328 4.328 0 0 1-.964-1.383.563.563 0 0 1-.046-.203c-.006-.122.04-.166.162-.16.11.007.222.02.333.038.165.03.325.004.463-.084a9.68 9.68 0 0 0 1.563-1.19c.044-.042.076-.096.116-.148-.103-.118-.231-.112-.353-.124-.165-.015-.335-.019-.498-.052-.298-.06-.386-.298-.214-.554.1-.15.241-.26.417-.297.197-.042.398-.065.6-.082.173-.014.297.074.404.212ZM24.285 8.58c-.159.295-.394.52-.66.72-.234.179-.471.193-.718.04a.696.696 0 0 0-.484-.085 2.888 2.888 0 0 0-.885.31 7.302 7.302 0 0 0-1.657 1.198c-.85.798-1.576 1.7-2.247 2.648-1.863 2.628-3.334 5.465-4.497 8.463-.589 1.519-1.079 3.067-1.226 4.701-.07.796-.05 1.59.128 2.374.19.842.514 1.638.922 2.397 1.335 2.47 3.208 4.45 5.532 6.01.453.305.94.552 1.453.743.43.16.871.245 1.332.224a.967.967 0 0 0 .893-.828.476.476 0 0 0-.006-.144c-.046-.29-.103-.577-.143-.868a7.92 7.92 0 0 1-.069-.77c-.006-.21.065-.259.273-.233l.081.014c.333.059.56-.033.717-.33a2.36 2.36 0 0 0 .195-.529c.142-.58.16-1.175.155-1.768-.006-.746-.044-1.494-.08-2.24-.02-.452-.069-.905-.094-1.357-.036-.683-.088-1.366-.086-2.05.004-.808.059-1.617.088-2.428.008-.26.008-.526.008-.79 0-.067.01-.144-.08-.21-.018.127-.039.23-.045.332-.044.725-.09 1.45-.124 2.175-.046 1.018-.08 2.036-.126 3.054a394.107 394.107 0 0 1-.186 3.85c-.023.445-.076.89-.118 1.334-.004.048-.027.094-.04.142h-.045c-.036-.125-.082-.247-.107-.375a27.315 27.315 0 0 1-.493-3.796 70.725 70.725 0 0 1-.121-3.055 51.134 51.134 0 0 1 .073-4.354 6.866 6.866 0 0 1 .461-2.097c.06-.155.14-.306.237-.44a.697.697 0 0 0 .138-.341 7.6 7.6 0 0 0 .015-1.465c-.023-.354-.06-.708-.094-1.064-.021-.214.023-.398.182-.555.211-.208.235-.468.167-.74-.023-.094-.062-.184-.094-.277a2.014 2.014 0 0 1-.132-.737c.004-.105.036-.184.157-.214.189-.046.214-.088.174-.274a1.3 1.3 0 0 0-.092-.277l-.122-.258-.249-.515-.15-.316c.05-.059.087-.111.131-.153a.719.719 0 0 0 .197-.77c-.058-.2-.134-.395-.195-.594-.042-.14-.086-.281-.104-.426-.02-.146.025-.184.17-.205.242-.038.268-.065.255-.308a2.113 2.113 0 0 0-.025-.228c-.06-.363-.126-.723-.335-1.048a.722.722 0 0 1 .199.103c.155.107.301.226.463.325.33.207.538.19.842-.049.044-.033.084-.073.13-.106.048-.036.103-.065.164-.103a.466.466 0 0 1 .138.291c.01.285.038.572.012.855-.031.346-.115.687-.16 1.033-.037.268-.078.543-.06.81.023.323.095.642.51.713.159.027.18.111.109.266-.04.088-.097.17-.139.258-.058.126-.123.251-.163.383-.07.233.012.38.24.453.095.035.198.058.33.094-.076.136-.139.243-.195.354a7.22 7.22 0 0 0-.2.392.455.455 0 0 0 .051.476c.06.085.126.167.19.249a.78.78 0 0 1 .179.482c.027.888.008 1.774-.145 2.65-.188 1.092-.402 2.181-.601 3.27-.057.309-.132.61-.132.93-.002 1.417-.01 2.836-.03 4.252-.01.775-.014 1.55-.073 2.324a9.982 9.982 0 0 0-.004 1.602c.071.828.071 1.66.09 2.49.017.733.01 1.466.025 2.2.009.383.044.766.07 1.147.008.147.094.229.232.258.094.021.193.044.29.04.236-.01.473-.023.708-.059.59-.092 1.146-.301 1.686-.55a31.37 31.37 0 0 0 6.308-3.862c.89-.702 1.741-1.446 2.479-2.311.23-.27.428-.568.622-.865a.871.871 0 0 0 .11-.763c-.034-.107-.049-.218-.076-.327-.39-1.536-.85-3.05-1.36-4.548-.748-2.205-1.607-4.36-2.678-6.428-.667-1.287-1.406-2.525-2.316-3.656a10.093 10.093 0 0 0-1.75-1.737c-.276-.21-.528-.44-.712-.732a24.34 24.34 0 0 1-.637-1.08c-.218-.39-.417-.79-.637-1.178a5.92 5.92 0 0 0-.75-1.056c-.32-.352-.71-.58-1.176-.681-.222-.048-.279-.027-.388.174Zm17.72 24.216c.985.218 1.484.836 1.484 1.837 0 1.104-.7 1.984-1.783 2.23a1.07 1.07 0 0 1-.394.02c-.518-.083-1-.262-1.396-.618-.64-.574-.786-1.422-.38-2.235.363-.723.96-1.142 1.746-1.301.246-.048.486.012.723.067ZM6.772 31.303c.08.086.15.184.208.287.255.457.5.92.754 1.374.168.298.346.59.517.885.032.054.061.108.089.165a.23.23 0 0 1-.03.256 1.45 1.45 0 0 1-.589.456c-.144.061-.27.023-.356-.088-.086-.11-.092-.205.006-.341a.552.552 0 0 0 .088-.398 1.281 1.281 0 0 0-.312-.74c-.109-.126-.24-.167-.394-.109-.149.057-.3.12-.438.197-.146.084-.178.22-.115.382.05.132.128.17.304.152.096-.008.195-.018.291-.018.094.002.182.035.22.132.036.088-.006.163-.063.228a.678.678 0 0 1-.105.1c-.322.244-.685.4-1.07.512a.375.375 0 0 1-.187.002c-.199-.048-.243-.208-.105-.356.063-.067.13-.126.195-.191.07-.07.07-.142.021-.226-.121-.214-.218-.258-.442-.164a2.867 2.867 0 0 0-.444.229c-.189.125-.22.26-.138.471.157.41.442.687.867.813.128.038.256.073.38.117.092.032.198.072.203.185.006.12-.095.178-.187.23-.157.09-.442.153-.687.153-.009 0-.038 0-.065-.004-.493-.057-.447-.042-.64-.44-.358-.742-.729-1.475-1.091-2.213-.05-.1-.096-.2-.132-.308-.052-.155.017-.245.182-.24a.38.38 0 0 1 .16.04c.16.079.324.073.488.022.12-.037.24-.073.354-.127.46-.216.92-.438 1.377-.662.094-.047.18-.105.266-.164.1-.069.167-.16.195-.285.023-.1.06-.203.117-.289.088-.138.197-.147.308-.025Zm33.49 3.145c-.104.132-.091.276.032.396.09.086.195.159.304.216.407.213.843.326 1.304.36.117-.009.239 0 .352-.03.19-.046.35-.152.406-.351.055-.197-.063-.338-.205-.447a1.737 1.737 0 0 0-.338-.207 3.33 3.33 0 0 0-1.15-.285c-.285-.023-.526.126-.704.348Zm2.817-5.59c.237.084.4.25.514.467.058.111.109.224.178.367.069-.055.132-.092.182-.143.226-.23.503-.312.817-.306.099.002.195 0 .294-.008a.795.795 0 0 0 .446-.157c.132-.105.245-.07.319.082.014.031.029.064.035.098.05.323.04.639-.094.943-.157.352-.438.509-.811.526-.293.014-.585.02-.878.035a.569.569 0 0 0-.201.05c-.097.045-.143.133-.149.237-.006.11.07.168.157.197.327.107.654.201.99.013.142-.08.339.044.366.22a.465.465 0 0 1-.008.186c-.111.359-.223.719-.348 1.073-.074.218-.222.386-.426.543-.102-.134-.21-.248-.285-.38a.554.554 0 0 0-.3-.245c-.28-.102-.56-.21-.846-.301-.318-.105-.641-.193-.96-.296a.488.488 0 0 0-.473.076c-.017.012-.036.023-.053.033-.077.046-.157.11-.249.042-.105-.075-.197-.163-.176-.31a1.66 1.66 0 0 1 .044-.226c.18-.602.354-1.203.547-1.8a2.94 2.94 0 0 1 .266-.589c.228-.385.713-.565 1.102-.427ZM5.3 26.5c.067.069.132.144.182.226.155.247.235.524.264.809.013.13-.035.276-.09.402-.132.3-.287.59-.427.886-.14.296-.28.593-.415.893-.025.065-.042.132-.07.211.344.055.623-.012.858-.215.086-.074.153-.178.21-.279.062-.111.085-.134.207-.096a.46.46 0 0 1 .297.245c.14.3.235.614.252.945.012.28-.17.398-.422.28-.012-.006-.027-.01-.037-.018-.268-.216-.55-.185-.864-.09-.64.194-1.288.366-1.953.465-.13.018-.264.023-.396.018-.136-.004-.192-.064-.184-.2a.894.894 0 0 1 .071-.304c.164-.386.338-.767.51-1.149l.265-.584c.044-.097.088-.195.13-.293.038-.088.057-.185.093-.304-.09-.015-.164-.044-.233-.038-.16.015-.316.048-.476.073-.195.032-.335.13-.4.323-.05.147-.145.233-.31.23-.122 0-.218-.041-.28-.146-.194-.325-.309-.67-.282-1.054a.536.536 0 0 1 .04-.161c.055-.13.151-.178.287-.143.053.015.103.042.153.067.18.092.371.118.57.078a8.908 8.908 0 0 0 1.601-.48c.078-.032.151-.073.224-.113.14-.08.25-.187.25-.36 0-.227.234-.27.375-.124Zm37.177 3.748a.525.525 0 0 0-.206.094c-.155.122-.153.277.017.367.195.103.403.186.614.251.18.057.258-.018.258-.207 0-.34-.333-.589-.683-.505Zm.848-4.62a.49.49 0 0 1 .072.078.77.77 0 0 0 .484.308c.43.09.861.172 1.293.249.15.027.304.036.457.044a.42.42 0 0 0 .358-.132.407.407 0 0 1 .199-.105c.142-.031.251.044.272.187a3.194 3.194 0 0 1-.186 1.644.633.633 0 0 1-.038.076c-.147.247-.255.264-.438.048a1.018 1.018 0 0 0-.62-.358c-.44-.08-.878-.164-1.318-.24-.283-.047-.551-.024-.788.177-.182.153-.319.103-.413-.122-.012-.031-.027-.067-.03-.1-.003-.111-.001-.224-.001-.335-.01-.002-.021-.005-.03-.005.05-.343.095-.691.153-1.032.021-.114.072-.229.13-.327.126-.208.27-.22.444-.055ZM4.511 22.88c.189.151.36.33.522.512.09.102.159.232.203.362a2.42 2.42 0 0 1-.067 1.796c-.296.683-.853.999-1.56 1.114-.74.122-1.29-.182-1.71-.767-.286-.402-.408-.863-.397-1.385a2.01 2.01 0 0 1 .11-.735c.236-.658.734-1.018 1.38-1.196.55-.153 1.068-.059 1.519.3Zm-.459 1.023c-.178.03-.36.046-.534.088-.34.082-.669.2-.947.42-.22.177-.3.426-.218.627.085.208.33.331.616.29.438-.068.85-.212 1.223-.455a.925.925 0 0 0 .264-.262c.227-.354.057-.673-.358-.694h-.044l-.002-.014Zm37.8-6.975c.265.427.675.644 1.104.84l.184.082c.27.121.55.157.836.073a9.36 9.36 0 0 0 .635-.207.472.472 0 0 0 .291-.306c.093-.27.292-.308.49-.099.08.084.147.189.194.296.192.431.29.886.324 1.355a.89.89 0 0 1-.046.348c-.065.185-.174.216-.341.115-.061-.035-.116-.077-.172-.119a.478.478 0 0 0-.333-.1 2.369 2.369 0 0 0-.929.23.971.971 0 0 0-.29.232 5.019 5.019 0 0 0-.757 1.126c-.114.257-.08.437.262.375a.75.75 0 0 1 .289.014c.268.061.362.262.23.507-.054.103-.14.189-.22.275-.065.071-.149.128-.214.199-.153.163-.127.25.086.297.082.02.166.03.25.032.167.004.335.002.503.002-.007.002-.005.01-.005.02.36-.033.721-.06 1.082-.102a.615.615 0 0 0 .505-.358c.105-.208.26-.228.413-.053a.863.863 0 0 1 .182.367c.092.41.117.828.075 1.249a3.618 3.618 0 0 1-.083.515c-.04.166-.112.216-.241.216-.139 0-.22-.059-.269-.21a.268.268 0 0 0-.178-.19c-.105-.034-.214-.071-.323-.08a7.612 7.612 0 0 0-1.733.04c-.106.015-.253.017-.287.134-.04.138.11.193.195.266.116.1.245.187.352.294.113.113.132.255.061.406-.056.12-.142.187-.277.185a1.828 1.828 0 0 1-.695-.124c-.256-.11-.424-.29-.43-.587-.006-.3-.01-.6-.025-.899-.023-.473-.054-.947-.084-1.418-.004-.055-.023-.109-.035-.164a.461.461 0 0 1 .115-.463c.165-.173.149-.173.02-.37a2.617 2.617 0 0 1-.25-.48 4.486 4.486 0 0 1-.298-1.215 1.75 1.75 0 0 1-.004-.315c.01-.165.046-.186.21-.178a.935.935 0 0 0 .286-.016.644.644 0 0 0 .233-.132c.088-.074.155-.17.115-.294-.038-.12-.138-.174-.25-.199a.46.46 0 0 0-.441.126c-.158.153-.218.147-.344-.034-.268-.383-.377-.819-.405-1.28a.432.432 0 0 1 .028-.163c.075-.197.297-.24.408-.061Zm-38.594-.26c.107.268.314.388.561.455.558.155 1.12.293 1.679.442a.623.623 0 0 0 .484-.07c.06-.033.122-.068.184-.098.191-.09.37-.02.394.185.049.385.02.769-.186 1.114a.752.752 0 0 1-.41.31c-.25.088-.506.162-.757.241-.16.05-.323.093-.48.145-.082.017-.147.054-.24.096.076.099.127.183.194.25l.198.196.403.388c.06.059.115.122.182.174.336.26.367.606.285.983a1.41 1.41 0 0 1-.243.574c-.123.163-.226.174-.39.05a.07.07 0 0 1-.016-.013c-.333-.398-.815-.492-1.278-.611-.31-.08-.627-.143-.941-.201-.206-.038-.411-.06-.606.07-.22.147-.44.026-.47-.24a.569.569 0 0 1 .007-.189c.094-.356.189-.714.295-1.066a.799.799 0 0 1 .16-.268c.09-.11.203-.11.31-.015a.185.185 0 0 1 .044.046c.22.325.57.402.92.482a.19.19 0 0 0 .084.004c.056-.019.136-.033.155-.075.018-.04-.009-.126-.044-.164a3.625 3.625 0 0 0-.327-.293c-.25-.203-.503-.4-.748-.605-.082-.07-.147-.16-.223-.241.103-.118.22-.145.334-.172.42-.1.842-.195 1.263-.294.086-.02.17-.052.245-.075.021-.126-.056-.157-.123-.186-.266-.114-.543-.191-.832-.172-.111.006-.224.067-.327.121-.187.097-.237.086-.31-.11a.659.659 0 0 1-.038-.204 2.197 2.197 0 0 1 .136-.821.634.634 0 0 1 .086-.168c.128-.178.306-.178.386.025Zm39.04-4.058c.117.008.203.077.222.188.023.143.033.29.025.434-.008.118-.055.23-.078.346-.016.086-.025.174-.044.316.118-.071.197-.109.264-.161.189-.143.373-.293.564-.434.07-.052.149-.134.243-.067.105.076.2.17.281.27.017.021-.027.124-.067.153-.1.074-.212.139-.327.183-.176.067-.36.109-.538.165-.078.025-.151.057-.24.09.061.12.162.116.242.136.14.038.29.047.427.095.128.046.256.113.363.197.115.092.123.207.06.318-.069.12-.184.178-.32.128a1.349 1.349 0 0 1-.327-.18c-.147-.107-.28-.23-.421-.344-.05-.04-.111-.071-.166-.107a.738.738 0 0 0-.042.025l.046.256c.028.13.074.258.084.388.01.13.002.266-.027.391-.038.158-.164.22-.323.193-.132-.02-.203-.084-.21-.22a1.738 1.738 0 0 1 .034-.373c.032-.15.084-.295.122-.444.016-.063.019-.13.033-.245-.1.063-.159.094-.214.134-.127.096-.249.203-.379.295a2.233 2.233 0 0 1-.333.212c-.145.07-.27.03-.37-.096-.083-.103-.087-.19.014-.275.084-.069.182-.13.285-.17.2-.08.408-.14.614-.209.077-.027.153-.057.278-.105-.092-.042-.136-.067-.184-.08-.222-.056-.446-.108-.67-.165a1.411 1.411 0 0 1-.216-.08c-.116-.05-.168-.144-.166-.266.002-.121.1-.255.218-.278a.298.298 0 0 1 .195.03c.16.1.31.213.46.324.135.1.263.218.454.295.033-.18-.028-.308-.068-.44-.04-.134-.092-.266-.108-.402a.56.56 0 0 1 .05-.279c.044-.102.144-.15.26-.142Zm-35.696.28a3.149 3.149 0 0 1-.073.558c-.027.14-.082.277-.094.444.067-.04.138-.075.199-.123.161-.124.314-.256.475-.378.078-.058.164-.109.252-.146a.264.264 0 0 1 .308.06c.145.14.142.288-.027.4a1.562 1.562 0 0 1-.359.17c-.19.065-.387.114-.582.17-.038.01-.074.03-.155.063.096.036.155.06.216.077.192.06.39.11.58.172.092.03.182.074.264.124.147.088.182.176.132.289-.067.15-.21.237-.354.184a1.586 1.586 0 0 1-.344-.192c-.14-.103-.268-.222-.406-.331-.063-.05-.136-.088-.245-.158.018.101.023.153.035.204.05.203.105.404.153.607a.985.985 0 0 1 .025.208c.009.205-.048.29-.21.29-.253 0-.358-.054-.37-.261-.01-.203.006-.402.069-.6.036-.108.086-.22.054-.374-.092.058-.167.102-.236.155-.164.12-.319.25-.49.358a.804.804 0 0 1-.309.113c-.13.021-.257-.071-.297-.184-.036-.103-.004-.212.123-.28a3.45 3.45 0 0 1 .558-.231c.178-.059.362-.097.545-.143a.162.162 0 0 0 .012-.048c-.077-.025-.153-.05-.23-.073-.193-.059-.39-.11-.58-.176a1.199 1.199 0 0 1-.296-.153c-.116-.08-.136-.164-.095-.27.049-.13.139-.204.269-.19a.69.69 0 0 1 .272.093c.147.092.28.207.42.312.102.078.196.172.366.235-.03-.174-.057-.308-.078-.442-.027-.172-.06-.344-.075-.518-.015-.197.067-.29.235-.3.184-.01.348.11.343.286Zm3.586-6.008c.019.301.184.507.38.697.378.371.768.732 1.156 1.092.172.16.367.264.618.264.216 0 .279.111.205.318a.965.965 0 0 1-.117.22 3.28 3.28 0 0 1-.807.813.867.867 0 0 1-.182.103c-.197.078-.337.008-.367-.201-.056-.383-.302-.633-.582-.86a.353.353 0 0 0-.111-.058c-.103-.035-.172.013-.156.122a1.7 1.7 0 0 0 .09.343c.09.241.191.48.286.719.042.111.083.222.11.337.055.233-.012.306-.24.258a5.047 5.047 0 0 1-.463-.128c-.285-.09-.57-.188-.855-.278-.097-.032-.2-.044-.3-.065-.013.014-.027.029-.04.046.038.069.065.148.115.207.12.136.248.264.378.39a.826.826 0 0 0 .584.24c.214.005.283.112.2.32a1.447 1.447 0 0 1-.734.77c-.208.099-.338.013-.35-.216a.85.85 0 0 0-.193-.498 6.665 6.665 0 0 0-.465-.537c-.266-.268-.543-.521-.817-.779a.813.813 0 0 0-.667-.239c-.218.021-.283-.05-.253-.268.016-.122.06-.243.117-.352.153-.3.4-.515.673-.704.081-.057.155-.038.237-.015.396.111.792.222 1.19.327.174.046.348.09.557.071-.01-.088-.01-.163-.03-.232-.07-.247-.152-.492-.225-.74-.05-.167-.09-.337-.139-.505a.708.708 0 0 1 .128-.672 4.31 4.31 0 0 1 .42-.434.636.636 0 0 1 .22-.117c.226-.082.414.004.429.24Zm29.075 1.525c.02.002.04.002.105.002.63.013 1.148.302 1.498.882.126.21.23.43.447.572.046.032.069.122.073.187a1.16 1.16 0 0 1-.228.766.447.447 0 0 1-.122.114c-.245.153-.463.054-.503-.233-.023-.18-.014-.365-.05-.54a1.857 1.857 0 0 0-.168-.447.34.34 0 0 0-.266-.184c-.197-.025-.306.069-.268.262.036.176.096.35.168.513.109.251.203.503.243.775a1 1 0 0 1-.526 1.052c-.426.224-.87.224-1.29.01-.642-.328-1.095-.85-1.39-1.51-.124-.275-.09-.536.117-.756a2.89 2.89 0 0 1 .448-.403c.17-.117.32-.014.306.193-.006.103-.04.205-.071.304-.115.356.01.83.298 1.068a.785.785 0 0 0 .276.14c.134.038.212-.018.203-.156a2.108 2.108 0 0 0-.088-.47 3.865 3.865 0 0 1-.174-1.196c.005-.218 0-.432.183-.6.222-.205.459-.364.78-.345Zm-3.97-3.874c.104.036.21.078.305.134.24.145.474.298.709.446.463.298.928.595 1.391.895.082.052.161.109.235.174.109.092.163.216.157.3a1.091 1.091 0 0 1-.2.588c-.081.126-.198.157-.345.13-.145-.027-.224-.107-.243-.247a1.167 1.167 0 0 0-.425-.769c-.462-.388-.635-.262-.927.08a.894.894 0 0 0-.094.138c-.115.201-.088.352.086.499.073.062.147.077.226.018.1-.075.197-.155.3-.228.067-.048.136-.11.226-.054.088.054.149.132.136.24-.01.09-.02.183-.054.265a2.22 2.22 0 0 1-.635.846.842.842 0 0 1-.275.145c-.125.037-.205-.03-.2-.162a.98.98 0 0 1 .047-.243c.057-.197.017-.316-.146-.433-.086-.063-.17-.07-.245.008a1.936 1.936 0 0 0-.438.658c-.046.121-.009.224.075.306.21.199.44.362.721.45.17.052.331.021.492-.031.107-.034.212-.072.319-.103a.72.72 0 0 1 .165-.027c.183-.006.26.096.202.266a.663.663 0 0 1-.08.147 1.9 1.9 0 0 1-.54.517.58.58 0 0 1-.617.023c-.073-.04-.142-.088-.211-.136-.522-.373-1.046-.746-1.566-1.121-.176-.126-.35-.256-.52-.39a1.472 1.472 0 0 1-.224-.218c-.14-.17-.1-.287.122-.308a.865.865 0 0 0 .59-.316 9.888 9.888 0 0 0 1.172-1.63c.105-.184.164-.367.042-.57-.046-.077-.065-.176.01-.253.074-.076.17-.061.256-.034ZM13.23 4.54c.229.082.457.176.665.3.396.235.775.497 1.163.744.293.188.582.385.886.557.187.105.39.182.593.251.26.088.315.24.14.453a1.322 1.322 0 0 1-.245.226c-.358.26-.746.463-1.163.612a.972.972 0 0 1-.243.055c-.17.01-.224-.047-.23-.218-.002-.044 0-.086 0-.126.01-.342-.06-.398-.373-.262-.229.1-.446.228-.669.344a.593.593 0 0 0-.1.075c-.076.071-.174.138-.139.26.032.111.14.12.235.147.08.023.162.044.235.081.073.036.092.105.042.176a1.31 1.31 0 0 1-.145.178 2.416 2.416 0 0 1-1.01.572c-.142.042-.195.02-.28-.109-.08-.117-.084-.15.018-.276a.585.585 0 0 0 .132-.388c-.002-.966-.052-1.923-.362-2.851-.139-.41-.086-.51.287-.731a.643.643 0 0 1 .563-.07Zm17.178-2.101c.452.107.867.302 1.253.564.063.041.12.096.167.155.107.13.09.24-.044.337-.04.027-.094.042-.123.075-.048.055-.116.12-.12.183-.02.377-.002.752.111 1.116.009.02.025.034.057.082.082-.046.161-.073.222-.126.22-.192.434-.391.645-.595.11-.104.15-.216.053-.37-.126-.204-.046-.342.188-.355.449-.023.853.111 1.214.375a.498.498 0 0 1 .075.074c.071.077.1.17.057.27-.044.098-.134.157-.237.14-.23-.042-.392.08-.543.214-.369.329-.733.666-1.098 1.002-.36.329-.719.662-1.085.984-.113.1-.243.189-.377.262-.216.115-.42.046-.516-.18a1.205 1.205 0 0 1-.08-.386l-.05-.835-.092-1.672a3.936 3.936 0 0 0-.053-.415.778.778 0 0 0-.192-.41c-.067-.074-.172-.15-.111-.27.063-.118.161-.22.303-.232.124-.01.256-.014.376.013ZM13.262 6.335c.01.082.01.168.031.247.049.193.16.252.342.168.105-.048.205-.115.295-.19.09-.076.09-.152-.002-.23a2.046 2.046 0 0 0-.308-.209c-.295-.17-.352-.134-.358.214Zm4.973-3.93c.09.012.205.014.31.046.17.05.2.155.113.303a.794.794 0 0 1-.063.084.504.504 0 0 0-.115.47c.149.615.306 1.231.46 1.845.013.053.04.105.068.153.086.164.214.233.396.2.342-.062.56-.267.664-.594.025-.08.042-.163.074-.239a.236.236 0 0 1 .228-.155c.1-.002.172.05.22.137a.53.53 0 0 1 .054.134c.074.314.049.624-.052.928-.056.172-.178.287-.365.306-.706.067-1.37.316-2.057.47-.13.028-.258.058-.39.08a.466.466 0 0 1-.187.003c-.146-.034-.203-.153-.136-.287a.521.521 0 0 1 .111-.149.363.363 0 0 0 .118-.36c-.015-.082-.028-.166-.049-.245-.142-.518-.287-1.035-.433-1.55-.028-.095-.065-.185-.099-.277-.071-.204-.197-.327-.43-.331-.14-.003-.188-.065-.165-.204a.428.428 0 0 1 .107-.218.947.947 0 0 1 .25-.186c.425-.22.875-.331 1.368-.365Zm9.157-.61c.304.042.604.071.897.13a.928.928 0 0 1 .373.176c.182.142.161.368-.05.448-.178.065-.254.216-.294.381-.09.38-.178.76-.249 1.144-.044.233-.059.47-.08.706a.56.56 0 0 0 .143.424c.17.203.121.358-.134.433a1.16 1.16 0 0 1-.33.04c-.408 0-.804-.075-1.196-.189a.798.798 0 0 1-.245-.115c-.155-.113-.166-.301-.004-.402.216-.136.308-.337.356-.566a84.63 84.63 0 0 0 .35-1.764c.01-.052-.023-.12-.052-.17-.063-.1-.145-.188-.21-.287-.113-.173-.054-.322.149-.352.188-.027.385-.025.576-.037Zm-3.525-.25c.922.065 1.539.68 1.595 1.603a4.63 4.63 0 0 1-.035.834c-.097.798-.891 1.383-1.608 1.39h-.597l-.595.001c-.384 0-.77.002-1.153-.002a1.739 1.739 0 0 1-.312-.035c-.147-.03-.184-.107-.124-.244a.459.459 0 0 1 .107-.152.613.613 0 0 0 .187-.409c.025-.25.05-.5.065-.75.027-.446.042-.893.067-1.339.006-.1-.021-.174-.103-.235a1.85 1.85 0 0 1-.237-.205c-.195-.203-.142-.37.13-.43.067-.014.139-.025.208-.03a16.762 16.762 0 0 1 2.405.003Zm-1.033.595c-.004.028-.014.061-.014.095.002.689.004 1.38.01 2.07.002.11.021.222.046.33.042.168.134.23.308.208a.708.708 0 0 0 .547-.346c.373-.616.421-1.257.115-1.912-.184-.403-.647-.547-1.012-.445Z"/>
</svg>
