<svg>
  <path d="M4.384 37.834v-7.058c0-.286 0-.288.293-.288H7.13c.214.005.218.005.273.208.109.41.213.824.32 1.235l.72 2.796c.016.065.041.126.069.206.096-.057.096-.14.113-.208.184-.708.365-1.419.547-2.128.161-.629.32-1.255.484-1.884.057-.22.061-.223.281-.225.833-.002 1.663 0 2.495 0 .07 0 .136.009.197.015.05.172.059 7.107.015 7.315-.17.05-1.596.05-1.789-.009v-5.511c-.1.035-.1.1-.115.157l-.792 3.08c-.183.708-.363 1.419-.547 2.127-.049.185-.053.19-.24.19H7.905c-.197 0-.2-.003-.252-.2l-1.245-4.864a13.97 13.97 0 0 0-.115-.423c-.007-.023-.026-.042-.078-.057-.002.08-.008.16-.008.24v5.091c-.005.204-.01.212-.214.212-.468.002-.937 0-1.405 0-.054.002-.109-.008-.203-.017ZM2.958 20.111h.245c1.363 0 2.726-.002 4.089.002.364.002.727.05 1.06.208.667.31 1.04.826 1.053 1.574.012.732-.308 1.258-.981 1.56a1.09 1.09 0 0 0-.13.067c-.01.006-.015.02-.036.052.06.023.115.042.17.065.172.074.354.134.516.227.492.28.746.719.794 1.278.034.395.006.782-.176 1.145-.285.566-.727.931-1.359 1.042a8.804 8.804 0 0 1-1.52.147c-1.146-.004-2.29 0-3.438-.002-.287 0-.289 0-.289-.29v-6.79c.002-.084.002-.168.002-.285Zm3.05 5.826c.18 0 .363.013.543-.004.166-.015.334-.038.491-.09.304-.101.482-.388.474-.715a.697.697 0 0 0-.522-.677c-.061-.017-.122-.04-.183-.042a86.45 86.45 0 0 0-1.44-.028c-.132 0-.155.032-.157.168-.004.405-.004.81 0 1.212.002.15.023.17.17.174.207.004.415.002.624.002Zm-.115-4.392v.015c-.168 0-.335-.005-.503.002-.149.006-.176.029-.178.17-.004.377-.004.752 0 1.13.002.134.027.165.161.163.411-.004.824-.002 1.233-.034.273-.02.493-.163.574-.446.112-.375.023-.874-.58-.954-.233-.031-.472-.031-.707-.046Zm.533-7.654c.069.03.136.063.205.09.229.084.417.222.572.409.208.245.397.503.543.792.286.568.58 1.13.87 1.696.032.061.06.124.099.206-.065.008-.109.02-.153.02-.728.003-1.453-.004-2.18.005-.143.002-.212-.057-.275-.174a164.45 164.45 0 0 0-1.075-1.99 4.694 4.694 0 0 0-.309-.499c-.199-.272-.488-.356-.811-.348-.128.002-.153.032-.163.168-.005.063-.003.126-.003.189v2.605c-.184.056-2.014.062-2.211.016-.049-.176-.046-7.128.006-7.316.06-.002.13-.01.197-.01 1.327 0 2.654-.003 3.981.006.39.002.78.044 1.157.159.72.22 1.223.861 1.254 1.612.01.229.013.463-.027.688-.136.754-.598 1.24-1.308 1.5-.122.047-.248.082-.374.124a.101.101 0 0 1 .005.05ZM3.79 11.207c-.012.034-.031.059-.031.086-.004.44-.004.879-.006 1.319 0 .109.067.145.163.145.204 0 .407.016.608-.003a6.99 6.99 0 0 0 .868-.117c.306-.065.501-.342.51-.66.008-.355-.153-.608-.472-.707a1.682 1.682 0 0 0-.43-.075c-.356-.01-.713-.007-1.067-.005-.048 0-.094.011-.143.017Zm26.96 21.325c.08-.004.135-.01.19-.01h1.53c.201 0 .203 0 .254.195.247.966.494 1.933.742 2.897a.716.716 0 0 0 .094.23c.145-.261.214-.542.306-.813.094-.276.18-.557.27-.836.089-.273.179-.543.267-.816l.277-.857h1.593c.22 0 .222 0 .293.212.321.964.644 1.93.969 2.895.025.075.06.147.117.22.33-1.099.585-2.212.887-3.317h1.889c-.01.053-.017.099-.031.143-.615 1.67-1.227 3.34-1.843 5.008-.061.168-.065.17-.241.17-.476.002-.95.002-1.426 0-.184 0-.186-.002-.25-.184-.31-.919-.618-1.839-.926-2.757-.027-.084-.065-.164-.096-.245h-.044c-.028.067-.061.134-.084.203l-.887 2.725c-.013.04-.032.078-.038.12-.023.11-.094.14-.199.138-.23-.004-.461-.002-.692-.002h-.755c-.199 0-.199-.002-.27-.189-.36-.968-.72-1.935-1.078-2.903l-.742-2.002c-.025-.067-.046-.139-.075-.225Zm.15-5.075c-.093.006-.153.015-.214.015-.602 0-1.201-.005-1.803.004-.162.002-.252-.048-.325-.197-.279-.577-.572-1.147-.862-1.722-.033-.067-.071-.132-.115-.213-.052.031-.099.048-.13.08-.201.192-.398.391-.6.584a.312.312 0 0 0-.094.243c.002.315 0 .63 0 .944v.251c-.082.01-.147.026-.212.026-.53.002-1.06.002-1.593 0-.226 0-.235-.01-.235-.24-.002-.955 0-1.914 0-2.87v-3.96c0-.088.01-.176.017-.279h2.006c.007.08.017.16.017.24.002 1.09 0 2.18.002 3.268 0 .08.006.161.009.251.123-.016.161-.098.213-.157.399-.459.8-.916 1.19-1.381a.473.473 0 0 1 .41-.187c.65.01 1.3.004 1.95.004h.243c-.07.076-.107.122-.149.164-.51.499-1.019.998-1.53 1.492-.214.208-.197.187-.063.418.583 1.002 1.17 2.002 1.752 3.002.038.065.07.132.116.22ZM19.925 37.834c-.095.009-.14.017-.187.017-.503 0-1.006-.004-1.51.004-.14.002-.228-.044-.27-.176-.035-.113-.069-.226-.105-.337l-.046-.139c-.069.055-.125.093-.174.137-.436.387-.951.57-1.526.608-.356.023-.713.033-1.063-.05-.576-.137-1.012-.447-1.18-1.036a1.514 1.514 0 0 1 .088-1.103c.107-.22.266-.39.476-.516.285-.17.6-.264.92-.333.518-.113 1.038-.218 1.554-.34.224-.052.44-.132.658-.21.161-.056.176-.096.149-.268-.055-.333-.225-.495-.562-.507a3.88 3.88 0 0 0-.583.031.741.741 0 0 0-.63.485c-.013.031-.034.06-.062.106-.616-.067-1.237-.132-1.876-.2.01-.083.01-.137.023-.187.153-.617.55-1.013 1.138-1.208.256-.084.529-.138.797-.166a8.121 8.121 0 0 1 2.254.07c.798.142 1.266.601 1.417 1.394.033.17.046.346.046.52.006.635.004 1.27.002 1.905 0 .501-.027 1.007.252 1.5ZM17.673 35.3c-.497.157-.981.31-1.463.465a.495.495 0 0 0-.145.082c-.184.134-.28.312-.245.54.038.236.18.386.41.454.217.062.428.046.64-.013.66-.184 1.02-.843.803-1.528Zm8.566-1.093c-.633-.077-1.258-.115-1.893-.213.082-.413.233-.755.535-1.02.274-.24.6-.383.954-.45a6.169 6.169 0 0 1 1.666-.109c.36.03.726.04 1.082.103.887.157 1.338.687 1.442 1.624.026.229.013.462.013.692.002.581.004 1.16 0 1.74-.002.41.025.81.205 1.185.009.017.007.04.011.075-.057.007-.11.017-.161.017-.497.002-.992-.004-1.489.004-.15.002-.239-.048-.283-.186l-.145-.46c-.06.042-.113.074-.157.114-.455.41-1 .597-1.604.627-.392.018-.784.025-1.161-.095-.528-.167-.916-.494-1.038-1.05-.155-.709.07-1.365.795-1.677.354-.153.731-.225 1.107-.304.572-.12 1.15-.22 1.704-.422.285-.102.308-.155.22-.448-.069-.233-.24-.34-.463-.365a1.961 1.961 0 0 0-.749.042.724.724 0 0 0-.492.39c-.027.056-.059.111-.099.186Zm1.812 1.122c-.04.004-.082.002-.12.013-.375.109-.748.216-1.122.335a1.543 1.543 0 0 0-.377.174.53.53 0 0 0-.216.658c.105.26.323.355.583.37.868.052 1.463-.682 1.252-1.55ZM12.67 23.834l-1.851-.195c0-.056-.006-.092 0-.123.14-.602.495-1.032 1.077-1.24.267-.096.552-.157.833-.19a8.173 8.173 0 0 1 2.193.04c.205.029.408.092.6.171.393.166.664.455.813.858.102.279.161.562.161.86-.002.76 0 1.522 0 2.285 0 .358.031.71.185 1.042.014.029.016.065.029.117-.074.006-.134.015-.193.015-.482.002-.964-.007-1.447.004-.171.004-.262-.067-.31-.216-.042-.13-.08-.264-.126-.426-.07.053-.127.088-.176.134-.459.411-1.006.585-1.61.617-.37.019-.742.02-1.1-.088-.546-.166-.952-.493-1.074-1.065-.16-.744.097-1.39.839-1.692.392-.16.805-.22 1.212-.317.509-.12 1.014-.251 1.522-.38.067-.016.13-.05.195-.072.077-.028.104-.086.098-.164-.023-.358-.18-.532-.488-.583a2.002 2.002 0 0 0-.707.027.75.75 0 0 0-.572.443c-.017.038-.04.073-.061.109-.006.004-.013.006-.042.03Zm1.853 1.124c-.05 0-.073-.004-.092 0-.388.113-.776.224-1.161.346a1.62 1.62 0 0 0-.378.174c-.188.121-.29.306-.253.534.037.244.186.397.425.466.195.054.39.046.579-.006.341-.095.633-.265.788-.602.134-.285.124-.591.092-.912Zm6.9 2.484c-.004-.088-.01-.17-.01-.251 0-.852.001-1.705-.003-2.556 0-.138-.012-.279-.036-.417-.094-.572-.71-.818-1.182-.474a.754.754 0 0 0-.308.46 3.272 3.272 0 0 0-.084.62c-.01.788-.004 1.578-.006 2.367v.264c-.107.008-.189.019-.27.019-.483.002-.965.002-1.447 0-.281 0-.281-.002-.281-.277v-4.38c0-.14-.002-.278 0-.419 0-.067.008-.136.015-.216.067-.008.121-.02.174-.02.482-.003.964-.003 1.446 0 .201 0 .21.01.212.215.002.132-.002.266.002.398.002.068.015.133.027.25.092-.092.151-.149.206-.21.312-.34.666-.614 1.132-.715.38-.081.763-.098 1.142-.008.686.166 1.074.618 1.202 1.3.04.218.056.444.056.667.006 1.046.004 2.094.004 3.142 0 .036.002.07-.002.105-.01.14-.025.166-.16.166-.578.002-1.158 0-1.737-.003-.019-.002-.04-.012-.092-.027Zm25.059-12.516h-3.077c-.333 0-.667.002-.994.005-.08.471.252.974.711 1.1.434.12.82.023 1.132-.302a.366.366 0 0 1 .346-.121c.52.056 1.042.094 1.564.142.052.004.1.023.17.04-.034.063-.05.11-.078.147-.4.62-.939 1.046-1.68 1.184-.756.143-1.515.164-2.267.005-1.021-.218-1.617-.894-1.89-1.868a2.997 2.997 0 0 1 .009-1.638c.283-1.006.962-1.62 1.969-1.85a4.533 4.533 0 0 1 2.24.052c1.013.276 1.588.972 1.774 1.991.057.308.061.625.086.937.009.048-.004.095-.014.176Zm-2.055-.954c.034-.675-.41-1.16-1.031-1.144a1.043 1.043 0 0 0-.994 1.138c.166.057 1.805.063 2.025.006Zm-16.14.954h-2.726c-.444.002-.89-.006-1.363.005 0 .316.08.576.269.792.444.512 1.176.421 1.539.065.146-.145.28-.203.49-.178.5.06 1 .092 1.501.138.044.004.086.03.145.048-.034.063-.055.114-.084.16-.398.601-.925 1.019-1.648 1.16-.757.146-1.516.171-2.268.012-1.063-.223-1.671-.927-1.925-1.954-.121-.495-.115-1 .015-1.495.268-1.03.943-1.665 1.968-1.904a4.535 4.535 0 0 1 2.26.05c.975.27 1.554.932 1.755 1.913.067.325.067.664.092.998.003.052-.01.107-.02.19Zm-2.011-.966c-.034-.16-.057-.31-.1-.455-.12-.382-.384-.602-.78-.667-.648-.105-1.273.495-1.175 1.13.185.057 1.822.059 2.055-.008Zm-15.302.985c-.078.466.27.975.738 1.092.426.107.807.013 1.111-.308.105-.109.201-.136.346-.12.526.055 1.057.095 1.585.143.04.005.077.02.134.034-.02.054-.031.1-.054.138-.428.671-1.015 1.1-1.814 1.225a6.477 6.477 0 0 1-2.042.002c-1.203-.197-1.838-1.155-2.01-1.971-.124-.583-.116-1.17.084-1.736.316-.893.958-1.446 1.87-1.662a4.584 4.584 0 0 1 2.32.052c.965.275 1.522.944 1.728 1.912.08.375.11.757.075 1.164-.094.006-.182.016-.268.016-1.174.002-2.346 0-3.52.002-.096 0-.193.011-.283.017Zm2.057-.987c-.038-.166-.063-.323-.112-.472-.121-.373-.385-.585-.773-.648-.65-.105-1.273.495-1.174 1.13.186.057 1.824.059 2.059-.01ZM37.896 27.62c-.533-.018-1.053-.083-1.53-.32-.976-.48-1.494-1.267-1.533-2.359a2.802 2.802 0 0 1 .109-.952c.289-.935.916-1.538 1.847-1.807a3.979 3.979 0 0 1 2.41.059c1.02.346 1.68 1.239 1.734 2.314.025.472-.006.937-.195 1.376-.367.85-1.016 1.367-1.914 1.564-.302.069-.618.086-.928.125Zm1.07-2.771c-.029-.273-.054-.537-.15-.786-.12-.31-.331-.533-.656-.627-.47-.134-.946.092-1.166.547a1.8 1.8 0 0 0-.153.669c-.023.344.002.685.145 1.004.176.394.543.627.943.608a.957.957 0 0 0 .887-.683c.073-.235.1-.487.15-.732ZM21.133 13.004c-.128.08-1.27.214-1.845.22-.014-.019-.035-.038-.046-.063-.167-.474-.916-.553-1.274-.373-.155.078-.256.201-.248.382.009.174.12.287.277.329.241.063.488.109.736.153.41.073.826.134 1.235.214.155.031.308.09.455.155 1.216.551 1.17 1.975.301 2.66-.379.298-.821.445-1.29.501a7.106 7.106 0 0 1-2.045-.038c-.48-.08-.914-.25-1.247-.624a1.85 1.85 0 0 1-.426-.835c.172-.02.333-.046.495-.06.423-.042.847-.082 1.27-.122.113-.01.216-.025.277.117.218.506.704.591 1.138.529.135-.021.27-.074.39-.139.158-.084.254-.222.237-.41-.017-.19-.138-.31-.31-.36-.268-.075-.54-.13-.813-.19-.45-.1-.902-.189-1.349-.298a1.485 1.485 0 0 1-.882-.633 1.444 1.444 0 0 1 .117-1.765c.298-.33.686-.497 1.11-.59.481-.104.97-.1 1.458-.083.292.01.587.032.873.088.67.128 1.117.539 1.381 1.16.017.023.019.052.025.075Zm23.122 9.157h.91c.057.18.063 1.206.01 1.44l-.928.013c-.013.344-.005.663-.007.981-.002.315 0 .63 0 .944v1.891c-.192.056-1.784.06-2.01.008-.019-.31-.006-.629-.009-.948-.002-.314 0-.629 0-.943v-1.929l-.72-.019c-.051-.18-.055-1.213-.005-1.436.164 0 .336.002.51 0 .207-.002.205-.01.218-.211.016-.258.035-.516.075-.77.103-.66.554-1.071 1.22-1.157.524-.067 1.044-.025 1.566.027.172.017.344.038.541.061-.02.407-.128.78-.19 1.176-.1-.01-.179-.023-.259-.027a6.313 6.313 0 0 0-.398-.009c-.306.007-.472.14-.52.439-.023.138-.004.285-.004.47ZM33.937 11.817c.093-.01.153-.02.212-.02.552-.003 1.105-.003 1.656 0 .2 0 .202.001.26.194.294.96.587 1.92.883 2.883.025.086.059.168.092.264.107-.044.107-.138.13-.21.229-.71.453-1.423.677-2.134.088-.279.178-.557.262-.838.032-.107.086-.162.208-.16.572.007 1.145.002 1.719.005.034 0 .067.01.124.018-.028.076-.046.139-.072.202-.69 1.624-1.381 3.25-2.067 4.878-.067.16-.153.218-.327.212-.44-.013-.88-.004-1.32-.004-.244 0-.244 0-.336-.223-.457-1.094-.912-2.19-1.369-3.285l-.641-1.547c-.026-.065-.05-.13-.09-.235ZM21.04 34.182v-3.415l.002-.168c.002-.067.042-.1.105-.106.042-.005.084-.005.126-.005.503 0 1.006-.002 1.51 0 .249 0 .26.01.26.26v6.872c-.003.225-.011.231-.242.233-.518 0-1.033.002-1.551 0-.206 0-.21-.006-.21-.212v-3.459Zm10.29-17.09h-1.948c-.053-.149-.071-4.925-.025-5.25.142-.054 1.532-.07 1.824-.018.054.245-.01.505.042.782.041-.036.075-.055.096-.082.094-.139.174-.287.275-.42.216-.285.509-.419.868-.43.366-.01.7.083 1.02.26-.014.053-.023.095-.037.133-.162.37-.321.742-.485 1.113-.073.166-.075.164-.251.113a3.181 3.181 0 0 0-.243-.063.736.736 0 0 0-.772.3c-.134.176-.195.384-.243.596-.09.396-.1.802-.107 1.207-.008.495-.002.992-.002 1.486.002.084-.006.166-.013.273Zm11.853 20.726c-.204.052-1.79.048-1.98-.007v-5.274h1.946c.009.008.015.012.02.018.003.005.01.01.01.017.006.027.014.055.014.082 0 1.683.002 3.367 0 5.052.002.032-.006.065-.01.112Zm-.004-6.009h-1.973c-.009-.434-.004-.855-.002-1.291.081-.01.142-.028.201-.028.524-.002 1.048-.002 1.572 0 .204 0 .214.013.216.214.002.308.002.615 0 .923.002.052-.006.107-.014.182Z"/>
</svg>
