<svg>
  <path d="M2.038 38.603C2.942 37.245 22.254 8.881 22.757 8.07c.503-.812 1.333-1.566 2.28-.16.947 1.406 1.38 2.214 1.937 3.08.667 1.019-.667 2.132-1.563.971-1.037-1.324-1.22-2.717-2.364-.754-1.06 1.837-5.25 7.78-6.18 9.213-.69 1.08-.74 3.188-.264 4.78.31.92.786 1.772 1.404 2.513.333.408.16.948-.37 1.65-.53.704-7.695 11.512-7.695 11.512H2.728c-1.51 0-1.486-1.056-.69-2.272Zm9.976 2.272c.212-.082 15.584-23.28 16.596-24.844 1.013-1.565 2.533-.576 1.637 1.006-1.189 2.099-5.231 8.391-6.021 9.586-.714 1.089-.794 2.739-.528 4.005a6.144 6.144 0 0 0 2.031 3.54l-4.47 6.707h-9.245Zm11.355 0c9.938-14.942 10.018-15.25 11.047-16.585.874-1.132 2.272-.163 1.561 1.016-.71 1.18-5.367 8.134-6.028 9.15-.777 1.203-.581 4.287 1.548 4.287 2.298-.027 12.13-.081 12.13-.081s-3.382-4.826-4.255-6.337c-.9-1.617.82-2.183 1.557-1.16.479.679 4.318 6.42 5.208 7.578.688.942.37 2.132-.714 2.132H23.37Z"/>
</svg>
