<svg>
  <path d="m11.895 5.987.002 3.987.002 3.988-.4 2.203c-.22 1.211-.445 2.473-.499 2.803-.054.33-.272 1.547-.484 2.703a176.558 176.558 0 0 0-.486 2.737 99.7 99.7 0 0 1-.405 2.236l-.039.205-.077.415c-.129.69-.247 1.347-.289 1.616-.055.348-.317 1.82-.583 3.27-.265 1.45-.5 2.787-.521 2.97-.022.184-.244 1.43-.495 2.77-.757 4.046-.816 4.384-.595 5.061l.035.105.019.055c.252.727.792 1.198 1.536 1.338L9 44.52v1.98H1.5v-2.051l.273-.037c.15-.02.453-.133.674-.25.145-.076.266-.133.371-.2l.068-.047c.54-.396.679-1.259 1.796-7.16 1.075-5.677 1.435-7.58 1.83-9.676l.06-.316.09-.486.989-5.24.078-.412c.272-1.44.661-3.51.908-4.827l.791-4.205c.452-2.385.36-2.767-.818-3.368l-.465-.238v-2h3.75Zm30.862 27.832c.057 0 .512 2.27 1.058 5.272.796 4.375.98 4.785 2.34 5.236l.345.115v1.992H39v-1.985l.295-.041c1.48-.206 2.016-1.398 1.624-3.615-.542-3.062-.527-2.915-.324-3.17.366-.458.878-1.217 1.086-1.608.06-.112.12-.23.182-.349l.183-.36c.24-.48.455-.94.546-1.17.069-.174.143-.317.165-.317ZM16.165 1.5c5.381.01 13.464.1 13.887.194 1.577.352 3.006.97 3.75 1.62.127.111.257.202.288.202.074 0 1.16 1.074 1.16 1.146 0 .104-5.15.068-5.298-.037-.212-.15-1.457-.566-2.021-.675-.375-.071-1.099-.094-4.02-.1h-7.016v34.351l4.26.094c9.189.204 10.067.178 12.03-.793l.194-.096.1-.051c.83-.422.965-.51 1.724-1.105.438-.345 1.56-1.53 1.56-1.648 0-.036.1-.205.22-.375 1.754-2.458 1.946-6.807.418-9.42-1.05-1.793-2.264-2.913-4.044-3.727-1.928-.883-2.815-1.022-6.772-1.061l-2.908-.03-.18-.31a8.739 8.739 0 0 0-.364-.572c-.102-.143-.186-.293-.186-.333 0-.04-.119-.25-.263-.466-.145-.217-.263-.42-.263-.451 0-.032 1-.058 2.22-.059 2.548-.001 3.16-.05 4.044-.327 1.292-.403 2.593-1.328 3.451-2.454.132-.173.262-.34.351-.452l.085-.105.023-.027c.041-.044.151-.233.245-.42.093-.187.299-.53.457-.763.158-.233.457-.716.666-1.074.208-.358.415-.65.46-.65.073 0 .271.965.398 1.935.041.322.547 3.029.6 3.215.03.104-.163.336-1.167 1.403-.192.204-.215.254-.117.254.226 0 .748.206 1.64.648.79.393 1.284.7 2.302 1.429.426.305 1.427 1.246 1.633 1.535.097.136.31.423.472.639 2 2.645 2.69 6.576 1.734 9.886a46.56 46.56 0 0 0-.04.142l-.085.297-.133.488c-.086.328-.365.936-.911 1.99-.694 1.336-2.393 3.134-3.572 3.78-.21.115-.427.249-.483.298-.287.25-1.85.833-2.924 1.09l-.18.043-.085.02-.042.01-.168.035c-.646.132-1.38.185-4.157.19h-.98c-2.116-.003-5.191-.026-9.767-.059l-7.023-.051v-1.892l.232-.086c.404-.148.97-.745 1.22-1.29l.226-.487V5.352l-.152-.38c-.197-.496-.996-1.366-1.312-1.429l-.214-.043V2.412c.004-.46.023-.832.046-.855a.38.38 0 0 1 .115-.016l.18-.01c.475-.018 1.49-.028 2.81-.03Zm1.897 11.094c.028 0 .12.127.206.283.086.156.256.439.378.629.123.19.281.475.353.634.072.159.323.604.558.99.235.385.428.719.429.741 0 .023.23.435.51.917a91.332 91.332 0 0 1 1.382 2.413c.234.422.537.947.675 1.168.138.22.305.51.372.644.56 1.128.689 1.243.91.82a13.6 13.6 0 0 1 .264-.48l.127-.217h2c1.12.003 1.06.036.833.4-.09.146-.166.288-.167.316-.001.029-.194.352-.429.72-.234.366-.461.742-.505.834-.043.092-.244.437-.448.767-.203.33-.555.916-.78 1.302-.226.385-.494.836-.595 1l-.044.074a100.3 100.3 0 0 0-.519.878c-.386.662-.514.77-.596.5-.025-.082-.229-.435-.453-.784a23.92 23.92 0 0 1-.595-.968 15.263 15.263 0 0 0-.274-.46l-.171-.276-.084-.131c-.188-.294-.413-.66-.499-.816a67.51 67.51 0 0 0-1.317-2.15 23.215 23.215 0 0 1-.544-.9 22.211 22.211 0 0 0-.6-.974l-.426-.661.001-4.303c.004-1.654.024-2.91.048-2.91ZM31.77 5.92h3.448l.544.003c1.265.006 2.474.022 2.96.04l1.134.044v1.95l-.548.281c-.963.496-1.113 1.04-.777 2.834 1.129 6.034 1.793 9.522 1.837 9.648.054.158-.159.083-.351-.124a9.493 9.493 0 0 0-.687-.611 9.423 9.423 0 0 1-.56-.483.884.884 0 0 0-.212-.157c-.08-.044-.41-.27-.734-.501-.322-.232-.675-.459-.784-.504l-.07-.036c-.151-.09-.204-.237-.205-.542 0-.113-.074-.578-.162-1.035-.525-2.699-.825-4.32-.823-4.435.01-.6-.759-4.08-.87-3.935-.066.084-.12.183-.12.22 0 .036-.173.331-.385.656l-.08.125-.163.257c-.132.21-.25.406-.306.51-.09.165-.31.534-.487.821-.177.286-.393.647-.48.8-.086.155-.36.603-.608.997s-.451.734-.451.755c0 .105-.571.853-.967 1.265-.832.87-1.74 1.416-2.783 1.679-1.069.269-2.892.21-2.433-.078.037-.023.171-.242.298-.488.126-.245.344-.628.484-.852.14-.224.365-.614.5-.866.134-.253.326-.581.425-.728a22.054 22.054 0 0 0 .69-1.18l.169-.291c.168-.29.33-.559.418-.69.13-.196.238-.38.238-.41 0-.028.193-.363.429-.744.235-.38.476-.797.534-.925.058-.128.202-.384.32-.567.119-.184.402-.664.63-1.068.228-.404.544-.937.702-1.185l.286-.45Z"/>
</svg>
