<svg>
  <path d="M19.364 17.251c2.865 0 3.877 2.277 2.36 4.391l-.675.975c4.889 2.278 3.204 8.133-1.853 8.133h-5.899V17.251h6.067Zm-11.797 0c2.865 0 3.877 2.277 2.36 4.391l-.675.975c4.888 2.278 3.203 8.133-1.853 8.133H1.5V17.251h6.067Zm33.035-.001c1.01 0 1.18.325 1.684 1.301L46.5 30.75h-3.876l-.842-2.928h-5.057l-1.011 2.928h-2.192l4.383-13.499h2.697Zm-13.314 1.79 2.528 8.455 3.202-10.245h2.19l-4.213 13.499h-3.37L23.073 17.25h2.528c.843 0 1.18.162 1.686 1.79Zm-8.935 0h-1.685v9.92h.843c1.685 0 3.034-.813 3.034-2.928 0-1.624-.843-2.602-2.023-2.764l1.18-1.79c.168-.324.337-.65.337-.975 0-.813-.843-1.464-1.686-1.464Zm-11.798 0H4.87v9.92h.842c1.686 0 3.035-.813 3.035-2.928 0-1.624-.843-2.602-2.023-2.764l1.18-1.79c.168-.324.337-.65.337-.975 0-.813-.843-1.464-1.686-1.464Zm30.675 6.829h3.877l-1.855-6.18-2.022 6.18Z"/>
</svg>
