<svg>
  <path d="M16.486 21.374a27.48 27.48 0 0 1 1.606.134c-.161 0-.323.008-.482-.002a19.453 19.453 0 0 0-3.37.086c-1.541.172-3.042.505-4.493 1.059-1.334.509-2.575 1.184-3.67 2.111-.969.82-1.755 1.78-2.254 2.957a5.842 5.842 0 0 0-.457 2.008c-.096 1.846.583 3.401 1.732 4.785 1.1 1.33 2.48 2.307 4.011 3.08 1.5.76 3.085 1.263 4.729 1.592 1.673.335 3.365.44 5.065.365 2.433-.11 4.773-.62 6.972-1.696 1.17-.573 2.231-1.3 3.14-2.242a8.02 8.02 0 0 0 .914-1.145c.023-.036.046-.07.07-.103.013-.006.028-.008.062-.023-.042.084-.074.151-.11.216-.452.8-1.052 1.479-1.735 2.085-1.202 1.065-2.58 1.834-4.073 2.409a18.973 18.973 0 0 1-4.172 1.055 21.75 21.75 0 0 1-3.95.195c-2.886-.118-5.662-.71-8.279-1.965-1.357-.65-2.602-1.47-3.69-2.516-.902-.868-1.621-1.864-2.1-3.026-.278-.68-.463-1.376-.45-2.116.006-.42-.023-.843.036-1.256.14-.998.53-1.906 1.096-2.738.75-1.103 1.728-1.973 2.837-2.697 1.346-.878 2.814-1.482 4.357-1.908a19.435 19.435 0 0 1 3.498-.635c.55-.048 1.1-.093 1.652-.105.503-.013 1.007.01 1.508.036Zm.75 4.415c.225.053.24.07.235.296-.008.482-.023.965-.037 1.445a.682.682 0 0 1-.036.205.16.16 0 0 1-.099.086c-.069.015-.094-.042-.104-.102-.015-.082-.026-.166-.042-.248a1.638 1.638 0 0 0-1.45-1.287 1.997 1.997 0 0 0-.926.117c-.761.304-1.059 1.151-.638 1.854.114.188.263.365.424.516.27.251.558.486.85.715.528.415 1.056.826 1.507 1.327a3.04 3.04 0 0 1 .813 2.057c.01 1.109-.507 1.906-1.482 2.411-.44.229-.912.344-1.411.344-.468 0-.94.021-1.399-.073-.251-.053-.495-.145-.74-.22-.17-.053-.243-.179-.245-.349-.009-.293-.007-.587-.007-.847.015-.312.026-.593.044-.872.007-.09.021-.18.05-.266.013-.036.068-.082.104-.082.033 0 .081.048.098.086a.543.543 0 0 1 .034.184c.008.277.077.54.188.79.307.697.87 1.012 1.604 1.058.346.02.684-.036.999-.189.626-.306.935-.931.807-1.615-.074-.39-.237-.736-.522-1.006-.338-.323-.696-.625-1.045-.937-.39-.348-.788-.69-1.167-1.05a3.64 3.64 0 0 1-.464-.567c-.432-.623-.568-1.317-.428-2.057.13-.68.529-1.176 1.133-1.503a3.491 3.491 0 0 1 1.524-.411 6.797 6.797 0 0 1 1.829.19Zm12.108-.184c.073.1.128.216.174.333.448 1.1.893 2.2 1.342 3.3.612 1.508 1.226 3.016 1.843 4.522.077.186.17.369.26.549.11.222.26.415.448.574.08.068.168.128.263.172.283.126.513.05.65-.224.067-.134.117-.285.14-.436.315-2.015.623-4.03.937-6.045.132-.841.273-1.682.41-2.523.008-.048.016-.096.029-.144.018-.078.05-.147.142-.162.095-.015.164.03.21.107.05.084.094.17.138.258l2.126 4.372 1.24 2.543c.029.061.065.122.117.223.625-1.267 1.206-2.515 1.801-3.756l1.789-3.734c.25-.017.295.014.331.247.13.822.258 1.642.382 2.464.178 1.187.352 2.376.53 3.564.113.76.229 1.519.348 2.278.021.136.057.274.099.406.1.321.319.523.65.583.184.034.373.053.56.076.042.006.088.002.123.019.032.014.072.052.074.084.002.027-.038.073-.067.083a.553.553 0 0 1-.185.026 581.53 581.53 0 0 1-2.703-.086c-.14-.005-.142-.013-.268-.11l.038-.071a.11.11 0 0 1 .025-.03c.153-.11.161-.265.138-.431l-.18-1.413c-.117-.894-.237-1.787-.359-2.68-.069-.512-.142-1.023-.213-1.535-.01-.036-.028-.065-.053-.138-.052.098-.088.161-.12.228-.905 1.875-1.811 3.747-2.717 5.622-.082.17-.163.34-.26.501-.105.176-.2.176-.312.002a6.582 6.582 0 0 1-.304-.526c-.852-1.598-1.632-3.23-2.395-4.869a26.72 26.72 0 0 0-.29-.604.419.419 0 0 0-.138-.166c-.04.275-.081.55-.117.824-.136 1.047-.275 2.091-.407 3.137-.06.478-.12.956-.17 1.437-.042.406.059.545.457.635.156.036.32.042.478.063.082.01.156.031.126.142-.421.107-5.1.078-5.374-.046.042-.042.067-.094.11-.109.207-.081.192-.172.13-.348-.204-.558-.406-1.115-.611-1.673-.11-.296-.235-.583-.34-.879-.048-.134-.13-.184-.264-.184l-1.111-.006c-.503 0-1.007.004-1.51.006-.103 0-.184.008-.229.13-.247.683-.505 1.36-.75 2.044a1.919 1.919 0 0 0-.103.447c-.031.264.086.409.352.45.124.02.252.018.376.024.096.004.163.038.144.15-.2.048-1.764.07-3.562.073h-.852l-.738-.002c-2.126-.01-4.129-.047-4.269-.104.004-.094.082-.1.147-.11.118-.02.235-.03.354-.04.227-.022.38-.137.443-.355.036-.126.07-.258.071-.388.019-.746.034-1.495.038-2.244.008-1.356.012-2.71.015-4.067a43.3 43.3 0 0 0-.02-1.3c-.014-.5-.178-.661-.693-.75l-.355-.041c-.044-.006-.084-.036-.121-.052.019-.126.105-.116.178-.118.293-.006.587-.012.88-.012.888.002 1.777.008 2.664.012.056 0 .113-.006.167.009.04.01.074.046.111.07-.033.03-.06.078-.098.087-.115.02-.235.027-.354.04a5.053 5.053 0 0 0-.25.029c-.262.042-.403.208-.453.457a1.566 1.566 0 0 0-.033.313c-.009 1.545-.017 3.088-.021 4.634-.003.614.002 1.23.018 1.845.007.264.042.528.084.79.04.25.193.42.434.489.166.048.34.09.512.094.51.013 1.019.017 1.529 0 .442-.015.736-.27.914-.665.046-.1.075-.21.109-.316.014-.046.02-.097.038-.14.025-.064.04-.158.13-.126.035.012.069.102.067.153-.032.41-.072.82-.114 1.23-.01.103-.033.206-.052.313.086.071.176.025.262.019.36-.03.631-.212.822-.512.082-.128.151-.268.21-.409.727-1.793 1.45-3.585 2.176-5.378.403-.996.808-1.994 1.214-2.99.03-.072.057-.145.095-.21.081-.138.228-.155.323-.025Zm-17.33.201c.037.09.02.147-.07.164a4.425 4.425 0 0 1-.291.038c-.44.048-.619.213-.638.652a50.52 50.52 0 0 0-.042 2.031c-.002 1.636.004 3.27.013 4.905.002.279.023.558.04.837.004.069.016.138.03.207.043.229.175.384.404.428.218.04.442.054.664.08.049.006.103-.002.145.016l.035.025.062.068c-.034.029-.063.075-.101.081-.082.015-.168.015-.25.015-1.174-.004-2.346-.01-3.52-.017-.048 0-.097-.01-.145-.014-.042-.11.013-.15.1-.162.112-.014.223-.027.334-.038.321-.033.453-.138.512-.455.046-.26.08-.526.08-.79.006-2.304.004-4.611.002-6.915 0-.126-.009-.252-.026-.376-.04-.323-.188-.486-.51-.551-.135-.027-.276-.036-.414-.055-.086-.014-.151-.042-.107-.174h3.692Zm16.879 2.326c-.197.302-1.235 3.065-1.24 3.287.8-.004 1.6.02 2.43-.023a62.07 62.07 0 0 0-1.19-3.264ZM17.26 7.589a1.6 1.6 0 0 1 .163.315l1.225 3.006c.641 1.58 1.283 3.158 1.93 4.733.114.277.255.545.395.81.113.211.273.39.482.513a.928.928 0 0 0 .703.124c.188-.044.323-.15.369-.332a2.71 2.71 0 0 0 .092-.576c.027-.944.042-1.887.06-2.829l.112-5.491c.01-.12 0-.244.128-.336.189.057.298.2.417.323.426.445.841.897 1.269 1.34 1.732 1.786 3.466 3.569 5.202 5.351.107.109.22.212.338.323.07-.078.046-.157.046-.229-.015-.964-.025-1.929-.049-2.891-.02-.914-.048-1.83-.083-2.745a2.963 2.963 0 0 0-.084-.558.526.526 0 0 0-.449-.415c-.172-.031-.348-.033-.52-.06-.078-.013-.216.02-.201-.118.012-.113.134-.076.21-.076.916-.002 1.83-.002 2.746.005.13 0 .26.025.384.035.025.113-.04.137-.1.147-.082.015-.166.015-.25.019-.388.027-.617.218-.659.602-.042.381-.052.767-.06 1.15-.038 1.894-.07 3.788-.107 5.681l-.057 1.864c-.004.25-.14.25-.298.164a1.08 1.08 0 0 1-.212-.168c-.385-.373-.775-.744-1.155-1.128a1152.93 1152.93 0 0 1-4.206-4.271c-.434-.445-.85-.91-1.273-1.365-.054-.059-.115-.114-.2-.197-.005.088-.012.132-.012.178.038 1.53.078 3.06.12 4.588a21 21 0 0 0 .054 1.088c.015.178.067.356.116.53a.51.51 0 0 0 .432.38c.163.03.331.038.499.05.155.013.222.046.205.12-.027.117-.13.084-.207.086-1.336.004-2.67.008-4.005.004-.495-.002-.992-.019-1.487-.032-.067-.002-.134-.018-.193-.027-.031-.103.021-.128.082-.155.166-.078.176-.098.132-.27a3.97 3.97 0 0 0-.117-.38c-.277-.738-.562-1.474-.835-2.214-.052-.145-.13-.21-.287-.21-.545.002-1.09-.008-1.636-.008-.314 0-.629.008-.943.014h-.214c-.176.466-.352.913-.516 1.365-.126.349-.241.7-.352 1.053a1.025 1.025 0 0 0-.038.31c.002.168.09.275.256.313.1.023.207.025.31.038.1.012.203.029.357.05-.07.065-.095.109-.13.117-.08.02-.166.03-.25.032-.929.004-1.86.004-2.789.004-.04 0-.082-.008-.12-.015-.047-.132.022-.172.129-.184.132-.015.264-.025.394-.044a.956.956 0 0 0 .683-.44c.095-.145.179-.303.244-.462.7-1.721 1.394-3.443 2.092-5.164L16.84 7.82c.03-.072.057-.145.095-.21.08-.136.232-.149.325-.021Zm-11.48.189c1.312.006 2.627.012 3.94.03.375.003.73.114 1.062.284.745.378 1.101 1.086.975 1.91-.081.54-.327.99-.708 1.374-.157.161-.33.314-.522.495.092.04.161.073.23.102a3.711 3.711 0 0 1 1.46 1.066c.572.69.725 1.48.467 2.34-.218.727-.692 1.247-1.363 1.593a3.496 3.496 0 0 1-1.614.392c-.516 0-1.034-.027-1.55-.031-.698-.004-1.396 0-2.097.002-.077 0-.155.004-.23-.008-.034-.007-.086-.05-.084-.072a.158.158 0 0 1 .073-.104c.04-.024.095-.021.143-.026.096-.012.195-.023.291-.031.225-.017.371-.143.413-.354.053-.258.097-.523.107-.787.023-.578.028-1.16.03-1.74.008-1.348.014-2.699.012-4.047 0-.455-.02-.908-.035-1.36a1.98 1.98 0 0 0-.032-.271c-.048-.298-.182-.445-.48-.506-.164-.033-.333-.033-.499-.063-.08-.012-.218.015-.201-.12.012-.112.136-.068.211-.068Zm2.761 4.569c-.06 0-.122.016-.206.027v.283c-.002.726-.004 1.451-.002 2.179 0 .377.002.754.02 1.13.02.455.17.64.605.761.376.105.76.126 1.14.046a1.406 1.406 0 0 0 1.102-1.155c.056-.334.04-.667-.01-1a2.827 2.827 0 0 0-1.097-1.888c-.225-.172-.472-.302-.76-.329-.264-.025-.528-.04-.792-.054Zm8.295-2.244c-.164.176-1.233 2.963-1.256 3.269.793.036 1.587.038 2.434.01-.4-1.113-.786-2.193-1.178-3.279ZM8.66 8.273c-.253-.009-.301.041-.32.3a1.718 1.718 0 0 0-.007.146c.002.445.002.891.002 1.338.003.503-.002 1.004.005 1.508.002.2.033.23.235.237.257.008.515.002.773.004a.89.89 0 0 0 .558-.208c.218-.168.354-.392.438-.65.103-.31.113-.631.088-.952a2.025 2.025 0 0 0-.71-1.422 1.004 1.004 0 0 0-.5-.247 4.18 4.18 0 0 0-.562-.054Zm26.643 4.294c-.007.243-.021.484-.021.727.004.915.01 1.831.023 2.745.002.18.02.363.054.541.06.325.2.453.529.501.15.021.306.028.459.044.08.009.172.002.203.118-.042.088-.125.073-.199.073-.342.004-.685.009-1.027.009-.797 0-1.594-.003-2.39-.005-.089 0-.177-.008-.265-.014-.03-.103.004-.155.084-.174.046-.01.096-.01.147-.013.077-.004.153-.006.23-.015.269-.029.44-.172.483-.442.037-.247.086-.497.092-.747.021-.677.03-1.354.034-2.031.004-1.133.004-2.265 0-3.395a87.06 87.06 0 0 0-.028-1.654c-.004-.133-.03-.265-.052-.395a.435.435 0 0 0-.315-.36c-.159-.049-.325-.072-.49-.101-.088-.015-.18-.017-.27-.03-.057-.008-.122-.029-.101-.1.008-.031.069-.063.109-.065.167-.01.335-.01.503-.01h3.177c.046.146-.034.176-.12.19-.117.021-.235.032-.352.053-.258.046-.415.207-.449.461-.036.268-.05.543-.052.814-.007.83-.003 1.662 0 2.493 0 .048.006.096.01.157.099-.01.143-.086.197-.14.717-.745 1.437-1.487 2.15-2.238.253-.268.494-.551.731-.834.088-.105.162-.231.212-.359.078-.201.027-.3-.172-.394-.08-.036-.132-.08-.094-.174.36-.076 2.965-.042 3.172.042.004.117-.082.128-.168.128-.44.004-.834.16-1.203.381-.195.12-.39.252-.554.41-.975.94-1.941 1.89-2.91 2.838-.065.063-.12.135-.187.208.053.07.097.132.147.189 1.134 1.31 2.3 2.591 3.542 3.801.274.266.572.514.878.745.43.327.917.53 1.462.578.056.004.109.036.205.067-.071.055-.1.095-.14.105a.922.922 0 0 1-.229.027c-.566.005-1.132 0-1.698.007-.602.006-1.126-.185-1.558-.606-.336-.327-.678-.648-.994-.992-.904-.983-1.789-1.982-2.613-3.032-.042-.052-.09-.103-.134-.153a.48.48 0 0 1-.048.02Z"/>
</svg>
