<svg>
  <path d="M30.48 32.408c-.252.046-12.787.038-12.969-.006.017-.237.03-.48.048-.721.034-.402.063-.807.11-1.209.156-1.39.626-2.672 1.355-3.86a10.385 10.385 0 0 1 2.848-3.036c.192-.138.379-.287.56-.438.077-.065.17-.145.135-.264-.035-.12-.153-.17-.264-.178-.165-.013-.341-.025-.494.025-.344.109-.694.224-1.012.394-1.708.9-3.185 2.087-4.384 3.606-.74.939-1.276 1.982-1.536 3.156-.096.438-.155.88-.153 1.328.002.363 0 .727 0 1.09 0 .034-.006.067-.008.098-.16.055-4.705.068-4.954.013 0-.042-.004-.088 0-.136.05-.633.092-1.268.153-1.899.12-1.228.51-2.37 1.123-3.436.763-1.322 1.802-2.393 3.018-3.3a16.094 16.094 0 0 1 2.6-1.56c.476-.232.95-.473 1.417-.722.159-.084.308-.193.444-.313.165-.142.163-.249.031-.415-.251-.314-.473-.372-.844-.2a3.837 3.837 0 0 0-.528.297c-1.295.886-2.697 1.58-4.105 2.26-1.065.516-2.091 1.095-3.026 1.826-.832.652-1.559 1.398-2.125 2.294a7.394 7.394 0 0 0-1.117 3.236c-.067.645-.107 1.293-.159 1.94-.004.042-.01.082-.015.12-.157.05-4.832.065-5.127.016 0-.056-.004-.117 0-.176.065-.68.12-1.364.199-2.043a8.353 8.353 0 0 1 2.062-4.61c.802-.915 1.743-1.668 2.755-2.336a25.441 25.441 0 0 1 2.81-1.59c1.048-.516 2.079-1.059 3.04-1.72a9.946 9.946 0 0 0 1.455-1.197c.664-.673 1.159-1.444 1.43-2.358.054-.186.14-.364.23-.536.06-.115.146-.222.243-.312.257-.243.534-.201.712.102.053.09.099.187.124.287.182.749.524 1.425.936 2.07.124.194.244.388.376.6.05-.046.085-.073.117-.107.168-.186.341-.37.5-.564a4.015 4.015 0 0 0 .816-1.724c.033-.155.069-.314.132-.461.126-.296.383-.4.69-.296a.686.686 0 0 1 .454.455c.266.799.65 1.542 1.087 2.26.06.093.128.181.195.271.061.08.14.095.222.042a1.6 1.6 0 0 0 .269-.199c.278-.27.492-.59.666-.932.145-.285.268-.583.388-.88.102-.254.21-.505.392-.71.085-.1.188-.19.301-.254.197-.113.386-.055.501.14.046.078.076.166.105.25.279.808.658 1.57 1.117 2.29.058.094.134.178.205.264.06.073.136.071.201.01a1.57 1.57 0 0 0 .216-.226 7.023 7.023 0 0 0 1.044-2.087 2.43 2.43 0 0 1 .186-.486c.19-.331.486-.365.76-.099.24.23.355.53.464.834.102.29.214.577.333.857.218.516.574.937.966 1.373.038-.073.071-.13.098-.189.212-.471.411-.949.633-1.414a12.2 12.2 0 0 1 .577-1.067c.098-.163.236-.312.385-.438.224-.188.434-.138.564.124.069.143.121.298.15.455.12.622.384 1.18.736 1.697.564.83 1.283 1.509 2.08 2.108.866.648 1.8 1.174 2.794 1.595 1.538.654 2.982 1.462 4.285 2.514 1.134.916 2.113 1.97 2.85 3.236.572.982.96 2.032 1.088 3.164.05.457.042.92.056 1.38.006.202 0 .405 0 .63-.077.008-.144.02-.21.02-1.493.002-2.99 0-4.484 0-.054 0-.11-.008-.182-.012-.004-.067-.012-.126-.015-.187-.002-.335-.004-.67 0-1.006.017-1.12-.261-2.168-.77-3.16-.633-1.23-1.53-2.246-2.584-3.128-1.123-.928-2.368-1.658-3.7-2.234a23.15 23.15 0 0 1-3.1-1.657 24.776 24.776 0 0 0-.895-.543 1.584 1.584 0 0 0-.425-.17c-.103-.023-.237-.025-.323.023a3.177 3.177 0 0 0-.515.386c-.1.092-.08.165.031.239.04.027.086.044.13.065.962.467 1.932.913 2.881 1.404 1.62.836 3.037 1.932 4.189 3.354.968 1.195 1.664 2.528 1.98 4.043.09.43.134.867.189 1.303.046.381.075.765.11 1.146.005.034 0 .067 0 .1-.163.051-4.938.057-5.158.003-.015-.174-.032-.352-.044-.532-.048-.633-.082-1.268-.233-1.888-.306-1.264-.884-2.393-1.68-3.412-1.33-1.701-3.011-2.933-5.023-3.717a5.65 5.65 0 0 0-.74-.218 1.254 1.254 0 0 0-.415-.017c-.148.015-.203.124-.136.258a.922.922 0 0 0 .193.27c.205.189.41.384.64.539 1.625 1.11 2.732 2.634 3.522 4.41.35.789.605 1.61.695 2.47.053.491.04.988.055 1.485.002.115 0 .232 0 .36Zm-1.05-1c.01-.029.023-.048.023-.066.004-.426.02-.851-.07-1.272-.156-.753-.456-1.448-.82-2.119-.897-1.651-2.21-2.919-3.722-3.994-.13-.092-.279-.157-.423-.228a1.084 1.084 0 0 0-1.134.071c-.222.145-.44.298-.64.472-.456.4-.909.804-1.342 1.23-1.5 1.47-2.509 3.197-2.71 5.332-.017.187-.042.371-.065.573 3.65.002 7.276.002 10.903.002ZM15.996 17.687c-.098.094-.18.159-.243.238-.174.22-.354.434-.503.669-.62.968-1.454 1.708-2.41 2.326-1.029.664-2.122 1.207-3.227 1.73a19.83 19.83 0 0 0-2.22 1.216c-1.124.719-2.15 1.555-3 2.592-.743.91-1.294 1.917-1.588 3.06-.153.597-.21 1.209-.285 1.818-.002.025.009.05.015.078h3.074c.012-.092.027-.174.036-.256.05-.45.083-.903.153-1.351.132-.878.448-1.698.865-2.48a10.704 10.704 0 0 1 4.065-4.238c.92-.545 1.882-1.01 2.825-1.51.899-.477 1.787-.976 2.678-1.47.128-.071.255-.149.362-.247.421-.384.421-.591.216-.97-.178-.332-.388-.644-.59-.96-.053-.082-.13-.145-.223-.245Zm15.804.058c-.241.375-.507.709-.669 1.107-.01.025-.016.052-.025.08-.09.312-.025.544.237.739.228.17.463.337.712.478.883.496 1.765.99 2.657 1.467 1.128.6 2.255 1.198 3.334 1.885a9.758 9.758 0 0 1 3.485 3.827c.398.77.733 1.565.953 2.407.103.396.116.799.14 1.203.022.308.116.415.42.444.662.063 1.324.061 1.986-.002.321-.031.42-.15.434-.475.023-.503-.075-.987-.237-1.459-.49-1.433-1.307-2.663-2.347-3.753-.871-.913-1.89-1.632-3.013-2.202-.871-.442-1.75-.872-2.627-1.301-1.266-.618-2.42-1.39-3.41-2.4-.547-.56-1.1-1.112-1.649-1.668-.12-.117-.243-.238-.381-.377Zm2.892 13.68c1.033-.003 2.06.006 3.092-.007 0-.059.005-.086 0-.113-.088-.488-.157-.979-.266-1.46-.308-1.35-.974-2.515-1.886-3.548-.844-.956-1.837-1.731-2.914-2.404-1.027-.64-2.119-1.156-3.213-1.666-.43-.199-.87-.379-1.303-.57a.723.723 0 0 0-.409-.054c-.203.033-.255.142-.127.302.081.102.176.2.282.276.325.229.65.46.99.667 1.255.767 2.386 1.676 3.331 2.808 1.067 1.276 1.813 2.707 2.125 4.352.09.465.195.928.298 1.416Zm-21.043-.013c.032-.235.065-.447.086-.662a8.232 8.232 0 0 1 .616-2.467c.796-1.856 2.026-3.376 3.6-4.629.444-.352.92-.655 1.406-.945.323-.192.633-.408.943-.62.082-.056.172-.124.176-.27-.075-.006-.15-.025-.22-.015-.172.032-.344.063-.51.117a20.163 20.163 0 0 0-4.47 2.163 12.025 12.025 0 0 0-2.203 1.796c-.918.957-1.61 2.047-1.97 3.336-.153.547-.211 1.108-.272 1.67-.02.17-.034.341-.053.526h2.871Zm10.49-13.843c-.312.478-.612.93-.905 1.387a1.79 1.79 0 0 0-.16.317c-.088.22-.06.358.126.499.189.14.394.261.6.377a.52.52 0 0 0 .465.02 3.59 3.59 0 0 0 .987-.655c.067-.06.077-.128.033-.206-.031-.054-.059-.11-.092-.163-.323-.497-.648-.991-.972-1.486-.013-.025-.036-.042-.082-.09Zm-4.143-.031c-.027.03-.048.048-.063.071-.266.417-.532.834-.794 1.255a2.182 2.182 0 0 0-.138.281.385.385 0 0 0 .042.398c.167.235.354.449.593.614.264.182.52.19.775-.006.18-.138.335-.312.486-.484.128-.143.139-.319.071-.493a2.695 2.695 0 0 0-.182-.375c-.228-.383-.46-.765-.693-1.144-.028-.042-.063-.075-.097-.117Zm6.932 1.877c.295.218.566.426.844.62.193.137.392.126.583-.012.201-.149.406-.293.601-.453.208-.167.237-.289.118-.53a6.123 6.123 0 0 0-.734-1.165c-.05-.06-.117-.109-.197-.18-.475.526-.806 1.123-1.215 1.72Zm-4.924 1.895a2.46 2.46 0 0 0 .716-.187c.172-.075.208-.186.09-.331a2.002 2.002 0 0 0-.402-.386.52.52 0 0 0-.593-.02c-.14.085-.272.199-.375.324-.143.176-.096.37.111.466.14.067.3.092.453.134Zm4.002-.03c.224-.014.463-.058.662-.213.164-.126.182-.262.071-.436a.514.514 0 0 0-.333-.23c-.375-.078-.702.029-.983.28-.113.1-.115.186-.031.314.14.21.352.277.614.285Zm-1.982.857c.098-.023.205-.035.3-.075.123-.05.14-.143.068-.256a.425.425 0 0 0-.73.004c-.072.111-.053.2.072.252.088.038.187.05.29.075Z"/>
</svg>
