<svg>
  <path d="M43.868 13.288c1.498 2.894 2.337 5.963 2.572 9.206.719 9.951-5.083 19.265-14.342 22.964-2.592 1.041-5.298 1.525-7.48 1.538-9.65 0-17.862-5.553-21.333-13.993C-.24 24.415 1.532 14.753 7.93 8.024c3.519-3.7 7.836-5.956 12.9-6.674C30.317.007 39.456 4.774 43.867 13.288ZM17.681 7.46c-6.66 2.632-11.093 9.273-11.173 16.652.127 1.122.181 2.257.39 3.358.832 4.35 2.92 8.004 6.432 10.723 5.197 4.015 10.978 4.949 17.069 2.478 6.144-2.491 9.689-7.265 10.797-13.765.732-4.298-.108-8.374-2.337-12.134C34.495 7.413 25.578 4.338 17.681 7.46ZM37.86 36.75c-.128.14-.215.234-.31.342.31.315.713.557.478 1.101-.282-.067-.564-.127-.846-.195-.477-.12-.51-.107-.773.343l.692.14c.242.048.483.102.725.142.195.033.282.114.282.329-.013.295.027.604.047.96.316-.195.443-.403.403-.725-.04-.356-.04-.712-.06-1.162.315.296.55.51.799.746.127-.108.228-.202.335-.29-.06.028-.12.061-.18.088-.525-.604-1.055-1.202-1.592-1.82Zm-28.417-.887c-.114.1-.188.175-.275.255.295.363.577.699.873 1.061-.195.161-.356.296-.544.443-.269-.315-.524-.61-.792-.926-.108.087-.195.16-.29.235.276.329.518.624.78.947-.168.134-.302.241-.443.362a87.773 87.773 0 0 1-.867-.994 3.707 3.707 0 0 0-.282.242c.397.463.773.913 1.155 1.37.645-.544 1.25-1.048 1.874-1.578-.403-.484-.786-.94-1.189-1.417Zm9.569-25.395c-.108 1-.296 1.887-1.102 2.518-.241.188-.45.416-.711.564-.658.37-.88.994-1.021 1.692-.12.591-.235 1.189-.463 1.74-.202.483-.558.9-.84 1.35-.053.086-.147.18-.154.274a73.208 73.208 0 0 0-.067 2.102c0 .107-.007.228.04.322.41.86.262 1.679-.161 2.471-.108.195-.108.343.013.517.477.692.605 1.444.45 2.27-.027.141.06.35.168.45.517.503.9 1.074 1.061 1.786.034.141.12.289.228.39.269.268.558.516.833.778.35.336.51.739.51 1.23.007.892.027 1.785.067 2.678.027.558.262.954.82 1.216 1.578.752 3.223 1.296 4.962 1.403.799.047 1.618-.154 2.417-.302 1.195-.222 2.303-.692 3.39-1.216.491-.235.686-.59.7-1.1.013-.639.087-1.277.04-1.908-.088-1.148.416-1.974 1.262-2.665.148-.121.275-.323.322-.504.182-.645.524-1.182.974-1.659.161-.167.208-.315.174-.564-.114-.852.047-1.645.591-2.336.108-.135.188-.255.06-.443-.523-.732-.49-1.518-.214-2.337.054-.161.047-.37.007-.544-.155-.631-.256-1.27-.148-1.92.013-.081-.014-.222-.067-.262-.746-.484-.9-1.263-1.054-2.048-.081-.417-.155-.833-.27-1.243-.133-.496-.375-.92-.812-1.228-.926-.665-1.477-1.598-1.846-2.653-.06-.181-.074-.382-.114-.61.12 0 .194-.02.241 0 1.176.543 2.418.973 3.391 1.866.598.544 1.189 1.081 1.88 1.524.813.524 1.29 1.343 1.599 2.263.047.141.12.289.228.396 1 1.075 1.598 2.33 1.685 3.807.007.074.04.148.074.215.416.739.618 1.525.598 2.37v.034c-.276.866-.047 1.766-.175 2.646-.215 1.457-1.02 2.498-2.25 3.25-.382.228-.805.39-1.188.617-.403.242-.785.524-1.182.786.027.04.047.074.068.107 1.175.095 2.679-.684 3.599-1.866.053.362-.148 1.33-.484 1.887-.275.463-.658.866-.987 1.296-.087.12-.188.241-.235.382-.403 1.27-1.195 2.176-2.484 2.552-.437.127-.927.067-1.397.087l-.134-.004-.269-.036c-.873-.067-1.732-.114-2.437.59-.242.243-.605.363-.913.605.114.007.228.007.335.014.51.04 1.02.067 1.531.134.35.047.558.289.658.638.08.268.215.53.33.799-1.33-.457-2.72-.51-4.097-.544a144.498 144.498 0 0 0-6.607 0c-1.209.027-2.43.114-3.599.524.134-.343.215-.705.403-1 .14-.209.41-.397.651-.45.417-.095.866-.081 1.296-.108.121-.007.235 0 .45 0-.12-.108-.168-.161-.222-.202-.463-.295-.92-.597-1.39-.866a1.423 1.423 0 0 0-.604-.195c-.792-.04-1.591 0-2.377-.073-1.376-.135-2.263-.947-2.733-2.21a2.286 2.286 0 0 0-.63-.94c-.72-.658-1.068-1.524-1.27-2.464a2.139 2.139 0 0 1-.04-.557c.792 1.215 1.967 1.584 3.303 1.611.034-.04.074-.08.108-.12-.121-.081-.242-.175-.37-.242-.49-.269-.966-.55-1.47-.8-1.39-.69-2.223-1.799-2.505-3.316-.06-.33-.033-.665-.053-1-.027-.525-.067-1.042-.094-1.565-.054-.873.053-1.713.47-2.505.12-.235.14-.53.188-.799.201-1.094.752-2.021 1.37-2.92.261-.384.503-.787.718-1.203.557-1.06 1.47-1.752 2.43-2.404.081-.053.182-.107.23-.188.624-1.014 1.557-1.618 2.631-2.034.537-.208 1.088-.39 1.686-.598ZM39.74 34.184c-.08.128-.148.229-.228.35.43.295.839.584 1.248.866-.51.047-.987.047-1.463 0-.316-.027-.51.067-.611.41.651.436 1.309.886 1.994 1.342.087-.134.148-.228.228-.356-.443-.302-.86-.584-1.302-.886.557 0 1.054-.02 1.537.007.302.013.497-.06.591-.39-.645-.43-1.296-.866-1.994-1.343ZM7.616 33.11c-.504.658-.994 1.296-1.464 1.94-.047.068-.034.242.02.316.074.094.222.215.322.202.78-.114 1.558-.256 2.35-.397-.073-.282-.194-.463-.49-.376-.261.081-.396-.033-.496-.248a1.865 1.865 0 0 0-.189-.316c-.127-.167-.134-.322.027-.47.256-.241.141-.436-.08-.65Zm-.35 1.202c.142.235.242.396.363.611-.329.074-.618.134-.9.195a.407.407 0 0 0-.053-.06c.181-.236.369-.464.59-.746Zm27.108-1.101c-.161.047-.316.047-.403.127-.33.282-.712.33-1.121.316-.175-.007-.35.087-.605.161.86.524 1.988.188 2.129-.604Zm-20.42.047c.088.436.47.718.826.705.29-.014.578 0 .867 0h.342c.013-.04.027-.08.04-.128-.201-.087-.396-.248-.597-.255-.51-.02-1.041.114-1.478-.322Zm27.323-2.075c-.209.235-.242.443.02.631.16.121.174.262.074.437-.088.14-.121.322-.222.45-.074.093-.222.208-.322.194-.33-.033-.504.074-.558.443.826.047 1.639.101 2.451.128.087 0 .215-.148.255-.248.034-.101.014-.27-.053-.343-.269-.316-.564-.604-.853-.9-.262-.268-.53-.523-.792-.792Zm-24.482.416c-.316.53-.235 1.47.127 1.713-.04-.565-.08-1.115-.127-1.713Zm14.477.014h-.135v.517c0 .194 0 .396.014.59.006.108.027.209.047.31.087-.081.221-.148.262-.249.147-.416-.007-.799-.188-1.168Zm10.454.765c.222.228.423.437.632.645-.262-.02-.551-.047-.88-.074.094-.222.175-.396.248-.57ZM5.883 30.726c-.315.121-.483.356-.476.699.006.221.067.443.053.664-.006.141-.107.282-.168.417-.12-.114-.282-.202-.355-.343-.054-.094-.054-.295.013-.376.161-.215.04-.362-.067-.55-.564.255-.477.852-.222 1.289.195.342.497.497.8.41.322-.095.49-.35.476-.76-.007-.22-.06-.442-.06-.664 0-.107.067-.255.147-.302.081-.047.242-.02.336.027.242.14.343.564.161.765-.215.235-.12.376.04.55.578-.335.632-.96.155-1.557-.222-.282-.524-.383-.833-.269Zm30.465-.248c-.403.336-.772.651-1.189 1.007.417.034.793.094 1.061-.248.182-.235.135-.504.128-.76Zm-23.246.712c.436.114.805.215 1.175.309l.094-.074c-.114-.135-.208-.35-.356-.39-.296-.087-.604-.033-.913.155Zm21.07-.161c-.107.02-.188.147-.288.221.02.027.033.06.053.087h.853c-.154-.302-.383-.362-.618-.308ZM11.39 30.33c-.174.45.303.853 1.169.934-.423-.336-.793-.638-1.169-.934Zm21.561-1.893c.047.43.141.866.128 1.296-.014.416-.134.832-.215 1.282.866-.698.913-1.712.087-2.578Zm-17.928-.094c-.698.47-.638 2.088.1 2.598-.373-.537-.332-1.071-.24-1.613l.058-.326c.038-.218.074-.438.082-.66Zm27.06-.02c-.12.517-.262 1-.342 1.49-.06.37.275.705.658.678.188-.013.362-.12.557-.194.336.483.866.544 1.081.06.195-.43.289-.9.437-1.383-.82-.228-1.578-.43-2.39-.651ZM24.554 13.765c-.054.282-.088.497-.128.712-.08.436.007.832.275 1.182.128.167.229.214.397-.02.503-.699 1.094-1.31 1.994-1.484.678-.135 1.396.362 1.262 1.181-.114.719-.604 1.108-1.269 1.35a4.554 4.554 0 0 1-1.665.262c-.155-.007-.208.067-.269.221-.168.403-.228.833-.302 1.236-.074.41-.027.853 0 1.29.04.617.262 1.134.651 1.597.141.168.256.215.35-.04.04-.1.127-.195.201-.255.343-.289.43-.638.463-1.081.047-.578.551-1.122 1.41-1.034.524.053 1.035.624 1.048 1.222.013.41-.114.812-.067 1.229.134 1.168-.376 2.027-1.283 2.699-.06.047-.147.094-.114.188.027.08.114.087.188.114.457.168.887.363 1.209.752.53.645.59 1.383.423 2.142-.282 1.283-1.108 2.122-2.256 2.7-.229.113-.47.22-.699.355-.188.108-.396.208-.691.128.624-.262 1.08-.692 1.484-1.169.711-.839 1.356-1.732 1.188-2.927-.107-.786-.665-1.639-1.645-1.72-.067-.006-.14.008-.181-.06-.054-.107.054-.134.1-.18a7.643 7.643 0 0 0 1.565-2.183c.094-.202.222-.403.148-.638-.1-.034-.135.02-.168.06-.457.53-1.068.712-1.74.712-.234 0-.335.074-.362.343-.054.443-.134.893-.1 1.322.033.47.06.934.033 1.397-.06 1.115-.074 2.243-.463 3.304-.242.664-.51 1.322-1.242 1.611-.108.054-.215.134-.376.034.228-.35.584-.578.752-.954.208-.45.362-.92.396-1.41.114-1.605.107-3.21.154-4.814a2.13 2.13 0 0 1 .134-.705c.06-.161.014-.235-.1-.296-.282-.16-.53-.356-.705-.638-.047-.08-.128-.18-.249-.114-.087.054-.127.114-.127.255-.014.632-.383 1.142-.726 1.625-.496.705-1.141 1.276-1.953 1.632a2.863 2.863 0 0 1-.853.228c-.383.027-.504.128-.517.517-.014.538-.08 1.088 0 1.612.154.967.476 1.887 1.437 2.384.544.282 1.121.315 1.631-.04.41-.283.618-.699.611-1.25-.006-.597-.16-1.087-.604-1.484-.436-.389-1.148-.228-1.35.316-.04.1-.033.208.034.316.087.147.148.315.222.483-.558-.074-.76-.57-.51-1.06.22-.437.577-.639 1-.786.577-.202 1.02.073 1.383.456.927.967.598 2.263-.06 2.948-.383.396-.84.644-1.41.705-1.23.127-2.069-.49-2.707-1.424-.41-.604-.557-1.336-.584-2.068-.02-.577-.013-1.155.121-1.725.04-.168-.074-.303-.174-.417-.92-1.04-.732-2.498-.06-3.41.04-.048.107-.081.16-.115.047-.034.074-.128.155-.074.087.054.013.128-.014.175a5.99 5.99 0 0 0-.416 1.255c-.128.571.067 1.082.356 1.565.094.154.201.148.275-.047.296-.752.604-1.497 1.115-2.142.094-.12.04-.215-.067-.302-.598-.484-.94-1.081-1-1.874-.034-.765.147-1.41.71-1.947.209-.195.47-.282.7-.456-.504-.343-.706-.846-.713-1.458 0-.926.806-1.739 1.578-1.927 1-.241 1.565.101 1.914.96.02.054.014.121.094.108.067-.013.06-.08.074-.134.08-.356.201-.699.524-1.02ZM43.392 29.17c.201.053.369.094.577.154-.067.242-.1.477-.195.678-.047.1-.248.222-.315.188-.108-.047-.235-.215-.229-.329 0-.221.094-.443.162-.691Zm-39.65-.967c-.135.033-.229.06-.363.094.161.644.315 1.242.477 1.866.147-.053.248-.087.342-.12-.047-.249-.08-.464-.12-.692.677-.175 1.322-.343 1.987-.51-.054-.168-.101-.29-.141-.43-.679.16-1.323.322-1.968.477-.08-.256-.147-.464-.215-.685Zm38.595.678.685.188c-.08.268-.127.53-.241.745-.06.108-.269.202-.397.181-.087-.013-.214-.221-.208-.342.007-.242.094-.49.161-.772Zm-4.552-2.19c-.1.021-.255.008-.302.075-.302.45-.813.604-1.236.886-.268.168-.45.41-.436.84.154-.061.315-.101.456-.189.262-.16.53-.329.766-.53a7.4 7.4 0 0 0 .738-.786c.047-.06.014-.194.014-.295Zm-27.477-.174c-.1.497.141.934.658 1.182.49.242 1 .457 1.531.698-.074-.12-.12-.241-.208-.309-.644-.517-1.296-1.027-1.98-1.57Zm23.985-.671c-.033.013-.067.02-.1.033l.543 1.659c.188-.665-.147-1.168-.443-1.692Zm-20.345-.235c-.51.55-.813 1.141-.705 1.887.235-.625.463-1.243.705-1.887Zm-8.857-.705c.02.288.034.577.054.866.04.497.04.497-.464.504-.053 0-.107-.014-.18-.027-.048-.39-.095-.773-.149-1.175l-.355.02c.026.342.04.644.087.94.04.255-.074.295-.289.322-.215.027-.302-.027-.309-.255a5.824 5.824 0 0 0-.08-.833c-.014-.074-.121-.134-.188-.201-.06.08-.175.161-.175.242.02.443.08.886.114 1.336.014.174.088.235.255.221.658-.06 1.316-.114 1.968-.16.168-.014.242-.081.221-.256-.047-.443-.08-.886-.12-1.336-.02-.262-.148-.322-.39-.208Zm31.922-.437c-.517.289-.705.772-.43 1.175.45-.329.611-.792.43-1.175Zm-2.74-.765c.309.718 1.115 1.074.974 1.92.356-.423-.242-1.618-.974-1.92Zm-20.648-.134c-.658.288-1.195 1.403-.933 2 .04-.805.524-1.383.933-2Zm-2.49.819c-.088.416.093.826.47 1.087.033-.355-.169-.819-.47-1.087Zm12.176-2.431c-.597.114-1.154.134-1.718.027-.141-.027-.242.047-.31.154a7.946 7.946 0 0 0-.839 2.156c-.1.45-.033.503.423.436.04-.007.08-.027.121-.04.772-.208 1.242-.786 1.672-1.39a4.54 4.54 0 0 0 .651-1.343Zm19.376.82c-.06 0-.168.12-.168.187 0 .443.013.893.047 1.336.006.068.134.121.208.175.054-.067.14-.134.148-.201.013-.188-.007-.376-.014-.571-.013-.477-.013-.47.45-.49.517-.02 1.034-.047 1.551-.068v-.376c-.752 0-1.49-.006-2.222.007Zm-37.14-1.25c-.375.229-.731.437-1.087.652-.02-.068-.04-.128-.06-.188-.121-.303-.35-.423-.659-.41-.322.013-.543.181-.59.497-.068.47-.095.947-.142 1.45.84.054 1.632.108 2.438.168.013-.168.027-.295.04-.45-.356-.033-.671-.067-.98-.094-.067-.315.06-.503.302-.638.154-.087.302-.194.47-.262.262-.134.37-.335.269-.725Zm28.787-1.678c.08.154.134.275.201.389.242.39.49.772.725 1.162.363.61.598 1.249.423 1.974-.013.08.014.174.02.262.571-1.404-.053-3.123-1.37-3.787Zm-20.393-.195c-.544.342-1.04.759-1.39 1.31-.544.859-.168 1.745-.094 2.625l.12.02c.041-.148.115-.296.122-.443a6.808 6.808 0 0 0-.014-.907c-.06-.671.182-1.222.638-1.705.175-.188.35-.376.524-.571.067-.074.12-.161.181-.249-.027-.026-.06-.053-.087-.08Zm-10.059 2.43c.094.027.209.148.222.242.034.242.013.484.013.846-.282-.08-.624-.107-.637-.188-.04-.262.02-.544.087-.812.013-.054.221-.114.315-.087Zm23.955-1.92c-.416.014-.712.255-.98.544-.094.107.1.235.02.342-.114.162-.148-.2-.275-.06a.56.56 0 0 0-.054.08c-.074.169-.161.336-.222.511-.073.228.074.37.31.329.677-.107 1.188-.457 1.584-1.02.114-.169.148-.343.094-.49-.067-.196-.269-.256-.477-.236Zm14.178-.9c-.013.41 0 .464.269.49.309.027.423.189.436.47.007.121.034.242.067.363.047.175.014.31-.168.376-.322.128-.308.35-.174.658.671-.436 1.316-.86 1.967-1.262.175-.108.208-.228.175-.416-.034-.195-.134-.256-.309-.282-.322-.047-.638-.121-.954-.175l-1.309-.222Zm-18.643 1.028a.69.69 0 0 0-.557.235c-.068.074.06.094.087.147.067.175.315.229.282.518-.134-.074-.282-.101-.343-.189-.247-.362-.445-.221-.64-.043l-.098.09c-.027.02-.06.04-.074.068-.087.168-.235.335.12.403.31.06.612.087.914.013.47-.107.692-.463.598-.933-.027-.141-.074-.303-.29-.31Zm-2.337-4.667c-.04.678.51 1.41 1.081 1.632.269.1.108.275.135.416.033.181-.128.134-.229.141-.208.013-.416-.02-.618.087-1.141.598-1.188 2.062-.382 2.955.235.255.396.215.597-.014.108-.12.235-.248.383-.315.255-.121.262-.316.262-.544-.007-.416.181-.873.732-.987.201-.04.383-.034.584.007.188.04.416.14.45-.262a7.298 7.298 0 0 1 .309-1.645c.074-.235.262-.49.074-.752-.215-.303-.33-.645-.45-1.001-.114.289-.31.49-.544.665-.363.268-.766.094-1.027-.249a.711.711 0 0 1 .08-.933c.08-.08.161-.242.289-.134.1.087-.047.188-.087.282-.04.1-.088.201-.081.315.02.249.154.43.383.484.168.04.376-.034.456-.195.296-.564-.134-1.49-.839-1.551-.705-.06-1.51.86-1.558 1.598Zm22.014 4.27c.343.054.625.095.907.135.006.033.013.06.02.087-.235.148-.477.296-.772.477-.054-.242-.094-.437-.155-.698Zm-5.962-1.457c-.417.518-.558 1.726-.262 2.142.503-.597.63-1.604.262-2.142Zm-26-.094c-.288.78.148 1.41.282 2.163.242-.726.114-1.672-.282-2.163Zm-7.252-.255c-.033.155-.053.269-.08.41.517.127 1.014.248 1.504.37-.484.234-.96.416-1.45.557-.296.087-.39.255-.37.57.725.168 1.45.343 2.183.49.288.054.188-.201.228-.376-.517-.127-.994-.248-1.47-.362.483-.228.953-.41 1.43-.544.295-.087.389-.255.355-.578-.758-.174-1.53-.355-2.33-.537Zm23.525 1.209c-.396.094-.577.403-.496.873.483-.168.953-.43 1.497-.188-.134-.504-.57-.786-1-.685Zm-4.64.47c-.04.06-.1.128-.02.208.054.054.128.087.182.054.309-.202.644-.208.994-.195.053 0 .114.007.127-.067a.131.131 0 0 0-.06-.148c-.168-.114-.336-.235-.564-.181-.296-.06-.497.087-.658.329Zm20.517-4.264c-.785.289-1.53.557-2.296.84.06.16.107.295.154.43.336-.122.631-.222.94-.33.182.235.168.443.02.645-.12.174-.228.356-.376.517-.235.262-.147.483.04.772.256-.37.49-.705.733-1.054.02.02.067.054.1.094.229.268.51.309.813.154.302-.147.423-.41.329-.725-.128-.443-.296-.88-.457-1.343Zm-30.014.396c-1.162 1.672-1.256 1.88-1.135 2.337.248-.37.517-.772.792-1.168.235-.336.423-.685.343-1.169Zm19.935.316c-.134.59.679 1.45 1.659 1.974.175-.658-.598-1.611-1.659-1.974Zm1.68-.463c-.115.617.59 1.954 1.1 2.276.04-.007.08-.02.114-.027-.053-.248-.06-.517-.167-.739-.168-.342-.403-.65-.618-.967-.114-.167-.249-.315-.43-.543Zm-19.83.147c-.046.014-.1.014-.127.034-.51.43-1.047.833-1.517 1.296-.162.161-.168.49-.242.738.806-.396 1.719-1.457 1.887-2.068Zm28.014.255c.148.222.208.504.255.773.014.067-.154.228-.255.241-.1.014-.268-.06-.322-.154-.114-.201-.181-.436-.309-.745.255-.054.584-.175.631-.115Zm-16.219-1.423c-.456.168-.671.584-.953.913-.135.161-.383.37-.256.598.106.182.335.225.557.229h.162c.651-.061 1.202-.31 1.551-.894.235-.39.067-.82-.376-.9a1.265 1.265 0 0 0-.685.054ZM5.79 13.369c-.268.59-.026 1.168.632 1.524.624.343 1.228.228 1.57-.289.323-.496.27-.98-.167-1.302-.087.087-.175.168-.282.268.06.094.127.161.134.229.014.188.074.423-.02.557-.1.148-.376.309-.51.262-.336-.108-.685-.275-.934-.524-.288-.282-.073-.826.336-.88.309-.04.316-.208.336-.423-.43-.16-.86.074-1.095.578Zm35.796-.967c-.12.067-.214.114-.322.175.114.221.222.416.343.644-.598.35-1.182.692-1.78 1.034.094.141.161.255.242.383.59-.336 1.168-.671 1.773-1.014.14.215.261.41.396.625.107-.081.194-.141.295-.215-.322-.558-.624-1.081-.947-1.632Zm-10.85.477c.02.456.18.644.543.725l.094-.094c-.194-.188-.39-.383-.638-.631Zm-13.054-.31c-.383.061-.618.29-.698.686.362-.054.61-.289.698-.685Zm-9.918-1.772c.39.698.793 1.39 1.196 2.095.268-.181.382-.37.154-.638-.14-.16-.1-.295.034-.436a3.03 3.03 0 0 0 .295-.363c.121-.181.262-.221.457-.127.288.14.45 0 .564-.31-.793-.241-1.571-.496-2.357-.718-.208-.06-.457.296-.343.497Zm23.133 1.135c.18.463.53.712.993.893.02-.443-.476-.893-.993-.893Zm-14.175.181c-.37.014-.645.229-.752.591.39-.02.671-.242.752-.59ZM39.43 9.61c-.625.503-1.236 1.007-1.873 1.517.1.121.188.215.275.316.416-.33.799-.638 1.182-.94a7.008 7.008 0 0 1-.423 1.417c-.135.308-.068.503.221.684.618-.496 1.236-1 1.874-1.517-.115-.128-.195-.215-.282-.316-.423.33-.82.645-1.216.967l-.06-.04c.168-.484.315-.967.51-1.437.121-.295.047-.483-.208-.651ZM8.354 10.817c.269.088.544.182.86.289-.148.195-.275.356-.443.57-.182-.301-.336-.55-.49-.805.026-.02.053-.034.073-.054Zm2.236-3.156c-.342.262-.658.551-1.02.86.557.638 1.074 1.235 1.611 1.853.128-.12.229-.215.33-.315-.229-.276-.437-.517-.639-.76.182-.254.39-.308.645-.234l.35.082c.057.016.113.034.167.059.33.154.55.027.759-.289-.423-.107-.826-.208-1.242-.309.013-.033.026-.074.047-.114.154-.356.107-.618-.155-.846-.262-.228-.53-.235-.853.013Zm26.228-.523c-.537.638-1.048 1.249-1.578 1.873.43.356.82.672 1.195 1.007.208.188.323.141.437-.134a43.862 43.862 0 0 0-.578-.483c-.483-.417-.483-.417.034-.907.315.255.61.504.933.766.087-.108.155-.195.228-.29-.315-.275-.61-.523-.926-.798.134-.155.248-.282.376-.437.349.289.671.558 1.014.84.087-.108.154-.188.235-.29-.464-.389-.9-.758-1.37-1.147Zm-25.65.96c.067.074.06.302-.007.396-.14.188-.342.33-.544.517a39.773 39.773 0 0 0-.436-.504c.208-.174.383-.362.59-.483.095-.054.323-.013.397.074Zm1.43-1.981-.37.282c.464.685.907 1.343 1.364 2.014.134-.094.242-.174.376-.268-.457-.672-.9-1.33-1.37-2.028Zm20.413-.013c-.376.65-.269 1.255.288 1.618.464.302.974.235 1.276-.181-.087-.088-.174-.175-.275-.282-.262.194-.537.335-.786.114-.14-.128-.288-.41-.241-.558.094-.315.268-.638.503-.873.302-.295.86-.087.907.336.033.296.188.33.403.356.18-.423-.04-.86-.53-1.108-.585-.289-1.183-.067-1.545.578Zm-17.962-1.35c-.403.154-.786.363-1.215.57.369.753.718 1.465 1.08 2.21.464-.242.9-.443 1.31-.685.295-.175.396-.537.208-.82-.127-.194-.362-.315-.584-.503.087-.597-.255-.98-.8-.772Zm.712 1.269c.06-.013.221.154.241.255.02.1-.06.269-.147.33-.188.14-.417.234-.685.369-.094-.182-.175-.323-.242-.477-.02-.054-.02-.168.007-.175.268-.114.544-.235.826-.302Zm2.417-2.498c-.376.1-.745.228-1.155.356.242.772.477 1.531.719 2.343.49-.16.94-.282 1.376-.456.403-.161.544-.611.309-.94-.114-.161-.316-.255-.49-.396.154-.215.194-.464.006-.719-.201-.268-.483-.262-.765-.188Zm-2.753 1.76c.04.093-.013.295-.094.362-.168.141-.383.222-.618.35-.1-.175-.188-.337-.295-.538.241-.114.443-.242.665-.302.1-.027.308.047.342.127Zm12.02-2.317c-.041-.014-.169.074-.182.127-.168.726-.316 1.458-.484 2.21.155.033.27.053.41.087.128-.51.235-1 .343-1.484h.073c.182.504.343 1.014.558 1.504.053.128.255.188.39.282.066-.1.167-.188.194-.295.114-.444.208-.893.295-1.343.047-.235.088-.477.128-.726-.148-.033-.255-.053-.39-.08-.114.51-.228 1-.342 1.484a.76.76 0 0 1-.195-.31c-.154-.422-.288-.845-.463-1.255-.04-.1-.215-.16-.336-.201ZM18.64 4.84c.128-.006.336.121.37.235.033.108-.108.269-.188.396-.034.047-.121.054-.182.074-.617.202-.644.182-.725-.523.249-.068.484-.168.725-.182Zm3.371-2.081c-.53.06-1.047.14-1.591.215.107.765.201 1.497.315 2.222.014.067.135.175.195.168.544-.06 1.081-.141 1.605-.215.074-.295-.007-.396-.275-.349-.35.06-.699.094-1.082.141-.04-.248-.067-.45-.1-.685l1.202-.188c.047-.329-.074-.39-.343-.336-.289.06-.59.088-.913.128-.02-.215-.04-.383-.06-.57.389-.061.731-.102 1.067-.169.08-.013.135-.134.202-.201-.074-.054-.155-.168-.222-.161Zm2.397.04c-.329.752-.644 1.504-.967 2.256.31.094.51.067.618-.268.034-.101.215-.182.342-.215.148-.034.31.006.47-.007.209-.013.343.067.383.275.06.323.262.376.591.282-.282-.779-.557-1.55-.846-2.323-.067-.181-.51-.181-.59 0ZM18.3 3.908c.1-.014.289.094.302.168.02.107-.047.295-.134.356-.161.107-.39.221-.558.18-.14-.033-.241-.268-.416-.49.356-.1.578-.187.806-.214Zm6.426-.598c.094.262.188.517.295.833h-.705c.114-.296.222-.557.33-.826.026 0 .053-.007.08-.007Z"/>
</svg>
