<svg>
  <path d="M23.995 2a52.366 52.366 0 0 1 19.786 3.78 34.125 34.125 0 0 0-.915 3.555l.003-.013.016.05c-1.043 5.098-.736 10.044.937 15.848l.178.603c-2.727 7.172-7.55 13.388-13.86 17.865l-.019.018A30.081 30.081 0 0 1 23.995 47C15.282 43.562 7.64 35.354 4 25.823c2.203-7.407 2.295-13.41.174-20.006.621-.243 1.216-.477 1.828-.693l-.022.007a52.428 52.428 0 0 1 17.248-3.127Zm-4.818 11.223h-6.4v1.314c.85 0 1.161.225 1.161 1.251v9.225c0 .191.077.374.215.51a.74.74 0 0 0 .517.21h4.873c3.154 0 4.279-1.179 4.279-3.177 0-1.8-1.015-2.853-3.3-3.069h.017v-.072c1.628-.216 2.862-.9 2.862-2.799 0-2.349-1.892-3.393-4.224-3.393Zm15.305 0H25.34a.747.747 0 0 0-.499.197.724.724 0 0 0-.232.478l-.174 2.862h1.582c.402-1.548.512-2.097 1.719-2.097h.53v11.07h3.337v-11.07h.521c1.207 0 1.317.55 1.72 2.097h1.59l-.183-2.862h-.045a.706.706 0 0 0-.224-.48.729.729 0 0 0-.499-.195Zm-15.972 6.93c1.261 0 1.828.612 1.828 2.133 0 1.728-.63 2.124-1.965 2.124h-1.08v-4.257h1.217Zm-.503-5.49c1.298 0 1.828.513 1.828 2.043 0 1.72-.475 2.061-1.755 2.061h-.805v-4.104h.732Z"/>
</svg>
