<svg>
  <path d="M38.725 17.314c-.02.029-.176.079-.352.1-.704.1-1.605.693-2.007 1.322-.5.793-.5.793-.5 5.343 0 3.921.007 4.092.148 4.535.437 1.386 1.627 2.136 3.38 2.136.705 0 1.19-.107 1.733-.371.542-.272 1.091-.836 1.338-1.393.169-.379.19-.507.218-1.543l.028-1.122h-1.986v.736c0 .622-.02.786-.155 1.05a1.724 1.724 0 0 1-.345.45c-.394.293-1.21.286-1.605 0a1.576 1.576 0 0 1-.338-.45l-.162-.314V24c0-3.521.014-3.807.134-4.071.176-.386.345-.529.788-.643.662-.179 1.275.078 1.543.643.112.235.14.442.14 1.057v.764h1.986l-.028-1.164c-.021-1.086-.035-1.186-.218-1.557a3.622 3.622 0 0 0-.472-.722c-.317-.364-1.092-.814-1.535-.886-.17-.028-.317-.078-.338-.107-.05-.085-1.345-.085-1.395 0Zm-37.14.207c-.07.05-.085.743-.07 3.236l.02 3.172h3.162l-.007-.679-.014-.736c-.007-.028-.33-.05-.732-.05-.472 0-.754-.028-.81-.085-.134-.136-.12-3.158.014-3.265.063-.057.57-.078 1.669-.064l1.577.021.021 1.622.015 1.628h1.549v-2.385c0-2.107-.014-2.393-.113-2.429-.169-.064-6.176-.05-6.281.014Zm8.176-.007c-.064.022-.092.25-.092.779v.743h1.556l-.02-.772-.022-.764-.669-.007c-.366-.007-.711 0-.753.021Zm3.197-.007c-.028.029-.05.386-.05.793v.736h1.557l-.021-.772-.021-.764-.712-.021c-.387-.008-.725 0-.753.028Zm6.19.022c-.021.035-.035 2.985-.021 6.55l.014 6.492 2.134.022c1.964.014 2.176.007 2.612-.129 1.198-.357 1.817-1.235 1.986-2.821.113-1.064-.042-2.093-.394-2.679a2.61 2.61 0 0 0-1-.885c-.17-.072-.303-.158-.303-.179 0-.021.176-.136.394-.25.888-.471 1.38-1.7 1.268-3.179-.127-1.742-.76-2.607-2.134-2.9-.542-.121-4.493-.157-4.556-.042Zm3.901 1.957c.451.307.528.535.528 1.621 0 .9-.014.986-.176 1.279-.295.521-.464.607-1.281.635-.535.022-.726.008-.768-.071-.07-.107-.084-3.507-.014-3.579.021-.028.366-.05.76-.05.627 0 .747.022.951.165Zm-.042 5.571c.17.093.338.279.437.457.302.593.288 2.029-.029 2.65-.07.143-.239.336-.366.422-.204.143-.324.164-.95.164-.599 0-.733-.021-.768-.114-.056-.15-.056-3.636.007-3.693.021-.029.345-.05.718-.05.57 0 .719.028.951.164Zm4.55-1.028v6.578h2.181l.015-2.664.02-2.657.508-.022c.507-.021.507-.021.556.179.021.107.085.343.134.521.113.393.303 1.086.387 1.429.035.136.148.557.247.928.098.372.225.872.288 1.108.064.235.162.6.219.8l.105.378h1.106c.613 0 1.127-.014 1.148-.036.014-.021-.17-.721-.423-1.55a534.7 534.7 0 0 1-.549-1.878A46.72 46.72 0 0 0 33.162 26c-.366-1.236-.366-1.257-.218-1.336.077-.043.317-.257.535-.478.296-.307.436-.522.577-.9.423-1.172.444-2.679.043-3.822-.247-.678-.606-1.143-1.17-1.493-.683-.421-.908-.457-3.239-.492l-2.134-.029v6.579Zm3.478-4.636c.74.171 1.099.85 1.099 2.071 0 .95-.233 1.615-.67 1.915-.203.15-.295.157-.957.142l-.732-.021-.021-2c-.015-1.814-.008-2.007.105-2.093.141-.1.775-.114 1.176-.014Zm13.247-1.843c-.021.05-.028 3-.021 6.557l.02 6.464 1.113.022 1.106.021v-13.15h-1.092c-.81 0-1.105.022-1.126.086Zm-32.993 2.343v.786h1.556l-.021-.772-.021-.764-.754-.022-.76-.021v.793Zm-1.62 1.678v.75h1.549v-1.5H9.67v.75Zm3.24 0v.75h1.549v-1.5h-1.55v.75Zm-4.86 1.643v.75H9.6v-1.5H8.05v.75Zm-1.62 1.643v.757l.761-.021.754-.022.02-.735.022-.729H6.43v.75Zm3.24 0v.75l1.606.014 1.598.022V29h-3.24l-.02-.807-.021-.8H8.049l.014 1.586.022 1.592h6.338l.02-3.235.015-3.229H9.669v.75Zm-8.14.986c-.022.057-.029.386-.015.736l.021.635.76.022.754.021V25.75h-.74c-.555 0-.753.021-.78.093Zm3.28.657v.757l.761-.021.754-.022.021-.571c.035-.929.07-.893-.796-.893h-.74v.75Zm-1.605 1.657.021.772.726.021.718.021v-1.578H3.183l.021.764Zm-1.655.929c-.028.021-.049.357-.049.743 0 .564.021.7.113.735.063.022.408.043.774.043h.662v-1.571h-.725c-.401 0-.754.021-.775.05Zm3.275.714.021.771h1.479v-1.5l-.76-.021-.761-.021.02.771Z"/>
</svg>
