<svg>
  <path d="M34.22 30.473c.314.232.385.69.157 1.009-2.35 3.301-6.14 5.268-10.137 5.268-3.997 0-7.787-1.967-10.138-5.268a.735.735 0 0 1 .157-1.01.705.705 0 0 1 .99.16c2.088 2.925 5.443 4.674 8.99 4.674 3.549 0 6.904-1.749 8.991-4.673a.706.706 0 0 1 .99-.16Zm-9.98-16.48c5.421 0 9.831 4.492 9.831 10.014 0 5.523-4.41 10.014-9.831 10.014-5.421-.007-9.831-4.499-9.831-10.021 0-5.522 4.41-10.007 9.831-10.007Zm0 1.444c-4.638 0-8.406 3.846-8.406 8.563 0 4.717 3.775 8.563 8.406 8.563 4.63 0 8.406-3.846 8.406-8.563 0-4.717-3.775-8.563-8.406-8.563Zm0 .784a.72.72 0 0 1 .712.726v.675c.98.204 1.844.827 2.351 1.726a.73.73 0 0 1-.263.987.697.697 0 0 1-.97-.268 2.115 2.115 0 0 0-1.117-.95v1.625a.721.721 0 0 1-.713.725.732.732 0 0 1-.712-.733v-1.612a2.145 2.145 0 0 0-1.383 2.012c0 1.175.948 2.14 2.102 2.14 1.945 0 3.526 1.611 3.526 3.592 0 1.735-1.213 3.187-2.82 3.52v.667c0 .4-.321.726-.713.726a.721.721 0 0 1-.712-.726l-.001-.67a3.539 3.539 0 0 1-2.358-1.753.732.732 0 0 1 .271-.987.705.705 0 0 1 .97.276c.248.454.65.793 1.117.966v-2.004c0-.4.321-.726.713-.726.392 0 .712.327.712.726v2.009a2.145 2.145 0 0 0 1.397-2.016c0-1.176-.948-2.141-2.102-2.141-1.945 0-3.526-1.611-3.526-3.592 0-1.73 1.206-3.178 2.807-3.517v-.677c0-.4.32-.726.712-.726Zm0-4.971c3.996 0 7.786 1.967 10.137 5.268a.736.736 0 0 1-.156 1.009.706.706 0 0 1-.99-.16c-2.088-2.924-5.443-4.673-8.991-4.673s-6.903 1.749-8.99 4.673a.698.698 0 0 1-.991.16.736.736 0 0 1-.157-1.009c2.351-3.301 6.141-5.268 10.138-5.268ZM44.4 21.772l1.86 1.684a.726.726 0 0 1 .09.982.738.738 0 0 1-.234.202l-1.745 1.58a.699.699 0 0 1-.47.182l-.007.007a.693.693 0 0 1-.527-.24.733.733 0 0 1 .057-1.022l.462-.422h-6.838a.721.721 0 0 1-.712-.725c0-.4.32-.726.712-.726h6.868l-.464-.42a.733.733 0 0 1-.057-1.024.701.701 0 0 1 1.005-.058Zm-1.403-5.37 1.859 1.684.01.01a.73.73 0 0 1 .036.035l-.046-.045c.22.196.3.515.192.798a.735.735 0 0 1-.335.385L42.97 20.85a.698.698 0 0 1-.47.181l-.007.007a.693.693 0 0 1-.527-.24.733.733 0 0 1 .057-1.022l.469-.429h-6.846a.721.721 0 0 1-.712-.725c0-.4.32-.726.712-.726h6.861l-.456-.413a.733.733 0 0 1-.057-1.024.695.695 0 0 1 1.005-.058Zm-.029 10.74 1.75 1.591a.73.73 0 0 1 .142 1.17l-1.863 1.687a.698.698 0 0 1-.47.182l-.008.007a.693.693 0 0 1-.527-.24.733.733 0 0 1 .057-1.023l.463-.421h-6.868a.721.721 0 0 1-.712-.725c0-.4.32-.726.712-.726h6.838l-.461-.42a.733.733 0 0 1-.057-1.024.701.701 0 0 1 1.004-.058Zm-38.37-5.304a.733.733 0 0 1-.057 1.023l-.457.413h6.861c.392 0 .713.327.713.726 0 .4-.32.726-.713.726L4.1 24.725l.47.429c.292.268.32.718.057 1.023a.704.704 0 0 1-.527.24.73.73 0 0 1-.47-.19l-1.758-1.59a.73.73 0 0 1-.151-1.161l.014-.013 1.86-1.684a.702.702 0 0 1 1.004.059Zm1.41-5.37a.733.733 0 0 1-.056 1.023l-.449.406h6.846c.392 0 .712.327.712.726a.72.72 0 0 1-.712.725H5.503l.478.436c.292.268.32.718.057 1.023a.704.704 0 0 1-.527.24.733.733 0 0 1-.477-.19L3.275 19.26a.73.73 0 0 1-.035-1.253l1.765-1.597a.702.702 0 0 1 1.005.058Zm.022 10.74a.733.733 0 0 1-.057 1.023l-.456.413h6.832c.392 0 .712.327.712.726 0 .4-.32.726-.712.726l-6.876-.001.471.429c.292.268.32.718.057 1.023a.704.704 0 0 1-.527.24.733.733 0 0 1-.477-.19l-1.86-1.683a.73.73 0 0 1 .05-1.123l.021-.016a.545.545 0 0 1 .048-.031l.024-.013 1.745-1.582a.702.702 0 0 1 1.005.058Z"/>
</svg>
