<svg>
  <path d="M1.61 18.432h8.04c1.34 0 2.368.332 3.086.996.717.663 1.076 1.485 1.076 2.465 0 .822-.256 1.526-.768 2.114-.341.392-.84.702-1.498.93.999.24 1.733.652 2.204 1.237.471.585.707 1.32.707 2.204 0 .721-.168 1.369-.503 1.944a3.7 3.7 0 0 1-1.375 1.366c-.36.208-.903.36-1.63.455-.968.126-1.61.19-1.925.19H1.609v-13.9Zm4.332 5.452H7.81c.67 0 1.136-.115 1.399-.346.262-.23.393-.564.393-1 0-.405-.131-.72-.393-.948-.263-.228-.72-.342-1.37-.342H5.942v2.636Zm0 5.462h2.19c.74 0 1.262-.132 1.565-.394.303-.262.455-.615.455-1.057 0-.411-.15-.741-.45-.991-.3-.25-.827-.375-1.579-.375h-2.18v2.817Zm10.79-10.914h4.011l5.234 7.69v-7.69h4.049v13.9h-4.049L20.772 24.7v7.632h-4.04v-13.9Zm16.205 13.9v-13.9h7.158c1.328 0 2.342.114 3.044.341a3.24 3.24 0 0 1 1.697 1.266c.43.617.645 1.367.645 2.252 0 .771-.165 1.437-.493 1.996a3.855 3.855 0 0 1-1.356 1.36c-.367.222-.87.405-1.508.55.512.171.885.342 1.12.513.157.113.386.357.687.73.3.373.5.66.602.863l2.076 4.03h-4.854l-2.295-4.249c-.29-.55-.55-.907-.778-1.071a1.802 1.802 0 0 0-1.052-.322h-.38v5.641h-4.313Zm4.314-8.268h1.81c.197 0 .576-.063 1.139-.19a1.13 1.13 0 0 0 .696-.436c.18-.233.27-.502.27-.805 0-.45-.142-.794-.426-1.034-.284-.24-.819-.36-1.602-.36H37.25v2.825Z"/>
</svg>
