<svg>
  <path d="M42.471 12.896c.811.152 2.156.597 2.677.885l.388.214v4.793h-.688l-.098-.59c-.136-.813-.516-1.954-.856-2.57-1.985-3.596-6.453-2.385-6.464 1.751-.005 1.997.733 2.868 3.761 4.435 4.143 2.145 5.309 3.784 5.309 7.464 0 3.124-1.187 5.04-3.53 5.696-1.63.456-4.902.06-6.752-.816l-.49-.232-.045.97h-6.828l-.023-.49-.023-.492h1.124c.618 0 1.143-.03 1.165-.067.01-.015-.002-.113-.028-.266l-.022-.125a20.867 20.867 0 0 0-.179-.846l-.552-2.389a148.82 148.82 0 0 1-.448-2.004l-.168-.785-2.567-.021-2.567-.02-.16.61c-.146.562-.387 1.5-.632 2.463l-.07.275c-.397 1.56-.785 3.098-.785 3.125 0 .028.526.05 1.168.05h1.167l-.023.491-.023.491-11.056.04v-1.018l1.145-.021 1.144-.022.02-9.347.002-1.762v-1.824c-.003-3.366-.021-5.717-.049-5.686-.036.04-.266.817-.511 1.725l-.114.418-.077.284c-.193.712-.384 1.41-.475 1.734-.53 1.89-1.112 3.996-1.978 7.15a2111.928 2111.928 0 0 1-2.099 7.603l-.3 1.08h-.72l-.16-.57a482.89 482.89 0 0 1-.263-.937l-.07-.25-.1-.365a7789.571 7789.571 0 0 0-2.412-8.657l-.092-.329-.221-.796c-.915-3.29-1.096-3.94-1.276-4.576l-.02-.072-.021-.073a294.018 294.018 0 0 1-.663-2.39c-.218-.8-.427-1.525-.465-1.612-.03-.07-.051 2.421-.054 6.216v3.331l.015 9.705 1.148.022 1.148.022-.023.488-.023.49H1.546l-.046-.978.876-.022.877-.022.02-9.881.02-9.881H1.5l.023-.491.023-.492 2.502-.02.972-.006h.523c.61.002 1.007.01 1.007.02 0 .02.179.684.397 1.475.218.792.476 1.74.573 2.107.098.367.306 1.127.462 1.69.156.561.418 1.516.582 2.12.164.606.725 2.657 1.246 4.558l.043.159.086.316c.475 1.737.923 3.384 1.03 3.791.196.752.391 1.182.391.865 0-.07.138-.616.306-1.214.41-1.463 1.297-4.692 1.528-5.567.103-.389.272-1.008.376-1.375.104-.367.349-1.251.545-1.964.195-.714.44-1.598.542-1.965.125-.447.387-1.395.643-2.329l.077-.279c.28-1.018.536-1.955.58-2.126l.077-.295h4.87v1.022h-1.941l.02 9.88.02 9.882 1.366.021c1.507.024 1.465.037 1.6-.493.044-.172.366-1.41.716-2.75a2864.257 2864.257 0 0 0 1.275-4.906l.106-.407.589-2.27c.87-3.33 1.1-4.22 1.262-4.871.092-.367.384-1.505.681-2.653l.072-.275.035-.137.603-2.318.864-.022c.774-.02.87-.007.908.118.024.077.146.6.273 1.161.034.153.066.297.1.443l.024.11c.168.739.369 1.61.935 4.064.152.659.43 1.87.617 2.691.187.821.483 2.112.658 2.868.175.756.42 1.817.543 2.357l.544 2.358c.524 2.26.854 3.698.988 4.304.148.673.128.663 1.184.63l.737-.023.02-2.77.02-2.77h.675l.133.875c.46 3.034 1.748 4.786 3.801 5.168 2.549.475 4.34-1.226 4.336-4.118-.003-2.278-.87-3.34-4.105-5.029-3.464-1.807-4.637-3.202-4.92-5.854-.487-4.537 2.433-7.309 6.828-6.481Zm-15.226 4.33c-.023.038-.257.918-.52 1.955a104.995 104.995 0 0 1-.584 2.24c-.059.194-.27.99-.47 1.767l-.148.577-.078.298c-.142.546-.28 1.071-.36 1.365a15.46 15.46 0 0 0-.225.884c0 .031.967.057 2.173.059h2.417l-.052-.256a40.21 40.21 0 0 0-.243-1.04c-.105-.433-.293-1.246-.417-1.808-.125-.562-.403-1.782-.62-2.711-.217-.93-.466-2.025-.555-2.436-.17-.786-.25-1.008-.318-.894Z"/>
</svg>
