<svg>
  <path d="m22.218 1.5.09 4.074c.034 1.22.05 2.337.05 3.102v.25c0 .471-.007.76-.019.783-.03.062-1.027-.275-2.265-.735-3.02-1.133-6.795-1.225-8.456-.183-2.447 1.562-3.262 5.82-2.114 11.425 1.178 5.851 4.862 11.671 10.812 17.124 1.117 1.041 2.446 2.083 2.929 2.328.846.46.936.429 2.476-.643 2.175-1.501 6.584-6.219 8.487-9.037 2.99-4.442 4.168-7.321 4.711-11.824.634-5.024-.362-8.27-2.96-9.619-1.45-.765-5.285-.55-7.852.43-1.178.428-2.235.796-2.355.796-.088 0-.128-.977-.132-2.362v-.364c0-.415.005-.858.01-1.318l.091-4.074 4.53-.061 4.53-.092 5.89 2.849c3.231 1.593 5.859 3.002 5.83 3.155 0 .153-1.36 5.636-3.022 12.192l-2.96 11.946-6.04 5.514-.322.297-.648.598-.324.3-.486.447c-2.748 2.535-5.364 4.95-6.283 5.832-1.116 1.042-2.205 1.9-2.416 1.87-.211 0-1.6-1.164-3.11-2.543-.96-.913-2.82-2.637-4.8-4.471l-.34-.315-.513-.476-.513-.476-.341-.316c-.51-.473-1.014-.94-1.497-1.39-3.654-3.369-5.345-5.145-5.527-5.758C6.574 27.72 1.44 7.167 1.501 7.136c.03-.03 2.718-1.286 5.98-2.848L13.4 1.5h8.818Z"/>
</svg>
