<svg>
  <path d="M7.942 18.908v-5.76c.05-.008.096-.023.142-.023 1.111 0 2.22 0 3.33.004.274 0 .54.055.792.17.662.304.974 1.054.725 1.739a1.205 1.205 0 0 1-.593.675l-.233.115.229.084c.597.214.918.635.947 1.27.02.475-.126.892-.472 1.232-.238.234-.532.36-.857.398a11.99 11.99 0 0 1-1.167.092c-.865.015-1.73.004-2.596.004h-.247Zm1.802-1.25c.409 0 .798.003 1.186-.005a.665.665 0 0 0 .258-.075.54.54 0 0 0 .308-.547.505.505 0 0 0-.357-.47.682.682 0 0 0-.203-.046c-.375-.012-.752-.017-1.127-.023-.019 0-.038.015-.067.025.002.371.002.744.002 1.14Zm-.002-2.268c.34 0 .654.004.966-.002a.846.846 0 0 0 .245-.055.444.444 0 0 0 .29-.31c.106-.356-.072-.65-.437-.714a1.39 1.39 0 0 0-.21-.017c-.23-.002-.46-.002-.69 0-.053 0-.108.013-.164.019v1.08Zm-.252 9.268a815.3 815.3 0 0 1 1.522.46c-.072.824-.771 1.641-1.601 1.874a3.806 3.806 0 0 1-1.35.111 5.02 5.02 0 0 1-.64-.088c-.981-.207-1.568-.853-1.855-1.77-.239-.763-.224-1.547.004-2.314.247-.836.8-1.397 1.639-1.649a3.91 3.91 0 0 1 2.21-.015c.83.233 1.28.84 1.561 1.65-.528.119-1.035.232-1.552.35-.023-.049-.049-.089-.065-.133-.189-.45-.524-.676-1.006-.672-.48.004-.847.251-1.02.693-.139.352-.162.723-.14 1.092.014.27.05.543.114.805.105.412.388.655.813.71.692.088 1.014-.203 1.203-.643.059-.14.103-.287.163-.461Zm18.35-9.36v-.534c.16-.049 1.162-.061 1.485-.023v5.753h-1.599l-.004-.955v-.985c-.052.027-.09.038-.12.06-1.043.816-2.451.349-2.78-.932-.182-.708-.145-1.412.163-2.087.422-.92 1.358-1.112 2.069-.87.194.068.362.177.509.321.081.074.165.147.276.252Zm-1.53 1.527c.023.164.031.331.075.49.065.235.208.41.455.476.352.097.716-.113.827-.49a1.728 1.728 0 0 0-.008-1.01.66.66 0 0 0-.673-.49c-.284.01-.521.207-.6.521-.04.164-.051.332-.076.503ZM4.619 34.523c-.115.11-.195.178-.264.253-.526.585-1.84.637-2.41-.228-.38-.577-.49-1.21-.43-1.88.022-.24.066-.488.15-.714.483-1.333 1.998-1.362 2.684-.76.035.028.075.054.132.091.041-.232.014-.446.02-.66.005-.21.003-.419.003-.628v-.68c.536-.001 1.054 0 1.569 0 .046.175.059 5.446.02 5.75-.15.05-1.233.061-1.47.007-.004-.164-.004-.336-.004-.551Zm-.092-1.5c-.015-.223-.042-.437-.147-.634a.677.677 0 0 0-.696-.366c-.28.038-.448.22-.521.48a1.886 1.886 0 0 0-.007 1.012c.084.312.325.51.608.521.3.01.57-.186.666-.505.053-.163.067-.337.097-.509Zm12.211-2.283h-1.82v-1.406h5.41v1.404h-1.809c-.017.503-.006.981-.008 1.459-.002.482 0 .964 0 1.445v1.455h-1.773V30.74Zm13.148-6.73c.09-.572.394-.934.904-1.108.247-.084.515-.132.777-.155a6.618 6.618 0 0 1 1.523.04c.767.113 1.247.515 1.278 1.512.017.543.002 1.088.005 1.633 0 .182-.009.364.018.542.026.17.093.334.145.514H33.05c-.052-.139-.11-.29-.174-.455-.031.021-.062.034-.085.055-.484.44-1.073.536-1.696.507a1.783 1.783 0 0 1-.65-.143 1.167 1.167 0 0 1-.588-1.58c.099-.21.247-.381.461-.465.251-.1.511-.182.773-.25.465-.119.937-.22 1.404-.332.1-.026.195-.07.287-.103.05-.346-.088-.52-.417-.543a2.622 2.622 0 0 0-.314.002c-.277.02-.5.122-.61.398-.01.026-.03.046-.056.084-.49-.048-.981-.098-1.499-.153Zm2.888 1.02-1.092.34c-.027.009-.05.023-.075.036-.2.109-.287.28-.243.482.04.182.192.303.41.324.694.07 1.157-.467 1-1.181Zm-18.712-9.12c.093-.553.382-.918.88-1.1.202-.074.417-.118.631-.143a6.182 6.182 0 0 1 1.834.048c.7.134 1.051.562 1.131 1.312.019.18.008.363.008.545v1.464c0 .254.032.501.139.734.017.035.023.077.04.136h-.619c-.245 0-.488-.004-.733.002-.1.002-.16-.036-.19-.124-.04-.11-.076-.222-.122-.354-.046.032-.09.057-.13.09a1.88 1.88 0 0 1-1.207.466c-.277.01-.561.004-.832-.049-.463-.09-.806-.362-.926-.833-.128-.501-.004-1.107.648-1.354.316-.12.657-.18.986-.264.386-.099.772-.19 1.155-.293.086-.023.218-.023.222-.151.004-.14-.03-.281-.15-.375-.263-.202-.967-.086-1.147.188-.038.059-.067.122-.115.208-.486-.046-.987-.099-1.503-.153Zm2.907 1.016c-.382.117-.74.226-1.096.341a.591.591 0 0 0-.212.128.406.406 0 0 0 .115.675c.413.184 1.038-.1 1.163-.536.055-.187.067-.382.03-.608Zm10.74 18.169h-1.563c-.048-.15-.067-3.768-.02-4.164.48-.03.961-.006 1.47-.015v.669c.086-.086.134-.13.178-.18.465-.514 1.048-.665 1.712-.543.463.084.78.356.939.803.084.232.109.475.109.72.002.851.002 1.704 0 2.555 0 .048-.01.096-.017.155h-1.586v-.241c0-.665 0-1.327-.002-1.991 0-.105-.006-.21-.025-.312-.053-.3-.2-.444-.474-.476-.258-.03-.52.1-.612.346a1.64 1.64 0 0 0-.107.528c-.014.557-.006 1.117-.008 1.676.006.153.006.304.006.47Zm-7.019-4.176c.553 0 1.073-.003 1.613.002v2.288c0 .096 0 .197.02.291.081.421.536.595.89.348.174-.122.247-.3.276-.497a3.36 3.36 0 0 0 .036-.438c.004-.58.002-1.158.002-1.739v-.24h1.588v4.135c-.15.05-1.207.061-1.485.013v-.63c-.11.108-.174.175-.241.242-.497.501-1.1.612-1.758.445-.543-.139-.811-.537-.9-1.07a3.317 3.317 0 0 1-.039-.5c-.004-.796-.002-1.592-.002-2.389v-.261ZM19.53 18.89v-4.163c.487-.013.97-.004 1.48-.006v.607c.015.007.03.01.047.017.054-.059.11-.115.165-.174.49-.522 1.096-.637 1.767-.488.427.094.716.369.85.788.055.172.099.354.1.532.013.928.01 1.856.011 2.787 0 .033-.008.067-.014.109h-1.574c-.004-.08-.01-.153-.01-.227 0-.664 0-1.326-.002-1.99 0-.105-.009-.21-.024-.312-.044-.294-.19-.45-.44-.482-.293-.036-.553.086-.651.343a1.56 1.56 0 0 0-.1.51c-.013.572-.007 1.144-.01 1.718v.41c-.16.046-1.246.061-1.596.021Zm10.8-4.157h1.585v.235c0 .643-.002 1.284.002 1.928 0 .117.008.236.023.354.042.308.19.47.446.498.306.036.558-.094.656-.368.054-.155.086-.325.09-.49.013-.453.006-.908.006-1.363v-.798c.535-.015 1.054-.002 1.57-.008.046.171.052 3.972.006 4.178H33.26v-.593c-.113 0-.145.08-.193.13-.255.27-.55.473-.926.532a2.084 2.084 0 0 1-.872-.021c-.398-.107-.687-.346-.819-.738a2.12 2.12 0 0 1-.124-.632c-.012-.914-.006-1.83-.006-2.743 0-.027.006-.055.01-.1Zm-13.1 8.099h1.474v.65c.086-.087.134-.133.18-.181.473-.52 1.064-.662 1.735-.532.473.092.786.381.926.84.05.166.088.342.09.513.01.929.008 1.857.008 2.787 0 .021-.006.04-.016.09-.516.009-1.033.002-1.572.004-.004-.094-.012-.167-.012-.24 0-.644 0-1.285-.003-1.928 0-.12-.008-.237-.02-.354-.034-.281-.17-.442-.411-.49-.268-.057-.543.052-.658.293-.067.14-.113.304-.12.46-.018.504-.012 1.006-.016 1.51-.002.209 0 .418-.002.628 0 .033-.01.067-.02.113h-1.546c-.044-.15-.062-3.776-.016-4.163Zm-.768 2.483h-3.183a.761.761 0 0 0 .687.848c.287.025.54-.054.736-.274a.25.25 0 0 1 .234-.095c.45.047.903.086 1.354.13.012.002.023.013.05.026-.023.046-.042.096-.069.14-.367.582-.899.903-1.58.976a5.45 5.45 0 0 1-1.418-.02c-1.002-.156-1.536-.992-1.637-1.73-.04-.293-.04-.586.015-.875.17-.88.8-1.5 1.697-1.66a3.79 3.79 0 0 1 1.58.044c.813.202 1.293.732 1.467 1.545.062.301.069.607.067.945Zm-1.647-.788c-.007-.545-.308-.857-.786-.857-.434 0-.786.385-.765.857h1.55Zm27.855.783h-3.158a.759.759 0 0 0 .688.853c.287.025.54-.054.735-.276a.25.25 0 0 1 .237-.093c.45.047.903.086 1.356.13.012.002.023.013.048.028-.023.046-.042.096-.071.14-.373.589-.914.907-1.603.979a5.493 5.493 0 0 1-1.4-.026c-1.006-.157-1.536-1-1.634-1.732a2.55 2.55 0 0 1 .058-1.06c.241-.826.809-1.302 1.639-1.467a3.614 3.614 0 0 1 1.62.048c.804.207 1.278.74 1.437 1.546.05.252.048.513.065.771.006.044-.009.092-.017.16Zm-3.166-.781h1.534c.03-.505-.29-.853-.763-.86-.511-.008-.817.472-.771.86Zm.771-6.699c-.038.071-.059.122-.088.168-.354.549-.849.873-1.5.955a5.51 5.51 0 0 1-1.44 0c-1.075-.144-1.571-1.008-1.682-1.684a2.52 2.52 0 0 1 .019-.979c.197-.874.752-1.402 1.613-1.592a3.526 3.526 0 0 1 1.722.048c.803.22 1.251.773 1.406 1.578.055.28.067.565.046.882-.532.019-1.058.006-1.586.008-.53.002-1.058 0-1.586 0-.067.463.348.918.878.85a.848.848 0 0 0 .55-.276c.045-.052.09-.1.173-.094.482.048.968.09 1.475.136Zm-3.095-1.397h1.549c.027-.495-.279-.85-.738-.868-.45-.019-.792.337-.81.868Zm6.135 16.97c-.037.415.235.785.612.846.306.05.589-.01.803-.251.086-.097.172-.111.293-.099.375.044.75.07 1.125.105.076.006.15.019.241.03-.031.062-.046.106-.071.144-.333.52-.79.855-1.41.955a4.925 4.925 0 0 1-1.645-.002c-.951-.165-1.483-.985-1.584-1.71a2.584 2.584 0 0 1 .02-.915c.187-.855.718-1.387 1.56-1.597a3.473 3.473 0 0 1 1.823.046c.77.224 1.207.77 1.36 1.547.056.289.065.58.054.899-1.069.002-2.125.002-3.18.002Zm.002-.765h1.532c.034-.518-.291-.863-.775-.872-.432-.006-.817.421-.757.872Zm-31.578.769H8.558c-.017.352.149.658.438.781.327.14.656.116.918-.132a.496.496 0 0 1 .459-.146c.366.048.735.069 1.104.102.046.005.092.02.16.034-.032.06-.051.109-.08.153-.334.511-.786.838-1.398.936a4.925 4.925 0 0 1-1.645-.002c-.928-.161-1.446-.932-1.571-1.621a2.503 2.503 0 0 1 .054-1.201c.26-.83.85-1.287 1.687-1.437a3.702 3.702 0 0 1 1.517.048c.827.195 1.362.786 1.498 1.636.048.273.071.55.04.849Zm-1.635-.77c.015-.525-.289-.856-.758-.869-.486-.014-.826.438-.788.87h1.546Zm23.818 1.319c.54-.05 1.054-.099 1.572-.149.027.048.052.088.073.13.216.4.809.536 1.182.27.102-.073.167-.165.157-.3a.276.276 0 0 0-.214-.257c-.228-.063-.46-.111-.691-.164-.367-.083-.74-.146-1.098-.26a1.103 1.103 0 0 1-.767-.819c-.126-.482.052-.943.459-1.234.19-.136.402-.224.63-.27A4.858 4.858 0 0 1 37.1 30.9c.538.102.888.442 1.093.94.01.026.01.053.017.095l-1.318.13c-.054.004-.109 0-.16 0-.217-.352-.492-.47-.89-.382a.499.499 0 0 0-.155.061c-.102.063-.159.153-.148.279a.24.24 0 0 0 .19.224c.183.048.367.086.551.117.323.059.648.105.968.166.122.023.241.069.357.117.995.426.963 1.584.255 2.13a1.766 1.766 0 0 1-.716.33 4.72 4.72 0 0 1-2.138-.033c-.57-.139-.92-.516-1.083-1.117Zm-11.558-9.964v-1.167h.576v-.777c.528-.27 1.042-.534 1.584-.81.04.196.017.366.021.536.005.167 0 .335 0 .502v.539h.885c.01.394.01.767-.002 1.16h-.862c-.008.08-.018.139-.02.2-.003.44-.005.88 0 1.32.004.425.144.538.559.452.082-.016.161-.04.266-.065.04.365.08.715.12 1.09-.166.031-.321.067-.476.086-.417.052-.834.077-1.251-.015-.394-.086-.648-.329-.734-.718a3.872 3.872 0 0 1-.081-.746c-.013-.447-.004-.895-.004-1.341v-.248c-.197.002-.378.002-.58.002Zm13.062-2.757h1.57v5.733c-.153.042-1.26.056-1.561.019-.044-.147-.055-5.505-.009-5.752Zm-6.397 2.84c-.104-.032-.176-.06-.249-.078-.352-.093-.622.033-.769.366a2.295 2.295 0 0 0-.168.878c-.01.51-.006 1.019-.01 1.53 0 .069-.006.136-.01.218h-1.589v-4.155h1.475v.58c.118-.035.132-.128.172-.19.164-.254.371-.438.677-.487.3-.048.662.034.955.222l-.484 1.115Zm10.196 6.857h1.55l.016.013c.004.004.012.01.012.017.006.041.013.081.013.123 0 1.312-.002 2.621-.005 3.933 0 .019-.01.04-.02.073h-1.566v-4.159Zm-7.64-.002h1.568v4.17c-.52.015-1.04.006-1.567.006V30.93Zm7.647-1.6h1.567v1.06h-1.55c-.045-.145-.055-.753-.017-1.06Zm-7.646 1.047v-1.046h1.56c.045.168.015.342.022.514.006.174.002.348.002.515-.162.053-1.318.065-1.584.017Z"/>
</svg>
