<svg>
  <rect rx="8"/>
  <path d="M22.39 1.517a3.092 3.092 0 0 1-.372.04c-.364.026-.507.042-.507.056a.95.95 0 0 1-.169.022 6.21 6.21 0 0 0-.563.076c-.051.01-.144.023-.206.03l-.347.043c-.13.016-.235.045-.235.064 0 .019-.016.024-.035.012-.02-.012-.108-.005-.197.015-.089.02-.22.046-.29.058a.708.708 0 0 0-.163.044.703.703 0 0 1-.185.037.677.677 0 0 0-.192.04.342.342 0 0 1-.118.033c-.042.004-.11.016-.152.027a19.27 19.27 0 0 1-.503.123.717.717 0 0 0-.155.054c-.035.019-.072.026-.083.015-.01-.01-.11.017-.22.06a2.132 2.132 0 0 1-.315.099c-.062.01-.23.06-.375.11s-.289.098-.321.106c-.032.008-.12.04-.197.073-.076.032-.139.05-.139.043 0-.013-.258.09-.825.329a3.576 3.576 0 0 0-.244.102 3.194 3.194 0 0 1-.132.056c-.227.077-1.214.55-1.232.59-.007.016-.033.03-.058.03-.065 0-.366.146-.445.216-.036.032-.066.048-.066.035 0-.012-.103.036-.229.107-.125.071-.244.13-.262.13-.019 0-.034.012-.034.028 0 .015-.055.052-.122.081-.067.03-.164.082-.216.116a34.02 34.02 0 0 1-.413.266 2.703 2.703 0 0 0-.331.23.053.053 0 0 1-.045.028c-.031 0-.269.146-.358.22a3.848 3.848 0 0 1-.206.14 1.28 1.28 0 0 0-.212.166c-.026.03-.047.042-.047.026-.001-.017-.105.05-.23.15-.126.099-.27.207-.319.24-.05.032-.158.121-.24.198-.083.076-.151.126-.151.11 0-.017-.013-.013-.028.008-.016.02-.12.113-.234.206l-.296.243c-.171.142-.43.376-.613.554-.1.098-.196.178-.212.178-.017 0-.053.042-.08.094-.028.051-.068.094-.09.094-.05 0-.32.291-.293.317.011.011-.005.02-.035.02-.03 0-.105.067-.166.15-.06.081-.134.149-.164.15-.029 0-.044.009-.034.019.01.01-.084.125-.21.255-.337.35-.524.567-.516.598.004.016-.006.024-.021.02-.016-.006-.037.007-.046.027a.768.768 0 0 1-.113.132 2.616 2.616 0 0 0-.2.236c-.059.078-.136.17-.172.206a1.693 1.693 0 0 0-.156.195c-.118.173-.13.188-.241.315a.432.432 0 0 0-.095.145c0 .02-.042.07-.094.11-.051.04-.094.095-.094.121 0 .027-.033.079-.075.116-.041.037-.075.084-.075.103a.785.785 0 0 1-.131.195.94.94 0 0 0-.131.186c0 .014-.031.059-.069.099-.037.04-.106.15-.153.242-.046.093-.1.17-.119.17-.02 0-.035.017-.035.04a.506.506 0 0 1-.093.162c-.052.068-.083.134-.07.148.014.013.006.024-.018.024s-.044.023-.044.051c0 .028-.034.09-.076.138a1.485 1.485 0 0 0-.159.259c-.046.094-.092.18-.103.19a7.32 7.32 0 0 0-.315.582 1.369 1.369 0 0 1-.154.252c-.02.016-.025.028-.01.028.015 0-.023.08-.084.177a1.107 1.107 0 0 0-.112.204c0 .015-.061.16-.136.32-.134.29-.206.464-.208.5a.44.44 0 0 1-.043.094c-.023.042-.038.088-.034.103.005.016-.007.029-.025.029-.019 0-.045.046-.06.103-.025.102-.07.216-.21.527-.04.09-.064.178-.052.197.012.02.004.035-.018.035s-.036.013-.032.029a.817.817 0 0 1-.075.21c-.045.1-.073.197-.062.216.012.018 0 .033-.025.033s-.035.011-.021.025c.014.013.008.044-.012.068a.359.359 0 0 0-.053.135.567.567 0 0 1-.037.138.29.29 0 0 1-.035.075c-.016.026-.02.047-.008.047.013 0 .005.033-.017.074-.037.07-.292.914-.323 1.07-.02.103-.043.192-.106.42-.03.108-.063.243-.074.301-.01.057-.036.172-.056.254a4.15 4.15 0 0 0-.057.282c-.027.17-.052.29-.076.369-.01.034-.03.138-.042.231-.03.235-.04.288-.086.544-.022.124-.05.31-.061.413a9.318 9.318 0 0 1-.057.41.847.847 0 0 0-.019.24c.01.01-.003.043-.029.074-.057.07-.08 3.85-.025 4.265.02.145.043.356.054.47.01.113.027.248.038.3.044.216.057.295.093.58.039.307.054.402.1.601.013.062.028.138.032.169.028.235.112.638.133.638.014 0 .022.038.019.084a.702.702 0 0 0 .026.197c.055.194.072.26.084.338a.77.77 0 0 0 .036.15c.005.02.014.05.02.065l.017.057.036.124c.015.053.033.129.04.169.008.04.017.073.02.073.003 0 .011.025.018.056.066.3.105.44.155.557.032.075.064.166.072.202.032.158.189.611.215.623.015.007.019.027.008.045s.014.1.056.183a.714.714 0 0 1 .076.208c0 .031.018.057.04.057.021 0 .034.022.03.047-.013.062.077.327.142.421a.285.285 0 0 1 .051.119c0 .039.249.604.34.773.02.036.035.08.035.1 0 .056.302.675.34.7.02.012.027.037.015.057-.012.019-.003.034.02.034.024 0 .033.016.021.035-.012.019 0 .057.027.084.027.028.103.16.17.294.16.325.34.643.406.716.028.032.052.073.052.09 0 .04.336.583.402.65a.173.173 0 0 1 .048.1c0 .026.027.07.06.097.032.027.09.11.127.183.038.073.122.192.185.262.064.071.116.151.116.179 0 .027.013.05.028.05.016 0 .079.08.14.177.134.214.168.258.257.34a.915.915 0 0 1 .143.206c.04.078.098.152.128.164.03.011.055.044.055.073 0 .029.015.052.034.052.018 0 .065.049.103.109.066.104.374.473.51.612.036.037.056.067.044.067-.012 0 .034.056.103.125.069.069.184.2.256.29.134.169 1.137 1.198 1.167 1.198.01 0 .136.114.283.254.146.14.32.296.387.347.066.051.187.155.267.23.234.22.436.37.462.344.013-.014.024 0 .025.029 0 .029.072.103.159.164.087.06.27.2.407.31.136.108.26.198.273.198.033 0 .235.143.359.253.052.046.116.084.142.084.026 0 .047.014.047.031s.067.068.15.115c.082.046.17.105.197.13.026.026.123.089.216.14.093.05.185.105.206.122.08.067.571.365.732.444.093.046.177.095.188.108.022.029.156.099 1.02.53.837.417 1.22.594 1.29.594a.35.35 0 0 1 .145.058.63.63 0 0 0 .195.077c.059.01.115.032.126.047.032.045.346.155.381.133.018-.01.033-.005.033.013 0 .037.43.198.556.207.045.003.082.022.082.042 0 .02.01.026.022.013.012-.012.096.01.187.05.092.038.212.078.27.087.056.01.106.02.112.025a.139.139 0 0 0 .037.015 2.107 2.107 0 0 0 .31.096c.191.045.221.054.3.087a.937.937 0 0 0 .15.04c.052.01.178.043.281.074.185.055.433.105.545.108.03.001.064.014.075.03.01.014.094.036.187.048.093.013.232.04.31.063.077.023.204.046.281.053.078.007.166.022.197.034.095.035.621.113 1.051.155.114.011.247.028.296.038.084.017.363.045.773.08 1.133.094 2.767.092 3.603-.004.083-.01.235-.025.338-.035.446-.043.72-.073 1.032-.112l.356-.044c.103-.013.204-.033.224-.045a.364.364 0 0 1 .112-.031c.137-.017.337-.048.433-.068l.413-.08c.176-.032.36-.075.41-.096.05-.02.16-.046.244-.057a.588.588 0 0 0 .19-.051.505.505 0 0 1 .17-.05c.244-.038.637-.152.637-.184 0-.018.017-.022.038-.01.02.013.059.01.084-.006a.25.25 0 0 1 .085-.033c.124-.014.281-.069.281-.099 0-.019.016-.025.035-.013.02.012.045.005.058-.015.012-.02.045-.028.074-.017.028.01.062.002.076-.02.013-.022.066-.04.116-.04s.092-.02.092-.044c0-.024.01-.034.022-.021.023.023.551-.153.822-.274.082-.036.2-.084.263-.105.285-.098.992-.41 1.032-.454a.16.16 0 0 1 .071-.033c.065-.014.265-.105.341-.156.031-.02.116-.062.188-.094.072-.03.157-.072.188-.092.03-.02.11-.058.178-.085.067-.027.122-.06.122-.073 0-.013.04-.035.091-.047a.376.376 0 0 0 .14-.07c.028-.026.126-.085.22-.133.366-.186 1.134-.647 1.2-.72a.587.587 0 0 1 .122-.066c.057-.025.103-.063.103-.084 0-.02.025-.038.056-.038s.089-.032.128-.071a.452.452 0 0 1 .15-.097c.044-.014.07-.04.058-.06-.011-.019.002-.035.03-.035.027 0 .108-.05.18-.11a.526.526 0 0 1 .177-.113c.026-.001.047-.02.047-.04 0-.022.03-.05.065-.064.063-.023.533-.371.573-.424a.339.339 0 0 1 .08-.058c.063-.036.366-.283.489-.4a.267.267 0 0 1 .092-.066.35.35 0 0 0 .107-.085 5.37 5.37 0 0 1 .26-.234 23.06 23.06 0 0 0 1.561-1.519c.155-.171.347-.377.428-.456.081-.08.137-.145.125-.145-.012 0 .023-.047.078-.104.153-.16.345-.388.345-.41 0-.012.03-.048.067-.081a1.71 1.71 0 0 0 .179-.215c.275-.382.682-.923.76-1.01.027-.03.036-.056.019-.056-.017 0-.013-.013.009-.028.068-.048.252-.309.218-.31-.018 0-.015-.013.007-.028.063-.044.212-.271.179-.272-.017 0-.013-.013.01-.028.039-.026.258-.346.456-.665a.576.576 0 0 0 .084-.19c0-.03.014-.054.03-.054s.061-.063.101-.14c.04-.078.104-.188.143-.245.038-.056.058-.103.043-.103-.014 0-.008-.02.013-.047a3.2 3.2 0 0 0 .16-.272l.248-.455c.07-.127.126-.252.126-.278 0-.027.03-.082.065-.124.047-.054.05-.066.01-.043-.05.028-.05.024 0-.04.078-.1.15-.233.15-.277 0-.02.078-.202.173-.404.096-.201.177-.383.182-.404.008-.037.025-.08.144-.363.031-.076.047-.148.035-.16-.012-.012-.004-.022.018-.022.02 0 .048-.056.059-.126.011-.07.058-.208.103-.308.046-.1.087-.199.091-.22a.895.895 0 0 1 .03-.096c.093-.251.253-.788.253-.848a.19.19 0 0 1 .033-.11c.027-.03.289-1.001.358-1.33.08-.38.136-.674.147-.773a.535.535 0 0 1 .034-.15c.011-.019.033-.144.047-.278.026-.239.035-.297.075-.487a4.12 4.12 0 0 0 .037-.332c.01-.13.025-.249.033-.262.013-.023.028-.168.083-.832.06-.714.072-1.035.068-1.876a24.674 24.674 0 0 0-.049-1.5l-.062-.75a3.946 3.946 0 0 0-.036-.3 7.075 7.075 0 0 1-.073-.545 6.065 6.065 0 0 0-.121-.769 1.844 1.844 0 0 1-.053-.347c.005-.036-.008-.066-.03-.066-.02 0-.029-.024-.017-.054a.361.361 0 0 0-.02-.179 2.117 2.117 0 0 1-.063-.273.9.9 0 0 0-.063-.225c-.022-.041-.038-.08-.034-.085a.025.025 0 0 0 .003-.018 1.14 1.14 0 0 1-.013-.085c-.04-.316-.516-1.939-.622-2.128a.29.29 0 0 1-.037-.114c0-.043-.175-.527-.26-.721a96.432 96.432 0 0 0-.112-.253 1.565 1.565 0 0 1-.079-.2c0-.02-.158-.374-.229-.513a.325.325 0 0 1-.033-.122c0-.031-.018-.057-.04-.057-.022 0-.03-.017-.017-.037.013-.02.006-.038-.016-.038s-.04-.023-.04-.051c0-.056-.452-.967-.52-1.05-.023-.027-.031-.06-.017-.075.013-.013.007-.024-.014-.024-.022 0-.068-.076-.104-.17-.035-.092-.08-.158-.1-.147-.019.012-.032.008-.03-.009a.182.182 0 0 0-.055-.171 1.453 1.453 0 0 1-.152-.237c-.173-.32-.227-.41-.256-.423-.015-.007-.028-.032-.028-.056 0-.046-.328-.561-.424-.669a.46.46 0 0 1-.081-.14c-.014-.044-.038-.08-.053-.08-.016 0-.066-.067-.113-.15-.046-.082-.1-.15-.12-.15-.018 0-.034-.018-.034-.04 0-.042-.062-.128-.3-.424a4.083 4.083 0 0 1-.188-.248 4.081 4.081 0 0 0-.302-.375 1.908 1.908 0 0 1-.104-.131 7.952 7.952 0 0 0-.448-.53.839.839 0 0 1-.122-.153c0-.01-.085-.106-.19-.212a94.436 94.436 0 0 1-.557-.578 5.465 5.465 0 0 0-.39-.384 4.01 4.01 0 0 1-.335-.32c-.174-.175-.325-.31-.335-.3-.01.01-.065-.04-.123-.112-.057-.072-.12-.121-.138-.11-.018.011-.033-.009-.033-.044 0-.036-.01-.056-.02-.045-.019.019-.132-.068-.342-.26-.05-.047-.106-.085-.124-.085-.017 0-.042-.026-.054-.059-.013-.032-.042-.046-.066-.031-.027.016-.034.01-.017-.017.016-.025 0-.054-.038-.069a.47.47 0 0 1-.128-.084 1.242 1.242 0 0 0-.15-.115 2.294 2.294 0 0 1-.203-.156 18.914 18.914 0 0 0-1.09-.783l-.21-.13a30.19 30.19 0 0 1-.339-.222 8.688 8.688 0 0 0-.446-.278 49.698 49.698 0 0 1-.357-.2 9.418 9.418 0 0 0-.319-.172.638.638 0 0 1-.159-.104c-.015-.02-.028-.023-.028-.007 0 .017-.049-.003-.108-.045a3.074 3.074 0 0 0-.347-.191 4.799 4.799 0 0 1-.296-.151 3.174 3.174 0 0 0-.282-.132 4.969 4.969 0 0 1-.324-.15c-.202-.111-.702-.311-.723-.29-.012.012-.022.005-.022-.017 0-.033-.172-.09-.25-.082-.012.001-.033-.013-.046-.033-.013-.02-.175-.09-.36-.156a16.349 16.349 0 0 1-.414-.151c-.18-.075-.538-.19-.591-.19a.953.953 0 0 1-.231-.073c-.095-.04-.21-.08-.257-.088a1.139 1.139 0 0 1-.14-.033 6.476 6.476 0 0 0-.582-.164 2.652 2.652 0 0 1-.15-.03l-.206-.06a3.293 3.293 0 0 0-.263-.063 2.08 2.08 0 0 1-.206-.05 2.254 2.254 0 0 0-.3-.056 2.54 2.54 0 0 1-.245-.039 2.357 2.357 0 0 0-.187-.037 3.774 3.774 0 0 1-.263-.056 4.943 4.943 0 0 0-.638-.093 3.017 3.017 0 0 1-.244-.036 4.427 4.427 0 0 0-.337-.044 12.032 12.032 0 0 1-.545-.07c-.288-.045-3.635-.083-3.68-.043m2.966 2.331c.68.039.837.05.977.073l.432.06c.165.02.334.045.375.053l.263.051c.103.02.263.048.356.061.093.014.23.04.303.06.073.018.183.04.244.048a.91.91 0 0 1 .166.037c.071.028.473.128.613.152.058.01.177.044.263.074.086.03.232.074.325.1a32.073 32.073 0 0 1 1.313.429.65.65 0 0 1 .094.046.44.44 0 0 0 .094.043c.01 0 .07.02.131.044a.838.838 0 0 0 .179.048c.036.003.065.019.065.035 0 .016.014.025.03.02a.431.431 0 0 1 .16.054c.261.129.695.32.786.349a.515.515 0 0 1 .16.086c.036.031.065.042.066.023 0-.018.013-.017.028.004.034.046.895.481.93.47.015-.004.037.007.05.024.047.064.266.2.322.2.032 0 .058.014.058.031s.046.055.103.083c.057.03.174.1.26.157a.742.742 0 0 0 .197.104.04.04 0 0 1 .04.038c0 .02.017.037.038.037.02 0 .146.076.279.169.133.093.26.169.282.169.023 0 .051.025.063.056.012.031.037.056.057.056.042 0 .458.302.476.345.006.017.036.03.065.03.03 0 .084.03.12.066.038.036.152.133.254.215.102.081.198.166.214.187.015.022.027.024.028.005 0-.019.038.008.085.059.046.05.156.148.244.215.087.068.271.227.408.354.136.127.259.23.272.23.04-.004.11.075.092.105-.01.015 0 .028.02.028.057 0 1.075 1.038 1.45 1.48.082.097.2.23.263.297.061.067.18.217.262.333.083.117.17.213.193.214.024 0 .053.04.065.086a.828.828 0 0 0 .155.235c.189.212.202.23.25.336.024.052.056.095.072.095.016 0 .039.03.05.066a.75.75 0 0 0 .115.178c.112.135.137.169.196.264l.206.332c.09.142.195.314.237.383.041.069.096.155.123.192.052.072.113.185.396.727.1.191.222.408.272.48.05.074.09.161.09.195a.54.54 0 0 0 .093.198.485.485 0 0 1 .079.136c-.008 0 .034.102.095.226.06.124.109.247.109.274 0 .026.015.064.032.084.018.02.063.115.1.213.036.098.081.179.1.179.02 0 .026.015.014.033-.019.031.018.14.148.436.027.061.07.18.095.262.025.083.06.166.078.186.018.02.033.07.034.112 0 .043.025.126.056.185.03.059.056.121.056.138 0 .017.02.078.043.136.024.058.051.157.06.219.009.061.03.129.047.15.017.02.039.088.05.15.026.16.114.484.137.506.01.01.023.053.028.094.018.149.056.338.073.366.01.016.025.075.033.132.01.056.032.161.051.233.056.208.193.945.202 1.079.004.067.016.122.026.122.01 0 .02.063.021.14.003.148.042.475.08.665.058.296.1 1.225.102 2.234 0 .948-.03 1.553-.107 2.162a13.96 13.96 0 0 0-.042.375 6.8 6.8 0 0 1-.031.276c-.07.467-.108.706-.123.77-.01.04-.025.134-.036.206-.01.072-.033.173-.053.225a1.157 1.157 0 0 0-.05.225 1.768 1.768 0 0 1-.039.206c-.026.093-.191.734-.28 1.088a2.209 2.209 0 0 1-.113.35c-.026.048-.039.11-.028.139.011.027.005.056-.013.062-.019.007-.04.054-.049.106a1.15 1.15 0 0 1-.074.225c-.032.072-.05.143-.04.159.009.016 0 .029-.019.029-.02 0-.047.062-.061.138a.67.67 0 0 1-.08.215.32.32 0 0 0-.053.154.202.202 0 0 1-.032.113c-.017.02-.06.112-.097.205-.035.093-.09.228-.122.3l-.105.244c-.026.062-.093.21-.15.33-.055.119-.105.24-.109.268a.262.262 0 0 1-.047.101 3.659 3.659 0 0 0-.184.351 6.11 6.11 0 0 1-.228.437c-.047.075-.075.147-.062.16.013.012.004.022-.018.022-.023 0-.053.037-.068.083a.394.394 0 0 1-.078.134c-.028.029-.042.067-.03.086.012.02.005.035-.014.035-.02 0-.045.03-.056.066-.023.07-.143.278-.179.309a2.02 2.02 0 0 0-.13.225c-.06.114-.14.234-.176.267-.036.034-.066.076-.066.094 0 .018-.068.122-.15.23-.082.108-.14.197-.13.197.011 0-.023.046-.075.103a.463.463 0 0 0-.096.128c0 .015-.02.049-.047.076-.026.027-.127.16-.225.293l-.241.33a4.516 4.516 0 0 1-.13.17 3.827 3.827 0 0 0-.097.12c-.087.113-.371.458-.421.511a6.347 6.347 0 0 0-.19.222 6.2 6.2 0 0 1-.3.332 28.33 28.33 0 0 0-.396.416c-.215.23-.807.787-1.18 1.11a4.274 4.274 0 0 0-.206.188c-.02.022-.122.106-.225.187-.103.08-.215.176-.249.212-.033.037-.075.067-.093.067a.863.863 0 0 0-.199.15c-.09.081-.196.158-.235.17-.038.012-.06.037-.05.054.011.018-.014.043-.056.057-.041.013-.075.04-.075.058 0 .02-.018.035-.04.035-.034 0-.474.286-.523.34a1.61 1.61 0 0 1-.169.111c-.083.05-.183.121-.223.158-.04.037-.095.067-.122.067-.027 0-.05.013-.05.028 0 .016-.083.07-.187.118-.103.05-.187.105-.187.124 0 .019-.017.024-.038.011-.02-.013-.037-.005-.037.017a.04.04 0 0 1-.04.04c-.021 0-.131.058-.244.13a1.182 1.182 0 0 1-.242.132c-.02 0-.037.014-.037.032 0 .017-.07.054-.154.082-.085.028-.163.073-.173.1-.01.027-.039.049-.063.049s-.212.084-.417.187-.396.188-.423.188c-.03 0-.04.02-.024.047.015.025.015.035 0 .022-.03-.027-.395.117-.74.293a.464.464 0 0 1-.16.05c-.033 0-.06.018-.06.04 0 .022-.013.032-.03.022-.015-.01-.095.014-.177.053a.79.79 0 0 1-.207.072.304.304 0 0 0-.131.053.656.656 0 0 1-.196.078c-.068.014-.122.038-.122.052 0 .015-.04.03-.09.034a.809.809 0 0 0-.197.052c-.125.052-.108.047-.276.086a.875.875 0 0 0-.17.053.384.384 0 0 1-.11.034c-.04.006-.083.023-.094.038a.096.096 0 0 1-.058.032c-.173.02-.619.145-.619.173 0 .02-.021.028-.047.019a.361.361 0 0 0-.16.018 1.86 1.86 0 0 1-.22.05c-.06.008-.162.03-.226.05a4.42 4.42 0 0 1-.36.078c-.134.025-.286.054-.338.066a2.5 2.5 0 0 1-.169.031 13.688 13.688 0 0 1-.966.137c-.057.005-.103.018-.103.029 0 .01-.098.025-.216.031a7.366 7.366 0 0 0-.366.029c-.736.084-3.014.082-3.753-.003a71.985 71.985 0 0 0-.337-.037 8.527 8.527 0 0 1-.429-.059.732.732 0 0 0-.22-.018c-.008.008-.053.001-.1-.016a1.695 1.695 0 0 0-.3-.055 1.548 1.548 0 0 1-.242-.037 1.36 1.36 0 0 0-.223-.037 1.22 1.22 0 0 1-.228-.039 6.348 6.348 0 0 0-.487-.112 5.662 5.662 0 0 1-.492-.115 1.079 1.079 0 0 0-.194-.054c-.33-.068-.463-.104-.575-.152a1.65 1.65 0 0 0-.338-.092.09.09 0 0 1-.056-.024c-.021-.025-.685-.253-.82-.281a1.555 1.555 0 0 1-.272-.112 1.946 1.946 0 0 0-.202-.094 4.567 4.567 0 0 1-.46-.187 1.388 1.388 0 0 0-.178-.073c-.01 0-.15-.06-.31-.135-.393-.183-.474-.216-.507-.209-.016.004-.028-.012-.028-.034 0-.021-.017-.029-.038-.016-.02.013-.037.006-.037-.014 0-.034-.15-.102-.184-.082-.008.005-.025-.007-.037-.026-.03-.044-.265-.16-.325-.16-.026 0-.056-.023-.067-.052-.01-.03-.072-.064-.135-.078-.063-.014-.125-.043-.138-.064a.431.431 0 0 0-.141-.092 1.952 1.952 0 0 1-.216-.118 8.77 8.77 0 0 0-.281-.172 6.51 6.51 0 0 1-.285-.178.443.443 0 0 0-.133-.07c-.017 0-.06-.034-.095-.076-.035-.041-.085-.075-.111-.075-.026 0-.088-.044-.137-.095-.05-.052-.097-.088-.106-.079-.008.009-.055-.02-.104-.065a1.06 1.06 0 0 0-.195-.137.852.852 0 0 1-.152-.098 1.573 1.573 0 0 0-.181-.127 1.932 1.932 0 0 1-.255-.196 8.717 8.717 0 0 0-.754-.58c-.043-.025-.063-.046-.046-.047.028-.001-.027-.052-.31-.283a3.633 3.633 0 0 1-.216-.2c-.068-.069-.125-.11-.125-.094 0 .018-.036-.023-.079-.09-.043-.067-.091-.122-.108-.122-.049 0-.993-.968-1.303-1.336l-.217-.258a6.311 6.311 0 0 0-.272-.302.544.544 0 0 1-.122-.156c0-.029-.351-.488-.504-.659-.032-.036-.059-.081-.059-.1 0-.02-.037-.062-.083-.094-.046-.033-.07-.059-.055-.059.027 0-.001-.041-.125-.182a1.037 1.037 0 0 1-.112-.174.967.967 0 0 0-.113-.173 2.116 2.116 0 0 1-.169-.257 2.046 2.046 0 0 0-.162-.249c-.027-.029-.037-.053-.02-.053.015 0-.015-.046-.067-.103a.887.887 0 0 1-.145-.228.667.667 0 0 0-.091-.17 1.598 1.598 0 0 1-.144-.25 3.143 3.143 0 0 0-.29-.505c-.025-.031-.032-.057-.014-.058.018 0 .016-.012-.005-.028a3.956 3.956 0 0 1-.298-.571 2.296 2.296 0 0 0-.084-.188 6.04 6.04 0 0 1-.254-.59c-.014-.047-.042-.085-.063-.085-.02 0-.029-.013-.02-.029.01-.016-.013-.096-.052-.178a1.08 1.08 0 0 1-.072-.178c0-.016-.032-.1-.07-.188a5.396 5.396 0 0 1-.253-.684.51.51 0 0 0-.06-.156.43.43 0 0 1-.054-.15c-.03-.175-.134-.516-.169-.56-.018-.023-.022-.052-.009-.065.014-.013.005-.047-.019-.075a.397.397 0 0 1-.06-.16 2.714 2.714 0 0 0-.058-.26 12.3 12.3 0 0 1-.103-.412 1.517 1.517 0 0 0-.082-.281.466.466 0 0 1-.031-.17c-.006-.082-.025-.154-.044-.16-.019-.007-.027-.054-.017-.104.009-.05.003-.092-.013-.092s-.03-.046-.032-.103c-.004-.11-.026-.245-.109-.666-.049-.248-.068-.402-.117-.938a25.16 25.16 0 0 0-.033-.337c-.09-.827-.09-3.272 0-3.714.008-.041.026-.219.04-.394l.034-.413a.99.99 0 0 1 .03-.169c.013-.04.035-.168.049-.281.035-.274.037-.292.069-.488.04-.25.053-.319.061-.319.004 0 .012-.033.018-.075.018-.139.05-.28.07-.313a.65.65 0 0 0 .039-.16c.01-.07.03-.178.043-.24.014-.061.03-.137.034-.168a.603.603 0 0 1 .032-.113c.013-.03.099-.318.191-.638.093-.32.213-.708.267-.862a2.77 2.77 0 0 0 .104-.347c.002-.037.018-.066.034-.066.016 0 .03-.023.03-.052 0-.028.041-.146.093-.262.05-.116.084-.211.074-.211-.01 0 .008-.043.042-.094.034-.052.05-.094.034-.094-.015 0 0-.042.034-.094.034-.051.053-.093.042-.093-.01 0 .014-.064.056-.14a.667.667 0 0 0 .075-.188c0-.026.016-.048.037-.048a.04.04 0 0 0 .038-.04c0-.047.11-.294.304-.683.08-.16.146-.314.146-.342 0-.028.026-.073.059-.1.032-.027.123-.176.201-.333.078-.156.183-.353.232-.438.18-.31.426-.709.447-.727.049-.042.204-.321.195-.35-.006-.017.004-.022.02-.012.018.01.053-.015.08-.057.039-.063.039-.072-.002-.049-.028.016-.016-.007.025-.05.108-.114.169-.19.169-.21a.55.55 0 0 1 .094-.12c.051-.056.094-.123.094-.149 0-.026.013-.053.029-.06.027-.012.269-.32.571-.73a3.53 3.53 0 0 1 .244-.295c.062-.064.202-.22.311-.344.11-.125.29-.323.403-.44a2.55 2.55 0 0 0 .205-.228c0-.03.804-.808.835-.808.018 0 .022-.017.01-.037-.013-.021-.008-.038.01-.038.019 0 .125-.084.237-.187l.305-.282a.487.487 0 0 1 .124-.094c.043 0 .127-.103.104-.126-.013-.013-.001-.024.026-.024.044 0 .304-.192.447-.33.03-.028.118-.092.197-.142.08-.05.145-.108.145-.128 0-.02.02-.038.046-.038a.493.493 0 0 0 .174-.113.684.684 0 0 1 .15-.112.551.551 0 0 0 .136-.103c.06-.056.111-.095.112-.085.001.025.373-.232.388-.269.007-.017.03-.03.05-.03.019 0 .165-.088.324-.196a4.1 4.1 0 0 1 .308-.199 1.35 1.35 0 0 0 .17-.097 2.88 2.88 0 0 1 .205-.121 1.89 1.89 0 0 0 .17-.098c.061-.04.26-.146.44-.237.181-.09.32-.176.31-.19-.01-.014-.008-.017.005-.007.013.01.153-.047.31-.126.554-.278.914-.441 1.214-.55.098-.036.178-.083.178-.104 0-.021.01-.029.022-.016.022.021.257-.049.41-.121.155-.075 1.272-.445 1.527-.506.159-.039.655-.177.706-.198a.292.292 0 0 1 .122-.014c.036.005.065-.006.065-.024 0-.017.03-.034.066-.036a2.07 2.07 0 0 0 .178-.027c.062-.012.155-.029.207-.036.227-.034.398-.07.45-.096a.804.804 0 0 1 .222-.036.845.845 0 0 0 .191-.023c.028-.017.172-.044.394-.073l.281-.037c.072-.01.241-.027.375-.04l.357-.036c.062-.007.307-.025.544-.04.237-.013.434-.027.438-.03.017-.016 1.921.011 2.3.032m-7 2.055c-.024.065-.004.909.039 1.564.03.463.044.757.072 1.52.012.31.032.73.045.933.046.724.054.872.068 1.243a79.88 79.88 0 0 0 .112 2.27c.007.14-.071.144-2.59.147-1.77.002-2.26.013-2.274.05-.024.064-.026 4.261-.003 4.385l.02.1.662.002c.364.002.763-.006.887-.018l.225-.021v-1.32a39.09 39.09 0 0 1 .013-1.422l.015-.103h4.909l-.022-.393a6.564 6.564 0 0 0-.038-.478 4.286 4.286 0 0 1-.037-.31 30 30 0 0 0-.115-1.126 5.475 5.475 0 0 1-.038-.337c-.022-.24-.04-.376-.05-.376-.003 0-.012-.093-.021-.206-.02-.241-.046-.49-.073-.676a23.553 23.553 0 0 1-.114-.975 5.42 5.42 0 0 0-.038-.3 9.764 9.764 0 0 1-.077-.732 3.051 3.051 0 0 0-.036-.319 3.77 3.77 0 0 1-.036-.356 4.303 4.303 0 0 0-.04-.394 2.631 2.631 0 0 1-.035-.291l-.018-.234.215-.003c.283-.003 1.969-.003 2.736 0l.607.003-.018 2.503c-.01 1.376-.023 2.508-.03 2.515-.007.007-.399.016-.871.02l-.858.008v.6c0 .33.006.664.013.741l.013.14h1.756l.001.348.01 1.557.008 1.211.675-.01.676-.01.006-1.388c.004-.764.008-1.46.01-1.548l.002-.16h1.75v-.753l.001-.755-.894.014-.895.013.018-2.232c.01-1.228.02-2.385.02-2.572v-.34l1.48.002c.813.001 1.49.013 1.503.027.026.025.027.394.002.932l-.038.919a199.266 199.266 0 0 0-.115 3.001c-.008.269-.026.733-.04 1.032-.014.3-.027.755-.03 1.013l-.003.469 2.37.01 2.37.01.025.11c.014.062.016.126.005.144-.01.017-.03.612-.042 1.323-.013.71-.031 1.321-.042 1.357-.018.06.025.066.555.063.866-.004.89-.012.913-.279.024-.278.063-.617.094-.806.018-.114.044-.333.057-.488.013-.155.031-.332.04-.394.033-.216.052-.377.074-.619.011-.134.039-.353.06-.487a5.27 5.27 0 0 0 .05-.458c.006-.117.02-.227.03-.244a.34.34 0 0 0 .018-.124c0-.051.01-.17.022-.262.04-.299.254-.276-2.618-.28-2.269-.001-2.571-.008-2.557-.058a4.39 4.39 0 0 0 .04-.413c.046-.736.057-.881.075-.974.032-.168.075-.578.113-1.07.012-.165.029-.326.037-.357.007-.03.025-.2.038-.375a26.838 26.838 0 0 1 .111-1.163l.037-.372c.014-.154.031-.331.04-.394.037-.31.055-.473.073-.697l.042-.469c.022-.234.038-.418.067-.769.01-.113.028-.295.042-.403l.024-.197h-4.162c-2.29 0-4.823-.011-5.63-.025-1.335-.023-1.471-.02-1.492.036M9.568 19.048c-.035.014-.047.228-.047.896v.879H6.332v4.052h1.013v-.526H9.52v2.889h1.014V24.35h2.214v.526h1.013v-4.052h-3.226l-.01-.891-.01-.891-.45-.005a4.025 4.025 0 0 0-.498.012m9.248-.002c-.014.015-.026.336-.026.714v.688l-.29.002c-.16 0-.71 0-1.22-.002l-.929-.002v2.628h-1.088v.825h1.651c.917 0 1.651.015 1.651.033 0 .088-.122.36-.26.577a2.296 2.296 0 0 0-.153.264c0 .02-.36.383-.594.599-.061.056-.13.103-.153.103-.022 0-.07.03-.107.065-.037.037-.13.1-.21.141-.077.041-.17.1-.206.131a.315.315 0 0 1-.105.065c-.023.004-.14.065-.262.136-.12.07-.275.14-.342.154-.068.015-.113.042-.101.061.011.02-.005.037-.038.04-.086.006-.11.015-.451.16a5.01 5.01 0 0 1-.32.116c-.295.096-.303.114-.12.27.089.075.237.21.33.299.223.213.386.193.953-.119.072-.04.14-.074.15-.076.052-.012.261-.12.394-.203a5.63 5.63 0 0 1 .234-.139c.26-.14.334-.188.375-.238.025-.031.046-.042.047-.024 0 .027.242-.132.301-.2.07-.08.413-.339.447-.339.024 0 .06-.039.082-.086a.279.279 0 0 1 .121-.122c.045-.02.077-.049.072-.065-.006-.016.032-.069.084-.117.052-.048.095-.108.095-.132 0-.025.014-.036.032-.025.018.01.071-.056.119-.148.047-.092.098-.168.113-.168.023 0 .153-.266.165-.338a.357.357 0 0 1 .04-.075.401.401 0 0 0 .047-.129c.018-.116.029-.107.142.116.059.116.146.27.193.34.048.07.087.143.087.163 0 .02.013.036.03.036.015 0 .06.063.101.14.142.275.968 1.156 1.04 1.111.024-.014.03-.008.017.015-.022.035.32.284.396.289.015 0 .048.029.075.062a.926.926 0 0 0 .217.15c.093.05.178.098.188.11.026.026.244.12.244.105 0-.007.054.026.121.074a.68.68 0 0 0 .202.102.602.602 0 0 1 .174.077c.065.042.085.046.064.01-.017-.028.003-.022.043.013.07.061.167.045.175-.03.002-.019.043-.064.09-.102.049-.038.088-.083.088-.1 0-.038.123-.19.286-.352.17-.171.178-.369.01-.265-.018.011-.033.003-.033-.019s-.038-.04-.085-.04a.516.516 0 0 1-.192-.056.496.496 0 0 0-.178-.056c-.039 0-.07-.019-.07-.041 0-.022-.022-.034-.047-.025-.026.009-.07-.008-.1-.037-.028-.028-.073-.043-.1-.033-.027.01-.055.007-.061-.008-.013-.03-.427-.238-.462-.233-.011.002-.057-.031-.102-.073-.045-.041-.097-.076-.117-.076a.524.524 0 0 1-.16-.093.56.56 0 0 0-.154-.094c-.018 0-.06-.03-.092-.066a1.712 1.712 0 0 0-.184-.16 4.007 4.007 0 0 1-.66-.688c-.09-.12-.164-.205-.165-.188 0 .018-.026-.025-.057-.095a.564.564 0 0 0-.106-.169.432.432 0 0 1-.091-.163l-.04-.122h3.223v-.788h-1.126V20.44l-.554.01c-.304.005-.87.006-1.257.003l-.704-.005V19.03l-.405-.005c-.223-.002-.418.007-.432.021m7.416.263a2.31 2.31 0 0 0-.18.281c-.042.08-.171.258-.288.398a2.37 2.37 0 0 0-.211.272c.001.019-.078.105-.538.585a6.264 6.264 0 0 1-.708.64c-.073.058-.14.116-.15.129a.474.474 0 0 1-.102.067c-.11.057-.08.12.13.283.094.074.158.134.142.134-.017 0 .018.038.078.084.06.045.12.1.134.12.016.023.036.012.051-.026.014-.036.04-.065.06-.065.02 0 .098-.06.175-.135l.138-.135.012.172.011.173h.972v.936l-.76.01-.76.01v.713l.76.01.76.01V26.3h-.088c-.048 0-.097.01-.11.022a.742.742 0 0 1-.222.034c-.19.01-.717.058-.875.078-.041.006-.14.011-.218.013-.12.003-.14.014-.122.07.011.036.027.116.035.178.028.223.07.394.101.413.018.011.023.043.012.072-.04.103.134.107.643.016a6.99 6.99 0 0 1 .356-.055 5.99 5.99 0 0 0 .488-.079c.113-.022.191-.035.413-.067.093-.014.228-.039.3-.055a1.95 1.95 0 0 1 .258-.036.495.495 0 0 0 .168-.03.489.489 0 0 1 .15-.037 2.13 2.13 0 0 0 .208-.035.963.963 0 0 1 .182-.022c.047 0 .085-.012.085-.026 0-.014.03-.028.065-.031.274-.027.252.004.272-.376l.02-.347-.132.025a1.482 1.482 0 0 1-.178.025c-.026 0-.047.01-.047.022 0 .012-.038.023-.085.024a2.995 2.995 0 0 0-.272.032 9.797 9.797 0 0 1-.3.043c-.062.008-.15.022-.197.032l-.085.018v-2.209h1.392l-.011-.366-.01-.366-.686-.01-.685-.01v-.974h.973l.011-.307c.01-.295.013-.304.078-.24.075.076.074.076.35-.184.065-.062.171-.16.235-.215.113-.1.114-.103.039-.144-.244-.13-1.205-1.112-1.666-1.702-.3-.384-.395-.415-.571-.185m9.41.08a8.017 8.017 0 0 0-.235.267c-.058.07-.105.116-.105.102 0-.02-.098.06-.315.26a7.757 7.757 0 0 1-.23.187 1.497 1.497 0 0 0-.2.177c-.006.016-.026.02-.042.01-.017-.01-.051.007-.077.037-.025.031-.07.056-.098.056-.028 0-.051.014-.051.03 0 .017-.127.097-.282.178-.155.08-.281.156-.282.166a.55.55 0 0 1-.168.094c-.222.098-.225.094.19.304.197.1.367.195.377.211.051.082.656-.188.765-.34.01-.015.1-.074.197-.13.098-.057.178-.12.178-.14 0-.019.025-.035.055-.035s.114-.062.188-.137c.073-.076.133-.127.133-.115 0 .08.806-.737.872-.883.025-.057.056-.103.069-.103.112 0-.015-.117-.169-.156l-.21-.052a3.092 3.092 0 0 1-.158-.067c-.2-.09-.258-.08-.403.078m-7.056 3.63v3.356l-.151.025c-.083.013-.16.037-.17.053-.009.016-.05.02-.092.01-.092-.025-.092-.022.002.326.101.372.104.386.108.445.002.035.029.044.087.027a6.109 6.109 0 0 0 .569-.154c.163-.051.32-.093.347-.093.028 0 .05-.016.05-.036 0-.02.024-.028.053-.017.029.011.063.003.077-.02.014-.022.074-.04.135-.04.06 0 .11-.017.11-.04 0-.021.016-.03.035-.018.045.028.727-.2.762-.255.016-.024.028-.031.028-.017 0 .015.052.009.114-.013l.112-.04v-.333c0-.184-.011-.334-.025-.334a.93.93 0 0 0-.14.036c-.539.17-1.124.336-1.195.338-.016 0-.028-.623-.028-1.387V23.45h.39c.439 0 .401-.028.456.347.014.098.041.178.06.178.02 0 .026.017.014.037-.013.02.002.112.034.204.031.093.065.207.074.254.058.286.438 1.21.523 1.273a.087.087 0 0 1 .033.056c.003.06.078.202.106.202.015 0 .038.042.051.094.013.051.041.094.063.094.021 0 .028.017.016.037-.013.021.003.048.035.06.032.013.049.038.037.057-.011.018.005.044.037.056a.162.162 0 0 1 .08.093c.012.04.043.093.068.118.025.026.087.107.138.179.101.145.175.233.381.457l.138.15.21-.138c.114-.077.223-.164.24-.195.017-.03.046-.056.065-.056.061 0 .238-.119.259-.174.021-.056-.041-.157-.098-.157-.018 0-.08-.05-.14-.112-.058-.061-.118-.1-.131-.087-.014.013-.025.004-.025-.02 0-.053-.327-.38-.378-.38-.019 0-.03-.014-.025-.03.012-.037-.31-.459-.352-.459-.018 0-.03-.012-.029-.028.009-.056-.05-.197-.083-.197-.018 0-.033-.024-.033-.053 0-.03-.026-.08-.057-.11-.051-.052-.044-.064.066-.116a.995.995 0 0 0 .216-.145.656.656 0 0 1 .155-.11c.103-.039.708-.527.708-.571 0-.045-.15-.186-.15-.142-.001.016-.036-.027-.08-.094-.042-.067-.092-.122-.11-.122-.018 0-.064-.034-.104-.076l-.07-.077-.166.136a2.43 2.43 0 0 0-.202.181c-.02.026-.113.099-.206.162a3.447 3.447 0 0 0-.263.2l-.094.082-.035-.098c-.02-.053-.05-.097-.068-.097-.018 0-.022-.017-.01-.038.014-.02-.01-.135-.052-.253a2.58 2.58 0 0 1-.1-.366.884.884 0 0 0-.04-.178c-.01-.015.287-.028.66-.028h.677v-3.79h-3.677v3.357Zm9.006-2.927v.393l2.14.01 2.14.01-.01-.394-.01-.394-2.13-.01-2.13-.01v.395Zm-6.154.676v.431h-2.064v-.863h2.064v.432Zm-4.875-.346a.252.252 0 0 1 .075.09c.02.06.742.8.78.8.015 0 .065.05.111.112l.083.113-1.098-.003c-.605-.002-1.078-.012-1.052-.022.025-.01.047-.046.047-.078 0-.033.009-.05.02-.04.027.027.242-.188.242-.242 0-.022.01-.03.022-.019.022.022.166-.102.166-.142 0-.01.051-.07.114-.13.062-.062.104-.112.092-.112-.012 0 .047-.071.13-.158a.841.841 0 0 0 .152-.187c0-.043.046-.036.116.018m9.579.711a4.76 4.76 0 0 1-.182.24 1.288 1.288 0 0 0-.094.129c-.031.047-.1.13-.153.183a3.8 3.8 0 0 0-.244.283 2.016 2.016 0 0 1-.204.231 8.283 8.283 0 0 0-.319.295c-.232.222-.54.49-.689.6-.028.02-.098.08-.155.13a.564.564 0 0 1-.155.107.141.141 0 0 0-.07.039 4.046 4.046 0 0 1-.45.326c-.12.017-.28.154-.178.154.026 0 .118.045.205.1.087.055.168.1.18.1a.59.59 0 0 1 .131.082c.061.045.121.071.134.059.013-.013.058.008.1.047.083.078.209.03.32-.121.028-.037.07-.067.096-.067.025 0 .073-.03.106-.065a2.39 2.39 0 0 1 .355-.284c.043-.025.052.261.052 1.782v1.812h.938V22.77l.105-.1c.058-.056.18-.194.272-.306.092-.112.2-.24.242-.284.13-.139.367-.459.36-.486-.005-.014.024-.054.063-.088.114-.1.21-.305.15-.324l-.235-.078a6.165 6.165 0 0 0-.226-.072 1.574 1.574 0 0 1-.143-.052c-.153-.063-.156-.062-.312.153m-17.31.798.002.9c0 .093 0 .186-.002.206-.002.024-.293.038-.791.038h-.788v-1.876h1.576l.003.732Zm2.474.223v.918l-.817.01-.816.012.01-.929.012-.928h1.612v.917Zm-11.784.433v.976H7.345V21.61H9.52v.975Zm3.228-.019v.957h-2.214v-1.914h2.214v.956Zm18.688-.262v.431h-2.064v-.863h2.064v.432Zm5.428.01c.004.097.008.274.01.393l.003.216h2.7l.01 1.653c.006.91-.004 1.68-.021 1.71-.07.125-.294.175-.856.193l-.55.017.057.136c.03.075.086.204.122.286l.118.272c.028.067.066.122.082.122.017 0 .022.016.01.035-.022.035.652.026 1.02-.014.596-.065.951-.366 1.002-.846.005-.052.012-.874.015-1.828l.006-1.735.835-.01.835-.01.01-.384.011-.385H36.86l.006.178Zm-12.033 2.189a1.297 1.297 0 0 1-.248.108c-.022 0-.079.033-.125.073l-.085.074.088.123a.84.84 0 0 1 .093.152.11.11 0 0 0 .013.038.413.413 0 0 1 .021.083c.008.041.032.08.053.088.022.007.04.027.04.044 0 .017.037.113.081.213.045.1.079.194.075.21-.003.015.01.027.032.027.02 0 .037.025.037.055 0 .089.128.319.177.32.054 0 .303-.134.389-.21.033-.028.077-.052.099-.052.074 0 .143-.114.09-.148-.027-.016-.045-.04-.042-.054.01-.04-.161-.436-.188-.436-.014 0-.025-.021-.025-.048 0-.045-.344-.782-.36-.772l-.215.112m2.609.117c-.208.472-.294.65-.325.67-.019.01-.041.059-.05.106a.373.373 0 0 1-.064.142c-.09.109-.057.15.216.267.31.134.354.142.354.065 0-.029.023-.077.053-.106.057-.058.367-.685.358-.726-.003-.014.013-.036.035-.05.022-.013.045-.057.05-.097a.381.381 0 0 1 .04-.12c.03-.045-.438-.31-.547-.31-.028 0-.082.072-.12.16m-4.264 3.976c-.003.129-.005.357-.007.506l-.002.273H21.53v1.412l.812.006c.447.003.818.011.826.019.016.016.021 1.53.005 1.547a35.51 35.51 0 0 1-1.256.023l-1.243.012-.024.132c-.128.714-.124.692-.167.9a5.9 5.9 0 0 0-.054.319c-.011.083-.038.23-.06.328s-.038.19-.036.206a.11.11 0 0 1-.002.048c-.02.047-.042.163-.116.581a77.651 77.651 0 0 1-.126.694l-.053.263a8.378 8.378 0 0 0-.064.337c-.01.073-.045.258-.075.413-.09.462-.103.54-.112.638a.276.276 0 0 1-.018.094c-.008 0-.014.03-.057.3-.01.062-.033.188-.052.281a7.518 7.518 0 0 0-.099.6.751.751 0 0 1-.03.15 1.224 1.224 0 0 0-.038.188c-.01.072-.027.165-.038.206a.855.855 0 0 0-.022.117c-.003.05-.238.037-.79-.043l-.263-.036a14.18 14.18 0 0 1-.606-.09 8.432 8.432 0 0 0-.764-.093.438.438 0 0 1-.154-.033.967.967 0 0 0-.244-.045 12.1 12.1 0 0 1-.465-.057 7.572 7.572 0 0 0-.453-.05 1.06 1.06 0 0 1-.225-.032.879.879 0 0 0-.204-.029.829.829 0 0 1-.182-.022c-.017-.017-.008-.532.012-.675.008-.062.027-.23.04-.375.014-.144.03-.271.037-.282.006-.01.022-.213.035-.45.014-.237.032-.473.04-.525.01-.051.026-.212.036-.356.022-.31.049-.633.076-.92l.037-.412.038-.394c.01-.103.028-.306.038-.45.01-.144.027-.322.037-.394.01-.072.026-.232.036-.356l.038-.432c.011-.113.029-.299.038-.412l.04-.432.035-.412a7.4 7.4 0 0 1 .034-.338c.01-.083.029-.285.04-.45.012-.165.03-.385.04-.488.019-.182.025-.263.073-.975a5.32 5.32 0 0 1 .041-.422l.018-.085h-.807c-.885 0-.847-.01-.84.225.003.06-.035.704-.061 1.05-.047.617-.057.758-.076 1.032l-.039.544-.036.526a9.08 9.08 0 0 1-.036.412c-.03.237-.068.764-.075 1.034a1.44 1.44 0 0 1-.028.3.958.958 0 0 0-.024.242 6.395 6.395 0 0 1-.026.431c-.012.124-.03.344-.04.488l-.034.469a63.05 63.05 0 0 0-.038.619 9.74 9.74 0 0 1-.04.544 6.16 6.16 0 0 0-.034.338 78.06 78.06 0 0 1-.036.487c-.03.39-.055.754-.078 1.107a3.58 3.58 0 0 1-.035.356 6.02 6.02 0 0 0-.04.488c-.013.237-.03.476-.036.53-.017.146.019.176.244.199.113.011.282.03.375.043.093.013.236.028.319.033a.898.898 0 0 1 .212.037.242.242 0 0 0 .112.017c.045-.008.184.008.539.064.062.01.214.026.337.036.124.01.466.05.76.09a59.632 59.632 0 0 0 1.21.15c.176.022.404.05.507.06.103.01.255.03.338.04.082.012.211.026.287.033.075.006.184.02.243.033.13.026.5.068.708.08.083.005.159.012.17.016.045.019.17.035.461.059l.314.026.105-.539c.058-.296.11-.572.116-.613.018-.136.057-.335.09-.469.019-.072.043-.194.055-.271.011-.077.037-.212.057-.3a7.17 7.17 0 0 0 .056-.273l.041-.225c.012-.062.037-.172.056-.244.032-.123.054-.251.097-.563.01-.072.033-.19.053-.262.036-.136.247-1.222.27-1.388a.465.465 0 0 1 .035-.132c.012-.02.034-.119.049-.219.014-.1.032-.21.04-.244.107-.5.216-1.05.219-1.1.004-.091.135-.096 2.294-.094 2.254.002 2.032-.025 2.094.25l.072.263c.038.134.077.278.086.319.01.041.044.168.076.281.032.114.06.228.063.254.003.025.017.046.033.046.015 0 .024.029.018.064-.005.035.023.166.063.29.04.126.08.27.089.322.01.051.027.119.04.15.03.073.053.157.058.216.002.025.018.046.034.046.017 0 .021.024.01.053-.011.029-.003.063.018.076.022.013.03.049.017.08-.011.03.002.083.03.116.028.034.046.064.039.066-.03.008.043.285.075.285.02 0 .026.015.015.033-.012.019.006.124.038.235.033.11.077.268.098.35.022.083.048.176.06.207.031.086.03.084.063.244a.634.634 0 0 0 .067.197c.02.026.026.047.013.047s.002.06.032.134a.678.678 0 0 1 .053.159.144.144 0 0 0 .005.054c.017.051.024.083.055.234a1.1 1.1 0 0 0 .061.21.83.83 0 0 1 .053.184.798.798 0 0 0 .058.19c.02.037.036.108.036.158s.012.102.028.118c.015.015.029.04.03.053.005.077.065.33.085.362a.175.175 0 0 1 .026.057c.001.01.026.124.055.253l.054.234.189-.02c.104-.011.24-.025.304-.03a.493.493 0 0 0 .15-.032.29.29 0 0 1 .135-.01 2.63 2.63 0 0 0 .394-.025c.162-.02.38-.043.482-.053.104-.009.264-.025.357-.036.314-.036.43-.048.75-.073.176-.015.345-.033.376-.041.03-.008.284-.04.563-.071.278-.03.574-.064.656-.075.14-.016.249-.029.694-.077l.713-.077.695-.074c.859-.083.918-.101.894-.27a6.353 6.353 0 0 1-.03-.31 3.308 3.308 0 0 0-.054-.374 4.322 4.322 0 0 1-.06-.377 15.95 15.95 0 0 0-.118-.92 5.965 5.965 0 0 1-.067-.468 3.989 3.989 0 0 0-.042-.291 3.459 3.459 0 0 1-.038-.263 5.115 5.115 0 0 0-.037-.272c-.01-.051-.035-.22-.056-.375a28.24 28.24 0 0 0-.098-.656 20.888 20.888 0 0 1-.07-.45c-.004-.042-.012-.075-.016-.075a1.54 1.54 0 0 1-.022-.217 1.108 1.108 0 0 0-.035-.25 1.213 1.213 0 0 1-.041-.252 6.178 6.178 0 0 0-.075-.493 2.233 2.233 0 0 1-.046-.3 4.544 4.544 0 0 0-.069-.552 3.274 3.274 0 0 1-.035-.244 2.546 2.546 0 0 0-.042-.262c-.026-.104-.03-.135-.069-.488a1.362 1.362 0 0 0-.05-.281.497.497 0 0 1-.028-.17c-.005-.15-.054-.534-.072-.563-.014-.022-.045-.232-.076-.505a8.302 8.302 0 0 0-.036-.282 78.878 78.878 0 0 1-.097-.703l-.083-.61h-1.763l.026.197c.015.109.035.282.044.385.01.103.026.213.038.244.011.03.029.132.04.225.01.092.052.405.093.694.041.289.082.593.091.675.009.082.025.192.036.244.01.051.028.161.039.244.01.082.027.189.038.237a4 4 0 0 1 .04.3c.011.117.061.466.111.776a29.553 29.553 0 0 1 .149 1.013l.035.244c.033.236.07.473.08.525.02.092.052.308.072.487.021.19.147 1.054.208 1.426.022.134.045.295.052.356.007.062.04.29.074.507l.08.506c.01.062.025.179.034.259.01.08.025.155.036.165.067.067-.139.12-.693.178a.39.39 0 0 0-.094.016.834.834 0 0 1-.131.018c-.492.045-.67.064-.77.084a2.008 2.008 0 0 1-.206.03 8.36 8.36 0 0 0-.6.083 2.68 2.68 0 0 1-.263.03 11.46 11.46 0 0 0-.656.075 9.146 9.146 0 0 1-.421.039l-.309.022-.022-.105a7.666 7.666 0 0 0-.122-.425 15.613 15.613 0 0 1-.174-.6 25.046 25.046 0 0 1-.121-.45 1.352 1.352 0 0 0-.085-.263c-.012-.01-.025-.044-.029-.075a7.711 7.711 0 0 0-.217-.769 5.07 5.07 0 0 1-.116-.413 2.709 2.709 0 0 0-.096-.318 1.538 1.538 0 0 1-.07-.226c-.05-.2-.057-.226-.089-.3a.755.755 0 0 1-.037-.13.906.906 0 0 0-.035-.132 3.189 3.189 0 0 1-.082-.3l-.066-.207a3.1 3.1 0 0 1-.112-.431c0-.01-.033-.1-.072-.198a.844.844 0 0 1-.063-.206c.016-.06-.092-.422-.126-.422-.02 0-.026-.016-.014-.035.012-.02-.003-.096-.034-.17-.03-.072-.048-.132-.04-.132s-.01-.06-.04-.131c-.03-.073-.044-.132-.031-.132.013 0 .003-.025-.023-.056-.026-.03-.032-.056-.014-.057.018 0 .007-.016-.024-.036-.032-.02-.628-.036-1.423-.037a45.893 45.893 0 0 1-1.377-.012 28.472 28.472 0 0 1-.02-1.434l.006-.15.895.002h.896l-.002-.683v-.684l-.135-.019a8.852 8.852 0 0 0-.678-.019c-.546 0-.913-.02-.968-.055-.016-.01-.026-.23-.021-.49l.008-.471h-1.496l-.004.234Z"/>
</svg>
