<svg>
  <path d="M40.192 10.936c-3.523 2.073-4.605 2.236-8.404 4.537 2.21-2.424 2.982-3.444 4.367-5.478-3.527.189-8.635.611-12.299 1.426 3.188-1.7 9.49-3.609 12.817-4.054-.772-1.066-7.01-4.475-8.567-5.117 4.937.384 10.98 2.226 13.9 4.038 1.18-.357 2.36-.386 4.494-.573-.543.943-.551 1.491-2.662 2.885.585 1.564-.805 10.18-1.948 12.473-.05-3.609-.37-8.166-1.698-10.137ZM14.483 41.84c-2.03-.75-3.486-1.628-5.079-3.13.48-1.32 1.025-2.368 1.922-3.687-1.652.237-2.847.417-4.262.697-1.158-2.032-1.669-3.978-2.259-6.685-.32 2.866-.435 4.919-.025 7.21-1.295.356-2.216.676-3.28 1.156 1.487.927 2.697 1.643 4.378 2.42.889 1.929 1.817 3.246 3.318 4.722-.357-1.26-.44-2.277-.312-3.596 1.88.55 3.471.824 5.599.893Zm5.252-28.66c-.64.821-1.362 2.35-1.556 3.061 5.191.72 9.377 3.396 9.377 3.396-4.568-.809-6.953-.71-8.647-.56-1.692.168-2.035.372-2.035.372-1.225 2.675-1.954 7.327-1.954 7.33-.83-2.001-2.03-6.015-2.03-6.018-2.293 1.24-7.563 6.223-7.567 6.226 2.9-5.842 5.836-8.517 5.839-8.517-1.012-1.016-3.664-1.526-5.602-1.615 1.01-.416 3.597-.905 5.583-.989 1.982-.063 3.181.06 3.184.06 1.781-1.412 4.467-2.6 5.408-2.746Zm5.508 25.045c-.924 1.242-1.704 2.234-2.726 3.38-1.751.475-3.144.656-4.846.666 1.044.544 2.06.879 3.144 1.094-1.084 1-2.014 1.713-3.071 2.386 1.775-.43 4.125-1.192 5.86-2.212.9.025 1.753-.032 2.376-.143-.15-.544-.263-.934-.395-1.631 1.643-1.278 2.838-2.429 4.187-3.81-1.445 1.015-2.702 1.783-4.362 2.576a38.65 38.65 0 0 1-.167-2.306Z"/>
</svg>
