<?xml version="1.0" encoding="UTF-8"?>
<svg width="48px" height="48px" viewBox="0 0 48 48" version="1.1" xmlns="http://www.w3.org/2000/svg" xmlns:xlink="http://www.w3.org/1999/xlink">
    <title>au-commbank</title>
    <g id="Page-1" stroke="none" stroke-width="1" fill="none" fill-rule="evenodd">
        <g id="au-commbank">
            <rect id="Rectangle" x="0" y="0" width="48" height="48"></rect>
            <path d="M24,1.5 L46.5,24 L24,46.5 L1.5,24 L24,1.5 Z M6.2282364,22.361661 C5.07879456,22.361661 4.3125,23.1279556 4.3125,24.2773974 C4.3125,25.4268393 5.07879456,26.1931338 6.2282364,26.1931338 C7.08104809,26.1931338 7.73610634,25.7852674 7.94621936,25.0807707 L7.00689055,24.7965002 C6.87093506,25.1672879 6.59902409,25.3774009 6.21587681,25.3774009 C5.67205486,25.3774009 5.32598635,24.9571749 5.32598635,24.2773974 C5.32598635,23.59762 5.67205486,23.1773939 6.21587681,23.1773939 C6.59902409,23.1773939 6.87093506,23.387507 7.00689055,23.7582947 L7.94621936,23.4740241 C7.73610634,22.7695275 7.08104809,22.361661 6.2282364,22.361661 Z M10.2080337,22.361661 C9.04623227,22.361661 8.26757812,23.1279556 8.26757812,24.2773974 C8.26757812,25.4391988 9.03387268,26.1931338 10.2080337,26.1931338 C11.3698351,26.1931338 12.1484893,25.4268393 12.1484893,24.2773974 C12.1484893,23.115596 11.3821947,22.361661 10.2080337,22.361661 Z M27.4867829,21.1875 L26.4980157,21.1875 L26.4980157,26.1313359 L27.3879062,26.1313359 L27.4373446,25.6245927 C27.7092555,25.9830208 28.1294816,26.1931338 28.6362248,26.1931338 C29.5755536,26.1931338 30.2182522,25.4268393 30.2182522,24.2773974 C30.2182522,23.115596 29.6002727,22.361661 28.6362248,22.361661 C28.1665603,22.361661 27.7710535,22.5470549 27.4867829,22.8807638 L27.4867829,21.1875 Z M32.3811909,22.361661 C31.7137731,22.361661 31.1575916,22.571774 30.7126463,22.9920001 L31.3059066,23.59762 C31.5901772,23.3133494 31.9362457,23.1650343 32.319393,23.1650343 C32.739619,23.1650343 32.9868108,23.325709 32.9868108,23.5605412 C32.9868108,23.7830138 32.6531019,23.8448118 32.2328759,23.8942501 C31.5407388,23.9807673 30.6384888,24.1538015 30.6384888,25.1178495 C30.6384888,25.7605482 31.1205128,26.1931338 31.8497286,26.1931338 C32.3935505,26.1931338 32.8755745,25.9706612 33.1351259,25.5998735 C33.2092835,25.9830208 33.4564752,26.156055 33.9137801,26.156055 C34.0991739,26.156055 34.1980506,26.1436955 34.2722082,26.1313359 L34.2722082,25.2785242 L34.1238931,25.2785242 C33.9879376,25.2785242 33.9137801,25.2043666 33.9137801,25.0684112 L33.9137801,23.6099796 C33.9137801,22.8313254 33.3452389,22.361661 32.3811909,22.361661 Z M17.4507637,22.361661 C16.8822226,22.361661 16.4125582,22.6212124 16.1530068,23.0414385 C15.9552533,22.6212124 15.5473869,22.361661 15.0282841,22.361661 C14.5215409,22.361661 14.1013149,22.571774 13.8294039,22.9178426 L13.7923251,22.423459 L12.9024347,22.423459 L12.9024347,26.1313359 L13.8912019,26.1313359 L13.8912019,24.017846 C13.8912019,23.5234624 14.2249108,23.1773939 14.6945752,23.1773939 C15.1148012,23.1773939 15.3249143,23.4740241 15.3249143,24.0054864 L15.3249143,26.1313359 L16.3136814,26.1313359 L16.3136814,24.017846 C16.3136814,23.5234624 16.6597499,23.1773939 17.1294144,23.1773939 C17.5372808,23.1773939 17.7597534,23.4740241 17.7597534,24.0054864 L17.7597534,26.1313359 L18.7485206,26.1313359 L18.7485206,23.7830138 C18.7485206,22.9302021 18.2294178,22.361661 17.4507637,22.361661 Z M24.2485542,22.361661 C23.6800131,22.361661 23.2103487,22.6212124 22.9507973,23.0414385 C22.7530439,22.6212124 22.3451774,22.361661 21.8260746,22.361661 C21.3193315,22.361661 20.8991054,22.571774 20.6271944,22.9178426 L20.5901157,22.423459 L19.7002252,22.423459 L19.7002252,26.1313359 L20.6889924,26.1313359 L20.6889924,24.017846 C20.6889924,23.5234624 21.0227013,23.1773939 21.4923657,23.1773939 C21.9125918,23.1773939 22.1227048,23.4740241 22.1227048,24.0054864 L22.1227048,26.1313359 L23.111472,26.1313359 L23.111472,24.017846 C23.111472,23.5234624 23.4575405,23.1773939 23.9272049,23.1773939 C24.3350713,23.1773939 24.557544,23.4740241 24.557544,24.0054864 L24.557544,26.1313359 L25.5463111,26.1313359 L25.5463111,23.7830138 C25.5463111,22.9302021 25.0272084,22.361661 24.2485542,22.361661 Z M37.1767215,22.361661 C36.6699783,22.361661 36.2250331,22.5841336 35.9407626,22.9425617 L35.9036838,22.423459 L35.0137933,22.423459 L35.0137933,26.1313359 L36.0025605,26.1313359 L36.0025605,24.017846 C36.0025605,23.5234624 36.3857078,23.1773939 36.8553722,23.1773939 C37.2755982,23.1773939 37.52279,23.4740241 37.52279,24.0054864 L37.52279,26.1313359 L38.5115572,26.1313359 L38.5115572,23.7830138 C38.5115572,22.9302021 37.9677353,22.361661 37.1767215,22.361661 Z M40.4520234,21.1875 L39.4632562,21.1875 L39.4632562,26.1313359 L40.4520234,26.1313359 L40.4520234,25.0313324 L40.9340474,24.561668 L41.9846125,26.1313359 L43.1464139,26.1313359 L41.6261844,23.8818905 L43.0969756,22.423459 L41.8610166,22.423459 L40.4520234,23.9066097 L40.4520234,21.1875 Z M32.9620917,24.3639145 L32.9620917,24.6852639 C32.9620917,25.0931303 32.5665848,25.4144797 32.0722012,25.4144797 C31.7632115,25.4144797 31.5901772,25.2661646 31.5901772,25.0189728 C31.5901772,24.6605447 31.9486053,24.5987467 32.3317526,24.5369488 C32.6036636,24.4875104 32.8137766,24.4504317 32.9620917,24.3639145 Z M10.2080337,23.1773939 C10.7765748,23.1773939 11.1350029,23.5852604 11.1350029,24.2773974 C11.1350029,24.9695344 10.7765748,25.3774009 10.2080337,25.3774009 C9.63949258,25.3774009 9.28106448,24.9695344 9.28106448,24.2773974 C9.28106448,23.5852604 9.63949258,23.1773939 10.2080337,23.1773939 Z M28.327235,23.1773939 C28.8834165,23.1773939 29.2171255,23.59762 29.2171255,24.2773974 C29.2171255,24.9571749 28.8834165,25.3774009 28.327235,25.3774009 C27.7710535,25.3774009 27.4497041,24.9571749 27.4497041,24.2773974 C27.4497041,23.59762 27.7710535,23.1773939 28.327235,23.1773939 Z" id="Combined-Shape" fill="#74ACDF" fill-rule="nonzero"></path>
        </g>
    </g>
</svg>