<?xml version="1.0" encoding="UTF-8"?>
<svg width="48px" height="48px" viewBox="0 0 48 48" version="1.1" xmlns="http://www.w3.org/2000/svg" xmlns:xlink="http://www.w3.org/1999/xlink">
    <title>bg-tavex</title>
    <g id="Page-1" stroke="none" stroke-width="1" fill="none" fill-rule="evenodd">
        <g id="bg-tavex">
            <rect id="Rectangle" x="0" y="0" width="48" height="48"></rect>
            <path d="M23.8691385,32.4881015 C32.4173387,32.4881015 39.347881,33.8632691 39.347881,35.5565507 C39.347881,37.25218 32.4173387,38.625 23.8691385,38.625 C15.3209384,38.625 8.39157681,37.25218 8.39157681,35.5565507 C8.39157681,33.8632691 15.3209384,32.4881015 23.8691385,32.4881015 Z M24.0924604,33.9856199 L23.6458164,33.9856199 C16.2904728,34.0034226 10.3646471,34.8978143 10.3646471,35.7490624 C10.3646471,36.8876989 16.4107911,38.1196567 23.8691385,38.1196567 C31.327486,38.1196567 37.3730395,36.8876989 37.3730395,35.7490624 C37.3730395,34.8892158 31.327486,33.9853497 23.8691385,33.9853497 L24.0924604,33.9856199 Z M1.5,17.1969175 C2.95116901,19.0298875 4.94549321,20.0241402 7.0673408,20.6691719 C6.31696008,22.1353131 6.03888825,24.2018797 5.98870542,25.127462 C5.94029375,26.0301543 5.91018408,27.3824319 6.26500614,28.4453549 L6.53481256,28.3426428 C6.01704395,26.5824517 6.16345972,22.3436719 9.25885399,21.5014331 C10.5010263,21.1627767 12.3341751,21.4362842 13.1258829,22.9945729 C13.772946,24.2693762 13.6956055,26.7004238 10.541763,26.9005655 C10.9768775,26.4674142 11.3063129,25.5435926 10.8381368,24.6960714 C10.5329072,24.1414263 9.93307491,23.9712178 9.09649779,24.326308 C7.6577269,24.937298 7.06970237,27.492774 7.15885064,28.2082368 C7.33891843,28.2469739 7.49832267,28.3696414 7.56857859,28.5521754 C7.64296726,28.7452741 7.5986883,28.9542198 7.47234566,29.1091683 C8.00664508,29.8140664 8.92764737,30.5119215 9.76776679,30.2759772 C11.1055817,29.9109092 11.2809264,28.7188624 10.243618,28.0069212 C12.9771056,28.357316 12.9658883,31.4398515 10.6527555,31.9903882 C8.79540088,32.4335173 7.53787853,30.8370785 6.93804628,29.3873712 C6.93804628,29.3873712 6.70130145,29.4877355 6.67001096,29.500648 C7.25508361,31.1334762 8.14538584,32.1089472 9.23700968,32.66594 C8.65016594,33.1143515 8.29770541,33.7136029 8.12472232,34.3533523 L1.5,17.1969175 Z M46.2359155,17.1969175 L39.6111932,34.3533523 C39.4382101,33.7136029 39.0869303,33.1143515 38.4989058,32.66594 C39.5905297,32.1089472 40.4820127,31.1334762 41.0664949,29.500648 C41.034614,29.4877355 40.7978693,29.3873712 40.7978693,29.3873712 C40.198037,30.8370785 38.941105,32.4335173 37.0825696,31.9903882 C34.7706176,31.4398515 34.7588099,28.357316 37.4934783,28.0069212 C36.4549891,28.7188624 36.6309242,29.9109092 37.9693294,30.2759772 C38.8088585,30.5119215 39.72868,29.8140664 40.2647506,29.1091683 C40.1372272,28.9542198 40.0929482,28.7452741 40.1667465,28.5521754 C40.2375929,28.3696414 40.3964067,28.2469739 40.5782456,28.2082368 C40.6662131,27.492774 40.0775982,24.937298 38.6394177,24.326308 C37.8022502,23.9712178 37.2035987,24.1414263 36.8983691,24.6960714 C36.430193,25.5435926 36.7584476,26.4674142 37.1947429,26.9005655 C34.0397196,26.7004238 33.9635598,24.2693762 34.6088519,22.9945729 C35.4011501,21.4362842 37.2342988,21.1627767 38.4776519,21.5014331 C41.5718653,22.3436719 41.7188715,26.5824517 41.2011029,28.3426428 L41.4697286,28.4453549 C41.8251411,27.3824319 41.7956218,26.0301543 41.74721,25.127462 C41.6970272,24.2018797 41.4195458,22.1353131 40.6697554,20.6691719 C42.7910129,20.0241402 44.7841561,19.0298875 46.2359155,17.1969175 L46.2359155,17.1969175 Z M23.8691385,9.75 C24.706306,12.4334258 26.5158393,14.407845 28.6211562,16.0447817 C27.1416486,17.3700607 25.9319475,19.5739679 25.4732175,20.5940453 C25.0268856,21.5865373 24.4069802,23.0955241 24.3432186,24.4436933 L24.6927271,24.4436933 C24.8739756,22.2409598 26.8795172,17.5379215 30.7252921,17.9182496 C32.2691518,18.0720242 34.2109317,19.1660543 34.4246514,21.2578587 C34.5988153,22.969335 33.4558278,25.6686078 29.8237726,24.5405361 C30.5009454,24.2394429 31.2719896,23.3437939 31.1131759,22.1898973 C31.011039,21.4351104 30.4117972,20.986112 29.3160406,21.0271968 C27.4327089,21.0958672 25.6615507,23.7176657 25.4507828,24.5587307 C25.6373449,24.6796375 25.7625068,24.8862355 25.7625068,25.1221797 C25.7625068,25.3710363 25.6219948,25.5864382 25.4129982,25.7055842 C25.7076008,26.7285962 26.44027,27.9089045 27.4876149,28.0045735 C29.1501421,28.1683258 29.8639188,26.9029133 29.0066782,25.6556955 C31.9302702,27.2233749 30.5771053,30.6850646 27.7379386,30.3123667 C25.4572771,30.0130343 24.7370061,27.6776556 24.6927271,25.7901016 C24.6927271,25.7901016 24.3815936,25.80184 24.3402666,25.80184 C24.2889031,27.8907098 24.8680717,29.3685896 25.8528357,30.4632065 C24.9973663,30.7161718 24.3420377,31.2385359 23.8691385,31.8841546 C23.3950585,31.2385359 22.7385492,30.7161718 21.8836701,30.4632065 C22.8696149,29.3685896 23.4470124,27.8907098 23.39742,25.80184 C23.3543218,25.80184 23.0449596,25.7901016 23.0449596,25.7901016 C22.9989094,27.6776556 22.2798191,30.0130343 19.9979769,30.3123667 C17.1588102,30.6850646 15.8068261,27.2233749 18.7292373,25.6556955 C17.872587,26.9029133 18.5869542,28.1683258 20.2494815,28.0045735 C21.2962359,27.9089045 22.0294954,26.7285962 22.3235077,25.7055842 C22.1139207,25.5864382 21.9739992,25.3710363 21.9739992,25.1221797 C21.9739992,24.8862355 22.099161,24.6796375 22.2863134,24.5587307 C22.0749552,23.7176657 20.3032066,21.0958672 18.4204653,21.0271968 C17.3252991,20.986112 16.7260572,21.4351104 16.6221493,22.1898973 C16.4645162,23.3437939 17.2361508,24.2394429 17.9133236,24.5405361 C14.2800877,25.6686078 13.1365098,22.969335 13.3124449,21.2578587 C13.5243934,19.1660543 15.4679445,18.0720242 17.0106234,17.9182496 C20.8569887,17.5379215 22.8631206,22.2409598 23.0449596,24.4436933 L23.3926969,24.4436933 C23.3295256,23.0955241 22.7090299,21.5865373 22.262698,20.5940453 C21.8045584,19.5739679 20.5948573,17.3700607 19.1147593,16.0447817 C21.2194857,14.407845 23.0301999,12.4334258 23.866777,9.75 L23.8691385,9.75 Z" id="path-1" fill="#000000" fill-rule="nonzero"></path>
        </g>
    </g>
</svg>