<?xml version="1.0" encoding="UTF-8"?>
<svg width="48px" height="48px" viewBox="0 0 48 48" version="1.1" xmlns="http://www.w3.org/2000/svg" xmlns:xlink="http://www.w3.org/1999/xlink">
    <title>boq</title>
    <g id="Page-1" stroke="none" stroke-width="1" fill="none" fill-rule="evenodd">
        <g id="boq">
            <rect id="Rectangle" x="0" y="0" width="48" height="48"></rect>
            <path d="M9.39237607,23.3113691 C9.54392774,23.3847005 9.69303503,23.4506988 9.83480918,23.528919 C10.5363468,23.9200201 10.934781,24.5311156 11.0912214,25.3035403 C11.2256625,25.9708565 11.2085518,26.633284 10.9738911,27.2810452 C10.6390108,28.1976884 10.0181378,28.8601158 9.13571597,29.270772 C8.82283509,29.4174349 8.48062164,29.4761001 8.13840818,29.5274321 C7.86463741,29.5689866 7.59086664,29.5958748 7.31465149,29.6032079 C5.41047804,29.6520956 3.50630458,29.6105411 1.60213112,29.6252074 C1.51902214,29.6252074 1.49213394,29.5958748 1.50191146,29.5200989 C1.50435584,29.4956551 1.50191146,29.4712113 1.50191146,29.4467675 C1.50191146,25.7044189 1.50191146,21.9596259 1.50191146,18.2172773 C1.50191146,17.9166183 1.50191146,17.9166183 1.79768167,17.9166183 C3.63096805,17.9166183 5.46425444,17.9141739 7.29754082,17.9166183 C7.97707898,17.9166183 8.63706207,18.0241711 9.24815754,18.337052 C10.1819114,18.8161508 10.6756765,19.598353 10.7856737,20.6323266 C10.8272282,21.0209833 10.7930069,21.4047512 10.7001204,21.7836304 C10.5339024,22.4313916 10.1452457,22.9056017 9.55614965,23.2184825 C9.50481763,23.2453707 9.45592999,23.2722589 9.40459797,23.2991471 C9.40215359,23.3015915 9.39970921,23.3040359 9.39237607,23.3113691 Z M5.60847297,24.4944499 C5.60847297,24.4920055 5.60847297,24.4871167 5.60847297,24.4846723 C5.06826458,24.4846723 4.52561181,24.4871167 3.98540342,24.482228 C3.88518376,24.482228 3.85585118,24.5066718 3.85585118,24.6093358 C3.86073994,25.5650891 3.86073994,26.5232868 3.85585118,27.4790401 C3.85585118,27.5865929 3.89251691,27.6012592 3.9878478,27.6012592 C4.9167129,27.5988148 5.84313362,27.5988148 6.77199872,27.5988148 C6.94310545,27.5988148 7.11421218,27.5963704 7.28287453,27.574371 C7.86708179,27.4937064 8.35351378,27.2639345 8.58817444,26.6772829 C8.71283791,26.3619576 8.74950364,26.0319661 8.70794915,25.6946414 C8.65661713,25.2619858 8.43417838,24.9466605 8.05774358,24.7339993 C7.80108348,24.5897808 7.52242395,24.5042274 7.23398689,24.4968943 C6.69133412,24.4846723 6.15112574,24.4944499 5.60847297,24.4944499 Z M5.47403196,19.9478996 C5.47403196,19.9454553 5.47403196,19.9454553 5.47403196,19.9430109 C4.97293369,19.9430109 4.47183541,19.9454553 3.97073713,19.9405665 C3.87785062,19.9405665 3.85585118,19.9650103 3.85585118,20.0554524 C3.85829556,20.8303215 3.86073994,21.6027461 3.85585118,22.3776152 C3.85585118,22.4802792 3.89251691,22.4949455 3.98051466,22.4949455 C4.89226908,22.4925011 5.80402351,22.4925011 6.71822232,22.4925011 C7.03354758,22.4925011 7.34398408,22.4582798 7.63975428,22.3433938 C8.0137447,22.1991753 8.28262671,21.9547371 8.39751265,21.5587473 C8.44395591,21.3998625 8.43417838,21.2360889 8.431734,21.0747597 C8.42195647,20.6396597 8.22640592,20.3218901 7.82797168,20.136117 C7.52731272,19.9967873 7.20465431,19.9527884 6.87710714,19.9478996 C6.41023021,19.9430109 5.9409089,19.9478996 5.47403196,19.9478996 Z M34.281072,28.8747821 C33.8361945,29.2854383 33.454871,29.7303158 33.0295485,30.1434163 C32.7679997,29.8525349 32.4697851,29.6080967 32.1984587,29.3343259 C32.0615733,29.1949962 31.9149104,29.0678883 31.7755806,28.9334473 C31.7389149,28.8967816 31.7095823,28.8894484 31.6606947,28.9163366 C31.3624801,29.084999 31.0495992,29.2169956 30.7220521,29.3245484 C30.465392,29.4101018 30.2038431,29.4785445 29.9398499,29.5274321 C29.460751,29.6178742 28.9767634,29.6203186 28.4903314,29.6032079 C28.0870084,29.5885416 27.6959073,29.5200989 27.3072506,29.4198793 C26.9039276,29.3147709 26.5152709,29.1632192 26.1461692,28.9652243 C25.613294,28.6792316 25.1561946,28.3003524 24.7626491,27.8383642 C24.2004413,27.1783811 23.8802273,26.4059565 23.6871211,25.5748666 C23.6211228,25.288874 23.5844571,24.9931038 23.5551245,24.6997779 C23.4964593,24.1473476 23.5013481,23.5949174 23.5380138,23.0424871 C23.6015677,22.1185107 23.8093402,21.2312001 24.2542177,20.4074434 C24.5157666,19.9234558 24.8530912,19.495689 25.2661918,19.1339205 C25.9457299,18.5423801 26.7499316,18.2001666 27.6274646,18.016838 C28.1432292,17.9092852 28.6663269,17.8628419 29.191869,17.8970633 C30.330951,17.9728391 31.3893683,18.2954975 32.3011227,19.009257 C32.9659946,19.5299103 33.4402047,20.199671 33.7481968,20.9843175 C33.9730799,21.5587473 34.1050765,22.1527321 34.1686305,22.7662719 C34.2150737,23.208705 34.22974,23.6511381 34.2126293,24.0935712 C34.178408,24.8782178 34.0659664,25.6530869 33.7921957,26.3912902 C33.6308665,26.8263902 33.4255384,27.2468238 33.1297682,27.6134811 C33.0686586,27.6892569 33.0686586,27.7381446 33.1468789,27.8090317 C33.4939811,28.1316901 33.8361945,28.4616816 34.178408,28.7867844 C34.210185,28.8234501 34.2444063,28.8454496 34.281072,28.8747821 Z M31.3844795,26.1248526 C31.4162565,26.0612986 31.4504779,25.9977447 31.4798104,25.9317464 C31.5213649,25.8364155 31.5653638,25.7410846 31.6020295,25.6433093 C31.8782447,24.8782178 31.9100216,24.0837937 31.8758003,23.2820365 C31.8684671,23.0889303 31.8318014,22.8958241 31.8049132,22.702718 C31.7413593,22.2553961 31.6142514,21.8300737 31.4113677,21.4267507 C31.2109284,21.0332052 30.9469352,20.6958805 30.5851667,20.4294429 C30.2918409,20.2118929 29.9716268,20.0530081 29.6171915,19.9674547 C29.2725336,19.8843457 28.9278758,19.8525687 28.570996,19.8892345 C27.7301287,19.9747878 27.0554793,20.3414451 26.5617142,21.0307608 C26.0728378,21.7127433 25.9041754,22.4998343 25.862621,23.3138134 C25.8332884,23.8857988 25.8357328,24.4577841 25.9579518,25.0248807 C26.0581715,25.4917577 26.2097232,25.9366352 26.4590501,26.3448469 C26.7254877,26.7823913 27.0897006,27.1246047 27.5468,27.3470435 C27.9330124,27.5328165 28.3436685,27.6330362 28.7787685,27.6452581 C29.2163128,27.65748 29.6245246,27.5694822 30.0229589,27.4032643 C30.1060678,27.3690429 30.1231785,27.3519322 30.0498471,27.2810452 C29.7174111,26.9706087 29.389864,26.652839 29.0549836,26.3448469 C29.0085404,26.3032924 29.0085404,26.2861818 29.0476505,26.2446273 C29.4167522,25.8608593 29.7858538,25.4770914 30.1525111,25.090879 C30.1989543,25.0419914 30.2307313,25.0468802 30.2698414,25.0933234 C30.4116156,25.2668745 30.5876111,25.4037599 30.753829,25.5528672 C30.9616015,25.743529 31.1449301,25.9561902 31.3844795,26.1248526 Z M11.8954231,23.8466887 C11.8880899,22.856714 12.0005315,21.9180714 12.3525225,21.025872 C12.9025084,19.6252412 13.8973718,18.689043 15.3224464,18.2099441 C16.6937446,17.7504004 18.0601541,17.7772886 19.4070085,18.2954975 C20.82475,18.8405947 21.7560594,19.8599019 22.2400471,21.2923097 C22.3842656,21.7200765 22.4820409,22.1625096 22.5333729,22.6122758 C22.5944824,23.1524842 22.623815,23.695137 22.5871493,24.2402342 C22.5382616,24.9539937 22.4355976,25.6628644 22.1911594,26.3375138 C22.0078308,26.8386121 21.7756145,27.3201553 21.4187348,27.7283671 C20.8931927,28.3272406 20.2845416,28.8258945 19.5610045,29.1705523 C19.2163467,29.3367703 18.8448007,29.4296568 18.4708102,29.507877 C17.8768255,29.6300961 17.2730631,29.6447624 16.6741896,29.5983192 C16.0948711,29.5543203 15.5326633,29.4125461 14.9900105,29.1901074 C14.5597993,29.0116675 14.1564763,28.7867844 13.7971522,28.495903 C13.3791629,28.1585783 13.0222831,27.760144 12.7411792,27.2981558 C12.5211848,26.9363873 12.3476337,26.5526194 12.2229702,26.1492964 C12.1105287,25.7924166 12.0347528,25.4282037 11.9760877,25.0566577 C11.907645,24.6411128 11.9052006,24.2255679 11.8954231,23.8466887 Z M17.3757272,27.6525912 C17.6714974,27.6648131 18.0772648,27.5474828 18.4634771,27.3494879 C18.6810271,27.2370463 18.8716889,27.087939 19.0525731,26.9266098 C19.4558961,26.5672857 19.7981096,26.1664071 19.9716607,25.640865 C20.1892107,24.9833262 20.2820972,24.3111212 20.2405427,23.6193612 C20.2258764,23.3675898 20.2332096,23.1133741 20.2014326,22.8591584 C20.1549893,22.4925011 20.0743247,22.1356214 19.9423281,21.7909635 C19.7589995,21.3118647 19.4901175,20.8889866 19.096572,20.5467732 C18.7788024,20.270558 18.4170338,20.0823406 18.0185996,19.9747878 C17.6714974,19.8819013 17.317062,19.8501244 16.9504047,19.8867901 C16.5984138,19.9234558 16.2659778,20.0065648 15.9530969,20.1581165 C15.2564481,20.4929968 14.814015,21.057649 14.5426886,21.7665197 C14.3618044,22.2456186 14.2689179,22.7393837 14.2420296,23.2478151 C14.2126971,23.829578 14.2078083,24.4064521 14.3251386,24.9808819 C14.4204695,25.4355369 14.5549105,25.8730812 14.7920156,26.2739599 C14.9704554,26.5770632 15.185561,26.850834 15.466665,27.0634952 C15.9897627,27.4570407 16.5813031,27.6477025 17.3757272,27.6525912 Z M35.8699202,17.6306256 C36.092359,17.6721801 36.3221309,17.6306256 36.5421252,17.7137346 C36.7205651,17.7797329 36.8794499,17.8677307 36.9992246,18.0192824 C37.0041134,18.0290599 37.0090022,18.0388374 37.0175122,18.0435451 L37.033446,18.0461706 L37.056,18.097 L37.1137287,18.1331753 C37.2152469,18.2126941 37.2968281,18.3162748 37.3976589,18.4006059 C37.6812072,18.6352666 37.9452004,18.8894823 38.2189712,19.1339205 L38.812956,19.681462 C39.0378391,19.8770126 39.2529447,20.084785 39.4802722,20.2778912 C39.6807115,20.4489979 39.8713733,20.6372153 40.0669239,20.8156552 C40.2013649,20.9354299 40.3284727,21.0649821 40.4726913,21.1749793 C40.5655778,21.2483108 40.6462424,21.3436417 40.7366845,21.4218619 C40.8222379,21.4951933 40.9151244,21.5611917 40.995789,21.6320787 C41.0813423,21.7078546 41.1595626,21.8031855 41.2475603,21.8838501 C41.7339923,22.3238388 42.2228687,22.7638275 42.711745,23.2038163 C43.012404,23.4751426 43.3106186,23.7513578 43.6112775,24.0251286 C43.6137219,24.0275729 43.6161663,24.0324617 43.6186107,24.0349061 C43.953491,24.2817886 44.2199286,24.6044471 44.542587,24.8659959 C44.7234713,25.0102144 44.8896892,25.1764324 45.060796,25.3328728 C45.3834544,25.6261987 45.7305566,25.8999694 46.0263268,26.2201835 C46.2756538,26.4915098 46.5616464,26.7750581 46.488315,27.2101581 C46.4809818,27.2810452 46.488315,27.3543766 46.488315,27.4277081 L46.485,27.426 L46.4850707,28.4285559 C46.4907594,28.8796709 46.4907594,29.3294372 46.4956481,29.7792034 C46.4956481,29.840313 46.488315,29.8769787 46.4125391,29.8745343 L46.0584093,29.8690345 L45.7061128,29.8672012 C45.6645583,29.8672012 45.6254482,29.8696456 45.5838937,29.8696456 C42.8510748,29.8696456 40.1182559,29.8696456 37.385437,29.8745343 C37.2729954,29.8745343 37.2485516,29.8427574 37.2485516,29.7352046 C37.2509943,28.7825623 37.248555,27.82992 37.2485516,26.8772777 L37.270551,26.8777222 C36.8036741,26.8777222 36.3343528,26.8728334 35.8674759,26.8777222 C35.7550343,26.8801666 35.7257017,26.8483896 35.7257017,26.735948 C35.7281461,24.9906594 35.7281461,23.2429264 35.7281461,21.4976377 C35.7281461,20.2558917 35.7257017,19.0141458 35.7183686,17.7723998 C35.7183686,17.6501807 35.7550343,17.6086262 35.8699202,17.6306256 Z" id="Combined-Shape" fill="#1C75BC" fill-rule="nonzero"></path>
        </g>
    </g>
</svg>