<?xml version="1.0" encoding="UTF-8"?>
<svg width="48px" height="48px" viewBox="0 0 48 48" version="1.1" xmlns="http://www.w3.org/2000/svg" xmlns:xlink="http://www.w3.org/1999/xlink">
    <title>bs-cbb</title>
    <g id="Page-1" stroke="none" stroke-width="1" fill="none" fill-rule="evenodd">
        <g id="bs-cbb">
            <polygon id="Path" points="0 0 48 0 48 48 5.55111512e-17 48"></polygon>
            <path d="M26.3002587,2.05415137 C27.1202587,2.10415137 27.9312587,2.24415137 28.7382587,2.40115137 C28.9982587,2.45115137 29.2512587,2.53315137 29.5152587,2.55615137 C29.5422587,2.59615137 29.5592587,2.66615137 29.6252587,2.59415137 C29.9712587,2.68815137 30.3192587,2.78015137 30.6652587,2.88115137 C31.8442587,3.21815137 32.9872587,3.65115137 34.0972587,4.17115137 C36.110996,5.0936106 37.9766588,6.30986364 39.6332587,7.78015137 C40.0102587,8.11715137 40.3832587,8.46315137 40.7302587,8.83115137 C41.5202587,9.66915137 42.2532587,10.5491514 42.8832587,11.5141514 C43.2002587,12.0001514 43.4932587,12.4981514 43.7652587,13.0101514 C43.8412587,13.1501514 43.8642587,13.3131514 43.9602587,13.4431514 C43.9542587,13.4681514 43.9662587,13.4791514 43.9902587,13.4771514 C44.2492587,13.9621514 44.4522587,14.4741514 44.6492587,14.9871514 C44.8712587,15.5651514 45.0622587,16.1551514 45.2212587,16.7541514 C45.2402587,16.8211514 45.2462587,16.8901514 45.2582587,16.9601514 C45.2312587,17.0221514 45.2782587,17.0431514 45.3212587,17.0661514 L45.3862587,17.4621514 C45.3562587,17.5251514 45.4062587,17.5461514 45.4472587,17.5721514 L45.4992587,17.9021514 L45.6392587,18.5531514 C45.8242587,19.4851514 45.9272587,20.4231514 45.9602587,21.3731514 C46.0002587,22.5231514 46.0102587,23.6731514 45.9902587,24.8231514 C45.9812587,25.3161514 45.9482587,25.8111514 45.9252587,26.3031514 C45.9012587,26.3281514 45.9012587,26.3551514 45.9182587,26.3841514 C45.8242587,26.9541514 45.7382587,27.5261514 45.6252587,28.0941514 C45.2585096,29.9762103 44.6641428,31.8066585 43.8552587,33.5451514 C43.8472587,33.5651514 43.8322587,33.5811514 43.8222587,33.5981514 C43.7972587,33.5961514 43.7862587,33.6061514 43.7922587,33.6311514 C43.6962587,33.7651514 43.6902587,33.9391514 43.6002587,34.0771514 C43.5602587,34.1401514 43.5242587,34.2071514 43.4872587,34.2721514 C43.4642587,34.2681514 43.4532587,34.2781514 43.4592587,34.3021514 C42.6796706,35.886827 41.6908362,37.3596521 40.5192587,38.6811514 C38.9980135,40.4096454 37.1784039,41.8505649 35.1472587,42.9351514 C33.3892587,43.8811514 31.5342587,44.5681514 29.6052587,45.0671514 C28.5727114,45.3343303 27.5269652,45.5476184 26.4722587,45.7061514 C25.4622587,45.8561514 24.4442587,45.9001514 23.4242587,45.9061514 C22.6222587,45.9111514 21.8202587,45.9091514 21.0182587,45.8581514 C19.9539845,45.7839691 18.8973098,45.6251335 17.8582587,45.3831514 C17.4092587,45.2831514 16.9652587,45.1611514 16.5212587,45.0351514 C15.719073,44.8053129 14.9338449,44.5199577 14.1712587,44.1811514 C12.5562587,43.4711514 11.0522587,42.5811514 9.70625867,41.4351514 C9.51725867,41.2741514 9.34325867,41.0981514 9.13425867,40.9571514 C9.02925867,40.8871514 8.96025867,40.7611514 8.86225867,40.6731514 C8.68625867,40.5161514 8.49725867,40.3691514 8.33225867,40.2011514 C8.07425867,39.9401514 7.83525867,39.6611514 7.58225867,39.3951514 C6.49306149,38.2484807 5.51533059,37.0008692 4.66225867,35.6691514 C4.34425867,35.1771514 4.05725867,34.6661514 3.76625867,34.1571514 C3.63225867,33.9221514 3.51925867,33.6791514 3.39925867,33.4381514 C2.6471202,31.9147315 2.05882405,30.3157727 1.64425867,28.6681514 C1.47425867,28.0061514 1.33825867,27.3381514 1.22125867,26.6651514 C1.14529096,26.1896427 1.0922297,25.7107565 1.06225867,25.2301514 C0.987258669,24.2421514 0.992258669,23.2501514 1.01425867,22.2581514 C1.03425867,21.2081514 1.21325867,20.1771514 1.45225867,19.1571514 C1.81425867,17.6151514 2.35225867,16.1371514 3.04325867,14.7141514 C3.94919612,12.8480609 5.10037903,11.1113654 6.46625867,9.55015137 C6.86425867,9.09515137 7.24525867,8.62415137 7.69125867,8.21315137 C9.10925867,6.90315137 10.6212587,5.71915137 12.3382587,4.81615137 C13.4371234,4.23783765 14.5792204,3.74569279 15.7542587,3.34415137 C17.12001,2.87902687 18.5217477,2.52717099 19.9452587,2.29215137 C20.5722587,2.18815137 21.2022587,2.12215137 21.8302587,2.04115137 C21.8602587,2.06015137 21.8872587,2.06215137 21.9122587,2.03915137 C22.3712587,2.02415137 22.8292587,2.00115137 23.2902587,2.00115137 C24.2932587,1.99915137 25.2972587,1.99315137 26.3002587,2.05415137 L26.3002587,2.05415137 Z M22.6742587,3.77715137 C21.8262587,3.85715137 20.9902587,4.01815137 20.1612587,4.20715137 C18.4974936,4.59053404 16.8598435,5.07952441 15.2582587,5.67115137 C14.2422587,6.04115137 13.2392587,6.44815137 12.3032587,6.99415137 C10.9542587,7.78215137 9.76425867,8.75815137 8.77625867,9.97315137 C8.40625867,10.4271514 8.05125867,10.8941514 7.67825867,11.3471514 C7.41625867,11.6651514 7.14825867,11.9771514 6.92625867,12.3251514 C6.52625867,12.9491514 6.23725867,13.6151514 6.14125867,14.3561514 C6.11125867,14.5861514 6.11125867,14.8171514 6.12425867,15.0461514 C6.13125867,15.1901514 6.07825867,15.2661514 5.95425867,15.3181514 C5.86425867,15.3551514 5.78125867,15.4061514 5.69425867,15.4521514 C5.20571564,15.6988367 4.80696161,16.0926937 4.55425867,16.5781514 C4.07164155,17.4934933 3.75251819,18.4860583 3.61125867,19.5111514 C3.4737592,20.5271648 3.39363213,21.5501203 3.37125867,22.5751514 C3.34125867,23.5451514 3.39325867,24.5151514 3.47525867,25.4821514 C3.55525867,26.4411514 3.66125867,27.3961514 3.81225867,28.3471514 C4.03225867,29.7481514 4.34625867,31.1241514 4.77825867,32.4751514 C4.81925867,32.6071514 4.87425867,32.7371514 4.88425867,32.8791514 C4.87025867,32.9091514 4.88925867,32.9111514 4.90925867,32.9111514 C4.91625867,32.9421514 4.91925867,32.9741514 4.92625867,33.0051514 C4.91425867,33.0351514 4.93025867,33.0361514 4.95125867,33.0361514 C4.96025867,33.0561514 4.97225867,33.0741514 4.97925867,33.0931514 C5.3992892,34.3160592 5.88875125,35.5140059 6.44525867,36.6811514 C6.50325867,36.8041514 6.58125867,36.9241514 6.59525867,37.0661514 C6.58725867,37.0911514 6.60025867,37.1001514 6.62525867,37.0971514 C6.64525867,37.1331514 6.66925867,37.1671514 6.68525867,37.2041514 C6.99125867,37.8811514 7.36025867,38.5171514 7.85625867,39.0771514 C7.85025867,39.1001514 7.85625867,39.1061514 7.87925867,39.1001514 C8.30225867,39.4911514 8.79325867,39.7601514 9.35425867,39.8961514 C9.75425867,39.9941514 10.1622587,40.0511514 10.5732587,40.0841514 C10.8372587,40.1051514 11.1012587,40.1321514 11.3642587,40.1541514 C11.4482587,40.1591514 11.4922587,40.1971514 11.5112587,40.2731514 C11.5822587,40.5431514 11.7372587,40.7671514 11.9132587,40.9741514 C12.2902587,41.4181514 12.6942587,41.8311514 13.2622587,42.0361514 C13.4922587,42.1181514 13.7222587,42.1961514 13.9572587,42.2601514 C14.7872587,42.4861514 15.6312587,42.6331514 16.4792587,42.7571514 C17.1292587,42.8491514 17.7792587,42.9201514 18.4332587,42.9661514 C19.3274585,43.0317172 20.2246143,42.8875559 21.0532587,42.5451514 C21.4585309,42.3727271 21.8884964,42.2654045 22.3272587,42.2271514 C22.8372587,42.1871514 23.3272587,42.2771514 23.7992587,42.4721514 C24.567072,42.7920715 25.3925666,42.9503622 26.2242587,42.9371514 C27.4392587,42.9241514 28.6522587,42.9571514 29.8672587,42.8971514 C30.3961693,42.8775714 30.9236189,42.8291662 31.4472587,42.7521514 C32.0263213,42.6633136 32.5926781,42.505526 33.1342587,42.2821514 C33.8314243,41.9969035 34.4130054,41.4864359 34.7862587,40.8321514 C34.9182587,40.6081514 35.0212587,40.3711514 35.0962587,40.1241514 C35.1282587,40.0191514 35.1722587,39.9921514 35.2762587,40.0361514 C35.4192587,40.0921514 35.5682587,40.1301514 35.7122587,40.1831514 C36.0022587,40.2851514 36.2992587,40.3631514 36.6042587,40.4051514 C37.2122587,40.4881514 37.7672587,40.3841514 38.2422587,39.9561514 C38.5402587,39.6881514 38.8062587,39.3951514 39.0462587,39.0761514 C39.9782587,37.8511514 40.7352587,36.5191514 41.3922587,35.1311514 C41.7362587,34.4061514 42.0252587,33.6581514 42.2762587,32.8961514 C42.9362587,30.8921514 43.3152587,28.8331514 43.4742587,26.7321514 C43.5412587,25.8341514 43.5372587,24.9331514 43.5542587,24.0321514 C43.5664181,23.4108125 43.5620832,22.7892602 43.5412587,22.1681514 C43.5182587,21.4651514 43.5352587,20.7571514 43.4412587,20.0581514 C43.3442587,19.3491514 43.0842587,18.7131514 42.5732587,18.1931514 C42.3732587,17.9881514 42.1482587,17.8121514 41.9352587,17.6211514 C41.761455,17.4697967 41.5955683,17.3095842 41.4382587,17.1411514 C41.2332587,16.9161514 41.1662587,16.6611514 41.2752587,16.3691514 C41.3212587,16.2451514 41.3672587,16.1191514 41.4152587,15.9991514 C41.5872587,15.5611514 41.6542587,15.1101514 41.5552587,14.6451514 C41.4925089,14.3590584 41.3926646,14.0823854 41.2582587,13.8221514 C40.5022587,12.3201514 39.5532587,10.9631514 38.3282587,9.80115137 C38.0962587,9.58115137 37.8782587,9.34615137 37.6282587,9.14315137 C36.3872587,8.11515137 35.0292587,7.26715137 33.6012587,6.52315137 C33.3792587,6.40815137 33.1342587,6.34315137 32.9272587,6.20515137 C32.6872587,6.04515137 32.4262587,5.93715137 32.1702587,5.81715137 C31.4434412,5.47886694 30.7053495,5.16535307 29.9572587,4.87715137 C29.0602587,4.52515137 28.1662587,4.17315137 27.2382587,3.91715137 C26.4462587,3.69715137 25.6902587,3.79015137 24.9932587,4.24915137 C24.9066946,4.3077727 24.8124782,4.35420792 24.7132587,4.38715137 C24.4532587,4.46715137 24.2262587,4.42715137 24.0192587,4.23215137 C23.6617592,3.8865982 23.1681224,3.71960582 22.6742587,3.77715137 L22.6742587,3.77715137 Z M26.5362587,4.52515137 C26.5622587,4.56715137 26.5832587,4.61315137 26.6462587,4.58415137 C26.6752587,4.58615137 26.7042587,4.58815137 26.7332587,4.58815137 C26.7422587,4.63815137 26.7732587,4.64015137 26.8132587,4.62615137 C26.9912587,4.64015137 27.1542587,4.70615137 27.3202587,4.76415137 C27.3222587,4.78415137 27.3262587,4.80415137 27.3552587,4.79115137 L27.4482587,4.80615137 C27.4482587,4.82615137 27.4522587,4.84615137 27.4812587,4.83115137 C27.5122587,4.83715137 27.5442587,4.84115137 27.5752587,4.84815137 C27.5752587,4.86815137 27.5792587,4.88815137 27.6072587,4.87315137 L27.7012587,4.88915137 C27.7012587,4.91215137 27.7052587,4.92915137 27.7342587,4.91715137 L27.8272587,4.93115137 C27.8272587,4.95415137 27.8332587,4.97115137 27.8602587,4.95915137 C28.0552587,4.98615137 28.2332587,5.06715137 28.4132587,5.14115137 C28.4132587,5.16415137 28.4172587,5.18115137 28.4472587,5.16815137 C28.5852587,5.19315137 28.7172587,5.23815137 28.8472587,5.28815137 L29.2342587,5.44415137 C29.6382587,5.59715137 30.0362587,5.76415137 30.4342587,5.93215137 C30.6962587,6.04215137 30.9562587,6.15215137 31.2112587,6.27415137 C31.6312587,6.47115137 32.0492587,6.66615137 32.4592587,6.87715137 C33.1442587,7.22915137 33.8172587,7.60815137 34.4622587,8.03315137 C34.6192587,8.13815137 34.7742587,8.24715137 34.9332587,8.34915137 C35.6302587,8.79915137 36.2832587,9.31315137 36.9102587,9.85915137 C36.9312587,9.87915137 36.9482587,9.90115137 36.9672587,9.92015137 C36.9602587,9.94315137 36.9692587,9.95415137 36.9922587,9.94515137 C37.1282587,10.0441514 37.2392587,10.1631514 37.3542587,10.2851514 C37.5682587,10.5111514 37.7962587,10.7291514 38.0202587,10.9451514 C38.2442587,11.1611514 38.4432587,11.4011514 38.6422587,11.6421514 C39.2042587,12.3181514 39.7252587,13.0221514 40.1922587,13.7681514 C40.3372587,13.9981514 40.4392587,14.2481514 40.5652587,14.4861514 C40.5572587,14.5111514 40.5692587,14.5201514 40.5952587,14.5181514 C40.6682587,14.6221514 40.6952587,14.7481514 40.7512587,14.8611514 C40.7322587,14.8941514 40.7142587,14.9281514 40.7722587,14.9411514 L40.7792587,15.0291514 C40.7492587,15.0911514 40.7952587,15.1121514 40.8372587,15.1371514 C40.8542587,15.3531514 40.8972587,15.5651514 40.8852587,15.7831514 C40.8522587,16.3651514 40.5922587,16.7961514 40.0332587,16.9871514 C39.6032587,17.1331514 39.1602587,17.2261514 38.7202587,17.3321514 C38.4562587,17.3951514 38.1902587,17.4481514 37.9362587,17.5481514 C37.7912992,17.5983588 37.6572397,17.67574 37.5412587,17.7761514 C37.4782587,17.7861514 37.4592587,17.8201514 37.4922587,17.8771514 C37.4322587,18.0261514 37.4722587,18.1641514 37.5262587,18.3041514 C37.5992587,18.4931514 37.7082587,18.6561514 37.8552587,18.7981514 C37.8902587,18.8341514 37.9282587,18.8261514 37.9642587,18.8401514 C37.9722587,18.8901514 37.9932587,18.8761514 38.0142587,18.8491514 C38.1293482,18.8793349 38.2499167,18.8820751 38.3662587,18.8571514 C38.6962587,18.7971514 39.0092587,18.6791514 39.3232587,18.5661514 C39.7772587,18.4031514 40.2432587,18.2791514 40.7332587,18.2981514 C41.2062587,18.3171514 41.5872587,18.5051514 41.8402587,18.9081514 C42.0502587,19.2361514 42.1732587,19.6011514 42.2362587,19.9901514 C42.3912587,20.9681514 42.3102587,21.9531514 42.3142587,22.9331514 C42.3149241,24.0777287 42.2715587,25.221908 42.1842587,26.3631514 C42.0082587,28.7621514 41.6412587,31.1281514 40.9362587,33.4331514 L40.8942587,33.5501514 C40.8732587,33.5521514 40.8542587,33.5541514 40.8692587,33.5831514 C40.8482587,33.7861514 40.7662587,33.9701514 40.7052587,34.1611514 C40.6342587,34.3791514 40.5522587,34.5931514 40.4772587,34.8081514 C40.4542587,34.8081514 40.4372587,34.8121514 40.4502587,34.8401514 C40.4432587,34.8801514 40.4412587,34.9231514 40.4292587,34.9611514 C40.2492587,35.4451514 40.0772587,35.9331514 39.8462587,36.3981514 C39.8232587,36.3961514 39.8092587,36.4041514 39.8172587,36.4311514 C39.5707217,37.0848971 39.2157486,37.6924082 38.7672587,38.2281514 C38.6469147,38.3699474 38.5165822,38.5029534 38.3772587,38.6261514 C37.8112587,39.1361514 37.1472587,39.2861514 36.4122587,39.1001514 C36.1602587,39.0371514 35.9802587,38.8501514 35.8122587,38.6641514 C35.4572587,38.2681514 35.1802587,37.8161514 34.8932587,37.3701514 C34.5902587,36.8961514 34.3112587,36.4041514 33.9782587,35.9501514 C33.8848617,35.8108526 33.7750759,35.6832727 33.6512587,35.5701514 C33.5282587,35.4681514 33.3962587,35.4391514 33.2452587,35.5121514 C32.9852587,35.6401514 32.7302587,35.7701514 32.6882587,36.1021514 C32.6272587,36.1421514 32.6272587,36.1841514 32.6882587,36.2241514 L32.7252587,36.3941514 C32.7152587,36.4001514 32.7072587,36.4081514 32.6962587,36.4141514 L32.7282587,36.4291514 L32.7422587,36.5241514 C32.7302587,36.5531514 32.7462587,36.5551514 32.7672587,36.5551514 C32.8262587,36.6951514 32.8912587,36.8311514 32.9072587,36.9851514 C32.8972587,37.0091514 32.9102587,37.0151514 32.9312587,37.0141514 C33.2012587,37.6841514 33.5172587,38.3371514 33.7062587,39.0391514 C33.8442587,39.5561514 33.7732587,40.0631514 33.5362587,40.5431514 C33.3412587,40.9371514 33.0212587,41.1921514 32.6102587,41.3411514 C32.0512587,41.5441514 31.4702587,41.6531514 30.8892587,41.7581514 C30.7322587,41.7851514 30.5742587,41.8161514 30.4172587,41.8431514 C30.3882587,41.8231514 30.3612587,41.8271514 30.3372587,41.8501514 L29.0352587,42.0091514 C28.9968452,41.9878642 28.9495351,41.9909921 28.9142587,42.0171514 L28.7712587,42.0171514 L28.4912587,42.0531514 C28.4632587,42.0341514 28.4362587,42.0361514 28.4112587,42.0571514 C27.8892587,42.0841514 27.3662587,42.0781514 26.8442587,42.0931514 C26.2438319,42.1084313 25.6468091,41.9984266 25.0912587,41.7701514 C24.8342587,41.6671514 24.5702587,41.5731514 24.3112587,41.4751514 C24.0051087,41.356192 23.6797055,41.294501 23.3512587,41.2931514 C22.9612587,41.2951514 22.5702587,41.2901514 22.1812587,41.2971514 C21.6962587,41.3051514 21.2272587,41.4141514 20.7662587,41.5501514 C19.6422587,41.8811514 18.4902587,41.9361514 17.3292587,41.8731514 L17.0172587,41.8481514 L16.3932587,41.7811514 C16.3812587,41.7641514 16.3632587,41.7611514 16.3452587,41.7711514 C15.7422587,41.6651514 15.1392587,41.5541514 14.5502587,41.3811514 C14.255595,41.2957598 13.9701825,41.1811928 13.6982587,41.0391514 C12.8812587,40.6081514 12.4182587,39.5631514 12.8052587,38.6201514 C12.9252587,38.3291514 13.0752587,38.0551514 13.2522587,37.7951514 C13.4742587,37.4661514 13.6812587,37.1271514 13.8232587,36.7521514 C13.8902587,36.5741514 13.9232587,36.3921514 13.9332587,36.2011514 C13.9492587,35.7701514 13.6162587,35.4071514 13.0802587,35.4511514 C12.7682587,35.4761514 12.4952587,35.6041514 12.2402587,35.7861514 C11.8442587,36.0691514 11.6102587,36.4591514 11.4462587,36.9051514 C11.4232587,36.9071514 11.4062587,36.9131514 11.4192587,36.9401514 C11.4152587,36.9701514 11.4112587,37.0011514 11.4042587,37.0301514 C11.3842587,37.0331514 11.3642587,37.0371514 11.3792587,37.0661514 L11.3732587,37.1561514 C11.3132587,37.1731514 11.3032587,37.1981514 11.3582587,37.2361514 C11.2622587,37.5121514 11.2202587,37.8031514 11.1132587,38.0781514 C11.0902587,38.0781514 11.0732587,38.0841514 11.0862587,38.1111514 C11.0307287,38.3683743 10.9054907,38.6053579 10.7242587,38.7961514 C10.4972587,39.0391514 10.2232587,39.1041514 9.92125867,39.1261514 C9.57625867,39.1541514 9.26025867,39.0861514 8.98525867,38.8501514 C8.61725867,38.5341514 8.32525867,38.1531514 8.04725867,37.7631514 C7.36825867,36.8131514 6.90525867,35.7651514 6.54125867,34.6681514 C6.1486299,33.4690461 5.80402224,32.2547461 5.50825867,31.0281514 C5.19835602,29.7477608 4.95800425,28.4515304 4.78825867,27.1451514 C4.58725867,25.6201514 4.52825867,24.0871514 4.52625867,22.5521514 C4.51607922,21.8961072 4.53209197,21.2399181 4.57425867,20.5851514 C4.65225867,19.5631514 4.86425867,18.5751514 5.26125867,17.6251514 C5.38925867,17.3221514 5.53625867,17.0331514 5.73125867,16.7671514 C6.17725867,16.1571514 6.78025867,15.9461514 7.51325867,16.0571514 C7.95125867,16.1241514 8.35925867,16.2851514 8.76525867,16.4531514 C8.76525867,16.4761514 8.77225867,16.4931514 8.80125867,16.4801514 C8.91625867,16.5051514 9.03325867,16.5241514 9.14925867,16.5551514 C9.31425867,16.5971514 9.48225867,16.5951514 9.64725867,16.5761514 C9.79225867,16.5601514 9.84025867,16.5131514 9.86925867,16.3691514 C9.9064077,16.2026206 9.85499026,16.0287087 9.73325867,15.9091514 C9.65405554,15.8299996 9.56768608,15.7583598 9.47525867,15.6951514 C9.03325867,15.3851514 8.57525867,15.1061514 8.06425867,14.9301514 C7.79272561,14.8393831 7.54140592,14.6967422 7.32425867,14.5101514 C7.15925867,14.3671514 7.03425867,14.1701514 7.03925867,13.9271514 C7.04425867,13.7841514 7.05025867,13.6441514 7.12325867,13.5081514 C7.18425867,13.3931514 7.23825867,13.2711514 7.26625867,13.1391514 C7.29125867,13.0161514 7.39625867,12.9321514 7.45825867,12.8231514 C7.89625867,12.0571514 8.43025867,11.3611514 9.00625867,10.6931514 C9.20625867,10.4611514 9.41925867,10.2451514 9.63625867,10.0311514 C10.7844033,8.90407668 12.0754131,7.9324573 13.4762587,7.14115137 C13.5362587,7.10715137 13.5952587,7.06815137 13.6662587,7.05715137 C13.6912587,7.06315137 13.7002587,7.05315137 13.6962587,7.02715137 C13.8862587,6.89415137 14.1022587,6.80415137 14.3072587,6.69515137 C14.7722587,6.44815137 15.2582587,6.25115137 15.7422587,6.05215137 C17.1662587,5.47015137 18.6402587,5.06515137 20.1482587,4.76815137 C20.6952587,4.66115137 21.2442587,4.55615137 21.8032587,4.53515137 C22.0902587,4.52515137 22.3732587,4.54415137 22.6452587,4.65115137 C22.9452587,4.76815137 23.1332587,4.98615137 23.2502587,5.27715137 C23.3342587,5.48415137 23.3782587,5.70415137 23.4122587,5.92415137 C23.4432587,6.12415137 23.4602587,6.32615137 23.4822587,6.52515137 C23.4492587,6.58815137 23.4972587,6.61115137 23.5392587,6.63615137 C23.5592587,6.88315137 23.6462587,7.11015137 23.7572587,7.32715137 C23.8222587,7.45515137 23.9142587,7.53515137 24.0672587,7.53315137 C24.2272587,7.52815137 24.3062587,7.42615137 24.3652587,7.30415137 C24.5972587,6.82415137 24.7922587,6.33015137 24.9452587,5.81715137 C25.0082587,5.60715137 25.0872587,5.40515137 25.2022587,5.21215137 C25.5082587,4.70315137 25.9272587,4.43515137 26.5362587,4.52515137 Z M21.8742587,5.30983945 C21.7542587,5.31515137 21.6402587,5.33015137 21.5222587,5.34815137 C19.9872587,5.59815137 18.4672587,5.90515137 16.9942587,6.42815137 C16.0242587,6.77415137 15.0842587,7.18315137 14.1812587,7.67115137 C12.9035301,8.35803546 11.7203207,9.20779494 10.6612587,10.1991514 C10.5142587,10.3371514 10.3302587,10.4381514 10.2152587,10.6031514 C10.0392587,10.8541514 9.80825867,11.0551514 9.61125867,11.2881514 C9.26625867,11.7011514 8.92725867,12.1181514 8.62125867,12.5581514 C8.40325867,12.8711514 8.17525867,13.1811514 7.99725867,13.5251514 C7.94225867,13.6321514 7.89825867,13.7401514 7.91725867,13.8641514 C7.93425867,13.9691514 7.97725867,14.0381514 8.09125867,14.0691514 C8.31925867,14.1301514 8.54525867,14.2031514 8.77125867,14.2721514 C9.12825867,14.3821514 9.46325867,14.5301514 9.75625867,14.7671514 C9.87125867,14.8591514 9.94925867,14.9871514 10.0602587,15.0791514 C10.2062587,15.2001514 10.3262587,15.3431514 10.4512587,15.4831514 C10.7012587,15.7631514 10.7712587,16.0951514 10.7302587,16.4571514 C10.6592587,17.0791514 10.2362587,17.4471514 9.61625867,17.4251514 C9.15525867,17.4081514 8.72325867,17.2671514 8.29825867,17.1101514 C8.03025867,17.0121514 7.76625867,16.9011514 7.48425867,16.8461514 C7.18625867,16.7901514 6.90825867,16.8061514 6.64825867,17.0011514 C6.54925867,17.0771514 6.48825867,17.1691514 6.41525867,17.2571514 C6.22925867,17.4751514 6.07025867,17.7171514 5.95025867,17.9691514 C5.8106405,18.2808453 5.71311802,18.6097314 5.66025867,18.9471514 C5.51325867,19.7511514 5.42025867,20.5621514 5.32025867,21.3731514 C5.25025867,21.9331514 5.22225867,22.4971514 5.22825867,23.0651514 C5.23425867,23.8551514 5.32025867,24.6381514 5.40425867,25.4211514 C5.49025867,26.2041514 5.58625867,26.9861514 5.70425867,27.7651514 C5.62425867,27.8351514 5.67825867,27.8741514 5.73925867,27.9111514 C5.75925867,28.2531514 5.84125867,28.5841514 5.89425867,28.9211514 C5.95425867,29.3061514 6.05325867,29.6831514 6.09925867,30.0711514 C6.06625867,30.1341514 6.11625867,30.1541514 6.15625867,30.1801514 C6.16225867,30.2421514 6.16225867,30.3051514 6.17625867,30.3661514 C6.34425867,31.1121514 6.52025867,31.8561514 6.73025867,32.5901514 C6.78825867,32.7981514 6.87425867,32.9971514 6.89525867,33.2141514 C6.88025867,33.2441514 6.89925867,33.2481514 6.92025867,33.2481514 C7.10425867,33.7981514 7.28225867,34.3541514 7.50425867,34.8921514 C7.65725867,35.2691514 7.81925867,35.6421514 7.97825867,36.0191514 C7.97225867,36.0461514 7.98625867,36.0541514 8.01125867,36.0541514 C8.04325867,36.1611514 8.08725867,36.2621514 8.14725867,36.3541514 C8.14125867,36.3791514 8.15225867,36.3901514 8.17725867,36.3851514 C8.29825867,36.5891514 8.41125867,36.7951514 8.54325867,36.9931514 C8.88025867,37.4891514 9.21125867,37.9931514 9.73525867,38.3231514 C9.73325867,38.3461514 9.74125867,38.3581514 9.76625867,38.3501514 C9.99925867,38.4061514 10.1352587,38.2901514 10.2382587,38.0991514 C10.3362587,37.9141514 10.3632587,37.7091514 10.4352587,37.5161514 C10.5372587,37.2381514 10.5792587,36.9421514 10.6922587,36.6661514 C10.7912587,36.4271514 10.8852587,36.1881514 11.0152587,35.9641514 C11.5362587,35.0601514 12.3302587,34.6241514 13.3652587,34.6431514 C13.9432587,34.6531514 14.3642587,34.9491514 14.6112587,35.4761514 C14.8012587,35.8781514 14.7782587,36.2861514 14.6302587,36.6961514 C14.6092587,36.6971514 14.5902587,36.7021514 14.6052587,36.7291514 L14.5902587,36.8231514 C14.5632587,36.8191514 14.5462587,36.8231514 14.5582587,36.8531514 C14.5562587,36.9381514 14.5232587,37.0131514 14.4912587,37.0911514 C14.2972587,37.5691514 14.0432587,38.0131514 13.7862587,38.4591514 C13.6527243,38.6779394 13.5624241,38.920324 13.5202587,39.1731514 C13.4842587,39.4161514 13.5382587,39.6431514 13.5892587,39.8731514 C13.5802587,39.9001514 13.5952587,39.9081514 13.6192587,39.9061514 C13.7772587,40.1461514 13.9972587,40.3141514 14.2632587,40.4151514 C15.169016,40.7655868 16.1267482,40.9629459 17.0972587,40.9991514 C17.7112587,41.0191514 18.3242587,41.0041514 18.9402587,41.0061514 C19.2122587,41.0061514 19.4822587,40.9811514 19.7532587,40.9361514 C20.3982587,40.8301514 21.0282587,40.6461514 21.6792587,40.5661514 C22.5092587,40.4631514 23.3342587,40.4551514 24.1572587,40.6221514 C24.7082587,40.7351514 25.2212587,40.9521514 25.7242587,41.1941514 C25.8332587,41.2461514 25.9442587,41.2722514 26.0652587,41.2722514 C26.6252587,41.2671514 27.1822587,41.2781514 27.7412587,41.2671514 C28.1312587,41.2611514 28.5222587,41.2821514 28.9092587,41.2111514 C28.9372587,41.2301514 28.9642587,41.2301514 28.9892587,41.2071514 C29.0312587,41.2071514 29.0732587,41.2111514 29.1152587,41.2071514 C29.9652587,41.1001514 30.8112587,40.9641514 31.6472587,40.7751514 C31.9472587,40.7081514 32.2442587,40.6271514 32.5032587,40.4511514 C32.8702587,40.2011514 33.0382587,39.8581514 32.9832587,39.4111514 C32.9452587,39.1011514 32.8182587,38.8231514 32.6752587,38.5511514 C32.5332587,38.2791514 32.3692587,38.0191514 32.2422587,37.7411514 C32.0072587,37.2291514 31.8372587,36.7041514 31.8792587,36.1301514 C31.9112587,35.6901514 32.0892587,35.3261514 32.4342587,35.0471514 C32.6982587,34.8351514 33.0082587,34.7351514 33.3342587,34.6891514 C33.6012587,34.6511514 33.8692587,34.6871514 34.0662587,34.8691514 C34.2562587,35.0451514 34.4742587,35.1991514 34.6082587,35.4321514 C34.6102587,35.4891514 34.6382587,35.5291514 34.6942587,35.5431514 C34.8742587,35.7721514 35.0172587,36.0231514 35.1682587,36.2681514 C35.4002587,36.6481514 35.6182587,37.0371514 35.8482587,37.4181514 C35.9932587,37.6571514 36.1412587,37.8931514 36.3472587,38.0881514 C36.4332587,38.1681514 36.5142587,38.2781514 36.6172587,38.3101514 C36.8282587,38.3751514 37.0532587,38.4171514 37.2752587,38.3351514 C37.7882587,38.1491514 38.2212587,37.8721514 38.4662587,37.3531514 C38.6322587,37.0031514 38.7972587,36.6531514 38.9652587,36.3061514 C39.2522587,35.7161514 39.5092587,35.1141514 39.7232587,34.4941514 C40.3992587,32.5441514 40.8522587,30.5421514 41.1492587,28.5041514 C41.3022587,27.4541514 41.3992587,26.3991514 41.4632587,25.3411514 C41.5302587,24.2411514 41.5832587,23.1411514 41.5562587,22.0361514 C41.5362587,21.2451514 41.5352587,20.4511514 41.3232587,19.6761514 C41.2392587,19.3681514 40.8082587,18.9511514 40.4182587,19.0811514 C40.2742587,19.1291514 40.1232587,19.1521514 39.9762587,19.1941514 C39.6102587,19.3041514 39.2462587,19.4211514 38.8762587,19.5291514 C38.5662587,19.6221514 38.2512587,19.6661514 37.9262587,19.6471514 C37.665701,19.6404666 37.4185147,19.5303662 37.2392587,19.3411514 C36.9652587,19.0501514 36.7992587,18.7011514 36.6902587,18.3191514 C36.5622587,17.8711514 36.7642587,17.2231514 37.2982587,16.9621514 C37.7022587,16.7621514 38.1292587,16.6451514 38.5632587,16.5421514 C38.9292587,16.4571514 39.3002587,16.3901514 39.6582587,16.2711514 C39.909707,16.1852986 40.0721324,15.9412504 40.0542587,15.6761514 C40.0496689,15.4669387 40.0149796,15.2594768 39.9512587,15.0601514 C39.7692587,14.5051514 39.4782587,14.0061514 39.1532587,13.5271514 C38.5817379,12.6918793 37.9178797,11.9236958 37.1742587,11.2371514 C37.0172587,11.0911514 36.8832587,10.9191514 36.7242587,10.7751514 C35.6837642,9.84260875 34.5535979,9.01524934 33.3502587,8.30515137 C32.8009378,7.97710503 32.2344617,7.67867866 31.6532587,7.41115137 C31.4462587,7.31715137 31.2612587,7.17915137 31.0582587,7.08415137 C30.5194558,6.84059757 29.9756728,6.60821454 29.4272587,6.38715137 C28.8875272,6.16319684 28.3405639,5.95708504 27.7872587,5.76915137 C27.5842587,5.70015137 27.3772587,5.63715137 27.1712587,5.57615137 C26.9742587,5.51815137 26.7772587,5.44415137 26.5742587,5.39815137 C26.1552587,5.30415137 26.0782587,5.34015137 25.8492587,5.69615137 C25.8242587,5.69415137 25.8122587,5.70415137 25.8202587,5.72915137 L25.5142587,6.57815137 C25.4912587,6.57515137 25.4792587,6.58215137 25.4912587,6.60915137 C25.3618157,7.11654374 25.1297017,7.59200309 24.8092587,8.00615137 C24.7701381,8.05537528 24.7258888,8.10029502 24.6772587,8.14015137 C24.3292587,8.42515137 23.9622587,8.43115137 23.5732587,8.22415137 C23.2252587,8.03915137 22.9972587,7.72915137 22.8292587,7.37815137 C22.7922587,7.29815137 22.7252587,7.21815137 22.7202587,7.13715137 C22.7102587,6.89215137 22.6402587,6.65515137 22.6222587,6.41215137 C22.6026476,6.18983735 22.5746276,5.96834542 22.5382587,5.74815137 C22.5182587,5.61415137 22.4672587,5.47415137 22.3282587,5.43215137 C22.1802587,5.38615137 22.0402587,5.30415137 21.8742587,5.30983945 L21.8742587,5.30983945 Z M22.9492587,28.8371514 C23.5162587,28.9691514 23.9232587,29.3311514 24.2432587,29.8001514 C24.5052587,30.1841514 24.6532587,30.6031514 24.6392587,31.0761514 C24.6312587,31.4111514 24.6412587,31.7461514 24.6432587,32.0791514 C24.6162495,32.1310226 24.6155071,32.1926444 24.6412587,32.2451514 C24.6162587,33.0651514 24.3772587,33.8361514 24.0652587,34.5861514 C23.9428817,34.8890885 23.7890385,35.1783405 23.6062587,35.4491514 C23.2342587,35.9871514 22.5882587,36.0101514 22.1362587,35.6941514 C21.7282587,35.4091514 21.4932587,35.0161514 21.3592587,34.5441514 C21.1752587,33.9081514 21.0872587,33.2501514 20.9492587,32.6031514 C20.8862587,32.3031514 20.9462587,32.0231514 20.9932587,31.7331514 C21.0732587,31.2161514 21.1502587,30.7011514 21.2902587,30.1961514 C21.3862587,29.8531514 21.5102587,29.5181514 21.7552587,29.2481514 C22.0752587,28.8941514 22.4692587,28.7241514 22.9492587,28.8381514 L22.9492587,28.8371514 Z M22.6242587,29.4881514 C22.2582587,29.5321514 21.9242587,29.8381514 21.8842587,30.2031514 C21.8582587,30.4521514 21.8072587,30.6971514 21.7942587,30.9481514 C21.7402587,30.9731514 21.7402587,31.0011514 21.7902587,31.0301514 C21.7552587,31.7781514 21.7972587,32.5191514 21.8832587,33.2631514 C21.9332587,33.6981514 21.9792587,34.1331514 22.0712587,34.5651514 C22.1172587,34.7851514 22.2212587,34.9511514 22.4252587,35.0511514 C22.4252587,35.0721514 22.4272587,35.0911514 22.4572587,35.0741514 C22.6572587,35.0891514 22.8572587,35.1081514 23.0572587,35.0601514 C23.1318722,35.0448788 23.1983574,35.0029256 23.2442587,34.9421514 C23.4142587,34.7321514 23.4892587,34.4921514 23.4772587,34.2241514 C23.4662587,33.9811514 23.4492587,33.7381514 23.4352587,33.4951514 C23.4182587,33.2441514 23.4252587,32.9951514 23.5372587,32.7601514 C23.5522587,32.7301514 23.5442587,32.6931514 23.5472587,32.6571514 L23.5752587,32.6201514 C23.6052587,32.6131514 23.6212587,32.5921514 23.6342587,32.5671514 C23.8372587,32.2011514 23.9732587,31.8171514 23.9712804,31.3881514 C23.9692587,31.0341514 23.9462587,30.6841514 23.8472587,30.3431514 C23.8003439,30.158673 23.7294039,29.9811551 23.6362587,29.8151514 C23.5462587,29.6651514 23.4462587,29.5451514 23.2462587,29.5111514 C23.041151,29.4732413 22.831606,29.4654929 22.6242587,29.4881514 Z M25.6342587,23.3561514 C25.7542587,23.3371514 25.8582587,23.4311514 25.9772587,23.4061514 C25.9862587,23.4541514 26.0212587,23.4541514 26.0592587,23.4481514 L26.1012587,23.4521514 C26.1152587,23.4921514 26.1492587,23.4941514 26.1852587,23.4881514 C26.2918813,23.4921441 26.3956232,23.5238526 26.4862587,23.5801514 C26.4842587,23.6031514 26.4922587,23.6161514 26.5182587,23.6051514 L26.6062587,23.6201514 C26.6062587,23.6451514 26.6162587,23.6601514 26.6432587,23.6551514 C26.6932587,23.6991514 26.7562587,23.6931514 26.8152587,23.7041514 C26.8152587,23.7291514 26.8252587,23.7441514 26.8532587,23.7391514 C26.8862587,23.7461514 26.9112587,23.7831514 26.9512587,23.7641514 C26.9832587,23.8001514 27.0102587,23.8361514 27.0662587,23.8131514 L27.3582587,23.9681514 C27.4082587,23.9931514 27.4582587,24.0161514 27.5082587,24.0371514 C28.0472587,24.2521514 28.5092587,24.5831514 28.9562587,24.9411514 C30.1182587,25.8801514 30.9102587,27.0741514 31.3722587,28.4891514 C31.5652587,29.0801514 31.7102587,29.6831514 31.7682587,30.3031514 C31.7752587,30.3791514 31.7912587,30.4531514 31.8042587,30.5311514 C31.7852587,30.5591514 31.7832587,30.5861514 31.8062587,30.6131514 C31.7982587,30.8431514 31.8252587,31.0731514 31.8232587,31.3031514 C31.8192587,32.1671514 31.8082587,33.0331514 31.7052587,33.8931514 C31.6852587,34.0671514 31.6552587,34.2391514 31.6152587,34.4081514 C31.5462587,34.7101514 31.3952587,34.8281514 31.0852587,34.8401514 C30.8691425,34.8397068 30.6544684,34.8049404 30.4492587,34.7371514 C30.1872587,34.6621514 29.9342587,34.5651514 29.6792587,34.4691514 C28.9812587,34.2051514 28.3792587,33.7841514 27.8122587,33.3131514 C27.6522587,33.1811514 27.4752587,33.0681514 27.3322587,32.9131514 C26.5682587,32.0751514 25.8792587,31.1851514 25.3422587,30.1821514 C24.7256573,29.0327938 24.2959472,27.7926094 24.0692587,26.5081514 C23.9692587,25.9361514 23.9192587,25.3601514 24.0112587,24.7801514 C24.0512587,24.5231514 24.1282587,24.2781514 24.2542587,24.0501514 C24.2852587,23.9901514 24.3122587,23.9701514 24.3542587,24.0391514 C24.3462587,24.0661514 24.3622587,24.0761514 24.3852587,24.0791514 C24.5282587,24.5391514 24.5992587,25.0151514 24.7122587,25.4841514 C24.9656415,26.5068181 25.3055328,27.506085 25.7282587,28.4711514 C26.1702587,29.4971514 26.6882587,30.4851514 27.3162587,31.4111514 C27.916119,32.2978217 28.6753035,33.065483 29.5552587,33.6751514 C29.7202587,33.7901514 29.9002587,33.8831514 30.0762587,33.9851514 C30.1182587,34.0101514 30.1512587,34.0081514 30.2022587,33.9911514 C30.1852587,33.8931514 30.1242587,33.8261514 30.0722587,33.7551514 C29.5732587,33.0721514 29.0352587,32.4231514 28.5202587,31.7521514 C27.7602587,30.7681514 27.0352587,29.7621514 26.4282587,28.6741514 C26.1476559,28.1655464 25.9053191,27.6367508 25.7032587,27.0921514 C25.4173957,26.3380424 25.2226816,25.5524719 25.1232587,24.7521514 C25.1032587,24.6001514 25.0982587,24.4471514 25.1032587,24.2941514 C25.1132587,24.0701514 25.1432587,24.0511514 25.3282587,24.1691514 C25.4222587,24.2291514 25.5102587,24.2961514 25.6022587,24.3611514 C26.7582587,25.1761514 27.6882587,26.2091514 28.4702587,27.3791514 C28.8762587,27.9891514 29.1942587,28.6511514 29.5312587,29.2991514 C29.7112587,29.6461514 29.8882587,29.9931514 30.0592587,30.3411514 C30.3172587,30.8561514 30.5542587,31.3811514 30.8402587,31.8841514 C30.9002587,31.9851514 30.9502587,32.0901514 31.0482587,32.1861514 C31.1172587,32.0861514 31.1252587,31.9911514 31.1342587,31.8971514 C31.1882587,31.2461514 31.0772587,30.6171514 30.8742587,30.0041514 C30.8271454,29.8546438 30.7774714,29.7059553 30.7252587,29.5581514 C30.6465476,29.3215516 30.5443726,29.0934165 30.4202587,28.8771514 C30.2772587,28.6401514 30.1902587,28.3741514 30.0432587,28.1371514 C29.6892587,27.5661514 29.2782587,27.0371514 28.8262587,26.5421514 C28.7082587,26.4141514 28.5622587,26.3151514 28.4442587,26.1861514 C27.7182587,25.3831514 26.8442587,24.7421514 26.0322587,24.0351514 C25.8602587,23.8841514 25.7052587,23.7151514 25.5482587,23.5491514 C25.5122587,23.5131514 25.4682587,23.4631514 25.5022587,23.4041514 C25.5152587,23.3801514 25.5362587,23.3701514 25.5602587,23.3651514 L25.6342587,23.3561514 Z M22.0022587,24.0121514 C22.2262587,24.1521514 22.3662587,24.3321514 22.3392587,24.5851514 C22.3432587,24.8811514 22.2622587,25.1321514 22.1782587,25.3831514 C21.8331688,26.4145005 21.4444861,27.4307472 21.0132587,28.4291514 C20.7732587,29.0001514 20.5152587,29.5641514 20.2392587,30.1191514 C19.8132587,30.9731514 19.3712587,31.8191514 18.7932587,32.5841514 C18.0732587,33.5371514 17.1072587,34.0811514 15.9452587,34.2951514 C15.8702587,34.3101514 15.7952587,34.3251514 15.7192587,34.3311514 C15.5532587,34.3431514 15.5222587,34.3101514 15.5472587,34.1411514 C15.5682587,34.0011514 15.6272587,33.8741514 15.6752587,33.7421514 C16.2242587,32.2701514 16.9922587,30.9151514 17.8592587,29.6101514 C18.7662587,28.2461514 19.7382587,26.9271514 20.6832587,25.5871514 C21.0452587,25.0731514 21.3932587,24.5521514 21.7732587,24.0531514 C21.8682587,23.9301514 21.8742587,23.9321514 22.0022587,24.0121514 L22.0022587,24.0121514 Z M21.3302587,23.1171514 C21.4602587,23.1421514 21.4832587,23.2011514 21.3972587,23.2991514 C21.3422587,23.3621514 21.2712587,23.4091514 21.2122587,23.4671514 C21.0822587,23.6031514 20.9402587,23.7251514 20.8222587,23.8751514 C20.7546953,23.9647484 20.6683417,24.0384732 20.5692587,24.0911514 C20.5497425,24.0987315 20.5320292,24.1103132 20.5172587,24.1251514 C20.3162587,24.3721514 20.0472587,24.5481514 19.8222587,24.7701514 C19.7862587,24.8031514 19.7842587,24.8621514 19.7342587,24.8831514 C19.7072587,24.8771514 19.6962587,24.8891514 19.6982587,24.9161514 C19.6392587,24.9741514 19.5872587,25.0411514 19.5112587,25.0801514 L19.4932587,25.0651514 C19.5092587,25.0781514 19.5262587,25.0881514 19.5392587,25.1021514 C19.5332318,25.1152793 19.5243489,25.1268954 19.5132587,25.1361514 C19.5054716,25.142541 19.4966881,25.1476084 19.4872587,25.1511514 L19.4992587,25.1321514 L19.4712587,25.1741514 C19.4595921,25.1918165 19.4465518,25.2085349 19.4322587,25.2241514 C19.4052587,25.1571514 19.4122587,25.1291514 19.4392587,25.1241514 C19.4412587,25.1101514 19.4502587,25.0971514 19.4642587,25.0851514 L19.4892587,25.0901514 C19.4822587,25.0801514 19.4742587,25.0731514 19.4662587,25.0651514 C19.6022587,24.8121514 19.7992587,24.6051514 19.9622587,24.3721514 C20.0522587,24.2461514 20.1632587,24.1331514 20.1972587,23.9511514 C20.0422587,23.9811514 19.9242587,24.0551514 19.8112587,24.1231514 C18.8292587,24.6901514 17.9102587,25.3331514 17.1202587,26.1631514 C16.3722574,26.94987 15.8325933,27.9109533 15.5502587,28.9591514 C15.2592933,30.0219355 15.0200126,31.0981983 14.8332587,32.1841514 C14.7512587,32.6511514 14.6672587,33.1181514 14.5832587,33.5831514 C14.5772587,33.6171514 14.5732587,33.6531514 14.5632587,33.6861514 C14.5432587,33.7441514 14.5082587,33.7661514 14.4532587,33.7231514 C14.415352,33.693363 14.3792859,33.6613042 14.3452587,33.6271514 C13.9702587,33.2401514 13.7692587,32.7831514 13.7962587,32.2371514 C13.8212587,31.7271514 13.9182587,31.2271514 14.0032587,30.7241514 C14.1332587,29.9541514 14.2842587,29.1891514 14.5002587,28.4371514 C14.7642587,27.5151514 15.1532587,26.6571514 15.7522587,25.9011514 C16.3472587,25.1511514 17.0862587,24.5731514 17.9262587,24.1271514 C18.7722587,23.6771514 19.6692587,23.3501514 20.6032587,23.1401514 C20.8422587,23.0861514 21.0872587,23.0691514 21.3302587,23.1171514 L21.3302587,23.1171514 Z M20.9592587,26.1331514 C20.9392587,26.1691514 20.9192587,26.2091514 20.8922587,26.2431514 C20.2452587,27.0031514 19.6222587,27.7811514 19.0782587,28.6171514 C18.1582587,30.0291514 17.3962587,31.5241514 16.6512587,33.0301514 C16.6312587,33.0701514 16.5882587,33.1101514 16.6172587,33.1641514 C16.6517832,33.1566201 16.6833889,33.1392543 16.7082587,33.1141514 L16.7812587,33.0411514 C17.4712587,32.3891514 18.0082587,31.6161514 18.5152587,30.8211514 C19.3972587,29.4361514 20.1462587,27.9811514 20.8632587,26.5061514 C20.9172587,26.3971514 20.9652587,26.2841514 21.0162587,26.1711514 L20.9592587,26.1331514 L20.9592587,26.1331514 Z M25.7322587,24.9711514 C25.694232,25.0291514 25.6972587,25.0991514 25.694232,25.1681514 C25.6934304,25.3211953 25.7119095,25.4737325 25.7492587,25.6221514 C25.9042587,26.3051514 26.1322587,26.9621514 26.4172587,27.5991514 C26.8592587,28.5841514 27.4292587,29.4931514 28.0572587,30.3661514 C28.4742587,30.9441514 28.9202587,31.4971514 29.4372587,31.9911514 C29.6342587,32.1801514 29.8392587,32.3581514 30.0762587,32.4961514 C30.1242587,32.5231514 30.1762587,32.5661514 30.2292587,32.5271514 C30.2712587,32.4961514 30.2592587,32.4371514 30.2522587,32.3891514 C30.2182587,32.1761514 30.1892587,31.9621514 30.1452587,31.7501514 C29.8792587,30.4461514 29.2992587,29.2791514 28.5582587,28.1841514 C27.7662587,27.0171514 26.7902587,26.0101514 25.8082587,25.0081514 C25.7882587,24.9881514 25.7682587,24.9681514 25.7322587,24.9711514 L25.7322587,24.9711514 Z M18.3502587,26.5541514 C18.3502587,26.7441514 18.2262587,26.8981514 18.1482587,27.0641514 C17.8159583,27.7607722 17.4802877,28.4557803 17.1412587,29.1491514 C16.7282587,29.9931514 16.3162587,30.8391514 15.8882587,31.6771514 C15.8072587,31.8381514 15.7212587,31.9971514 15.6332587,32.1551514 C15.6032587,32.2071514 15.5912587,32.2761514 15.5182587,32.2951514 C15.5067389,32.2573427 15.5067389,32.21696 15.5182587,32.1791514 L15.5512587,32.0711514 C15.7679584,31.3138231 16.0376229,30.5726634 16.3582587,29.8531514 C16.4942587,29.5451514 16.6932587,29.2641514 16.7872587,28.9381514 C17.2642587,28.1381514 17.7152587,27.3181514 18.3032587,26.5881514 L18.3272587,26.5691514 L18.3502587,26.5541514 Z M32.2602587,17.3581514 C32.8512587,17.3951514 33.4422587,17.4481514 34.0322587,17.5041514 L34.3922587,17.5341514 C34.6322587,17.5571514 34.8702587,17.5941514 35.0922587,17.7091514 C35.2472587,17.7891514 35.4062587,17.8641514 35.5342587,17.9861514 C35.6542587,18.0961514 35.6342587,18.1741514 35.4782587,18.2201514 C35.2762587,18.2801514 35.0632587,18.2671514 34.8582587,18.3001514 C34.8282587,18.2831514 34.8012587,18.2811514 34.7762587,18.3041514 C34.0782587,18.3241514 33.3812587,18.3381514 32.6862587,18.3651514 C31.3752587,18.4151514 30.1642587,18.8651514 28.9602587,19.3301514 C28.3422152,19.5687639 27.7367601,19.8387822 27.1462587,20.1391514 C27.0412587,20.1931514 26.9342587,20.2481514 26.8342587,20.3111514 C26.6942587,20.3991514 26.6912587,20.4611514 26.8362587,20.5221514 C27.0892587,20.6271514 27.3452587,20.6921514 27.6262587,20.5931514 C27.9422587,20.4851514 28.2392587,20.3401514 28.5362587,20.1891514 C29.4388923,19.7372609 30.3966493,19.4051219 31.3852587,19.2011514 C32.4752587,18.9711514 33.5672587,18.8171514 34.6842587,18.8491514 C34.9642587,18.8571514 35.2412587,18.8821514 35.4962587,19.0161514 C35.7922587,19.1711514 35.9532587,19.3891514 35.9562587,19.7471514 C35.9663106,20.4450653 35.7086611,21.1203217 35.2362587,21.6341514 C34.7572587,22.1791514 34.1542587,22.5451514 33.4922587,22.8281514 C32.7517245,23.1350962 31.9699888,23.331204 31.1722587,23.4101514 C31.1442587,23.3921514 31.1172587,23.3921514 31.0902587,23.4151514 C30.7132587,23.4061514 30.3382587,23.4561514 29.9602587,23.4381514 C29.2302587,23.4041514 28.4972587,23.3711514 27.7802587,23.1981514 C27.6102587,23.1571514 27.4412587,23.1181514 27.2862587,23.0331514 C27.1192587,22.9431514 27.0012587,22.8091514 26.9742587,22.6151514 C26.9492587,22.4321514 27.0012587,22.3651514 27.1822587,22.3591514 C27.5942587,22.3441514 28.0052587,22.3511514 28.4152587,22.3821514 C29.3072587,22.4471514 30.2002587,22.4871514 31.0922587,22.4391514 C32.1452587,22.3801514 33.1192587,22.0801514 33.9762587,21.4441514 C34.3262587,21.1821514 34.6362587,20.8741514 34.9182587,20.5441514 C34.9832587,20.4681514 35.1052587,20.3691514 35.0482587,20.2811514 C34.9942587,20.1931514 34.8582587,20.2691514 34.7652587,20.3011514 C34.3952587,20.4241514 34.0262587,20.5541514 33.6602587,20.6831514 C32.8002587,20.9851514 31.9272587,21.2511514 31.0442587,21.4811514 C30.2542587,21.6871514 29.4542587,21.8411514 28.6412587,21.9301514 C28.1492587,21.9841514 27.6532587,22.0101514 27.1582587,21.9801514 C26.8999851,21.9688757 26.6473516,21.9009378 26.4182587,21.7811514 C26.0082587,21.5631514 25.8492587,21.1921514 25.9652587,20.7421514 C26.1012587,20.2061514 26.4382587,19.8001514 26.8552587,19.4671514 C27.7433503,18.7669624 28.6774509,18.1271903 29.6512587,17.5521514 C29.9402587,17.3781514 30.2582587,17.3091514 30.5892587,17.2921514 C31.1492587,17.2621514 31.7052587,17.3221514 32.2612587,17.3581514 L32.2602587,17.3581514 Z M22.5362587,20.7581514 C22.6092587,20.7901514 22.6762587,20.8071514 22.7522587,20.8091514 C22.7562587,20.8321514 22.7602587,20.8491514 22.7902587,20.8361514 L22.8822587,20.8511514 C22.8842587,20.8721514 22.8862587,20.8911514 22.9152587,20.8761514 C22.9452587,20.8781514 22.9752587,20.8801514 23.0052587,20.8851514 C23.0182587,20.9411514 23.0512587,20.9251514 23.0852587,20.9081514 C23.1022587,20.9161514 23.1162587,20.9261514 23.1332587,20.9351514 C23.1332587,20.9551514 23.1372587,20.9751514 23.1642587,20.9601514 C23.1942587,20.9621514 23.2252587,20.9641514 23.2542587,20.9681514 C23.2672587,21.0211514 23.2982587,21.0231514 23.3382587,21.0081514 C23.5962587,21.0501514 23.8482587,21.0211514 24.1012587,20.9601514 C24.4362587,20.8781514 24.4312587,20.9121514 24.4812587,21.2051514 C24.5432587,21.5551514 24.5842587,21.9051514 24.6072587,22.2581514 C24.6242834,22.405771 24.5550576,22.5500562 24.4292587,22.6291514 C24.1601194,22.8240994 23.8758883,22.9973131 23.5792587,23.1471514 C23.4992587,23.1871514 23.4182587,23.2201514 23.3362587,23.2551514 C23.3062587,23.2411514 23.3032587,23.2601514 23.2982587,23.2831514 C22.9512587,23.3921514 22.9422587,23.3961514 22.7942587,23.0691514 C22.7042587,22.8761514 22.5512587,22.7741514 22.3692587,22.6991514 C22.2932587,22.6671514 22.2142587,22.6391514 22.1392587,22.6041514 C21.8622587,22.4681514 21.7822587,22.3041514 21.9252587,21.9921514 C22.0212587,21.7831514 22.0982587,21.5691514 22.1452587,21.3431514 C22.1672587,21.2261514 22.1572587,21.1071514 22.1672587,20.9891514 C22.1882587,20.7501514 22.3142587,20.6651514 22.5372587,20.7591514 L22.5362587,20.7581514 Z M22.8342587,21.5651514 C22.7372587,21.7101514 22.6792587,21.8731514 22.5722587,22.0111514 C22.5192587,22.0781514 22.5322587,22.1501514 22.6092587,22.2111514 C22.7542587,22.3231514 22.8992587,22.4371514 23.0302587,22.5621514 C23.1352587,22.6621514 23.2192587,22.6421514 23.3202587,22.5661514 C23.4451904,22.4697741 23.5729116,22.3770679 23.7032587,22.2881514 C23.9712587,22.1061514 23.9882587,22.0241514 23.9032587,21.7061514 C23.8792587,21.6131514 23.8452587,21.5961514 23.7732587,21.5881514 L22.9732587,21.4921514 C22.9172587,21.4751514 22.8732587,21.5021514 22.8332587,21.5651514 L22.8342587,21.5651514 Z M14.3552587,16.1411514 C15.3962587,16.2681514 16.3452587,16.6641514 17.2582587,17.1521514 C18.2912587,17.7031514 19.2482587,18.3621514 20.0922587,19.1801514 C20.4442587,19.5211514 20.7682587,19.8861514 21.0182587,20.3101514 C21.0882587,20.4321514 21.1482587,20.5581514 21.1982587,20.6881514 C21.3822587,21.1781514 21.2352587,21.6201514 20.7982587,21.9071514 C20.4882587,22.1101514 20.1402587,22.2081514 19.7822587,22.2751514 C19.0152587,22.4201514 18.2422587,22.4181514 17.4682587,22.3751514 C16.7651402,22.3368913 16.0645116,22.2617882 15.3692587,22.1501514 C14.5922587,22.0261514 13.8092587,21.9211514 13.0652587,21.6491514 C12.4892587,21.4391514 11.9612587,21.1491514 11.5252587,20.7071514 C11.1322587,20.3091514 10.9352587,19.8181514 10.8392587,19.2781514 C10.8292587,19.2221514 10.8192587,19.1631514 10.8702587,19.1231514 C10.9252587,19.0791514 10.9802587,19.1191514 11.0252587,19.1421514 C11.2032587,19.2261514 11.3622587,19.3391514 11.5252587,19.4461514 C12.934661,20.3956707 14.4992136,21.0914786 16.1482587,21.5021514 C16.6569967,21.622903 17.1746964,21.7021632 17.6962587,21.7391514 C18.1402587,21.7751514 18.5842587,21.8251514 19.0322587,21.8211514 L19.2832587,21.8211514 C19.1562587,21.7371514 19.0532587,21.7181514 18.9572587,21.6931514 L15.7082587,20.8091514 C14.2893221,20.4298657 12.9583146,19.7765917 11.7902587,18.8861514 C11.5282587,18.6861514 11.2912587,18.4591514 11.1242587,18.1701514 C11.0983242,18.1286021 11.0742992,18.085891 11.0522587,18.0421514 C10.9982587,17.9211514 11.0122587,17.8851514 11.1472587,17.8521514 C11.2412587,17.8291514 11.3372587,17.8141514 11.4362587,17.8021514 C12.0892587,17.7141514 12.7282587,17.7991514 13.3652587,17.9521514 C14.6692587,18.2641514 15.9282587,18.7191514 17.1682587,19.2261514 C17.9622587,19.5501514 18.7432587,19.9041514 19.5122587,20.2901514 C19.6982587,20.3781514 19.8852587,20.4681514 20.1072587,20.5261514 C20.1252587,20.3961514 20.0612587,20.3271514 20.0102587,20.2561514 C19.7370416,19.8752193 19.3964337,19.5474901 19.0052587,19.2891514 C18.2492587,18.7751514 17.4222587,18.4091514 16.5692587,18.0951514 C15.2582587,17.6111514 13.9052587,17.2751514 12.5372587,16.9971514 C12.2232587,16.9321514 11.9112587,16.8611514 11.5972587,16.7921514 C11.5497401,16.7820033 11.5029658,16.7686392 11.4572587,16.7521514 C11.3072587,16.6981514 11.2952587,16.6541514 11.4172587,16.5601514 C11.7502587,16.3061514 12.1232587,16.1281514 12.5392587,16.0841514 C13.1452587,16.0211514 13.7522587,16.0651514 14.3552587,16.1411514 L14.3552587,16.1411514 Z M33.3832587,19.2741514 C33.0672587,19.3331514 32.7572587,19.4121514 32.4492587,19.5001514 L27.6672587,20.8681514 C27.3322587,20.9641514 26.9992587,21.0631514 26.6672587,21.1651514 C26.5172587,21.2111514 26.5072587,21.2591514 26.6272587,21.3601514 C26.8802587,21.5671514 27.1542587,21.7261514 27.5022587,21.6871514 C27.6622587,21.6671514 27.8222587,21.6591514 27.9802587,21.6371514 C28.8842587,21.5131514 29.7802587,21.3471514 30.6802587,21.1871514 C31.8202587,20.9791514 32.9082587,20.6291514 33.9232587,20.0641514 C34.1632587,19.9321514 34.3992587,19.8001514 34.6192587,19.6361514 C34.7005761,19.5812672 34.7716502,19.5125621 34.8292587,19.4331514 C34.8582587,19.3891514 34.8472587,19.3511514 34.7992587,19.3351514 C34.7532587,19.3181514 34.7052587,19.3101514 34.6592587,19.3011514 C34.4292587,19.2571514 34.1982587,19.2611514 33.9672587,19.2511514 C33.7723467,19.236819 33.5764398,19.2445346 33.3832587,19.2741514 Z M12.1542587,18.3921514 C12.1292587,18.3881514 12.1182587,18.3981514 12.1232587,18.4241514 C12.3612587,18.6791514 12.6462587,18.8761514 12.9372587,19.0641514 C13.8992587,19.6781514 14.9482587,20.0841514 16.0412587,20.3921514 C17.0572587,20.6791514 18.1022587,20.8021514 19.1472587,20.9321514 C19.2582587,20.9471514 19.3762587,20.9641514 19.5052587,20.9141514 C19.4092587,20.7881514 19.2832587,20.7421514 19.1702587,20.6791514 C17.1852587,19.6071514 15.0742587,18.8951514 12.8582587,18.4801514 L12.5792587,18.4201514 C12.4399933,18.3882022 12.2965119,18.3787493 12.1542587,18.3921514 L12.1542587,18.3921514 Z M24.3462587,9.16815137 C24.5342587,9.27315137 24.7062587,9.39515137 24.8552587,9.55815137 C25.0067814,9.72059699 25.165263,9.87640941 25.3302587,10.0251514 C25.5252587,10.2031514 25.6842587,10.4211514 25.8222587,10.6471514 C25.9672587,10.8821514 26.1412587,11.0971514 26.2662587,11.3441514 C26.5262587,11.8451514 26.7772587,12.3501514 26.8762587,12.9141514 C26.9162587,13.1351514 26.9072587,13.3571514 26.9092587,13.5791514 L26.9072587,14.4361514 C26.9172587,14.9951514 26.7872587,15.5271514 26.6072587,16.0491514 C26.5852587,16.0421514 26.5672587,16.0461514 26.5832587,16.0761514 C26.5702587,16.2601514 26.4902587,16.4261514 26.4332587,16.5961514 C26.2299901,17.225422 25.9796153,17.8384892 25.6842587,18.4301514 C25.6592587,18.4301514 25.6462587,18.4381514 25.6542587,18.4631514 C25.5692587,18.6001514 25.5242587,18.7551514 25.4522587,18.8931514 C25.2114944,19.3586986 24.9035284,19.7862795 24.5382587,20.1621514 C24.4722534,20.2341119 24.3944747,20.2943058 24.3082587,20.3401514 C24.2182587,20.3821514 24.1662587,20.3571514 24.1302587,20.2621514 C24.0922587,20.1621514 24.0992587,20.0551514 24.1032587,19.9521514 C24.1222587,19.6091514 24.2012587,19.2761514 24.2742587,18.9431514 C24.4292587,18.2481514 24.5282587,17.5431514 24.6052587,16.8381514 C24.7232587,15.7701514 24.7752587,14.6981514 24.7552587,13.6231514 C24.7486107,12.877471 24.6978553,12.132837 24.6032587,11.3931514 C24.5452587,10.9801514 24.4402587,10.5781514 24.3392587,10.1731514 C24.3162587,10.0831514 24.2622587,10.0021514 24.2222587,9.91815137 C24.2032587,9.87615137 24.1822587,9.88015137 24.1572587,9.91215137 C24.0442587,9.91615137 24.0172587,10.0171514 23.9712587,10.0881514 C23.8012587,10.3451514 23.7052587,10.6381514 23.5962587,10.9231514 C23.4182587,11.3911514 23.3242587,11.8831514 23.2612587,12.3771514 C23.1252587,13.4451514 23.0932587,14.5171514 23.1042587,15.5921514 C23.1142587,16.4571514 23.1482587,17.3201514 23.2422587,18.1811514 C23.2982587,18.7011514 23.3192587,19.2241514 23.2982587,19.7471514 C23.2971508,19.9080164 23.2690957,20.0675587 23.2152587,20.2191514 C23.1732587,20.3291514 23.1232587,20.3461514 23.0222587,20.2861514 C22.9633259,20.2495679 22.9080688,20.2073716 22.8572587,20.1601514 C21.9472587,19.3161514 21.2292587,18.3461514 20.8292587,17.1591514 C20.5532587,16.3421514 20.5282587,15.5041514 20.6242587,14.6581514 C20.7292587,13.7381514 20.9542587,12.8501514 21.2962587,11.9921514 C21.6252587,11.1661514 22.0562587,10.4081514 22.6812587,9.76915137 C22.9132587,9.53315137 23.1642587,9.31115137 23.4792587,9.17915137 C23.5536621,9.14153965 23.635889,9.12201075 23.7192587,9.12215137 C23.7472587,9.12615137 23.7572587,9.11215137 23.7632587,9.08915137 C23.9712587,9.02415137 24.1632587,9.06615137 24.3462587,9.16915137 L24.3462587,9.16815137 Z M22.8522587,10.7661514 C22.5912587,11.0261514 22.3622587,11.3161514 22.2092587,11.6591514 C21.8412587,12.4861514 21.6822587,13.3591514 21.6232587,14.2541514 C21.5892587,14.7691514 21.5792587,15.2841514 21.6152587,15.8011514 C21.6462587,16.2541514 21.6672587,16.7061514 21.7472587,17.1541514 C21.8832587,17.9211514 22.1422587,18.6351514 22.6242587,19.2571514 C22.6912587,19.3431514 22.7542587,19.4351514 22.8862587,19.5191514 C22.8862587,19.4121514 22.8882587,19.3391514 22.8862587,19.2631514 C22.8522587,18.4761514 22.8042587,17.6911514 22.7642587,16.9031514 C22.7056698,15.8942756 22.6826555,14.8836483 22.6952587,13.8731514 C22.7122587,12.9151514 22.7872587,11.9641514 22.9512587,11.0221514 C22.9746821,10.9268365 22.97741,10.8276091 22.9592587,10.7311514 C22.8962587,10.7101514 22.8752587,10.7431514 22.8522587,10.7661514 L22.8522587,10.7661514 Z M25.1392587,11.0141514 C25.1241081,11.1117132 25.1285272,11.2113147 25.1522587,11.3071514 C25.2382587,11.7241514 25.2722587,12.1491514 25.3022587,12.5721514 C25.3592587,13.3091514 25.3362587,14.0481514 25.2972587,14.7881514 C25.2652587,15.4081514 25.2042587,16.0251514 25.1082587,16.6391514 C25.0382587,17.0771514 24.9872587,17.5171514 24.8652587,17.9461514 C24.8132587,18.1321514 24.7852587,18.3401514 24.7692587,18.5411514 C24.7562587,18.6751514 24.6952587,18.8091514 24.7462587,18.9681514 C24.8992587,18.8911514 24.9722587,18.7651514 25.0362587,18.6381514 C25.2842587,18.1681514 25.4872587,17.6821514 25.6062587,17.1631514 C25.7462587,16.5491514 25.8202587,15.9291514 25.8642587,15.3011514 C25.9352587,14.2951514 25.9062587,13.2941514 25.7182587,12.3011514 C25.6462587,11.9271514 25.5522587,11.5541514 25.3432587,11.2231514 C25.2942587,11.1481514 25.2552587,11.0661514 25.1392587,11.0131514 L25.1392587,11.0141514 Z" id="Shape" fill="#000000" fill-rule="nonzero"></path>
        </g>
    </g>
</svg>