<?xml version="1.0" encoding="UTF-8"?>
<svg width="48px" height="48px" viewBox="0 0 48 48" version="1.1" xmlns="http://www.w3.org/2000/svg" xmlns:xlink="http://www.w3.org/1999/xlink">
    <title>by-belta</title>
    <g id="Page-1" stroke="none" stroke-width="1" fill="none" fill-rule="evenodd">
        <g id="by-belta" fill-rule="nonzero">
            <rect id="Rectangle" x="0" y="0" width="48" height="48"></rect>
            <path d="M8.73613514,16.0979451 C8.82237044,16.2852456 8.92297825,16.4653422 9.0451449,16.6166234 C9.21042916,16.8255355 9.39727227,16.9984283 9.61286048,17.1497095 C10.7482916,17.978154 12.5376736,18.0934158 14.1977027,17.3009906 C15.5918396,16.638235 16.547614,15.5072282 16.86381,14.3257942 C16.8997413,14.2033285 16.9356727,14.073659 16.9500453,13.9511932 L16.9500453,13.9439894 C17.021908,13.4469227 16.9284864,12.9714675 16.6697806,12.575255 C16.3463983,12.0997998 15.8218004,11.8188491 15.2109672,11.7396066 C15.5846534,11.9413148 15.8792906,12.2294694 16.0589474,12.5968665 C16.2314179,12.949856 16.2817219,13.3532724 16.2242317,13.7422812 C16.102065,14.6139488 15.4984181,15.3199277 15.390624,15.4351895 C14.4492222,16.4581384 13.4287715,16.8039239 13.2563009,16.8687587 C11.6465758,17.5459221 9.9003114,17.1785249 9.16731156,15.9322562 C8.86548805,15.4135779 8.77925279,14.8228609 8.87267434,14.2249401 C8.90141944,13.9872126 8.98046845,13.7422812 9.08826255,13.4757381 C9.28229191,12.9786714 9.706282,12.4527892 10.0009193,12.1358192 C10.0943408,12.0277612 10.4823995,11.6747718 10.6045661,11.5811215 C11.2944484,11.0264239 11.9052816,10.7598809 11.969958,10.7310655 C12.997595,10.2628142 13.4718891,10.1691639 13.8599478,10.0755137 C14.4635948,9.92423252 15.4768592,9.85219385 15.6062122,9.85219385 C16.1954866,9.83778612 16.7560159,9.86660159 17.2878001,9.95304795 C17.575251,10.003475 18.1501529,10.1331446 18.1501529,10.1331446 C18.336996,10.1835717 18.523839,10.2267949 18.7178684,10.2628142 C19.1706036,10.3492606 19.6377113,10.4140954 20.1263779,10.4429108 C21.9948089,10.5509688 23.7051419,10.1547562 24.9771123,9.44157352 C24.9411809,9.47038899 24.9052496,9.50640834 24.8693182,9.53522381 C23.0871224,10.644619 21.1396424,13.1803796 19.6233388,16.4869538 C19.2568389,16.5517886 18.3513685,16.746293 17.1512609,17.2217481 C15.2756436,17.9637462 13.7090361,19.044326 13.364095,19.793528 C13.8958792,19.1451801 15.3690652,18.3023279 17.2087511,17.6611839 C18.1214078,17.3442138 18.9909468,17.120894 19.7455055,16.9984283 C21.1324561,16.7895162 23.2092891,16.5950118 25.6382494,16.4437306 C25.9041414,16.4293229 26.5437198,16.3933036 26.5796511,16.3933036 C26.5796511,16.3933036 28.4265233,16.3284688 29.5906995,16.0475181 C29.6122583,16.0403142 29.6266309,16.0331103 29.6481897,16.0331103 C30.0721798,15.93946 30.524915,15.8025866 30.9920228,15.6008784 C31.1501208,15.5288398 31.3154051,15.4495972 31.4806894,15.3631509 C31.6100423,15.298316 31.7393952,15.2262774 31.8687481,15.1470349 C31.8974932,15.1326272 31.9765422,15.0822001 31.9837285,15.0822001 C32.6664244,14.6859875 33.3563066,14.1817169 34.02463,13.5693884 C35.2462964,12.4527892 36.1517668,11.2137244 36.6404334,10.0827176 C36.7051098,9.92423252 36.8344627,9.62167018 36.8344627,9.62167018 C36.8703941,9.52081608 36.8991392,9.42716582 36.9278843,9.32631168 C37.3231293,8.08004303 37.287198,7.07870575 36.7266687,6.61765832 C36.3242374,6.32950371 35.734963,6.30068824 35.0378945,6.51680422 L35.0235219,6.51680422 C34.9947769,6.52400807 34.9660318,6.5384158 34.9301004,6.54561969 C34.8869828,6.56002742 34.8438651,6.57443516 34.8079338,6.58884289 C34.6929534,6.63206606 34.577973,6.67528926 34.4629927,6.72571631 C34.4486201,6.7329202 34.4414338,6.74012404 34.4270613,6.74732793 C34.3120809,6.79775494 34.1971005,6.85538588 34.0749339,6.92022071 C34.0605614,6.92742455 34.0461888,6.93462844 34.0390026,6.94183229 C32.8029636,7.59738403 31.3728953,8.80042951 30.0721798,10.3852799 C29.9356407,10.5509688 29.6913074,10.8823466 29.6913074,10.8823466 C28.4552684,12.6689052 26.7377491,15.9250523 26.7377491,15.9250523 C26.392808,15.9538678 23.022446,16.1339644 22.4044265,16.1843915 C22.9146519,15.1830542 23.259593,14.5202986 23.259593,14.5202986 C23.6117203,13.7999121 23.9997791,13.0435062 24.4237692,12.2654887 C24.9914848,11.2209283 25.5663866,10.2412026 26.1125434,9.36233104 C25.1711416,10.2988335 24.1506909,11.6819756 23.2524067,13.3244569 C23.0368185,13.7134657 22.3038187,15.1902581 21.7720344,16.2348185 C21.6067502,16.2492263 21.4486522,16.263634 21.2905541,16.2780417 L22.1888383,14.5275025 C22.655946,13.5549807 23.2667793,12.5032163 24.0069654,11.4442481 C24.7687103,10.3420567 25.5807592,9.37673877 26.3568767,8.59872131 C26.1987787,8.6635561 26.0334944,8.7500025 25.8610239,8.84365272 C25.8610239,8.84365272 25.8682101,8.83644887 25.8682101,8.83644887 C24.6537299,9.49200061 22.9146519,9.72972817 21.0677797,9.38394262 C20.5647406,9.29029237 19.3718193,8.90848754 19.2424664,8.87246819 C17.812398,8.47625559 16.0014572,8.50507106 14.1402125,9.08138028 C13.0119676,9.42716582 12.0058894,9.92423252 11.1650955,10.5221534 C11.0069974,10.6230074 10.8488994,10.7310655 10.6979877,10.8535311 C9.31103701,11.9413148 8.51336071,13.425311 8.47024306,14.7580261 C8.48461561,14.7940455 8.41993916,15.4279856 8.73613514,16.0979451 C8.72894888,16.0979451 8.72894888,16.0979451 8.73613514,16.0979451 M30.0721798,14.3185904 C30.1440426,14.1673092 30.3165131,13.8071159 30.3308857,13.7783005 C30.4027484,13.6198154 30.5824052,13.2596222 30.5895915,13.2452145 C30.6686405,13.0795256 30.8554836,12.7121284 30.8626698,12.6977207 C30.9560914,12.5248279 31.0423267,12.3447313 31.1357482,12.1646347 C31.1501208,12.1358192 31.1644933,12.1142076 31.1788659,12.0853921 C31.2722874,11.9052955 31.3728953,11.717995 31.4735031,11.5306945 C31.6675325,11.1705012 31.8759343,10.8103079 32.0987088,10.4573185 C32.7167283,9.43436967 33.945581,7.66942266 33.9527673,7.66221881 C33.9599536,7.65501492 33.9671399,7.64781108 33.9743261,7.63340334 C33.9815124,7.62619945 34.2689633,7.24439463 34.7288848,6.89140524 C34.8151201,6.84097815 34.9947769,6.75453178 34.9947769,6.75453178 C35.2894141,6.63206606 35.576865,6.61765832 35.7780807,6.75453178 C36.0080413,6.91301682 36.0942766,7.23719079 36.0439727,7.62619945 C36.0439727,7.68383039 36.0367864,7.71984975 36.0367864,7.71984975 C36.0080413,7.89994637 35.9649237,8.09445077 35.9074335,8.28895508 C35.9074335,8.29615893 35.9002473,8.30336282 35.9002473,8.31056666 C35.8499433,8.50507106 35.7852669,8.69957541 35.7134042,8.89407981 C35.3397179,9.93864022 34.707326,11.0912587 33.8449732,12.1934518 C33.5934536,12.517624 33.3275616,12.8273902 33.0544832,13.1227487 C32.9179439,13.266826 32.7742185,13.4109033 32.630493,13.5549807 C32.6089342,13.5765923 32.5873754,13.5982038 32.5658166,13.6198154 C32.4292774,13.7566889 32.285552,13.8791546 32.1418265,14.0016203 C32.1274539,14.016028 32.1130814,14.0232319 32.0987088,14.0376396 C31.9621696,14.1529015 31.8256305,14.2609594 31.6890913,14.3690174 C31.6747188,14.3834252 31.6603462,14.3978329 31.6459737,14.4050368 C31.5094345,14.5130947 31.365709,14.606745 31.2291698,14.7003952 C31.2004247,14.714803 31.1788659,14.7364146 31.1501208,14.7508223 C31.0135816,14.8444725 30.8770424,14.9309189 30.7476895,15.0029576 C30.733317,15.0101614 30.7261307,15.0173653 30.7117581,15.0245692 C30.5824052,15.0966078 30.4602386,15.1542387 30.3380719,15.2118697 C30.3165131,15.2262774 30.2949543,15.2334813 30.2662092,15.247889 C30.1368563,15.3055199 30.021876,15.355947 29.8997093,15.3919663 C29.8709642,15.3991702 29.8494054,15.406374 29.8278466,15.4135779 C29.7056799,15.4495972 29.5835132,15.4856166 29.4757192,15.5072282 C29.5332094,15.4207818 30.0075034,14.4482599 30.0721798,14.3185904 M22.4978481,38.2858503 C22.7421813,38.0048995 22.9793283,37.7311527 23.1949166,37.4502019 C24.1363183,36.2831758 25.3076808,33.8482692 25.3076808,33.8482692 L29.8350329,24.9659033 C30.2949543,23.9933815 30.9057875,22.9416172 31.6459737,21.8826489 C32.4077186,20.7876614 33.2197674,19.8151396 33.9886987,19.0299183 C33.3563066,19.2964613 32.6017479,19.8295474 31.8184442,20.5571377 C30.1727877,21.8610374 28.5989938,24.0005854 26.9102197,27.4656446 L23.6620243,34.2805012 L23.1949166,35.1665766 C22.9793283,35.6708472 22.5265932,36.3912337 22.0019952,37.1908628 C21.54926,37.8824339 20.4353877,39.0926832 20.1982407,39.3015953 C20.1910544,39.3087992 20.1838681,39.3160031 20.1838681,39.3160031 C19.7526917,39.6978079 19.2712115,40.058001 18.7466135,40.3749713 C18.574143,40.4758253 18.3944862,40.5766793 18.2148293,40.6703297 C18.1501529,40.6991452 17.7189765,40.9224651 17.4315256,41.0305228 C17.338104,41.066542 16.784761,41.3114734 16.0876925,41.4699585 C15.9798984,41.4915704 15.390624,41.6356477 14.7366731,41.6788711 C14.5785751,41.6860748 14.4204771,41.7004825 14.2695654,41.6932788 C14.2695654,41.6932788 13.7305949,41.6788711 13.4718891,41.6428514 C12.1064972,41.4339397 10.9998112,40.7279608 10.5542622,39.6185654 C9.7637722,37.659114 11.3231935,35.1809843 14.0324184,34.0859968 C14.5282712,33.8842886 15.0241241,33.754619 15.5127906,33.6681726 C15.5199769,33.6681726 16.023016,33.5745224 16.2026728,33.5529108 C18.4304175,33.3151833 20.3563387,34.2012587 20.5000641,35.5411776 C20.6437896,36.8738927 18.9478292,38.1561807 16.7200845,38.3939083 C14.8444673,38.5956165 13.1844382,37.9976957 12.6239089,37.0107661 C12.6382815,37.075601 12.6454677,37.1332318 12.6670265,37.1980666 C13.1628794,38.7973247 15.4049965,39.5177113 17.6686725,38.8117325 C19.9323486,38.1057537 21.3624169,36.2327487 20.8665641,34.6334906 C20.7012798,34.1004046 20.3419661,33.6753765 19.8604859,33.3584064 C18.3801136,32.3282537 16.0373886,32.1481571 13.7808988,33.0630479 C10.6333112,34.3309282 8.83674299,37.2268821 9.7637722,39.532119 C10.259625,40.76398 11.4309875,41.570813 12.889801,41.8661713 C13.3137911,41.9526176 14.4061046,42.1255105 16.0014572,41.851764 C16.626663,41.7437054 17.259055,41.5780171 17.8986333,41.3474931 C19.5730349,40.7567759 20.9887307,39.856293 22.0091815,38.8261402 C22.1888383,38.624432 22.4978481,38.2858503 22.4978481,38.2858503 M32.1202676,22.5886278 C32.6879832,21.5440673 33.2556988,20.5643416 33.8090418,19.6854701 C32.86764,20.6219725 31.8543756,22.0051147 30.9560914,23.647596 C30.7405032,24.0366047 30.5464739,24.4328173 30.3596308,24.8146222 L25.2717494,34.7919756 C24.9411809,35.5051583 24.4668868,36.3263989 23.8704262,37.1620473 C22.7421813,38.7541016 21.5205149,39.9355356 20.7515837,40.2669132 C21.5708189,40.1444477 22.9865146,38.999033 24.2800437,37.3421439 C24.8765045,36.5785342 25.3436122,35.8221283 25.6885533,35.1377612 C25.7172984,35.1017419 31.7034638,23.3594414 32.1202676,22.5886278 M35.9289924,28.4021471 C33.7587379,26.8461122 30.4099346,27.8042263 28.4408958,30.5416951 C30.7117581,28.4237587 33.4928458,27.7177799 35.0163357,29.0072717 C35.7205905,29.6123965 36.0439727,30.5561028 36.0224139,31.6510904 C36.0224139,31.7087212 36.0152276,31.7591483 36.0080413,31.8095754 C36.0008551,31.9104295 35.9936688,32.0112836 35.9864826,32.1193416 C35.9505512,32.4579233 35.8858747,32.8037088 35.7924532,33.1566982 C35.418767,34.4389862 34.9372867,35.2962462 34.7360711,35.6492356 C34.2258456,36.5425149 33.4856595,37.4646096 32.551444,38.3074619 C32.393346,38.4515392 31.9765422,38.7973247 31.9334245,38.833344 C31.8112579,38.9269943 31.4735031,39.1791296 31.4231992,39.215149 C31.3010325,39.3015953 30.970464,39.5249151 30.9273463,39.5465268 C30.7979934,39.6257692 30.4746111,39.8202738 30.4386797,39.8418852 C30.2949543,39.9283315 30.1512288,40.0003703 30.0075034,40.0724088 C29.9931309,40.0796129 29.9787583,40.0940207 29.9571995,40.1012244 C28.9511213,40.5910871 28.4480821,40.6559219 28.419337,40.6703297 C27.4923078,40.8864455 26.7018178,40.8216111 26.1700336,40.4253983 C26.1628473,40.4181946 25.9616316,40.2453017 25.9544454,40.2236902 C25.6095043,39.7914582 25.5663866,39.4024495 25.5520141,39.3160031 C25.4298474,38.5884127 25.6310631,37.6807256 26.1269159,36.7658347 C26.6083962,35.8581477 27.3557687,34.9000336 28.3187292,34.021162 C28.3834056,33.9635311 28.4480821,33.8986963 28.5127586,33.8338615 C28.8576997,33.5312992 29.2026408,33.2575523 29.5475819,32.9982131 C31.0638855,31.9680604 32.5801891,31.6510904 33.1622773,32.3282537 C33.4066105,32.6164083 33.4497282,33.0414363 33.3275616,33.5457069 C33.6365713,33.0702518 33.7371791,32.5731851 33.5575222,32.1481571 C33.23414,31.4061589 32.1418265,31.1396159 30.970464,31.4493821 C30.970464,31.4493821 30.4099346,31.6222749 29.9068956,31.8960218 C29.2241996,32.2418073 28.5486899,32.7028547 27.9019253,33.2503484 C25.1927004,35.5916047 24.1506909,38.833344 25.5735729,40.4830294 C26.4071806,41.4483475 27.9019253,41.6500555 29.5403956,41.1890079 C30.8267385,40.8720381 32.2927382,40.1444477 33.6940614,39.04946 C35.3756493,37.7311527 36.575757,36.1751178 37.1003549,34.8135872 C38.156737,32.364273 37.7471194,29.7060467 35.9289924,28.4021471 M42.5044321,16.4005074 C41.5199127,16.746293 40.5497659,16.9119819 39.6442955,16.9407973 C37.6752567,17.012836 34.3336398,16.9552051 34.3336398,16.9552051 C33.5718948,16.9696128 29.7200525,16.7823123 29.1307781,16.7751084 C28.2756116,16.7679046 27.3701412,16.746293 26.4287394,16.7751084 C23.5829752,16.8759626 21.0462209,17.1569133 19.3143291,17.5099027 C18.9118978,17.5891452 18.128594,17.7980573 18.0711038,17.812465 C16.6913394,18.2014738 15.4768592,18.7417637 14.5282712,19.3468884 C13.9893008,19.6782662 13.5293793,20.0456633 13.1700656,20.4490798 C13.1485068,20.4706914 12.9904088,20.6579919 12.9401049,20.7300305 C12.8826147,20.8020692 12.7029579,21.0830199 12.7029579,21.0902238 C12.3939482,21.6305137 12.2717815,22.1852113 12.3939482,22.7255012 C12.6382815,23.8493042 13.8671341,24.6129139 15.5127906,24.8506415 L15.1894083,25.4773778 C14.9666339,25.9816483 14.5210849,26.7020349 13.996487,27.5016639 C13.5365655,28.2004388 12.4298795,29.4106882 12.1927325,29.6196004 C12.1855462,29.6196004 12.1783599,29.6268042 12.1783599,29.6340081 C11.7471836,30.008609 11.2728895,30.3688023 10.7411054,30.6857724 C10.5614485,30.7938304 10.3889779,30.8946845 10.2093211,30.9811309 C10.1446447,31.0099463 10.0799682,31.0387618 10.0152918,31.0747811 C9.10982136,31.5142169 8.57803713,31.6438865 8.08937059,31.7735561 C7.98876278,31.8023715 7.88096864,31.8239831 7.78036083,31.8455947 C7.71568437,31.8600024 7.64382166,31.8672063 7.57195891,31.881614 C7.03298847,31.989672 6.26405723,32.0112836 6.26405723,32.0112836 C4.53935172,31.9968759 3.08053825,31.2476739 2.54875408,29.9293665 C1.76545029,27.9627113 3.3176853,25.4845816 6.02691026,24.3967979 C6.12751803,24.339167 6.24249839,24.2959438 6.35029253,24.2599245 C7.04017469,23.9861777 8.01032159,23.8781196 8.18997844,23.8565081 C10.417723,23.6187805 12.3436442,24.504856 12.4873697,25.837571 C12.6310952,27.1702861 10.9351347,28.4525741 8.70739004,28.6903017 C6.83177281,28.8920099 5.17174376,28.2940891 4.61121443,27.3071595 C4.62558698,27.3647904 4.63995953,27.4296253 4.65433208,27.4872562 C5.15018491,29.0865143 7.38511581,29.8141047 9.64879184,29.100922 C11.9124678,28.3949432 13.3425362,26.5219382 12.8466833,24.9226801 C12.681399,24.3895941 12.3220854,23.964566 11.8406051,23.647596 C10.3602328,22.6174432 8.02469414,22.4373466 5.76101811,23.3450336 C2.61343051,24.6129139 0.816862259,27.5160716 1.74389146,29.8213086 C2.1391365,30.8082381 2.97274418,31.5214207 4.0363126,31.9248372 C4.92022416,32.3066421 6.19938078,32.313846 6.19938078,32.313846 C6.58025325,32.313846 6.96831198,32.2850305 7.37074326,32.2346034 C8.18997844,32.1409532 9.03077235,31.939245 9.87875256,31.6438865 C11.5531542,31.0531695 12.9760363,30.1526864 13.9893008,29.1225336 C14.1761439,28.9280293 14.4851536,28.5966514 14.4851536,28.5966514 C14.7294869,28.3157007 14.9666339,28.0347499 15.1822221,27.7610031 C15.7930553,27.0118011 16.4901238,25.7367169 16.9141139,24.9226801 C17.0650256,24.9226801 17.2303099,24.9082724 17.3812217,24.8938646 C17.3452903,24.9659033 17.0506531,25.5494164 16.9284864,25.7799401 C16.6410355,26.32023 16.2817219,26.8893354 15.864918,27.4728485 C14.7366731,29.0649027 13.5150067,30.2535405 12.7460755,30.5777144 C13.5653106,30.4552487 14.9810064,29.3098341 16.2745356,27.6529451 C16.7632022,27.0262088 17.1656334,26.4066764 17.4890157,25.8231633 L17.496202,25.8231633 C17.496202,25.8231633 17.6543,25.5206009 17.7261627,25.3765236 C17.8052117,25.2252425 17.8986333,25.0379419 18.0136136,24.821826 C18.2435744,24.7858067 18.4735351,24.7497873 18.7034959,24.6921564 C19.5083584,24.5120598 20.2557309,24.2383129 20.9096817,23.9069351 C20.9887307,23.8637119 21.2402503,23.7340424 21.2833679,23.7124307 L21.2761816,23.7124307 C22.4331716,23.0208597 23.0655636,21.9546876 22.7206225,21.1622625 C22.469103,20.5859532 21.757662,20.2905947 20.8881229,20.3194102 C21.3408581,20.4634875 21.6786129,20.7228266 21.8151521,21.0830199 C22.181652,22.041134 21.0677797,23.3522375 19.3287016,24.022197 C19.1634174,24.0798279 18.9981331,24.1374588 18.840035,24.1878859 C18.6028881,24.2599245 18.2938783,24.3103516 18.2651333,24.3175555 C19.0268782,22.8335592 20.2126132,20.5067107 21.2402503,18.4968323 C21.4989561,18.4752207 21.757662,18.4536091 21.8438972,18.4392013 C22.4547304,18.3815704 24.4740731,18.352755 24.9339946,18.3671627 C25.1567691,18.3743666 25.3723573,18.3815704 25.5807592,18.3959781 L20.2772896,28.8703983 L19.5586624,30.2535405 C19.5299173,30.3183753 19.5011722,30.38321 19.4796133,30.440841 C19.3430742,30.8082381 19.3430742,31.2116546 19.5371035,31.5358285 C19.6664564,31.7663522 19.8748584,31.9320411 20.1048192,32.0256913 C20.2126132,32.0905262 20.3778975,32.1265455 20.5791131,32.1265455 L20.6078582,32.1265455 C21.0965248,32.1265455 21.8007795,31.9608566 22.5409657,31.6366826 C23.3098969,31.3053048 23.9351027,30.8802767 24.2512986,30.5056757 C24.2584849,30.4984719 24.6321711,30.0446284 24.6393574,30.0446284 C24.6321711,30.0518322 24.3087888,30.3688023 24.1219458,30.5488989 C23.9782203,30.6857724 23.7841909,30.8010343 23.654838,30.8514613 C23.6332792,30.8586652 23.6117203,30.865869 23.5901615,30.8730729 C23.5901615,30.8730729 23.5829752,30.8730729 23.575789,30.8802767 C23.5039263,30.9018884 23.417691,30.9162961 23.338642,30.9162961 C23.0943087,30.9162961 22.8715342,30.8010343 22.7278088,30.6209376 C22.7134362,30.6065299 22.6990637,30.5921221 22.6846911,30.5705105 C22.6775049,30.5633067 22.6775049,30.5561028 22.6703186,30.5561028 C22.5912696,30.4480449 22.5625245,30.3399868 22.5553383,30.2823559 C22.5409657,30.224725 22.5337794,30.1742979 22.5337794,30.1094632 C22.5337794,30.0374245 22.548152,29.9653859 22.5625245,29.9005511 C22.6056421,29.6916389 22.6775049,29.5187462 22.6918774,29.4827269 L28.0025332,18.5760748 L28.0384646,18.51124 C28.5127586,18.5256477 28.9942389,18.5400555 29.4757192,18.561667 C33.2988165,18.7417637 36.8775804,18.7129482 38.8106879,18.4968323 C38.8969232,18.4896284 38.9831584,18.4752207 39.0693937,18.4680168 C39.7305308,18.3815704 40.2551288,18.2735124 40.6072558,18.1438429 C40.858776,18.0718042 41.1031092,17.9997656 41.3546285,17.9133191 C43.991991,16.9840205 45.9466572,15.3055199 46.5,13.6774464 C45.6592062,14.7724339 44.2506968,15.780975 42.5044321,16.4005074 M15.7211926,24.447225 C14.1330263,24.2959438 12.9616637,23.6620037 12.7748206,22.7110934 C12.5089285,21.39999 14.1761439,19.9304015 16.5907316,19.2532381 C16.8997413,19.1667917 17.2303099,19.0803453 17.5968099,19.0011028 C17.9130058,18.936268 18.1717117,18.8930448 18.5166528,18.8282101 L15.7211926,24.447225 Z M17.6255549,24.4040018 C17.4602706,24.4256134 17.3021726,24.4400211 17.1440746,24.447225 C17.2374962,24.2599245 20.1263779,18.5832786 20.1263779,18.5832786 C20.1479367,18.5760748 20.600672,18.5328516 20.6150445,18.5256477 C19.5658486,20.593157 18.3657411,22.948821 17.6255549,24.4040018" id="Shape" fill="#E30000"></path>
        </g>
    </g>
</svg>