<?xml version="1.0" encoding="UTF-8"?>
<svg width="48px" height="48px" viewBox="0 0 48 48" version="1.1" xmlns="http://www.w3.org/2000/svg" xmlns:xlink="http://www.w3.org/1999/xlink">
    <title>cn-icbc</title>
    <g id="Page-1" stroke="none" stroke-width="1" fill="none" fill-rule="evenodd">
        <g id="cn-icbc">
            <rect id="Rectangle" x="0" y="0" width="48" height="48"></rect>
            <path d="M23.9986273,1.5 C36.425996,1.5 46.5,11.5743025 46.5,24 C46.5,36.4256974 36.425996,46.5 23.9986273,46.5 C11.573455,46.5 1.5,36.4256974 1.5,24 C1.5,11.5745776 11.573455,1.5 23.9986273,1.5 Z M23.9997255,4.98583025 C13.4999085,4.98583025 4.98721859,13.4973959 4.98721859,23.9988996 C4.98721859,34.5004034 13.4999085,43.0119691 23.9997255,43.0119691 C34.5009152,43.0119691 43.013605,34.5004034 43.013605,23.9988996 C43.013605,13.4973959 34.5009152,4.98583025 23.9997255,4.98583025 Z M36.1333354,11.8870699 L36.1333354,22.2631366 L29.2456531,22.2631366 L29.2456531,25.7214588 L36.1333354,25.7214588 L36.1333354,36.0953248 L24.9202611,36.0953248 L24.9202611,32.6392033 L32.6743945,32.6392033 L32.6743945,29.1808812 L25.7677689,29.1808812 L25.7677689,18.8037142 L32.6743945,18.8037142 L32.6743945,15.3453921 L24.9202611,15.3453921 L24.9202611,11.8870699 L36.1333354,11.8870699 Z M23.1818681,11.8807431 L23.1818681,15.3346639 L15.402477,15.3346639 L15.402477,18.7940863 L22.3091025,18.7940863 L22.3091025,29.170153 L15.402477,29.170153 L15.402477,32.6298505 L23.1818681,32.6298505 L23.1818681,36.0881727 L11.9438106,36.0881727 L11.9438106,25.7132063 L18.832591,25.7132063 L18.832591,22.2535088 L11.9438106,22.2535088 L11.9438106,11.8807431 L23.1818681,11.8807431 Z" id="path-1" fill="#000000" fill-rule="nonzero"></path>
        </g>
    </g>
</svg>