<?xml version="1.0" encoding="UTF-8"?>
<svg width="48px" height="48px" viewBox="0 0 48 48" version="1.1" xmlns="http://www.w3.org/2000/svg" xmlns:xlink="http://www.w3.org/1999/xlink">
    <title>cr-bccr</title>
    <g id="Page-1" stroke="none" stroke-width="1" fill="none" fill-rule="evenodd">
        <g id="cr-bccr">
            <rect id="Rectangle" x="0" y="0" width="48" height="48"></rect>
            <path d="M15.5394593,23.6498227 C19.8690797,23.6498227 23.62619,26.0494503 25.5584183,29.595167 L22.5527312,29.595167 C20.9067594,27.5178779 18.4020182,26.1927118 15.5394593,26.1927118 C10.637323,26.1927118 6.66552331,30.1682131 6.66552331,35.0749114 C6.66552331,39.9816096 10.637323,43.9571109 15.5394593,43.9571109 C18.7956209,43.9571109 21.6223976,42.2021602 23.1610263,39.5876404 L26.0235851,39.5876404 C24.2702671,43.6347725 20.2269003,46.5 15.5394593,46.5 C9.24182566,46.5 4.125,41.3784065 4.125,35.0749114 C4.125,28.7714132 9.24182566,23.6498227 15.5394593,23.6498227 Z M26.2407214,24.6837756 L38.7057736,24.8708156 C40.570228,24.8987744 40.9048566,25.2821888 41.8993443,26.1925487 C42.9145507,27.0831146 43.290735,28.5645025 43.290735,30.2862694 C43.290735,31.8695008 43.2346673,33.059822 42.1573053,34.2076647 C41.5535092,34.8522671 41.0229017,35.4118097 40.7411813,35.6673425 L40.738,35.67 L40.8222605,35.691708 C41.6717182,35.9290659 42.1243958,36.3828345 42.5260182,37.0039519 C42.981825,37.6768235 43.0615145,38.8371696 43.0615145,39.8464826 L43.0617518,39.9326826 C43.0618276,39.9452426 43.0619199,39.9570017 43.0620263,39.9681135 L43.0628132,40.0282479 C43.0637292,40.0830751 43.0649734,40.125669 43.0660145,40.1892276 L43.0669683,40.2610039 C43.0671094,40.2745412 43.0672399,40.2889682 43.0673575,40.3044387 L43.0670679,40.83542 C43.0655856,41.1362963 43.0621679,41.5728071 43.0555555,42.2236439 L43.0555544,44.6390397 C43.0555544,45.6629893 43.9722691,45.9357324 44.1172983,46.1336385 L40.5269604,46.1336385 C40.5269604,46.1336385 40.5891153,45.0092099 40.5269598,44.4748681 L40.5269598,40.6555391 C40.5269598,39.5953044 40.4154442,39.1294561 39.4617222,37.9705135 C38.9851967,37.3570126 37.638771,37.006809 36.5614096,37.0064526 L29.0154174,37.0042248 L29.0154174,46.1336385 L26.2407214,46.1338835 L26.2407214,24.6837756 Z M29.0154151,27.1475369 L29.0154151,34.506991 L35.5722138,34.4961862 C37.271128,34.4934014 38.2650129,34.5044847 39.3423742,33.7327047 C40.2445111,32.590632 40.3013222,32.1776047 40.3013222,30.6537439 C40.3013222,29.3871598 40.438968,28.676037 39.8381286,28.0823245 C39.2580108,27.4688236 38.7764681,27.1644012 37.4297683,27.1620732 L29.0154151,27.1475369 Z M33.6857389,1.5 C38.0153622,1.5 41.7724714,3.89962665 43.7046994,7.4453437 L40.6990108,7.4453437 C39.053039,5.36805488 36.5482977,4.04288787 33.6857389,4.04288787 C28.7836056,4.04288787 24.8118029,8.0183889 24.8118029,12.925088 C24.8118029,17.8317857 28.7836056,21.807287 33.6857389,21.807287 C36.9419004,21.807287 39.7686802,20.0523363 41.3073052,17.4378195 L44.1698656,17.4378195 C42.4165473,21.4849485 38.3731798,24.3501761 33.6857389,24.3501761 C29.0797318,24.3501761 25.1053706,21.6104997 23.3025772,17.6725029 C23.2304692,18.4396361 23.0174563,19.1640506 22.6645327,19.845942 C22.229525,20.69631 21.6882949,21.3534131 21.0408423,21.8172515 C20.3933897,22.2810898 19.5790151,22.6337994 18.5977184,22.8753802 C17.6265396,23.1073004 16.432798,23.2232605 15.0164936,23.2232605 L6.53385059,23.2232605 L6.53385059,1.97369797 L14.8799219,1.97369797 C16.5794854,1.97369797 17.9401481,2.19112187 18.9619097,2.62596965 C19.9937892,3.05115425 20.7980481,3.71308922 21.3746864,4.61177457 C21.9614404,5.50079673 22.2548175,6.43330355 22.2548175,7.40929503 C22.2548175,8.31764377 21.9968476,9.17284446 21.4809078,9.9748971 C20.9649681,10.7769495 20.1860016,11.4243895 19.1440085,11.9172171 C20.4894965,12.2940851 21.5213739,12.9366931 22.2396408,13.8450411 L22.3165004,13.9475072 C22.2865674,13.610661 22.2712796,13.2696402 22.2712796,12.925088 C22.2712796,6.62159112 27.3881052,1.5 33.6857389,1.5 Z M14.621952,13.4101945 L9.4777375,13.4101945 L9.4777375,20.7156381 L15.0164936,20.7156381 C15.967441,20.7156381 16.6351272,20.6818161 17.019552,20.6141719 C17.6973539,20.4982128 18.2638754,20.304947 18.7191166,20.0343745 C19.1743557,19.7638039 19.5486648,19.372441 19.8420439,18.8602857 C20.1354209,18.3384698 20.2821094,17.7393461 20.2821094,17.0629148 C20.2821094,16.2705263 20.0696634,15.5844334 19.6447715,15.0046359 C19.2198796,14.4151759 18.6280667,14.0044868 17.8693327,13.7725686 C17.1207166,13.5309858 16.0382564,13.4101945 14.621952,13.4101945 Z M13.9239166,4.4813203 L9.4777375,4.4813203 L9.4777375,10.9025721 L14.288111,10.9025721 C15.5931319,10.9025721 16.5289037,10.8204343 17.0954262,10.6561587 C17.8440424,10.4435663 18.405505,10.0908564 18.7798141,9.59802906 C19.1642389,9.10520152 19.3564514,8.48675131 19.3564514,7.74267841 C19.3564514,7.03725868 19.1794136,6.41880857 18.825338,5.88732807 C18.4712624,5.34618418 17.9654405,4.97897933 17.3078722,4.78571351 C16.6503018,4.5827847 15.5223166,4.4813203 13.9239166,4.4813203 Z" id="Combined-Shape" fill="#0C3E65" fill-rule="nonzero"></path>
        </g>
    </g>
</svg>