<?xml version="1.0" encoding="UTF-8"?>
<svg width="48px" height="48px" viewBox="0 0 48 48" version="1.1" xmlns="http://www.w3.org/2000/svg" xmlns:xlink="http://www.w3.org/1999/xlink">
    <title>dz-cpa</title>
    <g id="Page-1" stroke="none" stroke-width="1" fill="none" fill-rule="evenodd">
        <g id="dz-cpa" fill-rule="nonzero">
            <rect id="Rectangle" x="0" y="0" width="48" height="48" rx="8"></rect>
            <path d="M3.34615383,45.2867648 C2.04807692,43.875 1.875,41.0514708 1.875,24.1985295 C1.875,6.55147062 2.04807692,4.69852943 3.4326923,3.375 C4.8173077,2.05147059 7.58653848,1.875 24.2019231,1.875 C42.2884617,1.875 43.5,1.96323529 45.1442309,3.63970588 C46.7884617,5.31617648 46.875,6.55147062 46.875,24.375 C46.875,42.1985296 46.7884617,43.4338235 45.1442309,45.1102942 C43.5,46.7867649 42.2884617,46.875 24.1153846,46.875 C6.46153848,46.875 4.64423078,46.6985294 3.34615383,45.2867648 Z M22.7307692,42.6397059 C26.1057692,42.2867647 28.0096154,42.6397059 30.1730769,43.7867648 L33.0288462,45.3750003 L35.625,42.9044121 C38.0480769,40.5220589 38.1346154,40.2573531 36.8365385,38.8455884 C32.3365385,33.8161766 19.6153846,33.1102942 13.125,37.522059 L9.49038461,39.9926472 L12.3461538,42.9926472 C15.0288462,45.8161767 15.2884615,45.9044118 16.7596154,44.4926472 C17.625,43.6985297 20.3076923,42.9044121 22.7307692,42.6397059 Z M12.1730769,33.2867648 C15.375,26.6691177 13.9038462,14.6691177 9.49038461,10.9632353 C8.45192309,10.0808824 7.75961539,10.3455883 5.76923078,12.4632353 L3.34615383,15.1102942 L4.90384617,18.0220589 C6.8076923,21.639706 6.375,29.4044119 4.125,31.6985295 C2.82692308,33.0220589 2.91346154,33.3750001 5.50961539,36.0220589 C8.71153848,39.3750002 9.49038461,39.022059 12.1730769,33.2867648 Z M42.6346152,35.757353 L45.0576922,33.4632354 L43.326923,30.1985295 C41.25,26.139706 41.25,20.757353 43.326923,17.2279412 L44.9711539,14.4044118 L42.548077,12.0220589 C40.298077,9.81617648 39.8653846,9.72794121 38.5673077,10.7867647 C32.7692308,15.6397059 32.5096154,30.2867648 37.9615385,36.4632354 C39.7788462,38.4926472 39.8653846,38.4926472 42.6346152,35.757353 Z M28.6153846,29.5808824 C35.1923077,23.9338236 28.7019231,14.2279412 20.4807692,17.4044118 C18.8365385,18.1102942 16.5865385,22.257353 16.5865385,24.8161766 C16.5865385,27.4632354 21.1730769,31.8750001 23.7692308,31.8750001 C24.9807692,31.8750001 27.1442308,30.8161766 28.6153846,29.5808824 Z M32.6826923,12.1102941 C38.5673077,9.28676475 39,8.40441181 35.8846154,5.22794117 L33.2884615,2.58088235 L30.3461538,4.43382354 C26.625,6.7279412 21.3461538,6.81617647 17.7980769,4.61029412 L15.0288462,2.93382352 L12.3461538,5.75735295 C9.23076922,9.02205886 9.40384617,9.46323532 15.8076923,12.375 C21,14.8455883 27.1442308,14.757353 32.6826923,12.1102941 Z" id="Shape" fill="#FED61C"></path>
        </g>
    </g>
</svg>