<?xml version="1.0" encoding="UTF-8"?>
<svg width="48px" height="48px" viewBox="0 0 48 48" version="1.1" xmlns="http://www.w3.org/2000/svg" xmlns:xlink="http://www.w3.org/1999/xlink">
    <title>gb-coventgardenfx</title>
    <g id="Page-1" stroke="none" stroke-width="1" fill="none" fill-rule="evenodd">
        <g id="gb-coventgardenfx" fill-rule="nonzero">
            <rect id="Rectangle" x="0" y="0" width="48" height="48"></rect>
            <path d="M12.8494711,21.9635182 C12.5820028,22.3554866 12.2321168,22.6541291 11.7998132,22.8594459 C11.3675097,23.0647626 10.89944,23.1674209 10.3956042,23.1674209 C9.61185965,23.1674209 8.95718414,22.9092196 8.43157768,22.3928169 C7.90597121,21.8764142 7.64316798,21.2449096 7.64316798,20.4983033 C7.64316798,19.7516969 7.90752625,19.1124153 8.43624283,18.5804582 C8.96495941,18.0485012 9.64918085,17.7825227 10.4889072,17.7825227 C10.9865227,17.7825227 11.4452621,17.8914028 11.8651253,18.109163 C12.2849884,18.3269232 12.6131037,18.6317874 12.8494711,19.0237558 L12.2430021,19.4063915 C11.7889279,18.8153281 11.1948993,18.5197965 10.4609163,18.5197965 C9.88243815,18.5197965 9.39726295,18.7048926 9.00539068,19.0750849 C8.61351836,19.4452772 8.41758223,19.9041291 8.41758223,20.4516404 C8.41758223,20.9991517 8.61040829,21.4688915 8.99606038,21.8608599 C9.38171247,22.2528282 9.86999777,22.4488124 10.4609163,22.4488124 C11.1700185,22.4488124 11.7671572,22.1501698 12.2523324,21.5528847 L12.8494711,21.9635182 Z M16.3571159,17.4775001 C17.0853325,17.4775001 17.704008,17.7537133 18.2131425,18.3061397 C18.722277,18.858566 18.9768442,19.5214776 18.9768442,20.2948745 C18.9768442,21.0682714 18.7253626,21.7295582 18.2223994,22.278735 C17.7194363,22.8279118 17.0976751,23.1025002 16.3571159,23.1025002 C15.6165567,23.1025002 14.9932526,22.8279118 14.4872038,22.278735 C13.981155,21.7295582 13.7281306,21.0682714 13.7281306,20.2948745 C13.7281306,19.5214776 13.9826978,18.858566 14.4918323,18.3061397 C15.0009668,17.7537133 15.622728,17.4775001 16.3571159,17.4775001 L16.3571159,17.4775001 Z M16.3524874,22.3525002 C16.8711103,22.3525002 17.3131894,22.1711453 17.6787248,21.8084354 C18.0442602,21.4457256 18.2270279,21.0080757 18.2270279,20.4954858 C18.2270279,19.9828958 18.041136,19.5392508 17.6693521,19.1645505 C17.2975683,18.7898503 16.8570512,18.6025002 16.3478011,18.6025002 C15.8385509,18.6025002 15.399596,18.7898503 15.0309363,19.1645505 C14.6622767,19.5392508 14.4779468,19.9843947 14.4779468,20.4999822 C14.4779468,21.0155697 14.6560282,21.4532196 15.0121909,21.8129318 C15.3683536,22.1726441 15.8151191,22.3525002 16.3524874,22.3525002 L16.3524874,22.3525002 Z M24.3817126,17.9131787 L22.0584698,23.1674208 L21.871864,23.1674208 L19.5299606,17.9131787 L20.341696,17.9131787 L21.9558366,21.5902149 L23.5699772,17.9131787 L24.3817126,17.9131787 Z M30.2240873,20.4118589 L25.759879,20.4118589 C25.7910101,20.9967809 25.9793537,21.4663433 26.3249095,21.8205461 C26.6704654,22.1747489 27.0829533,22.3518503 27.5623732,22.3518503 C28.3780095,22.3518503 29.0006327,21.9326562 29.4302428,21.094268 L30.0839971,21.4452212 C29.7913642,22.0106457 29.4458083,22.4282151 29.0473295,22.6979291 C28.6488506,22.9676432 28.1725439,23.1025002 27.6184093,23.1025002 C26.8525827,23.1025002 26.2206202,22.8279118 25.7225216,22.278735 C25.224423,21.7295582 24.9753738,21.0682714 24.9753738,20.2948745 C24.9753738,19.5214776 25.2259796,18.858566 25.7271913,18.3061397 C26.2284029,17.7537133 26.8494696,17.4775001 27.5903912,17.4775001 C28.3313128,17.4775001 28.9508229,17.7390903 29.4489215,18.2622705 C29.94702,18.7854508 30.2054086,19.5019802 30.2240873,20.4118589 Z M29.099363,19.7275002 C29.0096244,19.2545272 28.8062167,18.8862839 28.4891402,18.6227704 C28.1720637,18.3592569 27.8071265,18.2275002 27.3943288,18.2275002 C26.5567681,18.2275002 26.0003885,18.7275002 25.72519,19.7275002 L29.099363,19.7275002 Z M35.7180177,22.9994345 L34.9529338,22.9994345 L34.9529338,20.5729639 C34.9529338,20.0130092 34.9264979,19.6319288 34.8736263,19.4297229 C34.8207546,19.2275171 34.7430022,19.0564198 34.640369,18.9164311 C34.5377358,18.7764424 34.4071117,18.6722286 34.2484967,18.6037897 C34.0898817,18.5353508 33.8970557,18.5011313 33.6700186,18.5011313 C33.4429815,18.5011313 33.2206095,18.5571268 33.0029027,18.6691177 C32.7851958,18.7811087 32.59859,18.9366517 32.4430851,19.1357467 C32.2875803,19.3348417 32.1802819,19.5463802 32.12119,19.7703621 C32.0620982,19.994344 32.0325523,20.4423078 32.0325523,21.1142535 L32.0325523,22.9994345 L31.258138,22.9994345 L31.258138,17.9131788 L32.0325523,17.9131788 L32.0325523,18.6784503 C32.5363881,18.0811652 33.1335268,17.7825227 33.8239684,17.7825227 C34.1909599,17.7825227 34.5237403,17.8774039 34.8223097,18.0671664 C35.120879,18.2569288 35.3448061,18.518241 35.4940908,18.851103 C35.6433754,19.183965 35.7180177,19.6957015 35.7180177,20.3863123 L35.7180177,22.9994345 Z M39.2915198,18.5851245 L38.2838483,18.5851245 L38.2838483,22.1501697 C38.2838483,22.2808258 38.3025089,22.3601528 38.3398301,22.3881505 C38.3771512,22.4161482 38.4704541,22.4301471 38.6197388,22.4301471 L39.0675928,22.4301471 L39.0675928,23.0927602 C38.7690235,23.142534 38.5419864,23.1674209 38.3864815,23.1674209 C38.0879122,23.1674209 37.8670952,23.0943157 37.7240307,22.9481053 C37.5809663,22.8018948 37.509434,22.5701358 37.509434,22.2528281 L37.509434,18.5851245 L36.6323865,18.5851245 L36.6323865,17.9131788 L37.509434,17.9131788 L37.509434,16 L38.2838483,16 L38.2838483,17.9131788 L39.2915198,17.9131788 L39.2915198,18.5851245 Z M8.27762805,28.9909502 C8.25896745,30.0984163 7.93707239,30.9601244 7.31194278,31.5760747 C6.68681321,32.1920249 5.86419242,32.5 4.84408046,32.5 C3.67468382,32.5 2.74165458,32.1406957 2.04499275,31.4220871 C1.34833092,30.7034785 1,29.8619909 1,28.8976244 C1,27.9332579 1.34833092,27.0979921 2.04499275,26.3918269 C2.74165458,25.6856617 3.64047275,25.3325791 4.74144725,25.3325791 C5.33858596,25.3325791 5.89373836,25.4430146 6.40690445,25.6638857 C6.9200705,25.8847567 7.42235126,26.222285 7.91374664,26.6764706 L7.29794737,27.264423 C6.91851547,26.8973416 6.50798259,26.6158088 6.06634875,26.4198246 C5.62471494,26.2238405 5.17064068,26.1258484 4.70412608,26.1258484 C4.23761146,26.1258484 3.77420694,26.2502828 3.31391251,26.4991516 C2.85361809,26.7480203 2.49284678,27.0839932 2.23159859,27.5070701 C1.97035041,27.9301471 1.83972632,28.3874434 1.83972632,28.8789593 C1.83972632,29.6442308 2.12741033,30.3115102 2.70277836,30.8807975 C3.27814639,31.4500848 3.99813395,31.7347285 4.86274105,31.7347285 C5.50342112,31.7347285 6.05701849,31.558965 6.52353308,31.2074378 C6.99004771,30.8559106 7.2761767,30.3752828 7.38191999,29.7655543 L5.25461334,29.7655543 L5.25461334,28.9909502 L8.27762805,28.9909502 Z M14.4779466,32.3020236 L13.7281304,32.3020236 L13.7281304,31.5221276 C13.1788823,32.1590426 12.5463213,32.4775002 11.8304474,32.4775002 C11.1145735,32.4775002 10.5020692,32.1996622 9.99293479,31.6439863 C9.48380029,31.0883104 9.22923308,30.4253988 9.22923308,29.6552514 C9.22923308,28.8851041 9.48534313,28.2254421 9.99756328,27.6762653 C10.5097834,27.1270885 11.1346302,26.8525001 11.8721038,26.8525001 C12.6095774,26.8525001 13.2282529,27.1677081 13.7281304,27.7981241 L13.7281304,26.9889819 L14.4779466,26.9889819 L14.4779466,32.3020236 Z M11.8581956,31.7275002 C12.3678987,31.7275002 12.8069803,31.5489287 13.1754403,31.1917859 C13.5439004,30.834643 13.7281304,30.3897026 13.7281304,29.8569644 C13.7281304,29.3242263 13.5469709,28.8777978 13.1846518,28.5176787 C12.8223327,28.1575597 12.3786454,27.9775001 11.8535898,27.9775001 C11.3285343,27.9775001 10.8848469,28.1635121 10.5225279,28.5355359 C10.1602088,28.9075597 9.9790493,29.3465478 9.9790493,29.8525002 C9.9790493,30.3584525 10.1632793,30.7974407 10.5317394,31.1694645 C10.9001994,31.5414883 11.3423515,31.7275002 11.8581956,31.7275002 Z M17.813187,27.3204186 L17.4119844,27.9736992 C17.3062411,27.9177037 17.2036079,27.889706 17.1040848,27.889706 C16.9112587,27.889706 16.7370933,27.9845872 16.5815884,28.1743496 C16.4260835,28.3641121 16.3094549,28.6129808 16.2317025,28.9209559 C16.15395,29.2289311 16.1150738,29.7842195 16.1150738,30.5868214 L16.1150738,32.3320137 L15.3313292,32.3320137 L15.3313292,27.245758 L16.1150738,27.245758 L16.1150738,27.7963802 C16.2705786,27.5661765 16.4276386,27.3950793 16.5862536,27.2830883 C16.7448685,27.1710973 16.9252542,27.1151019 17.1274105,27.1151019 C17.3295668,27.1151019 17.558159,27.1835408 17.813187,27.3204186 L17.813187,27.3204186 Z M23.4757413,32.3105081 L22.7259251,32.3105081 L22.7259251,31.5683206 C22.176677,32.1744404 21.5425731,32.4775003 20.8236135,32.4775003 C20.1046539,32.4775003 19.4921497,32.2146422 18.9861009,31.688926 C18.4800521,31.1632099 18.2270277,30.5323505 18.2270277,29.7963479 C18.2270277,29.0603453 18.4831378,28.4310321 18.9953579,27.9084084 C19.5075781,27.3857847 20.1324249,27.1244729 20.8698985,27.1244729 C21.607372,27.1244729 22.2260476,27.4244403 22.7259251,28.0243752 L22.7259251,25.3525002 L23.4757413,25.3525002 L23.4757413,32.3105081 Z M21.2308984,31.7275002 C21.7160374,31.7275002 22.148978,31.551905 22.5297201,31.2007145 C22.9104622,30.8495241 23.1008332,30.4045836 23.1008332,29.8658931 C23.1008332,29.3272026 22.9242794,28.8777979 22.5711719,28.5176788 C22.2180643,28.1575598 21.7728417,27.9775002 21.2355041,27.9775002 C20.6981665,27.9775002 20.2498734,28.1635121 19.8906249,28.535536 C19.5313763,28.9075598 19.3517521,29.3450598 19.3517521,29.8480359 C19.3517521,30.3510121 19.5359821,30.7900002 19.9044421,31.1650002 C20.2729022,31.5400003 20.7150543,31.7275002 21.2308984,31.7275002 L21.2308984,31.7275002 Z M29.8491792,29.7868589 L25.3849709,29.7868589 C25.4161021,30.3717809 25.6044456,30.8413433 25.9500014,31.1955461 C26.2955573,31.5497489 26.7080452,31.7268502 27.187465,31.7268502 C28.0031015,31.7268502 28.6257247,31.3076561 29.0553347,30.4692679 L29.709089,30.8202211 C29.4164561,31.3856457 29.0709002,31.8032151 28.6724214,32.0729291 C28.2739425,32.3426432 27.7976358,32.4775002 27.2435011,32.4775002 C26.4776746,32.4775002 25.8457121,32.2029118 25.3476135,31.653735 C24.8495149,31.1045582 24.6004657,30.4432714 24.6004657,29.6698745 C24.6004657,28.8964776 24.8510715,28.233566 25.3522832,27.6811397 C25.8534949,27.1287133 26.4745615,26.8525001 27.2154831,26.8525001 C27.9564047,26.8525001 28.5759148,27.1140902 29.0740133,27.6372705 C29.5721119,28.1604507 29.8305005,28.8769802 29.8491792,29.7868589 Z M28.7244549,29.1025001 C28.6347163,28.6295272 28.4313087,28.2612839 28.1142321,27.9977704 C27.7971556,27.7342569 27.4322184,27.6025001 27.0194206,27.6025001 C26.18186,27.6025001 25.6254804,28.1025001 25.3502819,29.1025001 L28.7244549,29.1025001 Z M35.3914577,32.3320137 L34.6263737,32.3320137 L34.6263737,29.905543 C34.6263737,29.3455883 34.5999378,28.964508 34.5470662,28.7623021 C34.4941945,28.5600962 34.4164421,28.3889989 34.3138089,28.2490103 C34.2111756,28.1090215 34.0805516,28.0048077 33.9219366,27.9363688 C33.7633216,27.8679299 33.5704956,27.8337105 33.3434585,27.8337105 C33.1164214,27.8337105 32.8940494,27.889706 32.6763426,28.0016969 C32.4586357,28.1136878 32.2720299,28.2692308 32.116525,28.4683258 C31.9610201,28.6674209 31.8537218,28.8789593 31.7946299,29.1029412 C31.7355381,29.3269231 31.7059922,29.774887 31.7059922,30.4468326 L31.7059922,32.3320137 L30.9315779,32.3320137 L30.9315779,27.245758 L31.7059922,27.245758 L31.7059922,28.0110295 C32.2098279,27.4137444 32.8069666,27.1151019 33.4974083,27.1151019 C33.8643998,27.1151019 34.1971802,27.2099831 34.4957496,27.3997455 C34.7943189,27.589508 35.0182459,27.8508202 35.1675306,28.1836822 C35.3168153,28.5165442 35.3914577,29.0282806 35.3914577,29.7188915 L35.3914577,32.3320137 Z M40.2152189,29.0469457 L37.5280947,29.0469457 L37.5280947,32.3320136 L36.7256895,32.3320136 L36.7256895,25.5005656 L40.2152189,25.5005656 L40.2152189,26.2938349 L37.5280947,26.2938349 L37.5280947,28.2536765 L40.2152189,28.2536765 L40.2152189,29.0469457 Z M46,32.3320136 L45.0576403,32.3320136 L43.3501971,29.5882353 L41.6427534,32.3320136 L40.7003939,32.3320136 L42.8836825,28.8136312 L40.8403483,25.5005656 L41.7827079,25.5005656 L43.3501971,28.0483598 L44.9363469,25.5005656 L45.869376,25.5005656 L43.8260418,28.8136312 L46,32.3320136 Z" id="Combined-Shape" fill="#024385"></path>
        </g>
    </g>
</svg>