<?xml version="1.0" encoding="UTF-8"?>
<svg width="48px" height="48px" viewBox="0 0 48 48" version="1.1" xmlns="http://www.w3.org/2000/svg" xmlns:xlink="http://www.w3.org/1999/xlink">
    <title>gb-fairfx</title>
    <defs>
        <linearGradient x1="-0.001%" y1="50%" x2="100.001%" y2="50%" id="linearGradient-1">
            <stop stop-color="#3260B0" offset="0%"></stop>
            <stop stop-color="#3569B9" offset="3.5%"></stop>
            <stop stop-color="#376FC0" offset="9.1%"></stop>
            <stop stop-color="#3871C2" offset="25%"></stop>
            <stop stop-color="#4E90DB" offset="66.1%"></stop>
            <stop stop-color="#5DA6EC" offset="100%"></stop>
        </linearGradient>
    </defs>
    <g id="Page-1" stroke="none" stroke-width="1" fill="none" fill-rule="evenodd">
        <g id="gb-fairfx">
            <rect id="Rectangle" x="0" y="0" width="48" height="48"></rect>
            <path d="M32.506579,19.5 L27.5563516,29.7937279 C27.5563516,29.7937279 8.13216225,31.5644929 6.88203866,46.3363954 C6.87706841,46.3900553 6.87221115,46.4450846 6.86859645,46.5 C6.80636764,45.817941 6.75518944,44.2608334 6.75037084,42.5668935 L6.75007747,42.1885103 C6.75240379,40.4150104 6.80740013,38.5531631 6.95444572,37.4262847 C9.16144988,20.5101695 32.506579,19.5 32.506579,19.5 Z M40.5,1.5 L35.5424877,11.7937279 C35.5424877,11.7937279 8.56062495,13.5644929 6.92165824,28.3363955 C6.91554941,28.3901691 6.91057189,28.4450846 6.9044631,28.5 C6.73375624,27.0602115 6.62560796,21.7204016 7.0174758,19.4262847 C9.82288496,3.01776372 38.6895075,1.57493217 40.4189797,1.50312994 L40.4908811,1.50031798 L40.5,1.5 Z" id="Combined-Shape" fill="url(#linearGradient-1)" fill-rule="nonzero"></path>
        </g>
    </g>
</svg>