<?xml version="1.0" encoding="UTF-8"?>
<svg width="48px" height="48px" viewBox="0 0 48 48" version="1.1" xmlns="http://www.w3.org/2000/svg" xmlns:xlink="http://www.w3.org/1999/xlink">
    <title>gh-bog</title>
    <g id="Page-1" stroke="none" stroke-width="1" fill="none" fill-rule="evenodd">
        <g id="gh-bog">
            <rect id="Rectangle" x="0" y="0" width="48" height="48"></rect>
            <path d="M25.3970611,2.00238145 C27.2047797,2.02355779 28.9722797,2.32849718 30.7059115,2.83037659 C32.0225403,3.21155083 33.3010673,3.6986068 34.5287919,4.30848557 C36.3534447,5.2148332 38.0214567,6.352003 39.5264777,7.72423025 C40.9722292,9.04351664 42.2486395,10.5068022 43.3366575,12.1331456 C44.4987623,13.869606 45.3581695,15.7500656 45.9804989,17.7406421 C46.3191815,18.8248711 46.577427,19.9302763 46.7467684,21.0547403 C46.8526067,21.7450892 46.9415109,22.4375558 46.9605618,23.1342576 C46.9796127,23.9304882 47.021948,24.7288364 46.985963,25.5250671 C46.9076426,27.2975273 46.6218791,29.0424582 46.124439,30.7492717 C45.7032024,32.1892633 45.1740108,33.5847845 44.4670108,34.9104238 C43.7240257,36.3017098 42.8815527,37.6315843 41.8591544,38.8344008 C40.0853041,40.9202709 38.0510914,42.7033193 35.661262,44.0607231 C33.4767589,45.301657 31.1525493,46.159299 28.6865163,46.6294139 C27.8969623,46.779766 27.1031749,46.9047064 26.2988036,46.9428239 C25.778079,46.9682355 25.2573545,46.9809413 24.7345131,47 C24.7387467,46.9936471 24.7387467,46.9851766 24.7387467,46.976706 L23.9063086,46.9807844 C23.7676212,46.9804707 23.6288554,46.9788237 23.4898544,46.9745884 C21.9636657,46.9280004 20.4607615,46.7098841 18.9790249,46.3287098 C17.2707943,45.8903594 15.6281835,45.2825983 14.0617763,44.4715442 C12.5017193,43.6626078 11.0623181,42.6736724 9.74145577,41.5153263 C8.1136623,40.0880405 6.69966226,38.4744029 5.52909036,36.6532371 C4.39238673,34.8850122 3.52451245,32.9939645 2.91911722,30.9822116 C2.58043458,29.8598652 2.33912319,28.7163425 2.17613217,27.5558787 C2.10839564,27.0603522 2.05547648,26.5605904 2.03854234,26.0629463 C2.00679085,25.1608339 1.99409025,24.2566039 2.00255731,23.3544916 C2.00679085,22.905553 2.05759324,22.4544968 2.11686271,22.0076759 C2.2057669,21.3300328 2.29255433,20.6502721 2.42591062,19.9810996 C2.7370753,18.4055794 3.2239316,16.8830001 3.87166216,15.411244 C4.55961129,13.8357238 5.4253688,12.3703207 6.45200057,10.9980934 C6.94309041,10.3416267 7.47439881,9.72327736 8.02899164,9.11975148 C9.01752161,8.04399309 10.1034228,7.08470459 11.2824618,6.22918019 C12.9822253,4.99248156 14.8238122,4.02472253 16.7987554,3.30896202 C18.0010788,2.87272928 19.2330369,2.54026064 20.4903962,2.3115561 C21.2587825,2.17179222 22.0314023,2.04049887 22.8167227,2.0299107 C23.6761299,2.01932252 24.5376539,1.99179327 25.3970611,2.00238145 Z M22.4759232,2.37720278 C21.743522,2.48308451 21.0068873,2.55720172 20.2808364,2.69696561 C18.4731177,3.04214006 16.7331356,3.60754851 15.0651236,4.39319096 C13.2531715,5.25083299 11.5851594,6.3392972 10.0632043,7.65011304 C9.61444978,8.03552255 9.17839587,8.43575549 8.73599166,8.83175317 C8.69365633,8.8698706 8.66190484,8.91645856 8.6259198,8.95881125 C8.56241681,9.0350461 8.50526411,9.11551622 8.43541082,9.18539816 C6.52185387,11.18021 5.05281789,13.4630201 3.99655139,16.0126523 C3.15196154,18.0498168 2.59525194,20.1653338 2.41956032,22.3697915 C2.36452439,23.0516698 2.33700643,23.7335482 2.30948846,24.4175442 C2.29890463,24.6631898 2.32218906,24.910953 2.33488966,25.1565986 C2.36029086,25.641537 2.38569206,26.1285929 2.41744355,26.6135313 C2.47036272,27.3949385 2.59736871,28.1657575 2.75400943,28.9344589 C3.23451544,31.2680922 4.07487175,33.466197 5.25602748,35.5330084 C5.9185754,36.6934722 6.68484489,37.784054 7.54848564,38.8047539 C7.87235092,39.1880458 8.1962162,39.56922 8.54124914,39.9313356 C8.83124616,40.2362749 9.14876114,40.5179204 9.45992582,40.8016834 C9.72452164,41.0452114 9.99546775,41.2823865 10.2727642,41.5132086 C11.7587343,42.7541425 13.3780607,43.7854306 15.1349769,44.6028376 C16.1933602,45.0941288 17.2792614,45.5049499 18.3990309,45.8247128 C19.5188004,46.1444756 20.655504,46.3816507 21.8133753,46.5171793 C22.641031,46.6124729 23.4686868,46.6844724 24.300576,46.6760019 C24.745097,46.6717666 25.1875012,46.6484726 25.6320222,46.6378845 C26.3877078,46.6209434 27.1349264,46.5256498 27.8800282,46.4112976 C29.1225702,46.2207105 30.3397109,45.922124 31.5335673,45.5240087 C33.5063937,44.8654243 35.3522141,43.9527237 37.0646782,42.7710836 C37.9600705,42.1527343 38.7856094,41.447562 39.5920975,40.716978 C41.5077712,38.9805176 43.023376,36.9433531 44.2066485,34.6520724 C45.0935737,32.9325531 45.7476545,31.1262107 46.1646576,29.235163 C46.3826845,28.2483452 46.5266246,27.2530569 46.6070618,26.2471805 C46.6515139,25.6775368 46.6557474,25.1057754 46.6790318,24.5234259 C46.6557474,23.9347235 46.6578642,23.3333152 46.6007115,22.7382599 C46.5329749,22.0224994 46.4398372,21.3088565 46.3191815,20.6015665 C46.0059001,18.7274599 45.4364899,16.9295881 44.6448192,15.2015982 C43.8002293,13.3550208 42.7122113,11.6630307 41.3934658,10.119275 C39.4735585,7.87034704 37.1980345,6.06612233 34.5647769,4.71930669 C32.905232,3.8701352 31.1652499,3.24331535 29.3469474,2.83461186 C28.4240372,2.62708367 27.4947767,2.45767289 26.5528156,2.39626149 C25.7717287,2.34543826 24.9885251,2.33061481 24.2074383,2.30732083 C23.629561,2.29037976 23.0516837,2.29673266 22.4759232,2.37720278 Z M23.5343065,43.5270792 C23.8158365,43.5609613 23.8179532,43.5694319 23.7989023,43.8510773 C23.7904353,43.9675472 23.7671508,44.0840171 23.7438664,44.2280163 C23.5258395,44.200487 23.3247466,44.1814283 23.1278873,44.1454285 C23.0897855,44.1390756 23.058034,44.0713113 23.0305161,44.0289586 C23.0199322,44.0141352 23.0283993,43.9887235 23.0283993,43.9675472 C23.0538005,43.4423738 23.0538005,43.469903 23.5343065,43.5270792 Z M26.1421629,40.7127427 C26.1950821,41.2019163 26.2734024,41.6889723 26.3390222,42.1781459 C26.3919413,42.5826141 26.4427437,42.9892 26.4914294,43.3936682 C26.512597,43.5757848 26.5379982,43.7579014 26.5485821,43.9400179 C26.5570491,44.1030758 26.5295312,44.1306051 26.3750072,44.1390756 C26.2268336,44.1475461 26.0786599,44.1475461 25.9304862,44.1475461 C25.8373485,44.1475461 25.7907796,44.1030758 25.7844293,44.0056646 C25.7590281,43.6054317 25.7293934,43.2051987 25.6997587,42.8028481 C25.6743575,42.4724971 25.6510731,42.1421461 25.6172048,41.8139128 C25.5981539,41.6317962 25.5452347,41.6063846 25.3822437,41.6868547 C25.2742886,41.7397955 25.1769173,41.8096775 25.0731958,41.8689713 C24.9842916,41.9219121 24.8932706,41.9706177 24.7874323,42.0277939 C24.6519592,41.6953252 24.7027616,41.4708559 24.9483066,41.3120333 C25.2107856,41.1426226 25.4097617,40.9223886 25.551585,40.6470961 C25.5981539,40.5581554 25.6531898,40.4670971 25.7632617,40.4586266 C25.9728216,40.4416855 26.1104114,40.4141563 26.1421629,40.7127427 Z M21.0788573,40.0520407 C21.743522,40.2447455 22.4251209,40.3569801 23.1088364,40.450156 C23.1575221,40.4565089 23.2062077,40.4692148 23.2527766,40.4798029 C23.3416808,40.4988616 23.3861329,40.5539201 23.3818993,40.6449784 C23.3797826,40.7720365 23.3776658,40.896977 23.3734323,41.0346232 C23.1278873,41.0197998 22.9119772,41.0092116 22.696067,40.9965058 C22.668549,40.9943881 22.641031,40.9859176 22.6113963,40.9859176 C22.3870191,40.9732118 22.3235161,41.024035 22.2854143,41.244269 C22.1689921,41.8943829 22.0546867,42.5466143 21.9361478,43.1988458 C21.9001628,43.4000211 21.8578274,43.5990788 21.8176089,43.8002541 C21.7816238,43.9717825 21.7689232,43.9866059 21.5932316,43.9696648 C21.453525,43.956959 21.3138184,43.9294298 21.1783454,43.8955476 C21.0153543,43.8531949 20.9941867,43.8214304 21.0322885,43.6562549 C21.1825789,43.0040234 21.3371029,42.351792 21.4873933,41.6995605 C21.5360789,41.487797 21.5889981,41.2739159 21.6334502,41.0600348 C21.680019,40.8249774 21.6503843,40.7953305 21.4196567,40.7508602 C21.2608993,40.7190956 21.1021418,40.6809782 20.9497346,40.6280374 C20.7486418,40.5581554 20.7232406,40.4903911 20.7888603,40.2913334 C20.8057945,40.2447455 20.8227286,40.1981575 20.8438962,40.1536872 C20.9073992,40.0266291 20.9328004,40.0118057 21.0788573,40.0520407 Z M28.9447618,40.2278044 C29.1077528,40.3463919 29.2622768,40.4903911 29.3850492,40.6492137 C29.740666,41.117211 29.9692768,41.6423844 30.0539474,42.2289691 C30.1915373,43.1797871 29.4972378,43.7007252 28.8325732,43.7240192 C28.7627199,43.7261368 28.6907498,43.7261368 28.6208965,43.7303721 C28.3372498,43.7473132 28.1149893,43.6456667 27.945648,43.4127269 L27.877833,43.3312372 L27.7022198,43.1564931 C27.91813,43.0336703 28.1128725,42.9595531 28.3245492,42.9489649 C28.3774684,42.9468473 28.4430881,42.9913176 28.4854234,43.0315527 C28.652648,43.1840224 28.8368067,43.1946105 29.0357827,43.1183757 C29.2389923,43.0400232 29.3215462,42.8727301 29.3363636,42.6715548 C29.351181,42.461909 29.3638816,42.2501455 29.2178247,42.0532055 C29.1776061,42.0807347 29.1373875,42.0955582 29.1141031,42.1230874 C28.7606031,42.5593202 27.9943336,42.5847318 27.6027318,42.1146169 C27.2831001,41.7292074 27.1709114,41.2887394 27.3063845,40.8101539 C27.5074773,40.0943934 28.3203157,39.7767482 28.9447618,40.2278044 Z M18.9070549,39.2409867 C19.2309201,39.2960452 19.5188004,39.4463972 19.7749291,39.6560431 C20.0310579,39.8656889 20.1220789,40.1388638 20.1220789,40.4586266 C20.1220789,40.827095 20.111495,40.8376832 19.7537615,40.740272 C19.6923753,40.7233309 19.6331058,40.7042722 19.5717196,40.6852135 C19.4806986,40.6555666 19.432013,40.6047434 19.4552974,40.496744 C19.4933992,40.3103922 19.404495,40.1685106 19.2669052,40.0541584 C19.0996806,39.9186297 18.9028213,39.8402773 18.6911447,39.8042775 C18.5472046,39.7788659 18.4244321,39.8296891 18.343995,39.9546295 C18.2699081,40.0710994 18.2635578,40.1960399 18.3503453,40.3103922 C18.4096147,40.386627 18.4752345,40.4586266 18.5472046,40.5263909 C18.8562525,40.8165068 19.1822345,41.0875641 19.4722315,41.3946211 C19.7622285,41.7016781 19.785513,42.1040287 19.5801866,42.4746148 C19.3494591,42.8917888 18.9896088,43.1755518 18.3672794,43.0611996 C17.8275039,42.9616707 17.3427644,42.7626131 16.9342285,42.3877917 C16.7458362,42.2162633 16.6463482,42.0087351 16.6421147,41.754619 C16.6399979,41.621208 16.6336476,41.4856794 16.6463482,41.3522684 C16.6548153,41.2379161 16.6908003,41.1320344 16.7225518,40.9943881 C16.9469291,41.0854464 17.1437883,41.157446 17.3321806,41.244269 C17.3702824,41.2612101 17.3956836,41.3332097 17.4020339,41.3840329 C17.4126177,41.4814441 17.4083842,41.5809729 17.4062674,41.6805018 C17.4020339,41.8732065 17.4867045,42.0193233 17.6369949,42.131558 C17.8211536,42.2670866 18.0243632,42.3623801 18.2466237,42.4174386 C18.4773513,42.4746148 18.7863992,42.3348509 18.9007046,42.1294403 C18.9557405,42.0299115 18.9409231,41.9346179 18.8689531,41.8562654 C18.7355968,41.7122663 18.5958902,41.5725024 18.4540668,41.4369738 C18.2699081,41.2612101 18.0793992,41.093917 17.8973572,40.9160357 C17.291962,40.3188627 17.6327614,39.6073375 18.1429021,39.3172215 C18.3863303,39.1774576 18.6509261,39.1965163 18.9070549,39.2409867 Z M31.4742978,38.7878128 C31.5589685,38.9148709 31.6415223,39.0355761 31.7346601,39.1732224 C31.626705,39.2494572 31.5462679,39.3129862 31.4573637,39.3680447 C31.2605044,39.4908676 31.0572948,39.6073375 30.8604355,39.7301603 C30.7821151,39.7788659 30.6910942,39.8402773 30.7164954,39.9440414 C30.7503636,40.0774523 30.8032828,40.2087457 30.8689026,40.3315685 C30.8985373,40.3887446 30.9641571,40.3506272 31.0170762,40.3188627 C31.1652499,40.2278044 31.3155403,40.1325108 31.472181,40.0583936 C31.6711571,39.9652177 31.8786002,39.9631001 32.0902769,40.032982 C32.3993248,40.1346285 32.6618038,40.3040393 32.877714,40.5475672 C32.9877859,40.6725077 33.0766901,40.8122716 33.0893907,40.9774471 C33.1063248,41.1934458 33.1274925,41.4179151 33.095741,41.6296785 C33.0470553,41.9600295 32.8057439,42.1675577 32.5390314,42.3390861 C32.3040703,42.4894382 32.0415912,42.5762612 31.7642948,42.6059081 C31.4129116,42.6440255 31.1102139,42.5296733 30.8689026,42.2670866 C30.7567139,42.1463814 30.765181,42.1019111 30.9091211,42.0023822 C30.9683906,41.9621472 31.0318936,41.9303827 31.0890463,41.8922652 C31.245687,41.7906188 31.3917439,41.7736777 31.5526182,41.9007358 C31.6838577,42.0023822 31.8426152,42.0341468 32.0140733,41.9812059 C32.3527559,41.8774418 32.5284475,41.5661495 32.3993248,41.2357985 C32.3421721,41.0896817 32.2511511,40.9435649 32.1410793,40.8292126 C31.8214475,40.4988616 31.3345912,40.5581554 31.0996301,40.9520355 C31.0022589,41.1150933 30.8689026,41.2125045 30.6910942,41.2612101 C30.5217529,41.3077981 30.4878846,41.2929746 30.4222648,41.1235639 C30.3947469,41.0515643 30.3693457,40.9774471 30.348178,40.9033299 C30.2402229,40.5009793 30.1365013,40.0986287 30.0285462,39.6962781 C29.9883277,39.5480437 30.0221959,39.4315738 30.1619025,39.3553389 C30.5323367,39.152046 30.9027708,38.9487531 31.273205,38.7433425 C31.3557589,38.6988722 31.4213786,38.711578 31.4742978,38.7878128 Z M27.9117797,40.9160357 C27.9011959,40.9647413 27.9011959,41.0134469 27.8969623,41.0621525 C27.8948456,41.3205039 28.0006839,41.6296785 28.1509743,41.7800306 C28.2800971,41.9070887 28.4325043,42.0087351 28.6208965,41.9536766 C28.8135223,41.8965005 28.90666,41.7334426 28.9489953,41.5470908 C28.9659294,41.4750912 28.9659294,41.3882682 28.9405282,41.3183862 C28.8833756,41.1616813 28.815639,41.007094 28.7352019,40.8609772 C28.6695821,40.7423896 28.5573935,40.6661548 28.426154,40.6195668 C28.172142,40.5306262 27.9583486,40.6513313 27.9117797,40.9160357 Z M15.7700069,37.0937051 C16.4050368,37.5934669 17.0167824,38.0762876 17.6539291,38.578167 C17.5629081,38.7158133 17.4655369,38.8661653 17.3533482,39.0334585 C17.2707943,38.9868705 17.200941,38.9572236 17.1416716,38.9148709 C16.7670039,38.6395784 16.3902195,38.3642859 16.0197853,38.0868758 C15.8546775,37.9619353 15.8462105,37.9577001 15.7043871,38.097464 C15.5921985,38.2054633 15.4821266,38.3155803 15.3762883,38.427815 C15.2598661,38.5485201 15.2556326,38.578167 15.3805218,38.6840488 C15.6493512,38.9106357 15.9245308,39.1308697 16.203944,39.3468684 C16.33095,39.4463972 16.4706566,39.5311026 16.6040129,39.6242785 C16.6378811,39.6475725 16.6611656,39.6835723 16.7035009,39.7280426 C16.6378811,39.8296891 16.5807284,39.9334532 16.5108752,40.0266291 C16.4029201,40.1727459 16.3648183,40.1833341 16.2166446,40.0774523 C15.8716117,39.8318067 15.532929,39.5798082 15.1921296,39.3299273 C15.1116925,39.2706335 15.0354889,39.2092221 14.9571685,39.1499284 C14.8873152,39.0991051 14.8132284,39.0906346 14.7412583,39.1435755 C14.5020637,39.3299273 14.3009709,39.552279 14.0871775,39.7958069 C14.6523541,40.3421567 15.2895009,40.7572131 15.9372314,41.1976811 C15.8313931,41.3628566 15.7340218,41.5153263 15.6408841,41.6593254 C15.2386985,41.57462 13.5177673,40.229922 13.066896,39.6518078 C13.9622882,38.7814599 14.8407464,37.9111121 15.7700069,37.0937051 Z M33.7286542,37.2482925 C33.8133248,37.3986445 33.8704775,37.5701729 33.9064625,37.7395837 C34.1054386,38.688284 34.4504715,39.5734553 35.0008308,40.3760388 C35.0368159,40.4268621 35.0664506,40.4840382 35.1087859,40.5539201 C34.9648458,40.6958017 34.8187889,40.8228597 34.6557979,40.9308591 C34.5647769,40.9922705 34.4885733,40.9499178 34.4398877,40.8715653 C34.34675,40.7233309 34.2514955,40.5729789 34.1731751,40.4162739 C33.8493098,39.7619248 33.6228158,39.0736935 33.4915763,38.3558154 C33.4323068,38.027582 33.3793877,38.0021704 33.1126751,38.2054633 C32.905232,38.3642859 32.7041392,38.5294614 32.4988128,38.688284 C32.4437769,38.7306367 32.3823906,38.7687541 32.3231212,38.8047539 C32.2553846,38.8471066 32.1855313,38.8471066 32.134729,38.7793423 C32.0352409,38.6565195 31.9421032,38.5252262 31.8214475,38.3600507 C31.8701331,38.334639 31.9040014,38.3219332 31.9336361,38.3007569 C32.4183757,37.9704059 32.8544296,37.5807611 33.2883667,37.1868811 C33.5233278,36.973 33.576247,36.9751176 33.7286542,37.2482925 Z M24.4296988,12.4656142 C26.4829623,12.5185551 28.434621,12.9801994 30.2359894,14.003017 C30.7143786,14.2740742 31.1991181,14.5387785 31.626705,14.8881883 C32.2511511,15.3964206 32.8226781,15.9639467 33.3751541,16.5462962 C34.7679865,18.013817 35.5723578,19.7926301 36.0846153,21.7196776 C36.2645405,22.3952031 36.3555614,23.0876696 36.3788459,23.786489 C36.3873129,24.053311 36.4169477,24.3222506 36.4105974,24.5890726 C36.3746123,26.2874155 36.0295794,27.9158766 35.3183458,29.4638675 C34.6875494,30.8382124 33.8323757,32.0558523 32.7443577,33.1061991 C31.182184,34.6160726 29.3384804,35.6177138 27.2280641,36.1344166 C26.3644234,36.3504154 25.488082,36.4732382 24.6794772,36.4372384 C23.5618245,36.4478266 22.5351927,36.375827 21.5297286,36.132299 C19.6013543,35.6621841 17.9037075,34.7431307 16.4240877,33.4217267 C15.4588422,32.5598494 14.6523541,31.5687963 14.0067403,30.4443324 C13.3336086,29.2711628 12.8742702,28.0217583 12.6181415,26.6918838 C12.4551505,25.8405946 12.4212822,24.9829526 12.4572672,24.1210753 C12.4826684,23.5175494 12.5313541,22.9097883 12.6160247,22.3126153 C12.7366804,21.4570909 13.0055098,20.6375663 13.3378421,19.8434533 C13.9601715,18.3589914 14.8682643,17.0693519 16.0049679,15.9364174 C17.2602105,14.6848953 18.7355968,13.7912535 20.3909082,13.1771395 C21.2418484,12.8616119 22.1181897,12.658319 23.0178155,12.5545549 C23.4856209,12.501614 23.9597766,12.4529084 24.4296988,12.4656142 Z M22.4505221,13.0034934 C20.0162405,13.4397262 17.9227584,14.5324256 16.1658422,16.2667684 C15.2640997,17.156175 14.5486326,18.1832278 13.9876894,19.3203976 C13.5558691,20.1970983 13.2129529,21.1055636 13.0245607,22.0669697 C12.9187223,22.6133194 12.8573361,23.1660221 12.8255846,23.72296 C12.7747822,24.5784844 12.7790157,25.4297735 12.9166056,26.2747097 C13.1854349,27.9412882 13.7696625,29.4892791 14.7031565,30.8975062 C16.0684709,32.9537294 17.9121746,34.4191326 20.2046328,35.3212449 C21.4429412,35.8083009 22.7299352,36.06877 24.0571479,36.1195932 C25.0202766,36.1577106 25.9707048,36.0497113 26.9105491,35.8400654 C28.9087768,35.3953621 30.6868606,34.5080732 32.1961152,33.1273754 C34.727768,30.8191537 35.978777,27.9222295 36.0528638,24.5318964 C36.0316961,24.1464869 36.014762,23.7949596 35.9914776,23.4434322 C35.9385584,22.645084 35.7798009,21.8636768 35.5490734,21.0992107 C35.3119955,20.3114506 34.954262,19.5766314 34.573244,18.8502827 C34.1414236,18.0265228 33.5995314,17.2789978 32.9708517,16.5971194 C31.853199,15.38795 30.5450373,14.4498379 29.033666,13.7976064 C27.7572558,13.2470214 26.4236928,12.9357291 25.0414443,12.8510237 C24.17357,12.7980829 23.3099293,12.8489061 22.4505221,13.0034934 Z M24.364079,16.2244157 C24.4233485,16.3684149 24.4741509,16.4742966 24.5143694,16.5844136 C25.126115,18.2742861 25.7378605,19.9662761 26.3474892,21.6582662 C26.3517228,21.670972 26.3559563,21.6857955 26.3623066,21.6985013 C26.4639114,21.9864996 26.4639114,21.9801467 26.7644923,21.9886172 C27.5180611,22.0119112 28.27163,22.0436757 29.0251989,22.0669697 C29.6178935,22.0860284 30.2084714,22.0944989 30.801166,22.1156753 C31.3070732,22.134734 31.8150972,22.1686162 32.3210044,22.198263 C32.3675733,22.2003807 32.4120254,22.2173218 32.4585942,22.2279099 C32.4649445,22.2469686 32.4712948,22.2639097 32.4776451,22.2808508 C32.4077918,22.3443798 32.3400553,22.4142618 32.2659685,22.4735556 C31.1292648,23.369315 29.9925612,24.2629568 28.8579744,25.1587163 C28.5700941,25.3853032 28.2949145,25.6309488 28.0070342,25.8575357 C27.8525103,25.9782409 27.8122917,26.105299 27.8694444,26.2958861 C28.1784923,27.3652916 28.4790731,28.4389323 28.7817708,29.5104555 C28.9870971,30.2368042 29.1903067,30.9631528 29.3956331,31.6873839 C29.4062169,31.7276189 29.414684,31.767854 29.4273846,31.8207949 C29.3300133,31.8462065 29.2749774,31.7805598 29.2157079,31.7403248 C28.5933785,31.3252684 27.9731659,30.9080943 27.3550701,30.4888027 C26.4787288,29.895865 25.6045042,29.3008096 24.7281628,28.7057543 C24.681594,28.6739898 24.6307916,28.6464605 24.5884563,28.6104607 C24.4487497,28.4918732 24.3217437,28.5088143 24.1714532,28.6104607 C23.1173035,29.3304565 22.0568035,30.0419818 20.9984202,30.7556246 C20.5306148,31.0711522 20.0606926,31.3845621 19.5907705,31.6979721 C19.5230339,31.74456 19.4489471,31.7826774 19.3367585,31.8483241 C19.3600429,31.7339718 19.3706267,31.6683252 19.3875609,31.6026785 C19.6902585,30.5226848 19.9929561,29.4448088 20.293537,28.3648151 C20.4903962,27.6575252 20.6745549,26.9481176 20.8777645,26.2450629 C20.9285669,26.0650639 20.8841148,25.9570645 20.7444082,25.8469475 C19.8468992,25.1396576 18.9557405,24.4260147 18.0603483,23.7144895 C17.4972884,23.2676685 16.9321117,22.8208476 16.3690518,22.3740267 C16.33095,22.3443798 16.2970817,22.3104977 16.2505129,22.2702626 C16.303432,22.198263 16.3754021,22.2024983 16.4410219,22.198263 C17.137438,22.1664985 17.8338542,22.1326164 18.5323872,22.1072048 C19.4552974,22.0733226 20.3782076,22.047911 21.3011178,22.0182641 L22.0398693,21.9864996 C22.2494292,21.978029 22.2705969,21.9674409 22.3446837,21.7641479 C22.632564,20.9763879 22.9183275,20.1865101 23.2019742,19.3966324 L24.2794083,16.4107676 C24.2984592,16.3599443 24.3238604,16.3133564 24.364079,16.2244157 Z M8.170815,19.381809 C8.22585093,19.4538085 8.28088686,19.5258081 8.34227309,19.6105135 C8.41635992,19.5639255 8.47774615,19.532161 8.53278208,19.4898083 C9.00482101,19.1340457 9.52977912,19.1403986 10.0060516,19.5067494 C10.2325456,19.6803955 10.3553181,19.8942766 10.3532282,20.192863 C10.3532282,20.6312134 10.2981654,21.0653285 10.2388959,21.497326 C10.2029109,21.7493245 10.1626923,21.9992054 10.1245905,22.2490863 C10.0970725,22.4396734 10.0716713,22.4714379 9.88327913,22.465085 C9.10854257,22.4396734 8.33380602,22.4121441 7.55906947,22.3824973 C7.12936586,22.3655562 6.69966226,22.3464975 6.26995865,22.3295564 C6.22127302,22.3274388 6.17047062,22.3295564 6.12178499,22.3253211 C6.0201802,22.3189682 5.9630275,22.268145 5.97149457,22.1622633 C5.9820784,22.0288523 5.99054547,21.8954413 6.01171313,21.7641479 C6.10908439,21.1733279 6.20222212,20.5825078 6.31652751,19.995923 C6.35251254,19.8116888 6.43506644,19.6338075 6.52185387,19.4665144 C6.88805448,18.7698126 7.80249762,18.8291063 8.170815,19.381809 Z M38.8448789,19.0323993 C39.4121723,19.0811049 39.9815825,19.1298104 40.5467592,19.1954571 L41.1606215,19.273888 L42.3883461,19.445338 C42.5259359,19.4643967 42.606373,19.5342787 42.6360077,19.6676896 C42.6783431,19.8519239 42.7227952,20.0382757 42.7587802,20.2246276 C42.7862982,20.3622738 42.7439628,20.4681555 42.6127233,20.5422728 C42.252873,20.7392128 41.8972562,20.9573291 41.5310556,21.1521515 C40.8071215,21.5312081 40.076837,21.8996766 39.3465525,22.268145 C39.2237801,22.3295564 39.1010076,22.4036736 38.9147322,22.4100265 C38.8872142,22.1834396 38.8554627,21.9759114 38.8427621,21.7683832 C38.8406453,21.7260305 38.9062651,21.6625015 38.952834,21.6392075 C39.1369927,21.5502668 39.3275016,21.4761496 39.5137771,21.3935619 C39.7085196,21.3067389 39.7169867,21.2940331 39.6788849,21.0928578 L39.4523909,19.932394 C39.4291064,19.8138064 39.3740705,19.7460421 39.2449477,19.735454 C39.0269208,19.7185129 38.8110106,19.6867484 38.5951004,19.6676896 C38.4194088,19.6528662 38.3876573,19.6401604 38.3347381,19.4771025 C38.2924028,19.3458092 38.2606513,19.2102806 38.2161992,19.0451051 C38.44481,19.0069876 38.6459028,19.0154582 38.8448789,19.0323993 Z M8.6576713,20.2733332 C8.48832998,20.6439192 8.45657848,21.0483874 8.39307549,21.4443851 C8.37825812,21.5354434 8.42271022,21.5905019 8.51796471,21.6032077 C8.75080903,21.6349722 8.97941982,21.6688544 9.11700964,21.6900307 C9.49591085,21.6963836 9.52766235,21.6667368 9.57211445,21.3745032 C9.57846475,21.3321505 9.59116534,21.2919154 9.59539888,21.2495627 C9.63138391,20.9848584 9.67160247,20.7201541 9.6948869,20.4533321 C9.7012372,20.3686267 9.67371924,20.2669803 9.62503361,20.1970983 C9.38583899,19.8413357 8.83336292,19.8836884 8.6576713,20.2733332 Z M7.13148263,19.8963942 C7.06586287,19.9662761 7.00447664,20.0509815 6.96849161,20.1399222 C6.82878502,20.4978024 6.78433292,20.8747414 6.74199759,21.253798 C6.72506345,21.4083853 6.77798262,21.4592086 6.92827304,21.474032 C7.13783293,21.4952083 7.34950958,21.5079142 7.5569527,21.5354434 C7.66702456,21.5502668 7.71782696,21.4994436 7.73264433,21.4041501 C7.79191379,21.0589756 7.84271619,20.7095659 7.89351858,20.3622738 C7.88716828,20.3622738 7.88081798,20.3601562 7.87446768,20.3601562 C7.87446768,20.2902742 7.88293475,20.2182747 7.87235092,20.1483927 C7.84483295,19.955688 7.72841079,19.8307475 7.54848564,19.7672185 C7.37914431,19.7058071 7.24367126,19.7778066 7.13148263,19.8963942 Z M40.3223819,19.8752178 C40.1911424,19.8709826 40.1466903,19.9196882 40.167858,20.0382757 C40.2080765,20.2669803 40.2567622,20.4935672 40.3160316,20.7180364 C40.3562502,20.8683885 40.4070526,20.8895648 40.5488759,20.81333 C40.8579238,20.6460369 41.1627382,20.4702732 41.4654358,20.2923919 C41.5268221,20.2563921 41.5712742,20.1907454 41.6474778,20.1123929 C41.5437562,20.0700402 41.4781364,20.0298052 41.4082831,20.0128641 C41.2304748,19.9747467 41.0484328,19.9429822 40.8685077,19.9196882 C40.6864658,19.8963942 40.5044238,19.8794531 40.3223819,19.8752178 Z M7.98665631,15.5954782 C8.40577608,15.6420662 8.82701263,15.6823012 9.2461324,15.7331245 C9.74992283,15.7945359 10.2515965,15.8623002 10.7532702,15.9342998 C11.1364049,15.9893583 11.5174229,16.0550049 11.9005576,16.118534 C11.9682942,16.1291222 12.0317972,16.1545338 12.1101175,16.1757101 C12.0677822,16.379003 11.9598271,16.5293551 11.8370546,16.6564132 C11.7904858,16.7051188 11.6655965,16.6987659 11.5809259,16.6902953 C11.3925337,16.669119 11.2041414,16.6331192 11.017866,16.5950018 C10.9099109,16.5717078 10.8421744,16.6077076 10.7956055,16.7030011 C10.6537821,16.9952347 10.501375,17.2811154 10.3680187,17.5775843 C10.2579468,17.8232299 10.2918151,17.9164058 10.5056085,18.0858166 C10.6156803,18.1726396 10.727869,18.2594626 10.8400576,18.344168 C10.954363,18.430991 11.0009319,18.5326375 10.9395456,18.674519 C10.8866265,18.784636 10.8464079,18.9032235 10.7892552,19.0578109 C10.6389648,18.9709878 10.5225426,18.918047 10.4230546,18.8418121 C9.91291386,18.4521674 9.40277312,18.0646402 8.90533299,17.660172 C8.46292878,17.3001741 8.03745871,16.9168822 7.60563833,16.5441785 C7.42147965,16.3832383 7.42147965,16.3768854 7.53155151,16.1524161 C7.59928803,16.0126523 7.67549163,15.8771236 7.73476109,15.7352421 C7.78556349,15.6166546 7.86600062,15.5827724 7.98665631,15.5954782 Z M40.5234747,14.3608972 C40.5890945,14.4604261 40.6420137,14.5684254 40.7097502,14.6679543 C40.783837,14.7759536 40.7711364,14.8691295 40.7033999,14.9771289 C40.3371993,15.5721842 39.9561813,16.158769 39.5264777,16.709354 C39.4312232,16.8321769 39.3359687,16.9549997 39.2470645,17.0820577 C39.2047292,17.1434692 39.1708609,17.2112335 39.1348759,17.2747625 C39.2343639,17.353115 39.2999837,17.2874683 39.3677202,17.2620567 C39.9328969,17.0439403 40.4980735,16.8215887 41.0632502,16.6034723 C41.1754388,16.5611196 41.2876275,16.5187669 41.4019328,16.4827671 C41.5479897,16.4361792 41.5839748,16.4467674 41.6580616,16.582296 C41.7173311,16.692413 41.7660167,16.8110005 41.8062353,16.9317057 C41.8528041,17.0693519 41.83587,17.1011165 41.6961634,17.1540573 C41.4993041,17.2302922 41.3003281,17.3001741 41.0992352,17.3700561 C40.1593909,17.6919365 39.2174298,18.0116994 38.2775854,18.3314622 C38.0129896,18.4204028 37.9939387,18.4055794 37.8775166,18.1578161 C37.7843788,17.9587585 37.7928459,17.7914654 37.9431363,17.6157017 C38.4278759,17.046058 38.8872142,16.4552379 39.2936334,15.8263004 C39.342319,15.7521832 39.378304,15.6717131 39.4227561,15.5954782 C39.4100555,15.5785371 39.3994717,15.5658313 39.3910046,15.5510079 C39.314801,15.5721842 39.2343639,15.5848901 39.1645106,15.6187722 C38.8406453,15.7733595 38.5188968,15.9342998 38.1950315,16.0931224 C37.9177351,16.2307686 37.6404387,16.3705325 37.3610255,16.5060611 C37.2911722,16.5399433 37.2192022,16.5674725 37.1451153,16.599237 C36.9990585,16.4827671 36.9440225,16.3281798 36.8932201,16.1524161 C37.138765,16.0062993 37.3800764,15.8580649 37.6235046,15.7204187 C38.4765615,15.237598 39.3317352,14.7568949 40.1847921,14.2761918 C40.3753011,14.1681925 40.4007023,14.1745454 40.5234747,14.3608972 Z M8.52431501,16.3959441 C8.57723417,16.4594732 8.60686891,16.5060611 8.64708747,16.5420609 C8.92438389,16.779236 9.2016803,17.0185287 9.48532702,17.2493509 C9.65043481,17.3827619 9.70970427,17.3700561 9.81130906,17.1837042 C9.90656356,17.0121758 9.98276715,16.8300592 10.0632043,16.6500603 C10.0801384,16.6161781 10.0737881,16.5717078 10.0780216,16.5145317 C9.82400966,16.425591 9.56788091,16.4107676 9.3096354,16.4001794 C9.05774018,16.3917089 8.80584496,16.3091211 8.52431501,16.3959441 Z M38.5739328,11.8303238 C38.6882381,11.9467937 38.7961932,12.0674989 38.9104986,12.1818512 C38.9951693,12.2665566 38.9972861,12.3470267 38.9316663,12.4444379 C38.8004268,12.6456132 38.6818878,12.8531414 38.5464148,13.052199 C37.9727711,13.8992529 37.3716094,14.7251304 36.7005944,15.5001847 C36.6540255,15.5552432 36.6011063,15.608184 36.5291363,15.6844189 C36.4359986,15.5594784 36.3492111,15.457832 36.2793578,15.347715 C36.2137381,15.2439509 36.2200884,15.1295986 36.2814746,15.0258345 C36.3386273,14.9284233 36.4105974,14.8416003 36.4741004,14.7484244 C36.5206692,14.6785424 36.5672381,14.6065428 36.6116902,14.5366609 C36.6794267,14.4328968 36.6624926,14.3397209 36.5820554,14.2486626 C36.3661453,14.0072522 36.1502351,13.7658419 35.9364417,13.5223139 C35.8644716,13.4418438 35.788268,13.429138 35.6908967,13.4778436 C35.4940374,13.5731371 35.2929446,13.6578425 35.0982021,13.759489 C34.9881302,13.8166651 34.9034596,13.8103122 34.8145554,13.7192539 C34.727768,13.6303133 34.6303967,13.5498432 34.5139745,13.4460791 C34.6219296,13.3804324 34.7066003,13.3211386 34.7955045,13.2745507 C35.724765,12.7832594 36.6942441,12.3787912 37.6721902,11.9933817 C37.8690495,11.9171468 38.0701423,11.8493825 38.2648848,11.7689124 C38.3855405,11.7202068 38.4871453,11.7413832 38.5739328,11.8303238 Z M11.2126085,11.3347973 C11.5110726,11.5931487 11.8095367,11.8536178 12.1037672,12.1162045 C12.6668271,12.6202016 13.2256535,13.1263162 13.7865966,13.6324309 C14.0321415,13.8547825 14.0257912,13.8759589 13.8077643,14.1194869 C13.6998092,14.2423097 13.5939709,14.2719566 13.4373301,14.2296039 C12.6943451,14.0347815 11.9386594,13.8950176 11.1766235,13.7933711 C11.0750187,13.7743124 10.9691804,13.7870182 10.8527582,13.7870182 C10.8400576,13.9204292 10.926845,13.9606643 10.990348,14.0072522 C11.2062582,14.1660748 11.4285187,14.3164269 11.6465457,14.4710142 C11.9640606,14.6954835 12.2836924,14.9157175 12.5948571,15.1465397 C12.7811325,15.2841859 12.7790157,15.3138328 12.6350756,15.5044199 C12.5906235,15.5658313 12.5377044,15.6187722 12.4826684,15.6823012 C12.4106984,15.6484191 12.3535457,15.6251251 12.3006265,15.5933606 L9.25459947,13.7213716 C9.22496473,13.7023129 9.19533,13.6853718 9.16569527,13.6641954 C9.05350664,13.5837253 9.04927311,13.5604313 9.11912641,13.4376085 C9.13606054,13.405844 9.15934497,13.3783148 9.1762791,13.3486679 C9.32445276,13.0797283 9.54036295,12.9780818 9.85576116,12.9929052 C10.5775786,13.028905 11.2824618,13.1496102 11.9894618,13.2851388 C12.1355187,13.3126681 12.2836924,13.38255 12.4466834,13.3232563 C12.4382163,13.2004334 12.3429618,13.1517278 12.2709918,13.0924341 C11.8476385,12.7387891 11.4221684,12.391497 10.9988151,12.0420873 C10.9014438,11.9616172 10.8061893,11.8769118 10.7130516,11.7900888 C10.6389648,11.7202068 10.6326145,11.6460896 10.7067013,11.5698548 C10.7807881,11.4936199 10.8464079,11.4089145 10.9247283,11.3390326 C11.0475007,11.226798 11.0877193,11.2246803 11.2126085,11.3347973 Z M37.8965675,12.5651431 C37.4308788,12.7387891 36.9884746,12.8997293 36.5503039,13.122081 C36.6794267,13.4312556 36.9080375,13.6176075 37.1218309,13.8801942 C37.2446034,13.7065481 37.3398579,13.5773724 37.4308788,13.4439614 C37.5240166,13.3105504 37.619271,13.1792571 37.7018249,13.0394932 C37.7801453,12.9060822 37.9177351,12.7959652 37.8965675,12.5651431 Z M14.6565877,8.56493121 C14.6565877,8.62634261 14.6608212,8.65387186 14.6565877,8.67928348 C14.5825008,9.16633945 14.5062972,9.65339541 14.4300936,10.1383337 C14.4258601,10.165863 14.4237433,10.1933922 14.4216266,10.2230391 C14.408926,10.4623318 14.4300936,10.4983316 14.6523541,10.5872723 C15.3614709,10.8710353 16.0367194,11.2183274 16.6971506,11.597384 C16.7500698,11.6333838 16.8072225,11.6820894 16.8876596,11.7392655 C16.7035009,11.9150292 16.5087584,12.0082051 16.303432,12.0738518 C16.2505129,12.0907929 16.167959,12.0463226 16.1086895,12.014558 C15.6303003,11.7710301 15.1561446,11.5253844 14.6798721,11.2818565 C14.6057853,11.243739 14.5295817,11.2140921 14.4258601,11.1675042 C14.4046924,11.2627977 14.381408,11.3347973 14.3750577,11.4089145 C14.3136715,12.0018522 14.3136715,12.0018522 14.7222074,12.4423202 C14.8555637,12.5863194 14.9868032,12.7324362 15.1222763,12.8827882 C15.0376056,13.0352579 14.9042493,13.1157281 14.7730098,13.1919629 C14.7391416,13.2110216 14.6650547,13.18561 14.6248362,13.1580808 C14.5401655,13.0966693 14.4618451,13.0225521 14.3877583,12.9484349 C13.5960876,12.1649101 12.8065337,11.3792676 12.0169798,10.5936252 C11.978878,10.5555078 11.9450097,10.5089198 11.8963241,10.449626 C12.0402642,10.2844505 12.2117223,10.165863 12.3852972,10.0472755 C12.4636175,9.99433459 12.5186535,10.0536284 12.5673391,10.1044516 C12.7387972,10.2823329 12.9081385,10.4623318 13.0774798,10.6402132 C13.2087194,10.7778594 13.3336086,10.9218586 13.4690816,11.0573872 C13.5135337,11.1018575 13.5770367,11.1293868 13.6701745,11.1886805 C13.6913421,10.9980934 13.7146266,10.8519766 13.7209769,10.7079775 C13.7400278,10.2717447 13.7527284,9.83551199 13.7696625,9.39927926 C13.7717793,9.35692656 13.773896,9.31457387 13.7760128,9.27222118 C13.7887134,9.09857514 13.8543331,8.96939942 14.027908,8.89316458 C14.1760817,8.82963554 14.309438,8.73434198 14.4512613,8.6559895 C14.508414,8.62422498 14.571917,8.600931 14.6565877,8.56493121 Z M34.2176272,8.50987271 C34.4250703,8.5522254 34.6917829,8.69622456 34.8463069,8.84445898 C34.7849207,9.02234029 34.6579147,9.16422181 34.5499596,9.31880914 C34.4208368,9.50304335 34.283247,9.6830423 34.156241,9.86939415 C34.0313518,10.0536284 34.0334685,10.0917458 34.2070434,10.2166862 C34.4695224,10.4072733 34.7383518,10.5893899 35.0114147,10.763036 C35.1871063,10.8752706 35.216741,10.8668001 35.3564476,10.7185656 C35.5638907,10.4983316 35.7649836,10.2696271 35.9703099,10.0451578 C35.9935943,10.0197462 36.0168788,9.99221696 36.04228,9.96680534 C36.2539566,9.74657134 36.296292,9.74233607 36.531253,9.93927609 C36.622274,10.0155109 36.7090614,10.0938634 36.8106662,10.1828041 C36.658259,10.3543325 36.522786,10.5152727 36.3788459,10.6635071 C36.1333009,10.9155057 35.8771722,11.1590336 35.6316273,11.4131498 C35.280244,11.7795006 34.9352111,12.1522043 34.5859446,12.5206727 C34.4547051,12.658319 34.3171153,12.79173 34.1795254,12.9209057 C34.06522,13.0267874 34.0271182,13.028905 33.9043458,12.9378467 C33.8154416,12.8700824 33.7328877,12.7959652 33.6270494,12.7070246 C33.9974835,12.2771447 34.3594506,11.8599707 34.736235,11.4258556 C34.6706153,11.3580913 34.6282799,11.3030328 34.573244,11.2649154 C34.310765,11.0849164 34.0482859,10.9091528 33.7794566,10.7376244 C33.6164655,10.6338603 33.5868308,10.6444484 33.4682919,10.803271 C33.2079296,11.1547984 32.9518008,11.5084434 32.6935553,11.8620883 C32.6575703,11.9129116 32.615235,11.9594995 32.5750164,12.0124404 C32.3866242,11.9573819 32.2405673,11.8557354 32.107211,11.6926776 C32.8120942,10.629625 33.5169775,9.56657239 34.2176272,8.50987271 Z M31.463714,7.20329213 C31.8002798,7.27317407 32.1093278,7.40234979 32.3866242,7.60776035 C32.7718757,7.89575866 32.9391002,8.3446972 32.8163278,8.76187123 C32.8036272,8.80634156 32.7761092,8.84657662 32.7485912,8.89951748 C32.5686661,8.85292952 32.3993248,8.81057683 32.2299834,8.76398886 C32.1389625,8.73857725 32.0881601,8.68140111 32.0818098,8.58187228 C32.079693,8.52681378 32.0648757,8.47175528 32.0542918,8.41457915 C32.01619,8.19858041 31.889184,8.04399309 31.7029086,7.93811135 C31.2880223,7.70093627 30.7990493,7.75811241 30.4497828,8.08422814 C30.1026331,8.40822624 29.9417588,8.821165 29.89519,9.28492699 C29.8846061,9.39716162 29.8888397,9.51151389 29.8930732,9.62374853 C29.9078906,10.0493931 30.2021211,10.3522148 30.6275912,10.3797441 C30.7609475,10.3882146 30.8964205,10.386097 31.0297768,10.3797441 C31.2287529,10.3691559 31.4044445,10.2103333 31.4425463,10.0155109 C31.463714,9.90539394 31.4023277,9.83762963 31.3197738,9.79104167 C31.2224026,9.73598317 31.1144475,9.69786574 31.0128427,9.64916015 C30.856202,9.57504293 30.8371511,9.52845497 30.8879535,9.36751474 C30.8964205,9.33998549 30.9070044,9.31457387 30.9175882,9.28916226 C31.0234265,9.04775191 31.0805792,9.01598739 31.3218906,9.11339858 C31.6288218,9.23833902 31.9315194,9.37598528 32.234217,9.50939626 C32.2956032,9.53480787 32.3485224,9.56869003 32.433193,9.61316036 C32.3866242,9.69998338 32.3506391,9.76774769 32.3125373,9.83127672 C32.1643637,10.07904 32.0183068,10.3289209 31.8595493,10.5724489 C31.7875792,10.6825659 31.698675,10.7884476 31.6013038,10.8773882 C31.5314505,10.9409173 31.4340792,11.0044463 31.345175,11.0086816 C31.0424774,11.0192698 30.7334295,11.0425637 30.439199,10.9917405 C29.7173816,10.8689177 29.323663,10.4136263 29.2474594,9.68727757 C29.1860732,9.10281041 29.2834444,8.55010777 29.5903756,8.04187545 C29.7787678,7.73270079 30.0391301,7.49976098 30.3545283,7.32823258 C30.7080283,7.13552782 31.0805792,7.12282201 31.463714,7.20329213 Z M21.2227975,6.4557671 C21.6228663,6.58706045 21.9319142,6.8284708 22.1351238,7.19693923 C22.4103035,7.69458337 22.4843903,8.23246257 22.4208873,8.79151811 C22.4081867,8.90375275 22.3891358,9.01386975 22.3658514,9.12398675 C22.2134442,9.80162984 21.6313334,10.3013916 20.9285669,10.2632742 C20.329522,10.27598 19.8871178,9.99645223 19.5505519,9.54751368 C19.1610669,9.02657556 18.9345728,8.4421084 18.9620908,7.77717112 C18.9811417,7.31340913 19.1737675,6.94070544 19.567486,6.69929509 C20.0797435,6.38376752 20.6301028,6.25882708 21.2227975,6.4557671 Z M25.0393275,6.06612233 C25.2150191,6.06823996 25.3907108,6.09153394 25.5664024,6.10212212 C25.6595401,6.10635739 25.7018754,6.14871008 25.7103425,6.24400364 C25.7463275,6.63364841 25.7209263,6.6632953 25.3272078,6.6632953 C24.9123215,6.6632953 24.4953185,6.66117766 24.0804323,6.66541293 C23.8666389,6.66753057 23.847588,6.68658928 23.8454712,6.89199984 C23.8433544,7.06141061 23.8433544,7.23082138 23.8454712,7.40023215 C23.8497047,7.59293691 23.8708724,7.61834852 24.0677317,7.62046616 C24.4064143,7.62470143 24.745097,7.62258379 25.0816629,7.62258379 C25.3801269,7.62258379 25.3928275,7.63740723 25.3504922,7.93811135 C25.3504922,7.94446426 25.3483754,7.9529348 25.3462587,7.9592877 C25.3060401,8.25152128 25.3039233,8.25575655 25.0012257,8.21340386 C24.6985281,8.1731688 24.3958305,8.19222751 24.0952496,8.2345802 C23.9153245,8.25999182 23.883573,8.29810924 23.8899233,8.48657873 C23.9047407,8.89528221 23.9259083,9.30186806 23.9449592,9.71057155 C23.947076,9.7444537 23.947076,9.77833586 23.947076,9.81645328 C23.861982,9.86981768 23.7738398,9.8827776 23.6858501,9.88460724 L23.5110221,9.88209996 C23.4263514,9.88209996 23.3882496,9.82068855 23.3797826,9.74233607 C23.3480311,9.45645539 23.3183963,9.16845708 23.2908784,8.8825764 C23.2379592,8.32987376 23.1829233,7.77505349 23.1342376,7.22235084 C23.1067197,6.91317619 23.0876688,6.60400153 23.0728514,6.29482687 C23.0665011,6.131769 23.0813185,6.11906319 23.2443095,6.08941631 C23.3332137,6.07459287 23.4263514,6.06612233 23.5173724,6.06400469 C24.0253964,6.06188706 24.5313036,6.05976942 25.0393275,6.06612233 Z M20.3718573,7.04446953 C19.9781387,7.10164567 19.7135429,7.41717323 19.6923753,7.81740618 C19.6648573,8.33410903 19.849016,8.78304758 20.1178453,9.20869214 C20.2702525,9.44798485 20.492513,9.58139584 20.7698094,9.63645434 C21.1190759,9.70421865 21.4746927,9.53692551 21.6398005,9.22139795 C21.743522,9.02022266 21.7731568,8.80634156 21.7668065,8.58398992 C21.7604562,8.21128622 21.6736687,7.85975887 21.5043274,7.52729023 C21.3603873,7.24140955 21.127543,7.07411642 20.810028,7.0423519 C20.6639711,7.02752846 20.5157974,7.02329319 20.3718573,7.04446953 Z" id="Combined-Shape" fill="#000000" fill-rule="nonzero"></path>
        </g>
    </g>
</svg>