<?xml version="1.0" encoding="UTF-8"?>
<svg width="48px" height="48px" viewBox="0 0 48 48" version="1.1" xmlns="http://www.w3.org/2000/svg" xmlns:xlink="http://www.w3.org/1999/xlink">
    <title>gy-bg</title>
    <g id="Page-1" stroke="none" stroke-width="1" fill="none" fill-rule="evenodd">
        <g id="gy-bg">
            <rect id="Rectangle" x="0" y="0" width="48" height="48"></rect>
            <path d="M22.0402613,1.50026831 C24.0339777,1.49861187 26.0276942,1.50475899 28.0214107,1.5150042 C29.7897327,1.52320036 31.5580547,1.54369076 33.3243276,1.56008309 C34.3078671,1.57032829 35.2893575,1.58467157 36.272897,1.6010639 C37.031042,1.61335814 37.7871379,1.62770143 38.5452829,1.64204471 C38.8321486,1.64819183 39.1190143,1.65843703 39.4038309,1.66458416 C39.4653022,1.70556497 39.5267734,1.70351593 39.5902936,1.6666332 C40.0328864,1.67892744 40.4775282,1.69327072 40.920121,1.70556497 C40.9672489,1.7424477 41.0164259,1.7424477 41.0656028,1.70761401 C41.3586156,1.71990825 41.6516284,1.73015345 41.9446412,1.7424477 C42.0061124,1.78342851 42.0675837,1.78547755 42.1311039,1.74654578 C42.3564984,1.75884002 42.5798438,1.77113427 42.8052383,1.78342851 C42.8523662,1.82236028 42.9015432,1.82440932 42.9507201,1.78957563 C43.1064472,1.80186987 43.2642233,1.81416412 43.4199504,1.82645836 C43.4404408,1.85104685 43.4609312,1.85514493 43.4855197,1.83055644 C43.5592852,1.84080164 43.6330506,1.84899781 43.7068161,1.86334109 C43.8441018,1.89202766 43.8645922,1.93915559 43.7867287,2.05799994 C43.7191103,2.16250101 43.6166583,2.23216839 43.5142063,2.30183577 C43.2601253,2.47600422 42.9835048,2.60509377 42.7007372,2.72393812 C42.3175666,2.88376329 41.934396,3.03949037 41.5512254,3.19931553 C41.4897542,3.22595306 41.430332,3.25668867 41.3688608,3.28742427 C41.3545175,3.26693387 41.3381252,3.24644346 41.3237819,3.22390402 C41.3524685,3.00875476 41.3688608,2.78950742 41.4549205,2.58665241 C41.5081956,2.45961189 41.4118907,2.49239654 41.3545175,2.4801023 C41.3340271,2.45346477 41.3114877,2.45346477 41.2889482,2.47805326 C41.022573,2.46575901 40.7582467,2.45141573 40.4918715,2.43912149 C40.4447435,2.40018972 40.3955666,2.40223876 40.3463896,2.43707245 C39.3362126,2.38584643 38.3260356,2.39404259 37.3158586,2.37150315 C35.9511976,2.34076754 34.5844876,2.3284733 33.2198266,2.32437521 C29.9700482,2.31413001 26.7202699,2.28544344 23.4704916,2.29978673 C21.9890353,2.30593385 20.507579,2.30183577 19.0240736,2.31208097 C17.4401652,2.32232617 15.8562569,2.30798289 14.2723486,2.34076754 C12.9548155,2.36740507 11.6372824,2.35511082 10.3197493,2.38584643 C9.43866189,2.40633684 8.55962349,2.42682724 7.67853605,2.44936669 C7.42035694,2.45551381 7.16012879,2.46780805 6.90194968,2.49444558 C6.75236972,2.50878886 6.59254456,2.49649462 6.43681748,2.58255432 C6.61508401,2.74442853 6.66221194,2.94933258 6.69499659,3.15833472 C6.78105629,3.73411512 6.80359574,4.31399359 6.80769382,4.89387207 C6.83023326,7.76867597 6.8322823,10.6434799 6.78515437,13.5182838 C6.76466397,14.7743456 6.77695821,16.0304075 6.75032068,17.2864693 C6.72163411,18.6511303 6.7359774,20.0178404 6.70933987,21.3825014 C6.67860426,23.0012434 6.6806533,24.6179364 6.66631002,26.2366785 C6.64377057,28.6463502 6.64991769,31.0580709 6.64581961,33.4677426 C6.64377057,34.4574292 6.66631002,35.4471158 6.72368315,36.4347533 C6.76876205,37.2092906 6.94088145,37.9387491 7.28307123,38.6395209 C7.68058509,39.4591372 8.26661069,40.0533589 9.11286444,40.3955487 C9.65176211,40.614796 10.2070521,40.7807683 10.7705382,40.9201031 C12.2417494,41.2827833 13.7354999,41.5450604 15.2251524,41.8175828 C17.2106727,42.180263 19.196193,42.5490903 21.1612229,43.0183206 C21.4542357,43.087988 21.7574937,43.1351159 22.0300161,43.2826468 C22.6037474,43.5900029 23.0750268,44.0162034 23.4827858,44.5161692 L23.9929969,45.1267833 C24.0585662,45.2066959 24.1056942,45.1964507 24.1692144,45.1206362 C24.3761675,44.8747513 24.5892677,44.6350136 24.7982699,44.3911778 C24.9314575,44.2354507 25.0728413,44.0879198 25.2326665,43.9588302 C25.4887965,43.7539262 25.765417,43.5859048 26.0563808,43.4301778 C26.5911804,43.141263 27.1567156,42.9281628 27.7283979,42.7294059 C28.1197646,42.5921202 28.5111314,42.4507364 28.8902039,42.280666 C28.9291356,42.2642737 28.9885578,42.2581266 28.9721655,42.1905082 L28.5234256,42.1905082 C28.4332678,42.1905082 28.3451591,42.1761649 28.2631975,42.1454293 C28.2242657,42.131086 28.1832849,42.1126447 28.1812358,42.0634677 C28.1771377,42.0122417 28.2201676,41.9978984 28.2590994,41.9815061 C28.3554043,41.9425743 28.4558073,41.9241329 28.5562103,41.9097897 C29.1033041,41.82373 29.6585941,41.8155338 30.209786,41.8011905 C30.8449885,41.7868472 31.4801911,41.7929944 32.1133447,41.7417683 C32.1358841,41.7663568 32.1584235,41.7663568 32.1789139,41.7397193 C32.2936602,41.7294741 32.4104555,41.7171799 32.5252018,41.7089837 C33.3161315,41.6495615 34.100914,41.5553057 34.8815984,41.4139219 C35.2504257,41.3463035 35.619253,41.270489 35.9675899,41.1250071 C36.0454535,41.0922225 36.1622488,41.0614869 36.1561017,40.9610839 C36.1499545,40.8463376 36.0188159,40.8791223 35.9430014,40.8463376 C35.9245601,40.8381415 35.9020206,40.8401905 35.8815302,40.8381415 C35.4000057,40.7787193 34.9143831,40.7582289 34.4308095,40.7725722 C33.2649054,40.8094549 32.0969523,40.8524847 30.9289992,40.8401905 C30.2999438,40.8340434 29.6729374,40.8197001 29.04798,40.762327 C28.9762636,40.7561798 28.8943019,40.7705231 28.8348798,40.6926596 C28.9721655,40.610698 29.1237945,40.612747 29.2692764,40.6025018 C29.9495578,40.5574229 30.6318883,40.5082459 31.3121698,40.4816084 C32.2608756,40.4447257 33.2095813,40.4160391 34.1562381,40.3996468 C35.2217392,40.3812054 36.2851912,40.3463717 37.3486433,40.2971948 C37.8588544,40.2746553 38.3711145,40.2357235 38.8751785,40.1414677 C39.1579461,40.0881926 39.4407137,40.0267214 39.6517648,39.8095231 C39.7193832,39.7398557 39.8402766,39.6783845 39.8013448,39.5636382 C39.7644621,39.4550391 39.6374216,39.4570881 39.5390676,39.4386468 C39.0329546,39.3423419 38.5186454,39.348489 38.0084343,39.3341457 C36.9449823,39.3054591 35.8794812,39.299312 34.8139801,39.2931649 C32.6501933,39.2808706 30.4864065,39.3054591 28.3226196,39.2009581 C28.3021292,39.1722715 28.2795898,39.1722715 28.2570503,39.198909 C28.0808328,39.1866148 27.9025663,39.1722715 27.7263488,39.1620263 C27.5460333,39.149732 27.3636686,39.1517811 27.1976964,39.0534271 C27.9271548,38.9140924 28.6668584,38.9120433 29.404513,38.8710625 C29.4413958,38.9038472 29.4762295,38.9058962 29.5110631,38.8690135 C30.3224832,38.846474 31.1339033,38.8136894 31.9453233,38.8013951 C33.7669204,38.7747576 35.5905665,38.7993461 37.4121635,38.7563163 C38.1293277,38.7399239 38.8444429,38.7235316 39.559558,38.6600113 C39.8218352,38.6374719 40.0820634,38.6128834 40.3340954,38.5165785 C40.5349013,38.438715 40.719315,38.340361 40.8135708,38.139555 C40.9160229,37.9244058 40.9283171,37.8158066 40.6230101,37.7666297 C40.3136049,37.7154037 39.9980527,37.6969623 39.6865985,37.6867171 C39.0923768,37.6682757 38.5002041,37.6580305 37.9059823,37.6518834 C37.2912701,37.6436872 36.678607,37.6150007 36.072091,37.5084506 C35.9942275,37.4941073 35.8979226,37.4777149 35.8917754,37.4059985 C35.8835793,37.3117427 35.9839823,37.2953503 36.0638948,37.2748599 C36.3548586,37.1990454 36.6540185,37.1744569 36.9531784,37.1498685 C37.6334599,37.0945444 38.3178394,37.1047896 39.00017,37.1068386 C39.4775964,37.1068386 39.9550228,37.0965934 40.4324493,37.0679068 C40.5758821,37.0597107 40.7172659,37.0412693 40.8525026,36.9941414 C41.0840442,36.9121798 41.1660058,36.774894 41.1557606,36.5044207 C41.1455154,36.2544377 41.0615047,36.1437895 40.823816,36.0782203 C40.5984216,36.016749 40.36688,36.0106019 40.1332894,36.0044548 C39.6558629,35.9942096 39.1784365,36.0208471 38.70101,35.965523 C38.5842147,35.9511797 38.4694684,35.9388855 38.3629183,35.8897085 C38.2317797,35.8282373 38.2194855,35.7298834 38.3301337,35.6376765 C38.4223405,35.561862 38.5391358,35.5352245 38.6538821,35.5188322 C38.9714834,35.4778514 39.2931828,35.457361 39.6128331,35.4880966 C39.8443747,35.510636 40.0738672,35.5290774 40.3054088,35.5495678 C40.3258992,35.5762053 40.3484386,35.5782544 40.3709781,35.5516168 C40.5349013,35.557764 40.6988246,35.5741563 40.8627478,35.5536659 C41.0594557,35.5290774 41.122976,35.461459 41.1147798,35.258604 C41.1106817,35.1356616 41.0901913,35.0127192 41.0635538,34.8938748 C41.0205239,34.699216 40.8893853,34.5906168 40.6926774,34.5639793 C40.5287542,34.5434889 40.364831,34.5557831 40.2009077,34.5598812 C40.0369845,34.5639793 39.8730612,34.5680774 39.709138,34.5639793 C39.5554599,34.5619302 39.4120271,34.5168513 39.2829375,34.4348897 C39.1784365,34.3693204 39.1128672,34.2258876 39.1415537,34.1377788 C39.1804855,34.0168855 39.2911337,34.0148364 39.3915367,33.994346 C39.40588,33.992297 39.4181742,33.992297 39.4325175,33.992297 C39.6784024,33.9881989 39.9242872,33.9841008 40.1681231,34.0168855 C40.3771252,34.045572 40.5902254,34.0517191 40.8012766,34.0373759 C40.9078267,34.0291797 41.0020826,33.996395 41.0697009,33.9103353 C41.2028885,33.742314 41.1803491,33.2689857 41.0307691,33.1153076 C40.9774941,33.0599835 40.9098757,33.0271989 40.8361103,33.0087575 C40.7357073,32.984169 40.6353043,32.9657277 40.5328523,32.9657277 C40.4242531,32.9657277 40.3136049,32.9677767 40.2050058,32.9595805 C39.9447776,32.9390901 39.6886476,32.9001584 39.457106,32.7731178 C39.3976838,32.7403332 39.3362126,32.6952543 39.3423597,32.6173908 C39.3485068,32.5374782 39.4181742,32.5087916 39.4837435,32.4862522 C39.5472638,32.4637127 39.6148821,32.4493694 39.6825005,32.4370752 C39.8587179,32.4042905 40.0349354,32.4001925 40.213202,32.4001925 C40.4037627,32.4001925 40.5963725,32.4022415 40.7828352,32.3551136 C40.8914344,32.328476 40.9918374,32.2895443 41.0635538,32.1993865 C41.2909973,31.9125208 41.1373192,31.4289472 40.7869333,31.3305933 C40.6947265,31.3039558 40.6004706,31.2896125 40.5041657,31.2834654 C40.3197521,31.2732202 40.1353384,31.265024 39.9529738,31.2445336 C39.6394706,31.2076509 39.3341636,31.1441306 39.0431998,31.012992 C38.9796795,30.9843054 38.903865,30.963815 38.8792766,30.8757063 C38.9817286,30.7998918 39.0923768,30.7998918 39.1989269,30.7957937 C39.5800484,30.7814504 39.963219,30.7671071 40.3443406,30.7548129 C40.51646,30.7486658 40.6844813,30.7261263 40.8484045,30.6728513 C41.0676519,30.6011349 41.1496135,30.4761434 41.1537116,30.2220623 C41.1598587,29.9433928 41.075848,29.797911 40.8586497,29.7159493 C40.7500506,29.6749685 40.6353043,29.6544781 40.518509,29.646282 C40.1783683,29.6216935 39.8382275,29.599154 39.4980868,29.5663694 C39.1169653,29.5274376 38.7399418,29.4721135 38.3711145,29.3655634 C38.2912019,29.343024 38.1989951,29.3327787 38.1395729,29.2344248 C38.2297307,29.1770517 38.3239866,29.1668065 38.4161934,29.1606593 C38.7563341,29.1381199 39.0964749,29.1135314 39.4386646,29.1176295 C39.7521678,29.1217276 40.065671,29.1012372 40.3791742,29.0725506 C40.5492446,29.0582073 40.719315,29.0377169 40.8811892,28.9803438 C41.0983875,28.9045293 41.1721529,28.7856849 41.1496135,28.5582414 C41.1311721,28.3717787 41.0512595,28.2939152 40.821767,28.2611305 C40.6394024,28.234493 40.4570378,28.2160516 40.2705751,28.2160516 C39.6497158,28.2140026 39.0268075,28.2160516 38.4059482,28.2058064 C38.0227776,28.1996593 37.6416561,28.1730218 37.2666816,28.0910602 C37.2072595,28.0787659 37.1478373,28.0582755 37.0904642,28.0377851 C37.0535814,28.0234418 37.0126006,27.9988533 37.0187477,27.9496764 C37.0228458,27.9148427 37.0576795,27.8964013 37.0904642,27.8841071 C37.1929162,27.8451753 37.2994663,27.8226359 37.4080654,27.8062435 C37.8076283,27.7447723 38.2092403,27.7222329 38.6129013,27.7160858 C39.1722894,27.7078896 39.7316774,27.6935463 40.2910655,27.6833011 C40.4549887,27.6812521 40.618912,27.6587126 40.7787372,27.6218299 C41.0615047,27.5562606 41.1537116,27.4353672 41.1516625,27.1464525 C41.1496135,26.8657339 41.0615047,26.7530367 40.7828352,26.6915655 C40.7090698,26.6751732 40.6353043,26.6649279 40.5615389,26.6526337 C40.4836753,26.6403395 40.4488416,26.6710751 40.4508907,26.7530367 C40.4549887,26.9517936 40.4529397,27.1485015 40.4508907,27.3472585 C40.4488416,27.4927403 40.4467926,27.4968384 40.3033597,27.4988875 C40.0164941,27.5009365 39.7296284,27.5009365 39.4427627,27.4988875 C39.1087691,27.4968384 39.1599951,27.5316721 39.153848,27.2202179 C39.153848,27.1792371 39.155897,27.1382563 39.151799,27.0972755 C39.1497499,27.0603928 39.1661422,27.0112158 39.1169653,26.9907254 C39.0616412,26.970235 39.0288565,27.0071177 39.002219,27.0501476 C38.903865,27.2058747 38.7563341,27.3021796 38.6047051,27.3964354 C38.2010441,27.6505165 37.7523043,27.6894482 37.2994663,27.630026 C35.8057157,27.4394653 35.4758202,25.960058 36.0065217,25.0933138 C36.0290611,25.0564311 36.0782381,25.0256955 36.0434044,24.9580772 C35.8938245,24.9355377 35.7360484,24.9396358 35.5803213,24.9437339 C35.4430356,24.947832 35.4368884,24.9580772 35.4307413,25.10151 C35.4286923,25.1486379 35.4307413,25.1978149 35.4307413,25.2449428 L35.4307413,27.3349642 C35.4307413,27.4927403 35.4266432,27.4968384 35.2709161,27.4968384 C34.9840505,27.4988875 34.6971848,27.4988875 34.4103191,27.4968384 C34.3488479,27.4968384 34.2873767,27.4927403 34.2259055,27.4906913 C34.1705814,27.4865932 34.1377967,27.4579066 34.1377967,27.4005335 L34.1357477,27.2366103 L34.1357477,25.1465889 C34.1357477,24.9396358 34.1336986,24.9375868 33.9205984,24.9375868 C33.4021912,24.9355377 32.8817349,24.9334887 32.3633276,24.9355377 C32.2567775,24.9355377 32.1215408,24.8863607 32.0477754,24.9580772 C31.9658137,25.0379897 32.0170397,25.1793735 32.0149907,25.2920708 L32.0129417,27.3206209 C32.0129417,27.4927403 32.0108926,27.4968384 31.8449203,27.4968384 L30.8408905,27.4886423 C30.7486836,27.4886423 30.6974576,27.4620047 30.7056538,27.3616017 C30.7097519,27.3144738 30.7056538,27.2652968 30.7056538,27.2181689 L30.7056538,25.1486379 C30.7056538,25.10151 30.7036048,25.052333 30.7056538,25.0052051 C30.7077028,24.9355377 30.6728691,24.9089002 30.6052508,24.9068512 C30.4761612,24.9048021 30.3450227,24.898655 30.2159331,24.898655 C30.060206,24.898655 30.058157,24.898655 30.0561079,25.0584802 C30.0540589,25.5850836 30.0561079,26.109638 30.0561079,26.6362414 C30.0561079,26.8759791 30.0520099,27.1136678 30.058157,27.3534056 C30.060206,27.4620047 30.0192252,27.5009365 29.9147241,27.4988875 C29.7446538,27.4947894 29.5725344,27.4988875 29.402464,27.4988875 C29.2323936,27.4988875 29.0602742,27.4947894 28.8902039,27.4927403 C28.8061932,27.4927403 28.7672614,27.4558576 28.7713595,27.3677489 C28.7754576,27.2652968 28.7713595,27.1628448 28.7713595,27.0603928 C28.7713595,27.0337552 28.7734085,27.0050687 28.7406239,26.9927744 C28.7119373,26.9825292 28.6893979,26.9968725 28.6689075,27.0173629 C28.595142,27.0890793 28.5275237,27.1669429 28.4496601,27.2325122 C28.0500972,27.5665058 27.584965,27.6710069 27.0727049,27.6464184 C26.115803,27.5992904 25.46011,26.9825292 25.3883936,26.0317744 C25.3679031,25.757203 25.4047859,25.4805825 25.5195322,25.2346976 C25.6937006,24.8638213 25.9867134,24.6015441 26.371933,24.443768 C27.0214789,24.1794418 27.685368,24.1876379 28.3554043,24.341316 C28.4865429,24.3720516 28.6156324,24.4089343 28.7590653,24.445817 C28.8082422,24.1302648 28.7098883,23.8720857 28.5295727,23.6466912 C28.4168755,23.5073565 28.2509032,23.4253948 28.0767348,23.3803159 C27.6792209,23.2778639 27.2919522,23.3024524 26.9210759,23.4889151 C26.7489565,23.5770238 26.5911804,23.6835739 26.4600418,23.8249577 C26.3862763,23.9028213 26.3104618,23.8966742 26.2489906,23.8352029 C26.0625279,23.6528383 25.8453296,23.5114545 25.6465727,23.3434332 C25.5379735,23.2512264 25.5338754,23.2491773 25.6301803,23.1385292 C25.9395855,22.7860942 26.318658,22.5422584 26.7632998,22.3967765 C27.2694128,22.2308042 27.785771,22.2328532 28.3041783,22.3045697 C28.8635663,22.3803842 29.353287,22.5996315 29.7016239,23.0688618 C29.7364576,23.1180388 29.7774384,23.1405782 29.8389096,23.1385292 C30.0847945,23.128284 30.3306794,23.1159897 30.5765642,23.1098426 C30.6831143,23.1077935 30.71385,23.0565675 30.7097519,22.9561645 L30.7077028,22.5668468 C30.7015557,22.4602967 30.7425365,22.421365 30.8490866,22.423414 C31.1625898,22.4275121 31.4781421,22.423414 31.7916453,22.425463 C31.93098,22.4275121 31.93098,22.4316102 31.9350781,22.5811901 C31.9371272,22.7102797 31.9350781,22.8414183 31.9371272,22.9705078 C31.9371272,22.9971454 31.9371272,23.0258319 31.9699118,23.0360771 C32.0006474,23.0442733 32.0211378,23.027881 32.0395792,23.0073906 C32.0559715,22.9869002 32.0723638,22.9643607 32.0887562,22.9418213 C32.3448862,22.6201219 32.687076,22.421365 33.090737,22.320962 C33.3386709,22.2594908 33.5907029,22.2574417 33.8447839,22.2820302 C34.3119652,22.3271091 34.7156262,22.5033266 35.008639,22.8844481 C35.0680611,22.9623117 35.1315814,22.9971454 35.2319844,22.9930473 C35.4983596,22.9828021 35.7647349,22.978704 36.0311102,22.980753 C36.1335622,22.980753 36.2114258,22.9541155 36.2892893,22.8864972 C36.5884492,22.62422 36.932688,22.4459534 37.3199567,22.3619428 C37.9203256,22.2328532 38.5124983,22.2267061 39.1108181,22.423414 C39.3915367,22.5156208 39.6394706,22.6324161 39.8587179,22.8229769 C39.9283853,22.8823991 39.9960037,22.9008405 40.0800143,22.8987914 C40.3197521,22.8926443 40.5574408,22.8926443 40.7971785,22.8885462 C41.0164259,22.8844481 41.0164259,22.8844481 41.0184749,22.673397 C41.0410143,21.0280174 41.0266711,19.3826378 41.0574067,17.7372583 C41.0881423,16.1328595 41.073799,14.5284608 41.0963384,12.924062 C41.1209269,11.0799255 41.1188779,9.23783804 41.1537116,7.39370154 C41.1987905,7.3055928 41.1946924,7.21543502 41.1578097,7.12527723 C41.1701039,6.60072285 41.1844472,6.07411943 41.1967414,5.54956505 C41.2356732,5.50243711 41.2336242,5.45326014 41.1987905,5.40408317 C41.2110847,5.12541365 41.2213299,4.8446951 41.2336242,4.56602558 C41.274605,4.50455436 41.276654,4.44308315 41.2397713,4.37956289 C41.2520655,4.16851171 41.2643598,3.95746054 41.278703,3.74640936 C41.3053406,3.72591895 41.3053406,3.70337951 41.2807521,3.68084006 C41.2930463,3.55379955 41.3053406,3.42470999 41.3176348,3.29766948 C41.3340271,3.29562044 41.3504195,3.2935714 41.3668118,3.29152236 C41.4200868,3.36528782 41.3975474,3.44929848 41.3975474,3.52921106 C41.4016455,4.71150746 41.4057436,5.89175482 41.4077926,7.07405122 C41.4098416,7.98177618 41.4057436,8.89155019 41.4139397,9.79927515 C41.4487734,13.0572496 41.4323811,16.3131751 41.4446753,19.5711496 C41.4508225,21.2923436 41.4446753,23.0135377 41.4569696,24.7347317 C41.4877052,29.0643544 41.4713129,33.3939771 41.4836071,37.7235998 C41.4836071,37.8793269 41.4528715,38.0145636 41.3709099,38.1477512 C41.0533086,38.6723056 40.7787372,39.2234975 40.4385964,39.7378067 C40.0267393,40.362764 39.4612041,40.7951116 38.7768245,41.0860754 C38.0063853,41.4139219 37.1970143,41.6065317 36.3814961,41.7807001 C34.9471677,42.0901052 33.4984961,42.3257449 32.0559715,42.6003163 C30.7896645,42.8421031 29.5254064,43.0859389 28.2734427,43.3953441 C27.7509373,43.5244336 27.2325301,43.6719645 26.7305151,43.8707215 C26.3944725,44.0018601 26.0809693,44.1821756 25.7777113,44.3809326 C25.4150311,44.6186213 25.1978328,44.9649091 25.0011249,45.3296383 C24.8474468,45.6103569 24.7245044,45.9074678 24.5564831,46.1799902 C24.503208,46.2660499 24.449933,46.3541586 24.3864127,46.4340712 C24.3126473,46.526278 24.2573232,46.5201309 24.1753615,46.425875 C24.044223,46.2762951 23.9540652,46.0980286 23.8843978,45.917713 C23.5442571,45.0407236 22.8906131,44.4649432 22.0894383,44.0325957 C21.4952165,43.7108963 20.8579649,43.5223846 20.1981738,43.391246 C18.337645,43.0183206 16.46892,42.686376 14.6042931,42.3359901 C14.3645554,42.2909112 14.1248176,42.2437833 13.8768837,42.2253419 C13.7436961,42.2150967 13.6043613,42.1454293 13.4650266,42.129037 C13.0593165,42.07986 12.6699988,41.9630647 12.2683869,41.8954464 C12.0573357,41.8606127 11.8401374,41.8524165 11.6372824,41.7786511 C11.4549178,41.7130818 11.262308,41.7028366 11.0758453,41.6475125 C10.8975788,41.5962865 10.709067,41.5860413 10.5267024,41.5327662 C10.1558261,41.4241671 9.7726555,41.3606468 9.4038282,41.2459005 C8.83009684,41.069683 8.38750408,40.7029048 7.99613734,40.2664591 C7.73386015,39.9754954 7.49822048,39.6619922 7.28512027,39.3320966 C7.1252951,39.0800647 6.98800939,38.8177875 6.86096887,38.5493632 C6.80564478,38.4346169 6.74007548,38.3260177 6.69294755,38.2051243 C6.56590703,37.8752288 6.55361279,37.528941 6.5290243,37.1867512 C6.46960213,36.3630369 6.45116076,35.5372735 6.42657227,34.7115102 C6.39993475,33.8037852 6.40403283,32.8960603 6.38149338,31.9883353 C6.34256161,30.3019749 6.36100298,28.6156146 6.34665969,26.9292542 C6.32412025,24.5523671 6.32207121,22.1775291 6.32207121,19.8006421 C6.32207121,18.7289939 6.31797312,17.6552966 6.32821833,16.5836484 C6.35895394,13.428126 6.34461065,10.2746526 6.35075777,7.11913011 C6.35280681,5.90404906 6.35280681,4.68896801 6.36100298,3.47183792 C6.36305202,3.31815988 6.30977696,3.24439442 6.17454029,3.18292321 C5.75858505,2.99236244 5.33443366,2.82229207 4.93896883,2.59075049 C4.73201574,2.46985709 4.53530784,2.33666946 4.35704132,2.17479525 C4.3058153,2.12971636 4.25868737,2.08053939 4.21565752,2.02726433 C4.07222468,1.85104685 4.09271508,1.79572275 4.32220763,1.76703618 C4.79758503,1.70966305 5.27501148,1.69736881 5.75243793,1.67278032 C5.79341874,1.70146689 5.82825243,1.70146689 5.86308612,1.66458416 C7.17242304,1.61335814 8.48380899,1.59696582 9.7931459,1.57032829 C10.8914316,1.54778884 11.9917664,1.55188693 13.0900522,1.53344556 C16.0734552,1.48836667 19.0568582,1.50475899 22.0402613,1.50026831 Z M21.4542357,22.4275121 C21.6099628,22.421365 21.6898754,22.4869343 21.7431504,22.6180729 C21.8476515,22.8742029 21.9542016,23.1241859 22.0587027,23.3762179 C22.3455683,24.0626464 22.630385,24.749075 22.9172506,25.4355036 C22.9397901,25.4887787 22.9418391,25.5727893 23.0197027,25.5686913 C23.0832229,25.5666422 23.0893701,25.4908277 23.1078114,25.4416507 C23.390579,24.7306337 23.6815428,24.0216656 23.947918,23.3024524 C24.0421739,23.0463223 24.1548711,22.7963394 24.2552741,22.5422584 C24.2839607,22.472591 24.3187944,22.4336592 24.402805,22.4336592 C24.8331036,22.4377573 25.2634021,22.4377573 25.6937006,22.4398063 C25.7059948,22.4377573 25.7182891,22.4480025 25.7572209,22.4643948 C25.6691121,22.6713479 25.5851014,22.8639577 25.5031398,23.0586166 C25.2347155,23.6897211 24.9498989,24.3126294 24.6814746,24.9437339 C24.2224895,26.0235783 23.740965,27.0952265 23.2717347,28.1730218 C23.0750268,28.6197126 22.886515,29.0684525 22.6939052,29.5171924 C22.6652187,29.5848107 22.6406302,29.6565272 22.5422762,29.654521 C22.1078796,29.6524291 21.673483,29.6524291 21.2288412,29.6524291 C21.3087538,29.347122 21.470628,29.09509 21.5812762,28.8205186 C21.6816792,28.5725847 21.8087197,28.334896 21.9111717,28.0869621 C21.9808391,27.9148427 22.0791931,27.7529685 22.1632037,27.5849472 C22.1918903,27.5296231 22.2123807,27.4722499 22.2451653,27.4210239 C22.3168818,27.3103757 22.3168818,27.1997275 22.2410673,27.0972755 C22.126321,26.9435975 22.1324681,26.7345953 21.9910843,26.5952606 C21.8804361,26.1997957 21.6775811,25.8412136 21.517756,25.4662392 C21.4255491,25.2490409 21.3046557,25.0379897 21.218596,24.8207915 C20.9727112,24.2101774 20.6878945,23.6180046 20.4297154,23.0114886 C20.3723423,22.8742029 20.306773,22.7389662 20.2493998,22.5996315 C20.1838305,22.4418554 20.1899777,22.4316102 20.3682442,22.4316102 C20.7309244,22.4295611 21.0915555,22.4398063 21.4542357,22.4275121 Z M12.1515916,20.3149513 C12.6945873,20.4460899 13.1925042,20.6694353 13.6248517,21.0259683 C13.6617345,21.056704 13.6986172,21.0874396 13.7334509,21.1202242 C13.9506492,21.3251283 13.9506492,21.3251283 13.741647,21.5300323 C13.5428901,21.7267402 13.3441332,21.9234481 13.1433272,22.120156 C13.0224338,22.2390004 13.0183357,22.2390004 12.8953933,22.1283522 C12.1495425,21.462414 11.2868965,21.3415206 10.3730244,21.6611709 C9.4693975,21.9767232 8.98787297,22.6692989 8.86288149,23.6036614 C8.78091987,24.2101774 8.8833719,24.7880068 9.22351263,25.3084631 C9.67635059,25.9989898 10.3258964,26.3452776 11.1434636,26.3842094 C11.6372824,26.4067488 12.1065127,26.3186401 12.5388602,26.060461 C13.0347281,25.7613011 13.3174957,25.3248554 13.4424871,24.7593202 C13.3420841,24.7265356 13.2601225,24.7408789 13.1781609,24.7408789 L11.3954956,24.7408789 C11.2090329,24.7408789 11.2069839,24.7388298 11.2069839,24.54622 C11.2049348,24.2798447 11.2049348,24.0134695 11.2069839,23.7470942 C11.2090329,23.5975142 11.211082,23.5934162 11.3524658,23.5934162 C12.424114,23.5913671 13.4957622,23.5934162 14.5674104,23.5913671 C14.6821567,23.5913671 14.7231375,23.6384951 14.7374808,23.7429961 C14.8112462,24.2716486 14.7743635,24.7921049 14.6329797,25.304365 C14.4198795,26.0768533 13.9649925,26.6710751 13.3052014,27.1157169 C12.9548155,27.3534056 12.5654978,27.5234759 12.1556897,27.5910943 C10.7807835,27.8185378 9.52472159,27.5706039 8.51249556,26.5358384 C7.89368531,25.9026849 7.5596917,25.1363437 7.4941224,24.2491091 C7.42240598,23.2573735 7.66624181,22.3639918 8.2973463,21.5956016 C8.99197105,20.7493479 9.89764697,20.2965099 10.9918346,20.2329897 C11.3811523,20.2104502 11.77047,20.2227444 12.1515916,20.3149513 Z M16.4832633,22.4316102 C16.5713721,22.4316102 16.6021077,22.4705419 16.6021077,22.5545526 C16.5980096,22.7389662 16.6021077,22.9233799 16.6021077,23.1077935 C16.6000586,23.9069194 16.5775192,24.7039961 16.6041567,25.503122 C16.6246471,26.111687 17.0406023,26.5604269 17.7147367,26.4374844 C18.2495363,26.3391305 18.5241077,25.9703032 18.6552463,25.4723863 C18.6962271,25.3207573 18.7044233,25.1629812 18.7044233,25.0052051 C18.7023742,24.240913 18.7044233,23.4766208 18.7044233,22.7123287 C18.7044233,22.6652008 18.7085214,22.6160238 18.7044233,22.5688959 C18.692129,22.4541496 18.7536002,22.4316102 18.8519542,22.4336592 C19.194144,22.4377573 19.5342847,22.4377573 19.8764745,22.4336592 C19.9809755,22.4316102 20.0199073,22.4684929 20.0178583,22.575043 L20.015297,23.0762895 L20.0158092,27.3841412 C20.0219563,27.4681518 19.9912207,27.5111817 19.901063,27.5091327 C19.5670693,27.5070836 19.2330757,27.5070836 18.8970331,27.5091327 C18.8027772,27.5091327 18.7822868,27.4620047 18.7863849,27.3800431 C18.790483,27.2571007 18.7884339,27.1341582 18.7863849,27.0112158 C18.7863849,26.972284 18.7945811,26.9251561 18.739257,26.9128619 C18.692129,26.9005676 18.6695896,26.9313032 18.6429521,26.9661369 C18.4974702,27.1485015 18.3273998,27.3042286 18.1224958,27.4189749 C17.9093955,27.5398683 17.6880992,27.627977 17.4401652,27.6443693 C17.1983785,27.6607617 16.9545426,27.6648597 16.7127559,27.6361732 C16.3849094,27.5951924 16.0816514,27.474299 15.8583059,27.2284141 C15.5755383,26.9169599 15.3747324,26.566574 15.3276044,26.1260303 C15.2907217,25.7899876 15.2927707,25.455994 15.2907217,25.1199514 C15.2866236,24.3085313 15.2886727,23.4950622 15.2886727,22.6836422 C15.2886727,22.6365142 15.2907217,22.5873372 15.2886727,22.5402093 C15.2845746,22.4623458 15.3194083,22.4295611 15.3972718,22.4316102 C15.759952,22.4336592 16.1205831,22.4336592 16.4832633,22.4316102 Z M27.7652806,25.1937168 C27.5132486,25.1957659 27.2960503,25.2162563 27.0931953,25.3084631 C26.8329671,25.4273075 26.6854362,25.6731923 26.6956814,25.9662051 C26.7059266,26.2530708 26.878046,26.4846124 27.1526175,26.5829663 C27.3103936,26.6403395 27.4722678,26.6444375 27.636191,26.6362414 C28.242707,26.6055058 28.695545,26.1772563 28.7713595,25.5748384 C28.7857028,25.4662392 28.746771,25.4170623 28.646368,25.3781305 C28.3513062,25.2654333 28.0480482,25.199864 27.7652806,25.1937168 Z M37.5596944,25.2736294 C37.2502893,25.3760814 37.0925132,25.5953288 37.0884151,25.9170281 C37.0863661,26.0830004 37.0925132,26.0850495 37.2564364,26.0830004 C37.5166646,26.0789024 37.7768927,26.0809514 38.0350719,26.0809514 L38.0350719,26.0522648 L38.6907648,26.0522648 C39.0391017,26.0522648 39.053445,26.0399706 39.1313085,25.6936827 C39.1374557,25.6670452 39.1436028,25.6404077 39.1456518,25.6137701 C39.1661422,25.4457488 39.1579461,25.4293565 39.004268,25.3678853 C38.8649333,25.3125612 38.7194514,25.2695313 38.5719205,25.2428938 C38.2338288,25.1773245 37.8936881,25.1629812 37.5596944,25.2736294 Z M40.4529397,25.1916678 C40.4570378,25.3064141 40.4529397,25.4232094 40.4529397,25.5379556 L40.4529397,25.6608981 C40.4652339,26.0666081 40.3586838,26.0502158 40.8443064,25.9559599 C41.0512595,25.9170281 41.1434664,25.7817915 41.1537116,25.558446 C41.1639568,25.3105121 41.1045346,25.2162563 40.8811892,25.1445399 C40.7848843,25.1138042 40.6824322,25.0953629 40.5840783,25.0728234 C40.4857244,25.050284 40.4488416,25.0912648 40.4529397,25.1916678 Z M35.363123,23.5811219 C35.3918095,23.8270068 35.4348394,24.042156 35.4430356,24.2593543 C35.4491827,24.4171305 35.4532808,24.4191795 35.6028607,24.4212285 C35.8487456,24.4232776 36.0946304,24.4150814 36.3405153,24.4191795 C36.6335281,24.4232776 36.9183447,24.3966401 37.2072595,24.3208256 C37.7318138,24.1835398 38.2645644,24.2327168 38.7891188,24.3556592 C38.8690314,24.3741006 38.9448459,24.4068853 39.0288565,24.4027872 C39.1087691,24.3986891 39.155897,24.3720516 39.153848,24.2798447 C39.1497499,24.1773927 39.1477009,24.0769897 39.1149162,23.9765867 C39.0657392,23.8270068 38.9571401,23.7225057 38.85059,23.6200537 C38.7870697,23.5606315 38.6805196,23.5934162 38.5944599,23.5934162 C38.1785047,23.5893181 37.7605004,23.5934162 37.3445452,23.5811219 C37.1806219,23.5770238 37.0556305,23.634397 36.9408842,23.738898 C36.9060505,23.7716827 36.8671187,23.8024183 36.8384322,23.839301 C36.776961,23.9171646 36.7052445,23.8946251 36.6376262,23.8597914 C36.5904983,23.8352029 36.5556646,23.7921731 36.5187818,23.7491432 C36.4450164,23.6589855 36.3425644,23.5893181 36.2298671,23.58522 C35.9532466,23.5729258 35.6745771,23.5811219 35.363123,23.5811219 Z M29.9393126,23.5688277 C30.0171762,23.8044673 30.0520099,24.0298618 30.0561079,24.2634524 C30.058157,24.4171305 30.0643041,24.4191795 30.2200312,24.4212285 C30.3347775,24.4232776 30.4515728,24.4150814 30.566319,24.4191795 C30.6687711,24.4232776 30.715899,24.392542 30.7097519,24.2818938 L30.7071906,24.0685374 L30.7079864,23.7136977 C30.7122131,23.5057439 30.7162142,23.5462882 30.3798563,23.5237488 C30.2364235,23.5135036 30.0806964,23.4745718 29.9393126,23.5688277 Z M32.48627,23.738898 C32.2854641,23.9233117 32.1604726,24.1507552 32.0723638,24.4212285 L34.00256,24.4212285 C34.0906688,24.4212285 34.1234534,24.3863949 34.1132082,24.2982861 C34.0886197,24.0810878 33.998462,23.9048703 33.846833,23.7409471 C33.7443809,23.6302989 33.646027,23.5708767 33.4984961,23.5729258 C33.3284257,23.5749748 33.1583553,23.583171 32.988285,23.5606315 C32.7915771,23.533994 32.6297029,23.6077594 32.48627,23.738898 Z M40.3791742,23.8147125 C40.416057,23.9540473 40.4304003,24.0933821 40.4447435,24.2347659 C40.4549887,24.3187765 40.4939205,24.3372179 40.567686,24.3310708 C40.6414514,24.3187765 40.7152169,24.3064823 40.7889824,24.292139 C40.8422574,24.2818938 40.8934834,24.2675505 40.9467585,24.2532072 C40.9938864,24.240913 41.0348672,24.2183735 41.0697009,24.1855889 C41.1987905,24.0708426 41.1783001,23.9212626 41.024622,23.8474972 C40.8606988,23.7696336 40.6947265,23.6999663 40.5082638,23.687672 C40.3812233,23.6794759 40.3484386,23.6958682 40.3791742,23.8147125 Z M35.8528437,14.7907379 C36.22372,15.1718595 36.4429673,15.6369917 36.526978,16.1635951 C36.6027925,16.6348744 36.5884492,17.1000066 36.4388693,17.5569427 C36.1520036,18.4421282 35.5577818,19.0240557 34.6644001,19.2658425 C33.7853617,19.5035312 32.9432061,19.392883 32.1953063,18.8396421 C31.6195259,18.4134416 31.3019246,17.827416 31.1953745,17.1204971 C31.1257071,16.6594629 31.1543937,16.206625 31.3039736,15.7701793 C31.6482124,14.7681985 32.3653766,14.2006143 33.396044,14.0100535 C33.4226816,14.0059554 33.4513681,14.0039064 33.4780057,14.0039064 C33.6132423,14.0018573 33.7505281,14.0018573 33.8878138,14.0018573 C34.6623511,13.9670236 35.3180441,14.239546 35.8528437,14.7907379 Z M17.4032825,14.1698787 C18.1081525,14.4321558 18.4851759,14.9587593 18.5773828,15.7005119 C18.640903,16.2168702 18.6019712,16.7373265 18.6101674,17.2536847 C18.6183636,17.8417593 18.6122164,18.4277849 18.6122164,19.0158596 C18.6122164,19.2064203 18.6101674,19.2084694 18.4196066,19.2084694 C18.1122506,19.2105184 17.8048945,19.2105184 17.4975384,19.2084694 C17.3110757,19.2084694 17.3110757,19.2064203 17.3090267,19.0097124 C17.3090267,18.9338979 17.3110757,18.8601325 17.3049286,18.784318 C17.2987815,18.7126016 17.2557516,18.7085035 17.2086237,18.7494843 C17.1164168,18.8314459 17.0365043,18.9236527 16.9401994,18.9994672 C16.6820202,19.2064203 16.3828603,19.3232156 16.061161,19.3580493 C15.5181652,19.4154225 15.001807,19.3314118 14.5530671,18.9830749 C14.2047302,18.7126016 14.0059733,18.3560685 13.9526982,17.927819 C13.8932761,17.4421964 13.9813848,16.9873094 14.3235746,16.612335 C14.6186364,16.2885866 14.9895127,16.0898297 15.4177622,16.0160642 C16.0181311,15.9115631 16.6123529,15.9463968 17.1942804,16.1369576 C17.222967,16.1472028 17.2537026,16.1656442 17.2885362,16.1472028 C17.4032825,15.6083051 17.0672399,15.2394778 16.6553827,15.1083392 C16.0386215,14.9095823 15.5161162,15.096045 15.050984,15.501755 C14.9136982,15.6205994 14.9177963,15.6267465 14.7682164,15.5099512 C14.5735575,15.3603712 14.3809477,15.2087422 14.1903869,15.0550642 C14.0858859,14.9710535 14.0879349,14.9649064 14.1739946,14.8624544 C14.5243805,14.4485482 14.9628752,14.1657806 15.4915277,14.0633285 C16.1328774,13.9383371 16.7803742,13.9383371 17.4032825,14.1698787 Z M11.2787003,12.0798573 C11.8462845,12.0819063 12.3626428,12.2437805 12.8154807,12.5962155 C13.135131,12.8441494 13.3502803,13.1617507 13.4424871,13.5510684 C13.5736257,14.0981622 13.4691247,14.6063243 13.1084935,15.0509661 C12.9773549,15.2128403 12.8052355,15.3234885 12.6351652,15.4382348 C12.526566,15.5099512 12.528615,15.550932 12.6454104,15.604207 C12.8851481,15.7087081 13.1064445,15.8439448 13.28676,16.0345056 C13.5736257,16.3398126 13.7232057,16.7004437 13.7457451,17.1204971 C13.7703336,17.5999725 13.6473912,18.026173 13.3441332,18.3970493 C13.0347281,18.7740728 12.6310671,19.0056144 12.1618368,19.1244587 C11.9364423,19.1818318 11.7089988,19.2146165 11.4754082,19.2125675 L10.1135646,19.2100062 L8.68871305,19.2105184 C8.53913308,19.2043713 8.53708404,19.2043713 8.53093692,19.0629875 L8.53093692,18.9195547 C8.52888788,17.825367 8.52888788,16.7332284 8.53093692,15.6410898 L8.53093692,12.3421345 L8.53298596,12.1782112 C8.53298596,12.1105929 8.56781965,12.0798573 8.63543799,12.0798573 C8.6764188,12.0798573 8.71739961,12.0778082 8.75838042,12.0778082 C9.59848705,12.0778082 10.4385937,12.0757592 11.2787003,12.0798573 Z M25.7387795,12.0778082 C25.9580268,12.0778082 25.9580268,12.0798573 25.9580268,12.3073008 C25.9580268,13.4404202 25.9580268,14.5755887 25.9600759,15.7087081 C25.9600759,15.7865717 25.917046,15.903367 25.9908115,15.9361516 C26.0830183,15.9771324 26.1321953,15.856239 26.1916175,15.7968169 C26.7059266,15.2866058 27.2181868,14.7743456 27.7242998,14.2579874 C27.8165066,14.1637315 27.9107625,14.1207017 28.0459992,14.1227507 C28.4496601,14.1309469 28.8512721,14.1247998 29.2549331,14.1247998 C29.2959139,14.1247998 29.3368947,14.1227507 29.3778755,14.1268488 C29.4659843,14.135045 29.4823766,14.1719277 29.4311506,14.2477422 C29.4086111,14.2805268 29.3799246,14.3112625 29.3491889,14.3379 C28.7754576,14.8645034 28.238609,15.4279896 27.6812699,15.9709853 C27.5521804,16.0980258 27.5521804,16.108271 27.6566814,16.2660471 C28.0029693,16.7906015 28.3513062,17.3131069 28.697594,17.8356122 C28.9537241,18.2228809 29.2078051,18.6101495 29.4618862,18.9994672 C29.4967199,19.0568404 29.5438478,19.1080664 29.5377007,19.1797828 C29.4864747,19.2248617 29.4291015,19.2084694 29.3758265,19.2084694 C28.9721655,19.2105184 28.5705535,19.2064203 28.1668925,19.2125675 C28.0439501,19.2146165 27.9722337,19.1777338 27.9066644,19.0691346 C27.53169,18.4503244 27.1444213,17.8397103 26.7632998,17.2249981 C26.621916,16.9975546 26.623965,16.9975546 26.4375023,17.1819683 C26.3125108,17.3069597 26.1895684,17.4360493 26.0584298,17.5569427 C25.9826153,17.6286591 25.9539287,17.7065226 25.9539287,17.8089747 C25.9580268,18.2126357 25.9559778,18.6142476 25.9559778,19.0179086 C25.9559778,19.1828564 25.954409,19.2050436 25.8249833,19.2080131 L25.7613189,19.2084694 C25.4478157,19.2105184 25.1322635,19.2064203 24.8187603,19.2105184 C24.7142592,19.2125675 24.6671313,19.1736357 24.6753274,19.0670856 C24.6794255,19.0261048 24.6753274,18.985124 24.6753274,18.9441431 L24.675475,12.20816 C24.67886,12.0837751 24.7041329,12.0772632 24.8630421,12.0775788 L25.7387795,12.0778082 Z M22.8926622,14.1125055 C23.2266558,14.2477422 23.4868839,14.4587934 23.6692485,14.7722966 C23.8782507,15.1288296 23.9725065,15.5181473 23.9766046,15.9218083 C23.9909479,16.9606719 23.9848008,17.9974864 23.9848008,19.0343009 C23.9848008,19.2043713 23.9807027,19.2064203 23.8147304,19.2084694 C23.493031,19.2105184 23.1733807,19.2105184 22.8516814,19.2084694 C22.6775129,19.2084694 22.6754639,19.2043713 22.6734148,19.0199576 C22.6734148,18.077399 22.6693167,17.1368894 22.6754639,16.1943307 C22.6775129,16.0181132 22.6262869,15.8603371 22.5607176,15.7066591 C22.3865491,15.296851 21.8476515,15.098094 21.4439905,15.2271836 C20.9317304,15.3931559 20.6837964,15.7701793 20.5854425,16.2721943 C20.5485598,16.4525098 20.5444617,16.6369235 20.5465107,16.8213371 C20.5485598,17.5303052 20.5485598,18.2413222 20.5485598,18.9502903 C20.5485598,18.9974182 20.5465107,19.0465952 20.5485598,19.0937231 C20.5506088,19.1695376 20.5178242,19.2064203 20.4399606,19.2064203 L19.3539691,19.2064203 C19.2802037,19.2064203 19.2371738,19.1777338 19.2392229,19.0978212 L19.2392229,14.3276548 C19.2412719,14.1268488 19.2412719,14.1247998 19.4420779,14.1247998 L20.3231653,14.1247998 C20.4891376,14.1268488 20.4911866,14.1288978 20.4932357,14.2989682 C20.4952847,14.438303 20.4932357,14.5735396 20.4932357,14.741561 C20.6796984,14.6268147 20.7493657,14.4608424 20.8907495,14.3624885 C21.1878604,14.1575844 21.5054617,14.0162006 21.8660928,13.9998083 C22.2123807,13.983416 22.5586686,13.9772688 22.8926622,14.1125055 Z M39.9304344,12.0798573 C40.0861614,12.1085439 40.0902595,12.1228871 40.0923086,12.2868104 C40.0943576,12.5880193 40.0943576,12.8871793 40.0923086,13.1883882 C40.0923086,13.4014884 40.0882105,13.3994394 39.8915026,13.3441153 C39.7316774,13.2990364 39.5820975,13.2088786 39.4038309,13.22732 C39.102622,13.2601046 38.8178053,13.4219789 38.7542851,13.6719618 C38.748138,13.6924522 38.7419908,13.7108936 38.7378928,13.731384 C38.6723235,14.0899661 38.7030591,14.1288978 39.0657392,14.1288978 L39.8033938,14.1288978 C39.9591209,14.1309469 39.96117,14.1329959 39.963219,14.2928211 C39.9652681,14.5653435 39.9652681,14.8399149 39.963219,15.1124373 C39.96117,15.2579192 39.9570719,15.2640663 39.8136391,15.2640663 C39.5267734,15.2661153 39.2399077,15.2661153 38.953042,15.2640663 C38.6846177,15.2640663 38.7030591,15.2517721 38.7030591,15.5242945 L38.7012662,16.3866844 L38.70101,18.989222 C38.70101,19.2064203 38.698961,19.2084694 38.4920079,19.2084694 C38.1907989,19.2084694 37.891639,19.2105184 37.5904301,19.2084694 C37.4224087,19.2064203 37.4203597,19.2043713 37.4183106,19.0343009 C37.4162616,18.3581175 37.4183106,17.6819342 37.4183106,17.0057508 L37.4183106,15.4689704 C37.4183106,15.2681644 37.4162616,15.2661153 37.2134066,15.2661153 C37.0146497,15.2661153 36.8179418,15.2640663 36.6191848,15.2661153 C36.5208309,15.2681644 36.4859972,15.2271836 36.4880462,15.1329277 C36.4921443,14.846062 36.4921443,14.5591964 36.4880462,14.2723307 C36.4859972,14.1678296 36.5208309,14.1247998 36.62943,14.1268488 C36.8404812,14.1329959 37.0535814,14.1309469 37.2646326,14.1268488 C37.4101145,14.1247998 37.4142126,14.1207017 37.4183106,13.9772688 C37.4224087,13.8481793 37.4244578,13.7170407 37.4224087,13.5879511 C37.4224087,12.8953754 37.8998352,12.2745161 38.6129013,12.0921515 C39.0472979,11.9815033 39.4919397,11.9958466 39.9304344,12.0798573 Z M15.7312654,16.9811623 C15.4177622,17.0856634 15.2661332,17.3049107 15.2497409,17.6368553 C15.2333486,17.9913393 15.4525959,18.2269789 15.7148731,18.3007444 C16.0837004,18.4052455 16.4525277,18.382706 16.7762761,18.1716549 C17.0856812,17.9687998 17.2680458,17.671689 17.3069776,17.2926165 C17.3192719,17.1799192 17.2803401,17.116399 17.1696919,17.0795162 C16.8787281,16.9811623 16.5857153,16.9012497 16.2537708,16.9114949 C16.0877985,16.9032988 15.9074829,16.9217401 15.7312654,16.9811623 Z M33.0989332,15.4279896 C32.738302,15.6677273 32.5395451,16.0181132 32.484221,16.4443137 C32.4247988,16.8951026 32.5108585,17.321303 32.8079694,17.671689 C33.1849929,18.1204288 33.6788116,18.2515674 34.2443468,18.1142817 C34.5824385,18.0323201 34.8406176,17.8356122 35.0311784,17.5405504 C35.2032978,17.2721261 35.2606709,16.9770642 35.2586219,16.6266783 C35.2688671,16.513981 35.2483767,16.3664501 35.2073959,16.2209682 C34.9430697,15.2517721 33.8591272,14.9239256 33.0989332,15.4279896 Z M10.0328836,16.1676932 C9.89354889,16.1676932 9.88740177,16.1758894 9.88535273,16.3234203 C9.87920561,16.5693051 9.88330369,16.81519 9.88330369,17.0610749 C9.88330369,17.321303 9.88535273,17.5794821 9.88125465,17.8397103 C9.87920561,17.9462604 9.92223546,17.9831431 10.0267365,17.9810941 C10.5185063,17.976996 11.010276,17.9831431 11.4999967,17.974947 C11.7233421,17.9708489 11.9302952,17.8950344 12.1003656,17.7454544 C12.372888,17.5077657 12.4712419,17.1102518 12.3401033,16.7537188 C12.2048666,16.3889896 11.922099,16.1922817 11.5471246,16.1758894 C11.0430606,16.1533499 10.5369476,16.1656442 10.0328836,16.1676932 Z M10.0410798,13.3031345 C9.89149985,13.3051835 9.88535273,13.3092816 9.88330369,13.4486164 C9.88125465,13.9137486 9.88330369,14.3768317 9.88125465,14.841964 C9.88125465,14.944416 9.91199026,14.9894949 10.0205894,14.9894949 C10.4652312,14.9853968 10.907824,14.995642 11.3524658,14.9833478 C11.7130969,14.9731026 12.0470905,14.7108254 12.1372483,14.3932241 C12.2950244,13.8379341 11.9139029,13.3195268 11.3319754,13.3051835 L11.0246193,13.3018538 L10.7172632,13.3031345 C10.4918687,13.3010855 10.2664743,13.2990364 10.0410798,13.3031345 Z" id="Combined-Shape" fill="#586BAD" fill-rule="nonzero"></path>
        </g>
    </g>
</svg>