<?xml version="1.0" encoding="UTF-8"?>
<svg width="48px" height="48px" viewBox="0 0 48 48" version="1.1" xmlns="http://www.w3.org/2000/svg" xmlns:xlink="http://www.w3.org/1999/xlink">
    <title>hr-hnb</title>
    <g id="Page-1" stroke="none" stroke-width="1" fill="none" fill-rule="evenodd">
        <g id="hr-hnb">
            <rect id="Rectangle" x="0" y="0" width="48" height="48"></rect>
            <path d="M40.125,1.5 L40.125,35.8750002 L35.0249998,35.8750002 L35.0249998,17.7500002 L32.4749998,17.7500002 L32.4749998,35.8750002 L28.6499998,35.8750002 L28.6499998,17.7500002 L26.0999998,17.7500002 L26.0999998,35.8750002 L22.2749998,35.8750002 L22.2749998,17.7500002 L19.7249998,17.7500002 L19.7249998,35.8750002 L15.8999998,35.8750002 L15.8999998,17.7500002 L13.3499998,17.7500002 L13.3499998,35.8750002 L8.25,35.8750002 L8.25,1.5 L40.125,1.5 Z M36.9374998,14.6250004 L11.4374998,14.6250004 L11.4374998,17.1250004 L36.9374998,17.1250004 L36.9374998,14.6250004 Z M19.9076871,46.5 L18.6197681,46.5 L18.6197681,43.1559139 L15.2754189,43.1559139 L15.2754189,46.5 L13.9875,46.5 L13.9875,39 L15.2754189,39 L15.2754189,42.0860216 L18.6197681,42.0860216 L18.6197681,39 L19.9076871,39 L19.9076871,46.5 Z M22.9446317,39 L26.0398594,44.8066732 L26.0398773,39 L27.2694954,39 L27.2694954,46.5 L25.6635717,46.5 L22.5682789,40.6936279 L22.5683262,46.5 L21.3387081,46.5 L21.3387081,39 L22.9446317,39 Z M31.7692615,39 C33.0730807,39 34.042995,39.7096774 34.042995,40.8655912 C34.042995,41.499351 33.7464758,42.0971963 33.0927753,42.4417028 L33.066308,42.4553483 C33.9291431,42.7788637 34.3875,43.4068099 34.3875,44.295699 C34.3875,45.5752687 33.4917868,46.5 31.9123636,46.5 L28.7005164,46.5 L28.7005164,39 L31.7692615,39 Z M31.66326,43.0537635 L29.9778352,43.0537635 L29.9778352,45.4193546 L31.7639614,45.4193546 C32.6066739,45.4193546 33.0995811,44.9623657 33.0995811,44.2365592 C33.0995811,43.4731181 32.5324728,43.0537635 31.66326,43.0537635 Z M31.7162607,40.0645163 L29.9778352,40.0645163 L29.9778352,41.9892472 L31.6526598,41.9892472 C32.2886692,41.9892472 32.755076,41.5913977 32.755076,40.9946235 C32.755076,40.4462366 32.3734704,40.0645163 31.7162607,40.0645163 Z" id="Combined-Shape" fill="#E80000" fill-rule="nonzero"></path>
        </g>
    </g>
</svg>