<?xml version="1.0" encoding="UTF-8"?>
<svg width="48px" height="48px" viewBox="0 0 48 48" version="1.1" xmlns="http://www.w3.org/2000/svg" xmlns:xlink="http://www.w3.org/1999/xlink">
    <title>id-bi</title>
    <g id="Page-1" stroke="none" stroke-width="1" fill="none" fill-rule="evenodd">
        <g id="id-bi" fill-rule="nonzero">
            <rect id="Rectangle" x="0" y="0" width="48" height="48"></rect>
            <path d="M30.2511083,1.5 L30.2511083,3.26272154 L29.4656113,3.26347677 C27.6345442,3.26498725 26.6070659,4.13199852 26.6070659,5.67645677 L26.6070659,6.03141783 L27.8546642,6.03141783 C34.7824152,6.03141783 38.8342828,9.76681657 37.4751168,14.9001578 C36.8547099,17.2429008 34.9769049,19.2684445 32.2020353,20.5885976 L31.2506945,21.0409842 L32.5450306,21.5620972 C43.7749226,26.083697 42.4655099,38.8101839 30.5880728,40.5774369 L30.5207313,40.5871549 C29.5292044,40.7257511 27.8498682,40.7641733 21.301519,40.7710525 L20.8421386,40.7714778 C20.7642717,40.7715406 20.6857487,40.7715995 20.6065635,40.7716544 L20.1234534,40.7722878 C20.0415934,40.7722878 19.9590584,40.7722878 19.8758421,40.7722878 L7.87575383,40.7722878 L7.91269179,39.922647 L7.94962975,39.0730062 L9.21758157,38.9891749 C11.0260337,38.8683371 11.6698095,38.560956 12.2035252,37.5625336 L12.4726446,37.0595462 L12.4726446,9.87103919 L12.1319108,9.22229124 C11.5461804,8.11133862 10.9348195,7.80773366 9.01781508,7.67783297 L7.94962975,7.60533027 L7.875,6.03141783 L21.1982941,6.03141783 L21.1274335,5.62283499 C20.8417297,3.98472744 20.2454456,3.34806324 18.8493417,3.19021885 C17.3613775,3.02286208 17.4315496,3.08868837 17.4357347,2.30855777 L17.4358995,1.5 L30.2511083,1.5 Z M17.9326773,7.91950861 L17.9673538,22.1745938 C18.0050455,38.0224725 17.9379542,36.8450591 18.8523571,37.727175 C19.2910895,38.1501074 20.2032308,38.5065789 20.8470066,38.5065789 L21.202817,38.5065789 L21.2676469,24.3458983 L22.6946581,24.2567803 C23.4794012,24.20769 24.5860322,24.080055 25.1544244,23.9735667 C25.7220627,23.8670784 26.2814089,23.779471 26.3974996,23.779471 L26.4091401,23.780227 C26.4110436,23.7804871 26.4129289,23.7808182 26.4147962,23.7812264 L26.4257853,23.7846491 C26.573054,23.8453897 26.6015563,24.5057062 26.6062384,29.0948965 L26.6065399,29.4377509 C26.6065835,29.4960781 26.6066239,29.5550016 26.6066613,29.6145275 L26.6069758,30.3581411 C26.6069917,30.422583 26.6070053,30.4876515 26.6070168,30.5533526 L26.6070659,38.5435855 L27.5184534,38.4650409 C36.7122349,37.6690219 37.0198,27.0783432 27.9828163,22.4570522 C27.43327,22.1761043 27.373717,22.1708177 26.4751447,22.3286621 C25.6216111,22.479062 24.6955678,22.6179136 23.7937492,22.7359572 L23.4766238,22.7767406 C21.1607234,23.0692617 19.0833419,23.2150937 18.9217099,23.0536889 C18.8538647,22.9849624 18.9420634,22.5771348 19.14183,22.0378961 L19.4750254,21.1361439 L19.9944183,21.1240601 C20.280122,21.117263 20.6555323,21.0719488 20.8281607,21.0236137 L21.1417563,20.9360063 L21.2050786,14.9628424 L21.2676469,8.98967841 L26.5444976,8.98967841 L26.5769125,14.5595462 C26.602543,18.8908264 26.6447578,20.1286587 26.7653715,20.1256377 C27.1159051,20.1180854 28.6642838,19.362849 29.609594,18.7382687 C34.1378857,15.7452672 33.2295136,9.18377412 28.1365988,8.1022758 C27.5011152,7.96708847 26.166072,7.92328479 22.6155054,7.92177428 L17.9326773,7.91950861 Z M26.5392207,42.0629867 C26.5663588,42.1490836 26.6236503,42.4851638 26.6673728,42.8084049 C26.8354782,44.0741809 27.5870525,44.6693072 29.1625694,44.787124 L30.187786,44.8634029 L30.187786,45.6813238 L30.187786,46.5 L23.8435039,46.5 L17.4984679,46.5 L17.4607761,45.7130437 L17.4238382,44.9260876 L18.1633511,44.9260876 C20.0796017,44.9260876 20.8168531,44.29471 21.1372333,42.377165 L21.2163861,41.9051423 L23.8525499,41.9051423 C25.8517225,41.9051423 26.5015289,41.9436594 26.5392207,42.0629867" id="Combined-Shape" fill="#008EFF"></path>
        </g>
    </g>
</svg>