<?xml version="1.0" encoding="UTF-8"?>
<svg width="48px" height="48px" viewBox="0 0 48 48" version="1.1" xmlns="http://www.w3.org/2000/svg" xmlns:xlink="http://www.w3.org/1999/xlink">
    <title>id-bar</title>
    <g id="Page-1" stroke="none" stroke-width="1" fill="none" fill-rule="evenodd">
        <g id="id-bar">
            <rect id="Rectangle" x="0" y="0" width="48" height="48"></rect>
            <path d="M8.41247448,18.3192958 C8.50853908,18.3652543 8.56701318,18.3965896 8.62757565,18.4237468 C9.28540932,18.7203875 9.60701689,19.2468204 9.64043067,19.9508199 C9.65087247,20.170167 9.6279005,20.3978701 9.58404492,20.6130391 C9.50259885,21.0015967 9.27496751,21.3086825 8.96171338,21.5489197 C8.52733432,21.8810738 8.02403935,22.0440173 7.48733061,22.0607295 C6.77102283,22.0816197 6.05471505,22.0690855 5.33840728,22.0690855 C5.29664006,22.0690855 5.2569612,22.0607295 5.19431038,22.0523734 C5.18804529,21.9834357 5.17551513,21.9186761 5.17551513,21.8518275 C5.17342677,19.7836984 5.17342677,17.7176583 5.17551513,15.6495291 C5.17551513,15.421826 5.18178021,15.417648 5.40941155,15.4134699 C6.04218489,15.3988468 6.67495823,15.3696005 7.30773158,15.3758676 C7.77970113,15.3800456 8.23078708,15.4928527 8.62548728,15.7727813 C9.01601077,16.0485318 9.19978652,16.4350004 9.23528866,16.9071188 C9.27705588,17.473243 9.04315946,17.8889579 8.57954335,18.1918657 C8.53359941,18.2190229 8.49392055,18.2566253 8.41247448,18.3192958 Z M6.30740672,20.0009564 C6.30740672,20.0009564 6.30740672,20.0009564 6.30740672,20.0009564 C6.30740672,20.3205764 6.30740672,20.6401963 6.30740672,20.9598163 C6.30740672,21.0475551 6.3136718,21.1227598 6.43062001,21.1394719 C6.8900594,21.2000535 7.34532207,21.1896084 7.79014294,21.0496441 C8.02403935,20.9765284 8.22034528,20.8407422 8.32894004,20.6172171 C8.51898088,20.2203034 8.52942268,19.8108556 8.35400037,19.4076749 C8.20990347,19.0796989 7.91544459,18.9418236 7.58757193,18.9042212 C7.23046222,18.8624409 6.86708743,18.8624409 6.50788936,18.8561738 C6.32829033,18.8519958 6.30949508,18.879153 6.30740672,19.0650757 C6.30531836,19.3742506 6.30740672,19.6876035 6.30740672,20.0009564 Z M6.30740672,17.1578011 C6.30740672,17.3729701 6.30531836,17.5902281 6.30740672,17.8053971 C6.30949508,17.9662516 6.33037869,17.9892308 6.48700575,17.9975869 C6.65407462,18.0059429 6.82323185,18.014299 6.98821236,17.9996759 C7.18660665,17.9808747 7.39335437,17.9620735 7.57921849,17.8973139 C7.95930017,17.7636167 8.12219231,17.471154 8.10757379,17.0637952 C8.09504362,16.6731486 7.87367737,16.4350004 7.47480045,16.3430835 C7.13648598,16.2657898 6.79608316,16.3033922 6.45568034,16.3096592 C6.34082049,16.3117483 6.30323,16.3806859 6.30531836,16.4893149 C6.31158344,16.71284 6.30740672,16.934276 6.30740672,17.1578011 Z M29.8850009,28.060393 C30.5386579,29.0589442 31.1776963,30.0345163 31.8334416,31.0372455 C31.7311119,31.0435126 31.6726378,31.0518687 31.6120754,31.0518687 C31.3259699,31.0539577 31.0419528,31.0435126 30.7558474,31.0560467 C30.597132,31.0623138 30.5031557,31.0079993 30.4196213,30.874302 C29.9225914,30.0930088 29.4192965,29.3179826 28.9160015,28.5408674 C28.8825877,28.488642 28.855439,28.4280604 28.8094951,28.38628 C28.7614628,28.3424106 28.7009003,28.2901851 28.6403379,28.2839181 C28.4544737,28.2630279 28.2665213,28.2630279 28.0785688,28.2567608 C27.9950343,28.2525828 27.9490904,28.2943632 27.947002,28.380013 C27.9449137,28.4426835 27.9449137,28.5053541 27.9449137,28.5680247 C27.9449137,29.3054485 27.9449137,30.0428723 27.9449137,30.7823852 C27.9449137,30.8575899 27.9449137,30.9327946 27.9449137,31.0017322 C27.7861983,31.0644028 27.0218582,31.0748479 26.783785,31.0226224 C26.77752,30.974575 26.7670782,30.9223495 26.7670782,30.868035 C26.7670782,28.7790156 26.7649898,26.6920853 26.7670782,24.603066 C26.7670782,24.4066982 26.7712549,24.4025201 26.9633841,24.3983421 C27.6734268,24.383719 28.3813811,24.3607398 29.0914238,24.3607398 C29.433915,24.3607398 29.7659644,24.4484786 30.0833952,24.5800868 C30.672313,24.8265911 31.0064507,25.2694632 31.1025153,25.900347 C31.2445239,26.8257826 30.8164099,27.5548503 30.116809,27.9371409 C30.0478931,27.9684761 29.9831539,28.0060785 29.8850009,28.060393 Z M27.9428253,26.3202399 C27.9428253,26.5771893 27.940737,26.8341386 27.9428253,27.091088 C27.9449137,27.2811888 27.9657973,27.304168 28.1579265,27.3146131 C28.3249954,27.3229692 28.4920642,27.3334143 28.6570447,27.3167021 C28.9034713,27.2895449 29.1540746,27.2602986 29.3921478,27.195539 C29.7429924,27.0994441 29.8954427,26.8257826 29.9330332,26.4810944 C29.9413867,26.4058897 29.9392983,26.328596 29.9392983,26.2513022 C29.9351216,25.8355874 29.7576109,25.580727 29.3608224,25.465831 C28.9577687,25.3488459 28.5442733,25.3112435 28.1245127,25.363469 C27.947002,25.3864482 27.9449137,25.3885373 27.9428253,25.5702819 C27.940737,25.8209643 27.9428253,26.0695576 27.9428253,26.3202399 Z M29.1624281,22.0544624 C28.7886115,22.0544624 28.4565621,22.0544624 28.1078058,22.0544624 C28.1015407,21.9604565 28.0931873,21.8789848 28.0931873,21.797513 C28.0910989,20.8720775 28.0931873,19.9445529 28.0931873,19.0191173 C28.0931873,18.9418236 28.0952757,18.8645299 28.0869222,18.7893252 C28.0263598,18.2190229 27.5084463,17.8868688 26.9654724,18.0790586 C26.8422591,18.122928 26.7273993,18.1939547 26.6188045,18.2670704 C26.4141452,18.4007676 26.3139038,18.5783342 26.3180806,18.8436397 C26.3326991,19.8254788 26.3243456,20.8073179 26.3243456,21.7891569 C26.3243456,21.8706287 26.3243456,21.9521005 26.3243456,22.0523734 C25.9609709,22.0837087 25.6247448,22.0753526 25.2697234,22.0586404 C25.2634583,21.9688126 25.2530165,21.8936079 25.2530165,21.8204922 C25.2530165,20.3790689 25.2530165,18.9376456 25.2530165,17.4962222 C25.2530165,17.4607089 25.2551049,17.4272846 25.2530165,17.3917713 C25.2488398,17.2894093 25.2947837,17.2350948 25.4012901,17.2350948 C25.5537405,17.2350948 25.7082792,17.2371838 25.8607295,17.2350948 C25.9567941,17.2330058 26.0152682,17.2789642 26.0591238,17.360436 C26.1092445,17.4502638 26.1635419,17.5359136 26.2199276,17.6320085 C27.136718,16.9092078 28.0347132,17.0053027 28.9494153,17.6340975 C28.9682105,17.6236524 29.0037126,17.6027622 29.0350381,17.579783 C29.6260442,17.1201987 30.2859662,17.0282819 30.9855671,17.2434509 C31.5180991,17.4063944 31.8229998,17.79913 31.9483015,18.3297409 C31.9879803,18.4968625 32.0005105,18.6744291 32.0005105,18.8457287 C32.0046872,19.8421909 32.0025988,20.8365641 32.0025988,21.8330264 C32.0025988,21.899875 31.9942454,21.9688126 31.9879803,22.0544624 C31.6371357,22.0837087 31.3009096,22.0774416 30.9458882,22.0586404 C30.9396232,21.9604565 30.9312697,21.8789848 30.9312697,21.799602 C30.9291814,20.9222139 30.9312697,20.0448258 30.9291814,19.1674377 C30.9291814,19.0420965 30.9208279,18.9167554 30.9020327,18.7935032 C30.8101448,18.1855986 30.3005847,17.8806018 29.7221088,18.0978598 C29.6009839,18.1438182 29.4882124,18.2190229 29.381706,18.2963166 C29.2292556,18.4091237 29.156163,18.5616221 29.1582513,18.764257 C29.1645164,19.7669862 29.1624281,20.7697155 29.1624281,21.7724448 C29.1624281,21.8560056 29.1624281,21.9458334 29.1624281,22.0544624 Z M21.6526824,31.0497797 C21.6234453,30.9536848 21.6025617,30.8847471 21.575413,30.7970083 C21.5148506,30.8283436 21.4647299,30.8492338 21.4208743,30.8763911 C20.2409504,31.5678565 18.7080936,30.9578628 18.3509839,29.6438696 C18.1630314,28.9565823 18.1692965,28.2651169 18.4219881,27.5924527 C18.7853629,26.6294147 19.6854464,26.0465784 20.7108316,26.115516 C20.9301095,26.1301391 21.1452107,26.2011658 21.3624002,26.2492132 C21.4292278,26.2638364 21.4918786,26.2909936 21.5837665,26.3223289 C21.5962966,26.224145 21.6150919,26.1447623 21.6150919,26.0674685 C21.6171802,25.572371 21.6150919,25.0793624 21.6171802,24.5842648 C21.6171802,24.3670068 21.6192686,24.3649178 21.8218396,24.3168703 C22.0975032,24.2521107 22.3752552,24.1894402 22.6822443,24.1184135 C22.686421,24.2291315 22.6926861,24.3168703 22.6926861,24.4025201 C22.6926861,26.3599313 22.6926861,28.3152534 22.6926861,30.2726645 C22.6926861,30.4752993 22.6947745,30.6758452 22.6905977,30.8784801 C22.686421,31.0330675 22.6718025,31.0476906 22.5235289,31.0497797 C22.2311583,31.0518687 21.9408762,31.0497797 21.6526824,31.0497797 Z M21.6150919,28.6202502 C21.6150919,28.2651169 21.6067384,27.9099836 21.6192686,27.5569393 C21.6255337,27.3793727 21.5566178,27.2749217 21.4062558,27.1892719 C20.6293856,26.7463998 19.6520327,27.1725598 19.4285781,28.056215 C19.3408669,28.4029922 19.3283367,28.7581254 19.3909876,29.1111697 C19.45155,29.4495908 19.5768517,29.7629437 19.8733989,29.9572225 C20.3578986,30.2768425 20.8737238,30.3457801 21.4104325,30.0742076 C21.5566178,29.9990029 21.621357,29.896641 21.6171802,29.7274304 C21.6088268,29.357674 21.6150919,28.9879176 21.6150919,28.6202502 Z M7.95721181,24.3586507 C8.27881938,24.281357 8.6192222,24.2019743 8.9930388,24.1121464 C8.9930388,24.2249535 8.9930388,24.2980692 8.9930388,24.3732739 C8.9930388,24.9435761 8.99095044,25.5138784 8.99512716,26.0862697 C8.99512716,26.1719195 9.01183404,26.2596583 9.02436421,26.3766434 C9.11625209,26.334863 9.17890291,26.3077058 9.23946538,26.2805485 C10.3233247,25.8042521 12.0023668,26.2972607 12.3260627,27.8974495 C12.4680713,28.603538 12.4116855,29.2991815 12.0754594,29.9488665 C11.7392333,30.5985515 11.2004362,30.978753 10.4778634,31.0957381 C10.047661,31.1667647 9.6174587,31.1709428 9.20396324,31.0059103 C9.06404307,30.9495067 8.93038797,30.874302 8.77584927,30.7970083 C8.71737516,30.872213 8.66307778,30.9515958 8.59833859,31.0205334 C8.55239465,31.0664918 8.49392055,31.1249844 8.43544645,31.1291624 C8.27881938,31.1437855 8.11801559,31.1333404 7.97600705,31.1333404 C7.95303508,31.1082722 7.94885836,31.1040942 7.94468164,31.0978271 C7.94050492,31.09156 7.9363282,31.087382 7.93423984,31.0811149 C7.92797475,31.0602248 7.91962131,31.0414236 7.91962131,31.0205334 C7.91753295,28.8688435 7.91753295,26.7192426 7.91753295,24.5675527 C7.91753295,24.5195052 7.92170967,24.4714578 7.92797475,24.4213213 C7.92797475,24.4108762 7.9363282,24.3983421 7.95721181,24.3586507 Z M8.99095044,28.6139831 C8.99095044,28.9753835 8.99930388,29.3388728 8.98886208,29.7002732 C8.98259699,29.8924629 9.06195471,30.0219821 9.22484685,30.1034539 C9.30420457,30.1431453 9.38982736,30.1786586 9.47545016,30.2016378 C9.74693707,30.2726645 10.0142473,30.224617 10.2794691,30.1682135 C10.7493503,30.0700296 11.0375441,29.7796559 11.1649341,29.3242497 C11.2818823,28.9022678 11.3048543,28.4719298 11.2129664,28.0436808 C11.1001949,27.517248 10.7869408,27.1725598 10.2481437,27.0743759 C10.0393076,27.0367735 9.8200297,27.0325955 9.60701689,27.0451296 C9.4733618,27.0534857 9.3397067,27.1119782 9.21231669,27.1662927 C9.05777798,27.2310523 8.98468535,27.3522154 8.98886208,27.5297821 C8.99721552,27.8890934 8.99095044,28.2525828 8.99095044,28.6139831 Z M1.5,31.0330675 C1.52714869,30.9536848 1.54385558,30.8868362 1.56891591,30.8262546 C2.39381845,28.7226121 3.22080936,26.6210587 4.04780026,24.5174162 C4.12924633,24.3106033 4.13133469,24.3106033 4.36731947,24.3106033 C4.61583442,24.3106033 4.61583442,24.3106033 4.70354557,24.5278613 C5.53053648,26.6147916 6.35961574,28.7017219 7.18660665,30.7886522 C7.21375534,30.8575899 7.23881567,30.9307056 7.27014108,31.0184444 C7.21166698,31.0309785 7.1678114,31.0476906 7.12395582,31.0476906 C6.81696677,31.0497797 6.51206609,31.0435126 6.20507704,31.0518687 C6.07559866,31.0560467 6.01712456,31.0017322 5.9774457,30.8868362 C5.86258585,30.5525931 5.74146092,30.21835 5.62033599,29.8861959 C5.54933172,29.6898281 5.53888992,29.683561 5.33631892,29.681472 C4.70354557,29.679383 4.07077223,29.679383 3.43799889,29.681472 C3.21872099,29.681472 3.21036755,29.6898281 3.13936328,29.8924629 C3.02868016,30.2141719 2.92008539,30.5379699 2.8073139,30.8596789 C2.74257472,31.0476906 2.74048636,31.0476906 2.54000371,31.0476906 C2.25389827,31.0497797 1.9698812,31.0497797 1.68377576,31.0476906 C1.62739001,31.0497797 1.57518099,31.0393346 1.5,31.0330675 Z M3.57374234,28.820796 C4.104186,28.8354192 4.63462966,28.8249741 5.16298496,28.8270631 C5.16298496,28.6139831 4.48635604,26.5207857 4.37567292,26.3661983 C4.27543159,26.4873614 3.58836087,28.5763808 3.57374234,28.820796 Z M13.8777149,27.197628 C13.8004455,26.9135214 13.7294412,26.654483 13.658437,26.3933556 C13.8944218,26.2533913 14.1408483,26.2032548 14.3851866,26.1614744 C14.8696863,26.0800027 15.3562744,26.0841807 15.8365974,26.1969877 C16.41925,26.334863 16.8452757,26.652394 17.0039911,27.2602986 C17.0311398,27.3605715 17.0666419,27.4608444 17.0770837,27.5632064 C17.1104975,27.8807373 17.148088,28.1982683 17.1585298,28.5178882 C17.1731483,28.927336 17.1564414,29.3388728 17.1647949,29.7504096 C17.1689716,29.9154422 17.1898552,30.0825637 17.2211806,30.2475962 C17.2608595,30.4648542 17.3318637,30.5881064 17.5114628,30.8158095 C17.4007797,31.0727589 17.1877668,31.1709428 16.7972434,31.1312514 C16.4714591,31.0999161 16.3273622,30.8408777 16.16447,30.5985515 C16.1331446,30.6173527 16.1059959,30.6257087 16.089289,30.6445099 C15.7739465,30.980842 15.3708929,31.1061832 14.926072,31.1312514 C14.619083,31.1500526 14.3141823,31.1228953 14.0218118,31.0121773 C13.4809263,30.8074534 13.1593187,30.3645813 13.1405235,29.788012 C13.13217,29.5644869 13.1384351,29.3430509 13.2052627,29.1257929 C13.3702432,28.5889149 13.7482365,28.2567608 14.2557082,28.0729271 C14.7652682,27.8870044 15.2915352,27.8117997 15.834509,27.8932714 C15.8950715,27.9016275 15.9577223,27.9016275 16.0475218,27.9078946 C16.0475218,27.8264228 16.060052,27.7533071 16.0454335,27.6843695 C15.9744292,27.3271472 15.7217375,27.1078002 15.3186839,27.0367735 C14.8989233,26.9636578 14.4875162,27.0096163 14.0823742,27.1286904 C14.0259885,27.1495806 13.9675144,27.1704708 13.8777149,27.197628 Z M16.0684054,29.1550391 C16.0704938,29.1550391 16.0725821,29.1550391 16.0746705,29.1550391 C16.0746705,29.0714783 16.0704938,28.9879176 16.0746705,28.9043568 C16.0809356,28.7957278 16.03708,28.7351462 15.9284852,28.7163451 C15.5149898,28.6411404 15.1098478,28.6703866 14.7214127,28.8354192 C14.3371543,29.0004517 14.1700854,29.3367838 14.2390013,29.7524987 C14.2807685,30.007359 14.4248654,30.1682135 14.6650269,30.2392402 C14.896835,30.3081778 15.1307314,30.3039998 15.3667162,30.2496853 C15.7843883,30.1515013 16.03708,29.8548606 16.0684054,29.4245226 C16.0725821,29.3367838 16.0684054,29.244867 16.0684054,29.1550391 Z M14.769445,21.8413824 C14.5981994,22.1693585 14.3079172,22.1735365 14.0218118,22.1484683 C13.7064693,22.121311 13.560284,21.8685397 13.409922,21.6241244 C13.3785966,21.6387476 13.3493596,21.6450146 13.334741,21.6617268 C13.0862261,21.9416554 12.7583534,22.0732636 12.4012437,22.1275781 C12.0065435,22.1881596 11.609755,22.1777145 11.2317616,22.0231271 C10.7034063,21.8079581 10.4193893,21.4089554 10.3901522,20.8407422 C10.3797104,20.6610865 10.3838871,20.4772528 10.4152125,20.3017752 C10.5008353,19.8087666 10.7932059,19.4599004 11.2213198,19.2196632 C11.534574,19.0441855 11.8791535,18.9564467 12.2341749,18.9188444 C12.5516057,18.8854201 12.8711249,18.8561738 13.1885558,18.9272005 C13.2136161,18.9334675 13.2428532,18.9251114 13.2887971,18.9230224 C13.2929738,18.8666189 13.305504,18.8123044 13.2971505,18.7621679 C13.2386764,18.3631652 12.9567477,18.1124829 12.5119269,18.0519014 C12.090078,17.9934088 11.6807592,18.0331002 11.2797939,18.1688864 C11.2359384,18.1835096 11.1879061,18.1939547 11.1189902,18.2127558 C11.0438092,17.9453614 10.9707165,17.686323 10.8913588,17.4105724 C10.9623631,17.3771481 11.0208372,17.3437238 11.083488,17.3228336 C11.5491925,17.1578011 12.0274271,17.1055756 12.5202803,17.1410889 C12.7917672,17.1619791 13.0590774,17.1974925 13.3159458,17.2873203 C13.7670317,17.4460858 14.0823742,17.7406375 14.213941,18.2002217 C14.289122,18.4592601 14.3496844,18.7287436 14.364303,18.9961381 C14.3956284,19.5434612 14.3914516,20.0949623 14.4060702,20.6422853 C14.4102469,20.8156739 14.4227771,20.9890625 14.4415723,21.1603621 C14.4728977,21.4214895 14.5647856,21.6512817 14.769445,21.8413824 Z M13.3263876,20.172256 C13.3222109,20.172256 13.3180342,20.172256 13.3138574,20.170167 C13.3138574,20.0866062 13.3096807,20.0030454 13.3159458,19.9194846 C13.3242992,19.8066776 13.2637368,19.7544521 13.1614071,19.73774 C12.7416466,19.6667133 12.3302395,19.6917815 11.939716,19.8651701 C11.5575459,20.0364697 11.3925654,20.4041371 11.482365,20.8114959 C11.534574,21.043377 11.6703174,21.1916974 11.8958604,21.2606351 C12.119315,21.3295727 12.3511231,21.3233056 12.5745777,21.2794362 C12.9588361,21.2042315 13.2052627,20.9744394 13.2783553,20.5817038 C13.3034156,20.4480065 13.3096807,20.3101313 13.3263876,20.172256 Z M36.4904864,30.8137205 C36.3651847,31.0790259 36.135465,31.1772098 35.7595601,31.1333404 C35.4379525,31.0957381 35.2959439,30.8366997 35.1372285,30.5964625 C35.0223687,30.6925574 34.9263041,30.7844742 34.8177093,30.8555009 C34.5817245,31.0121773 34.3165027,31.0978271 34.0366623,31.1270734 C33.7589103,31.1563196 33.4811583,31.1479636 33.2075831,31.083204 C32.5393076,30.9265275 32.1320772,30.435608 32.1091053,29.7420536 C32.0861333,29.0088078 32.3931223,28.4614847 33.0634862,28.1481318 C33.6106367,27.8932714 34.1932894,27.8243338 34.792649,27.8932714 C34.8594765,27.9016275 34.9283924,27.9058056 34.99522,27.9099836 C35.0641359,27.6509452 34.9555411,27.3793727 34.7258214,27.2143402 C34.5065435,27.0576637 34.2517635,27.0179723 33.9948951,27.0075272 C33.658669,26.9929041 33.328708,27.0367735 33.0112771,27.1495806 C32.9674216,27.1642037 32.9193893,27.1725598 32.8504734,27.1892719 C32.7815575,26.9406786 32.7126415,26.7025304 32.6562558,26.4602042 C32.6479024,26.4246909 32.6959347,26.3536642 32.7335252,26.336952 C32.8462966,26.2868156 32.9674216,26.2492132 33.0885465,26.2178779 C33.6649341,26.0716466 34.2454984,26.0674685 34.8239744,26.1969877 C35.5193986,26.3536642 35.9203638,26.7965363 36.0394004,27.4921797 C36.0895211,27.7929985 36.1166698,28.0979953 36.1271116,28.4029922 C36.1417301,28.81244 36.1250232,29.2239768 36.1333766,29.6334246 C36.1375534,29.8277033 36.1605253,30.0219821 36.1918508,30.2141719 C36.2273529,30.4460531 36.3275942,30.652866 36.4904864,30.8137205 Z M35.070401,29.1007246 C35.0662242,29.1007246 35.0641359,29.1007246 35.0599592,29.1007246 C35.0599592,29.031787 35.0599592,28.9628493 35.0599592,28.8918227 C35.0620475,28.7811047 35.0014851,28.7330572 34.897067,28.714256 C34.5274271,28.6474074 34.1640523,28.6724757 33.809031,28.7915498 C33.3683869,28.9377811 33.1762577,29.2302438 33.2034063,29.6919171 C33.2201132,29.9634896 33.3725636,30.1640355 33.635697,30.2413292 C33.8800353,30.3144449 34.1285502,30.3060888 34.3749768,30.2434182 C34.7446167,30.1494123 34.9534528,29.902908 35.0223687,29.5352406 C35.0516057,29.3931873 35.0557824,29.246956 35.070401,29.1007246 Z M45.0193521,27.9120726 C45.0694728,27.5569393 44.8877854,27.2519425 44.5515593,27.1161563 C44.2550121,26.9949931 43.9417579,26.976192 43.6285038,27.0221504 C43.3758121,27.0576637 43.1272972,27.1182453 42.8516336,27.1725598 C42.7827177,26.9239665 42.709625,26.6670171 42.634444,26.3975336 C42.6950065,26.3641093 42.7409504,26.332774 42.7889827,26.3139728 C43.3006311,26.1259611 43.8289864,26.0653795 44.3698719,26.1301391 C44.6037683,26.1572964 44.8376647,26.2011658 45.0611194,26.2742815 C45.5059402,26.4184238 45.8191944,26.7150645 45.9486727,27.1704708 C46.0238537,27.4357762 46.0885929,27.7115268 46.1052998,27.9851883 C46.1345368,28.4426835 46.1199183,28.9043568 46.1282718,29.361852 C46.1324485,29.577021 46.1366252,29.794279 46.1595972,30.007359 C46.193011,30.3081778 46.2702803,30.5964625 46.5,30.8095424 C46.3642565,31.0748479 46.1449787,31.1709428 45.7690737,31.1291624 C45.4474661,31.0936491 45.3012809,30.8366997 45.1425654,30.5922844 C45.1070633,30.6152636 45.0799146,30.6277978 45.0632077,30.6465989 C44.7416001,30.9891981 44.3281047,31.1061832 43.8791071,31.1312514 C43.5783831,31.1479636 43.2818359,31.1166283 42.9978188,31.0079993 C42.4611101,30.8032754 42.1436792,30.3729374 42.1311491,29.8005461 C42.1269723,29.5811991 42.1353258,29.3514069 42.1896232,29.140416 C42.3170132,28.6369623 42.6636811,28.3131643 43.1293856,28.1188855 C43.6640059,27.8953605 44.2236867,27.8159777 44.804251,27.8932714 C44.8710785,27.9037165 44.9379061,27.9058056 45.0193521,27.9120726 Z M45.0694728,29.1529501 C45.0652961,29.1529501 45.0611194,29.1529501 45.0548543,29.1508611 C45.0548543,29.0610333 45.0527659,28.9712054 45.0548543,28.8792886 C45.0569426,28.7873717 45.0130871,28.7351462 44.9253759,28.7184341 C44.4847318,28.6327843 44.0524411,28.6641196 43.6452107,28.8563094 C43.288101,29.0255199 43.1335623,29.3910983 43.2191851,29.7817449 C43.2734825,30.0240712 43.4175794,30.1723915 43.6493874,30.2392402 C43.8749304,30.3039998 44.1004734,30.2998217 44.3281047,30.2496853 C44.7081864,30.1703025 44.9399944,29.9405104 45.0151754,29.5603089 C45.0465008,29.4287007 45.0527659,29.2908254 45.0694728,29.1529501 Z M36.8601262,26.2136999 C36.9520141,26.2053438 37.0125766,26.1969877 37.073139,26.1969877 C37.3028587,26.1948987 37.5325784,26.1948987 37.7622981,26.1969877 C37.9669575,26.1969877 37.9690459,26.1990768 38.0484036,26.3975336 C38.4368387,27.3793727 38.8252738,28.3633008 39.2157973,29.3451399 C39.242946,29.4119885 39.2742714,29.4767481 39.3035084,29.5435967 C39.3202153,29.5435967 39.3369222,29.5435967 39.3536291,29.5415077 C39.3849545,29.468392 39.4204567,29.3973654 39.445517,29.3242497 C39.7838314,28.3737459 40.1221459,27.4253311 40.458372,26.4748273 C40.4792556,26.4163348 40.4917858,26.3515752 40.5251996,26.2993497 C40.5523482,26.2575693 40.6045573,26.2053438 40.6463245,26.2032548 C40.9783739,26.1948987 41.3083349,26.1990768 41.6633562,26.1990768 C41.6403843,26.2784595 41.6299425,26.330685 41.6111472,26.3808214 C40.9345183,28.1773781 40.255801,29.9718457 39.5833488,31.7684023 C39.4601355,32.0963783 39.2575645,32.3470607 38.9714591,32.5371614 C38.560052,32.810823 38.1006126,32.9319861 37.6161129,32.9674994 C37.5618155,32.9716774 37.5075181,32.9612324 37.4573974,32.9591433 C37.4072768,32.7982888 37.4010117,32.271856 37.449044,32.0420638 C37.5701689,32.0274407 37.7017357,32.0211737 37.8270373,31.9940164 C38.0108131,31.9564141 38.1987655,31.9250788 38.3679228,31.8540521 C38.6623817,31.7308 38.7751531,31.4926518 38.7312976,31.1772098 C38.6728235,30.759406 38.5308149,30.3687594 38.3741879,29.9822908 C37.906395,28.820796 37.4386022,27.6613903 36.9708094,26.4998955 C36.9332189,26.4184238 36.9039818,26.332774 36.8601262,26.2136999 Z M37.5492853,22.0607295 C37.1733804,22.0607295 36.8350659,22.0607295 36.4758678,22.0607295 C36.4633377,21.9458334 36.4528959,21.8392934 36.4403657,21.7285754 C36.3443011,21.7035072 36.2941804,21.7703558 36.2315296,21.8058691 C35.678114,22.117133 35.0912846,22.2403851 34.4647763,22.1108659 C33.8570633,21.9855248 33.4748933,21.5948782 33.3642101,20.9765284 C33.3307964,20.7864277 33.3140895,20.5900599 33.3140895,20.3957811 C33.3099128,19.4285651 33.3120011,18.4613492 33.3120011,17.4941332 C33.3120011,17.4586199 33.3140895,17.4251956 33.3120011,17.3896822 C33.3078244,17.2873203 33.3537683,17.2330058 33.4602747,17.2330058 C33.7171431,17.2330058 33.9740115,17.2330058 34.2329683,17.2330058 C34.3373863,17.2330058 34.3854186,17.2831422 34.3833302,17.3875932 C34.3812419,17.4439967 34.3833302,17.4983112 34.3833302,17.5547148 C34.3833302,18.4383699 34.3812419,19.3220251 34.3854186,20.2056803 C34.387507,20.3707128 34.4083906,20.5399234 34.4459811,20.7007779 C34.5232504,21.0183088 34.7404399,21.2042315 35.0578708,21.25019 C35.5361054,21.3170386 35.9516893,21.1728962 36.2941804,20.8323861 C36.4069519,20.7195791 36.4591609,20.5879708 36.4591609,20.4208493 C36.4528959,19.4682565 36.4570726,18.5135746 36.4570726,17.5609818 C36.4570726,17.5045783 36.4549842,17.4502638 36.4591609,17.3938603 C36.4675144,17.260163 36.4842213,17.2392728 36.6241415,17.2371838 C36.8747448,17.2330058 37.1253481,17.2330058 37.3759514,17.2371838 C37.5284017,17.2392728 37.5430202,17.258074 37.5513737,17.4043054 C37.553462,17.4460858 37.5513737,17.4878661 37.5513737,17.5296465 C37.5513737,18.9480907 37.5513737,20.3686238 37.5513737,21.7870679 C37.5492853,21.8685397 37.5492853,21.9500114 37.5492853,22.0607295 Z M22.8910804,22.0711746 C22.8722851,21.9270322 22.8576666,21.8204922 22.8409597,21.682617 C22.7532486,21.7327534 22.6947745,21.7661777 22.6363004,21.799602 C22.0912382,22.1108659 21.5127622,22.2382961 20.8904307,22.117133 C20.2409504,21.9897028 19.8462502,21.580255 19.7460089,20.926392 C19.7167719,20.7425583 19.7021533,20.5524575 19.7021533,20.3665348 C19.6979766,19.4118529 19.700065,18.4592601 19.700065,17.5045783 C19.700065,17.4565309 19.700065,17.4063944 19.7021533,17.3583469 C19.7042417,17.2831422 19.7397438,17.2371838 19.8149248,17.2371838 C20.0926768,17.2350948 20.3725172,17.2350948 20.6502692,17.2371838 C20.7233618,17.2371838 20.765129,17.2831422 20.7672174,17.3562579 C20.7713941,17.4189285 20.7713941,17.4815991 20.7713941,17.5442697 C20.7713941,18.3234739 20.7693057,19.1026781 20.7734825,19.8839713 C20.7734825,20.0928733 20.7839243,20.3017752 20.7985428,20.5085881 C20.8361333,20.9723504 21.1431223,21.2481009 21.6109152,21.2606351 C21.9993503,21.2710802 22.333488,21.145739 22.6237702,20.8908786 C22.7887507,20.7467363 22.8743735,20.5733477 22.8701968,20.3435556 C22.8618433,19.4243871 22.86602,18.5052186 22.86602,17.58605 C22.86602,17.5296465 22.8639317,17.475332 22.86602,17.4189285 C22.8722851,17.255985 22.8869037,17.2350948 23.0456191,17.2330058 C23.2816039,17.2288277 23.519677,17.2288277 23.7556618,17.2330058 C23.9143772,17.2350948 23.9331725,17.255985 23.9352608,17.4189285 C23.9394375,17.7803288 23.9373492,18.1438182 23.9373492,18.5052186 C23.9373492,19.5915086 23.9373492,20.6777987 23.9373492,21.7640887 C23.9373492,21.8267593 23.9352608,21.8894299 23.9352608,21.9521005 C23.9331725,22.0273052 23.895582,22.0690855 23.820401,22.0690855 C23.5175886,22.0732636 23.212688,22.0711746 22.8910804,22.0711746 Z M39.9300167,22.0481953 C39.8443939,22.0565514 39.7900965,22.0669965 39.7378875,22.0690855 C39.5144329,22.0711746 39.2930666,22.0711746 39.069612,22.0690855 C38.8712177,22.0669965 38.8628643,22.0565514 38.8586876,21.8518275 C38.8586876,21.8309373 38.8586876,21.8100471 38.8586876,21.7891569 C38.8586876,20.3707128 38.8586876,18.9501797 38.8586876,17.5317355 C38.8586876,17.2350948 38.8607759,17.255985 39.1614999,17.2288277 C39.4831075,17.1995815 39.7190923,17.2622521 39.8088918,17.6069402 C39.8109801,17.6173853 39.827687,17.6257414 39.8485706,17.6487206 C39.8840728,17.6278304 39.9279283,17.6111183 39.9613421,17.579783 C40.3581307,17.1995815 40.8530722,17.1181097 41.3730741,17.1369109 C41.5443197,17.1431779 41.719742,17.1766023 41.8847225,17.2246497 C42.552998,17.4189285 43.0040839,17.9954978 43.0646464,18.7141205 C43.0771765,18.872886 43.0792649,19.0337404 43.0792649,19.1945949 C43.0813533,20.0427368 43.0792649,20.8929677 43.0792649,21.7411095 C43.0792649,21.8100471 43.0792649,21.8810738 43.0750882,21.9500114 C43.0709115,22.0252161 43.0312326,22.0649075 42.9560516,22.0669965 C42.6511509,22.0669965 42.3462502,22.0669965 42.0225543,22.0669965 C42.0162892,21.9646346 42.0079358,21.8831628 42.0079358,21.8037801 C42.0058474,20.9681724 42.0100241,20.1346536 42.0058474,19.2990459 C42.0058474,19.1465475 41.9912289,18.9940491 41.9661686,18.8436397 C41.8659272,18.2211119 41.471227,18.0289221 40.9366066,18.0331002 C40.6212642,18.0351892 40.3456005,18.1751535 40.1033507,18.3736103 C39.9843141,18.4717942 39.9279283,18.5866903 39.9300167,18.7517228 C39.9362818,19.7607192 39.9341934,20.7697155 39.9341934,21.7787119 C39.9300167,21.8601836 39.9300167,21.9416554 39.9300167,22.0481953 Z M16.795155,17.6424536 C16.9768424,17.5192014 17.1209393,17.3959493 17.2838314,17.3186556 C17.4509003,17.2413619 17.6367644,17.1870474 17.8184518,17.1619791 C18.0022276,17.1348219 18.1922684,17.147356 18.3781325,17.1557121 C18.5639967,17.1640681 18.7519491,17.1828693 18.9294598,17.3123885 C18.7853629,17.6069402 18.641266,17.8973139 18.4992575,18.1876876 C18.3217468,18.1375512 18.1588547,18.0853257 17.9917858,18.0477233 C17.6973269,17.9829637 17.4425469,18.0790586 17.223269,18.2754264 C16.9329868,18.5344648 16.7847132,18.8603518 16.7847132,19.2530875 C16.7847132,20.1033183 16.7847132,20.9514602 16.7826248,21.8016911 C16.7826248,21.8831628 16.772183,21.9625456 16.765918,22.0565514 C16.4088082,22.0565514 16.0704938,22.0565514 15.7112957,22.0565514 C15.7050306,21.9917918 15.6925005,21.9312103 15.6925005,21.8727177 C15.6904121,20.3978701 15.6904121,18.9209334 15.6925005,17.4460858 C15.6925005,17.251807 15.7029423,17.2392728 15.8888064,17.2371838 C16.1247912,17.2330058 16.3628643,17.2330058 16.5988491,17.2371838 C16.7638296,17.2392728 16.7763598,17.255985 16.7847132,17.4168395 C16.7888899,17.4815991 16.7909783,17.5463587 16.795155,17.6424536 Z M25.3094023,26.2095219 C25.3094023,26.3056168 25.3094023,26.3745544 25.3094023,26.443492 C25.3094023,27.8995385 25.3094023,29.353496 25.3094023,30.8095424 C25.3094023,30.8513228 25.3094023,30.8931032 25.3094023,30.9348836 C25.3094023,31.0121773 25.2718118,31.0518687 25.1945424,31.0518687 C24.8812883,31.0518687 24.5701225,31.0518687 24.2338964,31.0518687 C24.225543,30.9578628 24.2151012,30.8784801 24.2151012,30.7970083 C24.2130128,29.6626708 24.2151012,28.5283333 24.2151012,27.3919068 C24.2151012,27.0827319 24.2151012,27.0827319 23.9060238,27.0827319 C23.8099592,27.0827319 23.7159829,27.0827319 23.5906813,27.0827319 C23.5906813,26.8048924 23.5885929,26.5562991 23.5906813,26.3097948 C23.5906813,26.2157889 23.6595972,26.1990768 23.7347782,26.1990768 C23.8809634,26.1990768 24.0271487,26.1990768 24.173334,26.1990768 C24.4719696,26.1990768 24.7726935,26.1990768 25.0713291,26.1990768 C25.1381567,26.1969877 25.2049842,26.2032548 25.3094023,26.2095219 Z M25.3971134,24.933131 C25.3971134,25.2882643 25.1151847,25.57446 24.7664284,25.5723823 C24.4218489,25.5702819 24.1253017,25.2694632 24.1315667,24.926864 C24.1378318,24.5842648 24.4176722,24.3085143 24.7622517,24.3064252 C25.1318916,24.3064252 25.3971134,24.5675527 25.3971134,24.933131 Z" id="Combined-Shape" fill="#000000" fill-rule="nonzero"></path>
        </g>
    </g>
</svg>