<?xml version="1.0" encoding="UTF-8"?>
<svg width="48px" height="48px" viewBox="0 0 48 48" version="1.1" xmlns="http://www.w3.org/2000/svg" xmlns:xlink="http://www.w3.org/1999/xlink">
    <title>jo-cbj</title>
    <g id="Page-1" stroke="none" stroke-width="1" fill="none" fill-rule="evenodd">
        <g id="jo-cbj">
            <rect id="Rectangle" fill-rule="nonzero" x="0" y="0" width="48" height="48" rx="8"></rect>
            <path d="M24,1.5 C36.4264069,1.5 46.5,11.5735931 46.5,24 C46.5,36.4264069 36.4264069,46.5 24,46.5 C11.5735931,46.5 1.5,36.4264069 1.5,24 C1.5,11.5735931 11.5735931,1.5 24,1.5 Z M24.1125,2.55 C12.2038601,2.55 2.55,12.2038601 2.55,24.1125 C2.55,36.0211399 12.2038601,45.675 24.1125,45.675 C36.0211399,45.675 45.675,36.0211399 45.675,24.1125 C45.675,12.2038601 36.0211399,2.55 24.1125,2.55 Z M22.3495766,40.573515 L22.4239619,40.578546 C22.7202064,40.6210281 22.9600234,41.003367 23.4960849,42.2495086 L23.7641157,42.8867401 L23.7641157,41.7822055 C23.7782226,40.7909565 23.8064363,40.6918316 24.0603602,40.6918316 C24.3001772,40.6918316 24.3424979,40.7909565 24.3424979,41.3573845 C24.3424979,41.7397234 24.3001772,42.4760798 24.2437497,43.0000257 C24.1732153,43.8638284 24.1308946,43.9629533 23.8628639,43.9204712 C23.6512606,43.8921498 23.4537643,43.5806144 23.0728785,42.6884903 L22.5791376,41.5131522 L22.5368169,42.6601689 C22.4944963,43.6939 22.4662825,43.8071856 22.2264655,43.8071856 C21.9725416,43.8071856 21.9443279,43.7080607 21.9443279,42.6176868 C21.9443279,41.9662946 21.9866485,41.2299382 22.0289691,40.9892063 C22.0995036,40.6351888 22.1841449,40.5502246 22.4239619,40.578546 Z M26.3456752,40.578546 C26.486744,40.4086176 27.0228056,40.3378141 27.0228056,40.4794211 C27.0228056,40.5219032 26.8958436,40.8051172 26.7406679,41.1166526 C26.373889,41.8388483 26.373889,41.8813304 26.9522711,42.6743296 C27.5165464,43.4390074 27.5588671,43.6655786 27.1779813,43.6655786 C27.0086987,43.6655786 26.7124541,43.410686 26.4444234,43.0283471 C25.9224687,42.3061514 25.7108655,42.3911156 25.8519343,43.269079 C25.9224687,43.7363821 25.894255,43.8071856 25.6403311,43.8071856 C25.3299797,43.8071856 25.287659,43.6939 25.047842,42.0654195 C24.8785594,40.8759207 24.9208801,40.5502246 25.2453384,40.5502246 C25.4569416,40.5502246 25.5415829,40.7626351 25.654438,41.5414736 C25.6967586,41.8671697 25.7249724,41.853009 25.9506825,41.3290631 C26.0917513,41.0175277 26.2751408,40.6776709 26.3456752,40.578546 Z M19.2640202,41.6830806 C19.9270437,40.3519748 20.0116849,40.2528499 20.364357,40.295332 C20.7029222,40.3378141 20.7593497,40.4227783 20.843991,40.9750456 C20.8863117,41.3290631 20.9427392,42.0795802 20.9427392,42.6460082 C20.9568461,43.5664537 20.9286323,43.6797393 20.7170291,43.6372572 C20.5618534,43.6089358 20.4348914,43.4248467 20.3925708,43.1699541 C20.3361432,42.8725794 20.2091813,42.7168117 19.9129368,42.6035261 C19.6166922,42.5044012 19.4897303,42.5044012 19.4474096,42.6176868 C19.3204477,43.0141864 19.0100963,43.2832397 18.7843862,43.1982755 C18.5868898,43.1133113 18.6433173,42.9150615 19.2640202,41.6830806 Z M29.8582889,39.5589757 C31.2125497,39.5589757 31.9178938,41.8388483 30.7893432,42.5468833 C30.1827472,42.9150615 29.8018614,42.8867401 29.2940136,42.4477584 C28.5040282,41.7822055 28.3629594,40.2528499 29.0400898,39.7713862 C29.2093723,39.6581006 29.5761513,39.5589757 29.8582889,39.5589757 Z M17.0492396,39.3182438 C17.1479878,39.1766368 17.2890566,39.1907975 17.6840493,39.3607259 C18.7279586,39.7997076 18.9677756,40.3236534 18.3611797,40.8759207 C18.1072558,41.1166526 18.0508283,41.2582596 18.1495765,41.4423487 C18.2483246,41.6122771 18.2342177,41.8105269 18.1072558,42.0795802 C17.9520801,42.3911156 17.8110113,42.4760798 17.3313773,42.5044012 C16.9928121,42.5327226 16.5554987,42.4477584 16.3156817,42.3203121 L15.8783684,42.1079016 L16.1463991,41.428188 C16.3015748,41.0600098 16.527285,40.4794211 16.6683538,40.1254036 C16.7953157,39.7713862 16.9645983,39.4173687 17.0492396,39.3182438 Z M30.3238161,40.3944569 C29.7736476,39.7855469 29.0259829,40.2670106 29.2093723,41.1166526 C29.4068687,42.0229374 30.1404266,42.5185619 30.5495262,42.0370981 C30.7893432,41.7538841 30.6482744,40.7484744 30.3238161,40.3944569 Z M20.3925708,41.5414736 C20.3925708,40.8475993 20.2515019,40.8334386 19.9552574,41.4706701 L19.9054001,41.576767 C19.7091787,42.0102217 19.7718679,42.1079016 20.1386469,42.1079016 C20.3361432,42.1079016 20.3925708,41.994616 20.3925708,41.5414736 Z M17.3454841,41.2016168 C16.9787052,41.0600098 16.8940639,41.1024919 16.8094226,41.4848308 C16.6824607,41.9521339 16.879957,42.1645444 17.2749497,42.0370981 C17.6276218,41.9238125 17.6840493,41.3290631 17.3454841,41.2016168 Z M31.7203974,38.5110839 C32.3975278,38.1004236 32.4680622,38.0862629 32.609131,38.3128341 C32.6655586,38.3977983 32.5244897,38.6243695 32.256459,38.83678 L32.1620294,38.9161225 C31.8442245,39.187454 31.8356036,39.2545206 32.016642,39.4881722 C32.2141383,39.7572255 32.2282452,39.7572255 32.6514517,39.5164936 C33.0464444,39.2899224 33.0746582,39.2757617 33.2016201,39.5164936 C33.3144752,39.7147434 33.2580476,39.8138683 32.9335893,40.0121181 L32.5244897,40.2670106 L32.8207343,40.8475993 C33.0605513,41.3290631 33.0746582,41.4565094 32.9194825,41.5556343 C32.8207343,41.6264378 32.7078792,41.6830806 32.6655586,41.6830806 C32.5527035,41.6830806 31.1138015,39.1907975 31.1138015,39.0067084 C31.1138015,38.9359049 31.3818323,38.7093337 31.7203974,38.5110839 Z M14.6087489,37.5764777 C14.6651765,37.5764777 14.7780315,37.6614419 14.8626728,37.7605668 C14.9896348,37.9021738 14.8485659,38.1995485 14.3266113,39.0067084 L13.6212672,40.0546002 L14.0726874,40.4227783 C14.4535732,40.7484744 14.4958939,40.8334386 14.3407182,41.0175277 C14.1855425,41.2157775 14.0867943,41.1874561 13.4660915,40.7343137 L12.7607473,40.2386892 L13.0005643,39.8563504 C13.1416332,39.6581006 13.5366259,39.0633512 13.875191,38.5252446 C14.2278631,38.0012987 14.5523214,37.5764777 14.6087489,37.5764777 Z M17.7686906,39.9271539 C17.4724461,39.8138683 17.5006599,39.7997076 17.3172704,40.1820464 C17.1903084,40.4794211 17.2044153,40.5502246 17.4301254,40.6210281 C17.5853012,40.6776709 17.7686906,40.6635102 17.8533319,40.6210281 C18.079042,40.4794211 18.0226145,40.0262788 17.7686906,39.9271539 Z M34.4289189,36.4436217 C34.4571326,36.4436217 34.8239116,36.8826034 35.261225,37.42071 C36.220493,38.5960481 36.3615618,39.0775119 35.853714,39.544815 C35.6703245,39.7289041 35.4446144,39.828029 35.3599731,39.7713862 C35.1624768,39.6581006 35.1624768,39.2757617 35.3458662,39.2757617 C35.6562177,39.2757617 35.4587213,38.6243695 34.9508735,38.0154594 C33.9916055,36.8401213 34.0198193,36.8967641 34.2173156,36.6560322 C34.3160638,36.5427466 34.414812,36.4436217 34.4289189,36.4436217 Z M11.6463036,37.0383711 C12.8877093,36.2312112 13.0005643,36.1887291 13.2262745,36.4011396 C13.5648396,36.712675 13.5507328,36.8967641 13.0710987,37.7605668 L12.9698006,37.9473394 C12.7593079,38.3397105 12.5088387,38.8286881 12.3516477,39.119994 C12.0695101,39.686422 12.0271894,39.7147434 11.8155862,39.5164936 C11.6321967,39.3182438 11.6180898,39.2191189 11.7732656,38.9075835 C11.9143344,38.5677267 11.9002275,38.4827625 11.6604105,38.2420306 C11.3923797,37.9729773 11.364166,37.9729773 10.997387,38.1995485 C10.6588218,38.4261197 10.6023943,38.4402804 10.4048979,38.2278699 C10.3761804,38.1990427 10.3492441,38.1746047 10.3260326,38.1526747 L10.2851514,38.1116015 C10.1518917,37.9626999 10.313707,37.8875074 11.6463036,37.0383711 Z M12.5491441,37.4631921 C12.8171749,36.9250855 12.7184267,36.8967641 12.1682583,37.3499065 C11.8155862,37.6331205 11.8014793,37.6897633 11.9989757,37.8596917 C12.2528996,38.0721022 12.2387927,38.0721022 12.5491441,37.4631921 Z M36.6436994,34.7443378 C37.1374403,34.7443378 37.3067229,34.8434627 37.8286776,35.3674085 C38.3224185,35.863033 38.4493804,36.0754435 38.4493804,36.4719431 C38.4493804,37.9446559 36.700127,38.270352 35.7126452,36.9817283 C35.2330112,36.3444968 35.2330112,35.7497474 35.7126452,35.1833194 C36.0088897,34.829302 36.1781723,34.7443378 36.6436994,34.7443378 Z M23.8264775,12.6900463 C30.7338647,12.6900463 36.3334084,18.28959 36.3334084,25.1969772 C36.3334084,32.1043644 30.7338647,37.703908 23.8264775,37.703908 C16.9190903,37.703908 11.3195467,32.1043644 11.3195467,25.1969772 C11.3195467,18.28959 16.9190903,12.6900463 23.8264775,12.6900463 Z M10.8986388,33.9088565 C11.124349,33.8946958 11.7873724,34.8717841 11.7873724,35.2116408 C11.7873724,35.6789439 11.5052348,36.00464 11.0397077,36.0896042 C10.7011425,36.1604077 10.4895392,36.3444968 10.1791878,36.8117999 C9.85472953,37.3215851 9.74187447,37.4065493 9.58669876,37.279103 C9.31866799,37.0666925 9.33277488,36.9109248 9.67134006,36.4861038 C9.96758459,36.0896042 10.0522259,35.5939797 9.798302,35.5939797 C9.7136607,35.5939797 9.44562994,35.7639081 9.17759917,35.9621579 C8.71207205,36.3161754 8.69796516,36.3161754 8.55689634,36.0329614 C8.41582751,35.7922295 8.54278946,35.6506225 9.57259188,34.829302 L9.70781026,34.721693 C10.2895238,34.2629462 10.8069441,33.9088565 10.8986388,33.9088565 Z M37.1092266,35.5939797 C36.5590581,35.2541229 36.2910274,35.2399622 36.0512104,35.5231762 C35.6562177,36.00464 36.46031,37.1516567 37.1938679,37.1516567 C38.0684946,37.1516567 38.012067,36.1604077 37.1092266,35.5939797 Z M23.8977421,14.4716604 C18.0136715,14.4716604 13.2436899,19.241642 13.2436899,25.1257126 C13.2436899,31.0097832 18.0136715,35.7797648 23.8977421,35.7797648 C29.7818127,35.7797648 34.5517943,31.0097832 34.5517943,25.1257126 C34.5517943,19.241642 29.7818127,14.4716604 23.8977421,14.4716604 Z M11.0679214,34.8151413 C10.8986388,34.6452129 10.8139975,34.6593736 10.517753,34.8859448 C10.1932947,35.1408373 10.1791878,35.1691587 10.4048979,35.3957299 C10.6588218,35.6647832 11.0397077,35.579819 11.1807765,35.2258015 C11.2230971,35.1125159 11.1666696,34.9142662 11.0679214,34.8151413 Z M38.1108152,32.4786258 C38.5058079,32.4786258 38.6468768,32.56359 38.8443731,32.9034468 C38.9713351,33.130018 39.1688314,33.3282678 39.2816865,33.3282678 C39.4368622,33.3282678 40.3255958,33.5831604 40.537199,33.696446 C40.5513059,33.7106067 40.537199,33.8238923 40.4807715,33.9513386 C40.3820233,34.2203919 40.0152444,34.2487133 39.5073966,34.0079814 C39.2111521,33.8805351 39.098297,33.8805351 38.9149075,34.0646242 C38.7174112,34.2770347 38.7456249,34.3336775 39.2957934,34.6735343 C39.8318549,35.013391 39.8741755,35.0700338 39.6766792,35.2682836 C39.4368622,35.5090155 39.3663278,35.4806941 37.8709982,34.5036059 C37.3349367,34.1637491 36.8976233,33.8097316 36.8976233,33.7106067 C36.8976233,33.6114818 37.052799,33.2999464 37.2502954,33.0025717 C37.5606468,32.56359 37.6876087,32.4786258 38.1108152,32.4786258 Z M9.62901941,31.6289838 C9.64312629,31.6289838 9.89705018,32.0538048 10.1791878,32.56359 C10.6023943,33.3141071 10.6588218,33.5265176 10.5036461,33.6256425 C10.2074016,33.8097316 10.1227603,33.7814102 10.0240121,33.4698748 L9.99965162,33.39481 C9.95426142,33.2751652 9.88764559,33.1866608 9.84062265,33.1866608 C9.78419512,33.1866608 9.26224046,33.4698748 8.65564452,33.8097316 C7.87976598,34.2487133 7.5412008,34.3903203 7.42834574,34.2770347 C7.16031497,34.0079814 7.24495626,33.9230172 8.40172063,33.2574643 C9.4738437,32.6202328 9.51616435,32.5919114 9.36098864,32.2520546 C9.21991982,31.9688406 9.2340267,31.8697157 9.40330929,31.7564301 C9.51616435,31.6856266 9.61491253,31.6289838 9.62901941,31.6289838 Z M38.4352735,33.2433036 C38.2236703,32.988411 37.9697464,32.988411 37.7440363,33.2574643 C37.5606468,33.4840355 37.6452881,33.6822853 38.0261739,33.8946958 C38.378846,34.0929456 38.7033043,33.5689997 38.4352735,33.2433036 Z M38.9572282,30.0854675 C39.4368622,29.7172894 39.8600687,29.7031287 40.5795197,30.0854675 C41.4118257,30.5102885 41.6375359,31.1191986 41.3412913,32.138769 C41.2284363,32.56359 41.0591537,32.9034468 40.9886193,32.9034468 C40.9180848,32.9034468 40.2550614,32.6343935 39.5215035,32.3228581 C38.0543877,31.6856266 37.9697464,31.572341 38.378846,30.7793418 C38.491701,30.5669313 38.7597318,30.2412352 38.9572282,30.0854675 Z M8.04904857,29.3632719 C8.50046881,29.1650221 8.6697514,29.2075042 8.82492711,29.5048789 C8.96599593,29.7597715 8.86724775,29.9155391 8.16190363,30.6660562 C7.71048339,31.14752 7.44245262,31.5015375 7.55530768,31.4590554 C7.66816274,31.4165733 8.1054761,31.2749663 8.51457569,31.1191986 C9.16349229,30.8926274 9.27634735,30.8926274 9.38920241,31.0625558 C9.558485,31.3457698 9.53027123,31.3599305 7.92208662,31.9688406 C6.82174979,32.3795009 6.49729149,32.4503044 6.41265019,32.3086974 C6.20104696,31.9830013 6.27158137,31.8697157 7.16031497,30.9634309 C7.63994897,30.4678064 7.97851415,30.0713068 7.89387286,30.0713068 C7.80923156,30.0713068 7.34370444,30.2270745 6.86407044,30.4253243 C6.38443643,30.6235741 5.93301619,30.7510204 5.86248178,30.7085383 C5.5239166,30.4961278 5.80605425,30.2270745 6.75121538,29.873057 C7.30138379,29.6606466 7.89387286,29.4340754 8.04904857,29.3632719 Z M40.5795197,30.9067881 C39.9729237,30.297878 39.2393658,30.3403601 38.8866938,31.0200737 C38.7456249,31.3032877 38.7738387,31.3599305 39.1829383,31.5298589 C40.4666646,32.0679655 40.7205885,32.1246083 40.8475504,31.9121978 C41.0732605,31.5581803 41.0027261,31.3457698 40.5795197,30.9067881 Z M41.6657496,27.4090953 C42.582697,27.3807739 42.695552,27.4090953 42.6532314,27.6215058 C42.6250176,27.7631128 42.4134144,27.9330412 42.1877043,28.0180054 C41.4682533,28.2587373 41.2989707,28.8534867 41.9055666,29.0800579 C42.2582387,29.2216649 42.4134144,29.7880929 42.103063,29.7880929 C42.0043148,29.7880929 41.3130776,29.4623968 40.5654128,29.0517365 C39.2675796,28.3720229 39.1970452,28.3012194 39.2816865,27.9613626 C39.3663278,27.6498272 39.4932897,27.5790237 40.0152444,27.5082202 C40.3538095,27.4657381 41.1014743,27.4090953 41.6657496,27.4090953 Z M6.61014655,27.281649 C7.40013197,27.1258813 8.09136921,27.0267564 8.13368986,27.0550778 C8.33118622,27.1542027 8.5851101,28.5277906 8.4299344,28.6835583 C8.21833116,28.8959688 8.0208348,28.7118797 7.90797974,28.2304159 C7.79512468,27.7347914 7.66816274,27.6215058 7.34370444,27.7489521 C7.14620809,27.8339163 7.11799432,27.9613626 7.18852873,28.3861836 C7.25906315,28.8676474 7.24495626,28.9384509 7.00513926,28.9384509 C6.79353602,28.9384509 6.69478785,28.8110046 6.62425343,28.4428264 C6.53961214,27.989684 6.49729149,27.9613626 6.15872631,28.0321661 C5.96122995,28.0888089 5.77784048,28.131291 5.7637336,28.1454517 C5.74962672,28.1596124 5.79194736,28.4003443 5.84837489,28.6835583 C5.97533684,29.2358256 5.93301619,29.3632719 5.63677166,29.3632719 C5.4392753,29.3632719 5.15713765,28.5277906 5.15713765,27.9330412 C5.15713765,27.5790237 5.21356518,27.5507023 6.61014655,27.281649 Z M40.537199,28.0888089 L39.9306031,28.1029696 L40.424344,28.3720229 C41.0591537,28.7118797 41.1296881,28.7118797 41.1296881,28.3720229 C41.1296881,28.131291 41.0309399,28.0888089 40.537199,28.0888089 Z M5.90480242,24.5061519 C7.17442185,24.2512593 8.11958298,24.9026514 8.11958298,25.9930253 C8.11958298,26.432007 8.06315545,26.5311319 7.83744533,26.5311319 C7.61173521,26.5311319 7.55530768,26.432007 7.55530768,26.0779895 C7.55530768,25.4690794 7.20263562,25.1150619 6.58193279,25.1150619 C5.80605425,25.1150619 5.4392753,25.440758 5.4392753,26.1204716 C5.4392753,26.573614 5.39695465,26.6727389 5.15713765,26.6727389 C4.91732065,26.6727389 4.875,26.573614 4.875,25.9788646 C4.875,25.4265973 4.94553441,25.2283475 5.24177895,24.9309728 C5.4392753,24.732723 5.73551983,24.5344733 5.90480242,24.5061519 Z M40.3636891,23.9759816 C40.5830664,23.9793685 40.8769909,23.9920569 41.2707569,24.0105274 C42.1312767,24.0530095 42.8648346,24.123813 42.9071553,24.1662951 C42.9494759,24.2087772 42.9494759,24.3645449 42.9071553,24.5203126 C42.8366209,24.7044017 42.4275213,24.9734549 41.6939634,25.2849903 L40.5795197,25.7522934 L41.6657496,25.8230969 C42.5544832,25.8797397 42.7519796,25.9363825 42.7943002,26.1346323 C42.8366209,26.3612035 42.695552,26.3895249 41.4541464,26.3895249 L41.2583347,26.3887032 C39.8703621,26.3765153 39.5300903,26.2257533 39.7189998,25.7381327 C39.7895342,25.5540436 40.1422063,25.3274724 40.6923747,25.1150619 C41.1720087,24.9451335 41.5952152,24.732723 41.6375359,24.6760803 C41.6798565,24.6052768 41.25665,24.548634 40.7205885,24.548634 C39.7895342,24.548634 39.7189998,24.5203126 39.7189998,24.2512593 C39.7189998,24.0573192 39.7370001,23.9838389 40.1682241,23.9758257 Z M41.2284363,18.7993899 C42.2723456,18.4312117 42.2300249,18.558658 40.9462986,19.7198353 C39.9306031,20.6402808 39.5215035,20.866852 38.9149075,20.866852 L38.5481286,20.866852 L38.8725869,20.5128345 C39.4650759,19.8897637 40.6782678,18.9976397 41.2284363,18.7993899 Z M6.51139837,15.6132324 C6.6524672,15.3866612 7.83744533,15.584911 8.30297245,15.9247678 C8.51457569,16.0805355 8.75439269,16.1654997 8.82492711,16.1230176 C8.89546152,16.0805355 9.17759917,16.1371783 9.45973682,16.2504639 C10.0663328,16.5053565 10.5036461,17.3549985 10.6165012,18.5161759 C10.75757,19.8897637 10.1509741,20.866852 9.17759917,20.866852 C8.81082022,20.866852 8.5851101,20.725245 8.06315545,20.1871384 C7.16031497,19.2525323 7.18852873,19.0967646 8.14779674,19.7623174 C8.3452931,19.9039244 8.65564452,20.01721 8.81082022,20.01721 C9.26224046,20.01721 9.67134006,19.2383716 9.67134006,18.3604082 C9.67134006,17.567409 9.53027123,17.3408378 9.24813358,17.6806946 C8.83903399,18.1763191 8.30297245,17.8364623 8.16190363,16.9868203 C8.09136921,16.5053565 7.99262104,16.4203923 7.59762833,16.4628744 C7.38602509,16.4911958 6.62425343,16.1088569 6.49729149,15.9106071 C6.45497084,15.8398036 6.45497084,15.6981966 6.51139837,15.6132324 Z M36.0653173,18.5869794 C36.2345998,18.2612833 36.3756687,18.2471226 36.6154857,18.5444973 C36.7706614,18.7144257 36.7565545,18.7993899 36.573165,18.983479 C36.2628136,19.3091751 35.8396071,18.983479 36.0653173,18.5869794 Z M32.3128865,11.7332007 C32.8912687,11.4783081 32.9335893,11.577433 32.4539553,12.0872182 C32.0730695,12.4837178 32.0730695,12.5120392 32.2987796,12.851896 C32.5668104,13.2625563 33.088765,13.5740917 33.7941092,13.7156987 C34.0621399,13.7581808 34.4007051,13.843145 34.5417739,13.8856271 C34.7392703,13.9281092 35.1060492,13.6448952 35.8960347,12.8094139 C36.8411958,11.8181649 37.4618986,11.3933439 37.4618986,11.7615221 C37.4618986,11.8323256 37.0810128,12.3845929 36.6154857,13.0076637 C36.1640654,13.6307345 35.6421108,14.3812516 35.4869351,14.6786262 L35.1765837,15.2167328 L35.7549658,15.4574647 C36.1076379,15.6132324 36.333348,15.7973215 36.3615618,15.9814106 C36.3897756,16.1371783 36.6295926,16.3920709 36.9258371,16.5478386 C37.2079747,16.7036063 37.4760055,16.9301775 37.5042193,17.0717845 C37.5747537,17.2983557 38.378846,17.8931051 38.6327699,17.8931051 C38.7033043,17.8931051 39.1124039,17.5390876 39.5638241,17.1142666 C40.1422063,16.5619993 40.4948784,16.3354281 40.7629091,16.3354281 L41.143795,16.3354281 L40.8616573,16.7460884 C40.6923747,16.9726596 40.2409545,17.425802 39.8459618,17.7656588 C39.2816865,18.2329619 38.9995488,18.3745689 38.4634873,18.4312117 C37.7017156,18.5020152 36.8411958,18.1763191 36.6154857,17.7373374 C36.5308444,17.5957304 36.1922792,17.284195 35.853714,17.0434631 C35.501042,16.8168919 35.1906905,16.4911958 35.134263,16.3495888 C35.0919424,16.1938211 34.8380185,15.9955713 34.5699877,15.9106071 C34.0057124,15.726518 33.9069642,15.5282682 34.174995,15.1034472 C34.4007051,14.7635904 34.3583845,14.7069476 33.5825059,14.5653406 C33.2721545,14.5086978 32.6796654,14.3104481 32.2705659,14.1121983 C30.817557,13.4324847 30.8457707,12.4129143 32.3128865,11.7332007 Z M5.32642024,16.9301775 C5.55213036,16.7036063 5.65087854,16.717767 5.84837489,16.9584989 C5.97533684,17.1142666 5.98944372,17.2417129 5.86248178,17.4541234 C5.73551983,17.709016 5.6790923,17.7231767 5.4392753,17.567409 C5.114817,17.3691592 5.08660324,17.1709094 5.32642024,16.9301775 Z M10.0240121,13.5032882 C10.0945465,13.3900026 10.3202567,13.3616812 10.644715,13.4041633 C11.2795247,13.5174489 11.8720137,14.1830018 11.9989757,14.9335188 C12.1118307,15.6273931 11.956655,16.6186421 11.7309449,16.6186421 C11.3782728,16.6186421 11.2230971,16.2504639 11.2230971,15.4149826 C11.2230971,14.5370192 11.0679214,14.2113232 10.6588218,14.2113232 C10.3484704,14.2113232 9.89705018,13.701538 10.0240121,13.5032882 Z M13.15574,12.8943781 C13.2262745,11.7473614 13.2685951,11.5491116 13.4237708,11.6765579 C13.8046566,11.9880933 14.0726874,13.2625563 13.9034048,13.9705913 C13.5648396,15.4999468 12.7748542,16.3212674 12.9723506,14.9476795 C13.0133888,14.6799136 13.0618885,14.1200393 13.1069966,13.5404188 L13.1400222,13.1062566 Z M37.9415326,14.1405197 C38.0684946,13.8006629 38.6609836,13.9139485 38.6609836,14.2821267 C38.6609836,14.593662 38.2236703,14.7494297 37.9979602,14.5228585 C37.9133189,14.4378944 37.8851051,14.267966 37.9415326,14.1405197 Z M15.5962307,7.93813318 C15.5962307,7.66907988 15.6103376,7.66907988 15.9912234,7.90981178 C16.2028267,8.05141877 16.5554987,8.32047207 16.767102,8.53288257 C17.1479878,8.88690006 17.1762016,8.95770356 17.119774,9.89230974 C17.0633465,11.1101299 16.400323,12.5970034 15.680872,13.1492707 C14.8908866,13.7581808 14.8203522,13.5457703 15.4551619,12.3704322 C15.680872,11.9456112 15.8642615,11.4924688 15.8783684,11.3650225 C15.8783684,11.2234155 15.5539101,10.9260408 15.1730242,10.6711482 C14.4535732,10.2038451 14.1855425,9.87814904 14.1855425,9.46748875 C14.1855425,9.28339965 14.2560769,9.28339965 14.7357109,9.52413155 C15.0319554,9.67989924 15.4833757,9.97727394 15.7231927,10.1896844 C16.0899716,10.4870591 16.2028267,10.5295412 16.3721093,10.3879342 C16.7388882,10.0763988 16.6260331,9.41084595 16.0899716,8.78777516 C15.8219408,8.47623977 15.5962307,8.09390087 15.5962307,7.93813318 Z M34.8098047,10.3312914 C35.1483699,10.0905595 36.2063861,10.0055953 35.980676,10.2321665 C35.8960347,10.30297 35.6844314,10.3879342 35.4869351,10.4162556 C35.0778355,10.4728984 35.0637286,10.727791 35.4869351,10.7844338 C35.8678209,10.8410766 35.853714,11.294219 35.4587213,11.5491116 C34.9508735,11.8748077 34.4289189,11.9597719 33.9492849,11.7898435 C33.3144752,11.5632723 33.4132233,11.3650225 34.1326743,11.4641474 C34.4712395,11.5207902 34.8521254,11.4924688 34.9931942,11.4216653 C35.2047974,11.294219 35.1906905,11.2658976 34.8662322,11.1809334 C34.4007051,11.0676478 34.3724914,10.6286661 34.8098047,10.3312914 Z M30.4930987,7.01768769 C30.7893432,6.29549201 30.9727327,6.6070274 30.9727327,7.83900828 C30.9727327,8.60368606 31.0291602,8.97186426 31.1561221,9.01434636 C31.410046,9.09931055 31.1279084,9.80734554 30.690595,10.1188809 C30.4930987,10.2746486 29.8018614,10.5012198 29.1388379,10.6428268 C28.40528,10.8127552 27.7281497,11.0676478 27.3754776,11.294219 C26.9099505,11.6199151 26.6983473,11.6765579 26.2187133,11.6199151 C24.9773076,11.4924688 24.9349869,10.8127552 26.1622857,10.8127552 C27.0369124,10.8127552 27.6999359,10.6003447 28.1372493,10.1896844 C28.3629594,9.99143464 28.7438452,9.82150624 29.1106242,9.77902414 C29.4350825,9.73654204 29.8018614,9.63741714 29.9006096,9.55245295 C30.0134647,9.45332805 30.1404266,8.95770356 30.1968541,8.43375767 C30.2532817,7.90981178 30.3802436,7.27258029 30.4930987,7.01768769 Z M22.2969999,6.13972431 C22.5791376,6.13972431 22.6637789,6.7344737 22.4380687,6.9893663 C22.1277173,7.32922309 22.1841449,7.55579428 22.5650307,7.55579428 C23.0587716,7.55579428 23.2562679,7.89565108 23.1716266,8.57536466 C23.0164509,9.69405994 21.5352283,11.2375762 20.5900671,11.2375762 C19.8424024,11.2375762 19.5461578,10.8410766 19.5461578,9.83566694 C19.5461578,9.36836385 19.6166922,8.94354286 19.6872266,8.90106076 C19.7718679,8.84441796 19.8282955,9.01434636 19.8282955,9.31172105 C19.8282955,9.67989924 19.9129368,9.87814904 20.1668607,10.0339167 C20.4631052,10.2321665 20.5618534,10.2321665 20.9850598,10.0622381 C21.2389837,9.94895254 21.6621902,9.63741714 21.9161141,9.36836385 L22.3816412,8.87273936 L22.0289691,8.71697166 C21.8314728,8.63200746 21.6339764,8.39127557 21.5775489,8.19302577 C21.4788007,7.81068688 21.7327246,6.6070274 21.9725416,6.32381341 C22.0571829,6.22468851 22.1982517,6.13972431 22.2969999,6.13972431 Z M28.0808217,4.02978005 C28.772059,3.66160186 28.8567003,3.66160186 28.8567003,4.00145865 C28.8567003,4.17138705 28.5886695,4.44044035 28.1513562,4.72365434 C26.9945918,5.46001073 26.8817367,5.70074262 26.966378,6.9610449 C27.0651262,8.34879347 26.8817367,8.66032886 25.5415829,9.39668525 C24.8644525,9.76486344 24.4271392,10.1188809 24.1591084,10.5153805 C23.721795,11.152612 23.3268023,11.3225404 22.5650307,11.1809334 C21.9020072,11.0534871 22.0148623,10.8127552 22.8753821,10.5012198 C23.369123,10.3171307 23.7923295,10.0055953 24.3424979,9.41084595 C24.8221319,8.87273936 25.3723003,8.46207907 25.7813999,8.27798997 L26.4585303,7.99477598 L26.373889,6.9610449 C26.3033545,6.15388501 26.3315683,5.81402822 26.5008509,5.50249282 C26.7829886,4.95022554 27.3754776,4.39795825 28.0808217,4.02978005 Z M33.2298339,7.41418729 C33.3567958,7.41418729 33.0041237,9.43916735 32.7925205,9.99143464 C32.7078792,10.2038451 32.5103829,10.4870591 32.3552072,10.6286661 C32.0730695,10.8835587 32.0730695,10.869398 32.1718177,10.1755237 C32.3269934,9.00018566 32.6373448,7.96645458 32.8912687,7.68324058 C33.0182306,7.54163358 33.1734063,7.41418729 33.2298339,7.41418729 Z M12.4645028,7.78236548 C12.5209303,7.72572268 12.6055716,7.88149038 12.6478923,8.15054367 C12.7043198,8.51872187 12.7466404,8.56120396 12.8312817,8.36295417 C13.0852056,7.79652618 13.6212672,8.27798997 13.6212672,9.07098915 C13.6212672,9.46748875 13.4096639,9.82150624 13.1698469,9.82150624 C13.1134194,9.82150624 13.1275263,9.65157784 13.1980607,9.45332805 C13.4378777,8.84441796 13.3814502,8.66032886 13.042885,8.85857866 C12.803068,9.01434636 12.7325336,9.00018566 12.5491441,8.77361446 C12.3375409,8.47623977 12.2811133,7.95229388 12.4645028,7.78236548 Z M17.1479878,6.5645453 C17.1620947,6.21052781 17.1620947,6.21052781 17.5853012,6.7061523 C18.6997449,7.99477598 19.1088445,8.77361446 18.8690275,9.19843545 C18.6433173,9.59493504 17.1479878,7.27258029 17.1479878,6.5645453 Z M24.0744671,6.39461691 C24.2296428,6.09724221 24.4976736,6.06892081 24.7374906,6.30965271 C24.9208801,6.49374181 24.7092768,6.9893663 24.4412461,6.9893663 C24.1167878,6.9893663 23.9192914,6.6778309 24.0744671,6.39461691 Z" id="Combined-Shape" fill="#000000"></path>
        </g>
    </g>
</svg>