<?xml version="1.0" encoding="UTF-8"?>
<svg width="48px" height="48px" viewBox="0 0 48 48" version="1.1" xmlns="http://www.w3.org/2000/svg" xmlns:xlink="http://www.w3.org/1999/xlink">
    <title>mx-bancoazteca</title>
    <g id="Page-1" stroke="none" stroke-width="1" fill="none" fill-rule="evenodd">
        <g id="mx-bancoazteca" fill-rule="nonzero">
            <rect id="Rectangle" x="0" y="0" width="48" height="48"></rect>
            <path d="M24.0003924,14.0786487 L24.2462343,14.0416101 C27.1269575,13.6162091 29.5499201,13.5112832 31.1186239,13.5008974 L31.6093421,13.500627 C32.5253244,13.5058496 33.042056,13.5419327 33.042056,13.5419327 C30.756834,13.8397381 29.7490653,14.0422457 27.9748247,14.4710855 C27.7278017,14.527162 27.4530504,14.5917228 27.157122,14.6638341 C29.255729,15.1266351 31.4929684,15.7667826 33.7507009,16.6510208 C44.0980723,20.713086 46.1278036,26.2999147 46.1278036,26.2999147 C46.1278036,26.2999147 46.9652454,28.1939568 46.1278036,30.1237356 C45.4464952,31.6961479 44.154848,32.8992816 41.6709111,33.7331367 C39.1869742,34.5550795 35.6384929,34.6265528 32.4874415,34.364484 C32.4874415,34.364484 36.1352803,34.030942 37.9804906,32.0416022 C39.7689252,30.1237356 39.4282709,27.6102583 39.4282709,27.6102583 C39.4282709,27.6102583 39.2153621,25.5613574 37.3559578,23.3933343 C35.3782709,21.0719796 31.8913433,18.9881174 31.7138268,18.8827789 L31.6780018,18.8622635 C31.4029872,18.7065534 29.2022346,17.4710423 27.0511682,16.5795475 C26.1349085,16.2025049 25.0635489,15.8419914 24.0001138,15.5212404 C22.9371235,15.8417651 21.865379,16.2023865 20.9488317,16.5795475 C18.7977653,17.4710423 16.5970127,18.7065534 16.3219981,18.8622635 L16.2861731,18.8827789 C16.1086566,18.9881174 12.621729,21.0719796 10.6440421,23.3933343 C8.78463783,25.5613574 8.57172897,27.6102583 8.57172897,27.6102583 C8.57172897,27.6102583 8.23107474,30.1237356 10.0195093,32.0416022 C11.8647196,34.030942 15.5125584,34.364484 15.5125584,34.364484 C12.361507,34.6265528 8.81302567,34.5550795 6.32908877,33.7331367 C3.84515186,32.8992816 2.55350467,31.6961479 1.87219626,30.1237356 C1.03475468,28.1939568 1.87219626,26.2999147 1.87219626,26.2999147 C1.87219626,26.2999147 3.90192756,20.713086 14.249299,16.6510208 C16.5070315,15.7667826 18.7442709,15.1266351 20.8453022,14.6646411 C20.5469495,14.5917228 20.2721982,14.527162 20.0251752,14.4710855 C18.2509346,14.0422457 17.2431659,13.8397381 14.9579439,13.5419327 C14.9579439,13.5419327 15.4746755,13.5058496 16.3906578,13.500627 L16.881376,13.5008974 C18.4946473,13.5115782 21.0114065,13.6222474 24.0003924,14.0786487 Z M24.2102804,21.55 C27.926589,21.55 30.9392524,24.0572054 30.9392524,27.1499999 C30.9392524,30.2427945 27.926589,32.7499999 24.2102804,32.7499999 C20.4939719,32.7499999 17.4813085,30.2427945 17.4813085,27.1499999 C17.4813085,24.0572054 20.4939719,21.55 24.2102804,21.55 Z" id="Combined-Shape" fill="#C20000"></path>
        </g>
    </g>
</svg>