<?xml version="1.0" encoding="UTF-8"?>
<svg width="48px" height="48px" viewBox="0 0 48 48" version="1.1" xmlns="http://www.w3.org/2000/svg" xmlns:xlink="http://www.w3.org/1999/xlink">
    <title>mx-cibanco</title>
    <g id="Page-1" stroke="none" stroke-width="1" fill="none" fill-rule="evenodd">
        <g id="mx-cibanco" fill-rule="nonzero">
            <rect id="Rectangle" x="0" y="0" width="48" height="48"></rect>
            <path d="M37.7858117,2.28218884 C39.8862613,3.1009956 41.4661788,4.48260218 42.630102,6.32750826 C43.6840983,7.99828837 44.2757592,9.82764744 44.6023044,11.7440695 C44.6120037,11.8021115 44.5958384,11.8642993 44.5829058,12.0539723 C44.4481925,11.8238774 44.3587428,11.6943192 44.291925,11.5533601 C43.1323128,9.14980007 41.3163779,7.37744632 38.8096326,6.26739321 C37.934535,5.87871937 37.0130963,5.6403325 36.0614815,5.52010266 C33.9944405,5.25891372 31.9877515,5.52528491 30.0155487,6.1544187 L29.7968982,6.22650901 C30.0114524,6.37846973 30.2413769,6.55128326 30.3319491,6.60025512 C33.4569758,8.28738641 36.0818675,10.5251859 38.3744254,13.1338856 C40.0066745,14.9914865 41.4177305,16.9916618 42.5966985,19.1323452 C44.9459163,23.4023475 46.4234396,27.9037749 46.4975339,32.7606054 C46.5313118,34.9953055 46.2207704,37.1855801 45.4013771,39.2932028 C44.5994177,41.3522675 43.3757759,43.1282497 41.5256031,44.4951049 C39.7168358,45.8299327 37.6596355,46.4518877 35.3910493,46.4973465 C33.3382074,46.5376395 31.3736247,46.1161146 29.4646125,45.4311374 C29.4068628,45.4104744 29.3578297,45.366049 29.1922077,45.2596347 C29.2477783,45.2602546 29.2987724,45.26042 29.3460881,45.2603952 L29.5930219,45.2600813 C29.6654075,45.2606268 29.7302617,45.2625278 29.7947671,45.2679001 C32.5689364,45.5065574 35.1012105,44.8825357 37.3806931,43.3565753 C38.1761149,42.8234707 38.8603956,42.178786 39.4509688,41.4483505 C40.73454,39.8635009 41.5081692,38.0658225 41.9331204,36.1152383 C42.8320562,31.991943 42.3275625,27.9616312 40.9916898,24.0098387 C38.9301312,17.9080642 35.3801529,12.7061622 30.277468,8.48265161 C29.7195832,8.02083424 28.6016344,7.34618842 28.0263157,6.90400091 L28.0770444,6.87478594 C24.778225,8.28013965 21.9941835,10.4166148 19.55102,13.0075193 C15.0612952,17.7690355 12.1213122,23.3047901 10.8323754,29.6282575 C10.6922737,30.3195791 10.6286889,31.0243747 10.5133743,31.7208786 C10.5133743,31.7208786 10.419614,32.211126 10.7030506,32.4090908 L9.07894736,31.0948543 C9.09295744,30.8170819 9.10696756,30.6730133 9.10588994,30.5289447 C9.08218025,27.1086132 9.80316602,23.8219858 11.0242073,20.6244938 C11.8939164,18.3473823 13.0017985,16.1811725 14.3521645,14.1351922 C17.0442749,10.056706 20.3786985,6.57936911 24.7272438,4.0804541 C26.7285444,2.92997885 28.8602474,2.0862972 31.1686946,1.70280534 C33.4254116,1.32864189 35.6357874,1.44472584 37.7858117,2.28218884 Z M6.97870215,16.0454544 C6.83875058,16.2719592 6.76662156,16.4115852 6.67403829,16.537766 C5.09366062,18.7024889 4.41005032,21.0968194 4.66734619,23.7342026 C4.75777652,24.6547013 5.00323028,25.5390005 5.37248723,26.3902029 C6.1734416,28.2374056 7.41685869,29.7701907 8.96924618,31.0930195 C12.2516518,33.888646 16.1423089,35.4834871 20.3688504,36.3553751 C26.897059,37.7019921 33.3445262,37.374129 39.6724963,35.2807706 C40.3647188,35.0521974 41.0300276,34.7522598 41.7136379,34.4998984 C41.7136379,34.4998984 42.2013159,34.3323469 42.2368421,33.997244 L41.8686615,36.003724 C41.6124419,36.1319732 41.4757202,36.1919608 41.3465337,36.2653937 C38.2837447,37.9946898 34.9701192,39.0403348 31.4842451,39.6257306 C29.0017174,40.0425405 26.5008881,40.2069889 23.9860637,40.1087334 C18.9725632,39.9122229 14.1776024,38.8831261 9.75405217,36.5218921 C7.71721663,35.4359109 5.89138524,34.0872254 4.391749,32.3620664 C2.92440916,30.6751752 1.9221396,28.7824649 1.59917415,26.5774055 C1.28266782,24.4230253 1.73374301,22.4206824 2.80921807,20.5310747 C3.7824207,18.8203956 5.13026321,17.4137911 6.68910987,16.1840462 C6.73647813,16.1468126 6.80107122,16.1292301 6.97870215,16.0454544 Z" id="Combined-Shape" fill="#213C74"></path>
        </g>
    </g>
</svg>