<?xml version="1.0" encoding="UTF-8"?>
<svg width="48px" height="48px" viewBox="0 0 48 48" version="1.1" xmlns="http://www.w3.org/2000/svg" xmlns:xlink="http://www.w3.org/1999/xlink">
    <title>my-muamalat</title>
    <g id="Page-1" stroke="none" stroke-width="1" fill="none" fill-rule="evenodd">
        <g id="my-muamalat">
            <rect id="Rectangle" x="0" y="0" width="48" height="48"></rect>
            <path d="M30.4796768,32.4081471 C30.2282243,32.4542467 17.6933132,32.445865 17.5110101,32.4018608 C17.5277736,32.1650763 17.5403462,31.9220054 17.5592052,31.6810301 C17.5927322,31.2787059 17.6220683,30.8742864 17.668168,30.4719622 C17.8253258,29.0826867 18.294704,27.8002786 19.0239165,26.6121652 C19.7636061,25.4051928 20.7212214,24.3993825 21.8716169,23.5758753 C22.0643972,23.4375764 22.2508912,23.2888003 22.4310989,23.1379287 C22.5086301,23.0729701 22.6029248,22.9933435 22.5673024,22.8739035 C22.5316799,22.7544635 22.4143354,22.704173 22.3032772,22.6957913 C22.1377375,22.6832186 21.9617207,22.670646 21.8087538,22.7209365 C21.4651019,22.8298993 21.1151637,22.9451484 20.7966571,23.1148789 C19.088875,24.0159173 17.6115911,25.2019353 16.4130005,26.7211279 C15.6733108,27.6598842 15.1368787,28.7034124 14.8770443,29.8768578 C14.7806542,30.3148044 14.7219819,30.7569418 14.7240774,31.2053656 C14.7261728,31.5678764 14.7240774,31.9324826 14.7240774,32.2949934 C14.7240774,32.3285204 14.717791,32.3620475 14.7156956,32.393479 C14.5564423,32.4479604 10.011437,32.4605331 9.76207981,32.4060517 C9.76207981,32.3641429 9.75788894,32.3180433 9.76207981,32.2698482 C9.81237033,31.6370259 9.85427909,31.0021081 9.9150468,30.3713812 C10.0344868,29.1434545 10.4242383,28.0014407 11.0382016,26.9348626 C11.8009411,25.6126412 12.8402785,24.5418723 14.0556326,23.6345475 C14.8686626,23.0268705 15.7445557,22.5197745 16.6560713,22.0755416 C17.1317358,21.8429479 17.6053048,21.6019725 18.0725875,21.3526154 C18.2318408,21.2687979 18.3806169,21.1598351 18.5168204,21.0403951 C18.68236,20.8979053 18.6802646,20.791038 18.548252,20.6254984 C18.2967994,20.3111826 18.074683,20.2525104 17.7037904,20.4243363 C17.5214873,20.5102493 17.3412796,20.6087349 17.17574,20.7218885 C15.8807592,21.6082589 14.4789111,22.3018489 13.0707767,22.9828663 C12.0062941,23.4983441 10.9795294,24.076685 10.044964,24.8079929 C9.21307502,25.4596742 8.48595798,26.2056502 7.92018968,27.1024977 C7.29365367,28.0936399 6.92276111,29.174886 6.80332114,30.3378542 C6.73626712,30.9832492 6.69645379,31.6307395 6.64406784,32.2782299 C6.63987696,32.3201387 6.63359065,32.359952 6.62939977,32.3976699 C6.47224191,32.4479604 1.79731939,32.4626285 1.50186261,32.4144334 C1.50186261,32.3578566 1.49767174,32.2970889 1.50186261,32.2384166 C1.56682119,31.5573992 1.62130259,30.8742864 1.70092924,30.1953644 C1.91047305,28.4456735 2.60196764,26.9097174 3.76284038,25.5854005 C4.56539319,24.669694 5.50624492,23.9174317 6.51834155,23.2489869 C7.4214754,22.6517871 8.36232713,22.1342138 9.32832412,21.6585494 C10.3760432,21.1430716 11.4069988,20.6003531 12.3688049,19.9381946 C12.8884735,19.5819702 13.3788061,19.1901232 13.823039,18.7416995 C14.4872928,18.0690638 14.9818163,17.2979426 15.2521278,16.3843315 C15.3066092,16.1978375 15.3925221,16.0197253 15.482626,15.8478994 C15.5433937,15.7326503 15.6293066,15.6257829 15.7256968,15.5356791 C15.9834357,15.2926083 16.2600335,15.334517 16.4381458,15.6383556 C16.4905317,15.7284594 16.5366314,15.8248495 16.5617766,15.9254306 C16.7440797,16.673502 17.0856362,17.3503285 17.4984375,17.9957235 C17.6220683,18.1885038 17.7415083,18.3833795 17.8735209,18.5950188 C17.9238114,18.5489191 17.9594339,18.5216785 17.9908654,18.4881514 C18.1585005,18.3016574 18.3324219,18.1172589 18.4916752,17.9244786 C18.9065719,17.4173825 19.1685017,16.8390416 19.3068006,16.199933 C19.3403276,16.0448706 19.3759501,15.8856173 19.4388132,15.7389366 C19.5645395,15.4434798 19.8222784,15.3387079 20.1282124,15.4434798 C20.3524242,15.521011 20.5053912,15.6655963 20.5829224,15.8981899 C20.8490431,16.6965518 21.2325083,17.4404324 21.6704548,18.1570722 C21.7291271,18.2513669 21.7982766,18.3393753 21.8653306,18.4294792 C21.9260983,18.5091058 22.0057249,18.5237739 22.087447,18.4713879 C22.1817417,18.4106202 22.2760365,18.3498525 22.3556631,18.2723213 C22.6343564,18.0020098 22.8480911,17.6814078 23.0220124,17.3398513 C23.1665977,17.0548717 23.2902285,16.7573195 23.4096685,16.4597673 C23.512345,16.2062193 23.6192123,15.9547667 23.8015154,15.7494138 C23.8874284,15.6509282 23.9901049,15.5608243 24.1032585,15.4958658 C24.3002297,15.3827121 24.4888192,15.4413844 24.6040683,15.6362601 C24.6501679,15.7137913 24.679504,15.8017997 24.7088402,15.8856173 C24.9875334,16.6944564 25.3668077,17.4551004 25.8257087,18.1759312 C25.884381,18.2702259 25.9598167,18.3540434 26.0310616,18.4399564 C26.0918293,18.5132967 26.1672651,18.5112013 26.2322237,18.4504336 C26.3097549,18.3791887 26.3872861,18.3079438 26.4480538,18.2241262 C26.9090502,17.5850176 27.2631793,16.893523 27.491582,16.1370698 C27.5418725,15.9715302 27.5942585,15.7997043 27.678076,15.6509282 C27.8687609,15.319849 28.1642177,15.2863219 28.4387201,15.5524426 C28.6776,15.7829408 28.7928491,16.0825884 28.9018119,16.386427 C29.0044884,16.6755974 29.1155466,16.9626725 29.2349866,17.2434612 C29.4529121,17.758939 29.8091366,18.180122 30.2009836,18.6159732 C30.2387014,18.5426328 30.2722285,18.486056 30.2994692,18.4273837 C30.5111084,17.9559102 30.710175,17.4781503 30.9322915,17.012963 C31.1062128,16.6483567 31.2989932,16.2921323 31.508537,15.946385 C31.6070226,15.7829408 31.7453215,15.6341647 31.8940976,15.5084384 C32.1183095,15.319849 32.3278533,15.3701395 32.4577705,15.6320692 C32.5269199,15.774559 32.5793059,15.9296215 32.608642,16.0867793 C32.728082,16.7091245 32.9921072,17.266511 33.3441408,17.7840842 C33.9078137,18.6138777 34.6265489,19.2927997 35.4249109,19.892095 C36.2903268,20.5395854 37.2248923,21.0655404 38.2181299,21.4867234 C39.7561815,22.1405001 41.1999384,22.9493393 42.503301,24.0012492 C43.636933,24.9169557 44.6155026,25.9709611 45.3530969,27.2366057 C45.9251515,28.2193662 46.3128075,29.2691807 46.4406293,30.4007173 C46.4909198,30.8575229 46.482538,31.3206147 46.4972061,31.7816111 C46.5034924,31.9827732 46.4972061,32.1860307 46.4972061,32.4102425 C46.4196749,32.4186243 46.3526208,32.4311969 46.2876623,32.4311969 C44.7936149,32.4332924 43.297472,32.4311969 41.8034246,32.4311969 C41.7489432,32.4311969 41.6923664,32.4228152 41.6211215,32.4186243 C41.6169306,32.3515703 41.6085489,32.292898 41.6064534,32.2321303 C41.604358,31.8968602 41.6022626,31.5615901 41.6064534,31.22632 C41.6232169,30.1052606 41.3445237,29.0575415 40.8353322,28.0663992 C40.2025099,26.836377 39.3056623,25.8200895 38.2516569,24.9379101 C37.1285021,24.009631 35.8838118,23.2804185 34.5511132,22.704173 C33.4719625,22.2368903 32.4472933,21.671122 31.4519601,21.0466814 C31.1565034,20.8622829 30.8589511,20.6757889 30.557208,20.5039629 C30.4251954,20.4285272 30.2785148,20.3677595 30.1318341,20.3342325 C30.0291576,20.3111826 29.8950496,20.3090872 29.8091366,20.3572823 C29.6247381,20.4641496 29.4529121,20.6003531 29.2936588,20.7428429 C29.1930778,20.8350422 29.2140322,20.9083825 29.3250904,20.9817228 C29.3649037,21.0089635 29.4110034,21.025727 29.4550076,21.0466814 C30.4168137,21.5139641 31.3870016,21.9602925 32.336235,22.450625 C33.9560087,23.2867048 35.3725249,24.382619 36.5250159,25.8054215 C37.4931083,26.9998212 38.1887938,28.3325199 38.505205,29.8475217 C38.5953088,30.2770865 38.639313,30.7150331 38.6937944,31.1508842 C38.739894,31.5322539 38.7692302,31.9157191 38.8048526,32.2970889 C38.8090435,32.3306159 38.8048526,32.3641429 38.8048526,32.3976699 C38.6414084,32.4479604 33.8659049,32.4542467 33.6458839,32.3997653 C33.6312158,32.225844 33.6144523,32.0477317 33.6018797,31.8675241 C33.5536846,31.2347017 33.5201576,30.599784 33.3692861,29.9795343 C33.0633521,28.7159851 32.4850111,27.5865439 31.6887447,26.568161 C30.3581414,24.8666652 28.6776,23.6345475 26.6659794,22.8508537 C26.4270994,22.7586544 26.1756469,22.6916004 25.9262897,22.6329281 C25.7921817,22.6014965 25.6475965,22.6014965 25.511393,22.6161646 C25.3626169,22.6308327 25.3081355,22.7397955 25.3751895,22.8739035 C25.4233846,22.9723891 25.4883432,23.0708747 25.5679698,23.144215 C25.7733227,23.3328045 25.9786757,23.5276802 26.2070784,23.6827426 C27.8331384,24.7933248 28.9395298,26.3167084 29.72951,28.0936399 C30.0794481,28.8815247 30.3350916,29.7029364 30.4251954,30.5620661 C30.4775814,31.054494 30.4650088,31.5511129 30.4796768,32.0477317 C30.4817723,32.1629808 30.4796768,32.2803254 30.4796768,32.4081471 Z M29.4298623,31.4086231 C29.4403395,31.379287 29.4529121,31.360428 29.4529121,31.3415691 C29.457103,30.9161951 29.4738665,30.4908212 29.3837627,30.0696381 C29.2266048,29.3173758 28.9269572,28.6216904 28.5623509,27.9511501 C27.6655034,26.2999449 26.3537591,25.0322048 24.8408528,23.957245 C24.7109356,23.8650457 24.5621595,23.8000872 24.4175743,23.7288423 C24.0278228,23.5381574 23.6443576,23.5633027 23.2839422,23.8000872 C23.0618258,23.9446724 22.8439002,24.0976394 22.6448336,24.2715607 C22.1880281,24.6717894 21.7354134,25.076209 21.3016577,25.5015829 C19.801324,26.9725805 18.7934183,28.6992216 18.5922562,30.834473 C18.5754927,31.020967 18.5503474,31.2053656 18.5272976,31.4065277 C22.1775509,31.4086231 25.8026589,31.4086231 29.4298623,31.4086231 Z M15.9960083,17.6855986 C15.8975227,17.7798933 15.8158006,17.8448519 15.7529375,17.9244786 C15.5790161,18.1444996 15.3988084,18.3582343 15.2500323,18.5929234 C14.6297826,19.5610158 13.7957983,20.3007054 12.8402785,20.9188597 C11.8114183,21.5831136 10.7175996,22.1258321 9.6133037,22.6496916 C8.84846878,23.0122024 8.10458823,23.4082402 7.39213926,23.8650457 C6.26898441,24.583781 5.24221972,25.4198609 4.39356726,26.4571027 C3.64968672,27.3665229 3.09858648,28.3744287 2.80522514,29.5164424 C2.65225816,30.1136423 2.59568133,30.7255103 2.52024555,31.3352828 C2.51815012,31.360428 2.52862731,31.3855733 2.53491362,31.412814 C3.56167832,31.412814 4.57796582,31.412814 5.60892139,31.412814 C5.62149402,31.3206147 5.63616209,31.2388926 5.64454384,31.1571705 C5.69483436,30.7066513 5.72836137,30.2540367 5.79751083,29.8056129 C5.92952343,28.9276243 6.24593459,28.108308 6.66292678,27.3267096 C7.62054202,25.5330145 8.97838594,24.1248801 10.7280768,23.0876382 C11.6479742,22.5428243 12.6097803,22.077637 13.5527274,21.5789227 C14.4516704,21.1011628 15.3401362,20.6024485 16.2306974,20.1079251 C16.3585191,20.0366802 16.4863408,19.959149 16.5932082,19.8606634 C17.0143913,19.4771983 17.0143913,19.2697499 16.8090383,18.8904756 C16.6309261,18.5593963 16.4213823,18.2471761 16.2181248,17.9307649 C16.1657388,17.8490428 16.0882076,17.7861797 15.9960083,17.6855986 Z M31.7998029,17.7442709 C31.5588275,18.1193543 31.2927068,18.452529 31.1313581,18.8506622 C31.1208809,18.8758075 31.1145946,18.9030482 31.1062128,18.9302889 C31.016109,19.2425092 31.0810676,19.4751028 31.3429974,19.6699786 C31.5714001,19.8397091 31.8060892,20.0073441 32.0554463,20.1477385 C32.9376258,20.6443573 33.8198053,21.1388807 34.7124619,21.6145452 C35.8398076,22.2159359 36.9671534,22.8131358 38.046304,23.5004395 C39.5550195,24.4622456 40.7117013,25.7383675 41.5310177,27.3267096 C41.9291509,28.0978308 42.264421,28.8920019 42.484442,29.734368 C42.5871185,30.1304058 42.5996911,30.5327299 42.6248364,30.9371495 C42.6457908,31.2451789 42.7400855,31.3520463 43.043924,31.3813824 C43.7060825,31.4442455 44.3682409,31.4421501 45.0303994,31.379287 C45.3510014,31.3478554 45.449487,31.2284154 45.4641551,30.9036225 C45.4872049,30.4007173 45.3887193,29.9166711 45.2273706,29.4451975 C44.737038,28.0119179 43.9198172,26.7818957 42.8804798,25.6922678 C42.0087776,24.7786568 40.9903946,24.0599215 39.8672398,23.4899623 C38.9955375,23.0478249 38.1175489,22.61826 37.2395603,22.1886952 C35.9739157,21.570541 34.8193293,20.7994197 33.8302824,19.7894185 C33.2833731,19.2299365 32.7301774,18.6767409 32.1811726,18.1214498 C32.0617326,18.0041052 31.9381018,17.8825698 31.7998029,17.7442709 Z M34.6915075,31.4232912 C35.7245585,31.4211957 36.7513232,31.4295775 37.7843742,31.4170049 C37.7843742,31.3583326 37.7885651,31.3310919 37.7843742,31.3038512 C37.6963658,30.8156141 37.6272164,30.3252816 37.5182536,29.8433308 C37.2102242,28.4938686 36.5438749,27.328805 35.6323593,26.295754 C34.7878977,25.3402342 33.79466,24.5649221 32.7176048,23.8922864 C31.6908401,23.2510824 30.5991168,22.7356046 29.5052981,22.2264131 C29.0757333,22.0273465 28.6356913,21.8471388 28.2019356,21.6564539 C28.069923,21.5998771 27.9337195,21.5789227 27.7933251,21.6019725 C27.5900676,21.6354995 27.5376817,21.7444623 27.6655034,21.9037156 C27.7472255,22.0063921 27.8415202,22.1048777 27.9483875,22.1803135 C28.2731805,22.4087162 28.5979734,22.6392144 28.9374344,22.8466628 C30.1926018,23.6135932 31.3241384,24.5230133 32.269181,25.6545499 C33.335759,26.9306718 34.081735,28.361856 34.3939553,30.006775 C34.4840591,30.4719622 34.5888311,30.9350541 34.6915075,31.4232912 Z M13.6491176,31.4107185 C13.6805492,31.1760295 13.7140762,30.9643902 13.7350306,30.7485601 C13.8167526,29.8957168 14.0137238,29.0722096 14.3510894,28.2822294 C15.1473559,26.4256712 16.3773781,24.9064785 17.9510521,23.6534065 C18.395285,23.3013729 18.8709495,22.9975343 19.3570911,22.7083639 C19.6797886,22.5155836 19.9899134,22.2997534 20.3000383,22.0881142 C20.3817604,22.0315374 20.4718642,21.9644833 20.4760551,21.8178027 C20.4006193,21.8115164 20.3251835,21.7926574 20.2560341,21.8031346 C20.0842082,21.8345662 19.9123822,21.8659977 19.7468426,21.9204791 C18.1668822,22.4548159 16.6770257,23.1798375 15.2751776,24.0829713 C14.4747202,24.5984491 13.7329351,25.1893627 13.0728721,25.8787618 C12.1550702,26.836377 11.4635756,27.9260049 11.1031602,29.2146994 C10.9501932,29.7616087 10.891521,30.3231861 10.8307533,30.8847636 C10.8118943,31.054494 10.7972263,31.22632 10.7783673,31.4107185 C11.7464597,31.4107185 12.685216,31.4107185 13.6491176,31.4107185 Z M24.138881,17.5682541 C23.8266607,18.046014 23.527013,18.4986286 23.2336517,18.9554342 C23.1707886,19.0539197 23.1163072,19.1628825 23.0743984,19.2718453 C22.98639,19.4918663 23.0136307,19.6301652 23.2001247,19.7705596 C23.3887141,19.9109539 23.5940671,20.0324894 23.79942,20.1477385 C23.9461007,20.2273651 24.1137357,20.2357469 24.2646073,20.1686928 C24.631309,20.0094395 24.9561019,19.7831322 25.2515586,19.5128207 C25.3186127,19.452053 25.3290899,19.384999 25.2850857,19.3074678 C25.2536541,19.2529864 25.2264134,19.1964095 25.1928864,19.1440236 C24.8701889,18.6474047 24.545396,18.1528813 24.2206031,17.6583579 C24.2080304,17.6332127 24.1849806,17.6164492 24.138881,17.5682541 Z M19.9961998,17.5368225 C19.9689591,17.5661587 19.9480047,17.5850176 19.9333366,17.6080674 C19.667216,18.0250596 19.4010953,18.4420518 19.1391655,18.8632349 C19.0846842,18.9512433 19.0427754,19.0476334 19.0008666,19.1440236 C18.9400989,19.2823225 18.954767,19.418526 19.0427754,19.5421568 C19.2104104,19.7768459 19.3969044,19.9905806 19.6357844,20.1561202 C19.8998096,20.3384233 20.1554531,20.3468051 20.4110965,20.1498339 C20.5913042,20.011535 20.7463666,19.8376136 20.8972382,19.6657877 C21.0250599,19.5232979 21.0355371,19.3472811 20.9684831,19.1733597 C20.9181925,19.0434426 20.8553294,18.9177163 20.7861799,18.7982763 C20.5577772,18.4148111 20.3251835,18.0334414 20.0925899,17.6541671 C20.0653492,17.6122583 20.0297268,17.5787313 19.9961998,17.5368225 Z M26.9279092,19.4143351 C27.2233659,19.6322607 27.4936775,19.8397091 27.7723707,20.0345848 C27.9651511,20.1707883 28.1642177,20.1603111 28.3549025,20.0220122 C28.5560646,19.8732361 28.7614176,19.7286508 28.9562933,19.5693975 C29.1637417,19.4017625 29.1930778,19.2802271 29.0736378,19.0392517 C28.8682849,18.6264504 28.6335958,18.232508 28.3402345,17.8741881 C28.289944,17.8134204 28.2228899,17.7652253 28.1432633,17.6939804 C27.6675988,18.2199354 27.3365196,18.8171352 26.9279092,19.4143351 Z M22.0036295,21.3086112 C22.259273,21.2792751 22.4960575,21.2206028 22.7202694,21.1221172 C22.8920953,21.0466814 22.9277177,20.9356232 22.8103732,20.791038 C22.6930287,20.6464527 22.5589206,20.5102493 22.4080491,20.4054774 C22.225746,20.2776556 22.0078204,20.265083 21.8150401,20.384523 C21.6746457,20.4704359 21.5426331,20.5835896 21.4399566,20.7093159 C21.2974668,20.8853327 21.3435665,21.078113 21.5510149,21.1745032 C21.6914092,21.2415572 21.8506625,21.2667024 22.0036295,21.3086112 Z M26.0059164,21.2792751 C26.2301283,21.264607 26.4690082,21.2206028 26.6680748,21.0655404 C26.831519,20.9398141 26.850378,20.8036106 26.7393197,20.6296892 C26.6596931,20.5060584 26.544444,20.4285272 26.4061451,20.399191 C26.0310616,20.3216598 25.7041733,20.4285272 25.4233846,20.6799798 C25.3102309,20.7805608 25.3081355,20.8664737 25.391953,20.9942955 C25.5323474,21.2038393 25.7439866,21.2708933 26.0059164,21.2792751 Z M24.0236319,22.1363093 C24.1221175,22.1132594 24.2289848,22.1006868 24.3232795,22.0608735 C24.4469104,22.010583 24.4636739,21.9183837 24.392429,21.80523 C24.2164122,21.5286322 23.8371379,21.5307276 23.6611211,21.8094209 C23.5898762,21.9204791 23.6087351,22.0084875 23.7344614,22.0608735 C23.8224698,22.0985914 23.9209554,22.111164 24.0236319,22.1363093 Z" id="Shape" fill="#000000" fill-rule="nonzero"></path>
        </g>
    </g>
</svg>