<?xml version="1.0" encoding="UTF-8"?>
<svg width="48px" height="48px" viewBox="0 0 48 48" version="1.1" xmlns="http://www.w3.org/2000/svg" xmlns:xlink="http://www.w3.org/1999/xlink">
    <title>pl-bankmillennium</title>
    <g id="Page-1" stroke="none" stroke-width="1" fill="none" fill-rule="evenodd">
        <g id="pl-bankmillennium" fill-rule="nonzero">
            <rect id="Rectangle" x="0" y="0" width="48" height="48"></rect>
            <path d="M46.5,1.5 L46.5,46.5 L1.5,46.5 L1.5,1.5 L46.5,1.5 Z M5.4375,6.65664473 C5.4375,6.65664473 8.06914808,6.79247745 9.51423848,7.8970746 C11.5367794,9.23034551 12.7930809,12.3481686 12.2322819,16.5703251 L9.77329393,34.9380508 C9.44326616,37.188206 8.78700101,40.8960971 8.78700101,40.8960971 L12.3180499,40.8960971 C12.3180499,40.8960971 12.4877692,38.727165 12.7514319,36.4821158 L12.8093414,36.0006315 C12.8291054,35.8402568 12.8493211,35.6802565 12.869961,35.5213932 L15.2236538,17.6072169 L23.0689828,36.3965253 C24.0599811,38.7293933 24.6382159,39.8542731 26.7022946,41.4375 L35.9516991,17.5654912 L38.3056794,37.6464767 C38.4410888,39.0651772 38.5443451,40.8960971 38.5443451,40.8960971 L43.125,40.8960971 C43.125,40.8960971 42.8266031,39.1003585 42.5858571,37.3499519 L42.5293673,36.9316673 C42.5110278,36.7931577 42.4932396,36.6558808 42.476185,36.5207793 L39.7510051,16.065502 C39.7342226,15.8739119 39.7164051,15.6556406 39.6986377,15.4290241 L39.6721599,15.0851325 C39.6110994,14.2788108 39.5573016,13.4825698 39.5573016,13.4825698 L33.887359,13.4825698 L33.887359,13.523979 C33.887359,14.3993749 33.5985029,15.2325704 33.2678216,16.1074387 L26.4137001,33.7719729 L18.6508714,15.3989984 C16.2343623,9.75363128 12.834331,7.44394712 10.1346646,6.79247745 C8.93077547,6.37205531 5.4375,6.65664473 5.4375,6.65664473 Z" id="Combined-Shape" fill="#000000"></path>
        </g>
    </g>
</svg>