<?xml version="1.0" encoding="UTF-8"?>
<svg width="48px" height="48px" viewBox="0 0 48 48" version="1.1" xmlns="http://www.w3.org/2000/svg" xmlns:xlink="http://www.w3.org/1999/xlink">
    <title>ro-bnr</title>
    <g id="Page-1" stroke="none" stroke-width="1" fill="none" fill-rule="evenodd">
        <g id="ro-bnr">
            <rect id="Rectangle" x="0" y="0" width="48" height="48"></rect>
            <path d="M22.0409934,2.80142155 C22.2830045,3.43660917 22.0038667,3.72652596 21.1499525,3.72652596 C19.6820725,3.72652596 16.3516695,6.39113101 15.8559592,7.96249391 C15.6579501,8.59007025 14.94773,9.04120572 14.2010707,9.01352871 C13.4812251,8.98723558 12.7703174,9.32143557 12.6204356,9.75527288 C12.4705537,10.1898021 12.7180651,10.4672642 13.1704608,10.3717785 C13.836679,10.2313176 14.0250626,12.8703215 14.1584437,24.2220512 C14.3014503,36.4262332 14.2024457,38.2453054 13.3925335,38.2453054 C12.88101,38.2453054 12.4623033,38.5227675 12.4623033,38.861811 C12.4623033,39.2008545 13.1333341,39.4783166 13.9521842,39.4783166 C14.893415,39.4783166 15.5823217,39.9225328 15.8229577,40.6843426 C16.3475443,42.3477316 19.6394455,45.0261754 21.1595778,45.0261754 C22.2039384,45.0261754 22.2857546,45.1797829 21.6497879,45.9505875 C21.0145087,46.7213929 21.0956375,46.875 22.1365603,46.875 C22.8234043,46.875 23.5460001,46.5283458 23.742634,46.1048872 C24.0286472,45.4883818 24.1716538,45.4883818 24.4569794,46.1048872 C24.6536134,46.5283458 25.3768966,46.875 26.0637407,46.875 C27.0689119,46.875 27.1727292,46.7054784 26.5958902,46.005942 C26.0121758,45.298794 26.2218729,45.0607714 27.7200043,44.7300312 C29.4278328,44.3522398 33.2876351,40.7369292 33.2876351,39.5142968 C33.2876351,39.2188446 33.8390355,39.1226669 34.5128164,39.2997998 C35.8665661,39.6561414 36.2227075,38.564975 34.917085,38.0605612 C34.2941813,37.8197712 34.1608002,36.5749972 34.3643096,32.9091759 C34.6221339,28.2573607 34.5581935,27.9729794 32.686045,25.3927892 L30.7403306,22.7108859 L32.0287648,21.3304946 C33.5990869,19.6484237 34.5128164,16.6323204 34.5128164,13.1304854 C34.5128164,11.1211338 34.745202,10.506704 35.5062995,10.506704 C36.3334001,10.506704 36.3677766,10.3468691 35.7146216,9.55392251 C35.2821642,9.03013494 34.5801945,8.73606661 34.1546124,8.90074485 C33.7283429,9.06473123 32.9115553,8.45376099 32.338154,7.54180318 C30.9589656,5.34563161 28.9603113,3.75697067 27.5563718,3.73967255 C26.7993995,3.7306775 26.5367625,3.41654334 26.7712108,2.80142155 C27.180292,1.72893701 25.8918578,1.55318798 24.9038749,2.54679302 C24.4246654,3.02975697 24.122839,3.02975697 23.8265129,2.54679302 C23.1905462,1.51098052 21.6332872,1.7330886 22.0409934,2.80142155 M23.5198739,6.5392031 C24.2404069,7.41310502 24.3641626,7.41310502 24.8502475,6.5392031 C27.973016,0.923535725 33.9964802,13.3698917 30.9355896,19.1135653 C29.2030099,22.3649232 28.3875975,22.1912499 28.3875975,18.5717875 C28.3875975,15.6400992 28.4859145,15.4380571 29.9187303,15.4380571 C30.7609565,15.4380571 31.4498631,15.1294582 31.4498631,14.7516669 C31.4498631,14.2887688 30.5643225,14.1988184 28.7320508,14.4755886 C26.4315701,14.8229352 25.917984,14.703924 25.385147,13.7020159 C24.6446755,12.3098618 25.0640698,11.6774419 26.3868806,12.1887748 C27.0166594,12.4316407 27.2339195,12.2641947 27.0420982,11.6836692 C26.8612773,11.13774 25.8815449,10.8153027 24.406102,10.8153027 C22.9306593,10.8153027 21.9516143,11.13774 21.7707935,11.6836692 C21.5727844,12.2814929 21.7962321,12.4316407 22.4851388,12.1652494 C23.9708945,11.5916431 23.742634,13.3394469 22.1881252,14.434765 C21.2627077,15.0872507 20.4692962,15.1903476 19.431811,14.7931824 C17.9866196,14.2403339 17.3396524,14.9703154 18.5875222,15.7466558 C19.9041452,16.5652036 19.3190558,22.2189269 17.9178665,22.2189269 C15.4221268,22.2189269 16.4259229,10.6104928 19.1671113,7.76598709 C21.5012811,5.34355584 22.3386946,5.10760926 23.5198739,6.5392031 M5.10021507,15.1446806 C4.6739455,15.6615489 4.51718832,16.2773626 4.75232411,16.5140012 C4.98677236,16.7499477 5.42816762,16.5375266 5.73274414,16.042108 C6.78260485,14.3316681 7.82077755,16.5278396 8.07103903,20.9900672 C8.26973569,24.5209631 8.13635458,25.3540413 7.32506725,25.6674836 C6.78191735,25.877137 6.35908545,26.6437905 6.38589916,27.3703123 C6.41271286,28.096834 6.57290772,28.3445433 6.74341563,27.9203931 C7.46051099,26.1310737 8.17485634,27.3799992 8.17485634,30.4223957 C8.17485634,34.5967822 6.84654532,36.7507463 5.41854219,34.8915424 C4.51581323,33.7152691 4.5,33.716653 4.5,34.979417 C4.5,36.623432 6.04763359,37.2247153 7.76027479,36.2456407 C8.49387097,35.8263338 9.63998615,35.4803711 10.3075793,35.4776033 C10.974485,35.4741438 11.6152644,34.9870282 11.7300821,34.3947399 C11.878589,33.6301623 11.659954,33.4260442 10.97586,33.6903598 C10.1356964,34.0148729 10.0146909,33.2073958 10.0305041,27.3703123 L10.0483799,20.6773169 L11.868276,22.6908201 C14.2595109,25.3367432 14.4980844,23.2063046 12.1563518,20.1161653 C10.399021,17.797523 10.2106374,16.6710682 11.5802003,16.6710682 C12.1082245,16.6710682 12.3522982,16.3735403 12.1254129,16.004744 C11.90059,15.6380234 11.0886152,15.4968707 10.3220175,15.6906098 C9.4681032,15.9064906 8.63412746,15.6864582 8.17004359,15.1239228 C7.19993653,13.9476495 6.0813226,13.9552607 5.10021507,15.1446806 M25.9372349,19.0928074 L25.9372349,22.2189269 L23.4078062,22.2189269 L20.8783775,22.2189269 L21.1884542,19.4512249 C21.8560474,13.4861351 25.9372349,13.1775364 25.9372349,19.0928074 M35.1247195,14.7260657 C35.1247195,15.0125228 35.6761199,15.7494234 36.3499008,16.3624695 C38.8085137,18.6022323 37.1171861,22.8354325 33.7634069,22.8354325 C32.1566457,22.8354325 32.4440338,23.6235357 34.4763772,24.7866624 C35.7476231,25.5145681 36.4764066,26.5918961 36.9789922,28.4850042 C38.6641321,34.8327288 40.7954802,37.1174668 42.981143,34.9185276 C43.5407937,34.3553002 43.6645497,33.9304579 43.2699063,33.9304579 C42.8890138,33.9304579 42.449681,34.2771127 42.2929238,34.701263 C41.7944637,36.0560531 40.0171943,33.7429462 39.608113,31.2063472 C39.3441009,29.5671757 39.4809196,28.7209508 40.0708217,28.3542303 C40.7329148,27.9425347 40.6552238,27.734957 39.7016171,27.3675446 C37.0415575,26.3421109 36.3155242,24.5500239 37.9449741,23.0298636 C38.7521361,22.2770486 39.4128541,21.3228834 39.4128541,20.9098039 C39.4128541,20.4967243 39.8948135,19.6034485 40.4847158,18.9253615 C41.0739304,18.2465826 41.2128116,17.8937006 40.7934176,18.140718 C40.3135204,18.4230236 39.7765581,18.0300099 39.3475385,17.082072 C38.5376263,15.2927526 35.1247195,13.3892656 35.1247195,14.7260657 M19.1863622,26.6873818 L19.1726116,28.6911981 L17.9749316,27.1502799 C16.4513616,25.1893631 16.4513616,24.6842575 17.9749316,24.6842575 C18.9512265,24.6842575 19.1973628,25.0904178 19.1863622,26.6873818 M25.9372349,28.7216428 C25.9372349,31.2104988 25.5632177,33.4876256 24.9616276,34.6583636 L23.9853327,36.558391 L22.8213417,34.7822182 C21.9694901,33.4807063 21.6566632,31.8934292 21.6539131,28.8454974 L21.6497879,24.6842575 L23.7935114,24.6842575 L25.9372349,24.6842575 L25.9372349,28.7216428 Z M31.7791908,30.4791336 C32.8331767,37.5540718 27.8183214,46.2100599 24.9520022,42.2640087 C24.1310894,41.1347861 24.0705866,41.1327103 23.2861131,42.2121143 C22.3283816,43.5302326 21.0234467,43.0299705 18.5895848,40.4124162 C17.2248346,38.9434582 15.5912596,27.6816788 16.9346963,28.9991049 C18.3620119,30.3995621 22.8749692,36.7756556 22.8749692,37.3921613 C22.8749692,38.4916308 21.8106703,39.0278731 21.4799676,38.0951575 C21.3287107,37.6696233 20.9959454,37.5167078 20.7394961,37.756806 C20.1523441,38.3061948 20.8006864,40.0948222 21.5872225,40.0948222 C21.9103624,40.0948222 22.608207,39.6589092 23.1376063,39.1261265 C24.012834,38.2453054 24.187467,38.2453054 25.0626947,39.1261265 C26.3985686,40.4705378 27.7750068,40.3369962 27.7750068,38.861811 C27.7750068,38.183724 27.4993067,37.6287997 27.1624162,37.6287997 C26.8255257,37.6287997 26.5498256,37.9657674 26.5498256,38.3774631 C26.5498256,38.8638868 26.2053722,38.7787799 25.5645927,38.1345973 C24.6598012,37.2240233 24.68799,36.9956879 25.9131713,35.3281474 C27.3700507,33.3457808 28.3394703,29.9062192 28.3924102,26.5337743 L28.4260993,24.3763506 L29.8987919,26.0598054 C30.72658,27.0063595 31.5502428,28.9409832 31.7791908,30.4791336" id="Shape" fill="#12336C" fill-rule="nonzero"></path>
        </g>
    </g>
</svg>