<?xml version="1.0" encoding="UTF-8"?>
<svg width="48px" height="48px" viewBox="0 0 48 48" version="1.1" xmlns="http://www.w3.org/2000/svg" xmlns:xlink="http://www.w3.org/1999/xlink">
    <title>ro-bcr</title>
    <g id="Page-1" stroke="none" stroke-width="1" fill="none" fill-rule="evenodd">
        <g id="ro-bcr">
            <rect id="Rectangle" x="0" y="0" width="48" height="48"></rect>
            <path d="M1.5,21.876633 C1.5,21.1820292 1.80318297,20.8349551 2.481566,20.8349551 L5.96061289,20.8349551 C8.54789284,20.8349551 10.0464703,21.803301 10.0464703,24.0155571 C10.0464703,25.3132136 9.36853178,26.2455768 8.20870132,26.5566682 C9.63570622,26.9406361 10.4212258,27.8547802 10.4212258,29.3350833 C10.4212258,31.5655584 8.92220377,32.5343599 6.31758641,32.5343599 L2.481566,32.5343599 C1.80318297,32.5343599 1.5,32.1872858 1.5,31.4922265 L1.5,21.876633 Z M5.72855786,25.4047647 C6.65633336,25.4047647 7.11999881,25.2216626 7.11999881,24.3626312 C7.11999881,23.502689 6.63855135,23.3018232 5.69299388,23.3018232 L4.35489893,23.3018232 L4.35489893,25.4043091 L5.72855786,25.4043091 L5.72855786,25.4047647 Z M6.06774938,30.0665807 C7.01330685,30.0665807 7.47697234,29.8106022 7.47697234,28.9151326 C7.47697234,28.0374268 7.01330685,27.7819037 6.06774938,27.7819037 L4.35489893,27.7819037 L4.35489893,30.0670362 L6.06774938,30.0670362 L6.06774938,30.0665807 Z M16.2750578,20.7424931 C18.6480648,20.7424931 19.4331397,21.1815737 19.4331397,22.1868134 L19.4331397,23.3018232 L16.2750578,23.3018232 C14.7226898,23.3018232 14.3483789,23.996427 14.3483789,26.6837465 C14.3483789,29.3706106 14.7231344,30.0661252 16.2750578,30.0661252 L19.4331397,30.0661252 L19.4331397,31.1811351 C19.4331397,32.1868303 18.6480648,32.625 16.2750578,32.625 C13.1169759,32.625 11.4041254,30.8518246 11.4041254,26.6837465 C11.4041254,22.5161239 13.1169759,20.7424931 16.2750578,20.7424931 L16.2750578,20.7424931 Z M20.3266848,21.876633 C20.3266848,21.1820292 20.6298678,20.8349551 21.3082508,20.8349551 L25.0197973,20.8349551 C27.6244147,20.8349551 29.1234367,22.0597351 29.1234367,24.3630867 C29.1234367,25.95316 28.5348527,26.9770743 27.1251852,27.5619079 L29.3554917,32.0224028 C29.4266196,32.1872858 29.5159741,32.3517133 29.5159741,32.5343599 L27.0536127,32.5343599 C26.5361567,32.5343599 26.3218837,32.5343599 26.0724912,32.0041836 L24.0737952,27.7814482 L23.1815838,27.7814482 L23.1815838,32.5343599 L20.3266848,32.5343599 L20.3266848,21.876633 Z M23.1815838,23.3022787 L23.1815838,25.4047647 L24.8055243,25.4047647 C25.6261632,25.4047647 26.2685377,25.2949945 26.2685377,24.3626312 C26.2685377,23.4484871 25.6261632,23.3018232 24.8055243,23.3018232 L23.1815838,23.3018232 L23.1815838,23.3022787 Z M38.041995,19.4990384 C37.629453,19.0699783 37.4227372,18.5516445 37.4227372,17.9458589 C37.4227372,17.3528267 37.629453,16.8340374 38.0357715,16.4049772 C38.4465356,15.9713622 38.9448758,15.75 39.5241244,15.75 C40.0909252,15.75 40.5879319,15.9668075 41.0009186,16.3986005 C41.4143501,16.8285716 41.6250668,17.3528267 41.6250668,17.9458589 C41.6250668,18.5516445 41.418351,19.0699783 41.0058086,19.4990384 C40.5914884,19.9308315 40.0904809,20.1467301 39.5236796,20.1467301 C38.9448758,20.1471835 38.4465356,19.9308315 38.041995,19.4990384 L38.041995,19.4990384 Z M46.5,24.4578261 L46.5,23.122365 C46.5,21.8602358 45.500652,20.8340441 44.2679153,20.8340441 L34.7781104,20.8340441 C33.5453738,20.8340441 32.5464703,21.8602358 32.5464703,23.122365 L32.5464703,28.1512962 L43.1316461,28.1512962 L43.1316461,28.9133108 L32.5469148,28.9133108 L32.5469148,30.24695 C32.5469148,31.5095347 33.5453738,32.5343599 34.7785549,32.5343599 L44.2679153,32.5343599 C45.500652,32.5343599 46.5,31.5095347 46.5,30.24695 L46.5,25.2193851 L35.9157134,25.2193851 L35.9157134,24.4578261 L46.5,24.4578261 Z" id="Combined-Shape" fill="#00497B" fill-rule="nonzero"></path>
        </g>
    </g>
</svg>