<?xml version="1.0" encoding="UTF-8"?>
<svg width="48px" height="48px" viewBox="0 0 48 48" version="1.1" xmlns="http://www.w3.org/2000/svg" xmlns:xlink="http://www.w3.org/1999/xlink">
    <title>ro-dristorexchange</title>
    <g id="Page-1" stroke="none" stroke-width="1" fill="none" fill-rule="evenodd">
        <g id="ro-dristorexchange" fill-rule="nonzero">
            <rect id="Rectangle" x="0" y="0" width="48" height="48"></rect>
            <path d="M10.5,3.375 L21.4020618,3.56186297 C32.3041237,3.70201019 32.3505155,3.70201019 34.7628866,5.01005095 C38.056701,6.73853339 40.0515464,8.60716305 41.4896907,11.2699604 C42.1012183,12.4166195 43.1919996,15.7446334 44.2000008,19.2446287 L44.4400439,20.0869009 C45.5501423,24.0233115 46.5,27.9738108 46.5,29.1153736 C46.5,31.5445922 44.412371,35.7022932 43.159794,35.7022932 C42.9742267,35.7022932 42.7886598,35.1417043 42.7886598,34.4409682 C42.7886598,32.2453283 39.0773196,18.744479 37.9175258,16.7357021 C35.8762886,13.2320215 31.5154639,10.0086353 27.943299,9.35461492 L26.3195876,9.07432046 L28.0824742,9.77505661 C31.9329897,11.2699604 35.7371134,15.0072197 37.128866,18.6510475 C37.6892056,20.1422873 38.4739949,22.9548587 39.1853218,25.8325422 L39.3772749,26.6180355 C40.2308529,30.1515255 40.9329897,33.6110768 40.9329897,34.6745469 C40.9329897,37.5709229 39.4020618,40.2337201 36.9896907,41.4950452 C35.4587629,42.2892128 34.1134021,42.5227915 29.3350515,42.616223 C24.371134,42.7563702 23.3969072,42.9432331 22.5618557,43.690685 L21.5876289,44.625 L21.0309278,42.3826442 C20.3837629,39.7128396 18.4871521,32.634704 16.562828,25.5925162 L16.3061944,24.654161 C14.0397093,16.3741316 11.8101031,8.41796431 11.6134021,8.04657417 C11.3350515,7.48598526 10.685567,7.20569081 9.61855669,7.20569081 L7.99484538,7.20569081 L10.5,3.375 Z M8.87628865,34.8614098 C9.59450171,35.3943153 11.2752323,36.741382 13.0149972,38.1602442 L13.4902635,38.5484289 L13.9643842,38.9368272 C16.1679394,40.7446455 18.2010309,42.4501225 18.2010309,42.5227915 C18.2010309,42.6127625 16.5663103,42.7027336 14.4982134,42.7092747 L10.3608247,42.7096544 L9.85051545,40.7475933 C9.7239925,40.237967 9.53995911,39.5739085 9.34634063,38.8826489 L9.11246486,38.0482237 C8.95757008,37.4940928 8.80880975,36.9551245 8.69072165,36.4964608 C8.08762887,34.3942524 8.08762887,34.3008209 8.87628865,34.8614098 Z M6.83505154,9.68162514 C7.57731959,12.0641279 13.5618557,35.8424404 13.4690722,35.9358719 C13.3762886,35.9825877 11.9381443,34.9081256 10.2216495,33.5066533 C8.4587629,32.0584654 7.0670103,30.6569931 7.0670103,30.2832672 C7.0670103,29.9095412 6.78865981,29.769394 6.37113402,29.9095412 C5.95360823,30.0964042 5.67525775,29.9095412 5.67525775,29.4890996 C5.67525775,29.1153736 5.86082474,28.6949319 6.13917526,28.6015005 C6.37113402,28.5547847 5.44329897,24.2102208 4.05154639,18.9780577 C2.65979382,13.7458946 1.5,9.40133068 1.5,9.26118345 C1.5,8.74731028 6.64948455,9.12103621 6.83505154,9.68162514 Z" id="Combined-Shape" fill="#DD3333" transform="translate(24.000000, 24.000000) scale(1, -1) translate(-24.000000, -24.000000) "></path>
        </g>
    </g>
</svg>