<?xml version="1.0" encoding="UTF-8"?>
<svg width="48px" height="48px" viewBox="0 0 48 48" version="1.1" xmlns="http://www.w3.org/2000/svg" xmlns:xlink="http://www.w3.org/1999/xlink">
    <title>ro-librabank</title>
    <g id="Page-1" stroke="none" stroke-width="1" fill="none" fill-rule="evenodd">
        <g id="ro-librabank">
            <rect id="Rectangle" x="0" y="0" width="48" height="48"></rect>
            <path d="M24.727286,0.751799561 C37.0188787,0.613590187 46.5307837,8.44889932 46.6599514,19.9448194 C46.7485253,27.5386134 42.2484645,34.4083473 37.1799124,37.0626887 C35.3667318,38.1618825 32.314989,38.699961 31.1869597,38.699961 L13.850079,38.699961 C13.850079,38.699961 13.8446742,38.7006105 13.8349829,38.7009232 L13.8102162,38.700807 C13.6909386,38.6962057 13.3450335,38.6279389 13.3450335,37.9908304 C13.3450335,37.2209913 13.630494,37.1073239 14.1897899,37.1073239 C14.7490858,37.1073239 16.8829352,36.6733206 16.9397689,35.7355635 C16.9562507,35.4636139 16.9631731,33.4249063 16.9646943,30.6670312 L16.9649977,29.7892101 C16.9650441,29.48968 16.9650372,29.1836134 16.9649818,28.8721701 L16.9646744,27.9228699 C16.9641811,26.8527467 16.963199,25.7357682 16.9618986,24.6148878 L16.9610816,23.9422349 C16.9546878,18.8989813 16.9425396,13.9506755 16.9401739,13.0114469 L16.9399178,12.9103175 C16.9398852,12.8975368 16.9398578,12.8868217 16.9398358,12.8782153 L16.9395955,12.8409805 C16.9366474,12.7157809 16.883581,11.5832239 15.9283863,11.375838 C14.9170037,11.156253 14.249207,11.0425855 14.249207,11.0425855 L14.2375819,11.0425855 C14.2375819,11.0425855 13.6227439,10.8772509 13.6227439,10.3269968 C13.6227439,9.77674268 13.9004544,9.4512402 14.6883769,9.4512402 L24.0721096,9.45145403 C24.1955694,9.45466114 25.1832478,9.50597498 25.1832478,10.3269968 C25.1832478,11.2027534 24.8461202,11.2027534 24.2312823,11.375838 C24.1025953,11.4120651 23.9639493,11.4331273 23.8251507,11.4558068 L23.7327032,11.4713502 C23.2406776,11.5574908 22.7742713,11.7112233 22.7742713,12.6868896 L22.7742713,32.8848336 C22.7742713,32.8848336 22.7697246,32.9456524 22.7684761,33.0507811 L22.7682186,33.1272502 C22.7717807,33.8575117 22.9501815,35.9971683 24.9055374,36.1747334 C27.2667218,36.3891518 31.8650899,36.9497393 34.9547799,35.1323506 C35.1607274,35.0214007 35.3635012,34.9052438 35.5629219,34.7840321 L35.5683261,34.7603478 C39.812775,32.3539546 43.3300099,25.4344441 43.2654259,19.7949849 C43.1414246,9.48353209 34.8114038,3.45011158 24.8887456,3.56248743 C12.9097385,3.69682178 4.77217717,12.9826835 4.9013448,24.4786036 C4.86941681,34.9889215 13.0276156,43.7063974 23.5169852,44.37042 C27.4527233,44.8444654 33.0004734,43.6031644 38.5469321,40.711101 C40.9521386,39.4634014 43.1680673,37.8760586 45.1241482,35.9977738 C40.9971394,42.9053051 33.5729293,47.1674242 25.5268337,47.2482754 C11.7058961,47.4019849 1.65794533,37.2636166 1.50165248,24.0768922 C1.42756346,17.8855552 3.84750922,11.9247511 8.21639464,7.53715684 C12.58528,3.14956257 18.535689,0.704167597 24.727286,0.751799561 Z M25.8394194,10.2482046 C25.7864607,9.32465588 26.9877197,9.56619941 26.9877197,9.56619941 L26.9877197,9.56232439 C29.9107835,9.48353209 35.7052438,10.5000815 36.1818724,15.5647446 C36.6277508,20.3026554 33.413443,21.6991484 32.5738549,21.9875726 L32.5197905,22.0057343 C32.4863553,22.0167071 32.4582332,22.0254462 32.4360108,22.0321684 C31.9193403,22.1884613 31.1249593,22.3460458 31.1624179,22.6185895 C31.1998766,22.8911333 32.3920939,23.0874681 32.3920939,23.0874681 C32.3920939,23.0874681 37.3379228,24.4501867 37.3379228,28.6184264 C37.3379228,35.5428712 29.9078953,35.7848564 29.016292,35.788968 L28.9683954,35.788968 C28.9619374,35.788968 28.9562531,35.788968 28.9513591,35.788968 L28.9291094,35.7885222 C30.6318898,34.5985136 31.5836069,32.6008888 31.4349616,30.5288159 C31.437098,28.8827169 30.9477542,27.2734595 30.0296177,25.9071977 C29.1758304,24.8623739 27.9324142,24.211505 26.5873,24.1053091 L23.5479855,24.1053091 L23.5479855,21.9094592 C24.7790128,21.9914395 26.0152761,21.9416425 27.2357216,21.7609164 C28.3323549,21.4728725 30.0231593,20.2483633 30.2814946,16.9339217 C30.5814534,14.7410032 29.3446524,12.6268682 27.286097,11.8137164 C26.2372557,11.4236301 25.8923781,11.1717532 25.8394194,10.2482046 Z" id="Combined-Shape" fill="#231F20" fill-rule="nonzero"></path>
        </g>
    </g>
</svg>