<?xml version="1.0" encoding="UTF-8"?>
<svg width="48px" height="48px" viewBox="0 0 48 48" version="1.1" xmlns="http://www.w3.org/2000/svg" xmlns:xlink="http://www.w3.org/1999/xlink">
    <title>ro-romaneasca</title>
    <g id="Page-1" stroke="none" stroke-width="1" fill="none" fill-rule="evenodd">
        <g id="ro-romaneasca">
            <rect id="Rectangle" x="0" y="0" width="48" height="48"></rect>
            <path d="M28.9958663,4.875 C29.0356643,4.88337854 29.077557,4.88966244 29.1152605,4.90223025 C32.8751303,6.05218486 36.3647922,7.72579822 39.4564734,10.1828051 C41.2285346,11.5924944 42.7722806,13.2137419 44.0060206,15.1198597 C45.0386756,16.7180662 45.788555,18.4335723 46.1865356,20.2977974 C46.4881631,21.7074868 46.5740431,23.1297439 46.4357972,24.5645689 C46.1593054,27.4195564 45.0700952,29.9540647 43.3860086,32.2518793 C42.0370637,34.0930635 40.3948699,35.6389041 38.5557804,36.9794705 C36.2705336,38.6426106 33.7800126,39.9119595 31.1344886,40.890154 C28.9099862,41.7133455 26.6247395,42.3082219 24.2871268,42.6999186 C22.8125038,42.9470856 21.3295022,43.1125617 19.8381221,43.202631 C18.2692405,43.2989842 16.6982642,43.3073628 15.1293826,43.2277666 C11.1956581,43.0266817 7.36247611,42.3124111 3.65287754,40.9676555 C3.57537605,40.9404252 3.49996919,40.9069111 3.42456233,40.8775862 C3.4287516,40.8650184 3.43294087,40.8545452 3.4350355,40.844072 C3.48740138,40.8545452 3.53976725,40.8629237 3.59003849,40.8775862 C4.94526733,41.2420527 6.31306398,41.5457747 7.70180697,41.7489543 C8.68838005,41.8934842 9.68123704,42.0065944 10.6719994,42.1029476 C12.0544585,42.2390989 13.4452961,42.2809916 14.8340391,42.2600453 C16.0007508,42.2432882 17.1632732,42.1804491 18.323701,42.0715281 C20.1041407,41.9018627 21.8678234,41.6232762 23.6084651,41.2211063 C27.1463036,40.4000094 30.5060981,39.128566 33.622915,37.2475837 C35.3195693,36.2212126 36.8947348,35.0356492 38.3065188,33.6385277 C40.0806746,31.8811289 41.5196889,29.889131 42.4559907,27.5598969 C42.9964065,26.2172359 43.3357374,24.8263983 43.453037,23.3831948 C43.6645951,20.7732796 43.166072,18.3016103 42.0349691,15.9472405 C41.1531277,14.1102457 39.9549965,12.4952821 38.5306447,11.0478893 C36.5533093,9.03703972 34.2701572,7.4493064 31.7649737,6.17367369 C30.9271197,5.74636816 30.0557516,5.38190167 29.2011405,4.99020492 C29.1320175,4.9587854 29.0608,4.92946051 28.9958663,4.875 Z M18.7719529,35.1759897 C19.3416936,35.2074093 19.9156236,35.1885576 20.4874589,35.180179 C20.636178,35.1780844 20.7304366,35.2241663 20.8163166,35.3435605 C21.3127451,36.0347901 21.9180946,36.6191932 22.6114188,37.1114325 C23.0219673,37.4025867 23.4513675,37.6623215 23.9582691,37.7586747 C23.9917833,37.7649586 24.0232028,37.7817157 24.073474,37.802662 C23.901714,37.9618543 23.7383324,38.112668 23.5707616,38.267671 C23.3466357,38.1503714 23.1225098,38.0372611 22.9025731,37.9178669 C22.0144478,37.4340063 21.2708524,36.7783855 20.6257049,36.0054652 C20.5942853,35.9677618 20.5565819,35.932153 20.5377302,35.8881656 C20.4665126,35.7331626 20.349213,35.6954592 20.1858315,35.6996485 C19.7250118,35.7101217 19.2641921,35.708027 18.805467,35.7017431 C18.6860729,35.6996485 18.6190445,35.7415412 18.5541108,35.8420837 C18.1100482,36.5521649 17.5738217,37.1847447 16.9056331,37.6895517 C16.5683969,37.9450972 16.1892679,38.1461822 15.8268961,38.3682135 C15.7158804,38.4352418 15.592297,38.4876077 15.4582403,38.554636 C15.3178998,38.399633 15.17337,38.2404407 15.0162724,38.066586 C15.0686382,38.0498289 15.1356665,38.0225987 15.2047895,38.0058416 C15.5755399,37.9136777 15.902303,37.7377283 16.2185928,37.5240756 C16.6207628,37.2538677 16.9915131,36.9459563 17.3098977,36.5856791 C17.6010519,36.2568214 17.8712598,35.9070174 18.1037643,35.536267 C18.2713351,35.2681537 18.4493791,35.1592327 18.7719529,35.1759897 Z M27.2615085,10.0236128 C28.1705801,11.4961412 28.5999803,13.1027262 28.5224788,14.8308001 C28.4240309,17.0071259 27.579893,18.871351 26.0885129,20.4486111 C25.9984436,20.5449643 25.9083743,20.6455068 25.8057372,20.7271976 C25.6821537,20.8256454 25.640261,20.942945 25.6591127,21.0937587 C25.663302,21.160787 25.6716805,21.2278154 25.6821537,21.3241686 C26.2100017,21.1419353 26.7210927,21.0099733 27.2489407,20.9366611 C29.0880302,20.6811156 30.8579968,20.9136201 32.5357994,21.7158653 C34.7540178,22.773656 36.3270887,24.4451747 37.1544695,26.7723142 C38.1724622,29.6356802 37.5294092,32.8488503 35.4976133,35.1550434 C34.0544098,36.793048 32.2467398,37.7963781 30.0955496,38.1440875 C26.3943296,38.7431531 22.7496647,37.1240003 20.8016542,33.9736693 C20.705301,33.8186663 20.6110424,33.6636633 20.5335409,33.5002818 C20.4727965,33.3704144 20.3932004,33.3180485 20.2444813,33.3201431 C19.7773777,33.3306163 19.3081794,33.3285217 18.8410758,33.3201431 C18.7007353,33.3180485 18.6316123,33.3683197 18.5687733,33.4898086 C17.7937583,34.9581477 16.6877911,36.1143862 15.2655339,36.9669027 C14.0988222,37.6665107 12.8357573,38.0959109 11.4805285,38.2111158 C8.18147839,38.4897023 5.44588509,37.3795458 3.34077693,34.8115233 C2.34582531,33.596635 1.75304361,32.184851 1.56871573,30.6243479 C1.25242584,27.9557829 2.02953542,25.6244542 3.86862494,23.6701598 C5.30554455,22.1431708 7.08598429,21.2445724 9.16176756,20.9387557 C10.8584219,20.6894942 12.5006157,20.8947684 14.0862544,21.5524838 C14.1428096,21.5755248 14.1993647,21.5943765 14.2747716,21.5859979 L14.0841598,21.4456574 C12.3560859,20.1825925 11.1726171,18.5362094 10.6992296,16.4394798 C10.0310411,13.471382 10.766258,10.8468044 12.8210949,8.61601809 C14.2245003,7.09112382 15.9839937,6.1862415 18.0304521,5.85319454 C21.6688331,5.2583182 25.3323497,6.89422813 27.2615085,10.0236128 Z M9.18690318,21.4833608 C7.13835016,21.7954614 5.39980312,22.7129116 4.03410111,24.2755093 C2.36677166,26.187911 1.73000262,28.4228865 2.15521352,30.92807 C2.45474633,32.6917526 3.30097886,34.1768489 4.59546329,35.4063996 C6.81368174,37.5115078 10.0457035,38.2760495 12.9991389,37.383735 C15.1189095,36.7427767 16.7611033,35.4734279 17.904774,33.5714993 C17.9466667,33.5023764 17.9822755,33.4290642 18.0388306,33.3243324 L17.7518656,33.3243324 C16.8448887,33.3243324 15.9358171,33.3452788 15.0309348,33.3159539 C14.3795033,33.2950075 13.7867216,33.4353481 13.2442112,33.791436 C13.2148863,33.8102877 13.1792775,33.8186663 13.1457633,33.8333287 C13.1352901,33.8228555 13.124817,33.8123824 13.1164384,33.7998146 C13.2316433,33.6175813 13.3447536,33.4353481 13.4620532,33.2552095 C13.6610435,32.9514874 13.8746963,32.6582385 14.0611188,32.3482325 C14.2705823,31.9984285 14.4151121,31.6192995 14.4318692,31.2045618 C14.4381531,31.036991 14.421396,30.8694202 14.4276799,30.703944 C14.4590994,29.826292 14.51356,28.9465453 14.5282224,28.0688932 C14.5575473,26.2130466 14.5659258,24.3572 14.5847775,22.4992588 C14.5826829,22.4510822 14.576399,22.4029056 14.5743044,22.3568236 C14.553358,22.3400665 14.5366009,22.3274987 14.5198439,22.3170255 L14.3711248,22.2416187 C12.7184578,21.4686984 10.9882893,21.2110583 9.18690318,21.4833608 Z M25.9879704,21.7828936 C25.9188475,21.8059346 25.8497245,21.8352595 25.7659391,21.866679 C25.8476299,22.1159406 25.9104689,22.3526343 26.0047275,22.5767603 C26.3168281,23.3308289 26.6373073,24.0807082 26.9577864,24.8326822 C27.3013066,25.6433059 27.6175964,26.4623082 27.7998297,27.3273924 C27.9506434,28.0437576 28.0030093,28.764312 27.8836151,29.4911504 C27.7307067,30.4190737 27.3117797,31.2171296 26.7085249,31.9293055 C26.2623676,32.4571535 25.7072893,32.8090522 25.0516686,33.0143264 C24.4546976,33.2007489 23.8388749,33.2824397 23.2167683,33.3033861 C22.5883778,33.3243324 21.9599873,33.3222378 21.3315968,33.3285217 C21.2582846,33.3243324 21.1849724,33.3243324 21.1116602,33.3243324 C21.1116602,33.3683197 21.1074709,33.3829822 21.1116602,33.3934554 C21.1388904,33.4500105 21.1682153,33.504471 21.1996348,33.5589315 C21.6918741,34.3988802 22.3056021,35.1361917 23.0617653,35.7478251 C25.1061291,37.4046814 27.4395525,38.0414504 30.0348052,37.6162395 C32.3242413,37.2433945 34.1758986,36.103913 35.5374113,34.2250255 C36.8737885,32.3838413 37.3534599,30.3164366 36.9366275,28.0751771 C36.5470254,25.9721636 35.4368689,24.2985502 33.7150789,23.0354853 C32.2844432,21.9860732 30.6694796,21.4519413 28.8974184,21.3870076 C27.9066561,21.3513988 26.9347454,21.470793 25.9879704,21.7828936 Z M10.0477982,22.6521671 L10.0477982,23.0522424 C9.93678251,23.060621 9.82786149,23.0689995 9.71894047,23.0752834 C7.49862738,23.2240025 5.74541789,24.202197 4.51167789,26.0601383 C3.77855564,27.1640109 3.44760331,28.3977509 3.54186189,29.7194656 C3.69477024,31.8853182 4.73580383,33.5400798 6.56232554,34.6879398 C8.85804549,36.1290487 11.9497267,35.994992 14.0883491,34.3130001 C14.1239578,34.279486 14.1637559,34.2522557 14.2077432,34.2187416 C14.2412574,34.2627289 14.266393,34.2941484 14.289434,34.3276626 C14.3313267,34.3905016 14.3711248,34.4554353 14.4193014,34.5287475 C14.3690301,34.5748295 14.3250428,34.6188168 14.2768662,34.6565203 C13.3133341,35.421062 12.21784,35.8818817 10.9987624,36.0306008 C8.76797618,36.3029034 6.80949247,35.6870807 5.16939327,34.1454293 C3.99220841,33.0394621 3.28841105,31.6695708 3.1417866,30.0546072 C2.91766066,27.5640862 3.85815177,25.5658044 5.82291939,24.0513833 C6.85138517,23.2575167 8.03694857,22.8218326 9.33143299,22.6982491 C9.56393748,22.6752081 9.80063123,22.6668296 10.0477982,22.6521671 Z M28.945595,22.4427036 C29.2514117,22.46365 29.5279036,22.4699339 29.8023007,22.5034481 C31.4905765,22.7191955 32.9379693,23.4250875 34.1088703,24.6651114 C35.160377,25.7794572 35.7782944,27.1032665 35.8955939,28.63235 C36.0485023,30.6306318 35.4054493,32.3608003 34.0041385,33.791436 C32.785061,35.0377438 31.2873969,35.7247841 29.5509445,35.8672193 C27.7998297,36.0096545 26.2037178,35.5781597 24.7835553,34.5308422 C24.716527,34.4826656 24.6536879,34.4261104 24.5761864,34.365366 C24.6453094,34.2501611 24.7081484,34.1433347 24.779366,34.0260351 C24.8338265,34.0616439 24.8820031,34.0888742 24.9238958,34.1202937 C26.2120964,35.0838258 27.6615838,35.5488348 29.2702634,35.4734279 C32.0582226,35.3435605 34.3832675,33.5317013 35.1897019,31.0621266 C35.9689061,28.678432 35.2022697,26.0664222 33.2395968,24.4242283 C32.0686958,23.4460338 30.713467,22.9412268 29.1906673,22.8762931 C29.1299229,22.8762931 29.0670839,22.8721038 28.9874877,22.8658199 C28.9749199,22.7338579 28.9623521,22.6060852 28.945595,22.4427036 Z M22.2804665,25.2474199 C22.117085,25.2955965 21.962082,25.3772873 21.7945112,25.4485049 C22.1108011,26.6633931 22.7601379,27.685575 23.3885284,28.724514 C22.179924,28.0961235 21.2624739,27.1493485 20.4623233,26.0622329 C19.8067026,26.3617657 19.161555,26.6571092 18.5373538,26.9419796 L18.5358798,28.4044227 L18.5352591,31.3134828 C18.6504641,31.3030096 18.7405334,31.2967257 18.8306027,31.2841579 C20.2738062,31.0767891 21.7170097,30.8757041 23.1602132,30.6557674 C23.5623831,30.595023 23.9436067,30.4442093 24.2640858,30.1802853 C24.5699025,29.9289291 24.7458519,29.6168285 24.739568,29.2020908 L24.7333616,28.5318076 L24.7353787,27.1912412 C24.7353787,26.6885288 24.5782811,26.2298037 24.3185463,25.8066874 C24.1237453,25.4903976 23.8409696,25.2830287 23.4785977,25.1908648 C23.0743332,25.0882276 22.6742579,25.132215 22.2804665,25.2474199 Z M20.8519254,16.3661675 C20.7786132,16.4059656 20.7032063,16.4457637 20.636178,16.4939403 C20.3764433,16.6824574 20.1146139,16.8688799 19.8611631,17.0657756 C19.3039902,17.4972704 18.7489119,17.9329545 18.1938336,18.3644493 C18.1582248,18.3916796 18.1142375,18.4084367 18.0534931,18.4398562 C18.0388306,17.9580901 18.0241682,17.5014597 18.0095058,17.0301668 C17.5863895,17.0259776 17.1842196,17.0238829 16.7715765,17.0322615 C17.1528,20.7544278 17.1695571,24.4409854 16.6438037,28.127543 L18.0493038,28.127543 C18.0388306,27.375569 18.0283575,26.6403522 18.0178843,25.9093246 C18.6483694,25.5322903 19.2579082,25.1678238 19.8716363,24.8012626 C20.2256296,25.4296531 20.6089478,26.009867 21.0592943,26.5460936 C21.5326818,27.1095504 22.0437727,27.6332091 22.6470276,28.0584201 C22.6972989,28.0940288 22.7433808,28.1484894 22.8313555,28.1422055 C22.776895,28.0479469 22.7266237,27.97254 22.684731,27.8908493 C22.4229017,27.381853 22.1485045,26.8812352 21.9097161,26.3617657 C21.6730223,25.8464855 21.520114,25.3018804 21.4845052,24.7300451 C21.4719374,24.5226762 21.4447071,24.3132127 21.4049091,24.1079385 C21.3525432,23.8440145 21.1388904,23.7099578 20.8749664,23.7686076 C20.8016542,23.7853647 20.728342,23.8146896 20.659219,23.8440145 C20.4602287,23.9277999 20.2612384,24.0157745 20.0643427,24.1037492 C19.7899455,24.225238 19.5092644,24.334159 19.2453404,24.472405 C18.8599276,24.6734899 18.3676883,24.644165 18.0241682,24.3823356 C17.8314618,24.2357112 17.6680802,23.7874593 17.8649759,23.5109675 C18.0325467,23.2763684 18.2189693,23.0627156 18.4870825,22.9370375 C18.5813411,22.8930502 18.673505,22.8406843 18.7635743,22.7883184 C19.7941348,22.1808743 20.8288844,21.5713355 21.8636341,20.9638913 C21.939041,20.919904 21.9746498,20.8696328 21.9914069,20.787942 C22.117085,20.1092803 22.2427631,19.4306185 22.3705358,18.7519568 C22.4061446,18.5592504 22.3893875,18.3770171 22.2993182,18.2031624 C22.0039747,17.6418003 21.7128204,17.0762488 21.4090983,16.5190759 C21.2687578,16.2614358 21.1158494,16.2279216 20.8519254,16.3661675 Z M15.2278305,7.41579224 C12.2555434,9.09150023 10.5086179,12.3989289 11.1516708,15.8990639 C11.5496514,18.0670112 12.6849436,19.7804226 14.4570048,21.0790963 C14.4863297,21.1021373 14.5261278,21.1105158 14.5784936,21.1335568 L14.5784936,20.9471343 C14.5701151,20.3040813 14.5596419,19.663123 14.553358,19.0200701 C14.5386956,17.218684 14.5240331,15.4193925 14.5114653,13.6180064 C14.5072761,12.983332 14.5051814,12.3486576 14.3732194,11.7223618 C14.2286896,11.026943 14.0087529,10.3629437 13.583542,9.77854051 C13.5646903,9.75131025 13.5521225,9.71989073 13.5311761,9.67590339 C13.5898259,9.67799803 13.6317186,9.67799803 13.6715167,9.6821873 C14.2161218,9.75759416 14.7607269,9.8497581 15.3095213,9.90421861 C15.8227068,9.95448985 16.3421763,9.96077375 16.8553619,9.8916508 C17.0962449,9.86232591 17.330844,9.80577076 17.5738217,9.75759416 C17.5612539,9.98800401 17.5424021,10.2226031 17.5382129,10.4572022 C17.5340236,10.7441672 17.5507807,11.0311322 17.6555124,11.3013401 C17.7811905,11.6260086 18.0157897,11.8061472 18.369783,11.8208096 C18.6316123,11.8312828 18.8829685,11.7789169 19.1301355,11.7014154 C19.6516996,11.5380339 20.1460334,11.3097187 20.6257049,11.0520786 C21.6478867,10.5074735 22.6637847,9.95239521 23.6817773,9.39941158 C23.7529949,9.36170815 23.8263071,9.32609935 23.9142818,9.28211202 C23.9226603,9.34914034 23.9289442,9.3889384 23.9310389,9.42873646 C23.9729316,10.0676001 24.1237453,10.6813282 24.3730068,11.2720153 C24.607606,11.8270935 24.911328,12.3444684 25.2339018,12.8492754 C25.5271507,13.3080005 25.8329674,13.758347 26.1073646,14.2296399 C26.2895979,14.5417405 26.4487901,14.8705982 26.5786575,15.2078344 C26.8802849,15.9996064 26.7964995,16.7683375 26.3775725,17.5035543 C26.1199324,17.9559955 25.7826962,18.3455976 25.4119458,18.7079695 C24.5887543,19.5102147 23.6461685,20.1469837 22.667974,20.7292922 C21.2876095,21.5482945 19.8883933,22.3337826 18.501745,23.1402171 C18.3488366,23.2302864 18.2126853,23.3580591 18.0911965,23.4879265 C17.9592345,23.6303617 17.9445721,23.8125949 18.0053165,23.9990174 C18.0870072,24.2566575 18.2859976,24.3739571 18.5310699,24.4179444 C18.7719529,24.4619318 18.9981735,24.4053766 19.2181101,24.2964556 C19.5239268,24.1456419 19.8360275,24.0053013 20.1481281,23.8691501 C20.5754336,23.6827276 21.0257801,23.542387 21.4007198,23.2491381 C21.4949784,23.1758259 21.5913316,23.1067029 21.6876848,23.0396746 C22.8753428,22.2164831 24.0609062,21.3932915 25.2485643,20.5680053 C25.3176872,20.5198287 25.3847155,20.4716521 25.4475546,20.415097 C26.1073646,19.8202206 26.656159,19.1394643 27.075086,18.3560708 C27.602934,17.3674031 27.8731419,16.3096124 27.9590219,15.1952666 C28.0951732,13.4399625 27.7411799,11.7977686 26.7923103,10.3147671 C25.2234287,7.8682334 22.954939,6.54442409 20.0559641,6.32029814 C18.3404581,6.18833614 16.7254945,6.56955971 15.2278305,7.41579224 Z M20.481175,17.7297749 C20.5754336,17.7611944 20.6613136,17.832412 20.7388151,17.901535 C21.0236855,18.1633644 21.1493636,18.5131684 21.2310544,18.8755403 C21.2938934,19.1562214 21.319029,19.4473756 21.3609217,19.7364352 C21.3525432,20.1113749 21.2897041,20.4653682 21.1158494,20.7942259 C21.0425372,20.9345665 20.9587518,21.0770016 20.8540201,21.1963958 C20.6508405,21.4268057 20.4539448,21.6634994 20.1816422,21.8205971 C19.8737309,21.998641 19.5658195,22.1745904 19.2516243,22.3400665 C19.0714857,22.4364197 18.8704007,22.4657446 18.6630319,22.4573661 C18.3781615,22.4447983 18.2231585,22.2374294 18.254578,21.9546537 C18.277619,21.7410009 18.2692405,21.5231589 18.2713351,21.3074115 C18.2755244,20.6853049 18.2839029,20.0652929 18.277619,19.4431863 C18.2755244,19.1729784 18.3216064,18.9300008 18.5164074,18.7331051 C18.6672211,18.5801967 18.8096563,18.4147206 18.9793218,18.2827586 C19.1929745,18.1151878 19.4233844,17.9664687 19.6558889,17.8282228 C19.9114343,17.6753144 20.19421,17.6355163 20.481175,17.7297749 Z M9.97029667,15.6330453 C9.99543229,16.535833 10.1734763,17.4009172 10.5232803,18.2199195 C10.8709897,19.0431111 11.4742446,19.686164 12.0963512,20.3250277 C10.2844919,20.0171163 8.55222878,20.2056335 6.87023688,21.0141626 C6.72361243,20.8717274 6.5602309,20.7146298 6.39266011,20.5512483 C6.42617427,20.5282073 6.44083671,20.5114502 6.45968843,20.5072609 C6.83043882,20.4507058 7.15929651,20.2726618 7.50700592,20.1532676 C8.41188823,19.8432616 9.34190617,19.6756908 10.2991544,19.6673123 C10.4374003,19.6652177 10.5735515,19.6673123 10.743217,19.6673123 C10.7013243,19.5960947 10.6803779,19.554202 10.6531477,19.5164986 C10.1252997,18.8127012 9.78596879,18.0230238 9.61001945,17.1642235 C9.53461259,16.7955677 9.49481452,16.4206281 9.43825938,16.047783 C9.41731303,15.9179157 9.39008277,15.7880483 9.36494715,15.6414238 C9.56184284,15.605815 9.7566439,15.6225721 9.97029667,15.6330453 Z M30.2086599,15.2413486 C30.1102121,15.8446034 30.0389945,16.4331959 29.9091271,17.0092205 C29.8232471,17.3862548 29.6724334,17.7528159 29.5153357,18.1068092 C29.341481,18.5006006 29.1362068,18.8818242 28.8094438,19.2462907 C28.922554,19.2504799 28.9937716,19.2588585 29.0628946,19.2546692 C29.7080422,19.2316282 30.3469058,19.2881834 30.9732017,19.4389971 C31.413075,19.5458235 31.8424752,19.6924479 32.27397,19.8306938 C32.5714082,19.927047 32.8604678,20.0380627 33.1474328,20.1386052 C33.002903,20.2894189 32.8520893,20.4486111 32.7054648,20.6015195 C31.8843679,20.2098228 31.0423246,19.9752236 30.156294,19.8474509 C29.2639795,19.7196782 28.3905168,19.8306938 27.4604988,19.9417095 C27.5191486,19.864208 27.5484735,19.8160314 27.5861769,19.7741387 C27.8291546,19.5060254 28.0847,19.2462907 28.3192992,18.9697988 C28.7612671,18.4482347 29.0880302,17.8596423 29.2828313,17.2019269 C29.4692538,16.5714418 29.6074997,15.9325781 29.5823641,15.2497271 C29.7960168,15.2204022 29.9929125,15.2308754 30.2086599,15.2413486 Z M19.8821094,17.9308599 C19.8360275,17.9497116 19.7899455,17.9664687 19.7501474,17.9936989 C19.4841288,18.1696483 19.2097316,18.3393137 18.9541861,18.5299255 C18.6169499,18.7812817 18.4158649,19.0975716 18.4682308,19.5500127 C18.501745,19.8223153 18.4745147,20.1009017 18.4745147,20.4234755 C19.3689239,19.9417095 20.2277242,19.4808898 21.0969977,19.0116915 C21.0404426,18.8399315 21.0006445,18.693307 20.9440894,18.5508718 C20.8980074,18.4356669 20.8435469,18.320462 20.7786132,18.2136356 C20.5586765,17.8617369 20.2675223,17.7737623 19.8821094,17.9308599 Z M21.4279501,13.2807702 C20.4434716,13.7981451 19.4631824,14.3134253 18.4954611,14.8203269 L18.4954611,17.9287652 C18.7133031,17.7570052 18.9060095,17.6082861 19.0966213,17.4574724 C19.5385893,17.1034791 19.976368,16.7473911 20.418336,16.3954924 C20.5775282,16.2698143 20.7471937,16.162988 20.9503733,16.1127167 C21.147269,16.0645401 21.3106505,16.116906 21.4426125,16.2635304 C21.5012623,16.3305588 21.5515335,16.4080602 21.5934262,16.4876564 C21.8384985,16.9421922 22.0772869,17.3988226 22.3223592,17.8533584 C22.3872929,17.9748472 22.4606051,18.0921468 22.5276334,18.2094463 C22.8816267,18.0502541 23.1811595,17.7842354 23.3319733,17.4658509 C23.5309636,17.0511132 23.5519099,16.6384701 23.2942698,16.2321109 C22.7014881,15.2958091 22.1128957,14.355318 21.5222086,13.4148268 C21.4949784,13.3729341 21.4656535,13.3352307 21.4279501,13.2807702 Z" id="Combined-Shape" fill="#000000" fill-rule="nonzero"></path>
        </g>
    </g>
</svg>