<?xml version="1.0" encoding="UTF-8"?>
<svg width="48px" height="48px" viewBox="0 0 48 48" version="1.1" xmlns="http://www.w3.org/2000/svg" xmlns:xlink="http://www.w3.org/1999/xlink">
    <title>sr-cbvs</title>
    <g id="Page-1" stroke="none" stroke-width="1" fill="none" fill-rule="evenodd">
        <g id="sr-cbvs">
            <rect id="Rectangle" x="0" y="0" width="48" height="48"></rect>
            <path d="M24.5,2 C36.9264069,2 47,12.0735931 47,24.5 C47,36.9264069 36.9264069,47 24.5,47 C12.0735931,47 2,36.9264069 2,24.5 C2,12.0735931 12.0735931,2 24.5,2 Z M24.575,3.2 C12.7699135,3.2 3.2,12.7699135 3.2,24.575 C3.2,36.3800865 12.7699135,45.95 24.575,45.95 C36.3800865,45.95 45.95,36.3800865 45.95,24.575 C45.95,12.7699135 36.3800865,3.2 24.575,3.2 Z M21.5511245,39.4274801 C21.6111245,40.4324801 21.3261245,41.2574801 21.3711245,42.1274801 C21.4011245,42.5474801 21.4761245,42.8624801 21.9411245,42.9374801 C22.4511245,43.0124801 22.7211245,42.6974801 22.7961245,42.3074801 C22.9311245,41.6324801 22.9461245,40.9424801 23.0211245,40.2524801 C23.0511245,40.0274801 22.8411245,39.6374801 23.3211245,39.6524801 C23.6961245,39.6674801 23.9811245,39.8174801 23.9211245,40.2974801 C23.8011245,41.1524801 23.7561245,42.0074801 23.5911245,42.8474801 C23.4411245,43.5674801 22.6611245,43.8674801 21.6111245,43.7024801 C21.0261245,43.6124801 20.5161245,43.0124801 20.4711245,42.4424801 C20.3961245,41.5424801 20.6061245,40.6724801 20.6511245,39.7724801 C20.6961245,38.9924801 21.2961245,39.7874801 21.5511245,39.4274801 Z M26.8011245,39.4874801 C27.7461245,39.5024801 28.2861245,40.3724801 27.7911245,41.1674801 C27.5961245,41.4674801 27.6861245,41.5874801 27.8511245,41.7974801 C28.1811245,42.2474801 27.7611245,42.8774801 28.3011245,43.3124801 C27.3411245,43.6124801 27.1761245,43.5524801 27.1011245,42.6524801 C27.0261245,41.6474801 26.3061245,42.0674801 25.8711245,42.0824801 C25.3311245,42.0974801 25.6011245,42.5924801 25.6311245,42.8924801 C25.6371245,42.9524801 25.6557245,43.0160801 25.6769645,43.0802801 L25.7200134,43.2085912 C25.7877912,43.4208134 25.8111245,43.6174801 25.4211245,43.6874801 C24.8811245,43.7924801 24.8511245,43.4174801 24.8211245,42.9974801 C24.7611245,42.0374801 24.6261245,41.0924801 24.5361245,40.1324801 C24.5061245,39.8174801 24.5661245,39.6674801 24.9561245,39.6224801 C25.5711245,39.5474801 26.1861245,39.4874801 26.8011245,39.4874801 Z M29.5161245,39.5774801 C29.7411245,40.6274801 29.9961245,41.6624801 30.2211245,42.7124801 C30.2811245,42.9824801 30.1761245,43.2074801 29.8461245,43.2374801 C29.5611245,43.2524801 29.3661245,43.2674801 29.3061245,42.8624801 C29.1261245,41.7974801 28.8411245,40.7324801 28.6011245,39.6674801 C28.5111245,39.3074801 28.6911245,39.1574801 29.0511245,39.2024801 C29.3511245,39.1274801 29.4561245,39.2924801 29.5161245,39.5774801 Z M18.5211245,38.3024801 C19.3461245,38.4374801 20.1711245,38.6174801 20.2311245,39.4874801 C20.2461245,39.7424801 20.3061245,39.9974801 20.0361245,40.0574801 C19.8111245,40.1174801 19.5261245,39.9974801 19.4661245,39.7274801 C19.3461245,39.2474801 18.9711245,39.1424801 18.5961245,39.0524801 C18.3111245,38.9774801 18.1011245,39.1874801 17.9961245,39.4124801 C17.8911245,39.6524801 18.1311245,39.7274801 18.3111245,39.8174801 C18.5961245,39.9674801 18.8661245,40.1324801 19.1361245,40.2974801 L19.3287468,40.4177112 C19.7435912,40.6809468 20.1171245,40.9764801 19.9611245,41.5874801 C19.7661245,42.3224801 19.3161245,42.6524801 18.4911245,42.6374801 C17.6211245,42.6374801 17.0361245,42.2474801 16.7061245,41.4974801 C16.6011245,41.2574801 16.4511245,41.0024801 16.7511245,40.8674801 C17.0361245,40.7474801 17.3661245,40.8824801 17.4711245,41.1824801 C17.6661245,41.7224801 18.0261245,41.8874801 18.5511245,41.8874801 C18.8361245,41.8874801 19.0461245,41.7074801 19.1061245,41.4824801 C19.1661245,41.2724801 18.9411245,41.1374801 18.7761245,41.0324801 C18.4611245,40.8524801 18.1311245,40.6874801 17.8011245,40.5374801 C17.1711245,40.2224801 17.0661245,39.6674801 17.2611245,39.0974801 C17.4411245,38.5274801 17.9061245,38.2124801 18.5211245,38.3024801 Z M33.2811245,37.9724801 C33.7011245,38.8574801 34.1511245,39.7424801 34.5111245,40.6424801 C34.5711245,40.7924801 34.9611245,41.0624801 34.5261245,41.3174801 C34.1811245,41.5124801 33.8961245,41.6474801 33.5361245,41.3774801 C33.0261245,40.9874801 32.5161245,40.6124801 31.9911245,40.2524801 C31.9011245,40.1774801 31.7811245,40.1324801 31.4811245,39.9974801 C31.7811245,40.6874801 31.9761245,41.1824801 32.2011245,41.6624801 C32.3211245,41.9474801 32.6811245,42.1874801 32.1411245,42.4574801 C31.5561245,42.7574801 31.5561245,42.2774801 31.4211245,41.9924801 C31.0161245,41.1824801 30.6411245,40.3574801 30.2511245,39.5474801 C30.1461245,39.3074801 29.9061245,38.9774801 30.1761245,38.8124801 C30.4761245,38.6324801 30.8361245,38.4224801 31.2561245,38.7674801 C31.8261245,39.2474801 32.4861245,39.6524801 33.2361245,40.0274801 C32.9961245,39.4724801 32.7261245,38.9324801 32.5161245,38.3624801 C32.5011245,38.3204801 32.4753245,38.2760801 32.4479645,38.2302401 L32.3939023,38.1369245 C32.3094579,37.9791468 32.2761245,37.8124801 32.6361245,37.6724801 C33.0711245,37.5074801 33.1461245,37.6874801 33.2811245,37.9724801 Z M25.4211245,40.7624801 C25.4361245,41.2724801 25.6461245,41.3174801 26.0511245,41.3024801 C26.5011245,41.2724801 27.0261245,41.3024801 27.0711245,40.7174801 C27.1311245,40.0574801 26.5611245,40.2974801 26.2311245,40.2374801 C25.8561245,40.2824801 25.4061245,40.0574801 25.4211245,40.7624801 Z M34.7361245,36.2324801 C35.9661245,36.7124801 37.1961245,37.2224801 38.4711245,37.7474801 C38.0811245,38.1224801 37.9161245,38.5874801 37.2261245,38.2424801 C36.7611245,38.0024801 36.5961245,38.7374801 36.2511245,38.9624801 C35.9211245,39.1724801 36.1461245,39.4574801 36.2811245,39.5924801 C36.6261245,39.9374801 36.4311245,40.1324801 36.1911245,40.3724801 C35.9361245,40.6424801 35.7861245,40.5524801 35.6361245,40.2674801 C35.0811245,39.2624801 34.5111245,38.2724801 33.9411245,37.2674801 C33.8061245,37.0274801 33.7911245,36.8024801 33.9861245,36.5924801 C34.1811245,36.3674801 34.3911245,36.0974801 34.7361245,36.2324801 Z M13.0461245,34.6874801 C13.2111245,34.8674801 13.5111245,34.9424801 13.3611245,35.3324801 C13.0611245,36.1424801 12.8511245,36.9824801 12.5511245,38.0174801 C13.1811245,37.4774801 13.6911245,37.0874801 14.1261245,36.6374801 C14.3961245,36.3674801 14.5311245,36.3224801 14.8311245,36.6074801 C15.1761245,36.9224801 14.9361245,37.0574801 14.7411245,37.2374801 C13.9611245,37.8974801 13.2111245,38.5874801 12.5061245,39.3074801 C12.3711245,39.4424801 12.1761245,39.8474801 11.9361245,39.5324801 C11.7711245,39.3074801 11.3661245,39.1424801 11.5761245,38.6624801 C11.8461245,38.0624801 11.9661245,37.4024801 12.1761245,36.7724801 C12.2361245,36.6224801 12.2811245,36.4874801 12.1161245,36.3374801 C11.5761245,36.6824801 11.0961245,37.0724801 10.6611245,37.5524801 C10.4811246,37.7624801 10.3461246,37.8824801 10.0911245,37.5974801 C9.88112455,37.3574801 9.76112455,37.2074801 10.0611246,36.9374801 C10.8711245,36.2024801 11.6661245,35.4524801 12.4611245,34.7024801 C12.6561245,34.5224801 12.8511245,34.4774801 13.0461245,34.6874801 Z M35.0211245,37.4024801 C35.2461245,37.7624801 35.4261245,38.0774801 35.6511245,38.4524801 C35.8911245,38.2274801 36.2961245,38.0324801 36.1611245,37.8224801 C35.9511245,37.5074801 35.5011245,37.4024801 35.0211245,37.4024801 Z M38.0511245,32.0174801 C38.9661245,32.5874801 39.8661245,33.1874801 40.7811245,33.7574801 C40.9611245,33.8624801 41.0811245,33.9374801 40.9011245,34.1324801 C40.7211245,34.3124801 40.6611245,34.7324801 40.2411245,34.4474801 C39.8961245,34.2074801 39.5211245,33.9974801 39.0261245,33.6974801 C39.1761245,34.3124801 39.5661245,34.5224801 39.8511245,34.7924801 C40.1361245,35.0774801 40.1811245,35.3174801 39.9711245,35.6324801 C39.7611245,35.9474801 39.5211245,35.9324801 39.2061245,35.7974801 C38.7111245,35.6024801 38.2161245,35.4524801 37.6761245,35.3324801 C37.9911245,35.8274801 38.5911245,35.9474801 38.9961245,36.3224801 C39.0211245,36.3449801 39.0502912,36.3662301 39.0804301,36.3874106 L39.170569,36.4519245 C39.2861245,36.5408134 39.3661245,36.6474801 39.2061245,36.8474801 C39.0261245,37.0724801 38.8761245,37.3124801 38.4861245,37.0424801 C37.6311245,36.4724801 36.7461245,35.9624801 35.8761245,35.4074801 C35.6811245,35.2874801 35.2761245,35.1374801 35.6061245,34.8074801 C35.8611245,34.5524801 35.8161245,33.8474801 36.5361245,34.1624801 C37.1961245,34.4474801 37.9011245,34.6274801 38.5911245,34.8524801 C38.6211245,34.7924801 38.6661245,34.7474801 38.6961245,34.6874801 C38.2011245,34.1774801 37.7211245,33.6374801 37.1811245,33.1874801 C36.5961245,32.7074801 37.1661245,32.4374801 37.3161245,32.0924801 C37.4961245,31.6724801 37.8111245,31.8524801 38.0511245,32.0174801 Z M11.7411245,32.7974801 C11.8461245,33.0974801 12.0411245,33.3374801 11.7111245,33.6524801 C10.8111245,34.5074801 9.91112455,35.4074801 8.99612455,36.3074801 C8.69612455,35.9474801 8.45612455,35.6324801 8.95112455,35.1974801 C9.28112455,34.8974801 8.74112455,33.8474801 8.27612455,33.8024801 C8.12612455,33.7874801 7.97612455,33.8174801 7.82612455,33.7874801 C7.46612455,33.7124801 7.40612455,33.3674801 7.36112455,33.1124801 C7.33112455,32.9024801 7.63112455,32.9174801 7.82612455,32.8874801 C8.89112455,32.7524801 9.95612455,32.6024801 11.0211245,32.4674801 C11.3211245,32.4224801 11.6061245,32.4074801 11.7411245,32.7974801 Z M23.4411245,29.0174801 C24.1311245,29.0474801 24.8361245,29.0474801 25.5261245,29.0174801 C25.9161245,29.0024801 26.0511245,29.1374801 26.0361245,29.5274801 C26.0061245,30.4274801 26.0661245,31.3274801 26.0211245,32.2124801 C25.9761245,32.8724801 26.1411245,33.2024801 26.8611245,33.0674801 C27.0261245,33.0224801 27.2211245,33.0524801 27.6411245,33.0524801 C26.5761245,34.1024801 25.6461245,35.0174801 24.7461245,35.9324801 C24.5061245,36.1724801 24.4011245,36.1874801 24.1311245,35.9024801 C23.2611245,34.9724801 22.3461245,34.1024801 21.4461245,33.2174801 C21.4911245,33.1574801 21.5211245,33.0824801 21.5511245,33.0824801 C22.9611245,32.9924801 22.9611245,32.9924801 22.9611245,31.5824801 C22.9611245,30.8774801 22.9761245,30.1874801 22.9611245,29.4824801 C22.9461245,29.1224801 23.0811245,29.0024801 23.4411245,29.0174801 Z M23.7861245,29.4224801 C23.4411245,29.4374801 23.3061245,29.5274801 23.3211245,29.8874801 C23.3361245,30.7574801 23.3061245,31.6274801 23.3361245,32.4974801 C23.3511245,32.9624801 23.3061245,33.2924801 22.7211245,33.1724801 C22.5561245,33.1424801 22.3911245,33.2024801 22.3611245,33.3524801 C22.3461245,33.4274801 22.4661245,33.5624801 22.5411245,33.6524801 C23.0961245,34.2524801 23.6961245,34.8224801 24.2361245,35.4374801 C24.4461245,35.6774801 24.5361245,35.4824801 24.6411245,35.3924801 C25.3011245,34.7774801 25.9461245,34.1174801 26.6961245,33.3674801 C25.70067,33.326571 25.6101741,33.322852 25.6019472,32.6012517 L25.6011245,31.0874801 C25.6011245,29.3174801 25.6011245,29.3324801 23.7861245,29.4224801 Z M9.40112455,33.5174801 C9.46112455,33.8474801 9.53612455,34.2224801 9.79112455,34.2074801 C10.2261246,34.1924801 10.4061246,33.7274801 10.7661245,33.3974801 C10.2261246,33.2624801 9.85112455,33.6074801 9.40112455,33.5174801 Z M18.0411245,28.1924801 C18.7911245,28.1624801 19.5411245,28.1624801 20.2761245,28.1624801 C20.5011245,28.1624801 20.7411245,28.1474801 20.7411245,28.4924801 L20.7411245,32.1224801 C20.5911245,32.1074801 20.5311245,32.1224801 20.5011245,32.0924801 C20.1711245,31.8374801 19.9161245,31.2374801 19.5711245,31.3124801 C19.1811245,31.4024801 18.8661245,31.8974801 18.5211245,32.2124801 L18.2511245,32.4824801 C18.1151245,32.6064801 17.9791245,32.7656801 17.8442623,32.9304979 L17.6429645,33.1782401 C17.3427245,33.5450801 17.0511245,33.8654801 16.7811245,33.8024801 C16.4048745,33.7062301 16.0898745,33.3802926 15.7795534,33.021178 L15.5133902,32.7098238 C15.379562,32.5546676 15.2436245,32.4037301 15.1011245,32.2724801 C14.8161245,32.0024801 14.9811245,31.8674801 15.1761245,31.6724801 C16.0161245,30.8774801 16.8411245,30.0674801 17.6211245,29.3024801 C17.4261245,28.8824801 16.7811245,28.7024801 16.9461245,28.3274801 C17.0961245,27.9824801 17.6661245,28.2074801 18.0411245,28.1924801 Z M28.7361245,28.0574801 C29.8461245,28.0874801 30.9711245,28.0724801 32.0811245,28.0724801 C32.0811245,28.1624801 32.0961245,28.2224801 32.0811245,28.2524801 C31.2411245,29.1824801 31.2411245,29.1824801 32.1261245,30.0674801 L32.5461245,30.4874801 L33.9261245,31.9274801 C33.3711245,32.4974801 32.8011245,33.0524801 32.2461245,33.6374801 C31.9911245,33.9074801 31.8561245,33.6974801 31.7061245,33.5324801 C31.1061245,32.9324801 30.4611245,32.3624801 29.9211245,31.7324801 C29.4261245,31.1474801 29.0211245,31.1174801 28.5861245,31.7474801 C28.5411245,31.8374801 28.4511245,31.8824801 28.2561245,32.0474801 C28.2561245,30.7874801 28.2711245,29.6924801 28.2561245,28.5974801 C28.2561245,28.2374801 28.3161245,28.0574801 28.7361245,28.0574801 Z M39.2511245,28.2224801 C39.6111245,28.3424801 39.6111245,28.5224801 39.5211245,28.7624801 C39.3711245,29.1674801 39.1611245,29.5574801 39.0111245,29.9774801 C38.9511245,30.1574801 38.8161245,30.4574801 39.1911245,30.4874801 C39.4011245,30.5174801 39.6861245,30.6374801 39.7461245,30.2174801 C39.8061245,29.8874801 40.0161245,29.5874801 40.1211245,29.2724801 C40.2411245,28.8824801 40.5561245,28.9874801 40.7961245,29.0324801 C41.1561245,29.1074801 40.9611245,29.3774801 40.9011245,29.5424801 C40.7961245,29.8424801 40.6611245,30.1274801 40.5111245,30.4124801 C40.1811245,30.9674801 40.5261245,31.1174801 41.1261245,31.2374801 C41.2161245,31.2374801 41.2911245,31.0574801 41.3511245,30.8624801 C41.5011245,30.4574801 41.6511245,30.0524801 41.8311245,29.6474801 C41.9211245,29.4224801 42.0261245,29.1824801 42.3711245,29.3624801 C42.6261245,29.4974801 42.7461245,29.6024801 42.5961245,29.9174801 C42.2811245,30.6224801 42.0111245,31.3724801 41.7261245,32.0924801 C41.6361245,32.3174801 41.5761245,32.4974801 41.2161245,32.3174801 C40.2561245,31.8674801 39.2511245,31.4774801 38.2611245,31.1024801 C37.8261245,30.9374801 37.8411245,30.6674801 37.9761245,30.3524801 C38.2311245,29.7224801 38.5311245,29.1074801 38.7711245,28.4774801 C38.8761245,28.1924801 38.8911245,28.1024801 39.2511245,28.2224801 Z M9.32612455,28.1174801 C9.79112455,28.6724801 9.67112455,29.0174801 9.13112455,29.4524801 C8.63896258,29.8551581 7.92437324,30.0650657 7.75401716,30.7898896 C7.75867627,30.79296 7.76240041,30.7975146 7.76612455,30.8024801 L7.765,30.803 L8.07889423,30.8166929 C8.73408373,30.8229903 9.38612455,30.7017658 10.0161246,30.5474801 C10.5711245,30.4124801 10.6311245,30.8024801 10.7061245,31.0874801 C10.8411245,31.5224801 10.4361245,31.3724801 10.2261245,31.3874801 C9.13112455,31.4924801 8.02112455,31.5974801 6.91112455,31.6874801 C6.68612455,31.7024801 6.43112455,31.7924801 6.35612455,31.3874801 C6.29612455,31.1024801 6.16112455,30.8774801 6.44612455,30.6674801 C7.45112455,29.8724801 8.27612455,28.8674801 9.32612455,28.1174801 Z M24.4161245,20.7524801 C26.4261245,20.6624801 28.1211245,22.3724801 28.1361245,24.3374801 C28.1511245,26.4974801 26.4561245,28.0724801 24.4311245,28.1174801 C22.4061245,28.1624801 20.7261245,26.3174801 20.7561245,24.4424801 C20.7861245,22.3574801 22.4211245,20.6324801 24.4161245,20.7524801 Z M24.4161245,21.0374801 C22.6161245,21.0674801 20.9961245,22.5974801 21.0861245,24.4124801 C20.9211245,26.1674801 22.7061245,27.7874801 24.3711245,27.8024801 C26.1711245,27.8174801 27.8211245,26.1674801 27.8361245,24.3674801 C27.8511245,22.4474801 26.0211245,20.9924801 24.4161245,21.0374801 Z M15.9411245,21.2474801 C15.9561245,21.3524801 15.9711245,21.4424801 15.9861245,21.5324801 C16.0461245,22.8824801 16.0461245,22.8824801 17.4411245,22.8824801 C18.0861245,22.8824801 18.7461245,22.8974801 19.3911245,22.8824801 C19.7961245,22.8674801 19.9161245,23.0174801 19.9011245,23.3924801 C19.8711245,24.0674801 19.8711245,24.7424801 19.9011245,25.4174801 C19.9161245,25.8074801 19.7961245,25.9424801 19.3911245,25.9424801 C18.5211245,25.9274801 17.6361245,25.9874801 16.7661245,25.9424801 C16.1661245,25.9124801 15.8811245,26.0624801 15.9711245,26.7074801 C16.0161245,26.9474801 15.9711245,27.2024801 15.9711245,27.4424801 C15.9261245,27.4724801 15.8661245,27.5024801 15.8061245,27.5474801 C14.8161245,26.5574801 13.8261245,25.5524801 12.8211245,24.5624801 C12.6561245,24.3974801 12.8061245,24.2474801 12.8661245,24.1874801 C13.8711245,23.2124801 14.8911245,22.2374801 15.9411245,21.2474801 Z M33.1311245,21.2924801 C34.0911245,22.2524801 35.0511245,23.2124801 35.9961245,24.1874801 C36.2061245,24.3974801 36.0711245,24.5924801 35.8911245,24.7724801 C35.0661245,25.5974801 34.2261245,26.4224801 33.4011245,27.2624801 C33.3111245,27.3524801 33.2361245,27.4874801 33.1011245,27.4274801 C32.9511245,27.3674801 32.9511245,27.2024801 32.9361245,27.0374801 C32.8161245,25.9424801 32.8161245,25.9424801 31.6761245,25.9424801 C30.9711245,25.9424801 30.2811245,25.9274801 29.5761245,25.9424801 C29.2011245,25.9574801 29.0361245,25.8674801 29.0511245,25.4474801 C29.0811245,24.7574801 29.0811245,24.0524801 29.0511245,23.3474801 C29.0361245,22.9274801 29.2161245,22.8524801 29.5761245,22.8524801 C30.4461245,22.8674801 31.3311245,22.8224801 32.2011245,22.8674801 C32.7711245,22.8974801 33.0411245,22.7474801 32.9361245,22.1324801 C32.8911245,21.8924801 32.9361245,21.6374801 32.9361245,21.3974801 C32.9961245,21.3824801 33.0561245,21.3374801 33.1311245,21.2924801 Z M33.2661245,22.2224801 C33.6359072,23.249654 33.1428637,23.3014593 32.5519571,23.2912846 L32.3811245,23.2874801 C31.5261245,23.2724801 30.6861245,23.2724801 29.8311245,23.2874801 C29.6511245,23.2874801 29.3661245,23.1974801 29.3511245,23.4974801 C29.3211245,24.1124801 29.3211245,24.7424801 29.3511245,25.3724801 C29.3661245,25.6274801 29.6061245,25.5524801 29.7711245,25.5524801 C30.5211245,25.5674801 31.2711245,25.5524801 32.0211245,25.5524801 C33.1311245,25.5524801 33.1311245,25.5524801 33.3561245,26.7074801 C34.1061245,25.9574801 34.7961245,25.2674801 35.5011245,24.5774801 C35.6811245,24.4124801 35.5311245,24.3224801 35.4411245,24.2324801 C34.7811245,23.5724801 34.1361245,22.9274801 33.4911245,22.2824801 C33.4161245,22.2674801 33.3411245,22.2374801 33.2661245,22.2224801 Z M24.4461245,22.2524801 C25.6611245,22.2524801 26.6511245,23.2124801 26.6361245,24.3674801 C26.6211245,25.5524801 25.5711245,26.5574801 24.3861245,26.6174801 C23.3811245,26.6624801 22.3461245,25.6424801 22.3011245,24.8624801 C22.2411245,23.1374801 23.0061245,22.2524801 24.4461245,22.2524801 Z M15.2961245,22.1924801 C14.7111245,22.8224801 14.1111245,23.4824801 13.4961245,24.1124801 C13.2561245,24.3524801 13.3761245,24.4874801 13.5561245,24.6524801 C14.1411245,25.2824801 14.7561245,25.9274801 15.3861245,26.5724801 L15.5811245,26.5724801 C15.3261245,25.5974801 15.7761245,25.4324801 16.5411245,25.5374801 C16.9311245,25.5824801 17.3361245,25.5524801 17.7411245,25.5524801 C19.5711245,25.5524801 19.5561245,25.5524801 19.4661245,23.7374801 C19.4511245,23.3624801 19.3311245,23.2724801 18.9861245,23.2874801 C18.1911245,23.3024801 17.3961245,23.2424801 16.6011245,23.3024801 C15.8511245,23.3624801 15.4011245,23.2124801 15.5361245,22.3574801 C15.5361245,22.3424801 15.4611245,22.3124801 15.2961245,22.1924801 Z M43.3011245,20.0324801 C43.2861245,20.2724801 43.4511245,20.5874801 42.9711245,20.6324801 C42.6261245,20.6474801 42.3261245,20.7824801 41.8611245,20.7524801 C42.6111245,21.5924801 44.0361245,21.6674801 43.7961245,23.1074801 C43.3761245,22.8374801 42.8961245,22.5974801 42.5061245,22.2674801 C42.0561245,21.8924801 41.7561245,21.9674801 41.4111245,22.3874801 C41.0811245,22.7924801 40.6611245,23.1224801 40.3161245,23.5124801 C39.9711245,23.9024801 39.8211245,23.6624801 39.7311245,23.3474801 C39.6411245,23.0174801 39.6861245,22.7324801 39.9861245,22.4774801 C40.2861245,22.2224801 40.5561245,21.9224801 40.8411245,21.6374801 C40.9461245,21.5324801 41.1261245,21.4124801 41.0061245,21.2774801 C40.9161245,21.1574801 40.6611245,21.0374801 40.5561245,21.0974801 C40.3161245,21.2174801 40.0461245,21.1274801 39.8361245,21.2324801 C39.5211245,21.3824801 39.3261245,21.3824801 39.2511245,20.9924801 C39.1761245,20.6024801 39.3711245,20.3924801 39.7461245,20.3174801 C40.5711245,20.1674801 41.3811245,20.0174801 42.2061245,19.8524801 C42.4011245,19.8224801 42.5811245,19.7324801 42.7761245,19.7174801 C43.0011245,19.7024801 43.3311245,19.6124801 43.3011245,20.0324801 Z M6.97112455,19.5224801 C7.01612455,19.5674801 7.06112455,19.5974801 7.12112455,19.6274801 C7.03112455,20.0324801 7.01612455,20.4074801 6.49112455,20.6024801 C6.02612455,20.7824801 5.96612455,21.2624801 6.25112455,21.6974801 C6.64112455,22.2974801 7.49612455,22.5824801 8.15612455,22.3424801 C8.86112455,22.1024801 9.04112455,21.3374801 8.44112455,20.7824801 C8.09612455,20.4524801 8.26112455,20.1374801 8.41112455,19.9424801 C8.57612455,19.7174801 8.83112455,19.9874801 9.01112455,20.1224801 C9.53612455,20.5274801 9.74612455,21.4574801 9.50612455,22.1624801 C9.29612455,22.7774801 8.59112455,23.2574801 7.91612455,23.2724801 C7.42112455,23.2874801 6.92612455,23.2724801 6.46112455,23.0774801 C5.59112455,22.7324801 5.14112455,21.7574801 5.35112455,20.7374801 C5.50112455,20.0174801 6.19112455,19.5074801 6.97112455,19.5224801 Z M32.4561245,15.2324801 C32.8461245,15.6524801 33.2361245,16.0724801 33.6711245,16.4474801 C34.0011245,16.7324801 33.8811245,16.8974801 33.6411245,17.1224801 C32.9961245,17.7374801 32.3961245,18.4274801 31.7211245,19.0124801 C31.2411245,19.4324801 31.2261245,19.7324801 31.7361245,20.0924801 C31.8861245,20.1974801 32.0361245,20.3324801 32.1111245,20.6324801 L28.6461245,20.6324801 C28.3461245,20.6324801 28.2711245,20.4974801 28.2711245,20.2274801 C28.2861245,19.0874801 28.2861245,17.9474801 28.2861245,16.6724801 C29.3511245,17.6474801 29.3511245,17.6474801 30.2961245,16.7024801 C30.7911245,16.2074801 31.3011245,15.7274801 31.7661245,15.2174801 C32.0361245,14.9174801 32.2161245,14.9624801 32.4561245,15.2324801 Z M17.2911245,15.2174801 C18.0411245,16.0124801 18.8361245,16.7774801 19.6461245,17.6024801 C19.9911245,17.2724801 20.3211245,16.9724801 20.8011245,16.5224801 L20.8011245,20.2874801 C20.8011245,20.5724801 20.6511245,20.6024801 20.4261245,20.6024801 L16.7061245,20.6024801 C17.6961245,19.5224801 17.6961245,19.5224801 16.7661245,18.6074801 L15.0711245,16.9124801 C15.0411245,16.8824801 15.0111245,16.8374801 14.9211245,16.7174801 C15.4461245,16.2074801 16.0161245,15.7274801 16.5261245,15.1874801 C16.8411245,14.8424801 17.0211245,14.9324801 17.2911245,15.2174801 Z M24.5361245,12.7574801 C25.5411245,13.7774801 26.5461245,14.7974801 27.5211245,15.8024801 C27.4761245,15.8774801 27.4761245,15.9224801 27.4611245,15.9224801 C27.0111245,16.0424801 26.3361245,15.7274801 26.1261245,16.0724801 C25.8861245,16.4624801 26.0361245,17.0774801 26.0211245,17.6024801 C26.0061245,18.2024801 26.0061245,18.8024801 26.0211245,19.4024801 C26.0361245,19.7174801 25.9161245,19.8524801 25.5861245,19.8374801 C24.8811245,19.8224801 24.1911245,19.8224801 23.4861245,19.8374801 C23.0961245,19.8524801 22.9611245,19.6874801 22.9611245,19.2974801 C22.9761245,18.3974801 22.9311245,17.4974801 22.9611245,16.5974801 C22.9761245,16.0874801 22.8111245,15.8624801 22.2861245,15.9524801 C22.1361245,15.9824801 21.9861245,15.9524801 21.8361245,15.9524801 C21.6711245,15.9674801 21.5211245,15.9224801 21.4611245,15.7874801 C21.4011245,15.6524801 21.5511245,15.5774801 21.6261245,15.4874801 C22.4961245,14.6024801 23.3661245,13.7174801 24.2361245,12.8024801 C24.3561245,12.6824801 24.4311245,12.6524801 24.5361245,12.7574801 Z M41.4261245,15.2174801 C41.6061245,15.5024801 41.7861245,15.8024801 41.4861245,16.1624801 C41.0661245,16.6724801 40.7061245,17.2274801 40.3161245,17.7674801 C40.2561245,17.8574801 40.0911245,17.9174801 40.2411245,18.0674801 C40.3761245,18.2174801 40.4661245,18.0674801 40.5561245,18.0374801 C41.0061245,17.8424801 41.4411245,17.6474801 41.8911245,17.4374801 C42.1911245,17.3024801 42.3861245,17.2424801 42.5811245,17.6474801 C42.7761245,18.0524801 42.5361245,18.1124801 42.2811245,18.2324801 C41.3961245,18.6524801 40.5261245,19.1024801 39.6111245,19.4624801 C39.4461245,19.5374801 39.1911245,19.8824801 38.9361245,19.4924801 C38.7261245,19.1624801 38.5761245,18.8624801 38.8461245,18.5024801 C39.3111245,17.9024801 39.7761245,17.2574801 40.3611245,16.4624801 C39.5511245,16.7324801 38.9511245,16.9274801 38.4261245,17.2724801 C38.1261245,17.4674801 37.9161245,17.4374801 37.7511245,17.0774801 C37.6011245,16.7624801 37.6761245,16.6274801 37.9911245,16.4924801 C38.9061245,16.0874801 39.7911245,15.6374801 40.7061245,15.2024801 L40.7666975,15.1744159 L40.8903433,15.1141207 C41.0773745,15.0262301 41.2686245,14.9699801 41.4261245,15.2174801 Z M24.1161245,13.4474801 C23.5461245,14.0324801 22.9611245,14.6174801 22.3761245,15.1874801 C22.0911245,15.4574801 22.1961245,15.6824801 22.5261245,15.6374801 C23.3511245,15.5174801 23.3811245,15.9674801 23.3361245,16.5824801 C23.3061245,17.0774801 23.3361245,17.5724801 23.3361245,18.0824801 L23.336651,18.3979088 C23.3437583,19.7166953 23.4468142,19.7061008 24.9411245,19.5524801 L25.0161245,19.5524801 C25.4061245,19.4924801 25.6311245,19.3424801 25.6161245,18.8924801 C25.5861245,18.0974801 25.6461245,17.3024801 25.6011245,16.5074801 C25.5411245,15.7724801 25.6911245,15.3224801 26.6061245,15.3824801 C25.9611245,14.7374801 25.3011245,14.1074801 24.6561245,13.4474801 C24.4611245,13.2374801 24.3111245,13.2374801 24.1161245,13.4474801 Z M7.81112455,15.3224801 C8.12612455,15.4574801 8.05112455,15.6824801 7.97612455,15.8774801 C7.81112455,16.2824801 7.63112455,16.6874801 7.39112455,17.0624801 C7.19612455,17.3774801 7.33112455,17.4824801 7.60112455,17.6174801 C7.91612455,17.7974801 7.96112455,17.5874801 8.05112455,17.3774801 C8.21612455,17.0174801 8.42612455,16.6874801 8.59112455,16.3274801 C8.74112455,15.9824801 8.98112455,16.0724801 9.20612455,16.1624801 C9.29612455,16.2074801 9.52112455,16.2224801 9.49112455,16.3424801 C9.26612455,16.8074801 9.11612455,17.1974801 8.90612455,17.5574801 C8.69612455,17.9174801 8.78612455,18.1124801 9.13112455,18.3224801 C9.55112455,18.5774801 9.68612455,18.3074801 9.80612455,18.0074801 C9.97112455,17.6324801 10.1361246,17.2424801 10.2861246,16.8674801 C10.4211246,16.5524801 10.6161245,16.5224801 10.9311245,16.6574801 C11.2322784,16.7820955 11.1811541,16.9282789 11.0962952,17.0611897 L11.0382206,17.1474482 C11.0195269,17.1752907 11.002663,17.2020955 10.9911245,17.2274801 C10.7211245,17.8874801 10.4061246,18.5174801 10.1211246,19.1624801 C9.95612455,19.5224801 9.77612455,19.6124801 9.38612455,19.4174801 C8.45612455,18.9374801 7.51112455,18.4874801 6.55112455,18.0824801 C6.26612455,17.9624801 6.23612455,17.8874801 6.31112455,17.6174801 C6.53612455,16.8374801 7.00112455,16.1624801 7.33112455,15.4274801 C7.43612455,15.2024801 7.60112455,15.2324801 7.81112455,15.3224801 Z M39.4161245,12.2174801 C39.6561245,12.5024801 39.7461245,12.7874801 39.5061245,13.1474801 C38.8311245,14.1974801 38.1711245,15.2774801 37.4811245,16.3574801 C37.0911245,16.0274801 36.7011245,15.7274801 37.1511245,15.1274801 C37.3581245,14.8484801 37.1979245,14.6828801 37.0139645,14.5172801 L36.8915734,14.4056356 C36.8126579,14.3295468 36.7441245,14.2484801 36.7161245,14.1524801 C36.6411245,13.9424801 36.4161245,13.7474801 36.1011245,13.9124801 C35.8761245,14.0324801 35.6361245,14.0774801 35.4111245,13.8824801 C35.0961245,13.5974801 35.0361245,13.3424801 35.5011245,13.1774801 C36.6261245,12.7874801 37.7661245,12.4274801 38.8761245,12.0074801 C39.2061245,11.8874801 39.2811245,12.0674801 39.4161245,12.2174801 Z M10.8261245,11.4824801 C11.6061245,12.1274801 12.4011245,12.7574801 13.1811245,13.3874801 C13.3611245,13.5374801 13.5711245,13.7174801 13.3911245,13.9424801 L13.343095,14.0074975 L13.2474527,14.1398238 C13.1004995,14.3352926 12.9261245,14.5012301 12.5661245,14.4224801 C11.7561245,14.2274801 10.9461245,14.1224801 9.91112455,13.9424801 C10.6161245,14.5424801 11.1411245,15.0374801 11.7111245,15.4724801 C11.9361245,15.6374801 11.9961245,15.7424801 11.7711245,15.9074801 C11.5911245,16.0274801 11.5011245,16.4324801 11.1861245,16.1774801 C10.3011246,15.4724801 9.43112455,14.7374801 8.56112455,14.0174801 C8.35112455,13.8524801 8.36612455,13.7024801 8.48612455,13.4474801 C8.68112455,13.0424801 9.01112455,13.0874801 9.31112455,13.1324801 C10.0611245,13.2374801 10.8261245,13.4024801 11.7561245,13.5674801 C11.3061245,12.8624801 10.7061245,12.5774801 10.2261245,12.1724801 C10.0461245,12.0224801 9.65612455,11.9174801 9.98612455,11.5574801 C10.2411245,11.2574801 10.5111245,11.2274801 10.8261245,11.4824801 Z M37.3461245,13.4924801 C37.1811245,13.7174801 37.6161245,13.9124801 37.8411245,14.1374801 C38.0511245,13.8224801 38.2461245,13.5074801 38.4861245,13.1324801 C37.9611245,13.0274801 37.5411245,13.2224801 37.3461245,13.4924801 Z M34.8261245,8.15248009 C35.3961245,8.57248009 36.0111245,8.93248009 36.5661245,9.36748009 C36.7761245,9.51748009 36.8811245,9.81748009 36.8511245,9.96748009 C36.8211245,10.2374801 36.8661245,10.4174801 36.7911245,10.4774801 C36.1311245,11.0024801 35.9961245,11.8424801 35.5461245,12.4724801 C35.2011245,12.9674801 34.5861245,12.9524801 34.0761245,12.6374801 C33.5511245,12.3224801 33.0561245,11.9474801 32.5611245,11.6024801 C32.3211245,11.4374801 32.2611245,11.2574801 32.4561245,10.9724801 C33.1011245,10.1024801 33.7161245,9.21748009 34.3311245,8.33248009 C34.4661245,8.13748009 34.5261245,7.94248009 34.8261245,8.15248009 Z M14.1861245,8.66248009 C14.2011245,8.93248009 13.9761245,9.06748009 13.8111245,9.18748009 C13.4061245,9.48748009 13.4811245,9.74248009 13.7811245,10.0874801 C14.2761245,10.6724801 14.6811245,11.3324801 15.1761245,11.8874801 C15.4761245,12.2174801 15.1761245,12.2924801 15.0561245,12.4574801 C14.8761245,12.6974801 14.6961245,12.6824801 14.5161245,12.4574801 C14.0061245,11.8274801 13.4511245,11.2274801 12.9711245,10.5674801 C12.7161245,10.2224801 12.5661245,10.1774801 12.2211245,10.4624801 C12.0261245,10.6124801 11.7411245,11.0474801 11.4111245,10.5524801 C11.2761245,10.3574801 11.1411245,10.2824801 11.4411245,10.0574801 C12.1011245,9.59248009 12.6861245,9.02248009 13.3311245,8.52748009 C13.7361245,8.19748009 14.1561245,8.28748009 14.1861245,8.66248009 Z M33.5661245,11.0624801 C33.6411245,11.5874801 34.1361245,11.7674801 34.5711245,11.8874801 C34.9011245,11.9924801 35.0661245,11.6924801 35.2011245,11.3924801 C35.0211245,10.8524801 34.5261245,10.6724801 34.0911245,10.5074801 C33.8961245,10.4324801 33.5211245,10.7924801 33.5661245,11.0624801 Z M18.5961245,7.98748009 C18.5811245,8.10748009 18.4761245,8.22748009 18.6261245,8.30248009 C19.3311245,8.58748009 19.2411245,9.39748009 19.7661245,9.78748009 C18.9861245,10.3874801 18.6411245,10.0724801 18.3711245,9.38248009 C18.2061245,8.96448009 17.9281912,9.00628009 17.6319734,9.09970676 L17.4691557,9.15333343 C17.4146579,9.17128009 17.3601245,9.18848009 17.3061245,9.20248009 C16.7811245,9.33748009 16.9161245,9.65248009 17.0361245,9.98248009 C17.1111245,10.1624801 17.2161245,10.3274801 17.3061245,10.5074801 C17.4261245,10.7624801 17.4261245,10.9124801 17.0961245,11.0474801 C16.7811245,11.1824801 16.5861245,11.2124801 16.4361245,10.8824801 C15.9861245,9.86248009 15.5511245,8.82748009 15.0861245,7.80748009 C14.9511245,7.52248009 15.0711245,7.38748009 15.3111245,7.28248009 C15.8661245,7.05748009 16.4211245,6.80248009 17.0061245,6.60748009 C18.0261245,6.26248009 18.7761245,6.90748009 18.5961245,7.98748009 Z M34.5111245,9.66748009 C34.7211245,10.0874801 35.1411245,10.2824801 35.5911245,10.4024801 C35.8611245,10.4624801 36.0261245,10.2374801 35.9811245,10.0874801 C35.8461245,9.62248009 35.4261245,9.38248009 35.0361245,9.21748009 C34.6311245,9.17248009 34.4661245,9.57748009 34.5111245,9.66748009 Z M28.8411245,5.63248009 C29.5911245,5.82748009 30.3411245,6.03748009 31.0911245,6.27748009 C31.2561245,6.32248009 31.5561245,6.38248009 31.3311245,6.72748009 C31.2111245,6.93748009 31.2711245,7.17748009 30.8661245,7.01248009 C30.5061245,6.84748009 30.0711245,6.83248009 29.6811245,6.69748009 C29.4411245,6.62248009 29.1411245,6.62248009 29.0511245,6.93748009 C28.9611245,7.23748009 29.1411245,7.38748009 29.4411245,7.44748009 C29.8011245,7.52248009 30.1461245,7.64248009 30.4911245,7.73248009 C30.7461245,7.80748009 30.8661245,7.95748009 30.7911245,8.22748009 C30.7161245,8.48248009 30.5361245,8.57248009 30.2661245,8.48248009 C29.9361245,8.37748009 29.6061245,8.33248009 29.2911245,8.22748009 C28.9311245,8.10748009 28.7211245,8.21248009 28.6161245,8.55748009 C28.4961245,8.93248009 28.7511245,9.12748009 29.0511245,9.21748009 C29.4411245,9.35248009 29.8461245,9.44248009 30.2511245,9.51748009 C30.4611245,9.56248009 30.7611245,9.50248009 30.6561245,9.86248009 C30.5811245,10.1174801 30.4461245,10.3574801 29.9961245,10.2224801 C29.3061245,10.0424801 28.5261245,9.86248009 27.7461245,9.65248009 C27.3711245,9.56248009 27.5061245,9.23248009 27.5511245,9.03748009 C27.8211245,7.98748009 28.1511245,6.93748009 28.4211245,5.88748009 C28.4961245,5.60248009 28.6461245,5.57248009 28.8411245,5.63248009 Z M21.8661245,5.57248009 C22.4661245,6.62248009 23.0361245,7.65748009 23.6211245,8.72248009 C23.6811245,8.84248009 23.8311245,9.00748009 23.5161245,9.09748009 C23.2011245,9.18748009 22.9461245,9.35248009 22.6911245,8.97748009 C22.6641245,8.93848009 22.6437245,8.88808009 22.6245245,8.83432009 L22.5861245,8.72470231 C22.5194579,8.54248009 22.4261245,8.38248009 22.1061245,8.54248009 C21.9995456,8.59774325 21.8680359,8.60730004 21.731551,8.60860125 L21.5666582,8.60859687 C21.2372049,8.61025018 20.9250719,8.65063799 20.9061245,9.24748009 C20.9061245,9.74248009 20.3811245,9.59248009 20.0061245,9.77248009 C20.1111245,8.36248009 20.4261245,7.05748009 20.6211245,5.72248009 C20.6961245,5.24248009 21.1161245,5.54248009 21.3261245,5.33248009 C21.5061245,5.16748009 21.7611245,5.37748009 21.8661245,5.57248009 Z M25.2861245,5.51248009 C25.3011245,6.12748009 25.1811245,6.74248009 25.1511245,7.34248009 C25.0761245,8.43748009 25.2111245,8.54248009 26.3211245,8.60248009 C26.4711245,8.60248009 26.6211245,8.61748009 26.7711245,8.60248009 C27.0561245,8.58748009 27.0861245,8.75248009 27.0861245,8.97748009 C27.0861245,9.20248009 27.0411245,9.32248009 26.7711245,9.35248009 C25.9911245,9.44248009 25.2561245,9.15748009 24.4911245,9.18748009 C24.2644579,9.20081343 24.2392727,9.04822083 24.2364743,8.88772701 L24.2361245,7.98748009 C24.1761245,7.17748009 24.4911245,6.35248009 24.3861245,5.51248009 C24.3523745,5.20873009 24.5042495,5.16654259 24.6835464,5.15810509 L24.8661245,5.15248009 C25.1211245,5.13748009 25.2861245,5.18248009 25.2861245,5.51248009 Z M17.0661245,7.41748009 C16.7661245,7.47748009 16.2861245,7.50748009 16.2111245,7.95748009 C16.1811245,8.12248009 16.3011245,8.70748009 16.7511245,8.57248009 C17.1561245,8.46748009 17.7111245,8.40748009 17.7861245,7.83748009 C17.8311245,7.41748009 17.4861245,7.40248009 17.0661245,7.41748009 Z M21.3111245,6.47248009 C21.1611245,6.93748009 21.3561245,7.40248009 21.1011245,7.80748009 C21.1844579,7.77831343 21.289782,7.79775787 21.3971636,7.82530417 L21.5257336,7.85965602 C21.7585783,7.92025787 21.9627912,7.94164676 21.9261245,7.49248009 C21.8961245,7.17748009 21.6861245,6.77248009 21.3111245,6.47248009 Z" id="Combined-Shape" fill="#D8D8D8" fill-rule="nonzero"></path>
        </g>
    </g>
</svg>