<?xml version="1.0" encoding="UTF-8"?>
<svg width="48px" height="48px" viewBox="0 0 48 48" version="1.1" xmlns="http://www.w3.org/2000/svg" xmlns:xlink="http://www.w3.org/1999/xlink">
    <title>ua-ukrsibbank</title>
    <g id="Page-1" stroke="none" stroke-width="1" fill="none" fill-rule="evenodd">
        <g id="ua-ukrsibbank" fill-rule="nonzero">
            <rect id="Rectangle" x="0" y="0" width="48" height="48"></rect>
            <path d="M40.1924711,10.9364093 C36.668661,13.0092955 35.5868482,13.1715267 31.788321,15.4727609 C33.9982403,13.049088 34.7700065,12.0291742 36.1545563,9.99546837 C32.6277005,10.1840239 27.5195463,10.6064372 23.8562456,11.4206541 C27.0444258,9.72120583 33.3464725,7.8123874 36.6729249,7.36732297 C35.9011587,6.30088239 29.6630705,2.89219067 28.1055282,2.25 C33.0431263,2.63445733 39.085075,4.47593449 42.0058475,6.28802634 C43.1863391,5.93111772 44.3656128,5.90234461 46.5,5.71501351 C45.957266,6.65840322 45.9487385,7.20631614 43.8381072,8.59966787 C44.4228708,10.1644337 43.0328388,18.7804408 41.8895041,21.0731043 C41.8395554,17.4642254 41.5191537,12.9070592 40.1924711,10.9364093 L40.1924711,10.9364093 Z M14.4829715,41.8393099 C12.4533543,41.0881489 10.9969273,40.2108759 9.40405544,38.709166 C9.88343982,37.3892775 10.4292192,36.3405905 11.3264659,35.0219264 C9.67389949,35.2588452 8.47939789,35.4394421 7.06439167,35.7192144 C5.9058287,33.686733 5.39537873,31.741183 4.80513292,29.0340647 C4.48594943,31.9003533 4.37021495,33.9530371 4.78015865,36.243864 C3.48454165,36.6001605 2.5635389,36.9203375 1.5,37.400297 C2.98688343,38.3271575 4.19661326,39.0434235 5.8784179,39.8190723 C6.76652771,41.7487054 7.69483999,43.0655328 9.19634251,44.5421426 C8.83878393,43.2816372 8.7565515,42.2653963 8.88446858,40.9455078 C10.7636309,41.4958693 12.3552845,41.7695198 14.4829715,41.8393099 L14.4829715,41.8393099 Z M19.7348801,13.1794852 C19.0959039,14.0004363 18.3734772,15.5284705 18.1791651,16.2404512 C23.3701608,16.9603904 27.556094,19.6356747 27.556094,19.6356747 C22.9876279,18.8269675 20.6034978,18.9261428 18.9089014,19.0761301 C17.2173507,19.2438711 16.8744112,19.4483436 16.8744112,19.4483436 C15.6494531,22.1230156 14.9203259,26.7750718 14.9203259,26.7775206 C14.0900834,24.7768732 12.8900996,20.7627224 12.8900996,20.7596614 C10.5973388,21.9993526 5.32715632,26.9832175 5.3228924,26.9856663 C8.22234554,21.1441187 11.1589555,18.4694466 11.1620012,18.4694466 C10.1496291,17.4525937 7.4980914,16.9426368 5.56045264,16.854481 C6.57038821,16.4375774 9.15674914,15.9490472 11.1425091,15.8651768 C13.1246142,15.8021209 14.3239889,15.9245595 14.3270345,15.9245595 C16.1081271,14.5134542 18.7937761,13.3257994 19.7348801,13.1794852 Z M25.2432319,38.224309 C24.3191835,39.466449 23.5394986,40.4575899 22.5167714,41.6036154 C20.765526,42.0792897 19.3730575,42.2598865 17.6711516,42.2696817 C18.7151984,42.8139216 19.7306162,43.1487913 20.8154746,43.3636709 C19.7306162,44.3633825 18.8010856,45.0771996 17.743638,45.75 C19.5192485,45.3196282 21.8686583,44.5580599 23.6046754,43.5381461 C24.5031404,43.5632459 25.357139,43.5056999 25.9796686,43.3948927 C25.8292138,42.8506532 25.716525,42.4612981 25.5849532,41.76401 C27.2277736,40.4857508 28.4234934,39.3354397 29.7721046,37.9543318 C28.326642,38.9693482 27.0700092,39.7370384 25.4095241,40.5298288 C25.3311213,39.7631702 25.2756656,38.9943165 25.2432319,38.224309 L25.2432319,38.224309 Z" id="Shape" fill="#37A094"></path>
        </g>
    </g>
</svg>