<?xml version="1.0" encoding="UTF-8"?>
<svg width="48px" height="48px" viewBox="0 0 48 48" version="1.1" xmlns="http://www.w3.org/2000/svg" xmlns:xlink="http://www.w3.org/1999/xlink">
    <title>vn-hsbc</title>
    <g id="Page-1" stroke="none" stroke-width="1" fill="none" fill-rule="evenodd">
        <g id="vn-hsbc">
            <rect id="Rectangle" x="0" y="0" width="48" height="48"></rect>
            <path d="M35.2566138,4.5 L46.5,15.7632197 L35.2566138,27 L35.2566138,4.5 Z M24.0132275,15.7632197 L35.2566138,27 L12.7698413,27 L24.0132275,15.7632197 Z M12.7698413,4.5 L12.7698413,27 L1.5,15.7632197 L12.7698413,4.5 Z M35.2566138,4.5 L24.0132275,15.7632197 L12.7698413,4.5 L35.2566138,4.5 Z M9.39893617,38.0209459 L4.13297872,38.0209459 L4.13297872,43.2587838 L1.5,43.2587838 L1.5,30.9912162 L4.13297872,30.9912162 L4.13297872,36.0222973 L9.39893617,36.0222973 L9.39893617,30.9912162 L12.0319149,30.9912162 L12.0319149,43.2587838 L9.39893617,43.2587838 L9.39893617,38.0209459 Z M18.3920973,43.5 C15.7591185,43.5 13.6048632,42.4317568 13.5706687,39.5027027 L16.2036474,39.5027027 C16.2378419,40.8121622 16.9901216,41.6047297 18.4262918,41.6047297 C19.4863222,41.6047297 20.7173252,41.0533784 20.7173252,39.8472973 C20.7173252,38.8824324 19.8966565,38.6067568 18.5288754,38.1932432 L17.6398176,37.952027 C15.724924,37.4006757 13.8100304,36.6425676 13.8100304,34.4371622 C13.8100304,31.7148649 16.3404255,30.7844595 18.631459,30.7844595 C20.9908815,30.7844595 23.0425532,31.6114865 23.0767477,34.3337838 L20.443769,34.3337838 C20.3411854,33.2310811 19.6914894,32.5763514 18.4604863,32.5763514 C17.468845,32.5763514 16.5113982,33.0932432 16.5113982,34.1959459 C16.5113982,35.0918919 17.3320669,35.3675676 19.0417933,35.9189189 L20.0676292,36.2290541 C22.1534954,36.8837838 23.4870821,37.6074324 23.4870821,39.675 C23.4528875,42.4317568 20.7857143,43.5 18.3920973,43.5 Z M24.9574468,31.0256757 L29.1975684,31.0256757 C29.9840426,30.9912162 30.8047112,31.0256757 31.5911854,31.1635135 C33.0615502,31.5081081 34.1899696,32.472973 34.1899696,34.127027 C34.1899696,35.7121622 33.1983283,36.5047297 31.7621581,36.8837838 C33.4034954,37.1939189 34.6344985,38.0209459 34.6344985,39.8472973 C34.6344985,42.6385135 31.8989362,43.2587838 29.7788754,43.2587838 L24.9916413,43.2587838 L24.9574468,31.0256757 Z M29.1975684,36.1256757 C30.3601824,36.1256757 31.5569909,35.8844595 31.5569909,34.4716216 C31.5569909,33.1966216 30.462766,32.852027 29.368541,32.852027 L27.5220365,32.852027 L27.5220365,36.1256757 L29.1975684,36.1256757 L29.1975684,36.1256757 Z M29.4369301,41.4324324 C30.6679331,41.4324324 31.8647416,41.1567568 31.8647416,39.6405405 C31.8647416,38.1243243 30.8389058,37.8486486 29.5737082,37.8486486 L27.4878419,37.8486486 L27.4878419,41.4324324 L29.4369301,41.4324324 Z M41.4734043,43.5 C37.5410334,43.5 35.7971125,40.9844595 35.7971125,37.2283784 C35.7971125,33.4722973 37.7462006,30.75 41.6101824,30.75 C44.0379939,30.75 46.3974164,31.8527027 46.4658055,34.6094595 L43.7302432,34.6094595 C43.593465,33.3689189 42.7727964,32.7486486 41.6101824,32.7486486 C39.2165653,32.7486486 38.4984802,35.3331081 38.4984802,37.2972973 C38.4984802,39.2614865 39.2165653,41.5358108 41.5075988,41.5358108 C42.7044073,41.5358108 43.593465,40.8810811 43.7644377,39.6405405 L46.5,39.6405405 C46.2264438,42.4662162 44.0037994,43.5 41.4734043,43.5 Z" id="Combined-Shape" fill="#000000" fill-rule="nonzero"></path>
        </g>
    </g>
</svg>