---
version: "3.1.3"
---
<svg>
  <path d="M14.554 36.316c1.565-1.389 2.836-2.056 4.443-2.34l.046-.007c.23-.038.5-.07.626-.072h.241l-.272.293c-.54.593-1.308 1.885-1.25 2.104l.004.014c.058.199.252.172.984-.131l.123-.05c2.01-.822 4.014-1.387 4.967-1.397.325 0 .55.032.934.15.716.218 1.8.661 2.553 1.046l.106.053c.454.225.562.259.652.214.059-.032.107-.102.107-.155 0-.191-.406-.861-.886-1.486l-.05-.066-.052-.065-.07-.086-.02-.026c-.118-.145-.198-.274-.188-.29.048-.042 1.959.35 2.64.545l.02.006c1.448.416 2.71 1.092 3.964 2.126l.104.085c.399.327.49.295 1.124-.303l.04-.04c.777-.739 1.671-1.324 2.74-1.794l.06-.026c1.742-.761 3.198-1.078 4.65-1.017l.127.005c.756.032.929-.005 1.027-.211.08-.177-.01-.385-.273-.641l-.202-.203.416-.812c1.184-2.3 1.86-4.474 2.232-7.185l.024-.179q.024-.186.043-.354l.004-.04.008-.08.007-.08.007-.077c.035-.44.043-.929.046-1.89v-.192c-.007-2.04-.126-2.995-.587-4.88-1.565-6.366-5.65-11.509-11.455-14.419C32.004 1.201 29.6.483 26.876.126l-.088-.011c-.293-.037-1.084-.072-1.91-.093l-.26-.006-.243-.005-.255-.005A48 48 0 0 0 23.408 0h-.199a9 9 0 0 0-.64.019c-3.23.277-5.724.945-8.357 2.237-4.111 2.024-7.316 5.105-9.585 9.212-1.549 2.798-2.478 6.12-2.606 9.292-.166 4.021.657 7.84 2.382 11.102l.347.668-.177.144c-.379.32-.464.603-.24.822l.019.02.007.006.026.025.007.005.007.005c.09.065.227.072.843.073h.25c1.174 0 1.725.052 2.595.258l.038.009c1.847.438 3.364 1.265 4.8 2.616l.119.112c.578.548.587.504 1.51-.31M5.46 32.049c-.078-.03-.397-.602-.703-1.248l-.044-.093-.097-.214-.022-.047-.042-.096c-.769-1.746-1.228-3.37-1.565-5.586-.23-1.506-.235-4.155-.01-5.74.33-2.329.94-4.257 2.024-6.462 2.056-4.166 5.276-7.418 9.372-9.463 2.072-1.041 3.871-1.613 6.274-2.013A20.5 20.5 0 0 1 25.293.84c5.538.32 10.381 2.44 14.146 6.2 1.917 1.912 3.61 4.496 4.582 6.99 1.148 2.937 1.624 5.48 1.549 8.278q-.105 3.849-1.454 7.29l-.03.079c-.072.184-.237.543-.42.925l-.095.2-.098.201c-.234.478-.455.91-.515.992l-.011.013c-.059.067-.104.061-.436-.104l-.161-.08c-2.019-1.015-4.507-1.976-6.376-2.462l-.13-.036c-.274-.078-.498-.149-.517-.167-.02-.02.05-.189.163-.375l.008-.015c.331-.54.865-1.623 1.132-2.296 1.266-3.21 1.068-7.172-.512-10.333a13.29 13.29 0 0 0-9.778-7.183c-2.312-.379-4.747-.16-6.846.614-4.587 1.693-7.904 5.837-8.54 10.675-.088.715-.105 2.207-.024 2.977l.004.035a13.6 13.6 0 0 0 1.1 4.016l.043.095.043.094c.245.535.51 1.05.634 1.208l.129.162.341-.064.05-.01c.173-.036.32-.077.34-.097.025-.02-.025-.15-.112-.298l-.016-.027a17.3 17.3 0 0 1-1.212-2.676c-.753-2.264-.838-4.373-.272-6.664.421-1.704 1.287-3.44 2.413-4.839.732-.902 2.104-2.093 3.188-2.76 1.004-.614 2.516-1.218 3.685-1.474 1.666-.358 3.85-.369 5.447-.032 2.398.502 4.475 1.596 6.173 3.247 1.987 1.922 3.172 4.208 3.632 7.006.138.833.138 2.755.005 3.578-.29 1.745-.872 3.282-1.832 4.853l-.27.436-.04.062c-.005.005-.261-.027-.566-.065-.662-.09-1.965-.101-2.643-.026-2.067.232-3.966.826-6.216 1.946l-.924.462-.459-.235c-1.65-.849-4.181-1.698-5.885-1.981-2.462-.4-4.245-.187-7.503.897-1.33.449-2.435.903-3.765 1.554l-.064.032c-.47.235-.877.405-.918.39m14.205-4.71a1.4 1.4 0 0 0-.419-.483l-.025-.019c-.165-.124-.33-.289-.375-.372l-.004-.007c-.037-.074-.11-.379-.178-.713l-.017-.087-.013-.065-.037-.199c-.082-.455-.083-.539-.024-.633l.008-.012c.042-.07.357-.31.689-.534q.132-.087.272-.182l.046-.032c.246-.169.48-.34.595-.432.368-.305.763-.812.897-1.143l.01-.027c.05-.126.104-.218.129-.213l.015.004.062.022.179.065c.433.154 2.088.304 2.505.224.23-.042.398-.191.405-.357v-.012c.006-.064-.106-.464-.245-.891l-.275-.882-.008-.026-.003-.012c-.03-.104-.123-.153-.51-.287l-.085-.03c-.546-.188-.712-.281-.95-.52-.274-.274-.553-1.008-.551-1.428v-.054c.004-.221-.015-.277-.12-.365l-.008-.006c-.095-.075-.18-.249-.292-.586l-.2-.616.246.016c.237.016.39.145.181.15h-.01c-.08 0-.107.026-.09.09l.008.03c.015.057.04.16.064.266l.011.05.007.034c.048.208.107.31.23.41l.023.019c.133.105.15.163.18.526.032.47.256 1.047.502 1.309.182.188.514.36.998.508l.032.01c.445.134.564.229.62.516l.008.046c.028.143.135.52.248.858l.035.108.058.183.012.04c.092.312.097.432.077.721l-.004.057c-.026.39.005.427.265.488.086.02.23.088.336.154l.017.011c.416.273.785.358 1.014.24.145-.08.129-.191-.048-.26-.085-.038-.32-.236-.528-.45l-.083-.083c-.382-.39-.407-.491-.486-1.89l-.016-.29c-.017-.288-.056-.567-.096-.647l-.003-.005c-.077-.15-.506-.532-.795-.717l-.033-.02c-.23-.142-.492-.412-.466-.477l.002-.004c.016-.026.037-.256.043-.518l.002-.06c.012-.29.038-.421.083-.436.043-.016.214.032.384.112l.034.014a1.7 1.7 0 0 0 .387.124h.007c.058 0 .112.017.112.038 0 .097-.241.372-.464.53l-.1.071a1.2 1.2 0 0 0-.184.141c0 .01.133.115.307.247l.083.063c.207.155.483.395.622.54l.062.067c.235.254.242.34.283 1.374l.004.094c.038.75.106 1.208.204 1.305.059.06.123.06.363.006l.09-.019c.117-.025.206-.046.214-.05a1 1 0 0 0-.07-.204l-.015-.04c-.124-.316-.075-.35.165-.12.266.26.497.384.726.39h.017c.087 0 .418-.03.76-.072l.11-.014.064-.008c.362-.047.704-.065.775-.05.193.052.258.272.271 1l.012.709-.214.069c-.272.096-.454.3-.454.513 0 .197.187.608.288.646.04.015.22-.146.45-.407l.28-.317c.366-.42.328-.447.292-1.332l-.005-.122c-.038-.886-.104-1.192-.296-1.347-.042-.032-.32-.122-.624-.197l-.067-.018c-.57-.15-1.066-.326-1.066-.377 0-.022.129-.027.289-.022l.283.022.07-.262.006-.029a6 6 0 0 0 .082-.637l.002-.023c.03-.456-.015-.696-.304-1.431l-.059-.15a7 7 0 0 1-.208-.571c0-.027.074-.075.165-.112l.016-.008a4 4 0 0 0 .485-.31l.086-.064c.25-.18.33-.21.497-.195l.03.002c.157.007.198-.014.253-.12.064-.133.011-.32-.09-.32-.033 0-.054-.059-.054-.133 0-.157.103-.176.227-.041l.008.009c.144.16.385.23.465.133.074-.09.021-.529-.091-.705-.08-.123-.486-.438-.566-.438-.022 0-.043.043-.043.096s-.064.22-.139.364l-.066.128c-.063.12-.131.248-.174.326-.137.273-.713.846-.99.997l-.014.006c-.128.07-.39.155-.587.198l-.071.015c-.553.111-.826.08-2.482-.207-.299-.048-.465-.15-.635-.369l-.01-.013c-.077-.112-.091-.215-.081-.58l.001-.092c.004-.455-.052-.516-.428-.602l-.068-.015c-.37-.083-.493-.153-.59-.289l-.015-.024c-.073-.11-.108-.112-.508-.077-.387.026-.994.19-1.284.337l-.024.013c-.094.046-.122-.013-.415-.89l-.028-.085-.047-.144c-.202-.63-.281-.942-.274-1.089l.002-.028c.008-.156-.045-.311-.282-.778l-.147-.288a8 8 0 0 0-.38-.684l-.007-.008-.008-.01-.016-.015c-.048-.045-.058-.033-.059.064v.01c0 .065.036.375.083.728l.02.142.085.62.026.198c0 .005.07.09.155.187.08.096.17.235.192.31l.006.018c.025.082.11.33.217.635l.135.383.122.353c.11.32.185.552.177.56l-.028.016c-.045.026-.136.08-.24.139-.309.181-.523.422-.523.598 0 .235.22.571.647.998l.028.028c.221.22.393.434.393.48 0 .13.101.219.249.224h.03c.28.007.38.195.757 1.362l.191.59.268.82.061.187c.082.248.115.429.09.47-.033.053-.065.042-.129-.038-.08-.106-.808-2.279-.822-2.457v-.005c0-.06-.043-.073-.196-.057l-.063.008c-.147.016-.459.04-.73.055-.907.053-1.468.235-1.959.619-.23.189-.508.218-.983.108l-.026-.007c-.63-.154-1.25.054-1.544.518-.183.288-.263.627-.267 1.147v.034c0 .662-.155 1.105-.539 1.57l-.02.024c-.105.129-.165.238-.14.253.08.054.651-.07.897-.187.299-.144.577-.416.683-.667l.008-.02c.04-.113.094-.374.126-.62l.005-.044c.112-.956.502-1.42 1.213-1.42h.04c.135.002.132.02.093.17a4 4 0 0 0-.041.59l-.001.043v.623l.322.64c.224.447.248.535.227.759-.037.368-.203.609-.55.78l-.03.015c-.143.077-.27.169-.285.209-.015.036.03.34.103.68l.004.02q.132.6.139 1.104l.001.257c.005.36.044.362.506.678l.027.02c.165.118.188.154.17.285l-.005.032c-.037.25.054.304.593.341l.083.006c.47.027.494-.027.302-.406m3.133-12.7.007-.004c.041-.021.163-.167.273-.322l.01-.015c.24-.345.477-.486.788-.47h.018c.166.011.224-.005.224-.058 0-.129-.203-.4-.373-.502-.193-.118-.652-.16-.876-.091-.331.107-.577.47-.652.982-.026.198-.08.305-.192.412l-.019.017c-.077.073-.113.14-.088.159.063.037.75-.045.88-.109m5.997 1.137.032-.076c.167-.406.165-.49.012-.617l-.012-.01c-.09-.075-.335-.299-.565-.513l-.047-.043c-.27-.246-.48-.393-.652-.459l-.23-.086-.053-.02a1 1 0 0 1 .07-.204c.186-.448.015-.55-.348-.208-.268.258-.283.469-.058.95l.05.108c.238.511.325.788.328 1.033v.043c.006.275.084.36.41.43l.018.005c.6.126.884.04 1.045-.333m-1.302 1.363c.027-.026-.032-.25-.144-.534a5.4 5.4 0 0 1-.237-.844l-.003-.02c-.032-.214-.16-.652-.3-1.005l-.015-.04c-.129-.321-.231-.639-.24-.724v-.005c-.006-.085-.022-.15-.038-.15l-.024.012-.017.011-.017.011a7 7 0 0 0-.326.234c-.68.516-1.064 1.189-1.197 2.11l-.018.128c-.047.346-.053.527-.019.581.08.127.819.368 1.28.415l.018.002c.395.037 1.19-.075 1.297-.182m-3.888-1.84.006-.007a.5.5 0 0 0 .08-.194v-.01c0-.053.059-.122.134-.16.155-.069.24-.293.24-.635v-.262h-.203a.65.65 0 0 0-.301.075l-.009.005c-.192.129-.667.882-.635.988.048.145.165.225.406.267l.03.006c.151.024.195.01.252-.072m4.364-.306c-.155 0-.23-.06-.289-.23q-.065-.186.262.021c.224.134.23.209.027.209m-6.894 2.456c-.024 0-.141-.16-.254-.333l-.04-.062c-.1-.158-.187-.311-.187-.347 0-.043.133-.155.197-.166.006 0 .06.139.123.305l.046.122c.133.355.163.481.115.481m-2.601.32c.715 0 1.292-.192 1.292-.427v-.133l-.694-.032-.14-.007-.048-.002a15 15 0 0 1-.747-.055.9.9 0 0 0-.363.016c-.161.067-.196.186-.098.34l.008.012c.122.192.39.288.79.288m12.47 5.271c.035-.043.113-.32.179-.611l.009-.042c.03-.132.055-.265.073-.378.016-.096-.032-.347-.112-.592l-.018-.06c-.065-.227-.15-.56-.195-.786l-.016-.078c-.1-.492-.161-.58-.503-.855l-.048-.037c-.272-.213-.332-.204-1.1-.027l-.593.134-.064.406-.012.08c-.03.197-.065.387-.079.443q-.031.121.032.123c.032 0 .326-.103.66-.233l.113-.044c.298-.116.556-.204.6-.204.16 0 .364.28.48.659l.026.093c.064.214.15.495.204.653l.101.315-.213.197c-.273.263-.278.422-.013.692l.013.013q.322.322.475.14m-7.461 4.219c-.134-.23-.251-.347-.588-.572-.293-.186-.635-.496-1.1-.987l-.672-.716.08-.15c.042-.08.24-.368.432-.63.374-.523.508-.849.508-1.287v-.277l-.305-.038-.053-.005a6 6 0 0 1-.363-.053c-.086-.022-.134.026-.24.224a2.8 2.8 0 0 1-.364.506l-.016.017c-.22.24-.25.302-.286.6l-.002.02a2.6 2.6 0 0 1-.166.635c-.07.155-.128.326-.128.374 0 .042.29.374.646.736l.093.094c.337.343.67.72.772.876l.006.008c.165.256.23.304.496.4l.31.107v.268c.001.19.017.213.15.243l.01.002c.091.021.326.037.524.043h.044c.406.001.429-.062.212-.438m11.129 8.88a4 4 0 0 1-.363-.256c-.759-.593-1.827-1.212-2.681-1.554-1.197-.48-3.106-.923-4.434-1.032l-.073-.005c-.22-.018-.324-.079-.78-.42a14 14 0 0 0-1.01-.695l-.08-.049c-.229-.141-.406-.269-.416-.293-.005-.016.114-.085.31-.183l.03-.015c.26-.13.643-.307 1.051-.487l.11-.048.124-.054.094-.04.151-.065.373-.154a20 20 0 0 1 2.622-.844l.098-.022.186-.042.102-.022.075-.015.076-.015c.337-.067.717-.128 1.39-.226.167-.023.593-.02 1.037-.001l.082.003.054.003.124.006c.38.021.739.052.92.085l.091.018c.216.043.406.086.443.1.043.016-.23.112-.614.208-1.778.46-3.279 1.164-4.336 2.05l-.027.022c-.174.142-.31.279-.31.304 0 .14.32.038.77-.248l.037-.024c1.538-.994 3.652-1.742 5.192-1.845l.046-.003a6 6 0 0 1 .714.02l.07.006.094.008.088.008c.417.042.786.104.786.15 0 .017-.102.038-.23.049-.576.037-1.98.47-2.99.918-1.234.556-2.628 1.533-2.531 1.784l.004.01c.045.094.152.05.54-.224.74-.52 1.825-1.075 2.825-1.448l.054-.02c.87-.326 2.552-.69 3.172-.69.091 0 .348.062.614.137l.062.018.067.02.115.034c.302.093.55.184.49.197l-.018.004c-.076.014-.341.054-.625.098-2.04.315-4.406 1.314-5.431 2.296-.43.414-.207.478.375.124l.036-.022c1.933-1.196 3.866-1.87 5.927-2.056l.668-.064.476.19c.353.142.3.154-.396.253-1.13.168-2.496.605-3.537 1.132l-.052.027c-.971.496-2.232 1.442-2.232 1.677 0 .176.155.112.85-.347 1.47-.986 2.961-1.613 4.607-1.937l.065-.013c.746-.147 1.555-.196 1.962-.116l.02.004c.12.025.33.092.544.17l.059.02.038.015c.317.118.613.248.613.281 0 .016-.342.048-.758.064a11.6 11.6 0 0 0-3.279.604c-1.512.495-2.692 1.146-3.872 2.128l-.129.108c-.167.138-.3.242-.32.242m-20.923 0c-.014 0-.212-.165-.459-.38l-.091-.079c-1.898-1.66-4.345-2.566-6.99-2.584h-.142c-.35-.003-.58-.023-.58-.054 0-.08.583-.358.951-.454 1.01-.261 2.569-.101 4.064.406.763.261 1.485.604 2.34 1.104l.135.079c.348.203.653.36.697.36.19 0 .156-.129-.099-.367l-.013-.012c-.39-.357-.844-.646-1.693-1.068-1.196-.592-2.483-.966-3.668-1.052l-.55-.037.416-.198.138-.066c.66-.314.767-.324 1.379-.254 1.239.136 2.35.502 3.975 1.305l.105.051c.635.32 1.18.577 1.212.577.123 0 .059-.155-.134-.326-.888-.777-2.776-1.627-4.285-1.93l-.252-.049c-.395-.078-.375-.084-.194-.135 1.507-.444 2.595-.245 4.907.92l.25.126c.608.305 1.093.54 1.118.54.09 0 .037-.16-.102-.294-.651-.62-2.435-1.495-3.754-1.848l-.24-.07.347-.069c1.353-.27 2.906.131 4.88 1.264l.364.21c.421.241.505.274.543.229l.003-.004.004-.006c.059-.09-.048-.219-.422-.496-.834-.63-1.927-1.177-2.973-1.5l-.087-.027c-.246-.077-.426-.151-.406-.172.14-.138 1.992-.101 2.873.054 1.928.342 3.888 1.004 5.928 2.008.988.48 1.81.96 2.531 1.479l.04.029c.173.13.404.323.631.526l.04.036.097.087c.336.307.637.608.7.715l.024.042c.047.086-.023.058-1.126-.351-.32-.118-.669-.238-1.023-.352l-.088-.029-.133-.042-.134-.042-.088-.027-.086-.027-.127-.038c-.736-.221-1.433-.402-1.884-.48l-.026-.004c-2.29-.396-4.272-.166-5.97.678-.748.374-1.826 1.137-2.483 1.762l-.113.103a2.5 2.5 0 0 1-.277.234m5.954-.822c-.042-.042.293-.457.686-.857l.03-.032.03-.03.062-.061.047-.045.443-.433.507.043.084.008c.267.028.597.07.77.093l.138.025c.44.08.725.143.701.168l-.003.001-.055.021-.037.013-.04.013c-.122.04-.313.097-.522.155l-.11.033c-.243.073-.606.189-.986.313l-.157.052-.408.135c-.438.147-.827.281-.998.348l-.023.008c-.077.026-.144.039-.159.03m20.65 4.032c.108-.056.264-.18.357-.285l.036-.042c.123-.142.147-.22.147-.426v-.058c.002-.12.007-.209.016-.209l.009.002c.047.01.271.064.53.131.406.102.663.134 1.133.134 1.644 0 2.492-.555 2.276-1.488l-.007-.029a.8.8 0 0 1-.005-.405c.085-.294.021-1.303-.091-1.496-.304-.518-1.533-.838-2.686-.71-.657.075-1.244.304-1.522.603l-.16.166v.928c-.002.524-.017.608-.08.583-.38-.165-.839-.245-1.496-.272l-.075-.002c-1.047-.027-1.734.156-2.146.579l-.208.213-.016.716-.002.079c-.016.77.045.938.391 1.176.695.48 2.75.545 3.6.112m-28.35-.593c.08-.32.064-1.313-.027-1.495-.192-.374-.603-.593-1.362-.726-.806-.14-1.96-.038-2.456.219l-.134.07V35.22l-.256-.235c-.518-.47-1.607-.651-2.782-.47-.71.112-1.212.369-1.4.726-.106.203-.095 2.409.017 2.622.107.214.46.449.865.577.705.224 2.077.192 2.755-.064l.157-.057c.071-.026.12-.044.126-.044.005 0 .01.068.01.16l.001.064c0 .56.507.93 1.495 1.09 1.448.234 2.81-.145 2.99-.834M42.63 36.16h-.126c-.45-.004-.616-.034-.957-.144-.433-.144-.716-.337-.716-.486 0-.2.616-.48 1.228-.558l.022-.003c.41-.053.849-.032 1.308.059.384.075.7.213.854.384l.129.14-.187.175c-.305.29-.827.433-1.555.433m-38.6-.483-.029-.031c-.084-.094-.078-.1.017-.206.139-.155.449-.304.812-.39.411-.101 1.394-.101 1.815-.005.396.09.732.256.807.384.187.337-.726.721-1.73.732-.748.005-1.407-.182-1.692-.484m.004.991c-.09-.09-.15-.422-.075-.422.015 0 .108.042.206.09l.024.012c.678.347 1.986.384 2.884.08l.219-.07.107-.034.04-.012.028-.008.017-.004c.07 0 .016.261-.064.33-.69.604-2.793.631-3.386.038m37.35.283-.028-.01c-.32-.118-.576-.358-.576-.54v-.025c.001-.097.018-.09.25.004.45.172.878.242 1.475.245h.042c.655.006 1.068-.056 1.481-.214l.157-.06c.162-.062.172-.053.173.03v.03c0 .177-.289.401-.679.535-.652.215-1.702.219-2.295.005m-2.82 1.244h-.072c-.712-.01-1.094-.092-1.45-.32l-.029-.018c-.267-.178-.29-.32-.084-.495.422-.347 1.512-.507 2.409-.347.464.086.892.273 1.004.444l.009.014c.06.1.047.127-.116.29-.3.299-.817.432-1.672.432m-30.215-.218c-.24-.123-.411-.289-.411-.401 0-.123.299-.347.592-.449.572-.197 1.565-.218 2.211-.053.593.155.892.449.684.678-.46.508-2.254.641-3.076.225m-4.096-.129c-.23-.114-.316-.234-.32-.439v-.015c0-.117.016-.138.096-.106l.016.006c.068.029.263.102.448.17.764.272 2.051.208 2.75-.139l.045-.022q.394-.192.233-.031c-.037.037-.064.128-.064.208 0 .62-2.216.87-3.204.368m38.342.24h-.064c-.975-.009-1.54-.223-1.683-.642l-.019-.057c-.05-.16-.008-.154.292-.021.835.37 2.097.342 3.06-.066l.032-.014c.075-.032.091-.011.091.155v.025c-.003.133-.03.18-.168.27l-.04.025c-.369.235-.77.32-1.5.326m-27.02 1.362c2.843-.523 5.593-.722 9.286-.68l.112.002c3.537.048 5.064.184 8.483.778l.142.025c.27.046.315.037.442-.055.182-.134.214-.337.07-.465-.262-.235-3.097-.662-5.906-.892-.914-.074-6.168-.106-7.263-.048-1.866.105-3.97.36-5.608.68l-.189.036c-.827.167-.953.232-.958.46v.015c0 .363.128.374 1.388.144m-6.991-.443c-.454-.16-.646-.315-.646-.523v-.15l.32.128c.176.07.46.155.625.193.689.139 1.869.032 2.36-.214l.22-.112v.155c0 .197-.113.31-.455.464-.62.283-1.703.31-2.424.06m29.809.107-.062-.003c-.928-.042-1.44-.235-1.512-.584l-.007-.038c-.029-.155.008-.16.246-.053.118.051.392.133.613.177l.022.004c.78.16 1.832.086 2.42-.176l.24-.107v.155c0 .427-.77.673-1.96.625M17.88 41.015l-.054.015c-.224.061-.307.11-.55.33l-.036.034c-.315.29-.408.521-.41 1.047v.027c0 .391.018.504.122.707l.021.04c.269.516.677.767 1.245.77h.026c.4 0 .668-.08.935-.29l.192-.143-.032-1.191-.545-.016-.55-.016v.54h.588v.229c0 .192-.02.243-.125.29l-.009.003c-.235.107-.683.08-.886-.058-.56-.37-.55-1.327.02-1.714l.017-.011c.278-.187.716-.144 1.041.09.07.054.113.043.225-.037.187-.133.219-.23.112-.347-.237-.263-.903-.412-1.347-.299m13.554-.01c-.288.058-.582.325-.635.587-.1.485.206.872.853 1.066l.06.018c.212.064.42.153.47.208.155.139.139.39-.032.497-.267.176-.844.064-.983-.192l-.009-.017c-.068-.119-.114-.11-.294.039l-.012.01c-.215.178-.208.294.025.48l.013.01c.267.21.491.279.902.279.625 0 .977-.267 1.02-.775l.003-.036c.03-.507-.164-.743-.791-.958l-.045-.015c-.507-.17-.651-.267-.651-.433 0-.17.186-.293.443-.293a.76.76 0 0 1 .55.219l.019.017c.089.083.104.067.27-.103l.04-.042c.122-.128.127-.15.057-.23l-.023-.027c-.224-.256-.801-.4-1.25-.31m-26.887.058-.001.004c-.016.063-.02.718-.015 1.48l.016 1.416.582.016.065.001c.64.01.977-.074 1.313-.327.486-.363.688-1.148.453-1.757-.106-.283-.459-.63-.768-.769-.278-.123-1.603-.176-1.645-.064m1.49.62c.33.192.486.587.405 1.014-.09.486-.395.705-.971.705h-.364v-1.885l.39.037c.209.022.454.08.54.129m2.301-.593-.014.036c-.17.446-.974 2.758-.974 2.81 0 .036.09.053.261.044l.29-.017.106-.31.102-.304h.69c.269.001.474.006.474.01v.004c.006.025.051.156.101.306l.096.294.3.016.03.002c.156.007.274-.003.274-.018 0-.037-.874-2.497-.99-2.785l-.015-.034c-.06-.14-.085-.145-.373-.145h-.035c-.228.002-.292.025-.323.09m.582 1.175.187.55h-.444c-.196-.001-.351-.006-.351-.016v-.003c.015-.06.295-.904.347-1.044l.008-.02c.036-.082.054-.03.253.533m3.589-1.218c-.064.102-.993 2.788-.993 2.868 0 .064.058.075.277.064l.278-.016.17-.588 1.186-.032.102.31.096.31.283.016.044.003c.192.01.23-.002.229-.073v-.01c0-.054-.225-.721-.497-1.485l-.492-1.388-.325-.016c-.182-.01-.342.01-.358.037m.533 1.135.04.123c.082.25.142.453.142.472 0 .021-.167.037-.373.038h-.406l.187-.561.042-.121c.089-.252.163-.44.177-.44.015 0 .1.216.19.489m1.705-1.12-.002.005c-.015.068-.02.718-.015 1.48l.016 1.416.283.016.278.016v-1.18h1.02l-.016-.257-.016-.25-.491-.017-.497-.016v-.683l1.255-.032v-.534l-.897-.016-.17-.003c-.547-.006-.729.007-.748.054m5.286.001v.004c-.016.063-.021.718-.016 1.48l.016 1.416h.534l.032-1.255h1.218l.032 1.255h.534v-2.937h-.534l-.032 1.201h-1.218l-.032-1.201-.256-.016-.033-.002q-.224-.011-.245.055m3.872-.048-.005.016c-.02.062-.103.301-.22.636l-.581 1.66c-.126.363-.209.607-.209.62 0 .026.125.042.274.043h.308l.091-.32.09-.327 1.176.032.106.305.102.31h.318c.146-.003.259-.024.259-.054 0-.036-.542-1.587-.925-2.661l-.055-.153c-.042-.114-.077-.122-.353-.123h-.066c-.173.001-.31.011-.31.016m.555 1.239.1.275c.055.158.092.266.092.27 0 .01-.181.016-.405.016h-.087c-.236-.004-.312-.022-.298-.07l.004-.009c.013-.031.046-.12.088-.237l.129-.365c.089-.248.164-.435.174-.43l.01.022c.026.068.108.281.193.528m1.698.224.016 1.485.251.016.257.016.01-1.004.016-1.004.69.999.683 1.004h.577V41h-.534l-.011.998-.016.998L26.719 41h-.571zM33.25 41v.534h.961l.011 1.212.016 1.218.251.016.256.016.011-1.218.016-1.217.47-.016.465-.016V41zm3.527.11-.012.03c-.174.417-.989 2.776-.968 2.808.01.026.13.041.269.042h.27l.102-.31.107-.304 1.175-.032.096.326.096.32h.352c.249 0 .277-.013.246-.096l-.01-.026c-.033-.086-.13-.355-.26-.713l-.76-2.128-.326-.016-.05-.003c-.243-.011-.283.003-.327.103m.531 1.034.07.218c.064.196.12.358.133.384.017.054-.08.07-.379.07h-.406l.21-.595c.103-.287.202-.505.218-.484.019.019.084.193.154.407M39.124 41v2.99h.534v-1.04c-.002-1.079-.056-1.076.775.138l.624.908.273-.016.277-.016v-2.937l-.25-.016-.257-.016-.01 1.004-.017 1.004-.689-1.004L39.69 41zm-9.655 1.506.016 1.458.257.016.25.016v-2.943h-.533zm-10.86 2.583-.002.002c-.026.021-.042.683-.042 1.473v1.432h.83c.761-.003.92-.052 1.167-.31.262-.278.245-.913-.022-1.159l-.023-.02c-.077-.072-.07-.087.023-.21.134-.165.145-.598.022-.806a1.1 1.1 0 0 0-.272-.272l-.028-.019c-.141-.093-.24-.112-.7-.126l-.254-.006c-.366-.009-.669-.003-.7.021m1.408.594c.128.113.123.31-.01.444-.084.083-.173.105-.456.106h-.388l-.022-.32-.016-.32h.396c.293 0 .421.021.496.09m.032 1.116c.086.06.118.134.118.273v.026c-.007.294-.123.362-.578.364h-.437v-.748h.438c.234.003.384.03.46.085m2.078-1.703c-.06.096-1 2.755-1 2.83 0 .059.065.07.279.059l.272-.016.182-.534 1.185-.032.085.299.086.294h.324c.145-.003.258-.023.258-.048v-.005c-.012-.05-.15-.458-.342-.998l-.662-1.86-.32-.016c-.177-.01-.337.006-.347.027m.533 1.2.048.137c.075.214.129.386.129.404 0 .048-.748.048-.748-.005-.005-.102.347-1.074.38-1.036.015.02.102.246.19.5m1.711-1.202-.002.002c-.02.015-.036.636-.037 1.392V48l.283-.016.278-.016.053-1.87 1.282 1.891h.31l.304.006-.01-1.458-.017-1.453h-.48l-.016.945-.002.137c-.008.459-.032.814-.052.814-.021-.005-.331-.438-.694-.961l-.657-.961h-.256c-.134 0-.263.015-.287.035m3.256-.003c-.02.02-.036.64-.037 1.397v1.508h.587v-.561c.002-.363.02-.458.096-.523.053-.054.112-.091.134-.091.016 0 .218.261.443.587l.411.588h.336c.187 0 .342-.016.342-.032v-.003c-.014-.04-.253-.394-.547-.811l-.072-.101c-.302-.429-.49-.743-.47-.778.021-.038.245-.3.491-.588l.072-.082c.411-.478.414-.538.053-.542h-.105c-.195 0-.214.025-.784.683l-.373.427-.027-.539-.027-.545-.24-.016c-.134-.01-.262 0-.283.022"/>
</svg>
