<svg>
  <path d="M45.234 39.352h-5.36l2.2-2.826H36.12l-2.122 2.722c-.793 1.081-.87 2.173-.87 2.93v.429c0 .495.314.764.78.764h11.328c.457 0 .765-.246.765-.75v-2.517c0-.506-.308-.752-.765-.752m-30.51-9.985c-.086-.474-.415-.707-.842-.707h-1.515a4.428 4.428 0 0 0-3.747 2.048s-1.445 2.256-3.065 4.795H15.84l-1.116-6.136h.002Zm16.938.042c0-.503-.307-.749-.768-.749h-3.083c-.457 0-.765.246-.765.75v5.703l-2.922-5.128c-.585-.945-1.568-1.304-2.716-1.325h-2.28c-.452 0-.76.246-.76.75v6.097h3.83l.59 1.019h-4.42v6.096c0 .503.308.753.76.753h3.091c.46 0 .764-.25.764-.753l-.002-5.74 2.95 5.17c.578.94 1.565 1.299 2.705 1.323h2.257c.46 0 .768-.25.768-.753v-6.096H27.86l-.587-1.02h4.39v-6.097Zm-15.64 7.117h-5.08c.13.693 1.067 5.848 1.123 6.148.086.464.382.701.817.701h3.494c.32 0 .481-.098.632-.277.102-.124.145-.312.097-.588l-1.084-5.984h.001Zm-14.91 5.927c-.14.23-.14.473-.055.63.097.184.314.292.548.292h3.63a1.3 1.3 0 0 0 1.094-.6l4.004-6.25H4.902c-1.865 2.918-3.743 5.86-3.79 5.928m32.898-9.78h5.105l-2.202 2.83h5.953l2.171-2.787c.67-.862.826-1.633.826-2.316v-.97c0-.498-.308-.77-.778-.77H34.01c-.457 0-.762.246-.762.75v2.517c0 .501.305.746.762.746M23.45 10.33c1.042 0 2.23.883 2.23 2.103 0 .688-.226 1.219-.556 1.704a3.2 3.2 0 0 0-.44.922c-.072.29-.229.995.653 1.007.574.014 1.986-.474 3.127-1.816a6.21 6.21 0 0 0 1.4-3.938c0-3.485-2.87-6.312-6.416-6.312-3.546 0-6.42 2.827-6.42 6.312 0 1.492.521 2.86 1.4 3.938 1.142 1.342 2.554 1.83 3.127 1.816.882-.012.722-.716.654-1.007a3.115 3.115 0 0 0-.44-.922c-.33-.485-.556-1.016-.556-1.704.003-1.22 1.188-2.103 2.235-2.103m11.346 6.38c-.263-.213-.724-.523-1.67-.665-1.315-.192-2.487.109-3.193.382-.928.359-2.072 1.174-2.86 2.235-.835 1.122-1.266 2.815-.853 4.58.087.395.233.774.432 1.125.247.474.898 1.134 1.467 1.254.45.09.802-.162.975-.353 1.147-1.297 5.496-6.322 5.967-6.963.463-.638.16-1.25-.265-1.595m-17.83-.283c-.707-.273-1.878-.574-3.192-.382-.947.142-1.412.452-1.672.665-.425.345-.73.957-.265 1.595.47.641 4.817 5.666 5.964 6.963.173.19.525.443.976.353.572-.12 1.22-.78 1.466-1.254.2-.351.348-.73.436-1.125.412-1.765-.026-3.458-.85-4.58-.792-1.061-1.937-1.876-2.864-2.235"/>
</svg>
