---
version: "3.1.5"
---
<svg>
  <path d="M11.154 44.03c.013 0 .026-.057.038-.161l.006-.056c.044-.44.08-1.496.082-2.718v-3.1l-1.258.256v-2.804l-.734.15-.734.129v-1.213c-.006-.795-.073-.956-.374-.97h-.046c-.293 0-.44-.193-.524-.814l-.033-.18a44 44 0 0 0-.393-1.83l-.098-.409c-.236-.973-.476-1.85-.587-2.053l-.02-.033c-.135-.207-.217-.014-.337.803l-.027.193c-.156 1.06-.295.947-.79-.45l-.378-1.027.566-.45c1.027-.813 1.594-3.231.839-3.51-.273-.106-.252-.213.084-.663.23-.278.46-.813.545-1.198.063-.385.356-1.177.65-1.755.273-.6.545-1.52.587-2.033.063-.792.23-1.113.923-1.84.902-.921 1.32-1.948.902-2.205-.182-.124-.17-.327.02-.783l.021-.052c.288-.692.556-.706.566-.041v.041c0 .45.273.492.609.086.23-.278 1.342-.3 2.244-.022.566.172 1.384-.513 1.447-1.198l.01-.128c.078-.914.365-1.739.602-1.776h.017c.272 0 2.076-1.863 2.223-2.29.123-.38 2.607.008 3.503.531l.318.193c1.455.875 1.789.87 2.278.038l.045-.078c.564-.988.974-1.243 2.067-1.204l.135.006c2.873.107 6.584 1.476 9.1 3.317 1.49 1.07 3.524 3.189 4.53 4.687.945 1.404 2.172 4.144 2.596 5.824l.026.104c.86 3.446.587 7.662-.713 11.086-.617 1.616-2.122 4.18-3.208 5.428l-.064.072c-1.491 1.67-1.407 1.335-1.02 3.472l.078.447c.174.964.362 1.788.418 1.902.105.193.482-.043 1.237-.706l1.09-.985.777.685.797.664 1.024-1.14c.475-.536.979-1.169 1.136-1.428l.063-.095c.266-.406.204-.48-.44-1.018l-.693-.6.378-.727.168-.316c.603-1.124.692-1.165 1.45-.775l.122.064c.651.332.868.382 1.034.189l.015-.018c.398-.471 1.51-3.189 1.405-3.36-.063-.107-.44-.3-.84-.428-.796-.278-.859-.471-.44-1.82l.067-.224c.183-.593.273-.63 1.05-.631h.274c.86-.003.918-.046 1.046-.667l.017-.083c.084-.406.189-1.24.252-1.861l.125-1.113-.775-.129-.282-.051c-.967-.182-1.016-.272-1.019-1.259v-1.343l.944-.15.111-.015c.477-.068.88-.184.938-.264.083-.17-.231-2.846-.42-3.467-.084-.278-.314-.32-1.111-.235l-.986.086-.273-.985-.1-.406c-.211-.87-.16-.941.517-1.25l.358-.165c.772-.364.709-.453-.208-2.523l-.115-.254c-.53-1.15-.73-1.232-1.502-.797l-.16.091c-.669.374-.797.28-1.432-.752l-.629-.985.713-.62.134-.113c.542-.458.56-.562.306-.979l-.059-.095c-.583-.913-1.92-2.409-2.163-2.409-.12 0-.433.215-.698.496l-.102.11c-.575.611-.745.562-1.696-.264l-.818-.727.44-.728.058-.098c.225-.394.404-.766.404-.865 0-.214-1.615-1.391-2.663-1.969l-.082-.04c-.354-.165-.475-.079-.925.64l-.524.855-1.265-.568c-.831-.38-.823-.449-.706-1.122.084-.407.147-.878.168-1.049.02-.214-.504-.47-1.552-.813l-.53-.156c-.65-.189-1.195-.336-1.295-.336-.147 0-.377.428-.503.963l-.252.984-.964-.128-.37-.055c-1.027-.157-1.112-.242-1.119-1.008v-.38c-.008-.726-.08-.772-.776-.89l-.177-.028c-1.408-.215-1.937-.097-2.85.605l-1 .771-.901-.406-.117-.054c-.471-.21-.969-.374-1.162-.374-.336 0-.378.107-.252.856l.014.095c.118.838-.092.993-.496.333-.138-.222-.37-.406-.554-.426l-.033-.002c-.18 0-.493-.214-.722-.493l-.033-.042c-.231-.3-.63-.535-.923-.535-.533 0-1.306.654-1.341 1.123l-.001.032c0 .171-.147.343-.315.428-.167.064-.398.343-.503.642-.157.361-.388.516-1.021.622l-.287.045c-.821.138-.946.3-2.173 2.158l-.03.043c-.172.235-.302.22-.977-.064l-.776-.321V7.26c-.005.796-.076.838-1.027 1.242-.566.257-1.28.792-1.615 1.241a21 21 0 0 1-1.3 1.413c-.856.79-1.276 1.58-1.3 2.41v.072c0 .493-.105.642-.399.642-.431 0-.923.905-1.16 2.11l-.014.073c-.084.45-.23.814-.315.814-.308 0-.657 1.237-.67 2.335v.062c0 .593-.135 1.422-.275 1.886l-.02.061C.942 22.65.9 26.523 1.236 27.186c.12.245.468.703.772 1.06l.046.053c.398.45.629.963.713 1.712l.126 1.07-.462-.62-.618-.778-.197-.244-.59-.712.399 1.862c.503 2.354 1.342 4.537 2.139 5.586l.227.297c.453.606.373.637-.27.88l-.123.054c-.368.168-.267.222.648.631l1.048.45-.524.406-.062.052c-.239.203-.338.363-.226.375l.016.001c.125 0 .692.193 1.258.45l.33.145c.652.292.612.337.173.56l-.078.047c-.393.24-.245.344 1.65 1.473l.373.224 2.354 1.403.089.057c.325.206.631.35.708.35m27.073-.9c-.042-.02-.21-.813-.378-1.754l-.314-1.67 1.258-1.54c2.055-2.483 3.271-4.859 4.068-7.983.536-2.042.545-6.504.027-8.728l-.027-.111c-.461-1.948-1.657-4.623-2.789-6.335-1.176-1.768-3.853-4.303-5.776-5.465l-.096-.056c-2.034-1.238-4.995-2.229-7.126-2.409l-1.765-.138-.44-.878c-.294-.599-.357-.877-.19-.941.148-.043.504-.3.798-.557l.545-.492-.965-.278-.203-.058c-.752-.217-.781-.283-.782-1.044V1.655h2.306v.941c0 .535.063 1.006.168 1.049.084.064.797.15 1.615.171l1.468.086.189-.814.03-.117c.21-.76.407-.8 1.819-.375l.462.14c.804.253.833.363.522 1.497l-.086.31c-.105.365.105.536 1.342 1.114l1.489.663.461-.835.08-.141c.223-.386.43-.693.486-.693.063 0 .671.364 1.321.813l1.196.813-.546.814-.545.834 1.133 1.027.207.182c.546.474 1.02.848 1.114.867.126 0 .482-.257.797-.578l.587-.578.916.91c1.059 1.059 1.082 1.29.342 2.065l-.671.707.797 1.24.309.49c.303.476.535.827.55.86.043.063.399-.065.797-.258l.209-.094c.343-.15.651-.27.756-.27.21 0 1.237 2.055 1.237 2.483 0 .144-.35.388-.79.578l-.33.141c-.324.14-.557.253-.557.287 0 .043.084.364.21.706l.055.186c.107.368.258.92.364 1.334l.23.898 1.007-.128 1.007-.107.125.813c.084.471.147 1.135.147 1.52l-.001.148c-.012.502-.116.55-.942.686l-.965.129.063 1.648.063 1.626.839.107.151.019c.615.082.692.194.75.73.042.343-.02 1.028-.125 1.498l-.168.857-.965-.065-.965-.085-.44 1.54-.125.433c-.18.63-.3 1.104-.276 1.148l.003.003c.042.043.377.172.755.343.377.15.734.364.796.45.084.17-.922 2.76-1.069 2.76l-.011-.003a15 15 0 0 1-.786-.318l-.157-.063c-.362-.143-.695-.258-.787-.258-.102 0-.522.568-.95 1.27l-.832 1.384.65.556.086.074c.335.298.585.598.585.697 0 .107-.42.663-.902 1.24l-.901 1.05-.776-.707-.776-.685-1.057.985c-.485.448-.896.768-.935.728M16.432 4.445l-.056-.029c-.422-.225-.922-.392-1.147-.405l-.028-.001c-.503 0-.356-.471.23-.75.253-.106.462-.363.462-.534 0-.9 1.384-1.135 1.783-.3.126.235.314.407.44.364.147-.043.399.085.608.278l.065.071c.258.29.206.337-.376.653l-.045.025c-.399.214-.84.514-.965.685l-.039.045c-.201.223-.347.194-.932-.102m5.543-.542c0-.278.293-.856.67-1.284l.11-.132c.475-.558.601-.577.855-.318.19.193.252.492.168.856-.1.392-.26.545-.609.556h-.041c-.3 0-.523.137-.616.39l-.013.039c-.189.599-.524.535-.524-.107m-.21-.022-.88-.834-.853-.828.002-.004c.131-.191.233-.155.997.168.587.257.734.45.734.92zm1.324-.895.06-.11c.189-.343.294-.664.23-.707-.041-.043-.188.15-.314.45l-.05.114-.064.153-.026.065c-.176.46-.104.512.164.035m-3.107-.688.029-.047.018-.028.897 1.102.092.116c.52.664.72 1.11.6 1.232-.503.514-2.034-1.712-1.636-2.375m3.765 2.372.01-.018c.084-.129-.126-.214-.461-.214l-.182-.008c-.379-.018-.338-.05-.007-.313.461-.343.797-.364 1.594-.107l.524.171-.524.043-.112.006c-.35.02-.34.05-.014.186l.099.04c.256.107.249.14.004.236l-.061.024c-.531.208-.982.173-.87-.046m-3.765-.018c-.188 0-.314-.193-.314-.45v-.07c.006-.317.06-.322.314-.122.168.15.315.342.315.45 0 .106-.147.192-.315.192m-2.264 1.22a.6.6 0 0 1-.18-.108l.725-.663.28-.274c.286-.285.496-.506.496-.539l-.001-.02c-.015-.135-.198.052-.859.748l-.65.74c-.312-.29-.14-.873.42-1.297.607-.47 1.11-.513 1.237-.085.146.406-1.09 1.647-1.468 1.498m-2.852.064c-.399 0-1.259-.899-1.133-1.177.147-.407 1.846-.428 2.58-.043.293.15.545.428.587.642l.01.055c.044.268-.04.276-.493.095l-.152-.055c-.569-.198-.828-.203-.718.014l.01.02c.106.17-.314.449-.691.449m8.158.274-.115-.106c-.871-.822-.467-1.023.555-.19l.091.076c.424.345.793.585.852.545.042-.064-.335-.428-.86-.813l-.281-.22c-.385-.305-.662-.537-.662-.572 0-.043.188-.064.44-.064s.713.3 1.049.663l.07.083c.3.36.514.718.475.838-.144.482-.932.368-1.614-.24m-8.467-1.203.015-.013c.084-.064-.042-.128-.273-.107-.22 0-.287.059-.146.12l.02.009c.137.06.31.045.384-.009m-1.18 1.766v-.045c0-.364-.063-.92-.147-1.199l-.126-.513.755.599.734.62-.44.578c-.598.778-.77.771-.776-.04m6.018-.41c-.23 0-.42-.598-.272-.962.125-.364 1.07-.428 1.279-.107.126.214-.671 1.049-1.007 1.07m1.49 1.178.335-.75.356-.748-.42.535c-.356.45-.44.47-.44.15 0-.45.378-1.263.713-1.477l.064-.042c.388-.244.49-.106.251.342l-.096.19c-.114.233-.09.236.11.064l.07-.062c.67-.556.398.492-.294 1.177zM19.457 5.7c.168 0 .462-.086.63-.193l.045-.033c.301-.223-.029-.213-.57.033l-.06.03c-.218.108-.238.162-.045.162M12.1 8.366l-.01-.154c-.017-.184-.038-.184-.088 0l-.03.119c-.084.32-.168.342-.524.15-.515-.294-.403-1.186.315-2.312l.041-.064c.587-.92.986-.963 1.174-.171.246 1.003.192 2.046-.123 2.414l-.023.026c-.41.438-.698.428-.732-.008m.367-2.154.008-.021c.058-.14.045-.315-.008-.391l-.013-.016c-.063-.086-.126.043-.105.278 0 .225.058.294.118.15m1.644 1.99c-.483-.17-.378-.47.482-1.412.63-.664.965-.856 1.489-.856h.692l-.608.492a10.6 10.6 0 0 1-1.384.985l-.087.055c-.394.259-.664.504-.605.544.063.064.398-.107.734-.364l.158-.11.14-.093c.31-.205.347-.178.351.07v.112c0 .47-.796.813-1.362.577m4.781-.684c-.776-.193-1.153-.578-.986-1.006.19-.514.776-.45 1.342.17l.056.063c.477.543.293.606-.475.152-.294-.171-.608-.3-.734-.3-.101 0 .13.18.544.405l.18.097c.792.437.829.601.073.419m1.07-.45c-.215-.298-.23-.411.004-.598l.138-.105c.363-.273.374-.192.256.49l-.024.12c-.086.415-.124.408-.375.093m-3.65 2.183.105-.642.126-.642-.314.642-.294.642-.02-1.027c-.022-.75.083-1.113.419-1.455l.06-.06c.495-.486.62-.34.338.402-.126.321-.189.642-.126.685.04.04.177-.214.3-.556l.048-.141c.152-.432.272-.533.428-.373.328.334.095 1.18-.503 1.877zm5.956-.642c-.084-.171-.251-.321-.377-.321-.147 0-.357-.107-.483-.235-.162-.166-.069-.413.377-.896l.12-.128c.345-.362.64-.601.699-.581l.019.007.188.085c.189.087.482.222.8.357l.104.047c.83.381.964.646.44.852-.167.064-.419.342-.524.62-.21.6-1.174.728-1.363.193M10.231 7.198l-.05-.092c-.193-.36-.123-.365.344-.187.189.065.335.321.335.557 0 .47-.314.342-.629-.278m2.034.278a1.15 1.15 0 0 0 0-.535c-.06-.123-.1-.03-.104.24v.038c0 .3.041.407.104.257M9.602 7.39v-.47l.461.449c.252.278.399.535.315.62-.252.279-.776-.128-.776-.599m-1.07 2.461-.085-.055c-.295-.195-.523-.38-.523-.458 0-.357 1.314-.982 2.175-1.026l.048-.002c.252-.021.671.172.944.407l.503.407-1.258.042-.687.04c-.457.029-.29.041.414.089l.296.029c.638.067.66.127.438.485-.314.513-1.426.535-2.264.042m6.418-.685c-.425-.206-.577-.392-.455-.482l.014-.01c.45-.312.899-.179 1 .303l.036.186c.068.363.004.329-.595.003m-2.328.878-.072-.07c-.279-.276-.22-.303.323-.422l.609-.15-.567-.021c-.335 0-.587-.129-.587-.236 0-.32 1.405-.257 2.097.107.755.407.63.856-.251 1.049l-.13.025c-.853.165-1.042.126-1.422-.282m1.866-.321c.126-.064-.02-.107-.377-.107l-.1.001c-.259.008-.34.049-.152.106.189.043.482.043.63 0m-3.628 2.846c-.44-.685-.146-2.397.504-2.825l.04-.025c.295-.178.286-.045.064.796-.125.428-.167.92-.125 1.048.038.136.127-.096.205-.504l.046-.25c.189-.996.468-1.21.65-.508.081.35-.032.858-.32 1.486l-.132.275c-.372.764-.417.75-.533.293l-.147-.535-.021.535-.004.078c-.023.355-.07.377-.227.136m-4.194.942c-.02-.47-.147-1.07-.293-1.37-.306-.561-.156-1.265.392-1.913l.048-.056c.461-.535.608-.492.88.279.454 1.323.179 2.812-.645 3.555l-.046.04c-.294.257-.336.193-.336-.535m1.384-3.189c-.126-.342.189-.45.399-.128a.244.244 0 0 1-.084.32c-.105.065-.23-.02-.315-.192m-.335 3.617.003-.013.035-.095.031-.08c.059-.149.149-.37.245-.604.168-.428.315-1.049.315-1.39v-.086c.021-.786.343-.993 1.761-1.22.102 0 .125.42.07.97l-.007.057c-.188 1.69-.608 2.311-1.614 2.418l-.238.021c-.347.028-.601.04-.601.022m5.368-1.134c-.063-.086-.377-.129-.67-.064l-.12.019c-.353.051-.406.005-.313-.238l.034-.081c.079-.202.252-.653.377-1.026l.06-.18c.185-.533.316-.574 1.24-.635l.118-.006c.99-.046 1.21.109.847.541-.105.15-.168.493-.084.75.063.256 0 .62-.147.791-.272.343-1.174.428-1.342.129M4.548 14.73c-.42-1.092.545-3.339 1.196-2.782.146.128.377.578.503 1.006.309 1.197.092 1.735-.71 1.754h-.045c-.42 0-.713.107-.734.257 0 .15-.105.043-.21-.235m17.804 11.942 2.558-1.948 2.622 1.948c1.447 1.07 2.621 1.819 2.621 1.67 0-.13-.312-1.198-.733-2.504l-.315-.961c-.466-1.443-.77-2.62-.672-2.7l.701-.532c.452-.342 1.08-.815 1.767-1.323l2.65-1.954-6.564-.128L26 15.18l-.154-.484c-.465-1.442-.88-2.556-.937-2.556-.083 0-.566 1.37-1.069 3.04l-.944 3.06-6.417.214 2.538 1.883c1.405 1.049 2.537 1.969 2.537 2.055l-.003.023c-.03.147-.25.87-.56 1.83l-.561 1.717c-.432 1.338-.74 2.41-.721 2.486.042.086 1.216-.727 2.642-1.776m-1.761.6c-.04-.04.246-1.056.656-2.312l.312-.949c.352-1.084.598-1.901.562-1.919l-.297-.228c-.375-.286-1.066-.808-1.842-1.399l-2.097-1.583 5.327-.129.776-2.546.09-.299c.387-1.273.755-2.27.832-2.27.063 0 .483 1.156.944 2.569l.818 2.546 5.41.129-2.118 1.562-.252.19c-1.054.802-1.866 1.512-1.866 1.65 0 .15.336 1.263.734 2.483l.137.43c.331 1.05.574 1.892.555 1.967-.042.107-.964-.492-2.055-1.327l-.25-.185c-.993-.726-1.88-1.293-2.015-1.313-.146 0-1.174.685-2.285 1.52l-.351.265c-.935.7-1.688 1.204-1.725 1.147M7.435 16.473l.007-.031c.063-.235-.042-.642-.23-.92l-.057-.08c-.373-.534-.341-.663.187-.861l.121-.044c.839-.32 2.349-.32 2.349 0 0 .45-.755 1.477-1.384 1.905l-.095.062c-.693.44-.998.43-.898-.03M4.17 19.44l-.315-.62c-.158-.303-.427-.68-.598-.849l-.03-.029c-.42-.364-.42-1.455 0-2.482l.092-.226c.23-.545.286-.524.641-.181.294.278.378.535.294.942-.084.385-.021.663.21.856.167.15.314.385.314.535 0 .16.091.3.206.354l.025.01c.146.042.02.385-.294.877zm2.18-3.873c-.167 0-.314-.15-.314-.322s.147-.32.315-.32c.167 0 .314.15.314.32s-.147.322-.314.322m-1.195.042c-.125-.128-.146-.342-.063-.47.105-.172.231-.172.357-.043s.147.342.063.47c-.105.172-.23.172-.357.043m.546.471c.104-.278.188-.32.377-.128s.189.32 0 .513c-.314.321-.545.086-.377-.385m1.3.343a.335.335 0 0 1-.336-.343c0-.364.462-.3.587.086.042.15-.062.257-.251.257m-2.118.214a.326.326 0 0 1-.315-.321c0-.172.147-.321.315-.321s.314.15.314.32a.326.326 0 0 1-.314.322m.314.749c-.23-.15-.084-.535.21-.535.105 0 .23.085.315.192.146.257-.252.514-.525.343m.881-.279c-.063-.192.042-.278.252-.214.21.022.356.15.356.279-.02.32-.503.256-.608-.065m-1.447 2.761c.084-.385.336-.984.587-1.327.608-.877 2.39-1.37 2.622-.727.063.17 0 .727-.147 1.22l-.064.192c-.242.71-.35.738-1.278.856l-.128.016c-.535.07-1.125.205-1.32.284l-.052.024c-.308.139-.34.051-.22-.538m-2.558.492c-.23-.663-.23-1.027-.042-1.776l.251-.92.546.492c.293.278.65.77.818 1.092.419.813.377 1.24-.147 1.24a.544.544 0 0 0-.536.393l-.01.036c-.167.642-.545.407-.88-.557m2.432 3.981c-.306 0-.135-.527.241-.792l.032-.021c.23-.15.42-.407.42-.578 0-.16.092-.302.19-.32l.02-.001c.285 0 .273-.872 0-1.195l-.022-.025a.59.59 0 0 1-.126-.578l.017-.037c.11-.23.345-.335 1.241-.498.084 0 .147.321.147.75 0 1.027-.545 2.14-1.363 2.781-.356.279-.734.514-.797.514m-.188-2.953c-.126-.129-.147-.343-.063-.471.105-.171.23-.171.356-.043s.147.342.063.47c-.105.172-.23.172-.356.044m-1.049 0c-.126-.129-.147-.343-.063-.471.105-.171.23-.171.357-.043.125.128.146.342.063.47-.105.172-.231.172-.357.044m-1.132 4.216c-.671-.985-.944-2.996-.525-3.81.273-.513.65-.406.65.172 0 .2.13.476.284.633l.031.03c.157.14.295.373.313.525l.002.031c0 .164.229.347.505.419l.13.033c.436.116.449.23.35 1.175-.23 1.883-.818 2.14-1.74.792m.545-3.489c0-.192.147-.342.335-.342s.294.107.252.257c-.126.385-.587.45-.587.085m1.048 0c0-.192.147-.342.336-.342s.294.107.252.257c-.126.385-.588.45-.588.085m1.049 0c0-.192.147-.342.335-.342.19 0 .294.107.252.257-.126.385-.587.45-.587.085M3.416 23.27c-.336 0-.42-.257-.168-.492.23-.257.482-.171.482.171a.326.326 0 0 1-.314.321m1.048 0c-.335 0-.419-.257-.167-.492.23-.257.482-.171.482.171a.326.326 0 0 1-.315.321m.315 4.152-.44-.428c-.618-.652-.387-1.819.475-2.388l.049-.03c.692-.45 1.3-.557 1.468-.279.23.386-.378 1.97-.944 2.526zm-2.286.77c-.288 0-.978-1.233-1.163-2.048l-.011-.049c-.189-.877.063-.877.797.043.545.727.797 2.054.377 2.054m1.049-.856c-.126 0-.231-.107-.231-.214 0-.128.042-.214.084-.214.058 0 .15.072.214.183l.017.031c.062.107.02.214-.084.214m.42 1.926c-.12 0-.22-.151-.23-.348l-.002-.037c0-.192-.062-.556-.125-.792-.084-.342 0-.45.314-.45.23 0 .482.15.545.3.08.206.007.253-.202.182l-.075-.028c-.206-.07-.236.01-.167.396l.043.23c.062.348.033.547-.102.547m-.945-1.305.03-.054c.104-.18.145-.162.222.054.042.15.021.321-.042.385-.21.214-.398-.107-.21-.385m1.657 1.091c-.168 0-.314-.15-.314-.32s.083-.322.188-.322.23.15.315.321c.063.193 0 .321-.189.321m-1.53.428c0-.47.083-.856.188-.856.126 0 .189.172.147.364-.021.214.02.514.105.642.104.15.104.364.042.492-.273.45-.483.172-.483-.642m.796.321c0-.406.273-.556.461-.278l.031.051c.102.162.137.145.137-.05 0-.13.147-.258.315-.258.575 0 .325.576-.277.68l-.038.005c-.398.064-.629 0-.629-.15m2.022 4.208-.063-.073c-.302-.356-.29-.508.033-2.037l.414-1.792.048-.199c.144-.38.615 1.321.79 2.825l.035.303c.09.787.035.893-.406 1.089-.425.206-.577.193-.85-.116m-2.357-2.816c-.19 0-.294-.15-.252-.386.042-.192.168-.363.315-.363a.63.63 0 0 0 .338-.113l.018-.016c.266-.271 1.308-.156 1.458.147l.01.024c.097.239.032.293-.23.23l-.064-.016c-.23-.064-.482-.021-.545.107-.059.1-.228.145-.388.097l-.031-.011c-.158-.06-.279-.026-.293.067v.019c0 .128-.148.214-.336.214m.017 4.367-.038-.066c-.609-1.027-1.74-4.066-1.74-4.622 0-.129.88.642 1.97 1.69l.376.371.263.262.263.267.142.147c.735.767.807.97.605 1.127l-.086.062c-.257.2-.207.316.199.867l.461.642-.42.236c-.782.441-1.301.181-1.995-.983m-.101-3.918c0-.193.964-.556 1.635-.62.294-.022.462.085.462.299s-.126.3-.315.214c-.158-.06-.297-.007-.313.089l-.001.018c0 .122-.17.186-.385.137l-.035-.009c-.21-.064-.44 0-.482.129-.063.235-.566.021-.566-.257m1.048 1.07-.04-.081c-.25-.505-.209-.582.25-.582.314 0 .42.15.42.535 0 .642-.315.706-.63.128m7.76-.278v16.586l2.054-.128c4.132-.257 5.704-1.563 5.704-4.752 0-1.647-.356-2.504-1.405-3.445l-.734-.642.734-.75c1.765-1.8 1.392-4.755-.772-6.164l-.135-.085c-.653-.41-1.11-.473-3.077-.556zm15.329 16.522h.817v-16.48h-1.887l-.042 4.944-.063 4.944-2.505-7.154c-1.108-3.136-1.068-2.744-1.787-2.734h-.845v16.48h1.887l.02-5.094v-5.072l1.448 4.173 1.067 3.056c1.186 3.372 1.125 2.937 1.89 2.937m4.011-1.281.413-2.358h1.89c1.12.01 1.095.141 1.319 1.82l.05.418c.165 1.34.263 1.398 1.143 1.4h.244c.674-.007.765-.073.765-.491l-.014-.104c-.096-.671-.692-4.131-1.433-8.072L34.64 32.58l-1.324-.078c-.752-.04-.861.027-.955.413l-.032.14c-.14.66-.568 2.956-1.05 5.587l-.812 4.483c-.515 2.862-.934 5.253-.944 5.436v.006c0 .312.178.381.863.385h.325l.09-.001c.56-.014.66-.146.867-1.28M8.365 38.208c-.084-.043-.755-.749-1.447-1.583l-1.28-1.52 2.391-1.113.126.792.02.104c.08.466.175 1.343.253 2.036l.01.123c.05.688.026 1.202-.073 1.161m6.983 1.113h-.923v-4.986l.944.15c.524.064 1.153.235 1.384.363.63.343 1.09 1.584.923 2.568-.189 1.156-1.112 1.905-2.328 1.905m-6.502-1.793-.033-.326c-.087-.911-.035-1.052.286-1.134l.041-.007c.3-.043.36.135.42 1.099.042.642-.042 1.262-.147 1.37-.317.323-.447.11-.567-1.002m-2.319 1.25-2.482-1.212.944-.385c.524-.214 1.09-.385 1.258-.385s.86.663 1.552 1.476l.254.312c.544.675.936 1.214.899 1.25-.041.043-1.134-.431-2.425-1.056m27.017 4.395h-1.147l.134-.757c.066-.39.24-1.53.437-2.691l.058-.34.059-.36c.192-1.144.387-1.965.444-1.887q.01.015.027.07l.012.04c.102.359.333 1.52.548 2.822l.4 2.637c.026.182.04.294.04.317 0 .082-.45.145-1.012.15m-22.768-.214c-.104 0-1.803-2.311-1.803-2.46 0-.065.294.02.63.213l.074.039c.702.357.699.187.03-.702l-.067-.089c-.26-.35-.457-.667-.457-.746 0-.128 1.216-.728 1.53-.749.076 0 .135.815.145 1.883l.002.364v.365c-.008 1.068-.046 1.882-.084 1.882m-5.578-3.895c0-.278.546-.192 1.594.257l.1.044c.49.223.818.454.739.534-.168.171-2.433-.6-2.433-.835m4.886 3.874-.076-.036a23 23 0 0 1-1.48-.83l-.418-.255c-.768-.472-1.444-.922-1.444-.998 0-.171.944-.599 1.363-.62.126 0 .671.62 1.238 1.412l.14.201c.468.671.773 1.165.677 1.126m5.285 3.874h-.944v-5.35h1.07c.92 0 1.142.08 1.736.68l.046.047c.63.642.713.856.713 1.819 0 1.969-.776 2.804-2.621 2.804"/>
</svg>
