<svg>
  <rect rx="8"/>
  <path d="M24 1.5c12.43 0 22.5 10.07 22.5 22.5S36.43 46.5 24 46.5 1.5 36.43 1.5 24 11.57 1.5 24 1.5Zm-.124 1.74-4.351 10.194L9.33 9.207l4.227 10.318L3.365 23.75l10.069 4.227L9.33 38.17l10.194-4.226 4.35 11.063 4.352-11.063 10.317 4.226-4.102-10.193L44.76 23.75 34.318 19.4l4.226-10.194-10.193 4.227L23.876 3.24Zm7.831 38.288a.6.6 0 0 0-.87 0c-.249.248-.249.745-.124.994 0 .124.124.124.124.124.373.249.746.125.994-.124.25-.373.125-.746-.124-.994Zm-15.29-.249c-.373 0-.621.249-.621.622 0 .372.248.621.621.621s.622-.249.622-.621c0-.373-.249-.622-.622-.622Zm25.484-10.318c-.373 0-.622.249-.622.622s.249.621.622.621c.372 0 .621-.248.621-.621s-.249-.622-.621-.622Zm-35.429-.124c-.248-.249-.745-.249-.994 0-.249.373-.249.746 0 .994a.6.6 0 0 0 .87 0 .657.657 0 0 0 .124-.994Zm17.652-15.912c-.124.498 0 .995.125 1.492 0 1.119 2.237 5.718 2.486 6.713l.373 1.119c.094 1.035.117 2.07.068 3.105l-.068.375c.248-1.243.248-2.486.124-3.853-.124-.995-.497-1.99-.87-2.86-.622-1.243-.995-2.61-1.119-4.102.249.249.373.498.497.87.498.995 1.368 1.865 1.865 2.735.622.995 1.119 1.99 1.367 3.108.249 2.61-.745 5.097-2.734 6.464a5.19 5.19 0 0 0 .679-1.456c-.277.44-.499.948-.804 1.456a3.783 3.783 0 0 1-.994.995c-.249 0-.497 0-.746-.125-.124-.124-.249-.124-.373-.124-.87.622-1.989.497-2.61-.373l-.081-.08-.044-.044c-.497-.497-.746-1.119-.87-1.74 0-.118-.55-1.886-.615-2.301l-.007-.057v.032c-.01.264-.08 1.703.033 2.175l.021.07-.082-.094c-1.648-2.026-.558-5.597.65-7.408-.124 1.74 0 3.605.373 5.345.124.87.373 1.616.994 2.362 0 .124.498.248.498-.125 0-.248 0-.621-.125-.87-.621-.994-.994-2.237-1.118-3.48-.125-1.99.248-5.346 1.616-6.837.248-.373.373-.622.248 0 .125 1.491.249 3.107.497 4.599.25 1.119.498 1.243.746 2.238a4.708 4.708 0 0 1 0 1.864l-.373 2.984c.125.373 0 .497.498.497.497 0 .745-1.74.621-2.113 0-1.12-.124-2.238-.497-3.357-.124-.248-.373-1.118-.497-1.367-.125-.249-.125-.622-.249-.87-.497-1.99-.497-4.227.249-6.216 0-.248.124-.497.248-.746Zm18.398 1.244a.6.6 0 0 0-.87 0 .657.657 0 0 0-.124.994c.373.373.745.249 1.118 0 .249-.373.125-.746-.124-.994ZM6.1 15.796c-.372 0-.621.248-.621.621s.249.622.621.622c.373 0 .622-.249.622-.622s-.249-.621-.622-.621ZM17.163 5.602a.6.6 0 0 0-.87 0 .657.657 0 0 0-.124.995c.372.248.745.248.994 0 .249-.249.249-.622 0-.995Zm14.793 0a.6.6 0 0 0-.87 0 .657.657 0 0 0-.125.995c.373.248.746.248.995 0 .248-.249.248-.622 0-.995Z"/>
</svg>
