---
version: "0.0.4"
---
<svg>
  <path d="M34.996 8.864c.702 .042 .642 .586 .662 1.13c.02 7.185 .06 14.37 .1 21.554v1.194c1.022 -.189 1.282 -.985 1.282 -1.739c.04 -5.048 .04 -10.117 .02 -15.164c-.02 -1.676 .24 -3.33 .12 -5.006c-.02 -.315 -.12 -.775 .401 -.775c.601 0 .32 .502 .34 .775c.261 5.676 .14 11.352 .221 17.028c.04 2.89 .26 5.76 .22 8.65c-.04 1.74 0 1.74 -1.602 2.64v-5.53c0 -.272 -.08 -.544 -.341 -.523c-.26 .02 -.32 .314 -.32 .565v3.142c0 .377 -.04 .775 0 1.152c.2 1.299 -.201 2.136 -1.684 2.43c.601 -10.494 -.04 -20.988 .581 -31.523zm4.448 2.68c.421 .084 .662 .19 .622 .482c-.14 1.09 .28 2.116 .28 3.184c0 3.56 -.2 7.122 .06 10.661c.24 3.184 .14 6.368 .3 9.53c.06 1.257 -.46 1.823 -1.642 2.242c.12 -8.734 .26 -17.385 .38 -26.098zm-7.273 30.267c-.2 -2.178 -.06 -4.252 .12 -6.305c.26 -2.785 .14 -5.571 .12 -8.336c-.04 -2.576 .381 -5.069 1.063 -7.54v1.99c0 4.084 -.04 8.147 .02 12.232c.04 1.927 .26 3.875 .2 5.802c-.02 1.487 .02 1.487 -1.523 2.157zm-9.277 -32.36v-6.391c0 -.397 -.12 -.858 .441 -1.026c.601 -.167 .681 .294 .922 .67c.22 .357 .22 .713 .22 1.09v11.918c0 .565 .04 .984 -.741 .963c-.741 0 -.862 -.293 -.862 -.984c.04 -2.053 .02 -4.147 .02 -6.242zm19.596 14.995v10.264c0 .273 .04 .566 -.04 .838a.842 .842 0 0 1 -.862 .587c-.52 -.021 -.22 -.482 -.24 -.733c-.02 -.838 -.02 -1.676 -.02 -2.514c0 -6.367 .56 -12.735 .36 -19.102c0 -.272 -.22 -.817 .301 -.817c.46 0 .48 .482 .48 .88v10.577c0 .021 0 .021 .021 .021zm-20.257 -21.636c0 4.546 -.02 8.902 .02 13.238c0 .733 -.44 .628 -.861 .628c-.441 .021 -.742 -.02 -.742 -.649c.02 -3.938 0 -7.855 .02 -11.792c-.02 -.922 .822 -.985 1.563 -1.425zm-13.925 8.525c0 1.508 .16 2.995 -.02 4.44c-.882 6.64 -.14 13.28 -.38 19.92c0 .251 .04 .503 0 .733c-.081 .335 .28 .964 -.402 .943c-.58 -.021 -.46 -.587 -.44 -.985c.38 -6.325 .04 -12.672 .2 -18.997c.04 -1.404 -.561 -2.64 -.481 -4.043c.04 -1.131 .34 -1.76 1.523 -2.01zm17.512 -8.148c.14 .147 .4 .294 .4 .42c-.1 1.298 .501 2.47 .561 3.686c.14 2.848 .02 5.697 .06 8.546c0 .712 -.22 .858 -.861 .88c-.681 .02 -.741 -.294 -.741 -.86c.02 -3.54 .02 -7.1 0 -10.64c0 -.712 .72 -1.194 .58 -2.032zm-5.951 1.027v3.581c0 2.723 -.02 5.425 0 8.148c0 .608 -.2 .775 -.742 .754c-.52 -.02 -.881 0 -.861 -.754c.04 -3.372 .04 -6.744 0 -10.116c0 -1.131 .882 -1.11 1.603 -1.613zm-2.264 1.32c0 3.665 -.02 7.058 .02 10.472c0 .67 -.32 .691 -.802 .691c-.48 0 -.801 -.02 -.801 -.712c.04 -2.953 .04 -5.906 0 -8.86c-.02 -1.11 .921 -.984 1.583 -1.592zm-8.135 12.733c.641 .335 .781 .754 .781 1.34c-.02 6.159 0 12.317 -.02 18.475c0 .251 .2 .712 -.26 .733c-.541 .042 -.501 -.44 -.501 -.817v-19.73zm18.453 -13.676c.521 .125 .802 .272 .762 .712c-.24 2.22 .38 4.378 .42 6.577c.02 1.361 -.02 2.723 .02 4.084c.02 .629 -.22 .775 -.76 .733c-.442 -.042 -.862 .084 -.842 -.649c.02 -2.723 -.12 -5.446 .08 -8.148c.04 -1.068 .34 -2.157 .32 -3.31zm-12.663 2.555c0 2.953 -.02 5.928 .02 8.881c0 .628 -.28 .67 -.74 .65c-.422 -.022 -.882 .146 -.862 -.629c.02 -2.555 0 -5.09 .02 -7.645c0 -1.006 1.041 -.796 1.342 -1.445a.64 .64 0 0 0 .22 .188zm-1.182 16.128c.682 .335 .782 .796 .782 1.362c-.02 5.404 0 10.808 -.02 16.212c0 .23 .24 .754 -.26 .69c-.321 -.041 -.782 -.209 -.582 -.837c.12 -.356 .08 -.754 .08 -1.131v-16.296zm-8.135 -10.534c.501 .921 -.34 1.633 -.34 2.534c.06 6.451 .04 12.882 .04 19.333v.733c-.02 .23 .06 .544 -.26 .586c-.401 .042 -.361 -.314 -.361 -.586c-.02 -.272 0 -.566 0 -.838c0 -6.828 .02 -13.656 -.02 -20.485c-.02 -.754 .12 -1.256 .941 -1.277zm15.248 33.366c-.2 -.44 -.14 -.859 -.14 -1.257c0 -3.623 0 -7.247 -.02 -10.85c0 -.858 -.14 -1.717 -.16 -2.576c0 -.251 -.18 -.733 .34 -.67c.381 .042 .682 .314 .682 .754c0 .419 -.08 .817 -.08 1.236v12.21c0 .462 .12 1.006 -.622 1.153zm-1.763 -1.697c-.561 -.042 -.741 -.356 -.741 -.9c0 -4.797 -.02 -9.614 -.02 -14.41c0 -.21 -.14 -.546 .18 -.608c.3 -.063 .48 .23 .561 .481c.06 .189 .04 .42 .04 .629v14.41c.02 .105 0 .252 -.02 .398zm-6.432 -31.816c0 1.152 -.02 2.283 .02 3.435c.02 .712 -.38 .65 -.841 .65c-.441 0 -.762 0 -.742 -.629c.02 -2.074 .02 -4.168 0 -6.242c0 -.88 .762 -.984 1.263 -1.236c.34 -.167 .3 .336 .3 .587v3.435zm17.352 -6.556c.5 .105 .741 .335 .701 .796c-.02 .168 0 .356 0 .524c-.2 2.806 .22 5.571 .42 8.357c.041 .67 -.08 .984 -.84 1.005c-.762 0 -.762 -.398 -.762 -.963c.02 -1.257 -.26 -2.597 .06 -3.75c.581 -1.99 .12 -3.958 .42 -5.969zm-18.434 14.912c.501 .21 .601 .608 .601 1.09c0 5.78 0 11.561 -.02 17.342c0 .273 .16 .692 -.28 .733c-.481 .042 -.38 -.398 -.38 -.67v-18.18c0 -.105 .04 -.19 .08 -.315zm12.183 19.563c0 1.99 -.04 3.96 .02 5.949c.02 .44 -.24 .482 -.421 .524c-.28 .083 -.38 -.189 -.4 -.461c-.021 -.21 0 -.42 0 -.629c0 -3.749 0 -7.519 .02 -11.268c0 -.314 -.241 -.86 .34 -.838c.52 .02 .42 .524 .42 .88v5.843h.02zm-13.445 -30.748c0 2.22 -.02 4.252 .02 6.263c.02 .712 -.36 .67 -.821 .67c-.481 0 -.822 -.02 -.802 -.69c.04 -1.572 .02 -3.122 .02 -4.693c-.02 -1.068 .882 -1.026 1.583 -1.55zm6.392 33.199c-.521 -.063 -.601 -.356 -.601 -.754c0 -5.32 .02 -10.661 .02 -15.981c0 -.084 .06 -.168 .12 -.315c.48 .273 .54 .713 .54 1.152v15.563c-.02 .105 -.06 .21 -.08 .335zm12.843 .21c-.14 -3.184 .42 -6.18 1.002 -9.09c.18 -.127 .22 -.106 .22 0c-.24 2.324 .401 4.586 .36 6.89c-.04 1.634 -.02 1.634 -1.582 2.2zm-4.228 -7.436c.621 .377 .782 .796 .762 1.382c-.02 1.676 -.04 3.33 0 5.006c.02 .691 -.16 1.383 .32 2.095c.421 .607 -.28 1.361 -1.502 1.76c-.02 -.818 .44 -1.467 .42 -2.284c-.06 -2.618 0 -5.215 0 -7.96zm6.873 -28.34c.641 .042 .761 .398 .781 .922c.06 2.681 -.16 5.341 .12 8.022c.04 .44 -.24 .377 -.44 .335c-.32 -.042 -.802 .273 -.882 -.335c-.06 -.377 -.14 -.838 .02 -1.13c.782 -1.509 .3 -3.122 .4 -4.672c.061 -1.047 0 -2.094 0 -3.142zm-4.568 30.77c.38 .209 .74 .44 .68 .774c-.2 1.467 .602 2.786 .482 4.252c-.08 .964 -.722 1.048 -1.303 1.32c-.16 .084 -.32 -.02 -.34 -.251c-.04 -.524 -.28 -1.173 -.08 -1.53c.881 -1.445 .32 -3.016 .56 -4.565z" />
</svg>
