---
version: "0.0.4"
---
<svg>
  <path d="M23.995 2a52.366 52.366 0 0 1 19.786 3.78a34.125 34.125 0 0 0 -.915 3.555l.003 -.013l.016 .05c-1.043 5.098 -.736 10.044 .937 15.848l.178 .603c-2.727 7.172 -7.55 13.388 -13.86 17.865l-.019 .018a30.081 30.081 0 0 1 -6.126 3.294c-8.713 -3.438 -16.355 -11.646 -19.995 -21.177c2.203 -7.407 2.295 -13.41 .174 -20.006c.621 -.243 1.216 -.477 1.828 -.693l-.022 .007a52.428 52.428 0 0 1 17.248 -3.127l.767 -.004zm-.221 2l-.683 .003a46.603 46.603 0 0 0 -15.331 2.78l-.52 .19c-.36 .135 -.717 .275 -1.086 .42c1.886 5.862 1.806 11.199 -.154 17.782c3.235 8.473 10.029 15.769 17.774 18.825a26.739 26.739 0 0 0 5.445 -2.928l.016 -.016c5.61 -3.98 9.897 -9.505 12.32 -15.88l-.158 -.536c-1.487 -5.159 -1.76 -9.556 -.833 -14.088l-.014 -.044l-.002 .012a30.32 30.32 0 0 1 .813 -3.16a46.547 46.547 0 0 0 -17.587 -3.36zm-4.597 9.223h-6.4v1.314c.85 0 1.161 .225 1.161 1.251v9.225c0 .191 .077 .374 .215 .51a.74 .74 0 0 0 .517 .21h4.873c3.154 0 4.279 -1.179 4.279 -3.177c0 -1.8 -1.015 -2.853 -3.3 -3.069h.017v-.072c1.628 -.216 2.862 -.9 2.862 -2.799c0 -2.349 -1.892 -3.393 -4.224 -3.393zm15.305 0h-9.142a.747 .747 0 0 0 -.499 .197a.724 .724 0 0 0 -.232 .478l-.174 2.862h1.582c.402 -1.548 .512 -2.097 1.719 -2.097h.53v11.07h3.337v-11.07h.521c1.207 0 1.317 .55 1.72 2.097h1.59l-.183 -2.862h-.045a.706 .706 0 0 0 -.224 -.48a.729 .729 0 0 0 -.499 -.195zm-15.972 6.93c1.261 0 1.828 .612 1.828 2.133c0 1.728 -.63 2.124 -1.965 2.124h-1.08v-4.257h1.217zm-.503 -5.49c1.298 0 1.828 .513 1.828 2.043c0 1.72 -.475 2.061 -1.755 2.061h-.805v-4.104h.732z" />
</svg>
