<svg>
  <path d="M40.161 8.418c3.077 3.281 4.934 7.199 5.57 11.65.966 6.64-.662 12.618-4.934 17.808-3.23 3.917-7.35 6.538-12.308 7.555-8.036 1.679-15.08-.356-20.954-6.13-3.509-3.41-5.543-7.632-6.28-12.466-.102-.686-.128-1.373-.204-2.086-.026-.127-.026-.254-.051-.407v-1.704c.025-.382.076-.763.102-1.145.33-3.841 1.576-7.377 3.763-10.557C8.35 5.874 13.08 2.592 19.131 1.448c8.214-1.527 15.283.864 21.03 6.97ZM23.505 3.38C12.392 3.355 3.365 12.41 3.34 23.528c0 11.142 9.002 20.173 20.14 20.173 11.163 0 20.165-8.98 20.165-20.147.026-11.117-9.027-20.173-20.14-20.173Zm-5.696 13.253c.814 1.68.432 3.587-.992 4.783-.33.229-.636.458-.966.738.992.865 1.958 1.73 2.924 2.594a259.32 259.32 0 0 1 2.9-2.543c-.306-.255-.586-.51-.865-.764-1.221-1.119-1.704-2.518-1.247-4.12.458-1.603 1.552-2.57 3.18-2.9 1.703-.357 3.508.508 4.348 2.085.839 1.577.559 3.46-.687 4.706-.356.331-.712.662-1.093.993.966.864 1.907 1.704 2.873 2.543.992-.865 1.958-1.73 2.95-2.594-.28-.23-.534-.433-.788-.636-1.323-1.12-1.831-2.519-1.374-4.172.458-1.654 1.602-2.646 3.306-2.951 1.73-.305 3.51.636 4.298 2.213.813 1.628.483 3.485-.865 4.732-1.576 1.45-3.204 2.849-4.806 4.273-.28.255-.56.484-.865.763.306.28.585.535.89.79a4.14 4.14 0 0 1 1.323 2.238c.56 2.67-1.857 5.24-4.552 4.808-2.263-.357-3.738-2.214-3.51-4.503.102-.992.56-1.832 1.298-2.493.305-.28.61-.534.94-.84-.966-.864-1.932-1.704-2.899-2.569-.966.84-1.907 1.68-2.898 2.544.305.28.61.534.89.789a4.209 4.209 0 0 1 1.322 2.264c.432 2.187-1.17 4.451-3.357 4.757-2.441.33-4.526-1.298-4.73-3.765-.101-1.247.382-2.315 1.297-3.18.305-.28.636-.56.967-.865-.102-.076-.178-.178-.255-.229-1.754-1.552-3.534-3.103-5.264-4.68-1.22-1.095-1.729-2.468-1.297-4.07.433-1.629 1.526-2.596 3.154-2.952 1.78-.381 3.61.534 4.45 2.213ZM18.8 27.93c-.458.433-.941.814-1.348 1.272-.458.483-.458 1.17-.127 1.78a1.676 1.676 0 0 0 2.415.56c.789-.534.992-1.653.382-2.365-.407-.433-.865-.814-1.322-1.247Zm9.408.026c-.432.407-.89.763-1.271 1.17-.381.381-.483.865-.381 1.374.127.66.762 1.246 1.449 1.322a1.746 1.746 0 0 0 1.755-.966c.305-.662.178-1.349-.382-1.857-.407-.356-.788-.687-1.17-1.043Zm-6.204-10.328c-.33.61-.28 1.297.203 1.806.407.407.84.763 1.297 1.17.407-.382.814-.687 1.17-1.043.458-.433.61-.967.458-1.577-.178-.662-.738-1.145-1.475-1.247-.636-.076-1.323.28-1.653.89Zm-9.307-.153c-.458.687-.356 1.475.228 2.06.356.331.738.662 1.12 1.018.457-.382.915-.738 1.322-1.145.178-.178.305-.458.381-.712.178-.763-.28-1.552-.992-1.857a1.696 1.696 0 0 0-2.06.636Zm20.267-.738a1.676 1.676 0 0 0-1.602 1.069c-.255.661-.102 1.322.483 1.806.356.33.737.61 1.119.941.407-.356.788-.687 1.17-1.043.457-.432.584-.992.406-1.577a1.695 1.695 0 0 0-1.576-1.196Z"/>
</svg>
