---
version: "3.0.9"
---
<svg>
  <path d="M25.642 39.464h.156c.547-.003 1.077-.024 1.295-.063.221-.045.4-.125.525-.237l.017-.015c.172-.159.185-.212.166-.516-.027-.264-.086-.417-.278-.681l-.252-.338.007-.946.007-.464c.01-.584.029-.671.105-.772l.016-.02.01-.014c.226-.273.4-.323 1.55-.335l.413-.003c.714-.007 1.3-.026 1.326-.045.072-.08-.053-.51-.219-.701-.35-.417-1.098-.655-2.269-.715l-.813-.04.046-.932.04-.933.225-.205.023-.02c.383-.332.631-.37 2.556-.377l1.786-.013-.02-.185c-.09-.778-1.14-1.239-3.255-1.412l-.131-.01a33 33 0 0 1-1.038-.093l-.001-.001v-.013c.004-.106.067-.792.146-1.607l.158-1.62.199-.173c.106-.099.364-.244.575-.33l.128-.047.02-.007c.3-.094.654-.102 2.737-.125l2.487-.027-.06-.185c-.106-.29-.509-.648-.913-.8l-.06-.022c-.863-.31-2.477-.623-4.014-.765l-.705-.073a1 1 0 0 1-.096-.013c-.013-.013.391-2.92.464-3.354l.014-.078c.028-.154.063-.154.495-.16.714-.02 1.031-.133 1.422-.523.496-.496.74-1.396.562-2.07-.097-.344-.43-.732-.779-.897l-.021-.01c-.146-.066-.265-.139-.265-.158q0-.004.049-.07l.074-.098c.335-.44 1.315-1.694 2.464-3.147l1.912-2.42c1.502-1.902 1.52-1.937 1.52-1.972 0-.018-.716-.03-1.767-.032h-.317c-.407 0-.854.002-1.322.005l-.313.001-.503.001h-.545c-1.207-.002-2.064-.013-2.079-.028-.014-.014-.066-.192-.128-.438l-.01-.04q-.037-.145-.074-.31c-.324-1.468-.833-2.897-1.448-4.1Q26.124.696 23.454.132l-.05-.009c-.493-.088-1.63-.154-2.007-.11C18.07.438 15.014 2.74 12.19 6.96l-.051.078-.068.103c-.293.45-.558.882-.622 1.01l-.029.065c-.085.188-.126.213-.418.248l-.16.017c-.956.112-2.303.586-4.883 1.707q-.104.045-.204.091l-.205.092c-.62.283-1.128.532-1.199.598-.569.53-.45 1.184.397 2.322 1.012 1.336 1.64 1.594 2.5 1.025.747-.498 3.134-2.914 3.862-3.913l.042-.059c.177-.252.183-.328.299.287l.105.568c.238 1.243.873 3.366 1.25 4.169.451.95 1.046 1.024 2.463.3l.043-.022c1.546-.793 1.892-1.358 1.34-2.191l-.045-.067c-.435-.635-1.745-2.296-2.373-3.021l-.065-.074c-.518-.576-1.144-1.136-1.582-1.421l-.179-.113.37-.337.02-.019c.183-.174.584-.6.983-1.045l.113-.127.128-.145c2.223-2.52 3.864-3.797 5.656-4.406l.068-.023c.476-.159.715-.196 1.321-.222 1.204-.046 1.992.219 2.746.92.628.589 1.091 1.581 1.091 2.342v.27l-.929-.233a14 14 0 0 0-1.122-.236l-.363-.046.013 1.449c.033 2.672.278 3.856.999 4.762.284.358.972.768 1.442.854l.225.04v2.5H23.05v-.562c0-.305.033-.86.073-1.224l.072-.668-.436-.46c-.75-.796-.984-1.443-1.204-3.251l-.033-.318h-4.158c-2.05.004-2.116.021-2.04.12.026.042.492.64 1.19 1.534l2.497 3.193.987 1.265.69.889c.349.45.557.722.563.732.012.032-.098.126-.25.216l-.015.01c-.667.392-.875 1.134-.592 2.078l.01.031c.255.831.814 1.248 1.792 1.34l.563.05.218 1.7.156 1.181c.044.336.072.555.076.572 0 .032-.481.116-1.09.182l-.028.003c-2.26.236-3.897.646-4.436 1.123l-.016.015c-.159.139-.344.443-.344.562 0 .033.979.073 2.533.086l.4.005c2.418.032 2.607.075 3.053.471l.232.205.224 2.053c.063.596.107 1.051.107 1.103v.012c-.006.085-.068.105-.343.107h-.041c-.595 0-2.05.185-2.58.33l-.068.02c-.949.272-1.467.693-1.467 1.184v.153h1.942c1.766.002 2.034.05 2.457.39l.038.03c.161.134.166.203.234 1.042l.016.218c.021.301.033.552.034.672v.019a.2.2 0 0 1-.004.056c-.013.033-.246.052-.515.053h-.02c-1.284 0-2.395.37-2.673.88-.04.08-.093.238-.12.35l-.052.212 1.369.027c1.167.018 1.348.025 1.604.142l.017.008.048.023.061.03c.27.137.296.179.34.445l.004.036c.017.17.038.553.047.93l.002.145q.004.199.005.34v.141c-.005.318-.037.391-.142.534l-.043.057c-.544.744-.448 1.321.258 1.51l.022.005c.17.043.692.066 1.25.07zm3.018-24.407h-1.97v-2.128c-.005-1.175-.064-1.283-.41-1.497a5 5 0 0 0-.677-.296l-.202-.072c-.73-.264-.761-.346-.763-1.778V7.582h.186c.099 0 .397.066.655.139l.483.145.013 1.158.02 1.164.377.113c.211.06.509.185.668.278.641.377 1.23 1.256 1.468 2.202.124.48.215 1.496.181 1.934zm-3.589 5.36-.003-.002c-.14-.116-.44-.57-.721-1.057l-.033-.059-.055-.097a10 10 0 0 1-.355-.692 13 13 0 0 1-.234-.59l-.036-.1-.052-.142-.047-.135c-.158-.453-.286-.873-.286-.978 0-.026.43-.053.96-.053h.959v2.472c-.004 1.327-.022 1.493-.097 1.433m1.62-1.339-.002-.74v-1.826h1.023c.624.003.697.021.697.113 0 .122-.173.655-.367 1.178l-.033.087-.04.108c-.115.298-.23.575-.317.75l-.01.02c-.265.536-.682 1.171-.847 1.31l-.006.004c-.077.057-.095-.049-.099-1.004m2.148 24.272c5.1-.688 9.956-2.7 13.78-5.71l.14-.111c.805-.642 1.138-.985 1.057-1.079-.052-.058-.254.06-.843.499l-.05.037c-5.478 4.121-13.383 6.1-20.871 5.226-3.956-.465-8.028-1.702-11.183-3.401l-.096-.052C9.687 38.17 8.04 37.085 7.22 36.43l-.21-.169a6 6 0 0 0-.392-.3c-.013 0-.06.04-.1.092-.138.166 1.575 1.548 3.335 2.7 3.77 2.473 7.911 3.968 12.866 4.63.999.132 5.034.112 6.12-.033m-9.89.416v2.779l1.343-.013 1.337-.02.013-2.746zm10.915 0v2.779h1.498c.679-.003 1.215-.022 1.228-.053.013-.027.013-.648 0-1.39l-.02-1.336zm-5.424.331v2.316h2.646v-2.316zm-1.786 2.977-.137.01c-1.594.119-7.044.693-7.146.75-.033.027-.06.067-.06.107 0 .031 3.646.057 9.656.059h3.294c6.913-.003 7.888-.022 7.888-.1 0-.052-.027-.098-.066-.098h-.009l-.259-.025-1.056-.111a569 569 0 0 0-5.457-.526l-.065-.005c-1.134-.09-5.52-.132-6.583-.061"/>
</svg>
