<svg>
  <path d="M24.5 2C36.926 2 47 12.074 47 24.5S36.926 47 24.5 47 2 36.926 2 24.5 12.074 2 24.5 2Zm0 1.324c-11.695 0-21.176 9.48-21.176 21.176 0 11.695 9.48 21.176 21.176 21.176 11.695 0 21.176-9.48 21.176-21.176 0-11.695-9.48-21.176-21.176-21.176Zm2.855 31.672c.018.018.055.03.061.049.08.51.14 1.021.231 1.52.027.149.07.296.117.443l.145.439c.012.036.042.073.048.11.08.407.134.82.231 1.227.073.31.201.615.292.919.049.158.073.322.11.486l.11.018c.242-.705.486-1.41.747-2.177.024.128.073.225.06.317-.072.699-.139 1.398-.236 2.092-.03.23-.116.474-.231.68-.225.408-.134.785 0 1.192.133.414.2.846.31 1.332.079-.085.134-.115.158-.17.055-.14.103-.286.128-.432.085-.438.152-.875.243-1.313.091-.432.213-.852.322-1.277.067-.256.146-.511.189-.773.097-.565.176-1.137.273-1.702.055-.31.128-.608.201-.955.164.158.31.298.395.383-.048.474-.079.876-.133 1.271-.055.39-.14.772-.213 1.161-.03.177-.08.353-.11.53-.079.571-.134 1.143-.237 1.708-.067.36-.213.7-.292 1.052-.055.244-.06.499-.085.748-.462.152-.93.304-1.399.462-.048-.529-.085-1.021-.146-1.508-.012-.11-.097-.212-.176-.364-.219.42-.45.784-.596 1.185-.049.134.122.347.189.53.036.085.073.176.115.28-.51.072-.979.133-1.465.206.14-.28.23-.566.395-.797.237-.322.134-.626.055-.948-.092-.371-.183-.742-.298-1.107-.11-.347-.25-.687-.377-1.028-.037.006-.073.018-.11.024-.024.061-.055.122-.073.183-.121.413-.255.833-.365 1.247-.085.322-.164.65-.219.979-.073.48-.127.96-.188 1.453h-.754c.049-.152.079-.274.121-.395.019-.049.061-.085.067-.134.073-.408.122-.821.207-1.228.091-.426.22-.846.329-1.265.072-.292.14-.584.225-.87.09-.316.2-.62.297-.936a.543.543 0 0 0 .025-.262c-.097-.407-.207-.809-.304-1.216-.025-.097-.006-.207-.006-.304.048 0 .079 0 .11.006.163.347.328.7.522 1.107.274-.523.505-.967.736-1.411l.097.018c0 .067.012.14 0 .2-.115.426-.243.858-.365 1.284-.054.194-.146.395-.127.59.012.176.146.34.219.51.109.262.212.53.316.797.146.371.286.748.468 1.113.128-.426.639-.669.48-1.204l-.13-.49-.222-.988c-.006-.018-.012-.036-.012-.06-.067-.536-.128-1.065-.201-1.6-.067-.51-.055-1.058-.237-1.526-.177-.444-.08-.87-.128-1.296 0-.024.012-.06.03-.085.007-.012.03-.018.061-.03Zm-2.207.134c.006.164.042.298.012.407a3.8 3.8 0 0 1-.213.627c-.164.389-.334.778-.523 1.155-.128.25-.353.468-.413.73-.08.334-.037.705-.049 1.058-.006.115.006.23-.006.352-.006.067-.06.14-.049.201.025.116.08.22.122.329.067-.098.152-.183.194-.286.183-.45.347-.906.517-1.356.092-.238.177-.475.274-.712.055-.134.116-.261.182-.395l.791-1.55.08.017c0 .098.03.207-.007.292-.17.426-.347.852-.53 1.277-.224.517-.467 1.022-.686 1.545-.152.365-.274.748-.408 1.119-.079.225-.182.444-.237.675a6.918 6.918 0 0 0-.17 1.058l-.176 2.682c-.007.054-.11.152-.165.152-.431.012-.863.006-1.386.006.085-.292.152-.535.225-.772.012-.05.03-.098.042-.146.073-.347.104-.706.213-1.034.183-.547.456-1.064.608-1.618.104-.365.061-.778.067-1.167 0-.043-.115-.122-.17-.116-.055 0-.128.085-.152.146-.182.468-.365.937-.53 1.41-.151.45-.279.907-.425 1.363-.11.347-.243.693-.34 1.046a2.508 2.508 0 0 0-.067.572c-.012.352-.243.292-.475.28-.249-.013-.291-.159-.237-.347.11-.39.231-.779.353-1.168.073-.237.14-.48.219-.717l.535-1.636c.085-.274.134-.56.237-.827.152-.383.329-.754.505-1.131.304-.657.675-1.29.566-2.056-.037-.267-.08-.529-.116-.796.043-.006.091-.025.14-.037.048.158.128.31.146.468.036.365.042.736.06 1.107.031.006.067.018.098.024.438-.723.87-1.447 1.344-2.231Zm-1.837 7.887c-.06.049-.17.097-.176.158-.037.328.018.675-.2.98-.019.03.06.188.097.188.09 0 .255-.043.267-.092.08-.304.116-.608.183-1.021l-.17-.213ZM13.126 30.265c.237.499.468.997.73 1.544.413-.443.547-1.052.966-1.544.012.115.055.225.024.292-.212.438-.474.851-.65 1.307-.091.231-.08.535-.03.785.078.407.224.808.34 1.21.14.48.286.96.426 1.435a.9.9 0 0 0 .158.042c.067-.182.097-.395.213-.547.261-.334.2-.711.152-1.07-.061-.414-.225-.803-.317-1.21-.048-.22-.036-.456-.048-.687l.127-.025.724 1.922c.432-.663.851-1.295 1.271-1.934l.091.03c-.012.092 0 .195-.042.28a38.214 38.214 0 0 1-.888 1.806c-.353.663-.177 1.326-.08 2.001.068.468.062.949.092 1.423.012.14.043.28.06.42.031.006.056.006.086.012.06-.073.152-.14.176-.225.091-.316.152-.639.25-.949.097-.328.219-.65.322-.979.097-.31.188-.626.316-.936.085.17.164.34-.024.492a.23.23 0 0 0-.061.128c-.14.632-.255 1.27-.414 1.903-.145.572-.364 1.12-.486 1.697-.08.383-.049.784-.055 1.18-.006.462 0 .924 0 1.423.128.06.17-.05.225-.207.152-.45.316-.894.48-1.338.153-.414.293-.827.463-1.235.207-.498.395-1.015.675-1.471.243-.401.164-.779.097-1.174-.049-.28-.134-.553-.194-.827l-.009-.075.009-.156.079-.036c.14.243.291.486.42.742.078.158.115.334.194.492.012.03.176.037.207 0 .261-.316.504-.645.766-.955.14-.158.34-.158.474-.012.304.335.59.693.87 1.052.14.177.255.377.407.608.462-.28.566-.851 1.022-1.18-.019.098-.012.207-.055.286-.219.371-.42.76-.687 1.089-.237.286-.134.468.055.693.206.25.158.535.097.876-.189-.231-.347-.408-.474-.596-.11-.164-.183-.158-.286-.006-.304.438-.602.882-.912 1.313a7.51 7.51 0 0 1-.511.651c-.268.31-.22.669-.177 1.028.03.249.116.492.116.742.018.766.006 1.532.006 2.371-.243-.097-.505-.14-.663-.292-.079-.079.037-.352.049-.535.036-.51.073-1.028.097-1.538.006-.128-.03-.262-.055-.39l-.115-.018c-.353.712-.7 1.423-1.095 2.214l-.286-.106-.322-.12c.2-.437.359-.838.56-1.21.255-.474.529-.942.827-1.386.212-.316.358-.632.31-1.028-.03-.249.012-.51-.03-.76-.05-.286-.147-.565-.226-.845-.042-.006-.085-.018-.127-.024-.134.249-.28.492-.408.742-.176.34-.352.687-.517 1.033-.097.213-.152.438-.237.657-.073.189-.164.371-.237.56-.164.389-.328.778-.48 1.18-.104.28-.177.57-.262.85-.274-.133-.541-.26-.84-.407 0-.146-.042-.346.007-.523.207-.778.14-1.569.146-2.353.012-1.259 0-2.512-.018-3.77-.006-.231-.11-.463-.177-.694-.006-.018-.164-.024-.182 0-.189.31-.365.633-.535.955-.03.055-.025.146 0 .207.219.553.261 1.143.359 1.72.188 1.126.14 2.245.158 3.37.006.25 0 .498 0 .742-.505.11-.724-.061-.724-.517.006-1.229.006-2.45.006-3.68 0-.14-.036-.28-.055-.425l-.103-.018c-.073.146-.17.28-.213.432-.085.285-.14.583-.2.875-.08.402-.14.809-.232 1.21-.103.469-.23.937-.352 1.43-.286-.232-.523-.42-.754-.609a.644.644 0 0 1 .06-.073c.043-.067.104-.127.122-.194.085-.329.14-.67.231-.992.085-.322.207-.644.304-.96.08-.244.146-.493.22-.736.133-.456.23-.93.425-1.362.134-.292.188-.566.152-.858-.043-.34-.14-.675-.22-1.01a19.33 19.33 0 0 0-.315-1.21c-.049-.157-.158-.297-.28-.522-.122.304-.219.504-.286.711-.085.268-.14.547-.23.815-.098.292-.214.578-.317.864-.018.048-.024.097-.037.146-.067.334-.097.687-.212 1.009-.286.784-.353 1.6-.396 2.426-.024.408-.115.81-.182 1.217-.39.036-.584-.14-.517-.523.097-.572.225-1.138.334-1.71.092-.467.159-.948.262-1.416.085-.371.213-.736.31-1.107.085-.34.146-.693.237-1.034.085-.316.2-.626.298-.942.08-.243.146-.487.231-.724.055-.152.164-.292.195-.45.067-.365.048-.717-.14-1.076-.14-.268-.17-.596-.237-.906-.012-.067.024-.14.042-.213h.086Zm26.568-6.543c.048.14.085.194.091.255 0 .414.036.833-.018 1.247-.061.468-.213.924-.316 1.38-.08.328-.134.657-.225.98-.134.467-.286.936-.444 1.398-.08.23-.231.456-.256.693-.036.347-.31.517-.474.76l-1.374 2.007c-.055.085-.055.231-.037.347.049.304.11.602.182.9.043.182.116.364.201.632l.046-.073.064-.096a.213.213 0 0 0 .03-.062l.401-1.472c.061-.213.11-.432.189-.638.018-.046.07-.081.119-.117l.015-.013.004.119c.015.358.047.72-.15 1.05-.012.019-.012.037-.012.061-.073.675-.14 1.35-.22 2.025-.024.225-.097.438-.133.663a.66.66 0 0 0 0 .268c.042.243.11.48.14.723.079.609.115 1.229.213 1.83.06.378.2.743.334 1.102.11.298 0 .486-.219.662-.14.116-.28.225-.468.377-.012-.291-.012-.565-.037-.839a96.027 96.027 0 0 0-.188-1.964c-.006-.043-.037-.085-.055-.128-.036 0-.073-.006-.103-.006-.025.183-.043.359-.067.541-.024.207-.049.414-.067.615-.018.17-.043.34-.055.51-.018.469-.024.93-.06 1.4-.007.102-.104.218-.19.291-.133.128-.291.225-.461.347-.025-.037-.073-.08-.067-.116.049-.42.097-.833.152-1.253.006-.03.018-.06.018-.09.08-.652.146-1.302.231-1.947.061-.444.055-.918.225-1.32.14-.334.164-.644.122-.96-.08-.59-.22-1.168-.322-1.752-.03-.188-.013-.389-.055-.571-.025-.091-.14-.152-.22-.231-.066.067-.145.127-.188.213a3.08 3.08 0 0 0-.206.456 3.467 3.467 0 0 0-.146.553c-.061.347-.14.687-.152 1.034-.037.79.054 1.593-.073 2.365-.146.9-.073 1.806-.189 2.694-.03.262-.067.475.006.736.098.335-.261.864-.584.955-.06.018-.133-.012-.164-.018.025-.262.043-.5.073-.742.055-.414.122-.827.164-1.247.03-.274-.06-.584.05-.809.175-.365.109-.73.145-1.088.018-.183-.006-.365.024-.548.092-.614.22-1.222.298-1.836.043-.31.006-.632.006-.949l-.097-.018c-.085.231-.164.462-.255.687-.14.377-.286.754-.426 1.125-.17.462-.334.937-.517 1.393-.37.93-.134 1.897-.14 2.846-.006.498.116.997.183 1.496-.244.103-.432.182-.651.28.055-.846.11-1.612.158-2.396-.644.778-.76 1.757-1.076 2.712l-.438.213c-.03-.013-.055-.03-.085-.043.048-.17.097-.34.152-.505.012-.048.048-.085.06-.134.134-.516.238-1.04.402-1.544.2-.608.486-1.192.657-1.812.097-.347.06-.742.036-1.113a18.609 18.609 0 0 0-.188-1.527c-.019-.133-.128-.249-.2-.389-.086.067-.11.073-.11.092-.08.364-.159.73-.231 1.094-.092.456-.183.912-.28 1.368-.091.438-.189.876-.286 1.314-.11.492-.243.979-.334 1.478a19.95 19.95 0 0 0-.244 1.593c-.036.34-.273.547-.608.468.091-.584.17-1.174.28-1.751.097-.505.231-.998.347-1.502.03-.128.012-.262.036-.39.06-.383.11-.772.195-1.149.085-.383.219-.748.322-1.125.024-.091-.006-.2.006-.298.073-.486.091-.997.25-1.453.109-.316.176-.62.127-.93-.067-.426-.2-.84-.292-1.265-.036-.17-.042-.353-.06-.53l.133-.03c.14.408.28.821.426 1.228.054.152.127.298.255.438a5.02 5.02 0 0 1 .724-1.86.67.67 0 0 0 .11.012c-.007.11.005.23-.025.334-.103.401-.225.797-.34 1.192-.037.128-.11.25-.122.383a2.789 2.789 0 0 0 0 .596c.018.189.085.365.121.547.086.408.165.815.262 1.314.128-.225.231-.371.292-.53.213-.553.395-1.124.632-1.665.195-.438.456-.852.675-1.277.195-.377.377-.76.548-1.144.048-.115.03-.255.042-.389.012-.14.03-.28.049-.42h.079c.03.165.067.335.11.542.31-.213.084-.505.218-.742.28.322.426.055.602-.134.256-.28.53-.535.772-.82.104-.122.159-.287.238-.433.036-.06.079-.121.127-.176.17-.2.11-.493-.146-.56-.468-.133-.936-.243-1.404-.37-.608-.165-1.217-.34-1.825-.487-.243-.06-.51-.049-.76-.103-.213-.043-.413-.134-.614-.2-.31-.098-.62-.214-.936-.287-.402-.09-.815-.134-1.217-.23-.255-.062-.383.084-.535.212-.407.353-.875.541-1.417.499-.024 0-.042-.03-.127-.098.133-.03.219-.042.304-.073.31-.11.638-.194.924-.352.164-.092.274-.292.401-.444l.019-.012c.073-.019.152-.067.218-.055.195.036.384.115.584.146.408.073.864.042 1.223.219.34.164.668.085.99.158.19.042.372.128.56.2.14.055.274.128.42.159.596.127 1.198.237 1.794.365.23.048.462.109.687.194.401.158.797.335 1.259.535.59-1.915.967-3.904 1.429-5.971Zm.742 8.44c.085.195.212.39.237.59.079.602.134 1.21.164 1.818.024.48.03.961.006 1.441-.03.487-.103.973-.164 1.46a.205.205 0 0 1-.049.103l-1.842 2.007c-.006.018-.03.018-.104.037 0-.195.006-.365 0-.536-.054-.96-.152-1.921-.158-2.888-.006-.45.128-.906.225-1.356.073-.34.17-.681.292-1.004.183-.498.395-.99.596-1.483l.122.018c0 .103.024.219-.006.316-.11.371-.232.742-.36 1.113-.437 1.283-.09 2.603-.157 3.904-.006.073.085.158.133.231.067-.049.17-.085.195-.152.28-.65.487-1.32.626-2.031.22-1.095.11-2.183.134-3.278 0-.097.018-.188.025-.286a.448.448 0 0 0 .085-.024Zm-20.092 3.552a.296.296 0 0 0-.2.079c-.238.298-.481.602-.688.918-.097.146-.195.346-.176.51.073.603.188 1.205.304 1.8.03.165.14.31.237.518.51-.864.96-1.636 1.405-2.396-.25-.45-.487-.888-.73-1.32-.03-.049-.098-.11-.152-.11ZM9.78 24.488c.122.261.073.492.006.717-.03.11-.08.22-.11.329-.115.492-.23.991-.328 1.49-.042.225-.091.468-.055.687.019.121.195.225.31.316.104.08.232.128.353.2.006 0 .043-.005.043-.018.079-.425.146-.85.243-1.27.08-.347.2-.688.298-1.028.03-.116.03-.237.06-.359.086-.322.214-.632.518-.93 0 .182.018.292-.006.389-.049.25-.128.498-.17.748-.074.462-.043.96-.207 1.38-.108.278-.134.554-.143.83l-.007.412a5.188 5.188 0 0 1-.008.205c-.007.128.085.268.145.402.14.322.298.632.426.955.17.431.31.87.468 1.307.019.049.05.091.055.14.213 1.301.256 2.615.176 3.928-.03.462-.09.925-.176 1.375-.073.395-.213.778-.316 1.167-.08.322-.14.645-.213.967-.055.231-.11.456-.164.687-.487-.146-.778-.413-.724-.7.073-.37.195-.735.298-1.1.006-.03.025-.055.025-.085.073-.51.158-1.022.218-1.532.08-.639.086-1.29.225-1.916.189-.833.152-1.672.092-2.5-.037-.51-.207-1.015-.34-1.513-.043-.146-.171-.274-.268-.42-.025.018-.073.03-.08.055-.066.407-.145.815-.194 1.222-.03.261 0 .53-.018.79-.073.87-.17 1.734-.244 2.603-.054.681-.085 1.368-.14 2.05-.018.218-.09.431-.109.644-.024.34-.024.687-.042 1.028-.007.067-.05.134-.08.207-.048-.037-.103-.073-.145-.122-.122-.14-.213-.322-.36-.42-.194-.127-.151-.28-.133-.45.06-.504.116-1.01.182-1.514.086-.638.195-1.277.268-1.921.049-.42.043-.846.079-1.271.018-.213.091-.426.134-.639a2.01 2.01 0 0 0 .036-.328v-.224l-.01-.451a2.64 2.64 0 0 1 .059-.657c.091-.365.122-.718.158-1.076.03-.28-.091-.475-.237-.675a1.638 1.638 0 0 0-.183-.225c-.06-.055-.152-.134-.206-.122-.061.018-.128.122-.14.195-.024.158.006.322-.012.486a143.33 143.33 0 0 1-.237 2.268c-.05.438-.043.9-.189 1.308-.195.553-.11 1.113-.17 1.666-.073.657-.183 1.314-.256 1.976-.018.152.067.31.104.463-.03.03-.073.048-.116.072a86.678 86.678 0 0 0-.535-.65c.043-.2.085-.34.097-.487.019-.188 0-.383.019-.577.06-.803.121-1.612.2-2.415.037-.395.037-.82.189-1.167.213-.48.11-.967.207-1.441.079-.408.2-.81.297-1.217.05-.2.086-.4.14-.668-.316-.517-1.07-.821-1.155-1.618.073.036.182.06.25.128.236.206.455.437.686.65.213.195.384.134.45-.152l.201-.87c.073-.334.134-.668.225-.997.06-.225.17-.444.286-.717Zm12.6 7.577c-.037.042-.085.073-.097.121a.564.564 0 0 0-.043.28c.006.043.134.091.195.085.182-.03.352-.09.535-.127.134-.03.28-.025.413-.049.25-.049.499-.116.748-.164.067-.03.158-.018.268-.018-.012.42.389.346.59.523.073.066.176.109.267.158.347.2.687.407 1.04.596.2.11.401.206.614.291.116.05.25.061.377.092.31.085.62.182.937.261.383.091.578.395.833.65.395.396.845.743 1.253 1.126.474.438.942.894 1.404 1.35.055.055.025.194.037.383-.614-.596-1.143-1.131-1.697-1.648-.723-.675-1.404-1.417-2.384-1.74-.225-.072-.468-.109-.687-.2-.37-.158-.723-.34-1.082-.523-.286-.146-.59-.273-.851-.45-.444-.304-.9-.584-1.46-.498-.426.06-.833.2-1.253.304-.06.012-.121.042-.176.03-.468-.116-.79.176-1.125.413l-.438.31c-.346-.176-.68-.37-1.034-.522-.395-.17-.535-.505-.675-.852.025-.024.043-.048.067-.073.098.098.195.195.292.298.085.092.152.195.243.274.165.146.323.06.517.036.53-.066.937-.358 1.393-.559.292-.128.632-.146.979-.158Zm19.581-1.928.03.183a.69.69 0 0 1 .006.09c-.012.992-.018 1.983-.042 2.98-.018.627-.146 1.26-.073 1.874.067.583-.17.966-.499 1.356-.067.079-.133.164-.2.243a.215.215 0 0 0-.086-.018c.013-.183.019-.36.037-.542l.164-1.897c.067-.7.128-1.405.207-2.104.042-.407.097-.815.17-1.216.055-.322.146-.633.286-.949ZM31.338 32.74c.055.194.152.395.158.59.019.644.013 1.295-.006 1.94-.006.346-.054.699-.09 1.046-.007.054-.043.14-.074.145a.282.282 0 0 1-.176-.06c-.17-.14-.231-.347-.128-.517.243-.383.122-.809.189-1.21a5.24 5.24 0 0 0 .097-.925c.006-.237-.06-.474-.091-.711-.012-.085 0-.177 0-.268.042-.012.079-.024.121-.03ZM6.777 29.103c.067.22.146.432.194.651.098.456.159.918.274 1.368.31 1.168.152 2.354.164 3.527.006.292-.03.578-.054.98-.14-.134-.238-.195-.298-.286-.098-.159-.146-.365-.268-.493-.25-.268-.304-.566-.286-.912.025-.596.012-1.192.037-1.794.036-.858.085-1.709.127-2.566.006-.158 0-.317 0-.475a.33.33 0 0 0 .11 0Zm21.807 3.698c.243.067.437.115.669.176-.086.08-.152.14-.268.237l1.088.535c-.079.122-.17.274-.291.469-.256-.396-.639-.505-1.034-.59-.043-.012-.116-.055-.116-.08.006-.255-.219-.51-.048-.747Zm-2.621-2.19c.225.426.17.682-.146.779-.34.103-.694.158-1.046.2-.237.03-.493-.036-.724.013-.237.048-.462.17-.669.292-.219.121-.407.097-.62.006.572-.11 1.04-.329 1.204-.973.067.401.322.298.584.328.286.03.553.055.839.006.334-.055.663-.085.578-.65Zm-5.838-.848.006-.015c-.073.219-.11.462-.219.663-.261.462-.553.906-.876 1.417 0-.183-.048-.34.006-.444.201-.377.432-.73.651-1.095.091-.152.164-.31.262-.45.022-.036.08-.049.132-.063l.038-.013Zm-5.6-4.85c-.013.05-.007.122-.037.153-.487.468-.98.93-1.49 1.41.176.134.316.17.456 0 .134-.158.274-.31.444-.504-.025.377-.414.894-.864.99-.127.28.128.384.274.481.097.067.304.012.45-.03.274-.073.56-.14.803-.28.48-.274.997-.134 1.496-.194.111-.013.221-.045.331-.084l.329-.123c.055-.018.11-.036.167-.049a7.33 7.33 0 0 1 .82-.146c.055-.006.122.049.177.08-.037.048-.067.12-.116.14-.152.054-.31.09-.468.115-.322.048-.693-.025-.936.437.261 0 .468-.024.669.007.51.066.912-.098 1.3-.444.25-.225.609-.323.925-.463.085-.036.195-.006.323-.006-.037.353-.335.39-.53.505-.2.116-.456.14-.675.237-.115.049-.2.17-.297.256.09.09.17.213.28.273.461.237.936.462 1.41.675.225.104.456.189.693.256.231.06.444-.177.475-.511h.243c-.043.176-.049.353-.128.492-.115.207-.121.469-.401.596-.073.034-.125.113-.173.203l-.096.186a.84.84 0 0 1-.053.086c-.037.048-.122.06-.183.097l.128-.42c.042-.133.11-.267-.098-.34-.103-.037-.188-.128-.285-.176-.36-.195-.724-.39-1.089-.584-.426-.225-.845-.45-1.277-.663-.103-.049-.23-.055-.346-.067-.335-.036-.675-.11-1.01-.091-.31.018-.614.134-.918.207-.408.097-.67.535-1.131.504-.17-.012-.36-.03-.499-.115-.243-.146-.468-.335-.687-.517-.213-.176-.176-.578-.146-.821.047-.383.27-.611.51-.826l.206-.185a2.87 2.87 0 0 0 .099-.096c.237-.237.498-.444.76-.657.03-.024.11.007.164.007Zm9.387 3.706.185.014c.03.002.06.003.09.002.06 0 .134.067.189.122.018.018-.019.115-.043.127a.587.587 0 0 1-.25.03c-.066-.011-.121-.09-.182-.096-.103-.007-.267-.013-.304.042-.194.322-.547.45-.803.693-.109.098-.28.152-.431.177-.183.036-.365.012-.615.012.225-.517.56-.79 1.028-.894.177-.037.359-.024.535-.043.055-.006.14 0 .17-.036.126-.145.278-.158.431-.15Zm5-.945c-.012.14-.018.244-.024.353l.585-.078.574-.074-.004.03c-.005.044-.006.093-.024.098-.383.09-.742.334-1.162.23-.079-.017-.152-.078-.237-.133a4.064 4.064 0 0 0-.292.14c-.048.024-.127.06-.134.103-.054.34-.322.396-.59.462-.328.086-.662.165-.985.268-.267.085-.298.073-.285-.274.985-.018 1.702-.687 2.578-1.125Zm-4.804.438c-.335.189-.614.353-.9.517.091-.395.474-.602.9-.517Zm-10.35-.353c.395.222.676.065.943-.14l.24-.19a2.5 2.5 0 0 1 .082-.059c-.493-.09-.845.256-1.265.39Zm16.747-.212c.03.067.012.152.012.23l-.018.013-.225.036-.221.035-.02-.067c-.018-.17.267-.114.278-.266.067.006.176-.012.194.019Zm1.277-.432c.207.036.408.079.65.121.031-.018.104-.06.183-.103.019.049.067.116.049.146-.055.085-.128.152-.2.225-.019.018-.061.024-.086.018-.213-.097-.42-.194-.632-.298a1.3 1.3 0 0 1 .036-.11Zm-9.717.049c-.164.14-.268.23-.39.34l-.297-.34h.687Zm7.17-1.588c.145.225.14.238-.87.76.2.025.407.043.608.073.273.05.547.08.809.17.225.074.322.262.225.524-.067 0-.159.03-.201-.006-.347-.286-.748-.146-1.125-.158-.572-.019-.572 0-.766-.53-.317.207-.627.402-.925.615-.474.328-1.35.34-1.733.048.043-.164.104-.298.11-.444.012-.292.243-.425.523-.364.249.054.517.012.778.006.049 0 .091-.037.14-.043.578-.085 1.168-.134 1.733-.255.25-.055.462-.256.693-.396Zm-3.37-.906c.019.043.043.08.061.122-.182.115-.359.231-.565.365.03.213-.092.383-.335.456-.06.018-.152-.043-.225-.067a3.08 3.08 0 0 0 .158-.134c.019-.018.03-.042.085-.11-.146-.042-.249-.072-.425-.12.462-.19.851-.348 1.246-.512Zm-2.39.292c-.194.122-.364.237-.54.347.005.03.011.055.011.085.14.006.28.006.414.024.049.006.091.055.134.085-.037.037-.073.104-.11.104-.328.012-.65.006-.967.006a.67.67 0 0 1-.012-.11c.055-.048.11-.103.213-.2-.115-.012-.176-.03-.225-.019-.176.043-.353.128-.529.134-.566.018-1.131.012-1.697.006-.079 0-.158-.042-.23-.06.06-.043.12-.086.188-.128.121-.085.237-.17.359-.243.067-.043.158-.11.225-.092.389.104.772-.024 1.155-.006h.082l.165-.011c.136-.007.27.007.392.151.054.06.328.012.45-.067.188-.115.334-.121.523-.006Zm18.615-6.257c.146-.012.298.036.45.054v.098c-.067.018-.14.042-.207.048-.2.006-.407.006-.608 0a7.096 7.096 0 0 0-2.427.39c-.638.225-1.21.65-1.812.973-.213.115-.456.17-.663.291-.364.225-.784.128-1.18.201-.194.037-.382.158-.54.28-.5.383-1.095.565-1.655.827-.595.28-1.277.401-1.77.876-.346.334-.662.693-.996 1.033-.371.377-.742.748-1.113 1.125-.037.037-.049.11-.073.158l.015.004-.01.003-.152.06c-.37.159-.736.336-1.167.304-.14-.012-.292.159-.438.146-.28-.024-.547-.11-.827-.212.183-.098.244-.487.602-.146.165.158.274-.122.317-.317 1.417.055 2.34-.735 3.083-1.745-.061-.237-.116-.438-.164-.614.456-.219.845-.426 1.246-.596.225-.097.468-.176.706-.219.456-.073.808-.304 1.119-.62.06-.061.103-.225.066-.286a.534.534 0 0 0-.304-.237c-.23-.043-.474-.03-.754-.043.104-.225.158-.395.402-.213.06.049.176.037.261.037.833.006 1.66.03 2.493.006a2.206 2.206 0 0 0 1.052-.316c.292-.17.627-.268.937-.414.413-.2.815-.425 1.222-.632.085-.043.183-.098.274-.104.87-.073 1.745-.14 2.615-.2Zm-24.173 5.91c-.09.03-.146.074-.2.067-.39-.042-.694.104-.991.341-.238.182-.542.28-.864.444.03-.59 1.478-1.156 2.055-.851Zm17.953-.528c-.044.06-.08.164-.141.182l-1.83.432c-.396.097-.785.219-1.174.328l-.03.006c-.998.104-1.983.286-2.992.183-.055-.005-.103-.06-.152-.114l-.04-.041.38-.072c.13-.024.258-.047.39-.065.218-.03.443-.012.662-.049.608-.097 1.21-.219 1.818-.322.146-.025.304-.006.45-.037.596-.11 1.192-.237 1.794-.34.19-.033.387-.049.583-.065l.282-.026Zm-8.452-1.461-.002-.011c.049.17-.03.267-.146.407-.347.42-.638.888-.96 1.332-.08.11-.19.195-.287.292l-.079-.043c.019-.085.019-.182.067-.243.146-.182.323-.346.475-.529.067-.079.164-.182.164-.274.006-.364.31-.516.505-.748.05-.063.127-.103.201-.145l.062-.038Zm-7.184.177c.061.025.17.073.28.11.091.03.182.073.274.079.565.006 1.13.012 1.696 0 .104 0 .201-.11.31-.128.159-.03.317-.03.475-.042.006.03.006.054.012.085-.17.085-.335.207-.517.255-.37.085-.754.11-1.119.2-.274.074-.523.25-.797.317-.273.067-.571.049-.857.049a.511.511 0 0 1-.024-.262c.067-.2.158-.389.267-.663Zm-12.466-1.83a.251.251 0 0 0 .043.067c-.183.176-.371.346-.554.523.414.578 1.01.7 1.654.37.085-.042.201-.017.34-.03-.188.231-.188.231-1.288.396l.018.298c.584.17 1.01-.146 1.417-.426.255-.176.529-.225.809-.286.048-.012.11-.012.146.012.389.213.456.189.784-.067.17-.133.401-.2.675-.334-.207.401-.122.565.225.517.213-.03.407-.17.608-.262.152-.067.304-.146.456-.206.335-.128.67-.256 1.004-.377a.64.64 0 0 1 .206-.05c.067.007.134.043.201.068-.049.048-.091.115-.152.14-.353.133-.705.255-1.058.395-.055.018-.11.122-.104.176.007.061.08.146.134.158.657.146 1.156.566 1.679.937.036.03.036.11.054.164-.067 0-.146.024-.188 0-.456-.28-.906-.572-1.368-.851a.547.547 0 0 0-.262-.055 58.245 58.245 0 0 0-2.061-.012c-.268.006-.53.115-.797.14-.182.018-.37-.049-.56-.049-.121 0-.285.03-.352.11-.28.328-.693.377-1.052.486-.17.049-.438-.134-.62-.268-.14-.097-.225-.28-.341-.425-.237-.31-.499-.62-.395-1.046.273-.085.486-.146.7-.213Zm20.751.392-.002-.015c.121.377-.28.45-.414.681-.121.213-.328.383-.505.56-.027.027-.082.023-.133.025l-.04.003-.008.002v-.001l.01-.067c.01-.122.029-.232.165-.333.128-.098.177-.31.28-.505.213.108.337.007.451-.126l.097-.118.05-.057.049-.049Zm-3.371-.197-.624.55-.619.541-.015-.07c-.017-.082-.033-.173-.056-.292-.583.511-1.258.602-1.964.627-.012-.025-.049-.073-.079-.128-.012-.024 0-.055 0-.103.231-.043.462-.086.766-.14-.012-.012.049.036.134.103.043-.134.085-.237.134-.383.261.42.432 0 .638-.043.201-.036.377-.194.572-.291.25-.122.499-.244.754-.347a.6.6 0 0 1 .359-.024Zm3.673-.754c.03 0 .06 0 .091.006 0 .103.036.23-.006.31-.108.189-.072.47-.293.585l-.088.032.147-.462.149-.471Zm-8.332.139c.043.383-.09.548-.45.548h-.553c0-.03-.006-.067-.006-.098l.614-.127c0-.025.007-.049.007-.073-.153-.037-.305-.073-.45-.116l-.007-.091.428-.021.417-.022Zm7.42-1.337c.03.048.067.085.06.109-.036.176-.559.626-.735.669-.268.067-.554.122-.797.243-.353.189-.675.432-1.028.657-.097-.383 0-.547.34-.705.274-.128.524-.305.78-.463.024-.012.048-.054.066-.048.499.036.9-.207 1.314-.462Zm-4.981-1.073v-.01c.037.28-.2.42-.365.523-.614.377-1.07.9-1.52 1.441-.128.155-.223.383-.448.446l-.101.015-.008-.09c-.004-.214.125-.344.332-.456.116-.06.176-.213.262-.334.097-.14.158-.377.285-.414.383-.11.548-.456.84-.663a6.22 6.22 0 0 1 .483-.312l.24-.146Zm.624 1.694.115.009-.042.064c-.058.096-.11.207-.192.236a4.855 4.855 0 0 1-.575.162l-.289.069v-.395c.134.085.201.134.262.17.213-.186.44-.321.721-.315Zm1.432-.67-.658.337-.651.331-.005-.095a7.86 7.86 0 0 0-.012-.184c.347-.164.663-.322.991-.45.104-.042.237-.006.335.06Zm-6.83-.195c.153.34.335.39.694.17.17-.103.334-.194.565.013-.352.182-.68.346-1.01.51.007-.048.02-.14.007-.145-.28-.098-.566-.189-.845-.268-.019-.006-.085.085-.08.097.025.043.074.092.116.104.28.09.547.158.815.219-.06.048-.115.14-.182.14a3.044 3.044 0 0 1-1.545-.298.943.943 0 0 0-.705-.013c-.396.165-.688-.09-1.034-.146.243-.048.432-.431.736-.11.042.05.176.02.267.013.11-.006.231-.049.329-.024.662.158 1.252-.158 1.873-.262Zm-8.027-1.04.087.017.021-.007-.01.015.007.069c.005.179-.207.202-.3.283-.352.335-.74.615-1.118.925-.116.097-.213.219-.334.304-.073.055-.177.055-.347.103.565-.523 1.046-.985 1.55-1.423.128-.111.242-.298.444-.286Zm26.49.061c.304.049.602.134.9.2v.092c-.11.012-.213.03-.323.03-.443.007-.893-.024-1.331.03-.45.056-.888.19-1.332.293a.81.81 0 0 0-.116.03c-1.192.25-2.396.25-3.606.25-.413 0-.833.103-1.228.225-.164.036-.274.261-.426.42-.067-.524.098-.986.359-1.393.262.11.48.212.705.285.286.086.578.152.87.213.073.018.176.012.237-.03.262-.158.505-.14.779-.006.103.048.255.012.377-.006.085-.012.17-.08.255-.085.705-.08 1.417-.122 2.122-.225.42-.061.827-.207 1.247-.292a1.45 1.45 0 0 1 .51-.03Zm-24.635.56c.025.152.043.298.061.431-.304.116-.632.232-.979.36-.158-.347.432-.828.918-.791Zm18.037-8.228c-.012.085.006.2-.043.25-.486.468-.979.93-1.484 1.38-.291.261-.59.54-.93.711-.596.298-.98.84-1.526 1.18-.25.158-.463.383-.688.578.025.03.05.067.073.097.262.079.517.195.779.237.535.091 1.07.146 1.611.213.846.097 1.69.182 2.579.28l.004.014a.29.29 0 0 1 .008.065c0 .048-.012.097-.024.225a45.53 45.53 0 0 0-.627-.152 1.599 1.599 0 0 0-.237-.037c-.353-.012-.711.006-1.064-.03-.566-.049-1.143-.061-1.679-.22a3.832 3.832 0 0 0-.93-.139c-.565-.018-1.204.456-1.423.991-.14.335-.353.639-.547.949-.243.39-.499.766-.754 1.15-.03.048-.128.054-.189.078-.018-.389.28-.632.438-.93a19.41 19.41 0 0 1 .9-1.533c.25-.389.505-.772.809-1.118.401-.45.845-.87 1.295-1.278.408-.37.833-.723 1.271-1.058.286-.219.626-.364.9-.59l.385-.341.746-.717.164-.152c.055-.042.122-.073.183-.103Zm-14.163 6.939c.499.225 1.015.103 1.52.145.292.025.584-.006.882 0 .043 0 .091.03.164.055-.055.049-.079.085-.103.091-.693.128-1.387.22-2.092.22-.414 0-.833.176-1.301.28 0-.22-.013-.457.006-.694.006-.049.115-.122.176-.128.25-.006.541-.067.748.03Zm-3.436-.986c.018.037.043.08.06.116-.346.267-.692.547-1.045.809-.28.206-.56.407-.851.602a.935.935 0 0 1-.243.102l-.106.035.097-.122c.106-.14.21-.283.343-.392.48-.383.985-.736 1.49-1.089.067-.048.17-.042.255-.06Zm20.408-3.004c-.006.104.025.237-.024.31-.335.475-.693.93-1.04 1.4-.018.03-.018.072-.036.175.583-.054 1.149.14 1.69-.14a.306.306 0 0 1 .146-.036c.718 0 1.435 0 2.153.006.024 0 .048.025.121.073-.09.037-.146.067-.2.073l-2.445.14c-.407.022-.815.04-1.222.055-.335.012-.487.158-.65.42-.232.376-.524.723-.791 1.082-.134.182-.256.37-.39.553-.03-.018-.073-.03-.115-.049.085-.17.152-.346.25-.51.218-.353.437-.706.674-1.046.274-.402.566-.79.845-1.186.244-.347.469-.693.712-1.04a.878.878 0 0 1 .322-.28Zm-9.194 1.648c.11.48.042.548-.383.578-.56.049-1.15.06-1.679.225-.748.237-1.544.426-2.122 1.04-.097.103-.213.194-.353.322-.079-.298-.243-.28-.432-.207-.577.231-1.137.159-1.69-.188.103-.018.207-.067.304-.06.316.023.602 0 .906-.14.274-.128.602-.135.906-.201.2-.043.407.018.59-.195.122-.134.383-.14.578-.219.115-.049.219-.116.328-.182.189-.116.365-.28.566-.353.298-.103.614-.134.924-.2.134-.031.261-.068.426-.11.024.018.079.073.152.14.066-.092.121-.158.188-.25.073.098.128.158.158.195.243-.073.438-.134.633-.195Zm4.092-7.936c.14.28-.11.463-.213.596a7.144 7.144 0 0 1-1.088 1.138 52.55 52.55 0 0 1-2.433 1.873 1.75 1.75 0 0 1-.353.19l-.384.151a2.75 2.75 0 0 0-.187.084 9.236 9.236 0 0 0-.924.523c-.48.31-.955.627-1.411.967-.225.17-.401.408-.608.614-.195.195-.39.39-.59.578-.037.036-.085.08-.122.08-.517-.02-.863.31-1.246.57-.329.226-.7.39-1.046.578-.383.213-.76.432-1.15.639-.109.06-.237.122-.358.122-.335.006-.675-.019-1.01-.03 0-.02 0-.05-.006-.086.535-.103 1.18.103 1.533-.541-.019-.03-.073-.104-.17-.243.212.012.364.024.547.03.042-.146.09-.225.34-.17.207.048.487-.08.693-.201.493-.286.81-.79 1.344-1.052-.073-.103-.115-.17-.194-.274.474-.018.736-.273.924-.65.037-.067.17-.092.262-.134.03.03.06.067.09.097-.066.091-.12.195-.194.274-.128.14-.267.267-.407.389-.067.06-.164.097-.225.164-.055.055-.08.14-.116.213.097.043.256.146.28.122.292-.304.638-.542.851-.937.183-.334.53-.578.809-.857.067-.073.182-.116.219-.195.097-.219.28-.188.462-.237.328-.091.633-.268.937-.426.413-.213.82-.438 1.228-.669.328-.188.663-.383.973-.608.474-.34.936-.7 1.38-1.076.377-.316.724-.669 1.07-1.016.177-.176.317-.377.493-.59ZM14.105 14.65a52.85 52.85 0 0 0-.45.79c-.146-.316.121-.796.45-.79Z"/>
</svg>
