<svg>
  <path d="M31.452 45.91c5.538-1.726 10.613-6.103 13.266-11.406 3.045-6.086 3.045-13.897-.017-20.054-2.137-4.27-6.197-8.257-10.506-10.285-3.562-1.69-8.031-2.456-11.984-2.064-4.897.48-9.527 2.597-13.16 6.05C4.368 12.599 2 18.098 2 24.503c0 6.282 2.333 11.816 6.838 16.158 6.036 5.818 14.512 7.794 22.614 5.249Zm-18.056-8.24V9.023h7.622c4.398 0 8.084.09 8.743.196 3.08.498 5.004 2.42 5.556 5.552.41 2.207-.303 4.662-1.746 6.103-.765.783-2.44 1.602-3.775 1.85-.534.09-1.94.179-3.151.179h-2.208l-.125.48c-.071.285-.855 3.577-1.745 7.35l-1.62 6.85-3.776.054-3.775.035Zm10.684-.052c0-.036.57-2.42 1.247-5.303l.118-.49.039-.162.078-.324c.61-2.535 1.172-4.884 1.314-5.483l.267-1.228 2.084.107c1.389.053 2.457.213 3.258.462 3.259 1.033 4.755 3.364 4.256 6.584-.48 3.132-2.28 5.054-5.324 5.695-.837.177-7.337.284-7.337.142Z"/>
</svg>
