---
version: "0.0.4"
---
<svg>
  <path d="m32.072 9.823.047-.238.015-.077c.09-.465.535-2.636 1.023-5.01l.267-1.294.064-.319c.115-.58.196-1.028.19-1.045q-.003-.005-.053.044l-.049.05a86 86 0 0 0-1.825 2.058l-.494.57c-1.323 1.527-1.416 1.603-1.459 1.445l-.003-.013c-.033-.143-.233-1.347-.453-2.72l-.287-1.783c-.085-.52-.14-.852-.148-.86-.012-.012-.62 1.052-1.281 2.233l-.263.468-.244.439c-.237.426-.464.837-.654 1.185l-.429.774-.08-.231c-.02-.065-.122-.355-.27-.771l-.717-2.008-.607-1.716-.152-.433-.023-.068c-.155-.458-.265-.622-.265-.414v.005l-.035.115-.039.116c-.144.427-.482 1.383-.87 2.465l-.501 1.393c-.274.764-.462 1.297-.475 1.336-.02.064-.056.104-.083.091l-.004-.003c-.026-.013-.613-1.058-1.323-2.343l-.459-.832C19.557 1.39 19.12.618 19.098.618c-.02 0-.228 1.222-.469 2.722l-.139.873c-.276 1.73-.346 2.048-.41 1.971l-.033-.043a54 54 0 0 0-.714-.863l-.679-.805-.462-.544c-.213-.252-.408-.48-.56-.657l-.588-.675c-.73-.835-.764-.857-.73-.723.01.065.038.188.058.295l.023.125c.194 1.035 1.505 7.455 1.524 7.475q.004.003.033.004h.049c.13-.003.401-.022.708-.052 4.557-.455 11.014-.428 14.942.054zM8.933 14.038l.569.041v-.84c.003-.584.03-.7.194-1.067a2.12 2.12 0 0 1 .95-1.015l.034-.017c.32-.17 1.044-.34 1.458-.34h.295l-.04-.305c-.127-.937-.99-1.738-1.98-1.84-.443-.047-1.105.102-1.513.34-.406.246-.87.759-1.11 1.232l-.038.078c-.165.34-.189.466-.19.92v.151c-.003.29-.016.51-.034.51-.094-.013-.562-.692-.75-1.079-.26-.556-.314-1.12-.153-1.67.482-1.69 1.98-2.817 3.747-2.817.83 0 1.848.342 2.441.82l.144.116c.35.282.34.242.292-.196-.107-1.066-.495-1.887-1.177-2.532-.479-.445-1.155-.832-1.723-.975l-.037-.01c-.429-.108-1.526-.108-1.947-.006-.435.107-1.47.6-1.893.9l-.084.061a5 5 0 0 1-.285.193c-.014 0-.06-.122-.107-.278-.107-.353-.502-.794-.85-.95a2.5 2.5 0 0 0-.662-.17l-.109-.014c-.258-.03-.274-.014-.235.089l.002.006c.094.23.228.998.275 1.52l.003.04c.02.31-.005.885-.06 1.482l-.015.159c-.135 1.437-.11 2.691.078 3.438l.04.177-.394-.041c-.81-.088-1.546.23-1.827.787-.18.353-.281.896-.228 1.222l.04.258.415-.23c.475-.265.99-.36 1.5-.286.407.068 1.036.367 1.364.652.944.828 2.316 1.391 3.6 1.486m29.442.041.583-.04c1.398-.102 2.582-.605 3.9-1.643.717-.564 1.68-.7 2.443-.346l.044.02c.2.095.394.206.464.265l.027.024c.09.077.103.07.14-.024.068-.184-.02-.937-.146-1.25-.12-.312-.469-.658-.81-.8-.313-.14-.919-.188-1.228-.109l-.023.007c-.148.04-.275.06-.281.054a2.3 2.3 0 0 1 .08-.387c.16-.645.187-1.758.067-3.184l-.01-.12c-.109-1.32-.071-2.143.13-2.927l.094-.353-.207.006c-.116 0-.362.05-.56.109l-.023.007c-.48.14-.968.609-1.04 1.006l-.01.052c-.024.14-.048.245-.06.245-.014 0-.181-.102-.375-.23-.582-.374-1.285-.707-1.807-.856-.589-.163-1.646-.183-2.195-.034a3.82 3.82 0 0 0-2.667 2.647l-.012.044-.01.033-.02.078-.021.089c-.128.543-.177 1.054-.067.965 1.044-.842 1.954-1.154 3.085-1.08 1.479.102 2.663.89 3.279 2.193l.058.124c.194.415.22.533.223.958v.222c-.003.458-.03.583-.202.952l-.012.025c-.2.427-.65 1.066-.75 1.066-.018 0-.036-.22-.04-.51v-.088c0-.74-.187-1.188-.736-1.772-.81-.862-1.96-1.1-2.957-.61-.569.281-1.143 1.112-1.158 1.669v.035c.001.142.026.162.479.22l.143.017q2.177.262 2.306 2.2l.003.04c.02.31.001.625-.043.762zM23.22 7.067c-.207-.414-.073-.984.288-1.181.241-.136.65-.136.883 0 .529.319.536 1.208 0 1.486-.414.218-.977.075-1.17-.305m3.892.398-.017-.018c-.281-.285-.342-.53-.221-.882.174-.503.783-.734 1.265-.482.615.319.501 1.35-.174 1.588-.341.12-.58.064-.853-.206m-7.538-.147c-.15-.245-.173-.663-.05-.898l.01-.018c.22-.408.816-.543 1.23-.285.462.285.523.896.128 1.33-.388.435-1.024.367-1.318-.129m-3.012.156c0-.38.228-.61.603-.61.193 0 .306.037.422.156l.013.013a.63.63 0 0 1-.007.882.6.6 0 0 1-1.03-.44m13.65-.013c0-.367.235-.598.603-.598.194 0 .306.038.422.157l.013.013c.234.23.228.631-.007.876-.388.393-1.03.115-1.03-.448m-13.95 4.276.12.706.407-.044c.53-.054 2.737-.208 3.797-.26l.502-.022c2.84-.125 5.34-.072 8.717.177l.588.044a33 33 0 0 0 1.156.073h.012q.023 0 .024-.002c.013-.013.085-.39.151-.766l.05-.289c.043-.258.074-.465.066-.472-.017-.017-.796-.098-1.648-.174l-.25-.022-.28-.023a60 60 0 0 0-.753-.058l-.2-.014c-1.504-.098-6.677-.135-8.244-.062l-.155.008a72 72 0 0 0-.948.056l-.29.02-.247.017-.148.01-.493.037c-.816.062-1.545.126-1.82.164-.17.026-.275.072-.263.118l.002.007.002.009c.019.073.082.4.144.762m7.728 32.136.448-.326c3.895-2.797 6.551-5.62 8.478-9.015 2.075-3.645 3.259-7.793 3.587-12.53.112-1.708.055-6.549-.102-8.12l-.045-.434H11.63l-.04.387c-.214 2.057-.221 8.071-.02 9.727.468 3.781 1.284 6.599 2.79 9.646 1.967 3.992 4.463 6.843 8.82 10.06zm10.713-18.681-.002-.002c-.055-.052-.95-1.208-2.012-2.619l-.3-.396c-1.265-1.667-1.691-2.185-1.741-2.122l-.28.38c-.29.393-.61.822-.928 1.249l-.576.768c-.819 1.089-1.512 1.995-1.535 1.995-.026 0-.717-.914-1.56-2.062l-.394-.536c-.758-1.03-1.355-1.815-1.385-1.815-.04 0-3.085 4.094-3.286 4.42-.026.047-.066.074-.08.06l-.718-.973c-.25-.337-.548-.738-.868-1.165l-.613-.828a54 54 0 0 0-1.055-1.393l-.011-.012c-.105-.11-.233.044-2.108 2.505l-.437.574c-1.212 1.59-1.568 2.016-1.604 1.924-.05-.135-.148-.974-.232-1.902l-.017-.183-.007-.082-.014-.165-.01-.123-.017-.21-.03-.412-.007-.1a37 37 0 0 1-.042-1.981v-.382l.002-.362.003-.348.002-.256.003-.153.004-.294a69 69 0 0 1 .081-2.523l.04-.795H35.03v.385c.001.117.008.387.019.744l.048 1.553c.087 2.634-.02 5.22-.308 7.31l-.008.054c-.026.157-.055.273-.08.273m6.497 9.245c.703-.665.99-1.364.99-2.423v-.057c-.008-.923-.211-1.481-1.07-2.998l-.036-.063c-.355-.626-.679-1.24-.77-1.454l-.007-.019c-.031-.087.068-.1.639-.1l.07-.001c.48-.009.7-.045.987-.155.776-.306 1.399-1.1 1.64-2.084.133-.557.147-1.969.026-2.736l-.012-.084c-.032-.236-.047-.434-.035-.452.025-.022.387.143.799.35l.093.047q.12.06.241.124l.048.026c.24.126.466.251.626.349l.068.043c.185.115.334.201.34.201.052 0 .08-.468.078-.961v-.051l-.001-.077-.001-.051-.002-.088a7 7 0 0 0-.034-.516c-.314-2.804-2.027-5.078-4.476-5.947l-.075-.026c-.459-.16-.648-.185-1.41-.198l-.287-.004h-.057c-.375.001-.714.02-.828.052l-.036.009c-.133.034-.254.082-.285.113-.033.034.168.17.435.312l.092.049c1.426.76 2.234 1.628 2.613 2.799l.012.037c.234.74.368 1.765.234 1.765a3 3 0 0 1-.295-.14l-.137-.07c-.267-.136-.63-.328-1.01-.532l-.15-.08-.19-.104-.466-.255-.582-.326-.114.265c-.067.163-.107.441-.107.753.007.747.227 1.148 1.265 2.268l.092.1c.432.47.86.979.978 1.162.636.964.67 2.274.06 2.43-.3.075-1.05-.013-1.472-.176-.3-.119-.504-.263-.835-.596l-.49-.497.04.713c.087 1.364.462 2.702 1.185 4.215l.053.113.064.138c.203.437.38.846.425.971.12.38.114 1.175-.02 1.426-.529.998-1.8.808-2.396-.367-.167-.34-.328-1.004-.388-1.636l-.047-.509-.22.53c-.362.869-.496 1.486-.502 2.287-.014 1.765.83 2.92 2.228 3.035a3.1 3.1 0 0 0 2.422-.849m-32.085.849c.89-.068 1.552-.516 1.954-1.324.207-.414.408-1.25.408-1.697 0-.502-.2-1.446-.448-2.104l-.102-.268c-.176-.455-.179-.34-.34.56-.191 1.05-.552 1.699-1.114 1.997l-.023.012c-.362.19-.93.156-1.245-.075-.416-.294-.578-.965-.409-1.719l.007-.032c.04-.177.268-.72.496-1.209.756-1.581 1.177-3.054 1.278-4.44l.046-.644-.247.319a2.6 2.6 0 0 1-1.857.989l-.037.002c-.82.054-1.085-.165-1.09-.9v-.023c0-.89.294-1.419 1.599-2.817l.112-.122c.784-.856.981-1.166 1.085-1.7l.007-.038c.074-.367.007-.991-.127-1.242l-.013-.025c-.063-.116-.098-.094-.576.167l-.23.126-.314.17-.233.126-.283.151c-.385.205-.739.39-.97.509l-.13.065a1 1 0 0 1-.148.068c-.086 0-.048-.56.081-1.188l.006-.027c.311-1.539 1.068-2.486 2.694-3.367l.678-.366-.194-.082c-.301-.122-1.86-.142-2.342-.034-1.03.245-1.94.76-2.783 1.582-1.292 1.262-2.021 2.783-2.202 4.602a8 8 0 0 0-.03.642v.251l.001.112c.006.362.028.658.063.658h.002c.02-.01.146-.082.304-.176l.148-.089c.16-.095.38-.216.612-.337l.096-.05.096-.05.096-.049c.436-.221.835-.408.854-.389.017.012 0 .17-.031.369l-.016.1c-.032.188-.06.623-.07 1.056l-.001.066-.003.262c.007 1.018.127 1.69.422 2.281.214.42.682.896 1.09 1.1.435.21 1.165.346 1.606.285l.04-.006c.187-.026.275-.011.275.033v.01c-.015.127-.287.664-.75 1.483l-.055.099c-.9 1.593-1.181 2.45-1.109 3.31.16 1.805 1.66 3.156 3.366 3.027M17.358 48c.058 0 .207-.464.322-.947l.018-.076.019-.083c.049-.22.088-.435.106-.601l.003-.03c.052-.505.015-1.159-.08-1.486l-.007-.022c-.04-.129.034-.095.509.21 1.248.825 2.196 1.146 3.385 1.141h.047c.55-.007 1.312-.129 1.406-.224.013-.014-.368-.312-.844-.665-4.213-3.092-6.576-5.797-9.084-10.415l-.491-.906a6 6 0 0 0-.154-.273c-.007-.014-.04.142-.067.339-.348 2.817-1.21 5.403-2.422 7.236l-.274.435c-.084.134-.135.22-.128.224.119.093.598.186 1.122.215l.03.002c1.097.061 1.987-.238 2.69-.91l.247-.222a.5.5 0 0 1 .087-.07c.011 0 .018.132.02.305v.096c0 1.243.813 3.398 1.823 4.844l.03.043c.148.21.383.498.632.784l.043.049.043.049.077.087c.413.462.819.871.892.871m13.275 0c.069 0 .468-.406.86-.85l.077-.088.038-.045.058-.067.038-.044.057-.068c.16-.19.304-.372.405-.515 1.065-1.503 1.83-3.392 1.963-4.858l.05-.593.315.299c.897.849 2.536 1.174 3.694.726l.187-.068-.294-.427c-1.146-1.674-1.997-4.012-2.436-6.7l-.07-.428a15 15 0 0 0-.104-.584c-.012-.006-.082.081-.156.208l-.526.928c-.109.192-.225.4-.341.609l-.132.234c-1.324 2.341-2.397 3.82-3.997 5.522-1.178 1.256-3.252 3.062-4.871 4.23l-.703.509-.04.482c-.015.178-.02.38-.019.58l.001.049c.008.496.064.959.138.959h.006c.063-.013.472-.205.938-.434 1.231-.618 2.857-1.731 4.028-2.75l.064-.055c.413-.358.463-.354.363.007l-.012.042c-.08.278-.107 1.418-.04 1.764l.011.057c.105.496.386 1.369.45 1.369"/>
</svg>
