<svg>
  <path d="M33.182 2.027c.43 0 .946.215 1.247.494 4.063 4.02 8.083 8.062 12.103 12.125.258.258.452.73.452 1.118.021 5.783.021 11.544 0 17.327 0 .408-.237.946-.538 1.247-3.998 4.041-8.018 8.061-12.017 12.103-.387.387-.795.559-1.333.559-5.74-.021-11.458 0-17.198-.043-.43 0-.946-.215-1.247-.516-4.063-4.02-8.083-8.062-12.103-12.146-.3-.301-.494-.839-.516-1.247a1140.69 1140.69 0 0 1 0-17.155c0-.43.237-.946.516-1.247 4.02-4.063 8.04-8.105 12.103-12.125.258-.258.667-.494 1.01-.494 2.946-.043 5.891-.022 8.836-.022 2.902 0 5.783-.021 8.685.022Zm-8.34 3.44c-.28.085-.56.128-.796.214-3.934 1.527-7.847 3.053-11.76 4.558-.623.236-1.031.602-1.29 1.204-1.719 3.955-3.503 7.89-5.223 11.867-.172.365-.194.924-.043 1.29a855.62 855.62 0 0 0 4.75 12.318c.151.387.517.795.882.945a853.88 853.88 0 0 0 12.039 5.332c.387.172.967.172 1.354.021a589.127 589.127 0 0 0 12.125-4.708c.43-.172.881-.623 1.075-1.053 1.763-3.891 3.461-7.804 5.18-11.695.237-.537.28-.989.065-1.526-1.59-4.106-3.16-8.212-4.772-12.297-.13-.344-.495-.73-.839-.881-3.977-1.806-7.954-3.569-11.952-5.353-.237-.108-.516-.15-.796-.237ZM14.78 31.283c.086.043.172.108.28.172-.215.495-.43.99-.645 1.505a2.222 2.222 0 0 1-.323-.15l.688-1.527ZM25.336 18.75c.344.28.602.495.795.645-.043.344-.064.602-.086.882-.129-.065-.28-.13-.451-.215-.043.043-.086.064-.15.107.386.452.752.882 1.053 1.247-.28.58-1.226 0-.968.989.817-.43 1.527-.194 2.257.236.452.28 1.032.366 1.527.516-.56.925-1.956 1.462-2.945 1.097-.13-.043-.473.172-.538.344-.107.3-.15.666-.129.989a84 84 0 0 0 .323 3.267c.021.258.172.495.28.796 2.063-.194 3.245-2.215 2.858-5.203 1.333 1.355.753 4.364-.924 6.106-.344.215-.688.408-1.01.623-.258.043-.516.107-.774.086-.86-.022-1.72-.043-2.58-.108-.13 0-.237-.236-.387-.386-.258 0-.559-.065-.838-.108l-.025-.022h-.018c.945 1.161 3.01 1.42 4.622.581.343-.215.687-.43 1.01-.623.15-.108.3-.237.451-.323.645-.344.839-.215.925.645 1.01-.258.688.817 1.01.989-.58.215-1.204.451-1.849.688-.15.043-.387.15-.451.086-.559-.58-1.053-.065-1.57.064-1.332.344-2.644.301-3.89-.387-.022.086-.022.15-.044.237-.386-.022-.773.021-1.139-.086-.602-.172-1.182-.43-1.827-.667.236-.279.559-.688.903-1.117.043.043.086.064.107.107.13-.258.172-.645.387-.774.15-.086.495.13.753.237.212.084.403.211.615.339l.03.026c-1.935-1.72-2.473-4.235-1.183-6.191-.28 1.311-.193 2.429.43 3.44.602 1.01 1.462 1.676 2.773 1.913a3.706 3.706 0 0 0-.3-.43c.193-.667.45-1.204.494-1.763.086-.946.064-1.913.021-2.86 0-.171-.43-.494-.473-.472-.662.426-1.183.189-1.687-.107l-.347-.207a3.337 3.337 0 0 0-.352-.18c-.28-.108-.494-.388-.73-.689 1.418.28 2.342-1.698 3.869-.666.064-.473.064-.473-.946-.903.129-.258.215-.666.387-.71.881-.236.774-.88.73-1.526v-.559Zm10.34 12.576c.344.13.774.172 1.032.387.15.13-.043.58-.086 1.01-.537-.236-.924-.43-1.311-.601.021-.065.043-.108.043-.172h.688c-.172-.194-.28-.323-.409-.473.022-.043.022-.086.043-.15Zm-2.838-7.18c.13.215.43.452.387.624-.172.623-.451 1.225-.71 1.827l-.069.149-.152.302c-.098.202-.177.406-.165.602.043.882.215 1.785.365 2.838h-1.59c.043-1.247.021-2.408.129-3.547.043-.408.365-.817.602-1.204.193-.344.408-.688.623-.989.172-.215.387-.408.58-.602Zm-15.048.022c.215.172.623.365.623.537 0 .56.237.839.688 1.054.538.28.602.774.602 1.375-.021 1.097.043 2.193.086 3.354h-1.634c.13-.795.237-1.462.366-2.128.129-.774.129-1.419-.537-2.042-.344-.323-.409-1.01-.516-1.548-.043-.172.215-.409.322-.602Zm-3.698 4.622c.624 1.419-.709.817-1.096 1.16.15-.193.301-.386.495-.644h-.602a1.079 1.079 0 0 1-.043-.258c.408-.086.816-.172 1.246-.258Zm23.519.258a.764.764 0 0 0 .086.193l-1.44.688c-.043-.086-.065-.172-.108-.236.473-.237.838-.753 1.462-.645ZM14.006 27.5c.022.322.043.58.065.946-.452.064-.86.107-1.247.15-.021-.064-.021-.129-.043-.215.194-.086.366-.172.753-.344a20.284 20.284 0 0 1-.86-.15v-.215c.408-.043.817-.108 1.332-.172Zm23.82-.022c-.086.387-.15.688-.237 1.097-.28-.043-.688-.086-1.354-.172a36.628 36.628 0 0 0 1.59-.925ZM14.5 20.02c.28.173.58.323.774.43a727.74 727.74 0 0 0-1.784 5.44c-.086.021-.13.021-.194.043.043-.387.043-.774.129-1.161.086-.43.236-.839.344-1.269a1.048 1.048 0 0 1-.236-.086c-.237.71-.473 1.42-.753 2.215-.645-.215-1.311-.43-1.956-.645.021-.108.064-.194.086-.301.516.15 1.053.3 1.634.451.15-.451.28-.838.408-1.247.15-.451.258-.86.881-.881.194 0 .366-.43.667-.839l-1.182.215c.107-.494.107-.924.322-1.203.086-.13.602.064 1.01.129.043-.108.15-.344.258-.56a13.986 13.986 0 0 0-.537-.558c.043-.065.086-.13.129-.172Zm21.82 4.386c.28.043.537.086.817.086.28.022.58-.021.967-.064-.28.322-.451.537-.623.73.215.173.43.345.73.56-.279.064-.558.107-.666.15-.473-.559-.838-1.01-1.225-1.462Zm1.784-.989c-.86.13-1.44.753-2.02-.043.15.043.322.086.365.108.301-.323.494-.71.774-.796.172-.043.473.387.881.731Zm-.774-3.654c.022.086.043.172.065.236-.215.301-.452.58-.602.925-.129.28-.258.623-.193.924.021.15.472.193.838.344-.301.15-.58.3-.817.408-1.053-.967-.236-1.698.28-2.45-.065-.043-.151-.108-.216-.15-.43.515-.86 1.053-1.375 1.676a36.373 36.373 0 0 0-.667-1.311c.065-.043.13-.086.194-.15.172.214.344.43.58.73.28-.365.473-.795.817-1.01.28-.194.731-.108 1.096-.172Zm-22.164-3.418.278.271.564.536c.469.448.924.904 1.287 1.428.344.473-.043.946-.753 1.054.215-.258.56-.495.538-.667-.043-.28-.301-.537-.516-.752-.538-.538-1.097-1.053-1.656-1.59.086-.108.172-.194.258-.28Zm18.338.58c.71.215 1.268.688 1.634 1.29.129.193-.215.666-.387 1.16-.817-.773-1.484-1.397-2.15-2.042a.95.95 0 0 1 .193-.236c.602.516 1.204 1.053 1.806 1.57.065-.065.15-.13.215-.173-.193-.258-.365-.516-.58-.73-.258-.259-.538-.495-.731-.839Zm-11.179-2.73c.108.344.215.666.301 1.01-.459.249-.964.42-1.465.59l-.374.128c-1.053.369-2.025.818-2.418 2.077-.215-.538-.408-1.053-.623-1.57.043-.042.086-.064.129-.107.172.15.344.301.666.58.13-.343.258-.644.387-.967.13.043.43.237.58.15.111-.06.18-.192.238-.338l.084-.222.044-.106c.624.43.796.366.903-.494.172.107.344.215.56.365.02-.236.042-.43.064-.752.215.215.387.365.645.602.021-.387.043-.667.064-.925.065 0 .15-.021.215-.021Zm-6.385 1.548c.58.666 1.183 1.354 1.806 2.042-.494.086-1.526-.989-1.806-2.042Zm17.413-1.14c.086.043.172.108.237.15l-1.527 2.237c-.043-.043-.128-.065-.193-.108.344-.86.967-1.526 1.483-2.279Zm-1.676-.903.258.086c-.344.839-.688 1.677-1.054 2.516-.172-1.032.495-1.742.796-2.602Zm-5.353-1.526c.086 0 .172.022.258.022-.086.795-.172 1.59-.28 2.364l.258.065c.194-.774.387-1.57.58-2.343.087 0 .173.021.258.043-.15.773-.279 1.547-.472 2.58.451-.194.773-.345 1.096-.495.021.107.043.322.107.71.237-.366.387-.603.624-.968v.989c.086.043.129.064.193.064.15-.3.323-.602.473-.903.065.022.108.022.172.043-.043.301-.107.624-.172.946.366.28.624.323.817-.215.215-.623.452-1.225.688-1.849l.258.086c-.3.86-.58 1.742-.903 2.666-.924-.258-1.784-.516-2.644-.752-.387-.108-.774-.237-1.01.3-.043.108-.344.194-.473.151-.13-.043-.344-.258-.323-.387.15-1.032.323-2.064.495-3.117Zm-1.01 1.57c.107.343.3.666.236.88-.065.194-.43.323-.688.388-.344.086-.71.064-1.204.086.602-.495 1.075-.86 1.655-1.355Z"/>
</svg>
