---
version: "3.0.8"
---
<svg>
  <path d="M24 0c13.262 0 24.01 10.749 24.01 24s-10.748 24-24 24C10.75 48.01 0 37.262 0 24 0 10.749 10.749 0 24 0m0 .397C10.974.397.397 10.974.397 24 .397 37.036 10.964 47.603 24 47.603S47.603 37.036 47.603 24C47.613 10.974 37.036.397 24 .397m0 1.6c12.156 0 22.003 9.858 22.003 22.003 0 12.156-9.858 22.003-22.003 22.003S1.997 36.145 1.997 24 11.855 1.997 24 1.997m0 .408c-11.93 0-21.605 9.676-21.605 21.606S12.07 45.616 24 45.616s21.605-9.675 21.605-21.605C45.605 12.07 35.93 2.405 24 2.405m1.847 39.463a.77.77 0 0 1 .29.527c.01.15-.01.3-.065.461a2.7 2.7 0 0 1-.461.795l-.29.373q-.248.315-.333.41l.773-.064c.161-.01.269-.032.333-.043.064-.021.118-.042.161-.085s.086-.097.118-.161l.118-.011-.16.59-1.762.15-.01-.085.09-.099c.424-.47.727-.856.897-1.147.183-.322.269-.601.247-.848-.021-.193-.086-.344-.214-.451s-.269-.161-.43-.15a.63.63 0 0 0-.387.16.76.76 0 0 0-.225.398l-.086.01q.016-.398.205-.62l.02-.024a.8.8 0 0 1 .548-.268.85.85 0 0 1 .623.182m-3.21-.171c.246.021.44.14.6.354.194.268.269.59.237.956q-.049.499-.322.902c-.183.268-.43.494-.741.655a1.28 1.28 0 0 1-.795.16h-.129l.011-.085c.193.01.376-.01.548-.086.171-.075.343-.204.515-.408s.3-.43.376-.677c-.247.13-.462.183-.644.172a.73.73 0 0 1-.495-.263l-.02-.027c-.14-.171-.194-.397-.173-.665q.032-.387.29-.677a.85.85 0 0 1 .741-.311m-2.546-.398.075.022-.612 2.448-.015.058c-.032.129-.048.216-.038.254a.15.15 0 0 0 .064.118.7.7 0 0 0 .247.096l-.021.075-1.096-.268.022-.075c.14.032.225.043.279.032a.2.2 0 0 0 .107-.064c.022-.033.054-.13.097-.312l.402-1.633a1.7 1.7 0 0 0 .06-.343.2.2 0 0 0-.032-.118c-.022-.032-.054-.043-.086-.053a.6.6 0 0 0-.237.01l-.01-.075zm8.58.033c.172.096.28.214.322.375a.63.63 0 0 1-.032.365c-.054.13-.172.301-.387.516.301.129.505.247.613.333a.83.83 0 0 1 .279.419.67.67 0 0 1-.108.58.83.83 0 0 1-.523.357l-.035.008q-.419.096-.709-.097a.7.7 0 0 1-.3-.408.7.7 0 0 1 .032-.419l.024-.051c.067-.132.17-.295.33-.475-.279-.129-.462-.247-.558-.344a.6.6 0 0 1-.183-.333c-.043-.193-.01-.365.097-.537s.29-.29.526-.343.44-.043.612.054m-.376 1.557c-.096.128-.15.257-.182.397a.9.9 0 0 0 .01.408c.043.182.13.322.258.408s.269.107.43.075c.15-.043.268-.107.333-.225a.46.46 0 0 0 .064-.355.45.45 0 0 0-.132-.24l-.018-.017c-.14-.13-.398-.28-.763-.451m-6.059-.923-.019.02c-.107.108-.171.28-.193.505-.032.312.022.559.129.741.086.14.193.204.333.215.064.01.15 0 .247-.032a.55.55 0 0 0 .258-.108l.017-.08q.045-.233.058-.37c.01-.14 0-.301-.032-.462a.9.9 0 0 0-.172-.398.44.44 0 0 0-.29-.16.4.4 0 0 0-.336.13m5.855-.58a.47.47 0 0 0-.322.214.38.38 0 0 0-.064.333c.021.075.053.14.107.204a.9.9 0 0 0 .215.172l.43.214.043-.066c.105-.162.174-.29.193-.385a.66.66 0 0 0-.011-.322c-.032-.15-.108-.257-.215-.322s-.236-.075-.376-.043m13.745-9.02.43.203a20.23 20.23 0 0 1-10.202 9.922l-.193-.44a19.77 19.77 0 0 0 9.965-9.686m-35.662-.044a19.77 19.77 0 0 0 9.966 9.686l-.194.44a20.23 20.23 0 0 1-10.201-9.922zm34.352-.569.43.204a18.8 18.8 0 0 1-9.471 9.213l-.194-.44a18.34 18.34 0 0 0 9.235-8.977m-33.04-.042a18.34 18.34 0 0 0 9.234 8.977l-.193.44a18.8 18.8 0 0 1-9.471-9.213zM24 7.205c9.278 0 16.805 7.528 16.805 16.806S33.278 40.816 24 40.816 7.195 33.29 7.195 24.011C7.205 14.722 14.722 7.205 24 7.205m0 .398c-9.052 0-16.408 7.345-16.408 16.408 0 9.052 7.345 16.408 16.408 16.408s16.408-7.345 16.408-16.408S33.063 7.603 24 7.603M24 8c8.838 0 16 7.162 16 16s-7.162 16-16 16S8 32.838 8 24 15.162 8 24 8m4.156 22.25c-.473.676-.677 1.353-.806 1.986-.138 2.365-1.04 4.772-3.203 7.366H24q1.306 0 2.554-.208l.06-.06c.586-.587 1.278-1.451 1.22-2.201-.04-.465-.154-.876-.258-1.28l-.024-.093c-.174-.683-.3-1.358.035-2.257l.044-.116c.421-1.098.93-2.022 1.148-2.375-.226-.322-.484-.601-.623-.762m-1.815 4.853c-1.196 1.522-3.55 3.238-5.46 4.187q.842.172 1.716.25c1.896-1.438 2.964-2.74 3.744-4.437m2.695-3.661-.09.171c-.393.766-1.242 2.522-1.123 3.265.126.85 1.064 2.555.36 4.156q.766-.212 1.5-.5c.14-.8.182-1.948-.339-2.733l-.029-.043c-.859-1.224-.236-2.931-.128-3.672.032-.193-.033-.408-.15-.644m-5.133-4.586c-.403.207-.927.385-1.59.532l-.074.016c-1.38.297-1.747.976-1.985 1.71l-.034.11-.026.084-.073.248-.028.092c-.138.448-.306.887-.7 1.246-1.192 1.095-2.008 1.138-2.641 1.095.73.376 1.385.784 1.847 1.428-2.35-1.36-4.76-2.005-7.32-.384a15.66 15.66 0 0 0 7.294 5.599l.093.034.012-.003c5.78-1.246 7.733-4.18 8.34-6.083.273-.862.36-1.848 1-2.947l.041-.07c-1.385-.366-2.835-1.053-3.468-1.826l.063.73.017.211.016.214.004.072c.023.35.036.718.037 1.205v.212a52 52 0 0 1-.02 1.114l-.118-.751c-.194-1.208-.515-3.134-.687-3.888M24 8.397c-8.612 0-15.603 6.99-15.603 15.603 0 2.955.823 5.719 2.252 8.075.919-.464 2.334-.904 3.461-.687 1.342.268 4.07-.054 4.832-.999.315-.39.46-.742.582-1.081l.075-.211c.143-.404.299-.796.729-1.22 1.127-1.096 3.371-1.053 3.769-1.75l.042-.076c.36-.65.292-1.005.044-1.45l-.025.063c-.15.379-.545 1.19-1.092 1.312l-.172.037c-.14.03-.295.061-.453.093l-.53.103-.746.143c-.612.107-1.3.88-1.482 1.632-.225-1.01.451-2.148 2.073-2.223 1.605-.074 1.831-1.99 1.971-2.8l.005-.024c.128-.795 1.191-1.772 2.158-1.106l.09-.063c1.484-1.048 2.947-2.72 4.946-2.289-1.578.247-3.307 1.504-4.585 2.975v.036c.001.215.035 1.341.558 1.671l.026.015c.431.25 1.614.443 1.456 2.38-.343-1.708-1.342-1.88-1.653-2.051-.677-.376-.903-1.16-1.02-1.794-.151-.826-1.515-.773-1.343.516.172 1.288.43 1.868 1.267 2.008l-.04.035c-.194.163-.338.199-.69.169-.01.45-.172.816-.526 1.117.687 2.534 6.464 3.382 6.486 2.62l.003-.09c.035-.842.125-.968.093-1.124-.333-.118-.45-.086-.698-.343l.113-.003c.507-.017.78-.087.8-.298.043-.419-1.074.022-1.288-.601.236.075 1.245.075 1.363-.054s.194-.558.183-.644c-.008-.031-.1-.034-.223-.035h-.15c-.198-.002-.42-.018-.518-.116-.194-.193.15-.719.386-.848l-.011.061c-.052.27-.108.464.022.594.172.161.934 0 .934 0l.022-.193c.096.236.418.247.708.107.108-.051-.025-.802-.21-1.605l-.022-.091-.043-.183-.05-.202a20 20 0 0 0-.373-1.334l.091-.077c.281-.242.743-.674.8-.857.065-.204-.397-1.202-.375-1.535s.644-.161.644-.161l.031-.028c.158-.147.836-.874.12-1.916.912.344 1.062.945 1.041 1.374q.162-.079.331-.168l.061-.033c.489-.262.951-.566.875-.743-.773-1.794-6.282-1.268-9.89-.13-2.244.71-8.74 4.135-8.279 6.358.113.545 1.024.662 1.249.683l.05.004-.08.018c-.3.06-1.343.225-1.563-.362-.87-2.298 3.179-5.025 8.408-7.14 1.203-.484 4.081-1.053 6.583-1.107-.247-1.095-2.212-3.672-7.141-3.318 2.663-1.396 7.098.44 8.473 3.35l.107.01c1.517.128 2.701.537 2.953 1.408.419 1.503-3.49 2.62-3.49 2.62.515.913.193 1.192-.612 1.933.128.325.285.944.418 1.563l.036.17.028.137c.125.62.216 1.19.216 1.394-.01.44-1.203.398-1.203.398l-.236.988a.62.62 0 0 1-.29.87l.004.033c.03.287-.089.417-.058 1.244.033.741-1.18.827-2.598.537-.075.086-.15.161-.215.247l.06.073c.331.403.795 1.033 1.078 1.72.483 1.16-1.074 2.17.3 4.22.546.809.693 1.57.663 2.238a15.7 15.7 0 0 0 6.045-4.905c-1.259-.102-2.201.619-3.164 1.53.172-.742.58-.956.838-1.246-1.825.118-3.264-.59-4.123-1.697 3.479 2.01 5.392.656 7.062.524A15.5 15.5 0 0 0 39.603 24c0-8.612-6.98-15.603-15.603-15.603m-5.487 23.947c.78.527 1.91.566 3.062.586l.476.008c1.431.029 2.826.128 3.549 1.199-.161.118-.311.247-.472.365-.598-.94-1.786-1.066-3.028-1.134l-.617-.032c-1.168-.065-2.305-.188-2.97-.992m24.01-3.941.344 1.052h1.106l-.891.655.343 1.052-.902-.655-.89.655.343-1.052-.902-.655h1.106zM5.498 28.37l.344 1.053h1.106l-.892.655.333 1.052-.891-.655-.902.655.344-1.052-.892-.655h1.106zM6.325 25a.4.4 0 0 1 .247.214c.054.108.096.333.14.688l.118.998-3.319.398-.107-.86c-.032-.268-.043-.483-.01-.622a.6.6 0 0 1 .214-.376c.118-.107.322-.172.612-.204q.29-.035.419.043c.086.054.161.16.225.343.02-.192.07-.337.157-.416l.015-.013c.097-.086.258-.14.473-.161l.311-.043c.226-.032.397-.022.505.01m35.092-.076 3.265.849-.15 1.245-3.383.086.107-.88.602.032.043-.311-.591-.13zm-9.138-5.755c.521-1.967-2.336-1.47-4.602.831l-.069.07c-.634.667-1.825.956-3.511 1.375-.033.612-.43 1.665-1.214 2.341.19 1.047-.449 1.363-1.244 1.557l-.058.013q-.116.028-.235.052l-.18.037-.156.032c-.696.143-1.38.309-1.66.854.054-1.632 3.071-1.16 2.792-2.083a4 4 0 0 1-.322.107l-.19.05c-1.245.32-3.097.903-2.924 2.27-.483-.612-.236-1.192.387-1.654-.795-1.568.6-2.781 2.63-3.49.935-.322 1.805-.44 2.996-.623 2.384-.365 3.974-3.21 6.196-3.565 2.223-.354 2.739 1.6 1.364 1.826M4.252 26.05c-.107.01-.171.032-.214.054s-.065.053-.076.086v.014c0 .03.002.086.011.157l.741-.086c-.01-.032-.01-.064-.01-.085-.011-.086-.044-.14-.087-.15-.043-.022-.16-.011-.365.01m38.229-.043-.033.29c.387 0 .849.01 1.407.043l-.41-.106a17 17 0 0 0-.964-.227m-36.66-.172-.312.043-.053.009c-.109.019-.177.038-.205.066a.5.5 0 0 0-.021.247l.934-.118-.01-.051c-.019-.089-.04-.147-.076-.174-.043-.033-.129-.033-.258-.022m25.846-.955.02.069c.038.137.048.222.002.435-.247-.064-.376-.204-.376-.419l.076.06c.086.067.115.082.192.09.054-.074.043-.16.086-.235m-8.215-3.254-.365.096c.14 2.191-2.502 2.33-3.5 2.148l.195-.096c.726-.36 1.286-.71 1.04-1.332-1.536.752-1.558 1.793-1.364 2.362.453-.257 1.024-.455 1.619-.584l.077-.017c1.708-.344 2.32-1.89 2.298-2.577m-16.708.215-.076.89-.6-.01-.033.312.59.107-.075.902-3.296-.741.107-1.256zm38.013 1.17.022.87-3.34.118-.032-.87zm-22.54-1.074c-.118.032-.225.065-.343.097-.075.021-.161.054-.236.075.043.784-.376 1.278-.945 1.536l.203-.056.058-.017.087-.028c.848-.274 1.611-.766 1.176-1.607m9.847-.43c-.311.495-.515.484-.676.828-.14.279-.107.73-.333 1.095-.215-.483-.977-.494-1.417-.838.708-.064 1.374-.247 1.75-.816-.709-.419-1.353-.333-2.116.108l.02-.177.013-.124c-.075-.01-.14-.022-.215-.032.966-.537 1.858-.688 2.974-.043m-26.62 1.483.022-.301-.127.003q-.416.008-.956.008h-.324l.395.086.639.135.157.031.159.03zm23.335-4.886c-1.29.58-2.556 2.437-4.317 2.555l-.113.007c-1.268.085-4.285.552-5.514 2.291.934-2.276 3.093-2.394 5.616-2.824s2.416-1.986 4.328-2.03m15.473 1.267.172.902-.289.09q-1.135.358-1.966.576l.316-.037q.774-.091 1.391-.146l.623-.064.183.902-3.372.204-.247-1.3zm-11.94 1.76c-.258.377-.344-.804-1.708-.59.913-.45 1.976.215 1.707.59m-28.264-2.91 3.243.806-.182.741-1.59.075 1.472.365-.172.71-3.243-.806.172-.709 1.578-.107-1.46-.365zm21.92-1.148.008.01c-1.214-1.234-4.628-.225-5.638.344-.494.3-.816 2.234-.751 2.964-.408-.988-.42-1.965-.022-2.942-.627-.124-1.146-.582-1.594-1.261l-.013-.02c.258.214 1.466.715 2.113.65l.031-.003c.73-.086 1.278-.494 3.05-.859 1.684-.347 2.718.985 2.816 1.117m3.659 2.105c.816-1.031 2.727-1.16 2.105-.108-.527-.59-1.504-.097-2.105.108m14.003-1.944.279.827-3.168 1.084-.28-.827zm-37.818-2.2c.16.01.375.085.654.225l.29.107-.365.784-.526-.247a.9.9 0 0 0-.3-.107c-.04 0-.079.027-.102.072l-.006.014c-.032.064-.021.118.01.16a.9.9 0 0 0 .29.162l1.407.655.103.044q.139.061.198.063c.054 0 .097-.021.118-.085a.13.13 0 0 0-.01-.15c-.033-.044-.14-.097-.301-.173l-.376-.171.365-.784.118.053.117.058c.249.123.423.225.517.318.1.1.173.24.2.415l.004.036c.03.182-.006.383-.1.594l-.018.04a1.25 1.25 0 0 1-.398.515.67.67 0 0 1-.483.14c-.172-.022-.408-.097-.698-.236l-.88-.408c-.215-.097-.376-.183-.484-.247s-.182-.162-.257-.28a.86.86 0 0 1-.097-.418c0-.162.043-.323.129-.494.107-.237.247-.408.408-.516.161-.107.322-.16.472-.14m36.767-.29.376.794-2.427 1.128.226.483-.612.28-.591-1.268zM28.78 16.086c-1.805 1.267-2.825-1.278-4.672-2.717-1.138-.891-2.502-1.374-3.747-.956l-.478.162c-1.695.57-5.564 1.779-6.588.3l.11.014c1.781.219 3.152.121 6.698-1.152 3.608-1.3 6.078 4.821 8.677 4.349m-5.22-1.965c-1.739-1.396-5.873.45-6.614.751 1.246 1.17 3.962.258 5.315-.042 1.096-.237 3.2.268 3.437 1.299-.754-.85-2.841-1.174-3.833-.693l-.033.016c-1.61.827-5.337.978-6.132-.708-.633.14-1.771-.537-1.911-.88 1.192.504 3.135.192 4.07.031.923-.172 4.274-1.9 5.702.226M7.754 12.113l.035.018c.13.067.323.181.588.358l.483.311.077.051c.238.158.407.28.514.357a.73.73 0 0 1 .236.333c.054.129.064.28.043.43s-.086.31-.193.461c-.097.15-.215.269-.333.355a.8.8 0 0 1-.408.15.9.9 0 0 1-.408-.075l-.036-.018a7 7 0 0 1-.587-.358l-.483-.312-.078-.05c-.238-.158-.406-.28-.513-.358a.73.73 0 0 1-.236-.332c-.054-.13-.065-.28-.043-.43s.086-.311.193-.462c.097-.15.215-.268.333-.354a.8.8 0 0 1 .408-.15c.15-.011.28.021.408.075m32.848-.118c.14.01.28.053.408.14.12.079.22.185.32.328l.024.036c.107.15.161.301.193.451.033.15.022.29-.032.43a.8.8 0 0 1-.236.333c-.108.096-.3.225-.59.419l-.573.368-.083.053-.102.065-.287.175-.04.026a.8.8 0 0 1-.408.086.85.85 0 0 1-.408-.14 1.2 1.2 0 0 1-.32-.329l-.024-.036c-.107-.15-.161-.3-.193-.451a.73.73 0 0 1 .032-.43.8.8 0 0 1 .236-.343c.107-.097.3-.236.59-.419l.484-.311.078-.05c.227-.147.399-.246.515-.306l.019-.01a.7.7 0 0 1 .397-.085m-33.514.859c-.021.043-.032.075-.01.118.01.043.096.107.236.204l1.31.848c.16.108.268.161.311.172s.086-.01.118-.054c.033-.053.033-.096 0-.14s-.14-.117-.3-.225l-1.289-.837a.9.9 0 0 0-.268-.14.095.095 0 0 0-.108.054m33.697-.108c-.04 0-.12.039-.255.124l-1.334.864-.126.084a.8.8 0 0 0-.164.131q-.05.048 0 .129c.032.054.075.064.129.054.053-.011.171-.076.332-.183l1.289-.838.046-.03a.8.8 0 0 0 .18-.152q.048-.065 0-.129a.11.11 0 0 0-.097-.054m-2.502-3.812.601.623c.193.193.322.365.387.494a.64.64 0 0 1 .053.43c-.032.15-.15.332-.365.526-.14.14-.257.204-.354.214s-.225-.032-.376-.14c.101.163.145.305.123.429l-.005.023c-.021.129-.118.258-.279.419l-.225.214q-.242.243-.42.29a.4.4 0 0 1-.332-.021c-.099-.05-.252-.18-.468-.402l-.756-.78zm-27.469-.397c.14.075.312.225.527.45l.214.237-.633.59-.398-.429c-.118-.129-.193-.193-.236-.215s-.086-.01-.129.043c-.053.054-.064.097-.043.15s.086.14.204.258l1.064 1.139.039.042a1 1 0 0 0 .197.172c.053.022.096.011.15-.032.043-.043.065-.086.043-.14-.021-.053-.086-.139-.215-.279l-.29-.31.634-.592.086.097.06.066c.202.225.332.397.39.525a.72.72 0 0 1 .022.504 1 1 0 0 1-.312.509l-.031.028a1.4 1.4 0 0 1-.559.333.73.73 0 0 1-.504-.053c-.15-.086-.333-.247-.559-.484l-.728-.786a4 4 0 0 1-.292-.352.64.64 0 0 1-.129-.354.9.9 0 0 1 .065-.43c.064-.15.16-.279.3-.408.183-.172.376-.28.57-.322s.354-.022.493.043m26.75 2.309-.677.655c.086.086.161.129.204.129s.118-.043.215-.14l.225-.215c.108-.096.15-.172.15-.215.011-.053-.032-.118-.118-.214m.912-.88-.537.515.065.064c.064.064.107.086.16.075.044-.01.14-.086.28-.225l.038-.04a.6.6 0 0 0 .102-.132c.021-.043.021-.075 0-.108-.011-.043-.054-.085-.108-.15m-25.3-3.62.355.57-.494.31.333.538.462-.29.333.537-.462.29.387.622.536-.343.355.569-1.278.795-1.772-2.835zm21.703-.032 1.224.763-.354.569-.494-.312-.333.537.462.29-.333.537-.462-.29-.387.623.537.343-.354.57-1.278-.795zM16.215 4.768l1.364 3.06-.698.312-1.031-1.203.622 1.385-.665.3-1.364-3.06.666-.3 1.063 1.18-.612-1.374zm15.506-.043.59.268.124.056q.472.215.628.342a.8.8 0 0 1 .236.311.6.6 0 0 1 .011.333 2 2 0 0 1-.118.323l-.59 1.341-.032.074a2.5 2.5 0 0 1-.248.463.45.45 0 0 1-.236.161q-.13.033-.29 0c-.16-.033-.247-.075-.44-.16l-.999-.452zm.569.87-.891 2.008c.118.053.193.064.247.021.043-.032.118-.15.204-.354l.526-1.192.024-.053c.048-.109.074-.178.083-.216.01-.043 0-.086-.021-.107a.7.7 0 0 0-.172-.107M19.458 3.726l.172.644-.494.13.698 2.587-.838.226-.698-2.588-.494.129-.172-.645zm8.43-.129.848.194-.602 2.609.516.118-.15.655-1.364-.311zm-5.595-.247q.225.017.386.194c.102.112.175.302.21.56l.005.041c.032.258.021.44-.032.537s-.172.161-.365.204c.171.021.3.064.365.129a.6.6 0 0 1 .129.182l.005.017c.022.068.051.232.08.477l.108.88-.805.097-.14-1.106c-.02-.171-.05-.277-.08-.315l-.006-.007q-.048-.064-.225-.032l.182 1.503-.859.108-.408-3.34.612-.075.092-.012c.358-.043.607-.052.746-.042m2.459-.096 1.256.086.268 3.371-.89-.064v-.601l-.312-.022-.097.602-.902-.065zm.622.794-.133.659c-.06.307-.104.549-.124.727l.29.021-.006-.11a27 27 0 0 1-.027-1.297m-3.597-.107.086.74a.4.4 0 0 0 .204-.064c.032-.032.043-.118.032-.268l-.021-.183c-.01-.107-.043-.171-.086-.204s-.118-.032-.215-.021"/>
</svg>
