<svg>
  <path d="M5.961 15.258v12.58h7.121c0-.671-.024-1.326.017-1.973.016-.229.114-.507.27-.67 1.088-1.13 2.21-2.227 3.315-3.332.081-.082.171-.155.335-.303v9.43h9.454c-.516.531-.958.99-1.408 1.44-.753.769-1.506 1.538-2.284 2.291a.888.888 0 0 1-.524.221c-.679.025-1.358.009-2.079.009v7.071h12.548c-.107.14-.156.23-.23.295-1.129 1.146-2.258 2.292-3.396 3.43-.14.13-.368.245-.557.245-3.97.016-7.939.008-11.909.008-.122 0-.237-.016-.417-.025V39.31c-.003-.405-.035-.436-.452-.439H9.113v-.524c0-2.03-.009-4.068.008-6.097 0-.402-.123-.5-.508-.492-2.03.017-4.068.009-6.097.009-.14.008-.303.008-.508.008v-.491c0-3.913 0-7.825-.008-11.745 0-.279.065-.483.27-.68 1.146-1.113 2.275-2.234 3.413-3.356.066-.065.14-.122.278-.245Zm28.426 6.278v9.42c.221.009.393.025.557.025h8.463c.18.008.36.016.532.016-.107.082-.213.148-.303.238-2.423 2.43-4.854 4.87-7.26 7.309-.245.245-.483.343-.818.335-.884-.024-1.768-.008-2.718-.008v-3.92h-2.316c-.008-.18-.025-.311-.025-.45 0-2.906 0-5.812.009-8.71 0-.163.024-.376.13-.482 1.212-1.236 2.448-2.464 3.75-3.773Zm.008-17.377v.516c0 2.807.009 5.615-.008 8.43 0 .385.09.508.491.508 2.808-.017 5.615-.008 8.43-.008h.54c-.515.532-.949.982-1.399 1.44-.753.77-1.506 1.539-2.283 2.292-.131.123-.352.229-.524.229-2.93.016-5.86.008-8.799.008-.098-.008-.204-.024-.352-.04v-.46c0-2.88 0-5.753-.008-8.634 0-.278.074-.483.278-.68 1.097-1.08 2.186-2.177 3.274-3.265.09-.09.197-.18.36-.336Zm-17.384-.09c.008 2.988.008 5.975.016 8.963v.573c2.358-.007 4.687-.008 7.058-.008h2.388a341.4 341.4 0 0 1-1.523 1.555c-.712.728-1.424 1.456-2.16 2.168a.921.921 0 0 1-.565.238c-2.906.016-5.812.008-8.717.016-.352 0-.442-.114-.434-.45.025-.622.008-1.252.008-1.923H9.13c0-.868.033-1.678-.008-2.489-.033-.54.155-.9.532-1.276 2.382-2.341 4.747-4.707 7.112-7.064.068-.067.126-.144.186-.223l.06-.08ZM20.047 1l.082.057v3.004c-.693.006-1.386.007-2.076.008h-1.034a314.51 314.51 0 0 0 2.35-2.324c.236-.238.457-.491.678-.745Zm23.9 30.005V27.88H47c-.106.123-.188.22-.27.303-.843.835-1.694 1.661-2.53 2.496-.106.098-.18.213-.253.327-.008-.008 0 0 0 0Z"/>
</svg>
