---
version: "3.1.7"
---
<svg>
  <path d="m24.358 47.588.177-.003a26 26 0 0 0 2.226-.114l.117-.012a23.55 23.55 0 0 0 12.277-5.188c3.446-2.804 5.968-6.326 7.446-10.402.642-1.766 1.09-3.79 1.295-5.83l.01-.095c.05-.5.08-1.158.09-1.842l.002-.176v-.104c.008-.948-.021-1.908-.087-2.525-.51-4.766-2.391-9.234-5.38-12.772-1.11-1.316-2.088-2.261-3.48-3.37C35.395 2.236 30.824.459 25.949.045L25.91.043c-.662-.047-3.291-.061-3.739-.014l-.042.003-.23.02-.543.054c-1.076.097-2.652.39-3.832.706-5.625 1.527-10.289 4.903-13.533 9.8a23.3 23.3 0 0 0-1.94 3.51C.244 18.27-.376 22.608.217 26.896c.95 6.86 4.696 12.86 10.402 16.67a24 24 0 0 0 9.333 3.712l.118.02c1.532.252 2.527.32 4.287.291m-3.036-1.045C14.36 45.74 8.245 41.902 4.446 35.956c-.574-.907-1.44-2.614-1.864-3.693l-.016-.041C.94 28.08.527 23.966 1.305 19.662c.386-2.159 1.25-4.664 2.26-6.572 2.593-4.886 6.713-8.604 11.73-10.588 2.185-.87 4.766-1.445 7.12-1.603l.056-.003a26 26 0 0 1 1.226-.024h.355l.159.002c.6.004 1.175.019 1.47.041 6.767.533 12.833 3.783 16.768 9.001 2.566 3.395 4.03 7.068 4.523 11.37l.015.13c.064.554.097 1.486.098 2.388v.11a22 22 0 0 1-.07 1.922c-.506 5.005-2.468 9.511-5.751 13.19a23.06 23.06 0 0 1-14.637 7.545c-1.506.168-3.701.157-5.305-.028m3.115-38.078c.418-.201.706-.728.76-1.408.06-.734-.32-1.456-1.016-1.924l-.028-.019c-.162-.104-.216-.082-.5.144-.586.473-.836.891-.874 1.5-.082 1.261.772 2.136 1.658 1.707m-1.071-1.962c.06-.212.505-.75.625-.75.037 0 .176.117.304.259l.011.012c.136.153.277.365.315.473.136.413-.076 1.267-.364 1.457-.549.359-1.13-.587-.891-1.451m5.3 11.81c1-.467 1.396-1.57.836-2.342l-.02-.026c-.199-.264-.396-.377-.99-.578a3.3 3.3 0 0 1-.702-.313l-.01-.007c-.196-.136-.446-.43-.446-.511 0-.016.22-.031.496-.033h.036c1.152 0 2.022-.44 2.403-1.212.168-.342.228-.788.135-1.065l-.005-.02c-.022-.085.01-.093.316-.094h.054c1.195-.006 2.391-.642 2.848-1.522.337-.652.14-1.337-.462-1.647l-.06-.028c-.223-.106-.325-.118-.88-.119h-.75l-.186-.206a1.8 1.8 0 0 0-.45-.337l-.036-.019-.034-.017-.02-.009-.02-.009-.02-.008-.048-.017-.015-.005c-.174-.051-.428-.06-1.183-.08l-1.114-.026-.033-.25c-.049-.326-.174-.517-.45-.663l-.035-.018c-.17-.085-.3-.101-.84-.102h-.185c-.528.002-.607.019-.783.125l-.027.017c-.234.152-.293.281-.34.667l-.003.023q-.09.846-1.125 1.179c-.734.24-1.745-.098-2.054-.69-.044-.082-.098-.31-.125-.511l-.007-.043c-.062-.356-.173-.523-.46-.675-.224-.114-1.213-.146-1.566-.043-.402.114-.625.375-.658.783l-.022.2-1.048.028-.248.007c-.734.024-.859.047-1.095.15a1.7 1.7 0 0 0-.457.327l-.173.195-.789.027-.205.009c-.53.023-.638.047-.833.154-.357.203-.552.51-.585.933l-.002.024c-.02.302-.006.387.135.672l.012.024c.273.562.841 1.023 1.595 1.312l.036.014c.271.103.505.141.983.158l.625.032v.44l.001.05c.007.323.03.439.138.647l.008.015c.196.38.55.707.995.93.448.218.791.29 1.41.293h.076c.29.002.443.024.443.06 0 .033-.07.152-.163.261-.18.234-.663.505-1.06.598-1.027.25-1.462 1.125-1.01 2.043.197.395.436.627.876.836l.026.012c.463.219.828.25 1.226.112l.024-.008a8 8 0 0 1 .799-.223c1.103-.234 1.609-.734 1.663-1.625l.022-.408h1.875l.032.419c.066.934.587 1.424 1.75 1.652a5 5 0 0 1 .66.173l.047.017c.413.147.772.114 1.25-.109m-5.724-7.457c-.378-.186-.6-.419-.685-.74l-.02-.077c-.041-.154-.073-.181-.288-.236l-.09-.024c-.631-.164-.832-.37-.872-.877l-.007-.09c-.028-.332-.079-.385-.353-.456-.3-.081-.414-.19-.414-.407v-.02c.007-.259.144-.323.73-.328h.203c.398.003.482.023.557.103.049.054.103.228.125.391.043.392.168.625.494.93.778.728 1.892.842 2.908.299.569-.3.952-.86.962-1.408v-.022c0-.244.109-.291.727-.293h.045c.641 0 .804.065.804.32 0 .218-.12.343-.413.44l-.266.082-.038.337c-.064.574-.256.81-.778.967l-.117.034c-.331.098-.368.135-.41.336l-.005.022c-.08.419-.607.795-1.306.935l-.026.005c-.445.093-1 .006-1.467-.223m-.435 4.571c-.628-.22-1.14-.684-1.152-1.041v-.035c-.007-.316-.166-.388-.84-.391h-.117c-.921-.008-1.413-.157-1.848-.555-.446-.408-.605-1.018-.33-1.274l.01-.008c.168-.147.174-.359.016-.468l-.01-.007c-.096-.06-.279-.08-.74-.08-1.124 0-1.705-.191-2.296-.764l-.02-.018c-.494-.484-.576-.86-.271-1.212l.13-.153.892-.027c.483-.016.924-.054.972-.081.05-.033.164-.142.261-.25l.035-.04c.268-.309.41-.334 1.534-.335h.154c1.27.001 1.433.043 1.53.42l.008.036c.13.555.468.924 1.071 1.152l.032.013c.171.07.234.134.31.314.077.163.207.304.435.478a2.97 2.97 0 0 0 2.666.412l.03-.01c.582-.19 1.185-.658 1.25-.973.026-.107.085-.161.254-.226l.034-.013c.583-.214.924-.565 1.044-1.068l.017-.075c.053-.217.091-.264.233-.324l.025-.011a.5.5 0 0 0 .176-.109c.016-.026.509-.047 1.117-.044l.396.003c.6.006.821.02.947.066l.01.004.041.02c.092.049.266.201.397.337l.063.066.027.03.013.011.017.017c.16.15.271.144.983.126h.052c.825-.01 1.138.156 1.138.609 0 .462-.483 1.01-1.168 1.326-.454.208-.898.29-1.656.293h-.152c-.391.003-.472.024-.556.109-.15.149-.137.251.042.424l.033.03c.123.118.142.184.142.41 0 .348-.136.625-.435.897-.419.377-.916.515-1.886.522h-.211c-.435.002-.516.02-.61.108a.4.4 0 0 0-.119.268v.015c0 .24-.228.598-.484.766-.837.555-2.533.696-3.636.31m3.326-2.038c.125-.092.38-.212.577-.26.793-.22 1.508-.737 1.83-1.315l.17-.31.554-.186.056-.018c.574-.19.822-.378.928-.7.141-.434-.082-.988-.478-1.179-.25-.125-.827-.173-.99-.087-.16.085-.204.3-.094.432l.007.009c.075.085.164.107.426.108h.06c.265.003.335.027.438.136.153.147.174.337.066.49-.044.054-.365.195-.745.32l-.06.02c-.344.12-.631.243-.652.284l-.007.015a5 5 0 0 0-.102.257c-.174.473-.87.984-1.609 1.19a2.4 2.4 0 0 0-.706.327c-.837.603-2.098.603-3 0a3 3 0 0 0-.674-.316c-.566-.163-.968-.385-1.326-.744-.245-.24-.343-.38-.37-.527-.022-.11-.065-.218-.103-.245l-.005-.003a5 5 0 0 0-.579-.22l-.096-.032c-.337-.115-.663-.25-.717-.305-.141-.141-.13-.353.032-.51l.015-.015c.1-.102.172-.12.45-.121h.04c.392 0 .555-.088.555-.289s-.195-.31-.554-.31l-.043.002c-.183.009-.4.04-.506.075-.266.097-.391.212-.527.489-.245.505-.06 1.043.44 1.293.163.082.457.19.658.245l.1.026c.237.064.277.094.372.283l.013.025.02.041c.174.353.685.837 1.103 1.049.161.08.447.193.665.265l.094.03c.211.071.437.17.513.232.359.294 1.05.527 1.718.598.657.06 1.554-.18 2.043-.549m8.762 6.19c-.07-.184-.098-.396-.065-.483l.003-.01c.027-.065.066-.055.258.059.298.174.64.239.64.13 0-.04-.043-.116-.103-.175l-.01-.01c-.12-.108-.267-.358-.267-.45 0-.026.05-.067.114-.09l.011-.003a.94.94 0 0 0 .518-.438l.01-.019c.136-.26.712-.89.76-.831a1 1 0 0 1 .104.244c.038.115.18.332.32.484.283.315 1.055.854 1.088.756.021-.066-.014-.477-.068-.89l-.01-.071a7 7 0 0 0-.12-.697l-.021-.084c-.106-.404-.12-.385.876.111l.284.138.132.063c.279.133.544.253.69.31l.014.005c.391.153.788.234.788.164 0-.022-.19-.24-.424-.484q-.152-.16-.315-.337l-.116-.126-.046-.051-.093-.103-.046-.052-.127-.143c-.507-.574-.939-1.101-.898-1.112.034-.015.2.045.386.128l.065.03c.51.233.935.271 1.114.103l.02-.02c.094-.092.095-.117.029-.214-.044-.065-.25-.19-.468-.277a2.4 2.4 0 0 1-.668-.408l-.277-.25-1.185-.054-.196-.234-.025-.03c-.227-.27-.388-.345-.841-.412l-.187-.028c-.18-.027-.36-.056-.447-.068-.157-.021-.243-.002-.356.078l-.038.027c-.108.076-.16.082-.236.042-.158-.082-.528-.066-.604.027-.038.043-.054.168-.043.277l.004.041c.014.147-.014.172-.254.312l-.043.024a1.4 1.4 0 0 1-.283.134c-.028 0-.033-.076-.011-.168.065-.348-.05-.566-.506-.946l-.034-.03c-.213-.186-.435-.415-.504-.532l-.059-.104c-.07-.124-.083-.13-.119-.096l-.012.012c-.022.016-.038.136-.038.266 0 .18.036.277.197.477l.041.05c.111.135.252.294.327.359l.142.136-.169.054q-.406.14-.397.663l.001.063c.002.21-.016.239-.12.263-.218.055-.946-.13-1.419-.353l-.05-.024c-.415-.195-.528-.185-.385.037l.006.009c.19.293.68.56 1.244.685l.31.065v.206c0 .3.19.5.479.517.173.005.298.065.527.234l.1.075c.332.249.369.241.352.024l-.017-.225.271.022c.152.017.527.022.837.017l.56-.006-.027.223-.004.027c-.03.182-.102.274-.496.647l-.085.082c-.512.486-.609.5-.877.211l-.073-.075a1 1 0 0 0-.155-.147c-.01 0-.069.12-.13.27l-.012.028c-.152.37-.125.615.098.892.082.109.196.315.256.467.097.261.31.517.532.636l.024.012c.07.035.076.024.047-.055m-21.068.033.04-.021a1.08 1.08 0 0 0 .505-.628l.005-.02c.033-.124.136-.32.223-.434.219-.272.249-.533.106-.877l-.02-.049c-.061-.144-.12-.253-.135-.253-.01 0-.092.087-.185.19l-.023.025c-.232.258-.324.255-.64.007l-.04-.032c-.584-.461-.902-.907-.77-1.093.022-.027.294-.049.61-.049h.069c.297-.002.614-.018.735-.043l.228-.038v.243c.002.107.017.192.032.192.017 0 .174-.109.348-.245l.034-.025c.174-.128.346-.22.423-.22a.565.565 0 0 0 .576-.57v-.036c.002-.126.03-.144.204-.174l.013-.002c.522-.082 1.142-.413 1.337-.712.16-.244.029-.26-.406-.044l-.034.017c-.45.23-1.157.413-1.397.361l-.025-.006c-.1-.027-.11-.068-.105-.323.005-.353-.125-.57-.397-.663l-.18-.06.273-.255c.315-.299.445-.538.445-.81v-.026q-.009-.37-.224-.02l-.015.024c-.074.127-.296.366-.503.54l-.115.095c-.358.297-.38.358-.425.73l-.005.03c-.021.154-.05.274-.066.269-.016 0-.141-.071-.277-.153l-.055-.034c-.163-.106-.187-.146-.175-.281l.001-.01c.028-.245-.114-.387-.38-.387a.8.8 0 0 0-.31.06c-.081.055-.12.044-.217-.054l-.028-.027c-.1-.095-.162-.1-.694-.022l-.251.038c-.502.075-.742.186-.91.437l-.025.038a5 5 0 0 1-.13.188l-.38.028-.235.016-.603.038-.245.222c-.271.25-.538.403-.902.511-.299.087-.397.267-.244.435.155.171.684.127 1.115-.093l.074-.038q.41-.21.409-.119c0 .048-1.166 1.399-1.628 1.892l-.119.125c-.18.193-.319.35-.319.37 0 .162.93-.17 1.99-.707l.16-.082c.363-.183.652-.32.671-.32.027 0 0 .157-.049.347a7.6 7.6 0 0 0-.217 1.544v.233l.277-.152c.549-.304 1.016-.804 1.19-1.288l.06-.157.217.212c.12.114.332.38.468.581.18.27.302.395.474.482l.015.007c.207.104.234.136.207.25a1.3 1.3 0 0 1-.196.337l-.018.024a1 1 0 0 0-.14.215c0 .07.389-.029.63-.156l.051-.028c.162-.089.202-.093.227-.028.033.087 0 .321-.065.479l-.009.018c-.03.066-.016.069.089.014m-.58-4.13c-.359 0-.533-.419-.278-.69.155-.166.382-.164.55 0l.01.01c.267.261.093.68-.282.68m22.132 0c-.37 0-.533-.37-.294-.674.136-.174.359-.185.56-.028.299.234.125.702-.266.702M19.463 17.77c-.553-.285-.82-.948-.563-1.388l.02-.032c.112-.186.207-.242.712-.407l.098-.032c.543-.174.837-.342 1.087-.62l.174-.184.277.25c.152.135.484.347.74.472l.461.223.016.272c.028.402-.027.603-.222.826-.209.235-.48.365-1.052.493l-.083.02a8 8 0 0 0-.703.2c-.331.124-.587.097-.962-.093m8.072.095-.032-.016a4 4 0 0 0-.664-.182l-.057-.012c-.917-.194-1.21-.447-1.275-1.06l-.003-.038c-.037-.428.02-.52.39-.668.373-.155.857-.477.982-.653l.025-.037c.094-.135.126-.119.259.065.16.208.571.448 1.095.621l.077.025c.709.236.85.386.85.854 0 .446-.294.843-.789 1.06-.313.138-.626.152-.858.041M22.708 41.81l.32-.293.398.141.127.043c.489.163.517.15.965-.01l.451-.158.326.267c.826.674 1.723.858 2.593.532.336-.122.824-.528 1.037-.857l.137-.213.473-.028c.842-.054 1.45-.45 1.81-1.185l.022-.046c.103-.219.124-.339.124-.716v-.078c-.002-.372-.027-.497-.14-.741a1.88 1.88 0 0 0-.903-.93l-.046-.022c-.285-.137-.39-.153-.943-.173l-.63-.022-.262-.245c-.304-.282-.782-.516-1.326-.657l-.386-.098.348-.18c.818-.424 1.423-1.366 1.878-2.946l.014-.048a6 6 0 0 1 .32-.843c.223-.418.75-.945 1.359-1.353l.045-.031c.238-.167.41-.313.39-.333-.07-.064-.639-.155-.978-.158h-.321l.288-.587c.418-.831.57-1.473.57-2.375l.001-.123c.001-.514-.026-.678-.142-1.062-.174-.576-.32-.88-.641-1.315a5 5 0 0 0-.285-.345l-.05-.057-.073-.08-.07-.074c-.23-.243-.45-.45-.495-.45-.026 0-.047.102-.049.226v.014a.56.56 0 0 1-.141.407c-.158.19-.267.207-.435.07l-.017-.013c-.232-.199-.268-.488-.171-1.273l.003-.028c.065-.484 0-1.087-.163-1.587-.196-.582-.516-1.06-1.109-1.647l-.549-.544-.032.3c-.027.211-.076.325-.163.396l-.023.018c-.182.139-.26.066-.414-.385l-.065-.19c-.165-.484-.216-.558-.68-1.049l-.106-.112c-.288-.304-.61-.684-.712-.842l-.059-.09a2 2 0 0 0-.132-.193l-.141.201-.01.014-.01.015-.013.017-.017.022c-.1.127-.297.352-.511.583l-.067.071-.068.072c-.587.625-.75.88-.907 1.424l-.012.042c-.09.31-.205.474-.32.474-.125 0-.239-.233-.239-.505v-.261l-.25.18c-.336.24-.914.863-1.14 1.235l-.012.02c-.434.722-.593 1.524-.479 2.446l.013.102c.076.608.043.905-.124 1.08l-.008.008c-.07.076-.141.092-.245.07-.212-.054-.315-.206-.358-.521l-.033-.283-.397.348c-.918.799-1.386 1.734-1.456 2.93-.055.896.163 1.847.625 2.744l.055.106c.083.162.148.294.157.307.005.017-.147.05-.348.071l-.104.012-.041.005c-.396.05-.747.124-.747.168.006.022.196.168.435.326.538.359 1.142.956 1.359 1.332l.009.017c.088.17.276.66.436 1.137l.017.052.025.077c.183.558.373 1.023.53 1.304.31.538.869 1.125 1.255 1.31l.272.13-.473.12c-.598.152-.979.342-1.326.663l-.267.255-.424-.016c-.909-.043-1.567.334-1.94 1.106l-.01.024c-.118.245-.141.37-.142.762v.079c.002.372.027.497.147.74.347.751 1.06 1.191 1.945 1.191l.06.001c.212.005.247.02.374.202l.055.08c.789 1.163 2.49 1.293 3.582.282m-8.571-11.707c.255-.005.63-.19.707-.353.081-.18.114-.174.222.06l.013.025c.067.135.1.157.156.11.136-.114.25-.423.25-.684v-.036c-.004-.18-.035-.254-.152-.372-.139-.138-.526-.266-.813-.271h-.019c-.087 0-.098-.028-.07-.131.048-.212-.082-.522-.343-.805l-.245-.255.223-.337.028-.042c.142-.217.192-.345.195-.493v-.014c0-.185.044-.26.305-.549.672-.747.924-1.724.703-2.75l-.053-.234c-.076-.352-.05-.337.165-.375.299-.054.734-.277.994-.51l.048-.043c.197-.176.23-.176.23-.045 0 .153.2.375.38.413.207.044.495-.092.614-.293l.014-.024c.115-.208.093-.253-.1-.253-.19 0-.365-.142-.44-.354-.021-.05-.023-.21-.005-.362l.009-.074c.027-.208.073-.296.225-.451l.015-.015q.348-.352.727-.26l.055.014c.086.022.154.033.163.023.059-.063-.06-.388-.192-.524l-.009-.008c-.272-.272-.674-.277-1.054-.022l-.023.015c-.1.068-.19.109-.205.094-.071-.071.114-.473.271-.593l.169-.136-.169-.087c-.239-.122-.592-.114-.816.028l-.015.01c-.408.272-.413.555-.022 1.153l.039.059c.23.354.243.467.124.75-.196.468-.799.897-1.359.979l-.045.005c-.17.019-.194-.01-.39-.26-.364-.463-.793-.75-1.63-1.077l-.058-.022c-.534-.21-.759-.332-.953-.505-.32-.288-.604-.828-.696-1.336l-.07-.409-.278.218a7 7 0 0 1-.81.489l-.532.272.005-.56c0-.31.033-.761.071-1.011l.006-.05c.028-.216.041-.387.028-.39h-.001c-.017 0-.36.163-.767.358l-.739.36-.087.38-.012.051c-.138.552-.312.781-.781 1.035l-.022.012c-.495.266-.69.434-.69.608 0 .158.168.201.625.169.654-.054 1.293-.457 1.597-1.006l.19-.353.088.32c.144.512.44 1.035.927 1.639l.263.324-.24.038a2.1 2.1 0 0 0-.545.186l-.34.172-.554-.14c-.685-.18-1.153-.186-1.479-.023-.299.147-.62.452-.755.712l-.103.207h1.277l.397.24.043.025c.645.378.935.356 1.495-.124l.09-.077c.396-.34.665-.48 1.058-.554l.026-.005c.31-.054.337-.049.75.136.483.223 1.233.707 1.445.94.386.408.55.8.55 1.283-.011.745-.452 1.234-1.115 1.234-.288 0-.636-.087-.636-.152 0-.022.066-.136.136-.256.076-.12.136-.26.136-.31 0-.233-.516-.342-.891-.184-.223.092-.49.407-.571.68-.185.624.12 1.309.717 1.619l.032.016c.219.111.339.136.702.141l.451.006.229.348c.179.277.293.38.538.516.174.087.353.212.396.272.104.136.104.402 0 .549l-.01.015c-.058.085-.054.103.052.128l.04.009c.087.016.234.12.326.223a.61.61 0 0 1 .082.728l-.087.163zm19.762 0h.023c.169-.003.18-.039.07-.185a.64.64 0 0 1-.082-.315c0-.25.25-.56.495-.614l.042-.01c.104-.024.107-.04.05-.108l-.01-.012c-.118-.128-.115-.495.002-.607l.008-.008a2.7 2.7 0 0 1 .38-.233c.294-.158.484-.365.642-.696l.092-.196.343.033c.429.038.728-.044 1.065-.288.696-.5.76-1.544.136-2.055-.25-.2-.718-.26-.935-.12-.157.105-.168.185-.043.436l.044.089c.11.22.096.251-.057.31l-.01.003c-.287.108-.445.12-.733.06-.755-.164-1.098-1.098-.701-1.924.266-.55.826-1.022 1.772-1.479l.522-.25.31.07c.423.093.733.262 1.146.62l.034.03c.184.152.402.299.499.335.288.092.62.016 1.005-.24l.343-.228 1.391-.054-.158-.245c-.445-.706-1.255-.962-2.076-.663l-.093.034c-.406.146-.516.146-.77.019l-.028-.015a3 3 0 0 0-.576-.2l-.315-.066.266-.315c.473-.571.918-1.446.918-1.81 0-.206.067-.166.24.143l.016.03c.228.42.456.626.908.838.467.217 1.152.288 1.282.136.152-.185.011-.354-.543-.658-.604-.326-.756-.522-.913-1.158l-.098-.402-.701-.326-.216-.096a18 18 0 0 1-.545-.252q-.058-.026.005.478.018.135.032.275l.004.043c.052.562.05 1.139-.014 1.139-.036 0-.17-.058-.341-.143l-.053-.026q-.121-.06-.25-.13l-.094-.05-.05-.028a10 10 0 0 1-.267-.153l-.034-.02-.044-.027-.117-.075-.057-.039c-.152-.102-.279-.174-.29-.168h-.001c-.01.006-.049.174-.082.37-.112.603-.392 1.102-.783 1.397l-.021.016c-.114.087-.462.255-.766.375-1.016.403-1.473.7-1.799 1.163l-.056.082c-.127.18-.15.181-.347.152-.527-.087-.994-.392-1.233-.81-.218-.38-.207-.549.06-1.011l.023-.043c.324-.58.31-.886-.045-1.104-.207-.13-.511-.141-.783-.027l-.19.082.195.217c.11.12.196.266.196.32 0 .06.016.147.033.196q.038.084-.175-.06l-.037-.027c-.554-.393-1.162-.205-1.269.39l-.009.054c-.026.16-.014.167.087.11.185-.097.522-.07.718.06l.032.023c.278.201.36.361.365.744l.001.057c.007.261-.014.326-.12.437a.4.4 0 0 1-.316.142c-.208 0-.233.094-.074.319l.009.012c.157.223.467.305.69.19a.4.4 0 0 0 .206-.239l.01-.034c.052-.204.073-.195.3-.01.315.25.75.463 1.05.506l.043.007c.158.024.193.048.168.113-.228.581-.244 1.636-.038 2.207.128.351.491.917.751 1.175l.039.038c.12.12.145.19.145.395 0 .207.033.305.18.495l.062.084c.074.1.139.19.16.22.026.041-.036.15-.17.304l-.025.028c-.25.277-.403.641-.343.82.026.09.012.108-.113.11h-.012c-.272 0-.69.15-.813.3l-.008.01c-.206.255-.12.896.142 1.043l.011.005c.068.03.102-.004.184-.18l.098-.228.087.185c.103.207.424.38.712.386m-11.622 5.211-.027-.036a5 5 0 0 1-.286-.424l-.006-.011c-.035-.066-.122-.388-.203-.741l-.02-.086c-.279-1.235-.633-1.977-1.234-2.582l-.021-.021c-.437-.437-.821-.675-1.307-.802l-.03-.008c-.212-.054-.419-.125-.462-.163-.136-.114-.625-1.109-.772-1.57-.344-1.107-.284-2.166.169-3.083l.016-.032c.13-.26.587-.87.652-.87.022 0 .082.055.141.115.246.278.74.345 1.045.15l.015-.01c.289-.186.399-.463.397-.989v-.082a18 18 0 0 0-.044-.95c-.054-.647.022-1.033.327-1.641l.012-.025c.2-.378.71-1.01.716-.872 0 .103.331.282.533.282.239 0 .521-.125.63-.277.046-.067.136-.298.21-.525l.027-.082c.074-.227.168-.463.22-.545.053-.078.223-.271.408-.47l.06-.066.07-.073c.22-.232.427-.437.455-.44h.001c.022 0 .283.266.582.592l.118.125c.423.448.447.51.577.935l.025.078c.076.233.16.45.198.51.185.287.772.315 1.044.054l.147-.142.163.18c.527.56.886 1.44.891 2.152v.033c-.003.174-.03.5-.06.75l-.008.06c-.04.33-.038.501.008.717.18.783 1.055 1.12 1.506.581l.12-.135.228.288c.282.353.57.95.679 1.418.103.44.103 1.288 0 1.772a6.5 6.5 0 0 1-.64 1.688l-.067.118c-.186.325-.23.366-.396.394l-.038.007c-.575.091-1.478.691-1.924 1.272l-.017.021c-.413.553-.604 1.02-.823 2.037l-.023.109c-.139.633-.265.961-.469 1.237l-.027.036c-.175.228-.229.194-.114-.074l.005-.013c.18-.408.375-1.375.413-2.011.033-.663-.038-1.375-.196-1.842l-.097-.305.478.038c.576.038 1.038-.043 1.462-.255a2.74 2.74 0 0 0 1.32-1.544c.142-.435.147-1.24.022-1.663a2.76 2.76 0 0 0-1.434-1.674l-.062-.028c-.335-.154-.44-.174-.917-.19l-.554-.021.185-.267c.549-.798.608-1.88.152-2.815-.283-.587-1.022-1.174-1.75-1.386-.84-.247-1.966.054-2.611.687l-.02.02c-.565.565-.799 1.147-.799 1.984 0 .592.136 1.054.43 1.478l.217.31h-.424c-1.038 0-1.875.532-2.359 1.51l-.03.064c-.168.348-.192.435-.211.892l-.007.17c-.016.428.004.59.09.88a2.71 2.71 0 0 0 1.55 1.69l.042.018c.273.11.394.124.98.13h.684l-.07.162c-.134.326-.241 1.068-.245 1.734v.033c-.005.793.098 1.337.359 2.01l.032.08c.086.216.146.39.136.4-.008.008-.068-.062-.143-.16m.937-9.342c-.973-.375-1.528-1.217-1.468-2.223.044-.614.207-.994.609-1.39.745-.735 1.674-.92 2.544-.506.505.239.896.625 1.141 1.114l.04.084c.13.272.139.363.134.829 0 .63-.098.946-.435 1.386-.614.804-1.609 1.076-2.565.706m1.424-3.326c.108-.152.108-.315.01-.451l-.012-.017c-.06-.08-.082-.065-.27.088-.277.228-.451.223-.728-.022l-.212-.196-.093.196c-.076.158-.081.217-.032.331.2.435 1.054.479 1.337.071M14.17 38.847c.054-.136-.288-.652-.669-1.016l-.035-.035c-.236-.234-.39-.427-.416-.536a.7.7 0 0 1-.038-.19.8.8 0 0 1 .206.07c.365.153.669.196.962.131l.056-.013a.8.8 0 0 0 .216-.068c0-.017-.07-.12-.157-.229a2.5 2.5 0 0 1-.278-.527L14 36.39c-.25-.632-.507-.819-1.08-.814h-.07c-.349 0-.367-.046-.168-.396l.031-.055c.174-.304.598-.712.794-.76a.4.4 0 0 1 .23.03l.014.007c.169.087.641.212.815.212h.025c.112.003.115.025.095.234-.038.31.092.565.337.669.25.103.484.043.723-.18l.2-.19-.162-.065c-.256-.109-.315-.218-.288-.522.032-.332.223-.598.549-.756.315-.152.538-.146.733.022l.022.017c.084.068.16.12.174.12.065 0 .196-.37.196-.555 0-.555-.56-.777-1.272-.5l-.018.007c-.072.028-.069.01.001-.127l.006-.01c.103-.207.337-.392.533-.43l.022-.005c.153-.032.162-.076.038-.185-.419-.37-.962-.332-1.213.081-.127.207-.14.564-.03.793l.009.017c.18.342-.12.859-.495.859-.418 0-.852-.344-.921-.729l-.003-.016c-.12-.76-.402-1.348-.82-1.69-.419-.348-1.435-.772-1.843-.772-.058 0-.243-.066-.418-.15l-.017-.008c-.579-.273-.994-.853-1.125-1.584l-.005-.03c-.11-.62.103-1.402.538-2.016l.18-.25-.115-.223c-.141-.272-.19-.886-.103-1.212.146-.538.685-.984 1.244-1.033.403-.038.669.05.86.272l.018.022c.108.131.121.198.1.434l-.006.07c-.018.209-.003.21.114.182l.007-.002c.25-.06.337-.13.445-.358.479-1.066-.842-2.136-1.95-1.582a1.1 1.1 0 0 0-.577.713l-.005.02c-.033.131-.066.148-.375.175-.587.054-1.076.293-1.294.625-.13.196-.125.505.011.674l.103.136-.136.076c-.45.239-.95 1.353-1.043 2.32-.114 1.202.206 2.202.973 3.023.636.679 1.357 1.095 2.225 1.28l.041.008c.772.157 1.196.424 1.43.896l.012.028c.087.194.1.304.08.663-.027.441-.12.71-.349.982l-.015.018c-.174.206-.261.163-.272-.147-.005-.272-.076-.478-.19-.554-.033-.022-.169-.044-.31-.044-.685 0-1.364.74-1.125 1.24l.01.02c.096.176.2.18.436.017l.035-.022a.7.7 0 0 1 .193-.103c.005.011-.01.202-.038.424-.098.685.01 1.136.359 1.484l.02.02c.179.17.224.158.224-.047 0-.092.055-.283.12-.419l.025-.05c.086-.169.104-.175.149-.085.03.051.194.23.363.401l.028.028.053.052c.229.23.298.338.344.546.087.364.31.668.62.864.105.066.278.14.457.206l.062.022.05.016c.273.092.53.152.545.11m20.73-.304c.336-.19.624-.57.673-.908.033-.18.098-.282.348-.522.174-.163.353-.37.397-.456l.076-.158.098.142c.108.163.206.565.163.641-.076.114.07.038.234-.13.353-.365.467-.86.37-1.577l-.044-.32.255.146.068.04c.179.106.193.097.29.01.15-.134.127-.566-.044-.813l-.01-.014c-.331-.473-1.233-.68-1.424-.331-.031.057-.057.231-.06.39v.048c-.002.15-.022.28-.043.29-.064.037-.375-.335-.489-.59l-.005-.013c-.136-.305-.185-.805-.11-1.098.082-.294.387-.63.724-.805.141-.07.5-.179.788-.239 1.576-.315 2.891-1.565 3.201-3.043.245-1.147-.13-2.69-.82-3.408l-.085-.088c-.182-.192-.176-.21-.095-.315.125-.146.125-.45.006-.657-.196-.326-.908-.642-1.463-.642h-.039c-.175-.002-.191-.021-.221-.173-.136-.669-.984-1.044-1.745-.772-.533.19-.864.647-.864 1.19 0 .408.125.658.375.766l.04.017c.255.101.3.083.25-.115l-.008-.032c-.12-.451.267-.826.848-.826.37 0 .886.244 1.125.532.354.43.43 1.229.169 1.74l-.12.228.136.18c.484.646.712 1.554.554 2.228-.111.49-.26.76-.583 1.078l-.02.02c-.315.31-.581.43-1.359.62-1.27.3-1.99.99-2.21 2.112l-.007.034c-.113.6-.352.884-.791.938l-.019.002c-.304.038-.446-.035-.58-.294l-.007-.015c-.125-.25-.136-.408-.027-.598.043-.076.076-.256.081-.402v-.033c-.002-.207-.03-.264-.212-.44-.168-.169-.25-.212-.407-.212-.3 0-.794.239-.794.38 0 .022.082.06.18.076.18.032.47.288.544.477l.005.012c.027.077.016.093-.06.06l-.013-.005a3 3 0 0 0-.39-.087q-.636-.123-.81.375l-.01.032c-.06.18-.05.243.032.5l.093.305.19-.169c.457-.396 1.25.033 1.315.707l.003.034c.02.273-.042.379-.266.476l-.166.072.141.168a.9.9 0 0 0 .348.234c.424.125.82-.256.745-.712l-.033-.201.277-.038a3 3 0 0 0 .582-.153l.07-.025c.227-.083.25-.075.414.01.38.206.831.804.831 1.108v.012c-.002.08-.03.083-.228.037-.315-.07-.69.027-.902.233-.09.085-.247.36-.356.616l-.025.06c-.104.242-.235.489-.309.568l-.142.148.315.065c.261.049.375.044.636-.022l.035-.009c.16-.043.328-.101.384-.127l.015-.008c.074-.039.088-.023.088.074 0 .168-.125.342-.505.69a2.4 2.4 0 0 0-.484.641l-.015.03c-.084.178-.142.324-.132.334.05.05.772-.184 1.038-.331m6.434-7.979c.106-.265.094-.478-.048-.756l-.03-.056c-.145-.281-.144-.363-.009-.536l.013-.015c.088-.102.175-.133.466-.159l.046-.005q.97-.117.785-.74c-.081-.26-.277-.39-.755-.5l-.037-.008c-.179-.045-.358-.114-.409-.16-.244-.223-.147-.701.152-.766l.07-.015.023-.005c.188-.043.178-.064.136-.23-.087-.3-.18-.43-.38-.533-.218-.109-.73-.217-1.039-.217h-.206l.135.239c.392.696.587 1.516.587 2.424 0 .745-.13 1.283-.456 1.886l-.212.391.244.093c.392.152.778.01.924-.332m-34.013.408c.142 0 .511-.158.49-.207-.553-1.083-.664-1.523-.628-2.44l.002-.065c.038-.875.196-1.419.68-2.36.027-.048-.294-.037-.718.023-.521.076-.82.315-.886.717l-.006.046c-.02.15-.007.155.137.155.359 0 .538.5.266.756-.068.063-.268.151-.449.196l-.063.015c-.546.135-.716.305-.716.696 0 .136.043.229.141.32l.02.019c.136.12.24.142.774.2l.04.004c.22.027.302.067.384.17l.022.028c.118.155.104.201-.05.51-.157.31-.168.483-.048.782.092.228.385.435.608.435m12.387-1.316c-.277-.407-.38-.826-.353-1.37.037-.57.19-.968.524-1.342l.02-.021c.624-.69 1.434-.903 2.282-.604.641.229 1.049.593 1.337 1.218l.014.028c.118.251.133.365.133.852v.124c-.003.412-.024.497-.158.74-.185.36-.62.827-.935 1.011-.962.566-2.239.283-2.864-.636m5.723.626c-.598-.354-1.081-1.05-1.13-1.626-.033-.38.07-.896.244-1.239.169-.326.625-.793.93-.951.604-.31 1.31-.352 1.85-.11l.025.012c.43.196.696.419.924.761.484.734.522 1.625.109 2.386-.555 1.017-1.92 1.37-2.952.767m1.725-3.403-.016-.022c-.055-.075-.076-.076-.207.028l-.095.077c-.253.2-.389.186-.646-.045l-.217-.196-.082.19c-.141.343.06.615.506.675.543.075.996-.361.757-.707m-5.747.723c.506 0 .862-.405.638-.724l-.02-.027c-.059-.078-.08-.066-.258.078l-.04.033c-.247.2-.374.186-.662-.034l-.06-.046c-.167-.127-.185-.119-.24-.035-.217.347.131.755.642.755m14.746 2.718c.07 0 .092-.05.092-.223v-.223l.18.049c.32.076.57.049.717-.093l.02-.018c.164-.16.146-.224-.074-.302a.53.53 0 0 1-.278-.229c-.076-.152-.076-.179 0-.293.05-.07.169-.19.272-.272.196-.147.359-.473.359-.717 0-.163-.169-.723-.212-.723l-.028.01a8 8 0 0 0-.289.12l-.015.006a2 2 0 0 1-.396.136h-.012c-.076.003-.08.042-.054.239.054.33-.097.646-.442.945l-.02.017c-.467.397-.603.81-.38 1.18.114.19.402.39.56.39m-24.279 0c.234 0 .603-.327.652-.577l.005-.03c.048-.298-.039-.482-.407-.875l-.078-.083c-.397-.424-.507-.67-.455-.995l.006-.041c.018-.135.006-.168-.054-.171h-.011c-.055 0-.234-.06-.403-.13l-.31-.126-.081.18c-.12.244-.163.532-.12.76.028.147.12.283.36.511l.025.026c.162.161.295.33.295.377 0 .13-.294.413-.43.413h-.017c-.119.004-.119.05-.015.2.12.17.424.256.636.186l.04-.014c.228-.078.27-.058.275.136v.064c.003.14.026.189.087.189m11.196 5.114c-.138-.117-.32-.502-.49-1.037l-.038-.116c-.113-.363-.128-.502-.13-1.173v-.125c0-1.402.175-1.892.974-2.718l.088-.092.03-.031a4 4 0 0 0 .376-.442l.103-.152.117.163c.062.084.252.297.46.519l.061.067.047.05.044.046c.701.743.842 1.17.842 2.481l.001.162c.001.578-.02.758-.125 1.145l-.031.114c-.143.502-.439 1.175-.492 1.117-.015-.015-.006-.159.025-.326l.003-.016c.15-.8.014-2.08-.282-2.73l-.012-.026c-.174-.375-.543-.853-.652-.853-.107 0-.467.464-.639.82l-.008.017c-.289.605-.41 1.573-.314 2.438l.007.06.012.1c.03.238.064.454.083.505l.007.025c.019.073.007.067-.067.008m-1.19.538c-.5-.054-.99-.31-1.353-.701-.479-.51-.794-1.158-1.104-2.234-.2-.717-.472-1.206-.907-1.658l-.052-.052c-.181-.183-.318-.335-.318-.35 0-.032.26-.006.526.04l.053.009c.16.03.318.065.416.098 1.076.38 1.826 1.506 2.13 3.19.118.625.324 1.065.66 1.39l.215.206a1 1 0 0 1 .076.078c0 .011-.152 0-.342-.016m3.875-.005a.05.05 0 0 1 .05-.05c.075 0 .38-.32.532-.56l.017-.026c.167-.276.254-.533.386-1.174l.043-.21c.214-1.032.528-1.657 1.081-2.168l.022-.02c.495-.456 1.212-.776 1.755-.782l.212-.005-.304.31c-.456.462-.663.858-.978 1.837-.538 1.71-1.06 2.42-1.999 2.73l-.029.009c-.385.125-.788.18-.788.109m-2.032-.31c-.29-.655-.304-1.99-.042-2.876l.009-.032c.207-.668.337-.706.549-.158.266.712.342 1.734.19 2.533l-.01.048c-.085.426-.146.55-.307.658l-.009.006c-.168.114-.272.06-.38-.18m-4.185 2.32v-.021c-.006-.24.021-.315.13-.435.304-.331.799-.533 1.924-.788.712-.163 1.245-.375 1.5-.587l.03-.025c.062-.052.112-.09.117-.095l.087.083.063.062.04.04c.326.326.723.316 1.05-.021l.146-.153.326.207.035.023c.362.234.627.321 1.338.46l.035.006c1.467.277 2.2.756 2.087 1.353-.076.392-.337.604-.75.604-.332 0-.558-.169-.84-.63l-.014-.023c-.439-.728-1.026-1.187-1.74-1.356l-.031-.008a1.3 1.3 0 0 0-.63-.005l-.028.005c-.271.051-.441.054-.773.01l-.064-.01c-.42-.058-.508-.06-.797.027l-.018.006a2.54 2.54 0 0 0-1.5 1.241l-.017.03c-.098.185-.26.408-.359.495-.575.506-1.327.223-1.347-.494m5.11 3.11-.61.206-.785-.261c-.722-.244-1.019-.419-1.351-.799-.473-.542-.553-1.148-.23-1.818l.012-.024c.284-.583.667-.924 1.218-1.085l.111-.031c.264-.072.254-.052.1.121a1.65 1.65 0 0 0-.401 1.13c.005.767.418 1.316 1.157 1.528.201.054.642-.103.924-.337.614-.506.696-1.56.169-2.245l-.19-.255.152.038c.788.195 1.315.69 1.549 1.456l.032.109c.075.254.073.312.006.563l-.016.062a2.05 2.05 0 0 1-1.104 1.359l-.02.01a9 9 0 0 1-.565.219l-.068.024zm-1.056-1.778c-.5-.43-.473-1.255.054-1.674.256-.195.462-.185.734.05.294.25.419.575.386.978-.026.33-.136.519-.406.705l-.018.012c-.266.185-.478.163-.75-.07m2.794 2.539-.05-.022a2.5 2.5 0 0 1-.52-.337l-.23-.207.235-.13c.646-.364 1.206-1.185 1.25-1.832l.002-.046c.01-.155.028-.152.177-.117.087.027.32.049.516.049.618-.005 1.06-.372 1.202-1l.022-.096c.05-.221.07-.232.238-.246.278-.022.756.054.979.163.45.212.766.728.766 1.255 0 .532-.462 1.138-1.003 1.325l-.019.007c-.168.06-.462.098-.744.098l-.462.005-.163.283c-.343.597-.832.902-1.5.94l-.05.003c-.326.016-.431 0-.646-.095m-6.963-.87-.056-.091c-.106-.169-.136-.178-.325-.166l-.026.001c-.354.028-.892-.06-1.13-.179-.24-.125-.56-.451-.696-.712-.153-.293-.142-.88.027-1.217.136-.272.456-.544.782-.669.24-.087.903-.092.935-.005l.003.011c.012.048.032.161.052.26.054.332.342.702.679.875l.036.02c.222.112.313.13.597.114l.104-.006a2 2 0 0 0 .405-.055l.005-.002c.06-.025.087.018.129.225l.012.063c.125.669.522 1.245 1.13 1.647l.102.067c.286.192.252.22-.112.471-.908.625-2.06.343-2.653-.652"/>
</svg>
