---
version: "0.0.5"
---
<svg>
  <path d="M24.56 1.513c1.32 .054 2.626 .211 3.923 .466c1.035 .205 2.061 .444 3.046 .824c2.855 1.103 5.49 2.57 7.74 4.68c3.402 3.19 5.664 7.032 6.72 11.577c.16 .686 .302 1.376 .36 2.077c.059 .686 .08 1.376 .11 2.066c.01 .257 .001 .514 .001 .773a.13 .13 0 0 0 .04 .005c-.05 .96 -.073 1.922 -.161 2.88c-.099 1.09 -.34 2.158 -.637 3.213c-1.068 3.777 -3.015 7.038 -5.778 9.822a23.41 23.41 0 0 1 -2.654 2.301c-.729 .544 -1.516 .991 -2.3 1.45c-1.904 1.11 -3.965 1.807 -6.102 2.302c-.945 .22 -1.904 .364 -2.87 .454a21.185 21.185 0 0 1 -3.512 .042c-3.29 -.238 -6.383 -1.16 -9.28 -2.734c-1.807 -.98 -3.43 -2.217 -4.9 -3.656c-1.828 -1.792 -3.34 -3.817 -4.482 -6.112c-.838 -1.68 -1.42 -3.449 -1.814 -5.28a22.576 22.576 0 0 1 -.474 -3.496a20.59 20.59 0 0 1 .044 -3.03c.461 -4.993 2.38 -9.363 5.696 -13.115c2.813 -3.186 6.295 -5.344 10.367 -6.557a24.14 24.14 0 0 1 3.909 -.806c1 -.125 2 -.188 3.007 -.146h.001zm-.506 41.13c-.268 .006 -.29 .025 -.285 .29c.017 .693 .038 1.389 .061 2.084c.002 .125 .021 .249 .036 .41c.318 .01 .618 .033 .913 .025c.228 -.007 .455 -.063 .662 -.172c.423 -.224 .555 -.588 .385 -1.035a1.65 1.65 0 0 1 -.115 -.42c-.023 -.208 -.019 -.417 -.023 -.624c-.006 -.305 -.09 -.414 -.385 -.477c-.413 -.088 -.83 -.092 -1.249 -.08v-.002zm-3.753 -.203a2.242 2.242 0 0 0 -.222 .326c-.324 .615 -.645 1.232 -.965 1.849c-.034 .056 -.055 .121 -.1 .23c.192 .05 .349 .096 .51 .13c.124 .025 .218 -.032 .273 -.145c.035 -.075 .067 -.152 .102 -.228c.067 -.142 .195 -.18 .333 -.159c.176 .03 .394 -.018 .482 .212c.013 .031 .02 .067 .03 .1c.01 .04 .014 .082 .022 .124c.038 .19 .185 .338 .375 .378c.296 .08 .365 .023 .346 -.286c-.002 -.049 -.01 -.097 -.015 -.145c-.035 -.297 -.065 -.594 -.106 -.89c-.063 -.44 -.14 -.88 -.204 -1.319c-.016 -.113 -.073 -.177 -.178 -.202a8.516 8.516 0 0 0 -.385 -.088a.292 .292 0 0 0 -.298 .113zm7.633 -.245c-.633 .067 -1.144 .39 -1.31 1.02c-.108 .417 -.037 .808 .151 1.195c.233 .483 .618 .694 1.155 .694a1.13 1.13 0 0 0 .798 -.271c.477 -.408 .658 -.931 .507 -1.54c-.149 -.598 -.576 -.933 -1.157 -1.088a.376 .376 0 0 0 -.144 -.01zm-2.973 2.11c.05 .036 .1 .078 .134 .128c.082 .113 .063 .245 -.044 .335a.403 .403 0 0 1 -.39 .075c-.106 -.031 -.133 -.103 -.129 -.274a1.39 1.39 0 0 1 .008 -.084c.032 -.288 .18 -.353 .421 -.18zm-7.695 -2.566c.036 .234 .082 .466 .117 .7c.074 .5 .11 .996 -.065 1.486c-.096 .267 -.046 .387 .26 .544c.126 .064 .21 .046 .29 -.07a.994 .994 0 0 0 .146 -.276c.155 -.485 .457 -.87 .819 -1.217c.18 -.174 .356 -.353 .53 -.533c.05 -.053 .09 -.117 .132 -.174c-.233 -.26 -.572 -.293 -.81 -.084c-.082 .074 -.156 .16 -.23 .241c-.102 .115 -.2 .23 -.332 .38a2.454 2.454 0 0 0 -.03 -.142c-.06 -.27 -.117 -.543 -.184 -.813c-.048 -.195 -.2 -.276 -.385 -.3c-.208 -.03 -.29 .051 -.258 .258zm11.02 1.372c.146 .203 .19 .444 .195 .692c-.013 .097 -.02 .193 -.04 .29c-.038 .206 -.172 .325 -.369 .382a.387 .387 0 0 1 -.356 -.055a.823 .823 0 0 1 -.327 -.445a1.233 1.233 0 0 1 .006 -.738c.07 -.207 .195 -.39 .422 -.423c.217 -.033 .356 .14 .47 .297h-.002zm2.794 -1.8a7.858 7.858 0 0 0 -1.47 .535a.87 .87 0 0 0 -.172 .12a.235 .235 0 0 0 -.078 .262c.032 .1 .116 .136 .21 .145c.07 .006 .14 .012 .21 .008c.226 -.017 .37 .086 .452 .293l.144 .37l.145 .368c.096 .247 .193 .492 .283 .74c.04 .11 .107 .14 .21 .11c.167 -.053 .336 -.111 .523 -.174c-.044 -.132 -.078 -.234 -.115 -.339c-.178 -.498 -.36 -.994 -.534 -1.493c-.07 -.197 -.044 -.233 .16 -.304c.08 -.027 .16 -.048 .233 -.088c.136 -.077 .164 -.236 .082 -.426c-.059 -.138 -.117 -.174 -.283 -.128v.001zm-6.34 1.852c.104 .002 .307 .203 .305 .304c-.002 .088 -.21 .221 -.346 .22c-.11 -.005 -.167 -.076 -.165 -.216c.002 -.188 .084 -.31 .205 -.308h.001zm8.295 -2.788a2.05 2.05 0 0 0 -.696 .324a.784 .784 0 0 0 -.316 .43c-.117 .424 -.027 .913 .597 1c.117 .016 .235 .024 .352 .037c.165 .016 .333 .027 .498 .054c.16 .027 .204 .134 .093 .251c-.088 .092 -.21 .155 -.323 .218c-.059 .033 -.134 .035 -.2 .056c-.188 .065 -.276 .21 -.242 .385c.031 .174 .15 .26 .394 .255c.031 -.006 .107 -.017 .18 -.042a1.59 1.59 0 0 0 .84 -.657c.302 -.462 .136 -.93 -.383 -1.123a1.812 1.812 0 0 0 -.616 -.092c-.125 0 -.25 -.013 -.373 -.04c-.134 -.03 -.166 -.14 -.067 -.23c.086 -.077 .195 -.127 .297 -.188c.078 -.046 .166 -.077 .235 -.134c.107 -.088 .115 -.265 .038 -.403c-.06 -.11 -.15 -.14 -.308 -.1zm-18.73 -.155c-.535 .477 -1.061 .965 -1.59 1.45a1.02 1.02 0 0 0 -.166 .211a.231 .231 0 0 0 -.03 .157a.34 .34 0 0 0 .513 .197c.107 -.065 .212 -.136 .323 -.19c.2 -.099 .38 -.024 .553 .08c.155 .095 .12 .252 .109 .396v.04c-.008 .084 -.013 .167 -.008 .251c.012 .186 .22 .38 .427 .393c.205 .013 .178 -.175 .23 -.29a.77 .77 0 0 0 .04 -.14c.138 -.61 .283 -1.22 .415 -1.83c.105 -.48 .098 -.482 -.316 -.75c-.23 -.146 -.296 -.157 -.5 .025zm22.261 -2.234c-.475 .145 -.553 .306 -.362 .718c.164 .345 .33 .69 .5 1.031a.322 .322 0 0 0 -.024 .027l-.172 -.146c-.304 -.245 -.606 -.494 -.913 -.732c-.147 -.115 -.183 -.107 -.336 -.002c-.046 .031 -.088 .07 -.132 .102a.316 .316 0 0 0 -.106 .391c.067 .176 .144 .348 .21 .523c.06 .163 .116 .33 .17 .494c.011 .038 -.008 .084 -.016 .171c-.096 -.09 -.163 -.146 -.226 -.207c-.195 -.188 -.384 -.387 -.587 -.566c-.22 -.193 -.58 -.095 -.689 .177a.222 .222 0 0 0 .036 .237c.04 .048 .088 .09 .136 .13l1.74 1.411c.057 .048 .116 .092 .19 .15c.156 -.148 .303 -.284 .447 -.424c.128 -.125 .128 -.127 .053 -.284c-.128 -.264 -.262 -.525 -.386 -.789c-.04 -.083 -.058 -.178 -.094 -.29c.155 .027 .228 .114 .308 .186c.176 .16 .341 .33 .522 .483c.2 .167 .36 .157 .59 -.004c.191 -.134 .23 -.254 .14 -.507c-.25 -.724 -.548 -1.43 -.894 -2.114c-.03 -.06 -.07 -.113 -.105 -.166zm-25 .26c-.115 .09 -.226 .188 -.32 .301c-.336 .418 -.664 .84 -.991 1.266a1.595 1.595 0 0 0 -.151 .25c-.08 .166 -.06 .254 .06 .35c.179 .14 .323 .16 .453 .05c.084 -.07 .153 -.16 .23 -.243c.103 -.11 .208 -.217 .315 -.326l.065 .023c.006 .067 .02 .134 .017 .2a28.4 28.4 0 0 1 -.061 .727c-.013 .14 -.025 .286 .065 .403c.128 .168 .314 .258 .51 .37c.02 -.08 .034 -.127 .04 -.175c.036 -.27 .063 -.54 .103 -.807c.032 -.214 .07 -.425 .113 -.636a.308 .308 0 0 1 .287 -.262c.076 -.008 .153 -.02 .227 -.037c.197 -.044 .398 -.078 .586 -.143c.18 -.062 .203 -.177 .078 -.322c-.243 -.274 -.296 -.339 -.685 -.236c-.19 .05 -.375 .107 -.564 .155c-.071 .016 -.144 .018 -.272 .033c.07 -.102 .109 -.167 .155 -.224c.065 -.08 .142 -.154 .205 -.236c.128 -.172 .11 -.324 -.054 -.48c-.124 -.122 -.245 -.129 -.41 0zm2.767 2.817a.56 .56 0 0 1 -.042 .42c-.04 .082 -.104 .126 -.203 .1c-.104 -.03 -.144 -.087 -.098 -.183a.586 .586 0 0 1 .343 -.337zm23.222 -4.244c-.239 .214 -.278 .383 -.165 .65c.02 .05 .04 .103 .067 .151c.301 .54 .605 1.082 .911 1.62a1.9 1.9 0 0 0 .22 .305c.098 .117 .197 .123 .302 .017a.524 .524 0 0 0 .11 -.174c.072 -.174 .026 -.339 -.045 -.504c-.038 -.086 -.082 -.19 -.065 -.274c.052 -.262 .37 -.429 .634 -.356l.331 .088c.1 -.04 .224 -.067 .32 -.136c.175 -.125 .164 -.276 -.008 -.404a1.493 1.493 0 0 0 -.209 -.136c-.457 -.238 -.913 -.476 -1.374 -.704c-.187 -.092 -.386 -.16 -.583 -.233a.411 .411 0 0 0 -.446 .09zm-9.039 -30.085c-.155 .04 -.316 .062 -.467 .115c-.427 .148 -.867 .278 -1.27 .477a26.59 26.59 0 0 1 -1.02 .479c-.379 .167 -.76 .343 -1.133 .53c-.255 .129 -.507 .269 -.687 .503c-.06 .08 -.136 .067 -.197 0c-.055 -.06 -.101 -.132 -.152 -.2c-.054 -.072 -.096 -.156 -.16 -.22a2.658 2.658 0 0 0 -1.4 -.741a2.086 2.086 0 0 0 -.56 -.006c-.31 .027 -.597 .144 -.875 .272c-.382 .173 -.754 .364 -1.131 .544a4.24 4.24 0 0 1 -1.11 .363c-.937 .162 -1.88 .26 -2.827 .33c-.205 .016 -.21 .02 -.213 .22v.147l.029 3.22c.017 1.873 .027 3.75 .055 5.624c.016 1.183 .06 2.37 .09 3.553c.002 .08 -.01 .16 -.013 .25c-.098 .006 -.174 .01 -.251 .01c-.434 0 -.866 -.007 -1.3 .004c-.48 .012 -.96 .035 -1.442 .063c-.197 .01 -.227 .046 -.23 .246a17.5 17.5 0 0 0 .01 .794c.062 1.441 .127 2.883 .19 4.324c.046 1.064 .092 2.131 .14 3.196c.019 .41 .047 .822 .06 1.232a.383 .383 0 0 0 .127 .274c.25 .253 .505 .502 .746 .763c.452 .494 .898 .992 1.343 1.494c.318 .362 .444 .784 .446 1.27a60.785 60.785 0 0 1 -.103 3.384l.002 .205c.103 .008 .19 .023 .28 .023c.998 .02 1.997 .035 2.994 .056a.39 .39 0 0 0 .283 -.102a291.27 291.27 0 0 1 1.69 -1.47a9.79 9.79 0 0 0 1.836 -2.107c.23 -.358 .486 -.699 .748 -1.033c.148 -.19 .326 -.36 .5 -.532c.13 -.13 .29 -.156 .462 -.083c.205 .085 .417 .16 .622 .247c.5 .215 .995 .44 1.494 .658a4.94 4.94 0 0 0 2.76 .373c.964 -.145 1.73 -.596 2.29 -1.39c.313 -.445 .53 -.932 .713 -1.438c.075 -.21 .157 -.416 .245 -.62a.686 .686 0 0 1 .333 -.363c.536 -.255 .98 -.638 1.422 -1.023a4.606 4.606 0 0 0 1.138 -1.483c.1 -.207 .213 -.408 .316 -.613a2.17 2.17 0 0 1 .86 -.918c.803 -.475 1.503 -1.084 2.18 -1.722c.356 -.334 .703 -.677 1.066 -1.004a6.308 6.308 0 0 1 2.22 -1.309c.262 -.088 .51 -.228 .754 -.358c.116 -.06 .22 -.15 .31 -.244a.495 .495 0 0 0 .128 -.253a1.044 1.044 0 0 0 -.542 -1.03a1.4 1.4 0 0 0 -.413 -.141c-.268 -.042 -.432 -.184 -.499 -.44a.599 .599 0 0 0 -.398 -.424c-.182 -.07 -.368 -.13 -.553 -.19c-.505 -.161 -1.007 -.333 -1.464 -.61c-.272 -.166 -.513 -.365 -.687 -.633c-.427 -.66 -.754 -1.365 -.884 -2.15a1.343 1.343 0 0 0 -.27 -.625c-.107 -.136 -.23 -.262 -.34 -.398c-.203 -.248 -.429 -.483 -.592 -.755a1.365 1.365 0 0 0 -.486 -.502c-.317 -.19 -.64 -.369 -.97 -.537a3.547 3.547 0 0 1 -1.224 -.994c-.36 -.462 -.722 -.92 -1.085 -1.382c-.813 -1.038 -1.604 -2.092 -2.273 -3.232a40.111 40.111 0 0 0 -.848 -1.368c-.105 -.163 -.233 -.314 -.358 -.462a.421 .421 0 0 0 -.455 -.138zm-18.98 29.15c-.247 .155 -1.923 1.697 -2.03 1.874l.45 .492c.374 -.35 .696 -.715 1.113 -1.048c-.008 .1 -.006 .155 -.02 .203a20.01 20.01 0 0 1 -.131 .462c-.07 .235 -.142 .467 -.211 .7c-.082 .277 .012 .605 .377 .833c.056 -.043 .12 -.083 .178 -.136c.47 -.424 .94 -.85 1.408 -1.28c.102 -.094 .194 -.2 .278 -.31c.115 -.154 .103 -.256 -.031 -.388c-.136 -.136 -.25 -.155 -.413 -.053a1.742 1.742 0 0 0 -.228 .182c-.143 .132 -.281 .272 -.423 .404c-.053 .048 -.114 .088 -.17 .132c-.013 -.008 -.025 -.019 -.038 -.027c.034 -.132 .063 -.266 .103 -.398c.075 -.26 .167 -.516 .234 -.78c.107 -.42 -.035 -.686 -.446 -.862zm28.631 1.675c.201 .033 .335 .13 .43 .276c.018 .03 -.005 .115 -.036 .142c-.03 .025 -.113 .023 -.145 -.002a.678 .678 0 0 1 -.25 -.416h.001zm1.776 -3.744c-.245 .223 -.243 .322 .023 .523c.1 .075 .206 .144 .304 .221c.115 .09 .228 .182 .337 .28c.05 .044 .084 .103 .147 .182c-.08 0 -.117 .005 -.155 0c-.352 -.035 -.706 -.079 -1.058 -.108c-.337 -.027 -.528 .146 -.69 .527c-.033 .073 -.02 .136 .041 .188c.042 .036 .084 .075 .13 .107c.54 .37 1.08 .74 1.623 1.106a.89 .89 0 0 0 .26 .13c.067 .02 .161 .02 .218 -.013c.26 -.156 .262 -.426 .012 -.602c-.056 -.04 -.117 -.075 -.176 -.11c-.19 -.118 -.38 -.233 -.57 -.352c-.062 -.046 -.119 -.107 -.18 -.157a.735 .735 0 0 1 .021 -.063c.088 -.006 .178 -.02 .264 -.015c.201 .013 .402 .042 .604 .057c.207 .015 .416 .023 .626 .023c.188 0 .33 -.094 .444 -.239c.16 -.202 .157 -.255 -.042 -.43c-.052 -.046 -.105 -.095 -.16 -.134c-.516 -.357 -1.033 -.713 -1.55 -1.067c-.064 -.042 -.135 -.073 -.205 -.105c-.1 -.044 -.184 -.025 -.268 .05v.001zm-32.045 .236c-.226 .07 -.46 .117 -.683 .194c-.492 .172 -.98 .356 -1.47 .536c-.214 .077 -.266 .182 -.046 .38c.146 .13 .33 .155 .53 .132a.524 .524 0 0 1 .297 .042c.09 .053 .15 .16 .216 .247c.086 .12 .086 .245 .004 .37a2.4 2.4 0 0 0 -.138 .232c-.1 .21 -.032 .46 .159 .592c.09 .063 .172 .05 .245 -.023c.109 -.106 .222 -.213 .318 -.33c.449 -.55 .893 -1.104 1.339 -1.657c.017 -.025 .03 -.056 .06 -.106c-.12 -.157 -.24 -.318 -.364 -.475c-.121 -.153 -.278 -.19 -.467 -.134zm-.176 .757c-.107 .15 -.182 .27 -.274 .38c-.086 .1 -.151 .103 -.208 .036c-.07 -.08 -.067 -.19 .017 -.257a.76 .76 0 0 1 .465 -.159zm33.614 -3.12c-.22 -.015 -.373 .093 -.458 .294c-.063 .143 -.118 .285 -.178 .433c.033 .04 .05 .063 .07 .082c.518 .468 1.033 .937 1.553 1.401c.124 .111 .26 .212 .394 .31c.117 .083 .182 .07 .26 -.05c.127 -.197 .196 -.48 -.076 -.689c-.05 -.037 -.105 -.077 -.136 -.127c-.036 -.055 -.08 -.136 -.06 -.186a1.6 1.6 0 0 1 .207 -.425c.083 -.113 .232 -.056 .356 -.056c.006 0 .014 0 .02 .002c.22 .03 .374 -.065 .49 -.247c.2 -.303 .173 -.379 -.188 -.444a34.23 34.23 0 0 0 -1.298 -.209a13.286 13.286 0 0 0 -.956 -.09v.001zm-34.916 -.534c-.563 .255 -1.127 .517 -1.686 .782c-.112 .057 -.215 .13 -.308 .214c-.115 .096 -.168 .23 -.12 .376c.15 .444 .37 .845 .75 1.13c.386 .288 .784 .217 1.033 -.195c.134 -.215 .26 -.389 .513 -.284c.382 .004 .564 -.136 .608 -.475c.073 -.557 -.107 -1.044 -.442 -1.477c-.11 -.142 -.163 -.155 -.348 -.07zm-1.034 1.306c.179 -.002 .256 .086 .26 .295c.004 .186 -.084 .282 -.253 .28c-.187 -.002 -.375 -.182 -.371 -.35c.004 -.139 .138 -.223 .364 -.225zm36.75 .017c.1 .056 .133 .134 .091 .2c-.053 .084 -.128 .072 -.2 .04a1.152 1.152 0 0 1 -.376 -.288c.186 -.025 .34 -.032 .483 .048h.001zm-19.193 -21.629c-.138 -.148 -.176 -.146 -.31 .004a.842 .842 0 0 0 -.15 .224a4.28 4.28 0 0 0 -.166 .45c-.05 .16 -.134 .297 -.294 .36c-.282 .11 -.47 .317 -.64 .552c-.31 .426 -.53 .9 -.696 1.399a2.87 2.87 0 0 0 -.055 1.648c.147 .588 .415 1.12 .742 1.628c.235 .36 .478 .72 .687 1.098c.61 1.092 .654 2.209 .107 3.344a9.41 9.41 0 0 1 -.857 1.384c-.268 .374 -.536 .75 -.798 1.13a6.25 6.25 0 0 0 -.804 1.67a2.69 2.69 0 0 1 -.421 .837c-.176 .235 -.298 .486 -.296 .787c0 .048 -.01 .098 -.023 .144c-.052 .195 -.11 .387 -.16 .584a.722 .722 0 0 0 .246 .734c.052 -.08 .099 -.165 .16 -.238c.175 -.216 .347 -.438 .538 -.64c.21 -.23 .31 -.49 .297 -.8c-.008 -.173 -.02 -.349 -.01 -.522c.012 -.228 .008 -.467 .073 -.682c.147 -.48 .42 -.896 .733 -1.283c.048 -.058 .124 -.094 .189 -.142c.029 .04 .046 .055 .052 .073c.015 .046 .034 .092 .04 .14c.07 .49 .255 .94 .457 1.385c.073 .16 .14 .32 .199 .483a.696 .696 0 0 1 -.074 .64c-.065 .1 -.136 .195 -.2 .295c-.064 .103 -.187 .205 -.112 .335c.07 .121 .22 .096 .344 .103c.11 .006 .224 0 .335 .01c.167 .017 .218 .098 .172 .257a.42 .42 0 0 1 -.248 .268c-.056 .023 -.12 .038 -.176 .063c-.07 .031 -.163 .065 -.138 .155c.015 .05 .097 .087 .153 .12c.042 .02 .096 .018 .143 .032c.196 .06 .226 .134 .083 .27c-.12 .116 -.255 .213 -.402 .29c-.098 .05 -.155 .103 -.161 .212c-.002 .054 -.021 .11 -.02 .165c.014 .42 .026 .835 .043 1.253c.002 .055 .019 .11 .03 .163c.022 .092 .075 .157 .17 .16c.18 .004 .236 .12 .263 .27c.025 .137 .042 .275 .07 .411a.397 .397 0 0 0 .3 .318c.342 .086 .69 .11 1.04 .1c.106 -.004 .167 -.058 .173 -.169c.02 -.31 -.134 -.845 -.544 -1.006a.608 .608 0 0 1 -.377 -.42a2.84 2.84 0 0 1 -.12 -.613c-.03 -.647 -.033 -1.295 -.052 -1.943a.407 .407 0 0 1 .096 -.266c.22 -.312 .46 -.617 .65 -.948c.26 -.45 .482 -.926 .717 -1.39c.055 -.105 .103 -.212 .162 -.333c.077 .03 .142 .048 .203 .08c.142 .075 .278 .158 .423 .23c.308 .15 .5 .366 .48 .732c-.007 .085 .023 .18 .146 .215c.023 -.044 .055 -.084 .061 -.126c.01 -.069 0 -.14 .004 -.209a.597 .597 0 0 1 .323 -.525c.092 -.05 .188 -.02 .216 .053c.035 .1 -.038 .138 -.11 .171c-.045 .021 -.096 .027 -.138 .05c-.05 .028 -.096 .063 -.15 .1c.171 .237 .47 .22 .668 .407c-.1 .046 -.182 .081 -.26 .123c-.08 .042 -.16 .086 -.168 .2c.151 .185 .378 .068 .595 .137c-.155 .11 -.285 .213 -.423 .3c-.109 .07 -.226 .06 -.34 0c-.062 -.035 -.129 -.06 -.194 -.089l-.025 .046c.142 .11 .283 .22 .427 .328c.41 .308 .813 .615 1.224 .916c.16 .118 .33 .235 .51 .32c.12 .057 .196 .128 .24 .243c.027 .071 .044 .147 .067 .22c.16 .5 .764 .763 1.225 .533c.182 -.09 .218 -.155 .168 -.347a2.855 2.855 0 0 0 -.15 -.433c-.106 -.238 -.25 -.446 -.496 -.573a1.332 1.332 0 0 1 -.31 -.245a6.105 6.105 0 0 0 -1.12 -.872c-.16 -.1 -.315 -.207 -.463 -.322a.666 .666 0 0 1 -.277 -.498c-.016 -.291 -.02 -.584 -.014 -.876c.018 -.592 .052 -1.184 .075 -1.776c.002 -.057 -.015 -.136 -.052 -.166c-.246 -.188 -.463 -.428 -.796 -.474c-.099 -.013 -.15 -.08 -.137 -.176c.011 -.11 .035 -.219 .07 -.324c.1 -.273 .213 -.543 .316 -.817c.253 -.674 .446 -1.364 .612 -2.062c.03 -.122 .077 -.182 .203 -.19a167.94 167.94 0 0 0 1.734 -.103c.32 -.023 .476 .13 .583 .403c.106 .274 .104 .559 .067 .845c-.026 .187 -.06 .375 -.06 .56a.96 .96 0 0 1 -.162 .53c-.354 .57 -.216 1.037 .391 1.334c.214 .104 .264 .085 .37 -.134a.36 .36 0 0 0 .026 -.057c.136 -.407 .195 -.825 .172 -1.254c-.004 -.067 -.006 -.14 -.088 -.17c-.082 .078 -.082 .078 -.128 .269c-.03 .119 -.11 .19 -.218 .188c-.106 -.002 -.182 -.078 -.2 -.203a.447 .447 0 0 1 .376 -.498c.241 -.033 .26 -.04 .27 -.28c.017 -.383 .024 -.766 .017 -1.148a5.009 5.009 0 0 0 -.063 -.707a.854 .854 0 0 0 -.597 -.716a4.917 4.917 0 0 0 -.624 -.171c-.43 -.09 -.863 -.163 -1.294 -.247c-.072 -.015 -.139 -.046 -.202 -.067c.007 -.04 .005 -.057 .011 -.067c.28 -.41 .651 -.752 1.083 -.996c.057 -.033 .153 -.031 .218 -.008c.325 .11 .588 .316 .806 .577a.366 .366 0 0 1 .074 .149c.033 .165 .13 .29 .238 .41c.155 .17 .254 .36 .3 .588c.115 .583 .635 .842 1.175 .598c.268 -.122 .28 -.161 .126 -.42l-.034 -.053a14.802 14.802 0 0 0 -1.954 -2.422c-.17 -.172 -.373 -.314 -.568 -.458c-.243 -.18 -.505 -.214 -.783 -.067c-.222 .115 -.455 .213 -.677 .33c-.247 .13 -.488 .274 -.73 .41c-.05 .025 -.1 .044 -.156 .07c-.513 -.526 -1.02 -1.044 -1.523 -1.565a1.367 1.367 0 0 1 -.178 -.232c-.067 -.111 -.052 -.174 .057 -.247a.836 .836 0 0 1 .64 -.12a.34 .34 0 0 1 .156 .097c.167 .157 .272 .178 .467 .063a.98 .98 0 0 0 .49 -.695c.054 -.31 -.03 -.565 -.329 -.72c-.142 -.073 -.278 -.156 -.423 -.227c-.639 -.314 -1.28 -.624 -1.918 -.935l-.193 -.1a4.3 4.3 0 0 1 .04 -.354c.02 -.186 .048 -.373 .06 -.56c.01 -.2 -.016 -.218 -.211 -.185c-.155 .027 -.303 .042 -.427 -.092zm-16.523 21.102c.12 -.002 .178 .077 .18 .25c.003 .17 -.064 .277 -.178 .28c-.123 .003 -.301 -.16 -.297 -.277c.002 -.102 .174 -.25 .295 -.253zm15.332 -1.517c.042 -.144 .174 -.18 .298 -.09c.054 .04 .102 .095 .146 .147c.076 .09 .082 .186 .013 .286c-.042 .061 -.082 .124 -.138 .21c.102 .037 .175 .07 .253 .094c.117 .042 .216 .096 .222 .242c.004 .061 .038 .12 .052 .18c.03 .128 -.014 .186 -.144 .19c-.138 .001 -.25 -.06 -.298 -.19c-.056 -.154 -.138 -.265 -.314 -.295c-.042 -.008 -.09 -.07 -.105 -.117c-.07 -.22 -.046 -.44 .015 -.657zm.128 -.722l.054 .005c.139 .031 .23 .117 .287 .268c-.121 .11 -.262 .113 -.393 .11c-.101 -.004 -.147 -.106 -.12 -.223c.027 -.117 .113 -.18 .226 -.155l-.054 -.005zm5.672 -1.633c.012 -.106 .075 -.155 .171 -.109a.89 .89 0 0 1 .22 .155c.218 .212 .352 .481 .55 .764c-.17 0 -.288 .008 -.405 -.007c-.147 -.01 -.176 -.052 -.16 -.205c.007 -.054 .026 -.108 .034 -.163c.023 -.15 -.002 -.184 -.15 -.209a.671 .671 0 0 1 -.162 -.038c-.08 -.033 -.109 -.102 -.098 -.188zm-.935 -.76c.088 -.083 .18 -.076 .258 .007c.075 .082 .073 .172 -.008 .26c-.097 .104 -.248 .144 -.442 .104a.635 .635 0 0 1 .192 -.372zm-4.47 -.1c.164 .005 .33 .015 .504 .151a1.83 1.83 0 0 1 -.895 .303c-.02 -.286 .139 -.466 .392 -.456v.001zm1.417 -1.953c.143 .01 .236 .067 .24 .157c.004 .123 -.093 .17 -.185 .192c-.222 .057 -.45 .096 -.673 .142c-.103 .02 -.205 .043 -.306 .067c-.117 .03 -.211 .076 -.245 .22c-.033 .144 -.283 .255 -.431 .218c-.145 -.036 -.195 -.228 -.084 -.333a.265 .265 0 0 1 .147 -.073c.266 -.027 .488 -.157 .703 -.297c.2 -.13 .413 -.232 .65 -.274l.115 -.02l.069 .001zm2.724 -1.21c.101 .275 .124 .543 -.033 .796c-.094 .152 -.216 .288 -.335 .424a5.8 5.8 0 0 1 -.338 .343a.35 .35 0 0 1 -.328 .095c-.266 -.06 -.526 -.138 -.755 -.295c-.069 -.048 -.123 -.12 -.207 -.203c.073 -.036 .096 -.057 .122 -.055c.251 -.014 .396 -.17 .532 -.36c.12 -.163 .26 -.31 .398 -.455c.065 -.07 .146 -.13 .266 -.12c.031 .11 -.053 .164 -.099 .235c-.142 .213 -.29 .422 -.42 .644c-.057 .096 -.074 .217 -.12 .368c.115 -.013 .19 -.004 .255 -.03c.31 -.119 .583 -.296 .813 -.537c.053 -.054 .092 -.123 .13 -.188a.262 .262 0 0 0 -.006 -.293c-.113 -.184 -.09 -.24 .125 -.37zm-2.076 .162l.036 .044c-.04 .054 -.082 .107 -.12 .163c-.066 .105 -.14 .207 -.192 .318c-.036 .077 -.078 .13 -.16 .144c-.055 .01 -.11 .03 -.164 .03c-.42 -.002 -.785 .163 -1.148 .347a5.913 5.913 0 0 1 -.51 .234c-.078 .03 -.173 .078 -.277 -.027c.067 -.07 .12 -.146 .195 -.203c.127 -.096 .266 -.18 .395 -.272c.137 -.096 .283 -.186 .4 -.3c.168 -.164 .367 -.22 .587 -.235c.099 -.007 .197 -.005 .293 -.013c.24 -.023 .492 -.006 .665 -.23zm-2.766 .303c.126 -.088 .51 -.088 .664 .002c-.012 .023 -.02 .053 -.042 .065c-.17 .113 -.368 .174 -.571 .174c-.05 0 -.124 -.034 -.135 -.067c-.012 -.04 .032 -.098 .053 -.147c.006 -.01 .02 -.018 .03 -.027zm.689 -.748l.14 .006a.09 .09 0 0 1 .04 .012c.013 .007 .022 .017 .066 .053a2.22 2.22 0 0 1 -1.094 .205c.023 -.04 .03 -.072 .046 -.082c.29 -.178 .612 -.21 .943 -.188l-.141 -.006zm.562 -.08c.12 -.19 .387 -.274 .582 -.165c.21 .117 .434 .13 .663 .13c.11 -.003 .22 .002 .331 .012c.076 .008 .147 .031 .19 .117c-.075 .08 -.165 .086 -.255 .086a.946 .946 0 0 0 -.495 .127a.368 .368 0 0 1 -.218 .04a1.846 1.846 0 0 1 -.72 -.26c-.032 -.02 -.053 -.058 -.08 -.087h.002zm.802 -.205c.263 -.395 .96 -.515 1.321 -.226c-.059 .057 -.11 .115 -.172 .167c-.092 .078 -.195 .084 -.283 0c-.159 -.154 -.316 -.13 -.492 -.03c-.105 .06 -.22 .118 -.374 .09zm-1.935 -.525c.17 -.073 .29 .023 .39 .174c.21 -.12 .414 -.243 .638 -.05c-.048 .152 -.157 .246 -.274 .332a.22 .22 0 0 1 -.24 0c-.188 -.107 -.37 -.084 -.56 -.006c-.08 .033 -.166 .042 -.292 .07c.074 -.24 .13 -.432 .338 -.52zm.532 -.725c.735 .048 1.426 .17 2.123 .312c-.032 .012 -.06 .03 -.094 .04c-.39 .11 -.781 .206 -1.194 .163a1.257 1.257 0 0 1 -.622 -.222a.459 .459 0 0 1 -.213 -.293zm2.31 -.34c.38 -.01 .75 .037 1.114 .14c.01 .002 .02 .007 .028 .014l.055 .044c-.232 .14 -1.23 .15 -1.558 .013c.103 -.13 .218 -.205 .36 -.212zm.69 -.74c.193 -.003 .388 .022 .58 .049c.101 .015 .204 .052 .24 .2c-.072 .015 -.135 .043 -.2 .043c-.39 .004 -.779 .04 -1.162 -.067a.218 .218 0 0 0 -.122 .002a2.535 2.535 0 0 0 -.818 .452c-.014 .012 -.02 .033 -.044 .07c.057 .053 .118 .105 .184 .168a.217 .217 0 0 1 -.282 -.017c-.176 -.167 -.39 -.16 -.605 -.177a1.667 1.667 0 0 1 -.304 -.063a.302 .302 0 0 1 -.134 -.094c-.048 -.057 -.042 -.117 .033 -.153a.358 .358 0 0 1 .08 -.027c.844 -.184 1.687 -.368 2.554 -.385v-.001zm4.265 -1.18a.732 .732 0 0 1 .28 .026c.1 .034 .152 .153 .123 .235c-.036 .1 -.124 .119 -.203 .123c-.179 .002 -.304 -.096 -.306 -.23c-.002 -.078 .025 -.147 .106 -.153zm-4.803 -1.982a.457 .457 0 0 1 .42 -.025c.204 .086 .418 .147 .621 .237c.11 .044 .207 .112 .285 .2c.19 .233 .283 .51 .365 .793c.016 .057 .002 .12 .002 .182c-.145 .063 -.256 -.006 -.37 -.048c-.19 -.07 -.378 -.146 -.57 -.2a.903 .903 0 0 0 -.31 -.013c-.083 .006 -.168 .03 -.196 .159c.057 .033 .116 .092 .183 .106c.188 .042 .341 .134 .496 .25c.115 .085 .28 .108 .427 .146c.078 .018 .162 .012 .241 .018l-.002 .044c-.075 .02 -.149 .036 -.224 .057a.76 .76 0 0 1 -.72 -.136c-.38 -.283 -.834 -.414 -1.31 -.444a2.697 2.697 0 0 1 -1.11 -.34c-.051 -.03 -.095 -.076 -.173 -.136c.09 -.05 .15 -.09 .218 -.116c.3 -.115 .605 -.213 .9 -.336c.282 -.12 .557 -.255 .827 -.398zm4.915 1.01c-.009 .34 -.22 .555 -.49 .498c-.009 -.196 .175 -.384 .49 -.497v-.001zm-1.15 -.472c.033 -.015 .098 .004 .127 .03c.13 .127 .17 .568 .065 .756c-.13 -.054 -.167 -.163 -.195 -.265a2.433 2.433 0 0 1 -.065 -.408c-.004 -.038 .034 -.1 .067 -.113h.001zm-1.733 -.247c.038 -.023 .12 -.02 .155 .006a.46 .46 0 0 1 .153 .189c.042 .117 .057 .242 .088 .389c-.03 .087 -.054 .194 -.1 .292c-.015 .032 -.082 .065 -.118 .059c-.033 -.006 -.077 -.06 -.086 -.1c-.052 -.228 -.098 -.46 -.136 -.693c-.008 -.046 .01 -.121 .044 -.142zm3.453 -.482l.052 .02a.82 .82 0 0 1 .356 .393a.136 .136 0 0 1 -.013 .113c-.113 .16 -.379 .153 -.475 -.02c-.046 -.08 -.06 -.18 -.082 -.244c.01 -.075 .01 -.117 .021 -.154c.03 -.1 .103 -.138 .193 -.088l-.052 -.02zm-6.565 -.516c.504 -.131 1.013 -.196 1.533 -.106c.224 .037 .427 .11 .576 .303c.12 .155 .303 .186 .49 .199c.132 .008 .264 .02 .392 .052c.073 .019 .138 .075 .205 .115l-.01 .05c-.072 .013 -.143 .036 -.214 .038c-.31 .01 -.608 -.067 -.905 -.147a7.043 7.043 0 0 0 -.876 -.194c-.408 -.055 -.804 .046 -1.19 .18c-.135 .046 -.248 .119 -.26 .29c-.005 .105 -.072 .182 -.164 .228a.859 .859 0 0 1 -.51 .082c-.131 -.02 -.162 -.086 -.097 -.207a.977 .977 0 0 1 .134 -.186c.134 -.142 .27 -.285 .41 -.42a1.1 1.1 0 0 1 .486 -.277zm1.671 -1.11c.071 .002 .144 .01 .216 .014a.462 .462 0 0 0 .01 .053c-.069 .035 -.136 .08 -.21 .106c-.21 .073 -.423 .147 -.638 .203c-.583 .15 -1.141 .36 -1.671 .649a2.208 2.208 0 0 1 -.302 .142c-.13 .046 -.19 .014 -.251 -.111c-.065 -.132 -.06 -.27 .052 -.364c.126 -.107 .264 -.215 .417 -.268a7.34 7.34 0 0 1 .868 -.23c.495 -.107 .994 -.215 1.51 -.194zm3.718 .642c.08 -.111 .41 -.1 .467 .025c.021 .046 .004 .12 -.02 .17c-.045 .087 -.128 .127 -.242 .15c-.067 -.042 -.144 -.075 -.196 -.134c-.055 -.056 -.06 -.14 -.009 -.211zm-1.63 -.428l.042 .012a.85 .85 0 0 1 .495 .489l-.036 .05c-.052 -.006 -.115 .002 -.155 -.023a3.973 3.973 0 0 1 -.432 -.288c-.037 -.03 -.062 -.118 -.048 -.164c.023 -.073 .107 -.094 .176 -.064l-.042 -.012zm-5.6 .04c.038 -.022 .12 -.026 .144 -.001c.028 .027 .036 .108 .015 .146a.51 .51 0 0 1 -.408 .276c-.015 -.228 .106 -.337 .249 -.42v-.001zm6.6 -.263c.06 -.094 .144 -.09 .19 .013c.036 .08 .046 .173 .067 .255c-.017 .077 -.023 .146 -.048 .21c-.027 .07 -.086 .11 -.165 .097c-.078 -.012 -.128 -.056 -.139 -.135a.672 .672 0 0 1 .095 -.44zm-6.474 -.736c.23 -.266 .496 -.395 .869 -.316c.373 .08 .758 .092 1.14 .138c.07 .009 .14 .034 .208 .05l-.006 .07c-.504 .148 -1.028 .066 -1.547 .1c.178 .282 .452 .414 .756 .374c.09 -.012 .18 -.02 .27 -.014a.098 .098 0 0 1 .04 .014l.075 .055l-.092 .125c-.002 .004 -.012 .006 -.02 .006c-.328 .017 -.6 .216 -.914 .283c-.143 .03 -.283 .07 -.427 .096c-.04 .006 -.116 -.013 -.126 -.04c-.02 -.042 -.013 -.115 .014 -.148a.303 .303 0 0 1 .054 -.05l.127 -.084c.062 -.044 .136 -.08 .178 -.138a.2 .2 0 0 0 .014 -.17c-.014 -.033 -.094 -.056 -.142 -.054c-.096 .004 -.193 .036 -.29 .044c-.102 .008 -.223 .03 -.278 -.084c-.05 -.102 .034 -.184 .097 -.257zm20.572 -1.717c-.59 .113 -1.18 .215 -1.768 .328a4.35 4.35 0 0 0 -.486 .124c-.189 .058 -.22 .177 -.09 .328c.046 .052 .1 .104 .16 .13c.141 .056 .29 .094 .434 .14c.111 .035 .233 .054 .333 .113c.21 .12 .254 .334 .124 .537c-.048 .076 -.12 .134 -.172 .21c-.046 .07 -.08 .152 -.13 .24c.061 .138 .105 .27 .174 .387c.107 .18 .172 .194 .323 .048c.61 -.584 1.21 -1.175 1.816 -1.763c.057 -.057 .075 -.113 .036 -.186c-.07 -.13 -.13 -.264 -.206 -.387a.483 .483 0 0 0 -.548 -.25zm-36.712 -.176c-.1 .06 -.195 .136 -.274 .222c-.218 .233 -.37 .502 -.513 .782l-.212 .427c.07 .044 .128 .08 .189 .113c.337 .182 .672 .368 1.013 .54a27 27 0 0 0 1.016 .489c.218 .098 .275 .088 .396 -.115c.162 -.268 .315 -.542 .436 -.83c.195 -.46 .224 -.547 -.222 -1.013c-.004 -.004 -.01 -.008 -.015 -.015c-.167 -.163 -.36 -.232 -.593 -.17a.578 .578 0 0 1 -.102 .016c-.111 .01 -.195 -.01 -.254 -.13a.875 .875 0 0 0 -.211 -.253c-.21 -.184 -.417 -.203 -.654 -.063zm15.556 2.04c.032 .004 .065 .006 .099 .012c.096 .019 .173 .063 .188 .165c.013 .094 -.05 .16 -.128 .195a.603 .603 0 0 1 -.215 .058c-.134 .007 -.22 -.083 -.233 -.213c-.013 -.123 .05 -.188 .2 -.21c.028 -.003 .058 -.003 .089 -.006zm-14.389 -.884c.153 -.007 .268 .136 .27 .33c0 .17 -.081 .262 -.228 .257c-.16 -.004 -.344 -.133 -.348 -.242c-.004 -.153 .16 -.341 .306 -.345zm14.85 -.145c.44 -.008 .876 .044 1.305 .134c.073 .017 .14 .05 .21 .075v.04c-.04 .015 -.08 .04 -.12 .044a5.19 5.19 0 0 1 -1.414 -.01c-.09 -.013 -.207 -.017 -.224 -.145c-.01 -.083 .08 -.136 .243 -.138zm20.467 -.1c-.073 .146 -.19 .232 -.297 .324c-.095 .082 -.147 .073 -.208 -.01c-.07 -.097 -.062 -.195 .036 -.247a.66 .66 0 0 1 .47 -.067zm-36.207 -.211c.058 .052 .08 .15 .096 .19c.002 .186 -.082 .345 -.163 .36c-.067 .012 -.285 -.122 -.317 -.21c-.05 -.14 .067 -.21 .147 -.288c.065 -.063 .155 -.13 .237 -.052zm18.02 -.557c-.046 .07 -.06 .11 -.09 .126c-.183 .1 -.26 .238 -.18 .445c.014 .034 -.001 .08 -.003 .117c-.193 .01 -.358 -.12 -.5 -.407c.225 -.164 .447 -.293 .773 -.28v-.001zm-2.16 .03l.07 .006c.357 .04 .669 .19 .945 .412c.03 .025 .046 .063 .086 .117c-.077 .01 -.128 .03 -.18 .025a3.064 3.064 0 0 1 -.917 -.188a.76 .76 0 0 1 -.216 -.124c-.038 -.03 -.078 -.106 -.063 -.138c.02 -.046 .086 -.085 .138 -.1a.574 .574 0 0 1 .208 -.004l-.07 -.006zm-14.904 -2.416c-.291 .31 -.3 .372 -.052 .715c.427 .594 .86 1.182 1.292 1.772c.044 .06 .094 .119 .149 .186c.172 -.08 .25 -.216 .348 -.333c.092 -.108 .098 -.226 .03 -.35l-.17 -.311c-.066 -.125 -.05 -.236 .043 -.345c.193 -.232 .287 -.263 .583 -.165c.255 .084 .343 .059 .509 -.146c.213 -.266 .194 -.366 -.118 -.484c-.647 -.24 -1.295 -.476 -1.944 -.707c-.387 -.138 -.387 -.133 -.67 .168zm33.484 -1.103c-.056 .038 -.105 .065 -.149 .099c-.469 .362 -.938 .723 -1.405 1.087a5.27 5.27 0 0 0 -.348 .302a.74 .74 0 0 0 -.132 .159c-.073 .12 -.044 .248 .076 .378c.09 .096 .17 .12 .3 .046c.14 -.075 .27 -.171 .4 -.265c.175 -.126 .345 -.26 .52 -.387c.034 -.026 .08 -.036 .143 -.063c-.014 .073 -.014 .123 -.03 .165c-.083 .207 -.167 .412 -.253 .62c-.075 .18 -.159 .355 -.228 .537a.718 .718 0 0 0 -.05 .263c.006 .197 .121 .34 .283 .437c.134 .082 .24 -.016 .343 -.083c.593 -.38 1.16 -.795 1.695 -1.255c.207 -.178 .211 -.312 .038 -.513c-.116 -.134 -.197 -.152 -.344 -.058c-.186 .12 -.367 .255 -.549 .383l-.39 .274c-.012 -.013 -.027 -.023 -.04 -.036c.064 -.153 .13 -.305 .191 -.458c.11 -.27 .225 -.54 .323 -.814a.408 .408 0 0 0 .004 -.26c-.086 -.212 -.234 -.388 -.398 -.558zm-18.425 2.893c.04 -.056 .099 -.035 .147 0c.2 .145 .434 .134 .66 .155c.11 .01 .222 0 .333 .013c.077 .008 .153 .037 .228 .058c0 .019 .002 .036 .004 .055c-.07 .03 -.138 .077 -.211 .087c-.377 .059 -.731 -.027 -1.068 -.194a.18 .18 0 0 1 -.036 -.021c-.048 -.04 -.11 -.082 -.057 -.153zm-.47 -.376c.1 0 .188 .09 .183 .188c-.004 .096 -.11 .182 -.22 .18a.152 .152 0 0 1 -.155 -.16c0 -.108 .09 -.208 .19 -.208h.002zm1.916 -.435c.138 -.015 .144 -.013 .502 .186c.165 .09 .328 .184 .49 .28c.157 .092 .33 .167 .45 .333c-.306 -.032 -1.283 -.58 -1.442 -.8zm-15.834 -.406c.137 .048 .277 .088 .407 .15c.163 .078 .165 .153 .019 .306c-.2 -.09 -.323 -.264 -.46 -.423c.01 -.01 .024 -.02 .034 -.033zm2.38 -3.882a.328 .328 0 0 0 -.222 .533c.038 .05 .078 .098 .122 .144c.157 .17 .316 .335 .47 .505c.05 .06 .1 .125 .154 .188l-.032 .046c-.153 -.042 -.308 -.08 -.46 -.124a38.818 38.818 0 0 1 -.845 -.238a.399 .399 0 0 0 -.356 .067c-.08 .054 -.157 .117 -.222 .188c-.188 .203 -.2 .28 -.012 .477c.488 .508 .984 1.006 1.48 1.506a.65 .65 0 0 0 .206 .14c.05 .02 .13 .025 .174 0c.14 -.086 .268 -.19 .364 -.335c-.333 -.378 -.727 -.69 -1.003 -1.108c.107 .004 .2 .02 .295 .044c.304 .08 .603 .176 .91 .24c.16 .034 .334 .046 .496 .023c.272 -.041 .368 -.276 .228 -.512c-.06 -.1 -.128 -.2 -.207 -.29c-.36 -.396 -.725 -.791 -1.092 -1.183a2.354 2.354 0 0 0 -.297 -.261c-.04 -.031 -.103 -.06 -.15 -.05h-.001zm28.528 .34c-.188 0 -.356 .076 -.513 .164c-.53 .293 -1.058 .594 -1.586 .893a1.32 1.32 0 0 0 -.188 .132c-.189 .155 -.176 .349 .033 .472c.065 .04 .142 .06 .218 .055c.13 -.015 .262 -.044 .381 -.092c.18 -.073 .325 -.052 .45 .096l.086 .092c.095 .094 .11 .207 .074 .328a.99 .99 0 0 1 -.06 .155c-.114 .22 -.055 .4 .116 .563c.208 .199 .296 .199 .426 -.052c.335 -.65 .655 -1.308 .98 -1.962c.031 -.063 .05 -.13 .071 -.197a.519 .519 0 0 0 -.488 -.646v-.001zm-.459 .848c.084 .178 .004 .353 -.224 .502c-.09 -.048 -.098 -.126 -.075 -.214c.033 -.13 .134 -.223 .3 -.288zm-25.321 -3.331c-.143 .114 -.287 .227 -.431 .339a.489 .489 0 0 0 -.197 .477c.015 .117 .03 .234 .042 .353c.01 .12 .04 .247 -.076 .4a20.977 20.977 0 0 0 -.228 -.262c-.084 -.092 -.16 -.197 -.255 -.272c-.116 -.088 -.252 -.07 -.367 .025c-.117 .096 -.15 .186 -.094 .333c.035 .096 .08 .194 .14 .278c.356 .517 .714 1.03 1.077 1.542c.056 .077 .128 .148 .205 .207a.26 .26 0 0 0 .172 .05c.32 -.055 .43 -.322 .245 -.588c-.04 -.056 -.084 -.11 -.124 -.17c-.042 -.064 -.088 -.127 -.115 -.198c-.02 -.052 -.038 -.138 -.01 -.17c.029 -.035 .115 -.045 .17 -.033c.112 .027 .223 .07 .332 .115c.124 .05 .24 .115 .365 .157c.21 .07 .41 .052 .589 -.1c.215 -.187 .209 -.302 -.05 -.431c-.273 -.136 -.556 -.258 -.834 -.383c-.158 -.071 -.317 -.14 -.476 -.21l-.08 -1.46zm21.695 -.555c-.025 .05 -.044 .08 -.056 .11c-.279 .773 -.555 1.547 -.838 2.317a.293 .293 0 0 0 .077 .34c.044 .045 .094 .084 .145 .12c.224 .153 .314 .15 .523 -.02c.135 -.11 .26 -.231 .392 -.346c.134 -.12 .273 -.234 .41 -.35l.04 .028c-.008 .03 -.012 .065 -.025 .096c-.054 .157 -.119 .312 -.167 .473c-.053 .173 -.11 .347 -.13 .525c-.038 .35 .201 .537 .524 .403a2.08 2.08 0 0 0 .525 -.332c.482 -.412 .952 -.841 1.425 -1.263c.04 -.036 .071 -.08 .121 -.134l-.567 -.465l-1.023 1c-.016 -.027 -.023 -.033 -.023 -.038c.086 -.248 .174 -.5 .258 -.748c.044 -.132 .084 -.266 .124 -.398a.252 .252 0 0 0 -.059 -.25c-.237 -.27 -.423 -.287 -.695 -.055c-.09 .077 -.176 .159 -.264 .238c-.134 .124 -.264 .25 -.4 .368c-.049 .044 -.107 .078 -.16 .115c.113 -.487 .338 -.918 .528 -1.367c-.228 -.155 -.417 -.331 -.685 -.367zm-2.06 -.924c-.529 -.004 -.774 .213 -.82 .642c-.036 .316 .061 .59 .27 .826c.088 .099 .174 .2 .25 .308a.52 .52 0 0 1 .083 .188c.03 .13 -.02 .199 -.15 .178a1.501 1.501 0 0 1 -.374 -.124c-.132 -.06 -.253 -.148 -.383 -.21c-.05 -.024 -.128 -.036 -.176 -.013c-.268 .123 -.304 .45 -.056 .596c.245 .144 .507 .26 .768 .372c.156 .069 .333 .07 .49 .004c.503 -.213 .855 -.65 .457 -1.288c-.058 -.094 -.132 -.18 -.199 -.268c-.058 -.077 -.12 -.153 -.176 -.234a.516 .516 0 0 1 -.069 -.15c-.033 -.118 .015 -.18 .134 -.166a.943 .943 0 0 1 .24 .067c.102 .042 .2 .096 .303 .14c.197 .086 .283 .052 .406 -.157c.1 -.167 .08 -.282 -.092 -.39c-.308 -.185 -.639 -.311 -.907 -.321zm-16.117 -.2c-.478 .05 -.794 .32 -.94 .775c-.162 .51 -.081 .994 .215 1.435c.327 .49 .884 .682 1.45 .519c.59 -.174 .986 -.682 .959 -1.362c-.01 -.255 -.12 -.602 -.32 -.922a.902 .902 0 0 0 -.72 -.446c-.215 -.02 -.43 -.02 -.644 0zm.536 .7c.314 .24 .475 .784 .35 1.154c-.086 .25 -.315 .356 -.574 .256a.71 .71 0 0 1 -.241 -.16c-.235 -.231 -.337 -.524 -.363 -.832c.007 -.222 .06 -.4 .262 -.502c.208 -.104 .394 -.048 .566 .084zm12.111 -1.387c-.065 .182 -.03 .262 .16 .339c.077 .03 .156 .056 .232 .092c.182 .088 .205 .134 .155 .328c-.04 .155 -.086 .308 -.132 .463c-.099 .334 -.208 .665 -.294 1.002c-.073 .284 .023 .42 .306 .485c.168 .04 .245 .006 .32 -.155c.053 -.12 .093 -.247 .133 -.372c.117 -.38 .228 -.76 .347 -1.138c.068 -.214 .105 -.237 .336 -.218c.075 .002 .15 .013 .228 .02c.182 .007 .26 -.05 .304 -.22c.044 -.168 .008 -.258 -.153 -.34a1.793 1.793 0 0 0 -.273 -.106l-1.238 -.387c-.243 -.077 -.347 -.027 -.43 .207zm-9.111 -.38c-.39 .033 -.773 .114 -1.138 .259c-.245 .096 -.276 .163 -.22 .418c.145 .653 .29 1.305 .446 1.954c.099 .412 .15 .435 .562 .31c.205 -.06 .245 -.13 .192 -.337c-.04 -.155 -.087 -.31 -.113 -.467c-.042 -.25 -.012 -.284 .222 -.366c.158 -.054 .317 -.11 .468 -.18c.13 -.063 .146 -.146 .092 -.278c-.078 -.186 -.19 -.245 -.402 -.2c-.07 .014 -.138 .03 -.198 .045l-.152 .038c-.218 .004 -.281 -.038 -.31 -.163c-.03 -.13 .014 -.24 .136 -.295c.075 -.036 .159 -.048 .239 -.073l.254 -.075a1.15 1.15 0 0 0 .123 -.047c.132 -.06 .16 -.155 .127 -.295c-.046 -.186 -.136 -.265 -.328 -.25v.003zm5.774 .547c-.07 .189 -.122 .387 -.145 .586c-.077 .655 .323 1.224 .97 1.397c.652 .176 1.297 -.121 1.55 -.738l.07 -.21l.102 -.43c-.02 -.617 -.247 -1.318 -1.125 -1.41c-.62 -.065 -1.18 .144 -1.422 .805zm-2.517 -.991c-.39 .067 -.45 .109 -.448 .504c.01 .743 .029 1.487 .046 2.232c0 .019 .008 .04 .023 .092c.473 .004 .934 -.015 1.392 -.115c.524 -.113 .775 -.743 .505 -1.167a.92 .92 0 0 1 -.12 -.622c.015 -.11 .02 -.221 .032 -.332c.02 -.18 -.05 -.303 -.218 -.385c-.386 -.19 -.78 -.282 -1.212 -.207zm3.784 .81c.26 0 .37 .073 .444 .322c.122 .405 .04 .773 -.24 1.087c-.22 .247 -.489 .226 -.69 -.037c-.239 -.312 -.253 -.84 -.03 -1.161c.1 -.145 .263 -.212 .516 -.212zm-3.306 .815c.17 .013 .332 .17 .332 .316c-.002 .17 -.138 .305 -.32 .32c-.155 .013 -.195 -.023 -.205 -.184v-.105c-.006 .002 -.01 .002 -.013 0c.015 -.081 .023 -.163 .046 -.242c.02 -.073 .08 -.111 .16 -.105zm-.007 -1.054a.21 .21 0 0 1 .222 .153a.253 .253 0 0 1 -.083 .28c-.067 .054 -.158 .077 -.325 .07c0 -.114 -.006 -.216 .002 -.32c.01 -.12 .073 -.177 .184 -.183zm1.935 17.555c.136 .02 .28 .015 .417 .005a.368 .368 0 0 0 .12 -.028c.066 -.03 .1 -.082 .093 -.144c-.012 -.125 -.12 -.12 -.207 -.125c-.21 -.017 -.417 -.023 -.626 -.036a14.63 14.63 0 0 1 -.604 -.046c-.054 -.004 -.106 -.04 -.2 -.08c.091 -.073 .148 -.12 .207 -.163c.058 -.044 .117 -.085 .18 -.131a.674 .674 0 0 0 -.518 -.377c-.358 -.067 -.72 -.058 -1.082 -.033a.345 .345 0 0 0 -.022 .002l-.037 .007l-.022 .006l-.127 .04l.134 -.042l.015 -.004l.019 -.004a.402 .402 0 0 1 .018 -.003l.029 -.004c.36 -.026 .721 -.034 1.082 .033c.224 .04 .402 .144 .517 .376c-.06 .046 -.12 .088 -.18 .132c-.059 .044 -.115 .09 -.207 .163c.094 .038 .146 .074 .2 .08c.202 .02 .403 .033 .604 .046c.21 .012 .42 .019 .626 .035c.084 .009 .195 0 .208 .126c.005 .064 -.03 .116 -.1 .146a.379 .379 0 0 1 -.127 .03a2.14 2.14 0 0 1 -.416 -.005a3.232 3.232 0 0 0 -1.09 .046c.36 -.07 .723 -.1 1.096 -.048z" />
</svg>
