---
version: "0.5"
---
<svg>
  <path d="M8.736 16.098a2.473 2.473 0 0 0 .877 1.052c1.135 .828 2.925 .943 4.585 .151c1.394 -.663 2.35 -1.794 2.666 -2.975c.036 -.123 .072 -.252 .086 -.375v-.007a1.958 1.958 0 0 0 -.28 -1.369c-.324 -.475 -.848 -.756 -1.459 -.835c.374 .201 .668 .49 .848 .857c.172 .353 .223 .756 .165 1.145c-.122 .872 -.726 1.578 -.833 1.693c-.942 1.023 -1.962 1.369 -2.135 1.434c-1.61 .677 -3.356 .31 -4.089 -.937c-.302 -.518 -.388 -1.11 -.294 -1.707a2.95 2.95 0 0 1 .215 -.75c.194 -.496 .618 -1.022 .913 -1.34c.093 -.107 .481 -.46 .604 -.554c.69 -.555 1.3 -.821 1.365 -.85c1.028 -.468 1.502 -.562 1.89 -.655c.604 -.152 1.617 -.224 1.746 -.224a9.1 9.1 0 0 1 1.682 .101c.287 .05 .862 .18 .862 .18c.187 .05 .374 .094 .568 .13c.453 .086 .92 .151 1.408 .18c1.869 .108 3.58 -.288 4.851 -1.001c-.036 .028 -.072 .064 -.108 .093c-1.782 1.11 -3.73 3.645 -5.246 6.952c-.366 .065 -1.272 .26 -2.472 .735c-1.875 .742 -3.442 1.822 -3.787 2.572c.532 -.649 2.005 -1.492 3.845 -2.133c.912 -.317 1.782 -.54 2.537 -.663c1.386 -.208 3.463 -.403 5.892 -.554c.266 -.015 .906 -.05 .942 -.05c0 0 1.847 -.066 3.01 -.346c.022 -.008 .037 -.015 .058 -.015c.424 -.094 .877 -.23 1.344 -.432a9.87 9.87 0 0 0 .877 -.454c.028 -.014 .108 -.065 .115 -.065c.682 -.396 1.372 -.9 2.04 -1.513c1.222 -1.116 2.128 -2.355 2.616 -3.486c.065 -.159 .194 -.461 .194 -.461a4.82 4.82 0 0 0 .094 -.296c.395 -1.246 .36 -2.247 -.201 -2.708c-.403 -.288 -.992 -.317 -1.69 -.101h-.013c-.03 .007 -.058 .021 -.094 .029c-.043 .014 -.086 .028 -.122 .043c-.115 .043 -.23 .086 -.345 .137c-.014 .007 -.022 .014 -.036 .021a4.942 4.942 0 0 0 -.388 .195c-1.236 .655 -2.666 1.858 -3.967 3.443c-.136 .166 -.38 .497 -.38 .497c-1.237 1.787 -2.954 5.043 -2.954 5.043c-.345 .029 -3.716 .209 -4.334 .26c.51 -1.002 .856 -1.665 .856 -1.665a58.08 58.08 0 0 1 2.853 -5.158c-.942 .937 -1.962 2.32 -2.86 3.962c-.216 .39 -.95 1.866 -1.481 2.91l-.481 .044l.898 -1.75a22.314 22.314 0 0 1 1.818 -3.084a20.863 20.863 0 0 1 2.35 -2.845a5.234 5.234 0 0 0 -.496 .245l.007 -.008c-1.214 .656 -2.953 .894 -4.8 .548c-.503 -.094 -1.696 -.476 -1.826 -.512c-1.43 -.396 -3.24 -.367 -5.102 .21a10.396 10.396 0 0 0 -2.975 1.44c-.158 .101 -.316 .21 -.467 .332c-1.387 1.087 -2.185 2.571 -2.228 3.904c.015 .036 -.05 .67 .266 1.34c-.007 0 -.007 0 0 0m21.336 -1.78l.259 -.54c.072 -.158 .251 -.518 .259 -.533c.079 -.165 .265 -.533 .273 -.547c.093 -.173 .18 -.353 .273 -.533c.014 -.03 .028 -.05 .043 -.08c.093 -.18 .194 -.367 .295 -.554c.194 -.36 .402 -.72 .625 -1.074c.618 -1.023 1.847 -2.788 1.854 -2.795c.007 -.007 .014 -.014 .021 -.029c.008 -.007 .295 -.389 .755 -.742c.086 -.05 .266 -.136 .266 -.136c.294 -.123 .582 -.137 .783 0c.23 .158 .316 .482 .266 .871a.543 .543 0 0 1 -.007 .094c-.029 .18 -.072 .374 -.13 .569c0 .007 -.007 .014 -.007 .022c-.05 .194 -.115 .389 -.187 .583c-.373 1.045 -1.006 2.197 -1.868 3.3c-.252 .324 -.517 .633 -.79 .929c-.137 .144 -.28 .288 -.425 .432l-.064 .065c-.137 .137 -.28 .26 -.424 .382c-.015 .014 -.029 .021 -.043 .036c-.137 .115 -.273 .223 -.41 .331a.196 .196 0 0 1 -.043 .036c-.137 .108 -.28 .202 -.417 .295c-.029 .015 -.05 .036 -.079 .05c-.136 .094 -.273 .18 -.402 .253c-.015 .007 -.022 .014 -.036 .022c-.13 .072 -.252 .13 -.374 .187c-.021 .014 -.043 .021 -.072 .036a2.958 2.958 0 0 1 -.438 .166c-.122 .036 -.244 .072 -.352 .093c.057 -.086 .532 -1.059 .596 -1.188m-7.574 23.967c.244 -.281 .481 -.555 .697 -.836c.941 -1.167 2.113 -3.602 2.113 -3.602l4.527 -8.882a21.53 21.53 0 0 1 1.811 -3.083a22.457 22.457 0 0 1 2.343 -2.853c-.633 .266 -1.387 .8 -2.17 1.527c-1.646 1.304 -3.22 3.444 -4.909 6.909l-3.248 6.815l-.467 .886c-.216 .504 -.668 1.224 -1.193 2.024c-.453 .691 -1.567 1.902 -1.804 2.11l-.014 .015a9.89 9.89 0 0 1 -1.437 1.059c-.173 .1 -.353 .202 -.532 .295c-.065 .03 -.496 .252 -.783 .36c-.094 .037 -.647 .281 -1.344 .44c-.108 .022 -.697 .166 -1.351 .209c-.158 .007 -.317 .021 -.467 .014c0 0 -.54 -.014 -.798 -.05c-1.366 -.21 -2.472 -.915 -2.918 -2.024c-.79 -1.96 .77 -4.438 3.478 -5.533a7.255 7.255 0 0 1 1.48 -.418c.008 0 .511 -.093 .69 -.115c2.228 -.238 4.154 .648 4.298 1.988c.144 1.333 -1.552 2.615 -3.78 2.853c-1.876 .202 -3.536 -.396 -4.096 -1.383c.014 .065 .021 .122 .043 .187c.496 1.6 2.738 2.32 5.002 1.614c2.263 -.706 3.693 -2.58 3.198 -4.179c-.166 -.533 -.525 -.958 -1.007 -1.275c-1.48 -1.03 -3.823 -1.21 -6.08 -.295c-3.147 1.268 -4.943 4.164 -4.016 6.47c.496 1.231 1.667 2.038 3.126 2.333c.424 .087 1.516 .26 3.111 -.014a11.22 11.22 0 0 0 1.898 -.505c1.674 -.59 3.09 -1.49 4.11 -2.52c.18 -.203 .489 -.541 .489 -.541m9.622 -15.697a52.996 52.996 0 0 1 1.689 -2.904c-.941 .937 -1.955 2.32 -2.853 3.963c-.215 .389 -.41 .785 -.596 1.167l-5.088 9.977c-.33 .713 -.805 1.534 -1.402 2.37c-1.128 1.592 -2.35 2.774 -3.118 3.105c.819 -.123 2.235 -1.268 3.528 -2.925a13.462 13.462 0 0 0 1.409 -2.204c.028 -.036 6.014 -11.779 6.431 -12.55m3.809 5.814c-2.17 -1.556 -5.52 -.598 -7.488 2.14c2.27 -2.118 5.052 -2.824 6.575 -1.535c.705 .605 1.028 1.55 1.006 2.644c0 .058 -.007 .108 -.014 .159l-.022 .31a6.9 6.9 0 0 1 -.194 1.037a11.245 11.245 0 0 1 -1.056 2.492c-.51 .894 -1.25 1.816 -2.185 2.658c-.158 .145 -.574 .49 -.618 .526c-.122 .094 -.46 .346 -.51 .382c-.122 .087 -.453 .31 -.496 .332l-.488 .295c-.144 .086 -.288 .158 -.431 .23c-.015 .008 -.03 .022 -.05 .03c-1.007 .49 -1.51 .554 -1.539 .568c-.927 .216 -1.717 .152 -2.249 -.245c-.007 -.007 -.208 -.18 -.216 -.201c-.344 -.433 -.388 -.822 -.402 -.908c-.122 -.728 .08 -1.635 .575 -2.55c.481 -.908 1.229 -1.866 2.192 -2.745c.064 -.057 .13 -.122 .194 -.187c.345 -.303 .69 -.576 1.035 -.836c1.516 -1.03 3.032 -1.347 3.614 -.67c.245 .288 .288 .713 .166 1.218c.309 -.476 .41 -.973 .23 -1.398c-.324 -.742 -1.416 -1.008 -2.588 -.699c0 0 -.56 .173 -1.063 .447c-.683 .346 -1.358 .807 -2.005 1.354c-2.71 2.342 -3.751 5.583 -2.328 7.233c.833 .965 2.328 1.167 3.966 .706c1.287 -.317 2.753 -1.045 4.154 -2.14c1.682 -1.318 2.882 -2.874 3.406 -4.235c1.057 -2.45 .647 -5.108 -1.171 -6.412m6.575 -12.001a9.56 9.56 0 0 1 -2.86 .54c-1.969 .072 -5.31 .014 -5.31 .014c-.762 .015 -4.614 -.173 -5.203 -.18c-.855 -.007 -1.76 -.029 -2.702 0c-2.846 .101 -5.383 .382 -7.115 .735c-.402 .08 -1.185 .288 -1.243 .302c-1.38 .39 -2.594 .93 -3.543 1.535c-.539 .331 -.999 .699 -1.358 1.102a4.47 4.47 0 0 0 -.23 .281a4.905 4.905 0 0 0 -.237 .36c-.31 .54 -.431 1.095 -.31 1.636c.245 1.123 1.474 1.887 3.12 2.125l-.324 .626c-.222 .505 -.668 1.225 -1.193 2.025c-.46 .698 -1.566 1.909 -1.803 2.118c-.007 0 -.015 .007 -.015 .014a9.998 9.998 0 0 1 -1.437 1.052c-.18 .108 -.352 .209 -.532 .295c-.064 .029 -.129 .058 -.194 .094c-.905 .44 -1.437 .569 -1.926 .699c-.1 .028 -.208 .05 -.309 .072c-.064 .014 -.136 .021 -.208 .036c-.539 .108 -1.308 .13 -1.308 .13c-1.725 -.015 -3.183 -.764 -3.715 -2.083c-.784 -1.966 .769 -4.444 3.478 -5.532c.1 -.058 .215 -.101 .323 -.137c.69 -.274 1.66 -.382 1.84 -.403c2.228 -.238 4.154 .648 4.297 1.98c.144 1.333 -1.552 2.616 -3.78 2.853c-1.875 .202 -3.535 -.396 -4.096 -1.383c.015 .058 .029 .123 .043 .18c.496 1.6 2.731 2.327 4.995 1.614c2.263 -.706 3.694 -2.58 3.198 -4.178c-.166 -.533 -.525 -.958 -1.006 -1.275c-1.48 -1.03 -3.816 -1.21 -6.08 -.303c-3.148 1.268 -4.944 4.171 -4.017 6.476c.395 .987 1.229 1.7 2.292 2.104c.884 .382 2.163 .389 2.163 .389c.381 0 .77 -.029 1.172 -.08c.819 -.093 1.66 -.295 2.508 -.59c1.674 -.59 3.097 -1.491 4.11 -2.521c.187 -.195 .496 -.526 .496 -.526c.244 -.281 .482 -.562 .697 -.836c.611 -.75 1.308 -2.024 1.732 -2.838c.151 0 .316 -.015 .467 -.03c-.036 .073 -.33 .656 -.453 .887c-.287 .54 -.646 1.11 -1.063 1.693c-1.128 1.592 -2.35 2.78 -3.119 3.105c.82 -.123 2.235 -1.268 3.529 -2.925a14.12 14.12 0 0 0 1.214 -1.83h.007s.158 -.302 .23 -.446c.08 -.152 .173 -.34 .288 -.555c.23 -.036 .46 -.072 .69 -.13a9.493 9.493 0 0 0 2.206 -.785c.079 -.043 .33 -.173 .373 -.195h-.007c1.157 -.691 1.79 -1.757 1.445 -2.55c-.252 -.576 -.963 -.871 -1.833 -.843c.453 .144 .79 .404 .927 .764c.367 .958 -.747 2.27 -2.486 2.94c-.166 .057 -.33 .114 -.489 .165c-.237 .072 -.546 .122 -.575 .13c.762 -1.484 1.948 -3.811 2.975 -5.821c.259 -.022 .518 -.043 .604 -.058c.61 -.057 2.63 -.086 3.09 -.072c.223 .007 .438 .015 .647 .029l-5.304 10.474l-.718 1.384c-.03 .064 -.058 .13 -.08 .187c-.136 .367 -.136 .77 .058 1.095c.13 .23 .338 .396 .568 .49c.108 .065 .273 .1 .474 .1h.029c.489 0 1.193 -.165 1.933 -.49c.769 -.33 1.394 -.756 1.71 -1.13c.007 -.008 .381 -.461 .388 -.461c-.007 .007 -.33 .324 -.517 .504a1.597 1.597 0 0 1 -.467 .302l-.065 .022s-.007 0 -.014 .007a.784 .784 0 0 1 -.848 -.26a.313 .313 0 0 1 -.043 -.05c-.007 -.007 -.007 -.014 -.015 -.014a.616 .616 0 0 1 -.115 -.274a.67 .67 0 0 1 -.021 -.173c0 -.072 .014 -.144 .029 -.208c.043 -.21 .115 -.382 .129 -.418l5.31 -10.907l.036 -.065c.475 .015 .956 .03 1.438 .05c3.823 .18 7.402 .152 9.335 -.064c.086 -.007 .172 -.022 .258 -.029c.662 -.086 1.186 -.194 1.538 -.324c.252 -.072 .496 -.144 .748 -.23c2.637 -.93 4.592 -2.608 5.145 -4.237c-.84 1.095 -2.25 2.104 -3.996 2.724m-26.783 8.046c-1.588 -.151 -2.76 -.785 -2.946 -1.736c-.266 -1.311 1.401 -2.78 3.816 -3.458c.309 -.086 .64 -.173 1.006 -.252c.316 -.065 .575 -.108 .92 -.173l-2.796 5.62zm1.905 -.043a5.684 5.684 0 0 1 -.482 .043c.093 -.187 2.982 -5.864 2.982 -5.864c.022 -.007 .475 -.05 .489 -.057c-1.05 2.067 -2.25 4.423 -2.99 5.878" />
</svg>
