<svg>
  <path d="M3.586 13.353c.504 0 .946-.18 1.325-.541.38-.36.57-.786.57-1.276 0-.376-.122-.733-.365-1.073-.243-.339-.627-.7-1.152-1.085-.525-.385-.86-.662-1.007-.832a.885.885 0 0 1-.218-.595.73.73 0 0 1 .232-.558.807.807 0 0 1 .574-.218c.228 0 .426.056.596.168.17.112.377.331.62.658l.628-.49c-.267-.376-.54-.659-.82-.85a1.701 1.701 0 0 0-.983-.286c-.486 0-.882.153-1.189.459-.306.306-.46.68-.46 1.122a1.715 1.715 0 0 0 .497 1.2c.173.18.49.446.951.794.462.348.787.642.975.881.188.24.282.493.282.759 0 .267-.112.5-.337.7-.224.2-.494.3-.81.3-.492 0-.935-.367-1.33-1.1l-.665.382c.504.987 1.2 1.48 2.086 1.48Zm4.855 0 1.93-4.97 1.895 4.97h.228l1.913-6.814h-.81l-1.313 4.715-1.803-4.715h-.219l-1.821 4.706-1.285-4.706h-.81l1.876 6.814h.219Zm7.724-.164V6.54h-.784v6.65h.784Zm2.76.164c.504 0 .945-.18 1.325-.541.38-.36.57-.786.57-1.276 0-.376-.122-.733-.365-1.073-.243-.339-.627-.7-1.152-1.085-.526-.385-.861-.662-1.007-.832a.885.885 0 0 1-.219-.595.73.73 0 0 1 .233-.558.807.807 0 0 1 .574-.218c.227 0 .426.056.596.168.17.112.377.331.62.658l.628-.49c-.267-.376-.54-.659-.82-.85a1.701 1.701 0 0 0-.983-.286c-.486 0-.882.153-1.19.459-.306.306-.46.68-.46 1.122a1.715 1.715 0 0 0 .497 1.2c.173.18.49.446.952.794.462.348.787.642.975.881.188.24.282.493.282.759 0 .267-.112.5-.337.7-.225.2-.495.3-.81.3-.492 0-.936-.367-1.33-1.1l-.665.382c.504.987 1.199 1.48 2.086 1.48Zm4.536 0c.504 0 .945-.18 1.325-.541.38-.36.57-.786.57-1.276 0-.376-.122-.733-.365-1.073-.243-.339-.627-.7-1.152-1.085-.526-.385-.861-.662-1.007-.832a.885.885 0 0 1-.219-.595.73.73 0 0 1 .233-.558.807.807 0 0 1 .574-.218c.227 0 .426.056.596.168.17.112.377.331.62.658l.628-.49c-.267-.376-.54-.659-.82-.85a1.701 1.701 0 0 0-.983-.286c-.486 0-.882.153-1.19.459-.306.306-.46.68-.46 1.122a1.715 1.715 0 0 0 .497 1.2c.173.18.49.446.952.794.462.348.787.642.975.881.188.24.282.493.282.759 0 .267-.112.5-.337.7-.225.2-.495.3-.81.3-.492 0-.936-.367-1.33-1.1l-.665.382c.504.987 1.199 1.48 2.086 1.48ZM3.003 22.275V17.45l4.226 4.825h.237v-6.651h-.774v4.888l-4.254-4.888h-.237v6.65h.802Zm6.185 0 1.02-2.226h2.75l1.03 2.226h.829L11.71 15.36h-.237l-3.152 6.915h.866Zm3.415-3.017h-2.03l1.02-2.244 1.01 2.244Zm4.682 3.017v-5.888h1.457v-.763h-3.716v.763h1.467v5.888h.792Zm2.96 0v-6.651h-.783v6.65h.783Zm4.605.163c.634 0 1.222-.154 1.762-.463.54-.31.966-.733 1.275-1.272.31-.54.465-1.125.465-1.758s-.157-1.22-.47-1.758a3.36 3.36 0 0 0-1.288-1.268 3.612 3.612 0 0 0-1.794-.459c-.62 0-1.198.155-1.736.464a3.38 3.38 0 0 0-1.27 1.276 3.493 3.493 0 0 0-.465 1.763c0 .633.155 1.217.465 1.753.31.536.738.957 1.284 1.263a3.568 3.568 0 0 0 1.772.459Zm-.023-.763a2.589 2.589 0 0 1-1.895-.79c-.528-.528-.792-1.171-.792-1.931s.256-1.405.77-1.935c.513-.53 1.152-.795 1.917-.795.747 0 1.386.263 1.917.79.532.527.797 1.178.797 1.953 0 .776-.262 1.42-.788 1.936-.525.514-1.167.772-1.926.772Zm5.51.6V17.45l4.227 4.825h.237v-6.651h-.775v4.888l-4.253-4.888h-.237v6.65h.801Zm6.185 0 1.02-2.226h2.751l1.03 2.226h.828l-3.106-6.915h-.237l-3.151 6.915h.865Zm3.416-3.017h-2.031l1.02-2.244 1.01 2.244Zm6.376 3.017v-.755H43.8v-5.896h-.793v6.65h3.307ZM4.078 31.36c.65 0 1.176-.183 1.58-.55a1.79 1.79 0 0 0 .606-1.385c0-.4-.108-.745-.324-1.036-.215-.29-.535-.515-.96-.672.497-.315.746-.763.746-1.345 0-.533-.183-.943-.55-1.231-.368-.288-.904-.432-1.608-.432H2.21v6.65h1.868Zm-.784-3.925h-.31v-1.962h.693c.832 0 1.248.3 1.248.899 0 .37-.135.64-.406.809-.27.17-.678.254-1.225.254Zm.438 3.162h-.747v-2.38h.3c.565 0 .955.028 1.17.086.216.057.398.144.547.259.149.115.261.246.337.395.076.148.114.32.114.513 0 .194-.064.385-.191.573a1.15 1.15 0 0 1-.51.417c-.213.091-.553.137-1.02.137Zm3.944.763 1.02-2.226h2.75l1.03 2.226h.829l-3.106-6.914h-.237L6.81 31.36h.866Zm3.415-3.016H9.06l1.02-2.245 1.011 2.245Zm3.88 3.016v-4.824l4.227 4.824h.237v-6.65h-.775v4.887l-4.253-4.888h-.237v6.65h.801Zm6.732 0v-2.944l2.778 2.944h1.038l-3.443-3.661 3.215-2.99h-1.074l-2.514 2.363v-2.363H20.9v6.65h.802Zm21.355.04h-3.743v3.447h-3.442v3.706h3.442V42h3.743v-3.447H46.5v-3.706h-3.442V31.4Zm2.43 4.333v1.935h-3.331v3.323h-1.94v-3.323h-3.332v-1.935h3.332V32.41h1.94v3.323h3.33Z"/>
</svg>
