<svg>
  <path d="m21.688 16.835.046-.05c2.876-2.971 6.633-4.54 10.496-4.54 3.862 0 7.616 1.569 10.499 4.54l.046.05H47l-.168-.244C43.475 11.836 37.9 9 32.23 9s-11.246 2.836-14.596 7.59l-.174.245h4.228Zm15.576 20.289.04-.025.882-3.46-.217.134c-.981.597-1.893.899-2.712.899-1.188 0-1.726-.629-1.726-2.025V23.13h3.745v-3.377h-3.745v-5.581l-3.6 1.928v3.653h-3.108v3.377h3.108v10.124c0 2.758 1.634 4.645 4.074 4.694 1.656.033 2.654-.461 3.26-.823Zm-25.876.892c2.551 0 4.627-.996 6.357-3.04l.056-.063-2.08-2.517-.083.08c-1.3 1.324-2.803 2.023-4.351 2.023-3.235 0-5.58-2.426-5.58-5.773 0-3.341 2.345-5.772 5.58-5.772 1.548 0 3.052.704 4.351 2.032l.083.08 2.08-2.516-.056-.067c-1.73-2.044-3.806-3.038-6.357-3.038-2.559 0-4.901.862-6.587 2.414C2.966 23.543 2 25.916 2 28.726c0 2.81.966 5.19 2.801 6.872 1.686 1.562 4.028 2.418 6.587 2.418Zm12.187-.343V19.735h-3.674v17.938h3.674Zm21.114 0V19.735H41.01v17.938h3.679Z"/>
</svg>
