<svg>
  <path d="M24.848 19.615a4.269 4.269 0 0 0-1.596.442 4.225 4.225 0 0 0-1.8 1.69c-.1.168-.148.233-.159.212-.293-.507-.442-.714-.72-.99-.685-.686-1.607-1.077-2.732-1.165a93.061 93.061 0 0 0-2.518-.021h-2.259v2.099c0 1.847.004 2.185.042 2.792l.042.717c0 .014-.023.027-.052.027-.044 0-.23-.302-1.741-2.818l-1.69-2.817h-3.22v2.696c0 2.954 0 2.929-.124 3.287-.137.398-.42.754-.725.913-.27.14-.43.174-.849.174-.325 0-.383-.006-.524-.048-.584-.182-.957-.624-1.112-1.314l-.048-.21-.006-2.75-.009-2.748H1.5v2.656c0 1.72.008 2.738.023 2.887.174 1.785 1.286 2.924 2.954 3.023 1.06.06 1.906-.228 2.554-.878a3.13 3.13 0 0 0 .725-1.131l.069-.178.002 1.01v1.011h1.55v-2.258c0-2-.006-2.332-.042-2.927-.052-.85-.054-.769.015-.76.05.006.23.295 1.837 2.977l1.779 2.97 2.453-.008c1.726-.006 2.51-.017 2.642-.033 1.439-.191 2.493-.849 3.121-1.95l.134-.235.072.144c.176.348.46.72.791 1.045a4.249 4.249 0 0 0 2.429 1.172 6.03 6.03 0 0 0 1.26 0 4.276 4.276 0 0 0 3.18-2.135l.116-.203.006 1.1.005 1.101h5.46l.353-1.005.352-1.006 1.615.004 1.616.007.347.995.35.995 1.249.006 1.248.004V25.02l.382.004.38.006 1.082 1.572 1.08 1.57.906.007.905.004v-.046c0-.029-.465-.71-1.13-1.661-.835-1.198-1.122-1.624-1.116-1.657.006-.036.048-.063.168-.113.599-.252 1.125-.731 1.397-1.276.166-.329.228-.614.226-1.029-.006-1.32-.859-2.313-2.206-2.568-.178-.034-.373-.038-1.92-.046l-1.725-.007-.002 3.107c0 2.014-.008 3.092-.02 3.065a975.89 975.89 0 0 1-1.17-3.1l-1.148-3.059h-1.812l-1.255 3.352-1.288 3.44-.034.09h-2.72v-6.892h-1.57v2.21l-.124-.216a4.268 4.268 0 0 0-3.149-2.13 5.95 5.95 0 0 0-1.054-.032Zm.912 1.52c1.2.194 2.105 1.155 2.264 2.41.038.312.013.884-.05 1.16a2.714 2.714 0 0 1-2.13 2.108c-.252.057-.939.057-1.195.002a2.735 2.735 0 0 1-2.139-2.156 4.232 4.232 0 0 1-.03-1.164c.158-1.077.816-1.898 1.792-2.242.47-.163.95-.2 1.488-.117Zm17.845.145c.272.065.53.246.676.476.23.358.246.884.038 1.249-.098.17-.287.345-.465.433-.256.126-.346.136-1.265.136h-.824V21.25h.855c.677 0 .88.006.985.031Zm-25.944.01c.909.068 1.537.372 1.981.967.373.5.551 1.24.486 2.015a5.49 5.49 0 0 1-.056.448c-.203.956-.825 1.614-1.75 1.85-.343.088-.555.105-1.376.105h-.781V21.27h.603c.331 0 .733.01.893.02Zm19.41.518c.033.114.096.323.14.468.042.144.245.743.45 1.332.208.589.375 1.081.375 1.094 0 .018-.283.025-1.09.025-.772 0-1.088-.007-1.088-.023 0-.013.165-.49.37-1.062a44.15 44.15 0 0 0 .669-2.02c.006-.01.033-.017.06-.017.046 0 .057.021.114.203Z"/>
</svg>
