---
version: "0.0.4"
---
<svg>
  <path d="M23.949 1.5a22.502 22.502 0 0 1 22.546 22.044l.005 .46c0 12.3 -9.873 22.294 -22.128 22.493l-.372 .003c-12.302 0 -22.298 -9.872 -22.497 -22.125l-.003 -.372c0 -12.423 10.074 -22.496 22.5 -22.496l-.051 -.007zm0 .257l.051 .007a22.257 22.257 0 0 0 -22.283 21.786l-.005 .453c.004 12.157 9.758 22.037 21.869 22.243l.368 .003a22.257 22.257 0 0 0 22.27 -21.792l.005 -.454c-.011 -12.292 -9.982 -22.25 -22.275 -22.246zm.045 43.868a.231 .231 0 0 1 -.232 .354a.231 .231 0 0 1 -.231 -.231a.225 .225 0 0 1 .231 -.225a.231 .231 0 0 1 .232 .102zm.7 -.05a.231 .231 0 0 1 -.105 .391l-.055 .007a.225 .225 0 0 1 -.225 -.225a.217 .217 0 0 1 .131 -.218a.231 .231 0 0 1 .255 .046zm-1.671 -.078a.238 .238 0 0 1 .225 .245a.231 .231 0 0 1 -.172 .21l-.057 .008l-.058 -.008a.232 .232 0 0 1 .062 -.455zm2.533 .089a.231 .231 0 0 1 -.178 .357l-.054 -.002a.231 .231 0 0 1 -.231 -.219h.013a.219 .219 0 0 1 .218 -.238a.231 .231 0 0 1 .232 .102zm-3.285 -.134a.225 .225 0 0 1 .212 .245a.231 .231 0 0 1 -.167 .21l-.058 .008h-.02a.232 .232 0 1 1 .033 -.463zm3.815 -.035a.233 .233 0 0 1 .254 .209a.244 .244 0 0 1 -.152 .241l-.06 .016a.238 .238 0 0 1 -.232 -.212h-.019a.232 .232 0 0 1 .21 -.254zm-4.616 -.022a.231 .231 0 0 1 .044 .454l-.06 .008h-.025a.231 .231 0 0 1 -.206 -.257a.231 .231 0 0 1 .247 -.205zm5.45 -.046c.08 .037 .132 .117 .134 .206a.231 .231 0 0 1 -.14 .241l-.06 .016a.231 .231 0 0 1 -.225 -.199h-.032a.231 .231 0 0 1 .322 -.264zm-6.031 -.015a.231 .231 0 0 1 .077 .228a.225 .225 0 0 1 -.225 .192h-.039a.225 .225 0 0 1 -.193 -.263a.231 .231 0 0 1 .38 -.157zm6.863 -.05c.05 .035 .083 .089 .092 .149a.225 .225 0 0 1 -.193 .264h-.032a.238 .238 0 0 1 -.231 -.193l-.001 .001l-.002 -.056a.225 .225 0 0 1 .196 -.202a.225 .225 0 0 1 .17 .037zm-7.731 -.115a.225 .225 0 0 1 .186 .264a.225 .225 0 0 1 -.225 .193h-.045a.25 .25 0 0 1 -.206 -.15a.231 .231 0 0 1 .29 -.307zm8.547 -.005a.231 .231 0 0 1 -.152 .391h-.045a.225 .225 0 0 1 -.225 -.186v.004l-.005 -.058a.225 .225 0 0 1 .185 -.21a.231 .231 0 0 1 .242 .06zm-9.293 -.149a.225 .225 0 0 1 .18 .27a.238 .238 0 0 1 -.225 .187h-.051a.241 .241 0 0 1 -.174 -.283a.219 .219 0 0 1 .27 -.174zm10.03 .103a.225 .225 0 0 1 -.162 .27h-.058a.225 .225 0 0 1 -.219 -.18a.222 .222 0 0 1 .173 -.258a.225 .225 0 0 1 .267 .168zm-10.714 -.247a.231 .231 0 0 1 .08 .247a.219 .219 0 0 1 -.219 .167h-.058a.248 .248 0 0 1 -.175 -.198a.231 .231 0 0 1 .372 -.216zm11.293 -.122a.231 .231 0 0 1 .01 .446h-.063a.219 .219 0 0 1 -.219 -.167v.005l-.01 -.058a.228 .228 0 0 1 .282 -.226zm-7.893 -2.905l.151 .009c.97 .09 1.665 .643 1.575 1.703a1.691 1.691 0 0 1 -3.375 -.225c.045 -1.067 .83 -1.568 1.8 -1.478zm7.165 -.55v.096c-.328 .045 -.418 .135 -.373 .508l.373 2.076c.045 .321 .18 .373 .456 .321l.052 .097l-1.755 .276l-.052 -.09c.328 -.051 .418 -.141 .373 -.463l-.373 -1.986l-.643 2.674h-.141l-1.479 -2.397h-.045l.367 2.076c.051 .321 .186 .418 .514 .321v.142l-1.067 .14v-.095c.328 -.045 .418 -.135 .373 -.463l-.373 -2.076c-.045 -.322 -.187 -.367 -.463 -.322l-.045 -.096l1.344 -.232l1.105 1.755l.508 -2.031l1.344 -.231zm-11.404 3.326a.231 .231 0 0 1 -.04 .458h-.07a.248 .248 0 0 1 -.154 -.295a.231 .231 0 0 1 .264 -.163zm12.923 -.076a.231 .231 0 0 1 -.041 .425h-.07a.231 .231 0 0 1 -.194 -.107l-.026 -.053l.001 .012a.231 .231 0 0 1 .154 -.289a.225 .225 0 0 1 .176 .012zm-8.533 -2.512c-.463 0 -.784 .373 -.83 1.388c-.09 1.016 .136 1.479 .599 1.479c.463 0 .745 -.373 .835 -1.389c.09 -1.015 -.141 -1.478 -.604 -1.478zm-5.066 2.352a.225 .225 0 0 1 .142 .29a.225 .225 0 0 1 -.219 .16h-.07v-.013a.231 .231 0 0 1 -.142 -.295a.225 .225 0 0 1 .29 -.142zm14.309 -.102a.225 .225 0 0 1 .117 .134a.231 .231 0 0 1 -.135 .296h-.077a.238 .238 0 0 1 -.219 -.141a.231 .231 0 0 1 .314 -.29zm-15.048 -.142a.238 .238 0 0 1 .135 .296a.244 .244 0 0 1 -.186 .135h-.116a.231 .231 0 1 1 .167 -.43zm15.924 0a.238 .238 0 0 1 -.129 .302a.219 .219 0 0 1 -.09 0a.231 .231 0 0 1 -.212 -.141l-.001 .011l-.013 -.059c-.01 -.1 .045 -.2 .143 -.241a.238 .238 0 0 1 .302 .128zm-15.384 -3.587l1.71 .605l-.045 .09c-.276 -.09 -.418 -.09 -.56 .231l-.738 2.031c-.045 .187 0 .277 .231 .373c.604 .186 .97 -.27 1.202 -.643l.045 .045l-.508 1.06l-2.398 -.88l.045 -.09c.277 .09 .418 .09 .553 -.231l.695 -1.986c.135 -.322 .045 -.418 -.232 -.508v-.097zm-1.273 3.306l.058 .018a.23 .23 0 0 1 .122 .302a.238 .238 0 0 1 -.212 .141a.206 .206 0 0 1 -.09 0v-.02a.231 .231 0 0 1 -.122 -.3a.225 .225 0 0 1 .244 -.14zm17.307 -.097a.231 .231 0 0 1 -.065 .417a.18 .18 0 0 1 -.097 0a.231 .231 0 0 1 -.212 -.142v.026a.225 .225 0 0 1 .122 -.302a.231 .231 0 0 1 .252 0zm-17.982 -.252a.231 .231 0 0 1 .116 .309a.225 .225 0 0 1 -.212 .128a.257 .257 0 0 1 -.097 0v-.02a.231 .231 0 0 1 .193 -.417zm18.617 -.11a.231 .231 0 0 1 -.032 .4a.206 .206 0 0 1 -.103 0a.231 .231 0 0 1 -.205 -.136v.026a.231 .231 0 0 1 .34 -.29zm-1.697 -3.277c.682 -.373 1.1 -.187 1.286 .231a.7 .7 0 0 1 -.231 .874a.733 .733 0 0 1 .97 .418c.238 .412 .142 .874 -.643 1.247l-1.568 .784l-.045 -.096c.276 -.135 .321 -.225 .18 -.553l-.92 -1.89c-.14 -.276 -.276 -.327 -.559 -.186l-.045 -.09zm-17.612 3.1a.231 .231 0 0 1 .114 .287a.231 .231 0 0 1 -.206 .129a.225 .225 0 0 1 -.11 0v-.026a.231 .231 0 0 1 -.096 -.309a.231 .231 0 0 1 .298 -.08zm20.062 -.054a.231 .231 0 0 1 -.097 .315a.206 .206 0 0 1 -.103 0a.231 .231 0 0 1 -.205 -.122v.026a.225 .225 0 0 1 .096 -.315a.231 .231 0 0 1 .309 .096zm-20.726 -.289a.225 .225 0 0 1 .09 .315a.225 .225 0 0 1 -.2 .116a.212 .212 0 0 1 -.109 0v-.026a.225 .225 0 0 1 -.09 -.315a.219 .219 0 0 1 .309 -.09zm21.19 -.185a.231 .231 0 0 1 .204 .134c.063 .11 .026 .25 -.083 .315a.25 .25 0 0 1 -.116 0a.231 .231 0 0 1 -.2 -.11v.026a.231 .231 0 0 1 .196 -.365zm-21.847 -.218a.231 .231 0 0 1 -.089 .448a.2 .2 0 0 1 -.116 0v-.032a.225 .225 0 0 1 -.077 -.315a.231 .231 0 0 1 .282 -.1zm19.787 -.82a.592 .592 0 0 0 -.487 .028l.418 .925c.135 .277 .231 .277 .366 .232c.231 -.142 .276 -.418 .045 -.836a.591 .591 0 0 0 -.342 -.348zm2.92 .748a.231 .231 0 0 1 -.077 .315a.206 .206 0 0 1 -.122 .032a.231 .231 0 0 1 -.168 -.385l.045 -.04a.238 .238 0 0 1 .322 .078zm-23.46 -.398a.231 .231 0 0 1 .176 .378a.231 .231 0 0 1 -.42 -.08a.223 .223 0 0 1 .034 -.17a.231 .231 0 0 1 .21 -.128zm23.952 -.157a.231 .231 0 0 1 -.042 .458a.231 .231 0 1 1 .042 -.458zm-22.92 -2.963c.446 -.08 .904 .04 1.252 .33a1.562 1.562 0 0 1 .553 2.263a1.543 1.543 0 0 1 -2.282 .418a1.498 1.498 0 0 1 -.553 -2.263h-.026a1.53 1.53 0 0 1 1.057 -.747zm-1.557 2.733a.225 .225 0 0 1 .058 .322a.225 .225 0 0 1 -.187 .096a.25 .25 0 0 1 -.135 -.038a.231 .231 0 0 1 .264 -.38zm2.674 -2.262c-.328 -.231 -.784 -.045 -1.388 .784h.025c-.553 .874 -.501 1.37 -.135 1.613c.367 .245 .804 .09 1.357 -.784c.553 -.874 .469 -1.382 .141 -1.613zm22.48 2.05a.232 .232 0 0 1 .09 .356l-.044 .043a.231 .231 0 0 1 -.142 .045a.244 .244 0 0 1 -.186 -.097a.232 .232 0 0 1 .282 -.348zm-25.703 -.167a.231 .231 0 0 1 -.297 .328l-.041 -.026a.231 .231 0 1 1 .338 -.302zm20.93 -.818a.56 .56 0 0 0 -.446 -.024l.553 1.15a.527 .527 0 0 0 .18 -.783a.56 .56 0 0 0 -.287 -.343zm3.244 -2.453l.051 .096c-.231 .18 -.283 .276 -.096 .553l1.247 1.71c.186 .276 .328 .276 .604 .09l.045 .09l-1.433 1.015l-.09 -.045c.276 -.186 .321 -.321 .135 -.598l-1.247 -1.71c-.232 -.276 -.367 -.23 -.598 -.044l-.045 -.097l1.427 -1.06zm-11.314 -31.386a17.398 17.398 0 0 1 17.449 17l.004 .42a17.437 17.437 0 0 1 -17.032 17.464l-.42 .005a17.461 17.461 0 0 1 -17.45 -17.05l-.004 -.42a17.411 17.411 0 0 1 17.033 -17.416l.42 -.004zm13.523 34.43a.231 .231 0 1 1 -.362 .288a.231 .231 0 0 1 .362 -.288zm-13.499 -34.18h.027a17.18 17.18 0 0 0 -17.25 16.756l-.004 .414a17.206 17.206 0 0 0 16.788 17.208l.415 .005a17.178 17.178 0 0 0 17.191 -16.799l.004 -.415a17.141 17.141 0 0 0 -16.781 -17.163l-.39 -.005zm-13.576 33.875a.231 .231 0 0 1 -.29 .36a.231 .231 0 1 1 .29 -.36zm27.463 -.274a.231 .231 0 0 1 .16 .395a.257 .257 0 0 1 -.147 .052a.219 .219 0 0 1 -.18 -.083l.006 .025a.219 .219 0 0 1 0 -.321a.225 .225 0 0 1 .161 -.068zm-28.054 -.24a.231 .231 0 1 1 -.328 .327l.026 .02a.231 .231 0 0 1 .302 -.348zm28.774 -.219a.232 .232 0 0 1 -.02 .328a.244 .244 0 0 1 -.154 .058a.231 .231 0 0 1 -.173 -.078h.02a.231 .231 0 0 1 -.038 -.28l.037 -.047a.232 .232 0 0 1 .328 .019zm-29.295 -.238a.232 .232 0 0 1 -.271 .371l-.05 -.037a.232 .232 0 1 1 .321 -.334zm29.931 -.218a.225 .225 0 0 1 0 .327a.25 .25 0 0 1 -.16 .065a.219 .219 0 0 1 -.161 -.071a.224 .224 0 0 1 -.088 -.234a.231 .231 0 0 1 .41 -.087zm-2.359 -3.073l2.842 1.157c.186 .09 .231 .045 .327 -.045l.09 .09l-1.105 1.106l-.097 -.045l.142 -.135c.09 -.097 .09 -.187 .045 -.232a.816 .816 0 0 1 -.187 -.141l-.553 -.186l-.552 .604l.18 .411c.036 .07 .084 .133 .141 .186c.09 .097 .231 .097 .418 -.09l.045 .045l-.63 .682l-.09 -.052c.141 -.135 .141 -.231 -.045 -.552l-1.157 -2.571l.186 -.232zm-28.112 2.758a.244 .244 0 0 1 0 .327a.257 .257 0 0 1 -.167 .071a.231 .231 0 0 1 -.16 -.07a.232 .232 0 1 1 .327 -.328zm1.46 -2.896a1.48 1.48 0 0 1 1.13 .453c.208 .237 .38 .503 .509 .79c.045 .046 .135 0 .225 -.05l.096 .057l-.694 .733l-.09 -.09a.79 .79 0 0 0 -.045 -1.106c-.418 -.372 -.92 -.09 -1.479 .463c-.56 .553 -.836 1.106 -.418 1.524c.31 .212 .698 .277 1.061 .18l-.186 .224a1.479 1.479 0 0 1 -1.248 -.41a1.51 1.51 0 0 1 .052 -2.218a1.478 1.478 0 0 1 1.087 -.55zm29.545 2.658a.238 .238 0 0 1 0 .328a.25 .25 0 0 1 -.167 .064a.225 .225 0 0 1 -.16 -.064a.24 .24 0 0 1 -.081 -.233a.231 .231 0 0 1 .408 -.095zm-31.728 -.392a.231 .231 0 0 1 .164 .392a.25 .25 0 0 1 -.161 .064a.225 .225 0 0 1 -.167 -.077v.013a.219 .219 0 0 1 0 -.322a.225 .225 0 0 1 .164 -.07zm32.235 -.171c.087 .079 .101 .21 .033 .306a.231 .231 0 0 1 -.174 .077a.244 .244 0 0 1 -.154 -.058h-.013a.231 .231 0 0 1 0 -.328a.231 .231 0 0 1 .308 .003zm-32.553 -.318a.231 .231 0 0 1 0 .328a.231 .231 0 0 1 -.155 .058a.238 .238 0 0 1 -.173 -.077h-.026a.238 .238 0 0 1 .354 -.309zm29.596 -.526l.411 .874l.508 -.507l-.92 -.367zm3.34 .19a.231 .231 0 0 1 .23 .228c0 .06 -.024 .118 -.067 .16a.219 .219 0 0 1 -.173 .084a.244 .244 0 0 1 -.148 -.051l-.007 -.026a.238 .238 0 0 1 0 -.328a.231 .231 0 0 1 .164 -.068zm-33.42 -.241c.08 .1 .065 .245 -.032 .328a.25 .25 0 0 1 -.148 .045a.219 .219 0 0 1 -.18 -.084a.231 .231 0 0 1 .36 -.29zm33.932 -.354a.231 .231 0 0 1 .14 .386a.238 .238 0 0 1 -.322 .038a.238 .238 0 0 1 -.038 -.327a.231 .231 0 0 1 .22 -.097zm-34.552 -.339a.231 .231 0 1 1 -.064 .459a.231 .231 0 0 1 .064 -.459zm20.293 -26.883l1.607 .643c.268 -.084 .551 -.108 .83 -.07c.293 .055 .554 .223 .726 .468c.195 .068 .377 .168 .54 .296c.031 .031 .06 .066 .083 .103a.238 .238 0 0 1 .039 .104v.057a2.468 2.468 0 0 1 -.29 .829v.032c.18 .373 .373 .733 .56 1.093a8.824 8.824 0 0 1 1.24 3.496c.084 1.042 .958 2.27 1.582 3.143l.12 .17l.111 .165l.129 .167c.212 .259 .446 .55 .28 .94l-.055 .107a.778 .778 0 0 1 -.315 .232c-.094 .045 -.19 .086 -.288 .12l-.15 .047a.546 .546 0 0 0 -.353 .206v.083c.018 .1 .068 .193 .142 .264a.47 .47 0 0 1 .176 .422l-.016 .08a.546 .546 0 0 1 -.225 .23l-.122 .097a.717 .717 0 0 1 .193 .36a.643 .643 0 0 1 0 .11a.36 .36 0 0 1 -.129 .34h-.038a2.147 2.147 0 0 0 -.27 .18a.296 .296 0 0 0 -.103 .135v.122c.044 .08 .096 .155 .154 .225c.218 .236 .361 .53 .413 .844l.018 .159a1.105 1.105 0 0 1 -.501 .848c-.064 .036 -.13 .067 -.2 .09a35.66 35.66 0 0 0 -1.594 .585l-.778 .319l-.778 .324a.154 .154 0 0 0 -.061 .04l-.022 .03a21.98 21.98 0 0 0 -.174 3.143v.695c0 .173 0 .332 .027 .488l.038 .154a4.03 4.03 0 0 0 .45 1.46c.027 .052 .06 .101 .096 .147l.077 .084l.405 .244a6.242 6.242 0 0 1 1.956 1.525l.198 .243a.141 .141 0 0 1 -.039 .193a3.478 3.478 0 0 1 -1.928 .578a11.92 11.92 0 0 1 -2.154 -.11a10.685 10.685 0 0 1 -2.642 -.893c-.24 -.102 -.477 -.208 -.713 -.307l-.354 -.143a2.72 2.72 0 0 0 -.643 -.16h-.257l-.145 -.005l-.145 .005h-.173c-.14 .031 -.284 .05 -.427 .057h-.351a4.07 4.07 0 0 1 -.501 -.109a4.578 4.578 0 0 1 -.476 -.173a2.822 2.822 0 0 1 -.302 .173c-.386 .219 -.785 .444 -.682 1.048a.141 .141 0 0 1 -.032 .129a.141 .141 0 0 1 -.206 0a2.314 2.314 0 0 1 -.745 -1.55c-.009 -.084 -.012 -.168 -.009 -.252l.009 -.127c-.457 .277 -.797 .514 -.836 .92a.392 .392 0 0 0 0 .212c.023 .05 .054 .097 .092 .137l.062 .055l.003 .03l-.003 .028v.039h.026a.18 .18 0 0 1 -.084 0c-1.51 -.27 -1.53 -1.286 -1.35 -2.276c0 -.18 .065 -.34 .103 -.495a2.75 2.75 0 0 0 .114 -.748l-.004 -.19a1.993 1.993 0 0 0 -.643 -.778a3.117 3.117 0 0 1 -.977 -1.285a2.731 2.731 0 0 0 -.142 .533c-.02 .274 .029 .548 .142 .797a2.52 2.52 0 0 1 .077 2.057a.141 .141 0 0 1 -.18 .09h-.039l-.726 -.508l-.515 .495a.148 .148 0 0 1 -.205 0a.135 .135 0 0 1 0 -.18a3.65 3.65 0 0 0 .379 -2.192a4.923 4.923 0 0 1 .122 -1.606c.173 -.444 .45 -.839 .81 -1.151a1.96 1.96 0 0 0 .778 -1.433c-.395 .08 -.804 .034 -1.17 -.129l-.154 -.077l-.045 -.032a.315 .315 0 0 1 -.045 -.354a.533 .533 0 0 0 0 -.173a.353 .353 0 0 0 -.065 -.142c-.09 -.141 -.16 -.25 0 -.411l.065 -.064a2.154 2.154 0 0 1 -.823 -.2a2.27 2.27 0 0 1 -.206 -.135l-.088 -.075l-.079 -.085c-.186 -.238 -.058 -.688 .122 -1.016a.983 .983 0 0 1 .103 -.16l.045 -.067l.051 -.062a.444 .444 0 0 1 .483 -.154c.206 .068 .401 .168 .578 .295c.203 .137 .418 .253 .643 .347l-.007 -.106l.007 -.106a.688 .688 0 0 1 0 -.16a5.059 5.059 0 0 1 -.726 -.643a5.933 5.933 0 0 1 -.643 -.823a5.566 5.566 0 0 1 -.73 -4.896l.087 -.246c.038 -.11 .09 -.218 .141 -.328a3.033 3.033 0 0 1 .103 -1.215a5.386 5.386 0 0 1 1.252 -2.195l.201 -.202c.186 -.193 .386 -.38 .604 -.572c.322 -.283 .682 -.572 1.074 -.861a9.765 9.765 0 0 1 1.659 -.977l.353 -.155c.35 -.14 .708 -.266 1.07 -.373l.364 -.102c.237 -.058 .469 -.116 .713 -.161s.592 -.11 .887 -.154c.197 -.03 .4 -.052 .603 -.07l.304 -.027l.373 -.038h.045l.321 -.052c.167 0 .334 -.064 .508 -.083h.064a5.19 5.19 0 0 1 1.749 .186l.238 -.238a.148 .148 0 0 1 .154 -.032zm14.754 26.641a.225 .225 0 1 1 -.142 .427a.225 .225 0 0 1 .142 -.427zm-17.544 -9.993c.116 .396 .035 .824 -.219 1.15a2.462 2.462 0 0 0 -.353 1.048c0 .221 .046 .44 .135 .643c.108 .217 .155 .458 .135 .698l-.02 .144a.758 .758 0 0 1 -.07 .173a1.69 1.69 0 0 1 -.103 .167c-.17 .25 -.419 .436 -.707 .528c-.097 .207 -.16 .428 -.187 .655c.058 .454 .256 .879 .566 1.215c.463 .61 .939 1.247 .546 2.237l.033 -.02h.372c.158 .021 .313 .055 .464 .101l.224 .08c.36 .14 .72 .295 1.074 .45c.815 .401 1.68 .695 2.571 .874a12.03 12.03 0 0 0 2.128 .154a3.388 3.388 0 0 0 1.665 -.45a6.531 6.531 0 0 0 -1.986 -1.562l-.418 -.25a.771 .771 0 0 1 -.116 -.13a2.031 2.031 0 0 1 -.116 -.173a4.287 4.287 0 0 1 -.45 -1.295l-.038 -.273c0 -.212 -.052 -.437 -.064 -.643c-.013 -.206 0 -.463 -.033 -.707c-.018 -1.074 .04 -2.148 .174 -3.214a.424 .424 0 0 1 .264 -.295c.522 -.236 1.043 -.45 1.562 -.643l.128 -.052c-1.603 .222 -3.23 .222 -4.834 0a11 11 0 0 1 -2.327 -.61zm-18.007 9.6a.231 .231 0 0 1 .213 .112a.231 .231 0 0 1 -.058 .321a.2 .2 0 0 1 -.129 .045a.238 .238 0 0 1 -.155 -.06l-.038 -.043a.231 .231 0 0 1 .167 -.375zm36.052 -.216a.225 .225 0 0 1 .058 .315a.219 .219 0 0 1 -.187 .103a.231 .231 0 0 1 -.193 -.36a.231 .231 0 0 1 .322 -.058zm-21.285 -11.66h-.328l-.302 .039c-.195 .4 -.286 .842 -.264 1.285c-.006 .09 -.006 .18 0 .27l.024 .124l.034 .12a3.78 3.78 0 0 0 1.665 1.665c.293 .193 .57 .408 .83 .643a.816 .816 0 0 1 0 1.337a.141 .141 0 0 1 -.2 0a.09 .09 0 0 1 0 -.051a1.556 1.556 0 0 0 -.566 -.572c.362 .466 .563 1.036 .573 1.626a3.67 3.67 0 0 1 0 .533a3.182 3.182 0 0 1 -.056 .336l-.04 .166a4.152 4.152 0 0 1 -2.11 2.757a1.369 1.369 0 0 0 -.083 .277c-.01 .102 -.01 .205 0 .308c.024 .388 .165 .76 .405 1.067l-.051 -.077c.057 -.495 .45 -.72 .842 -.939a2.71 2.71 0 0 0 .276 -.16a.148 .148 0 0 1 .097 -.07a.746 .746 0 0 0 .244 -.29c.121 -.338 .176 -.696 .16 -1.054a6.761 6.761 0 0 1 .511 -2.542l.132 -.3c0 -.07 .058 -.14 .09 -.211c.33 -.63 .37 -1.37 .11 -2.032a2.14 2.14 0 0 0 -1.035 -1.04a2.443 2.443 0 0 1 -1.357 -1.633a1.748 1.748 0 0 1 .097 -.939c.081 -.223 .182 -.438 .302 -.643zm-15.123 11.26c.06 .012 .111 .047 .144 .098a.238 .238 0 0 1 -.064 .321a.231 .231 0 0 1 -.129 .039a.231 .231 0 0 1 -.192 -.11a.225 .225 0 0 1 .07 -.314a.225 .225 0 0 1 .171 -.034zm13.034 -10.752a6.16 6.16 0 0 1 -.643 .16l-.11 -.083a.868 .868 0 0 1 -.321 .81a4.223 4.223 0 0 0 1.832 2.533c.727 .559 1.376 1.047 1.414 2.269c.052 1.53 -.964 2.423 -1.812 3.213c-.849 .791 -1.408 1.247 -.836 2.057c.083 .05 .172 .09 .263 .122a.688 .688 0 0 1 -.032 -.302c.052 -.591 .521 -.867 1.112 -1.221a4.069 4.069 0 0 0 2.222 -2.435l.067 -.22c.04 -.152 .07 -.306 .09 -.462c.01 -.165 .01 -.33 0 -.495a2.475 2.475 0 0 0 -1.517 -2.256a3.337 3.337 0 0 1 -.892 -.528l-.195 -.173c-.43 -.47 -.932 -1.016 -.642 -2.989zm23.785 10.503a.225 .225 0 0 1 .071 .315a.225 .225 0 0 1 -.193 .11a.264 .264 0 0 1 -.122 -.033a.238 .238 0 0 1 -.077 -.321a.231 .231 0 0 1 .321 -.071zm-37.076 -.298a.231 .231 0 0 1 -.074 .317a.206 .206 0 0 1 -.123 .032a.238 .238 0 0 1 -.16 -.063l-.039 -.046a.231 .231 0 0 1 .396 -.24zm17.167 -2.415c.039 .385 .134 .762 .283 1.119c.257 .462 .283 1.014 .077 1.495l-.068 .135l.135 -.01a3.33 3.33 0 0 0 .312 -.045h.11c.437 -.926 0 -1.53 -.444 -2.109a5.611 5.611 0 0 1 -.405 -.585zm-.264 .11c-.046 .309 -.076 .62 -.09 .932c.022 .398 -.04 .796 -.18 1.17a.855 .855 0 0 1 -.192 .276l.012 .058l.309 .103c.125 .035 .251 .063 .38 .083a1.459 1.459 0 0 0 .05 -1.51a4.293 4.293 0 0 1 -.289 -1.112zm20.559 1.934a.225 .225 0 0 1 .084 .315a.212 .212 0 0 1 -.2 .116a.25 .25 0 0 1 -.115 0v-.026a.233 .233 0 1 1 .231 -.405zm-24.84 -7.404v.051a1.59 1.59 0 0 0 .97 1.286a1.723 1.723 0 0 1 1.068 1.478a3.053 3.053 0 0 1 -1.286 2.378l-.244 .232h-.058l-.174 .173a1.723 1.723 0 0 0 -.437 .714v.045c0 .16 -.07 .334 -.103 .488a2.757 2.757 0 0 0 -.027 .777l.027 .192l.03 -.145c.134 -.483 .602 -.903 1.134 -1.37c.81 -.72 1.768 -1.562 1.716 -2.963c0 -1.08 -.642 -1.536 -1.285 -2.05a5.38 5.38 0 0 1 -1.331 -1.286zm-13.127 7.003a.219 .219 0 0 1 .135 .112a.225 .225 0 0 1 -.09 .315a.212 .212 0 0 1 -.11 0a.219 .219 0 0 1 -.199 -.122v.032a.225 .225 0 0 1 .09 -.315a.219 .219 0 0 1 .174 -.022zm38.34 -.306a.231 .231 0 0 1 -.11 .437a.38 .38 0 0 1 -.109 0v-.025a.238 .238 0 0 1 -.096 -.315a.233 .233 0 0 1 .315 -.097zm-38.565 -.244a.238 .238 0 0 1 -.103 .309a.206 .206 0 0 1 -.103 0a.231 .231 0 0 1 -.212 -.129v.026a.231 .231 0 0 1 .103 -.309a.238 .238 0 0 1 .315 .103zm38.893 -.437a.231 .231 0 0 1 -.103 .437a.257 .257 0 0 1 -.097 0v-.02a.238 .238 0 0 1 -.109 -.314a.231 .231 0 0 1 .309 -.103zm-26.126 -6.889c-.093 .285 -.265 .54 -.495 .732h-.045v.013c.103 .784 -.373 1.286 -.849 1.761a2.725 2.725 0 0 0 -.745 1.035a5.064 5.064 0 0 0 -.11 1.517a5.623 5.623 0 0 1 -.115 1.646l.07 -.071a.135 .135 0 0 1 .18 0l.643 .463a2.243 2.243 0 0 0 -.122 -1.466a1.928 1.928 0 0 1 -.141 -.925c.031 -.21 .087 -.414 .165 -.61l.085 -.194l.078 -.141a.482 .482 0 0 0 .045 -.077c.11 -.581 .407 -1.11 .848 -1.504c.058 -.264 .135 -.534 .206 -.797a7.07 7.07 0 0 0 .302 -1.382zm-13.228 6.516a.225 .225 0 0 1 .127 .122a.225 .225 0 0 1 -.11 .302a.27 .27 0 0 1 -.096 0a.231 .231 0 0 1 -.213 -.134v.025a.238 .238 0 0 1 .115 -.308a.225 .225 0 0 1 .176 -.007zm39.669 -.308a.225 .225 0 0 1 -.09 .437a.25 .25 0 0 1 -.097 0v-.013a.238 .238 0 0 1 -.132 -.249l.017 -.06a.231 .231 0 0 1 .302 -.115zm-27.09 -3.484c-.932 1.234 -.167 1.928 .475 2.52c.28 .198 .504 .462 .652 .769l.068 .156c.01 .075 .01 .15 0 .225a5.48 5.48 0 0 1 .27 -.283l.071 .032c.643 -.713 .322 -1.144 -.083 -1.677a3.143 3.143 0 0 1 -.692 -1.201l-.061 -.226l-.017 .094c-.083 .535 .071 1.142 .988 2.162a.154 .154 0 0 1 -.2 .225c-1.35 -.868 -1.587 -1.825 -1.471 -2.796zm-12.937 3.09a.232 .232 0 0 1 .182 .143a.238 .238 0 0 1 -.122 .302h-.09a.238 .238 0 0 1 -.218 -.141v.013a.232 .232 0 0 1 .248 -.317zm2.484 -1.277a.79 .79 0 1 1 -.418 1.015a.746 .746 0 0 1 .437 -1.015zm34.068 .433a.778 .778 0 0 1 1.019 -.414a.797 .797 0 0 1 .411 1.015a.842 .842 0 0 1 -1.015 .418a.778 .778 0 0 1 -.415 -1.019zm3.866 .596a.232 .232 0 0 1 .033 .23a.238 .238 0 0 1 -.219 .142h-.083v-.013a.231 .231 0 0 1 .054 -.445a.232 .232 0 0 1 .215 .086zm-40.611 -.455a.231 .231 0 0 1 -.017 .428a.18 .18 0 0 1 -.083 0a.225 .225 0 0 1 -.212 -.154v.02a.231 .231 0 0 1 .312 -.294zm14.3 -3.48c0 .122 -.065 .245 -.097 .36v.013a2.34 2.34 0 0 0 .598 2.256c.329 .315 .52 .747 .534 1.202a2.385 2.385 0 0 0 .784 -1.774c0 -.694 -.47 -.983 -.932 -1.285a2.571 2.571 0 0 1 -.888 -.773zm26.505 3.13c.118 .046 .18 .176 .141 .296a.244 .244 0 0 1 -.218 .148a.16 .16 0 0 1 -.078 0v-.013a.225 .225 0 0 1 -.155 -.236l.014 -.06a.231 .231 0 0 1 .296 -.134zm-40.983 -.203a.231 .231 0 0 1 -.128 .287h-.077a.225 .225 0 0 1 -.219 -.154v.013a.238 .238 0 0 1 .148 -.296a.231 .231 0 0 1 .276 .15zm41.195 -.497a.231 .231 0 0 1 .154 .29a.244 .244 0 0 1 -.225 .16a.148 .148 0 0 1 -.07 0v-.013a.231 .231 0 0 1 .14 -.437zm-21.465 -1.125c.03 .416 -.04 .831 -.201 1.213l-.069 .145l.098 -.081c.076 -.07 .144 -.146 .204 -.23c.032 -.05 .064 -.096 .084 -.134l.025 -.053l.02 -.056a1.134 1.134 0 0 0 -.11 -.643c0 -.058 -.038 -.11 -.051 -.16zm-5.535 -2.616c-.069 .382 -.161 .76 -.277 1.131c-.07 .257 -.141 .514 -.199 .772a.174 .174 0 0 1 0 .077a2.66 2.66 0 0 0 .083 1.725l.087 .196l-.067 -.174a2.12 2.12 0 0 1 .135 -1.67c.058 -.148 .116 -.296 .167 -.463l-.006 -.032v-.052a3.11 3.11 0 0 0 .128 -.932v-.097a4.756 4.756 0 0 0 -.051 -.482zm-14.522 3.373c.036 .02 .065 .047 .085 .082l.024 .055a.231 .231 0 0 1 -.154 .289h-.065a.225 .225 0 0 1 -.201 -.331a.231 .231 0 0 1 .311 -.095zm41.734 -.365a.225 .225 0 0 1 .16 .29a.231 .231 0 0 1 -.218 .167h-.064v-.013a.231 .231 0 1 1 .122 -.444zm-41.937 -.367a.231 .231 0 0 1 -.054 .425h-.059a.225 .225 0 0 1 -.225 -.167a.225 .225 0 0 1 .08 -.239a.231 .231 0 0 1 .257 -.019zm42.123 -.372a.238 .238 0 0 1 .18 .22l-.006 .063a.231 .231 0 0 1 -.225 .173h-.058a.26 .26 0 0 1 -.142 -.109a.225 .225 0 0 1 -.025 -.173a.231 .231 0 0 1 .276 -.174zm-25.264 -4.634h-.238c-.187 .141 -.39 .262 -.604 .36c-.271 1.89 .149 2.436 .535 2.863l.05 .055c.221 .22 .475 .403 .752 .545l.212 .098l.322 .14c.59 .193 1.118 .54 1.53 1.004a.533 .533 0 0 0 -.122 -.785a6.506 6.506 0 0 0 -.791 -.578a3.985 3.985 0 0 1 -1.665 -1.597l-.11 -.21a2.024 2.024 0 0 1 -.102 -.597c-.02 -.44 .054 -.877 .218 -1.285l.013 -.013zm-17.078 4.222c.084 .03 .142 .105 .152 .193a.225 .225 0 0 1 -.174 .27h-.051a.225 .225 0 0 1 -.225 -.18a.224 .224 0 0 1 .058 -.232a.231 .231 0 0 1 .24 -.051zm19.9 -4.428l-.038 .026a8.249 8.249 0 0 1 -1.107 .155l-.372 .018a4.898 4.898 0 0 0 -.411 .714a1.62 1.62 0 0 0 -.09 .79a2.224 2.224 0 0 0 1.234 1.447c.516 .245 .926 .67 1.15 1.195l.043 .13l.034 .132l.028 -.204a2.74 2.74 0 0 1 .365 -.964c.276 -.514 .482 -.9 -.47 -1.69a5.226 5.226 0 0 1 -.43 -.393a1.176 1.176 0 0 1 -.27 -.443c-.042 -.34 .083 -.68 .334 -.913zm22.58 4.065a.231 .231 0 0 1 -.035 .46h-.045a.248 .248 0 0 1 -.18 -.283a.231 .231 0 0 1 .26 -.177zm-42.546 -.324a.232 .232 0 0 1 -.135 .378h-.038a.225 .225 0 0 1 -.205 -.125l-.02 -.061a.231 .231 0 0 1 .18 -.27a.232 .232 0 0 1 .218 .078zm42.705 -.458a.225 .225 0 0 1 .187 .264a.225 .225 0 0 1 -.225 .193h-.039a.231 .231 0 1 1 .077 -.457zm-43.026 -.385a.238 .238 0 0 1 .263 .193a.231 .231 0 0 1 -.193 .263h-.038a.231 .231 0 0 1 -.225 -.2a.225 .225 0 0 1 .193 -.257zm43.135 -.354a.231 .231 0 0 1 .033 .442l-.065 .015h-.032a.238 .238 0 0 1 -.2 -.257a.231 .231 0 0 1 .264 -.2zm-15.364 -14a7.538 7.538 0 0 1 -.334 .374c-.195 .2 -.41 .378 -.643 .533a1.793 1.793 0 0 1 -.72 1.395a8.818 8.818 0 0 1 -.38 1.678a3.304 3.304 0 0 1 -.88 1.4a4.171 4.171 0 0 1 -.25 .92a1.453 1.453 0 0 1 -.348 .536l-.122 .107c0 .346 0 1.158 -.479 1.617l-.119 .099c0 .125 -.011 .25 -.032 .373a2.893 2.893 0 0 1 -1.929 1.999l-.43 .16h-.065a.604 .604 0 0 0 -.147 .065a1.6 1.6 0 0 0 -.193 .122a.926 .926 0 0 0 -.412 .887a.855 .855 0 0 0 .206 .328c.128 .13 .263 .252 .405 .366c.218 .176 .414 .376 .585 .598c.38 .167 .77 .306 1.17 .418c.444 .121 .895 .215 1.35 .282c1.94 .274 3.91 .217 5.83 -.167l.457 -.16a.643 .643 0 0 0 .135 -.065a.9 .9 0 0 0 .116 -.083a.842 .842 0 0 0 .237 -.414l.02 -.12a1.414 1.414 0 0 0 -.373 -.797a.83 .83 0 0 1 -.185 -.288l-.033 -.11v-.148a.154 .154 0 0 1 0 -.052a.56 .56 0 0 1 .192 -.276l.137 -.1l.146 -.086s.015 -.015 .024 -.03l.008 -.022v-.051a.2 .2 0 0 0 0 -.064c-.057 -.251 -.147 -.258 -.36 -.219h-.18a.141 .141 0 0 1 -.16 -.122a.148 .148 0 0 1 .115 -.16l.225 -.052c.074 0 .393 -.177 .489 -.278l.026 -.037c.058 -.09 0 -.167 -.103 -.244a.74 .74 0 0 1 -.194 -.325l-.02 -.093a.437 .437 0 0 1 0 -.129a.643 .643 0 0 1 .045 -.115a.83 .83 0 0 1 .433 -.316l.107 -.025c.115 -.028 .229 -.062 .34 -.103a.598 .598 0 0 0 .2 -.135c.16 -.276 0 -.514 -.2 -.72l-.075 -.092l-.066 -.088l-.231 -.334c-.643 -.906 -1.543 -2.173 -1.633 -3.291a8.676 8.676 0 0 0 -1.209 -3.38a45.241 45.241 0 0 1 -.495 -.965zm-12.858 13.384l.032 -.037a2.687 2.687 0 0 1 -.321 .34l-.116 .09a.823 .823 0 0 1 -.058 .142a.842 .842 0 0 1 -.25 .276a.675 .675 0 0 1 -.27 .116a.874 .874 0 0 0 .337 -.041l.106 -.043a.604 .604 0 0 0 .077 -.058c.2 -.176 .349 -.403 .43 -.655l.033 -.13zm.045 -.776h-.193c-.1 .008 -.198 .023 -.296 .045a2.572 2.572 0 0 0 -.84 .319l-.188 .124c-.09 .069 -.177 .142 -.26 .22l-.12 .12v.052a.56 .56 0 0 1 .11 .257a.643 .643 0 0 1 0 .283a.231 .231 0 0 0 0 .07c.088 .042 .18 .079 .271 .11l.044 .014a.096 .096 0 0 1 .058 -.136c.328 -.122 .633 -.3 .9 -.527c.232 -.2 .42 -.444 .553 -.72l-.039 -.129v-.102zm-15.037 1.012a.232 .232 0 0 1 .231 .122l.02 .054a.225 .225 0 0 1 -.199 .257h-.032a.231 .231 0 0 1 -.212 -.15l-.013 -.056a.231 .231 0 0 1 .205 -.227zm43.39 -.355c.082 .045 .13 .135 .12 .229a.231 .231 0 0 1 -.169 .203l-.057 .009l-.026 -.007a.231 .231 0 1 1 .131 -.434zm-43.431 -.45a.232 .232 0 0 1 .247 .216a.219 .219 0 0 1 -.152 .234l-.06 .01a.238 .238 0 0 1 -.231 -.212h-.02a.232 .232 0 0 1 .216 -.248zm39.693 -2.837c.045 .186 .09 .276 .411 .372l2.636 1.061v.276l-2.816 1.106c-.186 .045 -.231 .096 -.231 .231h-.129v-1.567h.129v.186c0 .135 .045 .18 .18 .18a.276 .276 0 0 0 .186 -.045l.553 -.18v-.835l-.463 -.135a.643 .643 0 0 0 -.225 -.097c-.141 0 -.231 .097 -.231 .373h-.129v-.925zm-36.88 .09c.507 0 .88 .282 .88 1.112l.064 1.8h-.09c-.045 -.322 -.096 -.418 -.418 -.418h-2.14c-.328 .05 -.418 .14 -.418 .462h-.098l-.045 -1.754c0 -.74 .328 -1.061 .836 -1.061c.367 0 .553 .276 .643 .598c.096 -.457 .276 -.74 .784 -.74zm40.602 2.397a.231 .231 0 1 1 0 .463a.231 .231 0 0 1 0 -.463zm-30.863 -.032h-.251a.07 .07 0 0 0 0 .045a.225 .225 0 0 0 0 .084a.56 .56 0 0 0 .437 .23h.219a.964 .964 0 0 0 .24 -.048l.106 -.045l-.23 -.073a3.555 3.555 0 0 0 -.521 -.193zm-.039 -.913a.193 .193 0 0 0 -.087 .033l-.035 .032l-.077 .096c0 .045 -.058 .09 -.084 .141c-.101 .184 -.192 .41 -.187 .566l.005 .034l.002 -.028a.321 .321 0 0 1 .077 -.18a.476 .476 0 0 1 .437 -.083c.13 .032 .255 .074 .378 .124l.182 .082l.405 .167c.073 .022 .148 .037 .225 .045a3.27 3.27 0 0 1 .707 -.238c.108 -.021 .218 -.036 .328 -.045h.328a.148 .148 0 0 1 .154 .141c-.01 .06 -.01 .12 0 .18a.386 .386 0 0 0 .038 .122l.11 .039a.643 .643 0 0 0 .128 -.36a.315 .315 0 0 0 0 -.11v-.044l-.283 -.122h-.051a.842 .842 0 0 1 -.174 .077a2.422 2.422 0 0 1 -.73 .059l-.182 -.02h-.103a2.938 2.938 0 0 1 -1.01 -.47a1.067 1.067 0 0 0 -.501 -.238zm-12.536 .52a.238 .238 0 0 1 .245 .226a.231 .231 0 0 1 -.166 .228l-.06 .01a.231 .231 0 0 1 -.23 -.219a.228 .228 0 0 1 .211 -.244zm43.516 -.353a.231 .231 0 0 1 .219 .178l.006 .06a.225 .225 0 0 1 -.231 .219a.207 .207 0 0 1 -.168 -.066a.231 .231 0 0 1 -.064 -.166a.244 .244 0 0 1 .238 -.225zm-18.92 -14.147a52.198 52.198 0 0 0 -1.55 1.588a55.868 55.868 0 0 0 -1.58 1.774a60.529 60.529 0 0 0 -6.892 9.995h.07c.4 0 .732 .297 .784 .683l.007 .107a.868 .868 0 0 1 0 .187l.251 .141a2.35 2.35 0 0 0 .345 -.038l.165 -.038l.134 -.26l.14 -.262l.347 -.642l.092 -.164l.188 -.337c.187 -.334 .361 -.643 .447 -.785l.058 -.167c.083 -.231 .173 -.47 .289 -.713l-.276 .424v-.045a.167 .167 0 0 0 .038 -.097a.11 .11 0 0 0 0 -.064a.366 .366 0 0 0 -.11 -.083l-.81 -.534l-.16 -.084a.084 .084 0 0 0 -.064 0a.186 .186 0 0 0 -.07 .071v.039h-.04l.425 -.643v.045a.154 .154 0 0 0 -.039 .096a.122 .122 0 0 0 0 .065a.375 .375 0 0 0 .11 .083l.81 .527a.56 .56 0 0 0 .122 .071a.141 .141 0 0 0 .07 0a.186 .186 0 0 0 .071 -.07v-.046l.129 -.203l.141 -.195a.29 .29 0 0 0 .064 -.129a.129 .129 0 0 0 0 -.07a.534 .534 0 0 0 -.115 -.097l-.778 -.553a.334 .334 0 0 0 -.135 -.07a.096 .096 0 0 0 -.07 0a.386 .386 0 0 0 -.09 .102h-.033l.405 -.572a.945 .945 0 0 1 .244 -.27a.399 .399 0 0 1 .206 -.057c.068 0 .133 .023 .186 .064c.058 .04 .1 .099 .116 .167a.643 .643 0 0 1 -.051 .302a.752 .752 0 0 1 .263 -.173a.34 .34 0 0 1 .283 .045a.36 .36 0 0 1 .148 .27a.771 .771 0 0 1 -.167 .462l-.328 .457l.148 -.155c.103 -.102 .206 -.192 .315 -.282c.227 -.339 .457 -.672 .69 -1l.351 -.492a58.717 58.717 0 0 1 2.372 -3.06a123.73 123.73 0 0 1 3.755 -4.325v-.206a.983 .983 0 0 1 0 -.238l-1.421 -.546zm-9.984 13.685a.482 .482 0 0 0 -.353 .147a.52 .52 0 0 0 -.136 .251l-.012 .097a.43 .43 0 0 0 .039 .18a.23 .23 0 0 0 .057 .096c.234 .03 .472 .017 .701 -.039a.347 .347 0 0 0 .11 -.045a.096 .096 0 0 0 .038 0l.058 -.038l.007 -.074l-.007 -.074a.495 .495 0 0 0 -.148 -.354a.47 .47 0 0 0 -.274 -.143l-.08 -.004zm9.997 -5.586a7.297 7.297 0 0 1 -2.488 .803a6.783 6.783 0 0 0 -3.08 1.183l-.05 .039a3.285 3.285 0 0 0 -.27 .25a3.696 3.696 0 0 0 -.862 1.498a.79 .79 0 0 1 -.122 .283c-.089 .152 -.237 .416 -.396 .7l-.192 .345l-.094 .17l-.347 .642l-.067 .126l-.052 .105l.154 -.07a2.87 2.87 0 0 0 .322 -.187l.151 -.109a1.87 1.87 0 0 0 .205 -.194l.09 -.108c.22 -.315 .431 -.642 .644 -.996c.424 -.8 1 -1.51 1.697 -2.089a5.613 5.613 0 0 1 2.571 -.848a4.301 4.301 0 0 0 1.588 -.425c.195 -.135 .344 -.329 .424 -.552c.078 -.182 .136 -.372 .174 -.566zm-24.59 5.637a.231 .231 0 0 1 .062 .455l-.061 .008a.232 .232 0 0 1 -.224 -.17l-.008 -.062c0 -.127 .104 -.231 .232 -.231zm2.836 -.276a.604 .604 0 0 0 -.643 .642l1.015 -.038c.322 0 .367 0 .367 -.232c0 -.231 -.277 -.372 -.74 -.372zm-1.434 .135c-.366 0 -.598 .135 -.643 .507h1.24c-.044 -.372 -.23 -.507 -.597 -.507zm39.324 -.328v.739l.925 -.366l-.925 -.373zm2.9 .076c.077 .05 .117 .142 .102 .232v.039a.219 .219 0 0 1 -.165 .225l-.06 .006a.231 .231 0 0 1 -.225 -.231l-.007 -.039a.231 .231 0 0 1 .355 -.232zm-19.685 -3.785a5.626 5.626 0 0 1 -1.473 .347a5.4 5.4 0 0 0 -2.462 .797a6.627 6.627 0 0 0 -1.62 2.012c-.137 .223 -.277 .434 -.422 .657l-.22 .346l-.078 .103c1.44 -.084 1.73 -.566 2.051 -1.1c.2 -.382 .486 -.712 .836 -.964a2.257 2.257 0 0 1 1.247 -.34a3.028 3.028 0 0 0 1.476 -.398l.189 -.117a1.71 1.71 0 0 0 .47 -1.337zm-.656 1.793a3.42 3.42 0 0 1 -1.485 .36a2.115 2.115 0 0 0 -1.1 .29a2.571 2.571 0 0 0 -.758 .88c-.188 .388 -.491 .71 -.868 .92a7.947 7.947 0 0 0 1.929 -.348h.083l.039 -.02a4.63 4.63 0 0 0 .418 -.153a2.616 2.616 0 0 0 1.742 -1.787v-.142zm-11.212 -3.837c-.533 2.031 .965 3.471 1.685 4.165l.225 .193a.141 .141 0 0 1 -.2 .2l-.18 -.168a5.688 5.688 0 0 1 -1.735 -2.543l-.084 -.272l-.005 .268a5.495 5.495 0 0 0 .918 3.016c.19 .281 .404 .544 .643 .785c.2 .198 .415 .38 .643 .546a.938 .938 0 0 1 .103 -.122l.115 -.097l-.025 -.045a.129 .129 0 0 1 0 -.07a43.95 43.95 0 0 1 1.041 -1.826a4.004 4.004 0 0 0 -.231 -.527a4.365 4.365 0 0 0 -1.19 -1.285a6.801 6.801 0 0 1 -.88 -.81a5.124 5.124 0 0 1 -.303 -.373a3.715 3.715 0 0 1 -.54 -1.035zm-11.821 5.559a.231 .231 0 0 1 -.232 .354h-.013a.231 .231 0 0 1 -.225 -.23a.225 .225 0 0 1 .238 -.226a.231 .231 0 0 1 .232 .102zm43.225 -.526a.225 .225 0 0 1 .238 .218a.231 .231 0 0 1 -.16 .233l-.059 .012a.231 .231 0 0 1 -.231 -.225h-.013c0 -.127 .099 -.231 .225 -.238zm-26.537 -1.035l.405 .328l-.714 1.093h-.032v-.045a.206 .206 0 0 0 .039 -.097a.122 .122 0 0 0 0 -.064a.495 .495 0 0 0 -.084 -.084l-.81 -.527a.546 .546 0 0 0 -.128 -.07a.129 .129 0 0 0 -.065 0a.186 .186 0 0 0 -.07 .07l-.027 .036l.425 -.634v.058a.154 .154 0 0 0 -.038 .097a.122 .122 0 0 0 0 .064s.045 .045 .109 .084l.784 .514a.7 .7 0 0 0 .129 .07a.122 .122 0 0 0 .064 0a.444 .444 0 0 0 .077 -.102l.07 -.103a.52 .52 0 0 0 .072 -.187a.392 .392 0 0 0 -.033 -.186a1.01 1.01 0 0 0 -.167 -.231l-.006 -.084zm-16.894 .656c.128 .01 .226 .121 .218 .25a.231 .231 0 0 1 -.173 .205l-.052 .006l-.054 -.007a.231 .231 0 0 1 .06 -.454zm40.815 -2.456a1.46 1.46 0 0 1 1.806 1.286c.045 .463 -.096 .835 -.096 .925c0 .09 .051 .09 .186 .142v.09l-.97 .09v-.09a.842 .842 0 0 0 .642 -.88c-.045 -.599 -.65 -.689 -1.433 -.599c-.785 .09 -1.338 .373 -1.248 .926c.052 .411 .463 .694 .695 .83l-.322 .083a1.652 1.652 0 0 1 -.688 -1.138a1.478 1.478 0 0 1 1.428 -1.665zm-36.605 -.321l-.231 1.568h-.135l.045 -.231c0 -.09 0 -.18 -.142 -.18h-.186l-.553 .135l-.167 .829l.411 .231c.097 .052 .09 .097 .232 .097c.141 0 .231 -.045 .276 -.328h.097l-.11 .926l-.135 -.045c.045 -.187 -.051 -.232 -.327 -.418l-2.45 -1.427l.052 -.283l2.957 -.643c.18 -.045 .225 -.096 .276 -.231h.09zm39.195 2.404c.128 0 .232 .103 .232 .231a.225 .225 0 0 1 -.153 .233l-.06 .011a.238 .238 0 0 1 -.23 -.218l-.02 -.026a.23 .23 0 0 1 .231 -.231zm-43.29 -.36a.225 .225 0 0 1 .206 .25a.231 .231 0 0 1 -.174 .2l-.057 .006h-.02a.231 .231 0 0 1 .045 -.456zm30.177 -.82a.103 .103 0 0 1 .012 .19a.681 .681 0 0 0 -.27 .38a.315 .315 0 0 0 0 .153c.006 .05 .026 .097 .058 .135c.07 .081 .165 .136 .27 .155a.096 .096 0 0 1 .077 .122a.096 .096 0 0 1 -.122 .077a.643 .643 0 0 1 -.386 -.231a.456 .456 0 0 1 -.096 -.213a.495 .495 0 0 1 0 -.237a.868 .868 0 0 1 .347 -.502a.103 .103 0 0 1 .11 -.029zm13.068 .428a.231 .231 0 0 1 .257 .206a.231 .231 0 0 1 -.14 .234l-.059 .016a.231 .231 0 0 1 -.225 -.206l-.032 .007a.225 .225 0 0 1 .2 -.257zm-40.569 -.316l-.965 .186l.83 .508l.135 -.694zm10.324 -6.518a4.5 4.5 0 0 0 -.874 1.684c-.09 .377 -.103 .769 -.039 1.15v.052c.1 .467 .301 .907 .591 1.286c.09 .122 .187 .238 .29 .353c.262 .293 .548 .564 .855 .81a4.5 4.5 0 0 1 1.285 1.382l.089 .178l.065 .14l.168 -.286a2.57 2.57 0 0 1 -.174 -1.446a3.11 3.11 0 0 0 -.058 -1.125a3.413 3.413 0 0 0 -.912 -1.247a4.532 4.532 0 0 1 -.823 -.985l-.129 -.223a3.721 3.721 0 0 1 -.334 -1.723zm-12.834 6.455c.124 .02 .211 .132 .2 .257a.238 .238 0 0 1 -.232 .199h-.032a.231 .231 0 1 1 .064 -.456zm43.036 -.264a.231 .231 0 0 1 -.095 .365l-.062 .014a.238 .238 0 0 1 -.231 -.193h-.033a.231 .231 0 0 1 .193 -.263a.231 .231 0 0 1 .228 .077zm-25.632 -9.443l-.354 .135c-.36 .167 -.309 .803 -.25 1.388c.037 .312 .037 .627 0 .939a5.25 5.25 0 0 1 -.284 .893a5.199 5.199 0 0 0 -.276 .855a.141 .141 0 0 1 -.276 -.058c.066 -.308 .16 -.61 .282 -.9a4.5 4.5 0 0 0 .27 -.848a3.213 3.213 0 0 0 0 -.855a3.593 3.593 0 0 1 0 -1.183a9 9 0 0 0 -1.504 .907l-.206 .14c-.642 .72 -.122 1.859 .373 2.99c.275 .563 .49 1.153 .643 1.761a.141 .141 0 0 1 -.11 .167a.148 .148 0 0 1 -.166 -.116a9.126 9.126 0 0 0 -.643 -1.697c-.418 -.95 -.836 -1.928 -.643 -2.686l-.328 .276a9.61 9.61 0 0 0 -.4 .373l-.185 .186a.887 .887 0 0 0 -.128 .212c-.04 .089 -.068 .182 -.084 .277c-.05 .51 .023 1.025 .209 1.501l.087 .202c.233 .42 .532 .8 .887 1.125c.434 .369 .774 .836 .99 1.363c.098 .401 .12 .818 .064 1.227a2.75 2.75 0 0 0 .077 1.132l.065 -.033c.282 -.454 .574 -.91 .872 -1.367l.452 -.683c-.939 -2.295 -.373 -3.265 .11 -4.107l.044 -.07a4.293 4.293 0 0 0 .45 -2.803a3.156 3.156 0 0 1 -.038 -.643zm-17.474 8.98a.231 .231 0 0 1 .186 .27a.225 .225 0 0 1 -.225 .186h-.038a.231 .231 0 0 1 -.193 -.264a.238 .238 0 0 1 .27 -.193zm41.503 -2.443l.462 1.71l-.09 .045c-.096 -.322 -.186 -.412 -.507 -.322l-2.013 .553c-.321 .096 -.366 .231 -.276 .508l-.09 .045l-.489 -1.749h.09c.052 .277 .187 .367 .508 .277l2.038 -.56c.322 -.044 .367 -.18 .277 -.507h.09zm1.414 2.094a.231 .231 0 0 1 -.09 .419h-.039a.231 .231 0 0 1 -.225 -.193a.228 .228 0 0 1 .18 -.263a.231 .231 0 0 1 .174 .037zm-24.847 -.205a.296 .296 0 0 0 -.167 .045a.707 .707 0 0 0 -.123 .118l-.038 .05l.367 .257h.045a.103 .103 0 0 0 .07 .09a.11 .11 0 0 0 .078 -.052a.38 .38 0 0 0 .058 -.154a.244 .244 0 0 0 0 -.154a.302 .302 0 0 0 -.11 -.129a.392 .392 0 0 0 -.18 -.07zm-17.92 -.204a.231 .231 0 0 1 .18 .27a.238 .238 0 0 1 -.225 .186h-.052a.241 .241 0 0 1 -.18 -.276a.238 .238 0 0 1 .277 -.18zm17.357 -.187a.276 .276 0 0 0 -.142 .039a.643 .643 0 0 0 -.16 .167l.456 .334a.643 .643 0 0 0 .103 -.205a.29 .29 0 0 0 0 -.148a.276 .276 0 0 0 -.11 -.122a.321 .321 0 0 0 -.147 -.065zm8.845 -5.399c-.212 .129 -.437 .25 -.642 .373c-.404 .178 -.79 .393 -1.153 .642l-.268 .194c-.209 .195 -.398 .41 -.566 .642a2.314 2.314 0 0 1 -.553 .521c-.34 .257 -.707 .488 -1.073 .726a7.849 7.849 0 0 0 -2.231 1.839l-.643 .9l.007 .032a4.93 4.93 0 0 1 .707 -.328a.135 .135 0 0 1 -.071 0a.141 .141 0 0 1 -.045 -.193a3.812 3.812 0 0 1 2.436 -1.633a3.857 3.857 0 0 0 1.537 -.72c.206 -.192 .39 -.407 .546 -.642c.205 -.306 .457 -.577 .746 -.804l.141 -.109c.515 -.392 1.055 -.803 1.125 -1.44zm-24.139 1.46l.045 .044c-.09 .277 -.045 .412 .277 .508l2.449 .926l-.09 .276l-3.099 1.06l1.897 .695c.321 .135 .418 .045 .553 -.232l.045 .045l-.322 .99l-.09 -.045c.09 -.283 .045 -.418 -.276 -.508l-2.128 -.79c-.232 .051 -.277 .096 -.373 .328l-.09 -.045l.418 -1.202l2.353 -.784l-1.337 -.463c-.322 -.142 -.418 -.045 -.508 .231h-.097l.373 -1.035zm40.547 3.78a.225 .225 0 0 1 .081 .09l.02 .057a.238 .238 0 0 1 -.174 .276h-.032a.231 .231 0 0 1 -.225 -.18l-.019 .006a.231 .231 0 0 1 .174 -.276a.225 .225 0 0 1 .175 .027zm-24.167 -1.203l.643 .45v.032a.784 .784 0 0 0 -.2 -.077a.238 .238 0 0 0 -.14 0a.45 .45 0 0 0 -.123 .109l.34 .244c.065 .052 .104 .077 .123 .077h.058a.212 .212 0 0 0 .07 -.064l.052 -.07a.501 .501 0 0 0 .116 -.328a.527 .527 0 0 0 -.077 -.245l-.052 -.07l.34 .327l-.745 1.029h-.032l.032 -.039a.186 .186 0 0 0 .039 -.096a.096 .096 0 0 0 0 -.07a.765 .765 0 0 0 -.11 -.09l-.777 -.566a.482 .482 0 0 0 -.103 -.065a.09 .09 0 0 0 -.071 0l-.024 .014l.296 -.41l.46 .338a.225 .225 0 0 0 .046 -.212a.514 .514 0 0 0 -.094 -.155l-.067 -.063zm7.072 -2.584l-.225 .173l-.142 .103a3.39 3.39 0 0 0 -.733 .765c-.172 .236 -.37 .452 -.591 .643a4.14 4.14 0 0 1 -1.64 .778a3.53 3.53 0 0 0 -2.275 1.51l-.007 .02a11.573 11.573 0 0 1 1.775 -.45a6.802 6.802 0 0 0 2.571 -.868l.097 -.071l.038 -.032c.38 -.35 .662 -.793 .817 -1.286c.142 -.418 .248 -.848 .315 -1.285zm-25.33 3.394a.226 .226 0 1 1 -.051 .45h-.058a.26 .26 0 0 1 -.142 -.11a.225 .225 0 0 1 -.025 -.173a.231 .231 0 0 1 .276 -.167zm28.28 -1.087l-.052 .02a.096 .096 0 0 1 .116 .057c.146 .323 .146 .693 0 1.016a1.262 1.262 0 0 1 -.103 .148a.72 .72 0 0 1 -.129 .11a.11 .11 0 0 1 -.09 0l-.74 -.232l-.68 -.232a.103 .103 0 0 1 0 -.18a6.513 6.513 0 0 1 1.189 -.559l.244 -.077l.244 -.07zm13.965 .733a.231 .231 0 0 1 -.054 .424h-.058a.231 .231 0 0 1 -.225 -.173v.013a.231 .231 0 0 1 .337 -.264zm-14.52 -.049l-.005 .081c0 .044 .006 .088 .017 .13l.022 .063c.02 .04 .043 .08 .07 .116l.116 .083h.039l.057 -.051l.078 -.11c.499 -.911 -.325 -.908 -.394 -.312zm-.101 -.247a5.548 5.548 0 0 0 -.785 .367l.482 .16l.264 .084a.584 .584 0 0 1 -.047 -.176l-.004 -.087c0 -.122 .03 -.241 .09 -.348zm-9.566 -7.128l-.566 .167c-.122 .052 -.09 .315 -.045 .714a4.499 4.499 0 0 1 -.37 2.746l-.118 .23l-.039 .07c-.444 .772 -.958 1.652 -.154 3.716l-.013 .025c.29 -.424 .585 -.842 .887 -1.285a3.856 3.856 0 0 1 .34 -2.7c.097 -.238 .194 -.469 .264 -.707a4.39 4.39 0 0 0 0 -2.436a8.065 8.065 0 0 0 -.115 -.36l-.04 -.11l-.031 -.07zm-17.865 7.032a.234 .234 0 0 1 .16 .29a.231 .231 0 0 1 -.224 .166h-.065a.248 .248 0 0 1 -.16 -.295a.234 .234 0 0 1 .289 -.161zm28.425 -1.39a.103 .103 0 0 1 -.062 .175a5.953 5.953 0 0 0 -1.556 .547c-.48 .256 -.915 .59 -1.286 .99h-.013a.11 .11 0 0 1 -.147 0a.103 .103 0 0 1 0 -.142a5.053 5.053 0 0 1 1.35 -1.028a6.352 6.352 0 0 1 1.607 -.566a.103 .103 0 0 1 .107 .024zm11.336 -1.843l.739 1.62l-.09 .045c-.142 -.277 -.232 -.373 -.553 -.232l-1.993 .83c-.225 .096 -.225 .186 -.135 .417c.273 .43 .813 .605 1.286 .418v.09l-1.106 .366l-.996 -2.352l.09 -.045c.135 .276 .231 .366 .553 .231l1.928 -.835c.322 -.135 .322 -.277 .187 -.553h.09zm2.166 3.02a.225 .225 0 0 1 -.154 .284h-.065a.231 .231 0 0 1 -.225 -.167v.012a.231 .231 0 0 1 .155 -.289a.238 .238 0 0 1 .289 .16zm-22.654 -1.714c.083 0 .164 .027 .231 .077c.073 .061 .117 .15 .122 .244a.437 .437 0 0 1 -.045 .225h.611a.707 .707 0 0 0 .154 0a.154 .154 0 0 0 .097 -.058h.032l-.283 .367h-.816l-.045 .07l.327 .251l.129 .077a.141 .141 0 0 0 .07 0l.038 -.029l.021 -.023l-.378 .507l.02 -.031a.315 .315 0 0 0 .017 -.045a.129 .129 0 0 0 0 -.07s-.045 -.052 -.11 -.097l-.764 -.572a.328 .328 0 0 0 -.129 -.077a.09 .09 0 0 0 -.07 0a.296 .296 0 0 0 -.097 .103h-.032l.405 -.546a1.81 1.81 0 0 1 .263 -.29a.444 .444 0 0 1 .232 -.083zm-19.048 1.2a.231 .231 0 0 1 -.07 .45h-.073v-.013a.225 .225 0 0 1 -.147 -.29a.225 .225 0 0 1 .289 -.147zm25.94 -6.409h-.072a.784 .784 0 0 1 0 .174c-.035 .16 -.089 .315 -.16 .463a4.429 4.429 0 0 1 -.984 1.317a.141 .141 0 0 1 -.2 0a.148 .148 0 0 1 0 -.205c.371 -.347 .674 -.759 .894 -1.215c.065 -.121 .11 -.251 .135 -.386v-.122c-.09 .01 -.18 .024 -.27 .045a.514 .514 0 0 0 0 .174a.508 .508 0 0 1 -.096 .411c-1.286 1.433 -2.571 2.854 -3.748 4.313c-.296 .36 -.588 .723 -.87 1.09l-.361 .482l.292 -.204c.23 -.155 .463 -.305 .695 -.455c.347 -.225 .726 -.463 1.06 -.714c.188 -.128 .355 -.284 .496 -.463c.118 -.154 .245 -.301 .38 -.44l.211 -.202c.445 -.37 .933 -.685 1.453 -.939a6.808 6.808 0 0 0 1.562 -1.041c.19 -.184 .357 -.39 .501 -.61c.095 -.173 .168 -.357 .217 -.548l.04 -.192a1.347 1.347 0 0 0 -.327 -.193a2.957 2.957 0 0 1 -.405 1.01c-.22 .323 -.477 .621 -.765 .886a6.178 6.178 0 0 1 -1.472 .952c-.753 .392 -1.505 .784 -1.775 1.388a.148 .148 0 0 1 -.193 .07a.148 .148 0 0 1 -.07 -.192c.315 -.688 1.112 -1.106 1.928 -1.517a6.178 6.178 0 0 0 1.408 -.906a5.04 5.04 0 0 0 .727 -.836a2.7 2.7 0 0 0 .302 -1.054a.83 .83 0 0 0 -.534 -.34zm15.524 6.199a.231 .231 0 0 1 -.128 .287h-.078a.238 .238 0 0 1 -.218 -.154v.012a.238 .238 0 0 1 .148 -.295a.231 .231 0 0 1 .276 .15zm-21.298 -6.48c-.283 0 -.559 .05 -.835 .09c-.277 .038 -.585 .09 -.875 .147l-.54 .122c.026 .052 .047 .106 .065 .161c.038 .116 .083 .244 .122 .38c.238 .84 .238 1.73 0 2.57c-.077 .251 -.18 .489 -.277 .733a3.779 3.779 0 0 0 -.385 2.288l-.007 .026c.386 -.533 .784 -1.06 1.19 -1.575a.206 .206 0 0 1 0 -.057a1.98 1.98 0 0 1 .302 -1.08c.112 -.186 .19 -.391 .231 -.605c0 -.05 0 -.192 .039 -.327c.038 -.29 .07 -.534 .128 -.849c.07 -.292 .19 -.57 .354 -.823l.118 -.205l.107 -.212c.047 -.12 .088 -.242 .122 -.367c.033 -.143 .08 -.283 .141 -.417zm-19.889 5.964a.231 .231 0 0 1 -.077 .444a.193 .193 0 0 1 -.083 0v-.013a.231 .231 0 1 1 .16 -.43zm18.538 -.224a.283 .283 0 0 0 -.21 .154l-.077 .09l.514 .385l.039 -.051a.643 .643 0 0 0 .11 -.193a.212 .212 0 0 0 0 -.154a.34 .34 0 0 0 -.13 -.148a.283 .283 0 0 0 -.246 -.083zm22.3 -.125a.225 .225 0 0 1 .119 .13a.231 .231 0 0 1 -.129 .297h-.083a.231 .231 0 0 1 -.219 -.155v.02a.231 .231 0 0 1 .312 -.292zm-40.561 -.377a.231 .231 0 0 1 -.084 .444h-.083v-.013a.231 .231 0 0 1 .167 -.431zm19.491 -1.356l.315 .244a.572 .572 0 0 0 -.2 -.064a.309 .309 0 0 0 -.147 0a.302 .302 0 0 0 -.103 .103l-.07 .083l.893 .7a.424 .424 0 0 0 .122 .078a.116 .116 0 0 0 .064 0a.225 .225 0 0 0 .078 -.064l.023 -.029l-.467 .594v-.038a.219 .219 0 0 0 .045 -.097a.084 .084 0 0 0 0 -.064a.373 .373 0 0 0 -.103 -.096l-.893 -.701l-.065 .09a.309 .309 0 0 0 -.083 .206a.456 .456 0 0 0 .064 .176l.058 .074l-.309 -.25l.778 -.945zm-17.158 -1.877l.83 .456l-.045 .097a.861 .861 0 0 0 -1.061 .321c-.283 .508 .09 .92 .784 1.337c.694 .418 1.292 .508 1.569 0a1.215 1.215 0 0 0 -.045 -1.06l.276 .147c.134 .43 .085 .894 -.135 1.286a1.408 1.408 0 0 1 -2.128 .463a1.395 1.395 0 0 1 -.643 -2.083c.225 -.411 .598 -.591 .643 -.688c.045 -.096 -.045 -.141 -.141 -.231l.096 -.045zm38.045 2.982a.231 .231 0 0 1 -.129 .302a.206 .206 0 0 1 -.09 0a.244 .244 0 0 1 -.212 -.14v.018a.233 .233 0 0 1 .43 -.18zm-3.067 -3.606l.926 1.479c.418 .643 .276 1.06 -.135 1.337a.72 .72 0 0 1 -.88 -.187a.752 .752 0 0 1 -.277 1.022c-.418 .277 -.881 .225 -1.344 -.507l-.92 -1.504l.046 -.097c.186 .276 .321 .328 .598 .142l1.806 -1.087c.277 -.18 .277 -.321 .09 -.553l.09 -.045zm-37.176 3.09a.225 .225 0 1 1 0 .45a.225 .225 0 0 1 0 -.45zm19.922 -1.348l1.286 .367a.74 .74 0 0 0 .244 .038a.18 .18 0 0 0 .096 -.051h.032l-.456 .553h-.032a.18 .18 0 0 0 .058 -.11v-.051h-.122l-.187 -.129l-.334 .399l.07 .141c.018 .037 .042 .07 .071 .097a.103 .103 0 0 0 .103 0a.43 .43 0 0 0 .11 -.09h.032l-.315 .373a.219 .219 0 0 0 0 -.142a1.06 1.06 0 0 0 -.09 -.238l-.566 -1.157zm20.006 1.209a.225 .225 0 0 1 -.116 .302c-.03 .01 -.06 .01 -.09 0a.231 .231 0 0 1 -.212 -.135v.026a.225 .225 0 0 1 .115 -.309c.116 -.05 .25 .002 .303 .116zm-19.614 -4.435h-.058l-.321 .058c-.206 .032 -.27 .276 -.347 .546l-.062 .204l-.073 .2a3.625 3.625 0 0 1 -.232 .444a2.384 2.384 0 0 0 -.321 .733c-.058 .296 -.09 .54 -.122 .836c0 .07 0 .148 -.045 .327a2.102 2.102 0 0 1 -.264 .701a2.27 2.27 0 0 0 -.202 .476l-.028 .107l.403 -.503c.151 -.187 .304 -.372 .458 -.556l.462 -.546c-.062 -.47 .025 -.945 .245 -1.362l.102 -.174c.073 -.124 .138 -.253 .193 -.386c.062 -.18 .099 -.368 .11 -.559a2.57 2.57 0 0 1 .102 -.546zm16.245 3.445l-.88 .553c-.277 .141 -.322 .141 -.18 .372c.14 .232 .41 .18 .784 -.05a.643 .643 0 0 0 .276 -.875zm-36.064 .501a.231 .231 0 0 1 .109 .309a.225 .225 0 0 1 -.206 .128a.264 .264 0 0 1 -.103 0v-.019a.231 .231 0 1 1 .2 -.418zm19.729 -.263l.244 .501l.283 -.34l-.527 -.161zm19.382 .045a.238 .238 0 0 1 -.103 .315a.29 .29 0 0 1 -.103 0a.231 .231 0 0 1 -.205 -.122v.019a.238 .238 0 0 1 .096 -.315a.244 .244 0 0 1 .315 .103zm-38.77 -.463a.219 .219 0 0 1 .096 .308a.219 .219 0 0 1 -.2 .129a.302 .302 0 0 1 -.109 0v-.026a.244 .244 0 0 1 -.096 -.315a.225 .225 0 0 1 .308 -.096zm36.925 -.56l-1.06 .65c.18 .276 .462 .366 .784 .135c.321 -.232 .411 -.463 .276 -.784zm-15.937 -1.072a.804 .804 0 0 1 .373 .18c.076 .06 .139 .134 .186 .219a.533 .533 0 0 1 .084 .238a.566 .566 0 0 1 0 .231a1.363 1.363 0 0 1 -.097 .244c-.038 .06 -.081 .115 -.128 .167l-.476 .482v-.038a.238 .238 0 0 0 .045 -.09a.09 .09 0 0 0 0 -.07a.315 .315 0 0 0 -.097 -.097l-.739 -.643a.72 .72 0 0 0 -.116 -.084a.141 .141 0 0 0 -.07 0l-.042 .028l-.032 .032l.389 -.464a.964 .964 0 0 1 .328 -.277a.598 .598 0 0 1 .392 -.058zm17.406 1.423a.231 .231 0 0 1 -.094 .313a.212 .212 0 0 1 -.11 0a.238 .238 0 0 1 -.205 -.122v.025a.231 .231 0 0 1 .41 -.216zm-38.016 -.459a.225 .225 0 0 1 .09 .315a.231 .231 0 0 1 -.206 .116a.219 .219 0 0 1 -.11 0v-.032a.231 .231 0 0 1 .226 -.399zm3.358 -3.01c.45 -.062 .903 .083 1.232 .394c.874 .65 .835 1.524 .231 2.308a1.53 1.53 0 0 1 -2.308 .373a1.575 1.575 0 0 1 -.231 -2.36a1.492 1.492 0 0 1 1.076 -.715zm16.699 2.252a.771 .771 0 0 0 -.193 .18l.006 .039l.881 .739l.09 .064h.045l.064 -.058a.315 .315 0 0 0 .084 -.29a.868 .868 0 0 0 -.321 -.455a.97 .97 0 0 0 -.405 -.219a.405 .405 0 0 0 -.251 0zm17.57 .546a.231 .231 0 0 1 -.078 .322a.264 .264 0 0 1 -.122 -.007a.212 .212 0 0 1 -.2 -.115l.007 .038a.225 .225 0 0 1 .077 -.315a.231 .231 0 0 1 .315 .077zm-18.105 -2.462c-.205 .038 -.238 .334 -.27 .642c-.015 .22 -.06 .436 -.135 .643a3.09 3.09 0 0 1 -.134 .278l-.078 .133c-.195 .326 -.294 .7 -.283 1.08c.437 -.501 .875 -.99 1.286 -1.465c.411 -.476 .752 -.797 1.138 -1.176a4.5 4.5 0 0 0 -1.524 -.135zm14.22 -1.17l1.164 1.375l-.09 .045c-.187 -.231 -.328 -.276 -.604 -.045l-1.388 1.145c-.373 .328 -.328 .605 -.141 .836a.752 .752 0 0 0 1.112 .045l1.247 -1.06a.354 .354 0 0 0 .09 -.56l.045 -.045l.694 .759l-.09 .09c-.186 -.225 -.328 -.277 -.604 -.045l-1.247 1.015c-.553 .463 -1.106 .328 -1.569 -.276a.996 .996 0 0 1 0 -1.569l1.247 -1.06c.277 -.231 .232 -.373 .045 -.604l.09 -.045zm-29.705 1.967c-.83 -.65 -1.292 -.598 -1.569 -.277c-.276 .322 -.141 .79 .643 1.434c.83 .642 1.286 .604 1.569 .276c.283 -.328 .186 -.784 -.643 -1.433zm-3.653 1.22c.09 .056 .129 .163 .102 .26l-.024 .056a.244 .244 0 0 1 -.2 .103a.206 .206 0 0 1 -.122 0v-.026a.231 .231 0 0 1 -.077 -.315a.238 .238 0 0 1 .321 -.077zm36.791 -.218a.238 .238 0 0 1 -.07 .322a.231 .231 0 0 1 -.13 .038a.231 .231 0 0 1 -.155 -.064l-.036 -.045a.231 .231 0 0 1 .07 -.321a.244 .244 0 0 1 .322 .07zm-36.391 -.398a.231 .231 0 1 1 -.256 .385a.231 .231 0 0 1 .256 -.385zm35.955 -.244a.225 .225 0 0 1 -.058 .32a.2 .2 0 0 1 -.128 .046a.244 .244 0 0 1 -.193 -.103a.231 .231 0 0 1 .379 -.263zm-35.511 -.38c.104 .073 .13 .217 .057 .322a.238 .238 0 0 1 -.192 .096a.225 .225 0 0 1 -.135 -.045a.231 .231 0 0 1 .27 -.373zm35.058 -.246a.231 .231 0 0 1 -.042 .323a.244 .244 0 0 1 -.103 -.006a.238 .238 0 0 1 -.186 -.09l-.039 .051a.231 .231 0 0 1 .37 -.278zm-34.707 -.416a.219 .219 0 0 1 .17 .052a.225 .225 0 0 1 .044 .321a.244 .244 0 0 1 -.186 .09a.257 .257 0 0 1 -.142 -.051l-.012 -.045a.231 .231 0 0 1 -.026 -.277a.219 .219 0 0 1 .152 -.09zm29.818 -3.265l1.286 1.016c.649 .507 .745 1.06 .417 1.433c-.327 .373 -.88 .373 -1.433 -.09l-.277 -.186l-.552 .694c-.232 .276 -.187 .411 .09 .598l-.045 .096l-1.434 -1.138l.045 -.09c.231 .232 .373 .232 .604 -.051l1.344 -1.633c.186 -.276 .141 -.418 -.09 -.598l.045 -.051zm4.294 2.892l.45 .521l-1.06 -.058l-.116 -.154l.726 -.309zm-33.612 -.209a.231 .231 0 0 1 .232 .229c0 .06 -.025 .118 -.068 .16a.219 .219 0 0 1 -.173 .084a.231 .231 0 0 1 -.148 -.051l.026 -.026a.231 .231 0 0 1 -.034 -.329a.231 .231 0 0 1 .164 -.068zm33.148 -.272a.231 .231 0 0 1 .066 .41a.219 .219 0 0 1 -.322 0l.02 -.025a.225 .225 0 0 1 0 -.321a.231 .231 0 0 1 .236 -.064zm-27.86 -3.202a1.485 1.485 0 0 1 2.263 .418a1.44 1.44 0 0 1 -.56 2.166l-1.382 .926l-.045 -.09c.232 -.141 .322 -.276 .135 -.56l-1.15 -1.799c-.187 -.276 -.328 -.276 -.605 -.09l-.045 -.09zm-4.643 3.011a.23 .23 0 0 1 0 .326a.238 .238 0 0 1 -.173 .077a.231 .231 0 0 1 -.154 -.057v-.02a.231 .231 0 0 1 .327 -.327zm32.058 -.26a.225 .225 0 0 1 .002 .316a.2 .2 0 0 1 -.155 .065a.219 .219 0 0 1 -.167 -.077v.012a.225 .225 0 0 1 .32 -.317zm-6.234 -3.784l2.314 1.388l-.463 .74l-.045 -.052a.688 .688 0 0 0 -.379 -.945l-.411 -.225l-.643 1.06c.366 .232 .553 .135 .874 -.276l.097 .045l-.785 1.286l-.096 -.045c.231 -.463 .186 -.65 -.18 -.881l-.56 .926c-.09 .141 -.09 .23 .052 .32l.366 .187c.232 .142 .553 .277 1.061 -.186l.097 .045l-.605 .694l-2.308 -1.401l.045 -.097c.232 .142 .367 .142 .553 -.135l1.112 -1.8c.18 -.282 .09 -.417 -.141 -.558l.045 -.09zm3.812 2.815l-.836 1.06c.328 .232 .605 .058 .836 -.225c.232 -.282 .322 -.559 0 -.835zm-29.126 .661a.225 .225 0 0 1 -.16 .392a.2 .2 0 0 1 -.155 -.064a.227 .227 0 1 1 .315 -.328zm30.867 -.325a.23 .23 0 0 1 .164 .068c.083 .09 .083 .23 0 .321a.231 .231 0 0 1 -.282 .04l-.046 -.04a.225 .225 0 0 1 0 -.321a.231 .231 0 0 1 .164 -.068zm-25.364 -1.27c-.366 -.603 -.88 -.97 -1.523 -.558l1.337 1.986c.141 .231 .231 .231 .373 .141c.366 -.231 .321 -.829 -.187 -1.568zm-4.957 1.056a.232 .232 0 0 1 -.167 .392a.244 .244 0 0 1 -.168 -.07a.256 .256 0 0 1 -.061 -.165c0 -.061 .024 -.12 .068 -.163a.232 .232 0 0 1 .328 .006zm29.767 -.315c.062 0 .122 .026 .164 .07a.231 .231 0 0 1 -.16 .4a.212 .212 0 0 1 -.155 -.065l-.013 -.013a.219 .219 0 0 1 0 -.321a.225 .225 0 0 1 .164 -.071zm-29.366 -.275a.231 .231 0 0 1 .232 .229a.225 .225 0 0 1 -.222 .225a.219 .219 0 0 1 -.167 -.077l-.006 .02a.225 .225 0 0 1 0 -.329a.231 .231 0 0 1 .163 -.068zm7.57 -3.55l.328 .784l-.096 .051a.643 .643 0 0 0 -.92 -.328l-.463 .187l.463 1.157c.412 -.193 .457 -.373 .322 -.836l.09 -.045l.604 1.389l-.096 .045c-.277 -.463 -.412 -.553 -.83 -.373l.418 .97c.045 .187 .135 .187 .277 .142l.366 -.142c.276 -.135 .604 -.321 .463 -1.015l.141 -.045l.18 .925l-2.539 1.06l-.045 -.09c.276 -.096 .366 -.23 .231 -.558l-.784 -1.89c-.141 -.328 -.276 -.373 -.56 -.231l-.044 -.097l2.494 -1.06zm12.896 -.277l1.658 .643c.785 .276 .978 .778 .836 1.196c-.141 .417 -.418 .507 -.836 .507l.187 1.286a.45 .45 0 0 0 .276 .366l-.045 .09l-1.06 -.392l-.232 -1.62h-.096l-.322 .836c-.135 .321 -.045 .411 .232 .553l-.045 .09l-1.665 -.643l.045 -.096c.276 .096 .418 .096 .508 -.232l.79 -1.986c.09 -.321 .045 -.411 -.231 -.508v-.09zm8.518 3.632c.097 .083 .109 .23 .025 .328a.25 .25 0 0 1 -.18 .077a.225 .225 0 0 1 -.147 -.058h-.026a.225 .225 0 0 1 0 -.321a.233 .233 0 0 1 .328 -.026zm-28.353 -.39a.225 .225 0 0 1 .157 .088a.219 .219 0 0 1 -.032 .321a.206 .206 0 0 1 -.148 .058a.238 .238 0 0 1 -.174 -.084h.026a.231 .231 0 0 1 0 -.327a.225 .225 0 0 1 .171 -.056zm27.625 -.205c.06 -.008 .121 .01 .168 .048a.238 .238 0 0 1 .039 .328a.225 .225 0 0 1 -.18 .084a.219 .219 0 0 1 -.18 -.052a.231 .231 0 0 1 0 -.321a.225 .225 0 0 1 .153 -.087zm-26.825 -.196a.238 .238 0 0 1 -.187 .38a.238 .238 0 0 1 -.18 -.09l-.025 .032a.231 .231 0 0 1 .064 -.36a.238 .238 0 0 1 .328 .038zm26.376 -.263c.1 .079 .123 .222 .052 .327a.244 .244 0 0 1 -.285 .07l-.043 -.025a.238 .238 0 0 1 -.045 -.327a.225 .225 0 0 1 .321 -.045zm-25.856 -.265a.232 .232 0 0 1 -.126 .443a.225 .225 0 0 1 -.15 -.095a.225 .225 0 0 1 .045 -.321a.232 .232 0 0 1 .23 -.027zm25.188 -.211a.231 .231 0 0 1 .051 .321a.231 .231 0 0 1 -.186 .103a.225 .225 0 0 1 -.135 -.045l.042 .018l-.042 -.023a.225 .225 0 0 1 -.052 -.316a.231 .231 0 0 1 .322 -.058zm-14.349 -2.886v.09c-.321 0 -.411 .096 -.366 .418l.231 2.172c0 .232 .045 .232 .322 .232c.649 -.097 .739 -.694 .784 -1.112h.096l.045 1.202l-2.584 .276v-.09c.321 -.045 .411 -.141 .366 -.463l-.231 -2.076c0 -.373 -.135 -.418 -.463 -.373v-.09l1.8 -.186zm3.33 -.013l.926 2.86c.045 .187 .09 .232 .231 .232v.141l-1.574 -.141v-.09h.187c.09 .045 .186 -.045 .186 -.142a.27 .27 0 0 0 -.045 -.18l-.141 -.559l-.83 -.045l-.186 .418a.784 .784 0 0 0 -.09 .231c0 .135 .045 .232 .321 .232v.103l-.88 -.058v-.09c.186 0 .231 -.097 .418 -.418l1.157 -2.494h.321zm-13.474 2.764a.232 .232 0 0 1 -.193 .36a.244 .244 0 0 1 -.193 -.103a.238 .238 0 0 1 .064 -.321a.232 .232 0 0 1 .322 .064zm23.856 -.27a.231 .231 0 0 1 .071 .321a.231 .231 0 0 1 -.281 .086l-.04 -.021a.231 .231 0 0 1 .078 -.417a.225 .225 0 0 1 .172 .031zm-4.828 -1.093l-.456 1.24c.456 .187 .65 .187 .874 -.32c.225 -.508 .097 -.74 -.418 -.92zm-18.521 .85c.059 .013 .11 .05 .142 .102a.238 .238 0 0 1 -.077 .321a.244 .244 0 0 1 -.122 .032a.225 .225 0 0 1 -.193 -.11a.231 .231 0 0 1 .077 -.314a.225 .225 0 0 1 .173 -.031zm22.679 -.143c.098 .06 .138 .184 .092 .29a.238 .238 0 0 1 -.2 .115a.264 .264 0 0 1 -.115 0v-.032a.238 .238 0 0 1 -.077 -.321c.072 -.09 .2 -.112 .3 -.052zm-22.014 -.218a.231 .231 0 0 1 .056 .424a.264 .264 0 0 1 -.116 .032a.225 .225 0 0 1 -.2 -.115a.231 .231 0 0 1 .26 -.341zm21.354 -.16a.225 .225 0 0 1 .09 .314a.238 .238 0 0 1 -.2 .116a.25 .25 0 0 1 -.115 0v-.026a.238 .238 0 0 1 -.09 -.315a.231 .231 0 0 1 .315 -.09zm-20.676 -.182a.22 .22 0 0 1 .136 .117a.231 .231 0 0 1 -.096 .308a.212 .212 0 0 1 -.11 0a.238 .238 0 0 1 -.205 -.122v.026a.231 .231 0 0 1 .096 -.308a.225 .225 0 0 1 .179 -.02zm11.026 -.52l-.418 .881l.74 .045l-.322 -.925zm8.902 .307l.06 .028a.231 .231 0 0 1 .103 .315a.231 .231 0 0 1 -.206 .122a.206 .206 0 0 1 -.103 0v-.026a.231 .231 0 0 1 .146 -.439zm-19.104 -.01a.231 .231 0 0 1 -.11 .308a.264 .264 0 0 1 -.102 0a.225 .225 0 0 1 -.206 -.129v.02a.231 .231 0 0 1 .418 -.2zm18.476 -.329a.231 .231 0 0 1 .116 .303a.231 .231 0 0 1 -.213 .135a.257 .257 0 0 1 -.096 0v-.02a.231 .231 0 0 1 -.11 -.308a.219 .219 0 0 1 .303 -.11zm-17.9 -.152a.231 .231 0 0 1 .01 .429a.16 .16 0 0 1 -.09 0a.225 .225 0 0 1 -.213 -.135v.02a.231 .231 0 0 1 .293 -.314zm17.186 -.162a.231 .231 0 0 1 -.09 .443a.206 .206 0 0 1 -.09 0v-.02a.231 .231 0 0 1 -.122 -.301a.225 .225 0 0 1 .302 -.122zm-16.354 -.02a.238 .238 0 0 1 -.129 .302a.219 .219 0 0 1 -.09 0a.231 .231 0 0 1 -.212 -.141v.011l-.015 -.057a.231 .231 0 0 1 .144 -.243a.238 .238 0 0 1 .302 .128zm15.698 -.225a.231 .231 0 0 1 .058 .25a.225 .225 0 0 1 -.212 .155a.18 .18 0 0 1 -.083 0v-.02a.231 .231 0 1 1 .237 -.385zm-14.978 -.019a.231 .231 0 0 1 -.141 .296h-.078a.225 .225 0 0 1 -.218 -.155v.013a.238 .238 0 0 1 .087 -.266l.054 -.03a.24 .24 0 0 1 .296 .142zm14.181 -.296a.238 .238 0 0 1 .142 .296a.225 .225 0 0 1 -.219 .154a.129 .129 0 0 1 -.07 0l-.007 -.013a.231 .231 0 0 1 -.141 -.289a.238 .238 0 0 1 .295 -.148zm-13.56 -.092a.231 .231 0 0 1 -.036 .427h-.07a.231 .231 0 0 1 -.22 -.161v.013a.231 .231 0 0 1 .326 -.28zm12.815 -.14a.225 .225 0 0 1 .154 .284a.225 .225 0 0 1 -.219 .167h-.064v-.013a.225 .225 0 0 1 -.16 -.283a.231 .231 0 0 1 .289 -.154zm-11.987 .072a.231 .231 0 0 1 -.138 .276h-.064a.231 .231 0 0 1 -.218 -.174l-.001 .01l-.007 -.058a.23 .23 0 0 1 .112 -.197l.056 -.025a.231 .231 0 0 1 .26 .168zm11.267 -.283a.225 .225 0 0 1 .16 .283a.225 .225 0 0 1 -.218 .173h-.058v-.013a.231 .231 0 0 1 -.167 -.276a.238 .238 0 0 1 .283 -.167zm-10.58 -.053a.231 .231 0 0 1 .108 .143a.225 .225 0 0 1 -.174 .276h-.051a.238 .238 0 0 1 -.225 -.18v.013a.225 .225 0 0 1 .167 -.276a.231 .231 0 0 1 .176 .024zm9.795 -.12a.225 .225 0 0 1 .174 .27a.231 .231 0 0 1 -.225 .18h-.051l.032 -.007a.231 .231 0 0 1 -.206 -.27a.225 .225 0 0 1 .276 -.174zm-9.022 -.012a.233 .233 0 0 1 -.125 .384h-.052a.231 .231 0 0 1 -.225 -.18a.238 .238 0 0 1 .122 -.255l.058 -.021a.233 .233 0 0 1 .222 .072zm8.384 -.123c.066 .062 .09 .158 .06 .244a.225 .225 0 0 1 -.225 .192h-.045a.241 .241 0 0 1 -.18 -.276a.231 .231 0 0 1 .39 -.16zm-7.577 .102a.225 .225 0 0 1 -.187 .264h-.038a.238 .238 0 0 1 -.21 -.13l-.022 -.063l-.003 -.055a.231 .231 0 0 1 .46 -.016zm6.679 -.257a.225 .225 0 0 1 .2 .257a.238 .238 0 0 1 -.232 .2l-.032 -.007a.219 .219 0 0 1 -.193 -.257a.219 .219 0 0 1 .257 -.193zm-6.152 -.051a.231 .231 0 0 1 .257 .199a.225 .225 0 0 1 -.193 .257h-.032a.238 .238 0 0 1 -.231 -.2a.242 .242 0 0 1 .199 -.256zm5.365 -.053l.06 .001a.231 .231 0 0 1 0 .457h-.057a.231 .231 0 0 1 -.114 -.412a.225 .225 0 0 1 .111 -.046zm-4.536 -.037a.231 .231 0 0 1 .098 .436l-.053 .02a.231 .231 0 0 1 -.231 -.206h-.02a.225 .225 0 0 1 .206 -.25zm.934 -.053c.077 .05 .116 .142 .101 .233a.225 .225 0 0 1 -.153 .233l-.059 .01a.231 .231 0 0 1 -.225 -.218l-.02 -.025a.231 .231 0 0 1 .356 -.233zm2.962 .014c.126 .014 .22 .124 .212 .25a.238 .238 0 0 1 -.231 .213h-.02a.232 .232 0 0 1 .039 -.463zm-.778 -.02a.238 .238 0 0 1 .225 .239a.231 .231 0 0 1 -.171 .217l-.058 .007l-.058 -.008a.232 .232 0 0 1 .062 -.454zm-1.524 -.006c.128 0 .232 .104 .232 .232a.238 .238 0 0 1 -.165 .226l-.06 .012a.231 .231 0 0 1 -.232 -.225l-.006 -.013c0 -.128 .104 -.232 .231 -.232zm.772 0a.231 .231 0 1 1 0 .463a.231 .231 0 0 1 0 -.463z" />
</svg>
