---
version: "0.0.4"
---
<svg>
  <path d="M15.54 23.65c4.33 0 8.086 2.4 10.018 5.945h-3.005c-1.646 -2.077 -4.151 -3.402 -7.014 -3.402c-4.902 0 -8.873 3.975 -8.873 8.882s3.971 8.882 8.873 8.882c3.257 0 6.083 -1.755 7.622 -4.37h2.863c-1.754 4.049 -5.797 6.913 -10.485 6.913c-6.297 0 -11.414 -5.122 -11.414 -11.425c0 -6.304 5.117 -11.425 11.414 -11.425zm10.7 1.034l12.466 .187c1.864 .028 2.199 .411 3.193 1.322c1.016 .89 1.392 2.372 1.392 4.093c0 1.584 -.056 2.774 -1.134 3.922c-.603 .644 -1.134 1.204 -1.416 1.46l-.003 .002l.084 .022c.85 .237 1.302 .69 1.704 1.312c.456 .673 .536 1.833 .536 2.842v.182l.004 .161l.001 .072v.574c-.001 .301 -.005 .738 -.011 1.389v2.415c0 1.024 .916 1.297 1.061 1.495h-3.59s.062 -1.125 0 -1.66v-3.818c0 -1.06 -.112 -1.527 -1.065 -2.685c-.477 -.614 -1.823 -.964 -2.9 -.965l-7.547 -.002v9.13h-2.774v-21.45zm2.775 2.464v7.359l6.557 -.01c1.7 -.004 2.693 .007 3.77 -.764c.903 -1.142 .96 -1.555 .96 -3.08c0 -1.266 .137 -1.977 -.464 -2.57c-.58 -.614 -1.062 -.919 -2.408 -.92l-8.415 -.015zm4.67 -25.648c4.33 0 8.087 2.4 10.02 5.945h-3.006c-1.646 -2.077 -4.15 -3.402 -7.013 -3.402c-4.902 0 -8.874 3.975 -8.874 8.882s3.972 8.882 8.874 8.882c3.256 0 6.083 -1.755 7.621 -4.37h2.863c-1.753 4.048 -5.797 6.913 -10.484 6.913c-4.606 0 -8.58 -2.74 -10.383 -6.677a5.883 5.883 0 0 1 -.638 2.173c-.435 .85 -.977 1.507 -1.624 1.971c-.648 .464 -1.462 .817 -2.443 1.058c-.971 .232 -2.165 .348 -3.582 .348h-8.482v-21.25h8.346c1.7 0 3.06 .218 4.082 .653c1.032 .425 1.836 1.087 2.413 1.986c.586 .889 .88 1.821 .88 2.797c0 .909 -.258 1.764 -.774 2.566c-.516 .802 -1.295 1.45 -2.337 1.942c1.345 .377 2.377 1.02 3.096 1.928l.077 .103a11.55 11.55 0 0 1 -.046 -1.023c0 -6.303 5.117 -11.425 11.415 -11.425zm-19.062 11.91h-5.145v7.306h5.538c.951 0 1.62 -.034 2.004 -.102c.677 -.116 1.244 -.31 1.7 -.58c.454 -.27 .829 -.662 1.122 -1.174c.293 -.522 .44 -1.12 .44 -1.797c0 -.792 -.212 -1.479 -.637 -2.058c-.425 -.59 -1.017 -1 -1.776 -1.232c-.748 -.242 -1.83 -.363 -3.247 -.363zm-.698 -8.929h-4.447v6.422h4.81c1.305 0 2.24 -.083 2.807 -.247c.749 -.212 1.31 -.565 1.685 -1.058c.384 -.493 .576 -1.111 .576 -1.855c0 -.706 -.177 -1.324 -.53 -1.856c-.355 -.54 -.86 -.908 -1.518 -1.101c-.658 -.203 -1.786 -.305 -3.384 -.305z" />
</svg>
