---
version: "0.0.4"
---
<svg>
  <path d="M21.291 14.727l-.02 -.002l.02 .13c-.26 -.081 -.607 -.11 -.983 -.105c-1.366 .075 -2.648 .33 -4.14 .875c-1.17 .433 -3.397 1.424 -5.941 3.252c-3.326 2.39 -5.222 4.779 -5.42 7.045c-.174 1.991 1.64 3.17 4.65 3.426c7.117 .62 15.343 -2.841 21.662 -6.407l-.016 -.04l-2.786 -7.315l-3.634 8.076c-1.228 2.54 -5.245 3.28 -8.055 3.687l.509 -1.082l8.132 -15.91h6.34l4.543 9.649l.016 .038l.014 -.008l10.318 -5.716l-.033 5.36l-8.292 4.935l-.016 .008l4.085 9.143l-2.827 -.006l-2.206 -.014c-.927 .014 -1.833 -.056 -2.218 -1.07l-.782 -1.96l-1.295 -3.277l-.631 .332c-4.112 2.154 -8.313 4.237 -13.089 5.357c-4.683 1.098 -9.836 1.242 -13.432 -.887c-3.237 -1.91 -4.294 -5.652 -4.234 -8.401c.042 -1.8 .9 -4.32 2.588 -6.417c3.141 -3.909 9.066 -7.292 13.784 -7.447c1.682 -.056 2.75 .514 3.39 4.752zm25.16 -6.852v4.147l-7.998 4.454c-.787 .41 -1.798 .104 -2.073 -.812l-.925 -2.187c1.31 -.286 3.359 -1.432 3.359 -1.432l5.954 -3.243l1.682 -.927zm-44.951 28.521h41.864v3.729h-41.864v-3.729z" />
</svg>
