---
version: "0.0.4"
---
<svg>
  <path d="M6.998 43.793a20.906 20.906 0 0 1 -.994 -2.269c2.146 -1.122 4.274 -2.237 6.434 -3.368c-.08 -.054 -.13 -.094 -.186 -.127c-.438 -.262 -.877 -.517 -1.312 -.783c-.22 -.134 -.434 -.279 -.65 -.423c-.156 -.105 -.299 -.128 -.48 -.031c-1.424 .738 -2.853 1.467 -4.279 2.197l-.745 .38c-.048 .024 -.1 .041 -.146 .062c-.256 -.293 -1.02 -1.928 -1.045 -2.246c.075 -.044 .157 -.094 .243 -.138c1.272 -.668 2.545 -1.333 3.815 -2c.084 -.045 .164 -.1 .262 -.16c-.465 -.546 -.975 -1.021 -1.398 -1.601c.109 -.067 .188 -.12 .272 -.166c1.741 -.927 3.479 -1.864 5.226 -2.78c8.379 -4.39 16.761 -8.777 25.142 -13.164a6.92 6.92 0 0 0 .232 -.128c.036 -.377 -.521 -1.909 -.816 -2.258c-.44 .138 -31.113 16.219 -31.402 16.466c.04 .067 .08 .14 .124 .209c.335 .498 .674 .992 1.006 1.49c.07 .1 .162 .197 .14 .33l-3.853 2.033c-.364 -.75 -.764 -1.473 -1.088 -2.258c.092 -.055 .165 -.103 .245 -.145l2.85 -1.498c.128 -.067 .254 -.143 .394 -.224c-.038 -.084 -.065 -.153 -.098 -.22c-.385 -.804 -.798 -1.597 -1.118 -2.43a18.248 18.248 0 0 1 -1.09 -4.326a16.902 16.902 0 0 1 -.103 -3.236c.303 -4.458 1.978 -8.316 5.097 -11.53c2.41 -2.48 5.318 -4.08 8.665 -4.898c.745 -.182 1.496 -.343 2.262 -.394c.549 -.035 1.101 -.04 1.652 -.029c.76 .015 1.52 .046 2.277 .092c.768 .048 1.515 .226 2.258 .419c3.012 .785 5.651 2.24 7.893 4.403c1.513 1.463 2.754 3.127 3.673 5.024c.082 .17 .174 .332 .264 .5c.006 .01 .02 .017 .054 .038c2.901 -1.474 5.78 -3.02 8.718 -4.502c.418 .722 .772 1.452 1.107 2.22c-.08 .046 -.149 .09 -.22 .126c-1.791 .937 -3.585 1.869 -5.373 2.815c-1.03 .544 -2.047 1.111 -3.068 1.67c-.09 .05 -.176 .109 -.274 .17c.15 .672 .3 1.337 .448 1.992c.138 .042 .232 -.012 .324 -.056c.465 -.222 .932 -.444 1.392 -.678c1.298 -.662 2.593 -1.332 3.889 -1.997c.092 -.048 .188 -.09 .305 -.145c.417 .716 .777 1.449 1.091 2.223c-.121 .067 -.218 .122 -.316 .172a7321.55 7321.55 0 0 0 -6.154 3.217c-.05 .025 -.098 .054 -.148 .077c-.105 .046 -.157 .12 -.161 .24c-.013 .357 -.034 .71 -.061 1.066c-.034 .431 -.077 .86 -.115 1.292c-.006 .067 0 .136 0 .24c.1 -.037 .184 -.06 .26 -.098c.682 -.34 1.358 -.686 2.034 -1.03c.77 -.391 1.542 -.783 2.315 -1.17c.213 -.106 .232 -.1 .362 .11c.077 .123 .15 .25 .213 .382c.228 .477 .452 .959 .676 1.438c.025 .057 .044 .115 .074 .193c-.08 .041 -.151 .081 -.222 .119l-6.252 3.259l-.149 .077a.548 .548 0 0 0 -.29 .333a16.75 16.75 0 0 1 -2.512 4.54c-2.753 3.529 -6.307 5.793 -10.708 6.695c-1.52 .312 -3.054 .406 -4.599 .318a18.055 18.055 0 0 1 -3.118 -.477a1.238 1.238 0 0 0 -.927 .117c-2.59 1.353 -5.187 2.69 -7.782 4.03c-.136 .069 -.274 .131 -.436 .209zm30.95 -24.293c-9.978 5.158 -19.905 10.293 -29.838 15.43c.03 .048 .042 .073 .058 .092a11.62 11.62 0 0 0 1.784 1.513c.104 .073 .19 .04 .288 -.01c.538 -.279 1.078 -.555 1.618 -.833l22.595 -11.665l3.566 -1.842c.178 -.092 .176 -.094 .157 -.286a7.9 7.9 0 0 1 -.02 -.272c-.043 -.57 -.085 -1.141 -.13 -1.71c-.011 -.124 -.045 -.243 -.078 -.415zm-.046 5.643l-.046 -.031c-.178 .09 -.358 .177 -.536 .267c-7.533 3.898 -15.068 7.793 -22.6 11.692c-.563 .291 -1.124 .588 -1.683 .888c-.107 .056 -.205 .134 -.341 .226c.1 .052 .159 .085 .22 .11c.822 .346 1.65 .674 2.507 .93c.18 .054 .322 .042 .492 -.046c5.84 -3.03 11.68 -6.055 17.522 -9.084c1.158 -.6 2.309 -1.21 3.466 -1.808a.522 .522 0 0 0 .281 -.316c.017 -.053 .038 -.105 .056 -.157c.262 -.766 .457 -1.55 .618 -2.342c.019 -.111 .03 -.22 .044 -.329z" />
</svg>
