---
version: "0.0.4"
---
<svg>
  <path d="M24.014 1.58c-.439 .36 -.581 .933 -.272 1.098c.103 .054 .188 .168 .188 .252c0 .128 -.037 .12 -.218 -.05c-.296 -.276 -.786 -.14 -1.12 .31c-.334 .452 .696 1.27 1.055 .84c.166 -.197 .265 -.174 .3 .07c.023 .165 .09 .21 .31 .21c.222 0 .29 -.045 .313 -.21c.035 -.244 .134 -.267 .299 -.07c.281 .337 1.127 -.11 1.127 -.594c0 -.494 -1 -.942 -1.163 -.522c-.07 .183 -.246 .174 -.246 -.012c0 -.082 .083 -.17 .184 -.197c.37 -.095 .11 -1.147 -.283 -1.147a.747 .747 0 0 1 -.201 -.048c-.07 -.027 -.193 .004 -.273 .07m-.638 2.988c-.543 .278 -.426 .76 .162 .666c.381 -.06 .392 -.071 .392 -.423c0 -.398 -.135 -.458 -.554 -.243m1.21 .243c0 .352 .011 .363 .392 .423c.588 .094 .705 -.388 .163 -.666c-.42 -.215 -.554 -.155 -.554 .243m-5.47 .475a1.64 1.64 0 0 1 -.427 .23a.813 .813 0 0 0 -.362 .292c-.132 .202 -.195 .218 -.631 .173c-.97 -.102 -1.696 -.008 -2.013 .262a1.267 1.267 0 0 1 -.326 .196c-.092 .032 -.217 .175 -.279 .317a2.79 2.79 0 0 1 -.333 .529c-.124 .153 -.195 .333 -.163 .415c.03 .081 -.02 .285 -.111 .455c-.134 .247 -.146 .343 -.056 .485c.083 .133 .084 .246 .006 .452c-.09 .236 -.075 .318 .099 .56c.112 .156 .203 .357 .203 .446c0 .09 .084 .25 .187 .36c.495 .519 .659 .727 .659 .835c0 .205 .226 .428 .47 .464c.21 .03 .239 .087 .28 .538c.054 .573 .334 1.036 .76 1.254c.163 .084 .274 .216 .274 .325c0 .131 .064 .185 .22 .185c.32 0 .36 .089 .153 .351c-.307 .387 -.225 1.387 .135 1.63c.293 .2 -.355 .255 -3.02 .256l-2.842 .001v12.524c0 13.796 -.034 12.926 .562 14.18c.85 1.79 1.867 2.108 6.75 2.116c3.655 .006 4.363 .164 4.861 1.082c.213 .392 .236 .394 .444 .046c.634 -1.067 .546 -1.046 4.572 -1.073c2.946 -.02 3.5 -.046 3.936 -.184c1.754 -.558 2.707 -1.497 3.127 -3.084c.099 -.374 .123 -2.956 .123 -13.013v-12.547l-2.814 -.025c-2.978 -.026 -3.105 -.046 -2.787 -.448c.27 -.34 .278 -1.129 .015 -1.461c-.207 -.262 -.168 -.351 .157 -.351c.133 0 .25 -.072 .29 -.18c.037 -.1 .21 -.278 .386 -.397c.41 -.279 .667 -.763 .667 -1.262c0 -.366 .022 -.4 .3 -.472c.207 -.053 .319 -.15 .363 -.313c.058 -.214 .21 -.415 .747 -.978c.103 -.108 .187 -.288 .187 -.4c0 -.112 .086 -.32 .192 -.462c.157 -.21 .175 -.305 .097 -.51a.57 .57 0 0 1 .008 -.48c.084 -.183 .074 -.277 -.049 -.463a1.036 1.036 0 0 1 -.154 -.48c0 -.136 -.106 -.371 -.235 -.524c-.13 -.152 -.235 -.337 -.235 -.412c0 -.074 -.115 -.186 -.257 -.25a1.716 1.716 0 0 1 -.423 -.277c-.09 -.09 -.293 -.163 -.448 -.163c-.156 0 -.366 -.051 -.466 -.113c-.145 -.09 -.254 -.088 -.523 .008c-.186 .067 -.36 .1 -.386 .075c-.026 -.025 -.166 -.013 -.311 .029c-.226 .064 -.28 .042 -.369 -.153c-.058 -.126 -.242 -.292 -.41 -.37a8.924 8.924 0 0 1 -.52 -.262c-.139 -.078 -.443 -.11 -.846 -.089a42.06 42.06 0 0 1 -.88 .039c-.138 .002 -.301 .066 -.364 .14a.467 .467 0 0 1 -.318 .136c-.113 0 -.35 .15 -.528 .331c-.503 .515 -1.236 .815 -1.072 .439c.276 -.63 -.085 -.821 -1.4 -.739c-.864 .054 -.99 .134 -.84 .53c.204 .536 -.395 .4 -1.011 -.23c-.177 -.181 -.409 -.33 -.515 -.33a.495 .495 0 0 1 -.301 -.109c-.244 -.242 -1.919 -.305 -2.206 -.082m2.023 .944c.217 .107 .628 .272 .912 .367c.48 .161 .494 .174 .198 .18c-.175 .003 -.653 -.105 -1.061 -.24c-2.32 -.764 -3.35 .951 -1.84 3.063c.231 .323 -.05 .295 -.339 -.034c-1.638 -1.874 -.027 -4.397 2.13 -3.336m8.123 .005c1.233 .592 1.35 2.077 .266 3.392c-.342 .415 -.517 .195 -.19 -.238c1.422 -1.889 .225 -3.588 -2.01 -2.852c-.88 .29 -1.597 .344 -.815 .062c.258 -.094 .66 -.258 .892 -.365c.566 -.26 1.315 -.26 1.857 0m-11.837 .514c.372 .099 .245 .275 -.17 .236c-1.58 -.15 -2.274 1.677 -1.205 3.17c.215 .3 .22 .36 .032 .36c-.086 0 -.274 -.27 -.47 -.674c-.623 -1.293 -.358 -2.463 .662 -2.916c.55 -.244 .77 -.278 1.15 -.176m14.86 .248c1.047 .517 1.32 1.693 .68 2.935c-.221 .426 -.353 .583 -.493 .583c-.186 0 -.186 -.008 .03 -.304c1.09 -1.497 .524 -3.13 -1.092 -3.143c-.48 -.004 -.536 -.023 -.435 -.145c.17 -.204 .821 -.167 1.31 .074m-11.663 .027c.192 .081 .663 .197 1.046 .257c.771 .12 .923 .298 .94 1.1c.004 .186 .07 .39 .148 .454c.077 .064 .141 .17 .141 .233c0 .065 .063 .17 .141 .234c.375 .309 .161 .48 -.305 .245c-.612 -.308 -1.34 -.309 -1.872 -.004c-.523 .3 -.499 .308 -.941 -.36c-.302 -.455 -.376 -.645 -.339 -.862c.05 -.282 .572 -1.445 .65 -1.445c.023 0 .2 .067 .391 .148m4.437 -.005c.225 .269 .013 2.283 -.24 2.283c-.126 0 -.142 -.792 -.02 -.989c.069 -.11 .03 -.751 -.064 -1.042c-.113 -.355 .1 -.52 .324 -.252m3.638 .49c.304 .628 .392 1.169 .21 1.281c-.053 .032 -.202 .266 -.33 .519c-.267 .522 -.37 .548 -.92 .237c-.523 -.297 -1.148 -.299 -1.786 -.005c-.598 .276 -.638 .19 -.21 -.443c.217 -.317 .336 -.603 .336 -.8c0 -.667 .204 -.924 .793 -.997a5.937 5.937 0 0 0 1.02 -.238c.268 -.095 .51 -.176 .535 -.18c.026 -.003 .184 .278 .352 .625m-4.811 -.328c-.089 .277 -.096 1.333 -.013 1.773c.052 .277 .037 .349 -.075 .349c-.207 0 -.336 -.581 -.337 -1.516v-.816h.245c.212 0 .237 .028 .18 .21m-6.343 1.084c0 .148 .063 .321 .141 .385c.078 .064 .14 .232 .14 .374c0 .144 .063 .283 .142 .313c.077 .03 .14 .136 .14 .238c0 .102 .148 .297 .328 .433c.393 .297 .357 .404 -.13 .398c-.253 -.004 -.426 .056 -.568 .198c-.297 .295 -.586 .219 -.687 -.182c-.046 -.18 -.228 -.468 -.405 -.64c-.344 -.335 -.403 -.628 -.222 -1.103c.237 -.622 1.121 -.949 1.121 -.414m14.155 -.144c.042 .067 .147 .15 .235 .181c.43 .157 .42 1.224 -.013 1.541a.995 .995 0 0 0 -.35 .551c-.103 .43 -.386 .516 -.694 .21c-.142 -.142 -.315 -.202 -.568 -.198c-.457 .006 -.538 -.115 -.215 -.325a1.22 1.22 0 0 0 .38 -.47c.07 -.17 .17 -.308 .222 -.308c.05 0 .092 -.095 .093 -.21c0 -.115 .084 -.336 .187 -.49c.102 -.154 .162 -.353 .133 -.443c-.064 -.202 .47 -.238 .59 -.04m-7.07 1.703c.081 .08 .148 .185 .148 .233c0 .047 .08 .086 .178 .086c.371 0 .341 .37 -.056 .683c-.248 .195 -.28 .393 -.077 .47c.084 .032 .254 -.067 .424 -.247c.266 -.28 .288 -.287 .336 -.11a.492 .492 0 0 0 .257 .28c.284 .125 .332 .566 .07 .648c-.106 .034 -.193 .138 -.193 .231c0 .274 -.258 .297 -.529 .048c-.316 -.29 -.504 -.294 -.504 -.01c0 .867 1.566 1.007 1.69 .151c.031 -.211 .105 -.333 .214 -.354c.145 -.027 .159 .017 .107 .337c-.106 .66 .692 .945 1.091 .388c.335 -.467 .127 -.956 -.237 -.556c-.216 .237 -.423 .24 -.423 .006c0 -.1 -.042 -.207 -.094 -.239c-.12 -.073 -.123 -.513 -.004 -.513c.05 0 .18 -.094 .289 -.21c.212 -.224 .274 -.191 .554 .293c.094 .162 .29 .054 .285 -.158a.716 .716 0 0 0 -.14 -.34c-.2 -.262 -.176 -.518 .05 -.518c.103 0 .187 -.033 .187 -.073c0 -.04 .129 -.149 .286 -.24c.345 -.203 .56 -.085 .56 .306c0 .137 .053 .303 .117 .368c.094 .094 .057 .167 -.189 .368c-.168 .138 -.306 .303 -.305 .367c.001 .167 .284 .144 .488 -.039c.162 -.146 .182 -.144 .312 .023c.205 .265 .14 .64 -.118 .676c-.117 .016 -.212 .09 -.212 .163c0 .175 -.227 .171 -.375 -.007c-.196 -.233 -.376 -.166 -.376 .14c0 .301 .282 .653 .523 .653c.307 0 .51 -.19 .51 -.476c0 -.22 .037 -.276 .165 -.252c.123 .024 .157 .105 .134 .327c-.06 .583 .812 .797 1.02 .251c.129 -.336 .03 -.436 -.355 -.365c-.314 .06 -.327 .051 -.272 -.167c.037 -.145 .009 -.27 -.077 -.34c-.201 -.166 -.067 -.377 .24 -.377c.15 0 .273 -.042 .273 -.093c0 -.052 .042 -.093 .093 -.093c.052 0 .094 .056 .094 .125c0 .164 .358 .484 .444 .398c.036 -.036 .057 -.279 .046 -.539c-.02 -.44 -.007 -.47 .178 -.42c.124 .031 .272 -.017 .394 -.13c.228 -.211 .432 -.23 .668 -.058c.267 .194 .152 .476 -.217 .53c-.341 .05 -.668 .492 -.668 .903a.478 .478 0 0 1 -.194 .341c-.106 .075 -.27 .276 -.363 .449l-.17 .313l-.787 -.002a24.683 24.683 0 0 1 -2.008 -.135c-1.623 -.175 -6.183 -.174 -7.702 .003c-.62 .072 -1.486 .132 -1.925 .132l-.798 .002l-.186 -.344c-.102 -.19 -.26 -.364 -.35 -.388c-.108 -.028 -.185 -.174 -.227 -.428c-.083 -.523 -.352 -.846 -.704 -.846c-.343 0 -.448 -.22 -.222 -.47c.213 -.232 .426 -.232 .728 .004c.133 .104 .305 .162 .388 .13c.158 -.06 .164 -.04 .184 .561c.016 .465 .191 .526 .394 .137c.138 -.264 .173 -.284 .268 -.155c.075 .103 .156 .123 .26 .066c.237 -.132 .418 .141 .273 .412c-.063 .116 -.101 .273 -.085 .347c.023 .103 -.054 .127 -.323 .104c-.371 -.033 -.482 .195 -.263 .539c.266 .418 1.086 .054 .993 -.44c-.052 -.273 -.036 -.313 .11 -.285c.114 .022 .171 .118 .174 .294c.005 .279 .166 .432 .458 .434c.29 .002 .524 -.276 .524 -.62c0 -.347 -.127 -.395 -.4 -.15c-.171 .154 -.187 .154 -.3 0c-.065 -.088 -.162 -.161 -.214 -.161c-.233 0 -.328 -.268 -.2 -.557c.118 -.262 .363 -.395 .363 -.196c0 .13 .38 .225 .486 .121c.058 -.058 -.034 -.192 -.26 -.377c-.305 -.25 -.335 -.308 -.225 -.439a.747 .747 0 0 0 .136 -.383c.01 -.208 .176 -.403 .349 -.407c.035 0 .183 .097 .328 .216c.147 .12 .343 .246 .437 .28c.189 .068 .148 .362 -.088 .63c-.162 .183 -.167 .336 -.013 .394c.065 .025 .226 -.082 .36 -.236l.24 -.281l.253 .231c.253 .234 .331 .57 .157 .677c-.052 .032 -.094 .14 -.094 .239c0 .236 -.247 .233 -.376 -.006c-.16 -.296 -.375 -.232 -.375 .111c0 .552 .495 .87 .969 .622c.29 -.152 .336 -.254 .278 -.608c-.04 -.246 -.019 -.311 .103 -.311c.105 0 .152 .082 .152 .262c0 .864 1.54 .942 1.744 .088c.09 -.38 -.18 -.442 -.52 -.119c-.277 .263 -.472 .251 -.472 -.028c0 -.087 -.095 -.2 -.211 -.25c-.312 -.137 -.329 -.485 -.03 -.62c.133 -.06 .241 -.161 .241 -.224c0 -.195 .242 -.22 .357 -.037a.93 .93 0 0 0 .3 .274c.319 .17 .354 -.148 .05 -.462c-.282 -.294 -.287 -.61 -.008 -.61c.098 0 .198 -.063 .222 -.14c.122 -.388 .532 -.503 .81 -.226m-.63 1.59c-.211 .21 -.058 .408 .315 .408c.342 0 .379 -.021 .352 -.21c-.03 -.211 -.51 -.354 -.668 -.198m-4.002 .212c-.219 .141 -.045 .383 .276 .383c.248 0 .287 -.03 .26 -.21c-.032 -.226 -.313 -.317 -.536 -.173m8.068 -.004c0 .05 -.025 .158 -.057 .24c-.046 .118 .012 .147 .289 .147c.304 0 .341 -.025 .315 -.21c-.03 -.212 -.547 -.38 -.547 -.177m-1.268 2.064c2.698 .21 3.2 .323 2.874 .646c-.254 .252 -.282 1.246 -.045 1.583l.152 .215l-.504 -.055c-2.528 -.277 -6.541 -.348 -8.582 -.153c-1.591 .152 -1.86 .139 -1.741 -.082c.183 -.34 .12 -1.253 -.104 -1.491c-.266 -.283 -.19 -.32 .976 -.466c2.251 -.28 4.934 -.356 6.974 -.197m-6.395 .799l-.35 .423l.255 .263c.504 .523 .65 .542 1.03 .136c.427 -.456 .423 -.508 -.052 -.912c-.49 -.416 -.463 -.419 -.883 .09m2.891 -.312c-.146 .146 -.146 1.124 0 1.269c.072 .07 .432 .112 .984 .112c.99 0 1.064 -.052 1.064 -.746s-.075 -.746 -1.064 -.746c-.552 0 -.912 .04 -.984 .111m3.854 .247l-.402 .35l.344 .439c.413 .526 .442 .529 .969 .076l.415 -.357l-.364 -.433c-.437 -.519 -.452 -.52 -.962 -.075m.833 2.383c-.15 .18 -.601 .263 -1.336 .247c-.744 -.017 -1.084 .256 -.982 .788c.06 .307 .445 .701 .686 .701c.284 0 .015 .137 -.473 .241c-.268 .057 -1.065 .257 -1.771 .445c-1.523 .403 -1.472 .4 -1.417 .116c.032 -.167 -.008 -.24 -.154 -.286c-.177 -.056 -.198 -.133 -.198 -.758c0 -.533 -.032 -.71 -.14 -.75c-.078 -.03 -.141 -.15 -.141 -.267c0 -.158 -.055 -.215 -.212 -.218a16.275 16.275 0 0 1 -.662 -.041c-.435 -.035 -.454 -.025 -.506 .232c-.041 .203 -.121 .283 -.324 .323c-.533 .106 -.288 .916 .278 .916c.392 0 .351 .218 -.048 .251c-.316 .026 -.362 .06 -.389 .297c-.033 .287 -.034 .287 -.885 .095c-.199 -.045 -.258 -.024 -.258 .093c0 .177 -.122 .19 -.405 .046a1.112 1.112 0 0 1 -.625 -1.027c-.005 -.68 -.564 -.94 -.615 -.286c-.026 .319 -.14 .54 -.14 .27c0 -.216 -.31 -.353 -.65 -.286c-.284 .056 -.414 .314 -.159 .314c.071 0 .152 .084 .179 .187c.027 .102 .014 .186 -.03 .186c-.16 0 -.373 .3 -.373 .526c0 .185 .037 .222 .175 .178c.1 -.032 .224 .005 .293 .087c.065 .078 .22 .142 .342 .142c.263 0 .278 .065 .07 .294c-.305 .335 .185 .599 .572 .309c.167 -.126 .2 -.117 .383 .11c.175 .22 .27 .25 .772 .257c.315 .004 .566 .014 .557 .022c-.01 .008 -.187 .107 -.393 .22l-.724 .398c-.401 .222 -.638 .121 -.638 -.27c0 -.31 -.376 -.48 -.72 -.324c-.23 .104 -.237 .125 -.099 .263c.138 .137 .126 .162 -.149 .298c-.356 .177 -.46 .475 -.166 .475c.236 0 .24 .036 .036 .379c-.313 .527 .39 .823 .843 .355c.23 -.239 .678 -.101 .678 .208c0 .311 .458 .076 .623 -.319l.112 -.268l.689 .064c.571 .053 .69 .04 .69 -.073c0 -.277 .238 -.358 .469 -.159c.282 .243 .47 .237 .47 -.014c0 -.19 .031 -.197 .633 -.147c.536 .044 .669 .024 .856 -.127c.122 -.098 .284 -.178 .359 -.178c.075 0 .271 -.14 .435 -.309c.594 -.611 1.694 -1.114 2.098 -.957c.16 .062 .155 .083 -.073 .27c-.136 .111 -.322 .35 -.412 .53c-.267 .525 -.554 .621 -.703 .232c-.049 -.128 -.157 -.233 -.239 -.233c-.249 0 -.53 .193 -.478 .328c.033 .084 -.036 .137 -.204 .156c-.197 .023 -.26 .086 -.283 .285c-.023 .204 .002 .244 .123 .198c.123 -.047 .14 -.013 .09 .182c-.078 .31 .029 .499 .178 .314c.162 -.201 1.153 -.29 1.223 -.11c.079 .204 .279 .171 .522 -.085c.232 -.246 1.196 -.47 1.584 -.368a.425 .425 0 0 0 .399 -.11c.207 -.186 .247 -.433 .067 -.41c-.297 .039 -.352 -.02 -.352 -.374c0 -.365 .184 -.624 .266 -.378c.227 .674 1.397 .99 2.278 .614c.223 -.095 .64 .267 .487 .422c-.094 .094 -.159 .078 -.33 -.08c-.257 -.24 -.553 -.137 -.473 .165a.426 .426 0 0 1 -.095 .35c-.286 .315 -.232 .408 .262 .453c.258 .023 .484 .083 .502 .133c.12 .34 .478 .458 .551 .18c.027 -.102 .084 -.186 .126 -.186c.042 0 .1 -.074 .13 -.166c.064 -.2 .59 -.425 .641 -.274c.054 .16 .258 -.018 .258 -.224a.984 .984 0 0 0 -.112 -.392c-.137 -.249 -.174 -.462 -.168 -.961l.005 -.385l-.403 .004c-.887 .008 -2.09 -.109 -2.002 -.196c.031 -.03 .444 -.058 .918 -.06l.862 -.006l.062 -.302c.034 -.166 .115 -.365 .18 -.442c.096 -.115 .09 -.14 -.03 -.14c-.228 0 -.286 -.181 -.117 -.366c.2 -.22 -.022 -.453 -.29 -.303c-.127 .07 -.23 .039 -.436 -.133c-.333 -.279 -1.01 -.302 -2.01 -.07c-1.005 .234 -2.046 -.033 -1.874 -.48c.083 -.215 .445 -.17 .855 .107c.351 .238 .39 .244 .896 .14c.29 -.06 .658 -.108 .817 -.108c.21 0 .302 -.051 .338 -.188c.043 -.162 .084 -.174 .306 -.09c.349 .131 .4 .044 .136 -.236c-.173 -.182 -.313 -.233 -.651 -.233c-.33 0 -.458 -.043 -.549 -.187c-.117 -.187 -.104 -.188 3.805 -.163l3.924 .024l.023 8.95c.018 6.735 -.003 8.966 -.085 9.016c-.209 .128 -23.403 .095 -23.486 -.033c-.089 -.14 -.102 -17.829 -.013 -17.918c.139 -.138 15.653 -.07 15.538 .068m-5.078 .33c-.54 1.005 .586 2.404 1.392 1.73c.849 -.71 .68 -2.153 -.213 -1.832c-.238 .085 -.382 .091 -.515 .02c-.284 -.15 -.556 -.117 -.664 .083m-3.635 .544c-.505 .32 -.008 1.249 .588 1.1c.304 -.076 .285 -.204 -.056 -.379c-.309 -.158 -.357 -.334 -.142 -.512c.253 -.208 -.097 -.394 -.39 -.209m10.245 .873c.266 .121 .366 .312 .29 .551c-.073 .229 -.489 .315 -.737 .154c-.32 -.208 -1.22 -.436 -1.765 -.448l-.503 -.011l.423 -.077c.233 -.043 .613 -.117 .845 -.166c.6 -.125 1.174 -.126 1.447 -.003m-14.764 .128c-.235 .101 -.362 .109 -.533 .031c-.86 -.389 -1.117 .938 -.332 1.718c.42 .417 .697 .444 1.067 .103c.798 -.735 .636 -2.214 -.202 -1.852m18.529 .009c-.213 .11 -.317 .113 -.58 .018c-.884 -.317 -1.045 1.133 -.203 1.836c.329 .275 .558 .296 .887 .082c.87 -.567 .773 -2.388 -.104 -1.936m-5.245 3.748c-.122 .195 -1.037 .397 -1.37 .302c-.988 -.281 -1.426 .995 -.485 1.409l.277 .122l-.627 .169c-1.371 .37 -2.798 .747 -3.003 .793c-.192 .043 -.21 .022 -.157 -.188c.048 -.187 .02 -.25 -.136 -.298c-.175 -.055 -.196 -.134 -.196 -.758c0 -.533 -.032 -.709 -.14 -.75c-.078 -.03 -.141 -.157 -.141 -.283c0 -.184 -.036 -.219 -.18 -.173c-.1 .031 -.206 .015 -.238 -.036c-.142 -.229 -.943 -.055 -.974 .212c-.023 .196 -.093 .266 -.305 .308c-.5 .1 -.319 .829 .22 .889c.294 .032 .311 .215 .02 .215c-.477 0 -.636 .598 -.164 .618c.146 .005 .19 .028 .101 .052c-.087 .022 -.38 -.024 -.651 -.104c-.619 -.183 -.835 -.184 -.835 -.006c0 .254 -.305 .146 -.672 -.237c-.292 -.304 -.361 -.447 -.361 -.739c0 -.504 -.079 -.656 -.34 -.656c-.158 0 -.224 .052 -.224 .178c0 .38 -.104 .501 -.252 .292c-.132 -.188 -.437 -.244 -.727 -.134c-.183 .07 -.197 .317 -.017 .317c.072 0 .157 .068 .19 .153c.067 .174 .078 .158 -.204 .304c-.279 .144 -.313 .707 -.036 .62c.1 -.032 .224 .005 .293 .087c.065 .078 .22 .142 .342 .142c.263 0 .278 .064 .07 .294c-.311 .34 .145 .584 .573 .305c.213 -.138 .233 -.134 .377 .084c.178 .27 .861 .416 1.172 .251c.106 -.056 .191 -.068 .19 -.028c0 .04 -.345 .252 -.764 .47c-.808 .42 -1.019 .417 -1.019 -.017c0 -.406 -.44 -.564 -.804 -.288c-.155 .118 -.162 .151 -.044 .228c.076 .049 .118 .105 .094 .123c-.025 .018 -.16 .106 -.303 .194c-.306 .19 -.34 .436 -.063 .436c.108 0 .18 .031 .162 .07l-.162 .324c-.255 .504 .306 .728 .84 .335c.307 -.225 .813 -.095 .707 .18c-.104 .268 .37 .067 .558 -.236l.19 -.306l.668 .056c.66 .056 .67 .054 .73 -.183c.073 -.288 .249 -.307 .48 -.054c.093 .103 .227 .187 .296 .187c.07 0 .127 -.084 .127 -.187c0 -.17 .062 -.186 .694 -.186c.53 0 .707 -.033 .748 -.14c.03 -.077 .158 -.14 .284 -.14c.147 0 .36 -.137 .59 -.378c.385 -.403 1.083 -.778 1.646 -.882c.497 -.093 .602 .014 .305 .311a3.922 3.922 0 0 0 -.453 .575c-.259 .411 -.495 .468 -.618 .147c-.063 -.162 -.162 -.24 -.31 -.24c-.261 0 -.448 .162 -.383 .331c.03 .08 -.046 .133 -.218 .152c-.299 .034 -.462 .45 -.177 .45c.111 0 .135 .058 .092 .228c-.076 .3 .034 .484 .18 .302c.13 -.162 1.189 -.3 1.189 -.154c0 .221 .304 .197 .559 -.045c.173 -.165 .407 -.27 .675 -.304c.225 -.029 .458 -.09 .516 -.135c.065 -.05 .205 -.04 .352 .027c.207 .093 .275 .084 .434 -.058c.217 -.196 .255 -.466 .054 -.39c-.2 .077 -.353 -.165 -.319 -.507c.035 -.354 .221 -.46 .312 -.176a.53 .53 0 0 0 .29 .282c.124 .048 .227 .125 .227 .173c0 .203 .54 .273 1.138 .147c.661 -.138 .979 -.102 1.065 .121c.098 .255 -.103 .337 -.313 .128c-.294 -.292 -.53 -.157 -.489 .277c.008 .082 -.05 .202 -.13 .268c-.298 .245 -.175 .423 .29 .42c.362 -.001 .45 .033 .532 .21c.104 .227 .534 .304 .54 .096c.007 -.296 .786 -.844 .865 -.608c.055 .163 .259 -.01 .259 -.22a.984 .984 0 0 0 -.112 -.391c-.136 -.249 -.174 -.462 -.168 -.953l.004 -.377l-.52 -.02l-.73 -.027c-.574 -.02 -1.104 -.113 -1.104 -.194c0 -.053 .358 -.082 .867 -.071l.867 .02l.06 -.293c.033 -.162 .113 -.356 .178 -.434c.064 -.077 .08 -.14 .035 -.142c-.23 -.004 -.351 -.17 -.23 -.316c.184 -.22 .058 -.444 -.212 -.378c-.152 .038 -.335 -.02 -.578 -.184c-.417 -.28 -.771 -.3 -1.584 -.09c-1.087 .282 -2.36 .063 -2.19 -.375c.079 -.204 .403 -.184 .781 .047c.451 .277 2.1 .18 2.1 -.124c0 -.187 .085 -.192 .493 -.025c.224 .092 .21 -.093 -.024 -.326c-.133 -.132 -.313 -.186 -.619 -.186c-.328 0 -.47 -.048 -.595 -.202c-.106 -.13 -.187 -.165 -.228 -.1m-5.08 .323c-.328 .464 -.102 1.4 .448 1.856c.78 .646 1.929 -1.062 1.244 -1.849l-.228 -.261l-.335 .178c-.313 .165 -.348 .167 -.508 .023c-.236 -.212 -.448 -.194 -.622 .053m-3.69 .655c-.26 .335 -.144 .902 .214 1.038c.529 .202 .899 -.149 .383 -.363c-.372 -.154 -.414 -.242 -.2 -.418c.078 -.064 .141 -.174 .141 -.245c0 -.161 -.413 -.17 -.537 -.012m10.377 .877c.637 .394 -.003 .88 -.737 .559c-.636 -.278 -1.355 -.429 -1.753 -.367c-.19 .03 -.305 .01 -.305 -.055c0 -.06 .186 -.108 .446 -.113c.246 -.005 .68 -.06 .963 -.122c.586 -.129 1.077 -.094 1.386 .098m-16.039 .08c-.384 .459 -.068 1.595 .54 1.941c.39 .223 .8 .024 1.126 -.548c.494 -.866 .059 -1.855 -.612 -1.388c-.189 .131 -.229 .131 -.417 0c-.264 -.183 -.487 -.185 -.637 -.006m18.492 .015c-.193 .232 -.155 1.057 .067 1.434c.448 .762 1.096 .762 1.612 .002c.538 -.793 .073 -1.941 -.59 -1.46c-.156 .113 -.217 .113 -.436 0c-.334 -.17 -.495 -.165 -.653 .024m-4.15 4.01c-.14 .139 -1.005 .37 -1.118 .3c-.256 -.163 -.736 -.084 -.98 .159c-.395 .391 -.212 .877 .494 1.318c.16 .1 .148 .111 -.122 .116c-.164 .003 -.416 .05 -.558 .104c-.357 .135 -2.714 .741 -2.88 .741c-.091 0 -.121 -.071 -.092 -.22c.032 -.165 -.007 -.233 -.154 -.271c-.176 -.045 -.197 -.12 -.197 -.701c0 -.464 -.04 -.684 -.14 -.767a.43 .43 0 0 1 -.141 -.291c0 -.12 -.068 -.175 -.216 -.175c-.12 0 -.262 -.046 -.319 -.102c-.074 -.074 -.156 -.074 -.295 0c-.127 .068 -.212 .07 -.25 .009c-.106 -.17 -.207 -.098 -.295 .21c-.067 .233 -.146 .31 -.343 .332c-.22 .026 -.255 .073 -.255 .336c0 .36 .254 .628 .563 .593c.118 -.014 .233 .025 .254 .085c.025 .07 -.091 .122 -.318 .14c-.32 .026 -.363 .06 -.405 .32l-.047 .292l-.47 -.124c-.6 -.158 -.61 -.158 -.61 .008c0 .25 -.359 .148 -.7 -.201c-.288 -.295 -.333 -.402 -.333 -.79c0 -.347 -.041 -.47 -.181 -.545c-.196 -.103 -.507 -.034 -.426 .096c.027 .043 .02 .193 -.016 .334c-.062 .247 -.067 .25 -.14 .051c-.061 -.163 -.151 -.204 -.45 -.204c-.461 0 -.547 .118 -.28 .384l.206 .204l-.249 .18c-.296 .214 -.36 .681 -.082 .61a.321 .321 0 0 1 .286 .082a.467 .467 0 0 0 .297 .125c.25 0 .342 .194 .155 .329c-.37 .27 .092 .543 .527 .312c.167 -.089 .227 -.072 .37 .104c.143 .175 .27 .212 .781 .222c.763 .016 .76 .028 -.146 .468c-.804 .392 -1.028 .372 -1.028 -.09c0 -.367 -.472 -.526 -.804 -.272c-.173 .133 -.174 .146 -.016 .268c.153 .119 .145 .136 -.111 .242c-.386 .159 -.528 .648 -.146 .502c.186 -.07 .175 .145 -.018 .357c-.445 .488 .353 .805 .866 .344c.267 -.239 .73 -.035 .626 .275c-.058 .175 .205 .13 .423 -.072c.11 -.101 .228 -.274 .263 -.385c.066 -.206 .384 -.214 1.123 -.03c.191 .048 .25 .014 .326 -.185c.103 -.268 .42 -.332 .508 -.103c.085 .221 .436 .176 .436 -.056c0 -.186 .031 -.193 .64 -.133c.513 .052 .662 .036 .757 -.077c.065 -.078 .235 -.168 .378 -.199c.143 -.03 .42 -.224 .615 -.429c.41 -.43 .756 -.625 1.406 -.796c.582 -.152 .832 -.05 .507 .207c-.123 .097 -.296 .33 -.385 .517c-.22 .464 -.725 .648 -.725 .263c0 -.243 -.182 -.31 -.51 -.186c-.173 .066 -.243 .145 -.207 .237c.035 .09 -.004 .139 -.112 .139a.395 .395 0 0 0 -.392 .389c0 .11 .048 .147 .145 .11c.117 -.045 .134 -.008 .086 .184c-.082 .322 .032 .498 .187 .287c.077 -.104 .19 -.14 .326 -.106c.114 .03 .333 .011 .484 -.041c.237 -.082 .3 -.067 .444 .11l.167 .205l.3 -.28c.313 -.29 1.205 -.526 1.599 -.424c.26 .068 .583 -.123 .583 -.343c0 -.133 -.057 -.176 -.212 -.16c-.182 .02 -.215 -.027 -.24 -.342c-.035 -.416 .155 -.624 .31 -.339c.122 .225 .787 .75 .95 .75c.068 0 .446 -.048 .84 -.106c.787 -.116 1.104 -.002 .917 .332c-.076 .134 -.112 .124 -.305 -.08c-.286 -.303 -.557 -.192 -.499 .204c.025 .17 -.015 .312 -.11 .39c-.29 .239 -.176 .38 .306 .38c.394 0 .47 .03 .562 .232c.127 .277 .39 .308 .457 .053c.026 -.098 .107 -.202 .18 -.23a.222 .222 0 0 0 .131 -.193c0 -.079 .081 -.143 .183 -.143c.1 0 .212 -.047 .247 -.105c.045 -.072 .094 -.056 .152 .049c.215 .38 .346 -.105 .155 -.567c-.06 -.145 -.102 -.312 -.092 -.372c.01 -.06 -.02 -.133 -.067 -.162c-.047 -.029 -.063 -.248 -.036 -.488c.049 -.425 .044 -.434 -.176 -.368a1.285 1.285 0 0 1 -.319 .061c-.84 -.056 -1.844 -.174 -1.893 -.223c-.063 -.063 .966 -.115 1.53 -.078c.267 .018 .3 -.009 .338 -.286c.024 -.168 .076 -.38 .115 -.47c.051 -.116 .029 -.162 -.08 -.162c-.194 0 -.194 -.221 -.001 -.38c.136 -.112 .134 -.134 -.016 -.243c-.119 -.087 -.2 -.092 -.286 -.02c-.09 .073 -.204 .036 -.44 -.142c-.386 -.293 -1.179 -.33 -1.89 -.09c-.88 .299 -2.174 -.007 -1.995 -.47c.084 -.218 .393 -.18 .816 .098c.332 .218 .425 .237 .82 .17a6.84 6.84 0 0 1 .845 -.083c.326 -.005 .4 -.039 .4 -.182c0 -.148 .05 -.167 .328 -.122c.392 .063 .42 -.038 .082 -.302c-.166 -.129 -.385 -.193 -.66 -.193c-.281 0 -.431 -.045 -.468 -.14a.212 .212 0 0 0 -.345 -.08m-5.04 .307c-.288 .536 .042 1.529 .61 1.833c.722 .386 1.643 -.92 1.25 -1.776c-.12 -.263 -.6 -.336 -.813 -.123c-.09 .09 -.154 .09 -.3 0c-.276 -.172 -.635 -.14 -.747 .066m-3.802 .68c-.304 .432 .026 1.038 .538 .987c.364 -.036 .437 -.233 .131 -.349c-.293 -.11 -.397 -.272 -.262 -.406a.438 .438 0 0 0 .105 -.272c0 -.239 -.334 -.213 -.512 .04m-4.352 .586c-.235 .1 -.362 .108 -.533 .03c-.872 -.394 -1.117 .999 -.314 1.779c.369 .358 .693 .37 1.05 .043c.797 -.735 .635 -2.215 -.203 -1.852m17.344 .107c-.4 .479 .048 1.708 .707 1.94c.707 .25 1.5 -1.147 1.087 -1.914c-.11 -.203 -.55 -.246 -.727 -.071c-.084 .084 -.167 .084 -.352 0c-.334 -.151 -.563 -.137 -.715 .045m-2.49 .132c.548 .428 .08 .918 -.577 .606c-.493 -.236 -1.268 -.424 -1.786 -.435c-.383 -.009 -.336 -.027 .35 -.142c.436 -.072 .813 -.152 .838 -.177c.134 -.133 .947 -.03 1.175 .148m-8.957 .74c0 .051 -.095 .092 -.212 .092c-.17 -.001 -.184 -.019 -.07 -.092c.182 -.117 .282 -.117 .282 0m3.57 9.418v5.127l-.678 -.342l-.678 -.342l-3.338 -.068c-4.154 -.086 -4.375 -.104 -5.044 -.418c-1.096 -.515 -1.8 -1.56 -1.996 -2.962c-.11 -.78 -.143 -5.957 -.04 -6.06c.035 -.034 2.698 -.062 5.918 -.062h5.855v5.127zm.75 -.14c0 4.892 -.003 4.99 -.187 5.088c-.187 .1 -.188 .07 -.188 -4.988c0 -5.025 .002 -5.087 .188 -5.087c.185 0 .187 .062 .187 4.987m.636 -.152c.02 4.204 .007 4.773 -.118 4.773s-.142 -.584 -.142 -4.812c0 -3.808 .025 -4.804 .118 -4.773c.091 .03 .122 1.094 .142 4.812m.66 -3.918c-.034 1.018 -.206 1.069 -.243 .07c-.03 -.79 .015 -1.035 .171 -.939c.059 .036 .087 .38 .071 .869m.661 -.7c.018 .093 -.03 .156 -.117 .156c-.087 0 -.148 -.08 -.148 -.194c0 -.228 .22 -.196 .265 .038m1.238 -.03c0 .102 -.042 .186 -.094 .186c-.051 0 -.094 -.084 -.094 -.186c0 -.103 .043 -.187 .094 -.187c.052 0 .094 .084 .094 .187m.698 .054c.072 .284 -.016 .624 -.141 .548c-.112 -.069 -.115 -.789 -.004 -.789c.047 0 .112 .109 .145 .241m.6 .102c-.04 .45 -.265 .536 -.265 .1c0 -.175 .029 -.347 .063 -.38c.15 -.149 .228 -.039 .201 .28m1.333 -.113c0 .166 -.039 .215 -.14 .177c-.078 -.03 -.142 -.134 -.142 -.23c0 -.098 .064 -.177 .141 -.177c.088 0 .141 .088 .141 .23m.658 .236c0 .353 -.035 .467 -.141 .467c-.107 0 -.141 -.114 -.141 -.467c0 -.352 .034 -.466 .14 -.466c.107 0 .142 .114 .142 .466m.643 -.134c-.051 .262 -.268 .276 -.268 .018c0 -.124 .03 -.254 .065 -.29c.1 -.098 .239 .088 .203 .272m1.313 -.115c.017 .093 -.03 .156 -.118 .156c-.087 0 -.148 -.08 -.148 -.194c0 -.228 .22 -.196 .266 .038m.58 -.077c0 .077 -.042 .14 -.094 .14s-.094 -.063 -.094 -.14c0 -.077 .042 -.14 .094 -.14s.094 .063 .094 .14m.705 .793c0 .614 -.035 .882 -.118 .91c-.089 .029 -.117 -.193 -.117 -.91c0 -.717 .028 -.94 .117 -.91c.083 .028 .118 .296 .118 .91m.588 3.047c-.02 3.084 -.052 3.99 -.143 4.02c-.092 .03 -.117 -.795 -.117 -3.919c0 -3.76 .016 -4.081 .205 -4.081c.043 0 .068 1.791 .055 3.98m.722 -.847c-.003 2.096 -.038 3.144 -.111 3.303c-.083 .18 -.11 -.525 -.114 -3.11c-.004 -2.634 .02 -3.333 .112 -3.302c.09 .03 .116 .733 .113 3.11m-15.057 -2.664c-.122 .05 -.405 .084 -.63 .075c-.688 -.026 -.922 .378 -.463 .8l.236 .218l-.213 .061c-1.66 .477 -2.232 .577 -2.232 .392c0 -.072 -.063 -.155 -.14 -.184c-.1 -.038 -.142 -.192 -.142 -.523c0 -.258 -.042 -.47 -.094 -.47c-.051 0 -.094 -.063 -.094 -.14c0 -.076 -.074 -.146 -.164 -.154c-.586 -.052 -.711 -.03 -.753 .128c-.024 .092 -.094 .167 -.155 .167c-.378 0 -.36 .527 .022 .621l.241 .06l-.215 .08c-.118 .043 -.235 .158 -.261 .256c-.04 .149 -.092 .164 -.328 .097c-.185 -.052 -.342 -.043 -.457 .029c-.259 .16 -.653 -.228 -.653 -.644c0 -.36 -.322 -.624 -.4 -.328c-.034 .132 -.115 .16 -.386 .128c-.353 -.041 -.429 .042 -.225 .247c.095 .095 .085 .136 -.046 .21c-.272 .153 -.2 .42 .14 .517c.237 .068 .3 .133 .278 .285c-.036 .25 .112 .344 .345 .22c.132 -.07 .208 -.062 .285 .031c.059 .07 .235 .153 .392 .184c.34 .067 .312 .137 -.157 .385c-.257 .136 -.362 .155 -.39 .071c-.15 -.448 -.805 -.65 -.705 -.217c.014 .058 -.039 .13 -.117 .159c-.166 .063 -.19 .283 -.035 .333c.076 .026 .069 .096 -.024 .244c-.218 .35 .25 .51 .615 .208c.131 -.107 .185 -.096 .377 .084l.224 .209l.165 -.25c.147 -.223 .214 -.247 .61 -.219c.355 .025 .47 -.004 .555 -.14c.099 -.159 .121 -.16 .273 -.024c.207 .186 .292 .189 .292 .009c0 -.108 .12 -.14 .51 -.14c.282 0 .538 -.042 .57 -.093c.095 -.153 .356 -.112 .295 .046c-.03 .077 -.013 .14 .037 .14c.05 0 .09 .085 .09 .188c0 .157 .044 .18 .26 .134c.14 -.03 .35 -.072 .464 -.095c.123 -.025 .239 .016 .287 .103c.071 .126 .117 .117 .35 -.065c.185 -.145 .433 -.22 .816 -.248c.573 -.041 .778 -.167 .514 -.314c-.085 -.047 -.154 -.188 -.154 -.314c0 -.248 .134 -.303 .254 -.103c.197 .33 .555 .443 1.19 .378c.54 -.054 .623 -.043 .623 .09c0 .084 -.043 .153 -.095 .153a.094 .094 0 0 1 -.093 -.093c0 -.052 -.085 -.094 -.188 -.094c-.124 0 -.188 .062 -.188 .181c0 .1 -.042 .207 -.094 .24c-.22 .134 -.088 .326 .225 .326c.196 0 .34 .053 .372 .14c.056 .144 .342 .198 .342 .064c0 -.195 .399 -.49 .583 -.432c.176 .056 .187 .034 .128 -.252a10.955 10.955 0 0 1 -.116 -.71c-.028 -.22 -.09 -.371 -.14 -.34c-.137 .083 -.736 -.05 -.736 -.164c0 -.06 .094 -.076 .234 -.04c.252 .062 .24 .087 .282 -.622c.017 -.3 -.009 -.35 -.178 -.353a.77 .77 0 0 1 -.38 -.14c-.209 -.156 -1.23 -.19 -1.32 -.044c-.15 .24 -1.269 .036 -1.269 -.23c0 -.185 .277 -.182 .548 .006c.228 .159 1.275 .11 1.384 -.064c.028 -.047 .137 -.084 .242 -.084c.331 0 .131 -.23 -.256 -.295a7.094 7.094 0 0 1 -.556 -.113a.75 .75 0 0 0 -.408 .038m9.754 .416c.49 .496 .573 .506 1.127 .14c.588 -.388 .666 -.365 .483 .14l-.152 .42h-3.816l-.135 -.324c-.22 -.519 -.149 -.55 .427 -.19c.477 .3 .443 .306 1.023 -.186c.272 -.23 .525 -.42 .562 -.42c.036 0 .253 .19 .481 .42m-3.464 -.186a1.04 1.04 0 0 1 -.008 .225c-.01 .072 .034 .23 .099 .35c.148 .273 .046 .388 -.172 .194a.882 .882 0 0 0 -.396 -.178c-.193 -.026 -.234 -.088 -.252 -.379l-.023 -.347l.37 .02c.203 .012 .375 .063 .382 .115m6.846 .233c0 .328 -.027 .373 -.217 .373a.78 .78 0 0 0 -.4 .137c-.322 .242 -.323 .233 -.087 -.743c.013 -.052 .176 -.104 .363 -.117c.339 -.023 .34 -.02 .34 .35m-3.816 .911c1.968 .023 2.135 .013 2.182 -.14c.2 -.64 .32 -.73 .278 -.211c-.022 .282 -.04 1.277 -.041 2.212c-.002 2.08 -.059 2.304 -.764 3.02c-1.123 1.14 -2.064 1.099 -3.338 -.144l-.578 -.564l-.067 -.687c-.038 -.377 -.058 -1.3 -.046 -2.052c.02 -1.242 .004 -1.401 -.181 -1.759c-.112 -.216 -.203 -.47 -.203 -.567c0 -.38 .14 -.275 .378 .283l.25 .584l2.13 .025zm-15.004 -.866c-.247 .185 -.136 .585 .184 .665c.138 .034 .287 .014 .35 -.048c.082 -.082 .056 -.122 -.107 -.164c-.18 -.047 -.205 -.099 -.155 -.324c.066 -.295 -.006 -.33 -.272 -.13m7.152 .64a.284 .284 0 0 1 .062 .279c-.067 .173 -.418 .21 -.57 .06c-.052 -.052 -.367 -.154 -.699 -.226c-.56 -.12 -.576 -.13 -.227 -.143c.206 -.008 .46 -.052 .563 -.098c.233 -.104 .708 -.033 .871 .129m4.53 .108a.14 .14 0 0 1 -.282 0a.14 .14 0 0 1 .282 0m7.092 .046a.183 .183 0 0 1 -.117 .163c-.07 .024 -.118 -.042 -.118 -.163c0 -.12 .048 -.186 .118 -.163a.184 .184 0 0 1 .117 .163m-6.387 .244c.184 .141 .183 .143 -.04 .114c-.125 -.017 -.245 -.084 -.266 -.148c-.052 -.156 .077 -.142 .306 .034m5.66 -.034c-.022 .064 -.142 .13 -.267 .148c-.222 .03 -.223 .027 -.04 -.114c.23 -.176 .358 -.19 .307 -.034m-6.27 .242l.61 .171l.05 1.718c.06 2.092 .284 2.555 1.617 3.343c.428 .253 .427 .208 .007 .708l-.345 .41l-.422 -.579c-.532 -.73 -.505 -.716 -1.254 -.718c-.789 -.001 -.796 -.017 -.401 -.834c.414 -.858 .418 -.823 -.192 -1.296c-.617 -.479 -.613 -.446 -.133 -.907c.668 -.643 .672 -.571 -.122 -1.885c-.214 -.354 -.212 -.354 .584 -.131m7.702 .942c0 1.058 -.096 1.454 -.259 1.061c-.09 -.218 -.087 -1.585 .005 -1.918c.154 -.563 .254 -.226 .254 .857m-6.536 -.891c-.028 .07 -.037 .908 -.021 1.862l.029 1.732l.423 .433c1.154 1.18 1.984 1.268 2.977 .315c.693 -.664 .721 -.792 .698 -3.189l-.012 -1.282h-2.022c-1.637 0 -2.032 .024 -2.072 .129m5.997 -.075c.03 .03 -.069 .328 -.22 .662c-.344 .762 -.348 .724 .109 1.261l.382 .451l-.492 .614l-.492 .614l.337 .665c.415 .818 .42 .81 -.537 .81h-.784l-.488 .652c-.573 .768 -.498 .74 -.795 .305c-.31 -.453 -.302 -.508 .101 -.724c1.174 -.627 1.538 -1.444 1.54 -3.452c.003 -1.707 -.014 -1.659 .61 -1.789c.618 -.129 .664 -.133 .729 -.069m-7.921 1.127c.007 .78 -.043 1.057 -.191 1.057c-.1 0 -.115 -1.99 -.017 -2.088c.124 -.123 .202 .261 .208 1.031m-6.822 -.598a2.375 2.375 0 0 0 -.302 .42c-.124 .24 -.338 .275 -.418 .07c-.03 -.078 -.135 -.14 -.235 -.14c-.1 0 -.205 .062 -.235 .14c-.03 .076 -.1 .14 -.155 .14c-.522 0 .751 -.808 1.31 -.831l.227 -.01l-.192 .21zm12.605 .769v.933h-3.474l-.028 -.746c-.015 -.41 -.004 -.841 .026 -.958l.053 -.213l1.712 .026l1.712 .025v.933zm-5.297 .168c-.076 .075 -.103 .028 -.1 -.172c.002 -.242 .014 -.254 .103 -.103c.072 .123 .071 .2 -.003 .275m-5.68 .762c-.228 .08 -.442 .1 -.57 .052c-.548 -.207 -.881 .35 -.484 .809l.226 .261l-1.189 .29c-1.127 .276 -1.19 .282 -1.219 .118c-.017 -.096 -.09 -.175 -.165 -.175c-.096 0 -.134 -.116 -.134 -.408c0 -.448 -.163 -.83 -.379 -.886c-.44 -.114 -.672 -.07 -.754 .143c-.045 .12 -.148 .219 -.227 .219c-.086 0 -.143 .084 -.143 .214c0 .256 .164 .442 .33 .379c.067 -.026 .149 -.001 .183 .054c.038 .06 -.035 .099 -.187 .099c-.158 0 -.265 .06 -.293 .163c-.134 .509 -1.43 .11 -1.44 -.443c-.006 -.326 -.141 -.505 -.327 -.434c-.086 .033 -.13 .103 -.097 .156c.04 .063 -.07 .075 -.322 .035c-.392 -.062 -.519 .071 -.287 .301c.066 .065 .036 .15 -.094 .267c-.263 .236 -.243 .28 .184 .42c.333 .11 .367 .15 .315 .357c-.056 .22 -.043 .23 .244 .173c.21 -.042 .347 -.017 .443 .079c.078 .076 .296 .139 .486 .14h.346l-.462 .232c-.572 .288 -.602 .288 -.713 0c-.106 -.279 -.51 -.326 -.596 -.07c-.03 .09 -.11 .242 -.176 .338c-.095 .14 -.096 .184 -.003 .218c.085 .03 .09 .09 .02 .223c-.19 .352 .244 .514 .576 .216c.15 -.135 .18 -.131 .363 .05c.21 .209 .34 .182 .556 -.115c.106 -.147 .2 -.168 .533 -.118c.33 .05 .421 .03 .5 -.108c.084 -.147 .121 -.152 .303 -.041c.18 .11 .219 .105 .296 -.03c.067 -.121 .166 -.144 .432 -.1c.231 .04 .445 .008 .654 -.095c.172 -.085 .337 -.13 .368 -.098c.031 .03 .007 .056 -.053 .056s-.11 .066 -.11 .146c0 .08 .043 .12 .095 .088c.051 -.032 .094 .026 .094 .128c0 .103 .042 .213 .094 .245c.051 .032 .093 .013 .093 -.042c0 -.134 .688 -.125 .826 .013c.086 .085 .161 .064 .33 -.093c.153 -.144 .39 -.222 .802 -.265c.609 -.063 .808 -.184 .545 -.33c-.149 -.082 -.21 -.363 -.102 -.47c.029 -.029 .186 .07 .35 .218c.24 .218 .382 .27 .747 .27h.45l-.143 .34c-.168 .399 -.171 .393 .214 .422c.163 .013 .318 .077 .344 .143c.072 .186 .242 .143 .445 -.113c.11 -.14 .28 -.233 .424 -.233c.222 0 .235 -.024 .174 -.303a11.922 11.922 0 0 1 -.117 -.649c-.045 -.298 -.086 -.345 -.299 -.342c-.135 0 -.5 -.038 -.81 -.086l-.563 -.088l.585 -.013c.63 -.012 1.137 -.45 .712 -.612c-.118 -.045 -.129 -.085 -.045 -.168c.16 -.159 .134 -.258 -.067 -.258c-.098 0 -.299 -.063 -.447 -.14c-.148 -.076 -.342 -.139 -.433 -.14c-.09 0 -.165 -.068 -.165 -.15c0 -.105 .058 -.136 .188 -.103c.104 .027 .188 .02 .188 -.017c0 -.154 -.247 -.29 -.53 -.29c-.167 0 -.33 -.041 -.362 -.093c-.072 -.116 -.106 -.114 -.552 .044m-.434 .47c.13 .073 .467 .139 .751 .147l.517 .014l-.448 .093c-.764 .158 -1.516 -.046 -1.227 -.332c.086 -.086 .136 -.076 .407 .078m-5.306 .136c-.094 .294 .109 .563 .425 .563c.32 0 .371 -.145 .082 -.236c-.15 -.047 -.183 -.112 -.139 -.286c.072 -.285 -.277 -.324 -.368 -.041m19.395 1.624c0 1.457 -.026 1.83 -.134 1.92c-.117 .095 -.136 -.152 -.141 -1.808c-.005 -1.644 .014 -1.92 .135 -1.92c.12 0 .14 .265 .14 1.808m-8.479 .653c-.013 1.33 -.056 2.11 -.115 2.11c-.102 0 -.186 -4.132 -.09 -4.382c.157 -.405 .225 .344 .205 2.272m-3.725 -1.804c.234 .125 .233 .341 -.003 .415c-.162 .051 -.904 -.139 -1.164 -.299c-.278 -.17 .853 -.283 1.167 -.116m4.408 .27a.69 .69 0 0 1 -.138 .339c-.127 .167 -.138 .146 -.14 -.274c-.003 -.393 .015 -.439 .137 -.338a.409 .409 0 0 1 .141 .273m7.139 .152c0 .25 -.163 .308 -.248 .088c-.072 -.187 .034 -.447 .153 -.374c.052 .032 .095 .161 .095 .286m-14.325 .601c.032 .051 .013 .093 -.044 .093c-.057 0 -.19 .147 -.297 .327c-.204 .342 -.426 .422 -.517 .186c-.07 -.181 -.263 -.178 -.45 .007c-.081 .08 -.147 .109 -.147 .063c0 -.337 1.293 -.937 1.455 -.676m3.036 .833c.023 .07 -.012 .106 -.083 .082a.296 .296 0 0 1 -.164 -.163c-.024 -.07 .012 -.105 .082 -.082a.291 .291 0 0 1 .165 .163m4.103 1.126c0 .688 -.034 .975 -.117 1.003c-.09 .03 -.118 -.211 -.118 -1.003c0 -.792 .029 -1.032 .118 -1.003c.083 .028 .117 .314 .117 1.003m6.528 -.189c0 .756 -.052 1.028 -.198 1.028c-.094 0 -.117 -1.708 -.023 -1.8c.15 -.15 .221 .096 .221 .772m.658 -.14c0 .625 -.06 .889 -.198 .889c-.095 0 -.117 -1.429 -.024 -1.522c.144 -.142 .222 .081 .222 .633m-6.532 .352c-.027 1.16 -.022 1.12 -.137 1.05c-.153 -.094 -.122 -2.006 .032 -2.006c.1 0 .122 .206 .105 .956m5.217 -.023c0 .767 -.025 .933 -.141 .933c-.147 0 -.22 -1.663 -.078 -1.804c.172 -.17 .219 .016 .219 .871m-4.603 .186c0 .56 -.037 .933 -.094 .933c-.056 0 -.094 -.373 -.094 -.933s.038 -.933 .094 -.933c.057 0 .094 .374 .094 .933m2.594 -.613a.85 .85 0 0 1 .019 .35l-.032 .217l-.171 -.253c-.166 -.244 -.147 -.447 .041 -.447c.05 0 .114 .06 .143 .133m-1.279 .948c0 .45 -.031 .603 -.117 .575c-.244 -.079 -.167 -1.19 .082 -1.19c.02 0 .035 .277 .035 .615m.982 .079c-.197 .298 -.263 .3 -.456 .006c-.143 -.216 -.143 -.25 0 -.467l.155 -.235l.23 .228c.22 .22 .223 .237 .071 .468m1.63 -.18c-.034 .619 -.205 .724 -.246 .152c-.033 -.456 .021 -.665 .172 -.665c.064 0 .091 .19 .073 .514m-3.221 .044c.067 .306 -.011 .654 -.148 .654c-.048 0 -.087 -.233 -.087 -.519c0 -.542 .128 -.616 .235 -.135m2.583 .293c0 .176 -.048 .268 -.141 .268c-.103 0 -.141 -.105 -.141 -.385c0 -.33 .02 -.368 .14 -.268c.078 .064 .142 .237 .142 .385m-.699 .24c-.044 .113 -.086 .125 -.164 .047c-.079 -.077 -.073 -.144 .022 -.258c.146 -.175 .238 -.038 .142 .21" />
</svg>
