<svg>
  <path d="M23.786 3.437c2.546.418 3.086 1.141 3.07 4.112-.013 2.226.383 4.27.996 5.138.17.242 1.567.074 2.814-.34.439-.144.741-.288 1.954-.925 2.676-1.405 4.774-1.359 5.556.122.296.56.389 1.032.442 2.258l.084 1.903a5724.707 5724.707 0 0 1 .434 9.974l.087 1.925c.024.536.073 1.665.108 2.51.035.845.084 1.965.108 2.488.267 5.735.268 5.972.02 5.83-.03-.018-.41-.354-.848-.747-.718-.647-1.956-1.756-3.26-2.92l-1.256-1.124c-2.909-2.612-2.835-2.56-2.618-1.84l.242.823.278.952c.067.226.172.586.233.8.47 1.647.757 2.586.802 2.63.025.027.237-.012.567-.102l.526-.144.267.076c.146.041.381.105.521.14.772.198 1.086.636 1.086 1.518 0 .29.01.535.022.545.012.01.13.068.262.127.154.07.323.198.476.36.54.579.528.57.745.601.356.053.44.308.161.488-.237.155-.248.169-.321.434-.121.434-.248.661-.493.88-.223.198-.235.219-.288.527-.144.826-.403.986-2.22 1.371-4.85 1.027-15.153 1.07-20.346.084-2.128-.404-2.516-.616-2.662-1.456-.053-.308-.065-.331-.277-.517a1.3 1.3 0 0 1-.432-.682c-.14-.464-.182-.542-.332-.605-.34-.142-.277-.467.1-.524.218-.032.23-.04.742-.597.153-.166.316-.29.476-.363.314-.143.304-.119.298-.7-.008-.8.454-1.47 1.017-1.473.042 0 .216-.049.386-.108.392-.137.441-.136 1.009.023.562.158.552.161.661-.182.611-1.92 1.522-5.228 1.44-5.228-.028 0-1.447 1.222-3.153 2.715a2352.695 2352.695 0 0 1-4.131 3.613c-.66.58-.824.678-.882.528-.031-.083.04-2.204.18-5.299.132-2.922.263-5.909.346-7.896.035-.833.084-1.924.107-2.423.071-1.49.13-2.809.197-4.435.035-.845.083-1.955.107-2.467l.088-1.925c.058-1.317.14-1.774.412-2.315.773-1.538 2.903-1.592 5.64-.143 1.45.768 1.875.941 2.834 1.158.575.13 1.643.234 1.75.17.194-.116 1.059-1.545 1.374-2.27.664-1.53.959-3.665.61-4.425-.343-.751-1.06-1.119-1.61-.827-.426.227-.59.033-.503-.596.135-.972.626-1.245 1.932-1.075.819.107.869.108.935.017.176-.244.43-.281 1.13-.167m-3.125.57c-.47.152-.547.238-.59.661-.036.336.005.338.306.015l.232-.25h.342c.61 0 1.384.52 1.942 1.302.283.396.267.459-.106.424-.474-.044-.46-.07-.465.835-.012 1.962-.56 3.591-1.868 5.55-.292.437-.517.811-.498.83.098.098 1.363-.454 1.603-.7.442-.453.943-1.993 1.29-3.966.075-.423.163-.535.308-.39.134.134-.385 2.437-.777 3.45-.181.468-.24.589-.49.995-.155.252-.334.86-.273.927.076.083 1.152-.661 1.296-.897.282-.462.559-1.856.71-3.578.086-.965.098-1.017.24-1.017.287 0-.058 2.955-.504 4.318-.138.423-.124.473.218.802.34.326.31.327.658-.003.37-.35.407-.424.36-.725-.137-.893-.22-4.145-.108-4.238.194-.16.217-.055.25 1.149.066 2.405.142 3.25.308 3.43.327.359 1.41.826 1.482.64.014-.036-.076-.277-.2-.534-.505-1.055-.732-1.958-.933-3.717-.079-.689-.07-.797.063-.797.128 0 .169.083.2.41.141 1.501.539 3.322.821 3.765.223.35.514.501 1.09.569.268.031.301-.026.143-.248-.224-.315-.644-1.396-.796-2.052l-.111-.476c-.158-.67-.221-1.473-.237-2.985-.01-1.06-.028-1.4-.084-1.623a10.732 10.732 0 0 1-.11-.493c-.117-.617-.31-.742-1.082-.7-.67.034-1.01.142-1.237.39-.23.25-.336.255-.602.024-.132-.114-.242-.173-.323-.173-.16 0-.512-.187-.985-.524-.544-.387-1.078-.531-1.483-.4m2.888.416c-.218.168.019.512.249.36.128-.083.142-.24.029-.343-.095-.085-.182-.09-.278-.017M11.2 10.748c-.836.203-1.362.857-1.531 1.905-.075.465-.063.468.59.112.933-.509.99-.496.952.204-.016.28-.047.975-.07 1.547-.023.57-.061 1.457-.085 1.968a629.29 629.29 0 0 0-.086 1.969c-.024.571-.063 1.467-.087 1.99a1487.8 1487.8 0 0 0-.173 3.895l-.108 2.488c-.036.82-.104 2.417-.15 3.548a632.447 632.447 0 0 1-.223 4.947c-.056 1.173-.051 1.194.215.98.252-.202.228.022.394-3.656l.11-2.38c.112-2.326.145-3.06.191-4.132.024-.559.064-1.425.089-1.925.056-1.14.104-2.167.239-5.084.147-3.194.19-4.128.239-5.106.023-.464.041-.908.042-.986 0-.082.026-.152.062-.165.087-.034 1.532 1.17 1.565 1.304.015.057-.005.771-.042 1.587a3511.017 3511.017 0 0 0-.31 6.827c-.036.845-.104 2.383-.15 3.419-.047 1.035-.105 2.34-.128 2.899a237.611 237.611 0 0 1-.176 3.83c-.057.946-.054 1.665.006 1.665.026 0 .17-.109.322-.242.328-.288.305-.182.367-1.684.024-.595.073-1.666.108-2.38.035-.713.093-1.95.129-2.747.036-.797.085-1.84.108-2.315.024-.476.073-1.527.108-2.337.035-.809.084-1.85.108-2.314.024-.465.072-1.487.108-2.272.155-3.448.148-3.353.241-3.353.065 0 1.073.816 1.147.928.049.075.06.17.04.375a87.113 87.113 0 0 0-.088 1.898 1881.239 1881.239 0 0 1-.192 4.717l-.086 2.055c-.024.547-.073 1.735-.11 2.64-.036.904-.084 2.062-.107 2.574-.083 1.842-.1 2.54-.06 2.564.021.014.174-.098.34-.247l.3-.271.032-.71.078-1.704c.026-.547.075-1.667.11-2.488.066-1.58.122-2.833.193-4.392.025-.523.063-1.429.086-2.012.023-.583.063-1.517.089-2.077l.079-1.74c.038-.878.027-.861.465-.659 1.21.558 5.71-.383 7.18-1.5l.303-.23c.039-.028.136.034.33.208 1.222 1.107 5.823 2.112 7.062 1.543.485-.223.477-.232.51.583a1061.065 1061.065 0 0 1 .23 5.257c.06 1.392.128 2.93.153 3.418.025.488.064 1.345.087 1.904.111 2.719.135 3.269.166 3.844l.033.62.279.255c.153.14.303.254.333.255.077.003.078.064-.12-4.65l-.107-2.574c-.036-.845-.085-2.032-.109-2.64-.024-.606-.062-1.492-.084-1.968-.141-3.03-.188-4.822-.128-4.895.09-.11 1.069-.881 1.118-.881.082 0 .093.102.156 1.48.066 1.442.119 2.567.193 4.101.024.488.062 1.335.086 1.882.044 1.017.098 2.14.175 3.678.024.476.082 1.742.13 2.813.047 1.07.105 2.327.127 2.79.023.465.053 1.137.068 1.494.014.356.045.7.07.764.05.132.545.567.603.531.051-.031.05-.586-.003-1.555-.04-.745-.08-1.592-.175-3.83-.023-.559-.072-1.65-.107-2.423l-.108-2.401a9635.166 9635.166 0 0 0-.303-6.88 314.62 314.62 0 0 0-.091-1.958c-.027-.53-.037-1.009-.023-1.065.032-.126 1.478-1.342 1.56-1.311.065.025.068.072.24 3.858l.109 2.315c.095 2.025.147 3.155.174 3.808.013.321.042.934.066 1.363.023.428.072 1.45.108 2.271.036.822.104 2.282.15 3.246.047.964.106 2.22.13 2.79.156 3.626.148 3.544.392 3.74.252.203.274.162.24-.447-.015-.288-.047-.98-.07-1.538l-.13-3.029c-.102-2.316-.147-3.352-.238-5.497-.036-.845-.084-1.935-.108-2.423-.023-.488-.06-1.384-.084-1.99a117.61 117.61 0 0 0-.067-1.515c-.022-.392-.053-1.083-.152-3.397l-.108-2.482c-.035-.794-.053-1.461-.04-1.482.073-.118.516.046 1.19.44.367.214.406.2.367-.145-.26-2.29-2.372-2.708-5.472-1.082-1.226.644-1.546.792-2.131.984a8.595 8.595 0 0 1-1.981.397c-.452.034-.52.088-.333.26.379.352-.175.43-1.18.169-.289-.075-.314-.062-.28.153.08.495-.817.353-1.772-.28-.307-.205-.335-.195-.774.277-.424.455-.363.456-.853-.018-.502-.487-.444-.474-.837-.182-.57.425-1.374.862-1.448.788-.016-.015.007-.188.05-.384.157-.708.205-.668-.474-.396-.69.276-1.39.408-1.47.277-.016-.025.053-.151.153-.28.251-.325.237-.34-.418-.404a8.263 8.263 0 0 1-3.304-1.042c-1.793-1.032-3.48-1.494-4.529-1.24M23.734 15c-1.1.741-3.991 1.571-5.756 1.653l-.584.027-.013.433c-.12 3.842 2.021 8.592 5.162 11.457.704.642 1.296 1.112 1.399 1.112.297 0 2.2-1.806 3.111-2.952 2.139-2.691 3.555-6.623 3.465-9.617l-.013-.433-.606-.027c-1.849-.08-4.39-.804-5.538-1.575-.419-.281-.34-.271-.627-.078m.618.453c1.205.773 3.517 1.396 5.633 1.52l.173.01-.005.627c-.038 4.063-2.249 8.446-5.7 11.301-.532.44-.473.439-.986.026-3.404-2.738-5.71-7.308-5.725-11.348l-.002-.606.195-.01c1.881-.098 4.525-.823 5.776-1.584.315-.192.23-.2.641.064m-1.033.38a9.69 9.69 0 0 1-1.06.454 5.307 5.307 0 0 0-.592.227l-.098.06v5.094l.001 5.094.155.194c.427.539 2.062 2.034 2.224 2.034.135 0 1.376-1.103 1.888-1.677l.319-.358v-5.18c-.001-2.85-.017-5.207-.037-5.237-.019-.03-.26-.14-.533-.245a7.194 7.194 0 0 1-1.255-.592c-.36-.21-.333-.213-1.012.132m-5.99 4.325c0 .044-.028.584-.063 1.2-.034.616-.084 1.587-.11 2.159a709.18 709.18 0 0 1-.26 5.235c-.024.428-.043.906-.042 1.06l.001.281.082-.18c.045-.099.208-.624.362-1.168l.281-.988.102-2.51c.14-3.47.138-3.673-.041-4.327-.079-.285-.162-.592-.186-.681-.045-.17-.126-.222-.126-.081m13.114.08-.153.574c-.224.825-.217.735-.159 2.179.08 2 .132 3.198.176 4.117l.04.822.278.933c.153.513.306.98.339 1.038l.06.106.015-.13c.009-.071-.006-.548-.033-1.06a892.881 892.881 0 0 1-.264-5.279c-.177-3.712-.18-3.747-.299-3.3m-11.616 4.35c-.062.169-.775 2.6-.923 3.147-.088.329.197 1.255.388 1.255.066 0 1.394-1.22 1.43-1.315.014-.034-.032-.581-.102-1.215l-.127-1.152-.249-.45c-.279-.506-.321-.533-.417-.27m9.87.185c-.249.446-.258.49-.406 1.857l-.116 1.08.43.407c1.082 1.026 1.014 1.003 1.265.42.239-.555.269-.36-.404-2.619a152.88 152.88 0 0 1-.298-1.017c-.173-.598-.205-.606-.471-.128M27.649 26.4c-.365.5-.359.475-.18.672.386.426.43.403.504-.267.1-.913.073-.947-.324-.405m-7.72-.082c.005.388.097.996.152 1.015.065.022.507-.4.486-.463-.028-.083-.574-.82-.61-.82-.017-.002-.03.12-.028.268m.621 1.06a5.231 5.231 0 0 0-.364.332l-.106.116.11.993c.113 1.011.124 1.068.212 1.014.064-.04 1.184-1.448 1.252-1.575.064-.12.043-.152-.464-.69l-.383-.405-.257.215Zm6.328 0c-.1.112-.283.311-.408.442-.26.271-.276.358-.108.578.45.592 1.166 1.455 1.207 1.456.061.002.077-.095.19-1.134.101-.938.119-.867-.313-1.262-.373-.34-.342-.336-.568-.08m-7.342.928c-.083.074-.373.342-.643.594-.748.696-.754.697-.985.14-.21-.506-.231-.508-.376-.04-.245.792-.809 2.76-.809 2.822 0 .14.118.049.758-.582.85-.84.79-.85 1.083.195.2.709.251.844.324.844.018 0 .27-.31.56-.69.788-1.03.715-1.091 1.083.906.173.941.166.916.238.9.067-.014 1.045-1.412 1.115-1.592.04-.105-.048-.434-.561-2.096-.11-.357-.129-.35-.577.213-.607.762-.677.756-.751-.065a36.434 36.434 0 0 0-.182-1.568c-.031-.153-.09-.149-.277.019m8.592-.086a2.75 2.75 0 0 0-.043.294c-.254 2.377-.197 2.294-.926 1.362-.235-.302-.446-.532-.482-.527-.064.01-.236.43-.305.744-.02.096-.126.47-.235.833-.267.892-.33.689.646 2.105.3.436.411.487.411.19 0-.044.048-.318.105-.608.057-.291.148-.77.201-1.063.163-.896.19-.895.905.039.291.38.546.69.566.69.061 0 .106-.118.297-.78l.203-.702c.028-.093.137-.206.2-.206.025 0 .352.302.725.67.938.927.918.961.43-.708-.654-2.235-.574-2.079-.805-1.574-.287.625-.241.63-1.06-.122-.715-.656-.806-.726-.833-.637m-2.604.565-.357.357.038.194c.04.213.377 1.663.414 1.785.053.173.134.049.27-.41.563-1.907.541-1.75.284-2.08-.21-.269-.233-.263-.65.154m-3.842-.05c-.25.332-.256.257.122 1.501.417 1.376.378 1.361.632.247.098-.428.205-.893.239-1.033.074-.311.068-.324-.33-.693-.38-.352-.414-.353-.663-.022m-4.384 3.105c-.48.466-.745.757-.743.81.01.224.758 2.68.818 2.69.042.007.182-.174.387-.498.924-1.462.843-1.446 1.257-.245.193.56.303.822.35.83.095.019 1.078-1.465 1.078-1.627 0-.112-.37-2.14-.41-2.246-.046-.125-.16-.027-.524.454-.824 1.088-.787 1.09-1.12-.076-.192-.667-.253-.824-.32-.82-.015 0-.363.328-.773.728m12.303-.375c-.06.197-.168.564-.241.814-.22.75-.236.747-.933-.163-.278-.363-.522-.66-.542-.66-.047 0-.099.2-.209.8l-.176.95c-.048.26-.088.526-.088.59 0 .161.982 1.65 1.077 1.632.048-.009.156-.266.35-.831.398-1.156.366-1.154 1.069-.045.326.516.517.777.566.777.084 0 .849-2.573.807-2.713-.028-.092-1.427-1.479-1.51-1.498-.043-.01-.094.096-.17.347m-8.244 1.685c-.607.898-.568.725-.367 1.638.235 1.071.234 1.071.449.108.048-.214.125-.555.172-.757.486-2.114.492-2.093-.254-.99m4.584-.643c.001.062.122.626.28 1.309.061.261.13.583.151.714.064.376.235.957.283.958.052 0 .156-.381.285-1.05l.097-.501-.247-.36c-.136-.197-.287-.41-.335-.471a6.517 6.517 0 0 1-.256-.383c-.16-.255-.26-.338-.258-.216m-1.368.902c.027.584.044.852.156 2.539.072 1.092.099.97-.33 1.498-.46.566-.437.566-.903-.007l-.379-.465.024-.432.12-2.046c.087-1.459.09-1.718.017-1.645-.035.035-.132.65-.476 3.034-.175 1.209-.123 1.082-.578 1.41-.437.316-.445.317-.703.063-.256-.253-.311-.233-.395.14-.098.437-.12.423.598.387.664-.033.719-.021 1.036.216a.858.858 0 0 0 .28.129c.238.05.467.22.57.421.179.354.478.368.662.03.13-.239.354-.413.588-.456.083-.016.255-.099.384-.185l.233-.157.66.013c.765.014.74.03.633-.404-.09-.365-.115-.373-.386-.13-.275.248-.268.249-.717-.07-.453-.322-.382-.089-.697-2.286-.263-1.834-.318-2.153-.384-2.194-.028-.017-.032.194-.013.597m6.915-.193c-.048.091-.701 2.381-.701 2.458 0 .052.981 1.41 1.124 1.555.123.126.752-.03.77-.192.007-.058-.214-.875-.491-1.815a602.46 602.46 0 0 1-.546-1.86c-.057-.2-.104-.244-.156-.146m-15.283.326a595.612 595.612 0 0 1-.8 2.73c-.259.88-.264.852.185.959l.358.085.103-.106c.247-.254 1.019-1.366 1.019-1.469 0-.06-.119-.536-.265-1.06-.458-1.645-.455-1.64-.6-1.139m2.244.802a20.7 20.7 0 0 0-.534.826l-.468.75.25.808c.37 1.201.415 1.222.888.42.536-.91.558-.909.905.084.229.654.184.614.72.65.572.04.538.073.711-.711l.143-.649-.233-1.047c-.13-.582-.257-1.054-.286-1.064-.028-.01-.283.33-.566.754-.755 1.129-.707 1.129-1.089.005-.293-.864-.338-.948-.441-.826m10.787.045c-.02.042-.15.412-.286.823-.358 1.08-.334 1.082-1.084-.074-.3-.462-.5-.73-.54-.725-.075.01-.472 1.691-.475 2.006-.002.194.234 1.273.308 1.411.041.078.079.081.527.054.586-.035.57-.021.789-.683.318-.965.341-.965.91-.016.43.72.513.685.836-.353.277-.89.306-.731-.304-1.693-.51-.806-.6-.905-.68-.75m-12.156 1.97c-.212.23-.696.95-.676 1.002.02.052.215.096 1 .227.208.034.216-.056.058-.585-.232-.774-.244-.794-.382-.644m13.45.503c-.256.81-.282.771.41.653.74-.127.729-.084.214-.775-.415-.558-.41-.56-.625.122m-16.974.296c-.233.267-.238.876-.01.997.181.095 1.66.422 3.124.69.259.048.263.045.374-.257.075-.202.287-.43.486-.52.224-.103.156-.127-.87-.311a26.45 26.45 0 0 1-2.399-.564c-.429-.13-.614-.14-.705-.035m5.274.178c-.236.383-.23.398.215.457.268.036.296-.027.174-.39-.129-.381-.189-.392-.389-.067m9.988-.178c-.231.57-.22.664.078.631.444-.048.454-.07.222-.452-.158-.26-.246-.313-.3-.179m4.954-.008c-.434.144-1.88.49-2.51.603-1.047.187-1.117.212-.892.314.2.091.412.319.486.521.098.269.154.31.354.266.089-.02.619-.127 1.178-.236 2.16-.425 2.149-.419 2.112-.995-.031-.49-.248-.63-.728-.473m1.089.16c-.064.063-.066.657-.003.775.05.093.637.382.777.382.22 0-.023-.796-.305-1-.19-.14-.413-.214-.47-.157m-22.15.06c-.358.179-.705.99-.463 1.082.12.046.71-.244.782-.383.218-.42.014-.866-.319-.7m1.699.109c.351.115.541.272.446.368-.096.096-1.16-.25-1.16-.376 0-.119.34-.115.714.008m19.796-.01c0 .09-1.033.472-1.124.416-.24-.149.375-.49.897-.496.196-.002.227.009.227.08m-18.023.546c.6.155.834.307.608.394-.143.055-1.298-.304-1.313-.407-.019-.132.161-.129.705.013M32.422 38c-.015.103-1.17.462-1.312.407-.223-.086.007-.238.592-.393.535-.141.74-.145.72-.014m-14.25.034c-.015.025.022.102.08.173.129.152.289.558.289.731 0 .246.465.319 2.077.324 1.435.005 1.453.001 1.797-.356.306-.318.318-.35.193-.526-.138-.195-.358-.259-.737-.215-.64.074-2.374.006-3.32-.131-.363-.053-.346-.053-.379 0m11.164 0c-.659.101-2.153.181-2.79.15-1.03-.05-1.175-.018-1.3.283-.051.126.247.539.51.705.26.164 3.34.107 3.548-.066.03-.025.054-.097.054-.162 0-.187.13-.53.267-.705.19-.244.151-.271-.289-.204m-11.701.334c-.427.218-.468.742-.094 1.21.145.182.183.179.414-.035.51-.47.24-1.46-.32-1.175m12.292-.007c-.385.272-.343.894.083 1.237.193.155.243.136.443-.167.361-.548-.058-1.4-.526-1.07m-10.11.124c.219.065.288.128.251.225-.036.093-1.347.083-1.383-.01-.08-.206.681-.351 1.132-.215m9.224.034c.118.04.165.08.165.141 0 .082-.033.087-.681.098l-.681.012v-.104c0-.223.702-.309 1.197-.147m-16.058.01c-.352.126-.534.36-.577.743-.028.25-.162.361-.437.361-.215 0-.88.605-.943.86-.067.267.205.96.424 1.078.33.178.382.26.421.66.068.685.183.748 2.018 1.118 4.404.886 13.427 1.002 18.714.239 1.358-.196 2.913-.537 3.145-.69.172-.112.239-.267.282-.658.045-.415.086-.488.35-.623.244-.124.507-.661.507-1.035 0-.28-.71-.949-1.009-.949-.22 0-.36-.13-.386-.363-.082-.723-.576-.92-1.66-.661-.612.145-2.152.462-2.57.528-.26.04-.332.084-.417.249a3.28 3.28 0 0 1-.238.359 1.177 1.177 0 0 0-.195.368c-.074.393-.303.42-.383.046-.02-.097-.124-.237-.314-.427l-.284-.282-.372.029c-1.055.081-2.054.104-2.685.062-.637-.044-.672-.042-.736.037-.037.046-.213.19-.391.322-.203.15-.357.303-.413.409-.177.338-.434.135-.605-.479-.149-.536-.387-.546-.555-.025-.22.68-.451.877-.612.52-.074-.164-.2-.284-.54-.512a1.33 1.33 0 0 1-.24-.21l-.087-.107-.692.044c-.7.045-.842.042-2.261-.041l-.792-.047-.277.284c-.194.2-.286.33-.305.436-.051.271-.267.328-.337.088a2.747 2.747 0 0 0-.352-.692c-.237-.35-.293-.396-.524-.429a52.915 52.915 0 0 1-2.666-.547c-.56-.14-.753-.152-1.006-.062m9.02.064c.199.127-1.007.423-1.287.316-.258-.1.067-.274.587-.316.562-.045.629-.045.7 0m5.018.062c.191.046.276.157.188.245-.05.05-1.253-.099-1.317-.164-.178-.177.529-.228 1.129-.081m-4.04.058a1.461 1.461 0 0 1-.26.297c-.31.277-.288.374.154.702.38.28.404.284.49.077.247-.592-.112-1.598-.384-1.076m1.651-.043c-.196.225-.25.77-.107 1.103.088.207.127.204.465-.038.469-.336.495-.434.19-.719a1.592 1.592 0 0 1-.261-.303c-.072-.136-.19-.154-.287-.043m-10.123.691c.007.053-.086.395-.207.76-.327.983-.327 1.07.002 1.079.208.006.316-.146.285-.402-.028-.238-.019-.253.242-.376.334-.157.337-.143.146.567-.088.327-.051.401.221.445.377.06.464-.014.425-.362l-.025-.225.238-.113c.367-.174.39-.12.215.513-.146.528-.186.623-.275.647-.127.033-1.478-.27-2.255-.507a5.275 5.275 0 0 0-.313-.086c-.43-.095-.184-.67.351-.82.307-.086.318-.098.434-.475.134-.436.093-.53-.17-.395-.174.09-.286.08-.365-.033-.11-.155.043-.256.338-.223a.685.685 0 0 0 .374-.043c.201-.09.321-.072.339.05m19.112.235c.153.167.183.254.3.88.119.64.288.81.632.63.218-.113.302-.113.448.001.272.214.156.28-1.033.582-.223.057-.346.118-.476.237-.315.287-.603.344-.842.167-.179-.132-.295-.08-.355.159-.049.194-.318.495-.443.495-.157 0-.37-.116-.536-.292-.18-.19-.188-.194-.39-.166-.517.07-.62.112-.69.28-.124.3-.413.496-.697.472-.219-.018-.207-.12.027-.23.344-.163.34-.324-.01-.324-.424 0-.486-.426-.114-.784.362-.35.546-.342.682.027.066.177.1.216.184.216.104 0 .13-.044.195-.339.015-.067.117-.22.228-.338.215-.23.211-.204.08-.517-.043-.102.177-.35.294-.333.07.01.113.076.18.271.062.185.117.273.194.308.377.173.46.23.584.407.193.277.277.274.553-.018.272-.288.387-.306.694-.111.35.22.453.155.346-.219-.03-.108-.094-.388-.142-.623-.117-.582-.343-.785-.632-.566-.178.134-.545-.137-.408-.302.18-.218.938-.199 1.147.03m-20.01.253c.162.087.079.345-.111.345-.185 0-.273-.253-.12-.343.098-.056.129-.057.23-.002m6.21.444c.029.077-.178 1.723-.265 2.105-.171.752-.895.88-1.012.18-.02-.126-.048-.155-.187-.195a.412.412 0 0 1-.248-.188c-.103-.17-.143-.173-.315-.029-.105.089-.162.107-.266.085-.505-.104-.644-.088-.86.1-.23.197-.424.252-.693.196-.251-.053-.236-.15.035-.225.392-.109.566-.405.448-.763-.067-.203-.06-.26.057-.423.158-.222.297-.095.358.327.038.26.136.36.39.399.36.054.495-.174.195-.328-.296-.151-.266-.334.081-.484.111-.048.284-.166.384-.262.3-.288.55-.223.659.173.023.084.11.216.193.292.257.235.25.499-.014.499-.268 0-.349.227-.102.285.165.04.272.141.272.259 0 .212.168.336.232.17.116-.303.275-1.744.207-1.872-.069-.127-.03-.196.157-.28.198-.089.266-.094.294-.02m.642.204c.155.172.164.28.03.364-.05.031-.123.458-.179 1.063-.05.538-.116.706-.267.684-.18-.027-.189-.119-.082-.866.056-.388.117-.847.137-1.02.055-.472.108-.505.361-.225m6.28 0c.014.025.071.42.125.877.126 1.06.13 1.07.457.961.193-.065.236-.305.09-.502-.105-.143-.08-.236.086-.322.268-.138.301-.09.388.547.082.61.07.622-.634.664a14.63 14.63 0 0 0-.805.074c-.442.057-.51.028-.51-.218.001-.358.124-.552.523-.83.108-.076.05-.722-.076-.826-.093-.078-.065-.242.062-.36.123-.114.246-.141.293-.065m-.654.312c.061.099-.012.222-.143.242-.18.026-.29-.165-.167-.289.073-.073.251-.045.31.047m-8.057.431c-.082.082-.061.162.057.216.14.064.216-.002.177-.157-.03-.119-.145-.148-.234-.059m8.125.077c.055.102-.061.26-.19.26-.134 0-.214-.103-.182-.234.041-.162.29-.18.372-.026m-4.014.205c.054.21.153.237 1.027.282.874.046.954.07.954.296 0 .309.126.338.29.066.124-.205.235-.286.534-.39.367-.128.398-.1.47.422.087.619.07.634-.643.634-.553 0-.547-.002-.696.25-.21.354-.675.38-.855.046-.149-.276-.153-.278-.948-.337-.836-.062-.881-.055-1.01.153-.2.325-.896.52-1.077.302-.062-.075.058-.154.235-.154.433 0 .663-.456.433-.86-.149-.26-.042-.568.196-.568.074 0 .302.39.302.518 0 .025.048.068.107.095.214.097.309-.121.225-.519-.079-.375.362-.603.456-.236m6.378-.041c.173.113.448.756.449 1.048 0 .356-.505.76-.846.674-.158-.04-.128-.133.084-.257.36-.21.416-.577.131-.853-.192-.186-.188-.336.016-.57.073-.083.095-.089.166-.042m2.988.039c-.104.103.04.3.185.253.112-.036.112-.086.002-.196-.09-.09-.139-.105-.187-.057m-17.796.155c.099.157-.152.326-.3.203-.082-.068-.08-.148.008-.235a.188.188 0 0 1 .292.032m19.195-.017c0 .106.055.145.15.109.1-.039.063-.165-.053-.182-.073-.01-.097.008-.097.073m-2.009.035c-.033.085.075.211.144.168.026-.016.048-.077.048-.135 0-.124-.147-.15-.192-.033m-16.605.191c.018.157-.091.24-.231.177-.115-.053-.15-.242-.053-.283.135-.057.27-.006.284.106m20.206-.082c.14.14.026.338-.196.338-.11 0-.153-.023-.181-.097-.072-.19.234-.384.377-.24m-4.85.148c-.04.04.008.102.08.102a.064.064 0 0 0 .063-.064c0-.066-.092-.09-.143-.038m-14.42.127c.037.038.067.085.067.105 0 .151-.313.231-.382.098-.106-.201.151-.366.314-.203m6.953.164c-.103.124.067.176.653.2.604.024.684.058.684.286 0 .11.096.163.167.092.058-.057.064-.416.01-.502-.084-.131-1.413-.197-1.514-.076m2.664.057c-.055.054-.029.1.057.1.048 0 .087-.028.087-.064 0-.066-.092-.09-.144-.036m2.458.69c.176.177-.007.366-.27.28-.146-.049-.189-.047-.304.013-.204.105-.366.031-.348-.158.016-.162.154-.205.392-.121.106.036.154.033.224-.017.12-.083.22-.082.306.003"/>
</svg>
