<svg>
  <path d="M3.51 37.783c1.358-.002 2.439-.046 2.688-.11.093-.026.107-.053.157-.303.02-.09.03-.216.031-.67v-.173c0-.598-.013-1.647-.037-3.556-.06-5.008-.073-6.137-.096-9.24-.006-.825-.01-1.556-.011-2.2v-.78c.004-1.874.036-2.828.099-3.07.027-.106.065-.116.165-.05.46.304 2.6 2.46 4.81 4.818l.428.458c.428.46.854.924 1.268 1.38a92.254 92.254 0 0 1 2.315 2.629c1.615 1.912 3.442 3.987 4.052 4.605.358.362.471.496.547.645.088.172.312.432 1.232 1.431.264.287.565.62.67.742.528.61 1.106 1.265 1.398 1.586.628.687.982 1.123 1.06 1.3.059.137.063.143.13.19.094.064.285.092.639.092h.308l-.001-2.978c-.002-1.01-.007-2.006-.014-2.422l-.012-.942-.774-.795a208.588 208.588 0 0 1-4.909-5.193 204.39 204.39 0 0 0-1.56-1.698 172.847 172.847 0 0 0-2.525-2.67 84.535 84.535 0 0 1-4.624-5.144 41.892 41.892 0 0 0-1.536-1.775 268.94 268.94 0 0 1-2.491-2.816l-.48-.547-1.772-.012c-.835-.008-1.767-.013-2.253-.015h-.886l-.012 7.264c-.006 2.737-.01 5.276-.012 7.544l-.001 1.176v5.852l.001.258v.494c.004 1.756.01 2.883.018 3.224.03 1.182.054 1.37.199 1.408.161.042.775.063 1.791.063Zm42.788-.417c.14-.154.195-.517.201-1.56v-.397c0-.143 0-.295-.002-.459l-.014-1.005-.008-.362a167.28 167.28 0 0 0-.056-1.838c-.044-1.268-.077-2.854-.128-5.982-.012-.75-.027-4.46-.033-8.25l-.01-6.887-.277-.002c-.151 0-1.226-.028-2.389-.057l-2.114-.057-.454.556-1.153 1.414c-.31.381-.641.785-.976 1.193l-.504.612a293.157 293.157 0 0 1-2.373 2.846c-1.418 1.666-2.13 2.401-2.41 2.485-.114.034-.272-.019-.443-.149-.153-.113-.197-.165-.486-.549-.357-.473-1.285-1.577-2.257-2.686-.828-.942-1.88-2.177-2.514-2.945a130.41 130.41 0 0 0-1.375-1.645 10.01 10.01 0 0 1-.385-.493 4.125 4.125 0 0 0-.277-.35c-.148-.142-.347-.205-.748-.234-.754-.059-3.369-.04-3.857.027-.408.057-.56.134-.605.31-.09.344-.067 2.352.016 4.46l.025.603c.071 1.608.173 3.188.281 4.047.055.415.088.54.185.668.257.346.982 1.18 1.628 1.876.94 1.011 1.496 1.688 1.737 2.116.134.236.27.39.347.39.258 0 .375-.872.45-3.332.083-2.657.141-3.528.275-4.018.05-.191.088-.267.153-.31.046-.03.057-.03.113 0 .078.04.176.173.319.431.121.22.306.476.61.838l.096.116.049.058c.185.216.473.535 1.696 1.892.687.758 1.54 1.705 1.896 2.103.928 1.035 1.314 1.45 1.907 2.043.54.54.899.866 1.064.964.086.048.105.052.176.034.256-.072.486-.28 1.178-1.067.61-.695.823-.934 1.372-1.536.44-.48 1.104-1.232 1.94-2.197 1.495-1.726 2.183-2.493 2.75-3.066l.077-.077c.398-.398.528-.51.559-.478.039.04.055.646.058 2.98v1.93c0 4.518-.035 7.841-.113 10.496-.007.235-.015.646-.022 1.086l-.006.444-.005.429c-.017 1.571.015 2.434.1 2.646.068.168.537.27 1.406.306 1.415.06 3.09-.147 3.33-.41Z"/>
</svg>
