<svg>
  <path d="M25.397 2.002c1.808.022 3.575.326 5.309.828 1.317.382 2.595.869 3.823 1.478a21.726 21.726 0 0 1 4.997 3.416 24.097 24.097 0 0 1 3.81 4.41c1.163 1.736 2.022 3.616 2.644 5.607.34 1.084.597 2.19.767 3.314.106.69.195 1.383.214 2.08.019.795.06 1.594.025 2.39a22.108 22.108 0 0 1-.862 5.224c-.42 1.44-.95 2.836-1.657 4.161-.743 1.392-1.585 2.722-2.608 3.924-1.774 2.086-3.808 3.87-6.198 5.227a22.594 22.594 0 0 1-6.974 2.568c-.79.15-1.584.276-2.388.314-.52.025-1.042.038-1.564.057.004-.006.004-.015.004-.023l-.833.004c-.138 0-.277-.002-.416-.006a20.571 20.571 0 0 1-4.511-.646 23.17 23.17 0 0 1-4.917-1.857c-1.56-.81-3-1.798-4.32-2.957a22.972 22.972 0 0 1-4.213-4.862 22.337 22.337 0 0 1-2.61-5.67 22.824 22.824 0 0 1-.743-3.427 14.71 14.71 0 0 1-.137-1.493 60.823 60.823 0 0 1-.036-2.709c.004-.448.055-.9.114-1.346.089-.678.176-1.358.309-2.027a21.81 21.81 0 0 1 1.446-4.57 22.129 22.129 0 0 1 2.58-4.413A24.267 24.267 0 0 1 8.029 9.12a21.738 21.738 0 0 1 3.253-2.89A22.152 22.152 0 0 1 16.8 3.308a22.743 22.743 0 0 1 3.691-.997c.769-.14 1.541-.272 2.327-.282.86-.01 1.72-.038 2.58-.028Zm-2.921.375c-.732.106-1.47.18-2.195.32a21.76 21.76 0 0 0-5.216 1.696 22.174 22.174 0 0 0-5.002 3.257c-.449.386-.885.786-1.327 1.182-.042.038-.074.084-.11.127-.064.076-.12.157-.19.226a21.838 21.838 0 0 0-4.44 6.828c-.844 2.037-1.4 4.152-1.576 6.357a50.81 50.81 0 0 0-.11 2.048c-.011.245.012.493.025.739.025.485.05.972.082 1.457.053.78.18 1.552.337 2.32a22.282 22.282 0 0 0 4.794 9.87c.324.384.648.765.993 1.127.29.305.608.587.919.87a22.097 22.097 0 0 0 5.675 3.801c1.058.492 2.144.903 3.264 1.223 1.12.32 2.257.557 3.414.692.828.095 1.656.167 2.488.159.444-.004.887-.028 1.331-.038.756-.017 1.503-.112 2.248-.227 1.243-.19 2.46-.489 3.654-.887a21.887 21.887 0 0 0 5.53-2.753c.896-.618 1.722-1.323 2.528-2.054 1.916-1.736 3.431-3.774 4.615-6.065a22.2 22.2 0 0 0 1.958-5.417c.218-.987.362-1.982.442-2.988.045-.57.049-1.141.072-1.724-.023-.588-.021-1.19-.078-1.785a28.91 28.91 0 0 0-.282-2.136 21.394 21.394 0 0 0-1.674-5.4 21.673 21.673 0 0 0-3.252-5.083 22.182 22.182 0 0 0-6.828-5.4 22 22 0 0 0-5.218-1.884c-.923-.208-1.852-.377-2.794-.439-.781-.05-1.564-.065-2.346-.089a10.294 10.294 0 0 0-1.731.07Zm1.058 41.15c.282.034.284.042.265.324-.009.117-.032.233-.055.377-.218-.028-.42-.047-.616-.083-.038-.006-.07-.074-.097-.116-.011-.015-.003-.04-.003-.061.026-.526.026-.498.506-.44Zm2.608-2.814c.053.489.131.976.197 1.465.053.405.104.811.152 1.216.022.182.047.364.058.546.008.163-.02.19-.174.2-.148.008-.296.008-.445.008-.093 0-.14-.045-.146-.142-.025-.4-.055-.8-.084-1.203-.026-.33-.049-.66-.083-.99-.019-.181-.072-.207-.235-.126-.108.053-.205.123-.309.182-.089.053-.18.102-.286.159-.135-.333-.084-.557.161-.716.263-.17.462-.39.604-.665.046-.089.101-.18.211-.188.21-.017.347-.045.38.254Zm-5.063-.661c.665.193 1.346.305 2.03.398.049.007.097.02.144.03.089.019.133.074.129.165a18.47 18.47 0 0 1-.009.39c-.245-.015-.461-.026-.677-.038-.027-.003-.055-.011-.085-.011-.224-.013-.287.038-.326.258-.116.65-.23 1.303-.349 1.955-.036.201-.078.4-.118.601-.036.172-.05.187-.225.17-.14-.013-.28-.04-.415-.074-.163-.043-.184-.075-.146-.24.15-.652.305-1.304.455-1.956.05-.212.102-.426.146-.64.047-.235.017-.265-.213-.31a3.563 3.563 0 0 1-.47-.122c-.201-.07-.227-.138-.161-.337.017-.046.034-.093.055-.137.063-.127.089-.142.235-.102Zm7.866.176c.163.118.317.262.44.421.356.468.584.993.669 1.58.138.95-.557 1.472-1.221 1.495-.07.002-.142.002-.212.006a.727.727 0 0 1-.675-.317l-.068-.082-.176-.175c.216-.122.41-.196.623-.207.052-.002.118.042.16.083.168.152.352.163.55.086.204-.078.287-.245.301-.446.015-.21.028-.422-.118-.619-.04.028-.08.043-.104.07-.353.436-1.12.462-1.511-.008-.32-.386-.432-.826-.297-1.305.201-.716 1.014-1.033 1.639-.582Zm-10.038-.987c.324.055.612.205.868.415s.347.483.347.803c0 .368-.01.379-.368.281-.062-.017-.12-.036-.182-.055-.091-.03-.14-.08-.117-.188.038-.187-.05-.328-.188-.443a1.225 1.225 0 0 0-.576-.25.323.323 0 0 0-.347.15c-.074.117-.08.242.006.356.06.077.125.149.197.216.31.29.635.562.925.869.29.307.314.709.108 1.08-.23.417-.59.7-1.213.586-.54-.1-1.024-.298-1.433-.673a.84.84 0 0 1-.292-.633c-.002-.134-.008-.27.004-.403.009-.114.045-.22.077-.358.224.091.42.163.61.25.037.017.063.09.069.14.01.097.006.197.004.297a.524.524 0 0 0 .231.45 1.7 1.7 0 0 0 .61.286c.23.058.54-.082.654-.288a.22.22 0 0 0-.032-.273 9.686 9.686 0 0 0-.415-.419c-.184-.176-.375-.343-.557-.521-.605-.597-.264-1.309.246-1.599.243-.14.508-.12.764-.076Zm12.567-.453.26.385c-.107.076-.188.14-.277.195-.196.123-.4.24-.597.362-.078.049-.169.11-.144.214.034.133.087.265.153.388.03.057.095.019.148-.013.148-.091.299-.186.455-.26a.811.811 0 0 1 .618-.026c.31.102.572.271.788.515.11.125.199.264.211.43.017.215.038.44.007.652-.049.33-.29.538-.557.71a1.78 1.78 0 0 1-.775.266 1.014 1.014 0 0 1-.895-.339c-.112-.12-.104-.165.04-.265.06-.04.123-.072.18-.11.157-.101.303-.118.464.009a.49.49 0 0 0 .461.08c.339-.104.514-.415.385-.745a1.265 1.265 0 0 0-.258-.407c-.32-.33-.806-.27-1.041.123a.652.652 0 0 1-.409.31c-.17.046-.203.031-.269-.138a2.69 2.69 0 0 1-.074-.22c-.108-.403-.211-.805-.32-1.208-.04-.148-.006-.264.134-.34.37-.204.74-.407 1.111-.613.083-.044.148-.031.201.045Zm-3.562 2.128c-.01.049-.01.097-.015.146-.002.259.104.568.254.718.13.127.282.229.47.174.193-.057.286-.22.328-.407a.42.42 0 0 0-.008-.229 3.28 3.28 0 0 0-.206-.457.546.546 0 0 0-.309-.241c-.254-.09-.468.031-.514.296ZM15.77 37.094l1.884 1.484c-.091.138-.188.288-.3.455-.083-.046-.153-.076-.212-.118-.375-.275-.752-.55-1.122-.828-.165-.125-.174-.13-.316.01a9.649 9.649 0 0 0-.328.33c-.116.122-.12.151.005.257.268.227.544.447.823.663.127.1.267.184.4.277.034.024.057.06.1.104-.066.102-.123.205-.193.299-.108.146-.146.156-.294.05-.345-.245-.684-.497-1.025-.747-.08-.06-.157-.12-.235-.18-.07-.05-.144-.06-.216-.006-.239.186-.44.408-.654.652.565.546 1.203.961 1.85 1.402l-.296.461c-.402-.084-2.123-1.43-2.574-2.007.895-.87 1.774-1.74 2.703-2.558Zm17.959.154c.084.15.141.322.177.492.2.948.544 1.833 1.095 2.636.036.05.065.108.108.178a3.03 3.03 0 0 1-.453.377c-.091.061-.167.019-.216-.06-.093-.148-.189-.298-.267-.455a7.779 7.779 0 0 1-.681-2.06c-.06-.328-.113-.354-.38-.15-.207.158-.408.323-.613.482-.055.043-.117.08-.176.117-.068.042-.137.042-.188-.026-.1-.122-.193-.254-.314-.419.05-.025.083-.038.113-.06.484-.33.92-.72 1.354-1.113.235-.214.288-.212.44.061Zm-9.3-24.782c2.054.053 4.006.514 5.807 1.537.478.271.963.536 1.39.885.625.508 1.197 1.076 1.75 1.658 1.392 1.468 2.196 3.247 2.709 5.174.18.675.27 1.368.294 2.066.008.267.038.536.032.803-.036 1.698-.381 3.327-1.093 4.875a11.938 11.938 0 0 1-2.574 3.642c-1.562 1.51-3.406 2.512-5.516 3.028-.864.216-1.74.34-2.549.303-1.117.01-2.144-.061-3.15-.305-1.928-.47-3.625-1.389-5.105-2.71a11.93 11.93 0 0 1-2.417-2.978 12.063 12.063 0 0 1-1.389-3.752c-.163-.851-.197-1.709-.16-2.57.025-.604.073-1.212.158-1.81.12-.855.39-1.674.722-2.469.622-1.484 1.53-2.774 2.667-3.907 1.255-1.251 2.73-2.145 4.386-2.759.85-.315 1.727-.519 2.627-.622.468-.053.942-.102 1.412-.09Zm-1.978.537c-2.435.437-4.528 1.53-6.285 3.264a11.21 11.21 0 0 0-2.178 3.053c-.432.877-.775 1.786-.963 2.747a12.415 12.415 0 0 0-.2 1.656c-.05.855-.046 1.707.092 2.552a11.615 11.615 0 0 0 1.786 4.623c1.365 2.056 3.21 3.521 5.502 4.423 1.238.487 2.525.748 3.852.799.963.038 1.914-.07 2.854-.28 1.998-.445 3.776-1.332 5.285-2.713 2.532-2.308 3.783-5.205 3.857-8.595-.021-.386-.038-.737-.062-1.089a10.514 10.514 0 0 0-.442-2.344c-.237-.788-.595-1.522-.976-2.249a10.547 10.547 0 0 0-1.602-2.253 11.534 11.534 0 0 0-3.937-2.8 11.835 11.835 0 0 0-3.993-.946 10.851 10.851 0 0 0-2.59.152Zm1.913 3.221c.06.144.11.25.15.36.612 1.69 1.224 3.382 1.833 5.074.005.013.009.028.015.04.102.288.102.282.402.29.754.024 1.508.056 2.261.079.593.019 1.183.027 1.776.049.506.019 1.014.053 1.52.082.047.002.091.02.138.03l.019.053c-.07.063-.138.133-.212.193-1.137.895-2.273 1.789-3.408 2.685-.288.226-.563.472-.851.699-.154.12-.195.247-.138.438.31 1.07.61 2.143.913 3.214.205.727.408 1.453.614 2.177l.031.134c-.097.025-.152-.04-.211-.08a286.98 286.98 0 0 1-1.86-1.252c-.877-.593-1.751-1.188-2.628-1.783-.046-.032-.097-.06-.14-.096-.14-.118-.266-.101-.417 0-1.054.72-2.114 1.432-3.173 2.146-.467.315-.937.629-1.407.942-.068.047-.142.085-.254.15.023-.114.034-.18.05-.245.303-1.08.606-2.158.907-3.238.196-.707.38-1.417.584-2.12.05-.18.006-.288-.134-.398-.897-.707-1.788-1.421-2.684-2.133-.563-.446-1.128-.893-1.69-1.34-.039-.03-.073-.064-.12-.104.053-.072.125-.068.191-.072.696-.032 1.393-.065 2.091-.09.923-.035 1.846-.06 2.77-.09l.738-.032c.21-.008.23-.019.305-.222.288-.788.573-1.577.857-2.367l1.077-2.986c.02-.051.045-.098.085-.187ZM8.171 19.382c.055.072.11.144.171.229.074-.047.136-.079.19-.121.473-.356.998-.35 1.474.017.227.173.35.387.347.686 0 .438-.055.872-.114 1.304-.036.252-.076.502-.114.752-.028.19-.053.222-.242.216a425.97 425.97 0 0 1-2.324-.083c-.43-.016-.86-.036-1.289-.052-.049-.003-.1 0-.148-.005-.102-.006-.159-.057-.15-.163.01-.133.019-.267.04-.398.097-.59.19-1.181.305-1.768a2.02 2.02 0 0 1 .205-.53c.366-.696 1.28-.637 1.649-.084Zm30.674-.35c.567.05 1.137.098 1.702.163l.614.079 1.227.171c.138.02.218.09.248.223.042.184.087.37.123.557.027.137-.015.243-.146.317-.36.197-.716.415-1.082.61-.724.38-1.454.748-2.184 1.116-.123.062-.246.136-.432.142-.028-.227-.06-.434-.072-.642-.002-.042.063-.105.11-.129.184-.089.375-.163.56-.245.196-.087.204-.1.166-.301l-.227-1.16c-.023-.12-.078-.187-.207-.198-.218-.016-.434-.048-.65-.067-.176-.015-.207-.028-.26-.19-.043-.132-.074-.268-.119-.433.229-.038.43-.03.629-.013ZM8.658 20.273c-.17.37-.201.775-.265 1.171-.015.091.03.147.125.16.233.031.461.065.599.086.379.006.41-.023.455-.315.006-.043.02-.083.023-.125.036-.265.077-.53.1-.797a.423.423 0 0 0-.07-.256c-.24-.356-.792-.313-.967.076Zm-1.527-.377a.82.82 0 0 0-.163.244c-.14.358-.184.735-.226 1.114-.017.154.036.205.186.22.21.021.422.034.629.061.11.015.16-.036.176-.13.059-.346.11-.695.16-1.043l-.019-.002c0-.07.009-.142-.002-.212a.455.455 0 0 0-.324-.38c-.169-.062-.304.01-.417.128Zm33.191-.02c-.13-.005-.175.044-.154.162.04.229.089.456.148.68.04.15.091.172.233.095.309-.167.614-.343.916-.52.062-.037.106-.102.182-.18-.103-.043-.169-.083-.239-.1a6.685 6.685 0 0 0-.54-.093 5.272 5.272 0 0 0-.546-.045Zm-32.335-4.28c.419.046.84.086 1.26.137.503.062 1.005.13 1.506.201.383.055.764.121 1.148.185.067.01.13.036.21.057a.966.966 0 0 1-.274.48c-.047.05-.171.043-.256.034a6.376 6.376 0 0 1-.563-.095c-.108-.023-.176.013-.222.108-.142.292-.295.578-.428.875-.11.245-.076.338.138.508.11.087.222.173.334.258.114.087.16.189.1.33-.053.11-.094.23-.15.384-.151-.087-.267-.14-.367-.216-.51-.39-1.02-.777-1.518-1.182-.442-.36-.868-.743-1.3-1.116-.184-.16-.184-.167-.073-.392.067-.14.143-.275.203-.417.05-.118.131-.152.252-.14Zm32.536-1.235c.066.1.119.207.187.307.074.108.061.201-.007.31a18.874 18.874 0 0 1-1.177 1.731c-.095.123-.19.246-.279.373-.042.061-.076.13-.112.193.1.078.165.012.233-.013.565-.218 1.13-.44 1.695-.659.112-.042.225-.084.339-.12.146-.047.182-.036.256.1.06.11.108.228.148.349.047.137.03.17-.11.222-.197.076-.396.146-.597.216-.94.322-1.882.642-2.821.961-.265.09-.284.075-.4-.173-.094-.2-.085-.367.065-.542.485-.57.944-1.16 1.35-1.79.05-.074.085-.154.13-.23-.013-.017-.024-.03-.032-.045-.076.021-.157.034-.226.068-.324.154-.646.315-.97.474-.277.138-.555.278-.834.413-.07.034-.142.061-.216.093-.146-.116-.201-.27-.252-.447.246-.146.487-.294.73-.432l2.562-1.444c.19-.108.216-.101.338.085ZM8.524 16.396c.053.063.083.11.123.146.277.237.555.477.838.707.165.134.225.121.326-.065.096-.172.172-.354.252-.534.017-.034.01-.078.015-.135-.254-.09-.51-.104-.768-.115-.252-.008-.504-.09-.786-.004Zm30.05-4.566c.114.117.222.237.336.352.085.085.087.165.022.262-.132.202-.25.41-.386.608a25.897 25.897 0 0 1-1.845 2.448c-.047.055-.1.108-.172.184-.093-.125-.18-.226-.25-.336a.296.296 0 0 1 .002-.322c.058-.098.13-.184.193-.278.047-.07.093-.141.138-.211.067-.104.05-.197-.03-.288-.216-.242-.432-.483-.646-.727-.072-.08-.148-.093-.245-.044-.197.095-.398.18-.593.281-.11.058-.195.051-.283-.04-.087-.089-.185-.17-.301-.273.108-.066.193-.125.282-.171.929-.492 1.898-.896 2.876-1.282.197-.076.398-.144.593-.224.12-.049.222-.028.309.061Zm-27.361-.495c.298.258.597.519.89.781.564.504 1.123 1.01 1.684 1.516.245.223.239.244.02.487-.107.123-.213.153-.37.11a18.599 18.599 0 0 0-2.26-.436c-.102-.019-.208-.006-.324-.006-.013.133.074.174.137.22.216.16.439.31.657.464.317.224.637.445.948.676.186.137.184.167.04.357-.044.062-.097.115-.152.178-.072-.034-.13-.057-.182-.089l-3.046-1.872c-.03-.019-.06-.036-.09-.057-.111-.08-.116-.104-.046-.226.017-.032.04-.06.057-.09.148-.268.364-.37.68-.355.722.036 1.426.157 2.133.292.147.028.295.098.458.038-.009-.123-.104-.171-.176-.23-.423-.354-.849-.702-1.272-1.05a6.398 6.398 0 0 1-.286-.253c-.074-.07-.08-.144-.006-.22.074-.076.14-.161.218-.231.123-.112.163-.114.288-.004Zm26.684 1.23c-.466.174-.909.335-1.347.557.13.31.358.496.572.758.123-.173.218-.303.309-.436.093-.133.188-.265.27-.405.08-.133.217-.243.196-.474Zm-23.24-4c0 .061.004.089 0 .114-.074.487-.15.974-.227 1.46a1.043 1.043 0 0 0-.008.084c-.013.24.008.275.23.364.71.284 1.385.631 2.045 1.01.053.036.11.085.19.142a1.442 1.442 0 0 1-.584.335c-.052.017-.135-.028-.194-.06-.479-.243-.953-.489-1.43-.732-.073-.038-.15-.068-.253-.114-.021.095-.045.167-.05.24-.062.594-.062.594.346 1.034.134.144.265.29.4.44-.084.153-.218.234-.349.31-.034.019-.108-.006-.148-.034a2.023 2.023 0 0 1-.237-.21c-.792-.783-1.581-1.569-2.371-2.354-.038-.038-.072-.085-.12-.144.143-.166.315-.284.488-.403.079-.053.134.007.182.057.172.178.341.358.51.536.132.138.257.282.392.417.045.045.108.072.201.132.021-.19.045-.337.051-.481.019-.436.032-.872.049-1.309l.006-.127c.013-.173.078-.303.252-.379.148-.063.281-.159.423-.237.057-.032.12-.055.206-.091Zm19.56-.055c.208.042.475.186.63.334-.062.178-.19.32-.297.475-.13.184-.267.364-.394.55-.125.185-.123.223.051.348.263.19.531.372.804.546.176.112.206.104.345-.044.208-.22.409-.45.614-.674.024-.025.047-.053.072-.078.212-.22.254-.225.49-.028.09.077.177.155.279.244-.153.171-.288.332-.432.48-.246.253-.502.496-.747.75-.352.367-.697.74-1.046 1.108a10.34 10.34 0 0 1-.406.4c-.115.106-.153.108-.276.017-.089-.068-.171-.142-.277-.231.37-.43.732-.847 1.11-1.281-.066-.068-.109-.123-.164-.161-.262-.18-.525-.356-.794-.527-.163-.104-.192-.094-.31.065-.261.352-.517.705-.775 1.06-.036.05-.079.096-.119.15a.912.912 0 0 1-.468-.32l2.11-3.183Zm-2.753-1.307c.336.07.645.2.923.405.385.288.552.737.43 1.154-.013.044-.04.085-.068.138-.18-.047-.35-.09-.519-.136-.091-.025-.142-.083-.148-.182-.002-.055-.017-.11-.028-.167a.667.667 0 0 0-.351-.477 1.042 1.042 0 0 0-1.253.146c-.347.324-.508.737-.555 1.2-.01.113-.006.228-.002.34a.755.755 0 0 0 .735.756c.133.008.268.006.402 0a.459.459 0 0 0 .413-.364c.02-.11-.04-.178-.123-.225-.098-.055-.206-.093-.307-.142-.157-.074-.176-.12-.125-.281.008-.028.019-.053.03-.079.105-.241.163-.273.404-.176.307.125.61.263.912.396.062.026.115.06.2.104-.047.087-.083.155-.121.218-.149.248-.295.498-.453.741-.072.11-.161.216-.259.305-.07.064-.167.127-.256.132-.303.01-.612.034-.906-.017-.722-.123-1.115-.578-1.192-1.305-.06-.584.036-1.137.343-1.645a1.98 1.98 0 0 1 .765-.714c.353-.192.726-.205 1.109-.125Zm-10.241-.747c.4.131.709.372.912.74.275.499.35 1.036.286 1.596a3.511 3.511 0 0 1-.055.332c-.153.678-.735 1.177-1.437 1.14-.6.012-1.042-.268-1.378-.716-.39-.521-.616-1.106-.589-1.77.02-.465.212-.837.605-1.079.513-.315 1.063-.44 1.656-.243Zm3.816-.39c.176.002.352.026.527.036.094.004.136.047.144.142.036.39.01.42-.383.42-.415 0-.832-.003-1.247.001-.213.003-.232.022-.235.227-.002.17-.002.339 0 .508.005.193.026.218.223.22.338.005.677.003 1.014.003.298 0 .31.014.268.315a.075.075 0 0 1-.004.021c-.04.293-.042.297-.345.254a3.329 3.329 0 0 0-.906.022c-.18.025-.211.063-.205.252.015.408.036.815.055 1.224.002.033.002.067.002.105a.49.49 0 0 1-.261.069l-.175-.003c-.085 0-.123-.061-.131-.14a59.137 59.137 0 0 1-.09-.86c-.052-.552-.107-1.107-.156-1.66a22.73 22.73 0 0 1-.061-.927c-.006-.163.008-.176.171-.206.09-.014.182-.023.273-.025.508-.002 1.014-.004 1.522.002Zm-4.667.978c-.394.058-.658.373-.68.773-.027.517.157.966.426 1.392a.952.952 0 0 0 .652.427c.35.068.705-.1.87-.415.104-.2.133-.415.127-.637a2.385 2.385 0 0 0-.263-1.057.835.835 0 0 0-.694-.485 1.784 1.784 0 0 0-.438.002Z"/>
</svg>
