<svg>
  <path d="M2.242 39.754c-.007-.302-.013-.58-.017-.86-.021-1.786-.038-3.574-.065-5.361a72.687 72.687 0 0 0-.075-2.24A6.546 6.546 0 0 0 2 30.566a1.425 1.425 0 0 0-.24-.597c-.104-.153-.217-.306-.261-.52.098-.008.186-.023.274-.023 1.027-.002 2.054-.012 3.078.002.803.013 1.606.05 2.406.092.341.02.687.044 1.016.126 1.136.283 1.924.964 2.238 2.114.174.633.03 1.232-.314 1.783-.132.214-.277.42-.417.63a4.658 4.658 0 0 0-.118.188l.493.431c.444.396.767.872.886 1.46.182.902-.06 1.69-.685 2.354-.532.568-1.207.867-1.963.993-.822.136-1.656.149-2.485.16-1.153.012-2.305.005-3.458.005-.056.003-.117-.004-.21-.01Zm2.156-1.997c.054.006.088.017.121.015.818-.004 1.635.002 2.452-.017.383-.008.767-.048 1.133-.176.365-.126.587-.367.64-.754.077-.593-.038-.97-.734-1.12a6.311 6.311 0 0 0-1.142-.127c-.76-.02-1.521-.01-2.284-.013-.058 0-.12.01-.184.017-.002.734-.002 1.444-.002 2.175Zm.086-4.264h.251c.474 0 .95.004 1.423-.002a10 10 0 0 0 .98-.046c.233-.027.466-.088.688-.166.21-.073.335-.245.383-.463a1.543 1.543 0 0 0-.002-.685.53.53 0 0 0-.316-.392 1.163 1.163 0 0 0-.319-.096c-.304-.036-.61-.073-.915-.077-.692-.013-1.381-.007-2.073-.007-.06 0-.121.009-.207.015.033.635.069 1.26.107 1.92Zm27.618 2.362.75 1.253c.25.419.503.838.748 1.261.241.413.484.826.694 1.274a.855.855 0 0 1-.388.084c-.398 0-.796-.004-1.194-.01-.216-.005-.432-.03-.648-.028-.148.002-.239-.05-.314-.18-.576-.98-1.16-1.957-1.743-2.936-.025-.042-.057-.081-.074-.125-.07-.189-.199-.248-.404-.241-.545.016-1.09.006-1.634.006h-.254c-.06 1.186-.065 2.355-.124 3.522-.15.044-1.87.057-2.156.013v-.24c0-1.828.005-3.658-.002-5.487-.004-.886-.027-1.772-.048-2.659a6.314 6.314 0 0 0-.052-.626c-.03-.252-.095-.493-.268-.692a.768.768 0 0 1-.135-.234c-.048-.128-.01-.227.122-.266.16-.049.325-.088.49-.099 1.2-.075 2.402-.067 3.602-.02.585.022 1.17.075 1.752.142a3.935 3.935 0 0 1 1.515.523c.89.514 1.368 1.323 1.548 2.303.2 1.086-.184 1.99-.964 2.74-.205.2-.427.38-.643.57-.052.038-.105.087-.176.152Zm-4.557-1.737c.08.004.134.01.188.01.587 0 1.172.008 1.758-.006.405-.01.807-.053 1.21-.086.37-.032.599-.247.707-.589.047-.144.076-.3.082-.45.015-.386-.069-.748-.304-1.065a.653.653 0 0 0-.507-.291c-.167-.01-.333-.042-.498-.044-.824-.017-1.645-.025-2.469-.038-.052 0-.104.013-.167.021v2.538Zm16.213.794c.937-.078 1.825-.057 2.728-.053.005.095.01.164.01.23 0 .63.01 1.258-.001 1.887a7.61 7.61 0 0 1-.078.894c-.044.308-.205.56-.448.757-.055.044-.11.09-.168.125-.823.493-1.666.954-2.623 1.12-2.114.366-3.954-.175-5.469-1.723-.643-.658-.985-1.467-1.115-2.366a8.303 8.303 0 0 1-.02-2.357c.249-1.756 1.185-3.005 2.799-3.715 1.628-.716 3.285-.773 4.94-.077a4.76 4.76 0 0 1 1.805 1.297c.023.025.041.052.077.098l-1.366 1.402c-.082-.055-.157-.103-.23-.153-.218-.15-.434-.308-.654-.453-1.316-.867-2.94-.775-4.097.233-.651.568-1.007 1.286-1.104 2.141-.071.64-.004 1.26.285 1.836.507 1.012 1.735 2.074 3.445 1.833.34-.048.675-.115.995-.237.706-.268.964-.722.805-1.462-.053-.243-.155-.476-.25-.708-.07-.172-.161-.338-.266-.55Zm-21.085-3.92c-.012.041-.012.058-.02.066-.378.384-.755.767-1.132 1.147-.044.044-.1.075-.153.109a.205.205 0 0 1-.237-.009 1.609 1.609 0 0 1-.163-.132c-.663-.601-1.45-.907-2.33-.972a2.447 2.447 0 0 0-1.295.28c-1.278.663-1.972 1.715-1.964 3.16.007.878.35 1.662.929 2.324.375.43.878.654 1.422.796.9.235 1.758.097 2.59-.278.168-.076.308-.212.457-.325.071-.055.134-.124.207-.176a.519.519 0 0 1 .556-.046c.11.054.224.121.312.207.247.245.492.495.718.759.195.226.18.341-.02.565a1.08 1.08 0 0 1-.168.158c-.715.509-1.463.953-2.326 1.158a6.112 6.112 0 0 1-4.105-.41c-1.158-.54-1.938-1.444-2.41-2.615-.538-1.337-.634-2.71-.142-4.071.664-1.832 1.989-2.978 3.877-3.418 1.758-.404 3.356.03 4.781 1.123.228.178.42.405.616.6Zm-15.015-6.94c.032.046.067.092.082.144.054.187.19.27.369.294.352.042.706.1 1.06.113 1.647.054 3.292.105 4.938.142 1.306.03 2.611.04 3.917.053.572.004 1.144-.007 1.716-.021l.228-.015.459-.052c.084-.009.165-.021.25-.025.236-.017.297.04.301.282.002.111.004.225-.004.336-.015.167-.074.22-.239.224a.688.688 0 0 1-.147-.006c-.65-.124-1.307-.118-1.96-.112-2.193.024-4.384.055-6.576.093-.803.012-1.605.04-2.408.077-.48.021-.96.076-1.439.115-.048.005-.094.021-.142.03a.416.416 0 0 0-.323.264.664.664 0 0 1-.189.243c-.109.09-.199.06-.237-.076a1.836 1.836 0 0 1-.06-.412c-.007-.256 0-.507 0-.727.014-.308.025-.59.046-.866.006-.084-.009-.197.113-.222.109-.023.189.038.245.124Zm33.265-.01c.044.13.076.27.082.408l.007.223-.003.447a.08.08 0 0 1 .032 0c-.021.292-.036.585-.063.876-.01.118-.032.245-.18.275-.103.02-.237-.08-.306-.218a.516.516 0 0 1-.03-.08.307.307 0 0 0-.247-.23c-.176-.038-.356-.078-.536-.09a28.56 28.56 0 0 0-1.402-.08 479.65 479.65 0 0 0-4.251-.103 283.105 283.105 0 0 0-3.77-.05 68.473 68.473 0 0 0-2.074.025c-.216.004-.43.052-.644.076-.312.031-.387.008-.293-.365.017-.065.103-.138.172-.161.144-.046.297-.08.45-.086.795-.036 1.59-.076 2.387-.09 2.039-.038 4.077-.063 6.116-.099.85-.015 1.704-.038 2.554-.073.37-.015.736-.065 1.105-.105a.642.642 0 0 0 .49-.318.996.996 0 0 1 .207-.233c.086-.071.162-.055.197.05Zm-1.997-3.8c.084.101.164.21.218.33.153.341.208.706.233 1.154-.023.084-.052.24-.109.388-.042.11-.098.119-.197.056a1.27 1.27 0 0 1-.197-.157.605.605 0 0 0-.515-.18c-.298.038-.598.069-.889.136-2.181.505-4.354 1.04-6.493 1.708-.2.063-.398.13-.591.211a.948.948 0 0 0-.272.185c-.172.161-.363.234-.593.155a.632.632 0 0 1-.438-.516.665.665 0 0 1 0-.25c.08-.372.232-.458.528-.412.345.053.68-.033 1.016-.098 1.215-.237 2.405-.57 3.591-.914a328.14 328.14 0 0 0 3.47-1.033c.187-.056.363-.142.543-.22.165-.073.264-.195.268-.387.002-.11 0-.237.136-.28.124-.035.22.039.291.124Zm-29.451-.2c.1.138.195.23.24.339a.845.845 0 0 0 .489.46c.331.133.66.269 1 .374 2.01.626 4.029 1.221 6.082 1.697.285.067.574.113.863.155.128.019.264.013.394-.002.45-.053.652.144.576.593a1.26 1.26 0 0 1-.096.34c-.103.221-.304.307-.538.234-.105-.034-.202-.094-.3-.145-.161-.081-.312-.19-.482-.243-.907-.278-1.81-.565-2.728-.804-1.416-.371-2.841-.71-4.262-1.058-.243-.06-.492-.095-.742-.132-.266-.042-.513-.007-.716.197-.078.077-.178.157-.298.108-.132-.054-.134-.19-.132-.305a3.28 3.28 0 0 1 .436-1.576c.044-.073.117-.13.214-.233Zm28.553-4.353c.088.08.167.128.215.197.357.522.654 1.073.843 1.677.031.102.075.211.01.326-.107.034-.176-.035-.234-.098-.241-.27-.53-.296-.839-.155-.343.155-.683.316-1.012.5a853.5 853.5 0 0 0-4.756 2.689c-1.293.735-2.58 1.477-3.868 2.219a6.38 6.38 0 0 0-.585.369 4.528 4.528 0 0 0-.456.394c-.12.113-.18.132-.302.02a1.473 1.473 0 0 1-.29-.326c-.169-.298-.018-.608.321-.658.233-.034.445-.122.648-.229l1.148-.605c.382-.203.762-.41 1.134-.63 2.089-1.237 4.167-2.494 6.248-3.75.358-.215.706-.45 1.056-.68.121-.08.235-.174.352-.264a.53.53 0 0 0 .222-.45 1.48 1.48 0 0 1 .044-.332c.015-.063.054-.12.1-.214Zm-27.68.162a.835.835 0 0 1 .061.324c-.012.28.111.489.32.648.21.161.424.32.65.457 1.425.855 2.85 1.705 4.281 2.548a350.03 350.03 0 0 0 4.055 2.357c.435.251.875.492 1.351.664.285.103.425.304.428.56.002.199-.074.354-.26.437-.172.078-.31.03-.486-.136a2.526 2.526 0 0 0-.394-.308c-.89-.547-1.78-1.102-2.682-1.63-2.236-1.305-4.489-2.58-6.787-3.774-.254-.132-.518-.243-.77-.379-.276-.149-.508-.073-.73.107-.055.044-.107.094-.168.122-.13.058-.233-.009-.22-.15a.763.763 0 0 1 .092-.272c.197-.368.4-.733.606-1.1a5.27 5.27 0 0 1 .237-.394.623.623 0 0 1 .165-.157c.113-.075.205-.05.252.076Zm21.375-5.815a.43.43 0 0 1 .144.082c.323.262.692.444 1.069.614.128.056.251.123.373.188.048.028.1.06.132.101.04.052.092.128.077.176-.014.048-.096.094-.157.111-.086.023-.18.025-.27.025a.737.737 0 0 0-.618.298c-.164.216-.33.433-.47.666a506.618 506.618 0 0 0-2.03 3.422c-1.027 1.745-2.049 3.49-3.072 5.238-.15.26-.287.526-.423.794-.105.205-.199.413-.216.652-.012.128-.094.186-.23.19-.264.007-.614-.31-.641-.574-.01-.098.035-.172.096-.243.13-.155.27-.304.373-.473.82-1.373 1.651-2.739 2.443-4.126 1.069-1.873 2.104-3.765 3.154-5.649.075-.134.132-.279.21-.41.125-.214.068-.4-.072-.579-.048-.06-.103-.115-.14-.18-.053-.088-.072-.189-.003-.275.072-.09.174-.08.27-.048Zm-14.99-.1c.086.048.063.148.036.228a2.292 2.292 0 0 1-.15.346.447.447 0 0 0-.045.381c.063.178.11.363.195.53.333.66.662 1.324 1.024 1.968 1.31 2.325 2.628 4.643 3.944 6.962.16.285.337.564.52.836.1.15.221.285.343.42a.69.69 0 0 1 .195.45c.008.314-.195.507-.528.518-.183.006-.334-.114-.344-.3-.019-.327-.16-.608-.314-.88-.436-.771-.876-1.542-1.329-2.305-1.236-2.091-2.476-4.18-3.719-6.27a22.104 22.104 0 0 0-.478-.762c-.088-.134-.186-.26-.285-.39a.828.828 0 0 0-.704-.345c-.125.004-.262.023-.412-.061.052-.06.088-.122.138-.157.54-.373 1.081-.742 1.624-1.11a.277.277 0 0 1 .094-.045c.065-.01.147-.04.195-.014Zm8.335-1.618c.07.008.136.03.201.057.084.035.107.1.044.163a.582.582 0 0 1-.237.163c-.236.063-.347.233-.393.445-.061.278-.12.561-.132.846-.042.935-.084 1.87-.088 2.804-.011 2.089.004 4.176 0 6.265-.003.76-.026 1.52-.044 2.281a2.749 2.749 0 0 1-.05.436c-.057.285-.353.377-.57.183-.13-.116-.191-.27-.145-.436.094-.342.094-.692.096-1.04.01-1.96.013-3.924.013-5.885 0-.874-.015-1.746-.023-2.62-.009-.957-.02-1.912-.021-2.87 0-.126-.042-.19-.155-.235a3.283 3.283 0 0 1-.38-.178c-.11-.056-.22-.121-.28-.3.104-.033.192-.075.285-.087a6.97 6.97 0 0 1 1.88.008Zm-11.055 5.486c-.075.322.07.563.258.779.444.511.893 1.016 1.36 1.509a651.32 651.32 0 0 0 3.539 3.685c.193.201.406.382.618.562.144.121.302.224.503.239.115.008.184.092.23.19a.741.741 0 0 1 .015.629.368.368 0 0 1-.254.23c-.092.021-.188.036-.301.057-.103-.025-.225-.038-.331-.082-.151-.06-.252-.163-.235-.352a.376.376 0 0 0-.078-.228c-.138-.193-.274-.39-.438-.56-.697-.733-1.382-1.479-2.11-2.18-.842-.816-1.72-1.595-2.591-2.377-.275-.247-.58-.457-.876-.68a.854.854 0 0 0-.444-.168c-.388-.042-.472-.21-.283-.55.186-.333.427-.622.758-.823.118-.071.252-.123.386-.147.186-.033.316.082.274.267Zm20.572-.24c.111.036.22.095.314.162.292.21.535.47.723.777a.999.999 0 0 1 .11.248c.054.22-.045.337-.271.329-.048-.002-.097-.013-.145-.023a.617.617 0 0 0-.52.092c-.192.136-.391.27-.565.431-.493.455-.987.908-1.458 1.383a321.69 321.69 0 0 0-3.011 3.089c-.277.287-.526.597-.778.905a1.057 1.057 0 0 0-.165.329c-.08.222-.31.373-.602.373-.444 0-.74-.405-.595-.82.053-.152.151-.274.308-.318a.954.954 0 0 0 .392-.232c.43-.39.865-.774 1.28-1.176a74.326 74.326 0 0 0 3.623-3.78c.26-.291.499-.601.738-.911a.888.888 0 0 0 .21-.577c-.005-.257.163-.362.412-.28ZM20.838 9.729c.148.002.274.14.253.296a.732.732 0 0 1-.084.278c-.199.306-.192.641-.123.973.176.84.354 1.678.563 2.51.319 1.265.658 2.525 1.004 3.782.113.408.272.806.415 1.207.071.199.182.373.323.534.178.199.176.274-.005.463a2.26 2.26 0 0 1-.391.344c-.26.17-.482.1-.623-.176a1.665 1.665 0 0 1-.165-.73c-.021-.752-.17-1.48-.377-2.202-.461-1.58-.922-3.162-1.39-4.74a18.474 18.474 0 0 0-.326-.972c-.042-.117-.107-.226-.17-.335a.336.336 0 0 0-.273-.174c-.127-.008-.238-.046-.272-.182a.386.386 0 0 1 .098-.388.48.48 0 0 1 .153-.106c.434-.179.889-.288 1.348-.38.014 0 .027 0 .042-.002Zm6.644.009c.446.085.888.194 1.282.43.105.062.206.146.285.24.094.109.073.18-.046.258a.836.836 0 0 1-.168.084.662.662 0 0 0-.39.36c-.108.24-.223.482-.301.733-.342 1.121-.685 2.242-1 3.37-.303 1.087-.574 2.185-.856 3.279-.044.167-.08.341-.093.513-.014.178-.01.363.01.54.049.403-.23.673-.621.575a1.064 1.064 0 0 1-.357-.166c-.165-.115-.312-.255-.49-.406.075-.07.128-.126.189-.17.312-.226.51-.536.63-.893.111-.328.189-.67.275-1.007.394-1.549.79-3.095 1.175-4.646.143-.574.256-1.156.377-1.737.02-.088.017-.18.021-.27a.612.612 0 0 0-.144-.425 1.037 1.037 0 0 1-.172-.308c-.059-.183.075-.352.268-.36a.507.507 0 0 1 .126.006Z"/>
</svg>
