<svg>
  <path d="M24.616 1.51c3.703.108 7.174 1.05 10.398 2.885 1.68.957 3.251 2.061 4.655 3.392 1.81 1.714 3.255 3.7 4.39 5.91.673 1.307 1.28 2.643 1.707 4.053.317 1.042.514 2.107.614 3.191.09.92.124 1.844.12 2.771a29.833 29.833 0 0 1-.17 3.377c-.444 4.12-1.971 7.785-4.674 10.947-1.353 1.583-2.838 3.032-4.495 4.302-1.565 1.196-3.303 2.067-5.147 2.752a21.83 21.83 0 0 1-4.824 1.182c-1.29.167-2.585.249-3.884.224-1.587-.032-3.165-.176-4.702-.598a23.404 23.404 0 0 1-5.507-2.301c-4.018-2.314-7.102-5.52-9.205-9.648a22.095 22.095 0 0 1-2.092-6.38 21.612 21.612 0 0 1-.27-4.721 21.831 21.831 0 0 1 2.26-8.686c2.492-5.014 6.32-8.654 11.454-10.92 1.642-.724 3.362-1.19 5.136-1.46a23.402 23.402 0 0 1 4.236-.273ZM22.88 2.976a21.505 21.505 0 0 0-4.445.767c-4.393 1.25-8.077 3.573-10.914 7.173-2.93 3.717-4.466 7.94-4.568 12.672a20.07 20.07 0 0 0 .35 4.151 20.887 20.887 0 0 0 2.72 7.138c2.416 3.947 5.786 6.791 10.05 8.594a20.148 20.148 0 0 0 8.718 1.597 21.166 21.166 0 0 0 3.364-.4c2.534-.514 4.895-1.469 7.107-2.801 2.501-1.508 4.577-3.454 6.197-5.883 1.164-1.748 2.063-3.625 2.82-5.58.424-1.102.648-2.243.678-3.42.023-.982.025-1.963.035-2.924-.023-1.009-.035-1.997-.075-2.984-.038-1.005-.186-1.997-.538-2.945a52.65 52.65 0 0 0-1.065-2.675c-.726-1.675-1.652-3.235-2.832-4.638-1.45-1.723-3.133-3.189-5-4.444-1.569-1.055-3.24-1.917-5.042-2.508-2.46-.804-4.983-1.063-7.56-.89Zm1.707 7.1c.474.193.872.493 1.228.855.22.223.32.49.258.8-.067.325-.155.647-.237.97-.05.203-.113.402-.16.604-.087.378-.058.752.112 1.1.142.295.301.581.473.859.233.38.49.745.727 1.121.62.988 1.117 2.039 1.56 3.114a39.454 39.454 0 0 1 2.361 8.032c.2 1.09.317 2.188.35 3.297.017.514.03 1.03.042 1.543.002.126 0 .249-.036.38l-.05-.119c-.065-.154-.12-.31-.197-.459-.075-.142-.171-.265-.354-.294-.121-.02-.184-.13-.222-.232-.081-.228-.174-.458-.216-.696a49.517 49.517 0 0 1-.3-2c-.125-.973-.158-1.957-.34-2.922-.06-.313-.137-.624-.212-.935a1.586 1.586 0 0 0-.1-.274c-.032-.067-.063-.165-.154-.144-.064.015-.132.08-.167.14-.134.23-.149.486-.168.745-.023.347-.037.696-.094 1.036a2.054 2.054 0 0 1-.216.606c-.171.33-.463.486-.833.507a1.9 1.9 0 0 0-.392.052.637.637 0 0 0-.237.128c-.142.119-.163.284-.042.424.076.087.18.15.277.215.05.035.117.05.167.083.107.07.116.165.01.234-.102.067-.221.113-.336.161-.172.073-.354.13-.52.217a1.252 1.252 0 0 0-.329.255c-.19.207-.136.405.13.5.078.026.163.035.245.047.076.013.151.021.233.032-.02.1-.097.1-.155.131-.093.048-.193.086-.275.148-.155.12-.19.284-.115.468a.87.87 0 0 0 .302.366c.324.242.697.334 1.097.352.243.013.486.046.725.09a.722.722 0 0 1 .279.136c.11.081.11.192.002.282a.645.645 0 0 1-.254.14c-.194.046-.396.067-.595.096-.199.03-.402.042-.597.092-.171.044-.333.136-.364.334-.031.2.103.326.251.424.116.077.245.131.369.196.073.04.153.071.218.121.102.082.12.176.03.272-.122.13-.129.278-.1.428.08.395.152.793.258 1.18.315 1.155.734 2.276 1.15 3.4.359.964.715 1.931 1.073 2.896.023.065.044.13.077.232-.153-.019-.28-.032-.406-.052-.957-.153-1.915-.301-2.87-.466-.345-.06-.335.012-.387-.393-.086-.676-.168-1.353-.243-2.03-.097-.877-.174-1.758-.281-2.635a193.494 193.494 0 0 0-.436-3.289c-.121-.875-.262-1.746-.391-2.62-.191-1.29-.34-2.58-.396-3.88-.01-.25-.044-.5-.095-.744-.067-.332-.276-.541-.62-.593a3.916 3.916 0 0 0-.54-.055c-.258-.002-.392.105-.444.355-.074.351-.078.706.03 1.053.079.257.227.445.525.463.157.01.239.121.272.253.061.234.128.474.143.712.048.75.092 1.502.1 2.251.02 1.594.034 3.187.015 4.78-.013 1.19-.071 2.38-.122 3.567-.014.347-.07.692-.119 1.036-.015.105-.059.207-.094.33-.12-.073-.13-.167-.14-.25-.034-.276-.07-.554-.084-.83-.06-1.098-.044-2.199-.01-3.297.045-1.543.098-3.089.133-4.632a55.29 55.29 0 0 0-.006-2.193c-.004-.263-.046-.526-.084-.787a.922.922 0 0 0-.098-.294c-.09-.176-.262-.222-.421-.1a.91.91 0 0 0-.258.294c-.122.24-.245.489-.316.747-.17.602-.312 1.212-.461 1.82-.298 1.24-.614 2.474-1.083 3.66-.088.22-.193.432-.296.645a1.712 1.712 0 0 1-.127.216c-.124.19-.264.352-.545.231.333.408.367.854.298 1.322a.495.495 0 0 1-.065.197c-.03.043-.101.096-.145.087-.124-.023-.17.05-.199.138a1.654 1.654 0 0 0-.084.345c-.06.561-.094 1.123-.012 1.685.016.121.058.242.109.357.048.11.142.163.272.148a.757.757 0 0 1 .247.017c.105.023.166.096.174.207.008.11-.059.165-.147.202a2.334 2.334 0 0 1-.859.165c-.404.01-.808-.002-1.214-.002-.145 0-.29-.01-.466.042.055.052.08.09.118.109.086.046.178.081.266.123.088.042.18.08.264.127.335.196.46.464.391.844a2.68 2.68 0 0 1-.131.46c-.084.22-.212.29-.442.242a2.678 2.678 0 0 1-.403-.115c-.865-.337-1.713-.71-2.511-1.189a9.782 9.782 0 0 1-.78-.526 2.357 2.357 0 0 1-.343-.334.43.43 0 0 1-.096-.372c.04-.26.176-.388.44-.367.171.012.345.052.509.106.211.071.41.176.615.26.323.127.648.254.977.37.108.04.228.062.345-.001.017-.105-.06-.142-.123-.176a6.793 6.793 0 0 0-.577-.294c-.28-.121-.571-.223-.854-.342a3.58 3.58 0 0 1-.427-.22c-.164-.098-.176-.133-.101-.303.136-.304.274-.61.427-.906.323-.624.648-1.249.989-1.863.184-.334.417-.643.6-.977.403-.74.795-1.485 1.18-2.234a94.56 94.56 0 0 1 2.537-4.634c.44-.752.679-1.577.698-2.458.006-.334.027-.669.121-.992.084-.293.23-.529.537-.65a.81.81 0 0 0 .435-.432.484.484 0 0 0-.012-.46c-.294.153-.358.483-.606.669-.027-.05-.06-.082-.062-.115-.007-.2-.017-.401-.007-.602.013-.19.136-.296.323-.33.075-.012.153-.027.228-.02.327.029.652.062.978.098.118.012.235.037.352.046.065.004.132-.01.241-.023-.073-.092-.11-.157-.165-.205a9.968 9.968 0 0 0-.394-.311c-.138-.104-.287-.198-.388-.361.12-.09.118-.22.097-.34a23.993 23.993 0 0 0-.193-.938c-.048-.224-.109-.445-.155-.67-.015-.07.002-.145.006-.272.118.09.195.142.264.204.26.236.56.389.907.443.034.006.07.01.105.01.163-.001.222-.079.153-.225a1.243 1.243 0 0 0-.201-.315c-.235-.257-.482-.504-.727-.752l-.52-.523a10.876 10.876 0 0 1-.255-.266 4.723 4.723 0 0 1-.434-.562c-.473-.693-.58-1.445-.356-2.251.128-.458.32-.89.534-1.312.13-.255.256-.51.377-.768.053-.113.097-.232.134-.351.122-.393.067-.562-.249-.823-.53-.436-.61-.867-.304-1.474.218-.433.58-.6 1.033-.63.434-.03.846.062 1.244.225Zm-.502 30.38c.18.369.18.755.004 1.127-.124.26-.342.263-.49.017a1.021 1.021 0 0 1-.136-.573 1.037 1.037 0 0 1 .14-.586c.144-.232.362-.23.482.014Zm-3.917.264c.146.059.157.197.178.32a.733.733 0 0 1-.189.601c-.147-.236-.14-.722.01-.92Zm-8.47-4.567c.06.042.122.08.178.128a4.481 4.481 0 0 1 1.337 1.908c.09.247.13.51.186.767.013.052.009.11.005.167-.01.173-.084.284-.25.317-.762.153-1.736.067-2.247-.787-.082-.138-.172-.272-.241-.414-.08-.164-.023-.244.159-.217.22.032.436.088.656.13.196.037.395.085.594.1.206.015.267-.071.212-.271-.04-.147-.098-.289-.149-.433-.144-.399-.289-.795-.431-1.194-.021-.057-.03-.115-.042-.174.01-.008.02-.018.033-.027Zm25.707-1.127c-.004.083.002.156-.017.225-.106.41-.22.819-.328 1.228-.07.261-.137.524-.204.787-.016.065-.027.132-.044.22.067-.005.116.002.157-.01.313-.097.627-.19.937-.293.27-.09.538-.192.808-.28.076-.025.16-.019.283-.031-.033.098-.04.167-.075.219-.52.75-1.175 1.324-2.101 1.501-.235.046-.486.032-.73.013-.274-.019-.368-.136-.357-.411.016-.468.11-.923.276-1.362a4.148 4.148 0 0 1 1.108-1.646c.074-.069.138-.16.287-.16Zm-16.351 2.606c.144.052.351.355.35.534a.499.499 0 0 1-.235.376c-.124.078-.26.05-.319-.081-.113-.255-.081-.516.028-.767.031-.073.1-.09.176-.062Zm.66-3.394c.081.052.081.14.075.217-.027.318-.04.64-.099.953-.075.409-.184.812-.282 1.217-.023.094-.063.18-.097.27-.226-.612-.052-2.414.402-2.657Zm-12.16 1.859c.163.056.393.355.397.526.005.13-.069.205-.203.207-.226.006-.427-.2-.402-.386a1.64 1.64 0 0 1 .057-.282c.02-.065.075-.092.15-.065Zm30.256-.666c.025.07.033.148.042.175.004.276-.155.453-.375.464-.17.008-.27-.098-.224-.26a.74.74 0 0 1 .345-.45c.11-.063.166-.044.212.07Zm-30.983-1.44c.366.189.724.391.988.72.18.225.331.465.323.77 0 .033.012.067.023.1.006.008.02.017.065.056.056-.098.098-.181.149-.258.07-.11.134-.232.23-.318.226-.202.499-.125.589.165a.93.93 0 0 1 .029.349c-.015.165-.134.267-.291.282a2.95 2.95 0 0 1-.622 0c-.29-.036-.576-.103-.863-.159a.583.583 0 0 1-.474-.42c-.109-.35-.21-.706-.312-1.059a.435.435 0 0 1-.017-.102c-.008-.159.04-.2.183-.125Zm31.605-.901c.065.18-.044.666-.214.967-.222.394-.729.925-1.273 1.046-.086-.042-.06-.12-.042-.18.046-.152.086-.309.155-.45.268-.55.664-.989 1.183-1.314.042-.025.086-.046.13-.065.02-.01.042-.004.061-.004Zm-18.323-.629c.139.102.122.26.13.395.015.25.032.507-.128.766-.144-.296-.138-.946-.002-1.16Zm.348-1.629c.124.042.155.15.166.26.027.233.018.465-.172.676-.153-.267-.145-.735.006-.936Zm18.708-4.943a.87.87 0 0 1 .268.113c.296.196.585.403.876.608.16.112.314.234.478.336.086.054.188.092.287.119.148.04.234-.002.314-.136l.1-.171c.017.002.032.004.049.004.025.073.067.146.073.222.046.482.008.958-.128 1.426-.067.227-.205.38-.434.434-.303.073-.61.153-.92.19-.45.057-.904.084-1.357.017a1.78 1.78 0 0 1-.364-.086c-.18-.067-.214-.227-.07-.357a.626.626 0 0 1 .277-.13c.214-.045.283-.1.33-.312.062-.293.012-.583-.024-.871-.035-.297-.08-.593-.11-.89a1.036 1.036 0 0 1 .012-.29c.031-.2.144-.276.343-.226Zm.74 1.038c-.038.084-.078.142-.09.205a2.198 2.198 0 0 0-.044.37c-.007.248.121.421.337.528.182.09.377.085.57.035.117-.031.146-.092.1-.202a.544.544 0 0 0-.098-.159 28.79 28.79 0 0 0-.574-.63c-.048-.053-.117-.088-.201-.147ZM26.71 19.865c-.402.074-.76.24-1.016.569-.085.11-.138.256-.182.392-.081.261-.014.522.015.785.019.17.01.347-.015.516-.02.148-.113.249-.283.26-.056.003-.109.037-.167.058a.448.448 0 0 0 .138.23l.126.112c.1.092.255.13.318.31-.19-.04-.352-.078-.515-.11a2.026 2.026 0 0 0-1.131.082c-.149.052-.291.123-.377.292.094.121.218.13.333.136.278.019.557.036.836.03a3.12 3.12 0 0 0 1.064-.195c.178-.07.343-.159.417-.353.016-.044.046-.081.08-.14.108.14.106.25.114.36.013.19.055.375.172.528.055.073.138.156.222.173.189.036.272.159.327.315.098.282.11.573.042.865-.044.188-.16.29-.354.299-.16.006-.32-.007-.48-.023-.16-.02-.314-.06-.473-.082-.243-.031-.344.073-.298.316.071.363.172.72.354 1.042.099.173.226.334.365.478a.936.936 0 0 0 .611.286c.342.027.61-.117.828-.366.24-.275.358-.607.425-.962a9.68 9.68 0 0 0 .13-2.782 8.325 8.325 0 0 0-.769-2.759 2.273 2.273 0 0 0-.297-.45.557.557 0 0 0-.56-.212ZM7.231 24.151c.065.181.128.371.14.561.032.472.038.944.045 1.416.002.2-.021.403-.036.604a.793.793 0 0 1-.017.123c-.06.286-.188.347-.417.159-.356-.297-.745-.313-1.162-.2-.235.064-.463.152-.696.225-.098.031-.199.065-.301.081-.195.032-.298-.027-.34-.219a3.832 3.832 0 0 1-.067-.6c-.01-.2-.002-.402-.002-.605-.006.004-.01.004-.014.002.014-.263.025-.528.046-.791a1.38 1.38 0 0 1 .06-.305c.055-.159.155-.22.325-.197.096.013.19.042.285.067.203.057.408.082.62.038a.65.65 0 0 0 .404-.236c.185-.232.44-.33.73-.36.192-.02.334.061.397.237Zm-.888.616a.944.944 0 0 0-.197.24c-.146.271-.482.376-.777.288-.08-.023-.161-.048-.243-.054-.186-.013-.304.077-.352.255-.056.206.027.4.235.528.216.138.463.171.72.182.172-.025.346-.04.514-.08a.486.486 0 0 0 .362-.317c.111-.328.088-.658-.008-.982-.042-.144-.14-.163-.254-.06Zm37.44-2.811c.065.09.117.192.15.296.14.433.137.875.088 1.322a.407.407 0 0 1-.029.1c-.048.115-.103.136-.211.078a.59.59 0 0 1-.101-.073c-.457-.437-1.016-.552-1.623-.518a1.28 1.28 0 0 0-.126.012c-.28.053-.484.207-.518.497-.029.24-.012.485-.004.727.007.05.048.102.09.199.086-.09.15-.15.201-.218.065-.081.116-.175.185-.25.1-.111.199-.109.31-.015.295.25.329.664.067.948-.266.286-.597.37-.974.267-.153-.041-.243-.156-.317-.288a2.6 2.6 0 0 1-.268-.829c-.09-.516-.136-1.036-.054-1.556.025-.156.073-.31.128-.459.04-.109.121-.19.251-.186.142.006.256.067.316.203.023.05.038.106.04.16.006.19.115.301.283.343.147.036.302.048.452.048.241 0 .468-.073.677-.192a.808.808 0 0 0 .358-.393 1.07 1.07 0 0 1 .132-.234c.157-.202.346-.2.497.01ZM6.308 20.27c.354.035.693.062 1.03.104a1 1 0 0 1 .316.102c.162.082.185.2.065.339a.988.988 0 0 1-.251.215.656.656 0 0 0-.304.428c-.1.378-.075.756-.025 1.138.025.198.042.4.036.601-.007.251-.124.316-.36.224a1.805 1.805 0 0 1-.298-.15c-.172-.107-.337-.222-.505-.335a2.476 2.476 0 0 0-.878-.382.626.626 0 0 0-.408.03c-.193.087-.31.033-.314-.176-.006-.27.019-.539.056-.806.03-.205.099-.403.151-.606.088-.346.31-.561.658-.618.346-.054.693-.073 1.03-.108Zm17.857.215c-.33.002-.54.263-.456.578.113.422.324.794.613 1.124a.696.696 0 0 0 .107.1c.166.134.27.13.42-.021.186-.19.284-.426.34-.68a.28.28 0 0 0 .003-.084c-.004-.08-.048-.113-.126-.1-.033.006-.067.02-.098.029-.21.06-.319-.007-.357-.222-.01-.06.003-.127-.012-.185-.03-.122-.055-.245-.109-.356-.06-.12-.18-.185-.325-.183Zm-18.358.739c-.178.023-.34.031-.494.067-.162.035-.195.131-.093.259.2.246.442.445.713.605.144.086.266.055.362-.09.075-.114.136-.244.174-.373.058-.199-.025-.345-.226-.401-.145-.042-.3-.048-.436-.067Zm16.83-.627c.028.074.037.16.045.197-.004.255-.165.428-.373.443-.159.01-.26-.084-.23-.239a.696.696 0 0 1 .362-.48c.095-.052.155-.027.195.08Zm19.116-2.514c.289.04.58.067.865.123.134.025.264.09.381.161.256.157.348.401.247.683a1.39 1.39 0 0 1-.236.434 3.535 3.535 0 0 1-.578.568c-.407.293-.836.552-1.26.821a.975.975 0 0 1-.249.107c-.157.044-.226-.007-.23-.17-.002-.09.01-.18.017-.269.033-.43.054-.86-.02-1.288a1.479 1.479 0 0 0-.117-.376c-.064-.133-.138-.165-.262-.133l-.066.022a.854.854 0 0 1-.2.054c-.077.01-.131-.029-.16-.104-.03-.073-.028-.146.035-.19.09-.063.186-.123.289-.163.455-.171.93-.24 1.414-.253.042-.002.084 0 .126 0 0-.008.002-.018.004-.027Zm-.417.906c-.176.055-.23.205-.13.362.12.188.29.317.513.359.23.044.434-.127.436-.403 0-.067-.05-.157-.142-.217a.772.772 0 0 0-.677-.1ZM6.291 16.178c.159.016.32.035.471.079.233.069.465.148.69.244.485.211.965.437 1.445.656.031.012.052.027.109.06-.432.21-.836.393-1.232.6-.258.134-.507.29-.75.45a1.05 1.05 0 0 0-.25.252c-.148.198-.085.352.164.371.17.015.346-.014.517-.042.2-.03.396-.081.593-.12a.562.562 0 0 1 .145-.011c.144.012.216.083.176.22a2.154 2.154 0 0 1-.197.475.398.398 0 0 1-.373.197 2.05 2.05 0 0 1-.492-.076 8.215 8.215 0 0 0-1.47-.307 2.168 2.168 0 0 1-.33-.058c-.366-.109-.45-.361-.211-.662.09-.113.199-.22.318-.299.197-.13.407-.24.618-.344.237-.12.486-.213.72-.332.359-.182.363-.299.026-.506-.126-.075-.262-.133-.381-.217a4.386 4.386 0 0 1-.438-.349.24.24 0 0 1-.057-.185c.017-.086.113-.105.189-.096Zm34.22-2.56c.35.037.486.275.341.592-.065.144-.165.272-.258.401-.083.12-.186.226-.266.347-.102.157-.086.246.07.355.119.084.249.152.383.213.56.25 1.123.497 1.682.743.067.028.13.057.243.107-.605.21-1.163.41-1.724.597-.383.128-.77.245-1.158.36-.097.029-.202.035-.346.058.042-.075.054-.121.084-.148.13-.115.266-.224.402-.335.134-.11.274-.215.406-.327.061-.053.105-.122.187-.218-.107-.027-.174-.052-.243-.06-.124-.015-.256-.002-.375-.031a1.53 1.53 0 0 1-.442-.172c-.23-.152-.308-.386-.256-.658.036-.181.13-.336.243-.48.074-.092.147-.186.205-.288.082-.144.044-.221-.11-.261-.457-.123-.838.142-.87.606-.008.133-.015.275-.157.34-.155.07-.266-.038-.373-.125-.25-.207-.272-.445-.058-.687a1.62 1.62 0 0 1 .314-.272 4.2 4.2 0 0 1 1.575-.645 1.71 1.71 0 0 1 .5-.013Zm-31.619-.982c.06.202.078.41.038.618-.04.209-.113.244-.32.192a.518.518 0 0 0-.24.017.372.372 0 0 0-.142.085c-.38.324-.655.72-.78 1.207-.072.268.024.418.299.422.51.009.961-.16 1.305-.551.083-.096.117-.234.174-.353.041-.088.067-.194.192-.257.05.05.115.094.153.155.145.244.296.488.417.747.128.27.065.428-.226.512-.421.121-.85.215-1.28.3-.32.065-.65.103-.978.045-.055-.01-.111-.02-.164-.036-.312-.094-.465-.3-.433-.624.016-.178.052-.36.115-.529a6.434 6.434 0 0 1 1.001-1.775 1.92 1.92 0 0 1 .38-.357c.23-.163.41-.092.49.182Zm1.588-2.456c.08.044.164.083.233.14.632.524 1.26 1.05 1.896 1.579-.032.058-.049.096-.074.127-.293.397-.58.8-.882 1.19-.17.22-.362.422-.55.627-.068.069-.151.119-.252.196-.103-.11-.19-.19-.262-.282a10.568 10.568 0 0 1-1.265-2.105c-.031-.069-.054-.142-.08-.215a.678.678 0 0 1 .153-.735c.153-.16.31-.32.48-.464a.496.496 0 0 1 .603-.058Zm27.274-.255c.088.057.178.113.255.18a8.714 8.714 0 0 1 1.576 1.775c.09.127.19.259.17.45-.147.049-.248-.022-.346-.08a4.299 4.299 0 0 1-.903-.771c-.189-.205-.375-.412-.568-.612-.069-.071-.155-.127-.232-.192l-.044.027c.008.08.01.159.03.236.05.203.11.403.158.606.023.094.036.192.038.288.004.204-.067.26-.272.223-.067-.012-.134-.037-.201-.058-.093-.03-.185-.065-.279-.088-.094-.023-.212-.067-.27.027-.04.063-.023.171-.004.255.023.1.067.196.11.29.08.17.17.334.25.506.059.125.117.252.161.384.023.067.017.144.023.209-.125.05-.203-.01-.27-.067-.138-.115-.283-.23-.4-.366a15.052 15.052 0 0 1-.624-.783c-.195-.257-.2-.528-.02-.793.365-.537.749-1.057 1.228-1.5.05-.048.107-.087.162-.131a.214.214 0 0 1 .272-.015ZM9.938 11.232c.008.042.016.111.037.176.122.395.29.766.526 1.105.063.09.145.17.23.238.151.117.32.119.461-.005.405-.352.424-.563.174-.952a1.082 1.082 0 0 0-.13-.163 2.9 2.9 0 0 0-.92-.603.533.533 0 0 0-.14-.036c-.16-.016-.236.052-.238.24Zm13.844.673a.48.48 0 0 0-.145.017c-.18.046-.238.196-.134.35.082.124.21.195.35.203.185.01.373-.008.557-.025.063-.006.122-.05.204-.086-.178-.223-.606-.453-.832-.46ZM34.37 7.1c.74.449 1.462.92 2.084 1.53a2.9 2.9 0 0 1 .21.234.79.79 0 0 1 .092.138c.06.113.06.247 0 .292-.092.07-.174.009-.252-.035-.09-.052-.171-.117-.26-.175-.081-.055-.158-.113-.244-.16a.304.304 0 0 0-.384.057 1.118 1.118 0 0 0-.207.26c-.176.338-.346.68-.505 1.027a.86.86 0 0 0-.08.465c.017.167-.077.25-.245.218a1.285 1.285 0 0 1-.84-.575c-.098-.15-.075-.317.034-.449.14-.171.302-.326.457-.484.125-.13.266-.247.383-.382a.843.843 0 0 0 .214-.616c-.021-.322-.16-.602-.325-.87-.01-.014-.034-.02-.086-.047-.05.1-.098.181-.136.27-.06.14-.111.285-.174.423a1.08 1.08 0 0 1-.142.23c-.118.138-.225.131-.313-.027a.984.984 0 0 1-.109-.311c-.04-.251-.01-.5.076-.74.109-.305.402-.486.752-.273Zm-20.198.463c.312.03.622.086.926.153.44.096.846.273 1.213.543.226.167.463.325.742.52-.664.388-1.282.751-1.902 1.11-.072.042-.151.072-.229.103-.243.098-.454.052-.62-.15a6.965 6.965 0 0 1-.412-.55c-.118-.18-.264-.363-.304-.566-.065-.323-.277-.384-.536-.417-.063-.009-.126-.006-.189-.01-.168-.015-.29-.09-.308-.205-.025-.146.065-.243.176-.305.113-.065.237-.12.362-.155a2.946 2.946 0 0 1 1.081-.07Zm17.2-1.87c.61.175 1.167.457 1.674.837.067.046.113.123.174.19-.04.03-.055.052-.073.054-.241.017-.365.18-.42.38-.06.226-.092.462-.12.695-.04.297-.057.596-.101.89a1.17 1.17 0 0 1-.13.349.504.504 0 0 1-.17.175c-.126.075-.25.031-.31-.102a.458.458 0 0 1-.04-.182c-.006-.359-.197-.601-.5-.762-.386-.203-.788-.213-1.197-.073-.098.033-.196.073-.3.09-.202.035-.313-.078-.26-.278a.92.92 0 0 1 .156-.336 7.79 7.79 0 0 1 .555-.623c.183-.183.36-.37.482-.599.075-.144.13-.286.055-.455-.057-.128.01-.238.155-.261a.886.886 0 0 1 .37.01Zm-17.187 2.26c-.166 0-.21.05-.163.172.13.34.286.666.56.915a.88.88 0 0 0 .284.171.545.545 0 0 0 .303.027.889.889 0 0 0 .608-.501c.109-.232.012-.411-.245-.43-.375-.027-.723-.144-1.069-.274-.1-.035-.209-.058-.278-.08Zm5.14-3c.065 0 .14.023.197.058a.21.21 0 0 1 .036.34.858.858 0 0 1-.28.176 7.308 7.308 0 0 1-.721.215 3.111 3.111 0 0 0-.876.334 1.131 1.131 0 0 0-.26.207c-.15.167-.077.366.147.393.113.014.235-.01.35-.03.081-.014.159-.054.239-.073.075-.018.148-.023.236-.037-.025.152-.12.232-.186.326-.08.114-.172.221-.233.344-.14.29-.014.529.302.593.312.065.607-.01.9-.112.122-.044.24-.115.405-.084l-.054.105a.19.19 0 0 1-.03.041c-.11.105-.22.215-.345.3-.3.21-.635.348-.991.435-.32.08-.601.01-.803-.26a3.437 3.437 0 0 1-.364-.583 58.647 58.647 0 0 1-.727-1.617c-.088-.202-.082-.225.122-.32.22-.102.444-.208.676-.273a41.06 41.06 0 0 1 1.74-.447c.168-.04.347-.029.52-.031Zm12.395 1.84c-.25.006-.484.056-.683.217-.211.171-.205.395.015.555.18.132.387.19.607.182a.53.53 0 0 0 .457-.248c.098-.157.165-.335.077-.512-.083-.17-.266-.18-.435-.194-.009-.002-.023 0-.038 0Zm-3.544-1.955a.277.277 0 0 1-.057.211 4.64 4.64 0 0 1-.417.436c-.127.12-.276.213-.4.335-.178.17-.316.37-.377.614-.084.33.067.603.396.693.438.119.926.054 1.171-.526.09-.218.138-.451.214-.675.08-.236.161-.474.264-.7a.886.886 0 0 1 .226-.267c.096-.085.216-.092.333-.033.109.056.126.165.12.27a1.89 1.89 0 0 1-.053.33 8.336 8.336 0 0 1-.511 1.455 2.497 2.497 0 0 1-.117.221c-.174.315-.447.466-.811.447-.499-.04-1-.09-1.485-.23a1.622 1.622 0 0 1-.348-.142c-.226-.127-.306-.313-.237-.564.032-.119.078-.24.139-.348a8.9 8.9 0 0 1 1.095-1.55c.078-.088.172-.165.272-.223.191-.111.532.033.583.246Zm-2.556-.585c.115.021.233.053.344.092.056.019.104.07.161.109-.092.15-.226.148-.346.163-.398.048-.794.016-1.19-.021-.488-.046-.974-.082-1.462-.017a1.476 1.476 0 0 0-.285.063c-.146.048-.178.108-.131.252.029.092.07.184.125.264.308.453.71.801 1.192 1.056.055.03.115.055.174.07.109.028.224.051.306-.06.084-.114.052-.231-.027-.327a2.066 2.066 0 0 0-.29-.267c-.08-.065-.175-.113-.22-.249.08-.03.153-.077.229-.08.377-.01.752-.018 1.129-.006.21.007.268.109.172.293-.279.524-.591 1.027-1.023 1.443-.173.169-.25.173-.46.037a3.274 3.274 0 0 1-.35-.265 9.073 9.073 0 0 1-1.443-1.618 2.903 2.903 0 0 1-.262-.474c-.07-.155-.032-.25.117-.33.109-.057.23-.1.352-.128.423-.096.857-.115 1.29-.12.637-.013 1.27.005 1.898.12Z"/>
</svg>
