<svg>
  <path d="M40.125 1.5v34.375h-5.1V17.75h-2.55v18.125H28.65V17.75H26.1v18.125h-3.825V17.75h-2.55v18.125H15.9V17.75h-2.55v18.125h-5.1V1.5h31.875Zm-3.188 13.125h-25.5v2.5h25.5v-2.5ZM19.907 46.5H18.62v-3.344h-3.345V46.5h-1.287V39h1.287v3.086h3.345V39h1.288v7.5Zm3.038-7.5 3.095 5.807V39h1.23v7.5h-1.606l-3.096-5.806V46.5h-1.23V39h1.607Zm8.824 0c1.304 0 2.274.71 2.274 1.866 0 .633-.297 1.231-.95 1.576l-.027.013c.863.324 1.322.952 1.322 1.84 0 1.28-.896 2.205-2.476 2.205h-3.211V39h3.068Zm-.106 4.054h-1.685v2.365h1.786c.843 0 1.336-.457 1.336-1.182 0-.764-.568-1.183-1.437-1.183Zm.053-2.99h-1.738v1.925h1.675c.636 0 1.102-.398 1.102-.994 0-.549-.382-.93-1.039-.93Z"/>
</svg>
