---
version: "3.1.0"
---
<svg>
  <path d="M1.703 34.886c1.342-.862 3.006-2.565 3.306-3.347.312-.798.245-1.559-.181-2.116l-.04-.048c-.46-.622-2.023-1.143-3.326-1.143H.6v-7.616h1.203c2.164 0 3.206-.741 3.367-2.385.16-1.803-.982-3.407-3.467-4.85L.7 12.8h4.857c2.426.009 4.71.105 5.325.22 1.723.361 3.327 1.343 4.048 2.486l.06.097c.486.805.541 1.084.541 2.588l-.001.35c-.012 1.277-.108 1.565-.68 2.636-.624 1.15-1.247 1.845-2.331 2.62l-.2.141c-.376.27-.364.303.006.506.781.461 2.244 2.125 2.705 3.087.3.641.501 1.463.561 2.425.16 2.545-.881 4.048-3.587 5.15l-.173.065c-.89.321-1.636.361-6.12.437l-5.211.08zm16.334.12c1.683-.982 3.347-2.705 3.507-3.627.257-1.386-.913-2.361-3.298-2.771l-1.412-.236v-2.837c.005-1.419.063-3.024.12-3.676l.14-1.203 2.242-.088c2.284-.101 3.443-.598 4.37-1.875l.09-.129c.535-.763.555-.958.614-3.179L24.49 13h8.578v2.265c0 4.067-.471 5.62-2.192 7.226l-.053.05c-.862.801-2.846 1.883-3.447 1.883-.581 0-.32.3.661.762 2.385 1.102 3.848 3.206 3.868 5.511 0 2.045-.62 3.067-2.545 4.009l-.139.067c-1.494.705-2.994.875-7.757.875h-4.53zm21.444.642v-7.215h-5.21v-7.817h5.21V13H48.5v22.648z"/>
</svg>
