---
version: "3.1.11"
---
<svg>
  <path d="M21.86.041c-4.2.465-7.954 1.82-11.515 4.2C8.313 5.596 4.887 9.137 3.61 11.19.9 15.563-.357 20.788.088 25.723l.018.188c.317 3.1 1.404 7.278 1.86 7.07 3.953-1.75 8.69-3.088 13.717-3.886l.274-.044c3.116-.503 10.838-.6 14.205-.212 5.187.6 10.393 1.877 14.418 3.522l.395.161c.708.287 1.253.49 1.27.458.174-.193 1.083-3.425 1.335-4.722 1.161-6.174-.097-12.366-3.62-17.727C40.614 5.42 35.059 1.745 28.692.429c-1.47-.31-5.476-.523-6.831-.388m-18.308 36.5c1.742 2.768 4.78 5.825 7.45 7.49 9.542 5.941 21.637 4.76 29.65-2.923l.091-.089c1.505-1.472 4.05-4.582 4.05-4.942 0-.094-8.813-.152-19.798-.155H3.145z"/>
</svg>
