<svg>
  <path d="m23.276 1.854-.294.404.094.21c.242.539.39 1.143.35 1.428-.08.576-.8 1.242-1.626 1.506-.345.11-.365.095-.5-.355l-.085-.283.271-.288c.78-.832.935-1.567.536-2.555l-.109-.27-.262.334-.262.334.112.326c.173.502.181.827.028 1.109-.107.198-.431.564-.464.523a14.697 14.697 0 0 1-.211-.569c-.391-1.09-.685-1.734-.809-1.775-.038-.012-.468.66-.468.732 0 .021.15.34.334.707.323.644.522 1.087.944 2.103.263.633.329.704.641.698.673-.014 1.207-.347 1.793-1.12.718-.947.866-1.957.466-3.174-.165-.502-.133-.5-.479-.025m2.488.05c-.173.17-.306.316-.297.323l.373.273c.993.724 1 .821.129 1.981-.426.567-.106.436.584-.239.952-.932.958-1.233.037-2.184-.517-.534-.453-.522-.826-.154m5.87.773c-.02.007-.131.038-.246.07-.223.06-.885.457-.834.5.016.014.57.262 1.23.553 2.052.903 1.911.766 1.597 1.555-.31.777-.878 1.066-1.767.898l-.346-.066-.398.395-.398.395.656-.02c1.626-.046 2.805-.815 3.17-2.066.191-.654.027-.808-1.576-1.482-.624-.262-.974-.428-.971-.46.002-.029.016-.105.03-.171.028-.12-.012-.147-.147-.101m-15.039.492c-.227.08-.461.164-.52.187-.06.022-.112.037-.116.031a12.395 12.395 0 0 1-.095-.153c-.083-.136-.09-.14-.14-.074-.18.236-.456 1.012-.415 1.172.007.031.295-.056.911-.278 1.478-.532 1.416-.578 2.203 1.636.229.645.429 1.159.444 1.143.04-.041.335-.776.335-.835 0-.074-.766-2.158-.86-2.338-.323-.622-.905-.786-1.747-.491m14.142 1.167c-.205.15-.386.287-.402.302-.046.046-1.202 3.405-1.18 3.428.012.011.185-.102.385-.252l.362-.273.575-1.548c.316-.851.608-1.635.649-1.741.099-.256.064-.249-.39.084m-17.74.248a9.25 9.25 0 0 0-.094.844c0 .062.055.122.19.212.368.245.51.486.577.97.03.213.124.212-.894.01-.78-.156-1.94-.314-2.302-.314h-.16v.286c0 .157-.01.32-.022.363-.02.076-.006.08.441.103.255.013.553.034.663.046l.2.022-.026.3c-.06.718.066 1.175.511 1.85.208.315.238.383.252.575.02.264-.01.27.553-.124.298-.21.424-.32.412-.36a8.545 8.545 0 0 1-.079-.398c-.07-.387-.072-.388-.307-.211-.214.16-.2.166-.51-.188-.378-.428-.475-.673-.475-1.203 0-.203.004-.214.084-.196l.76.166c.781.171 1.396.333 2.278.598.346.104.636.181.646.172.016-.016-.09-.776-.11-.798a51.8 51.8 0 0 0-1.54-.413c-.01 0-.018-.203-.018-.452 0-.799-.116-1.182-.475-1.574-.23-.25-.518-.4-.555-.286m23.387.765a3.74 3.74 0 0 0-.408.125c-.01.01.093.273.23.583.251.567.286.715.2.866a78.102 78.102 0 0 1-1.111 1.601c-.012.014-.206-.105-.432-.266l-.41-.291-.284.153c-.367.197-.415.226-.415.251 0 .012.277.207.616.434l.616.412.431-.193.432-.194.591-.792c.734-.982.8-1.096.8-1.363 0-.212-.364-1.407-.433-1.423a3.203 3.203 0 0 0-.423.097m3.164 2.087c-.061.008-.323.04-.58.07a4.727 4.727 0 0 0-.483.073c-.01.008.33.362.751.785.78.781.93.976.859 1.107-.021.038-.423.438-.893.888l-.854.817-.705-.705-.706-.705-.42.06c-.23.034-.426.068-.435.077-.01.009.185.219.432.467.247.247.74.746 1.096 1.108l.647.657.435-.04c.52-.046.513-.041.333-.222-.222-.224-.215-.235.803-1.222 1.334-1.295 1.351-1.379.473-2.28a32.94 32.94 0 0 1-.499-.519l-.083-.093.093-.135c.148-.215.121-.234-.264-.188m-30.806.662c-.186.092-1.232 1.08-1.416 1.339-.054.076-.066.067-.487-.33-.493-.465-.836-.673-.838-.507-.004.32.134.773.25.82.182.075.44.253.807.559.449.373.387.395 1.149-.407.865-.91.908-.922 1.443-.407.641.618.713 1.385.198 2.097l-.128.177.25.492c.137.27.26.492.272.492.105 0 .418-1.362.422-1.842.013-1.375-1.142-2.867-1.922-2.483m12.448.272v.184h6.151v-.368h-6.151v.184Zm-3.987 1.167c-.014.013-.026.104-.026.203v.178h14.252v-.406h-7.1c-3.906 0-7.113.011-7.126.025m-2.35 1.523v.184h18.863v-.368H14.85v.184Zm-10.16 1.225-.521 1.096c-.208.436-.404.883-.437.993-.36 1.209.86 2.041 1.767 1.206l.18-.165-.014.206c-.051.806.882 1.251 1.58.755.36-.256 1.586-2.463 1.417-2.551-.099-.052-.1-.052-.15.068-.18.429-.244.415-2.008-.438-1.769-.854-1.72-.816-1.575-1.216.042-.118.046-.17.014-.208-.074-.088-.106-.056-.253.254m29.21-.101c-.08.045-1.534.053-10.379.054l-10.285.001v.369h9.254l9.254.001-.357.342c-.403.387-.588.49-.981.549-.194.029-2.96.045-9.398.054l-9.123.012v.405h17.715l-.09.096a.776.776 0 0 1-.587.236c-.123 0-.396.048-.629.11-.314.083-.456.104-.6.088a.638.638 0 0 0-.334.037.64.64 0 0 1-.337.037c-.159-.019-.237-.005-.432.076-.19.079-.259.092-.337.063-.412-.152-1.54-.14-1.751.017-.281.21.132.198-6.997.198H10.95v.369h6.096c3.84 0 6.089.013 6.075.035-.06.096-.525.4-.807.528-.175.08-.37.18-.431.223-.238.167-.223.167-6.16.17l-5.636.002v.405h10.727l-.102.157c-.056.086-.2.259-.319.383-.149.156-.217.257-.217.323v.095H9.45v.369h10.424l-.037.094c-.02.052-.036.18-.036.286 0 .105-.029.286-.065.402l-.067.212H8.926v.369h10.693l-.024.304a2.43 2.43 0 0 1-.085.48l-.06.174H8.662v.406h5.344c5.065 0 5.345.003 5.344.064 0 .035-.027.156-.06.267-.064.218-.081.32-.086.507l-.003.12H8.363v.368h10.718l-.03.134c-.072.314-.54.714-.835.714-.108 0-.255.02-.327.046-.101.035-1.228.05-4.913.064l-4.782.019-.011.193-.011.194 4.437.001c3.982.001 4.425.007 4.332.057-.058.03-.261.069-.452.085-.348.029-.743.2-.794.345a32.92 32.92 0 0 1-.095.258l-.079.212H8.172l.011.193.011.194 3.573.009 3.572.01v.164c0 .121.042.245.165.478l.164.315H8.363v.369h7.535l.132.232c.129.226.21.42.26.624l.025.102H8.626v.405l3.909.01 3.909.008.023.13c.012.07.048.187.08.259.03.071.056.224.056.34v.211h-7.64v.369h7.638l.05.092c.043.078.041.141-.013.418-.035.179-.053.353-.04.386.022.057-.235.062-3.562.062H9.451v.405h7.559l.247.249c.136.137.328.348.427.47l.18.22-3.888.01-3.888.01v.405h8.062l.101.193c.083.159.102.245.104.479l.003.286h-7.482v.368h7.91l.072.16c.093.206.224.295.611.414.442.135.485.154.631.276l.13.108h-8.229v.406h9.193l.1.116c.056.065.131.164.167.222.036.057.09.104.122.104.03 0 .056.015.056.033 0 .018.076.134.17.257l.168.226h-8.7v.368h9.061l.077.083c.042.046.124.155.182.242.169.256.287.29 1.31.372.482.039.759.111.865.227.065.07.013.071-4.91.071H14.89v.369h5.246c4.51 0 5.264.007 5.376.053.072.03.281.09.464.132.184.043.376.1.427.126.052.026.212.068.356.092.284.048.635.21.799.371a.98.98 0 0 0 .177.14c.055.03-1.324.042-5.243.043h-5.318l.01.194.012.194 5.447.009 5.447.01.404.401.403.402.192-.004a.818.818 0 0 1 .412.105c.31.15 1.547.15 2.75-.002.222-.028.674.09 1.278.331.88.353 1.206.422 1.631.348.124-.022.388-.051.586-.065.306-.022.383-.041.506-.125.14-.095.252-.127.734-.21.171-.029.26-.073.449-.222.362-.287.84-.432 1.27-.385.352.038 1.098-.515 1.353-1.002.121-.231.253-.316.714-.46.82-.257 1.513-1.136 1.561-1.977.024-.418.086-.504.656-.9l.376-.263-.024-.255a5.692 5.692 0 0 0-.114-.63c-.145-.604-.152-.695-.068-.859.046-.088.08-.25.092-.42.02-.331.151-.611.43-.92.1-.112.206-.251.237-.31a.974.974 0 0 1 .212-.232c.227-.183.273-.272.29-.554.028-.458.339-1.035.899-1.669.225-.254.285-.422.325-.911.054-.654.054-.652.353-1.244.424-.84.45-.92.464-1.438.03-1.14.014-1.306-.148-1.534a.444.444 0 0 1 .052-.56c.193-.185.18-.55-.035-.99a1.863 1.863 0 0 1-.182-.533 1.958 1.958 0 0 0-.132-.455c-.26-.589-.347-1.79-.186-2.542.025-.117.047-.617.052-1.18l.009-.976-.301-.287a5.404 5.404 0 0 0-.659-.52c-.454-.293-.576-.43-.675-.756a1.906 1.906 0 0 0-.536-.798l-.12-.099-.588.026c-.635.028-.697.016-.94-.184-.2-.163-.98-.222-1.406-.105-.064.017-.127-.019-.281-.161l-.2-.184-.318-.019c-.256-.016-.393-.049-.694-.168-.545-.215-.599-.22-.884-.078-.319.158-.63.14-1.267-.071-.398-.132-.483-.147-.961-.168-.63-.027-.72-.044-.744-.135-.017-.063-.057-.07-.444-.07-.255 0-.508-.023-.631-.055-.247-.065-.222-.065-.338 0m-.881.49c-.142.078-.76.076-1.07-.004-.201-.053-.192-.054.488-.057.672-.002.69 0 .582.06M5.406 13.698c.4.195.731.36.738.366.037.034-.33.641-.493.815-.347.374-.63.435-1.043.225-.488-.249-.596-.653-.336-1.255.26-.6.222-.595 1.134-.15m2.446 1.195c.018.016-.036.168-.12.338-.343.699-.82.886-1.375.54-.374-.232-.407-.588-.112-1.205l.175-.366.7.332c.385.183.714.345.732.361m24.698 1.401c.277.123.284.129.295.24.007.06.036.182.065.273.105.328.04.825-.112.863-.158.039-.195.154-.228.722-.092 1.575-.034 1.91.53 3.08.144.299.407.526.717.62.224.069.317-.42.307-1.606-.008-.99.027-2.467.063-2.594.015-.055-.046-.164-.225-.4-.34-.448-.377-.611-.206-.89.232-.376 1.305-.517 1.872-.247.578.276.626.535.21 1.133l-.101.146-.003 1.015c-.002.558 0 1.114.003 1.235.003.122.01.625.014 1.118l.009.897.147.05c.426.144 1.018-.527 1.285-1.457.117-.406.16-1.972.066-2.413a2.759 2.759 0 0 1-.055-.327c0-.037-.081-.156-.181-.263-.256-.276-.365-.647-.252-.862.088-.167.226-.23.58-.264.177-.017.403-.048.5-.069.375-.078.847.085 1.02.353l.107.166-.064.228c-.07.25-.196.484-.318.592-.097.087-.098.149-.005.786.178 1.23.041 2.783-.297 3.382-.706 1.247-1.019 1.538-1.858 1.73a6.342 6.342 0 0 0-.565.15l-.151.055-.008.655c-.007.614-.002.666.077.82l.084.164.238.011c.78.036 2.062-.672 2.72-1.504.162-.203.811-1.407.811-1.503 0-.038.05-.213.113-.388a2.29 2.29 0 0 0 .112-.395.36.36 0 0 1 .04-.148c.05-.095.115-.524.11-.745a2.971 2.971 0 0 1 .054-.48c.2-1.049.028-2.276-.371-2.645-.241-.224-.13-.618.273-.969.466-.405 1.853-.176 2.23.368.259.372.193.561-.339.979-.125.099-.212.79-.25 2.002a6.196 6.196 0 0 1-.092.79c-.044.231-.08.536-.08.677 0 .298-.152 1.078-.279 1.425l-.328.904c-.28.771-.25.71-.661 1.325-.752 1.125-1.827 1.685-3.57 1.859-.803.08-.853.14-.86 1.03-.002.387-.003.385.17.625.128.18.983.078 1.665-.197l.826-.332c.237-.096.465-.203.506-.239.041-.035.248-.178.46-.317.709-.467.932-.621 1.11-.766.221-.18.614-.64.773-.905.066-.11.192-.293.28-.405.228-.291.334-.528.305-.68-.025-.132.088-.403.265-.637a.595.595 0 0 0 .088-.142c0-.013.092-.184.205-.38.236-.41.3-.633.247-.862-.022-.099-.022-.17 0-.192.02-.019.036-.079.036-.133 0-.055.043-.19.095-.303a1.84 1.84 0 0 0 .164-1.068c-.065-.518.052-1.174.26-1.464.074-.103.231-.824.231-1.063 0-.16-.2-.615-.336-.76a.517.517 0 0 1-.094-.222c-.113-.65.258-.97 1.124-.975.668-.003.929.093 1.208.444.213.267.214.262-.247 1.07a1.25 1.25 0 0 0-.154.48 9.35 9.35 0 0 1-.075.473 3.04 3.04 0 0 0-.037.498 1.85 1.85 0 0 1-.037.424c-.069.219-.15.772-.176 1.197a2.956 2.956 0 0 1-.076.55 6.87 6.87 0 0 0-.144.706c-.05.309-.125.65-.165.758a6.29 6.29 0 0 0-.17.685c-.129.636-.37 1.379-.49 1.507-.052.054-.094.129-.094.166a.753.753 0 0 1-.107.243c-.06.097-.203.346-.32.553-.224.395-.86 1.15-1.207 1.435-.206.168-.588.515-.986.896-.301.288-.616.49-1.092.696-.705.307-.893.398-1.054.51a1.98 1.98 0 0 1-1.066.382 15.33 15.33 0 0 0-.77.09c-.205.03-.43.054-.502.054-.174 0-.19.06-.181.664.01.616.16 1.518.295 1.775.123.235.513.786.689.976.102.11.233.264.29.342.254.348 1.299.937 1.905 1.075.185.042.447.107.581.144.134.037.345.087.469.11.48.094.68.414.563.897-.103.425-.26.468-1.356.372a7.632 7.632 0 0 0-.895-.037c-.253.023-.757-.043-1.19-.158-.44-.116-1.03-.169-1.324-.119-.519.089-2.025.15-2.298.093-.328-.068-1.01-.067-1.72.003-.553.054-.583.054-.957-.022-.514-.103-1.189-.128-1.984-.075-.979.066-1.423-.017-1.391-.259.089-.664.195-.743 1.245-.934.175-.032.437-.113.58-.18.426-.2.668-.282.828-.282.503 0 1.211-.324 2.058-.944.586-.428.778-.673.903-1.146.031-.117.089-.28.13-.36.149-.302.2-.544.21-.995.006-.29.03-.503.07-.617.109-.311-.18-.58-.62-.58a1.23 1.23 0 0 1-.342-.038 5.82 5.82 0 0 0-.62-.126c-.367-.06-.62-.126-.806-.206-.613-.265-1.032-.483-1.137-.592a1.508 1.508 0 0 0-.373-.235c-.285-.13-.857-.542-1.069-.77-.504-.543-.835-.857-1.016-.965-.216-.129-.306-.238-.521-.625-.134-.24-.418-.652-.756-1.09-.16-.209-.23-.342-.277-.517a25.91 25.91 0 0 0-.301-.963 11.8 11.8 0 0 1-.302-1.05 3.61 3.61 0 0 0-.128-.489 1.861 1.861 0 0 1-.086-.43 1.283 1.283 0 0 0-.08-.376.538.538 0 0 1-.06-.196c0-.046-.042-.3-.093-.564-.165-.853-.203-1.098-.239-1.529a4.095 4.095 0 0 0-.131-.75 2.428 2.428 0 0 1-.098-.436c0-.145-.051-.234-.262-.455-.27-.283-.298-.41-.155-.694.273-.545.374-.618.97-.69 1.132-.14 1.921.415 1.476 1.038-.348.487-.298 1.738.146 3.664.085.365.172.746.194.847.023.102.097.294.166.429.068.134.211.524.318.866.207.665.36 1.001.574 1.266.465.578.648.822.782 1.05.083.142.196.328.25.414l.243.39c.106.17.192.26.319.33.095.053.393.254.661.447s.58.397.69.452c.113.056.243.137.29.18.048.043.211.114.363.158.152.043.317.11.367.147.477.361 1.037.597 1.418.596.425-.001.43-.008.458-.59.048-1.017-.153-1.261-1.085-1.321-.612-.04-.77-.11-1.576-.7a24.61 24.61 0 0 0-.737-.526c-.274-.174-.975-.883-1.07-1.082a6.44 6.44 0 0 0-.299-.516c-.331-.521-.601-1.007-.62-1.116-.01-.055-.034-.333-.053-.617a5.053 5.053 0 0 0-.192-1.106c-.218-.826-.285-1.626-.213-2.55.031-.394 0-.493-.173-.555a1.132 1.132 0 0 1-.263-.16l-.144-.117.014-.26c.015-.288.101-.502.295-.732l.117-.138.419-.004c.23-.002.511-.023.624-.046.704-.146 1.337.864.855 1.364-.122.127-.145.211-.243.897-.07.49-.07.55-.016.92.022.153.064.543.094.867.04.44.08.669.158.903.058.172.11.386.115.476.01.151.055.27.243.637.039.074.07.155.07.179 0 .024.076.166.169.317.093.15.169.287.169.306 0 .018.025.057.056.088a.61.61 0 0 1 .103.194c.053.154.509.544.907.775.123.071.35.245.503.386.54.495 1.242.748 1.601.576l.172-.082-.026-.322c-.016-.2-.008-.432.02-.612.083-.523-.175-.801-.872-.942-.242-.049-.31-.079-.39-.172a2.231 2.231 0 0 0-.382-.293c-.387-.243-.485-.353-.554-.613a2.381 2.381 0 0 0-.165-.42 1.424 1.424 0 0 1-.13-.35 36.24 36.24 0 0 0-.151-.773c-.216-1.062-.263-1.769-.152-2.285.092-.429.025-.755-.206-.995-.342-.355-.347-.647-.02-1.004.126-.137.22-.18.53-.243.247-.05.79-.02.953.052m-29.872.246c-.013.056-.08.329-.15.606-.15.593-.148.57-.056.593.056.014.084-.016.134-.144.07-.18.17-.252.3-.22.114.028.844.54.843.59 0 .022-.081.38-.18.795l-.18.755-.335.063c-.715.133-.905.083-.867-.231.02-.168-.098-.308-.143-.169-.14.429-.364 1.545-.318 1.574.09.056.128.04.187-.085.106-.227.241-.263 2.494-.667 2.433-.437 2.288-.37 1.714-.782-3.045-2.18-3.27-2.362-3.27-2.644a.135.135 0 0 0-.135-.135c-.008 0-.025.046-.038.101M5.2 18.918c.177.125.308.231.29.237-.127.036-1.713.31-1.726.297-.008-.009.056-.314.144-.679l.16-.663.404.29c.222.16.55.393.728.518m-3.626 3.4c0 .73.002.755.075.755.056 0 .075-.025.075-.096 0-.15.112-.344.24-.412.125-.068 3.053-.122 3.01-.056-.01.016-.796.635-1.745 1.375-1.327 1.033-1.727 1.363-1.728 1.426l-.002.081 1.903.011c1.755.01 1.914.016 2.041.078a.48.48 0 0 1 .256.408c0 .072.02.096.075.096.073 0 .075-.024.075-.737 0-.712-.002-.737-.075-.737-.055 0-.075.025-.075.093 0 .162-.1.341-.231.411-.133.071-2.689.129-2.644.06.01-.016.695-.552 1.52-1.19l1.502-1.161.002-.58c.001-.557-.002-.58-.074-.58-.06 0-.075.024-.075.123 0 .12-.136.348-.272.459-.105.085-3.307.047-3.472-.042-.135-.073-.231-.25-.231-.43 0-.086-.017-.11-.075-.11-.073 0-.075.024-.075.754m4.272 4.137c-.002.015 0 .105.003.2.013.374.032.366-1.887.788-1.94.426-1.825.423-1.96.054-.066-.182-.147-.238-.189-.132-.02.05.367 1.734.407 1.773.075.074.134-.04.115-.22-.038-.364.002-.389.955-.596.872-.19.867-.195.474.449-.698 1.143-1.093 1.506-1.207 1.109-.048-.167-.124-.206-.227-.115-.046.039.457 1.898.507 1.879a.354.354 0 0 1 .071-.02c.01 0 .016-.072.016-.159 0-.26.877-1.676 1.652-2.669l.063-.082.821.512c.908.565 1.07.698 1.204.985.092.198.313.31.258.132-.01-.036-.107-.409-.213-.83-.171-.675-.203-.764-.269-.764-.068 0-.072.016-.048.204.042.33-.06.385-.403.215-.198-.097-1.641-1.055-1.622-1.075.024-.025 1.418-.34 1.505-.34.125 0 .261.141.319.33.042.14.213.221.198.094-.045-.376-.415-1.75-.472-1.75-.037 0-.07.013-.07.028m.58 6.03c-1.812.433-2.474 2.41-1.219 3.635 1.75 1.706 4.664-.378 3.559-2.544a2.074 2.074 0 0 0-2.34-1.09m1.536.645c.825.393.89 1.37.14 2.106-1.319 1.295-3.174 1.151-3.17-.246.003-1.106 2.016-2.342 3.03-1.86m1.91 2.329c-.031.03-.013.08.067.19.215.29.215.289-1.102 1.509-1.551 1.436-1.466 1.383-1.8 1.11-.123-.1-.17-.108-.2-.033-.035.09 1.189 1.381 1.271 1.34.089-.044.083-.092-.028-.221-.238-.278-.178-.391.566-1.067l.558-.506.32.334c.627.66.686.842.382 1.182-.1.113.033.215.15.116.663-.556 1.043-.953.975-1.02-.068-.067-.074-.066-.25.026-.207.108-.282.115-.428.041-.12-.06-.913-.862-.897-.905.024-.062 1.117-.995 1.165-.995.049 0 .758.753.976 1.035.177.23.168.397-.036.706-.065.099-.065.103.017.183l.084.082.32-.312c.175-.172.314-.333.309-.358-.015-.068-2.288-2.478-2.336-2.478a.145.145 0 0 0-.083.04m3.811 3.483c-.041.05-.038.064.024.098.486.263.49.25-.62 1.998-1.012 1.592-.998 1.578-1.392 1.38-.147-.074-.259-.056-.259.041 0 .03 1.55.963 1.635.985.137.036.12-.098-.024-.192-.37-.24-.367-.25.576-1.735 1.176-1.852 1.09-1.76 1.47-1.589.224.1.407.051.27-.072a65.755 65.755 0 0 0-1.607-.96c-.013-.007-.046.014-.073.046m7.692.456v.185h5.814v-.369h-5.813v.184Zm10.463 1.401c-.608.316-.771.416-.781.48-.011.073 0 .08.094.058.509-.117.437-.2 1.332 1.533.914 1.77.881 1.668.593 1.863-.153.105-.171.14-.116.225.03.046 2.856-1.34 3.086-1.514.056-.042-.104-1.09-.177-1.166-.081-.084-.16.057-.182.331-.053.616-.259.847-1.148 1.286-.38.187-.493.222-.573.179-.08-.045-1.551-2.89-1.585-3.066-.026-.135-.019-.15.165-.32.132-.12.186-.196.17-.236-.035-.088-.05-.082-.878.347m-15.718-.283c-.9.33-.953 1.075-.162 2.241.534.787.593.987.4 1.36-.424.825-1.529.248-1.663-.868-.038-.321-.106-.512-.161-.457-.091.089-.391 1.338-.332 1.38.056.041.078.037.143-.023.115-.105.189-.088.384.09.89.814 1.919.801 2.364-.03.253-.472.133-.913-.5-1.828-.555-.803-.634-1.092-.372-1.367.533-.556 1.378.063 1.383 1.012.002.302.068.47.153.387.012-.012.468-1.316.468-1.34 0-.05-.181-.035-.255.022-.13.101-.139.098-.413-.154-.434-.399-1.03-.575-1.437-.425m12.599 1.237c-1.74.415-1.7.403-1.665.511.02.061.05.069.204.054.378-.035.394-.001.847 1.812.446 1.785.446 1.79.051 1.95-.144.059-.176.218-.037.187.104-.023 3.09-.752 3.241-.792l.14-.036v-.551c0-.507-.005-.552-.067-.552-.083 0-.157.07-.157.146 0 .223-.34.68-.607.815-.307.155-1.36.402-1.428.334-.036-.035-.454-1.627-.432-1.646.04-.033 1.179-.275 1.298-.275.17 0 .302.12.387.35.03.085.066.124.099.111a.307.307 0 0 1 .086-.019c.064 0-.255-1.357-.342-1.45-.09-.097-.174.016-.174.234 0 .237-.052.33-.241.426-.086.044-1.106.311-1.186.311-.05 0-.407-1.468-.365-1.504.053-.046 1.02-.297 1.278-.33.39-.053.574.031.71.326.062.138.147.167.24.083.02-.018-.186-.83-.22-.863-.012-.013-.76.153-1.66.368m-9.834-.204c-.025.094-.012.105.206.184.29.105.291.042-.041 1.839-.36 1.944-.38 1.993-.791 1.929-.142-.023-.151-.019-.14.058.011.077 1.345.386 1.709.396.147.004.108-.132-.046-.16-.387-.072-.415-.21-.238-1.155l.12-.635h.348l.553 1.116.553 1.115.493.086c.271.048.512.094.536.103.143.053.07-.139-.08-.21-.198-.094-.184-.074-.792-1.178-.34-.616-.483-.91-.452-.926.025-.013.148-.032.273-.042.655-.055 1.025-.473.983-1.11-.044-.673-.457-.953-1.8-1.221-1.433-.287-1.37-.278-1.394-.189m1.824.576c.962.353.871 1.494-.13 1.64-.189.028-.817-.043-.817-.092 0-.187.316-1.575.368-1.615.08-.062.298-.036.58.067m4.179.063c-.01.016-.343.809-.74 1.761-.942 2.263-.963 2.302-1.227 2.358-.198.04-.18.223.019.19.077-.012.38-.023.675-.023.503 0 .534-.005.534-.072 0-.056-.035-.077-.17-.096-.35-.052-.368-.165-.124-.795l.152-.391.806-.027c.443-.015.82-.013.838.004.073.074.41.87.41.97 0 .125-.064.171-.295.207-.117.019-.154.041-.154.094 0 .065.044.069.844.069h.843v-.089c0-.071-.03-.098-.156-.138-.22-.07-.199-.033-1.188-2.132-.89-1.887-.975-2.038-1.067-1.89m-.018 2.602a9.17 9.17 0 0 1-.704.017c-.007-.007.132-.388.31-.846l.325-.832.38.815.38.816-.69.03Z"/>
</svg>
