---
version: "0.0.4"
---
<svg>
  <path d="M33.164 33.762c.061 -.08 .081 -.22 .061 -.4c-.162 0 -.345 -.06 -.547 -.18c-.081 -.04 -.122 -.06 -.162 -.06c-.061 -.02 -.122 0 -.162 .06c-.102 .08 -.223 .2 -.345 .38a.887 .887 0 0 1 -.324 .34c.121 .06 .324 0 .608 -.18c.101 -.02 .243 .02 .446 .14c.02 .04 .02 .1 .02 .16c-.02 .08 -.02 .12 -.02 .16c.466 .12 .871 .3 1.175 .5l.122 -.12c.02 -.2 -.122 -.42 -.426 -.66a1.02 1.02 0 0 0 -.243 -.06a.312 .312 0 0 1 -.203 -.08zm3.142 -.52l.486 .66c.182 -.28 .223 -.68 .122 -1.2c-.102 -.12 -.183 -.18 -.264 -.14c-.06 .06 -.121 .18 -.182 .34c-.061 .16 -.122 .28 -.162 .34zm-.081 1.6a.556 .556 0 0 1 0 -.26c.04 -.1 .06 -.18 .06 -.24a1.308 1.308 0 0 0 -.527 -.62l-.283 .56c.04 .08 .182 .28 .425 .58c.183 .24 .284 .44 .304 .62c.081 -.08 .162 -.22 .264 -.42c0 -.04 -.04 -.08 -.102 -.12a.504 .504 0 0 1 -.141 -.1zm-7.722 1.758c.142 -.22 .223 -.34 .243 -.36c.02 .04 .081 .14 .182 .3c.081 .14 .163 .24 .244 .3c.101 -.14 .162 -.3 .182 -.48c.02 -.18 .02 -.36 -.04 -.52l-.183 -.2c.162 -.04 .426 -.08 .77 -.14l-.182 .54c-.081 .2 -.102 .4 -.102 .56c0 .4 .061 1 .163 1.819h-.75c-.183 -.4 -.304 -.7 -.385 -.88c-.081 -.34 -.142 -.64 -.142 -.94zm-.628 -5.998a.84 .84 0 0 1 .243 .54c0 .14 0 .36 -.04 .64c-.021 .1 .02 .14 .12 .16c.143 .02 .224 .04 .244 .08c.101 .14 .142 .3 .122 .52c0 .1 -.04 .28 -.102 .56c.061 -.1 .162 -.22 .284 -.4c.101 -.16 .182 -.3 .243 -.42c0 -.04 .02 -.08 .081 -.14c.061 -.06 .081 -.12 .061 -.18c.02 -.08 0 -.12 -.06 -.12h-.203c-.122 -.02 -.163 -.08 -.142 -.18c.08 -.14 .101 -.32 .06 -.54c-.06 -.24 -.1 -.42 -.121 -.52c-.02 -.08 -.02 -.22 -.02 -.46c0 -.2 -.02 -.34 -.061 -.42c-.02 .02 -.183 .14 -.487 .36c-.222 .16 -.304 .32 -.222 .52zm1.824 -1.8c-.061 -.06 -.183 -.26 -.365 -.599c-.142 -.26 -.304 -.4 -.527 -.44c-.142 -.06 -.243 -.22 -.264 -.46c-.223 -.2 -.547 -.3 -.993 -.3c.365 .22 .629 .46 .75 .7c.081 .26 .223 .6 .426 .98c.263 .52 .405 .84 .466 .98l.304 1.319c.02 .04 .04 .12 .06 .22c.021 .08 .082 .12 .163 .12c.101 -.66 .162 -1.18 .162 -1.52c-.081 -.1 -.162 -.18 -.284 -.26a5.825 5.825 0 0 1 -.304 -.18v-.06c.04 -.16 .142 -.24 .264 -.22c.02 -.02 .06 -.06 .142 -.12c.02 -.06 .02 -.12 0 -.16zm.587 .16l-.202 .08c0 .04 .02 .1 .08 .18c.305 .48 .528 .92 .69 1.32c.04 -.34 .06 -.6 .08 -.78c.021 -.32 -.06 -.54 -.222 -.7c-.02 -.06 -.081 -.1 -.182 -.12c-.041 0 -.122 0 -.244 .02zm-5.938 3.14l.101 .2l.284 1.039c.101 .4 .122 .76 .02 1.06c.081 .06 .163 .14 .223 .26c.04 .06 .102 .16 .183 .3h.02c.06 -.26 .101 -.54 .081 -.88c0 -.16 -.04 -.46 -.101 -.88c.02 -.22 -.061 -.44 -.264 -.66c-.243 -.2 -.425 -.36 -.547 -.44zm2.23 -2.56c-.02 .04 -.102 .16 -.264 .38c-.101 .16 -.162 .3 -.162 .42c-.02 .12 .02 .24 .162 .32c.06 .04 .162 .12 .304 .2c.04 .06 .06 .12 0 .2c-.06 .1 -.101 .16 -.101 .2c.263 .36 .405 .74 .405 1.14c.162 -.54 .284 -.94 .324 -1.22c0 -.08 -.101 -.18 -.263 -.26c-.142 -.08 -.203 -.18 -.183 -.3c.061 -.14 .061 -.3 .02 -.48c-.06 -.22 -.1 -.38 -.141 -.48c0 -.1 -.061 -.14 -.102 -.12zm1.195 -.74c-.121 -.2 -.182 -.32 -.182 -.32c-.02 -.04 -.02 -.119 -.04 -.259c0 -.12 -.021 -.2 -.062 -.26c-.141 -.1 -.243 -.14 -.304 -.12l-.1 .92l.344 .68c.06 0 .142 -.04 .202 -.1l.183 -.18c.04 -.12 .02 -.24 -.04 -.36zm-1.073 -1.337c-.06 -.3 -.223 -.54 -.486 -.74c-.061 .3 -.081 .48 -.081 .58c-.02 .26 .1 .48 .364 .66c.061 -.1 .102 -.18 .122 -.24a.48 .48 0 0 0 .081 -.26zm-2.23 -2.199c.163 .12 .386 .2 .629 .22c.243 .02 .466 0 .689 -.08a4.011 4.011 0 0 1 -.75 -.48l-.567 .34zm5.25 1.18c-.142 -.02 -.345 -.12 -.608 -.36c-.243 -.2 -.446 -.28 -.628 -.24c.162 .16 .445 .46 .83 .9c.345 .38 .629 .68 .872 .88v-.38c-.02 -.24 -.02 -.38 -.02 -.38c-.061 -.06 -.203 -.2 -.446 -.42zm3.83 5.458c-.08 -.02 -.182 0 -.304 .06a.845 .845 0 0 1 -.304 .08c-.101 .14 -.162 .24 -.223 .3c-.04 .12 -.06 .18 -.06 .2c0 .08 .04 .14 .121 .16c.142 0 .385 0 .71 -.06c.283 -.02 .486 .04 .628 .18c.04 .04 .08 .1 .08 .18c0 .04 0 .12 -.02 .2l.568 .479c.04 -.18 .081 -.32 .101 -.42c.04 -.16 .061 -.3 .061 -.42a.864 .864 0 0 0 -.344 -.56c-.122 0 -.284 -.08 -.487 -.22c-.223 -.12 -.385 -.18 -.527 -.16zm-.405 -1.26c-.02 .1 -.02 .26 -.02 .48c-.04 .06 -.061 .1 -.081 .12c-.04 .04 -.061 .08 -.061 .12c.08 -.02 .202 -.1 .365 -.22c.141 -.1 .263 -.16 .364 -.16c.467 0 .811 .18 1.075 .56c.04 .02 .1 .1 .162 .22c.04 .1 .121 .16 .202 .16a1.73 1.73 0 0 1 0 -.46c.02 -.24 .02 -.4 .02 -.5c-.08 -.14 -.303 -.24 -.628 -.3c-.324 -.04 -.527 -.16 -.608 -.36l-.506 .02c-.162 .04 -.244 .14 -.284 .32zm1.52 -1.04c.06 .02 .122 .06 .122 .12c.02 .06 0 .12 -.02 .18c.161 .1 .405 .22 .75 .4l-.062 -.4c0 -.14 -.101 -.3 -.304 -.46c-.202 -.16 -.304 -.3 -.304 -.46a2.716 2.716 0 0 0 -1.439 -.08a.46 .46 0 0 1 -.263 .12c-.142 .02 -.243 .02 -.304 .04c0 0 0 .06 .02 .12c.081 .16 .122 .28 .162 .32c.061 .12 .142 .18 .203 .18c.223 -.1 .466 -.16 .69 -.18c.303 -.02 .546 .02 .749 .1zm.588 -2.179a.577 .577 0 0 1 -.406 .18c-.364 -.12 -.648 -.18 -.83 -.22c-.345 -.06 -.629 -.02 -.852 .1a.53 .53 0 0 1 -.365 .18c-.243 .04 -.385 .06 -.405 .08c.02 .24 .04 .46 .101 .66c.061 .06 .142 .1 .264 .12c.06 .02 .182 .02 .304 .04l.588 -.24c0 -.02 -.02 -.06 -.081 -.12a.214 .214 0 0 1 -.061 -.14c.06 -.06 .162 -.1 .283 -.1c.163 0 .264 0 .304 -.02c.102 -.02 .244 -.06 .426 -.16a.452 .452 0 0 1 .426 .04c0 .06 0 .08 -.02 .1c-.061 .18 0 .32 .222 .42c.04 0 .203 .08 .487 .2c.202 .08 .365 .08 .486 .02c-.02 -.16 -.08 -.42 -.182 -.78c-.102 -.02 -.223 -.08 -.385 -.18a1.08 1.08 0 0 0 -.304 -.18zm-2.696 -1.32a.848 .848 0 0 1 -.405 .12c-.04 .34 -.02 .56 .02 .68c0 -.02 0 -.04 .02 -.04c.02 .02 .02 .06 .02 .12s.02 .08 .061 .08c.122 -.06 .284 -.16 .507 -.32c.162 0 .345 -.08 .588 -.22s.425 -.22 .588 -.22c.952 .16 1.662 .38 2.128 .64c-.02 -.2 -.122 -.4 -.284 -.6a1.525 1.525 0 0 0 -.527 -.42c-.162 -.06 -.345 0 -.547 .16c-.162 .1 -.264 .06 -.304 -.1c-.061 -.219 -.142 -.319 -.223 -.319c-.568 .18 -.993 .26 -1.297 .22c-.04 .02 -.142 .1 -.345 .22zm.183 -1.579c-.223 .18 -.406 .3 -.527 .38c-.122 .24 -.142 .46 -.04 .62c.242 -.08 .404 -.16 .486 -.2c.182 -.16 .445 -.24 .79 -.22c.182 0 .466 .04 .83 .08a6.51 6.51 0 0 0 -.364 -.52c-.122 -.04 -.223 -.08 -.284 -.1a.823 .823 0 0 0 -.304 -.06c-.182 -.12 -.385 -.1 -.587 .02zm1.195 -1.24c-.243 0 -.405 -.02 -.506 -.02c-.203 -.02 -.304 -.119 -.325 -.299a.418 .418 0 0 0 -.324 -.08c-.182 .02 -.304 .04 -.365 .04a1.83 1.83 0 0 0 -.466 .5c0 .06 -.02 .14 -.06 .26c-.02 .1 -.02 .18 .04 .26c.06 -.08 .162 -.12 .304 -.16c.081 -.02 .203 -.06 .344 -.08c.264 -.02 .568 0 .892 .06c.02 0 .304 .08 .851 .2a3.71 3.71 0 0 0 -.385 -.68zm-14.51 12.856c.1 .12 .12 .28 .08 .48c-.02 .1 -.08 .26 -.162 .48c-.06 .28 -.203 .72 -.405 1.319h-.69l.244 -1.98c.04 -.06 .101 -.16 .182 -.28c.081 -.119 .162 -.179 .284 -.199c.203 .02 .365 .06 .466 .18zm-2.595 1.28c-.081 -.4 -.122 -.76 -.122 -1.06c.02 -.04 .082 -.12 .163 -.28c.06 -.12 .121 -.2 .182 -.26h.06l.65 .6l.1 -.02c-.06 .82 -.1 1.5 -.1 2.059h-.71c-.101 -.48 -.182 -.82 -.223 -1.04zm3.73 -2.54c-.102 .02 -.163 .04 -.183 .04l-.203 .08c.081 .06 .183 .16 .345 .3c.142 .12 .304 .16 .446 .14c.162 .08 .263 .24 .304 .48c.06 .3 .1 .48 .162 .56l.243 -.22h-.02l.02 -.02h.02c.02 -.08 .02 -.2 -.02 -.38c-.02 -.14 -.06 -.28 -.122 -.4a.465 .465 0 0 0 -.263 -.06c-.102 0 -.183 -.02 -.223 -.06c0 -.1 -.04 -.18 -.101 -.26a.906 .906 0 0 0 -.203 -.2c-.061 -.02 -.122 -.04 -.203 0zm1.864 .02c.08 -.14 .06 -.28 -.081 -.4c-.183 -.2 -.284 -.32 -.284 -.34l.02 -.02l.71 .08c.1 .06 .202 .16 .263 .3c.04 .06 .081 .18 .142 .36c.243 .04 .425 .18 .588 .46a4 4 0 0 1 .304 .68c.04 -.1 .08 -.24 .141 -.42c.041 -.18 .102 -.32 .122 -.42c0 -.08 -.04 -.16 -.162 -.2a.975 .975 0 0 1 -.284 -.12a1.2 1.2 0 0 0 -.506 -.88l-.912 -.3c-.365 -.12 -.67 -.199 -.933 -.199l-.587 .18c-.041 0 -.183 .02 -.467 .06c-.182 .02 -.304 .06 -.405 .16c-.142 0 -.263 .08 -.324 .24c-.04 .08 -.081 .22 -.122 .4h.081c.122 -.08 .325 -.12 .608 -.14c.284 -.02 .487 -.06 .608 -.16c.081 -.04 .142 -.02 .203 .06c.081 .1 .122 .16 .162 .18c.06 .04 .182 .18 .385 .46c.122 .18 .284 .26 .466 .2c.243 .12 .385 .34 .406 .66c.02 .179 .04 .459 .02 .819l.527 -.32v-.4c.02 -.18 -.02 -.3 -.081 -.4c-.04 -.1 -.142 -.2 -.304 -.3c-.162 -.14 -.264 -.22 -.304 -.28zm-12.444 -1.3c-.243 -.08 -.406 -.139 -.487 -.199c0 -.12 -.06 -.2 -.182 -.2c-.162 0 -.284 0 -.345 -.02l-.08 -.08a.435 .435 0 0 0 -.102 -.06c-.04 0 -.081 .02 -.101 .04c-.02 -.02 -.04 -.06 -.02 -.08l-.163 .04c-.223 .2 -.344 .42 -.364 .68c.04 .02 .121 0 .222 -.02c.102 -.02 .183 -.02 .223 0c.426 .16 .73 .28 .933 .38c.344 .16 .608 .36 .81 .6l.568 1.399l.263 -.86l-.182 -.48c-.06 -.14 -.203 -.24 -.385 -.28c-.04 0 -.203 -.02 -.487 -.04c-.04 -.06 -.06 -.12 -.02 -.2c.04 -.1 .061 -.16 .081 -.2c.081 -.18 .02 -.32 -.182 -.42zm5.006 3.02c.08 -.06 .243 -.12 .466 -.22c.162 -.1 .263 -.22 .304 -.38a.664 .664 0 0 0 -.162 -.12c-.061 -.04 -.122 -.08 -.162 -.1l-.284 .1c0 -.06 .02 -.16 .081 -.26c.06 -.14 .081 -.22 .081 -.26l.892 -.28c-.081 .24 -.142 .7 -.203 1.36c.06 .44 .101 .78 .162 1.04c.081 .38 .203 .68 .365 .939h-.952c-.02 -.12 -.163 -.42 -.406 -.88c-.202 -.36 -.263 -.66 -.182 -.94zm-1.48 -7.537c.365 -.08 .67 -.44 .912 -1.04h-.608l-.648 .62c-.142 .08 -.385 .24 -.73 .52c.324 .06 .669 .02 1.074 -.1zm-4.296 1.798l.08 .12c.102 0 .264 -.04 .487 -.1c.203 -.04 .365 -.08 .487 -.08c.08 .04 .202 .1 .364 .14c.183 .04 .304 .08 .385 .1c.264 .36 .467 .58 .649 .7c.385 .06 .73 .42 1.034 1.08v-.2c.06 -.24 .02 -.52 -.102 -.88a1.81 1.81 0 0 0 -.243 -.18a.978 .978 0 0 1 -.243 -.16a.24 .24 0 0 1 .02 -.2a1.71 1.71 0 0 0 -.385 -.28c-.243 -.14 -.385 -.22 -.405 -.26c-.142 -.2 -.385 -.34 -.73 -.38a8.19 8.19 0 0 1 -.871 -.12l-.527 .7zm-.325 .88a7.07 7.07 0 0 1 -.324 .44c.02 .1 .061 .18 .142 .24c.101 -.02 .263 -.08 .466 -.16a.678 .678 0 0 1 .487 0c.324 .28 .567 .46 .689 .58c.283 .2 .527 .36 .79 .459l.203 -.04c.04 .02 .101 .04 .182 .06c.06 .02 .122 .06 .162 .12c.04 .08 .02 .16 -.02 .22c-.04 .04 -.081 .12 -.142 .2c.122 .08 .203 .22 .223 .42c.04 .24 .101 .38 .142 .46l.486 -.64c-.04 -.22 -.08 -.38 -.101 -.5c-.04 -.18 -.162 -.28 -.345 -.3c-.162 -.08 -.243 -.2 -.243 -.38c-.101 -.08 -.243 -.2 -.466 -.32a2.002 2.002 0 0 1 -.466 -.32c-.02 -.02 -.142 -.12 -.324 -.3a.958 .958 0 0 0 -.365 -.24a3.084 3.084 0 0 0 -.69 -.22c-.202 -.04 -.344 .04 -.486 .22zm1.764 -2.62c.162 0 .385 .02 .689 .04c.243 0 .466 -.06 .608 -.18l.385 -1.199a.79 .79 0 0 0 -.365 -.02c-.122 .28 -.304 .54 -.527 .78c-.263 .24 -.507 .44 -.79 .58zm-1.014 -3.638c-.101 .1 -.182 .16 -.243 .22a.65 .65 0 0 0 -.182 .28c.04 .14 .101 .38 .182 .7c.081 -.16 .203 -.34 .385 -.5c.102 -.1 .284 -.24 .507 -.44c-.162 -.12 -.385 -.2 -.649 -.26zm1.682 1.32c-.162 -.1 -.405 -.08 -.709 .04c-.02 .14 -.06 .36 -.121 .66c-.041 .26 -.082 .48 -.082 .679l.304 -.3c.386 -.4 .588 -.74 .608 -1.08zm2.412 -1.28c0 .42 .284 .86 .831 1.32c.02 -.14 0 -.32 -.04 -.52c-.061 -.32 -.102 -.5 -.102 -.54c-.06 -.04 -.182 -.08 -.344 -.12c-.142 -.04 -.264 -.1 -.345 -.14zm-1.621 .4c-.02 -.22 -.142 -.46 -.324 -.74c-.304 -.42 -.467 -.64 -.467 -.68l-.02 -.18a3.062 3.062 0 0 0 -.628 -.4c-.02 .18 .02 .48 .101 .92c.162 .24 .365 .46 .588 .66c.263 .22 .527 .36 .75 .42zm.973 -1.22l-.71 -.44c.102 .5 .304 .98 .629 1.44l.08 -1zm6.951 7.018l.122 .06c.182 -.08 .466 -.2 .83 -.38c.122 -.04 .325 0 .609 .1c.243 .08 .425 .08 .567 -.04c.061 -.04 .122 -.04 .203 0c.04 .02 .101 .06 .162 .12c.081 .12 .203 .2 .385 .26c.101 .04 .264 .06 .466 .1a2.852 2.852 0 0 0 -.283 -.6c-.142 -.22 -.325 -.34 -.527 -.36c-.061 -.02 -.163 -.06 -.304 -.08a.758 .758 0 0 1 -.304 -.1c-.183 -.2 -.426 -.22 -.71 -.02c-.324 .22 -.567 .3 -.73 .22c-.202 .22 -.303 .32 -.303 .32a.988 .988 0 0 0 -.183 .4zm.345 .5c-.122 0 -.264 .04 -.426 .1c-.182 .08 -.324 .12 -.405 .16c-.081 .14 -.183 .42 -.324 .819h.06c.183 -.14 .385 -.26 .649 -.36c.122 -.04 .365 -.12 .71 -.22c.04 .02 .08 .06 .1 .12c.02 .06 .041 .1 .082 .12c.101 -.04 .263 -.08 .486 -.1c.223 -.02 .385 -.06 .466 -.1c.426 .02 .75 .08 .932 .18c.082 .12 .244 .2 .467 .28c.263 .08 .425 .16 .506 .2l-.06 -.48c-.284 -.32 -.67 -.54 -1.156 -.66c-.324 -.08 -.79 -.12 -1.358 -.12l-.02 -.08c-.304 .02 -.527 .06 -.71 .14zm.425 -4.099l-.324 -.46h-.162c-.243 .08 -.628 .16 -1.155 .22c.506 .36 .851 .6 1.033 .68c.426 .2 .831 .26 1.237 .16l.121 -.06c.04 -.02 .061 -.04 .081 -.08c-.344 -.18 -.628 -.34 -.83 -.46zm-3.668 2.48c0 .099 .04 .239 .081 .419c.203 .22 .487 .38 .872 .46c-.02 -.02 -.02 -.04 0 -.02c.02 0 .04 0 .06 -.02l-.425 -.88c-.264 .04 -.466 .04 -.588 .04zm-1.155 1.019l-.183 -.6c-.283 .1 -.668 .1 -1.175 .02l.507 .66c.304 .1 .587 .08 .85 -.08zm-.365 -2.4c.162 -.2 .243 -.4 .284 -.56c-.081 .02 -.223 .04 -.446 .04c-.182 0 -.324 .02 -.426 .08c-.101 .22 -.182 .38 -.243 .48a1.11 1.11 0 0 1 -.385 .42a.834 .834 0 0 1 -.182 .3c-.142 .14 -.203 .22 -.223 .26c.547 -.18 .973 -.34 1.216 -.5c.06 -.12 .202 -.3 .405 -.52zm3.344 -.1c-.06 -.08 -.182 -.18 -.324 -.32a2.387 2.387 0 0 1 -.324 -.32c-.203 -.08 -.284 -.179 -.284 -.319l-1.216 -.3c.02 .14 .06 .26 .101 .36c.183 .06 .365 .24 .568 .52c.202 .3 .364 .48 .527 .56c.141 .06 .304 .06 .486 .02c.081 -.02 .223 -.1 .466 -.2zm-.385 -3.598c-.06 .36 .02 .68 .203 .94c.182 .24 .547 .28 1.074 .12c-.04 -.08 -.162 -.18 -.365 -.3c-.182 -.12 -.304 -.24 -.324 -.32c-.04 -.44 -.142 -.88 -.284 -1.32c-.182 .36 -.284 .66 -.304 .88zm-2.918 1.68c.223 -.18 .385 -.4 .466 -.68c.06 -.22 .101 -.5 .08 -.84c-.182 .2 -.283 .32 -.364 .38c-.122 .12 -.263 .2 -.385 .26l.203 .88zm1.357 -1.08c-.04 .2 .061 .38 .325 .5c.142 .08 .344 .18 .608 .3c-.142 -.3 -.243 -.78 -.325 -1.44c-.283 .26 -.486 .48 -.608 .64zm6.628 -.2c-.081 -.14 -.203 -.16 -.385 -.1c-.223 .1 -.365 .16 -.426 .16c0 .06 .04 .12 .122 .2c.648 .36 1.216 .52 1.682 .44c.02 0 .06 -.02 .121 -.02c.041 -.02 .081 -.04 .081 -.08a3.915 3.915 0 0 1 -.587 -.32c-.264 -.16 -.466 -.26 -.608 -.28zm-2.635 .92c.101 .16 .243 .3 .466 .46c.122 .1 .304 .22 .547 .38c.142 .06 .304 .1 .467 .12c.162 .02 .324 .02 .486 -.02c-.284 -.24 -.547 -.5 -.81 -.78a2.81 2.81 0 0 1 -.102 -.22c-.04 -.08 -.081 -.16 -.142 -.2c-.223 .02 -.385 .06 -.486 .08c-.183 .04 -.325 .1 -.426 .18zm-.669 -2c.02 -.24 -.08 -.44 -.324 -.6c-.304 -.14 -.507 -.26 -.608 -.36c0 .02 .04 .22 .122 .62c.04 .24 .121 .44 .202 .58c.325 .42 .69 .58 1.115 .5c-.162 -.16 -.284 -.28 -.324 -.36a.49 .49 0 0 1 -.183 -.38zm2.27 -.14v-.06l-.669 -.56c-.142 .04 -.324 .16 -.567 .38c.142 .16 .324 .24 .567 .26c.162 0 .365 0 .67 -.02zm.223 -1.18c.122 .08 .345 .1 .69 .08c.06 -.02 .141 0 .263 .06c.101 .04 .182 .04 .263 0a1.291 1.291 0 0 1 -.304 -.28c-.142 -.16 -.243 -.279 -.284 -.319c-.101 -.08 -.243 -.12 -.425 -.1c-.183 .06 -.325 .1 -.406 .12c.04 .04 .081 .12 .122 .22c0 .1 .04 .18 .081 .22zm.446 -2.318c-.06 -.14 -.122 -.24 -.162 -.3c-.061 -.12 -.162 -.16 -.264 -.1a.545 .545 0 0 1 -.202 -.22a1.207 1.207 0 0 0 -.162 -.26c-.02 .1 -.02 .24 -.02 .4v.4c.08 .1 .222 .26 .425 .48c.182 .16 .365 .2 .567 .14c-.02 -.08 -.04 -.18 -.101 -.28c-.02 -.12 -.06 -.2 -.081 -.26zm-1.621 -2.38l.06 -.3a.782 .782 0 0 0 -.04 -.599c-.142 -.24 -.243 -.4 -.284 -.52l-.284 1.6l.548 -.18zm-4.46 1.68c.021 -.02 .062 -.02 .082 0h.81l-.1 .42l-.811 -.34c0 -.04 0 -.06 .02 -.08zm-.546 -4.118c.08 -.1 .182 -.18 .304 -.22c.04 -.02 .162 -.04 .364 -.08l1.743 .04c.02 .02 .02 .06 0 .08c-.04 .06 -.06 .1 -.06 .12c-.04 .04 -.102 .06 -.183 .1c-.08 .04 -.142 .08 -.182 .1c-.081 0 -.162 .06 -.203 .16c-.06 .12 -.121 .2 -.162 .22c-.101 .1 -.243 .16 -.446 .16a5.55 5.55 0 0 1 -.466 -.06a.701 .701 0 0 1 -.263 -.3l-.082 .08c.041 .14 .061 .32 .082 .58c.02 .28 .04 .479 .06 .579l.426 .28c0 .24 .142 .4 .405 .5c.365 .12 .588 .22 .629 .3c-.041 .14 -.183 .34 -.386 .58a1.99 1.99 0 0 0 -.871 -.5c0 -.16 -.081 -.3 -.243 -.46c-.203 -.14 -.324 -.26 -.406 -.3l-.08 -.98a5.07 5.07 0 0 0 -.122 -.96l.142 -.02zm.952 -1.36c.061 .08 .081 .12 .081 .14c.04 .04 .04 .1 .02 .16c-.08 .02 -.202 .04 -.364 .06c-.183 0 -.304 .02 -.385 .02c-.081 -.04 -.142 -.18 -.223 -.4c-.061 -.18 -.183 -.26 -.365 -.26c-.04 -.08 -.04 -.14 0 -.16c.101 -.04 .263 -.04 .486 0c.142 -.02 .264 .04 .385 .18c.142 .18 .264 .26 .365 .26zm2.716 -1.7c.223 .4 .243 .92 .101 1.58c-.04 .06 -.182 .1 -.385 .12c-.182 .02 -.304 .08 -.365 .2h-.02c-.101 -.3 -.304 -.58 -.588 -.86a3.288 3.288 0 0 0 -.871 -.62c.06 -.2 .122 -.36 .182 -.46a.852 .852 0 0 1 .345 -.359l.608 -.18c.304 .14 .648 .34 .993 .58zm-5.026 8.517c-.71 0 -1.318 .14 -1.845 .4c-.1 .52 0 .96 .304 1.32l.406 -.4c.04 0 .06 .02 .08 .04l-.02 .74c.163 .16 .386 .24 .69 .26c0 -.08 .04 -.18 .101 -.28c.101 -.16 .162 -.24 .162 -.26c.02 -.02 .04 -.1 .061 -.22c.02 -.1 .06 -.18 .101 -.22l.061 .04c.02 .08 .02 .18 .04 .34c.02 .14 .061 .24 .102 .32l.06 .34c.264 0 .528 -.06 .811 -.18c0 -.1 0 -.22 .041 -.34c.04 -.14 .06 -.26 .081 -.34c.02 -.02 .02 -.06 0 -.14c0 -.06 .02 -.08 .081 -.08c.06 .14 .183 .34 .365 .62c.324 -.32 .547 -.8 .648 -1.44c-.04 -.06 -.1 -.1 -.202 -.14a1.5 1.5 0 0 1 -.223 -.12a7.051 7.051 0 0 0 -1.905 -.26zm-2.21 -1.04c-.06 -.02 -.1 -.08 -.1 -.179c.02 -.12 .02 -.2 .02 -.24h.425c.183 -.02 .304 0 .406 .06c-.02 .06 -.122 .12 -.304 .16l-.446 .2zm-3.526 -3.378l.304 -.42l-.608 .18c-.202 .36 -.304 .68 -.304 .98l.385 1.2c0 -.2 .04 -.54 .142 -.98c.081 -.38 .122 -.72 .081 -.96zm-.344 -1.9v.54l.527 -.3v-.779c-.081 .06 -.183 .14 -.284 .26l-.243 .28zm3.04 .5c.202 -.02 .506 -.02 .912 0h.932c.182 .08 .304 .18 .385 .36c0 .24 -.06 .6 -.122 1.06c-.08 .48 -.121 .84 -.141 1.08c-.345 .14 -.548 .36 -.629 .64c-.101 .02 -.202 .08 -.364 .16c-.223 .12 -.345 .18 -.365 .18a.608 .608 0 0 1 -.061 -.38c.02 -.14 .06 -.26 .162 -.36c.06 -.08 .243 -.18 .568 -.36c.243 -.12 .344 -.28 .324 -.5c.06 -.12 .101 -.26 .08 -.46c-.04 -.3 -.06 -.46 -.06 -.48c-.02 -.08 -.06 -.1 -.101 -.06c-.061 .08 -.122 .1 -.142 .1c-.264 .06 -.466 .04 -.628 -.06c-.102 -.08 -.163 -.16 -.203 -.2a.704 .704 0 0 1 -.162 -.26c-.264 -.14 -.426 -.3 -.507 -.44l.122 -.02zm1.925 -1.199c.101 -.04 .243 -.1 .446 -.18c.182 -.06 .324 -.08 .466 -.02c-.162 .16 -.344 .42 -.567 .78l-.933 -.02c.081 -.22 .284 -.4 .588 -.56zm-2.452 -2.179l.202 .02c.183 .08 .467 .22 .892 .38c.345 .2 .527 .44 .527 .76c-.628 .24 -1.115 .54 -1.48 .92c-.08 -.08 -.283 -.16 -.628 -.26c-.263 -.08 -.405 -.24 -.466 -.46c.061 -.36 .162 -.64 .264 -.84c.182 -.28 .425 -.46 .689 -.52zm7.64 -.5a.792 .792 0 0 0 -.668 .06c-.04 .02 -.244 .14 -.588 .36c-.04 0 -.081 .06 -.101 .12c-.02 .06 -.061 .1 -.122 .1c-.142 .36 -.243 .62 -.284 .8c-.77 -.12 -1.418 0 -1.925 .36a1.676 1.676 0 0 0 -.466 -.22a5.67 5.67 0 0 0 -.507 -.12h-.385c-.142 0 -.243 -.02 -.304 -.08c-.02 -.02 -.122 -.2 -.324 -.52c-.122 -.22 -.264 -.34 -.446 -.36c-.122 -.04 -.183 -.18 -.183 -.38a3.865 3.865 0 0 1 -.425 -.12c-.183 -.06 -.324 -.1 -.406 -.12c-.182 -.08 -.385 -.08 -.608 0c-.06 .02 -.222 .12 -.506 .32c-.203 .06 -.345 .1 -.426 .16c-.304 .5 -.527 .88 -.628 1.18c.04 .26 .162 .58 .365 .92c.08 .2 .223 .4 .425 .58c.183 .159 .385 .279 .608 .379c-.202 .7 -.202 1.4 0 2.12l-.02 .04c-.101 0 -.162 0 -.182 -.02h-.02c.08 .619 .384 1.179 .891 1.678c.06 .02 .122 .08 .142 .16c.04 .14 .06 .22 .06 .24c.021 .02 .041 .06 .062 .12c0 .06 0 .1 -.02 .12a5.433 5.433 0 0 0 -2.838 .7c-.101 .04 -.142 .14 -.142 .28v.34c.608 -.4 1.257 -.68 1.946 -.8c.101 0 .263 -.02 .486 -.06c.183 -.02 .345 0 .466 .02l.04 .58c-.546 .24 -.952 .44 -1.235 .56c-.487 .24 -.872 .5 -1.135 .78v.26c0 .12 0 .22 .02 .299l.628 -.5c.649 -.5 1.277 -.86 1.905 -1.06c.264 .3 .466 .48 .608 .56c.406 -.26 .851 -.46 1.318 -.56c.06 -.04 .202 -.06 .445 -.1c.183 -.02 .304 -.1 .365 -.22l.122 -.599c-.04 -.02 -.061 -.02 -.081 -.02a1.04 1.04 0 0 1 -.365 -.36a.74 .74 0 0 1 -.122 -.5c-.101 .06 -.223 .08 -.364 .1c-.142 -.04 -.223 -.1 -.264 -.16c-.02 -.1 -.02 -.18 -.02 -.22c0 -.1 .02 -.16 .08 -.2c.345 -.22 .852 -.3 1.561 -.24c.406 .04 .629 .08 .69 .08c.243 .08 .405 .22 .486 .42l-.02 .2a.29 .29 0 0 1 -.122 .18c-.06 .04 -.142 .04 -.223 .02c-.02 0 -.101 -.04 -.223 -.08c-.142 .44 -.365 .7 -.669 .8l.04 .38c.021 .06 .041 .16 .082 .3c.06 .1 .142 .14 .263 .1c.467 .1 1.054 .38 1.784 .84c.122 -.12 .284 -.32 .466 -.6c.446 .14 .912 .4 1.398 .76c.264 .18 .69 .52 1.298 .999l.02 -.56c-.69 -.6 -1.54 -1.12 -2.554 -1.56c.061 -.24 .081 -.42 .081 -.559a6.78 6.78 0 0 1 3 .9l-.02 -.48c-1.014 -.54 -2.027 -.82 -3.06 -.84a.227 .227 0 0 1 -.041 -.2c.243 -.04 .466 -.18 .668 -.4c.183 -.2 .304 -.44 .386 -.72c.283 -.32 .425 -.48 .425 -.5c.142 -.2 .203 -.399 .162 -.599l.04 -.12c.062 -.16 .062 -.28 .021 -.36c-.101 .12 -.263 .2 -.486 .24c.142 -.28 .243 -.56 .283 -.88c.041 -.34 .02 -.66 -.1 -.92c.06 -.02 .12 -.04 .222 -.08c.081 -.02 .162 -.06 .223 -.08v-.02l.365 -.319c.202 -.14 .324 -.36 .365 -.66c.06 -.46 .1 -.72 .121 -.78a4.73 4.73 0 0 1 -.284 -.6a2.099 2.099 0 0 0 -.385 -.559l.02 -.02c-.1 -.14 -.283 -.24 -.526 -.3c-.385 -.1 -.588 -.16 -.629 -.18zm15.484 2.58c-.243 .12 -.405 .2 -.506 .22c.223 .12 .405 .18 .547 .18c.182 -.08 .344 -.12 .507 -.08c.1 .06 .223 .08 .405 .06c.243 -.04 .385 -.08 .426 -.08c-.163 -.16 -.446 -.34 -.831 -.52c-.142 .02 -.325 .1 -.548 .22zm3.06 .679c-.405 .02 -.729 .08 -.932 .18c.163 .02 .304 .08 .467 .22c.06 .04 .182 .18 .385 .38c.243 .04 .486 .2 .709 .48l-.101 -.36c-.061 -.22 -.223 -.54 -.527 -.9zm-31.069 19.772c-.182 .34 -.304 .74 -.385 1.2c-.06 .32 -.1 .76 -.121 1.3c.02 .02 .02 .06 .02 .1c0 .04 .02 .06 .06 .08c.041 -.22 .163 -.46 .345 -.72c.264 -.38 .426 -.6 .467 -.68c.02 -.04 .06 -.12 .121 -.28a.5 .5 0 0 1 .183 -.26c.1 0 .222 .04 .364 .1c.162 .06 .284 .1 .365 .1c.04 .02 .04 .06 .02 .1c-.04 .04 -.06 .08 -.06 .08c0 .08 -.04 .3 -.122 .64c-.06 .26 -.081 .48 -.081 .66h.06c.244 -.24 .528 -.64 .872 -1.2l.061 -.38c.02 -.2 -.06 -.4 -.243 -.58c-.122 -.1 -.284 -.22 -.527 -.36l.304 -.36l-.405 -.14c-.548 .04 -.953 .24 -1.298 .6zm-2.634 1.32c.04 -.24 .04 -.46 -.04 -.68a.96 .96 0 0 0 -.426 -.54l-.73 .82c-.02 .28 -.02 .78 .02 1.5c.162 .24 .325 .36 .507 .38l.02 -.34c.02 -.1 0 -.34 -.02 -.72c-.02 -.28 .02 -.5 .122 -.66c.182 .04 .364 .12 .547 .24zm1.824 -2.12l-.81 .08c-.143 .2 -.244 .36 -.305 .46c-.121 .16 -.203 .32 -.243 .48c-.345 1.04 -.405 1.9 -.142 2.56c.264 -.18 .446 -.3 .527 -.4c-.02 -.5 -.04 -.82 -.02 -.94c.02 -.36 .121 -.64 .283 -.88c.284 .08 .507 .32 .69 .72c.222 -.28 .304 -.64 .202 -1.04c0 -.12 -.06 -.2 -.182 -.24l-.304 -.12c.02 -.18 .06 -.3 .08 -.38a.5 .5 0 0 1 .224 -.3zm35.262 -16.632c.912 .56 1.743 1.36 2.513 2.38a16.445 16.445 0 0 1 1.723 2.898c.182 .42 .345 .82 .486 1.18a14.84 14.84 0 0 1 .73 3.518c.101 1.28 .02 2.46 -.223 3.579c-.121 .52 -.263 1 -.446 1.42c-.202 .599 -.567 1.279 -1.094 2.038c-.547 .74 -1.196 1.42 -1.966 2.04c-.71 .5 -1.5 .84 -2.392 1.04c-.891 .2 -1.783 .24 -2.675 .1c-.182 .16 -.425 .28 -.73 .34c-.364 .04 -.628 .079 -.81 .099h-4.824c-.02 -.12 0 -.24 .061 -.38c.081 -.16 .102 -.3 .102 -.4c.08 -.48 .263 -.76 .526 -.84l.02 -.04c.143 .36 .284 .68 .447 .96c.243 -.12 .385 -.34 .405 -.66c-.04 -.22 -.203 -.46 -.486 -.74l-.061 -.02a.808 .808 0 0 0 .223 -.279c.101 -.16 .162 -.26 .202 -.3c.183 .2 .284 .3 .304 .3c.122 .1 .264 .12 .385 .1c.163 -.06 .244 -.14 .244 -.22c0 -.08 -.02 -.14 -.081 -.14a28.24 28.24 0 0 0 -.69 -.62c-.283 -.22 -.547 -.26 -.79 -.08c-.689 .74 -1.094 1.44 -1.196 2.12l-.101 1.259c-.405 .04 -.69 .04 -.872 0c.02 -.18 .02 -.48 0 -.88c-.02 -.38 -.02 -.68 .041 -.9c.06 -.02 .122 0 .223 .08c.04 .04 .122 .08 .203 .16c.02 .02 .02 .02 .06 .02c.02 0 .041 0 .061 -.02c0 -.02 .061 -.1 .162 -.28c.081 -.12 .081 -.22 0 -.3c-.02 -.08 -.08 -.16 -.182 -.259c-.122 -.1 -.203 -.18 -.263 -.24c.02 -.08 .06 -.18 .141 -.3c.04 -.06 .122 -.16 .203 -.3c.02 0 .04 .02 .04 .04s.02 .04 .02 .06c.102 .1 .244 .14 .406 .12c.02 0 .061 -.02 .122 -.02c.04 -.02 .06 -.04 .02 -.1c0 0 -.02 -.06 -.081 -.18a.185 .185 0 0 1 0 -.18c.06 -.02 .182 0 .405 .06c.162 .04 .284 0 .365 -.1l.04 -.08c-.283 -.16 -.506 -.28 -.668 -.32c-.264 -.08 -.527 -.1 -.77 -.02c-.122 -.02 -.243 .04 -.345 .16c-.162 .18 -.243 .28 -.263 .28l-.081 .04c-.203 -.04 -.446 -.02 -.77 0c-.406 .06 -.65 .08 -.75 .08l-.872 1.32v.68c0 .28 .06 .52 .122 .68c.202 .32 .344 .56 .425 .739h-9.262c.102 -.22 .304 -.48 .608 -.82c.02 .06 .102 .12 .223 .16l.649 .12c.08 -.02 .182 -.06 .344 -.12c.122 -.06 .223 -.12 .304 -.18c-.121 -.06 -.324 -.16 -.608 -.28c-.263 -.1 -.466 -.2 -.587 -.26c.06 -.36 .08 -.64 .08 -.82c0 -.319 -.08 -.559 -.263 -.719c-.101 -.08 -.223 -.12 -.385 -.16c-.182 -.04 -.324 -.06 -.425 -.08c-.446 .14 -.73 .34 -.852 .6c-.304 -.32 -.587 -.52 -.871 -.6l.142 -.72c.223 -.12 .486 -.14 .81 -.08c.183 .04 .467 .12 .811 .24c.02 0 .081 .02 .162 .02c.061 .02 .122 .02 .162 0c.02 -.02 0 -.06 -.04 -.08c-.04 -.04 -.081 -.06 -.081 -.1c-.406 -.58 -1.115 -.8 -2.149 -.68c-.1 0 -.202 .12 -.364 .36c-.102 .18 -.223 .2 -.385 .06a.684 .684 0 0 0 -.385 .04c-.203 .06 -.325 .1 -.426 .1l-.547 .2l-.183 .28c-.263 .46 -.506 .94 -.77 1.46c.02 .14 0 .38 -.04 .7c0 .28 .04 .5 .141 .66c.142 .3 .304 .56 .467 .739h-11.958a2.65 2.65 0 0 1 -.466 -.96a2.438 2.438 0 0 1 -.06 -1.08c.12 -.399 .303 -.679 .567 -.859c-.02 -.24 .02 -.46 .101 -.62c.122 -.28 .324 -.52 .588 -.72c.385 -.26 .83 -.34 1.337 -.24c.264 -.28 .588 -.46 .993 -.52c.386 -.079 .75 -.059 1.115 .06c.203 .08 .365 .18 .507 .26c.142 -.28 .284 -.659 .425 -1.179c.163 -.6 .284 -1 .365 -1.2c.02 -.1 .061 -.18 .122 -.28c.06 -.12 .202 -.459 .425 -.999c.183 -.42 .325 -.76 .467 -1c-.629 -1.719 -1.075 -3.258 -1.318 -4.618c.02 -.08 .061 -.18 .122 -.26c0 0 .08 -.06 .202 -.18c.304 -.36 .406 -.68 .507 -1.039c-.06 0 -.121 .04 -.223 .1c-.101 .06 -.182 .1 -.243 .1c0 .02 -.06 .08 -.162 .2c-.06 .08 -.122 .16 -.142 .22c-.04 -.02 -.081 -.12 -.122 -.3c-.04 -.3 -.08 -.52 -.1 -.68c-.041 -.28 .02 -.48 .181 -.6l.406 -.32c0 -.22 .02 -.52 .08 -.92h-.08c-.162 .12 -.284 .22 -.365 .28a.818 .818 0 0 0 -.263 .36h-.02l-.021 -1.379c.02 -.02 .101 -.06 .223 -.14c.101 -.06 .162 -.12 .223 -.16c-.06 -1.68 .08 -3.119 .466 -4.338c.06 -.14 .142 -.28 .284 -.46l.304 -.42c0 -.26 .02 -.44 .02 -.58c.02 -.22 .04 -.4 .081 -.56c.081 -.04 .203 -.14 .365 -.28c.162 -.14 .304 -.239 .385 -.299c-.04 -.04 -.122 -.06 -.223 -.08c-.101 0 -.182 -.02 -.243 -.02c.162 -.46 .547 -.98 1.155 -1.54c.304 -.24 .527 -.38 .649 -.42c.06 0 .1 .04 .162 .1c.121 0 .344 .06 .689 .12c.284 .06 .506 .08 .689 .08c-.203 -.32 -.466 -.5 -.73 -.5l.061 -.02a5.666 5.666 0 0 1 1.176 -.379c.02 .14 .121 .3 .283 .48c.183 .22 .284 .38 .325 .48l.263 .22v-.72c-.02 -.28 -.122 -.5 -.304 -.62c-.02 -.08 .02 -.08 .122 -.06c.425 .18 .932 .44 1.5 .76c.486 -.24 .79 -.38 .911 -.42c-.04 .14 -.1 .38 -.182 .68c-.081 .28 -.122 .54 -.122 .74c.081 -.06 .183 -.16 .304 -.3c.142 -.18 .223 -.3 .284 -.36c0 -.12 .04 -.26 .142 -.42c.142 -.22 .203 -.34 .223 -.38c.547 -.16 .973 -.16 1.297 0c-.162 .02 -.263 .1 -.284 .22c-.02 .06 -.02 .18 -.02 .36l.04 .02c.426 -.08 .71 -.22 .892 -.38c.385 .06 .69 .18 .912 .32c-.223 .1 -.365 .18 -.425 .2a1.08 1.08 0 0 0 -.365 .3c.466 -.02 .892 -.04 1.277 -.1l.182 -.1c.466 .28 .851 .7 1.155 1.28c.122 .24 .345 .759 .649 1.559c-.04 0 -.122 -.04 -.223 -.08s-.182 -.08 -.243 -.08c.02 .06 .06 .18 .08 .34c.041 .12 .122 .2 .244 .22a.56 .56 0 0 1 .365 .2c.06 .08 .121 .2 .223 .36l.79 .619c.324 .24 .527 .5 .649 .76c.202 .32 .364 .8 .506 1.4c.162 .779 .284 1.259 .345 1.439c-.06 -.08 -.183 -.14 -.385 -.2c-.223 -.06 -.365 -.12 -.446 -.18c.04 .34 .203 .6 .466 .78c.02 .02 .264 .12 .71 .3c.182 .32 .324 .819 .466 1.499a4.074 4.074 0 0 0 -.608 -.3l-.02 .04c.02 .2 .08 .4 .222 .58c.142 .16 .304 .3 .487 .4l.04 1.039c.79 .62 1.601 .98 2.392 1.08c.182 .02 .364 .02 .506 .02c.122 0 .304 -.02 .527 -.08c.73 -.06 1.378 -.28 1.946 -.62c-.06 -.5 .101 -.9 .486 -1.22c.446 -.48 1.115 -.6 2.047 -.36c.993 .38 1.905 1.1 2.716 2.2c.446 .62 .932 1.459 1.439 2.519c.608 1.42 .953 2.938 1.034 4.578v.14c.04 1.12 -.04 2.259 -.264 3.378l-.121 .56c0 .06 .02 .1 .08 .14c.041 .02 .082 .04 .163 .06c.628 .18 1.256 .18 1.885 .04a4.48 4.48 0 0 0 1.682 -.8c.344 -.26 .628 -.56 .891 -.86c.568 -.599 1.075 -1.479 1.54 -2.598c.366 -1.1 .528 -2.3 .507 -3.579a11.978 11.978 0 0 0 -.628 -3.518l-.121 -.36c-.467 -1.22 -1.176 -2.38 -2.128 -3.459c-.994 -1.14 -2.088 -1.98 -3.263 -2.519c-.304 -.06 -.79 -.04 -1.44 .06c-.628 .1 -1.114 .1 -1.479 .02c-.83 -.24 -1.48 -.62 -1.905 -1.14l.02 -.06c.426 .06 .811 .16 1.135 .28c0 -.06 -.02 -.14 -.08 -.22c-.062 -.12 -.102 -.2 -.102 -.24c.527 -.12 .973 -.2 1.297 -.22c-.101 -.2 -.284 -.32 -.588 -.36c-.385 -.04 -.608 -.08 -.689 -.14c-.101 -.02 -.162 -.02 -.223 -.02c-.08 0 -.162 0 -.203 .02c0 .02 .041 .1 .082 .24c.04 .1 .06 .18 .06 .26c-.08 .02 -.182 0 -.304 -.04a1.032 1.032 0 0 0 -.324 -.08c-.101 0 -.182 -.02 -.223 -.02c-.101 0 -.162 .02 -.203 .06c-.243 -.4 -.425 -.72 -.547 -.919c-.223 -.38 -.486 -.62 -.79 -.76l.02 -.08c.405 -.1 1.013 -.28 1.804 -.56c.71 -.2 1.338 -.28 1.905 -.22c.203 .04 .345 .08 .446 .12l-.365 .32c.405 .36 .79 .54 1.176 .54l.02 -.04c-.02 -.14 -.122 -.34 -.284 -.62c.182 .02 .385 .12 .608 .3c.122 .1 .304 .26 .507 .48c.324 .56 .73 1.1 1.216 1.6c.385 .58 .912 1.02 1.48 1.34z" />
</svg>
