<svg>
  <path d="M24 1.5c12.426 0 22.5 10.074 22.5 22.5S36.426 46.5 24 46.5 1.5 36.426 1.5 24 11.574 1.5 24 1.5ZM13.063 16.741c-4.471 0-7.493 3.142-7.493 7.855 0 4.754 2.981 7.855 7.493 7.855 3.303 0 5.76-1.651 6.607-4.471l-3.263-1.128c-.564 1.773-1.733 2.699-3.424 2.699-2.417 0-3.868-1.893-3.868-4.955 0-3.061 1.49-4.955 3.868-4.955 1.691 0 2.86.927 3.424 2.7l3.263-1.129c-.887-2.82-3.304-4.471-6.607-4.471Zm16.516.201h-7.17V32.25h7.21c3.304 0 5.237-1.571 5.237-4.19 0-1.691-.805-2.94-2.256-3.625 1.25-.685 1.974-1.853 1.974-3.424 0-2.538-1.853-4.069-4.995-4.069Zm11.763 0h-3.464V32.25h3.464V16.942Zm-12.286 8.822c1.57 0 2.376.605 2.376 1.853 0 1.25-.805 1.853-2.376 1.853h-3.344v-3.706h3.344Zm-.04-6.042c1.45 0 2.175.564 2.175 1.692 0 1.128-.726 1.692-2.176 1.692h-3.303v-3.384h3.303Z"/>
</svg>
