---
version: "3.0.7"
---
<svg>
  <path d="M0 23.414 24.086 47.5l10.041-10.09 9.35-9.42L48 23.413l-8.91-9.151-2.22-2.288a1457 1457 0 0 0-8.754-8.946l-.076-.076L25.9.795v4.317l9.012 9.116 8.996 9.134-11.382 11.38c-4.68 4.672-8.326 8.269-8.388 8.269-.015 0-.244-.22-.648-.622l-1.06-1.063a1343 1343 0 0 1-8.1-8.278l-9.685-9.945 8.995-9.013 8.996-8.996-.104-4.213zm8.72-.087 15.366 15.16 1.186-1.114c.767-.73 4.138-4.034 7.672-7.485l6.596-6.474L25.554 9.428v4.662l4.834 4.662 4.852 4.644-11.067 11.068-5.042-5.163-1.455-1.487c-2.122-2.177-3.773-3.905-3.915-4.09l-.345-.431 9.22-9.22-.104-4.351zm12.068 3.644 3.42 3.332 3.32-3.427.454-.474c1.537-1.613 2.716-2.93 2.7-3.023-.016-.097-1.413-1.629-2.91-3.228l-.873-.93c-1.387-1.47-2.643-2.768-2.726-2.783-.05-.016-1.478 1.362-3.228 3.122l-.932.938c-1.576 1.596-2.76 2.876-2.73 2.967.035.104 1.606 1.675 3.505 3.506"/>
</svg>
