---
version: "0.0.4"
---
<svg>
  <path d="M4.323 27.336c1.705 0 2.703 -.74 2.703 -2.014c0 -1.342 -1.343 -1.72 -2.427 -2.013c-.878 -.24 -1.377 -.43 -1.377 -.808c0 -.362 .43 -.603 1.101 -.603a2.8 2.8 0 0 1 1.756 .62l.792 -1.102c-.74 -.533 -1.55 -.791 -2.496 -.791c-1.601 0 -2.617 .74 -2.617 1.944c0 1.411 1.395 1.807 2.497 2.117c.774 .223 1.274 .327 1.274 .74s-.43 .653 -1.171 .653a2.92 2.92 0 0 1 -2.049 -.808l-.809 1.101c.689 .62 1.722 .964 2.823 .964zm7.193 -6.711l2.616 6.316h-1.627l-.477 -1.247h-2.934l-.477 1.247h-1.59l2.615 -6.316h1.874zm3.833 0l1.562 2.56l1.563 -2.56h1.579l-2.451 3.856v2.46h-1.415v-2.477l-2.45 -3.839h1.612zm-4.788 1.247l-.99 2.592h1.98l-.99 -2.592zm14.485 5.069h1.717l-1.646 -2.527c.823 -.299 1.288 -.93 1.288 -1.811c0 -1.247 -.948 -1.978 -2.558 -1.978h-3.005v6.316h1.52v-2.327h1.235l1.449 2.327zm-2.683 -5.12h1.377c.733 0 1.11 .283 1.11 .832c0 .548 -.377 .847 -1.11 .847h-1.377v-1.678zm10.274 5.12h1.626l-2.616 -6.316h-1.873l-2.616 6.316h1.59l.478 -1.247h2.934l.477 1.247zm-2.934 -2.477l.99 -2.592l.99 2.592h-1.98zm10.086 -3.839v1.263h-3.25v1.346h2.473v1.197h-2.473v2.51h-1.486v-6.316h4.736zm4.095 0l2.616 6.316h-1.626l-.477 -1.247h-2.934l-.478 1.247h-1.59l2.616 -6.316h1.873zm-.954 1.247l-.99 2.592h1.98l-.99 -2.592z" />
</svg>
