---
version: "3.0.7"
---
<svg>
  <path d="M22.327 1.053c3.147-.228 6.837.293 9.676 1.356 4.024 1.51 7.353 3.93 10.036 7.294 3.485 4.374 5.285 10.137 4.913 15.737-.183 2.697-.657 4.803-1.632 7.245-1.175 2.936-2.834 5.4-5.167 7.679-1.993 1.948-3.706 3.158-6.087 4.309-4.164 2.007-8.943 2.75-13.462 2.094-2.85-.418-5.722-1.438-8.377-2.984C8.94 41.867 5.95 38.844 4.033 35.5c-1.374-2.398-2.354-5.177-2.764-7.836-.231-1.492-.334-3.853-.226-5.29.275-3.778 1.524-7.566 3.496-10.61 1.002-1.552 1.907-2.697 3.13-3.956 1.702-1.75 3.428-3.028 5.696-4.218l.462-.237c.73-.369.995-.496 1.504-.693l.774-.29c1.631-.606 3.84-1.092 5.751-1.278zm8.996 9.746c-.99-.15-1.653-.15-2.349 0-1.19.259-2.34 1.07-2.818 1.997l-.108.223c-.135.3-.153.485-.16 1.039 0 .526.05.885.16 1.211l.08.246c.035.134.032.198-.004.226l-.073.038-.09.062-.052.04-.172.14c-.218.193-.26.301-.293.727-.034.51.075.87.385 1.212.185.217.244.184.302-.134.059-.317.512-.927.89-1.203l.26-.192.52.46c.947.843 1.895 1.17 3.706 1.27 1.245.07 2.263-.042 3.913-.438l1.104-.27.366-.08c.434-.088.671-.102.966-.082.939.067 1.534.544 1.87 1.48.176.51.184 1.453.008 1.72-.19.293-.42.336-1.12.14l-.624-.185c-1.27-.356-2.303-.351-4.064.015l-.809.172c-1.834.369-4.437.688-6.076.745l-.639.014c-.494.014-.759.047-.807.103-.131.16.013.44.406.808l.305.272c.174.164.181.215.077.215-.176 0-.738-.36-.948-.61a.46.46 0 0 0-.318-.142h-.202l.185.242c.226.31.184.61-.11.71-.319.109-.855-.186-1.373-.757l-.212-.245c-.21-.239-.379-.386-.393-.335-.006.036.03.196.095.396l.133.385.061.2c.042.151.061.257.046.273-.025.025-.185.05-.36.05-.26 0-.361-.05-.57-.31l-.253-.308.05.309c.051.35-.016.376-.385.184-.52-.268-1.048-1.254-.998-1.872l.012-.114c.014-.103.033-.1.094.058l.178.5.13.332c.057.135.108.246.14.302.283.446.625.731.583.49l-.093-.343-.078-.343c-.062-.299-.098-.556-.069-.556.026 0 .118.125.202.275l.056.091.13.181q.077.102.168.212l.25.285.143.154c.302.313.37.301.263-.119l-.173-.595c-.134-.489-.09-.651.135-.651.11 0 .286.167.512.5l.12.165c.17.222.372.444.492.538.378.284.872.493.94.384.046-.075.036-.138-.172-.395l-.407-.474c-.906-1.036-1.266-1.37-1.518-1.429l-.082-.03a2.4 2.4 0 0 1-.564-.413l-.402-.384v.794l-.244-.134c-.142-.067-.427-.376-.654-.685l-.394-.56-.067.326c-.05.226-.034.435.05.685l.053.17q.075.287-.105.135l-.048-.046c-.072-.071-.12-.063-.195.03l-.096.123q-.088.093-.187.083l-.097-.02c-.155-.02-.15.189.026.808l.163.546.066.239c.067.261.097.452.068.48-.102.102-.634-.306-1.032-.782l-.168-.206-.186-.215c-.069-.074-.115-.116-.123-.108-.02.02.072.357.193.715l.108.304c.06.167-.327.134-.595-.05-.115-.071-.329-.266-.509-.462l-.447-.499-.344.1c-.57.176-1.526.87-2.382 1.755-1.367 1.404-1.736 2.14-1.803 3.618l-.01.24c-.018.524.008.803.11 1.14.37 1.278 1.25 2.397 2.71 3.45l.566.394q.137.091.207.135l.057.031a1.5 1.5 0 0 0-.06-.23l-.166-.53c-.302-.961-.453-2.165-.336-2.833l.055-.312c.024-.118.045-.2.054-.215.011-.01.034.175.055.461l.042.731c.058.863.222 1.588.64 2.82l.501 1.434c.143.432.178.65.19 1.058l.006.407v.36c-.013.754-.113.953-.553 1.37-.31.3-.638.442-.99.442-.629 0-1.124.184-1.468.535-.31.318-.78 1.27-.679 1.37.017.012.12.012.26.003l.235-.02c.34-.045.43-.065.635-.32l.212-.28.202-.257c.25-.301.427-.446.561-.446.034 0-.025.126-.126.268-.159.25-.503.944-.503 1.036 0 .01.052.02.13.026l.189.007c.389 0 .715-.193 1.118-.68l.123-.155c.36-.452.62-.66.512-.401l-.302.725c-.12.3-.175.46-.16.47l.125.009 3.305.116.283-.285c.132-.148.141-.252.112-.676l-.014-.177c-.03-.283-.094-.445-.283-.74l-.212-.322c-.3-.468-.366-.705-.255-.883.042-.076.336-.268.655-.443l.19-.106c.8-.472 1.275-1.12 1.026-1.423-.143-.168-.772-.16-1.107.008a5 5 0 0 1-.587.25l-.109.037c-.19.06-.233.041-.269-.045-.053-.154.036-.383.63-1.317l1.794-2.75.302-.477c.37-.59.61-1.014.804-1.409l.23-.495c.032-.062.044-.071.043-.016l-.02.239c-.06.51-.83 2.047-1.451 2.925l-.607.835-.417.585h.235c.36-.008 1.444-.263 2.35-.562l.31-.106.257-.1a41 41 0 0 0 2.012-.91l1.98-.965c1.857-.878 2.869-1.196 3.893-1.26 1.103-.073 1.585.14 2.386 1.224l.498.701c.337.453.776.968 1.05 1.226l.705.667c.686.656.834.848.941 1.156l.047.15c.177.626.135 2.648-.075 3.15-.137.322-.242.374-.888.224l-.61-.15c-.756-.175-1.115-.164-1.328.026-.072.065-.235.311-.39.599l-.208.41-.097.207c-.16.368-.12.47.167.524l.217.031.147.014c.195.01.298-.04.63-.34l.489-.453c.289-.26.517-.435.537-.408.023.023-.114.263-.31.557l-.302.44a2.6 2.6 0 0 0-.21.34c0 .025.093.042.21.042.257 0 .744-.237.919-.436l.09-.13c.05-.06.113-.102.157-.102.07 0 .082.042.041.187l-.12.378c-.033.12-.044.212-.022.229.05.05 1.392-.11 1.51-.176.033-.025.067-.134.067-.242l.007-.082c.014-.08.045-.15.077-.169.05-.025.084.042.084.159 0 .125.092.276.235.384.2.159.301.184.838.15l.18-.013c.332-.028.458-.073.598-.196l.06-.058c.169-.16.212-.232.239-.72l.04-1.107.015-1.12v-.136l-.008-.727h.327c.185 0 .461-.05.62-.117.21-.09.286-.172.377-.447l.07-.232.06-.211.02-.083.019-.097c0-.041-.185-.05-.411-.016a1.9 1.9 0 0 1-.705-.042c-.385-.134-.855-.652-.93-1.036-.104-.539.256-1.76 1.045-3.578l.496-1.112c1.208-2.772 1.164-4.27-.133-5.538l-.158-.153c-.173-.172-.294-.314-.294-.34l.017-.052.048-.114.383-.845c.282-.67.4-1.257.407-1.93.017-.87-.151-1.229-.814-1.839-1.031-.944-2.088-1.245-4.067-1.161l-.438.024c-.454.032-.938.082-1.26.129l-.742.119-.448.062c-.806.104-1.512.15-1.825.109-.68-.092-1.048-.284-1.527-.81l-.444-.494-.092.443-.151.752-.05.318-.21-.193c-.55-.509-.644-1.29-.239-1.943l.155-.229c.083-.138.143-.29.143-.376 0-.167-.042-.192-.353-.192a1.77 1.77 0 0 0-1.593 1.06l-.106.223c-.043.083-.077.137-.087.137-.017 0-.076-.142-.117-.317l-.055-.233c-.285-1.358.229-2.04 1.556-2.04.738 0 1.056.125 1.627.668l.461.435.059-.31a3.4 3.4 0 0 0 0-.718l-.013-.122c-.027-.371.114-.397.373-.07.118.153.164.3.174.61l.004.3c.007.33.046.4.2.502a.86.86 0 0 0 .486.109c.198-.015.287-.068.402-.277l.11-.22c.063-.13.12-.266.15-.356l.029-.096c.031-.088.088-.081.306.106l.493.445c.31.26.706.53.95.648.797.393 1.057.343.881-.167l-.03-.089c-.083-.27.004-.287.376-.026l.443.324c.326.226.726.465.964.577.408.195.584.242 1.074.243l.39-.003c.458-.009.625-.056.985-.232.604-.3.822-.677.68-1.186-.102-.377-.429-.677-.73-.677-.462 0-.923.56-.83 1.01.041.235.033.243-.252.243-.478 0-1.493-.476-2.684-1.262l-.476-.309a44 44 0 0 0-.711-.443l-.532-.317c-.754-.406-1.986-.826-2.975-1.01zm1.526 18.082c-.36-.167-.805-.184-1.342-.067l-.294.077c-.683.193-1.62.538-1.794.675q-.403.317-.227 1.17c.11.5.366.97 1.027 1.838l.358.467c1.133 1.518 1.272 2.422.662 3.803l-.095.197c-.146.28-.261.33-.645.259l-.292-.063c-.797-.184-1.291.117-1.728 1.053l-.092.205c-.097.23-.152.41-.126.43.023.022.138.03.29.027l.247-.01c.376-.034.462-.051.739-.343l.372-.409.176-.182c.4-.397.501-.363.237.099l-.304.502c-.087.152-.146.274-.146.308 0 .036.107.063.28.076l.24.007.225-.003c.285-.013.356-.071.596-.33.168-.185.378-.469.47-.628.151-.284.285-.384.285-.209 0 .036-.055.191-.14.387l-.363.8.797-.033c.73-.034.813-.05 1.04-.268.164-.156.268-.365.383-.761l.256-.906.173-.562.06-.23a3 3 0 0 0 .054-.275l.005-.057c0-.118.157-.33.53-.71l.25-.25c.712-.71 1.081-1.237.947-1.371-.025-.033-.394.05-.813.184l-.179.057c-.492.154-.599.158-.652.068-.11-.17-.101-.364.07-.886l.208-.596.097-.304a6 6 0 0 0 .166-.657l.028-.227c.026-.293-.023-.391-.317-.823-.361-.528-1.06-1.176-1.582-1.46zm-25.487.51c-.075 0-.302.259-.46.526l-.08.122c-.284.407-.516.397-.516-.055 0-.184-.26-.426-.445-.426-.293 0-.478.31-.478.777 0 .544.093.69.663.72l.753.015c.233.013.261.051.261.15a.33.33 0 0 1-.055.195l-.06.053a.3.3 0 0 0-.052.17c0 .072-.105.175-.283.276l-.233.126q-.25.149-.29.317c-.075.31.076.418.58.418h.435v.334c0 .276-.033.335-.21.376l-.09.033c-.164.082-.19.252-.064.428l.118.141c.047.06.102.137.158.217l.283.425.087.108c.04.043.07.069.087.069.132 0 .297-.198.336-.382l.017-.152c.02-.074.072-.13.16-.181l.074-.037c.135-.05.31-.167.395-.26.134-.15.134-.166-.009-.325-.084-.092-.226-.167-.31-.167-.118 0-.151-.039-.141-.222l.024-.252c.018-.11.056-.137.183-.132l.58.048c.4.026.424-.019.444-.203.017-.117-.05-.309-.15-.434-.133-.168-.22-.215-.47-.224l-.333-.006c-.195-.014-.214-.073-.28-.313l-.036-.131c-.126-.492-.034-.618.512-.6l.625.04c.297.013.38-.014.45-.111.118-.168.018-.577-.184-.794-.1-.109-.15-.109-.41.016l-.16.07c-.36.142-.574.094-.754-.16l-.127-.2c-.098-.14-.224-.271-.318-.311l-.148-.065zm3.816-3.819-.128-.173-.177-.232c-.374-.469-.493-.455-.86-.238-.403.242-.495.485-.32.819l.051.12a.42.42 0 0 1-.008.314.66.66 0 0 0 0 .401.42.42 0 0 1 .009.318l-.079.185q-.046.145.011.25l.03.082a1 1 0 0 1-.005.369 6 6 0 0 0-.075.701l-.011.138c-.023.179-.075.334-.149.414-.11.123-.13.156.092.247l.437.166c.592.24.968.566 1.677 1.417l.384.451c.935 1.093 1.203 1.325 1.51 1.305l.119-.018c.528-.117 1.09-.869.973-1.312-.02-.081-.175-.309-.379-.562l-.454-.545a7.2 7.2 0 0 1-.981-1.705l-.211-.522c-.286-.652-.815-1.52-1.456-2.39m-2.071 2.666c-.082-.126-.357-.166-1.176-.147l-1.013.038-.321.017c-.617.036-.749.078-.887.209-.213.22-.156.468.133.624l.094.044c.215.093.37.107.974.035l.821-.105.355-.053c.582-.096.8-.19.953-.353.097-.104.125-.174.093-.257zm-.193-1.053c-.092-.109-.269-.134-.923-.125l-.22.005c-.89.027-1.836.117-1.96.187-.151.092-.11.367.067.468.402.209 2.625.025 2.969-.25.13-.108.154-.154.1-.239zm-1.627-1.053-.66.004-.293.007c-.607.025-.685.104-.59.35l.15.333 1.57-.065c.549-.027 1.028-.068 1.14-.102.318-.1.478-.335.301-.443-.067-.042-.796-.084-1.618-.084m.884-1.081H6.435l-.255.008c-.447.022-.525.082-.501.241l.023.105c.058.217.299.29 1.164.306l.705.002.361-.01c.944-.038 1.218-.184 1.049-.507-.057-.1-.156-.134-.81-.145m-2.377-2.295c-.478-.326-1.099-.041-1.208.56-.117.602.361 1.086 1.2 1.203.78.109 2.952.084 3.304-.041.68-.243.847-.844.369-1.32-.453-.452-1.065-.343-.94.158a.5.5 0 0 1-.066.36l-.05.053c-.107.093-.292.105-.982.105l-.375-.006-.357-.015a8 8 0 0 1-.296-.021l-.196-.025-.327-.066.075-.541c.022-.211.001-.283-.096-.363zM8.536 7.858c-.035-.036-.563.575-.948 1.088l-.192.265c-.42.61-.747 1.37-.847 2.006l-.019.184c-.03.413-.057 1.352-.08 2.757l-.077 9.3h1.685l.042-.276c.015-.085.037-.585.057-1.279l.078-3.667.051-2.065c.028-1.042.059-2.084.091-3.064l.154-4.249.015-.699-.002-.236zm14.132 3.066c-.017 0-.071.075-.138.181l-.202.344a6 6 0 0 1-.348.503l-.252.31-.369-.452c-.276-.334-.47-.485-.763-.585l-.259-.072c-.1-.024-.174-.034-.194-.02-.024.012-.069.169-.111.386l-.076.434c-.064.328-.124.475-.19.475-.059 0-.252-.14-.457-.327l-.224-.21a1.64 1.64 0 0 0-.679-.38l-.15-.044c-.302-.083-.562-.133-.587-.117-.01.015-.005.082.01.172l.07.36c.037.365-.118.737-.39.906-.277.183-2.65.727-3.153.727l-.184-.003c-.232-.011-.274-.06-.206-.267l.132-.341c.164-.467-.002-.643-.556-.643-.68 0-1.216.568-1.216 1.279 0 .718.789 1.896 1.267 1.896.092 0 .369-.192.612-.417l.444-.418.059.35c.067.427.402 1.062.721 1.363.185.175.344.234.73.267l.495.042.352-1.145.176.376c.092.21.176.493.176.644 0 .2.042.275.193.317.855.243 1.107.56 1.048 1.362l-.016.204c-.02.192-.049.337-.068.356-.016.017-.111-.011-.24-.066l-.298-.141c-.359-.158-.93-.275-2.059-.407l-2.556-.268-.515-.067c-.184-.024-.177.006-.118.247.019.09.035.288.046.521l.012.557-.003.317c-.012.37-.05.547-.149.75l-.086.174c-.07.153-.098.263-.063.263l.063-.01.2-.053.357-.104c.587-.184 1.057-.593 1.275-1.12l.109-.259.092.234c.05.134.092.41.092.619 0 .317-.042.417-.293.668l-.294.293.6-.078c.526-.07.633-.138.654-.544l.004-.256c0-.342.202-.894.319-.894.143 0 .176.234.126.769l-.011.17c-.016.307.013.414.128.557.192.237.406.194.44-.06l.015-.174c.05-.303.287-.844.384-.844.028 0 .056.099.064.228l.004.178c.007.2.05.212.284.212l.096.006c.169.017.212.077.298.32l.063.156c.2.44.64 1.061.893 1.24l.134.09c.149.093.188.084.15-.041l-.073-.209c-.114-.368-.29-1.29-.253-1.328.055-.054.166.042.444.422l.307.43.162.21c.403.51.78.878.698.651-.237-.646-.376-1.243-.38-1.547l.009-.234a1.4 1.4 0 0 0-.116-.492c-.168-.35-.21-.96-.084-.96.042 0 .126.2.176.45l.042.164c.065.215.163.41.277.53l.218.234.239-1.036c.022-.108.04-.217.051-.302l.016-.197c.012-.072.05-.088.13-.06l.16.05q.006 0 .042.045l.377.54c.218.317.444.584.52.584.06 0 .094-.032.088-.083l-.013-.042c-.092-.243-.234-1.22-.184-1.27.02-.021.083.045.151.155l.153.26c.318.517.78 1.078 1.004 1.189.243.125.336.075.16-.1-.11-.109-.328-.911-.328-1.22 0-.332.115-.28.225.073l.15.53c.135.433.264.634.59 1.018.495.576 1.283 1.245 1.476 1.245.075 0 .268-.192.42-.435.193-.304.241-.417.185-.456l-.11-.054c-.244-.156-.637-.645-.83-1.06l-.081-.15a4 4 0 0 0-.527-.686l-.315-.317c-.323-.33-.427-.495-.566-.899l-.1-.302c-.104-.324-.181-.645-.181-.755l-.012-.084c-.055-.21-.284-.484-.416-.484a.8.8 0 0 1-.21-.059c-.094-.031-.122-.02-.106.143l.031.217c.027.18.08.414.135.582l.041.111c.134.318.151.593.042.593-.033 0-.134-.167-.21-.376l-.043-.098c-.073-.153-.15-.248-.191-.227-.151.091-.646-.059-.906-.276-.321-.265-.386-.21-.182.165l.103.184c.084.161.132.298.104.32q-.137.145-.755-.093l-.629-.259.176.818c.013.09 0 .1-.043.07l-.108-.094a1.5 1.5 0 0 1-.276-.501 1.8 1.8 0 0 0-.319-.593c-.235-.251-.42-.56-.42-.677 0-.028.064.01.158.09l.161.144c.168.158.562.41.864.56l.248.112c.365.159.499.177.499.08 0-.184-.26-.978-.37-1.153-.198-.29-.049-.251.307.056l.525.473c.32.27.501.356.703.356.215 0 .233-.26.054-.65l-.106-.221-.063-.15c-.024-.064-.035-.107-.027-.115.012-.012.156.031.357.106l.842.337.128-.87.035-.274a10 10 0 0 0 .047-.527l.003-.097c.01-.122.04-.213.08-.213.028 0 .097.078.18.195l.13.198a9 9 0 0 0 .483.738l.207.28c.17.241.338.514.401.653l.063.146c.051.114.072.134.1.079l.047-.116c.042-.117.067-.635.05-1.153l-.016-.323c-.03-.522-.073-.684-.194-.847-.184-.24-.357-.277-1.005-.1l-.624.181c-.472.133-.68.148-1.105.111l-.192-.018c-.425-.033-.428.043.011.447l.248.223c.302.267.529.526.504.56-.063.104-.551.04-1.227-.143l-.426-.125a7.5 7.5 0 0 1-1.423-.614l-.816-.47c-.252-.142-.432-.236-.453-.236-.036 0 .009.086.096.2l.144.184c.318.457.228.888-.256 1.087-.348.143-.423.15-.606-.026l-.065-.066c-.16-.15-.21-.293-.21-.56 0-.304.035-.394.35-.709l.556-.544 1.14.746c.601.385 1.025.592 1.598.784l.411.13.21.06c.402.104.445.048.193-.178l-.186-.166a8 8 0 0 1-.54-.566l-.319-.4 1.142.075c.508.026.835 0 1.274-.093 1.09-.225 2.306-.869 2.306-1.22 0-.025-.175-.04-.425-.047l-.631-.005c-.48-.022-.684-.141-.938-.513l-.158-.24-.204-.284a3 3 0 0 0-.11-.139L22.771 11c-.049-.046-.088-.076-.103-.076m.704 3.928c-.142 0-.21.384-.21 1.161 0 1.111.487 2.248 1.1 2.557.36.191.496.172.471-.077l-.221-1.575c-.126-.8-.346-1.284-.77-1.774l-.126-.127c-.104-.097-.202-.165-.244-.165m-10.869 1.587c-.268 0-.201.385.11.669l.136.119c.38.313.753.418 2.14.536l1.444.11.378.038c.395.047.64.104.875.193l.587.24.05-.175c.067-.234 0-.568-.151-.744l-.086-.085c-.324-.282-.924-.402-2.61-.546l-.498-.04c-.825-.067-1.564-.145-1.855-.196l-.117-.027a1.4 1.4 0 0 0-.403-.092m5.67-2.248c-.151-.3-.31-.359-.537-.208-.336.234-.11.701.344.701.276 0 .352-.192.193-.493"/>
</svg>
