---
version: "0.0.4"
---
<svg>
  <path d="M26.478 47.616c4.995-.578 9.295-2.43 13.156-5.674a23.25 23.25 0 0 0 8.01-13.934l.03-.179c.28-1.652.326-2.31.326-4.088v-.15c-.007-2.205-.168-3.507-.695-5.635-.423-1.702-.924-3.065-1.72-4.7-1.35-2.765-3.025-4.979-5.284-7.009C36.174 2.542 31.223.445 25.671.045L25.624.04c-.76-.047-2.797-.057-3.456-.013l-.071.005c-.653.051-1.828.205-2.488.323-3.955.729-7.565 2.353-10.585 4.767A24.3 24.3 0 0 0 5.257 8.84c-2.13 2.609-3.705 5.763-4.562 9.145-.517 2.042-.69 3.499-.695 5.813v.358c.005 1.478.044 1.916.256 3.286a23.78 23.78 0 0 0 7.971 14.362c3.772 3.243 8.16 5.168 13.161 5.785 1.007.123 4.128.14 5.09.028m-6.786-.906c-6.687-1.235-12.622-5.446-16.02-11.365-2.754-4.8-3.717-10.547-2.665-15.915.767-3.932 2.47-7.504 5.05-10.624l.033-.039c.27-.317.728-.8 1.208-1.28l.134-.134a24 24 0 0 1 1.301-1.217A23.4 23.4 0 0 1 20.576.842l.261-.036C22.03.64 22.587.61 24.044.626l.21.003c.812.01 1.313.028 1.797.07l.058.005c.242.022.482.05.759.086 5 .656 9.261 2.57 12.85 5.774 3.08 2.748 5.267 6.097 6.552 10.03.807 2.47 1.213 5.228 1.13 7.732-.223 7.136-3.283 13.283-8.806 17.7-3.166 2.53-6.781 4.122-10.88 4.795-2.649.434-5.252.4-8.022-.111m6.386-41.003.261.017v-.222c.002-.103.022-.459.05-.89l.07-1.055c.027-.435.047-.791.047-.887v-.233h-.484l-.033.328-.004.033c-.014.131-.03.383-.045.664l-.013.26-.015.3c-.014.26-.03.487-.045.621l-.003.022c-.007.069-.015.108-.02.108-.017-.006-.373-.556-.784-1.224l-.751-1.218-.234-.006h-.228l-.039.345-.013.135c-.084.904-.208 2.698-.187 2.719.061.061.506.022.506-.045v-.012c.007-.24.173-2.163.19-2.18.01-.01.35.524.761 1.191l.746 1.213zm-5.925.262.096-.017c.284-.054.295-.087.36-.395l.023-.1a2 2 0 0 1 .083-.29c.023-.034.321-.102.627-.155l.094-.016c.196-.031.383-.054.492-.056.1 0 .167.078.3.345l.023.046c.086.174.162.316.172.326.005.006.136 0 .285-.02l.294-.04-.79-1.553-.346-.666c-.272-.52-.466-.88-.478-.88l-.005.001-.067.015-.057.011-.157.03-.309.054-.752 3.065-.043.172-.014.043c-.034.113-.016.11.17.08m9.674.395c.017-.017-.195-.434-.473-.935l-.495-.9.823-.624.824-.617-.306-.084-.306-.089-.673.529-.153.12c-.455.356-.545.394-.676.37-.123-.029-.156-.062-.14-.129l.006-.02c.019-.068.064-.25.114-.462l.042-.18c.15-.628.167-.578-.217-.656l-.178-.033-.14.6-.204.864c-.294 1.244-.399 1.726-.385 1.74.011.01.125.031.258.053l.265.041.156-.712.056-.259c.059-.262.107-.457.121-.474v-.001c.079-.078.223.128.64.923l.468.89.272.034.03.004c.139.019.26.022.27.007M20.86 4.6c-.01-.01.035-.262.103-.568l.105-.465c.118-.51.121-.41.304-.046l.024.047c.099.192.217.44.287.595l.145.32-.473.067-.07.01c-.23.033-.415.05-.425.04m-2.87 1.977.045-.013.045-.014.044-.014c.288-.092.564-.195.674-.261l.01-.006c.689-.423.639-1.363-.079-1.613l-.044-.015c-.133-.048-.127-.063-.056-.174.05-.072.1-.228.123-.35.039-.262-.117-.612-.34-.757-.15-.1-.584-.161-.778-.111l-.09.024-.537.156-.45.135a5 5 0 0 0-.22.069.6.6 0 0 0 .04.172l.009.027c.052.158.24.799.447 1.497l.065.224c.19.65.354 1.163.374 1.183.026.03.317-.039.642-.135zm-.707-1.804c-.028 0-.094-.167-.15-.378l-.048-.175-.074-.26c-.023-.066.478-.227.75-.238a.38.38 0 0 1 .306.121l.012.012c.178.178.183.434.01.606-.11.112-.628.312-.806.312m16.75 3.176c.572-.167 1.084-.834 1.14-1.485.077-.997-.626-1.792-1.595-1.797h-.03a2.4 2.4 0 0 0-.573.067c-.421.153-.859.63-1.01 1.09l-.008.022c-.039.117-.055.395-.044.612.055 1.113 1.04 1.803 2.12 1.491M17.66 6.13c-.028-.033-.091-.218-.148-.412l-.021-.072c-.058-.203-.103-.395-.087-.411.045-.05.713-.229.852-.234.066-.006.194.061.289.139a.44.44 0 0 1 .061.645c-.117.15-.868.423-.946.345m14.858.746q-.24-.5.028-1.04c.295-.59.962-.802 1.563-.49.406.211.629.74.512 1.224-.09.372-.473.778-.823.873a1.1 1.1 0 0 1-1.28-.567M13.75 8.556c.012 0 .274-.149.586-.33l.218-.126.414-.241.326-.194.08-.05c.072-.044.067-.083-.017-.272l-.1-.223-.645.39-.064.039c-.428.258-.583.323-.619.275l-.012-.019a89 89 0 0 1-.718-1.185l-.164-.271c-.298-.488-.529-.852-.548-.847-.015 0-.108.052-.214.122l-.05.034c-.176.118-.183.138-.109.244l.017.026c.047.075.168.273.328.538l.63 1.044c.362.595.646 1.045.66 1.045m21.221.595.2.194.438-.571c.203-.262.382-.475.408-.486.022-.01.267.173.54.401l.49.412.177-.167.173-.167-.523-.445-.054-.046c-.304-.258-.463-.43-.447-.477.039-.1.484-.69.517-.69.014 0 .177.128.392.305l.311.256c.231.19.413.33.427.33.022 0 .1-.068.183-.157l.145-.15-.74-.612-.183-.149a9 9 0 0 0-.612-.474c-.026-.01-.405.436-.862 1.023l-1.11 1.439-.003.003c-.022.032.03.126.133.228m-23.84 1.479.14-.121-.111-.412-.016-.054a3 3 0 0 1-.101-.413c0-.027.227-.213.507-.411l.572-.401.34.178.344.183.228-.15c.128-.083.217-.172.206-.2a3 3 0 0 0-.382-.235l-.126-.069-1.422-.786-.78-.427a6 6 0 0 0-.277-.146c-.011 0-.067.044-.128.089l-.03.024-.153.117-.037.026c-.085.066-.057.17.326 1.39l.3.967c.091.298.164.54.2.663l.031.116c.083.297.116.29.37.072m13.12 29.718h.1c.765-.009 1.507-.043 1.906-.101 3.22-.473 5.785-1.563 8.205-3.482.71-.567 2.127-1.988 2.69-2.708l.019-.024c2.191-2.831 3.304-5.785 3.532-9.35a16.3 16.3 0 0 0-.829-6.28c-1.424-4.184-4.556-7.688-8.555-9.563a16.7 16.7 0 0 0-4.64-1.435l-.16-.025c-.574-.086-.934-.115-1.864-.127l-.534-.006h-.157l-.126-.001h-.187c-.594.002-1.124.016-1.316.037-4.567.495-8.711 2.759-11.415 6.23-2.464 3.17-3.649 6.758-3.532 10.73.167 5.713 3.21 10.814 8.272 13.857 1.838 1.1 4.091 1.858 6.434 2.165l.074.01c.39.049 1.072.073 1.785.074zm-3.334-.891c-4.395-.879-8.178-3.532-10.57-7.398a15.3 15.3 0 0 1-2.052-5.124c-.762-3.654-.128-7.698 1.724-10.964l.067-.117c.765-1.333 1.49-2.274 2.626-3.41 1.54-1.546 3.22-2.647 5.284-3.47 1.257-.507 3.099-.952 4.422-1.08.813-.077 2.504-.066 3.31.023 4.723.506 8.895 2.942 11.554 6.758 1.591 2.28 2.496 4.696 2.768 7.422l.008.082c.116 1.18.077 2.815-.09 3.922a16.12 16.12 0 0 1-7.036 11.02c-1.33.873-2.275 1.335-3.788 1.84-2.57.857-5.53 1.035-8.227.496M10.853 9.106l-.002-.002a6 6 0 0 1-.13-.367l-.226-.687c-.023-.069-.04-.12-.05-.145l-.004-.011c-.016-.038.1.003.26.092l.066.038.542.31.086.048c.145.083.259.16.259.179 0 .045-.773.573-.801.545m12.371 7.682v-2.047l.24-.139c.522-.311.845-.729 1.045-1.374l.01-.036c.066-.214.147-.41.174-.442.032-.036.349-.188.676-.334l.137-.061c.294-.13.563-.24.605-.24s.064.483.063.99l-.001.108c-.004.432-.025.856-.062.989-.083.3-.462.656-.823.778l-.037.013c-.389.133-.437.252-.458 1.083l-.023.712h.846v-1.057l.295-.133c.378-.167.678-.468.868-.862l.022-.05c.024-.054.043-.101.06-.153l.007-.03c.054-.197.06-.48.072-1.414l.022-1.335.145-.117c.175-.142.183-.381.02-.854l-.01-.025c-.319-.925-1.172-1.67-2.177-1.89l-.03-.007c-.457-.1-1.107-.1-1.502-.005-1.096.267-2.098 1.29-2.292 2.336l-.004.024c-.028.192-.05.795-.056 1.464l-.001.15v.088l-.001.432c-.004 1.177-.038 1.314-.26 1.67-.173.283-.168.505.016.65.311.245.612.117.8-.35l.129-.3.328-.023.323-.017v1.808zm-14.09-3.894c.022-.005.111-.1.189-.211l.139-.206-.512-.417-.092-.075c-.24-.197-.426-.361-.43-.381 0-.022.094-.067.21-.106.157-.044.39-.044.88-.005l.662.06.205-.233.212-.234-.212-.038a10 10 0 0 0-.693-.046l-.113-.005-.127-.002c-.395-.01-.461-.026-.438-.091l.003-.007c.117-.289.14-.484.083-.678a.987.987 0 0 0-1.246-.662 1.5 1.5 0 0 0-.35.194 2 2 0 0 0-.156.143l-.026.026-.038.039c-.286.293-.692.767-.692.822s2.486 2.113 2.542 2.113m12.933 1.28h-.184l.022-1.89c.014-1.022.028-1.07.156-1.342.256-.545.685-.935 1.313-1.196.412-.167 1.024-.178 1.513-.028.44.14.773.34 1.024.612.189.206.456.662.417.7l-.003.003c-.046.027-.537.253-1.126.526l-.061.028-.109.05-.121.057c-.487.228-.883.431-.939.483-.072.066-.15.261-.205.54-.117.539-.34.9-.69 1.123-.306.195-.729.334-1.007.334m16.9-1.002a1 1 0 0 0 .216-.155l.178-.15-.753-.943-.096-.123-.002-.003c-.033-.044.267-.322.98-.906l.248-.204c.45-.37.786-.662.786-.68 0-.045-.295-.34-.345-.34-.017 0-.39.295-.834.65l-.106.087-.162.133-.241.196c-.287.231-.553.442-.693.547l-.043.033c-.196.155-.346.297-.34.323l.001.004c.027.052.296.403.574.756l.182.232c.235.295.436.541.45.543M8.281 11.177l-.183.176-.437-.356c-.192-.16-.347-.301-.347-.322.005-.066.315-.398.474-.506l.01-.006c.222-.15.373-.133.6.067.297.258.252.586-.117.947m-.489 3.392.178.105.174-.295c.07-.122.114-.223.104-.233l-.027-.017-.467-.272-.746-.432c-.63-.368-1.14-.682-1.14-.709s.11-.228.255-.445l.057-.088c.11-.175.187-.308.177-.318a3 3 0 0 0-.4-.194c-.012 0-.206.294-.429.65l-.048.08-.183.301-.436.704-.273.434.434.222.245-.389.027-.046c.118-.195.225-.343.245-.343h.002c.04.014.574.314 1.12.625l.432.248c.312.18.58.337.7.412m31.84-.462c.1-.045 2.67-1.747 2.67-1.769a1 1 0 0 0-.15-.211l-.155-.184-.751.484-.535.346-.811.522-.595.39.144.216.016.025c.073.11.147.186.168.181m-7.731 20.749c1.435-.445 2.609-1.558 2.931-2.787.111-.417.123-1.469.022-1.958-.272-1.34-1.012-2.57-2.008-3.36l-.294-.234-.128.156c-.073.083-.195.25-.279.362l-.15.21.373.396c.7.74 1.068 1.318 1.324 2.086.167.506.183 1.54.028 2.047l-.1.328-.187-.228c-.09-.106-.4-.43-.758-.79l-.138-.138-.141-.14-.075-.074c-.528-.523-2.026-2.06-3.55-3.637l-.42-.433-1.2-1.244a288 288 0 0 0-2.084-2.143L25 23.207l-.017-.016c-.111-.106-.2-.217-.2-.245s1.107-1.174 2.453-2.548l.386-.393c1.405-1.427 2.11-2.102 2.214-2.131l.426-.096c.154-.033 1.246-.496 2.439-1.03l1.371-.616c1.247-.562 1.283-.59 1.28-.658v-.021c0-.3-.818-1.218-1.641-1.836a8 8 0 0 0-.938-.572l-.058-.03c-.557-.298-1.143-.564-1.359-.598l-.01-.001c-.414-.055-.508.057-1.569 2.071l-.136.259c-.482.918-.55 1.159-.625 1.898l-.056.556-1.407 1.418-2.303 2.333-.162.165-1.056 1.073-2.715-2.76c-1.102-1.124-2.007-2.057-2.1-2.17l-.003-.004c-.122-.155-.15-.255-.183-.706a4.5 4.5 0 0 0-.123-.823c-.144-.49-1.457-2.882-1.763-3.21-.15-.161-.417-.156-.818.011-1.045.44-2.041 1.074-2.698 1.725l-.034.035c-.411.42-.816.993-.828 1.17v.028c-.001.058.06.094 1.367.689l1.48.673c1.76.797 2.292.998 2.582.998h.005c.08.017.524.432 1.475 1.382l.353.355q.359.36.799.805l2.514 2.537-.813.83-.785.802-1.965 2.01-3.61 3.7-1.244 1.27c-1.294 1.324-1.374 1.427-1.379 1.573v.028c0 .207.247.495.435.506h.027c.262.01.095.169 8.043-7.927l.558-.564c.291-.295.556-.562.777-.783l.307-.306c.222-.22.355-.35.36-.35.009 0 .108.094.263.248l.106.105.156.157q.182.183.395.403l.92.95c3.715 3.833 4.616 4.702 6.349 6.187l.099.086c.38.334.724.662.78.76l.018.03c.094.151.094.184.02.325-.144.278-.628.768-1.028 1.04-.362.247-1.308.63-1.585.64h-.012c-.1 0-.128.04-.144.2-.017.128 0 .212.044.229.117.044 1.08-.1 1.469-.217m9.69-18.235c.395 0 .823-.378.823-.728v-.037c.002-.113.02-.107.156-.036.334.173.812.04 1.018-.289.136-.223.15-.568.03-.869l-.008-.021a8 8 0 0 0-.2-.432l-.043-.087-.065-.13c-.157-.31-.313-.597-.332-.597a4 4 0 0 0-.351.183l-.33.184-.692.379-.226.121-.127.069-.187.099-.912.49.294.589c.44.879.685 1.112 1.152 1.112m1.174-1.223c-.223 0-.401-.162-.623-.557l-.173-.311.378-.206c.206-.111.406-.206.445-.206s.162.184.267.406l.044.094c.126.277.135.353.09.474-.078.205-.211.3-.428.306m-1.208.667c-.244 0-.406-.15-.64-.567l-.172-.323.429-.217.434-.217.178.34c.105.2.178.433.183.55 0 .273-.156.434-.412.434M6.213 18.513c.017 0 .073-.112.123-.25l.027-.082c.054-.171.041-.18-.066-.22l-.036-.012c-.124-.045-.499-.186-.922-.343l-.276-.102c-.453-.17-.79-.306-.774-.32.01-.015.197-.066.44-.125l.893-.219.564-.14.79-.207.094-.272.01-.03c.044-.137.067-.255.057-.265l-.002-.001a17 17 0 0 0-.868-.344l-1.853-.704-.15-.058-.014-.006c-.072-.027-.117.023-.19.223l-.01.027c-.05.128-.078.235-.067.246a.2.2 0 0 0 .037.019l.04.016c.166.07.58.227 1.052.404l.217.081c.568.215.842.34.787.363l-.008.002c-.08.023-.701.176-1.396.344l-.448.11c-.866.213-.913.253-.97.545l-.02.108-.001.007-.001.007v.007c-.006.108.142.17 1.44.651l1.01.368c.25.09.424.152.476.168l.006.002zm36.02.885.171-.079-.217-.695c-.117-.378-.2-.707-.172-.729.02-.021.203-.086.39-.146l.086-.027c.177-.055.337-.098.347-.088l.003.01.023.068c.034.108.097.314.163.55l.158.527.02.063.006.021.004.01.001.002c.028.034.423-.105.423-.15v-.005a14 14 0 0 0-.235-.801l-.04-.128-.05-.159-.037-.114c-.022-.078.807-.373.868-.306a.6.6 0 0 1 .049.11l.008.022c.04.107.095.269.153.451l.064.204c.14.442.197.558.26.537l.02-.008a3 3 0 0 1 .182-.055l.015-.004c.072-.016.134-.061.134-.089v-.004a19 19 0 0 0-.279-.936l-.067-.209c-.17-.518-.244-.67-.308-.67h-.003c-.05 0-.267.067-.484.14l-.057.02c-.197.07-.597.204-1.018.34l-.143.045-.152.049-.076.024-.847.276a3 3 0 0 0-.227.08c-.01.005.091.366.231.826l.111.359c.237.76.27.783.522.668m-36.409.917.056-.277c.088-.442.148-.775.139-.78a1.5 1.5 0 0 0-.24-.045l-.222-.038-.161.784-.028.138c-.106.52-.149.636-.214.62l-.014-.005a9 9 0 0 0-.456-.091l-.038-.006q-.344-.058-.318-.122c.011-.03.029-.1.05-.193l.007-.034c.026-.12.057-.272.086-.423l.025-.133c.05-.266.087-.498.076-.508-.01-.016-.11-.039-.216-.055l-.195-.034-.117.562-.025.119a7 7 0 0 0-.097.546v.008c0 .061-.028.112-.062.112h-.007a6 6 0 0 1-.325-.045l-.113-.017-.155-.025a3 3 0 0 1-.273-.053v-.008l.001-.008c.01-.076.07-.408.15-.796l.031-.148c.077-.366.129-.654.124-.664l-.004-.001a3 3 0 0 0-.235-.049l-.228-.033-.212 1.068-.093.496c-.063.34-.103.575-.096.583l.01.003c.077.016.56.108 1.177.22l1.18.212.715.132.01.002c.097.02.124-.075.307-1.014m36.987 1.89.087-.086.123-.124.14-.142.104-.105.153-.153c.117-.116.193-.19.199-.19.01 0 .022.034.022.078 0 .145.356.462.595.534.305.093.679.03.893-.139l.014-.011c.35-.29.39-.534.267-1.535l-.067-.54-.195.006-.026.001c-.148.012-.614.066-1.096.13l-1.232.166-.255.036-.467.061.04.262.038.231.006.03a1 1 0 0 0 .132-.011l.023-.003c.094-.012.22-.03.356-.052l.178-.027c.56-.082.629-.065.629.077 0 .083-.178.3-.556.678l-.125.125c-.38.384-.43.462-.426.62l.004.12c.016.334.06.341.442-.037m1.456-.774-.016-.01c-.195-.11-.278-.294-.317-.667l-.034-.283.384-.04.072-.005c.171-.016.322-.037.361-.048l.007-.002c.128-.044.183-.022.217.095.016.072.033.283.033.472v.073c-.004.242-.028.292-.145.384-.173.135-.357.15-.562.031M4.673 24.526c.42-.208.642-.469.777-.92l.007-.026c.111-.361.083-.923-.061-1.274l-.025-.06c-.072-.165-.1-.173-.322-.173h-.276l.1.289c.172.506.122 1.051-.128 1.38-.412.533-1.38.528-1.786-.012-.301-.4-.31-.945-.019-1.456l.036-.062c.063-.112.107-.205.101-.216v-.001a1 1 0 0 0-.251-.073l-.234-.06-.133.233a1.8 1.8 0 0 0-.278 1.035q.01.961.878 1.396l.045.02c.278.133.397.158.756.158h.052c.347.003.447-.024.76-.178m37.798-.829 1.574-.017.47-.003c.63-.006 1.1-.015 1.126-.024.017-.006.023-.128.012-.268l-.023-.255-1.553.013a42 42 0 0 0-1.284.026l-.322.022zm-.379 3.605h.004c.063-.008.633-.151 1.295-.328l1.304-.346.243-.063.247-.061c.225-.059.24-.093.296-.407l.024-.132c.022-.134-.057-.183-1.471-.933l-.732-.383a22 22 0 0 0-.798-.407c-.016 0-.032.06-.033.139v.011c0 .09-.017.206-.034.267l-.002.01c-.015.089.048.14.364.296l.054.026c.243.118.334.19.319.247l-.003.009a8 8 0 0 0-.086.54l-.006.04-.022.169c-.072.525-.103.56-.42.628l-.047.01c-.19.039-.373.1-.418.134-.105.083-.172.534-.078.534m1.347-.902c-.006-.01.027-.25.078-.534l.083-.511.59.311.088.046c.286.15.526.284.546.305.022.022-.273.122-.662.217l-.123.03c-.332.084-.59.141-.6.136M5.69 30.461l-.212-.623-.211-.628.506-.384.5-.384-1.234-.033-.212-.646-.217-.65-.433 1.245h-.746c-.35.002-.623.018-.623.04 0 .026.213.196.486.397l.102.076c.294.219.456.369.442.42l-.01.03c-.074.222-.297 1.015-.297 1.079 0 .039.217-.095.484-.29l.063-.047c.236-.177.446-.314.471-.314.028 0 .295.161.595.356zm22.684 3.404c.156-.561.145-1.73-.022-2.297a4.5 4.5 0 0 0-3.177-3.104c-.55-.144-1.474-.183-1.952-.083-1.713.367-3.054 1.602-3.51 3.237l-.013.047c-.084.317-.11.572-.115 1.06 0 .81.091 1.216.46 1.985l.044.093c.226.463.33.608.759 1.037.745.746 1.507 1.146 2.486 1.302 2.248.367 4.44-1.063 5.04-3.277m13.951-2.202.14-.1c.21-.147.376-.256.394-.256h.003c.033.012.275.169.542.361l.093.063c.239.162.419.273.419.249v-.004a9 9 0 0 0-.167-.591l-.094-.322a4 4 0 0 1-.073-.263c0-.016.212-.2.473-.406l.177-.143c.176-.144.31-.257.318-.274.011-.014-.1-.024-.273-.025h-.03l-.06.001a7 7 0 0 0-.238.007l-.634.023-.089-.245-.016-.042-.1-.28-.058-.168-.064-.185c-.071-.203-.13-.306-.151-.26l-.1.266-.07.189-.047.13-.184.5-.69.028-.684.028.527.412c.22.171.42.321.469.362l.006.005c.044.032.045.104-.009.32l-.007.03-.044.164-.035.125c-.07.252-.129.477-.149.574l-.002.014a.1.1 0 0 0-.005.035c.011.023.24-.122.512-.322M22.88 36.19a3.78 3.78 0 0 1-2.292-2.32l-.016-.049c-.13-.38-.15-.529-.15-1.041v-.072c-.001-.655.071-.944.361-1.514.512-1 1.446-1.735 2.498-1.974.54-.123 1.368-.078 1.88.1.578.2.979.45 1.43.9.45.452.756.947.934 1.503.145.473.172 1.496.044 1.947-.35 1.251-1.463 2.325-2.709 2.62-.561.133-1.485.083-1.98-.1m2.799-3.43.016-.014c.284-.244.39-.567.356-1.095l-.004-.053c-.032-.444-.14-.683-.386-.865-.216-.162-.678-.184-.967-.045-.334.153-.49.49-.495 1.062v.028c0 .365.02.48.13.676l.009.014c.172.312.361.45.656.49.299.038.465-.01.685-.198m-1.964-.03.022-.021c.157-.151.179-.21.2-.508l.006-.1c.014-.237-.008-.264-.206-.462l-.038-.037c-.174-.17-.226-.185-.496-.185-.172 0-.354.026-.422.058l-.032.016c-.079.038-.082.015-.05-.156l.012-.058c.02-.1.043-.186.052-.21.011-.023.245-.04.523-.04h.495v-.389h-.841c-.476.002-.497.017-.522.123l-.008.038c-.064.307-.13.768-.13.89 0 .208.209.298.38.169l.009-.007c.183-.15.528-.134.695.039.435.43-.247.946-.725.568l-.04-.033c-.13-.102-.171-.11-.286-.057l-.022.012c-.068.036-.123.08-.123.1 0 .022.09.116.195.21.395.346.996.362 1.352.04m1.412-.145c-.478 0-.684-1.057-.289-1.457.167-.167.25-.184.462-.106.161.061.317.417.317.718 0 .495-.206.845-.49.845M7.443 36.63l.15-.122-.39-.568-.394-.567.367-.247c.172-.115.315-.199.327-.193h.001c.006.006.156.223.334.473l.055.078c.154.219.28.384.3.384a.6.6 0 0 0 .173-.106l.134-.105-.3-.434-.142-.203-.204-.298c-.033-.061.501-.473.607-.462.028 0 .189.19.356.418l.247.336c.061.083.107.143.125.164.048.064.086.072.158.033l.073-.041c.183-.107.182-.143-.092-.512l-.261-.351-.283-.372-.096-.123-.01-.013-.123-.15-1.05.752-.37.262c-.188.132-.357.25-.471.326l-.45.312.511.723.141.202c.214.303.38.526.393.526.017.006.095-.05.184-.122m18.917-1.89c.29-.19.24-.412-.128-.584-.11-.056-.2-.134-.2-.178 0-.104.272-.143.388-.056l.007.006c.061.05.078.044.078-.05 0-.228-.5-.256-.645-.04l-.016.025c-.067.107-.062.134.016.254.048.074.167.17.274.216l.015.006c.111.045.19.112.178.15-.033.095-.317.128-.395.05-.095-.094-.15-.072-.15.05 0 .167.395.268.578.15m-2.859-.067c0-.057-.059-.08-.218-.083h-.088c-.167-.003-.192-.021-.194-.123v-.016c0-.116.02-.137.168-.14h.026c.134 0 .195-.027.195-.083 0-.054-.057-.081-.18-.083h-.04c-.145-.002-.168-.022-.17-.13v-.026c.003-.105.029-.12.208-.122h.075c.16-.003.218-.026.218-.084 0-.067-.078-.083-.361-.083h-.362v1.056h.397c.255-.001.326-.02.326-.083m-1.135.078c.164-.082.226-.255.087-.225l-.05.013c-.25.061-.364.052-.46-.033-.138-.128-.144-.423-.01-.545.116-.106.372-.128.428-.039.028.045.061.039.117-.005.13-.11-.012-.214-.297-.217h-.015c-.228 0-.286.02-.402.16l-.01.012c-.267.317-.144.773.24.89l.035.01c.148.04.219.036.337-.021m3.038.005-.017-.433-.022-.429.155-.016c.084-.012.15-.05.15-.1 0-.06-.087-.077-.405-.078h-.079c-.318 0-.405.019-.405.077 0 .05.066.09.178.1l.172.017-.022.862zm-1.597 0c.054 0 .082-.084.094-.32l.017-.364.267.345.044.055c.339.42.385.375.385-.244v-.083c-.003-.354-.022-.445-.084-.445-.055 0-.083.089-.094.344l-.017.345-.3-.372c-.144-.176-.291-.317-.323-.317-.055 0-.072.139-.072.507v.104c.002.354.02.445.083.445m16.682 2.237.006-.011c.384-.74-.161-2.036-1.046-2.476-.334-.167-.595-.172-.912-.033-.456.211-.707.862-.49 1.29.279.551.83.796 1.33.584.195-.083.373-.294.462-.561l.06-.167.118.267c.12.261.276.88.283 1.12v.014c0 .175.091.162.19-.027m-1.485-1.068c-.55 0-.756-.762-.272-1.024.2-.108.331-.111.528.006l.017.01c.233.14.34.446.245.68-.095.222-.262.328-.518.328m-29.131 2.27c.152-.252.14-.535-.045-.95l-.01-.024c-.19-.417-.212-.684-.068-.812.23-.209.618-.011.778.4l.092.237.026.069c.031.083.052.079.164-.067l.056-.074c.114-.152.113-.18.041-.354-.283-.668-.929-.99-1.407-.695-.379.23-.438.607-.193 1.238l.028.07c.182.467.188.659.026.772-.386.27-.924-.169-.934-.75v-.018c0-.105-.034-.217-.078-.25-.058-.047-.101-.025-.209.114l-.04.051c-.13.171-.132.202-.069.436.149.576.546.952 1.031.989l.02.001c.373.028.613-.095.79-.384m28.803.8c.161-.289.195-.556.128-.934-.206-1.102-1.107-1.892-1.858-1.613-.271.097-.416.227-.536.486l-.01.02c-.2.434-.105.867.246 1.179.49.43 1.193.298 1.45-.266l.026-.06c.05-.108.06-.103.109-.013.093.18.175.664.178 1.055v.07c.005.395.074.414.267.076m-1.357-1.068c-.217 0-.518-.245-.529-.428-.022-.334.078-.534.312-.634.206-.084.361-.05.54.111l.023.021c.14.13.16.186.149.413-.011.328-.195.517-.495.517m-26.584 2.33c.033 0 .334-.333.667-.75l.651-.792.111-.131.145-.178.334.255.328.262.323-.334-.167-.122a72 72 0 0 1-.868-.684l-.706-.568-.295.306.667.579-.784.945-.784.951.16.134c.09.072.19.128.218.128m25.894.151c.217-.779-.223-1.963-.846-2.292-.189-.1-.628-.1-.85 0-.661.298-.777 1.135-.234 1.627l.016.014c.4.356.907.345 1.263-.022l.19-.195.033.245c.022.134.01.462-.023.729l-.007.074a5 5 0 0 0-.023.358v.038q.002.04.008.047c.061.067.406-.39.473-.623m-1.28-.868c-.495 0-.7-.561-.328-.906.228-.212.501-.206.724.01.344.346.105.896-.395.896m-21.482 2.832.222.111.066-.343c.043-.225.127-.708.211-1.2l.116-.684c.068-.41.119-.727.119-.755 0-.06-.373-.356-.445-.35l-.003.002c-.046.028-.51.376-1.085.819l-.576.444c-.457.354-.784.613-.784.626 0 .017.09.09.195.162l.195.128.306-.229.097-.07a1.4 1.4 0 0 1 .242-.158c.022 0 .261.128.534.284l.5.29-.033.283-.01.073c-.022.137-.047.277-.056.333-.028.1.01.14.189.234m20.665-.44.172-.111c.095-.061.167-.139.156-.178l-.001-.004a28 28 0 0 0-.654-1.128l-.262-.435c-.284-.47-.527-.864-.54-.864-.017 0-.19.212-.384.473l-.356.473.317.328.323-.523.111.147c.06.083.286.444.528.846l.078.13zm-20.704-.912a4 4 0 0 1-.268-.153l-.06-.037c-.208-.13-.397-.267-.39-.288.01-.029.202-.195.41-.367l.07-.057.119-.095c.172-.137.322-.249.35-.254h.002c.026-.006.033.05.02.123l-.014.079-.09.473-.028.143c-.048.25-.1.444-.121.433m2.48 2.359c.29 0 .574-.156.707-.384.145-.25.14-.618-.005-.818l-.117-.161.172-.056c.24-.078.428-.373.428-.679 0-.352-.211-.562-.888-.856l-.052-.022a22 22 0 0 0-.584-.25l-.567 1.362-.562 1.363.256.117c.478.217 1.007.384 1.213.384m15.176.066c.272-.139.422-.294.595-.623.361-.7-.1-1.83-.84-2.052-.29-.084-.523-.073-.951.044l-.341.098c-.628.181-.665.21-.637.33l.004.017c.022.09.17.503.343.974l.102.273c.242.648.496 1.308.523 1.334.045.045.868-.222 1.202-.395M16.61 41.71c-.139 0-.617-.19-.617-.24 0-.016.039-.122.089-.239l.076-.187.05-.123.013-.034c.06-.156.128-.156.467.033l.047.026c.197.11.232.163.248.313.022.228-.162.45-.373.45m2.698 2.653a.7.7 0 0 0 .078-.2l.017-.061c.033-.122.012-.136-.317-.215l-.194-.048c-.52-.128-.67-.188-.674-.257v-.003c0-.045.317-1.273.494-1.924l.048-.174.047-.166c.017-.067-.022-.106-.128-.128l-.151-.04-.031-.008-.062-.019h-.005c-.068-.006-.149.226-.413 1.209l-.142.532c-.156.593-.267 1.036-.258 1.04.026.021.396.13.784.236l.148.04.241.065c.284.075.51.13.518.121m11.32-1.04c-.023 0-.22-.48-.402-.957l-.07-.183c-.14-.372-.257-.703-.257-.751 0-.028.156-.1.35-.167.39-.123.74-.117.952.022.35.223.584.768.512 1.163-.056.3-.368.623-.735.762l-.077.027a2 2 0 0 1-.273.084m-2.688 1.182.05-.008c.247-.042.61-.116 1.036-.212l.07-.016c.255-.06.303-.092.303-.19v-.018c-.009-.252-.074-.262-.63-.142l-.24.054c-.523.115-.512.085-.571-.222l-.045-.216c-.075-.372-.03-.346.507-.451l.545-.111-.034-.195-.004-.026a2 2 0 0 0-.04-.186c-.011-.01-.245.034-.518.095l-.269.054c-.152.03-.267.052-.292.052-.056 0-.25-.707-.212-.785.01-.016.274-.083.595-.153l.169-.036c.373-.08.48-.123.454-.178a.6.6 0 0 1-.027-.173v-.016c0-.092-.057-.12-.327-.078l-.045.007c-.152.026-.364.072-.657.138l-.548.131a2 2 0 0 0-.192.052c-.023.028.578 2.81.617 2.854.014.014.124.004.305-.025m-7.408.053.239-1.407.025-.153c.113-.705.185-1.273.164-1.288a.7.7 0 0 0-.24-.073l-.2-.027-.286 1.697c-.106.641-.177 1.14-.165 1.161h.001a.8.8 0 0 0 .245.062zm4.15.267-.023-.612-.017-.612.167-.028.017-.002c.086-.009.28-.023.485-.037l.11-.007.067-.004.229-.012c.358-.016.324.037.372.713l.039.49h.226c.268-.003.258-.057.18-1.14l-.067-.858c-.02-.26-.039-.472-.05-.578l-.01-.116c-.025-.28-.05-.262-.363-.218l-.15.023.033.6.04.601-.268.034a6 6 0 0 1-.667.038h-.406l-.078-1.168h-.5l.033.345.004.05c.015.204.036.627.052 1.027l.013.336c.016.405.04.786.059.896l.006.05c.023.176.042.188.22.189zm-2.042-.022c.673-.106.979-.94.5-1.363a4 4 0 0 0-.572-.367l-.04-.022c-.427-.23-.53-.397-.38-.603l.02-.026c.088-.113.15-.128.41-.123.232.006.359.042.518.145l.24.156v-.292c-.002-.21-.02-.226-.234-.32-.334-.145-.751-.184-1.007-.09-.273.101-.373.19-.467.407l-.013.03c-.175.449-.011.713.68 1.121l.037.022c.277.162.494.324.513.386v.004c.05.178-.1.45-.26.49-.261.065-.622-.008-.877-.182l-.264-.186v.546l.284.122c.367.156.59.19.912.145m-6.44-1.875h-.013c-.194 0-.656-.178-.684-.261-.005-.028.056-.223.15-.423l.162-.362.344.15c.19.078.384.2.429.273.175.263-.05.624-.387.623"/>
</svg>
