---
version: "3.0.7"
---
<svg>
  <path d="m9.66 35.101.45-.216a119 119 0 0 0 3.316-1.657l.155-.082c5.576-2.934 10.541-6.094 15.12-9.637l.174-.135c3.875-3.007 7.365-6.488 9.379-9.352 1.387-1.978 2.273-4.027 2.371-5.46.178-2.826-1.908-5.52-5.606-7.232l-.213-.098c-.337-.153-.597-.247-.597-.223 0 .036.232.305.51.609.682.735 1.27 1.657 1.58 2.476l.055.147c.202.556.226.766.226 1.726v.204c-.004.879-.04 1.024-.34 1.9-1.53 4.43-6.82 9.969-14.3 14.972-4.67 3.118-10.76 6.035-17.463 8.368l-2.645.911-.032.011c-.094.035-.053.119.755 1.914l.067.15.177.394.22.487c.532 1.166 1.034 2.228 1.075 2.263.089.094 2.813-1.121 5.565-2.44M4.075 30.23c.068-.067.048-.3-.073-.817l-.025-.105c-.985-4.099-.797-7.875.582-11.705A19.74 19.74 0 0 1 18.324 5.126l.15-.038c1.258-.313 2.229-.458 3.787-.561 3.97-.266 7.842.564 11.158 2.387l.188.104c.493.271.927.47.987.444.241-.09.617-.967.635-1.45l.001-.064c.006-.67-.19-.836-1.693-1.591-2.38-1.19-4.859-1.889-7.696-2.148l-.06-.005a32 32 0 0 0-1.848-.063l-.243-.003-.333-.001h-.288c-.638.003-1.21.017-1.524.045-2.9.26-5.602 1.011-8.143 2.264-2.47 1.217-4.27 2.524-6.176 4.484-1.737 1.79-2.936 3.493-4.032 5.752l-.048.1a21.7 21.7 0 0 0-2.005 6.829c-.188 1.584-.188 4.063 0 5.54q.024.197.065.444l.014.083.026.148c.213 1.206.616 2.928.727 3.038.08.072 1.97-.5 2.103-.635m3.41 13.863c.083 0 1.48-.824 2.862-1.675l.335-.208c.412-.256.813-.508 1.167-.736l.409-.263c.967-.62 2.344-1.493 3.246-2.067 9.575-6.06 16.484-10.874 20.36-14.185 3.087-2.65 5.646-5.406 7.221-7.786 2.444-3.714 2.56-7.124.296-9.37l-.052-.052c-.33-.332-.717-.66-.879-.744l-.304-.17.053.214c.761 2.792-.358 5.943-3.49 9.836-2.488 3.096-6.13 6.452-10.184 9.405-5.37 3.907-14.79 9.385-21.456 12.49l-.451.21c-.675.316-1.214.577-1.254.617-.031.031.474 1.152 1 2.265l.214.451c.451.942.864 1.768.907 1.768m23.5-13.066c.851 0 2.847-.269 3.885-.529.546-.143 1.37-.42 1.826-.635 2.264-1.02 5.62-3.311 6.926-4.725 2.461-2.676 3.768-5.916 3.616-9.012l-.008-.153-.005-.077-.008-.117c-.064-.849-.209-1.7-.32-1.81-.026-.018-.178.331-.348.788-.43 1.208-1.656 3.615-2.497 4.886-1.387 2.13-2.595 3.607-4.376 5.387-2.65 2.64-5.155 4.35-8.243 5.603l-.94.385zm-3.94 15.812.048-.008c2.636-.423 4.665-1.046 6.744-2.075l.093-.046c5.558-2.747 9.63-7.428 11.554-13.236.85-2.542 1.19-4.716 1.145-7.303l-.027-1.53-.486.867c-.257.45-.76 1.201-1.142 1.72l-.104.138c-.415.563-.63.932-.639 1.079v.008c0 .86-.734 3.714-1.351 5.272-2.757 6.926-8.842 11.723-16.234 12.77-1.164.17-4.01.17-5.236.01-2.577-.35-5.414-1.28-7.177-2.346l-.52-.313-.644.394-.195.116-.157.093-.446.26-.297.17-.07.04c-.237.136-.418.273-.4.323.03.094.688.51 1.447.938l.08.044q.078.045.159.089l.08.044.13.071c.393.212.785.413 1.11.562l.054.024c1.95.886 4.01 1.486 6.264 1.826 1.487.221 4.801.224 6.217-.001"/>
</svg>
