<svg>
  <path d="M24.424 1.507c12.266.261 21.214 9.81 22 20.534.524 6.976-1.659 13.036-6.591 17.963C35.38 44.45 29.88 46.5 23.594 46.5 11.677 46.456 1.201 36.167 1.507 23.872 1.332 11.578 11.72 1.202 24.424 1.507Zm16.425 35.682a3.433 3.433 0 0 0-1.338 1.458c-.121.121-.243.182-.364.303.304.183.425.061.425-.182.547-.425.912-.972 1.277-1.579Zm-21.405 1.7c.79-.364 1.46-1.275 1.338-2.004a15.99 15.99 0 0 1-.548 1.033c-.182.364-.547.546-.851.729-.426.182-.912.121-1.338 0-.182-.061-.426 0-.486.182-.061.243.243.182.365.243.486.243 1.033.06 1.52-.182Zm14.29 1.458c-.121-.243-.365-.303-.79-.425.243.365.547.425.79.547 1.095.79 2.068.79 3.102 0 .121-.061.304-.182.182-.304-.06-.182-.243-.121-.365-.06-.912.485-1.885.424-2.919.242ZM19.87 15.263c.487 0 .913.122 1.338.243.608.182 1.217.425 1.885.364.244 0 .548 0 .548-.364s-.304-.243-.487-.243c-.608 0-1.216.06-1.763-.182-.67-.243-1.338-.365-2.068-.243-.425-.06-.851.121-1.338.364.73.061 1.338.061 1.885.061Zm3.528 2.976c-.122-.304-.183-.607-.305-.91-.121-.244-.364-.244-.608-.244-.121 0-.304 0-.365.182-.06.183 0 .365.183.426.426.06.669.425 1.095.546.121.608.364 1.276.304 1.944 0 .364.06.729.425.85.365.122.79 0 1.095-.304.243-.243.365-.425-.122-.607-.547-.182-.851-.607-.973-1.154-.06-.425-.304-.668-.73-.729Zm8.635 23.687h1.641c.305 0 .548-.121.609-.425.121-.364-.244-.303-.426-.364-.487-.243-.973-.547-1.46-.85-.364-.243-.972-.426-1.216-.061-.182.303-.547.729-.243 1.275.365.425.669.486 1.095.425Zm-10.764-9.96c-.06.121 0 .182.06.303.062 1.397-.242 2.794-.425 4.252.365-.182.365-.365.426-.547.365-.972.486-2.004.669-3.037.182-1.154.06-2.247-.487-3.28-.182-.425-.608-.485-.973-.425-.364.061-.608.243-.73.608-.121.364.061.607.305.85.304.304.608.06.79-.121.183-.183.122-.425-.243-.486-.182 0-.304-.06-.243-.304.06-.121.182-.121.304-.121.547-.061.79.303.669.971-.183.426-.183.85-.122 1.337Zm-2.371-21.501v1.883c-.183.546-.487.972-1.034 1.154-.608.364-1.156.364-1.764.06-.486-.242-.912.061-1.277.304-.121.06-.365.182-.243.365.122.243.365.121.486 0a1.76 1.76 0 0 1 1.46-.304c.547.121 1.094.121 1.642.121.851-.303 1.702-.607 2.31-1.336.183-.06.305-.182.244-.364.06-.182.06-.425-.061-.608v-.182c.304-.121.243-.304.182-.546-.06-.183-.243-.122-.364-.122-.609 0-.973-.304-1.095-.911v-.304c.182-.425.608-.607.912-.91.183 0 .426.06.67-.122-.244-.182-.427-.243-.67 0-.486 0-1.034-.182-1.46.182l-.12.121c-.305.365-.123.79 0 1.154 0 .243.06.304.182.365ZM33.734 32.33c.548.243.973.243 1.46-.121.486-.365.304-.972.486-1.397.548.06.426.91 1.156.728-.061-.121-.061-.182-.122-.242-.122-.243-.365-.547-.182-.79.182-.243.486 0 .73.06.121.061.243.122.364.122.487.06.912-.06 1.156-.486.243-.425.182-.91-.183-1.336-.182-.243-.425-.364-.608 0-.304.668-.851.729-1.46.79-.85.06-1.641-.243-2.432-.486-.182-.061-.365-.243-.486 0-.122.243.182.243.243.364.365.304.79.608.973 1.033.182.425.243.85-.06 1.214-.183.243-.548.426-.913.122 0-.182.122-.243.243-.304.183-.121.548-.182.304-.486-.182-.243-.486-.243-.73-.121-.486.304-.425.668.061 1.336ZM17.68 20.243c.122.183.183.365.122.547-.304.911.304 1.397.79 2.004.305.365.67.73 1.156.122.121-.182.243-.486.547-.425.243.06.243.364.304.607.061.304.183.547.122.85-.061.426-.122.911-.608.972-.548.06-.912.365-1.399.547-.426.182-.851.182-1.155-.122-.304-.243-.487-.182-.79 0-.609.426-1.278.608-1.947.061-.365-.304-.365.06-.365.304 0 1.397.244 2.794.973 4.008.73 1.337 1.217 2.673 1.642 4.13.365 1.154.243 2.37.426 3.584.06.243-.061.486.243.607.912.365 1.46.183 2.068-.607.365-.547.486-1.154.608-1.761.243-1.337.365-2.734.243-4.13 0-.304-.182-.243-.426-.304-.608-.182-.973-.668-1.033-1.336 0-.608.182-1.154.85-1.276.366.06.609 0 .73-.425-.06-.486.122-.85.426-1.154.183-.182.426.06.67-.182 1.094-1.093 1.884-1.093 3.222-.122-.182 0-.365.061-.547.061-.973.243-1.764 1.518-1.277 2.187.486.668.243 1.336.304 2.065 0 .485-.122 1.093.426 1.457-.061-.486-.122-.972 0-1.457.06-.122.06-.365.304-.304.182.06.121.243.121.364 0 .486-.182 1.033.426 1.458v-.972c0-.182.182-.303.365-.303.304 0 .121.242.121.364 0 .425-.243.85.365 1.154v-.425c.061-.304-.121-.85.365-.79.487.061 0 .425.061.668.06.183 0 .425.243.486.183 0 .183-.182.243-.364 0-.122.061-.182.061-.304.487-2.855 4.379-4.19 6.933-3.401.851.243 1.763.546 2.675.546.609 0 1.095-.182 1.095-.971 0-.243.06-.365.365-.304.73.06 1.52.85 1.58 1.58.062.91-.242 1.275-1.276 1.457-.243.06-.487.121-.79.121.121.304.607.304.547.608-.122.364-.548.182-.852.243-.608.06-1.277 0-1.642.668-.06.182-.364.243-.547.303-.608.243-1.399-.182-1.885-.91-.304-.547-.06-.972.365-1.337.182-.121.547-.121.426-.486-.122-.243-.365-.364-.67-.425-1.337-.304-2.614-.243-3.952.122-1.46.364-2.433 2.43-1.824 3.705 1.094 2.368 4.196 3.826 6.567 3.036.608-.182 1.277-.364 2.068-.06-.548.364-1.095.486-1.642.546-.426.061-.547.243-.487.608v.121c-.121.304-.486.607-.06.85.304.183.608.426 1.033.426 1.338.182 2.554-1.154 2.676-2.43 0-.243 0-.425-.365-.547-.486-.121-.79-.485-.79-.971 0-.425.182-.85.669-.972.182-.06.364-.122.364-.304.061-1.457 1.886-1.457 2.25-2.672l.061-.06c.79.06.852-.548 1.095-1.094a1.2 1.2 0 0 1 .669-.668c.547-.243.851-.668 1.155-1.154 1.095-1.944.669-4.009-1.094-5.041-.973-.608-2.068-.85-3.163-.85a9.81 9.81 0 0 0-2.675.364c-.852.243-1.764.121-2.554.425-.913.304-1.764.243-2.676.182-.851-.06-1.642-.304-2.128-1.032-.304-.486-.548-.972-.183-1.519.547-.79.243-1.275-.73-1.397.183.668.183 1.336.061 1.944-.182.607.061 1.032.365 1.397.426.546 1.034.971 1.764 1.093 1.641.304 3.283.304 4.925-.06 1.764-.365 3.466-.912 5.352-.547 1.398.243 2.189 1.7 1.946 2.793-.061.365-.244.669.182.912.243.121 0 .182-.06.303-.183.182-.426-.121-.609.06.06.183.365.365.122.608-.061.061-.244.182-.365.061-.67-.911-.547-.121-.547.304 0 .182-.061.303-.244.303-.121 0-.182-.121-.182-.243v-.607c0-.607-.061-1.154-.426-1.7-.973-1.337-2.493-1.519-3.953-1.762-.364 0-.73-.121-1.033.122h-.365c-2.676.546-5.23.546-7.662-.911-.244-.122-.426-.183-.608.06-.365.425-.487.182-.548-.243.061 0 .183 0 .244-.121l-.061-.06c-.061.06-.061.12-.122.12h-.486c-.122-.303.243-.546.304-.85-.304-.06-.365.122-.426.304-.243-.06-.547.121-.669-.122-.182-.303.182-.364.365-.546.122-.122.182-.243.122-.365-.061-.182-.244-.121-.365-.121-1.156.121-2.129-.486-3.223-.607-.304-.061-.67-.183-.912-.426-.73-.607-1.52-.91-2.433-.91-1.52-.972-3.466-.547-4.5 1.032 1.034-.486 2.068-.304 3.04-.304.183 0 .426-.06.487-.182.304-.304.608-.06.912.121Zm13.683 1.58c-.183.364-.426.668-.608 1.093 1.58 0 3.04-.182 4.56-.607 1.764-.486 3.71-.547 5.473.06.913.304 1.825.73 2.311 1.64.73 1.458 1.156 2.916.365 4.495-.122.243-.304.546-.243.668.365.546.121.91-.304 1.214-.183.122-.122.365-.183.547-.121 1.033-.121 2.065-.912 2.855-.365.364-.608.85-.73 1.397-.06.303-.243.668.122.79.426.181.608-.122.851-.487a21.665 21.665 0 0 0 2.129-4.494c.73-2.369 1.155-4.798 1.094-7.289-.06-2.247-.486-4.373-1.155-6.498-1.034-2.976-2.554-5.588-4.804-7.835-1.885-1.944-4.074-3.402-6.568-4.556-2.736-1.275-5.594-1.822-8.513-2.004-2.19-.121-4.379.304-6.507.911-1.703.486-3.344 1.154-4.926 2.187.426.121.73.425 1.034.668.304.182.73.364.852-.061.304-.85 1.033-.85 1.702-.911.487-.06.973-.122 1.46-.304.547-.182.973-.972 1.763-.486.365-.425.73-.607 1.095 0 .06.122.365 0 .547-.06.365-.183.608-.426.851-.73.183-.242.67-.607.791-.12.243.971.608.303.973.12.243-.12.304-.607.73-.485.365.121.304.547.425.85.061.122 0 .304 0 .486 0 .668-.121 1.336 0 2.004.122.911-.06 1.762-.608 2.49-.243.365-.06.85-.182 1.337-.061.243.426.182.547.364.243.243.426.547.426.972 0 .607-.365 1.276 0 1.944.121.243-.061.668-.304.85-.548.425-.487.79 0 1.215.121.121.182.303.06.486-.121.242-.121.425.122.546.426.243.73-.243 1.156-.243.121 0 .304-.364.243-.425-.304-.304-.061-.607 0-.85.06-.243.121-.486 0-.73-.243-.546-.122-1.092-.122-1.639.061-.607.243-1.215.912-1.518.365-.183.548-.122.548.243-.122 1.093.669 1.76 1.216 2.49.304.425.608.607 1.095.303.06.365.06.608 0 .912-.122.303-.122.607.06.91.365.426.548.972.67 1.519.12.425.303.547.729.486h.304c.243.06.547-.182.608.182.122.364-.304.304-.486.425-.183.182-.548.182-.548.486h-.06.06v2.247l-.121-.06Zm-28.703.91a6.314 6.314 0 0 0 0 2.612c.182 4.92 2.007 9.11 5.169 12.877 3.162 3.765 7.297 5.89 11.98 7.106 3.892 1.032 13.439-.668 14.898-2.794-1.277.06-2.615-.182-3.83.243-1.095.425-2.19.303-3.285.06-.85-.182-1.459-1.579-.912-2.125.73-.73 1.46-1.337 2.615-1.519 1.034-.121 2.311-.06 2.615-1.518-.06 0-.122-.06-.243-.06-2.372-.122-3.892-1.459-4.926-3.402-.243-.425-.426-.547-.79-.547-.73.061-1.4-.121-2.129-.243-.121.547-.304 1.094-.304 1.64-.06.547-.426 1.033-.06 1.58.12.182-.183.303-.366.425-.243.182-.608.303-.486.668.243.91-.304 1.457-.851 1.943-.426.365-.548.668-.487 1.215.06.425-.06.911-.182 1.336-.183.607-.852.972-1.338.668-.304-.182-.608-.182-.912-.182h-2.858c-.304 0-.609-.304-.791-.121-.486.546-.851.121-1.277-.061-.79-.243-1.216-.85-1.763-1.276-.609-.425-.426-1.154-.122-1.761.243-.425.547-.729 1.155-.547.365.122.852.122 1.277 0 1.095-.243 1.581-.668 1.46-1.822-.061-.729-.304-1.397-.426-2.065-.426-2.004-1.338-3.765-2.067-5.648-.487-1.215-1.52-2.065-1.886-3.34-.608-2.005-.79-3.949.426-5.832.304-.425.608-.85.487-1.396-.061-.183.121-.304.243-.426.973-.607 1.155-1.64 1.46-2.672 0-.121.06-.182-.062-.243-.668-.182-.547-.79-.79-1.275-.304-.73-.122-1.58-.426-2.308-.182-.426.183-.669.487-.73.912-.181 1.763-.242 2.736-.06-.243-.668-.73-.85-1.277-.729-.243.06-.425.182-.608-.06-.304-.365-.547-.304-.912 0-.243.182-.608.425-.79.12-.365-.667-.67-1.457-.487-2.246.182-.608.06-1.215 0-1.883-5.595 4.13-8.94 9.414-9.365 16.399Zm9.912-.303c.243-.121.365-.182.426-.304.669-.425 1.642-.182 1.885.486.06.243.122.486.426.365.304-.061.486-.243.486-.547 0-.607-.365-.729-.851-.729-.183 0-.365-.06-.426-.243-.06-.121.06-.182.122-.182.425-.182 1.398.121 1.52.607.06.365.304.608.426.85.243.487.304 1.033-.061 1.52-.304.424-.73.485-1.156 0-.121-.122-.364-.183-.547.12-.182.244-.06.365.122.547.425.425 1.338.425 1.824-.121.304-.365.487-.243.73 0 .06.06.182.243.243.243.243.06.426.303.669.06.182-.243-.06-.364-.182-.485-.122-.122-.244-.304-.122-.426.182-.182.365 0 .486.122.365.425.791.364 1.277.182.305-.121.244-.364.244-.607-.061-.365-.304-.122-.426-.061-.486.304-.79-.06-1.095-.304-.364-.303-.608-.668-.912-1.032-.547-.668-.547-.79-.304-1.64-.912.304-1.824.121-2.736.182-1.156.06-1.825.486-2.068 1.397Zm2.25 1.215c-.06-.243-.669-.061-.547-.486.06-.243.365-.486 0-.668-.365-.182-.73-.182-1.095.06-.79.547-1.338 2.248-1.094 3.159.365 1.215 1.398 1.883 2.189 2.854-.304-1.64-.487-3.34.547-4.92Zm.608 15.791c.061.486 1.095.547.183.972-.122.06-.061.182.06.243.365.243.305.668.426 1.032.061.183.122.365.304.365.852.06 1.703.121 2.554 0 .183-.06.426-.182.487-.425.121-.425.425-.608.851-.73.183-.06.365-.12.365-.364-.06-.303-.304-.242-.486-.182-.487 0-1.095.061-1.46-.303-1.034-.85-2.19-.122-3.284-.608Zm13.804-23.201c-.243.243-.425.607-.243.91.426.851.365 1.762.365 2.673 0 .243-.122.547.182.668.487.243.426.669.426 1.033 0 .243 0 .547-.304.547-.304-.061-.182-.304-.122-.547.061-.182.122-.486-.182-.547-.243-.121-.547 0-.73.183-.243.303-.06.728.061 1.032.122.304.426.364.73.304 1.034-.182 1.338-.547 1.338-1.58V19.88c0-.182.121-.425-.122-.547-.182-.121-.365.061-.486.243-.122.183-.244.183-.365.122-.183-.122-.061-.243 0-.365.547-1.093.425-2.004-.548-3.097Zm7.54 7.713c.183.183.305.183.487.243 1.338.486 2.737.85 3.102 2.551.06.486.365.243.547.061.79-.729.304-2.369-.73-2.794-1.155-.364-2.25-.364-3.405-.06Zm-8.087-7.956c-.06-.911-.426-1.58-.912-2.187-.243-.303-.426-.91-.73-.728-.304.182-.182.79-.06 1.214.06.304.425.73.303.911-.608 1.094.061 1.762.73 2.37.304.303.487.667.304 1.032-.243.546 0 .91.426 1.214.243-1.64-.183-2.794-.73-3.644-.121-.182-.486-.304-.304-.486.243-.243.487 0 .669.182.06.061.122.061.304.122ZM14.518 29.84c.547 1.579 1.095 3.037 1.581 4.494.426 1.276.548 2.612.426 4.009 0 .243-.547.607-.122.79.426.121.426-.486.67-.73.06-.06.06-.303.06-.424a17.197 17.197 0 0 0-1.46-6.56c-.243-.607-.364-1.275-1.155-1.58Zm18.669 9.535c.426.426.973.608 1.46.669 2.25.303 4.317-1.883 3.891-4.07-.06-.243-.182-.486-.304-.729-.243-.303-.669-.364-.973-.243-.182.061-.425.243-.364.486.121.365.364.547.79.486.304 0 .365.122.365.425.06 1.094-.122 2.065-1.095 2.673-.973.668-2.006 1.032-3.162.303-.182-.06-.365-.182-.608 0ZM27.045 20.73c0-.364 0-.91-.426-.91-.73 0-.79.971-1.337 1.275-.183.121-.183.303-.061.486a10.65 10.65 0 0 0 1.398 1.457c.122.061.244.061.305 0 .06-.06.121-.121.06-.243-.304-.607-.06-1.336.061-2.065ZM15.187 8.035a1.663 1.663 0 0 1-.304-.243c-.243-.485-.73-.303-1.155-.425-.061 0-.061.122-.061.243.121.486.425.79.912.911h.06c.852.304 1.764-.182 2.616.122.243.06.669 0 .912-.243.06-.06.06-.243-.061-.304-.365-.243-.73-.182-1.034 0-.425.304-.79.122-1.094-.182-.304-.304-.304-.668-.122-1.093.06-.122.304-.183.182-.425-.851.06-.79.79-.851 1.64Zm8.088 12.026c0-1.336-.243-1.64-1.156-1.883-.547-.121-.425.183-.425.426.121.546.304 1.032.304 1.64 0 .364.851.971 1.155.85.487-.182-.06-.547.122-.79v-.243Zm-3.223-2.43c-.243 0-.365.122-.243.365.182.608.304 1.276.425 1.883.061.486.548.85 1.034.729.487-.122.183-.547.122-.85 0-.183 0-.365-.061-.486-.182-1.033-.608-1.58-1.277-1.64Zm4.986 1.52c.244.364.487.181.73.06.304-.182.608-.304.912-.304.304 0 .73.182.912-.243.183-.425-.182-.668-.364-.971-.122-.122-.244-.304-.426-.426-.122-.121-.243-.303-.426-.182-.06.06-.06.243-.06.365-.061 1.032-.305 1.397-1.278 1.7Zm15.994 12.147c.121.364 0 .85.365 1.275.121.121 0 .425.243.364.182-.06.182-.243.243-.425.182-.546.06-1.154.122-1.761.06-.243.364-.547-.061-.668-.304-.122-.547.182-.73.364-.06.182-.182.425-.182.85Zm-21.284 8.624c.486-.06.973-.243 1.46-.607.243-.182.729-.425.486-.73-.122-.242-.608-.181-.973 0-.183.062-.304.244-.487.305-.243.182-.486.364-.79.546-.122.122-.487.061-.426.304.183.243.487.182.73.182Zm-1.581-22.29c.304.486.425.972.608 1.457.06.243.243.426.486.608.183.121.304.121.365-.06.304-.912-.486-2.005-1.46-2.005Zm5.351-12.087c0-.121 0-.243-.182-.243-.244-.06-.548.061-.548.243-.121.365-.364.608-.608.85-.304.304.122.547.183.85.06.183.243.062.365 0 .364-.546.73-1.032.79-1.7Zm15.385 29.761c.548-.85-.243-1.579-.06-2.49-1.095 1.093-1.034 1.397.06 2.49Zm1.642-1.215c-.669.183-.912.669-1.155 1.094-.122.243-.243.607.06.729.305.121.67 0 .791-.304.243-.425.426-.911.304-1.519Zm-18.182-3.097c.06.243-.183.729.182.79.365.06.487-.426.67-.669.06-.182.182-.364.182-.546 0-.243.182-.608-.183-.668-.365-.061-.669.182-.79.546-.061.182-.061.365-.061.547Zm9.243 8.381c.912.122 1.824-.79 1.763-1.64-.06-.242-.121-.303-.364-.303-.244 0-.304.121-.365.364-.183.608-.365 1.215-1.034 1.58ZM22.302 5.06c-.608.183-1.034.486-1.52.608-.487.121-.365.607-.244.91.122.304.609.244.67.122.243-.607.911-.91 1.094-1.64Zm1.095 26.967c-.73.304-1.156.73-.973 1.519.06.182-.183.425.06.486a.506.506 0 0 0 .608-.365c.183-.486.365-1.032.305-1.64ZM19.018 15.75c1.216.06 2.31.547 3.466.85.365.122.79 0 1.217 0 .182 0 .364-.06.304-.303-.061-.183-.244-.061-.365-.061-.487.121-.973.06-1.52-.06-.973-.183-2.007-.669-3.102-.426Zm4.804 10.993c-.973-.121-1.52.243-1.398.911.121.486.304.911.304 1.397 0 .122.06.243.243.182.182 0 .121-.121.121-.242-.243-.85-.121-1.64.73-2.248Zm-7.236-11.175c0-.182 0-.243-.061-.365-.122-.303-.243-.607-.547-.546-.244.06-.122.364-.122.546-.06.183-.122.426-.122.608 0 .303-.425.729 0 .85.426.182.608-.364.79-.668 0-.122 0-.304.062-.425Zm8.33 2.794c.244 0 .487 0 .609-.304.06-.122 0-.304-.122-.243-.547 0-.912-.364-1.338-.668-.121-.122-.304-.122-.486 0-.06.06-.06.182-.06.243.425.486.729.972 1.398.972ZM20.843 7.428c-.182 0-.547-.06-.85.243-.123.121-.244.243-.183.425.06.182.243.243.425.243.487-.121.913-.182 1.399-.364.122-.061.243-.183.182-.365 0-.121-.121-.182-.243-.182h-.73Zm-4.317 10.447c.486.243.669.607.851.972.061.182.122.303.304.364.122.06.304.243.487.06.121-.12.06-.242.06-.364-.243-.85-.668-1.214-1.702-1.032Zm7.358-5.163c.426 0 .669-.182.669-.546.06-.365-.183-.608-.547-.608-.365 0-.67.182-.73.608-.06.364.243.485.608.546Zm-6.872-2.915c.304-.06.122-.486.426-.486.182 0 .182.121.243.304 0 .121-.06.364.183.364.365-.06.243-.425.365-.607.06-.122.06-.426-.061-.365-.67.182-1.277-.243-2.068-.06.426.303.73.546.912.85Zm5.899 24.78c-.79.122-.973.73-1.095 1.337 0 .121.061.242.183.303.121.06.365.06.365-.06.182-.486.669-.912.547-1.58ZM19.87 16.54c.364.485.608.91 1.155.971.182 0 .486.122.486-.121a.497.497 0 0 0-.304-.608c-.365-.121-.73-.425-1.338-.242Zm2.25 13.058c.243-.668 0-1.154-.183-1.64-.06-.121-.182-.243-.365-.182-.121.06-.182.182-.243.364-.122.668.426.972.79 1.458ZM39.024 38.1c.426-.547.79-1.093 1.216-1.64-1.155-.06-1.034.06-1.216 1.64ZM24.065 8.4c.061-.243-.121-.304-.304-.182-.364.303-.912.546-.973 1.154 0 .121.122.243.244.243.608-.122.79-.547.973-1.033 0-.06.06-.121.06-.182Zm-2.797 1.336c-.121-.243-.304-.425-.547-.364-.365.06-.73.243-.79.668-.062.243.12.546.364.425.304-.182.608-.486.973-.729Zm-6.203 31.219c-.364 0-.486.243-.547.546 0 .243.06.608.304.486.243-.121.79-.06.79-.425 0-.243-.182-.607-.547-.607Zm7.298-4.191c-.67-.182-.973.182-1.156.668-.06.182-.243.425.061.547.243.121.487.06.547-.243.122-.304.304-.668.548-.972Zm.304-25.084c.304 0 .425-.122.73-.79.06-.182.304-.425.121-.547-.243-.182-.486.061-.608.183-.304.243-.304.607-.426.971-.121.122 0 .183.183.183Zm-3.04 2.611c.668 0 1.276.183 1.824-.182a.839.839 0 0 0 .182-.243c0-.121-.122-.121-.182-.121-.67-.061-1.277-.061-1.825.546Zm3.709-1.154c.182.365.304.79.486 1.094.061.182.243.364.487.182a.395.395 0 0 0 .121-.547c-.304-.243-.486-.79-1.094-.729Zm-6.69 5.588c-.608-.668-1.337-.547-2.128.304.79-.304 1.46-.182 2.129-.304Zm14.048 23.14c-.122-.303-.304-.546-.67-.607-.182 0-.364.122-.303.304.06.304 0 .729.547.729.183-.06.365-.122.426-.425Zm-8.635-31.157c.243-.608.121-1.154.121-1.762 0-.121-.06-.303-.243-.303-.182 0-.182.182-.182.303 0 .608.243 1.154.304 1.762Zm-5.717 6.438c.548.182.973-.122 1.46-.122.122 0 .304 0 .304-.243 0-.182-.182-.182-.304-.182-.547-.06-1.034.122-1.46.547Zm2.129-.729c.243.364.243.972.851.729.304-.06.122-.304.122-.486-.122-.668-.608-.182-.973-.243ZM17.376 6.274c.608.182 1.095.547 1.52-.06.061-.122.183-.244.061-.426-.121-.182-.243-.06-.365 0a8.381 8.381 0 0 1-1.216.486Zm5.96 8.382c-.061-.122-.061-.243-.122-.304-.06-.182-.122-.304-.182-.486-.183-.546-.67-.668-.67-.243 0 .486.366.79.73 1.033.061.06.122.06.244 0Zm-2.068-1.58c.487.183.912-.06 1.277-.12.122-.062.243-.183.243-.305 0-.121-.121-.182-.182-.182-.426.122-.973.122-1.338.608Zm-2.19-6.255c.366.06.67-.061.791-.243.183-.243.244-.608 0-.79-.364-.182-.304.243-.425.425-.061.183-.183.365-.365.608Zm-.668 4.13c0-.182.06-.486-.304-.425-.243.06-.487.121-.426.486.061.242.122.485.426.485.426 0 .304-.303.304-.546Zm22.44 21.865c.242-.607.06-1.033-.426-1.093-.122 0-.305 0-.305.06-.121.183.061.304.183.304.304.182.304.547.547.729Zm-22.683-18.1v-.121h-.912c-.183 0-.426 0-.365.304.06.243.243.364.486.243.243-.183.487-.304.79-.426Zm-2.615 8.868c.243.121.365.607.73.304.182-.183.243-.547 0-.73-.365-.181-.426.365-.73.426Zm8.757-18.646c-.487.486-.183 1.093-.608 1.458 0 0 .06.121.121.121.122.06.243 0 .304-.121.183-.426.183-.85.183-1.458ZM12.694 7.67c.121-.304.73-.243.486-.79-.121-.182-.304-.243-.425-.121-.304.243-.122.547-.061.911Zm1.094 31.947c.244.426.426.608.67.73.182.06.425.06.486-.183.121-.304-.183-.243-.304-.304a9.728 9.728 0 0 0-.852-.243Zm-.547 1.701c.304 0 .426-.182.487-.425.06-.182.243-.486 0-.607-.365-.122-.183.303-.304.425-.061.182-.305.303-.183.607Zm27.122-7.896c-.244-.121-.426 0-.548.061-.182.122-.547.243-.425.486.182.304.365-.06.608-.122.121-.121.304-.182.365-.425ZM17.68 12.955c.487-.121.67-.364.73-.729 0-.121-.122-.182-.182-.121-.426.121-.548.425-.548.85Zm-4.621 27.27c0-.12 0-.303-.244-.303-.243 0-.304.182-.304.425s.061.425.304.365c.183 0 .244-.243.244-.486ZM23.336 7.733c.425 0 .79 0 1.033-.365l-.06-.182c-.487-.06-.73.122-.973.547Z"/>
</svg>
