---
version: "3.0.7"
---
<svg>
  <path d="M23.94 47.838c5.846 0 11.217-1.996 15.708-5.836l.052-.044c.742-.642 2.089-1.991 2.629-2.632l.019-.023c3.8-4.542 5.852-10.423 5.637-16.162l-.007-.163c-.108-2.64-.412-4.36-1.184-6.7-.896-2.733-2.127-5.018-3.896-7.241C38.86 3.972 33.048.814 26.463.117l-.071-.008c-1.033-.097-3.137-.144-4.04-.078a24.2 24.2 0 0 0-7.685 1.798c-4.56 1.9-8.506 5.228-11.087 9.357l-.053.086c-.493.805-1.355 2.485-1.699 3.305-.749 1.781-1.367 4.151-1.65 6.295-.358 2.734-.17 5.977.51 8.745.686 2.773 2.019 5.728 3.601 7.956 2.115 2.989 4.889 5.49 8.025 7.237 3.612 2.018 7.508 3.034 11.625 3.028m-5.813-1.82c-4.157-1.14-7.707-3.25-10.713-6.38-5.892-6.13-7.826-15.063-5.025-23.218.868-2.518 2.014-4.582 3.732-6.737 2.7-3.38 6.323-5.91 10.446-7.31l.115-.039c1.564-.524 3.05-.825 5.12-1.034l.152-.016c.794-.085 3.789-.034 4.68.074 3.9.47 7.173 1.684 10.349 3.84 3.05 2.07 5.71 5.086 7.372 8.358 3.329 6.556 3.267 14.654-.159 21.012-3.028 5.614-8.12 9.714-14.132 11.37-3.941 1.083-8.155 1.112-11.937.08m7.38-39.919h.02c.255 0 .369-.023.369-.074 0-.175-.363-2.966-.391-2.994-.017-.023-.188-.051-.38-.068l-.34-.034-.392.845-.127.27c-.162.337-.285.58-.298.58-.017 0-.165-.38-.33-.839l-.3-.833-.368-.012-.04-.001c-.228-.008-.336.01-.352.058V3c-.015.055-.112.58-.22 1.22l-.12.715-.17.977-.004.018c-.02.1.002.111.295.112h.072c.444 0 .388.11.54-.847l.027-.164c.047-.288.098-.543.113-.594.026-.067.114.103.29.57l.105.285c.24.64.292.748.396.778l.008.002a.3.3 0 0 0 .054.007h.006c.055 0 .096-.042.207-.263l.02-.038.138-.289.22-.47c.195-.41.355-.722.365-.712.012.012.075.432.133.856l.042.315c.034.26.06.478.063.542v.005c0 .05.108.073.35.074m4.092.726-.04-.295-.016-.132-.101-.872-.096-.864c-.056-.508-.1-.93-.104-1v-.007c0-.063-.097-.108-.323-.159l-.26-.057a2 2 0 0 1-.16-.04c-.068-.016-.329.33-1.004 1.379l-.193.296c-.41.632-.712 1.117-.697 1.127.011.011.187.057.397.097l.368.068.125-.222c.08-.136.165-.215.238-.215h.011c.063.005.248.046.444.094l.137.035c.227.058.436.119.457.137.017.012.04.125.057.261l.034.239.363.062zm-11.098-.011c.01-.033-.046-.267-.135-.536l-.075-.224c-.11-.332-.09-.37.225-.457l.16-.042c.2-.051.358-.125.358-.165 0-.153-.187-.595-.25-.595-.04 0-.226.056-.425.119l-.05.017c-.177.056-.326.082-.347.057a1 1 0 0 1-.108-.233l-.008-.026c-.063-.197-.022-.218.479-.36l.27-.082c.059-.018.1-.032.11-.037.045-.028-.176-.703-.227-.697l-.046.014-.793.252-.794.267.65 2.012.163.5.109.327c.026.077.04.12.042.121.034.04.675-.181.692-.232m14.08 1.063.04-.018c.338-.151.49-.377 1-1.427l.48-.996-.362-.182-.357-.176-.307.641-.424.891-.035.073c-.252.532-.587.688-.896.43l-.011-.01c-.284-.244-.256-.426.227-1.509l.07-.155c.208-.462.36-.826.35-.831a5 5 0 0 0-.37-.165l-.351-.147-.447 1c-.463 1.042-.509 1.235-.42 1.631.083.367.324.641.745.839l.026.012c.427.2.74.226 1.041.099M28.36 5.41l-.066-.015a2 2 0 0 1-.251-.072l-.004-.002c-.028-.01.075-.198.223-.418l.051-.076c.146-.214.271-.367.287-.357.017.017.045.244.068.505l.01.092c.014.15.022.278.023.347v.015q0 .035-.005.04c-.009.009-.173-.022-.336-.059M15.302 8.3c.89-.414 1.27-1.366.89-2.2-.2-.428-.394-.643-.738-.807l-.021-.01c-.346-.164-.874-.192-1.225-.062-.841.309-1.256.833-1.26 1.59v.026c0 .635.33 1.169.891 1.463.414.216 1.01.216 1.463 0m-1.19-.782c-.517-.318-.556-1.072-.069-1.418.34-.244.698-.266 1.05-.068.243.142.442.544.397.834-.04.26-.25.561-.483.68-.238.12-.669.108-.896-.028m21.686 2.665c.005 0 .009-.04.01-.11v-.048l-.001-.037c-.001-.11-.006-.257-.014-.423l-.047-.862.233.04c.499.08.975-.358.975-.89-.005-.278-.175-.613-.43-.846l-.026-.022a7 7 0 0 0-.349-.28l-.087-.065c-.256-.191-.513-.37-.542-.37-.017 0-.299.392-.627.87l-.87 1.274-.203.305-.041.07c0 .033.63.447.646.424l.006-.007c.03-.04.162-.229.317-.44l.307-.426.056 1.384.33.227.071.05c.15.106.27.182.286.182m.017-2.155a.7.7 0 0 1-.278-.096l-.16-.09.228-.341.232-.34.165.175c.085.102.158.244.158.324 0 .17-.181.368-.345.368M23.968 39.955c2.047 0 3.794-.334 5.75-1.094 3.193-1.237 5.847-3.386 7.741-6.273 1.202-1.837 2.03-4.032 2.399-6.362l.014-.096q.024-.163.042-.307l.009-.079c.048-.436.059-.862.06-1.83v-.501c-.002-.74-.012-1.094-.052-1.44l-.006-.05c-.022-.18-.053-.36-.095-.597-.602-3.323-1.843-5.881-4.055-8.342-2.375-2.645-5.778-4.416-9.527-4.963l-.114-.016c-.788-.114-2.558-.16-3.357-.091-5.002.436-9.21 2.79-12.011 6.726-1.872 2.631-2.904 5.909-2.904 9.21 0 3.115.923 6.248 2.57 8.742l.114.173c.607.91 1.022 1.425 1.742 2.166l.077.079c2.01 2.06 4.236 3.432 6.927 4.257l.082.025c1.492.453 2.95.663 4.594.663M10.096 12.332l.261-.239.267-.238-.505-.51-.158-.166c-.144-.151-.26-.277-.312-.338l-.008-.01a.1.1 0 0 1-.021-.03c0-.016.299.014.695.068l1 .141.692-.692-1.022-.113c-.455-.052-.858-.111-.938-.139l-.021-.008c-.1-.042-.114-.144-.18-.948l-.048-.6-.026-.281-.001-.01q-.003-.017-.004-.016l-.157.184-.16.19-.024.03c-.159.194-.282.38-.282.418l.002.027c.008.098.029.408.049.75l.04.692-.46-.454-.048-.046-.16-.16c-.29-.284-.274-.214-.592.218l-.17.238zm26.858-1.106.789-.783.234-.234 1.064-1.065-.26-.243-.053-.049a2 2 0 0 0-.242-.201c-.017 0-.478.45-1.04 1.011l-.038.038-1.049 1.055.31.266c.147.125.27.215.285.205M20.576 38.503c-2.733-.606-5.2-1.973-7.247-4.02-1.926-1.92-3.196-4.18-3.881-6.92l-.044-.177c-.309-1.26-.374-1.906-.38-3.423v-.132c.008-1.697.165-2.754.624-4.263a14.5 14.5 0 0 1 3.573-6.034c2.558-2.626 5.558-3.998 9.613-4.39l.042-.003c.494-.041 1.75-.03 2.34.02 7.043.636 12.43 5.654 13.53 12.618.118.774.17 2.694.088 3.598l-.002.032c-.267 2.852-1.384 5.603-3.205 7.911-.538.68-1.82 1.917-2.557 2.473-2.094 1.566-4.094 2.438-6.67 2.906l-.19.034c-.546.095-.857.11-2.014.11h-.2l-.244.001c-1.488.001-1.861-.044-3.176-.34M38.39 13.018l.374-.324.123-.108c.162-.142.368-.32.542-.47l.4-.352c.381-.33.358-.275.563-.056l.204.232.556-.465-.47-.516-.463-.524-.213-.247-.21-.244-.232.221-.232.216.181.215.022.027c.119.145.138.2.09.263l-.004.005c-.031.041-.354.332-.74.67l-.117.101c-.43.38-.788.704-.788.715s.09.159.204.329zM8.05 15.424l.199-.404-.658-.375-.121-.067a19 19 0 0 0-.696-.373l-.006-.002c-.107-.051-.136-.085-.085-.113.038-.017.535-.09 1.12-.161l1.206-.146.249-.289.024-.029c.167-.2.206-.28.152-.323l-.01-.006a33 33 0 0 0-.616-.405L7.09 11.623l-.29-.182-.408.692.788.488.198.122c.342.212.596.38.596.394 0 .017-.525.089-1.166.161l-1.215.134-.205.334c-.119.187-.187.358-.158.386l.004.003c.062.042.711.43 1.361.816l.772.456.5.29c.015.005.093-.119.18-.293m17.756 22.24c.162-.04.598-.326 1.005-.64l.045-.034a7 7 0 0 0 .538-.46l.431-.425.862.119.107.013.108.014.189.022c.347.04.669.071.804.075l.34.006-.005-.244c-.012-.493-.494-.86-1.295-.972l-.068-.009c-.246-.034-.478-.087-.532-.119-.141-.09-.289-.567-.323-1.038a2.2 2.2 0 0 1 .098-.816l.14-.488 1.05-.062.096-.007c1.318-.093 2.073-.282 2.91-.736 1.604-.88 2.67-2.394 3.101-4.395.142-.658.142-2.309 0-3.012-.309-1.544-1.145-3.121-2.01-3.796l-.054-.042c-.11-.087-.114-.114-.06-.277l.015-.042c.17-.476.045-.913-.318-1.111-.176-.097-.295-.102-.522-.012-.062.023-.147-.062-.289-.283-.108-.17-.255-.34-.323-.374-.165-.091-.516-.04-.726.107l-.023.017a.7.7 0 0 1-.176.102c-.017 0-.102-.136-.181-.3l-.03-.057c-.203-.389-.385-.602-.64-.748-.577-.331-1.094-.185-1.352.384l-.008.018c-.182.409-.16 1.333.05 2.116l.014.057c.029.13.04.224.028.221l-.518-.26-.09-.047c-1.128-.58-2.058-.826-3.153-.839h-.051c-.868-.006-1.348.095-2.247.472l-.175.074c-.364.153-.69.27-.749.27-.243 0-.499-.567-.436-.964.015-.099.136-.427.279-.748l.029-.064.01-.021.036-.082c.41-.93.495-1.292.497-2.146l-.001-.33c-.004-.58-.029-.687-.187-1.145l-.017-.053a6 6 0 0 0-.34-.798c-.527-.941-1.406-1.662-2.37-1.95-.375-.114-1.123-.16-1.475-.097-.912.173-1.581.623-2.062 1.387l-.072.115c-.531.85-.807 1.095-1.79 1.622-1.055.573-1.673 1.305-1.894 2.246-.176.76.01 2.047.345 2.382.238.238.449.19.931-.206l.04-.032c.583-.482.895-.658 1.615-.896l.046-.015c.508-.162 1.391-.36 1.639-.36h.008c.135.006.025.15-.581.783l-.085.089c-.653.682-.841.945-1.133 1.553l-.013.025c-.788 1.64-.731 3.794.136 5.58.653 1.333 1.917 2.689 3.38 3.625 1.412.907 3.097 1.57 4.61 1.814l.608.102.068.233c.04.13.068.488.068.8v.078c-.003.394-.028.545-.108.715l-.113.227-1.554.032c-.808.018-1.288.05-1.384.093-.414.187-.777.624-.777.941v.154h.965c.416.001.736.012.736.028 0 .015-.09.144-.211.3l-.044.057c-.306.391-.38.692-.227.862l.011.012c.145.151.324.123 1.005-.154l.304-.12.123-.048.093-.036.124-.048.187-.07c.738-.278 1.427-.513 1.658-.562.15-.038.393-.05.558-.037l.064.006c.203.017.28.004.342-.065l.017-.02c.106-.121.098-.22-.033-.655l-.021-.072c-.091-.309-.096-.402-.046-.757l.012-.083c.082-.546.159-.807.241-.807.148.006.738.165.789.216.027.027.065.415.083.877l.005.147c.007.182.01.328.01.448v.037c0 .288-.023.424-.076.589-.056.164-.147.323-.204.352s-.505.096-.998.147l-.129.013c-.996.099-1.16.148-1.334.35-.142.176-.25.618-.176.737.02.036.174.052.516.053h.04q.206 0 .499-.007l.105-.001.247-.002h.147c.308.002.516.008.516.02a.6.6 0 0 1-.127.15l-.01.008c-.175.165-.22.352-.147.624.074.278.239.425.42.38m13.883-22.888h.002a64 64 0 0 0 1.173-.713l.634-.392c.372-.23.667-.415.714-.45.012-.008-.079-.164-.178-.319l-.038-.059c-.087-.133-.172-.251-.192-.256-.034-.012-.59.329-1.247.743l-.306.196a35 35 0 0 1-.936.586c-.057.017.306.664.374.664m-12.613 17.07c-.238 0-.408-.04-.6-.137-.385-.195-.852-.712-1.126-1.247l-.037-.072c-.177-.344-.256-.441-.409-.507-.221-.088-.432-.036-.526.13l-.007.012c-.09.165-.073.443.029.607.05.074.08.153.068.17-.034.034-.474-.018-.947-.1l-.045-.007-.046-.009-.046-.008a11 11 0 0 1-.504-.103l-.045-.011a10.6 10.6 0 0 1-2.467-.873c-2.683-1.31-4.52-3.256-5.116-5.416l-.019-.07c-.118-.447-.134-.636-.14-1.348v-.087c.006-.856.087-1.283.36-1.955l.015-.034c.252-.616.532-.995 1.383-1.864l.177-.18c.734-.75.848-.927.907-1.279.028-.187.011-.25-.108-.391l-.017-.019c-.118-.13-.172-.145-.465-.134-.752.017-2.531.394-3.662.77l-.114.038c-.286.094-.538.17-.588.173h-.003c-.062 0-.077-.057-.057-.278l.006-.068c.068-.783.703-1.628 1.633-2.172l.123-.073c.715-.432.907-.603 1.361-1.217l.06-.08c.563-.758.786-.928 1.375-1.065l.042-.01c.385-.09.714-.067 1.145.069.635.198 1.135.663 1.463 1.36l.045.098c.128.286.137.381.137.94l-.002.145c-.007.448-.027.57-.16.904l-.025.063c-.1.25-.391.795-.654 1.222l-.215.351c-.41.674-.583.986-.715 1.318l-.012.029a6 6 0 0 0-.097.27l-.014.043c-.323.958-.34 2.024-.057 2.88l.02.06c.14.393.275.609.513.82.46.402.942.255 1.407-.42.686-1.004 1.848-1.832 3.17-2.263.66-.21 1.131-.275 1.874-.246l.048.002c1.1.046 1.78.284 3.182 1.129l.072.043c.666.387.96.435 1.179.209l.02-.022c.193-.215.176-.512-.076-1.543l-.052-.211c-.21-.872-.235-1.159-.106-1.266.176-.148.278-.04.522.561l.017.041c.126.313.263.59.312.64.113.119.454.107.59-.017a.6.6 0 0 0 .153-.312c.095-.517.524-.578.533-.084v.016c0 .26.153.442.425.493.108.017.199.068.199.108 0 .136-.136.453-.352.828-.154.264-.212.432-.215.597v.036c.002.178.032.243.307.52l.047.047.088.087.063.062c.304.3.414.459.504.698.187.51.255 1.026.221 1.69l-.004.067c-.061.926-.275 1.409-.765 1.72l-.097.06c-.356.222-.431.325-.41.54.012.16.068.227.358.42l.052.037c.248.175.289.235.305.394l.002.024c.012.232-.102.339-.526.462l-.066.019c-.628.174-.763.47-.375.833l.012.012c.25.228.288.402.112.531l-.01.008c-.086.065-.204.078-.511.054l-.144-.011c-.304-.023-.343-.01-.433.103l-.023.03c-.068.084-.125.203-.125.26 0 .204-.204.335-.516.335h-.096c-.178-.002-.177-.015-.112-.112l.01-.013c.21-.3.028-.67-.324-.67-.232 0-.368.137-.567.58-.317.703-1.043 1.236-1.696 1.236M17.52 15.513c.578 0 .743-.828.204-1.015l-.033-.011c-.239-.079-.298-.06-.477.113-.335.34-.148.913.306.913m24.363 2.314.023-.002c.23-.022.548-.132 1.167-.4l.195-.084c.392-.17.692-.31.701-.32.012-.01-.032-.165-.088-.33l-.018-.05a2.4 2.4 0 0 0-.137-.34c-.012-.022-.431.136-.936.352l-.126.053c-.473.2-.87.338-.974.338a.53.53 0 0 1-.514-.444l-.005-.034c-.045-.312.174-.488 1.086-.883l.175-.077c.363-.162.665-.301.71-.326l.012-.007c.072-.042.065-.09-.07-.412l-.018-.048c-.073-.176-.141-.315-.157-.315h-.003a16 16 0 0 0-.603.275l-.396.185-.121.057c-.447.215-.85.434-.941.51-.409.33-.497.93-.22 1.525l.01.023c.266.567.646.8 1.248.754M6.535 18.916l.142-.363-.42-.352.329-.93.215-.006.164-.008c.048-.003.086-.006.103-.009.045-.005.454-.782.454-.862q0-.014-.23-.015h-.076c-.306.002-.847.017-1.632.047l-.364.014c-.567.024-1.023.064-1.044.085s-.104.216-.181.43l-.154.426 1.248.941.222.17.368.28.314.234.372.275c.017.006.096-.153.17-.357m-1.509-1.622c0-.011.195-.022.431-.023h.471l-.09.267-.03.088a2 2 0 0 1-.078.206c-.017.023-.704-.499-.704-.538m38.07 3.652c.193-.136.437-.624.437-.868 0-.363.317-.556.527-.323.12.13.125.306.017.516l-.085.153.34.09c.182.052.346.069.363.04.056-.089.04-.859-.025-1.11l-.003-.012c-.147-.545-.67-.851-1.19-.692-.404.125-.602.391-.687.919l-.006.038a2 2 0 0 1-.108.42c-.073.143-.368.137-.448-.005-.079-.159-.068-.522.029-.686l.027-.047c.08-.144.064-.165-.154-.215l-.108-.024c-.36-.077-.358-.07-.451.144-.193.47-.017 1.288.346 1.61a.98.98 0 0 0 1.18.052M5.94 22.09c.069 0 .114-.124.182-.567l.016-.094c.114-.681.102-.922-.044-1.21-.16-.306-.42-.454-.811-.454-.284 0-.488.091-.641.278l-.012.014c-.059.065-.079.059-.158-.042-.216-.272-.63-.335-.885-.13-.08.062-.193.198-.238.289-.09.175-.33 1.457-.278 1.508a.4.4 0 0 0 .067.014l.06.01c.538.09 2.59.38 2.742.384m-.408-.833-.26-.04-.114-.013a3 3 0 0 0-.233-.021c-.113 0-.056-.369.08-.516a.326.326 0 0 1 .51.034c.068.102.08.198.051.346zm-1.469-.199-.066-.007c-.277-.03-.293-.057-.251-.237.062-.243.368-.294.533-.096a.5.5 0 0 1 .068.227v.022c-.002.109-.027.113-.284.091m22.108 6.443h.257c.73-.003.948-.029 1.312-.125.913-.252 1.798-.792 2.186-1.335l.014-.02a.67.67 0 0 1 .379-.296l.018-.005c.63-.187 1.237-.658 1.48-1.146.27-.532.167-1.259-.197-1.445l-.012-.006c-.122-.059-.229-.058-.64.007l-.098.015c-.899.151-1.94.01-3.023-.405l-.05-.02c-.528-.204-.777-.221-.936-.063-.147.148-.153.51-.011.641.365.332 2.375.824 3.4.834h.065c.223.002.402.024.402.051 0 .028-.107.147-.244.272-.816.754-2.642.67-4.094-.193-.187-.107-.42-.21-.522-.226-.368-.063-.612.436-.38.77.204.284 1.565.829 2.598 1.027l.334.068-.164.102c-.471.295-1.47.488-2.235.431-.975-.073-1.786-.346-2.523-.85-.454-.312-.692-.34-.919-.114-.125.125-.142.182-.113.38.045.335.453.692 1.259 1.09l.066.032c.885.432 1.314.527 2.391.529M6.217 29.316c0-.317-.147-.669-.346-.856-.329-.3-.907-.386-1.327-.193-.754.346-.879 1.356-.238 1.917.743.652 1.917.12 1.911-.868m37.208.998c.5-.26.715-1.009.437-1.53-.204-.38-.533-.585-.97-.613-.29-.017-.397.005-.607.113a1.153 1.153 0 0 0-.227 1.883c.38.34.874.397 1.367.147m-30.504 8.524-.04-.136-.012-.041c-.093-.321-.205-.457-.77-.963-.342-.303-.881-.82-1.218-1.16l-.643-.655-.391.431-.08.086c-.182.2-.317.359-.317.374 0 .055.312.39.66.732l.072.07.07.068c.24.231.48.447.63.56l.069.051c.564.418.77.494 1.414.538zm12.124 6.533.061-.016c.65-.179.96-.408 2.043-1.464l.094-.092c.998-.971 1.41-1.29 1.8-1.4.24-.066.964-.084 1.19-.031l.033.008c.109.03.095.043-.071.284-.392.542-1.014.969-1.434.981h-.018a.9.9 0 0 0-.312.063c-.062.032-.306.252-.545.479l-.09.087c-.227.22-.426.426-.426.455 0 .089.512.19.945.187h.02c.56-.006.98-.115 1.56-.412l.096-.05c.571-.3.822-.58 2.018-2.294l.25-.358c.64-.92 1.04-1.18 1.962-1.256l.465-.037v.165c0 .348-.431.777-1.168 1.156l-.103.052c-.28.144-.392.245-.718.654l-.153.194c-.307.393-.387.527-.328.551l.003.001c.142.057 1.06-.073 1.412-.198.675-.238 1.548-.817 1.832-1.214l.03-.044c.199-.292.255-.486.324-1.11l.04-.371c.104-.936.14-1.133.227-1.289l.01-.016.01-.017c.062-.102.414-.436.782-.748l.195-.168.249-.217.134-.118c.212-.187.41-.366.54-.49l.448-.425-.48-.524a10 10 0 0 0-.284-.3l-.016-.016a.5.5 0 0 0-.094-.084c-.01 0-.04.026-.085.07l-.016.017-.026.026c-.054.056-.12.128-.19.207l-.017.02c-.165.187-.664.675-1.118 1.077l-.143.133-.08.075c-.36.341-.669.665-.735.774a3.5 3.5 0 0 0-.238.635l-.08.318-.022.09h-.002c-.026.008-.295.03-.622.051-.706.039-1.216.138-1.546.302l-.02.01c-.278.14-.826.686-1.217 1.205l-.308.417-.329-.051c-.543-.079-1.794-.08-2.136.002l-.04.01c-.442.117-.863.43-1.81 1.335l-.238.23c-.906.865-1.323 1.169-1.764 1.298-.386.12-.959.102-1.339-.028l-.312-.108-.578.369q-.106.066-.2.13l-.031.02c-.208.139-.353.248-.353.27 0 .067.788.402 1.242.515.51.13 1.372.142 1.82.023m11.71-5.28-.044.5.192-.04c.596-.12 1.39-.692 2.4-1.719l.504-.516-.386-.46-.1-.115c-.17-.194-.305-.338-.32-.338a16 16 0 0 0-.742.692l-.058.056-.12.116c-.34.323-.677.623-.811.724l-.015.011c-.34.25-.448.482-.5 1.09m-21.123 1.395h.01c.182 0 .313-.045.511-.187l.027-.017c.14-.091.245-.182.245-.198 0-.039-.187-.297-.393-.56l-.029-.036a6 6 0 0 0-.451-.521c-.255-.222-.68-.443-.947-.494l-.013-.002a30 30 0 0 0-1.515-.048l-.317-.005c-1.42-.024-1.677-.083-2.221-.438-.199-.13-.647-.533-.993-.902l-.635-.663-.386.414-.052.057c-.185.204-.327.382-.327.408 0 .05.257.35.558.667l.065.068.082.085.034.033.033.034.061.06c.102.101.201.196.291.276l.027.024c.557.496.922.718 1.456.865l.03.009q.096.026.185.047l.042.009c.301.061.636.07 1.7.074l.508.004c1.144.012 1.241.058 1.698.483l.156.145c.296.275.362.308.56.31m1.256 1.401.343-.135c1.047-.41 1.662-.4 2.304.025l.02.014c.137.09.307.17.386.17.076 0 .316-.113.55-.256l.482-.3-.334-.26-.06-.048c-.902-.713-1.256-.854-2.027-.854h-.061c-.602.012-.994.118-1.746.468l-.076.036c-.675.318-.953.386-1.44.352-.474-.034-1.09-.313-1.439-.65l-.042-.042c-.117-.114-.228-.198-.249-.193l-.008.001c-.058.007-.365.022-.707.028l-.12.004c-.311.012-.549.031-.549.047 0 .01.059.138.13.28l.006.014c.28.555 1.187 1.254 1.964 1.517l.027.009c.357.119.573.147 1.02.153h.185c.427-.004.616-.056 1.441-.38m5.543.76.097-.06c1.02-.624 1.302-.669 2.183-.388l.425.142.363-.414.052-.059c.18-.203.323-.38.334-.406.016-.05-.35-.227-.718-.364l-.038-.014a4 4 0 0 0-.362-.116c-.422-.11-1.117-.151-1.443-.089l-.02.004-.05.011-.025.006-.025.006c-.344.088-.673.267-1.516.805l-.13.082c-.447.278-.946.57-1.157.673l-.046.021c-.348.161-.444.177-.89.183h-.081c-.378-.004-.495-.03-.768-.156l-.019-.009c-.192-.088-.369-.186-.41-.228l-.004-.004c-.056-.068-.368.028-1.18.368l-.13.057.176.227c.25.312.8.658 1.333.828l.05.017c.337.11.54.136.999.136h.079c.833-.007 1.111-.131 2.92-1.259"/>
</svg>
