<svg height="41" viewBox="0 0 48 41">
  <path d="m30.15.406-.513.745c-.28.403-.513.715-.816 1.094l-.405.499c-.638.773-.924 1.281-.978 1.714-.02.141 0 .478.033.817l.015.145c.157 1.233.103 1.984-.189 2.644l-.069.136c-.285.53-1.224 2.032-1.277 2.032-.019 0-.077-.112-.134-.263l-.174-.484c-.012-.024 0-.048.027-.059l.032-.005c.065 0 .087-.054.087-.26-.006-.94-.368-1.87-1.038-2.67l-.217-.25.222-.372c.276-.476.352-.79.314-1.244-.056-.547-.274-.913-.465-.802l-.044.034c-.032.033-.07.038-.086.011-.06-.1-.187-.786-.331-1.751l-.134-.88c-.05-.31-.091-.52-.108-.537-.02-.02-.068-.031-.12-.031l-.088.009c-.093.023-.14.167-.497 1.75l-.572 2.518c-.1.416-.168.686-.177.696a3 3 0 0 1-.459.073l-1.024.114-.053.007c-.19.027-.227.006-.562-.313-.195-.19-.39-.406-.427-.482-.034-.067-.123-.399-.207-.772l-.031-.141c-.352-1.611-.703-2.309-1.454-2.877-.4-.302-1.363-.762-1.363-.654 0 .02.095.195.217.406l.053.092c.748 1.262.917 1.958.763 3.33l-.033.265c-.162 1.19-.086 1.908.254 2.59.238.475.341.594.914 1.06.246.203.527.463.684.628l.192.21c.08.08.15.134.178.134.108 0 .098.044-.08.244-.19.216-.509.962-.514 1.216-.005.149.002.182.09.178l.196-.021-.6 1.77c-.102.283-.115.29-.146.29-.046 0-.711-1.004-1.54-2.331l-.753-1.192c-.987-1.543-1.633-2.453-2.54-3.589l-.56-.7a23 23 0 0 1-.51-.672l-.06-.085c-.233-.336-.303-.4-.395-.373a.4.4 0 0 0-.146.07c-.014.01.022.151.086.35l.114.331c.27.74.94 3.406.876 3.471l-.057-.002a4 4 0 0 1-.31-.041c-.403-.066-.821-.042-1.318.082l-.218.058c-.308.092-.552.136-.67.114-.246-.04-.968-.449-1.637-.922l-.153-.11c-.838-.617-1.308-.887-2.081-1.19l-1.52-.6c-.032-.016-.102.038-.151.113-.076.119-.085.137.048.256l.478.418c.763.677 1.163 1.113 1.478 1.607l.077.125c.394.654.793 1.107 1.249 1.408l.395.24c.06.038.1.066.108.077.01.018-.23.35-.558.773l-.597.763c-.257.332-.463.608-.52.702-.098.146-.2.254-.26.254l-.09-.014c-.37-.073-1.706-.412-2.505-.637l-.604-.173a4 4 0 0 0-.38-.095c-.146 0-.122.072.093.256l.337.273c.265.221.687.591 1.045.92l.366.334c.238.214.454.402.589.513l.105.083c.26.19.287.26.19.438-.076.146-.011.313.14.351l.042.013c.076.03.046.106-.22.635l-.065.13c-.417.828-.584 1.017-1.174 1.31-.412.2-.702.207-1.385-.034l-.345-.13c-.897-.35-1.503-.464-2.314-.426-.437.016-.675.054-.908.14l-.154.066c-.092.044-.154.082-.154.097 0 .018.111.088.259.162l.076.038c.476.22 1.063.621 1.64 1.11l.215.187c.692.616 1.13.908 1.508 1.022.269.083.692.1.992.051l.138-.03c.119-.032.222-.043.238-.026.043.043-.135 1.27-.233 1.594-.212.716-.888 1.049-2.515 1.208l-1.038.084c-.45.04-.475.074-.458.19.008.071.06.113.262.172l.84.22c1.044.284 2.239.65 2.239.695 0 .085-.387 1.148-.653 1.805l-.099.238c-.118.287-.221.6-.221.692v.173l.286-.038c1.025-.14 1.757-.537 2.676-1.455l.466-.48c.233-.237.287-.256.413-.239l.327.057c.233.047.211.087.211.328l-.007.16c-.012.203-.042.516-.074.791l-.044.31c-.092.542-.246.637-1.11.692l-.495.026c-1.232.055-1.68.178-2.336.687l-.135.107c-.513.417-1.081.752-1.492.876l-.897.276-.283.093c-.24.086-.362.157-.464.258-.2.2-.216.254-.097.352.05.04.114.047.256.023l.096-.018c.37-.078.88-.072 1.624.02l.257.034c1.063.15 1.596.134 2.314-.103l.915-.326c1.607-.563 1.973-.57 3.015-.24l.146.047c.552.179.682.2 1.163.2a4.7 4.7 0 0 0 1.016-.118l.492-.114c.01 0 .015.19.016.44v.111c-.004.433.012.57.103.809l.184.446-.114.119c-.14.146-.702.443-1.178.621l-.346.13.05 5.998c.027 1.672.116 1.535.631 2.01.746.68 1.568 1.15 2.438 1.389l.178.044c.197.044.376.063.699.068l.507.001c.64 0 .932-.013 1.417-.09l.476-.083c1.303-.238 1.697-.232 2.497.027.79.254 1.357.27 1.99.054 1.353-.466 2.146-.471 3.327.024l.241.106c1.074.483 1.582.502 2.747.011l.227-.098c.303-.135.713-.286.913-.33.536-.13 1.314-.107 2.087.06l.662.138c.754.15 1.055.17 1.717.17.995 0 1.406-.097 2.276-.524a6.5 6.5 0 0 0 1.795-1.287l.335-.357-.005-4.934a69 69 0 0 0-.025-1.796l-.034-.39-.622-.21c-.595-.2-1.044-.45-1.044-.574 0-.028.076-.17.183-.345l.115-.185c.394-.632.567-1.027.605-1.384l.018-.149c.012-.088.026-.148.036-.148l1.31.656c.875.432 1.206.506 1.896.506a6.7 6.7 0 0 0 1.189-.116l.244-.046c1.065-.21 1.725-.21 2.676-.005l.512.11c.886.185 1.483.287 1.92.324l.34.023c.248.013.296.003.322-.059l.01-.025c.059-.179-.004-.248-.407-.38l-.118-.037c-.676-.205-1.151-.454-1.735-.902-.694-.536-1.13-.817-1.517-.972l-.224-.08c-.279-.09-.469-.096-1.509-.105l-.545-.005c-.654-.008-.786-.033-1.05-.125-.762-.27-1.546-.735-2.038-1.206-.275-.27-.503-.66-.427-.735.02-.019.216-.046.457-.067l.342-.023c.227-.01.299.002.403.068l.788.552c.411.282.468.315.516.24l.014-.024c.054-.103.07-.097.34.124.427.346.79.557 1.146.676.363.12 1.109.2 1.109.125 0-.014-.04-.107-.103-.246l-.249-.522c-.335-.692-.622-1.438-.622-1.622 0-.086.358-.176 1.215-.302l.377-.053c.187-.02.29-.005.561.08l.58.19c.34.105.489.112 1.025.112 1.027 0 1.827-.222 2-.568.125-.232.103-.265-.151-.265-.346 0-1.022-.189-1.395-.384-.384-.204-1.096-.787-1.815-1.479l-.802-.791.379-.357.359-.325c.507-.44.902-.684 1.55-.968l.61-.26a4.5 4.5 0 0 0 1.017-.593c.443-.33.838-1.011.951-1.617l.017-.118c.005-.071-.018-.082-.087-.082-.048 0-.158.055-.266.136l-.21.171c-.327.259-.53.298-1.49.307l-1.215.01c-.435.01-.56.034-.733.102l-.049.02c-.348.14-.735.381-1.107.69l-.185.159c-.379.335-.822.643-1.006.697-.109.033-.267-.17-.924-1.253l-.529-.877c-.184-.317-.19-.406-.038-.678l.177-.306c.308-.524.663-.885 1.706-1.684l1.085-.825c.393-.305.668-.531.686-.567.06-.124.005-.265-.103-.265-.038 0-.286.107-.569.244l-.107.053c-.714.36-1.23.575-1.876.778l-2.154.643c-.345.098-.444.106-.473.06l-.86-1.578.357-.335c.423-.408.72-.852 1.071-1.632l.266-.61c.243-.54.394-.76.714-1.046l.214-.183c.735-.611 1.514-1.417 1.757-1.827l.097-.167c.072-.127.116-.22.109-.228-.007-.007-.135.036-.315.106l-.302.121c-.288.118-.833.323-1.291.485l-.19.066c-.487.168-1.016.39-1.184.487-.346.207-.752.623-1.122 1.145l-.138.201c-.535.811-1.151 1.325-1.595 1.336-.097.005-.264-.06-.405-.152l-1.542-1.03c-.068-.048-.065-.1.173-.693l.474-1.175c.096-.244.183-.472.232-.616l.025-.076c.12-.359.327-1.488.405-2.178l.055-.579h-.146c-.206 0-.368.184-.66.762l-.142.28c-.246.463-.435.7-.99 1.278l-.16.167c-.709.734-1.044 1.172-1.236 1.648l-.17.46h-.276c-.432 0-.827.092-1.227.287l-.173.086c-.162.077-.193.074-.21.013l-.13-.57a19 19 0 0 0-.29-1.063l-.281-.913c-.206-.696-.251-.975-.251-1.386l.006-.207c.022-.373.112-.742.352-1.424l.231-.634c.241-.639.392-1.12.505-1.611l.098-.468c.063-.326.103-.578.095-.608-.01-.026-.15.145-.332.403m-11.363 2.5q.202.403.367 1.009l.166.644c.158.593.272.887.446 1.162l.147.225a1 1 0 0 1 .09.16c0 .017-.096.141-.22.27-.358.39-.45.741-.32 1.217l.06.2.194-.113c.146-.087.276-.114.536-.108l.245.01q.316.024.317.114c0 .103-.449.368-.73.432-.443.098-.643.038-1-.324-.68-.674-.886-1.444-.761-2.899l.025-.264c.11-1.02.11-1.57-.016-2.228l-.038-.183c-.023-.118-.022-.129.07-.025l.044.052c.076.087.243.379.378.649m4.99.119.06.33c.036.183.078.376.114.519l.067.284c.025.114.04.201.04.23-.005.102-.908.95-.962.902-.024-.027-.002-.197.094-.661l.252-1.145c.114-.48.217-.876.238-.876s.065.19.098.417m5.363-.077-.086.288c-.27.848-.362 1.416-.33 1.995l.011.154c.037.402.136.762.53 2.04l.124.423c.184.66.253 1.106.217 1.421-.026.27-.074.424-.239.696l-.172.267a15 15 0 0 0-.55.969l-.655 1.236c-.348.642-.532.926-.747 1.174-.205.232-.773.621-.914.621-.205 0-.486-.443-.67-1.07l-.039-.148c-.029-.136 0-.154.1-.086l.047.034a.4.4 0 0 0 .135.08c.07 0 .156-.588.189-1.282l.038-.96.644-.958c.703-1.054 1.022-1.643 1.157-2.13.123-.452.152-1.195.075-2.029l-.027-.252c-.092-.844-.07-1.168.103-1.509.07-.14 1.065-1.26 1.12-1.26.014 0-.013.116-.06.286m-4.54 1.98c0 .303-.18.695-.497 1.086l-.31.359a1 1 0 0 0-.113.15c0 .012.028.024.066.03l.042.002c.179 0 .52.2.752.438.346.362.757 1.287.762 1.709v.118l-.281-.102-.206-.065c-.055-.015-.091-.022-.097-.016-.01.005.087.232.211.492l.208.457c.252.571.403.99.468 1.289.07.34.108 1.303.049 1.303l-.053-.02a7 7 0 0 1-.25-.12c-.146-.082-.281-.13-.298-.12-.027.033.065.746.173 1.287.146.725.6 1.514.876 1.514.135 0-.146.27-.4.384-.23.106-.397.087-.69-.093l-.337-.22-.346.324c-.8.735-1.606 1.221-2.092 1.265-.194.019-.297 0-.566-.131l-.559-.28-.351.34c-.6.59-1.59 1.276-1.833 1.276-.103 0-.168-.41-.168-1.086 0-.79.103-1.46.352-2.293l.204-.636c.294-.89.776-2.285.968-2.793l.039-.101c.117-.302.11-.393-.05-.377l-.157.025c-.083.004-.055-.048.072-.237.162-.235.437-.525.718-.763l.28-.224c.188-.157.15-.2-.229-.248l-.447-.053c-.437-.058-.483-.096-.198-.248l.249-.124c.378-.19.541-.246.804-.276l.378-.036c.14-.02.153-.048.153-.132 0-.189-.34-.535-.692-.708-.236-.118-.336-.145-.64-.147l-.421.004c-.157-.004-.187-.024-.172-.073.017-.043.033-.103.033-.13s.097-.157.221-.292c.255-.27.584-.421.893-.394.17.014.204.024.231.153l.012.063a.9.9 0 0 0 .225.47l.088.098c.136.146.163.146.298.043.14-.108.303-.103.46.01.124.087.134.082.232-.032.124-.157.124-.265-.011-.438-.074-.097-.128-.127-.296-.13h-.093c-.157 0-.335.017-.395.028-.146.027-.178-.195-.049-.336.109-.119.341-.13.784-.048.242.047.288.049.369-.031l.037-.04a9 9 0 0 1 .488-.466l.525-.478c.127-.12.236-.226.305-.297l.071-.078c.135-.173.2-.113.2.195m10.19 1.011-.027.108c-.06.26-.33 1.027-.6 1.698l-.492 1.221-1.084-.359a1 1 0 0 1-.089-.035c-.032-.022.308-.714.487-.968.078-.112.356-.429.675-.767l.46-.486c.316-.34.578-.64.622-.72.13-.256.149-.135.047.308m-20.583.713.506.667c.421.563.813 1.133 1.386 2.02l1.971 3.097c.34.52.506.75.642.904.146.162.162.217.13.384-.065.357-.136.454-.293.422-.28-.065-.951-.357-1.26-.54-.594-.365-.956-.89-1.602-2.427l-.203-.493c-.4-.993-.697-1.563-1-1.891l-.076-.077c-.19-.18-.254-.312-.421-1.086l-.206-.971a5 5 0 0 0-.151-.587c-.114-.2-.054-.195.135.022l.172.21zm-6.514.357c.217.098.595.33.85.514l.237.171c.186.13.417.289.642.44l.637.426c.252.174.43.304.43.32 0 .022-.163.173-.363.34l-.362.298-.427-.21a3 3 0 0 1-.649-.444l-.124-.131a3.4 3.4 0 0 1-.3-.403l-.398-.612a6 6 0 0 0-.45-.633l-.135-.151c-.127-.154-.014-.129.412.075m33.12.595-.654.562-.31.28a6 6 0 0 0-.425.418c-.168.216-.443.74-.632 1.192l-.066.165c-.286.773-.643 1.314-1.081 1.654l-.187.138a.4.4 0 0 1-.094.057c-.017 0-.055-.045-.095-.105l-.03-.047a6 6 0 0 0-.32-.415l-.401-.472a.8.8 0 0 1-.122-.167l.263-.136.072-.037c.394-.2.859-.644 1.29-1.24l.143-.203c.433-.644.838-1.044 1.233-1.233l.164-.071c.43-.175 1.278-.46 1.306-.432.017.011-.01.049-.054.092M13.635 8.739c.233.114.595.455.779.736l.048.088c.117.227.377.8.638 1.398l.35.805c.18.401.335.73.402.85.51.908.977 1.34 1.872 1.702l.82.314-.03.19c-.047.27-.135.731-.143.735-.022.016-1.86-.735-2.022-.822l-.133-.08c-.354-.237-.709-.651-1.373-1.609l-.72-1.055c-.312-.443-.603-.825-.72-.943-.67-.681-1.4-.72-2.293-.119-.113.077-.564.5-1.109 1.039l-1.149 1.15c-.703.699-.931.887-1.159 1-.183.093-.4.168-.48.168-.136 0-.141-.01-.109-.173.102-.503.706-1.496 1.62-2.665l.175-.222c1.34-1.676 2-2.195 3.217-2.535.405-.114 1.254-.087 1.519.048m19.074.438c1.747.553 3.372 1.844 4.55 3.601l.191.297c.282.444.579.995.536.995l-.33-.224-1.052-.745c-2.521-1.764-3.794-2.328-4.809-2.161-.896.143-1.511.69-2.3 2.075l-.133.239a12.6 12.6 0 0 1-1.946 2.67c-.529.564-1.316 1.04-1.808 1.11l-.117.01c-.102 0-.189.027-.189.054 0 .119.227.908.352 1.205.388.974 1.087 1.666 2.014 2.004l.202.067c.227.07.487.216.865.503.72.535 1.622.968 2.595 1.238l.474.137c.472.146.61.241 1.035.577 1.449 1.151 2.303 2.573 2.303 3.838 0 .611-.427 1.627-.838 1.99q-.844.739-2.27.74c-.785 0-.985-.064-1.596-.519-.594-.438-.81-.724-1.086-1.443-.114-.292-.357-.01-.265.308.027.092.146.351.27.579l.085.16c.076.15.122.265.11.277-.065.065-.509.027-.67-.059a1.1 1.1 0 0 1-.298-.249c-.373-.439-.206-.994.584-1.92l.537-.618.068-.084.093-.1c.057-.057.102-.09.113-.078.015.011.003.103-.027.223l-.044.155c-.173.562-.189.763-.091 1.103.054.194.123.32.263.472l.222.223c.099.102.114.137.079.183l-.05.052c-.206.195-.033.335.756.61 1.033.369 1.952.271 2.552-.27.34-.302.422-.47.422-.843 0-.573-.341-1.173-1.06-1.876-.547-.532-2.121-1.877-2.748-2.35l-.112-.083c-.603-.432-1.563-.826-1.42-.591l.08.106c.033.047.074.11.113.172l.108.189-.573.005c-.752.011-1.087.13-1.444.514a2.1 2.1 0 0 0-.335.47c-.092.217-.124.779-.054.963.038.102.016.119-.157.146-.222.037-.362-.02-.393-.15l-.007-.061c0-.09-.017-.104-.15.018l-.342.336c-.136.128-.254.219-.286.219-.035 0-.084-.059-.12-.138l-.026-.062c-.04-.122-.227-.349-.592-.72l-.128-.129c-.87-.865-1.432-1.714-1.865-2.8-.113-.276-.297-.53-.351-.47-.054.059-.07.448-.022.664.023.116.122.367.235.6l.29.587.005.013c0 .076-.34-.01-.687-.167-.73-.34-1.665-1.417-2.07-2.39-.281-.676-.487-1.698-.487-2.427v-.282l.53-.35.311-.223c.216-.16.435-.335.565-.454l.351-.324.217.13c.346.2.665.248 1.021.156.557-.146 1.438-.665 2.006-1.173l.265-.243.292.135c.227.103.34.124.514.097.524-.086 1.065-.475 1.67-1.2.49-.589.923-1.27 1.51-2.375l.404-.763c.255-.473.502-.906.611-1.068.335-.492.854-.968 1.216-1.114.39-.157 1.13-.119 1.763.081m-20.02 1.871c.286.138.547.428 1.136 1.293l.542.803c.598.87 1.027 1.402 1.322 1.645.28.227.712.467 1.218.675l.22.088c.276.108.644.27.822.367l.32.179.032.432c.021.238.027.53.016.649-.016.194-.032.216-.173.232-.173.022-.562-.124-.665-.254a.34.34 0 0 1-.065-.15l-.005-.055a.46.46 0 0 0-.065-.227c-.042-.068-.068-.084-.18.006l-.199.178c-.346.324-.632.432-.957.378l-.132-.024c-.186-.042-.202-.105-.162-.412l.013-.1c.125-.87.081-1.059-.216-1.059-.082 0-.1.034-.102.304v.112c0 .763-.19 1.082-.612 1.028-.27-.038-.492-.184-.448-.298l.135-.389a3.3 3.3 0 0 0 .132-.69l.052-.716-.487-.519.027.665c.02.52.013.675-.065.939l-.089.274c-.046.13-.088.225-.1.236-.022.011-.249-.021-.508-.07l-.21-.042c-.199-.045-.252-.076-.239-.131.065-.21.134-.921.17-1.659l.04-1.082-.161.021-.168.028-.062 1.109c-.053.846-.116 1.188-.251 1.464-.222.449-.546.59-1.05.443l-.148-.047c-.14-.051-.162-.096-.106-.217l.15-.287c.152-.316.209-.609.252-1.341l.02-.405c.033-.628.092-1.276.135-1.45.044-.178.065-.34.044-.367-.013-.022-.082-.009-.17.028l-.131.065c-.134.075-.177.155-.213.655l-.08 1.47c-.044.683-.09.845-.239 1.14-.184.372-.313.486-.535.486-.211 0-.54-.14-.762-.319-.125-.097-.125-.114-.044-.205.281-.32.606-1.352.67-2.125l.039-.433h-.136c-.168 0-.225.064-.27.337l-.016.112c-.184 1.546-1.163 2.892-2.017 2.774a.99.99 0 0 1-.778-.557c-.087-.2-.108-.33-.087-.644.03-.403.11-.598.286-.666l.071-.02c.087-.017.32-.14.52-.276l.285-.195a1 1 0 0 1 .093-.054c.043 0-.087.979-.163 1.238-.016.049.07-.021.19-.151.203-.218.357-.572.44-1.008l.043-.277c.033-.17.12-.285.58-.778l.24-.256c1.005-1.082 1.767-1.752 2.173-1.93.254-.109.568-.098.838.032m20.384.536.16.064c.61.248 1.315.646 2.265 1.28l.77.526c.434.304.523.396.469.438-.027.027-.054.26-.054.519l-.002.228c-.006.246-.033.283-.15.383-.373.32-.827.071-1.658-.943l-.261-.328c-.33-.427-.578-.692-.681-.74-.135-.055-.173-.055-.184 0-.011.052.086.33.248.722l.25.58c.15.336.194.503.194.747 0 .394-.114.632-.303.632-.356 0-.955-.466-1.493-1.156l-.288-.383c-.354-.456-.684-.776-.717-.678-.035.106.317.78.67 1.3l.082.117c.595.838.654 1.081.297 1.254-.265.125-.578.108-.778-.038-.14-.097-1.06-1.173-1.892-2.21-.25-.314-.26-.417-.087-.752.416-.833.854-1.314 1.454-1.622.303-.152.357-.162.784-.146.351.019.51.051.905.206m-27.362.89.952.227c.287.073.499.135.511.147.033.027-.34.66-.416.709-.023.013-.146-.064-.29-.178l-.072-.06c-.454-.384-.92-.87-.827-.87l.074.011zm35.604 1.446-.118.101c-.627.52-1.287 1.298-1.438 1.693-.022.048-.054.086-.081.075-.045-.015-.678-.84-.837-1.084l-.042-.073c-.035-.08.024-.124.805-.363l1.52-.453c.36-.1.389-.074.19.104m-11.504.375.065.067c.335.346.903 1.098 1.054 1.4.13.25.108.325-.124.47-.375.229-.627.11-1.075-.552l-.093-.14c-.432-.67-.497-.783-.497-.897 0-.108.319-.573.394-.573.028 0 .147.095.276.225m7.436-.145.593.37c.093.055.16.09.173.09.024 0 .206.189.428.432l.085.093c.467.527.939 1.19 1.631 2.316l.164.268c.938 1.548 1.702 2.551 2.813 3.691l.285.289c1.145 1.14 1.777 1.633 2.416 1.88l.335.121c.106.044.08.055-.026.086l-.101.014a8 8 0 0 1-.635.028h-.13c-.718 0-.905-.031-1.593-.344l-.201-.093a5.5 5.5 0 0 1-1.72-1.19c-.577-.587-.935-1.1-1.49-2.144l-.372-.71c-.494-.92-.814-1.375-1.203-1.736l-.133-.119c-.4-.346-.385-.193.068.582l.48.804c.728 1.231.964 1.83 1.434 3.616l.336 1.293c.218.81.36 1.226.564 1.68l.18.402c.06.14.095.235.088.241-.049.054-.838-.367-1.13-.6-.8-.643-1.29-1.674-2.192-4.648l-.296-.979c-.431-1.39-.613-1.709-1.063-2.012l-.212-.135.13.319c.256.604.582 1.54.925 2.636l.45 1.458c.277.869.509 1.51.73 2.021l.24.527a1 1 0 0 1 .072.186c-.162 0-1.157-.973-1.47-1.433-.611-.9-1.318-2.649-1.85-4.537l-.213-.777a6 6 0 0 0-.176-.557l-.081-.2-.184.086-.184.081.065.25a57 57 0 0 0 1.206 3.84l.113.311c.368.979.465 1.525.395 2.26l-.043.433-.098-.19-.084-.143c-.198-.317-.581-.81-1.195-1.535l-.794-.936c-.758-.907-.975-1.237-1.346-1.953l-.18-.343c-.107-.2-.197-.349-.218-.36-.02-.013-.074-.016-.131-.008l-.058.013c-.184.043-.173.086.238 1.016l.129.309c.122.308.22.6.244.75l.046.285c.059.393.07.629.035.651-.054.027-1.654-.362-2.476-.605-1.638-.487-2.882-1.552-3.438-2.952l-.179-.444a.2.2 0 0 0-.061-.022l-.123-.026c-.157-.033-.173-.022-.173.102 0 .226.167.7.379 1.08l.253.427c.044.076.071.126.071.131 0 .011-.14-.048-.313-.135a3.1 3.1 0 0 1-1.098-.994c-.168-.26-.535-1.136-.535-1.276 0-.027.124-.07.276-.103.237-.043.313-.038.524.054.281.13.762.108 1.233-.043a3 3 0 0 1 .675-.103c.503-.016.806-.14 1.157-.476.25-.243.26-.248.411-.173.33.173.768.07 1.114-.26l.173-.161.178.15c.357.304.774.38 1.168.212.211-.087.552-.384.552-.476.005-.173.092-.2.292-.081.254.146.665.157.902.016.26-.151.4-.465.395-.87l-.005-.336.248.222c.422.373.747.53 1.093.53.53 0 .876-.372.928-.976l.017-.352c.006-.08.013-.132.022-.132q.008.001.05.026m-8.398.942.44.722c.08.132.16.25.213.315l.152.169-.189.162c-.454.384-.881.476-1.076.227-.108-.135-.276-.627-.276-.806 0-.048.152-.265.336-.486l.205-.231c.12-.125.157-.129.195-.072m-22.14 1 .017.049c.064.27.346.567.702.74.314.157.395.174.676.146.373-.032.725-.178.984-.405l.195-.168.373.179c.22.108.39.168.592.198l.16.018c.168.013.413.06.61.118l.135.044c.398.152.77.179 1.15.078l.164-.05c.508-.18.92-.125 1.579.194.465.232.573.265.93.276.177.008.438.045.643.092l.14.037c.314.092.428.098.666.054.264-.046.4-.096.52-.195l.058-.053c.081-.081.098-.081.206.021.248.222.589.357.919.352.14-.005.26.01.297.03l.011.013c0 .022.066.04.158.046l.074.003c.125 0 .255.021.287.043.022.017.047.107.059.22l.006.088c.021.454.119 1.114.238 1.579l.108.438-.411.805-.188.35c-.203.363-.435.746-.585.953l-.152.203c-.432.556-1.051 1.208-1.082 1.13l.019-.178c.011-.132.025-.333.037-.566l.02-.443c.039-.81.077-1.14.185-1.578l.064-.273a8 8 0 0 0 .114-.587l.038-.308-.184.038c-.2.037-.265.108-.265.286 0 .136-.166.597-.345.975l-.06.123c-.217.429-.528.825-1.268 1.587l-.634.658c-.225.236-.42.447-.528.568l-.046.052c-.27.314-.309.292-.195-.135.017-.073.041-.378.063-.781l.072-1.833c.024-.419.057-.566.143-.835l.087-.273c.055-.184.085-.32.073-.333-.016-.016-.097-.027-.184-.027-.108 0-.168.038-.205.119-.477 1.175-.838 1.795-1.666 2.804l-.475.573c-.504.617-.733.953-.879 1.274l-.09.206c-.11.223-.153.108-.173-.436l-.004-.134c-.028-.686.037-1.081.237-1.557l.24-.575c.179-.438.273-.707.363-1.03l.068-.255c.092-.351.178-.778.2-.951l.032-.308h-.173c-.092 0-.178.032-.189.065l-.081.34c-.151.687-1.525 3.028-2.39 4.087l-.242.284c-.32.361-.69.738-.736.738-.054 0-.056-.278.014-1.118l.119-1.308a15 15 0 0 1 .193-1.385l.19-.993c.096-.54.106-.792.057-1.094-.027-.168-.06-.206-.2-.233-.087-.016-.173-.021-.19-.005-.016.01-.043.297-.064.633-.081 1.173-.736 2.816-1.509 3.79-.881 1.102-1.903 1.913-2.54 2.016l-.104.012c-.173.008-.142-.092.076-.569.249-.546.633-1.724.811-2.476l.133-.552c.07-.285.15-.6.219-.854.097-.384.206-.932.263-1.315l.023-.177a10 10 0 0 1 .254-1.243l.068-.208c.233-.675.793-2.004.851-2.004.017 0 .036.03.054.076m21.15.53.046.145c.03.11.014.13-.051.163-.162.087-.654.157-.833.12l-.173-.039.32-.248c.148-.113.308-.244.388-.323l.038-.04c.125-.135.152-.113.265.222m-25.334.076c.167.036.472.136.732.234l.4.158c.214.08.422.148.522.175.34.081.925.033 1.227-.102.13-.065.25-.103.26-.092.006.003-.009.054-.036.129l-.197.508-.102.287c-.049.157-.135.32-.195.373-.254.233-.919.314-1.346.162-.248-.084-.485-.24-.88-.581l-.288-.257c-.265-.243-.67-.578-.892-.746l-.264-.196a3 3 0 0 1-.195-.155c-.076-.076.8-.005 1.254.103m44.625.827c-.087.157-.53.53-.838.703-.114.065-.37.184-.635.3l-.263.11c-.87.352-1.508.768-2.308 1.498l-.128.104c-.082.06-.152.102-.18.102-.076 0-.952-1.06-.952-1.147 0-.017.059-.062.14-.11l.065-.036c.1-.052.356-.24.604-.442l.523-.435c.737-.602.959-.663 2.065-.672l1.126-.012c.38-.008.64-.02.65-.033.017-.017.066-.033.109-.033.054 0 .06.027.022.103M19.71 21.067l.13.232a5.5 5.5 0 0 0 .825 1.17l.377.41c.167.191.181.264.215.533.055.52.05 1.647-.006 2.08l-.016.094c-.059.292-.054.319.092.59.087.156.238.35.336.437l.178.157-.178.124c-.119.085-.241.12-.52.147l-.13.01c-.502.038-.653.103-.859.378-.162.217-.238.698-.157.979.092.303.47.67.736.724.226.039.293-.004.26-.177l-.017-.071c-.036-.13-.038-.186.009-.245l.034-.036c.092-.098.108-.087.444.151l.29.197c.09.058.166.106.207.127.146.076.146.07.254-.167.108-.249.373-.46.579-.46.075 0 .118.054.185.245l.03.09c.13.4.25.444.428.168.146-.232.4-.238.822-.016.421.228.579.224.948-.099l.106-.096c.14-.13.281-.238.319-.238.027 0 .125.068.232.16l.065.057c.2.183.27.216.476.216.14 0 .26-.033.303-.081.085-.1.145-.062.159.09l.003.072c0 .13.032.205.108.243.092.049.124.027.238-.146.205-.308.303-.638.303-1.016v-.34l-.292-.2c-.185-.127-.29-.178-.402-.182l-.069.003c-.156.01-.183 0-.2-.103-.021-.157.428-.919.692-1.179l.195-.194.135.108c.153.12.41.197.718.217l.158.005c.168 0 .308.021.308.048 0 .011-.036.076-.094.171l-.225.354c-.53.794-.616 1.292-.308 1.757.314.47.892.686 1.563.578l.4-.06.302.25c.444.362.909.497 1.687.486a4.15 4.15 0 0 0 1.86-.427c1.19-.573 1.876-2.163 1.546-3.59-.198-.852-.746-1.8-1.473-2.552l-.434-.428a.5.5 0 0 1-.066-.075c0-.006.03-.003.072.007l.237.06c.04.01.07.015.08.015.027 0 .043-.282.043-.622v-.627l.984 1.13c.725.827 1.347 1.632 1.536 2 .157.308.249.773.205 1.033-.014.092-.103.312-.21.523l-.055.104c-.279.522-.348.715-.366 1.221l-.013.67c-.02.524-.106.704-.486 1.272-.254.383-.789.838-1.184 1-.534.224-1.026.306-1.954.317l-.825.001a4.7 4.7 0 0 1-.96-.102l-.602-.124c-1.42-.3-1.822-.304-2.922.035l-.23.073c-.53.167-.616.178-1.298.178l-.423-.009c-.321-.015-.542-.056-1.048-.179l-.205-.05c-1.33-.33-1.68-.319-2.892.092l-.223.069c-.202.055-.36.071-.665.073l-.166-.001c-.483-.005-.65-.022-1.065-.142l-.195-.058c-1.024-.318-1.403-.33-2.487 0l-.243.075c-.573.184-.735.211-1.168.211-.622 0-.94-.086-1.595-.448-.61-.336-1.027-.703-1.2-1.05-.108-.22-.124-.35-.135-.853l-.006-.595-.324-.627c-.368-.714-.481-1.152-.433-1.72.057-.704.248-1.09 1.111-2.147l.407-.493c.29-.355.57-.718.688-.89l.276-.395-.03 1.358c-.016.52-.038.686-.126.966l-.128.39a2.4 2.4 0 0 0-.105.417c0 .162.108.519.157.519.057 0 .598-.54 1.219-1.212l.796-.866c.13-.138.238-.251.305-.319l.197-.189a12 12 0 0 0 .303-.314l.445-.48-.032.703c-.038.779-.179 1.444-.39 1.866l-.085.179c-.062.149-.055.217.017.294l.041.04c.093.083.11.087.314-.138l.542-.587c.114-.122.232-.248.34-.361.886-.941 1.443-1.714 2.01-2.774l.09-.168c.07-.127.124-.216.132-.216.007 0 .054.074.118.185m-15.191.664-.06.287q-.096.541-.232.54c-.114 0-1.26-.27-1.352-.324-.038-.02.124-.081.385-.156l.375-.106c.184-.056.361-.117.478-.165l.243-.108c.178-.077.193-.059.163.032m37.726 1.476.324.233-.351.102a3.5 3.5 0 0 1-.51.1l-.366.025-.328-1.224c-.093-.362-.084-.418.077-.275l.327.315c.28.27.654.594.827.724m-34.601-.222-.038.384h-.243c-.227 0-.238-.005-.163-.097.033-.033.094-.125.16-.234l.214-.363c.043-.067.074-.107.08-.1.017.01.006.194-.01.41m2.676.098a2 2 0 0 0-.08.384l-.05.47-.573.032.474-.712c.24-.35.322-.41.229-.174m12.289.502h.416l.28.415.163.229c.114.157.12.19.065.481-.102.535-.378 1.12-.665 1.422-.238.238-.286.265-.508.265-.297 0-.487-.081-.6-.254l-.026-.049c-.046-.116-.063-.362-.072-1.043l-.021-1.725.276.13c.216.102.367.13.692.13m7.001.157c.843.33 2.082 1.217 3.103 2.222.773.757 1 1.211.86 1.709q-.129.444-.703.719c-.422.2-1.092.2-1.487.005-.26-.13-.27-.146-.27-.351 0-.09.012-.197.027-.272l.016-.063c.029-.081.02-.11-.097-.157l-.157-.054c-.373-.12-.654-.346-.697-.557-.019-.079.01-.277.067-.516l.03-.122c.238-.86.151-1.298-.351-1.768l-.14-.125a.7.7 0 0 0-.174-.124c-.02 0-.047.119-.065.285l-.016.18c-.027.363-.065.514-.173.703-.232.4-.687.535-1.227.379-.254-.07-.357-.146-.703-.509l-.168-.187c-.152-.178-.254-.324-.27-.397-.054-.27.07-.551.351-.805.373-.335.606-.406 1.26-.39.46.017.611.044.984.195m8.207.357.249.324-.461.065a.5.5 0 0 1-.161.006c-.038-.049.043-.8.076-.763l.046.052c.056.067.15.189.251.316m-27.584.606c.022.21.087.47.163.621l.124.254-.162-.037-.102-.013a16 16 0 0 0-1.017-.025h-.957l.486-.53.178-.183c.203-.203.377-.356.428-.369.216-.043.384-.064.605-.075l.222-.006zm14.03.26c.289.26.437.462.502.704l.055.262c.03.12.057.134.128.102l.04-.02c.1-.053.112-.054.09.162l-.01.092c-.043.395-.178.854-.28.962-.053.053-.179.072-.54.064l-.147-.004c-.692-.016-.876-.076-.962-.314-.086-.255-.071-.424.064-.607l.065-.08c.249-.275.568-.956.611-1.291.016-.152.049-.276.07-.276s.168.108.314.243m2.617.707c.062.039-.042.265-.233.52l-.075.097a3 3 0 0 0-.32.46c-.21.432-.134 1.118.12 1.15a.9.9 0 0 0 .3-.045l.089-.03c.319-.113.432-.054.432.222 0 .308-.032.335-.313.308-.167-.014-.255-.005-.339.049l-.18.14-.233-.238q-.227-.241-.324-.216l-.11.024a7 7 0 0 1-.258.04c-.221.033-.302.077-.47.255l-.2.222-.352-.092a3.5 3.5 0 0 0-.552-.082l-.118-.005c-.357 0-.39-.032-.39-.357q0-.502.82-.436l.409.043c.309.026.446.009.524-.06.048-.039.135-.244.2-.455l.227-.771c.107-.344.172-.5.243-.604l.19-.236.437.038c.243.022.454.049.476.06m11.256.855c.611.405 1.27.724 1.752.848l.153.036c.202.04.41.057.795.061h.517c1.562-.01 1.887.103 3.05 1.028l.293.245c.074.064.117.106.112.112a.7.7 0 0 1-.169-.024l-.383-.084c-1.113-.27-1.839-.295-3.066-.085l-.318.058c-.855.162-1.32.189-1.736.092-.578-.141-2.411-1.006-2.644-1.255-.108-.113-.113-.146-.054-.335.038-.114.163-.378.282-.584.118-.21.254-.53.297-.714l.081-.33.303.32c.162.178.492.454.735.61m-28.054-.617.274.041c.286.051.28.117.359.532.054.287.173.638.308.925l.122.263c.057.128.09.217.083.223a4 4 0 0 1-.503.103c-.57.103-.943.081-1.64-.11l-.22-.063c-.458-.13-.718-.184-1.08-.21l-.19-.012c-.686-.035-1.113.052-2.117.433l-.524.2c-.355.13-.708.24-.868.27-.35.068-.86.058-1.485-.025l-.666-.099.486-.254c.227-.12.613-.364.923-.581l.395-.283a6 6 0 0 1 .58-.374c.317-.164.77-.254 1.388-.273l.24-.003c.805-.005 1.01-.043 1.626-.33.87-.394 1.585-.502 2.509-.373m12.696 1.403.047.068c.157.205.314.497.314.584 0 .021-.06.043-.14.05l-.066.004c-.19 0-.362.08-.914.432-.292.19-.616-.194-.53-.627.044-.232.444-.686.828-.94l.248-.163.06.238c.026.108.09.251.153.354m-1.603.275.006.063c.017.173-.016.238-.264.514l-.237.25a1 1 0 0 1-.088.08c-.021.01-.081-.06-.135-.157-.21-.411.086-.941.508-.903l.112.014c.07.016.087.047.098.14m-8.822 2.972c.378.26 1.384.74 1.697.81.363.087 1.087.087 1.482 0 .162-.032.513-.134.778-.22a6 6 0 0 1 .73-.196l.271-.044c.333-.042.488-.003 1.773.353.54.146 1.195.151 1.73.005l.892-.249c.658-.18 1.017-.184 1.922.037l.61.152c.447.105.635.123 1.113.129l.565.002c.31-.002.468-.019.735-.089l.515-.15c.97-.288 1.423-.328 2.553-.12l1.017.203c.954.188 1.294.2 2.02.134.822-.076 1.58-.26 2.082-.514l.379-.19.173.174c.113.119.362.254.756.41l.476.174c.1.034.167.054.184.054.038 0 .06.095.064.325v.282c-.008.325-.068.303-.518.139-.236-.082-.398-.108-.823-.113h-.172c-.605 0-.757.021-1.422.2-1.337.353-2.08.362-3.418.001l-.296-.083c-.279-.084-.467-.11-.908-.117l-.689-.002c-.5.003-.618.037-1.23.222-1.39.416-1.969.416-3.444 0-.682-.19-1.455-.254-1.958-.157-.157.032-.45.108-.706.19l-.148.048c-.392.128-.55.16-.93.167h-.178c-.501 0-.617-.012-1.116-.177l-.516-.17a2.3 2.3 0 0 0-.81-.122h-.153c-.482-.006-.66.016-1.265.175l-.646.168c-.407.1-.55.106-.874.089l-.194-.017c-.339-.038-.61-.116-1.32-.372-.633-.231-1.433-.203-2.17.068l-.424.175v-.802c.004-.287.02-.34.088-.364l.025-.007c.184-.049.92-.427 1.184-.606l.218-.144a.2.2 0 0 1 .042-.023l.041.021c.047.028.126.08.213.14m.9 3.121.246.074c.928.3 1.331.332 2.29.135l.25-.054c1.271-.281 1.536-.265 3.018.173.162.043.497.076.838.076.432 0 .63-.022 1.124-.148l.584-.152c.326-.08.513-.1.844-.105h.178c.525 0 .692.012 1.236.157l.197.053c.688.182.795.207 1.418.207l.548-.005c.394-.007.557-.028.872-.116l.27-.08c.833-.25 1.195-.309 1.817-.314l.294.006c.324.018.651.087 1.728.335.627.14 1.66.151 2.244.021l.698-.154c1.252-.266 1.689-.273 2.342-.098l.636.182-.002.963c-.002.19-.007.318-.014.318l-.422-.146c-.346-.119-.487-.14-1.022-.14l-.288.004c-.263.01-.47.038-.809.111l-.813.187a5.2 5.2 0 0 1-.98.124l-.466.014c-.54.009-.775-.04-1.834-.289-.932-.218-1.682-.204-2.67.074l-.276.083c-.964.3-1.715.322-2.824.065l-.693-.17c-.4-.09-.586-.1-1.133-.1l-.392.004a3 3 0 0 0-.722.096l-.721.186c-.887.214-1.244.16-2.787-.27-.552-.152-1.336-.12-2.028.086-.898.27-1.423.272-2.332-.01l-.236-.076c-1.038-.352-1.773-.357-2.611-.017l-.314.125.033-1.157.286-.157c.634-.334 1.429-.37 2.398-.1m.044 2.822.191.063c.55.182.68.222 1.062.23l.344.003c.5 0 .73-.022 1.003-.09l.105-.03c.222-.07.59-.156.811-.205.441-.084.805-.054 1.516.138l.203.057c1.08.311 1.506.334 2.557.084l.255-.062c.567-.144.78-.182 1.195-.188l.167-.002c.406 0 .601.016.922.092l.376.098c1.402.383 1.943.409 3.174.063l.275-.08c1.04-.306 1.691-.328 2.844-.06l.546.133c.36.085.548.105 1.033.107l.774-.003a4.3 4.3 0 0 0 1.068-.118l.352-.08c1.022-.243 1.487-.26 2.304-.081l.556.124-.032 1.244-.162-.017c-1.203-.104-1.738-.08-2.74.158l-.581.142c-.28.063-.463.085-.787.09l-.737-.005a3.2 3.2 0 0 1-.967-.15l-.162-.045c-1.267-.379-1.968-.39-3.16-.03l-.614.199a2.3 2.3 0 0 1-.811.134h-.335c-.587 0-.75-.013-1.14-.126l-.787-.236a3.8 3.8 0 0 0-.912-.174c-.458-.038-.955.02-1.568.183l-.27.077a6 6 0 0 1-.823.175l-.128.014c-.422.032-.584 0-1.887-.368a5.6 5.6 0 0 0-.92-.14l-.242-.008c-.254-.001-.429.027-.82.124l-.633.157a8 8 0 0 1-.548.116c-.349.044-.805-.032-1.507-.254l-.533-.173c-.366-.113-.541-.14-.81-.14a4.2 4.2 0 0 0-1.273.241l-.388.154c-.05.018-.084.026-.09.02l-.01-.047a6 6 0 0 1-.025-.294l-.057-.983.211-.092c.74-.324.887-.357 1.509-.335.466.02.637.043 1.106.196"/>
</svg>
