---
version: "3.1.13"
---
<svg>
  <title>48x48</title>
  <path d="M34.159 8a51 51 0 0 0-6.608 1.825l.41.136.114.04c11.708 4.278 20.527 13.63 19.893 21.297-.522 6.364-6.088 9.59-15.15 8.49 5.039-1.065 7.11-4.04 7.48-8.546.562-6.83-6-14.894-15.366-19.607l-.328-.162c-.085-.04-.294-.136-.603-.27l-.386.17c-.17.077-.26.12-.26.12-9.52 4.692-16.225 12.85-15.653 19.75.373 4.505 2.44 7.48 7.48 8.544C6.118 40.888.558 37.662.032 31.298c-.627-7.59 8.009-16.832 19.54-21.167l.4-.148c.077-.027.241-.084.477-.16l-.483-.165A51 51 0 0 0 13.841 8c3.537 0 6.542.206 9.093.666q.551.102 1.065.212a38 38 0 0 1 1.065-.212c2.55-.46 5.558-.666 9.095-.666M23.997 18.667a8 8 0 0 1 8.003 8c0 4.42-3.58 8-8.003 8a8 8 0 0 1 0-16"/>
</svg>
