---
version: "0.0.4"
---
<svg>
  <path d="M24 46.5c12.426 0 22.5 -10.074 22.5 -22.5s-10.074 -22.5 -22.5 -22.5s-22.5 10.074 -22.5 22.5s10.074 22.5 22.5 22.5zm-5.533 -17.57c.124 .362 2.842 8.346 3.087 8.754c0 0 .5 .25 .082 .584c0 0 -.167 .083 -.584 .083h-.184c-.444 -.007 -.85 -.06 -.484 -.501c0 0 -3.006 -8.435 -3.256 -8.435c-.334 0 -.419 .084 -.501 .501c-.11 .475 -.7 1.797 -1.335 3.19l-.137 .3c-.776 1.699 -1.575 3.42 -1.62 3.776c0 .584 .085 1.002 -.499 1.085c-.584 0 -1.253 .084 -1.253 -.083c-.084 -.417 .585 -.918 .585 -.918l.082 -.083c.33 -.66 1.088 -2.951 1.781 -5.171l.099 -.317c.669 -2.156 1.253 -4.168 1.294 -4.45c0 -.25 .166 -.919 .083 -1.92c0 -1.086 -.249 -2.674 -.917 -4.593c0 0 -.92 -3.508 -1.838 -3.758c0 0 -1.754 .084 -1.837 -.25c-.084 -.083 .083 -.334 .083 -.334c.084 -.083 -.083 -.083 -.083 -.083c-.501 0 -.585 -.25 -.585 -.25c-.083 -.084 0 -.251 .334 -.5c.918 -.836 1.67 -1.17 1.753 -1.17l-.02 -.055l-.014 -.04c-.103 -.32 -.336 -1.375 .786 -2.076c0 0 -.333 1.67 .668 1.92c0 0 1.671 .417 1.088 -2.086c0 0 1.587 .752 .335 2.672l2.505 6.68s.5 2.003 2.422 1.92c.781 -.068 2.517 -.205 4.33 -.35l.31 -.024l.312 -.025c2.442 -.195 4.84 -.39 5.068 -.436c.417 0 3.423 -.334 3.84 .501l.01 -.005c.188 -.087 2.89 -1.38 2.245 -2.75c-.584 -1.168 -2.589 -.667 -3.006 -.417c-.211 .085 -2.027 .746 -4.019 1.369l-.292 .09c-1.858 .573 -3.807 1.085 -4.708 1.046c-1.92 0 -2.92 -.251 -2.67 -.753c.165 -.667 .833 -.25 1 -.165c.168 .166 2.004 .334 3.758 -.252c0 0 1.906 -.596 3.863 -1.213l.273 -.086c1.685 -.53 3.344 -1.055 3.796 -1.206c1.085 -.25 2.672 .167 2.922 1.503c0 0 .753 2.004 -2.588 3.508c0 0 .669 .668 .669 1.669c0 .501 -.169 1.168 -.753 1.92c-1.67 2.17 -1.335 1.755 -1.253 2.672c0 0 .494 1.841 1.028 3.765l.077 .276c.472 1.698 .96 3.396 1.15 3.892c0 0 .752 .417 -.334 .584c-1.252 .25 -.584 -.501 -.584 -.501c-.27 -.575 -.788 -1.973 -1.335 -3.437l-.103 -.275l-.052 -.138l-.155 -.413c-.706 -1.875 -1.395 -3.627 -1.612 -3.67c-.398 -.044 -1.402 2.13 -2.322 4.262l-.12 .278c-.336 .785 -.657 1.551 -.928 2.184l-.093 .218c-.304 .706 -.533 1.21 -.629 1.325a.904 .904 0 0 1 -.584 .25c-.334 0 -.584 -.082 -.586 -.082c-.334 -.168 -.084 -.502 -.084 -.502c0 -.084 .251 -.167 .417 -.167c.335 -.167 2.924 -8.267 2.924 -8.267l.013 -.043l.011 -.04c.103 -.375 .429 -1.89 -1.11 -1.67c-1.838 .25 -5.511 1.504 -7.18 1.586c-1.587 .084 -2.84 -.333 -2.84 -.416l.004 .012zm10.268 -18.468c-.083 .334 -.168 .668 -.168 1.085c0 1.42 1.169 2.505 2.59 2.505c.5 0 .918 -.082 1.336 -.417c-.334 .752 -1.252 1.335 -2.088 1.335a2.602 2.602 0 0 1 -2.589 -2.589c0 -.751 .334 -1.502 .919 -1.92zm-6.348 -1.087c1.42 0 2.505 1.17 2.505 2.59s-1.085 2.504 -2.505 2.504s-2.589 -1.084 -2.589 -2.505c0 -1.42 1.17 -2.589 2.59 -2.589z" />
</svg>
