---
version: "0.0.4"
---
<svg>
  <path d="M32.147 13.092v-11.544c.2 -.053 6.889 -.067 7.209 -.018c.007 .087 .023 .182 .023 .276c.002 1.146 0 2.29 0 3.435v7.837c.288 .023 .555 .01 .82 .012c.27 .002 .537 0 .806 0h2.465c.009 .076 .025 .14 .025 .205c.002 1.574 0 3.151 0 4.726c0 .053 -.01 .106 -.016 .184c-.092 .005 -.182 .016 -.27 .016h-3.823c-.012 1.171 -.002 2.31 -.007 3.479c.108 .006 .198 .016 .286 .016h3.786c.053 .198 .067 4.769 .021 5.12c-.083 .004 -.17 .01 -.26 .01h-3.817c-.007 .13 -.016 .236 -.016 .34c0 3.773 0 7.544 -.002 11.318c0 .104 -.012 .21 -.019 .334h-.271c-2.412 0 -4.821 -.002 -7.233 .005c-.198 0 -.297 -.067 -.394 -.233c-2.2 -3.838 -4.404 -7.672 -6.606 -11.505c-.023 -.04 -.05 -.078 -.069 -.12c-.046 -.104 -.124 -.15 -.237 -.138c-.046 .005 -.092 0 -.138 0h-8.071c-.014 .067 -.03 .115 -.035 .166c-.005 .085 -.002 .168 -.002 .253v11.556h-7.194c-.009 -.1 -.025 -.203 -.025 -.304c-.002 -1.552 -.002 -3.105 -.002 -4.657v-6.615c0 -.122 -.01 -.242 -.016 -.394c-.516 -.012 -1.012 -.005 -1.509 -.005c-.507 -.002 -1.014 0 -1.52 0h-1.486c-.064 -.203 -.067 -4.896 -.002 -5.129h4.482c.07 -.254 .065 -3.28 -.004 -3.495h-4.499c-.01 -.094 -.023 -.166 -.025 -.24a1568.84 1568.84 0 0 1 0 -4.656c0 -.066 .009 -.133 .016 -.235c.509 -.002 1.004 0 1.5 -.002h3.04c.007 -.152 .018 -.279 .018 -.406v-10.304c0 -.207 -.002 -.415 0 -.622c.002 -.247 .01 -.251 .265 -.256h7.555c.046 0 .092 .005 .138 0c.14 -.014 .224 .049 .29 .17c.235 .432 .484 .856 .726 1.285c1.873 3.28 3.736 6.558 5.6 9.833c.204 .36 .122 .302 .51 .302c2.55 .003 5.098 0 7.648 0h.339zm-15.83 8.612h5.386c-.03 -.076 -.046 -.134 -.074 -.184c-.598 -1.047 -1.2 -2.091 -1.794 -3.14c-.064 -.115 -.143 -.159 -.274 -.159c-1.013 .005 -2.027 .002 -3.04 .005c-.065 0 -.132 .014 -.203 .02v3.458zm10.472 -3.469c.046 .1 .071 .161 .104 .219c.58 1.03 1.165 2.056 1.74 3.089c.075 .131 .162 .177 .312 .177c.983 -.007 1.965 -.002 2.948 -.004c.074 0 .148 -.01 .217 -.014c.057 -.286 .043 -3.296 -.014 -3.467h-5.307zm5.282 9.294l.055 -.02v-.637h-.43c.14 .242 .257 .45 .375 .657zm-8.205 18.835h-.891v-3.358c.276 -.012 .555 -.012 .843 .002l.025 .417c.182 -.212 .343 -.394 .592 -.458c.244 -.063 .486 -.065 .728 0c.255 .066 .419 .244 .548 .498l.154 -.176c.346 -.382 .99 -.49 1.435 -.23c.297 .175 .472 .44 .493 .786c.019 .3 .014 .6 .016 .899c0 .477 -.002 .952 -.007 1.429c0 .06 -.004 .12 -.009 .194h-.896v-1.992c0 -.07 .003 -.138 -.004 -.207c-.023 -.295 -.157 -.455 -.401 -.48c-.318 -.034 -.546 .102 -.62 .385a1.56 1.56 0 0 0 -.041 .387c-.005 .547 -.003 1.09 -.003 1.637v.267h-.889v-.246c0 -.554 .003 -1.107 -.002 -1.66c0 -.145 -.01 -.293 -.041 -.433a.43 .43 0 0 0 -.136 -.23c-.178 -.146 -.387 -.128 -.59 -.058c-.189 .064 -.274 .214 -.292 .403a3.74 3.74 0 0 0 -.014 .323c-.003 .546 0 1.09 0 1.636c.002 .079 .002 .162 .002 .265zm-17.902 -.357l-.034 .362c-.274 .018 -.548 .007 -.816 .007c-.053 -.168 -.073 -4.136 -.023 -4.564c.274 -.01 .55 -.007 .855 0v1.565c.069 -.055 .106 -.074 .131 -.104c.454 -.54 1.484 -.452 1.907 .136c.198 .277 .311 .579 .348 .913c.055 .498 .007 .982 -.232 1.431c-.33 .618 -.843 .796 -1.511 .678a.845 .845 0 0 1 -.493 -.276l-.132 -.148zm1.49 -1.28c-.055 -.225 -.087 -.446 -.165 -.652c-.102 -.262 -.33 -.375 -.604 -.38c-.274 -.002 -.506 .101 -.62 .357c-.193 .443 -.202 .895 .021 1.333c.13 .25 .353 .348 .63 .345c.276 -.004 .476 -.136 .575 -.385c.076 -.193 .108 -.408 .164 -.617zm28.4 .231c-.04 .028 -.054 .035 -.066 .044c-.304 .29 -.304 .29 -.304 .712c0 .2 -.002 .4 -.007 .6c0 .013 -.014 .025 -.027 .053h-.823v-4.55h.852c.012 .274 .005 .532 .007 .79c.003 .27 0 .537 0 .807v.818c.063 -.05 .104 -.076 .134 -.11c.283 -.323 .567 -.648 .843 -.976a.336 .336 0 0 1 .295 -.138c.288 .01 .576 .002 .864 .002a.287 .287 0 0 0 .023 .047l-1.14 1.253c.403 .685 .801 1.356 1.213 2.054h-1.07c-.261 -.46 -.524 -.926 -.793 -1.406zm-18.054 1.406v-4.532h.866v2.366c.02 .011 .04 .02 .06 .032c.034 -.049 .062 -.1 .101 -.143c.27 -.314 .546 -.625 .813 -.943c.081 -.094 .162 -.145 .293 -.14c.288 .009 .578 .002 .866 .002c.01 .016 .016 .03 .025 .046c-.377 .417 -.758 .832 -1.14 1.256c.403 .682 .8 1.353 1.22 2.068c-.38 .007 -.718 .004 -1.068 0c-.265 -.473 -.53 -.938 -.808 -1.434c-.113 .118 -.22 .214 -.307 .325a.334 .334 0 0 0 -.048 .191c-.005 .224 -.002 .445 -.002 .669c0 .074 -.007 .15 -.01 .237h-.861zm-6.337 -2.28h-.822c-.016 -.555 .3 -.965 .86 -1.104a2.28 2.28 0 0 1 1.464 .109c.313 .131 .49 .364 .512 .703c.016 .26 .013 .52 .016 .781c.004 .422 .007 .844 .009 1.268c0 .157 .011 .309 .159 .408c.018 .012 .016 .055 .023 .08c-.161 .058 -.67 .07 -.974 .024c-.026 -.095 -.056 -.196 -.09 -.325c-.072 .055 -.134 .106 -.198 .154c-.325 .258 -.691 .35 -1.101 .277c-.484 -.085 -.786 -.431 -.802 -.922c-.02 -.586 .24 -.952 .806 -1.095c.281 -.072 .574 -.097 .862 -.148c.083 -.013 .166 -.032 .244 -.064a.258 .258 0 0 0 .175 -.27c-.005 -.127 -.058 -.226 -.177 -.27c-.224 -.08 -.454 -.096 -.673 -.004c-.083 .034 -.15 .124 -.207 .2c-.046 .058 -.058 .13 -.086 .199zm1.143 .704c-.263 .057 -.502 .103 -.74 .161a.96 .96 0 0 0 -.276 .108c-.152 .09 -.216 .282 -.177 .464c.039 .18 .154 .274 .331 .306c.376 .07 .77 -.177 .834 -.544c.03 -.161 .019 -.332 .028 -.495zm17.987 1.574l-.095 -.33l-.205 .16a1.31 1.31 0 0 1 -.967 .288c-.583 -.056 -1.032 -.438 -.917 -1.224c.058 -.395 .297 -.657 .673 -.773c.232 -.071 .479 -.101 .718 -.147c.143 -.028 .29 -.04 .429 -.076c.191 -.05 .258 -.145 .249 -.307c-.01 -.157 -.09 -.265 -.272 -.293a1.96 1.96 0 0 0 -.48 -.009a.368 .368 0 0 0 -.31 .245l-.072 .184h-.81c-.053 -.431 .211 -.86 .64 -1.037c.28 -.116 .578 -.148 .88 -.134c.302 .014 .592 .076 .866 .21a.76 .76 0 0 1 .424 .571c.02 .12 .03 .245 .03 .367c.004 .576 .007 1.152 .007 1.726c0 .18 -.003 .355 .165 .475c.016 .012 .01 .056 .016 .102c-.327 .002 -.644 .002 -.97 .002zm-.106 -1.574c-.272 .06 -.518 .108 -.763 .168a.834 .834 0 0 0 -.271 .115c-.148 .1 -.187 .254 -.164 .427c.023 .159 .11 .265 .265 .315c.364 .118 .822 -.129 .898 -.5c.035 -.17 .026 -.348 .035 -.525zm10.618 .147h-2.287c-.048 .355 .118 .66 .41 .777c.263 .106 .654 .088 .843 -.214c.044 -.07 .09 -.113 .182 -.111c.251 .005 .504 .002 .77 .002c.015 .162 -.054 .28 -.125 .394c-.295 .468 -.733 .692 -1.271 .706a2.09 2.09 0 0 1 -.678 -.09c-.569 -.187 -.928 -.576 -1.022 -1.185c-.065 -.408 -.063 -.811 .055 -1.208c.191 -.664 .74 -1.085 1.428 -1.092c.198 -.003 .403 .011 .592 .064c.636 .175 .951 .641 1.06 1.261c.032 .214 .027 .438 .043 .696zm-2.282 -.606h1.317c0 -.403 -.249 -.673 -.622 -.687c-.4 -.016 -.66 .237 -.695 .687zm-21.62 -.134h-.9c-.016 -.041 -.037 -.09 -.053 -.138c-.074 -.226 -.224 -.36 -.465 -.383c-.258 -.023 -.47 .051 -.613 .28a.753 .753 0 0 0 -.072 .142a1.97 1.97 0 0 0 -.006 1.224c.12 .364 .47 .519 .836 .394c.152 -.05 .235 -.166 .29 -.306c.03 -.079 .05 -.16 .076 -.245h.87a1.4 1.4 0 0 1 -1.077 1.289c-.314 .07 -.627 .062 -.936 -.012a1.227 1.227 0 0 1 -.884 -.74a2.39 2.39 0 0 1 .014 -1.966c.2 -.452 .569 -.71 1.06 -.793a2.1 2.1 0 0 1 .978 .065c.424 .127 .698 .403 .806 .834c.03 .11 .049 .224 .076 .355zm26.012 1.57v.643c-.315 .007 -.629 .05 -.935 -.03c-.325 -.083 -.465 -.253 -.472 -.592c-.01 -.452 -.005 -.906 -.005 -1.36v-.754c-.156 -.01 -.297 -.018 -.451 -.03v-.6l.444 -.027v-.917h.878v.917c.191 .01 .361 .016 .543 .025v.609h-.513c-.01 .076 -.02 .127 -.02 .177c-.003 .53 0 1.06 0 1.59c0 .04 0 .077 .004 .116c.018 .152 .046 .185 .195 .208c.104 .016 .21 .018 .332 .025zm-34.205 -3.949h.86v4.548h-.86v-4.548zm24.031 4.548h-.887v-3.356h.83v.486c.177 -.168 .31 -.331 .479 -.449c.177 -.124 .394 -.157 .629 -.12v.894c-.093 0 -.182 -.002 -.272 0c-.5 .007 -.756 .245 -.772 .745c-.016 .507 -.007 1.014 -.01 1.521c0 .086 .003 .169 .003 .28z" />
</svg>
