<svg>
  <path d="m22.92 1.683-.182.165-.122-.09c-.364-.267-.753-.249-1.113.052-.164.137-.182.138-.406.024-.32-.163-.695-.1-.971.164-.177.168-.248.184-.359.084-.224-.203-.772-.105-1.036.186-.154.17-.146.168-.523.062-.292-.083-.537.004-.793.28l-.21.226-.236-.079c-.222-.073-.252-.074-.474-.003-.225.07-.286.121-.574.475-.056.07-.106.09-.158.067-.324-.145-1.045.104-1.045.361 0 .14-.176.226-.338.167-.129-.046-.19-.044-.365.016-.316.107-.356.137-.514.383-.08.124-.158.228-.174.23l-.36.012c-.36.01-.531.13-.738.517-.07.133-.094.144-.306.144-.39 0-.857.327-.857.6 0 .149-.084.212-.281.212-.328 0-.716.259-.806.537-.072.224-.109.26-.299.296-.408.077-.698.324-.804.685-.066.224-.076.235-.258.265-.399.066-.753.397-.753.702 0 .166-.004.17-.245.24-.42.123-.656.4-.656.768 0 .204-.06.295-.195.295-.284 0-.662.419-.662.734 0 .205-.066.349-.161.349-.306 0-.693.452-.695.812-.002.242-.017.265-.248.39a.76.76 0 0 0-.427.705c-.002.247-.01.266-.144.339-.426.23-.62.594-.53.993.04.182.036.217-.03.256-.478.285-.635.594-.538 1.067.032.158.025.17-.147.28a.851.851 0 0 0-.372.995c.055.165.053.17-.13.327-.312.266-.408.642-.266 1.036.051.142.047.155-.109.288a.809.809 0 0 0-.214.985l.09.196-.142.161c-.28.32-.334.632-.166.977l.098.203-.133.17c-.311.396-.324.697-.049 1.104.082.121.082.123-.052.293-.209.264-.261.498-.172.761.066.192.066.224.006.29-.156.172-.061 1.08.183 1.756.107.298.114.351.064.501-.087.267-.007.942.151 1.259.098.196.095.29-.02.712-.069.25-.097.485-.098.823l-.002.474.305.626c.238.49.298.652.273.744-.151.573-.05.941.399 1.437.351.39.39.479.39.889 0 .359.111.615.415.957.387.437.505.626.621.984.408 1.264 1.396 2.595 2.594 3.495.535.402.759.682 1.11 1.388.46.925.679 1.142 1.598 1.587 1.556.754 1.645.81 2.364 1.513.939.918 1.556 1.222 2.697 1.332 1.673.16 2.047.28 3.028.971.558.393 1.3.786 1.739.92.289.087.318.108.388.274.11.26.177.263.496.026.348-.26.342-.26.598.04.263.308.299.308.484.001.182-.3.219-.304.458-.046.231.248.257.25.385.022.124-.221.126-.221.445-.003.184.125.344.192.552.23.161.03.33.073.376.097.108.056.21-.029.21-.175 0-.154.102-.108.153.07.087.303.632.16 1.206-.316.236-.195.291-.21.33-.087.057.18.168.15.435-.113.302-.3.337-.297.53.045.192.342.282.337.39-.018.067-.222.202-.38.202-.236 0 .133.418.503.51.452.055-.03.22-.049.37-.042.551.024 1.396-.267 2.14-.738.087-.055.434-.362.771-.681.928-.88 1.46-1.11 2.723-1.17.991-.047 1.198-.104 1.736-.475.366-.252.494-.378.89-.876.716-.901.98-1.1 1.824-1.376.73-.239 1.249-.709 1.77-1.606.143-.245.337-.567.431-.716a9.63 9.63 0 0 0 .298-.51c.243-.457.675-.814 1.449-1.197.946-.467 1.418-.963 1.66-1.743.34-1.106.45-1.332.84-1.74.438-.458.454-.499.462-1.173.006-.493.053-.62.385-1.034.203-.253.231-.349.246-.834.011-.385.03-.464.176-.775.198-.42.207-.608.05-1.146-.163-.565-.151-.736.086-1.217.343-.696.516-1.513.343-1.62-.067-.042-.055-.187.04-.47.16-.477.185-.574.185-.694 0-.066.025-.211.055-.323.045-.17.042-.24-.022-.438-.067-.21-.068-.25-.009-.369.128-.257.07-.539-.185-.904-.051-.074-.045-.112.05-.275.202-.344.114-.914-.164-1.062-.108-.058-.108-.155 0-.307.184-.258.145-.675-.085-.926-.208-.225-.213-.258-.087-.542.117-.265.042-.553-.207-.795-.179-.173-.186-.213-.081-.487.123-.323-.037-.757-.349-.94-.147-.088-.165-.19-.083-.485.063-.226-.07-.536-.303-.702-.269-.192-.292-.223-.243-.316.059-.11.059-.573 0-.609-.024-.015-.045-.065-.045-.11 0-.047-.1-.16-.23-.257-.226-.172-.228-.176-.202-.372.054-.4-.168-.796-.524-.939-.173-.069-.174-.071-.146-.263.054-.36-.152-.71-.531-.905-.185-.095-.222-.149-.192-.279.07-.294-.25-.775-.562-.843-.14-.031-.254-.17-.205-.249.116-.188-.313-.77-.616-.835-.205-.044-.263-.1-.263-.254 0-.375-.391-.805-.732-.805-.102 0-.17-.1-.17-.252 0-.32-.412-.733-.735-.738-.202-.003-.291-.076-.323-.265-.055-.327-.41-.64-.724-.64-.166 0-.221-.053-.36-.355-.144-.309-.36-.45-.766-.497-.208-.025-.229-.038-.275-.182-.096-.297-.434-.544-.744-.544-.225 0-.388-.078-.419-.201-.076-.302-.425-.52-.835-.52-.234 0-.278-.014-.325-.102-.217-.408-.604-.616-.967-.52-.175.048-.212.046-.244-.01-.29-.516-.708-.737-1.103-.587-.097.037-.13.028-.194-.055-.344-.438-.985-.632-1.16-.35-.042.069-.15 0-.248-.159-.183-.295-.82-.481-1.008-.294-.09.09-.237.046-.392-.115-.298-.31-.657-.38-.99-.193l-.171.096-.174-.145c-.335-.282-.633-.33-.993-.162l-.235.109-.17-.138c-.41-.33-.657-.338-1.122-.04-.084.054-.116.043-.308-.103-.3-.23-.746-.242-.99-.029-.191.169-.227.169-.419 0-.246-.216-.708-.201-.964.03m.83.328c.424.423-.205 1.048-.643.64-.233-.218-.187-.553.1-.731.183-.114.37-.083.544.09m1.275-.043c.294.179.303.448.023.678-.21.174-.325.171-.52-.013-.414-.39.014-.96.497-.665m1.321.024c.444.23.306.876-.187.88-.47.002-.652-.613-.253-.857.177-.107.267-.112.44-.023m-3.94.131c.207.206.212.414.015.61-.292.293-.752.137-.79-.268-.044-.443.455-.662.776-.342m-1.385.113c.255.238.191.583-.139.753-.376.195-.799-.228-.604-.605.16-.308.5-.375.743-.148m6.82.046c.234.235.19.498-.112.683-.483.294-.932-.326-.528-.73.197-.197.412-.18.64.047m-8.328.094c.258 0 .392.516.195.742a.465.465 0 0 1-.819-.319c0-.242.293-.497.507-.44a.546.546 0 0 0 .117.017m9.662.159c.405.43-.195.995-.641.603-.263-.23-.203-.562.134-.738.18-.094.329-.054.507.135m-10.812.296c.359.359-.044.94-.515.743-.328-.137-.392-.476-.14-.729.21-.21.454-.215.655-.014m12.112.014c.253.253.188.592-.139.729-.395.165-.808-.29-.58-.638.182-.277.494-.317.72-.09m-6.167.172c.284.195.61.204.917.024l.208-.123.197.157c.251.2.65.223.94.056l.175-.1.104.095c.33.304.703.37 1.034.185l.18-.102.103.127c.21.26.62.363.965.243l.194-.068.246.215c.28.246.52.307.86.221.202-.05.203-.05.385.134.112.113.27.213.407.259.207.069.303.068.562-.006.08-.023.122.008.222.16.173.26.39.362.777.362.31 0 .312 0 .424.17.194.294.449.436.786.437l.289.001.1.179a.832.832 0 0 0 .76.448l.27-.004.09.194c.175.37.451.559.823.559.19 0 .203.009.253.159.105.318.399.563.676.563.196 0 .3.066.335.213a.85.85 0 0 0 .744.641l.2.025.083.28c.09.303.384.6.595.6.168 0 .297.125.297.288 0 .275.333.63.643.688.192.035.259.127.259.356 0 .234.26.557.54.669.171.069.18.082.181.264 0 .266.162.514.48.737.254.177.261.189.248.369-.02.277.174.582.483.759.159.091.164.103.187.406.028.374.06.438.353.685l.226.19-.025.238a.817.817 0 0 0 .355.778c.174.114.181.129.15.285-.086.43.037.773.344.96.15.091.172.124.149.22-.117.47-.029.823.258 1.035l.133.099-.093.157c-.172.292-.102.643.188.949l.136.143-.079.206c-.14.368-.078.62.27 1.091.03.042.011.093-.065.174-.176.188-.16.61.034.898l.148.219-.114.23c-.232.464-.068.932.404 1.153.25.118.263.067-.124.538-1.372 1.672-2.646 2.917-3.483 3.403-.468.27-.7.394-.745.394-.024 0-.2.073-.393.162-.859.399-1.859.76-2.649.958-.336.084-.506.12-1.115.231a98.42 98.42 0 0 1-2.198.323c-1.22.162-2.354.464-2.971.792-.321.17-.496.292-.86.6l-.56.473c-.176.149-.493.43-.703.625-.44.41-.816.688-1.198.889-.36.189-1.483.414-1.78.356a3.45 3.45 0 0 0-.505-.04c-.357-.002-.363-.016-.17-.367a.9.9 0 0 0 .135-.529c.001-.36.043-.435.307-.554.117-.052.284-.127.37-.167.782-.356 1.262-1.234 1.06-1.935-.127-.437-.243-.485-.473-.193-.175.22-.193.221-.266.02a.395.395 0 0 0-.212-.234c-.126-.06-.154-.099-.154-.213a.384.384 0 0 0-.283-.382c-.122-.04-.158-.085-.209-.256a.493.493 0 0 0-.488-.379c-.128 0-.156-.022-.215-.169-.065-.16-.303-.372-.42-.372-.171 0-.034-.164.182-.215.288-.068.741-.28.892-.415.263-.237.273-.239.676-.134.436.113.608.094.888-.099.252-.173.247-.259-.02-.4-.412-.217-.672-.803-.733-1.651-.045-.625-.3-1.055-.627-1.055-.027 0-.048-.02-.048-.045 0-.03 2.117-.045 6.263-.045 5.634 0 6.27-.007 6.334-.07.09-.09.09-.174.002-.247-.088-.072-30.303-.104-30.396-.032-.085.067-.067.25.03.302.058.03 2.265.046 6.636.046 4.334 0 6.565.016 6.595.046.03.03.029.045-.005.045-.064 0-.422.343-.526.503-.047.073-.094.285-.12.541-.071.687-.19.972-.567 1.364-.211.22-.238.268-.196.347.096.178.633.287.95.192.26-.077.226-.086.472.118.263.217.739.455 1.18.588.375.114.413.19.136.278a.411.411 0 0 0-.282.23c-.05.093-.12.169-.155.169-.18 0-.443.186-.511.362-.06.154-.09.18-.207.18-.152 0-.277.134-.277.297 0 .1-.078.153-.223.153-.134 0-.325.185-.425.413-.126.284-.233.24-.228-.096.007-.452-.49-.181-.7.382-.292.79-.077 1.298.798 1.878.688.457.665.428.665.854 0 .32.013.367.143.552l.142.203-.128.131c-.232.238-.548.29-.882.146-.119-.05-.42-.16-.67-.244-1.166-.39-1.946-.857-3.023-1.808-1.02-.902-1.93-1.372-3.448-1.784a53.05 53.05 0 0 0-2.097-.467 27.512 27.512 0 0 1-1.082-.25c-.272-.07-.741-.18-1.042-.246a9.343 9.343 0 0 1-1.753-.545c-1.23-.539-2.322-1.147-2.908-1.619-.16-.13-.445-.355-.63-.5-.776-.605-1.97-1.994-1.802-2.098.034-.02.077-.028.096-.016.06.037.411-.076.53-.17.366-.288.46-.893.178-1.147-.116-.105-.107-.176.046-.37.25-.321.281-.62.097-.964l-.088-.164.11-.128c.243-.282.328-.809.159-.978-.085-.085-.051-.236.08-.362.224-.214.274-.504.163-.946-.028-.108-.006-.155.146-.315.284-.3.348-.547.229-.878-.055-.15-.052-.157.114-.29a.88.88 0 0 0 .306-.968c-.039-.135-.03-.148.155-.265.349-.221.514-.684.364-1.02-.026-.057.004-.093.127-.151.326-.155.557-.556.496-.861-.028-.144.03-.221.297-.391.203-.13.36-.44.36-.71 0-.183.016-.217.124-.272.367-.184.552-.433.552-.74 0-.176.127-.34.263-.34.23 0 .556-.41.592-.743.024-.222.027-.225.25-.305.281-.101.553-.391.592-.631.032-.195.065-.226.31-.296.288-.083.5-.29.613-.597.091-.252.11-.272.283-.316.365-.093.575-.26.705-.565.093-.216.162-.266.434-.31.25-.042.527-.283.627-.545.072-.188.089-.202.24-.202.39 0 .69-.197.835-.546.067-.161.072-.163.38-.186.376-.027.61-.17.752-.459.093-.191.104-.195.405-.14.198.036.508-.143.71-.409l.168-.222h.353c.41 0 .597-.094.78-.392.119-.191.149-.2.34-.105.196.097.556-.026.819-.28.215-.21.228-.214.46-.147a.85.85 0 0 0 .94-.393c.037-.067.06-.064.248.024.337.158.63.103.951-.18.225-.2.234-.2.385-.083.234.183.603.104 1.087-.234.058-.04.103-.03.21.046.106.076.202.098.423.098.278 0 .346-.025.628-.231.056-.041.134-.022.378.095.35.167.506.149.83-.096.202-.152.156-.154.403.017m-7.268.233c.319.319.11.794-.35.794-.2 0-.444-.254-.444-.463a.46.46 0 0 1 .794-.331m14.771.026c.257.285.049.768-.331.768-.346 0-.615-.442-.423-.696.215-.284.535-.315.754-.072m-16.15.385a.455.455 0 0 1-.04.831c-.368.153-.767-.255-.585-.597.148-.276.378-.362.626-.234m17.404.064c.333.333.025.903-.427.79-.145-.037-.388-.307-.388-.43 0-.41.53-.644.815-.36m1.225.588c.414.46-.226 1.047-.664.609-.176-.176-.2-.31-.091-.519a.452.452 0 0 1 .755-.09m-19.792-.045c.172.135.238.331.169.499-.2.483-.901.383-.901-.129 0-.379.439-.6.732-.37m-1.278.608a.62.62 0 0 1 .201.179c.272.415-.329.901-.708.572-.42-.365.013-1.007.507-.751m22.22.036c.308.33.129.8-.305.8-.438 0-.618-.467-.307-.798.136-.145.476-.146.612-.002m-13.086.306c-.124.02-.347.038-.496.04a4.795 4.795 0 0 0-.63.071c-.2.037-.512.09-.695.119-.38.06-.502.145-.467.328.034.18.162.228.436.165.494-.113 1.335-.213 1.375-.164.31.386-.09.848-.457.528-.263-.229-.316-.241-.501-.115-.27.183-.24.246.455.927 1.032 1.013 1.248 1.13 1.458.788l.087-.14-.216-.203a22.11 22.11 0 0 0-.432-.395c-.25-.222-.255-.305-.03-.428.342-.188.45-.535.27-.87-.1-.188.02-.247.503-.247.495 0 .453-.1.495 1.21.036 1.154.047 1.208.243 1.227.433.043.435.036.427-1.214-.003-.586-.005-1.1-.003-1.144.003-.066.05-.079.297-.079h.293l.001.485c.002.966.583 1.459 1.365 1.158a.11.11 0 0 1 .116.034c.6.734.584.677.245.917-.634.446-.66.535-.172.584l.316.03.262-.203c.307-.24.313-.239.56.101.256.35.32.403.532.434.352.052.352-.04-.002-.534-.176-.245-.195-.335-.079-.373.6-.196.852-.436.65-.619-.115-.105-.2-.094-.533.065-.485.231-1.07-.03-1.161-.519-.087-.463.366-.568 1.264-.293.214.065.468-.203.468-.494 0-.14.13-.18.371-.115.414.11.53.061.53-.22 0-.444-2.966-.897-5.771-.883-.632.004-1.25.022-1.374.041m14.302.482c.23.256.141.58-.19.689-.577.19-.906-.563-.364-.833.194-.096.381-.048.554.144m-24.473-.037c.345.322.033.912-.422.798-.257-.065-.445-.41-.338-.622.16-.32.518-.403.76-.176m14.702.182c.86.11 1.014.162 1.014.341 0 .153.034.148-.637.088-.296-.026-.394-.018-.514.041-.27.135-.377.102-.675-.208-.148-.155-.27-.308-.27-.34 0-.063-.033-.065 1.082.078m-9.22.385c-2.437.806-4.941 2.345-6.934 4.263l-.492.474-.367.03a9.988 9.988 0 0 0-.66.08c-.16.027-.394.062-.518.077-.284.035-.428.157-.428.363 0 .248.122.27.717.131.786-.184.792-.181.428.243-.422.492-1.19 1.536-1.19 1.616.002.212.273.329.411.177.093-.102.725-.956.92-1.244.164-.241.518-.594.597-.594.194 0 .261.23.105.36-.087.074-.87 1.144-.933 1.277-.205.43.37.568 1.019.245.277-.137.296-.295.066-.563-.181-.212-.183-.2.105-.54.259-.307.23-.315.84.236.58.524.631.543.832.314.215-.244.204-.263-.671-1.118-.928-.908-.892-.833-.551-1.17.325-.322.312-.323.697.056.64.629.973.647 1.55.083l.231-.226.259.32c.29.358.291.36.49.22.32-.225.353-.135-.452-1.261a19.378 19.378 0 0 1-.627-.909c-.029-.074.723-.591.795-.547.022.014.097.121.165.238.226.385 1.078 1.654 1.151 1.714.062.05.102.043.257-.045.274-.155.275-.244.007-.691a6.371 6.371 0 0 1-.23-.402c0-.01-.083-.154-.185-.32a33.6 33.6 0 0 1-.264-.445 20.398 20.398 0 0 0-.178-.305l-.098-.164.374-.218c.558-.325.714-.407 1.149-.599.218-.096.508-.226.645-.29.538-.247.706-.3.78-.242.301.23-.167.707-.694.707-1.007.001-1.62 1.124-.881 1.616.386.257.616.324 1.115.324.451 0 .49-.029.49-.356 0-.203.016-.197-.578-.253-.694-.067-1.01-.524-.545-.786.256-.144.466-.116.482.064.032.344.032.344.339.33l.28-.014.024-.248c.028-.28.148-.541.249-.541.075 0 .117.084.391.786.222.567.265.61.532.522.29-.096.293-.076-.315-1.803-.226-.642-.226-.649-.001-.723.227-.075.282-.14.244-.29-.024-.097-.15-.219-.208-.202l-.735.243m8.11.22c.264.308.269.39.024.39-.306 0-.358-.053-.358-.362 0-.344.06-.35.335-.028m6.439-.152c-.194.119-.188.144.101.448.417.436.325.472-.36.14-.483-.235-.65-.272-.742-.161-.124.15-.026.281.313.422.328.135 1.26.605 1.302.656.036.043.032.082-.013.144-.06.082-.077.078-.439-.101-.483-.24-.69-.274-.948-.159-.705.317-.557 1.177.262 1.525.327.139.356.213.192.49-.108.184-.064.279.19.41.16.083.19.045.763-.912.254-.425.508-.831.564-.901l.101-.127.174.082c.288.136 1.734 1.121 1.805 1.23.198.302-.049.405-.34.144-.552-.496-1.074-.512-1.391-.04-.213.316.01.882.472 1.19.227.15.236.216.056.421-.171.195-.17.26.01.424.21.191.266.172.607-.211.627-.703.575-.664.834-.633.696.082.6.64-.12.694-.367.028-.474.085-.474.254 0 .503 1.205.41 1.486-.116l.11-.208-.08-.257a1.485 1.485 0 0 0-.575-.731c-.166-.098-.188-.167-.09-.286.118-.147.205-.096.777.46.614.597.671.639.82.601.394-.099-.04-.583-1.758-1.963-.797-.64-.969-.762-1.621-1.146-.336-.198-.37-.23-.39-.38a3.2 3.2 0 0 0-.072-.342c-.083-.302-.185-.806-.185-.912 0-.117-.12-.193-.307-.193-.244 0-.253.077-.078.613.266.81.168.844-.22.075-.375-.74-.459-.813-.736-.644m5.492.133c.29.29.09.782-.319.782-.242 0-.496-.235-.496-.46 0-.384.54-.598.815-.322m-26.642.04c.263.234.177.61-.172.758-.36.153-.757-.265-.58-.609.157-.303.503-.372.752-.15m22.96.755c-.2.304.18.641.435.386.157-.157.164-.223.04-.382-.13-.163-.37-.166-.476-.004m4.6-.052c.473.198.348.885-.162.885-.495 0-.653-.601-.224-.85.197-.114.195-.114.385-.035m-28.664.102c.274.18.3.49.06.719-.296.284-.783.069-.783-.347 0-.353.422-.57.723-.372m29.767.897c.173.146.215.33.12.53a.46.46 0 0 1-.88-.199c0-.387.456-.587.76-.331m-30.719.07c.245.216.19.584-.11.74-.466.241-.896-.353-.524-.726.206-.205.41-.21.634-.013m23.419.024c.117.15.12.242.004.242-.106 0-.247-.197-.21-.293.038-.1.1-.084.206.05m-.584.277c.198.315.18.465-.043.35a.502.502 0 0 1-.272-.428c0-.219.153-.181.315.078m-23.762.622c.26.22.213.61-.092.768-.338.174-.805-.19-.676-.528.131-.344.505-.461.768-.24m32.511-.069c.255.137.275.54.038.74-.438.37-1.002-.235-.605-.649a.495.495 0 0 1 .567-.09m-27.8.883c.347.454.355.5.125.747-.226.242-.313.22-.702-.177-.409-.417-.411-.433-.09-.721.338-.303.316-.308.667.151m21.96-.189c.173.073.345.314.303.426-.117.317-.34.438-.585.317-.512-.254-.242-.962.282-.743m6.778.387c.174.174.206.28.142.473-.189.571-1.01.355-.908-.24.059-.344.516-.483.766-.233m-34.308.038c.187.174.222.34.116.539-.17.316-.54.35-.783.072-.377-.43.248-1.002.667-.611m15.287-.065a4.33 4.33 0 0 0-.338.15c-.15.077-.219.085-.448.053a2.261 2.261 0 0 0-1.611.373c-.068.048-.147.073-.175.056-.455-.281-1.734-.002-2.203.481-.135.14-.195.167-.407.186a2.152 2.152 0 0 0-1.338.653c-.256.264-.359.34-.491.361-.44.072-1.051.494-1.199.827a.261.261 0 0 1-.194.16c-.428.093-.953.534-1.175.988-.127.26-.157.283-.505.386-.413.123-.963.852-.974 1.291l-.007.255-.24.125c-.25.129-.794.667-.937.926a.325.325 0 0 0 .146.462c.15.068 11.734.068 11.952 0 .17-.054.17-.049.075-.325-.414-1.215 1.111-2.351 2.255-1.68.621.364.803.848.694 1.853l-.014.135 6.077.011c6.56.013 6.253.025 6.253-.24 0-.325-.364-.613-.834-.66-.146-.014-.148-.022-.09-.374.093-.555-.368-1.212-1.041-1.483-.25-.1-.278-.128-.438-.417-.29-.523-.808-.976-1.273-1.11-.17-.049-.246-.1-.314-.213-.357-.589-1.04-.986-1.704-.992-.137-.001-.208-.038-.36-.185-.372-.358-1.138-.625-1.632-.567-.238.028-.249.025-.313-.1-.203-.392-.71-.64-1.386-.679-.411-.023-.497-.041-.586-.126-.38-.357-1.317-.518-1.736-.297-.14.073-.148.072-.316-.04-.415-.276-1.021-.333-1.427-.133l-.217.107-.256-.13c-.302-.153-.98-.2-1.273-.088m.385.47c.013.091.043.277.067.413.023.137.086.614.139 1.06.053.447.12.863.15.925.061.133.24.176.282.067.033-.084-.09-1.451-.188-2.102a9.56 9.56 0 0 1-.066-.485c0-.139.392.042.484.223.066.128.082 4.352.018 4.454-.021.033-.093.053-.163.045-.123-.015-.128-.028-.384-1.03a116.1 116.1 0 0 0-.57-2.164c-.368-1.35-.372-1.41-.095-1.534.231-.103.296-.078.326.129m1.864-.09c.067.043.032.382-.135 1.314a42.59 42.59 0 0 0-.128.75 3.02 3.02 0 0 1-.066.33c-.072.225.188.407.31.217.064-.099.088-.234.296-1.613.16-1.062.159-1.059.412-.889.25.168.236.357-.114 1.566-.04.136-.123.446-.185.689a8.194 8.194 0 0 1-.177.608 9.394 9.394 0 0 0-.186.62c-.318 1.182-.316 1.176-.49 1.132l-.118-.03.013-2.253.012-2.253.112-.08c.203-.146.334-.178.444-.108m-3.115.155c.256.076.273.099.403.534.211.704.307 1.064.692 2.61.096.384.227.877.29 1.094.14.48.115.574-.15.574-.03 0-.321-.426-.321-.47 0-.006-.293-.497-.651-1.09-1.086-1.797-1.403-2.33-1.539-2.583l-.13-.242.13-.104c.389-.31.397-.304.79.55.767 1.659.859 1.826.989 1.81.168-.019.17-.149.008-.504a3.846 3.846 0 0 1-.138-.322 5 5 0 0 0-.163-.37c-.386-.826-.603-1.336-.603-1.412 0-.136.115-.158.393-.075m4.966.015c.193.038.184.115-.085.68-.124.26-.225.479-.225.486 0 .008-.109.244-.24.526-.442.937-.47 1.076-.218 1.076.141 0 .172-.045.36-.519.049-.124.163-.388.253-.586a74.4 74.4 0 0 0 .204-.451c.434-.984.502-1.076.71-.965.283.152.265.414-.056.807-.03.037-.11.169-.178.293a29.065 29.065 0 0 1-.682 1.195c-.056.087-.222.371-.368.632-1.042 1.86-.96 1.743-1.145 1.634-.153-.09-.158-.041.105-.98.098-.348.215-.774.262-.948.098-.37.282-1.038.413-1.51.025-.087.062-.24.083-.339.18-.835.397-1.113.807-1.031m-6.905.355c.053.038.203.256.333.485.13.23.294.502.364.605.07.104.127.2.127.212 0 .013.059.111.13.218.072.106.171.265.22.352.05.086.448.756.886 1.488.81 1.353.887 1.533.652 1.533-.044 0-2.79-2.687-4.11-4.02-.385-.39-.4-.459-.123-.602.312-.161.39-.118.858.475.235.299.57.72.744.938.174.217.394.5.489.63.201.274.435.308.435.064 0-.107-.68-1.027-1.323-1.792-.408-.486-.425-.517-.323-.592.114-.083.518-.08.64.006m22.463.09c.48.248.369.874-.156.878-.505.004-.635-.585-.19-.857.174-.106.182-.107.346-.022m-35.87.076c.385.203.385.64 0 .843-.327.173-.757-.184-.664-.553.064-.257.428-.415.665-.29m22.285.06c.033.088-.74 1.253-.975 1.466a16.9 16.9 0 0 0-.765 1.031c-.07.134.027.258.166.213.116-.037.762-.85 1.765-2.225.265-.362.335-.389.515-.2.241.251.366.093-1.886 2.399l-1.373 1.41c-.283.29-.528.53-.546.53-.102 0-.067-.174.083-.413.203-.323.263-.424.472-.806.089-.16.234-.421.324-.579.09-.157.162-.295.162-.305 0-.016.256-.46.453-.784.038-.064.207-.357.69-1.198.204-.356.345-.525.48-.574.146-.054.409-.032.435.035m-10.938.594c.127.085.597.531 1.985 1.886.535.521 1.332 1.29 1.772 1.71.773.736.905.912.681.903-.076-.003-.396-.2-1.531-.944a17.3 17.3 0 0 0-.541-.334 55.688 55.688 0 0 1-1.448-.94 722.13 722.13 0 0 0-1.555-1.034c-.902-.596-.923-.624-.647-.866.213-.188.204-.19.72.224.247.2.52.418.605.484.086.067.228.184.316.26.355.309 1.096.879 1.286.99.356.21.416-.006.08-.29a80.226 80.226 0 0 0-1.688-1.39c-.364-.292-.664-.557-.665-.589-.005-.14.45-.192.63-.07m12.783.152.123.046-.108.116c-.06.063-.254.225-.432.36-.179.134-.351.27-.384.3-.068.066-.938.789-1.434 1.191-.437.356-.559.49-.525.577.06.155.261.075.656-.26.213-.183.804-.663 1.312-1.07a65.072 65.072 0 0 0 1.122-.909c.238-.207.257-.209.494-.036.251.181.239.26-.072.459a95.7 95.7 0 0 0-1.995 1.334c-.543.411-3.311 2.222-3.365 2.201-.183-.07.134-.428 2.39-2.705 1.755-1.77 1.764-1.777 2.218-1.604m12.51.256c.292.172.331.545.08.756-.294.248-.756.048-.758-.329-.003-.373.371-.609.679-.427M5.7 12.455c.208.214.21.419.01.62-.349.349-.97-.059-.747-.49.169-.326.492-.383.737-.13m10.288.395c.092.056.6.383 1.127.728.528.344 1.14.737 1.36.872.334.205 1.65 1.062 1.75 1.14.23.177-.368.227-.796.066a24.72 24.72 0 0 1-.948-.405 79.075 79.075 0 0 1-1.55-.706 10.8 10.8 0 0 0-.483-.218c-.019 0-.336-.142-1.134-.506-.658-.3-.694-.343-.492-.595l.104-.13.267.15c.147.082.49.266.763.408.824.43 1.418.75 1.477.798.06.049.253.16.699.403.581.317.64.053.067-.3-.542-.332-1.835-1.077-1.985-1.142-.067-.03-.25-.13-.405-.224-.155-.094-.3-.17-.322-.17-.037 0-.111-.139-.084-.156.01-.007.326-.093.396-.108a.832.832 0 0 1 .19.095m16.57.045c.077.062.057.078-.396.315-.864.453-1.29.685-1.404.763a.643.643 0 0 1-.143.083c-.013 0-.192.098-.399.217-.206.12-.517.294-.69.388-.702.381-.797.464-.674.587.081.081.113.07.628-.213l.654-.36c.136-.074.339-.187.45-.25.112-.063.64-.336 1.173-.606.533-.27 1.035-.533 1.117-.583.181-.112.227-.096.387.135.185.267.142.308-.633.615-.368.146-.796.323-.951.393-.156.07-.293.128-.306.128-.012 0-.196.081-.409.18-.212.1-.41.18-.44.18a.17.17 0 0 0-.097.039c-.024.02-.165.085-.314.143-.327.127-.763.32-1.123.499a1.527 1.527 0 0 1-.338.134c-.138.003-.411.123-.601.264-.666.491-1.99 1.182-2.116 1.104-.02-.012-.036-.087-.035-.167.001-.138.055-.18 1.34-1.034l2.084-1.386c.836-.557 1.486-.986 2.12-1.396l.427-.277.316.03c.174.015.342.05.374.075m6.497.138c-.11.083-.381.282-.605.444-1.55 1.123-1.538 1.11-1.236 1.364.174.147.095.19 1.345-.717 1.063-.77 1.086-.796.97-1.024-.135-.263-.2-.272-.474-.067m4.63.5c.219.22.217.457-.007.654-.458.402-1.065-.222-.633-.652.204-.203.438-.204.64-.002M4.97 13.54c.334.234.271.667-.12.83-.151.062-.46-.062-.545-.22-.217-.406.292-.871.665-.61m9.865.451a33.787 33.787 0 0 0 .75.331c.118.052.226.095.24.095.015 0 .213.084.44.186.228.103.475.213.549.245.074.032.293.13.485.22.192.088.359.16.37.16.012 0 .19.084.395.186.205.102.575.271.821.376.427.18.58.294.401.297-.045 0-.204.06-.353.134-.361.178-.422.172-.947-.09a3.262 3.262 0 0 0-.903-.315 31.314 31.314 0 0 1-2.05-.513c-.111-.036-.375-.11-.586-.164-.387-.1-.884-.25-1.072-.321-.113-.044-.104-.191.025-.39.103-.16.228-.161.641-.009.211.078.526.192.7.253.173.062.355.13.405.15.05.021.181.069.293.106.112.037.375.132.586.21 1.054.395 1.094.407 1.156.356.126-.105.048-.17-.423-.356a20.862 20.862 0 0 1-.676-.275 1.053 1.053 0 0 0-.25-.085.173.173 0 0 1-.102-.04.882.882 0 0 0-.223-.096 6.417 6.417 0 0 1-.677-.275 20.83 20.83 0 0 0-.471-.193c-.422-.17-.474-.222-.286-.29.223-.082.399-.057.762.107m19.365.074c.346.195.063.346-1.427.764-.72.203-2.658.885-2.7.951-.177.284.987.032 2.34-.505a8.5 8.5 0 0 1 .428-.137c.309-.092.696-.224.924-.315.72-.287.993-.309 1.139-.092.223.332.178.367-.733.578a200.11 200.11 0 0 1-2.164.497c-.223.049-.528.114-.677.145-.148.032-.417.095-.596.141-.18.046-.427.084-.55.084-.212 0-.28-.018-.619-.164a.758.758 0 0 0-.234-.062c-.11 0-.17-.08-.106-.143.046-.047.676-.33 1.34-.601a110.7 110.7 0 0 0 1.825-.758 18.7 18.7 0 0 1 .608-.235 7.78 7.78 0 0 0 .519-.206c.133-.076.5-.045.683.058m10.044.665c.306.286.093.814-.327.814-.208 0-.5-.323-.464-.513.07-.37.53-.545.791-.3m-39.822.036c.21.17.25.397.11.626-.192.315-.635.277-.812-.07-.205-.401.35-.84.702-.556m8.848.416c.34.092 2.742.69 2.947.734.236.05.283.145.09.182a4.264 4.264 0 0 0-.304.077c-.34.099-.415.101-.545.015a5.325 5.325 0 0 0-.577-.27l-.45-.186-.184.077a.538.538 0 0 1-.363.04c-.28-.06-.546-.114-1.064-.22-.572-.116-.624-.14-.534-.25.17-.204.625-.297.984-.2m22.37.289c.18.064.492.287.492.35 0 .056-.042.065-.545.129l-.431.055-.277-.14c-.333-.168-.457-.175-.626-.034-.294.246-.45.288-.737.199-.232-.073-.228-.146.012-.207 1.61-.409 1.844-.448 2.112-.352m-23.098.464c.143.035.126.13-.033.19l-.267.1c-.21.078-.34.039-.356-.108-.03-.254.156-.305.656-.182m32.193.053c.33.309.116.82-.342.82-.275 0-.542-.436-.4-.653.216-.33.5-.393.742-.167M3.85 15.971c.07.036.162.138.204.227.228.48-.356.865-.746.492-.362-.348.093-.951.542-.72m36.367.065c-.477.528-.295 1.367.366 1.688.188.092.26.212.127.212-.071 0-.329.135-.531.279-.448.317-.56 1.203-.209 1.63.57.69 1.843.276 1.843-.6 0-.733-.934-1.08-1.303-.482-.306.495.159 1.078.578.725.217-.183.137-.44-.092-.297-.246.154-.33-.092-.102-.297.402-.361.832.353.445.74-.499.5-1.196.22-1.193-.48.005-.95 1.286-1.308 1.859-.518.265.364.625 1.634.515 1.813-.015.023-.04.223-.056.444-.098 1.319-.674 2.538-1.35 2.856-.762.359-1.806-.557-1.491-1.309.287-.688 1.02-.764 1.367-.141.234.418-.32.992-.644.668-.125-.125-.107-.238.043-.276.273-.069.216-.426-.069-.426-.719 0-.505 1.162.217 1.182 1.087.031 1.175-1.615.101-1.904-1.404-.378-2.006 1.72-.693 2.414 1.42.75 2.654-.452 2.86-2.786a4.43 4.43 0 0 1 .07-.536c.166-.525-.34-2.172-.834-2.72-.58-.64-.571-1.558.015-1.558.317 0 .586.457.345.585-.124.067-.216 0-.236-.17-.025-.214-.352-.173-.352.044 0 .429.597.635.876.303.39-.464-.238-1.27-.84-1.076-.24.077-.478.305-.516.492-.03.153-.094.161-.17.023-.31-.557-.713-.78-.946-.522m-3.875.117c.303.212.103.69-.202.484-.118-.078-.212-.124-.477-.231-.176-.072-.093-.154.244-.243.33-.086.327-.086.435-.01m-29.35.118a2.068 2.068 0 0 0-.3.36c-.218.321-.196.318-.334.046-.293-.58-1.052-.58-1.341 0-.281.564.325 1.087.757.654.182-.181.19-.25.046-.417-.123-.144-.253-.093-.253.098 0 .12-.12.181-.209.107-.233-.193.148-.662.423-.52.536.277.467.62-.276 1.38-1.058 1.082-1.267 2.02-.884 3.974.399 2.03 1.933 3.056 3.002 2.006 1.058-1.04.01-2.837-1.244-2.136-.815.455-.501 1.818.387 1.684.652-.098.724-1.151.078-1.151-.266 0-.337.264-.106.396.19.108.208.194.07.314-.362.31-.708-.351-.404-.769.553-.757 1.586.213 1.146 1.077-.696 1.37-2.291.349-2.54-1.627-.013-.1-.055-.363-.093-.587-.292-1.7.403-3.095 1.392-2.795.651.198.8.827.286 1.208-.42.311-1.028-.194-.667-.555.159-.16.235-.119.201.106-.036.242.063.31.247.173.414-.307-.13-.925-.598-.678-.733.389-.114 1.706.655 1.394.057-.023.16-.054.228-.068.282-.06.665-.558.664-.862 0-.186-.186-.562-.386-.783-.186-.207-.179-.23.111-.32.689-.218 1.028-1.093.599-1.548-.247-.262-.462-.314-.657-.16m24.757-.04c-.049.146-.534.305-.665.218-.1-.065-.011-.13.24-.177a.905.905 0 0 0 .242-.068c.052-.052.202-.03.183.028m8.918.18c.107.126.2.288.2.35 0 .027.07.194.157.373.24.495.215.528-.232.304-.467-.233-.617-.577-.418-.955.102-.195.173-.212.293-.071m-33.232.314c.18.256.007.622-.423.898-.203.131-.588.185-.588.083 0-.057.626-1 .694-1.047.096-.064.248-.033.317.066m37.66.442c.422.257.277.856-.207.856-.541 0-.694-.63-.212-.877.177-.091.24-.088.42.021m-41.72.062c.446.186.347.885-.125.884-.55 0-.692-.691-.186-.904.125-.052.141-.051.311.02m14.048 1.2c-.145.144-.041.315.32.529.123.072.146.106.12.178-.007.016-1.433.025-3.17.019-2.776-.01-3.166-.003-3.216.057-.077.092 0 .231.179.324.126.065.135.086.122.282l-.013.212h-.406l-.008-.262c-.013-.45-.158-.573-.682-.572-.323 0-.545.092-.637.264-.126.235.127.345.387.168.19-.129.426-.153.51-.052.084.102-.012.227-.244.315-.336.129-.246.342.144.342.196 0 .282.062.282.206 0 .314-.368.257-.742-.115-.308-.305-.444-.344-.531-.153-.051.112-.04.132.199.355.653.608 1.274.644 1.507.087.118-.283.26-.204.288.161.027.352.057.406.223.406.203 0 .223-.07.26-.905l.036-.786.54-.013c.77-.019.828.007.74.325-.054.195-.142.207-.356.048-.23-.17-.406-.129-.406.094 0 .219.98 1.192 1.2 1.192.276 0 .25-.178-.072-.496-.375-.37-.266-.556.265-.45.139.029.298.06.354.071.096.018.102.042.102.393 0 .409.035.482.233.482.19 0 .218-.108.218-.871 0-.537.014-.708.062-.748.125-.104 1.808-.045 1.808.063 0 .084-.037.092-.556.113-.636.025-.773.102-.773.432 0 .431.64 1.15.882.99.156-.102.136-.213-.07-.379-.554-.445-.514-.773.094-.773.483 0 .463-.027.491.654.021.515.027.542.122.555.263.038.284-.02.284-.807 0-.874.009-.898.337-.898.306 0 .282-.059.32.81.033.746.076.904.244.904.181 0 .226-.166.227-.846 0-.722.007-.75.19-.794.32-.079.186-.39-.168-.39h-.236l-.398-.406c-.425-.433-.467-.455-.606-.315m27.977.04c.278.17.307.49.065.732-.349.349-.975-.099-.731-.522.148-.258.438-.35.666-.21m-42.182.144c.3.3.054.86-.346.787-.457-.083-.598-.481-.283-.797.186-.185.439-.181.63.01m20.44.574c-.166.016-.215.1-.128.218.05.07.135.086.504.098.547.018.676.12.473.37l-.082.103-.176-.12c-.199-.135-.343-.152-.427-.05-.083.1-.033.174.497.739.5.532.622.608.768.475.123-.111.117-.13-.137-.422-.124-.143-.225-.28-.225-.305 0-.081.222-.155.315-.106.047.025.13.046.184.046.054 0 .177.023.272.052l.172.051.013.387.013.386.153.044c.28.08.32-.032.32-.898 0-.547.015-.739.057-.753.204-.067 1.59.008 1.59.085 0 .069-.051.086-.317.107-.369.03-.527.088-.626.23-.267.381.267.979.822.92.223-.025.249-.017.365.107.13.14.316.212.431.168.095-.037.085-.151-.02-.241-.076-.065-.085-.113-.062-.333.044-.42-.24-.53-.54-.208-.155.167-.39.136-.544-.072-.16-.216-.074-.274.47-.316.518-.04.572-.065.592-.272l.014-.143.553-.013c.602-.014.638.001.578.238-.018.075-.06.113-.12.113-.392 0-.334.292.106.537.352.195.436.115.477-.457l.03-.418.197-.014c.27-.02.274-.004.244.783-.03.753.01.877.277.877.168 0 .181-.056.205-.88l.023-.766h.901l.014.19c.013.18.007.191-.135.228-.27.07-.21.246.175.512.253.174.362.17.41-.017.034-.134.055-.148.234-.16.384-.029.407-.008.407.375 0 .386.095.55.284.492.147-.046.165-.099.166-.475 0-.188.014-.528.03-.755l.03-.413h.414c.648 0 .834.342.242.443-.17.028-.199.05-.21.153-.034.288.6.711.97.648.383-.065.39-.063.42.118.036.21.115.307.253.307.164 0 .196-.151.196-.928v-.696h.138c.324 0 .467-.32.172-.384-.133-.03-12.116-.015-12.422.015m-4.186.1c-.042.135.055.224.245.224.331 0 .398.302.094.423-.253.102-.25.248.011.423.382.255.467.263.542.051.042-.12.507-.179.61-.076.033.033.054.197.054.427 0 .42.061.51.29.422.145-.055.156-.112.17-.916.015-.737.021-.752.307-.752.287 0 .29.007.299.817.008.78.03.85.251.85.085 0 .18-.178.167-.312-.003-.04-.004-.346-.001-.682l.005-.611.146-.043c.124-.036.147-.065.147-.179v-.135l-1.654-.012c-1.635-.012-1.654-.01-1.683.081m17.816-.061c-.017.016-.03.43-.03.919 0 .968.016 1.03.247.971l.113-.028v-.875c0-.481-.012-.907-.027-.946-.027-.071-.244-.1-.303-.041m-22.644.299c.242.176-.04.44-.398.373-.172-.032-.234-.25-.106-.378.072-.072.404-.069.504.005m6.33.04c.163.164.023.352-.261.352-.227 0-.316-.057-.316-.203 0-.188.428-.298.577-.149m4.626-.026c.107.04.095.317-.016.377-.312.167-.727-.07-.58-.33.042-.077.44-.108.596-.047m7.352.175v.18h-.27c-.264 0-.27-.003-.285-.127-.027-.23.01-.262.296-.247l.26.014v.18Zm2.319-.14c.117.142.041.665-.11.754-.414.242-.76.02-.45-.29.119-.118.157-.195.157-.312 0-.22.263-.32.403-.151m10.467.257c.314.336.025.88-.417.783-.149-.033-.4-.303-.4-.431 0-.413.542-.647.817-.352m-42.877.025c.35.207.3.738-.079.836-.359.093-.723-.248-.595-.557.125-.304.423-.427.674-.279m43.086 1.356c.23.282 0 .734-.372.734-.236 0-.473-.238-.473-.474 0-.419.573-.595.845-.26m-43.19-.026c.192.16.224.501.063.685-.296.34-.754.193-.805-.26-.045-.397.44-.675.741-.425m25.278.146c-.045.116.015.208.136.208.105 0 .232.04.463.147.128.059.24.014.24-.097 0-.18-.777-.42-.839-.258m-19.359.743a1.09 1.09 0 0 1-.25.232c-.147.08-.182.21-.085.318.078.086 30.29.146 30.514.06.099-.038.09-.19-.016-.281a.974.974 0 0 1-.17-.229c-.167-.308-.221-.301-.49.068l-.095.13-.126-.203c-.205-.327-.25-.329-.446-.019-.154.245-.23.244-.368-.002-.14-.25-.255-.257-.468-.027-.21.228-.234.228-.414.004-.08-.1-.18-.18-.224-.18-.044 0-.143.08-.222.18-.175.22-.236.225-.36.025-.148-.24-.26-.251-.437-.042a.94.94 0 0 0-.149.209c-.002.1-.15.008-.271-.17-.08-.115-.175-.202-.222-.202-.046 0-.158.091-.25.203-.09.111-.18.203-.199.203-.018 0-.097-.092-.176-.203-.184-.261-.28-.262-.46-.002-.154.224-.199.224-.361 0-.197-.27-.273-.26-.506.072l-.077.11-.17-.192c-.214-.241-.25-.24-.485.017l-.191.209-.133-.198c-.168-.25-.268-.253-.433-.007-.14.21-.194.21-.327.003-.186-.29-.252-.277-.518.1-.089.126-.18.087-.293-.124-.132-.246-.233-.242-.458.017-.201.232-.32.222-.4-.034-.075-.233-.303-.208-.486.052-.159.224-.163.224-.337-.023-.09-.128-.178-.203-.235-.203-.058 0-.145.075-.235.203-.176.25-.18.25-.353-.003-.174-.253-.282-.253-.455.003-.067.099-.146.18-.175.18-.028 0-.107-.081-.174-.18-.169-.25-.285-.256-.438-.026-.154.233-.208.23-.38-.02-.186-.27-.227-.265-.406.058-.126.226-.16.223-.329-.027-.161-.24-.265-.241-.426-.01-.155.224-.237.227-.375.013-.154-.238-.277-.243-.434-.016-.156.226-.186.226-.34.003-.154-.224-.216-.223-.394.002-.079.1-.159.18-.178.18-.02 0-.092-.08-.16-.18-.172-.247-.225-.239-.474.079l-.098.124-.165-.193c-.204-.237-.23-.237-.435.001l-.165.192-.166-.192c-.202-.235-.206-.236-.417-.007-.188.204-.156.211-.391-.089-.11-.139-.244-.1-.373.11-.121.195-.146.194-.3-.014-.204-.273-.296-.266-.42.034-.056.135-.18.219-.18.121 0-.304-.361-.399-.494-.13-.101.205-.164.207-.305.01-.217-.301-.264-.308-.49-.072-.24.25-.258.252-.405.03-.18-.274-.253-.263-.526.079-.113.14-.187.121-.322-.083-.07-.105-.155-.18-.205-.18-.047 0-.15.08-.229.18-.078.1-.169.18-.2.18-.032 0-.112-.08-.178-.18-.153-.232-.263-.233-.422-.002-.158.228-.187.226-.373-.022s-.25-.243-.432.037l-.14.215-.168-.204c-.205-.25-.263-.254-.409-.024-.062.1-.13.18-.152.18-.021 0-.092-.08-.158-.18-.152-.23-.254-.23-.382-.001-.144.256-.17.257-.325.003-.18-.294-.36-.258-.471.092-.045.14-.148.1-.247-.094-.117-.229-.213-.229-.375.001-.152.214-.226.225-.3.046-.113-.272-.316-.28-.455-.02-.081.152-.148.135-.285-.072-.152-.23-.205-.227-.384.022-.177.248-.188.249-.337.023-.152-.229-.237-.228-.438.006l-.16.188-.106-.154c-.217-.318-.302-.333-.497-.091m37.162.329c.17.09.223.173.246.377.06.534-.682.706-.89.206-.151-.368.293-.771.644-.583m-43.274.107c.46.192.328.896-.168.896-.49 0-.658-.624-.236-.88.167-.103.195-.104.404-.016m22.57 1.06a.262.262 0 0 1 .08.215l-.015.121-1.34.012c-1.503.014-1.493.016-1.225-.301l.116-.139h1.146c1.097 0 1.15.004 1.238.093m20.997.215c.011.193 0 .233-.062.233a.761.761 0 0 0-.248.098c-.285.16-.287.324-.003.301l.164-.013-.014.179a1.25 1.25 0 0 1-.117.382l-.102.203-.27-.015c-.324-.018-.617.083-.593.204.016.085.157.138.388.145.224.007.225.108.006.392-.178.232-.205.25-.332.223-.422-.089-.768-.08-.86.02-.103.115-.012.226.184.226.429 0 .49.116.216.409-.223.238-.305.263-.513.154-.218-.112-.52-.135-.651-.049-.176.116-.138.187.156.295.33.12.334.16.038.379-.272.202-.291.204-.655.071-.432-.157-.62.07-.218.265.254.123.238.173-.142.421-.244.16-.307.182-.369.137-.152-.111-.439-.23-.555-.231-.327-.003-.345.129-.04.295.306.166.31.215.031.36l-.235.124-.179-.117c-.5-.33-1.024-.23-.54.102.269.186.277.21.105.316-.195.12-.302.115-.485-.02-.41-.303-.731-.228-.435.1.201.223.202.248.006.309-.135.042-.168.037-.232-.033-.101-.112-.507-.31-.636-.31-.186 0-.176.13.026.32.103.097.187.204.187.239 0 .13-.312.162-.411.043-.075-.09-.316-.196-.445-.196-.154 0-.167.137-.024.25.18.144.125.22-.232.329-.346.106-.452.072-.296-.094a.846.846 0 0 0 .217-.67l-.028-.212.395-.12c.63-.189 1.173-.385 1.658-.598.248-.108.612-.26.81-.337.518-.202 1.177-.562 1.49-.813l.383-.3c.66-.517 2.772-2.796 3.236-3.491.147-.22.21-.194.226.095m-35.274-.148a.635.635 0 0 0-.358.454c-.036.19-.068.19-.478.002-1.326-.605-2.51-.09-2.994 1.302-.285.816.171 1.911.86 2.069.754.172.937.164 1.369-.059 1.26-.649 1.006-2.281-.354-2.281-.775 0-1.253.593-.953 1.182.366.718 1.668.438 1.349-.29-.156-.354-.576-.44-.576-.116 0 .073.03.12.088.134.226.06.11.375-.138.375-.492 0-.523-.772-.036-.904.727-.195 1.246.398.924 1.056-.351.72-1.335.86-1.88.269-.11-.117-.154-.201-.304-.57-.165-.404.106-1.17.565-1.597.508-.474 1.164-.53 1.908-.164 1.28.63 3.533.86 5.162.528.315-.064-.018.113-.541.288-1.164.39-2.092.414-2.71.073-.306-.17-.563.022-.35.262.49.551 2.447.442 3.77-.21.35-.172.408-.118.125.117-.485.4-1.525.761-2.196.761-.285 0-.421.127-.313.291.242.367 2.25-.207 2.813-.803.272-.287.333-.264.167.064-.228.449-.664.774-1.239.922-.34.088-.405.131-.405.27 0 .504 1.617-.243 1.878-.866.048-.116.079-.146.105-.104.064.104-.172.636-.398.895-.303.347-.334.399-.303.497.118.372.722-.213.923-.895l.103-.35c.06-.207.109-.182.173.09.075.319.202.563.313.598.221.07.239-.14.049-.602-.147-.355-.127-.414.096-.278.683.416 1.49-.504.886-1.013-.248-.209-.792-.064-.696.185a.397.397 0 0 1 .026.106c0 .073.136.086.255.024.259-.134.402.15.168.335-.342.268-.805-.102-.716-.574.108-.575.83-.718 1.245-.245.338.385.716 1.458.716 2.032 0 .63-.125 1.062-.25.86-.218-.352-1.062-.273-1.429.133-.678.751.053 1.944.911 1.486.545-.291.426-1.163-.159-1.163-.317 0-.58.455-.338.584.128.069.162.06.229-.066.083-.156.21-.146.247.02.084.382-.405.542-.675.222-.367-.438.133-1.184.682-1.017.422.129.576.295.669.724.033.152.116.495.185.761.14.542.13.587-.103.461-.582-.313-1.285.377-.878.863.22.264.577.256.756-.017.146-.223-.117-.448-.27-.23-.09.13-.208.08-.208-.087 0-.376.521-.355.703.03.242.508-.408.972-.964.688-.092-.047-.31-.235-.486-.417l-.496-.516c-.328-.341-.957-.675-1.687-.895a11.325 11.325 0 0 1-.666-.247c-.51-.204-.601-.219-.706-.114-.16.16-.013.28.572.468.832.267.741.235 1.273.455.506.21.797.413 1.054.735.826 1.038 1.666 1.267 2.32.632.356-.347.42-1.234.147-2.068-.323-.986-.043-1.953.59-2.038.305-.04.524.313.35.562-.127.182-.246.132-.246-.104 0-.315-.314-.335-.382-.024-.125.567.587.823.924.332.461-.674-.452-1.507-1.076-.981-.162.136-.187.11-.187-.193 0-.253-.108-.738-.269-1.203-.254-.737.163-1.427.679-1.122.229.135.223.51-.009.51-.046 0-.116-.051-.157-.113-.173-.265-.462-.044-.315.24.292.566 1.14.133.97-.496-.185-.691-1.02-.739-1.445-.081-.175.27-.141.268-.404.022-.305-.285-.753-.475-1.122-.475-.231 0-.41.047-1.039.274-.453.163-.566.2-.969.311a3.936 3.936 0 0 1-.594.078l-.414.027-.138-.139c-.314-.313-.008-.873.353-.645.086.055.028.184-.083.184-.136 0-.194.145-.108.268.12.171.477.026.525-.213.112-.56-.65-.813-1.09-.363-.175.18-.22.435-.122.709.04.108.07.218.07.243 0 .066-1.848.007-2.186-.07-.473-.109-.653-.26-.653-.546 0-.195.38-.36.474-.206.046.075-.07.188-.136.133-.095-.079-.182.069-.12.205.112.247.638.064.638-.222 0-.397-.412-.597-.84-.41m26.082.118c-.323.187-.394.467-.171.675.164.154.262.163.407.04l.106-.09-.148-.124c-.161-.135-.135-.237.06-.237.297 0 .329.451.048.684-.234.194-2.281.472-2.281.31a.8.8 0 0 1 .09-.204c.273-.487-.063-1.083-.611-1.083-.345 0-.53.18-.535.52-.006.41.424.66.647.376.167-.213.088-.4-.12-.281-.212.122-.33-.04-.175-.243.234-.308.71.185.527.545-.308.604-1.41.474-3.317-.392-1.254-.568-1.935-.567-2.533.004l-.144.137-.209-.183c-.345-.305-.7-.31-1.003-.015-.316.307-.314.737.003.963.458.326 1.006-.221.59-.588-.157-.138-.31-.03-.263.184.035.162-.15.166-.208.005-.08-.217.21-.471.465-.407.299.075.384.304.304.82-.08.513-.043.848.172 1.532.1.322.198.697.216.833l.032.246-.131-.086c-.268-.177-.48-.258-.6-.228-.065.016-.175.04-.246.055-.439.087-.615.729-.29 1.054.259.259.802.081.802-.262 0-.238-.235-.293-.318-.074-.051.135-.224.145-.303.017-.147-.235.18-.5.49-.396.571.19.543.738-.104 2.016-.463.916-.477 1.384-.052 1.767.488.44 1 .256 2.022-.727.677-.65 1.204-.967 1.984-1.192.149-.043.321-.095.383-.115.062-.02.204-.05.316-.067.461-.067.556-.094.603-.17.07-.109-.02-.238-.158-.228-.59.041-1.477.278-1.99.53-.673.33-.734.374-1.313.923-1.026.97-1.169 1.049-1.443.794-.237-.219.076-.88.416-.88.231 0 .19.265-.063.415-.309.181-.129.388.19.218.344-.182.426-.48.2-.733-.25-.28-.79-.151-.984.236l-.078.158-.015-.126c-.01-.085.05-.237.185-.473.23-.401.374-.708.627-1.34.37-.921.754-1.265 1.31-1.171.641.108.698.972.073 1.126-.175.043-.38-.144-.339-.308.034-.136.163-.163.254-.053.15.18.368-.039.265-.266-.14-.305-.617-.264-.804.069-.445.792.798 1.254 1.279.475.362-.587.116-1.16-.612-1.425-.195-.07-.651.017-.904.175-.268.166-.306.17-.306.028 0-.06-.073-.36-.163-.665-.327-1.112-.338-1.177-.258-1.563.14-.678.51-1 1.146-1 .681 0 1.11.926.661 1.428-.316.355-1.008.16-.91-.256.067-.291.367-.363.324-.078-.043.282.17.413.349.215.402-.445-.3-1.01-.821-.662-.66.44-.045 1.555.741 1.344.26-.07.258-.073.166.274-.093.35-.068.453.106.433.115-.014.131-.042.213-.364.083-.325.204-.48.204-.26 0 .29.51 1.043.748 1.102.29.073.308-.118.041-.43-.201-.236-.518-.8-.518-.923 0-.122.07-.063.215.18.366.612 1.393 1.3 1.538 1.029.064-.121-.005-.204-.337-.398-.33-.192-.87-.736-1.014-1.018-.107-.209-.029-.24.142-.056.38.407 1.362.984 1.912 1.123.148.038.304.08.347.093.109.035.262-.13.231-.248-.024-.091-.056-.105-.365-.157-.227-.038-.722-.246-1.04-.439a3.108 3.108 0 0 0-.307-.173c-.032 0-.661-.519-.729-.6-.123-.148.044-.118.295.053 1.215.827 3.62 1.153 3.62.491 0-.154-.077-.157-.618-.018-.229.059-.347.063-.653.025a5.012 5.012 0 0 1-1.522-.414c-.396-.168-.975-.518-.931-.562.01-.01.27.043.575.12 1.614.401 3.505.355 5.067-.124.116-.035.314-.111 1.08-.413l.216-.086c.163-.066.578-.065.74 0 .34.14.41.182.57.341.655.652.614 1.713-.08 2.076-1.082.564-2.16-.739-1.232-1.49.44-.356 1.222.242.807.617-.129.117-.232.05-.232-.15 0-.314-.257-.35-.376-.053-.184.458.38.832.81.537.613-.42.009-1.582-.758-1.459-1.3.208-1.3 2.063.001 2.442 1.624.472 2.617-1.692 1.285-2.802-.676-.564-1.224-.602-2.295-.161-.25.102-.463.187-.473.187-.011 0-.013-.1-.005-.222.037-.523-.402-.865-.808-.63m-11.032.186c.062.11.162.605.168.828.005.193.158.334.257.235.061-.062.063-.123.015-.506-.06-.474-.039-.56.094-.387.06.079.087.187.087.36.003.639.17 1.253.461 1.704.212.327.201.364-.087.287-.632-.169-.852-.551-.98-1.708-.036-.329-.097-.657-.135-.73-.108-.21.005-.287.12-.083m-3.873.406c-.037.809-.372 1.611-.723 1.736-.387.136-.422.143-.446.079-.013-.035.027-.13.089-.211.187-.247.308-.618.369-1.136.046-.388.077-.51.152-.585.12-.119.121-.088.031.467-.06.366-.04.541.06.541.118 0 .208-.256.274-.784.041-.328.098-.479.18-.479.017 0 .023.168.014.372m-19.88.03c.113.17.325.44.47.597.146.158.294.322.33.366.277.339 2.43 2.018 2.586 2.018.01 0 .188.097.394.216.207.118.457.253.556.299l.586.275c.727.343 2.093.788 2.42.788.127 0 .137.076.057.405-.042.172-.066.365-.054.429.03.153-.017.174-.31.137-.312-.039-.36-.127-.16-.294.162-.135.19-.27.056-.27-.15 0-.306.079-.498.252-.179.162-.189.165-.363.113-.218-.066-.22-.094-.022-.313.155-.172.152-.278-.009-.278-.075 0-.377.189-.458.287-.07.084-.152.093-.265.03a2.66 2.66 0 0 0-.247-.111c-.213-.084-.212-.123.008-.322.345-.312.017-.4-.398-.107l-.2.141-.215-.101c-.268-.125-.303-.202-.133-.29.401-.207.07-.394-.357-.2-.348.157-.681-.098-.34-.26.145-.07.245-.214.187-.271-.065-.065-.487-.018-.638.07l-.16.095-.18-.119c-.212-.14-.208-.187.025-.31.401-.21.085-.407-.358-.222-.187.078-.314.056-.465-.082-.14-.129-.13-.155.102-.268.22-.107.236-.131.136-.215-.064-.053-.27-.045-.588.023-.144.03-.382-.107-.382-.222 0-.071.192-.162.34-.162.08 0 .11-.025.11-.089 0-.174-.236-.216-.64-.113-.1.025-.149.005-.26-.105-.181-.182-.175-.268.022-.305.315-.06.17-.291-.187-.297-.33-.005-.397-.087-.624-.777-.25-.76-.202-.93.125-.438m23.37-.104c.146.38-.127.587-.365.275-.192-.252-.162-.347.11-.347.167 0 .235.019.255.072m-2.35.022c.07.113-.39.492-.598.492h-.193v-.541h.38c.227 0 .393.02.411.05m1.398-.016c.55.382-.098 1.08-.722.778-.302-.146-.452-.559-.27-.741.076-.076.893-.106.992-.037m-1.098 1.014c.423.335 1.071.303 1.36-.066.203-.26.32.146.133.462-.422.715-2.085.278-1.865-.49.067-.233.096-.251.186-.114.046.07.13.163.186.208m2.193.09c.034.216.114.485.19.642.274.561.011.79-1.134.983l-.567.097-.537-.104c-.63-.121-1.12-.3-1.502-.547-.324-.209-.32-.187-.116-.558.088-.16.198-.399.245-.531.082-.233.09-.241.268-.255l.184-.014v.172c.002 1.022 1.515 1.564 2.403.86.232-.184.347-.458.347-.827 0-.468.14-.415.22.082m20.248.41c0 .181-.139.583-.305.887-.306.558-.327.606-.327.765-.002.39-.132.485-.236.171-.138-.416-.383-.205-.328.282.029.248.029.248-.173.445-.2.196-.3.213-.3.05 0-.142-.1-.315-.182-.315-.154 0-.193.118-.164.495.028.355.027.358-.107.47-.203.171-.31.067-.314-.305-.002-.279-.192-.246-.321.055a.726.726 0 0 0-.059.437l.03.233-.236.145c-.273.168-.303.154-.355-.172-.089-.564-.423-.258-.346.317.032.239-.055.345-.363.447-.194.064-.21.049-.24-.218-.02-.175-.042-.215-.124-.227-.142-.02-.256.217-.227.472.025.222.016.232-.322.369-.364.147-.377.141-.359-.161.015-.25.011-.26-.096-.26-.15 0-.317.251-.317.475 0 .211-.078.277-.36.304l-.22.022-.015-.197c-.025-.362-.348-.227-.35.146-.002.192-.069.26-.29.296l-.163.026v-.229c0-.126-.023-.243-.053-.261-.069-.043-.307.241-.307.366 0 .137-.092.242-.253.288-.212.06-.266.007-.198-.197.124-.378-.151-.334-.338.055-.106.22-.157.281-.237.281-.12.001-.12.007-.03-.173a4.11 4.11 0 0 0 .152-.373l.082-.231.5-.126c.438-.11.837-.245 1.223-.412.123-.053.115-.05.677-.266 2.198-.842 4.634-2.546 5.576-3.9.267-.384.375-.463.375-.277m-43.553.396c.176.261.84.95 1.106 1.148.098.073.24.186.316.25.443.376 1.117.847 1.759 1.228.049.03.177.111.284.181.792.52 2.27 1.072 3.346 1.248.77.126.808.148.812.451.002.112.032.284.068.383.086.239.083.257-.03.24-.074-.01-.117-.074-.176-.256-.147-.452-.368-.496-.395-.078-.017.25-.24.31-.272.072a.34.34 0 0 0-.056-.156.195.195 0 0 1-.042-.117c0-.113-.208-.317-.29-.286-.051.02-.07.092-.07.268 0 .274-.03.31-.194.234-.079-.038-.125-.104-.145-.21-.1-.534-.418-.75-.389-.264.023.383-.502.2-.549-.191-.027-.235-.127-.406-.236-.406-.07 0-.116.114-.081.204.081.213-.147.247-.48.071l-.248-.13-.027-.28c-.043-.432-.311-.63-.311-.228 0 .254-.089.305-.314.179-.179-.101-.182-.107-.182-.356 0-.38-.127-.474-.259-.193-.104.22-.186.23-.46.05-.254-.167-.294-.23-.225-.36.058-.107.016-.329-.079-.424-.093-.093-.183-.016-.221.19-.063.336-.629.066-.583-.279.036-.273-.027-.45-.16-.45-.09 0-.112.025-.124.149-.022.232-.123.228-.372-.018-.242-.238-.259-.299-.148-.532.118-.248-.028-.44-.21-.275-.186.169-.585-.574-.585-1.09 0-.25.032-.246.222.033m22.153 1.303c.02.019-.01.103-.068.188-.098.144-.128.254-.265.972-.086.45-.33.437-.378-.02-.058-.563-.131-.94-.195-1.014-.134-.156-.008-.206.453-.182.229.013.432.038.453.056m-21.972.461c.112.198.127.261.105.467-.023.229-.015.251.192.547.119.169.347.5.507.736.16.236.464.604.676.82.365.37.387.404.419.64.08.593 1.177 1.675 2 1.973.113.04.16.085.161.15 0 .198.25.497.606.725.576.368 1.27.662 1.83.774.343.069.369.083.485.257.366.544 1.766 1.155 2.648 1.155.174 0 .218.023.369.185.412.447 1.203.598 3.146.602.92.003 1.014-.005 1.304-.102.302-.101.316-.102.459-.025.13.07.166.072.319.018.095-.034.416-.075.713-.092.298-.017.622-.056.721-.087.382-.119.408-.105.39.196a1.264 1.264 0 0 1-.109.446c-.084.161-.087.198-.035.365.032.102.065.378.074.614.03.825.125 1.119.461 1.427.24.22.24.224-.145.87-.412.69-2.301 2.574-2.583 2.574-.015 0-.18-.048-.37-.107-.46-.145-.753-.195-1.605-.275-.396-.037-.772-.08-.834-.094-.651-.15-.696-.173-1.15-.601-.988-.934-1.83-1.516-2.727-1.887-.927-.383-1.13-.554-1.445-1.214-.514-1.072-.667-1.225-2.063-2.045-1.415-.83-2.26-1.695-2.514-2.572-.087-.3-.201-.492-.47-.789-.428-.474-.454-.523-.494-.958-.044-.464-.148-.718-.412-1.007-.467-.51-.486-.576-.376-1.294a.555.555 0 0 0-.043-.345.996.996 0 0 1-.072-.181c0-.016-.102-.25-.226-.522-.242-.531-.3-1.01-.177-1.456.056-.203.093-.188.265.112m20.823-.065c.049.093.143.619.143.798 0 .147-.231.141-.34-.008-.059-.08-.201-.549-.201-.662 0-.18.318-.282.398-.128m1.694.06c.137.162.14.213.045.54-.089.303-.08.295-.368.331-.268.034-.282.01-.191-.34l.094-.364c.085-.322.238-.384.42-.168m20.345.392c.13.305.104.67-.072.98-.14.248-.156.314-.185.774l-.031.503-.232.31c-.368.489-.413.615-.413 1.156 0 .521.026.463-.478 1.057a2.46 2.46 0 0 0-.375.626c-.29.71-.356.811-.851 1.316-.266.27-.554.523-.64.562-1.979.893-2.298 1.131-2.974 2.22-.442.713-.529.829-.9 1.201-.379.382-.397.394-.928.598-.945.364-1.245.587-1.987 1.48-.76.914-1.14 1.119-2.08 1.119-.768 0-1.75.31-2.438.772-.268.18-.26.183-.76-.31-1.082-1.062-1.528-1.666-2.112-2.857-.258-.527-.257-.54.07-.854l.271-.262-.01-.826c-.008-.69-.023-.857-.091-1.005-.121-.263-.011-.43.168-.254.07.068.75.396 1.085.523.543.207.551.21 1.663.476 1.403.336 3.194.074 3.524-.516.03-.054.158-.097.424-.142a9.637 9.637 0 0 0 1.101-.249c.075-.024.315-.096.534-.16.462-.136.719-.33.802-.605l.05-.171.637-.211c1.38-.46 2.278-1.036 2.562-1.646.111-.24.177-.322.325-.405 1.528-.866 2.784-2.102 2.716-2.673-.024-.209-.016-.233.143-.41.55-.615.759-1.119.621-1.5-.027-.075.031-.156.315-.44.397-.395.446-.411.546-.177m-22.678.123c.112.2.08.294-.102.294-.171 0-.308-.323-.188-.444.09-.09.183-.041.29.15m3.04.05c.07.086-.066.39-.185.414-.177.034-.244-.096-.155-.298.09-.204.227-.25.34-.116M3.35 28.75c.477.344 1.366.872 2.015 1.197 1.419.71 1.526.759 2.634 1.193.385.15.892.318 1.128.37.235.054.474.116.531.14.057.023.22.041.362.041.347 0 .459.08.46.33.001.107.05.287.113.414.143.292.143.294-.066.294-.202 0-.26-.09-.187-.284.11-.29-.174-.266-.334.028-.164.302-.428.253-.338-.061.064-.223.056-.313-.031-.347-.09-.034-.375.27-.375.4 0 .102-.188.115-.268.019-.058-.07-.015-.195.122-.352.055-.064.057-.091.011-.147-.092-.11-.167-.081-.416.159-.353.34-.662.246-.447-.136.123-.218.121-.226-.031-.226-.08 0-.194.057-.306.153-.137.117-.208.148-.3.13-.143-.027-.254-.14-.184-.185a.496.496 0 0 0 .15-.298c0-.118-.209-.082-.376.064-.178.157-.208.16-.467.062-.218-.084-.243-.162-.084-.266.13-.085.182-.2.12-.262-.058-.057-.383.036-.558.16-.125.09-.125.09-.326-.006-.24-.112-.243-.133-.063-.339.241-.274.039-.345-.323-.113l-.215.138-.18-.092c-.25-.127-.256-.157-.069-.312.29-.24.09-.375-.276-.187-.225.115-.255.113-.381-.02-.123-.132-.098-.234.074-.3.174-.066.238-.128.21-.202-.03-.079-.47-.09-.61-.016-.076.041-.113.029-.222-.076-.16-.154-.167-.277-.018-.334.224-.085.08-.251-.203-.234-.141.01-.16-.005-.41-.307-.377-.453-.328-.523.134-.19m18.766.007c.13.106.072.25-.1.25-.136 0-.236-.227-.13-.294.092-.058.11-.055.23.044m4.14.249c.143.172-.114.406-.267.242-.116-.125-.115-.151.008-.238.125-.087.19-.088.259-.004m-2.748.152c.111.054.254.14.317.19l.115.092.336-.171c.376-.191.82-.231 1.114-.101.23.102.175.133-.238.133-.443 0-.697.1-.966.38-.19.197-.234.2-.42.02-.32-.31-1.002-.447-1.43-.289-.342.127-.361.13-.361.058 0-.333 1.053-.547 1.533-.312m-12.93.033c.246.043.277.105.168.333a.857.857 0 0 0-.084.357c.016.276.018.275-.24.25-.384-.038-.434-.058-.506-.197-.092-.178-.084-.39.023-.626.098-.216.087-.214.64-.117m11.054-.002c.086.065.086.07-.01.28a1.94 1.94 0 0 0-.126.396c-.044.27-.1.317-.227.197-.316-.297.03-1.126.363-.873m22.633.018c.065.106-.063.262-.262.318-.244.068-.292.155-.14.255.2.131.052.373-.192.313-.359-.09-.418-.086-.418.026 0 .072.046.133.14.186.298.17-.12.438-.433.28-.39-.198-.548-.05-.238.222l.146.128-.135.107c-.156.125-.257.136-.339.038-.07-.084-.335-.2-.456-.2-.158 0-.148.133.024.309.21.215.206.255-.037.366-.246.112-.201.12-.405-.067-.317-.29-.737-.202-.431.09.19.184.175.272-.063.353-.199.067-.2.067-.327-.067-.326-.342-.782-.332-.494.01.17.202.152.288-.076.375-.268.102-.33.093-.421-.06-.112-.188-.434-.356-.531-.276-.097.081-.091.12.046.3.16.209.122.264-.238.355l-.307.077-.126-.141c-.395-.442-.74-.424-.476.025.114.194.09.228-.237.336-.177.058-.193.056-.266-.034-.281-.347-.612-.32-.428.036.089.17-.07.277-.274.185a.7.7 0 0 0-.243-.053c-.218 0-.206-.122.027-.27.256-.163.315-.245.392-.55l.062-.24.355-.052a6.91 6.91 0 0 0 .56-.105c.11-.028.293-.07.405-.093.23-.046.375-.083.856-.222.186-.054.41-.114.496-.135.15-.035.336-.099 1.353-.467.854-.31 1.52-.666 2.57-1.378.494-.335.52-.347.56-.28m-32.295.304c.39.094.428.201.098.284a.887.887 0 0 0-.357.19c-.387.374-.883.076-.639-.382.125-.235.254-.248.898-.092m25.613.03c.094.148-.043.55-.256.75-.147.139-.429.046-.491-.162a3.362 3.362 0 0 0-.102-.277c-.092-.219-.078-.268.084-.295.08-.014.228-.045.327-.069.202-.048.388-.026.438.053m-10.975.01c.138.097.126.206-.046.431-.185.243-.221.236-.287-.054-.075-.334.104-.537.333-.376m-6.107.19c.038.095.167.263.288.373.32.291.6.733.6.944 0 .088.157.226.256.226.12 0 .148-.16.073-.425-.209-.735.52-1.36 1.318-1.128.237.069.376.19.69.603.15.2.235.175.521-.152.952-1.084 2.153-.567 1.556.67-.169.35.175.442.358.096.21-.396 1.127-1.172 1.276-1.08.204.126-.064.804-.472 1.194-.535.512-.482.091.057-.443.16-.16.184-.203.137-.26-.16-.193-.583.17-.79.677-.2.492-.3.567-.501.377-.22-.207-.292.047-.193.686.15.966-.844 1.266-1.177.354a1.535 1.535 0 0 1-.089-.322c0-.048-.033-.08-.084-.08-.084 0-.113.051-.238.42-.175.515-.505.458-.692-.119-.115-.354-.205-.38-.315-.092-.413 1.08-1.45.852-1.218-.267.094-.459.054-.55-.226-.513-.235.033-.314-.052-.611-.66-.234-.478-.394-.681-.504-.639-.114.044-.099.129.082.457.212.386.193.502-.043.26-.29-.295-.313-.351-.308-.734.008-.556.12-.746.249-.422m15.797-.045c.066.042.236.409.237.512.002.083-.424.444-.522.444-.12 0-.206-.255-.152-.452a.635.635 0 0 0 .006-.335c-.024-.085-.031-.166-.017-.18.037-.037.385-.03.448.01m-22.92.117c.014.035-.032.13-.101.213l-.126.15-.19-.085c-.173-.079-.318-.217-.318-.305 0-.067.71-.04.735.027m22.13.017c.276.322-.112.604-.404.294-.177-.187-.173-.294.013-.334.235-.05.322-.041.391.04m-.85.186c.266.233.244.46-.06.631-.254.143-.326.13-.292-.054a.59.59 0 0 0-.043-.322c-.15-.358.098-.518.396-.255m-20.584-.043a2.7 2.7 0 0 0 .332.115c.396.115.443.163.336.344-.047.081-.099.21-.114.286-.065.318-.866.181-1.04-.178-.167-.346.167-.736.486-.567m19.831.309c.184.364-.133.766-.435.552a.941.941 0 0 0-.297-.126c-.14-.029-.19-.07-.271-.225-.12-.228-.116-.232.342-.333.488-.108.546-.097.661.132m-21.132.023c.573.327.555.465-.062.452-.506-.011-.79-.168-.79-.436s.396-.276.852-.016m9.832.091c-.257.088-.203.185.121.216.178.017.368.074.525.156.21.11.258.12.319.07.299-.249-.483-.606-.965-.442m1.772.074c-.162.1-.258.249-.221.344.034.09.192.08.336-.018.128-.088.517-.188.731-.188.168 0 .179-.12.016-.182-.206-.078-.702-.053-.862.044m8.137-.033c.278.277-.416.648-.766.409-.142-.097-.12-.146.111-.254.492-.23.564-.246.655-.155m-21.585.173c0 .075.04.216.09.314.195.382-.243.581-.496.225-.303-.425-.25-.676.142-.676h.264v.137Zm4.614 0c.191.113.199.143.066.266-.34.318-.885.027-.574-.307.114-.123.25-.112.508.04m-3.828.067c.067.087.221.21.344.272.235.119.236.121.194.28-.07.264-.958-.228-.962-.534-.003-.242.245-.253.424-.018m23.774-.088c.274.192-.04.475-.537.483-.392.006-.434-.048-.16-.208a.99.99 0 0 0 .273-.23c.087-.134.27-.153.424-.045m1.559.068c.236.186-.025.764-.345.764-.194 0-.337-.64-.173-.772a.433.433 0 0 1 .518.008m-14.668.196c0 .179.216.493.405.59.313.16.724.088.488-.085-.087-.064-.054-.163.055-.163.33 0 .057-.29-.318-.337l-.394-.05c-.203-.026-.236-.02-.236.045m2.276-.01c-.198.105-.285.34-.108.293.09-.023.093-.012.065.175l-.03.2h.162c.32 0 .814-.374.783-.592-.017-.12-.679-.177-.872-.076m-11.218.151c.086.226-.726.551-.841.337-.087-.162.01-.256.303-.289.143-.016.29-.05.328-.073.1-.063.18-.054.21.025m19.736.002c.403.403-.56.93-.978.534-.24-.227-.207-.38.081-.38.078 0 .231-.05.34-.11.232-.127.456-.145.557-.044m-16.734.223c.263.219.357.382.22.382a.658.658 0 0 0-.162.115c-.352.303-.965-.321-.626-.636.169-.156.229-.142.568.14m8.825-.185c0 .056-.218.23-.246.198-.042-.05-.109-.21-.094-.223.051-.05.34-.028.34.025m6.267.048c.232.147.246.319.04.492-.207.175-.317.186-.514.052-.094-.064-.198-.116-.232-.116-.109 0-.066-.073.184-.31.284-.267.285-.268.522-.118m4.62-.04c.177.178-.229.689-.736.927-.327.154-.407.136-.194-.043a.555.555 0 0 0 .191-.326c.088-.399.55-.747.74-.557m7.325.034c0 .084-.15.207-.3.247-.098.026-.132.065-.143.166-.023.203-.135.302-.305.27a.505.505 0 0 0-.215.002c-.08.03-.104.199-.029.199.088 0 .044.18-.06.248-.095.061-.124.062-.267.002-.323-.136-.58.071-.3.242l.138.084-.094.088c-.212.198-.304.218-.5.108-.359-.202-.64-.045-.363.202.273.243-.092.414-.427.201-.349-.22-.568-.134-.32.127.174.18.152.247-.11.34l-.228.083-.17-.165c-.204-.2-.5-.277-.5-.131 0 .048.061.146.136.217.176.169.172.182-.07.264-.208.071-.336.06-.336-.03 0-.093-.287-.347-.393-.347-.139 0-.167.088-.082.251.109.21.09.277-.092.31-.167.032-.29-.025-.29-.133 0-.098-.256-.337-.36-.337-.09 0-.097.016-.07.146.072.359.067.37-.173.397-.207.024-.477-.133-.478-.279 0-.015-.063-.054-.138-.085-.203-.084-.255-.01-.16.226.084.214.066.271-.087.271-.108 0-.127-.015-.285-.222-.11-.144-.232-.1-.232.085 0 .13-.01.137-.177.137-.312 0-.342-.042-.128-.177.294-.187.35-.26.35-.458 0-.097.02-.177.047-.177a.48.48 0 0 0 .169-.089c.105-.076.15-.082.321-.043.211.049.821-.03 1.258-.162.489-.149.87-.246 1.316-.338.26-.054.666-.17.901-.257.236-.088.55-.2.699-.248.343-.112 1.118-.47 1.51-.698.087-.05.34-.214.564-.364.394-.265.473-.294.473-.173m-20.557.002c0 .114-.097.13-.195.03l-.096-.095h.145c.097 0 .146.022.146.065m11.355.086c.179.216.042.574-.254.663-.202.06-.516-.052-.544-.194-.052-.274.627-.674.798-.47m-19.759.02c.112.074.065.73-.055.76-.449.113-1.016-.423-.754-.712.078-.086.697-.123.81-.048m-9.022.322c1.09.54 2.887 1.223 3.562 1.355.149.03.341.071.428.093.358.091 1.048.102 1.367.022.169-.042.31-.07.316-.061l.064.116c.04.072.043.133.01.22a.374.374 0 0 0-.02.203c.04.124-.056.266-.18.266-.093 0-.11-.025-.123-.169-.023-.278-.347-.197-.35.087-.002.091-.172.155-.238.089-.033-.033-.03-.09.01-.185.129-.311-.082-.326-.365-.026-.246.26-.518.2-.383-.086.144-.303-.06-.351-.3-.071-.262.306-.532.207-.32-.117.18-.274-.167-.254-.386.023-.17.214-.501.159-.343-.057.232-.318-.005-.414-.336-.136-.134.113-.151.116-.318.06l-.177-.058.094-.152c.174-.281-.01-.369-.314-.15-.2.145-.37.169-.54.075l-.105-.059.12-.142c.205-.244.075-.303-.267-.121-.314.167-.508.044-.293-.185.204-.217.063-.334-.243-.202-.18.077-.212.08-.297.02-.093-.065-.132-.197-.059-.197.02 0 .075-.028.123-.063.176-.129-.145-.287-.337-.165-.097.062-.199-.012-.357-.26-.233-.362-.242-.362.557.033m9.95-.074c.02.093.068.22.11.283.142.218-.102.355-.43.241-.184-.065-.289-.26-.25-.47.06-.313.508-.355.57-.054m19.638-.048c.166.166-.047.421-.581.695-.275.141-.528.142-.294.001.21-.126.387-.317.436-.47.089-.277.287-.379.439-.226m-23.545.129a.59.59 0 0 1 .03.214c-.001.092.037.254.084.361l.085.195-.1.1c-.396.39-.852.173-.86-.412-.004-.317.617-.691.761-.458m1.752.034c.013.02-.075.14-.194.265-.14.147-.238.3-.278.438-.088.297-.2.315-.53.089-.42-.288-.563-.807-.198-.72.362.087.958.04 1.084-.086a.073.073 0 0 1 .116.014m23.286.215c.173.145.19.391.043.58l-.096.121-.12-.116c-.067-.063-.155-.115-.197-.115-.041 0-.109-.065-.15-.144l-.074-.144.163-.15c.196-.18.251-.183.431-.032m-4.439.172c.092.258-.206.518-.613.535l-.242.01.011-.176c.01-.173.113-.34.21-.344a.86.86 0 0 0 .23-.132c.206-.148.324-.117.404.107m-14.72.124c.482.368.478.416-.031.377-.512-.04-.53-.046-.61-.212-.079-.161-.06-.251.075-.363.141-.115.172-.104.567.198m13.393-.164c.229.119.186.282-.133.51-.222.16-.244.166-.328.087a3.619 3.619 0 0 0-.227-.181c-.358-.268.256-.639.688-.416m-16.946.596c-.02.398-.045.416-.326.235-.44-.282-.498-.427-.27-.671l.134-.143.239.137.239.138-.016.304Zm19.153-.359c0 .289-.298.437-.504.251-.194-.175-.081-.405.212-.43.258-.021.292 0 .292.18m.568-.053c.317.15.096.694-.282.694-.148 0-.168-.074-.066-.24.05-.081.105-.233.122-.337.035-.218.025-.213.226-.117m-17.293.03c.23.187.393.593.293.727-.137.18-.834-.252-.834-.517 0-.227.351-.364.54-.21m-1.401.103c.055.056-.001.584-.068.635-.193.147-.65-.043-.65-.271 0-.283.53-.551.718-.364m20.9.04c0 .096-.619.385-.822.385-.113 0-.146-.146-.047-.211.314-.207.869-.317.869-.174m-20.205.475c.221.214.186.542-.058.542-.284 0-.478-.512-.31-.824l.051-.097.072.106c.04.059.15.182.245.273m19.055-.207c0 .06-.081.205-.182.327-.213.256-.242.348-.213.655.037.382.185.4.234.027.066-.507.43-.569.432-.073 0 .058.03.164.067.235a.612.612 0 0 1 .068.228c0 .054.022.121.05.148.065.066-.008.104-.546.28-.49.16-.631.174-.631.064 0-.108-.083-.359-.21-.64l-.11-.242.11-.209.216-.407c.216-.4.715-.676.715-.393m-22.25.233c.304.281-.15.238-.494-.048-.13-.108-.132-.115-.05-.178.1-.078.313.01.545.226m17.557-.18c.291.246.091.696-.31.696-.158 0-.191-.017-.23-.118a1.064 1.064 0 0 0-.133-.231c-.107-.136-.092-.164.172-.332.254-.16.324-.163.501-.014m6.247.018c0 .115-.997.54-1.108.472-.122-.076.01-.182.455-.363.485-.2.653-.227.653-.109m-3.831.046c.044.072.684.364.858.392.223.036.18.239-.05.239-.088 0-.22.103-.37.289-.098.12-.14.082-.154-.141-.012-.186-.034-.226-.172-.319-.158-.106-.186-.15-.242-.382-.03-.125.065-.183.13-.078m-14.006.084a1.8 1.8 0 0 0 .29.156c.194.081.203.12.074.33-.133.215-.538.226-.758.02-.307-.287.053-.748.394-.506m12.744.053c.224.432-.513 1.035-.851.696-.133-.132.119-.522.444-.689.336-.173.322-.173.407-.007m.87.022c.117.255-.045.472-.35.472h-.183v-.22c0-.225.043-.294.203-.334.204-.05.28-.031.33.082m-20.177.081.428.271c.185.117.278.345.141.345-.145 0-.986-.575-.986-.675 0-.135.144-.115.417.06m1.376-.044c.242.155.731.611.731.682 0 .033-.071.168-.158.3a2.66 2.66 0 0 0-.233.444c-.122.333-.14.343-.54.275-.597-.1-.617-.12-.487-.492.037-.107.055-.214.04-.238-.02-.033.094-.272.19-.397.04-.051.151.114.151.223 0 .297.26.538.277.257.028-.466-.03-.642-.258-.791-.185-.121-.23-.21-.153-.303.08-.098.248-.083.44.04m4.32.073c.01.28.016.3.13.47.292.43-.13.51-.538.102-.31-.309-.187-.768.198-.743.2.013.205.017.21.171m5.833 0c.313.305.512.328.786.087l.156-.137.093.093c.306.306-.514.766-.959.538-.31-.16-.48-.44-.369-.61.09-.138.127-.134.293.028m12.893.158c.101.122.014.19-.424.333-.523.171-.624.179-.604.045.014-.096.04-.116.262-.212.117-.05.632-.224.682-.23.016-.001.054.027.084.064m-7.178.035c.21.263-.017.53-.453.53-.483 0-.512-.122-.088-.368.413-.24.466-.256.54-.162m-14.418.038c.32.054.41.123.41.316 0 .298-.1.343-.215.097-.075-.16-.093-.17-.327-.192-.29-.027-.36-.063-.36-.183 0-.103.068-.109.492-.038m1.809.097c.178.09.2.119.2.254 0 .226-.113.279-.276.13a9.166 9.166 0 0 0-.263-.228c-.262-.219-.013-.333.339-.156m6.355.113c.38.67 1.44.682 1.894.023.118-.172.18-.154.18.053 0 .595-.486 1.062-1.105 1.062-.63 0-1.013-.307-1.233-.986-.101-.314.104-.433.264-.152m-3.102-.006c.165.085.183.237.047.39-.117.13-.597.11-.73-.032-.298-.317.229-.594.683-.358m-12.024.148c.15.054.342.116.429.139.086.022.239.064.338.092.824.233 2.107.388 2.556.309l.303-.053.238.183c.232.178.459.308.735.424l.135.056-.225.025c-.444.048-.61.011-.61-.138 0-.072-.023-.13-.052-.13-.073 0-.218.137-.218.206 0 .076-.176.13-.234.073-.03-.03-.026-.078.009-.144.123-.23-.154-.228-.317.002-.19.267-.376.157-.249-.145.082-.194-.15-.189-.34.007-.208.214-.53.258-.5.068.053-.334-.024-.367-.323-.138-.286.218-.526.161-.363-.087.142-.218-.028-.266-.33-.094-.273.157-.532.052-.328-.132.206-.186-.035-.265-.32-.105-.185.104-.438.011-.312-.115.127-.128-.015-.235-.212-.16-.14.054-.276 0-.366-.143-.12-.192.024-.192.556 0m4.482.16c.345.218.206.308-.187.12-.361-.172-.51-.305-.438-.391.055-.066.17-.016.625.27m10.039-.283c.019.03-.03.103-.117.174-.198.161-.163.27.089.27.224 0 .226.03.014.209-.234.196-.157.303.184.258l.229-.03-.123.146c-.218.259-.117.391.192.252.193-.087.29-.06.248.07-.077.244.112.35.27.152.117-.147.25-.11.25.07 0 .273.223.29.334.025.084-.202.187-.173.254.073.072.269.284.243.304-.038.024-.323.099-.338.438-.086.03.023.09.027.134.01.08-.03.08-.069-.003-.406l-.031-.129.228.032c.36.05.418-.014.216-.237-.173-.191-.171-.205.03-.253.154-.037.158-.133.012-.28-.125-.124-.13-.146-.07-.24.126-.201.368.337.397.885.056 1.03-.565 1.562-1.815 1.556-1.214-.006-1.896-.493-2.053-1.464-.098-.613.183-1.352.389-1.02m10.16.037c.087.162-.067.39-.332.493-.705.273-.877.305-.818.153.014-.038.001-.14-.03-.225-.073-.203.015-.261.393-.261.221 0 .303-.022.45-.124.213-.147.275-.154.338-.036m-4.506.169c.23.157.246.36.044.561-.157.157-.154.158-.57-.229-.285-.266-.28-.289.085-.361.286-.056.32-.054.44.029m-7.461.032c.233.082.236.15.014.34-.213.184-.308.128-.308-.18 0-.244.02-.254.294-.16m9.605.035c.067.211-.41.367-.586.191-.073-.073-.094-.206-.04-.26.085-.085.594-.03.626.07m3.504.277c.013.053.056.218.097.367.201.73-.12.731-.338 0A5.31 5.31 0 0 0 33.15 34c-.057-.15-.049-.343.017-.41.064-.065.277.153.317.326m-17.45-.165c.434.412.336.61-.184.373-.481-.22-.523-.245-.54-.329-.048-.254.47-.286.724-.044m10.61.04c.644.426.897.776 1.012 1.399.05.27.11.578.135.684.063.273.056.835-.012.923-.113.147-.945.283-1.101.18-.178-.116-.208-.827-.052-1.191.096-.222.096-.23.015-.29-.122-.09-.253.009-.342.258-.04.109-.088.235-.107.28-.035.078-.023.202.065.685.022.124.042.337.043.474.002.189.03.29.116.415.158.233.145.268-.154.407a2.978 2.978 0 0 0-.515.327c-.262.214-.335.236-.494.152a.695.695 0 0 0-.285-.045l-.188.007-.048-.282a21.165 21.165 0 0 1-.078-.485c-.076-.532-.193-.647-.663-.655-.387-.006-.497.06-.555.335-.21.997-.36 1.308-.58 1.204a.355.355 0 0 0-.476.153c-.074.14-.189.11-.57-.147-.41-.275-.434-.336-.29-.755.07-.202.082-.296.05-.383-.026-.067-.033-.312-.016-.58.035-.58-.028-.883-.216-1.042-.273-.23-.332-.065-.12.339.159.305.136.818-.045 1-.09.09-1.156.029-1.255-.072-.054-.055-.02-.686.073-1.337l.085-.608c.089-.654.715-1.356 1.178-1.32l.157.012.031.374c.117 1.41 1.33 2.175 3.028 1.91 1.088-.169 1.762-1.142 1.5-2.165-.04-.157-.06-.306-.045-.332.062-.1.448-.008.72.171m9.383-.132c.047.141-.514.436-.657.346-.14-.088-.114-.192.069-.27.34-.145.556-.173.588-.076m-21.475.04c.016.04-.033.136-.12.236a2.025 2.025 0 0 0-.236.34c-.218.42-.47.539-.414.195.067-.413.674-1.022.77-.772m4.154.118c.232.213.247.278.089.382-.173.114-.463.06-.62-.115-.357-.4.124-.643.531-.267m7.379.005c.009.067.045.102.104.102.06 0 .095-.035.105-.102.012-.083-.007-.101-.105-.101-.098 0-.116.018-.104.101m4.715.014c.268.188-.184 1-.5.9a.468.468 0 0 0-.335-.006c-.15.05-.13-.066.03-.173.161-.108.239-.263.203-.406-.076-.303.322-.511.602-.315m-18.572.378c.008.051-.009.093-.037.093-.148 0-.591-.339-.558-.426.036-.094.576.209.595.333m16.866-.339c.13.156-.271.387-.67.387-.22 0-.27-.076-.16-.244.068-.103.107-.117.34-.117.144 0 .275-.02.29-.045.04-.065.138-.055.2.02m-11.726.143c.342.177.426.284.364.461a.54.54 0 0 0-.022.257c.054.214-.134.177-.808-.16-.2-.1-.227-.13-.239-.272-.031-.378.283-.506.705-.286m3.726-.01c-.102.075-.06.208.067.208.067 0 .092-.03.092-.11 0-.14-.055-.174-.159-.098m11.815.166c.029.11.104.326.167.48.086.207.102.29.063.322-.07.058-.842.503-.872.503a.646.646 0 0 0-.143.083c-.191.133-.991.459-1.195.487-.276.037-.326-.044-.36-.576l-.026-.434.26-.205c.316-.248.565-.369 1.36-.658.71-.26.679-.26.746-.002m7.413-.17c0 .032-.093.083-.208.114-.188.05-.205.066-.186.17.035.183-.128.266-.345.175-.316-.132-.669.053-.388.204.137.073.11.122-.118.223-.259.115-.253.115-.408-.012-.427-.352-.866-.24-.508.13l.137.142-.103.067c-.243.157-.335.143-.542-.082-.2-.217-.527-.394-.644-.349-.088.034-.086.125.004.2.084.07.35.448.327.466-.202.158-.551.122-.649-.067-.176-.342-.49-.563-.631-.445-.051.042-.039.091.072.287.196.348.183.432-.069.432-.18 0-.21-.015-.273-.138a1.914 1.914 0 0 0-.232-.316c-.281-.311-.567-.2-.337.131.135.196.148.272.053.322-.15.081-.208.051-.377-.195-.277-.402-.683-.468-.458-.074.194.338-.3.42-.53.088-.16-.232-.349-.255-.349-.043 0 .129-.009.135-.194.135-.177 0-.302-.058-.302-.141 0-.06.483-.31.6-.31.068 0 .164-.054.24-.134a.814.814 0 0 1 .24-.177c.846-.316.66-.29 2.096-.297 1.82-.01 2.426-.081 3.564-.42.542-.162.518-.159.518-.086m-13.865.036c-.017.027.001.081.04.12.08.08.21.012.21-.107 0-.075-.206-.085-.25-.013m-6.528.116c.069.276-.323.413-.55.192-.256-.247-.212-.303.238-.309.268-.003.283.002.312.117m-4.019.353c1.09.428 1.464.597 1.494.675.029.076-.105 1.11-.15 1.155-.047.048-.674-.207-1.03-.418-.841-.498-1.75-1.107-1.833-1.228-.075-.11.356-.648.478-.596.027.012.496.197 1.041.412m13.97-.344c.079.031.074.048-.064.204-.16.184-.224.191-.542.061l-.148-.06.131-.122c.136-.126.419-.163.624-.083m-3.658.04c-.08.026-.07.189.012.22.065.025.202-.052.202-.114 0-.05-.155-.127-.214-.107m.575.034c-.066.08-.03.203.06.203.111 0 .185-.124.12-.202-.07-.086-.11-.086-.18-.001m-6.101.053c-.075.075-.027.196.077.196.111 0 .165-.07.13-.17-.02-.06-.157-.077-.207-.026m-1.61.126c.053.063.027.25-.035.25a.87.87 0 0 0-.129.027c-.157.043-.225-.131-.097-.25.117-.11.187-.117.26-.027m-.75.053c.324.167.228.468-.149.468-.198 0-.253-.386-.072-.507.065-.044.055-.045.22.04m2.806.059c-.05.08.023.233.104.218.1-.02.101-.233 0-.252-.04-.008-.088.007-.104.034m7.561 0c.369.06.838.293.898.445.234.602.236 1.039.004 1.166-.246.136-.613.21-.882.178-.531-.063-.571-.076-.598-.203a4.489 4.489 0 0 0-.049-.209c-.024-.089-.037-.167-.153-.92-.08-.517.029-.58.78-.457m-8.308.117c-.073.088.045.228.156.185.093-.035.092-.192 0-.228-.094-.036-.09-.037-.156.043m6.177-.001c-.05.061-.05.08.004.115.1.063.2.028.2-.071 0-.113-.124-.14-.204-.044m.513.044c-.078.058-.079.067-.008.138.091.093.218.055.218-.065 0-.114-.106-.15-.21-.073m1.703-.008c-.062.076.012.185.103.15.04-.014.072-.056.072-.091 0-.087-.118-.127-.175-.059m-2.64.106c-.047.122.09.233.179.145.085-.085.042-.22-.07-.22a.127.127 0 0 0-.109.075m1.868-.014c0 .11.116.174.178.098.03-.036.042-.087.026-.113-.043-.07-.204-.057-.204.015m.422.05c-.048.127.017.213.119.159.074-.04.082-.066.044-.138-.056-.105-.127-.114-.163-.02m-8.709.45c-.032.992-.275 1.241-1.211 1.241-.442 0-.45-.008-.374-.39.03-.145.07-.365.092-.49.073-.42.06-.404.413-.516.18-.058.46-.151.621-.209.474-.168.476-.166.459.365m9.414-.338c0 .06.03.09.09.09s.09-.03.09-.09-.03-.09-.09-.09-.09.03-.09.09m-15.568.007c.07.029.239.054.375.057.221.005.287.032.609.249.704.474.726.534.198.555l-.288.011-.003-.137c-.006-.292-.138-.3-.296-.02-.103.184-.185.223-.46.224h-.173l.03-.175c.043-.257-.035-.264-.287-.028-.172.16-.257.207-.384.212-.217.008-.229-.013-.114-.208.189-.32-.126-.344-.35-.027-.223.315-.524.242-.354-.086.131-.255-.09-.253-.303.002-.247.297-.606.168-.419-.15.16-.27-.087-.271-.385-.002-.101.09-.135.098-.248.056-.145-.055-.784-.459-.784-.497 0-.013.46-.017 1.025-.009.805.012 2.43-.036 2.476-.073a.595.595 0 0 1 .135.046m7.226.017c-.075.09.037.22.152.175.088-.034.097-.114.021-.19-.071-.072-.103-.069-.173.015m.436.043c-.07.181.112.266.215.1.038-.062.034-.09-.018-.123-.098-.062-.167-.054-.197.023m5.458.006c-.058.058-.032.187.044.216.095.037.163-.03.142-.138-.016-.086-.13-.134-.186-.078m3.565.273c.13.526.027 1.065-.149.78-.067-.109-.155-1.01-.102-1.042.098-.06.197.042.25.262m-10.881-.192c-.041.107.017.215.106.198.05-.01.079-.056.079-.127 0-.128-.142-.183-.185-.071m8.773.003c-.063.077.008.203.114.203.082 0 .122-.135.062-.208-.066-.08-.106-.078-.176.005m.693 0c-.016.04-.007.096.02.122.068.069.198.006.18-.087-.02-.104-.164-.129-.2-.035m-8.566.045c-.015.041-.007.095.018.12.074.074.214.025.214-.075 0-.115-.19-.151-.232-.045M18 35.25c.044.128-.041.728-.176 1.232-.055.207-.203.238-.25.052-.144-.575.254-1.776.426-1.284m4.705-.078c-.088.089-.065.252.041.286.148.047.251-.08.185-.226-.057-.123-.14-.146-.226-.06m20.459.055c0 .196-.759.935-1.128 1.098-.999.442-1.518.844-1.845 1.432l-.226.405c-.1.18-.322.54-.625 1.015-.427.667-.885 1.042-1.55 1.268-.804.272-1.077.476-1.748 1.303-.922 1.134-1.23 1.288-2.8 1.395-1.162.08-1.708.333-2.633 1.223-.941.906-1.77 1.352-2.51 1.35-.36-.001-.381-.016-.408-.3l-.022-.234.279-.048a3.61 3.61 0 0 1 .365-.05c.349-.002 1.209-.536 1.89-1.172.795-.743 1.965-1.3 2.75-1.307.298-.004 1.045-.106 1.27-.174.562-.171.859-.42 1.473-1.237a3.386 3.386 0 0 1 1.765-1.25c.647-.2 1.33-.85 1.847-1.76.416-.73 1.167-1.578 1.4-1.578a.565.565 0 0 0 .15-.08 3.71 3.71 0 0 1 .48-.23c.77-.317 1.104-.51 1.435-.823.336-.318.39-.353.39-.246m-24.236.045c-.041.107.017.215.106.198.05-.01.08-.056.08-.127 0-.128-.143-.183-.186-.07m5.8 0c-.071.086-.045.206.057.269.116.07.277-.12.21-.248-.055-.102-.191-.112-.267-.02m1.335 0c-.014.037.007.1.046.139.089.089.226-.013.18-.134-.035-.09-.193-.093-.226-.005m1.16.045c-.036.091.017.16.122.16.11 0 .167-.13.081-.184-.093-.06-.175-.05-.203.024m1.343.032c.008.058.045.105.082.105.098 0 .084-.176-.015-.195-.064-.012-.079.008-.067.09m.744-.036c-.026.07.049.164.131.164.064 0 .104-.09.076-.17-.027-.075-.177-.071-.207.006m-8.184.024c-.082.05-.047.203.05.222a.1.1 0 0 0 .107-.06c.037-.096-.075-.212-.157-.162m-2.619.09c-.055.104.037.202.15.158.094-.036.095-.18.002-.216-.1-.038-.1-.038-.152.058m4.646-.005c-.056.104.017.235.131.235.118 0 .204-.164.132-.25-.074-.09-.21-.082-.263.015m-2.462.01c-.049.079.026.231.105.216.117-.022.13-.261.013-.261-.05 0-.103.02-.118.045m2.955.02c-.078.094-.04.269.063.288.158.03.251-.166.135-.283-.088-.087-.129-.089-.198-.005m.55-.013c-.13.13.01.374.162.278.11-.07.1-.304-.016-.32a.193.193 0 0 0-.146.042m4.779 0c-.064.063.006.218.098.218.079 0 .12-.158.057-.221-.062-.063-.09-.062-.155.003m-9.65.14c.009.066.045.1.104.1s.095-.034.104-.1c.012-.084-.007-.102-.104-.102-.098 0-.117.018-.105.101m2.142-.04c-.033.087.082.183.175.147a.098.098 0 0 0 .056-.107c-.019-.099-.197-.13-.231-.04m6.806.004c-.04.103.016.212.1.196.044-.009.073-.059.073-.126 0-.127-.13-.18-.173-.07m-8.068.008c-.058.059-.032.187.044.217.095.036.163-.03.142-.138-.016-.086-.13-.134-.186-.079m-1.339.217c0 .142.08.19.169.102.088-.088.043-.212-.077-.212-.067 0-.092.03-.092.11m6.861.014c.016.137.145.193.188.081.04-.105-.015-.205-.114-.205-.07 0-.085.026-.074.124m1.149-.094c-.088.088.082.271.177.192.104-.087.078-.222-.042-.222-.058 0-.119.014-.135.03m1.803 0c-.055.055-.03.186.04.213.078.03.134-.072.094-.175-.027-.072-.084-.088-.134-.038m-10.247.128c-.016.041 0 .104.037.14.09.09.225.032.208-.09-.017-.12-.204-.158-.245-.05m2.102.04c0 .122.099.182.175.105.094-.094.06-.213-.062-.213-.089 0-.113.023-.113.108m8.841-.046c-.07.084-.015.209.092.209.11 0 .156-.115.083-.204-.069-.083-.11-.084-.175-.005m3.552.026c.675.199 2.998.221 4.13.04.065-.01.09.01.09.075 0 .08-.026.089-.214.077-.2-.013-.214-.007-.214.097 0 .18-.208.22-.394.074-.217-.17-.444-.081-.33.13.124.232-.406.295-.61.073-.223-.244-.362-.212-.342.08l.015.213h-.241c-.232 0-.245-.006-.33-.163-.191-.356-.454-.382-.403-.04l.03.203h-.244c-.242 0-.245-.001-.324-.18-.089-.201-.212-.29-.345-.247-.094.03-.12.133-.044.18.062.038.057.19-.006.212-.205.068-.417-.035-.532-.258-.117-.228-.198-.281-.316-.206-.053.034-.055.064-.01.161.133.292-.205.292-.355 0-.083-.162-.227-.178-.29-.034-.05.115-.148.13-.267.043-.104-.076-.065-.107.401-.306.199-.084.432-.189.519-.23.203-.1.267-.1.626.006m-23.23.1c-.094.134-.037.22.251.374.462.248.522.306.446.426-.033.053-.067.047-.204-.034-.408-.24-.836-.023-.836.424 0 .268.06.38.292.542l.197.137-.072.15c-.19.39.15.425.39.04.416-.667.578-.772.717-.467.06.134.009.205-.262.355-.269.148-.297.36-.052.383.245.023.728-.374.728-.599 0-.148-.19-.42-.354-.506-.103-.055-.164-.12-.164-.175 0-.138.177-.132.393.014.106.072.299.18.428.24.32.149.322.129-.057.921-.358.75-.371.794-.27.878.172.143.258.05.61-.662.412-.834.396-.816.618-.71.094.045.303.138.464.207.319.134.416.228.328.316-.042.042-.095.036-.236-.028-.632-.285-1.116.425-.697 1.022.462.659 1.304.423 1.304-.366 0-.543.092-.639.448-.469.26.125.24.449-.03.475-.196.018-.205.103-.052.493.151.384.214.42.38.218l.123-.152.186.084c.219.099.215.076.07.51l-.115.342.093.093c.168.168.24.078.493-.616.342-.938.338-.932.547-.845.11.045.137.08.12.153a28.97 28.97 0 0 1-.389 1.352c-.063.162.002.253.18.253.138 0 .106.074.45-1.037.08-.26.162-.491.181-.513.033-.036.526.049.877.152.074.022.221.062.327.09.3.078.262.196-.051.157-.655-.082-.72.661-.074.836.194.052.254.146.156.243-.15.15-.509-.081-.73-.469-.189-.33-.417-.396-.417-.121 0 .337.665.989 1.017.997.647.014.826-.725.218-.901-.449-.131-.45-.354 0-.247.293.071.38.045.447-.134.045-.121.07-.135.245-.135.28 0 .282.02.046 1.173-.095.461-.076.651.064.668.146.016.241-.109.285-.375.016-.1.046-.242.066-.316.02-.074.06-.257.091-.406.113-.548.121-.564.32-.564.349 0 .36-.336.014-.427-.22-.058-.289-.101-.289-.185a.986.986 0 0 0-.086-.256 5.064 5.064 0 0 1-.146-.366c-.096-.279-.344-.417-.415-.232-.013.033.06.224.163.424.211.415.204.523-.014.2-.219-.325-.317-.42-.435-.42-.18 0-.17.12.028.384.226.298.21.303-.436.128-.242-.066-.52-.135-.62-.153-.568-.106-1.744-.492-2.805-.921-1.171-.473-1.267-.515-2.064-.902-.653-.318-1.006-.51-2.131-1.157-.187-.108-.215-.107-.298.012m12.235-.03c-.067.081-.029.203.064.203.079 0 .158-.132.129-.214-.028-.076-.125-.071-.193.01m5.38.001c-.015.04-.006.095.019.12.073.074.214.024.214-.075 0-.115-.191-.152-.232-.045m-8.105.053c-.02.05-.004.1.043.135.103.074.209.024.192-.092-.017-.123-.193-.155-.235-.043m9.08.034c0 .072.155.137.223.095.024-.015.033-.057.019-.093-.034-.086-.242-.088-.242-.002m.634 0c-.07.085-.032.206.065.206.1 0 .137-.13.059-.208-.059-.059-.073-.059-.124.003m-8.782.01c-.09.036-.066.141.038.174.113.036.199-.035.16-.133-.026-.07-.091-.084-.198-.041m-4.24.133c.103.066.34.19.525.277.396.186.35.277-.143.28-.26.001-.262 0-.248-.122.022-.185-.123-.19-.273-.01-.113.135-.134.143-.314.112l-.192-.032.013-.183c.02-.254-.058-.26-.29-.02-.25.256-.696.277-.642.03.048-.218-.143-.21-.357.012-.104.11-.4.088-.792-.056a4.955 4.955 0 0 0-.26-.09c-.006 0-.012-.029-.012-.063 0-.102.107-.117.85-.122.388-.002.929-.03 1.202-.06.717-.083.727-.082.933.047m4.959-.064c-.076.076-.067.157.021.19.115.045.227-.084.152-.174-.07-.084-.102-.087-.173-.016m5.779.011c-.035.092.017.16.12.16.064 0 .088-.03.088-.112 0-.127-.164-.164-.208-.048m-7.817.024c-.06.038-.058.052.008.118.093.094.218.053.218-.07 0-.099-.109-.122-.226-.048m6.447.024c-.045.054-.045.081 0 .135.11.133.26.03.197-.135-.015-.037-.052-.068-.084-.068-.031 0-.082.03-.113.068m-6.845.035c-.039.047-.036.082.01.145.08.111.22.058.2-.078-.017-.118-.136-.156-.21-.067m3.975.013c-.015.04.001.1.037.136.086.086.248-.02.204-.133-.036-.094-.206-.096-.241-.003m-1.904.036c-.075.09-.011.216.102.2.11-.016.156-.165.067-.222-.084-.053-.11-.05-.17.022m5.316.088c0 .12.086.18.178.123.088-.055.036-.203-.077-.22-.081-.011-.101.008-.101.097m1.233-.037c-.04.104.02.211.108.195.123-.024.135-.263.013-.263-.052 0-.106.03-.12.068m-3.85.09c-.049.06-.048.084.008.14.091.09.227.033.21-.089-.017-.118-.138-.146-.217-.05m1.337-.011c-.1.072-.055.213.067.213.113 0 .16-.124.077-.207-.053-.053-.079-.054-.144-.006m5.533.01c.057.043.146.056.27.04.134-.018.275.007.502.088 1.003.36 1.47.449 2.69.509.672.033.766.057.671.172-.068.082-.233.093-.305.021-.079-.079-.21-.027-.239.095-.038.161-.156.162-.3 0-.161-.181-.315-.172-.294.018.027.256-.199.254-.414-.004-.187-.224-.373-.202-.354.042.02.256-.354.219-.412-.041-.072-.328-.345-.429-.345-.128 0 .303-.368.26-.492-.058-.132-.338-.425-.44-.345-.12.032.127-.054.195-.2.158-.084-.022-.118-.067-.137-.185-.06-.363-.313-.509-.313-.181 0 .295-.168.294-.319-.003-.1-.197-.186-.22-.286-.077-.06.086-.084.092-.183.046-.184-.084-.138-.17.123-.227.13-.03.298-.092.372-.14.164-.105.201-.108.31-.025m-8.256.008c-.079.031-.07.193.012.224.109.042.209-.067.154-.169-.047-.088-.069-.095-.166-.055m-1.74.078c-.012.035 0 .096.03.137.072.098.241-.01.197-.126-.035-.09-.193-.098-.226-.011m3.801.05c0 .121.12.156.213.062.076-.077.017-.175-.105-.175-.085 0-.108.024-.108.113m-2.959 0c-.015.04-.007.094.018.12.074.073.214.024.214-.076 0-.115-.19-.151-.232-.045m4.067.004c-.09.09-.04.2.092.2.084 0 .108-.025.108-.108 0-.133-.11-.183-.2-.092m2.425-.004c-.015.041-.007.095.018.12.074.074.214.025.214-.075 0-.115-.19-.151-.232-.045m-21.156.341c.282.2.574.4.649.445l.57.336c.643.38 1.019.799 1.258 1.404.29.732.612 1.057 1.392 1.4 1.24.546 1.819.927 2.795 1.842.675.632 1 .77 2.033.864 1.72.155 2.11.284 3.079 1.02.476.361.765.525 1.485.845.118.052.255.095.305.095.093 0 .125.109.045.158-.025.015-.045.065-.045.11 0 .345-.956.01-1.87-.654-1.028-.747-1.476-.906-2.964-1.056-1.28-.13-1.864-.398-2.755-1.264-.75-.73-1.126-.967-2.532-1.601-.668-.301-1.014-.648-1.353-1.353-.406-.845-.623-1.12-1.27-1.608-.648-.488-1.524-1.346-1.375-1.346.022 0 .271.164.553.363m16.473-.271c-.046.074.091.197.181.162a.1.1 0 0 0 .06-.107c-.018-.092-.194-.132-.241-.055m2.665-.008c-.042.068.09.203.17.173.121-.047.093-.212-.036-.212-.061 0-.121.017-.134.039m1.295.032c-.047.123.104.236.195.145.092-.092.05-.216-.074-.216-.051 0-.106.032-.12.071m-6.18.05c-.115.045-.067.24.059.24.099 0 .113-.018.101-.12-.014-.125-.062-.16-.16-.12m1.8.048c-.055.106-.02.192.08.192.125 0 .185-.099.117-.192-.073-.1-.146-.1-.198 0m1.9.016c-.078.078-.019.176.107.176.089 0 .108-.02.096-.101-.016-.114-.125-.154-.203-.075m2.896.011c-.105.077-.064.21.065.21.119 0 .168-.122.083-.207-.054-.055-.077-.055-.148-.003m-3.67.042c-.095.094-.06.213.061.213.089 0 .113-.023.113-.108 0-.122-.099-.181-.175-.105m2.436-.018c-.1.064-.043.209.083.209.073 0 .117-.03.128-.085.014-.073-.056-.162-.128-.162a.257.257 0 0 0-.083.038m11.139-.01c-.203.082-.167.185.335.944.513.776.608.865.744.696.098-.12.123-.072-.504-1.005-.424-.633-.465-.678-.575-.634m-16.959.124c-.046.056-.043.082.017.142.097.097.216.048.198-.082-.018-.121-.136-.155-.215-.06m4.559.037c.01.067.045.102.104.102.06 0 .096-.035.105-.102.012-.083-.007-.101-.105-.101-.097 0-.116.018-.104.101m-3.721.011c-.035.09.011.203.083.203.031 0 .082-.03.113-.067.064-.077-.007-.203-.113-.203-.032 0-.07.03-.083.067m.95.006c-.054.054-.036.186.028.21a.114.114 0 0 0 .158-.13c-.017-.087-.13-.136-.187-.08m3.215.053c0 .106.084.189.163.159.117-.045.075-.24-.05-.24-.08 0-.113.025-.113.081m-14.9.026c.093.068.032.313-.09.36-.22.084-.386-.193-.205-.34.122-.098.182-.102.294-.02m12.488.029c-.048.078.026.23.106.216.117-.023.129-.262.013-.262-.05 0-.103.02-.119.046m2.85.027c-.087.087-.03.203.092.19.09-.01.124-.04.124-.105 0-.09-.15-.15-.216-.085m-2.35.077c-.104.076-.067.21.058.21.11 0 .152-.103.081-.2-.046-.063-.065-.064-.14-.01m4.828.054c.092.239-.664.503-1.103.385-.392-.106-.304-.259.173-.3.186-.015.418-.056.518-.089.24-.08.38-.08.412.004m-5.694.137c-.015.04-.006.093.02.12.07.07.19.008.19-.099 0-.11-.17-.128-.21-.02m2.472.03c.01.067.045.102.105.102.059 0 .095-.035.104-.102.012-.083-.007-.101-.104-.101-.098 0-.117.018-.105.101m1.135-.034c-.015.04-.007.095.018.12.074.074.214.024.214-.075 0-.115-.19-.152-.232-.045m9.654.073c-.173.074-.518.204-.766.289-.248.084-.654.226-.902.314-.649.232-1.998.613-2.874.811l-.349.08-.319-.265c-.454-.377-.477-.39-.605-.359-.187.047-.151.225.078.389.459.328.459.328-.235.43-.65.094-.723.121-.723.266 0 .17.153.184.757.072.754-.139.75-.139.768.009.017.152.011.155-.568.23-.553.07-.599.101-.48.325.204.384.643.45.649.098.002-.098.194-.178.38-.16.132.014.14.028.218.371.094.416.135.478.31.478.165 0 .173-.161.04-.857-.131-.692-.13-.699.115-.768.246-.069.242-.072.426.374.187.453.41.552.841.371.268-.112.254-.121.442.304.054.124.101.17.175.17.225 0 .263-.178.124-.584-.315-.923-.326-1.008-.143-1.084.272-.112.256-.135.668.923.175.45.176.451.33.451.228 0 .223-.14-.029-.876-.242-.71-.241-.726.056-.832 1.406-.503 1.517-.534 1.58-.45.142.19-.098.375-.488.376-1.06.003-.974 1.137.091 1.205.588.038.684-.174.147-.324-.413-.117-.508-.166-.555-.289-.094-.247.308-.376.51-.163.144.152.297.148.36-.01.16-.4.169-.397.44.103.188.35.277.428.384.34.119-.1.083-.245-.2-.82-.307-.626-.311-.643-.155-.746.084-.054.112-.107.102-.192-.02-.168-.209-.168-.6 0m-11.574 1.13.012 1.156-.14.117c-.214.18-.574.14-.729-.083-.118-.17.005-.806.189-.972.096-.087.149-.227.272-.723.18-.722.164-.684.282-.667l.102.014.012 1.157Zm.408-.966c.025.118.07.367.1.553.049.3.104.444.302.784.118.202.021.872-.143.985-.081.056-.27.038-.376-.036-.146-.102-.16-2.5-.014-2.5.065 0 .096.05.13.214m.85-.184c-.07.07-.028.24.058.24.11 0 .152-.065.116-.18-.029-.089-.115-.119-.173-.06m-4.155.097c.163.03.18.045.18.167v.134l-.666.013c-.787.015-1.016-.071-.79-.297.06-.06.965-.072 1.276-.017m.777.014c-.1.056-.1.16 0 .212.106.054.192.018.192-.08 0-.119-.097-.185-.192-.132m.759.025c-.049.126.09.232.183.14.04-.04.061-.106.046-.145-.036-.094-.193-.091-.23.005m3.026.044c-.058.058-.03.199.044.227.101.04.214-.113.145-.197-.054-.064-.141-.078-.19-.03m-2.703.12a.115.115 0 0 0 .132.159c.137-.026.14-.219.002-.219-.06 0-.121.028-.134.06m3.087.065c-.088.171.096.27.222.119.05-.062.047-.082-.026-.136-.112-.082-.147-.079-.196.017m-1.085.028c-.069.082-.016.208.088.208.105 0 .146-.067.11-.18-.033-.105-.124-.117-.198-.028m3.038.443v.483l-.266.239c-.416.374-1.23.66-1.943.683l-.18.006.016-.36c.018-.42.045-.463.508-.77.283-.19.317-.2.617-.2.413 0 .583-.134.364-.287-.123-.086-.073-.163.11-.168.078-.002.234-.03.346-.062a1.23 1.23 0 0 1 .316-.053l.112.006v.483Zm-5.64-.353c-.038.101.018.163.146.163.092 0 .11-.019.099-.101-.017-.12-.203-.168-.244-.062m3.227.118c-.078.05-.01.203.09.203.101 0 .17-.153.09-.203a.294.294 0 0 0-.09-.043.294.294 0 0 0-.09.043m-4.468.152c.056.068-.086.147-.31.173-.237.028-.148.22.135.292.26.067.488.17 1.014.455l.316.172v.493l-.541.013c-1.46.037-1.823-.19-1.84-1.149l-.008-.443.518-.025c.285-.013.551-.029.592-.033a.158.158 0 0 1 .124.052m.712-.031c-.075.074-.027.195.077.195.111 0 .165-.07.13-.17-.02-.059-.157-.076-.207-.025m1.018.044c-.11.045-.067.241.051.241.134 0 .182-.11.09-.201a.329.329 0 0 0-.077-.066 6.062 6.062 0 0 1-.064.026m2.38.014c-.086.053-.037.205.066.205.057 0 .094-.035.103-.096.015-.104-.078-.165-.169-.109m-3.013.238c-.066.08.002.183.108.162.104-.02.115-.188.013-.208a.141.141 0 0 0-.121.046m-9.214.083c.378.132.42.718.05.718-.311 0-.54-.412-.358-.643.11-.14.115-.142.308-.075m2.074.256c.184.04.153.462-.034.462-.128 0-.364-.136-.364-.208 0-.145.138-.342.217-.309.041.018.123.043.18.055m10.227.18c.142.34.015 1.094-.184 1.094-.158 0-.171-.049-.094-.344a2.85 2.85 0 0 0 .068-.59c0-.382.089-.45.21-.16m-2.461 0c.001.044 0 .231-.002.417-.002.186.014.402.037.48.066.221-.014.294-.152.138-.2-.227-.163-1.114.047-1.114.037 0 .068.036.07.08m-3.703.037c-.08.095 0 .221.138.221s.217-.126.138-.221a.21.21 0 0 0-.138-.072.21.21 0 0 0-.138.072m13.257.246c.086.26.03.336-.251.336h-.22l-.084-.24c-.098-.278-.1-.274.182-.349.249-.065.274-.048.373.253m-4.837.415c.024.031.079.148.122.26.16.42.848 1.563 1.166 1.939.074.087.279.31.455.496 1.125 1.184 1.088 1.113.747 1.405-.285.245-.275.242-.399.11l-.103-.11.184-.122c.327-.216.218-.336-.225-.248-.402.079-.553-.101-.194-.23.329-.12.07-.311-.32-.238-.299.056-.413-.19-.135-.29.217-.079.207-.194-.021-.266-.138-.043-.205-.044-.295-.003-.1.046-.13.04-.21-.04-.113-.113-.085-.173.097-.21.307-.06.12-.3-.235-.3-.32 0-.404-.143-.148-.25.288-.12.154-.31-.22-.316-.307-.005-.37-.262-.066-.266.255-.004.2-.245-.082-.363-.167-.07-.21-.254-.077-.329.102-.057.046-.197-.118-.294-.158-.094-.236-.22-.198-.32.032-.085.214-.095.275-.015m-.587.274c.27.27.357 1.089.153 1.444-.48.839-1.176.393-1.176-.753 0-.635-.002-.632.654-.768.123-.026.304.012.369.077m8.194.126a3.494 3.494 0 0 0-.426.33c-.551.513-1.25.821-1.751.774-1.234-.116-1.28-.11-1.648.239-.53.502-.974.585-.974.182 0-.194.106-.249.265-.136.194.138.412.037.348-.162-.098-.3-.54-.358-.793-.105-.51.511.068 1.177.785.904.133-.05.252-.019.252.068 0 .033.065.106.145.163.346.247.846.022.846-.38 0-.232-.292-.31-.34-.09-.049.221-.06.237-.175.237-.23 0-.252-.245-.044-.492.15-.178.413-.21.984-.118.868.14 1.468-.084 2.515-.935.44-.357.551-.506.435-.58-.104-.066-.193-.044-.424.101m-10.946.017a.916.916 0 0 0 .287.068c.068 0 .238.052.377.116.29.133.377.12.568-.084.151-.162.21-.107.17.16a2.66 2.66 0 0 0 .021.5c.05.418.024.467-.34.61-.768.3-1.777.316-2.465.038l-.383-.156-.034-.4-.045-.536c-.013-.165.112-.201.322-.093.194.1.31.088.437-.05.098-.106.143-.12.37-.113a1.06 1.06 0 0 0 .393-.057 3.77 3.77 0 0 1 .148-.067c.007-.002.085.027.174.064m-12.217.06c-.127.141-.085.219.252.463.18.13.474.356.654.503.708.576 1.38.767 2.537.721.545-.02.632-.014.815.067.32.142.4.423.161.573-.112.071-.229-.022-.256-.204-.048-.326-.358-.222-.36.12-.001.437.635.603.997.261.097-.091.17-.113.406-.122.508-.02.801-.331.674-.718-.09-.272-.568-.4-.794-.211-.173.143.02.4.242.323.22-.076.303.057.134.215-.21.195-.374.12-.744-.347-.244-.307-.725-.398-1.46-.276-.318.052-.399.044-1.033-.108-.425-.102-.847-.345-1.24-.714-.584-.55-.849-.696-.985-.546m8.671.056c0 .077-.083.212-.209.338-.087.087-.104.13-.067.168.103.103.058.254-.095.318-.292.122-.335.32-.064.292.12-.012.145.003.157.09.022.154-.075.246-.236.222-.206-.03-.432.046-.432.145 0 .086.083.138.223.138.156 0 .191.111.07.224-.102.097-.123.1-.307.05-.413-.117-.642.032-.315.204.288.152.147.475-.149.34-.26-.119-.648-.01-.518.147.033.04.106.072.162.072.173 0 .217.106.093.223-.107.1-.112.1-.359.029-.39-.114-.61.071-.275.23.18.087.188.109.079.205-.2.173-.252.173-.521-.002-.317-.206-.326-.167.11-.51.808-.633 1.985-1.946 2.265-2.525.165-.341.388-.57.388-.398m1.082.031c.597.3.288 1.77-.372 1.77-.583 0-.79-1.67-.225-1.818a.99.99 0 0 1 .597.048m5.59 1.583c0 .674-.94.928-1.349.364-.179-.247-.175-.523.005-.343.362.36.784.364 1.129.01.106-.11.198-.201.204-.202a.65.65 0 0 1 .012.171m-4.531.04.45.168.7-.002c.637-.003.728-.014 1.036-.124.389-.138.489-.148.525-.052.092.24-.652.473-1.507.473-.936 0-2.046-.382-1.716-.591l.061-.04.45.168m-1.884.305c.325.196.575.21.858.048.22-.126.273-.088.17.12-.267.54-.971.521-1.239-.032-.163-.336-.142-.35.211-.136m7.104.292c.126.187.28.403.345.481.324.395.547.65.792.91.15.158.27.32.27.358 0 .116-.64.484-.722.416-.11-.092-.075-.162.114-.225.375-.123.196-.318-.209-.228-.378.085-.556-.12-.196-.228.333-.1.184-.294-.193-.25-.252.03-.315.009-.362-.117-.023-.065.01-.09.173-.133.358-.096.177-.34-.207-.278-.207.033-.313-.032-.313-.192 0-.095.02-.107.182-.107.127 0 .19-.022.21-.074.038-.1-.102-.197-.285-.197-.207 0-.222-.06-.084-.342.144-.296.152-.293.485.206m-7.64-.007c.01.062-.03.136-.108.203-.145.125-.114.211.075.211.1 0 .132.021.132.085 0 .139-.118.208-.251.147-.313-.142-.593.014-.317.177.174.103.183.12.12.22-.034.054-.079.056-.273.011-.368-.085-.563.088-.27.24.218.113.108.312-.117.21-.16-.074-.36-.065-.446.02-.087.087-.032.175.136.217.126.031.144.123.042.208-.083.068-.179.026-.445-.197l-.175-.148.22-.206c.122-.114.343-.307.491-.43.311-.257.902-.843 1.003-.995.082-.122.164-.11.184.027m2.442.033c.8.226 1.712.22 2.413-.016l.405-.136.129.12c.238.223.235.492-.008.581-.042.016-.15.077-.24.136-.736.481-2.362.453-3.544-.061-.217-.095-.238-.157-.086-.257a1.28 1.28 0 0 0 .254-.3c.108-.169.169-.224.222-.204.04.016.245.077.455.137m3.96.412c.03.218-.381.305-.49.102-.085-.16-.007-.229.244-.214.198.011.233.027.245.112m-5.357.138c-.001.18-.225.288-.4.194-.212-.113-.123-.273.153-.273.206 0 .248.013.247.08m5.908.24c.17.309.396.626.826 1.161.336.417.316.451-.271.464-.326.007-.428-.006-.485-.062-.123-.123-.088-.183.089-.155.201.033.29 0 .29-.107 0-.123-.161-.191-.518-.22-.422-.034-.502-.183-.097-.183.404 0 .379-.229-.034-.315-.148-.03-.255-.08-.272-.123-.043-.11.035-.158.173-.105.185.07.215.059.2-.077-.011-.089-.057-.143-.16-.192-.165-.077-.18-.135-.074-.296.101-.155.15-.125.333.21m-1.264.06c0 .225-.485.51-1.162.682-.954.242-2.335.094-3.065-.329-.416-.24-.364-.49.06-.287 1.089.517 2.676.546 3.649.064a2.95 2.95 0 0 0 .358-.198c.08-.076.16-.042.16.068m-5.274.07c0 .053-.054.117-.134.158-.27.14-.268.359.003.332.263-.026.208.14-.072.221-.497.144-.52.328-.042.328.333 0 .34.002.31.101-.05.164-.102.203-.314.235-.11.016-.212.049-.226.072-.035.057-.279.055-.314-.003-.016-.024-.076-.045-.135-.045-.06 0-.12-.02-.136-.045-.015-.025-.063-.045-.106-.045-.32 0-.268-.097.404-.758.648-.636.762-.719.762-.55m5.86.086c0 .126-.272.201-.34.093-.06-.098.022-.179.181-.179.126 0 .16.018.16.086m-5.347.064c.045.032.074.098.065.146-.024.122-.323.127-.346.006-.038-.196.111-.277.281-.152m5.423.33c.031.082-.092.197-.212.197s-.243-.115-.212-.197c.02-.052.084-.074.212-.074s.192.022.212.074m-.641.104c.155.3.011.454-.425.454-.639 0-1.662.667-1.672 1.09-.005.23-.125.215-.244-.03-.256-.524-1.31-.893-1.849-.647-.207.095-.407-.243-.283-.48a.515.515 0 0 0 .043-.213c-.005-.17.039-.185.267-.085.176.077.483.162 1.133.314.695.163 2.3-.097 2.783-.45.15-.11.167-.108.247.047m-4.686.14c.044.071-.067.178-.185.178-.122 0-.166-.053-.128-.154.031-.08.266-.099.313-.024m5.29.215c.061.112-.006.2-.152.2-.068 0-.14-.027-.16-.06-.057-.091.037-.222.16-.222.06 0 .129.037.153.082m-5.316.36c-.001.129-.071.198-.185.182-.136-.019-.175-.209-.06-.293.096-.07.246-.003.245.11m4.215.267c-.045.094-.091.27-.103.389-.021.22-.19.386-.776.758-.365.233-.67.071-.501-.266l.13-.258c.28-.552 1.506-1.164 1.25-.623m.856-.185a.66.66 0 0 0 .297-.028c.208-.068.24-.05.503.307.155.21.174.264.162.451l-.014.213-.18-.27c-.28-.422-.365-.439-.48-.092-.094.284-.138.296-.224.061-.115-.315-.182-.32-.466-.04-.136.135-.262.231-.28.214-.045-.046.158-.615.272-.763.097-.125.107-.127.41-.053m-5.499.374c.1.026.288.035.42.02.262-.03.374.036.547.323.226.373.117.455-.207.156-.23-.212-.26-.203-.403.12-.135.305-.156.303-.357-.028-.198-.326-.175-.324-.518-.037-.202.169-.288.217-.314.175-.075-.12.084-.505.285-.694.143-.134.166-.135.547-.035m1.955.05c.494.191.638.37.638.792v.2h-.175c-.166 0-.609-.249-.936-.526-.108-.091-.287-.423-.287-.532 0-.117.367-.085.76.067m-.013.325c-.098.14-.089.202.042.287.206.135.411-.076.292-.3-.064-.118-.247-.111-.334.013m1.643.012c-.126.152.054.384.241.312.188-.072.12-.38-.084-.38a.23.23 0 0 0-.157.068"/>
</svg>
