---
version: "3.1.3"
---
<svg>
  <path d="M25.767 48.085c5.807-.397 11.33-2.92 15.49-7.081 4.088-4.082 6.465-9.385 6.881-15.339.093-1.303.005-3.352-.215-4.91-.569-4.063-2.362-8.19-4.955-11.428-2.063-2.573-4.802-4.808-7.713-6.298C32.735 1.745 30.26.966 27.507.6c-1.495-.201-3.318-.275-4.7-.196a24.1 24.1 0 0 0-12.08 4.033c-3.23 2.156-5.861 5.077-7.753 8.586-3.317 6.15-3.704 13.49-1.063 20.16l.028.071c.342.845 1.06 2.272 1.58 3.14a24.2 24.2 0 0 0 7.502 7.782C14.315 46.33 17.807 47.571 21.78 48l.12.013c.58.061 1.687.099 2.628.101h.292c.373-.003.706-.012.947-.028m-4.386-1.176c-3.308-.446-6.37-1.5-9.12-3.15a23.3 23.3 0 0 1-6.518-5.891c-2.122-2.833-3.636-6.366-4.204-9.797l-.019-.113c-.228-1.416-.287-2.153-.29-3.644v-.12c-.005-1.984.147-3.336.578-5.189.838-3.607 2.69-7.174 5.155-9.938A22.9 22.9 0 0 1 21.41 1.554c1.417-.171 3.813-.166 5.283 0 3.264.373 6.067 1.27 8.831 2.813 2.676 1.495 5.244 3.754 7.057 6.204 2.308 3.112 3.65 6.312 4.308 10.243.367 2.195.328 5.077-.098 7.424a22.85 22.85 0 0 1-8.748 14.207c-4.739 3.567-10.928 5.229-16.662 4.464m8.057-38.17.2.445.306-.039c.09-.011.167-.023.21-.03l.013-.003.025-.006c.009-.004-.07-.192-.178-.437l-.072-.16c-.13-.29-.22-.536-.196-.555a1 1 0 0 1 .249-.092l.04-.01c.211-.054.495-.172.56-.226.009-.01-.163-.343-.26-.495a3 3 0 0 0-.349.088l-.048.013c-.384.1-.578.1-.79.002-.274-.13-.374-.407-.265-.729l.006-.016c.112-.328.49-.402 1.244-.24l.051.011c.206.043.304.045.322.013.019-.028.068-.22.115-.437l.007-.033c.05-.225.113-.421.143-.436.034-.01.176.024.323.078l.03.012c.385.146.465.113.526-.2l.037-.194-.828-.265a21.4 21.4 0 0 0-4.18-.892l-.05-.005c-.832-.084-3.071-.126-3.744-.068l-.106.01a4 4 0 0 0-.447.059c-.038.018-.062.101-.064.239v.246l.76-.03.107-.004c.389-.014.659-.008.677.019.013.022.03.182.037.367l.003.103c.007.296-.01.372-.084.456-.128.142-.314.128-.476-.024l-.137-.133-.245.157-.079.053c-.102.07-.19.135-.21.163-.034.044.098.235.465.671l.088.107.122.149.107.132c.197.244.388.484.492.627l.021.03c.167.226.299.36.332.342l.024-.014c.198-.12.446-.321.446-.368 0-.027-.177-.264-.403-.541l-.197-.24a6 6 0 0 1-.33-.425c0-.018.071-.042.16-.057l.01-.001a.8.8 0 0 0 .55-.393l.006-.013c.058-.122.066-.247.038-.673l-.03-.534.49.04c.21.018.374.035.383.044.004.032-.016.665-.04 1.342l-.028.743c-.012.314-.024.588-.032.752l-.005.088c-.007.16.007.182.125.204l.009.002c.078.015.235.03.348.03h.206l.03-.48.002-.038c.015-.219.034-.658.05-1.104l.002-.088.004-.144.005-.17.007-.197c.02-.497.05-.883.071-.896.01-.007.06-.01.134-.01h.023c.095 0 .222.004.358.015l.465.039-.024.225-.018.137c-.02.151-.049.37-.07.56l-.007.05c-.067.533-.012.763.24 1.015l.012.012c.177.178.551.332.82.338h.034c.103.003.122.033.145.201.034.24.237.476.545.628l.23.112-.148.09-.074.043-.528.299-.475.264.205.226.206.22.505-.304.505-.308zm-17.699 2.506.043-.019c.279-.125.286-.2.053-.424-.113-.103-.201-.216-.201-.245 0-.06.19-.22.563-.461l.245-.162.486.588.163.199c.191.232.34.408.351.424.02.02.137-.054.27-.172l.23-.206-.524-.686-.159-.204-.748-.972-.382-.485.304-.201.063-.043.094-.062.274-.18.127-.083.26.422.03.048c.422.692.675.903 1.058.903.314 0 .549-.084.799-.27l.077-.058.066-.049a1 1 0 0 1 .097-.064c.015 0 .113.161.22.352l.05.09c.09.162.175.304.195.337.035.054.098.034.314-.098l.274-.162-.268-.487c-.672-1.221-1.137-2.121-1.109-2.15.02-.02.154-.091.322-.176l.029-.014.09-.045.407-.196.04.113.59 1.403c.215.508.42.99.478 1.12.049.118.083.153.127.118.034-.024.172-.083.314-.127l.255-.083-.16-.37c-.071-.17-.246-.587-.429-1.03l-.094-.231-.214-.525c-.258-.636-.254-.664-.168-.708l.006-.003c.133-.07.603-.244 1.115-.423l.16-.055.115-.04.168-.056c.284-.095.556-.183.765-.245l.75-.22.044.181.045.177c.059.237.051.262-.061.283l-.067.01c-.25.04-.49.192-.55.339l-.043.117-.187-.093a.9.9 0 0 0-.735-.02c-.235.099-.348.202-.456.417-.343.691.07 1.53.966 1.96l.05.023c.097.043.178.076.195.076.04 0 .377-.49.348-.51l-.169-.077-.1-.046c-.563-.257-.905-.87-.68-1.21l.008-.01c.059-.088.118-.108.255-.098.206.015.372.216.456.559l.053.2.351-.087c.207-.053.23-.076.203-.162l-.018-.076a10 10 0 0 1-.065-.287l-.01-.045c-.043-.194-.033-.225.044-.303a.7.7 0 0 1 .23-.122l.022-.005c.1-.022.119.002.176.192l.01.04c.036.122.104.391.172.676l.031.131.039.165c.082.343.16.625.173.648.03.03.5-.083.603-.142.013-.01.001-.122-.032-.253l-.008-.026c-.132-.505-.607-2.617-.607-2.715 0-.08.04-.105.207-.137l.054-.01c.182-.035.204-.055.218-.187l.001-.01c.02-.176-.059-.357-.152-.357h-.005l-.045.01-.065.014c-.158.037-.46.114-.801.202l-.25.065c-1.394.36-2.253.65-3.401 1.14-1.382.588-2.936 1.44-4.014 2.2l-.485.343-.21-.103-.027-.011a5 5 0 0 0-.542-.185l-.062-.015c-.081-.02-.176-.042-.277-.064l-.092-.02-.09-.019c-.331-.07-.659-.13-.665-.117l-.06.126-.077.158-.128.275.608.102c.478.081.855.163 1.015.215l.014.005.018.006q.05.018.05.03a5 5 0 0 1-.455.382l-.048.038c-.238.19-.555.46-.742.63l-.381.351.157.21.151.212.261-.224.214-.178.453-.37.19-.155.617-.5.133.157.09.113.04.05c.143.186.26.362.248.38l-.001.001c-.01.01-.203.14-.438.304l-.057.04c-.51.352-.774.627-.774.808 0 .147.357.53.563.598.138.043.202.04.375-.037M28.61 5.78v-.002a16 16 0 0 1-.172-.339l-.014-.027a3 3 0 0 0-.377-.568L28 4.789a1 1 0 0 1-.144-.186c0-.014.117.005.26.04l.182.044c.16.039.392.095.64.153l.257.061.925.217-.035.181-.02.12c-.038.207-.068.216-.413.2l-.21-.009c-.38-.015-.468-.002-.626.081l-.064.032c-.078.038-.138.064-.142.057m9.67 5.655c.323-.618-.045-1.299-.78-1.436l-.007-.001c-.06-.013-.025-.076.154-.293l.058-.068c.103-.12.19-.211.202-.211.02-.005.313.245.656.544l.401.356c.482.427.438.356.6.163l.16-.191-.112-.128-.01-.01a27 27 0 0 0-1.165-1.04l-.14-.118a31 31 0 0 0-.947-.784l-.075-.058c-.3-.232-.73-.547-1.018-.745l-.6-.41-.151-.642-.025-.102-.018-.075-.036-.142c-.185-.73-.39-1.393-.441-1.406a.3.3 0 0 0-.122.014l-.041.016-.168.067-.188.074.083.162c.046.088.155.385.259.687l.055.164c.103.309.187.583.176.595-.01.013-.13-.149-.28-.362l-.082-.117a5 5 0 0 0-.354-.462l-.02-.019c-.079-.069-.092-.06-.21.053l-.127.127.122.162.077.103c.264.357.226.341-.228.101l-.079-.042c-.23-.121-.44-.216-.48-.216-.069 0-.28.319-.28.412 0 .013.144.096.335.194l.115.058c.476.243 1.399.789 1.437.855.013.02-.179.377-.375.721l-.088.152c-.157.27-.298.5-.316.5-.034 0-.186-.892-.157-.917.015-.015.083.01.147.054l.02.013c.104.065.114.053.21-.14l.103-.201-.112-.088c-.378-.295-1.015-.324-1.377-.064a.93.93 0 0 0-.432.808c0 .582.403 1.04.977 1.106l.288.031-.172.26-.027.042c-.102.162-.13.237-.098.278l.003.003c.068.084.49.314.514.285l.006-.007c.035-.05.2-.313.4-.637l.353-.575c.203-.333.39-.643.476-.79l.25-.437c.02-.025.425.258.845.574l.136.102c.425.323.827.65.827.692 0 .021-.19.257-.44.547l-.165.191c-.541.623-.628.655-.906.382l-.018-.018c-.156-.157-.171-.196-.147-.358.035-.196.226-.401.373-.401.044 0 .171.063.284.147l.196.147.132-.187.026-.037c.144-.22.124-.285-.09-.438-.23-.157-.676-.216-.95-.127-.373.122-.662.627-.608 1.048.049.348.436.759.733.77h.012c.116 0 .092.083-.09.292l-.069.078c-.18.206-.161.227.121.452l.2.158.52-.588.167-.188c.306-.341.369-.392.501-.399h.011l.06-.001c.437 0 .677.418.401.702l-.009.008c-.142.147-.274.152-.549.03l-.2-.093-.103.24-.098.245.147.088c.553.338 1.186.216 1.45-.284M27.765 6.122c-.122-.133-.142-.265-.088-.647l.04-.294.097.122.01.013c.059.08.183.293.285.497l.024.05q.165.337.118.386c-.074.073-.368-.005-.486-.127m8.64.137c.314-.309-.059-.804-.45-.603a.43.43 0 0 0-.167.191c-.157.382.328.706.617.412M14.54 8.587c-.24 0-.348-.113-.691-.701l-.25-.427.108-.068.026-.017c.059-.038.152-.095.252-.155l.144-.086c.15-.089.279-.164.283-.164l.001.001c.009.01.062.103.137.239l.194.35c.153.281.271.551.271.616 0 .2-.245.412-.475.412m18.987.093-.012-.005c-.276-.126-.365-.618-.156-.839l.009-.009c.124-.13.263-.16.27-.07v.006c.004.128.097.799.127.882.029.101-.06.117-.238.035m4.03 9.953v-.118c0-.137-.112-.27-.234-.28l-.083-.005c-.217-.018-.283-.054-.852-.513l-.415-.336c-.36-.29-.67-.533-.699-.547-.03-.01-.465.059-.97.157l-.917.176-.426-.25-.04-.023c-.276-.155-.45-.221-.568-.221-.205 0-.798.19-1.308.421l-.034.016c-.187.085-.392.15-.466.15-.157 0-.534-.137-.534-.195 0-.043.835-.356 2.138-.806l1.117-.385c1.16-.401 1.106-.4 1.106-.5 0-.108-.112-.27-.186-.27h-.004c-.082.015-1.086.36-2.118.726l-.563.2c-.474.17-.918.33-1.241.451l-.103.038c-.453.168-.619.21-.844.208H29.3c-.245-.005-.357.024-.651.166l-.09.04a2 2 0 0 1-.327.132c-.067 0 1.145-.654 2.608-1.41l.549-.283c.63-.327 1.15-.621 1.189-.673v-.001c.07-.108-.014-.25-.156-.27-.058-.008-.386.137-.95.418l-.086.043c-.4.2-.907.462-1.51.781l-1.128.598c-.526.277-.903.474-1.165.605l-.111.055c-.264.13-.378.175-.392.161-.018-.018-.01-.04.01-.052l.005-.002q.017-.007.098-.061l.092-.062c.25-.168.706-.487 1.163-.811l.31-.222c.305-.218.588-.423.782-.569l.103-.077c.254-.19.663-.486 1.09-.79l.336-.24.437-.311c.463-.33.863-.629 1.06-.79l.027-.023a.4.4 0 0 0 .103-.102c.02-.098-.122-.274-.215-.274-.048 0-1.161.782-3.141 2.208l-1.575 1.137c-.685.493-.875.621-.909.624h-.001c-.085 0 .017-.118.428-.496l.166-.152c.14-.128.325-.301.527-.491l.373-.351.261-.248 1.354-1.288.267-.257.06-.055a8 8 0 0 0 .519-.518c.063-.103-.054-.26-.196-.26-.088 0-.22.088-.427.28l-1.447 1.372-.15.142-.375.355c-1.185 1.12-1.595 1.479-1.644 1.443-.025-.01-.005-.073.044-.137l.17-.213c.164-.208.426-.541.707-.895l.231-.295c.236-.302.502-.646.743-.957l.551-.715.632-.824.274-.36.063-.082c.285-.378.316-.483.201-.584l-.01-.008c-.164-.125-.282-.022-1.08 1.021l-.156.204-.613.796-.584.754c-.19.246-.369.474-.517.663l-.926 1.176c-.044.054-.073.06-.113.02-.044-.044-.029-.103.064-.245l.017-.027a130 130 0 0 0 1.452-2.627l.326-.6c.224-.416.396-.763.396-.799 0-.159-.27-.247-.372-.129l-.009.01c-.04.054-.259.446-.501.893l-.794 1.446-.878 1.549q-.106.186-.12.207l-.002.003c-.01.01-.044-.003-.08-.033l-.008-.006c-.058-.048-.054-.09.024-.299l.043-.116c.112-.305.425-1.17.77-2.132l.788-2.184c.059-.164.096-.266.105-.287l.01-.026c.078-.216.053-.289-.117-.34l-.044-.013a.6.6 0 0 0-.173-.033l-.005.013c-.054.143-.55 1.51-1.032 2.847l-.244.678-.238.662-.108.303a8 8 0 0 1-.244.637v.001c-.015.02-.06.015-.099-.005-.063-.04-.035-.268.424-2.967l.138-.808c.067-.404.089-.647.06-.704-.048-.093-.308-.118-.357-.034l-.001.003c-.023.055-.148.76-.296 1.648l-.168.998-.24 1.413-.03.142-.025.138c0 .009-.043.018-.098.02H24.4l.014-2.549.005-1.284v-.336c-.003-.822-.02-.94-.074-1.006l-.005-.006-.014-.014c-.098-.098-.245-.128-.308-.064-.02.014-.034 1.01-.035 2.229v.815c-.004 1.963-.028 2.214-.152 2.214-.054 0-.093-.014-.093-.039v-.004a98 98 0 0 0-.327-2.058l-.226-1.36a34 34 0 0 0-.157-.905c-.044-.069-.3-.054-.358.02-.04.044-.01.347.113 1.092l.037.229.056.348.098.614c.174 1.1.323 2.084.323 2.142 0 .034-.04.068-.083.078-.113.02-.304-.495-1.191-3.205l-.647-1.96-.127.034-.03.007c-.26.061-.297.04.213 1.569l.396 1.178c.357 1.063.678 2.001.769 2.26l.04.112c.061.175.062.219.012.27l-.007.008c-.057.052-.15-.088-.599-.896l-.136-.248c-.114-.206-.244-.443-.376-.686l-.29-.53c-.123-.228-.24-.444-.337-.627l-.073-.137a16 16 0 0 0-.517-.906l-.013-.019-.01-.014a.1.1 0 0 0-.027-.032.5.5 0 0 0-.177.01c-.149.038-.166.223-.037.438l.008.012c.046.08.365.668.72 1.333l.245.462.107.201.196.365c.226.418.43.792.545.986l.073.13c.102.181.168.308.204.395l.006.016c.044.112.03.15-.028.15-.055 0-.936-1.114-2.62-3.32l-.421-.553c-.337-.44-.636-.802-.674-.816-.108-.045-.308.068-.308.176 0 .09 2.074 2.855 3.102 4.139l.135.168c.4.5.494.647.409.647-.044 0-.318-.25-1.883-1.738l-1.15-1.095c-1.041-.99-.918-.853-1.03-.803-.154.072-.161.248-.019.407l.017.018c.071.075.31.305.541.521l.175.163c.147.138.344.324.561.531l.372.354 1.425 1.363.455.433c.16.155.275.292.262.31v.002c-.016.02-.648-.417-1.398-.96l-.693-.507c-2.514-1.835-3.424-2.478-3.492-2.478a.24.24 0 0 0-.142.069l-.008.01c-.133.178-.014.282 1.623 1.472l2.05 1.488c1 .725 1.272.92 1.468 1.053l.064.044.037.025.05.034c.146.103.248.188.24.2l-.003.003c-.032.025-.166-.046-2.88-1.463l-.377-.197c-1.11-.578-2-1.023-2.048-1.023-.128 0-.216.093-.216.22 0 .096.708.497 2.758 1.542l.62.316c.392.2.69.365.69.382 0 .02-.103-.01-.23-.068a.85.85 0 0 0-.5-.074l-.031.004c-.216.021-.332-.012-.983-.254l-.571-.212c-1.956-.725-3.26-1.173-3.355-1.145-.113.024-.196.22-.142.309.014.024.264.132.553.23l.348.123.666.24 1.01.364c.913.331 1.753.639 1.78.655.068.04-.349.21-.52.21-.078 0-.438-.115-.821-.266l-.08-.032-.047-.018c-.426-.167-.79-.277-.9-.281-.147 0-.284.059-.607.255l-.417.254-.823-.156-.887-.175-.04-.007c-.073-.014-.215.069-.49.29l-.264.213c-.824.665-1.09.85-1.226.855h-.004c-.265 0-.436.132-.436.333v.108l5.822-.01 5.817-.015.024-.686.008-.192c.02-.464.042-.552.168-.817a1.64 1.64 0 0 1 .829-.832l.062-.03c.242-.115.35-.133.673-.133.524 0 .906.166 1.25.544l.025.028c.328.369.424.665.458 1.427l.031.691 5.797.015zm-22.939 4.072.172-.142-.304-.328-.033-.036c-.151-.168-.27-.318-.27-.337 0-.108.19-.137.372-.063a1 1 0 0 0 .445.06l.31-.021v.96h.49v-2.156h1.714v.377l-.362.025c-.41.029-.624.128-.79.369l-.009.013c-.217.314-.13.752.225 1.187l.177.215.186-.133.021-.015c.102-.076.143-.133.107-.151a1.5 1.5 0 0 1-.197-.26c-.163-.26-.185-.523-.057-.69l.008-.01c.079-.099.138-.114.378-.118h.289l.03 1.347h.485v-2.156h.588v2.156h.49v-2.156h.397l-.015-.186-.015-.182-.255-.014-.037-.003c-.207-.015-.25-.048-.649-.424l-.039-.038c-.221-.212-.428-.373-.465-.373a.5.5 0 0 0-.17.048l-.012.006c-.064.03-.113.073-.113.103 0 .058.633.67.691.67.025 0 .045.016.045.035 0 .018-.753.028-1.83.028h-.342l-.965-.003-3.136-.01v.193c.001.133.015.15.137.15h.157v.848l-.343-.025-.09-.007a1.3 1.3 0 0 1-.277-.04v-.002c-.015-.01.019-.108.073-.21.122-.245.122-.397 0-.603q-.181-.297-.679-.304h-.022c-.24 0-.573.073-.573.127 0 .05.152.314.18.314h.006a2 2 0 0 0 .194-.05l.012-.004c.235-.072.423-.026.49.113l.005.01c.093.196-.015.313-.29.333l-.23.015-.017.24c-.01.158-.004.174.11.176h.044c.378 0 .564.373.3.583l-.028.021c-.144.106-.19.098-.443-.035l-.22-.118-.133.167-.127.161.25.133c.254.127.558.161.789.093.196-.06.43-.324.465-.525l.03-.186h.524v.931h.49v-2.156h1.122l.03.162c.057.307.011.53-.124.612l-.009.005c-.117.069-.137.069-.23-.02l-.02-.017c-.076-.063-.094-.062-.194.032l-.064.061a.5.5 0 0 0-.119.145c0 .017.247.304.504.595l.123.138c.224.25.427.471.446.478.015.004.108-.05.196-.128m23.136.093-.01-1.24-.015-1.235-.23-.014-.235-.015v2.504zm-8.532.936.196-.137.191-.137-.176-.181-.177-.187.084-.171.015-.034c.087-.192.082-.28-.006-.451-.063-.118-.063-.172-.024-.28.127-.308-.235-.598-.52-.411l-.017.01c-.097.067-.108.102-.08.269l.034.2-.201-.029c-.348-.043-.53-.31-.417-.6l.005-.012c.083-.21.26-.27.696-.24l.353.02v-.721h.833v.415c-.001.276-.018.355-.098.442l-.021.023c-.077.084-.078.113-.018.228a.53.53 0 0 0 .2.215c.118.064.148.064.265 0 .177-.098.226-.318.196-.872l-.024-.451h.53v2.156h.49v-2.16l.406.014.402.014.018.435c.009.249-.004.274-.107.325l-.02.01c-.092.044-.141.108-.151.206-.034.289.216.52.564.52h.031c.15-.001.158-.01.143-.143l-.023-.2h.696v.98h.49v-2.157h.314c.21.002.24.018.318.148l.02.033c.126.213.1.301-.113.49-.151.138-.196.216-.196.339 0 .426.673.733 1.176.54l.023-.01c.067-.023.076.014.076.293v.323h.49v-2.156h.191c.143-.001.152-.017.152-.172v-.17H24.669v.343h.77l.066.332c.036.186.034.285-.003.354-.073.137-.274.176-.387.078l-.016-.014c-.063-.056-.085-.045-.2.074l-.146.151.254.284.357.408.178.205.04.049c.132.154.244.273.262.28h.001c.015.004.103-.06.196-.138l.167-.137-.397-.447c-.213-.242-.217-.275-.147-.327.074-.054.128-.054.309.01.137.044.318.068.465.053l.24-.024v.965h.49v-2.156h1.569v.147c0 .137-.015.147-.182.147-.808 0-1.205.74-.72 1.323.197.231.376.306.767.304l.128-.001c.23-.001.252.012.252.094 0 .054-.064.191-.142.309l-.142.206.26.279zm-6.954-.936v-2.16l.333.014.329.014.014 1.064.01 1.068h.49v-2.156h.208c.16 0 .17-.012.17-.172v-.17H20.16v.343h.49v.442c-.002.272-.018.342-.074.342-.039 0-.107.054-.147.118-.068.103-.068.137-.01.284.094.216.275.333.53.333h.2l-.029-.171-.034-.177.706.03-.02.955zm-.823-1.346-.304-.036v-.774h.627l.02.397.002.048c.005.199-.009.36-.027.373-.019.015-.162.01-.318-.008m-6.41.023h-.06c-.323 0-.332-.025-.337-.446v-.387h.671v.436c-.001.359-.024.395-.275.397m18.455.015-.225-.035-.123-.013a3 3 0 0 0-.196-.016c-.079 0-.091-.04-.093-.34v-.444h.637zm1.324.127c0-.049.063-.137.147-.196.171-.127.225-.343.156-.603l-.049-.176h.53v1.059l-.142.083c-.275.162-.642.064-.642-.167m-8.645-.162-.152-.029v-.392l-.005-.392h.671l-.014.402-.015.407-.167.014a1.4 1.4 0 0 1-.318-.01M20.798 41.7v-.006l.032-.16.31-1.554c0-.005.285-.01.638-.015h.094c.308-.004.565-.021.592-.04.025-.014.05-.083.05-.141v-.017c.002-.097.04-.102.528-.116l.117-.005c.375-.018.467-.041.731-.171l.324-.162.284.157.04.021c.233.123.323.137.778.155l.174.008c.334.015.355.03.355.121v.009c0 .058.025.127.06.147.029.02.337.034.685.03l.183-.004h.138c.28 0 .31.02.328.093l.008.034c.019.084.07.338.128.637l.061.322c.07.358.13.643.134.652.01.01.143 0 .29-.015l.274-.024-.167-.814-.082-.42c-.047-.243-.08-.415-.08-.428s.25-.044.554-.058l.057-.003c.64-.032.912-.128 1.183-.41l.025-.024c.388-.414.416-.857.171-2.283l-.161-.941h3.407c1.91-.002 2.889-.021 3.056-.054a1.77 1.77 0 0 0 1.27-.99l.142-.304-3.424-.026c-2.65-.023-2.91-.03-2.963-.106l-.004-.005c-.039-.059-.039-.108 0-.172.05-.078.314-.083 4.043-.107l1.354-.008c2.653-.017 2.788-.035 3.075-.216l.08-.05c.294-.184.63-.67.684-.985l.022-.138-2.304-.01-.868-.008c-.859-.009-1.498-.02-1.543-.031-.127-.03-.156-.22-.049-.309.04-.03.695-.054 1.983-.065l1.302-.01c1.381-.013 1.574-.03 1.724-.096.333-.147.553-.329.715-.583l.013-.02c.142-.233.299-.735.24-.754h-.003a6 6 0 0 0-.221-.004l-3.02-.014c-1.756-.01-2.068-.022-2.109-.079l-.001-.002c-.069-.108-.06-.176.03-.264l.003-.004c.073-.062.368-.074 2.225-.075h.982c2.115-.003 2.151-.03 2.518-.353.294-.26.465-.607.465-.96v-.255h-4.44c-3.53.002-3.878.025-4.567.225l-.065.02c-.677.205-1.035.419-2.014 1.223l-.062.051c-1.676 1.382-3.107 2.039-4.048 1.858l-.035-.008c-.355-.078-.713-.274-.71-.398v-.006c.005-.054.093-.363.196-.686l.186-.593.377-.358c.603-.568.838-.985.922-1.617.078-.613-.152-1.304-.55-1.647l-.205-.171-.225.245c-.123.132-.24.245-.255.245-.018 0-.086-.118-.164-.269l-.027-.055a2.57 2.57 0 0 0-1.21-1.156l-.447-.21-.016-.251c-.012-.149-.043-.203-.12-.24-.065-.024-.114-.064-.114-.083 0-.022 2.367-.036 5.445-.039l2.651-.001c3.703-.003 4.891-.02 4.93-.058.034-.035.059-.191.059-.358v-.031c-.003-.155-.027-.295-.059-.327-.078-.078-27.262-.083-27.394-.005-.067.038-.087.109-.088.302v.017c0 .147.024.314.049.367l.003.006c.053.081.26.087 5.311.088h1.806c3.456.002 5.964.02 5.964.044s-.044.054-.098.068c-.1.024-.191.207-.196.389v.013c0 .091-.061.14-.336.272l-.017.007c-.495.236-.843.53-1.097.922l-.042.067a2 2 0 0 0-.174.308v.002a.4.4 0 0 1-.069.142l-.013.016c-.058.07-.087.051-.325-.182l-.26-.26-.235.25c-.764.818-.666 2.043.235 3.023l.04.041c.16.167.333.325.397.361.093.05.142.133.186.319.03.137.122.446.206.686l.147.441-.142.113c-.869.693-2.693.071-4.689-1.6l-.124-.106c-.983-.82-1.519-1.111-2.41-1.303l-.024-.005c-.36-.075-.742-.083-3.96-.083H5.88l.015.289c.024.536.33.944.856 1.148l.029.011.028.01c.219.077.447.085 2.458.085h.705c1.56.003 2.102.018 2.143.059.093.093.069.274-.04.333l-.003.002c-.07.025-.585.04-1.62.04h-.46l-.616-.003-2.603-.014.025.23c.059.466.382.882.867 1.113l.27.127 2.347.024c2.166.025 2.352.03 2.401.108.038.06.04.108.006.163l-.009.014c-.054.078-.274.083-2.349.107l-2.298.025.015.142c.043.382.468.902.912 1.114l.046.02c.196.09.365.096 3.437.116l1.804.012c2.718.018 2.988.03 3.04.1l.003.005c.04.06.04.108 0 .172l-.003.005c-.056.073-.326.078-3.246.093l-.764.003c-1.389.008-2.426.024-2.426.036 0 .013.042.113.1.236l.032.068c.242.517.73.886 1.294.986l.024.004c.156.028 1.527.047 3.185.049h1.252c1.928.003 2.053.015 2.032.083l-.004.016c-.032.12-.09.413-.148.738l-.03.169-.028.161-.028.169c-.037.23-.068.44-.082.578l-.009.086c-.051.532-.018.735.172 1.053l.017.028c.115.185.198.26.454.389l.079.04c.268.132.347.142.832.16l.08.003c.339.01.479.034.479.07v.005a19 19 0 0 1-.172.834l-.022.097a10 10 0 0 0-.14.687c.012.009.135.025.264.039l.096.01c.118.01.219.016.219.01m2.829-9.088-.026-.008q-1.242-.376-1.558-1.98l-.079-.406-.225-.088q-.698-.295-.843-1.162a4 4 0 0 1-.032-.261l-.003-.034c-.023-.271-.022-.533.01-.533.015 0 .196.142.402.318l.373.319.142-.255c.196-.358.313-.47.652-.632a1.37 1.37 0 0 1 1.068-.064c.122.04.323.167.45.275l.221.196.172-.152c.282-.244.542-.358.91-.386l.026-.001c.299-.02.392-.005.617.098.309.142.628.45.75.73l.088.186.43-.357c.188-.156.346-.275.364-.275.048 0 .032.34-.014.669l-.007.053-.007.045a2.5 2.5 0 0 1-.094.416l-.005.013c-.13.351-.469.717-.75.809l-.055.017c-.14.046-.158.075-.244.412l-.015.055c-.23.917-.735 1.642-1.318 1.907-.385.178-.949.21-1.4.076m.097-3.374a.4.4 0 0 0 .063-.192c0-.25-.539-.494-.906-.416-.182.04-.427.167-.505.255-.04.054-.034.103.039.22l.093.157.25-.098c.27-.103.392-.093.706.069l.047.022c.141.066.155.063.213-.017m1.264-.035c.318-.157.421-.161.696-.034l.206.093.107-.147.023-.031c.08-.113.073-.129-.008-.219-.21-.225-.593-.309-.95-.206-.28.084-.442.23-.442.402 0 .265.064.29.368.142m.333.848c.142 0 .377-.171.377-.274 0-.089-.284-.265-.416-.265a1 1 0 0 0-.255.074l-.022.009c-.146.063-.162.1-.11.236.039.098.274.22.426.22m-1.906-.103.02-.016c.128-.109.136-.185.024-.283-.132-.112-.363-.137-.544-.063-.22.098-.25.21-.088.352a.465.465 0 0 0 .588.01m5.484 3.078c-.01-.015.183-.123.435-.243l.015-.007c.868-.412 1.478-.816 2.537-1.693l.163-.136c.869-.718 1.372-.92 2.78-1.136.019 0 .034.01.034.024 0 .04-.112.223-.233.399l-.019.027-.111.153c-.309.382-1.044.887-2.26 1.539l-.083.044c-.76.403-1.282.631-1.858.8l-.063.018c-.134.04-.315.08-.501.116l-.039.008-.039.007c-.366.067-.727.11-.758.08m-10.404-.103c-1.053-.214-3.436-1.445-4.33-2.24l-.027-.024c-.24-.216-.593-.686-.593-.794 0-.047.422-.005.83.079l.035.007q.07.014.14.032l.042.01c.694.17 1.087.405 2.148 1.293l.069.056c.314.252.732.569.96.728.191.129.48.299.763.454l.08.043c.37.202.715.37.79.375h.004c.04 0 .069.015.069.04 0 .039-.691-.005-.98-.06m6.228-2 .007-.013c.08-.165-.034-.212-.526-.212h-.06c-.295.003-.418.023-.46.069-.044.054-.039.093.02.186.162.245.882.225 1.02-.03m-1.024 3.03c-.304-.157-.7-.578-.892-.956l-.152-.308.226.156c.122.084.348.196.504.25.629.218 1.481.154 1.975-.144l.044-.027c.117-.07.217-.122.226-.113.044.044-.25.544-.451.765-.431.48-.995.622-1.48.377m-1.186 3.486v-.007c0-.1-.106-.125-.55-.127h-.48v-1.02c0-.55-.011-.68-.066-.757l-.004-.006-.017-.02-.005-.005-.005-.005c-.118-.118-.24-.123-.373-.03l-.006.005c-.073.06-.092.162-.111.672l-.025.602h-1.004c-.51-.001-.58-.012-.587-.077v-.005l-.001-.01v-.006c0-.024.012-.125.033-.272l.017-.113q.024-.173.058-.385l.053-.332c.154-.947.243-1.145.667-1.573.428-.423.936-.7 1.551-.84l.142-.032c.354-.077.356-.054.522.274.49.97 1.475 1.475 2.377 1.22.549-.157.99-.554 1.377-1.24l.171-.309.201.03c.966.132 1.902.72 2.24 1.406l.016.034c.106.229.16.466.248 1.079l.02.133.034.229c.044.3.077.546.084.613l.014.172h-.798l-.794.004v-.588c-.001-.437-.018-.523-.103-.632-.118-.152-.29-.166-.412-.03l-.007.01-.005.005-.01.015-.004.006-.005.008c-.037.067-.05.177-.05.493v.189l.003.23.01.858h-.57c-.373.002-.42.016-.484.108l-.008.01c-.134.173-.259-.019-.605-.912l-.02-.05c-.232-.583-.354-.772-.578-.89l-.027-.016c-.133-.07-.161-.069-.292-.006l-.04.019c-.12.059-.153.057-.23.003l-.008-.006c-.332-.235-.536-.01-1.01 1.13l-.052.124c-.118.283-.24.541-.283.591l-.003.003c-.086.1-.2.112-.206.026m.397 1.63h-.397v-.618c.002-.346.015-.362.108-.362.166 0 .5-.225.637-.426l.008-.013c.06-.096.174-.346.283-.617l.024-.06.016-.042.016-.04.256-.664.014 1.26.004.487v.285c-.002.47-.021.516-.092.59-.142.152-.416.22-.877.22m2.911.015-.368-.01-.052-.002c-.409-.018-.65-.087-.805-.228l-.123-.113v-1.37c.002-.66.021-1.127.044-1.114.025.015.157.31.294.652l.024.06c.131.327.274.646.324.73a.94.94 0 0 0 .554.386l.137.03zm1.947.304H26.41l-.03-1.495h.53c.539-.003.603-.044.603-.318v-.216l.75-.02.16-.002c.33-.006.603-.018.641-.022h.002c.03-.005.088.02.128.059.04.043.11.407.156.765l.005.04c.022.182.038.359.04.488v.02c.004.24-.138.426-.442.578l-.04.02-.074.033-.012.005-.025.009-.013.004-.023.006c-.145.04-.363.045-.997.046m-5.79-1.495-.029 1.495h-1.201c-1.194-.002-1.406-.045-1.64-.324-.148-.181-.163-.455-.05-1.17l.052-.34.014-.102.008-.064c0-.02.387-.034.857-.034h.858v.191c0 .3.076.347.623.348zm-11.305 2.352c.182 0 .235-.024.343-.152.177-.21.172-.446-.014-.637-.196-.19-.476-.2-.662-.014-.098.103-.127.181-.127.348 0 .299.156.455.46.455m20.69 4.827.152-.063-.353-1.36c-.122-.476-.21-.83-.205-.83l.002-.001.194-.088.059-.025a1 1 0 0 1 .171-.058c.018 0 .088.153.157.352l.015.045c.152.446.338.695.593.779.22.073.51.024.73-.128l.171-.117.142.317c.06.135.103.253.103.276 0 .068.084.054.29-.054l.19-.093-.403-.988c-.204-.501-.37-.93-.37-.963 0-.067.386-.257.442-.218l.003.003c.02.014.235.465.485.994l.074.157c.097.205.185.388.255.529l.04.08c.066.128.108.205.117.205l.004-.002c.023-.009.104-.046.191-.092l.236-.127-.96-2 .5-.279.089-.05a26 26 0 0 0 .856-.498l.441-.27.132.186.016.021c.066.09.117.176.117.19s-.064.059-.142.103a.53.53 0 0 0-.206.21l-.012.027c-.049.104-.072.112-.208.075l-.01-.003c-.138-.04-.206-.025-.388.068-.549.28-.539.966.025 1.397.112.084.28.174.38.202l.17.045.055.014.037.009c.164.037.192.016.248-.097l.139-.29-.275-.064a.82.82 0 0 1-.47-.255l-.015-.015c-.226-.226-.258-.362-.12-.506l.008-.008c.137-.138.186-.128.426.122l.02.022c.106.112.207.199.225.199a.7.7 0 0 0 .181-.118l.137-.118-.127-.186-.015-.023a.7.7 0 0 1-.112-.227c0-.059.181-.21.25-.21.01 0 .074.077.164.196l.017.023c.067.09.147.2.23.32l.108.157c.288.42.298.39.549.195l.113-.093-.699-1.042-.224-.336c-.186-.28-.312-.472-.312-.48 0-.004.078-.058.171-.117.191-.117.21-.186.088-.333l-.01-.012c-.08-.09-.11-.069-.744.345-1.446.938-2.61 1.518-4.208 2.089l-.742.264-.28-.285c-.269-.274-.803-.598-.994-.598-.054 0-.108.064-.142.177-.034.093-.05.176-.04.186l.009.005.048.024.277.138c.176.083.407.225.514.318l.192.167-.24.078c-.092.03-.274.081-.469.133l-.089.023-.152.038-.297.073a4 4 0 0 0-.322.086c-.044.01-.044.064 0 .196l.013.04c.043.132.062.134.232.102l.014-.002c.103-.017.384-.084.67-.161l.12-.033.107-.027c.291-.074.527-.124.545-.115a1 1 0 0 1 .069.25c.01.096.03.191.043.245l.003.015.007.024c.015.044-.107.084-.382.123l-.072.012c-.433.072-.605.141-.734.303l-.007.008c-.257.325.014.746.447.703l.029-.004c.125-.015.142-.061.088-.297l-.01-.044c-.045-.171.102-.265.5-.309l.298-.034.142.593.055.235c.096.405.114.362.43.235m-8.767 1.21.03-.185.007-.057c.018-.154.056-.514.091-.902l.037-.415a10 10 0 0 1 .075-.7.2.2 0 0 1 .058-.003h.046c.155 0 .468.01.823.023l.334.015c.495.024.573.04.563.1v.003c-.01.059-.089.083-.31.103-.362.034-.48.093-.582.313-.228.486.125.947.631.823l.052-.014c.268-.068.389-.054.478.044.21.23-.005.48-.372.441a1.5 1.5 0 0 1-.376-.105l-.016-.008c-.226-.107-.623-.455-.716-.627l-.069-.127-.151.103-.154.109-.013.008c-.044.03.152.324.343.52.593.607 1.656.705 1.926.181.113-.216.078-.593-.074-.755-.186-.2-.357-.245-.671-.171-.294.073-.417.04-.45-.123-.03-.156.131-.22.568-.22h.406v-.583l.31-.015.303-.015.03-.44-.677.014-.046.001c-.314.006-.786-.004-1.276-.022l-.154-.007-.211-.009a22 22 0 0 1-1.438-.103l-.016-.002a30 30 0 0 1-2.737-.529l-.042-.01c-1.02-.26-2.563-.775-3.18-1.054l-.057-.026a28 28 0 0 1-1.623-.844l-.134-.075-.147-.083a28 28 0 0 1-1.24-.741l-.016-.01c-.08-.053-.1-.043-.165.054a.4.4 0 0 0-.078.167c0 .029.256.219.572.425l.097.064c.285.188.507.345.507.359l-.001.002a9 9 0 0 1-.332.493l-.074.102c-.235.325-.287.363-.429.377h-.007c-.22.02-.382-.117-.382-.323 0-.26.235-.372.49-.235l.021.012c.087.047.11.037.194-.1l.02-.034c.132-.22.123-.25-.108-.358a.875.875 0 0 0-1.073.27c-.132.18-.132.563-.005.783.113.192.422.388.618.388h.137l-.142.205-.142.211.225.132c.127.074.24.123.255.108l.196-.274.135-.19.135-.193c.242-.345.277-.367.44-.38l.015-.002c.167-.014.23.01.329.108.151.152.156.27.014.446-.086.115-.125.132-.29.11l-.043-.006a1.3 1.3 0 0 1-.25-.055c-.059-.024-.093.01-.137.128l-.012.036c-.068.208-.045.241.176.317l.012.004c.598.206 1.083-.054 1.172-.632.058-.397-.3-.853-.687-.872l-.023-.001c-.087-.006-.153-.015-.153-.024 0-.058.157-.304.196-.304.018 0 .314.15.636.318l.338.178c.253.134.464.249.491.269.01.01-.073.22-.19.47l-.094.204-.105.229c-.269.59-.49 1.092-.478 1.096l.117.055.128.063.235.108.064-.162.076-.18.254-.586.34-.777c.077-.176.13-.294.134-.3s.154.04.308.092l.087.03c.123.044.232.085.251.099.01.01-.029.196-.093.412l-.019.067c-.083.286-.115.325-.206.325-.34 0-.257.648.097.808l.01.005c.193.082.263.06.265-.088v-.01c0-.059.01-.122.025-.137.034-.034.71.206.71.25 0 .02-.063.225-.142.46l-.147.427.23.069.04.01a.8.8 0 0 0 .225.039c.015-.01.182-.476.363-1.04l.297-.896.041-.128c.005-.014.52.123.54.143.009.01-.09.5-.226 1.092l-.24 1.088c0 .015.495.123.51.108.009-.01.122-.495.244-1.073l.096-.429c.084-.37.147-.632.154-.64.014-.013.246.028.53.089l.353.075c.22.047.414.086.49.096l.107.018c.212.038.197.06.137.325l-.025.097c-.03.11-.056.196-.068.207-.014.014-.207-.008-.433-.048l-.137-.024c-.471-.083-.527-.07-.66.062-.235.23-.103.662.23.74l.03.006c.114.022.126 0 .176-.246l.005-.018c.028-.1.058-.114.211-.114h.019c.17.006.53.084.53.117l-.005.03c-.01.064-.041.234-.078.436l-.057.312a9 9 0 0 0-.056.335c0 .03.323.093.465.098.025 0 .128-.49.226-1.083l.052-.315c.075-.446.136-.775.144-.783l.017-.002h.038c.053.002.14.008.234.017l.067.008c.182.024.2.041.193.137l-.067.8c-.06.733-.089 1.14-.09 1.281v.013q0 .04.005.045c.01.014.122.039.245.053zm9.723-2.905c-.137-.079-.358-.55-.367-.794-.005-.123.024-.152.215-.235l.027-.011a.9.9 0 0 1 .262-.068c.035.005.138.191.23.412l.023.054c.167.417.144.543-.106.647-.132.059-.176.054-.284-.005m-14.966.353-.319-.108.119-.369.102-.327.008-.024c.028-.078.049-.07.354.02l.03.008c.135.042.256.09.28.109.038.039-.119.583-.212.73-.034.054-.098.049-.362-.04m10.546.715a.532.532 0 0 0-.882-.235c-.201.206-.201.524 0 .75.362.406 1.029.02.882-.515"/>
</svg>
