---
version: "3.0.7"
---
<svg>
  <path d="m25.886 45.755.031-.004c1.737-.198 2.944-.465 4.59-1.003 2.969-.974 6.054-2.852 8.334-5.075 1.937-1.89 3.388-3.88 4.537-6.235l.035-.071c1.182-2.427 1.742-4.385 2.105-7.345l.01-.09c.04-.322.068-1.035.082-1.77l.003-.188.002-.187c.008-.701.001-1.365-.026-1.668-.293-3.153-.957-5.604-2.22-8.184l-.047-.096c-.724-1.465-1.335-2.4-2.49-3.846-2.047-2.554-4.396-4.437-7.33-5.88-1.933-.95-3.797-1.551-6.125-1.968l-.168-.03c-1.019-.18-1.705-.225-3.36-.242l-.525-.002h-.946a7 7 0 0 0-.317.007l-.315.028c-.886.083-1.393.143-1.857.227l-.017.003c-3.659.642-6.753 1.977-9.614 4.144-2.797 2.115-4.939 4.708-6.469 7.827-1.129 2.305-1.792 4.695-2.094 7.539l-.004.04c-.04.41-.064 1.095-.07 1.794l-.001.092-.002.277v.16c.003.63.02 1.215.051 1.556.293 3.046.961 5.476 2.185 7.97 2.586 5.26 7.434 9.477 12.97 11.277 1.587.517 3.526.896 5.237 1.025.908.069 2.861.027 3.825-.082m-6.562-.827c-2.751-.558-5.09-1.535-7.552-3.164l-.075-.05c-1.138-.753-2.56-1.938-3.478-2.894-3.197-3.343-5.166-7.22-5.847-11.531l-.025-.158c-.183-1.187-.215-1.644-.216-3.258v-.4c.001-.997.016-1.47.056-1.89l.006-.058.01-.092.005-.046c.457-3.838 1.694-7.09 3.878-10.166l.06-.085c.645-.9 1.232-1.573 2.172-2.508l.104-.102c.814-.798 1.286-1.206 2.047-1.78 3.012-2.262 6.067-3.563 9.777-4.162 1.444-.232 3.357-.293 5.111-.168 4.516.328 8.963 2.154 12.346 5.066 1.211 1.042 2.508 2.46 3.478 3.782.762 1.047 1.56 2.451 2.159 3.812.913 2.077 1.547 4.618 1.727 6.951l.005.07c.02.264.034.743.04 1.238l.002.1.001.142.002.382v.22c-.002.355-.008.649-.02.783l-.005.057c-.008.082-.018.2-.026.32l-.003.042-.013.184c-.112 1.75-.594 3.985-1.206 5.6-1.444 3.813-4.06 7.362-7.128 9.688-1.226.925-2.231 1.566-3.348 2.128l-.052.026c-2.55 1.28-4.87 1.986-7.338 2.24-2.487.254-4.24.172-6.654-.319m10.446-1.214c4.344-1.418 7.812-3.916 10.605-7.638 1.53-2.037 2.844-4.811 3.452-7.28.43-1.766.659-4.157.564-5.957-.13-2.357-.5-4.209-1.28-6.363-1.323-3.644-3.757-6.905-6.938-9.283-3.19-2.384-6.821-3.742-10.945-4.082l-.125-.01c-.293-.023-.87-.035-1.471-.037h-.343c-.623.004-1.22.017-1.508.041-1.733.147-3.926.638-5.538 1.232-1.915.708-3.987 1.872-5.513 3.095l-.046.037c-1.047.844-2.253 1.999-2.982 2.847a20.6 20.6 0 0 0-4.727 10.645 22.2 22.2 0 0 0 .022 5.681c.512 3.666 1.926 6.962 4.274 9.964a21.2 21.2 0 0 0 6.016 5.267l.069.04c1.18.683 2.745 1.379 3.953 1.766l.055.017c.682.217 1.87.512 2.667.66l.039.008c3.167.595 6.61.362 9.7-.65m-7.748.418a23 23 0 0 1-4.378-.862c-1.784-.538-4.15-1.723-5.667-2.83-2.965-2.158-5.037-4.605-6.653-7.831-1.246-2.495-1.84-4.812-2.013-7.819-.202-3.52.603-7.297 2.198-10.343C6.556 12.45 7.8 10.79 9.465 9.171c1.112-1.086 2.628-2.223 3.956-2.968a20.7 20.7 0 0 1 8.058-2.542l.072-.006.164-.015.188-.018.222-.021c.47-.048 3.22.013 3.75.077l.145.02c1.592.208 2.828.486 4.245.958 4.077 1.357 7.58 3.985 10.088 7.556.979 1.395 1.914 3.29 2.517 5.096a20.53 20.53 0 0 1 .56 11.014c-.676 3.05-2.254 6.156-4.425 8.702l-.034.039c-.234.27-.578.631-.946 1l-.062.062-.185.183-.119.117c-.396.385-.789.75-1.08.994a20.7 20.7 0 0 1-7.322 3.95c-2.25.68-4.947.96-7.235.763M20.087 8.55c.19-.064.297-.146.616-.474l.21-.212c.305-.307.314-.286.484-.214l.024.01c.367.15.698.18 2.742.2l.959.01c1.239.013 2.3.036 2.442.051.853.104 1.09-.056 1.09-.715-.005-.517-.203-.784-.711-.965l-.072-.023-.02-.007c-.286-.085-.604-.098-2.389-.106L24.296 6.1c-1.573-.008-1.544-.03-1.753-.25l-.095-.108.117-.052.028-.013c.3-.134 1.03-.396 1.476-.53l.245-.077c.163-.051.283-.09.298-.1a1.2 1.2 0 0 0 .142-.236l.108-.211-.264.004c-.181.004-.447.07-.93.232l-.084.028-.055.018c-.77.258-1.096.426-1.36.687-.246.241-.345.44-.307.603.043.16.267.395.498.514l.052.026c.394.195.637.213 2.887.214h.528c1.92.001 1.99.019 2.094.215l.007.014c.06.122-.002.15-.24.119l-.034-.005c-.154-.02-1.15-.035-2.304-.037h-.264l-.402-.002c-1.181-.007-2.135-.027-2.352-.05-.771-.086-1.357-.336-1.594-.68l-.028-.039a.6.6 0 0 0-.123-.138c-.052 0-.164.301-.164.448 0 .07.044.225.101.348l.007.013c.06.13.108.259.108.29s-.078.154-.173.27c-.121.16-.242.253-.474.369l-.078.039c-.247.12-.326.135-.603.13a4 4 0 0 1-.49-.025c-.203-.034-.216.035-.044.198.297.285.84.375 1.31.224m.34-2.696.03-.032c.146-.161.127-.194-.129-.43l-.155-.146-.176.16c-.212.19-.22.284-.052.456.168.168.323.164.482-.008m-2.8 2.847c.232-.065.667-.366.973-.668.474-.474.595-.917.34-1.214l-.008-.01c-.08-.088-.133-.105-.426-.128l-.107-.007c-.389-.03-.518-.064-.518-.135 0-.022.094-.134.215-.25l.045-.046c.152-.152.192-.168.358-.17h.052c.146-.002.2-.02.247-.088l.005-.006c.099-.143.086-.268-.043-.397-.142-.142-.354-.146-.608-.021-.482.239-.804.916-.655 1.377l.004.014c.085.25.22.33.628.365l.377.031-.31.306c-.686.677-1.388.655-1.72-.051-.108-.229-.13-.582-.065-1.047l.003-.026c.014-.117.013-.212-.011-.228-.07-.043-.328.254-.397.452-.228.68.229 1.701.862 1.917.237.082.53.095.758.03m14.12.844c.32-.163.419-.47.277-.866l-.014-.036c-.12-.335-.105-.467.091-.825l.042-.076c.139-.248.225-.347.39-.458l.035-.024c.16-.11.18-.145.18-.278 0-.224-.19-.844-.263-.853-.035-.004-.134.04-.22.104l-.015.01c-.121.083-.163.16-.266.458l-.012.036a8 8 0 0 1-.336.8l-.026.05c-.236.456-.35.527-.737.49-.309-.034-.734-.226-.892-.404l-.023-.027c-.078-.093-.096-.163-.098-.339v-.055c-.003-.275-.058-.295-.31-.123-.289.198-.392.482-.327.904.008.065-.026.095-.156.142-.362.117-.642.117-1.167-.017l-.06-.014c-.246-.056-.45-.088-.466-.072-.017.017.102.16.271.324l.022.02c.37.358.59.457 1.004.457.308 0 .545-.099.814-.329l.047-.04a1 1 0 0 1 .2-.148c.015 0 .1.039.195.09l.032.018c.105.059.351.153.559.214l.019.006c.652.187.954.4.96.675v.01c0 .198.091.258.25.176M16.224 9.29l-.006-.066c-.024-.249-.054-.304-.228-.535l-.022-.028c-.112-.15-.37-.513-.63-.88l-.124-.177-.195-.279a17 17 0 0 0-.447-.617c-.063-.071-.218-.098-.275-.048l-.005.004q-.106.103.163.573l.01.018c.206.361 1.53 2.369 1.628 2.477.102.106.162-.09.131-.442m-7.577 7.273h.045c.195-.002.246-.023.33-.107l.006-.007c.059-.07.317-.443.635-.91l.229-.337.026-.039.217-.325c.48-.725.612-.962.714-1.247l.015-.04c.217-.596.45-.803.876-.792h.014c.396.014.523-.104.526-.493v-.014c0-.104.02-.227.048-.282l.003-.007c.025-.05.223-.276.445-.512l.025-.027.049-.05c.283-.299.398-.458.451-.609l.078-.21h.24c.3 0 .66-.12.93-.314l.019-.014c.254-.185.34-.302.34-.448v-.005c-.01-.076-.22-.542-.476-1.067l-.028-.057c-.414-.838-.491-.989-.609-1.063l-.008-.005-.06-.03a4 4 0 0 1-.448-.259l-.142-.098c-.15-.1-.15-.091-.18-.057-.018.013-.031.117-.031.229 0 .245.177.542.634 1.06l.088.101c.544.63.772.95.666.95-.016 0-.119.072-.235.167l-.057.046c-.353.287-.5.279-.551-.03l-.002-.011c-.038-.255-.21-.359-.548-.333l-.052.004c-.35.03-.5.132-.663.436q-.253.473-.047.668c.108.1.181.108.375.039l.02-.006c.07-.022.132-.031.144-.016.069.065-.707.965-.935 1.082-.144.075-.344.028-.502-.115l-.011-.01c-.147-.138-.345-.242-.414-.211-.132.046-.32.84-.323 1.37v.396l-.238.37c-.091.14-.26.394-.438.657l-.182.27q-.03.04-.056.081l-.054.082-.083.126-.042.064-.067.102a15 15 0 0 0-.405.652l-.03.052a3.5 3.5 0 0 1-.287.44l-.01.011c-.192.218-.316.182-1.786-.52l-.098-.048c-.355-.169-.687-.302-.753-.302h-.018c-.092.002-.107.023-.107.116 0 .067.052.206.114.32l.029.052c.097.172.13.182.568.33l.035.012c.26.088.713.271 1.06.424l.11.05c.38.166.543.231.687.255l.023.004.044.005.015.001q.049.004.103.003m23.65-6.495.025-.014c.275-.148.499-.48 1.095-1.616l.095-.18c.316-.603.443-.892.434-.969-.016-.17-.162-.176-.298-.017l-.007.008c-.116.137-.447.683-.768 1.246l-.063.11c-.32.567-.618 1.124-.663 1.271l-.002.005c-.05.174.003.231.151.156m-21.319.443c.078 0 .293-.18.401-.34.14-.208.503-1.061.542-1.275l.001-.009c.047-.275-.215-.487-.608-.487h-.027c-.133.003-.182.027-.266.124l-.008.01c-.272.319-.186.59.21.65.16.026.14.275-.064.714l-.042.089c-.165.356-.213.524-.139.524m28.928 8.686.013-.002c.093-.012.296-.073.466-.137l.085-.032c.271-.102.42-.139.996-.248l.023-.005c.19-.035.268-.081.52-.303l.047-.041c.19-.168.345-.32.345-.34 0-.048-.293-.126-.482-.126-.207 0-.574.138-1.229.47l-.078.037c-.264.126-.504.226-.555.226-.172 0-.328-.224-.328-.47v-.024c.004-.2.057-.268.276-.372.07-.035.134-.082.142-.108.01-.03-.133-.138-.318-.245a2.4 2.4 0 0 1-.405-.272l-.004-.004a17 17 0 0 1-.5-.9l-.056-.106a29 29 0 0 0-1.048-1.824c-.086-.142-.155-.302-.155-.358 0-.054.069-.172.163-.277l.01-.011c.094-.104.172-.216.172-.254 0-.087-.142-.16-.513-.267-.4-.121-.599-.367-.53-.668.009-.035.18-.19.38-.345.202-.155.59-.508.865-.784l.093-.094c.34-.35.395-.427.351-.479-.095-.112-.293-.073-.551.104l-.113.08-.452.329-.035.026-.228.168-.06.045c-.291.218-.559.397-.614.415h-.002c-.07.021-.28-.129-1.006-.712l-.112-.09-.254-.206a41 41 0 0 0-.96-.757l-.024-.019a1.7 1.7 0 0 1-.26-.23l-.004-.006c-.146-.207-.039-.484.364-.944l.065-.073c.158-.18.277-.34.269-.365-.026-.078-.173-.074-.332.013-.208.11-.768.706-.937.991l-.007.012c-.168.289-.168.448-.013.664.29.396 1.172 1.143 2.134 1.806l.106.073c.287.2.534.38.561.412a.7.7 0 0 1 .052.276v.039c.002.18.025.219.185.387.1.104.272.246.384.32l.202.128-.021.237a.8.8 0 0 0 .057.442l.007.02c.13.33.722 1.376 1.341 2.383l.042.068.043.069.169.27.323.518-.013.301-.001.038c-.006.228.01.303.105.479.263.493.522.692.844.652M17.91 9.498c.056-.06.099-.142.099-.177 0-.051.034-.06.185-.038.155.025.194.012.276-.074a.6.6 0 0 0 .12-.21l.004-.014c.02-.092-.007-.116-.193-.215l-.126-.063a1 1 0 0 0-.11-.05c-.01 0-.083.074-.16.16l-.02.023c-.103.114-.151.136-.27.124-.176-.013-.352.129-.352.284 0 .12.172.293.336.336.09.022.133.004.21-.086M29.21 37.472a15.15 15.15 0 0 0 6.498-5.23c1.357-1.917 2.193-4.045 2.56-6.526.112-.77.155-2.39.086-3.235-.254-3.015-1.297-5.66-3.15-8.012-.448-.569-1.603-1.714-2.22-2.21a14.95 14.95 0 0 0-7.79-3.192c-.772-.077-2.319-.077-3.108.004-6.192.642-11.324 5.019-12.802 10.916l-.032.13c-.31 1.26-.393 1.98-.395 3.439v.225c0 1.27.057 1.83.276 2.926a14.6 14.6 0 0 0 3.956 7.44c2.275 2.295 5.162 3.781 8.304 4.273 2.58.404 5.45.056 7.817-.948m-6.326.612c-2.013-.13-3.827-.6-5.495-1.43-2.943-1.474-5.287-3.821-6.662-6.682-.896-1.868-1.331-3.66-1.402-5.806l-.002-.065a13.85 13.85 0 0 1 1.422-6.668c.698-1.435 1.473-2.507 2.676-3.718 2.003-2.012 4.442-3.33 7.209-3.89l.11-.022c1.489-.296 2.465-.368 3.798-.284 1.207.082 2.418.302 3.43.63 2.733.882 5.142 2.528 6.904 4.712 1.625 2.016 2.555 4.26 2.943 7.086.12.866.112 2.884-.017 3.744l-.004.025c-.397 2.589-1.33 4.785-2.892 6.814l-.047.061c-.41.529-1.527 1.672-2.11 2.164l-.019.016c-1.762 1.473-3.883 2.52-6.037 2.985q-2.026.438-3.805.328m13.53-27.225.017-.017c.11-.11.116-.147.1-.332l-.002-.023c-.01-.11-.005-.192.01-.192h.005c.023.004.12.033.22.069.107.033.25.058.333.052l.032-.002c.103-.01.122-.034.122-.12v-.008c-.004-.088-.054-.12-.367-.245l-.04-.016c-.429-.168-.769-.205-.869-.092-.155.177-.177.271-.108.414l.01.017c.032.066.05.125.042.133s-.177-.058-.388-.15l-.138-.061a6 6 0 0 0-.375-.154l-.01-.003-.024-.006c-.09 0-.026.133.13.267.377.322.758.552.959.58l.035.004c.155.017.188 0 .307-.115M7.927 14c.074 0 .345-.374.479-.667l.017-.04c.058-.137.172-.418.3-.74l.124-.31.08-.203.384-.99-.074-.16-.018-.04c-.113-.244-.151-.224-.287.088l-.114.267-.066.152-.115.262-.024.055-.022.05c-.143.34-.376.941-.603 1.563l-.034.096-.035.096c-.082.233-.078.521.008.521m30.764-1.158c.082-.052.116-.457.047-.543-.054-.063-.456-.094-.526-.038l-.004.003c-.016.013-.03.135-.03.268v.064c.002.18.016.205.106.239l.006.002c.134.052.32.056.401.005m2.784 4.415c.122-.03.182-.133.129-.214l-.167-.242-.346-.508-.108-.16c-.507-.746-.877-1.189-1.085-1.297l-.043-.02c-.131-.063-.136-.042-.113.11.013.087.095.246.177.362l.02.028c.083.117.206.312.286.455l.014.024c.087.146.25.387.422.627l.029.04q.102.142.2.273l.052.07c.126.167.235.302.294.36l.006.006c.09.086.147.108.233.086m-8.571 15.762c.181-.275-.121-.59-1.54-1.596l-.09-.063c-1.629-1.149-2.868-2.2-4.391-3.734l-.22-.223q-1.329-1.348-1.443-1.578c-.024-.049-.033-.299-.02-.651l.008-.165c.02-.414.042-.552.096-.636l.002-.004q.17-.258.436-.168c.197.071.398.065.671-.027l.107-.036c.1-.034.176-.058.183-.058.004 0 .012.106.013.238v.104c0 .284.05.304 1.047.305h1.71l.08-.129.004-.006.007-.013c.044-.086.057-.214.057-.65v-.161l-.001-.118v-.303c-.003-.445-.014-.524-.07-.58l-.006-.007-.005-.005-.007-.006-.015-.013c-.063-.051-.112-.07-.458-.07h-.061q-.157 0-.397.004l-.782.015c-.614.013-1.097.031-1.112.043s-.032.094-.034.192v.044c-.002.094-.014.169-.026.169a2 2 0 0 1-.276-.112l-.25-.112.332-.526.083-.131a52 52 0 0 0 1.842-3.181l.14-.262c.645-1.198 1.16-2.081 1.62-2.771l.061-.093c.19-.289.236-.395.24-.532v-.024c.002-.13-.019-.168-.108-.221l-.017-.01c-.09-.05-.126-.042-.272.023-.225.102-.374.262-.667.715l-.034.052c-.34.52-1.253 1.785-2.431 3.35l-.1.134-.191.254-.074.1-.45.604-.59.8-.448.625-.026-.28a4 4 0 0 1-.014-.36v-.04c0-.116.003-.239.007-.353l.024-.574-.203-.302-.034-.052c-.403-.613-.509-.957-.509-1.623v-.046c.01-.656.115-.923.431-1.083.173-.086.246-.211.186-.319l-.004-.006a13 13 0 0 0-.51-.554l-.07-.074c-.328-.339-.435-.426-.524-.426-.086 0-.211.082-.465.31l-.058.053q-.622.574-.623.805c0 .112.03.142.25.245l.027.014c.264.13.299.218.374.826.093.775-.023 1.255-.417 1.711l-.04.046c-.166.192-.23.298-.245.41l-.002.02c-.01.105-.011.53-.002 1l.007.319c.008.47.003.832-.008.832-.013 0-.233-.297-.487-.659l-.255-.356c-.218-.301-.514-.709-.823-1.132l-.21-.285-.182-.248-.12-.163-.151-.205-.25-.342-.191-.262a132 132 0 0 1-1.02-1.415l-.198-.283c-.738-1.05-1.163-1.603-1.332-1.723-.215-.152-.436-.163-.492-.025l-.008.021c-.069.195.014.405.388.96l.036.055c.292.447.718 1.213 1.546 2.788a53 53 0 0 0 1.77 3.117l.115.186c.16.26.282.482.282.514s-.03.057-.07.06h-.007c-.042 0-.21.066-.383.149l-.038.018c-.166.08-.308.134-.316.126-.013-.008-.017-.095-.009-.194.009-.137-.013-.202-.082-.271l-.013-.013c-.074-.07-.136-.08-.971-.067l-.683.01c-.751.014-1.111.034-1.145.065h-.001q-.051.05-.065.886l-.013.885.215.215 1.048.005.59.001h.187c.904-.002.85-.041.877-.311l.008-.058.011-.088.02-.134.022-.09.31.107.036.012c.236.076.332.09.621.072l.12-.007c.261-.015.355-.003.486.056.396.181.667.491.667.767v.037c-.001.092-.015.104-.146.105h-.065c-.105 0-.555.042-1.02.098l-.414.05-.65.075-.196.022-.133.014-.085.01c-.624.07-.796.15-.846.377-.033.161.049.318.296.551l.015.014c.239.226.605.449.97.592l.056.02c.139.055.254.122.266.15l.004.009c.044.128-.077.292-.606.811l-.231.226c-1.287 1.253-1.927 1.795-3.103 2.628l-.227.161c-1.97 1.402-2.211 1.62-2.143 1.911l.002.01c.043.167.198.206.737.189.534-.021.78-.101 1.339-.436l.027-.016c1.083-.653 3.81-2.935 5.06-4.239L22 27.75l.177-.18h.327c.25 0 .384-.025.619-.116l.024-.01c.172-.068.418-.137.547-.15l.034-.005c.24-.035.33-.075.502-.236l.054-.051c.083-.077.152-.13.164-.117l.002.003.012.02.01.018.015.028.06.116.035.069c.085.17.3.416.795.907l.102.101c1.358 1.342 2.769 2.561 4.825 4.174.59.462 1.038.666 1.76.787l.033.006c.495.081.707.056.806-.095m-15.255-16.95c-.1 0-.28-.169-.396-.367-.151-.259-.082-.38.099-.185l.014.016c.153.175.346.535.283.535m12.074-.044c-.06 0-.021-.086.16-.366l.023-.036c.13-.201.186-.235.235-.158.065.103-.28.56-.418.56m-5.948.56h-.007c-.14 0-.155-.033-.102-.238l.009-.033c.052-.195.087-.201.15-.026l.008.025c.066.196.048.269-.058.272M7.34 20.444c.384-.147.733-.63.866-1.198.151-.65.035-1.632-.24-2.016l-.03-.038c-.187-.25-.28-.281-.593-.227l-.313.054-.306-.16-.044-.022a1.2 1.2 0 0 0-.55-.153l-.088-.005c-.223-.011-.277.003-.4.086-.34.23-.12.414.553.46l.417.027.026.237.006.06c.044.395.08.493.203.598l.006.005c.233.198.414.13.6-.233.047-.094.103-.172.124-.172.103 0 .116.598.025 1.049l-.014.065c-.1.472-.211.718-.394.885-.38.341-.933.239-1.441-.265l-.037-.036q-.51-.506-.234.078l.005.012c.121.267.539.659.862.818.315.155.728.19.991.09m-2.215-2.438c.048 0 .134-.044.199-.1l.015-.013c.089-.08.095-.111.066-.27-.021-.139-.056-.19-.137-.225l-.063-.024c-.06-.021-.07-.008-.226.084a.6.6 0 0 0-.185.138c-.026.078.245.41.331.41m3.853.577c.088-.089.09-.382.006-.488l-.018-.022c-.052-.062-.04-.086.076-.218l.018-.02c.146-.168.14-.206 0-.355-.143-.15-.229-.15-.397-.009-.147.123-.175.294-.071.46l.02.031c.048.076.044.098-.04.201l-.032.038c-.125.154-.121.237.015.343l.018.013c.146.112.31.12.405.026m19.525-.672c-.026-.022.077-.293.134-.35.017-.016.068-.03.112-.03s.077.014.077.03c-.004.057-.302.376-.323.35m-10.019-.205v-.03c0-.132.013-.138.1-.106.072.03.094.07.085.177v.021c-.02.283-.181.232-.185-.062m.259-.045c0-.06.146.034.21.138.03.047.044.095.03.107-.025.03-.24-.185-.24-.245m19.624.513c.133-.104.15-.293.034-.397-.112-.103-.21-.09-.336.043-.146.16-.125.315.056.384l.022.009c.102.042.13.033.224-.04m-10.2-.134.073-.185.039.18c.026.139.017.216-.035.315l-.008.016c-.136.245-.196-.014-.07-.326m-9.101.74c-.138-.046-.272-.193-.224-.245.021-.017.232.035.392.095l.012.005c.057.024.059.012.027-.052a1.1 1.1 0 0 1-.074-.293l-.005-.043c-.015-.141-.007-.156.044-.112a.6.6 0 0 1 .108.21l.007.029c.096.375.007.504-.287.407m9.45-.535.018-.032c.028-.046.037-.044.05.002l.005.019c.013.043.006.09-.013.103-.068.046-.106-.013-.06-.092m-.422.545q0-.155.15-.194l.037-.009q.157-.035.157.004c0 .078-.103.186-.215.224l-.019.007c-.095.032-.11.028-.11-.032m-.418.077h-.16l.125-.13.015-.014c.123-.126.179-.113.179.04v.014c-.002.078-.025.09-.16.09m-7.86.246-.016-.018c-.17-.187-.36-.26-.306-.118l.011.028c.061.156.067.262.009.241-.082-.026-.138-.332-.078-.405.085-.101.285-.074.418.056l.009.009c.125.12.207.327.155.379-.013.013-.103-.065-.202-.172m7.99.57.003-.01c.037-.096.067-.21.069-.258v-.005c0-.086.16-.328.216-.328.021 0 .025.035.012.074l-.006.016a2 2 0 0 1-.101.19.64.64 0 0 0-.078.272v.013c0 .09-.03.18-.064.21-.106.09-.125.02-.052-.174m12.107.766.02-.003c.143-.02.619-.181 1.117-.364l.068-.025.188-.07c.533-.2 1.03-.403 1.105-.463l.002-.002a.2.2 0 0 0 .066-.167l-.001-.01c-.009-.087-.037-.11-.133-.116h-.01c-.064-.004-.162 0-.224.01l-.012.003c-.09.018-.62.206-1.156.404l-.28.104c-.384.145-.73.28-.867.341l-.034.016c-.157.074-.293.153-.31.177-.05.077.258.186.46.165m-12.798-.69c-.042-.047.074-.151.334-.302l.08-.045c.223-.125.263-.135.263-.075 0 .112-.608.486-.677.422m-6.972.013c-.065 0-.366-.289-.366-.354 0-.077.112-.025.267.125l.036.036c.144.145.159.193.063.193m-.668-.13-.021-.025c-.168-.2-.152-.256.038-.082.06.056.112.138.112.18-.004.061-.034.044-.129-.073m5.02.216a.2.2 0 0 1-.128-.07l-.005-.008c-.125-.163-.039-.19.112-.03l.02.021c.07.076.065.087.001.087m-1.348-.116c.099-.104.185-.125.228-.056.013.021-.052.077-.15.129l-.028.014c-.169.082-.186.056-.05-.087m-3.353-.04c.022-.055.039-.064.078-.025.038.039.038.065 0 .103-.065.065-.113.018-.078-.077m3.783.401c-.081-.094-.107-.284-.051-.353.064-.077.435-.086.508-.013s.065.211-.017.328c-.073.107-.362.133-.44.038m3.883-.215c-.013-.017.009-.069.052-.116l.014-.016c.07-.076.094-.085.094-.04-.005.064-.13.198-.16.172m-6.765 1.508-.02-.002c-.11-.01-.096-.037.075-.2l.03-.029c.327-.308.508-.314.22.002-.142.155-.24.229-.305.229m5.899.013c-.1 0-.164-.041-.295-.186l-.011-.013c-.271-.31-.228-.366.103-.133l.025.017c.109.076.215.172.247.22l.015.023c.043.068.03.072-.084.072m-1.97-.087h-1.447l-.405-.387h1.257c.69.002.874.016.85.051l-.005.01a2 2 0 0 1-.137.184zm-3.598.242c0-.125.112-.147.242-.052.06.047.069.078.034.112-.06.06-.276.013-.276-.06m5.141.12c-.228-.056-.319-.129-.245-.202.043-.043.275.06.323.146l.01.022c.026.056.009.057-.088.034m-3.24.375c-.035-.021-.048-.069-.035-.108l.002-.003c.028-.056.15-.065.887-.066h.956l-.013.095-.004.025-.003.009c-.021.065-.12.066-.868.074l-.098.001c-.432.006-.792-.007-.824-.027m17.215 3.338.12-.097c.36-.29.591-.445.66-.445.043 0 .3.166.564.36l.057.04.028.022q.095.07.183.14l.034.028c.242.194.37.232.414.12.013-.034-.034-.262-.1-.504l-.035-.127a9 9 0 0 1-.145-.575l-.004-.02c-.032-.166-.028-.235.004-.255l.014-.01c.077-.05.22-.165.366-.291l.027-.023.076-.066c.2-.176.383-.348.383-.373 0-.107-.172-.15-.715-.18l-.543-.03-.246-.56-.03-.068c-.133-.296-.244-.498-.284-.506q-.065-.012-.194.259l-.035.077a5 5 0 0 0-.163.399l-.027.08-.013.04c-.092.261-.143.264-.62.287l-.044.002c-.714.032-.819.133-.456.424l.055.045q.555.461.557.593v.006c-.005.067-.08.376-.177.704l-.02.075c-.211.757-.169.814.31.429M7.151 25.19l-.024-.078-.012-.039-.03-.096c-.108-.367-.193-.706-.193-.778 0-.039.203-.237.453-.444l.039-.032c.231-.19.413-.366.413-.394a.17.17 0 0 0-.056-.108c-.038-.028-.363-.063-.712-.08l-.036-.002a8 8 0 0 0-.302-.008h-.049c-.112 0-.146-.022-.185-.121l-.021-.056c-.139-.364-.382-.902-.423-.939-.037-.033-.07-.027-.115.023l-.006.007c-.034.039-.133.263-.224.496l-.024.059c-.084.207-.173.4-.208.44l-.007.007c-.062.06-.183.085-.57.122l-.11.01c-.454.045-.529.07-.529.141 0 .056.255.306.595.582l.04.033c.232.198.233.268.032.941l-.035.118c-.085.288-.146.541-.137.577l.001.002c.037.1.14.06.392-.15l.1-.084c.383-.317.62-.485.684-.485.041 0 .303.16.57.342l.03.02.059.04.029.02.053.038q.134.094.242.178l.021.016q.463.365.255-.318m17.607-2.464-.069.103h-.891c-.43-.001-.813-.013-.858-.026-.125-.034-.203-.202-.134-.293l.003-.003c.046-.053.202-.066.954-.078l.97-.01c.034 0 .068.048.077.1a.4.4 0 0 1-.052.207m-6.261.297-.02-.003c-.257-.039-.196-.1.128-.118l.327-.017.06-.004c.065-.004.095.013.087.043-.026.073-.362.13-.582.099m9.157-.056c-.168-.043-.065-.1.15-.078l.064.005c.122.008.29.018.398.021l.062.002c.14.005.147.015.072.044l-.005.002c-.103.043-.59.043-.741.004m-3.487.254h-.312c-.207 0-.436-.001-.596-.004h-.041c-.428-.003-.477-.049-.089-.09l.073-.008a5 5 0 0 1 .983-.001l.043.002c.212.014.37.042.366.062-.008.021-.198.038-.427.039m-5.58.894-1.137.01-.01-.366-.003-.18v-.097c.003-.208.022-.29.064-.317.037-.023.257-.034.492-.035h.115c.26.004.505.019.505.044 0 .02-.022.04-.046.043h-.005c-.03 0-.16.047-.28.108l-.026.011c-.175.082-.203.114-.203.217 0 .069.035.155.078.19.133.12.43.25.568.25.156 0 .505-.169.625-.302l.086-.095-.18-.16-.03-.024c-.131-.113-.14-.144-.096-.208l.007-.007c.047-.05.125-.066.373-.066h.076c.214.003.264.021.337.099l.095.103-.215.319.09.133.012.017c.177.258.035.3-1.292.313m10.8-.477v.483h-1.549c-.824-.002-.944-.014-.967-.07l-.001-.003c-.018-.039.004-.107.056-.16.13-.138.154-.29.058-.38l-.007-.007c-.099-.09-.112-.164-.047-.288l.006-.01c.041-.062.103-.072.454-.072h.065c.236 0 .423.013.423.026 0 .015-.071.088-.165.172l-.029.026c-.108.094-.194.206-.194.25 0 .11.338.378.517.412l.009.001c.108.017.215-.013.465-.142l.026-.014c.163-.087.316-.186.336-.223.06-.103-.09-.258-.375-.388l-.224-.099.552-.014c.312-.006.493.007.53.04.041.033.059.158.06.46m-1.237.04c.008-.026.06-.048.112-.043.099.013.116-.03.038-.108-.114-.114-.328-.033-.336.121v.008c0 .082-.077.095-.25.052-.146-.043-.099-.112.19-.259l.04-.02c.253-.129.336-.107.533.107l.103.107-.116.048c-.164.06-.34.056-.314-.013m-9.356.082c-.013-.018-.004-.065.022-.108.102-.161-.09-.185-.24-.033l-.006.007c-.103.108-.233.142-.276.069-.012-.02.04-.089.12-.158l.018-.014c.16-.134.354-.173.453-.09l.02.015c.034.03.09.074.14.113l.022.02c.066.055.07.073.025.106l-.005.004c-.09.064-.258.103-.293.069m4.861 1.658-.349-.073-.064-.015c-.388-.088-.419-.127-.419-.36.005-.25.138-.474.32-.551l.014-.006c.108-.037.178-.035.43.027.447.112.904.086 1.128-.069q.277-.193.276-.064c0 .13-.229.37-.531.558l-.074.045c-.177.11-.394.254-.507.336zm-.09.94v-.04c.01-.278.036-.498.073-.564.041-.083.043-.122.008-.16l-.004-.004c-.034-.034-.021-.047.06-.047.057 0 .291-.12.535-.27l.207-.13c.308-.193.32-.183.387-.108.04.047.074.12.074.159-.017.793-.372 1.405-.956 1.63l-.071.027c-.32.119-.334.07-.313-.494m-1.366.77-.005-.008a.37.37 0 0 1-.045-.202v-.047a7 7 0 0 1 .032-.423l.052-.569-.108-.155-.012-.018c-.106-.163-.075-.226.137-.288a1.07 1.07 0 0 1 .655.026l.02.007c.105.036.164.071.135.083-.024.008-.048.04-.051.071v.007c0 .03-.026.047-.06.034s-.186.04-.332.117l-.276.142.138.039c.19.056.405.008.607-.143l.02-.013c.09-.06.166-.097.178-.077l.002.003c.013.038.038.314.05.639l.03.603-.125.077c-.059.044-.241.12-.42.182l-.081.027c-.35.118-.408.1-.541-.114m-.431.116-.015-.015c-.077-.079-.097-.084-.191-.037l-.018.01c-.294.15-.35.051-.371-.664l-.004-.12c-.011-.357.001-.456.06-.574.073-.142.319-.344.418-.344.026 0 .1.082.16.185l.016.026c.082.13.097.204.11.643l.012.45c.014.605-.009.62-.177.44m-.832-.314-.22-.026c-.276-.039-.745-.25-.806-.362-.107-.202-.013-.577.199-.775l.018-.017c.112-.103.159-.122.322-.118l.056.001c.134.005.297.018.362.026l.016.003c.097.016.103.038.074.152a6 6 0 0 0-.025.625zm8.312 4.183-.031-.025a28 28 0 0 1-.86-.706l-.053-.044-.404-.35-.051-.045c-.3-.267-.685-.621-1.072-.986l-.174-.164-.22-.208c-.639-.609-1.212-1.175-1.34-1.335l-.084-.108c-.278-.36-.322-.444-.278-.488.094-.094.568.147.568.293 0 .03.04.065.082.082l.01.003c.065.02.07.054.053.218l-.005.05c-.022.226.042.308.241.31h.012c.064 0 .133.018.146.044.012.02.055.04.095.043h.009c.11 0 .232.153.375.464l.02.043c.068.148.14.262.163.268h.002c.026 0 .112.06.19.134l.024.024c.195.187.298.237.393.208l.022-.007c.068-.024.058-.038-.056-.148a.7.7 0 0 1-.16-.245.37.37 0 0 0-.125-.188l-.045-.034c-.067-.048-.067-.034-.067.062 0 .06-.017.108-.034.108-.05 0-.171-.223-.242-.444l-.008-.026c-.07-.236-.181-.349-.458-.445l-.033-.011c-.155-.052-.237-.112-.306-.22-.048-.082-.078-.176-.065-.215.024-.059-.048-.17-.304-.487l-.088-.108c-.12-.146-.194-.37-.12-.37.006 0 .096.086.234.224l.075.075c.123.124.275.277.436.442l.285.293c1.127 1.161 1.242 1.324 1.37 1.806l.017.068c.095.374.405.758.405.5 0-.048-.056-.177-.125-.294-.13-.21-.22-.53-.147-.53.021 0 .152.118.295.264l.02.02c.111.112.36.345.625.586l.093.083.037.034.184.164.128.114c.298.27.527.492.527.519 0 .075-.251.029-.628-.108l-.065-.024a1.7 1.7 0 0 0-.38-.1l-.112.004.13.107c.177.148.367.226.76.302l.118.022c.23.043.271.04.33-.008l.025-.022c.067-.055.098-.034.361.184l.044.038c.141.122.257.24.27.274v.003c.014.034.01.052-.008.039-.017-.018-.138-.005-.271.025-.25.06-.647.03-.755-.051m12.308-1.564c.173 0 .238-.083.24-.305l.001-.043v-.026c-.004-.106-.058-.125-.645-.257l-.318-.07c-.52-.12-.773-.198-.645-.203h.005c.018 0 .132-.036.296-.09l.116-.04c.121-.04.259-.087.4-.137l.141-.05.246-.086c.336-.12.615-.224.632-.24.065-.064.082-.452.022-.53l-.003-.003c-.05-.052-.397-.146-1.152-.31l-.752-.166c-.701-.152-.63-.116-.693.022l-.003.005c-.08.169-.057.342.057.41l.008.004c.04.024.321.098.647.173l.274.063c.272.064.48.115.488.126.008.008-.354.16-.81.327l-.157.06c-.765.291-.867.373-.869.621v.008c0 .09.026.186.056.212.07.056 2.224.525 2.418.525m-35.64-.112h.02c.297 0 .349-.052.267-.284l-.017-.044c-.049-.125-.078-.154-.266-.234l-.097-.041c-.318-.132-.44-.389-.316-.676l.006-.013c.181-.414.922-.698 1.366-.53.177.065.354.25.384.4.03.177-.03.328-.211.53l-.151.164.077.194c.043.108.104.198.138.207.035.004.155-.052.272-.13.68-.456.547-1.477-.242-1.908-.31-.168-.827-.194-1.232-.064-.496.163-.862.547-.965 1.016-.15.674.356 1.407.968 1.413m11.15 2.115c-.22-.039-.526-.202-.513-.276.009-.034.108-.112.22-.176l.033-.018c.315-.178.672-.451.73-.564l.012-.022c.064-.119.094-.106.22.065.113.147.26.194.354.117.022-.022.13-.07.237-.112.245-.09.337-.186.442-.475l.019-.052c.08-.22.106-.234.41-.36l.206-.087-.09-.13-.01-.013c-.095-.128-.162-.127-.395.019l-.026.016c-.16.102-.218.19-.305.478l-.012.04c-.045.146-.093.199-.286.31l-.067.04c-.1.058-.181.102-.192.102-.013 0-.047-.056-.073-.13l-.008-.02c-.038-.107-.012-.133.374-.462l.036-.03c.237-.2.615-.547.865-.797l.087-.084c.228-.217.41-.376.425-.364.043.046-.076.374-.158.436l-.005.003c-.138.086-.078.414.069.358.086-.035.16-.203.301-.676l.013-.041c.084-.276.153-.395.375-.675l.024-.03c.274-.336.573-.633.644-.633.02 0 .067.027.102.062l.006.007c.039.039.069.138.069.237v.168l.228-.116.096-.051.082-.043.047-.024.025-.012.009-.004c.073-.034.017.155-.09.297l-.011.014c-.127.155-.69.706-1.275 1.255l-.155.146c-.288.268-.57.527-.8.73l-.079.069c-.567.493-.989.817-1.592 1.22l-.146.097c-.283.186-.351.211-.472.191m3.163-2.692c.027 0 .157-.093.289-.198l.025-.02c.115-.093.225-.19.264-.239l.013-.016c.155-.203.075-.281-.16-.139-.185.116-.452.427-.452.526 0 .047.008.086.021.086M6.81 32.204l.003-.006c.035-.078.007-.187-.16-.609l-.091-.226c-.13-.325-.22-.59-.2-.607.056-.047.474-.215.543-.215.035 0 .142.198.263.474l.028.064c.105.236.221.462.265.517.142.181.38.12.38-.099 0-.056-.1-.336-.225-.624l-.22-.517.1-.082c.113-.093.305-.148.33-.099l.001.004c.07.18.578 1.081.63 1.111.077.052.301-.086.323-.198.004-.033-.143-.388-.337-.8l-.087-.184c-.251-.524-.316-.623-.395-.631h-.005c-.068.004-.455.138-.913.319l-.094.037-.2.08c-1.094.436-1.042.411-1.038.59.005.084.158.487.327.89l.029.067c.165.39.338.763.394.821.1.104.289.065.35-.077m21.964-2.068c.035-.039-.168-.319-.293-.405-.125-.082-.43-.134-.43-.069 0 .078.676.517.723.474m11.773 2.257c.078 0 .259-.288.259-.418 0-.047-.043-.12-.09-.168a1 1 0 0 1-.173-.206l-.017-.028c-.051-.09-.047-.124.046-.376l.075-.204c.126-.333.156-.364.287-.366h.023c.31 0 .426-.1.478-.422l.007-.047c.017-.126.005-.132-.123-.151l-.01-.002a20 20 0 0 0-1.133-.036l-.166-.002-.476-.004h-.176a6 6 0 0 0-.491.014l-.017.002c-.116.022-.156.063-.25.26l-.013.025a1.2 1.2 0 0 0-.108.285c0 .024.068.103.176.212l.02.02.034.034a8 8 0 0 0 .272.252l.236.209c.266.236.583.517.787.695l.027.023c.248.222.479.4.516.4m-.517-1.292c-.033 0-.198-.109-.365-.231l-.03-.022-.037-.028c-.153-.114-.293-.23-.318-.27-.012-.022.205-.015.435.004l.076.006c.21.019.407.046.429.067.017.017.004.134-.039.254l-.01.027c-.047.14-.088.193-.14.193m-10.2.41c-.056-.04-.095-.083-.082-.1.03-.052.548-.047.53.004-.008.026-.086.07-.18.104-.143.047-.182.047-.268-.009m.28.314c-.026-.01.135-.107.311-.2l.05-.027.039-.02.039-.02c.121-.06.23-.107.264-.108.038-.005.094.026.125.06l.006.01c.035.048.017.066-.097.115-.08.034-.212.076-.342.111l-.032.009c-.17.045-.332.079-.363.07m-13.492-.06-.057-.015-.101-.026c-.383-.1-.486-.144-.454-.192.048-.078.297-.043.483.06.094.053.238.121.33.154l.015.005c.262.085.105.09-.216.013m-7.73 2.3.14-.086c.71-.436 1.053-.671 1.053-.716 0-.017-.069-.12-.15-.237l-.152-.202-.207.103-.033.019c-.1.057-.284.168-.472.285l-.132.081-.04.025-.026.016c-.247.155-.456.263-.46.242a.3.3 0 0 1 .03-.085l.02-.048c.06-.135.17-.361.302-.617l.107-.207c.199-.387.351-.709.351-.74a.4.4 0 0 0-.062-.162l-.007-.01c-.095-.147-.276-.138-.599.025l-.044.023c-.495.26-1.741.974-1.787 1.028-.055.068.022.246.158.375l.019.017c.072.064.09.069.28-.03l.117-.062c.085-.045.201-.109.322-.177l.108-.06.096-.054.092-.053.11-.063c.2-.114.366-.198.374-.194.008.008-.084.19-.208.414l-.068.122-.13.238-.064.12c-.072.136-.14.268-.191.368l-.024.047c-.203.405-.198.487.047.72l.037.036c.114.109.155.075 1.092-.501m30.216.904.022-.042c.059-.115.052-.126-.018-.203a2.6 2.6 0 0 0-.416-.285l-.161-.093c-.55-.32-.96-.584-.944-.6.008-.013.418.116.909.284l.075.026c.456.16.85.275.886.267.108-.022.241-.276.211-.4-.017-.061-.301-.401-.633-.759l-.103-.108c-.286-.305-.5-.547-.488-.555.009-.009.34.194.742.456l.16.104c.328.209.584.366.602.366.052 0 .345-.358.328-.405a.1.1 0 0 0-.036-.032l-.01-.009c-.105-.076-.37-.247-.678-.433l-.345-.206c-.852-.508-1.097-.638-1.185-.638-.056 0-.138.052-.185.112-.134.172-.237.478-.194.577.021.048.306.353.629.69l.102.103c.276.283.473.5.454.5h-.003a1 1 0 0 1-.105-.032l-.051-.017-.08-.028a24 24 0 0 1-.524-.186l-.358-.128c-.574-.202-.596-.187-.706-.066a2 2 0 0 0-.207.301c-.082.16-.09.207-.052.298.035.069.358.297.948.663l.257.161c.376.235.684.42.736.45h.003c.172.091.323.044.418-.133m-30.13 1.215c.043 0 .362-.224.73-.516l.795-.633.09-.07c.04-.03.117.026.298.224l.02.02c.126.133.248.243.277.243.078 0 .276-.268.276-.37 0-.044-.172-.298-.38-.56l-.166-.21c-.59-.744-.662-.793-.824-.726-.06.026-.181.237-.181.328 0 .033.077.156.168.273l.008.011c.216.271.272.194-.676.956l-.092.075c-.343.28-.62.519-.632.554-.048.12.15.4.288.4m28.686.599c.211-.267.276-.466.276-.815-.004-.542-.392-1.11-.952-1.382-.22-.108-.746-.155-.961-.086-.53.172-.862.62-.862 1.176 0 .396.12.706.396 1.008.625.68 1.603.728 2.103.099m-.935-.151c-.496-.09-1.004-.59-1.004-.987 0-.193.16-.478.314-.555.181-.095.462-.06.703.082.194.112.43.379.551.611.22.431-.116.93-.564.849m-25.033 2.055.005-.005c.106-.089.39-.518.51-.77l.02-.041c.074-.155.121-.202.207-.214.155-.017.335-.148.484-.35l.011-.016c.17-.233.173-.49.01-.752l-.01-.015c-.119-.191-.886-.896-1.104-1.017l-.022-.012c-.082-.041-.111-.03-.276.138l-.103.106c-.167.172-.37.394-.568.617l-.117.132c-.373.424-.701.82-.701.859 0 .077.198.276.319.319.06.02.152-.05.4-.314l.345-.367.306.28.043.038c.152.135.267.252.267.268s-.09.165-.203.333l-.038.057c-.29.435-.288.543-.01.695l.01.005c.126.067.158.073.215.026m.41-1.551c-.09-.004-.599-.47-.599-.543 0-.034.065-.13.147-.211l.025-.027c.153-.16.212-.139.506.146l.024.023c.177.172.246.272.246.353 0 .168-.142.276-.349.259m22.09 2.645.193-.155-.073-.138-.008-.014a4 4 0 0 0-.294-.434l-.033-.047c-.11-.153-.195-.287-.195-.31 0-.021.172-.166.384-.327l.122-.091a3 3 0 0 0 .312-.255c0-.051-.129-.262-.19-.314-.103-.086-.232-.03-.585.25l-.023.019c-.169.137-.332.243-.365.243-.034-.004-.134-.09-.215-.202l-.044-.058c-.102-.137-.094-.146-.021-.196l.028-.019c.091-.06.213-.149.34-.242l.067-.05.042-.031.104-.08c.114-.086.217-.167.288-.226l.033-.027a.3.3 0 0 0 .067-.066c0-.06-.262-.353-.318-.353-.03 0-.168.082-.31.18l-.121.087c-.619.449-1.06.819-1.06.896 0 .021.39.532.789 1.045l.242.31c.317.402.59.74.61.747.022.009.13-.056.233-.142m-20.246.624c.119 0 .216-.273.488-1.386l.097-.403c.194-.806.201-.886.15-.99l-.006-.012c-.07-.134-.31-.31-.418-.31a.4.4 0 0 0-.147.052l-.018.01c-.129.084-.641.46-1.182.872l-.173.131-.128.099-.128.098-.556.426.164.168c.09.095.203.168.246.168s.163-.068.263-.15l.021-.017c.098-.074.201-.134.241-.134.121 0 .707.46.737.577a.6.6 0 0 1-.01.232l-.003.014a.6.6 0 0 0-.013.254c.026.108.268.301.375.301m-.16-1.378c-.012 0-.133-.078-.27-.168l-.25-.168.374-.306.04-.034a5 5 0 0 1 .198-.158l.017-.013c.078-.058.13-.09.138-.084a.6.6 0 0 1-.044.207 4 4 0 0 0-.113.42l-.015.075c-.028.129-.058.229-.074.229m18.26 2.05c.844-.426.934-1.516.193-2.3-.319-.34-.866-.538-1.237-.444a1.306 1.306 0 0 0-.982 1.275c.013 1.12 1.124 1.926 2.025 1.47m-15.6.323.003-.012c.026-.125-.056-.183-.61-.496l-.432-.242-.012-.007c-.008-.004.117-.279.29-.65l.178-.376c.213-.455.38-.843.38-.879-.004-.245-.375-.362-.551-.172-.134.142-1.052 2.12-1.035 2.236l.001.005c.015.076.168.176.683.454l.123.066c.338.179.633.33.68.345.108.034.259-.104.302-.272m15.142-.736c-.258 0-.663-.297-.827-.612-.1-.194-.164-.581-.12-.74a.66.66 0 0 1 .318-.371.7.7 0 0 1 .552.04l.013.007c.465.284.724.888.573 1.327-.052.146-.345.349-.509.349m-11.643 2.024c.185 0 .396-.124.538-.314.13-.172.151-.69.035-.87l-.082-.13.134-.193a.75.75 0 0 0 .145-.438l.004-.063c.013-.205-.002-.237-.124-.378l-.015-.017c-.186-.203-.381-.29-.952-.423l-.239-.055c-.48-.108-.527-.105-.616-.04-.043.04-.095.203-.138.466l-.075.426-.06.34-.031.17-.03.16-.037.2c-.132.721-.127.827.021.874l.005.001c.108.032.405.094.709.152l.087.016.147.027c.275.05.515.09.574.09m7.304.041.025-.012.012-.006c.093-.047.096-.076.084-.324l-.013-.221c-.024-.458-.013-.528.047-.545h.004c.038-.01.205.097.378.239l.186.15c.428.347.538.42.639.42.133 0 .474-.13.474-.18v-.007c-.008-.097-.185-.28-.711-.735l-.085-.074c-.28-.248-.497-.454-.497-.477 0-.026.142-.297.314-.608l.27-.494q.05-.092.054-.104c.016-.038-.123-.035-.37 0l-.048.006c-.141.022-.184.064-.362.325-.117.164-.285.431-.38.59l-.013.024c-.09.152-.177.27-.198.27-.043 0-.103-.186-.172-.53l-.006-.03c-.066-.299-.183-.382-.425-.306l-.021.006c-.132.038-.15.063-.151.17v.009c0 .073.11.573.235 1.099l.07.286c.118.488.234.935.27 1.015l.002.003c.055.118.192.133.388.041m-2.998-.456-.016-.208c-.03-.41-.036-.752-.02-.772l.005-.004c.03-.024.065.017.37.502l.346.55c.21.333.408.622.456.666.07.059.137.073.286.058l.041-.005c.2-.023.268-.082.243-.212l-.002-.009a20 20 0 0 1-.043-.818l-.005-.171c-.03-.849-.066-1.323-.107-1.436-.03-.073-.069-.095-.198-.095a.55.55 0 0 0-.224.039c-.027.017-.04.074-.041.242v.035c0 .102.004.239.01.424l.01.265q.01.234.01.37v.047c-.002.163-.014.214-.036.207-.024-.007-.158-.187-.32-.43l-.02-.028-.109-.167-.147-.227c-.4-.613-.446-.651-.632-.686a.9.9 0 0 0-.28-.005l-.015.004c-.086.024-.094.053-.105.332l-.002.05q-.003.076-.003.204v.034c0 .217.005.518.012.816l.002.097.003.096.007.201c.03.821.063.878.32.88h.031c.212-.002.23-.07.173-.846m-4.75-1.325-.03-.007c-.309-.078-.352-.133-.302-.363.043-.194.112-.267.22-.242l.117.03.172.04c.293.064.443.185.443.344 0 .254-.163.306-.62.198m3.693 1.507-.128-.51c-.403-1.606-.42-1.586-.786-1.578-.129 0-.258.012-.294.024l-.003.001c-.069.026-.319.522-.633 1.263l-.133.304c-.087.199-.17.384-.22.488l-.018.035a1.4 1.4 0 0 0-.125.31c0 .077.35.215.461.18.043-.012.142-.128.211-.253l.13-.224.425.004c.393.007.516.05.558.213l.003.015c.052.233.177.35.388.35l.027-.001c.258-.003.277-.053.137-.621m-1.008-.464-.027-.004a1.5 1.5 0 0 1-.266-.052c-.048-.048.267-.927.331-.927.021 0 .086.187.148.424l.015.059c.06.238.104.453.092.482l-.003.006c-.02.038-.089.04-.29.012m-2.957.09-.026-.005c-.299-.054-.338-.12-.28-.413q.06-.341.203-.288c.038.016.193.053.348.087l.067.015c.392.086.494.175.494.397 0 .246-.232.306-.806.207"/>
</svg>
