---
version: "3.0.7"
---
<svg>
  <path d="M28.43 9.222a7.62 7.62 0 0 1 0 10.94 7.9 7.9 0 0 1-3.407 1.966v1.087a.51.51 0 0 1-.516.505h-1.014a.51.51 0 0 1-.517-.506v-.788a7.97 7.97 0 0 1-5.721-2.263zm-3.923-5.816c.284 0 .517.227.517.506v.781a7.96 7.96 0 0 1 5.721 2.263L19.57 17.896a7.62 7.62 0 0 1 0-10.94 7.9 7.9 0 0 1 3.408-1.965V3.912a.51.51 0 0 1 .516-.506zM8.112 29.592h2.93l-3.87 10.41q-.83 2.225-2.196 3.235-1.368 1.009-3.404.905v-2.494q1.104.02 1.752-.458t1.03-1.538L0 29.592h2.994l2.77 6.985zm6.136 7.306q.826.822 2.101.821c1.275-.001 1.553-.273 2.113-.82q.839-.821.839-2.11 0-1.29-.84-2.11-.838-.822-2.112-.822c-1.274 0-1.55.274-2.102.822q-.828.82-.828 2.11 0 1.19.705 1.98zm5.053-7.306h2.739v10.393H19.3v-1.227q-1.23 1.518-3.461 1.518-2.123 0-3.641-1.59t-1.518-3.897q0-2.308 1.518-3.898t3.642-1.59q2.23 0 3.461 1.517zm9.935-.29q1.74 0 2.877 1.143 1.136 1.142 1.136 3.158v6.381H30.51v-6.048q0-1.039-.573-1.59-.574-.55-1.53-.55-1.06 0-1.698.644-.637.645-.637 1.933v5.611h-2.74V29.592h2.74v1.164q.998-1.455 3.164-1.455m15.021 10.682h-3.185l-3.865-4.721v4.721h-2.739V29.592h2.739v4.59l3.652-4.59h3.27l-4.267 5.134zM48 29.592v10.392h-2.74v-7.098zm0-3.585V29.3l-2.74-3.294z"/>
</svg>
