---
version: "0.0.4"
---
<svg>
  <path d="M46.5 1.5v45h-45v-45h45zm-41.063 5.157s2.632 .135 4.077 1.24c2.023 1.333 3.28 4.451 2.718 8.673l-2.459 18.368c-.33 2.25 -.986 5.958 -.986 5.958h3.531s.17 -2.169 .433 -4.414l.058 -.481l.061 -.48l2.354 -17.914l7.845 18.79c.991 2.332 1.57 3.457 3.633 5.04l9.25 -23.872l2.354 20.081c.135 1.42 .238 3.25 .238 3.25h4.581s-.298 -1.796 -.54 -3.546l-.056 -.418a68.376 68.376 0 0 1 -.053 -.411l-2.725 -20.455c-.017 -.192 -.035 -.41 -.052 -.637l-.027 -.344c-.06 -.806 -.115 -1.602 -.115 -1.602h-5.67v.041c0 .875 -.288 1.709 -.62 2.583l-6.853 17.665l-7.763 -18.373c-2.417 -5.645 -5.817 -7.955 -8.516 -8.607c-1.204 -.42 -4.697 -.135 -4.697 -.135z" />
</svg>
