<svg>
  <path d="M35.43 31.875v-13.55l-2.075-1.993v-.146h6.984c3.443 0 4.395.897 5.107 1.698.758.854 1.054 1.937 1.054 3.324 0 1.722-.397 2.762-1.422 3.706-1.122 1.036-2.916 1.255-4.226 1.255-.786 0-1.79-.103-1.973-.129l-.186-.026v5.86H35.43v.001Zm3.183-8.018.12.038c.417.128.99.135 1.5.135 2.01 0 2.98-1.024 2.98-2.651 0-2.253-1.837-2.579-2.932-2.579h-1.668v5.057Zm-17.602 8.018v-13.55l-2.115-1.993v-.146h7.472c2.002 0 3.46.414 4.228 1.053.948.788 1.262 1.513 1.262 2.828 0 1.506-.537 2.48-1.592 3.125-.09.056-.28.122-.28.122s.175.053.304.103c1.541.553 2.408 1.908 2.408 3.748 0 1.537-.502 2.792-1.576 3.544-1.084.755-2.529 1.165-4.78 1.165h-5.331v.001Zm3.143-2.615h1.91c1.777 0 2.69-.705 2.69-2.226 0-1.53-.781-2.35-2.583-2.35h-2.017v4.576Zm0-6.537h1.667c1.533 0 2.277-.728 2.277-1.986 0-.935-.41-1.81-2.17-1.937h-1.774v3.923Zm-10.362 9.09L6.357 21.639v10.176H3.299v-13.57L1.5 16.204v-.079h4.536l7.56 10.206V16.125h3.06v15.689h-2.864Z"/>
</svg>
