---
version: "0.4"
---
<svg>
  <path d="M23.988 10.698c2.598 0 4.704 -2.171 4.704 -4.85c0 -2.676 -2.106 -4.848 -4.704 -4.848c-2.597 0 -4.703 2.17 -4.703 4.849a4.92 4.92 0 0 0 1.376 3.43c.882 .91 2.08 1.42 3.327 1.419zm-9.115 14.26l.09 .036c1.52 .506 3.083 .859 4.669 1.051h.062v8.425c.934 -.02 1.683 -.803 1.686 -1.766v-3.927a7.782 7.782 0 0 1 .36 -2.46v-.057h.056c.604 .064 1.728 .1 2.775 .1c.7 0 1.367 -.05 1.818 -.05h.097v.093a8.664 8.664 0 0 0 -.278 2.296v3.461c-.019 1.551 -1.172 2.836 -2.67 2.975v.458l.166 .006c1.372 .095 2.459 1.267 2.47 2.705v4.92c-.008 .867 .13 1.728 .409 2.546v.079h-.076c-.954 .11 -1.913 .16 -2.872 .15c-.708 0 -1.34 -.022 -1.7 -.064h-.042v-.043a8.82 8.82 0 0 1 -.506 -2.954v-5.335c0 -.969 -.753 -1.758 -1.693 -1.774v9.827h-.076a18.437 18.437 0 0 1 -4.703 -1.43h-.042v-19.269zm22.858 -1.658a.845 .845 0 0 1 .825 .823l.007 12.823c0 2.16 -1.242 3.998 -2.775 5.32a16.751 16.751 0 0 1 -6.444 3.105a.99 .99 0 0 1 -.25 0c-.667 0 -1.207 -.558 -1.207 -1.245v-16.536c-.015 -.758 .521 -1.408 1.249 -1.516a22.324 22.324 0 0 0 8.22 -2.682a.853 .853 0 0 1 .375 -.093zm-13.111 -11.07c3.413 .01 6.8 .631 10.009 1.836a10.269 10.269 0 0 1 3.212 1.974a3.362 3.362 0 0 1 1.159 2.382a3.348 3.348 0 0 1 -1.158 2.374c-2.255 2.217 -7.59 3.812 -13.833 3.812l-.055 .021a28.6 28.6 0 0 1 -10.704 -1.859l-.11 -.072v20.404l-.098 -.064a9.416 9.416 0 0 1 -3.26 -3.354a5.65 5.65 0 0 1 -.77 -3.233v-17.207c-.094 -1.556 .653 -3.038 1.942 -3.855c2.622 -1.838 7.436 -3.154 13.028 -3.154l.64 -.005zm9.124 15.31h-.107a1.28 1.28 0 0 0 -.278 .036a.827 .827 0 0 0 -.645 .715v11.936a.476 .476 0 0 0 .076 .308a.8 .8 0 0 0 1.124 0c.277 -.167 .456 -.464 .479 -.794v-11.5l-.014 -.05a.627 .627 0 0 0 0 -.164a.741 .741 0 0 0 -.742 -.487h.107zm-4.124 -10.62h-10.987a1.191 1.191 0 0 0 -.527 .129a.94 .94 0 0 0 -.59 .808c.005 .13 .051 .256 .132 .357c.158 .173 .38 .27 .61 .265h11.717c.23 0 .45 -.101 .604 -.279a.56 .56 0 0 0 .131 -.358a.928 .928 0 0 0 -.562 -.793a1.191 1.191 0 0 0 -.527 -.13z" />
</svg>
