---
version: "0.0.4"
---
<svg>
  <path d="M22.041 2.801c.242 .636 -.037 .926 -.891 .926c-1.468 0 -4.798 2.664 -5.294 4.235c-.198 .628 -.908 1.08 -1.655 1.052c-.72 -.027 -1.43 .307 -1.58 .741c-.15 .435 .097 .712 .55 .617c.666 -.14 .854 2.498 .987 13.85c.143 12.204 .044 14.023 -.765 14.023c-.512 0 -.93 .278 -.93 .617c0 .339 .67 .616 1.49 .616c.94 0 1.63 .445 1.87 1.206c.525 1.664 3.816 4.342 5.337 4.342c1.044 0 1.126 .154 .49 .925c-.635 .77 -.554 .924 .487 .924c.686 0 1.409 -.347 1.606 -.77c.286 -.617 .429 -.617 .714 0c.197 .423 .92 .77 1.607 .77c1.005 0 1.109 -.17 .532 -.87c-.584 -.706 -.374 -.944 1.124 -1.275c1.708 -.378 5.568 -3.993 5.568 -5.216c0 -.295 .551 -.391 1.225 -.214c1.354 .356 1.71 -.735 .404 -1.24c-.623 -.24 -.756 -1.485 -.553 -5.15c.258 -4.653 .194 -4.937 -1.678 -7.517l-1.946 -2.683l1.289 -1.38c1.57 -1.683 2.484 -4.699 2.484 -8.2c0 -2.01 .232 -2.624 .993 -2.624c.827 0 .862 -.16 .209 -.953c-.433 -.524 -1.135 -.818 -1.56 -.653c-.427 .164 -1.243 -.447 -1.817 -1.36c-1.379 -2.195 -3.378 -3.784 -4.782 -3.801c-.757 -.01 -1.02 -.323 -.785 -.939c.41 -1.072 -.88 -1.248 -1.867 -.254c-.48 .483 -.781 .483 -1.077 0c-.636 -1.036 -2.194 -.814 -1.786 .254m1.479 3.74c.72 .874 .844 .874 1.33 0c3.123 -5.615 9.146 6.83 6.086 12.575c-1.733 3.25 -2.548 3.077 -2.548 -.542c0 -2.932 .098 -3.134 1.53 -3.134c.843 0 1.532 -.309 1.532 -.686c0 -.463 -.886 -.553 -2.718 -.276c-2.3 .347 -2.814 .228 -3.347 -.774c-.74 -1.392 -.32 -2.025 1.002 -1.513c.63 .243 .847 .075 .655 -.505c-.18 -.546 -1.16 -.869 -2.636 -.869c-1.475 0 -2.454 .323 -2.635 .869c-.198 .597 .025 .748 .714 .481c1.486 -.573 1.258 1.174 -.297 2.27c-.925 .652 -1.719 .755 -2.756 .358c-1.445 -.553 -2.092 .177 -.844 .954c1.316 .818 .731 6.472 -.67 6.472c-2.496 0 -1.492 -11.609 1.25 -14.453c2.333 -2.422 3.17 -2.658 4.352 -1.227m-18.42 8.605c-.426 .517 -.583 1.132 -.348 1.369c.235 .236 .676 .024 .98 -.472c1.05 -1.71 2.089 .486 2.339 4.948c.199 3.531 .065 4.364 -.746 4.677c-.543 .21 -.966 .977 -.94 1.703c.028 .727 .188 .975 .358 .55c.718 -1.789 1.432 -.54 1.432 2.502c0 4.175 -1.328 6.329 -2.756 4.47c-.903 -1.177 -.919 -1.175 -.919 .087c0 1.644 1.548 2.246 3.26 1.267c.734 -.42 1.88 -.766 2.548 -.768c.666 -.004 1.307 -.491 1.422 -1.083c.149 -.765 -.07 -.969 -.754 -.705c-.84 .325 -.961 -.483 -.945 -6.32l.017 -6.693l1.82 2.014c2.392 2.646 2.63 .515 .288 -2.575c-1.757 -2.318 -1.945 -3.445 -.576 -3.445c.528 0 .772 -.297 .545 -.666c-.224 -.367 -1.036 -.508 -1.803 -.314c-.854 .215 -1.688 -.005 -2.152 -.567c-.97 -1.176 -2.089 -1.169 -3.07 .02m20.837 3.949v3.126h-5.059l.31 -2.768c.668 -5.965 4.75 -6.273 4.75 -.358m9.187 -4.367c0 .287 .551 1.023 1.225 1.636c2.459 2.24 .767 6.473 -2.587 6.473c-1.606 0 -1.319 .789 .713 1.952c1.272 .728 2 1.805 2.503 3.698c1.685 6.348 3.816 8.632 6.002 6.434c.56 -.564 .684 -.989 .289 -.989c-.381 0 -.82 .347 -.977 .771c-.499 1.355 -2.276 -.958 -2.685 -3.495c-.264 -1.639 -.127 -2.485 .463 -2.852c.662 -.411 .584 -.619 -.37 -.986c-2.66 -1.026 -3.385 -2.818 -1.756 -4.338c.807 -.753 1.468 -1.707 1.468 -2.12c0 -.413 .482 -1.307 1.072 -1.985c.589 -.678 .728 -1.031 .308 -.784c-.48 .282 -1.016 -.111 -1.445 -1.059c-.81 -1.79 -4.223 -3.693 -4.223 -2.356m-15.939 11.961l-.013 2.004l-1.198 -1.54c-1.524 -1.962 -1.524 -2.467 0 -2.467c.976 0 1.222 .406 1.211 2.003m6.751 2.035c0 2.488 -.374 4.766 -.975 5.936l-.977 1.9l-1.164 -1.776c-.852 -1.301 -1.164 -2.889 -1.167 -5.937l-.004 -4.16h4.287v4.037zm5.842 1.757c1.054 7.075 -3.96 15.731 -6.827 11.785c-.82 -1.13 -.881 -1.131 -1.666 -.052c-.958 1.318 -2.263 .818 -4.696 -1.8c-1.365 -1.469 -2.999 -12.73 -1.655 -11.413c1.427 1.4 5.94 7.777 5.94 8.393c0 1.1 -1.064 1.636 -1.395 .703c-.151 -.425 -.484 -.578 -.74 -.338c-.588 .55 .06 2.338 .847 2.338c.323 0 1.021 -.436 1.55 -.969c.876 -.88 1.05 -.88 1.926 0c1.336 1.345 2.712 1.211 2.712 -.264c0 -.678 -.276 -1.233 -.613 -1.233c-.336 0 -.612 .337 -.612 .748c0 .487 -.345 .402 -.985 -.242c-.905 -.911 -.877 -1.14 .348 -2.807c1.457 -1.982 2.426 -5.422 2.48 -8.794l.033 -2.158l1.474 1.684c.828 .946 1.651 2.881 1.88 4.42" />
</svg>
