<svg>
  <path d="M28.914 1.5c3.272 0 6.423 1.848 7.906 4.989l8.848 18.724c2.049 4.335.182 9.557-4.153 11.604l-18.734 8.85a8.602 8.602 0 0 1-3.697.833c-3.27 0-6.419-1.845-7.905-4.986L2.331 22.78c-2.047-4.331-.18-9.552 4.151-11.6l18.736-8.849a8.633 8.633 0 0 1 3.696-.832Zm0 3.312c-.793 0-1.563.175-2.283.515L7.904 14.174a5.41 5.41 0 0 0-2.58 7.195l3.903 8.262 2.831-5.853-4.162-7.812h4.854l4.34 7.812-5.032 10.397h-.684l2.798 5.922c.888 1.88 2.816 3.09 4.912 3.09a5.3 5.3 0 0 0 2.282-.513l18.731-8.85a5.357 5.357 0 0 0 2.769-3.067 5.343 5.343 0 0 0-.19-4.125l-8.848-18.73c-.889-1.877-2.817-3.09-4.914-3.09Zm-.695 11.154 4.336 7.812-5.026 10.397H22.5l5.029-10.397-4.165-7.812h4.855Zm-7.353 0 4.337 7.812-5.028 10.397h-5.033l5.033-10.397-4.164-7.812h4.855Z"/>
</svg>
