<svg>
  <path d="M21.811 11.654c0 5.603-4.554 10.155-10.157 10.155C6.048 21.809 1.5 17.26 1.5 11.654 1.5 6.041 6.048 1.5 11.654 1.5c5.603 0 10.157 4.538 10.157 10.154m24.689 0C46.5 6.041 41.952 1.5 36.348 1.5 30.746 1.5 26.2 6.04 26.2 11.654c0 5.603 4.546 10.155 10.148 10.155 5.607-.002 10.152-4.55 10.152-10.155M21.811 36.35c0-5.607-4.554-10.147-10.157-10.147-5.606 0-10.154 4.54-10.154 10.147s4.548 10.155 10.154 10.155c5.603 0 10.157-4.546 10.157-10.155m24.689 0c0-5.607-4.548-10.147-10.152-10.147-5.602 0-10.148 4.54-10.148 10.147s4.546 10.155 10.148 10.155c5.607 0 10.152-4.546 10.152-10.155"/>
</svg>
