---
version: "0.0.4"
---
<svg>
  <path d="M28.996 4.875c.04 .008 .082 .015 .12 .027c3.76 1.15 7.249 2.824 10.34 5.28c1.773 1.41 3.316 3.032 4.55 4.938c1.033 1.598 1.783 3.314 2.18 5.178c.302 1.41 .388 2.832 .25 4.267c-.277 2.855 -1.366 5.39 -3.05 7.687c-1.349 1.841 -2.991 3.387 -4.83 4.727c-2.285 1.664 -4.776 2.933 -7.422 3.911a37.568 37.568 0 0 1 -6.847 1.81a42.325 42.325 0 0 1 -4.449 .503a42.04 42.04 0 0 1 -4.709 .025c-3.933 -.201 -7.767 -.916 -11.476 -2.26c-.078 -.028 -.153 -.061 -.228 -.09c.004 -.013 .008 -.023 .01 -.034c.052 .01 .105 .019 .155 .034a35.82 35.82 0 0 0 4.112 .871c.986 .144 1.98 .258 2.97 .354c1.382 .136 2.773 .178 4.162 .157c1.167 -.017 2.33 -.08 3.49 -.188c1.78 -.17 3.544 -.449 5.284 -.85c3.538 -.822 6.898 -2.093 10.015 -3.974c1.697 -1.027 3.272 -2.212 4.684 -3.61c1.774 -1.757 3.213 -3.749 4.149 -6.078c.54 -1.343 .88 -2.734 .997 -4.177c.212 -2.61 -.287 -5.081 -1.418 -7.436c-.882 -1.837 -2.08 -3.452 -3.504 -4.9c-1.978 -2.01 -4.26 -3.598 -6.766 -4.873c-.838 -.428 -1.71 -.792 -2.564 -1.184c-.069 -.031 -.14 -.06 -.205 -.115zm-10.224 30.301c.57 .031 1.144 .013 1.715 .004a.354 .354 0 0 1 .33 .164a7.611 7.611 0 0 0 1.794 1.767c.411 .292 .84 .551 1.347 .648c.034 .006 .065 .023 .115 .044l-.502 .465c-.224 -.118 -.448 -.23 -.668 -.35c-.889 -.484 -1.632 -1.14 -2.277 -1.913c-.032 -.037 -.07 -.073 -.088 -.117c-.071 -.155 -.189 -.193 -.352 -.188c-.461 .01 -.922 .008 -1.38 .002c-.12 -.002 -.187 .04 -.252 .14c-.444 .71 -.98 1.343 -1.648 1.848c-.338 .255 -.717 .456 -1.08 .678c-.11 .067 -.234 .12 -.368 .187l-.442 -.488c.053 -.017 .12 -.044 .189 -.061c.37 -.092 .697 -.268 1.014 -.482a5.64 5.64 0 0 0 1.09 -.938c.292 -.33 .562 -.679 .795 -1.05c.167 -.268 .345 -.377 .668 -.36zm8.49 -25.152c.909 1.472 1.338 3.079 1.26 4.807c-.098 2.176 -.942 4.04 -2.433 5.618c-.09 .096 -.18 .197 -.283 .278a.37 .37 0 0 0 -.147 .367c.004 .067 .013 .134 .023 .23a8.23 8.23 0 0 1 1.567 -.387c1.839 -.256 3.609 -.023 5.287 .779c2.218 1.058 3.791 2.73 4.618 5.056c1.018 2.864 .375 6.077 -1.656 8.383c-1.444 1.638 -3.251 2.641 -5.402 2.99c-3.702 .598 -7.346 -1.021 -9.294 -4.171a4.809 4.809 0 0 1 -.268 -.474c-.061 -.13 -.14 -.182 -.29 -.18c-.467 .01 -.936 .009 -1.403 0c-.14 -.002 -.21 .048 -.272 .17a8.75 8.75 0 0 1 -3.303 3.477a8.732 8.732 0 0 1 -3.785 1.244c-3.3 .279 -6.035 -.831 -8.14 -3.4a7.985 7.985 0 0 1 -1.772 -4.187c-.317 -2.668 .46 -5 2.3 -6.954c1.437 -1.527 3.217 -2.425 5.293 -2.731a9.155 9.155 0 0 1 4.924 .613a.362 .362 0 0 0 .189 .034l-.19 -.14c-1.729 -1.263 -2.912 -2.91 -3.386 -5.007c-.668 -2.968 .067 -5.592 2.122 -7.823c1.404 -1.525 3.163 -2.43 5.21 -2.763c3.638 -.595 7.301 1.041 9.23 4.17zm-18.075 11.46c-2.049 .311 -3.787 1.229 -5.153 2.792c-1.667 1.912 -2.304 4.147 -1.879 6.652c.3 1.764 1.146 3.249 2.44 4.478c2.219 2.106 5.45 2.87 8.404 1.978c2.12 -.641 3.762 -1.91 4.906 -3.813c.042 -.069 .077 -.142 .134 -.247h-.287c-.907 0 -1.816 .021 -2.721 -.008c-.651 -.021 -1.244 .12 -1.787 .475c-.03 .02 -.065 .028 -.098 .042a.224 .224 0 0 1 -.03 -.033c.116 -.182 .229 -.365 .346 -.545c.199 -.304 .413 -.597 .6 -.907c.209 -.35 .353 -.729 .37 -1.143c.006 -.168 -.01 -.336 -.004 -.501c.031 -.878 .086 -1.757 .1 -2.635c.03 -1.856 .038 -3.712 .057 -5.57c-.002 -.048 -.009 -.096 -.01 -.142a.58 .58 0 0 0 -.055 -.04l-.149 -.075a8.865 8.865 0 0 0 -5.184 -.759zm16.801 .299c-.07 .023 -.138 .052 -.222 .084c.082 .249 .144 .486 .239 .71c.312 .754 .632 1.504 .953 2.256c.343 .81 .66 1.63 .842 2.494c.15 .717 .203 1.437 .084 2.164c-.153 .928 -.572 1.726 -1.175 2.438a3.472 3.472 0 0 1 -1.657 1.085a6.903 6.903 0 0 1 -1.835 .29c-.629 .02 -1.257 .018 -1.885 .025c-.074 -.005 -.147 -.005 -.22 -.005c0 .044 -.005 .059 0 .07c.027 .056 .056 .11 .088 .165a7.954 7.954 0 0 0 1.862 2.189c2.044 1.657 4.378 2.293 6.973 1.868c2.29 -.373 4.14 -1.512 5.502 -3.391c1.337 -1.841 1.816 -3.909 1.4 -6.15c-.39 -2.103 -1.5 -3.776 -3.222 -5.04c-1.43 -1.049 -3.046 -1.583 -4.818 -1.648a8.266 8.266 0 0 0 -2.909 .396zm-15.94 .87v.4c-.111 .008 -.22 .016 -.33 .022c-2.22 .149 -3.973 1.127 -5.206 2.985a5.744 5.744 0 0 0 -.97 3.66c.153 2.165 1.194 3.82 3.02 4.968c2.296 1.441 5.388 1.307 7.526 -.375c.036 -.034 .076 -.06 .12 -.094c.033 .044 .058 .075 .081 .109l.13 .2c-.05 .047 -.094 .09 -.142 .129a6.441 6.441 0 0 1 -3.278 1.374c-2.231 .272 -4.19 -.344 -5.83 -1.886c-1.177 -1.106 -1.88 -2.475 -2.027 -4.09c-.224 -2.49 .716 -4.49 2.68 -6.004c1.03 -.793 2.215 -1.23 3.51 -1.353c.232 -.023 .469 -.031 .716 -.046zm18.898 -.21c.305 .02 .582 .027 .856 .06c1.689 .216 3.136 .922 4.307 2.162c1.051 1.114 1.67 2.438 1.787 3.967c.153 1.999 -.49 3.729 -1.892 5.16c-1.219 1.246 -2.717 1.933 -4.453 2.075c-1.751 .143 -3.347 -.289 -4.767 -1.336c-.067 -.048 -.13 -.105 -.208 -.166l.203 -.339c.055 .036 .103 .063 .145 .094c1.288 .964 2.738 1.429 4.346 1.353c2.788 -.13 5.113 -1.941 5.92 -4.41c.779 -2.385 .012 -4.997 -1.95 -6.639c-1.171 -.978 -2.527 -1.483 -4.05 -1.548c-.06 0 -.123 -.004 -.203 -.01l-.041 -.423zm-6.666 2.804c-.163 .049 -.318 .13 -.485 .202c.316 1.214 .965 2.237 1.594 3.276c-1.21 -.629 -2.127 -1.576 -2.927 -2.663l-1.925 .88l-.001 1.462v2.91c.114 -.011 .205 -.017 .295 -.03c1.443 -.207 2.886 -.408 4.33 -.628a2.24 2.24 0 0 0 1.103 -.476c.306 -.251 .482 -.563 .476 -.978l-.007 -.67l.002 -1.34c0 -.503 -.157 -.962 -.416 -1.385a1.345 1.345 0 0 0 -.84 -.616c-.405 -.103 -.805 -.059 -1.199 .056zm-1.428 -8.88c-.073 .039 -.149 .079 -.216 .127c-.26 .188 -.521 .375 -.775 .572c-.557 .431 -1.112 .867 -1.667 1.298c-.036 .028 -.08 .044 -.14 .076l-.044 -1.41a40.59 40.59 0 0 0 -1.238 .002c.38 3.722 .398 7.409 -.128 11.096h1.405l-.031 -2.219l1.854 -1.108c.354 .629 .737 1.209 1.187 1.745c.474 .564 .985 1.087 1.588 1.512c.05 .036 .096 .09 .184 .084c-.054 -.094 -.104 -.17 -.146 -.251c-.262 -.51 -.536 -1.01 -.775 -1.53a4.577 4.577 0 0 1 -.425 -1.631a4.812 4.812 0 0 0 -.08 -.622c-.052 -.264 -.266 -.398 -.53 -.34a1.317 1.317 0 0 0 -.216 .076c-.199 .084 -.398 .172 -.595 .26c-.274 .121 -.555 .23 -.819 .368a1.163 1.163 0 0 1 -1.22 -.09c-.194 -.146 -.357 -.595 -.16 -.871c.168 -.235 .354 -.448 .622 -.574a3.51 3.51 0 0 0 .277 -.149c1.03 -.607 2.065 -1.217 3.1 -1.824a.24 .24 0 0 0 .127 -.176c.126 -.679 .252 -1.357 .38 -2.036a.827 .827 0 0 0 -.072 -.549c-.295 -.561 -.586 -1.127 -.89 -1.684c-.14 -.258 -.293 -.291 -.557 -.153zm-5.624 -8.951c-2.972 1.676 -4.72 4.983 -4.076 8.483c.398 2.168 1.533 3.881 3.305 5.18c.03 .023 .07 .032 .121 .055v-.187c-.008 -.643 -.018 -1.284 -.025 -1.927c-.014 -1.801 -.029 -3.6 -.042 -5.402c-.004 -.635 -.006 -1.27 -.138 -1.896c-.144 -.695 -.364 -1.36 -.79 -1.943c-.018 -.028 -.03 -.06 -.052 -.103c.059 .002 .1 .002 .14 .006c.545 .076 1.09 .168 1.639 .222a6.71 6.71 0 0 0 1.545 -.012c.241 -.03 .476 -.086 .719 -.134c-.013 .23 -.032 .465 -.036 .7c-.004 .286 .013 .573 .118 .843c.125 .325 .36 .505 .714 .52c.262 .01 .513 -.042 .76 -.12a8.61 8.61 0 0 0 1.496 -.649c1.022 -.545 2.038 -1.1 3.056 -1.653c.071 -.037 .144 -.073 .232 -.117c.009 .067 .015 .107 .017 .147c.042 .639 .193 1.252 .442 1.843c.235 .555 .538 1.072 .86 1.577c.294 .459 .6 .91 .874 1.38c.183 .313 .342 .642 .472 .979c.301 .792 .217 1.56 -.201 2.296c-.258 .452 -.595 .842 -.966 1.204c-.823 .802 -1.766 1.439 -2.744 2.021c-1.38 .82 -2.78 1.605 -4.166 2.411c-.153 .09 -.29 .218 -.41 .348c-.133 .142 -.147 .325 -.087 .511c.082 .258 .281 .375 .526 .419c.241 .044 .467 -.013 .687 -.122c.306 -.15 .618 -.29 .93 -.427c.427 -.186 .878 -.327 1.253 -.62c.094 -.073 .19 -.142 .287 -.21l3.56 -2.471c.07 -.048 .137 -.096 .2 -.153a7.564 7.564 0 0 0 1.627 -2.059c.528 -.989 .798 -2.046 .884 -3.16c.136 -1.756 -.218 -3.398 -1.167 -4.881c-1.569 -2.447 -3.837 -3.77 -6.736 -3.995c-1.716 -.132 -3.33 .25 -4.828 1.096zm5.252 10.314c.094 .031 .18 .102 .258 .172c.285 .261 .41 .611 .492 .974c.063 .28 .088 .571 .13 .86c-.008 .375 -.071 .73 -.245 1.058a2.04 2.04 0 0 1 -.262 .402c-.203 .23 -.4 .467 -.672 .625a26.95 26.95 0 0 1 -.93 .52a1.14 1.14 0 0 1 -.589 .116c-.285 -.012 -.44 -.22 -.408 -.502c.023 -.214 .014 -.432 .016 -.648c.005 -.622 .013 -1.242 .007 -1.864c-.002 -.27 .044 -.513 .238 -.71c.151 -.153 .294 -.318 .463 -.45a6.36 6.36 0 0 1 .677 -.455a.97 .97 0 0 1 .825 -.098zm-10.51 -2.097c.024 .903 .202 1.768 .552 2.587c.348 .823 .951 1.466 1.573 2.105c-1.812 -.308 -3.544 -.12 -5.226 .69c-.146 -.143 -.31 -.3 -.477 -.464c.033 -.023 .048 -.04 .067 -.044c.37 -.056 .7 -.234 1.047 -.354a8.803 8.803 0 0 1 2.792 -.486c.138 -.002 .275 0 .444 0c-.042 -.07 -.063 -.113 -.09 -.15a5.812 5.812 0 0 1 -1.043 -2.353c-.075 -.368 -.115 -.743 -.172 -1.116c-.02 -.13 -.048 -.26 -.073 -.407c.197 -.035 .392 -.018 .605 -.008zm20.238 -.392c-.099 .604 -.17 1.192 -.3 1.768c-.086 .377 -.237 .744 -.394 1.098c-.174 .394 -.379 .775 -.706 1.14c.114 .003 .185 .012 .254 .008a7.054 7.054 0 0 1 1.91 .184c.44 .107 .87 .253 1.301 .392c.297 .096 .586 .207 .873 .308l-.442 .463a8.727 8.727 0 0 0 -2.549 -.755c-.892 -.127 -1.765 -.016 -2.696 .095c.06 -.078 .088 -.126 .126 -.168c.243 -.268 .499 -.528 .733 -.804c.442 -.522 .769 -1.11 .964 -1.768c.186 -.63 .324 -1.27 .3 -1.952c.213 -.03 .41 -.02 .626 -.009zm-10.327 2.69c-.046 .019 -.092 .035 -.132 .063c-.266 .176 -.54 .345 -.796 .536c-.337 .251 -.538 .568 -.486 1.02c.034 .272 .007 .55 .007 .873c.894 -.481 1.753 -.942 2.622 -1.411c-.057 -.172 -.096 -.319 -.153 -.461c-.046 -.115 -.1 -.23 -.165 -.337c-.22 -.352 -.511 -.44 -.897 -.283zm1.546 -4.65l-2.933 1.54v3.108c.218 -.172 .411 -.32 .602 -.472c.442 -.354 .88 -.71 1.321 -1.062c.16 -.125 .33 -.232 .532 -.282a.469 .469 0 0 1 .493 .15c.058 .068 .109 .145 .15 .225c.245 .454 .484 .91 .73 1.365c.064 .122 .138 .24 .205 .356c.354 -.159 .653 -.425 .804 -.743c.199 -.415 .22 -.828 -.038 -1.234c-.593 -.936 -1.181 -1.877 -1.772 -2.817c-.027 -.042 -.056 -.08 -.094 -.134z" />
</svg>
