---
version: "3.1.12"
---
<svg>
  <path d="m5.812 41.985.144-.007a.7.7 0 0 0 .246-.056l.723-.466c.816-.545 2.557-1.758 6.039-4.358l2.132-1.616A334 334 0 0 0 28.37 24.7l2.864-2.487c6.15-5.388 11.213-10.1 11.784-10.652l.467-.468c.654-.683 1.342-1.61.939-2.897l-.113-.303a1 1 0 0 0-.155-.31l.244.177c.766.58 2.581 2.144 2.68 4.018.126.878-.629 1.88-1.762 3.008l.262.597c1.1 2.61 1.734 5.536 1.5 8.679C47.081 36.723 36.758 47 24.043 47c-4.784 0-9.19-1.504-12.842-3.886l-1.218.893c-1.398 1.002-1.902 1.165-2.81.36-.756-.5-1.26-1.127-1.637-1.503l-.252-.25c-.452-.563-.498-.924-.503-1.083.16.292.466.455.881.455zM39.024 6.39h-3.903l-.798.007c-3.294.057-10.343.42-12.42.995-.63.251-1.008.627-1.008 1.128 0 .251.126.627.378.752l2.453 1.444c.693.412 1.275.764 1.324.813.252.25.378.626 0 1.128s-.63.626-.63.626l-5.214 6.718c-.605.782-1.157 1.498-1.584 2.056L9.919 33.015l-3.72 5.313.218.274c-3.273-4.01-5.287-9.15-5.287-14.665C1.13 11.277 11.453 1 24.169 1c5.665 0 10.827 2.005 14.855 5.39"/>
</svg>
