<svg>
  <path d="M23.373 3.495c-.107.094-.14.16-.157.313-.012.106-.038.192-.057.192-.02 0-.036.055-.036.12 0 .2-.182.5-.303.5-.035 0-.064.018-.064.041 0 .023-.046.041-.102.041-.056 0-.102.019-.102.042 0 .022-.05.041-.113.041-.25.002-.296.037-.296.232 0 .1.019.18.041.18.023 0 .041.027.041.06 0 .032.023.084.051.114.028.03.087.12.13.2l.122.223c.024.045.078.119.118.165a.5.5 0 0 1 .097.199c.013.062.04.113.059.113.02 0 .036.047.036.103 0 .057.018.104.04.104.023 0 .041.044.041.1 0 .054.017.105.037.113.021.007.048.19.06.406.012.216.013.36 0 .32-.011-.04-.038-.072-.059-.072-.02 0-.038-.038-.038-.083 0-.045-.018-.083-.04-.083-.023 0-.041-.027-.041-.061 0-.035-.018-.062-.039-.062-.02 0-.05-.038-.064-.083-.035-.114-.534-.62-.61-.62-.035 0-.063-.018-.063-.04 0-.023-.046-.042-.102-.042-.056 0-.102-.018-.102-.041 0-.025-.19-.041-.49-.041s-.49.016-.49.04-.046.042-.102.042c-.057 0-.103.019-.103.041 0 .023-.034.042-.076.042a.19.19 0 0 0-.128.062c-.028.034-.076.062-.107.062-.03 0-.056.014-.056.032 0 .018-.058.067-.128.109-.134.08-.359.309-.36.367-.001.019-.03.062-.063.096a.263.263 0 0 0-.061.162c0 .055-.019.1-.041.1-.023 0-.041.11-.041.248 0 .137.016.248.036.248.02 0 .047.074.061.165.015.091.044.165.067.165.022 0 .04.03.04.066 0 .059.42.512.475.512a.71.71 0 0 1 .15.092c.177.127.801.16 1.024.052.083-.04.164-.058.18-.04.016.017.006.04-.022.05-.028.01-.051.045-.051.077s-.017.058-.038.058c-.021 0-.05.039-.065.086-.026.081-.602.699-.652.699a.531.531 0 0 0-.135.103c-.06.057-.126.103-.146.103-.02 0-.066.035-.103.077a.415.415 0 0 1-.158.106c-.05.016-.092.047-.092.068 0 .02-.024.038-.053.038-.03 0-.092.037-.14.081a.52.52 0 0 1-.19.108c-.059.015-.106.043-.106.063 0 .02-.037.037-.082.037-.045 0-.082.015-.082.032 0 .018-.092.069-.204.113-.112.044-.204.094-.204.112 0 .018-.037.032-.082.032-.045 0-.081.019-.081.041 0 .023-.02.042-.045.042a.68.68 0 0 0-.174.058l-.261.113c-.073.03-.133.068-.133.085 0 .015-.11.041-.245.057-.135.015-.245.044-.245.064 0 .02-.083.036-.184.036-.1 0-.183.018-.183.04 0 .028-.436.042-1.225.042-.79 0-1.225-.014-1.225-.041 0-.023-.115-.041-.263-.041-.145 0-.273-.017-.285-.037-.013-.02-.179-.05-.37-.065-.191-.017-.358-.047-.37-.067-.013-.02-.086-.038-.162-.038-.076 0-.15-.018-.163-.041-.014-.023-.078-.041-.143-.041-.065 0-.128-.017-.14-.038-.013-.02-.115-.05-.227-.066-.113-.015-.215-.045-.227-.065-.013-.021-.06-.038-.103-.038a.424.424 0 0 1-.16-.041l-.159-.08a1.146 1.146 0 0 0-.234-.068.497.497 0 0 1-.179-.056 1.265 1.265 0 0 0-.355-.168c-.063 0-.257-.101-.257-.134 0-.017-.037-.03-.082-.03-.045 0-.082-.02-.082-.042 0-.023-.026-.041-.058-.041a.191.191 0 0 1-.112-.054 1.17 1.17 0 0 0-.211-.134c-.087-.044-.192-.1-.235-.122-.043-.022-.078-.054-.078-.072 0-.017-.025-.031-.056-.031s-.08-.028-.107-.062c-.028-.034-.077-.062-.11-.062-.03 0-.096-.037-.145-.083-.114-.108-.322-.108-.399 0-.032.046-.081.083-.109.083-.028 0-.119.074-.202.165-.083.09-.168.165-.19.165-.042 0-1.61 1.591-1.897 1.925-.095.11-.237.273-.316.361-.135.15-.194.357-.103.357.023 0 .04.046.04.103 0 .056.02.103.042.103.022 0 .04.046.04.103 0 .057.017.103.036.103.02 0 .048.092.063.205.014.113.044.216.066.23.022.013.04.07.04.125 0 .056.015.1.034.1.03 0 .097.26.156.61.013.074.04.145.06.157.02.013.036.095.036.183 0 .089.018.172.04.186.025.015.041.283.041.663 0 .398-.015.638-.04.638-.023 0-.041-.084-.041-.187 0-.164-.054-.33-.127-.391a.356.356 0 0 1-.05-.126c-.023-.098-.31-.452-.367-.452a.893.893 0 0 1-.175-.103c-.248-.17-1.323-.123-1.323.058 0 .016-.064.055-.143.086a.756.756 0 0 0-.232.152c-.048.053-.106.096-.128.096-.075 0-.342.33-.418.516-.042.102-.09.186-.108.186-.018 0-.033.061-.033.136 0 .075-.019.156-.043.18-.078.08.001 1.304.089 1.358.02.013.036.06.036.103 0 .044.017.08.038.08.02 0 .049.054.063.119a.463.463 0 0 0 .115.202c.05.047.123.133.164.192.04.059.098.107.13.107.03 0 .067.034.08.076.013.042.088.112.166.154.078.043.142.09.142.104 0 .015.101.08.225.142.123.064.225.13.225.15 0 .019.027.034.06.034.034 0 .062.018.062.04 0 .021.064.051.143.066.079.015.143.044.143.064 0 .02.033.037.075.037.04 0 .087.012.102.028.14.142 1.206.23 1.68.139.435-.084.47-.093.47-.13 0-.02.046-.037.102-.037.056 0 .102-.017.102-.038 0-.021.06-.051.133-.067a.398.398 0 0 0 .153-.057c.054-.073.692-.33.827-.332.04-.001.071-.02.071-.043 0-.025.184-.041.47-.041s.47.016.47.041c0 .023.108.041.242.041s.254.019.268.042c.014.022.088.04.166.04.077 0 .14-.018.14-.04 0-.023.035-.042.077-.042.112 0 .163-.41.051-.413-.014 0-.08-.084-.148-.186-.068-.102-.137-.185-.153-.185-.017 0-.03-.028-.03-.062s-.018-.062-.04-.062c-.02 0-.05-.084-.065-.186-.016-.103-.044-.197-.064-.21-.02-.012-.036-.122-.036-.244s-.019-.234-.04-.248c-.025-.015-.043-.295-.044-.694-.002-.367-.02-.807-.043-.978l-.062-.495a.61.61 0 0 0-.06-.225c-.02-.022-.037-.09-.037-.152 0-.061-.023-.12-.05-.129-.064-.021-.074-.885-.011-.93.056-.04.265-.327.265-.363 0-.054.225-.224.296-.224.04 0 .072-.019.072-.041 0-.023.063-.042.14-.042.077 0 .152.019.166.042.014.022.107.04.206.04.1 0 .182.018.182.038s.069.047.153.06c.423.063.704.127.704.157 0 .02.065.035.143.035.079 0 .143.019.143.041 0 .023.064.042.143.042.079 0 .143.016.143.035 0 .02.073.048.163.063.09.014.164.045.164.067 0 .023.035.04.078.04.074 0 .079.044.092.73.01.537.027.734.064.747.028.01.051.043.051.075 0 .115.22.338.437.446l.226.113c.107.055.673.044.776-.015.144-.083.317-.267.317-.337 0-.036.018-.065.04-.065.158 0 .003-.603-.2-.78-.056-.049-.046-.053.074-.03a.42.42 0 0 1 .209.108c.039.045.091.082.117.082.025 0 .046.014.046.031s.046.085.102.151c.056.066.102.145.102.176 0 .03.018.055.04.055.023 0 .042.047.042.103 0 .057.018.104.04.104.023 0 .041.064.041.142 0 .078-.018.153-.04.167-.023.014-.041.126-.041.248s-.016.232-.036.244c-.02.013-.048.19-.064.395-.016.204-.046.382-.067.395-.02.013-.037.115-.037.228 0 .112-.019.204-.041.204-.023 0-.041.073-.041.162 0 .09-.017.173-.037.186-.02.013-.05.181-.066.374s-.045.351-.065.351c-.02 0-.036.074-.036.165 0 .091-.019.165-.041.165-.023 0-.04.074-.04.163 0 .09-.018.173-.038.186-.02.013-.05.181-.066.374s-.045.35-.065.35c-.02 0-.036.093-.036.205 0 .112-.018.215-.04.23-.051.03-.055.778-.006.877.059.116.12.271.148.371.014.051.043.093.064.093.021 0 .038.024.038.053 0 .029.037.08.082.112.045.033.081.084.081.113 0 .064.363.424.427.424.024 0 .067.037.095.082.028.046.07.083.095.083.186 0 .482.247.484.403.001.05.02.092.043.092.022 0 .04.046.04.101 0 .056-.018.113-.04.127-.023.014-.041.075-.042.136 0 .18-.067.248-.099.102a.533.533 0 0 0-.106-.21c-.044-.048-.08-.102-.08-.121 0-.058-.172-.263-.456-.545-.432-.429-.627-.58-.747-.58-.035 0-.063-.019-.063-.042 0-.022-.026-.041-.058-.041-.031 0-.065-.022-.074-.05-.022-.067-.735-.065-.757.003-.009.026-.051.047-.094.047-.043 0-.078.017-.078.038 0 .021-.055.05-.123.065-.067.015-.122.042-.122.06 0 .019-.054.056-.12.084-.066.027-.13.076-.142.108-.012.032-.045.058-.074.058-.029 0-.135.085-.236.187-.101.103-.208.21-.237.237-.23.22-.335.343-.335.4 0 .024-.017.043-.038.043-.125 0-.092.675.04.818.044.048.08.105.08.128 0 .05.195.251.244.251.02 0 .047.035.06.077a.263.263 0 0 0 .115.125c.07.037.072.042.01.02a1.574 1.574 0 0 0-.194-.046c-.062-.011-.112-.036-.112-.057 0-.02-.028-.036-.062-.036-.033 0-.06-.017-.06-.037 0-.02-.065-.049-.144-.064-.078-.015-.143-.045-.143-.066 0-.022-.035-.04-.078-.04s-.084-.014-.092-.03c-.021-.049-.313-.176-.403-.176-.044 0-.08-.019-.08-.041 0-.023-.036-.042-.08-.042-.043 0-.09-.017-.102-.039-.013-.02-.106-.05-.207-.066-.1-.015-.183-.044-.183-.064 0-.02-.044-.037-.1-.037-.054 0-.11-.019-.124-.041-.014-.023-.076-.042-.137-.042-.062 0-.13-.018-.152-.04-.022-.022-.173-.052-.336-.068-.163-.015-.306-.043-.318-.063-.012-.02-.109-.035-.215-.035-.107 0-.211-.017-.233-.038-.124-.12-2.59-.12-2.59 0 0 .021-.092.038-.204.038-.113 0-.205.016-.205.035 0 .02-.124.047-.275.062-.151.014-.282.044-.29.067-.007.024-.076.042-.153.042-.076 0-.14.019-.14.042 0 .022-.035.041-.078.041-.044 0-.09.016-.102.037-.012.02-.087.048-.166.063-.078.015-.143.04-.143.057 0 .032-.3.173-.368.173a.041.041 0 0 0-.04.041c0 .023-.037.042-.082.042-.045 0-.082.016-.082.035 0 .019-.068.07-.153.113a1.42 1.42 0 0 0-.173.1c-.223.226-.575.256-.908.079a.386.386 0 0 0-.153-.038c-.046 0-.083-.019-.083-.041 0-.056-1.048-.056-1.082 0-.013.022-.079.04-.145.04-.066 0-.12.015-.12.032s-.087.067-.194.111c-.194.08-.5.365-.5.465 0 .03-.016.053-.036.053-.02 0-.05.051-.065.114-.015.062-.05.126-.076.143-.07.043-.067 1.402.003 1.426.028.01.051.054.051.1 0 .079.113.36.162.405.03.028.117.17.153.248.04.087.12.165.173.165.024 0 .043.019.043.042 0 .022.065.041.143.041.079 0 .143-.019.143-.041 0-.023.036-.042.08-.042.053 0 .09-.036.107-.103.014-.057.042-.103.062-.103.02 0 .037-.047.037-.103 0-.057.018-.104.04-.104.023 0 .042-.038.042-.085 0-.047.027-.114.062-.148.07-.072.044.38-.027.459-.02.021-.035.156-.035.299s-.018.26-.038.26c-.042 0-.06.236-.128 1.713-.05 1.11.008 2.044.13 2.044.02 0 .036.045.036.1 0 .056.015.111.035.124.02.012.047.097.062.188.014.091.04.166.059.166.018 0 .058.065.089.144.03.08.07.145.087.145.017 0 .043.065.058.144.015.08.043.145.063.145.02 0 .036.028.036.062s.019.062.041.062c.023 0 .041.03.041.066 0 .08.12.304.208.388a.423.423 0 0 1 .093.175c.015.063.045.114.067.114.022 0 .04.028.04.062s.015.062.033.062c.017 0 .066.06.109.134a1 1 0 0 0 .152.201c.04.037.074.085.074.107 0 .022.069.107.153.19a9.115 9.115 0 0 1 .294.297l.142.144c.056.057.125.126.154.153.03.027.073.074.098.103.065.077.258.24.284.24.012 0 .071.046.132.103.06.057.126.103.146.103.02 0 .067.035.103.077.036.042.107.09.158.106.05.016.092.046.092.068 0 .02.027.038.06.038.035 0 .062.019.062.041 0 .023.037.042.082.042.045 0 .081.017.081.038 0 .021.042.052.092.068a.3.3 0 0 1 .113.056c.028.039.308.168.363.168.025 0 .045.019.045.041 0 .023.046.042.102.042.056 0 .102.018.102.04 0 .024.037.042.082.042.045 0 .081.019.081.041 0 .023.042.042.092.042.05 0 .145.028.21.062a.535.535 0 0 0 .193.062c.042 0 .077.017.077.039 0 .021.11.052.245.067.135.016.245.044.245.064 0 .02.064.036.143.036.079 0 .143.019.143.041 0 .023.054.042.12.042s.13.016.143.037c.013.02.18.05.37.067.192.016.358.046.37.066.013.02.128.036.257.036s.252.017.273.038c.088.087 3.381.17 3.463.087.024-.024.239-.042.504-.042.28 0 .461-.017.461-.042 0-.024.129-.041.304-.041.167 0 .314-.016.326-.036.012-.02.252-.05.533-.066.282-.017.522-.047.534-.067.013-.02.131-.037.263-.037s.252-.019.265-.042c.014-.022.153-.041.31-.041.16 0 .283-.018.283-.041 0-.027.434-.042 1.222-.042.771 0 1.232.016 1.248.042.014.022.116.041.227.041.11 0 .201.019.201.041 0 .023.046.042.103.042.056 0 .102.018.102.04 0 .024-.037.042-.082.042-.1 0-.408.132-.408.175 0 .017-.02.032-.044.032-.05 0-.16.102-.16.147 0 .016-.033.059-.072.095-.172.16-.194.277-.194 1.037 0 .5.016.766.051.84l.102.224a.765.765 0 0 0 .102.168c.028.03.051.07.051.09 0 .02.036.047.08.06.044.015.09.06.102.1.026.08.267.211.391.211.045 0 .08.019.08.041 0 .023.065.042.144.042.078 0 .142.018.142.041 0 .055.845.055.878 0 .014-.023.098-.041.186-.041.089 0 .162-.014.162-.031s.107-.065.238-.106c.13-.041.263-.11.294-.155.031-.044.087-.08.123-.08.082 0 .44-.351.501-.493.043-.098.047-.09.058.101.007.113.029.243.049.289.02.045.048.304.062.574.014.27.043.525.065.565.021.04.038.13.038.2s.019.127.041.127c.023 0 .041.046.041.103 0 .057.017.103.038.103.021 0 .05.037.064.082.015.046.083.098.156.119.112.031.12.04.053.069-.15.063-.68.638-.705.764-.013.067-.04.122-.06.122-.02 0-.036.065-.036.145 0 .079-.018.144-.04.144-.023 0-.041.046-.041.103 0 .057.018.103.04.103.023 0 .042.024.043.052.002.086.15.237.231.237.106 0 .175.212.175.53 0 .142.018.255.041.255.023 0 .041.037.041.082 0 .115.124.248.231.248.05 0 .102.019.116.041.031.051.47.056.47.006 0-.02.053-.047.119-.06.07-.015.13-.059.146-.109.014-.046.043-.084.064-.084.021 0 .038-.083.038-.184 0-.1.019-.194.041-.208.022-.014.04-.114.04-.222 0-.215.052-.295.19-.295a.12.12 0 0 0 .117-.082c.014-.046.043-.083.064-.083.021 0 .038-.12.038-.268 0-.148-.016-.268-.036-.268-.02 0-.048-.065-.063-.145-.015-.08-.04-.144-.057-.144s-.065-.06-.108-.135c-.078-.135-.384-.443-.44-.443-.043 0-.194-.136-.194-.175 0-.017.02-.032.043-.032.118 0 .258-.222.276-.439.01-.122.034-.221.054-.221.02 0 .035-.074.035-.163 0-.09.019-.174.041-.188.022-.014.04-.077.04-.139 0-.062.02-.133.043-.156.024-.024.054-.269.068-.545.014-.276.04-.502.06-.502.019 0 .034.035.034.077 0 .08.418.542.492.542.023 0 .082.037.13.083.048.045.12.082.158.082.039 0 .077.02.085.044.008.024.092.055.187.068.095.012.173.04.173.059 0 .02.092.036.204.036.112 0 .204.018.204.041 0 .024.142.041.345.041.19 0 .356-.018.37-.041.014-.023.087-.041.163-.041.076 0 .15-.019.163-.042.014-.022.066-.04.116-.04.168 0 .64-.381.64-.517 0-.034.018-.062.04-.062.023 0 .042-.028.042-.062s.018-.062.04-.062c.023 0 .041-.042.041-.095a.24.24 0 0 1 .051-.146c.08-.08.071-1.44-.01-1.6-.073-.143-.343-.43-.405-.43-.024 0-.044-.018-.044-.04 0-.023-.037-.042-.082-.042-.045 0-.081-.018-.081-.04 0-.02-.11-.051-.245-.066-.256-.03-.3-.1-.062-.1.076 0 .15-.019.164-.042.014-.022.125-.041.247-.041s.222-.019.222-.041c0-.057 2.354-.057 2.389 0 .014.022.16.041.326.041s.313.019.327.041c.014.023.13.042.26.042.129 0 .252.017.273.038.021.021.264.052.539.068.275.016.5.045.5.065 0 .019.156.035.347.035.191 0 .347.017.347.039 0 .126 4.217.125 4.347-.001.021-.021.145-.038.275-.038.13 0 .237-.016.237-.036 0-.02.165-.049.367-.065.202-.016.378-.046.39-.067.013-.021.087-.038.164-.038.077 0 .14-.019.14-.042 0-.022.065-.041.144-.041.078 0 .143-.016.143-.037 0-.02.1-.049.223-.064.124-.016.235-.046.248-.067.013-.021.068-.038.123-.038.055 0 .1-.019.1-.042 0-.022.038-.041.085-.041a.668.668 0 0 0 .215-.058c.07-.032.188-.083.261-.113.073-.03.133-.068.133-.082 0-.015.064-.04.143-.054.078-.015.143-.045.143-.066 0-.022.027-.04.06-.04.034 0 .062-.016.062-.037 0-.02.064-.048.143-.063.079-.015.143-.045.143-.067 0-.022.037-.04.082-.04.045 0 .081-.018.081-.04 0-.023.028-.042.061-.042.034 0 .062-.014.062-.032 0-.017.064-.067.143-.11.078-.042.143-.093.143-.112 0-.02.02-.035.043-.035.06 0 .478-.318.585-.446.025-.03.07-.076.098-.103a7.52 7.52 0 0 0 .282-.285c.027-.03.073-.076.102-.103.078-.073.155-.17.155-.196 0-.013.065-.092.143-.176.079-.084.143-.17.143-.19 0-.02.046-.074.102-.118.056-.045.102-.11.102-.146 0-.035.034-.094.076-.131a.42.42 0 0 0 .105-.16c.016-.051.046-.093.067-.093.021 0 .038-.028.038-.062s.014-.062.03-.062c.042 0 .174-.239.174-.313 0-.032.019-.058.041-.058.022 0 .041-.028.041-.062s.016-.062.036-.062c.02 0 .048-.064.063-.141.014-.078.04-.148.057-.155.05-.022.217-.408.241-.558.012-.075.038-.137.057-.137.02 0 .036-.061.036-.136 0-.075.017-.154.038-.176.12-.126.121-3.527 0-3.527-.02 0-.038-.112-.038-.248s-.016-.248-.035-.248c-.02 0-.046-.124-.06-.276-.014-.151-.045-.294-.068-.318-.05-.05-.055-.15-.008-.15.04 0 .17.294.17.386 0 .038.02.07.042.07.022 0 .04.038.04.085 0 .213.389.417.543.285.183-.156.223-.197.285-.297a.455.455 0 0 0 .07-.176c0-.035.02-.063.042-.063.022 0 .04-.028.04-.062s.017-.062.038-.062c.02 0 .05-.079.066-.175a.675.675 0 0 1 .075-.234c.062-.078.063-1.208 0-1.288a.543.543 0 0 1-.072-.171c-.014-.063-.044-.114-.066-.114-.023 0-.04-.029-.04-.065 0-.157-.645-.595-.877-.595-.054 0-.11-.019-.124-.041-.033-.055-1.069-.055-1.102 0-.014.022-.098.04-.187.04-.088 0-.16.02-.16.042 0 .023-.035.041-.077.041a.184.184 0 0 0-.125.06c-.05.06-.41-.03-.445-.111-.007-.017-.04-.031-.071-.031-.032 0-.058-.015-.058-.034 0-.018-.078-.068-.173-.11a1.126 1.126 0 0 1-.254-.154.493.493 0 0 0-.185-.102.311.311 0 0 1-.123-.053c-.04-.05-.32-.166-.404-.166-.048 0-.086-.019-.086-.042 0-.022-.046-.041-.102-.041-.056 0-.102-.019-.102-.041 0-.023-.045-.042-.1-.042-.055 0-.11-.016-.122-.037-.013-.02-.138-.05-.278-.066-.14-.017-.274-.044-.296-.062-.04-.032-.096-.04-.817-.13-.617-.076-2.107-.041-2.203.051-.021.021-.136.038-.255.038-.12 0-.217.016-.217.036 0 .02-.137.05-.306.066-.168.016-.306.046-.306.067 0 .02-.064.037-.143.037-.079 0-.143.019-.143.042 0 .022-.046.041-.102.041-.056 0-.102.016-.102.036 0 .02-.091.048-.202.063-.112.015-.214.045-.227.067-.014.022-.06.04-.104.04s-.08.019-.08.042c0 .022-.027.04-.06.04-.085 0-.389.137-.389.176 0 .017-.024.031-.054.031-.052 0-.24.079-.404.168a.337.337 0 0 1-.133.039c-.034 0-.062.018-.062.041 0 .023-.027.041-.061.041-.094 0-.074-.055.083-.23.238-.268.264-.304.264-.368 0-.034.018-.062.04-.062.06 0 .051-.48-.01-.587a1.27 1.27 0 0 0-.122-.172c-.04-.046-.071-.097-.071-.115 0-.045-.696-.736-.74-.736a.543.543 0 0 1-.165-.124.58.58 0 0 0-.16-.124c-.018 0-.056-.023-.086-.052-.172-.165-1-.257-1.046-.117-.008.025-.069.045-.134.045-.066 0-.12.019-.12.041 0 .023-.02.042-.044.042-.088 0-.344.141-.426.235-.046.052-.104.095-.13.095-.025 0-.116.085-.202.189l-.228.274c-.04.048-.072.111-.072.142 0 .03-.018.055-.04.055-.023 0-.041.037-.041.08 0 .045-.017.091-.038.104-.021.014-.05.126-.066.25-.027.221-.1.28-.1.08 0-.055-.019-.1-.041-.1-.237 0 .11-.822.376-.889a.515.515 0 0 0 .19-.106c.046-.043.098-.08.116-.08.028 0 .337-.321.491-.51.103-.127.256-.437.256-.519 0-.047.018-.085.04-.085.051 0 .057-1.182.007-1.214-.02-.012-.047-.162-.061-.335a1.707 1.707 0 0 0-.067-.39.527.527 0 0 1-.042-.205c0-.07-.018-.126-.04-.126-.023 0-.041-.084-.041-.186 0-.103-.017-.186-.038-.186-.02 0-.05-.14-.066-.31-.016-.17-.045-.31-.065-.31-.02 0-.036-.073-.036-.162 0-.09-.018-.174-.04-.188-.023-.014-.041-.098-.041-.186s-.017-.17-.037-.184c-.02-.012-.05-.18-.066-.374-.016-.193-.046-.35-.065-.35-.02 0-.036-.101-.036-.225s-.019-.236-.041-.25c-.023-.014-.041-.182-.041-.374 0-.205.017-.349.04-.349s.042-.032.043-.072a.31.31 0 0 1 .061-.152.315.315 0 0 0 .06-.155c0-.041.019-.075.041-.075.023 0 .1-.063.174-.141.21-.225.443-.261.255-.04a.498.498 0 0 0-.11.243c-.012.227.015.495.053.51.02.007.036.031.036.054 0 .22.926.47 1.041.282.014-.022.07-.04.125-.04.055 0 .1-.02.1-.042 0-.023.027-.041.06-.041.095 0 .43-.39.43-.503 0-.038.023-.076.051-.086.075-.025.06-1.06-.016-1.107-.07-.044.078-.258.194-.28.042-.009.086-.03.098-.047.018-.029.26-.097.54-.153.062-.012.113-.038.113-.058 0-.02.064-.037.143-.037.079 0 .143-.017.143-.037 0-.02.11-.05.245-.066.134-.016.245-.046.245-.066 0-.02.064-.038.143-.038.078 0 .143-.018.143-.04 0-.024.051-.042.114-.042s.132-.018.154-.04c.059-.06.507-.105.507-.051 0 .024.065.113.143.197a.884.884 0 0 1 .143.179c0 .014.046.075.102.137.056.061.102.138.102.171s.023.068.05.077c.066.022.061.662-.005.684-.024.008-.045.103-.045.21s-.016.212-.036.234c-.04.041-.055.198-.137 1.326-.028.39-.065.723-.082.74-.017.017-.03.128-.03.248s-.017.229-.038.242c-.02.012-.05.144-.066.291s-.045.268-.065.268c-.02 0-.036.037-.036.082 0 .046-.016.083-.036.083-.02 0-.048.048-.063.106a.619.619 0 0 1-.148.227c-.194.191-.219.575-.038.575.045 0 .081.019.081.042 0 .022.055.04.123.04.067 0 .122-.018.122-.04 0-.024.116-.042.266-.042.15 0 .265-.018.265-.041 0-.025.176-.041.447-.041.254 0 .457.018.472.041.014.023.079.041.145.041.066 0 .12.017.12.037 0 .02.083.05.184.064.1.016.184.046.184.067 0 .021.027.039.06.039.034 0 .062.018.062.041 0 .023.026.041.057.041a.53.53 0 0 1 .173.062.54.54 0 0 0 .189.062c.039 0 .071.019.071.042 0 .022.046.04.102.04.056 0 .102.017.102.037 0 .02.05.047.112.06.062.012.201.043.31.07.26.064 1.31.04 1.38-.032a.233.233 0 0 1 .146-.052c.051 0 .094-.018.094-.041 0-.023.028-.041.062-.041a.354.354 0 0 0 .132-.037l.268-.128c.108-.05.206-.116.217-.145.011-.03.08-.065.152-.079a.344.344 0 0 0 .19-.107c.032-.045.081-.082.109-.082.027 0 .096-.047.152-.103a.426.426 0 0 1 .135-.105c.05-.001.42-.395.42-.447 0-.026.018-.047.04-.047.022 0 .052-.047.066-.103.014-.057.042-.104.062-.104.02 0 .036-.063.036-.142 0-.078.019-.153.041-.167.024-.015.041-.247.041-.557 0-.31-.017-.543-.04-.558-.023-.014-.042-.08-.042-.147 0-.067-.016-.121-.035-.121-.02 0-.046-.079-.059-.175-.013-.096-.042-.181-.066-.189-.024-.008-.044-.042-.044-.075 0-.067-.035-.117-.255-.353-.084-.09-.153-.18-.153-.2 0-.019-.034-.046-.075-.059a.507.507 0 0 1-.153-.096c-.296-.275-1.691-.242-1.691.04 0 .018-.025.033-.055.033-.142 0-.419.417-.442.667-.008.076-.032.133-.054.127-.054-.015-.033-1.14.021-1.158.022-.008.04-.096.04-.196s.018-.183.04-.183c.023 0 .041-.065.041-.144 0-.08.017-.145.038-.145.02 0 .05-.093.065-.206.015-.114.044-.207.065-.207.02 0 .037-.046.037-.103 0-.057.016-.103.037-.103.02 0 .05-.093.065-.206.015-.114.044-.207.065-.207.02 0 .037-.056.037-.124s.018-.124.04-.124c.083 0 .047-.39-.04-.454-.045-.033-.082-.08-.082-.105 0-.026-.05-.093-.112-.15a3.665 3.665 0 0 1-.201-.203 2.503 2.503 0 0 0-.143-.148 2.374 2.374 0 0 1-.177-.204c-.152-.193-1.636-1.708-1.673-1.708-.015 0-.057-.03-.094-.067-.078-.08-.79-.061-.817.02-.009.026-.06.047-.114.047-.054 0-.099.014-.099.03 0 .018-.083.066-.184.108-.1.042-.183.093-.183.114 0 .02-.028.037-.061.037-.034 0-.062.018-.062.041a.041.041 0 0 1-.04.041c-.07 0-.368.142-.368.175 0 .018-.037.032-.082.032-.045 0-.081.017-.081.04 0 .02-.065.05-.143.066-.079.015-.143.043-.143.063 0 .02-.046.037-.102.037-.056 0-.102.019-.102.041 0 .022-.074.053-.164.067-.09.015-.163.043-.163.063 0 .02-.045.036-.1.036-.054 0-.11.018-.124.04-.014.024-.07.042-.125.042-.055 0-.1.017-.1.038 0 .022-.101.052-.225.067-.124.016-.235.045-.248.065-.012.02-.085.037-.162.037-.078 0-.14.018-.14.04 0 .024-.065.042-.144.042-.078 0-.143.017-.143.038 0 .021-.165.052-.368.068-.203.016-.378.045-.39.065-.012.02-.14.036-.285.036-.148 0-.263.018-.263.04 0 .028-.429.042-1.205.042s-1.204-.014-1.204-.041c0-.023-.091-.041-.202-.041-.111 0-.212-.017-.225-.038-.012-.02-.114-.05-.227-.066-.112-.015-.204-.045-.204-.065 0-.021-.046-.038-.102-.038-.056 0-.102-.014-.102-.031 0-.043-.308-.175-.409-.175-.044 0-.08-.015-.08-.034 0-.018-.065-.059-.144-.09-.078-.031-.143-.071-.143-.088 0-.018-.064-.044-.143-.06-.078-.014-.142-.043-.142-.063 0-.02-.028-.037-.062-.037-.033 0-.06-.018-.06-.04 0-.023-.047-.053-.103-.067-.056-.014-.102-.042-.102-.062 0-.02-.037-.037-.082-.037-.045 0-.081-.016-.081-.035 0-.02-.065-.07-.143-.113-.079-.042-.143-.092-.143-.11 0-.017-.028-.031-.062-.031-.033 0-.06-.018-.06-.039s-.04-.05-.087-.066c-.12-.038-.975-.898-.975-.98 0-.035-.016-.07-.036-.078-.02-.008-.05-.06-.066-.117l-.03-.103.09.103c.104.12.92.16 1.028.052a.19.19 0 0 1 .115-.052c.036 0 .091-.037.124-.083.032-.045.081-.082.11-.082.07 0 .339-.279.339-.353 0-.033.018-.06.04-.06.023 0 .041-.026.041-.059 0-.032.023-.066.051-.075.037-.013.051-.148.051-.485 0-.338-.014-.473-.05-.485-.029-.01-.052-.045-.052-.078 0-.18-.624-.717-.833-.717-.036 0-.065-.019-.065-.042 0-.022-.037-.04-.082-.04-.044 0-.081-.02-.081-.042 0-.023-.054-.041-.12-.041s-.132-.019-.146-.042c-.014-.022-.162-.041-.329-.041-.175 0-.304.017-.304.041 0 .023-.045.042-.102.042-.056 0-.102.018-.102.04 0 .024-.028.042-.063.042-.11 0-.712.583-.712.69 0 .02-.033.075-.072.12-.095.11-.214.339-.214.411 0 .033-.019.059-.041.059-.052 0-.053-.144-.002-.238.021-.04.05-.178.064-.31.014-.13.042-.236.063-.236.021 0 .038-.047.038-.104 0-.056.019-.103.041-.103.022 0 .04-.037.04-.082 0-.046.018-.083.04-.083.021 0 .05-.065.066-.144.014-.08.043-.145.063-.145.02 0 .036-.028.036-.062s.014-.062.03-.062c.042 0 .174-.24.174-.313 0-.032.016-.058.035-.058.052 0 .17-.4.17-.579 0-.252-.177-.412-.456-.414-.215 0-.361-.065-.361-.158 0-.026-.019-.047-.041-.047-.023 0-.04-.046-.04-.103 0-.057-.017-.103-.036-.103-.02 0-.045-.125-.057-.277-.013-.153-.043-.285-.067-.293-.025-.008-.045-.033-.045-.056 0-.138-.138-.18-.652-.193l-.514-.013-.136.12Zm.909.173c.135.052.177.141.25.524.1.533.235.67.721.736.31.042.293.161-.13.927-.395.712-.493 1.074-.517 1.902-.017.57-.01.695.042.764l.063.083.078-.083c.044-.045.163-.275.266-.51.566-1.294 1.162-1.768 1.887-1.5 1.097.408 1.413 1.21.72 1.828-.682.607-1.466.33-.974-.344.276-.378.03-.652-.335-.373-1.094.839-.123 2.316 2.303 3.501 1.286.628 2.24.78 4.01.639 1.198-.097 2.759-.463 3.646-.856.39-.174.777-.368 1.156-.581.443-.249.78-.363.948-.32.11.027 1.166 1.07 1.759 1.737l.539.603c.213.238.215.2-.056 1.015-.438 1.317-.554 2.573-.296 3.227.309.783.642 1.026 1.46 1.065.791.038.808-.053.092-.495-.79-.489-.967-.7-.968-1.163 0-.373.113-.538.502-.731 1.098-.547 2.165.581 1.97 2.083-.072.562-.46.994-1.326 1.476-1.103.614-1.709.617-3.012.018-.708-.326-.716-.328-1.441-.324-.36.002-.73.023-.825.047-.217.054-.24.03-.12-.13.316-.42.443-.97.58-2.522.076-.856.12-1.21.199-1.589.145-.704.045-.98-.66-1.813l-.12-.142-.507.135c-2.774.737-2.678.676-2.593 1.634.068.757-.216 1.135-.849 1.135-.592 0-.659-.597-.084-.766.49-.144.234-.526-.355-.527-.848-.001-1.323.91-1.117 2.14.117.691.314 1.679.591 2.952.252 1.155.263 1.679.046 2.09-.162.307-.566.731-.822.862-.196.1-.465.368-.503.5-.136.471-.108.78.1 1.112.13.206.194.246.337.21.106-.027.14-.099.267-.543.154-.539.499-.931 1.061-1.207.63-.31.967-.209 1.73.521.736.706.74.989.018 1.567-.546.437-.657.413-1.458-.319-.387-.353-.61-.206-.486.32.217.923 1.524.996 3.13.176 2.339-1.193 5.591-1.19 7.446.007.583.376.912.471 1.146.33.394-.238 1.301-.247 1.76-.02.74.37.898 1.229.407 2.217-.106.215-.233.392-.28.392-.047 0-.22-.378-.22-.48 0-.104-.357-.428-.47-.428-.26 0-.346.221-.24.607.347 1.26.403 3.94.1 4.838-.322.955-1.192 2.265-2.033 3.062-.656.622-1.569 1.12-2.87 1.568-1.077.37-2.697.558-4.511.522-1.378-.027-2.109-.086-3.39-.275-3.903-.574-6.234-.018-6.234 1.488 0 .736.548.852.622.13.089-.867.62-1.204 1.38-.874.546.237.684 1.226.282 2.014-.387.758-2.003.773-2.742.025-.247-.25-.29-.41-.288-1.09.002-2.335.945-2.814 5.613-2.854 1.144-.01 1.233-.186.304-.601-.597-.266-.985-.285-1.835-.092-1.776.404-2.618-.075-2.268-1.289.14-.485.597-.672 1.056-.432.335.175.482.56.214.561-.432.002-.688.375-.428.622.315.3 1.17-.148 1.47-.77.19-.39.17-1.117-.06-2.205-.592-2.788-.64-3.56-.285-4.56.152-.429.103-.48-.454-.47-.516.007-.641-.045-1.171-.493a3.46 3.46 0 0 0-.585-.398l-.266-.127-.724.007-.725.008v-.948c0-1.587.16-1.854.904-1.504.477.224.697.145 1.402-.508.58-.535.724-.608 1.176-.595.454.013.49-.037.354-.502-.158-.54-.17-.622-.148-1.037.024-.449.058-.679.237-1.59.1-.51.225-1.158.4-2.084.158-.83.141-1.563-.044-1.913-.177-.335-.68-.76-.804-.681-.105.067-.095.109.075.338.329.443.096.79-.53.79-.594 0-.938-.293-1.015-.869-.106-.781.422-1.278 1.358-1.278.492 0 .372-.272-.285-.646-1.38-.784-2.588-1.95-2.714-2.62-.074-.396-.255-.548-.507-.427-.29.14-.343.658-.164 1.629.078.423.197 1.172.264 1.651.073.529.29 1.07.537 1.338.484.525.352 1.245-.24 1.309-.476.051-.561.16-.621.788-.123 1.284-1.02 1.223-1.15-.08-.058-.561-.193-.711-.641-.712-.64-.001-.687-.892-.073-1.385.317-.253.36-.369.33-.865-.028-.435.007-.664.152-1.01.217-.518.315-1.975.24-3.594-.074-1.635-.148-1.94-.672-2.784-.28-.45-.28-.413.004-.503.414-.132.632-.405.71-.89.047-.302.093-.398.212-.447.121-.049.49-.05.615-.002M21.969 6.64c1.37.853 1.133 3.202-.464 4.585-.49.425-.937.724-1.669 1.115-.628.336-.69.578-.15.579 1.373.003 1.916 1.573.715 2.066-.684.281-1.299-.072-.996-.57.228-.375.05-.49-.293-.188-.777.681-.742.57-.519 1.664.09.443.18.898.201 1.011.033.185.124.644.244 1.239.354 1.744.407 2.519.205 3.034-.2.514-.17.578.28.578.39 0 .679.148 1.253.64.663.57.928.658 1.362.454.726-.342.864-.117.894 1.46l.02 1.006-.587-.028c-.91-.043-1.18.04-1.78.553-.46.392-.616.457-1.111.457-.526 0-.598.098-.415.567.28.721.262 1.69-.065 3.272l-.097.475-.158.762c-.361 1.73-.183 2.511.657 2.884.466.207.519.214.718.09.348-.214.122-.576-.418-.668-.35-.059.09-.595.525-.64.49-.051.692.214.71.937.027.996-.61 1.243-2.236.867-.692-.16-1.147-.157-1.595.013-1.07.404-1.105.646-.1.675 4.136.119 5.068.349 5.572 1.376.253.516.335 1.848.14 2.271-.408.884-2.168 1.186-2.783.479-.595-.685-.452-1.975.254-2.29.65-.29 1.178.209 1.25 1.181.051.678.388.648.575-.05.454-1.697-1.972-2.406-6.15-1.797-2.261.33-4.588.382-6.207.14-.611-.09-1.402-.267-1.735-.386-.963-.344-1.435-.563-1.983-.92-1.318-.86-2.45-2.362-2.983-3.954l-.118-.35.003-1.053c.003-1.273.09-2.27.27-3.086.196-.89-.432-.994-.737-.121-.144.414-.224.4-.45-.075-.404-.846-.364-1.515.12-2.005.147-.148.252-.21.564-.33.286-.11.93-.068 1.251.082.444.207.67.16 1.409-.292 1.947-1.194 4.93-1.188 7.43.013 1.235.593 1.597.684 2.14.533.564-.157.954-.486.994-.84.045-.405-.213-.411-.64-.015-.436.405-.722.511-.994.37-.399-.205-.926-.806-.927-1.056-.002-.409 1.253-1.406 1.776-1.412.583-.007 1.73 1.134 1.734 1.724.003.484.292.412.543-.137.29-.632.128-1.224-.399-1.465-.756-.345-1.173-1.191-1-2.031.022-.11.087-.45.144-.757.056-.306.121-.64.144-.743.237-1.063.536-2.826.543-3.2.016-.884-.875-1.601-1.576-1.268-.346.164-.328.333.048.446.582.175.5.76-.107.76-.649 0-.903-.37-.856-1.248.045-.842-.103-.952-1.79-1.328-.568-.127-.728-.153-.96-.157-.425-.007-.637.125-.923.576-.286.45-.332.789-.178 1.29.18.583.233.971.284 2.065.054 1.152.141 1.537.431 1.908.165.21.152.243-.073.187-.096-.024-.468-.045-.827-.048-.72-.004-.723-.003-1.49.356-1.348.632-2.167.545-3.463-.368-.994-.7-1.21-2.1-.437-2.84.789-.757 1.566-.755 2.007.007.296.51.027.935-.982 1.554-.598.366-.536.474.246.429 1.113-.064 1.566-.75 1.514-2.29-.026-.779-.057-.93-.422-2.063l-.229-.71.112-.136c.571-.693 1.708-1.86 2.252-2.311l.333-.277.34.21c.985.607 1.826.984 2.81 1.259 1.772.494 3.946.61 5.187.275 1.343-.362 3.132-1.512 3.692-2.373.38-.583.343-1.2-.092-1.565-.418-.35-.7-.102-.397.35.402.6-.185.895-.86.431-.54-.37-.65-.99-.25-1.406.531-.553 1.27-.723 1.775-.408m1.154 3.344c0 .34-.015.627-.034.639-.02.012-.047.231-.061.487-.015.257-.045.472-.068.48-.022.008-.04.05-.04.093 0 .044-.02.08-.042.08-.022 0-.04.044-.04.099 0 .055-.023.107-.052.117-.037.013-.052.184-.056.647-.005.689-.026.77-.233.891a.905.905 0 0 0-.2.162 5.793 5.793 0 0 1-.144.168c-.157.174-.193.313-.193.736 0 .294.014.418.05.43.029.01.052.035.052.055 0 .16.293.346.572.362.157.009.285.032.285.053 0 .02.028.036.061.036.039 0 .062.04.062.103 0 .057.018.104.04.104.024 0 .041.13.041.307 0 .169.016.317.036.33.02.011.047.096.061.187.015.092.045.166.067.166.022 0 .04.025.04.055 0 .149.416.4.665.4.378 0 .805-.425.805-.802 0-.056.019-.113.041-.127.023-.014.042-.16.042-.323.002-.41.064-.482.415-.482.288 0 .564-.14.564-.286 0-.025.018-.045.04-.045.023 0 .042-.036.042-.08 0-.044.018-.091.04-.105.023-.014.041-.173.041-.354 0-.19-.017-.328-.04-.328s-.041-.046-.041-.103c0-.057-.019-.103-.041-.103-.023 0-.041-.037-.041-.083 0-.045-.018-.082-.04-.082-.023 0-.042-.027-.042-.06s-.041-.104-.092-.158a.968.968 0 0 1-.22-.33c-.013-.04-.04-.071-.06-.071-.02 0-.036-.038-.036-.083 0-.045-.017-.083-.039-.083-.021 0-.051-.112-.066-.248-.016-.137-.044-.259-.064-.271-.02-.012-.035-.133-.035-.268 0-.136-.018-.245-.04-.245-.023 0-.042-.102-.042-.227s-.016-.227-.036-.227c-.02 0-.05-.186-.066-.413-.016-.227-.046-.413-.066-.413-.02 0-.036-.102-.036-.227s-.018-.227-.04-.227c-.064 0-.05-.667.015-.753.065-.087.107-.053.107.09 0 .147.138.501.219.561.037.027.067.077.067.11s.046.104.102.157c.056.054.102.114.102.133 0 .047.933.982.98.982.02 0 .099.065.175.145.077.079.16.144.186.144.026 0 .047.017.047.039 0 .02.041.051.092.067.05.016.121.064.158.106.036.043.094.077.128.077a.1.1 0 0 1 .086.062c.013.034.06.062.106.062s.083.018.083.041c0 .023.028.041.061.041.034 0 .062.019.062.042 0 .022.037.041.081.041.045 0 .082.018.082.04 0 .023.046.053.102.067.172.043.114.1-.102.1-.112 0-.204.018-.204.04 0 .023-.048.042-.106.042-.197 0-.67.356-.67.504 0 .04-.018.074-.04.074-.023 0-.042.028-.042.062s-.018.062-.04.062c-.023 0-.041.064-.041.142a.732.732 0 0 1-.049.251c-.038.084-.038.126 0 .187.027.044.049.182.049.307s.018.228.04.228c.023 0 .041.037.041.082 0 .046.019.083.041.083.023 0 .041.029.041.064 0 .093.353.431.45.431.044 0 .08.019.08.041 0 .023.064.042.141.042.078 0 .152.018.166.041.146.238 1.245-.15 1.245-.44 0-.053.019-.097.041-.097.023 0 .041.028.041.062s.019.062.041.062c.025 0 .04.206.04.534 0 .312-.016.545-.04.56-.022.014-.04.126-.04.248s-.017.232-.036.244c-.02.013-.049.19-.065.395-.016.205-.045.372-.066.372-.021 0-.038.084-.038.186s-.018.186-.04.186c-.023 0-.042.073-.042.163 0 .09-.016.173-.037.186-.02.013-.05.163-.066.333s-.045.32-.065.333c-.02.012-.036.105-.036.205 0 .101-.018.184-.04.184-.023 0-.041.066-.041.148 0 .081-.03.383-.064.67-.065.53-.008 1.267.108 1.388.101.107.034.147-.249.147-.163 0-.285.018-.285.041 0 .023-.046.042-.103.042-.056 0-.102.017-.102.038 0 .021-.041.052-.091.068a.415.415 0 0 0-.158.106c-.037.042-.084.077-.105.077-.021 0-.185.144-.364.32-.512.502-.532.514-.79.494-.123-.01-.23-.039-.239-.065-.008-.026-.06-.047-.114-.047-.054 0-.098-.019-.098-.042 0-.024-.133-.041-.317-.041-.37 0-.597.142-.648.402-.014.074-.042.135-.061.135-.02 0-.036.074-.036.165 0 .09-.019.165-.04.165-.023 0-.042.028-.042.062 0 .095-.043.075-.192-.089-.198-.218-.87-.227-.87-.011 0 .045-.12.162-.166.162-.02 0-.038-.028-.038-.062s-.015-.062-.035-.062c-.019 0-.046-.107-.059-.237-.013-.13-.043-.243-.067-.251-.023-.008-.043-.042-.043-.075 0-.173-.25-.304-.58-.304-.185 0-.318.017-.318.041 0 .023-.035.042-.078.042s-.086.023-.095.051c-.012.034-.105.052-.276.052-.17 0-.264-.018-.276-.052-.009-.028-.034-.051-.056-.051-.037 0-.084-.034-.218-.155-.031-.029-.068-.052-.082-.052-.013 0-.105-.084-.203-.186a1.133 1.133 0 0 0-.205-.185c-.028 0-.312-.207-.348-.253a.426.426 0 0 0-.153-.055c-.073-.016-.133-.046-.133-.067 0-.021-.036-.038-.08-.038-.043 0-.09-.019-.104-.042-.014-.022-.107-.04-.206-.04-.167 0-.182-.01-.182-.104 0-.057.019-.103.041-.103.022 0 .04-.052.04-.116s.02-.135.044-.16c.072-.072-.012-1.582-.087-1.582-.021 0-.038-.093-.038-.207 0-.113-.016-.206-.035-.206-.02 0-.049-.167-.065-.371-.015-.204-.045-.382-.066-.395-.02-.013-.038-.106-.038-.207 0-.1-.018-.183-.04-.183-.023 0-.042-.074-.042-.165 0-.091-.016-.165-.036-.165-.02 0-.049-.158-.065-.351-.015-.193-.045-.361-.066-.374-.02-.013-.037-.097-.037-.186 0-.09-.016-.163-.035-.163-.02 0-.049-.148-.064-.33-.016-.18-.046-.34-.067-.353-.02-.013-.038-.106-.038-.207 0-.1-.018-.183-.04-.183-.086 0-.045-.338.05-.422.08-.07.094-.072.105-.015.008.036.03.065.051.065.021 0 .038.037.038.083 0 .045.017.082.038.082.021 0 .062.024.092.052.225.216 1.422.307 1.422.109 0-.02.027-.037.061-.037s.061-.018.061-.041c0-.023.026-.041.057-.041.058 0 .31-.218.31-.268 0-.015.028-.055.062-.09a.235.235 0 0 0 .061-.14c0-.045.019-.08.041-.08.023 0 .04-.046.04-.101 0-.056.02-.112.042-.126.104-.066.02-.887-.092-.888-.017 0-.03-.027-.03-.06 0-.095-.412-.493-.593-.573a4.07 4.07 0 0 1-.234-.112.479.479 0 0 0-.192-.04c-.066 0-.13-.014-.14-.033-.019-.03.047-.071.505-.322.079-.043.152-.087.163-.099a.923.923 0 0 1 .133-.079c.062-.032.112-.074.112-.093 0-.019.028-.034.062-.034s.101-.047.15-.103c.049-.057.112-.104.14-.104.028 0 .087-.046.131-.103.044-.056.091-.103.105-.103.06 0 .678-.607.678-.665 0-.016.055-.088.123-.16.067-.074.122-.155.122-.182 0-.026.037-.075.082-.108.045-.032.081-.083.081-.112 0-.029.014-.053.031-.053s.067-.084.111-.186c.045-.102.095-.185.112-.185.018 0 .032-.045.032-.1 0-.055.02-.107.044-.115.024-.008.053-.093.066-.189.049-.365.094-.15.094.442m.531 2.575c-.27.137-.109.331.278.335.396.005.506-.034.49-.172-.022-.197-.502-.3-.768-.163m5.273.228c-.274.19.903.698 1.875.81.408.048.613-.154.307-.302-.543-.263-2.035-.61-2.182-.508m-11.07.215c-.863.077-1.706.395-1.491.563.336.262 2.478-.262 2.203-.54-.07-.07-.147-.073-.713-.023m22.783 3.209c0 .05-.018.093-.04.093-.022 0-.04-.07-.04-.155 0-.115.01-.14.04-.093.022.034.04.104.04.155m-33.313.228c-.033.034-.045.03-.045-.017 0-.082.055-.138.075-.076.009.026-.005.068-.03.093m33.395.055c0 .034-.018.05-.04.037-.023-.014-.041-.054-.041-.088 0-.034.018-.05.04-.036.023.014.041.053.041.087m-33.44.032c0 .17-.415.686-.552.686-.033 0-.06.018-.06.041 0 .023-.037.041-.082.041-.045 0-.082-.018-.082-.04 0-.024.026-.042.057-.042.031 0 .111-.051.177-.114.067-.062.17-.15.23-.195.059-.045.108-.104.108-.13 0-.026.027-.058.061-.071.034-.014.061-.062.061-.108s.019-.084.041-.084c.023 0 .04.007.04.016m33.543.146c.03.097.348.416.414.416.026 0 .058.028.07.062.014.034.062.062.107.062.046 0 .083.018.083.041 0 .023-.03.041-.068.041-.09 0-.38-.13-.38-.17 0-.018-.042-.076-.093-.128-.089-.094-.235-.329-.235-.379 0-.06.079-.017.102.055M18.595 22.04c-.296.079-.432 1.102-.193 1.456.352.522.559.32.553-.54-.004-.74-.1-.986-.36-.916m10.625.007c-.286.107-.287 1.496-.002 1.603.19.07.309-.03.412-.345.202-.613-.052-1.393-.41-1.258m.14.955c-.009.097-.016.028-.016-.154 0-.181.007-.26.015-.176.01.084.01.233 0 .33m-10.69-.04c-.001.187-.008.322-.015.3l-.063-.213c-.042-.14-.041-.195.005-.3.076-.175.077-.172.074.213m5.431.463c.335.176.478.514.357.848-.247.686-.462.804-.795.438-.366-.4-.289-.985.166-1.265.157-.097.13-.095.272-.02m8.522.95c.104.102.166.186.138.186-.052 0-.369-.298-.369-.346 0-.053.048-.02.231.16m-1.725-.063c-.387.158-.627 1.07-.406 1.542.081.171.335.317.555.317.827.002.948 1.661.347 4.768-.414 2.142-.246 3.163.577 3.51.353.15.728-.025.699-.326-.014-.137-.16-.203-.25-.111-.223.225-.673-.242-.517-.536.153-.29 1.052-.261 1.463.046.524.391.169 1.398-.64 1.81-.298.153-.314.175-.215.3l.078.097 1.363-.004c1.512-.004 2.403-.075 3.38-.267 1.792-.352 3.126-1.215 4.159-2.69.836-1.194 1.054-2.406.61-3.383-.415-.912-1.216-.8-1.216.169 0 .514-.434.408-.872-.215-.793-1.125-.575-2.259.434-2.26.41 0 .575-.319.327-.626-.8-.988-3.02-1.681-4.421-1.381-.478.102-.565.128-1.43.432-1.812.637-2.771.498-3.43-.5-.106-.16-.163-.293-.163-.38 0-.247-.214-.401-.432-.312m-14.176.077c-.03.019-.067.127-.085.241-.124.795-1.455 1.47-2.397 1.217a14.048 14.048 0 0 1-1.368-.403c-1.564-.545-2.421-.581-3.73-.157-1.711.556-2.7 1.685-1.57 1.794.882.086 1.103.807.578 1.88-.476.974-.99 1.21-1.078.496-.13-1.052-1.15-.88-1.337.227-.252 1.486.15 2.578 1.44 3.912.92.95 1.42 1.266 2.597 1.639l.513.164c1.011.334 4.868.532 5.183.267.126-.105.07-.2-.194-.332-.7-.347-1.11-1.127-.844-1.606.213-.383 1.193-.606 1.535-.348.284.213.076.72-.27.658-.393-.069-.487-.005-.356.24.192.36.678.29 1.074-.154.328-.368.362-.484.358-1.223-.004-.685-.046-1.03-.308-2.478-.322-1.783-.367-3.295-.114-3.804.078-.156.356-.383.62-.506.7-.324.784-1.136.166-1.613-.186-.143-.31-.177-.413-.11m1.801.285c-.402.325-.263 1.661.173 1.661.152 0 .195-.14.214-.69.03-.886-.096-1.205-.387-.97m10.694-.046c-.285.115-.283 1.48.001 1.612.231.106.431-.19.469-.696.043-.58-.188-1.031-.47-.916m1.787.075c0 .034.018.062.04.062.023 0 .041.04.041.087 0 .25.68 1.044.939 1.096.068.014.123.041.123.061 0 .02.046.036.102.036.056 0 .102.019.102.041 0 .023.064.042.143.042.079 0 .143.018.143.04 0 .026.197.042.51.042s.51-.016.51-.041c0-.023.102-.041.225-.041.124 0 .225-.019.225-.042 0-.022.064-.041.143-.041.078 0 .143-.016.143-.036 0-.02.09-.048.202-.063.111-.015.214-.045.227-.067.014-.022.06-.04.104-.04s.08-.017.08-.037c0-.02.085-.05.189-.065a.972.972 0 0 0 .412-.14.452.452 0 0 1 .173-.047c.046 0 .083-.017.083-.037 0-.02.119-.05.265-.065.145-.016.275-.046.288-.067.013-.02.141-.038.286-.038.162 0 .263-.017.263-.045 0-.03.083-.037.255-.02l.51.049c.141.013.256.038.256.056 0 .018.12.046.265.062.146.016.266.046.266.067 0 .02.055.038.122.038s.123.018.123.04c0 .024.046.042.102.042.056 0 .102.019.102.041 0 .022.073.053.163.067.09.015.163.043.163.063 0 .02.037.036.082.036.045 0 .082.017.082.038 0 .02.06.05.132.067a.425.425 0 0 1 .2.107c.035.042.086.077.111.077.026 0 .047.018.047.04 0 .024.025.042.057.042.077 0 .448.332.52.465.034.064.017.072-.145.072-.1 0-.194.019-.208.041-.014.023-.088.042-.166.042-.077 0-.14.018-.14.04 0 .024-.028.042-.061.042-.034 0-.061.019-.061.041 0 .023-.023.042-.052.043-.076.002-.206.128-.275.267a.559.559 0 0 1-.102.153c-.063.046-.054 1.254.01 1.319a.239.239 0 0 1 .051.146c0 .053.018.095.04.095.023 0 .042.028.042.062s.018.062.04.062c.023 0 .041.035.041.078 0 .042.028.1.062.129.033.028.06.077.06.108s.015.057.033.057c.017 0 .064.055.103.122.305.522 1.253.838 1.253.417 0-.024.018-.044.041-.044.022 0 .04-.037.04-.082 0-.046.02-.083.042-.083.022 0 .04-.108.04-.241 0-.331.09-.512.238-.475.06.015.116.043.123.063a.39.39 0 0 0 .072.094c.031.032.057.078.057.102 0 .024.016.044.036.044.02 0 .066.088.104.196.038.108.087.229.108.268a.66.66 0 0 1 .038.238c0 .09.019.165.041.165.022 0 .04.083.04.184 0 .1-.018.194-.04.209-.022.014-.04.106-.04.206 0 .1-.02.192-.042.206-.022.014-.04.08-.04.147 0 .067-.019.122-.041.122-.023 0-.041.041-.042.093 0 .05-.055.204-.122.34a1.559 1.559 0 0 0-.121.3c0 .028-.02.051-.042.051-.022 0-.04.028-.04.062s-.02.062-.042.062c-.022 0-.04.02-.04.044 0 .062-.508.751-.646.877-.03.027-.094.094-.143.148-.05.054-.113.12-.142.145-.03.025-.075.07-.102.099-.027.03-.073.076-.102.103-.213.2-.254.244-.254.279 0 .021-.035.039-.078.039-.044 0-.115.046-.16.103-.043.057-.11.103-.147.103a.104.104 0 0 0-.09.062c-.013.034-.058.062-.1.062-.043 0-.078.019-.078.041 0 .023-.028.042-.061.042-.034 0-.061.016-.061.035 0 .02-.083.07-.184.112-.101.042-.184.087-.184.1 0 .014-.106.06-.235.103a1.453 1.453 0 0 0-.273.111.198.198 0 0 1-.113.034c-.04 0-.073.017-.073.037 0 .021-.11.05-.245.067-.135.015-.245.045-.245.065 0 .02-.072.038-.16.038-.09 0-.173.018-.187.041-.014.023-.096.041-.183.041-.086 0-.163.018-.17.04-.008.02-.25.051-.537.067-.287.016-.531.045-.543.065-.012.019-.265.035-.562.035-.314 0-.558.017-.582.042-.027.026-.334.038-.835.03-.521-.006-.767-.023-.715-.048.099-.048.306-.277.308-.34 0-.026.029-.058.062-.07.034-.014.062-.062.062-.108 0-.047.018-.084.04-.084.023 0 .041-.028.041-.062s.019-.062.041-.062c.023 0 .041-.036.041-.08 0-.043.022-.086.049-.095.068-.023.068-.866 0-.889-.027-.01-.049-.033-.049-.054 0-.064-.26-.316-.357-.346-.05-.015-.092-.045-.092-.067 0-.02-.046-.038-.102-.038-.056 0-.102-.019-.102-.041 0-.023-.054-.042-.12-.042s-.132-.018-.146-.04c-.148-.244-1.325.131-1.326.422 0 .04-.019.073-.042.073-.022 0-.04-.065-.04-.145 0-.08-.019-.145-.041-.145-.023 0-.041-.091-.041-.203 0-.113.018-.216.04-.23.023-.014.042-.182.042-.374s.016-.348.035-.348c.02 0 .049-.205.065-.454.016-.25.046-.465.066-.478.021-.012.038-.096.038-.186s.018-.162.04-.162c.023 0 .041-.084.041-.186s.017-.186.037-.186c.02 0 .05-.195.066-.433.017-.239.046-.434.066-.434.02 0 .036-.12.036-.266 0-.146.018-.277.04-.291.026-.016.041-.393.041-.994 0-.617-.014-.967-.04-.967-.023 0-.041-.063-.041-.14a.669.669 0 0 0-.061-.258.55.55 0 0 1-.062-.19c0-.04-.018-.073-.04-.073a.041.041 0 0 1-.042-.041c0-.077-.264-.324-.377-.353-.062-.015-.112-.044-.112-.065 0-.02-.088-.037-.194-.038-.3-.002-.378-.09-.378-.426 0-.148.018-.28.04-.295.023-.014.042-.062.042-.106s.017-.113.037-.152a.998.998 0 0 0 .06-.144c.027-.089.107-.096.107-.01m-13.938.175c.054.062.11.16.123.216.014.057.046.13.07.162.034.043.033.063-.005.076-.028.01-.051.058-.051.107 0 .104-.18.316-.267.316-.033 0-.06.019-.06.041 0 .023-.037.042-.081.042-.045 0-.082.016-.082.036 0 .02-.042.048-.092.06a.84.84 0 0 0-.25.17.873.873 0 0 1-.186.147c-.05 0-.224.426-.262.64-.073.408-.025 2.415.058 2.415.02 0 .038.11.038.245s.016.255.035.267c.02.013.049.209.065.436.016.228.046.414.066.414.021 0 .038.083.038.183 0 .101.018.195.04.21.023.013.042.107.042.208 0 .101.016.184.037.184.02 0 .05.241.066.537.016.296.046.548.065.56.065.04.043.8-.026.87-.054.055-.06.053-.06-.014 0-.145-.28-.385-.45-.385-.045 0-.082-.018-.082-.04 0-.025-.155-.042-.385-.042-.213 0-.397.018-.41.041-.015.023-.079.041-.144.041-.064 0-.129.019-.143.042-.014.022-.06.041-.104.041s-.08.019-.08.041c0 .023-.025.041-.057.041-.104 0-.43.375-.457.528-.038.204.008.85.062.868.024.008.044.041.044.074 0 .032.019.058.041.058.023 0 .041.037.041.083 0 .045.018.082.04.082.023 0 .042.028.042.062 0 .033.092.154.204.269.112.114.204.216.204.227 0 .041-2.322.02-2.348-.021-.014-.023-.19-.041-.39-.041s-.365-.016-.365-.036c0-.02-.189-.048-.419-.064-.23-.016-.424-.046-.432-.068-.007-.021-.076-.039-.153-.039s-.14-.018-.14-.041c0-.023-.053-.041-.12-.041-.066 0-.13-.017-.142-.038-.013-.02-.115-.05-.227-.066-.113-.015-.205-.045-.205-.065 0-.02-.045-.038-.102-.038-.056 0-.102-.018-.102-.041 0-.023-.041-.042-.092-.043a.486.486 0 0 1-.194-.06.486.486 0 0 0-.193-.06c-.051-.002-.092-.016-.092-.034 0-.033-.298-.175-.368-.175a.041.041 0 0 1-.04-.04c0-.024-.025-.042-.055-.042s-.097-.047-.15-.103c-.052-.057-.112-.104-.131-.104-.02 0-.08-.041-.133-.092a7.252 7.252 0 0 0-.268-.238c-.247-.208-.712-.67-.757-.75a1.843 1.843 0 0 0-.184-.227 2.509 2.509 0 0 1-.223-.283.647.647 0 0 0-.127-.155.792.792 0 0 1-.141-.216c-.05-.102-.107-.185-.125-.185-.019 0-.034-.028-.034-.062s-.017-.062-.038-.062c-.021 0-.051-.084-.066-.187-.016-.102-.044-.196-.064-.209-.02-.012-.036-.095-.036-.185s-.019-.162-.04-.162c-.025 0-.042-.131-.042-.31 0-.18-.017-.31-.04-.31-.054 0-.054-.317 0-.35.022-.015.04-.145.04-.29s.019-.275.041-.289c.022-.014.04-.063.04-.109 0-.094.272-.383.398-.424.106-.034.215.07.215.204 0 .053.019.109.041.123.023.014.04.126.04.25s.02.225.042.225c.022 0 .04.027.04.062 0 .146.154.227.43.227.15 0 .265-.018.265-.042 0-.022.03-.04.067-.04.088 0 .542-.478.61-.642a.553.553 0 0 1 .114-.18.365.365 0 0 0 .087-.173c.015-.066.043-.12.064-.12.02 0 .038-.047.038-.104 0-.057.018-.103.04-.103.023 0 .041-.054.041-.12 0-.067.02-.128.046-.136.029-.01.047-.184.05-.494.006-.564-.007-.6-.329-.951-.087-.096-.17-.157-.214-.157a.042.042 0 0 1-.043-.041c0-.023-.063-.041-.14-.041-.077 0-.152-.02-.166-.042-.014-.022-.117-.041-.228-.041-.223 0-.23-.083-.02-.257l.128-.108c.023-.02.125-.09.224-.155.1-.066.188-.134.196-.151.007-.017.04-.031.071-.031.032 0 .058-.016.058-.037 0-.02.064-.048.143-.063.078-.015.143-.045.143-.067 0-.022.036-.04.081-.04.045 0 .082-.017.082-.039 0-.021.065-.051.143-.066.08-.015.154-.044.166-.064.012-.02.067-.037.122-.037.055 0 .1-.018.1-.041 0-.023.045-.041.1-.041.054 0 .11-.018.123-.04.013-.021.134-.052.269-.067.135-.015.254-.044.266-.064.013-.02.132-.036.265-.036.134 0 .243-.018.243-.041 0-.023.115-.041.265-.041.15 0 .265.018.265.041 0 .023.108.041.243.041.133 0 .253.017.265.037.012.02.142.049.288.065s.266.046.266.067c0 .02.043.038.095.038.053 0 .108.012.123.027.041.042.443.18.526.18.04 0 .073.018.073.04 0 .023.044.042.1.042.054 0 .11.017.122.038.013.021.125.051.248.067.123.015.224.044.224.065 0 .02.064.036.143.036.078 0 .143.019.143.041 0 .023.081.042.18.042.1 0 .194.018.207.04.015.025.225.042.49.042.266 0 .476-.017.49-.041.014-.023.08-.041.146-.041.066 0 .12-.014.12-.031 0-.032.15-.105.316-.154.05-.015.092-.045.092-.066 0-.021.037-.038.082-.038.045 0 .081-.019.081-.042 0-.022.024-.04.052-.04.028 0 .1-.047.161-.104a.5.5 0 0 1 .137-.103c.045 0 .261-.265.262-.32 0-.029.019-.052.04-.052.054 0 .165-.222.165-.328 0-.113.033-.107.15.029m7.586.696c.068.069.798.083.798.016 0-.024.135-.041.324-.041.178 0 .335.018.35.04.013.024.088.042.165.042.077 0 .14.017.14.038 0 .021.055.05.122.065a.496.496 0 0 1 .214.127c.051.054.109.1.128.1.02 0 .097.06.173.135.202.196.254.237.301.237.023 0 .043.015.043.033 0 .019.078.066.173.106.096.04.206.09.245.111.039.022.218.039.398.039.315 0 .427.056.286.145-.022.014-.04.07-.04.126 0 .055-.016.1-.035.1-.137 0-.137 2.376-.001 2.46.02.013.035.114.035.227 0 .112.016.204.035.204.02 0 .047.131.062.293.015.16.045.327.067.369.022.041.04.132.04.202s.019.127.041.127c.023 0 .041.083.041.185 0 .103.015.186.034.186.032 0 .108.44.155.898.013.12.04.217.06.217.02 0 .037.167.037.371 0 .22-.017.372-.041.372-.022 0-.04.045-.04.1 0 .056-.017.112-.037.124-.02.013-.049.072-.063.132-.027.107-.044.128-.217.278l-.089.077.024-.147c.049-.302-.2-.77-.407-.77-.038 0-.07-.014-.07-.031 0-.08-.248-.135-.6-.135-.228 0-.417.021-.472.052-.124.07-.316.281-.316.348 0 .03-.018.054-.04.054-.023 0-.041.045-.041.1 0 .055-.023.108-.051.117-.038.013-.051.168-.051.589 0 .42.013.575.05.588.029.01.052.04.052.067 0 .027.037.076.081.108.045.033.082.084.082.114s.046.074.102.1c.056.026.102.063.102.082 0 .02.028.035.062.035.033 0 .06.018.06.041 0 .023.046.041.1.041.055 0 .11.016.122.036.012.02.114.048.227.063.283.039.258.108-.04.108-.135 0-.245.016-.245.035 0 .02-.124.046-.276.06a2.23 2.23 0 0 0-.418.075c-.271.096-.368.139-.368.165 0 .015-.064.04-.142.054-.079.015-.143.04-.143.057 0 .016-.054.053-.119.082-.065.03-.208.137-.316.24l-.198.186-.012-.464c-.006-.254.003-.474.02-.487a.408.408 0 0 0 .073-.09 5.76 5.76 0 0 1 .193-.268c.35-.468.222-1.338-.197-1.338-.054 0-.098-.019-.098-.041 0-.023-.065-.042-.145-.042-.195 0-.263-.078-.263-.304 0-.102-.016-.196-.035-.208-.02-.012-.045-.097-.057-.187a.49.49 0 0 0-.077-.222 1.971 1.971 0 0 1-.137-.166c-.044-.06-.104-.11-.132-.11-.029 0-.052-.018-.052-.041 0-.023-.037-.041-.082-.041-.044 0-.081-.019-.081-.042 0-.022-.101-.041-.225-.041-.123 0-.224.019-.224.041 0 .023-.037.042-.082.042-.045 0-.082.018-.082.04 0 .024-.026.042-.059.042-.087 0-.297.331-.329.519-.063.375-.262.678-.445.678-.055 0-.112.019-.126.042-.014.022-.068.041-.119.041-.143 0-.263.132-.293.323-.015.095-.043.172-.063.172-.05 0-.045.237.005.269.023.014.041.082.041.15 0 .128.11.407.159.407.015 0 .061.065.104.145.042.08.092.144.111.144.019 0 .034.036.034.08 0 .043.017.085.038.092.02.008.043.212.05.455.016.48.017.48-.21.236a.421.421 0 0 0-.153-.096c-.05-.016-.092-.044-.092-.061 0-.05-.39-.252-.485-.252-.048 0-.087-.018-.087-.041 0-.023-.035-.041-.079-.041s-.09-.019-.104-.042c-.014-.022-.07-.04-.123-.04-.054 0-.108-.018-.121-.04-.013-.021-.152-.051-.31-.067-.157-.016-.295-.045-.307-.064-.012-.02-.14-.036-.283-.036-.342 0-.374-.064-.048-.095.446-.042.967-.424.967-.709 0-.035.018-.063.04-.063.025 0 .042-.18.042-.454 0-.276-.017-.455-.041-.455-.023 0-.041-.064-.041-.142 0-.078-.018-.153-.04-.167-.023-.014-.042-.06-.042-.102 0-.093-.26-.373-.346-.373-.034 0-.062-.019-.062-.041 0-.061-.737-.052-.87.01-.06.028-.11.066-.11.083s-.023.031-.051.032c-.078.002-.235.148-.235.219 0 .034-.022.07-.05.078-.03.01-.055.131-.065.31-.015.277-.02.292-.093.246-.043-.027-.078-.072-.078-.1 0-.03-.013-.053-.03-.053-.041 0-.174-.239-.174-.313 0-.032-.018-.058-.04-.058-.026 0-.041-.207-.041-.537 0-.33.015-.537.04-.537.023 0 .041-.093.041-.206 0-.114.016-.206.036-.206.02 0 .048-.15.064-.33.015-.182.045-.331.066-.331.021 0 .038-.074.038-.165 0-.091.019-.165.041-.165.023 0 .041-.082.041-.183 0-.1.018-.188.04-.196.02-.007.051-.167.066-.354.016-.187.044-.34.063-.34.02 0 .035-.09.035-.199 0-.109.017-.216.037-.237.12-.127.12-2.125 0-2.125-.02 0-.037-.052-.037-.115 0-.064-.016-.133-.036-.155-.158-.171-.102-.225.235-.225.18 0 .339-.019.352-.041.014-.023.07-.042.125-.042.055 0 .1-.018.1-.04 0-.023.026-.042.058-.042a.192.192 0 0 0 .113-.055.346.346 0 0 1 .103-.073c.05-.018.362-.276.55-.457a.608.608 0 0 1 .237-.138c.068-.015.123-.044.123-.065 0-.02.064-.038.143-.038.079 0 .143-.018.143-.041 0-.025.15-.041.367-.041.227 0 .368.016.368.042 0 .028.143.039.398.031l.398-.011.012-.362c.013-.397.026-.416.164-.24a.453.453 0 0 0 .214.148c.066.015.12.044.12.065 0 .02.083.038.184.038.101 0 .184-.017.184-.037 0-.02.042-.048.094-.06.054-.014.136-.1.194-.201l.1-.177.012.366c.008.243.03.385.068.423m4.707.025c-.009.097-.016.028-.016-.154 0-.181.007-.26.015-.176.01.084.01.233 0 .33m-10.727-.11c0 .088-.017.137-.04.122-.069-.043-.046-.269.026-.269.008 0 .014.066.014.147m5.637 7.19a.873.873 0 0 1 .283.608c.002.376.218.601.632.66.405.056.425.517.044 1.009-.214.275-.269.479-.239.887.047.64-.282 1.228-.776 1.389-.62.2-1.219-.528-1.22-1.486 0-.4-.049-.55-.265-.816-.377-.466-.327-1 .094-1 .318 0 .5-.232.692-.879.132-.445.472-.613.755-.372m-4.249 1.375c0 .022-.046.04-.102.04-.056 0-.102-.018-.102-.04 0-.023.046-.042.102-.042.056 0 .102.019.102.042m8.105 0c-.014.022-.062.04-.107.04s-.07-.018-.056-.04c.014-.023.062-.042.107-.042s.07.019.056.042m-9.779.99c0 .023.063.042.14.042.078 0 .152.018.166.041.014.023.088.041.164.041.076 0 .15.019.163.042.017.027-.302.04-.926.04-.63 0-.931-.014-.89-.04a.291.291 0 0 1 .132-.041c.039 0 .071-.02.071-.042 0-.023.055-.041.123-.041.067 0 .122-.019.122-.042 0-.024.15-.04.368-.04.217 0 .367.016.367.04m12.045 0c0 .023.046.042.102.042.057 0 .102.018.102.041 0 .023.046.041.102.041.057 0 .103.019.103.042 0 .026-.283.041-.766.041-.421 0-.922.008-1.113.018-.359.019-.349.015.215-.083.084-.015.164-.043.176-.064.012-.02.095-.036.183-.036.089 0 .161-.019.161-.042 0-.024.15-.04.368-.04s.367.016.367.04m-11.115.235a.44.44 0 0 1-.164.001c-.05-.01-.019-.018.071-.019.09 0 .132.008.093.018m3.97 2.016c.028.034.076.061.107.061.03 0 .056.019.056.042 0 .022.028.041.061.041.034 0 .062.019.062.041 0 .023.055.042.124.042h.123l-.144.145c-.126.128-.144.172-.144.349 0 .111-.019.214-.041.228-.022.014-.04.08-.04.147 0 .067-.02.121-.042.121-.022 0-.04.026-.04.057a.151.151 0 0 1-.052.1c-.04.034-.052-.096-.059-.62-.005-.397-.025-.681-.05-.707-.024-.024-.044-.058-.044-.076 0-.054.068-.038.123.029m1.633-.03c0 .019-.02.053-.043.077-.025.026-.053.355-.068.793-.013.412-.04.749-.059.749-.019 0-.034-.056-.034-.124s-.019-.124-.04-.124c-.023 0-.042-.074-.042-.165 0-.09-.016-.165-.036-.165-.02 0-.043-.12-.053-.266-.015-.242-.03-.277-.157-.391l-.142-.126h.133c.073-.001.133-.02.133-.043 0-.022.027-.041.061-.041s.061-.017.061-.037c0-.02.046-.048.102-.063.057-.014.102-.044.102-.066a.04.04 0 0 1 .041-.04c.023 0 .041.014.041.033m-3.182.39a.343.343 0 0 1 .078.162c0 .039.02.082.042.096.022.014.04.09.04.17 0 .086-.016.134-.04.119-.023-.014-.041-.08-.041-.147 0-.067-.018-.122-.04-.122-.023 0-.042-.042-.042-.094a.39.39 0 0 0-.063-.185c-.083-.12-.033-.12.066 0m2.463.29c.032.05.07.176.084.278.04.287.106.575.19.843.085.267.1.632.038.904l-.118.524a8.315 8.315 0 0 0-.105.542c-.042.3-.333.505-.48.338-.138-.156-.262-.863-.305-1.731l-.026-.542.131-.273a2.19 2.19 0 0 0 .17-.542c.059-.423.265-.59.42-.341m1.986.237c0 .068-.019.124-.041.124-.045 0-.056-.177-.014-.22.046-.047.055-.032.055.096m-1.784 4.098c.425.425.545.772.297.855-.175.059-.31.323-.31.61 0 .432-.078.546-.377.547-.241 0-.298-.077-.33-.454-.038-.44-.102-.585-.303-.68-.263-.123-.156-.459.288-.898.325-.322.397-.32.735.02"/>
</svg>
