<svg>
  <path d="M1.753 28.032c-.093-.835-.174-1.555-.244-2.228.43-.185.79-.44 1.162-.475.535-.058 1.163-.116 1.628.092 1.162.523 2.22.441 3.336-.08.477-.233.395-.58.314-.917-.023-.07-.442-.151-.616-.07-1.093.464-2.104.313-3.197-.128-.488-.197-1.162 0-1.744.07-.279.035-.534.186-.813.29-.57-5.105 1.906-13.551 9.125-18.795 8.044-5.848 18.96-5.604 26.644.034 7.3 5.349 9.649 13.807 9.067 18.75-.302-.093-.58-.21-.871-.256-.454-.07-.965-.243-1.349-.104-1.348.499-2.662.8-3.976-.023-.383.673-.29.905.291 1.183 1.035.487 2.058.545 3.115.046.896-.417 1.779-.197 2.628.22.116.059.22.28.209.407-.047.626-.14 1.253-.221 1.926-.163-.012-.279 0-.384-.035-.697-.209-1.371-.197-2.034.105-.93.417-1.86.417-2.802 0-.767-.337-1.522-.279-2.313-.012-.546.186-1.15.255-1.744.267-.36.011-.476.093-.534.417-.058.325-.047.639.348.65.512.012 1.082.035 1.535-.15 1.07-.453 2.08-.476 3.139.011.662.302 1.348.255 2.034-.023.79-.325 1.616-.557 2.534-.128-.186.65-.372 1.311-.581 1.972-.035.093-.221.22-.29.198-.687-.21-1.303.07-1.907.301-.779.29-1.558.36-2.314 0-.964-.452-1.894-.429-2.848.012-.639.29-1.313.325-1.976.058-.325-.128-.453.023-.546.313-.093.279-.163.5.186.662.79.36 1.57.394 2.348.023.93-.441 1.872-.464 2.802-.012.86.43 1.674.255 2.522-.07.454-.173.953-.22 1.43-.324.058.07.116.139.174.197-.476.928-.883 1.926-1.488 2.761-.22.302-1.034.476-1.418.314-1.511-.615-2.94-.65-4.417.034-.244.105-.605 0-.895-.08-.465-.129-.907-.326-1.372-.465-.244-.07-.581-.232-.64.197-.046.348-.185.812.454.847.244.012.488.116.71.232.906.453 1.813.453 2.73.023.803-.37 1.593-.348 2.419-.011.476.197.988.29 1.57.464-.454.58-.884 1.172-1.36 1.717-.082.093-.315.081-.478.105-.488.058-1.022.023-1.464.197-.953.371-1.86.475-2.802.023-.081-.035-.186-.035-.267-.046-.256.707-.175.928.43 1.206.709.325 1.407.348 2.139.047.395-.163.825-.267 1.244-.407.035.059.081.128.116.186-.79.696-1.604 1.358-2.36 2.077-.72.673-1.453.916-2.383.406-.686-.371-1.418-.313-2.127.023-.953.453-1.883.464-2.837-.023-.744-.371-1.534-.371-2.29 0-.883.43-1.767.522-2.673.07-.872-.43-1.756-.418-2.628.011-.883.43-1.755.36-2.615-.07-.78-.382-1.57-.382-2.348-.011-.872.418-1.733.522-2.616.081-.918-.464-1.848-.371-2.732.047-.825.394-1.488.243-2.15-.372-.85-.777-1.756-1.496-2.628-2.239.035-.07.07-.14.117-.209.406.128.825.232 1.209.395.697.301 1.383.301 2.08-.012.663-.301.721-.406.524-1.172-.535.093-1.082.244-1.616.267-.372.023-.756-.139-1.128-.197-.616-.104-1.244-.186-1.86-.29-.163-.023-.36-.058-.453-.163-.454-.545-.884-1.113-1.314-1.659.686-.22 1.29-.499 1.93-.58.604-.081 1.302-.127 1.86.081 1.07.418 2.057.476 3.08-.046.186-.093.407-.174.605-.174.535-.012.523-.36.488-.72-.058-.475-.418-.44-.697-.301-1.36.696-2.686.603-4.057 0-.314-.14-.79 0-1.175.081-.778.163-1.5.731-2.348.383-.29-.116-.627-.336-.779-.603-.453-.8-.825-1.636-1.232-2.46.047-.058.082-.116.128-.174.442.081.918.081 1.314.255.976.441 1.918.476 2.906.024.755-.349 1.546-.325 2.302.011.825.36 1.65.5 2.522.093.337-.162.407-.325.28-.673-.129-.348-.292-.464-.64-.313-.674.278-1.337.174-1.976-.105-.907-.394-1.78-.452-2.686-.011-.907.44-1.79.243-2.697-.07-.476-.162-1.011-.127-1.511-.232-.163-.035-.372-.174-.43-.313-.151-.371-.233-.777-.349-1.16-.22-.778-.186-.882.64-.905a3.727 3.727 0 0 1 1.464.267c.86.36 1.674.406 2.523.011.895-.418 1.778-.336 2.697.012.5.185 1.093.209 1.639.232.395.011.5-.279.43-.65-.07-.348-.198-.43-.581-.418a4.555 4.555 0 0 1-1.628-.255c-.848-.313-1.65-.348-2.476.012-.755.325-1.534.44-2.313.104-.953-.336-1.848-.487-2.883-.081ZM18.55 17.033c-.058-.244-.07-.476-.175-.638-.406-.592-.802-1.183-1.278-1.717a1.146 1.146 0 0 0-.802-.337c-.907.024-1.814.105-2.709.21-.407.046-.802.208-1.372.359-.035-.047-.128-.232-.279-.383a3.781 3.781 0 0 0-.604-.43c-.163-.092-.36-.127-.512-.231-.604-.418-1.197-.847-1.802-1.265-.325-.22-.685-.406-1.023-.603-.034.046-.058.104-.093.15 1.29 1.219 2.511 2.507 4.023 3.528-.128.162-.244.36-.396.522-1.023 1.114-1.72 2.401-2.255 3.805-.674 1.799-.755 3.655-.662 5.534.011.14.116.267.186.407.15-.07.348-.105.43-.22.372-.488.779-.975 1.058-1.52.813-1.602 1.848-3.029 3.057-4.34.325-.36.616-.754.965-1.079.395-.371.976-.302 1.185.081.152.255.372.476.535.673-.395.754-.86 1.555-1.255 2.39-.384.836-.21 1.044.697.94.093-.012.186-.035.29-.058 1.314-.22 2.628-.43 3.942-.661.57-.105 1.15-.198 1.5-.755.29-.464.592-.904.883-1.369.209-.324.186-.626-.035-.963-.43-.65-.977-.905-1.767-.765-1.012.174-2.046.255-3.07.371-.022-.058-.046-.116-.069-.186.175-.139.349-.394.535-.406.93-.081 1.871-.07 2.801-.15.268-.024.582-.233.756-.441a7.94 7.94 0 0 0 .907-1.335c.104-.185.14-.533.035-.673-.372-.522-1.384-.568-1.872-.116-.581.557-1.15 1.103-1.755 1.671Zm20.645 9.061c.082-.324.152-.499.152-.684.011-.79.058-1.578 0-2.355a11.262 11.262 0 0 0-1.64-5.07c-.662-1.08-1.522-2.043-2.336-3.017-.175-.209-.523-.337-.814-.383-.686-.116-1.383-.15-2.07-.255-.86-.128-1.557.07-2.01.882a5.97 5.97 0 0 1-.64.893c-.313.394-.5.789-.046 1.241-.663-.557-1.325-1.079-1.86-1.705-.581-.673-1.14-.708-1.883-.325-.395.209-.477.406-.244.766.325.475.639.963.988 1.427.116.162.314.336.488.36.93.139 1.883.301 2.813.29.454 0 .64.139.895.556-1.267-.139-2.453-.22-3.627-.417-.767-.128-1.07.348-1.441.823-.326.418-.128.755.105 1.103.209.325.441.638.627.974.29.522.721.778 1.29.87 1.047.174 2.093.383 3.14.557.569.093 1.139.21 1.72.244.558.035.674-.15.488-.65a7.957 7.957 0 0 0-.5-1.114c-.314-.556-.674-1.102-.953-1.566.21-.186.453-.302.546-.487.326-.65.942-.778 1.43-.186 1.22 1.462 2.627 2.785 3.464 4.548.326.673.78 1.288 1.198 1.915.186.255.43.452.72.765Zm-18.17-12.866c0 .266-.057.556.012.8.082.267.21.603.43.72 1.686.94 3.395.928 5.069-.012.198-.105.372-.395.395-.627a11.45 11.45 0 0 0 0-1.67c-.174-2.356-.755-4.606-2.092-6.59-.686-1.021-1.023-1.021-1.71.023-1.464 2.227-2.022 4.722-2.103 7.356Zm12.997 12.68c-.058-.463-.14-1.183-.255-1.902-.059-.371-.256-.569-.686-.65a95.226 95.226 0 0 1-4.464-.951c-.86-.209-1.64-.197-2.07.58-.116.22-.302.406-.464.592-.337.371-.326.73-.093 1.16.755 1.38 1.65 2.564 3.394 2.715.128.011.256.081.384.116 1.092.325 2.174.661 3.278.951.57.151.825-.058.872-.591.023-.592.058-1.16.104-2.02Zm-20.122.128c.046 0 .104.012.151.012 0 .638-.012 1.276 0 1.903.012.452.29.65.732.615.175-.012.337-.058.512-.116 1.441-.43 2.894-.836 4.313-1.311.453-.151.941-.395 1.255-.743.465-.522.837-1.16 1.163-1.787.116-.232.046-.603-.035-.881-.07-.22-.326-.383-.442-.604-.419-.789-1.07-.893-1.86-.72-1.627.349-3.255.65-4.87 1.01-.21.047-.5.29-.547.488-.175.684-.256 1.415-.372 2.134Zm13.566 1.253c-.151.035-.384.024-.465.128-.384.452-.732.928-1.058 1.427-.081.128-.023.395.058.545.547 1.045 1.105 2.077 2.302 2.553.837.336 1.662.73 2.476 1.125.442.22.71.081 1-.255.79-.951 1.302-2.042 1.604-3.237.105-.43-.012-.65-.442-.766-1.15-.313-2.301-.65-3.452-.986a66.919 66.919 0 0 1-2.023-.534Zm-6.766.012c-.244.035-.372.035-.476.058-1.779.51-3.557 1.033-5.336 1.543-.36.105-.395.302-.314.603.326 1.207.802 2.332 1.616 3.295.314.372.628.523 1.093.256a11.397 11.397 0 0 1 1.58-.72c1.291-.464 2.267-1.264 2.918-2.494.36-.673.372-1.033-.104-1.636-.151-.197-.29-.418-.465-.58-.175-.163-.407-.255-.512-.325Zm6.394 9.908c-.081-.162-.116-.278-.186-.36a525.207 525.207 0 0 0-2.511-2.552c-.279-.278-.57-.197-.814.047-.802.777-1.592 1.566-2.383 2.366-.337.348-.302.673.128.94.79.487 1.57.998 2.372 1.45.162.093.465.082.627-.011.826-.464 1.616-.975 2.418-1.485.128-.093.233-.267.349-.395ZM12.39 40.934c.906-.163 1.662-.349 2.43-.407.952-.08 1.534-.464 1.65-1.461.035-.302.22-.58.256-.882.035-.22.011-.51-.117-.685a9.975 9.975 0 0 0-1.174-1.357c-.128-.128-.465-.174-.627-.093-.558.267-1.082.603-1.605.928-.15.093-.302.267-.337.441a56.77 56.77 0 0 0-.65 3.11c-.024.116.115.278.174.406Zm10.462-7.02c-.093-.197-.163-.406-.29-.568-.361-.43-.756-.836-1.117-1.253-.302-.36-.65-.406-1.023-.174-.965.603-1.93 1.218-2.883 1.833-.29.185-.337.371-.046.638.72.638 1.418 1.311 2.139 1.96.511.465.755.476 1.22-.01a66.014 66.014 0 0 0 1.71-1.892c.116-.15.185-.337.29-.534Zm13.008 7.043c-.267-1.3-.5-2.448-.744-3.597-.023-.128-.151-.278-.279-.348-.523-.336-1.058-.638-1.58-.963-.291-.186-.536-.162-.756.116-.384.464-.791.905-1.151 1.38a.748.748 0 0 0-.105.57c.151.556.372 1.09.523 1.647.105.406.36.557.733.626l2.162.383c.348.047.697.105 1.197.186Zm-10.706-7.09c.07.175.093.36.197.477.64.719 1.302 1.427 1.965 2.123.279.29.57.278.872.011l2.313-2.1c.233-.209.279-.417-.012-.615-1.01-.638-2.01-1.299-3.045-1.902-.186-.105-.605-.047-.768.104-.476.441-.895.951-1.325 1.45-.104.14-.128.302-.197.453Zm-1.105-9.374c-1.5.081-1.232 0-1.976 1.172-.151.232-.349.441-.418.685-.07.232-.105.557.011.742.919 1.566 1.198 1.694 3.011 1.613h.058c.523-.035 1.779-1.543 1.72-2.065 0-.024 0-.047-.011-.058-.372-.604-.674-1.277-1.15-1.787-.257-.267-.815-.22-1.245-.302Zm-.058-.336c.43-.116.942-.116 1.267-.371.396-.302.663-.801.93-1.242a.991.991 0 0 0 .093-.661c-.29-1.172-1.418-1.996-2.615-1.961-.675.023-2.07 1.601-2.011 2.262 0 .058.023.116.046.163.337 1.067 1.197 1.705 2.29 1.81Zm.175 5.128h-.85c-.615 0-1.8 1.415-1.696 2.03a.76.76 0 0 0 .174.348c.384.441.756.882 1.163 1.288.639.662 1.5.627 2.127-.058.267-.278.511-.568.767-.858.663-.754.628-.743.14-1.625-.43-.789-.919-1.438-1.825-1.125Zm-.128-9.92c.895.244 1.464-.197 1.895-.974.395-.72-.43-2.623-1.244-2.785-1.244-.244-1.732-.023-2.383 1.056-.07.116-.14.232-.221.348-.337.534-.268 1.01.046 1.555.465.788 1.093.94 1.907.8Zm-.035 21.29c.163.325.314.569.407.835.15.43.383.488.732.244.116-.081.233-.14.349-.209 1-.638 1-.638.372-1.612-.395-.627-.454-.673-1.012-.22-.604.486-1.127.556-1.697-.012-.023-.024-.07-.047-.093-.07-.337-.279-.57-.267-.825.14-.826 1.31-.872 1.055.395 1.855.674.418.674.407 1.035-.324.093-.186.197-.36.337-.627Zm7.847-7.1c-.163.127-.268.197-.36.29-.257.29-.524.568-.745.881-.163.232-.43.615-.349.743.28.452.675.824 1.047 1.207.023.023.22-.047.29-.128.489-.569.965-1.149 1.442-1.729.058-.07.081-.278.035-.301-.442-.337-.907-.639-1.36-.963Zm-15.682.023c-.36.22-.71.464-1.081.661-.442.232-.407.487-.128.812.407.464.79.952 1.185 1.416.07.08.21.232.245.22.186-.093.406-.197.523-.36.267-.37.755-.893.65-1.137-.232-.556-.767-.986-1.185-1.473-.035-.058-.116-.081-.21-.14Zm3.79 3.945c-.07-.151-.094-.233-.14-.279-.43-.406-.814-.928-1.325-1.183-.547-.279-.733.452-1.093.719-.163.128-.21.418-.302.638-.012.023.07.093.104.128.43.383.86.765 1.302 1.137.093.07.314.15.349.104.384-.406.744-.847 1.104-1.264ZM31 37.163l-1.267-1.16-1.64 1.496c.326.43.64.859.989 1.277.046.046.267.011.349-.058.465-.395.93-.824 1.383-1.242.058-.058.093-.15.186-.313ZM11.227 8.25a.625.625 0 0 0-.093.07c.07.139.14.29.221.417.837 1.23 1.686 2.449 2.523 3.678.36.51.732 1.021 1.092 1.532.29.418.616.14.93.07-.046-.21-.035-.476-.15-.615a585.304 585.304 0 0 0-4.244-4.908c-.081-.093-.186-.163-.279-.244Zm5.092-.464c-.058.035-.128.058-.186.093 1.093 2.576 2.174 5.163 3.278 7.75.825-.51.883-1.01.279-1.566a1.212 1.212 0 0 1-.267-.371c-.744-1.416-1.465-2.843-2.21-4.258-.29-.546-.592-1.091-.894-1.648Zm15.53.116c-.07-.023-.139-.058-.197-.081-.302.557-.593 1.114-.895 1.67-.86 1.602-1.71 3.203-2.57 4.792-.383.72-.336.963.396 1.346 1.093-2.575 2.174-5.151 3.267-7.727ZM14.46 34.1c.43-.325.883-.627 1.244-1.01.093-.092-.093-.522-.233-.742-.732-1.218-.93-1.265-1.964-.499-.117.081-.221.348-.163.453.244.545.546 1.055.837 1.577.035.082.14.128.279.22Zm19.076.011c.128-.092.233-.139.267-.208.291-.522.593-1.033.837-1.578.047-.116-.046-.383-.162-.464-.977-.754-1.233-.696-1.86.325-.035.046-.082.092-.093.139-.082.255-.314.638-.221.742.349.406.814.708 1.232 1.044Zm-1.65-20.315c.616.464.93.43 1.278-.093 1.116-1.647 2.279-3.272 3.406-4.896.082-.116.14-.267.21-.394-.047-.024-.094-.058-.14-.082-1.57 1.81-3.15 3.62-4.755 5.465Zm2.87 14.804c-.708-.22-.732.418-.894.894-.442 1.241-.43 1.23.767 1.67.302.117.476.07.558-.255.116-.499.267-.998.36-1.508.116-.743.047-.789-.79-.8Zm-21.575 0c-.302.058-.837-.162-.756.465.082.65.245 1.276.419 1.914.023.104.314.232.43.197 1.197-.302 1.29-.499.86-1.659-.035-.093-.081-.174-.093-.278-.058-.5-.302-.766-.86-.639Zm7.824 11.94c.15-.187.302-.337.418-.5.698-1.056.698-1.056-.29-1.798-.605-.453-.605-.453-1.07.162-.058.081-.116.151-.163.232-.511.743-.511.743.221 1.277.256.208.546.406.884.626Zm5.986-.036c.175-.104.326-.185.465-.278 1.407-1.021 1.233-.673.337-1.996-.255-.371-.453-.371-.778-.104-1.337 1.044-1.21.661-.314 2.111.058.105.186.174.29.267ZM5.16 15.71a3.208 3.208 0 0 0-.07.186c1.477.766 2.953 1.543 4.44 2.274.094.046.408-.232.547-.418.047-.07-.093-.406-.209-.452a112.638 112.638 0 0 0-3.15-1.09c-.523-.175-1.047-.337-1.558-.5Zm32.7 1.694c.245.847.35.905.989.569.976-.51 1.964-.998 2.94-1.497.373-.185.733-.394 1.093-.58-.023-.058-.058-.128-.08-.186a621.987 621.987 0 0 0-4.941 1.694Zm-2.197 10.06c-.058-.511-.07-.917-.174-1.277-.046-.15-.302-.325-.488-.336-.186-.023-.5.07-.57.197a2.713 2.713 0 0 0-.302 1.033c-.012.278.058.707.244.823.28.174.71.186 1.046.128.128-.023.198-.441.244-.569Zm-22.005.464v-1.416c0-.36.011-.684-.523-.696-.5-.012-.721.15-.71.65.012.15-.011.313-.023.464-.128 1.23-.011 1.334 1.256.998Zm26.446-15.78c-.023-.046-.058-.08-.081-.127-.105.035-.21.058-.302.116a346.559 346.559 0 0 0-3.441 2.344c-.245.174-.512.394-.198.754.314.371.57.104.79-.081.338-.279.628-.627.954-.929.744-.684 1.51-1.38 2.278-2.076Zm-6.673 9.143c-.058.035-.104.07-.162.104.104.279.232.557.314.847.244.905.453 1.822.72 2.727.047.174.244.371.419.43.116.046.465-.117.453-.186-.023-.453-.035-.929-.197-1.346-.186-.476-.512-.894-.78-1.335-.243-.417-.51-.835-.767-1.24ZM20.585 10.617l.174.035c.245-.406.5-.836.372-1.346a191.154 191.154 0 0 0-.976-3.736c-.012-.058-.093-.093-.279-.267.256 1.88.477 3.597.71 5.314Zm-5.847 10.72c-.047-.023-.093-.034-.14-.058-.825 1.103-1.441 2.32-1.79 3.667-.035.116.221.429.349.429.174 0 .476-.162.523-.325.267-.916.465-1.856.71-2.784.08-.314.232-.615.348-.929Zm13.345-15.86-.244-.035c-.337 1.335-.71 2.657-.977 4.003-.07.371.198.812.314 1.23.082-.012.151-.035.233-.046.22-1.717.453-3.435.674-5.152ZM3.88 20.514c.175.15.221.22.28.232 1.197.336 2.406.684 3.615.974.662.163.697.082.639-.673-.384-.092-.779-.232-1.186-.29-.302-.046-.604.024-.907 0a64.225 64.225 0 0 1-2.44-.243Zm40.257 0c-.86.08-1.535.139-2.22.22-.686.081-1.372.209-2.058.29-.314.035-.418.22-.314.464.058.128.314.279.442.256 1.232-.302 2.453-.627 3.685-.952.116-.023.21-.116.465-.278Zm-7.359 4.049c-.197.127-.5.209-.558.383-.093.243.593.928.86.87.361-.093.803-.209 1-.476.163-.22-.592-.65-1.302-.777Zm-26.934.882c1.197.626 1.558.475 2.034-.847-.732.185-1.627-.174-2.034.847ZM35.546 43.3c-6.94 4.386-16.67 4.108-22.854.116.662-.394 1.348-.452 2.057-.255.21.058.407.128.593.22.872.407 1.72.36 2.57-.057.755-.372 1.522-.383 2.29 0 .883.44 1.778.475 2.685.046.872-.418 1.755-.43 2.627 0 .953.464 1.872.36 2.79-.07.71-.336 1.43-.348 2.127 0 .977.488 1.93.441 2.895-.011.709-.325 1.418-.325 2.22.011Z"/>
</svg>
