<svg>
  <path d="M15.35 1.948c.826.43 1.918 1.486 2.257 2.18.305.624.23.897-.356 1.304-.417.29-.44.32-.369.476.194.429 1.195.602 1.575.273l.136-.119-.125-.25c-.775-1.553 1.104-2.883 3.387-2.397.739.157.727.122.21.651-1.044 1.068-1.875 2.772-2.22 4.549l-.112.58-.262-.107c-1.958-.802-6.03-.897-8.108-.19-.926.316-.866.318-.903-.04-.154-1.487-1.224-3.75-2.278-4.816-.483-.488-.485-.473.065-.605 2.272-.542 4.3.751 3.582 2.284-.19.402-.08.562.428.623.71.085 1.441-.459.998-.742-.385-.246-.675-.5-.734-.645-.265-.644.817-2.048 2.248-2.917.326-.198.366-.204.581-.092m17.733.003c.82.422 1.903 1.466 2.259 2.176.313.627.236.88-.41 1.346-.434.314-.431.308-.22.55.512.588 1.824.368 1.475-.247-.192-.337-.178-.992.029-1.369.492-.896 2.052-1.324 3.537-.97.55.132.55.114.041.63-1.007 1.025-1.93 2.911-2.2 4.494-.111.658-.047.63-.85.363-2.13-.71-6.414-.644-8.093.125-.393.18-.42.162-.486-.328-.22-1.63-1.311-3.833-2.382-4.811-.37-.338-.37-.34.215-.48 2.278-.542 4.253.746 3.553 2.319-.296.665.926.891 1.465.271.204-.234.197-.252-.238-.56-.479-.34-.603-.524-.561-.83.1-.744 1.09-1.87 2.277-2.59.327-.198.365-.204.59-.089m-18.505 1.04c-.824.515-1.437 1.229-1.439 1.675 0 .144.196.336.648.633.81.532-.141 1.63-1.412 1.63-1.02 0-1.556-.562-1.185-1.244.55-1.008-.392-1.933-1.81-1.78-.476.051-.477.058-.133.52.594.8 1.086 1.82 1.615 3.344.076.22.167.4.202.4s.314-.056.62-.126c1.574-.357 5.32-.356 6.905.001.306.07.586.126.62.126.036 0 .118-.169.183-.375.392-1.239 1.032-2.572 1.606-3.345.365-.491.364-.495-.107-.545-1.413-.153-2.345.742-1.836 1.762.226.45.225.541-.009.801-.684.765-2.318.544-2.787-.376-.202-.396-.13-.565.389-.919.21-.143.406-.307.437-.365.219-.412-.639-1.43-1.666-1.978-.33-.177-.29-.184-.841.16m17.944-.124c-.988.538-1.803 1.506-1.615 1.922.03.066.225.236.433.378.447.304.534.454.447.777-.28 1.049-2.36 1.361-2.924.439-.138-.225-.126-.331.085-.755.296-.592.195-.988-.353-1.389-.383-.28-1.303-.428-1.795-.29l-.144.04.184.244c.707.933 1.277 2.083 1.744 3.511.077.235.168.427.204.427.035 0 .316-.058.624-.128 1.564-.356 5.255-.354 6.924.003.347.075.639.127.649.117.01-.01.138-.355.284-.767.472-1.326.91-2.208 1.475-2.972.37-.497.36-.512-.35-.512-1.369-.001-2.103.78-1.62 1.722.208.405.226.538.096.734-.605.917-2.568.662-2.91-.38-.118-.354-.047-.497.39-.793.482-.327.527-.384.486-.629-.082-.489-.717-1.166-1.558-1.661-.426-.251-.368-.248-.756-.038m-7.941 6.517c1.08.703 1.998 1.801 2.066 2.473.034.325-.085.495-.599.852-.55.382-.19.847.66.852.637.003.806-.174.602-.633-.69-1.548 1.302-2.832 3.54-2.282.605.149.602.12.074.657-1.044 1.06-2.095 3.288-2.244 4.755-.018.18-.042.327-.053.327-.01 0-.327-.104-.702-.23-2.15-.73-6.47-.658-8.203.134-.308.14-.313.135-.411-.382-.363-1.921-1.386-3.942-2.442-4.824-.311-.26-.299-.281.243-.423 1.493-.389 3.104.066 3.564 1.007.17.35.173 1.025.005 1.345-.149.284-.147.296.07.432.393.244 1.207.098 1.468-.265.128-.178.09-.24-.334-.54-.201-.142-.412-.337-.468-.434-.338-.588.743-2.03 2.198-2.933.408-.254.404-.254.966.112m-.94.705c-.892.521-1.64 1.333-1.64 1.78 0 .112.22.342.513.538.52.348.586.574.294 1.014-.813 1.226-3.45.766-2.753-.48.61-1.091-.465-2.05-2.011-1.792-.244.04-.241.078.035.432.547.703 1.09 1.778 1.524 3.022.309.882.24.82.76.693 1.841-.448 5.738-.406 7.639.081.132.034.14.022.317-.499.537-1.576 1.035-2.577 1.69-3.4.232-.29.2-.324-.335-.35-1.451-.075-2.26.755-1.728 1.774.608 1.166-1.485 1.763-2.541.725-.514-.505-.487-.82.105-1.23.198-.137.388-.288.423-.336.272-.37-.432-1.293-1.464-1.92-.394-.24-.498-.246-.828-.052m-10.883 6.578c.187.056.357.065.657.036.69-.068 1.047.028 1.52.408l.13.106.254-.116c.569-.26 1.22-.134 1.694.327.204.199.217.204.41.15.587-.165 1.32.098 1.654.593.098.145.148.177.231.15.845-.268 1.766.252 1.64.927-.067.362-.416.39-.355.028.042-.253-.067-.426-.338-.536-.503-.203-1.311.022-.883.246.08.041.248.167.375.28.17.151.294.213.475.24.904.136 1.914 1.258 1.333 1.481-.242.093-.372.025-.339-.178.038-.239-.04-.36-.382-.588-.572-.383-.95-.487-.931-.258.016.196 0 .245-.073.245-.108 0-.246-.248-.255-.456-.014-.34-.613-.622-1.195-.561-.332.035-.42.095-.387.269.02.105.004.128-.088.128-.197 0-.31-.095-.31-.262 0-.313.353-.504 1-.542.284-.017.306-.027.293-.135-.072-.586-1.182-.975-1.65-.578-.201.171-.501.105-.385-.085.154-.252-.322-.586-.842-.59-.401-.004-.631.109-.82.402-.187.288-.387.257-.387-.06 0-.652-1.8-.955-2.053-.346-.088.214-.135.245-.302.203-.142-.036-.189-.303-.073-.42.266-.268-.504-.184-1 .109-.412.243-.438.322-.127.39.474.102.724.331.55.506-.042.043-.121.033-.308-.042-.485-.192-1.267-.043-1.235.236.036.304.021.31-.688.31-.857 0-1.241.192-1.246.62-.001.192-.076.249-.275.211-.146-.027-.185-.059-.185-.149.002-.647.634-1.12 1.525-1.14.372-.01.42-.023.604-.176.11-.092.216-.167.237-.167.02 0 .11-.11.2-.245.565-.845 1.476-1.225 2.33-.971m23.616.003c.362.112.776.416 1.054.774.264.341.29.369.57.602.178.147.231.162.623.178.881.035 1.515.48 1.515 1.062 0 .182-.011.197-.185.23-.208.039-.274-.02-.275-.247-.002-.414-.523-.64-1.37-.597-.571.03-.601.013-.564-.295.035-.287-.736-.437-1.234-.239-.187.075-.266.085-.31.042-.172-.174.077-.404.548-.506.322-.07.325-.091.045-.295-.472-.341-1.34-.504-1.161-.217.078.125.058.397-.032.432-.16.062-.226.028-.3-.152-.269-.647-2.005-.417-2.078.275-.035.336-.222.373-.412.082-.412-.631-1.782-.497-1.659.163.044.238-.107.282-.372.11-.496-.324-1.318-.127-1.576.376-.15.292-.116.34.241.344.596.008.96.206.96.52 0 .18-.105.276-.307.276-.089 0-.106-.026-.093-.14.043-.369-.791-.377-1.36-.014-.217.139-.241.173-.215.298.035.162-.14.497-.241.463-.035-.011-.07-.094-.079-.184-.021-.22-.148-.217-.612.018-.48.242-.751.538-.707.775.048.256-.38.324-.459.073-.147-.467.603-1.192 1.404-1.358.2-.04.362-.119.52-.248.126-.103.302-.232.392-.286.255-.155.04-.327-.41-.326-.54 0-.88.256-.824.616.028.174.018.199-.09.228-.3.08-.35-.611-.065-.898.284-.286.924-.433 1.351-.309.17.05.183.043.42-.225.385-.436 1.073-.658 1.548-.5.184.061.193.058.446-.171.489-.444 1.026-.547 1.613-.31l.336.135.138-.13c.36-.34.847-.466 1.512-.392.311.035.448.028.615-.03.28-.1.823-.101 1.14-.003m-22.41 1.318c.385.108.68.39.577.554-.087.14-.212.137-.381-.007-.401-.34-1.52-.307-1.86.056-.123.13-.238.15-.33.057-.395-.398 1.129-.903 1.993-.66m21.668.113c.438.2.617.5.35.585-.065.02-.153-.014-.255-.1-.433-.368-1.6-.385-1.92-.028-.123.137-.248.126-.33-.028-.1-.189.12-.403.563-.55.285-.094 1.287-.018 1.592.121m-19.396.846c.463.228.73.791.399.839-.08.011-.115-.01-.115-.07 0-.312-.675-.618-1.283-.584-.417.024-.562.124-.562.387 0 .205-.162.24-.363.076-.149-.122-.071-.47.136-.607.427-.283 1.258-.302 1.788-.04m17.022-.108c.605.181.734.852.165.852-.083 0-.1-.036-.1-.21 0-.572-1.524-.446-1.79.149-.126.284-.348.198-.29-.112.106-.569 1.178-.93 2.015-.679m-20.408.43c.247.11.273.155.184.322-.063.119-.158.124-.433.024-.589-.214-1.444-.043-1.572.313-.07.195-.419.218-.605.04-.476-.456 1.62-1.059 2.426-.699m23.614-.072c.769.148 1.495.705 1.072.821-.394.11-.463.097-.556-.1-.167-.355-.973-.513-1.557-.305-.294.105-.395.098-.464-.032-.18-.338.648-.55 1.505-.384m-29.092.058c.34.344-.127 1.687-.737 2.113-.397.277-.745.088-.745-.404 0-.887 1.071-2.123 1.482-1.709m33.858.08c.714.476 1.169 1.859.696 2.114-.424.23-.987-.313-1.3-1.25-.287-.866-.004-1.27.604-.864m-34.403.514c-.218.165-.454.627-.487.952-.036.35.04.374.334.106.548-.499.688-1.465.153-1.058m34.01-.072c-.193.194.503 1.354.777 1.297.222-.047-.07-.913-.403-1.196-.156-.132-.304-.172-.375-.101m-31.045.14c.146.04.36.125.474.19.332.189.25.365-.098.21-.632-.282-1.692-.008-1.483.384.088.168.039.205-.27.2-.298-.005-.398-.096-.398-.366 0-.504.958-.837 1.775-.617m29.578.01c.721.216.878.963.205.973-.272.004-.36-.042-.267-.137.39-.393-.8-.747-1.486-.442-.24.107-.365.014-.193-.142.312-.285 1.2-.413 1.74-.252m-22.567.33c1.638.193 3.273.688 4.163 1.26 1.206.775 1.357 2.034.257 2.14-.644.063-.966 1.873-.433 2.433.35.367.82 1.19.988 1.73.064.206.136.329.224.383.634.389 1.008.696 1.58 1.295l.425.447.302-.321c.49-.522.971-.944 1.408-1.233.39-.257.416-.288.533-.598.267-.713.59-1.277.956-1.671.376-.404.38-1.28.013-2.1l-.154-.342-.274-.023c-1.288-.108-.847-1.61.705-2.397 3.88-1.97 12.114-1.103 13.357 1.407.268.54.053 1.279-.603 2.066-.168.202-.321.422-.341.49-.296 1.014-1.103 2.445-1.666 2.956-.14.127-.298.332-.351.456-.69 1.62-2.362 3.151-3.938 3.609-.322.093-.486.176-.692.349a8.696 8.696 0 0 1-1.615 1.033c-.556.265-.543.232-.215.557.143.141.34.379.438.528.222.335.272.339.871.058 1.463-.683 2.883-.986 4.221-.9 3.212.207 4.9 1.585 4.116 3.36-.267.604-.28.552.186.746.656.273 1.539.943 1.324 1.005-.037.011-.213.058-.392.105-.345.09-.925.364-1.136.537l-.128.104.106.121c.462.524 1.012 1.903.71 1.776-.716-.3-.78-.311-1.61-.29-2.414.06-2.731-.008-3.096-.675-.17-.31-.165-.507.026-1.033.345-.946.63-2.11.538-2.203-.096-.096-1.537-.038-2.04.083-.543.13-.561.152-.378.423.226.337.545 1.204.545 1.484 0 .058.092.218.206.356.34.416.427.71.44 1.497.008.524.03.717.098.85.24.47.062 1.667-.393 2.632-.141.298-.283.6-.315.671-.235.513-1.151 1.15-1.944 1.353-1.97.502-4.056-.91-3.726-2.525.372-1.818 2.981-1.641 2.993.203.003.412.042.431.397.194.44-.295.731-.925.787-1.71l.031-.434-.224-.362c-.277-.447-.538-1.003-.582-1.239a.525.525 0 0 0-.22-.32 3.135 3.135 0 0 1-.788-.91c-.131-.222-.233-.342-.276-.325-.037.014-.466.29-.953.614-5.91 3.926-8.84 3.9-15.072-.134-.31-.2-.57-.337-.58-.306-.07.21-.462.712-.722.923-.235.19-.324.301-.368.458-.086.3-.364.89-.58 1.23-.438.691-.114 2.044.607 2.538.314.214.358.188.363-.217.01-.847.638-1.465 1.49-1.465 1.561 0 2.088 1.822.874 3.023-1.451 1.435-4.33.99-5.118-.789a14.63 14.63 0 0 0-.297-.626c-.37-.72-.542-2.166-.302-2.535.067-.104.078-.222.057-.619-.038-.736.133-1.305.527-1.754a.808.808 0 0 0 .147-.352c.041-.277.212-.785.371-1.106a1.51 1.51 0 0 0 .121-.29c0-.135-2.225-.52-2.339-.406-.076.077.107.93.37 1.727.37 1.117.362 1.28-.094 1.703-.427.395-1.049.478-2.681.357-.669-.05-1.148.021-1.568.234-.258.13-.297.122-.297-.063 0-.234.275-.857.593-1.345.267-.41.276-.433.19-.519-.149-.147-.82-.458-1.212-.56-.215-.057-.359-.12-.35-.156.04-.17.835-.718 1.359-.938.298-.125.394-.188.375-.247a22.06 22.06 0 0 0-.207-.545c-.501-1.29.11-2.22 1.841-2.807 1.705-.577 3.66-.342 5.878.708.537.255.52.253.9.058.167-.085.335-.155.375-.155.039 0 .116-.084.17-.186.055-.102.256-.352.447-.555.192-.203.348-.373.348-.376 0-.004-.12-.06-.269-.123-.618-.268-1.464-.8-1.93-1.212-.127-.113-.33-.205-.67-.305-1.456-.429-2.923-1.723-3.741-3.301-.19-.366-.358-.608-.564-.81-.544-.538-1.404-2.076-1.56-2.79-.02-.096-.177-.34-.356-.556-1.032-1.241-.981-2.114.171-2.975.96-.716 3.078-1.362 5.026-1.532.352-.03.721-.065.82-.077.318-.037 2.521.017 2.996.073m-2.868.602c-3.918.323-6.223 1.219-6.224 2.417v.255l.12-.115c.127-.12.641-.34.687-.294.015.015-.024.22-.087.457-.177.664-.043.973.534 1.23.76.337 2.497.324 4.278-.032 1.577-.315 3.713-.358 4.852-.098.33.076 1.153.343 1.415.46l.282.125.034-.268c.055-.435.122-.654.36-1.173l.224-.491-.1-.36c-.17-.617-.069-.652.525-.18.35.28.49.237.348-.108-.452-1.1-4.3-2.069-7.248-1.825m18.007-.002c-2.845.256-5.434 1.292-5.143 2.059.051.134.12.095.801-.454.25-.202.259-.183.14.32-.136.573-.133.604.106 1.085.196.396.353.951.355 1.26v.14l.27-.111c1.747-.73 3.598-.839 6.305-.373 3.607.62 5.474.124 4.773-1.27a1.433 1.433 0 0 1-.128-.315c0-.092.397-.011.652.133.48.27.253-.495-.28-.941-1.212-1.017-5.114-1.779-7.851-1.533m-23.692.2c.202.084.224.176.075.312-.095.087-.109.087-.196.008-.35-.32-1.174.252-1.15.799.012.291-.06.357-.277.257-.122-.056-.13-.08-.108-.34.06-.723 1.001-1.313 1.656-1.037m32.487.11c.582.284.94 1.067.577 1.263-.202.11-.302.02-.29-.258.023-.543-.738-1.076-1.135-.796-.112.079-.126.078-.219-.016-.337-.34.465-.486 1.067-.193m-34.77.433c.457.494.373 2.13-.126 2.46-.495.328-.928-.175-.986-1.143-.066-1.122.581-1.89 1.111-1.317m16.775-.045c.579.46.685 2.385.136 2.467-.443.066-1.029-1.765-.743-2.322.132-.256.388-.318.607-.145m2.92-.058c.566.217.11 2.533-.5 2.533-.611 0-.44-2.275.191-2.532.145-.059.158-.059.308-.001m17.096.068c.693.47.454 2.605-.289 2.584-.364-.01-.58-.313-.694-.973-.203-1.176.332-2.053.983-1.61m-20.35.432c-.155.189.027 1.288.243 1.47.292.243.282-.977-.011-1.428-.098-.15-.137-.157-.231-.042m3.042-.043c-.209.13-.403 1.286-.249 1.481.081.103.083.103.185-.019.318-.38.375-1.655.064-1.462m-19.975.085c-.284.2-.293 1.428-.011 1.58.313.17.528-.432.432-1.21-.05-.41-.19-.533-.42-.37m36.777-.014c-.356.44-.105 1.807.292 1.592.238-.128.29-1.188.074-1.482-.12-.163-.283-.212-.366-.11m-20.598 1.993c.562.374 1.015 1.862.68 2.235-.227.253-.582-.001-.897-.642-.477-.97-.342-1.965.217-1.593m5.115.05c.375.478-.327 2.286-.887 2.286-.533 0-.309-1.52.321-2.179.273-.286.406-.31.566-.107m-20.027.28c.407.806.125 2.735-.361 2.473-.333-.18-.449-2.172-.15-2.556.169-.216.377-.182.51.083m34.965-.176c.395.264.338 2.366-.071 2.636-.296.195-.549-.423-.545-1.332.003-.98.266-1.537.616-1.304m-36.651.148c.981.685 1.094 2.772.132 2.452-.636-.212-1.285-1.745-.986-2.33.153-.297.527-.35.854-.122m38.57-.082c.496.267.214 1.652-.467 2.294-.991.936-1.41-.815-.468-1.96.283-.345.663-.48.935-.334m-22.073.267c-.094.095-.072.34.067.736.312.894.617.632.357-.307-.117-.424-.273-.581-.424-.43m4.664.041c-.2.218-.368 1.001-.248 1.164.112.15.292-.053.435-.488.193-.593.088-.973-.187-.676m-21.608.089c-.224.226.045 1.124.448 1.49.552.503.646-.293.136-1.144-.222-.37-.435-.496-.584-.346m38.43.07c-.437.386-.716 1.45-.412 1.567.31.12.842-.702.842-1.303 0-.45-.13-.53-.43-.264m-36.63.217c-.131.656-.003 1.504.153 1.009.044-.138.04-1.002-.004-1.075-.053-.087-.124-.056-.149.066m35.043 0c-.088.333-.02 1.123.097 1.123.096 0 .127-.123.127-.508 0-.538-.141-.926-.224-.615m-26.697.345c-.487.074-1.285.215-2.254.397-1.594.3-2.276.352-2.967.223-.372-.07-.362-.094-.164.394.755 1.86 2.14 2.318 5.539 1.834 3.21-.458 3.983-.536 5.033-.51.947.022.906.049.64-.423-.52-.918-1.498-1.523-2.932-1.815-.579-.118-2.374-.18-2.895-.1m16.291-.015c-1.994.299-3.106.924-3.681 2.07a3.864 3.864 0 0 0-.135.285c0 .009.397.008.883-.003.875-.018 1.955.072 3.317.276 2.375.356 2.385.357 3.714.36 2.187.002 3.004-.486 3.566-2.132l.094-.275-.242.042c-.488.084-1.743.042-2.316-.077a26.525 26.525 0 0 0-.845-.162c-.17-.028-.711-.125-1.204-.215-.872-.16-2.596-.253-3.15-.17M6.262 27.196c.549.589.729 2.89.236 3.015-.36.092-.78-.853-.915-2.057-.089-.795.309-1.355.679-.958m35.962 0c.483.52-.064 3.095-.642 3.025-.693-.084-.304-3.141.399-3.141a.39.39 0 0 1 .243.116m-36.174.531c-.053.14-.037.524.048 1.103.119.811.302 1.019.364.411.073-.71-.257-1.921-.412-1.514m35.738-.016c-.157.191-.318 1.28-.247 1.664.047.251.185.23.273-.04.228-.7.208-1.91-.026-1.624m-23.065.641a90.61 90.61 0 0 0-2.754.33l-1.46.205c-1.126.157-1.73.208-2.477.208-.786 0-.761-.026-.469.474.596 1.018 1.736 1.852 2.805 2.05 1.29.24 2.255.089 4.739-.744 1.614-.541 2.307-.742 3.125-.904.31-.062.572-.12.582-.13.041-.04-.55-.617-.813-.794-.763-.516-2.12-.803-3.278-.695m9.298.018c-1.184.142-2.148.603-2.683 1.284l-.158.2.473.091c.823.158 1.765.425 3.11.881 2.41.818 3.276.984 4.457.853a4.28 4.28 0 0 0 3.35-2.314c.138-.269.134-.27-.622-.271-.863 0-1.455-.063-3.752-.393-1.978-.285-3.533-.408-4.175-.331m-3.875 2.274c-.47.12-1.41.702-1.362.844.01.03.167.094.348.142.631.164 1.534.512 2.942 1.133 2.59 1.143 3.869 1.15 5.545.032.407-.272.402-.306-.06-.38-.542-.087-.94-.204-3.052-.895-2.777-.908-3.594-1.072-4.36-.876m-2.35.152c-.297.08-1.322.405-2.28.723-1.794.593-2.72.86-3.19.916-.147.017-.268.05-.268.072 0 .128 1.266.876 1.48.875.046 0 .193-.056.328-.126.135-.069.37-.153.522-.188.195-.044.355-.129.548-.29.7-.589 1.453-1 2.147-1.171.422-.104.472-.131.815-.446a5.75 5.75 0 0 1 .44-.377c.075-.043.1-.142.034-.136-.021.001-.28.068-.577.148m-.23 1.433c-.511.116-1.049.36-1.396.635-.22.173-.216.182.128.303.162.058.479.178.704.267.226.09.525.205.666.257.141.053.568.228.948.39 2.07.88 3.509.935 4.95.19.235-.122.322-.074-1.227-.683-.71-.279-1.635-.65-2.058-.824-1.164-.48-2.12-.669-2.715-.535m-2.946 1.51c-.612.202-1.647 1.039-1.285 1.039.263 0 1.642.377 2.646.723 1.097.379 2.083.414 2.994.107.841-.283.841-.292.013-.618a45.122 45.122 0 0 1-1.858-.77c-1.04-.449-1.196-.492-1.818-.509-.31-.008-.621.004-.692.027m11.117.525a3.372 3.372 0 0 1-.445.046c-.153.002-.374.085-.769.285-1.08.55-2.21.855-3.157.855-.599 0-.66.063-.203.21.804.256 1.811.194 2.954-.183.37-.121.792-.259.938-.305.373-.117 1.506-.393 1.615-.393.15 0 .105-.102-.152-.341-.26-.242-.323-.256-.781-.174m5.866.156c-1.622.195-3.293.978-5.43 2.545l-.82.6c-3.99 2.924-6.462 3.04-10.595.5-.45-.277-.426-.278-.837.033a6.102 6.102 0 0 1-1.674.918l-.247.088.862.543c5.855 3.688 8.4 3.626 14.345-.35 2.062-1.38 2.636-1.722 3.397-2.022 1.896-.748 4.185-.485 5.266.605.12.121.228.209.241.196.177-.178.597-1.444.58-1.747-.074-1.322-2.474-2.222-5.088-1.909m-26.008.255c-1.097.206-1.978.724-2.217 1.303-.16.386-.107.673.298 1.636.232.55.195.534.508.23.353-.343.523-.456.942-.625.697-.28 3.175-.123 3.856.245.086.046.154.017.417-.179.173-.128.333-.233.356-.233.023 0 .056-.066.073-.147.04-.184.345-.65.63-.964.27-.297.281-.26-.128-.446-1.825-.831-3.31-1.088-4.735-.82m26.79.814-.014.865-.14.017-.142.016v-1.763h.31l-.014.865Zm1.126-.832c.4.032.422.04.422.155 0 .111-.021.122-.253.122h-.253l-.029.22c-.016.12-.053.426-.082.68-.06.517-.07.546-.192.545-.21-.002-.23-.066-.172-.522.031-.238.07-.553.088-.7l.031-.268-.196-.017c-.159-.013-.2-.038-.213-.132-.019-.133.08-.143.849-.083m-2.152.276c.206.127.238.464.064.686-.14.18-.137.188.154.477.47.467.153.586-.343.13-.36-.333-.374-.329-.338.1.029.351.026.361-.106.422-.178.082-.167.113-.233-.626-.031-.355-.07-.753-.086-.884-.044-.363.494-.548.888-.305m-24.197.505c.195.305.362.531.371.503.01-.028.058-.26.11-.516.092-.467.15-.55.31-.446.065.042-.019.803-.178 1.62-.065.331-.232.192-.64-.531l-.379-.674-.014.6-.014.6-.14-.017-.139-.016-.014-.773c-.017-.9-.015-.906.205-.906.157 0 .19.035.522.556m27.773-.427c.113.071.112.094-.067 1.484-.055.43-.294.34-.295-.112 0-.274-.003-.278-.193-.344l-.193-.068-.21.23c-.216.237-.272.263-.399.182-.07-.045.244-.518.855-1.283.185-.233.256-.245.502-.09m-29.103.22c.052.475.125 1.38.111 1.394-.19.19-.26.04-.355-.752-.103-.87-.097-.938.086-.938.114 0 .128.025.158.297m25.04-.057c-.068.028-.082.392-.02.55.064.163.315-.078.315-.302 0-.149-.118-.302-.214-.278a1.092 1.092 0 0 0-.08.03m-26.04.212c.275 1.004.343 1.541.203 1.616-.13.07-.11.096-.226-.312-.125-.443-.115-.438-.424-.221-.3.211-.3.21-.183.633.116.423-.09.698-.223.298a98.04 98.04 0 0 0-.27-.779c-.205-.584-.21-.616-.126-.71.128-.143.157-.127.257.146.13.359.142.363.457.144.359-.25.346-.22.26-.592-.099-.428.161-.64.275-.223m25.2.258c.03.22.07.517.088.66.13 1.05-.892 1.43-1.159.43-.135-.508-.147-.89-.03-.986.192-.156.186-.166.28.525.074.54.287.8.489.597.1-.102.109-.483.023-1.102-.05-.362-.048-.438.013-.477.187-.12.238-.058.296.353m-20.624-.19c.308.256.218.495-.103.275-.336-.23-.659-.069-.781.389-.104.39-.003.594.375.753.181.076.22.201.105.331-.05.056-.442-.118-.58-.258-.704-.71.226-2.12.984-1.49m25.1.017c-.142.183-.143.219-.008.291.142.077.159.05.14-.215l-.016-.225-.115.149Zm-21.977.037c-.402.067-.861.325-1.213.681-.346.35-.335.379.15.394.113.003.597.087 1.076.187 1.86.388 2.555.36 3.535-.142.627-.32.653-.288-.46-.58a41.702 41.702 0 0 1-1.087-.308c-.927-.276-1.407-.332-2.001-.232m13.866-.003c-.158.024-.63.145-1.05.27-.42.124-1.022.293-1.337.375-.66.171-.664.185-.112.466.822.417 1.253.46 1.661.161.43-.313 1.118-.795 1.499-1.047.42-.28.203-.353-.661-.225m9.725.048c.172.106.2.178.118.308-.04.066-.06.064-.144-.012-.338-.309-.457-.028-.191.45.24.434.201.74-.11.859-.312.12-.829-.188-.689-.41.038-.06.076-.054.223.038.411.256.546.014.27-.485-.359-.645-.043-1.096.523-.748m-16.44.57c-.356.145-1.072.266-1.491.25-.364-.012-.375-.009-.652.205-.53.408-1.514.842-2.177.96l-.358.063.378.222c3.542 2.087 5.864 2.06 8.856-.1l.277-.2-.376-.114c-.485-.146-1.316-.559-1.673-.83-.271-.207-.291-.213-.644-.204-.43.01-1.127-.106-1.504-.252-.323-.125-.332-.125-.636 0m8.861.108c.013.109-.015.147-.147.202-.302.126-.412.435-.3.842.107.39.337.492.6.269.158-.134.39-.032.293.128-.43.701-1.265.292-1.273-.625-.006-.604.764-1.363.827-.816m-1.235.711c.053.085.032.118-.16.257-.325.235-.263.572.07.383.14-.08.165-.082.208-.014.083.13.059.197-.102.293-.17.101-.18.135-.098.371.069.198.074.198.324.007.202-.154.337-.142.337.03 0 .086-.728.6-.779.549a1.71 1.71 0 0 1-.137-.321c-.055-.156-.17-.479-.258-.719-.108-.296-.142-.453-.107-.488.35-.354.617-.485.702-.348m-16.253.37c-.619.082-1.151.376-1.512.837-.183.233-.396.738-.336.798.041.042 2.179-.256 2.518-.35.556-.156 1.705-.865 1.58-.975-.115-.1-1.719-.399-1.913-.356a18.05 18.05 0 0 1-.337.047m15.089.459c.078.147.067.175-.101.272-.296.17-.153.403.246.403.572 0 .67.701.145 1.029-.247.154-.493.146-.493-.016 0-.087.036-.133.12-.154.514-.13.525-.65.013-.573-.571.086-.738-.642-.22-.96.203-.125.224-.125.29-.001m-20.731.077c-.671.215-1.313.824-1.196 1.135.105.276.228.305 1.116.256l.808-.044-.011-.13a10.712 10.712 0 0 0-.132-.697c-.136-.64-.155-.658-.585-.52m28.708.01a16.31 16.31 0 0 0-.25 1.182l-.015.155.784.044c1.035.057 1.34-.087 1.114-.53-.256-.5-1.544-1.17-1.633-.85m-4.415.487c-.568.35-.565.348-.53.383.023.024 1.472.232 1.616.233.18.001-.28-.891-.473-.918-.055-.007-.331.129-.613.302m-14.537.158c.483.279.539.627.158.978l-.209.192.037.445c.039.466.023.501-.178.393-.211-.114-.307-1.188-.106-1.188.253 0 .415-.219.31-.417-.106-.2-.223-.107-.558.447-.18.298-.347.555-.37.569-.066.04-.256-.082-.239-.155.02-.08.826-1.426.854-1.426.011 0 .147.073.301.162m-12.37.077c-.398.165-.397.173.026.41.5.28 1.037.696 1.037.802 0 .02-.08.084-.177.142-.168.1-.692.75-.693.86 0 .034.524.052 1.472.052h1.473l.246-.146c.832-.493.412-.925-.79-.811-1.309.124-1.479.049-1.866-.826-.297-.669-.29-.664-.728-.483m33.815.187c-.544 1.233-.466 1.196-2.356 1.12-.958-.038-1.165.465-.35.854l.277.132 1.41-.014c.9-.008 1.412-.032 1.411-.065-.001-.11-.524-.76-.692-.86-.098-.058-.178-.117-.178-.13 0-.12.878-.766 1.258-.926.23-.096.203-.134-.208-.3-.434-.175-.407-.184-.572.189m-12.032.23-.187.164.105.326c.24.745.279.975.176 1.053-.163.124-.191.083-.368-.534-.219-.763-.167-.729-.684-.451-.44.236-.44.236-.395.396.063.22.072.224.301.134.177-.07.206-.071.231-.004.052.137.032.171-.155.261-.17.082-.182.102-.156.266.043.263.092.28.36.13.263-.149.26-.149.309.013.038.127-.701.593-.793.5-.053-.053-.51-1.428-.51-1.532 0-.037.162-.146.36-.242.197-.096.606-.32.909-.497.501-.293.556-.314.618-.235.058.075.042.108-.12.251m-7.814.35c.474.247.478 1.09.008 1.488-.717.609-1.523-.093-1.113-.97.241-.516.698-.73 1.105-.517m-6.708.193c-1.084.174-1.26.265-1.51.78-.132.274-.233.81-.152.81.115 0 1.406-.548 1.585-.673.417-.292.982-1.059.756-1.026l-.68.109m19.16-.09c0 .297.671.986 1.158 1.19l.802.339.448.191v-.191a1.4 1.4 0 0 0-.427-1.01l-.264-.266-.769-.117a20.722 20.722 0 0 1-.858-.143c-.05-.013-.09-.01-.09.007m-12.97.184c-.346.204-.411.985-.09 1.096.3.104.73-.503.612-.863-.084-.26-.307-.359-.521-.233m1.858.263c.43.145.6.561.334.813l-.12.115.095.19c.319.63-.42 1.008-1.121.572-.206-.128-.206-.157.003-.68.094-.232.226-.568.294-.745.135-.353.182-.377.515-.265m3.475.276c.267.139.29.41.068.807-.01.017.145.156.343.308.435.333.444.358.152.428-.115.028-.526-.256-.96-.663-.009-.008.043-.075.115-.147.209-.21.13-.5-.136-.5-.104 0-.106.014-.07.77l.035.768-.16.024c-.201.03-.189.081-.227-.95l-.032-.862.117-.022c.263-.051.618-.033.755.039m-2.23.105a16.95 16.95 0 0 1-.066.588c-.09.71.029.966.385.83.17-.066.218-.227.262-.893l.039-.577h.294l-.009.594c-.014.97-.127 1.186-.643 1.23-.531.044-.793-.233-.72-.763.131-.957.186-1.145.328-1.128.098.011.133.044.13.119m-1.426-.032c-.153.25-.43 1.066-.38 1.125.27.33.716-.124.453-.462-.12-.154-.127-.192-.033-.192.098 0 .238-.171.238-.29 0-.172-.203-.304-.278-.181m-8.866 1.358c-.82.328-1.054.757-.827 1.514l.061.206.14-.18c.076-.099.288-.374.472-.61.314-.406.726-1.078.685-1.117-.01-.01-.25.074-.531.187m21.415-.048c.043.15.414.722.67 1.034.303.37.426.536.46.627.09.234.226-.097.226-.546 0-.573-.16-.773-.836-1.048-.531-.216-.565-.22-.52-.067m-21.597 2.29c-.725 1.441.939 2.738 2.91 2.27 1.676-.399 2.157-2.506.573-2.506-.807 0-1.157.943-.583 1.57.253.276.193.316-.48.316-.997 0-1.67-.554-2.053-1.69-.123-.363-.166-.358-.367.04m21.927-.148c-.394 1.238-1.137 1.858-2.176 1.814-.619-.027-.637-.044-.373-.36.544-.65.19-1.539-.613-1.541-1.586-.005-1.074 2.151.595 2.508 2.002.428 3.634-.854 2.895-2.274-.195-.376-.248-.4-.328-.147"/>
</svg>
