---
version: "1.2"
---
<svg>
  <path d="M4.374 15.96q.533 0 .864-.117.63-.225.63-.835a.62.62 0 0 0-.312-.552q-.313-.191-.982-.337l-.761-.17q-1.125-.255-1.553-.553-.728-.497-.728-1.557 0-.967.703-1.607.704-.64 2.066-.64 1.137 0 1.94.604.804.603.843 1.75H5.639q-.039-.649-.567-.923-.35-.18-.874-.18-.58 0-.927.234a.75.75 0 0 0-.347.654q0 .387.342.577.22.127.937.297l1.24.298q.816.196 1.23.523.645.507.645 1.47 0 .986-.754 1.638t-2.131.652q-1.407 0-2.212-.643-.806-.642-.806-1.765h1.436q.068.494.268.738.367.444 1.255.444"/>
  <path d="M11.615 17.2q-1.543 0-2.358-.84-1.094-1.03-1.094-2.968 0-1.978 1.094-2.97.815-.839 2.358-.839t2.359.84q1.088.99 1.088 2.969 0 1.938-1.088 2.968-.816.84-2.359.84m1.421-1.933q.523-.66.523-1.875 0-1.212-.525-1.873-.525-.662-1.419-.662-.892 0-1.426.66-.531.66-.532 1.875 0 1.215.532 1.875t1.426.659 1.421-.66"/>
  <path d="M17.587 17h-1.401V9.803h2.187l1.309 5.659 1.298-5.66h2.164V17h-1.402v-4.868q0-.21.005-.589.005-.378.005-.583L20.39 17h-1.46l-1.353-6.04q0 .205.005.583.005.38.005.589z"/>
  <path d="M28.754 15.52h-2.651L25.604 17h-1.572l2.569-7.197H28.3L30.849 17h-1.631zm-.42-1.24-.898-2.832-.928 2.832z"/>
  <path d="M31.762 9.803h1.504v5.903h3.564V17h-5.068z"/>
  <path d="M37.753 9.803h1.494V17h-1.494z"/>
  <path d="M44.862 15.52h-2.651L41.713 17H40.14l2.568-7.197h1.7L46.956 17h-1.63zm-.42-1.24-.898-2.832-.928 2.832z"/>
  <path d="M5.672 27.57q-.645.59-1.649.59-1.242 0-1.953-.797-.71-.8-.71-2.195 0-1.508.808-2.324.703-.711 1.789-.711 1.453 0 2.125.953.37.535.398 1.074H5.277q-.117-.414-.3-.625-.329-.375-.973-.375-.657 0-1.035.53-.38.529-.38 1.497t.401 1.452 1.018.482q.633 0 .965-.414.184-.222.304-.668H6.47q-.156.942-.797 1.531"/>
  <path d="M11.395 25.484H8.598v1.48h3.187V28H7.422v-5.758h4.223v1.02H8.598v1.222h2.797z"/>
  <path d="M17.379 28h-1.203l-2.352-4.09V28h-1.12v-5.758h1.26l2.294 4.02v-4.02h1.12z"/>
  <path d="M22.684 22.242v1.02H20.96V28h-1.21v-4.738h-1.73v-1.02z"/>
  <path d="M25.832 25.742H24.59V28h-1.176v-5.758h2.824q.605.011.932.149.326.136.553.402.187.219.297.484.109.266.109.606 0 .41-.207.806-.207.398-.684.561.399.16.565.455t.166.9v.387q0 .395.031.535a.48.48 0 0 0 .219.328V28h-1.324a2.8 2.8 0 0 1-.129-.805l-.008-.535q-.008-.55-.201-.734-.194-.184-.725-.184m.73-1.047q.36-.164.36-.648 0-.524-.348-.703-.195-.102-.586-.102H24.59v1.547h1.363q.406 0 .61-.094"/>
  <path d="M32.535 26.816h-2.12l-.4 1.184h-1.257l2.055-5.758h1.359L34.21 28h-1.305zm-.336-.992-.719-2.265-.742 2.265z"/>
  <path d="M34.941 22.242h1.204v4.723h2.851V28h-4.055z"/>
  <path d="M4.238 38h-2.61v-5.758h2.798q1.059.016 1.5.613.265.367.265.88 0 .526-.265.847-.15.18-.438.328.442.16.666.508t.225.844q0 .51-.258.918a1.6 1.6 0 0 1-1.064.742 4 4 0 0 1-.819.078m-.027-2.535H2.777V37h1.414q.38 0 .59-.102.383-.187.383-.718 0-.45-.371-.617-.207-.095-.582-.098m.598-1.098q.234-.141.234-.504 0-.402-.313-.531-.27-.09-.687-.09H2.777v1.27h1.414q.38 0 .618-.145"/>
  <path d="M10.758 36.816H8.637L8.238 38H6.98l2.055-5.758h1.36L12.434 38h-1.305zm-.336-.992-.719-2.265-.742 2.265z"/>
  <path d="M17.82 38h-1.203l-2.351-4.09V38h-1.121v-5.758h1.261l2.293 4.02v-4.02h1.121z"/>
  <path d="M24.043 38h-1.547l-1.777-2.516-.574.59V38H18.96v-5.758h1.184v2.371l2.222-2.37h1.555l-2.36 2.37z"/>
</svg>
