---
version: "0.0.4"
---
<svg>
  <path d="M24.722 2c.099 .036 .198 .094 .297 .099c.555 .031 1.114 .022 1.664 .081c1.218 .121 2.427 .31 3.6 .661c.816 .248 1.64 .473 2.43 .792c.88 .356 1.732 .779 2.575 1.215c1.439 .742 2.747 1.687 3.964 2.744a22.416 22.416 0 0 1 3.337 3.609c.69 .935 1.317 1.912 1.84 2.951c.352 .697 .695 1.408 .979 2.137c.302 .778 .564 1.58 .785 2.385c.212 .778 .374 1.57 .51 2.366c.103 .603 .13 1.22 .193 1.827c.005 .054 .068 .099 .104 .148v2.97c-.036 .085 -.09 .166 -.1 .256c-.044 .41 -.044 .828 -.116 1.228a63.075 63.075 0 0 1 -.636 3.05a12.9 12.9 0 0 1 -.627 1.962a39.268 39.268 0 0 1 -1.394 2.956a17.573 17.573 0 0 1 -2.539 3.64a39.372 39.372 0 0 1 -2.408 2.42a16.15 16.15 0 0 1 -2.86 2.097c-.788 .455 -1.587 .896 -2.412 1.287c-.753 .36 -1.533 .675 -2.322 .94c-.767 .257 -1.552 .464 -2.346 .621c-.91 .18 -1.835 .28 -2.755 .419c-.216 .031 -.424 .09 -.636 .139c-.915 -.009 -1.83 -.009 -2.746 -.009c-.068 -.036 -.136 -.09 -.208 -.099c-.96 -.126 -1.925 -.211 -2.877 -.373c-.663 -.113 -1.312 -.306 -1.957 -.504a23.555 23.555 0 0 1 -2.115 -.743a32.218 32.218 0 0 1 -2.287 -1.088c-1.443 -.752 -2.755 -1.701 -3.977 -2.763c-.857 -.747 -1.678 -1.543 -2.386 -2.443c-.532 -.675 -1.073 -1.35 -1.56 -2.06c-.659 -.963 -1.25 -1.971 -1.696 -3.05c-.383 -.923 -.78 -1.846 -1.078 -2.8c-.275 -.881 -.442 -1.799 -.636 -2.703c-.325 -1.543 -.347 -3.11 -.316 -4.675c.019 -1.012 .1 -2.02 .312 -3.01c.189 -.877 .356 -1.759 .608 -2.618c.248 -.837 .564 -1.656 .898 -2.461c.442 -1.071 1.001 -2.088 1.628 -3.069a21.262 21.262 0 0 1 2.03 -2.713c.468 -.526 .95 -1.039 1.456 -1.53a21.175 21.175 0 0 1 3.256 -2.577c.934 -.603 1.89 -1.161 2.913 -1.593c.772 -.324 1.534 -.684 2.332 -.927c1.024 -.31 2.07 -.535 3.116 -.765c1.132 -.247 2.287 -.319 3.446 -.328c.072 0 .144 -.063 .22 -.099h.497zm-.663 1.084c-5.62 .108 -10.82 2.24 -15.027 6.61c-4.207 4.368 -6.223 9.628 -5.993 15.674c.225 5.85 2.539 10.807 6.827 14.793c4.411 4.099 9.678 6.03 15.704 5.732c5.731 -.279 10.607 -2.555 14.521 -6.717c4.167 -4.432 6.106 -9.74 5.822 -15.832c-.5 -10.717 -9.488 -20.197 -21.854 -20.26zm.05 39.183c.162 .018 .22 .121 .265 .26c.217 .667 .442 1.333 .672 1.998c.064 .185 .023 .248 -.175 .248c-.212 .022 -.226 -.167 -.28 -.288c-.162 -.373 -.158 -.36 -.568 -.382c-.302 -.018 -.532 .031 -.591 .373c-.01 .058 -.027 .148 -.063 .162c-.108 .04 -.23 .058 -.347 .067c-.01 0 -.064 -.13 -.041 -.18c.261 -.688 .537 -1.376 .798 -2.065c.063 -.162 .163 -.211 .33 -.193zm1.69 -.032c.046 .014 .095 .108 .1 .176c.054 .477 .094 .95 .14 1.426a.685 .685 0 0 1 .004 .09c.045 .383 .045 .383 .424 .333c.171 -.022 .343 -.036 .51 -.063c.14 -.018 .23 .005 .248 .171c.022 .162 -.054 .22 -.194 .234c-.28 .036 -.56 .067 -.808 .099c-.545 .009 -.523 .121 -.554 -.468c-.032 -.571 -.104 -1.143 -.15 -1.719c-.004 -.076 .01 -.175 .06 -.225a.26 .26 0 0 1 .22 -.054zm-3.206 .198c.05 .072 .081 .248 .045 .28c-.113 .09 -.248 .161 -.379 -.028a.526 .526 0 0 0 -.572 -.22c-.122 .031 -.275 .153 -.303 .265c-.018 .072 .131 .23 .24 .293c.175 .108 .383 .162 .572 .247c.366 .167 .429 .509 .343 .85c-.072 .284 -.352 .464 -.713 .468c-.05 -.004 -.085 -.004 -.121 -.004c-.406 .013 -.708 -.153 -.907 -.504c-.05 -.09 -.13 -.17 .005 -.238c.112 -.054 .239 -.158 .351 .013c.122 .18 .276 .32 .506 .333c.058 .005 .117 0 .18 -.004c.167 -.014 .316 -.1 .298 -.27a.513 .513 0 0 0 -.217 -.324c-.18 -.117 -.397 -.171 -.586 -.27c-.32 -.171 -.438 -.387 -.397 -.68c.04 -.337 .28 -.481 .564 -.567c.37 -.112 .866 .045 1.091 .36zm6.368 -.481c-.117 .738 -.212 1.48 -.343 2.214c-.013 .09 -.153 .184 -.257 .229c-.113 .054 -.216 .009 -.293 -.126c-.383 -.657 -.78 -1.31 -1.173 -1.962c-.013 -.027 -.022 -.063 -.036 -.094c.27 -.198 .361 -.18 .514 .09c.24 .423 .478 .846 .722 1.264c.045 .077 .113 .135 .212 .257c.027 -.14 .045 -.23 .054 -.315c.063 -.504 .113 -1.008 .194 -1.512c.014 -.085 .122 -.184 .207 -.22c.131 -.05 .23 -.018 .199 .175zm1.245 -.432c.469 .58 .929 1.174 1.38 1.773c.036 .045 .009 .211 -.014 .22a.813 .813 0 0 1 -.33 .005c-.049 -.014 -.085 -.1 -.125 -.153c-.248 -.32 -.248 -.32 -.632 -.185c-.104 .036 -.22 .063 -.311 .122a.328 .328 0 0 0 -.13 .202c-.023 .117 .03 .261 -.019 .351c-.058 .108 -.19 .18 -.297 .252c-.014 .01 -.104 -.112 -.158 -.17a.123 .123 0 0 1 .045 -.037c.027 -.747 .054 -1.494 .072 -2.24c.004 -.171 .113 -.212 .23 -.216c.095 -.01 .239 .013 .289 .076zm-11.559 -.202c.221 .027 .298 .094 .239 .265c-.158 .49 -.311 .98 -.469 1.471c-.09 .284 -.059 .338 .23 .419c.194 .054 .383 .121 .577 .184c.118 .04 .208 .1 .14 .248c-.059 .126 -.113 .211 -.289 .148a14.8 14.8 0 0 0 -1.073 -.333c-.144 -.04 -.185 -.112 -.144 -.243c.162 -.517 .329 -1.04 .491 -1.556l.097 -.316c.017 -.052 .036 -.103 .057 -.152c.031 -.068 .117 -.113 .144 -.135zm5.434 1.552c-.031 0 -.063 .004 -.094 .004c-.068 .239 -.145 .473 -.194 .716c-.005 .027 .144 .126 .225 .126c.09 0 .262 -.09 .257 -.113c-.05 -.247 -.126 -.49 -.194 -.733zm-7.35 -2.362c.432 .18 .865 .369 1.29 .571c.04 .023 .062 .162 .04 .225c-.045 .117 -.136 .198 -.284 .126c-.235 -.112 -.483 -.207 -.713 -.333c-.153 -.08 -.239 -.045 -.307 .095c-.031 .058 -.045 .126 -.08 .184c-.1 .149 -.032 .239 .103 .297c.198 .086 .401 .167 .6 .257c.144 .063 .248 .143 .158 .323c-.059 .117 -.122 .153 -.248 .095c-.217 -.104 -.438 -.194 -.65 -.297c-.126 -.063 -.22 -.045 -.288 .072c-.064 .099 -.104 .216 -.163 .355c.05 .045 .09 .104 .149 .13c.239 .113 .478 .212 .717 .32c.113 .05 .262 .095 .171 .275c-.067 .14 -.135 .225 -.324 .121c-.343 -.18 -.708 -.32 -1.065 -.468c-.153 -.063 -.207 -.148 -.13 -.315c.293 -.652 .577 -1.313 .87 -1.966c.018 -.04 .117 -.08 .153 -.067zm16.528 .486c.112 .292 .275 .567 .37 .864c.121 .386 .004 .674 -.348 .877c-.315 .184 -.65 .333 -1 .508c-.353 -.742 -.677 -1.43 -1.002 -2.119c-.05 -.108 -.023 -.18 .095 -.23a9.22 9.22 0 0 0 .672 -.305c.446 -.234 1 -.14 1.213 .405zm-3.126 .98c-.058 .117 -.094 .162 -.099 .212c-.009 .14 -.018 .283 0 .423c.01 .08 .086 .234 .1 .23c.14 -.037 .27 -.1 .405 -.154c-.126 -.216 -.248 -.436 -.406 -.71zm2.3 -1.07a3.473 3.473 0 0 0 -.55 .238c-.04 .023 -.08 .122 -.063 .162c.185 .405 .37 .81 .577 1.206c.032 .063 .176 .126 .235 .099c.176 -.072 .347 -.171 .5 -.288c.068 -.05 .095 -.158 .167 -.284c-.194 -.355 -.383 -.724 -.6 -1.075c-.036 -.054 -.189 -.085 -.266 -.058zm-18.165 -1.84c.365 .234 .726 .472 1.082 .72c.045 .03 .064 .148 .041 .206c-.023 .072 -.104 .122 -.162 .185c-.136 -.081 -.248 -.144 -.352 -.212a16.786 16.786 0 0 1 -.465 -.315c-.239 -.166 -.293 .059 -.387 .185c-.104 .13 -.122 .252 .05 .355c.211 .13 .41 .28 .621 .396c.18 .104 .06 .19 .01 .288c-.06 .122 -.136 .144 -.253 .063c-.203 -.14 -.41 -.274 -.613 -.414c-.131 -.094 -.23 -.094 -.307 .063c-.077 .149 -.302 .288 -.04 .464c.216 .144 .437 .288 .658 .427c.122 .077 .176 .167 .09 .297c-.081 .13 -.194 .158 -.325 .068c-.347 -.23 -.703 -.455 -1.041 -.698c-.05 -.036 -.082 -.18 -.05 -.23c.379 -.598 .776 -1.187 1.159 -1.785c.086 -.13 .18 -.13 .284 -.063zm21.07 .512c.185 .266 .36 .536 .523 .81c.176 .297 .095 .779 -.176 1.035c-.244 .23 -.532 .374 -.916 .36c-.261 .018 -.482 -.09 -.64 -.333c-.167 -.265 -.33 -.535 -.5 -.796c-.208 -.315 -.113 -.608 .067 -.878c.208 -.31 .537 -.458 .884 -.53c.311 -.063 .577 .072 .758 .332zm-.6 .045c-.347 .081 -.613 .212 -.749 .495a.405 .405 0 0 0 .005 .324c.117 .234 .27 .446 .415 .666c.207 .324 .383 .387 .712 .194c.42 -.248 .541 -.49 .347 -.783c-.144 -.212 -.266 -.437 -.419 -.635c-.09 -.112 -.225 -.189 -.311 -.26zm3.116 -6.92c.154 .09 .302 .18 .451 .266c.122 .072 .144 .158 .059 .28c-.361 .499 -.695 1.012 -1.074 1.497a15.47 15.47 0 0 1 -2.832 2.78c-.843 .64 -1.722 1.22 -2.692 1.661c-.618 .279 -1.24 .567 -1.876 .796c-.577 .203 -1.173 .36 -1.777 .482a20.71 20.71 0 0 1 -2.286 .355c-.745 .063 -1.502 .068 -2.25 .032a18.28 18.28 0 0 1 -2.21 -.266a16.954 16.954 0 0 1 -1.935 -.5a11.61 11.61 0 0 1 -1.57 -.597a25.854 25.854 0 0 1 -2.237 -1.184a14.214 14.214 0 0 1 -2.764 -2.213a17.02 17.02 0 0 1 -2.228 -2.785c-.108 -.171 -.09 -.27 .104 -.37c.406 -.215 .406 -.229 .658 .158a15.682 15.682 0 0 0 4.068 4.216c.83 .59 1.723 1.08 2.652 1.498c.861 .387 1.75 .711 2.674 .909c.798 .17 1.61 .283 2.422 .369a10.9 10.9 0 0 0 1.912 .054a20.45 20.45 0 0 0 2.562 -.329c.762 -.148 1.515 -.36 2.245 -.625a15.107 15.107 0 0 0 2.016 -.927a17.766 17.766 0 0 0 1.8 -1.134a14.205 14.205 0 0 0 3.017 -2.906c.37 -.495 .717 -.999 1.091 -1.516zm-.92 5.161c.266 .14 .447 .365 .442 .76c-.013 .037 -.022 .15 -.077 .235c-.085 .135 -.036 .198 .09 .23c.181 .044 .366 .08 .546 .12c.086 .019 .185 .023 .257 .068c.036 .023 .059 .153 .032 .18c-.113 .112 -.244 .184 -.424 .14a8.394 8.394 0 0 0 -.812 -.171c-.103 -.014 -.216 .049 -.329 .076c.036 .09 .054 .189 .108 .27c.09 .13 .194 .247 .302 .36c.086 .094 .15 .18 .023 .283c-.117 .1 -.23 .126 -.347 -.018c-.262 -.32 -.532 -.63 -.798 -.94c-.172 -.198 -.339 -.4 -.515 -.594c-.121 -.13 -.13 -.243 .018 -.355c.262 -.203 .51 -.414 .78 -.608a.628 .628 0 0 1 .704 -.036zm-24.556 -.36c.307 .31 .645 .585 .902 .927c.235 .315 .172 .594 -.08 .9c-.154 .184 -.321 .36 -.46 .553c-.357 .495 -.849 .509 -1.282 .162a10.955 10.955 0 0 1 -.617 -.517c-.045 -.04 -.064 -.18 -.032 -.22c.474 -.572 .956 -1.13 1.434 -1.692c.032 -.036 .068 -.059 .135 -.113zm.023 .657c-.04 0 -.095 .036 -.126 .068c-.212 .243 -.42 .49 -.627 .733c-.314 .366 -.35 .406 -.168 .557l.12 .096c.047 .038 .1 .082 .16 .134c.01 .01 .028 .014 .041 .023c.27 .153 .32 .148 .537 -.09c.162 -.176 .325 -.351 .478 -.54c.072 -.099 .135 -.22 .18 -.292c-.009 -.212 -.446 -.684 -.595 -.689zm24.001 .117c-.09 .068 -.185 .126 -.266 .203c-.266 .234 -.266 .234 -.032 .5c.077 .09 .167 .17 .284 .292c.194 -.185 .384 -.333 .528 -.513c.135 -.171 .045 -.333 -.095 -.473c-.144 -.14 -.275 -.117 -.419 -.009zm-9.976 -27.008a5.07 5.07 0 0 1 1.173 2.295c.068 .306 .095 .625 .1 .936c.008 1.426 0 2.847 .008 4.274c0 .175 -.054 .252 -.23 .238l-1.84 -.121c-.14 -.01 -.158 -.1 -.158 -.22c.005 -2.016 .018 -4.037 0 -6.052c-.004 -.58 -.18 -1.125 -.712 -1.471a.781 .781 0 0 0 -.902 .05c-.429 .36 -.632 .822 -.632 1.38v8.099c-.004 1.282 -.004 2.564 -.004 3.846v11.9c0 .554 .176 1.03 .604 1.39c.343 .289 .722 .27 1.056 -.022c.423 -.364 .581 -.854 .586 -1.385c.013 -2.025 .004 -4.05 0 -6.074c0 -.158 .05 -.212 .203 -.22c.59 -.032 1.181 -.068 1.772 -.113c.235 -.018 .253 .121 .253 .297c0 1.372 0 2.744 -.005 4.117c-.004 .962 -.22 1.871 -.762 2.681c-.401 .598 -.866 1.138 -1.547 1.43c-.514 .217 -1.046 .289 -1.605 .145c-1.096 -.284 -1.737 -1.067 -2.237 -2.002c-.433 -.81 -.568 -1.688 -.568 -2.6c.009 -6.493 0 -12.99 .009 -19.482c0 -1.435 .55 -2.659 1.632 -3.613c1.186 -1.048 2.796 -.85 3.806 .297zm2.751 -.031c.519 .193 1.06 .342 1.552 .585c.712 .355 1.407 .76 2.083 1.187c.587 .374 1.006 .927 1.34 1.521c.306 .544 .604 1.107 .82 1.692c.172 .463 .28 .971 .294 1.466c.04 1.328 .022 2.655 .009 3.982c-.01 .895 -.393 1.597 -1.191 2.047c-.077 .05 -.149 .126 -.216 .176c.297 .283 .595 .526 .843 .81c.406 .463 .568 1.034 .573 1.642c.009 2.056 .004 4.107 .004 6.163c0 .158 .018 .315 .04 .468c.023 .167 .118 .212 .276 .144c.176 -.076 .23 -.036 .207 .153c-.009 .081 -.027 .18 -.076 .23c-.402 .378 -.785 .787 -1.232 1.111c-.383 .279 -.74 .103 -.834 -.36c-.081 -.4 -.153 -.814 -.153 -1.22c-.014 -2.541 -.005 -5.083 -.01 -7.625c0 -.536 -.202 -.999 -.72 -1.183c-.294 -.104 -.65 -.05 -.975 -.054c-.04 0 -.1 .099 -.122 .162c-.022 .067 -.009 .148 -.009 .224v11.293c.005 .149 .081 .18 .208 .126l.36 -.162c.122 .347 .082 .558 -.198 .702a46.45 46.45 0 0 1 -1.966 .967c-.302 .14 -.636 .22 -.947 .338c-.145 .054 -.199 .009 -.203 -.13c-.014 -.446 -.018 -.523 .388 -.626c.194 -.05 .252 -.225 .275 -.4c.013 -.104 .004 -.212 .004 -.315v-23.864c0 -.427 -.027 -.463 -.446 -.553c-.14 -.031 -.208 -.108 -.221 -.243c-.01 -.08 -.005 -.166 -.01 -.247c-.008 -.185 .055 -.28 .253 -.207zm-10.534 1.786c.482 .54 .699 1.192 .708 1.894c.022 1.89 .027 3.78 0 5.669c-.018 1.237 -.497 2.28 -1.516 3.041c-.225 .167 -.212 .225 .018 .383c.78 .54 1.24 1.295 1.394 2.218c.081 .486 .104 .98 .108 1.475c.01 2.128 .023 4.261 -.004 6.39c-.01 .768 -.244 1.484 -.835 2.042c-.45 .427 -1.195 .513 -1.745 .252c-.888 -.423 -1.66 -1.013 -2.372 -1.683c-.393 -.369 -.753 -.774 -1.132 -1.156c-.153 -.153 -.126 -.315 -.068 -.513c.158 .121 .284 .22 .456 .35v-17.671l-.059 -.045c-.126 .117 -.252 .239 -.415 .387c-.027 -.225 -.076 -.41 .077 -.571c.645 -.702 1.294 -1.4 2.083 -1.944c.483 -.333 .988 -.652 1.511 -.922c.564 -.288 1.362 -.072 1.79 .405zm-3.22 11.401v10.127c0 .279 .112 .49 .342 .639l.41 .27c.483 .324 .858 .198 1.038 -.36c.04 -.13 .05 -.28 .05 -.423c.009 -2.677 .013 -5.354 .018 -8.03c0 -.437 .009 -.874 -.027 -1.306c-.046 -.49 -.244 -.931 -.727 -1.133c-.216 -.09 -.482 -.068 -.726 -.072c-.343 -.009 -.375 .002 -.378 .288zm-6.927 2.317c.13 .62 .554 .805 1.163 .81c-.225 .238 -.464 .39 -.537 .598c-.072 .202 .023 .468 .05 .778c-.216 -.112 -.37 -.211 -.532 -.27a.462 .462 0 0 0 -.311 -.004c-.18 .063 -.348 .166 -.587 .288c.032 -.203 .027 -.36 .077 -.495c.086 -.22 .014 -.374 -.158 -.509a10.36 10.36 0 0 1 -.338 -.288c.009 -.027 .018 -.054 .032 -.08c.153 -.037 .306 -.1 .46 -.104c.239 -.01 .365 -.126 .437 -.342a1.17 1.17 0 0 1 .244 -.382zm32.005 -.027c.15 .256 .226 .53 .41 .67c.177 .135 .46 .126 .727 .189c-.19 .216 -.42 .373 -.487 .585c-.072 .216 .018 .481 .04 .742c-.257 -.103 -.491 -.27 -.721 -.27c-.221 0 -.442 .18 -.713 .302c.023 -.149 .023 -.275 .068 -.387c.1 -.257 .054 -.464 -.167 -.635c-.113 -.085 -.212 -.18 -.32 -.27l.031 -.072c.131 -.031 .267 -.094 .397 -.094c.334 0 .46 -.216 .569 -.477c.036 -.09 .099 -.171 .166 -.283zm-24.109 -13.25c-.225 .112 -.428 .27 -.65 .396c-.234 .13 -.32 .32 -.32 .589c.005 1.462 0 2.924 0 4.387v1.867c0 .877 -.004 1.754 .005 2.632c0 .085 .077 .238 .122 .238c.311 0 .654 .04 .929 -.067c.555 -.216 .776 -.72 .785 -1.283c.018 -1.498 .004 -2.996 .004 -4.494c0 -1.125 .005 -2.25 -.004 -3.374c0 -.198 -.05 -.4 -.118 -.59c-.121 -.342 -.433 -.463 -.753 -.301zm15.356 -.414c-.023 .094 -.072 .193 -.072 .288c.004 1.637 .004 3.27 .004 4.904v4.854c0 .4 0 .4 .406 .428c.059 .004 .117 .031 .176 .027c.194 -.01 .401 .013 .573 -.054c.482 -.203 .672 -.612 .672 -1.12c0 -2.322 -.01 -4.648 .004 -6.97c.005 -.594 -.203 -1.093 -.527 -1.565c-.235 -.342 -.587 -.527 -.947 -.702c-.09 -.045 -.19 -.063 -.29 -.09zm-7.346 -4.913c1.213 .063 2.34 .14 3.454 .373c.888 .19 1.763 .432 2.602 .765a16.557 16.557 0 0 1 4.73 2.843a16.256 16.256 0 0 1 2.892 3.249a16.08 16.08 0 0 1 1.533 2.834c.42 .99 .717 2.016 .943 3.06c.08 .364 .117 .738 .175 1.106c.023 .149 -.036 .198 -.18 .216c-.469 .059 -.474 .063 -.573 -.378c-.121 -.53 -.203 -1.075 -.347 -1.601a20.216 20.216 0 0 0 -.622 -1.917a14.726 14.726 0 0 0 -1.615 -3.019a15.357 15.357 0 0 0 -2.67 -2.97a15.862 15.862 0 0 0 -3.386 -2.23a16.251 16.251 0 0 0 -3.419 -1.206a14.515 14.515 0 0 0 -4.428 -.324c-.799 .063 -1.601 .157 -2.382 .319a13.4 13.4 0 0 0 -2.12 .648c-.775 .306 -1.542 .652 -2.277 1.048c-.978 .527 -1.858 1.201 -2.692 1.94c-.96 .85 -1.786 1.817 -2.507 2.87a16.223 16.223 0 0 0 -1.394 2.528c-.406 .905 -.699 1.84 -.92 2.803c-.1 .423 -.149 .855 -.22 1.282c-.037 .207 -.118 .27 -.321 .234c-.474 -.08 -.474 -.08 -.379 -.553c.117 -.58 .198 -1.165 .356 -1.737c.18 -.652 .42 -1.29 .65 -1.93c.297 -.828 .712 -1.597 1.163 -2.348a16.086 16.086 0 0 1 1.804 -2.43c.943 -1.048 1.98 -1.988 3.175 -2.74c.79 -.495 1.62 -.94 2.467 -1.327c.73 -.333 1.506 -.59 2.277 -.819a12.507 12.507 0 0 1 2.765 -.495c.514 -.022 1.028 -.063 1.466 -.094zm17.258 11.363c.542 .077 1.087 .144 1.628 .212c.172 .022 .343 .031 .515 .05c.234 .017 .338 .12 .342 .404c-.018 .023 -.045 .1 -.099 .13c-.64 .42 -1.28 .833 -1.926 1.238c-.05 .032 -.13 .005 -.198 .01c.005 -.127 -.032 -.275 .027 -.365c.063 -.104 .212 -.158 .325 -.234c.103 -.072 .162 -.153 .094 -.284c-.013 -.027 -.013 -.058 -.022 -.085c-.113 -.545 -.113 -.536 -.645 -.657c-.086 -.018 -.176 -.126 -.216 -.216c-.06 -.144 -.005 -.225 .175 -.203zm-35.676 -.15c.126 .099 .207 .112 .356 .031c.446 -.243 1.028 .166 1.01 .819c-.054 .252 -.126 .62 -.22 .98c-.014 .05 -.163 .104 -.23 .09c-.456 -.094 -.907 -.21 -1.358 -.319l-.636 -.148c-.154 -.036 -.23 -.108 -.176 -.288c.077 -.257 .108 -.527 .18 -.788c.118 -.418 .6 -.755 1.074 -.377zm.293 .665a1.86 1.86 0 0 0 -.104 .293c-.063 .342 -.027 .387 .316 .436c.351 .05 .36 .04 .415 -.306c.013 -.08 .022 -.17 .036 -.26c.018 -.212 -.077 -.365 -.27 -.415c-.2 -.049 -.326 .077 -.393 .252zm36.606 .018c-.06 0 -.176 .081 -.172 .117c.014 .135 .063 .261 .1 .392c0 .004 .031 .009 .04 .004c.248 -.117 .523 -.202 .722 -.463c-.262 -.023 -.478 -.05 -.69 -.05zm-37.243 -.41c-.09 -.018 -.221 .094 -.32 .175c-.045 .036 -.045 .122 -.063 .19c-.154 .467 -.145 .48 .329 .557c.045 .01 .135 -.022 .144 -.054c.063 -.189 .113 -.373 .18 -.616c-.08 -.081 -.162 -.23 -.27 -.252zm1.037 -2.403c.47 .023 .943 .04 1.412 .072c.067 .005 .135 .077 .198 .117c-.05 .077 -.086 .19 -.153 .216c-.104 .04 -.235 .027 -.357 .027c-.184 0 -.329 .05 -.356 .257a.087 .087 0 0 1 -.013 .045c-.235 .364 -.199 .657 .194 .89c.13 .077 .108 .33 -.023 .415c-.036 .022 -.126 0 -.167 -.036c-.568 -.477 -1.127 -.963 -1.696 -1.436c-.13 -.108 -.162 -.216 -.103 -.373c.058 -.158 .171 -.189 .32 -.185c.248 .005 .496 0 .744 0v-.009zm36.444 -.427c-.005 .126 .05 .306 -.014 .364c-.401 .351 -.825 .67 -1.24 1.004c-.086 .054 -.149 .13 -.226 .211c.632 0 1.223 0 1.813 .005c.077 0 .18 .009 .226 .058c.054 .059 .063 .162 .09 .248c-.072 .022 -.149 .067 -.221 .067c-.722 .005 -1.443 0 -2.16 .005c-.172 0 -.293 -.068 -.307 -.225a.406 .406 0 0 1 .113 -.302c.546 -.468 1.1 -.922 1.66 -1.376c.063 -.05 .175 -.041 .266 -.059zm-36.94 .841l-.009 .059c.185 .144 .37 .292 .56 .427c.03 .023 .125 0 .153 -.036a.488 .488 0 0 0 .112 -.238c.01 -.068 -.036 -.203 -.067 -.203c-.244 -.013 -.496 -.009 -.749 -.009zm35.952 -2.848c.13 .266 .27 .531 .397 .801c.14 .297 .054 .693 -.185 .882c-.33 .257 -.69 .275 -.988 .032c-.103 -.086 -.176 -.077 -.23 .036c-.094 .193 -.185 .391 -.275 .584c-.045 .09 -.099 .185 -.153 .293c-.32 -.31 -.167 -.585 -.027 -.86c.085 -.175 .18 -.346 .239 -.53a.32 .32 0 0 0 -.04 -.266c-.028 -.036 -.168 -.018 -.24 .014c-.153 .063 -.293 .148 -.437 .225c-.118 .058 -.23 .094 -.298 -.068c-.05 -.121 -.09 -.216 .086 -.301c.618 -.302 1.222 -.626 1.835 -.94c.14 -.073 .244 -.046 .316 .098zm-34.793 -.643c.613 .324 1.227 .657 1.831 .994c.081 .045 .207 .162 .198 .19c-.072 .157 -.103 .377 -.351 .386h-.068c-.487 .01 -.974 .014 -1.461 .027c-.086 0 -.167 .032 -.253 .045a.135 .135 0 0 1 .018 .059c.312 .166 .627 .328 .938 .495c.1 .054 .199 .108 .298 .153c.14 .063 .194 .14 .113 .297c-.086 .166 -.194 .139 -.316 .072c-.613 -.329 -1.222 -.657 -1.83 -.995c-.055 -.031 -.123 -.157 -.1 -.189l.03 -.052l.054 -.112c.039 -.072 .093 -.133 .209 -.133a97.143 97.143 0 0 0 1.619 -.027c.104 -.004 .207 -.027 .311 -.04v-.059c-.243 -.121 -.487 -.238 -.726 -.364c-.243 -.13 -.487 -.261 -.726 -.405c-.185 -.108 -.013 -.207 .032 -.292c.022 -.04 .14 -.072 .18 -.05zm34.419 1.048c-.172 .086 -.343 .18 -.505 .28c-.028 .017 -.05 .09 -.032 .116c.104 .19 .194 .396 .338 .545c.081 .08 .28 .094 .402 .058c.099 -.022 .175 -.162 .28 -.274c-.14 -.261 -.258 -.482 -.384 -.698c-.014 -.022 -.077 -.04 -.1 -.027zm-1.078 -2.659c.302 .432 .586 .833 .857 1.247c.027 .04 -.023 .184 -.072 .211c-.077 .036 -.226 .05 -.267 .005c-.162 -.194 -.297 -.41 -.442 -.621c-.09 -.135 -.175 -.275 -.374 -.144c-.284 .189 -.311 .27 -.153 .49c.126 .18 .243 .36 .37 .536c.117 .162 -.027 .22 -.118 .301c-.112 .099 -.18 .004 -.234 -.072c-.14 -.193 -.27 -.391 -.41 -.59c-.082 -.112 -.158 -.193 -.312 -.08c-.275 .207 -.315 .274 -.194 .454c.15 .216 .307 .423 .447 .648c.036 .058 .036 .207 -.005 .238c-.085 .063 -.203 .19 -.32 .014c-.252 -.374 -.514 -.733 -.757 -1.111c-.028 -.04 .05 -.19 .112 -.239c.429 -.301 .866 -.594 1.3 -.886c.18 -.126 .36 -.257 .572 -.4zm-31.492 -.22c.014 .14 -.04 .265 -.221 .279c-.257 .022 -.392 .198 -.505 .4a.395 .395 0 0 0 .108 .522c.23 .18 .465 .351 .704 .522a.413 .413 0 0 0 .487 .014a.667 .667 0 0 0 .315 -.608c0 -.045 -.04 -.103 -.022 -.13c.063 -.086 .144 -.158 .22 -.239c.06 .059 .159 .108 .177 .176a1.037 1.037 0 0 1 -.749 1.264a.766 .766 0 0 1 -.658 -.13a25.504 25.504 0 0 1 -.668 -.49c-.23 -.167 -.42 -.356 -.356 -.622c.005 -.607 .36 -1.03 .884 -1.089c.117 -.013 .266 -.036 .284 .13zm30.216 -1.287c.329 .203 .518 .513 .482 .923c-.009 .103 .032 .26 -.14 .251c-.149 -.004 -.28 -.085 -.27 -.265c.022 -.324 -.18 -.495 -.433 -.616c-.194 -.095 -.38 .04 -.33 .256c.037 .149 .122 .288 .185 .427c.05 .117 .113 .225 .15 .347c.107 .36 .022 .652 -.24 .828c-.257 .175 -.586 .153 -.88 -.054c-.328 -.239 -.46 -.495 -.46 -.914c0 -.036 -.008 -.08 0 -.112c.037 -.09 .064 -.238 .127 -.256c.126 -.036 .28 .17 .266 .319c-.027 .288 .208 .639 .487 .697c.077 .014 .208 -.027 .253 -.09c.058 -.08 .095 -.216 .063 -.306c-.068 -.198 -.194 -.369 -.27 -.562c-.186 -.486 -.113 -.927 .419 -1.012c.185 -.032 .424 .04 .59 .14zm-28.141 -.53c.175 .166 .333 .341 .514 .503c.32 .293 .401 .621 .22 1.03c-.18 .4 -.617 .738 -1.05 .707a.964 .964 0 0 1 -.483 -.194l-.216 -.183l-.41 -.397c-.181 -.171 -.303 -.364 -.258 -.571c.005 -.594 .478 -1.098 1.015 -1.152c.27 -.027 .483 .08 .668 .256zm-.528 .148c-.379 -.005 -.798 .445 -.753 .747a.494 .494 0 0 0 .112 .234c.172 .175 .357 .342 .537 .508c.302 .274 .356 .288 .73 .018a1.08 1.08 0 0 0 .177 -.175c.194 -.243 .18 -.432 -.041 -.653c-.162 -.166 -.32 -.337 -.496 -.49c-.095 -.09 -.212 -.153 -.266 -.19zm26.666 -1.566c.325 .288 .65 .576 .979 .86c.149 .13 .072 .22 -.023 .337c-.108 .135 -.167 .05 -.248 -.023a7.98 7.98 0 0 0 -.627 -.544c-.058 -.045 -.189 -.027 -.266 .004c-.067 .027 -.108 .117 -.167 .176c-.108 .103 -.09 .193 .018 .283c.185 .162 .37 .329 .56 .486c.135 .113 .103 .203 0 .32c-.113 .121 -.194 .094 -.298 -.01c-.171 -.17 -.356 -.319 -.532 -.485c-.108 -.104 -.199 -.086 -.289 .018c-.036 .04 -.058 .09 -.099 .121c-.171 .14 -.13 .257 .023 .383c.162 .13 .315 .279 .473 .418c.24 .216 .226 .31 -.081 .49c-.356 -.314 -.713 -.634 -1.078 -.944c-.104 -.09 -.09 -.149 -.009 -.239c.352 -.391 .695 -.783 1.042 -1.174c.13 -.144 .261 -.288 .383 -.44c.077 -.1 .14 -.122 .24 -.037zm-1.998 -1.462c.18 .135 .384 .238 .555 .382c.149 .13 .28 .284 .388 .45c.176 .275 .031 .522 -.13 .743c-.172 .234 -.411 .35 -.709 .256c-.158 -.05 -.19 .032 -.185 .157c.005 .225 .014 .45 .018 .675c0 .081 -.009 .158 -.013 .275c-.235 -.086 -.37 -.185 -.375 -.414a6.675 6.675 0 0 0 -.054 -.85c-.013 -.1 -.117 -.19 -.18 -.284c-.077 .063 -.171 .113 -.23 .185c-.108 .13 -.199 .279 -.298 .422c-.108 .158 -.212 .054 -.306 -.004c-.104 -.063 -.09 -.148 -.023 -.247c.392 -.558 .785 -1.116 1.159 -1.683c.122 -.185 .226 -.18 .383 -.063zm-22.061 .364c.027 0 .09 -.004 .148 0c.136 .014 .24 .068 .226 .22c-.014 .145 -.108 .217 -.253 .19c-.28 -.05 -.5 .058 -.68 .265a.415 .415 0 0 0 -.032 .536c.149 .207 .284 .422 .46 .611c.108 .117 .28 .261 .406 .248c.22 -.023 .446 -.14 .536 -.387c.036 -.09 .04 -.202 .104 -.27c.059 -.067 .162 -.099 .257 -.117c.018 -.004 .09 .122 .095 .185c.013 .404 -.217 .679 -.537 .872c-.293 .171 -.631 .234 -.91 .01c-.222 -.18 -.389 -.433 -.57 -.662a2.232 2.232 0 0 1 -.292 -.472c-.24 -.554 .379 -1.287 1.042 -1.229zm2.286 -1.295c.072 .126 .023 .207 -.1 .27c-.243 .13 -.482 .274 -.725 .4c-.15 .076 -.145 .17 -.068 .292c.032 .05 .068 .1 .09 .153c.063 .162 .158 .171 .302 .09c.253 -.144 .515 -.279 .78 -.423c.258 .333 .258 .329 -.085 .513c-.167 .09 -.33 .18 -.492 .275c-.126 .072 -.153 .162 -.09 .301c.158 .333 .208 .351 .528 .176c.171 -.095 .343 -.185 .51 -.288c.157 -.1 .284 -.086 .37 .085c.08 .162 -.028 .216 -.154 .284c-.307 .157 -.604 .333 -.902 .504c-.28 .162 -.311 .157 -.47 -.122c-.32 -.567 -.63 -1.134 -.955 -1.7c-.081 -.145 -.045 -.244 .09 -.32c.356 -.202 .722 -.396 1.078 -.598c.144 -.081 .23 -.01 .293 .108zm19.428 1.678c-.031 .05 -.081 .09 -.104 .144c-.022 .05 -.04 .14 -.018 .157c.208 .167 .424 .32 .677 .509c.135 -.14 .288 -.234 .329 -.36c.036 -.104 -.04 -.261 -.1 -.378c-.035 -.072 -.134 -.113 -.211 -.162c-.374 -.239 -.302 -.297 -.573 .09zm-2.796 -2.398l1.245 .567c.05 .022 .076 .067 .122 .108c-.064 .103 -.109 .202 -.18 .27c-.028 .022 -.132 -.023 -.195 -.05c-.239 -.108 -.473 -.225 -.712 -.328c-.24 -.1 -.289 .085 -.361 .247c-.068 .162 -.077 .279 .126 .351c.203 .072 .392 .189 .595 .26c.158 .055 .176 .145 .127 .275c-.05 .144 -.158 .176 -.289 .117a9.724 9.724 0 0 1 -.627 -.297c-.153 -.08 -.239 -.022 -.31 .108c-.19 .338 -.181 .37 .193 .527c.212 .09 .424 .18 .627 .292c.05 .027 .09 .153 .067 .212c-.036 .108 -.099 .234 -.266 .157c-.23 -.103 -.464 -.207 -.694 -.315c-.171 -.076 -.334 -.166 -.505 -.234c-.113 -.045 -.126 -.103 -.081 -.207c.306 -.657 .608 -1.313 .91 -1.97c.046 -.104 .1 -.14 .208 -.09zm-14.143 -.338c.257 .662 .519 1.323 .785 1.98c.045 .117 .027 .162 -.09 .22c-.217 .113 -.365 .09 -.555 -.076c-.37 -.329 -.766 -.621 -1.159 -.927c-.045 -.036 -.104 -.054 -.176 -.09c.176 .454 .343 .868 .496 1.287c.113 .306 .109 .306 -.252 .427c-.09 -.211 -.185 -.427 -.275 -.648c-.194 -.49 -.393 -.985 -.578 -1.48c-.022 -.054 .01 -.175 .055 -.202c.117 -.077 .239 -.19 .401 -.05c.415 .342 .843 .675 1.263 1.012c.058 .05 .126 .09 .19 .135l.067 -.04l-.199 -.513c-.121 -.297 -.239 -.598 -.365 -.89c-.09 -.208 .086 -.221 .194 -.275c.13 -.068 .158 .031 .198 .13zm11.645 -.513c.392 .104 .82 .158 1.132 .446c.144 .135 .22 .337 .306 .481c-.058 .216 -.094 .37 -.14 .518c-.072 .243 -.135 .49 -.23 .724a.729 .729 0 0 1 -.86 .472c-.317 -.063 -.623 -.162 -.93 -.256c-.144 -.045 -.14 -.162 -.104 -.279c.113 -.378 .23 -.756 .348 -1.134c.076 -.256 .162 -.513 .234 -.77c.036 -.125 .095 -.242 .244 -.202zm-9.092 -.018c-.05 .036 -.122 .117 -.203 .135c-.483 .117 -.487 .113 -.379 .585c.1 .455 .203 .905 .32 1.354c.04 .149 -.009 .207 -.144 .239c-.13 .031 -.225 0 -.257 -.14c-.104 -.422 -.216 -.84 -.298 -1.264c-.099 -.53 -.126 -.558 -.658 -.445c-.072 .013 -.185 -.01 -.226 -.059c-.121 -.144 -.067 -.292 .122 -.337c.487 -.122 .979 -.225 1.466 -.342c.185 -.045 .239 .054 .257 .274zm9.141 .684c-.126 .396 -.252 .797 -.356 1.197c-.018 .067 .05 .211 .113 .243c.144 .067 .31 .121 .473 .121c.117 0 .307 -.054 .347 -.139c.15 -.342 .262 -.706 .393 -1.07c-.04 -.073 -.059 -.163 -.113 -.199a5.967 5.967 0 0 0 -.586 -.297c-.144 -.067 -.23 .014 -.27 .144zm-3.075 -1.233c.153 .023 .203 .077 .18 .234c-.086 .509 -.153 1.022 -.235 1.53c-.045 .284 .01 .347 .294 .374c.207 .018 .414 .054 .626 .076c.131 .014 .185 .081 .167 .212c-.022 .121 -.072 .215 -.153 .197a80.565 80.565 0 0 1 -1.186 -.162c-.162 -.022 -.226 -.103 -.203 -.278c.1 -.67 .194 -1.346 .284 -2.02c.018 -.145 .077 -.185 .226 -.163zm-4.01 .036c.244 .01 .456 .329 .492 .63c.036 .31 -.095 .58 -.347 .725c-.05 .027 -.1 .05 -.194 .099l.812 .85c-.276 .09 -.474 .095 -.65 -.117a4.712 4.712 0 0 0 -.541 -.54c-.081 -.067 -.207 -.08 -.311 -.117c-.023 .09 -.068 .185 -.068 .275c0 .162 .018 .328 .04 .49c.028 .166 -.044 .211 -.193 .22c-.14 .01 -.203 -.022 -.217 -.175a101.43 101.43 0 0 0 -.239 -2.047c-.018 -.13 .018 -.22 .145 -.23c.424 -.031 .847 -.072 1.271 -.063zm2.052 -.148c.172 -.018 .253 .05 .307 .22c.212 .653 .446 1.3 .667 1.953c.037 .104 .136 .248 -.04 .306c-.13 .045 -.298 .04 -.338 -.153c-.082 -.427 -.343 -.549 -.758 -.5c-.216 .028 -.383 .041 -.42 .298c-.008 .076 -.076 .148 -.099 .225c-.054 .193 -.203 .175 -.32 .117c-.054 -.027 -.09 -.185 -.063 -.257c.14 -.4 .298 -.796 .456 -1.192c.108 -.28 .225 -.554 .32 -.837c.054 -.162 .144 -.202 .288 -.18zm.014 .585l-.081 .013c-.059 .18 -.131 .356 -.176 .536c-.018 .08 .004 .247 .027 .247c.135 .018 .275 0 .415 -.009c.013 0 .036 -.054 .031 -.076l-.216 -.711zm-2.535 -.104l-.013 .05h-.158c-.284 .013 -.325 .058 -.298 .342c.045 .436 .045 .436 .51 .4l.106 -.001a.17 .17 0 0 0 .092 -.026c.109 -.08 .253 -.166 .289 -.279a.393 .393 0 0 0 -.108 -.35c-.104 -.09 -.275 -.095 -.42 -.136z" />
</svg>
