<svg>
  <path d="M21.964 28.935c.029.01.061.008.094 0h1.936v1.38l-1.206-.077c-.664-.041-1.207-.027-1.206.031 0 .059.637.818 1.415 1.688l.078.088.147.165c1.132 1.271 1.153 1.366.821 1.7-.35.351-.484.241-2.621-2.138-1.239-1.38-2.252-2.583-2.252-2.673 0-.09 1.085-.164 2.412-.164h.382Zm13.987-8.039-3.113 3.477a298.639 298.639 0 0 1-5.476 5.942L25 32.78l.002-1.979c.003-2.924.146-3.654.718-3.654.43 0 .471.106.527 1.354l.06 1.354 3.618-3.91 3.619-3.91-1.257-.012c-1.203-.01-1.256-.035-1.256-.57v-.558h4.92Zm-13.127 1.44c.148-.013.124.782.297 2.505l.25 2.469-1.322.12-.119-1.311-.118-1.31-.482.505-.09.094-.09.095-.399.422-.003.003s-.354.391-.74.81l-.112.12-.378.405-.923.975-.852-.691 2.352-2.569c1.293-1.413 2.612-2.631 2.729-2.642Zm-1.487-1.34-2.465 2.696c-1.356 1.483-2.512 2.701-2.568 2.707-.048.005-.582-.387-.741-.504l-.04-.03-.005-.003 1.877-2.115 1.262-1.511-3.07.277-.047-.518-.047-.518 2.922-.241 2.922-.24Zm-3.575-7.108 3.77 4.12 1.121 1.225.253.275.126.138.251.274a693.598 693.598 0 0 0 3.677 3.979c.912.973 1.658 1.85 1.658 1.95 0 .101-1.085.183-2.412.183h-2.413v-.768c.004-.555.06-.571 1.105-.572h1.288l-3.523-3.852c-1.504-1.643-2.845-3.075-3.419-3.654l-.104-.104a1.384 1.384 0 0 0-.186-.168c-.103-.04-.187.537-.187 1.284v.19c-.003 1.083-.043 1.165-.463 1.168h-.542v-5.668Zm6.031-1.253v.558c0 .593-.285.686-1.759.573-.359-.027-.653.034-.653.137 0 .102 1.34 1.65 2.854 3.346l.18.2c.179.202.36.404.542.605l.218.242c1.188 1.317 2.34 2.566 2.916 3.15l.082.082c.169.167.274.261.297.261.081 0 .148-.602.148-1.34 0-1.28.023-1.339.503-1.339h.502v3.02c-.002 1.428-.023 2.559-.05 2.555a.078.078 0 0 1-.013-.012l-.02-.02c-.306-.312-2.624-2.843-5.395-5.889-2.958-3.252-5.378-5.962-5.378-6.021 0-.058 1.07-.106 2.399-.108h2.627ZM10.988 18.68c.225.01.591.365 1.462 1.34.76.85 1.452 1.545 1.538 1.545.085 0 .156-.552.156-1.228 0-1.161.027-1.228.502-1.228h.503v2.91c-.003 1.367-.026 2.449-.054 2.449s-1.024-1.082-2.23-2.424l-.164-.184c-1.204-1.344-2.176-2.506-2.176-2.603 0-.099.122-.316.272-.482.057-.063.116-.099.191-.095Zm21.654-4.483c.057 0 1.141 1.155 2.408 2.566l2.305 2.567-.41.454-.409.455-1.364-1.57c-.75-.863-1.401-1.57-1.446-1.57-.045 0-.082.61-.082 1.355v.185c-.002 1.142-.036 1.165-.517 1.099l-.517-.07-.036-2.736c-.02-1.505.011-2.735.068-2.735ZM22.396 6.195c.115-.012.187.938.191 2.497v2.826h-.502c-.455 0-.5-.053-.503-1.147v-.193c0-.736-.069-1.34-.153-1.34-.02 0-.114.084-.264.233l-.097.097c-.518.524-1.523 1.612-2.602 2.802l-.217.24-.218.24-.327.364-.109.122-.217.242-.176.196-.174.195c-1.443 1.618-2.683 3.05-2.683 3.143 0 .09.527.165 1.172.165 1.092 0 1.17.035 1.14.502-.032.488-.105.505-2.48.566a67.1 67.1 0 0 1-1.492.023h-.235c-.444-.002-.719-.013-.719-.033 0-.141 10.465-11.665 10.66-11.739a.023.023 0 0 1 .005-.001Zm8.933 6.44c.14 0 .357.136.482.302.179.24-.092.64-1.282 1.9-.83.88-1.509 1.628-1.509 1.664 0 .017.114.026.302.027h.109c.213-.001.492-.01.796-.027l1.206-.066v1.335l-5.127-.02 2.383-2.558c1.311-1.406 2.499-2.557 2.64-2.557Zm-1.88-2.003c.068-.004.246.154.393.35.232.312.099.536-1.031 1.722-.714.75-1.819 1.91-2.454 2.579L25.2 16.498v-1.116c0-.615.058-1.886.13-2.825.12-1.594.16-1.709.593-1.709.426 0 .469.11.524 1.328l.06 1.328 1.407-1.432c.774-.788 1.464-1.435 1.533-1.44ZM23.885 4.5c.29-.003.813.528 2.43 2.34 1.256 1.406 2.288 2.632 2.293 2.724.005.092-1.076.168-2.403.168h-2.413v-1.34l1.257-.003 1.256-.002-1.457-1.59c-.802-.874-1.458-1.664-1.458-1.756 0-.092.145-.3.321-.463a.254.254 0 0 1 .174-.078Zm-6.75 30.067c.17 0 .224.697.224 2.818 0 3.122.143 3.604 1.07 3.61.357.004.382.044.136.22-.475.342-.97.262-1.413-.23-.374-.415-.403-.69-.351-3.386.04-2.103.127-2.96.307-3.027a.075.075 0 0 1 .026-.005Zm7.318 2.363c.093.005.229.184.47.579.55.897.621 2.081.184 3.02-.327.703-.685.918-1.482.892l-.536-.017.603-.235c1.353-.527 1.674-1.584.902-2.972-.226-.406-.348-.89-.276-1.098.039-.112.08-.172.135-.169Zm-3.386 3.392c.172 0 .313.1.313.224 0 .123-.085.223-.19.223-.103 0-.244-.1-.313-.223-.068-.123.017-.224.19-.224Zm.715 0c.11 0 .201.1.201.224 0 .123-.09.223-.2.223-.112 0-.202-.1-.202-.223s.09-.224.201-.224Zm-1.817-3.907.008 2.344h1.908c.95-.003 1.71-.047 1.71-.1 0-.056-.102-.351-.227-.656-.125-.305-.163-.737-.085-.96.122-.344.2-.287.52.377.649 1.34.469 2.772-.308 2.453-.221-.09-1.11-.126-1.976-.079-.866.048-1.676.016-1.801-.07-.125-.085-.616-.129-1.09-.097-1.194.082-1.139-.367.239-1.948l1.102-1.264Zm-.46 1.228c-.036 0-.278.251-.537.558l-.473.558h.538c.44 0 .538-.102.538-.558 0-.307-.03-.558-.066-.558Zm-.325-2.233c.104 0 .19.1.19.223s-.141.224-.314.224c-.172 0-.257-.1-.189-.224.068-.122.21-.223.313-.223Zm.592 0c.11 0 .2.1.2.223s-.09.224-.2.224c-.11 0-.201-.1-.201-.224 0-.122.09-.223.2-.223Zm-3.507-.821c.12.01.166.903.127 2.495-.06 2.495-.12 2.707-.716 2.586-.097-.02-.336.124-.53.32-.328.329-.387.31-.785-.252l-.43-.608-.347.505c-1.139 1.66-1.293 1.804-1.922 1.799l-.635-.005.824-.415c1.193-.603 1.408-1.51.67-2.836-.283-.51-.358-.859-.236-1.102.145-.286.275-.156.666.664.268.56.558 1.02.645 1.02.087 0 .352-.366.59-.813l.431-.812.366.502c.201.276.366.642.366.812 0 .17.132.31.294.31.232 0 .306-.429.352-2.047.032-1.126.148-2.08.259-2.122a.027.027 0 0 1 .011-.001Zm-7.513 1.044c.367 0 .117.48-.69 1.326l-.855.896 2.161.006c1.921.005 2.208.057 2.582.472.278.31.381.63.304.95a4.52 4.52 0 0 0-.119.662c-.002.1-.095.117-.207.04-.112-.077-1.386-.17-2.831-.206-2.271-.057-2.643-.017-2.741.295-.24.758-.929 1.365-1.546 1.36l-.619-.005.824-.415c1.19-.6 1.446-1.686.66-2.797-.322-.454-.382-.717-.243-1.063.168-.417.23-.364.678.573l.493 1.032h2.322c1.52 0 2.405.092 2.56.265.286.316.485.167.277-.208-.098-.176-.935-.278-2.502-.303-1.607-.026-2.355-.12-2.355-.293 0-.496 1.493-2.587 1.847-2.587Zm-5.47 4.582c.236-.002.502.09.554.265.039.128-.16.233-.44.233-.281 0-.511-.121-.511-.27 0-.153.187-.227.396-.228Zm.637-4.582c.223 0 .976 1.142.976 1.482 0 .433-.184.378-.589-.177-.208-.286-.45-.414-.595-.315-.17.116.037.501.671 1.254.947 1.125.978 1.199.75 1.804-.095.251-.26.313-.539.203-.22-.088-.896-.182-1.501-.21-.605-.026-1.215-.155-1.357-.285-.297-.274-.318-1.427-.039-2.081.155-.36.173-.313.098.247-.13.968.183 1.205 1.583 1.197l1.216-.007-.556-.46c-.878-.728-1.028-1.211-.616-1.986.195-.366.419-.666.498-.666Zm10.53 2.443h-.011c-.058.003-.094.062-.094.187 0 .262.631 1.21.731 1.098.049-.054-.02-.361-.153-.684-.148-.361-.35-.594-.473-.601Zm-8.954-2.671c.134-.005.237.23.161.483-.068.226-.115.226-.242-.001-.086-.156-.103-.344-.037-.417.04-.044.08-.064.118-.065Zm30.26.005c-.167 0-.302.1-.302.223s.135.224.301.224c.166 0 .302-.1.302-.224 0-.122-.136-.223-.302-.223Zm1.556 1.526c.095 0 .237.178.479.573.262.429.477.886.477 1.015 0 .13.101.235.225.235.123 0 .18-.19.125-.421-.055-.232-.026-.554.063-.714.119-.214.228-.134.406.3.224.548.275.568.661.268.297-.231.987-.326 2.377-.326 1.753 0 1.982.047 2.174.447.31.642.559.555 1.048-.366l.432-.812.366.502c.429.589.478 1.759.098 2.336-.252.383-.291.37-.707-.216l-.44-.621-.449.451c-.34.342-.58.41-.991.281-.299-.094-1.586-.17-2.86-.17h-2.319l-.41.736c-.452.813-.772 1.013-1.574.988-.513-.016-.507-.03.139-.289 1.251-.503 1.571-1.645.836-2.984-.218-.397-.342-.879-.275-1.071.032-.093.069-.142.119-.142Zm-1.204-.85.585 1.376c.415.973.55 1.56.462 2.004-.153.775-.319.901-.654.498-.186-.223-.787-.311-2.126-.311-1.692 0-1.908-.049-2.304-.517-.546-.646-.561-1.578-.035-2.163.433-.48 1.497-.604 1.722-.2.092.166 0 .2-.282.1-.585-.206-1.239.24-1.239.845 0 .893.358 1.042 2.503 1.038 1.379-.002 1.925-.072 1.719-.22-.166-.119-.55-.218-.855-.22-.69-.004-.695-.308-.025-1.384l.529-.846Zm-.354 1.2a.233.233 0 0 0-.13.044c-.209.142-.03.536.243.536.105 0 .19-.083.19-.186 0-.227-.146-.395-.303-.394Zm-6.176-.744c-.03.004-.084.097-.18.282-.208.395-.182.721.124 1.545.098.264.052.39-.142.39-.174 0-.396-.442-.563-1.124-.213-.869-.317-1.042-.457-.763-.177.351-.141.693.156 1.497.111.3.046.39-.278.39-.233 0-.424-.086-.424-.192 0-.106-.263-.56-.585-1.01l-.584-.817-.34.988c-.52 1.51-.239 2.038 1.057 1.985.138-.006.251.113.251.265 0 .378-.583.909-1.307 1.19l-.603.236.663.017c.628.017.979-.254 1.768-1.365.153-.215.612-.296 1.508-.266.794.026 1.345-.056 1.436-.215.25-.436.155-1.337-.225-2.129-.285-.593-.39-.676-.489-.388-.07.2-.038.622.07.936.237.694.24.765.03.765-.209 0-.839-1.457-.847-1.96-.002-.174-.009-.26-.04-.257Zm-2.925 1.445h.013c.112.005.24.108.341.32.186.386.158.452-.191.452-.225 0-.41-.144-.41-.321 0-.291.11-.447.247-.451Zm-9.994 5.462a.42.42 0 0 0-.184.037h.194c-.003-.024-.007-.037-.01-.037Z"/>
</svg>
