---
version: "3.0.9"
---
<svg>
  <path d="M23.878 8.884h.437c.8-.006.943-.049 1.502-.315.627-.299 1.386-.929 1.639-1.38l.046-.085c.081-.156.045-.134-.239.088-.698.531-1.24.698-2.302.698l-.14.002c-.766.005-.92-.026-1.471-.291l-.033-.016c-.806-.383-1.436-.984-1.8-1.761l-.03-.063c-.22-.457-.256-.668-.266-1.403v-.139c.006-.632.052-.847.252-1.278l.014-.03c.541-1.161 1.81-2.027 3.12-2.125.816-.06 1.505.127 2.322.62l.59.354-.482-.482C26.014.225 24.607-.2 23.15.087c-1.063.207-2.243 1.004-2.854 1.929-.984 1.476-.925 3.69.119 5.117.501.665.908 1 1.768 1.412l.14.066c.516.242.668.27 1.555.273m2.047-2.804c.03 0-.059-.286-.187-.64l-.226-.63.55-.403.552-.394h-1.397l-.099-.374-.033-.131-.154-.577-.088-.345-.236.719-.227.718-.66-.03-.056-.002c-.336-.016-.592-.006-.573.022.02.04.256.217.531.394l.05.034c.253.175.452.342.452.38a1 1 0 0 1-.032.12l-.019.056-.023.067-.089.24-.065.169c-.094.244-.165.465-.165.518 0 .058.214-.071.48-.278l.096-.076c.254-.197.47-.345.506-.345.046 0 .275.157.53.355l.17.132c.221.172.395.3.412.3m-3.828 40.71L24.252 48l1.703-.935c5.058-2.775 7.38-4.35 9.437-6.396 3.03-3.011 4.821-6.859 5.058-10.874.136-2.311-.093-3.721-.978-5.905l-.094-.23a27 27 0 0 1-.591-1.59c-.266-.875-.355-2.322-.207-3.404.203-1.39.803-3.51 1.393-4.937l.034-.082c.048-.105-.451-.525-2.026-1.7l-2.146-1.6-1.963-1.468-.281-.211-1.998-1.506-.944.68c-1.565 1.12-2.972 1.731-4.694 2.026-2.775.473-5.403-.206-7.814-2.017l-.199-.144c-.418-.3-.767-.533-.83-.535h-.004c-.069 0-.895.58-1.84 1.29l-1.002.737a839 839 0 0 1-2.447 1.79l-3.277 2.39-.054.042c-.018.018.083.354.233.758l.033.088c.767 2.047 1.19 3.857 1.269 5.442l.004.09c.058 1.427-.12 2.19-.998 4.397l-.066.17c-.88 2.283-1.1 3.738-.888 5.774.54 4.979 2.824 8.984 6.947 12.182l.1.077c1.628 1.25 3.484 2.423 6.975 4.39m-2.253-24.188-4.448.01-1.142-.003c-1.562-.006-2.795-.026-3.186-.055l-.032-.003q-.097-.009-.098-.018v-.009c.007-.068.074-.415.158-.798.324-1.515.059-3.857-.709-6.377l-.288-.928a10 10 0 0 1-.115-.39c-.038-.114.18-.32.741-.739l.081-.06 3.795-2.77a66 66 0 0 1 1.969-1.384l.134-.089c.283-.185.455-.286.473-.272l.01.005c.084.047.441.283.817.536a13 13 0 0 0 3.433 1.582l.243.066c.19.051.353.091.512.123l.05.01.075.012c.424.072.875.086 1.837.087h.24c1.415-.002 1.798-.035 2.525-.217 1.466-.374 2.696-.925 4.025-1.82l.076-.05c.28-.176.542-.304.607-.287l.006.002c.055.016 1.06.755 2.387 1.747l3.881 2.902c.305.226.496.367.531.39l.03.02c.13.1.129.148-.008.519l-.077.21c-.145.4-.335 1.05-.509 1.72l-.035.138-.052.207a21 21 0 0 0-.323 1.486c-.216 1.16-.197 2.814.03 3.69l.177.718H35.5l-1.725.017c-.98.01-2.04.024-2.831.042l-.39.01q-.583.015-.985.017h-.146c-.609 0-.87-.027-.87-.076 0-.055.051-.102.115-.108h.012c.23 0 1.293-.733 1.841-1.27l.049-.049a6.4 6.4 0 0 0 1.525-2.41l.04-.111c.25-.716.38-1.277.305-1.277-.029 0-.409.18-.856.403l-.06.03c-1.547.773-3.446 1.462-4.753 1.719l-.068.013c-.31.059-.863.117-1.443.163l-.159.012-.135.01-.18.011c-.713.045-1.378.064-1.587.03l-.354-.059v-1.151h-.787v1.16l-.413-.048-.053-.006c-.516-.063-1.605-.269-2.769-.511l-.246-.052-.238-.05-.238-.052-.359-.078c-1.061-.233-2.058-.47-2.612-.629-.292-.078.737 1.349 1.588 2.208l.127.127c.763.76 1.32 1.162 2.31 1.69zm5.53-3.74c.342-.083.732-.167 1.127-.244l.226-.044.216-.04c.806-.146 1.565-.252 1.895-.252h.052c.223-.004.25-.038.253-.331v-.092c0-.64.344-2.165.63-2.785l.256-.551-.67.059c-.364.04-1.16.246-1.761.453l-1.112.373-.01-.413-.001-.326v-.25l.003-.427c.01-.947.04-1.847.075-1.964l.01-.025c.063-.175-.053-.14-1.012.316-1.919.915-3.749 2.066-5.314 3.355-.26.217-.56.483-.862.76l-.14.129-.111.104-.158.148-.155.148-.141.135c-.65.628-1.16 1.168-1.083 1.184h.003c.06 0 .965-.108 2.018-.236a49 49 0 0 1 1.588-.172l.134-.012.27-.023c.988-.085 1.907-.137 2.44-.138h.05c.27.001.428.017.428.05 0 .035-.036.206-.087.422l-.095.401c-.061.264-.105.48-.113.505 0 .03.511-.069 1.151-.217M16.055 17.6l.227-.028c.575-.072 1.14-.164 1.26-.224l.016-.01c.147-.093.592-.457 1.053-.86l.15-.134.11-.1c1.29-1.156 2.527-2.124 3.207-2.498l.21-.12c.74-.43.77-.497.734-.923l-.03-.413-1.279.66c-1.286.676-2.457 1.388-3.887 2.375l-.206.143c-.296.205-.645.463-.993.73l-.18.138-.233.182c-.726.573-1.342 1.103-1.3 1.145.041.042.568.003 1.141-.063m8.876 28.63c-.088 0-.108-10.864-.03-21.088l.01-1.447H38l.138.217c.3.474.83 1.997.987 2.842l.007.04c.207 1.113.157 3.74-.098 4.872-.699 3.09-2.018 5.56-4.163 7.784l-.12.124c-1.29 1.326-2.172 2.055-3.95 3.235l-.156.104a75 75 0 0 1-2.677 1.638l-.28.164c-1.37.803-2.643 1.515-2.756 1.515m-1.338 0-.004-.001c-.081-.025-1.066-.576-2.21-1.24l-.232-.134c-2.34-1.372-4.617-2.867-5.741-3.772-1.112-.905-2.746-2.637-3.454-3.67-1.528-2.238-2.497-5.004-2.662-7.625l-.005-.09c-.115-1.99.05-3.068.736-4.798l.445-1.107h13.166l.02 11.219.004 1.846.002 1.742-.002 2.19c-.007 3.286-.03 5.44-.063 5.44m9.093-6.023.816.03.561-.58c.689-.71.974-1.378 1.112-2.677l.013-.127c.08-.767.123-.848.46-1.231a5 5 0 0 0 .59-.866l.044-.093c.14-.305.15-.43.048-1.37l-.057-.52-.01-.087c-.077-.747-.128-1.496-.115-1.733l.001-.025c.03-.354.07-.413.424-.57.775-.37 1.054-.814.8-1.316l-.013-.023c-.59-1.152-2.106-.522-2.273.944-.03.256-.01.896.049 1.408l.033.27c.247 2.065.219 2.494-.12 2.686l-.012.006c-.372.2-.634.03-1.17-.755l-.05-.072c-.669-.994-.679-1.21-.167-2.293l.083-.17c.556-1.16.653-1.596.606-2.516-.05-.984-.276-1.585-.876-2.293l-.038-.048c-.184-.234-.335-.472-.345-.554v-.008c0-.197-.768-.207-1.3-.02l-.03.011c-.197.079-.627.323-1.078.6l-.16.1-.185.116c-.518.33-.995.657-1.105.777a1.3 1.3 0 0 0-.227.443c-.087.319.215.656.598.669h.022c.423 0 .709.108.709.266 0 .246-.394.905-.61 1.023-.246.128-1.407.06-1.604-.108-.06-.05-.217-.472-.335-.935l-.025-.092c-.284-1.012-.53-1.375-.979-1.413l-.07-.006c-.275-.02-.283.022-.392.478-.197.836-.148 1.318.187 2.047l.059.124c.424.891.557 1.023 1.132 1.165l.146.039c.729.196.8.273.838.699l.008.057c.028.193.07.402.105.491l.005.013c.054.127-.017.17-.482.223l-.119.013c-.35.038-.854.148-1.146.253l-.122.045c-.384.145-.451.227-.552.548l-.015.053c-.092.325-.071.372.163.597l.064.063c.196.191.234.178.565.035.217-.089.817-.177 1.408-.216l.34-.02c.663-.034.736-.003.89.177.103.103.34.278.549.387l.415.213-.492.276c-.549.318-1.06.852-1.165 1.216l-.006.024c-.06.216.069 1.2.315 2.519l.059.275h-.61c-.502 0-.64.04-.837.246-.393.384-.285.837.256 1.024.463.157 2.303.138 2.44-.02.058-.077.18-.461.278-.88l.185-.812.61-.08.07-.009c.697-.095.836-.038.836.315 0 .364-.178.58-.515.626l-.027.004c-.376.038-.592.409-.414.702l.01.016c.11.167.257.197.946.226M15.08 35.522l.048-.041c.732-.653.788-1.251.296-2.812l-.158-.498c-.107-.337-.235-.743-.362-1.155l-.057-.183-.269-.88-.265-.861c-.15-.484-.265-.843-.292-.921l-.004-.01c-.038-.113.378-.135 2.546-.137h.781c1.851.005 2.358.036 2.322.118l-.023.064c-.394 1.117-1.66 5.415-1.69 5.771-.108 1.24 1.191 2.293 2.53 2.067.55-.089 1.269-.61 1.515-1.083l.03-.058c.309-.622.207-1.15-.7-3.966l-.186-.577c-.571-1.777-.653-2.146-.602-2.492l.001-.011c.05-.325.03-.473-.068-.532-.078-.048-.793-.087-1.593-.088h-1.547v-.683c-.004-.311-.041-.6-.078-.656-.128-.187-.404-.226-.561-.078-.096.105-.145.33-.148.747v.67H14.74c-1.046.003-1.452.034-1.508.118-.04.069-.079.344-.079.62v.024c-.021.348-.266 1.299-.788 2.955l-.091.29c-.489 1.56-.764 2.615-.764 2.89 0 .55.188.938.675 1.36l.033.028c.866.748 1.988.748 2.864 0m5.105-1.79-.55-.001c-.92-.004-1.027-.026-.98-.16l.024-.063c.03-.082.074-.208.128-.367l.026-.08c.097-.291.22-.672.35-1.08l.299-.948c.274-.879.508-1.656.508-1.71v-.027c.007-.231.106.013.554 1.422l.403 1.278c.3.957.52 1.68.52 1.696 0 .018-.566.037-1.282.04m-6.251-.001h-.463c-.968-.003-1.254-.034-1.226-.124l.002-.008.05-.155c.107-.337.362-1.152.616-1.969l.643-2.075.009-.028c.02-.098.059-.167.078-.148l.004.006c.039.085.334 1.011.685 2.12l.204.66c.219.707.403 1.278.474 1.495l.03.084v.005l.003.008c.023.1-.179.125-1.11.129"/>
</svg>
