---
version: "0.0.4"
---
<svg>
  <path d="M11.54 27.923h-1.693l-1.014 -5.304l-1.98 5.439h-.618l-1.995 -5.439l-1.061 5.304h-1.679l1.98 -9.854h.92l2.137 6.644l2.075 -6.644h.92l2.008 9.854zm1.786 0v-5.829h-.92v-1.38h2.612v7.209h-1.692zm.8 -10.008a.93 .93 0 0 1 .674 .279c.19 .186 .285 .42 .285 .703a.943 .943 0 0 1 -.282 .694a.924 .924 0 0 1 -.678 .282a.934 .934 0 0 1 -.695 -.293a.965 .965 0 0 1 -.003 -1.37a.927 .927 0 0 1 .698 -.295zm9.125 10.008h-1.679v-3.09h-2.981v3.09h-1.68v-7.208h1.68v2.726h2.981v-2.726h1.679v7.208zm7.206 -7.06a2.45 2.45 0 0 1 1.141 -.29c.958 0 1.693 .332 2.203 .996c.51 .664 .766 1.578 .766 2.74c0 1.202 -.268 2.127 -.803 2.776c-.535 .648 -1.217 .972 -2.045 .972a3.26 3.26 0 0 1 -1.262 -.242v2.935h-1.612v-2.962c-.426 .18 -.86 .27 -1.303 .27c-.878 0 -1.569 -.324 -2.075 -.973c-.506 -.648 -.759 -1.554 -.759 -2.716c0 -1.184 .27 -2.113 .813 -2.786c.541 -.673 1.26 -1.01 2.155 -1.01c.399 0 .788 .092 1.169 .276v-2.82l1.612 -.404v3.238zm-1.599 5.707v-4.502a2.687 2.687 0 0 0 -.973 -.196c-1.035 0 -1.551 .79 -1.551 2.37c0 1.664 .539 2.496 1.618 2.496c.286 0 .589 -.056 .906 -.168zm1.585 .014c.318 .103 .611 .154 .88 .154c1.083 0 1.625 -.832 1.625 -2.497c0 -.772 -.132 -1.36 -.396 -1.763c-.264 -.404 -.647 -.606 -1.148 -.606c-.292 0 -.611 .06 -.96 .182v4.53zm6.131 1.339v-5.829h-.92v-1.38h2.613v7.209h-1.693zm.8 -10.008c.259 0 .484 .093 .674 .279c.19 .186 .286 .42 .286 .703a.945 .945 0 0 1 -.282 .694a.922 .922 0 0 1 -.679 .282a.935 .935 0 0 1 -.695 -.293a.967 .967 0 0 1 -.003 -1.37a.927 .927 0 0 1 .698 -.295zm9.126 10.008h-1.679v-3.09h-2.981v3.09h-1.68v-7.208h1.68v2.726h2.981v-2.726h1.679v7.208z" />
</svg>
