---
version: "3.0.7"
---
<svg>
  <path d="M18.715 20.344V9.727h3.668v10.617q0 2.753-.856 4.289-1.593 2.812-6.082 2.812c-4.489 0-5.023-.937-6.093-2.812q-.855-1.535-.856-4.29V9.728h3.668v10.617q0 1.78.422 2.601.655 1.454 2.86 1.453 2.19 0 2.847-1.453.422-.82.422-2.601m17.226 3.105h-6.363L28.383 27h-3.774l6.164-17.273h4.079L40.969 27h-3.914zm-1.007-2.976-2.157-6.797-2.226 6.797zM5.947 35.484H3.15v1.48h3.188V38H1.975v-5.758h4.222v1.02H3.15v1.222h2.797zM11.904 38h-1.46L9.35 36.04 8.193 38H6.795l1.851-2.934-1.761-2.824h1.437l1.028 1.871 1.054-1.87h1.39l-1.76 2.777zm4.77-.43q-.645.59-1.649.59-1.242 0-1.953-.797-.71-.8-.71-2.195 0-1.508.808-2.324.703-.711 1.789-.711 1.453 0 2.125.953.37.536.398 1.074H16.28q-.117-.414-.3-.625-.329-.375-.973-.375-.657 0-1.035.53-.38.528-.38 1.498c0 .97.134 1.13.401 1.45s.606.483 1.018.483q.633 0 .965-.414.183-.222.304-.668h1.192q-.156.942-.797 1.531m5.148.43v-2.57h-2.25V38h-1.191v-5.758h1.191v2.196h2.25v-2.196h1.196V38zm5.715-1.184h-2.121L25.018 38H23.76l2.054-5.758h1.36L29.213 38h-1.305zm-.336-.992-.719-2.265-.742 2.265zM34.6 38h-1.204l-2.351-4.09V38h-1.121v-5.758h1.262l2.293 4.02v-4.02h1.12zm4.652-.14q-.477.292-1.172.292-1.144 0-1.875-.793-.762-.795-.762-2.18 0-1.398.77-2.241t2.035-.844q1.098 0 1.764.556t.763 1.39h-1.183q-.137-.591-.668-.825a1.6 1.6 0 0 0-.66-.13q-.696 0-1.143.526-.447.525-.447 1.58 0 1.063.484 1.504t1.102.442q.605 0 .992-.35c.387-.35.417-.538.477-.916h-1.333v-.96h2.399V38h-.797l-.121-.719q-.348.41-.625.578m6.7-2.376h-2.798v1.48h3.188V38h-4.363v-5.758H46.2v1.02h-3.047v1.222h2.797z"/>
</svg>
