---
version: "3.0.7"
---
<svg>
  <path d="M19.435 12.307c-.62.805-1.333 2.257-1.6 3.06l-.053.174c5.42.735 9.788 3.478 9.958 3.585-4.536-.801-7.058-.756-8.842-.613l-.337.028c-1.642.155-2.089.345-2.152.376-1.282 2.795-2.057 7.54-2.093 7.76-.318-.759-.687-1.802-1.028-2.822l-.485-1.485a133 133 0 0 1-.635-2.042c-.93.486-2.314 1.555-3.675 2.69l-.823.696a117 117 0 0 0-3.546 3.176c2.506-5.026 5.049-7.822 5.905-8.686l.298-.29C9.3 16.868 6.671 16.325 4.638 16.2l-.273-.015c1.023-.417 3.576-.904 5.644-1.03l.292-.015.512-.012c1.73-.03 2.789.061 2.878.07 1.82-1.432 4.538-2.647 5.622-2.868zM28.339.728c5.253.409 11.677 2.373 14.79 4.276 1.157-.361 2.357-.398 4.408-.57l.37-.032-.12.215c-.458.837-.637 1.42-2.49 2.685l-.232.156c.606 1.621-.797 10.379-2.003 13.017l-.08.167-.013-.75c-.08-3.672-.457-8.013-1.79-9.971-3.732 2.197-4.876 2.38-8.934 4.808l.583-.637c1.928-2.124 2.728-3.204 4.064-5.163-3.534.187-8.58.599-12.4 1.368l-.66.14c3.378-1.805 10.078-3.812 13.615-4.29-.41-.566-2.275-1.748-4.243-2.874l-.592-.336c-1.68-.943-3.336-1.797-4.14-2.152zm-14.487 41.89c-2.012-.745-3.494-1.606-5.072-3.02l-.317-.291c.457-1.265.974-2.28 1.763-3.497l.274-.414-1.616.246c-.84.13-1.609.256-2.422.403l-.493.092c-1.15-2.013-1.71-3.959-2.29-6.579l-.11-.5c-.313 2.867-.444 4.962-.1 7.22l.07.426c-1.225.34-2.133.643-3.116 1.067l-.374.164.924.56a40 40 0 0 0 3.206 1.742l.519.247c.894 1.918 1.817 3.253 3.247 4.711l.293.294c-.34-1.222-.454-2.215-.356-3.445l.036-.377c1.983.578 3.68.881 5.934.95m11.446-3.83a45 45 0 0 1-2.502 3.127l-.395.446c-1.69.475-3.07.678-4.67.711l-.488.005c.975.503 1.922.829 2.922 1.065l.431.097a23.6 23.6 0 0 1-2.9 2.276l-.37.24c1.745-.413 3.996-1.128 5.787-2.095l.438-.246c.859.031 1.668-.014 2.303-.117l.23-.041-.12-.4c-.072-.26-.135-.51-.2-.812l-.1-.496c1.568-1.214 2.749-2.324 4.026-3.604l.43-.433c-1.39.969-2.605 1.717-4.136 2.472l-.523.252c-.077-.821-.12-1.52-.163-2.447"/>
</svg>
