---
version: "0.0.4"
---
<svg>
  <path d="M12.734 29.488h-5.52l-.76 2.59h-4.954l5.895 -15.686h5.285l5.896 15.685h-5.072l-.77 -2.589zm-1.016 -3.392l-1.734 -5.638l-1.722 5.638h3.456z" />
  <path d="M27.845 26.992l2.268 .506a8.33 8.33 0 0 1 -.343 1.006a8.696 8.696 0 0 1 -.463 .891l1.091 .75c.133 .085 .304 .187 .514 .306l-1.562 1.797a11.874 11.874 0 0 1 -.889 -.527c-.306 -.2 -.58 -.371 -.823 -.514a5.788 5.788 0 0 1 -1.512 .728c-.7 .209 -1.494 .313 -2.383 .313c-1.393 0 -2.43 -.29 -3.11 -.87c-.68 -.58 -1.02 -1.284 -1.02 -2.111c0 -.594 .2 -1.157 .6 -1.687c.399 -.53 1.053 -.978 1.961 -1.344c-.38 -.462 -.642 -.862 -.785 -1.202a2.66 2.66 0 0 1 -.214 -1.038c0 -.742 .283 -1.353 .85 -1.833c.565 -.48 1.423 -.72 2.574 -.72c1.175 0 2.038 .228 2.59 .684c.55 .457 .827 1.003 .827 1.64c0 .357 -.085 .7 -.254 1.028a2.613 2.613 0 0 1 -.61 .799c-.237 .204 -.663 .508 -1.276 .913c.509 .508 1.039 .982 1.59 1.419a6.49 6.49 0 0 0 .379 -.934zm-3.339 -1.833c.376 -.205 .666 -.427 .87 -.667c.205 -.24 .307 -.468 .307 -.682a.735 .735 0 0 0 -.256 -.567c-.172 -.154 -.407 -.231 -.707 -.231c-.294 0 -.535 .085 -.72 .256a.8 .8 0 0 0 -.278 .607c0 .294 .261 .722 .784 1.284zm-1.034 2.539c-.4 .28 -.664 .52 -.795 .72c-.13 .2 -.196 .411 -.196 .635c0 .347 .15 .656 .45 .927c.299 .271 .689 .407 1.169 .407c.518 0 1.1 -.202 1.747 -.607c-.618 -.475 -1.41 -1.17 -2.375 -2.082z" />
  <path d="M32.27 26.888l4.612 -.289c.1 .75 .303 1.32 .61 1.712c.499 .635 1.212 .952 2.14 .952c.691 0 1.224 -.162 1.599 -.486c.374 -.325 .561 -.701 .561 -1.13c0 -.406 -.178 -.77 -.535 -1.09c-.356 -.321 -1.184 -.625 -2.482 -.91c-2.125 -.478 -3.64 -1.113 -4.547 -1.904c-.913 -.792 -1.37 -1.801 -1.37 -3.028c0 -.806 .234 -1.568 .702 -2.284c.467 -.717 1.17 -1.28 2.107 -1.69c.938 -.41 2.224 -.616 3.857 -.616c2.005 0 3.533 .373 4.585 1.118c1.052 .745 1.678 1.931 1.877 3.557l-4.568 .268c-.121 -.706 -.376 -1.22 -.765 -1.54c-.389 -.322 -.925 -.482 -1.61 -.482c-.564 0 -.988 .12 -1.273 .358c-.286 .24 -.428 .53 -.428 .872c0 .25 .117 .475 .353 .674c.228 .207 .77 .4 1.626 .578c2.118 .456 3.636 .918 4.552 1.386c.917 .467 1.584 1.046 2.001 1.738c.417 .692 .626 1.466 .626 2.322a4.973 4.973 0 0 1 -.835 2.782c-.556 .848 -1.333 1.492 -2.332 1.93c-.998 .44 -2.257 .659 -3.777 .659c-2.667 0 -4.515 -.514 -5.542 -1.541c-1.027 -1.027 -1.608 -2.332 -1.744 -3.916z" />
</svg>
