<svg>
  <rect rx="8"/>
  <path d="m26.274 43.002.034.445-1.597 2.51 1.825-.14.037.492-2.505.191-.034-.445 1.597-2.51-1.73.132-.038-.492 2.411-.183Zm-4.574-.005.567.043 1.001 3.406-.605-.045-.222-.77-1.342-.101-.336.726-.567-.043 1.504-3.216Zm5.988-.23.584 3.27-.56.1-.584-3.269.56-.1Zm-9.993-.684.548.155-.433 1.524 1.783-1.14.656.186-1.565.966.75 2.255-.666-.19-.556-1.79-.584.357-.292 1.027-.547-.156.906-3.194Zm13.4-.289-.47 2.313.41 1.213-.538.183-.41-1.214-1.866-1.522.637-.216 1.324 1.105.32-1.661.593-.2Zm-9.18 1.933-.594 1.325.973.074-.378-1.4Zm-7.194-2.945 1.145.518c.19.086.346.184.468.295.122.11.211.229.268.356a.898.898 0 0 1 .082.395 1.057 1.057 0 0 1-.099.414.962.962 0 0 1-.411.462c-.181.1-.399.133-.653.098l.21 1.563-.57-.258-.147-1.462-.618-.279-.523 1.159-.519-.235 1.367-3.026Zm19.874-.528c.233.053.416.196.55.429.085.148.12.297.103.446a.737.737 0 0 1-.185.41.838.838 0 0 1 .538 0 .776.776 0 0 1 .412.368c.069.12.113.242.132.364a.747.747 0 0 1-.03.36.98.98 0 0 1-.216.346c-.103.112-.243.22-.421.321l-1.217.7-1.654-2.878 1.15-.663c.327-.187.606-.255.838-.203Zm-21.676-.688.463.33-.9 3.435-.494-.352.206-.773-1.097-.78-.662.448-.464-.33 2.948-1.978Zm22.05 2.356a1.24 1.24 0 0 0-.286.126l-.666.384.492.855.67-.385c.213-.123.34-.243.382-.358.042-.115.021-.243-.06-.386a.646.646 0 0 0-.136-.169.36.36 0 0 0-.173-.083.512.512 0 0 0-.224.016Zm-19.932-.456-.446.986.54.244c.265.12.47.16.614.121a.487.487 0 0 0 .322-.291.49.49 0 0 0 .006-.435c-.066-.134-.231-.26-.496-.38l-.54-.245Zm21.365-2.88 3.038 1.833-.477.376-.683-.417-1.059.833.243.762-.447.352-1.063-3.388.448-.352Zm-2.46 2.335-.596.343.444.773.596-.343c.192-.11.305-.223.34-.338a.436.436 0 0 0-.053-.353c-.071-.123-.162-.196-.273-.217-.11-.022-.264.023-.458.135Zm-21.215-.618-1.193.827.795.567.398-1.394Zm-3.408-4.017.406.426-.694 2.124 2.153-.593.392.412-2.401 2.292-.393-.413 1.682-1.603-1.79.494-.261-.275.578-1.765-1.68 1.604-.393-.412 2.401-2.291Zm27.287 3.043.456 1.38.768-.604-1.224-.776Zm2.694-3.77 2.508 2.175-.36.416-2.86-.32 1.792 1.554-.372.43-2.508-2.175.36-.416 2.86.32-1.792-1.553.372-.43Zm1.774-2.855.556 1.754 2.368-.18-.345.6-1.871.105.204.654.925.532-.284.494-2.877-1.656.284-.493 1.373.79-.674-2.008.34-.592Zm-9.147-18.69c2.351 0 4.126.385 5.322 1.156 1.199.774 1.797 1.753 1.797 3.272 0 .79-.2 1.648-.606 2.246-.406.598-1 1.069-1.771 1.418 1.247.393 2.18.974 2.791 1.746.615.773.92 1.746.92 2.92 0 1.715-.588 2.999-1.761 3.85-1.174.851-2.94 1.279-5.3 1.279H26.1v-5.892l-3.84 3.224-.341.287-3.391 2.847v-6.358l-10.576 8.88H2.146L22.262 18v6.357l3.839-3.223 3.733-3.135v10.914l2.8.001c1.013.004 1.484.014 2.195-.616.553-.49.787-1.05.787-1.673 0-.768-.39-1.57-.91-1.943-.683-.493-1.1-.522-2.308-.522H30.83v-2.988h1.662c.766 0 1.016-.077 1.567-.566.374-.333.533-.894.533-1.519 0-.69-.308-1.318-.708-1.656-.398-.335-.536-.428-1.737-.428H15.13l3.584-2.988h13.213Zm9.733 17.394 3.024 1.368-.234.519-3.024-1.368.234-.52Zm2.548-3.53a1.16 1.16 0 1 1-.002 2.322 1.16 1.16 0 0 1 .002-2.322ZM3.993 25.716c.225.043.415.121.572.235.157.113.282.254.377.424.094.17.16.354.195.553.035.2.038.395.008.586-.03.192-.099.368-.207.529-.108.16-.26.3-.455.418a2.156 2.156 0 0 1-.741.258l-.093.017a2.02 2.02 0 0 1-.757.01 1.409 1.409 0 0 1-.56-.237 1.285 1.285 0 0 1-.372-.425 1.802 1.802 0 0 1-.193-.554 1.805 1.805 0 0 1-.01-.586 1.28 1.28 0 0 1 .201-.527c.107-.16.254-.3.444-.417.189-.117.427-.202.713-.253l.093-.016c.3-.054.56-.059.785-.015Zm-.68.603-.093.017a1.56 1.56 0 0 0-.506.17.996.996 0 0 0-.31.264.774.774 0 0 0-.142.325.978.978 0 0 0 .121.677c.06.102.142.187.246.255a.97.97 0 0 0 .38.139c.151.024.33.018.535-.018l.093-.017c.214-.039.392-.096.532-.172.141-.077.25-.165.327-.266a.754.754 0 0 0 .146-.325.99.99 0 0 0-.12-.677.75.75 0 0 0-.25-.254 1.035 1.035 0 0 0-.399-.139 1.725 1.725 0 0 0-.56.02Zm-1.762-1.8.74.172.597-.015.016.616-.598.015-.747-.503-.008-.284Zm41.615.051 3.318.084-.014.57-3.318-.084.014-.57ZM1.683 21.29l.445.034 2.238 1.96.138-1.827.492.037-.19 2.508-.445-.034-2.238-1.96-.131 1.732-.492-.037.183-2.413Zm44.171.042a.818.818 0 0 1 .306.207c.09.095.164.215.223.361.058.147.095.32.11.518.015.192.006.363-.028.511a1.078 1.078 0 0 1-.158.38.868.868 0 0 1-.269.254 1.026 1.026 0 0 1-.356.13l-.043-.568a.468.468 0 0 0 .276-.214c.066-.108.092-.26.077-.455-.017-.227-.069-.387-.155-.48a.352.352 0 0 0-.295-.128.373.373 0 0 0-.326.215c-.066.132-.116.33-.15.597a3.69 3.69 0 0 1-.103.519c-.042.15-.1.278-.173.382a.772.772 0 0 1-.27.241.98.98 0 0 1-.39.104.896.896 0 0 1-.385-.052.818.818 0 0 1-.321-.22 1.204 1.204 0 0 1-.23-.392 2.045 2.045 0 0 1-.113-.565 1.948 1.948 0 0 1 .028-.563 1.15 1.15 0 0 1 .168-.41.891.891 0 0 1 .282-.267c.11-.065.235-.11.373-.133l.043.568a.59.59 0 0 0-.175.077.443.443 0 0 0-.132.141.631.631 0 0 0-.078.223 1.342 1.342 0 0 0-.009.326c.01.133.031.245.062.336.03.091.067.164.111.22a.366.366 0 0 0 .332.143.38.38 0 0 0 .334-.242c.068-.15.122-.378.162-.685.025-.173.058-.328.1-.464.042-.137.098-.252.168-.346a.762.762 0 0 1 .264-.223c.105-.054.233-.086.385-.098a.806.806 0 0 1 .355.052Zm-3.498-3.108 3.516.478.129.555-2.952 1.972-.136-.592.667-.441-.303-1.313-.793-.104-.128-.555Zm-39.112-.25a.724.724 0 0 1 .397.228.736.736 0 0 1 .175.415.839.839 0 0 1 .366-.395.772.772 0 0 1 .549-.05c.135.03.254.081.357.15.102.07.183.158.242.268.06.11.095.24.107.392.012.152-.005.328-.052.529l-.315 1.368-3.234-.747.299-1.294c.085-.367.225-.618.422-.752.196-.135.425-.172.687-.112Zm1.107.728a.36.36 0 0 0-.18.07.513.513 0 0 0-.14.175 1.23 1.23 0 0 0-.102.295l-.172.75.96.221.174-.753c.056-.24.055-.415 0-.524-.057-.109-.165-.181-.325-.218a.641.641 0 0 0-.215-.016Zm39.448.25.22.953 1.221-.78-1.44-.173ZM2.812 18.59c-.091.067-.162.21-.213.428l-.154.67.868.2.155-.67c.05-.215.044-.375-.017-.478a.434.434 0 0 0-.293-.202c-.14-.032-.254-.015-.346.052Zm41.508-4.419.209.53-1.473.58 1.987.726.25.636-1.716-.66-1.336 1.966-.254-.645 1.085-1.529-.638-.248-.993.392-.208-.53 3.087-1.218Zm-40.725.314.459.181-.609 1.545.812.32.556-1.413.459.181-.557 1.413.9.355.609-1.545.458.18-.817 2.075-3.087-1.218.817-2.074Zm1.87-3.344.557 1.754 2.368-.181-.345.6-1.87.106.203.653.925.532-.284.494-2.877-1.655.284-.494 1.373.79-.674-2.007.34-.592Zm37.958 1.479.283.493-2.877 1.656-.283-.494 2.877-1.655ZM41.65 9.977l.33.464-2.303 1.638.934 1.315-.402.286-1.264-1.779 2.705-1.924ZM6.572 9.793l2.61 2.052-.352.447-2.609-2.051.351-.448Zm32.4-2.625.96.917c.273.26.417.508.432.746.016.238-.069.454-.254.649a.725.725 0 0 1-.399.226.735.735 0 0 1-.446-.062.84.84 0 0 1 .154.516.778.778 0 0 1-.237.5c-.096.1-.2.177-.311.23a.744.744 0 0 1-.354.072.978.978 0 0 1-.391-.108 1.76 1.76 0 0 1-.429-.313l-1.015-.97 2.29-2.403ZM9.385 7.54c.116.042.225.107.326.194l-.412.393a.468.468 0 0 0-.34-.079c-.126.017-.26.093-.401.229-.165.157-.256.298-.274.424a.353.353 0 0 0 .088.31c.105.11.23.148.373.116.144-.033.33-.12.556-.262.168-.103.324-.186.467-.249.144-.063.279-.098.405-.108a.77.77 0 0 1 .358.056.976.976 0 0 1 .328.237.897.897 0 0 1 .203.33.815.815 0 0 1 .033.389c-.02.137-.073.28-.158.426a2.053 2.053 0 0 1-.364.446c-.156.148-.307.26-.454.335a1.149 1.149 0 0 1-.424.129.892.892 0 0 1-.385-.05 1.074 1.074 0 0 1-.338-.204l.411-.393c.055.04.112.068.171.086a.442.442 0 0 0 .193.013.63.63 0 0 0 .221-.08c.078-.044.164-.11.258-.2.096-.092.17-.178.22-.26a.726.726 0 0 0 .1-.226.362.362 0 0 0-.006-.191.402.402 0 0 0-.093-.157.38.38 0 0 0-.398-.105c-.159.042-.37.145-.633.309-.15.09-.29.162-.423.216a1.122 1.122 0 0 1-.374.089.758.758 0 0 1-.339-.064 1.001 1.001 0 0 1-.32-.236.813.813 0 0 1-.218-.676c.017-.13.063-.263.139-.401.076-.138.186-.276.33-.413.14-.133.277-.234.413-.302.136-.069.267-.108.395-.118.128-.01.25.005.366.047Zm28.73 1.353-.681.714.56.534c.177.17.328.259.45.266.122.007.24-.049.353-.168a.642.642 0 0 0 .123-.177.359.359 0 0 0 .03-.19.513.513 0 0 0-.078-.21 1.24 1.24 0 0 0-.202-.239l-.556-.53Zm.928-.975-.615.646.498.474c.16.153.3.23.42.23a.44.44 0 0 0 .323-.15c.098-.103.142-.211.131-.324-.01-.113-.097-.246-.26-.401l-.497-.475ZM35.93 4.853l.464.33-1.135 1.596c-.181.256-.26.481-.238.678.023.197.14.37.348.518.211.15.413.204.605.16.192-.044.378-.192.557-.445l1.137-1.6.464.33-1.154 1.624c-.135.19-.279.338-.43.441a1.134 1.134 0 0 1-.469.194 1.117 1.117 0 0 1-.496-.04 1.733 1.733 0 0 1-.505-.254 1.735 1.735 0 0 1-.407-.394 1.118 1.118 0 0 1-.2-.456c-.029-.16-.019-.33.03-.507.048-.177.14-.36.275-.551l1.154-1.624Zm-24.013.137.286.402-.908.647 1.637 2.304-.463.33-1.638-2.305-.908.646-.285-.402 2.28-1.622Zm2.905-1.199c.184.055.36.156.528.303.167.147.317.35.45.608l.043.085c.138.27.22.52.244.747.024.227.004.432-.058.615a1.294 1.294 0 0 1-.295.485c-.135.14-.292.256-.472.348a1.76 1.76 0 0 1-.558.18c-.192.027-.38.013-.565-.044a1.424 1.424 0 0 1-.534-.313 2.161 2.161 0 0 1-.463-.634l-.043-.084a2.02 2.02 0 0 1-.23-.722c-.022-.221 0-.423.063-.605.063-.181.162-.342.297-.48.135-.139.293-.254.473-.346.18-.093.365-.153.557-.182.19-.029.379-.015.563.04Zm-.56.49a.975.975 0 0 0-.611.313.773.773 0 0 0-.172.31.969.969 0 0 0-.021.405c.02.15.078.32.173.505l.043.085c.1.194.206.347.32.459.115.112.231.19.35.234a.75.75 0 0 0 .353.046.989.989 0 0 0 .612-.314.75.75 0 0 0 .17-.313 1.04 1.04 0 0 0 .016-.422 1.723 1.723 0 0 0-.184-.53l-.043-.084a1.562 1.562 0 0 0-.31-.435.994.994 0 0 0-.344-.218.771.771 0 0 0-.351-.042Zm18.343-1.108 1.101.499c.406.184.666.406.78.668.115.261.106.54-.027.833-.133.294-.335.485-.607.572-.272.087-.61.038-1.017-.145l-.583-.264-.496 1.098-.518-.235 1.367-3.026ZM18.855 2.06l.907 3.194-.53.15-2.216-1.835.648 2.282-.547.155-.907-3.194.53-.15 2.215 1.835-.647-2.281.547-.156Zm10.917.187c.157-.005.331.02.523.074.185.053.342.12.47.203.128.082.228.176.302.28a.864.864 0 0 1 .145.34c.023.122.023.248-.001.38l-.548-.156a.47.47 0 0 0-.105-.333c-.078-.1-.212-.176-.4-.23-.22-.062-.387-.069-.505-.02a.353.353 0 0 0-.221.233.373.373 0 0 0 .09.38c.1.108.27.224.507.347.174.092.325.184.451.276.127.092.227.19.299.295a.776.776 0 0 1 .133.336.98.98 0 0 1-.038.403.899.899 0 0 1-.18.344.814.814 0 0 1-.319.225 1.2 1.2 0 0 1-.446.08c-.17.001-.36-.028-.57-.088a1.958 1.958 0 0 1-.518-.221 1.147 1.147 0 0 1-.326-.3.886.886 0 0 1-.153-.356 1.078 1.078 0 0 1 .004-.396l.547.155a.597.597 0 0 0 .013.191c.014.06.043.118.086.173a.634.634 0 0 0 .182.15c.078.045.179.085.303.12.128.037.24.056.336.06a.723.723 0 0 0 .245-.03.364.364 0 0 0 .25-.262.38.38 0 0 0-.113-.397c-.116-.115-.312-.245-.587-.388a3.05 3.05 0 0 1-.4-.255 1.125 1.125 0 0 1-.267-.278.758.758 0 0 1-.117-.324c-.014-.118 0-.25.04-.395a.81.81 0 0 1 .472-.532c.12-.052.258-.08.416-.084Zm3.147 1.61-.465 1.03.54.244c.136.061.254.102.356.122.102.02.19.021.263.004a.372.372 0 0 0 .19-.107.745.745 0 0 0 .136-.211.72.72 0 0 0 .067-.24.389.389 0 0 0-.044-.214.61.61 0 0 0-.176-.196 1.666 1.666 0 0 0-.327-.187l-.54-.245Zm-7.082-2.322 2.21.281-.062.49-1.646-.21-.11.866 1.505.192-.062.49-1.505-.192-.122.96 1.646.209-.062.49-2.21-.282.418-3.294Zm-2.646-.034c.209-.005.392.015.55.062.157.046.29.114.396.203a.896.896 0 0 1 .245.322c.057.125.087.263.091.415a.964.964 0 0 1-.17.595c-.119.17-.3.293-.545.372l.868 1.316-.626.016-.767-1.252-.677.017.032 1.271-.569.014-.084-3.32 1.256-.031Zm-.082.495-.593.015.028 1.082.592-.015c.29-.008.493-.06.606-.158a.488.488 0 0 0 .162-.403.487.487 0 0 0-.183-.394c-.117-.092-.322-.134-.612-.127Z"/>
</svg>
