<svg>
  <path d="M24.138 1.538c.51.016 1.018.022 1.527.045 1.005.046 1.995.211 2.981.411a20.96 20.96 0 0 1 6.958 2.771c4.526 2.821 7.734 6.724 9.524 11.754.534 1.497.88 3.04 1.08 4.616.203 1.593.23 3.19.1 4.785-.361 4.437-1.923 8.421-4.628 11.962-.534.698-1.14 1.33-1.747 1.966a21.46 21.46 0 0 1-4.308 3.453 22.064 22.064 0 0 1-7.611 2.908c-.57.105-1.141.192-1.717.259-.394.046-.794.046-1.191.054-.413.009-.823.002-1.236.002.002-.006.002-.012.002-.016-.628 0-1.256.006-1.884-.002-.741-.01-1.472-.136-2.198-.267a21.914 21.914 0 0 1-5.785-1.887 22.279 22.279 0 0 1-6.122-4.416c-1.529-1.556-2.833-3.27-3.867-5.188a22.341 22.341 0 0 1-2.297-6.585c-.285-1.547-.344-3.102-.329-4.668.052-5.684 2.494-11.472 6.73-15.581 3.155-3.061 6.89-5.04 11.194-5.957a19.94 19.94 0 0 1 4.824-.42Zm-4.855.81c-4.37.945-8.122 3.018-11.23 6.21-2.98 3.06-4.948 6.676-5.84 10.857-.23 1.082-.406 2.172-.454 3.277-.021.5-.021 1.001-.021 1.502-.002 1.52.155 3.023.487 4.507.993 4.419 3.085 8.236 6.38 11.36 3.878 3.673 8.5 5.723 13.848 6.113a21.14 21.14 0 0 0 4.386-.142 21.797 21.797 0 0 0 5.34-1.428 21.937 21.937 0 0 0 7.087-4.643c1.153-1.135 2.194-2.354 3.086-3.7a22.12 22.12 0 0 0 3.165-7.482c.22-.985.396-1.977.446-2.984.028-.563.007-1.126.007-1.689h.02c0-.25.007-.5-.002-.75-.012-.472-.01-.947-.056-1.416a21.772 21.772 0 0 0-.695-3.68c-1.097-3.96-3.105-7.388-6.078-10.244-3.568-3.426-8.926-6.045-14.824-6.13-1.702-.025-3.387.104-5.052.463Zm4.778 40.069c.046.154.059 2.283.015 2.57-.053.003-.095.007-.134.007-.049 0-.097-.004-.143-.006-.048-.144-.06-2.28-.014-2.559.041-.004.09-.01.136-.012.048-.002.096 0 .14 0Zm.513-39.307c.419.023.835.043 1.252.081.444.042.888.1 1.33.154.115.015.236.017.351.117-.05.08-.092.165-.15.238-.296.369-.589.74-.895 1.103-.1.119-.115.214-.037.35.272.47.534.945.802 1.416.029.052.07.1.11.156.05-.033.095-.056.13-.085.394-.324.783-.65 1.18-.968.131-.106.169-.22.12-.381-.13-.432-.253-.868-.376-1.301-.03-.105-.053-.213-.078-.32.132-.077.252-.047.362-.022.861.183 1.7.435 2.517.767.07.03.132.07.224.119-.069.077-.117.144-.178.196-.335.294-.666.592-1.009.875-.147.121-.207.24-.142.43.159.467.303.938.456 1.405.023.071.065.136.105.22.069-.024.132-.034.184-.061.45-.238.896-.48 1.346-.718.143-.075.189-.177.17-.34-.05-.448-.092-.898-.126-1.348-.023-.33.023-.363.335-.23.746.317 1.464.684 2.148 1.118l.1.07.19.157c-.053.138-.156.19-.25.244-.387.219-.777.44-1.17.646-.136.071-.2.148-.176.307.077.55.144 1.1.22 1.651.006.046.03.09.05.152.067-.008.13-.008.186-.025.5-.152.999-.308 1.5-.458.127-.038.175-.11.188-.24.048-.525.105-1.05.157-1.576.004-.048.008-.096.017-.175.08.022.153.03.213.064.11.06.218.127.314.207.593.485 1.183.973 1.77 1.465.087.073.157.17.26.28-.112.054-.187.102-.267.129-.442.152-.881.307-1.327.448-.155.05-.228.13-.237.292-.027.52-.069 1.039-.096 1.56-.01.206.023.238.228.22.507-.039 1.013-.089 1.522-.13.128-.01.184-.086.22-.19.08-.244.155-.49.232-.734.08-.252.157-.505.24-.755.022-.07.056-.138.087-.208.341.177 1.95 2.09 2.069 2.47l-.167.048a.585.585 0 0 1-.085.015c-.498.058-.998.112-1.497.167-.2.02-.205.016-.25.204-.124.507-.248 1.011-.367 1.518-.02.08-.021.163-.034.263.189.03.358.066.528.087.381.044.764.077 1.145.121.16.019.264-.035.34-.18.207-.402.418-.8.632-1.198.058-.109.13-.209.207-.332.06.048.109.073.14.113.082.104.161.208.233.321.423.671.802 1.368 1.124 2.093.046.105.11.209.082.36-.32.028-.635-.04-.951-.061-.312-.021-.626-.04-.953-.059a14.24 14.24 0 0 0-.82 1.775c.073.033.125.064.184.083.477.154.957.302 1.432.46.147.049.245.022.341-.101.293-.372.595-.738.899-1.1.19-.226.274-.216.376.065.162.445.306.893.444 1.345.124.405.228.816.335 1.226.023.09.021.188.036.313-.12-.019-.21-.02-.291-.046-.463-.133-.924-.269-1.384-.404a8.005 8.005 0 0 0-.216-.06 15.005 15.005 0 0 0-1.225 1.57c.084.053.139.095.2.126.447.242.895.48 1.341.726.128.07.226.065.337-.031a43.7 43.7 0 0 1 .899-.749c.148-.123.303-.24.462-.365.116.173.124.35.151.517.124.818.199 1.641.228 2.47.002.083-.002.166-.006.25-.002.018-.015.037-.031.083-.082-.025-.17-.038-.247-.077-.38-.19-.756-.388-1.135-.584-.099-.05-.197-.102-.316-.165-.515.4-1.007.826-1.504 1.276.08.075.143.14.21.196l.751.622c.125.104.249.21.37.316.141.123.256.12.41.032.38-.217.77-.424 1.157-.63.09-.048.186-.081.314-.138.013.123.038.217.032.309a127.8 127.8 0 0 1-.16 1.972c-.02.242-.06.482-.098.722-.01.07-.044.14-.075.24-.099-.063-.178-.103-.245-.157-.327-.26-.647-.53-.98-.784-.375-.285-.283-.244-.633-.048-.376.21-.743.442-1.111.665-.071.044-.138.092-.22.148.031.053.052.103.084.144.322.411.65.818.969 1.23.105.136.216.165.379.111a44.8 44.8 0 0 1 1.28-.388c.085-.025.173-.037.292-.06-.006.104 0 .185-.016.264a15.02 15.02 0 0 1-.765 2.55c-.029.076-.077.14-.131.236-.084-.08-.153-.135-.21-.202-.27-.32-.544-.634-.804-.961-.113-.144-.228-.178-.396-.117-.504.18-1.013.35-1.522.525-.031.01-.058.032-.109.06.308.576.61 1.145.913 1.717.587.035 1.15-.113 1.738-.096-.004.056 0 .102-.012.146a.664.664 0 0 1-.063.154c-.377.713-.752 1.426-1.14 2.133-.079.148-.16.307-.343.413-.056-.081-.119-.154-.163-.236-.18-.344-.354-.692-.532-1.04-.056-.11-.115-.221-.18-.344a18.17 18.17 0 0 0-1.897.2c0 .063-.01.11.002.154.134.517.275 1.034.404 1.552.042.166.14.241.304.262.408.052.817.109 1.223.167.102.015.2.04.318.065-.015.062-.017.11-.038.15-.044.08-.092.156-.144.23-.457.623-.95 1.217-1.485 1.778-.092.098-.178.214-.353.246-.04-.094-.086-.186-.116-.282-.108-.358-.2-.723-.318-1.08-.123-.377-.048-.348-.477-.402-.45-.056-.9-.098-1.353-.144-.067-.006-.136 0-.211 0-.009.067-.023.113-.021.158.038.52.08 1.039.115 1.56.01.158.09.254.237.309.393.14.787.281 1.178.425.116.042.224.096.342.148-.317.436-2.094 1.872-2.425 1.966-.08-.087-.082-.2-.092-.308-.03-.34-.054-.678-.082-1.018-.01-.117-.031-.233-.035-.352-.004-.121-.057-.192-.172-.228-.525-.162-1.051-.327-1.577-.49-.05-.014-.108-.01-.19-.016-.019.114-.038.22-.05.327-.055.455-.105.911-.164 1.366-.023.17.046.273.189.354.38.22.758.442 1.135.668.092.056.173.127.293.214-.111.086-.185.159-.27.209-.348.204-.698.41-1.054.6-.406.217-.818.417-1.23.622-.086.041-.179.07-.296.118 0-.135-.01-.241.002-.348.04-.352.086-.702.13-1.055a1.24 1.24 0 0 1 .015-.104c.048-.284-.059-.48-.319-.611-.404-.206-.797-.427-1.197-.642-.055-.03-.113-.05-.18-.081-.032.062-.065.114-.084.173-.17.492-.333.986-.505 1.478-.043.125-.01.208.084.292.302.269.599.544.894.817l.11.107.24.24c-.096.058-.165.114-.245.143-.446.159-.892.32-1.344.46-.358.113-.725.201-1.091.293-.084.02-.174.016-.293.025.027-.134.044-.234.071-.332.126-.433.25-.867.385-1.299.046-.146.021-.246-.102-.34-.44-.331-.873-.67-1.309-1.007-.033-.025-.071-.041-.123-.07-.036.052-.074.1-.103.152-.247.458-.488.921-.74 1.378-.064.119-.043.202.034.298.287.359.57.722.853 1.082.067.088.13.18.215.296-.113.036-.199.075-.29.088-.526.073-1.05.146-1.577.202-.346.036-.696.042-1.045.058-.103.005-.207 0-.35 0 .038-.095.059-.164.09-.229.189-.388.385-.771.57-1.16.211-.441.163-.364-.084-.675-.251-.315-.517-.619-.779-.928-.063-.073-.13-.141-.207-.225-.055.05-.103.088-.143.132-.324.381-.647.765-.973 1.144-.103.12-.128.226-.048.376.203.387.391.784.582 1.178.05.104.092.214.134.312-.071.113-.168.098-.256.094-.473-.025-.948-.048-1.42-.087-.41-.036-.816-.092-1.224-.148-.084-.01-.163-.057-.27-.094.069-.117.115-.21.176-.292.272-.36.544-.724.825-1.076.104-.13.127-.238.04-.39-.281-.446-.526-.907-.777-1.363-.023-.042-.053-.08-.086-.128-.044.023-.082.038-.113.06-.423.33-.842.666-1.267.991-.128.098-.157.2-.107.357.147.463.279.932.413 1.399.025.083.033.173.054.292-.121-.007-.22.004-.31-.02-.802-.187-1.595-.397-2.366-.69-.115-.043-.222-.101-.335-.154.032-.143.122-.214.201-.287l.934-.868c.233-.219.235-.22.136-.53-.136-.422-.278-.844-.418-1.265-.026-.077-.063-.152-.101-.242-.063.02-.12.027-.163.052-.455.244-.905.495-1.36.739-.158.085-.219.193-.188.387.072.453.114.91.166 1.366.035.32-.019.365-.308.238a20.6 20.6 0 0 1-2.23-1.145c-.123-.073-.23-.173-.37-.28.092-.074.155-.137.228-.183.373-.231.754-.45 1.122-.69.394-.254.352-.142.29-.625-.055-.413-.12-.824-.185-1.237-.013-.087-.04-.173-.063-.275-.077.014-.138.02-.195.037-.5.148-1 .303-1.503.447-.14.04-.201.108-.21.258-.03.534-.077 1.068-.119 1.601-.01.076-.025.146-.037.224-.48-.178-2.312-1.675-2.498-2.035.054-.096.161-.121.255-.155.36-.131.727-.248 1.085-.383.488-.186.41-.092.469-.611.042-.365.048-.734.067-1.103.006-.117 0-.234 0-.371-.094-.013-.168-.036-.239-.028-.492.048-.984.105-1.476.153-.178.016-.27.11-.314.28-.107.41-.222.816-.337 1.225-.038.131-.09.257-.147.413-.075-.058-.127-.09-.17-.131a22.27 22.27 0 0 1-1.842-2.158c-.044-.059-.075-.128-.127-.221.11-.03.192-.06.278-.073a188.42 188.42 0 0 1 1.556-.205c.033-.004.067-.012.125-.02.17-.63.346-1.262.46-1.908-.15-.098-.303-.088-.443-.103-.43-.05-.86-.079-1.292-.123-.155-.016-.243.04-.31.178-.211.43-.433.857-.653 1.282-.044.085-.103.163-.167.265-.063-.057-.116-.09-.151-.136a2.128 2.128 0 0 1-.201-.292c-.39-.713-.777-1.428-1.162-2.145-.055-.102-.086-.215-.126-.321.111-.088.216-.08.318-.071.417.037.834.075 1.25.12.26.028.291.026.42-.206.271-.492.535-.988.801-1.48-.153-.13-1.411-.565-1.874-.657-.43.438-.772.97-1.248 1.416-.054-.109-.104-.19-.14-.277a18.737 18.737 0 0 1-.783-2.525c-.048-.203-.04-.265.033-.426l1.87.588a35.58 35.58 0 0 0 1.204-1.53 30.157 30.157 0 0 0-1.685-1.022c-.061.046-.124.09-.18.136-.38.308-.754.619-1.135.923-.09.073-.172.163-.298.178-.175-.274-.416-2.913-.299-3.345.07.023.142.038.205.071.287.144.572.29.857.438.16.083.322.167.477.258.184.111.337.103.504-.047.36-.32.735-.62 1.104-.928.035-.032.065-.07.096-.102-.146-.217-1.137-1.13-1.463-1.347-.572.3-1.156.606-1.772.932-.018-.11-.044-.184-.04-.253.032-.61.057-1.222.105-1.83.032-.38.097-.757.149-1.137.01-.075.03-.148.044-.225.136.006.222.08.308.148.343.284.684.571 1.026.86.337.285.337.291.737.08.358-.187.71-.385 1.061-.583.078-.044.15-.098.222-.148-.063-.175-.932-1.36-1.183-1.612l-2.002.59c.005-.1-.002-.16.013-.217.228-.976.513-1.933.867-2.869.03-.08.086-.15.159-.277.08.102.134.175.19.244.312.383.63.76.936 1.15.116.149.235.193.415.136.471-.152.944-.292 1.417-.438.046-.014.086-.041.15-.07-.024-.067-.04-.134-.07-.194-.235-.488-.473-.976-.704-1.466-.052-.11-.127-.132-.234-.121l-1.543.13c-.08.005-.161 0-.272 0 .019-.105.023-.186.05-.26.056-.147.117-.298.195-.437.351-.638.71-1.276 1.07-1.91.075-.132.171-.248.257-.371.132.029.17.125.214.206.194.355.383.709.573 1.066.07.129.14.256.206.387.043.092.102.136.211.123.528-.058 1.055-.11 1.58-.168.053-.007.105-.032.175-.055-.026-.129-.044-.252-.076-.37-.117-.443-.249-.883-.358-1.329-.046-.188-.153-.259-.333-.275-.402-.04-.804-.086-1.206-.134-.163-.018-.326-.05-.527-.081.044-.1.062-.17.102-.23.126-.183.247-.37.39-.541.404-.488.814-.97 1.229-1.447.106-.123.24-.226.358-.334.13.056.142.163.17.25.117.371.228.745.343 1.116l.121.354c.036.115.115.167.228.184.208.029.415.064.622.085.36.033.72.056 1.095.086.009-.073.023-.121.019-.165-.04-.534-.082-1.066-.121-1.6-.013-.175-.105-.27-.273-.323-.427-.129-.85-.266-1.275-.406-.102-.034-.22-.05-.295-.18.046-.06.09-.129.147-.185A14.706 14.706 0 0 1 11.8 6.94c.073-.05.157-.086.264-.142.02.09.046.159.052.23.046.456.08.913.134 1.37.053.45-.012.356.398.493.423.142.852.261 1.28.388.07.021.146.03.238.048.123-.652.201-1.29.268-1.943-.088-.052-.17-.104-.253-.15-.384-.215-.769-.425-1.15-.64-.094-.054-.18-.125-.295-.207.082-.079.136-.15.205-.198.18-.12.36-.242.55-.34.593-.308 1.192-.608 1.789-.91.09-.047.182-.103.32-.08-.008.18-.01.352-.025.523-.031.367-.06.734-.109 1.1-.03.226.05.362.254.464.454.23.898.478 1.348.715.035.02.075.036.128.059.025-.06.054-.115.07-.171.154-.49.298-.984.463-1.47.063-.184.015-.298-.123-.415a59.81 59.81 0 0 1-1.013-.874c-.078-.067-.143-.146-.237-.242.088-.05.147-.093.214-.12a16.112 16.112 0 0 1 2.579-.778c.092-.02.19-.01.312-.017-.017.09-.025.156-.044.221l-.356 1.264c-.017.06-.027.123-.048.181-.046.13-.013.223.094.31.312.257.62.52.93.778.09.075.186.148.28.217.05.036.103.067.164.102.035-.037.069-.062.088-.098.26-.46.513-.923.774-1.382.099-.171.074-.304-.05-.452-.287-.34-.563-.69-.842-1.039-.065-.079-.121-.167-.2-.277.094-.031.16-.067.23-.077.366-.054.73-.115 1.097-.152.47-.048.944-.08 1.417-.111.138-.01.277-.002.457-.002-.038.1-.057.17-.088.233-.174.357-.35.711-.526 1.066-.033.069-.058.142-.098.206-.103.165-.082.3.048.45.32.368.626.747.938 1.122.04.048.086.09.136.144.046-.041.09-.075.126-.116.335-.392.665-.787 1.005-1.174.104-.121.121-.232.046-.376-.214-.406-.417-.817-.622-1.228-.042-.085-.073-.175-.124-.296.111-.016.197-.041.28-.037ZM20.22 42.044c.251-.003.3.047.26.287-.082.515-.174 1.028-.264 1.541-.03.171-.067.34-.107.509a.728.728 0 0 1-.063.175c-.046.08-.13.077-.205.063-.082-.017-.086-.088-.075-.15.027-.192.056-.384.092-.576.109-.58.222-1.16.335-1.739.006-.033.017-.067.027-.11Zm7.343-.01c.098-.01.15.037.184.206.082.394.16.788.234 1.182.055.285.1.573.151.859.006.041.013.081.017.123.008.073-.002.14-.09.162-.096.025-.184-.01-.224-.098a.344.344 0 0 1-.023-.079l-.383-1.976c-.009-.042-.009-.084-.01-.107-.003-.202.03-.262.144-.273Zm-10.553-.998c.074.034.105.086.078.167-.055.165-.103.332-.164.494-.175.474-.355.947-.535 1.42a1.86 1.86 0 0 1-.114.246c-.094.165-.146.17-.33.009.18-.497.358-.993.54-1.485.08-.215.167-.425.255-.638a1.04 1.04 0 0 1 .088-.165c.044-.068.11-.08.182-.048Zm14.037.025c.044.028.08.082.098.132.26.659.515 1.318.768 1.976l.01.031.005.03c.019.135-.038.18-.117.208-.086.032-.15.009-.19-.075-.03-.062-.061-.125-.087-.19-.228-.602-.454-1.207-.678-1.811-.02-.059-.052-.121-.048-.18a.22.22 0 0 1 .09-.143c.036-.021.109-.005.149.022ZM24.775 5.914c-.226.265-.442.51-.647.763-.036.042-.04.117-.042.175-.008.349-.01.695-.015 1.043-.01.917-.02 1.835-.035 2.752-.002.177-.017.357-.025.536l-.319.035v-.264c-.006-1.251-.018-2.502-.01-3.753.002-.297-.071-.54-.27-.757-.14-.153-.266-.315-.406-.482-.222.196-.377.41-.534.621a.518.518 0 0 0-.105.367l.189 2.348a.733.733 0 0 0 .094.273c.356.678.714 1.353 1.078 2.025a.656.656 0 0 1 .082.338c-.01.402-.01.806-.017 1.209-.002.137-.008.273-.015.436-.36.02-.703.04-1.061.058-.02-.138-.038-.254-.048-.371a427.68 427.68 0 0 1-.222-2.302c-.082-.892-.16-1.785-.241-2.677-.04-.442-.086-.884-.13-1.328a.516.516 0 0 0-.167-.349c-.134-.12-.266-.246-.402-.364-.05-.044-.113-.071-.185-.115-.067.092-.132.167-.18.248-.109.186-.21.377-.316.563a.387.387 0 0 0-.048.294c.335 1.718.664 3.436.99 5.156.078.403.143.807.212 1.212.025.152-.027.21-.178.191-.04-.004-.078-.025-.117-.037l-.024-.086-.71-3.596a549.42 549.42 0 0 0-.533-2.675c-.013-.065-.03-.146-.073-.188a22.965 22.965 0 0 0-.719-.636c-.018-.015-.05-.015-.096-.027-.094.146-.193.288-.28.436-.2.33-.197.331-.101.696.008.034.019.067.027.1l1.541 5.649c.042.154.076.31.113.465.015.064.013.13-.058.16-.233.094-.465.184-.7.273-.073.027-.121-.012-.152-.073a1.572 1.572 0 0 1-.082-.169c-.161-.385-.325-.767-.475-1.157a.765.765 0 0 1-.049-.32c.057-.77.12-1.54.187-2.307a.998.998 0 0 0-.034-.369l-.571-1.96c-.057-.192-.084-.415-.203-.559-.122-.144-.34-.21-.518-.304-.1-.054-.209-.094-.335-.148-.1.302-.186.58-.284.855a.39.39 0 0 0 .012.3c.161.392.319.786.476 1.18.34.86.682 1.718 1.017 2.58.086.218.038.283-.224.34-.031-.063-.069-.13-.098-.199-.1-.236-.201-.473-.3-.711l-1.166-2.834a.811.811 0 0 0-.157-.266c-.25-.24-.567-.361-.907-.513-.087.252-.16.481-.247.706a.367.367 0 0 0 .03.317c.383.757.762 1.516 1.147 2.271.046.09.117.173.195.238.458.385.91.78 1.386 1.142.333.255.571.55.697.953.094.305.232.594.343.895.061.16.055.191-.09.275-.24.14-.487.27-.737.392-.127.062-.157.046-.236-.081a4.2 4.2 0 0 1-.187-.326l-1.83-3.561-1.05-2.04c-.038-.07-.086-.16-.153-.189a2.6 2.6 0 0 0-.806-.202c-.042.292-.082.565-.124.838-.02.13.01.24.082.352.387.603.768 1.21 1.15 1.817l2.133 3.392c.062.1.119.204.171.31.038.076.04.149-.042.2-.087.057-.178.049-.24-.03-.057-.071-.105-.149-.155-.224l-3.103-4.827c-.35-.542-.35-.542-.974-.715-.117-.033-.238-.054-.383-.085-.044.267-.08.504-.121.742a.368.368 0 0 0 .07.294l.309.421 3.494 4.66c.1.134.19.273.295.421a2.27 2.27 0 0 1-.68.618c-.055-.05-.103-.09-.147-.134-.354-.365-.705-.732-1.061-1.094a.704.704 0 0 1-.172-.303l-.578-1.958a1.699 1.699 0 0 0-.306-.588c-.372-.477-.739-.959-1.115-1.434-.449-.567-.453-.565-1.183-.603-.065-.004-.132 0-.206 0 .028.313.067.597.072.88a.573.573 0 0 0 .184.42c.812.842 1.62 1.688 2.426 2.535.105.11.21.223.306.342.105.129.096.16-.056.283-.222-.094-.384-.273-.547-.44-.714-.723-1.421-1.453-2.131-2.18-.151-.155-.306-.303-.459-.455a94.4 94.4 0 0 0-.728-.073.375.375 0 0 0-.084 0c-.059.008-.12.023-.184.033 0 .22-.002.42 0 .62a.51.51 0 0 0 .188.402c.059.05.107.11.163.16.486.438.976.874 1.458 1.316.167.154.353.265.571.334.59.187 1.179.39 1.771.567.283.085.518.212.71.444.272.325.572.627.854.944.132.148.13.167.013.322a7.727 7.727 0 0 1-.333.402c-.249.28-.228.248-.475.04a514.75 514.75 0 0 1-2.852-2.423c-.661-.565-1.325-1.13-1.972-1.712-.37-.334-.764-.24-1.183-.15.004.054.002.087.008.12.061.257.128.514.187.77a.46.46 0 0 0 .21.294c1.243.872 2.484 1.747 3.724 2.625.444.315.881.636 1.319.957.056.042.136.073.138.17a.54.54 0 0 1-.505-.043 7.838 7.838 0 0 1-.603-.375c-1.319-.911-2.633-1.826-3.953-2.738-.175-.12-.35-.275-.548-.323-.201-.048-.43.013-.643.032-.102.01-.203.035-.316.058.008.087.008.156.02.223.034.171.078.338.11.509.027.156.11.25.249.33.953.55 1.903 1.108 2.85 1.667.25.148.498.309.743.47.063.041.113.106.203.191l-.43.077c-.041.19-.001.386-.117.576-.07-.067-.136-.117-.188-.18-.201-.24-.417-.469-.595-.727a2.612 2.612 0 0 0-.967-.83c-.567-.298-1.118-.628-1.68-.936-.1-.057-.223-.115-.33-.104a2.253 2.253 0 0 0-.77.248c.012.043.014.07.025.096.136.281.27.565.414.84.032.06.103.112.168.142.29.133.588.254.881.383.886.394 1.77.788 2.653 1.187.094.041.178.1.262.15-.061.237-.103.262-.306.194a3.734 3.734 0 0 1-.253-.098c-1.04-.438-2.08-.884-3.122-1.316-.549-.227-.369-.231-.992-.033-.137.043-.268.1-.421.158.127.265.245.5.351.74a.337.337 0 0 0 .224.194c.773.259 1.544.526 2.318.784.103.034.218.05.327.042.542-.044 1.084-.1 1.625-.146.136-.013.274-.002.43-.002v1.147c-.072-.009-.142-.009-.209-.023a5.068 5.068 0 0 1-.464-.121c-1.286-.417-2.576-.826-3.855-1.264-.318-.108-.582-.117-.856.08-.115.083-.25.141-.394.22.174.24.335.45.482.668a.735.735 0 0 0 .49.317c.628.13 1.252.277 1.878.415.904.2 1.81.396 2.717.596.243.054.279.146.147.381-.136-.025-.279-.05-.42-.079-1.515-.32-3.028-.64-4.542-.963a.362.362 0 0 0-.279.04c-.199.116-.402.223-.6.337-.065.038-.124.082-.208.138.164.215.318.41.465.613a.564.564 0 0 0 .44.235c.485.05.97.117 1.453.18.927.119 1.853.24 2.78.36l.961.13v1.122c-.314.002-.61 0-.885-.15-.618-.336-1.24-.668-1.862-1a.755.755 0 0 0-.251-.095c-.802-.102-1.606-.198-2.41-.292-.06-.006-.138-.013-.18.019-.25.183-.492.377-.758.586.24.218.463.408.67.613.145.141.3.187.503.19 1.227.01 2.456.033 3.682.053.101.003.204.013.306.021v.276c-.046.006-.08.014-.11.014-.468 0-.937 0-1.404-.002-.885-.004-1.773-.01-2.659-.012-.058 0-.134.008-.175.041-.26.207-.516.424-.79.653.157.144.308.265.442.404.19.196.419.259.685.238.73-.054 1.461-.1 2.192-.158a.852.852 0 0 0 .314-.1c.322-.167.636-.347.957-.515.326-.174.653-.345.984-.511.245-.123.508-.105.766-.088.044.29.031 1.036-.019 1.212-.05.008-.102.018-.159.022-.333.032-.666.065-1 .094-.939.082-1.877.16-2.815.24-.473.04-.946.073-1.42.11-.052.005-.123.009-.154.042-.214.217-.421.44-.603.707.073.054.132.102.197.142.207.13.42.248.624.381a.44.44 0 0 0 .355.059c1.56-.3 3.122-.599 4.684-.895.092-.016.186-.025.297-.04v.318c-.052.014-.098.033-.144.043-.95.184-1.903.365-2.854.55-.555.11-1.107.222-1.66.33-.344.067-.63.217-.823.52-.059.093-.136.175-.203.264-.036.048-.063.1-.103.167.258.163.494.32.742.463.052.031.134.031.196.017.157-.032.312-.078.465-.12 1.365-.372 2.728-.748 4.093-1.119.09-.025.185-.031.3-.048l.033 1.057c-.155 0-.284.01-.414-.002a52.812 52.812 0 0 1-1.623-.173c-.18-.023-.343 0-.513.05-.762.225-1.526.444-2.288.667-.063.02-.145.048-.174.098-.15.263-.287.534-.442.826.33.117.632.221.932.334.107.04.199.025.3-.017.338-.144.68-.286 1.023-.423.835-.334 1.67-.665 2.506-.997.071-.027.145-.05.218-.07.075-.022.142-.01.176.068.038.085-.002.148-.078.19-.048.027-.096.056-.146.079-.16.073-.316.146-.478.213-1.002.419-2.007.836-3.012 1.25a.614.614 0 0 0-.358.328c-.074.165-.166.321-.247.484-.03.06-.053.125-.088.204.08.044.142.086.211.113l.507.194c.11.045.203.04.314-.02.592-.31 1.183-.623 1.79-.906.377-.177.678-.415.921-.753.216-.298.465-.571.706-.853.05-.058.09-.146.207-.133.013.054.034.104.038.158.008.13.08.186.199.196.132.01.263.021.395.034.074.008.145.02.216.031l.013.044c-.05.041-.099.087-.155.125-.14.09-.283.181-.428.263-1.128.638-2.259 1.274-3.385 1.912-.163.091-.362.162-.465.3-.105.14-.11.352-.155.536-.025.112-.037.227-.056.354.119.023.213.046.31.06.186.026.374.038.56.07a.425.425 0 0 0 .35-.086 376.25 376.25 0 0 1 2.45-1.747c.729-.515 1.457-1.03 2.188-1.54.153-.105.318-.197.486-.283a.326.326 0 0 1 .372.027c-.056.055-.102.103-.157.144-.176.138-.351.276-.532.407a5251.083 5251.083 0 0 1-4.189 3.017c-.147.106-.297.208-.436.325a.465.465 0 0 0-.15.215c-.065.233-.111.473-.157.71-.028.139-.005.172.14.203.178.038.36.048.536.092.17.044.285-.017.41-.125.666-.574 1.334-1.14 2.008-1.704.974-.81 1.952-1.618 2.93-2.425.094-.079.198-.148.3-.223.24.17.39.384.514.618.02.04.006.11-.017.154a.922.922 0 0 1-.149.2c-.301.327-.607.653-.906.982a.678.678 0 0 1-.295.186c-.693.233-1.386.47-2.077.713a.985.985 0 0 0-.304.175c-.39.325-.775.659-1.16.992-.243.21-.481.421-.718.638-.054.05-.12.117-.128.182-.03.24-.046.483-.052.727-.004.153.04.184.193.171.215-.016.429-.045.644-.064a.689.689 0 0 0 .467-.238c.798-.855 1.608-1.7 2.414-2.546.1-.106.214-.2.325-.294.067-.056.146-.096.222-.016.073.077.044.154-.015.223a9.458 9.458 0 0 1-.306.344c-.818.873-1.637 1.747-2.46 2.618-.08.084-.144.167-.144.288-.002.236-.015.474-.013.71.002.16.036.193.203.191.16 0 .32-.017.48-.025a.498.498 0 0 0 .39-.206c.504-.639 1.017-1.272 1.528-1.906.081-.1.13-.21.16-.334.185-.713.367-1.426.558-2.137a.66.66 0 0 1 .14-.271c.35-.38.706-.75 1.062-1.124.042-.044.092-.081.15-.135.067.05.132.09.187.141.117.109.234.22.345.334.277.292.283.236.038.559a241.8 241.8 0 0 1-2.004 2.62c-.645.83-1.298 1.654-1.947 2.48-.046.058-.107.131-.103.194.021.283.061.563.099.865.094-.01.178-.008.255-.03.235-.066.465-.145.7-.21a.416.416 0 0 0 .25-.2c.432-.698.866-1.395 1.303-2.09a693.23 693.23 0 0 1 1.851-2.927c.086-.135.186-.26.285-.385.073-.092.165-.117.297-.046-.025.073-.042.146-.075.208a8.798 8.798 0 0 1-.273.47c-.74 1.2-1.484 2.401-2.225 3.605-.279.45-.555.898-.825 1.353-.052.085-.103.194-.096.287.018.263.06.524.108.782.026.14.065.16.206.134.163-.034.322-.086.485-.125a.542.542 0 0 0 .373-.305c.31-.607.63-1.21.946-1.812.603-1.15 1.206-2.304 1.814-3.452.09-.171.196-.336.295-.505.054-.094.134-.119.23-.073.15.07.304.14.448.223.228.13.228.136.14.375-.159.43-.322.86-.479 1.289a.638.638 0 0 1-.186.269c-.557.486-1.112.972-1.665 1.462a.856.856 0 0 0-.19.241c-.325.63-.643 1.264-.963 1.898-.082.16-.21.32-.218.488-.01.175.094.356.153.533.044.13.096.255.15.397.08-.034.139-.055.193-.082.184-.098.364-.206.553-.298a.611.611 0 0 0 .318-.36c.459-1.21.923-2.415 1.386-3.62.031-.084.067-.165.1-.242.26.019.304.075.23.296-.1.296-.204.59-.313.884L17.62 39.9c-.032.084-.072.16-.034.259.09.248.168.5.256.75.02.06.058.117.098.19.239-.125.454-.24.672-.348a.418.418 0 0 0 .224-.282l.685-2.404a.685.685 0 0 0 .019-.244c-.097-.78-.2-1.557-.296-2.335a.42.42 0 0 1 .028-.202c.159-.409.32-.815.485-1.22.038-.094.095-.181.145-.277.32.056.609.16.89.28.205.085.211.11.16.333a2.1 2.1 0 0 1-.033.142c-.374 1.28-.743 2.56-1.124 3.838-.22.738-.456 1.472-.683 2.21-.02.07-.05.16-.023.217.134.273.287.536.436.81.054-.03.09-.04.115-.061.235-.188.47-.372.695-.57a.415.415 0 0 0 .109-.212c.103-.482.197-.966.291-1.45l.934-4.785c.012-.066.035-.13.056-.21.107.023.2.042.302.062-.004.06-.002.109-.01.155a1134.257 1134.257 0 0 1-1.21 6.26.373.373 0 0 0 .026.26c.13.237.256.477.388.715.03.052.071.096.117.156.212-.158.406-.304.603-.448a.326.326 0 0 0 .138-.244c.153-1.232.31-2.46.459-3.686.092-.751.176-1.504.266-2.256.023-.2.054-.399.086-.599.012-.075.03-.156.131-.162.273-.015.54.004.83.066v.3c0 .418-.005.835.002 1.252a.711.711 0 0 1-.09.356c-.337.64-.67 1.282-1.001 1.925a.792.792 0 0 0-.09.252c-.099.848-.193 1.697-.283 2.548a.33.33 0 0 0 .059.21c.146.203.305.397.462.593.03.035.072.06.132.108.22-.254.436-.498.645-.749.032-.037.036-.104.036-.156.008-.327.014-.653.019-.98.01-.896.016-1.793.027-2.69.002-.22.017-.44.027-.667.109-.01.195-.02.304-.031v.267c.01 1.203.014 2.404.033 3.607.009.648-.035.504.383 1.03.09.112.189.217.285.325.046-.033.073-.046.092-.064.076-.082.155-.161.224-.249.394-.496.34-.369.302-.96-.04-.666-.1-1.331-.161-1.994a.916.916 0 0 0-.097-.334l-1.072-2.005a.631.631 0 0 1-.077-.274c-.007-.494 0-.986.004-1.48 0-.046.01-.092.019-.167.257-.012.506-.033.754-.037.194-.005.211.014.236.208.06.482.117.966.176 1.447.107.882.211 1.766.318 2.648.078.649.178 1.295.22 1.946.03.44.218.744.584.963.099.058.19.13.304.206.148-.277.276-.531.416-.778a.494.494 0 0 0 .053-.36c-.352-1.779-.704-3.557-1.051-5.336-.061-.306-.113-.615-.17-.921-.014-.082-.012-.153.073-.194.124-.06.21-.023.241.125.103.469.2.936.295 1.407.296 1.456.58 2.915.888 4.368.157.738.036.563.662 1.095.113.096.234.188.364.292.132-.25.25-.48.375-.703a.36.36 0 0 0 .023-.317c-.103-.302-.195-.609-.287-.913-.515-1.701-1.03-3.403-1.543-5.106-.042-.138-.07-.282-.105-.436.381-.206.756-.384 1.187-.375.017.023.034.037.042.056.18.467.36.934.536 1.401.02.05.025.109.02.163-.013.137-.036.275-.053.413-.078.648-.155 1.297-.23 1.945a.647.647 0 0 0 .012.246c.239.828.484 1.653.727 2.48.023.078.06.133.134.172.215.115.427.238.64.353.04.02.088.029.147.047.09-.268.174-.527.264-.781a.557.557 0 0 0-.015-.403 455.49 455.49 0 0 1-1.13-2.938 24.158 24.158 0 0 1-.3-.821c-.054-.159-.015-.217.15-.242.04-.006.082.004.13.008.03.073.061.144.088.215.417 1.053.83 2.108 1.253 3.159.286.715.389.811 1.09 1.111.048.021.1.032.17.054.077-.246.144-.48.222-.706a.387.387 0 0 0-.027-.336l-1.167-2.262a.975.975 0 0 0-.203-.259c-.54-.481-1.088-.957-1.63-1.436a.606.606 0 0 1-.179-.224 44.598 44.598 0 0 1-.502-1.37c-.057-.162-.032-.23.113-.314a3.9 3.9 0 0 1 .49-.234c.14-.056.178-.041.262.088.098.152.19.308.274.467.724 1.363 1.445 2.727 2.169 4.09.211.399.425.8.639 1.197.05.092.1.186.211.22.214.06.427.127.645.177.13.03.157.008.182-.128.038-.204.05-.414.098-.617.042-.179-.014-.319-.106-.465a898.924 898.924 0 0 1-2.402-3.815c-.285-.455-.555-.916-.831-1.376a1.577 1.577 0 0 1-.138-.28c-.015-.044-.002-.12.027-.146.033-.027.109-.029.155-.014.048.016.09.064.123.106.078.098.153.2.22.304.381.59.765 1.18 1.14 1.773a659.194 659.194 0 0 1 2.06 3.265c.08.127.173.204.32.24.203.048.402.114.605.166.084.021.172.025.276.04.03-.275.053-.523.084-.77.015-.112-.023-.197-.094-.283a26.472 26.472 0 0 1-.524-.653c-1.118-1.426-2.23-2.854-3.341-4.282-.094-.121-.176-.25-.268-.373-.065-.088-.06-.163.02-.238.17-.156.334-.315.505-.47.044-.039.103-.064.157-.1.049.036.092.06.126.095.383.394.768.788 1.141 1.19.071.077.115.19.145.294.194.682.379 1.366.573 2.045.036.124.092.253.172.353.481.605.973 1.199 1.457 1.801.163.203.354.32.62.315.17-.004.341.038.534.01-.03-.28-.065-.548-.082-.817a.72.72 0 0 0-.213-.458 554.169 554.169 0 0 1-2.14-2.29 12.203 12.203 0 0 1-.509-.582c-.13-.156-.115-.204.086-.314.058.052.123.104.18.162.622.638 1.24 1.28 1.863 1.918.298.305.6.603.9.901a.553.553 0 0 0 .344.184c.117.01.237.031.354.035.163.006.329.002.51.002-.014-.225-.041-.425-.04-.625a.55.55 0 0 0-.215-.45c-.576-.495-1.15-.991-1.725-1.487a1.647 1.647 0 0 0-.544-.305 260.09 260.09 0 0 1-1.937-.667.61.61 0 0 1-.228-.133 100.02 100.02 0 0 1-1.112-1.193c-.046-.05-.084-.106-.128-.165a3.83 3.83 0 0 1 .58-.696c.161.125.318.238.467.36 1.573 1.302 3.15 2.6 4.713 3.91.22.186.427.286.712.206.16-.043.325-.06.49-.09 0-.066.008-.108-.002-.145-.057-.23-.107-.46-.18-.684a.614.614 0 0 0-.176-.25 7.265 7.265 0 0 0-.509-.4l-3.291-2.37c-.44-.316-.877-.64-1.315-.965-.063-.045-.142-.083-.163-.183a.511.511 0 0 1 .467.019c.13.069.255.144.374.227.597.413 1.192.826 1.784 1.243.963.68 1.922 1.361 2.883 2.04.065.047.149.099.222.095.279-.017.555-.048.831-.086.126-.016.155-.06.132-.187-.027-.15-.077-.296-.109-.444a.68.68 0 0 0-.37-.474 98.66 98.66 0 0 1-1.824-1.021c-.697-.397-1.39-.799-2.083-1.201-.08-.046-.15-.11-.224-.17a.56.56 0 0 1 .249-.083c.168-.016.333-.027.5-.04.088-.006.162-.035.193-.13.008-.028.038-.05.073-.092.097.095.185.173.26.26.226.265.448.532.666.805.083.106.18.188.301.25.69.35 1.376.71 2.063 1.064.366.19.366.19.753.045.147-.054.29-.12.455-.19-.14-.272-.27-.516-.392-.767a.484.484 0 0 0-.264-.25c-.266-.106-.527-.22-.791-.33-.915-.375-1.832-.748-2.747-1.125-.094-.038-.18-.094-.264-.136.055-.298.084-.319.325-.227.441.169.885.34 1.325.515.783.313 1.566.628 2.345.947a.394.394 0 0 0 .318.008c.168-.067.341-.119.513-.18.103-.035.205-.072.333-.118l-.343-.692a.43.43 0 0 0-.296-.24c-.81-.232-1.618-.473-2.428-.707a.57.57 0 0 0-.205-.023c-.39.04-.777.088-1.165.127-.268.027-.536.046-.822.07-.007-.357-.021-.685.023-1.035.109.019.19.027.27.048.735.192 1.47.386 2.202.582.733.198 1.466.402 2.199.598.069.019.163.038.217.006.254-.14.499-.298.769-.46-.172-.215-.327-.403-.471-.597a.732.732 0 0 0-.463-.29c-.881-.173-1.763-.356-2.644-.531-.628-.125-1.259-.244-1.889-.371-.228-.046-.255-.107-.174-.35.097.005.201.005.302.022.708.127 1.413.257 2.119.388.823.154 1.643.313 2.466.463a.373.373 0 0 0 .239-.03c.243-.135.477-.287.712-.435.044-.027.077-.071.136-.125l-.467-.576a.43.43 0 0 0-.325-.16c-.626-.05-1.252-.107-1.876-.157-.946-.077-1.89-.148-2.837-.225-.159-.012-.316-.033-.494-.052v-1.255c.243-.03.465.012.674.12.637.334 1.271.666 1.906 1.006a.946.946 0 0 0 .395.11c.32.015.641.044.961.067.432.031.863.067 1.294.092.084.004.195-.004.254-.054.23-.188.446-.392.682-.605-.245-.2-.475-.377-.695-.57a.57.57 0 0 0-.416-.143c-1.27.023-2.54.035-3.809.05h-.232v-.307c.108-.008.211-.02.314-.023.655-.014 1.31-.027 1.968-.037.613-.008 1.229-.013 1.842-.023.08-.002.18-.008.237-.054.266-.223.521-.461.798-.71-.134-.116-.252-.222-.373-.322-.398-.326-.4-.326-.91-.267-.68.079-1.358.158-2.036.248-.121.017-.245.06-.352.119-.515.277-1.024.567-1.539.846a5.64 5.64 0 0 1-.51.24.737.737 0 0 1-.45.052v-1.103c.05-.014.081-.029.115-.033.8-.115 1.6-.23 2.401-.338.877-.119 1.757-.227 2.634-.34.107-.014.205-.048.27-.14.13-.18.26-.362.383-.546.034-.048.046-.11.071-.177-.029-.019-.046-.031-.065-.042-.268-.146-.536-.298-.81-.435a.328.328 0 0 0-.2-.01c-1.226.26-2.45.529-3.677.793-.367.08-.735.155-1.125.236v-.344c.046-.015.086-.03.126-.037 1.403-.307 2.805-.611 4.208-.916.185-.04.394-.044.543-.14.154-.1.255-.287.374-.442.11-.141.212-.29.327-.448-.084-.054-.145-.1-.212-.135-.159-.086-.326-.16-.479-.255-.132-.081-.247-.073-.392-.025-1.407.474-2.816.939-4.225 1.403-.075.026-.155.04-.266.07-.014-.389-.037-.743 0-1.102.195 0 .369-.01.54.002.468.034.932.08 1.4.111a.856.856 0 0 0 .324-.044c.647-.219 1.292-.444 1.936-.67.164-.055.363-.082.478-.193.123-.117.172-.313.243-.477.048-.113.081-.23.132-.37-.208-.077-.394-.135-.57-.212-.255-.11-.488-.086-.743.025-.932.41-1.87.805-2.806 1.203-.243.104-.49.2-.739.292-.042.014-.132 0-.14-.023-.019-.05-.019-.13.01-.169a.51.51 0 0 1 .183-.133c.274-.136.55-.272.829-.397.896-.4 1.796-.796 2.694-1.196.067-.03.155-.065.184-.123.137-.259.262-.522.377-.79.059-.14.028-.199-.125-.253-.19-.069-.386-.119-.578-.181-.113-.038-.21-.017-.314.046-.679.398-1.361.792-2.046 1.182-.13.075-.236.164-.33.281a35.17 35.17 0 0 1-.717.872c-.054.062-.13.108-.205.169-.027-.055-.048-.078-.05-.103-.021-.19-.15-.231-.31-.24a2.457 2.457 0 0 1-.25-.022c-.041-.007-.08-.032-.133-.052.092-.14.224-.192.341-.261l2.751-1.63c.264-.157.524-.322.785-.48a.434.434 0 0 0 .214-.294c.038-.184.084-.365.115-.55.027-.153-.002-.188-.155-.209-.228-.031-.458-.046-.686-.077a.487.487 0 0 0-.367.102 309.12 309.12 0 0 1-3.124 2.204c-.519.363-1.047.717-1.572 1.07a1.79 1.79 0 0 1-.333.17.372.372 0 0 1-.368-.05c.104-.08.184-.148.268-.208.644-.465 1.287-.932 1.936-1.389 1.007-.71 2.02-1.415 3.028-2.126.069-.05.15-.12.174-.194.083-.28.15-.563.213-.849.034-.15.004-.181-.155-.2-.18-.02-.362-.027-.54-.056a.394.394 0 0 0-.358.112c-.43.388-.863.77-1.3 1.15a1550.359 1550.359 0 0 1-3.614 3.106c-.088.075-.184.142-.287.219a4.46 4.46 0 0 1-.662-.768l.138-.184c.022-.028.043-.055.066-.08.305-.344.615-.682.919-1.028a.607.607 0 0 1 .295-.182c.69-.217 1.382-.436 2.073-.659a.723.723 0 0 0 .26-.129 164.77 164.77 0 0 0 1.917-1.71.474.474 0 0 0 .155-.283c.023-.246.006-.496.006-.742-.192 0-.4-.005-.607.002a.891.891 0 0 0-.63.287c-.052.055-.11.105-.165.16-.534.55-1.066 1.1-1.602 1.648-.32.33-.645.655-.972.978-.104.104-.142.098-.23.025-.088-.075-.058-.146.002-.215.2-.223.396-.45.601-.667.72-.765 1.445-1.528 2.165-2.293.057-.059.132-.13.136-.2.027-.305.038-.61.04-.914 0-.14-.042-.167-.189-.154-.186.014-.372.058-.56.067-.166.008-.264.09-.357.212-.481.64-.969 1.274-1.457 1.908a1.107 1.107 0 0 0-.186.367c-.193.682-.394 1.361-.586 2.041a.811.811 0 0 1-.203.357c-.33.34-.654.684-.982 1.026-.053.054-.114.1-.17.152-.05-.023-.092-.031-.124-.056-.115-.09-.232-.18-.337-.28-.268-.263-.266-.215-.056-.504a193.45 193.45 0 0 1 1.803-2.459c.695-.932 1.398-1.855 2.097-2.783.059-.077.122-.148.097-.26-.042-.19-.067-.385-.107-.574-.015-.08-.046-.155-.073-.24-.097.015-.174.02-.247.042-.195.052-.388.114-.585.162a.41.41 0 0 0-.27.207c-.523.836-1.05 1.672-1.582 2.504-.56.873-1.125 1.74-1.69 2.61a2.775 2.775 0 0 1-.256.33c-.046.052-.11.096-.184.041-.071-.052-.056-.123-.02-.187.087-.165.175-.332.274-.492a1525.965 1525.965 0 0 1 3.144-5.025.479.479 0 0 0 .088-.353c-.044-.246-.077-.494-.117-.74-.008-.044-.03-.087-.048-.146-.092.015-.176.021-.253.042-.162.042-.32.1-.482.138-.121.027-.188.091-.24.202-.27.563-.543 1.128-.824 1.687a563.438 563.438 0 0 1-1.88 3.724c-.098.191-.211.375-.318.562-.046.084-.109.126-.205.088a5.518 5.518 0 0 1-.88-.444c.026-.083.042-.15.067-.215.174-.446.352-.892.524-1.338a.607.607 0 0 1 .195-.263c.58-.48 1.16-.96 1.733-1.445a.756.756 0 0 0 .19-.24c.325-.638.641-1.28.96-1.922.07-.142.18-.288.186-.434.006-.156-.086-.317-.145-.473-.052-.142-.115-.28-.178-.432-.087.038-.152.06-.213.092-.186.096-.369.198-.557.288a.406.406 0 0 0-.216.235c-.14.363-.284.724-.433 1.084a482.84 482.84 0 0 1-1.003 2.45 1.579 1.579 0 0 1-.155.294.176.176 0 0 1-.134.065c-.071-.008-.094-.075-.084-.144a.8.8 0 0 1 .026-.123c.037-.125.073-.254.12-.377.397-1.01.78-2.023 1.203-3.021.155-.365.192-.693.027-1.051-.073-.167-.121-.349-.195-.557-.22.119-.4.223-.586.317a.709.709 0 0 0-.383.49c-.18.686-.367 1.368-.56 2.05a2.176 2.176 0 0 0-.062.804c.052.553.09 1.107.155 1.66.036.313.013.605-.134.886l-.058.126-.1.26c-.09.219-.177.438-.275.652-.07.148-.126.173-.285.134-.115-.03-.226-.069-.34-.106-.328-.111-.334-.113-.244-.455.276-1.061.55-2.125.835-3.184.272-1.013.555-2.022.83-3.034.02-.075.033-.175 0-.237a6.029 6.029 0 0 0-.361-.586c-.096-.142-.149-.15-.293-.046l-.511.398a.464.464 0 0 0-.184.31c-.335 1.754-.674 3.506-1.011 5.26-.074.38-.151.762-.229 1.154h-.287c.009-.114.009-.21.026-.306.17-.936.337-1.872.513-2.807l.63-3.336c.014-.079.025-.175-.007-.244a5.81 5.81 0 0 0-.55-.948c-.228.137-.406.313-.584.488a.591.591 0 0 0-.185.425c-.023.465-.06.93-.1 1.393-.078.9-.157 1.8-.239 2.698-.058.644-.12 1.286-.18 1.93-.017.178-.044.355-.067.557-.393-.023-.772.013-1.162-.041v-.236c0-.452.004-.903-.002-1.355a.738.738 0 0 1 .086-.359c.347-.673.695-1.347 1.038-2.022a.989.989 0 0 0 .107-.334c.09-.815.172-1.63.258-2.446a.268.268 0 0 0-.063-.21c-.138-.173-.272-.353-.41-.528-.047-.058-.103-.106-.172-.175Zm-10.892 33.59c-.019.046-.04.119-.075.186-.121.218-.243.437-.373.65-.245.396-.494.788-.745 1.182-.044.07-.08.155-.189.136-.125-.021-.184-.125-.138-.246a.767.767 0 0 1 .065-.132c.356-.57.714-1.144 1.074-1.713a.743.743 0 0 1 .178-.2c.099-.072.201-.009.203.137Zm20.286-.221c.023.012.065.027.093.054a.98.98 0 0 1 .134.159c.353.563.703 1.13 1.053 1.695.02.035.04.073.056.11.038.077.034.146-.044.2-.081.057-.18.057-.247-.008a.503.503 0 0 1-.075-.1 368.41 368.41 0 0 1-1.04-1.703.709.709 0 0 1-.087-.211.17.17 0 0 1 .157-.196Zm-9.264-.707v2.64l-.31-.03c-.05-.877-.04-1.738-.046-2.61h.356Zm-1.608.002c-.002.865.004 1.729-.02 2.609l-.282.027c-.048-.155-.063-2.283-.02-2.636h.322Zm-1.388-.173c.11.002.152.04.134.154-.042.261-.09.52-.139.778l-.289 1.533c-.008.05-.025.093-.046.16l-.312-.04c.04-.237.072-.46.113-.683.107-.565.216-1.13.327-1.695.031-.159.088-.209.212-.207Zm4.227.084c.04.079.073.164.09.252.1.473.197.949.293 1.424.04.196.071.396.103.592.012.071.016.138.023.213-.05.016-.072.027-.09.029-.218.044-.237.035-.279-.181-.136-.693-.268-1.387-.4-2.081-.01-.055-.027-.113-.017-.165.01-.054.038-.125.08-.148.071-.04.157-.015.197.065Zm-5.961-.422c.257.002.304.052.26.299-.111.62-.229 1.24-.344 1.861-.03.157-.065.311-.098.482-.099-.008-.187-.017-.293-.025 0-.075-.01-.138.002-.196.146-.778.295-1.553.444-2.329.004-.033.018-.065.029-.092Zm7.441.007c.115-.013.142.062.16.15.064.298.131.594.19.894.083.436.165.872.236 1.308.04.248-.006.285-.287.256-.027-.106-.06-.217-.081-.332a176.26 176.26 0 0 1-.331-1.776 1.712 1.712 0 0 1-.025-.31c-.002-.136.035-.18.138-.19Zm-8.561-.372c.09.02.14.092.134.196-.013.048-.023.111-.046.17-.247.654-.496 1.309-.746 1.963-.016.046-.041.088-.065.132-.04.075-.1.087-.175.056-.078-.031-.107-.085-.084-.165a1.69 1.69 0 0 1 .042-.14c.243-.656.485-1.313.73-1.97a1.5 1.5 0 0 1 .057-.133c.031-.063.06-.13.153-.109Zm9.868.057c.04.046.075.102.098.158.26.65.52 1.303.775 1.956.023.056.031.119.046.18.002.083-.036.137-.118.15-.073.012-.155.037-.203-.053a1.225 1.225 0 0 1-.06-.131c-.245-.642-.488-1.287-.731-1.929-.025-.064-.042-.131-.06-.2-.018-.064-.011-.123.062-.158.071-.034.138-.034.19.027Zm-11.187-.572c-.025.092-.038.174-.067.25a525.97 525.97 0 0 1-.718 1.931 1.286 1.286 0 0 1-.09.188c-.049.083-.128.077-.203.046-.067-.027-.093-.081-.074-.152.013-.046.023-.094.04-.14.228-.62.456-1.236.689-1.854.027-.07.063-.14.102-.204.086-.133.116-.137.32-.065Zm12.73.009c.018.037.041.073.056.11.258.643.513 1.287.766 1.931.028.069.04.144.049.177.008.138-.05.18-.132.2-.074.017-.138.013-.174-.068-.027-.065-.06-.125-.086-.19-.243-.62-.484-1.239-.724-1.858a.974.974 0 0 1-.059-.198c-.015-.1.05-.154.134-.183.077-.028.134.006.17.079Zm-19.418-.034c.063.036.061.105.023.165a1.215 1.215 0 0 1-.121.17c-.459.485-.917.969-1.378 1.45-.056.059-.127.102-.178.14-.104.002-.175-.098-.138-.18.042-.093.097-.185.163-.262.319-.359.641-.713.966-1.068.102-.112.215-.216.326-.32a.508.508 0 0 1 .17-.12.227.227 0 0 1 .167.025Zm26-.075a.898.898 0 0 1 .126.11c.437.478.875.956 1.308 1.435.055.059.09.134.122.182.004.142-.1.21-.197.15a1.102 1.102 0 0 1-.21-.171c-.422-.452-.841-.91-1.26-1.366a.774.774 0 0 1-.11-.15c-.045-.08-.011-.146.052-.202.06-.054.117-.027.17.012Zm-20.47-.567c.03.015.046.098.036.144a.663.663 0 0 1-.088.21c-.352.574-.708 1.145-1.064 1.715a.691.691 0 0 1-.136.156c-.032.03-.08.044-.149.081-.033-.054-.086-.102-.084-.146a.499.499 0 0 1 .07-.214c.364-.599.732-1.193 1.103-1.787a.426.426 0 0 1 .144-.148c.047-.025.122-.034.168-.01Zm14.855-.031c.027.017.073.035.105.069.075.081.152.165.211.256.346.553.689 1.107 1.028 1.664.034.054.063.134.048.19-.035.135-.197.16-.287.048a3.101 3.101 0 0 1-.217-.305c-.319-.504-.637-1.01-.95-1.518a1.099 1.099 0 0 1-.103-.204c-.034-.09.052-.202.165-.2Zm-16.241-.842c.065.046.059.106.031.166-.035.084-.065.17-.113.246-.345.57-.695 1.135-1.042 1.702a.189.189 0 0 1-.023.033c-.14.19-.191.192-.39-.002.036-.069.063-.131.099-.19.345-.56.693-1.12 1.042-1.676.059-.094.132-.177.207-.259.05-.056.12-.07.189-.02Zm17.648-.084c.065.082.132.152.184.234.36.569.718 1.14 1.074 1.712a.83.83 0 0 1 .08.168c.03.084-.002.149-.08.192-.073.04-.134.025-.186-.037-.036-.044-.071-.086-.1-.134-.373-.577-.744-1.157-1.114-1.737a.314.314 0 0 1-.021-.035c-.116-.206-.097-.254.163-.363Zm-18.542-.534c-.015.03-.034.082-.067.123-.096.12-.193.238-.297.349-.352.375-.706.75-1.064 1.121a1.73 1.73 0 0 1-.222.188c-.07.05-.15.096-.226.02-.071-.07-.013-.14.025-.205a.887.887 0 0 1 .111-.153c.459-.494.92-.988 1.38-1.48a.517.517 0 0 1 .146-.115c.09-.046.205.025.214.152Zm19.486-.158a.354.354 0 0 1 .153.102c.498.521.997 1.045 1.49 1.57.049.05.076.115.1.15-.003.12-.112.194-.196.155a.598.598 0 0 1-.167-.123 229.02 229.02 0 0 1-1.365-1.43 1.135 1.135 0 0 1-.172-.26c-.019-.033-.015-.108.009-.129a.19.19 0 0 1 .148-.035Zm-25.024-.39c-.008.017-.021.05-.042.075a.882.882 0 0 1-.123.11c-.52.374-1.037.747-1.558 1.118a1.25 1.25 0 0 1-.277.146c-.113.044-.196-.031-.163-.148a.39.39 0 0 1 .099-.154c.08-.077.167-.146.257-.21.465-.332.93-.66 1.395-.987.056-.04.115-.08.175-.11.111-.055.235.025.237.16Zm30.623-.198c.559.39 1.114.784 1.668 1.178.057.04.111.092.143.15.025.048.03.125.006.173-.015.032-.096.048-.144.04a.541.541 0 0 1-.193-.073c-.595-.36-1.158-.77-1.7-1.205-.021-.017-.038-.042-.07-.077.026-.053.04-.1.068-.14.071-.104.115-.119.222-.046Zm-4.46-.617c.059.05.115.092.161.14.476.506.947 1.015 1.42 1.524.033.035.063.075.092.114.113.153.109.171-.075.305-.08-.065-.176-.123-.25-.202-.458-.484-.912-.972-1.367-1.46-.029-.031-.052-.065-.077-.098-.109-.15-.1-.188.096-.323Zm-21.848.117c.063.033.071.1.036.162a.582.582 0 0 1-.084.12c-.473.506-.948 1.012-1.424 1.517a.8.8 0 0 1-.146.117c-.025.019-.061.027-.078.035-.094-.006-.163-.108-.132-.185a.634.634 0 0 1 .113-.173c.448-.482.899-.964 1.353-1.443a.818.818 0 0 1 .216-.16c.037-.022.106-.013.146.01Zm22.717-1.032c.036.022.071.041.107.066l1.669 1.151.05.038c.21.164.211.233-.009.435-.075-.041-.146-.072-.207-.116-.553-.399-1.105-.799-1.658-1.201a.756.756 0 0 1-.149-.146c-.054-.069-.05-.14.01-.207.057-.062.118-.064.187-.02Zm-23.412.229-.193.133c-.544.386-1.086.774-1.63 1.158-.078.054-.17.095-.262.127-.113.037-.178-.023-.155-.14a.3.3 0 0 1 .065-.125.479.479 0 0 1 .109-.096c.567-.4 1.134-.803 1.706-1.195.182-.131.216-.114.36.138Zm15.623-3.076c1.158.003 2.316.023 3.474.038.082 0 .161.01.24.015l.026.052c-.063.09-.12.185-.187.27-1.593 2.02-3.649 3.266-6.21 3.63-2.108.301-4.13.013-6.019-1.008a9.824 9.824 0 0 1-3.053-2.592c-.075-.096-.138-.2-.236-.342.121-.013.192-.023.266-.025l1.576-.028c.262-.003.525-.005.787-.005 3.112-.005 6.223-.007 9.336-.005Zm-16.75 1.464c.193.154.206.202.028.338-.58.44-1.168.871-1.755 1.305a.317.317 0 0 1-.17.069.253.253 0 0 1-.156-.075c-.05-.052-.03-.117.02-.167.045-.044.089-.09.139-.127.603-.434 1.208-.865 1.81-1.297.022-.017.049-.027.085-.046Zm25.364-.037c.056.03.12.06.174.1.555.381 1.11.765 1.664 1.149.04.027.08.058.115.09.143.124.143.229-.012.4-.06-.034-.13-.063-.189-.105l-1.733-1.194a.23.23 0 0 0-.034-.025c-.197-.161-.194-.221.015-.415Zm-29.718-.198c.073.062.08.129.006.191a.78.78 0 0 1-.195.121c-.628.26-1.258.517-1.888.776a.5.5 0 0 1-.08.023c-.121.027-.167-.006-.17-.167.02-.025.05-.09.099-.125.065-.05.144-.083.22-.117l1.715-.709c.098-.04.196-.075.293.007Zm34.274-.088c.203.07.406.146.605.227.48.194.955.392 1.445.594 0 .078.006.128-.002.174-.021.13-.09.173-.22.127a12.47 12.47 0 0 1-.587-.221c-.443-.182-.887-.367-1.329-.555-.13-.054-.147-.1-.121-.223.025-.123.085-.165.209-.123Zm-30.53-.68c.16.186.16.286-.026.361-.714.29-1.434.57-2.152.85-.032.013-.065.013-.097.02-.081-.197-.07-.242.082-.332.084-.048.172-.092.262-.13a246.7 246.7 0 0 1 1.719-.698c.071-.027.144-.048.211-.07Zm26.786.04c.522.194 1.039.4 1.556.605.155.06.308.129.456.204.05.025.105.08.12.13.042.151-.076.256-.226.2a44.628 44.628 0 0 1-.878-.336c-.374-.148-.747-.303-1.122-.455-.073-.031-.146-.07-.228-.108.033-.282.086-.328.322-.24Zm-27.392-1.591c.163.198.155.275-.012.375l-.02.01c-.699.328-1.415.616-2.15.862-.025.008-.054.004-.077.006-.098-.175-.088-.231.065-.323a.792.792 0 0 1 .11-.056l2.084-.874Zm27.916.042c.431.158.86.32 1.285.49.279.11.553.229.825.352.13.06.151.184.053.286-.036.033-.093.048-.122.064-.08-.027-.132-.041-.184-.062l-1.838-.738a1.655 1.655 0 0 1-.151-.07c-.117-.064-.134-.118-.084-.235.046-.104.094-.131.216-.087Zm-8.82-10.58h1.092l.692.001c2.48.003 4.298.01 4.644.02l.057.002c.02.076.032 2.848.034 5.638v2.206c-.002 1.905-.01 3.435-.025 3.547h-23.24c-.02-.076-.034-2.648-.038-5.328l-.001-.643v-1.884c.002-1.903.01-3.427.024-3.523.069-.019 5.026-.031 10.345-.035l1.232-.001h5.184Zm-5.118.893c-.396-.005-.73.162-1.037.394-.422.32-.74.736-.988 1.199-.827 1.55-1.028 3.183-.599 4.887.18.713.471 1.38.882 1.991.312.46.708.82 1.231 1.03a1.63 1.63 0 0 0 1.166.03c.268-.09.505-.234.723-.414.1-.08.209-.152.335-.241l.498.633c.017-.152.031-.248.035-.341.009-.194.015-.388.017-.584 0-.513 0-1.028-.006-1.541 0-.092.015-.2-.105-.252-.107.048-.107.156-.136.244-.107.329-.197.665-.312.992a2.54 2.54 0 0 1-.46.836c-.258.298-.576.478-.982.475H23.9a.742.742 0 0 1-.499-.185c-.333-.28-.584-.613-.693-1.04a5.998 5.998 0 0 1-.173-1.445c-.009-1.176-.015-2.35-.015-3.524 0-.417.01-.834.105-1.243.096-.417.226-.817.485-1.165.153-.205.335-.376.593-.438.48-.117.927-.05 1.325.258a2 2 0 0 1 .478.549c.188.312.307.652.387 1.007.038.169.084.338.132.502.01.038.048.07.081.113.122-.296.118-2.27 0-2.544-.209.113-.28.359-.498.505-.102-.08-.2-.155-.297-.234a2.054 2.054 0 0 0-1.296-.454Zm5.665.14c-.565 0-1.13.003-1.695.012-.116.002-.235-.009-.352.054.01.033.01.07.027.081.224.153.498.073.762.146l.03.113 1.46 5.838c.248.982.5 1.964.748 2.946.025.098.032.209.136.265.128-.044.137-.154.162-.254l1.844-7.632.314-1.286.335-.031c.105-.01.21-.02.31-.04.034-.006.06-.044.092-.069-.03-.033-.052-.075-.088-.1-.025-.019-.067-.019-.102-.019a133.13 133.13 0 0 0-1.548 0c-.064 0-.13.027-.196.042.023.119.096.142.171.148.18.015.363.023.543.036.08.006.159.018.257.029-.017.09-.025.158-.04.223a781.48 781.48 0 0 1-1.032 4.274c-.138.567-.293 1.128-.444 1.691-.023.09-.065.173-.098.259l-.048-.002c-.034-.094-.076-.188-.1-.284-.246-.94-.497-1.88-.731-2.823-.258-1.03-.505-2.064-.752-3.096-.019-.078-.015-.159-.023-.255l.272-.019c.18-.01.362-.018.542-.033.048-.004.095-.033.143-.052-.034-.117-.111-.13-.189-.134-.236-.012-.473-.029-.71-.029Zm-15.06.058c-.188-.002-.377.006-.565.012-.07.002-.124.038-.128.11-.004.078.048.113.118.124.09.012.18.023.27.027.178.008.358.01.546.014v8.71c-.056.006-.103.016-.15.018-.195.007-.39.01-.587.02-.071.001-.153-.007-.203.105.067.023.121.053.18.06.103.018.207.036.312.034 1.039-.006 2.08.007 3.115-.035.859-.033 1.456-.505 1.82-1.268.207-.434.232-.903.174-1.368-.095-.756-.425-1.378-1.133-1.743-.19-.098-.394-.173-.593-.256-.069-.03-.14-.052-.209-.08l-.008-.06c.056-.033.11-.07.17-.098.075-.035.156-.058.232-.092.632-.269 1.063-.719 1.266-1.382.09-.292.097-.59.072-.888-.103-1.168-.836-1.747-1.814-1.89-.261-.037-.527-.041-.793-.045-.697-.015-1.394-.023-2.092-.03Zm-4.97 8.252c.12-.01.18.042.203.159.02.114-.048.146-.138.164-.348.073-.693.153-1.043.22-.404.077-.808.143-1.214.212-.044.013-.092.01-.164.015l-.033-.309.584-.115c.574-.11 1.15-.219 1.723-.33.027-.005.055-.014.082-.016Zm6.354-3.655c.48.023.926.034 1.367.073.304.027.492.244.637.492.134.232.207.49.216.755.02.667.04 1.334-.036 2a1.528 1.528 0 0 1-.32.802c-.105.132-.235.225-.404.232-.425.019-.85.029-1.275.04-.04.001-.08-.013-.145-.021-.044-1.448-.03-2.89-.04-4.373Zm22.313 3.66a85.89 85.89 0 0 1 1.505.254c.193.033.384.07.576.108.18.034.216.086.184.25-.02.105-.06.128-.228.1-.481-.079-.963-.162-1.442-.246a23.123 23.123 0 0 1-.74-.145c-.054-.013-.104-.036-.167-.055.04-.264.078-.304.312-.267Zm-32.369.237c-.852.16-1.69.344-2.542.465-.012-.046-.023-.065-.023-.083.002-.075.009-.153.013-.25.176-.036.35-.076.525-.107.54-.098 1.08-.196 1.62-.292.055-.01.112-.016.166-.019.214-.006.25.032.241.286Zm36.159-.348c.132.01.264.03.393.052.589.108 1.175.219 1.763.33.053.01.105.03.184.054-.033.114-.058.204-.092.317-.255-.042-.494-.075-.73-.121-.492-.094-.982-.192-1.474-.29-.034-.006-.067-.017-.1-.025-.129-.038-.173-.096-.154-.202.017-.092.07-.126.21-.115Zm-32.62-1.505.02.173c.015.112-.037.16-.148.181-.612.108-1.22.221-1.83.332-.109.02-.22.035-.33.052-.21.03-.246 0-.231-.215.002-.019.012-.04.016-.056.252-.096 2.255-.476 2.502-.467Zm29.031-.02c.186.017.373.045.56.078.554.1 1.109.202 1.662.306.041.009.081.023.136.038.006.042.012.069.012.094-.002.194-.03.231-.22.198-.76-.132-1.52-.271-2.28-.409-.019-.004-.035-.019-.065-.033 0-.038-.006-.077 0-.117.023-.135.055-.167.195-.154Zm-29.136-1.21c.017.118.03.214.046.341-.873.004-1.73-.006-2.603-.066v-.276h2.557Zm31.663-.061-.027.319c-.856.01-1.698.02-2.554.033v-.281c.18-.052 2.299-.113 2.581-.071ZM5.617 23.96v.269H2.998v-.338c.882-.004 1.748.006 2.62.069Zm39.163-.113v.338h-2.527l-.02-.285c.854-.063 1.695-.044 2.547-.053Zm-28.63-4.199c.405.009.809.023 1.213.03a.348.348 0 0 1 .243.102c.266.252.456.542.456.923 0 .561.007 1.124.002 1.685a1.76 1.76 0 0 1-.17.705c-.144.32-.384.519-.74.567-.377.052-.75.029-1.143.029v-4.02c.05-.008.094-.023.14-.02Zm-6.745 3.493v.352c-.856-.023-1.709-.048-2.58-.073v-.28h2.58Zm31.582-.065c.01 0 .023.01.05.025v.265c-.85.064-1.702.07-2.573.067-.005-.076-.013-.134-.01-.192.003-.09.054-.136.148-.136l2.385-.029ZM7.282 21.404c.737.148 1.472.302 2.207.454.012.002.023.015.052.032l.015.291c-.1 0-.19.015-.275-.002-.722-.146-1.444-.296-2.165-.446-.02-.002-.037-.012-.077-.029a43.999 43.999 0 0 1-.013-.302c.107 0 .183-.013.256.002Zm33.497.002c.088.098.078.194-.04.252a.807.807 0 0 1-.196.065c-.662.14-1.324.277-1.985.41-.245.05-.3-.002-.287-.27.278-.063.561-.13.846-.192.477-.103.953-.203 1.43-.303.082-.016.163-.041.232.038Zm-37.201-1.63c.507.1 1.011.204 1.516.306.301.062.599.127.917.196l-.02.218-.011.118c-.132-.02-.243-.03-.35-.05-.662-.136-1.323-.276-1.985-.413a1.076 1.076 0 0 1-.14-.04c-.118-.042-.17-.144-.134-.26.035-.117.127-.09.207-.076Zm40.744-.065c.031.119.056.214.09.337-.859.182-1.692.357-2.557.538v-.346c.817-.183 1.627-.37 2.467-.53Zm-36.703.069c.423.085.846.173 1.267.264.284.06.571.123.854.194.155.038.195.113.142.238-.031.08-.058.092-.243.085-.245-.048-.546-.1-.846-.164a55.983 55.983 0 0 1-1.304-.29c-.157-.038-.199-.175-.103-.294.067-.084.155-.05.233-.033Zm32.85.273c-.822.164-1.641.38-2.504.488l-.029-.292c.172-.042.33-.084.492-.12.586-.126 1.17-.254 1.757-.377.255-.054.318.013.284.3ZM8.017 18.124c.69.292 1.382.582 2.07.878.055.023.09.083.113.104 0 .209-.077.267-.24.223a1.56 1.56 0 0 1-.197-.067c-.557-.233-1.114-.467-1.669-.704a1.081 1.081 0 0 1-.251-.146c-.086-.07-.09-.173-.03-.26.06-.086.135-.057.204-.028Zm31.862-.019c.048-.004.13.015.142.044.02.05.005.121-.016.173-.017.04-.067.069-.11.094-.064.04-.131.077-.202.106a624.6 624.6 0 0 1-1.747.74c-.073.028-.154.044-.247.071-.073-.204-.062-.252.072-.344a.894.894 0 0 1 .163-.09c.582-.247 1.164-.496 1.746-.74a.614.614 0 0 1 .199-.054ZM23.757 14.12c2.092-.027 4.008.536 5.72 1.747.863.609 2.012 1.77 2.165 2.2-.115.01-.224.029-.333.03-.724.013-1.45.032-2.175.034-2.184.004-4.368.007-6.551 0-2.023-.004-4.047-.019-6.07-.029-.109 0-.218-.015-.348-.025.155-.427 1.34-1.63 2.147-2.183 1.639-1.124 3.446-1.747 5.445-1.774ZM8.57 16.617c.082.014.164.037.241.068.622.263 1.24.53 1.86.795.025.01.05.025.075.037.081.042.138.096.09.198-.042.086-.09.159-.226.134-.032-.01-.086-.023-.136-.046-.555-.24-1.112-.478-1.665-.722a1.6 1.6 0 0 1-.303-.18.254.254 0 0 1-.078-.157c-.008-.094.05-.144.142-.127Zm30.726-.042c.056.025.1.07.167.12-.052.072-.08.13-.125.165a.881.881 0 0 1-.2.111c-.598.259-1.199.517-1.798.774-.037.016-.077.029-.117.043-.069.025-.14.046-.18-.037-.04-.082-.04-.163.04-.225a.55.55 0 0 1 .107-.063c.661-.288 1.325-.575 1.986-.861.038-.017.088-.04.12-.027Zm-34.574-.73c.06.01.124.03.18.052.616.257 1.231.513 1.847.772a.993.993 0 0 1 .13.066c.121.073.15.16.098.278-.044.1-.086.114-.243.05a178.74 178.74 0 0 1-1.73-.732c-.102-.044-.198-.1-.296-.15a.227.227 0 0 1-.13-.22c0-.101.037-.135.144-.116Zm38.393-.04c.065.224.056.274-.113.36-.28.139-.566.268-.85.393-.325.142-.654.275-.98.41-.065.028-.132.057-.2.06-.051 0-.129-.032-.148-.074-.019-.041.009-.114.034-.166.017-.032.063-.053.1-.07l2.025-.88c.035-.016.077-.02.132-.033ZM9.486 15.12c.038.02.078.036.111.059.562.388 1.123.775 1.684 1.165a.527.527 0 0 1 .12.117c.026.036.039.081.05.102 0 .136-.055.19-.158.16a.899.899 0 0 1-.245-.112 24.603 24.603 0 0 1-.732-.481c-.306-.209-.608-.422-.91-.632-.039-.027-.083-.054-.116-.088-.07-.07-.07-.16-.007-.246.055-.075.124-.083.203-.044Zm28.953-.09c.035.036.077.07.108.111.04.055.049.117-.004.171-.04.04-.08.08-.125.11-.551.39-1.102.78-1.654 1.168a.713.713 0 0 1-.225.107c-.043.012-.119 0-.144-.032-.027-.033-.03-.108-.01-.152a.365.365 0 0 1 .119-.14 362.16 362.16 0 0 1 1.788-1.267c.04-.03.086-.046.147-.075Zm-27.99-1.269c.089.056.179.108.264.169.43.296.857.592 1.286.89.09.063.18.132.264.202.186.157.184.215-.025.41-.07-.04-.13-.072-.187-.11-.559-.387-1.118-.775-1.677-1.165a.696.696 0 0 1-.153-.14c-.065-.083-.058-.185.002-.248.074-.075.15-.058.227-.008Zm27.169.113c-.015.025-.036.079-.074.116a1.37 1.37 0 0 1-.217.194c-.507.359-1.014.713-1.522 1.068-.057.04-.12.073-.183.1-.083.037-.146-.002-.194-.073-.046-.067-.013-.119.033-.165.044-.044.088-.09.14-.125.555-.386 1.11-.771 1.665-1.153a.857.857 0 0 1 .205-.102c.088-.031.151.02.147.14Zm-1.194-1.5c.189.142.203.174.074.32-.352.394-.71.783-1.072 1.17a9.145 9.145 0 0 1-.478.466c-.094.088-.157.086-.236.015-.061-.054-.078-.115-.023-.182.035-.043.067-.09.106-.129.497-.517.995-1.032 1.493-1.547.038-.04.086-.07.136-.113Zm-25.045.003c.04.03.086.06.124.1.477.496.952.992 1.426 1.488.06.065.113.142.163.215.038.054.052.115-.002.169-.059.058-.124.056-.189.013-.04-.028-.083-.053-.115-.088a147.64 147.64 0 0 1-1.474-1.558c-.148-.156-.125-.223.067-.34Zm-4.662-.196c.029.014.073.033.113.062.61.434 1.222.87 1.834 1.303.027.021.052.044.08.07.056.05.09.107.035.178-.055.07-.117.123-.214.073l-.073-.037c-.632-.38-1.24-.795-1.815-1.255a.452.452 0 0 1-.13-.159c-.052-.104.044-.242.17-.235Zm34.506.183c-.012.02-.025.06-.052.09a.971.971 0 0 1-.153.14c-.513.368-1.028.735-1.543 1.102-.067.048-.145.084-.218.123-.092.053-.159.017-.216-.058-.062-.081-.016-.142.044-.196.042-.037.084-.073.13-.106l1.671-1.176a.951.951 0 0 1 .126-.075c.098-.05.211.025.211.156Zm-28.69-1.118c.123.117.243.221.356.334.41.417.816.836 1.223 1.257.062.065.115.14.163.215.038.058.027.119-.027.169-.057.05-.12.075-.189.025a.965.965 0 0 1-.109-.096c-.464-.482-.927-.961-1.39-1.445a1.137 1.137 0 0 1-.12-.146c-.1-.142-.091-.18.093-.313Zm22.731-.033c.208.117.222.163.095.323a14.345 14.345 0 0 1-1.491 1.574c-.168.15-.205.144-.373-.018.545-.682 1.156-1.287 1.77-1.879Zm-21.242-.926c.04.048.077.098.11.153.352.556.704 1.115 1.056 1.674.044.064.077.142.119.225-.025.033-.042.083-.071.094a.391.391 0 0 1-.195.017c-.046-.013-.09-.067-.12-.111-.401-.617-.801-1.234-1.197-1.854-.077-.12-.052-.198.048-.264.09-.06.157-.044.25.066Zm19.95-.14c.13.024.179.124.124.247a.931.931 0 0 1-.069.127c-.35.55-.697 1.1-1.047 1.651-.033.052-.073.1-.11.15-.074.105-.168.144-.302.092-.048-.115.008-.202.052-.283.103-.188.21-.376.325-.557.276-.432.557-.861.84-1.29.043-.068.079-.157.188-.136ZM32.667 9.3c.034.034.05.094.052.142a.288.288 0 0 1-.044.138c-.374.698-.818 1.353-1.256 2.032-.073-.025-.12-.037-.163-.056-.086-.04-.105-.106-.067-.19.03-.062.056-.127.094-.185.344-.546.685-1.095 1.032-1.639.053-.081.12-.154.185-.225.048-.052.115-.067.167-.017Zm-17.3.054c.046.052.088.109.123.167l1.07 1.71c.036.058.065.12.109.204-.046.048-.086.1-.138.138-.057.042-.117.04-.166-.021-.035-.044-.07-.086-.1-.131L15.14 9.694a1.228 1.228 0 0 1-.08-.146c-.052-.119-.04-.17.052-.231.103-.069.166-.063.254.037Zm-5.99-.219c.278.271.56.538.833.816.243.248.475.504.708.763.056.056.09.133.138.21-.032.048-.048.103-.084.121-.036.02-.092.01-.132-.006a.42.42 0 0 1-.113-.09c-.482-.49-.965-.977-1.445-1.47a.953.953 0 0 1-.125-.164c-.044-.075-.03-.146.037-.205.072-.06.13-.027.183.025Zm21.762-.663c.065.032.119.075.094.163a.961.961 0 0 1-.036.119 347.14 347.14 0 0 1-.789 2.056c-.027.069-.067.131-.113.22l-.258-.151c.032-.096.053-.17.08-.238.251-.63.502-1.26.756-1.89.031-.076.073-.15.11-.222.034-.067.089-.09.156-.057Zm7.334.595c.186.123.203.179.067.331-.343.382-.695.757-1.045 1.132-.109.117-.226.225-.341.336a1.218 1.218 0 0 1-.111.096c-.096.07-.201.083-.245.027-.065-.081-.02-.158.031-.225.074-.094.145-.186.227-.271.414-.43.83-.855 1.25-1.283.052-.054.113-.098.167-.143ZM16.729 8.51c.027.02.094.048.134.098.05.065.088.142.119.217.237.586.469 1.172.704 1.757.02.053.037.105.05.159.031.125.008.175-.092.215-.105.041-.168.023-.226-.077a1.438 1.438 0 0 1-.099-.207c-.239-.607-.475-1.213-.71-1.822a1.104 1.104 0 0 1-.054-.18c-.027-.116.017-.168.174-.16Zm1.564-.605c.035.04.065.092.086.142.272.65.542 1.303.812 1.956.02.052.031.108.052.185-.03.036-.058.09-.104.121a.134.134 0 0 1-.189-.025.638.638 0 0 1-.11-.175c-.265-.655-.524-1.311-.786-1.968a.505.505 0 0 1-.03-.1c-.012-.063-.022-.132.055-.159.073-.027.153-.046.214.023Zm11.35-.04c.035.009.077.065.081.103a.492.492 0 0 1-.031.204c-.255.659-.51 1.318-.777 1.973-.077.181-.138.193-.341.125.023-.086.038-.173.071-.255.251-.652.507-1.305.762-1.955a.445.445 0 0 1 .09-.161c.034-.03.1-.044.145-.033Zm-1.504-.423c-.014.107-.023.2-.04.292-.12.64-.244 1.28-.366 1.919-.014.075-.031.15-.054.22-.042.128-.113.174-.214.144-.109-.03-.1-.116-.086-.202.05-.308.097-.617.151-.924.08-.444.166-.886.25-1.328.008-.037.024-.077.04-.12h.32Zm-8.192.032a.65.65 0 0 1 .069.173c.142.719.28 1.44.42 2.16a.146.146 0 0 0 .003.042c.01.091-.038.141-.124.162-.092.023-.148-.017-.171-.104-.053-.2-.111-.4-.151-.605-.099-.475-.189-.95-.279-1.426a3 3 0 0 1-.037-.33c-.005-.064.014-.122.092-.143.077-.019.14 0 .178.07Zm6.564-.148c-.084.492-.172.982-.262 1.472-.042.225-.094.446-.145.669a.878.878 0 0 1-.052.158c-.031.075-.094.1-.17.086-.085-.015-.085-.086-.081-.146.012-.159.02-.32.048-.475.113-.634.23-1.268.35-1.9.002-.025.016-.05.027-.083.027-.01.04-.02.054-.021.226-.017.268.019.23.24Zm-4.967-.167a.768.768 0 0 1 .065.175c.143.698.283 1.399.421 2.1.015.064.01.133.015.223l-.314.018c-.023-.087-.046-.158-.061-.231a479.01 479.01 0 0 1-.373-2.025c-.01-.06-.012-.125-.017-.185-.004-.065.003-.13.084-.144.073-.013.143-.006.18.069Zm1.38-.288c.098.008.184.017.291.025.046.874.03 1.73.042 2.61h-.333V6.872Zm1.928.03v2.606h-.335c-.006-.06-.014-.115-.014-.167.002-.707.006-1.414.01-2.119l.002-.062c.01-.288.025-.3.337-.259Zm10.58-.334c.027.03.031.1.02.146a.64.64 0 0 1-.087.187l-1.076 1.69c-.038.058-.086.11-.134.16-.021.023-.057.033-.076.043-.1-.002-.178-.1-.157-.193a.569.569 0 0 1 .076-.171c.366-.574.737-1.147 1.107-1.718a.696.696 0 0 1 .138-.155.13.13 0 0 1 .189.01Zm-22.88-.04a.807.807 0 0 1 .09.115l1.135 1.745c.029.046.056.096.081.146.07.152.017.24-.188.244-.027-.019-.092-.048-.134-.094a2.275 2.275 0 0 1-.197-.269c-.337-.534-.672-1.068-1.005-1.605-.09-.146-.075-.199.033-.286.065-.052.126-.056.185.004Zm3.59-1.826a.427.427 0 0 1 .076.125c.262.665.523 1.33.783 1.997.015.036.019.077.035.142-.018.023-.041.077-.077.087-.054.015-.128.02-.176-.008-.05-.027-.086-.09-.113-.144-.073-.15-.144-.3-.207-.454-.19-.47-.377-.94-.563-1.412a1.351 1.351 0 0 1-.06-.177c-.018-.075-.037-.152.055-.198.088-.044.183-.034.247.042Zm15.714-.042c.075.031.077.092.065.156a.816.816 0 0 1-.048.159c-.233.586-.463 1.174-.698 1.76-.025.064-.058.125-.09.187-.058.115-.144.165-.314.102.017-.09.02-.181.048-.26.248-.64.499-1.278.752-1.916a.583.583 0 0 1 .092-.161c.053-.06.122-.054.193-.027ZM20.03 3.633c.08.273.143.55.197.83.086.43.16.861.237 1.29.006.034.015.07.019.103.012.146-.021.185-.172.194-.042.002-.082-.007-.134-.01-.172-.639-.456-2.265-.438-2.497.172-.098.24-.087.291.09Zm8.003.075c-.071.45-.153.9-.235 1.35a32.24 32.24 0 0 1-.15.752.988.988 0 0 1-.047.158c-.035.094-.117.084-.194.075-.08-.008-.105-.066-.097-.135.025-.186.053-.37.084-.553.1-.559.205-1.115.308-1.674.015-.065.035-.13.05-.192.233-.042.314.017.28.22Zm-4.012-.594c.02.07.034.559.038 1.092l.002.402c0 .466-.007.894-.023 1.035h-.333v-2.53h.316Z"/>
</svg>
