<svg>
  <path d="M46.52 23.443h-1.654c-.004-.088-.01-.17-.01-.25 0-.781.002-1.563-.002-2.347a84.557 84.557 0 0 0-.025-1.633 1.765 1.765 0 0 0-.04-.33c-.053-.256-.17-.355-.432-.374-.117-.008-.237-.006-.356-.006-.258 0-.518-.002-.776.004-.11.002-.22.023-.337.038v4.896h-1.662v-.254c-.004-1.327-.006-2.653-.013-3.98a1.87 1.87 0 0 0-.044-.373.383.383 0 0 0-.358-.329c-.503-.059-1.002-.025-1.524.048-.006.1-.016.197-.016.292l-.02 4.336v.26h-1.605c-.041-.147-.058-6.101-.014-6.47.438-.002.882-.002 1.345 0 .03.18.059.354.09.553.084-.048.139-.077.189-.11.092-.066.18-.133.268-.2.386-.295.386-.304.87-.31.3-.004.601.006.9.027.345.025.636.19.904.4.093.074.187.145.296.229.172-.132.344-.25.497-.39.194-.18.412-.247.679-.262.454-.025.907-.03 1.356.055.769.144 1.261.5 1.414 1.527.053.35.046.71.05 1.065.015 1.228.021 2.458.032 3.686.008.06.002.122-.002.202ZM1.529 14.49c.677.092 1.33.182 2 .272.028.178.06.34.083.505a18.14 18.14 0 0 0 2.094 6.214c.027.048.056.096.085.143.007.01.021.018.036.031.096-.015.117-.107.155-.176.392-.702.721-1.434.998-2.188.486-1.327.832-2.69 1.054-4.087.023-.142.054-.285.084-.438l1.955-.291c0 .117.006.214 0 .308a16.421 16.421 0 0 1-.298 2.07 19.115 19.115 0 0 1-2.56 6.332.442.442 0 0 1-.33.218 6.726 6.726 0 0 1-2.169 0 .462.462 0 0 1-.35-.229 19 19 0 0 1-2.653-6.957c-.084-.489-.123-.983-.18-1.476-.013-.071-.004-.147-.004-.251Zm9.527 18.589v-8.622c.536-.055 1.065-.017 1.616-.031.008.094.02.173.02.253.007.86.01 1.716.015 2.576 0 .088.01.174.02.304.09-.055.15-.082.2-.122.15-.115.29-.243.447-.348a.8.8 0 0 1 .318-.138 3.309 3.309 0 0 1 1.41.088c.537.153.915.492 1.132 1.006.13.304.216.622.244.95.065.764.092 1.533.004 2.298a4.35 4.35 0 0 1-.176.815c-.2.633-.629 1.05-1.27 1.222a5.013 5.013 0 0 1-.945.164 7.793 7.793 0 0 1-2.911-.365c-.04-.013-.078-.031-.124-.05Zm1.693-4.477c-.01.132-.023.23-.025.327-.002.866-.002 1.731 0 2.597 0 .063.01.126.01.188 0 .112.057.164.166.17.333.017.669.04 1.002.05.124.005.25-.016.373-.037a.534.534 0 0 0 .455-.409c.019-.067.04-.134.05-.203.092-.583.092-1.17.05-1.754a4.212 4.212 0 0 0-.084-.558c-.058-.289-.249-.457-.536-.476a7.57 7.57 0 0 0-.9.003c-.18.01-.362.065-.56.102Zm8.56.57c.062-.335-.133-.624-.477-.662a6.785 6.785 0 0 0-1.712.034c-.358.052-.712.138-1.066.207-.06.013-.122.017-.202.03l-.24-1.48c.236-.06.456-.12.678-.17a8.791 8.791 0 0 1 3.016-.15c.233.026.467.096.683.186.587.247.918.704.96 1.337.034.5.027 1.004.03 1.507.006 1.047.006 2.093.008 3.141v.254H21.59l-.094-.512c-.067.032-.113.044-.149.072-.115.08-.235.155-.335.249a.997.997 0 0 1-.696.277c-.551.008-1.102.046-1.647-.072-.327-.07-.625-.195-.862-.442-.255-.264-.364-.59-.419-.94a4.4 4.4 0 0 1 .021-1.501c.13-.68.457-1.176 1.43-1.29.484-.056.974-.041 1.462-.056.331-.008.667-.012 1.006-.019Zm.006 1.48c-.034-.008-.06-.019-.086-.019-.62.019-1.239.034-1.86.059-.234.008-.307.081-.326.318-.015.18-.015.363-.009.543.009.279.084.369.36.377.39.01.78.009 1.17-.012.248-.015.49-.074.75-.113v-1.153Zm9.143-6.214h1.618c.004.088.013.168.013.25 0 1.167 0 2.332.002 3.5 0 .328.01.655.019.984.002.061.012.122.025.222.08-.05.142-.077.186-.121.105-.103.204-.212.3-.32.593-.66 1.186-1.319 1.775-1.983a.399.399 0 0 1 .342-.151c.496.008.99.004 1.488.004h.213c-.132.226-.301.38-.444.553-.142.172-.291.34-.438.507l-.453.522c-.146.168-.293.338-.44.505-.15.174-.304.348-.454.52l-.451.516c.065.138.124.27.19.4.426.803.998 1.496 1.635 2.14.25.253.516.49.776.735l.176.168c-.172.008-.302.019-.43.02-.503.005-1.006.005-1.509.013a.334.334 0 0 1-.262-.102c-.264-.268-.538-.528-.788-.811-.455-.516-.81-1.1-1.159-1.692-.031-.054-.058-.113-.1-.159-.038-.04-.092-.06-.176-.11-.032.51-.013.976-.015 1.441-.004.467 0 .935 0 1.417h-1.618c-.05-.16-.065-8.662-.02-8.968Zm-11.214-3.55c-.474.03-.918.067-1.364.082-.468.014-.935.008-1.405.008-.104 0-.21-.008-.314-.01-.26-.009-.494-.074-.668-.288-.05-.062-.126-.102-.223-.18-.044.44-.037.83.223 1.168.11.144.278.205.452.24.478.099.96.086 1.438.02.415-.06.826-.139 1.238-.206.047-.008.095-.008.17-.015.076.468.147.927.222 1.4-.094.044-.171.09-.255.116-1.092.33-2.203.435-3.33.226-.803-.149-1.342-.616-1.625-1.381a3.563 3.563 0 0 1-.236-1.207c-.005-.53-.009-1.063.033-1.591.027-.344.113-.69.218-1.02.2-.636.648-1.032 1.287-1.204a4.153 4.153 0 0 1 1.306-.153c.354.02.712.02 1.064.07 1.01.144 1.564.674 1.723 1.685.071.459.067.932.08 1.397.01.273-.02.543-.034.843Zm-1.639-1.427c-.04-.233-.06-.426-.105-.614-.063-.264-.2-.378-.473-.386-.363-.01-.725-.015-1.086-.004a1.048 1.048 0 0 0-.38.098.394.394 0 0 0-.182.187c-.094.212-.1.442-.106.696.775.069 1.53.042 2.332.023Zm18.933.744c-.019.488-.021.978-.065 1.465-.023.253-.1.507-.19.746-.194.511-.575.836-1.097.98a3.575 3.575 0 0 1-.7.124 8.26 8.26 0 0 1-1.777-.027 3.71 3.71 0 0 1-.43-.086c-.612-.157-1.006-.543-1.2-1.144a4.293 4.293 0 0 1-.198-1.279c-.006-.67.013-1.339.036-2.01.013-.335.103-.66.229-.974.171-.425.467-.731.899-.88.262-.09.536-.16.813-.189a8.387 8.387 0 0 1 1.945.032c.43.054.825.2 1.135.526.229.239.365.526.449.84.092.34.136.683.132 1.035-.002.28 0 .56 0 .839.006 0 .013 0 .019.002Zm-1.673.014h-.016c0-.203.008-.404-.002-.607-.013-.237-.023-.476-.065-.709-.053-.295-.225-.438-.522-.446-.342-.01-.686-.015-1.027 0-.409.017-.583.161-.612.566-.04.555-.048 1.115-.052 1.672-.003.264.023.53.06.792.044.32.195.474.503.493.37.02.74.025 1.109.004.367-.021.503-.17.564-.53.006-.042.01-.084.012-.126l.048-1.109Zm-10.813 6.778h1.374c.05.172.015.356.12.532.11-.075.228-.13.314-.213.308-.304.677-.411 1.1-.407.407.004.81.019 1.205.121.568.147.946.506 1.094 1.074.074.28.13.576.135.865.023 1.417.025 2.836.033 4.252 0 .055-.006.11-.01.162-.16.044-1.268.056-1.635.018-.004-.062-.01-.127-.01-.194-.005-.992-.009-1.983-.015-2.974-.002-.384-.015-.767-.025-1.153a1.138 1.138 0 0 0-.017-.186c-.05-.25-.147-.36-.403-.38a9.2 9.2 0 0 0-.961-.012c-.208.006-.413.044-.64.069-.029.245-.01.473-.014.7-.002.23 0 .46 0 .691v3.444h-1.643c-.002-2.134-.002-4.26-.002-6.409Zm5.953-3.806c-.312.145-.611.203-.915.252a8.31 8.31 0 0 1-1.922.083 4.173 4.173 0 0 1-.8-.146c-.564-.162-.956-.53-1.195-1.065-.18-.402-.252-.828-.287-1.26-.06-.733-.053-1.464.075-2.192.025-.144.057-.287.096-.427.244-.849.824-1.316 1.677-1.47.612-.11 1.224-.096 1.836-.016.38.048.759.12 1.136.184.088.015.174.042.279.07-.032.511-.118 1.001-.19 1.504-.27-.048-.513-.1-.762-.134a7.02 7.02 0 0 0-1.754-.03c-.417.051-.585.21-.66.632-.082.463-.082.93-.057 1.4.013.23.02.46.059.687.077.457.253.62.719.677.444.054.892.052 1.337-.006.364-.05.73-.11 1.121-.17.07.465.136.939.207 1.427Zm-7.38-7.815v1.587h1.523v1.527h-1.5c-.009.074-.022.128-.022.18.005.971.007 1.943.017 2.914.004.419.023.438.447.413.306-.02.61-.065.94-.103.09.434.112.884.162 1.33-.155.112-.33.141-.497.179-.431.096-.872.12-1.312.09-.781-.052-1.274-.497-1.36-1.278-.05-.451-.044-.906-.052-1.36-.013-.728-.017-1.453-.025-2.18 0-.048-.007-.097-.013-.174l-1.002-.015V16.97h1.013v-1.593c.563-.002 1.104-.002 1.68 0Zm-10.26 8.067h-1.638V16.98h1.639v6.462Z"/>
</svg>
