---
version: "0.0.4"
---
<svg>
  <path d="M21.836 1.511c-.049 .168 .078 .208 .172 .277c.809 .597 1.616 1.196 2.424 1.794c.054 .04 .112 .074 .161 .121c.074 .072 .132 .065 .213 .002c.315 -.239 .634 -.469 .951 -.704c.557 -.41 1.113 -.824 1.672 -1.233c.064 -.047 .123 -.107 .225 -.136c-.022 .174 .141 .179 .228 .259c.192 .177 .385 .353 .574 .53c.499 .458 .995 .92 1.5 1.374c.114 .102 .17 .216 .18 .364c.032 .422 .065 .847 .099 1.269c.056 .72 .114 1.439 .168 2.158c.033 .431 .064 .86 .098 1.292l.17 2.18c.035 .467 .067 .937 .102 1.404c.054 .703 .112 1.41 .166 2.113c.036 .454 .067 .905 .1 1.359c.054 .712 .112 1.423 .166 2.136c.035 .482 .067 .965 .105 1.448c.053 .69 .11 1.378 .163 2.068c.036 .474 .069 .95 .105 1.426c.024 .31 .058 .623 .071 .934c.007 .143 .074 .185 .195 .223c.498 .155 .994 .309 1.486 .483c1.541 .54 2.982 1.274 4.28 2.275c.85 .654 1.6 1.403 2.177 2.314c.523 .827 .8 1.723 .777 2.706c-.015 .766 0 1.533 -.036 2.3c-.004 .102 .023 .207 .025 .31c.009 .592 -.138 1.148 -.38 1.684c-.395 .876 -.987 1.61 -1.673 2.268c-.914 .878 -1.949 1.591 -3.066 2.18c-.742 .392 -1.499 .75 -2.294 1.02c-.114 .038 -.134 .094 -.128 .194l.201 2.491c.01 .112 .011 .224 .018 .336c.005 .073 -.031 .109 -.105 .111c-.082 .002 -.163 .011 -.246 .011c-.093 .003 -.114 .047 -.091 .13c.024 .092 .105 .197 .06 .275c-.056 .094 -.196 .091 -.302 .123c-1.18 .362 -2.361 .72 -3.543 1.077c-.11 .033 -.217 .1 -.308 -.056c-.03 -.052 -.148 -.054 -.228 -.072c-.492 -.118 -.983 -.232 -1.473 -.353c-.538 -.132 -1.074 -.27 -1.613 -.4c-.201 -.049 -.416 -.058 -.605 -.123c-.204 -.071 -.416 -.107 -.617 -.176a.435 .435 0 0 0 -.282 .009c-1.184 .35 -2.368 .695 -3.554 1.041c-.099 .03 -.195 .087 -.27 -.047c-.02 -.033 -.092 -.038 -.144 -.053c-1.667 -.474 -3.333 -.948 -5 -1.42c-.28 -.077 -.246 -.044 -.224 -.31c.06 -.764 .134 -1.526 .204 -2.29c.02 -.223 .033 -.445 .056 -.668c.01 -.105 -.02 -.16 -.128 -.197c-.4 -.14 -.784 -.324 -1.18 -.473c-.236 -.09 -.444 -.224 -.668 -.336a14.031 14.031 0 0 1 -2.875 -1.892c-.793 -.677 -1.497 -1.437 -2.002 -2.366c-.382 -.704 -.585 -1.443 -.55 -2.257c.03 -.616 -.004 -1.235 -.01 -1.854c-.003 -.217 -.021 -.431 -.03 -.646c-.025 -.597 .1 -1.169 .324 -1.718c.261 -.641 .646 -1.204 1.081 -1.738c.235 -.289 .485 -.566 .758 -.807c.404 -.358 .827 -.7 1.278 -1.005a15.39 15.39 0 0 1 2.053 -1.2a17.703 17.703 0 0 1 2.304 -.899c.34 -.105 .677 -.22 1.019 -.326c.11 -.033 .147 -.09 .156 -.203c.087 -1.09 .179 -2.18 .273 -3.271c.093 -1.081 .194 -2.165 .288 -3.247c.071 -.822 .132 -1.646 .201 -2.468c.078 -.912 .165 -1.824 .244 -2.735c.055 -.646 .102 -1.292 .156 -1.937c.067 -.778 .14 -1.555 .208 -2.335c.051 -.601 .098 -1.202 .147 -1.801c.03 -.349 .063 -.697 .087 -1.046c.007 -.094 .06 -.147 .123 -.2l2.268 -1.954c.384 -.33 .766 -.661 1.15 -.99l.17 -.138a.164 .164 0 0 0 .045 .011zm-5.814 27.426c.038 -.029 .04 -.058 .005 -.089l.194 -2.29c.012 -.134 -.004 -.152 -.127 -.11c-.154 .052 -.308 .11 -.46 .17c-1.276 .494 -2.494 1.095 -3.589 1.922c-.61 .458 -1.164 .974 -1.59 1.615c-.483 .726 -.662 1.504 -.371 2.353c.27 .79 .777 1.416 1.383 1.968c.788 .717 1.691 1.263 2.652 1.714c.369 .174 .742 .337 1.115 .505c.09 .04 .12 -.009 .125 -.092c.016 -.207 .033 -.415 .054 -.623c.067 -.755 .138 -1.51 .203 -2.266c.053 -.623 .098 -1.244 .152 -1.868c.082 -.97 .17 -1.939 .254 -2.909zm16.445 5.72c-.036 .032 -.036 .06 .005 .09c.071 .757 .1 1.517 .185 2.285c.06 -.015 .09 -.022 .116 -.031a15.14 15.14 0 0 0 2.06 -.96c.798 -.457 1.544 -.982 2.176 -1.659c.374 -.4 .69 -.837 .899 -1.35c.185 -.455 .277 -.922 .196 -1.416a2.92 2.92 0 0 0 -.46 -1.128c-.425 -.65 -.983 -1.173 -1.598 -1.638c-.9 -.681 -1.89 -1.213 -2.927 -1.653c-.361 -.154 -.73 -.295 -1.099 -.436c-.134 -.051 -.154 -.029 -.143 .112c.02 .297 .04 .594 .063 .89c.031 .428 .062 .86 .096 1.288l.17 2.201c.033 .451 .064 .905 .1 1.356c.052 .686 .105 1.368 .161 2.05zm-3.977 -4.066c-.05 .06 -.05 .12 .002 .179l.04 1.385c-.046 .06 -.049 .12 .003 .179l.04 1.385c-.036 .031 -.036 .06 .002 .09c.014 .506 .03 1.011 .043 1.519c-.047 .06 -.05 .12 .004 .178l.04 1.386c-.047 .06 -.049 .12 .002 .178c.012 .282 .027 .566 .032 .847c.018 1.048 .053 2.098 .087 3.146c.029 .892 .042 1.785 .065 2.677c.01 .409 .031 .815 .047 1.217c.071 .036 .125 0 .18 -.015c.307 -.092 .613 -.183 .919 -.277c.527 -.159 1.052 -.32 1.58 -.48c.176 -.054 .18 -.057 .17 -.246c-.014 -.246 -.034 -.49 -.052 -.736c-.058 -.748 -.116 -1.497 -.172 -2.245c-.034 -.429 -.065 -.86 -.098 -1.29c-.054 -.687 -.112 -1.378 -.163 -2.066c-.038 -.49 -.07 -.979 -.105 -1.468l-.17 -2.2c-.034 -.423 -.063 -.845 -.096 -1.268c-.056 -.741 -.114 -1.483 -.172 -2.223c-.034 -.438 -.065 -.876 -.099 -1.311c-.053 -.69 -.11 -1.379 -.163 -2.067c.038 -.031 .036 -.06 -.004 -.09l-.04 -.49c.035 -.032 .035 -.061 -.005 -.09c-.063 -.825 -.123 -1.647 -.185 -2.471l-.094 -1.247l-.168 -2.159l-.098 -1.313c-.054 -.704 -.112 -1.41 -.165 -2.114c-.036 -.474 -.068 -.95 -.103 -1.425l-.17 -2.181c-.034 -.431 -.063 -.86 -.096 -1.292c-.054 -.703 -.112 -1.41 -.165 -2.113c-.04 -.512 -.072 -1.024 -.112 -1.537c-.067 -.899 -.139 -1.795 -.208 -2.693c-.029 -.364 -.056 -.726 -.087 -1.09c-.005 -.05 -.002 -.096 -.045 -.143c-.25 -.284 -.543 -.52 -.815 -.78c-.043 -.04 -.087 -.08 -.163 -.07c0 .075 -.003 .146 0 .22c.026 .916 .055 1.83 .082 2.746c.027 .893 .054 1.785 .078 2.679c.036 1.264 .067 2.529 .103 3.794c-.047 .06 -.049 .12 .005 .178c.009 .253 .022 .503 .029 .756c.035 1.266 .069 2.535 .102 3.802c-.046 .06 -.049 .121 .005 .18c.011 .303 .025 .607 .033 .913c.032 1.048 .06 2.093 .09 3.141l.098 3.676c-.049 .06 -.049 .12 .002 .179l.04 1.385c-.046 .06 -.049 .12 .005 .179c.013 .491 .03 .983 .043 1.474c-.047 .045 -.045 .09 .002 .134l.04 1.388zm-7.282 -11.53c-.047 .043 -.047 .088 -.004 .135l-.04 1.117c-.04 .029 -.04 .058 -.003 .09l-.087 2.412c-.047 .045 -.047 .09 -.002 .134a629.01 629.01 0 0 0 -.078 2.052c-.03 .802 -.058 1.606 -.087 2.408c-.032 .87 -.06 1.74 -.092 2.61c-.029 .833 -.06 1.664 -.09 2.498c-.033 .952 -.064 1.903 -.098 2.855c-.046 .045 -.049 .09 -.002 .134c-.011 .237 -.024 .476 -.033 .713c-.032 .85 -.06 1.696 -.09 2.545c-.029 .818 -.06 1.635 -.087 2.455c-.038 1.131 -.071 2.262 -.107 3.392c-.002 .072 -.025 .148 .02 .217c.016 .002 .031 .007 .045 .004c.956 -.279 1.912 -.558 2.87 -.835c.12 -.036 .162 -.11 .162 -.23c.004 -.342 .018 -.684 .024 -1.028c.02 -.997 .011 -1.995 .04 -2.994c.032 -1.05 .014 -2.1 .047 -3.148c.03 -1.006 .025 -2.011 .043 -3.014c.031 -1.973 .049 -3.946 .09 -5.92c.022 -1.123 .01 -2.247 .046 -3.37c.031 -1.029 .016 -2.056 .045 -3.082c.029 -.996 .022 -1.995 .042 -2.992c.038 -1.81 .047 -3.617 .072 -5.427a.382 .382 0 0 0 -.114 -.297a65.797 65.797 0 0 1 -1.211 -1.285c-.119 -.131 -.24 -.203 -.422 -.187c-.18 .013 -.202 -.003 -.177 -.186c.04 -.317 -.183 -.449 -.402 -.65c-.02 .471 -.038 .9 -.054 1.327c-.04 .03 -.04 .058 -.002 .09l-.045 1.206c-.044 .045 -.047 .09 -.002 .134l-.04 1.073c-.054 .058 -.052 .118 -.005 .178l-.04 1.073c-.053 .058 -.051 .118 -.004 .179l-.04 1.072c-.039 .03 -.04 .058 -.003 .09a256.73 256.73 0 0 1 -.085 2.453zm.595 -15.626c-.065 .074 -.047 .167 -.05 .252c-.013 .365 -.022 .729 -.037 1.093c-.045 1.041 -.072 2.082 -.108 3.124l-.053 1.606c-.005 .112 -.01 .223 -.012 .333c-.002 .071 .03 .103 .106 .114c.256 .042 .281 .024 .281 -.235v-3.842c0 -.239 0 -.239 .246 -.239h1.765c.32 0 .32 -.004 .304 -.322c-.005 -.067 -.03 -.102 -.08 -.14c-.164 -.123 -.318 -.262 -.483 -.385l-1.725 -1.27c-.047 -.037 -.087 -.084 -.154 -.088zm3.014 4.882c0 -.364 .002 -.728 0 -1.093c0 -.17 -.005 -.172 -.177 -.172c-.38 -.002 -.757 .003 -1.137 -.002c-.118 -.002 -.154 .04 -.152 .154c.005 .744 0 1.486 .002 2.23c0 .159 .005 .163 .163 .163c.38 .002 .758 .002 1.138 0c.156 -.002 .163 -.007 .163 -.165c.002 -.371 0 -.742 0 -1.115z" />
</svg>
