---
version: "3.0.7"
---
<svg>
  <path d="M24.924 48v-9.783h1.203V48l4.162-.008 4.158-.011.283-.835.118-.353.25-.741.233-.684 2.689-7.867.352-1.027.188-.555.205-.607.133-.4c.074-.225.118-.363.118-.375 0-.063-.427-1.208-2.698-7.248l-.33-.878A7393 7393 0 0 1 27.53 3.815l-.4-1.082C26.423.823 26.122.035 26.088 0c-.026-.026-.038 1.913-.038 5.704v6.46l1.158 3.002 1 2.605 2.83 7.382a910 910 0 0 0 1.029 2.68l2.001 5.198c.343.893.475 1.24.507 1.33l.074.207-.606 1.813-.606 1.817-.838.011-.118.001h-.271c-.27 0-.454-.006-.454-.016s.254-.83.518-1.674l.375-1.194.176-.553.003-.007c.1-.31.276.174-2.062-5.75l-.546-1.388a1899 1899 0 0 1-3.87-9.905l-.052-.134a5 5 0 0 0-.213-.51c-.02-.02-.035 2.702-.035 6.435v6.93l.419.028c2.03.128 3.672.675 4.511 1.495l.033.033c.381.38.491.616.491 1.054v.054c-.002.24-.022.32-.113.505-.395.803-1.625 1.53-3.197 1.887l-.153.034c-.823.182-1.266.218-2.496.214h-.114c-1.202-.003-1.704-.057-2.623-.276-2.236-.528-3.583-1.747-3.164-2.857.404-1.072 2.294-1.91 4.787-2.127l.532-.047v-2.954c.001-.905.006-2.216.012-3.57l.008-1.509.007-1.129.005-1.151q.004-.776.004-1.362v-.42c-.002-.846-.01-1.287-.025-1.287-.018 0-.155.31-.307.703l-.07.182-.266.687-.521 1.34-.19.484-.704 1.803-1.052 2.702-.672 1.719-.613 1.563-.441 1.123-1.43 3.644-.058.146-.516 1.327.206.672.606 1.954c.18.575.316 1.009.33 1.043l.002.006c.015.042-.021.054-.354.055h-.094l-.374-.003-.85-.011-.614-1.806-.157-.463c-.417-1.229-.447-1.357-.412-1.47l.003-.008c.022-.07.806-2.12 1.77-4.616l.15-.39 3.037-7.904.454-1.182 1.37-3.574c.533-1.393.98-2.563 1.243-3.259l.509-1.34.023-7.47.003-2.05v-.815a69 69 0 0 0-.015-1.85c-.015-.008-.175.37-.352.848l-1.78 4.763-1.318 3.52-.886 2.363L15.99 23.87l-1.765 4.698-.206.545-.105.283L12 34.521l.885 2.597.988 2.884.642 1.88c.21.612.415 1.216.606 1.778l.6 1.757c.504 1.48.867 2.534.875 2.548.015.019 1.552.034 3.885.035zm1.712-12.613c1.887-.175 3.35-.695 4.064-1.456.4-.423.505-.893.3-1.34-.567-1.218-3.533-2.026-6.562-1.781-1.793.143-3.45.714-4.091 1.413-1.13 1.223.438 2.628 3.435 3.082.703.109 2.116.148 2.854.082m-2.47-.408c-2.138-.28-3.555-1.044-3.551-1.921 0-.342.357-.785.854-1.064.702-.392 1.921-.71 3.144-.82l.024-.001c.076-.005.206-.007.366-.007h.149c.646.003 1.622.032 1.849.063 2.1.287 3.474 1.025 3.474 1.863 0 .874-1.37 1.612-3.513 1.887-.695.09-2.112.09-2.795 0m-3.936.784a1.6 1.6 0 0 1-.213-.225 1.8 1.8 0 0 1-.408-.797l-.004-.022c-.046-.24-.05-.695-.008-.695.016 0 .063.066.105.144.042.079.178.25.31.391l.253.269v.505c-.001.247-.016.438-.035.43m10.556.163c-.023 0-.038-.198-.039-.481v-.509l.252-.264a4 4 0 0 0 .354-.434c.054-.097.116-.175.136-.175.019 0 .034.113.034.248 0 .34-.055.614-.183.875l-.02.041c-.126.246-.474.7-.534.7m-9.523.544c-.047 0-.264-.117-.443-.24l-.167-.113v-1.01l.263.15c.114.065.231.137.273.165l.01.008c.06.048.071.107.081.464l.002.083.003.153v.063c-.002.164-.011.277-.022.277m8.44.116c-.03 0-.043-.154-.043-.502v-.538l.322-.175.08-.044c.14-.076.253-.134.27-.134.015-.004.027.237.027.532v.535l-.342.182c-.153.08-.289.144-.314.144m-7.586.245-.435-.151-.012-.513v-.157c0-.206.007-.355.02-.355h.003l.053.012.041.01c.087.022.222.06.369.102l.435.128.013.576.001.114v.093c-.002.156-.01.265-.022.273-.016.008-.225-.05-.466-.132m6.474.144h-.002c-.042 0-.054-.089-.055-.502V35.9l.322-.097.089-.027a4 4 0 0 1 .28-.078c.034-.003.046.12.047.504v.576l-.315.1c-.166.054-.33.095-.366.098m-1.01.18-.002-.002a1.5 1.5 0 0 1-.01-.243v-.13l.002-.174.012-.505.214-.043.134-.03c.192-.04.214-.022.215.263v.344c.003.52.019.46-.361.53l-.024.004c-.115.018-.167.014-.18-.013m-4.385-.04-.194-.043-.012-.486v-.1a4 4 0 0 1 .008-.431l.003-.007c.019-.043.052-.037.409.03l.136.027.016.738v.116c-.003.264-.057.227-.366.155m1.65-.327v.548l-.482-.05a6 6 0 0 1-.224-.028l-.187-.023v-1.083l.361.027.072.004c.16.011.312.026.366.037l.025.005c.06.014.068.05.069.404zm1.398.548v-1.091l.244-.024.051-.004.216-.021.11-.01.038-.004c.248-.027.273-.053.273.25v.552c-.002.323-.056.287-.552.324zm-.385-.012h-.625v-.561c.002-.263.012-.48.027-.498.012-.016.148-.024.3-.02l.275.011z"/>
</svg>
